<svg xmlns="http://www.w3.org/2000/svg" viewBox="0 0 32 32">
  <path d="M25.996,9H23V6.004A4.00311,4.00311,0,0,0,18.996,2h-5.992A4.00317,4.00317,0,0,0,9,6.004V8.356h6.00605c.546,0,.99395.798.99395,1.344H6.00406A4.00317,4.00317,0,0,0,2,13.704v5.292A4.00323,4.00323,0,0,0,6.00406,23H9v2.996A4.00323,4.00323,0,0,0,13.00406,30h5.992A4.00316,4.00316,0,0,0,23,25.996V23.644H16.994C16.448,23.644,16,22.846,16,22.3h9.996A4.00316,4.00316,0,0,0,30,18.296V13.004A4.00311,4.00311,0,0,0,25.996,9Zm-14-2.506c-.546,0-.99394-.42-.99394-1.24594,0-.826.44792-.994.99394-.994.56,0,1.008.168,1.008.994C13.00406,6.074,12.55605,6.494,11.996,6.494Zm8.008,19.012c.54594,0,.994.42.994,1.246a.99784.99784,0,0,1-.994.994c-.56,0-1.008-.16808-1.008-.994C18.996,25.926,19.444,25.506,20.00406,25.506Z" style="fill: #7e57c2;isolation: isolate;opacity: 0.6"/>
</svg>
