<svg xmlns="http://www.w3.org/2000/svg" viewBox="0 0 32 32">
  <path d="M16,21.85094h9.282A3.7181,3.7181,0,0,0,29,18.13276h0V13.21851a3.7181,3.7181,0,0,0-3.718-3.71819H22.5V6.71819A3.71809,3.71809,0,0,0,18.782,3H13.218A3.71809,3.71809,0,0,0,9.5,6.71819v3.43217m6.5,0H6.718A3.7181,3.7181,0,0,0,3,13.86854v4.91555a3.71809,3.71809,0,0,0,3.718,3.71818H9.5v2.77954A3.71809,3.71809,0,0,0,13.218,29h5.564A3.7181,3.7181,0,0,0,22.5,25.28311V21.85094" style="fill: none;stroke: #b0bec5;stroke-linecap: round;stroke-linejoin: round;stroke-width: 2px;opacity: 0.6"/>
</svg>
