<svg xmlns="http://www.w3.org/2000/svg" viewBox="0 0 32 32">
  <g>
    <path d="M13.004,2A4.0041,4.0041,0,0,0,9,6.0042V8.35632h6.006c.546,0,.994.798.994,1.34406H6.004A4.0041,4.0041,0,0,0,2,13.70458v5.29367a4.0041,4.0041,0,0,0,4.004,4.0042H7.656V19.25026a3.9901,3.9901,0,0,1,3.976-4.0042h7.364A3.99252,3.99252,0,0,0,23,11.265l0-.01055V6.0042A4.0041,4.0041,0,0,0,18.996,2ZM11.996,4.25411c.56,0,1.008.168,1.008.99405s-.448,1.24746-1.008,1.24746c-.546,0-.994-.42-.994-1.24606S11.45,4.25411,11.996,4.25411Z" style="fill: #009688"/>
    <path d="M24.3426,9.00035v3.75219a3.99011,3.99011,0,0,1-3.97736,4.0028H13.004A3.9901,3.9901,0,0,0,9,20.73149V25.9958A4.0041,4.0041,0,0,0,13.004,30h5.992A4.0041,4.0041,0,0,0,23,25.9972V23.64508H16.9926c-.546,0-.9926-.798-.9926-1.34407h9.996A4.0041,4.0041,0,0,0,30,18.29681h0V13.00455a4.0041,4.0041,0,0,0-4.004-4.0042H24.3426ZM10.848,15.31886l-.0056.0056c.0168-.0028.035-.0014.0532-.0056Zm9.156,10.18691c.546,0,.994.42.994,1.24607a.994.994,0,0,1-.994.994c-.56,0-1.008-.168-1.008-.994S19.444,25.50577,20.004,25.50577Z" style="fill: #009688"/>
  </g>
</svg>
