<svg xmlns="http://www.w3.org/2000/svg" viewBox="0 0 32 32">
  <path d="M13.96383,2.25a.44848.44848,0,0,0-.43788.45833v1.375a.44845.44845,0,0,1-.43787.45833H11.862A.44844.44844,0,0,0,11.42415,5V8.66665a.44848.44848,0,0,1-.43792.45835H9.76018a.44845.44845,0,0,0-.43788.45835v2.5208a.44846.44846,0,0,1-.43789.45835H7.65835a.44845.44845,0,0,0-.43788.45835v2.5208A.44846.44846,0,0,1,6.78258,16H5.68788a.44846.44846,0,0,0-.43788.45835v1.375a.44844.44844,0,0,0,.43788.4583h5.69244a.44851.44851,0,0,1,.43792.45835v2.52085a.44847.44847,0,0,1-.43792.4583h-1.226a.44849.44849,0,0,0-.43788.45835v2.52085a.44844.44844,0,0,1-.43788.4583H8.05244a.44848.44848,0,0,0-.43788.45835v3.66665a.44845.44845,0,0,0,.43788.45835H11.5555a.44844.44844,0,0,0,.43787-.45835v-1.8333h1.75154A.44848.44848,0,0,0,14.18279,27V25.625a.44847.44847,0,0,1,.43787-.45835h1.226a.44847.44847,0,0,0,.43792-.4583v-1.375a.44845.44845,0,0,1,.43788-.45835h1.22605a.44845.44845,0,0,0,.43788-.45835v-1.375a.44845.44845,0,0,1,.43787-.4583h1.2261a.44847.44847,0,0,0,.43787-.45835V18.75a.44848.44848,0,0,1,.43788-.45835h1.22605a.44847.44847,0,0,0,.43792-.4583v-1.375A.44844.44844,0,0,1,23.028,16h1.22605a.44844.44844,0,0,0,.43787-.45835V11.875a.44847.44847,0,0,0-.43787-.45835H22.98422a.44847.44847,0,0,1-.43792-.4583v-1.375a.44848.44848,0,0,1,.43792-.45835h1.22606a.44844.44844,0,0,0,.43787-.45835v-1.375a.44844.44844,0,0,1,.43788-.45831h1.2261A.44848.44848,0,0,0,26.75,6.375V2.70833A.44847.44847,0,0,0,26.31213,2.25ZM12.34368,21.72915a.44847.44847,0,0,0-.43787.45835v2.52085a.44843.44843,0,0,1-.43788.4583h-1.2261A.44848.44848,0,0,0,9.804,25.625V27a.44848.44848,0,0,0,.43786.45835h1.75154V25.625a.44847.44847,0,0,1,.43787-.45835h1.22611a.44846.44846,0,0,0,.43787-.4583v-1.375a.44844.44844,0,0,1,.43787-.45835h1.22606a.44844.44844,0,0,0,.43787-.45835v-1.375a.44847.44847,0,0,1,.43792-.4583H17.861a.44847.44847,0,0,0,.43787-.45835V18.75a.44847.44847,0,0,1,.43787-.45835H19.9628a.44847.44847,0,0,0,.43792-.4583v-1.375A.44844.44844,0,0,1,20.83859,16h1.22606a.44844.44844,0,0,0,.43787-.45835v-1.375a.44843.44843,0,0,0-.43787-.4583H18.693a.44847.44847,0,0,1-.43787-.45835V11.875a.44847.44847,0,0,1,.43787-.45835H19.919a.44847.44847,0,0,0,.43792-.4583v-1.375a.44844.44844,0,0,1,.43787-.45835h1.22605a.44844.44844,0,0,0,.43788-.45835v-1.375a.44844.44844,0,0,1,.43787-.45831h1.2261a.44846.44846,0,0,0,.43788-.45834V5a.44845.44845,0,0,0-.43788-.45833H14.05144A.44848.44848,0,0,0,13.61352,5V8.66665a.44844.44844,0,0,1-.43788.45835h-1.226a.44844.44844,0,0,0-.43787.45835v2.5208a.44848.44848,0,0,1-.43788.45835H9.84775a.44845.44845,0,0,0-.43787.45835v2.5208A.44845.44845,0,0,0,9.84775,16h3.722a.44844.44844,0,0,1,.43788.45835v4.8125a.44843.44843,0,0,1-.43788.4583Z" style="fill: #64dd17;stroke: #64dd17;stroke-miterlimit: 10;stroke-width: 0.5px;fill-rule: evenodd"/>
</svg>
