<svg xmlns="http://www.w3.org/2000/svg" viewBox="0 0 32 32">
  <g>
    <path d="M23.01316,9.34718H26.035a.62972.62972,0,0,1,.68647.55v4.852a.62971.62971,0,0,1-.68647.55H23.01316a.62971.62971,0,0,1-.68647-.55v-4.852A.62972.62972,0,0,1,23.01316,9.34718Z" style="fill: #ef5350"/>
    <path d="M17.36617,9.34718h3.03a.62971.62971,0,0,1,.68647.55v8.56944a.6297.6297,0,0,1-.68647.55h-3.03a.6297.6297,0,0,1-.68647-.55V9.89718A.62971.62971,0,0,1,17.36617,9.34718Z" style="fill: #ff7043"/>
    <path d="M11.69525,9.34718h3.02154a.62972.62972,0,0,1,.68647.55V23.281a.62971.62971,0,0,1-.68647.55H11.69525a.6297.6297,0,0,1-.68647-.55V9.89718A.62971.62971,0,0,1,11.69525,9.34718Z" style="fill: #d4e157"/>
    <path d="M5.94821,9.34718H8.97005a.62971.62971,0,0,1,.68647.55V26.45a.6297.6297,0,0,1-.68647.55H5.94821a.6297.6297,0,0,1-.68647-.55V9.89718A.62971.62971,0,0,1,5.94821,9.34718Z" style="fill: #29b6f6"/>
    <rect x="5.26174" y="5" width="4.39478" height="0.81256" rx="0.28274" style="fill: #29b6f6"/>
    <rect x="11.00875" y="5" width="4.39478" height="0.81256" rx="0.28274" style="fill: #d4e157"/>
    <rect x="16.6797" y="5" width="4.39478" height="0.81256" rx="0.28274" style="fill: #ff7043"/>
    <rect x="22.32669" y="5" width="4.39478" height="0.81256" rx="0.28274" style="fill: #ef5350"/>
    <rect x="4" y="6.73684" width="24" height="1.71653" rx="0.61446" style="fill: #bdbdbd"/>
  </g>
</svg>
