<svg xmlns="http://www.w3.org/2000/svg" viewBox="0 0 24 24">
  <defs>
    <style>
      .a {
        fill: #b0bec5;
      }

      .b {
        fill: #f57c00;
      }

      .c {
        fill: #9e9e9e;
      }

      .d {
        fill: #616161;
      }

      .e {
        fill: #757575;
      }
    </style>
  </defs>
  <g>
    <path class="a" d="M10,4H4A1.99309,1.99309,0,0,0,2,6V18a2,2,0,0,0,2,2H20a2,2,0,0,0,2-2V8a1.99944,1.99944,0,0,0-2-2H12Z"/>
    <g>
      <path class="b" d="M17.23728,9.19394a6.46391,6.46391,0,0,0-6.27842,4.95644c1.07257-1.41709,3.54338-2.33677,6.27842-2.33694,2.74123.00175,5.21469.927,6.28082,2.34938a6.46393,6.46393,0,0,0-6.28082-4.96894Zm-6.28081,7.95933a6.45436,6.45436,0,0,0,12.55924.01252c-1.07258,1.41709-3.54338,2.33676-6.27843,2.33694-2.74122-.00175-5.21468-.927-6.28081-2.34938Z"/>
      <circle class="c" cx="11.94143" cy="22.646" r="1.354"/>
      <circle class="d" cx="11.03187" cy="9.58888" r="0.99436"/>
      <circle class="e" cx="22.73061" cy="8.67931" r="1.26939"/>
    </g>
  </g>
</svg>
