<svg xmlns="http://www.w3.org/2000/svg" viewBox="0 0 32 32">
  <g>
    <path d="M28.96692,12H9.44152a2,2,0,0,0-1.89737,1.36754L4,24V10H28a2,2,0,0,0-2-2H15.1241a2,2,0,0,1-1.28038-.46357L12.5563,6.46357A2,2,0,0,0,11.27592,6H4A2,2,0,0,0,2,8V24a2,2,0,0,0,2,2H26l4.80523-11.21213A2,2,0,0,0,28.96692,12Z" style="fill: #42a5f5"/>
    <g>
      <path d="M30.71429,16H28v5H19v7.71429A1.28571,1.28571,0,0,0,20.28571,30h6.42858A1.28571,1.28571,0,0,0,28,28.71429V26H22V25h8.71429A1.28571,1.28571,0,0,0,32,23.71429V17.28571A1.28571,1.28571,0,0,0,30.71429,16ZM24,28h3v1H24Z" style="fill: #fbc02d;isolation: isolate"/>
      <path d="M25.71429,12H19.28571A1.28571,1.28571,0,0,0,18,13.28571V16h6v1H15.28571A1.28571,1.28571,0,0,0,14,18.28571v6.42858A1.28571,1.28571,0,0,0,15.28571,26H18V20h9V13.28571A1.28571,1.28571,0,0,0,25.71429,12ZM22,14H19V13h3Z" style="fill: #01579b;isolation: isolate"/>
    </g>
  </g>
</svg>
