<svg xmlns="http://www.w3.org/2000/svg" viewBox="0 0 32 32">
  <g>
    <path d="M28.96692,12H9.44152a2,2,0,0,0-1.89737,1.36754L4,24V10H28a2,2,0,0,0-2-2H15.1241a2,2,0,0,1-1.28038-.46357L12.5563,6.46357A2,2,0,0,0,11.27592,6H4A2,2,0,0,0,2,8V24a2,2,0,0,0,2,2H26l4.80523-11.21213A2,2,0,0,0,28.96692,12Z" style="fill: #78909c"/>
    <path d="M24,14.00007a8.18926,8.18926,0,0,0-7.997,6.134c1.36617-1.75377,4.51327-2.892,7.997-2.89217,3.49156.00217,6.64205,1.1472,8,2.90758A8.18862,8.18862,0,0,0,24,14Zm-8,9.8504a8.27913,8.27913,0,0,0,15.997.01549c-1.36617,1.75379-4.51327,2.892-7.997,2.89218-3.49156-.00217-6.64205-1.1472-8-2.90758Z" style="fill: #f57c00"/>
  </g>
</svg>
