<svg xmlns="http://www.w3.org/2000/svg" viewBox="0 0 32 32">
  <path d="M28.97,12H28V10a1.99943,1.99943,0,0,0-2-2H15.12a2.01988,2.01988,0,0,1-1.28-.47L12.56,6.46A2.00984,2.00984,0,0,0,11.28,6H4A1.99943,1.99943,0,0,0,2,8V24a2.00591,2.00591,0,0,0,2,2H26l4.81-11.22A1.99909,1.99909,0,0,0,28.97,12Zm-.05,2.1-.28.66L24.68,24C19.8,24,6.18,23.99,4,23.99c.01-1.08-.01-9.54,0-10.87C4.01,12.78,3.99,8.1,4,8h.74c1.39,0,5.2-.01,6.54,0,.28.24.98.81,1.25995,1.05,1.27,1.23,3.48.92,5.1.95H26v2H9.44a2.01359,2.01359,0,0,0-1.9,1.36L5.1,20.25l1.88.67c.35-.99,2.07-5.83,2.39-6.71A2.17921,2.17921,0,0,1,9.44,14H28.96A.21786.21786,0,0,1,28.92,14.1Z" style="fill: #b0bec5"/>
</svg>
