<svg xmlns="http://www.w3.org/2000/svg" viewBox="0 0 32 32">
  <defs>
    <style>
      .a {
        fill: none;
        stroke: #ffa726;
        stroke-linecap: round;
        stroke-linejoin: round;
        stroke-width: 2px;
      }
    </style>
  </defs>
  <path class="a" d="M6.82342,20.98393l1.17651-4.42779a4,4,0,0,1,3.86586-2.9728H27.30151a2,2,0,0,1,1.92558,2.54051l-1.85931,6.62382a4,4,0,0,1-3.85115,2.919H6.66021a3,3,0,0,1-3-3V9.33335a3,3,0,0,1,3-3h5.18728a3.65114,3.65114,0,0,1,2.32588.8367l.98325.81259a3.22394,3.22394,0,0,0,2.05371.73879h7.00446a3,3,0,0,1,3,3v1.86191"/>
</svg>
