<svg xmlns="http://www.w3.org/2000/svg" viewBox="0 0 32 32">
  <g>
    <path d="M13.84376,7.53645l-1.28749-1.0729A2,2,0,0,0,11.27591,6H4A2,2,0,0,0,2,8V24a2,2,0,0,0,2,2H28a2,2,0,0,0,2-2V10a2,2,0,0,0-2-2H15.12412A2,2,0,0,1,13.84376,7.53645Z" style="fill: #42a5f5"/>
    <g>
      <path d="M30.71429,16H28v5H19v7.71429A1.28571,1.28571,0,0,0,20.28571,30h6.42858A1.28571,1.28571,0,0,0,28,28.71429V26H22V25h8.71429A1.28571,1.28571,0,0,0,32,23.71429V17.28571A1.28571,1.28571,0,0,0,30.71429,16ZM24,28h3v1H24Z" style="fill: #fbc02d;isolation: isolate"/>
      <path d="M25.71429,12H19.28571A1.28571,1.28571,0,0,0,18,13.28571V16h6v1H15.28571A1.28571,1.28571,0,0,0,14,18.28571v6.42858A1.28571,1.28571,0,0,0,15.28571,26H18V20h9V13.28571A1.28571,1.28571,0,0,0,25.71429,12ZM22,14H19V13h3Z" style="fill: #01579b;isolation: isolate"/>
    </g>
  </g>
</svg>
