<svg xmlns="http://www.w3.org/2000/svg" viewBox="0 0 24 24">
  <defs>
    <style>
      .a {
        fill: #5d4037;
      }

      .b {
        fill: #ff9800;
      }
    </style>
  </defs>
  <path class="a" d="M5.54167,2H18.45833A3.58492,3.58492,0,0,1,22,5.63248v12.735A3.58492,3.58492,0,0,1,18.45833,22H5.54167A3.58492,3.58492,0,0,1,2,18.36752V5.63248A3.58492,3.58492,0,0,1,5.54167,2Z"/>
  <path class="b" d="M11.78583,13.91543h-3.098L8.0549,15.8725a.14575.14575,0,0,1-.15823.11659H6.331c-.0916,0-.11659-.05-.0916-.1499l2.6816-7.72c.025-.08328.05-.17489.08328-.27482a2.90917,2.90917,0,0,0,.05-.54132.08251.08251,0,0,1,.06662-.09161h2.15694c.06663,0,.09994.025.10827.06663l3.0397,8.57779c.025.09161,0,.13325-.08328.13325H12.602a.12573.12573,0,0,1-.13325-.09161Zm-2.615-1.69058h2.1153c-.05-.17488-.11659-.38308-.19154-.59961-.07495-.22485-.14991-.46636-.22486-.7162-.08328-.25817-.15823-.508-.24151-.76617s-.15823-.49968-.22485-.74119c-.06663-.23319-.12492-.44971-.18322-.64958h-.01665a10.22759,10.22759,0,0,1-.28315,1.0743c-.12492.39974-.24984.81614-.38309,1.23254C9.42069,11.48367,9.29577,11.87508,9.17085,12.22485Zm7.11208-3.556a1.0307,1.0307,0,0,1-.74119-.29148,1.0819,1.0819,0,0,1-.28315-.76617A.97975.97975,0,0,1,15.5584,6.87a1.0665,1.0665,0,0,1,.74118-.29148.99721.99721,0,0,1,.75785.29148,1.14491,1.14491,0,0,1-.01666,1.50736.97927.97927,0,0,1-.75784.29148Zm-.93273,7.22867V9.485c0-.08328.03331-.1166.10826-.1166H17.1074c.075,0,.10826.04164.10826.1166v6.41253c0,.0916-.03331.13324-.10826.13324H15.47512A.11652.11652,0,0,1,15.3502,15.89749Z"/>
</svg>
