<svg xmlns="http://www.w3.org/2000/svg" viewBox="0 0 24 24">
  <defs>
    <style>
      .a {
        fill: #b39ddb;
      }
    </style>
  </defs>
  <path class="a" d="M2,2V22H22V2ZM13.79,13.36H11.42v6.76a7.066,7.066,0,0,1-.87,0H9.68V13.37H7.28V12.6a4.00027,4.00027,0,0,1,0-.77h6.45v.77Zm6.32,5.23a2.31,2.31,0,0,1-1.67,1.53,3.6,3.6,0,0,1-.68.13,5.93023,5.93023,0,0,1-1.1,0,3.41,3.41,0,0,1-2-1,3.11,3.11,0,0,1-.46-.69.12368.12368,0,0,1,.08-.1c.08-.04,1.29-.75,1.32-.75a.74.74,0,0,1,.13.15,3.04975,3.04975,0,0,0,.61.62,1.79008,1.79008,0,0,0,.51.22,1.6302,1.6302,0,0,0,.42,0,1.22993,1.22993,0,0,0,.43,0,.94.94,0,0,0,.64-.46V17.7l-.06-.11c-.12-.26-.41-.43-1.3-.82a9.07984,9.07984,0,0,1-1.11-.55,2.59,2.59,0,0,1-1-1A1.92,1.92,0,0,1,14.75,14a1.58,1.58,0,0,1,.1-.76,2.18,2.18,0,0,1,.46-.78,2.5,2.5,0,0,1,1.59-.74h.88a2.32,2.32,0,0,1,1.63.9c.23.28.3.39.28.44a3.3202,3.3202,0,0,1-.64.46,4.00076,4.00076,0,0,1-.66.41.92474.92474,0,0,1-.22-.22,1,1,0,0,0-.75-.46.84.84,0,0,0-.82.29.77.77,0,0,0,0,.72c.12.26.34.4,1.18.77a5.67,5.67,0,0,1,1.83,1.07,2.26,2.26,0,0,1,.64,1.48A2.76,2.76,0,0,1,20.11,18.59Z"/>
</svg>
