<?xml version="1.0" encoding="UTF-8"?>
<svg width="24px" height="24px" viewBox="0 0 24 24" version="1.1" xmlns="http://www.w3.org/2000/svg" xmlns:xlink="http://www.w3.org/1999/xlink">
    <!-- Generator: Sketch 47.1 (45422) - http://www.bohemiancoding.com/sketch -->
    <title>folder-$1</title>
    <desc>Created with Sketch.</desc>
    <defs></defs>
    <g id="Page-1" stroke="none" stroke-width="1" fill="none" fill-rule="evenodd">
        <g id="folder-$1" fill-rule="nonzero">
            <path d="M10,4 L4,4 C2.89,4 2,4.89 2,6 L2,18 C2,19.097 2.903,20 4,20 L20,20 C21.097,20 22,19.097 22,18 L22,8 C22,6.89 21.1,6 20,6 L12,6 L10,4 Z" id="Shape" fill="#8D6E63"></path>
            <g id="bower" transform="translate(8.474023, 9.198242)">
                <path d="M14.4762433,6.34937546 C13.7197553,5.62247485 9.93679243,5.16869323 8.7431637,5.0366127 C8.80097509,4.90006628 8.85020124,4.75884801 8.89083888,4.61343192 C9.05355621,4.54217055 9.2292135,4.47586874 9.41082423,4.42050608 C9.43295622,4.48579113 9.53719326,4.73592353 9.59659353,4.85463908 C11.9967648,4.92084608 12.1199855,3.07099617 12.2176074,2.56421888 C12.3130683,2.06868804 12.3082035,1.58989613 13.1314804,0.714601087 C11.9049623,0.357166331 10.1411315,1.26858736 9.55026727,2.62509362 C9.32824448,2.54190577 9.10573783,2.48047198 8.8856799,2.4424694 C8.72795482,1.80629242 7.90671472,0.0338959699 5.75161167,0.0338959699 C3.0230045,0.0338959699 0.0489367898,2.28492087 0.0489367898,6.09554218 C0.0489367898,9.29869115 2.23581763,12.1058601 3.47126097,12.1058601 C4.01086223,12.1058601 4.47504029,11.7017721 4.58400672,11.3395642 C4.6753646,11.5879148 4.95566302,12.3599843 5.04772707,12.5565358 C5.18379617,12.8471816 5.81307488,13.0986872 6.08844971,12.7970662 C6.44251706,12.9937747 7.09222903,13.1122614 7.44632907,12.5876696 C8.12827653,12.731912 8.73113914,12.3252641 8.7443145,11.8400415 C9.0789294,11.8221701 9.24308196,11.3523243 9.17001266,10.9781506 C9.11614407,10.7026745 8.54073394,9.71419883 8.31629513,9.3729799 C8.76059571,9.73437054 9.88599374,9.83666756 10.022684,9.37320876 C10.7390247,9.93546641 11.8553667,9.6403547 11.9438999,9.18308145 C12.8143237,9.40923666 13.8126432,8.91253214 13.6487195,8.31095765 C15.0470404,8.2142577 14.8680451,6.7265144 14.4757267,6.34949642 L14.4762433,6.34937546 Z" id="outline" fill="#543729"></path>
                <g id="leaf" transform="translate(9.684301, 1.019568)" fill="#00ACEE">
                    <path d="M0.898322908,2.15676995 C1.19949162,1.55923418 1.57793201,0.906781453 2.0559352,0.503124426 C1.52982006,0.715160432 1.01038273,1.34901072 0.70326759,2.02648928 C0.546720912,1.92699008 0.387789305,1.83823896 0.227522138,1.7606175 C0.655950617,0.846140681 1.65145139,0.0824231142 2.74855011,0.0227681133 C2.01370607,0.689212414 2.2745536,2.07437864 1.67037182,2.80766452 C1.49748044,2.63400996 1.10050121,2.29887987 0.898322908,2.15676995 L0.898322908,2.15676995 Z M0.423308834,3.12978881 C0.423626824,3.1069253 0.432180766,2.93053602 0.448239282,2.85002085 C0.406105552,2.84009955 0.144208651,2.78887129 0.00766356888,2.79208299 C-0.00228953095,2.96357522 0.0797201957,3.25533142 0.160775951,3.43095753 C0.719008116,3.41925548 1.12221996,3.25208792 1.3595362,3.09840316 C1.15748509,3.0042144 0.812719889,2.92048752 0.550568596,2.87040403 C0.521313478,2.93091761 0.449320449,3.08511116 0.423308834,3.12978881 L0.423308834,3.12978881 Z" id="Shape"></path>
                </g>
                <g id="Group" transform="translate(0.659770, 0.658143)">
                    <path d="M7.37362433,8.21874355 C7.3737551,8.21953799 7.37410165,8.22061687 7.37419973,8.22141458 C7.3034451,8.06915908 7.22830632,7.88421692 7.13856676,7.6424834 C7.48799168,8.15109151 8.58308311,7.88876781 8.52564116,7.43302133 C9.06164617,7.83632465 10.1649763,7.36583027 9.91415405,6.80030983 C10.4510745,7.05050436 11.0639085,6.54709446 10.9264663,6.32772963 C11.8418759,6.50427945 12.7190998,6.6802604 12.9945074,6.75071425 C12.811566,7.04899066 12.3949468,7.2596166 11.7669104,7.11324914 C12.1062658,7.57553099 11.4473932,8.13017113 10.5296689,7.82468587 C10.73169,8.27853287 9.91457906,8.68709979 8.98589602,8.21406188 C8.99769337,8.66810504 7.83378766,8.72038147 7.37363087,8.21870464 L7.37362433,8.21874355 Z M9.18950274,5.92387707 C10.2519337,6.00544333 12.0088989,6.16386477 13.0966671,6.31609739 C13.0279492,5.96209542 12.840238,5.86097535 12.2497497,5.70238064 C11.6146843,5.77011441 10.0035307,5.92837892 9.18953543,5.92389341 L9.18950274,5.92387707 Z" id="wingtip" fill="#2BAF2B"></path>
                    <path d="M8.5257327,7.43312595 C9.06173771,7.83642927 10.1650678,7.36593489 9.91424559,6.80041445 C10.451166,7.05060897 11.0640001,6.54719581 10.9265578,6.32783425 C9.84431484,6.11916663 8.70865115,5.9097536 8.45106143,5.87313722 C8.60732185,5.88143704 8.86633045,5.89918062 9.18960082,5.92401438 C10.0036288,5.92849792 11.6147824,5.7702321 12.2498151,5.7025016 C11.2215486,5.44177987 9.12218744,5.06128987 7.67244018,4.96755847 C7.60524911,5.06575576 7.48174074,5.23228838 7.26661948,5.4092436 C6.63227332,6.75139754 5.48297657,7.64352958 4.21130917,7.64352958 C3.84073175,7.64352958 3.42608389,7.58101364 2.96135006,7.43244593 C2.67153138,7.74293325 1.43585265,7.97822621 0.433217593,7.48609221 C1.22851238,9.34832957 3.07286656,10.5914231 5.1145569,10.5914231 C6.83392498,10.5914231 7.5963631,8.8356675 7.42949701,8.37109713 C7.38901629,8.25830559 7.22859075,7.88432807 7.13882177,7.64259455 C7.48827938,8.15116997 8.58337081,7.88884627 8.52596155,7.43310307 L8.5257327,7.43312595 Z" id="body" fill="#FFCC2F"></path>
                    <path d="M7.48380041,3.89931796 C7.63561129,3.81673494 8.16022272,3.49872818 8.66013444,3.37923454 C8.65224851,3.32387187 8.64630195,3.26803189 8.64261317,3.21187478 C8.31463499,3.29042019 7.6963085,3.55544762 7.34194691,3.19021978 C8.08950962,3.41580286 8.46276788,2.98921545 9.01224249,2.98921545 C9.3396322,2.98921545 9.80685072,3.08067141 10.1751069,3.22526036 C9.87889672,2.95162808 8.90755887,2.12578804 7.70490681,2.12294373 C7.43639429,2.44847319 7.14614733,3.15362955 7.48377655,3.89929606 L7.48380041,3.89931796 Z" id="beak" fill="#CECECE"></path>
                    <path d="M2.96135006,7.43214516 C3.42608389,7.5807096 3.84073175,7.6432288 4.21130917,7.6432288 C5.48294388,7.6432288 6.63224063,6.75106407 7.26661948,5.40894282 C6.79743937,5.80057466 5.98207096,6.13567996 4.70867082,6.13567996 C5.8429287,5.8784891 6.81934382,5.31324982 7.3160516,4.48705997 C6.96688823,3.93134095 6.58820289,2.70191317 7.54719907,1.73000972 C7.39968081,1.25608909 6.6816466,0.0049530198 5.09210321,0.0049530198 C2.3180525,0.0049530198 0.0190993674,2.32620291 0.0190993674,5.4369282 C0.0190993674,6.17334253 0.167761886,6.86398638 0.433289518,7.48561488 C1.43589188,7.97777832 2.67156407,7.74248863 2.96138929,7.43200131 L2.96135006,7.43214516 Z" id="head" fill="#EF5734"></path>
                    <path d="M3.793392,2.69555434 C3.793392,3.40316596 4.36702688,3.97683354 5.0746385,3.97683354 C5.78225012,3.97683354 6.3559504,3.40313327 6.3559504,2.69555434 C6.3559504,1.98794272 5.78225012,1.41427514 5.0746385,1.41427514 C4.36702688,1.41427514 3.793392,1.98794272 3.793392,2.69555434 Z" id="eye_rim" fill="#FFCC2F"></path>
                    <path d="M4.30765603,2.69555434 C4.30765603,3.11919283 4.65116348,3.46263489 5.07473658,3.46263489 C5.49844046,3.46263489 5.84184983,3.11916013 5.84184983,2.69555434 C5.84184983,2.27188316 5.49844046,1.9284411 5.07473658,1.9284411 C4.65113079,1.9284411 4.30765603,2.27191585 4.30765603,2.69555434 L4.30765603,2.69555434 Z" id="eye" fill="#543729"></path>
                    <ellipse id="pupil_highlight" fill="#FFFFFF" cx="5.0746385" cy="2.3553489" rx="1" ry="1"></ellipse>
                </g>
            </g>
        </g>
    </g>
</svg>