<svg version="1.1" id="Layer_1" xmlns="http://www.w3.org/2000/svg" x="0" y="0" viewBox="0 0 500 500" style="enable-background:new 0 0 500 500" xml:space="preserve"><linearGradient id="SVGID_1_" gradientUnits="userSpaceOnUse" x1="245.967" y1="37.573" x2="198.655" y2="279.226" gradientTransform="matrix(1 0 0 -1 0 286)"><stop offset="0" style="stop-color:#bf7be0"/><stop offset=".994" style="stop-color:#da8afa"/></linearGradient><path d="M128.2 31.6C158.7 15.1 191.1 4.5 225.8 1 235.5-.1 245-.2 254.7.5c6.3 3.9 9.2 10.4 12.2 16.6 18.8 38.1 28.7 78.3 26.6 121-1.8 36.1-12 69.8-31.4 100.5-2.5 3.9-6 6.9-9 10.4-.7.5-1.4.9-2.3 1.1-.9-.2-1.6-.5-2.3-1.2-2.1-9.2-1.6-18.5-2.1-28-1.9-36.3-8.5-71.4-28.9-102.6-16.7-25.6-39.1-45.5-63.4-63.5-6.7-4.9-13.7-9.5-20.4-14.3-3-2.2-6.7-4.1-5.5-8.9z" style="fill:url(#SVGID_1_)"/><linearGradient id="SVGID_00000006677682655705062550000002568314004766353828_" gradientUnits="userSpaceOnUse" x1="256.984" y1="41.806" x2="480.236" y2="-41.095" gradientTransform="matrix(1 0 0 -1 0 286)"><stop offset="0" style="stop-color:#7cc1a3"/><stop offset="1" style="stop-color:#8ef3b8"/></linearGradient><path style="fill:url(#SVGID_00000006677682655705062550000002568314004766353828_)" d="M499.9 254.5c-.5 44.6-12.9 86-35.6 124.3-6.5 4.8-13.9 3.5-21.1 3-41.6-3.4-80.8-14.5-116.4-36.9-30.3-19.2-54.4-44.6-71.7-76-2.6-4.9-6.2-10.2-4.2-16.6.7-.5 1.4-.9 2.5-1.1 9.9 2.5 17.6 8.8 26.4 13.4 59.9 30.3 120.5 28 181.8 4.2 9.5-3.7 18.5-8.6 27.7-13 3.4-1.6 6.7-3.8 10.6-1.3z"/><linearGradient id="SVGID_00000083786259347990677570000000488679045329607572_" gradientUnits="userSpaceOnUse" x1="245.855" y1="36.254" x2="14.608" y2="112.609" gradientTransform="matrix(1 0 0 -1 0 286)"><stop offset="0" style="stop-color:#7ac29f"/><stop offset=".994" style="stop-color:#73ce98"/></linearGradient><path style="fill:url(#SVGID_00000083786259347990677570000000488679045329607572_)" d="M0 245.9c.9-45 12.3-86.9 36.1-125.2 3.9-1.9 8.1-2.6 12.5-2.3 29.8 2.3 59.2 6.5 87.2 18.2 24.3 10.2 46.5 23.3 66.2 41.1 15 13.4 27.7 28.6 38.2 45.5 4.9 7.9 9.3 16.4 8.5 26.3-.7.5-1.6.7-2.5.7-20.8-12.3-41.9-24-65.7-30-49.5-12.2-97.4-7.1-144.3 12.3-8.6 3.5-17.1 7.8-25.5 11.8-3.3 1.6-6.8 3.7-10.7 1.6z"/><linearGradient id="SVGID_00000048479099573391002740000012543505268012283068_" gradientUnits="userSpaceOnUse" x1="252.145" y1="43.125" x2="495.61" y2="88.185" gradientTransform="matrix(1 0 0 -1 0 286)"><stop offset="0" style="stop-color:#edc57d"/><stop offset="1" style="stop-color:#fefd8f"/></linearGradient><path style="fill:url(#SVGID_00000048479099573391002740000012543505268012283068_)" d="M499.9 254.5c-28.4 14.8-57.6 27.7-89.7 32.6-56.9 8.8-109.7-.7-157.1-34.9-.2-3.2 2.1-3.2 4.2-3.7 6.2-1.4 12.3-1.1 18.5-.9 51.3.4 94.4-19.2 133.2-51.7 19.9-16.6 35.4-36.7 49.5-58.2 2.5-3.9 4.6-9 10.7-8.3 21.2 39.1 31.9 80.7 30.7 125.1z"/><linearGradient id="SVGID_00000044147675296688792250000013813776175763429022_" gradientUnits="userSpaceOnUse" x1="245.881" y1="26.418" x2="5.926" y2="-15.756" gradientTransform="matrix(1 0 0 -1 0 286)"><stop offset="0" style="stop-color:#e8c179"/><stop offset=".994" style="stop-color:#fce382"/></linearGradient><path style="fill:url(#SVGID_00000044147675296688792250000013813776175763429022_)" d="M0 245.9c25.9-13.8 52.5-25.7 81.6-31.2 56.5-10.8 109.9-3.5 158.7 28.6 2.3 1.6 5.5 2.6 6.3 5.8-5.6 4.8-12.7 3.5-19 3.4-36.1-.9-69.6 8.6-100.9 26.4-35.8 20.5-63.4 49.2-85.4 83.8-2.3 3.5-3.7 8.8-9.7 8.1C9.4 332.1-.5 290.3 0 245.9z"/><linearGradient id="SVGID_00000092427842147752709480000017368265493192840103_" gradientUnits="userSpaceOnUse" x1="230.669" y1="53.078" x2="341.288" y2="284.504" gradientTransform="matrix(1 0 0 -1 0 286)"><stop offset="0" style="stop-color:#c6539c"/><stop offset="1" style="stop-color:#f96fbb"/></linearGradient><path style="fill:url(#SVGID_00000092427842147752709480000017368265493192840103_)" d="M251.4 248.9c12.7-18.9 23.4-38.6 29.9-60.5 15.3-52 10.7-102.6-9.9-152.3-5.1-12.2-11.1-23.8-16.7-35.8 44.6.5 86.3 11.6 124.2 35.6 4.1 7.4 2.3 15.3 1.8 22.9-4.1 52.5-20.6 100.2-55.5 140.7-15.3 17.8-33.6 31.6-53.5 43.4-6.4 3.7-12.8 7.4-20.3 6z"/><linearGradient id="SVGID_00000114785892942563221010000015602324874859818428_" gradientUnits="userSpaceOnUse" x1="259.349" y1="25.398" x2="54.943" y2="-137.544" gradientTransform="matrix(1 0 0 -1 0 286)"><stop offset="0" style="stop-color:#f18871"/><stop offset=".994" style="stop-color:#fe906c"/></linearGradient><path style="fill:url(#SVGID_00000114785892942563221010000015602324874859818428_)" d="M31.4 370.9c9.3-13 17.8-27 28.2-39.1 36.8-43.6 81.9-73 139.5-80.9 15.9-2.1 31.7-.5 47.6-1.6h1.9c.4-.7.9-.9 1.6-.2v.7c.2.9.2 1.6-.4 2.3-.5.7-1.1 1.2-1.8 1.8-22.5 12.2-43.5 26.3-61.5 45-32.6 33.9-50.4 74.4-57.6 120.1-1.9 12.5-3.7 25-3.3 37.7 0 3.2 0 6.5-3.5 8.3-39.1-23-69.4-54.3-90.7-94.1z"/><linearGradient id="SVGID_00000062155398551927360920000002449258031086374292_" gradientUnits="userSpaceOnUse" x1="231.681" y1="34.376" x2="429.543" y2="197.321" gradientTransform="matrix(1 0 0 -1 0 286)"><stop offset="0" style="stop-color:#f38d77"/><stop offset="1" style="stop-color:#feb080"/></linearGradient><path style="fill:url(#SVGID_00000062155398551927360920000002449258031086374292_)" d="M249.8 250.6c0-.4.2-.7.2-1.1.4-.2.9-.5 1.2-.7 30.6-12.7 56-32.4 76.6-58.2 28.2-35.1 43-75.6 48.1-120.3 1.2-11.5.5-23.1 2.6-34.6 38.8 22.7 68.5 54.5 90.4 93.6-9 12.3-17.4 25.2-27.1 37-35.2 43.6-79.8 72.3-135.3 82.5-14.3 2.6-28.9 1.9-43.5 1.9-3.3 0-7-.9-10.2 1.2-.5.2-.9.2-1.4.2-.7 0-1.2-.4-1.8-.9.4.1.2-.2.2-.6z"/><linearGradient id="SVGID_00000065034819684060591290000004186209221793657004_" gradientUnits="userSpaceOnUse" x1="256.51" y1="37.533" x2="300.182" y2="-206.304" gradientTransform="matrix(1 0 0 -1 0 286)"><stop offset="0" style="stop-color:#b672d9"/><stop offset=".994" style="stop-color:#9c4dc5"/></linearGradient><path style="fill:url(#SVGID_00000065034819684060591290000004186209221793657004_)" d="M248.6 251.3c.4-.2.9-.4 1.2-.7v.7c2.1 5.6 2.1 11.3 2.1 17.3-.5 39 9.2 75.5 29.4 109 20.4 33.7 47.6 60.5 81 81.3 3.9 2.5 9.3 3.9 9.2 10.1-39.1 21.9-81.2 31.7-125.8 31-4.1-2.1-6.3-5.5-8.5-9.5-16.2-31.4-27.1-64.2-29.8-99.6-3.5-45 5.6-86.6 28.2-125.4 3.3-5.9 8-9.9 13-14.2z"/><linearGradient id="SVGID_00000117643036891575286980000009430004975554636932_" gradientUnits="userSpaceOnUse" x1="271.641" y1="26.481" x2="167.571" y2="-201.309" gradientTransform="matrix(1 0 0 -1 0 286)"><stop offset="0" style="stop-color:#bb4795"/><stop offset=".994" style="stop-color:#b73a8c"/></linearGradient><path style="fill:url(#SVGID_00000117643036891575286980000009430004975554636932_)" d="M248.6 251.3c-16.6 24.3-28.9 50.3-34.5 79.3-8.8 44.6-3.5 87.8 13.2 129.6 5.5 13.4 12.2 26.4 18.3 39.5-40.2.9-77.1-10.6-112.4-28.7-3.7-1.9-7.4-4.2-11.1-6.2.2-41.4 7.4-81.3 26.4-118.5 21.1-41.3 52.3-72.5 94.2-92.7 1.8-1 3.9-1.6 5.9-2.3z"/><linearGradient id="SVGID_00000128443527396423427380000010803730017075386003_" gradientUnits="userSpaceOnUse" x1="259.221" y1="45.202" x2="414.926" y2="-149.065" gradientTransform="matrix(1 0 0 -1 0 286)"><stop offset="0" style="stop-color:#789df1"/><stop offset=".994" style="stop-color:#6092f6"/></linearGradient><path style="fill:url(#SVGID_00000128443527396423427380000010803730017075386003_)" d="M371.3 468.9c-18.3-12.2-36.8-24-52.8-39.5-34.9-34-59-74.1-67.1-122.9-3.2-18.3-3.7-36.9-1.6-55.4 1.1-.4 1.6.2 1.9 1.1 11.4 30 31.2 53.8 55.5 73.9 41 34 89.3 49.2 141.8 52 5.1.4 10.2.4 15.3.5-4.4 6.9-8.8 13.8-13 20.6-18 23.3-39.3 43.2-63.4 60.1-5.5 3.5-11.1 6.5-16.6 9.6z"/><linearGradient id="SVGID_00000171716954002624462160000018270085295698952624_" gradientUnits="userSpaceOnUse" x1="252.633" y1="40.831" x2="80.939" y2="219.801" gradientTransform="matrix(1 0 0 -1 0 286)"><stop offset="0" style="stop-color:#7aa2f3"/><stop offset=".994" style="stop-color:#5e9aea"/></linearGradient><path style="fill:url(#SVGID_00000171716954002624462160000018270085295698952624_)" d="m250.1 248.9-.7.2-.7-.2c-4.9-17.5-15.1-32.1-26.4-45.7-41.6-49.5-95.6-74.9-159.6-80.4-8.8-.7-17.6-1.6-26.4-2.5 22.7-38.1 53.5-67.5 92.1-89 10.4 9.9 23.3 16.4 34.3 25 30.5 23.5 56.7 50.1 71.9 86.2 10.6 25.2 14.1 51.7 15.3 78.6.4 9.6.1 18.6.2 27.8z"/><radialGradient id="SVGID_00000090284901335557401410000003997597873799682435_" cx="249.962" cy="36.071" r="249.59" gradientTransform="matrix(1 0 0 -1.0011 0 286.039)" gradientUnits="userSpaceOnUse"><stop offset="0" style="stop-color:#fff"/><stop offset="1" style="stop-color:#fff;stop-opacity:0"/></radialGradient><ellipse style="opacity:.9;fill:url(#SVGID_00000090284901335557401410000003997597873799682435_);enable-background:new" cx="250" cy="249.9" rx="249.6" ry="249.9"/><path class="st13" d="M206.5 356.8h-23.6c-7.8 0-14.4-1.2-22-7.2-7.2-5.6-11.3-13.2-12.5-23.3-.9-6.7-.2-13.6.4-20.3.7-7.9 1.6-17.8-1.4-21-2.5-2.6-3.3-2.8-4.1-3.2-1.1-.4-4.1-.9-5.1-.9h-5.6v-28.7h5.6c1.1 0 4.1-.5 5.1-.9.7-.2 1.6-.5 4.1-3.2 3-3.2 2.1-13 1.4-21-.5-6.7-1.2-13.6-.4-20.3 1.2-10.1 5.3-17.6 12.5-23.3 7.8-6 14.4-7.2 22-7.2h23.6V205h-23.6c-3 0-3 0-4.4 1.2-.5.5-1.2 1.1-1.8 4.2-.5 3.5 0 8.6.5 14.1 1.2 13.2 2.6 29.4-7.8 41.8 10.4 12.3 9 28.6 7.8 41.8-.5 5.5-.9 10.6-.5 14.1.4 3.2 1.1 3.7 1.8 4.2 1.6 1.2 1.6 1.2 4.4 1.2h23.6v29.2zM317.2 356.8h-23.6V328h23.6c3 0 3 0 4.4-1.2.5-.5 1.2-1.1 1.8-4.2.5-3.5 0-8.6-.5-14.1-1.2-13.2-2.6-29.4 7.8-41.8-10.4-12.3-9-28.6-7.8-41.8.5-5.5.9-10.6.5-14.1-.4-3.2-1.1-3.7-1.8-4.2-1.6-1.2-1.6-1.2-4.4-1.2h-23.6v-28.7h23.6c7.8 0 14.4 1.2 22 7.2 7.2 5.6 11.3 13.2 12.5 23.3.9 6.7.2 13.6-.4 20.3-.7 7.9-1.6 17.8 1.4 21 2.5 2.6 3.3 2.8 4.1 3.2 1.1.4 4.1.9 5.1.9h5.6v28.7H362c-1.1 0-4.1.5-5.1.9-.7.2-1.6.5-4.1 3.2-3 3.2-2.1 13-1.4 21 .5 6.7 1.2 13.6.4 20.3-1.2 10.1-5.3 17.6-12.5 23.3-7.8 5.6-14.5 6.8-22.1 6.8zM264.4 201.1h-28.7v-43.2l.2-.9c1.9-17.1 7-25 15.1-33.1L279.9 95l20.3 20.3-28.9 29.1c-3.7 3.7-5.6 5.6-6.9 15.5v41.2z"/></svg>