<?xml version="1.0" encoding="UTF-8"?>
<svg width="24px" height="24px" viewBox="0 0 24 24" version="1.1" xmlns="http://www.w3.org/2000/svg" xmlns:xlink="http://www.w3.org/1999/xlink">
    <!-- Generator: Sketch 47.1 (45422) - http://www.bohemiancoding.com/sketch -->
    <title>Icon 24x</title>
    <desc>Created with Sketch.</desc>
    <defs></defs>
    <g id="Page-1" stroke="none" stroke-width="1" fill="none" fill-rule="evenodd">
        <g id="Icon-24x" fill-rule="nonzero">
            <g id="Group" transform="translate(2.000000, 6.375000)">
                <path d="M16.5083806,5.69993102 L19.3007491,5.69993102 C18.3242767,6.02542183 18.0159169,6.67640344 17.844606,8.52656171 C17.7246883,9.84565603 17.1251,10.1882779 17.1251,10.1882779 C16.6796915,10.1882779 16.2342831,8.28672638 15.8402679,6.26525716 C15.9944477,5.92263526 16.2000209,5.75132431 16.5083806,5.69993102 Z" id="Shape" fill="#EB7077"></path>
                <path d="M17.1079689,10.1711468 L14.3156004,10.1711468 C14.8124022,10.1711468 15.1550241,9.22893661 15.3605972,8.02975995 C15.497646,7.22459848 15.6346947,6.64214125 15.8231368,6.24812606 C16.217152,8.26959528 16.6625604,10.1711468 17.1079689,10.1711468 Z" id="Shape" fill="#EB7077"></path>
                <path d="M15.8231368,6.24812606 C15.6175636,6.62501015 15.4805149,7.22459848 15.3605972,8.02975995 C15.1550241,9.22893661 14.8124022,10.1711468 14.3156004,10.1711468 C13.7845365,10.0512292 13.3562591,8.02975995 12.7909329,4.94616284 C12.7738018,4.84337626 12.7566708,4.75772079 12.7395397,4.65493422 C13.167817,2.42789186 13.6132255,0.509209205 14.058634,0.509209205 L14.2128138,0.509209205 C14.7438778,0.629126871 15.1721552,2.65059609 15.7374813,5.73419321 C15.7717435,5.92263526 15.7888746,6.07681511 15.8231368,6.24812606 Z" id="Shape" fill="#F6A2AD"></path>
                <path d="M11.4204453,0.5263403 L14.058634,0.5263403 C13.6132255,0.5263403 13.1506859,2.44502295 12.7395397,4.67206531 C12.3455245,2.58207171 11.8829849,0.5263403 11.4204453,0.5263403 Z" id="Shape" fill="#EB7077"></path>
                <path d="M12.7395397,4.67206531 C12.7052775,4.89476955 12.6538842,5.11747379 12.619622,5.35730912 C11.9857715,8.81779033 11.6088874,10.0854914 11.1634789,10.1882779 C10.6666771,10.1882779 10.1870065,7.94410448 9.7929913,5.75132431 C9.7929913,5.71706211 9.7758602,5.68279992 9.7758602,5.64853773 C9.7929913,5.54575116 9.81012239,5.46009569 9.82725349,5.35730912 C10.461104,1.87969681 10.8379881,0.629126871 11.2662655,0.5263403 L11.4204453,0.5263403 C11.8829849,0.5263403 12.3455245,2.58207171 12.7395397,4.67206531 Z" id="Shape" fill="#EB7077"></path>
                <path d="M11.1634789,10.1711468 L8.37111041,10.1711468 C8.85078107,10.1711468 9.33045173,8.02975995 9.75872911,5.63140664 C9.75872911,5.66566883 9.7758602,5.69993102 9.7758602,5.73419321 C10.1870065,7.94410448 10.6838082,10.1711468 11.1634789,10.1711468 Z" id="Shape" fill="#EB7077"></path>
                <path d="M9.7758602,5.64853773 C9.33045173,8.04689105 8.85078107,10.1882779 8.3882415,10.1882779 C7.84004646,10.0512292 7.42890018,8.02975995 6.84644294,4.96329393 C6.82931185,4.86050736 6.81218075,4.77485188 6.79504966,4.67206531 C7.22332703,2.44502295 7.66873551,0.5263403 8.11414398,0.5263403 L8.26832384,0.5263403 C8.79938778,0.646257966 9.21053407,2.633465 9.7758602,5.64853773 Z" id="Shape" fill="#F6A2AD"></path>
                <path d="M5.47595534,0.5263403 L8.11414398,0.5263403 C7.66873551,0.5263403 7.22332703,2.44502295 6.79504966,4.67206531 C6.40103447,2.58207171 5.9384949,0.5263403 5.47595534,0.5263403 Z" id="Shape" fill="#EB7077"></path>
                <path d="M6.79504966,4.67206531 C6.76078747,4.89476955 6.70939418,5.11747379 6.67513199,5.35730912 C6.04128147,8.81779033 5.66439738,10.0854914 5.21898891,10.1882779 C4.72218715,10.1882779 4.9106292,10.1026225 4.60226949,8.71500376 C4.29390977,7.32738505 4.05407444,6.50509249 3.72858364,6.07681511 C3.77997692,5.83697978 3.81423911,5.59714445 3.8656324,5.35730912 C4.51661401,1.87969681 4.8934981,0.629126871 5.32177548,0.5263403 L5.47595534,0.5263403 C5.9384949,0.5263403 6.40103447,2.58207171 6.79504966,4.67206531 Z" id="Shape" fill="#EB7077"></path>
                <path d="M5.21898891,10.1711468 L2.42662041,10.1711468 C2.87202888,10.1711468 3.31743735,8.26959528 3.74571473,6.05968402 C4.05407444,6.48796139 4.29390977,7.31025396 4.61940058,8.69787266 C4.92776029,10.0854914 4.72218715,10.1711468 5.21898891,10.1711468 Z" id="Shape" fill="#EB7077"></path>
                <path d="M3.74571473,6.05968402 C3.31743735,8.26959528 2.87202888,10.1711468 2.42662041,10.1711468 C2.37522712,10.1026225 2.06686741,10.1711468 1.77563879,8.45803733 C1.51867237,6.88197658 1.0561328,5.88837307 0.302364616,5.69993102 L3.09473312,5.69993102 C3.36883064,5.71706211 3.55727268,5.81984869 3.74571473,6.05968402 Z" id="Shape" fill="#F6A2AD"></path>
                <path d="M16.5083806,5.68279992 L19.3007491,5.68279992 C18.3242767,6.00829073 18.0159169,6.65927235 17.844606,8.50943062 C17.7246883,9.82852494 17.1251,10.1711468 17.1251,10.1711468 C16.6796915,10.1711468 16.2342831,8.26959528 15.8402679,6.24812606 C15.9944477,5.90550416 16.2000209,5.73419321 16.5083806,5.68279992 Z" id="Shape" fill="#EB7077"></path>
                <path d="M17.1079689,10.1540157 L14.3156004,10.1540157 C14.8124022,10.1540157 15.1550241,9.21180551 15.3605972,8.01262886 C15.497646,7.20746739 15.6346947,6.62501015 15.8231368,6.23099497 C16.217152,8.25246419 16.6625604,10.1540157 17.1079689,10.1540157 Z" id="Shape" fill="#EB7077"></path>
                <path d="M15.8231368,6.23099497 C15.6175636,6.60787906 15.4805149,7.20746739 15.3605972,8.01262886 C15.1550241,9.21180551 14.8124022,10.1540157 14.3156004,10.1540157 C13.7845365,10.0340981 13.3562591,8.01262886 12.7909329,4.92903174 C12.7738018,4.82624517 12.7566708,4.74058969 12.7395397,4.63780312 C13.167817,2.42789186 13.6132255,0.509209205 14.058634,0.509209205 L14.2128138,0.509209205 C14.7438778,0.629126871 15.1721552,2.65059609 15.7374813,5.73419321 C15.7717435,5.88837307 15.7888746,6.05968402 15.8231368,6.23099497 Z" id="Shape" fill="#F6A2AD"></path>
                <path d="M11.4204453,0.509209205 L14.058634,0.509209205 C13.6132255,0.509209205 13.1506859,2.42789186 12.7395397,4.65493422 C12.3455245,2.56494062 11.8829849,0.509209205 11.4204453,0.509209205 Z" id="Shape" fill="#EB7077"></path>
                <path d="M12.7395397,4.65493422 C12.7052775,4.87763846 12.6538842,5.10034269 12.619622,5.34017802 C11.9857715,8.80065923 11.6088874,10.0683603 11.1634789,10.1711468 C10.6666771,10.1711468 10.1870065,7.92697338 9.7929913,5.73419321 C9.7929913,5.69993102 9.7758602,5.66566883 9.7758602,5.63140664 C9.7929913,5.52862007 9.81012239,5.44296459 9.82725349,5.34017802 C10.461104,1.86256572 10.8379881,0.611995776 11.2662655,0.509209205 L11.4204453,0.509209205 C11.8829849,0.509209205 12.3455245,2.56494062 12.7395397,4.65493422 Z" id="Shape" fill="#EB7077"></path>
                <path d="M11.1634789,10.1540157 L8.37111041,10.1540157 C8.85078107,10.1540157 9.33045173,8.01262886 9.75872911,5.61427554 C9.75872911,5.64853773 9.7758602,5.68279992 9.7758602,5.71706211 C10.1870065,7.92697338 10.6838082,10.1540157 11.1634789,10.1540157 Z" id="Shape" fill="#EB7077"></path>
                <path d="M9.7758602,5.63140664 C9.33045173,8.02975995 8.85078107,10.1711468 8.3882415,10.1711468 C7.85717755,10.0512292 7.42890018,8.02975995 6.86357404,4.94616284 C6.84644294,4.84337626 6.82931185,4.75772079 6.81218075,4.65493422 C7.22332703,2.42789186 7.66873551,0.509209205 8.11414398,0.509209205 L8.26832384,0.509209205 C8.79938778,0.629126871 9.21053407,2.59920281 9.7758602,5.63140664 Z" id="Shape" fill="#F6A2AD"></path>
                <path d="M5.47595534,0.509209205 L8.11414398,0.509209205 C7.66873551,0.509209205 7.22332703,2.42789186 6.79504966,4.65493422 C6.40103447,2.56494062 5.9384949,0.509209205 5.47595534,0.509209205 Z" id="Shape" fill="#EB7077"></path>
                <path d="M6.79504966,4.65493422 C6.76078747,4.87763846 6.70939418,5.10034269 6.67513199,5.34017802 C6.04128147,8.80065923 5.66439738,10.0683603 5.21898891,10.1711468 C4.72218715,10.1711468 4.9106292,10.0854914 4.60226949,8.69787266 C4.29390977,7.31025396 4.05407444,6.48796139 3.72858364,6.05968402 C3.77997692,5.81984869 3.81423911,5.58001335 3.8656324,5.34017802 C4.51661401,1.86256572 4.8934981,0.611995776 5.32177548,0.509209205 L5.47595534,0.509209205 C5.9384949,0.509209205 6.40103447,2.56494062 6.79504966,4.65493422 Z" id="Shape" fill="#EB7077"></path>
                <path d="M5.21898891,10.1540157 L2.42662041,10.1540157 C2.87202888,10.1540157 3.31743735,8.25246419 3.74571473,6.04255292 C4.05407444,6.4708303 4.29390977,7.29312286 4.61940058,8.68074157 C4.92776029,10.0683603 4.72218715,10.1540157 5.21898891,10.1540157 Z" id="Shape" fill="#EB7077"></path>
                <path d="M3.74571473,6.04255292 C3.31743735,8.25246419 2.87202888,10.1540157 2.42662041,10.1540157 C2.37522712,10.0854914 2.06686741,10.1540157 1.77563879,8.44090624 C1.51867237,6.86484549 1.0561328,5.87124197 0.302364616,5.68279992 L3.09473312,5.68279992 C3.36883064,5.68279992 3.55727268,5.80271759 3.74571473,6.04255292 Z" id="Shape" fill="#F6A2AD"></path>
            </g>
        </g>
    </g>
</svg>