<?xml version="1.0" encoding="UTF-8" standalone="no"?>
<svg
   xmlns:dc="http://purl.org/dc/elements/1.1/"
   xmlns:cc="http://creativecommons.org/ns#"
   xmlns:rdf="http://www.w3.org/1999/02/22-rdf-syntax-ns#"
   xmlns:svg="http://www.w3.org/2000/svg"
   xmlns="http://www.w3.org/2000/svg"
   version="1.1"
   id="svg2"
   width="24"
   height="24"
   viewBox="0 0 24.000001 24">
  <metadata
     id="metadata8">
    <rdf:RDF>
      <cc:Work
         rdf:about="">
        <dc:format>image/svg+xml</dc:format>
        <dc:type
           rdf:resource="http://purl.org/dc/dcmitype/StillImage" />
        <dc:title></dc:title>
      </cc:Work>
    </rdf:RDF>
  </metadata>
  <defs
     id="defs6">
    <clipPath
       clipPathUnits="userSpaceOnUse"
       id="clipPath839">
      <rect
         style="fill:#11abdb;fill-opacity:1"
         id="rect841"
         width="178.18726"
         height="220.53423"
         x="520.81274"
         y="0"
         rx="58.390808" />
    </clipPath>
  </defs>
  <g
     id="g10"
     transform="translate(-520.81274)">
    <g
       id="g899"
       transform="matrix(0.1427532,0,0,0.1427532,419.4471,1.4415346)">
      <path
         id="path843-3"
         style="fill:#4caf50;fill-opacity:1"
         d="m 794.37884,11.724855 c -0.93801,0.0094 -1.89741,0.576256 -2.98243,1.685547 -3.27141,3.34458 -47.38476,65.760882 -47.38476,67.044922 0,1.85159 3.2085,4.746094 5.26172,4.746094 1.0737,0 5.06654,-1.6875 8.87304,-3.75 4.98999,-2.70376 7.09177,-4.447495 7.53321,-6.25 1.78204,-7.276421 6.11404,-11 12.79687,-11 5.12132,0 10.46673,5.067835 11.21289,10.630859 0.50938,3.797736 1.21647,4.619217 8.81641,10.248047 4.54483,3.36609 8.71578,6.121094 9.26953,6.121094 0.55374,0 2.29572,-0.672531 3.87109,-1.494141 3.81846,-1.99146 6.20598,-1.89006 10.38086,0.4375 1.91642,1.06843 3.89483,1.9684 4.39649,2 1.54453,0.0972 16.73201,-9.156768 17.25195,-10.511719 0.2692,-0.70152 0.007,-2.179373 -0.58398,-3.283203 -0.82975,-1.5504 -36.7235,-52.512363 -44.97461,-63.855468 -1.36044,-1.870252 -2.53227,-2.781573 -3.73828,-2.769532 z" />
      <path
         id="path843-5"
         style="fill:#2e7d32;fill-opacity:1"
         d="m 768.83587,85.058832 -12.16211,6.90039 -12.16211,6.90039 -10.74219,14.919938 c -11.3065,15.70439 -12.75258,18.52021 -10.74805,20.93553 1.07047,1.28985 10.42392,1.48633 70.53125,1.48633 38.11267,0 70.00698,-0.27355 70.87696,-0.60742 0.86999,-0.33384 1.58203,-1.61541 1.58203,-2.8496 0,-2.3894 -23.32755,-36.347758 -25.55664,-37.203138 -2.6824,-1.02934 -10.44384,4.726298 -12.89453,9.562508 -2.74182,5.41073 -6.18549,7.60037 -11.72657,7.45508 -4.88534,-0.1281 -9.1458,-3.86067 -11.02148,-9.6543 -1.08547,-3.352808 -2.78148,-5.081288 -10.21094,-10.406248 -6.03866,-4.32813 -9.42297,-6.15892 -10.5,-5.67969 -3.51724,1.56502 -8.92131,1.52158 -12.04883,-0.0957 z" />
    </g>
  </g>
</svg>
