<?xml version="1.0" encoding="UTF-8" standalone="no"?>
<svg
   xmlns:dc="http://purl.org/dc/elements/1.1/"
   xmlns:cc="http://creativecommons.org/ns#"
   xmlns:rdf="http://www.w3.org/1999/02/22-rdf-syntax-ns#"
   xmlns:svg="http://www.w3.org/2000/svg"
   xmlns="http://www.w3.org/2000/svg"
   xmlns:sodipodi="http://sodipodi.sourceforge.net/DTD/sodipodi-0.dtd"
   xmlns:inkscape="http://www.inkscape.org/namespaces/inkscape"
   version="1.1"
   width="24"
   height="24"
   viewBox="0 0 24 24"
   id="svg2"
   inkscape:version="0.91 r13725"
   sodipodi:docname="assembly.svg">
  <metadata
     id="metadata10">
    <rdf:RDF>
      <cc:Work
         rdf:about="">
        <dc:format>image/svg+xml</dc:format>
        <dc:type
           rdf:resource="http://purl.org/dc/dcmitype/StillImage" />
        <dc:title />
      </cc:Work>
    </rdf:RDF>
  </metadata>
  <defs
     id="defs8" />
  <sodipodi:namedview
     pagecolor="#ffffff"
     bordercolor="#666666"
     borderopacity="1"
     objecttolerance="10"
     gridtolerance="10"
     guidetolerance="10"
     inkscape:pageopacity="0"
     inkscape:pageshadow="2"
     inkscape:window-width="1366"
     inkscape:window-height="705"
     id="namedview6"
     showgrid="false"
     inkscape:zoom="16"
     inkscape:cx="0.03125"
     inkscape:cy="13.837891"
     inkscape:window-x="-8"
     inkscape:window-y="-8"
     inkscape:window-maximized="1"
     inkscape:current-layer="svg2" />
  <flowRoot
     xml:space="preserve"
     id="flowRoot4172"
     style="font-style:normal;font-weight:normal;font-size:7.5px;line-height:125%;font-family:sans-serif;letter-spacing:0px;word-spacing:0px;fill:#000000;fill-opacity:1;stroke:none;stroke-width:1px;stroke-linecap:butt;stroke-linejoin:miter;stroke-opacity:1"
     transform="translate(-0.0625,0)"><flowRegion
       id="flowRegion4174"><rect
         id="rect4176"
         width="13.375105"
         height="15.244742"
         x="5.3212781"
         y="4.4407072"
         style="font-size:7.5px" /></flowRegion><flowPara
       id="flowPara4178" /></flowRoot>  <path
     style="fill:#ff6e40;fill-opacity:1"
     d="M 1.7460938 1.5664062 L 1.7460938 22.470703 L 5.1289062 22.470703 L 5.1289062 20.382812 L 3.4375 20.382812 L 3.4375 3.65625 L 5.1289062 3.65625 L 5.1289062 1.5664062 L 1.7460938 1.5664062 z M 18.964844 1.5664062 L 18.964844 3.65625 L 20.658203 3.65625 L 20.658203 20.382812 L 18.964844 20.382812 L 18.964844 22.472656 L 22.347656 22.472656 L 22.347656 1.5664062 L 18.964844 1.5664062 z "
     id="path4-2-6" />
  <path
     inkscape:connector-curvature="0"
     style="fill:#ff6e40;fill-opacity:1"
     d="m 15.196176,3.9879955 c -0.499902,0 -0.929695,0.075595 -1.28938,0.2249557 -0.359687,0.1493609 -0.652312,0.3724878 -0.877877,0.6712095 -0.225565,0.3017699 -0.390167,0.6724288 -0.493806,1.1083185 -0.103638,0.43589 -0.155455,0.948594 -0.155455,1.539941 0,0.5730581 0.04938,1.0821043 0.14997,1.5271387 0.10059,0.4419861 0.264582,0.8114251 0.490147,1.1101471 0.222518,0.298722 0.512703,0.524288 0.87239,0.676696 0.359685,0.152409 0.794965,0.230443 1.304011,0.230443 0.518192,0 0.954081,-0.0756 1.30767,-0.224956 0.353589,-0.152409 0.643166,-0.375535 0.868732,-0.67121 0.219469,-0.289576 0.381021,-0.660845 0.48466,-1.1119756 0.103638,-0.4541789 0.155458,-0.966883 0.155458,-1.539941 0,-0.573058 -0.05121,-1.0784465 -0.1518,-1.5143362 C 17.760305,5.5754882 17.598752,5.2066582 17.376235,4.9079365 17.150669,4.6031184 16.861092,4.3745049 16.507504,4.2220958 16.153914,4.0666386 15.717416,3.9879955 15.196176,3.9879955 Z M 8.3816629,4.1087035 C 8.3694701,4.2915943 8.3237474,4.4440034 8.2444947,4.5659307 8.165242,4.6878579 8.046363,4.7860093 7.8878575,4.8622138 7.7537377,4.9262256 7.5860877,4.9719483 7.3849077,4.999382 7.1837278,5.0237673 6.9734033,5.0359601 6.7539343,5.0359601 l 0,1.1101475 1.4356931,0 0,3.5992924 -1.4356931,0 0,1.18879 4.5448387,0 0,-1.18879 -1.4046027,0 0,-5.6366965 -1.5125074,0 z m 6.8145131,1.137581 c 0.374927,0 0.643167,0.1761849 0.80472,0.5267257 0.161553,0.3474927 0.241417,0.9327434 0.241417,1.7557522 0,0.8138643 -0.0823,1.3991152 -0.246903,1.7557522 -0.164603,0.3566374 -0.430404,0.5340414 -0.799234,0.5340414 -0.368829,0 -0.636459,-0.177404 -0.801062,-0.5340414 -0.164601,-0.3566371 -0.246903,-0.9406687 -0.246903,-1.7484365 0,-0.8291052 0.08169,-1.4155751 0.243246,-1.7630679 0.161552,-0.3505408 0.429792,-0.5267257 0.804719,-0.5267257 z M 8.8663236,12.885635 c -0.4999017,0 -0.9296951,0.07377 -1.2893805,0.223127 -0.3596853,0.149361 -0.6523107,0.374317 -0.877876,0.67304 -0.2255654,0.301769 -0.3901672,0.670599 -0.4938054,1.106489 -0.1036382,0.43589 -0.1554572,0.948594 -0.1554572,1.539941 0,0.573058 0.04938,1.082103 0.1499705,1.527138 0.10059,0.441986 0.264582,0.813254 0.4901475,1.111976 0.2225171,0.298721 0.5145329,0.524287 0.8742183,0.676696 0.3596853,0.15241 0.7931366,0.228614 1.3021828,0.228614 0.5181908,0 0.9540805,-0.0756 1.3076694,-0.224956 0.353589,-0.152408 0.643166,-0.375534 0.868731,-0.671209 0.219469,-0.289576 0.381023,-0.660845 0.484661,-1.111976 0.103638,-0.454179 0.155457,-0.966883 0.155457,-1.539941 0,-0.573058 -0.04938,-1.078446 -0.149969,-1.514336 C 11.432283,14.4713 11.268901,14.10247 11.046382,13.803748 10.820818,13.49893 10.533068,13.270316 10.17948,13.117906 9.8258912,12.96245 9.3875625,12.885635 8.8663236,12.885635 Z m 5.8451924,0.11888 c -0.01219,0.182889 -0.05792,0.335299 -0.137168,0.457227 -0.07926,0.121927 -0.198132,0.220078 -0.356638,0.296284 -0.13412,0.06401 -0.301769,0.109734 -0.502949,0.137166 -0.20118,0.02438 -0.411505,0.03658 -0.630974,0.03658 l 0,1.111977 1.435693,0 0,3.597463 -1.435693,0 0,1.18879 4.544838,0 0,-1.18879 -1.404602,0 0,-5.636696 -1.512507,0 z m -5.8451924,1.137581 c 0.3749263,0 0.6431662,0.176185 0.8047198,0.526726 0.1615535,0.347493 0.2414159,0.932743 0.2414159,1.755752 0,0.813865 -0.080471,1.399114 -0.2450738,1.755751 -0.1646016,0.356638 -0.432232,0.534042 -0.8010619,0.534042 -0.3688298,0 -0.6364601,-0.177404 -0.8010619,-0.534042 C 7.9006599,17.823688 7.820188,17.241487 7.820188,16.433719 c 0,-0.829106 0.079862,-1.417404 0.2414159,-1.764897 0.1615535,-0.350541 0.4297935,-0.526726 0.8047197,-0.526726 z"
     id="path4-2-6-1" />
</svg>
