<?xml version="1.0" encoding="UTF-8" standalone="no"?>
<svg
   xmlns:dc="http://purl.org/dc/elements/1.1/"
   xmlns:cc="http://creativecommons.org/ns#"
   xmlns:rdf="http://www.w3.org/1999/02/22-rdf-syntax-ns#"
   xmlns:svg="http://www.w3.org/2000/svg"
   xmlns="http://www.w3.org/2000/svg"
   xmlns:sodipodi="http://sodipodi.sourceforge.net/DTD/sodipodi-0.dtd"
   xmlns:inkscape="http://www.inkscape.org/namespaces/inkscape"
   version="1.1"
   width="24"
   height="24"
   viewBox="0 0 24 24"
   id="svg2"
   inkscape:version="0.91 r13725"
   sodipodi:docname="assembly.svg">
  <metadata
     id="metadata10">
    <rdf:RDF>
      <cc:Work
         rdf:about="">
        <dc:format>image/svg+xml</dc:format>
        <dc:type
           rdf:resource="http://purl.org/dc/dcmitype/StillImage" />
        <dc:title />
      </cc:Work>
    </rdf:RDF>
  </metadata>
  <defs
     id="defs8" />
  <sodipodi:namedview
     pagecolor="#ffffff"
     bordercolor="#666666"
     borderopacity="1"
     objecttolerance="10"
     gridtolerance="10"
     guidetolerance="10"
     inkscape:pageopacity="0"
     inkscape:pageshadow="2"
     inkscape:window-width="1366"
     inkscape:window-height="705"
     id="namedview6"
     showgrid="false"
     inkscape:zoom="16"
     inkscape:cx="0.03125"
     inkscape:cy="13.837891"
     inkscape:window-x="-8"
     inkscape:window-y="-8"
     inkscape:window-maximized="1"
     inkscape:current-layer="svg2" />
  <flowRoot
     xml:space="preserve"
     id="flowRoot4172"
     style="fill:black;stroke:none;stroke-opacity:1;stroke-width:1px;stroke-linejoin:miter;stroke-linecap:butt;fill-opacity:1;font-family:sans-serif;font-style:normal;font-weight:normal;font-size:7.5px;line-height:125%;letter-spacing:0px;word-spacing:0px;"><flowRegion
       id="flowRegion4174"><rect
         id="rect4176"
         width="13.375105"
         height="15.244742"
         x="5.3212781"
         y="4.4407072"
         style="font-size:7.5px;" /></flowRegion><flowPara
       id="flowPara4178" /></flowRoot>  <path
     style="fill:#ff6e40;fill-opacity:1"
     d="M 1.8085938 1.5664062 L 1.8085938 22.470703 L 5.1914062 22.470703 L 5.1914062 20.382812 L 3.5 20.382812 L 3.5 3.65625 L 5.1914062 3.65625 L 5.1914062 1.5664062 L 1.8085938 1.5664062 z M 19.027344 1.5664062 L 19.027344 3.65625 L 20.720703 3.65625 L 20.720703 20.382812 L 19.027344 20.382812 L 19.027344 22.472656 L 22.410156 22.472656 L 22.410156 1.5664062 L 19.027344 1.5664062 z M 15.501953 3.4570312 C 14.968099 3.4570312 14.509115 3.5377604 14.125 3.6972656 C 13.740885 3.8567708 13.428385 4.0950521 13.1875 4.4140625 C 12.946615 4.7363281 12.770833 5.1321615 12.660156 5.5976562 C 12.549479 6.063151 12.494141 6.6106771 12.494141 7.2421875 C 12.494141 7.8541667 12.546875 8.3977865 12.654297 8.8730469 C 12.761719 9.3450521 12.936849 9.7395833 13.177734 10.058594 C 13.415365 10.377604 13.72526 10.61849 14.109375 10.78125 C 14.49349 10.94401 14.958333 11.027344 15.501953 11.027344 C 16.055339 11.027344 16.520833 10.946615 16.898438 10.787109 C 17.276042 10.624349 17.585286 10.386068 17.826172 10.070312 C 18.060547 9.7610677 18.233073 9.3645833 18.34375 8.8828125 C 18.454427 8.3977865 18.509766 7.8502604 18.509766 7.2382812 C 18.509766 6.6263021 18.455078 6.0865885 18.347656 5.6210938 C 18.240234 5.1523438 18.067708 4.7584635 17.830078 4.4394531 C 17.589193 4.1139323 17.279948 3.8697917 16.902344 3.7070312 C 16.52474 3.5410156 16.058594 3.4570312 15.501953 3.4570312 z M 8.2246094 3.5859375 C 8.2115885 3.78125 8.1627604 3.9440104 8.078125 4.0742188 C 7.9934896 4.2044271 7.8665365 4.3092448 7.6972656 4.390625 C 7.5540365 4.4589844 7.375 4.5078125 7.1601562 4.5371094 C 6.9453125 4.563151 6.7207031 4.5761719 6.4863281 4.5761719 L 6.4863281 5.7617188 L 8.0195312 5.7617188 L 8.0195312 9.6054688 L 6.4863281 9.6054688 L 6.4863281 10.875 L 11.339844 10.875 L 11.339844 9.6054688 L 9.8398438 9.6054688 L 9.8398438 3.5859375 L 8.2246094 3.5859375 z M 15.501953 4.8007812 C 15.902344 4.8007812 16.188802 4.9889323 16.361328 5.3632812 C 16.533854 5.734375 16.619141 6.359375 16.619141 7.2382812 C 16.619141 8.1074219 16.53125 8.7324219 16.355469 9.1132812 C 16.179688 9.4941406 15.895833 9.6835938 15.501953 9.6835938 C 15.108073 9.6835938 14.822266 9.4941406 14.646484 9.1132812 C 14.470703 8.7324219 14.382812 8.108724 14.382812 7.2460938 C 14.382812 6.3606771 14.470052 5.734375 14.642578 5.3632812 C 14.815104 4.9889323 15.101562 4.8007812 15.501953 4.8007812 z M 8.7421875 12.958984 C 8.2083333 12.958984 7.749349 13.03776 7.3652344 13.197266 C 6.9811198 13.356771 6.6686198 13.597005 6.4277344 13.916016 C 6.186849 14.238281 6.0110677 14.632161 5.9003906 15.097656 C 5.7897135 15.563151 5.734375 16.110677 5.734375 16.742188 C 5.734375 17.354167 5.7871094 17.897786 5.8945312 18.373047 C 6.0019531 18.845052 6.1770833 19.241536 6.4179688 19.560547 C 6.655599 19.879557 6.9674479 20.120443 7.3515625 20.283203 C 7.7356771 20.445964 8.1985677 20.527344 8.7421875 20.527344 C 9.2955729 20.527344 9.7610677 20.446615 10.138672 20.287109 C 10.516276 20.124349 10.825521 19.886068 11.066406 19.570312 C 11.300781 19.261068 11.473307 18.864583 11.583984 18.382812 C 11.694661 17.897786 11.75 17.35026 11.75 16.738281 C 11.75 16.126302 11.697266 15.586589 11.589844 15.121094 C 11.482422 14.652344 11.307943 14.258464 11.070312 13.939453 C 10.829427 13.613932 10.522135 13.369792 10.144531 13.207031 C 9.7669271 13.041016 9.2988281 12.958984 8.7421875 12.958984 z M 14.984375 13.085938 C 14.971354 13.28125 14.922526 13.44401 14.837891 13.574219 C 14.753255 13.704427 14.626302 13.809245 14.457031 13.890625 C 14.313802 13.958984 14.134766 14.007812 13.919922 14.037109 C 13.705078 14.063151 13.480469 14.076172 13.246094 14.076172 L 13.246094 15.263672 L 14.779297 15.263672 L 14.779297 19.105469 L 13.246094 19.105469 L 13.246094 20.375 L 18.099609 20.375 L 18.099609 19.105469 L 16.599609 19.105469 L 16.599609 13.085938 L 14.984375 13.085938 z M 8.7421875 14.300781 C 9.1425781 14.300781 9.4290365 14.488932 9.6015625 14.863281 C 9.7740885 15.234375 9.859375 15.859375 9.859375 16.738281 C 9.859375 17.607422 9.7734375 18.232422 9.5976562 18.613281 C 9.421875 18.994141 9.1360677 19.183594 8.7421875 19.183594 C 8.3483073 19.183594 8.0625 18.994141 7.8867188 18.613281 C 7.7109375 18.232422 7.625 17.610677 7.625 16.748047 C 7.625 15.86263 7.7102865 15.234375 7.8828125 14.863281 C 8.0553385 14.488932 8.3417969 14.300781 8.7421875 14.300781 z "
     id="path4-2-6" />
</svg>
