<?xml version="1.0" encoding="UTF-8" standalone="no"?>
<svg
   xmlns:dc="http://purl.org/dc/elements/1.1/"
   xmlns:cc="http://creativecommons.org/ns#"
   xmlns:rdf="http://www.w3.org/1999/02/22-rdf-syntax-ns#"
   xmlns:svg="http://www.w3.org/2000/svg"
   xmlns="http://www.w3.org/2000/svg"
   xmlns:sodipodi="http://sodipodi.sourceforge.net/DTD/sodipodi-0.dtd"
   xmlns:inkscape="http://www.inkscape.org/namespaces/inkscape"
   version="1.1"
   width="24"
   height="24"
   viewBox="0 0 24 24"
   id="svg2"
   inkscape:version="0.91 r13725"
   sodipodi:docname="assembly.svg">
  <metadata
     id="metadata10">
    <rdf:RDF>
      <cc:Work
         rdf:about="">
        <dc:format>image/svg+xml</dc:format>
        <dc:type
           rdf:resource="http://purl.org/dc/dcmitype/StillImage" />
        <dc:title />
      </cc:Work>
    </rdf:RDF>
  </metadata>
  <defs
     id="defs8" />
  <sodipodi:namedview
     pagecolor="#ffffff"
     bordercolor="#666666"
     borderopacity="1"
     objecttolerance="10"
     gridtolerance="10"
     guidetolerance="10"
     inkscape:pageopacity="0"
     inkscape:pageshadow="2"
     inkscape:window-width="1366"
     inkscape:window-height="705"
     id="namedview6"
     showgrid="false"
     inkscape:zoom="9.8333333"
     inkscape:cx="-10.220339"
     inkscape:cy="4.4379661"
     inkscape:window-x="-8"
     inkscape:window-y="-8"
     inkscape:window-maximized="1"
     inkscape:current-layer="svg2" />
  <path
     style="fill:#a1887f;fill-opacity:1"
     d="M 2 2 L 2 22 L 6 22 L 6 20 L 4 20 L 4 4 L 6 4 L 6 2 L 2 2 z M 18 2 L 18 4 L 20 4 L 20 20 L 18 20 L 18 22 L 22 22 L 22 2 L 18 2 z "
     id="path4" />
  <path
     style="fill:#a1887f;fill-opacity:1"
     d="m 8.6321796,4.1864412 -1.1222488,0.5544794 0,1.1089588 1.1222488,-0.5544794 0,4.4358349 -1.1222488,0 0,1.1089581 3.3667472,0 0,-1.1089581 -1.1222496,0 0,-5.5447937 -1.1222488,0 z m 6.7334914,0 c -1.234473,0 -2.244496,1.4860048 -2.244496,3.3268765 0,1.8408717 1.010023,3.3268753 2.244496,3.3268753 1.234474,0 2.244499,-1.4860036 2.244499,-3.3268753 0,-1.8408717 -1.010025,-3.3268765 -2.244499,-3.3268765 z m 0,1.1089588 c 0.617239,0 1.12225,0.998063 1.12225,2.2179177 0,1.2198547 -0.505011,2.2179172 -1.12225,2.2179172 -0.617235,0 -1.122246,-0.9980625 -1.122246,-2.2179172 0,-1.2198547 0.505011,-2.2179177 1.122246,-2.2179177 z m -6.7334914,7.762711 c -1.1682711,0 -2.1243866,1.335759 -2.2247707,3.038807 l 0,0.576139 c 0.1003852,1.703048 1.0564996,3.038807 2.2247707,3.038807 1.2344735,0 2.2444984,-1.486005 2.2444984,-3.326877 0,-1.840871 -1.0100249,-3.326876 -2.2444984,-3.326876 z m 6.7334914,0 -1.122246,0.554479 0,1.108959 1.122246,-0.554479 0,4.435835 -1.122246,0 0,1.108959 3.366745,0 0,-1.108959 -1.122249,0 0,-5.544794 -1.12225,0 z M 8.6321796,14.16707 c 0.6172369,0 1.1222488,0.998063 1.1222488,2.217917 0,1.219855 -0.5050119,2.217918 -1.1222488,2.217918 -0.6172367,0 -1.1222488,-0.998063 -1.1222488,-2.217918 0,-1.219854 0.5050121,-2.217917 1.1222488,-2.217917 z"
     id="path4-3"
     inkscape:connector-curvature="0" />
</svg>
