<?xml version="1.0" encoding="UTF-8" standalone="no"?>
<svg
   xmlns:dc="http://purl.org/dc/elements/1.1/"
   xmlns:cc="http://creativecommons.org/ns#"
   xmlns:rdf="http://www.w3.org/1999/02/22-rdf-syntax-ns#"
   xmlns:svg="http://www.w3.org/2000/svg"
   xmlns="http://www.w3.org/2000/svg"
   xmlns:sodipodi="http://sodipodi.sourceforge.net/DTD/sodipodi-0.dtd"
   xmlns:inkscape="http://www.inkscape.org/namespaces/inkscape"
   version="1.1"
   width="24"
   height="24"
   viewBox="0 0 24 24"
   id="svg2"
   inkscape:version="0.91 r13725"
   sodipodi:docname="handlebars.svg">
  <metadata
     id="metadata10">
    <rdf:RDF>
      <cc:Work
         rdf:about="">
        <dc:format>image/svg+xml</dc:format>
        <dc:type
           rdf:resource="http://purl.org/dc/dcmitype/StillImage" />
        <dc:title></dc:title>
      </cc:Work>
    </rdf:RDF>
  </metadata>
  <defs
     id="defs8" />
  <sodipodi:namedview
     pagecolor="#ffffff"
     bordercolor="#666666"
     borderopacity="1"
     objecttolerance="10"
     gridtolerance="10"
     guidetolerance="10"
     inkscape:pageopacity="0"
     inkscape:pageshadow="2"
     inkscape:window-width="1366"
     inkscape:window-height="705"
     id="namedview6"
     showgrid="false"
     inkscape:zoom="22.627417"
     inkscape:cx="11.530267"
     inkscape:cy="11.772008"
     inkscape:window-x="-8"
     inkscape:window-y="-8"
     inkscape:window-maximized="1"
     inkscape:current-layer="svg2"
     showguides="true"
     inkscape:guide-bbox="true" />
  <path
     style="opacity:1;fill:#ff7043;fill-opacity:1;fill-rule:evenodd;stroke:none;stroke-width:0.30000001;stroke-miterlimit:4;stroke-dasharray:none;stroke-opacity:1"
     d="m 8.6601664,9.2772677 c -2.4743108,2e-6 -3.7756117,3.1249163 -5.205218,3.1249163 -0.8799026,0 -1.0118776,-0.607398 -1.0118776,-0.821407 0,-0.298584 0.2122308,-0.633912 0.5074268,-0.633912 0.5303934,0 0.3720139,0.691946 0.3720139,0.691946 0,0 0.7165328,-0.499062 0.2440411,-1.166635 C 3.1884332,9.9379397 2.3897972,9.9122927 1.8418964,10.318906 1.28676,10.73089 0.89188022,11.349159 1.0755478,12.373911 c 0.088792,0.495385 0.4201311,1.212927 1.1071132,1.62198 0.6869821,0.409053 1.7299677,0.508915 2.0981582,0.508915 1.9708688,0 3.9008493,-1.467238 5.9641268,-2.086253 0.530294,-0.159098 0.998425,-0.192321 1.345202,-0.1994 0.08689,-0.0045 0.908387,-0.04252 1.724656,0.202375 2.063276,0.619016 3.993257,2.087742 5.964126,2.087742 0.36819,0 1.411177,-0.09986 2.098158,-0.508914 0.686983,-0.409053 1.016837,-1.128085 1.105625,-1.623469 0.183666,-1.024752 -0.211212,-1.643021 -0.766348,-2.055004 -0.547901,-0.4066143 -1.345049,-0.3794783 -1.723168,0.154757 -0.472492,0.667573 0.242553,1.165148 0.242553,1.165148 0,0 -0.15838,-0.691946 0.372014,-0.691946 0.295196,0 0.507426,0.335327 0.507426,0.633912 0,0.214009 -0.131974,0.821406 -1.011877,0.821406 -1.429607,0 -2.730907,-3.1249143 -5.205218,-3.1249163 -2.304551,0 -2.762961,1.0572723 -3.110036,1.5431133 -0.0033,0.0046 -0.0043,0.01026 -0.0075,0.01488 -0.004,-0.0057 -0.0063,-0.01216 -0.01042,-0.01786 C 11.423092,10.33454 10.964683,9.2772677 8.6601314,9.2772677 Z"
     id="rect4243"
     inkscape:connector-curvature="0" />
</svg>
