<?xml version="1.0" encoding="UTF-8" standalone="no"?>
<svg
   xmlns:dc="http://purl.org/dc/elements/1.1/"
   xmlns:cc="http://creativecommons.org/ns#"
   xmlns:rdf="http://www.w3.org/1999/02/22-rdf-syntax-ns#"
   xmlns:svg="http://www.w3.org/2000/svg"
   xmlns="http://www.w3.org/2000/svg"
   xmlns:sodipodi="http://sodipodi.sourceforge.net/DTD/sodipodi-0.dtd"
   xmlns:inkscape="http://www.inkscape.org/namespaces/inkscape"
   version="1.1"
   width="24"
   height="24"
   viewBox="0 0 24 24"
   id="svg2"
   inkscape:version="0.91 r13725"
   sodipodi:docname="handlebars.svg">
  <metadata
     id="metadata10">
    <rdf:RDF>
      <cc:Work
         rdf:about="">
        <dc:format>image/svg+xml</dc:format>
        <dc:type
           rdf:resource="http://purl.org/dc/dcmitype/StillImage" />
        <dc:title></dc:title>
      </cc:Work>
    </rdf:RDF>
  </metadata>
  <defs
     id="defs8" />
  <sodipodi:namedview
     pagecolor="#ffffff"
     bordercolor="#666666"
     borderopacity="1"
     objecttolerance="10"
     gridtolerance="10"
     guidetolerance="10"
     inkscape:pageopacity="0"
     inkscape:pageshadow="2"
     inkscape:window-width="1366"
     inkscape:window-height="705"
     id="namedview6"
     showgrid="false"
     inkscape:zoom="22.627417"
     inkscape:cx="11.530267"
     inkscape:cy="15.307542"
     inkscape:window-x="-8"
     inkscape:window-y="-8"
     inkscape:window-maximized="1"
     inkscape:current-layer="svg2"
     showguides="true"
     inkscape:guide-bbox="true" />
  <path
     style="opacity:1;fill:#ff7043;fill-opacity:1;fill-rule:evenodd;stroke:none;stroke-width:0.30000001;stroke-miterlimit:4;stroke-dasharray:none;stroke-opacity:1"
     d="m 8.5505924,10.320902 c -2.7540658,2e-6 -4.2024968,3.478231 -5.7937398,3.478231 -0.9793877,0 -1.1262843,-0.676073 -1.1262843,-0.914279 0,-0.332343 0.2362264,-0.705584 0.5647984,-0.705584 0.5903617,0 0.4140752,0.77018 0.4140752,0.77018 0,0 0.7975467,-0.555488 0.2716333,-1.298539 -0.420871,-0.594639 -1.3098038,-0.623186 -1.91965238,-0.170599 -0.61790219,0.458564 -1.05742859,1.146737 -0.85299489,2.287351 0.098831,0.551395 0.46763272,1.350065 1.23228767,1.805367 0.7646549,0.455303 1.9255644,0.566455 2.3353839,0.566455 2.1937027,0 4.3418942,-1.633129 6.6384535,-2.322132 0.590251,-0.177087 1.111311,-0.214066 1.497296,-0.221945 0.09671,-0.005 1.011093,-0.04733 1.919652,0.225256 2.296558,0.689004 4.44475,2.32379 6.638453,2.32379 0.409819,0 1.57073,-0.111151 2.335384,-0.566454 0.764656,-0.455302 1.131804,-1.25563 1.230631,-1.807024 0.204432,-1.140615 -0.235092,-1.828788 -0.852994,-2.28735 -0.609849,-0.452588 -1.497125,-0.422384 -1.917996,0.172253 -0.525914,0.743052 0.269977,1.296885 0.269977,1.296885 0,0 -0.176287,-0.77018 0.414075,-0.77018 0.328572,0 0.564798,0.37324 0.564798,0.705584 0,0.238206 -0.146896,0.914277 -1.126284,0.914277 -1.591244,0 -3.039674,-3.478228 -5.79374,-3.47823 -2.565112,0 -3.075352,1.176811 -3.461668,1.717583 -0.0037,0.0051 -0.0048,0.01142 -0.0083,0.01656 -0.0045,-0.0063 -0.007,-0.01353 -0.0116,-0.01988 -0.386332,-0.540764 -0.896571,-1.717576 -3.4616836,-1.717576 z"
     id="rect4243"
     inkscape:connector-curvature="0" />
</svg>
