<?xml version="1.0" encoding="UTF-8" standalone="no"?>
<svg
   xmlns:dc="http://purl.org/dc/elements/1.1/"
   xmlns:cc="http://creativecommons.org/ns#"
   xmlns:rdf="http://www.w3.org/1999/02/22-rdf-syntax-ns#"
   xmlns:svg="http://www.w3.org/2000/svg"
   xmlns="http://www.w3.org/2000/svg"
   xmlns:sodipodi="http://sodipodi.sourceforge.net/DTD/sodipodi-0.dtd"
   xmlns:inkscape="http://www.inkscape.org/namespaces/inkscape"
   version="1.1"
   width="24"
   height="24"
   viewBox="0 0 24 24"
   id="svg4"
   sodipodi:docname="onion.svg"
   inkscape:version="0.92.0 r15299">
  <metadata
     id="metadata10">
    <rdf:RDF>
      <cc:Work
         rdf:about="">
        <dc:format>image/svg+xml</dc:format>
        <dc:type
           rdf:resource="http://purl.org/dc/dcmitype/StillImage" />
      </cc:Work>
    </rdf:RDF>
  </metadata>
  <defs
     id="defs8" />
  <sodipodi:namedview
     pagecolor="#ffffff"
     bordercolor="#666666"
     borderopacity="1"
     objecttolerance="10"
     gridtolerance="10"
     guidetolerance="10"
     inkscape:pageopacity="0"
     inkscape:pageshadow="2"
     inkscape:window-width="1366"
     inkscape:window-height="705"
     id="namedview6"
     showgrid="false"
     inkscape:zoom="6.9532167"
     inkscape:cx="-6.8666923"
     inkscape:cy="17.56897"
     inkscape:window-x="-8"
     inkscape:window-y="-8"
     inkscape:window-maximized="1"
     inkscape:current-layer="svg4" />
  <path
     d="M12,14C11,14 9,15 9,16C9,18 12,18 12,18V17A1,1 0 0,1 11,16A1,1 0 0,1 12,15V14M12,19C12,19 8,18.5 8,16.5C8,13.5 11,12.75 12,12.75V11.5C11,11.5 7,13 7,16C7,20 12,20 12,20V19M10.07,7.03L11.26,7.56C11.69,5.12 12.84,3.5 12.84,3.5C12.41,4.53 12.13,5.38 11.95,6.05C13.16,3.55 15.61,2 15.61,2C14.43,3.18 13.56,4.46 12.97,5.53C14.55,3.85 16.74,2.75 16.74,2.75C14.05,4.47 12.84,7.2 12.54,7.96L13.09,8.04C13.09,8.56 13.09,9.04 13.34,9.42C14.1,11.31 18,11.47 18,16C18,20.53 13.97,22 11.83,22C9.69,22 5,21.03 5,16C5,10.97 9.95,10.93 10.83,8.92C10.95,8.54 10.07,7.03 10.07,7.03Z"
     id="path2"
     style="fill:#9575cd;fill-opacity:1" />
</svg>
