<?xml version="1.0" encoding="UTF-8" standalone="no"?>
<svg
   xmlns:dc="http://purl.org/dc/elements/1.1/"
   xmlns:cc="http://creativecommons.org/ns#"
   xmlns:rdf="http://www.w3.org/1999/02/22-rdf-syntax-ns#"
   xmlns:svg="http://www.w3.org/2000/svg"
   xmlns="http://www.w3.org/2000/svg"
   xmlns:sodipodi="http://sodipodi.sourceforge.net/DTD/sodipodi-0.dtd"
   xmlns:inkscape="http://www.inkscape.org/namespaces/inkscape"
   version="1.1"
   width="24"
   height="24"
   viewBox="0 0 24 24"
   id="svg2"
   inkscape:version="0.91 r13725"
   sodipodi:docname="razor.svg">
  <metadata
     id="metadata10">
    <rdf:RDF>
      <cc:Work
         rdf:about="">
        <dc:format>image/svg+xml</dc:format>
        <dc:type
           rdf:resource="http://purl.org/dc/dcmitype/StillImage" />
      </cc:Work>
    </rdf:RDF>
  </metadata>
  <defs
     id="defs8" />
  <sodipodi:namedview
     pagecolor="#ffffff"
     bordercolor="#666666"
     borderopacity="1"
     objecttolerance="10"
     gridtolerance="10"
     guidetolerance="10"
     inkscape:pageopacity="0"
     inkscape:pageshadow="2"
     inkscape:window-width="833"
     inkscape:window-height="480"
     id="namedview6"
     showgrid="false"
     inkscape:zoom="9.8333333"
     inkscape:cx="12"
     inkscape:cy="11.898305"
     inkscape:window-x="188"
     inkscape:window-y="38"
     inkscape:window-maximized="0"
     inkscape:current-layer="svg2" />
  <path
     d="M15.45,11.91C15.34,9.7 13.7,8.37 11.72,8.37H11.64C9.35,8.37 8.09,10.17 8.09,12.21C8.09,14.5 9.62,15.95 11.63,15.95C13.88,15.95 15.35,14.3 15.46,12.36M11.65,6.39C13.18,6.39 14.62,7.07 15.67,8.13V8.13C15.67,7.62 16,7.24 16.5,7.24H16.61C17.35,7.24 17.5,7.94 17.5,8.16V16.06C17.46,16.58 18.04,16.84 18.37,16.5C19.64,15.21 21.15,9.81 17.58,6.69C14.25,3.77 9.78,4.25 7.4,5.89C4.88,7.63 3.26,11.5 4.83,15.11C6.54,19.06 11.44,20.24 14.35,19.06C15.83,18.47 16.5,20.46 15,21.11C12.66,22.1 6.23,22 3.22,16.79C1.19,13.27 1.29,7.08 6.68,3.87C10.81,1.42 16.24,2.1 19.5,5.5C22.95,9.1 22.75,15.8 19.4,18.41C17.89,19.59 15.64,18.44 15.66,16.71L15.64,16.15C14.59,17.2 13.18,17.81 11.65,17.81C8.63,17.81 6,15.15 6,12.13C6,9.08 8.63,6.39 11.65,6.39Z"
     id="path4"
     style="fill:#42a5f5;fill-opacity:1" />
</svg>
