<?xml version="1.0" standalone="no"?>
<!DOCTYPE svg PUBLIC "-//W3C//DTD SVG 1.1//EN" "http://www.w3.org/Graphics/SVG/1.1/DTD/svg11.dtd">
<svg width="100%" height="100%" viewBox="0 0 500 500" version="1.1" xmlns="http://www.w3.org/2000/svg" xmlns:xlink="http://www.w3.org/1999/xlink" xml:space="preserve" style="fill-rule:evenodd;clip-rule:evenodd;stroke-linejoin:round;stroke-miterlimit:1.41421;">
    <g>
        <path d="M49,51L457,51L457,459L49,459L49,51ZM295.669,365.879L315.132,364.177C316.054,371.977 318.199,378.376 321.567,383.375C324.935,388.373 330.164,392.415 337.255,395.499C344.345,398.584 352.322,400.126 361.185,400.126C369.055,400.126 376.004,398.956 382.03,396.616C388.057,394.276 392.542,391.068 395.485,386.991C398.427,382.914 399.898,378.465 399.898,373.643C399.898,368.751 398.48,364.479 395.644,360.827C392.808,357.176 388.128,354.109 381.605,351.627C377.422,349.997 368.169,347.462 353.846,344.023C339.523,340.584 329.491,337.34 323.747,334.291C316.302,330.392 310.754,325.552 307.103,319.774C303.451,313.995 301.625,307.525 301.625,300.364C301.625,292.493 303.859,285.137 308.326,278.295C312.793,271.453 319.316,266.259 327.895,262.714C336.475,259.168 346.011,257.396 356.505,257.396C368.062,257.396 378.255,259.257 387.082,262.98C395.91,266.702 402.699,272.179 407.45,279.412C412.2,286.644 414.753,294.833 415.107,303.98L395.325,305.469C394.261,295.613 390.663,288.168 384.53,283.134C378.397,278.1 369.339,275.583 357.356,275.583C344.877,275.583 335.783,277.869 330.075,282.443C324.368,287.016 321.514,292.529 321.514,298.981C321.514,304.583 323.535,309.191 327.576,312.807C331.547,316.424 341.916,320.128 358.685,323.922C375.454,327.715 386.958,331.03 393.198,333.866C402.274,338.049 408.974,343.349 413.299,349.766C417.624,356.183 419.787,363.575 419.787,371.941C419.787,380.237 417.412,388.054 412.661,395.393C407.91,402.731 401.086,408.439 392.187,412.516C383.289,416.593 373.274,418.632 362.142,418.632C348.032,418.632 336.209,416.576 326.672,412.463C317.135,408.351 309.655,402.164 304.231,393.904C298.807,385.644 295.953,376.302 295.669,365.879ZM229.941,415.973L229.941,278.454L281.524,278.454L281.524,260.055L157.938,260.055L157.938,278.454L209.308,278.454L209.308,415.973L229.941,415.973Z" style="fill:rgb(66,165,245);"/>
    </g>
</svg>
