<?xml version="1.0" encoding="UTF-8" standalone="no"?>
<svg
   xmlns:dc="http://purl.org/dc/elements/1.1/"
   xmlns:cc="http://creativecommons.org/ns#"
   xmlns:rdf="http://www.w3.org/1999/02/22-rdf-syntax-ns#"
   xmlns:svg="http://www.w3.org/2000/svg"
   xmlns="http://www.w3.org/2000/svg"
   xmlns:sodipodi="http://sodipodi.sourceforge.net/DTD/sodipodi-0.dtd"
   xmlns:inkscape="http://www.inkscape.org/namespaces/inkscape"
   version="1.1"
   width="24"
   height="24"
   viewBox="0 0 24 24"
   id="svg2"
   inkscape:version="0.91 r13725"
   sodipodi:docname="actionscript.svg">
  <metadata
     id="metadata10">
    <rdf:RDF>
      <cc:Work
         rdf:about="">
        <dc:format>image/svg+xml</dc:format>
        <dc:type
           rdf:resource="http://purl.org/dc/dcmitype/StillImage" />
      </cc:Work>
    </rdf:RDF>
  </metadata>
  <defs
     id="defs8" />
  <sodipodi:namedview
     pagecolor="#ffffff"
     bordercolor="#666666"
     borderopacity="1"
     objecttolerance="10"
     gridtolerance="10"
     guidetolerance="10"
     inkscape:pageopacity="0"
     inkscape:pageshadow="2"
     inkscape:window-width="1366"
     inkscape:window-height="705"
     id="namedview6"
     showgrid="false"
     inkscape:zoom="9.8333331"
     inkscape:cx="1.1897525"
     inkscape:cy="15.474841"
     inkscape:window-x="-8"
     inkscape:window-y="-8"
     inkscape:window-maximized="1"
     inkscape:current-layer="svg2" />
  <text
     xml:space="preserve"
     style="font-style:normal;font-weight:normal;font-size:42.82164001px;line-height:113.99999857%;font-family:sans-serif;letter-spacing:0px;word-spacing:0px;fill:#f44336;fill-opacity:1;stroke:none;stroke-width:1px;stroke-linecap:butt;stroke-linejoin:miter;stroke-opacity:1;"
     x="5.6050396"
     y="15.89185"
     id="text4136"
     sodipodi:linespacing="114%"
     transform="scale(0.91324876,1.0949919)"><tspan
       sodipodi:role="line"
       id="tspan4138"
       x="5.6050396"
       y="15.89185"
       style="font-style:normal;font-variant:normal;font-weight:bold;font-stretch:normal;font-size:13.38176346px;line-height:113.99999857%;font-family:Arial;-inkscape-font-specification:'Arial Bold';letter-spacing:-2.68541741px;fill:#f44336;fill-opacity:1;" /></text>
  <path
     style="font-style:normal;font-weight:normal;font-size:51.01877594px;line-height:125%;font-family:sans-serif;letter-spacing:0px;word-spacing:0px;fill:#f44336;fill-opacity:1;stroke:none;stroke-width:1px;stroke-linecap:butt;stroke-linejoin:miter;stroke-opacity:1;"
     d="M 4.7441406 2.03125 C 3.5869145 2.03125 2.7498666 2.341548 2.234375 2.9609375 C 1.7188834 3.5729534 1.4628906 4.639224 1.4628906 6.1582031 L 1.4628906 8.625 C 1.4628906 10.033374 1.0612568 10.736328 0.26171875 10.736328 L 0.26171875 12.771484 C 1.0612568 12.771484 1.4628906 13.449883 1.4628906 14.806641 L 1.4628906 17.460938 C 1.4628906 18.972543 1.7214357 20.023386 2.2421875 20.613281 C 2.7629393 21.203176 3.5974347 21.498047 4.7441406 21.498047 L 4.7441406 19.429688 C 4.2970305 19.429688 3.973322 19.278884 3.7734375 18.976562 C 3.5788131 18.674241 3.4824219 18.162074 3.4824219 17.439453 L 3.4824219 15.171875 C 3.4824219 13.365322 3.0776364 12.234512 2.2675781 11.777344 L 2.2675781 11.732422 C 3.0776364 11.26788 3.4824219 10.150544 3.4824219 8.3808594 L 3.4824219 6.0253906 C 3.4824219 4.7423694 3.9025216 4.0996094 4.7441406 4.0996094 L 4.7441406 2.03125 z M 19.404297 2.03125 L 19.404297 4.0996094 C 20.245916 4.0996094 20.666016 4.7423694 20.666016 6.0253906 L 20.666016 8.2929688 C 20.666016 10.13639 21.068249 11.289364 21.873047 11.753906 L 21.873047 11.798828 C 21.068249 12.241249 20.666016 13.343158 20.666016 15.105469 L 20.666016 17.460938 C 20.666016 18.176185 20.567072 18.681615 20.367188 18.976562 C 20.167303 19.278884 19.846147 19.429688 19.404297 19.429688 L 19.404297 21.498047 C 20.556263 21.498047 21.388206 21.203176 21.898438 20.613281 C 22.413929 20.023386 22.669922 18.950379 22.669922 17.394531 L 22.669922 14.839844 C 22.669922 13.460965 23.074108 12.771484 23.878906 12.771484 L 23.878906 10.736328 C 23.074108 10.736328 22.669922 10.040111 22.669922 8.6464844 L 22.669922 6.1132812 C 22.669922 4.6237969 22.413929 3.5729534 21.898438 2.9609375 C 21.382946 2.341548 20.551003 2.03125 19.404297 2.03125 z M 16.349609 6.4902344 C 15.894703 6.4902344 15.463662 6.5482173 15.056641 6.6640625 C 14.649619 6.7752739 14.289767 6.9504483 13.978516 7.1914062 C 13.671254 7.4323642 13.427615 7.739896 13.248047 8.1152344 C 13.068479 8.4859389 12.978516 8.9321855 12.978516 9.4511719 C 12.978516 10.113806 13.14349 10.67847 13.470703 11.146484 C 13.801907 11.614499 14.302268 12.009618 14.972656 12.333984 C 15.236023 12.459097 15.481531 12.582646 15.708984 12.703125 C 15.936438 12.823604 16.131315 12.948378 16.294922 13.078125 C 16.462519 13.207872 16.593683 13.349037 16.689453 13.501953 C 16.785223 13.654869 16.833984 13.828818 16.833984 14.023438 C 16.833984 14.167086 16.803997 14.302622 16.744141 14.427734 C 16.684285 14.548213 16.592453 14.653418 16.46875 14.746094 C 16.349038 14.834136 16.197231 14.904106 16.013672 14.955078 C 15.834104 15.00605 15.622321 15.03125 15.378906 15.03125 C 14.963904 15.03125 14.553506 14.948067 14.146484 14.78125 C 13.739463 14.609799 13.36279 14.355846 13.015625 14.017578 L 13.015625 16.240234 C 13.326877 16.425587 13.694204 16.565527 14.117188 16.658203 C 14.544161 16.750879 14.992023 16.796875 15.462891 16.796875 C 15.921787 16.796875 16.356566 16.746475 16.767578 16.644531 C 17.18258 16.542587 17.54617 16.376222 17.857422 16.144531 C 18.168674 15.908207 18.414182 15.601901 18.59375 15.226562 C 18.777309 14.84659 18.869141 14.378322 18.869141 13.822266 C 18.869141 13.419124 18.816641 13.066822 18.712891 12.765625 C 18.60914 12.459794 18.459202 12.189449 18.263672 11.953125 C 18.068142 11.716801 17.833932 11.505665 17.558594 11.320312 C 17.287246 11.130326 16.979894 10.951973 16.636719 10.785156 C 16.385323 10.664677 16.160458 10.548711 15.960938 10.4375 C 15.761417 10.321655 15.590836 10.205689 15.451172 10.089844 C 15.311508 9.9693648 15.204724 9.8445903 15.128906 9.7148438 C 15.053089 9.5804634 15.013672 9.4285358 15.013672 9.2617188 C 15.013672 9.1088031 15.047397 8.9739946 15.115234 8.8535156 C 15.183071 8.7284028 15.280594 8.6212455 15.404297 8.5332031 C 15.527999 8.4451608 15.679807 8.3783693 15.859375 8.3320312 C 16.038943 8.2810594 16.237559 8.2539062 16.457031 8.2539062 C 16.616648 8.2539062 16.783406 8.2690722 16.958984 8.296875 C 17.138553 8.3246778 17.318479 8.3674949 17.498047 8.4277344 C 17.677615 8.4833401 17.851934 8.5564889 18.019531 8.6445312 C 18.191119 8.7325736 18.348533 8.8333736 18.492188 8.9492188 L 18.492188 6.8710938 C 18.200888 6.7413472 17.882322 6.646177 17.535156 6.5859375 C 17.191981 6.5210642 16.796535 6.4902344 16.349609 6.4902344 z M 7.5761719 6.65625 L 4.453125 16.623047 L 6.546875 16.623047 L 7.1523438 14.40625 L 10.205078 14.40625 L 10.814453 16.623047 L 12.921875 16.623047 L 9.8691406 6.65625 L 7.5761719 6.65625 z M 8.6484375 8.4355469 L 8.6953125 8.4355469 C 8.7232453 8.7830824 8.7720068 9.0818057 8.8398438 9.3320312 L 9.7617188 12.681641 L 7.5644531 12.681641 L 8.4980469 9.3046875 C 8.577855 9.0173915 8.6284855 8.7274767 8.6484375 8.4355469 z "
     id="text4144" />
</svg>
