<?xml version="1.0" encoding="UTF-8" standalone="no"?>
<svg
   xmlns:dc="http://purl.org/dc/elements/1.1/"
   xmlns:cc="http://creativecommons.org/ns#"
   xmlns:rdf="http://www.w3.org/1999/02/22-rdf-syntax-ns#"
   xmlns:svg="http://www.w3.org/2000/svg"
   xmlns="http://www.w3.org/2000/svg"
   xmlns:xlink="http://www.w3.org/1999/xlink"
   xmlns:sodipodi="http://sodipodi.sourceforge.net/DTD/sodipodi-0.dtd"
   xmlns:inkscape="http://www.inkscape.org/namespaces/inkscape"
   version="1.1"
   width="24"
   height="24"
   viewBox="0 0 24 24"
   id="svg2"
   inkscape:version="0.91 r13725"
   sodipodi:docname="actionscript.svg">
  <metadata
     id="metadata10">
    <rdf:RDF>
      <cc:Work
         rdf:about="">
        <dc:format>image/svg+xml</dc:format>
        <dc:type
           rdf:resource="http://purl.org/dc/dcmitype/StillImage" />
        <dc:title />
      </cc:Work>
    </rdf:RDF>
  </metadata>
  <defs
     id="defs8">
    <linearGradient
       inkscape:collect="always"
       id="linearGradient4144">
      <stop
         style="stop-color:#eb1c24;stop-opacity:1"
         offset="0"
         id="stop4146" />
      <stop
         style="stop-color:#801514;stop-opacity:1"
         offset="1"
         id="stop4148" />
    </linearGradient>
    <linearGradient
       inkscape:collect="always"
       xlink:href="#linearGradient4144"
       id="linearGradient4150"
       x1="2.3730025"
       y1="12.027124"
       x2="21.860387"
       y2="12.027124"
       gradientUnits="userSpaceOnUse"
       gradientTransform="translate(-0.08957076,-24.143819)" />
  </defs>
  <sodipodi:namedview
     pagecolor="#ffffff"
     bordercolor="#666666"
     borderopacity="1"
     objecttolerance="10"
     gridtolerance="10"
     guidetolerance="10"
     inkscape:pageopacity="0"
     inkscape:pageshadow="2"
     inkscape:window-width="1366"
     inkscape:window-height="705"
     id="namedview6"
     showgrid="false"
     showguides="false"
     inkscape:zoom="22.627417"
     inkscape:cx="11.312074"
     inkscape:cy="14.513411"
     inkscape:window-x="-8"
     inkscape:window-y="-8"
     inkscape:window-maximized="1"
     inkscape:current-layer="svg2" />
  <rect
     style="opacity:1;fill:url(#linearGradient4150);fill-opacity:1;stroke:none;stroke-opacity:1"
     id="rect4142"
     width="19.487385"
     height="19.487385"
     x="2.2834318"
     y="-21.860388"
     transform="matrix(0,1,-1,0,0,0)"
     ry="0" />
  <path
     style="font-style:normal;font-weight:normal;font-size:40px;line-height:125%;font-family:sans-serif;letter-spacing:0px;word-spacing:0px;fill:#ffffff;fill-opacity:1;stroke:none;stroke-width:1px;stroke-linecap:butt;stroke-linejoin:miter;stroke-opacity:1"
     d="M 17.125 4.7265625 C 17.119616 4.7270146 17.114752 4.7280582 17.109375 4.7285156 C 16.605767 4.7713572 16.128925 4.8379272 15.714844 4.9550781 C 15.060651 5.1510477 14.471553 5.4325695 13.951172 5.8027344 C 13.445661 6.1837866 12.986619 6.653737 12.570312 7.2089844 C 12.168878 7.775119 11.764718 8.4276378 11.363281 9.1679688 C 11.220327 9.4379324 11.087852 9.6697619 10.949219 9.9199219 L 10.949219 9.921875 C 10.9491 9.922091 10.945416 9.921659 10.945312 9.921875 L 9.3632812 12.748047 L 9.3574219 12.746094 C 9.0766736 13.268478 8.812624 13.746027 8.5722656 14.160156 C 8.3195097 14.595644 8.0387903 14.96469 7.7265625 15.269531 C 7.4143357 15.574373 7.0576852 15.807395 6.65625 15.970703 C 6.56845 16.004033 6.4583235 16.020765 6.3613281 16.046875 L 6.3613281 18.894531 C 6.8709122 18.851741 7.3510279 18.784418 7.7695312 18.666016 C 8.4237241 18.470047 9.0128238 18.188524 9.5332031 17.818359 C 10.038715 17.437307 10.499711 16.967356 10.916016 16.412109 C 11.317452 15.845974 11.719658 15.193456 12.121094 14.453125 C 12.263745 14.183736 12.398789 13.95072 12.537109 13.701172 L 12.544922 13.703125 L 12.548828 13.697266 L 12.591797 13.619141 L 15.578125 13.619141 L 15.578125 13.621094 L 16.90625 13.621094 L 16.90625 10.779297 L 16.515625 10.779297 L 16.515625 10.777344 L 14.179688 10.777344 C 14.439106 10.296711 14.688246 9.8466485 14.912109 9.4609375 C 15.164866 9.0254485 15.445585 8.6564038 15.757812 8.3515625 C 16.07004 8.0467208 16.426689 7.8136987 16.828125 7.6503906 C 16.911302 7.6188064 17.016191 7.6018572 17.109375 7.578125 L 18.28125 7.578125 L 18.28125 7.5742188 L 18.279297 7.5742188 L 18.279297 4.7285156 L 17.125 4.7285156 L 17.125 4.7265625 z "
     id="text4152" />
  <rect
     style="opacity:1;fill:#ffffff;fill-opacity:1;stroke:none;stroke-opacity:1"
     id="rect4227"
     width="1.1679688"
     height="2.8493114"
     x="5.2036548"
     y="16.044292" />
</svg>
