<?xml version="1.0" encoding="UTF-8" standalone="no"?>
<svg
   xmlns:dc="http://purl.org/dc/elements/1.1/"
   xmlns:cc="http://creativecommons.org/ns#"
   xmlns:rdf="http://www.w3.org/1999/02/22-rdf-syntax-ns#"
   xmlns:svg="http://www.w3.org/2000/svg"
   xmlns="http://www.w3.org/2000/svg"
   xmlns:sodipodi="http://sodipodi.sourceforge.net/DTD/sodipodi-0.dtd"
   xmlns:inkscape="http://www.inkscape.org/namespaces/inkscape"
   version="1.1"
   width="24"
   height="24"
   viewBox="0 0 24 24"
   id="svg2"
   inkscape:version="0.91 r13725"
   sodipodi:docname="assembly.svg">
  <metadata
     id="metadata10">
    <rdf:RDF>
      <cc:Work
         rdf:about="">
        <dc:format>image/svg+xml</dc:format>
        <dc:type
           rdf:resource="http://purl.org/dc/dcmitype/StillImage" />
      </cc:Work>
    </rdf:RDF>
  </metadata>
  <defs
     id="defs8" />
  <sodipodi:namedview
     pagecolor="#ffffff"
     bordercolor="#666666"
     borderopacity="1"
     objecttolerance="10"
     gridtolerance="10"
     guidetolerance="10"
     inkscape:pageopacity="0"
     inkscape:pageshadow="2"
     inkscape:window-width="1366"
     inkscape:window-height="705"
     id="namedview6"
     showgrid="false"
     inkscape:zoom="16"
     inkscape:cx="3.03125"
     inkscape:cy="9.977663"
     inkscape:window-x="-8"
     inkscape:window-y="-8"
     inkscape:window-maximized="1"
     inkscape:current-layer="svg2" />
  <path
     style="fill:#bf360c;fill-opacity:1"
     d="M 6 2 C 4.89 2 4 2.89 4 4 L 4 20 A 2 2 0 0 0 6 22 L 18 22 A 2 2 0 0 0 20 20 L 20 8 L 14 2 L 6 2 z M 13 3.5 L 18.5 9 L 13 9 L 13 3.5 z M 9.0664062 10.230469 C 9.9219586 10.230469 10.579302 10.440733 11.035156 10.861328 C 11.49101 11.279831 11.71875 11.813932 11.71875 12.466797 C 11.71875 13.132217 11.472659 13.663248 10.980469 14.056641 C 10.491582 14.450033 9.8425094 14.646484 9.0332031 14.646484 C 8.2172903 14.646484 7.571377 14.443057 7.0957031 14.037109 C 6.6200292 13.629069 6.3808594 13.093015 6.3808594 12.429688 C 6.3808594 11.74962 6.6237912 11.213705 7.109375 10.820312 C 7.5982621 10.42692 8.2504934 10.230469 9.0664062 10.230469 z M 14.837891 10.230469 L 16.304688 10.230469 L 16.304688 13.625 L 17.900391 13.625 L 17.900391 14.580078 L 12.697266 14.580078 L 12.697266 13.625 L 14.367188 13.625 L 14.367188 11.587891 C 13.732956 11.765754 13.237615 11.870956 12.880859 11.902344 L 12.880859 10.939453 C 13.842117 10.807625 14.494348 10.571549 14.837891 10.230469 z M 9.0566406 11.130859 C 8.7923774 11.130859 8.6102145 11.241084 8.5078125 11.462891 C 8.4087138 11.682605 8.359375 11.985932 8.359375 12.373047 C 8.359375 12.898268 8.4087138 13.256707 8.5078125 13.449219 C 8.6102145 13.639638 8.7917744 13.736328 9.0527344 13.736328 C 9.3368174 13.736328 9.5272514 13.620662 9.6230469 13.392578 C 9.7188423 13.162401 9.765625 12.84875 9.765625 12.451172 C 9.765625 11.905025 9.701094 11.548261 9.5722656 11.380859 C 9.4467406 11.213458 9.2746578 11.130859 9.0566406 11.130859 z M 8.859375 15.693359 L 10.326172 15.693359 L 10.326172 19.089844 L 11.921875 19.089844 L 11.921875 20.042969 L 6.71875 20.042969 L 6.71875 19.089844 L 8.3886719 19.089844 L 8.3886719 17.052734 C 7.75444 17.230598 7.2590992 17.3358 6.9023438 17.367188 L 6.9023438 16.402344 C 7.8636014 16.270515 8.5158327 16.034439 8.859375 15.693359 z M 15.205078 15.693359 C 16.06063 15.693359 16.716021 15.903623 17.171875 16.324219 C 17.627729 16.742722 17.855469 17.278776 17.855469 17.931641 C 17.855469 18.59706 17.609378 19.126138 17.117188 19.519531 C 16.6283 19.912924 15.979228 20.109375 15.169922 20.109375 C 14.354009 20.109375 13.708096 19.905948 13.232422 19.5 C 12.756748 19.09196 12.519531 18.557859 12.519531 17.894531 C 12.519531 17.214464 12.762463 16.676596 13.248047 16.283203 C 13.736934 15.88981 14.389165 15.693359 15.205078 15.693359 z M 15.195312 16.59375 C 14.931049 16.59375 14.746933 16.705928 14.644531 16.927734 C 14.545433 17.147448 14.496094 17.450775 14.496094 17.837891 C 14.496094 18.363112 14.545433 18.721551 14.644531 18.914062 C 14.746933 19.104481 14.928493 19.199219 15.189453 19.199219 C 15.473536 19.199219 15.66397 19.085506 15.759766 18.857422 C 15.855561 18.627245 15.904297 18.313594 15.904297 17.916016 C 15.904297 17.369869 15.839766 17.013104 15.710938 16.845703 C 15.585412 16.678302 15.41333 16.59375 15.195312 16.59375 z "
     id="path4" />
</svg>
