<?xml version="1.0" encoding="UTF-8" standalone="no"?>
<svg
   xmlns:dc="http://purl.org/dc/elements/1.1/"
   xmlns:cc="http://creativecommons.org/ns#"
   xmlns:rdf="http://www.w3.org/1999/02/22-rdf-syntax-ns#"
   xmlns:svg="http://www.w3.org/2000/svg"
   xmlns="http://www.w3.org/2000/svg"
   xmlns:sodipodi="http://sodipodi.sourceforge.net/DTD/sodipodi-0.dtd"
   xmlns:inkscape="http://www.inkscape.org/namespaces/inkscape"
   version="1.1"
   width="24"
   height="24"
   viewBox="0 0 24 24"
   id="svg2"
   inkscape:version="0.91 r13725"
   sodipodi:docname="dart.svg">
  <metadata
     id="metadata10">
    <rdf:RDF>
      <cc:Work
         rdf:about="">
        <dc:format>image/svg+xml</dc:format>
        <dc:type
           rdf:resource="http://purl.org/dc/dcmitype/StillImage" />
        <dc:title />
      </cc:Work>
    </rdf:RDF>
  </metadata>
  <defs
     id="defs8" />
  <sodipodi:namedview
     pagecolor="#ffffff"
     bordercolor="#666666"
     borderopacity="1"
     objecttolerance="10"
     gridtolerance="10"
     guidetolerance="10"
     inkscape:pageopacity="0"
     inkscape:pageshadow="2"
     inkscape:window-width="1366"
     inkscape:window-height="705"
     id="namedview6"
     showgrid="false"
     showguides="false"
     inkscape:guide-bbox="true"
     inkscape:zoom="12.186337"
     inkscape:cx="-5.3445372"
     inkscape:cy="11.402678"
     inkscape:window-x="-8"
     inkscape:window-y="-8"
     inkscape:window-maximized="1"
     inkscape:current-layer="svg2" />
  <path
     style="opacity:0.85399996;fill:#00a7e1;fill-opacity:1;stroke:none;stroke-opacity:1"
     d="m 2.7347623,3.3198898 6.5072009,6.514019 0.00935,7.2e-6 7.4895987,7.497443 2.850727,-0.543786 0.0043,-8.4343118 -3.010356,-2.9503046 C 15.926405,4.7567016 14.913128,4.3402246 13.895,4.2033325 l 0.0024,-0.032764 L 2.7347899,3.3198884 Z"
     id="rect4247"
     inkscape:connector-curvature="0" />
  <path
     id="path4289"
     d="m 2.7403901,3.3052174 6.5128795,6.5083349 4.8e-6,0.00935 7.4961356,7.4909076 -0.544285,2.850633 -8.4343063,0.0029 -2.9497792,-3.010888 C 4.1748992,16.497107 3.7585995,15.483759 3.6218851,14.465607 l -0.032759,0.0024 L 2.7403942,3.3052498 Z"
     style="opacity:1;fill:#007965;fill-opacity:1;stroke:none;stroke-opacity:1"
     inkscape:connector-curvature="0" />
  <path
     inkscape:connector-curvature="0"
     style="opacity:1;fill:#42a5f5;fill-opacity:1;stroke:none;stroke-opacity:1"
     d="m 2.7128488,3.283628 7.4375002,7.430809 0.0013,0.0096 8.560351,8.552622 -0.11588,2.856721 -8.375753,-0.98513 -3.3779806,-3.430235 C 6.1024723,16.966829 5.5380963,15.879877 5.2506648,14.820764 L 5.218494,14.819206 2.7128626,3.2834891 Z"
     id="path4297" />
  <path
     id="path4299"
     d="m 2.6781517,3.2835622 7.4308083,7.4375018 0.0096,0.0013 8.552622,8.56035 2.856721,-0.115879 -0.98513,-8.375754 -3.430235,-3.3779806 C 16.361352,6.6731859 15.2744,6.1088096 14.215287,5.8213781 L 14.213729,5.7892061 2.6780127,3.2835742 Z"
     style="opacity:1;fill:#00796b;fill-opacity:1;stroke:none;stroke-opacity:1"
     inkscape:connector-curvature="0" />
</svg>
