<?xml version="1.0" standalone="no"?><!DOCTYPE svg PUBLIC "-//W3C//DTD SVG 1.1//EN" "http://www.w3.org/Graphics/SVG/1.1/DTD/svg11.dtd"><svg width="100%" height="100%" viewBox="0 0 24 24" version="1.1" xmlns="http://www.w3.org/2000/svg" xmlns:xlink="http://www.w3.org/1999/xlink" xml:space="preserve" style="fill-rule:evenodd;clip-rule:evenodd;stroke-linejoin:round;stroke-miterlimit:1.41421;"><path d="M10,4l2,2l8,0c1.1,0 2,0.89 2,2l0,10c0,1.097 -0.903,2 -2,2l-16,0c-1.097,0 -2,-0.903 -2,-2l0,-12c0,-1.11 0.89,-2 2,-2l6,0ZM12.6,15.6l2.6,-2.6l-2.6,-2.6l1.4,-1.4l4,4l-4,4l-1.4,-1.4ZM11.4,15.6l-2.6,-2.6l2.6,-2.6l-1.4,-1.4l-4,4l4,4l1.4,-1.4Z" style="fill:#42a5f5;"/></svg>