<?xml version="1.0" standalone="no"?><!DOCTYPE svg PUBLIC "-//W3C//DTD SVG 1.1//EN" "http://www.w3.org/Graphics/SVG/1.1/DTD/svg11.dtd"><svg width="100%" height="100%" viewBox="0 0 24 24" version="1.1" xmlns="http://www.w3.org/2000/svg" xmlns:xlink="http://www.w3.org/1999/xlink" xml:space="preserve" style="fill-rule:evenodd;clip-rule:evenodd;stroke-linejoin:round;stroke-miterlimit:1.41421;"><path id="folder-outline" d="M20,18l-16,0l0,-10l16,0M20,6l-8,0l-2,-2l-6,0c-1.11,0 -2,0.89 -2,2l0,12c0,1.097 0.903,2 2,2l16,0c1.097,0 2,-0.903 2,-2l0,-10c0,-1.11 -0.9,-2 -2,-2Z" style="fill:#42a5f5;fill-rule:nonzero;"/><path d="M12.6,15.6l2.6,-2.6l-2.6,-2.6l1.4,-1.4l4,4l-4,4l-1.4,-1.4M11.4,15.6l-2.6,-2.6l2.6,-2.6l-1.4,-1.4l-4,4l4,4l1.4,-1.4Z" style="fill:#42a5f5;fill-rule:nonzero;"/></svg>