<svg xmlns="http://www.w3.org/2000/svg" id="Layer_1" viewBox="0 0 141.7 141.7"><style id="style3">.st0{fill:#fff}.st1{fill:#494545}.st2{fill:url(#SVGID_1_)}.st3{fill:url(#SVGID_2_)}.st4{fill:url(#SVGID_3_)}.st5{fill:url(#SVGID_4_)}.st6{font-family:&apos;MyriadPro-Regular&apos;}.st7{font-size:12px}</style><g id="g5" transform="matrix(.86488 0 0 .86488 9.593 33.471)"><path class="st0" d="M73.9 89.8c-.2-1.2.2-2.4-.2-3.6-.3-1-1-1.1-1.5-1.9-1.3-2.1-2.5-4.9-2.7-7.5-.1-2.3-1-4.5-1.1-6.8-.1-1.1.1-2.3 0-3.4 0-.5-.1-1-.2-1.6 0-.1-.1-.7-.2-1l.3-.7c-.1-.2 2.5-.2 3.3-.2 1.3 0 2.6.1 3.9.1 2.7.1 5.2.1 7.8-.3 5.9-.9 8.6-3.3 9.9-4.3 5.4-3.9 7.8-10.2 7.8-10.2.9-2 .9-5.5 2.8-7.1 2.2-1.9 6-1.7 8.6-2.9 1.5-.7 2.6-1 4.1-.7 1.1.2 3.2 1.6 3.7-.3-.4-.2-.5-.7-.7-.9 2.1-.2 0-5.1-.8-6.1-1.3-1.5-3.5-2.2-5.8-2.8-2.7-.7-5.2-1.6-7.8-1.1-4.5.9-4.2-1.7-6.8-1.7-3.2 0-8.8.2-9.8 3.2-.5 1.4-.9 1.5-1.7 2.6-.7.9.1 1.8-.2 2.9-.4 1.1-.9 5-1.4 6.4-.9 2.3-2 5.2-4 5.2-2.8.3-5 .4-7.3-.4-1.4-.5-3.7-1.3-4.8-1.7-5.2-2.2-6.1-4.6-6.1-4.6-.6-.9-2-2.4-2.6-4.4-.6-2.1-1.6-3.9-2-5.1-.4-1.2-1.5-3-2.3-5-1-2.6-2.5-4.5-3.6-5.4-1.6-1.4-3.1-3.7-6.4-3-.6.1-2.7.2-4.4 1.6-1.1.9-1.5 2.9-2.5 4.5-.6.9-1.6 3.6-2.6 5.9-.7 1.6-1 2.7-1.7 3.3-.6.4-1.3 1-2.1.7-.5-.2-1.1-.5-1.6-1-.8-.6-2.5-3.6-3.6-5.7-.9-1.9-2.9-4.7-4-6.3-1.6-2.2-2.6-2.8-5-2.8-5.2 0-5.6 2.9-7.9 7.2-1 1.9-1.4 4.8-3.4 7.1-1.2 1.3-4.8 6.8-7.4 7.7v38.9-.2c.2-.5.3-1 .5-1.4 1-2.1 3.3-4.1 4.6-6.2.7-1.2 1.5-2.3 1.9-3.6.4-1.1.6-2.7 1.2-3.6.7-1.1 1.8-1.5 2.9-1.7 1.8-.3 3.3 2.5 5.5 3.6 1 .4 5.4 2 6.7 2.3 2.2.5 4.6 1 6.8 1.4 1.2.2 2.3.4 3.6.5 1.1.1 5.2.2 5.5.5-2.1 1.1-3.3 4.1-4.1 6.2-.8 2.2-1.4 4.7-2.4 6.8-1.1 2.4-3.4 3.4-3.1 6.2.1 1.1.3 2.3.1 3.5-.2 1.3-.7 2.3-1.1 3.5-.5 1.6-1.1 6.9-1.8 8.5l4.6-.6c.5-1.2 1-6.2 1.1-6.7.9-2.5 2-4.6 3.7-6.5 1.7-1.9 1.6-4.3 2.6-6.6 1.1-2.4 2.5-4.3 3.9-6.6 2.5-4.1 4.1-9.2 9.4-10.3.6-.1 3.8 2.2 5.2 3.6 1.6 1.6 3.4 3.4 4.5 5.6 2.1 4.2 3.8 10.3 4.5 13.6.4 1.9.7 2 2 3.6.6.7 1.8 2.9 2.2 3.7.4.9 1 2.9 1.5 4 .3.6 1.1 2.5 1.6 4.2l4.3-.1h.1v-.1c-2-4.2-3.3-9.1-4-13.9z" id="path7" fill="#fff"/><path class="st1" d="M71.1 64.9c0-.2 0-.2 0 0z" id="path9" fill="#494545"/><g id="g11"><g id="g13"><linearGradient id="SVGID_1_" gradientUnits="userSpaceOnUse" x1="-686.854" y1="80.556" x2="-686.854" y2="80.4" gradientTransform="matrix(1 0 0 -1 758 145.28)"><stop offset="0" id="stop16" stop-color="#f29104"/><stop offset="1" id="stop18" stop-color="#ec6813"/></linearGradient><path class="st2" d="M71.1 64.9c0-.2 0-.2 0 0z" id="path20" fill="url(#SVGID_1_)"/><g id="g22"><linearGradient id="SVGID_2_" gradientUnits="userSpaceOnUse" x1="-705.428" y1="79.473" x2="-705.428" y2="40.611" gradientTransform="matrix(1 0 0 -1 758 145.28)"><stop offset="0" id="stop25" stop-color="#f29104"/><stop offset="1" id="stop27" stop-color="#ec6813"/></linearGradient><path class="st3" d="M72.1 99.9c-.5-1-1.1-3.1-1.5-4-.4-.8-1.6-3-2.2-3.7-1.3-1.5-1.6-1.6-2-3.6-.7-3.4-2.4-9.4-4.5-13.6-1.1-2.2-2.9-4-4.5-5.6-1.4-1.4-4.6-3.7-5.2-3.6-5.3 1-6.9 6.2-9.4 10.3-1.4 2.3-2.8 4.2-3.9 6.6-1 2.2-.9 4.7-2.6 6.6-1.7 1.9-2.9 4-3.7 6.5-.2.5-.6 5.5-1.1 6.7l7.8-.5c7.3.5 5.2 3.3 16.5 2.7l17.9-.6c-.5-1.7-1.3-3.6-1.6-4.2z" id="path29" fill="url(#SVGID_2_)"/></g><g id="g31"><g id="g33"><linearGradient id="SVGID_3_" gradientUnits="userSpaceOnUse" x1="-686.977" y1="164.395" x2="-686.977" y2="40.638" gradientTransform="matrix(1 0 0 -1 758 145.28)"><stop offset="0" id="stop36" stop-color="#f29104"/><stop offset="1" id="stop38" stop-color="#ec6813"/></linearGradient><path class="st4" d="M124.1-19.1H17.9C8-19.1 0-11.1 0-1.2v39c2.6-.9 6.2-6.4 7.4-7.7 2-2.3 2.4-5.3 3.4-7.1 2.3-4.2 2.7-7.2 7.9-7.2 2.4 0 3.4.6 5 2.8 1.1 1.5 3.1 4.4 4 6.3 1.1 2.2 2.8 5.1 3.6 5.7.6.4 1.1.8 1.6 1 .8.3 1.5-.3 2.1-.7.7-.6 1-1.7 1.7-3.3 1-2.3 2-4.9 2.6-5.9 1-1.6 1.4-3.6 2.5-4.5 1.6-1.4 3.8-1.5 4.4-1.6 3.3-.7 4.8 1.6 6.4 3 1.1 1 2.5 2.9 3.6 5.4.8 2 1.8 3.9 2.3 5 .4 1.1 1.4 2.9 2 5.1.6 1.9 2 3.4 2.6 4.4 0 0 .9 2.4 6.1 4.6 1.1.5 3.4 1.3 4.8 1.7 2.3.8 4.5.7 7.3.4 2 0 3.1-2.9 4-5.2.5-1.4 1.1-5.3 1.4-6.4.3-1.1-.5-1.9.2-2.9.8-1.1 1.3-1.2 1.7-2.6 1-3.1 6.6-3.2 9.8-3.2 2.7 0 2.3 2.6 6.8 1.7 2.6-.5 5.1.3 7.8 1.1 2.3.6 4.5 1.3 5.8 2.8.8 1 2.9 5.9.8 6.1.2.2.4.7.7.9-.5 1.9-2.5.5-3.7.3-1.5-.3-2.6 0-4.1.7-2.6 1.1-6.3 1-8.6 2.9-1.9 1.6-1.9 5.1-2.8 7.1 0 0-2.5 6.3-7.8 10.2-1.4 1-4.1 3.4-9.9 4.3-2.6.4-5.1.4-7.8.3-1.3-.1-2.6-.1-3.9-.1-.8 0-3.4-.1-3.3.2l-.3.7c0 .2.1.8.2 1 .1.6.1 1.1.2 1.6 0 1.1-.1 2.3 0 3.4.1 2.3 1 4.4 1.1 6.8.1 2.6 1.4 5.4 2.7 7.5.5.8 1.2.9 1.5 1.9.4 1.1 0 2.4.2 3.6.7 4.7 2.1 9.7 4.2 14v.1c2.6-.4 5.3-1.4 8.7-1.9 6.3-.9 15-.5 20.6-1 14.2-1.3 21.9 5.8 34.6 2.9V-1.2c-.1-9.9-8.1-17.9-18-17.9zm-53 84c0-.2 0-.2 0 0z" id="path40" fill="url(#SVGID_3_)"/></g></g><g id="g42"><linearGradient id="SVGID_4_" gradientUnits="userSpaceOnUse" x1="-738.378" y1="85.364" x2="-738.378" y2="41.493" gradientTransform="matrix(1 0 0 -1 758 145.28)"><stop offset="0" id="stop45" stop-color="#f29104"/><stop offset="1" id="stop47" stop-color="#ec6813"/></linearGradient><path class="st5" d="M32.8 81.3c1-2.2 1.6-4.6 2.4-6.8.8-2.1 2-5.1 4.1-6.2-.3-.3-4.4-.4-5.5-.5-1.2-.1-2.4-.3-3.6-.5-2.2-.4-4.7-.9-6.8-1.4-1.3-.3-5.8-1.9-6.7-2.3-2.3-1-3.8-3.9-5.5-3.6-1.1.2-2.2.6-2.9 1.7-.6.9-.8 2.5-1.2 3.6-.5 1.2-1.3 2.4-1.9 3.6C3.8 71 1.5 72.9.5 75c-.2.5-.3 1-.5 1.5v24.1c1.2.2 2.4.4 3.7.8 10 2.7 12.4 2.9 22.2 1.8l.9-.1c.7-1.6 1.3-6.9 1.8-8.5.4-1.3.9-2.3 1.1-3.5.2-1.2 0-2.4-.1-3.5-.2-2.9 2.1-3.9 3.2-6.3z" id="path49" fill="url(#SVGID_4_)"/></g></g></g></g><text class="st6 st7" id="text51" x="10.81" y="167.011" font-size="10.379" font-family="MyriadPro-Regular"></text></svg>