<svg xmlns="http://www.w3.org/2000/svg" width="24" height="24" viewBox="0 0 24 24"><path d="M19.14 7.5A2.86 2.86 0 0 1 22 10.36v3.78A2.86 2.86 0 0 1 19.14 17H12c0 .39.32.96.71.96H17v1.68a2.86 2.86 0 0 1-2.86 2.86H9.86A2.86 2.86 0 0 1 7 19.64v-3.75a2.85 2.85 0 0 1 2.86-2.85h5.25a2.85 2.85 0 0 0 2.85-2.86V7.5h1.18m-4.28 11.79c-.4 0-.72.3-.72.89 0 .59.32.71.72.71a.71.71 0 0 0 .71-.71c0-.59-.32-.89-.71-.89m-10-1.79A2.86 2.86 0 0 1 2 14.64v-3.78A2.86 2.86 0 0 1 4.86 8H12c0-.39-.32-.96-.71-.96H7V5.36A2.86 2.86 0 0 1 9.86 2.5h4.28A2.86 2.86 0 0 1 17 5.36v3.75a2.85 2.85 0 0 1-2.86 2.85H8.89a2.85 2.85 0 0 0-2.85 2.86v2.68H4.86M9.14 5.71c.4 0 .72-.3.72-.89 0-.59-.32-.71-.72-.71-.39 0-.71.12-.71.71s.32.89.71.89z"/><path d="M9.264 22.379c-.895-.24-1.581-.799-1.947-1.582-.228-.489-.237-.606-.238-2.957-.001-2.745.057-3.074.666-3.785.193-.226.568-.517.833-.648.47-.23.579-.239 3.839-.288 3.131-.048 3.386-.065 3.814-.264.626-.291 1.07-.687 1.4-1.247.27-.46.278-.522.311-2.29l.034-1.82.932.051c1.075.058 1.504.211 2.098.748.853.77.869.841.869 3.957 0 2.434-.02 2.783-.18 3.075a3.365 3.365 0 0 1-1.337 1.33l-.517.273-3.95.031-3.951.031.068.274c.037.151.164.377.282.503.209.224.262.229 2.433.229h2.22v1.05c0 1.653-.394 2.437-1.54 3.072l-.545.302-2.644.018c-1.455.01-2.782-.018-2.95-.063zm6.12-1.692c.22-.222.253-.325.206-.675-.07-.523-.278-.73-.732-.73-.467 0-.672.217-.735.78-.042.372-.012.496.163.672.3.3.77.28 1.097-.047z" fill="#fc0" stroke="#fc0" stroke-width=".102"/><path d="M9.349 22.38c-.911-.15-1.936-1.074-2.176-1.963-.073-.273-.101-1.279-.079-2.868.033-2.317.047-2.473.27-2.926.13-.263.401-.623.603-.8.674-.592.87-.63 3.484-.675 4.399-.076 4.927-.166 5.705-.967.642-.662.706-.9.774-2.883l.061-1.784.951.055c.523.031 1.11.122 1.304.204.54.225 1.358 1.042 1.472 1.47.153.572.243 3.18.16 4.617-.071 1.23-.093 1.327-.395 1.78-.193.288-.577.647-.966.903l-.647.425-3.922.008c-2.157.004-3.942.028-3.966.052-.115.115.354.82.587.883.14.038 1.181.073 2.314.079l2.06.01v.91c0 1.739-.326 2.446-1.454 3.162l-.631.4-2.543-.011c-1.398-.007-2.733-.043-2.966-.081zm5.98-1.718c.285-.256.313-.328.251-.658-.09-.483-.301-.682-.722-.682-.436 0-.625.193-.715.73-.065.384-.044.453.2.663.358.308.595.295.985-.053z" fill="#fdd835"/><path d="M4.281 17.396c-.88-.215-1.714-.935-2.024-1.747-.149-.389-.168-.804-.142-3.041.027-2.26.054-2.638.215-2.962.259-.519.851-1.092 1.392-1.346.437-.206.632-.217 4.408-.245l3.95-.03-.067-.275a1.367 1.367 0 0 0-.282-.504c-.21-.224-.263-.23-2.433-.23h-2.22l.002-1.143c.003-1.338.157-1.795.84-2.493.746-.763 1.103-.838 4.025-.838 2.961 0 3.28.06 4.067.768.37.333.572.621.728 1.037.201.539.213.735.183 3.072-.035 2.777-.045 2.824-.78 3.598-.787.829-.76.824-4.59.883-3.812.06-3.797.057-4.61.806-.765.706-.917 1.2-.964 3.133l-.04 1.653-.677-.01c-.371-.007-.813-.045-.98-.086zM9.59 5.551c.237-.204.286-.326.286-.72 0-.547-.201-.763-.71-.763-.502 0-.765.248-.765.724 0 .492.141.782.439.902.345.14.444.12.75-.143z" fill="#3c78aa"/></svg>