<svg xmlns="http://www.w3.org/2000/svg" width="24" height="24" viewBox="0 0 24 24"><path d="M21 16.5c0 .38-.21.71-.53.88l-7.9 4.44c-.16.12-.36.18-.57.18-.21 0-.41-.06-.57-.18l-7.9-4.44A.991.991 0 0 1 3 16.5v-9c0-.38.21-.71.53-.88l7.9-4.44c.16-.12.36-.18.57-.18.21 0 .41.06.57.18l7.9 4.44c.32.17.53.5.53.88v9z" fill="#90caf9"/><path d="M15.803 13.978c0 .16-.088.3-.224.372l-3.343 1.879a.4.4 0 0 1-.241.076.4.4 0 0 1-.241-.076L8.41 14.35a.42.42 0 0 1-.225-.372v-3.809c0-.16.09-.3.225-.372l3.343-1.879a.4.4 0 0 1 .24-.076.4.4 0 0 1 .242.076l3.343 1.879a.42.42 0 0 1 .224.372v3.809z" fill="#42a5f5"/></svg>