<svg xmlns="http://www.w3.org/2000/svg" viewBox="0 0 24 24">
  <defs>
    <style>
      .a {
        fill: #5c6bc0;
      }

      .b {
        fill: #c5cae9;
      }
    </style>
  </defs>
  <path class="a" d="M19,20H4a2,2,0,0,1-2-2V6A1.99309,1.99309,0,0,1,4,4h6l2,2h7a2.00977,2.00977,0,0,1,2,2H4V18l2.14-8H23.21l-2.28,8.5A2.00187,2.00187,0,0,1,19,20Z"/>
  <path class="b" d="M15.64491,9.66367,9.77352,15.53506a1.46178,1.46178,0,0,0,0,2.06725L14.61123,22.44a1.46178,1.46178,0,0,0,2.06725,0l5.87139-5.87139a1.46175,1.46175,0,0,0,.42812-1.027L23,10.68192a1.46177,1.46177,0,0,0-1.46836-1.46837l-4.8597.022A1.46175,1.46175,0,0,0,15.64491,9.66367Zm2.86481,1.90938a1.50668,1.50668,0,1,1,0,2.13077A1.50668,1.50668,0,0,1,18.50972,11.57305Z"/>
</svg>
