<svg xmlns="http://www.w3.org/2000/svg" viewBox="0 0 24 24">
  <defs>
    <style>
      .a {
        fill: #ef5350;
      }

      .b {
        fill: #ffcdd2;
      }
    </style>
  </defs>
  <path class="a" d="M19,20H4a2,2,0,0,1-2-2V6A1.99309,1.99309,0,0,1,4,4h6l2,2h7a2.00977,2.00977,0,0,1,2,2H4V18l2.14-8H23.21l-2.28,8.5A2.00187,2.00187,0,0,1,19,20Z"/>
  <path class="b" d="M18.18327,14.38722V12.81306a.59239.59239,0,0,0-.87173-.52239L13.4158,14.37382V10.64206a.82852.82852,0,0,0-.82852-.82852H11.02119a.82852.82852,0,0,0-.82852.82852V19.651a1.21412,1.21412,0,0,0,1.21411,1.21411H21.69312A1.21412,1.21412,0,0,0,22.90723,19.651V12.81984a.59239.59239,0,0,0-.87487-.5207Zm-4.298,4.40332H12.917a.53535.53535,0,0,1-.53535-.53535V17.2869a.53534.53534,0,0,1,.53535-.53535h.96829a.53534.53534,0,0,1,.53535.53535v.96829A.53535.53535,0,0,1,13.88527,18.79054Zm3.18524,0h-.96829a.53536.53536,0,0,1-.53535-.53535V17.2869a.53535.53535,0,0,1,.53535-.53535h.96829a.53534.53534,0,0,1,.53535.53535v.96829A.53535.53535,0,0,1,17.07051,18.79054Zm3.18525,0h-.96829a.53536.53536,0,0,1-.53535-.53535V17.2869a.53535.53535,0,0,1,.53535-.53535h.96829a.53535.53535,0,0,1,.53535.53535v.96829A.53536.53536,0,0,1,20.25576,18.79054Z"/>
</svg>
