<svg xmlns="http://www.w3.org/2000/svg" xmlns:xlink="http://www.w3.org/1999/xlink" viewBox="0 0 24 24">
  <defs>
    <style>
      .a {
        fill: #b0bec5;
      }

      .b {
        fill: url(#a);
      }

      .c {
        fill: url(#b);
      }
    </style>
    <linearGradient id="a" x1="10.20972" y1="15.24346" x2="24" y2="15.24346" gradientUnits="userSpaceOnUse">
      <stop offset="0" stop-color="#ef5350"/>
      <stop offset="0.57" stop-color="#ff6e40"/>
      <stop offset="1" stop-color="#f57c00"/>
    </linearGradient>
    <linearGradient id="b" x1="12.42954" y1="16.55488" x2="21.825" y2="16.55488" gradientUnits="userSpaceOnUse">
      <stop offset="0" stop-color="#f7950f"/>
      <stop offset="1" stop-color="#fdd835"/>
    </linearGradient>
  </defs>
  <path class="a" d="M10,4H4A1.99309,1.99309,0,0,0,2,6V18a2,2,0,0,0,2,2H20a2,2,0,0,0,2-2V8a1.99944,1.99944,0,0,0-2-2H12Z"/>
  <g>
    <path class="b" d="M20.0654,9.74346l-1.71825,1.71825a.38394.38394,0,0,1-.57882-.04137L15.23291,8.03409a1.01969,1.01969,0,0,0-1.60352-.04928c-1.74942,2.16856-3.41967,5.57683-3.41967,7.61824a7.0874,7.0874,0,0,0,6.89514,7.26514A7.08741,7.08741,0,0,0,24,15.60305,10.81818,10.81818,0,0,0,21.61923,9.8569,1.0276,1.0276,0,0,0,20.0654,9.74346Z"/>
    <path class="c" d="M17.12727,21.082a4.64458,4.64458,0,0,1-4.69773-4.58953,7.88833,7.88833,0,0,1,2.07826-4.22725.68534.68534,0,0,1,1.06681.03631l2.5407,3.37584a.68536.68536,0,0,0,1.07243.02862l.99032-1.17922a.68571.68571,0,0,1,1.15106.161,4.92421,4.92421,0,0,1,.49588,1.80471A4.64458,4.64458,0,0,1,17.12727,21.082Z"/>
  </g>
</svg>
