<svg xmlns="http://www.w3.org/2000/svg" viewBox="0 0 24 24">
  <defs>
    <style>
      .a {
        fill: #795548;
      }

      .b {
        fill: #d7ccc8;
      }
    </style>
  </defs>
  <path class="a" d="M10,4H4A1.99309,1.99309,0,0,0,2,6V18a2,2,0,0,0,2,2H20a2,2,0,0,0,2-2V8a1.99944,1.99944,0,0,0-2-2H12Z"/>
  <path class="b" d="M23.70424,13.64674l-3.776-3.49945a.92361.92361,0,0,0-1.55145.67743v1.49969H15.77834a5.00548,5.00548,0,0,0-4.99952,5,1.001,1.001,0,0,1-1,1h-3v4h3a5.0063,5.0063,0,0,0,5.00049-5,1.00047,1.00047,0,0,1,.999-1h2.59845v1.49921a.92363.92363,0,0,0,1.55145.67743l3.776-3.49945A.92369.92369,0,0,0,23.70424,13.64674Z"/>
</svg>
