<svg xmlns="http://www.w3.org/2000/svg" viewBox="0 0 32 32">
  <g>
    <path d="M16,12c7.44405,0,12,2.58981,12,4s-4.55595,4-12,4S4,17.41019,4,16,8.556,12,16,12m0-2C8.268,10,2,12.68629,2,16s6.268,6,14,6,14-2.68629,14-6-6.268-6-14-6Z" style="fill: #b388ff"/>
    <path d="M16,14a2,2,0,1,0,2,2,2,2,0,0,0-2-2Z" style="fill: #b388ff"/>
    <path d="M10.45766,5.50707C12.47472,5.50746,16.395,8.68416,19.4641,14a24.24717,24.24717,0,0,1,3.174,8.68875c.25569,2.14386-.1515,3.42264-.63808,3.70356a.9001.9001,0,0,1-.45687.10061c-2.01726,0-5.93792-3.17676-9.00721-8.49292C8.81387,11.55327,8.77875,6.31279,10,5.6077a.90261.90261,0,0,1,.45768-.10063m-.00077-2A2.87127,2.87127,0,0,0,9,3.87564C6.13025,5.5325,6.93785,12.3039,10.80385,19c3.28459,5.68907,7.71947,9.49292,10.73926,9.49292A2.87037,2.87037,0,0,0,23,28.12435C25.86975,26.4675,25.06215,19.6961,21.19615,13c-3.28459-5.68907-7.71948-9.49343-10.73926-9.49293Z" style="fill: #b388ff"/>
    <path d="M21.54311,5.50707A.90007.90007,0,0,1,22,5.60769c1.22125.7051,1.18613,5.94558-2.5359,12.39231-3.06929,5.31616-6.98995,8.49292-9.00721,8.49292A.90012.90012,0,0,1,10,26.3923c-.48656-.28091-.89375-1.55969-.63806-3.70355A24.24717,24.24717,0,0,1,12.5359,14c3.06929-5.31616,6.99-8.49293,9.00721-8.49293m0-2c-3.01978,0-7.45467,3.80386-10.73926,9.49293C6.93785,19.6961,6.13025,26.4675,9,28.12435a2.87037,2.87037,0,0,0,1.45689.36857c3.01979,0,7.45467-3.80385,10.73926-9.49292C25.06215,12.3039,25.86975,5.5325,23,3.87564a2.87037,2.87037,0,0,0-1.45689-.36857Z" style="fill: #b388ff"/>
  </g>
</svg>
