<svg xmlns="http://www.w3.org/2000/svg" viewBox="0 0 32 32">
  <g>
    <path d="M16,12c7.444,0,12,2.58981,12,4s-4.556,4-12,4S4,17.41019,4,16s4.556-4,12-4m0-2C8.268,10,2,12.68629,2,16s6.268,6,14,6,14-2.68629,14-6-6.268-6-14-6Z" style="fill: #e57373"/>
    <path d="M16,14a2,2,0,1,0,2,2,2,2,0,0,0-2-2Z" style="fill: #e57373"/>
    <path d="M10.45766,5.50707C12.47473,5.50746,16.395,8.68416,19.4641,14,23.18612,20.44673,23.22126,25.68721,22,26.3923a.90005.90005,0,0,1-.4569.10063c-2.01726,0-5.93793-3.17677-9.00721-8.49293C8.81388,11.55327,8.77874,6.31279,10,5.6077a.90254.90254,0,0,1,.45767-.10063m-.00077-2A2.87127,2.87127,0,0,0,9,3.87564C6.13025,5.5325,6.93785,12.3039,10.80385,19c3.28458,5.68907,7.71948,9.49293,10.73926,9.49293A2.8705,2.8705,0,0,0,23,28.12436C25.86976,26.4675,25.06215,19.6961,21.19615,13c-3.28458-5.68907-7.71948-9.49343-10.73926-9.49293Z" style="fill: #e57373"/>
    <path d="M21.54311,5.50707A.90009.90009,0,0,1,22,5.60769c1.22126.7051,1.18612,5.94558-2.5359,12.39231-3.06928,5.31616-6.98995,8.49293-9.00721,8.49293A.90009.90009,0,0,1,10,26.39231C8.77874,25.68721,8.81388,20.44673,12.5359,14c3.06928-5.31616,6.98995-8.49293,9.00721-8.49293m0-2c-3.01978,0-7.45468,3.80386-10.73926,9.49293C6.93785,19.6961,6.13025,26.4675,9,28.12436a2.87047,2.87047,0,0,0,1.45689.36857c3.01978,0,7.45468-3.80386,10.73926-9.49293C25.06215,12.3039,25.86976,5.5325,23,3.87564a2.87039,2.87039,0,0,0-1.45689-.36857Z" style="fill: #e57373"/>
  </g>
</svg>
