<svg xmlns="http://www.w3.org/2000/svg" viewBox="0 0 32 32">
  <g>
    <path d="M16,12c7.44405,0,12,2.58981,12,4s-4.55595,4-12,4S4,17.41019,4,16,8.556,12,16,12m0-2C8.268,10,2,12.68629,2,16s6.268,6,14,6,14-2.68629,14-6-6.268-6-14-6Z" style="fill: #455a64"/>
    <path d="M16,14a2,2,0,1,0,2,2,2,2,0,0,0-2-2Z" style="fill: #455a64"/>
    <path d="M10.45769,5.50708C12.47475,5.50747,16.395,8.68416,19.4641,14,23.18613,20.44673,23.22125,25.68721,22,26.3923a.90009.90009,0,0,1-.45691.10063c-2.01725,0-5.93792-3.17677-9.00721-8.49293a24.24717,24.24717,0,0,1-3.174-8.68875C9.10625,7.16739,9.51344,5.88861,10,5.60769a.90255.90255,0,0,1,.45767-.10061m-.0008-2A2.87128,2.87128,0,0,0,9,3.87565C6.13025,5.5325,6.93785,12.3039,10.80385,19c3.28459,5.68907,7.71948,9.49293,10.73926,9.49293A2.87047,2.87047,0,0,0,23,28.12436C25.86975,26.4675,25.06215,19.6961,21.19615,13c-3.28459-5.68907-7.71947-9.49343-10.73926-9.49293Z" style="fill: #455a64"/>
    <path d="M21.54311,5.50708A.90012.90012,0,0,1,22,5.6077c.48656.28091.89375,1.55969.63806,3.70355A24.24717,24.24717,0,0,1,19.4641,18c-3.06929,5.31616-6.99,8.49293-9.00721,8.49293A.90007.90007,0,0,1,10,26.39231C8.77875,25.68721,8.81387,20.44673,12.5359,14c3.06929-5.31616,6.98995-8.49292,9.00721-8.49292m0-2c-3.01979,0-7.45467,3.80386-10.73926,9.49293C6.93785,19.6961,6.13025,26.4675,9,28.12436a2.87047,2.87047,0,0,0,1.45689.36857c3.01978,0,7.45467-3.80386,10.73926-9.49293C25.06215,12.3039,25.86975,5.5325,23,3.87565a2.87038,2.87038,0,0,0-1.45689-.36858Z" style="fill: #455a64"/>
  </g>
</svg>
