<svg xmlns="http://www.w3.org/2000/svg" viewBox="0 0 32 32">
  <g>
    <path d="M16,12c7.444,0,12,2.58981,12,4s-4.556,4-12,4S4,17.41019,4,16s4.556-4,12-4m0-2C8.268,10,2,12.68629,2,16s6.268,6,14,6,14-2.68629,14-6-6.268-6-14-6Z" style="fill: #0288d1"/>
    <path d="M16,14a2,2,0,1,0,2,2,2,2,0,0,0-2-2Z" style="fill: #0288d1"/>
    <path d="M10.45768,5.50708C12.47474,5.50747,16.395,8.68417,19.4641,14,23.18612,20.44673,23.22126,25.68721,22,26.3923a.90005.90005,0,0,1-.4569.10063c-2.01726,0-5.93793-3.17677-9.00721-8.49293a24.24717,24.24717,0,0,1-3.174-8.68875C9.10625,7.16739,9.51345,5.88861,10,5.6077a.90251.90251,0,0,1,.45768-.10062m-.00078-2A2.87134,2.87134,0,0,0,9,3.87565C6.13024,5.5325,6.93785,12.30391,10.80385,19c3.28458,5.68907,7.71947,9.49293,10.73926,9.49293A2.87037,2.87037,0,0,0,23,28.12436C25.86975,26.4675,25.06215,19.6961,21.19615,13,17.91157,7.31093,13.47669,3.50657,10.4569,3.50707Z" style="fill: #0288d1"/>
    <path d="M21.5431,5.50708A.90013.90013,0,0,1,22,5.6077c.48655.28091.89375,1.55969.63806,3.70355A24.2471,24.2471,0,0,1,19.4641,18c-3.06928,5.31616-6.98995,8.49293-9.0072,8.49293A.90024.90024,0,0,1,10,26.39231C8.77874,25.68721,8.81388,20.44673,12.5359,14c3.06928-5.31616,6.98995-8.49292,9.0072-8.49292m0-2c-3.01978,0-7.45467,3.80386-10.73925,9.49293C6.93785,19.6961,6.13024,26.4675,9,28.12436a2.87041,2.87041,0,0,0,1.4569.36857c3.01978,0,7.45467-3.80386,10.73925-9.49293C25.06215,12.30391,25.86975,5.5325,23,3.87565a2.87041,2.87041,0,0,0-1.4569-.36858Z" style="fill: #0288d1"/>
  </g>
</svg>
