<svg xmlns="http://www.w3.org/2000/svg" viewBox="0 0 32 32">
  <g>
    <path d="M16,12c7.444,0,12,2.58981,12,4s-4.556,4-12,4S4,17.41019,4,16s4.556-4,12-4m0-2C8.268,10,2,12.68629,2,16s6.268,6,14,6,14-2.68629,14-6-6.268-6-14-6Z" style="fill: #a1887f"/>
    <path d="M16,14a2,2,0,1,0,2,2,2,2,0,0,0-2-2Z" style="fill: #a1887f"/>
    <path d="M10.45767,5.50707C12.47473,5.50746,16.395,8.68416,19.4641,14a24.24717,24.24717,0,0,1,3.174,8.68875c.25569,2.14386-.15151,3.42264-.63808,3.70356a.90011.90011,0,0,1-.45688.10061c-2.01725,0-5.93792-3.17676-9.0072-8.49292C8.81388,11.55327,8.77874,6.31279,10,5.60771a.90258.90258,0,0,1,.4577-.10064m-.00078-2A2.8713,2.8713,0,0,0,9,3.87564C6.13024,5.5325,6.93785,12.3039,10.80385,19c3.28458,5.68907,7.71946,9.49292,10.73925,9.49292A2.87043,2.87043,0,0,0,23,28.12435C25.86976,26.4675,25.06215,19.6961,21.19615,13c-3.28458-5.68907-7.71947-9.49343-10.73926-9.49293Z" style="fill: #a1887f"/>
    <path d="M21.5431,5.50707A.90013.90013,0,0,1,22,5.60769c1.22126.7051,1.18612,5.94558-2.5359,12.39231-3.06928,5.31616-6.98995,8.49292-9.0072,8.49292A.90013.90013,0,0,1,10,26.3923c-.48655-.28091-.89375-1.55969-.63806-3.70355A24.24717,24.24717,0,0,1,12.5359,14c3.06928-5.31616,6.98995-8.49293,9.0072-8.49293m0-2c-3.01979,0-7.45468,3.80386-10.73926,9.49293C6.93785,19.6961,6.13024,26.4675,9,28.12435a2.87043,2.87043,0,0,0,1.4569.36857c3.01979,0,7.45467-3.80385,10.73925-9.49292C25.06215,12.3039,25.86976,5.5325,23,3.87564a2.87039,2.87039,0,0,0-1.45689-.36857Z" style="fill: #a1887f"/>
  </g>
</svg>
