<svg xmlns="http://www.w3.org/2000/svg" viewBox="0 0 24 24">
  <defs>
    <style>
      .a {
        fill: #6d4c41;
      }

      .b {
        fill: #8d6e63;
      }

      .c {
        fill: #e0e0e0;
      }

      .d {
        fill: #9e9e9e;
      }
    </style>
  </defs>
  <g>
    <path class="a" d="M19.68651,6.11887,17.194,3.6188,3.62,17.19279l2.50007,2.50006a9.59558,9.59558,0,1,0,13.5664-13.574Z"/>
    <path class="b" d="M17.73458,15.1657a4.21155,4.21155,0,0,1,.458-1.74937c1.7493-3.39349,1.47151-7.32749-.99853-9.79753a7.99692,7.99692,0,0,0-8.206-1.66671A3.06952,3.06952,0,0,0,7.18624,3.49117,4.71065,4.71065,0,0,1,6.00753,4.91764a4.66467,4.66467,0,0,1-1.57662.931A3.0495,3.0495,0,0,0,2.62906,7.38017c-1.75681,3.39344-1.479,7.335.991,9.81254A7.27046,7.27046,0,0,0,7.937,19.24982a3.21053,3.21053,0,0,1,1.419.54814,1.53583,1.53583,0,0,0,1.09613.1726,2.01921,2.01921,0,0,0,1.06609-.52554,5.07057,5.07057,0,0,1,1.44148-1.02848c.06006-.03.11262-.05263.17268-.08266a4.21364,4.21364,0,0,1,1.75681-.39791,2.91287,2.91287,0,0,0,1.89945-.946A2.93947,2.93947,0,0,0,17.73458,15.1657Z"/>
    <path class="c" d="M16.9763,14.13707a2.59843,2.59843,0,0,1,.27779-1.16369c1.494-2.95054,1.23877-6.36652-.90844-8.51372A7.04173,7.04173,0,0,0,8.928,3.08575a1.39439,1.39439,0,0,0-.84086.90092A4.16434,4.16434,0,0,1,6.77331,5.766a3.872,3.872,0,0,1-1.95951.99853,1.32463,1.32463,0,0,0-1.03607.67569C2.051,10.48081,2.23114,14.09953,4.476,16.34434a6.42959,6.42959,0,0,0,4.05417,1.83188,1.95917,1.95917,0,0,1,1.02105.41292,1.48787,1.48787,0,0,0,1.19373.16517,1.96462,1.96462,0,0,0,1.11114-.66067,2.512,2.512,0,0,1,.92345-.73576l.18018-.09009a2.51262,2.51262,0,0,1,1.1637-.2853,2.89366,2.89366,0,0,0,1.907-.946A2.98518,2.98518,0,0,0,16.9763,14.13707Z"/>
    <path class="d" d="M16.158,13.00348a.86829.86829,0,0,1,.06007-.62314,6.06216,6.06216,0,0,0-.84087-6.95968A5.79109,5.79109,0,0,0,9.66386,4.11432,1.19969,1.19969,0,0,0,8.838,4.9777,4.04736,4.04736,0,0,1,7.51666,6.78706a3.85723,3.85723,0,0,1-1.967.99856,1.21028,1.21028,0,0,0-1.006.69822A6.037,6.037,0,0,0,5.422,15.3609a5.41708,5.41708,0,0,0,3.55867,1.54659.68749.68749,0,0,1,.488.21773,1.39994,1.39994,0,0,0,1.28382.24024,1.897,1.897,0,0,0,1.17871-.75828,1.0938,1.0938,0,0,1,.45046-.39791h.00751a.84228.84228,0,0,1,.61563-.05255,2.51365,2.51365,0,0,0,2.25983-.89342A2.53926,2.53926,0,0,0,16.158,13.00348Z"/>
  </g>
</svg>
