<?xml version="1.0" encoding="UTF-8" standalone="no"?>
<svg
   xmlns:dc="http://purl.org/dc/elements/1.1/"
   xmlns:cc="http://creativecommons.org/ns#"
   xmlns:rdf="http://www.w3.org/1999/02/22-rdf-syntax-ns#"
   xmlns:svg="http://www.w3.org/2000/svg"
   xmlns="http://www.w3.org/2000/svg"
   xmlns:sodipodi="http://sodipodi.sourceforge.net/DTD/sodipodi-0.dtd"
   xmlns:inkscape="http://www.inkscape.org/namespaces/inkscape"
   version="1.1"
   width="24"
   height="24"
   viewBox="0 0 24 24"
   id="svg4"
   sodipodi:docname="abc_icon.svg"
   inkscape:version="1.0 (4035a4fb49, 2020-05-01)">
  <metadata
     id="metadata10">
    <rdf:RDF>
      <cc:Work
         rdf:about="">
        <dc:format>image/svg+xml</dc:format>
        <dc:type
           rdf:resource="http://purl.org/dc/dcmitype/StillImage" />
        <dc:title />
      </cc:Work>
    </rdf:RDF>
  </metadata>
  <defs
     id="defs8" />
  <sodipodi:namedview
     inkscape:document-rotation="0"
     pagecolor="#ffffff"
     bordercolor="#666666"
     borderopacity="1"
     objecttolerance="10"
     gridtolerance="10"
     guidetolerance="10"
     inkscape:pageopacity="0"
     inkscape:pageshadow="2"
     inkscape:window-width="1920"
     inkscape:window-height="1001"
     id="namedview6"
     showgrid="false"
     inkscape:zoom="34.583333"
     inkscape:cx="5.0746987"
     inkscape:cy="12"
     inkscape:window-x="-9"
     inkscape:window-y="-9"
     inkscape:window-maximized="1"
     inkscape:current-layer="svg4" />
  <path
     d="M13 11V7.5L15.2 5.29C16 4.5 16.15 3.24 15.59 2.26C15.14 1.47 14.32 1 13.45 1C13.24 1 13 1.03 12.81 1.09C11.73 1.38 11 2.38 11 3.5V6.74L7.86 9.91C6.2 11.6 5.7 14.13 6.61 16.34C7.38 18.24 9.06 19.55 11 19.89V20.5C11 20.76 10.77 21 10.5 21H9V23H10.5C11.85 23 13 21.89 13 20.5V20C15.03 20 17.16 18.08 17.16 15.25C17.16 12.95 15.24 11 13 11M13 3.5C13 3.27 13.11 3.09 13.32 3.03C13.54 2.97 13.77 3.06 13.88 3.26C14 3.46 13.96 3.71 13.8 3.87L13 4.73V3.5M11 11.5C10.03 12.14 9.3 13.24 9.04 14.26L11 14.78V17.83C9.87 17.53 8.9 16.71 8.43 15.57C7.84 14.11 8.16 12.45 9.26 11.33L11 9.5V11.5M13 18V12.94C14.17 12.94 15.18 14.04 15.18 15.25C15.18 17 13.91 18 13 18Z"
     id="path2"
     style="fill:#ee6002;fill-opacity:1" />
</svg>
