<svg xmlns="http://www.w3.org/2000/svg" viewBox="0 0 512 512" width="512" height="512">
	<style>
		tspan { white-space:pre }
		.shp0 { fill: #3354ea } 
		.shp1 { fill: #09239d } 
	</style>
	<g id="Layer">
		<g id="Layer">
			<path id="Layer" class="shp0" d="M251.4 126.43C169.79 148.18 133.4 200.22 154.07 265.63C166.99 306.52 211.73 318.21 239.05 310.93C303.49 293.75 288.39 243.46 287.72 241.33L274.59 244.49C274.68 244.81 282.71 276.64 232.45 290.04C208.84 296.33 174.42 285.3 167.11 262.15C150.81 210.6 185.65 166.61 258.01 147.32C353.02 121.99 428.68 150.73 450.74 220.53C473.86 293.69 429.31 396.04 301.2 441.61L308.44 462.29C445.86 413.42 490.6 301.92 463.77 217.05C437.7 134.56 354.34 98.99 251.4 126.43Z" />
			<path id="Layer" class="shp1" d="M349.4 252.43C342.91 209.55 303.28 191.41 277.18 194.81C215.6 202.83 222.85 255.45 223.19 257.69L235.69 256.4C235.65 256.06 232.46 222.97 280.49 216.72C303.06 213.78 333.27 229.78 336.95 254.05C345.13 308.11 307.26 347.27 238.11 356.27C147.32 368.09 81.49 328.43 70.41 255.23C58.79 178.51 113.32 82.18 237.25 54.79L233.31 33C100.39 62.37 44.48 167.85 57.95 256.85C71.05 343.36 143.07 390.98 241.43 378.18C319.42 368.03 359.79 321.02 349.4 252.43Z" />
			<path id="Layer" class="shp1" d="M239.65 32.1L260.2 28.13L264.16 48.68L243.61 52.65L239.65 32.1ZM270.03 29.27L289.61 28.51L290.37 48.1L270.79 48.86L270.03 29.27ZM300.66 29.77L320.12 32.15L317.74 51.6L298.28 49.22L300.66 29.77Z" />
		</g>
	</g>
</svg>