<svg xmlns="http://www.w3.org/2000/svg" viewBox="0 0 32 32">
  <path d="M4,18a2,2,0,0,0-2-2,2,2,0,0,0,2-2V6H8V2H4A2,2,0,0,0,2,4V14H0v4H1.5a.5.5,0,0,1,.5.5V28a2,2,0,0,0,2,2H8V26H4Z" style="fill: #f44336"/>
  <path d="M28,14a2,2,0,0,0,2,2,2,2,0,0,0-2,2v8H24v4h4a2,2,0,0,0,2-2V18h2V14H30.5a.5.5,0,0,1-.5-.5V4a2,2,0,0,0-2-2H24V6h4Z" style="fill: #f44336"/>
  <g>
    <rect x="10" y="10" width="4" height="2" style="fill: #f44336"/>
    <polygon points="14 16 10 16 10 12 8 12 8 22 10 22 10 18 14 18 14 22 16 22 16 12 14 12 14 16" style="fill: #f44336"/>
    <path d="M24,12V10H18.5a.5.5,0,0,0-.5.5v5a.5.5,0,0,0,.5.5H22v4H18v2h5.5a.5.5,0,0,0,.5-.5v-7a.5.5,0,0,0-.5-.5H20V12Z" style="fill: #f44336"/>
  </g>
</svg>
