<?xml version="1.0" encoding="UTF-8"?>
<svg width="24" height="24" version="1.1" viewBox="0 0 24 24" xmlns="http://www.w3.org/2000/svg">
 <text transform="scale(.91325 1.095)" x="5.6050396" y="15.89185" fill="#f44336" font-family="sans-serif" letter-spacing="0px" stroke-width="1px" word-spacing="0px" style="line-height:0%" xml:space="preserve"><tspan x="5.6050396" y="15.89185" fill="#f44336" font-family="Arial" font-size="13.382px" font-weight="bold" letter-spacing="-2.6854px" style="line-height:113.99999857%"> </tspan></text>
 <path d="m4.7441 2.0312c-1.1572 0-1.9943 0.3103-2.5098 0.92969-0.51549 0.61202-0.77148 1.6783-0.77148 3.1973v2.4668c0 1.4084-0.40163 2.1113-1.2012 2.1113v2.0352c0.79954 0 1.2012 0.6784 1.2012 2.0352v2.6543c0 1.5116 0.25855 2.5624 0.7793 3.1523s1.3552 0.88477 2.502 0.88477v-2.0684c-0.44711 0-0.77082-0.1508-0.9707-0.45313-0.19462-0.30232-0.29102-0.81449-0.29102-1.5371v-2.2676c0-1.8066-0.40479-2.9374-1.2148-3.3945v-0.044922c0.81006-0.46454 1.2148-1.5819 1.2148-3.3516v-2.3555c0-1.283 0.4201-1.9258 1.2617-1.9258v-2.0684zm14.66 0v2.0684c0.84162 0 1.2617 0.64276 1.2617 1.9258v2.2676c0 1.8434 0.40223 2.9964 1.207 3.4609v0.044922c-0.8048 0.44242-1.207 1.5443-1.207 3.3066v2.3555c0 0.71525-0.098944 1.2207-0.29883 1.5156-0.19988 0.30232-0.52104 0.45313-0.96289 0.45313v2.0684c1.152 0 1.9839-0.29487 2.4941-0.88477 0.51549-0.5899 0.77148-1.6629 0.77148-3.2188v-2.5547c0-1.3789 0.40419-2.0684 1.209-2.0684v-2.0352c-0.8048 0-1.209-0.69622-1.209-2.0898v-2.5332c0-1.4895-0.25599-2.5403-0.77148-3.1523-0.51549-0.61939-1.3474-0.92969-2.4941-0.92969zm-3.0547 4.459c-0.45491 0-0.88595 0.057983-1.293 0.17383-0.40702 0.11121-0.76687 0.28639-1.0781 0.52734-0.30726 0.24096-0.5509 0.54849-0.73047 0.92383-0.17957 0.3707-0.26953 0.81695-0.26953 1.3359 0 0.66263 0.16497 1.2273 0.49219 1.6953 0.3312 0.46802 0.83156 0.86313 1.502 1.1875 0.26337 0.12511 0.50888 0.24866 0.73633 0.36914 0.22745 0.12048 0.42233 0.24525 0.58594 0.375 0.1676 0.12975 0.29876 0.27091 0.39453 0.42383s0.14453 0.32686 0.14453 0.52148c0 0.14365-0.029987 0.27918-0.089843 0.4043-0.059856 0.12048-0.15169 0.22568-0.27539 0.31836-0.11971 0.088042-0.27152 0.15801-0.45508 0.20898-0.17957 0.050972-0.39135 0.076172-0.63477 0.076172-0.415 0-0.8254-0.083183-1.2324-0.25-0.40702-0.17145-0.78369-0.4254-1.1309-0.76367v2.2227c0.31125 0.18535 0.67858 0.32529 1.1016 0.41797 0.42697 0.092676 0.87484 0.13867 1.3457 0.13867 0.4589 0 0.89368-0.0504 1.3047-0.15234 0.415-0.10194 0.77859-0.26831 1.0898-0.5 0.31125-0.23632 0.55676-0.54263 0.73633-0.91797 0.18356-0.37997 0.27539-0.84824 0.27539-1.4043 0-0.40314-0.0525-0.75544-0.15625-1.0566-0.10375-0.30583-0.25369-0.57618-0.44922-0.8125s-0.42974-0.44746-0.70508-0.63281c-0.27135-0.18999-0.5787-0.36834-0.92188-0.53516-0.2514-0.12048-0.47626-0.23644-0.67578-0.34766-0.19952-0.11584-0.3701-0.23181-0.50977-0.34766-0.13966-0.12048-0.24645-0.24525-0.32227-0.375-0.075817-0.13438-0.11523-0.28631-0.11523-0.45312 0-0.15292 0.033725-0.28772 0.10156-0.4082 0.067837-0.12511 0.16536-0.23227 0.28906-0.32031 0.1237-0.088042 0.27551-0.15483 0.45508-0.20117 0.17957-0.050972 0.37818-0.078125 0.59766-0.078125 0.15962 0 0.32638 0.015166 0.50195 0.042969 0.17957 0.027803 0.3595 0.07062 0.53906 0.13086 0.17957 0.055606 0.35389 0.12875 0.52148 0.2168 0.17159 0.088042 0.329 0.18884 0.47266 0.30469v-2.0781c-0.2913-0.12975-0.60987-0.22492-0.95703-0.28516-0.34318-0.064873-0.73862-0.095703-1.1855-0.095703zm-8.7734 0.16602l-3.123 9.9668h2.0938l0.60547-2.2168h3.0527l0.60938 2.2168h2.1074l-3.0527-9.9668h-2.293zm1.0723 1.7793h0.046875c0.027933 0.34754 0.076694 0.64626 0.14453 0.89648l0.92188 3.3496h-2.1973l0.93359-3.377c0.079808-0.2873 0.13044-0.57721 0.15039-0.86914z" fill="#f44336"/>
</svg>
