<svg width="32" height="32" version="1.1" viewBox="0 0 32 32" xmlns="http://www.w3.org/2000/svg">
 <rect x="2" y="2" width="28" height="28" rx="4" fill="#795548"/>
 <g fill="#ffb74d">
  <path d="m20.988 9.9985a0.95974 0.95974 0 0 1-0.68708-0.268 0.98979 0.98979 0 0 1-0.26248-0.70434 0.89692 0.89692 0 0 1 0.27792-0.68138 0.99324 0.99324 0 0 1 0.68708-0.268 0.92859 0.92859 0 0 1 0.70252 0.268 1.046 1.046 0 0 1-0.01544 1.3857 0.91194 0.91194 0 0 1-0.70252 0.268z"/>
  <rect x="20" y="12" width="2" height="10"/>
  <path d="m14.37 10.02-0.01-0.02h-2.08a0.12039 0.12039 0 0 0-0.1 0.13 4.5276 4.5276 0 0 1-0.06 0.74c-0.05 0.13-0.08 0.26-0.12 0.37l-0.27 0.78-3.73 9.98h2.14l0.75-2h5.24l0.79 2h2.16zm-2.73 7.98 1.8-4.84 0.01 0.04 0.02 0.04 1.48 3.76 0.39 1z"/>
 </g>
</svg>
