<svg viewBox="0 0 24 24" fill="none" xmlns="http://www.w3.org/2000/svg">
  <path d="M0 4a4 4 0 0 1 4-4h11.21a4 4 0 0 1 4 4v11.21a4 4 0 0 1-4 4H4a4 4 0 0 1-4-4V4Z" fill="#673AB7" />
  <path
    d="M12.002 9.64c-.186.468-1.011 1.403-2.677 1.403-1.617 0-2.725-.868-2.725-2.278 0-1.262.954-2.123 2.822-2.123h2.612V5.514c0-1.32-.922-1.922-2.28-1.922-1.383 0-2.038.587-2.224 1.544h-.558c.145-1.18 1.043-2.026 2.814-2.026 1.69 0 2.814.809 2.814 2.293v5.506h-.566V9.64h-.032Zm-2.7.994c1.447 0 2.681-.878 2.681-2.213V7.204H9.352c-1.553 0-2.247.679-2.247 1.638 0 1.106.915 1.792 2.198 1.792ZM6.6 13.602h6v.358h-6v-.358Zm0 2.15h6v.358h-6v-.358Z"
    fill="#fff" />
</svg>