<svg viewBox="0 0 24 24" fill="none" xmlns="http://www.w3.org/2000/svg">
  <path
    d="M2.4 6.002A3.602 3.602 0 0 1 6.002 2.4h12.006a3.602 3.602 0 0 1 3.602 3.602v12.006a3.602 3.602 0 0 1-3.602 3.602H6.002A3.602 3.602 0 0 1 2.4 18.008V6.002Z"
    fill="#673AB7" />
  <path
    d="M13.867 12.036c-.167.475-.91 1.425-2.41 1.425-1.456 0-2.454-.882-2.454-2.315 0-1.281.86-2.156 2.542-2.156h2.352V7.844c0-1.342-.83-1.952-2.054-1.952-1.245 0-1.835.595-2.002 1.568h-.503c.131-1.199.94-2.058 2.534-2.058 1.522 0 2.534.821 2.534 2.33v5.593h-.51v-1.289h-.029Zm-2.43 1.009c1.303 0 2.414-.892 2.414-2.248V9.561h-2.37c-1.398 0-2.023.69-2.023 1.663 0 1.124.824 1.82 1.98 1.82ZM9.003 16.06h5.403v.364H9.003v-.364Zm0 2.183h5.403v.364H9.003v-.364Z"
    fill="#fff" />
</svg>