<svg xmlns="http://www.w3.org/2000/svg" viewBox="0 0 32 32">
  <rect x="2" y="12" width="4" height="10" rx="2" style="fill: #8bc34a"/>
  <rect x="26" y="12" width="4" height="10" rx="2" style="fill: #8bc34a"/>
  <rect x="8" y="12" width="16" height="12" style="fill: #8bc34a"/>
  <path d="M10,24h4a0,0,0,0,1,0,0v4a2,2,0,0,1-2,2h0a2,2,0,0,1-2-2V24A0,0,0,0,1,10,24Z" style="fill: #8bc34a"/>
  <path d="M18,24h4a0,0,0,0,1,0,0v4a2,2,0,0,1-2,2h0a2,2,0,0,1-2-2V24A0,0,0,0,1,18,24Z" style="fill: #8bc34a"/>
  <path d="M21.545,4.24146,23.6651,2.12134A1,1,0,0,0,22.25085.70709L19.92468,3.03326a7.97028,7.97028,0,0,0-7.84936,0L9.74915.70709A1,1,0,1,0,8.3349,2.12134L10.455,4.24146A7.97053,7.97053,0,0,0,8,10H24A7.97053,7.97053,0,0,0,21.545,4.24146ZM14,8H12V6h2Zm6,0H18V6h2Z" style="fill: #8bc34a"/>
</svg>
