<?xml version="1.0" encoding="UTF-8"?>
<svg version="1.1" viewBox="0 0 24 24" xml:space="preserve" xmlns="http://www.w3.org/2000/svg"><title>file_type_antlr</title><path d="m10.355 1.6137a10.469 10.483 0 0 1 11.813 7.7922 10.327 10.34 0 0 1-1.5655 8.6731 10.583 10.597 0 0 1-14.818 2.4282 10.416 10.43 0 0 1-4.2222-7.1402 10.641 10.656 0 0 1 0.99863-5.9935 10.498 10.512 0 0 1 7.7948-5.7601m0.26996 3.825c-0.94822 2.0797-1.8994 4.16-2.8288 6.2494-0.47975 1.3448-1.1279 2.615-1.7167 3.9153-0.1737 0.4081-0.46847 0.85309-0.28725 1.3124a1.0881 1.0895 0 0 0 1.5746 0.55567c0.45869-0.26127 0.56622-0.82824 0.77827-1.2724 0.95195-2.4049 2.1303-4.7082 3.1101-7.104a7.3564 7.3661 0 0 1 0.77602-1.6c0.56848 1.4065 1.1858 2.7912 1.7731 4.1902a14.819 14.839 0 0 1 0.96849 2.1971c-1.5092-0.01506-3.0198-0.0037-4.5305-0.0098 2.0731 1.2326 4.202 2.3786 6.3051 3.5622a1.0941 1.0955 0 0 0 1.6979-1.0361c-0.42485-1.1512-1.0144-2.237-1.4994-3.3642-0.91739-2.3936-2.0769-4.6856-3.0973-7.0363a2.6852 2.6888 0 0 0-0.73842-1.1625 1.5641 1.5661 0 0 0-2.2845 0.6016z" fill="#f44336" stroke-width=".75245"/></svg>
