<?xml version="1.0" encoding="UTF-8"?>
<svg version="1.1" viewBox="0 0 256 256" xml:space="preserve" xmlns="http://www.w3.org/2000/svg"><title>file_type_antlr</title><path d="m110.71 18.75a110.12 110.27 0 0 1 124.25 81.962 108.62 108.76 0 0 1-16.467 91.228 111.32 111.46 0 0 1-155.86 25.541 109.56 109.71 0 0 1-44.411-75.104 111.93 112.08 0 0 1 10.504-63.042 110.42 110.57 0 0 1 81.989-60.587m2.8395 40.233c-9.9738 21.875-19.979 43.757-29.755 65.734-5.0462 14.145-11.864 27.506-18.057 41.183-1.8271 4.2926-4.9276 8.9732-3.0214 13.804a11.445 11.46 0 0 0 16.562 5.8448c4.8247-2.7482 5.9558-8.7118 8.1862-13.384 10.013-25.296 22.407-49.523 32.713-74.723a77.378 77.48 0 0 1 8.1625-16.83c5.9795 14.794 12.473 29.359 18.65 44.074a155.87 156.08 0 0 1 10.187 23.11c-15.874-0.15842-31.764-0.0393-47.654-0.10294 21.806 12.965 44.198 25.019 66.32 37.469a11.508 11.523 0 0 0 17.859-10.898c-4.4688-12.109-10.67-23.53-15.771-35.386-9.6495-25.177-21.846-49.285-32.579-74.011a28.244 28.282 0 0 0-7.767-12.228 16.452 16.473 0 0 0-24.029 6.3279z" fill="#f44336" stroke-width="7.9146"/></svg>
