<svg width="1890" height="1890" xmlns="http://www.w3.org/2000/svg" xmlns:xlink="http://www.w3.org/1999/xlink" xml:space="preserve" overflow="hidden"><defs><clipPath id="clip0"><rect x="537" y="260" width="1890" height="1889"/></clipPath></defs><g clip-path="url(#clip0)" transform="translate(-537 -260)"><path d="M1837.93 1692.48 2321.69 1692.48 2295.23 1750.81C2203.18 1938.2 2065.31 2085.17 1889.28 2132.57L1837.93 2142.35ZM1215.16 1692.48 1755.41 1692.48 1755.41 2148.45 1747.9 2148.46C1698.4 2146.69 1646.56 2137.52 1592.51 2120 1474.73 2081.82 1474.17 2081.17 1363.34 2119.68 1319.07 2135.07 1276.22 2144.32 1234.88 2148.07L1215.16 2149ZM645.172 1692.48 1132.64 1692.48 1132.64 2145.61 1115.5 2143.4C920.397 2109.46 767.041 1948.17 667.385 1742.05ZM1837.93 1060.1 2421.29 1060.1 2425.53 1109.07C2432.63 1253.55 2413.84 1407.83 2371.72 1552.12L2353.13 1609.94 1837.93 1609.94ZM1215.16 1060.1 1755.41 1060.1 1755.41 1609.94 1215.16 1609.94ZM542.756 1060.1 1132.64 1060.1 1132.64 1609.94 612.93 1609.94 592.516 1546.67C545.235 1385.93 527.036 1215 542.245 1063.72ZM916.708 609.249C967.516 608.194 1023.78 616.467 1085.72 635.537L1132.64 651.68 1132.64 977.555 555.492 977.555 568.75 920.1C619.364 740.283 731.933 613.085 916.708 609.249ZM1755.41 542.462 1755.41 977.555 1215.16 977.555 1215.16 687.892 1234.75 697.288C1270.04 715.336 1306.78 736.359 1345.01 760.541 1474.85 667.405 1591.93 602.817 1696.79 562.344ZM1975.36 508.831C2215.57 518.675 2353.61 701.454 2404.42 941.679L2410.42 977.555 1837.93 977.555 1837.93 520.868 1845.01 519.165C1891.42 510.43 1934.84 507.17 1975.36 508.831ZM1047.24 260 1321.58 260C1341.45 260 1353.99 267.679 1359.21 283.037 1363.05 294.33 1350.59 425.777 1321.82 677.379 1126.44 425.325 1027.06 294.33 1023.69 284.392 1021.08 276.713 1022.62 270.615 1028.31 266.098 1033.25 262.032 1039.56 260 1047.24 260Z" fill="#43A047" fill-rule="evenodd"/><path d="M838.79 1234.71 790 1361.03 892.747 1361.03ZM1452.22 1197.38 1452.22 1313.95 1499.86 1313.95C1500.62 1314.33 1501.49 1314.52 1502.44 1314.52 1503.4 1314.52 1504.07 1314.52 1504.45 1314.52 1517.46 1314.52 1528.75 1313.37 1538.32 1311.08 1547.88 1308.78 1555.92 1305.53 1562.43 1301.31 1568.93 1296.72 1573.91 1290.69 1577.35 1283.23 1580.79 1275.76 1582.52 1267.05 1582.52 1257.1 1582.52 1246.38 1580.79 1237.29 1577.35 1229.83 1573.91 1222.36 1568.93 1216.33 1562.43 1211.74 1555.92 1207.53 1547.02 1204.27 1535.73 1201.98 1524.45 1199.68 1510.77 1198.53 1494.69 1198.53ZM1923.45 1148 2144.44 1148 2144.44 1195.66 2110 1195.66C2104.26 1196.43 2099.39 1197.38 2095.37 1198.53 2091.35 1199.68 2088.19 1201.21 2085.9 1203.12 2083.6 1205.04 2081.88 1207.72 2080.73 1211.16 2079.58 1214.61 2079.01 1218.82 2079.01 1223.8L2079.01 1481.62 2158.22 1481.62C2178.5 1482.38 2194.67 1479.9 2206.72 1474.15 2218.78 1468.41 2227.1 1459.8 2231.69 1448.31 2235.9 1436.83 2239.16 1424 2241.45 1409.84 2243.75 1395.68 2245.09 1380.36 2245.47 1363.9L2300 1362.76 2300 1531 1923.45 1531 1923.45 1483.91 1953.3 1483.91C1954.07 1484.3 1954.83 1484.49 1955.6 1484.49 1956.36 1484.49 1956.94 1484.49 1957.32 1484.49 1961.91 1484.49 1965.93 1484.01 1969.37 1483.05 1972.82 1482.1 1975.5 1480.66 1977.41 1478.75 1979.7 1476.83 1981.43 1474.15 1982.58 1470.71 1983.72 1467.26 1984.3 1463.05 1984.3 1458.07L1984.3 1222.65C1984.3 1218.44 1983.72 1214.61 1982.58 1211.16 1981.43 1207.72 1979.7 1205.04 1977.41 1203.12 1975.11 1201.21 1971.96 1199.68 1967.94 1198.53 1963.92 1197.38 1959.04 1196.81 1953.3 1196.81L1923.45 1195.66ZM1296.66 1148 1549.22 1148C1571.04 1148.77 1590.17 1151.54 1606.62 1156.33 1623.08 1161.11 1636.86 1168.1 1647.95 1177.28 1659.05 1186.47 1667.47 1197.77 1673.21 1211.16 1678.95 1224.56 1681.82 1240.26 1681.82 1258.25 1681.82 1275.86 1678.85 1291.36 1672.92 1304.76 1666.99 1318.16 1658.09 1329.26 1646.23 1338.06 1634.37 1346.87 1619.35 1353.47 1601.17 1357.88 1582.99 1362.28 1561.85 1364.48 1537.74 1364.48L1452.22 1363.33 1452.22 1456.93C1452.22 1462.29 1452.79 1466.78 1453.94 1470.42 1455.09 1474.06 1456.81 1476.83 1459.1 1478.75 1461.4 1480.66 1464.56 1482.1 1468.58 1483.05 1472.59 1484.01 1477.47 1484.49 1483.21 1484.49L1519.38 1483.34 1519.38 1531 1296.66 1531 1296.66 1483.91 1326.51 1483.91C1327.27 1484.3 1328.04 1484.49 1328.81 1484.49 1329.57 1484.49 1330.14 1484.49 1330.53 1484.49 1335.12 1484.49 1339.14 1484.01 1342.58 1483.05 1346.03 1482.1 1348.7 1480.66 1350.62 1478.75 1352.91 1476.83 1354.64 1474.15 1355.78 1470.71 1356.93 1467.26 1357.51 1463.05 1357.51 1458.07L1357.51 1222.65C1357.51 1218.44 1356.93 1214.61 1355.78 1211.16 1354.64 1207.72 1352.91 1205.04 1350.62 1203.12 1348.32 1201.21 1345.16 1199.68 1341.15 1198.53 1337.13 1197.38 1332.25 1196.81 1326.51 1196.81L1296.66 1195.66ZM814.682 1148 901.931 1148 1021.32 1423.05C1022.09 1424.96 1022.66 1426.59 1023.05 1427.93 1023.43 1429.27 1024 1430.51 1024.77 1431.66 1025.15 1433.19 1025.63 1434.53 1026.2 1435.68 1026.78 1436.83 1027.26 1437.98 1027.64 1439.13 1028.4 1440.27 1028.98 1441.42 1029.36 1442.57 1029.74 1443.72 1030.32 1444.87 1031.08 1446.02 1031.46 1447.17 1031.94 1448.22 1032.52 1449.17 1033.09 1450.13 1033.57 1450.99 1033.95 1451.76 1037.01 1457.5 1040.36 1462.48 1044 1466.69 1047.63 1470.9 1051.36 1474.15 1055.19 1476.45 1059.4 1479.13 1064.66 1481.04 1070.98 1482.19 1077.29 1483.34 1085.04 1483.91 1094.22 1483.91L1094.22 1531 881.841 1531 881.841 1482.77 901.931 1482.77C902.696 1483.15 903.27 1483.34 903.653 1483.34 904.035 1483.34 904.609 1483.34 905.375 1483.34 905.757 1483.34 906.236 1483.34 906.81 1483.34 907.384 1483.34 907.862 1483.34 908.245 1483.34 912.454 1483.34 916.089 1483.05 919.151 1482.48 922.212 1481.9 924.891 1481.24 927.187 1480.47 929.866 1479.32 931.875 1477.79 933.214 1475.88 934.553 1473.96 935.223 1471.66 935.223 1468.98 935.223 1467.07 935.032 1465.06 934.649 1462.96 934.266 1460.85 933.692 1458.46 932.927 1455.78 932.162 1453.48 931.301 1451.09 930.344 1448.6 929.387 1446.11 928.526 1443.53 927.761 1440.85 927.378 1440.08 926.996 1439.32 926.613 1438.55 926.23 1437.79 925.848 1437.02 925.465 1436.26 925.082 1435.49 924.7 1434.72 924.317 1433.96 923.934 1433.19 923.552 1432.24 923.169 1431.09 922.404 1429.17 921.638 1427.35 920.873 1425.63 920.108 1423.91 919.342 1422.28 918.577 1420.75 917.812 1418.84 917.142 1417.21 916.568 1415.87 915.994 1414.53 915.324 1413.1 914.559 1411.56L914.559 1410.42 771.632 1410.42C771.249 1411.56 770.866 1412.52 770.483 1413.29 770.101 1414.05 769.909 1414.82 769.909 1415.58 769.527 1416.73 769.144 1417.69 768.761 1418.45 768.379 1419.22 767.996 1419.99 767.614 1420.75 767.231 1422.28 766.753 1423.81 766.178 1425.34 765.604 1426.88 764.935 1428.41 764.169 1429.94 763.787 1431.09 763.309 1432.24 762.734 1433.38 762.16 1434.53 761.682 1435.68 761.299 1436.83 760.917 1437.21 760.63 1437.69 760.438 1438.26 760.247 1438.84 760.151 1439.32 760.151 1439.7 759.769 1440.47 759.482 1441.04 759.29 1441.42 759.099 1441.81 759.003 1442.38 759.003 1443.15 757.855 1445.44 756.994 1447.74 756.42 1450.04 755.846 1452.33 755.177 1454.63 754.411 1456.93 754.029 1459.22 753.646 1461.52 753.263 1463.82 752.88 1466.11 752.689 1468.22 752.689 1470.13 752.689 1472.81 753.168 1475.21 754.124 1477.31 755.081 1479.42 756.707 1480.85 759.003 1481.62 760.917 1482.38 764.074 1482.96 768.475 1483.34 772.875 1483.72 778.328 1483.91 784.834 1483.91L801.48 1482.77 801.48 1531 631 1531 631 1482.77C631.383 1483.15 631.861 1483.34 632.435 1483.34 633.009 1483.34 633.487 1483.34 633.87 1483.34 634.253 1483.34 634.731 1483.34 635.305 1483.34 635.879 1483.34 636.357 1483.34 636.74 1483.34 642.863 1483.34 648.507 1482.96 653.673 1482.19 658.839 1481.43 663.336 1480.28 667.163 1478.75 671.372 1476.83 675.39 1473.58 679.217 1468.98 683.043 1464.39 686.679 1458.46 690.123 1451.18 690.888 1449.27 691.653 1447.45 692.419 1445.73 693.184 1444.01 693.949 1442.38 694.715 1440.85 695.097 1440.08 695.48 1439.32 695.863 1438.55 696.245 1437.79 696.628 1436.83 697.011 1435.68 697.393 1434.92 697.776 1434.15 698.159 1433.38 698.542 1432.62 698.924 1431.85 699.307 1431.09 699.307 1430.7 699.307 1430.42 699.307 1430.23 699.307 1430.03 699.498 1429.75 699.881 1429.36 699.881 1429.36 699.976 1429.27 700.168 1429.08 700.359 1428.89 700.455 1428.6 700.455 1428.22 700.455 1427.83 700.551 1427.45 700.742 1427.07 700.933 1426.68 701.22 1426.3 701.603 1425.92 702.368 1424.77 702.942 1423.72 703.325 1422.76 703.708 1421.8 704.281 1420.75 705.047 1419.6 705.43 1418.84 705.908 1417.88 706.482 1416.73 707.056 1415.58 707.534 1414.43 707.917 1413.29 709.065 1411.37 710.117 1409.27 711.074 1406.97 712.03 1404.67 712.891 1402.38 713.657 1400.08Z" fill="#E8F5E9" fill-rule="evenodd"/></g></svg>