<?xml version="1.0" encoding="UTF-8"?>
<svg width="150px" height="150px" viewBox="0 0 150 150" version="1.1" xmlns="http://www.w3.org/2000/svg" xmlns:xlink="http://www.w3.org/1999/xlink">
    <g id="Artboard" stroke="none" stroke-width="1" fill="none" fill-rule="evenodd">
        <rect id="Rectangle" fill="#112B49" fill-rule="nonzero" x="0" y="0" width="150" height="150" rx="8"></rect>
        <path d="M92.6241406,102.627359 L107.734297,102.627359 L83.6132812,40.0265781 L66.9067969,40.0265781 L42.7857812,102.627359 L57.8970312,102.627359 L61.8389062,92.0234531 L84.6299219,92.0234531 L80.5042969,80.2897031 L65.4980469,80.2897031 L75.2597656,53.3539219 L92.6241406,102.627359 Z M142.451016,56.279375 C141.913984,54.345625 139.916797,53.2097656 137.974844,53.7489844 C136.040547,54.2860156 134.906875,56.2897656 135.443906,58.2240625 C136.960391,63.6846094 137.72875,69.3289063 137.72875,75 C137.72875,109.58875 109.58875,137.727656 75,137.727656 C40.41125,137.727656 12.2717969,109.58875 12.2717969,75 C12.2717969,40.4107031 40.41125,12.27125 75,12.27125 C89.6524219,12.27125 103.830156,17.4764063 115.019766,26.739375 C114.584453,27.7784375 114.342734,28.9186719 114.342734,30.1152344 C114.342734,34.946875 118.259453,38.8635937 123.091094,38.8635937 C127.922734,38.8635937 131.839453,34.946875 131.839453,30.1152344 C131.839453,25.2835938 127.922734,21.366875 123.091094,21.366875 C122.160859,21.366875 121.265625,21.5150781 120.424531,21.7841406 C107.824531,11.04625 91.6867969,5 75,5 C36.4021094,5 5,36.4015625 5,75 C5,113.597891 36.4021094,144.999453 75,144.999453 C113.597891,144.999453 145,113.597891 145,75 C145,68.6715625 144.143047,62.3726562 142.451016,56.279375 Z" id="Shape" fill="#FFFFFF" fill-rule="nonzero"></path>
    </g>
</svg>
