<svg xmlns="http://www.w3.org/2000/svg" viewBox="0 0 32 32">
  <path d="M31.9297,14.457A.50836.50836,0,0,0,31.42392,14H29.41327a.49681.49681,0,0,0-.4906.55878q.0073.06715.0139.13442c.61675,6.28386-4.09663,12.81637-10.29016,14.04415A13.009,13.009,0,1,1,24.3,6h4.19a16.01335,16.01335,0,1,0,3.43971,8.457Z" style="fill: #7e57c2"/>
  <circle cx="24.53333" cy="4.26667" r="4.26667" style="fill: #7e57c2"/>
  <polygon points="17 8 14 8 8 24 11 24 17 8" style="fill: #7e57c2"/>
  <polygon points="15 8 18 8 24 24 21 24 15 8" style="fill: #7e57c2"/>
  <polygon points="17.88 21 12 21 12 18 16.75 18 17.88 21" style="fill: #7e57c2"/>
</svg>
