<svg xmlns="http://www.w3.org/2000/svg" viewBox="0 0 32 32">
  <path d="M25.42529,26.49837c-1.16192,1.73589-2.39384,3.42978-4.26972,3.45777-1.87587.042-2.47783-1.10592-4.60569-1.10592-2.14186,0-2.79982,1.07793-4.5777,1.14792-1.83388.07-3.21979-1.84788-4.39571-3.54177C5.18263,22.9986,3.34875,16.629,5.81259,12.34531a6.83733,6.83733,0,0,1,5.76762-3.51377c1.79188-.028,3.49976,1.21792,4.60569,1.21792,1.09193,0,3.16379-1.4979,5.33365-1.27391a6.50073,6.50073,0,0,1,5.09566,2.77182,6.37708,6.37708,0,0,0-3.0098,5.33364,6.17781,6.17781,0,0,0,3.75175,5.65563,15.4733,15.4733,0,0,1-1.93187,3.96173M17.43182,4.09986A6.36391,6.36391,0,0,1,21.54754,2a6.12626,6.12626,0,0,1-1.4559,4.4657,5.11094,5.11094,0,0,1-4.12972,1.98787A5.983,5.983,0,0,1,17.43182,4.09986Z" style="fill: #78909c"/>
</svg>
