<svg xmlns="http://www.w3.org/2000/svg" viewBox="0 0 32 32">
  <g>
    <path d="M6.053,20.05474H21.2104A3.00817,3.00817,0,0,1,24.259,23.02079h0a3.00816,3.00816,0,0,1-3.04858,2.966H6.053a3.00815,3.00815,0,0,1-3.04857-2.966h0A3.00816,3.00816,0,0,1,6.053,20.05474Z" style="fill: #f44336"/>
    <path d="M19.44091,25.43332,7.17833,16.7652a2.91436,2.91436,0,0,1-.67444-4.143h0a3.1039,3.1039,0,0,1,4.25825-.65618l12.26259,8.66812a2.91438,2.91438,0,0,1,.67444,4.143h0A3.10391,3.10391,0,0,1,19.44091,25.43332Z" style="fill: #ffc107"/>
    <path d="M19.48852,8.05068,24.17241,22.076a2.95,2.95,0,0,1-1.95731,3.73744h0a3.0671,3.0671,0,0,1-3.84142-1.90432L13.68979,9.88379a2.95,2.95,0,0,1,1.9573-3.73744h0A3.06711,3.06711,0,0,1,19.48852,8.05068Z" style="fill: #43a047"/>
    <path d="M18.36291,22.0756,23.0468,8.05029A3.0671,3.0671,0,0,1,26.88822,6.146h0a2.95,2.95,0,0,1,1.95731,3.73744L24.16164,23.90872A3.0671,3.0671,0,0,1,20.32021,25.813h0A2.95,2.95,0,0,1,18.36291,22.0756Z" style="fill: #448aff"/>
  </g>
</svg>
