<?xml version="1.0" encoding="UTF-8"?>
<svg width="24" height="24" version="1.1" viewBox="0 0 24 24" xmlns="http://www.w3.org/2000/svg">
 <path d="m12 2c-0.083768 0-0.16492 0.0077281-0.24805 0.0097656a10 10 0 0 0 -0.26562 0.0097656c-0.25434 0.01294-0.50562 0.034735-0.75391 0.066406a10 10 0 0 0 -0.14844 0.017578c-0.31479 0.044988-0.62473 0.10376-0.92969 0.17773a10 10 0 0 0 -0.070312 0.019531c-0.19593 0.049063-0.39213 0.09957-0.58398 0.16016v0.011719a10 10 0 0 0 -2 0.875v-0.0078124c-0.020423 0.011777-0.038264 0.027146-0.058594 0.039062a10 10 0 0 0 -0.95312 0.63477c-0.089754 0.067478-0.17242 0.14251-0.25977 0.21289a10 10 0 0 0 -0.62891 0.54688c-0.10818 0.10312-0.21102 0.21054-0.31445 0.31836a10 10 0 0 0 -0.47656 0.53906c-0.099463 0.11983-0.20109 0.23688-0.29492 0.36133a10 10 0 0 0 -0.51953 0.76562c-0.088216 0.14283-0.17088 0.28807-0.25195 0.43555a10 10 0 0 0 -0.36328 0.72266c-0.072243 0.16128-0.13542 0.32651-0.19922 0.49219a10 10 0 0 0 -0.26953 0.77734c-0.019592 0.066988-0.04428 0.13166-0.0625 0.19922a10 10 0 0 0 -0.0078124 0.027344c-0.097612 0.36429-0.16556 0.72753-0.2207 1.0898-0.011534 0.076908-0.023426 0.153-0.033203 0.23047-0.050718 0.39564-0.077193 0.78915-0.080078 1.1816-2.479e-4 0.0291-0.0058594 0.056782-0.0058594 0.085938a10 10 0 0 0 0.0078125 0.14844c0.0015095 0.093517-0.0021624 0.18794 0.0019531 0.28125l0.011719 0.003906a10 10 0 0 0 0.33203 2.1582l-0.011719-0.003906c0.012662 0.047353 0.03353 0.091555 0.046875 0.13867a10 10 0 0 0 0.32227 0.95508c0.020703 0.05232 0.037026 0.10627 0.058594 0.1582a10 10 0 0 0 0.50391 1.0352c0.064892 0.11642 0.13952 0.22612 0.20898 0.33984a10 10 0 0 0 0.42383 0.64062c0.092096 0.1276 0.18705 0.25177 0.28516 0.375a10 10 0 0 0 0.44727 0.51953c0.11278 0.12324 0.22268 0.24756 0.3418 0.36523a10 10 0 0 0 0.80273 0.71875 10 10 0 0 0 0.0097657 0.00586c0.098808 0.078223 0.20653 0.14606 0.30859 0.2207a10 10 0 0 0 0.64844 0.44141c0.13827 0.085216 0.28064 0.16339 0.42383 0.24219a10 10 0 0 0 0.71484 0.35742c0.11472 0.051615 0.2264 0.10675 0.34375 0.1543a10 10 0 0 0 1.1328 0.38867c0.016109 0.004401 0.030726 0.011298 0.046875 0.015625a10 10 0 0 0 0.46094 0.097656 10 10 0 0 0 0.48242 0.10352 10 10 0 0 0 0.41797 0.050781 10 10 0 0 0 0.57422 0.064453 10 10 0 0 0 0.14453 0.00586 10 10 0 0 0 0.50781 0.017578 10 10 0 0 0 0.19727 -0.009766 10 10 0 0 0 0.49609 -0.02539 10 10 0 0 0 0.49024 -0.042969 10 10 0 0 0 0.48828 -0.074219 10 10 0 0 0 0.50977 -0.097656 10 10 0 0 0 0.4707 -0.11914 10 10 0 0 0 0.47656 -0.14062 10 10 0 0 0 0.4707 -0.17188 10 10 0 0 0 0.48047 -0.19726 10 10 0 0 0 0.41406 -0.20117 10 10 0 0 0 0.47461 -0.25195 10 10 0 0 0 0.39062 -0.23828 10 10 0 0 0 0.45117 -0.30078 10 10 0 0 0 0.38086 -0.29102 10 10 0 0 0 0.38477 -0.31445 10 10 0 0 0 0.375 -0.34766 10 10 0 0 0 0.35938 -0.36328 10 10 0 0 0 0.29297 -0.33398 10 10 0 0 0 0.35352 -0.43359 10 10 0 0 0 0.2793 -0.39258 10 10 0 0 0 0.26367 -0.40039 10 10 0 0 0 0.26367 -0.46094 10 10 0 0 0 0.22852 -0.43555 10 10 0 0 0 0.19531 -0.4375 10 10 0 0 0 0.19531 -0.48047 10 10 0 0 0 0.22852 -0.68945 10 10 0 0 0 0.027344 -0.09375 10 10 0 0 0 0.021484 -0.066406 10 10 0 0 0 0.097656 -0.46094 10 10 0 0 0 0.10352 -0.48242 10 10 0 0 0 0.050781 -0.41797 10 10 0 0 0 0.064453 -0.57422 10 10 0 0 0 0.00586 -0.14453 10 10 0 0 0 0.017578 -0.50781 10 10 0 0 0 -0.009766 -0.19727 10 10 0 0 0 -0.02539 -0.49609 10 10 0 0 0 -0.042969 -0.49024 10 10 0 0 0 -0.074219 -0.48828 10 10 0 0 0 -0.097656 -0.50977 10 10 0 0 0 -0.11914 -0.4707 10 10 0 0 0 -0.14062 -0.47656 10 10 0 0 0 -0.17188 -0.4707 10 10 0 0 0 -0.19726 -0.48047 10 10 0 0 0 -0.20117 -0.41406 10 10 0 0 0 -0.25195 -0.47461 10 10 0 0 0 -0.23828 -0.39062 10 10 0 0 0 -0.30078 -0.45117 10 10 0 0 0 -0.29102 -0.38086 10 10 0 0 0 -0.31445 -0.38477 10 10 0 0 0 -0.34766 -0.375 10 10 0 0 0 -0.36328 -0.35938 10 10 0 0 0 -0.33398 -0.29297 10 10 0 0 0 -0.43359 -0.35352 10 10 0 0 0 -0.39258 -0.2793 10 10 0 0 0 -0.40039 -0.26367 10 10 0 0 0 -0.46094 -0.26367 10 10 0 0 0 -0.43555 -0.22852 10 10 0 0 0 -0.4375 -0.19531 10 10 0 0 0 -0.48047 -0.19531 10 10 0 0 0 -0.68945 -0.22852 10 10 0 0 0 -0.09375 -0.027344 10 10 0 0 0 -0.066406 -0.021484 10 10 0 0 0 -0.46094 -0.097656 10 10 0 0 0 -0.48242 -0.10352 10 10 0 0 0 -0.41797 -0.050781 10 10 0 0 0 -0.57422 -0.064453 10 10 0 0 0 -0.14453 -0.0058594 10 10 0 0 0 -0.50781 -0.017578zm-0.015625 5.002a5 5 0 0 1 0.26172 0.0097657 5 5 0 0 1 0.22656 0.011719 5 5 0 0 1 0.3418 0.048828 5 5 0 0 1 0.13477 0.019531 5 5 0 0 1 0.013672 0.0039062 5 5 0 0 1 0.11523 0.025391 5 5 0 0 1 0.30273 0.076172 5 5 0 0 1 0.26562 0.085938 5 5 0 0 1 0.19922 0.074219 5 5 0 0 1 0.24219 0.10547 5 5 0 0 1 0.22852 0.10938 5 5 0 0 1 0.19531 0.10938 5 5 0 0 1 0.24414 0.15039 5 5 0 0 1 0.16992 0.11914 5 5 0 0 1 0.22461 0.17188 5 5 0 0 1 0.18555 0.16016 5 5 0 0 1 0.17578 0.16406 5 5 0 0 1 0.17188 0.17969 5 5 0 0 1 0.17773 0.20312 5 5 0 0 1 0.13281 0.17188 5 5 0 0 1 0.16016 0.22266 5 5 0 0 1 0.13281 0.21484 5 5 0 0 1 0.11914 0.20898 5 5 0 0 1 0.10742 0.2168 5 5 0 0 1 0.10938 0.24023 5 5 0 0 1 0.083984 0.22266 5 5 0 0 1 0.080078 0.24219 5 5 0 0 1 0.070313 0.26367 5 5 0 0 1 0.046875 0.20703 5 5 0 0 1 0.044922 0.27734 5 5 0 0 1 0.027343 0.22656 5 5 0 0 1 0.019532 0.35156 5 5 0 0 1 0.003906 0.078125 5 5 0 0 1 -0.011719 0.27148 5 5 0 0 1 -0.011719 0.22656 5 5 0 0 1 -0.048828 0.3418 5 5 0 0 1 -0.019531 0.13477 5 5 0 0 1 -0.003906 0.013672 5 5 0 0 1 -0.025391 0.11523 5 5 0 0 1 -0.076172 0.30273 5 5 0 0 1 -0.085937 0.26562 5 5 0 0 1 -0.074219 0.19922 5 5 0 0 1 -0.10547 0.24219 5 5 0 0 1 -0.10938 0.22852 5 5 0 0 1 -0.10938 0.19531 5 5 0 0 1 -0.15039 0.24414 5 5 0 0 1 -0.11914 0.16992 5 5 0 0 1 -0.17188 0.22461 5 5 0 0 1 -0.16016 0.18555 5 5 0 0 1 -0.16406 0.17578 5 5 0 0 1 -0.17969 0.17188 5 5 0 0 1 -0.20312 0.17773c-6.92e-4 7.18e-4 -0.00126 0.001235-0.001953 0.001953-0.017751 0.018375-0.0284 0.03426-0.046875 0.052735l-3.959 5.0898-3.0508-0.97852c1.102-1.0326 2.1436-2.053 3.1777-3.084a5 5 0 0 1 -0.10352 -0.015625 5 5 0 0 1 -0.14844 -0.023437 5 5 0 0 1 -0.11523 -0.025391 5 5 0 0 1 -3.5703 -3.0391c-0.085013-0.21478-0.15008-0.43739-0.20508-0.66211a5 5 0 0 1 -0.033203 -0.14648c-0.025169-0.11817-0.036639-0.2395-0.054687-0.35938-0.98701 0.99178-1.9633 1.9925-2.9531 3.0488l-0.98047-3.0527 5.0918-3.957c0.043618-0.043618 0.082214-0.069972 0.125-0.10938a5 5 0 0 1 0.71094 -0.63477c0.17875-0.1307 0.36589-0.24913 0.56055-0.35547a5 5 0 0 1 0.16016 -0.080078c0.16704-0.083599 0.33876-0.15802 0.51562-0.22266a5 5 0 0 1 0.14648 -0.056641c0.21185-0.069817 0.43067-0.12302 0.6543-0.16406a5 5 0 0 1 0.17188 -0.027344c0.23579-0.034783 0.47637-0.05783 0.72266-0.058594zm0.015625 1.998a3 3 0 0 0 -0.052734 0.0019531 3 3 0 0 0 -0.16602 0.0097657 3 3 0 0 0 -0.13281 0.011719 3 3 0 0 0 -0.16992 0.025391 3 3 0 0 0 -0.11328 0.021484 3 3 0 0 0 -0.18945 0.048828 3 3 0 0 0 -0.10352 0.03125 3 3 0 0 0 -0.16016 0.056641 3 3 0 0 0 -0.12891 0.052734 3 3 0 0 0 -0.14648 0.072266 3 3 0 0 0 -0.11914 0.0625 3 3 0 0 0 -0.13281 0.082031 3 3 0 0 0 -0.12305 0.080078 3 3 0 0 0 -0.11524 0.087891 3 3 0 0 0 -0.12695 0.10547 3 3 0 0 0 -0.099609 0.09375 3 3 0 0 0 -0.11133 0.11133 3 3 0 0 0 -0.095703 0.10742 3 3 0 0 0 -0.09375 0.11523 3 3 0 0 0 -0.097656 0.13672 3 3 0 0 0 -0.072266 0.10938 3 3 0 0 0 -0.076172 0.13281 3 3 0 0 0 -0.070312 0.13281 3 3 0 0 0 -0.0625 0.13867 3 3 0 0 0 -0.054688 0.14062 3 3 0 0 0 -0.076172 0.22852 3 3 0 0 0 -0.0078125 0.02539 3 3 0 0 0 -0.029297 0.13867 3 3 0 0 0 -0.03125 0.14844 3 3 0 0 0 -0.013672 0.10938 3 3 0 0 0 -0.019531 0.18359 3 3 0 0 0 -0.0019531 0.052735 3 3 0 0 0 -0.0058594 0.14453 3 3 0 0 0 0.0019531 0.052734 3 3 0 0 0 0.0097657 0.16602 3 3 0 0 0 0.011719 0.13281 3 3 0 0 0 0.025391 0.16992 3 3 0 0 0 0.021484 0.11328 3 3 0 0 0 0.048828 0.18945 3 3 0 0 0 0.03125 0.10352 3 3 0 0 0 0.056641 0.16016 3 3 0 0 0 0.052734 0.12891 3 3 0 0 0 0.072266 0.14648 3 3 0 0 0 0.0625 0.11914 3 3 0 0 0 0.082031 0.13281 3 3 0 0 0 0.080078 0.12305 3 3 0 0 0 0.087891 0.11524 3 3 0 0 0 0.10547 0.12695 3 3 0 0 0 0.09375 0.099609 3 3 0 0 0 0.11133 0.11133 3 3 0 0 0 0.10742 0.095703 3 3 0 0 0 0.11523 0.09375 3 3 0 0 0 0.13672 0.097657 3 3 0 0 0 0.10938 0.072265 3 3 0 0 0 0.13281 0.076172 3 3 0 0 0 0.13281 0.070313 3 3 0 0 0 0.13477 0.060546 3 3 0 0 0 0.15234 0.060547 3 3 0 0 0 0.2168 0.070313 3 3 0 0 0 0.003907 0.001953 3 3 0 0 0 0.02539 0.007813 3 3 0 0 0 0.13867 0.029296 3 3 0 0 0 0.14844 0.03125 3 3 0 0 0 0.10938 0.013672 3 3 0 0 0 0.18359 0.019532 3 3 0 0 0 0.011719 0.001953 3 3 0 0 0 0.041016 0 3 3 0 0 0 0.14453 0.005859 3 3 0 0 0 0.052734 -0.001953 3 3 0 0 0 0.16602 -0.009766 3 3 0 0 0 0.13281 -0.011719 3 3 0 0 0 0.16992 -0.02539 3 3 0 0 0 0.11328 -0.021484 3 3 0 0 0 0.18945 -0.048829 3 3 0 0 0 0.10352 -0.03125 3 3 0 0 0 0.16016 -0.05664 3 3 0 0 0 0.12891 -0.052735 3 3 0 0 0 0.14648 -0.072265 3 3 0 0 0 0.11914 -0.0625 3 3 0 0 0 0.13281 -0.082031 3 3 0 0 0 0.12305 -0.080079 3 3 0 0 0 0.11524 -0.08789 3 3 0 0 0 0.12695 -0.10547 3 3 0 0 0 0.099609 -0.09375 3 3 0 0 0 0.11133 -0.11133 3 3 0 0 0 0.095703 -0.10742 3 3 0 0 0 0.09375 -0.11523 3 3 0 0 0 0.097657 -0.13672 3 3 0 0 0 0.072265 -0.10938 3 3 0 0 0 0.076172 -0.13281 3 3 0 0 0 0.070313 -0.13281 3 3 0 0 0 0.060546 -0.13477 3 3 0 0 0 0.060547 -0.15234 3 3 0 0 0 0.070313 -0.2168 3 3 0 0 0 0.001953 -0.003907 3 3 0 0 0 0.007813 -0.02539 3 3 0 0 0 0.029296 -0.13867 3 3 0 0 0 0.03125 -0.14844 3 3 0 0 0 0.001954 -0.007812 3 3 0 0 0 0.011718 -0.10156 3 3 0 0 0 0.019532 -0.18359 3 3 0 0 0 0.001953 -0.011719 3 3 0 0 0 0 -0.041016 3 3 0 0 0 0.005859 -0.14453 3 3 0 0 0 -0.001953 -0.052734 3 3 0 0 0 -0.009766 -0.16602 3 3 0 0 0 -0.011719 -0.13281 3 3 0 0 0 -0.02539 -0.16992 3 3 0 0 0 -0.021484 -0.11328 3 3 0 0 0 -0.048829 -0.18945 3 3 0 0 0 -0.03125 -0.10352 3 3 0 0 0 -0.05664 -0.16016 3 3 0 0 0 -0.052735 -0.12891 3 3 0 0 0 -0.072265 -0.14648 3 3 0 0 0 -0.0625 -0.11914 3 3 0 0 0 -0.082031 -0.13281 3 3 0 0 0 -0.080079 -0.12305 3 3 0 0 0 -0.08789 -0.11524 3 3 0 0 0 -0.10547 -0.12695 3 3 0 0 0 -0.09375 -0.099609 3 3 0 0 0 -0.11133 -0.11133 3 3 0 0 0 -0.10742 -0.095703 3 3 0 0 0 -0.11523 -0.09375 3 3 0 0 0 -0.13672 -0.097656 3 3 0 0 0 -0.10938 -0.072266 3 3 0 0 0 -0.13281 -0.076172 3 3 0 0 0 -0.13281 -0.070312 3 3 0 0 0 -0.13867 -0.0625 3 3 0 0 0 -0.14062 -0.054688 3 3 0 0 0 -0.22852 -0.076172 3 3 0 0 0 -0.02539 -0.0078125 3 3 0 0 0 -0.13867 -0.029297 3 3 0 0 0 -0.14844 -0.03125 3 3 0 0 0 -0.007812 -0.0019531 3 3 0 0 0 -0.10156 -0.011719 3 3 0 0 0 -0.18359 -0.019531 3 3 0 0 0 -0.011719 -0.0019531 3 3 0 0 0 -0.041016 0 3 3 0 0 0 -0.14453 -0.0058594z" fill="#42a5f5"/>
</svg>
