<?xml version="1.0" encoding="UTF-8" standalone="no"?>
<svg
   xmlns:dc="http://purl.org/dc/elements/1.1/"
   xmlns:cc="http://creativecommons.org/ns#"
   xmlns:rdf="http://www.w3.org/1999/02/22-rdf-syntax-ns#"
   xmlns:svg="http://www.w3.org/2000/svg"
   xmlns="http://www.w3.org/2000/svg"
   xmlns:sodipodi="http://sodipodi.sourceforge.net/DTD/sodipodi-0.dtd"
   xmlns:inkscape="http://www.inkscape.org/namespaces/inkscape"
   version="1.1"
   width="24"
   height="24"
   viewBox="0 0 24 24"
   id="svg4"
   sodipodi:docname="appveyor.svg"
   inkscape:version="0.92.1 r15371">
  <metadata
     id="metadata10">
    <rdf:RDF>
      <cc:Work
         rdf:about="">
        <dc:format>image/svg+xml</dc:format>
        <dc:type
           rdf:resource="http://purl.org/dc/dcmitype/StillImage" />
      </cc:Work>
    </rdf:RDF>
  </metadata>
  <defs
     id="defs8" />
  <sodipodi:namedview
     pagecolor="#ffffff"
     bordercolor="#666666"
     borderopacity="1"
     objecttolerance="10"
     gridtolerance="10"
     guidetolerance="10"
     inkscape:pageopacity="0"
     inkscape:pageshadow="2"
     inkscape:window-width="1366"
     inkscape:window-height="705"
     id="namedview6"
     showgrid="false"
     inkscape:zoom="19.666667"
     inkscape:cx="10.581685"
     inkscape:cy="11.625095"
     inkscape:window-x="-8"
     inkscape:window-y="-8"
     inkscape:window-maximized="1"
     inkscape:current-layer="svg4" />
  <path
     style="fill:#42a5f5;fill-opacity:1"
     d="M 12 2 C 11.916232 2 11.835085 2.0077281 11.751953 2.0097656 A 10 10 0 0 0 11.486328 2.0195312 C 11.231983 2.0324709 10.98071 2.0542664 10.732422 2.0859375 A 10 10 0 0 0 10.583984 2.1035156 C 10.269193 2.148504 9.9592575 2.2072719 9.6542969 2.28125 A 10 10 0 0 0 9.5839844 2.3007812 C 9.3880504 2.3498439 9.1918554 2.4003516 9 2.4609375 L 9 2.4726562 A 10 10 0 0 0 7 3.3476562 L 7 3.3398438 C 6.9795769 3.351621 6.9617364 3.3669903 6.9414062 3.3789062 A 10 10 0 0 0 5.9882812 4.0136719 C 5.8985269 4.0811497 5.8158565 4.1561848 5.7285156 4.2265625 A 10 10 0 0 0 5.0996094 4.7734375 C 4.9914297 4.8765545 4.8885855 4.9839794 4.7851562 5.0917969 A 10 10 0 0 0 4.3085938 5.6308594 C 4.2091307 5.7506922 4.1075068 5.8677365 4.0136719 5.9921875 A 10 10 0 0 0 3.4941406 6.7578125 C 3.4059247 6.9006384 3.3232655 7.0458777 3.2421875 7.1933594 A 10 10 0 0 0 2.8789062 7.9160156 C 2.8066635 8.0772984 2.7434843 8.2425238 2.6796875 8.4082031 A 10 10 0 0 0 2.4101562 9.1855469 C 2.3905645 9.2525351 2.3658767 9.3172019 2.3476562 9.3847656 A 10 10 0 0 0 2.3398438 9.4121094 C 2.2422319 9.7764011 2.1742813 10.139638 2.1191406 10.501953 C 2.1076064 10.578861 2.0957145 10.65495 2.0859375 10.732422 C 2.0352196 11.128064 2.0087448 11.521575 2.0058594 11.914062 C 2.0056115 11.943162 2 11.970844 2 12 A 10 10 0 0 0 2.0078125 12.148438 C 2.009322 12.241955 2.0056501 12.33638 2.0097656 12.429688 L 2.0214844 12.433594 A 10 10 0 0 0 2.3535156 14.591797 L 2.3417969 14.587891 C 2.3544593 14.635244 2.3753273 14.679446 2.3886719 14.726562 A 10 10 0 0 0 2.7109375 15.681641 C 2.7316402 15.733961 2.7479632 15.787911 2.7695312 15.839844 A 10 10 0 0 0 3.2734375 16.875 C 3.3383295 16.991425 3.4129536 17.101124 3.4824219 17.214844 A 10 10 0 0 0 3.90625 17.855469 C 3.9983464 17.983071 4.0932966 18.107242 4.1914062 18.230469 A 10 10 0 0 0 4.6386719 18.75 C 4.751448 18.873235 4.8613531 18.997558 4.9804688 19.115234 A 10 10 0 0 0 5.7832031 19.833984 A 10 10 0 0 0 5.7929688 19.839844 C 5.8917768 19.918067 5.9995005 19.985903 6.1015625 20.060547 A 10 10 0 0 0 6.75 20.501953 C 6.8882676 20.587169 7.0306443 20.665342 7.1738281 20.744141 A 10 10 0 0 0 7.8886719 21.101562 C 8.0033923 21.153177 8.1150679 21.208308 8.2324219 21.255859 A 10 10 0 0 0 9.3652344 21.644531 C 9.3813431 21.648932 9.3959609 21.655829 9.4121094 21.660156 A 10 10 0 0 0 9.8730469 21.757812 A 10 10 0 0 0 10.355469 21.861328 A 10 10 0 0 0 10.773438 21.912109 A 10 10 0 0 0 11.347656 21.976562 A 10 10 0 0 0 11.492188 21.982422 A 10 10 0 0 0 12 22 A 10 10 0 0 0 12.197266 21.990234 A 10 10 0 0 0 12.693359 21.964844 A 10 10 0 0 0 13.183594 21.921875 A 10 10 0 0 0 13.671875 21.847656 A 10 10 0 0 0 14.181641 21.75 A 10 10 0 0 0 14.652344 21.630859 A 10 10 0 0 0 15.128906 21.490234 A 10 10 0 0 0 15.599609 21.318359 A 10 10 0 0 0 16.080078 21.121094 A 10 10 0 0 0 16.494141 20.919922 A 10 10 0 0 0 16.96875 20.667969 A 10 10 0 0 0 17.359375 20.429688 A 10 10 0 0 0 17.810547 20.128906 A 10 10 0 0 0 18.191406 19.837891 A 10 10 0 0 0 18.576172 19.523438 A 10 10 0 0 0 18.951172 19.175781 A 10 10 0 0 0 19.310547 18.8125 A 10 10 0 0 0 19.603516 18.478516 A 10 10 0 0 0 19.957031 18.044922 A 10 10 0 0 0 20.236328 17.652344 A 10 10 0 0 0 20.5 17.251953 A 10 10 0 0 0 20.763672 16.791016 A 10 10 0 0 0 20.992188 16.355469 A 10 10 0 0 0 21.1875 15.917969 A 10 10 0 0 0 21.382812 15.4375 A 10 10 0 0 0 21.611328 14.748047 A 10 10 0 0 0 21.638672 14.654297 A 10 10 0 0 0 21.660156 14.587891 A 10 10 0 0 0 21.757812 14.126953 A 10 10 0 0 0 21.861328 13.644531 A 10 10 0 0 0 21.912109 13.226562 A 10 10 0 0 0 21.976562 12.652344 A 10 10 0 0 0 21.982422 12.507812 A 10 10 0 0 0 22 12 A 10 10 0 0 0 21.990234 11.802734 A 10 10 0 0 0 21.964844 11.306641 A 10 10 0 0 0 21.921875 10.816406 A 10 10 0 0 0 21.847656 10.328125 A 10 10 0 0 0 21.75 9.8183594 A 10 10 0 0 0 21.630859 9.3476562 A 10 10 0 0 0 21.490234 8.8710938 A 10 10 0 0 0 21.318359 8.4003906 A 10 10 0 0 0 21.121094 7.9199219 A 10 10 0 0 0 20.919922 7.5058594 A 10 10 0 0 0 20.667969 7.03125 A 10 10 0 0 0 20.429688 6.640625 A 10 10 0 0 0 20.128906 6.1894531 A 10 10 0 0 0 19.837891 5.8085938 A 10 10 0 0 0 19.523438 5.4238281 A 10 10 0 0 0 19.175781 5.0488281 A 10 10 0 0 0 18.8125 4.6894531 A 10 10 0 0 0 18.478516 4.3964844 A 10 10 0 0 0 18.044922 4.0429688 A 10 10 0 0 0 17.652344 3.7636719 A 10 10 0 0 0 17.251953 3.5 A 10 10 0 0 0 16.791016 3.2363281 A 10 10 0 0 0 16.355469 3.0078125 A 10 10 0 0 0 15.917969 2.8125 A 10 10 0 0 0 15.4375 2.6171875 A 10 10 0 0 0 14.748047 2.3886719 A 10 10 0 0 0 14.654297 2.3613281 A 10 10 0 0 0 14.587891 2.3398438 A 10 10 0 0 0 14.126953 2.2421875 A 10 10 0 0 0 13.644531 2.1386719 A 10 10 0 0 0 13.226562 2.0878906 A 10 10 0 0 0 12.652344 2.0234375 A 10 10 0 0 0 12.507812 2.0175781 A 10 10 0 0 0 12 2 z M 11.984375 7.0019531 A 5 5 0 0 1 12.246094 7.0117188 A 5 5 0 0 1 12.472656 7.0234375 A 5 5 0 0 1 12.814453 7.0722656 A 5 5 0 0 1 12.949219 7.0917969 A 5 5 0 0 1 12.962891 7.0957031 A 5 5 0 0 1 13.078125 7.1210938 A 5 5 0 0 1 13.380859 7.1972656 A 5 5 0 0 1 13.646484 7.2832031 A 5 5 0 0 1 13.845703 7.3574219 A 5 5 0 0 1 14.087891 7.4628906 A 5 5 0 0 1 14.316406 7.5722656 A 5 5 0 0 1 14.511719 7.6816406 A 5 5 0 0 1 14.755859 7.8320312 A 5 5 0 0 1 14.925781 7.9511719 A 5 5 0 0 1 15.150391 8.1230469 A 5 5 0 0 1 15.335938 8.2832031 A 5 5 0 0 1 15.511719 8.4472656 A 5 5 0 0 1 15.683594 8.6269531 A 5 5 0 0 1 15.861328 8.8300781 A 5 5 0 0 1 15.994141 9.0019531 A 5 5 0 0 1 16.154297 9.2246094 A 5 5 0 0 1 16.287109 9.4394531 A 5 5 0 0 1 16.40625 9.6484375 A 5 5 0 0 1 16.513672 9.8652344 A 5 5 0 0 1 16.623047 10.105469 A 5 5 0 0 1 16.707031 10.328125 A 5 5 0 0 1 16.787109 10.570312 A 5 5 0 0 1 16.857422 10.833984 A 5 5 0 0 1 16.904297 11.041016 A 5 5 0 0 1 16.949219 11.318359 A 5 5 0 0 1 16.976562 11.544922 A 5 5 0 0 1 16.996094 11.896484 A 5 5 0 0 1 17 11.974609 A 5 5 0 0 1 16.988281 12.246094 A 5 5 0 0 1 16.976562 12.472656 A 5 5 0 0 1 16.927734 12.814453 A 5 5 0 0 1 16.908203 12.949219 A 5 5 0 0 1 16.904297 12.962891 A 5 5 0 0 1 16.878906 13.078125 A 5 5 0 0 1 16.802734 13.380859 A 5 5 0 0 1 16.716797 13.646484 A 5 5 0 0 1 16.642578 13.845703 A 5 5 0 0 1 16.537109 14.087891 A 5 5 0 0 1 16.427734 14.316406 A 5 5 0 0 1 16.318359 14.511719 A 5 5 0 0 1 16.167969 14.755859 A 5 5 0 0 1 16.048828 14.925781 A 5 5 0 0 1 15.876953 15.150391 A 5 5 0 0 1 15.716797 15.335938 A 5 5 0 0 1 15.552734 15.511719 A 5 5 0 0 1 15.373047 15.683594 A 5 5 0 0 1 15.169922 15.861328 C 15.16923 15.862046 15.168662 15.862563 15.167969 15.863281 C 15.150218 15.881656 15.139569 15.897541 15.121094 15.916016 L 11.162109 21.005859 L 8.1113281 20.027344 C 9.2133512 18.994758 10.254897 17.974375 11.289062 16.943359 A 5 5 0 0 1 11.185547 16.927734 A 5 5 0 0 1 11.037109 16.904297 A 5 5 0 0 1 10.921875 16.878906 A 5 5 0 0 1 7.3515625 13.839844 C 7.2665491 13.625062 7.2014788 13.402452 7.1464844 13.177734 A 5 5 0 0 1 7.1132812 13.03125 C 7.0881126 12.913082 7.0766419 12.791748 7.0585938 12.671875 C 6.0715873 13.663652 5.0952705 14.664341 4.1054688 15.720703 L 3.125 12.667969 L 8.2167969 8.7109375 C 8.2604148 8.6673196 8.2990112 8.6409658 8.3417969 8.6015625 A 5 5 0 0 1 9.0527344 7.9667969 C 9.2314867 7.8360984 9.4186271 7.7176674 9.6132812 7.6113281 A 5 5 0 0 1 9.7734375 7.53125 C 9.9404779 7.4476508 10.112201 7.3732324 10.289062 7.3085938 A 5 5 0 0 1 10.435547 7.2519531 C 10.647401 7.1821357 10.866213 7.1289312 11.089844 7.0878906 A 5 5 0 0 1 11.261719 7.0605469 C 11.497512 7.0257636 11.73809 7.0027166 11.984375 7.0019531 z M 12 9 A 3 3 0 0 0 11.947266 9.0019531 A 3 3 0 0 0 11.78125 9.0117188 A 3 3 0 0 0 11.648438 9.0234375 A 3 3 0 0 0 11.478516 9.0488281 A 3 3 0 0 0 11.365234 9.0703125 A 3 3 0 0 0 11.175781 9.1191406 A 3 3 0 0 0 11.072266 9.1503906 A 3 3 0 0 0 10.912109 9.2070312 A 3 3 0 0 0 10.783203 9.2597656 A 3 3 0 0 0 10.636719 9.3320312 A 3 3 0 0 0 10.517578 9.3945312 A 3 3 0 0 0 10.384766 9.4765625 A 3 3 0 0 0 10.261719 9.5566406 A 3 3 0 0 0 10.146484 9.6445312 A 3 3 0 0 0 10.019531 9.75 A 3 3 0 0 0 9.9199219 9.84375 A 3 3 0 0 0 9.8085938 9.9550781 A 3 3 0 0 0 9.7128906 10.0625 A 3 3 0 0 0 9.6191406 10.177734 A 3 3 0 0 0 9.5214844 10.314453 A 3 3 0 0 0 9.4492188 10.423828 A 3 3 0 0 0 9.3730469 10.556641 A 3 3 0 0 0 9.3027344 10.689453 A 3 3 0 0 0 9.2402344 10.828125 A 3 3 0 0 0 9.1855469 10.96875 A 3 3 0 0 0 9.109375 11.197266 A 3 3 0 0 0 9.1015625 11.222656 A 3 3 0 0 0 9.0722656 11.361328 A 3 3 0 0 0 9.0410156 11.509766 A 3 3 0 0 0 9.0273438 11.619141 A 3 3 0 0 0 9.0078125 11.802734 A 3 3 0 0 0 9.0058594 11.855469 A 3 3 0 0 0 9 12 A 3 3 0 0 0 9.0019531 12.052734 A 3 3 0 0 0 9.0117188 12.21875 A 3 3 0 0 0 9.0234375 12.351562 A 3 3 0 0 0 9.0488281 12.521484 A 3 3 0 0 0 9.0703125 12.634766 A 3 3 0 0 0 9.1191406 12.824219 A 3 3 0 0 0 9.1503906 12.927734 A 3 3 0 0 0 9.2070312 13.087891 A 3 3 0 0 0 9.2597656 13.216797 A 3 3 0 0 0 9.3320312 13.363281 A 3 3 0 0 0 9.3945312 13.482422 A 3 3 0 0 0 9.4765625 13.615234 A 3 3 0 0 0 9.5566406 13.738281 A 3 3 0 0 0 9.6445312 13.853516 A 3 3 0 0 0 9.75 13.980469 A 3 3 0 0 0 9.84375 14.080078 A 3 3 0 0 0 9.9550781 14.191406 A 3 3 0 0 0 10.0625 14.287109 A 3 3 0 0 0 10.177734 14.380859 A 3 3 0 0 0 10.314453 14.478516 A 3 3 0 0 0 10.423828 14.550781 A 3 3 0 0 0 10.556641 14.626953 A 3 3 0 0 0 10.689453 14.697266 A 3 3 0 0 0 10.824219 14.757812 A 3 3 0 0 0 10.976562 14.818359 A 3 3 0 0 0 11.193359 14.888672 A 3 3 0 0 0 11.197266 14.890625 A 3 3 0 0 0 11.222656 14.898438 A 3 3 0 0 0 11.361328 14.927734 A 3 3 0 0 0 11.509766 14.958984 A 3 3 0 0 0 11.619141 14.972656 A 3 3 0 0 0 11.802734 14.992188 A 3 3 0 0 0 11.814453 14.994141 A 3 3 0 0 0 11.855469 14.994141 A 3 3 0 0 0 12 15 A 3 3 0 0 0 12.052734 14.998047 A 3 3 0 0 0 12.21875 14.988281 A 3 3 0 0 0 12.351562 14.976562 A 3 3 0 0 0 12.521484 14.951172 A 3 3 0 0 0 12.634766 14.929688 A 3 3 0 0 0 12.824219 14.880859 A 3 3 0 0 0 12.927734 14.849609 A 3 3 0 0 0 13.087891 14.792969 A 3 3 0 0 0 13.216797 14.740234 A 3 3 0 0 0 13.363281 14.667969 A 3 3 0 0 0 13.482422 14.605469 A 3 3 0 0 0 13.615234 14.523438 A 3 3 0 0 0 13.738281 14.443359 A 3 3 0 0 0 13.853516 14.355469 A 3 3 0 0 0 13.980469 14.25 A 3 3 0 0 0 14.080078 14.15625 A 3 3 0 0 0 14.191406 14.044922 A 3 3 0 0 0 14.287109 13.9375 A 3 3 0 0 0 14.380859 13.822266 A 3 3 0 0 0 14.478516 13.685547 A 3 3 0 0 0 14.550781 13.576172 A 3 3 0 0 0 14.626953 13.443359 A 3 3 0 0 0 14.697266 13.310547 A 3 3 0 0 0 14.757812 13.175781 A 3 3 0 0 0 14.818359 13.023438 A 3 3 0 0 0 14.888672 12.806641 A 3 3 0 0 0 14.890625 12.802734 A 3 3 0 0 0 14.898438 12.777344 A 3 3 0 0 0 14.927734 12.638672 A 3 3 0 0 0 14.958984 12.490234 A 3 3 0 0 0 14.960938 12.482422 A 3 3 0 0 0 14.972656 12.380859 A 3 3 0 0 0 14.992188 12.197266 A 3 3 0 0 0 14.994141 12.185547 A 3 3 0 0 0 14.994141 12.144531 A 3 3 0 0 0 15 12 A 3 3 0 0 0 14.998047 11.947266 A 3 3 0 0 0 14.988281 11.78125 A 3 3 0 0 0 14.976562 11.648438 A 3 3 0 0 0 14.951172 11.478516 A 3 3 0 0 0 14.929688 11.365234 A 3 3 0 0 0 14.880859 11.175781 A 3 3 0 0 0 14.849609 11.072266 A 3 3 0 0 0 14.792969 10.912109 A 3 3 0 0 0 14.740234 10.783203 A 3 3 0 0 0 14.667969 10.636719 A 3 3 0 0 0 14.605469 10.517578 A 3 3 0 0 0 14.523438 10.384766 A 3 3 0 0 0 14.443359 10.261719 A 3 3 0 0 0 14.355469 10.146484 A 3 3 0 0 0 14.25 10.019531 A 3 3 0 0 0 14.15625 9.9199219 A 3 3 0 0 0 14.044922 9.8085938 A 3 3 0 0 0 13.9375 9.7128906 A 3 3 0 0 0 13.822266 9.6191406 A 3 3 0 0 0 13.685547 9.5214844 A 3 3 0 0 0 13.576172 9.4492188 A 3 3 0 0 0 13.443359 9.3730469 A 3 3 0 0 0 13.310547 9.3027344 A 3 3 0 0 0 13.171875 9.2402344 A 3 3 0 0 0 13.03125 9.1855469 A 3 3 0 0 0 12.802734 9.109375 A 3 3 0 0 0 12.777344 9.1015625 A 3 3 0 0 0 12.638672 9.0722656 A 3 3 0 0 0 12.490234 9.0410156 A 3 3 0 0 0 12.482422 9.0390625 A 3 3 0 0 0 12.380859 9.0273438 A 3 3 0 0 0 12.197266 9.0078125 A 3 3 0 0 0 12.185547 9.0058594 A 3 3 0 0 0 12.144531 9.0058594 A 3 3 0 0 0 12 9 z "
     id="path2" />
</svg>
