<svg viewBox="0 0 24 24" fill="none" xmlns="http://www.w3.org/2000/svg">
  <path fill-rule="evenodd" clip-rule="evenodd"
    d="M12 22c5.523 0 10-4.477 10-10S17.523 2 12 2 2 6.477 2 12s4.477 10 10 10Zm-4.412-4.358.185 1.71 1.234-1.209 2.222-6.153a3.316 3.316 0 0 1-.71-.293 3.666 3.666 0 0 1-.648-.458l-2.283 6.403Zm7.405.501 1.234 1.21.185-1.71-2.283-6.404a3.109 3.109 0 0 1-1.358.75l2.222 6.154Zm-4.67-7.676c.467.473 1.03.71 1.687.71.658 0 1.22-.237 1.687-.71.466-.473.7-1.043.7-1.71 0-.543-.155-1.02-.463-1.43a2.346 2.346 0 0 0-1.163-.844V4.647H11.23v1.836c-.466.167-.85.452-1.152.855a2.302 2.302 0 0 0-.453 1.418c0 .668.234 1.238.7 1.71Zm2.294-1.106a.799.799 0 0 1-.607.25.807.807 0 0 1-.596-.25.83.83 0 0 1-.247-.605.83.83 0 0 1 .247-.605.807.807 0 0 1 .596-.25c.233 0 .432.08.597.24.164.16.247.365.247.615a.85.85 0 0 1-.237.605Z"
    fill="#66BB6A" />
</svg>