<svg xmlns="http://www.w3.org/2000/svg" viewBox="0 0 32 32">
  <rect x="2" y="14" width="10" height="2" style="fill: #00979c"/>
  <rect x="24" y="10" width="2" height="10" style="fill: #00979c"/>
  <rect x="20" y="14" width="10" height="2" style="fill: #00979c"/>
  <path d="M2,5H6A10,10,0,0,1,16,15v0A10,10,0,0,0,26,25h4" style="fill: none;stroke: #00979c;stroke-width: 2px"/>
  <g>
    <path d="M11.64417,22A8.95276,8.95276,0,0,1,6,24H2v2H6a10.98213,10.98213,0,0,0,8.47858-4Z" style="fill: #00979c"/>
    <path d="M26,4a10.98213,10.98213,0,0,0-8.47858,4h2.83417A8.95279,8.95279,0,0,1,26,6h4V4Z" style="fill: #00979c"/>
  </g>
</svg>
