<svg width="128" height="128" viewBox="0 0 128 128" fill="none" xmlns="http://www.w3.org/2000/svg">
<rect x="0.5" y="0.5" width="127" height="127" rx="19.5" fill="black"/>
<rect x="0.5" y="0.5" width="127" height="127" rx="19.5" stroke="black"/>
<path d="M30.7 79.48C28.66 79.48 26.884 79.048 25.372 78.184C23.86 77.344 22.684 76.132 21.844 74.548C21.028 72.988 20.62 71.152 20.62 69.04V56.8C20.62 54.64 21.004 52.78 21.772 51.22C22.564 49.66 23.68 48.46 25.12 47.62C26.584 46.78 28.324 46.36 30.34 46.36C32.164 46.36 33.736 46.72 35.056 47.44C36.376 48.136 37.384 49.144 38.08 50.464C38.8 51.784 39.16 53.356 39.16 55.18V70.66H36.604V68.68H35.596L36.28 67.96C36.28 68.872 35.932 69.616 35.236 70.192C34.54 70.744 33.616 71.02 32.464 71.02C30.904 71.02 29.704 70.552 28.864 69.616C28.048 68.656 27.64 67.264 27.64 65.44V61.12C27.64 59.296 28.048 57.916 28.864 56.98C29.704 56.02 30.904 55.54 32.464 55.54C33.616 55.54 34.54 55.828 35.236 56.404C35.932 56.956 36.28 57.7 36.28 58.636L35.776 57.88H36.64L36.28 55.36V55.18C36.28 53.812 36.052 52.66 35.596 51.724C35.14 50.788 34.468 50.08 33.58 49.6C32.716 49.12 31.636 48.88 30.34 48.88C28.18 48.88 26.5 49.576 25.3 50.968C24.1 52.36 23.5 54.304 23.5 56.8V69.04C23.5 71.44 24.136 73.324 25.408 74.692C26.704 76.084 28.468 76.78 30.7 76.78H33.22V79.48H30.7ZM33.4 68.752C34.384 68.752 35.104 68.452 35.56 67.852C36.04 67.252 36.28 66.328 36.28 65.08V61.084C36.28 59.956 36.04 59.128 35.56 58.6C35.104 58.072 34.384 57.808 33.4 57.808C32.44 57.808 31.72 58.084 31.24 58.636C30.76 59.164 30.52 59.992 30.52 61.12V65.44C30.52 66.568 30.76 67.408 31.24 67.96C31.72 68.488 32.44 68.752 33.4 68.752ZM50.7739 73.288C49.4299 73.288 48.2539 73.084 47.2459 72.676C46.2619 72.244 45.4699 71.644 44.8699 70.876C44.2939 70.108 43.9459 69.196 43.8259 68.14H47.0659C47.2099 68.836 47.5939 69.388 48.2179 69.796C48.8659 70.204 49.7179 70.408 50.7739 70.408H52.2859C53.5579 70.408 54.5059 70.156 55.1299 69.652C55.7539 69.124 56.0659 68.428 56.0659 67.564C56.0659 66.724 55.7779 66.064 55.2019 65.584C54.6499 65.08 53.8219 64.744 52.7179 64.576L50.0539 64.144C48.1099 63.808 46.6579 63.208 45.6979 62.344C44.7619 61.456 44.2939 60.172 44.2939 58.492C44.2939 56.716 44.8579 55.348 45.9859 54.388C47.1139 53.404 48.8059 52.912 51.0619 52.912H52.4299C54.3259 52.912 55.8499 53.356 57.0019 54.244C58.1539 55.132 58.8499 56.332 59.0899 57.844H55.8499C55.7059 57.22 55.3459 56.728 54.7699 56.368C54.1939 55.984 53.4139 55.792 52.4299 55.792H51.0619C49.8379 55.792 48.9379 56.02 48.3619 56.476C47.8099 56.932 47.5339 57.616 47.5339 58.528C47.5339 59.344 47.7739 59.944 48.2539 60.328C48.7339 60.712 49.4899 60.988 50.5219 61.156L53.1859 61.588C55.3219 61.924 56.8699 62.548 57.8299 63.46C58.8139 64.372 59.3059 65.692 59.3059 67.42C59.3059 69.244 58.7179 70.684 57.5419 71.74C56.3899 72.772 54.6379 73.288 52.2859 73.288H50.7739ZM64.5479 73V53.2H67.3919V55.576H68.0399L67.5359 56.44C67.5359 55.336 67.8239 54.46 68.3999 53.812C68.9999 53.164 69.8039 52.84 70.8119 52.84C71.9159 52.84 72.7679 53.248 73.3679 54.064C73.9679 54.88 74.2679 56.032 74.2679 57.52L73.2959 55.576H74.8079L74.1239 56.44C74.1239 55.336 74.4239 54.46 75.0239 53.812C75.6479 53.164 76.4639 52.84 77.4719 52.84C78.7199 52.84 79.6799 53.308 80.3519 54.244C81.0479 55.18 81.3959 56.416 81.3959 57.952V73H78.4079V57.916C78.4079 57.1 78.2279 56.464 77.8679 56.008C77.5319 55.552 77.0279 55.324 76.3559 55.324C75.7079 55.324 75.1919 55.552 74.8079 56.008C74.4479 56.44 74.2679 57.064 74.2679 57.88V73H71.6759V57.916C71.6759 57.076 71.4839 56.44 71.0999 56.008C70.7399 55.552 70.2239 55.324 69.5519 55.324C68.8799 55.324 68.3759 55.552 68.0399 56.008C67.7039 56.44 67.5359 57.064 67.5359 57.88V73H64.5479ZM85.5578 73L92.5778 62.812L85.9898 53.2H89.8058L93.7298 59.32C93.8978 59.584 94.0538 59.872 94.1978 60.184C94.3658 60.496 94.4978 60.748 94.5938 60.94C94.6658 60.748 94.7738 60.496 94.9178 60.184C95.0858 59.872 95.2538 59.584 95.4218 59.32L99.3818 53.2H103.162L96.5738 62.848L103.558 73H99.7418L95.4938 66.52C95.3258 66.256 95.1578 65.956 94.9898 65.62C94.8458 65.26 94.7138 64.972 94.5938 64.756C94.4978 64.972 94.3538 65.26 94.1618 65.62C93.9938 65.956 93.8138 66.256 93.6218 66.52L89.3378 73H85.5578Z" fill="#D9D9D9"/>
<path d="M82 77C82 77 31.5 77 28 76.5C24.5 76 33 79.5 33 79.5H55.5H85L95 65L92.5 63L82 77Z" fill="#D9D9D9"/>
</svg>
