<?xml version="1.0" encoding="UTF-8" standalone="no"?>
<!-- Created with Inkscape (http://www.inkscape.org/) -->

<svg
   width="16"
   height="16"
   viewBox="0 0 16 16"
   version="1.1"
   id="svg1"
   xml:space="preserve"
   xmlns="http://www.w3.org/2000/svg"
   xmlns:svg="http://www.w3.org/2000/svg"><defs
     id="defs1" /><path
     d="m 2.1406719,14.715284 c -0.9047156,0 -1.64067185,-0.735956 -1.64067185,-1.640671 0,-0.294854 0.0778125,-0.581738 0.22500938,-0.830185 L 4.6335688,5.4745344 4.6495063,5.4506281 6.5789376,2.1050468 C 6.8719157,1.5987875 7.4161532,1.2847155 8.0002345,1.2847155 c 0.5840812,0 1.1283187,0.314072 1.4208281,0.8198626 L 15.280616,12.253803 C 15.422188,12.492406 15.5,12.779291 15.5,13.074144 c 0,0.904715 -0.735956,1.640672 -1.640672,1.640672 z"
     fill="#512bd4"
     id="path1-0"
     style="fill:#6200ea;fill-opacity:1;stroke-width:0.0585956" /><path
     d="M 12.373813,9.0901156 H 8.4643157 L 8.0002345,8.2838375 6.6548845,5.9540749 C 6.593947,5.8509499 6.5095626,5.7618874 6.3970626,5.7009405 6.0642407,5.5040655 5.632972,5.621253 5.4360876,5.9587624 L 7.3908407,2.5742843 c 0.121875,-0.2109468 0.3468844,-0.3515718 0.6093938,-0.3515718 0.2625093,0 0.4875187,0.140625 0.6093937,0.3515718 l 1.9453778,3.3704156 0.0047,0.00938 0.0094,0.014062 z"
     fill="#7455dd"
     id="path2"
     style="fill:#7c4dff;fill-opacity:1;stroke-width:0.0585956" /><path
     d="m 14.562941,13.074613 c 0,0.389071 -0.314072,0.703143 -0.703144,0.703143 H 9.9549875 c 0.3890715,0 0.7031435,-0.314072 0.7031435,-0.703143 0,-0.126572 -0.0375,-0.248447 -0.09375,-0.351572 L 8.6096282,9.3385531 8.4643157,9.0901156 h 3.9094973 l 2.095378,3.6329254 c 0.06094,0.103125 0.09375,0.225 0.09375,0.351572 z"
     fill="#9780e5"
     id="path3"
     style="fill:#9575cd;fill-opacity:1;stroke-width:0.0585956" /><path
     d="m 10.658131,13.074613 c 0,0.389071 -0.314072,0.703143 -0.7031435,0.703143 H 6.0454813 c 0.3890813,0 0.7031532,-0.314072 0.7031532,-0.703143 0,-0.126572 -0.032812,-0.248447 -0.09375,-0.351572 0,-0.0047 -0.00469,-0.0094 -0.00937,-0.01406 L 6.0267407,11.701128 4.6345063,9.427625 C 4.5079438,9.2213656 4.2829344,9.0901156 4.0344876,9.0901156 h 4.4298375 l 0.1453125,0.2484375 0.059531,0.1031344 1.8952224,3.2813535 c 0.05625,0.103125 0.09375,0.225 0.09375,0.351572 z"
     fill="#b9aaee"
     id="path4"
     style="fill:#b39ddb;fill-opacity:1;stroke-width:0.0585956" /><path
     d="m 6.7486345,13.074613 c 0,0.389071 -0.3140719,0.703143 -0.7031532,0.703143 H 2.1406719 c -0.3890718,0 -0.7031437,-0.314072 -0.7031437,-0.703143 0,-0.126572 0.032812,-0.248447 0.09375,-0.351572 L 3.4250938,9.4416875 C 3.5516563,9.2260531 3.7860407,9.0901156 4.0344876,9.0901156 c 0.2484468,0 0.4734469,0.13125 0.6000187,0.3375094 l 1.392225,2.273503 0.6187688,1.00785 c 0.00469,0.0047 0.00938,0.0094 0.00938,0.01406 0.060937,0.103125 0.09375,0.225 0.09375,0.351572 z"
     fill="#dcd5f6"
     id="path5"
     style="fill:#d1c4e9;fill-opacity:1;stroke-width:0.0590625;stroke-dasharray:none" /><path
     d="M 8.4643157,9.0901156 H 4.0344876 c -0.2484469,0 -0.4828313,0.1359375 -0.6093938,0.3515719 l 0.2015625,-0.3515719 1.7906813,-3.0985407 0.01875,-0.028125 v -0.00469 C 5.632972,5.621253 6.0642407,5.5040655 6.3970626,5.7009405 c 0.1125,0.060938 0.196875,0.1500094 0.2578219,0.2531344 l 1.34535,2.3297626 z"
     fill="#9780e5"
     id="path6-9"
     style="fill:#b388ff;fill-opacity:1;stroke-width:0.0585956" /></svg>
