<svg xmlns="http://www.w3.org/2000/svg" viewBox="0 0 16 16">
	<path
		stroke="none" fill="#FF6E40"
		d="M 2,1 A 1,1 0 0 0 1,2 v 12 a 1,1 0 0 0 1,1 H 4 V 14 H 2 V 13 3 2 H 4 V 1 Z m 10,0 v 1 h 2 v 1 10 1 h -2 v 1 h 2 a 1,1 0 0 0 1,-1 V 2 A 1,1 0 0 0 14,1 Z M 6,3 C 6,4 6,4 5,4 V 5 H 6 V 7 H 7 V 3 Z M 9,3 A 1,1 0 0 0 8,4 v 2 a 1,1 0 0 0 1,1 h 1 A 1,1 0 0 0 11,6 V 4 A 1,1 0 0 0 10,3 Z m 0,1 h 1 V 6 H 9 Z M 6,9 a 1,1 0 0 0 -1,1 v 2 a 1,1 0 0 0 1,1 H 7 A 1,1 0 0 0 8,12 V 10 A 1,1 0 0 0 7,9 Z m 4,0 c 0,1 0,1 -1,1 v 1 h 1 v 2 h 1 V 9 Z m -4,1 h 1 v 2 H 6 Z"
	/>
</svg>
