<svg xmlns="http://www.w3.org/2000/svg" viewBox="0 0 32 32">
  <path d="M8,6V2H4A2,2,0,0,0,2,4V28a2,2,0,0,0,2,2H8V26H4V6Z" style="fill: #ff6e40"/>
  <path d="M24,2V6h4V26H24v4h4a2,2,0,0,0,2-2V4a2,2,0,0,0-2-2Z" style="fill: #ff6e40"/>
  <path d="M20,6H18a2,2,0,0,0-2,2v4a2,2,0,0,0,2,2h2a2,2,0,0,0,2-2V8A2,2,0,0,0,20,6Zm-2,6V8h2v4Z" style="fill: #ff6e40"/>
  <path d="M14,18H12a2,2,0,0,0-2,2v4a2,2,0,0,0,2,2h2a2,2,0,0,0,2-2V20A2,2,0,0,0,14,18Zm-2,6V20h2v4Z" style="fill: #ff6e40"/>
  <path d="M12,6c0,2,0,2-2,2v2h2v4h2V6Z" style="fill: #ff6e40"/>
  <path d="M20,18c0,2,0,2-2,2v2h2v4h2V18Z" style="fill: #ff6e40"/>
</svg>
