<svg fill="none" version="1.1" viewBox="0 0 24 24" xmlns="http://www.w3.org/2000/svg">
 <path d="m4.4278 14.135c-0.312 0.99672-0.46707 1.4946-0.42877 1.9682 0.035497 0.41663 0.17749 0.8183 0.41289 1.1649 0.26623 0.39234 0.7006 0.68192 1.5694 1.2611l3.8393 2.5595c0.77534 0.51658 1.163 0.77533 1.5824 0.87622 0.37085 0.08968 0.75665 0.08968 1.1284 0.0028 0.42036-0.09995 0.80896-0.35684 1.588-0.87062l3.8795-2.5633c0.87809-0.58103 1.3181-0.87062 1.588-1.2658 0.23727-0.34843 0.38019-0.75291 0.41382-1.1733 0.03924-0.47641-0.12144-0.97804-0.43904-1.9813l-3.4012-10.701c-0.16441-0.51845-0.24661-0.77814-0.40448-0.9715a1.2956 1.2956 0 0 0-0.52312-0.38206c-0.2298-0.091546-0.50163-0.091546-1.0472-0.091546h-4.4316c-0.5474 0-0.82204 0-1.0528 0.093414-0.20551 0.08127-0.38486 0.21392-0.52405 0.38393-0.15787 0.1943-0.23914 0.45493-0.40168 0.97711l-3.3479 10.714zm9.9299-9.8972c0.13078 0.16254 0.19804 0.383 0.33162 0.82111l2.9182 9.5871a12.146 12.146 0 0 0-3.489-1.1808l-1.9-6.4222a0.24755 0.24755 0 0 0-0.47454 9.342e-4l-1.8776 6.4175c-1.2424 0.21672-2.4213 0.6212-3.5049 1.1836l2.9332-9.588c0.13358-0.43904 0.20084-0.65763 0.33162-0.82017 0.11583-0.14292 0.26623-0.25409 0.43718-0.32321 0.19337-0.077533 0.42223-0.077533 0.88089-0.077533h2.0943c0.45866 0 0.68846 0 0.88183 0.077533 0.17095 0.069126 0.32134 0.18122 0.43718 0.32415zm-2.2625 11.557c1.106 0 2.0663-0.28024 2.5474-0.6922a2.0999 2.0999 0 0 1-0.15413 1.6366c-0.30827 0.56889-0.75572 0.85287-1.1583 1.1079-0.5063 0.32134-0.94161 0.59785-0.94161 1.3396 0 0.24568 0.05605 0.47921 0.15787 0.68659a1.8683 1.8683 0 0 1-1.1518-1.7254v-0.04577c9.35e-4 -0.51191 0.0018-1.1434-0.72209-1.1434a0.76506 0.76506 0 0 0-0.76506 0.76412c-0.8127-0.8127-0.74171-1.9832-0.74171-1.9832 0-0.2382 0.024288-0.61093 0.13171-0.93601 0.30173 0.56796 1.4395 0.99019 2.7977 0.99019z" clip-rule="evenodd" fill="#ff6d00" fill-rule="evenodd" style="stroke-width:.93414"/>
</svg>
