<svg xmlns="http://www.w3.org/2000/svg" viewBox="0 0 32 32"><path d="M12.106,25.8488c-1.26232-1.1563-1.6309-3.5858-1.1049-5.346a5.18362,5.18362,0,0,0,3.48433,1.6597,9.67715,9.67715,0,0,0,5.88181-.7337c.21476-.1059.41316-.2468.64781-.3895a3.46859,3.46859,0,0,1,.16038,1.555,4.2581,4.2581,0,0,1-1.79794,3.0212c-.40465.3001-.83289.5683-1.25086.8512a2.61336,2.61336,0,0,0-1.149,3.3726c.01147.0364.02174.0725.04764.1607a3.37809,3.37809,0,0,1-1.49938-1.2851,3.618,3.618,0,0,1-.57844-1.9621,8.58845,8.58845,0,0,0-.05124-1.0363c-.1134-.8317-.50306-1.2041-1.23707-1.2255a1.44852,1.44852,0,0,0-1.50724,1.1796C12.13987,25.7269,12.1235,25.7833,12.106,25.8488ZM4.901,20a17.74678,17.74678,0,0,1,7.39931-2l2.91357-8.37971a.76543.76543,0,0,1,1.52712,0L19.69965,18A14.24022,14.24022,0,0,1,27.099,20S20.70448,2.87725,20.69209,2.84247C20.50988,2.33,20.20225,2,19.78743,2H12.16817c-.41473,0-.71.33-.90456.84247C11.24983,2.87659,4.901,20,4.901,20Z" style="fill:#7c4dff"/></svg>