<svg viewBox="0 0 32 32" fill="none" xmlns="http://www.w3.org/2000/svg">
    <path
        d="M11.7899 25.8488C10.4251 24.6925 10.0266 22.263 10.5953 20.5028C11.5813 21.6126 12.9474 21.9641 14.3625 22.1625C16.547 22.4688 18.6925 22.3542 20.7218 21.4288C20.954 21.3229 21.1685 21.182 21.4222 21.0393C21.6126 21.5513 21.6622 22.0682 21.5956 22.5943C21.4339 23.8755 20.746 24.8652 19.6517 25.6155C19.2142 25.9156 18.7512 26.1838 18.2993 26.4667C16.9109 27.3364 16.5353 28.3561 17.057 29.8393C17.0694 29.8757 17.0805 29.9118 17.1085 30C16.3997 29.7059 15.8819 29.2778 15.4874 28.7149C15.0707 28.1209 14.8724 27.4638 14.862 26.7528C14.8568 26.4067 14.8568 26.0576 14.8066 25.7165C14.684 24.8848 14.2627 24.5124 13.4691 24.491C12.6546 24.469 12.0104 24.9356 11.8395 25.6706C11.8265 25.7269 11.8088 25.7833 11.7899 25.8488Z"
        fill="#212121" />
    <path
        d="M4 20.2096C4 20.2096 8.04157 18.3849 12.0944 18.3849L15.1501 9.62029C15.2646 9.19644 15.5986 8.90839 15.9757 8.90839C16.3528 8.90839 16.6868 9.19644 16.8012 9.62029L19.857 18.3849C24.657 18.3849 27.9514 20.2096 27.9514 20.2096C27.9514 20.2096 21.0864 2.87725 21.073 2.84247C20.876 2.33003 20.5434 2 20.0949 2H11.8571C11.4087 2 11.0895 2.33003 10.8791 2.84247C10.8642 2.87659 4 20.2096 4 20.2096Z"
        fill="#212121" />
</svg>