<svg width="24" height="24" fill="none" xmlns="http://www.w3.org/2000/svg">
    <path fill-rule="evenodd" clip-rule="evenodd" d="M3.93 15.025c-.334 1.067-.5 1.6-.459 2.107.038.446.19.876.442 1.247.285.42.75.73 1.68 1.35l4.11 2.74c.83.553 1.245.83 1.694.938.397.096.81.096 1.208.003.45-.107.866-.382 1.7-.932l4.153-2.744c.94-.622 1.411-.932 1.7-1.355.254-.373.407-.806.443-1.256.042-.51-.13-1.047-.47-2.121L16.49 3.547c-.176-.555-.264-.833-.433-1.04a1.387 1.387 0 00-.56-.409C15.251 2 14.96 2 14.376 2H9.632c-.586 0-.88 0-1.127.1-.22.087-.412.229-.561.411-.169.208-.256.487-.43 1.046L3.93 15.026zM14.56 4.43c.14.174.212.41.355.879l3.124 10.263a13.002 13.002 0 00-3.735-1.264L12.27 7.433a.265.265 0 00-.508.001l-2.01 6.87c-1.33.232-2.592.665-3.752 1.267L9.14 5.307c.143-.47.215-.704.355-.878.124-.153.285-.272.468-.346C10.17 4 10.415 4 10.906 4h2.242c.491 0 .737 0 .944.083.183.074.344.194.468.347zm-2.422 12.372c1.184 0 2.212-.3 2.727-.741a2.248 2.248 0 01-.165 1.752c-.33.609-.809.913-1.24 1.186-.542.344-1.008.64-1.008 1.434 0 .263.06.513.169.735a2 2 0 01-1.233-1.847v-.049c.001-.548.002-1.224-.773-1.224a.819.819 0 00-.819.818c-.87-.87-.794-2.123-.794-2.123 0-.255.026-.654.141-1.002.323.608 1.541 1.06 2.995 1.06z" fill="#FF5D01"/>
</svg>
