<svg xmlns="http://www.w3.org/2000/svg" viewBox="0 0 32 32">
  <path d="M25.33331,4H6.66669A2.65743,2.65743,0,0,0,4,6.66663V25.33331A2.66668,2.66668,0,0,0,6.66669,28H25.33331A2.66668,2.66668,0,0,0,28,25.33331V6.66663A2.66667,2.66667,0,0,0,25.33331,4Zm-2.49542,6.21973a3.91808,3.91808,0,0,0-.16309,1.00976c0,.17725-.01855.4541-.05761.82959-.02832.32031-.041.5625-.041.71973,0,.58447-.03027,1.44287-.09082,2.55078q-.0747,1.25244-.08887,2.50146c0,.41211.03223,1.05665.09766,1.91016.06641.86475.09961,1.53418.09961,1.98828a1.61647,1.61647,0,0,1-.50488,1.19629,1.65272,1.65272,0,0,1-1.22461.47559,1.923,1.923,0,0,1-1.2334-.46631,1.51349,1.51349,0,0,1-.55371-1.18994c0-.42774-.01953-1.07471-.06055-1.93457q-.04687-.9895-.05566-1.97852,0-.19775.00293-.37646c-.80469.06494-1.76563.19824-2.86719.39795q-1.522.27758-3.04443.562-.03224.61011-.11084,1.6499c-.05176.667-.08106,1.34521-.08692,2.01758a1.61457,1.61457,0,0,1-.50537,1.19238,1.72847,1.72847,0,0,1-1.22461.47412l-.04736.00049a1.69248,1.69248,0,0,1-1.15723-.479,1.62158,1.62158,0,0,1-.50146-1.20069c0-.61426.05029-1.5122.15429-2.73779.1045-1.18164.15772-2.07617.15772-2.66064q0-1.14918.05615-3.45948.05419-2.302.05322-3.44189a1.61669,1.61669,0,0,1,.5083-1.19678,1.68033,1.68033,0,0,1,1.22168-.47754h.001a1.69545,1.69545,0,0,1,1.20557.48389,1.62962,1.62962,0,0,1,.49951,1.19043q0,.687-.05518,2.06885-.03588,1.01-.04345,2.02392c0,.15283-.021.45606-.065.9043-.00878.084-.01611.16748-.022.25146l2.8252-.53174a28.1835,28.1835,0,0,1,3.08545-.3955q.03662-.82911.09472-2.76026a4.75675,4.75675,0,0,1,.4668-1.77734c.4209-.92627.95605-1.39551,1.59082-1.39551a1.75408,1.75408,0,0,1,1.166.43408l.00293.002a1.58166,1.58166,0,0,1,.56543,1.228A1.53108,1.53108,0,0,1,22.83789,10.21973Z" style="fill: #4caf50"/>
</svg>
