<svg xmlns="http://www.w3.org/2000/svg" viewBox="0 0 32 32"><path fill="#4caf50" d="M25.333 4H6.667A2.657 2.657 0 0 0 4 6.667v18.666A2.667 2.667 0 0 0 6.667 28h18.666A2.667 2.667 0 0 0 28 25.333V6.667A2.667 2.667 0 0 0 25.333 4m-2.495 6.22a4 4 0 0 0-.163 1.01q0 .266-.058.83a9 9 0 0 0-.04.719c0 .584-.031 1.443-.092 2.55q-.074 1.253-.088 2.502c0 .412.032 1.057.097 1.91.067.865.1 1.534.1 1.988a1.62 1.62 0 0 1-.505 1.197 1.65 1.65 0 0 1-1.225.475 1.92 1.92 0 0 1-1.233-.466 1.51 1.51 0 0 1-.554-1.19q0-.644-.06-1.934-.047-.99-.056-1.979 0-.198.003-.376c-.805.065-1.766.198-2.867.398q-1.522.277-3.045.562-.032.61-.11 1.65a30 30 0 0 0-.087 2.017 1.62 1.62 0 0 1-.506 1.192 1.73 1.73 0 0 1-1.224.474l-.048.001a1.7 1.7 0 0 1-1.157-.479 1.62 1.62 0 0 1-.502-1.2c0-.615.05-1.513.155-2.738.104-1.182.157-2.077.157-2.661q0-1.15.057-3.46.054-2.302.053-3.442a1.62 1.62 0 0 1 .508-1.196 1.68 1.68 0 0 1 1.222-.478 1.7 1.7 0 0 1 1.206.484 1.63 1.63 0 0 1 .5 1.19q0 .687-.055 2.07-.036 1.01-.044 2.023.001.23-.065.905a7 7 0 0 0-.022.251l2.825-.532a28 28 0 0 1 3.086-.395q.037-.83.095-2.76a4.8 4.8 0 0 1 .466-1.778c.421-.926.957-1.395 1.591-1.395a1.75 1.75 0 0 1 1.166.434l.003.002a1.58 1.58 0 0 1 .566 1.228 1.5 1.5 0 0 1-.05.397"/></svg>