<svg xmlns="http://www.w3.org/2000/svg" viewBox="0 0 400 342.03"><g id="Layer_2" data-name="Layer 2"><g id="Layer_1-2" data-name="Layer 1"><path d="M142.08,292.71a.51.51,0,0,1-.27-.13C142.19,292.67,142.3,292.73,142.08,292.71Z" fill="#ef5050"/><g opacity="0.3"><path d="M41.37,279.53l.08.08.11.15Z" fill="#6b184e"/><path d="M46,285.27c-1.54-1.78-3-3.61-4.48-5.51Z" fill="#6b184e"/><path d="M354.06,285.76l4.49-5.47Q356.41,283.13,354.06,285.76Z" fill="#6b184e"/></g><path d="M46.13,287.18q-2.34-2.69-4.53-5.55Z" fill="#fff"/><path d="M353.76,287.67l4.52-5.53C356.84,284.05,355.32,285.88,353.76,287.67Z" fill="#fff"/><g opacity="0.25"><path d="M358.37,277.88l-.08.17a.58.58,0,0,0,.06-.15Z" fill="#6b184e"/></g><path d="M396.13,250c-.88,7.57-16.33.38-19.69-1.29-.27-.13-.56.15-.49.48a52.39,52.39,0,0,0,3.24,8.95c2.61,5.81,4.72,10.31,3.54,13.35-1.27,3.24-6.53,4.47-13.08,3.72-3.66-.41-7.59,2.78-11.1,6.64l0,0,0,.05c-.94,1-1.83,2.1-2.68,3.16-.72.91-1.42,1.8-2.07,2.66a119.8,119.8,0,0,1-19.79,17.91,135,135,0,0,1-30.49,15.73v-.08a331.84,331.84,0,0,1-36.92,10.48s-19.68,4.17-37.67,6.47A276.09,276.09,0,0,1,200,339.8a285,285,0,0,1-29.12-1.67c-18-2.35-37.64-6.59-37.64-6.59a332,332,0,0,1-36.89-10.6V321a135.17,135.17,0,0,1-30.44-15.83,119.29,119.29,0,0,1-19.72-18c-.76-1-1.58-2.06-2.42-3.1s-1.55-1.88-2.36-2.78c.07.1.15.19.21.29l-.26-.33,0,0c-3.5-3.88-7.43-7.11-11.1-6.7-6.56.72-11.81-.53-13.07-3.77-1.18-3,1-7.54,3.57-13.34a52.81,52.81,0,0,0,3.28-8.94c.06-.33-.22-.61-.49-.48-3.36,1.66-18.84,8.8-19.7,1.23-.48-4.19,6.35-16.87,8.74-29.87,6.94-37.66,8.94-45.1,8.94-45.1.05-.24,6.76-27.25,16.75-47.11-9.91-26.53-16.31-103.9.38-120,12.25-11.85,55.38,10,77,28.44,2,1.69,3.81,3.36,5.41,5,16.11-6.7,37.23-10.17,53.72-11.92,12.73-1.34,22.71-1.66,25.52-1.65,2.23,0,8.91.22,17.91,1,5.48.47,11.83,1.16,18.53,2.12,14.22,2.06,30.06,5.38,42.75,10.71a107.74,107.74,0,0,1,13.24-11.06c23-16.6,58.42-32.7,69.32-22.1,16.62,16.17,10,93.51,0,120,6.28,12.58,11.24,28,14,37.69,1.63,5.66,2.54,9.38,2.56,9.48s2,7.44,8.8,45.12C389.83,233.06,396.62,245.76,396.13,250Z" fill="#fff"/><path d="M376.13,165.46a142.56,142.56,0,0,1-17.38,1A140.74,140.74,0,0,1,218.25,28.08c17.14,1.47,42.61,5,61.3,12.82,18.89-19,69.2-46.15,82.55-33.16,16.63,16.18,10,93.52,0,120C368.37,140.34,373.33,155.75,376.13,165.46Z" fill="#ff6f03"/><g opacity="0.6"><path d="M362.11,7.74a23.47,23.47,0,0,1,5.13,8.61c-14.16-10.43-57.55,11.4-80.3,30.29a15.59,15.59,0,0,1-14.87,2.85c-17.23-5.73-37.7-8.71-53.19-10.21-.35-3.69-.56-7.43-.62-11.2,17.13,1.47,42.61,5,61.29,12.82C298.43,21.89,348.75-5.25,362.11,7.74Z" fill="#fff"/></g><g opacity="0.3"><path d="M41.63,281.67l4.49,5.51C44.57,285.4,43.07,283.57,41.63,281.67Z" fill="#6b184e"/><path d="M353.76,287.66l4.51-5.49C356.82,284.06,355.31,285.89,353.76,287.66Z" fill="#6b184e"/></g><g opacity="0.3"><path d="M41.41,263.64l.25.33-.29-.36Z" fill="#6b184e"/><path d="M41.66,264l4.49,5.51C44.6,267.7,43.1,265.88,41.66,264Z" fill="#6b184e"/><path d="M358.55,264.14l0,0-.29.36Z" fill="#6b184e"/></g><path d="M75.75,74.71C62.54,88.08,54.22,106.78,53,104.6a6.26,6.26,0,0,1-.34-.76c-2.51-6.12-6.66-30.4-6.61-52q0-5.22.31-9.28c.51-7.33,1.61-12,3-15a6.74,6.74,0,0,1,8.77-3.55C67,27.24,92.12,43,100.3,53,101.76,54.79,89,61.34,75.75,74.71Z" fill="#ff67a0"/><g opacity="0.3"><path d="M75.75,74.71C62.54,88.08,54.22,106.78,53,104.6a6.26,6.26,0,0,1-.34-.76C55.65,92.5,63.77,76.82,70,65.49,78.5,50,66.82,37.69,56.69,34c-3.48-1.27-7.61,4.15-10.29,8.53.51-7.33,1.61-12,3-15a6.74,6.74,0,0,1,8.77-3.55C67,27.24,92.12,43,100.3,53,101.76,54.79,89,61.34,75.75,74.71Z" fill="#000072"/></g><path d="M53.36,108.51h-.2a4,4,0,0,1-3.41-2.14c-3-5.5-7.45-32.12-7.4-54.56h0C42.38,39.72,43.56,31.27,46,26a10.45,10.45,0,0,1,13.47-5.52c9.07,3.37,35.05,19.49,43.78,30.2a4.26,4.26,0,0,1,.92,3.21c-.31,2.58-2.51,4.24-7.81,8.25a156.69,156.69,0,0,0-17.9,15.24C71.08,84.77,65.23,94,61.36,100.14,57.35,106.49,56.07,108.51,53.36,108.51Zm3-5.69h0Zm-6.5-51a229.21,229.21,0,0,0,4.74,45.05l.47-.73c4-6.4,10.15-16.06,18.06-24.07A166.6,166.6,0,0,1,91.81,56.13c1.29-1,2.67-2,3.71-2.86-9.27-9.52-31.26-23.05-38.7-25.82a3,3,0,0,0-4,1.6C50.85,33.3,49.86,41,49.83,51.83Z" fill="#000072"/><path d="M323.76,75.1c13.17,13.41,21.43,32.14,22.62,30a6.82,6.82,0,0,0,.34-.75c2.53-6.12,6.76-30.38,6.78-52,0-3.49-.09-6.57-.28-9.29-.49-7.33-1.58-12-2.92-15a6.73,6.73,0,0,0-8.76-3.58c-8.86,3.27-34,18.9-42.26,28.93C297.82,55.1,310.58,61.69,323.76,75.1Z" fill="#ff67a0"/><g opacity="0.3"><path d="M323.76,75.1c13.17,13.41,21.43,32.14,22.62,30a6.82,6.82,0,0,0,.34-.75c-2.91-11.36-11-27.06-17.17-38.41C321.1,50.4,332.81,38.12,343,34.46c3.48-1.26,7.6,4.16,10.26,8.55-.49-7.33-1.58-12-2.92-15a6.73,6.73,0,0,0-8.76-3.58c-8.86,3.27-34,18.9-42.26,28.93C297.82,55.1,310.58,61.69,323.76,75.1Z" fill="#000072"/></g><path d="M346.07,109c-2.73,0-4-2-8-8.4-3.85-6.13-9.66-15.4-17-22.85a156.22,156.22,0,0,0-17.85-15.3c-5.29-4-7.48-5.7-7.78-8.28a4.21,4.21,0,0,1,.93-3.2c8.75-10.69,34.79-26.72,43.86-30.07a10.46,10.46,0,0,1,13.46,5.55c2.38,5.33,3.54,13.79,3.53,25.88h0c0,22.43-4.6,49.05-7.57,54.53a4,4,0,0,1-3.42,2.13Zm-42-55.38c1,.84,2.42,1.9,3.71,2.87a167.57,167.57,0,0,1,18.66,16c7.88,8,14,17.72,18,24.13.15.24.31.48.46.73a228.85,228.85,0,0,0,4.89-45c0-10.86-1-18.52-2.88-22.8a3,3,0,0,0-4-1.6C335.39,30.65,313.36,44.11,304.06,53.6Z" fill="#000072"/><path d="M204.4,342h-.48l-8.14,0a306.34,306.34,0,0,1-62.47-6.52l-.9-.19a341.44,341.44,0,0,1-36.69-10.49,3.83,3.83,0,0,1-.74-.19,138.51,138.51,0,0,1-31.31-16.29,124.19,124.19,0,0,1-20.4-18.58l-.05-.06c-1.73-2-3.28-3.88-4.73-5.8l0,0c-2.63-2.92-5.69-5.65-7.78-5.42-8.93,1-15.16-1.27-17.07-6.19-1.72-4.43.51-9.36,3.34-15.61l.31-.71c.2-.42.38-.83.55-1.23-5.21,1.82-10.54,2.71-14,.79a7.24,7.24,0,0,1-3.73-5.73c-.33-2.92,1.1-6.84,3.27-12.77,1.93-5.26,4.32-11.8,5.51-18.23,6.88-37.39,8.92-45.09,9-45.4h0c.72-2.88,7.06-27.39,16.29-46.36C25.12,100.57,17.28,22.56,36,4.46,52.29-11.3,103,18.37,122,36.15c31.62-12.24,77.82-12.91,78.36-12.91h0c.45,0,46.71.81,78.32,13.16,19-17.72,69.85-47.23,86.1-31.42,18.66,18.16,10.57,96.15,1.48,122.55,9.2,19,15.44,43.52,16.15,46.41h0c.08.31,2.09,8,8.86,45.43,1.16,6.44,3.54,13,5.45,18.25,2.15,5.94,3.57,9.87,3.23,12.79a7.25,7.25,0,0,1-3.75,5.71c-3.51,1.91-8.83,1-14-.83.16.39.34.8.53,1.23l.32.7c2.8,6.26,5,11.21,3.29,15.62-1.93,4.92-8.16,7.16-17.09,6.14-2.1-.24-5.16,2.49-7.8,5.4l0,0c-1.46,1.91-3,3.81-4.76,5.8h0l-.07.08a123.94,123.94,0,0,1-20.36,18.44A139.06,139.06,0,0,1,304.78,325a4.17,4.17,0,0,1-.75.2,343.15,343.15,0,0,1-36.65,10.35l-1,.2A306.84,306.84,0,0,1,204.4,342ZM97,317.16a4,4,0,0,1,.68.18,329.82,329.82,0,0,0,36.41,10.46l.8.17a299.7,299.7,0,0,0,60.92,6.36h8.6a299.49,299.49,0,0,0,60.47-6.16l.86-.18a333.41,333.41,0,0,0,36.39-10.33,3.2,3.2,0,0,1,.69-.19,130.84,130.84,0,0,0,28.93-15,116.47,116.47,0,0,0,19-17.2c5.52-7.2,12-14.76,19.35-13.92,6.17.7,8.83-.74,9.06-1.31.55-1.42-1.5-6-3.15-9.67l-.31-.71a54.82,54.82,0,0,1-3.47-9.65,4.28,4.28,0,0,1,1.49-4.32,4.13,4.13,0,0,1,4.43-.47c7.43,3.67,12.66,4.67,14.18,4.23,0-1.32-1.55-5.69-2.83-9.21-2-5.53-4.51-12.42-5.78-19.5C377.05,183.92,375,176,375,175.91a.83.83,0,0,0,0-.15c-.12-.51-6.58-26.84-16.28-46.28a3.82,3.82,0,0,1-.16-3.07c10.65-28.25,15-102.21.92-115.92-4.55-4.43-17.94-2.39-34.93,5.33C308.58,23,291.62,34.21,282.28,43.61a3.87,3.87,0,0,1-4.22.84c-26.43-11.1-68.67-13.52-77.71-13.53s-51.29,2.27-77.77,13.28a3.84,3.84,0,0,1-4.21-.85c-9.31-9.43-26.24-20.65-42.12-27.93C59.28,7.66,45.9,5.57,41.34,10c-14.13,13.66-10,87.64.55,115.92a3.82,3.82,0,0,1-.17,3.07C32,148.35,25.43,174.62,25.29,175.21a.83.83,0,0,1,0,.15c0,.07-2.09,8-8.86,44.8-1.31,7.07-3.83,14-5.85,19.49-1.28,3.5-2.87,7.84-2.86,9.19,1.52.44,6.75-.53,14.19-4.18a4.17,4.17,0,0,1,4.43.48,4.29,4.29,0,0,1,1.48,4.33,54.79,54.79,0,0,1-3.5,9.63l-.32.71c-1.66,3.67-3.72,8.25-3.17,9.66.22.57,2.88,2,9.05,1.34,7.35-.81,13.82,6.77,19.31,14a116.74,116.74,0,0,0,19,17.29A130,130,0,0,0,97,317.16ZM7.71,249.05Z" fill="#000072"/><path d="M222,255.38a9.58,9.58,0,0,1-9.52,12.07c-12.52-.14-12.52-15-12.52-15s0,14.87-12.52,15A9.58,9.58,0,0,1,178,255.38s1.37-23.84,22-23.84S222,255.38,222,255.38Z" fill="#fff"/><path d="M116.9,131.59c-1.63-2.71,13-31.78,34.42-24.76,7.83,2.57,6.31,9.5,1.68,11.57-4.41,2-11.14,1.63-16.78,3.79C125.21,126.42,118.53,134.31,116.9,131.59Z" fill="#000072"/><path d="M284.34,133.22c1.8-2.61-10.94-32.57-32.73-27-8,2-6.92,9.07-2.43,11.44,4.27,2.26,11,2.35,16.49,4.88C276.38,127.51,282.54,135.82,284.34,133.22Z" fill="#000072"/><ellipse cx="107.87" cy="255.55" rx="9.09" ry="18.94" transform="translate(-147.85 363.01) rotate(-89.91)" fill="#ff67a0"/><ellipse cx="293.76" cy="255.84" rx="9.09" ry="18.94" transform="translate(37.45 549.2) rotate(-89.91)" fill="#ff67a0"/><g opacity="0.3"><path d="M341,253.16c-.08.13-.14.28-.22.41l.26-.46Z" fill="#6b184e"/></g><path d="M172.78,250.33s4.7,12.56,15.9,9.74c12.75-3.22,11.31-18.4,11.31-18.4" fill="#fff"/><path d="M290.76,232.4c-.46-6.93-1.83-14.14-4.79-19.63a19.61,19.61,0,0,0-13.62-10.37,21.84,21.84,0,0,0-8.8-.5,18.06,18.06,0,0,0-7.91,3.45c-4.92,3.62-8.59,9.65-10.85,16.29l0,.05a2.8,2.8,0,0,1-5.45-1A34.35,34.35,0,0,1,242,208.64a31.51,31.51,0,0,1,7.31-10.72,26.16,26.16,0,0,1,12.09-6.5,29.66,29.66,0,0,1,13.56.22,28.37,28.37,0,0,1,12.25,5.91,27.44,27.44,0,0,1,4.7,5.12,30.17,30.17,0,0,1,3.2,5.93A36.66,36.66,0,0,1,297.61,221a47.67,47.67,0,0,1-.23,6.11c-.12,1-.25,2-.43,3s-.39,1.94-.7,3a2.79,2.79,0,0,1-5.47-.58Z" fill="#000072"/><path d="M106.16,232c-.3-1.1-.48-2-.67-3.05s-.28-2-.39-3a47.93,47.93,0,0,1-.15-6.12,36.46,36.46,0,0,1,2.68-12.4,30.75,30.75,0,0,1,3.27-5.89,26.8,26.8,0,0,1,4.77-5.05A28.34,28.34,0,0,1,128,190.73a29.84,29.84,0,0,1,13.56,0,26.14,26.14,0,0,1,12,6.65,31.46,31.46,0,0,1,7.18,10.81,34.17,34.17,0,0,1,2.5,12.1,2.8,2.8,0,0,1-5.46.92v0c-2.18-6.67-5.78-12.75-10.65-16.43a18.23,18.23,0,0,0-7.87-3.55,22,22,0,0,0-8.81.39,19.6,19.6,0,0,0-13.74,10.21c-3,5.45-4.48,12.65-5,19.57v.21a2.79,2.79,0,0,1-5.48.51Z" fill="#000072"/><path d="M227.57,250.67s-4.86,12.5-16,9.54c-12.71-3.37-11.09-18.54-11.09-18.54" fill="#fff"/><path d="M172.78,250.4s4.7,12.56,15.9,9.74c12.75-3.22,11.31-18.4,11.31-18.4" fill="#fff"/><path d="M219.81,258.82a32.6,32.6,0,0,1-2,10.54c-3.08,8.75-9.49,17.22-17.4,17.22s-14.31-8.47-17.39-17.22a32.6,32.6,0,0,1-2-10.54l19.65-12Z" fill="#000072"/><path d="M217.79,269.36c-3.08,8.75-9.49,17.22-17.4,17.22s-14.31-8.47-17.39-17.22a13.17,13.17,0,0,1,17.39.08,13.18,13.18,0,0,1,17.4-.08Z" fill="#ff67a0"/><path d="M200.4,289.6c-13,0-22.44-18.39-22.44-30.78a22.44,22.44,0,1,1,44.87,0C222.83,271.21,213.41,289.6,200.4,289.6Zm0-47.17A16.41,16.41,0,0,0,184,258.82c0,9.54,7.5,24.74,16.39,24.74s16.39-15.2,16.39-24.74A16.41,16.41,0,0,0,200.4,242.43Z" fill="#000072"/><path d="M172.78,250.4s4.7,12.56,15.9,9.74c12.75-3.22,11.31-18.4,11.31-18.4S200.74,225,186.36,225,172.78,250.4,172.78,250.4Z" fill="#fff"/><path d="M227.57,250.74s-4.86,12.5-16,9.54c-12.71-3.37-11.09-18.54-11.09-18.54s-5.07-17.85,11.45-17.85S227.57,250.74,227.57,250.74Z" fill="#fff"/><path d="M229.4,251.46a18.52,18.52,0,0,1-1.12,2.91,23,23,0,0,1-1.55,2.66,16.66,16.66,0,0,1-4.61,4.51,14,14,0,0,1-6.5,2.16,15.94,15.94,0,0,1-3.4-.22,14.45,14.45,0,0,1-1.64-.35l-1.55-.54a15.84,15.84,0,0,1-9.26-8.95,19.86,19.86,0,0,1-1.48-6,21.68,21.68,0,0,1-.1-3,20.88,20.88,0,0,1,.31-3.06,2,2,0,0,1,3.91.24V242a28.81,28.81,0,0,0,.7,4.89,18.43,18.43,0,0,0,1.63,4.49,11.31,11.31,0,0,0,6.39,5.63l1.05.36c.35.1.71.12,1.06.21a10.44,10.44,0,0,0,2.07.2,9.32,9.32,0,0,0,3.89-1.08,13.3,13.3,0,0,0,3.57-2.77,23.71,23.71,0,0,0,1.57-1.86c.5-.64,1-1.39,1.38-2l.13-.2a2,2,0,0,1,3.54,1.63Z" fill="#000072"/><path d="M174.66,250c.38.6.88,1.35,1.38,2a21.72,21.72,0,0,0,1.57,1.86,13.42,13.42,0,0,0,3.56,2.77,9.36,9.36,0,0,0,3.9,1.08,10.51,10.51,0,0,0,2.07-.2c.35-.09.7-.11,1.06-.21l1.05-.36a11.31,11.31,0,0,0,6.39-5.63,18.85,18.85,0,0,0,1.63-4.49A29.85,29.85,0,0,0,198,242v-.18a2,2,0,0,1,3.91-.24,20.94,20.94,0,0,1,.32,3.06,21.68,21.68,0,0,1-.1,3,19.86,19.86,0,0,1-1.48,6,15.86,15.86,0,0,1-9.27,8.95l-1.54.54a14.93,14.93,0,0,1-1.64.35,15.94,15.94,0,0,1-3.4.22,14.06,14.06,0,0,1-6.51-2.16,16.76,16.76,0,0,1-4.6-4.51,23,23,0,0,1-1.55-2.66,17.59,17.59,0,0,1-1.12-2.91,2,2,0,0,1,3.53-1.64Z" fill="#000072"/><path d="M215.61,233.88c0,3.59-4.73,6.73-9,8.86a15.42,15.42,0,0,1-14-.09c-4.29-2.18-8.95-5.38-8.93-9C183.68,222.84,215.68,223.05,215.61,233.88Z" fill="#000072"/><g opacity="0.5"><path d="M206,231.69c0,1-1.87,1.94-3.58,2.55a8.17,8.17,0,0,1-5.56,0c-1.7-.64-3.56-1.56-3.55-2.6C193.3,228.49,206,228.57,206,231.69Z" fill="#fff"/></g><g opacity="0.25"><path d="M226.59,252.74c-1.92,3.4-6.74,9.75-15,7.55-12.71-3.39-11.09-18.55-11.09-18.55l3,1a19.47,19.47,0,0,0,12.87,10.32A16.64,16.64,0,0,0,226.59,252.74Z" fill="#000072"/></g><g opacity="0.25"><path d="M188.67,260.14c-8.29,2.08-13-4.26-14.91-7.69a16.46,16.46,0,0,0,10.08.41,19.4,19.4,0,0,0,12.95-10.1l3.21-1S201.42,256.92,188.67,260.14Z" fill="#000072"/></g><path d="M203.89,267.11s-2.32.68-3.5,6.6c-1.17-5.92-3.49-6.6-3.49-6.6l3.49-3Z" fill="#000072"/></g></g></svg>