<svg viewBox="0 0 24 24" fill="none" xmlns="http://www.w3.org/2000/svg">
  <path
    d="M8.667 3h5.919L8.442 21.203a.944.944 0 0 1-.894.642H2.942a.942.942 0 0 1-.893-1.243l5.724-16.96A.944.944 0 0 1 8.667 3Z"
    fill="#01579B" />
  <path d="M17.267 15.21H7.883a.434.434 0 0 0-.297.752l6.03 5.628a.948.948 0 0 0 .647.255h5.314l-2.31-6.635Z"
    fill="#1976D2" />
  <path
    d="M16.226 3.641a.942.942 0 0 0-.892-.64H8.738c.404 0 .763.257.893.64l5.724 16.96a.942.942 0 0 1-.893 1.244h6.596a.942.942 0 0 0 .893-1.243l-5.725-16.96Z"
    fill="#29B6F6" />
</svg>