<svg xmlns="http://www.w3.org/2000/svg" viewBox="0 0 32 32">
  <g>
    <path d="M3.97942,22.01048H5.78275V26.218H9.99028v1.80333H3.97942Z" style="fill: #64b5f6"/>
    <path d="M3.97942,10.99121V16.5016l3.50552,3.60968L8.98784,18.505l4.50795,4.508-1.50215,1.50214,3.50627,3.50552H21.0103a1.00141,1.00141,0,0,0,1.00093-1.00169V19.00543l-9.0159-9.01591H4.98186A1.00173,1.00173,0,0,0,3.97942,10.99121Z" style="fill: #1565c0"/>
    <path d="M8.31678,18.43929a1.00243,1.00243,0,0,1-.12455-1.26437l8.215-12.30478a2.0026,2.0026,0,0,1,1.66595-.89147h8.9457a1.00157,1.00157,0,0,1,1.00169,1.00168v8.94571a2.00351,2.00351,0,0,1-.89072,1.6667l-12.30478,8.215a1.00245,1.00245,0,0,1-1.26513-.1253Z" style="fill: #1e88e5"/>
    <path d="M8.976,21.54272l7.64843-7.64844,1.481,1.481L10.457,23.02372Z" style="fill: #0a44c2"/>
    <path d="M8.97576,21.54247l7.64812-7.64812,1.481,1.481-7.64812,7.64812Z" style="fill: #64b5f6"/>
    <path d="M11.67963,21.80139l-1.481-1.481,6.426-6.426,1.481,1.481Z" style="fill: #42a5f5"/>
    <path d="M22.0111,12.9945a3.00558,3.00558,0,1,0-3.00588-3.00528A3.00558,3.00558,0,0,0,22.0111,12.9945Z" style="fill: #0a44c2"/>
    <path d="M22.01123,12.99457a3.0058,3.0058,0,0,0,.09531-6.01085q-.04765-.00077-.09531,0a3.0058,3.0058,0,0,0,0,6.01085Z" style="fill: #90caf9"/>
  </g>
</svg>
