<svg xmlns="http://www.w3.org/2000/svg" viewBox="0 0 32 32">
  <g>
    <path d="M12.0012,4h7.10208l-7.372,23.18145A1.14018,1.14018,0,0,1,10.65791,28H5.1305A1.166,1.166,0,0,1,4,26.80145a1.26614,1.26614,0,0,1,.05973-.38535L10.92914,4.81719A1.14,1.14,0,0,1,12.00249,4Z" style="fill: #01579b"/>
    <path d="M22.32075,20H11.06026a.537.537,0,0,0-.52273.55026.56885.56885,0,0,0,.16666.40745L17.94,27.67394a1.10052,1.10052,0,0,0,.77513.32469h6.3758Z" style="fill: #1976d2"/>
    <path d="M21.07129,4.81583a1.13735,1.13735,0,0,0-1.07077-.81447H12.086a1.13856,1.13856,0,0,1,1.07206.81447l6.86813,21.5989a1.21888,1.21888,0,0,1-.71076,1.52105,1.07182,1.07182,0,0,1-.3613.06285h7.91448A1.16587,1.16587,0,0,0,28,26.801a1.26615,1.26615,0,0,0-.05929-.38489L21.07129,4.81719Z" style="fill: #29b6f6"/>
  </g>
</svg>
