<svg width="213.33" height="213.33" version="1.1" viewBox="0 0 213.33333 213.33333" xmlns="http://www.w3.org/2000/svg">
<g transform="translate(156.37 -19.796)">
<path d="m-108.88 220.45c-.87547-.40608-1.2613-1.5995-.85735-2.6522.40393-1.0526.12022-1.9138-.63046-1.9138s-1.6143.7484-1.9192 1.6631c-.32771.98314-1.2695.30173-2.3035-1.6667-.96204-1.8314-3.7188-5.5331-6.1261-8.226-9.4179-10.535-7.71-27.444 5.4313-53.77 12.459-24.96 23.117-39.033 45.966-60.696 30.229-28.661 52.679-46.223 70.587-55.221 10.981-5.5172 13.025-5.058 2.7781.62414-11.004 6.1023-11.378 6.3594-10.512 7.226.32971.32971 7.3066-2.6703 15.504-6.6667 15.871-7.7371 16.341-7.912 16.341-6.0814 0 .65162-4.95 3.7373-11 6.8572-13.063 6.7365-12.723 6.4809-10.473 7.872 1.1173.69052 5.4282-.5817 11.541-3.4058 5.3664-2.4794 10.396-4.5081 11.178-4.5081 2.7549 0-3.9275 5.3026-11.541 9.1577-20.437 10.349-68.937 46.043-68.07 50.097.16609.77678-5.7922 7.6383-13.241 15.248-15.257 15.587-26.139 30.002-33.748 44.706-6.3784 12.326-7.4571 17.734-5.3843 26.996 3.482 15.559 11.592 18.366 31.482 10.895 28.228-10.603 45.758-28.704 47.022-48.556.60122-9.442-1.317-13.479-8.52-17.931-4.0104-2.4786-5.2689-2.6209-12.065-1.3646-4.1732.77145-10.153 2.9061-13.289 4.7437s-6.4556 3.3411-7.3778 3.3411c-.92215 0-3.2153 1.3355-5.0959 2.9677s.48073-1.1309 5.2474-6.1403c6.8193-7.1666 7.9562-8.9 5.3333-8.1321-5.208 1.5248-10.194 4.3295-15.649 8.8035-2.7599 2.2636-.92388.17488 4.08-4.6415 11.565-11.131 21.183-15.969 33.088-16.641 17.097-.96609 27.254 5.8054 31.964 21.31 2.435 8.0166 2.6081 10.24 1.3523 17.37-1.649 9.3613-7.0335 21.553-15.593 35.307-4.3981 7.0666-8.4338 11.427-15.588 16.844-9.166 6.9394-15.654 11.02-15.654 9.8448 0-.29501 2.455-2.1611 5.4557-4.1468 8.8178-5.8353 5.0746-5.3771-8.3262 1.0192-6.8546 3.2718-15.199 6.5934-18.542 7.3813-7.1065 1.6747-30.527 3.1637-32.846 2.0882zm-8.4082-19.899c0-1.1-.6-2-1.3333-2-.73334 0-1.3333.9-1.3333 2s.6 2 1.3333 2c.73333 0 1.3333-.9 1.3333-2zm89.255-8.2035c1.5302-1.9453 2.4737-3.8453 2.0968-4.2222-.37693-.37693-.83534-.43533-1.0187-.12973-.18333.30556-1.7879 2.2056-3.5658 4.2222-1.7778 2.0167-2.5714 3.6667-1.7634 3.6667s2.7209-1.5916 4.2511-3.5369zm-77.644-1.7456c-.81984-2.172-1.7398-3.7-2.0443-3.3954-.95148.95149 1.0878 7.3445 2.3428 7.3445.65567 0 .52133-1.7771-.29851-3.9491zm82.303-27.915c-.83692-.83692-3.2169 2.5495-3.1842 4.5307.0121.73333.8967.17713 1.9658-1.236 1.0691-1.4131 1.6174-2.8958 1.2184-3.2947zm-66.238-36.904c-1.3122-1.3122-3.676.70225-3.676 3.1328 0 2.0353.17538 2.0316 2.254-.0469 1.2397-1.2397 1.8796-2.6283 1.422-3.0859zm39.657.76843c4.4031-2.196 6.801-3.9864 5.3333-3.982-2.8378.009-16.667 6.0273-16.667 7.254 0 1.5997 3.7174.52645 11.333-3.272zm16.667-5.3333c0-.73333-.9-1.3333-2-1.3333s-2 .6-2 1.3333c0 .73334.9 1.3333 2 1.3333s2-.6 2-1.3333zm-3.3333-3.9235 5.3333-1.1032-7.3333-.13292c-4.0333-.0731-8.2333.44872-9.3333 1.1596-2.5388 1.6407 3.5715 1.682 11.333.0765zm35.737-63.976c2.7886-1.6891 4.7657-3.3755 4.3936-3.7476-.94674-.94675-11.942 5.6544-14.237 8.5476-1.7916 2.2584-1.714 2.2762 1.4396.32913 1.8333-1.1319 5.6149-3.44 8.4035-5.1291z" fill="#ffca28" stroke-width="1.3333"/>
</g>
</svg>
