<?xml version="1.0" encoding="UTF-8"?>
<svg version="1.1" viewBox="0 0 32 32" xmlns="http://www.w3.org/2000/svg" xmlns:cc="http://creativecommons.org/ns#" xmlns:dc="http://purl.org/dc/elements/1.1/" xmlns:rdf="http://www.w3.org/1999/02/22-rdf-syntax-ns#">
 <metadata>
  <rdf:RDF>
   <cc:Work rdf:about="">
    <dc:format>image/svg+xml</dc:format>
    <dc:type rdf:resource="http://purl.org/dc/dcmitype/StillImage"/>
    <dc:title/>
    <dc:source>https://github.com/jesseweed/seti-ui</dc:source>
   </cc:Work>
  </rdf:RDF>
 </metadata>
 <path d="m26.634 2.8679-3.0725 1.7557s0 0.14631 0.14631 0.14631l3.0725-1.3168c0 0.14631 0.14631 0.14631 0.14631 0.29262-0.43892 0.29262-0.87785 0.73154-1.4631 1.0242-3.0725 2.0483-6.4376 3.804-8.9248 6.2913-2.7799 2.7799-5.706 5.5597-7.608 9.2174-0.73154 1.3168-1.0242 2.7799-0.43892 4.2429 0.43892 1.0242 1.1705 1.6094 2.1946 1.3168 3.0725-0.73154 5.706-2.0483 7.4617-4.6819 0.58523-0.73154 0.87785-1.7557 0.87785-2.7799 0.14631-1.6094-1.0242-2.7799-2.6335-2.3409-1.4631 0.43892-2.9262 1.1705-4.2429 1.7557 0.43892-0.58523 1.1705-1.3168 1.7557-1.902l-0.14631-0.14631c-0.87785 0.58523-1.6094 1.1705-2.4872 1.7557 1.0242-2.6335 5.2671-4.3892 7.9006-3.5114 2.0483 0.73154 3.0725 3.3651 2.6335 5.1208-0.73154 3.6577-2.4872 6.8765-5.9986 8.6322-1.3168 0.73154-3.0725 0.87785-4.6819 1.1705-0.73154 0.29262-1.6094 0.29262-2.6335 0.29262-0.87785 0-1.4631-0.43892-2.0483-1.1705-2.4872-2.6335-1.3168-5.1208-0.29262-7.7543 2.1946-4.9745 5.8523-8.4859 9.8027-11.997 1.4631-1.1705 2.9262-2.3409 4.3892-3.3651 1.902-1.3168 3.804-2.3409 6.2913-2.0483z" fill="#ffca28" stroke-width="1.4631"/>
</svg>
