<svg xmlns="http://www.w3.org/2000/svg" version="1.1" viewBox="0 0 24 24"><path d="m13.38 2 .01.01c-3.22 0-5.83 2.56-5.83 5.74c0 1.05.3 2.04.8 2.89c1.46.93 3.19 1.46 5.04 1.49c1.8-.01 3.54-.56 5.02-1.49c.26-.43.46-.89.6-1.37c.06-.23.11-.46.14-.7c.01-.04.01-.08.02-.12c.03-.21.04-.42.04-.64c0-.01 0-.02 0-.02c0-.01 0-.03 0-.04c0-.05 0-.1 0-.15c0-.11-.01-.23-.02-.34c0-.05-.01-.1-.01-.16c0-.01 0-.03-.01-.04c-.02-.14-.04-.28-.06-.41c-.01-.04-.02-.09-.03-.13C18.52 3.94 16.19 2 13.39 2ZM4.21 8.18c-.43 0-.73.13-.93.26c-.05.03-.07.06-.1.08c.92.42 1.66.63 2.13.63c.3 0 .5-.06.66-.13c.03-.02.06-.04.09-.06l.09-.05C5.34 8.43 4.67 8.18 4.21 8.18ZM6.38 9.6C4.52 10.56 5.11 11.63 5.11 11.63C6.85 10.37 6.38 9.6 6.38 9.6Zm14.43.62c-.41.41-.87.78-1.35 1.12c-1.12.78-2.4 1.37-3.79 1.68c-.73.16-1.48.25-2.25.26h-.01c-.77 0-1.52-.1-2.25-.26C9.79 12.71 8.5 12.13 7.38 11.35C7.19 11.21 7 11.05 6.82 10.9c-.11.17-.25.35-.43.54c.13.44.27.89.43 1.34c.29.64 1.65 2.66 6.51 3.27c.08.01.09.12.02.15c-.71.26-2.45.94-4.03.24c.26.29.93.75 2.64.94c.07.01.09.11.02.14C11.53 17.71 10.41 18.09 9.32 17.68C10.4 19.24 11.74 20.72 13.42 22c2.72-2.09 4.56-4.69 5.8-7.31c-.66.37-1.32.42-1.88.35c-.61-.08-1.13-.31-1.43-.47c-.08-.03-.04-.15.04-.15c2.06.01 3.38-.94 4.03-1.59l.02-.02.01-.02c.32-.86.58-1.71.83-2.55l-.02.02c0-.01.01-.02.01-.04z" fill="#ffca28"/><path d="m14.72 4.75c-.98 0-1.77.78-1.77 1.75c0 .96.79 1.75 1.77 1.75c.98 0 1.77-.78 1.77-1.75c0-.96-.79-1.75-1.77-1.75zm-2.76 3.82c-.45 0-.83.36-.83.82c0 .45.36.82.83.82c.45 0 .83-.36.83-.82c0-.45-.36-.82-.83-.82z" fill="#eeeeee"/><path d="m13.38 3.94c2.13 0 3.86 1.7 3.86 3.8c0 2.1-1.72 3.8-3.86 3.8c-2.13 0-3.86-1.7-3.86-3.8c-.01-2.1 1.72-3.8 3.86-3.8zm1.33.81c-.98 0-1.77.78-1.77 1.75c0 .96.79 1.75 1.77 1.75c.98 0 1.77-.78 1.77-1.75c0-.96-.79-1.75-1.77-1.75zm-1.92 4.63c0-.45-.37-.82-.83-.82c-.47 0-.83.36-.83.82c0 .45.37.82.83.82c.47 0 .83-.37.83-.82z" fill="#212121"/></svg>
