<svg xmlns="http://www.w3.org/2000/svg" version="1.1" viewBox="0 0 24 24"><circle cx="13.314" cy="8.148" fill="#ffca28" r="5.143"/><path d="m 16.05 7.04 c 0 0.85 -0.7 1.54 -1.56 1.54 -0.86 0 -1.56 -0.69 -1.56 -1.54 0 -0.85 0.7 -1.54 1.56 -1.54 0.86 0 1.56 0.69 1.56 1.54 z" fill="#f5f5f5"/><path d="m 12.06 8.87 c 0.41 0 0.73 0.32 0.73 0.72 0 0.4 -0.33 0.72 -0.73 0.72 -0.41 0 -0.73 -0.32 -0.73 -0.72 0 -0.4 0.33 -0.72 0.73 -0.72 z" fill="#f5f5f5"/><path d="m 13.33 12.59 h -0.01 -0.01 C 10.59 12.56 8.1 11.41 6.29 9.59 7.24 13.41 9.23 17.91 13.33 21.13 c 4.09 -3.21 6.07 -7.7 7.03 -11.51 -1.9 1.89 -4.38 2.94 -7.03 2.97 z" fill="#ffca28"/><path d="m 20.75 8.59 v 0 C 20.72 8.56 20.7 8.54 20.67 8.52 20.56 8.42 20.41 8.33 20.24 8.27 c -0.01 0 -0.01 0 -0.01 -0.01 -0.19 -0.06 -0.42 -0.09 -0.69 -0.05 V 8.14 C 19.55 4.76 16.76 2 13.32 2 h -0.01 -0.01 C 9.87 2 7.08 4.76 7.08 8.14 v 0.07 C 6.81 8.18 6.59 8.2 6.39 8.27 6.22 8.32 6.07 8.41 5.94 8.52 c -0.02 0.02 -0.05 0.04 -0.07 0.06 l -0.01 0.01 C 5.57 8.87 5.47 9.29 5.56 9.69 c 0.02 0.11 0.05 0.23 0.08 0.35 C 6.54 13.89 8.6 18.73 13.31 22 v -0.01 c 4.71 -3.27 6.76 -8.11 7.66 -11.96 0.02 -0.12 0.06 -0.23 0.08 -0.35 0.1 -0.39 -0.01 -0.82 -0.3 -1.1 z M 13.31 3.08 v 0 0 h 0.01 v 0 c 2.84 0 5.14 2.27 5.14 5.06 0 0.93 -0.25 1.81 -0.71 2.56 -0.01 0 0.01 0 0 0 -0.01 0.02 0.01 -0.01 0 0 -1.31 0.82 -2.84 1.3 -4.43 1.31 -1.63 -0.02 -3.15 -0.49 -4.44 -1.31 C 8.44 9.95 8.18 9.08 8.18 8.15 c 0 -2.8 2.3 -5.06 5.14 -5.06 z m 5.82 9.54 c -0.01 0.01 -0.02 0.02 -0.02 0.02 -0.57 0.57 -1.73 1.41 -3.55 1.4 -0.07 0 -0.1 0.1 -0.03 0.13 0.26 0.14 0.72 0.34 1.26 0.41 0.5 0.06 1.08 0.02 1.66 -0.31 -1.09 2.31 -2.71 4.6 -5.11 6.44 -1.48 -1.13 -2.66 -2.43 -3.61 -3.81 0.96 0.36 1.95 0.03 2.36 -0.15 0.06 -0.02 0.04 -0.11 -0.02 -0.12 -1.51 -0.17 -2.1 -0.57 -2.33 -0.83 1.39 0.62 2.92 0.02 3.55 -0.21 0.06 -0.02 0.05 -0.12 -0.02 -0.13 -4.29 -0.54 -5.48 -2.32 -5.74 -2.88 -0.28 -0.76 -0.52 -1.52 -0.7 -2.25 0.37 0.36 0.77 0.69 1.19 0.99 0.99 0.69 2.12 1.2 3.34 1.48 0.64 0.14 1.3 0.23 1.98 0.23 h 0.01 v 0 c 0.68 -0.01 1.34 -0.09 1.98 -0.23 1.22 -0.27 2.35 -0.79 3.34 -1.48 0.42 -0.3 0.83 -0.63 1.19 -0.99 0 0.02 -0.01 0.03 -0.01 0.04 0.01 -0.01 0.01 -0.01 0.02 -0.02 -0.22 0.74 -0.45 1.49 -0.73 2.25 z" fill="#212121"/><path d="m 5.74 11.72 c -0.02 -0.04 -0.21 -0.4 -0.06 -0.9 C 5.83 10.32 6.28 9.88 6.99 9.51 L 7.25 9.37 7.4 9.62 c 0.06 0.09 0.5 0.96 -1.2 2.2 l -0.29 0.21 z" fill="#ffca28" stroke="#212121" stroke-miterlimit="10" stroke-width="0.28"/><path d="m 5.57 11.81 C 5.53 11.73 5.33 11.32 5.5 10.76 5.67 10.21 6.14 9.73 6.9 9.33 L 7.33 9.11 7.58 9.52 C 7.68 9.7 8.13 10.66 6.32 11.97 L 5.85 12.31 Z M 7.08 9.68 c -0.66 0.35 -1.08 0.75 -1.21 1.2 -0.14 0.43 0.03 0.74 0.04 0.75 l 0.06 0.12 0.11 -0.08 C 7.68 10.5 7.26 9.75 7.24 9.72 L 7.19 9.62 z" fill="#212121" stroke-width="0.08"/><path d="m 7.28 9.27 0.19 0.31 c 0.1 0.16 0.49 1.04 -1.23 2.29 L 5.89 12.14 5.67 11.75 C 5.65 11.71 5.45 11.32 5.61 10.8 5.77 10.28 6.22 9.82 6.96 9.44 L 7.28 9.27 M 5.94 11.93 6.16 11.77 C 7.82 10.57 7.39 9.76 7.35 9.66 L 7.23 9.47 7.03 9.57 C 6.33 9.93 5.9 10.35 5.76 10.84 c -0.14 0.46 0.03 0.8 0.05 0.84 l 0.13 0.24 M 7.38 8.96 6.85 9.23 C 6.06 9.64 5.57 10.15 5.39 10.73 c -0.18 0.6 0.03 1.05 0.08 1.13 l 0.34 0.63 0.58 -0.42 C 8.29 10.69 7.8 9.66 7.69 9.46 Z M 6.02 11.57 c 0 0 -0.52 -0.94 1.12 -1.79 0 0 0.41 0.68 -1.12 1.79 z" fill="#212121" stroke-width="0.08"/><path d="m 6.19 9.84 c -0.63 0 -1.4 -0.22 -2.29 -0.66 L 3.59 9.02 3.79 8.73 c 0.02 -0.02 0.46 -0.64 1.43 -0.64 0.65 0 1.38 0.27 2.16 0.82 L 7.63 9.07 7.47 9.33 C 7.43 9.37 7.11 9.84 6.19 9.84 z" fill="#ffca28" stroke="#212121" stroke-width="0.7" stroke-miterlimit="10"/><path d="m 5.22 8.39 c 0.49 0 1.14 0.18 1.98 0.76 0 0 -0.24 0.38 -1.01 0.38 -0.49 0 -1.17 -0.15 -2.14 -0.63 -0.01 0 0.35 -0.51 1.17 -0.51 m 0 -0.62 v 0 c -1.12 0 -1.64 0.7 -1.7 0.78 L 3.12 9.14 3.76 9.45 c 0.93 0.46 1.74 0.69 2.42 0.69 1.06 0 1.47 -0.55 1.54 -0.66 L 8.04 8.99 7.55 8.65 C 6.73 8.07 5.94 7.77 5.22 7.77 z" fill="#212121" stroke="#212121" stroke-width="0.28" stroke-miterlimit="10"/><path d="m 13.31 4.79 c 1.88 0 3.4 1.5 3.4 3.35 0 1.85 -1.52 3.35 -3.4 3.35 -1.88 0 -3.4 -1.5 -3.4 -3.35 -0.01 -1.85 1.52 -3.35 3.4 -3.35 z m 1.17 0.71 c -0.86 0 -1.56 0.69 -1.56 1.54 0 0.85 0.7 1.54 1.56 1.54 0.86 0 1.56 -0.69 1.56 -1.54 0 -0.85 -0.7 -1.54 -1.56 -1.54 z m -1.69 4.09 c 0 -0.4 -0.33 -0.72 -0.73 -0.72 -0.41 0 -0.73 0.32 -0.73 0.72 0 0.4 0.33 0.72 0.73 0.72 0.41 0 0.73 -0.33 0.73 -0.72 z" fill="#212121"/></svg>