<svg viewBox="0 0 1024 1024" xmlns="http://www.w3.org/2000/svg"><path d="M128 704v128c0 70.692 57.308 128 128 128h608c17.728 0 32-14.272 32-32V704z" fill="#c62828"/><path d="M704 768v128h128V768z" fill="#ffe082"/><path d="M224 768c-9.71 0-19.062 1.46-27.883 4.117A96.506 96.506 0 00192 800c0 53.184 42.816 96 96 96h544c-53.02 0-96-42.98-96-96a96 96 0 016.129-32z" fill="#fff8e1"/><path d="M320 832h192v192l-96-96-96 96z" fill="#ff1744"/><path d="M256 64a128 128 0 00-128 128v640c0 5.8.52 11.468 1.268 17.064C136.418 803.043 175.912 768 224 768h640c17.728 0 32-14.272 32-32V96c0-17.728-14.272-32-32-32z" fill="#f44336"/><path d="M256 192c-70.912 0-128 57.088-128 128v64c0-70.912 57.088-128 128-128h448v320H256c-70.912 0-128 57.088-128 128v64c0-70.912 57.088-128 128-128h512V192z" fill="#ffeb3b"/></svg>