<?xml version="1.0" encoding="UTF-8"?>
<svg id="Layer_2" data-name="Layer 2" xmlns="http://www.w3.org/2000/svg" viewBox="0 0 125.477 154.348">
  <defs>
    <style>
      /* Ganti #e6e7e8 -> #ECEFF1 (Grey terang) */
      .cls-1 {
        fill: #ECEFF1;
      }

      /* Ganti stroke #231f20 -> #212121 (Hitam Material) */
      .cls-1, .cls-2, .cls-3 {
        stroke: #212121;
        stroke-linecap: round;
        stroke-miterlimit: 10;
      }

      .cls-2 {
        fill: none;
      }

      /* Ganti #f15a24 -> #F4511E (Deep Orange) */
      .cls-4 {
        fill: #F4511E;
      }

      /* Ganti #c7b299 -> #BCAAA4 (Brown terang) */
      .cls-3 {
        fill: #BCAAA4;
      }

      /* Pastikan garis outline juga hitam material */
      .outline-fix {
        fill: #212121;
      }
    </style>
  </defs>
  <g id="Layer_1-2" data-name="Layer 1">
    <g>
      <g>
        <path class="cls-4" d="M57.91,153.848c-15.837,0-33.459-9.766-44.893-24.88C1.329,113.518-2.339,95.213,2.689,77.424,13.445,39.374,45.107,11.038,58.221.621c.136-.108.236-.121.299-.121,1.514,0,4.386,6.325,7.711,13.649,8.251,18.174,22.062,48.592,47.123,63.569,10.007,5.979,13.587,14.421,10.642,25.091-6.667,24.153-45.082,51.039-66.086,51.039Z"/>
        <path fill="#212121" d="M58.545,1.006c1.306.299,4.453,7.23,7.233,13.352,8.276,18.227,22.127,48.734,47.321,63.789,9.789,5.85,13.294,14.102,10.416,24.529-6.619,23.98-44.754,50.672-65.605,50.672-15.687,0-33.152-9.688-44.494-24.681C1.825,113.344-1.814,95.195,3.171,77.561,13.883,39.665,45.43,11.423,58.545,1.006M58.52,0c-.212,0-.416.075-.61.229C45.798,9.851,13.217,38.344,2.209,77.289c-11.623,41.116,24.938,77.059,55.702,77.059s93.761-54.316,55.702-77.059C77.072,55.453,64.298-.001,58.52,0h0Z"/>
      </g>
      <rect class="cls-3" x="41.068" y="61.547" width="34.463" height="82.643"/>
      <rect class="cls-1" x="45.891" y="67.41" width="24.817" height="19.528"/>
      <line class="cls-2" x1="76.046" y1="114.57" x2="85.891" y2="102.479"/>
      <line class="cls-2" x1="85.891" y1="102.479" x2="80.969" y2="86.938"/>
    </g>
  </g>
</svg>