<svg viewBox="0 0 1024 1024" xmlns="http://www.w3.org/2000/svg"><path d="M96 832h832c17.728 0 32 14.272 32 32v64c0 17.728-14.272 32-32 32H96c-17.728 0-32-14.272-32-32v-64c0-17.728 14.272-32 32-32z" fill="#795548"/><path d="M160 192h64c17.728 0 32 14.272 32 32v512c0 17.728-14.272 32-32 32h-64c-17.728 0-32-14.272-32-32V224c0-17.728 14.272-32 32-32z" fill="#4caf50"/><path d="M352 64c-17.728 0-32 14.272-32 32v96h192V96c0-17.728-14.272-32-32-32zm-32 192v320h192V256zm0 384v96c0 17.728 14.272 32 32 32h128c17.728 0 32-14.272 32-32v-96z" fill="#f44336"/><path d="M320 192v64h192v-64zm0 384v64h192v-64z" fill="#ffeb3b"/><path d="M768 320v32c0 17.673-14.327 32-32 32-17.673 0-32 14.327-32 32v64c0 17.673-14.327 32-32 32-17.673 0-32 14.327-32 32v32c0 35.346-28.654 64-64 64v96c0 17.728 14.272 32 32 32h256c17.728 0 32-14.272 32-32V352c0-17.728-14.272-32-32-32z" fill="#bbdefb"/><path d="M608 320a32 32 0 00-32 32v288a64 64 0 0064-64v-32a32 32 0 0132-32 32 32 0 0032-32v-64a32 32 0 0132-32 32 32 0 0032-32v-32z" fill="#2196f3"/><path d="M742.79 337.459l175.777 79.88c8.115 3.688 11.67 13.169 7.97 21.258-3.7 8.089-13.211 11.632-21.326 7.944l-175.778-79.88c-8.115-3.688-11.67-13.169-7.97-21.258 3.7-8.089 13.211-11.632 21.326-7.944z"/></svg>