<svg width="512" height="512" xmlns="http://www.w3.org/2000/svg" class="svg-inline--fa fa-bitbucket fa-w-16">

 <g>
  <title>background</title>
  <rect fill="none" id="canvas_background" height="402" width="582" y="-1" x="-1"/>
 </g>
 <g>
  <title>Layer 1</title>
  <path id="svg_1" d="m23.1,32c-8.9,-0.1 -16.1,6.9 -16.2,15.8c0,0.9 0.1,1.8 0.2,2.8l67.8,411.4c1.7,10.4 10.7,18 21.2,18.1l325.1,0c7.9,0.1 14.7,-5.6 16,-13.4l67.8,-416c1.4,-8.7 -4.5,-16.9 -13.2,-18.3c-0.9,-0.1 -1.8,-0.2 -2.8,-0.2l-465.9,-0.2zm285.3,297.3l-103.8,0l-28.1,-146.8l157,0l-25.1,146.8z" fill="#1565c0"/>
 </g>
</svg>