<svg xmlns="http://www.w3.org/2000/svg" viewBox="0 0 32 32"><path d="M26.72606,12.01715l.01258-.01623L16.96611,4.4173a1.987,1.987,0,0,0-2.78784.35156l-.016.02069a1.987,1.987,0,0,0,.35156,2.78784l3.01984,2.34345c-.11139.02612-.224.04925-.33386.07885H8.0125a2,2,0,1,0,0,4h3.49341q-.03387.05055-.067.10138L2.79912,20.69562a2,2,0,1,0,2.42694,3.17962L10.12767,20.134c.69916,4.44611,4.85187,7.86572,9.88483,7.86572,5.52283,0,10-4.1134,10-9.1875A8.84261,8.84261,0,0,0,26.72606,12.01715ZM20.0125,23.99969a6,6,0,1,1,6-6A6,6,0,0,1,20.0125,23.99969Z" style="fill:#ff9800"/><circle cx="20.0125" cy="17.9997" r="4" style="fill:#ff9800"/></svg>