<?xml version="1.0" encoding="UTF-8" standalone="no"?>
<svg
   viewBox="0 0 32 32"
   version="1.1"
   id="svg2"
   sodipodi:docname="blender-fixed.svg"
   inkscape:version="1.4.2 (f4327f4, 2025-05-13)"
   xmlns:inkscape="http://www.inkscape.org/namespaces/inkscape"
   xmlns:sodipodi="http://sodipodi.sourceforge.net/DTD/sodipodi-0.dtd"
   xmlns="http://www.w3.org/2000/svg"
   xmlns:svg="http://www.w3.org/2000/svg">
  <defs
     id="defs2" />
  <sodipodi:namedview
     id="namedview2"
     pagecolor="#ffffff"
     bordercolor="#000000"
     borderopacity="0.25"
     inkscape:showpageshadow="2"
     inkscape:pageopacity="0.0"
     inkscape:pagecheckerboard="0"
     inkscape:deskcolor="#d1d1d1"
     inkscape:zoom="40.481863"
     inkscape:cx="11.931269"
     inkscape:cy="16.525919"
     inkscape:window-width="3840"
     inkscape:window-height="2071"
     inkscape:window-x="-9"
     inkscape:window-y="-9"
     inkscape:window-maximized="1"
     inkscape:current-layer="svg2" />
  <g
     id="g3"
     transform="matrix(0.95956355,0,0,0.95956355,0.8874365,0.70463641)"
     style="stroke:#ff9800;stroke-opacity:1;fill:#ff9800;fill-opacity:1">
    <path
       style="font-variation-settings:normal;vector-effect:none;fill:#ff9800;fill-opacity:1;stroke:#ff9800;stroke-width:0.311754;stroke-linecap:square;stroke-linejoin:round;stroke-miterlimit:3;stroke-dasharray:none;stroke-dashoffset:0;stroke-opacity:1;-inkscape-stroke:none;paint-order:stroke fill markers;stop-color:#000000"
       d="m 19.434158,27.721195 c -0.627355,-0.06093 -0.870667,-0.09164 -1.222711,-0.154341 -2.607481,-0.464403 -4.873255,-1.829591 -6.402624,-3.857749 -0.722038,-0.957523 -1.294861,-2.170561 -1.510838,-3.199423 -0.161111,-0.767499 -0.186612,-1.12722 -0.12479,-1.76033 0.01913,-0.195891 0.02753,-0.36342 0.01865,-0.372286 -0.01342,-0.01342 -2.2169608,1.780491 -5.1499895,4.192529 C 4.2883786,23.189233 4.2940337,23.185118 3.9778253,23.34379 3.2220305,23.723041 2.4567933,23.711462 1.8581618,23.31172 1.4790873,23.058575 1.2684946,22.663849 1.2431605,22.158976 1.2120818,21.53966 1.4616717,20.961469 1.9764467,20.460254 2.1252483,20.31537 9.9474364,14.290805 12.125224,12.643772 c 0.319201,-0.241407 0.581187,-0.450044 0.582192,-0.463639 10e-4,-0.01356 -1.377518,-0.02294 -3.063386,-0.02078 -2.7631753,0.0035 -3.0850151,-0.0012 -3.2661633,-0.04813 C 5.9511424,12.00065 5.6566723,11.77876 5.4916967,11.443483 5.3986427,11.25438 5.388884,11.208166 5.3910929,10.967022 c 0.00181,-0.199872 0.01995,-0.309714 0.072069,-0.43667 0.2110722,-0.514209 0.69032,-0.9213437 1.3363174,-1.1352387 l 0.2194605,-0.07267 5.9777052,-0.01664 c 3.287738,-0.0091 5.985314,-0.02425 5.994614,-0.03355 0.0142,-0.01422 -0.831072,-0.710411 -3.28488,-2.7055293 -0.495167,-0.4026057 -0.652075,-0.558094 -0.760395,-0.7535165 -0.07574,-0.1366317 -0.08914,-0.1961903 -0.08914,-0.3959577 -8e-6,-0.2965688 0.104518,-0.5275173 0.346528,-0.7656957 0.518127,-0.5099158 1.474352,-0.6483229 2.159921,-0.3126311 0.186771,0.09145 9.234985,7.027118 9.829182,7.534295 1.597394,1.36346 2.670452,3.299156 2.99938,5.410599 0.09047,0.580743 0.08284,1.977846 -0.01384,2.539477 -0.334979,1.945312 -1.230234,3.620552 -2.689807,5.033291 -1.613234,1.561468 -3.706784,2.52549 -6.125881,2.820796 -0.272654,0.03329 -1.702118,0.06578 -1.928121,0.04383 z M 20.7666,23.348551 c 0.782468,-0.07144 1.579858,-0.287565 2.252764,-0.610577 0.698936,-0.335505 1.162673,-0.666902 1.729043,-1.235609 0.819814,-0.823199 1.300739,-1.728203 1.525374,-2.870444 0.08521,-0.433302 0.07745,-1.358646 -0.01533,-1.826399 -0.101079,-0.509597 -0.227228,-0.873432 -0.47553,-1.371461 -0.255224,-0.511912 -0.513847,-0.883833 -0.909014,-1.307237 -1.962545,-2.102773 -5.36805,-2.583957 -7.957319,-1.124335 -1.897352,1.069575 -3.002191,2.968225 -2.910937,5.0024 0.144317,3.217018 3.241581,5.665006 6.760946,5.343662 z"
       id="path4" />
    <path
       style="fill:#ff9800;fill-opacity:1;stroke:#ff9800;stroke-width:0.310004;stroke-linecap:square;stroke-linejoin:round;stroke-miterlimit:3;stroke-opacity:1;paint-order:stroke fill markers"
       d="m 19.889032,21.044332 c -1.391078,-0.13385 -2.598791,-0.938826 -3.167655,-2.111342 -0.08422,-0.173579 -0.181622,-0.419918 -0.216462,-0.54742 -0.308769,-1.129993 0.0029,-2.307978 0.842001,-3.182111 0.567535,-0.591251 1.262048,-0.971226 2.104276,-1.151272 0.260884,-0.05577 0.433475,-0.07045 0.845135,-0.0719 0.553554,-0.002 0.799668,0.03414 1.297163,0.190216 1.242237,0.389715 2.198831,1.357478 2.520691,2.550122 0.06952,0.257603 0.08058,0.363489 0.08184,0.783789 0.0012,0.408767 -0.0099,0.529768 -0.07044,0.761828 -0.179223,0.687651 -0.477215,1.188434 -1.011486,1.699834 -0.655679,0.627609 -1.47418,0.987322 -2.457227,1.079891 -0.377145,0.03551 -0.381889,0.0355 -0.767837,-0.0017 z"
       id="path5" />
  </g>
</svg>
