<svg viewBox="0 0 32 32" xmlns="http://www.w3.org/2000/svg">
    <g transform="matrix(1.0332 0 0 1.0332 289.29 47.67)" fill-rule="evenodd">
        <path transform="translate(0 -.019291)"
            d="m-264.08-44.155c-0.15706 0-0.31308 0.01692-0.41821 0.04853-0.54952 0.16529-1.0582 0.85022-1.2214 1.4068-0.0624 0.21297-0.0624 0.63643 0 0.8494 0.1241 0.42325 0.38865 0.5705 2.1738 2.5063 1.0703 1.0866 1.9358 1.9225 1.9358 1.9358 0 0.01496-2.7075 0.0081-6.149 0-4.118-0.0096-6.3165-0.02256-6.4336 0-0.42392 0.08143-0.91061 0.29847-1.0986 0.67722-0.24822 0.50017-0.2372 1.1082 0.0305 1.5708 0.22434 0.38774 0.63317 0.58347 1.0681 0.65561 0.11579 0.01921 1.2889-1.1e-4 2.9037 0 1.845 1.31e-4 2.9037-0.04985 2.9037-0.04985-1.5503 1.6045-3.2116 3.3162-4.7843 4.923-4.8421 4.9117-4.7182 4.7752-4.8443 5.2001-0.068 0.2292-0.0668 0.66277 2e-3 0.89794 0.29201 0.99484 1.434 1.4601 2.3241 0.94868 0.10203-0.05861 0.91831-0.85642 2.3132-2.2658 1.1852-1.1975 2.163-2.1686 2.1738-2.1577 0.0108 0.01094 0.055 0.38835 0.098 0.83837l0.0784 0.8163 0.28969 0.96633 0.28752 0.96412 0.47049 0.8869 0.46831 0.88911 0.63167 0.77659 0.63385 0.7788 0.7188 0.59789c0.39549 0.32859 0.76232 0.62806 0.81682 0.66628s0.46894 0.26997 0.92137 0.51405l0.82335 0.44345 0.91266 0.2846 0.91266 0.2824 0.87563 0.09486c0.48162 0.05161 0.97929 0.09485 1.1065 0.09708 0.12722 0.0022 0.63324-0.03536 1.1239-0.08383l0.89088-0.08825 1.9212-0.58686 0.88652-0.48096 0.88434-0.48096 0.76455-0.63539 0.76236-0.6354 0.62949-0.7788 0.6295-0.77659 0.45741-0.86264 0.45524-0.86264 0.29406-0.97295 0.29405-0.97515 0.1002-1.006 0.098-1.0082-0.196-2.0165-0.28316-0.94206-0.28317-0.94427-0.46613-0.89132-0.46831-0.89352-0.59682-0.73026c-0.5585-0.68377-0.84851-1.0905-5.2385-5.4229-4.0826-4.029-4.7305-4.7894-5.1645-4.9199-0.10513-0.03162-0.26332-0.04853-0.42039-0.04853zm2.9429 9.6564-0.7349 0.0802c-0.6817 0.07304-0.78607 0.09155-1.3866 0.27493-0.56619 0.17289-0.72795 0.24124-1.271 0.52924-0.5362 0.28434-0.69771 0.39224-1.1786 0.78126-0.48286 0.39061-0.62021 0.52468-1.0145 0.99892-0.40744 0.49002-0.49185 0.61709-0.80654 1.2051-0.32401 0.60542-0.36801 0.71406-0.55926 1.354-0.19992 0.66901-0.21153 0.721-0.27039 1.4067-0.0598 0.69738-0.0587 0.72734 0.0116 1.3907 0.0662 0.62886 0.0867 0.72747 0.28194 1.3563 0.18715 0.60277 0.24748 0.74608 0.5454 1.2968 0.28975 0.53559 0.39473 0.69296 0.78805 1.1685 0.39429 0.47669 0.52948 0.60925 1.0099 0.99892 0.48122 0.39032 0.6374 0.49337 1.1855 0.78355 0.57141 0.3025 0.69624 0.35303 1.3311 0.54299 0.6385 0.19104 0.75901 0.21646 1.3496 0.27722 0.35672 0.0367 0.65877 0.06869 0.67019 0.07102 0.0113 0.0023 0.35023-0.02735 0.75339-0.06644 0.6974-0.06762 0.76801-0.08185 1.4351-0.2818 0.63259-0.18962 0.76179-0.24229 1.3311-0.54299 0.55316-0.29215 0.69909-0.38953 1.1856-0.78585 0.47797-0.38939 0.61861-0.52865 1.0076-0.99892 0.39492-0.47744 0.49455-0.62452 0.79499-1.1822 0.30881-0.57318 0.36484-0.70676 0.54771-1.3059 0.18379-0.60218 0.20958-0.72893 0.27269-1.3197 0.0735-0.68823 0.0713-0.8928-0.0231-1.7664-0.0394-0.36353-0.0904-0.58334-0.25652-1.1203-0.18386-0.59441-0.24255-0.73541-0.54771-1.3013-0.30096-0.55815-0.39921-0.70333-0.79729-1.1822-0.3882-0.46699-0.53181-0.60931-1.003-0.99204-0.47704-0.38752-0.63364-0.49105-1.1809-0.78126-0.57369-0.30422-0.6937-0.35294-1.3311-0.54299-0.66535-0.19837-0.73928-0.21252-1.4213-0.27722z"
            fill="#f57c00" />
        <path
            d="m-256.75-27.26a4.3555 4.3555 0 0 1-4.3488 4.3555 4.3555 4.3555 0 0 1-4.3622-4.3422 4.3555 4.3555 0 0 1 4.3355-4.3688 4.3555 4.3555 0 0 1 4.3754 4.3288z"
            fill="#01579b" paint-order="stroke fill markers" />
    </g>
</svg>