<svg version="1.1" viewBox="0 0 32 32" xmlns="http://www.w3.org/2000/svg">
    <g transform="matrix(1.0332 0 0 1.0332 289.29 47.67)" fill="#ff9800" fill-rule="evenodd">
        <path transform="scale(-1)" d="m266.44 27.749a4.8393 4.8393 0 0 1-4.8319 4.8393 4.8393 4.8393 0 0 1-4.8467-4.8245 4.8393 4.8393 0 0 1 4.8171-4.8541 4.8393 4.8393 0 0 1 4.8615 4.8097z" stroke-linejoin="round" stroke-width="1.7598" style="paint-order:stroke fill markers"/>
        <path d="m-257.59-39.216-4.215-4.3082s-1.4402-1.4846-2.9249-0.04438c-1.4846 1.4402-0.0443 2.9249-0.0443 2.9249l0.15952 0.2553c0.67103 0.66832 1.3667 1.3243 2.0377 1.9926h-11.614s-1.9357 0-1.9357 1.9357c0 1.9357 1.9357 1.9357 1.9357 1.9357h3.8715l-5.8072 5.8072-1.2902 1.3645s-1.4549 1.4549 0 2.9098c1.4549 1.4549 2.9098-1e-5 2.9098-1e-5l2.2519-2.3385 0.0613 0.18356c0.0385 0.35735 0.0947 0.70936 0.16755 1.0552 0.87417 4.1489 4.1652 7.4042 8.3222 8.234 0.69311 0.13835 1.4104 0.20936 2.1446 0.20596 5.8733-0.02708 10.615-4.8054 10.597-10.679-2e-5 -5.2764-3.8715-8.6787-6.6274-11.435zm-4.0281 4.6917c3.7374-0.0052 6.773 3.0169 6.7845 6.7543 0.0115 3.7381-3.0067 6.7792-6.7448 6.7959-3.7374 0.01675-6.7824-2.9961-6.8053-6.7335v-0.04159c0-3.7381 3.0275-6.7698 6.7656-6.7751z" stroke-width="1.0686"/>
    </g>
</svg>
