<?xml version="1.0" encoding="utf-8"?>
<!-- Generator: Adobe Illustrator 21.0.0, SVG Export Plug-In . SVG Version: 6.00 Build 0)  -->
<svg version="1.1" id="Layer_1" xmlns="http://www.w3.org/2000/svg" xmlns:xlink="http://www.w3.org/1999/xlink" x="0px" y="0px"
	 viewBox="0 0 256 256" style="enable-background:new 0 0 256 256;" xml:space="preserve">
<style type="text/css">
	.st0{fill:#F9A825;}
</style>
<circle cx="131" cy="127" r="108"/>
<title>website_productpages-logos</title>
<g>
	<g>
		<path class="st0" d="M134.3,11c64.1,1.8,114.5,55.2,112.7,119.3c-1.8,64.1-55.2,114.5-119.3,112.7C63.7,241.2,13.3,188,15,124
			C16.7,59.9,70,9.3,134.1,11C134.1,11,134.2,11,134.3,11z M133.7,23C76.3,21.5,28.5,66.9,27.1,124.4C25.6,181.8,71,229.6,128.4,231
			c57.4,1.5,105.2-43.9,106.6-101.3C236.6,72.2,191.2,24.5,133.7,23C133.8,23,133.7,23,133.7,23z"/>
	</g>
</g>
<path class="st0" d="M141.7,89.6c-4.6,4.4-2.8,14.2,4.3,21.7s16.9,9.8,21.3,5.3c4.4-4.5,3-14.4-4.2-21.9s-17.1-9.7-21.7-5.3
	L141.7,89.6z M199.6,61.7c9.1,9.5,16,20.8,20.4,33.1c0,0,3,8.2-6.5,8.2h-23.2c0,0-7.4-0.6-7.7,5.7c-0.5,7.8-0.3,14.4-0.3,14.4
	c0.3,4.5,2,8.9,4.8,12.4l23.9,25.2c3.9,3.6,4.4,9.5,1.2,13.7c-12.1,20.6-31.5,35.8-54.4,42.7c-7,2.1-7.7-3.6-7.5-7.5
	c0-2.5,2.9-58.1,2.9-58.1c0.8-6-1.1-12.1-5.3-16.5c-7.5-8-12.2-13.1-12.2-13.1s-5.3-5.3-12.9-13.2c-4.2-4.3-10-6.5-16-6.1H48.7
	c-3.8,0-9.6-0.9-7.1-7.8c8.1-22.5,24.3-41.1,45.6-52c4.3-3,10.2-2.2,13.6,1.9l23.9,25.2c3.4,3,7.7,4.8,12.2,5.3
	c0,0,6.5,0.5,14.4,0.4c6.2,0,6.1-7.5,6.1-7.5s1-15.4,1.3-23.2c-0.3-3.3,2.1-6.2,5.3-6.5c1.1-0.1,2.1,0.1,3.1,0.5
	c12.2,5.2,23.3,12.9,32.4,22.5L199.6,61.7z"/>
</svg>
