<svg viewBox="0 0 1024 1024" xmlns="http://www.w3.org/2000/svg"><path d="M96 832h832c17.728 0 32 14.272 32 32v64c0 17.728-14.272 32-32 32H96c-17.728 0-32-14.272-32-32v-64c0-17.728 14.272-32 32-32z" fill="#795548"/><path d="M160 192h64c17.728 0 32 14.272 32 32v512c0 17.728-14.272 32-32 32h-64c-17.728 0-32-14.272-32-32V224c0-17.728 14.272-32 32-32z" fill="#4caf50"/><path d="M352 64c-17.728 0-32 14.272-32 32v96h192V96c0-17.728-14.272-32-32-32zm-32 192v320h192V256zm0 384v96c0 17.728 14.272 32 32 32h128c17.728 0 32-14.272 32-32v-96z" fill="#f44336"/><path d="M530.161 158.902l57.333-27.693a31.804 31.804 0 0142.634 14.936l262.693 548.17c7.66 15.984.977 35.057-14.982 42.766l-57.333 27.693a31.804 31.804 0 01-42.634-14.936L515.18 201.668c-7.66-15.983-.977-35.057 14.982-42.766z" fill="#2196f3"/><path d="M320 192v64h192v-64zm0 384v64h192v-64z" fill="#ffeb3b"/></svg>