<?xml version="1.0" encoding="UTF-8"?>
<svg width="24px" height="24px" viewBox="0 0 24 24" version="1.1" xmlns="http://www.w3.org/2000/svg" xmlns:xlink="http://www.w3.org/1999/xlink">
    <!-- Generator: Sketch 47.1 (45422) - http://www.bohemiancoding.com/sketch -->
    <title>Icon 24x</title>
    <desc>Created with Sketch.</desc>
    <defs></defs>
    <g id="Page-1" stroke="none" stroke-width="1" fill="none" fill-rule="evenodd">
        <g id="Icon-24x" fill-rule="nonzero">
            <path d="M20.5,17.6666667 C20.5,19.225 19.225,20.5 17.6666667,20.5 L6.33333333,20.5 C4.775,20.5 3.5,19.225 3.5,17.6666667 L3.5,6.33333333 C3.5,4.775 4.775,3.5 6.33333333,3.5 L17.6666667,3.5 C19.225,3.5 20.5,4.775 20.5,6.33333333 L20.5,17.6666667 Z" id="bg" fill="#563D7C"></path>
            <path d="M8.11944444,7.19444444 L12.9388889,7.19444444 C13.8277778,7.19444444 14.5416667,7.39722222 15.0777778,7.80555556 C15.6138889,8.21388889 15.8833333,8.82777778 15.8833333,9.65277778 C15.8833333,10.1527778 15.7611111,10.5805556 15.5166667,10.9361111 C15.2722222,11.2916667 14.9222222,11.5694444 14.4666667,11.7638889 L14.4666667,11.7916667 C15.0777778,11.9222222 15.5416667,12.2111111 15.8555556,12.6583333 C16.1694444,13.1083333 16.3277778,13.6694444 16.3277778,14.3472222 C16.3277778,14.7361111 16.2583333,15.1 16.1194444,15.4361111 C15.9805556,15.775 15.7638889,16.0666667 15.4666667,16.3111111 C15.1694444,16.5555556 14.7916667,16.75 14.3277778,16.8944444 C13.8638889,17.0388889 13.3138889,17.1111111 12.675,17.1111111 L8.11944444,17.1111111 L8.11944444,7.19444444 L8.11944444,7.19444444 Z M9.85555556,11.3472222 L12.6888889,11.3472222 C13.1055556,11.3472222 13.4527778,11.2305556 13.7305556,10.9916667 C14.0083333,10.7527778 14.1472222,10.4138889 14.1472222,9.96944444 C14.1472222,9.46944444 14.0222222,9.11666667 13.7722222,8.91388889 C13.5222222,8.71111111 13.1611111,8.60833333 12.6888889,8.60833333 L9.85555556,8.60833333 L9.85555556,11.3472222 L9.85555556,11.3472222 Z M9.85555556,15.6944444 L12.925,15.6944444 C13.4527778,15.6944444 13.8638889,15.5583333 14.1527778,15.2833333 C14.4444444,15.0111111 14.5916667,14.6222222 14.5916667,14.1222222 C14.5916667,13.6305556 14.4472222,13.2555556 14.1527778,12.9888889 C13.8583333,12.7222222 13.4527778,12.5944444 12.925,12.5944444 L9.85555556,12.5944444 L9.85555556,15.6944444 Z" id="Shape" fill="#FFFFFF"></path>
        </g>
    </g>
</svg>