<svg version="1.1" viewBox="0 0 24 24" xmlns="http://www.w3.org/2000/svg">
 <path d="m21.085 13.343c0.0863 1.4864-0.59454 2.9152-1.8124 3.7878l0.73839 1.4288c0.22056 0.43152 0.24932 0.93976 0.05754 1.3905-0.1822 0.4507-0.55619 0.80551-1.0165 0.95894l-0.75756 0.23974c-0.16302 0.05754-0.34522 0.0863-0.51783 0.0863-0.48906 0-0.94935-0.22056-1.2658-0.61372l-2.033-2.3974c-0.85346-0.14384-1.659-0.50824-2.3398-1.0548-0.47947 0.14384-0.95894 0.22056-1.4384 0.22056-0.84387 0-1.6877-0.25892-2.3974-0.75756-0.50824 0.15344-1.0261 0.22056-1.5535 0.21097-0.75757 0.00959-1.5055-0.14384-2.2056-0.43152-1.3713-0.61372-2.2823-1.9562-2.3302-3.4618-0.076715-0.69044 0.038358-1.3905 0.33563-2.0234-0.27809-0.71921-0.30686-1.5055-0.067126-2.2343 0.35481-0.911 1.0261-1.6686 1.8603-2.148 0.55619-1.6206 2.1193-2.7042 3.8358-2.5891 1.5343-1.4384 3.8837-1.5918 5.5906-0.35481 0.40276-0.10548 0.82469-0.16302 1.2466-0.16302 1.3042-0.028768 2.5412 0.5466 3.3563 1.5727 1.9562 0.50824 3.3563 2.2535 3.433 4.2865 0.04795 1.0644-0.23974 2.1097-0.82469 3.0015 0.06713 0.34522 0.10548 0.69044 0.10548 1.0452m-4.7947-1.3521c0.5466 0.06713 0.97812 0.47947 0.97812 1.0261a0.95894 0.95894 0 0 1-0.95894 0.95894h-0.60413c-0.30686 0.86305-0.84387 1.6206-1.5535 2.196 0.23974 0.08631 0.48906 0.13425 0.73839 0.20138 4.9194-0.06713 4.344-3.0686 4.344-3.1166-0.05754-1.3713-1.2083-2.4453-2.5796-2.3878a0.95894 0.95894 0 0 1-0.95894-0.95894 0.95894 0.95894 0 0 1 0.95894-0.95894c1.1795 0.028768 2.3111 0.46988 3.1933 1.2466 0.04795-0.27809 0.07672-0.56578 0.07672-0.85346-0.05754-1.1891-0.59454-2.2247-2.7522-2.4261-1.1987-2.8385-4.2194-1.2658-4.2194-0.38358-0.02877 0.22056 0.20138 0.69044 0.23974 0.71921a0.95894 0.95894 0 0 1 0.95894 0.95894c0 0.52742-0.43152 0.95894-0.95894 0.95894-0.50824-0.019179-0.98772-0.21097-1.3713-0.53701-0.46029 0.29727-0.98771 0.47947-1.5343 0.53701-0.5466 0.047947-0.9973-0.33563-1.0261-0.86305-0.076715-0.53701 0.31645-1.0069 0.84387-1.0548 0.15343-0.019179 0.90141-0.13425 0.90141-0.73839 0-0.6329 0.23974-1.237 0.65208-1.7165-0.88223-0.23974-1.8316 0.076716-2.7905 1.237-1.7645-0.27809-2.4837-0.038358-3.0111 1.8316-0.911 0.4507-1.3905 0.76715-1.6014 1.7261 1.0357-0.21097 2.1001-0.12466 3.0878 0.23974 0.47947 0.1822 0.74798 0.71921 0.56578 1.237-0.1822 0.49865-0.73839 0.74798-1.237 0.56578-0.70003-0.30686-1.4864-0.32604-2.2056-0.057537-0.30686 0.25892-0.30686 0.79592-0.30686 1.2179 0 0.70962 0.35481 1.3713 0.95894 1.7549 0.50824 0.25892 1.074 0.39317 1.6398 0.38358-0.14384-0.24932-0.2685-0.50824-0.37399-0.77674-0.1822-0.51783 0.095894-1.0836 0.61372-1.2658 0.51783-0.1822 1.0836 0.0959 1.2658 0.61372 0.38358 1.0932 1.3617 1.8412 2.5124 1.9658 1.3138-0.06713 2.4837-0.84387 3.059-2.0425 0.22056-1.3233 1.285-1.4384 2.4549-1.4384m1.9179 7.1633-0.59454-1.2466-0.68085 0.15343 0.95894 1.1987 0.31645-0.10548m-4.4591-8.2565c0.01918-0.50824-0.3644-0.93976-0.87264-0.98771-0.68085-0.038358-1.3425 0.19179-1.8508 0.64249-0.5466 0.55619-0.83428 1.3233-0.80551 2.1001a0.95894 0.95894 0 0 0 0.95894 0.95894c0.5466 0 0.95894-0.43152 0.95894-0.95894 0-0.25891 0.06713-0.51783 0.22056-0.7288 0.11507-0.09589 0.25892-0.14384 0.41235-0.14384 0.52742 0.02877 0.97812-0.3644 0.97812-0.88223z" style="fill:#ff4081;stroke-width:.95894"/>
</svg>
