<svg version="1.2" baseProfile="tiny" xmlns="http://www.w3.org/2000/svg" viewBox="0 0 24 24" xml:space="preserve"><path fill="#FF4081" d="M1.7 1.5v21h3.4v-2.1H3.4V3.6h1.7V1.5zM18.9 1.5v2.1h1.7v16.8h-1.7v2.1h3.4v-21z"/><path fill="#FF4081" d="M18.4 12.9c.1 1.1-.4 2.1-1.3 2.7l.5 1c.2.3.2.7 0 1-.1.3-.4.6-.7.7l-.5.2c-.5.2-1 0-1.3-.4l-1.4-1.7c-.6-.1-1.2-.4-1.7-.7-.3.1-.7.2-1 .2-.6 0-1.2-.2-1.7-.5-.4.1-.7.2-1.1.1-.5 0-1.1-.1-1.6-.3-1-.4-1.6-1.4-1.6-2.4-.1-.5 0-1 .2-1.4-.2-.5-.2-1.1 0-1.6.3-.8.8-1.3 1.4-1.6.4-1.2 1.5-2 2.7-1.9 1.1-1 2.7-1.1 3.9-.3h.9c.9 0 1.8.4 2.4 1.1 1.4.4 2.4 1.6 2.4 3 0 .7-.2 1.5-.6 2.1.1.3.1.5.1.7M15 12c.4 0 .7.3.7.7 0 .4-.3.7-.7.7h-.4c-.2.6-.6 1.1-1.1 1.5.2.1.3.1.5.1 3.5 0 3.1-2.2 3.1-2.2 0-1-.9-1.7-1.8-1.7-.4 0-.7-.3-.7-.7s.3-.7.7-.7c.8 0 1.6.3 2.3.9 0-.2.1-.4.1-.6 0-.8-.4-1.6-1.9-1.7-.8-2-3-.9-3-.3 0 .2.1.5.2.5.4 0 .7.3.7.7 0 .4-.3.7-.7.7-.4 0-.7-.1-1-.4-.3.2-.7.3-1.1.4-.4 0-.7-.2-.7-.6-.2-.3.1-.6.4-.6.1 0 .6-.1.6-.5s.2-.9.5-1.2c-.6-.2-1.3.1-2 .9-1.2-.3-1.7-.1-2 1.2-.6.3-1 .5-1.1 1.2.7-.1 1.5-.1 2.2.2.3.1.5.5.4.9-.1.4-.5.5-.9.4-.5-.2-1.1-.2-1.6 0-.2.2-.2.6-.2.9 0 .5.3 1 .7 1.2.4.2.8.3 1.2.3-.1-.2-.2-.4-.3-.5-.1-.4.1-.8.4-.9.4-.1.8.1.9.4.3.8 1 1.3 1.8 1.4.9 0 1.8-.6 2.2-1.4.1-1.1.8-1.2 1.6-1.2m1.4 5-.4-.8-.5.1.7.8.2-.1m-3.2-5.8c0-.4-.3-.7-.6-.7-.5 0-.9.1-1.3.5s-.6.9-.6 1.5c0 .4.3.7.7.7.4 0 .7-.3.7-.7 0-.2 0-.4.2-.5.1-.1.2-.1.3-.1.3 0 .6-.3.6-.7z"/></svg>