<?xml version="1.0" encoding="UTF-8"?>
<svg version="1.1" viewBox="0 0 140 140" xmlns="http://www.w3.org/2000/svg">
 <title>Browserslist logo</title>
 <g transform="translate(10.823 10.1)">
  <path transform="translate(-10.823,-10.1)" d="m70.314 10.066a59.828 59.828 0 0 0 -59.828 59.828 59.828 59.828 0 0 0 59.828 59.828 59.828 59.828 0 0 0 59.828 -59.828 59.828 59.828 0 0 0 -59.828 -59.828zm-4.8359 8.7852c0.49623 4.0431 1.3518 7.3216 2.5723 10.223 4.7786-4.287 10.265-7.5463 16.041-9.0195-0.98175 3.9375-1.3573 7.2942-1.2617 10.43 6.0259-2.315 12.349-3.4049 18.301-2.707-3.1824 2.4133-5.4829 4.7172-7.1289 7.0156-2.2008 12.074 6.8581 20.429 14.779 24.551a5.1281 5.1281 0 0 1 5.1836 -3.8887 5.1281 5.1281 0 0 1 3.6992 8.4355v0.001953c-0.4864 1.0549-2.0019 2.3428-3.4961 3.2188-4.075 2.3896-11.172 5.7358-20.914 7.3906 0.044908 1.2137 0.076172 2.4521 0.076172 3.7461 0 4.8178-0.48497 8.2917-1.3848 10.699-3.3003 13.313-12.648 26.761-24.695 31.951 0.357-4.0831 0.19744-7.4851-0.40234-10.592-5.5815 3.2189-11.646 5.2787-17.623 5.5195h-0.001953c1.7859-3.6612 2.8555-6.8769 3.4121-9.9746-6.3466 0.99516-12.727 0.74138-18.377-1.1699 2.9305-2.733 5.0539-5.3143 6.6738-7.9609-6.2921-1.3441-12.169-3.8704-16.766-7.6855 3.8212-1.5438 6.7944-3.2388 9.2988-5.1973-5.4248-3.5165-10.033-7.9981-12.971-13.23 4.0121-0.070304 7.3208-0.5679 10.299-1.4531-3.7851-5.2146-6.4677-11.032-7.332-16.951 3.8612 1.4052 7.196 2.1328 10.359 2.3555-1.6614-6.2197-2.0807-12.605-0.76758-18.436 3.0305 2.6339 5.8239 4.4794 8.6309 5.8145 0.67691-6.4059 2.5753-12.52 5.8926-17.496 1.9262 3.6224 3.9135 6.3917 6.1113 8.6719 2.9295-5.7535 6.9003-10.798 11.791-14.262zm26.465 19.557c-2.3951 5.514-1.6653 11.297-0.55469 18.732a2.1376 2.1376 0 0 0 0.2793 -4.1777 3.4187 3.4187 0 1 1 0.091797 6.7031c0.5745 3.8822 1.157 8.1801 1.4219 13.125 1.0961-0.19014 2.179-0.4077 3.25-0.64844 6.6152-1.4872 12.258-3.8016 16.871-6.5059 0.45008-0.26435 0.88377-0.56352 1.2754-0.86719 0.36611-0.55703 0.33339-0.95723 0.03516-1.2852-4.8313-1.2445-10.891-4.5296-15.258-8.7949-4.7644-4.6534-7.4275-10.164-7.4121-16.281z" fill="#ffca28" stroke-width=".85468"/>
 </g>
</svg>
