<svg xmlns="http://www.w3.org/2000/svg" viewBox="0 0 32 32"><polygon fill="#212121" points="26 10 6 10 6 24 12 24 12 26 20 26 20 24 26 24 26 10"/><path fill="#ffab40" d="M27.89722,9.79443A6.85865,6.85865,0,0,0,23.54779,6.244,7.96754,7.96754,0,0,0,18,4H14A7.96754,7.96754,0,0,0,8.45221,6.244,6.85865,6.85865,0,0,0,4.10278,9.79443,19.91752,19.91752,0,0,0,2,18.702V20a4,4,0,0,0,4,4V16H8v6a4,4,0,0,0,4,4V24a2,2,0,0,1-2-2V20h2v2h2V20h4v2h2V20h2v2a2,2,0,0,1-2,2v2a4,4,0,0,0,4-4V16h2v8a4,4,0,0,0,4-4V18.702A19.91752,19.91752,0,0,0,27.89722,9.79443ZM10,14V12h2v2Zm4,4V16h4v2Zm8-4H20V12h2Z"/><path fill="#f44336" d="M16,24a6.753,6.753,0,0,1-2,.99634V28a2,2,0,0,0,4,0V24.99634A6.75447,6.75447,0,0,1,16,24Z"/></svg>