<?xml version="1.0" encoding="UTF-8" standalone="no"?>
<svg
   xmlns:dc="http://purl.org/dc/elements/1.1/"
   xmlns:cc="http://creativecommons.org/ns#"
   xmlns:rdf="http://www.w3.org/1999/02/22-rdf-syntax-ns#"
   xmlns:svg="http://www.w3.org/2000/svg"
   xmlns="http://www.w3.org/2000/svg"
   xmlns:sodipodi="http://sodipodi.sourceforge.net/DTD/sodipodi-0.dtd"
   xmlns:inkscape="http://www.inkscape.org/namespaces/inkscape"
   version="1.1"
   width="25.6"
   height="25.6"
   viewBox="0 0 24 24"
   id="svg2"
   inkscape:version="0.92.1 r15371"
   sodipodi:docname="bucklescript.svg">
  <metadata
     id="metadata10">
    <rdf:RDF>
      <cc:Work
         rdf:about="">
        <dc:format>image/svg+xml</dc:format>
        <dc:type
           rdf:resource="http://purl.org/dc/dcmitype/StillImage" />
        <dc:title></dc:title>
      </cc:Work>
    </rdf:RDF>
  </metadata>
  <defs
     id="defs8" />
  <sodipodi:namedview
     pagecolor="#ffffff"
     bordercolor="#666666"
     borderopacity="1"
     objecttolerance="10"
     gridtolerance="10"
     guidetolerance="10"
     inkscape:pageopacity="0"
     inkscape:pageshadow="2"
     inkscape:window-width="1366"
     inkscape:window-height="705"
     id="namedview6"
     showgrid="false"
     inkscape:zoom="19.666667"
     inkscape:cx="18.488357"
     inkscape:cy="10.479085"
     inkscape:window-x="-8"
     inkscape:window-y="-8"
     inkscape:window-maximized="1"
     inkscape:current-layer="svg2" />
  <path
     style="fill:#26a69a;fill-opacity:1;stroke-width:1.06666672"
     d="M 3.1992188 3.1992188 L 3.1992188 22.400391 L 22.400391 22.400391 L 22.400391 3.1992188 L 3.1992188 3.1992188 z M 18.240234 12.648438 C 18.694255 12.648438 19.142318 12.699159 19.583984 12.802734 C 20.028739 12.902738 20.413981 13.030017 20.738281 13.183594 L 20.738281 15.021484 L 20.546875 15.021484 C 20.268903 14.764332 19.928041 14.550341 19.523438 14.378906 C 19.121923 14.2039 18.711062 14.115234 18.291016 14.115234 C 18.142764 14.115234 17.995908 14.127343 17.847656 14.152344 C 17.702493 14.173773 17.561679 14.216962 17.425781 14.28125 C 17.305327 14.334823 17.201714 14.416626 17.115234 14.527344 C 17.028754 14.63449 16.984375 14.759147 16.984375 14.898438 C 16.984375 15.109159 17.054373 15.270476 17.193359 15.384766 C 17.332345 15.495484 17.594397 15.598546 17.980469 15.691406 C 18.233732 15.752123 18.477341 15.810043 18.708984 15.867188 C 18.943716 15.924332 19.194185 16.003512 19.462891 16.103516 C 19.991037 16.303523 20.380685 16.577387 20.630859 16.923828 C 20.884123 17.266697 21.011719 17.711699 21.011719 18.261719 C 21.011719 19.047461 20.722095 19.686813 20.144531 20.179688 C 19.570056 20.668991 18.789125 20.914062 17.800781 20.914062 C 17.229395 20.914062 16.730911 20.856477 16.304688 20.742188 C 15.881553 20.624326 15.48391 20.477406 15.113281 20.298828 L 15.113281 18.384766 L 15.308594 18.384766 C 15.676134 18.724063 16.086995 18.985819 16.541016 19.167969 C 16.998125 19.350118 17.435423 19.441406 17.855469 19.441406 C 17.963569 19.441406 18.107154 19.429632 18.283203 19.408203 C 18.459252 19.386774 18.601702 19.350783 18.712891 19.300781 C 18.848788 19.236493 18.960395 19.156979 19.046875 19.060547 C 19.136444 18.964115 19.181641 18.822105 19.181641 18.632812 C 19.181641 18.457806 19.116048 18.306645 18.986328 18.181641 C 18.859697 18.053065 18.672867 17.954578 18.425781 17.886719 C 18.166341 17.815288 17.891889 17.75017 17.601562 17.689453 C 17.314325 17.625165 17.044279 17.543698 16.791016 17.447266 C 16.210364 17.229401 15.791508 16.935895 15.535156 16.564453 C 15.281893 16.18944 15.154297 15.725466 15.154297 15.171875 C 15.154297 14.428991 15.443103 13.823343 16.017578 13.355469 C 16.595142 12.884023 17.335282 12.648438 18.240234 12.648438 z M 8.6601562 12.792969 L 11.337891 12.792969 C 11.893834 12.792969 12.300289 12.814563 12.556641 12.857422 C 12.816081 12.900281 13.072909 12.994191 13.326172 13.140625 C 13.588701 13.294202 13.783525 13.500995 13.910156 13.761719 C 14.039876 14.018871 14.103516 14.31433 14.103516 14.646484 C 14.103516 15.032212 14.015893 15.373483 13.839844 15.669922 C 13.663795 15.962789 13.414962 16.191177 13.09375 16.355469 L 13.09375 16.398438 C 13.544682 16.502013 13.901534 16.716004 14.164062 17.041016 C 14.42968 17.366027 14.5625 17.79401 14.5625 18.326172 C 14.5625 18.7119 14.495272 19.057746 14.359375 19.361328 C 14.226566 19.66491 14.043325 19.915227 13.808594 20.115234 C 13.536799 20.350957 13.235592 20.519137 12.908203 20.619141 C 12.583903 20.719144 12.172224 20.769531 11.671875 20.769531 L 8.6601562 20.769531 L 8.6601562 12.792969 z M 10.429688 14.255859 L 10.429688 15.943359 L 10.708984 15.943359 C 10.990045 15.943359 11.228112 15.936496 11.425781 15.925781 C 11.62345 15.915067 11.780254 15.879076 11.894531 15.818359 C 12.055137 15.736214 12.159567 15.632482 12.208984 15.503906 C 12.258402 15.371759 12.283203 15.220263 12.283203 15.048828 C 12.283203 14.916681 12.253995 14.784491 12.195312 14.652344 C 12.139718 14.520196 12.039694 14.42171 11.894531 14.357422 C 11.764811 14.300277 11.602783 14.269197 11.408203 14.265625 C 11.216711 14.258482 10.946665 14.255859 10.597656 14.255859 L 10.429688 14.255859 z M 10.429688 17.320312 L 10.429688 19.306641 L 10.560547 19.306641 C 11.060896 19.306641 11.418565 19.304353 11.634766 19.300781 C 11.850966 19.29721 12.050196 19.251398 12.232422 19.162109 C 12.417736 19.07282 12.545333 18.955028 12.613281 18.808594 C 12.684318 18.658588 12.71875 18.487786 12.71875 18.294922 C 12.71875 18.041341 12.676324 17.846657 12.589844 17.710938 C 12.506452 17.571647 12.362049 17.46825 12.158203 17.400391 C 12.019217 17.35396 11.827982 17.32779 11.583984 17.324219 C 11.339987 17.320647 11.08593 17.320312 10.820312 17.320312 L 10.429688 17.320312 z "
     transform="scale(0.93749999)"
     id="path4" />
</svg>
