<svg xmlns="http://www.w3.org/2000/svg" viewBox="0 0 32 32">
  <g>
    <rect x="12" y="18" width="4" height="2" style="fill: #26a69a"/>
    <path d="M4,4V28H28V4ZM18,19.5a.5.5,0,0,1-.5.5H16v2h1.5a.5.5,0,0,1,.5.5v1a.5.5,0,0,1-.5.5H16v1.5a.5.5,0,0,1-.5.5h-5a.5.5,0,0,1-.5-.5v-9a.5.5,0,0,1,.5-.5h5a.5.5,0,0,1,.5.5V18h1.5a.5.5,0,0,1,.5.5Zm8-2a.5.5,0,0,1-.5.5H22v2h2a2,2,0,0,1,2,2v2a2,2,0,0,1-2,2H20.5a.5.5,0,0,1-.5-.5v-1a.5.5,0,0,1,.5-.5H24V22H22a2,2,0,0,1-2-2V18a2,2,0,0,1,2-2h3.5a.5.5,0,0,1,.5.5Z" style="fill: #26a69a"/>
    <rect x="12" y="22" width="4" height="2" style="fill: #26a69a"/>
  </g>
</svg>
