<svg xmlns="http://www.w3.org/2000/svg" viewBox="0 0 32 32"><rect x="14" y="20" width="4" height="2" style="fill:#26a69a"/><path d="M2,4V28a2,2,0,0,0,2,2H28a2,2,0,0,0,2-2V4a2,2,0,0,0-2-2H4A2,2,0,0,0,2,4ZM20,21.5a.5.5,0,0,1-.5.5H18v2h1.5a.5.5,0,0,1,.5.5v1a.5.5,0,0,1-.5.5H18v1.5a.5.5,0,0,1-.5.5h-5a.5.5,0,0,1-.5-.5v-9a.5.5,0,0,1,.5-.5h5a.5.5,0,0,1,.5.5V20h1.5a.5.5,0,0,1,.5.5Zm8-2a.5.5,0,0,1-.5.5H24v2h2a2,2,0,0,1,2,2v2a2,2,0,0,1-2,2H22.5a.5.5,0,0,1-.5-.5v-1a.5.5,0,0,1,.5-.5H26V24H24a2,2,0,0,1-2-2V20a2,2,0,0,1,2-2h3.5a.5.5,0,0,1,.5.5Z" style="fill:#26a69a"/><rect x="14" y="24" width="4" height="2" style="fill:#26a69a"/></svg>