<svg viewBox="0 0 24 24" fill="none" xmlns="http://www.w3.org/2000/svg">
  <mask id="buddy" style="mask-type:alpha" maskUnits="userSpaceOnUse" x="3" y="2" width="18" height="20">
    <path d="M11.125 2.21c-1.694.968-5.637 3.234-7.331 4.203A1.58 1.58 0 003 7.775v8.407c0 .558.306 1.084.794 1.363 1.686.969 5.637 3.234 7.331 4.203a1.61 1.61 0 001.587 0 5716.15 5716.15 0 017.332-4.203 1.58 1.58 0 00.794-1.363V7.775c0-.566-.306-1.083-.794-1.362-1.686-.97-5.637-3.235-7.332-4.204A1.624 1.624 0 0011.916 2c-.274 0-.547.07-.79.21z" fill="#fff"/>
  </mask>
  <g mask="url(#buddy)">
    <path d="M11.125 2.21c-1.694.968-5.637 3.234-7.331 4.203A1.58 1.58 0 003 7.775v8.407c0 .558.306 1.084.794 1.363 1.686.969 5.637 3.234 7.331 4.203a1.61 1.61 0 001.587 0 5716.15 5716.15 0 017.332-4.203 1.58 1.58 0 00.794-1.363V7.775c0-.566-.306-1.083-.794-1.362-1.686-.97-5.637-3.235-7.332-4.204A1.624 1.624 0 0011.916 2c-.274 0-.547.07-.79.21z" fill="#00C9FF"/>
    <path d="M7.637 11.979l4.282 10.245L3 17.094l4.637-5.115z" fill="#1A67FD"/>
    <path d="M7.637 11.979L3 6.83v10.262l4.637-5.114z" fill="#0DA7FE"/>
    <path d="M7.637 11.979l4.282-10.23 8.919 15.344-13.2-5.114z" fill="#00C9FF"/>
    <path d="M7.637 11.979l4.282-10.23L3 6.832l4.637 5.148z" fill="#05BBFF"/>
    <path d="M11.919 22.224l8.919-5.13-13.2-5.115 4.28 10.245z" fill="#1A86FD"/>
    <path d="M20.838 17.093V6.864l-8.92-5.114 8.92 15.343z" fill="#05BBFF"/>
    <path d="M13.804 11.117l1.132 1.124-.562.559-.57.566-3.191 3.17L9.48 15.41l3.19-3.169-3.19-3.168 1.132-1.125 3.19 3.169z" fill="#1A67FD" fill-opacity=".5"/>
    <path d="M14.936 11.732l-1.133-1.124L9.48 14.9l1.133 1.125 4.323-4.294z" fill="#D6FFFF"/>
    <path d="M10.613 7.447L9.489 8.572l4.323 4.293 1.132-1.124-4.331-4.294z" fill="#D6FFFF"/>
  </g>
</svg>