<?xml version="1.0" encoding="UTF-8"?>
<svg id="Bun" version="1.1" viewBox="0 0 80 80" xml:space="preserve" xmlns="http://www.w3.org/2000/svg"><title>Bun Logo</title><g transform="matrix(1.0173 0 0 1.0173 1.1463 1.1496)"><g stroke-width=".90384"><path d="m69.827 40.519c0 13.747-14.163 24.892-31.634 24.892s-31.634-11.144-31.634-24.892c0-8.5232 5.423-16.052 13.756-20.517 8.3334-4.465 13.521-9.0384 17.878-9.0384 4.3565 0 8.0803 3.7329 17.878 9.0384 8.3334 4.465 13.756 11.994 13.756 20.517z" fill="#fbf0df"/><path id="Bottom_Shadow" d="m69.827 40.519a19.586 19.586 0 0 0-0.72307-5.2242c-2.4675 30.098-39.181 31.544-53.616 22.542a36.154 36.154 0 0 0 22.704 7.5742c17.444 0 31.634-11.162 31.634-24.892z" fill="#fbe9e7" data-name="Bottom Shadow"/><path id="Light_Shine" d="m26.018 18.348c4.0402-2.4223 9.409-6.9686 14.687-6.9776a8.3967 8.3967 0 0 0-2.5127-0.40673c-2.1873 0-4.5192 1.1298-7.4567 2.829-1.0213 0.59653-2.0788 1.2563-3.1996 1.9433-2.1059 1.3015-4.5192 2.7748-7.2307 4.248-8.6045 4.6548-13.747 12.328-13.747 20.535v1.0756c5.4773-19.351 15.429-20.824 19.46-23.247z" fill="#fafafa" data-name="Light Shine"/><path d="m35.59 13.25a14.832 14.832 0 0 1-5.0886 11.271c-0.25308 0.22596-0.05423 0.6598 0.27116 0.53326 3.0459-1.184 7.1584-4.7271 5.423-11.876-0.07231-0.40673-0.60558-0.29827-0.60558 0.07231zm2.0517 0a14.678 14.678 0 0 1 1.4552 12.175c-0.10846 0.31634 0.28019 0.5875 0.4971 0.32538 1.9794-2.5307 3.7057-7.5561-1.4642-12.979-0.2621-0.235-0.66884 0.12654-0.48806 0.44288zm2.4946-0.15365a14.841 14.841 0 0 1 6.1913 10.629 0.29827 0.29827 0 0 0 0.5875 0.09942c0.83153-3.1544 0.36154-8.5322-6.4805-11.325-0.36154-0.14461-0.59653 0.34346-0.29828 0.56038zm-16.685 9.3999a15.311 15.311 0 0 0 9.4632-8.1345c0.16269-0.32538 0.67788-0.19884 0.59653 0.16269-1.5636 7.2307-6.7969 8.7401-10.051 8.5413-0.34347 9e-3 -0.33443-0.47-9e-3 -0.56942z" fill="#bcaaa4" fill-rule="evenodd"/></g><g transform="matrix(.90384 0 0 .90384 3.8469 8.2521)" data-name="Background"><path d="m45.05 43a8.93 8.93 0 0 1-2.92 4.71 6.81 6.81 0 0 1-4 1.88 6.84 6.84 0 0 1-4.13-1.88 8.93 8.93 0 0 1-2.88-4.71 0.72 0.72 0 0 1 0.8-0.81h12.34a0.72 0.72 0 0 1 0.79 0.81z" fill="#b71422"/></g><g stroke-width=".90384"><path d="m34.577 51.447a6.2455 6.2455 0 0 0 3.7238 1.7173 6.2455 6.2455 0 0 0 3.7148-1.7173 9.6078 9.6078 0 0 0 0.90384-0.96711 6.1732 6.1732 0 0 0-4.4288-2.0879 5.5586 5.5586 0 0 0-4.5192 2.5127c0.20788 0.18981 0.38866 0.37057 0.60558 0.5423z" fill="#ff6164" data-name="Background"/><path d="m34.722 50.733a4.8446 4.8446 0 0 1 3.7871-1.88 5.423 5.423 0 0 1 3.6154 1.5275c0.20788-0.22596 0.40673-0.46096 0.59653-0.69596a6.3269 6.3269 0 0 0-4.2571-1.7444 5.7484 5.7484 0 0 0-4.4198 2.1331 8.6136 8.6136 0 0 0 0.67788 0.6598z" fill="#455a64" data-name="Outline"/><path d="m38.274 53.616a6.7065 6.7065 0 0 1-4.0221-1.8077 8.6045 8.6045 0 0 1-2.8109-4.5644 1.0846 1.0846 0 0 1 0.235-0.90384 1.2744 1.2744 0 0 1 1.0213-0.46096h11.153a1.3015 1.3015 0 0 1 1.0213 0.46096 1.0756 1.0756 0 0 1 0.22596 0.90384 8.6045 8.6045 0 0 1-2.8109 4.5644 6.7065 6.7065 0 0 1-4.013 1.8077zm-5.5767-6.6884c-0.14462 0-0.18078 0.06327-0.18982 0.08135a7.4928 7.4928 0 0 0 2.4675 3.9498 5.6309 5.6309 0 0 0 3.299 1.5817 5.6761 5.6761 0 0 0 3.299-1.5636 7.5019 7.5019 0 0 0 2.4584-3.9498 0.18981 0.18981 0 0 0-0.18077-0.08134z" fill="#455a64" data-name="Outline"/><ellipse cx="51.949" cy="44.568" rx="5.2875" ry="3.1092" fill="#f8bbd0" data-name="Right Blush"/><ellipse cx="24.59" cy="44.568" rx="5.2875" ry="3.1092" fill="#f8bbd0" data-name="Left Bluch"/><path d="m27.076 43.321a4.9802 4.9802 0 1 0-4.9711-4.9802 4.9802 4.9802 0 0 0 4.9711 4.9802zm22.388 0a4.9802 4.9802 0 1 0-4.944-4.9802 4.9711 4.9711 0 0 0 4.944 4.9802z" fill="#455a64" fill-rule="evenodd"/><path d="m25.539 38.657a1.8709 1.8709 0 1 0-1.8619-1.8709 1.8709 1.8709 0 0 0 1.8619 1.8709zm22.388 0a1.8709 1.8709 0 1 0-1.8619-1.8709 1.8709 1.8709 0 0 0 1.8438 1.8709z" fill="#fff" fill-rule="evenodd"/></g></g></svg>
