<svg xmlns="http://www.w3.org/2000/svg" viewBox="0 0 32 32">
  <g>
    <g>
      <path d="M29.99947,17.04506v-.00012l.00025.00012a9.785,9.785,0,0,0-.31989-2.30654l-.00416.0343a11.18893,11.18893,0,0,0-5.76189-6.78618c-3.4952-1.88914-5.24261-3.32525-6.799-3.81088l.00263-.00024c-1.95024-.69418-3.94927.82067-5.82549,1.92741C6.77141,8.58414,1.71855,11.55275,2.01222,17.51957c.008-.02831.01722-.052.0253-.08022a9.96569,9.96569,0,0,0,3.9349,7.25737l-.01-.00574c7.78448,6.78179,24.08626,2.60122,24.03734-7.64592Z" style="fill: #fff3e0"/>
      <path d="M19.8551,20.23619A.8091.8091,0,0,0,19.25867,20H12.7452a.7921.7921,0,0,0-.59643.23619.50751.50751,0,0,0-.13724.46308,4.36466,4.36466,0,0,0,1.64163,2.33855,4.1872,4.1872,0,0,0,2.34877.92616,4.18636,4.18636,0,0,0,2.34353-.92616,4.36472,4.36472,0,0,0,1.64163-2.33855A.50226.50226,0,0,0,19.8551,20.23619Z" style="fill: #37474f"/>
      <ellipse cx="22.5" cy="18.5" rx="2.5" ry="1.5" style="fill: #f8bbd0"/>
      <ellipse cx="9.5" cy="18.5" rx="2.5" ry="1.5" style="fill: #f8bbd0"/>
      <circle cx="10" cy="16" r="2" style="fill: #37474f"/>
      <circle cx="22" cy="16" r="2" style="fill: #37474f"/>
    </g>
    <path d="M9.99635,18A2,2,0,1,0,8,15.99635V16A2,2,0,0,0,9.99635,18Z" style="fill: #455a64;fill-rule: evenodd"/>
    <circle cx="9" cy="15" r="1" style="fill: #fff"/>
    <circle cx="21" cy="15" r="1" style="fill: #fff"/>
  </g>
</svg>
