<svg xmlns="http://www.w3.org/2000/svg" viewBox="1.5 17.4 253.1 221.9">
  <path d="M113.4 18.5c12.3-3.3 24.7 1.8 35.1 8 14.2 8.5 28.2 17.5 42.8 25.3a144 144 0 0 1 34.4 28.5 88.8 88.8 0 0 1 28 51.6c3 19.6-2.2 40.1-13.3 56.5a115.6 115.6 0 0 1-60.5 43.8 148 148 0 0 1-95.5-1.6 124 124 0 0 1-48.2-31.8 110 110 0 0 1-28.7-38.3A79 79 0 0 1 7.9 99 102.7 102.7 0 0 1 55 50c14.2-7.5 27.4-16.7 41.4-24.5 5.4-3 11-5.6 17-7m-14 14.9C86.2 41 73.5 49.6 60 56.9c-13 6.7-24.7 15.9-33.7 27.4a73.5 73.5 0 0 0-16.4 48.3c.6 26 17 49.7 38.3 63.8 15.5 11 34 17.5 52.7 20.3 28.2 4.2 57.9-.2 83.2-13.5a97.3 97.3 0 0 0 40.8-39.2 69.6 69.6 0 0 0 6.5-50.1c-5.5-23.6-23.1-42.8-43.8-54.6-10.7-5.8-21.3-12-31.6-18.4-9.2-5.6-18.3-11.8-28.8-14.7-9.9-2-19.3 2.5-27.7 7.2Z"/>
  <path d="M72.6 107.6a18 18 0 0 1 25.7 7.2 18 18 0 0 1-8.4 23.8 18 18 0 0 1-21.6-5 18 18 0 0 1 4.3-26m1.9 3c-4.7 1.5-6 8.1-2.5 11.4 3.4 3.4 10.2 1.7 11.2-3.1 1.8-5-3.8-10.3-8.7-8.3Zm72.2 2.1a18 18 0 0 1 25.2-4.6 18 18 0 0 1 3.4 25.7 18 18 0 0 1-21.6 4.8 18 18 0 0 1-7-25.9m6.8-2c-4.7 1.6-5.8 8.7-1.8 11.6 3.8 3.3 10.5.8 11-4.2 1-5-4.6-9.5-9.2-7.4Zm-53.3 38.6c1.5-.5 3.2-.3 4.8-.3h37c2.5 0 4.9 2.4 4.2 5a31 31 0 0 1-15.2 20c-4.2 2.4-9.4 3.7-14 1.9a31.3 31.3 0 0 1-19.2-21c-1-2.1.1-4.9 2.4-5.6m1.3 3.8c1 3.8 3 7.5 5.4 10.7 4-4.1 9.2-7.5 15.1-7.4 6-.4 11.5 2.4 16 6 1.8-3 3.2-6 4.3-9.3-13.6-.2-27.2-.1-40.8 0m7.9 13.3c3.8 3 8.3 6.5 13.6 6 5-.7 9-4 12.6-7.2-4-3.4-9.2-6-14.6-5.2a19 19 0 0 0-11.6 6.4Z"/>
  <path fill="#fffefd" d="M99.5 33.4c8.4-4.7 17.8-9.2 27.7-7.2-6.4 2.7-13.4 4.2-19.5 7.5C94.6 40.3 83.5 50.3 70 56.1a93.8 93.8 0 0 0-26.9 17c-10 9.2-17.3 20.8-23 33-4.1 8.5-7 17.6-10.2 26.5a73.5 73.5 0 0 1 16.4-48.3A101 101 0 0 1 59.9 57c13.5-7.3 26.2-16 39.6-23.5Zm-25 77.2c4.9-2 10.5 3.3 8.7 8.3-1 4.8-7.8 6.5-11.2 3-3.6-3.2-2.2-9.9 2.5-11.3Zm79 .1c4.6-2.1 10.2 2.5 9.2 7.4-.5 5-7.2 7.5-11 4.2-4-3-3-10 1.8-11.6Z"/>
  <path fill="#fbf0df" d="M127.2 26.2c10.5 2.9 19.6 9.1 28.8 14.7a572.7 572.7 0 0 0 31.6 18.4c20.7 11.8 38.3 31 43.8 54.6-2.1 8.2-3 16.7-5.8 24.7a93 93 0 0 1-37.3 48.7c-25.8 17.3-57.8 22.6-88.3 20.8-10.2-.5-20.3-2.3-30.2-4.8-7.4-1.8-14.2-5.3-21.6-7-21.3-14-37.7-37.6-38.3-63.7 3.3-9 6.1-18 10.2-26.6C25.8 94 33 82.3 43 73.2a93.8 93.8 0 0 1 27-17c13.5-5.9 24.5-16 37.6-22.5 6.1-3.3 13-4.8 19.5-7.5m.2 4.4c1 3.1 3.8 4.8 6.1 6.9a52 52 0 0 1 13.7 20.4c1.9 4.8 2.5 10 3.7 14.9a7 7 0 0 0 1.9-2.8c2.2-9.7-.2-20.5-6.8-28a37 37 0 0 0-18.6-11.4m-14.7 2c-.8 3.5-.7 7-1.3 10.4a53.3 53.3 0 0 1-11.7 24.8c-2.2 2.5-4.8 4.8-6.5 7.8 8-1.1 14.5-7.3 18.6-13.9 4.7-8 5.2-17.8 3.3-26.7-.4-1.1-.7-3.6-2.4-2.4m6.2-.7A61.7 61.7 0 0 1 127 60c.5 6.2-1.6 12.2-2.4 18.3l1.3.2c4.7-5 7.2-11.7 7.6-18.5.7-10-4-19.6-10.8-26.7-.9-1.2-2.4-1.4-3.8-1.4M98.7 44.6c-7 11-18.3 18.4-30.5 22.3l.8 2a37 37 0 0 0 19.3-4.7 37.4 37.4 0 0 0 17-27.8c-3.6 1.4-4.5 5.4-6.6 8.2m-26 63a18 18 0 0 0-4.4 26c-4.9 1.3-10.4 3-13 7.8-2 3.8.4 8.4 3.8 10.5a28.8 28.8 0 0 0 23.3 2.5c4.1-1.3 8.6-3.9 9.7-8.4.8-2.7-1-5.1-2.2-7.4a18 18 0 0 0 8.4-23.8 18 18 0 0 0-25.7-7.2m74 5.1a18 18 0 0 0 7.1 25.9c-1 2.2-2.6 4.4-2.2 7 .6 3.4 3.5 6 6.5 7.4 9 4.2 20.8 4 28.5-2.6 2.8-2.5 3.6-7.1 1.3-10.1-3-4-7.9-5.7-12.5-6.5a18 18 0 0 0-3.4-25.7 18 18 0 0 0-25.3 4.6m-46.4 36.6c-2.3.7-3.3 3.5-2.4 5.6 2.5 9.5 10 17.6 19.1 21 4.7 1.8 10 .5 14.1-2a31 31 0 0 0 15.2-20c.7-2.5-1.7-5-4.2-4.9h-37c-1.6 0-3.3-.2-4.8.3Z"/>
  <path fill="#ccbea7" d="M127.4 30.6A37 37 0 0 1 146 42c6.6 7.5 9 18.3 6.8 28-.4 1-1 2-2 2.8-1.1-5-1.8-10.1-3.6-14.9a52 52 0 0 0-13.7-20.4c-2.3-2.1-5.1-3.8-6-7Zm-14.7 2c1.7-1.2 2 1.3 2.4 2.4a37.5 37.5 0 0 1-3.3 26.7c-4.1 6.6-10.5 12.8-18.6 13.9 1.7-3 4.3-5.3 6.5-7.8 6-7 10-15.7 11.7-24.8.6-3.4.5-7 1.3-10.4Zm6.3-.7c1.3 0 2.8.2 3.7 1.4A36.5 36.5 0 0 1 133.5 60a29.3 29.3 0 0 1-7.6 18.5l-1.3-.2c.8-6.1 2.9-12 2.5-18.3.1-10-3.8-19.4-8.2-28.1ZM98.7 44.6c2-2.8 3-6.8 6.6-8.2a37.2 37.2 0 0 1-17 27.8A37 37 0 0 1 69 68.8l-.8-1.9a56.1 56.1 0 0 0 30.5-22.3Z"/>
  <path fill="#f6dece" d="M225.6 138.6c2.8-8 3.7-16.5 5.8-24.7a69 69 0 0 1-6.6 50c-9 17-24 30.3-40.7 39.3a136.5 136.5 0 0 1-83.2 13.5 122.6 122.6 0 0 1-52.7-20.3c7.4 1.6 14.2 5 21.6 6.8 9.9 2.6 20 4.4 30.2 5 30.5 1.7 62.5-3.6 88.3-21a93 93 0 0 0 37.3-48.6Z"/>
  <path fill="#febbd0" d="M55.4 141.3c2.5-4.7 8-6.5 13-7.6a18 18 0 0 0 21.5 4.9c1.2 2.3 3 4.7 2.2 7.4-1 4.5-5.6 7-9.7 8.4A28.8 28.8 0 0 1 59 152c-3.4-2-5.9-6.7-3.8-10.6Zm119.9-7.5c4.6.8 9.5 2.5 12.5 6.5 2.3 3 1.5 7.6-1.3 10-7.8 6.6-19.6 6.9-28.5 2.7-3-1.5-6-4-6.5-7.5-.4-2.5 1.2-4.7 2.2-7a18 18 0 0 0 21.6-4.7Z"/>
  <path fill="#b71422" d="M101.5 153h40.8a40 40 0 0 1-4.3 9.4c-4.5-3.6-10-6.4-16-6-5.9 0-11.1 3.3-15.1 7.4a31.5 31.5 0 0 1-5.4-10.8Z"/>
  <path fill="#ff6164" d="M109.4 166.4c3-3.2 7-6 11.6-6.4 5.4-.8 10.5 1.8 14.6 5.2a25.2 25.2 0 0 1-12.6 7.3c-5.3.4-9.8-3-13.6-6.1Z"/>
</svg>