<svg xmlns="http://www.w3.org/2000/svg" viewBox="0 0 32 32">
  <g>
    <path d="M15.69629,27.002a13.73034,13.73034,0,0,1-9.07129-3.062,8.85817,8.85817,0,0,1-3.60059-6.50537c-.251-5.09082,3.81348-7.74658,8.749-10.45508.28027-.16455.53613-.32129.793-.47949A7.83194,7.83194,0,0,1,16.08691,5a2.04144,2.04144,0,0,1,.69434.11768,14.7815,14.7815,0,0,1,2.94922,1.57666c.97265.60009,2.18262,1.34716,3.708,2.17236a10.1436,10.1436,0,0,1,5.27343,6.14746A8.76747,8.76747,0,0,1,29,17.03516a8.15434,8.15434,0,0,1-2.52539,5.95849A15.61358,15.61358,0,0,1,15.69727,27.002Z" style="fill: #fff3e0"/>
    <path d="M16.08675,6.00008a1.03805,1.03805,0,0,1,.3587.05973l.0372.01323.03769.01177a14.50287,14.50287,0,0,1,2.68393,1.45971c.98318.60718,2.2068,1.36286,3.76636,2.20578a9.16974,9.16974,0,0,1,4.767,5.49227,7.89529,7.89529,0,0,1,.262,1.812,7.17831,7.17831,0,0,1-2.23386,5.2332,14.58563,14.58563,0,0,1-10.06924,3.71438,12.74059,12.74059,0,0,1-8.41533-2.81625l-.02765-.0241L7.225,23.13868a7.97834,7.97834,0,0,1-3.20248-5.75755c-.22223-4.51606,3.43176-6.89035,8.23172-9.525l.02716-.0149.02667-.01572c.25874-.15264.51977-.31265.78255-.47386a7.38691,7.38691,0,0,1,2.99617-1.3516m0-2c-1.61783,0-3.24755,1.19008-4.79488,2.10283-4.52045,2.4812-9.56061,5.40972-9.267,11.37653a9.88979,9.88979,0,0,0,3.94251,7.21441,14.773,14.773,0,0,0,9.72908,3.30826c7.12283,0,14.33568-4.13425,14.30308-10.95713a9.64421,9.64421,0,0,0-.32184-2.2893,11.16289,11.16289,0,0,0-5.764-6.769c-3.49518-1.88916-5.24127-3.32538-6.79767-3.811a3.04356,3.04356,0,0,0-1.02934-.17552Z" style="fill: #37474f"/>
  </g>
  <path d="M19.8551,20.23619A.8091.8091,0,0,0,19.25867,20H12.7452a.7921.7921,0,0,0-.59643.23619.50751.50751,0,0,0-.13724.46308,4.36466,4.36466,0,0,0,1.64163,2.33855,4.1872,4.1872,0,0,0,2.34877.92616,4.18636,4.18636,0,0,0,2.34353-.92616,4.36472,4.36472,0,0,0,1.64163-2.33855A.50226.50226,0,0,0,19.8551,20.23619Z" style="fill: #37474f"/>
  <ellipse cx="22.5" cy="18.5" rx="2.5" ry="1.5" style="fill: #f8bbd0"/>
  <ellipse cx="9.5" cy="18.5" rx="2.5" ry="1.5" style="fill: #f8bbd0"/>
  <circle cx="10" cy="16" r="2" style="fill: #37474f"/>
  <circle cx="22" cy="16" r="2" style="fill: #37474f"/>
  <path d="M9.99635,18A2,2,0,1,0,8,15.99635V16A2,2,0,0,0,9.99635,18Z" style="fill: #455a64;fill-rule: evenodd"/>
  <circle cx="9" cy="15" r="1" style="fill: #fff"/>
  <circle cx="21" cy="15" r="1" style="fill: #fff"/>
</svg>
