<svg version="1.2" baseProfile="tiny" id="Layer_1" xmlns="http://www.w3.org/2000/svg" xmlns:xlink="http://www.w3.org/1999/xlink"
	 x="0px" y="0px" viewBox="0 0 24 24" xml:space="preserve">
<path fill="#EF5350" d="M16.5,16l0.4,2.4c-0.3,0.1-0.7,0.3-1.2,0.4c-0.6,0.1-1.2,0.2-2,0.2c-2.2,0-3.9-0.7-5-2
	C7.5,15.8,7,14.2,7,12.2c0-2.3,0.7-4.1,2-5.3C10.3,5.6,11.9,5,13.9,5c0.8,0,1.4,0.1,1.9,0.2s0.9,0.3,1.2,0.4l-0.6,2.5l-1-0.3
	C15,7.6,14.5,7.6,14,7.6c-1.1,0-2.1,0.4-2.9,1.1C10.4,9.4,10,10.5,10,12c0,1.4,0.4,2.4,1.1,3.2c0.7,0.8,1.7,1.2,3,1.2l1.3-0.1
	C15.8,16.2,16.2,16.1,16.5,16z"/>
</svg>
