<?xml version="1.0" encoding="UTF-8" standalone="no"?>
<svg
   clip-rule="evenodd"
   fill-rule="evenodd"
   stroke-linejoin="round"
   stroke-miterlimit="1.414"
   viewBox="0 0 500 500"
   version="1.1"
   id="svg1"
   xmlns="http://www.w3.org/2000/svg"
   xmlns:svg="http://www.w3.org/2000/svg">
  <defs
     id="defs1" />
  <path
     d="m 249.8125,25.001953 c -1.63402,0.01705 -3.2678,0.152189 -4.90039,0.402344 -1.63262,0.250135 -3.26447,0.614785 -4.89453,1.095703 -1.63005,0.480934 -3.2584,1.077662 -4.88477,1.787109 -1.62636,0.709466 -3.24958,1.533008 -4.87109,2.46875 -53.42419,30.820989 -106.82974,61.677059 -160.253908,92.498051 -1.598832,0.92308 -3.103754,1.90336 -4.513671,2.9414 -1.409917,1.03804 -2.724459,2.13449 -3.94336,3.28711 -1.2189,1.15263 -2.341404,2.36207 -3.367187,3.62891 -1.025782,1.26686 -1.954593,2.59001 -2.785157,3.9707 -0.854819,1.41998 -1.607563,2.90088 -2.253906,4.44141 -0.646342,1.54053 -1.186358,3.14131 -1.621094,4.80273 -0.434733,1.66141 -0.764373,3.38337 -0.984375,5.16602 -0.219998,1.78266 -0.331848,3.62703 -0.333984,5.53125 -0.02508,18.25102 0.06766,57.91927 0.136719,96.0957 0.06907,38.1764 0.114292,74.86108 -0.002,87.14844 -0.01957,2.06593 0.06969,4.06497 0.265625,5.99609 0.195933,1.9311 0.49949,3.79574 0.914062,5.59375 0.414574,1.79801 0.939822,3.52871 1.576172,5.19531 0.63635,1.6666 1.38288,3.2678 2.244141,4.80469 0.861259,1.53689 1.836474,3.01106 2.925781,4.41992 1.089308,1.40889 2.292792,2.7526 3.613281,4.03516 1.320492,1.28253 2.757693,2.50227 4.3125,3.66016 1.55481,1.15791 3.229222,2.2541 5.021485,3.28906 53.175149,30.69845 106.275139,61.52265 159.433589,92.25781 1.64984,0.95048 3.30321,1.77577 4.95704,2.47656 1.65382,0.7008 3.30865,1.27626 4.96484,1.73047 1.65622,0.45421 3.31372,0.78734 4.9707,0.99805 1.65698,0.21071 3.31458,0.29925 4.97071,0.26953 1.61078,-0.0302 3.22015,-0.17244 4.83007,-0.42773 1.60992,-0.25531 3.22042,-0.62237 4.82813,-1.10157 1.6077,-0.47918 3.21424,-1.07158 4.81836,-1.77343 1.60412,-0.70186 3.2055,-1.51421 4.80469,-2.4375 0,0 106.79987,-61.66062 160.20507,-92.51758 1.63432,-0.94449 3.17215,-1.94966 4.60938,-3.01367 1.43725,-1.06404 2.77402,-2.18751 4.01172,-3.3711 1.23771,-1.18356 2.3764,-2.42737 3.41211,-3.73047 1.03568,-1.30308 1.9696,-2.66529 2.80078,-4.08789 0.81846,-1.39851 1.53772,-2.85486 2.15625,-4.36914 0.61853,-1.51423 1.13684,-3.0868 1.55273,-4.71679 0.41587,-1.63002 0.72895,-3.31872 0.93946,-5.06446 0.21049,-1.74576 0.31787,-3.54863 0.32031,-5.41015 -0.0343,-61.39737 -0.17518,-122.79524 -0.17383,-184.19336 -3e-5,-2.06903 -0.11455,-4.06333 -0.33984,-5.98828 -0.22535,-1.92494 -0.5632,-3.78005 -1.01368,-5.56446 -0.45046,-1.7844 -1.01204,-3.49906 -1.6875,-5.14648 -0.67543,-1.64741 -1.46303,-3.22821 -2.36328,-4.74219 -0.90026,-1.51396 -1.91412,-2.96165 -3.03906,-4.3457 -1.12493,-1.38409 -2.36149,-2.70324 -3.71094,-3.96094 -1.34945,-1.2577 -2.81094,-2.45299 -4.38476,-3.58789 -1.5738,-1.13488 -3.26061,-2.20899 -5.0586,-3.22461 -10.69842,-6.04625 -42.44453,-24.427242 -75.4707,-43.572266 -33.02616,-19.14502 -67.33241,-39.055097 -83.15039,-48.158203 -1.62832,-0.937388 -3.25918,-1.753829 -4.89063,-2.449219 -1.63143,-0.695405 -3.265,-1.270914 -4.89843,-1.726562 -1.63343,-0.455647 -3.26612,-0.79163 -4.90039,-1.009766 -1.6343,-0.218137 -3.27029,-0.317907 -4.9043,-0.300781 z m 1.24023,76.490237 h 0.002 c 3.43362,0 6.83944,0.11635 10.21484,0.3457 3.37539,0.22935 6.71955,0.57222 10.0293,1.02344 3.30971,0.45123 6.58567,1.01016 9.82226,1.67578 3.23655,0.6656 6.43392,1.43609 9.58985,2.30859 3.15594,0.87252 6.27003,1.84798 9.33789,2.91993 3.06782,1.07193 6.0902,2.24198 9.0625,3.50585 2.97224,1.26388 5.89446,2.62003 8.76367,4.06836 2.86927,1.44834 5.6866,2.98797 8.44531,4.61329 2.75873,1.62532 5.45886,3.33799 8.09961,5.13281 2.64074,1.79481 5.22104,3.67208 7.73633,5.6289 2.51531,1.95683 4.96723,3.99217 7.34961,6.10352 2.38237,2.11136 4.69552,4.29823 6.9375,6.55664 2.24201,2.25841 4.41176,4.58836 6.50586,6.98633 2.09416,2.39798 4.11394,4.86446 6.05273,7.39453 1.93882,2.53006 3.79626,5.12463 5.57227,7.7793 1.68436,2.51767 3.28308,5.09751 4.81445,7.7207 l -64.6289,37.21094 c -0.79586,-1.34758 -1.63472,-2.66789 -2.51172,-3.95899 -0.87704,-1.29107 -1.79338,-2.5522 -2.74805,-3.7832 -0.95465,-1.231 -1.94778,-2.43026 -2.97656,-3.59766 -1.02886,-1.1674 -2.09389,-2.3021 -3.19336,-3.40234 -1.09945,-1.10027 -2.23186,-2.16769 -3.39844,-3.19727 -1.16657,-1.02957 -2.36742,-2.02315 -3.59766,-2.97851 -1.23024,-0.9554 -2.49086,-1.87237 -3.78125,-2.75 -1.29033,-0.87763 -2.61003,-1.71538 -3.95703,-2.51172 -1.347,-0.79634 -2.72097,-1.55019 -4.12109,-2.26172 -1.40009,-0.71154 -2.82564,-1.38074 -4.27539,-2.00391 -1.44973,-0.62315 -2.92407,-1.20115 -4.41992,-1.73242 -1.49586,-0.53127 -3.01426,-1.01533 -4.55274,-1.45117 -1.5385,-0.43585 -3.09621,-0.82329 -4.67383,-1.16016 -1.57756,-0.33686 -3.1739,-0.62305 -4.78711,-0.85742 -1.6132,-0.23438 -3.24336,-0.41658 -4.88867,-0.54492 -1.6453,-0.12833 -3.30654,-0.20391 -4.98047,-0.22266 l -0.84375,-0.004 c -2.55243,0 -5.07466,0.13034 -7.56054,0.38281 -2.48586,0.25247 -4.93684,0.6266 -7.34375,1.11914 -2.40686,0.49255 -4.77041,1.10399 -7.08594,1.82422 -2.3155,0.72023 -4.58121,1.55079 -6.79297,2.48633 -2.21176,0.9355 -4.36926,1.97485 -6.46484,3.11328 -2.09561,1.13841 -4.13062,2.37614 -6.09766,3.70508 -1.96705,1.32894 -3.86727,2.74881 -5.69336,4.25586 -1.82611,1.50705 -3.57724,3.10066 -5.25,4.77343 -1.67278,1.67279 -3.26639,3.42585 -4.77344,5.25196 -1.50705,1.82611 -2.92886,3.72632 -4.25781,5.69336 -1.32892,1.96705 -2.56472,4.00013 -3.70312,6.0957 -1.13844,2.0956 -2.17972,4.25311 -3.11524,6.46484 -0.93552,2.21175 -1.7661,4.47942 -2.48633,6.79493 -0.72023,2.31548 -1.32971,4.67905 -1.82226,7.08593 -0.49255,2.40686 -0.86862,4.85594 -1.1211,7.3418 -0.25246,2.48585 -0.38085,5.0081 -0.38085,7.56055 -0.002,2.13449 0.0885,4.26794 0.27148,6.39257 0.18301,2.12461 0.45706,4.24107 0.82422,6.34375 0.36715,2.10269 0.82715,4.18714 1.375,6.24805 0.54786,2.06091 1.18472,4.09802 1.91015,6.10547 0.72548,2.00747 1.53738,3.98097 2.4336,5.91602 0.89622,1.93508 1.87561,3.8319 2.9375,5.68359 0.79666,1.39075 1.63712,2.75365 2.51953,4.08594 0.8824,1.33229 1.80709,2.63427 2.77148,3.90429 0.96441,1.27002 1.96909,2.50895 3.01172,3.71289 1.04264,1.20394 2.12311,2.37371 3.24024,3.50782 1.11711,1.13406 2.27114,2.23061 3.45898,3.29101 1.18786,1.06043 2.41119,2.08343 3.66602,3.06641 1.2548,0.98296 2.54137,1.92637 3.85937,2.82812 1.31805,0.90174 2.66742,1.76143 4.04492,2.57813 1.37749,0.81672 2.7836,1.59046 4.2168,2.31836 1.43321,0.7279 2.89179,1.41159 4.37695,2.04687 1.48515,0.63529 2.99596,1.22285 4.5293,1.76172 1.53333,0.53887 3.0902,1.02811 4.66797,1.4668 1.57778,0.43869 3.17646,0.82547 4.79492,1.16016 1.61847,0.3347 3.25674,0.61878 4.91211,0.8457 1.6554,0.22693 3.32902,0.3983 5.01758,0.51367 1.68857,0.11538 3.39139,0.17383 5.10937,0.17383 1.72866,0 3.44367,-0.0589 5.14258,-0.17578 1.6989,-0.11676 3.3835,-0.2917 5.04883,-0.52149 1.66534,-0.22977 3.31347,-0.51466 4.94141,-0.85351 1.62797,-0.33886 3.23554,-0.7317 4.82226,-1.17578 1.58667,-0.44408 3.15174,-0.93892 4.69336,-1.48438 1.54165,-0.54545 3.06001,-1.1422 4.55274,-1.78516 1.49271,-0.64295 2.9604,-1.3337 4.40039,-2.07031 1.43995,-0.73659 2.85101,-1.51738 4.23437,-2.34375 1.38339,-0.8264 2.73758,-1.69709 4.06055,-2.60937 1.32297,-0.91232 2.6163,-1.86699 3.875,-2.86133 1.25869,-0.99436 2.48325,-2.02901 3.67383,-3.10156 1.1906,-1.07257 2.3462,-2.18316 3.46484,-3.33008 1.11869,-1.1469 2.20124,-2.32951 3.24414,-3.54688 1.04289,-1.21739 2.04646,-2.46991 3.00977,-3.7539 0.96326,-1.28398 1.88578,-2.60052 2.76562,-3.94727 0.87986,-1.34672 1.71721,-2.72325 2.50977,-4.1289 l -0.3086,0.53906 64.54297,37.38867 c -1.58816,2.74836 -3.26198,5.44067 -5.01758,8.07422 -1.75557,2.63354 -3.59401,5.20925 -5.50976,7.7207 -1.91573,2.51142 -3.90992,4.95976 -5.97852,7.3418 -2.06864,2.38202 -4.21158,4.69798 -6.42578,6.94336 -2.21422,2.24535 -4.49902,4.42006 -6.85156,6.52148 -2.35252,2.10138 -4.77225,4.12992 -7.25586,6.08008 -2.48354,1.95017 -5.03135,3.82357 -7.63867,5.61523 -2.60735,1.79162 -5.27424,3.50111 -7.99805,5.12696 -2.72383,1.62583 -5.50486,3.16643 -8.33789,4.61914 -2.83303,1.45273 -5.71933,2.8175 -8.6543,4.08984 -2.93493,1.27232 -5.91962,2.45243 -8.94922,3.53711 -3.02964,1.08466 -6.10375,2.07512 -9.2207,2.96485 -3.11699,0.8897 -6.27557,1.67973 -9.47265,2.36718 -3.19706,0.68748 -6.43328,1.27206 -9.70313,1.75 -3.26989,0.47794 -6.57478,0.84825 -9.91016,1.10938 -3.3354,0.26114 -6.70203,0.41215 -10.0957,0.44922 l -1.6543,0.0117 c -3.44446,0 -6.86018,-0.11894 -10.24609,-0.34961 -3.38591,-0.23076 -6.74069,-0.57337 -10.06055,-1.02735 -3.31981,-0.45396 -6.60539,-1.01789 -9.85156,-1.6875 -3.24615,-0.66964 -6.45416,-1.44647 -9.61914,-2.32422 -3.16495,-0.87776 -6.28707,-1.85724 -9.36328,-2.93554 -3.07623,-1.07833 -6.10601,-2.25405 -9.08594,-3.52539 -2.97992,-1.27135 -5.91102,-2.63889 -8.78711,-4.09571 -2.87607,-1.4568 -5.6982,-3.00391 -8.46289,-4.63867 -2.76468,-1.63472 -5.47144,-3.357 -8.11719,-5.16211 -2.64572,-1.80512 -5.23075,-3.69417 -7.75,-5.66211 -2.51924,-1.96796 -4.97224,-4.01542 -7.35742,-6.13867 -2.3852,-2.12322 -4.7017,-4.32079 -6.94531,-6.5918 -2.24359,-2.27097 -4.41532,-4.61424 -6.50977,-7.02539 -2.09445,-2.41118 -4.11303,-4.89174 -6.05078,-7.43554 -1.93776,-2.54379 -3.79485,-5.15141 -5.56836,-7.82032 -1.77351,-2.66889 -3.46274,-5.39912 -5.06445,-8.18554 -1.56381,-2.72061 -3.04449,-5.49486 -4.4375,-8.32032 -1.39302,-2.82544 -2.69889,-5.70168 -3.91406,-8.625 -1.21518,-2.92327 -2.33888,-5.89404 -3.36914,-8.9082 -1.03029,-3.01418 -1.96636,-6.0719 -2.80469,-9.16992 -0.83833,-3.09802 -1.57942,-6.23724 -2.21875,-9.41211 -0.63933,-3.17485 -1.17805,-6.38612 -1.61133,-9.63086 -0.43327,-3.24474 -0.76031,-6.52247 -0.98047,-9.83008 -0.22015,-3.3076 -0.33203,-6.64433 -0.33203,-10.00781 0,-2.56299 0.065,-5.11145 0.19336,-7.64258 0.1283,-2.53109 0.31877,-5.04487 0.57227,-7.54101 0.25349,-2.49612 0.56972,-4.97555 0.94531,-7.4336 0.37558,-2.45804 0.81015,-4.89566 1.30469,-7.3125 0.49454,-2.41681 1.04974,-4.81303 1.66015,-7.18554 0.61041,-2.37251 1.27684,-4.7218 2,-7.04688 0.72317,-2.32506 1.50313,-4.62587 2.33594,-6.90039 0.83281,-2.27453 1.71886,-4.52325 2.6582,-6.74414 0.93934,-2.22086 1.93186,-4.41402 2.97461,-6.57813 1.04277,-2.16411 2.13623,-4.29811 3.2793,-6.40234 1.14307,-2.10422 2.3359,-4.17751 3.57617,-6.21875 1.24028,-2.04125 2.52697,-4.05023 3.86133,-6.02539 1.33437,-1.97515 2.71526,-3.91631 4.14062,-5.82227 1.42535,-1.90593 2.89498,-3.77769 4.40821,-5.61132 1.51321,-1.83364 3.06997,-3.63046 4.66797,-5.38868 1.59798,-1.75819 3.23832,-3.47658 4.91797,-5.15625 1.67963,-1.67966 3.40003,-3.31995 5.1582,-4.91796 1.75819,-1.59802 3.55312,-3.15473 5.38672,-4.66797 1.83361,-1.51326 3.7054,-2.98283 5.61133,-4.40821 1.90594,-1.42538 3.84712,-2.80622 5.82226,-4.14062 1.97514,-1.3344 3.98414,-2.62296 6.02539,-3.86328 2.04124,-1.24031 4.11451,-2.43307 6.21875,-3.57617 2.10423,-1.14311 4.24017,-2.23652 6.4043,-3.2793 2.16411,-1.04281 4.35724,-2.03524 6.57812,-2.97461 2.2209,-0.93938 4.4696,-1.82537 6.74414,-2.6582 2.27455,-0.83285 4.57531,-1.61276 6.90039,-2.33594 2.32511,-0.7232 4.67432,-1.38955 7.04688,-2 2.37254,-0.61044 4.76866,-1.16558 7.18555,-1.66016 2.41687,-0.49456 4.85441,-0.9291 7.3125,-1.30468 2.45806,-0.3756 4.93541,-0.69181 7.43164,-0.94532 2.49621,-0.25351 5.01174,-0.44396 7.54297,-0.57226 2.53119,-0.12832 5.07949,-0.19336 7.64257,-0.19336 z"
     style="display:inline;fill:#1e88e5;stroke-width:1.56324;fill-opacity:1"
     id="path1" />
</svg>
