<svg viewBox="0 0 32 32"><path fill="#0288d1" d="M13.563 23A5.57 5.57 0 0 1 7 17.437v-2.873A5.57 5.57 0 0 1 12.563 9H17V3h-4.437A11.563 11.563 0 0 0 1 14.563v2.873A11.564 11.564 0 0 0 12.563 29H17v-6Z"/><path fill="#0288d1" d="M16.283 10.978q.403-3.611 2.094-5.65C19.503 3.977 21.28 3.3 23.725 3.3c2.116 0 3.794.597 5.025 1.788s1.847 2.775 1.847 4.746c0 1.413-.256 2.538-.778 3.379-.524.837-1.345 1.49-2.478 1.962a6.7 6.7 0 0 1 1.569.75c.518.325.973.74 1.367 1.26.406.515.726 1.123.973 1.834.235.705.35 1.536.35 2.51 0 1.216-.208 2.268-.623 3.174-.428.919-.999 1.69-1.708 2.299a7.6 7.6 0 0 1-2.505 1.418 9.4 9.4 0 0 1-3.039.48q-3.297.001-5.45-2.098c-1.434-1.399-2.325-3.455-2.675-6.2h3.256c.32 2 .874 3.404 1.65 4.22.775.803 1.853 1.206 3.22 1.206.615 0 1.209-.101 1.77-.304a4.2 4.2 0 0 0 1.48-.902c.432-.4.774-.873 1.04-1.428.25-.569.37-1.19.37-1.866 0-1.351-.412-2.501-1.25-3.444q-1.24-1.407-3.41-1.409h-1.852v-2.872h1.851c.672 0 1.242-.106 1.711-.328q.7-.334 1.145-.862c.296-.35.503-.75.622-1.188.13-.447.18-.888.18-1.325q.001-1.856-1.025-2.916t-2.719-1.059c-.695 0-1.28.128-1.765.398a3.65 3.65 0 0 0-1.208 1.055q-.478.667-.763 1.549a10.3 10.3 0 0 0-.4 1.851z"/></svg>