<svg xmlns="http://www.w3.org/2000/svg" viewBox="0 0 32 32"><path fill="#0288d1" d="M12.885 21.85a5.292 5.292 0 0 1-6.235-5.285v-2.73a5.29 5.29 0 0 1 5.285-5.285h4.215v-5.7h-4.215A10.985 10.985 0 0 0 .95 13.835v2.73A10.986 10.986 0 0 0 11.935 27.55h4.215v-5.7Zm3.968-11.617q.39-3.5 2.03-5.474c1.09-1.309 2.812-1.965 5.181-1.965 2.05 0 3.677.576 4.868 1.733s1.79 2.688 1.79 4.596c0 1.37-.247 2.462-.753 3.276-.507.81-1.303 1.442-2.401 1.9a6.5 6.5 0 0 1 1.52.728 5 5 0 0 1 1.323 1.22c.395.499.705 1.087.944 1.777.228.683.339 1.488.339 2.433 0 1.177-.202 2.196-.602 3.074-.416.89-.97 1.636-1.657 2.227a7.3 7.3 0 0 1-2.428 1.374 9.3 9.3 0 0 1-2.943.464q-3.194 0-5.28-2.032c-1.39-1.355-2.253-3.347-2.593-6.005h3.156c.309 1.936.846 3.296 1.598 4.087.75.778 1.794 1.17 3.12 1.17a5.2 5.2 0 0 0 1.714-.294 4.1 4.1 0 0 0 1.434-.876 4.6 4.6 0 0 0 1.008-1.383 4.4 4.4 0 0 0 .359-1.808c0-1.308-.399-2.421-1.212-3.339q-1.2-1.361-3.303-1.363h-1.794V12.97h1.792c.65 0 1.202-.103 1.658-.319q.678-.322 1.109-.834a2.9 2.9 0 0 0 .603-1.151c.126-.434.174-.862.174-1.284q0-1.798-.993-2.825T23.979 5.53c-.673 0-1.24.125-1.71.387a3.5 3.5 0 0 0-1.171 1.023q-.463.646-.737 1.499a10 10 0 0 0-.388 1.793z"/></svg>