<svg xmlns="http://www.w3.org/2000/svg" viewBox="0 0 32 32"><path d="M11.563,22A5.57,5.57,0,0,1,6,16.437V13.564A5.57,5.57,0,0,1,11.563,8H14V2H11.563A11.563,11.563,0,0,0,0,13.563H0v2.873A11.564,11.564,0,0,0,11.563,28H14V22Z" style="fill:#0288d1"/><path d="M31.6922,17.86877A5.17168,5.17168,0,0,0,28,14c3.39038-.894,4.26782-5.241,2.792-8.108C27.48651-.41156,16.76385,1.34747,15.3855,8.273L20.275,9.5285a3.17083,3.17083,0,0,1,3.04059-2.75421,2.99312,2.99312,0,0,1,1.8137.70172c1.1905.91138,1.24872,3.785-.35284,4.23236A9.06418,9.06418,0,0,1,21.99884,12H20v4h2c1.69928.10748,3.36176.57721,4.23,2.31317a3.4291,3.4291,0,0,1,.37726,1.63593,3.24751,3.24751,0,0,1-.29742,1.464c-.91858,1.9851-3.984,2.16638-5.40674.74884a4.42853,4.42853,0,0,1-1.2854-2.14331l-4.88959,1.42926C17.17517,31.897,34.721,29.20886,31.6922,17.86877Z" style="fill:#0288d1"/></svg>