<svg width="16" height="16" viewBox="0 0 16 16"
  xmlns="http://www.w3.org/2000/svg">
  <g fill="#4DD0E1" transform="matrix(0.02,0,0,0.03, 1,  1)">
    <path d="M 180,411.4 C 116.7,403.3 63.1,370.2 31.9,320 15.9,294.2 6,265.5 2,233.6 0.4,220.3 0.6,190.2 2.5,175.3 8.1,132.2 26.2,93.5 55,63.6 85.5,31.9 124.4,12.1 172.1,3.9 183.7,1.9 189,1.6 212,1.5 c 23.4,0 28,0.3 39.3,2.3 41.6,7.5 75,22.8 99.2,45.4 l 8.7,8.1 -31.8,31.8 -31.8,31.8 -5.4,-6 C 279.7,103.3 264,94.4 245.5,89.5 231.9,85.8 210.8,85 196.1,87.4 c -46.1,7.7 -79.7,41.1 -90.7,90.1 -2.5,11.1 -3,38.7 -0.9,52 7.9,51.7 41.9,87.7 90.5,96.1 12.8,2.2 35.9,1.5 48,-1.6 10.1,-2.5 24.9,-9.3 33.4,-15.4 5.7,-4.1 16.6,-14.5 20,-19.1 1.4,-1.9 1.7,-1.8 8.3,4.6 3.7,3.6 18.2,17.3 32.1,30.3 13.8,13.1 25.2,24.3 25.2,25 0,1.4 -12.2,13.4 -21,20.6 -16.4,13.4 -41.2,26.9 -61.5,33.3 -11.9,3.8 -27.8,7.1 -42,8.7 -12.4,1.4 -44.8,1.1 -57.5,-0.6 z"/>
    <path d="m 513.8,412 c -40.1,-5 -71.6,-18.6 -94.9,-40.8 -11.1,-10.5 -20.3,-22.6 -26.3,-34.6 -5.9,-11.8 -10.8,-25.9 -9.2,-26.7 1.4,-0.8 81.8,-21.9 83.1,-21.9 0.6,0.1 3.2,4.6 5.8,10.1 9,18.9 26,32.3 45.9,36.3 22.1,4.5 46,-0.9 59.3,-13.5 9.9,-9.3 14.5,-20.5 14.5,-34.9 -0.1,-14.3 -3.3,-22.4 -12.9,-32.1 C 565,239.9 543.7,234 506.3,234 H 487 v -33.4 -33.4 l 23.8,-0.5 c 24.6,-0.6 32.7,-1.6 43.4,-5.7 12.3,-4.6 22.5,-13.9 26.5,-24.1 1.2,-3.3 1.7,-7.6 1.7,-16.9 0.1,-12.2 0,-12.7 -3.1,-19.1 -5.6,-11.2 -16.7,-19.6 -31,-23.3 -7.7,-2 -22.2,-2 -29.8,-0.1 -17.2,4.5 -32.2,18.9 -37.5,36 -0.7,2.2 -1.6,4.4 -2,4.8 -0.6,0.7 -83.7,-17.8 -84.9,-18.9 -0.6,-0.5 3.6,-11.7 7.5,-20.3 5.4,-11.8 14.1,-23.8 24.9,-34.6 20.3,-20.4 45.4,-33.4 77.4,-40.2 11.6,-2.5 14.5,-2.7 35.6,-2.8 18.2,0 25.1,0.4 33,1.9 44.9,8.3 76.8,29.2 93.9,61.5 11.9,22.7 13.9,54.9 5,79.1 -8.4,22.4 -30.6,43 -54.6,50.6 -3.2,1 -5.8,2.3 -5.8,3 0,0.6 2.8,1.9 6.3,2.8 16.9,4.6 37.8,18.4 48.8,32.3 15.7,19.7 21.5,39.4 19.8,67 -1.8,27.2 -11.8,49.8 -30.9,69.7 -19,19.8 -45.1,33.1 -78.4,40.2 -10.4,2.2 -15.2,2.6 -34.1,2.9 -12.1,0.2 -25,0 -28.7,-0.5 z"/>
  </g>
</svg>
