<svg xmlns="http://www.w3.org/2000/svg" viewBox="0 0 32 32"><path fill="#0288d1" d="M13.563 23A5.57 5.57 0 0 1 7 17.437v-2.873A5.57 5.57 0 0 1 12.563 9H17V3h-4.437A11.563 11.563 0 0 0 1 14.563v2.873A11.564 11.564 0 0 0 12.563 29H17v-6Z"/><path fill="#0288d1" d="M17.655 11.88q.362-3.25 1.884-5.085c1.014-1.216 2.613-1.825 4.814-1.825 1.904 0 3.414.537 4.522 1.61s1.662 2.497 1.662 4.27c0 1.272-.23 2.285-.7 3.042-.471.753-1.21 1.34-2.23 1.766a6 6 0 0 1 1.412.675c.466.292.876.666 1.23 1.134.366.463.654 1.01.876 1.65.212.635.315 1.382.315 2.26 0 1.094-.187 2.04-.56 2.856-.386.827-.9 1.52-1.538 2.069a6.8 6.8 0 0 1-2.254 1.276 8.5 8.5 0 0 1-2.735.432q-2.968 0-4.905-1.888c-1.291-1.26-2.093-3.11-2.408-5.58h2.93c.288 1.8.787 3.063 1.485 3.798.698.722 1.668 1.085 2.898 1.085a4.7 4.7 0 0 0 1.593-.273 3.8 3.8 0 0 0 1.332-.812 4.2 4.2 0 0 0 .936-1.285 4.1 4.1 0 0 0 .333-1.68c0-1.216-.37-2.25-1.125-3.1q-1.116-1.266-3.069-1.268h-1.666v-2.584h1.666c.604 0 1.117-.096 1.54-.296q.63-.3 1.03-.775c.266-.315.453-.675.56-1.07.117-.402.162-.799.162-1.192q0-1.67-.923-2.624t-2.447-.954c-.625 0-1.152.116-1.588.359a3.3 3.3 0 0 0-1.088.95q-.43.6-.686 1.393a9.3 9.3 0 0 0-.36 1.666z"/></svg>