<svg xmlns="http://www.w3.org/2000/svg" viewBox="0 0 32 32"><path fill="#0288d1" d="M11.45 20.758a5.027 5.027 90 0 1-5.923-5.021v-2.594a5.026 5.026 90 0 1 5.02-5.02h4.005V2.708h-4.004A10.436 10.436 90 0 0 .111 13.143v2.594a10.437 10.437 90 0 0 10.436 10.436h4.004v-5.415zm20.09-3.4a5.1 5.1 90 0 0-.87-1.491 5.5 5.5 90 0 0-1.338-1.15 5.7 5.7 90 0 0-1.71-.698v-.093a5.08 5.08 90 0 0 2.659-1.697q1.041-1.26 1.042-3.098 0-1.589-.669-2.756a6.1 6.1 90 0 0-1.757-1.946 7.6 7.6 90 0 0-2.472-1.152 11 11 90 0 0-2.844-.374 10 10 90 0 0-2.674.358 8.8 8.8 90 0 0-2.41 1.057 7.5 7.5 90 0 0-1.912 1.74A7.2 7.2 90 0 0 15.372 8.5l4.85 1.119a3.1 3.1 90 0 1 1.073-1.788 3 3 90 0 1 1.943-.668 3.14 3.14 90 0 1 1.928.625q.84.626.84 1.815 0 .813-.327 1.314a2.4 2.4 90 0 1-.87.798 3.8 3.8 90 0 1-1.228.406 9 9 90 0 1-1.431.11h-1.523v3.793h1.399a9.5 9.5 90 0 1 1.617.14 5 5 90 0 1 1.446.466 2.76 2.76 90 0 1 1.026.886 2.4 2.4 90 0 1 .388 1.4 2.65 2.65 90 0 1-.295 1.305 2.6 2.6 90 0 1-.746.855 3.1 3.1 90 0 1-1.026.482 4.3 4.3 90 0 1-1.135.156q-1.492 0-2.456-.824a3.9 3.9 90 0 1-1.275-1.912l-4.85 1.275a7.34 7.34 90 0 0 3.343 4.461 9.2 9.2 90 0 0 2.58 1.042 12.3 12.3 90 0 0 2.907.342 11 11 90 0 0 3-.42 8.4 8.4 90 0 0 2.66-1.272 6.6 6.6 90 0 0 1.911-2.174q.73-1.319.731-3.12a4.9 4.9 90 0 0-.312-1.754"/></svg>