<svg viewBox="0 0 32 32"><path fill="#0288d1" d="M12.207 21.6A5.013 5.013 0 0 1 6.3 16.593v-2.585A5.013 5.013 0 0 1 11.307 9H15.3V3.6h-3.993A10.407 10.407 0 0 0 .9 14.007v2.585A10.41 10.41 0 0 0 11.307 27H15.3v-5.4Zm4.248-10.37c.241-2.165.87-3.863 1.884-5.085 1.014-1.216 2.614-1.825 4.814-1.825 1.904 0 3.414.537 4.522 1.609s1.662 2.497 1.662 4.272c0 1.271-.23 2.284-.7 3.04-.471.754-1.21 1.342-2.23 1.766q.73.237 1.412.675a4.6 4.6 0 0 1 1.23 1.134 5.6 5.6 0 0 1 .876 1.65c.211.635.315 1.383.315 2.26 0 1.095-.187 2.041-.561 2.857-.385.827-.899 1.521-1.537 2.068a6.9 6.9 0 0 1-2.254 1.277 8.5 8.5 0 0 1-2.735.432q-2.968.001-4.905-1.888c-1.291-1.259-2.093-3.11-2.408-5.58h2.93c.288 1.8.787 3.064 1.486 3.798.697.723 1.667 1.085 2.897 1.085.554 0 1.088-.091 1.593-.274a3.8 3.8 0 0 0 1.333-.811 4.2 4.2 0 0 0 .935-1.286 4.1 4.1 0 0 0 .333-1.679c0-1.216-.37-2.251-1.125-3.099q-1.114-1.267-3.07-1.269h-1.666v-2.584h1.667c.604 0 1.118-.096 1.54-.296a3 3 0 0 0 1.03-.776 2.8 2.8 0 0 0 .56-1.069 4.2 4.2 0 0 0 .162-1.192q0-1.672-.923-2.624c-.614-.637-1.433-.953-2.447-.953-.626 0-1.152.115-1.589.358a3.3 3.3 0 0 0-1.087.95q-.43.599-.686 1.393a9.3 9.3 0 0 0-.36 1.666z"/></svg>