<svg xmlns="http://www.w3.org/2000/svg" viewBox="0 0 32 32">
  <path d="M20,22V18.46992q-.0082-.155-.01107-.31025-.00306-.43561-.04094-.86985a5.25736,5.25736,0,0,0-.17926-.994,2.91275,2.91275,0,0,0-1.02689-1.56275A4.42175,4.42175,0,0,0,16.01747,14a4.51719,4.51719,0,0,0-2.762.74,2.91692,2.91692,0,0,0-1.05124,1.57079,5.00068,5.00068,0,0,0-.18479,1.07209q-.02939.448-.01439.89743.00248.09537.00443.19075v3.53008Z" style="fill: #4fc3f7;fill-rule: evenodd"/>
  <path d="M29,19c0-7.40894-5.26807-13-13-13S3,11.59106,3,19c-.00348,2.3172,0,5,1,7.02582v-.8393C4.001,23.51276,6.26392,22.18439,8,22V17.562C8,12.37964,10.38824,9.93066,16,10c5.61176-.06934,8,2.37964,8,7.562V22c1.73608.18439,3.999,1.51276,4,3.18652v.8393C29,24,29.00348,21.3172,29,19Z" style="fill: #4fc3f7;fill-rule: evenodd"/>
</svg>
