<svg xmlns="http://www.w3.org/2000/svg" viewBox="0 0 595.18755 461.63037"><path fill="#4fc3f7" fill-rule="evenodd" d="M595.18721 297.59326C595.18721 133.23706 461.95 0 297.59383 0 133.23738 0 .00032 133.23706.00032 297.59326A296.21407 296.21407 0 0 0 38.59969 444.241v-18.62015a72.88174 72.88174 0 0 1 64.86431-72.39624v-96.741c0-114.95654 71.98242-176.18384 191.25878-174.61792 57.99414.75733 104.60376 14.78418 137.37964 42.73389 35.06934 29.90478 53.26013 74.82519 53.26013 133.71l-.15747 95.49951a72.88557 72.88557 0 0 1 60.705 71.81177v36.00952a296.18 296.18 0 0 0 49.27713-164.03712Z"/><path fill="#4fc3f7" fill-rule="evenodd" d="M397.81832 352.77734v-65.62109c-.11792-1.95605-.18836-4.02393-.27906-7.70776-.27014-10.844-.44983-15.06446-1.07336-21.54419a125.934 125.934 0 0 0-4.62695-24.60816c-4.90479-16.19409-13.33521-29.1582-26.41187-38.71069-16.05322-11.729-38.97363-18.18042-70.07788-18.18042-31.38782 0-54.67481 6.50342-71.07837 18.323-13.39893 9.65332-22.08008 22.75244-27.056 38.93921a119.7324 119.7324 0 0 0-4.73547 26.53515 216.58826 216.58826 0 0 0-.35779 22.25806c.00451.1604.04455 1.94043.05493 2.43921.02075.90405.03406 1.61645.04456 2.28l.00146.17676v65.42089Z"/></svg>