<?xml version="1.0" encoding="UTF-8"?>
<svg version="1.1" viewBox="0 0 24 24" xmlns="http://www.w3.org/2000/svg">
 <g transform="matrix(.03737 0 0 .03737 10.998 11.087)">
  <g transform="matrix(.93995 0 0 .93995 1.6106 1.4678)" fill="#4fc3f7" fill-rule="evenodd">
   <path d="m324.41 91.219c0-164.36-133.24-297.59-297.59-297.59-164.36 0-297.59 133.24-297.59 297.59a296.21 296.21 0 0 0 38.599 146.65v-18.62a72.882 72.882 0 0 1 64.864-72.396v-96.741c0-114.96 71.982-176.18 191.26-174.62 57.994 0.75733 104.6 14.784 137.38 42.734 35.069 29.905 53.26 74.825 53.26 133.71l-0.15747 95.5a72.886 72.886 0 0 1 60.705 71.812v36.01a296.18 296.18 0 0 0 49.277-164.04z"/>
   <path d="m127.04 146.4v-65.621c-0.11792-1.956-0.18836-4.0239-0.27906-7.7078-0.27014-10.844-0.44983-15.064-1.0734-21.544a125.93 125.93 0 0 0-4.627-24.608c-4.9048-16.194-13.335-29.158-26.412-38.711-16.053-11.729-38.974-18.18-70.078-18.18-31.388 0-54.675 6.5034-71.078 18.323-13.399 9.6533-22.08 22.752-27.056 38.939a119.73 119.73 0 0 0-4.7355 26.535 216.59 216.59 0 0 0-0.35779 22.258c5e-3 0.1604 0.0446 1.9404 0.0549 2.4392 0.0207 0.90405 0.0341 1.6164 0.0446 2.28l1e-3 0.17676v65.421z"/>
  </g>
 </g>
</svg>
