<?xml version="1.0" encoding="UTF-8"?>
<svg version="1.1" viewBox="0 0 24 24" xmlns="http://www.w3.org/2000/svg">
 <g transform="matrix(.12214 0 0 .12214 -3.3215 -3.9468)">
  <g transform="matrix(.95705 0 0 .95705 5.3875 5.6073)" fill="#00e676" stroke-width="2.56">
   <rect class="st1" x="147.97" y="108.03" width="36.096" height="36.096"/>
   <path class="st1" d="m111.87 157.7c0 7.424-6.144 13.568-13.568 13.568s-13.568-6.144-13.568-13.568 6.144-13.568 13.568-13.568h13.568v-36.096h-13.568c-27.392 0-49.664 22.272-49.664 49.664s22.272 49.664 49.664 49.664 49.664-22.272 49.664-49.664v-13.568h-36.096z"/>
   <path class="st1" d="m161.54 89.856h40.704v-36.096h-40.704c-27.392 0-49.664 22.272-49.664 49.664v4.608h36.096v-4.608c0-7.424 6.144-13.568 13.568-13.568z"/>
  </g>
 </g>
</svg>
