<svg xmlns="http://www.w3.org/2000/svg" viewBox="0 0 32 32">
  <path d="M16.00008,10A2.84674,2.84674,0,0,0,19,7.33677V7.33382a2.32214,2.32214,0,0,0-.43472-1.37142L16.00008,2,13.43489,5.95945a2.33056,2.33056,0,0,0-.43473,1.3729A2.84741,2.84741,0,0,0,15.99842,10h.00166m6.13378,13.3755L20.70751,22,19.2679,23.3755a4.91678,4.91678,0,0,1-6.51958,0L11.33378,22,9.86762,23.3755A4.78945,4.78945,0,0,1,4,23.87108V29a1,1,0,0,0,1,1H27a1,1,0,0,0,1-1V23.87108a4.78945,4.78945,0,0,1-5.86614-.497M23.99975,14H17.33268V12H14.66732v2H8.00025A4.1446,4.1446,0,0,0,4,18.0895H4v1.41573A2.5603,2.5603,0,0,0,6.61373,22a2.52767,2.52767,0,0,0,1.83935-.72647l2.8807-2.71018,2.81286,2.71018a2.764,2.764,0,0,0,3.69344,0l2.82613-2.71018,2.86744,2.71018A2.64855,2.64855,0,0,0,28,19.50523V18.0895A4.1446,4.1446,0,0,0,23.99975,14Z" style="fill: #ff7043"/>
</svg>
