<?xml version="1.0" encoding="UTF-8" standalone="no"?>
<svg
   xmlns:dc="http://purl.org/dc/elements/1.1/"
   xmlns:cc="http://creativecommons.org/ns#"
   xmlns:rdf="http://www.w3.org/1999/02/22-rdf-syntax-ns#"
   xmlns:svg="http://www.w3.org/2000/svg"
   xmlns="http://www.w3.org/2000/svg"
   xmlns:sodipodi="http://sodipodi.sourceforge.net/DTD/sodipodi-0.dtd"
   xmlns:inkscape="http://www.inkscape.org/namespaces/inkscape"
   version="1.1"
   width="24"
   height="24"
   viewBox="0 0 24 24"
   id="svg4"
   sodipodi:docname="cake.svg"
   inkscape:version="0.92.1 r15371">
  <metadata
     id="metadata10">
    <rdf:RDF>
      <cc:Work
         rdf:about="">
        <dc:format>image/svg+xml</dc:format>
        <dc:type
           rdf:resource="http://purl.org/dc/dcmitype/StillImage" />
      </cc:Work>
    </rdf:RDF>
  </metadata>
  <defs
     id="defs8" />
  <sodipodi:namedview
     pagecolor="#ffffff"
     bordercolor="#666666"
     borderopacity="1"
     objecttolerance="10"
     gridtolerance="10"
     guidetolerance="10"
     inkscape:pageopacity="0"
     inkscape:pageshadow="2"
     inkscape:window-width="1366"
     inkscape:window-height="705"
     id="namedview6"
     showgrid="false"
     inkscape:zoom="9.8333333"
     inkscape:cx="12"
     inkscape:cy="12"
     inkscape:window-x="-8"
     inkscape:window-y="-8"
     inkscape:window-maximized="1"
     inkscape:current-layer="svg4" />
  <path
     d="m 12.254237,6.621469 c 1.00339,0 1.80791,-0.8135594 1.80791,-1.8079096 0,-0.3435029 -0.0904,-0.659887 -0.262147,-0.9310735 L 12.254237,1.1977402 10.708475,3.8824859 c -0.171752,0.2711865 -0.262147,0.5875706 -0.262147,0.9310735 a 1.8079096,1.8079096 0 0 0 1.807909,1.8079096 m 4.158192,9.039548 -0.967231,-0.976271 -0.976272,0.976271 c -1.175141,1.166102 -3.236158,1.175141 -4.420338,0 L 9.0903955,14.684746 8.0960452,15.661017 c -0.5875706,0.578531 -1.3740113,0.903955 -2.2056497,0.903955 -0.659887,0 -1.2655367,-0.20791 -1.7717514,-0.551412 v 4.167231 a 0.9039548,0.9039548 0 0 0 0.9039548,0.903955 H 19.485876 A 0.9039548,0.9039548 0 0 0 20.38983,20.180791 V 16.01356 c -0.506214,0.343502 -1.111864,0.551412 -1.771751,0.551412 -0.831638,0 -1.618079,-0.325424 -2.20565,-0.903955 M 17.677966,9.3333337 H 13.158192 V 7.5254238 h -1.80791 V 9.3333337 H 6.8305085 A 2.7118644,2.7118644 0 0 0 4.1186441,12.045198 v 1.39209 c 0,0.976272 0.7954802,1.771752 1.7717514,1.771752 0.4881356,0 0.940113,-0.180791 1.2474576,-0.515254 l 1.9525424,-1.925424 1.9073445,1.925424 c 0.668927,0.668926 1.835028,0.668926 2.503955,0 l 1.916384,-1.925424 1.943503,1.925424 c 0.316384,0.334463 0.768361,0.515254 1.247457,0.515254 0.976272,0 1.780791,-0.79548 1.780791,-1.771752 v -1.39209 A 2.7118644,2.7118644 0 0 0 17.677966,9.3333337 Z"
     id="path2"
     inkscape:connector-curvature="0"
     style="fill:#ff7043;fill-opacity:1;stroke-width:0.9039548" />
</svg>
