<svg xmlns="http://www.w3.org/2000/svg" viewBox="0 0 32 32"><defs><linearGradient id="canopy" x1="0" y1="0" x2="1" y2="0"><stop offset="0" stop-color="#ffa726"/><stop offset="0.17" stop-color="#ec407a"/><stop offset="0.34" stop-color="#26a69a"/><stop offset="0.5" stop-color="#66bb6a"/><stop offset="0.66" stop-color="#29b6f6"/><stop offset="0.83" stop-color="#5c6bc0"/><stop offset="1" stop-color="#ab47bc"/></linearGradient></defs><path transform="translate(2.7 2.4) scale(0.0292)" fill="url(#canopy)" d="M443.939 186.481C463.651 184.852 480.766 187.337 494.385 194.32C563.565 214.14 652.133 270.575 734.017 352.458C869.357 487.798 935.186 641.398 881.05 695.533C826.914 749.669 673.313 683.84 537.973 548.501C503.924 514.453 474.276 479.247 449.829 444.762C425.448 479.094 395.917 514.132 362.026 548.023C226.685 683.362 73.0838 749.191 18.9476 695.055C-25.384 640.919 30.6403 487.319 165.981 351.98C249.964 267.997 340.978 210.78 410.895 192.385C420.507 188.495 431.608 186.563 443.939 186.481Z"/></svg>
