<?xml version="1.0" encoding="UTF-8"?>
<svg version="1.0" viewBox="0 0 940 350" xmlns="http://www.w3.org/2000/svg">
<mask id="a">
<rect width="100%" height="100%" fill="#FFF"/>
<polygon points="297.71 231.77 300.11 231.67 302.51 231.57 304.91 231.47 307.31 231.38 309.7 231.28 312.1 231.18 314.5 231.08 316.9 230.98 319.3 230.89 321.7 230.79 324.1 230.69 326.5 230.59 325.35 226.85 324.2 223.1 323.05 219.36 321.9 215.61 320.74 211.87 319.59 208.12 318.44 204.38 317.29 200.63 316.14 196.88 314.99 193.14 313.84 189.39 312.69 185.65 311.44 189.49 310.19 193.33 308.95 197.18 307.7 201.02 306.45 204.86 305.2 208.71 303.95 212.55 302.7 216.39 301.46 220.24 300.21 224.08 298.96 227.92 297.77 231.58"/>
<polygon points="542.7 135.71 542.7 132.6 542.7 129.17 542.7 125.48 542.7 121.57 542.7 117.5 542.7 113.31 542.7 109.07 542.7 104.81 542.7 100.6 542.7 96.476 542.7 92.497 542.7 88.711 549.85 88.553 556.6 88.181 562.89 87.747 568.7 87.405 573.98 87.309 578.68 87.609 582.78 88.461 586.22 90.017 588.96 92.429 590.98 95.851 592.21 100.44 592.64 106.34 592.21 112.47 590.98 117.69 588.96 122.08 586.22 125.7 582.78 128.63 578.68 130.94 573.98 132.69 568.7 133.97 562.89 134.84 556.6 135.37 549.85 135.64 543.06 135.71"/>
</mask>
<g fill="#C52828" mask="url(#a)">
<polygon points="165.52 128.95 165.52 127.98 165.52 127 165.52 126.02 165.52 125.04 165.52 124.06 165.52 123.08 165.52 122.1 165.52 121.12 165.52 120.14 165.52 119.16 165.52 118.18 165.52 117.2 169.29 116.79 173.06 116.37 176.83 115.96 180.6 115.54 184.37 115.12 188.14 114.71 191.91 114.29 195.68 113.88 199.45 113.46 203.22 113.04 206.99 112.63 210.76 112.21 210.76 120.04 210.76 127.88 210.76 135.71 210.76 143.54 210.76 151.38 210.76 159.21 210.76 167.04 210.76 174.88 210.76 182.71 210.76 190.54 210.76 198.38 210.76 206.21 207.09 206.46 203.42 206.7 199.74 206.95 196.07 207.19 192.4 207.43 188.73 207.68 185.06 207.92 181.39 208.17 177.71 208.41 174.04 208.66 170.37 208.9 166.7 209.15 166.39 199.5 165.5 191.07 164.04 183.8 162.07 177.6 159.6 172.41 156.68 168.15 153.34 164.77 149.6 162.17 145.51 160.3 141.1 159.09 136.4 158.45 131.45 158.33 121.83 159.25 113.47 161.48 106.3 164.9 100.22 169.39 95.171 174.85 91.057 181.13 87.8 188.13 85.318 195.73 83.53 203.81 82.353 212.25 81.707 220.92 81.51 229.71 81.658 239.83 82.161 249.56 83.104 258.8 84.572 267.45 86.653 275.41 89.431 282.57 92.994 288.83 97.426 294.09 102.81 298.26 109.24 301.23 116.8 302.89 125.57 303.15 132.62 302.24 138.94 300.3 144.54 297.42 149.44 293.67 153.68 289.12 157.28 283.86 160.26 277.95 162.64 271.48 164.45 264.52 165.71 257.15 166.46 249.43 166.7 241.46 170.37 241.22 174.04 240.97 177.71 240.73 181.39 240.48 185.06 240.24 188.73 239.99 192.4 239.75 196.07 239.5 199.74 239.26 203.42 239.01 207.09 238.77 210.76 238.52 210.56 254.85 208.53 270 204.74 283.94 199.25 296.62 192.13 307.99 183.45 318.01 173.26 326.64 161.64 333.82 148.64 339.51 134.34 343.67 118.79 346.26 102.07 347.21 85.379 346.58 70.358 344.41 56.965 340.69 45.153 335.41 34.879 328.56 26.096 320.13 18.76 310.1 12.826 298.46 8.2474 285.2 4.9801 270.31 2.9785 253.78 2.1976 235.59 2.9135 220.66 5.35 206.1 9.4992 192.07 15.353 178.76 22.905 166.31 32.146 154.92 43.068 144.74 55.665 135.95 69.928 128.72 85.849 123.22 103.42 119.62 122.64 118.09 126.19 118.17 129.75 118.53 133.32 119.14 136.89 119.96 140.46 120.94 144.04 122.05 147.62 123.23 151.21 124.46 154.79 125.68 158.37 126.87 161.95 127.97 165.34 128.91"/>
<polygon points="366.45 112.21 379.68 155.17 390.3 190.53 398.76 219.02 405.51 241.35 410.99 258.26 415.65 270.47 419.95 278.7 424.33 283.67 429.24 286.12 435.13 286.76 442.44 286.32 451.64 285.52 451.64 288.95 451.64 292.38 451.64 295.8 451.64 299.23 451.64 302.66 451.64 306.09 451.64 309.51 451.64 312.94 451.64 316.37 451.64 319.79 451.64 323.22 451.64 326.65 440.62 327.38 429.6 328.12 418.59 328.85 407.57 329.59 396.56 330.32 385.54 331.05 374.53 331.79 363.51 332.52 352.49 333.26 341.48 333.99 330.46 334.73 319.45 335.46 319.45 332.21 319.45 328.95 319.45 325.69 319.45 322.44 319.45 319.18 319.45 315.93 319.45 312.67 319.45 309.42 319.45 306.16 319.45 302.9 319.45 299.65 319.45 296.39 321.75 296.22 324.05 296.05 326.35 295.88 328.65 295.71 330.95 295.54 333.25 295.36 335.55 295.19 337.86 295.02 340.16 294.85 342.46 294.68 344.76 294.51 347.06 294.34 346.47 292.13 345.89 289.93 345.3 287.73 344.71 285.52 344.12 283.32 343.54 281.12 342.95 278.91 342.36 276.71 341.77 274.51 341.19 272.3 340.6 270.1 340.01 267.9 335.38 268.27 330.76 268.63 326.13 269 321.5 269.37 316.88 269.73 312.25 270.1 307.62 270.47 303 270.84 298.37 271.2 293.74 271.57 289.12 271.94 284.49 272.3 283.83 274.58 283.17 276.86 282.51 279.13 281.85 281.41 281.19 283.69 280.53 285.96 279.86 288.24 279.2 290.52 278.54 292.79 277.88 295.07 277.22 297.35 276.56 299.62 278.98 299.45 281.41 299.28 283.83 299.11 286.25 298.94 288.68 298.77 291.1 298.6 293.52 298.42 295.95 298.25 298.37 298.08 300.79 297.91 303.22 297.74 305.64 297.57 305.64 300.97 305.64 304.37 305.64 307.78 305.64 311.18 305.64 314.58 305.64 317.98 305.64 321.39 305.64 324.79 305.64 328.19 305.64 331.59 305.64 335 305.64 338.4 296.51 339.13 287.38 339.87 278.25 340.6 269.12 341.34 259.99 342.07 250.86 342.8 241.73 343.54 232.6 344.27 223.46 345.01 214.33 345.74 205.2 346.48 196.07 347.21 196.07 343.74 196.07 339.99 196.07 336.06 196.07 332.03 196.07 328.01 196.07 324.08 196.07 320.33 196.07 316.86 196.07 313.75 196.07 311.1 196.07 309.01 196.07 307.55 205.36 307.39 212.54 307.09 218.15 305.83 222.73 302.82 226.82 297.24 230.96 288.28 235.69 275.12 241.55 256.96 249.09 232.99 258.83 202.4 271.34 164.36 287.14 118.09 293.74 117.6 300.35 117.11 306.96 116.62 313.57 116.13 320.18 115.64 326.79 115.15 333.4 114.66 340.01 114.17 346.62 113.68 353.23 113.19 359.84 112.7 366.12 112.24"/>
<polygon points="577.95 226.77 577.95 229.86 577.95 232.8 577.95 235.63 577.95 238.41 577.95 241.2 577.95 244.03 577.95 246.97 577.95 250.06 577.95 253.35 577.95 256.9 577.95 260.75 577.95 264.96 566.07 266.22 553.58 267.54 540.68 268.91 527.57 270.29 514.47 271.68 501.57 273.04 489.08 274.36 477.2 275.62 466.14 276.8 456.1 277.88 447.28 278.84 439.89 279.65 439.89 276.22 439.89 272.79 439.89 269.37 439.89 265.94 439.89 262.51 439.89 259.09 439.89 255.66 439.89 252.23 439.89 248.8 439.89 245.38 439.89 241.95 439.89 238.52 447.31 237.83 453.5 237.15 458.57 236.37 462.62 235.37 465.78 234.04 468.16 232.28 469.86 229.97 471 226.99 471.69 223.24 472.05 218.6 472.18 212.96 472.2 206.21 472.2 199.93 472.2 192.95 472.2 185.42 472.2 177.49 472.2 169.31 472.2 161.05 472.2 152.84 472.2 144.85 472.2 137.23 472.2 130.12 472.2 123.69 472.2 118.09 472.18 112.69 472.05 108.2 471.69 104.55 471 101.66 469.86 99.463 468.16 97.891 465.78 96.869 462.62 96.327 458.57 96.192 453.5 96.395 447.31 96.862 439.89 97.524 439.89 94.341 439.89 91.159 439.89 87.977 439.89 84.794 439.89 81.612 439.89 78.43 439.89 75.247 439.89 72.065 439.89 68.883 439.89 65.701 439.89 62.518 439.89 59.336 474.63 55.491 506.84 51.584 536.41 48.045 563.26 45.301 587.3 43.782 608.42 43.914 626.55 46.127 641.59 50.85 653.45 58.51 662.03 69.536 667.25 84.356 669.01 103.4 667.48 119.04 663.12 132.31 656.3 143.42 647.36 152.57 636.67 159.97 624.58 165.82 611.45 170.32 597.64 173.68 583.5 176.1 569.39 177.79 555.67 178.94 542.7 179.77 542.66 191.24 542.66 200.8 542.84 208.6 543.35 214.81 544.36 219.59 546 223.1 548.45 225.52 551.84 226.99 556.33 227.69 562.08 227.78 569.23 227.42 577.51 226.81"/>
<polygon points="674.89 91.648 674.89 90.793 674.89 89.704 674.89 88.39 674.89 86.861 674.89 85.129 674.89 83.203 674.89 81.094 674.89 78.811 674.89 76.364 674.89 73.765 674.89 71.023 674.89 68.148 676.47 68.031 678.23 67.7 680.12 67.185 682.07 66.517 684.01 65.726 685.9 64.844 687.67 63.9 689.25 62.926 690.58 61.952 691.61 61.009 692.28 60.126 692.51 59.336 690.25 59.095 687.93 58.384 685.58 57.225 683.26 55.637 681.03 53.641 678.92 51.258 677 48.507 675.32 45.41 673.92 41.986 672.86 38.257 672.18 34.241 671.95 29.961 672.19 25.681 672.91 21.665 674.1 17.936 675.76 14.512 677.85 11.415 680.39 8.6642 683.36 6.2809 686.74 4.2851 690.54 2.6974 694.73 1.5381 699.3 0.82745 704.26 0.58606 709.27 0.71863 714.01 1.1572 718.44 1.963 722.54 3.1971 726.27 4.9209 729.6 7.1954 732.5 10.082 734.94 13.642 736.89 17.936 738.33 23.025 739.21 28.972 739.51 35.836 738.91 41.871 737.17 48.13 734.37 54.471 730.59 60.75 725.91 66.826 720.42 72.555 714.19 77.794 707.31 82.401 699.85 86.232 691.91 89.146 683.56 90.999 675.32 91.616"/>
<polygon points="673.46 128.37 673.46 131.37 673.46 134.47 673.46 137.64 673.46 140.89 673.46 144.17 673.46 147.47 673.46 150.77 673.46 154.05 673.46 157.29 673.46 160.47 673.46 163.57 673.46 166.56 680.88 165.91 687.07 165.5 692.14 165.46 696.19 165.91 699.35 166.97 701.73 168.76 703.43 171.42 704.57 175.05 705.26 179.78 705.62 185.74 705.75 193.04 705.77 201.81 705.77 207.24 705.77 213.19 705.77 219.57 705.77 226.29 705.77 233.25 705.77 240.37 705.77 247.54 705.77 254.69 705.77 261.71 705.77 268.52 705.77 275.02 705.77 281.12 705.75 286.52 705.62 291.04 705.26 294.76 704.57 297.77 703.43 300.17 701.73 302.05 699.35 303.51 696.19 304.62 692.14 305.5 687.07 306.21 680.88 306.87 673.46 307.56 673.46 310.61 673.46 313.86 673.46 317.25 673.46 320.73 673.46 324.25 673.46 327.76 673.46 331.21 673.46 334.54 673.46 337.72 673.46 340.68 673.46 343.37 673.46 345.75 683.25 345.01 693.04 344.28 702.83 343.55 712.62 342.81 722.41 342.08 732.21 341.34 742 340.61 751.79 339.87 761.58 339.14 771.37 338.4 781.16 337.67 790.96 336.94 790.96 334.44 790.96 331.44 790.96 328.03 790.96 324.32 790.96 320.4 790.96 316.37 790.96 312.35 790.96 308.43 790.96 304.72 790.96 301.31 790.96 298.3 790.96 295.81 782.86 296.48 776.1 296.97 770.58 297.23 766.15 297.23 762.7 296.89 760.11 296.18 758.26 295.04 757.01 293.42 756.26 291.27 755.87 288.54 755.73 285.17 755.71 281.12 755.71 277.72 755.71 273.44 755.71 268.41 755.71 262.74 755.71 256.53 755.71 249.91 755.71 242.99 755.71 235.86 755.71 228.66 755.71 221.49 755.71 214.46 755.71 207.69 759.15 213.69 763.53 221.26 768.69 230.18 774.53 240.22 780.89 251.15 787.65 262.76 794.68 274.82 801.84 287.11 808.99 299.39 816.02 311.45 822.78 323.06 829.14 334 835.51 333.51 841.87 333.02 848.24 332.53 854.6 332.04 860.97 331.55 867.33 331.06 873.69 330.57 880.06 330.08 886.42 329.59 892.79 329.1 899.15 328.61 905.52 328.12 905.52 319.34 905.52 309.27 905.52 298.11 905.52 286.02 905.52 273.2 905.52 259.83 905.52 246.09 905.52 232.17 905.52 218.24 905.52 204.5 905.52 191.13 905.52 178.31 905.42 170.89 905.26 164.68 905.2 159.58 905.41 155.46 906.07 152.2 907.35 149.67 909.43 147.75 912.48 146.32 916.67 145.26 922.18 144.45 929.17 143.75 937.83 143.06 937.83 140.05 937.83 136.89 937.83 133.61 937.83 130.22 937.83 126.76 937.83 123.23 937.83 119.67 937.83 116.08 937.83 112.49 937.83 108.93 937.83 105.4 937.83 101.94 928.28 102.92 918.74 103.89 909.19 104.87 899.64 105.85 890.1 106.83 880.55 107.81 871 108.79 861.46 109.77 851.91 110.75 842.36 111.73 832.81 112.71 823.27 113.69 823.27 116.7 823.27 119.86 823.27 123.14 823.27 126.52 823.27 129.99 823.27 133.51 823.27 137.08 823.27 140.67 823.27 144.25 823.27 147.82 823.27 151.35 823.27 154.81 831.37 154.1 838.12 153.49 843.65 153.11 848.07 153.07 851.52 153.48 854.11 154.44 855.97 156.08 857.21 158.51 857.97 161.83 858.35 166.17 858.5 171.62 858.52 178.31 858.52 181.6 858.52 185.53 858.52 190.02 858.52 194.96 858.52 200.27 858.52 205.85 858.52 211.62 858.52 217.48 858.52 223.34 858.52 229.11 858.52 234.69 858.52 240 852.64 229.96 846.77 219.93 840.89 209.89 835.02 199.85 829.14 189.82 823.27 179.78 817.39 169.74 811.52 159.71 805.64 149.67 799.77 139.63 793.89 129.6 788.02 119.56 778.3 120.3 768.31 121.03 758.14 121.76 747.87 122.5 737.61 123.23 727.43 123.97 717.44 124.7 707.73 125.44 698.38 126.17 689.49 126.9 681.15 127.64 673.84 128.34"/>
</g>
</svg>
