<svg xmlns="http://www.w3.org/2000/svg" version="1.1" viewBox="0 0 94000 35000"><mask id="a"><path d="M0 0h94000v35000H0" fill="#fff"/><path d="M29800 23200h500l200-100h2100l-100-400-100-400-100-400-100-300-100-400-100-400-200-400-100-300-100-400-100-400-100-400-100-300-200 300-100 400-100 400-100 400-200 400-100 400-100 400-100 300-200 400-100 400-100 400-100 400zm24500-9600V8900h700l700-100h600l600-100h500l500 100h400l300 200 300 200 200 400 100 400 100 600-100 600-100 600-200 400-300 400-300 300-400 200-500 200-500 100-600 100h-600l-700 100h-700"/></mask><g fill="#c52828" mask="url(#a)"><path d="M16600 12900v-1200l4500-500v9400l-4400 300c-100-2510-630-5150-3600-5100-3390 50-4550 2540-4900 5400-430 3470-430 9100 4400 9100 3380-310 3760-3490 4100-6200l4400-200c340 6870-4300 10870-10900 10800-7150-80-9870-4830-10000-11100-150-7280 5310-11270 12100-11800 1500-120 3050 430 4300 1100zm20000-1700 4500 14600c800 2680 1620 2800 4100 2800v4100l-13300 800v-3900l2800-200-700-2600s-3730 400-5600 400l-700 2800 2900-200v4000l-11000 900v-3900c2650 50 3090-930 4000-3300l5100-15700zm21200 11500v3800l-13800 1500v-4100c1370-190 2820-80 3200-1600V10500c-360-1400-2100-860-3200-700V5900l9600-1100c5650-720 13150-1660 13300 5500 140 6690-7250 7290-12600 7700v3500c260 1800 2170 1200 3500 1200zm9700-13500V6800c760 40 1330-430 1800-900-1630-30-2150-1960-2100-3300 60-1630 1220-2290 2700-2500 2800-400 4150 890 4100 3500-60 3290-3400 5260-6500 5600zm-200 3600v3900c2370-420 2950-220 3300 1900v10500c-260 1720-1720 1530-3300 1700v3800l11800-900v-4100s-2890 730-3500-500v-8300l7300 12600 7700-600-100-17300c400-1340 2190-1130 3300-1200v-4100l-11500 1200v4100c2860-370 3210-610 3600 1700v6800l-7100-12000" opacity="1"/></g></svg>
