<svg xmlns="http://www.w3.org/2000/svg" viewBox="0 0 9400 3500"><mask id="a"><path d="M0 0h9400v3500H0" fill="#fff"/><path d="M2980 2320h50l20-10h210l-10-40-10-40-10-40-10-30-10-40-10-40-20-40-10-30-10-40-10-40-10-40-10-30-20 30-10 40-10 40-10 40-20 40-10 40-10 40-10 30-20 40-10 40-10 40-10 40zm2450-960V890h70l70-10h60l60-10h50l50 10h40l30 20 30 20 20 40 10 40 10 60-10 60-10 60-20 40-30 40-30 30-40 20-50 20-50 10-60 10h-60l-70 10h-70"/></mask><g fill="#c52828" mask="url(#a)"><path d="M1660 1290v-120h30l40-10h80l30-10h40l40-10h40l30-10h80l40-10v940h-40l-40 10h-110l-30 10h-110l-40 10h-70l-10-90v-90l-20-70-20-60-20-60-30-40-40-30-30-30-40-20-50-10-50-10h-50l-90 10-90 20-70 40-60 40-50 60-40 60-30 70-30 80-10 80-20 80v380l10 90 20 80 20 80 20 80 40 60 40 50 60 40 60 30 80 20h90l70-10 60-20 60-30 40-30 50-50 30-50 30-60 30-70 10-60 20-80v-80l10-80h110l30-10h150l40-10h110v160l-20 150-40 140-60 130-70 110-90 100-100 90-110 70-130 60-150 40-150 20-170 10H850l-150-30-130-30-120-60-100-60-90-90-70-100-60-120-50-130-30-150-20-160-10-180 10-150 20-150 40-140 60-130 80-130 90-110 110-100 130-90 140-70 160-60 170-30 200-20h30l40 10h30l40 10 30 10 40 10 40 10 30 10 40 20 30 10 40 10 30 10zm2000-170 140 430 100 360 90 280 70 220 50 170 50 120 40 90 40 50 50 20 60 10 70-10h100v410h-110l-110 10-110 10-110 10h-110l-110 10-110 10-110 10h-120l-110 10-110 10h-110v-390h120l20-10h120l20-10-10-20v-20l-10-20v-20l-10-30v-20l-10-20-10-20v-20l-10-30v-20l-10-20h-50l-40 10h-90l-50 10h-90l-50 10h-50l-40 10h-100v30l-10 20v20l-10 20-10 30v20l-10 20-10 30v20l-10 20-10 20v30l20-10h120l30-10h120v400l-90 10-100 10-90 10h-90l-90 10-90 10-90 10h-90l-100 10-90 10h-90l-90 10v-390l90-10h80l50-10 50-30 40-60 40-90 50-130 60-180 70-240 100-310 120-380 160-460h70l60-10h70l70-10h60l70-10h60l70-10h70l60-10h70l60-10zm2120 1150v380l-120 10-120 20-130 10-130 10-140 20-120 10-130 10-120 20-110 10-100 10-90 10-70 10v-410l70-10 70-10 50-10 40-10 30-10 20-20 20-20 10-30 10-40V1050l-10-30-10-30-20-10-20-10-30-10h-90l-70 10-70 10V590l350-40 320-30 290-40 270-30 240-10h210l190 20 150 50 110 80 90 110 50 140 20 190-20 160-40 130-70 110-90 100-100 70-120 60-140 40-130 40-150 20-140 20-130 10-130 10v350l10 50 20 30 20 30 40 10 40 10h60l70-10h90zm970-1350V680h30l20-10h20l20-10 20-10 20-10 10-10 20-10 10-10v-10l10-10h-30l-20-10-20-10-30-10-20-20-20-30-20-20-20-40-10-30-10-40-10-40v-80l10-40 10-40 20-30 20-40 20-20 30-30 40-20 40-10 40-10 40-10h150l40 10 50 10 30 20 40 20 30 30 20 40 20 40 10 50 10 60 10 70-10 60-20 60-30 60-30 70-50 60-60 60-60 50-70 40-70 40-80 30-80 20-90 10zm-20 360v390l80-10h60l50-10 40 10 30 10 30 20 10 20 20 40v50l10 60v1050l-10 40v30l-20 20-10 20-30 20-30 10-40 10h-50l-60 10-80 10v380l100-10 100-10h100l100-10 90-10 100-10h100l100-10 100-10 90-10h100l100-10v-410h-80l-70 10h-130l-30-10-20-10-10-20-10-20v-830l30 60 50 70 50 90 60 100 60 110 70 120 70 120 70 120 70 120 70 120 70 120 60 110h70l60-10h60l70-10h60l60-10h70l60-10h60l70-10h60l70-10V1780l-10-70v-160l10-30 10-20 20-20 30-20 50-10 50-10h70l90-10v-410l-100 10-90 10-100 10-90 10-100 10-90 10-100 10-100 10-90 10-100 10-90 10-100 10v410l80-10 70-10h140l20 10 20 20 10 30 10 30v40l10 60v680l-60-100-60-100-60-100-60-100-60-100-60-100-60-100-50-100-60-100-60-100-60-100-60-100h-100l-100 10-100 10-100 10h-100l-110 10-100 10h-90l-100 10-90 10-80 10h-70"/></g></svg>
