<?xml version="1.0" standalone="no"?>
<!DOCTYPE svg PUBLIC "-//W3C//DTD SVG 20010904//EN"
 "http://www.w3.org/TR/2001/REC-SVG-20010904/DTD/svg10.dtd">
<svg version="1.0" xmlns="http://www.w3.org/2000/svg"
 width="280.000000pt" height="280.000000pt" viewBox="0 0 280.000000 280.000000"
 preserveAspectRatio="xMidYMid meet">
<metadata>
Created by potrace 1.16, written by Peter Selinger 2001-2019
</metadata>
<g transform="translate(0.000000,280.000000) scale(0.100000,-0.100000)"
fill="#000000" stroke="none">
<path d="M0 1400 l0 -1400 1400 0 1400 0 0 1400 0 1400 -1400 0 -1400 0 0
-1400z m1583 859 c145 -38 276 -146 340 -279 38 -79 67 -175 67 -222 l0 -28
-105 0 -104 0 -10 38 c-5 20 -13 51 -17 67 -9 44 -68 146 -101 176 -15 15 -53
40 -83 55 -50 26 -64 29 -155 29 -92 0 -104 -3 -154 -30 -119 -66 -194 -198
-220 -388 -14 -101 -14 -452 0 -554 25 -187 93 -314 204 -381 55 -33 67 -37
150 -40 106 -5 156 7 222 51 79 52 125 135 157 280 l6 27 107 0 106 0 -6 -49
c-14 -118 -103 -282 -198 -365 -89 -78 -231 -126 -369 -126 -136 0 -240 35
-351 117 -125 92 -219 281 -248 496 -14 101 -14 432 -1 534 35 258 173 475
354 558 42 19 104 39 139 44 69 11 211 5 270 -10z"/>
</g>
</svg>
