<svg width="24" height="24" viewBox="0 0 24 24" version="1.1">
  <path d="m 7.3753665,21.269609 q -0.99643,0 -1.722993,-0.145333 Q 4.9258106,20.999734 4.4483547,20.66758 3.9708986,20.335453 3.7425504,19.774947 3.5142035,19.235212 3.5142035,18.404856 q 0,-0.56049 0.02075,-1.017187 0.041517,-0.477456 0.083034,-0.913395 0.041518,-0.43594 0.062275,-0.871874 0.041517,-0.456699 0.041517,-0.975674 0,-0.269875 -0.1245546,-0.539732 Q 3.472671,13.796369 3.1405287,13.588781 2.8083858,13.360446 2.2271352,13.215113 1.6666436,13.0698 0.79476767,13.0698 v -1.453101 q 0.87187593,0 1.43236753,-0.145313 0.5812502,-0.145312 0.9133935,-0.352901 0.3321428,-0.228347 0.4566969,-0.498215 0.1245546,-0.269866 0.1245546,-0.560491 0,-0.9756705 -0.1037962,-1.8267879 -0.1037961,-0.871875 -0.1037961,-1.9513402 0,-0.830358 0.2283467,-1.3700908 Q 3.9708986,4.3510683 4.4483547,4.018925 4.9258106,3.6867819 5.6523735,3.562228 6.3789365,3.4169154 7.3753665,3.4169154 H 8.8077328 V 4.7247291 H 7.8528222 q -0.7265641,0 -1.1832603,0.083038 -0.4566971,0.083037 -0.7265629,0.2906258 -0.2491095,0.1868299 -0.3529012,0.5189736 -0.083039,0.3113848 -0.083039,0.7680808 0,0.8718763 0.041519,1.7437515 0.062279,0.8718755 0.062279,1.8267884 0,1.1002228 -0.4359376,1.6399558 -0.4359342,0.518972 -1.5361588,0.705803 v 0.08304 q 1.1002246,0.186828 1.5361622,0.726563 0.4359376,0.518971 0.4359376,1.619194 0,0.996429 -0.062279,1.826791 -0.041519,0.830357 -0.041519,1.743746 0,0.477456 0.083039,0.788841 0.1037983,0.311376 0.3529011,0.498218 0.2698668,0.207585 0.726563,0.290627 0.4566973,0.08304 1.1832602,0.08304 H 8.807736 v 1.307812 z m 7.5531745,-7.398806 a 0.59588047,0.59588047 0 0 0 -0.48593,0.941556 c 1.032063,1.450797 2.108867,2.244865 3.173163,2.548703 1.064294,0.303838 2.069543,0.09576 2.878785,-0.293308 1.618486,-0.778095 2.606063,-2.265152 2.606063,-2.265152 a 0.59588047,0.59588047 0 0 0 -0.49134,-0.931818 z m 1.347404,1.191559 h 4.939397 c -0.3521,0.331039 -0.736346,0.690037 -1.237015,0.930738 -0.621639,0.298863 -1.291731,0.433945 -2.034634,0.221845 -0.502618,-0.143506 -1.073498,-0.562646 -1.667748,-1.152599 z m 2.502164,-9.8051999 a 0.59582089,0.59582089 0 0 0 -0.252154,0.05195 0.59582089,0.59582089 0 0 0 -0.301935,0.786797 l 3.84091,8.6136409 a 0.59582089,0.59582089 0 0 0 0.786796,0.300884 0.59582089,0.59582089 0 0 0 0.301933,-0.786804 L 19.312742,5.609976 A 0.59582089,0.59582089 0 0 0 18.778109,5.2571621 Z m -0.0011,0 a 0.59582089,0.59582089 0 0 0 -0.553032,0.3528158 l -3.83983,8.6136401 a 0.59582089,0.59582089 0 0 0 0.300845,0.786796 0.59582089,0.59582089 0 0 0 0.786802,-0.300845 l 3.84094,-8.6136403 A 0.59582089,0.59582089 0 0 0 19.010799,5.3091313 0.59582089,0.59582089 0 0 0 18.777023,5.257185 Z M 11.670642,3.9769289 v 1.6533315 h 0.827435 7.788996 0.827434 V 3.9769289 H 20.287073 12.498077 Z M 10.266281,19.563645 v 1.653329 h 0.827438 1.702639 0.827434 v -1.653329 h -0.827434 -1.702639 z m 1.702639,0 v 1.653329 h 0.827438 4.808988 0.827437 V 19.563645 H 17.605346 12.796358 Z M 10.989585,2.7303819 v 0.8258952 6.0909772 9.8552727 0.825896 h 1.653332 V 19.502527 9.6472544 3.5562771 2.7303819 Z" fill="#FAFAFA"/>
  <path d="m 9.7477518,3.7819454 c 0.3770732,0 0.6466332,-0.070117 0.8086812,-0.2103506 0.165164,-0.1402337 0.247746,-0.3708403 0.247746,-0.6918198 0,-0.3178631 -0.08258,-0.5453534 -0.247746,-0.6824708 C 10.394385,2.0601867 10.124825,1.991628 9.7477518,1.991628 H 8.9904897 V 3.7819454 Z M 8.9904897,5.0253512 V 7.66642 H 7.1908233 V 0.68745427 h 2.7485813 c 0.9193104,0 1.5924324,0.15425711 2.0193654,0.46277133 0.430051,0.3085142 0.645076,0.796216 0.645076,1.4631053 0,0.4612132 -0.112187,0.8398443 -0.336561,1.1358933 -0.221258,0.296049 -0.556261,0.5141904 -1.005009,0.6544241 0.246188,0.056093 0.465888,0.1838619 0.659099,0.3833056 0.196327,0.1963272 0.394213,0.4954925 0.593656,0.8974959 L 13.491993,7.66642 H 11.575465 L 10.724714,5.9321961 C 10.553317,5.5831699 10.378803,5.3447725 10.201174,5.217004 10.026661,5.0892355 9.7929383,5.0253512 9.5000056,5.0253512 Z M 0.65125683,0.68745427 H 5.5080186 V 2.0477215 H 2.4509231 V 3.3472208 H 5.3257148 V 4.7074881 H 2.4509231 V 7.66642 H 0.65125683 Z" fill="#0288D1"/>
</svg>
