<?xml version="1.0" encoding="UTF-8" standalone="no"?>
<svg
   xmlns:dc="http://purl.org/dc/elements/1.1/"
   xmlns:cc="http://creativecommons.org/ns#"
   xmlns:rdf="http://www.w3.org/1999/02/22-rdf-syntax-ns#"
   xmlns:svg="http://www.w3.org/2000/svg"
   xmlns="http://www.w3.org/2000/svg"
   xmlns:sodipodi="http://sodipodi.sourceforge.net/DTD/sodipodi-0.dtd"
   xmlns:inkscape="http://www.inkscape.org/namespaces/inkscape"
   width="24"
   height="24"
   viewBox="0 0 23.999999 23.999999"
   version="1.1"
   id="SVGRoot"
   sodipodi:docname="icon_alt.svg"
   inkscape:version="1.0.2 (1.0.2+r75+1)">
  <defs
     id="defs2585" />
  <sodipodi:namedview
     id="base"
     pagecolor="#222222"
     bordercolor="#666666"
     borderopacity="1.0"
     inkscape:pageopacity="0"
     inkscape:pageshadow="2"
     inkscape:zoom="14.360354"
     inkscape:cx="-0.62159142"
     inkscape:cy="6.6750776"
     inkscape:document-units="px"
     inkscape:current-layer="SVGRoot"
     inkscape:document-rotation="0"
     showgrid="false"
     inkscape:window-width="1920"
     inkscape:window-height="1180"
     inkscape:window-x="0"
     inkscape:window-y="20"
     inkscape:window-maximized="0"
     units="px"
     width="1e-05mm"
     showguides="false">
    <inkscape:grid
       type="xygrid"
       id="grid2594" />
  </sodipodi:namedview>
  <metadata
     id="metadata2588">
    <rdf:RDF>
      <cc:Work
         rdf:about="">
        <dc:format>image/svg+xml</dc:format>
        <dc:type
           rdf:resource="http://purl.org/dc/dcmitype/StillImage" />
        <dc:title></dc:title>
      </cc:Work>
    </rdf:RDF>
  </metadata>
  <path
     id="path1522"
     style="font-style:normal;font-variant:normal;font-weight:600;font-stretch:normal;font-size:5.34213px;line-height:1.25;font-family:'Source Code Pro';-inkscape-font-specification:'Source Code Pro Semi-Bold';white-space:pre;inline-size:0;mix-blend-mode:normal;fill:#ffffff;fill-opacity:1;stroke:none;stroke-width:0.0790595"
     d="m 7.3033028,21.41406 q -1.0119575,0 -1.7498422,-0.147596 -0.737885,-0.126483 -1.2227814,-0.463815 -0.4848955,-0.337301 -0.716802,-0.906542 -0.2319048,-0.548144 -0.2319048,-1.391442 0,-0.569223 0.021072,-1.033038 0.042165,-0.484895 0.084328,-0.927626 0.042163,-0.442735 0.063246,-0.885462 0.042163,-0.463814 0.042163,-0.990877 0,-0.274081 -0.1264952,-0.548142 Q 3.3397905,13.824365 3.0024727,13.613543 2.6651543,13.381649 2.0748466,13.234052 1.5056213,13.086474 0.62015861,13.086474 V 11.61073 q 0.88546269,0 1.45468799,-0.147577 0.5903077,-0.147577 0.9276272,-0.358401 0.3373189,-0.231905 0.4638138,-0.505978 0.1264952,-0.274073 0.1264952,-0.569225 0,-0.9908743 -0.1054138,-1.8552545 -0.1054127,-0.8854624 -0.1054127,-1.9817489 0,-0.8432977 0.2319041,-1.3914406 Q 3.8457835,4.2318791 4.3306789,3.8945602 4.815575,3.5572408 5.55346,3.430746 6.2913453,3.283169 7.3033022,3.283169 h 1.454687 V 4.6113626 H 7.7881961 q -0.7378847,0 -1.2016976,0.084332 Q 6.1226846,4.780026 5.8486134,4.9908487 5.595622,5.1805905 5.4902136,5.51791 q -0.084333,0.3162365 -0.084333,0.7800493 0,0.8854624 0.042163,1.7709242 0.063248,0.8854632 0.063248,1.8552543 0,1.1173692 -0.4427318,1.6655122 -0.4427271,0.527059 -1.5600963,0.716801 v 0.08433 q 1.1173692,0.18974 1.5601002,0.737884 0.4427306,0.527059 0.4427306,1.644428 0,1.011956 -0.063248,1.855256 -0.042163,0.843298 -0.042163,1.770921 0,0.484895 0.084331,0.801132 0.1054137,0.316229 0.3583999,0.505983 0.2740737,0.210818 0.737885,0.295155 0.4638129,0.08433 1.2016989,0.08433 h 0.9697918 v 1.328192 z m 7.6708722,-7.514101 a 0.60516604,0.60516604 0 0 0 -0.493504,0.956229 c 1.048146,1.473405 2.141729,2.279845 3.22261,2.588418 1.08088,0.308573 2.101796,0.09724 2.92365,-0.297877 1.643705,-0.790221 2.646668,-2.300451 2.646672,-2.300451 a 0.60516604,0.60516604 0 0 0 -0.499,-0.946338 z m 1.3684,1.210127 h 5.016367 c -0.357588,0.336198 -0.74782,0.70079 -1.256293,0.94524 -0.631322,0.303522 -1.311858,0.440709 -2.066335,0.225303 C 17.52586,16.134888 16.946085,15.70922 16.342575,15.11007 Z M 18.88373,5.1520933 A 0.60510552,0.60510552 0 0 0 18.627645,5.2048523 0.60510552,0.60510552 0 0 0 18.321007,6.00391 l 3.900764,8.747865 a 0.60510552,0.60510552 0 0 0 0.799057,0.305534 0.60510552,0.60510552 0 0 0 0.30664,-0.799056 L 19.426694,5.5104051 A 0.60510552,0.60510552 0 0 0 18.88373,5.1520933 Z m -0.0011,0 a 0.60510552,0.60510552 0 0 0 -0.561651,0.3583131 l -3.89968,8.7478626 a 0.60510552,0.60510552 0 0 0 0.305534,0.799057 0.60510552,0.60510552 0 0 0 0.799057,-0.305534 L 19.426688,6.003929 A 0.60510552,0.60510552 0 0 0 19.12005,5.2048727 0.60510552,0.60510552 0 0 0 18.882632,5.1521138 Z M 11.665512,3.8519102 V 5.531006 h 0.840324 7.910369 0.840331 V 3.8519102 H 20.416199 12.505831 Z M 10.239268,19.681512 v 1.679095 h 0.84033 1.729171 0.84033 v -1.679095 h -0.84033 -1.729171 z m 1.729171,0 v 1.679095 h 0.84033 4.88393 0.84033 v -1.679095 h -0.840345 -4.88393 z M 10.973833,2.5859379 v 0.8387654 6.1858919 10.0088468 0.838767 h 1.679096 V 19.619442 9.6105952 3.4247033 2.5859379 Z" />
</svg>
