<svg width="24" height="24" viewBox="0 0 24 24" version="1.1">
  <path d="m 7.3877544,21.244776 q -0.9937606,0 -1.7183768,-0.144943 Q 4.9447601,20.975628 4.4685833,20.64436 3.9924065,20.313122 3.7646699,19.754118 q -0.227735,-0.538289 -0.227735,-1.366421 0,-0.558988 0.020695,-1.014462 0.041406,-0.476176 0.082811,-0.910948 0.041406,-0.434771 0.062109,-0.869539 0.041406,-0.455473 0.041406,-0.97306 0,-0.269152 -0.1242211,-0.538284 Q 3.4955138,13.791556 3.164261,13.584523 2.8330079,13.356799 2.2533142,13.211857 1.6943242,13.066933 0.82478391,13.066933 v -1.449207 q 0.86954029,0 1.42853029,-0.144925 0.5796933,-0.144923 0.9109468,-0.351956 0.3312532,-0.227735 0.4554736,-0.49688 0.1242211,-0.269145 0.1242211,-0.55899 0,-0.9730572 -0.1035176,-1.8218945 -0.1035176,-0.8695398 -0.1035176,-1.9461134 0,-0.8281335 0.2277351,-1.3664203 Q 3.9924076,4.3715563 4.4685844,4.0403028 4.9447612,3.7090494 5.6693789,3.5848293 6.3939952,3.4399059 7.3877558,3.4399059 H 8.8162861 V 4.7442162 H 7.8639325 q -0.7246176,0 -1.1800908,0.082815 -0.4554733,0.082816 -0.7246163,0.2898479 -0.2484421,0.1863293 -0.3519557,0.5175832 -0.082817,0.3105502 -0.082817,0.7660233 0,0.8695403 0.041402,1.7390801 0.062102,0.8695409 0.062102,1.8218949 0,1.0972764 -0.4347697,1.6355644 -0.4347671,0.517581 -1.532044,0.70391 v 0.08282 q 1.0972769,0.18633 1.532048,0.724616 0.4347698,0.517583 0.4347698,1.614859 0,0.99376 -0.062116,1.821896 -0.041402,0.828133 -0.041402,1.739076 0,0.476177 0.082817,0.786727 0.1035176,0.310542 0.3519557,0.496883 0.2691457,0.207029 0.7246176,0.289848 0.4554733,0.08282 1.1800895,0.08282 h 0.9523536 v 1.304309 z M 14.920696,13.86579 a 0.59428421,0.59428421 0 0 0 -0.48463,0.939034 c 1.029298,1.446912 2.103217,2.238851 3.164661,2.541876 1.061446,0.303024 2.064002,0.0955 2.871075,-0.292522 1.614151,-0.776011 2.599082,-2.259085 2.599082,-2.259085 A 0.59428421,0.59428421 0 0 0 22.58086,13.865772 Z m 1.343792,1.188367 h 4.926166 c -0.351158,0.330153 -0.734372,0.68819 -1.233702,0.928244 -0.619972,0.298064 -1.288268,0.432783 -2.029184,0.221252 -0.501271,-0.143121 -1.070622,-0.56114 -1.66328,-1.149512 z M 18.759951,5.275223 A 0.5942248,0.5942248 0 0 0 18.50847,5.327034 0.5942248,0.5942248 0 0 0 18.207345,6.1117229 l 3.830622,8.5905671 a 0.5942248,0.5942248 0 0 0 0.784688,0.300079 0.5942248,0.5942248 0 0 0 0.301125,-0.784697 L 19.293151,5.6270917 a 0.5942248,0.5942248 0 0 0 -0.5332,-0.3518687 z m -0.0011,0 a 0.5942248,0.5942248 0 0 0 -0.551529,0.3518706 l -3.829543,8.5905674 a 0.5942248,0.5942248 0 0 0 0.30004,0.784688 0.5942248,0.5942248 0 0 0 0.784693,-0.30004 l 3.83062,-8.5905668 A 0.5942248,0.5942248 0 0 0 18.992007,5.3270529 0.5942248,0.5942248 0 0 0 18.758858,5.2752455 Z M 11.671522,3.9984194 v 1.6489023 h 0.825218 7.768131 0.825218 V 3.9984194 H 20.264871 12.49674 Z M 10.270925,19.543381 v 1.648903 h 0.82522 1.698078 0.825217 v -1.648903 h -0.825217 -1.698078 z m 1.698077,0 v 1.648903 h 0.825221 4.796107 0.825219 V 19.543381 H 17.59033 12.794223 Z M 10.99229,2.7552114 v 0.8236829 6.07466 9.8288727 0.823684 h 1.648902 V 19.482427 9.6535543 3.5788943 2.7552114 Z" fill="#FAFAFA"/>
  <path d="m 7.1908233,0.68745427 h 2.010017 L 11.739071,5.4740992 V 0.68745427 h 1.706177 V 7.66642 H 11.435231 L 8.8970005,2.879775 V 7.66642 H 7.1908233 Z m -6.53956647,0 H 5.5080186 V 2.0477215 H 2.4509231 V 3.3472208 H 5.3257148 V 4.7074881 H 2.4509231 V 6.3061527 H 5.6108567 V 7.66642 H 0.65125683 Z" fill="#E53935"/>
</svg>
