<svg viewBox="0 0 1024 1024" xmlns="http://www.w3.org/2000/svg"><path d="M128 704v128c0 70.692 57.308 128 128 128h608c17.728 0 32-14.272 32-32V704z" fill="#2e7d32"/><path d="M704 768v128h128V768z" fill="#ffe082"/><path d="M224 768c-9.71 0-19.062 1.46-27.883 4.117A96.506 96.506 0 00192 800c0 53.184 42.816 96 96 96h544c-53.02 0-96-42.98-96-96a96 96 0 016.129-32z" fill="#fff8e1"/><path d="M320 832h192v192l-96-96-96 96z" fill="#ff1744"/><path d="M256 64c-70.692 0-128 57.308-128 128v640c0 5.8.52 11.468 1.268 17.064C136.418 803.043 175.912 768 224 768h640c17.728 0 32-14.272 32-32V96c0-17.728-14.272-32-32-32z" fill="#4caf50"/><path d="M384 192c-70.692 0-128 57.308-128 128 .171 67.295 52.422 122.965 119.57 127.396L256 640h80l156.748-252.488h-.146A128 128 0 00512 320c0-70.692-57.308-128-128-128zm320 0c-70.692 0-128 57.308-128 128 .171 67.295 52.422 122.965 119.57 127.396L576 640h80l156.748-252.488h-.146A128 128 0 00832 320c0-70.692-57.308-128-128-128z" fill="#e8f5e9"/></svg>