<svg id="cap" width="16" height="16" version="1.1" viewBox="0 0 16 16" xmlns="http://www.w3.org/2000/svg">
 <g fill="#0288d1">
  <rect x="7" y="9" width="4" height="1" ry=".5"/>
  <rect x="8" y="11" width="3" height="1" ry=".5"/>
  <rect x="7" y="13" width="4" height="1" ry=".5"/>
  <path d="m5.0001 9-1 1 1.5 1.5-1.5 1.5 1 1 2.5-2.5-2.5-2.5z"/>
  <path d="m5.9997 2a3 3 0 0 0-2.5976 1.5 3 3 0 0 0-0.18749 2.6074 3 3 0 0 0-1.5136 0.96486 3 3 0 0 0-0.4199 3.1954 3 3 0 0 0 2.7187 1.7325v-1a2 2 0 0 1-2-2 2 2 0 0 1 2-2 2 2 0 0 1 0.51562 0.076174l0.1582-0.59181a2 2 0 0 1-0.6738-1.4844 2 2 0 0 1 2-2 2 2 0 0 1 2 2l0.59372 0.59377a2 2 0 0 1 1.4062-0.59377 2 2 0 0 1 2 2 2 2 0 0 1 2 2 2 2 0 0 1-2 2v1a3 3 0 0 0 2.8983-2.2227 3 3 0 0 0-1.3984-3.375 3 3 0 0 0-0.6289-0.26758 3 3 0 0 0-1.7226-1.9063 3 3 0 0 0-2.2519-0.013674 3 3 0 0 0-2.1191-2.1133 3 3 0 0 0-0.77731-0.10157z" stroke-width="1"/>
 </g>
</svg>
