<svg viewBox="0 0 24 24" xmlns="http://www.w3.org/2000/svg">
  <path
     d="M 11.352676,22.991921 C 9.7521577,22.906368 8.1424304,22.445693 6.7222363,21.666493 4.7400188,20.580617 3.1447692,18.923505 2.1339174,16.900487 1.5152974,15.664562 1.1678164,14.424688 1.0177678,12.92947 c -0.023691,-0.239553 -0.023691,-1.63342 0,-1.862441 0.027634,-0.260612 0.078972,-0.64758 0.1145106,-0.868703 C 1.467914,8.1568811 2.3668869,6.2746962 3.7568083,4.7031375 3.9568728,4.476749 4.5096823,3.9252557 4.7321216,3.7304561 6.4339855,2.2405028 8.5241327,1.3138888 10.751167,1.0638087 c 0.422502,-0.047391 0.529118,-0.053971 0.989793,-0.061865 0.713384,-0.0105295 1.260928,0.021054 1.855857,0.1092463 2.092783,0.3106264 4.009188,1.1924889 5.607072,2.5784616 0.517269,0.450145 0.980577,0.9345114 1.425458,1.4899534 0.238234,0.3000966 0.286936,0.3711722 0.264556,0.3922316 -0.07238,0.068445 -1.231974,0.8397442 -1.247768,0.8305304 -0.0085,-0.00534 -0.08287,-0.097398 -0.165842,-0.2040127 C 19.009087,5.5915815 18.519458,5.0874719 17.953486,4.6241647 17.466486,4.2240358 16.94658,3.8818205 16.338488,3.5580322 16.217401,3.4935384 16.106835,3.4316758 16.092359,3.4198296 c -0.02632,-0.019738 -0.02365,-0.027633 0.16321,-0.4633072 0.105299,-0.2434993 0.190853,-0.4514606 0.190853,-0.4619909 0,-0.023685 -0.118461,-0.077656 -0.487002,-0.2237558 C 15.099936,1.9285603 14.197012,1.6955906 13.326997,1.5902933 12.558326,1.4981587 11.730429,1.486312 10.990718,1.5587045 9.2348883,1.7298117 7.535657,2.341851 6.0614979,3.3329598 5.2414975,3.8844532 4.478094,4.5794135 3.8265676,5.3638767 3.4909332,5.7692706 3.088172,6.3470881 2.8341426,6.7893356 2.6656677,7.0828512 2.6196001,7.1749866 2.6301297,7.2013105 c 0.0039,0.010525 0.1895347,0.1237242 0.4132908,0.2513965 0.2224402,0.1276725 0.4132911,0.2369184 0.423821,0.2434991 0.014474,0.00925 0.00267,0.044757 -0.061865,0.182954 -0.4935799,1.0503378 -0.7528736,1.995377 -0.8871278,3.2207739 -0.011843,0.110563 -0.017106,0.372488 -0.017106,0.868703 0,0.762087 0.00267,0.814735 0.080288,1.349118 0.2290212,1.599198 0.8502738,3.075987 1.8426987,4.382987 0.4593586,0.605459 1.1135165,1.268832 1.7031803,1.725558 0.6462607,0.500161 1.3517508,0.917398 2.1006768,1.241187 l 0.2395507,0.103983 -0.043435,0.126356 c -0.02369,0.0697 -0.11451,0.322473 -0.201381,0.560706 -0.08687,0.239551 -0.1618943,0.455411 -0.1671588,0.481735 l -0.00925,0.04732 0.2198077,0.08163 c 1.5847268,0.588345 3.2036639,0.796308 4.8502519,0.626516 1.903243,-0.198749 3.756468,-0.925296 5.289859,-2.076983 0.656788,-0.492267 1.366228,-1.181961 1.874283,-1.821641 0.289569,-0.36459 0.565974,-0.751557 0.75156,-1.05297 0.04215,-0.06712 0.07771,-0.122408 0.08163,-0.122408 0.01049,0 0.209279,0.102665 0.23297,0.121092 0.02103,0.01583 0.01974,0.02365 -0.03023,0.10793 -0.07771,0.13162 -0.33827,0.509374 -0.522537,0.755505 -0.898975,1.197753 -2.029603,2.199391 -3.327388,2.944371 -1.397817,0.802887 -2.870662,1.266195 -4.522508,1.422826 -0.257978,0.02365 -1.263563,0.03557 -1.591301,0.0185 z"
     style="fill:#8bc34a;" />
  <path
     d="M 4.3306767,7.0538939 C 4.1345613,6.9485967 3.6449299,6.6656109 3.5949138,6.6274409 3.5712215,6.6103307 3.5712215,6.6076976 3.5935997,6.5642621 3.6291311,6.4971357 3.8910579,6.1075362 4.0318928,5.914053 5.3178324,4.1516436 7.156583,2.8722845 9.2651569,2.2760401 10.866987,1.8219469 12.575433,1.7903571 14.206219,2.1825893 c 0.263245,0.064498 0.419875,0.109246 0.759455,0.2198076 0.388283,0.1263566 0.471206,0.1592617 0.460675,0.1855863 -0.02241,0.06055 -0.406708,0.9450408 -0.413288,0.9529381 -0.0044,0.00535 -0.07628,-0.014474 -0.159262,-0.044756 C 13.403335,2.9815307 11.908119,2.8446444 10.435272,3.0907763 9.2309381,3.2921569 8.0502952,3.7620452 7.0289132,4.4451597 6.5300683,4.7794777 6.125992,5.1190606 5.653471,5.5994782 5.2665036,5.9943422 4.9848345,6.3418226 4.6413023,6.8485645 4.5517993,6.9788697 4.4728271,7.0920638 4.4649309,7.1012774 c -0.01184,0.013164 -0.042121,0.00265 -0.1342542,-0.047389 z"
     style="fill:#8bc34a;"/>
  <path
     d="M 11.471131,22.42463 C 10.715627,22.374637 9.960119,22.24036 9.2204084,22.024501 8.9519009,21.946834 8.8781936,21.919205 8.8781936,21.898146 c 0,-0.02365 0.3738046,-1.034545 0.386967,-1.049023 0.0027,-0.0015 0.094763,0.02365 0.2066463,0.05531 1.2267111,0.355375 2.4468391,0.458041 3.6577561,0.309311 2.746935,-0.336952 5.168767,-1.886133 6.61397,-4.228994 0.115827,-0.186903 0.301413,-0.518587 0.386965,-0.688378 0.0368,-0.07505 0.07505,-0.135572 0.0843,-0.135572 0.03023,0 1.045073,0.41329 1.067447,0.434354 0.01443,0.01441 -0.189529,0.422499 -0.363272,0.723913 -1.292521,2.250725 -3.355029,3.901258 -5.828189,4.665978 -0.783153,0.242181 -1.554451,0.384335 -2.392877,0.44093 -0.231654,0.01583 -0.983213,0.01443 -1.226712,-0.0015 z"
     style="fill:#8bc34a;" />
  <path
     d="M 11.563267,20.824115 C 10.824873,20.781994 10.020668,20.63853 9.2704249,20.413456 8.3477594,20.135736 7.330326,19.594772 6.518223,18.947195 6.1352055,18.643151 5.6626845,18.194322 5.367853,17.858686 4.2530198,16.584595 3.5317355,15.051204 3.2658604,13.390144 c -0.08292,-0.522535 -0.092134,-0.643629 -0.092134,-1.349116 -0.00125,-0.697595 0.0039,-0.796314 0.077656,-1.310952 C 3.37379,9.8758532 3.6304516,9.0308465 4.0134697,8.2187425 c 0.040807,-0.08687 0.077654,-0.1605783 0.080283,-0.1645271 0.00395,-0.0027 0.035534,0.0078 0.071082,0.025 0.035532,0.01579 0.072397,0.02632 0.082921,0.02369 0.00925,-0.0039 0.06713,-0.096081 0.1276736,-0.2026964 C 4.7281741,7.2789685 5.1125098,6.7353729 5.5192187,6.2825955 5.7929906,5.9798665 6.278674,5.5205083 6.5945649,5.2677953 7.4711629,4.5649373 8.5715178,4.0029144 9.6823984,3.6909719 10.926224,3.3408594 12.300349,3.2750487 13.570496,3.5067022 c 0.650206,0.1184592 1.26093,0.302729 1.916404,0.5778175 0.146101,0.061865 0.277724,0.1118783 0.290884,0.1118783 0.01707,0 0.03419,-0.019738 0.0514,-0.06055 0.01445,-0.032902 0.03557,-0.063182 0.04605,-0.06713 0.01974,-0.00782 0.330368,0.1513646 0.5844,0.2987804 0.502791,0.2935156 1.051655,0.7002256 1.534701,1.1358921 0.197436,0.1776888 0.54228,0.5278012 0.593615,0.6001931 0.02098,0.031581 0.02098,0.0329 -0.02365,0.072393 -0.02508,0.02237 -0.215851,0.1895347 -0.422502,0.371172 L 17.765271,6.8788372 17.437535,6.5537325 C 17.093994,6.2115175 16.914991,6.0548879 16.574091,5.7995428 15.443465,4.9532177 14.160157,4.4596379 12.688629,4.306957 c -0.296149,-0.030266 -1.125362,-0.030266 -1.42151,0 C 9.9285344,4.4464758 8.7531525,4.8650315 7.6804392,5.585 5.9733101,6.7327379 4.7795056,8.5425314 4.4096496,10.547123 c -0.102665,0.558073 -0.1184591,0.747611 -0.1184591,1.434673 0,0.633096 0.0053,0.714701 0.08028,1.204335 0.2974641,1.951944 1.3912372,3.759103 3.0009657,4.963438 0.3817023,0.284304 0.7568236,0.513325 1.2096005,0.735765 0.8371122,0.410657 1.5965683,0.631782 2.5863593,0.751556 0.217176,0.02632 0.304045,0.03023 0.809474,0.03023 0.61862,-0.0015 0.775248,-0.01316 1.276726,-0.09741 1.062184,-0.179006 2.062505,-0.569921 2.947001,-1.154319 0.501476,-0.33037 1.03849,-0.781831 1.414928,-1.188542 0.0843,-0.09087 0.16321,-0.172422 0.176373,-0.181635 0.021,-0.01583 0.0329,-0.01191 0.09872,0.03948 0.171106,0.130306 0.789725,0.627835 0.797622,0.639681 0.02508,0.04077 -0.543597,0.633098 -0.933194,0.971365 -0.737081,0.638363 -1.593934,1.158267 -2.531077,1.533388 -0.261929,0.105297 -0.760771,0.265875 -1.049021,0.338266 -0.543595,0.136888 -1.025333,0.214544 -1.572877,0.252713 -0.172422,0.01192 -0.858169,0.01445 -1.03981,0.0044 z"
     style="fill:#8bc34a;" />
  <path
     d="M 11.852833,19.336794 C 10.898581,19.319681 9.9140544,19.090664 9.0019172,18.676055 6.7696201,17.657307 5.1677885,15.538204 4.8045134,13.122953 4.7189606,12.551715 4.6992168,11.871234 4.7531799,11.323687 4.8992802,9.8205719 5.4955239,8.4109096 6.4682062,7.2631714 6.6379966,7.0631076 7.1131505,6.5866382 7.2921553,6.4352738 8.4833279,5.4375842 9.8508773,4.8610827 11.378999,4.7097183 c 0.402757,-0.039489 1.127994,-0.027633 1.562344,0.026317 0.693646,0.086867 1.429405,0.2843022 1.99143,0.5356988 0.409341,0.1829536 0.784462,0.3830179 1.085874,0.58045 0.931879,0.6080904 1.672908,1.3635969 2.265204,2.3073217 0.109245,0.1750561 0.221125,0.3790696 0.213228,0.3869666 -0.0086,0.0078 -0.41461,0.2013811 -0.592298,0.2829855 -0.0843,0.03817 -0.161892,0.06581 -0.172421,0.06186 -0.01443,-0.0053 -0.153998,-0.2224404 -0.153998,-0.2395511 0,-0.0027 0.101347,-0.07765 0.225072,-0.1658424 0.123722,-0.08818 0.227704,-0.168475 0.231654,-0.1790056 0.007,-0.018421 -0.102667,-0.1776879 -0.319842,-0.4646224 -0.40934,-0.540954 -0.885807,-1.0095267 -1.47284,-1.4478255 -1.076662,-0.8042063 -2.428413,-1.3043671 -3.781483,-1.3965019 -0.427766,-0.02895 -1.47547,0.00782 -1.52154,0.053971 -0.0086,0.00782 -0.01583,0.1342538 -0.0185,0.2829857 -0.0043,0.1487322 -0.0086,0.2698239 -0.01192,0.2698239 -0.0029,0 -0.113195,0.023685 -0.244814,0.052655 C 10.107541,5.7811164 9.6718731,5.9337971 9.1743451,6.1772964 8.4807008,6.5168794 7.9186782,6.926221 7.3777141,7.4829792 6.3313245,8.5583255 5.6982264,9.9600891 5.5745021,11.475052 c -0.01842,0.223756 -0.01842,0.796313 0,1.013487 0.1171435,1.375444 0.6357316,2.637689 1.5123289,3.678813 0.05529,0.06579 0.1882193,0.209279 0.2974641,0.321157 0.5067431,0.519903 1.0424417,0.916084 1.6847533,1.246454 0.5778185,0.297466 1.0924616,0.475153 1.7729406,0.610723 l 0.07371,0.01442 0.0057,0.248764 c 0.0029,0.13557 0.0086,0.252712 0.01442,0.257978 0.0057,0.0057 0.130305,0.02099 0.276405,0.0329 0.305362,0.02632 1.084558,0.0329 1.345171,0.01191 1.526808,-0.12767 2.999648,-0.751557 4.144753,-1.755827 0.235602,-0.206646 0.42119,-0.38565 0.563343,-0.543595 0.194796,-0.214545 0.52385,-0.61204 0.52385,-0.631782 0,-0.01 -0.08944,-0.09088 -0.197432,-0.18164 -0.109244,-0.09087 -0.197433,-0.171107 -0.197433,-0.179003 0,-0.01974 0.08944,-0.156629 0.102667,-0.156629 0.01442,0 0.476468,0.272456 0.630464,0.371173 0.142152,0.09211 0.143469,0.06188 -0.0072,0.280352 -0.275085,0.401447 -0.514636,0.689696 -0.858169,1.033228 -0.627832,0.629147 -1.146422,1.012166 -1.875607,1.383338 -0.459356,0.234285 -0.779195,0.364593 -1.224076,0.498846 -0.329052,0.09871 -0.506741,0.140835 -0.839744,0.197431 -0.406708,0.06846 -0.623883,0.09211 -0.923981,0.100034 -0.136887,0.0029 -0.282986,0.0072 -0.32247,0.01 -0.03948,0.0015 -0.140836,0.0015 -0.223756,0 z"
     style="fill:#039be5;" />
  <path
     d="m 11.668568,18.598398 c -0.0329,-0.01049 -0.0329,-0.01192 -0.04338,-0.219808 -0.0057,-0.115823 -0.0086,-0.307994 -0.0072,-0.427767 l 0.0044,-0.217175 0.427773,-0.0086 c 0.592295,-0.01192 0.870014,-0.04482 1.326741,-0.157945 0.842376,-0.209278 1.589985,-0.580451 2.277048,-1.12931 0.19875,-0.157946 0.639682,-0.581767 0.768668,-0.73708 l 0.05921,-0.07114 0.08429,0.06456 c 0.09871,0.07504 0.579138,0.451461 0.594929,0.46594 0.03824,0.0342 -0.514639,0.600192 -0.892392,0.914767 -0.989792,0.826583 -2.212555,1.343853 -3.540612,1.500484 -0.198748,0.02365 -0.999005,0.03948 -1.059549,0.02241 z"
     style="fill:#039be5;" />
  <path
     d="M 10.582687,17.529634 C 9.0769409,17.133454 7.7791551,16.088379 7.0605024,14.693197 6.9960056,14.570786 6.9354615,14.447062 6.9236165,14.420737 l -0.01974,-0.04996 0.05002,-0.03166 c 0.02763,-0.01707 0.1316224,-0.07505 0.2303383,-0.126357 0.1526801,-0.08163 0.1803213,-0.101349 0.1803213,-0.126354 0,-0.01707 -0.02237,-0.08944 -0.05134,-0.159261 -0.1816378,-0.45936 -0.3224729,-1.038492 -0.3566948,-1.47153 -0.01579,-0.205327 -0.01579,-0.747609 0,-0.941087 0.036849,-0.444877 0.1829523,-1.03191 0.3711708,-1.50048 C 7.6488456,9.2203823 8.2108682,8.4675084 8.8781894,7.9357591 9.2743687,7.6185515 9.6021032,7.4224351 10.115426,7.1907818 10.498444,7.0170419 11.007821,6.8801561 11.53036,6.806448 c 0.209278,-0.02895 0.937139,-0.032902 1.171425,-0.00658 0.485687,0.055287 0.98058,0.1803209 1.418879,0.3593265 0.180321,0.073711 0.519908,0.2408665 0.664689,0.3277365 0.0803,0.047397 0.09212,0.05923 0.07895,0.07503 -0.01,0.01184 -0.09478,0.07897 -0.190852,0.1513646 L 14.498415,7.844945 14.287819,7.7449127 C 13.946924,7.5830181 13.74554,7.5040452 13.461239,7.4198082 12.072634,7.0144146 10.541882,7.2750246 9.3704496,8.1187176 9.0716691,8.3345761 8.663643,8.7241745 8.4254084,9.0203232 8.297736,9.179585 8.104252,9.4678364 7.9976392,9.654736 c -0.2671913,0.471203 -0.4619903,1.052972 -0.5554419,1.655797 -0.035534,0.229019 -0.04871,0.812107 -0.02632,1.091141 0.07634,0.917403 0.4751524,1.883499 1.0687644,2.594257 0.1526809,0.181637 0.5054257,0.533067 0.6607394,0.656789 0.7410194,0.590979 1.6320979,0.956889 2.5231759,1.034545 0.20006,0.01707 0.796305,0.01707 0.9582,-0.0015 0.460675,-0.04873 0.960836,-0.179004 1.375444,-0.35669 0.300097,-0.127675 0.504108,-0.238236 0.772618,-0.418559 0.08286,-0.05531 0.164525,-0.107927 0.179004,-0.115824 0.02632,-0.01316 0.03948,-0.0015 0.164526,0.139518 0.07371,0.08429 0.147416,0.16716 0.161894,0.18427 l 0.02762,0.03023 -0.0329,0.02632 c -0.0185,0.01316 -0.106612,0.07505 -0.19743,0.135569 -0.691011,0.463308 -1.421511,0.741028 -2.257306,0.859487 -0.142153,0.01974 -0.256661,0.02365 -0.66469,0.02365 -0.534382,0 -0.594929,-0.0057 -1.0069,-0.0869 -0.107933,-0.02099 -0.210595,-0.03824 -0.22639,-0.03824 -0.02508,0 -0.03166,0.01316 -0.04996,0.102665 -0.01192,0.05531 -0.0368,0.165842 -0.05394,0.244814 -0.01707,0.07895 -0.03166,0.144784 -0.03166,0.147417 0,0.01316 -0.07238,0.0015 -0.204016,-0.03418 z"
     style="fill:#039be5;" />
  <path
     d="M 16.641215,8.4109096 C 16.397719,8.0950189 15.947572,7.6540872 15.597461,7.3868962 15.461893,7.2829148 15.132837,7.0644233 14.970943,6.9696565 14.461569,6.6708758 13.833734,6.4365899 13.201955,6.3076011 12.787346,6.2233635 12.632032,6.2088851 12.084486,6.2009878 l -0.512004,-0.00782 0.01,-0.4014449 c 0.0043,-0.2211238 0.01049,-0.4040775 0.01316,-0.4080262 0.0029,-0.00267 0.15268,-0.00782 0.333005,-0.011843 1.639999,-0.036853 3.185237,0.5067421 4.452746,1.5676104 0.323792,0.2698235 0.771303,0.733131 0.993745,1.0279623 l 0.04873,0.0645 -0.03419,0.02894 c -0.05921,0.05265 -0.644946,0.467256 -0.655476,0.4646229 -0.0029,0 -0.04338,-0.05134 -0.09211,-0.1145109 z"
     style="fill:#039be5;" />
</svg>
