<svg xmlns="http://www.w3.org/2000/svg" version="1.1" viewBox="0 0 16 16">
  <path fill="#ff5722"
    d="M10.326,12.544l-1.556-.901,4.667-2.702c.164-.082.327-.246.491-.327.655.901.655,2.047.164,2.947-.737,1.31-2.456,1.801-3.766.982ZM10.572,13.444c-.491.982-1.392,1.556-2.538,1.556-1.556,0-2.784-1.228-2.784-2.784v-5.404l2.374,1.392v3.439c0,.164,0,.246.164.327l2.129,1.228s.409.164.655.246ZM4.35,12.953c-.982,0-1.883-.491-2.374-1.392-.327-.655-.491-1.392-.246-2.129.164-.737.655-1.31,1.31-1.637l1.556-.901v6.058s-.164,0-.246,0ZM8.034,7.632l-2.947-1.719h-.409l-2.129,1.228c-.164.082-.327.246-.491.327-.655-.901-.655-2.047-.164-2.947.491-.819,1.392-1.392,2.374-1.392.491,0,.982.164,1.392.409l4.708,2.726-2.334,1.368ZM8.034,1c1.556,0,2.784,1.228,2.784,2.784v1.801l-4.667-2.702c-.164-.082-.327-.164-.573-.246.491-.982.901-1.637,2.456-1.637ZM14.452,5.748c.059,1.009-.417,2.018-1.341,2.538l-4.667,2.702v-2.784l2.947-1.719c.082,0,.164-.164.164-.327v-3.111c1.032-.079,2.79.856,2.897,2.702Z" />
</svg>