<svg xmlns="http://www.w3.org/2000/svg" viewBox="0 0 32 32"><path fill="#42a5f5" d="M16 2a14 14 0 1 0 14 14A14 14 0 0 0 16 2Zm0 3a10.994 10.994 0 0 1 9.208 5H16a6.001 6.001 0 0 0-5.74 4.253L7.27 9.334A10.977 10.977 0 0 1 16 5Zm4 11a4 4 0 1 1-4-4 4.005 4.005 0 0 1 4 4ZM5 16a10.915 10.915 0 0 1 1.094-4.75l4.838 7.959.003-.002a5.96 5.96 0 0 0 6.16 2.689l-2.996 4.928A11.01 11.01 0 0 1 5 16Zm11.343 10.983 4.878-8.026-.003-.002A5.974 5.974 0 0 0 20.463 12h5.773a10.966 10.966 0 0 1-9.893 14.983Z"/></svg>