<svg version="1.1" viewBox="0 0 24 24" xmlns="http://www.w3.org/2000/svg">
 <path d="m12 20.129 3.5157-6.0966h-0.010162c0.34548-0.60966 0.55886-1.2905 0.55886-2.0322 0-1.2193-0.5487-2.3066-1.4022-3.0483h4.8672c0.38612 0.94498 0.5995 1.9712 0.5995 3.0483a8.1289 8.1289 0 0 1-8.1289 8.1289m-8.1289-8.1289c0-1.4835 0.39628-2.8654 1.0872-4.0644l3.5259 6.0966h0.010161c0.70111 1.2092 1.9814 2.0322 3.5056 2.0322 0.45725 0 0.89417-0.09145 1.3108-0.2337l-2.4387 4.2067c-3.9527-0.5487-7.001-3.9323-7.001-8.0374m11.177 0a3.0483 3.0483 0 0 1-3.0483 3.0483 3.0483 3.0483 0 0 1-3.0483-3.0483 3.0483 3.0483 0 0 1 3.0483-3.0483 3.0483 3.0483 0 0 1 3.0483 3.0483m-3.0483-8.1289c3.0077 0 5.6292 1.6359 7.0315 4.0644h-7.0315c-1.9712 0-3.6072 1.4022-3.9831 3.2617l-2.4183-4.1965c1.4835-1.9001 3.8002-3.1296 6.4015-3.1296m0-2.0322a10.161 10.161 0 0 0-10.161 10.161 10.161 10.161 0 0 0 10.161 10.161 10.161 10.161 0 0 0 10.161-10.161 10.161 10.161 0 0 0-10.161-10.161z" fill="#42a5f5" stroke-width="1.0161"/>
</svg>
