<svg xmlns="http://www.w3.org/2000/svg" viewBox="0 0 32 32">
  <path d="M16,2A14,14,0,1,0,30,16,14,14,0,0,0,16,2Zm0,3a10.99363,10.99363,0,0,1,9.20758,5H16a6.00108,6.00108,0,0,0-5.73987,4.25336L7.2702,9.33417A10.97724,10.97724,0,0,1,16,5Zm4,11a4,4,0,1,1-4-4A4.0045,4.0045,0,0,1,20,16ZM5,16a10.91454,10.91454,0,0,1,1.09393-4.75049l4.83765,7.95923.0033-.002a5.95974,5.95974,0,0,0,6.15924,2.689L14.09863,26.824A11.00972,11.00972,0,0,1,5,16ZM16.34271,26.98267l4.878-8.02564-.0028-.00171A5.97429,5.97429,0,0,0,20.4632,12H26.236a10.96559,10.96559,0,0,1-9.89331,14.98267Z" style="fill: #42a5f5"/>
</svg>
