<svg width="24" height="24" xmlns="http://www.w3.org/2000/svg"><g fill-rule="nonzero" fill="none"><path fill="#2979FF" d="M0 0h23.67v23.67H0z"/><path d="M8.55 13.51c-.05.983-.327 1.734-.831 2.255-.5.52-1.208.781-2.123.781-.92 0-1.65-.348-2.192-1.045-.542-.701-.813-1.65-.813-2.847v-1.663c0-1.193.277-2.136.832-2.829.559-.693 1.319-1.04 2.28-1.04.887 0 1.571.267 2.054.8.487.53.751 1.288.793 2.275H7.385c-.05-.747-.208-1.28-.473-1.6-.264-.32-.667-.479-1.209-.479-.626 0-1.107.246-1.442.737-.336.487-.504 1.203-.504 2.148v1.682c0 .928.155 1.64.466 2.135.315.496.772.744 1.373.744.6 0 1.033-.149 1.298-.447.264-.299.427-.834.49-1.607H8.55zm5.808-1.14h-3.099v4.05h-1.153V7.249h4.775v.995h-3.622v3.137h3.1l-.001.989zm6.199 0h-3.1v4.05h-1.152V7.249h4.774v.995h-3.622v3.137h3.1v.989z" fill="#FFF"/></g></svg>
