<svg xmlns="http://www.w3.org/2000/svg" viewBox="0 0 32 32"><g transform="translate(0 -263.133)"><rect style="isolation:auto;mix-blend-mode:normal;solid-color:#000;solid-opacity:1;marker:none" width="23.67" height="23.67" x="5.098" y="268.232" ry="1.335" color="#000" overflow="visible" fill="#2a7fff"/><g aria-label="CFF" style="line-height:125%;-inkscape-font-specification:'Roboto Condensed, '" font-weight="400" font-size="12.901" font-family="Roboto Condensed" letter-spacing="0" word-spacing="0" stroke-width=".173" fill="#fff"><path d="M13.648 281.742q-.075 1.474-.831 2.255-.75.781-2.123.781-1.38 0-2.192-1.045-.813-1.052-.813-2.847v-1.663q0-1.79.832-2.829.838-1.04 2.28-1.04 1.33 0 2.054.8.73.795.793 2.275h-1.165q-.076-1.121-.473-1.6-.396-.479-1.209-.479-.939 0-1.442.737-.504.73-.504 2.148v1.682q0 1.392.466 2.135.472.744 1.373.744.9 0 1.298-.447.396-.448.49-1.607zM19.456 280.602h-3.099v4.05h-1.153v-9.171h4.775v.995h-3.622v3.137h3.1zM25.655 280.602h-3.1v4.05h-1.152v-9.171h4.774v.995h-3.622v3.137h3.1z"/></g></g></svg>
