<svg width="16" height="16" version="1.1" viewBox="0 0 16 16" xmlns="http://www.w3.org/2000/svg"
  xmlns:cc="http://creativecommons.org/ns#" xmlns:dc="http://purl.org/dc/elements/1.1/"
  xmlns:rdf="http://www.w3.org/1999/02/22-rdf-syntax-ns#">
  <path
    d="m8 1a2 2 0 0 0-2 2h-1c-1.662 0-3 1.338-3 3v1l-1 2 1 2v1c0 1.662 1.338 3 3 3h6c1.662 0 3-1.338 3-3v-1l1-2-1-2v-1c0-1.662-1.338-3-3-3h-1a2 2 0 0 0-2-2zm-2 6c0.554 0 1 0.446 1 1v2c0 0.554-0.446 1-1 1s-1-0.446-1-1v-2c0-0.554 0.446-1 1-1zm4 0c0.554 0 1 0.446 1 1v2c0 0.554-0.446 1-1 1-0.554 0-1-0.446-1-1v-2c0-0.554 0.446-1 1-1z"
    fill="#42a5f5" stroke-width="0" />
</svg>