<svg xmlns="http://www.w3.org/2000/svg" viewBox="0 0 256 256"><path fill="#64dd17" d="M123.456 129.975a507.171 507.171 0 0 0-3.54 7.846c-4.406 9.981-9.284 22.127-11.066 29.908-.64 2.77-1.037 6.205-1.03 10.013 0 1.506.081 3.09.21 4.702a58.107 58.107 0 0 0 19.98 3.559 58.209 58.209 0 0 0 18.29-2.98c-1.352-1.237-2.642-2.554-3.816-4.038-7.796-9.942-12.146-24.512-19.028-49.01m-28.784-49.39C79.782 91.08 70.039 108.387 70.002 128c.037 19.32 9.487 36.403 24.002 46.94 3.56-14.83 12.485-28.41 25.868-55.63a218.927 218.927 0 0 0-2.714-7.083c-3.708-9.3-9.059-20.102-13.834-24.993-2.435-2.555-5.389-4.763-8.652-6.648"/><path fill="#7cb342" d="M178.532 194.535c-7.683-.963-14.023-2.124-19.57-4.081a69.407 69.407 0 0 1-30.958 7.249c-38.491 0-69.693-31.198-69.698-69.7 0-20.891 9.203-39.62 23.764-52.392-3.895-.94-7.956-1.49-12.104-1.482-20.45.193-42.037 11.51-51.025 42.075-.84 4.45-.64 7.813-.64 11.8 0 60.591 49.12 109.715 109.705 109.715 37.104 0 69.882-18.437 89.732-46.633-10.736 2.675-21.06 3.955-29.902 3.982-3.314 0-6.425-.177-9.305-.53"/><path fill="#29b6f6" d="M157.922 173.271c.678.336 2.213.884 4.35 1.49 14.375-10.553 23.717-27.552 23.754-46.764h-.005c-.055-32.03-25.974-57.945-58.011-58.009a58.15 58.15 0 0 0-18.213 2.961c11.779 13.426 17.443 32.613 22.922 53.6l.01.025c.01.017 1.752 5.828 4.743 13.538 2.97 7.7 7.203 17.231 11.818 24.178 3.03 4.655 6.363 8 8.632 8.981"/><path fill="#1e88e5" d="M128.009 18.29c-36.746 0-69.25 18.089-89.16 45.826 10.361-6.49 20.941-8.83 30.174-8.747 12.753.037 22.779 3.991 27.589 6.696a50.528 50.528 0 0 1 3.345 2.131 69.409 69.409 0 0 1 28.049-5.894c38.496.004 69.703 31.202 69.709 69.698h-.006c0 19.409-7.938 36.957-20.736 49.594 3.142.352 6.492.571 9.912.554 12.15.006 25.284-2.675 35.13-10.956 6.42-5.408 11.798-13.327 14.78-25.199.584-4.586.92-9.247.92-13.991 0-60.588-49.116-109.715-109.705-109.715"/></svg>