<?xml version="1.0" encoding="UTF-8" standalone="no"?>
<svg
   xmlns:dc="http://purl.org/dc/elements/1.1/"
   xmlns:cc="http://creativecommons.org/ns#"
   xmlns:rdf="http://www.w3.org/1999/02/22-rdf-syntax-ns#"
   xmlns:svg="http://www.w3.org/2000/svg"
   xmlns="http://www.w3.org/2000/svg"
   xmlns:sodipodi="http://sodipodi.sourceforge.net/DTD/sodipodi-0.dtd"
   xmlns:inkscape="http://www.inkscape.org/namespaces/inkscape"
   version="1.1"
   id="Layer_1"
   x="0px"
   y="0px"
   viewBox="0 0 256 256"
   enable-background="new 0 0 428 426"
   xml:space="preserve"
   sodipodi:docname="clojurescript.svg"
   width="256"
   height="256"
   inkscape:version="1.0.1 (3bc2e813f5, 2020-09-07)"><metadata
   id="metadata21"><rdf:RDF><cc:Work
       rdf:about=""><dc:format>image/svg+xml</dc:format><dc:type
         rdf:resource="http://purl.org/dc/dcmitype/StillImage" /><dc:title></dc:title></cc:Work></rdf:RDF></metadata><defs
   id="defs19" /><sodipodi:namedview
   pagecolor="#ffffff"
   bordercolor="#666666"
   borderopacity="1"
   objecttolerance="10"
   gridtolerance="10"
   guidetolerance="10"
   inkscape:pageopacity="0"
   inkscape:pageshadow="2"
   inkscape:window-width="960"
   inkscape:window-height="1016"
   id="namedview17"
   showgrid="false"
   inkscape:zoom="0.58573854"
   inkscape:cx="78.52038"
   inkscape:cy="213.57184"
   inkscape:window-x="26"
   inkscape:window-y="23"
   inkscape:window-maximized="0"
   inkscape:current-layer="g10" />
<g
   id="g10"
   transform="matrix(0.54880299,0,0,0.54880299,11.104962,10.281759)">
	<path
   fill="#96ca4b"
   d="m 122,266.6 c -12.7,0 -22.3,-3.7 -28.9,-11.1 -6.6,-7.4 -9.9,-18 -9.9,-31.8 0,-14.1 3.4,-24.9 10.3,-32.5 6.9,-7.6 16.8,-11.4 29.9,-11.4 8.8,0 16.8,1.6 23.8,4.9 l -5.4,14.3 c -7.5,-2.9 -13.7,-4.4 -18.6,-4.4 -14.5,0 -21.7,9.6 -21.7,28.8 0,9.4 1.8,16.4 5.4,21.2 3.6,4.7 8.9,7.1 15.9,7.1 7.9,0 15.4,-2 22.5,-5.9 v 15.5 c -3.2,1.9 -6.6,3.2 -10.2,4 -3.6,0.9 -8,1.3 -13.1,1.3 z"
   id="path2"
   style="fill:#7cb342;fill-opacity:1" />
	<path
   fill="#96ca4b"
   d="M 194.4,265.1 H 176.6 V 147.3 h 17.8 z"
   id="path4"
   style="fill:#7cb342;fill-opacity:1" />
	<path
   fill="#5f7fbf"
   d="m 222.9,302.3 c -5.3,0 -9.8,-0.6 -13.3,-1.9 v -14.1 c 3.4,0.9 6.9,1.4 10.5,1.4 7.6,0 11.4,-4.3 11.4,-12.9 v -93.5 h 17.8 V 276 c 0,8.6 -2.3,15.2 -6.8,19.6 -4.6,4.5 -11.1,6.7 -19.6,6.7 z m 7.5,-143.1 c 0,-3.2 0.9,-5.6 2.6,-7.3 1.7,-1.7 4.2,-2.6 7.5,-2.6 3.1,0 5.6,0.9 7.3,2.6 1.7,1.7 2.6,4.2 2.6,7.3 0,3 -0.9,5.4 -2.6,7.2 -1.7,1.7 -4.2,2.6 -7.3,2.6 -3.2,0 -5.7,-0.9 -7.5,-2.6 -1.8,-1.8 -2.6,-4.2 -2.6,-7.2 z"
   id="path6"
   style="fill:#1e88e5;fill-opacity:1" />
	<path
   fill="#5f7fbf"
   d="m 342.5,241.3 c 0,8.2 -3,14.4 -8.9,18.8 -6,4.4 -14.5,6.5 -25.6,6.5 -11.2,0 -20.1,-1.7 -26.9,-5.1 v -15.4 c 9.8,4.5 19,6.8 27.5,6.8 10.9,0 16.4,-3.3 16.4,-9.9 0,-2.1 -0.6,-3.9 -1.8,-5.3 -1.2,-1.4 -3.2,-2.9 -6,-4.4 -2.8,-1.5 -6.6,-3.2 -11.6,-5.1 -9.6,-3.7 -16.2,-7.5 -19.6,-11.2 -3.4,-3.7 -5.1,-8.6 -5.1,-14.5 0,-7.2 2.9,-12.7 8.7,-16.7 5.8,-4 13.6,-5.9 23.6,-5.9 9.8,0 19.1,2 27.9,6 l -5.8,13.4 c -9,-3.7 -16.6,-5.6 -22.8,-5.6 -9.4,0 -14.1,2.7 -14.1,8 0,2.6 1.2,4.8 3.7,6.7 2.4,1.8 7.8,4.3 16,7.5 6.9,2.7 11.9,5.1 15.1,7.3 3.1,2.2 5.4,4.8 7,7.7 1.5,2.8 2.3,6.3 2.3,10.4 z"
   id="path8"
   style="fill:#1e88e5;fill-opacity:1" />
</g>
<path
   fill="#96ca4b"
   stroke="#96ca4b"
   stroke-width="1.0104"
   stroke-miterlimit="10"
   d="m 119.21915,225.7967 c -50.05083,-4.4453 -89.454886,-46.64825 -89.454886,-97.85158 0,-51.203318 39.404056,-93.351388 89.454886,-97.796693 V 19.117487 C 63.076605,23.617671 18.788203,70.704969 18.788203,128 c 0,57.29504 44.288402,104.38233 100.430947,108.88251 z"
   id="path12"
   style="fill:#7cb342;fill-opacity:1;stroke:#7cb342;stroke-opacity:1" />
<path
   fill="#5f7fbf"
   stroke="#5f7fbf"
   stroke-width="1.0104"
   stroke-miterlimit="10"
   d="m 136.78086,19.117487 v 11.03094 c 50.05082,4.445305 89.45487,46.648255 89.45487,97.851573 0,51.20332 -39.40405,93.40627 -89.45487,97.85158 v 11.03093 C 192.9234,232.38233 237.2118,185.29504 237.2118,128 237.2118,70.704969 192.9234,23.617671 136.78086,19.117487 Z"
   id="path14"
   style="fill:#1e88e5;fill-opacity:1" />
</svg>
