<svg xmlns="http://www.w3.org/2000/svg" version="1.1" viewBox="0 0 24 24"><path d="M 14.13 10.1 C 14.73 9.6 15.11 8.91 15.1 8.14 15.09 6.67 13.7 5.48 12 5.48 c -1.7 0 -3.09 1.18 -3.1 2.65 -0.01 0.77 0.37 1.47 0.97 1.96 0.75 0.61 1.36 1.84 1.4 3.18 0.04 1.49 -0.06 3.22 -0.12 4.1 -0.8 0.11 -1.36 0.38 -1.36 0.69 0 0.41 0.99 0.89 2.22 0.89 1.23 0 2.22 -0.48 2.22 -0.89 0 -0.31 -0.56 -0.58 -1.36 -0.69 -0.06 -0.88 -0.16 -2.6 -0.12 -4.1 0.04 -1.34 0.65 -2.57 1.4 -3.18 z" fill="#0288d1"/><path d="m 17.89 18.77 a 1.89 1.89 0 0 1 0.37 -0.11 2.33 2.33 0 0 1 0.43 -0.05 l -0.02 -0.12 c -0 -0.07 -0.04 -0.16 -0.07 -0.26 l -0.05 -0.13 c -0.02 -0.04 -0.04 -0.08 -0.06 -0.11 l -0.06 -0.11 a 3.77 3.77 0 0 1 -0.44 -0.1 3.44 3.44 0 0 1 -0.4 -0.14 C 17.37 17.55 17.16 17.44 17.05 17.32 16.91 17.2 16.89 17.08 16.89 16.98 a 0.29 0.29 0 0 1 0.07 -0.15 0.47 0.47 0 0 1 0.16 -0.12 l -0.13 -0.07 c -0.04 -0.02 -0.08 -0.05 -0.14 -0.07 -0.05 -0.03 -0.11 -0.05 -0.17 -0.08 -0.11 -0.05 -0.22 -0.11 -0.32 -0.14 l -0.15 -0.06 a 2.93 2.93 0 0 1 -0.34 0.02 c -0.12 0 -0.25 0 -0.37 -0.01 -0.24 -0.02 -0.49 -0.05 -0.7 -0.12 a 1.74 1.74 0 0 1 -0.28 -0.1 1.32 1.32 0 0 1 -0.21 -0.11 c -0.11 -0.08 -0.19 -0.16 -0.19 -0.25 l -0.17 -0.03 c -0.1 -0.02 -0.33 -0.05 -0.47 -0.07 -0 0.02 -0.02 0.05 -0.02 0.09 l -0.04 0.17 c -0.07 0.35 0.13 0.7 0.47 0.8 0.83 0.24 1.46 0.64 1.64 1.13 0.37 0.99 -1.18 1.96 -3.52 1.96 -2.35 0 -3.89 -0.97 -3.53 -1.96 0.18 -0.48 0.78 -0.87 1.59 -1.11 a 0.72 0.72 0 0 0 0.49 -0.84 l -0.05 -0.24 -0.31 0.04 c -0.14 0.02 -0.27 0.04 -0.37 0.06 l -0.17 0.03 c 0.01 0.08 -0.05 0.17 -0.16 0.25 a 1.4 1.4 0 0 1 -0.2 0.12 2.41 2.41 0 0 1 -0.27 0.1 2.74 2.74 0 0 1 -0.33 0.08 3.3 3.3 0 0 1 -0.36 0.05 c -0.25 0.02 -0.5 0.02 -0.73 -0 l -0.04 0.02 c -0.02 0.01 -0.07 0.03 -0.11 0.05 l -0.31 0.15 c -0.11 0.05 -0.21 0.12 -0.29 0.16 l -0.1 0.05 -0.03 0.02 c 0.16 0.07 0.24 0.17 0.26 0.28 0.04 0.11 -0.01 0.23 -0.12 0.35 a 1.5 1.5 0 0 1 -0.22 0.18 1.98 1.98 0 0 1 -0.32 0.17 3.42 3.42 0 0 1 -0.83 0.26 0.53 0.53 0 0 0 -0.05 0.11 l -0.09 0.25 -0.04 0.26 a 0.41 0.41 0 0 0 -0.01 0.12 c 0.32 0 0.61 0.06 0.83 0.14 0.25 0.08 0.4 0.21 0.52 0.36 0.09 0.16 0.13 0.33 0.05 0.53 -0.06 0.19 -0.22 0.41 -0.47 0.6 l 0.04 0.03 0.12 0.08 c 0.1 0.07 0.23 0.17 0.38 0.26 l 0.44 0.24 c 0.06 0.03 0.12 0.06 0.16 0.07 a 1.11 1.11 0 0 0 0.06 0.03 c 0.36 -0.15 0.75 -0.23 1.14 -0.28 a 3.34 3.34 0 0 1 0.57 -0.01 c 0.19 0.01 0.38 0.02 0.55 0.07 0.18 0.05 0.35 0.09 0.5 0.16 a 2.86 2.86 0 0 1 0.42 0.24 c 0.26 0.17 0.45 0.42 0.54 0.68 l 0.33 0.01 c 0.2 0.01 0.46 0.02 0.73 0.01 l 0.72 -0.03 0.32 -0.03 a 1 1 0 0 1 0.17 -0.38 1.22 1.22 0 0 1 0.14 -0.16 1.61 1.61 0 0 1 0.55 -0.39 2.29 2.29 0 0 1 0.48 -0.17 c 0.18 -0.04 0.35 -0.07 0.54 -0.08 0.19 -0.01 0.38 -0.01 0.57 0 a 4 4 0 0 1 1.15 0.24 l 0.2 -0.11 c 0.11 -0.07 0.28 -0.15 0.41 -0.25 0.13 -0.1 0.27 -0.19 0.35 -0.26 l 0.13 -0.13 c -0.27 -0.19 -0.43 -0.39 -0.52 -0.58 a 0.64 0.64 0 0 1 -0.06 -0.27 0.39 0.39 0 0 1 0.06 -0.25 c 0.07 -0.16 0.25 -0.27 0.45 -0.37 M 9.95 13.9 c 0 0 0.35 -1.32 -1.17 -3.03 l -0.05 -0.05 A 4.2 4.2 0 0 1 7.75 8.12 c 0 -2.32 1.89 -4.2 4.2 -4.2 h 0.1 c 2.32 0 4.2 1.88 4.2 4.2 A 4.2 4.2 0 0 1 15.26 10.82 c -0.01 0.01 -0.02 0.03 -0.05 0.05 -1.34 1.35 -1.17 3.03 -1.17 3.03 2.46 -0.85 4.11 -3.16 4.13 -5.75 0.02 -3.24 -2.6 -6 -5.83 -6.15 a 2.51 2.51 0 0 0 -0.12 -0 c -0.05 0 -0.23 0 -0.23 0 -0.01 0 -0.18 -0 -0.23 -0 -0.04 0 -0.08 0 -0.12 0 -3.23 0.16 -5.85 2.92 -5.83 6.15 0.01 2.59 1.67 4.9 4.13 5.75 z" fill="#78909c"/></svg>