<?xml version="1.0" encoding="UTF-8" standalone="no"?>
<svg
   xmlns:dc="http://purl.org/dc/elements/1.1/"
   xmlns:cc="http://creativecommons.org/ns#"
   xmlns:rdf="http://www.w3.org/1999/02/22-rdf-syntax-ns#"
   xmlns:svg="http://www.w3.org/2000/svg"
   xmlns="http://www.w3.org/2000/svg"
   width="800"
   height="800"
   data-name="Layer 1"
   version="1.1"
   viewBox="0 0 800.00003 800"
   id="svg39">
  <metadata
     id="metadata43">
    <rdf:RDF>
      <cc:Work
         rdf:about="">
        <dc:format>image/svg+xml</dc:format>
        <dc:type
           rdf:resource="http://purl.org/dc/dcmitype/StillImage" />
        <dc:title>CF_Icon_4-colour</dc:title>
      </cc:Work>
    </rdf:RDF>
  </metadata>
  <defs
     id="defs23">
    <style
       id="style7">.cls-1{fill:#231f20;}.cls-2{fill:#383a35;}.cls-3{fill:url(#linear-gradient);}.cls-4{fill:url(#linear-gradient-2);}</style>
    <linearGradient
       id="linear-gradient"
       x1="541.95"
       x2="423.91"
       y1="120.67"
       y2="946.97"
       gradientTransform="translate(978.34 -208.81)"
       gradientUnits="userSpaceOnUse">
      <stop
         stop-color="#00b3e3"
         offset="0"
         id="stop9" />
      <stop
         stop-color="#00b3e3"
         style="stop-color:#03a9f4"
         offset=".13"
         id="stop11" />
      <stop
         stop-color="#00b3e3"
         stop-opacity="0"
         style="stop-color:#03a9f4;stop-opacity:0"
         offset="1"
         id="stop13" />
    </linearGradient>
    <linearGradient
       id="linear-gradient-2"
       x1="541.95"
       x2="423.91"
       y1="120.67"
       y2="946.97"
       gradientTransform="matrix(0.94340696,0,0,0.94340696,-71.728708,-71.670211)"
       gradientUnits="userSpaceOnUse">
      <stop
         stop-color="#3b5cad"
         stop-opacity="0"
         offset="0"
         id="stop16" />
      <stop
         stop-color="#3b5cad"
         stop-opacity="0"
         offset=".13"
         id="stop18" />
      <stop
         stop-color="#3b5cad"
         offset="1"
         id="stop20" />
    </linearGradient>
  </defs>
  <title
     id="title25">CF_Icon_4-colour</title>
  <path
     class="cls-1"
     d="m 478.32472,330.0136 c 22.2078,-18.08228 35.94569,-43.70332 35.69097,-72.07629 -0.46614,-54.03741 -51.52134,-97.57658 -114.03903,-97.57658 -62.51769,0 -113.56733,43.5354 -114.04847,97.57658 -0.24627,28.36448 13.48317,53.99307 35.69097,72.07629 27.47579,22.37479 49.99114,67.6253 51.31096,117.03907 1.46879,54.83742 -2.27795,118.30323 -4.58222,150.58662 -29.3758,4.17769 -50.00906,13.98412 -50.00906,25.4267 0,15.22471 36.54381,32.77962 81.61886,32.77962 45.07504,0 81.61885,-17.58982 81.61885,-32.77962 0,-11.43409 -20.63325,-21.24929 -50.00906,-25.4267 -2.30437,-32.29565 -6.04224,-95.75581 -4.58222,-150.58662 1.34567,-49.41094 23.86065,-94.66145 51.33737,-117.03907 z"
     style="fill:#0288d1;stroke-width:0.87951"
     id="path27" />
  <path
     class="cls-2"
     d="m 616.45837,649.08327 a 69.393242,69.393242 0 0 1 13.51808,-3.94023 85.611351,85.611351 0 0 1 15.62847,-1.89097 c 0,0 -0.25505,-1.75898 -0.59807,-4.39759 -0.15831,-2.58579 -1.38086,-6.01583 -2.55059,-9.41954 -0.59808,-1.67106 -1.19615,-3.34212 -1.75899,-4.88129 -0.69481,-1.54794 -1.57435,-2.96399 -2.20757,-4.18646 l -2.19002,-3.97542 a 138.7846,138.7846 0 0 1 -16.13037,-3.65872 126.34106,126.34106 0 0 1 -14.55583,-5.01317 c -8.24981,-3.62363 -16.00679,-7.68688 -20.09646,-12.22561 -4.94288,-4.31836 -5.85752,-8.62803 -5.69921,-12.54166 a 10.730311,10.730311 0 0 1 2.63852,-5.51449 17.229441,17.229441 0 0 1 5.85752,-4.56468 c 0,0 -1.98767,-1.09935 -4.88128,-2.74409 -1.47757,-0.79156 -3.08711,-1.75898 -4.97798,-2.70889 -1.89097,-0.94983 -4.06335,-1.95248 -6.15658,-2.92881 -4.09854,-1.95248 -8.18821,-3.90505 -11.62749,-5.19789 l -5.45299,-2.20757 a 107.53896,107.53896 0 0 1 -12.66524,0.87952 c -4.53826,0.0967 -9.16454,0 -13.66714,-0.3782 -8.8567,-0.75637 -17.86246,-1.98766 -25.64651,-4.28325 a 63.89601,63.89601 0 0 1 -10.45767,-3.62363 48.478853,48.478853 0 0 1 -7.81886,-4.12495 c -4.08977,-2.99032 -6.89536,-6.01582 -6.86895,-9.07652 l -6.14781,-1.00265 c -3.84344,-0.59808 -12.03126,-1.69747 -17.22944,-2.39229 -0.0967,0.87951 -0.65963,1.69747 -0.87951,3.14862 l -1.31926,6.36762 c -2.7089,12.72656 4.66138,25.64651 17.16812,29.27014 30.62488,8.91822 53.77326,23.59744 60.45729,41.6184 13.51808,36.44664 -43.25426,72.11969 -129.57694,72.11969 -86.32268,0 -143.06767,-35.70796 -129.61468,-72.1546 6.52592,-17.58982 28.75976,-31.97866 58.28557,-40.95895 a 26.446527,26.446527 0 0 0 18.02095,-30.78243 l -1.81181,-8.65444 c -3.43013,0.41338 -7.43188,0.87951 -11.53032,1.41606 -5.13638,0.56288 -10.01804,1.47756 -13.76431,2.07568 -3.74674,0.59806 -6.27092,1.03784 -6.27092,1.03784 0.25506,2.964 -1.85577,6.29724 -5.8927,9.16454 a 51.433604,51.433604 0 0 1 -7.30877,4.31835 88.646292,88.646292 0 0 1 -10.07936,3.78193 100.68982,100.68982 0 0 1 -12.31334,2.83201 121.44478,121.44478 0 0 1 -13.26336,1.75899 c -9.16454,0.72119 -18.36436,0.87951 -26.71917,-0.12314 l -1.51276,0.59808 c -0.87951,0.41336 -2.39229,0.94107 -3.87863,1.67105 -3.05192,1.45115 -7.18555,3.43004 -11.33692,5.4178 -4.15127,1.98766 -7.74848,4.25684 -10.71238,5.89271 l -3.51806,1.98766 c -0.78277,0.53651 -1.23134,0.81795 -1.23134,0.81795 5.76082,2.63852 8.97982,6.29733 9.60388,10.14068 1.45115,4.06335 -0.53649,8.285 -4.28325,12.88505 a 55.013833,55.013833 0 0 1 -8.10028,6.67545 72.911207,72.911207 0 0 1 -11.59164,6.15658 125.56747,125.56747 0 0 1 -30.6513,9.48124 19.52475,19.52475 0 0 0 -1.75898,4.09854 c -0.87951,2.48899 -2.04927,5.85752 -3.24541,9.29643 -0.50132,3.40371 -0.97624,6.89536 -1.35445,9.57746 a 15.188852,15.188852 0 0 0 -0.25506,4.47675 c 11.93504,0.12314 22.55969,2.14597 30.4928,5.32101 9.23482,3.05192 14.81054,7.62537 19.12097,13.1926 3.40372,6.01582 4.75817,12.31335 1.75898,19.59551 -2.11078,7.08885 -7.91556,14.99545 -17.36152,22.18138 l 1.45115,1.25766 c 1.03785,0.75638 2.5506,1.82936 4.3976,3.1223 3.74674,2.58578 8.46972,6.23573 14.01903,9.54256 5.85752,3.21022 11.81145,6.45564 16.31528,8.94463 2.23399,1.25775 4.50307,2.04927 5.91912,2.7089 1.41606,0.65964 2.33069,1.01142 2.33069,1.01142 13.32468,-5.69921 27.62578,-8.62802 41.93538,-10.14068 a 122.81272,122.81272 0 0 1 20.88798,-0.50132 c 6.83375,0.34301 13.79921,0.87951 20.31626,2.42748 6.45564,1.69747 12.76147,3.30692 18.27663,5.76959 a 105.0578,105.0578 0 0 1 15.31244,8.66321 c 9.41954,6.42923 16.66717,15.49735 19.78041,25.0484 l 12.12844,0.47494 c 7.30876,0.19349 17.04453,0.87951 26.74559,0.343 9.67463,-0.31661 19.43701,-0.47493 26.64936,-0.94106 7.12404,-0.69482 11.87372,-1.13455 11.87372,-1.13455 a 36.710795,36.710795 0 0 1 6.23573,-13.9228 44.696735,44.696735 0 0 1 5.07477,-5.91912 59.305392,59.305392 0 0 1 20.37854,-14.4596 84.186807,84.186807 0 0 1 17.52001,-6.29733 c 6.67545,-1.31926 12.94637,-2.63852 19.75399,-3.1223 6.80744,-0.48374 14.01903,-0.21988 20.79175,0.0616 a 147.19979,147.19979 0 0 1 42.41841,9.00614 l 7.37027,-4.09854 c 4.22165,-2.52418 10.29917,-5.51449 14.95206,-9.23482 4.75816,-3.51806 9.76237,-6.86894 12.78788,-9.67464 3.0255,-2.80569 4.88128,-4.59986 4.88128,-4.59986 -9.92087,-6.83376 -15.62848,-14.17752 -19.27852,-21.42477 a 23.500267,23.500267 0 0 1 -2.26918,-10.01804 14.388843,14.388843 0 0 1 2.26918,-9.16454 c 2.58578,-5.79601 9.19973,-10.07936 16.71057,-13.48317"
     style="fill:#78909c;stroke-width:0.87951"
     id="path29" />
  <path
     class="cls-2"
     d="m 324.70976,469.94916 c 0,0 12.82279,-48.56659 -42.86746,-111.21825 l -1.84701,-1.93493 a 154.31308,154.31308 0 0 1 -36.38532,-99.38792 c 0,-85.13682 69.34042,-154.39798 154.57723,-154.39798 h 3.55325 c 85.23305,0 154.58667,69.2706 154.58667,154.39798 a 154.28477,154.28477 0 0 1 -36.3674,99.32189 c -0.27264,0.31662 -0.87951,0.96746 -1.85577,1.91738 C 468.6581,408.15544 475.21006,469.90331 475.21006,469.90331 565.49222,438.77748 626.48537,353.88312 627.00424,258.65562 627.69026,139.6354 531.58806,38.153113 412.82256,32.454935 c -1.47756,-0.07036 -2.94635,-0.09675 -4.3976,-0.09675 -1.75898,0 -8.47849,0.131926 -8.4433,0.131926 -0.19349,0 -6.63149,-0.131926 -8.41689,-0.131926 -1.46879,0 -2.93758,0 -4.3976,0.09675 -118.7938,5.699216 -214.88923,107.180465 -214.23828,226.238425 0.50131,95.23693 61.50447,180.12469 151.78474,211.24769 z"
     style="fill:#78909c;stroke-width:0.87951"
     id="path31" />
  <path
     class="cls-4"
     d="m 478.32472,330.0136 c 22.2078,-18.08228 35.94569,-43.70332 35.69097,-72.07629 -0.46614,-54.03741 -51.52134,-97.57658 -114.03903,-97.57658 -62.51769,0 -113.56733,43.5354 -114.04847,97.57658 -0.24627,28.36448 13.48317,53.99307 35.69097,72.07629 27.47579,22.37479 49.99114,67.6253 51.31096,117.03907 1.46879,54.83742 -2.27795,118.30323 -4.58222,150.58662 -29.3758,4.17769 -50.00906,13.98412 -50.00906,25.4267 0,15.22471 36.54381,32.77962 81.61886,32.77962 45.07504,0 81.61885,-17.58982 81.61885,-32.77962 0,-11.43409 -20.63325,-21.24929 -50.00906,-25.4267 -2.30437,-32.29565 -6.04224,-95.75581 -4.58222,-150.58662 1.34567,-49.41094 23.86065,-94.66145 51.33737,-117.03907 z"
     style="fill:url(#linear-gradient-2);fill-opacity:0;stroke-width:0.87951"
     id="path33" />
</svg>
