<svg xmlns="http://www.w3.org/2000/svg" version="1.1" viewBox="0 0 24 24"><path xmlns="http://www.w3.org/2000/svg" d="m 22 8.95 c 0 -2.59 -1.74 -3.63 -3.89 -3.63 -0.9 0 -1.83 0.2 -2.6 0.57 C 14.51 5.2 13.34 4.8 12 4.8 c -1.34 0 -2.51 0.41 -3.51 1.09 C 7.71 5.51 6.79 5.32 5.89 5.32 3.74 5.32 2 6.35 2 8.95 c 0 2.14 1.18 3.56 2.8 4 -0.02 0.3 -0.04 0.6 -0.04 0.89 0 3.18 2.51 4.26 4.77 4.63 0.61 0.45 1.49 0.73 2.47 0.73 0.98 0 1.86 -0.28 2.47 -0.73 2.26 -0.36 4.77 -1.44 4.77 -4.63 0 -0.3 -0.01 -0.6 -0.04 -0.89 C 20.82 12.51 22 11.08 22 8.95" fill="#90a4ae"/><path xmlns="http://www.w3.org/2000/svg" d="m 7.31 6.9 c -0.18 -0.02 -0.35 -0.03 -0.53 -0.03 -1.72 0 -3.11 0.83 -3.11 2.9 0 1.2 0.47 2.12 1.19 2.68 0.26 -2.11 1.11 -4.12 2.45 -5.55" fill="#f8bbd0"/><path xmlns="http://www.w3.org/2000/svg" d="m 17.22 6.87 c -0.18 0 -0.35 0.01 -0.53 0.03 1.34 1.43 2.19 3.44 2.45 5.55 0.72 -0.56 1.19 -1.48 1.19 -2.68 0 -2.07 -1.39 -2.9 -3.11 -2.9" fill="#f8bbd0"/><path xmlns="http://www.w3.org/2000/svg" d="m 14.07 15.21 c 0 1.86 -0.96 2.33 -2.07 2.33 -1.11 0 -2.07 -0.47 -2.07 -2.33 0 -1.86 0.96 -3.36 2.07 -3.36 1.11 0 2.07 1.51 2.07 3.36" fill="#263238"/><path xmlns="http://www.w3.org/2000/svg" d="M 9.5 11.75 C 9.5 12.44 8.94 13 8.25 13 7.56 13 7 12.44 7 11.75 7 11.06 7.56 10.5 8.25 10.5 c 0.69 0 1.25 0.56 1.25 1.25" fill="#263238"/><path xmlns="http://www.w3.org/2000/svg" d="M 17 11.75 C 17 12.44 16.44 13 15.75 13 15.06 13 14.5 12.44 14.5 11.75 14.5 11.06 15.06 10.5 15.75 10.5 c 0.69 0 1.25 0.56 1.25 1.25" fill="#263238"/></svg>