<svg xmlns="http://www.w3.org/2000/svg" viewBox="0 0 32 32">
  <rect x="12" width="8" height="4" style="fill: #0288d1"/>
  <path d="M16,5A11,11,0,1,1,5,16,11.01245,11.01245,0,0,1,16,5m0-3A14,14,0,1,0,30,16,14,14,0,0,0,16,2Z" style="fill: #0288d1"/>
  <rect x="26" y="14" width="8" height="4" transform="translate(46 -14) rotate(90)" style="fill: #0288d1"/>
  <rect x="22.15685" y="24.52082" width="8" height="3.27208" transform="translate(63.14823 26.15685) rotate(135)" style="fill: #0288d1"/>
  <rect x="2.09315" y="23.91726" width="8" height="3.97918" transform="translate(-7.91726 48.53427) rotate(-135)" style="fill: #0288d1"/>
  <rect x="12" y="28" width="8" height="4" style="fill: #0288d1"/>
  <rect x="21.90685" y="4.10355" width="8" height="3.97918" transform="translate(39.91726 28.72056) rotate(-135)" style="fill: #0288d1"/>
  <rect x="-2.5" y="14.5" width="8" height="3" transform="translate(17.5 14.5) rotate(90)" style="fill: #0288d1"/>
  <rect x="2.09315" y="4.10355" width="8" height="3.97918" transform="translate(14.71016 6.09315) rotate(135)" style="fill: #0288d1"/>
  <path d="M20,10H16a6,6,0,0,0,0,12h4V18H16a2,2,0,0,1,0-4h4V10Z" style="fill: #0288d1"/>
</svg>
