<svg width="992" height="992" viewBox="0 0 992 992" fill="none" xmlns="http://www.w3.org/2000/svg">
<circle cx="496" cy="496" r="496" transform="rotate(-90 496 496)" fill="url(#paint0_linear)"/>
<path d="M315.498 302.662C314.967 310.005 312.248 315.787 307.342 320.005C302.467 324.224 296.029 326.334 288.029 326.334C279.279 326.334 272.388 323.396 267.357 317.521C262.357 311.615 259.857 303.521 259.857 293.24V289.068C259.857 282.505 261.013 276.724 263.326 271.724C265.638 266.724 268.935 262.896 273.217 260.24C277.529 257.552 282.529 256.209 288.217 256.209C296.092 256.209 302.435 258.318 307.248 262.537C312.06 266.755 314.842 272.677 315.592 280.302H301.529C301.185 275.896 299.951 272.709 297.826 270.74C295.732 268.74 292.529 267.74 288.217 267.74C283.529 267.74 280.013 269.427 277.67 272.802C275.357 276.146 274.17 281.349 274.107 288.412V293.568C274.107 300.943 275.217 306.334 277.435 309.74C279.685 313.146 283.217 314.849 288.029 314.849C292.373 314.849 295.607 313.865 297.732 311.896C299.888 309.896 301.123 306.818 301.435 302.662H315.498ZM321.732 299.568C321.732 294.537 322.701 290.052 324.638 286.115C326.576 282.177 329.357 279.13 332.982 276.974C336.638 274.818 340.873 273.74 345.685 273.74C352.529 273.74 358.107 275.834 362.42 280.021C366.763 284.209 369.185 289.896 369.685 297.084L369.779 300.552C369.779 308.334 367.607 314.584 363.263 319.302C358.92 323.99 353.092 326.334 345.779 326.334C338.467 326.334 332.623 323.99 328.248 319.302C323.904 314.615 321.732 308.24 321.732 300.177V299.568ZM335.279 300.552C335.279 305.365 336.185 309.052 337.998 311.615C339.81 314.146 342.404 315.412 345.779 315.412C349.06 315.412 351.623 314.162 353.467 311.662C355.31 309.13 356.232 305.099 356.232 299.568C356.232 294.849 355.31 291.193 353.467 288.599C351.623 286.005 349.029 284.709 345.685 284.709C342.373 284.709 339.81 286.005 337.998 288.599C336.185 291.162 335.279 295.146 335.279 300.552ZM376.013 299.662C376.013 291.755 377.779 285.459 381.31 280.771C384.873 276.084 389.732 273.74 395.888 273.74C400.826 273.74 404.904 275.584 408.123 279.271V253.396H421.717V325.396H409.482L408.826 320.005C405.451 324.224 401.107 326.334 395.795 326.334C389.826 326.334 385.029 323.99 381.404 319.302C377.81 314.584 376.013 308.037 376.013 299.662ZM389.56 300.646C389.56 305.396 390.388 309.037 392.045 311.568C393.701 314.099 396.107 315.365 399.263 315.365C403.451 315.365 406.404 313.599 408.123 310.068V290.052C406.435 286.521 403.513 284.755 399.357 284.755C392.826 284.755 389.56 290.052 389.56 300.646ZM455.56 326.334C448.123 326.334 442.06 324.052 437.373 319.49C432.717 314.927 430.388 308.849 430.388 301.255V299.943C430.388 294.849 431.373 290.302 433.342 286.302C435.31 282.271 438.092 279.177 441.685 277.021C445.31 274.834 449.435 273.74 454.06 273.74C460.998 273.74 466.451 275.927 470.42 280.302C474.42 284.677 476.42 290.88 476.42 298.912V304.443H444.123C444.56 307.755 445.873 310.412 448.06 312.412C450.279 314.412 453.076 315.412 456.451 315.412C461.67 315.412 465.748 313.521 468.685 309.74L475.342 317.193C473.31 320.068 470.56 322.318 467.092 323.943C463.623 325.537 459.779 326.334 455.56 326.334ZM454.013 284.709C451.326 284.709 449.138 285.615 447.451 287.427C445.795 289.24 444.732 291.834 444.263 295.209H463.107V294.13C463.045 291.13 462.232 288.818 460.67 287.193C459.107 285.537 456.888 284.709 454.013 284.709ZM541.013 292.818C541.013 299.193 539.982 304.74 537.92 309.459C535.857 314.146 532.998 317.912 529.342 320.755L540.685 329.662L531.732 337.584L517.201 325.912C515.545 326.193 513.826 326.334 512.045 326.334C506.388 326.334 501.342 324.974 496.904 322.255C492.467 319.537 489.029 315.662 486.592 310.63C484.154 305.568 482.92 299.755 482.888 293.193V289.818C482.888 283.099 484.092 277.193 486.498 272.099C488.935 266.974 492.357 263.052 496.763 260.334C501.201 257.584 506.263 256.209 511.951 256.209C517.638 256.209 522.685 257.584 527.092 260.334C531.529 263.052 534.951 266.974 537.357 272.099C539.795 277.193 541.013 283.084 541.013 289.771V292.818ZM526.763 289.724C526.763 282.568 525.482 277.13 522.92 273.412C520.357 269.693 516.701 267.834 511.951 267.834C507.232 267.834 503.592 269.677 501.029 273.365C498.467 277.021 497.17 282.396 497.138 289.49V292.818C497.138 299.787 498.42 305.193 500.982 309.037C503.545 312.88 507.232 314.802 512.045 314.802C516.763 314.802 520.388 312.959 522.92 309.271C525.451 305.552 526.732 300.146 526.763 293.052V289.724ZM565.388 314.099H595.248V325.396H551.326V257.146H565.388V314.099Z" fill="white"/>
<rect x="231.625" y="221.91" width="418.647" height="150.948" rx="22.5" stroke="white" stroke-width="25" stroke-linecap="round" stroke-linejoin="round"/>
<path d="M401.549 714.585L296.738 714.585C291.04 714.585 285.576 707.559 281.548 695.054C277.519 682.548 275.256 665.587 275.256 647.901L275.256 414.503" stroke="white" stroke-width="25"/>
<path d="M684.361 274.176L695.515 274.176C701.432 274.176 707.106 281.455 711.29 294.411C715.473 307.366 717.824 324.937 717.824 343.26L717.824 585.053" stroke="white" stroke-width="25"/>
<rect x="319.513" y="438.25" width="198.616" height="24.827" rx="12.4135" fill="white"/>
<rect x="355.134" y="493.301" width="245.032" height="24.827" rx="12.4135" fill="white"/>
<rect x="355.134" y="551.591" width="245.032" height="24.827" rx="12.4135" fill="white"/>
<rect x="319.513" y="609.88" width="117.658" height="24.827" rx="12.4135" fill="white"/>
<rect x="632.548" y="701.632" width="94.9902" height="24.827" rx="12.4135" fill="white"/>
<rect x="609.88" y="656.296" width="74.4809" height="24.827" rx="12.4135" fill="white"/>
<path d="M534.991 630.092L603.673 737.788C612.164 751.101 602.601 768.542 586.81 768.542H449.446C433.656 768.542 424.093 751.101 432.584 737.788L501.266 630.092C509.128 617.764 527.129 617.764 534.991 630.092Z" stroke="white" stroke-width="20"/>
<rect x="531.082" y="656.296" width="45.3362" height="24.827" rx="12.4135" transform="rotate(90 531.082 656.296)" fill="white"/>
<circle cx="518.668" cy="726.999" r="12.4135" fill="white"/>
<path d="M585.593 620.675H759.382V764.239H642.263" stroke="white" stroke-width="20"/>
<defs>
<linearGradient id="paint0_linear" x1="496" y1="3.05176e-05" x2="496" y2="992" gradientUnits="userSpaceOnUse">
<stop stop-color="#53A4FF"/>
<stop offset="0.918617" stop-color="#2A8EFF"/>
</linearGradient>
</defs>
</svg>
