<svg width="50" height="48" xmlns="http://www.w3.org/2000/svg"><path d="M25.014 0C11.23.01.01 11.149 0 24.832v.062l4.254 2.482.058-.039a12.238 12.238 0 0 1 9.078-1.928 11.844 11.844 0 0 1 5.98 2.975l.73.68.413-.904c.4-.874.862-1.696 1.374-2.443.206-.3.433-.604.692-.929l.427-.535-.526-.44a17.45 17.45 0 0 0-8.1-3.781 17.853 17.853 0 0 0-8.375.49c2.023-8.868 9.82-15.05 19.027-15.057 5.195 0 10.078 2.007 13.752 5.652 2.619 2.598 4.422 5.835 5.224 9.372a17.908 17.908 0 0 0-5.208-.79l-.318-.001a18.096 18.096 0 0 0-2.067.153l-.087.012c-.303.04-.57.081-.813.126-.119.02-.237.045-.355.068-.28.057-.554.119-.816.185l-.288.073c-.336.09-.675.191-1.006.3l-.061.02c-.74.251-1.478.558-2.19.914l-.057.029c-.316.158-.636.333-.978.534l-.075.045a16.97 16.97 0 0 0-4.414 3.78l-.157.191c-.317.394-.567.727-.787 1.048-.184.27-.369.56-.6.942l-.126.217c-.184.318-.348.622-.487.9l-.033.061c-.354.711-.661 1.455-.917 2.214l-.036.111a17.13 17.13 0 0 0-.855 5.644l.003.234a23.565 23.565 0 0 0 .043.822c.01.13.023.259.036.388.015.158.034.316.053.471l.011.088.028.214c.037.264.08.525.13.787.503 2.637 1.76 5.274 3.635 7.625l.085.106.087-.104c.748-.884 2.603-3.687 2.76-5.369l.003-.031-.015-.028a11.736 11.736 0 0 1-1.333-5.407c0-6.284 4.94-11.502 11.243-11.88l.414-.015c2.561-.058 5.064.673 7.23 2.136l.058.039 4.197-2.44.055-.033v-.062c.006-6.632-2.592-12.865-7.314-17.551C37.97 2.576 31.695 0 25.014 0" fill="#FF0266" fill-rule="evenodd"/></svg>