<svg version="1.0" viewBox="0 0 24 24" xmlns="http://www.w3.org/2000/svg">
    <path d="M 20.6796,14.3931 h -2.6402 c -1.1605,0 -1.1605,-1.8133 0,-1.8133 h 2.6402 c 1.1605,0 1.1605,1.8133 0,1.8133 z m -0.7242,-2.9739 h -1.916 c -1.1605,0 -1.1605,-1.8131 0,-1.8133 l 1.9163,-3.701e-4 c 1.233,0 1.2327,1.8137 0,1.8137 z M 10.6112,6.56 v 10.88 h 5.44 V 15.2641 H 12.7876 L 12.7875,6.56 Z m -5.9846,0 c -1.0015,1e-7 -2.1763,1.175 -2.1764,2.1765 L 2.45,13.4499 c -4.47e-5,1.0015 1.1751,2.1768 2.1766,2.1768 V 17.44 h 2.1761 v -1.8133 c 1.0015,0 2.1761,-1.1753 2.1761,-2.1768 L 8.9791,8.7365 C 8.9791,7.735 7.8042,6.56 6.8027,6.56 H 4.6266 m 0,2.1765 h 2.1761 v 4.7134 H 4.6266 Z" fill="#00b0ff" />
</svg>
