<svg xmlns="http://www.w3.org/2000/svg" viewBox="0 0 16 16"><path fill="#F4511E" d="M15 8.913A6.852 6.852 0 0 1 12.74 14h-1.68c.035-.162-.052-.274-.165-.35-.236-.162-.385-.431-.35-.71.093-.735.545-1.674 2.194-2.536 1.115-.588 1.32-1.8 1.398-1.978.113-.294.082-.543-.154-.781-.427-.431-.889-.822-1.449-1.075-.786-.365-1.588-.345-2.384-.051-.139.05-.108-.056-.118-.101a5.304 5.304 0 0 0-.545-1.481c-.519-.923-1.243-1.603-2.322-1.831-.16-.036-.324-.046-.488-.066-.077-.01-.118.01-.098.101.144.68.345 1.334.781 1.892.2.259.473.431.74.609.283.192.58.37.848.588.252.213.457.461.555.817C9.467 7.01 9.45 7 9.44 6.986c-.822-1.289-2.43-1.857-4.048-1.39-.15.04-.129.091-.057.198.468.71 1.11 1.217 1.87 1.608.565.289 1.151.527 1.788.608.288.036.15.228.195.457.062.355.211.466.16.436-.977-.386-1.788-.538-2.461-.538-2.78 0-3.232 2.617-3.211 2.648-.041-.016-.71-.259-.858.4-.154.67.755 1.106.755 1.106.118-.791.837-.964.925-.984-.072.04-.54.31-.684 1.045-.123.65.396 1.222.591 1.42h-1.15A6.866 6.866 0 0 1 1 8.913C1 5.093 4.129 2 7.997 2 11.867 2 15 5.094 15 8.913zM9.914 14h-.74a.27.27 0 0 0 .072-.142c.062-.355-.247-.426-.247-.426H7.294s.678-.03 1.3-.284c.616-.259 1.114-.71 1.202-.832a1.934 1.934 0 0 0-.031 1.517.318.318 0 0 0 .149.167z"/></svg>