<svg xmlns="http://www.w3.org/2000/svg" viewBox="0 0 32 32">
  <rect x="3.00867" y="3.00867" width="25.98267" height="25.98267" style="fill: #0d3858;stroke: #4dd0e1;stroke-width: 2px"/>
  <path d="M24,9.5v-1a.5.5,0,0,0-.5-.5H22a2,2,0,0,0-2,2v2H18.5a.5.5,0,0,0-.5.5v1a.5.5,0,0,0,.5.5H20v7.5a.5.5,0,0,0,.5.5h1a.5.5,0,0,0,.5-.5V14h1.5a.5.5,0,0,0,.5-.5v-1a.5.5,0,0,0-.5-.5H22V10h1.5A.5.5,0,0,0,24,9.5Z" style="fill: #4dd0e1"/>
  <path d="M12,20a2,2,0,0,1-2-2V14a2,2,0,0,1,2-2h3.5a.5.5,0,0,0,.5-.5v-1a.5.5,0,0,0-.5-.5H12a4,4,0,0,0-4,4v4a4,4,0,0,0,4,4h3.5a.5.5,0,0,0,.5-.5v-1a.5.5,0,0,0-.5-.5Z" style="fill: #4dd0e1"/>
</svg>
