<?xml version="1.0" encoding="utf-8"?>
<svg width="1em" height="1em" viewBox="0 0 1600 1600" xmlns="http://www.w3.org/2000/svg" xmlns:bx="https://boxy-svg.com">
  <path fill="#64b5f6" d="M 1472.28 733.074 L 1345.18 605.975 L 1182.38 767.276 C 1204.84 861.667 1138.79 927.224 1044.85 903.533 L 891.372 1055.6 C 913.182 1112.77 881.785 1181.87 816.568 1197.42 C 737.057 1216.37 666.436 1141.61 689.755 1063.18 C 708.682 999.515 778.076 971.841 833.589 995.474 L 982.186 848.249 L 596.69 848.249 C 571.739 902.163 503.256 928.7 446.428 895.937 C 375.536 855.069 375.536 752.341 446.428 711.473 C 504.703 677.875 575.234 706.633 598.509 763.325 L 983.592 763.325 C 1005.93 708.552 1070.97 681.873 1125.49 706.258 L 1286.22 547.016 L 866.929 127.725 C 829.966 90.759 770.034 90.759 733.07 127.725 L 127.724 733.074 C 90.758 770.038 90.758 829.97 127.724 866.933 L 733.07 1472.28 C 770.034 1509.24 829.966 1509.24 866.929 1472.28 L 1472.28 866.933 C 1509.24 829.97 1509.24 770.038 1472.28 733.074 Z M 822.676 604.908 L 935.661 427.359 L 822.676 427.359 L 822.676 377.686 L 998.552 377.686 L 998.552 427.359 L 888.34 600.938 L 1006.18 600.938 L 1006.18 650.102 L 822.676 650.102 L 822.676 604.908 Z M 691.817 374.843 C 751.038 374.843 784.819 391.09 782.202 453.888 L 729.562 453.888 C 729.562 434.597 718.22 424.111 697.586 424.111 C 671.172 424.111 636.692 448.912 636.692 514.52 C 636.692 634.707 749.518 601.512 771.204 586.292 L 785.308 638.555 C 780.608 643.258 579.562 712.924 579.562 515.414 C 579.562 390.486 661.648 374.843 691.819 374.843 L 691.817 374.843 Z"></path>
</svg>
