<svg version="1.1" viewBox="0 0 24 24" xmlns="http://www.w3.org/2000/svg" style="fill:#444242">
<path d="M372.9454956,245.4641724C350.9454956,305.9641724,314,370,314,370h-42c9.666687-15.666687,83-143.5,65.1299438-198.3186646C330.8166504,152.3143921,315.1912842,128.8359375,297.333374,103l42.0137329,0.7145996C389.9668579,177.3980103,425.2437744,270.1334839,456,370h-39C403.5806885,324.9164429,389.6804199,281.1903076,372.9454956,245.4641724z M503.7525024,256c0,141.3848877-110.9225464,256-247.7525024,256S8.2474976,397.3848877,8.2474976,256S119.170105,0,256,0S503.7525024,114.6150513,503.7525024,256z M205.3233032,413.4627686c-17.8579102-25.8359985-32.5571899-50.6412354-39.7966309-69.6813965C148.5,299,214.4838257,172.6500854,230.067627,149.597229c0.7559204-1.1181641-0.0560913-2.6237793-1.4058228-2.6171875l-39.0318604-1.3141479c0,0-38.6299438,62.8341064-59.9187622,124.3326416c-16.7349243-35.7261353-30.6351929-79.4522705-44.0545044-124.5357666h-39c30.7562256,99.8664551,66.0331421,193.6019287,116.6528931,267.2854004L205.3233032,413.4627686z M322.5016479,480.2296753c8.1586914,0.0472412,17.56427,0.0356445,25.5008545-0.1489258C432.3574219,443.0552979,491.5205078,356.6711426,491.5205078,256c0-134.40448-105.446106-243.3607788-235.5205078-243.3607788c-38.9891968,0-75.7641602,9.7918091-108.1513062,27.1216431C283.1494141,28.4086304,332.1598511,184.4440308,251.12323,263.4491577C221.7950439,292.0421753,203.75,347.75,221.5939331,397.6199951C236.859375,440.2836914,274.9522095,473.3458252,322.5016479,480.2296753z"/></svg>