<svg xmlns="http://www.w3.org/2000/svg" viewBox="0 0 32 32"><path d="M29.42249,17.4,17.4,29.42249a1.98575,1.98575,0,0,1-2.8,0L2.57751,17.4a1.98568,1.98568,0,0,1,0-2.8L14.6,2.57751a1.98575,1.98575,0,0,1,2.8,0L25.41,10.59,23,13a2.02769,2.02769,0,0,0-.74-.14A2.13407,2.13407,0,0,0,20.37,14H12a2.07645,2.07645,0,0,0-1.86-1.14,2.14,2.14,0,0,0,0,4.28A2.07645,2.07645,0,0,0,12,16h8l-3.82,3.83h-.01a1.8913,1.8913,0,0,0-.63-.1,2.135,2.135,0,1,0,2.14,2.13,1.7745,1.7745,0,0,0-.1-.61l4.17-4.17a2.09457,2.09457,0,0,0,.51.06005A2.14245,2.14245,0,0,0,24.4,15a2.098,2.098,0,0,0-.06-.51l2.49-2.48,2.59247,2.59A1.98568,1.98568,0,0,1,29.42249,17.4Z" style="fill:#64b5f6"/></svg>