<svg width="24" height="24" version="1.1" viewBox="0 0 24 24" xmlns="http://www.w3.org/2000/svg">
 <path d="m6.6099 3.0165a3.5934 3.5934 0 0 1 3.5934 3.5934v1.7967h3.5934v-1.7967a3.5934 3.5934 0 0 1 3.5934-3.5934 3.5934 3.5934 0 0 1 3.5934 3.5934 3.5934 3.5934 0 0 1-3.5934 3.5934h-1.7967v3.5934h1.7967a3.5934 3.5934 0 0 1 3.5934 3.5934 3.5934 3.5934 0 0 1-3.5934 3.5934 3.5934 3.5934 0 0 1-3.5934-3.5934v-1.7967h-3.5934v1.7967a3.5934 3.5934 0 0 1-3.5934 3.5934 3.5934 3.5934 0 0 1-3.5934-3.5934 3.5934 3.5934 0 0 1 3.5934-3.5934h1.7967v-3.5934h-1.7967a3.5934 3.5934 0 0 1-3.5934-3.5934 3.5934 3.5934 0 0 1 3.5934-3.5934m8.9835 14.374a1.7967 1.7967 0 0 0 1.7967 1.7967 1.7967 1.7967 0 0 0 1.7967-1.7967 1.7967 1.7967 0 0 0-1.7967-1.7967h-1.7967v1.7967m-1.7967-7.1868h-3.5934v3.5934h3.5934v-3.5934m-7.1868 5.3901a1.7967 1.7967 0 0 0-1.7967 1.7967 1.7967 1.7967 0 0 0 1.7967 1.7967 1.7967 1.7967 0 0 0 1.7967-1.7967v-1.7967h-1.7967m1.7967-8.9835a1.7967 1.7967 0 0 0-1.7967-1.7967 1.7967 1.7967 0 0 0-1.7967 1.7967 1.7967 1.7967 0 0 0 1.7967 1.7967h1.7967v-1.7967m8.9835 1.7967a1.7967 1.7967 0 0 0 1.7967-1.7967 1.7967 1.7967 0 0 0-1.7967-1.7967 1.7967 1.7967 0 0 0-1.7967 1.7967v1.7967z" fill="#90a4ae" stroke-width=".89835"/>
</svg>
