<?xml version="1.0" encoding="utf-8"?>
<svg aria-hidden="true" role="img" width="1em" height="1em" preserveAspectRatio="xMidYMid meet" viewBox="0 0 512 512" xmlns="http://www.w3.org/2000/svg">
  <path d="m501.861 231.523l-46.481-46.482l-59.538 58.99c8.213 34.52-15.944 58.495-50.296 49.831l-56.13 55.613c7.976 20.908-3.506 46.18-27.357 51.865c-29.078 6.93-54.905-20.41-46.377-49.094c6.922-23.282 32.3-33.403 52.602-24.76l54.344-53.842H181.647c-9.125 19.717-34.17 29.422-54.953 17.44c-25.926-14.946-25.926-52.515 0-67.461c21.312-12.287 47.106-1.77 55.618 18.963h140.83c8.17-20.031 31.957-29.788 51.896-20.87l58.779-58.237l-153.34-153.34c-13.518-13.519-35.436-13.519-48.954 0L10.14 231.523c-13.519 13.518-13.519 35.436 0 48.954L231.523 501.86c13.518 13.519 35.436 13.519 48.954 0L501.86 280.477c13.519-13.518 13.519-35.436 0-48.954zm-237.568-46.872l41.32-64.932h-41.32v-18.166h64.32v18.166l-40.306 63.48h43.097v17.98h-67.111v-16.528zm-47.857-84.138c21.658 0 34.012 5.942 33.055 28.908H230.24c0-7.055-4.148-10.89-11.694-10.89c-9.66 0-22.27 9.07-22.27 33.064c0 43.954 41.262 31.814 49.193 26.248l5.158 19.113c-1.719 1.72-75.244 27.198-75.244-45.034c0-45.688 30.02-51.409 41.054-51.409z" style="fill: rgb(100, 181, 246);"/>
</svg>