<svg xmlns="http://www.w3.org/2000/svg" viewBox="0 0 24 24"><path d="M15.496 20.363l3.021-1.232.05-1.068.526-1.084.115-1.2.591-1.806.657-1.51-.05-.362-.098-.329.066-.375-.116-.447.066-.311-.591-.723-2.625.92.115.346-.245.41.23.707-.362.707.509 1.527 1.084.574c-.05.016-1.38-.115-1.38-.115l.312.64-.362 1.002-.427.214-.361.116-.707.82-.524 1.295.443 1.281.063.003zm-11.114-9.07l2.68.307.346 1.704-.583 1.377.325.236.56 1.558.655.725.45.272.797.761.925.689-.327.706.054.525-.108.291-.2.561-1.931-.56.055-.328-.272-.361.09-.345-2.648-1.936-.2-.49-.577-.185-.018-4.15-.236-.6.163-.757z" fill="#7D6A4C"/><path d="M18.006 14.358a.96.96 0 00-.196-.02.097.097 0 00-.088.07.461.461 0 00-.014.06.07.07 0 000 .02l.398.145h.009c-.002-.118.035-.243-.109-.275zm-.095 1.35a.186.186 0 01.031.054c.06.067.115.138.166.211l.005.007c0-.055.031-.19-.007-.236-.039-.046-.134-.037-.195-.034v-.002zm1.147-1.404h-.009a.023.023 0 00-.02.016.023.023 0 00.003.017.025.025 0 00.007.007.023.023 0 00.008.004c.005 0 .01-.002.013-.006a.022.022 0 00-.002-.037v-.001zm0-2.475c.005.134-.004.214.15.214.155 0 .257.011.264-.16 0-.058.017-.174-.032-.22-.039-.037-.139-.02-.188-.024-.167-.014-.202.015-.191.188l-.003.002zm-.511 1.088c.027-.034.011-.123.009-.161-.003-.038 0-.159-.025-.195-.046-.06-.268-.041-.325 0-.057.041-.08.33.005.364.05.018.298.038.338-.01l-.002.002zm-8.615 6.8c.005 0 .007-.014.01-.018a.111.111 0 00.008-.048c0-.02-.004-.046-.007-.069a.38.38 0 00-.004-.05.028.028 0 01-.009-.018v-.009a1.086 1.086 0 00-.009-.161h-.066a.686.686 0 00-.263 0c-.046.022-.053.075-.055.13 0 .031.004.064.004.09v.016c0 .082 0 .135.089.16.087.019.177.019.263 0a.032.032 0 01.034-.021l.005-.002zm.263-.34a.217.217 0 00-.031-.01.582.582 0 01-.166.025c0 .018.01.038.01.057a.452.452 0 010 .057.032.032 0 01-.007.02.51.51 0 010 .053v.004a.062.062 0 000 .02.02.02 0 000 .012c0 .016.004.036.008.057.005.02.005.022.007.046h.039a.25.25 0 01.024-.111c.034-.075.091-.155.123-.226h-.011l.004-.005zm-.168.454l-.004.015v.007h-.03c0 .069-.004.137-.004.203a.675.675 0 000 .068c.016.039.048.044.075.053.032-.005.064-.007.095-.01a1.57 1.57 0 00-.075-.333l-.056-.003zm.03.424a.105.105 0 00-.048.025c-.03.041-.014.141-.012.196v.015a.287.287 0 00.1-.075c.04-.049.062-.11.064-.172-.03.005-.061.007-.09.011h-.014zm5.518-.506c.091.005.189.018.243-.03a.33.33 0 00.036-.18.339.339 0 00-.034-.182.715.715 0 00-.338-.016.15.15 0 00-.043.13v.084c0 .025-.002.05-.007.075l.005.011a.812.812 0 00.024.08v.017h.08c.018.002.03.002.034.011zm3.76-5.4c-.075-.011-.234-.025-.275.048a.576.576 0 00.018.32c.043.055.175.044.268.037a.287.287 0 01.043 0 .16.16 0 01-.018-.041c0-.01 0-.018-.005-.027 0-.04.01-.08.03-.114l.006-.014h-.004c-.034-.1.078-.187-.063-.209zm-13.82-2.325c.066.034.316.036.348-.041.031-.078-.066-.335.062-.358a.15.15 0 00-.093-.016c-.095.069-.27-.046-.345.048-.053.061-.044.324.028.363v.004zm12.57 6.9a.12.12 0 00-.07-.032c-.075-.01-.225-.022-.274.042a.457.457 0 00-.012.325.136.136 0 00.105.038.976.976 0 01.14 0h.027c.023 0 .048-.004.071-.004a.274.274 0 00.025-.011l-.007-.084c-.007-.102-.005-.19-.005-.28v.006zm-1.178-.495a.044.044 0 00-.016.005h.016c-.126.004-.098.127-.096.218 0 .136-.011.177.13.181.075 0 .212.027.261-.05.05-.077 0-.184.013-.274a.075.075 0 01.012-.032c-.016-.018-.034-.053-.05-.053a.206.206 0 00-.037 0 .806.806 0 01-.233-.002v.007zm-9.332.005c-.066-.007-.239-.025-.28.033-.041.059-.02.236-.016.323a.11.11 0 00.023.011.048.048 0 00.016-.025c0 .007 0 .014-.005.02l-.007.01c.018.01.034.022.05.033a.793.793 0 01.232-.006c.12.006.091-.121.091-.205.002-.103.024-.183-.104-.195zm9.919-7.318h.095a.08.08 0 01.064-.038.245.245 0 00.009-.048.042.042 0 01-.011-.025 1.254 1.254 0 00-.023-.157c-.107.066-.168.018-.134.19a.313.313 0 01.003.078h-.003zm.066.454c.086.005.075-.19.075-.243 0-.022.009-.05.009-.075a.08.08 0 01-.064-.061h-.104a1.536 1.536 0 01-.239.322.416.416 0 010 .055c.103.016.23-.005.326.002h-.003zm.979 2.797a.53.53 0 00-.341-.005c-.08.066-.007.212-.055.3.032.02.064.044.095.064.015.01.03.019.044.03l.014.008.006-.006a.04.04 0 01.055 0c.062-.032.15.022.198-.046a.56.56 0 00-.013-.345h-.004zM4.928 16.18c-.068-.062-.229.006-.317-.036a1.81 1.81 0 00-.062.309c0 .037.003.074.011.11h.005c.106 0 .413.058.395-.11-.011-.08.032-.216-.031-.273zm13.609-.091c.061-.055.027-.234.027-.3 0-.111-.264-.102-.336-.07-.109.05-.038.22-.082.318.01.029.028.055.053.075.077-.003.272.034.338-.023zm.854-5.413c.06 0 .086-.075.093-.15.002.025.007.05.016.075l.003.007c.032.075.102.06.147.06.09 0 .213.023.243-.064.014-.1.017-.2.009-.3a.149.149 0 00-.044-.031.453.453 0 00-.136 0c-.057 0-.168-.007-.205.046a.225.225 0 00-.036.115.315.315 0 00-.025-.1c-.061-.106-.202-.006-.259-.08l-.04.017a.09.09 0 01-.09.07c-.004.048-.01.12-.01.182a.274.274 0 00.024.12c.05.066.242.032.31.032zM8.31 20.194c.09 0 .198.027.254-.041a.539.539 0 00.011-.327c-.029-.05-.272-.055-.327-.027-.09.045-.048.183-.07.277.011.052.08.09.123.113l.009.005zm7.665-2.204c-.061 0-.075.055-.075.116 0 .041.005.08.005.108v.063c0 .066.022.091.118.098.048 0 .2.027.245-.011l.011-.012a.525.525 0 00.043-.174c0-.064-.029-.123-.029-.182a.532.532 0 00-.09-.009l-.228.003zm-9.728-.465c-.066 0-.246-.034-.3.015-.042.036-.032.198-.025.273v.022a.711.711 0 00.115.088.087.087 0 01.048.007c.102-.037.219.041.232-.115.01-.075.044-.29-.07-.29zm12.3-2.12a.568.568 0 01-.01-.086 1.143 1.143 0 00-.288-.075h-.068a.635.635 0 00-.005.338c.027.064.075.068.141.075.066.007.19.025.232-.023.041-.047.009-.136.011-.204a.033.033 0 01-.011-.025h-.002zm-1.35 4.17c0-.063.022-.14 0-.183-.038-.066-.2-.06-.28-.055l-.005-.004c-.031.031-.054 0-.07-.01a.563.563 0 00-.034.341.091.091 0 00.038.062c.025.013.058.004.093.007a.259.259 0 01.06-.02.471.471 0 01.127-.012l.119-.055a.045.045 0 01-.03.005.12.12 0 00.03-.005.083.083 0 01-.043-.071h-.005zm-1.372-1.131l-.013-.005.011.004a1.492 1.492 0 00-.284-.012l-.11.236c.019.06.008.123.069.157.081.02.165.022.248.007.165-.032.074-.216.118-.345a.174.174 0 01-.018-.037l-.021-.005zm-9.045-4.35c-.011-.068 0-.194-.07-.194-.071 0-.226-.029-.285.005-.059.034-.043.128-.048.195-.004.068-.022.139.027.184a.44.44 0 00.207.05c.034-.044.071-.085.111-.123l.01-.009c.015-.034.028-.07.045-.104l.003-.004zm3.126 6.168a.489.489 0 00-.267-.012c-.075.016-.082.038-.089.118-.004.052-.027.216.014.256.04.04.218.025.275.025.023-.068.082-.088.128-.13a.043.043 0 01-.005-.015c-.019-.079.022-.2-.055-.244l-.001.002zm8.204-4.68c.022-.075.027-.27-.044-.314a.57.57 0 00-.32.005c-.048.041-.027.102-.023.159a.459.459 0 01-.007.122l.114.102.031.016c.102-.049.214.033.25-.092l-.002.002zm-12.811.584c-.177.015-.268-.034-.282.181-.005.057-.027.154.02.198a.088.088 0 00.075.018h.004a.119.119 0 01.089.014s.007.004.009.008c.046-.033.145-.118.159-.033a.047.047 0 010 .031c.063-.096.106-.435-.074-.419v.002zm12.413-5.13c.007.061.041.075.104.086.063.011.239.018.282-.034a.666.666 0 00.016-.261c-.005-.075-.023-.12-.111-.123-.06.018-.12.038-.177.061a.637.637 0 01-.12.055c.014.06.022.12.025.182a.03.03 0 01-.018.032l-.001.002zM7.8 18.89c-.093.032-.057.12-.068.2V19.14a.274.274 0 01.045.043l.007.01.125.092a.075.075 0 01.02-.009.111.111 0 01.03-.004.144.144 0 01.05.014.13.13 0 00.111-.032c.041-.046.011-.232.011-.291.004-.12-.256-.098-.331-.073zm1.143 1.35a.676.676 0 00-.243.01c-.089.041-.064.188-.06.282v.027c.132.042.266.076.4.104a.096.096 0 010-.024c0-.042.01-.084.007-.128-.008-.111.033-.249-.103-.271h-.001zm7.86-1.315c.01.13.041.259.094.38a.524.524 0 01.213-.019c.069 0 .082-.034.093-.093a.688.688 0 000-.254c-.044-.097-.317-.064-.398-.015h-.001zm-.779-.995a.545.545 0 01.162-.01.165.165 0 01.09.042c-.013-.12-.043-.239-.05-.36 0-.045.05-.254-.009-.274-.015-.005-.043.02-.075.06-.093.108-.225.335-.263.374.032.097.01.183.146.167zm4.275-5.807a.231.231 0 00-.066-.037H20.127l-.009.007a.383.383 0 01-.134.064.826.826 0 000 .186c0 .057-.009.113.046.145.06.02.124.025.186.014a.821.821 0 00.093-.016v.061c-.03 0-.069-.004-.109-.006a.354.354 0 00-.175.015c-.075.042-.034.133-.031.2.004.126-.005.15.048.173.022.01.055.02.104.036.055-.139.163-.254.163-.413a.123.123 0 00.018-.075c.02-.1.044-.2.069-.3a.21.21 0 01-.093-.055l-.003.001zm-2.741.866a.892.892 0 01-.191-.005 2.3 2.3 0 00-.075.322c.031.022.057.051.075.085.088.006.236.027.28-.042a.357.357 0 00.009-.15c.003-.086.027-.207-.095-.211h-.003zm-1.253 6.88v.011-.022c-.017-.082-.086-.067-.158-.067-.057 0-.18-.025-.225.025a.388.388 0 00-.005.32c.01.03.03.055.057.07v.005c.113-.055.241-.111.364-.157a.102.102 0 01-.038-.084c-.003-.028.007-.069.005-.102zm1.263-2.794a.583.583 0 01-.25-.02c-.023.15-.023.304 0 .454.011-.108.28.02.336-.084a.647.647 0 00.014-.247c-.005-.073-.011-.113-.1-.104v.001zm.086-5.409c.007-.041-.381-.09-.413.057.04.116.101.223.18.318.029-.011.056-.02.085-.029a.035.035 0 01.041.016.115.115 0 00.093-.028c.06-.066 0-.257.014-.335v.001zm1.05 3.14c-.134.037-.024.134-.08.214l.021.024a.498.498 0 01.105.038.154.154 0 01.088.12c.06 0 .135.018.17-.029a.665.665 0 00-.008-.34c-.044-.058-.233-.046-.299-.028h.003zM7.026 16.698a1.176 1.176 0 01-.2.009.93.93 0 000 .225c.018.088.084.08.163.082.113.004.245.022.257-.128-.04-.075-.098-.139-.135-.216a.378.378 0 01-.085.028zm-.473-1.007a2.516 2.516 0 00-.195.33c.025.088.089.088.166.088.077 0 .203.03.245-.043a.658.658 0 000-.305c-.04-.09-.14-.024-.216-.07zm1.35 1.645c.01.006.018.015.023.025.004.02-.016.037-.044.048-.048.018-.095-.02-.138-.027h-.007.009c0 .104.247.127.322.09.062-.029.069-.099.066-.165a.075.075 0 01-.066-.086.15.15 0 010-.032 2.43 2.43 0 01-.347-.352c.023.181-.004.378.182.5zm9.665.177a.941.941 0 01-.252.007v.1c-.005.1.002.2.02.3.114 0 .3.054.325-.091.007-.047.01-.095.011-.143 0-.084-.022-.173-.105-.173h.001zm.016 1.316c.097-.037.075-.109.075-.205 0-.075.037-.193-.075-.193a.44.44 0 01-.195-.018c.011.082.02.164.031.259a3.293 3.293 0 00-.095-.09l-.064-.062v.029c-.006.08-.029.23.027.268a.72.72 0 00.296.012zm-.048-2.201c-.057-.023-.126.02-.168-.044-.042.146-.06.298-.053.45.146-.068.334.062.343-.15 0-.03.011-.095.011-.15a.157.157 0 00-.011-.075c-.025-.043-.074-.031-.122-.031zm-11.57-1.364c-.069.041-.046.157-.044.225 0 .186.084.159.247.159h.01c.054-.12.094-.246.117-.375a.563.563 0 00-.33-.009zM19.8 13.486a.422.422 0 01-.05 0h-.007c.014 0 .028 0 .041-.005a.263.263 0 00-.043 0 .04.04 0 01-.038-.039v-.009c-.105-.009-.214-.004-.221.109v.075a.4.4 0 00.032.184.1.1 0 00.059.041.033.033 0 01.013-.01.032.032 0 01.016-.001h.128c-.012-.023-.034-.02-.06-.025.027.005.057 0 .068.025h.023c.056-.107.107-.217.15-.33a.816.816 0 01-.102-.015H19.8zM9.577 18.418h-.009c-.024.093-.075.393.053.409a.77.77 0 00.28 0c.088-.037.024-.094.068-.155a1.099 1.099 0 00-.392-.254zm9.098-7.611a.353.353 0 01.05-.069.526.526 0 00-.084.007.125.125 0 00-.018.084c.021-.024.014-.029.052-.022zm-.023-.15l.01.007c.043 0 .086-.005.13-.005h.215a.632.632 0 00.018-.261h-.095v-.075a.686.686 0 00-.116.048c0 .005-.009.007-.013.011a.55.55 0 01-.188.123v.109l.006.004a.17.17 0 00.03.041l.003-.002zm.107.461c.093 0 .236.034.261-.08a.923.923 0 00-.016-.209.241.241 0 00-.004-.086c-.037 0-.075 0-.109-.005l-.038.023a.046.046 0 00.02-.022h-.146c-.015.022-.043.043-.052.068-.032-.01-.027 0-.053.022.002.152-.048.287.134.291l.003-.002zm-2.325 7.695h.009a.617.617 0 01.084 0 5.348 5.348 0 00-.15-.397.504.504 0 00-.025.12.459.459 0 00.01.212c.013.03.037.054.068.067l.004-.002zm.075.075c-.023 0-.046 0-.068.004a.054.054 0 01-.016-.004.075.075 0 00-.05.025c-.044.052-.014.202-.012.26.001.02.003.038.007.056a.105.105 0 01.03.04c.039.015.081.02.123.014.075 0 .168.018.229-.029a.107.107 0 00.023-.023l-.214-.345a.41.41 0 00-.061.002h.009zm-9.722-7.139c-.143-.022-.288-.043-.425-.066-.136-.022-.295-.035-.431-.054a1.2 1.2 0 000 .3c.004.125.075.097.188.093.075 0 .168.022.198-.064s-.022-.17.038-.261c.071.159-.063.325.168.327.057 0 .177.025.225-.011.048-.036.037-.207.044-.261v-.007l-.005.005zm-1.974 4.358c.173.016.15-.127.15-.27-.004-.163-.138-.125-.272-.127-.037.13-.062.264-.075.4.065.002.131-.01.197-.003zm1.77 1.86H6.58c-.166 0-.173.008-.216.15a.079.079 0 000 .023c.113.084.225.17.364.255l.006-.01a.356.356 0 00.057-.225.401.401 0 00-.015-.13c-.035-.078-.11-.062-.192-.062zm.55-4.574c.007-.05.01-.102.011-.155-.013-.082-.029-.165-.043-.247h-.182c-.06 0-.075.029-.088.075-.01.083-.01.167 0 .25.031.109.193.08.302.074v.003zm8.625 6.402h-.186a.04.04 0 01-.029.013h-.06c.023.124.06.245.112.36l.075.015c.052-.02.145.037.172-.075V20.1a.643.643 0 00.014-.13c.004-.087-.02-.18-.1-.177l.002.003zm1.82-1.813h-.243c.018.139.036.277.057.418.095-.044.234.031.268-.093.019-.082.04-.33-.083-.328v.003zm.075-1.688c-.001-.015 0-.03.004-.044a.038.038 0 00-.046-.043h-.015a.307.307 0 00-.2.211l-.005.014-.02.14c.075-.004.216.021.277-.043a.912.912 0 01-.006-.174c0-.02.005-.043.01-.064v.003zm1.181-1.034l-.005.007c.04.048.177.195.091.207-.025 0-.095-.05-.118-.06a1.047 1.047 0 00-.18-.063v.009c0 .01.002.018.005.027a.037.037 0 01-.009.031c-.007.082-.011.189.048.226a.478.478 0 00.318-.007c.061-.048.05-.239.034-.307-.021-.095-.099-.075-.185-.073l.001.003zm-14.109-.005a.497.497 0 01-.06.132l.021.245v.025c.154 0 .268.036.272-.143 0-.07.027-.2-.031-.248-.059-.047-.136-.002-.202-.011zm2.651 1.81l-.015-.012c-.086.048-.132.336-.046.404.034.027.119.014.16.014.097 0 .211.015.229-.11a3.093 3.093 0 01-.328-.296zm2.797 1.806l-.007-.004c-.043.027-.102.005-.134.046-.032.041-.02.163-.023.213-.008.164.053.137.141.155a.03.03 0 01.027.005c.02.008.04.013.062.015h.013a.39.39 0 00.075-.209.344.344 0 00-.154-.22zm10.085-7.628a.033.033 0 01-.01.01.031.031 0 01-.013.004h-.009c-.039.004-.113-.007-.145.02-.033.027-.027.082-.034.116l-.014.061-.007.03c.08.028.205.081.25.047.023-.016.034-.136.04-.165a.55.55 0 00.006-.085.283.283 0 01-.025-.095h-.011a.04.04 0 010 .036.04.04 0 01-.029.021zM9.444 18.825c.06-.082.069-.293-.036-.32a.155.155 0 01-.045.015l-.07.007a.427.427 0 01-.076 0 3.289 3.289 0 01-.104.141.098.098 0 01-.03.114.08.08 0 01-.03.045v.005h.004c.108.03.338.058.387-.007zm8.136-6.289a.043.043 0 01-.02.01.534.534 0 01-.06.004.08.08 0 01-.061.045l-.007.018v.005c-.002.11-.019.218-.05.322.102-.004.234.03.268-.074.023-.078.044-.33-.07-.333v.003zm.075-.207c0-.05.024-.175-.011-.218a.133.133 0 00-.102-.03.038.038 0 01-.016.01.41.41 0 00-.057.018.345.345 0 01.037.357v.009a.455.455 0 00.054-.005h.007c.005 0 .01.002.014.005.054-.025.072-.047.072-.148l.002.002zm2.271-1.068c0-.075-.086-.09-.168-.09-.043 0-.086.004-.117.006-.107.007-.137.111-.121.212a.287.287 0 00.031.1c.12-.116.255-.05.396-.023a.3.3 0 01-.014-.041.793.793 0 01-.008-.166l.002.002zM17.1 18.38a.382.382 0 01.05 0 1.39 1.39 0 01-.172-.418.126.126 0 00-.05.023l-.012.006a.043.043 0 01-.046-.009c-.059.011-.075.089-.075.168.004.053.01.105.02.157.023.105.173.082.285.073zm.366-4.521c.057-.036.12.009.17-.044.05-.052.018-.216.023-.282.007-.125-.166-.075-.264-.075v.025c0 .02-.006.04-.02.055.029.113.056.212.088.32h.003zm1.104 2.41a.027.027 0 010-.018c.005-.139-.24-.086-.327-.084.063.128.118.26.164.395H18.389c.054 0 .131.016.168-.031.036-.047.012-.187.01-.262h.003zM6.949 12.533c-.157-.013-.12.166-.118.27 0 .193.136.086.268.15l-.089-.472a.053.053 0 01-.038.051.053.053 0 01-.023.001zm8.856 5.828c.052-.041.034-.13.034-.189h.004c0-.09 0-.14-.034-.168-.006-.004-.011-.013-.02-.013h-.104a6.43 6.43 0 00-.128.384c.061 0 .193.027.248-.014zm-7.223 1.964c0 .019.005.04 0 0 0-.022 0-.014 0 0-.012-.101-.161-.09-.268-.081a.041.041 0 01-.05.014c-.007-.008-.014-.008-.014-.008a1.232 1.232 0 000 .143.125.125 0 00.055.087c.099.039.203.064.309.075a.568.568 0 01-.031-.23zm-1.73-3.797c.05.003.1 0 .15-.007a.213.213 0 00.07-.03 3.046 3.046 0 00-.044-.256.301.301 0 01-.059-.077c-.053.009-.111.014-.137.061a.612.612 0 00-.004.241c.002.024.01.048.023.068zm10.731 2.81c-.068.005-.24-.034-.3.016-.03.024-.034.12-.032.198 0 .039.005.075.005.093l.355-.16a.182.182 0 01.046-.09l-.01-.023a.065.065 0 00-.063-.035l-.001.001zm2.432-8.238a.183.183 0 00.117.03.028.028 0 01.018-.014.204.204 0 01.046-.014h.013a.257.257 0 01-.04-.15.213.213 0 01.05-.188.326.326 0 01.01-.036.93.93 0 00-.113-.005.199.199 0 00-.054.007c-.091.025-.08.075-.08.162 0 .058-.02.158.033.208zm-13.15.9a.195.195 0 00.063 0h.014a1.11 1.11 0 00-.036-.134.268.268 0 00-.044-.082.233.233 0 00-.033-.016c.002.049 0 .097-.005.146a.21.21 0 00.04.086zm-.034.3a.459.459 0 000 .054v-.036c0 .163.007.164.18.164 0-.007 0-.018-.005-.03-.009-.075-.024-.234-.05-.382a.028.028 0 01-.013 0 .304.304 0 01-.064.007c-.014.02-.038.039-.048.064a.502.502 0 000 .155v.004zm-.456 2.325l-.004.004c0 .063.019.098.063.114a.22.22 0 01.018-.066v-.014a.968.968 0 01.119-.265c-.075.013-.15.004-.15.125 0-.009.004-.02.004-.027 0-.007 0 .01.004.022h-.005a.336.336 0 00.018.135c-.004-.007-.009-.011-.01-.016a.342.342 0 01-.012-.166c.025-.075.09-.066.15-.082a.318.318 0 01.025-.033.693.693 0 00-.195.009.063.063 0 00-.025.035.624.624 0 000 .225zm.589 3.81c-.044 0-.089-.007-.123.03 0 0-.005.006-.01.008.12.101.246.196.376.285a.14.14 0 01.027.01v-.004c0-.041.006-.095.006-.145a.24.24 0 00-.027-.134c-.055-.074-.18-.054-.252-.054l.003.004zm-.075-4.55v-.01c.057-.136.135-.263.231-.375 0-.007 0-.016.005-.023.004-.006 0-.015.004-.024a.744.744 0 00-.213.009c-.137.034-.098.316-.034.409l.007.014zM9.023 18.9a5.503 5.503 0 01-.347.38c.088 0 .289.04.352-.032.048-.057.02-.24.013-.338-.007 0-.011-.004-.018-.01zm8.713-2.67v.007c0 .036-.014.075-.018.11a.762.762 0 00.005.162.083.083 0 00.084.052h.268a1.432 1.432 0 00-.339-.331zm-.927 1.656a.069.069 0 00.027.03.1.1 0 00.034.01l.018-.013a.275.275 0 01.036-.018.201.201 0 01-.062-.075.168.168 0 01-.013-.068.15.15 0 00.013.064c.015.031.037.06.064.081a.172.172 0 01.032-.009 2.833 2.833 0 01-.064-.706c-.007 0-.016.007-.023.007l-.057.315-.027.139v.075c0-.013.003-.026.007-.039.064.041-.02.146.015.207zm-.12 1.914h-.012c-.084-.007-.252-.048-.314.041-.017.035-.024.075-.017.113a.74.74 0 01.006.096l.4-.177c-.018-.029-.027-.063-.064-.073zm.967-5.732c0-.158-.043-.143-.177-.187.04.126.066.256.075.388a.435.435 0 00.018.156.089.089 0 00.059.05.12.12 0 000-.028c0-.012.005-.02.007-.03a.167.167 0 01-.03-.125c.01-.037.044-.057.053-.095a.59.59 0 00-.005-.128zm-10.7 1.623a.178.178 0 00-.131.209c0 .139.027.193.132.207a.156.156 0 01.039-.127 10.582 10.582 0 01-.04-.289zm13.125-5.034h.084c.03.002.06.01.088.02l.02-.033a2.181 2.181 0 00-.29-.336c.005.02.009.04.008.06 0 .052-.013.106-.013.15h-.005c-.002.125.044.139.105.139h.003zm-14.315 6.9a1.5 1.5 0 01-.175-.008.497.497 0 01.109.174c.052.039.104.075.154.107a.21.21 0 01.01.048c0-.023 0-.06.004-.098.009-.106.004-.223-.105-.221l.003-.002zm-.389-.958a2.726 2.726 0 00-.159.418c.044 0 .14.011.173-.018.034-.03.022-.121.022-.188-.002-.064.018-.17-.039-.211l.003-.001zm1.59-1.355h-.016c-.038.015-.084.007-.109.05-.025.043 0 .139-.004.186 0 .123-.01.15.113.193-.027-.06-.075-.1-.075-.17 0 .066.048.11.075.165a3.83 3.83 0 01.016-.424zM4.58 16.619h-.004c.009.054.177.15.295.177a.218.218 0 00.068-.09.177.177 0 00.019-.03c-.037-.105-.287-.057-.378-.057zm15.024-2.72h-.012c-.04.014-.061.048-.063.132v.075c-.001.08.005.158.018.236.059-.15.118-.289.179-.45l-.122.007zM5.306 17.07c-.036 0-.075 0-.095-.037a.097.097 0 00-.009.084c.01.038.026.075.048.107.025.027.05.058.075.087l.031.034c.018.018.036.033.055.05.01-.111.05-.338-.105-.325zM9.75 20.7h-.005.005-.032a.18.18 0 00-.2.1l-.007.015c.046.023.186.102.243.08.057-.023.071-.157.082-.21H9.83a.262.262 0 01-.079.015zm-1.5-3.232c.08.02.163.021.243.004l-.014-.02-.039-.005h.037a.421.421 0 01-.034-.061l-.213-.109a.07.07 0 01-.025.02.218.218 0 00.214.143.23.23 0 01-.22-.138.034.034 0 01-.017.004c-.002.066.005.132.068.16v.002zm.422.88c.017.03.047.045.06.076h-.005c-.089.024-.068.082-.068.163a.942.942 0 00-.014.17.079.079 0 00.053.075.155.155 0 00.009-.059c.009-.075.018-.198.024-.275v-.065a.055.055 0 00.009-.04v-.017c.009-.067.013-.135.013-.203 0-.041 0-.084-.004-.125a.084.084 0 01-.064-.06.094.094 0 00-.046.064.115.115 0 00-.004.03V18.199a.28.28 0 00.036.148l.001.002zm9.713-7.678h.012-.011c.095-.004.131-.022.154-.066v-.07c-.05.011-.1.018-.15.022l-.111.042a2.431 2.431 0 00-.13.052l-.004.007a.808.808 0 00.234.02l.006-.007zm.016 6.025a.83.83 0 01.091.382.314.314 0 00.064-.291c-.016-.086-.07-.09-.155-.09v-.001zM4.633 11.499v.015c.015.075.136.064.198.062.083 0 .126-.07.2-.075a.075.075 0 00.075.075c.104.004.209-.003.311-.02a1.955 1.955 0 00-.383-.054c-.131-.039-.27-.037-.404-.069a.105.105 0 01.003.066zm12.932 3.758h-.214l.3.232v-.046a.04.04 0 01.012-.029c.003-.08-.002-.161-.098-.157zm-9.998 3.66a.615.615 0 01-.144-.011h-.006l.02.032.004.009c.05.05.102.098.157.143a.444.444 0 01.055.011.11.11 0 000-.027v-.005a.042.042 0 01.03-.036c-.009-.07-.033-.127-.116-.116zm12.133-8.7a1.24 1.24 0 01.162 0h.024a.33.33 0 00-.15-.123.262.262 0 00-.232.048.193.193 0 00.197.072v.003zM6.575 15.661c.12 0 .198.02.2-.119v-.184a.038.038 0 01-.018.007H6.75c-.06.092-.122.19-.176.292l.001.004zm11.598 1.113a.294.294 0 000 .177.15.15 0 00.102.057l.075.013a1.067 1.067 0 00-.161-.311.401.401 0 01-.017.06l.001.004zM18.164 19v.163c0 .025 0 .05.005.075l.041-.041a.24.24 0 01.025-.02.205.205 0 01-.005-.041c0-.091.023-.219.025-.266a.15.15 0 00-.092.127l.001.003zm1.815-5.914c0 .014-.004.027-.004.046 0 .016 0 .011 0 0v.154c.053-.092.1-.189.138-.288a.24.24 0 00-.106.013c-.02.007-.027.027-.03.072l.002.003zM9.387 20.7h.007-.007c-.05 0-.1.005-.15.005h-.05c.1.043.203.08.309.108v-.038c0-.058-.039-.081-.109-.075zm9.04-5.898h-.06c.061.06.129.115.2.161.02-.132-.002-.16-.141-.16v-.001zM6.202 18.019H6.19a.075.075 0 01-.029-.011l.02.022a.615.615 0 00.132.113.366.366 0 00-.005-.057c-.004-.046-.031-.064-.106-.066v-.001zm3.928.813a.45.45 0 00-.069-.075.095.095 0 01-.052-.046l-.007-.005c.005.119.007.123.127.127v-.001zm-1.74.904c.176 0 .19-.038.2-.211v-.032c0-.138-.044-.143-.198-.143-.155 0-.2.005-.205.163v.048a.284.284 0 00.016.121.09.09 0 00.075.05.742.742 0 00.11.005h.001zm-1.809-7.2h-.025c-.146 0-.17.032-.17.195v.01H6.38c0 .158.022.195.198.197.175.002.196-.022.205-.198.009-.175-.034-.202-.203-.204zm-.198 4.789c0 .086-.007.123.084.141.073.01.148.01.22 0 .116-.018.087-.109.087-.212 0-.127 0-.181-.137-.186-.059 0-.188-.024-.238.02-.05.046-.018.178-.016.237zm-.265-.7c-.17 0-.186.018-.186.189 0 .127-.01.188.127.2.064.004.182.022.232-.011.05-.034.038-.137.043-.193v-.025c-.003-.14-.066-.157-.216-.157v-.003zm3.246 2.713c-.054 0-.195-.025-.238.014-.06.052-.023.188-.027.254-.009.154.106.132.23.13.106 0 .158-.005.167-.12.011-.136.033-.276-.132-.276v-.002zm-3.897-6.569c.005.182.089.168.252.166.13 0 .144-.043.144-.136v-.01-.074c0-.177-.025-.177-.198-.177-.173 0-.198.039-.198.184v.048zm.203 2.89c.166.011.195-.013.195-.179v-.03c0-.15-.018-.186-.193-.186-.175 0-.19.023-.196.19a.447.447 0 000 .055c.003.125.037.139.194.15zm3.375 3.883c0-.13.004-.203-.137-.205-.063 0-.174-.018-.225.02a.133.133 0 00-.033.105v.12c0 .126.033.15.153.15h.042c.171.008.196-.015.196-.19h.004zm-2.67-5.852c.004.17.086.154.243.15.157-.005.157-.027.157-.175 0-.181 0-.232-.196-.225-.196.007-.21.06-.204.25zm-.507 2.21c-.016-.164-.036-.188-.203-.188-.166 0-.198.024-.198.198 0 .157.029.188.168.198h.037c.182.001.212-.028.196-.208zm.247-2.954c.18 0 .205-.027.205-.204 0-.178-.031-.205-.214-.205-.17 0-.183.043-.183.207-.003.18.008.203.192.203zm3.19 6.339c.168 0 .19-.03.19-.195 0-.15 0-.203-.16-.205h-.069c-.136 0-.177.02-.177.193h.005c0 .183.029.207.211.207zm-3.185-7.2c-.184 0-.193.052-.2.225v.015c0 .162.075.157.231.16.157.002.168-.055.168-.182v-.057c0-.164-.038-.162-.199-.162zm3.819 6.836c-.034-.052-.113-.03-.166-.027-.175.005-.252-.03-.252.173 0 .183.034.22.22.22h.03c.136 0 .17-.007.172-.163 0-.03.01-.087.01-.133a.156.156 0 00-.014-.072v.002zm-1.35.118v.05c0-.177-.025-.211-.203-.211-.177 0-.198.029-.198.199 0 .15.01.202.164.205h.05c.15 0 .188-.02.188-.195l-.001-.049zm-1.556-1.512c-.177 0-.202.022-.202.2 0 .193.043.2.232.198.156 0 .165-.053.165-.2 0-.168-.028-.198-.195-.198zm.455.45h-.069c-.104 0-.132.024-.134.159-.005.184-.012.247.188.25.048 0 .15.02.188-.027.038-.048.011-.173.016-.226.02-.17-.027-.152-.19-.154l.001-.002zm-1.863-3.228h.104c.111 0 .139-.02.139-.166 0-.184-.036-.239-.225-.236-.173 0-.17.052-.17.207-.003.165.009.19.152.195zm.96 2.787c-.176 0-.204.02-.21.195v.027c0 .155.04.169.213.166.172-.002.184-.041.186-.207v-.024c0-.143-.024-.18-.188-.157zm.136-.886a.335.335 0 00-.145-.018c-.15 0-.207 0-.203.166.005.166.018.225.198.225.18 0 .207-.03.203-.212v-.029a.32.32 0 00-.013-.087.075.075 0 01-.04-.045zm-.346-4.455a.675.675 0 00.009.243c.043.075.205.055.286.043.132-.015.111-.127.11-.238-.008-.164-.056-.166-.212-.15-.114.007-.178-.048-.193.102zm1.5 5.73c.141.006.25.024.259-.135.011-.177.011-.245-.173-.261-.14-.011-.216-.027-.225.13-.011.143-.026.256.139.266zM6.63 16.162h-.063c-.19 0-.21.1-.19.278.013.15.118.123.247.12.057 0 .106.009.141-.038a.477.477 0 00.018-.226c-.009-.12-.063-.133-.155-.133h.002zm1.665 1.36c-.128 0-.1.076-.1.173 0 .084-.036.188.06.225.092.02.187.02.28 0 .079-.031.054-.115.045-.19a.893.893 0 00.009-.132c-.016-.022-.034-.043-.053-.066a.84.84 0 00-.242-.009h.001zm.923 2.727c-.15.014-.132.137-.123.268.011.15.109.134.241.132.172-.005.172-.066.154-.225-.019-.188-.092-.197-.272-.175zm-2.641-7.26c-.164 0-.194.027-.203.19v.06c0 .127.036.15.195.15.177 0 .203-.023.203-.2 0-.172-.022-.2-.195-.2zm-.905 1.304c.17 0 .195-.029.195-.198 0-.179-.004-.2-.188-.2s-.203.022-.205.2c-.002.178.028.198.198.198zM8.4 17.99c-.057 0-.137-.015-.177.032a.464.464 0 00-.034.202c-.013.194.1.15.261.15.146-.004.139-.02.139-.163 0-.177-.002-.22-.189-.22zm-3.225-1.885c.03 0 .06.004.086.004.082 0 .146-.011.155-.118.013-.146.031-.278-.132-.28h-.027c-.027 0-.08-.005-.126-.005a.155.155 0 00-.09.019c-.04.036-.022.123-.019.174h-.004c0 .16.002.201.157.206zm.145-1.756c-.07 0-.195-.025-.258.009s-.037.139-.037.205c0 .159-.005.183.166.186.086 0 .179.02.216-.07.036-.091.05-.335-.089-.33h.002zm4.599 5.468v-.004a.162.162 0 00-.093-.027c-.02 0-.044.004-.075.004-.064.007-.166-.022-.198.057a.975.975 0 000 .216c-.007.13.059.132.172.13a.368.368 0 00.19-.03.824.824 0 01-.004-.129c-.002-.073.002-.144.005-.217h.003zM7.04 17.073c-.186 0-.2.043-.211.225-.01.159.043.17.192.17.15 0 .203-.011.205-.168.002-.178 0-.227-.186-.227zm-1.365.398c.168 0 .177-.046.19-.21.014-.163-.017-.19-.188-.19-.198 0-.211.054-.209.245.002.166.047.159.206.155h.001zm.647-3.924c0-.057-.02-.1-.097-.1-.102 0-.263-.059-.3.062a.209.209 0 000 .066c0 .048.007.1.007.132 0 .011-.005.02-.005.03a.106.106 0 00.025.085.51.51 0 00.309.014.094.094 0 00.064-.1c0-.025-.007-.055-.01-.086.002-.035.007-.069.007-.104v.001zm-.663-1.066H5.7c.154 0 .166-.02.166-.194 0-.187-.048-.203-.232-.205-.157 0-.166.05-.166.2.002.168.027.197.19.2h.001zm.186 3.696c-.048-.038-.159-.01-.213-.008-.157.008-.17.017-.162.172 0 .043-.015.172.023.207s.125.014.17.014h.057c.141-.007.16-.05.15-.221 0-.04.014-.132-.025-.164zm-.375-2.964c.005.048.016.136.057.168.042.031.121 0 .173.009.007 0 .016.004.022.004h.007a.032.032 0 01.014-.014.032.032 0 01.02-.004h.075v-.004a.947.947 0 00.043-.15.332.332 0 00-.024-.182c-.05-.093-.177-.068-.27-.052-.122.022-.13.106-.12.225h.003zm.066.627c.075.022.287.031.327-.046a.385.385 0 00.023-.15.322.322 0 00-.046-.2h-.075a.034.034 0 01-.022-.007c-.091-.007-.225-.025-.266.057a.294.294 0 00-.02.12c-.005.098.018.205.076.226h.003zm1.95 3.684c-.093 0-.174-.018-.202.084a.439.439 0 00.031.291c.048.049.212.037.276.027.11-.015.097-.097.088-.197.015-.236-.003-.202-.196-.204h.003zm.45 1.3c.168 0 .205-.016.207-.188.003-.172-.015-.203-.183-.205-.168-.002-.214.005-.216.18-.003.174.003.214.186.214h.006zM5.947 13.91a.476.476 0 00-.059.28c.01.116.02.116.134.116v-.012h.17c.091 0 .103-.08.103-.15 0-.052.039-.198-.007-.234a.546.546 0 00-.34 0zm-.079 1.062c0-.089.03-.173-.09-.168-.173.006-.292-.046-.3.163-.01.172-.008.232.176.236.048 0 .155.02.194-.018.039-.038.02-.16.02-.213zm2.556 3.871c.154-.005.166-.064.166-.188V18.6c0-.164-.037-.168-.198-.168-.186 0-.18.032-.189.2 0 .034-.01.075-.013.111a.095.095 0 00.027.082c.04.038.157.02.206.017l.001.001zm-2.29-1.773c-.128 0-.219-.014-.21.132 0 .037.018.075.018.111 0 .023-.018.07-.011.09.03.094.186.069.27.065.15-.005.118-.082.123-.21.007-.17-.016-.188-.19-.188zm-1.007-3.23c.093.007.259.037.286-.075.01-.073.012-.147.007-.22 0-.058.011-.098-.061-.1a.985.985 0 01-.2 0c-.13-.023-.144.04-.14.15.005.108-.038.236.108.245zm4.23 5.954c-.057 0-.177-.025-.225.009-.075.052-.025.157-.03.232 0 .027-.004.043-.004.052a.348.348 0 00.004-.034c-.008.17.097.145.262.137.15-.009.123-.055.127-.19.005-.136.007-.2-.134-.206zM5.299 12.99a1.623 1.623 0 00-.209 0c-.1.02-.082.13-.075.21.007.154-.004.176.15.179.107 0 .216.054.248-.071.023-.108.034-.333-.114-.318zm-.293-1.136a.78.78 0 00.005.086c.011.084.057.098.13.098h.034c.2 0 .234-.005.234-.212 0-.082 0-.146-.084-.175-.064-.022-.225-.061-.28 0a.39.39 0 00-.039.204v-.001zm.386.956h.018c0-.09.025-.207-.07-.239-.068-.024-.291-.04-.316.03a.774.774 0 00-.009.179.342.342 0 000 .119c.03.061.082.068.15.066v-.005c.173-.006.227.055.227-.15zm-.32 2.835c.102.03.21.03.311 0 .066-.05.03-.247.027-.32 0-.093-.14-.06-.207-.064-.054 0-.14-.022-.179.03-.038.051-.022.319.048.355v-.001zM4.597 12a.156.156 0 00.091.023c.06.004.188.027.236-.012.048-.038.034-.15.034-.213 0-.064.018-.135-.046-.168a.907.907 0 00-.313-.005.127.127 0 00-.02.07.696.696 0 01-.014.168c.01.048.026.094.032.137zm3.537 6.104c0-.13-.054-.14-.195-.14-.141 0-.207.015-.207.15v.036c.009.175.022.22.2.225.048 0 .15.018.181-.023a.175.175 0 00.018-.102v-.108c.002-.01.004-.026.004-.035v-.003zm-1.815-3.51c.005-.15.016-.24-.15-.245-.138-.005-.225-.039-.238.111-.018.177-.032.252.157.277.159.02.225.038.231-.14v-.003zm-1.092.214c-.205 0-.186.048-.2.225a.512.512 0 00-.005.057c0 .119.052.127.207.125.154-.002.188-.027.186-.156v-.023c-.009-.17-.018-.225-.198-.225h.009v-.003zm.34 2.206c.091 0 .214.024.254-.062a.439.439 0 00.037-.214c-.031-.136-.161-.13-.275-.125-.15.005-.143.193-.141.3.003.121.033.103.126.103v-.002zm-.513-2.689c.107.027.22.016.318-.034.075-.061.093-.397-.046-.39a.713.713 0 00-.277.047c-.055.037-.034.162-.034.23.001.064-.02.11.04.147zm1.2-1.324c-.064-.023-.275-.025-.313.036a.585.585 0 00-.016.238c0 .064.009.118.086.118.087.01.175.009.261-.006.06-.034.048-.132.05-.205.003-.073.012-.155-.07-.185l.002.004zm.07 1.982c0-.115-.017-.172-.163-.177-.123 0-.25-.022-.25.128.023.161.027.266.198.272l-.006-.004h.013c.036 0 .068.004.095 0a.113.113 0 00.082-.03.2.2 0 00.034-.132c-.003-.023-.005-.04-.005-.06l.003.003zm2.582 4.812H8.89c-.15.006-.214 0-.23.161-.011.132-.036.245.125.24.123 0 .243.01.26-.129.016-.16.02-.276-.141-.275l.002.003zm-2.073-1.609c.014.163.06.181.22.19.15.007.189-.036.178-.183-.016-.173-.039-.216-.214-.214-.176.002-.197.039-.184.207zm-2.086-5.719c.05.022.107.026.16.011.074-.036.09-.39 0-.39a.674.674 0 00-.294.018c.03.052.06.104.089.159.048.055-.012.155.045.202zm.089 1.429c-.157 0-.13.088-.13.225 0 .136.01.202.166.175.123-.02.088-.141.086-.248-.002-.106-.008-.151-.122-.151v-.001zm.041.454l-.037-.005h-.01.008c-.06-.007-.104 0-.127.075-.022.075-.031.273.025.32a.144.144 0 00.225-.081c.014-.097.038-.288-.086-.308h.002zm-.055.853c.184 0 .14-.159.137-.304 0-.089-.159-.141-.225-.084-.038.031-.036.113-.032.179a.288.288 0 01.036.195.189.189 0 00.084.014zm.137-1.674c0-.084-.102-.1-.168-.07-.066.029-.057.1-.086.165v.069c.006.115.018.157.143.15.166-.01.109-.182.111-.315v.001zm-.2-.565a.254.254 0 00.159 0c.033-.02.054-.111.054-.203 0-.091-.018-.17-.061-.183.007 0 .007.004 0 .004v-.011a.232.232 0 00-.033-.007H4.87h.007c-.133-.018-.15.12-.15.246-.002.069-.022.118.032.153zm.106.024c-.084 0-.127 0-.14.089-.012.08-.038.275.054.311a.133.133 0 00.155-.041.133.133 0 00.024-.052c.019-.095.044-.305-.092-.307zm1.068 3.547c.044.054.289.05.336.024.098-.052.055-.325.03-.413l-.18.352-.02-.006v-.02c.011-.23.025-.46.036-.691l.02-.07-.009.006c-.011.007-.027.011-.034.016.005 0-.018-.011-.018-.02-.036 0-.118-.005-.186-.005v.009c0 .007.007.009-.01.013a.567.567 0 00.008.325c.032.066.128.05.194.05-.01.091-.075.037-.123.053-.075.025-.014.011-.025.061-.017.07-.077.245-.019.316zM17.938 12a.04.04 0 01.036.025.168.168 0 00.048 0c.082-.014.086-.039.088-.12.01-.07.01-.14 0-.21-.024-.075-.068-.056-.14-.056-.128 0-.246-.055-.25.104 0 .082-.025.195.022.263a3.16 3.16 0 01.196-.006zm.145.09c-.015-.013-.12 0-.17-.013-.053 0-.107 0-.159.005a.16.16 0 00-.034.165c.023.12-.052.221.111.232.114.007.259.042.282-.088.01-.057.027-.255-.03-.298v-.002zm1.293 1.805c-.031 0-.064.004-.086.004-.023 0-.064-.007-.1-.007a.134.134 0 00-.093.025c-.046.046-.02.177-.02.234-.009.034-.018.046-.025.046-.018 0-.031-.086-.031-.12 0-.128 0-.173-.137-.177-.029 0-.061-.005-.095-.005-.075 0-.143.014-.166.087-.022.072-.013.265.053.309.13.079.331-.062.475.006a.81.81 0 00.277-.004c.06-.032.05-.084.052-.15 0-.053.032-.168 0-.214a.126.126 0 00-.104-.032v-.002zm-.306-2.45a.26.26 0 010-.034c0 .012.004.024.011.035 0 .068-.008.109.058.127a.291.291 0 00.081.007.9.9 0 00.155-.016.127.127 0 00.095-.102h-.007a1.458 1.458 0 000-.204.097.097 0 00-.03-.072.095.095 0 00-.074-.026c-.05.003-.1.01-.15.018-.123.02-.125.084-.15.18.004.03.01.06.01.09v-.002zm-.248 4.663c.166 0 .195-.025.195-.19 0-.178-.023-.208-.203-.208-.18 0-.195.038-.195.184v.053c.003.153.056.162.206.162l-.003-.001zm-.424-4.48c-.14 0-.226-.027-.232.13 0 .036-.005.07-.005.102 0 .1.02.175.15.172.15 0 .248 0 .252-.163v-.086c.004-.106-.018-.153-.166-.153v-.002zm.352 3.125a.508.508 0 00.234-.018c.07-.048.036-.132.041-.2v-.051c0-.092-.026-.134-.141-.134-.1 0-.23-.023-.26.09-.034.131-.03.298.126.313zm-.936-3.183v.005c.09 0 .272.036.275-.089 0 .007.016.005.016 0 0-.004.014-.029.011-.043-.004-.057.03-.218-.036-.245a.35.35 0 00-.3-.016h.017a.162.162 0 00-.04.011l-.011.007a.1.1 0 01-.037.046v.004a1.194 1.194 0 00-.03.252c-.022.102.066.068.134.068h.001zm1.448.512c-.067 0-.133-.012-.169.05a.502.502 0 00-.02.225c.01.15.139.13.271.123.161-.007.132-.113.132-.257-.005-.16-.068-.139-.216-.141h.002zm-.78 1.824a1.28 1.28 0 00-.172-.02.16.16 0 00-.119.031.48.48 0 00-.018.3c.023.075.08.08.144.08h.084c.024 0 .052.004.075.004a.088.088 0 00.07-.025c.036-.036.007-.14.014-.19a.5.5 0 000-.055v.009h.004v-.015c0-.021 0-.015 0 0 .014-.067.003-.104-.083-.12h.001zm.391-1.875c.136 0 .15-.044.15-.141v-.075c0-.18-.023-.186-.198-.186-.175 0-.203.027-.203.202v.075a.134.134 0 00.04.111c.041.035.155.014.21.014h.001zm-.818.963a.585.585 0 00-.224-.005c-.08.01-.1.018-.111.102 0 .027-.007.084-.007.137a.33.33 0 00.009.102c.018.05.052.057.097.059v-.005c.023 0 .027-.004.041-.004h.007v.004c.091 0 .225.039.255-.079a.035.035 0 000-.016.732.732 0 00.009-.106c-.006-.079-.023-.16-.077-.188l.002-.001zm.142.836c.054.048.324.053.359-.03.014-.048.019-.099.013-.15a.327.327 0 01-.022.142.83.83 0 00.004-.318.824.824 0 00-.345-.023c-.072.03-.105.344-.012.38l.003-.001zm.622-.389c-.193 0-.2.05-.195.237.005.165.066.163.225.163.172 0 .175-.029.172-.198-.002-.168-.024-.2-.204-.2l.002-.002zm.194-2.205c-.037-.057-.105-.039-.169-.062-.177 0-.213-.013-.225.173v.075c0 .095.025.14.157.145.132.005.236.034.245-.12 0-.027.007-.08.007-.126a.205.205 0 00-.018-.085h.002zm-1.223 2.606a.175.175 0 00.104-.009h.005c.02 0 .043.005.061.005.062 0 .111-.007.132-.082a.563.563 0 00-.011-.289.195.195 0 00-.139-.036c-.05 0-.1.004-.15.016-.1.029-.09.113-.09.207v.004c-.002.162-.002.186.088.184zm2.038-3.113h.004a.028.028 0 00-.013 0h-.04c-.15.007-.244-.033-.251.142-.007.174-.01.245.181.24.053 0 .162.027.203-.018.041-.045.024-.179.022-.232-.007-.102-.028-.128-.106-.132zm-1.643 1.378c-.043.043-.013.145-.011.195.005.075-.025.174.075.179.118.004.284.057.311-.093.014-.066.032-.252-.034-.3a.566.566 0 00-.34.019zm1.291 1.01c-.007-.143-.068-.125-.203-.125-.172 0-.197.023-.2.195v.02c0 .114 0 .17.132.18.066.004.186.02.237-.027a.183.183 0 00.038-.134c0-.038-.004-.077-.004-.109zm-.645-.127c-.18 0-.205.027-.21.203-.004.175.028.197.21.194.182-.003.188-.038.19-.207.003-.168-.01-.19-.19-.19zm-.733-.43c-.03-.043-.146-.024-.189-.022-.134 0-.188 0-.195.143-.007.155-.027.25.145.257.05 0 .193.029.232-.007.038-.036.027-.177 0-.218-.027-.042.036-.107.006-.152zm-.15 1.334c-.146 0-.226 0-.232.163-.005.188.004.236.2.236.177 0 .2-.026.2-.204-.003-.15-.012-.197-.171-.194l.003-.001zm.424-.905c-.159.005-.198-.02-.2.155-.003.175.006.25.195.243.19-.007.203-.048.203-.234-.003-.165-.039-.163-.2-.163h.002zm0-2.27c-.052 0-.15-.015-.188.03-.039.045-.014.168-.012.216.01.119.018.15.14.15.064.011.13.01.194-.007.089-.046.064-.184.06-.268-.006-.135-.067-.115-.191-.12h-.003zm1.448 2.268c-.169.014-.278-.05-.282.15-.005.184-.012.25.192.25a.859.859 0 00.109 0 .096.096 0 00.086-.093.838.838 0 00.014-.126c0-.092-.02-.187-.12-.18v-.001zm-1.378-1.812c-.218-.011-.265.025-.265.245 0 .15.05.16.188.16h.039v-.005c.09 0 .156-.01.165-.134.005-.046.01-.091.01-.128 0-.077-.026-.131-.137-.138zm.675 2.653c.1.032.206.035.307.012a.1.1 0 00.053-.104.454.454 0 010-.055v-.064c0-.173-.012-.173-.2-.173-.123 0-.169.005-.189.13a.804.804 0 00-.018.137.128.128 0 00.047.117zm-.477-1.362c.049.043.248.027.3.016.105-.023.075-.114.075-.21-.006-.052.025-.125-.018-.168-.042-.042-.1-.004-.154-.009-.098-.009-.195-.034-.22.08-.006.045-.023.252.017.29zm.816-1.375c.038-.046.018-.177.015-.225 0-.084-.004-.15-.113-.143-.098.009-.219-.034-.264.075-.027.066-.046.268.02.313.113.037.235.03.342-.02zm-.091 1.442c-.066.011-.184-.027-.243.016-.06.043-.044.15-.038.218.013.168.068.168.23.168.099 0 .15.01.158-.097.01-.107.052-.332-.108-.305h.001zm-.463 3.63c-.11 0-.255-.041-.28.087a.634.634 0 00.004.26c.05.105.35.075.375-.039a.414.414 0 00.016-.204c-.009-.085-.025-.1-.117-.103h.002zm.113-3.56c-.025-.109-.168-.075-.266-.068-.134.006-.14.061-.121.166-.008-.04-.013-.07.008.047.016.087-.043.16.07.189.087.014.176.01.262-.01.07-.034.063-.252.047-.323v-.001zm.532.291a.415.415 0 00.329.037c.09-.046.05-.243.048-.327-.002-.084-.311-.102-.375-.038a.436.436 0 00-.002.329v-.001zm.329-.75c-.098.016-.205 0-.3.011a.088.088 0 01-.044-.004c-.006.079 0 .158.016.236.016.118.08.098.19.098.076-.012.157.027.186-.064a1.35 1.35 0 00.014-.168.19.19 0 00-.02-.098.075.075 0 01-.043-.012v.001zm-1.152 4.475c-.139-.02-.093.146-.098.225-.009.198.082.157.245.17a.643.643 0 00.114-.4c-.086.011-.174.012-.261.005zm.838-4.986a.52.52 0 00-.024.354.05.05 0 01.033-.013c.057-.004.114-.004.17 0 .039 0 .118.009.15-.016a.173.173 0 01.028-.016l.004-.007a.605.605 0 00-.013-.068 2.895 2.895 0 00-.348-.235zm-.161 3.171c-.018 0-.041 0-.066-.004a.428.428 0 00-.22.013c-.06.041-.034.104-.032.17.002.066-.031.16.018.205a.161.161 0 00.146.007.12.12 0 00.047-.027l.111-.343v-.006l-.004-.015zm-.327.596c0 .075-.025.304.075.216a.027.027 0 00.011-.011c.018-.111.05-.22.093-.323a.15.15 0 00-.029-.009c-.116-.043-.15-.011-.15.125v.002zm-.506 2.053c0-.015 0-.038.004-.061a4.02 4.02 0 01-.018-.284.091.091 0 00-.041-.037c-.011.082.034.164.007.248-.041-.009-.066-.046-.087-.09a.96.96 0 00-.066-.16h-.059c-.1.007-.139.032-.14.164 0 .059-.023.186.026.225a.64.64 0 00.364 0h.02v-.02a.037.037 0 01-.011.014v.001zm.063-.327c0 .1.007.198.02.293l.005-.006a2.668 2.668 0 00.184-.338h-.107a.094.094 0 00-.102.05v.001zm-.702.799c.168 0 .184-.032.184-.198 0-.181-.012-.194-.193-.194-.182 0-.205.014-.205.194s.032.198.214.198zm-.46.959c-.07 0-.154-.018-.197.05a.44.44 0 00-.011.218c.009.118.056.13.154.132h.046c.102 0 .181.025.198-.088a.683.683 0 000-.246c-.034-.085-.114-.064-.19-.064v-.002zm.446-1.418c.175 0 .198-.038.198-.186v-.048c0-.157-.05-.163-.2-.163-.168 0-.19.029-.19.198-.001.178.015.201.192.201v-.002zm.046-.85c-.188-.004-.225 0-.238.184-.016.17 0 .21.156.214h.084c.134 0 .15-.023.15-.186 0-.149.012-.207-.153-.21l.001-.002zM18 18.431c-.032 0-.09-.009-.15-.009a.178.178 0 00-.107.025c-.066.055-.022.18-.022.252v.007l-.005.025s0-.009.004-.024c-.015.16.175.136.291.125.13-.012.1-.105.1-.219 0-.113.016-.175-.111-.182zm.007-.45h-.075c-.128.01-.216-.016-.218.13a.746.746 0 000 .203c.02.07.054.061.13.063.12.005.256.048.265-.104.008-.103.031-.3-.103-.294v.002zm.481-.443c-.165 0-.318-.057-.32.145v.017c0 .18.023.23.216.23.069-.11.13-.225.184-.343-.01-.046-.043-.051-.08-.051v.002zm-.32.57c0 .116-.043.3.125.254a1.115 1.115 0 01.06-.38.287.287 0 00-.044 0c-.094-.003-.14.006-.142.125l.001.001zm.048.331c-.084.005-.102.4.043.393.017-.105.024-.213.02-.32-.008-.038-.017-.076-.064-.074l.001.002zm-1.929.486c-.036-.05-.111-.04-.166-.038h-.011c-.168 0-.21 0-.21.173 0 .184 0 .225.189.225.046.003.093 0 .139-.007a.075.075 0 01.061-.061.344.344 0 00.011-.096c0-.047.018-.156-.014-.197l.001.002zm-.05.43a.355.355 0 00-.141-.009c-.17.012-.198.025-.198.198 0 .174.037.198.216.198.168 0 .181-.038.183-.202a.345.345 0 00-.02-.15.088.088 0 01-.041-.04v.005zm.052-.879c-.038-.059-.115-.041-.177-.041-.192 0-.216.041-.211.232 0 .095 0 .15.102.163.102.014.306.039.3-.11-.003-.066.021-.195-.015-.246l.001.002zm-.461.441c-.046-.046-.093.005-.146-.02-.084-.038-.207-.03-.234.064a.549.549 0 00.018.309c.046.046.248.029.3.015.102-.022.075-.113.075-.207-.005-.049.027-.122-.016-.163l.003.002zm.838.425c-.075 0-.238-.034-.288.027-.037.046-.023.172-.02.225.006.125.043.136.163.143.086.005.188.03.225-.061.037-.091.045-.339-.08-.336v.002zM5.224 12.084c-.179 0-.206.06-.206.21v.03c.005.18.091.16.252.158.161-.003.146-.05.15-.2v-.032c0-.143-.036-.165-.196-.166z" fill="#644D31"/><path d="M9.225 17.988l-.05-.05-.059-.056a.163.163 0 00-.17-.041.158.158 0 00-.1.136c-.012.083-.015.164-.018.243 0 .105-.011.21-.032.312l-.037.166h.253l.037-.076.106-.212.105-.213A.18.18 0 009.232 18l-.007-.012zm7.408-1.022l-.047-.02a.235.235 0 00-.215.035.253.253 0 01-.03.016.196.196 0 00-.15.204c.008.215.03.43.065.642l.066.43.188-.392a.488.488 0 00.042-.15v-.019l.055-.322.027-.15a.259.259 0 01.01-.032.247.247 0 00.009-.192l-.02-.05zm-.261-1.885a3.653 3.653 0 00-.176.026c-.148.033-.3.038-.45.016l-.024-.005a.564.564 0 00-.06-.01.565.565 0 00-.072 0h-.525l.481.263a.846.846 0 00.443.14 1 1 0 01.154.014l.067.009c.088.01.175.014.263.013.176-.001.351-.016.525-.044l.383-.058-.337-.191c-.2-.13-.437-.19-.675-.173h.003zm-8.934-.12c.036 0 .07-.012.1-.034l.03-.02.027-.02.006-.004a2.3 2.3 0 01.989-.436c.156-.029.314-.056.472-.084.375-.065.76-.132 1.138-.225.096-.015.19-.04.28-.075l1.066-.445-1.63.27-.273.034c-.28.034-.567.07-.852.1a2.372 2.372 0 00-.742.17l-.24.113-.27.126a.358.358 0 00-.236.387v.147l.135-.005zm10.35-.21a.832.832 0 00-.394-.15l-.292-.039a.15.15 0 00.075-.027.225.225 0 00.092-.12l.013-.039-.011-.039-.011-.047c-.004-.016-.006-.04-.01-.06l-.006-.024-.785-1.1-.231-.202.011.006.142.075.139.075a.194.194 0 00.15.024l.176-.05-.102-.15a3.81 3.81 0 00-.794-.671 3.955 3.955 0 01-.423-.335l-.01-.01-.018-.017-.022-.01a2.239 2.239 0 00-.296-.108h.019c.097.017.192.046.283.086.212.095.418.204.617.325.057.043.119.08.184.107l.552.237-.399-.45a6.126 6.126 0 00-1.767-1.45.14.14 0 00-.023-.008h-.011a1.015 1.015 0 00-.648.03.188.188 0 00-.136.244c.045.176.062.357.05.539v.084a.205.205 0 00.127.204.195.195 0 00-.063.042.237.237 0 00-.061.177v.114l-.043-.087v.428a.316.316 0 000 .133v.072l.024.024.013.026.026.066-.016-.01a.149.149 0 00-.132-.01.158.158 0 00-.074.063.61.61 0 00-.056-.431l-.016-.025.045.01.051-.06a.588.588 0 00.091-.262l.006-.03c.052-.258.04-.523-.032-.775a1.84 1.84 0 00-.67-1.068 3.1 3.1 0 00-1.17-.558 2.925 2.925 0 00-1.406.179l-.109.032a3.721 3.721 0 00-.242.085 1.31 1.31 0 00-.2.107 4.86 4.86 0 00-.77.577l-.028.028a.324.324 0 01-.027.025l-.01.008c-.064.05-.117.098-.168.145l-.075.067-.047.042a7.065 7.065 0 00-.658.887c-.1.147-.189.302-.263.463-.033.075-.075.146-.115.221-.053.09-.1.184-.141.28l-.204.5.415-.346c.169-.142.329-.3.486-.45l.02-.02.025-.023.014-.014c.06-.065.128-.123.2-.174l.164-.106c.235-.168.49-.308.76-.416l.033-.012c.06-.026.12-.05.186-.075l.028-.012c.097-.048.2-.084.305-.107l.23-.041c.124-.021.247-.043.368-.067a3.48 3.48 0 01.732-.084c.233.007.464.036.69.087a1.974 1.974 0 00-.368-.024 28.53 28.53 0 01-.621.016c-.191.005-.381.028-.568.069a4.891 4.891 0 00-1.999.991c-.27.221-.525.458-.766.71-.071.075-.142.143-.214.215a.417.417 0 00-.057.075c-.205.322-.408.645-.611.968a.753.753 0 00-.096.225l-.09.369.3-.231.035-.027a.786.786 0 00.075-.057c.25-.202.54-.349.852-.43h.01c.367-.125.75-.2 1.137-.226a9.924 9.924 0 001.694-.3 3.32 3.32 0 001.021-.414c.152-.1.297-.21.434-.329a.525.525 0 01-.099.282 1.44 1.44 0 01-.56.411l-.012.006a6.68 6.68 0 01-1.873.634 10.42 10.42 0 00-.477.105c-.117.029-.239.055-.356.079-.32.05-.632.147-.926.286a1.227 1.227 0 00-.564.575.637.637 0 00-.041.428l.087.348.162-.319.045-.091a.831.831 0 01.088-.16.878.878 0 01.561-.337 5.68 5.68 0 01.443-.06L9 15.07c.27-.034.545-.055.813-.075.325-.024.663-.05.994-.1a3.39 3.39 0 001.415-.474c.075-.05.15-.098.225-.146.235-.136.452-.299.649-.486.203-.194.37-.422.493-.675a1.037 1.037 0 00.318.98c.25.242.538.438.854.582.278.126.566.229.862.307.119.03.242.04.364.027l.046-.005c.28-.038.562-.057.844-.058h.168c.216 0 .433.012.647.039l.526.075-.43-.31zM14.685 13.5c.133.103.261.195.375.276.043.03.084.06.126.092.16.132.34.239.534.316l.236.09c.112.044.225.09.343.126l.087.027.063.019h.013c.133.027.27.052.393.075a8.115 8.115 0 01-.933-.168 1.264 1.264 0 01-.532-.245c-.277-.234-.503-.43-.704-.611l-.001.003z" fill="#885630"/><path d="M15.286 20.154c-.083-.2-.165-.403-.242-.6L15 19.449v-.013a.13.13 0 00-.041-.063l-.026-.02-.08.097c-.105.166-.231.317-.376.45l-.048.059c-.124.1-.261.181-.408.244-.086.042-.176.085-.262.136l-.093.057.11.005c.046 0 .091.005.14.01.314.016.623.09.91.217.101.046.109.13.118.23 0 .031-.004.038-.004.038a.019.019 0 01-.013 0h-.01a.1.1 0 01-.04-.01 8.083 8.083 0 00-1.056-.3c-.1-.023-.2-.047-.3-.074a.15.15 0 01-.022-.008l-.023-.008h-.009a.069.069 0 00-.053.063.11.11 0 00.035.13.11.11 0 00.044.02c.057.015.113.032.168.053.106.038.216.075.323.104.298.076.582.197.843.36.026.02.058.032.09.034a.297.297 0 00.108-.038.345.345 0 00.188-.465.45.45 0 01.067-.432.158.158 0 00.006-.171zm-3.742.486c-.114.02-.23.03-.347.032a1.396 1.396 0 01-.254-.02c-.03-.006-.034-.014-.037-.04a.03.03 0 010-.013.035.035 0 01.014-.004c.082-.017.164-.036.246-.055.225-.06.455-.097.688-.11v-.03h.031a.12.12 0 010-.025l.007-.036-.036-.004a.717.717 0 01-.283-.121c-.033-.02-.065-.04-.099-.058a1.43 1.43 0 01-.616-.607 1.478 1.478 0 00-.165-.224l-.075-.092-.039-.05-.019.06-.033.105a2.778 2.778 0 01-.095.274.528.528 0 000 .487.14.14 0 01-.036.172l-.157.175-.107.119-.008.009a.1.1 0 00-.036.1c.006.024.01.05.012.075a.244.244 0 00.103.207c.005 0 .005.01 0 .033v.463a.11.11 0 00.035.101c.08.048.169.077.261.087h.017a.13.13 0 00.067-.084.182.182 0 01.018-.038.138.138 0 00.017-.028l.006-.013c.079-.045.154-.095.226-.15.089-.07.186-.13.29-.179.116-.049.231-.106.342-.162a2.66 2.66 0 01.761-.285l.21-.034-.21-.032a2.18 2.18 0 00-.699-.005zm1.702-.128a.087.087 0 00-.027-.064.082.082 0 00-.061-.017h-.025a1.209 1.209 0 01-.236.021H12.727a.648.648 0 00-.069 0h-.027a.12.12 0 00-.024 0 .057.057 0 00-.047.056.105.105 0 00.086.116c.083.02.169.031.254.031.088 0 .176-.007.263-.021a.09.09 0 00.067-.034.09.09 0 00.016-.074v-.014zM20.119 9.675a.117.117 0 00.088-.123c.011-.168.025-.338.041-.506.018-.23.04-.46.06-.702l-.038.009c-1.343.393-2.776.761-4.122 1.152-.068.02-.004.127.023.175.211.37.436.71.643 1.083.017.032.033.048.056.053.012 0 .049-.03.062-.034 1.061-.37 2.123-.74 3.188-1.106l-.001-.001zm-.198-.968c.143 0 .218.075.225.23a.287.287 0 01-.252.287.25.25 0 01-.241-.241.277.277 0 01.269-.278l-.001.002zM5.797 11.303l.639.089c.327.046.654.088.981.134a.054.054 0 00.018 0c.039 0 .046-.036.055-.07.086-.289.173-.575.263-.864.02-.061 0-.079-.057-.095-.61-.159-1.222-.32-1.833-.481l-1.831-.482a.126.126 0 00-.036-.007.035.035 0 00-.037.018.033.033 0 00-.004.013 91.574 91.574 0 01-.15 1.38c-.007.056.004.081.048.093l.033.006c.636.091 1.275.177 1.911.267zm-1.474-1.2a.292.292 0 01.205-.054.233.233 0 01.256.177.425.425 0 01-.09.506.27.27 0 01-.36 0 .442.442 0 01-.011-.63v.001z" fill="#fff"/><path d="M19.92 8.705a.283.283 0 00-.27.278.25.25 0 00.24.238.29.29 0 00.252-.286c-.005-.16-.078-.235-.223-.23zM4.53 10.05a.292.292 0 00-.206.055.439.439 0 00.012.629.27.27 0 00.359 0 .421.421 0 00.09-.506.236.236 0 00-.256-.178z" fill="#1A1A1A"/><path d="M19.964 9.948c.132-.046.261-.102.396-.143a.126.126 0 00.1-.134c.043-.573.085-1.148.131-1.72.007-.08-.007-.095-.088-.07-.43.136-.859.265-1.29.399-.132.041-.135.041-.194-.088-.218-.491-.388-1-.567-1.504a.376.376 0 01.006-.3c.04-.176.046-.358.018-.536a9.006 9.006 0 00-.245-1.493 5.7 5.7 0 00-.473-1.2c-.215-.409-.45-.813-.697-1.206a.956.956 0 00-.411-.404.664.664 0 00-.21-.049.191.191 0 00-.185.089.394.394 0 00-.066.406c.179.389.343.786.5 1.184.008.018.02.036.035.063a.064.064 0 01-.059-.041 6.361 6.361 0 00-.945-.761 12.128 12.128 0 00-1.425-.825.547.547 0 00-.203-.062c-.12-.013-.242-.024-.363-.038a.274.274 0 00-.336.277c0 .102-.044.125-.128.132a.255.255 0 00-.186.181.658.658 0 00.216.587c.42.393.825.8 1.234 1.206a.09.09 0 01.041.043c-.031 0-.043-.006-.052-.018-.064-.041-.126-.075-.182-.11-.284-.189-.563-.382-.847-.566a.893.893 0 00-.437-.161.43.43 0 00-.37.136.266.266 0 00-.084.239.422.422 0 00.211.295c.47.321.905.694 1.293 1.11a1.2 1.2 0 00.109.107c.104.095.188.21.248.336.031.057.02.07-.042.07a5.73 5.73 0 00-1.179.194.43.43 0 00-.375.266c-.061.198-.09.309.15.37.482.124.953.287 1.409.489.04.019.078.044.11.075.108.103.223.199.344.286.35.25.74.437 1.154.552.05.011.095.036.143.048a.112.112 0 01.089.089.374.374 0 00.288.31c.02.008.037.021.057.028a.136.136 0 01.089.102c.063.225.13.45.2.675.025.075 0 .095-.066.115-.352.102-.702.21-1.05.316-.125.038-.127.041-.064.155l.859 1.547c.12.218.125.218.345.104.022-.011.055-.05.075-.014.02.037.057.085.022.123-.097.128-.187.26-.27.398a.086.086 0 00-.004.111l.284.475a1.39 1.39 0 01-.088.402 2.394 2.394 0 00-.3-.675 9.49 9.49 0 00-.587-.768 1.19 1.19 0 00-.104-.109c-.2-.178-.422-.33-.66-.45a.976.976 0 00-.323-.12 2.063 2.063 0 00-1.06.004.118.118 0 01-.154-.057 1.658 1.658 0 00-.272-.353 3.101 3.101 0 00-.934-.552 2.79 2.79 0 00-.817-.159 4.035 4.035 0 00-.439.016 2.303 2.303 0 00-1.08.277c-.065.041-.14.064-.208.102a4.11 4.11 0 00-.961.643c-.294.288-.587.576-.85.892a5.767 5.767 0 00-.74 1.2.15.15 0 01-.066.09c-.039-.24-.075-.472-.114-.704-.006-.043.02-.04.05-.036.085.009.166.013.25.024.064.01.098-.004.114-.074.02-.098.043-.195.063-.296.075-.375.189-.739.287-1.106.018-.07.007-.095-.066-.114-.362-.086-.722-.181-1.084-.267-.068-.016-.1-.041-.08-.113a8.59 8.59 0 01.23-.852.169.169 0 01.053-.082.322.322 0 00.15-.287.192.192 0 01.132-.202c.172-.082.338-.177.501-.272a.795.795 0 00.31-.316c.277-.588.586-1.16.926-1.713.028-.05.06-.097.096-.141.228-.26.472-.507.729-.739a.336.336 0 00.109-.27.44.44 0 00-.144-.289.295.295 0 00-.263-.138.379.379 0 01-.084-.014c.018-.037.048-.046.075-.061.32-.207.64-.414.96-.623.39-.25.776-.502 1.166-.75.05-.031.075-.057.018-.104-.113-.134-.113-.134-.225-.068L8.285 4.994c-.095.059-.095.059-.143-.048a7.503 7.503 0 01-.248-.766.104.104 0 01.056-.13c.272-.218.525-.463.775-.702A.572.572 0 008.898 3c.02-.161-.086-.245-.232-.186a1.612 1.612 0 00-.209.1 9.863 9.863 0 01-2.033.8c-.04.011-.075.025-.11-.018a1.25 1.25 0 00-.292-.212.07.07 0 00-.031 0 .4.4 0 00-.252.14c-.15.22-.338.415-.48.644-.16.266-.315.532-.497.784-.033.048-.048.055-.079 0-.2-.352-.402-.704-.6-1.057a2.683 2.683 0 00-.215-.32.358.358 0 00-.338-.15c-.025 0-.057-.004-.066.034a1.037 1.037 0 00-.055.313c.031.257.079.512.141.764.11.433.232.863.362 1.29.13.428.265.835.402 1.252.011.037.031.069-.018.098-.064.037-.166.055-.177.118-.011.064.048.144.075.214.027.07.041.15.082.173.054.027.104-.048.154-.075.05-.027.062-.02.082.027.118.277.238.552.36.829.018.04.02.087.006.13-.08.221-.142.45-.182.682-.01.066-.036.066-.086.052-.263-.068-.525-.134-.788-.2-.116-.03-.116-.03-.13.088-.057.639-.113 1.268-.172 1.897-.005.057 0 .08.063.086.184.023.366.053.548.08.034.004.064.006.055.057-.042.214-.075.43-.119.64a.169.169 0 00.032.155c.063.082.125.166.188.25a.181.181 0 01.036.198.19.19 0 00-.032.11c.007.393.007.786.025 1.18.01.19.007.381.011.572.01.506.039 1.01.057 1.517.01.247-.033.493-.022.74 0 .062.016.096.08.116.15.048.295.108.45.157a.264.264 0 01.174.15c.03.064.043.136.037.206a.157.157 0 00.075.15c.234.169.466.341.7.514.615.455 1.231.912 1.85 1.363.056.043.07.075.036.139-.034.063-.053.127-.084.186a.085.085 0 00.03.127c.077.055.152.114.224.177a.186.186 0 01.046.198c-.014.046-.082.005-.125 0-.03 0-.06-.009-.089-.013-.293-.048-.583-.123-.881-.15a13.01 13.01 0 00-1.429-.066c-.025 0-.064-.023-.07.027-.007.05-.016.084.029.11a.428.428 0 00.075.034c.265.1.521.223.763.369.156.1.32.184.491.254.031.011.064.037.102 0-.263-.21-.525-.418-.788-.63a.11.11 0 01.093-.013c.315.023.628.07.936.141a35.85 35.85 0 012.008.543c.226.043.443.12.645.23a.124.124 0 01.07.123 3.43 3.43 0 01-.499-.02 10.19 10.19 0 00-1.318-.091c-.331.009-.663-.014-.993.009-.468.031-.936.093-1.401.143-.023 0-.06 0-.06.025a.075.075 0 00.057.082c.036.007.071.01.107.01.236.01.47.008.706.012.587.014 1.175-.011 1.761.038.212.018.425.01.632.048.975.182 1.945.375 2.912.584.117.018.232.051.34.097-.052.048.325.025 1.005.327a.138.138 0 01.06-.127c.204-.164.397-.342.576-.534.178-.18.367-.349.568-.504.022-.018.041-.046.075-.032.17.069.338.134.53.21-.356.215-.691.422-1.025.624a.228.228 0 01-.05.018.77.77 0 00-.32.19c-.356.352 1.01-.213.949-.271.753-.43 1.55-.78 2.378-1.041.984-.339 1.988-.61 2.994-.868l-.07-.016c-.067.007-.13.014-.195.018a4.831 4.831 0 00-.826.128.231.231 0 01-.104.02c.016-.057.193-.248.241-.234.041-.053.064-.07.095-.075.05-.07.113-.131.186-.177a1.09 1.09 0 01.15-.082c.15 0 .3-.184.459-.247-.233.01-.462.055-.681.133-.466.172-.948.307-1.402.507-.702.307-1.402.614-2.077.98a.764.764 0 01-.075.033l-.052-.477c-.005-.031.01-.046.038-.059.6-.316 1.2-.63 1.821-.888.514-.214 1.023-.446 1.539-.654a4.39 4.39 0 00-.35.647.055.055 0 00.064-.015c.107-.114.214-.226.318-.339.198-.227.421-.43.666-.607.018-.075-.011-.059-.032-.054-.234.048-.468.09-.7.145-.074.018-.074-.009-.074-.063 0-.186.024-.369.031-.555a.6.6 0 01.055-.234c.093-.213.186-.424.282-.638a1.33 1.33 0 00.093-.334c.03-.181.053-.366.07-.55.03-.282.13-.547.178-.825.045-.357.127-.708.242-1.05.119-.3.232-.6.353-.9.192-.393.351-.8.477-1.22a.634.634 0 00.005-.434 1.86 1.86 0 01-.075-.257.375.375 0 01-.012-.192.931.931 0 00-.059-.675c-.034-.06.007-.095.041-.132.084-.086.089-.126.016-.219-.084-.104-.166-.211-.256-.309-.075-.079-.146-.165-.221-.247-.052-.03-.048-.052.011-.072zM16.9 7.862c-.023-.063-.05-.097-.12-.081-.084.02-.13-.016-.166-.091a.942.942 0 00-.205-.34 1.05 1.05 0 00-.381-.11c-.098-.024-.195-.054-.296-.07a1.35 1.35 0 01-.579-.259 12.89 12.89 0 00-.883-.593 1.773 1.773 0 01-.287-.057c-.263-.055-.525-.111-.788-.161-.064-.011-.075-.06-.08-.102a.128.128 0 01.062-.137.761.761 0 01.275-.075c.422-.07.848-.111 1.275-.123.1.007.2.028.296.062a.17.17 0 00.156-.027c.205-.137.411-.266.616-.4.031-.02.09-.034.066-.088a.079.079 0 00-.014-.02.062.062 0 00-.044-.015H15.75a1.096 1.096 0 00-.632.188.267.267 0 01-.293-.052 6.36 6.36 0 00-1.213-1.22c-.193-.168-.382-.343-.587-.498a.157.157 0 01-.041-.186c.046-.068.104-.038.159-.013.175.075.343.168.5.277a18.623 18.623 0 001.724 1.056c.086.03.132-.009.118-.1a.25.25 0 00-.06-.127c-.461-.543-.947-1.063-1.425-1.592a4.16 4.16 0 00-.329-.3.81.81 0 01-.21-.263.15.15 0 01.023-.18.092.092 0 01.06-.039.09.09 0 01.07.017 2.6 2.6 0 01.457.277c.25.191.504.382.761.573l.763.57c.02.015.042.031.06.048.048.043.088.088.134.134l.027.027c.017.021.036.04.057.057.053.031.107.059.161.004a.089.089 0 00.03-.052.063.063 0 000-.02v-.01a.162.162 0 00-.042-.068l-.17-.177a4.213 4.213 0 00-.296-.282c-.329-.275-.668-.54-1.008-.8a5.156 5.156 0 00-.563-.328.687.687 0 01-.164-.15.137.137 0 01-.021-.146c.02-.05.07-.048.113-.052a.344.344 0 01.188.048c.44.216.87.45 1.289.697a8.493 8.493 0 01.777.556c.1.094.19.199.268.312.036.046.011.086-.023.118a.386.386 0 01-.081.053c-.03.02-.069.038-.058.082.012.043.053.048.087.054.05.01.102.006.15-.013.159-.066.293.046.395.157.027.029.038.088.088.07.05-.018.06-.075.055-.13a2.895 2.895 0 00-.08-.42 6.574 6.574 0 00-.393-1.017c-.05-.121-.104-.241-.154-.362a.173.173 0 01.045-.172c.03-.039.075-.005.116.013a.63.63 0 01.295.314c.075.143.168.275.248.413.15.232.288.473.413.72.184.357.337.73.457 1.113.1.346.18.698.238 1.054.016.137-.009.268.007.4a1.39 1.39 0 01-.115.755.225.225 0 00.01.198c.24.504.437 1.024.634 1.547.025.068.014.095-.056.115-.457.135-.914.273-1.37.411-.067.02-.087 0-.107-.057a65.31 65.31 0 01-.334-.915H16.9zm-2.867 2.881a.9.9 0 01.567-.03l.014.005c.248.064.492.146.729.245a.265.265 0 01.106.076c.154.107.29.236.407.383.179.232.359.466.525.732l-.032-.012a.967.967 0 01-.174-.098 6.09 6.09 0 00-.638-.336 1.391 1.391 0 00-.314-.095 3.13 3.13 0 00-.86-.038c-.08.007-.162 0-.241 0a.076.076 0 01-.066-.021.074.074 0 01-.02-.066 2.174 2.174 0 00-.057-.663c-.014-.046.013-.064.052-.075l.002-.007zm-.058 1.639l.007-.018.004-.014a.149.149 0 00.005-.015l.004-.014c0-.005 0-.011.005-.016V12.188a.028.028 0 010-.013.038.038 0 010-.016v-.252c0-.075.024-.107.101-.104.078.002.15 0 .23-.005h.071c.039 0 .075-.004.116-.004.12-.003.242.004.361.022.185 0 .366.054.52.155.091.04.179.086.264.136.21.126.418.255.627.382a.37.37 0 01.111.102c.068.098.141.198.212.3.01.016.029.034.013.055a.036.036 0 01-.018.013.067.067 0 01-.048-.011c-.093-.053-.188-.102-.282-.155a4.499 4.499 0 00-1.027-.408l-.093-.026a1.895 1.895 0 00-.306-.075l-.144-.031c-.004 0 .005.011.016.022a.056.056 0 01.011.014c.01.013.024.023.039.031a.078.078 0 01.018.01c.216.108.579.176.845.3h-.005l-.013-.008-.089-.04-.024-.012h-.007.006l.025.011.089.042.011.005.06.029c.145.08.284.172.415.275l.254.195c.37.268.628.662.729 1.106 0 .014.007.027.009.042l.009.013a.12.12 0 01.016.091c0 .007 0 .014.004.02-.004.066-.057.039-.086.039a2.367 2.367 0 01-.577-.105h-.006c-.049-.014-.111-.036-.157-.05-.2-.07-.388-.154-.58-.225a2.634 2.634 0 01-.628-.39 7.365 7.365 0 01-.947-.773.322.322 0 01-.075-.1l-.06-.146-.033-.088-.023-.057v-.023a.16.16 0 010-.097l.02-.002zm1.43.139l-.02-.008.02.008zm-.03-.012c-.015-.004-.028-.011-.045-.016l-.018-.005.018.005c.016.005.03.012.046.016zm-.45-.15l-.013-.004.014.004zm-.116-.037v-.026a.109.109 0 00.027.008c-.01.006-.027.003-.031.018h.005zm-.9-1.514zm-.104 2.01c.007-.021.02-.033.033-.03.006 0 .013.01.02.023.073.14.17.266.284.375.118.113.245.218.368.329.255.23.513.454.775.675.172.134.373.227.586.272.492.109.99.189 1.49.241.13.015.254.067.355.15h-.006a.197.197 0 01.022.018 6.927 6.927 0 00-.838-.043c-.304 0-.608.022-.91.063a.933.933 0 01-.317-.024 5.074 5.074 0 01-.841-.3 2.916 2.916 0 01-.815-.557l-.055-.053a.948.948 0 01-.192-.265v-.01a1.014 1.014 0 01-.015-.67c.018-.066.038-.132.06-.197l-.004.003zm2.465 3.983h-.059c-.036 0-.075.009-.108.011a.081.081 0 00-.082.055c-.016.036-.037.068-.055.104l-.007.016a1.452 1.452 0 01-.386.538 3.067 3.067 0 01-.236.193 1.84 1.84 0 01-.444.212l-.033.013-.032.013-.018.007-.029.01c-.034.013-.062.033-.043.085a.106.106 0 00.11.076.572.572 0 00.18-.032c.045-.016.09-.037.138-.057.032-.014.064-.027.098-.039a2.93 2.93 0 01-.08.322 5.6 5.6 0 01-.163.35c-.106.22-.235.427-.384.62-.032.042-.064.075-.098.114a1.604 1.604 0 01-.238.209c-.031.022-.064.046-.098.068a2.613 2.613 0 01-.36.195l-.06.027-.05.02-.042.016a2.2 2.2 0 01-.151.055c-.041.013-.082.027-.123.038a4.603 4.603 0 01-.541.127h-.018l-.155.024-.165.023a2.042 2.042 0 01-.572-.02l-.027-.007a.64.64 0 01-.137-.057c-.06-.031-.113-.066-.172-.095a1.79 1.79 0 01-.273-.168.6.6 0 01-.221-.264 1.698 1.698 0 00-.086-.183l-.03-.05a2.58 2.58 0 00-.26-.348c-.04-.045-.075-.09-.119-.134-.02-.023-.039-.046-.06-.066a6.722 6.722 0 00-.245-.261l-.063-.064a2.636 2.636 0 00-.348-.286 2.602 2.602 0 00-.286-.184L9.582 18a1.495 1.495 0 01-.596-.721.197.197 0 00-.207-.117.597.597 0 01-.239-.046.433.433 0 01-.125-.08l-.024-.015a.813.813 0 01-.056-.085 5.016 5.016 0 01-.365-.623v.008l-.005-.013v.005a3.228 3.228 0 00-.069-.185l-.034-.081a.362.362 0 01-.016-.099.326.326 0 010-.048l.006-.03.005-.013a.435.435 0 01.138-.167l.064-.047c.043-.032.088-.06.132-.089.068-.041.136-.08.207-.115.258-.13.53-.23.81-.3.016-.005.032-.007.05-.011.032-.007.067-.01.1-.014.034-.005.069-.005.1-.005h.1a.351.351 0 00.05 0 19.578 19.578 0 001.363-.112 3.319 3.319 0 001.066-.304c.033-.018.07-.034.104-.052l.06-.032c.136-.075.271-.143.403-.22a.088.088 0 01.053-.032h.009v.011a.057.057 0 01-.018.032l-.02.014a3.62 3.62 0 01-.47.424.798.798 0 00-.048.044c-.05.04-.1.084-.157.13a2 2 0 00.565-.076 1.566 1.566 0 00.823-.568c.105-.141.193-.294.263-.456.08.203.2.388.355.543l.027.036.027.037a.413.413 0 00.1.088c.015.009.03.02.044.032l.02.015c.1.08.2.155.3.23.069.05.137.097.207.145.105.075.21.143.312.216.14.097.288.18.443.252l.115.053c.119.05.236.093.36.132l.02.006c.078.019.156.03.236.037.03 0 .06.007.086.01a.18.18 0 01.057.022c.023.014.044.03.064.048a.43.43 0 01.141.209.07.07 0 010 .023l-.005.009c-.009.015-.022.029-.031.045-.027.048-.057.095-.08.146l-.01.024a.295.295 0 000 .248c.108-.105.202-.225.276-.357a.987.987 0 00.082-.19c.009-.025 0-.055.009-.08s-.023-.066-.01-.084l.005-.005a.038.038 0 01.014-.006.385.385 0 01.21.011c.026.009.017.043.015.068v.005a.724.724 0 01-.069.23.528.528 0 01-.022.052 1.582 1.582 0 01-.181.355.593.593 0 01-.45.293v-.01zm.248.427c-.03.16-.055.316-.082.475a.42.42 0 01-.046.157l-.006-.041a.214.214 0 01-.012.022 5.012 5.012 0 01-.07-.668c0-.05.032-.062.064-.075.052-.018.117-.075.15-.05a.061.061 0 01.011.013l.007.005c.041.031-.007.104-.018.159l.002.003zm-3.36 3.375a1.66 1.66 0 01-.259.02 1.16 1.16 0 01-.29-.038.07.07 0 01-.034-.073c0-.024.02-.024.039-.024a.095.095 0 01.035 0h.246c.075 0 .15-.007.225-.023a.116.116 0 01.039 0c.029 0 .052.005.054.05.003.046.01.075-.056.087l.001.001zm-4.233-2.04c.028-.188.045-.377.052-.567.005-.039.025-.034.048-.014l.107.104.013.014a.046.046 0 01.012.057c-.07.143-.141.284-.212.424l-.022-.006v-.012h.002zm7.313-3.15c-.08-.013-.16-.02-.24-.022a.86.86 0 01-.427-.15h.015c-.01-.007-.022-.011-.033-.018.022 0 .048 0 .07.004l.08.014c.223.021.447.007.666-.041.22-.014.437.045.62.168a.022.022 0 00-.011 0l.029.015a3.002 3.002 0 01-.768.03zm-8.513-2.902c.075-.142.158-.279.247-.411.046-.066.091-.132.14-.195.022-.032.047-.064.074-.095.073-.096.148-.19.225-.28.075-.091.155-.182.234-.272.08-.091.16-.18.236-.27a.875.875 0 01.11-.093l.023-.028c.075-.065.14-.13.225-.199l.011-.009a4.864 4.864 0 01.9-.66c.027-.014.07-.03.105-.044a2.174 2.174 0 01.19-.073l.111-.034c.132-.038.264-.07.393-.11.24-.076.49-.113.74-.11h.107c.188.02.37.073.539.157.074.034.15.066.224.102l.055.027c.055.027.111.055.164.087l.106.061c.034.023.07.043.102.068.069.048.134.1.196.157.203.185.355.42.439.682.063.189.104.385.123.583.002.191-.028.381-.091.561-.007.027-.018.034-.027.032-.009-.002-.02-.02-.031-.034l-.205-.236c-.256-.31-.6-.536-.987-.648a3.936 3.936 0 00-.94-.145c-.256.002-.511.03-.761.086-.2.039-.4.07-.6.107-.127.03-.25.075-.366.134l-.171.075-.018.004a4.707 4.707 0 00-.97.54c-.083.06-.16.13-.229.205l-.009.008-.061.062c-.144.139-.285.28-.439.406a2.046 2.046 0 01-.254.252c.019-.156.066-.309.138-.45h.002zm-.06.914a.268.268 0 01.039-.05c.305-.323.628-.628.967-.914a4.792 4.792 0 011.945-.965c.178-.041.359-.064.541-.066.21 0 .418-.009.625-.016.39-.01.775.097 1.104.307.124.076.24.167.343.27l.013.012c.117.117.22.247.304.389.06.121.07.261.03.39a1.79 1.79 0 01-.561.934c-.263.234-.55.44-.854.614-.415.25-.88.403-1.361.45-.6.088-1.204.097-1.804.177-.218.026-.439.045-.656.083a1.014 1.014 0 00-.643.389 2.21 2.21 0 00-.15.287.499.499 0 01.025-.372 1.06 1.06 0 01.504-.512 5.47 5.47 0 011.252-.355c.34-.086.69-.136 1.029-.23.467-.125.92-.299 1.35-.52.24-.1.453-.258.62-.459a.69.69 0 00.113-.525c-.004-.031-.013-.048-.024-.05-.012-.002-.027.007-.049.025-.17.154-.35.296-.54.424a3.152 3.152 0 01-.982.398 9.916 9.916 0 01-1.67.293c-.399.025-.793.102-1.172.23a2.43 2.43 0 00-.909.463c-.04.033-.08.064-.123.093l.007-.036-.025.018v-.005a.13.13 0 01.023-.015.567.567 0 01.08-.188c.2-.323.403-.646.61-.968h-.001zm2.267.6l.495-.082.087-.015c-.103.05-.213.083-.325.101-.53.133-1.07.21-1.607.31-.38.07-.737.227-1.045.46a.547.547 0 01-.059.042c-.025.016-.037.011-.041-.009a.045.045 0 010-.018.225.225 0 01.157-.259c.17-.075.34-.159.511-.238.224-.092.461-.145.702-.16.375-.04.75-.088 1.125-.131v-.001zM7.974 5.137c.009.025.011.046-.016.061l-.243.15a.399.399 0 01-.043.018.299.299 0 00-.03-.048l-.511-.586c-.023-.027-.046-.053 0-.075.168-.095.295-.25.472-.332.046-.02.062-.022.084.027.114.255.191.525.287.786v-.001zM6.588 3.94c.24-.086.477-.183.715-.28.338-.149.666-.317.984-.503.034-.018.066-.042.1-.06.034-.018.055-.054.093-.033.038.02.03.075.03.127.01.057-.025.104-.076.15-.327.305-.668.593-1.017.872-.147.097-.302.18-.464.248-.031.016-.05 0-.068-.023l-.338-.438c-.044-.053.015-.05.043-.062l-.002.002zM4.527 7.05c-.259-.802-.532-1.599-.75-2.415-.05-.188-.07-.386-.107-.579a.098.098 0 01.064-.106c.05-.025.053.033.07.057.33.506.63 1.033.894 1.577.086.159.184.313.277.47.018.03.032.055.075.039.044-.016.042-.05.032-.086A3.148 3.148 0 004.9 5.54a.171.171 0 010-.15c.13-.268.312-.502.455-.759.132-.234.3-.443.427-.68a.197.197 0 01.315-.045.975.975 0 01.17.216c.176.256.381.49.612.697.154.155.311.305.475.446a.493.493 0 01.098.196.037.037 0 01-.023.038.168.168 0 00-.03.018.337.337 0 01-.417.018 3.012 3.012 0 01-.818-.611.24.24 0 00-.027-.023c-.109-.082-.113-.075-.161.048s-.082.259-.139.382c-.02.043.011.088.044.12.032.033.061.094.127.085a.058.058 0 00.053-.053c.015-.075.036-.15.057-.243.254.199.52.383.795.552l-.264.15-2.025 1.14c-.054.03-.075.037-.1-.03l.003-.003zm.236.525c-.025-.052-.016-.075.032-.104A482.17 482.17 0 007.24 5.952c.043-.027.084-.011.125-.02.143-.028.281-.08.406-.155.01-.006.025-.011.03-.02a.798.798 0 01.463-.35c.396-.158.773-.359 1.125-.6a.174.174 0 01.225.007.199.199 0 01.075.207.525.525 0 01-.15.276A5.23 5.23 0 008.7 6.329a7.81 7.81 0 00-.591 1.05.727.727 0 01-.139.195 2.43 2.43 0 01-.808.601.161.161 0 00-.102.15c-.004.057-.022.111-.027.168a.455.455 0 01-.179.362.214.214 0 00-.057.117l-.259.866a.044.044 0 010 .018c0 .013 0 .029-.015.036a.15.15 0 01-.107-.02c-.422-.098-.84-.205-1.258-.316-.053-.011-.102-.027-.157-.034-.084-.011-.09-.05-.053-.113.039-.27.135-.527.282-.755a.116.116 0 000-.145c-.179-.3-.315-.623-.465-.936l-.002.002zm-.879 3.466l-.034-.007c-.04-.011-.054-.037-.048-.093.05-.45.099-.9.146-1.35 0-.011 0-.02.004-.03a.032.032 0 00.005-.013.037.037 0 01.036-.018c.012 0 .025.003.037.007l1.83.484 1.833.481c.06.016.075.034.057.095l-.263.864c-.009.034-.016.07-.055.07a.06.06 0 01-.018 0c-.327-.046-.654-.088-.981-.134l-.639-.088c-.633-.091-1.275-.177-1.91-.264v-.004zm.502.872a.11.11 0 010-.082.28.28 0 01.016-.039l.004.014a.263.263 0 01-.02.106v.001zm5.611 8.481c-.022 0-.024.016-.036.023a.347.347 0 01-.054.038.182.182 0 00-.075.082v.022h.007v.014c-.022.066-.034.113-.046.15 0 .009-.006.015-.009.022a.101.101 0 01-.018.027.043.043 0 01-.022.011h-.007a.156.156 0 01-.048-.011l-.13-.046-.01-.004-.012-.005-.025-.011h-.009v-.009c-.068-.023-.132-.036-.193-.061-.036-.014-.075-.025-.113-.042a.647.647 0 00-.143-.034c-.132-.045-.266-.068-.393-.113a.237.237 0 01-.041 0c-.091-.018-.164-.041-.25-.057a.112.112 0 01-.114-.088.11.11 0 01.001-.052.872.872 0 000-.109v-.038c-.013-.023-.033-.05-.052-.08A.129.129 0 018.191 20c-.01-.011-.033-.023-.033-.036-.023-.005-.014-.01-.02-.014-.071-.066-.05-.154-.042-.238v-.027l.007-.053c0-.009 0-.018.004-.024.037-.142.046-.276-.106-.36-.018-.011-.03-.022-.053-.039v.005a2.73 2.73 0 00-.213-.157c-.012-.023-.014-.027-.037-.036a1.34 1.34 0 01-.293-.216l-.07-.038h.015c-.014-.023-.03-.02-.041-.032a.616.616 0 00-.057-.037c-.114-.097-.268-.188-.391-.3a.34.34 0 01-.104-.074v-.008c-.12-.084-.239-.166-.357-.257-.014 0-.014-.01-.037-.022a1.296 1.296 0 01-.22-.155.06.06 0 00-.03-.004c-.055-.046-.102-.066-.15-.107-.018-.01-.034-.024-.057-.038a2.06 2.06 0 01-.375-.273l-.011-.011-.02-.023a.176.176 0 01-.036-.078v.018a2.988 2.988 0 01-.205-.284l-.007-.013a.032.032 0 01-.002-.014.102.102 0 010-.024.11.11 0 01.022-.05v-.019c.037-.143.09-.282.16-.413v-.034-.029l-.005-.014-.005-.004a.036.036 0 00-.015-.009H5.4a.117.117 0 00-.055.02.294.294 0 00-.052.041l-.018.014a.126.126 0 00-.014.018l-.011.008a1.381 1.381 0 01-.173.146c-.01.011-.031.025-.031.037h-.01a.053.053 0 01-.068.01c-.098-.043-.195-.083-.293-.129a.081.081 0 01-.039-.06l-.006-.028-.007-.025v.004a.889.889 0 01.05-.413 3.355 3.355 0 01.075-.433v-.06c-.02-.146-.02-.29-.032-.435v-.075c-.014-.27-.032-.54-.041-.81-.02-.566-.066-1.13-.05-1.696a.632.632 0 00-.071-.3c-.027-.052-.06-.101-.093-.154a.25.25 0 01-.046-.225 6.06 6.06 0 00.084-.402c.011-.064.03-.097.102-.075.03.007.059.01.089.009.12.027.245.03.366.06.01 0 .022.003.031.008a2.05 2.05 0 01.38.055c.136.018.272.034.408.057a.15.15 0 01.089.016h.011c.16.018.284.029.42.052h-.01v.007c.091.011.15.023.221.034.072.015.145.025.218.029h.016a.117.117 0 00.02.005.07.07 0 01.05.018.068.068 0 01.02.048c.037.216.067.431.112.647 0 .015.009.029.006.043l.018.105c.02.104.039.209.06.313a.15.15 0 000 .034v.009c.022.136.048.258.07.388v.052a1.523 1.523 0 00-.284.434c-.03.07-.066.143-.095.214h-.005a1.452 1.452 0 01-.093.211l-.007.01c-.004.008-.006.022-.01.029a3.227 3.227 0 01-.13.3 1.5 1.5 0 01-.053.095c-.007.018-.023.036-.023.053a1.104 1.104 0 01-.086.252.716.716 0 01-.07.213 1.99 1.99 0 01-.123.375.16.16 0 00-.018.053v.007a.193.193 0 01-.01.027.143.143 0 01-.008.029v.009l-.036.702.02.007c.03-.06.06-.116.088-.175.03-.06.053-.116.084-.175a.343.343 0 00.048-.123c.069-.114.13-.225.2-.332.007-.01.021-.018.028-.04.059-.091.127-.212.198-.316.024-.041.05-.075.075-.116.015-.046.041-.052.061-.075a.208.208 0 01.075-.062.384.384 0 010 .05v.01a.119.119 0 01-.007.027v.009l-.004.018a.051.051 0 000 .018c0 .006-.005.011 0 .018a3.4 3.4 0 00-.022.447c0 .006-.005.018-.005.022h.004c.018.137.042.272.06.409a.155.155 0 01.004.041c.023.137.053.275.068.413v.016a.096.096 0 01.005.025c.038.1.09.194.154.28.036.052.075.113.11.159.106.103.218.201.335.293.018 0 .036.022.055.022v.017c.046.005.084.041.132.027a.086.086 0 00.025-.011c.006-.005.015-.01.018-.016.011-.02-.01-.031-.025-.038-.186-.119-.157-.311-.18-.493h.007c.041.042.08.086.116.132a.12.12 0 00.022.025l.048.052a1.011 1.011 0 00.22.18c.018.006.037.022.053.022H8.21c.137.066.254.13.38.195a.141.141 0 01.075.034c.059.136.088.283.086.431.004 0 .009.016.011.027.003.01.003.02 0 .03.017.131.017.265 0 .397a.042.042 0 010 .036v.011c.005.132-.007.264-.037.393 0 .13-.043.254-.057.384 0 .005-.002.01-.004.016-.007.024-.018.055.036.048.123-.128.245-.252.36-.396V18.82a.126.126 0 01.054-.091c.053-.059.1-.122.143-.188l.143-.195v-.012a.07.07 0 01.027-.043.032.032 0 01.014-.005h.013a.127.127 0 01.048.018c.026.014.051.03.075.046.148.057.281.144.393.255.012.01.025.013.037.035.052.031.095.074.126.126l.036.034.006.004c.18.15.194.234.064.437-.005.006-.011.013-.016.013a.224.224 0 01-.022.052.243.243 0 01-.018.034l-.01.016a.568.568 0 00-.083.175.418.418 0 00-.011.159c.024.088.047.179.066.27.012.054.021.11.027.165a.246.246 0 01-.16.273l-.015-.004zm.605 1.106c-.03.037-.034.111-.082.105H10.502a.59.59 0 01-.252-.082c-.027-.018-.02-.053-.02-.084v-.43c0-.03.011-.064-.018-.084-.1-.064-.075-.172-.1-.263-.009-.037.016-.055.036-.075l.264-.293a.17.17 0 00.04-.212.503.503 0 010-.459c.053-.123.087-.252.135-.398l.014.016c.088.099.167.205.236.318.14.267.358.484.627.62.117.085.25.147.391.181h.018c.015 0 .038 0 .033.023-.004.022-.016.013-.029.011h-.007a2.593 2.593 0 00-.48.064c-.08.017-.16.036-.24.055l-.218.047-.014.004c-.031.007-.045.023-.04.055a.067.067 0 00.063.068c.082.014.165.02.247.016h.012c.112-.003.223-.013.334-.031a2.46 2.46 0 01.739-.002c-.388.104-.76.255-1.111.45-.191.079-.339.231-.521.328-.014.016-.02.042-.034.058l-.005-.006zm1.177.3v.005h-.016a.028.028 0 01-.011-.011l-.816-.203c.094-.075.162-.119.276-.075.186.075.359.175.538.259.01 0 .02.003.027.009.005 0 .005.004.005.011v.004l-.003.001zm1.86-.338a9.422 9.422 0 00-.64.55.096.096 0 01-.11-.012 8.841 8.841 0 00-1.037-.515c-.157-.066-.323-.093-.484-.15.018-.034.052-.034.08-.044.346-.13.701-.245 1.042-.398a.45.45 0 01.263.005.583.583 0 00.375-.043.076.076 0 01.068-.01c.264.11.525.219.8.33-.126.104-.241.198-.355.288l-.002-.001zm1.627-1.154a.476.476 0 00-.075.463.307.307 0 01-.172.425.215.215 0 01-.114.034.12.12 0 01-.084-.027 4.734 4.734 0 00-1.175-.468 1.447 1.447 0 00-.17-.055c-.068-.016-.064-.062-.055-.109.007-.034.025-.038.044-.036a11.152 11.152 0 011.41.389.19.19 0 00.04.01c.032-.004.042-.033.036-.074-.009-.102-.018-.203-.136-.257a2.649 2.649 0 00-.923-.22 2.9 2.9 0 00-.14-.01c.235-.108.46-.236.674-.383a.948.948 0 00.07-.064l.376-.457c.015-.024.029-.05.046-.075l.01.007.007-.007a.103.103 0 01.048.07c.096.235.189.471.285.705a.127.127 0 01-.007.141l.005-.002zm4.86-9.653c.006.006.01.014.013.022a.022.022 0 010 .02.04.04 0 01-.014.014l-.009.013-.004.01v.011a.255.255 0 00.009.393c.007.01.012.021.014.033.09.12.015.241 0 .362 0 .011-.005.016-.014.02h-.007a.113.113 0 01-.027-.005h-.009a4.854 4.854 0 01-.238-.075c-.007 0-.012-.004-.018-.006-.007-.003-.011-.007-.018-.007a.268.268 0 01-.111-.018.238.238 0 00-.277.048.054.054 0 01-.005.018.267.267 0 00.16.089c.223.091.438.201.642.329a.138.138 0 01.055.143.849.849 0 01-.018.097l-.068.294a.12.12 0 01-.018.075c0 .159-.109.277-.162.413a.121.121 0 00-.017.038c-.037.096-.078.19-.123.282 0 .007-.01.016-.012.023v-.001.005l-.004.008-.005.007a.245.245 0 01-.055.125c-.042.143-.1.28-.177.41a.067.067 0 00-.015.033c-.06.136-.121.3-.18.45-.013.055-.024.109-.038.161l-.007.014v.004c0 .005-.004.01-.006.014a.425.425 0 01-.034.181c-.011.037-.02.075-.032.114a.07.07 0 01-.004.018l-.19.863c-.053.236-.076.477-.112.713-.036.225-.045.45-.1.67-.05.159-.118.311-.202.455a4.367 4.367 0 01-.195.42l-.006.014a.163.163 0 00-.012.029c0 .004 0 .011-.004.015l-.007.032a.174.174 0 000 .034.172.172 0 010 .034v.037a.707.707 0 010 .068c-.027.243-.04.487-.038.732a.075.075 0 01-.055.086l-.055.02a.989.989 0 00-.106.046l-.057.022a.632.632 0 01-.093.032v-.005a4.447 4.447 0 01-.137.057l-.088.037a.6.6 0 01-.2.086l-.034.02c-.143.064-.294.13-.43.194 0 0-.014.007-.018.007-.08.029-.159.064-.234.104l-.25.107c-.132.059-.263.113-.395.172h-.016c-.12.046-.245.111-.359.164a1.67 1.67 0 01-.168.075c-.104.04-.127.035-.15-.071-.068-.05-.075-.134-.1-.205-.024-.07-.045-.143-.068-.211-.005-.023-.016-.018-.016-.032a.312.312 0 01-.034-.093v-.015c-.006-.005-.006-.012-.009-.018l-.006-.016h.004c-.031-.096-.066-.189-.088-.285a1.238 1.238 0 01-.075-.19.163.163 0 010-.066l.007-.032c0-.004 0-.01.004-.015.021-.045.045-.09.07-.132.016-.037.03-.075.046-.109.017-.034.03-.064.046-.109.037-.068.06-.15.104-.225a.263.263 0 01.018-.055c.042-.138.087-.28.141-.413 0-.004-.004-.011 0-.016.016-.081.093-.11.139-.159.022-.006.034-.02.046-.02a.205.205 0 01.041-.046 1.445 1.445 0 00.102-.14c.043-.064.082-.13.13-.194.015-.02.029-.052.055-.052a.021.021 0 01.01 0c.037.009.025.052.021.079a.832.832 0 000 .309c.011.08.025.159.031.238v.037a.547.547 0 01.034.179c.018.075.034.15.057.23.065.138.12.282.164.429h.004c.075.113.155.245.232.37.022.03.045.058.07.084h.005v.018c.023 0 .034.05.068.005-.007-.023-.011-.023-.018-.023a.42.42 0 01-.029-.075c-.005-.015-.011-.033-.014-.048a.356.356 0 01-.01-.047c0-.007 0-.016-.005-.023a.272.272 0 00-.01-.046l-.01-.07c-.005-.025-.007-.048-.012-.07a.033.033 0 01-.006-.026.13.13 0 00-.01-.026c0-.027-.006-.055-.01-.082l-.021-.164c0-.027-.011-.055-.014-.082a3.439 3.439 0 01.034-.89h.014c.027-.136.055-.293.082-.44h.022c-.008.246.015.492.07.733a.038.038 0 010 .015c.034.093.071.186.1.282l.02.06a.329.329 0 00.052.088c.007.012.02.023.02.034a.615.615 0 01.053.057c.014.016.025.034.038.05.048.046.098.089.157.15a3.366 3.366 0 01-.016-.132c-.004-.043-.011-.081-.015-.127 0 0-.012-.007-.012-.011a.778.778 0 00-.035-.105c-.014-.104-.025-.209-.039-.311a.093.093 0 010-.025v-.024a2.555 2.555 0 01-.018-.393v-.016a1.066 1.066 0 01-.002-.35c.004-.031 0-.066.004-.097v-.018a1.492 1.492 0 01.053-.45v-.016l.034-.225c.01-.075.022-.15.031-.225.005-.032.014-.048.032-.048a.074.074 0 01.038.016c.015.009.031.02.048.029a.775.775 0 01.136.098l.01.007a.11.11 0 00.015.011h.005c.14.087.261.202.354.338a.293.293 0 01.105.143c.07.093.124.195.16.305 0 .01.006.02.008.03.003.009.007.004.01.026a.328.328 0 01.04.08c.012.027.02.055.032.08l.018.038a.08.08 0 00.016.023c.01.012.023.02.039.023.024-.084-.034-.164-.012-.244h.008c0-.022-.007-.022-.007-.033a1.62 1.62 0 00-.102-.43v-.036a2.088 2.088 0 00-.161-.395.099.099 0 01-.034-.06.247.247 0 01-.052-.074l-.036-.06v.016l-.005-.007a2.612 2.612 0 00-.209-.263l-.009-.009c-.009-.009-.018-.009-.027-.032a.797.797 0 01-.161-.138c-.007-.007-.014-.01-.018-.016-.005-.007 0-.009-.023-.016-.113-.075-.198-.172-.3-.24-.018-.023-.041-.01-.05-.046.291-.007.582.004.872.034v-.012c.142.018.28.054.413.107.005 0 .01.006.016.006v.005c.091.024.18.059.264.102.018.009.04.039.061.011.02-.027-.009-.043-.022-.061l-.102-.143c-.007-.012-.018-.023-.018-.034-.069-.066-.121-.141-.18-.207a.789.789 0 01-.057-.062 1.1 1.1 0 01-.198-.161c-.011-.007-.022-.02-.034-.02-.029 0-.061-.032-.09-.053-.03-.02-.062-.038-.091-.059l-.034-.018c-.139-.053-.277-.1-.415-.15-.005 0-.014 0-.014-.005h-.015a.104.104 0 01-.069-.027.076.076 0 01-.024-.033l-.005-.011a.128.128 0 01-.007-.06.917.917 0 00-.022-.268 2.156 2.156 0 00-.014-.057l-.013-.06a1.55 1.55 0 00-.023-.084s-.009 0-.009-.009c-.03-.14-.07-.278-.118-.413-.007-.018-.01-.031-.016-.055a.348.348 0 01-.055-.211v-.025a1.783 1.783 0 01.05-.177v-.015c.036-.151.083-.3.139-.444l.004-.004.009-.01.005-.004a.251.251 0 00.05-.175.308.308 0 00-.025-.097c-.016-.041-.036-.08-.057-.12a.033.033 0 00-.014-.011l-.004-.007a1.13 1.13 0 01-.198-.336l-.016-.037-.006-.016v-.006l-.007-.016v-.005a.267.267 0 01.011-.04l.013-.026a.15.15 0 01.018-.02l.01-.007c.061-.088.118-.181.186-.267a.246.246 0 00.048-.239c-.04-.13-.034-.132.095-.179.022-.009.3-.113.409-.15l.07-.027.018-.007.053-.02c.143-.055.286-.107.43-.159a.038.038 0 01.015 0 3.111 3.111 0 01.475-.177c.022-.018.09-.034.113-.053.113-.036.205-.088.307-.11.15-.114.272-.066.375.075a.46.46 0 01.041.029c.02.018.027.039.05.061.093.107.196.212.293.316l.003-.013zm-3.195.125a.289.289 0 01-.037.009c-.033.004-.052-.011-.074-.053-.207-.372-.416-.743-.628-1.113-.026-.048-.036-.075.032-.09l4.026-1.18.057-.013v.005c-.02.242-.04.47-.058.7-.014.167-.027.338-.042.506a.119.119 0 01-.088.123c-1.063.365-2.125.734-3.188 1.106zm-6.609 5.1c.375.031.75.106 1.125.159a.423.423 0 01.15.034c.104.061.18.16.214.275.06.172.093.352.098.534a.391.391 0 01-.137.359.526.526 0 00-.188.263.416.416 0 01.366.15c.063.076.134.145.211.207a.36.36 0 00.555-.075c.054-.088.106-.179.165-.265a.68.68 0 01.307-.3c.088-.03.05-.075.02-.109a.198.198 0 00-.265-.018c-.14.097-.262.217-.362.355a.605.605 0 01-.106.108.102.102 0 01-.15-.008 2.176 2.176 0 00-.2-.185.096.096 0 01-.017-.077.096.096 0 01.016-.037.69.69 0 00.075-.39 1.345 1.345 0 00-.284-.821c-.022-.025-.022-.039.01-.062a.89.89 0 00.385-.664c.007-.07-.006-.127-.063-.15-.057-.022-.093.039-.119.085-.06.095-.125.188-.195.277a.383.383 0 01-.395.146 16.938 16.938 0 00-1.627-.17c-.027 0-.055-.01-.075.008a1.49 1.49 0 00-.457.444.096.096 0 00.018.006c.018 0 .034-.006.053-.009.285-.07.58-.093.873-.068v-.002zm5.05.211a5.983 5.983 0 00-.392.212.3.3 0 01-.107.046 3.813 3.813 0 01-.684.07.643.643 0 01-.347-.123.273.273 0 01-.139-.19.203.203 0 01.098.006c.118.029.24.047.361.053.291-.029.577-.097.85-.203.09-.031.18-.066.268-.097.041-.014.052-.027.016-.066a.134.134 0 00-.14-.032 5.329 5.329 0 01-1.77-.043c-.17-.032-.352-.044-.417-.255a1.475 1.475 0 01-.048-.172.352.352 0 00-.088-.161.084.084 0 00-.083-.035c-.036.008-.034.047-.034.074 0 .096.007.191.018.287a.6.6 0 00.107.291.797.797 0 00.481.316c.15.034.15.036.162.188a.184.184 0 00.075.161c.101.073.219.12.342.139.081-.002.161.02.23.064.089.06.193.091.3.093.08.007.161.009.24.022a.17.17 0 00.15-.048c.226-.186.45-.375.659-.583a.085.085 0 00-.105-.012l-.002-.002zm-1.864 1.838a.046.046 0 00-.075-.02c-.183.08-.38.124-.58.13-.083.01-.188-.014-.25.047-.15.15-.276.087-.408-.018a.075.075 0 00-.023-.013.525.525 0 00-.59-.005.32.32 0 01-.253.064.173.173 0 00-.179.036.718.718 0 01-.095.066c-.088.06-.088.068-.007.134.02.014.04.024.064.03a.674.674 0 00.532-.075.42.42 0 01.49.029.433.433 0 00.455.043c.197-.09.405-.159.618-.202.031-.005.063-.016.093.009.09.084.177.024.263-.01.034-.013.039-.04.037-.074-.005-.073-.06-.114-.092-.171zm-.825.593a2.28 2.28 0 00-.666.116c-.175.059-.371.1-.462.3-.035.118-.062.239-.082.361a.625.625 0 00.071.265c.016.023.022.06.061.058.04-.003.055-.037.066-.064.032-.09.057-.182.075-.276a.462.462 0 01.266-.331c.161-.068.325-.132.488-.195a.174.174 0 01.1-.006 1.368 1.368 0 01.622.15c.01.003.02.002.03 0 .069-.016.075-.038.034-.093a.684.684 0 00-.603-.282v-.003zM11.1 16.459c.136-.013.272-.031.407-.05.036-.004.093.01.101-.034.01-.042-.043-.075-.075-.102a.154.154 0 00-.066-.024.776.776 0 00-.413-.014 1.98 1.98 0 01-.84 0 2.325 2.325 0 00-.246-.029 1.85 1.85 0 00-.334.1c-.075.037-.081.08-.013.132a.13.13 0 00.132.029.44.44 0 01.468.09.481.481 0 00.495.083c.097-.039.19-.085.279-.14a.3.3 0 01.105-.04zm-2.43.255a.308.308 0 00-.12-.3.33.33 0 01-.133-.19.684.684 0 00-.127-.292c-.023-.022-.04-.075-.08-.057a.15.15 0 00-.106.109.466.466 0 00.263.525c.094.046.17.123.214.218.015.034.018.1.068.089.05-.011.01-.078.022-.102h-.002z" fill="#1A1A1A"/><path d="M4.405 11.806a.033.033 0 00-.005-.013l-.016.039a.14.14 0 000 .082.203.203 0 00.02-.107" fill="#2E2E2E"/><path d="M16.725 16.5c.075-.11.136-.23.181-.355a.538.538 0 01.023-.052.669.669 0 00.068-.23v-.004c0-.025.01-.06-.015-.069a.444.444 0 00-.185-.015c-.009 0-.018 0-.025.004a.081.081 0 00-.013.007l-.005.005c-.013.02.018.056.01.083-.01.027 0 .055-.01.08l-.029.08a1.343 1.343 0 01-.053.11 1.602 1.602 0 01-.277.358.295.295 0 01.011-.273c.023-.05.053-.097.08-.145.009-.016.022-.03.031-.046l.005-.009a.04.04 0 000-.023.415.415 0 00-.141-.209.397.397 0 00-.063-.047.187.187 0 00-.057-.023 1.097 1.097 0 00-.087-.008 1.164 1.164 0 01-.236-.037l-.02-.006a3.784 3.784 0 01-.36-.132l-.115-.053A2.84 2.84 0 0115 15.24c-.104-.075-.21-.143-.311-.216-.069-.048-.139-.095-.207-.145-.102-.075-.205-.15-.3-.23l-.02-.015c-.014-.012-.03-.02-.044-.032-.014-.011-.03-.02-.043-.032a.266.266 0 01-.057-.057.489.489 0 00-.027-.036c-.01-.01-.018-.024-.027-.036a1.618 1.618 0 01-.355-.542c-.07.162-.158.315-.264.456a1.524 1.524 0 01-.823.568 2.013 2.013 0 01-.565.075l.157-.13a.798.798 0 00.048-.043c.169-.128.326-.27.47-.425l.02-.014a.044.044 0 00.019-.031v-.012h-.01a.097.097 0 00-.052.032c-.132.075-.268.15-.404.22l-.06.032a2.936 2.936 0 01-.279.132 3.223 3.223 0 01-.89.225 23.156 23.156 0 01-1.023.094c-.113.006-.225.013-.34.018H9.463c-.032 0-.068 0-.1.004a.762.762 0 00-.15.025c-.28.07-.552.171-.81.3-.071.037-.14.075-.208.115a1.688 1.688 0 00-.195.137.412.412 0 00-.12.134.14.14 0 00-.012.027l-.004.014-.007.029a.542.542 0 00.046.23c.116.283.262.554.434.808a.508.508 0 00.084.097l.125.08a.595.595 0 00.239.046.196.196 0 01.218.14c.117.29.322.536.587.703.018.01.036.024.057.036l.056.034c.08.046.155.095.23.15l.075.052c.095.073.186.151.272.235.02.02.044.04.064.063.084.084.166.173.245.261.02.023.038.046.06.066.038.046.079.089.117.134a2.586 2.586 0 01.29.398c.035.058.064.12.087.184a.6.6 0 00.22.263c.049.036.099.07.15.1.042.022.08.046.123.068.06.03.114.066.173.095a.71.71 0 00.136.057l.027.007c.007 0 .014 0 .02.005.183.029.369.034.552.015.055-.006.111-.013.166-.022.055-.01.102-.016.155-.025h.018a4.388 4.388 0 00.54-.127c.042-.011.082-.024.123-.038a2.228 2.228 0 00.152-.055l.041-.016.05-.02.062-.027c.055-.024.109-.052.161-.08a5.07 5.07 0 00.198-.115 1.75 1.75 0 00.434-.39 3.65 3.65 0 00.384-.62l.059-.12c.03-.058.057-.12.084-.18l.02-.051c.034-.106.06-.213.08-.323-.034.014-.066.025-.098.039-.048.02-.093.041-.139.057a.574.574 0 01-.18.031.101.101 0 01-.11-.075c-.018-.052.008-.075.043-.086a.11.11 0 01.03-.009l.017-.007.032-.013.034-.014c.255-.078.488-.216.679-.404a1.44 1.44 0 00.386-.538l.007-.016c.016-.037.039-.069.055-.105a.08.08 0 01.081-.054c.037 0 .075-.01.11-.011h.057a.57.57 0 00.45-.293zm-8.074.311c-.05.012-.052-.055-.068-.088a.443.443 0 00-.214-.218.46.46 0 01-.263-.525.15.15 0 01.107-.11c.043-.015.057.035.079.058a.684.684 0 01.127.29.33.33 0 00.133.191.308.308 0 01.12.3c-.012.025.029.087-.02.098v.004zm.74-.856c-.004 0-.008-.005-.017-.007.118-.179.274-.33.456-.443.025-.018.053-.01.075-.01.546.035 1.086.09 1.627.171a.385.385 0 00.395-.146c.07-.088.136-.18.196-.277.027-.046.064-.104.119-.084.054.02.074.075.063.15a.891.891 0 01-.386.664c-.032.022-.032.036-.009.061.183.235.283.523.284.82a.73.73 0 01-.075.392.095.095 0 00.03.136c.059.05.113.104.168.159a.102.102 0 00.072.038.102.102 0 00.078-.029.69.69 0 00.106-.109c.1-.138.222-.258.361-.354a.198.198 0 01.266.018c.03.035.068.079-.02.108a.659.659 0 00-.307.3c-.06.086-.111.177-.166.266a.359.359 0 01-.554.075 1.655 1.655 0 01-.212-.207.414.414 0 00-.366-.15.554.554 0 01.189-.264.39.39 0 00.136-.359 1.851 1.851 0 00-.097-.534.469.469 0 00-.214-.274.423.423 0 00-.15-.034c-.375-.053-.745-.127-1.125-.159a2.861 2.861 0 00-.879.064.09.09 0 01-.046.013l.003.005zm1.327.684a.494.494 0 01-.495-.082.442.442 0 00-.468-.09.128.128 0 01-.132-.03c-.068-.055-.063-.098.014-.132.108-.043.22-.077.333-.1.083.006.165.015.246.03.277.059.563.059.84 0a.75.75 0 01.48.038c.031.029.084.057.075.102-.01.045-.066.029-.102.034-.137.018-.27.036-.407.05a.286.286 0 00-.107.041 1.769 1.769 0 01-.277.141v-.002zm2.535 2.258a.077.077 0 01-.059-.011 1.345 1.345 0 00-.594-.136.192.192 0 00-.095.011c-.164.064-.327.126-.489.195a.457.457 0 00-.265.332 1.968 1.968 0 01-.075.275c-.014.03-.025.062-.066.064-.041.002-.046-.034-.061-.057a.6.6 0 01-.071-.266c.02-.122.047-.243.082-.361.09-.203.286-.243.461-.3.215-.072.44-.11.666-.116a.69.69 0 01.604.282c.04.055.032.075-.036.093l-.002-.005zm.31-.724c-.087.036-.173.093-.264.009-.027-.025-.06-.016-.093-.01-.213.044-.42.112-.618.203a.434.434 0 01-.454-.044.416.416 0 00-.491-.029.674.674 0 01-.532.075.162.162 0 01-.064-.029c-.081-.068-.081-.075.007-.134a.887.887 0 00.095-.066.178.178 0 01.18-.036.318.318 0 00.252-.064.524.524 0 01.59.005l.023.013c.132.107.257.166.409.018.062-.06.166-.037.25-.048a1.583 1.583 0 00.599-.14.046.046 0 01.055.03c.031.058.086.1.09.17.005.035 0 .062-.033.076h-.002zm1.264-1.488a.173.173 0 01-.15.048c-.079-.014-.159-.016-.24-.023a.57.57 0 01-.3-.093.431.431 0 00-.23-.064.8.8 0 01-.342-.139.179.179 0 01-.075-.16c-.014-.15-.016-.155-.162-.189a.797.797 0 01-.488-.315.6.6 0 01-.107-.291 3.079 3.079 0 01-.018-.287c0-.027 0-.066.034-.075a.08.08 0 01.086.037.376.376 0 01.089.16c.013.06.029.117.048.173.066.212.25.225.418.255a5.318 5.318 0 001.77.043c.05-.007.097-.016.139.031.04.048.024.05-.016.067-.091.031-.18.066-.268.097a3.216 3.216 0 01-.85.203 1.95 1.95 0 01-.361-.053.234.234 0 00-.098-.007.277.277 0 00.139.19.635.635 0 00.347.124 3.63 3.63 0 00.684-.07.315.315 0 00.107-.047c.127-.075.258-.145.393-.211a.092.092 0 01.113.007c-.21.208-.43.405-.662.588zM7.607 4.32c-.177.082-.305.238-.473.331-.045.025-.022.05 0 .075l.512.587a.31.31 0 01.029.048.386.386 0 00.044-.018l.243-.15c.027-.016.024-.037.015-.062-.095-.26-.172-.531-.284-.788-.025-.046-.042-.043-.086-.023zm-.72.125c.018.022.036.041.068.022.161-.07.316-.152.464-.247.349-.278.69-.566 1.017-.872.053-.048.089-.096.075-.15 0-.057.016-.102-.029-.128-.045-.025-.064.018-.093.034-.03.016-.066.041-.1.06-.319.184-.647.353-.984.503-.238.093-.472.194-.715.28-.027.009-.084.009-.04.066.112.141.225.287.337.432zm.029 1.343a8.232 8.232 0 01-.795-.552c-.022.093-.041.167-.057.242a.058.058 0 01-.052.053c-.066.011-.093-.048-.128-.084a.116.116 0 01-.043-.123c.057-.123.091-.256.139-.382.048-.125.055-.13.161-.048a.24.24 0 01.027.023c.236.249.512.455.818.611a.335.335 0 00.418-.018c.009-.007.02-.011.029-.018a.037.037 0 00.018-.053.494.494 0 00-.093-.181 8.888 8.888 0 01-.475-.446 3.877 3.877 0 01-.611-.697 1.133 1.133 0 00-.169-.216.195.195 0 00-.316.046c-.127.236-.295.445-.426.68-.144.256-.325.49-.455.758a.171.171 0 000 .15c.074.15.135.306.182.466.009.037.015.068-.032.086-.047.018-.06-.009-.075-.038-.093-.157-.19-.309-.277-.47a14.575 14.575 0 00-.896-1.575c-.018-.023-.02-.082-.07-.057a.095.095 0 00-.062.104c.037.194.057.39.107.579.216.815.486 1.613.75 2.415.022.07.045.062.097.032.675-.382 1.35-.762 2.025-1.141.082-.042.166-.092.261-.146zM5.231 8.652a1.845 1.845 0 00-.281.754c-.036.064-.031.104.053.114.052.006.104.022.156.033.418.114.838.219 1.259.316a.15.15 0 00.106.02c.018-.007.016-.02.016-.036a.044.044 0 010-.018l.259-.865a.214.214 0 01.057-.119.45.45 0 00.179-.361c0-.057.023-.111.027-.168a.163.163 0 01.102-.15 2.43 2.43 0 00.809-.605.73.73 0 00.138-.196 7.81 7.81 0 01.591-1.05c.232-.379.513-.726.834-1.033a.535.535 0 00.15-.275.2.2 0 00-.075-.207.176.176 0 00-.225-.007c-.352.24-.729.442-1.125.6-.17.08-.375.15-.463.35-.005.01-.018.014-.03.02a1.243 1.243 0 01-.406.155c-.041.009-.082-.007-.125.02-.808.51-1.62 1.018-2.437 1.522-.048.03-.057.053-.031.104.14.32.296.631.47.934a.126.126 0 01-.008.148zm1.307 1.204a.031.031 0 00-.005.014c0-.005.002-.01.005-.014zM17.33 8.831a76.18 76.18 0 011.37-.412c.075-.02.084-.048.057-.115-.198-.52-.397-1.04-.633-1.547a.224.224 0 01-.012-.198c.107-.236.146-.498.112-.755-.016-.132.009-.265-.007-.4a8.838 8.838 0 00-.235-1.054 7.847 7.847 0 00-.87-1.833c-.079-.141-.172-.272-.247-.413a.64.64 0 00-.296-.314c-.035-.016-.086-.05-.115-.013a.173.173 0 00-.046.172c.05.121.105.241.155.362.159.327.291.667.395 1.015.039.138.066.278.08.42.004.053-.005.111-.055.13-.05.019-.062-.041-.089-.07-.102-.111-.236-.226-.395-.157a.26.26 0 01-.15.013c-.034-.006-.075-.015-.086-.054-.011-.04.027-.062.057-.082a.73.73 0 00.081-.053c.034-.031.06-.075.023-.118a1.863 1.863 0 00-.268-.312 9.4 9.4 0 00-.675-.492c-.034-.02-.068-.044-.102-.064a17.33 17.33 0 00-1.288-.698.364.364 0 00-.188-.047c-.046.004-.093 0-.113.052a.132.132 0 00.022.143c.046.06.101.11.164.15.195.096.384.206.563.33.34.26.68.525 1.009.799.104.088.203.182.296.282l.17.177c.02.018.034.042.041.068v.03a.095.095 0 01-.03.052c-.054.055-.108.025-.16-.005a.27.27 0 01-.057-.056l-.027-.027c-.046-.046-.087-.091-.135-.135a.605.605 0 00-.059-.048l-.763-.57c-.255-.19-.509-.381-.762-.572a2.608 2.608 0 00-.49-.292.093.093 0 00-.096.037.15.15 0 00-.023.18c.051.1.123.19.21.262.116.093.226.193.329.3.477.53.963 1.05 1.425 1.593.031.036.052.08.059.127.014.089-.032.13-.119.1a18.574 18.574 0 01-1.724-1.052 2.835 2.835 0 00-.5-.277c-.054-.025-.113-.055-.158.014a.162.162 0 00.041.186c.205.154.393.329.587.497.458.35.866.76 1.213 1.22a.267.267 0 00.293.052c.187-.126.407-.191.632-.188h.055a.062.062 0 01.04.011.034.034 0 01.014.02c.025.056-.034.069-.066.09l-.616.399a.177.177 0 01-.156.027 1.086 1.086 0 00-.296-.061 8.55 8.55 0 00-1.275.122.786.786 0 00-.275.075.128.128 0 00-.062.137c.005.044.016.09.08.102.263.053.525.106.788.161.094.027.19.046.287.057.3.189.6.384.883.593.17.131.368.22.58.26.099.015.197.045.295.07.133.013.262.05.381.109.09.098.16.214.205.34.036.075.082.111.166.09.07-.017.098.019.12.083.107.304.219.606.323.909.032.068.053.085.118.066z" fill="#F6E5CC"/></svg>
