<?xml version="1.0" encoding="UTF-8" standalone="no"?>
<!-- Created with Inkscape (http://www.inkscape.org/) -->

<svg
   width="512"
   height="512"
   viewBox="0 0 135.46666 135.46667"
   version="1.1"
   id="svg1"
   inkscape:version="1.4 (86a8ad7, 2024-10-11)"
   sodipodi:docname="conan.svg"
   xmlns:inkscape="http://www.inkscape.org/namespaces/inkscape"
   xmlns:sodipodi="http://sodipodi.sourceforge.net/DTD/sodipodi-0.dtd"
   xmlns="http://www.w3.org/2000/svg"
   xmlns:svg="http://www.w3.org/2000/svg">
  <sodipodi:namedview
     id="namedview1"
     pagecolor="#ffffff"
     bordercolor="#000000"
     borderopacity="0.25"
     inkscape:showpageshadow="2"
     inkscape:pageopacity="0.0"
     inkscape:pagecheckerboard="0"
     inkscape:deskcolor="#d1d1d1"
     inkscape:document-units="px"
     showgrid="true"
     inkscape:zoom="1.7"
     inkscape:cx="-32.352941"
     inkscape:cy="248.23529"
     inkscape:window-width="3840"
     inkscape:window-height="2036"
     inkscape:window-x="3348"
     inkscape:window-y="-12"
     inkscape:window-maximized="1"
     inkscape:current-layer="layer1">
    <inkscape:grid
       id="grid1"
       units="px"
       originx="0"
       originy="0"
       spacingx="8.4666665"
       spacingy="8.4666659"
       empcolor="#0099e5"
       empopacity="0.30196078"
       color="#0099e5"
       opacity="0.14901961"
       empspacing="4"
       enabled="true"
       visible="true" />
  </sodipodi:namedview>
  <defs
     id="defs1" />
  <g
     inkscape:label="Layer 1"
     inkscape:groupmode="layer"
     id="layer1"
     transform="scale(31.999999)">
    <path
       style="display:inline;fill:#b3e5fc;fill-opacity:1"
       d="M 2.1166666,0.26458332 0.26458332,1.3229166 2.1166666,2.3812499 3.96875,1.3229166 Z"
       id="path1" />
    <path
       style="fill:#2196f3;fill-opacity:1"
       d="m 0.26458332,1.3229166 v 1.5875 L 2.1166666,3.9687497 V 2.3812499"
       id="path2" />
    <path
       style="fill:#82b1ff;fill-opacity:1"
       d="M 2.1166666,3.9687497 V 2.3812499 L 3.96875,1.3229166 v 1.5875 z"
       id="path3" />
    <path
       style="display:inline;fill:#1565c0;fill-opacity:1"
       d="M 3.01625,1.8672023 3.095625,1.8218452 V 3.4093451 L 3.01625,3.4547024"
       id="path4" />
    <path
       style="display:inline;fill:#2196f3;fill-opacity:1"
       d="m 2.1240258,0.83286168 -0.1059735,0.0179945 -0.015396,0.007198 -0.016709,0.001 -0.014457,0.007142 -0.082366,0.0237496 -0.011739,0.006074 -0.011134,6.6661e-4 -0.00973,0.008646 -0.1506657,0.0645795 -0.00705,0.006698 C 1.6307858,1.0066706 1.5763943,1.0466678 1.5179167,1.080636 l -0.00607,0.00754 C 1.4588757,1.12092 1.4412407,1.137212 1.4053399,1.175207 l -0.0089,0.0068 -0.0351,0.051389 -0.00705,0.00669 -0.011487,0.025779 -0.00606,0.00754 c -0.03788,0.098152 -0.036048,0.1132769 -0.020092,0.2243347 l 0.00812,0.011164 6.95e-4,0.011608 0.00616,0.00949 0.015993,0.033992 0.00698,0.00765 0.00756,0.017472 0.0078,0.0058 c 0.024568,0.037063 0.053277,0.065814 0.081839,0.091882 0.015809,0.015184 0.081831,0.060524 0.1076224,0.071523 l 0.00692,0.00676 c 0.052413,0.020157 0.091279,0.047403 0.1565683,0.064997 l 0.00867,0.00485 0.1265617,0.030066 0.014282,0.00541 c 0.042944,0.00192 0.089141,0.011694 0.1367734,0.014217 0.052322,0.00314 0.078708,-0.022631 0.1203012,-0.043041 l 0.00799,-0.00675 0.00556,-3.329e-4 0.00797,-0.00674 0.1923408,-0.099347 0.00799,-0.00674 0.00556,-3.329e-4 0.00797,-0.00675 0.1109912,-0.058615 -0.010468,-0.00385 c -0.066955,0.00131 -0.1452049,0.015866 -0.2176808,0.018402 -0.072461,0.00256 -0.1409279,-0.0059 -0.2069975,-0.00553 l -0.014282,-0.00542 c -0.048517,-0.00157 -0.09793,-0.01833 -0.1395445,-0.02928 l -0.0096,-0.0048 C 1.8091039,1.6062462 1.7448374,1.5590149 1.7120443,1.5090036 1.6615705,1.4277911 1.6857116,1.3645126 1.7167402,1.291861 l 0.00705,-0.00669 0.00579,-0.011997 0.00705,-0.00669 C 1.7698736,1.2151995 1.8530113,1.1421158 1.9386081,1.1101085 l 0.00895,-0.00591 0.090339,-0.030499 0.01261,-0.00703 0.013922,-8.335e-4 0.013534,-0.00708 0.060913,-0.00902 c 0.014297,-0.00982 0.021774,-0.00937 0.043119,-0.010646 l 0.1419212,-0.0085 c 0.022269,-0.00133 0.041737,-0.0025 0.057989,0.00459 l 0.083206,0.00577 0.010629,0.00654 c 0.050527,0.00415 0.093882,0.028432 0.1374527,0.041059 l 0.0078,0.0058 0.026663,0.010053 0.00693,0.00676 C 2.700447,1.130819 2.78347,1.195746 2.8034793,1.2501056 l 0.0061,0.00859 c 0.022286,0.061393 0.01888,0.082207 0.00866,0.1446517 l -0.00488,0.011941 -0.020307,0.049604 0.033526,-0.015447 0.00705,-0.00669 0.2655204,-0.1521091 0.00705,-0.00669 0.06306,-0.035139 0.00705,-0.00669 0.06306,-0.03514 0.007,-0.00759 c 0.00198,-0.013561 -0.086437,-0.075479 -0.1060114,-0.091332 l -0.00703,-0.00853 C 3.1100139,1.08301 3.0768695,1.0581094 3.0499792,1.0444851 l -0.00692,-0.00676 c -0.026836,-0.01273 -0.050428,-0.033719 -0.076166,-0.0438294 l -0.00693,-0.006758 -0.068062,-0.0326658 -0.00692,-0.006756 -0.088842,-0.0376924 -0.00872,-0.005754 -0.1129997,-0.0371459 -0.0096,-0.004797 -0.067848,-0.0138594 -0.010639,-0.006533 -0.012058,7.2192e-4 -0.013304,-0.004572 -0.012059,7.2201e-4 -0.012487,-0.006422 C 2.4813695,0.83030913 2.4209824,0.81689283 2.359442,0.81520023 2.285789,0.81333323 2.2148407,0.82565483 2.14865,0.82423623 l -0.025593,0.007808 z"
       id="path5" />
  </g>
</svg>
