<svg clip-rule="evenodd" fill-rule="evenodd" stroke-linejoin="round" stroke-miterlimit="2" version="1.1" viewBox="0 0 24 24" xml:space="preserve" xmlns="http://www.w3.org/2000/svg"><clipPath id="a"><path d="M.913 1h22.173v22H.913z"/></clipPath><g transform="matrix(.9137 0 0 .9137 1.036 1.0492)" clip-path="url(#a)" fill="#2196f3"><path d="m13.555 14.025a1.541 1.541 0 1 0-0.255-3.071 1.541 1.541 0 0 0 0.255 3.071zm1.796-0.022a3.28 3.28 0 0 1-1.203 0.839l-4e-3 0.01c0.348 1.34 0.894 2.62 1.618 3.799a5.884 5.884 0 0 1-2.035 0.644l-0.101 0.013-0.119 9e-3 -0.24 0.018c-0.147 0-0.292 0.014-0.446 5e-3a6.129 6.129 0 0 1-1.782-0.304 6.337 6.337 0 0 1-1.986-1.067c-0.156-0.118-0.278-0.237-0.384-0.329a11.757 11.757 0 0 1-0.315-0.312s0.094 0.13 0.271 0.353c0.093 0.107 0.2 0.243 0.341 0.383a6.435 6.435 0 0 0 1.125 0.939c0.25 0.166 0.511 0.314 0.781 0.444a6.78 6.78 0 0 0 1.883 0.59c0.166 0.032 0.345 0.043 0.518 0.064l0.241 0.015 0.12 7e-3 0.137 2e-3a6.911 6.911 0 0 0 2.646-0.499c0.202 0.275 0.414 0.542 0.636 0.801l-0.03 0.019-0.265 0.164-0.037 0.023-9e-3 6e-3 -3e-3 1e-3 0.047-0.023-5e-3 3e-3 -0.019 0.01-0.081 0.04-0.169 0.086-0.089 0.046-0.046 0.023-0.023 0.012-9e-3 4e-3 0.03-0.012-0.012 5e-3 -0.197 0.087-0.207 0.09-0.026 0.012-4e-3 2e-3 0.021-8e-3 -7e-3 4e-3 -0.014 5e-3 -0.054 0.021-0.112 0.044a8.1 8.1 0 0 1-3.175 0.535l-0.141-5e-3 -0.159-0.012-0.319-0.026c-0.198-0.031-0.396-0.045-0.6-0.089a8.288 8.288 0 0 1-2.306-0.781 6.307 6.307 0 0 1-0.507-0.281c-0.165-0.094-0.318-0.2-0.468-0.302a8.331 8.331 0 0 1-1.427-1.243c-0.181-0.187-0.317-0.369-0.438-0.513-0.117-0.147-0.198-0.27-0.258-0.351l-0.091-0.125 0.078 0.134c0.052 0.086 0.121 0.218 0.223 0.377 0.105 0.156 0.224 0.353 0.387 0.561a8.78 8.78 0 0 0 1.328 1.418c0.144 0.121 0.291 0.247 0.453 0.362a9.158 9.158 0 0 0 1.619 0.963c0.403 0.184 0.82 0.339 1.246 0.462 0.211 0.069 0.44 0.112 0.661 0.168l0.316 0.058 0.157 0.029 0.175 0.025a9.17 9.17 0 0 0 1.304 0.081 9.243 9.243 0 0 0 2.316-0.323l0.116-0.033 0.056-0.015 0.079-0.025 0.216-0.07 0.204-0.066 0.222-0.085 0.177-0.069 0.084-0.033 0.021-7e-3 5e-3 -2e-3 0.102-0.051 0.281-0.136 0.35-0.17c0.238 0.228 0.483 0.449 0.738 0.66 0 0 1.212 1.249 1.88 0.735 0.628-0.482-0.095-1.996-0.095-1.996a14.032 14.032 0 0 0-5.192-6.847zm-4.23-2.052-7e-3 -9e-3a14.003 14.003 0 0 0-4.053-0.57 5.892 5.892 0 0 1 0.537-2.155l0.043-0.093 0.055-0.106 0.112-0.213c0.078-0.125 0.143-0.254 0.232-0.38a6.098 6.098 0 0 1 1.203-1.351 6.342 6.342 0 0 1 1.956-1.118c0.183-0.07 0.348-0.111 0.483-0.152 0.272-0.069 0.432-0.102 0.432-0.102s-0.161 0.01-0.444 0.042c-0.139 0.023-0.312 0.041-0.506 0.086a6.366 6.366 0 0 0-1.392 0.458 6.75 6.75 0 0 0-2.288 1.711c-0.116 0.124-0.22 0.27-0.329 0.406l-0.14 0.196-0.069 0.098-0.075 0.116a6.998 6.998 0 0 0-0.995 2.591l-4e-3 0.024a14.61 14.61 0 0 0-1 0.128l1e-3 -0.174 1e-3 -0.312v-0.056l-5e-3 0.052 1e-3 -6e-3 2e-3 -0.022 8e-3 -0.089 0.016-0.19 9e-3 -0.099 5e-3 -0.051 2e-3 -0.026v-6e-3l1e-3 -3e-3c1e-3 -9e-3 -0.011 0.063-6e-3 0.031l2e-3 -0.013 0.031-0.213 0.033-0.223 4e-3 -0.029v-4e-3l-4e-3 0.021 1e-3 -7e-3 3e-3 -0.014 0.011-0.058 0.022-0.117a8.07 8.07 0 0 1 1.228-2.977l0.079-0.117 0.095-0.128 0.19-0.258c0.132-0.151 0.248-0.312 0.394-0.46a8.249 8.249 0 0 1 1.884-1.542c0.168-0.103 0.336-0.198 0.507-0.282 0.167-0.091 0.337-0.164 0.503-0.237a8.327 8.327 0 0 1 1.81-0.552c0.255-0.054 0.482-0.073 0.668-0.099 0.186-0.022 0.334-0.025 0.434-0.034l0.155-0.01-0.155-6e-3c-0.1-1e-3 -0.249-0.013-0.437-0.011-0.189 7e-3 -0.419 3e-3 -0.682 0.032a8.204 8.204 0 0 0-0.881 0.117 8.828 8.828 0 0 0-1.025 0.257c-0.179 0.059-0.364 0.117-0.547 0.193-0.186 0.069-0.372 0.15-0.558 0.24a8.826 8.826 0 0 0-2.168 1.434c-0.171 0.143-0.329 0.315-0.493 0.472l-0.216 0.237-0.108 0.119-0.114 0.135a9.13 9.13 0 0 0-0.76 1.063 9.188 9.188 0 0 0-0.952 2.136l-0.034 0.115-0.017 0.056-0.021 0.081-0.055 0.219-0.052 0.208-0.045 0.234-0.036 0.187-0.017 0.088-4e-3 0.022-1e-3 5e-3 -6e-3 0.06-1e-3 0.011-5e-3 0.043-0.033 0.309-0.059 0.552c-0.322 0.087-0.642 0.185-0.959 0.296 0 0-1.695 0.396-1.599 1.233 0.091 0.787 1.761 0.947 1.761 0.947a14.03 14.03 0 0 0 8.543-0.923 3.268 3.268 0 0 1-0.1-1.464zm11.935-0.909a8.972 8.972 0 0 0-0.209-1.313c-0.044-0.218-0.12-0.438-0.179-0.658l-0.105-0.304-0.052-0.151-0.064-0.165a9.093 9.093 0 0 0-1.99-3.033l-0.127-0.127-0.061-0.056-0.166-0.153-0.158-0.146-0.183-0.151-0.147-0.121-0.069-0.057-0.017-0.014-5e-3 -4e-3 -0.049-0.034-0.045-0.03-0.256-0.177-0.344-0.238c0.089-0.353 0.164-0.71 0.225-1.071s0.473-1.675-0.306-1.996c-0.732-0.302-1.68 1.083-1.68 1.083a14.023 14.023 0 0 0-3.325 7.923c0.485 0.104 0.939 0.316 1.329 0.621l0.011-2e-3a13.98 13.98 0 0 0 2.411-3.181c0.621 0.39 1.163 0.892 1.6 1.48l0.06 0.082 0.067 0.099 0.134 0.2c0.072 0.128 0.155 0.247 0.223 0.386 0.287 0.534 0.493 1.108 0.611 1.702a6.299 6.299 0 0 1 0.046 2.253c-0.026 0.194-0.069 0.359-0.097 0.497-0.07 0.272-0.118 0.427-0.118 0.427s0.068-0.146 0.175-0.409c0.047-0.134 0.114-0.294 0.166-0.486 0.066-0.213 0.12-0.43 0.162-0.65a6.764 6.764 0 0 0-0.025-2.649 6.68 6.68 0 0 0-0.281-0.97c-0.053-0.161-0.132-0.322-0.198-0.483l-0.106-0.217-0.053-0.107-0.066-0.121a6.844 6.844 0 0 0-1.773-2.091c0.143-0.319 0.274-0.642 0.393-0.971l0.053 0.029 0.274 0.15 0.037 0.021 0.012 6e-3 -0.043-0.029 5e-3 3e-3 0.093 0.062 0.158 0.106 0.083 0.055 0.043 0.028 0.03 0.02a0.288 0.288 0 0 1-0.025-0.02l0.01 8e-3 0.172 0.129 0.181 0.135 0.023 0.018 3e-3 2e-3 -0.016-0.014 0.017 0.014 0.046 0.037 0.093 0.075a8.094 8.094 0 0 1 2.027 2.503l0.065 0.125 0.201 0.435c0.07 0.188 0.156 0.367 0.217 0.566 0.268 0.771 0.421 1.577 0.453 2.392 0.01 0.197 0.013 0.39 5e-3 0.58 0 0.19-0.018 0.375-0.032 0.556a8.456 8.456 0 0 1-0.382 1.853c-0.074 0.25-0.166 0.458-0.232 0.634-0.07 0.174-0.138 0.305-0.178 0.398l-0.065 0.14 0.079-0.133c0.049-0.087 0.13-0.212 0.218-0.379 0.085-0.168 0.198-0.369 0.299-0.613 0.121-0.271 0.227-0.548 0.318-0.83 0.108-0.336 0.197-0.677 0.264-1.023 0.034-0.186 0.072-0.376 0.092-0.573a8.936 8.936 0 0 0 0.043-1.883z" fill="#2196f3" fill-rule="nonzero"/></g></svg>
