<svg xmlns="http://www.w3.org/2000/svg" stroke-linejoin="round" stroke-miterlimit="2" clip-rule="evenodd" viewBox="0 0 24 24"><clipPath id="a"><path d="M.913 1h22.173v22H.913z"/></clipPath><g fill="#2196f3" clip-path="url(#a)" transform="translate(1.036 1.05)scale(.9137)"><path d="M13.555 14.025a1.541 1.541 0 1 0-.255-3.071 1.541 1.541 0 0 0 .255 3.071m1.796-.022a3.3 3.3 0 0 1-1.203.839l-.004.01c.348 1.34.894 2.62 1.618 3.799a5.9 5.9 0 0 1-2.035.644l-.101.013-.119.009-.24.018c-.147 0-.292.014-.446.005a6.1 6.1 0 0 1-1.782-.304 6.3 6.3 0 0 1-1.986-1.067c-.156-.118-.278-.237-.384-.329a12 12 0 0 1-.315-.312s.094.13.271.353c.093.107.2.243.341.383a6.4 6.4 0 0 0 1.125.939q.375.249.781.444a6.8 6.8 0 0 0 1.883.59c.166.032.345.043.518.064l.241.015.12.007.137.002a6.9 6.9 0 0 0 2.646-.499q.303.412.636.801l-.03.019-.265.164-.037.023-.009.006-.003.001.047-.023-.005.003-.019.01-.081.04-.169.086-.089.046-.046.023-.023.012-.009.004.03-.012-.012.005-.197.087-.207.09-.026.012-.004.002.021-.008-.007.004-.014.005-.054.021-.112.044a8.1 8.1 0 0 1-3.175.535l-.141-.005-.159-.012-.319-.026c-.198-.031-.396-.045-.6-.089a8.3 8.3 0 0 1-2.306-.781 6 6 0 0 1-.507-.281c-.165-.094-.318-.2-.468-.302a8.3 8.3 0 0 1-1.427-1.243c-.181-.187-.317-.369-.438-.513-.117-.147-.198-.27-.258-.351l-.091-.125.078.134c.052.086.121.218.223.377.105.156.224.353.387.561a8.8 8.8 0 0 0 1.328 1.418c.144.121.291.247.453.362a9 9 0 0 0 1.619.963q.606.277 1.246.462c.211.069.44.112.661.168l.316.058.157.029.175.025a9 9 0 0 0 1.304.081 9.2 9.2 0 0 0 2.316-.323l.116-.033.056-.015.079-.025.216-.07.204-.066.222-.085.177-.069.084-.033.021-.007.005-.002.102-.051.281-.136.35-.17q.356.343.738.66s1.212 1.249 1.88.735c.628-.482-.095-1.996-.095-1.996a14.03 14.03 0 0 0-5.192-6.847m-4.23-2.052-.007-.009a14 14 0 0 0-4.053-.57 5.9 5.9 0 0 1 .537-2.155l.043-.093.055-.106.112-.213c.078-.125.143-.254.232-.38a6.1 6.1 0 0 1 1.203-1.351 6.3 6.3 0 0 1 1.956-1.118c.183-.07.348-.111.483-.152.272-.069.432-.102.432-.102s-.161.01-.444.042c-.139.023-.312.041-.506.086a6.4 6.4 0 0 0-1.392.458 6.75 6.75 0 0 0-2.288 1.711c-.116.124-.22.27-.329.406l-.14.196-.069.098-.075.116a7 7 0 0 0-.995 2.591l-.004.024a15 15 0 0 0-1 .128l.001-.174.001-.312v-.056l-.005.052.001-.006.002-.022.008-.089.016-.19.009-.099.005-.051.002-.026v-.006l.001-.003c.001-.009-.011.063-.006.031l.002-.013.031-.213.033-.223.004-.029v-.004l-.004.021.001-.007.003-.014.011-.058.022-.117a8.1 8.1 0 0 1 1.228-2.977l.079-.117.095-.128.19-.258c.132-.151.248-.312.394-.46A8.3 8.3 0 0 1 8.88 4.468q.251-.155.507-.282c.167-.091.337-.164.503-.237a8.3 8.3 0 0 1 1.81-.552c.255-.054.482-.073.668-.099.186-.022.334-.025.434-.034l.155-.01-.155-.006c-.1-.001-.249-.013-.437-.011-.189.007-.419.003-.682.032a8 8 0 0 0-.881.117 9 9 0 0 0-1.025.257c-.179.059-.364.117-.547.193q-.279.104-.558.24A8.8 8.8 0 0 0 6.504 5.51c-.171.143-.329.315-.493.472l-.216.237-.108.119-.114.135a9 9 0 0 0-.76 1.063 9.2 9.2 0 0 0-.952 2.136l-.034.115-.017.056-.021.081-.055.219-.052.208-.045.234-.036.187-.017.088-.004.022-.001.005-.006.06-.001.011-.005.043-.033.309-.059.552q-.483.13-.959.296s-1.695.396-1.599 1.233c.091.787 1.761.947 1.761.947a14.03 14.03 0 0 0 8.543-.923 3.3 3.3 0 0 1-.1-1.464m11.935-.909a9 9 0 0 0-.209-1.313c-.044-.218-.12-.438-.179-.658l-.105-.304-.052-.151-.064-.165a9.1 9.1 0 0 0-1.99-3.033l-.127-.127-.061-.056-.166-.153-.158-.146-.183-.151-.147-.121-.069-.057-.017-.014-.005-.004-.049-.034-.045-.03-.256-.177-.344-.238q.134-.53.225-1.071c.091-.541.473-1.675-.306-1.996-.732-.302-1.68 1.083-1.68 1.083a14.02 14.02 0 0 0-3.325 7.923c.485.104.939.316 1.329.621l.011-.002a14 14 0 0 0 2.411-3.181c.621.39 1.163.892 1.6 1.48l.06.082.067.099.134.2c.072.128.155.247.223.386.287.534.493 1.108.611 1.702a6.3 6.3 0 0 1 .046 2.253c-.026.194-.069.359-.097.497-.07.272-.118.427-.118.427s.068-.146.175-.409c.047-.134.114-.294.166-.486q.099-.32.162-.65a6.8 6.8 0 0 0-.025-2.649 7 7 0 0 0-.281-.97c-.053-.161-.132-.322-.198-.483l-.106-.217-.053-.107-.066-.121a6.8 6.8 0 0 0-1.773-2.091q.215-.478.393-.971l.053.029.274.15.037.021.012.006-.043-.029.005.003.093.062.158.106.083.055.043.028.03.02-.025-.02.01.008.172.129.181.135.023.018.003.002-.016-.014.017.014.046.037.093.075a8.1 8.1 0 0 1 2.027 2.503l.065.125.201.435c.07.188.156.367.217.566.268.771.421 1.577.453 2.392q.016.295.005.58c0 .19-.018.375-.032.556a8.5 8.5 0 0 1-.382 1.853c-.074.25-.166.458-.232.634-.07.174-.138.305-.178.398l-.065.14.079-.133c.049-.087.13-.212.218-.379.085-.168.198-.369.299-.613q.181-.407.318-.83.163-.504.264-1.023c.034-.186.072-.376.092-.573a9 9 0 0 0 .043-1.883"/></g></svg>