<svg viewBox="0 0 32 32" version="1.1" xmlns="http://www.w3.org/2000/svg" xmlns:svg="http://www.w3.org/2000/svg"><path fill="#00aeff" d="M 28.506566,7.8147292 16.828234,2.1474891 a 1.4458887,1.4014103 0 0 0 -1.291335,0 L 3.8585632,7.8147292 a 1.4444446,1.4000103 0 0 0 -0.676,1.185809 V 23.000641 a 1.4444446,1.4000103 0 0 0 0.7987777,1.25301 l 11.6220021,5.614041 a 1.2971111,1.2572092 0 0 0 1.158445,0 l 11.621999,-5.614041 a 1.4444446,1.4000103 0 0 0 0.798776,-1.25301 V 9.0005382 A 1.4444446,1.4000103 0 0 0 28.506566,7.8147292 Z M 14.738122,26.335466 6.0714515,22.135434 V 11.229355 l 8.6666705,4.041829 z M 16.182564,12.839367 7.9058975,8.9767372 16.182564,4.9657098 24.459233,8.9767372 Z m 10.111113,9.296067 -8.666666,4.200032 V 15.271184 l 8.666666,-4.043229 z" id="path1" style="stroke-width:1.42205"/></svg>
