<svg width="34" height="35" viewBox="0 0 34 35" fill="none" xmlns="http://www.w3.org/2000/svg">
  <path fill-rule="evenodd" clip-rule="evenodd"
    d="M16.7568 23.4364C15.182 23.4364 13.6717 22.8109 12.5582 21.6973C11.4447 20.5838 10.8191 19.0735 10.8191 17.4988C10.8198 15.9245 11.4457 14.4149 12.5591 13.3019C13.6726 12.1889 15.1825 11.5637 16.7568 11.5637C18.3311 11.5637 19.841 12.1889 20.9544 13.3019C22.0679 14.4149 22.6937 15.9245 22.6944 17.4988C22.6944 19.0735 22.0689 20.5838 20.9553 21.6973C19.8418 22.8109 18.3315 23.4364 16.7568 23.4364ZM29.3601 19.1453C29.427 18.6024 29.4785 18.0596 29.4785 17.4988C29.4785 16.9405 29.427 16.3797 29.3601 15.8034L32.9387 13.0378C33.0956 12.9103 33.2023 12.7313 33.24 12.5326C33.2777 12.3339 33.2438 12.1283 33.1445 11.9522L29.7486 6.08655C29.5454 5.71094 29.0874 5.55916 28.7144 5.71094L24.4927 7.40888C23.6161 6.72704 22.6512 6.16712 21.6242 5.74439L20.9965 1.24998C20.9624 1.04987 20.8583 0.868388 20.7028 0.737874C20.5473 0.607361 20.3505 0.536303 20.1475 0.537365H13.3635C13.1605 0.536303 12.9637 0.607361 12.8082 0.737874C12.6527 0.868388 12.5486 1.04987 12.5145 1.24998L11.8893 5.74439C10.8634 6.16656 9.89939 6.7256 9.02342 7.40631L4.79915 5.71094C4.61085 5.63705 4.40211 5.63415 4.21183 5.70278C4.02155 5.77141 3.86272 5.9069 3.76495 6.08398L0.371635 11.9522C0.268016 12.1272 0.231753 12.334 0.269638 12.5338C0.307523 12.7337 0.416957 12.9129 0.577446 13.0378L4.15342 15.8034C4.08653 16.3797 4.03507 16.9405 4.03507 17.5013C4.03507 18.0622 4.08653 18.6024 4.15342 19.1453L0.577446 21.9597C0.416957 22.0847 0.307523 22.2639 0.269638 22.4637C0.231753 22.6636 0.268016 22.8704 0.371635 23.0454L3.76495 28.9161C3.96819 29.2892 4.42612 29.423 4.79915 29.2892L9.02342 27.5758C9.90326 28.255 10.8191 28.8313 11.8893 29.2557L12.5171 33.7501C12.5512 33.9502 12.6553 34.1317 12.8108 34.2622C12.9663 34.3928 13.163 34.4638 13.366 34.4628H20.1501C20.3531 34.4638 20.5499 34.3928 20.7053 34.2622C20.8608 34.1317 20.9649 33.9502 20.9991 33.7501L21.6242 29.2557C22.6517 28.8275 23.6166 28.2625 24.4927 27.5758L28.7144 29.2892C29.0874 29.423 29.5454 29.2892 29.7512 28.9161L33.1419 23.0454C33.2416 22.8695 33.2758 22.6641 33.2386 22.4654C33.2014 22.2668 33.0952 22.0876 32.9387 21.9597L29.3601 19.1453Z"
    fill="#FFC107" />
</svg>