<svg version="1.1" viewBox="0 0 32 32" xmlns="http://www.w3.org/2000/svg">
 <path d="m28.324 7.8147-11.678-5.6672c-0.40654-0.19665-0.8848-0.19665-1.2913 0l-11.678 5.6672c-0.42079 0.25624-0.67613 0.70415-0.676 1.1858v14c-2.555e-4 0.53064 0.30904 1.0158 0.79878 1.253l11.622 5.614c0.3647 0.17641 0.79374 0.17641 1.1584 0l11.622-5.614c0.48974-0.2372 0.79903-0.72237 0.79878-1.253v-14c1.28e-4 -0.48166-0.25521-0.92956-0.676-1.1858zm-14.324 18.185-8-4v-11l8 4zm2-13-8-4 8-4 8 4zm10 9-8 4v-11l8-4z" fill="#00b0ff" stroke-width="1.422"/>
</svg>
