<svg width="16" height="16" viewBox="0 0 16 16" fill="none" xmlns="http://www.w3.org/2000/svg">
<path d="M9.94271 12.4284C12.05 12.1944 14.0367 11.0715 15.1306 9.19735C14.6126 13.8329 9.54378 16.7627 5.40634 14.9639C5.02509 14.7986 4.69693 14.5235 4.47172 14.17C3.54192 12.71 3.23628 10.8522 3.67544 9.16626C4.93018 11.3318 7.48149 12.6592 9.94271 12.4284Z" fill="#FFB300"/>
<path d="M3.59857 7.80627C2.74437 9.78032 2.70738 12.0914 3.7546 13.9934C0.0691971 11.2207 0.109415 5.28722 3.70956 2.54229C4.04256 2.28858 4.43828 2.138 4.85331 2.11508C6.56008 2.02505 8.29421 2.68469 9.51032 3.91394C7.03946 3.93849 4.63293 5.52129 3.59857 7.80627Z" fill="#880E4F"/>
<path d="M10.7021 4.52124C9.45541 2.78295 7.5041 1.59954 5.36621 1.56353C9.49879 -0.312257 14.5821 2.72894 15.1355 7.22525C15.187 7.64264 15.1194 8.06821 14.9344 8.44467C14.1623 10.0127 12.7306 11.2289 11.0576 11.679C12.2834 9.40545 12.1321 6.62781 10.7021 4.52124Z" fill="#E53935"/>
</svg>
