<svg viewBox="0 0 24 24" xmlns="http://www.w3.org/2000/svg"><g clip-path="url(#clip0_6_2)"><path d="M3 12V24H12H21V13.9807V3.9759L19.0441 1.98072L17.1024 -1.27032e-06H10.0441H3V12ZM18.5197 2.74699L20.3622 4.6265H18.4772H16.6063V2.74699C16.6063 1.70602 16.6205 0.867469 16.6488 0.867469C16.663 0.867469 17.5134 1.70602 18.5197 2.74699ZM9.23622 3.9759C9.46299 4.19277 9.66142 4.49638 9.70394 4.64096C9.80315 5.03132 9.02362 5.03132 8.78268 4.6265C8.49921 4.17831 7.6063 4.22169 7.30866 4.69879C6.99685 5.19036 7.09606 6.46265 7.47874 6.75181C7.90394 7.06988 8.48504 6.98313 8.75433 6.57831C9.05197 6.11566 9.81732 6.05783 9.70394 6.50602C9.66142 6.66506 9.4063 6.98313 9.13701 7.22891C8.7685 7.5759 8.52756 7.66265 8.0315 7.66265C6.55748 7.66265 5.82047 5.91325 6.62835 4.30843C7.08189 3.41205 8.48504 3.23855 9.23622 3.9759ZM13.0063 3.83132C13.1906 3.94699 13.4457 4.2506 13.5591 4.48193L13.7858 4.91566H13.3181C13.0063 4.91566 12.7937 4.81446 12.6661 4.6265C12.411 4.19277 11.6032 4.23614 11.3055 4.69879C11.0362 5.11807 11.0079 5.89879 11.2488 6.43373C11.5181 7.05542 12.4535 7.12771 12.7087 6.53494C12.8079 6.30361 12.9638 6.21687 13.3181 6.21687C13.5732 6.21687 13.7717 6.26024 13.7433 6.31807C13.2472 7.37349 12.8646 7.66265 11.9575 7.66265C10.9654 7.66265 10.2283 6.78072 10.2283 5.60964C10.2283 3.94699 11.7307 2.97831 13.0063 3.83132ZM17.5701 9.86024L17.5276 10.3373L12.0425 10.3807L6.54331 10.4096V9.90361V9.39759H12.085H17.6126L17.5701 9.86024ZM17.5984 14.1687V14.6024H12.0709H6.54331V14.1687V13.7349H12.0709H17.5984V14.1687ZM17.5701 18.5349L17.5276 19.012L12.0425 19.0554L6.54331 19.0843V18.5783V18.0723H12.085H17.6126L17.5701 18.5349Z" fill="#b0bec5"/></g></svg>
