<?xml version="1.0" encoding="UTF-8" standalone="no"?>
<svg
   clip-rule="evenodd"
   fill-rule="evenodd"
   stroke-linejoin="round"
   stroke-miterlimit="1.414"
   viewBox="0 0 500 500"
   version="1.1"
   id="svg1"
   sodipodi:docname="cpp.svg"
   inkscape:version="1.3 (0e150ed, 2023-07-21)"
   xmlns:inkscape="http://www.inkscape.org/namespaces/inkscape"
   xmlns:sodipodi="http://sodipodi.sourceforge.net/DTD/sodipodi-0.dtd"
   xmlns="http://www.w3.org/2000/svg"
   xmlns:svg="http://www.w3.org/2000/svg">
  <defs
     id="defs1" />
  <sodipodi:namedview
     id="namedview1"
     pagecolor="#ffffff"
     bordercolor="#000000"
     borderopacity="0.25"
     inkscape:showpageshadow="2"
     inkscape:pageopacity="0.0"
     inkscape:pagecheckerboard="0"
     inkscape:deskcolor="#d1d1d1"
     inkscape:zoom="1.73"
     inkscape:cx="250"
     inkscape:cy="249.71098"
     inkscape:window-width="2880"
     inkscape:window-height="1567"
     inkscape:window-x="1800"
     inkscape:window-y="25"
     inkscape:window-maximized="1"
     inkscape:current-layer="svg1" />
  <path
     id="path1"
     style="display:inline;fill:#0277bd;stroke-width:1.56324;fill-opacity:1"
     d="M 249.8125 25.001953 C 248.17848 25.019003 246.5447 25.154142 244.91211 25.404297 C 243.27949 25.654432 241.64764 26.019082 240.01758 26.5 C 238.38753 26.980934 236.75918 27.577663 235.13281 28.287109 C 233.50645 28.996575 231.88323 29.820118 230.26172 30.755859 C 176.83758 61.576818 123.43193 92.432945 70.007812 123.25391 C 68.408982 124.17699 66.904056 125.15727 65.494141 126.19531 C 64.084225 127.23335 62.769681 128.3298 61.550781 129.48242 C 60.331882 130.63505 59.209376 131.84449 58.183594 133.11133 C 57.157813 134.37819 56.229001 135.70134 55.398438 137.08203 C 54.543619 138.50201 53.790874 139.98291 53.144531 141.52344 C 52.49819 143.06397 51.958173 144.66475 51.523438 146.32617 C 51.088705 147.98758 50.759064 149.70954 50.539062 151.49219 C 50.319065 153.27485 50.207214 155.11922 50.205078 157.02344 C 50.179998 175.27444 50.272738 214.94275 50.341797 253.11914 C 50.410867 291.2955 50.456136 327.98023 50.339844 340.26758 C 50.320274 342.33351 50.409534 344.33255 50.605469 346.26367 C 50.801402 348.19477 51.10496 350.05941 51.519531 351.85742 C 51.934105 353.65543 52.459354 355.38614 53.095703 357.05273 C 53.732052 358.71933 54.478584 360.32053 55.339844 361.85742 C 56.201102 363.39431 57.176319 364.86849 58.265625 366.27734 C 59.354932 367.68623 60.558419 369.02994 61.878906 370.3125 C 63.199397 371.59503 64.636601 372.81477 66.191406 373.97266 C 67.746215 375.13057 69.420629 376.22676 71.212891 377.26172 C 124.38799 407.96014 177.48809 438.7844 230.64648 469.51953 C 232.29632 470.47001 233.94969 471.2953 235.60352 471.99609 C 237.25733 472.69689 238.91217 473.27235 240.56836 473.72656 C 242.22458 474.18077 243.88208 474.5139 245.53906 474.72461 C 247.19604 474.93532 248.85364 475.02386 250.50977 474.99414 C 252.12054 474.96394 253.72993 474.8217 255.33984 474.56641 C 256.94976 474.3111 258.56026 473.94404 260.16797 473.46484 C 261.77567 472.98566 263.38221 472.39326 264.98633 471.69141 C 266.59045 470.98955 268.19183 470.1772 269.79102 469.25391 C 269.79102 469.25391 376.59095 407.59326 429.99609 376.73633 C 431.63041 375.79184 433.16824 374.78667 434.60547 373.72266 C 436.04272 372.65862 437.37949 371.53515 438.61719 370.35156 C 439.8549 369.168 440.99359 367.92419 442.0293 366.62109 C 443.06498 365.31802 443.9989 363.9558 444.83008 362.5332 C 445.64854 361.13469 446.3678 359.67834 446.98633 358.16406 C 447.60486 356.64983 448.12317 355.07725 448.53906 353.44727 C 448.95493 351.81725 449.26801 350.12855 449.47852 348.38281 C 449.68901 346.63705 449.79639 344.83417 449.79883 342.97266 C 449.76453 281.57535 449.62365 220.17736 449.625 158.7793 C 449.62497 156.71027 449.51045 154.71596 449.28516 152.79102 C 449.05981 150.86608 448.72196 149.01097 448.27148 147.22656 C 447.82102 145.44216 447.25944 143.7275 446.58398 142.08008 C 445.90856 140.43267 445.12095 138.85187 444.2207 137.33789 C 443.32044 135.82393 442.30658 134.37624 441.18164 132.99219 C 440.05671 131.6081 438.82015 130.28895 437.4707 129.03125 C 436.12125 127.77355 434.65976 126.57826 433.08594 125.44336 C 431.51214 124.30848 429.82533 123.23437 428.02734 122.21875 C 417.32893 116.17251 385.58278 97.791489 352.55664 78.646484 C 319.53051 59.501484 285.22421 39.591378 269.40625 30.488281 C 267.77793 29.550894 266.14707 28.734452 264.51562 28.039062 C 262.8842 27.343658 261.25062 26.768148 259.61719 26.3125 C 257.98376 25.856853 256.35107 25.52087 254.7168 25.302734 C 253.0825 25.084598 251.44651 24.984827 249.8125 25.001953 z M 251.05273 101.49219 L 251.05469 101.49219 C 254.4883 101.49219 257.89413 101.60854 261.26953 101.83789 C 264.64492 102.06724 267.98908 102.41011 271.29883 102.86133 C 274.60853 103.31256 277.88451 103.87149 281.12109 104.53711 C 284.35764 105.20271 287.55501 105.9732 290.71094 106.8457 C 293.86687 107.71822 296.98097 108.69368 300.04883 109.76562 C 303.11665 110.83755 306.13903 112.00762 309.11133 113.27148 C 312.08357 114.53536 315.00579 115.89152 317.875 117.33984 C 320.74427 118.78818 323.56161 120.32781 326.32031 121.95312 C 329.07904 123.57844 331.77917 125.29112 334.41992 127.08594 C 337.06066 128.88075 339.64096 130.75803 342.15625 132.71484 C 344.67156 134.67167 347.12348 136.70701 349.50586 138.81836 C 351.88823 140.92972 354.20138 143.11659 356.44336 145.375 C 358.68537 147.63341 360.85512 149.96336 362.94922 152.36133 C 365.04338 154.75931 367.06317 157.22579 369.00195 159.75586 C 370.94077 162.28592 372.79821 164.88049 374.57422 167.53516 C 376.25858 170.05282 377.8573 172.63267 379.38867 175.25586 L 314.75977 212.4668 C 313.96391 211.11922 313.12505 209.79891 312.24805 208.50781 C 311.37101 207.21674 310.45467 205.95561 309.5 204.72461 C 308.54535 203.49361 307.55222 202.29435 306.52344 201.12695 C 305.49458 199.95955 304.42955 198.82485 303.33008 197.72461 C 302.23063 196.62434 301.09822 195.55692 299.93164 194.52734 C 298.76507 193.49777 297.56422 192.50419 296.33398 191.54883 C 295.10375 190.59343 293.84312 189.67646 292.55273 188.79883 C 291.26241 187.9212 289.9427 187.08345 288.5957 186.28711 C 287.2487 185.49077 285.87473 184.73692 284.47461 184.02539 C 283.07452 183.31385 281.64897 182.64465 280.19922 182.02148 C 278.74949 181.39833 277.27515 180.82033 275.7793 180.28906 C 274.28344 179.75779 272.76504 179.27373 271.22656 178.83789 C 269.68806 178.40204 268.13035 178.0146 266.55273 177.67773 C 264.97518 177.34087 263.37883 177.05468 261.76562 176.82031 C 260.15243 176.58593 258.52226 176.40373 256.87695 176.27539 C 255.23165 176.14706 253.57041 176.07148 251.89648 176.05273 L 251.05273 176.04883 C 248.50031 176.04883 245.97807 176.17917 243.49219 176.43164 C 241.00633 176.68411 238.55535 177.05824 236.14844 177.55078 C 233.74158 178.04333 231.37803 178.65477 229.0625 179.375 C 226.747 180.09523 224.48129 180.92579 222.26953 181.86133 C 220.05777 182.79683 217.90027 183.83618 215.80469 184.97461 C 213.70908 186.11302 211.67407 187.35075 209.70703 188.67969 C 207.73998 190.00863 205.83976 191.4285 204.01367 192.93555 C 202.18756 194.4426 200.43643 196.03622 198.76367 197.70898 C 197.09089 199.38177 195.49728 201.13483 193.99023 202.96094 C 192.48319 204.78705 191.06137 206.68726 189.73242 208.6543 C 188.4035 210.62134 187.1677 212.65443 186.0293 214.75 C 184.89086 216.8456 183.84958 219.00312 182.91406 221.21484 C 181.97854 223.42659 181.14796 225.69426 180.42773 228.00977 C 179.70751 230.32524 179.09802 232.68883 178.60547 235.0957 C 178.11292 237.50256 177.73685 239.95164 177.48438 242.4375 C 177.23192 244.92335 177.10352 247.4456 177.10352 249.99805 C 177.10152 252.13253 177.19202 254.266 177.375 256.39062 C 177.55801 258.51523 177.83206 260.6317 178.19922 262.73438 C 178.56637 264.83706 179.02637 266.92151 179.57422 268.98242 C 180.12208 271.04333 180.75895 273.08044 181.48438 275.08789 C 182.20985 277.09536 183.02175 279.06886 183.91797 281.00391 C 184.81419 282.93898 185.79358 284.83581 186.85547 286.6875 C 187.65213 288.07825 188.49259 289.44115 189.375 290.77344 C 190.2574 292.10573 191.1821 293.40772 192.14648 294.67773 C 193.11089 295.94775 194.11557 297.18669 195.1582 298.39062 C 196.20084 299.59456 197.28131 300.76433 198.39844 301.89844 C 199.51555 303.0325 200.66958 304.12905 201.85742 305.18945 C 203.04528 306.24988 204.26861 307.27288 205.52344 308.25586 C 206.77824 309.23882 208.06481 310.18224 209.38281 311.08398 C 210.70086 311.98572 212.05024 312.84541 213.42773 313.66211 C 214.80522 314.47883 216.21133 315.25257 217.64453 315.98047 C 219.07774 316.70837 220.53633 317.39206 222.02148 318.02734 C 223.50663 318.66263 225.01744 319.25019 226.55078 319.78906 C 228.08411 320.32793 229.64098 320.81717 231.21875 321.25586 C 232.79653 321.69455 234.39521 322.08133 236.01367 322.41602 C 237.63214 322.75072 239.27041 323.0348 240.92578 323.26172 C 242.58118 323.48865 244.2548 323.66002 245.94336 323.77539 C 247.63193 323.89077 249.33476 323.94922 251.05273 323.94922 C 252.78139 323.94922 254.4964 323.89032 256.19531 323.77344 C 257.89421 323.65668 259.57881 323.48174 261.24414 323.25195 C 262.90948 323.02218 264.55761 322.73729 266.18555 322.39844 C 267.81352 322.05958 269.42109 321.66674 271.00781 321.22266 C 272.59448 320.77858 274.15955 320.28374 275.70117 319.73828 C 277.24282 319.19283 278.76118 318.59608 280.25391 317.95312 C 281.74661 317.31018 283.21431 316.61942 284.6543 315.88281 C 286.09425 315.14622 287.50531 314.36543 288.88867 313.53906 C 290.27206 312.71266 291.62625 311.84197 292.94922 310.92969 C 294.27219 310.01737 295.56552 309.0627 296.82422 308.06836 C 298.08291 307.074 299.30747 306.03935 300.49805 304.9668 C 301.68865 303.89423 302.84425 302.78364 303.96289 301.63672 C 305.08158 300.48982 306.16413 299.30721 307.20703 298.08984 C 308.24992 296.87245 309.25349 295.61993 310.2168 294.33594 C 311.18006 293.05196 312.10258 291.73542 312.98242 290.38867 C 313.86228 289.04195 314.69963 287.66541 315.49219 286.25977 L 315.18359 286.79883 L 379.72656 324.1875 C 378.1384 326.93586 376.46458 329.62817 374.70898 332.26172 C 372.95342 334.89526 371.11497 337.47097 369.19922 339.98242 C 367.28349 342.49384 365.2893 344.94218 363.2207 347.32422 C 361.15207 349.70624 359.00912 352.0222 356.79492 354.26758 C 354.5807 356.51293 352.2959 358.68764 349.94336 360.78906 C 347.59084 362.89044 345.17111 364.91898 342.6875 366.86914 C 340.20396 368.81931 337.65615 370.69272 335.04883 372.48438 C 332.44148 374.27599 329.77459 375.98548 327.05078 377.61133 C 324.32695 379.23716 321.54592 380.77776 318.71289 382.23047 C 315.87986 383.6832 312.99356 385.04797 310.05859 386.32031 C 307.12367 387.59263 304.13897 388.77274 301.10938 389.85742 C 298.07974 390.94208 295.00562 391.93254 291.88867 392.82227 C 288.77168 393.71196 285.61309 394.502 282.41602 395.18945 C 279.21896 395.87693 275.98274 396.46151 272.71289 396.93945 C 269.443 397.41739 266.13811 397.7877 262.80273 398.04883 C 259.46734 398.30997 256.1007 398.46098 252.70703 398.49805 L 251.05273 398.50977 C 247.60828 398.50977 244.19255 398.39083 240.80664 398.16016 C 237.42073 397.9294 234.06595 397.58679 230.74609 397.13281 C 227.42629 396.67885 224.1407 396.11492 220.89453 395.44531 C 217.64838 394.77567 214.44037 393.99884 211.27539 393.12109 C 208.11044 392.24333 204.98832 391.26385 201.91211 390.18555 C 198.83588 389.10722 195.8061 387.93149 192.82617 386.66016 C 189.84625 385.38881 186.91515 384.02127 184.03906 382.56445 C 181.163 381.10765 178.34086 379.56054 175.57617 377.92578 C 172.81149 376.29106 170.10473 374.56878 167.45898 372.76367 C 164.81327 370.95855 162.22823 369.0695 159.70898 367.10156 C 157.18975 365.1336 154.73674 363.08614 152.35156 360.96289 C 149.96636 358.83967 147.64986 356.6421 145.40625 354.37109 C 143.16266 352.10013 140.99093 349.75685 138.89648 347.3457 C 136.80204 344.93453 134.78345 342.45395 132.8457 339.91016 C 130.90795 337.36637 129.05085 334.75875 127.27734 332.08984 C 125.50384 329.42096 123.8146 326.69071 122.21289 323.9043 C 120.64908 321.18369 119.1684 318.40944 117.77539 315.58398 C 116.38237 312.75855 115.0765 309.8823 113.86133 306.95898 C 112.64615 304.03572 111.52245 301.06494 110.49219 298.05078 C 109.4619 295.0366 108.52583 291.97888 107.6875 288.88086 C 106.84917 285.78284 106.10808 282.64362 105.46875 279.46875 C 104.82942 276.2939 104.2907 273.08263 103.85742 269.83789 C 103.42415 266.59315 103.09711 263.31542 102.87695 260.00781 C 102.6568 256.70022 102.54492 253.36348 102.54492 250 C 102.54492 247.43701 102.60992 244.88855 102.73828 242.35742 C 102.86658 239.82633 103.05705 237.31254 103.31055 234.81641 C 103.56404 232.32029 103.88027 229.84086 104.25586 227.38281 C 104.63144 224.92477 105.06601 222.48715 105.56055 220.07031 C 106.05509 217.6535 106.61029 215.25727 107.2207 212.88477 C 107.83111 210.51226 108.49754 208.16297 109.2207 205.83789 C 109.94387 203.51283 110.72383 201.21202 111.55664 198.9375 C 112.38945 196.66297 113.2755 194.41425 114.21484 192.19336 C 115.15418 189.9725 116.1467 187.77934 117.18945 185.61523 C 118.23222 183.45113 119.32568 181.31712 120.46875 179.21289 C 121.61182 177.10867 122.80465 175.03538 124.04492 172.99414 C 125.2852 170.95289 126.57189 168.94391 127.90625 166.96875 C 129.24062 164.9936 130.62152 163.05244 132.04688 161.14648 C 133.47222 159.24056 134.94185 157.36878 136.45508 155.53516 C 137.96829 153.70152 139.52505 151.9047 141.12305 150.14648 C 142.72103 148.3883 144.36137 146.6699 146.04102 144.99023 C 147.72064 143.31058 149.44105 141.67027 151.19922 140.07227 C 152.95741 138.47425 154.75234 136.91754 156.58594 135.4043 C 158.41955 133.89104 160.29134 132.42147 162.19727 130.99609 C 164.1032 129.57072 166.04439 128.18987 168.01953 126.85547 C 169.99467 125.52107 172.00367 124.23251 174.04492 122.99219 C 176.08616 121.75188 178.15943 120.55911 180.26367 119.41602 C 182.3679 118.27291 184.50384 117.1795 186.66797 116.13672 C 188.83208 115.09391 191.02522 114.10148 193.24609 113.16211 C 195.46699 112.22273 197.7157 111.33674 199.99023 110.50391 C 202.26478 109.67106 204.56555 108.89115 206.89062 108.16797 C 209.21573 107.44477 211.56494 106.77842 213.9375 106.16797 C 216.31004 105.55753 218.70616 105.00239 221.12305 104.50781 C 223.53991 104.01325 225.97746 103.5787 228.43555 103.20312 C 230.8936 102.82753 233.37096 102.51132 235.86719 102.25781 C 238.3634 102.0043 240.87893 101.81385 243.41016 101.68555 C 245.94134 101.55723 248.48966 101.49219 251.05273 101.49219 z M 336.66602 225 L 353.33203 225 L 353.33203 241.66602 L 369.99609 241.66602 L 369.99609 258.33008 L 353.33203 258.33008 L 353.33203 275 L 336.66602 275 L 336.66602 258.33008 L 320 258.33008 L 320 241.66602 L 336.66602 241.66602 L 336.66602 225 z M 397.47461 225 L 414.14453 225 L 414.14453 241.66602 L 430.81055 241.66602 L 430.81055 258.33008 L 414.14453 258.33008 L 414.14453 275 L 397.47461 275 L 397.47461 258.33008 L 380.81055 258.33008 L 380.81055 241.66602 L 397.47461 241.66602 L 397.47461 225 z "
     inkscape:label="path1" />
</svg>
