<svg width="512" height="512" viewBox="0 0 512 512" version="1.1" xmlns="http://www.w3.org/2000/svg"><g><path fill="#212121" d=" M 243.44 31.48 C 308.38 27.62 374.32 53.67 418.86 101.13 C 467.27 151.28 489.85 224.92 477.59 293.57 C 466.95 359.70 424.47 419.51 366.02 452.03 C 306.87 485.74 232.21 490.06 169.53 463.51 C 109.31 438.70 61.19 386.37 41.79 324.16 C 21.10 260.55 31.13 187.93 68.31 132.31 C 106.52 73.58 173.44 35.04 243.44 31.48 M 225.08 81.08 C 224.67 96.94 225.43 112.81 224.77 128.67 C 212.23 131.69 200.50 137.04 189.10 142.96 C 177.66 132.52 167.44 120.80 155.91 110.45 C 141.04 124.68 126.69 139.51 112.19 154.14 C 122.58 165.38 134.14 175.48 144.32 186.91 C 137.80 198.62 132.31 210.89 128.80 223.86 C 112.90 224.32 96.99 223.72 81.09 224.09 C 80.93 244.69 80.93 265.31 81.08 285.92 C 96.90 286.37 112.74 285.50 128.54 286.29 C 131.48 299.97 137.64 312.54 144.05 324.87 C 133.75 335.93 122.54 346.12 112.19 357.14 C 126.62 371.89 141.19 386.53 156.00 400.91 C 167.32 390.55 177.38 378.87 188.90 368.74 C 199.98 374.86 211.65 379.81 223.85 383.20 C 224.33 399.10 223.72 415.01 224.08 430.92 C 244.69 431.07 265.31 431.07 285.91 430.91 C 286.36 415.10 285.50 399.26 286.29 383.46 C 299.27 380.51 311.45 375.07 323.09 368.74 C 334.62 378.88 344.69 390.56 356.02 400.92 C 370.48 386.28 385.31 371.95 399.46 357.00 C 389.43 345.82 378.09 335.90 367.93 324.85 C 374.32 312.52 380.51 299.96 383.46 286.29 C 399.26 285.50 415.10 286.36 430.92 285.92 C 431.07 265.31 431.07 244.69 430.92 224.08 C 415.01 223.72 399.10 224.32 383.19 223.86 C 379.75 211.28 374.56 199.30 368.19 187.95 C 378.24 176.89 389.56 167.07 399.53 155.93 C 385.52 140.85 370.38 126.80 355.86 112.19 C 344.93 122.41 334.87 133.52 323.91 143.71 C 312.32 137.28 300.15 131.85 287.23 128.68 C 286.58 112.82 287.33 96.95 286.92 81.08 C 266.31 80.93 245.69 80.94 225.08 81.08 Z"/><path fill="#212121" d=" M 247.39 172.45 C 281.66 168.42 316.97 188.13 331.59 219.37 C 347.26 250.56 340.44 291.08 315.39 315.40 C 291.08 340.45 250.55 347.26 219.37 331.59 C 187.57 316.74 167.80 280.44 172.65 245.67 C 176.65 207.79 209.44 175.68 247.39 172.45 M 208.19 229.75 C 216.63 238.69 225.81 246.90 234.08 256.00 C 225.87 265.29 216.25 273.23 208.18 282.64 C 212.93 287.47 217.64 292.34 222.74 296.81 C 236.12 282.79 250.83 270.12 264.09 256.01 C 250.84 241.89 236.12 229.22 222.74 215.19 C 217.60 219.75 212.73 224.59 208.19 229.75 M 255.19 229.74 C 263.64 238.68 272.82 246.89 281.09 256.00 C 272.82 265.11 263.65 273.33 255.19 282.25 C 259.74 287.40 264.60 292.26 269.75 296.81 C 283.14 282.80 297.84 270.11 311.10 256.00 C 297.83 241.90 283.14 229.20 269.75 215.19 C 264.61 219.75 259.74 224.60 255.19 229.74 Z"/></g><g><path fill="#00BFA5" d=" M 225.08 81.08 C 245.69 80.94 266.31 80.93 286.92 81.08 C 287.33 96.95 286.58 112.82 287.23 128.68 C 300.15 131.85 312.32 137.28 323.91 143.71 C 334.87 133.52 344.93 122.41 355.86 112.19 C 370.38 126.80 385.52 140.85 399.53 155.93 C 389.56 167.07 378.24 176.89 368.19 187.95 C 374.56 199.30 379.75 211.28 383.19 223.86 C 399.10 224.32 415.01 223.72 430.92 224.08 C 431.07 244.69 431.07 265.31 430.92 285.92 C 415.10 286.36 399.26 285.50 383.46 286.29 C 380.51 299.96 374.32 312.52 367.93 324.85 C 378.09 335.90 389.43 345.82 399.46 357.00 C 385.31 371.95 370.48 386.28 356.02 400.92 C 344.69 390.56 334.62 378.88 323.09 368.74 C 311.45 375.07 299.27 380.51 286.29 383.46 C 285.50 399.26 286.36 415.10 285.91 430.91 C 265.31 431.07 244.69 431.07 224.08 430.92 C 223.72 415.01 224.33 399.10 223.85 383.20 C 211.65 379.81 199.98 374.86 188.90 368.74 C 177.38 378.87 167.32 390.55 156.00 400.91 C 141.19 386.53 126.62 371.89 112.19 357.14 C 122.54 346.12 133.75 335.93 144.05 324.87 C 137.64 312.54 131.48 299.97 128.54 286.29 C 112.74 285.50 96.90 286.37 81.08 285.92 C 80.93 265.31 80.93 244.69 81.09 224.09 C 96.99 223.72 112.90 224.32 128.80 223.86 C 132.31 210.89 137.80 198.62 144.32 186.91 C 134.14 175.48 122.58 165.38 112.19 154.14 C 126.69 139.51 141.04 124.68 155.91 110.45 C 167.44 120.80 177.66 132.52 189.10 142.96 C 200.50 137.04 212.23 131.69 224.77 128.67 C 225.43 112.81 224.67 96.94 225.08 81.08 M 247.39 172.45 C 209.44 175.68 176.65 207.79 172.65 245.67 C 167.80 280.44 187.57 316.74 219.37 331.59 C 250.55 347.26 291.08 340.45 315.39 315.40 C 340.44 291.08 347.26 250.56 331.59 219.37 C 316.97 188.13 281.66 168.42 247.39 172.45 Z"/><path fill="#00BFA5" d=" M 208.19 229.75 C 212.73 224.59 217.60 219.75 222.74 215.19 C 236.12 229.22 250.84 241.89 264.09 256.01 C 250.83 270.12 236.12 282.79 222.74 296.81 C 217.64 292.34 212.93 287.47 208.18 282.64 C 216.25 273.23 225.87 265.29 234.08 256.00 C 225.81 246.90 216.63 238.69 208.19 229.75 Z"/><path fill="#00BFA5" d=" M 255.19 229.74 C 259.74 224.60 264.61 219.75 269.75 215.19 C 283.14 229.20 297.83 241.90 311.10 256.00 C 297.84 270.11 283.14 282.80 269.75 296.81 C 264.60 292.26 259.74 287.40 255.19 282.25 C 263.65 273.33 272.82 265.11 281.09 256.00 C 272.82 246.89 263.64 238.68 255.19 229.74 Z"/></g></svg>