<?xml version="1.0" encoding="UTF-8" standalone="no"?>
<svg
   clip-rule="evenodd"
   fill-rule="evenodd"
   stroke-linejoin="round"
   stroke-miterlimit="1.414"
   viewBox="0 0 500 500"
   version="1.1"
   id="svg1"
   sodipodi:docname="csharp.svg"
   inkscape:version="1.3 (0e150ed, 2023-07-21)"
   xmlns:inkscape="http://www.inkscape.org/namespaces/inkscape"
   xmlns:sodipodi="http://sodipodi.sourceforge.net/DTD/sodipodi-0.dtd"
   xmlns="http://www.w3.org/2000/svg"
   xmlns:svg="http://www.w3.org/2000/svg">
  <defs
     id="defs1" />
  <sodipodi:namedview
     id="namedview1"
     pagecolor="#ffffff"
     bordercolor="#000000"
     borderopacity="0.25"
     inkscape:showpageshadow="2"
     inkscape:pageopacity="0.0"
     inkscape:pagecheckerboard="0"
     inkscape:deskcolor="#d1d1d1"
     inkscape:zoom="1.73"
     inkscape:cx="250"
     inkscape:cy="250"
     inkscape:window-width="1392"
     inkscape:window-height="1212"
     inkscape:window-x="2240"
     inkscape:window-y="25"
     inkscape:window-maximized="0"
     inkscape:current-layer="svg1" />
  <path
     d="m 249.8131,25.001872 c -1.63403,0.01705 -3.26777,0.151635 -4.90037,0.401791 -1.63263,0.250136 -3.2643,0.61599 -4.89437,1.09691 -1.63006,0.480936 -3.2584,1.076593 -4.88478,1.786044 -1.62637,0.709469 -3.25084,1.532695 -4.87236,2.468442 -53.42446,30.821143 -106.82891,61.677979 -160.253342,92.499121 -1.59884,0.92309 -3.103905,1.90374 -4.513829,2.94179 -1.409924,1.03804 -2.724846,2.13353 -3.943753,3.28616 -1.218906,1.15263 -2.341514,2.36229 -3.367302,3.62913 -1.025787,1.26687 -1.954614,2.59069 -2.785182,3.97139 -0.854824,1.41999 -1.606317,2.90031 -2.252663,4.44085 -0.646345,1.54054 -1.187619,3.14151 -1.622357,4.80294 -0.434736,1.66142 -0.762836,3.38344 -0.982839,5.1661 -0.22,1.78267 -0.33197,3.62609 -0.334106,5.53032 -0.02508,18.25111 0.06699,57.9187 0.136052,96.09532 0.06907,38.17659 0.115146,74.86276 -0.0011,87.15018 -0.01957,2.06594 0.06802,4.06406 0.263957,5.99519 0.195934,1.93111 0.500236,3.79501 0.91481,5.59303 0.414576,1.79802 0.939236,3.52997 1.575589,5.19658 0.636353,1.6666 1.384312,3.26816 2.245577,4.80506 0.861264,1.5369 1.835819,3.00929 2.925131,4.41816 1.089313,1.40889 2.293401,2.75402 3.613897,4.03659 1.320498,1.28254 2.757415,2.50241 4.31223,3.6603 1.554818,1.15792 3.227858,2.25405 5.02013,3.28901 53.17542,30.6986 106.27652,61.5218 159.43524,92.25711 1.64984,0.95048 3.30217,1.7751 4.956,2.4759 1.65383,0.7008 3.30935,1.27762 4.96555,1.73183 1.65623,0.45421 3.31319,0.78595 4.97018,0.99666 1.65699,0.21071 3.31403,0.30039 4.97016,0.27067 1.61079,-0.0302 3.22137,-0.17303 4.8313,-0.42833 1.60992,-0.25531 3.21896,-0.62305 4.82668,-1.10225 1.60771,-0.47919 3.21404,-1.07001 4.81817,-1.77187 1.60413,-0.70186 3.20625,-1.51467 4.80544,-2.43797 0,0 106.80072,-61.66147 160.20619,-92.51859 1.63432,-0.94449 3.17048,-1.94863 4.60772,-3.01265 1.43726,-1.06404 2.77549,-2.18798 4.01319,-3.37157 1.23772,-1.18357 2.37518,-2.42664 3.41089,-3.72974 1.03569,-1.30309 1.96958,-2.66607 2.80076,-4.08867 0.81847,-1.39852 1.53778,-2.855 2.15631,-4.36929 0.61853,-1.51424 1.13631,-3.08647 1.5522,-4.71647 0.41587,-1.63002 0.72981,-3.31796 0.94032,-5.06371 0.2105,-1.74577 0.31751,-3.5494 0.31995,-5.41093 -0.0343,-61.39767 -0.17569,-122.79376 -0.17434,-184.19219 -3e-5,-2.06904 -0.1127,-4.06491 -0.33799,-5.98987 -0.22535,-1.92495 -0.5632,-3.77885 -1.01368,-5.56327 -0.45047,-1.78441 -1.0135,-3.49954 -1.68896,-5.14697 -0.67544,-1.64742 -1.4633,-3.22731 -2.36355,-4.7413 -0.90027,-1.51397 -1.91287,-2.96217 -3.03781,-4.34623 -1.12494,-1.38409 -2.36223,-2.70377 -3.71168,-3.96148 -1.34946,-1.25771 -2.81104,-2.45348 -4.38487,-3.58839 -1.57381,-1.13489 -3.26002,-2.20923 -5.05802,-3.22486 -10.69848,-6.04628 -42.44497,-24.427153 -75.4713,-43.572272 -33.02633,-19.145116 -67.33276,-39.054514 -83.15082,-48.157665 -1.62833,-0.937393 -3.25866,-1.753193 -4.89011,-2.448586 -1.63144,-0.695409 -3.2641,-1.270531 -4.89754,-1.726181 -1.63344,-0.455649 -3.2675,-0.791971 -4.90178,-1.010108 -1.63431,-0.218138 -3.26884,-0.318292 -4.90286,-0.301166 z m 1.23898,76.488848 0.002,0.001 c 3.43364,0 6.84023,0.11644 10.21565,0.34579 3.37541,0.22935 6.71987,0.57165 10.02963,1.02287 3.30973,0.45123 6.58505,1.01131 9.82166,1.67693 3.23656,0.6656 6.43469,1.43648 9.59063,2.30899 3.15596,0.87252 6.26981,1.84681 9.33768,2.91876 3.06784,1.07194 6.08972,2.2416 9.06203,3.50548 2.97226,1.26388 5.89481,2.6219 8.76403,4.07024 2.86928,1.44834 5.6854,2.987 8.44413,4.61232 2.75874,1.62533 5.46039,3.33762 8.10116,5.13245 2.64075,1.79482 5.22055,3.67234 7.73585,5.62917 2.51532,1.95684 4.96624,3.99294 7.34863,6.1043 2.38238,2.11137 4.69633,4.29797 6.93832,6.55639 2.24202,2.25842 4.41195,4.58853 6.50606,6.98651 2.09417,2.39799 4.11272,4.86425 6.05152,7.39433 1.93883,2.53007 3.7979,5.12405 5.57392,7.77873 1.68437,2.51769 3.28147,5.09849 4.81285,7.72169 l -64.62893,37.21105 c -0.79586,-1.34758 -1.63321,-2.66788 -2.51022,-3.95898 -0.87704,-1.29108 -1.79368,-2.55295 -2.74835,-3.78396 -0.95465,-1.23101 -1.94734,-2.43126 -2.97613,-3.59866 -1.02886,-1.16741 -2.09388,-2.30213 -3.19336,-3.40238 -1.09945,-1.10027 -2.23331,-2.16623 -3.3999,-3.19581 -1.16658,-1.02958 -2.36593,-2.02291 -3.59617,-2.97828 -1.23025,-0.9554 -2.49147,-1.87283 -3.78186,-2.75047 -1.29034,-0.87763 -2.60984,-1.71531 -3.95684,-2.51165 -1.34701,-0.79634 -2.7215,-1.55141 -4.12163,-2.26294 -1.4001,-0.71154 -2.82598,-1.37971 -4.27574,-2.00288 -1.44974,-0.62316 -2.92335,-1.20127 -4.41921,-1.73254 -1.49586,-0.53128 -3.01396,-1.01574 -4.55245,-1.45158 -1.53851,-0.43585 -3.09743,-0.82312 -4.67505,-1.15999 -1.57757,-0.33687 -3.17378,-0.6234 -4.78699,-0.85777 -1.61321,-0.23438 -3.24336,-0.41658 -4.88868,-0.54492 -1.64531,-0.12833 -3.30581,-0.20269 -4.97974,-0.22144 l -0.84432,-0.004 c -2.55245,0 -5.07458,0.12912 -7.56047,0.38159 -2.48587,0.25247 -4.93569,0.62813 -7.34261,1.12067 -2.40687,0.49255 -4.77123,1.10231 -7.08677,1.82254 -2.31551,0.72023 -4.582,1.55097 -6.79377,2.48651 -2.21177,0.93551 -4.36868,1.97588 -6.46427,3.11432 -2.09562,1.13842 -4.13015,2.37495 -6.0972,3.70389 -1.96706,1.32895 -3.86686,2.75026 -5.69296,4.25731 -1.82612,1.50706 -3.57872,3.10005 -5.25149,4.77283 -1.67279,1.67279 -3.26577,3.42536 -4.77282,5.25148 -1.50706,1.82612 -2.92802,3.72591 -4.25697,5.69296 -1.32893,1.96706 -2.56582,4.00127 -3.70423,6.09685 -1.13844,2.09561 -2.17846,4.25218 -3.11398,6.46392 -0.93553,2.21176 -1.76663,4.47897 -2.48686,6.79449 -0.72024,2.3155 -1.32963,4.67988 -1.82218,7.08678 -0.49255,2.40687 -0.86819,4.85636 -1.12067,7.34223 -0.25247,2.48586 -0.38193,5.00804 -0.38193,7.5605 -0.002,2.1345 0.0884,4.26734 0.27138,6.39199 0.18301,2.12462 0.45838,4.24145 0.82554,6.34415 0.36715,2.1027 0.82542,4.18723 1.37327,6.24815 0.54786,2.06092 1.18532,4.09826 1.91076,6.10572 0.72548,2.00748 1.5375,3.98144 2.43372,5.9165 0.89623,1.93509 1.8767,3.83135 2.93859,5.68305 0.79667,1.39076 1.63705,2.75317 2.51946,4.08546 0.8824,1.3323 1.80696,2.63441 2.77136,3.90444 0.96441,1.27002 1.96859,2.50809 3.01123,3.71204 1.04264,1.20394 2.12369,2.37386 3.24082,3.50797 1.11712,1.13407 2.2705,2.23211 3.45835,3.29252 1.18786,1.06043 2.4101,2.08317 3.66493,3.06615 1.25481,0.98297 2.54211,1.92631 3.86012,2.82807 1.31805,0.90174 2.66688,1.76156 4.04439,2.57826 1.37749,0.81672 2.78371,1.5903 4.21692,2.3182 1.43322,0.7279 2.89332,1.41046 4.37849,2.04575 1.48515,0.63529 2.99572,1.22343 4.52907,1.76231 1.53334,0.53887 3.0898,1.02848 4.66758,1.46717 1.57779,0.43869 3.17668,0.82601 4.79515,1.1607 1.61848,0.33471 3.25668,0.61703 4.91206,0.84395 1.65541,0.22693 3.32838,0.39907 5.01695,0.51444 1.68858,0.11538 3.39248,0.17397 5.11047,0.17397 1.72866,0 3.44344,-0.0596 5.14236,-0.17644 1.69891,-0.11676 3.38207,-0.2914 5.04741,-0.52119 1.66535,-0.22977 3.31317,-0.51465 4.94112,-0.8535 1.62798,-0.33886 3.23607,-0.73115 4.8228,-1.17524 1.58668,-0.44408 3.15181,-0.94012 4.69344,-1.48558 1.54166,-0.54545 3.06008,-1.14061 4.55281,-1.78357 1.49272,-0.64296 2.95976,-1.3336 4.39975,-2.07021 1.43996,-0.7366 2.85267,-1.51909 4.23604,-2.34546 1.3834,-0.82641 2.7377,-1.69646 4.06068,-2.60875 1.32298,-0.91232 2.61489,-1.86666 3.8736,-2.86101 1.2587,-0.99436 2.48425,-2.02901 3.67483,-3.10157 1.19061,-1.07257 2.34609,-2.18318 3.46474,-3.33011 1.11869,-1.1469 2.2004,-2.33027 3.24331,-3.54764 1.04289,-1.2174 2.04721,-2.46915 3.01052,-3.75315 0.96327,-1.28398 1.88583,-2.60019 2.76568,-3.94694 0.87986,-1.34673 1.71697,-2.72375 2.50953,-4.12941 l -0.30787,0.53927 64.54137,37.38965 c -1.58817,2.74837 -3.26171,5.44068 -5.01731,8.07424 -1.75558,2.63355 -3.5933,5.20846 -5.50906,7.71992 -1.91574,2.51143 -3.90955,4.95948 -5.97816,7.34153 -2.06865,2.38203 -4.21215,4.69789 -6.42636,6.94328 -2.21423,2.24536 -4.49934,4.42096 -6.85189,6.52239 -2.35253,2.10139 -4.77253,4.1286 -7.25615,6.07877 -2.48355,1.95018 -5.03073,3.82335 -7.63806,5.61502 -2.60736,1.79162 -5.27494,3.50197 -7.99876,5.12783 -2.72384,1.62584 -5.50408,3.16703 -8.33712,4.61975 -2.83304,1.45274 -5.7189,2.81704 -8.65388,4.08939 -2.93495,1.27232 -5.91937,2.45268 -8.94898,3.53737 -3.02966,1.08466 -6.1045,2.07402 -9.22146,2.96375 -3.11701,0.88971 -6.27594,1.67998 -9.47304,2.36744 -3.19707,0.68748 -6.43272,1.27196 -9.70259,1.74991 -3.26991,0.47794 -6.57413,0.84925 -9.90952,1.11038 -3.33542,0.26114 -6.70185,0.41221 -10.09554,0.44928 l -1.65424,0.0102 c -3.44448,0 -6.8616,-0.11725 -10.24753,-0.34792 -3.38593,-0.23076 -6.74058,-0.57494 -10.06045,-1.02892 -3.31983,-0.45396 -6.60488,-1.01791 -9.85106,-1.68752 -3.24617,-0.66965 -6.45364,-1.44507 -9.61864,-2.32282 -3.16497,-0.87777 -6.28765,-1.85782 -9.36388,-2.93613 -3.07624,-1.07833 -6.10618,-2.25503 -9.08612,-3.52638 -2.97994,-1.27135 -5.90992,-2.63716 -8.78602,-4.09398 -2.87609,-1.45681 -5.69855,-3.00485 -8.46325,-4.63962 -2.7647,-1.63473 -5.4717,-3.35636 -8.11746,-5.16148 -2.64574,-1.80513 -5.23007,-3.69382 -7.74933,-5.66177 -2.51926,-1.96797 -4.97369,-4.01542 -7.35888,-6.13868 -2.38521,-2.12323 -4.70145,-4.32222 -6.94507,-6.59324 -2.2436,-2.27099 -4.41445,-4.61395 -6.50891,-7.02511 -2.09446,-2.4112 -4.11268,-4.89055 -6.05044,-7.43437 -1.93777,-2.5438 -3.79507,-5.15234 -5.56859,-7.82126 -1.77352,-2.66891 -3.46305,-5.39831 -5.06477,-8.18475 -1.56382,-2.72062 -3.04428,-5.49536 -4.4373,-8.32083 -1.39303,-2.82546 -2.69881,-5.70185 -3.91399,-8.62518 -1.21518,-2.92329 -2.33987,-5.89372 -3.37014,-8.90789 -1.03029,-3.0142 -1.96633,-6.07205 -2.80466,-9.17009 -0.83833,-3.09803 -1.57897,-6.23649 -2.2183,-9.41138 -0.63933,-3.17487 -1.17739,-6.38661 -1.61067,-9.63137 -0.43327,-3.24476 -0.76162,-6.52255 -0.98178,-9.83017 -0.22015,-3.30762 -0.33198,-6.64487 -0.33198,-10.00837 0,-2.563 0.0648,-5.1112 0.19311,-7.64234 0.1283,-2.5311 0.32011,-5.04554 0.57361,-7.5417 0.25349,-2.49613 0.56863,-4.97381 0.94422,-7.43187 0.37558,-2.45805 0.81142,-4.89633 1.30596,-7.31318 0.49455,-2.41682 1.04808,-4.8124 1.6585,-7.18493 0.61041,-2.37252 1.27793,-4.72201 2.0011,-7.0471 0.72317,-2.32507 1.50205,-4.62588 2.33486,-6.90041 0.83281,-2.27454 1.71935,-4.52292 2.6587,-6.74382 0.93934,-2.22087 1.93126,-4.41423 2.97402,-6.57835 1.04277,-2.16413 2.13671,-4.2991 3.27979,-6.40334 1.14308,-2.10423 2.33535,-4.17784 3.57563,-6.21909 1.24028,-2.04126 2.5286,-4.05012 3.86297,-6.02529 1.33438,-1.97516 2.71504,-3.91666 4.14041,-5.82263 1.42535,-1.90594 2.89536,-3.77675 4.4086,-5.61039 1.51322,-1.83365 3.06959,-3.63004 4.66759,-5.38826 1.59799,-1.7582 3.23773,-3.47792 4.91738,-5.15759 1.67964,-1.67967 3.39941,-3.31936 5.15759,-4.91738 1.7582,-1.59802 3.55465,-3.1547 5.38826,-4.66795 1.83362,-1.51326 3.70445,-2.98322 5.61039,-4.4086 1.90595,-1.42539 3.84713,-2.80599 5.82228,-4.1404 1.97515,-1.33441 3.98403,-2.62265 6.02529,-3.86298 2.04125,-1.24031 4.11484,-2.43286 6.21909,-3.57597 2.10424,-1.14311 4.23955,-2.237 6.40369,-3.27979 2.16412,-1.04281 4.35745,-2.03465 6.57834,-2.97403 2.22091,-0.93938 4.46927,-1.82621 6.74383,-2.65905 2.27456,-0.83285 4.57531,-1.61168 6.90041,-2.33486 2.32512,-0.7232 4.67489,-1.39066 7.04746,-2.00111 2.37255,-0.61044 4.76802,-1.16392 7.18492,-1.6585 2.41689,-0.49456 4.85509,-0.93036 7.31319,-1.30595 2.45808,-0.3756 4.93599,-0.69107 7.43223,-0.94458 2.49622,-0.25351 5.01083,-0.44496 7.54207,-0.57326 2.53121,-0.12832 5.0792,-0.19346 7.6423,-0.19346 z M 355.3187,207.27375 h 10.53167 v 21.06301 h 21.063 v -21.06301 h 10.53168 v 21.06301 h 21.063 v 10.53167 h -21.063 v 21.06159 h 21.063 v 10.53167 h -21.063 v 21.063 h -10.53168 v -21.063 h -21.063 v 21.063 H 355.3187 v -21.063 h -21.06158 v -10.53167 h 21.06158 v -21.06159 h -21.06158 v -10.53167 h 21.06158 z m 10.53167,31.59327 v 21.063 h 21.063 v -21.063 z"
     style="display:inline;fill:#7e57c2;stroke-width:1.56324;fill-opacity:1"
     id="path33"
     inkscape:label="path1" />
</svg>
