<?xml version="1.0" encoding="utf-8"?>
<!-- Generator: Adobe Illustrator 28.3.0, SVG Export Plug-In . SVG Version: 6.00 Build 0)  -->
<svg version="1.1" id="Layer_1" xmlns="http://www.w3.org/2000/svg" xmlns:xlink="http://www.w3.org/1999/xlink" x="0px" y="0px"
	 viewBox="0 0 633 633" style="enable-background:new 0 0 633 633;" xml:space="preserve">
<style type="text/css">
	.st0{fill:#455A64;}
	.st1{fill:#E0E0E0;}
	.st2{fill:#263238;}
	.st3{fill:#78909C;}
</style>
<g>
	<path class="st0" d="M263.9,584.7c-28.8-16.7-86.9-50.2-129.2-74.6L58,465.8l0.2-149.5l0.3-149.4l129-74.5
		C283.1,37.1,316.9,18.1,318,18.8c0.8,0.5,59,34.1,129.3,74.7L575,167.2v149.3v149.2l-37.7,21.8c-20.8,12-78.1,45.1-127.3,73.5
		s-90.5,52.2-91.6,52.8C316.5,614.8,309.9,611.3,263.9,584.7z M389.2,500.9c39.2-22.6,71.8-41.6,72.4-42.3c1.3-1.3,3-49.1,1.7-48.3
		C346,478.1,319.7,493,316.9,493c-2.3,0-23.2-11.6-77.8-43.1c-41-23.7-74.9-43.6-75.3-44.2c-1-1.6-1-176.9,0-178.3
		c0.4-0.6,34.3-20.6,75.4-44.3c52.3-30.2,75.6-43.1,77.7-43.1c2,0,24.5,12.5,74.8,41.5l71.8,41.5l0.6-7.3c0.3-4,0.9-14.4,1.3-23.2
		l0.7-16L392.3,134c-40.5-23.4-74.7-42.5-75.8-42.4c-1.1,0-45.6,25.3-99,56.2l-97,56v112.7v112.7l97.5,56.4
		c53.6,31,98.1,56.3,98.7,56.4C317.4,542,350,523.5,389.2,500.9L389.2,500.9z M282.1,364c1.4-9.6,2.9-18.3,3.3-19.2
		c0.7-1.6,2.4-1.8,14.7-1.8H314v4.8c0,2.6-0.9,10.6-2,17.7c-2.7,18.3-3.5,16.5,6.5,16.5c4.7,0,8.5-0.1,8.6-0.2
		c0-0.2,1.3-8.8,2.7-19.3l2.7-19l11.8-0.3c6.4-0.1,11.7-0.4,11.7-0.5c0-0.2,0.5-3,1-6.3c0.6-3.2,1.3-7.3,1.6-9.1l0.5-3.2l-10.8-0.3
		l-10.8-0.3l0.1-9.8c0.1-5.4,0.6-10.8,1.2-12s1.2-3.1,1.4-4.2c0.3-1.8,1.2-2,11.1-2.3c12.4-0.3,12,0.1,13.2-11.5l0.7-6.7h-10.5
		h-10.6l-0.5-4.2c-0.4-2.5,0.4-11.1,1.7-20l2.4-15.8H338h-9.6l-2.3,17.3c-1.3,9.4-2.5,18.4-2.8,20l-0.5,2.7h-12.3h-12.3l-0.6-4.3
		c-0.4-2.5,0.2-10.2,1.4-18.7c1.1-8,2-15,2-15.7c0-1-2.4-1.3-9.3-1.3h-9.4l-2.8,20l-2.8,19.9l-10.6,0.3l-10.6,0.3l-0.7,5
		c-0.4,2.8-0.9,6.7-1.2,8.7l-0.6,3.7l9.7,0.3l9.8,0.3l0.3,3c0.5,4.1-1.6,20.5-3,23.3c-1.1,2.1-1.8,2.2-11,2.2
		c-5.4,0-9.8,0.3-9.8,0.8c0,0.4-0.6,4.6-1.4,9.5l-1.3,8.7h10.4c9.5,0,10.3,0.2,10.3,1.9c0,1.1-1.1,9.6-2.5,19.1s-2.5,17.4-2.5,17.6
		c0,0.3,3.9,0.3,8.8,0.2l8.7-0.3L282.1,364L282.1,364z M405.5,346.8c0.8-3.6,5.5-34.1,5.5-36.1c0-1.6-1-1.7-10.2-1.5l-10.2,0.3
		l-2.7,17.5c-3.9,24.7-4.8,22,7.1,22C404.5,349,405,348.9,405.5,346.8L405.5,346.8z M468.3,344.8c0.3-2.4,0.9-6.2,1.3-8.5l0.7-4.3
		h-14.7H441v-4.2c0-2.4,0.9-10.3,2.1-17.5l2.2-13.3h12h12l-0.7,9c-0.4,5-0.9,9.7-1.2,10.5c-0.8,1.9,2.9,2.1,4.3,0.3
		c0.9-1.1,4.3-20.2,4.3-23.7c0-0.8-7.9-1.1-24.5-1.1c-13.5,0-24.5,0.2-24.5,0.4c0,0.3-1.6,10.9-3.5,23.8c-2,12.8-3.9,25.4-4.2,28.1
		l-0.6,4.7h24.5h24.5L468.3,344.8L468.3,344.8z M501.2,336c0.9-6.9,2.2-16.2,2.8-20.7l1.2-8.3H518c7.1,0,13.1-0.3,13.3-0.7
		c0.3-0.5,0.8-3.6,1.2-7l0.7-6.3h-22.1c-12.2,0-22.1,0.4-22.1,0.9c0,0.4-1.8,12.9-4,27.7c-2.2,14.8-4,27-4,27.2c0,0.1,4.2,0.1,9.3,0
		l9.2-0.3L501.2,336L501.2,336z M413.5,293.8c0.2-0.7,1.1-5.3,1.8-10.1l1.4-8.8l-10.6,0.3l-10.6,0.3l-1.2,8
		c-1.8,12.7-2.7,11.5,8.7,11.5C410.2,295,413.2,294.6,413.5,293.8L413.5,293.8z"/>
	<path class="st0" d="M289.6,319.3c-0.7-5.6,1.3-22.5,2.8-23.5c0.6-0.4,7.4-0.8,15-0.8h13.9l-0.6,6.8c-0.3,3.7-1.1,10.2-1.8,14.5
		l-1.1,7.7H304h-13.7L289.6,319.3L289.6,319.3z"/>
</g>
<g>
	<path class="st1" d="M216.5,489.6l-99-57.4V316.5V200.8l99.4-57.4c54.7-31.6,99.7-57.4,100-57.4c0.4,0,34.8,19.8,76.6,43.9
		l75.9,43.9l-0.2,3.9c-0.1,2.1-0.7,14.4-1.3,27.3c-0.6,12.9-1.3,23.7-1.5,23.9c-0.1,0.1-33.9-19.1-74.9-42.8L316.9,143l-74.7,43.1
		c-41.1,23.8-75,43.7-75.4,44.3c-1,1.4-1,170.7,0,172.3c0.4,0.6,34.3,20.5,75.4,44.2l74.7,43.2l74.6-43.2
		c41.1-23.7,74.9-42.8,75.2-42.5c1,1-1,56.6-2.1,57.5c-2.6,2-146,84.4-147.5,84.7C316.2,546.7,271,521.1,216.5,489.6L216.5,489.6z"
		/>
</g>
<g>
	<path class="st2" d="M257.4,383.9c-0.3-0.6-0.1-1.5,0.6-1.9c0.8-0.5,1.1-1.9,0.7-3.9s-0.2-3.1,0.5-3.1s0.9-1.3,0.5-3.5
		s-0.2-3.5,0.5-3.5s0.8-1.3,0.5-3.5c-0.4-2.2-0.2-3.5,0.5-3.5s0.8-1.3,0.5-3.5c-0.4-2.2-0.2-3.5,0.5-3.5s0.8-1.3,0.5-3.4
		c-0.3-2.2-0.1-3.7,0.6-4c0.7-0.2-3.6-0.5-9.4-0.5l-10.7-0.1l-0.5-3.2c-0.2-1.8,0-3.6,0.6-3.9c0.5-0.4,0.7-2.1,0.4-3.8
		c-0.4-2-0.2-3.1,0.5-3.1s0.9-1.3,0.5-3.5c-0.3-1.9-0.2-3.5,0.4-3.5c0.5,0,0.9-0.9,0.9-2c0-1.9,0.7-2,9.8-2c9.4,0,9.9-0.1,11.2-2.4
		c0.7-1.4,1-3.6,0.6-5c-0.4-1.7-0.2-2.6,0.5-2.6c0.8,0,1-1.2,0.6-3.5c-0.3-2.1-0.2-3.5,0.4-3.5s0.9-1.2,0.7-2.7l-0.3-2.8l-9.6-0.3
		l-9.7-0.3l-0.4-4c-0.2-2.2,0-4.3,0.5-4.6c0.5-0.3,0.7-2.1,0.4-3.9c-0.4-2.1-0.2-3.4,0.5-3.4s0.8-1.3,0.5-3.4
		c-0.7-4.4-0.1-4.6,12.5-4.6h10.1l-0.6-3c-0.4-1.9-0.2-3,0.5-3s0.9-1.3,0.5-3.5s-0.2-3.5,0.5-3.5s0.8-1.3,0.5-3.5
		c-0.4-2.2-0.2-3.5,0.5-3.5s0.8-1.3,0.5-3.5c-0.4-2.2-0.2-3.5,0.5-3.5s0.8-1.3,0.5-3.5c-0.3-1.9-0.2-3.5,0.4-3.5
		c0.5,0,0.9-1.3,0.9-3v-3h13.5c12.7,0,13.5,0.1,13.5,1.9c0,1.1-0.4,2.2-0.9,2.5s-0.7,1.5-0.4,2.6c0.3,1.1,0.2,2.8-0.2,3.7
		c-0.5,1-0.7,2.8-0.6,4c0.1,1.3-0.1,2.8-0.5,3.5c-0.5,0.7-0.7,2.7-0.5,4.5c0.1,1.8-0.2,3.3-0.8,3.3c-0.6,0-0.7,1.4-0.4,3.4
		c0.3,1.8,0.1,3.6-0.4,3.9s-0.8,2-0.5,3.7l0.4,3h9.5c9,0,9.4-0.1,8.8-2c-0.4-1.2-0.2-2,0.6-2c0.8,0,1-1.1,0.6-3.5
		c-0.4-2.1-0.2-3.5,0.5-3.5c0.6,0,0.8-1.5,0.6-3.5c-0.2-1.9,0-3.5,0.5-3.5s0.7-1.8,0.4-4c-0.3-2.4-0.1-4,0.5-4
		c0.7,0,0.8-1.4,0.5-3.5c-0.4-2.2-0.2-3.5,0.5-3.5s0.8-1.3,0.5-3.5l-0.6-3.5h14H352v2.9c0,1.7-0.4,3.2-0.9,3.5s-0.7,1.5-0.4,2.6
		c0.3,1.1,0.2,2.8-0.2,3.7c-0.4,1-0.7,3-0.6,4.5c0.1,1.4-0.2,2.9-0.7,3.2c-0.6,0.3-0.8,1.5-0.5,2.6s0.2,2.8-0.2,3.7
		c-0.4,1-0.7,3-0.6,4.5c0.1,1.4-0.2,2.9-0.7,3.2c-0.5,0.3-0.7,1.7-0.4,3.1c0.4,2.5,0.4,2.5,11.8,2.5c11.3,0,11.4,0,11.4,2.3
		c0,1.3-0.3,2.7-0.7,3.1c-0.4,0.4-0.6,2.3-0.4,4.2c0.1,1.8-0.1,3.4-0.6,3.4s-0.7,1.6-0.5,3.5c0.3,2.3,0,3.5-0.8,3.5
		c-0.7,0-1,0.7-0.6,1.5c0.7,2-1.6,2.4-13.4,2.8c-8.6,0.2-9.5,0.4-9.8,2.2c-0.2,1.1-0.6,2.7-0.9,3.5s-0.5,2.5-0.4,3.7
		c0.1,1.3-0.1,2.8-0.5,3.4c-0.4,0.7-0.7,3-0.8,5.3l-0.1,4.1l11.1,0.3l11.1,0.3l0.1,3.9c0.1,2.1-0.2,4.1-0.7,4.4
		c-0.5,0.4-0.7,1.5-0.4,2.6c0.3,1.1,0.2,2.8-0.2,3.7c-0.4,1-0.7,3-0.6,4.6c0.2,1.5-0.2,2.7-0.8,2.7c-0.6,0-1.1,0.7-1.1,1.5
		c0,1.2-2.2,1.5-11.7,1.7l-11.8,0.3l0.3,3.2c0.2,1.7-0.1,3.4-0.6,3.7c-0.6,0.3-0.8,1.5-0.5,2.6s0.2,2.8-0.2,3.7
		c-0.4,1-0.7,3.3-0.6,5.1c0.2,1.7-0.2,3.2-0.7,3.2s-0.7,1.1-0.4,2.5c0.2,1.3,0.1,3.3-0.3,4.2c-0.4,1-0.7,3-0.6,4.5
		c0.1,1.4-0.3,2.9-0.9,3.3c-0.5,0.3-0.8,1.1-0.5,1.6c0.4,0.5-4.4,0.9-11.8,0.9c-12,0-12.5-0.1-13-2.2c-0.4-1.2-0.1-2.5,0.5-2.9
		s0.8-2,0.5-3.8c-0.4-2-0.2-3.1,0.5-3.1s0.9-1.3,0.5-3.5s-0.2-3.5,0.5-3.5s0.8-1.3,0.5-3.5c-0.4-2.2-0.2-3.5,0.5-3.5
		s0.8-1.3,0.5-3.5c-0.3-1.9-0.2-3.5,0.4-3.5c0.5,0,0.9-1.3,0.9-3v-3h-10.9c-12.1,0-12.6,0.3-12.2,6.8c0.2,1.8-0.2,3.2-0.8,3.2
		c-0.7,0-0.9,1-0.5,2.5c0.3,1.4,0.3,3.3-0.1,4.2c-0.4,1-0.7,3-0.6,4.5c0.1,1.4-0.2,2.9-0.7,3.2c-0.6,0.3-0.8,1.5-0.5,2.6
		s0.2,2.8-0.2,3.7c-0.5,1-0.7,2.9-0.6,4.2c0.2,1.3-0.3,2.8-1.1,3.2C280.8,385.4,258.2,385.2,257.4,383.9L257.4,383.9z M314.6,318.5
		c-0.4-1.6-0.2-2.5,0.5-2.5c0.8,0,1-1.2,0.6-3.5c-0.4-2.2-0.2-3.5,0.5-3.5s0.8-1.3,0.5-3.5c-0.3-1.9-0.2-3.5,0.4-3.5
		c0.5,0,0.9-0.9,0.9-2c0-1.9-0.7-2-10.4-2c-5.7,0-11.1,0.2-11.8,0.5c-0.9,0.4-1.3,1.7-1,4c0.2,2,0,3.5-0.6,3.5
		c-0.7,0-0.9,1.3-0.5,3.4c0.3,1.8,0.1,3.6-0.4,3.9s-0.7,2.2-0.5,4.1l0.4,3.6h11h11L314.6,318.5z"/>
</g>
<g>
	<path class="st3" d="M381.1,350.3c0-1,1.5-11.2,3.2-22.8l3.3-21l13.7-0.3c11.5-0.2,13.7,0,13.7,1.2c0,1.7-5.7,39.1-6.5,42.4
		c-0.5,2.1-0.9,2.2-14,2.2C382.3,352,381,351.8,381.1,350.3L381.1,350.3z"/>
	<path class="st3" d="M415,350.3c0-1,0.7-5.8,1.5-10.8c1.4-9.2,7.5-49.4,7.5-50.1c0-0.2,12.7-0.4,28.1-0.4h28.1l-0.5,3.3
		c-0.3,1.7-1.3,8.4-2.3,14.7c-0.9,6.3-2.1,12.1-2.7,12.8c-0.7,0.9-3.9,1.2-11.6,1l-10.6-0.3l-0.3-2.7c-0.3-2.8-0.3-2.8,5.7-2.8
		c6.7,0,6.5,0.3,7.6-9.3l0.6-5.7h-8.9h-8.9l-2.2,13.3c-1.2,7.2-2.1,13.8-2.1,14.5c0,0.9,3.7,1.2,15.1,1.2h15.1l-0.5,3.3
		c-0.4,1.7-1.2,6.9-1.8,11.5l-1.2,8.2h-27.9C417,352,415,351.9,415,350.3L415,350.3z"/>
	<path class="st3" d="M477.4,349.3c0.7-3.3,8.6-57.2,8.6-58.4c0-0.5,11.5-0.9,25.5-0.9c23.6,0,25.5,0.1,25.4,1.8
		c0,0.9-0.6,5.3-1.2,9.7l-1.2,8l-13.2,0.3l-13.1,0.3l-1.2,8.2c-0.6,4.5-1.9,13.8-2.8,20.7l-1.7,12.5l-12.8,0.3l-12.9,0.3
		L477.4,349.3z"/>
	<path class="st3" d="M389.6,297.2c-0.2-0.4,0.3-6.2,1.2-12.7l1.7-12l13.8-0.3l13.7-0.3l-0.1,2.8c0,1.5-0.8,7.3-1.7,12.8l-1.7,10
		l-13.2,0.3C396.1,297.9,389.9,297.7,389.6,297.2L389.6,297.2z"/>
</g>
</svg>
