<?xml version="1.0" encoding="utf-8"?>
<!DOCTYPE svg PUBLIC "-//W3C//DTD SVG 1.0//EN" "http://www.w3.org/TR/2001/REC-SVG-20010904/DTD/svg10.dtd">
<svg version="1.0" xmlns="http://www.w3.org/2000/svg" width="633px" height="633px" viewBox="0 0 633 633" preserveAspectRatio="xMidYMid meet">
 <g fill="#32576c">
  <path d="M263.9 584.7 c-28.8 -16.7 -86.9 -50.2 -129.2 -74.6 l-76.7 -44.3 0.2 -149.5 0.3 -149.4 129 -74.5 c95.6 -55.3 129.4 -74.3 130.5 -73.6 0.8 0.5 59 34.1 129.3 74.7 l127.7 73.7 0 149.3 0 149.2 -37.7 21.8 c-20.8 12 -78.1 45.1 -127.3 73.5 -49.2 28.4 -90.5 52.2 -91.6 52.8 -1.9 1 -8.5 -2.5 -54.5 -29.1z m125.3 -83.8 c39.2 -22.6 71.8 -41.6 72.4 -42.3 1.3 -1.3 3 -49.1 1.7 -48.3 -117.3 67.8 -143.6 82.7 -146.4 82.7 -2.3 0 -23.2 -11.6 -77.8 -43.1 -41 -23.7 -74.9 -43.6 -75.3 -44.2 -1 -1.6 -1 -176.9 0 -178.3 0.4 -0.6 34.3 -20.6 75.4 -44.3 52.3 -30.2 75.6 -43.1 77.7 -43.1 2 0 24.5 12.5 74.8 41.5 l71.8 41.5 0.6 -7.3 c0.3 -4 0.9 -14.4 1.3 -23.2 l0.7 -16 -73.8 -42.5 c-40.5 -23.4 -74.7 -42.5 -75.8 -42.4 -1.1 0 -45.6 25.3 -99 56.2 l-97 56 0 112.7 0 112.7 97.5 56.4 c53.6 31 98.1 56.3 98.7 56.4 0.7 0 33.3 -18.5 72.5 -41.1z m-107.1 -136.9 c1.4 -9.6 2.9 -18.3 3.3 -19.2 0.7 -1.6 2.4 -1.8 14.7 -1.8 l13.9 0 0 4.8 c0 2.6 -0.9 10.6 -2 17.7 -2.7 18.3 -3.5 16.5 6.5 16.5 4.7 0 8.5 -0.1 8.6 -0.2 0 -0.2 1.3 -8.8 2.7 -19.3 l2.7 -19 11.8 -0.3 c6.4 -0.1 11.7 -0.4 11.7 -0.5 0 -0.2 0.5 -3 1 -6.3 0.6 -3.2 1.3 -7.3 1.6 -9.1 l0.5 -3.2 -10.8 -0.3 -10.8 -0.3 0.1 -9.8 c0.1 -5.4 0.6 -10.8 1.2 -12 0.6 -1.2 1.2 -3.1 1.4 -4.2 0.3 -1.8 1.2 -2 11.1 -2.3 12.4 -0.3 12 0.1 13.2 -11.5 l0.7 -6.7 -10.5 0 -10.6 0 -0.5 -4.2 c-0.4 -2.5 0.4 -11.1 1.7 -20 l2.4 -15.8 -9.7 0 -9.6 0 -2.3 17.3 c-1.3 9.4 -2.5 18.4 -2.8 20 l-0.5 2.7 -12.3 0 -12.3 0 -0.6 -4.3 c-0.4 -2.5 0.2 -10.2 1.4 -18.7 1.1 -8 2 -15 2 -15.7 0 -1 -2.4 -1.3 -9.3 -1.3 l-9.4 0 -2.8 20 -2.8 19.9 -10.6 0.3 -10.6 0.3 -0.7 5 c-0.4 2.8 -0.9 6.7 -1.2 8.7 l-0.6 3.7 9.7 0.3 9.8 0.3 0.3 3 c0.5 4.1 -1.6 20.5 -3 23.3 -1.1 2.1 -1.8 2.2 -11 2.2 -5.4 0 -9.8 0.3 -9.8 0.8 0 0.4 -0.6 4.6 -1.4 9.5 l-1.3 8.7 10.4 0 c9.5 0 10.3 0.2 10.3 1.9 0 1.1 -1.1 9.6 -2.5 19.1 -1.4 9.5 -2.5 17.4 -2.5 17.6 0 0.3 3.9 0.3 8.8 0.2 l8.7 -0.3 2.6 -17.5z m123.4 -17.2 c0.8 -3.6 5.5 -34.1 5.5 -36.1 0 -1.6 -1 -1.7 -10.2 -1.5 l-10.2 0.3 -2.7 17.5 c-3.9 24.7 -4.8 22 7.1 22 9.5 0 10 -0.1 10.5 -2.2z m62.8 -2 c0.3 -2.4 0.9 -6.2 1.3 -8.5 l0.7 -4.3 -14.7 0 -14.6 0 0 -4.2 c0 -2.4 0.9 -10.3 2.1 -17.5 l2.2 -13.3 12 0 12 0 -0.7 9 c-0.4 5 -0.9 9.7 -1.2 10.5 -0.8 1.9 2.9 2.1 4.3 0.3 0.9 -1.1 4.3 -20.2 4.3 -23.7 0 -0.8 -7.9 -1.1 -24.5 -1.1 -13.5 0 -24.5 0.2 -24.5 0.4 0 0.3 -1.6 10.9 -3.5 23.8 -2 12.8 -3.9 25.4 -4.2 28.1 l-0.6 4.7 24.5 0 24.5 0 0.6 -4.2z m32.9 -8.8 c0.9 -6.9 2.2 -16.2 2.8 -20.7 l1.2 -8.3 12.8 0 c7.1 0 13.1 -0.3 13.3 -0.7 0.3 -0.5 0.8 -3.6 1.2 -7 l0.7 -6.3 -22.1 0 c-12.2 0 -22.1 0.4 -22.1 0.9 0 0.4 -1.8 12.9 -4 27.7 -2.2 14.8 -4 27 -4 27.2 0 0.1 4.2 0.1 9.3 0 l9.2 -0.3 1.7 -12.5z m-87.7 -42.2 c0.2 -0.7 1.1 -5.3 1.8 -10.1 l1.4 -8.8 -10.6 0.3 -10.6 0.3 -1.2 8 c-1.8 12.7 -2.7 11.5 8.7 11.5 7.2 0 10.2 -0.4 10.5 -1.2z"/>
  <path d="M289.6 319.3 c-0.7 -5.6 1.3 -22.5 2.8 -23.5 0.6 -0.4 7.4 -0.8 15 -0.8 l13.9 0 -0.6 6.8 c-0.3 3.7 -1.1 10.2 -1.8 14.5 l-1.1 7.7 -13.8 0 -13.7 0 -0.7 -4.7z"/>
 </g>
 <g fill="#d8d9d9">
  <path d="M216.5 489.6 l-99 -57.4 0 -115.7 0 -115.7 99.4 -57.4 c54.7 -31.6 99.7 -57.4 100 -57.4 0.4 0 34.8 19.8 76.6 43.9 l75.9 43.9 -0.2 3.9 c-0.1 2.1 -0.7 14.4 -1.3 27.3 -0.6 12.9 -1.3 23.7 -1.5 23.9 -0.1 0.1 -33.9 -19.1 -74.9 -42.8 l-74.6 -43.1 -74.7 43.1 c-41.1 23.8 -75 43.7 -75.4 44.3 -1 1.4 -1 170.7 0 172.3 0.4 0.6 34.3 20.5 75.4 44.2 l74.7 43.2 74.6 -43.2 c41.1 -23.7 74.9 -42.8 75.2 -42.5 1 1 -1 56.6 -2.1 57.5 -2.6 2 -146 84.4 -147.5 84.7 -0.9 0.1 -46.1 -25.5 -100.6 -57z"/>
 </g>
 <g fill="#0c2b3e">
  <path d="M257.4 383.9 c-0.3 -0.6 -0.1 -1.5 0.6 -1.9 0.8 -0.5 1.1 -1.9 0.7 -3.9 -0.4 -2 -0.2 -3.1 0.5 -3.1 0.7 0 0.9 -1.3 0.5 -3.5 -0.4 -2.2 -0.2 -3.5 0.5 -3.5 0.7 0 0.8 -1.3 0.5 -3.5 -0.4 -2.2 -0.2 -3.5 0.5 -3.5 0.7 0 0.8 -1.3 0.5 -3.5 -0.4 -2.2 -0.2 -3.5 0.5 -3.5 0.7 0 0.8 -1.3 0.5 -3.4 -0.3 -2.2 -0.1 -3.7 0.6 -4 0.7 -0.2 -3.6 -0.5 -9.4 -0.5 l-10.7 -0.1 -0.5 -3.2 c-0.2 -1.8 0 -3.6 0.6 -3.9 0.5 -0.4 0.7 -2.1 0.4 -3.8 -0.4 -2 -0.2 -3.1 0.5 -3.1 0.7 0 0.9 -1.3 0.5 -3.5 -0.3 -1.9 -0.2 -3.5 0.4 -3.5 0.5 0 0.9 -0.9 0.9 -2 0 -1.9 0.7 -2 9.8 -2 9.4 0 9.9 -0.1 11.2 -2.4 0.7 -1.4 1 -3.6 0.6 -5 -0.4 -1.7 -0.2 -2.6 0.5 -2.6 0.8 0 1 -1.2 0.6 -3.5 -0.3 -2.1 -0.2 -3.5 0.4 -3.5 0.6 0 0.9 -1.2 0.7 -2.7 l-0.3 -2.8 -9.6 -0.3 -9.7 -0.3 -0.4 -4 c-0.2 -2.2 0 -4.3 0.5 -4.6 0.5 -0.3 0.7 -2.1 0.4 -3.9 -0.4 -2.1 -0.2 -3.4 0.5 -3.4 0.7 0 0.8 -1.3 0.5 -3.4 -0.7 -4.4 -0.1 -4.6 12.5 -4.6 l10.1 0 -0.6 -3 c-0.4 -1.9 -0.2 -3 0.5 -3 0.7 0 0.9 -1.3 0.5 -3.5 -0.4 -2.2 -0.2 -3.5 0.5 -3.5 0.7 0 0.8 -1.3 0.5 -3.5 -0.4 -2.2 -0.2 -3.5 0.5 -3.5 0.7 0 0.8 -1.3 0.5 -3.5 -0.4 -2.2 -0.2 -3.5 0.5 -3.5 0.7 0 0.8 -1.3 0.5 -3.5 -0.3 -1.9 -0.2 -3.5 0.4 -3.5 0.5 0 0.9 -1.3 0.9 -3 l0 -3 13.5 0 c12.7 0 13.5 0.1 13.5 1.9 0 1.1 -0.4 2.2 -0.9 2.5 -0.5 0.3 -0.7 1.5 -0.4 2.6 0.3 1.1 0.2 2.8 -0.2 3.7 -0.5 1 -0.7 2.8 -0.6 4 0.1 1.3 -0.1 2.8 -0.5 3.5 -0.5 0.7 -0.7 2.7 -0.5 4.5 0.1 1.8 -0.2 3.3 -0.8 3.3 -0.6 0 -0.7 1.4 -0.4 3.4 0.3 1.8 0.1 3.6 -0.4 3.9 -0.5 0.3 -0.8 2 -0.5 3.7 l0.4 3 9.5 0 c9 0 9.4 -0.1 8.8 -2 -0.4 -1.2 -0.2 -2 0.6 -2 0.8 0 1 -1.1 0.6 -3.5 -0.4 -2.1 -0.2 -3.5 0.5 -3.5 0.6 0 0.8 -1.5 0.6 -3.5 -0.2 -1.9 0 -3.5 0.5 -3.5 0.5 0 0.7 -1.8 0.4 -4 -0.3 -2.4 -0.1 -4 0.5 -4 0.7 0 0.8 -1.4 0.5 -3.5 -0.4 -2.2 -0.2 -3.5 0.5 -3.5 0.7 0 0.8 -1.3 0.5 -3.5 l-0.6 -3.5 14 0 13.9 0 0 2.9 c0 1.7 -0.4 3.2 -0.9 3.5 -0.5 0.3 -0.7 1.5 -0.4 2.6 0.3 1.1 0.2 2.8 -0.2 3.7 -0.4 1 -0.7 3 -0.6 4.5 0.1 1.4 -0.2 2.9 -0.7 3.2 -0.6 0.3 -0.8 1.5 -0.5 2.6 0.3 1.1 0.2 2.8 -0.2 3.7 -0.4 1 -0.7 3 -0.6 4.5 0.1 1.4 -0.2 2.9 -0.7 3.2 -0.5 0.3 -0.7 1.7 -0.4 3.1 0.4 2.5 0.4 2.5 11.8 2.5 11.3 0 11.4 0 11.4 2.3 0 1.3 -0.3 2.7 -0.7 3.1 -0.4 0.4 -0.6 2.3 -0.4 4.2 0.1 1.8 -0.1 3.4 -0.6 3.4 -0.5 0 -0.7 1.6 -0.5 3.5 0.3 2.3 0 3.5 -0.8 3.5 -0.7 0 -1 0.7 -0.6 1.5 0.7 2 -1.6 2.4 -13.4 2.8 -8.6 0.2 -9.5 0.4 -9.8 2.2 -0.2 1.1 -0.6 2.7 -0.9 3.5 -0.3 0.8 -0.5 2.5 -0.4 3.7 0.1 1.3 -0.1 2.8 -0.5 3.4 -0.4 0.7 -0.7 3 -0.8 5.3 l-0.1 4.1 11.1 0.3 11.1 0.3 0.1 3.9 c0.1 2.1 -0.2 4.1 -0.7 4.4 -0.5 0.4 -0.7 1.5 -0.4 2.6 0.3 1.1 0.2 2.8 -0.2 3.7 -0.4 1 -0.7 3 -0.6 4.6 0.2 1.5 -0.2 2.7 -0.8 2.7 -0.6 0 -1.1 0.7 -1.1 1.5 0 1.2 -2.2 1.5 -11.7 1.7 l-11.8 0.3 0.3 3.2 c0.2 1.7 -0.1 3.4 -0.6 3.7 -0.6 0.3 -0.8 1.5 -0.5 2.6 0.3 1.1 0.2 2.8 -0.2 3.7 -0.4 1 -0.7 3.3 -0.6 5.1 0.2 1.7 -0.2 3.2 -0.7 3.2 -0.5 0 -0.7 1.1 -0.4 2.5 0.2 1.3 0.1 3.3 -0.3 4.2 -0.4 1 -0.7 3 -0.6 4.5 0.1 1.4 -0.3 2.9 -0.9 3.3 -0.5 0.3 -0.8 1.1 -0.5 1.6 0.4 0.5 -4.4 0.9 -11.8 0.9 -12 0 -12.5 -0.1 -13 -2.2 -0.4 -1.2 -0.1 -2.5 0.5 -2.9 0.6 -0.4 0.8 -2 0.5 -3.8 -0.4 -2 -0.2 -3.1 0.5 -3.1 0.7 0 0.9 -1.3 0.5 -3.5 -0.4 -2.2 -0.2 -3.5 0.5 -3.5 0.7 0 0.8 -1.3 0.5 -3.5 -0.4 -2.2 -0.2 -3.5 0.5 -3.5 0.7 0 0.8 -1.3 0.5 -3.5 -0.3 -1.9 -0.2 -3.5 0.4 -3.5 0.5 0 0.9 -1.3 0.9 -3 l0 -3 -10.9 0 c-12.1 0 -12.6 0.3 -12.2 6.8 0.2 1.8 -0.2 3.2 -0.8 3.2 -0.7 0 -0.9 1 -0.5 2.5 0.3 1.4 0.3 3.3 -0.1 4.2 -0.4 1 -0.7 3 -0.6 4.5 0.1 1.4 -0.2 2.9 -0.7 3.2 -0.6 0.3 -0.8 1.5 -0.5 2.6 0.3 1.1 0.2 2.8 -0.2 3.7 -0.5 1 -0.7 2.9 -0.6 4.2 0.2 1.3 -0.3 2.8 -1.1 3.2 -2 1.3 -24.6 1.1 -25.4 -0.2z m57.2 -65.4 c-0.4 -1.6 -0.2 -2.5 0.5 -2.5 0.8 0 1 -1.2 0.6 -3.5 -0.4 -2.2 -0.2 -3.5 0.5 -3.5 0.7 0 0.8 -1.3 0.5 -3.5 -0.3 -1.9 -0.2 -3.5 0.4 -3.5 0.5 0 0.9 -0.9 0.9 -2 0 -1.9 -0.7 -2 -10.4 -2 -5.7 0 -11.1 0.2 -11.8 0.5 -0.9 0.4 -1.3 1.7 -1 4 0.2 2 0 3.5 -0.6 3.5 -0.7 0 -0.9 1.3 -0.5 3.4 0.3 1.8 0.1 3.6 -0.4 3.9 -0.5 0.3 -0.7 2.2 -0.5 4.1 l0.4 3.6 11 0 11 0 -0.6 -2.5z"/>
 </g>
 <g fill="#758f9f">
  <path d="M381.1 350.3 c0 -1 1.5 -11.2 3.2 -22.8 l3.3 -21 13.7 -0.3 c11.5 -0.2 13.7 0 13.7 1.2 0 1.7 -5.7 39.1 -6.5 42.4 -0.5 2.1 -0.9 2.2 -14 2.2 -12.2 0 -13.5 -0.2 -13.4 -1.7z"/>
  <path d="M415 350.3 c0 -1 0.7 -5.8 1.5 -10.8 1.4 -9.2 7.5 -49.4 7.5 -50.1 0 -0.2 12.7 -0.4 28.1 -0.4 l28.1 0 -0.5 3.3 c-0.3 1.7 -1.3 8.4 -2.3 14.7 -0.9 6.3 -2.1 12.1 -2.7 12.8 -0.7 0.9 -3.9 1.2 -11.6 1 l-10.6 -0.3 -0.3 -2.7 c-0.3 -2.8 -0.3 -2.8 5.7 -2.8 6.7 0 6.5 0.3 7.6 -9.3 l0.6 -5.7 -8.9 0 -8.9 0 -2.2 13.3 c-1.2 7.2 -2.1 13.8 -2.1 14.5 0 0.9 3.7 1.2 15.1 1.2 l15.1 0 -0.5 3.3 c-0.4 1.7 -1.2 6.9 -1.8 11.5 l-1.2 8.2 -27.9 0 c-25.8 0 -27.8 -0.1 -27.8 -1.7z"/>
  <path d="M477.4 349.3 c0.7 -3.3 8.6 -57.2 8.6 -58.4 0 -0.5 11.5 -0.9 25.5 -0.9 23.6 0 25.5 0.1 25.4 1.8 0 0.9 -0.6 5.3 -1.2 9.7 l-1.2 8 -13.2 0.3 -13.1 0.3 -1.2 8.2 c-0.6 4.5 -1.9 13.8 -2.8 20.7 l-1.7 12.5 -12.8 0.3 -12.9 0.3 0.6 -2.8z"/>
  <path d="M389.6 297.2 c-0.2 -0.4 0.3 -6.2 1.2 -12.7 l1.7 -12 13.8 -0.3 13.7 -0.3 -0.1 2.8 c0 1.5 -0.8 7.3 -1.7 12.8 l-1.7 10 -13.2 0.3 c-7.2 0.1 -13.4 -0.1 -13.7 -0.6z"/>
 </g>
</svg>