<svg xmlns="http://www.w3.org/2000/svg" viewBox="0 0 607.13 607.13"><style>.st0{fill:#455A64;}.st1{fill:#E0E0E0;}.st2{fill:#78909C;}.st3{fill:#263238;}</style><polygon class="st0" points="55,447.1 55,160.1 303.6,16.6 552.1,160.1 552.1,447.1 303.6,590.5"/><polyline class="st1" points="448.1,386.8 303.9,470 159.7,386.8 159.7,220.3 303.9,137.1 447.7,220.1 450.4,166.8 303.9,82.2 112.2,192.9 112.2,414.2 303.9,524.9 446.8,442.4"/><polygon class="st2" points="399.7,285.4 373,285.4 376.7,261 403.4,261"/><path class="st3" d="M323,331.7l-5.5,39h-24.1l5.5-39h-21.6l-5.5,39h-24.2l5.6-39h-20.2l3.3-23.6h20.2l3-21.7h-20.1l3.2-23.6h20.2 l5.4-38.3h25.6l-5.4,38.3h18.7l5.4-38.3h25.6l-5.4,38.3h22.6l-3.3,23.6h-22.6l-3.1,21.7h22.6l-3.3,23.6L323,331.7z M305.3,286.4 h-21.8l-3,21.7h21.6L305.3,286.4z"/><polygon class="st2" points="365.1,337.7 391.6,337.7 398.4,294 371.8,294"/><polygon class="st2" points="466.4,278 515.3,278 512.5,297.6 487.5,297.6 481.9,337.7 457.6,337.7"/><polygon class="st2" points="460.6,277.3 406.9,277.3 397.7,337.7 451.5,337.7 454.8,315.8 425.5,315.8 425.5,315.8 426.8,307.5 430.1,287.7 447.2,287.7 445.3,302 433.7,302 432.9,307.4 456,307.5"/></svg>