<svg version="1.1" viewBox="0 0 24 24" xmlns="http://www.w3.org/2000/svg"><path d="m13 9h5.5l-5.5-5.5v5.5m-7-7h8l6 6v12a2 2 0 0 1 -2 2h-12c-1.11 0-2-.9-2-2v-16c0-1.11.89-2 2-2m9 16v-2h-9v2h9m3-4v-2h-12v2h12z" fill="#757575" style="fill:#757575"/><path d="m13.617 12.991-.36081 1.854h7.5437l-.24424 1.199h-7.5381l-.36636 1.8484h7.5437l-.42187 2.1149-3.0419 1.0047-2.6367-1.0047.18318-.91035h-1.854l-.43852 2.2204 4.3574 1.6653 5.0236-1.6653.66611-3.3472.13322-.67166.85484-4.3075z" style="fill:#42a5f5;stroke-width:.55509"/></svg>
