<svg xmlns="http://www.w3.org/2000/svg" viewBox="0 0 16 16"><g fill="#6A1B9A"><path d="M11.473 5.159v1.263h1.263v6.315H6.419v-1.263H5.158v2.527h8.841V5.159h-2.526z"/><path d="M9.427 2H2v7.427c0 .781.633 1.415 1.415 1.415h6.012c.781 0 1.415-.633 1.415-1.415V3.414A1.415 1.415 0 0 0 9.427 2zm-3.33 5.886h-.654v-.114c0-.121-.027-.211-.078-.269a.23.23 0 0 0-.191-.092c-.106 0-.182.036-.224.11a.696.696 0 0 0-.06.324v1.293c0 .27.095.407.284.41a.23.23 0 0 0 .201-.096.454.454 0 0 0 .068-.269v-.096h.653v.101c0 .21-.041.385-.123.525a.771.771 0 0 1-.337.315 1.068 1.068 0 0 1-.485.104c-.28 0-.503-.076-.668-.229-.165-.151-.246-.379-.246-.68V7.736c0-.299.087-.526.261-.682.176-.154.407-.232.693-.232.278 0 .496.08.659.237.164.159.247.394.247.709v.118zm1.801 2.001c-.161.164-.386.246-.672.246s-.505-.083-.659-.251c-.151-.168-.23-.408-.237-.722h.617c.003.278.101.417.292.417.097 0 .167-.031.206-.092.04-.061.059-.159.059-.292a.447.447 0 0 0-.077-.265.639.639 0 0 0-.26-.187l-.229-.11c-.204-.098-.352-.213-.443-.347-.089-.134-.133-.322-.133-.562 0-.268.078-.486.233-.654.16-.167.377-.251.654-.251.268 0 .475.082.621.246.151.165.228.4.234.709H7.51a.638.638 0 0 0-.06-.292c-.033-.067-.099-.101-.196-.101-.174 0-.261.104-.261.31 0 .105.021.186.064.248a.57.57 0 0 0 .224.154l.219.097c.226.104.389.23.489.384.101.152.151.356.151.611 0 .305-.081.54-.242.704zm1.993 0c-.161.164-.386.246-.672.246s-.505-.083-.659-.251c-.151-.168-.23-.408-.237-.722h.617c.004.277.101.416.292.416.098 0 .167-.031.207-.092a.557.557 0 0 0 .059-.292.44.44 0 0 0-.078-.265.643.643 0 0 0-.26-.186l-.229-.11c-.204-.098-.352-.213-.443-.347-.089-.134-.133-.322-.133-.562 0-.268.078-.486.233-.654.16-.167.377-.251.654-.251.268 0 .475.082.622.246.149.165.227.4.233.709h-.594a.638.638 0 0 0-.06-.292c-.033-.067-.099-.101-.196-.101-.174 0-.261.104-.261.31 0 .105.021.186.064.248a.57.57 0 0 0 .224.154l.219.096c.226.104.389.23.489.384.101.152.151.356.151.611 0 .306-.08.541-.242.705z"/></g></svg>