<svg xmlns="http://www.w3.org/2000/svg" viewBox="0 0 32 32"><path fill="#7e57c2" d="M20 18h-2v-2h-2v2c0 .193 0 .703 1.254 1.033A3.345 3.345 0 0 1 20 22h2v2h2v-2c0-.388-.562-.851-1.254-1.034C20.356 20.34 20 18.84 20 18m-3.254 2.966C14.356 20.34 14 18.84 14 18h-2v-2h-2v8h2v-2h4v2h2v-2c0-.388-.562-.851-1.254-1.034"/><path fill="#7e57c2" d="M24 4H4v20a4 4 0 0 0 4 4h16.16A3.84 3.84 0 0 0 28 24.16V8a4 4 0 0 0-4-4m2 14h-2v-2h-2v2c0 .193 0 .703 1.254 1.033A3.345 3.345 0 0 1 26 22v2a2 2 0 0 1-2 2h-2a2 2 0 0 1-2-2 2 2 0 0 1-2 2h-2a2 2 0 0 1-2-2 2 2 0 0 1-2 2h-2a2 2 0 0 1-2-2v-8a2 2 0 0 1 2-2h2a2 2 0 0 1 2 2 2 2 0 0 1 2-2h2a2 2 0 0 1 2 2 2 2 0 0 1 2-2h2a2 2 0 0 1 2 2Z"/></svg>