<svg version="1.0" xmlns="http://www.w3.org/2000/svg" viewBox="0 0 16 16"><path d="M12.079 2H2v10.079c0 1.06.86 1.92 1.92 1.92h8.159c1.06 0 1.92-.86 1.92-1.92V3.92A1.92 1.92 0 0 0 12.079 2zM7.56 9.988h-.887v-.155c0-.165-.036-.286-.106-.365a.32.32 0 0 0-.26-.124c-.144 0-.247.049-.304.149a.95.95 0 0 0-.081.44v1.755c0 .367.129.553.385.557.12 0 .21-.043.273-.13a.626.626 0 0 0 .093-.365v-.131h.887v.137c0 .285-.055.523-.167.713a1.07 1.07 0 0 1-.458.428 1.454 1.454 0 0 1-.658.142c-.38 0-.682-.103-.906-.31-.224-.205-.335-.514-.335-.923V9.785c0-.406.118-.714.354-.926.24-.209.554-.315.942-.315.377 0 .674.108.894.322.222.216.334.536.334.962v.16zm2.445 2.716c-.219.222-.523.334-.912.334s-.686-.113-.894-.34c-.206-.228-.313-.554-.322-.98h.837c.005.376.137.565.397.565.132 0 .226-.042.279-.125.054-.083.081-.215.081-.397a.59.59 0 0 0-.105-.359.88.88 0 0 0-.354-.254l-.31-.149c-.277-.132-.478-.288-.602-.471-.12-.182-.18-.436-.18-.762 0-.364.106-.66.316-.887.217-.227.511-.34.888-.34.363 0 .645.112.842.334.205.224.309.543.318.962h-.806a.863.863 0 0 0-.081-.397c-.046-.092-.135-.137-.267-.137-.236 0-.354.141-.354.421 0 .142.029.252.087.337a.779.779 0 0 0 .304.209l.297.131c.307.141.528.313.664.521.136.207.204.483.204.829.001.414-.108.732-.327.955zm2.705 0c-.219.222-.523.334-.912.334s-.686-.113-.894-.34c-.206-.228-.313-.554-.323-.98h.838c.005.376.137.565.397.565.132 0 .226-.042.28-.125.053-.083.081-.215.081-.397a.59.59 0 0 0-.106-.359.88.88 0 0 0-.354-.254l-.31-.149c-.277-.132-.478-.288-.602-.471-.12-.182-.18-.436-.18-.762 0-.364.106-.66.316-.887.217-.227.511-.34.888-.34.364 0 .645.112.844.334.202.224.308.543.317.962h-.806a.863.863 0 0 0-.081-.397c-.046-.091-.135-.137-.267-.137-.236 0-.354.141-.354.421 0 .142.029.252.087.337a.779.779 0 0 0 .304.209l.297.131c.307.141.528.313.664.521.137.207.205.483.205.829-.001.414-.109.732-.329.955z" style="fill:#639"/></svg>