<?xml version="1.0" encoding="UTF-8"?>
<svg width="33" height="33" version="1.1" viewBox="0 0 33 33" xmlns="http://www.w3.org/2000/svg">
 <title>cucumber-mark-transparent-pips</title>
 <g transform="translate(0,-5)" fill="none" fill-rule="evenodd">
  <path d="m-4-1h40v40h-40z"/>
  <path d="m16.641 7.0924c-7.0281 0-12.714 5.6857-12.714 12.714 0 6.1865 4.4349 11.327 10.288 12.471v3.6398c7.6089-1.1475 14.346-7.1873 14.848-15.117 0.3028-4.7718-2.0761-9.6439-6.0894-12.01a10.575 10.575 0 0 0 -1.4558 -0.72828l-0.24302-0.097052c-0.22283-0.0823-0.44799-0.17469-0.67936-0.24224a12.614 12.614 0 0 0 -3.9543 -0.63123zm2.6204 4.7066a1.3875 1.3875 0 0 0 -1.2135 0.48526c-0.23292 0.31057-0.37889 0.61104-0.53417 0.92238-0.46585 1.087-0.31057 2.2516 0.38821 3.1057 1.087-0.23293 2.0094-0.92704 2.4752-2.014 0.15528-0.31057 0.24302-0.70887 0.24302-1.0194 0.04814-0.82455-0.63433-1.4053-1.3587-1.4798zm-5.6539 0.07298c-0.70887 0.06755-1.3828 0.63045-1.3828 1.4069 0 0.31057 0.08774 0.70887 0.24302 1.0194 0.46585 1.087 1.4597 1.7803 2.5466 2.014 0.62113-0.85406 0.78185-2.0187 0.316-3.1057-0.15528-0.31057-0.30047-0.61648-0.53417-0.8494a1.3642 1.3642 0 0 0 -1.1879 -0.48526zm-3.8091 3.7353c-1.2244 0.06289-1.771 1.6017-0.75235 2.4022 0.31057 0.23292 0.61182 0.40296 0.92238 0.55824 1.087 0.46584 2.344 0.3059 3.2749-0.31523-0.23293-1.0093-1.0233-1.9364-2.1103-2.4022-0.38821-0.15528-0.70343-0.24302-1.0916-0.24302-0.087734-0.0093-0.16149-0.0039-0.24302 0zm11.961 4.7074a3.5513 3.5513 0 0 0 -2.0132 0.58231c0.23292 1.0093 1.0233 1.9356 2.1103 2.4015 0.38821 0.15528 0.70421 0.24302 1.0924 0.24302 1.3975 0.07765 2.0808-1.6499 0.99381-2.4263-0.31057-0.23292-0.61104-0.37889-0.92161-0.53417a3.3541 3.3541 0 0 0 -1.2617 -0.26632zm-10.603 0.0722c-0.42703 0.0086-0.85406 0.09317-1.2617 0.26709-0.38821 0.15528-0.68946 0.32532-0.92238 0.55824-1.0093 0.85406-0.32998 2.4799 1.0676 2.4022 0.38821 0 0.78185-0.08774 1.0924-0.24302 1.087-0.46584 1.8587-1.3921 2.014-2.4014a3.4745 3.4745 0 0 0 -1.99 -0.58231zm3.931 2.3782c-1.087 0.23293-2.0094 0.92704-2.4752 2.014-0.15528 0.31057-0.24302 0.68402-0.24302 0.99459-0.07765 1.3199 1.7236 2.0288 2.5001 1.0194 0.23292-0.31057 0.37811-0.61182 0.5334-0.92238 0.46585-1.0093 0.30591-2.174-0.31522-3.1057zm2.8867 0.07298c-0.62113 0.85406-0.78107 2.0187-0.31522 3.1057 0.15528 0.31056 0.30047 0.6157 0.53417 0.84862 0.85406 0.9317 2.6491 0.24302 2.5715-0.92161 0-0.31057-0.08774-0.70887-0.24302-1.0194-0.46585-1.087-1.4597-1.7803-2.5466-2.0132z" fill="#4caf50" stroke-width=".77642"/>
  <text transform="translate(-4,-1)" fill="#ffffff" font-family="Roboto" font-size="10px"/>
 </g>
</svg>
