<svg xmlns="http://www.w3.org/2000/svg" viewBox="0 0 32 32">
  <g>
    <path d="M12.49634,10.1601c-.18408,0-.314.01074-.49634.02154V12a7.43072,7.43072,0,0,1,.99115-.06165,7.33467,7.33467,0,0,1,5.33533,2.45655l-2.72071,2.15649c-1.21313-1.92285-1.56817-2.7677-3.60577-3.001v5.46888a4.76428,4.76428,0,0,0,1.48572.23358c3.96911,0,7.66748-4.8465,7.66748-4.8465S17.72583,10.00439,12.49634,10.1601Z" style="fill: #76b900"/>
    <path d="M3.27417,14.62836h.00018A12.46191,12.46191,0,0,1,12,10.18353V8.715c-6.407.48889-12,5.60205-12,5.60205s3.202,8.55908,12,9.33728V22.01251C5.54565,21.25665,3.27417,14.62836,3.27417,14.62836Z" style="fill: #76b900"/>
    <path d="M12,13.53918V12a11.17,11.17,0,0,0-6.2995,2.82837S7.124,19.61938,12,20.44183V19.019a6.48442,6.48442,0,0,1-3.72-3.91266A5.03614,5.03614,0,0,1,12,13.53918Z" style="fill: #76b900"/>
    <path d="M12,5.97437V8.7149l.49634-.03332C19.76343,8.44812,24.50983,14.306,24.50983,14.306S19.06842,20.5531,13.40326,20.5531A8.43558,8.43558,0,0,1,12,20.43079V22a10.74045,10.74045,0,0,0,1.18939.10822c5.27649,0,9.059-2.47779,12.75739-5.479.61255.467,3.12115,1.58966,3.63928,2.07868-3.50983,2.77893-11.6955,5.01324-16.336,5.01324A11.47113,11.47113,0,0,1,12,23.65454V26H32V6Z" style="fill: #76b900"/>
  </g>
</svg>
