<?xml version="1.0" encoding="utf-8"?>
<!-- Generator: Adobe Illustrator 24.0.0, SVG Export Plug-In . SVG Version: 6.00 Build 0)  -->
<svg version="1.2" baseProfile="tiny" id="Layer_1" xmlns="http://www.w3.org/2000/svg" xmlns:xlink="http://www.w3.org/1999/xlink"
	 x="0px" y="0px" viewBox="0 0 24 24" xml:space="preserve">
<path fill="#29B6F6" d="M12,5c3.9,0,7,3.1,7,7s-3.1,7-7,7s-7-3.1-7-7S8.1,5,12,5 M12,3c-5,0-9,4-9,9s4,9,9,9s9-4,9-9S17,3,12,3L12,3
	z"/>
<path fill="#29B6F6" d="M12,7.3c2.6,0,4.7,2.1,4.7,4.7s-2.1,4.7-4.7,4.7S7.3,14.6,7.3,12S9.4,7.3,12,7.3 M12,6.3
	c-3.2,0-5.7,2.6-5.7,5.7s2.6,5.7,5.7,5.7s5.7-2.6,5.7-5.7S15.2,6.3,12,6.3L12,6.3z"/>
</svg>
