<?xml version="1.0" encoding="UTF-8" standalone="no"?>
<svg
   xmlns:dc="http://purl.org/dc/elements/1.1/"
   xmlns:cc="http://creativecommons.org/ns#"
   xmlns:rdf="http://www.w3.org/1999/02/22-rdf-syntax-ns#"
   xmlns:svg="http://www.w3.org/2000/svg"
   xmlns="http://www.w3.org/2000/svg"
   height="24"
   width="24"
   xml:space="preserve"
   viewBox="0 0 24 24"
   y="0px"
   x="0px"
   id="Layer_1"
   version="1.1"><metadata
   id="metadata15"><rdf:RDF><cc:Work
       rdf:about=""><dc:format>image/svg+xml</dc:format><dc:type
         rdf:resource="http://purl.org/dc/dcmitype/StillImage" /><dc:title></dc:title></cc:Work></rdf:RDF></metadata><defs
   id="defs13" />
<style
   id="style2"
   type="text/css">
	.st0{fill-rule:evenodd;clip-rule:evenodd;fill:#4A4A4D;stroke:#FFFFFF;stroke-miterlimit:10;}
	.st1{fill-rule:evenodd;clip-rule:evenodd;fill:#FFFFFF;}
</style>


<g
   id="g828"><path
     class="st0"
     d="m 12,2.1785712 c 5.428571,0 9.821429,4.392858 9.821429,9.8214288 0,5.428572 -4.392858,9.821429 -9.821429,9.821429 C 6.571429,21.821429 2.178571,17.428572 2.178571,12 2.178571,6.5714292 6.571429,2.1785712 12,2.1785712 Z"
     id="path4"
     style="clip-rule:evenodd;fill:#4a4a4d;fill-rule:evenodd;stroke:none;stroke-width:0.35714287;stroke-miterlimit:10" /><path
     class="st1"
     d="m 17.214286,16.321429 c -0.357143,1.107143 -0.892857,1.928571 -1.642857,2.535714 -0.75,0.607143 -1.75,0.928571 -3,1.035714 L 12.321429,18.25 C 13.142857,18.142857 13.75,17.964286 14.142857,17.678572 14.285714,17.571429 14.571429,17.25 14.571429,17.25 v 0 L 11.607143,7.7500002 h 2.464286 l 1.714285,7.1071428 1.821429,-7.1071428 H 20 Z"
     id="path6"
     style="clip-rule:evenodd;fill:#ffffff;fill-rule:evenodd;stroke-width:0.35714287" /><path
     class="st1"
     d="m 8.607143,7.4285712 c 0.571428,0 1.107143,0.07143 1.535714,0.25 0.464286,0.178572 0.892857,0.428572 1.321429,0.785715 l -1,1.357143 c -0.285715,-0.214286 -0.571429,-0.357143 -0.821429,-0.464286 -0.25,-0.107143 -0.571428,-0.142857 -0.857143,-0.142857 -1.214285,0 -1.821428,0.9285708 -1.821428,2.8214278 0,0.964286 0.142857,1.642858 0.464285,2.035715 0.321429,0.428571 0.75,0.607143 1.357143,0.607143 0.285715,0 0.571429,-0.03571 0.821429,-0.142858 0.25,-0.107142 0.535714,-0.25 0.892857,-0.464285 L 11.5,15.5 c -0.821429,0.678572 -1.75,1 -2.821429,1 -0.857142,0 -1.571428,-0.178571 -2.214285,-0.535714 -0.607143,-0.357143 -1.107143,-0.892857 -1.428572,-1.571429 -0.321428,-0.678571 -0.5,-1.464286 -0.5,-2.392857 0,-0.892857 0.178572,-1.714286 0.5,-2.3928568 0.321429,-0.714286 0.821429,-1.25 1.428572,-1.642857 0.607143,-0.321429 1.321428,-0.535715 2.142857,-0.535715 z"
     id="path8"
     style="clip-rule:evenodd;fill:#ffffff;fill-rule:evenodd;stroke-width:0.35714287" /></g>
</svg>