<svg viewBox="0 0 24 24" fill="none" xmlns="http://www.w3.org/2000/svg">
  <path
    d="M2.244 14.185C2.008 13.327 2 12.877 2 11.979 2 7.88 4.574 4.133 8.406 2.655l.503 1.3C5.61 5.228 3.395 8.452 3.395 11.98c0 .774.007 1.16.21 1.899l-1.361.307Z"
    fill="#69F0AE" />
  <path
    d="M8.406 2.655a9.473 9.473 0 0 1 2.53-.599c4.075-.428 8.016 1.62 9.887 5.276l-1.236.644c-1.61-3.147-4.998-4.901-8.506-4.533-.77.081-1.46.234-2.172.512l-.503-1.3Z"
    fill="#69F0AE" />
  <path
    d="M17.7 18.364c2-2.082 3.07-4.372 2.826-7.151a8.606 8.606 0 0 0-.94-3.237l1.237-.644c.608 1.17.942 2.437 1.092 3.76.283 2.483-.758 6.023-3.049 8.105l-1.166-.833ZM13.096 19.47l-.34.823a.452.452 0 0 1-.395.28c-.115.004-.23.007-.347.007-3.997-.002-7.533-2.82-8.41-6.702l-1.36.307a10.029 10.029 0 0 0 3.475 5.567A10.057 10.057 0 0 0 12 21.974h.02c.134 0 .267-.003.4-.009a1.85 1.85 0 0 0 1.628-1.143l.444-1.074-1.395-.277Z"
    fill="#69F0AE" />
  <path
    d="M9.029 9.917c.808 0 1.467.431 1.806 1.184l.026.058 1.359-.46-.03-.07C11.666 9.348 10.454 8.55 9.03 8.55c-1.002 0-1.816.322-2.489.98-.668.656-1.007 1.48-1.007 2.45 0 .963.339 1.782 1.007 2.437.673.66 1.487.98 2.489.98 1.424 0 2.636-.796 3.162-2.076l.029-.07-1.36-.462-.026.061c-.304.74-.978 1.182-1.805 1.182-.564 0-1.04-.197-1.417-.584-.381-.393-.574-.886-.574-1.466 0-.585.189-1.069.574-1.48.376-.39.853-.586 1.417-.586Z"
    fill="#263238" />
  <path
    d="m17.536 8.678-1.935 4.898-1.949-4.898h-1.594l2.733 6.685-2.796 6.604a1.84 1.84 0 0 0 2.05-1.108l4.998-12.181h-1.507Z"
    fill="#263238" />
</svg>