<svg width="24" height="24" viewBox="0 0 24 24" fill="none" xmlns="http://www.w3.org/2000/svg">
<path fill-rule="evenodd" clip-rule="evenodd" d="M24 12.2107C24 5.69447 18.727 0.421448 12.2107 0.421448C5.69448 0.421448 0.421463 5.69447 0.421463 12.2107C0.421463 18.727 5.69448 24 12.2107 24C18.727 24 24 18.727 24 12.2107ZM16.4977 20.4418C17.398 19.713 18.0411 18.727 18.4698 17.398L21.8136 7.10922H18.9413L16.755 15.6404L14.6972 7.10922H11.7392L15.2974 18.5127C15.2974 18.5127 14.9544 18.8985 14.7829 19.0271C14.3114 19.3701 13.5826 19.5844 12.5966 19.713L12.8967 21.685C14.3971 21.5564 15.5975 21.1706 16.4977 20.4418ZM9.98149 7.02348C9.46705 6.80913 8.824 6.72339 8.13808 6.72339C7.15207 6.72339 6.29467 6.98061 5.56588 7.36644C4.83709 7.83801 4.23691 8.48106 3.85108 9.33846C3.46525 10.153 3.25089 11.139 3.25089 12.2108C3.25089 13.3254 3.46525 14.2685 3.85108 15.0831C4.23691 15.8976 4.83709 16.5406 5.56588 16.9693C6.33754 17.398 7.19494 17.6124 8.22382 17.6124C9.50992 17.6124 10.6245 17.2266 11.6106 16.412L10.4102 14.6972C9.98149 14.9544 9.63853 15.1259 9.33844 15.2545C9.03835 15.3831 8.69539 15.426 8.35243 15.426C7.62364 15.426 7.1092 15.2117 6.72337 14.6972C6.33754 14.2256 6.16606 13.4111 6.16606 12.2536C6.16606 9.98151 6.89485 8.86689 8.35243 8.86689C8.69539 8.86689 9.08122 8.90976 9.38131 9.03837C9.68141 9.16698 10.0244 9.33846 10.3673 9.59568L11.5677 7.96662C11.0532 7.53792 10.5388 7.23783 9.98149 7.02348Z" fill="#66BB6A"/>
</svg>
