<svg version="1.0" viewBox="0 0 24 24" xmlns="http://www.w3.org/2000/svg"><path d="m 11.998,2 c -5.527,0 -9.998,4.473 -9.998,10 a 9.993,9.993 0 0 0 10,10 C 17.528,22 22,17.527 22,12 21.999,6.473 17.49,2 11.998,2 Z M 7.308,14.146 c 0.327,0.436 0.763,0.618 1.381,0.618 0.292,0 0.583,-0.037 0.837,-0.146 0.255,-0.108 0.546,-0.255 0.908,-0.473 l 1.019,1.454 c -0.836,0.692 -1.782,1.018 -2.873,1.018 -0.873,0 -1.6,-0.182 -2.254,-0.545 A 3.661,3.661 0 0 1 4.872,14.473 C 4.545,13.782 4.363,12.982 4.363,12.036 c 0,-0.908 0.182,-1.745 0.508,-2.436 A 3.852,3.853 0 0 1 6.328,7.928 C 6.945,7.528 7.708,7.346 8.545,7.346 c 0.583,0 1.128,0.072 1.564,0.254 a 4.7,4.7 0 0 1 1.345,0.8 L 10.436,9.782 A 3.988,3.988 0 0 0 9.6,9.308 C 9.346,9.2 9.018,9.163 8.727,9.163 c -1.236,0 -1.854,0.945 -1.854,2.872 -0.036,0.983 0.146,1.673 0.437,2.11 h -8.334e-4 z m 10,2.254 c -0.363,1.128 -0.909,1.964 -1.673,2.582 -0.763,0.619 -1.782,0.946 -3.054,1.055 l -0.254,-1.708 c 0.836,-0.11 1.454,-0.292 1.854,-0.583 0.145,-0.108 0.437,-0.436 0.437,-0.436 L 11.599,7.637 h 2.508 l 1.746,7.236 1.855,-7.236 h 2.436 z" fill="#1565c0"/></svg>