<?xml version="1.0" encoding="utf-8"?>
<svg version="1.1" id="Layer_1" xmlns="http://www.w3.org/2000/svg" xmlns:xlink="http://www.w3.org/1999/xlink" x="0px" y="0px"
	 viewBox="-408 583.5 24 24" style="enable-background:new -408 583.5 24 24;" xml:space="preserve">
<style type="text/css">
	.st0{fill:#3C78AA;}
	.st1{fill:#FDD835;}
</style>
<g>
	<g transform="translate(-1.5418e-7 -.00046865)">
		<g>
			<path class="st0" d="M-395.2,586.4c-1.4,0-2.6,1.2-2.6,2.6v1.6h3.7c0.4,0,0.6,0.5,0.6,0.9h-6.6c-1.4,0-2.6,1.2-2.6,2.6l0,3
				c0,1.4,1.2,2.6,2.6,2.6h1l0-1.8c0-1.4,1.2-2.7,2.6-2.7h4.8c1.4,0,2.6-1.2,2.6-2.6V589c0-1.4-1.2-2.6-2.6-2.6H-395.2z
				 M-395.8,587.9c0.4,0,0.6,0.1,0.6,0.6s-0.3,0.8-0.6,0.8s-0.6-0.3-0.6-0.8S-396.2,587.9-395.8,587.9z"/>
			<path class="st1" d="M-387.8,591.5v1.8c0,1.4-1.2,2.7-2.6,2.7h-4.8c-1.4,0-2.6,1.2-2.6,2.6v3.5c0,1.4,1.2,2.6,2.6,2.6l0,0h3.9
				c1.4,0,2.6-1.2,2.6-2.6l0,0v-1.6h-3.9c-0.4,0-0.6-0.5-0.6-0.9h6.6c1.4,0,2.6-1.2,2.6-2.6l0,0l0-3c0-1.4-1.2-2.6-2.6-2.6H-387.8z
				 M-396.7,595.1L-396.7,595.1L-396.7,595.1L-396.7,595.1z M-390.7,601.8c0.4,0,0.6,0.3,0.6,0.8c0,0.4-0.3,0.6-0.6,0.6
				s-0.6-0.1-0.6-0.6S-391.1,601.8-390.7,601.8z"/>
		</g>
	</g>
	<path class="st1" d="M-400.5,590.6h1.5c0-1.3,0.1-2.3-0.5-3.1c-0.5-0.6-1.2-1-2.1-1c-2.2,0-2.9,0-3.9,0c-0.7,0-1.5,0.5-1.9,1.1
		c-0.5,0.7-0.5,1.4-0.5,3c0,1.6,0,8.5,0,9.9c0,1.6-0.2,2.4,0.5,3.2c0.5,0.5,1.1,1,2,1c0.9,0,3,0,3.9,0c0.9,0,1.8-0.5,2.2-1.3
		c0.4-0.6,0.4-1,0.3-2.9h-1.4c-1.8,0-3.3-1-3.3-2.8v-4.2C-403.7,591.6-402.4,590.6-400.5,590.6z M-401,587.9c0.4,0,0.6,0.1,0.6,0.6
		c0,0.5-0.3,0.8-0.6,0.8c-0.4,0-0.6-0.3-0.6-0.8C-401.6,588.1-401.4,587.9-401,587.9z"/>
</g>
</svg>
