<?xml version="1.0" encoding="UTF-8" standalone="no"?>
<svg
   viewBox="0 0 24 24"
   version="1.1"
   id="svg10"
   sodipodi:docname="dart_generated.svg"
   inkscape:version="1.1.2 (b8e25be8, 2022-02-05)"
   xmlns:inkscape="http://www.inkscape.org/namespaces/inkscape"
   xmlns:sodipodi="http://sodipodi.sourceforge.net/DTD/sodipodi-0.dtd"
   xmlns="http://www.w3.org/2000/svg"
   xmlns:svg="http://www.w3.org/2000/svg">
  <defs
     id="defs14" />
  <sodipodi:namedview
     id="namedview12"
     pagecolor="#ffffff"
     bordercolor="#666666"
     borderopacity="1.0"
     inkscape:pageshadow="2"
     inkscape:pageopacity="0.0"
     inkscape:pagecheckerboard="0"
     showgrid="false"
     inkscape:zoom="36.375"
     inkscape:cx="9.6907216"
     inkscape:cy="11.092784"
     inkscape:window-width="1296"
     inkscape:window-height="1081"
     inkscape:window-x="354"
     inkscape:window-y="27"
     inkscape:window-maximized="0"
     inkscape:current-layer="svg10" />
  <path
     d="m 12.618,1.566 a 0.978,0.978 0 0 0 -0.682,0.281 l -0.01,0.007 -6.388,3.692 6.372,6.372 v 0.004 l 7.658,7.659 1.46,-2.63 -5.264,-12.64 -2.457,-2.457 a 0.972,0.972 0 0 0 -0.69,-0.288 z"
     id="path2"
     style="display:inline;fill:#9e9e9e;fill-opacity:1" />
  <path
     d="m 5.553,5.531 -3.69,6.383 -0.007,0.01 a 0.967,0.967 0 0 0 0.006,1.371 l 3.058,3.061 11.963,4.706 2.705,-1.502 -0.073,-0.073 -0.019,0.002 -7.5,-7.512 H 11.987 L 5.553,5.53 Z"
     id="path4"
     style="display:inline;fill:#424242" />
  <path
     d="m 5.537,5.534 6.518,6.525 h 0.01 l 7.501,7.51 2.856,-0.544 0.004,-8.449 -3.015,-2.955 C 18.751,6.974 17.736,6.557 16.716,6.419 L 16.718,6.387 5.538,5.535 Z"
     id="path6"
     style="display:inline;fill:#424242" />
  <path
     d="m 5.545,5.542 6.522,6.522 v 0.009 l 7.506,7.506 -0.546,2.855 H 10.578 L 7.624,19.417 c -0.647,-0.66 -1.063,-1.676 -1.2,-2.696 l -0.033,0.003 z"
     id="path8"
     style="display:inline;fill:#9e9e9e;stroke:none;stroke-width:0;stroke-miterlimit:4;stroke-dasharray:none;fill-opacity:1" />
</svg>
