<svg xmlns="http://www.w3.org/2000/svg" viewBox="0 0 32 32">
  <g>
    <path d="M16.82983,2a1.31377,1.31377,0,0,0-.91579.377l-.01343.00939L7.32282,7.34023,15.87913,15.89v.00536l10.28315,10.2766,1.96049-3.52885L21.05428,5.68315,17.755,2.38643A1.30569,1.30569,0,0,0,16.82849,2Z" style="fill: #90a4ae"/>
    <path d="M7.343,7.32011,2.388,15.88461l-.0094.01342A1.29677,1.29677,0,0,0,2.382,17.733l.00468.00464L6.493,21.84474l16.0639,6.31436,3.63227-2.01534-.098-.098-.02551.00269-10.071-10.07936h-.01208L7.343,7.31877Z" style="fill: #455a64"/>
    <path d="M7.32147,7.32413l8.75237,8.755h.01342L26.1596,26.15584l3.835-.72992L30,14.08932,25.95146,10.1244a6.52432,6.52432,0,0,0-3.61884-1.6128l.00269-.04294L7.32282,7.32547Z" style="fill: #455a64"/>
    <path d="M7.33222,7.33487l8.75773,8.751V16.098l10.079,10.0713L25.43583,30H14.09052L10.1239,25.95189a6.50676,6.50676,0,0,1-1.61136-3.61741l-.04432.004Z" style="fill: #90a4ae"/>
  </g>
</svg>
