<?xml version="1.0" encoding="UTF-8" standalone="no"?>
<svg
   viewBox="0 0 24 24"
   version="1.1"
   id="svg10"
   sodipodi:docname="dart_generated.svg"
   inkscape:version="1.1.2 (b8e25be8, 2022-02-05)"
   xmlns:inkscape="http://www.inkscape.org/namespaces/inkscape"
   xmlns:sodipodi="http://sodipodi.sourceforge.net/DTD/sodipodi-0.dtd"
   xmlns="http://www.w3.org/2000/svg"
   xmlns:svg="http://www.w3.org/2000/svg">
  <defs
     id="defs14" />
  <sodipodi:namedview
     id="namedview12"
     pagecolor="#ffffff"
     bordercolor="#666666"
     borderopacity="1.0"
     inkscape:pageshadow="2"
     inkscape:pageopacity="0.0"
     inkscape:pagecheckerboard="0"
     showgrid="false"
     inkscape:zoom="36.375"
     inkscape:cx="12.934708"
     inkscape:cy="11.092784"
     inkscape:window-width="1296"
     inkscape:window-height="1081"
     inkscape:window-x="354"
     inkscape:window-y="55"
     inkscape:window-maximized="0"
     inkscape:current-layer="svg10" />
  <path
     d="M12.618 1.566a.978.978 0 0 0-.682.281l-.01.007-6.388 3.692 6.372 6.372v.004l7.658 7.659 1.46-2.63-5.264-12.64-2.457-2.457a.972.972 0 0 0-.69-.288z"
     fill="#66C3FA"
     id="path2"
     style="fill:#9e9e9e;fill-opacity:1" />
  <path
     d="m5.553 5.531-3.69 6.383-.007.01a.967.967 0 0 0 .006 1.371l3.058 3.061 11.963 4.706 2.705-1.502-.073-.073-.019.002-7.5-7.512h-.009L5.553 5.53z"
     fill="#215896"
     id="path4"
     style="fill:#424242" />
  <path
     d="m5.537 5.534 6.518 6.525h.01l7.501 7.51 2.856-.544.004-8.449-3.015-2.955c-.66-.647-1.675-1.064-2.695-1.202l.002-.032-11.18-.852z"
     fill="#235997"
     id="path6"
     style="fill:#424242" />
  <path
     d="m5.545 5.542 6.522 6.522v.009l7.506 7.506-.546 2.855h-8.449l-2.954-3.017c-.647-.66-1.063-1.676-1.2-2.696l-.033.003-.846-11.182z"
     fill="#58B6F0"
     id="path8"
     style="fill:#808080" />
  <path
     style="fill:#9e9e9e;fill-opacity:1;stroke-width:0.0274914"
     d="M 9.3846576,21.189003 C 7.5283778,19.296798 7.4238058,19.185587 7.2342872,18.902104 6.9121107,18.420192 6.6704156,17.837325 6.5324723,17.209622 6.4925985,17.028179 6.4474394,16.830241 6.4321186,16.769759 6.409761,16.681499 5.5513824,5.6227536 5.5653205,5.6025435 c 0.00216,-0.00314 3.1518825,3.1420366 6.9993755,6.9892755 l 6.995441,6.994979 -0.18187,0.941996 c -0.100028,0.518098 -0.222289,1.155398 -0.271691,1.416223 l -0.08982,0.474227 h -4.212607 -4.212607 z"
     id="path7531" />
</svg>
