<?xml version="1.0" encoding="UTF-8"?>
<svg version="1.1" viewBox="0 0 24 24" xmlns="http://www.w3.org/2000/svg">
 <g>
  <path d="m12.618 1.566a0.978 0.978 0 0 0-0.682 0.281l-0.01 7e-3 -6.388 3.692 6.372 6.372v4e-3l7.658 7.659 1.46-2.63-5.264-12.64-2.457-2.457a0.972 0.972 0 0 0-0.69-0.288z" fill="#90a4ae"/>
  <path d="m5.553 5.531-3.69 6.383-7e-3 0.01a0.967 0.967 0 0 0 6e-3 1.371l3.058 3.061 11.963 4.706 2.705-1.502-0.073-0.073-0.019 2e-3 -7.5-7.512h-9e-3l-6.434-6.447z" fill="#455a64"/>
  <path d="m5.537 5.534 6.518 6.525h0.01l7.501 7.51 2.856-0.544 4e-3 -8.449-3.015-2.955c-0.66-0.647-1.675-1.064-2.695-1.202l2e-3 -0.032-11.18-0.852z" fill="#455a64"/>
  <path d="m5.545 5.542 6.522 6.522v9e-3l7.506 7.506-0.546 2.855h-8.449l-2.954-3.017c-0.647-0.66-1.063-1.676-1.2-2.696l-0.033 3e-3z" fill="#90a4ae"/>
 </g>
</svg>
