<svg xmlns="http://www.w3.org/2000/svg" viewBox="0 0 32 32">
  <path d="M16,2a34.9614,34.9614,0,0,1,8.484.891Q27.9985,3.782,28,5V9q0,1.2195-3.516,2.109A35.07282,35.07282,0,0,1,16,12a34.87344,34.87344,0,0,1-8.484-.891Q4,10.2165,4,9V5Q4,3.7805,7.516,2.891A35.07282,35.07282,0,0,1,16,2Zm0,13a34.9614,34.9614,0,0,0,8.484-.891Q27.9985,13.218,28,12v6q0,1.2195-3.516,2.109A35.07282,35.07282,0,0,1,16,21a34.87344,34.87344,0,0,1-8.484-.891Q4,19.2165,4,18V12q0,1.2195,3.516,2.109A35.07282,35.07282,0,0,0,16,15Zm0,9a34.9614,34.9614,0,0,0,8.484-.891Q27.9985,22.218,28,21v6q0,1.2195-3.516,2.109A35.07282,35.07282,0,0,1,16,30a34.87344,34.87344,0,0,1-8.484-.891Q4,28.2165,4,27V21q0,1.2195,3.516,2.109A35.07282,35.07282,0,0,0,16,24Z" style="fill: #ffca28"/>
</svg>
