<svg width="152" height="100" viewBox="0 0 152 100" fill="none" xmlns="http://www.w3.org/2000/svg">
<rect width="152" height="100" fill="#1E1E1E"/>
<ellipse cx="93" cy="40.5" rx="23" ry="7.5" fill="white"/>
<ellipse cx="93" cy="91.5" rx="23" ry="7.5" fill="white"/>
<ellipse cx="93" cy="57.5" rx="23" ry="7.5" fill="white"/>
<ellipse cx="93" cy="75.5" rx="23" ry="7.5" fill="white"/>
<line x1="116" y1="66" x2="145" y2="66" stroke="white" stroke-width="2"/>
<line x1="41" y1="66" x2="70" y2="66" stroke="white" stroke-width="2"/>
<path d="M115.852 54.8543L135.03 54.8543L143.275 45.2384" stroke="white" stroke-width="2"/>
<path d="M69.9883 78.3903L50.8099 78.3903L42.5657 88.0062" stroke="white" stroke-width="2"/>
<path d="M69.9883 54.8543L50.8099 54.8543L42.5657 45.2384" stroke="white" stroke-width="2"/>
<path d="M116.268 79.7015L135.446 79.7015L143.69 89.3174" stroke="white" stroke-width="2"/>
<rect x="145" y="63" width="7" height="7" fill="white"/>
<rect x="34" y="63" width="7" height="7" fill="white"/>
<circle cx="41" cy="43" r="3" fill="white"/>
<circle cx="146" cy="91" r="3" fill="white"/>
<circle cx="41" cy="91" r="3" fill="white"/>
<ellipse cx="146" cy="43.5" rx="3" ry="3.5" fill="white"/>
<line x1="71.5" y1="41" x2="71.5" y2="91" stroke="white" stroke-width="3"/>
<path d="M115 41L115 91" stroke="white" stroke-width="3" stroke-linecap="round" stroke-linejoin="round"/>
<g style="mix-blend-mode:lighten">
<path d="M59.2188 7.68225L52.7813 2.31775C50.9842 0.820149 48.7189 -1.51695e-07 46.3796 0H10C7.34784 0 4.8043 1.05357 2.92893 2.92893C1.05357 4.8043 0 7.34784 0 10V90C0 92.6522 1.05357 95.1957 2.92893 97.0711C4.8043 98.9464 7.34784 100 10 100H130C132.652 100 135.196 98.9464 137.071 97.0711C138.946 95.1957 140 92.6522 140 90V20C140 17.3478 138.946 14.8043 137.071 12.9289C135.196 11.0536 132.652 10 130 10H65.6206C63.2813 10 61.0159 9.17985 59.2188 7.68225Z" fill="#555A5E"/>
</g>
</svg>
