<svg xmlns="http://www.w3.org/2000/svg" viewBox="0 0 24 24"><circle cx="12" cy="12" r="11.52" fill="#263238"/><path fill="#eceff1" d="m15.522 16.273.153.77q.345.034.703.1a.27.27 0 1 1-.1.532 8 8 0 0 0-.852-.114c-1.553-.117-2.629.317-3.661.868.694.144 1.285.324 1.861.502a12.3 12.3 0 0 0 3.07.64.86.86 0 0 0 .651-.255 1.17 1.17 0 0 0 .333-.894 11 11 0 0 0-.31-2.29z"/><path fill="#ff7043" d="M8.77 7.964a.06.06 0 0 0-.015.052l.149 1.178a.423.423 0 0 0 .418.372h1.136a1.02 1.02 0 0 0 .896-.446.753.753 0 0 1 1.292 0 1.02 1.02 0 0 0 .896.446h1.135a.423.423 0 0 0 .42-.371l.148-1.18a.07.07 0 0 0-.015-.05.06.06 0 0 0-.05-.022h-2.168a.76.76 0 0 0-.431.125 1 1 0 0 1-.581.146 1 1 0 0 1-.58-.147.76.76 0 0 0-.43-.124H8.82a.06.06 0 0 0-.05.021"/><path fill="#eceff1" d="M8.613 17.398c-.506.07-.834.144-.839.145a.3.3 0 0 1-.06.007.27.27 0 0 1-.06-.535c.013-.002.274-.061.694-.125l.127-.617-1.843-.14a11.2 11.2 0 0 0-.312 2.29 1.17 1.17 0 0 0 .331.892.87.87 0 0 0 .655.256c1.47-.094 2.513-.679 3.523-1.244l.034-.02a15 15 0 0 1 1.552-.79c-1.312-.369-2.893-.243-3.802-.119m2.377-9.996a1.3 1.3 0 0 1 .736.22.5.5 0 0 0 .274.05.5.5 0 0 0 .275-.05 1.3 1.3 0 0 1 .737-.22h1.963a2.975 2.975 0 0 0-5.95 0z"/><path fill="#ff7043" d="m13.878 19.573-.411-.125a16.5 16.5 0 0 0-2.454-.605 14 14 0 0 1-1.447.73z"/><path fill="#eceff1" d="M13.936 11.346a1.62 1.62 0 0 0 .694-1.079l.027-.16h-1.115a1.56 1.56 0 0 1-1.361-.711.22.22 0 0 0-.361 0 1.56 1.56 0 0 1-1.362.71H9.343l.027.162a1.62 1.62 0 0 0 .693 1.077l.23.16c.482.342 1.082.765 1.707.765s1.225-.423 1.707-.764q.12-.086.23-.16M10.7 12.415l-.042.333c.374.565.849.875 1.342.875s.967-.31 1.342-.875l-.041-.333a2.7 2.7 0 0 1-1.301.396 2.7 2.7 0 0 1-1.3-.396"/><path fill="#ff7043" d="M15.042 15.25a.27.27 0 0 1 .318.213l.054.276 1.95-.149a1.4 1.4 0 0 0 .045-.344c0-1.294-2.504-1.96-3.66-2.143-.473.682-1.087 1.06-1.75 1.06-.66 0-1.276-.378-1.749-1.06-1.156.184-3.66.85-3.66 2.143a1.4 1.4 0 0 0 .046.344l1 .077c.434.033.734.056.947.08l.058-.285a.27.27 0 0 1 .53.108l-.102.504v.008l-.152.734c1.156-.129 2.95-.185 4.308.419a6.3 6.3 0 0 1 1.89-.231l-.184-.924-.102-.51a.27.27 0 0 1 .213-.32"/></svg>