<svg width="16" height="16" xmlns="http://www.w3.org/2000/svg"><path fill="#e57373" d="M3.413 3.333h9.167l-.627-.666h-8l-.54.666m10.28.154c.194.226.307.513.307.846v8.334c0 .736-.597 1.333-1.333 1.333H3.333A1.333 1.333 0 012 12.667V4.333c0-.333.113-.62.307-.846l.92-1.12A.99.99 0 014 2h8c.313 0 .587.14.767.367l.926 1.12"/><path fill="#FCE4EC" d="M10.065 8.177l-.064.118c.084-.25.036-.522.048-.76l-.022-.006c-.022-.593-.535-1.224-.99-1.435-.394-.183-1-.215-1.279-.077.038-.036.192-.048.144-.074-.439.042-.34.15-.676.237-.093.09.276-.07.074.051-.18.042-.263-.038-.529.238.022.038.17-.113.048.038-.253-.029-.795.577-.91.776l.06.012c-.099.247-.23.404-.246.552-.026.365-.144 1.028.026 1.233l-.02.17.074.144-.038.004c.186.586.198.012.445.621-.035-.012-.074-.025-.125-.102-.006.06.077.221.173.346l-.038.045c.051.1.102.122.138.157-.202-.112.182.362.224.423l.032-.055c-.006.077.054.18.17.324l.096-.003c.042.077.186.218.272.224l-.057.077c.22.064.105.093.378.19l-.055-.097c.138.119.18.224.375.314.273.096.308.058.584.138-.234 0-.51 0-.696-.07-1.269-.343-2.423-1.834-2.346-3.366-.019-.31.032-.698-.019-.775.07-.237.154-.526.324-.869-.013-.022.029.068.115-.077.051-.115.093-.24.16-.352l.032-.01c.036-.195.459-.496.593-.647v.058c.276-.26.77-.433 1.045-.555-.074.08.163-.01.333-.019l-.157.09c.202-.052.193.022.4-.01-.073.01-.16.032-.147.051.231.026.27-.07.484 0l-.016-.064c.302.11.362.09.686.263.116.003.128-.07.298 0 .032.051-.006.061.205.19.023-.01-.041-.071-.086-.12.416.228.881.712 1.019 1.231-.132-.237-.013.125-.058.106.058.157.106.32.138.49-.038-.137-.125-.474-.276-.689-.01.138-.192-.096-.093.212.071.109.016-.112.11.08 0 .093.035.186.057.304-.032-.006-.07-.131-.096-.099.032.16.086.23.106.244-.01.025-.039-.026-.039.077.013.237.068.137.093.147-.029.119-.131.253-.08.455l-.064-.18c-.016.17.035.202-.042.41.058-.192.052-.352-.003-.272.029.263-.208.465-.186.635l-.067-.093c-.183.266-.003.144-.128.34.045-.074-.023-.026.035-.116-.038.003-.176.17-.301.266-.494.394-1.087.449-1.65.234h-.004c.003-.013 0-.029-.038-.054-.484-.369-.77-.683-.677-1.414.08-.054.1-.358.27-.464.102-.228.41-.436.74-.443.336-.019.622.18.766.366a.958.958 0 00-1.051-.138c-.369.17-.59.577-.564.984.019-.023.032-.007.038-.058-.01.792.853 1.372 1.474 1.08l.01.016c.25-.07.218-.125.381-.24-.013.029-.109.096-.051.096.08-.02.33-.253.455-.362.055-.122-.032-.074.048-.221l.096-.048c.055-.154.112-.24.112-.423"/></svg>