<svg version="1.1" id="Layer_1" xmlns="http://www.w3.org/2000/svg" xmlns:xlink="http://www.w3.org/1999/xlink" x="0px" y="0px"
	 width="100%" viewBox="0 0 396 460" enable-background="new 0 0 396 460" xml:space="preserve">
<path fill="#232B33" opacity="1.000000" stroke="none" 
	d="
M397.000000,196.000000 
	C397.000000,221.354233 397.000000,246.708450 396.645966,272.651917 
	C394.539001,280.575836 392.641724,287.879639 391.063538,295.251740 
	C387.899597,310.031067 382.440247,323.980225 376.014404,337.580505 
	C373.610199,342.669006 371.215485,347.815582 368.224762,352.562988 
	C360.582092,364.694702 353.307068,377.160950 344.539337,388.447998 
	C337.712097,397.236969 329.134216,404.755707 320.825439,412.276733 
	C313.767365,418.665741 306.287415,424.693481 298.456665,430.103058 
	C280.398224,442.577972 261.009583,452.442688 239.648514,458.111542 
	C238.585068,458.393799 237.874741,460.006683 237.000000,461.000000 
	C158.371536,461.000000 79.743088,461.000000 1.057315,461.000000 
	C1.057315,307.779358 1.057315,154.558716 1.057315,1.000000 
	C69.020523,1.000000 137.041595,1.000000 205.665848,1.362115 
	C208.964310,2.195745 211.702942,2.496613 214.347382,3.168353 
	C225.714355,6.055793 237.445129,8.045056 248.303314,12.265512 
	C261.683838,17.466364 274.707733,23.897270 287.176300,31.035807 
	C297.741577,37.084675 307.839478,44.254490 317.146759,52.110081 
	C326.346375,59.874832 334.859253,68.644745 342.636230,77.849945 
	C350.477997,87.131836 357.883789,97.006699 363.943756,107.508591 
	C370.535675,118.932442 375.460388,131.330917 380.926483,143.388580 
	C387.391968,157.650864 391.365417,172.665039 394.096252,188.054886 
	C394.581390,190.788925 396.008087,193.355881 397.000000,196.000000 
M274.906067,359.790619 
	C292.033844,353.279205 297.997162,334.009094 287.148438,319.809448 
	C281.812500,312.825348 274.416931,310.005890 265.744873,309.993866 
	C229.112152,309.942993 192.479553,309.792206 155.846848,309.763672 
	C127.706154,309.741760 99.565338,309.837494 71.424622,309.904236 
	C63.738323,309.922455 63.729412,309.961090 63.726257,317.385162 
	C63.720879,330.040253 63.716442,342.695404 63.743320,355.350433 
	C63.747074,357.117645 63.930717,358.884460 64.047173,360.934631 
	C66.312225,361.037689 68.109230,361.190552 69.906258,361.191010 
	C133.348236,361.207581 196.790237,361.233459 260.232117,361.165466 
	C264.868683,361.160492 269.504486,360.461212 274.906067,359.790619 
M238.656021,155.466309 
	C239.697235,154.942902 240.764603,154.465378 241.775620,153.888992 
	C252.154068,147.972229 257.515228,135.839310 254.570663,124.973106 
	C251.502655,113.651382 241.598480,106.114021 229.509232,106.057396 
	C184.685272,105.847458 139.861160,105.671227 95.037033,105.500610 
	C84.727837,105.461372 74.418350,105.494820 63.698250,105.494820 
	C63.698250,123.125999 63.698250,139.856567 63.698250,156.760345 
	C65.446945,156.858261 66.759933,156.995895 68.072929,156.996063 
	C122.067291,157.002625 176.061661,157.013611 230.055954,156.941864 
	C232.678802,156.938385 235.300674,156.195389 238.656021,155.466309 
M94.500076,207.817001 
	C84.379768,207.817001 74.259468,207.817001 63.859764,207.817001 
	C63.859764,225.152634 63.859764,241.856628 63.859764,259.171478 
	C66.617767,259.171478 68.747559,259.171570 70.877357,259.171478 
	C98.693550,259.170135 126.509789,259.192810 154.325928,259.152588 
	C162.485748,259.140778 170.645203,258.940125 178.805038,258.844330 
	C188.050690,258.735809 195.096771,254.530792 200.075897,246.966370 
	C205.278580,239.062332 205.511047,230.354156 201.362640,222.242661 
	C197.285385,214.270264 190.943375,208.698532 180.929871,208.655289 
	C152.452591,208.532318 123.976585,208.117142 94.500076,207.817001 
z"/>
<path fill="#000000" opacity="1.000000" stroke="none" 
	d="
M397.000000,195.531342 
	C396.008087,193.355881 394.581390,190.788925 394.096252,188.054886 
	C391.365417,172.665039 387.391968,157.650864 380.926483,143.388580 
	C375.460388,131.330917 370.535675,118.932442 363.943756,107.508591 
	C357.883789,97.006699 350.477997,87.131836 342.636230,77.849945 
	C334.859253,68.644745 326.346375,59.874832 317.146759,52.110081 
	C307.839478,44.254490 297.741577,37.084675 287.176300,31.035807 
	C274.707733,23.897270 261.683838,17.466364 248.303314,12.265512 
	C237.445129,8.045056 225.714355,6.055793 214.347382,3.168353 
	C211.702942,2.496613 208.964310,2.195745 206.134506,1.362115 
	C269.594452,1.000000 333.188873,1.000000 397.000000,1.000000 
	C397.000000,65.687401 397.000000,130.375046 397.000000,195.531342 
z"/>
<path fill="#000000" opacity="1.000000" stroke="none" 
	d="
M237.468658,461.000000 
	C237.874741,460.006683 238.585068,458.393799 239.648514,458.111542 
	C261.009583,452.442688 280.398224,442.577972 298.456665,430.103058 
	C306.287415,424.693481 313.767365,418.665741 320.825439,412.276733 
	C329.134216,404.755707 337.712097,397.236969 344.539337,388.447998 
	C353.307068,377.160950 360.582092,364.694702 368.224762,352.562988 
	C371.215485,347.815582 373.610199,342.669006 376.014404,337.580505 
	C382.440247,323.980225 387.899597,310.031067 391.063538,295.251740 
	C392.641724,287.879639 394.539001,280.575836 396.645966,273.120544 
	C397.000000,335.587799 397.000000,398.175629 397.000000,461.000000 
	C343.979340,461.000000 290.958344,461.000000 237.468658,461.000000 
z"/>
<path fill="#F0251B" opacity="1.000000" stroke="none" 
	d="
M274.523376,359.937683 
	C269.504486,360.461212 264.868683,361.160492 260.232117,361.165466 
	C196.790237,361.233459 133.348236,361.207581 69.906258,361.191010 
	C68.109230,361.190552 66.312225,361.037689 64.047173,360.934631 
	C63.930717,358.884460 63.747074,357.117645 63.743320,355.350433 
	C63.716442,342.695404 63.720879,330.040253 63.726257,317.385162 
	C63.729412,309.961090 63.738323,309.922455 71.424622,309.904236 
	C99.565338,309.837494 127.706154,309.741760 155.846848,309.763672 
	C192.479553,309.792206 229.112152,309.942993 265.744873,309.993866 
	C274.416931,310.005890 281.812500,312.825348 287.148438,319.809448 
	C297.997162,334.009094 292.033844,353.279205 274.523376,359.937683 
z"/>
<path fill="#3CDD9C" opacity="1.000000" stroke="none" 
	d="
M238.289520,155.631531 
	C235.300674,156.195389 232.678802,156.938385 230.055954,156.941864 
	C176.061661,157.013611 122.067291,157.002625 68.072929,156.996063 
	C66.759933,156.995895 65.446945,156.858261 63.698250,156.760345 
	C63.698250,139.856567 63.698250,123.125999 63.698250,105.494820 
	C74.418350,105.494820 84.727837,105.461372 95.037033,105.500610 
	C139.861160,105.671227 184.685272,105.847458 229.509232,106.057396 
	C241.598480,106.114021 251.502655,113.651382 254.570663,124.973106 
	C257.515228,135.839310 252.154068,147.972229 241.775620,153.888992 
	C240.764603,154.465378 239.697235,154.942902 238.289520,155.631531 
z"/>
<path fill="#FBB504" opacity="1.000000" stroke="none" 
	d="
M95.000076,207.816986 
	C123.976585,208.117142 152.452591,208.532318 180.929871,208.655289 
	C190.943375,208.698532 197.285385,214.270264 201.362640,222.242661 
	C205.511047,230.354156 205.278580,239.062332 200.075897,246.966370 
	C195.096771,254.530792 188.050690,258.735809 178.805038,258.844330 
	C170.645203,258.940125 162.485748,259.140778 154.325928,259.152588 
	C126.509789,259.192810 98.693550,259.170135 70.877357,259.171478 
	C68.747559,259.171570 66.617767,259.171478 63.859764,259.171478 
	C63.859764,241.856628 63.859764,225.152634 63.859764,207.817001 
	C74.259468,207.817001 84.379768,207.817001 95.000076,207.816986 
z"/>
</svg>