<svg width="24" height="24" xmlns="http://www.w3.org/2000/svg"><path fill="#212121" d="M3.419 21.974V2h7.036c2.186 0 4.02.474 5.554 1.457 1.508.955 2.663 2.211 3.417 3.744.754 1.532 1.155 3.138 1.155 4.799a10.322 10.322 0 01-1.156 4.799c-.754 1.533-1.91 2.764-3.417 3.743C14.5 21.497 12.641 22 10.453 22H4.726c-.376-.026-1.282-.026-1.307-.026z"/><path fill="#1DE9B6" d="M6.259 6.497h7.136a1.106 1.106 0 010 2.211H6.259z"/><path fill="#F44336" d="M6.259 15.241h8.744a1.106 1.106 0 110 2.21H6.259z"/><path fill="#FFB300" d="M6.259 10.87h4.95a1.106 1.106 0 010 2.21h-4.95z"/></svg>