<svg xmlns="http://www.w3.org/2000/svg" viewBox="0 0 32 32">
  <g style="isolation: isolate">
    <g style="isolation: isolate">
      <path d="M6,4h8.8038a17.077,17.077,0,0,1,4.53986.45862,7.97612,7.97612,0,0,1,3.5971,2.20961,10.51411,10.51411,0,0,1,2.27844,3.8882A17.83805,17.83805,0,0,1,26,16.22881a15.84182,15.84182,0,0,1-.73282,5.10816,10.59191,10.59191,0,0,1-2.55436,4.2402,8.4452,8.4452,0,0,1-3.38515,1.91493A14.46655,14.46655,0,0,1,15.06423,28H6Zm4,4.06018V23.95592h4.4134a13.05669,13.05669,0,0,0,2.91277-.22831,4.449,4.449,0,0,0,1.94451-.9987,5.097,5.097,0,0,0,1.26169-2.31723,15.76367,15.76367,0,0,0,.48787-4.39509,14.44463,14.44463,0,0,0-.48787-4.27339,5.50214,5.50214,0,0,0-1.36766-2.32427,4.57385,4.57385,0,0,0-2.22894-1.12944,21.70376,21.70376,0,0,0-3.95452-.22931Z" style="fill: #ffd54f"/>
    </g>
  </g>
</svg>
