<svg xmlns="http://www.w3.org/2000/svg" viewBox="0 0 32 32"><path fill="#ffd54f" d="M6 4h8.804a17.077 17.077 0 0 1 4.54.459 7.976 7.976 0 0 1 3.597 2.21 10.514 10.514 0 0 1 2.278 3.887A17.838 17.838 0 0 1 26 16.23a15.842 15.842 0 0 1-.733 5.108 10.592 10.592 0 0 1-2.554 4.24 8.445 8.445 0 0 1-3.385 1.915 14.467 14.467 0 0 1-4.264.508H6Zm4 4.06v15.896h4.413a13.057 13.057 0 0 0 2.913-.228 4.449 4.449 0 0 0 1.945-1 5.097 5.097 0 0 0 1.261-2.316 15.764 15.764 0 0 0 .488-4.395 14.445 14.445 0 0 0-.488-4.274 5.502 5.502 0 0 0-1.367-2.324 4.574 4.574 0 0 0-2.23-1.13 21.704 21.704 0 0 0-3.954-.229Z" style="isolation:isolate"/></svg>