<svg xmlns="http://www.w3.org/2000/svg" viewBox="0 0 32 32">
  <path d="M3.06855,10.68791C3.06855,5.87257,7.85852,2,14.00136,2a11.89414,11.89414,0,0,1,7.48935,2.37808,10.64317,10.64317,0,0,1,3.59354,5.236l.0148.04862.01691.05707.03382.10781.04862.1987.13317.46293.13952.52846.23886.87514.38049,1.38668.613,2.27872.69123,2.59369L28.5108,22.3204l.42065,1.57058-.09089.09936A18.976,18.976,0,0,1,17.337,30l-.04016-.27269-.074-.54537-.06553-.39529-.07609-.52L16.984,27.6325l-.04228-.24944-.09089-.60244-.05708-.35513-.074-.46293-.0761-.44391-.074-.43122-.074-.42277-.06553-.4122-.074-.39529-.06765-.38049-.04861-.28115-.05708-.27057-.03382-.17333-.06553-.34879-.05073-.24732-.05708-.30439-.04861-.21562-.04228-.205-.04228-.1987-.02325-.13317-.05919-.24732-.04228-.18179-.04016-.1818-.03171-.11415-.04228-.167-.03171-.15642-.04227-.15643-.04228-.148-.02325-.09089-.04228-.14163-.03171-.13106-.02537-.09089L15.331,19.2067l-.02325-.07187-.03382-.11626-.02537-.08455-.01691-.04862q-.06673-.19611-.148-.38683l-.02536-.05074.19024-.49464-.75041.02537L14.291,17.987c-6.81926.13952-11.2224-2.75857-11.2224-7.30122ZM17.41439,6.5868a1.99941,1.99941,0,1,0,0,2.82759A1.9994,1.9994,0,0,0,17.41439,6.5868Z" style="fill: #cfd8dc;fill-rule: evenodd"/>
  <path d="M3.06855,10.68791C4.0182-1.33878,24.45712-.73483,25.70941,11.89309c1.02691,3.73951,2.20993,8.24414,3.222,11.99789A18.98372,18.98372,0,0,1,17.337,30c-.40712-2.79067-.83909-5.60247-1.40992-8.36449-.14415-.70793-.30388-1.42849-.50522-2.1223-.10338-.53587-.52249-1.04289-.17335-1.56-6.66463.52832-12.37347-2.4281-12.18-7.2674ZM17.41439,6.5868c-1.80742-1.86112-4.689,1.02035-2.82746,2.82771C16.39421,11.2755,19.27578,8.394,17.41439,6.5868Z" style="fill: #cfd8dc;fill-rule: evenodd"/>
</svg>
