<svg viewBox="0 0 512 512" xmlns="http://www.w3.org/2000/svg">
  <title>Deno logo</title>
  <g fill-rule="nonzero" fill="none">
    <path d="M256 0c141.385 0 256 114.615 256 256S397.385 512 256 512 0 397.385 0 256 114.615 0 256 0Z" fill="#000" />
    <path
      d="M246 144.91c-74.444 0-132.351 46.865-132.351 105.145 0 55.044 53.283 90.189 135.883 88.43l2.512-.064 9.085-.274-2.334 5.951.279.628a66.784 66.784 0 0 1 1.8 4.687l.203.595.321.963.448 1.391.302.968.303 1 .306 1.032.463 1.608.468 1.68.315 1.16.477 1.8.481 1.872.487 1.944.491 2.016.33 1.383.5 2.136.505 2.207.681 3.054.344 1.575.52 2.422.524 2.493.53 2.565.751 3.716.598 3.024.807 4.167.408 2.143.616 3.286.623 3.374.84 4.635.851 4.79.862 4.946.874 5.102.884 5.258.895 5.413.906 5.568.687 4.279 1.16 7.325.467 2.999 1.183 7.665.96 6.308.725 4.832.978 6.58.488 3.317c54.899-7.258 103.69-33.88 139.285-72.777l1.075-1.182-5.075-19.009-13.518-50.56-8.409-31.363-7.438-27.643-4.54-16.786-2.893-10.628-1.739-6.337-1.562-5.626-.667-2.36-.393-1.363-.21-.715-.172-.564c-7.773-25.06-22.917-47.278-43.484-63.363C312.52 154.823 281.807 144.91 246 144.91ZM180.629 411.76c-6.565-1.77-13.319 2.03-15.24 8.511l-.085.301-11.243 41.66a228.655 228.655 0 0 0 21.512 9.314l1.7.627 12.167-45.087.078-.304c1.6-6.568-2.325-13.25-8.89-15.021Z"
      fill="#FFF" />
    <path
      d="M250.257 381.26c-6.565-1.77-13.319 2.03-15.24 8.511l-.085.301-17 63-.078.304c-1.6 6.568 2.325 13.25 8.89 15.021 6.564 1.772 13.318-2.028 15.24-8.51l.084-.301 17-63 .078-.304c.116-.474.203-.95.262-1.424l.05-.474-.403-2.041-.588-2.939-.373-1.835a12.467 12.467 0 0 0-7.837-6.308ZM131.796 316.38c-.31.618-.573 1.27-.782 1.951l-.118.412-17 63-.078.304c-1.6 6.568 2.325 13.25 8.89 15.021 6.564 1.772 13.318-2.028 15.24-8.51l.084-.301 15.414-57.125c-8.073-4.274-15.319-9.206-21.65-14.751ZM91.257 243.932c-6.565-1.772-13.319 2.028-15.24 8.51l-.085.301-17 63-.078.304c-1.6 6.568 2.325 13.25 8.89 15.021 6.564 1.772 13.318-2.028 15.24-8.51l.084-.301 17-63 .078-.304c1.6-6.568-2.325-13.25-8.89-15.021ZM472.439 229.625c-6.565-1.772-13.319 2.028-15.24 8.51l-.085.301-17 63-.078.304c-1.6 6.568 2.325 13.25 8.89 15.021 6.564 1.772 13.318-2.028 15.24-8.51l.084-.301 17-63 .078-.304c1.6-6.568-2.325-13.25-8.89-15.021ZM54.235 145.498a228.41 228.41 0 0 0-26.693 83.757 12.442 12.442 0 0 0 6.131 3.813c6.565 1.772 13.319-2.028 15.24-8.51l.085-.301 17-63 .078-.304c1.6-6.568-2.325-13.25-8.89-15.021a12.717 12.717 0 0 0-2.95-.434ZM429.38 145.932c-6.564-1.772-13.318 2.028-15.24 8.51l-.084.301-17 63-.078.304c-1.6 6.568 2.325 13.25 8.89 15.021 6.564 1.772 13.318-2.028 15.24-8.51l.084-.301 17-63 .078-.304c1.6-6.568-2.325-13.25-8.89-15.021Z"
      fill="#FFF" />
    <path d="M262 187c8.837 0 16 7.163 16 16s-7.163 16-16 16-16-7.163-16-16 7.163-16 16-16Z" fill="#000" />
    <path
      d="M128.22 86.027c-6.564-1.772-13.318 2.028-15.24 8.51l-.084.301-17 63-.078.304c-1.6 6.568 2.325 13.25 8.89 15.021 6.564 1.772 13.318-2.028 15.24-8.51l.084-.301 17-63 .078-.304c1.6-6.568-2.325-13.25-8.89-15.021ZM346.652 97.936c-6.565-1.772-13.319 2.028-15.24 8.51l-.085.301-11.423 42.33a139.88 139.88 0 0 1 21.104 12.858l1.1.82 13.355-49.494.078-.304c1.6-6.568-2.325-13.25-8.89-15.021ZM235.467 26.904a229.86 229.86 0 0 0-23.766 3.358l-1.667.332-15.845 58.736-.078.304c-1.6 6.568 2.325 13.25 8.89 15.021 6.564 1.772 13.318-2.028 15.24-8.51l.084-.301 17-63 .078-.304a12.43 12.43 0 0 0 .064-5.636ZM391.896 70.422l-3.34 12.38-.078.303c-1.6 6.568 2.325 13.25 8.89 15.021 6.564 1.772 13.318-2.028 15.24-8.51l.084-.301.365-1.343a231.2 231.2 0 0 0-19.685-16.459l-1.476-1.091ZM292.988 28.958l-6.03 22.343-.077.304c-1.6 6.568 2.325 13.25 8.89 15.021 6.564 1.772 13.318-2.028 15.24-8.51l.084-.301 6.346-23.517a228.59 228.59 0 0 0-22.675-5.045l-1.778-.295Z"
      fill="#FFF" />
  </g>
</svg>