<svg xmlns="http://www.w3.org/2000/svg" viewBox="0 0 32 32"><path fill="#455a64" d="M3.288 23.102A13.937 14.098 0 0 1 2 17.16c0-.553.028-1.09.091-1.622a14.049 14.211 0 0 1 .273-1.586 14 14.162 0 0 1 4.333-7.37 14.007 14.169 0 0 1 6.37-3.272 14.028 14.19 0 0 1 3.997-.27 13.958 14.12 0 0 1 4.76 1.24 14.021 14.183 0 0 1 3.241 2.089 14.028 14.19 0 0 1 4.732 8.355A14.063 14.225 0 0 1 30 17.161a14.175 14.339 0 0 1-.042 1.076 13.986 14.147 0 0 1-.847 3.902 14.007 14.169 0 0 1-2.779 4.574A7.245 7.329 0 0 1 21.166 29a5.054 5.112 0 0 1-4.816-6.444c.119-.453.434-1.317.889-1.699a5.334 5.396 0 0 1-1.435-.977c-.049-.057-.042-.156.007-.22a.182.184 0 0 1 .203-.056 10.206 10.324 0 0 0 1.596.41c.777.128 1.736.298 2.709.34 2.366.12 4.844-.956 5.614-3.094.763-2.146.469-4.263-2.289-5.53-2.758-1.275-4.032-2.783-6.258-3.696-1.456-.595-3.073-.241-4.732.694-4.48 2.5-8.491 10.408-6.643 17.737a.224.227 0 0 1-.364.22 14.077 14.24 0 0 1-1.463-1.927 14.021 14.183 0 0 1-.896-1.656M15.503 9.018c.749-.057 1.414.595 1.526 1.459.147 1.154-.273 2.35-1.645 2.379-1.183.02-1.54-1.176-1.456-1.905.077-.73.665-1.862 1.568-1.933z"/></svg>