<svg xmlns="http://www.w3.org/2000/svg" viewBox="0 0 32 32"><path fill="#cfd8dc" d="M3.069 10.688C3.069 5.873 7.859 2 14 2a11.9 11.9 0 0 1 7.49 2.378 10.64 10.64 0 0 1 3.593 5.236l.015.049.017.057.034.108.048.198.134.463.14.529.238.875.38 1.386.613 2.28.692 2.593 1.116 4.168.42 1.571-.09.1A18.98 18.98 0 0 1 17.337 30l-.04-.273-.074-.545-.066-.395-.076-.52-.097-.634-.042-.25-.091-.602-.057-.356-.074-.462-.076-.444-.074-.432-.074-.422-.066-.413-.074-.395-.068-.38-.048-.281-.057-.271-.034-.173-.066-.35-.05-.246-.057-.305-.049-.215-.042-.205-.043-.2-.023-.132-.059-.248-.042-.181-.04-.182-.032-.114-.042-.167-.032-.157-.042-.156-.043-.148-.023-.091-.042-.142-.032-.13-.025-.092-.034-.084-.023-.072-.034-.116-.025-.085-.017-.049q-.067-.196-.148-.386l-.026-.051.19-.495-.75.026-.207.008c-6.82.14-11.222-2.759-11.222-7.301Zm14.345-4.101a2 2 0 1 0 0 2.827 2 2 0 0 0 0-2.827"/><path fill="#cfd8dc" d="M3.069 10.688c.95-12.027 21.388-11.423 22.64 1.205 1.027 3.74 2.21 8.244 3.222 11.998A18.98 18.98 0 0 1 17.337 30c-.407-2.79-.84-5.602-1.41-8.364a27 27 0 0 0-.505-2.123c-.104-.536-.523-1.043-.173-1.56-6.665.529-12.374-2.428-12.18-7.267Zm14.345-4.101c-1.807-1.861-4.689 1.02-2.827 2.828 1.807 1.86 4.689-1.021 2.827-2.828"/></svg>