<svg viewBox="0 0 24 24" fill="none" xmlns="http://www.w3.org/2000/svg">
  <path
    d="m15.975 5-4 4-1.4-1.4 1.6-1.6H12c-1.667 0-3.083.587-4.25 1.762C6.583 8.937 6 10.367 6 12.05c0 .433.05.858.15 1.275.1.417.25.825.45 1.225l-1.5 1.5a8.25 8.25 0 0 1-.825-1.95A7.696 7.696 0 0 1 4 12.05c0-2.233.775-4.133 2.325-5.7C7.875 4.783 9.767 4 12 4h.175l-1.6-1.6 1.4-1.4 4 4Zm-7.95 14 4-4 1.4 1.4-1.6 1.6H12c1.667 0 3.083-.587 4.25-1.762C17.417 15.063 18 13.633 18 11.95c0-.433-.05-.858-.15-1.275-.1-.417-.25-.825-.45-1.225l1.5-1.5c.367.633.642 1.283.825 1.95.183.667.275 1.35.275 2.05 0 2.233-.775 4.133-2.325 5.7C16.125 19.217 14.233 20 12 20h-.175l1.6 1.6-1.4 1.4-4-4Z"
    fill="#8BC34A" />
</svg>