<svg fill="none" width="16" height="16" xmlns="http://www.w3.org/2000/svg"><path d="M10.484 3.635l-2.5 2.546-.875-.891 1-1.018H8c-1.042 0-1.927.373-2.656 1.121-.73.748-1.094 1.658-1.094 2.729a3.527 3.527 0 00.375 1.59l-.937.955a5.156 5.25 0 01-.516-1.24A4.81 4.897 0 013 8.121c0-1.421.484-2.63 1.453-3.627C5.422 3.497 6.604 2.999 8 2.999h.11l-1-1.018.874-.891zM5.516 12.382l2.5-2.546.875.891-1 1.018H8c1.042 0 1.927-.373 2.656-1.12.73-.749 1.094-1.659 1.094-2.73a3.528 3.528 0 00-.375-1.59l.938-.955c.229.403.4.816.515 1.24.115.425.172.86.172 1.305 0 1.421-.484 2.63-1.453 3.628-.969.997-2.151 1.495-3.547 1.495h-.11l1 1.018-.874.891z" fill="#8bc34a"/></svg>
