<svg xmlns="http://www.w3.org/2000/svg" viewBox="0 0 32 32">
  <path d="M29.5,16H28V12a2,2,0,0,0-2-2H20V2.5a.5.5,0,0,0-.5-.5h-5a.5.5,0,0,0-.5.5v3a.5.5,0,0,0,.5.5H18v4H6a2,2,0,0,0-2,2v4H2.5a.5.5,0,0,0-.5.5v7a.5.5,0,0,0,.5.5H4v2a2,2,0,0,0,2,2H26a2,2,0,0,0,2-2V24h1.5a.5.5,0,0,0,.5-.5v-7A.5.5,0,0,0,29.5,16ZM13.96741,18.64667,10.86078,21.7533a.6.6,0,0,1-.84,0L8.15411,19.88666a.6.6,0,0,1,0-.84l.62665-.63995a.59992.59992,0,0,1,.84851-.00482l.00482.00482.8.8,2.05335-2.04a.60011.60011,0,0,1,.84,0l.64.64A.58005.58005,0,0,1,13.96741,18.64667Zm9.88,0L20.74078,21.7533a.6.6,0,0,1-.84,0l-1.86664-1.86664a.6.6,0,0,1,0-.84l.62665-.63995a.59992.59992,0,0,1,.84,0l.81336.8,2.05334-2.04a.6.6,0,0,1,.84,0l.64.64A.60382.60382,0,0,1,23.84741,18.64667Z" style="fill: #448aff"/>
</svg>
