<svg xmlns="http://www.w3.org/2000/svg" viewBox="0 0 47.5 47.5">
    <g clip-path="url(#clipPath18)" transform="matrix(1.25 0 0 -1.25 0 47.5)">
        <path d="M36 20a17 17 0 10-34 0 17 17 0 0034 0" fill="#ffd54f" />
        <path
            d="M16.46 21.2c-.06.14-1.5 3.3-4.46 3.3s-4.4-3.16-4.46-3.3a.5.5 0 01.76-.6c.01 0 1.26.9 3.7.9 2.43 0 3.67-.88 3.7-.9a.5.5 0 01.61 0 .5.5 0 01.15.6"
            fill="#4e342e" />
        <path d="M32 23.5a6.5 6.5 0 10-13 0 6.5 6.5 0 0013 0" fill="#fafafa" />
        <path d="M28 23.5a2.5 2.5 0 10-5 0 2.5 2.5 0 005 0" fill="#263238" />
        <path d="M8 15c0-3.96 4.6-9 11-9s11 5 11 9c0 0-10.33-2.76-22 0" fill="#4e342e" />
        <path d="M13 13.12V7.04c0-3 2-6 6-6s6 3 6 6v6.04c-6.3-1.3-12 .04-12 .04" fill="#ec407a" />
    </g>
</svg>