<svg id="Layer_1" data-name="Layer 1" xmlns="http://www.w3.org/2000/svg" viewBox="0 0 1424.12 1368.01"><defs><style>.cls-1{fill:#e92744;}.cls-2,.cls-3{fill:#fff;}.cls-2{stroke:#231f20;stroke-miterlimit:10;}</style></defs><title>DinoPHP-icon</title><path class="cls-1" d="M2279.16,1860.2c61.91,5.75,121.26-6.63,159.5-11.5,51.23-6.53,90.36-2.9,121.5,0,56.77,5.27,119.41,11.1,184,52,15.34,9.71,56.44,37.64,92,89,15.55,22.44,39.33,56.78,48.34,106.33,8.95,49.26-1,89.9,9.66,92.67,5,1.29,10.73-6.59,22-22a252.3,252.3,0,0,0,35-67c3.2-9.41,6.47-23.61,13-52,7.1-30.86,10.65-46.29,13-61,2-12.65,4.31-30.82,5-79,.78-54,1.16-81-2-110a522.75,522.75,0,0,0-26-116c-14-39.62-28.47-79.4-64-117-25.57-27.07-48.2-38.37-56-42-22.45-10.48-41.57-13.28-54-15-8-1.12-34-4.27-97,6-39.82,6.48-69.4,14.24-76,16-48.45,12.91-83.49,27.44-115,40.5-17.79,7.37-41.17,17.13-70,32l-.93.48c-13.7,7.1-24.43,12.85-30.11,15.92l-3,1.6c-20.67,11.19-40.66,19.7-61.51,30.67,0,0-19.93,10.48-49.49,29.73-8.54,5.56-16,11.1-16,11.1-2.43,1.81-4.41,3.34-5.71,4.35a145.31,145.31,0,0,0-19.29,18.65c-5.52,6.44-13.59,15.89-19,29-8.73,21.16-5.89,40.66-4.5,49.5,1.79,11.29,5.6,35.42,24.5,51.5C2251.84,1857.19,2269.07,1859.26,2279.16,1860.2Z" transform="translate(-1558.59 -1506.36)"/><path class="cls-1" d="M2534.41,1891.86c2.18-6.67,33.88-1.84,46,0,34.49,5.25,68.51,10.43,109,32,29,15.42,73,45.48,106,99,6.43,10.41,37.1,61.64,41,136,3.57,67.92-17.14,118.36-28,144-45.74,108-131,164-172.33,190.34-28.35,18.07-100.82,60.2-199,71.66-50.29,5.87-117.07,4.83-119.59-8.33-.79-4.15,4.87-9.07,13.59-16.67,4.07-3.54,14.85-12.15,33.33-17,10.41-2.72,15.07-2.11,40.34-2.66,24.22-.53,36.34-.8,44.39-1.85a215,215,0,0,0,52.61-14.49c12.09-5,21.44-8.85,32.66-17a132.88,132.88,0,0,0,33.34-35.66c5.05-7.72,9.68-14.79,13.66-25.34,3.23-8.54,3.78-13.38,8.5-20.5,4.48-6.73,8.28-8.86,13.75-14,4.26-4,7.48-7.88,22-32.25,10.51-17.62,15.76-26.43,19-32.75,15-29.24,20.64-56.14,23.75-71.5,11-54.38,5.77-100,3-123-4.9-40.6-9.77-81-35-126-16.69-29.78-38.35-68.43-80-95C2548.1,1905.56,2532.8,1896.79,2534.41,1891.86Z" transform="translate(-1558.59 -1506.36)"/><path class="cls-1" d="M2433.49,2445.36s8.17-17.3,26.59-69.16c7-19.56,11-30.93,12.83-47.84,2.35-21.5-.29-38.69-5.5-72.5a166,166,0,0,0-6-26.41c-2-6.27-3.71-10.31-9.49-23.34-14.91-33.59-18.29-40-24.75-47.75-10-12-16.06-13.56-18.25-14-9.91-2-22.12,2.67-25.75,11-3.22,7.41,1.36,15.31,6.25,24.84,0,0,7.1,13.82,23.57,56.91,8.87,23.19,9.55,42.77,10.1,58.75,2,57.73-22.15,101.42-30.17,115.5-22,38.72-49.43,60.76-69.5,76.5-42.15,33.08-87.48,51.27-110.5,60.5-36.93,14.82-55.32,17.48-71,38-12.25,16-14.57,32.18-18.5,59.5,0,0-6.76,47,11.5,101.5,3.42,10.19,7.24,19.13,16,25,12.52,8.38,27.94,5.7,40.5,3.5,17.12-3,33.32-10,48.5-16.5,12.09-5.2,20.48-9.56,30.45-6.64,4.29,1.25,8.34,3.7,14,9.64,13.12,13.64,20.05,30.16,24.5,46.5,7.34,27,11.47,42.12,3,50.5-9.09,9-29.56,7-42-.5-8.59-5.21-9-10.49-18.5-14-7.43-2.76-12.92-1.63-26-.5-10.8.94-21.67,1-32.5,1.5-28.26,1.39-42.39,2.09-54.5,1.5-16.61-.79-24.46-2.52-29.5,3-5.59,6.15-1.89,14.86-9,20.5-4.14,3.29-9.24,3.39-15,3.5-6.81.14-14.53-1.37-19-4-10.72-6.29-8.38-22.24-11.5-58.5-2-23.44-3.18-18.85-8.5-63.5a247.59,247.59,0,0,0-4.79-29.19c-2.11-9.15-3.49-12.48-5.71-22.31a259.62,259.62,0,0,1-4.5-26.5c-1.61-12.73-5.27-35.93-14-81.5,0,0-17-72.89-5.5-97,3.74-7.85,9.5-10,9.5-10,1.6-.59,2.87-.7,8.5-.5,9.21.34,13.81.51,20.5,1.5,8.92,1.34,8.42,2.23,12,2a25.09,25.09,0,0,0,15.5-6.66c6.73-6.66,6.05-16.6,6.34-25,.13-3.87.25-.95,13.66-51.34,10.86-40.77,9.87-39.24,13-48.66,6.07-18.22,12.29-31.47,19-45.34,23.82-49.17,35.72-73.76,49-95.5,26.69-43.68,52.06-71.67,83.5-106.5,31.81-35.21,59.38-65.39,103.5-96.5,46.92-33.07,75-40.72,97-43,13.84-1.43,34.17-3.53,56.5,5.5,36.66,14.84,53,49.28,68,81,24.08,50.85,26.45,96.13,27.5,121,2,46.17-5.7,80.36-10,99-13.52,58.64-37.3,100.17-51.25,105.5-1.56.6-8.78,3-11.5,9.25-1.94,4.52-.66,8.95-.25,10.75,3.68,16.15-13.46,37.58-17,42-15.85,19.83-36.56,25.43-48,28.5-2.77.75-41.35,10.81-48.5-2C2425.16,2461.94,2428.43,2456.06,2433.49,2445.36Z" transform="translate(-1558.59 -1506.36)"/><path class="cls-2" d="M2266.91,2250.86" transform="translate(-1558.59 -1506.36)"/><path class="cls-1" d="M2127.41,2223.36a140.39,140.39,0,0,1-.5,15c-2.25,26.25-10.93,41.8-22.25,67.75-12.37,28.38-19.63,45-25.75,69-3.89,15.26-8.91,30.27-11.75,45.75-3.37,18.39-3.3,26.79-10.08,31-7.55,4.7-13.41-2.11-36.33-2.66-12-.29-20.89,1.28-30,7.33-8.48,5.63-13.19,12.22-14.67,15.67a41.4,41.4,0,0,0-3.33,17.33c1.68,66.4,1,75.95-1.67,80-4.42,6.81-19,10.21-41,18.33-8.51,3.15-30.82,11-73,18.67-25,4.53-44,8-70.66,8.77a321,321,0,0,1-55-2.44c-21.12-2.86-50.88-6.89-82-23.66-13.12-7.07-58.6-31.59-80-85.34-14.82-37.22-10.82-70.21-8.66-86.33a184.72,184.72,0,0,1,28-76.33c10-15.12,28.78-42.73,65.33-58.34a134.18,134.18,0,0,1,61.7-10.45c45.13,3.41,96,31.47,107,72.45,1.24,4.66,7.37,29.69-5.67,48-1.9,2.68-7.64,10.74-14,10-6.57-.75-8.79-10.3-18-27.33-7.69-14.21-11.6-21.44-18.33-28-17.91-17.42-42.7-17.38-45.34-17.33-26.18.43-43,17.09-50,24-5.38,5.33-26.54,27-26,60.66.07,4.34.94,31.89,22,54,22.57,23.7,53.28,25.34,70.67,26,39.88,1.53,71.83-13.47,106-33.33,4-2.34,7.27-4.28,10-6,59.81-37.41,109-79.77,138.85-108.19,20.52-19.53,26.58-27.09,51.75-50,19.61-17.83,22.64-19.36,33.75-31,9.86-10.32,16.72-18.8,29.94-29.46A189,189,0,0,1,2127.41,2223.36Z" transform="translate(-1558.59 -1506.36)"/><path class="cls-1" d="M2481.91,2610.57c2.46-1.87,7.72-1.84,18.57-2,7.66-.1-1.38,0,15.77-.19,11.94-.15,13.7.18,20.66,0,3.27-.08,4.19-.15,10.34-.33,4.21-.13,10-.21,14.07-.28a3.47,3.47,0,0,1,3.52,3.51c-.08,7.57.27,15.12-.09,23.77-.16,3.78-.16,7.51-.05,11.18.08,3,.08,6.08,0,9.12-.37,8.16-.46,28.66,5.1,59.2,1.42,7.84,2.75,14.19,8,19.66,7.82,8.16,19.2,8.86,26.66,9.34,15.49,1,27.91-3.72,42.22-9.33,19.13-7.49,22.8-12.49,32.45-11,3.49.54,11.42,2.25,21.33,13.34,7.32,8.18,10.7,16,17.17,31.33a177.56,177.56,0,0,1,8.67,24.33c4.13,15.3,6.16,22.95,3.66,28-6.95,14.07-45.86,5.87-53.5,1.09-3.51-2.2-7.58-5.15-7.58-5.15-2.36-1.71-4.26-3.2-5.54-4.23-4.8-3.73-8.24-6.41-9.42-7.37a25.33,25.33,0,0,0-2.14-1.57q-.58-.39-1.32-.81a29.27,29.27,0,0,0-5.25-2.25,45.27,45.27,0,0,0-7.37-2.12c-1.9-.33-2.29-.17-11.63-.25-4.13,0-4.87,0-5.87,0-1.26.05-2.91.15-8.13.74s-8,.9-10.55,1.33l-8.2,1.42h0c-.06,0-12.25,2.6-22.47,4-4.39.6-5.11.53-8.76,1.17-5.45,1-8.18,1.45-9.34,2.33-5.45,4.19,2.14,15.09-2,23-5.79,11.09-33.24,13.8-44.16,2-4.25-4.58-4.86-10.11-5.5-15.75-2.92-25.4-7.4-50.62-9.74-76.09-1.07-11.71-2.1-22.53-4.5-37.33-1.31-8.08-3.81-31.11-8.83-77.17C2477.58,2622.67,2476.87,2614.4,2481.91,2610.57Z" transform="translate(-1558.59 -1506.36)"/><path class="cls-3" d="M2411.89,1687.1c6.47,20.54,89.09,31.44,151.51,11.77s98.46-59.15,92-79.7-67.47-10.18-129.89,9.49S2405.41,1666.55,2411.89,1687.1Z" transform="translate(-1558.59 -1506.36)"/></svg>