<?xml version="1.0" encoding="utf-8"?>
<!-- Generator: Adobe Illustrator 22.1.0, SVG Export Plug-In . SVG Version: 6.00 Build 0)  -->
<svg version="1.1" id="Layer_1" xmlns="http://www.w3.org/2000/svg" xmlns:xlink="http://www.w3.org/1999/xlink" x="0px" y="0px"
	 viewBox="0 0 1424.1 1368" style="enable-background:new 0 0 1424.1 1368;" xml:space="preserve">
<style type="text/css">
	.st0{fill:#FF5252;}
	.st1{fill:#FFFFFF;stroke:#231F20;stroke-miterlimit:10;}
	.st2{fill:#FFFFFF;}
</style>
<title>DinoPHP-icon</title>
<path class="st0" d="M718.6,429.6c47.7,4.4,93.5-5.1,122.9-8.9c39.5-5,69.6-2.2,93.6,0c43.8,4.1,92,8.6,141.8,40.1
	c11.8,7.5,43.5,29,70.9,68.6c12,17.3,30.3,43.8,37.3,81.9c6.9,38-0.8,69.3,7.4,71.4c3.9,1,8.3-5.1,17-17
	c11.5-15.8,20.6-33.2,27-51.6c2.5-7.3,5-18.2,10-40.1c5.5-23.8,8.2-35.7,10-47c1.5-9.7,3.3-23.8,3.9-60.9
	c0.6-41.6,0.9-62.4-1.5-84.8c-3.3-30.5-10-60.5-20-89.4c-10.8-30.5-21.9-61.2-49.3-90.2c-19.7-20.9-37.1-29.6-43.2-32.4
	c-17.3-8.1-32-10.2-41.6-11.6c-6.2-0.9-26.2-3.3-74.8,4.6c-30.7,5-53.5,11-58.6,12.3c-37.3,9.9-64.3,21.1-88.6,31.2
	c-13.7,5.7-31.7,13.2-53.9,24.7l-0.7,0.4c-10.6,5.5-18.8,9.9-23.2,12.3l-2.3,1.2c-15.9,8.6-31.3,15.2-47.4,23.6
	c0,0-15.4,8.1-38.1,22.9c-6.6,4.3-12.3,8.6-12.3,8.6c-1.9,1.4-3.4,2.6-4.4,3.4c-5.4,4.3-10.4,9.1-14.9,14.4
	c-4.3,5-10.5,12.2-14.6,22.4c-6.7,16.3-4.5,31.3-3.5,38.1c1.4,8.7,4.3,27.3,18.9,39.7C697.6,427.2,710.8,428.8,718.6,429.6z"/>
<path class="st0" d="M915.3,454c1.7-5.1,26.1-1.4,35.5,0c26.6,4,52.8,8,84,24.7c22.4,11.9,56.3,35.1,81.7,76.3
	c5,8,28.6,47.5,31.6,104.8c2.8,52.3-13.2,91.2-21.6,111c-35.3,83.2-101,126.4-132.8,146.7c-21.8,13.9-77.7,46.4-153.4,55.2
	c-38.8,4.5-90.2,3.7-92.2-6.4c-0.6-3.2,3.8-7,10.5-12.8c3.1-2.7,11.4-9.4,25.7-13.1c8-2.1,11.6-1.6,31.1-2c18.7-0.4,28-0.6,34.2-1.4
	c13.9-2,27.6-5.7,40.5-11.2c9.3-3.9,16.5-6.8,25.2-13.1c10.2-7.5,18.9-16.8,25.7-27.5c3.9-5.9,7.5-11.4,10.5-19.5
	c2.5-6.6,2.9-10.3,6.6-15.8c3.5-5.2,6.4-6.8,10.6-10.8c3.3-3.1,5.8-6.1,17-24.9c8.1-13.6,12.1-20.4,14.6-25.2
	c11.6-22.5,15.9-43.3,18.3-55.1c8.5-41.9,4.4-77.1,2.3-94.8c-3.8-31.3-7.5-62.4-27-97.1c-12.9-23-29.6-52.7-61.7-73.2
	C925.9,464.5,914.1,457.8,915.3,454z"/>
<path class="st0" d="M837.6,880.5c0,0,6.3-13.3,20.5-53.3c5.4-15.1,8.5-23.8,9.9-36.9c1.8-16.6-0.2-29.8-4.2-55.9
	c-1-6.9-2.5-13.7-4.6-20.4c-1.5-4.8-2.9-7.9-7.3-18c-11.5-25.9-14.1-30.8-19.1-36.8c-7.7-9.2-12.4-10.5-14.1-10.8
	c-7.6-1.5-17,2.1-19.8,8.5c-2.5,5.7,1,11.8,4.8,19.1c0,0,5.5,10.7,18.2,43.9c6.8,17.9,7.4,33,7.8,45.3c1.5,44.5-17.1,78.2-23.3,89
	c-17,29.8-38.1,46.8-53.6,59c-32.5,25.5-67.4,39.5-85.2,46.6c-28.5,11.4-42.6,13.5-54.7,29.3c-9.4,12.3-11.2,24.8-14.3,45.9
	c0,0-5.2,36.2,8.9,78.2c2.6,7.9,5.6,14.7,12.3,19.3c9.6,6.5,21.5,4.4,31.2,2.7c13.2-2.3,25.7-7.7,37.4-12.7c9.3-4,15.8-7.4,23.5-5.1
	c3.3,1,6.4,2.9,10.8,7.4c10.1,10.5,15.5,23.2,18.9,35.8c5.7,20.8,8.8,32.5,2.3,38.9c-7,6.9-22.8,5.4-32.4-0.4
	c-6.6-4-6.9-8.1-14.3-10.8c-5.7-2.1-10-1.3-20-0.4c-8.3,0.7-16.7,0.8-25,1.2c-21.8,1.1-32.7,1.6-42,1.2c-12.8-0.6-18.9-1.9-22.7,2.3
	c-4.3,4.7-1.5,11.5-6.9,15.8c-3.2,2.5-7.1,2.6-11.6,2.7c-5.2,0.1-11.2-1.1-14.6-3.1c-8.3-4.8-6.5-17.1-8.9-45.1
	c-1.5-18.1-2.5-14.5-6.6-48.9c-0.8-7.6-2-15.1-3.7-22.5c-1.6-7.1-2.7-9.6-4.4-17.2c-1.5-6.7-2.7-13.6-3.5-20.4
	c-1.2-9.8-4.1-27.7-10.8-62.8c0,0-13.1-56.2-4.2-74.8c2.9-6,7.3-7.7,7.3-7.7c1.2-0.5,2.2-0.5,6.6-0.4c7.1,0.3,10.6,0.4,15.8,1.2
	c6.9,1,6.5,1.7,9.2,1.5c4.5-0.3,8.7-2.1,11.9-5.1c5.2-5.1,4.7-12.8,4.9-19.3c0.1-3,0.2-0.7,10.5-39.6c8.4-31.4,7.6-30.2,10-37.5
	c4.7-14,9.5-24.3,14.6-34.9c18.4-37.9,27.5-56.8,37.8-73.6c20.6-33.7,40.1-55.2,64.4-82.1c24.5-27.1,45.8-50.4,79.8-74.4
	c36.2-25.5,57.8-31.4,74.8-33.1c10.7-1.1,26.3-2.7,43.5,4.2c28.3,11.4,40.8,38,52.4,62.4c18.6,39.2,20.4,74.1,21.2,93.3
	c1.5,35.6-4.4,61.9-7.7,76.3c-10.4,45.2-28.7,77.2-39.5,81.3c-1.2,0.5-6.8,2.3-8.9,7.1c-1.5,3.5-0.5,6.9-0.2,8.3
	c2.8,12.4-10.4,29-13.1,32.4c-12.2,15.3-28.2,19.6-37,22c-2.1,0.6-31.9,8.3-37.4-1.5C831.1,893.3,833.7,888.8,837.6,880.5z"/>
<path class="st1" d="M709.2,730.6"/>
<path class="st0" d="M601.7,709.4c0.1,3.9-0.1,7.7-0.4,11.6c-1.7,20.2-8.4,32.2-17.1,52.2c-9.5,21.9-15.1,34.7-19.8,53.2
	c-3,11.8-6.9,23.3-9.1,35.3c-2.6,14.2-2.5,20.6-7.8,23.9c-5.8,3.6-10.3-1.6-28-2c-9.2-0.2-16.1,1-23.1,5.6
	c-6.5,4.3-10.2,9.4-11.3,12.1c-1.8,4.2-2.7,8.8-2.6,13.4c1.3,51.2,0.8,58.5-1.3,61.7c-3.4,5.2-14.6,7.9-31.6,14.1
	c-6.6,2.4-23.8,8.5-56.3,14.4c-19.3,3.5-33.9,6.2-54.5,6.8c-14.2,0.6-28.3,0-42.4-1.9c-16.3-2.2-39.2-5.3-63.2-18.2
	c-10.1-5.4-45.2-24.3-61.7-65.8c-11.4-28.7-8.3-54.1-6.7-66.5c2.7-21,10.1-41.1,21.6-58.8c7.7-11.7,22.2-32.9,50.3-45
	c15-6.4,31.3-9.2,47.6-8.1c34.8,2.6,74,24.3,82.5,55.8c1,3.6,5.7,22.9-4.4,37c-1.5,2.1-5.9,8.3-10.8,7.7c-5.1-0.6-6.8-7.9-13.9-21.1
	c-5.9-11-8.9-16.5-14.1-21.6c-13.8-13.4-32.9-13.4-34.9-13.4c-20.2,0.3-33.1,13.2-38.5,18.5c-4.1,4.1-20.5,20.8-20,46.8
	c0.1,3.3,0.7,24.6,17,41.6c17.4,18.3,41.1,19.5,54.5,20c30.7,1.2,55.4-10.4,81.7-25.7c3.1-1.8,5.6-3.3,7.7-4.6
	c46.1-28.8,84-61.5,107-83.4c15.8-15.1,20.5-20.9,39.9-38.5c15.1-13.7,17.4-14.9,26-23.9c7.6-8,12.9-14.5,23.1-22.7
	C591.7,716.1,596.6,712.6,601.7,709.4z"/>
<path class="st0" d="M874.9,1007.9c1.9-1.4,5.9-1.4,14.3-1.5c5.9-0.1-1.1,0,12.2-0.1c9.2-0.1,10.6,0.1,15.9,0c2.5-0.1,3.2-0.1,8-0.3
	c3.2-0.1,7.7-0.2,10.8-0.2c1.5,0,2.7,1.2,2.7,2.6c0,0,0,0,0,0.1c-0.1,5.8,0.2,11.7-0.1,18.3c-0.1,2.9-0.1,5.8,0,8.6
	c0.1,2.3,0.1,4.7,0,7c-0.3,6.3-0.4,22.1,3.9,45.6c1.1,6,2.1,10.9,6.2,15.2c6,6.3,14.8,6.8,20.5,7.2c11.9,0.8,21.5-2.9,32.5-7.2
	c14.7-5.8,17.6-9.6,25-8.5c2.7,0.4,8.8,1.7,16.4,10.3c5.6,6.3,8.2,12.3,13.2,24.1c2.7,6.1,4.9,12.3,6.7,18.8
	c3.2,11.8,4.7,17.7,2.8,21.6c-5.4,10.8-35.3,4.5-41.2,0.8c-2.7-1.7-5.8-4-5.8-4c-1.8-1.3-3.3-2.5-4.3-3.3c-3.7-2.9-6.4-4.9-7.3-5.7
	c-0.5-0.4-1.1-0.8-1.6-1.2c-0.3-0.2-0.6-0.4-1-0.6c-1.3-0.7-2.6-1.3-4-1.7c-1.8-0.7-3.7-1.3-5.7-1.6c-1.5-0.3-1.8-0.1-9-0.2
	c-3.2,0-3.8,0-4.5,0c-1,0-2.2,0.1-6.3,0.6c-4,0.5-6.2,0.7-8.1,1l-6.3,1.1l0,0c0,0-9.4,2-17.3,3.1c-3.4,0.5-3.9,0.4-6.8,0.9
	c-4.2,0.8-6.3,1.1-7.2,1.8c-4.2,3.2,1.6,11.6-1.5,17.7c-4.5,8.5-25.6,10.6-34,1.5c-3.3-3.5-3.7-7.8-4.2-12.1
	c-2.3-19.6-5.7-39-7.5-58.6c-0.8-9-1.6-17.4-3.5-28.8c-1-6.2-2.9-24-6.8-59.5C871.5,1017.2,871,1010.8,874.9,1007.9z"/>
<path class="st2" d="M820.9,296.1c5,15.8,68.7,24.2,116.8,9.1c48.1-15.2,75.9-45.6,70.9-61.4c-5-15.8-52-7.8-100.1,7.3
	S815.9,280.3,820.9,296.1z"/>
</svg>
