<svg xmlns="http://www.w3.org/2000/svg" version="1.1" viewBox="0 0 24 24"><path d="m13 9h5.5l-5.5-5.5v5.5m-7-7h8l6 6v12a2 2 0 0 1 -2 2h-12c-1.11 0-2-.9-2-2v-16c0-1.11.89-2 2-2m9 16v-2h-9v2h9m3-4v-2h-12v2h12z" fill="#757575"/><circle cx="16.5" cy="16.5" fill="#fff" r="4.5"/><path d="m21.11 21.09c.01-.01.02-.03.03-.04c1.15-1.17 1.86-2.78 1.86-4.55c0-3.59-2.91-6.5-6.5-6.5c-3.59 0-6.5 2.91-6.5 6.5c0 3.59 2.91 6.5 6.5 6.5c1.78 0 3.39-.72 4.56-1.87c.01-.01.03-.02.04-.03zm-.79-2.2-6.2-6.2a4.5 4.5 0 015.58.63a4.5 4.5 0 01.63 5.58zm-1.41 1.41A4.5 4.5 0 0113.33 19.68A4.5 4.5 0 0112.7 14.1z" fill="#e53935"/></svg>