<svg xmlns="http://www.w3.org/2000/svg" version="1.1" viewBox="0 0 24 24"><path d="m13 9h5.5l-5.5-5.5v5.5m-7-7h8l6 6v12a2 2 0 0 1 -2 2h-12c-1.11 0-2-.9-2-2v-16c0-1.11.89-2 2-2m9 16v-2h-9v2h9m3-4v-2h-12v2h12z" fill="#757575" /><circle cx="16.5" cy="16.5" fill="#fff" r="3.9" /><path d="m21.1 21.1a6.5 6.5 0 000-9.19a6.5 6.5 0 00-9.19 0a6.5 6.5 0 000 9.19a6.5 6.5 0 009.19 0zm-1.08-2.93-5.2-5.2a3.9 3.9 0 014.43.77a3.9 3.9 0 01.77 4.43zm-1.83 1.83a3.9 3.9 0 01-4.43-.77a3.9 3.9 0 01-.75-4.43z" fill="#e53935" /></svg>