<svg xmlns="http://www.w3.org/2000/svg" viewBox="0 0 32 32"><path fill="#43a047" d="M22 2h4v4h-4zm0 8v12.13A3.88 3.88 0 0 1 18.13 26H18v4h.13A7.866 7.866 0 0 0 26 22.13V10Zm-8-8h4v20h-4z"/><path fill="#43a047" d="M11.838 12A2.165 2.165 0 0 1 14 14.162v4.955l-.77.257a5.033 5.033 0 0 1-2.812.108A3.188 3.188 0 0 1 8 16.384v-.547A3.842 3.842 0 0 1 11.838 12m0-4A7.838 7.838 0 0 0 4 15.837v.547a7.193 7.193 0 0 0 5.448 6.978 9.033 9.033 0 0 0 5.047-.194L18 22v-7.838A6.162 6.162 0 0 0 11.838 8Z"/></svg>