<svg xmlns="http://www.w3.org/2000/svg" viewBox="0 0 32 32">
  <rect x="22" y="2" width="4" height="4" style="fill: #43a047"/>
  <path d="M22,10V22.13A3.87943,3.87943,0,0,1,18.13,26H18v4h.13A7.86552,7.86552,0,0,0,26,22.13V10Z" style="fill: #43a047"/>
  <rect x="14" y="2" width="4" height="20" style="fill: #43a047"/>
  <path d="M11.83753,12A2.16493,2.16493,0,0,1,14,14.16248V19.117l-.76967.25657a5.0326,5.0326,0,0,1-2.81186.10794A3.18818,3.18818,0,0,1,8,16.384v-.54651A3.84185,3.84185,0,0,1,11.83753,12m0-4A7.83751,7.83751,0,0,0,4,15.83746V16.384a7.19288,7.19288,0,0,0,5.44836,6.97809,9.03259,9.03259,0,0,0,5.04688-.19379L18,22V14.16248A6.16248,6.16248,0,0,0,11.83753,8Z" style="fill: #43a047"/>
</svg>
