<svg viewBox="0 0 24 24" xmlns="http://www.w3.org/2000/svg"><g fill="#42a5f5"><path d="M4,6H2v14c0,1.1,0.9,2,2,2h14v-2H4V6z"/><circle cx="14" cy="10" r="2.1"/><path d="M20,2H8C6.9,2,6,2.9,6,4v12c0,1.1,0.9,2,2,2h12c1.1,0,2-0.9,2-2V4C22,2.9,21.1,2,20,2z M19.77,11.97l-1.2,2.08,c-0.07,0.12-0.24,0.18-0.37,0.13l-1.49-0.6c-0.31,0.24-0.64,0.44-1.01,0.6l-0.22,1.58c-0.04,0.12-0.17,0.24-0.31,0.24h-2.41,c-0.14,0-0.26-0.11-0.29-0.25l-0.22-1.58c-0.38-0.14-0.71-0.36-1.02-0.6l-1.49,0.61c-0.13,0.05-0.29,0-0.36-0.12l-1.21-2.09,c-0.07-0.13-0.05-0.29,0.07-0.38l1.26-1c-0.02-0.19-0.04-0.38-0.04-0.58c0-0.19,0.02-0.4,0.04-0.6l-1.26-1,C8.12,8.34,8.09,8.17,8.17,8.05l1.21-2.09c0.07-0.12,0.23-0.18,0.36-0.12l1.49,0.6C11.55,6.2,11.87,6,12.25,5.85l0.22-1.58,C12.48,4.11,12.61,4,12.76,4h2.42c0.14,0,0.26,0.11,0.29,0.25l0.22,1.58c0.38,0.14,0.71,0.36,1.01,0.59l1.5-0.6,c0.13-0.06,0.29,0,0.36,0.12l1.2,2.09c0.07,0.13,0.05,0.3-0.07,0.38L18.42,9.4c0.02,0.2,0.04,0.41,0.04,0.6,c0,0.19-0.02,0.4-0.04,0.58l1.26,1C19.8,11.67,19.84,11.84,19.77,11.97z"/></g></svg>