<svg version="1.1" viewBox="0 0 24 24" xmlns="http://www.w3.org/2000/svg">
 <path d="m6 2c-1.11 0-2 0.9-2 2v16c0 1.11 0.89 2 2 2h6v-2h-6v-16h7v5h5v3h2v-4l-6-6m4 12c-0.13 0-0.24 0.09-0.26 0.21l-0.19 1.32c-0.3 0.13-0.59 0.29-0.85 0.47l-1.24-0.5c-0.11 0-0.24 0-0.31 0.13l-1 1.73c-0.06 0.11-0.04 0.24 0.06 0.32l1.06 0.82c-0.02 0.17-0.03 0.33-0.03 0.5s0.01 0.33 0.03 0.5l-1.06 0.82c-0.09 0.08-0.12 0.21-0.06 0.32l1 1.73c0.06 0.13 0.19 0.13 0.31 0.13l1.24-0.5c0.26 0.18 0.54 0.35 0.85 0.47l0.19 1.32c0.02 0.12 0.12 0.21 0.26 0.21h2c0.11 0 0.22-0.09 0.24-0.21l0.19-1.32c0.3-0.13 0.57-0.29 0.84-0.47l1.23 0.5c0.13 0 0.26 0 0.33-0.13l1-1.73c0.06-0.11 0.03-0.24-0.06-0.32l-1.07-0.82c0.02-0.17 0.04-0.33 0.04-0.5s-0.01-0.33-0.04-0.5l1.06-0.82c0.09-0.08 0.12-0.21 0.06-0.32l-1-1.73c-0.06-0.13-0.19-0.13-0.32-0.13l-1.23 0.5c-0.27-0.18-0.54-0.35-0.85-0.47l-0.19-1.32c-0.01-0.12-0.12-0.21-0.23-0.21m-1 3.5c0.83 0 1.5 0.67 1.5 1.5s-0.67 1.5-1.5 1.5c-0.84 0-1.5-0.67-1.5-1.5s0.67-1.5 1.5-1.5z" fill="#42a5f5"/>
</svg>
