<svg xmlns="http://www.w3.org/2000/svg" viewBox="0 0 32 32">
  <g>
    <path d="M8,2.5v21a.5.5,0,0,0,.5.5h21a.5.5,0,0,0,.5-.5V2.5a.5.5,0,0,0-.5-.5H8.5A.5.5,0,0,0,8,2.5ZM28,15H25.7063a6.95918,6.95918,0,0,1-.54791,1.3299l1.61981,1.61981-2.82843,2.82843L22.33,19.15839A6.95973,6.95973,0,0,1,21,19.7063V22H17V19.7063a6.95973,6.95973,0,0,1-1.33-.54791l-1.61981,1.61975L11.2218,17.94971l1.61981-1.61981A6.95918,6.95918,0,0,1,12.2937,15H10V11h2.2937a6.95814,6.95814,0,0,1,.54791-1.33L11.2218,8.05023,14.05023,5.2218,15.67,6.84161A6.95427,6.95427,0,0,1,17,6.2937V4h4V6.2937a6.95427,6.95427,0,0,1,1.33.54791L23.94977,5.2218,26.7782,8.05023,25.15839,9.67A6.95814,6.95814,0,0,1,25.7063,11H28Z" style="fill: #42a5f5"/>
    <circle cx="19" cy="13" r="3" style="fill: #42a5f5"/>
  </g>
  <path d="M4,28V8H2V29.5a.5.5,0,0,0,.5.5H24V28Z" style="fill: #42a5f5"/>
</svg>
