<svg xmlns="http://www.w3.org/2000/svg" viewBox="0 0 32 32">
  <path d="M16,8H12V4h4Zm6-4V8H18V4Zm-6,6v4H12V10Zm6,0v4H18V10ZM10,10v4H6V10Z" style="fill: #0087c9"/>
  <path d="M28,14c.042-1.06934-1.22852-3.84851-2-4a4.838,4.838,0,0,0-.83868,5.50574A1.89,1.89,0,0,1,23.91864,16l-19.02527.00018A.89973.89973,0,0,0,4,16.90662c-.03184,3.04793.26837,5.65547,1.8511,7.45582A5.01214,5.01214,0,0,0,9.63235,26l6.10795,0a11.72606,11.72606,0,0,0,7.22784-2.42389,13.39814,13.39814,0,0,0,4.56921-6.50106A4.29877,4.29877,0,0,0,32,14C30.14764,13.1756,29.34,13.75793,28,14Z" style="fill: #0087c9"/>
</svg>
