<svg version="1.1" viewBox="0 0 24 24" xml:space="preserve" xmlns="http://www.w3.org/2000/svg"><path d="m21.81 10.25c-0.06-0.04-0.56-0.43-1.64-0.43-0.28 0-0.56 0.03-0.84 0.08-0.21-1.4-1.38-2.11-1.43-2.14l-0.29-0.17-0.18 0.27c-0.24 0.36-0.43 0.77-0.51 1.19-0.2 0.8-0.08 1.56 0.33 2.21-0.49 0.28-1.29 0.35-1.46 0.35h-13.17c-0.34 0-0.62 0.28-0.62 0.63 0 1.15 0.18 2.3 0.58 3.38 0.45 1.19 1.13 2.07 2 2.61 0.98 0.6 2.59 0.94 4.42 0.94 0.79 0 1.61-0.07 2.42-0.22 1.12-0.2 2.2-0.59 3.19-1.16 0.82-0.47 1.55-1.07 2.17-1.79 1.05-1.17 1.67-2.5 2.12-3.65h0.19c1.14 0 1.85-0.46 2.24-0.85 0.26-0.24 0.45-0.53 0.59-0.87l0.08-0.24-0.19-0.14m-17.96 0.99h1.76c0.08 0 0.16-0.07 0.16-0.16v-1.58c0-0.08-0.07-0.16-0.16-0.16h-1.76c-0.09 0-0.16 0.07-0.16 0.16v1.58c0.01 0.09 0.07 0.16 0.16 0.16m2.43 0h1.76c0.08 0 0.16-0.07 0.16-0.16v-1.58c0-0.08-0.07-0.16-0.16-0.16h-1.76c-0.09 0-0.16 0.07-0.16 0.16v1.58c0.01 0.09 0.07 0.16 0.16 0.16m2.47 0h1.75c0.1 0 0.17-0.07 0.17-0.16v-1.58c0-0.08-0.06-0.16-0.17-0.16h-1.75c-0.08 0-0.15 0.07-0.15 0.16v1.58c0 0.09 0.06 0.16 0.15 0.16m2.44 0h1.77c0.08 0 0.15-0.07 0.15-0.16v-1.58c0-0.08-0.06-0.16-0.15-0.16h-1.77c-0.08 0-0.15 0.07-0.15 0.16v1.58c0 0.09 0.07 0.16 0.15 0.16m-4.91-2.24h1.76c0.08 0 0.16-0.09 0.16-0.18v-1.57c0-0.09-0.07-0.16-0.16-0.16h-1.76c-0.09 0-0.16 0.06-0.16 0.16v1.57c0.01 0.09 0.07 0.18 0.16 0.18m2.47 0h1.75c0.1 0 0.17-0.09 0.17-0.18v-1.57c0-0.09-0.06-0.16-0.17-0.16h-1.75c-0.08 0-0.15 0.06-0.15 0.16v1.57c0 0.09 0.06 0.18 0.15 0.18m2.44 0h1.77c0.08 0 0.15-0.09 0.15-0.18v-1.57c0-0.09-0.07-0.16-0.15-0.16h-1.77c-0.08 0-0.15 0.06-0.15 0.16v1.57c0 0.09 0.07 0.18 0.15 0.18m0-2.28h1.77c0.08 0 0.15-0.07 0.15-0.16v-1.56c0-0.1-0.07-0.17-0.15-0.17h-1.77c-0.08 0-0.15 0.06-0.15 0.17v1.56c0 0.08 0.07 0.16 0.15 0.16m2.46 4.52h1.76c0.09 0 0.16-0.07 0.16-0.16v-1.58c0-0.08-0.07-0.16-0.16-0.16h-1.76c-0.08 0-0.15 0.07-0.15 0.16v1.58c0 0.09 0.07 0.16 0.15 0.16" fill="#0087c9"/></svg>
