<?xml version="1.0" encoding="UTF-8"?>
<svg width="24" height="24" version="1.1" viewBox="0 0 24 24" xmlns="http://www.w3.org/2000/svg">
 <path d="m22.593 10.11c-0.06479-0.04319-0.60471-0.46433-1.7709-0.46433-0.30236 0-0.60472 0.032395-0.90707 0.086388-0.22677-1.5118-1.4902-2.2785-1.5442-2.3109l-0.31316-0.18357-0.19437 0.29156c-0.25916 0.38874-0.46433 0.83148-0.55072 1.285-0.21597 0.86388-0.08639 1.6846 0.35635 2.3865-0.52912 0.30236-1.393 0.37795-1.5766 0.37795h-14.222c-0.36715 0-0.6695 0.30236-0.6695 0.6803 0 1.2418 0.19437 2.4836 0.62631 3.6499 0.48593 1.285 1.2202 2.2353 2.1597 2.8184 1.0582 0.64791 2.7968 1.0151 4.7729 1.0151 0.85308 0 1.7386-0.07559 2.6132-0.23757 1.2094-0.21597 2.3757-0.63711 3.4447-1.2526 0.88547-0.50753 1.6738-1.1554 2.3433-1.9329 1.1338-1.2634 1.8033-2.6996 2.2893-3.9414h0.20517c1.231 0 1.9977-0.49673 2.4189-0.91787 0.28076-0.25916 0.48593-0.57232 0.63711-0.93947l0.08639-0.25916-0.20517-0.15118m-19.394 1.069h1.9005c0.086388 0 0.17278-0.07559 0.17278-0.17278v-1.7062c0-0.086388-0.075589-0.17278-0.17278-0.17278h-1.9005c-0.097186 0-0.17278 0.075589-0.17278 0.17278v1.7062c0.010798 0.09719 0.075589 0.17278 0.17278 0.17278m2.624 0h1.9005c0.086388 0 0.17278-0.07559 0.17278-0.17278v-1.7062c0-0.086388-0.075589-0.17278-0.17278-0.17278h-1.9005c-0.097186 0-0.17278 0.075589-0.17278 0.17278v1.7062c0.010798 0.09719 0.075589 0.17278 0.17278 0.17278m2.6672 0h1.8897c0.10798 0 0.18357-0.07559 0.18357-0.17278v-1.7062c0-0.086388-0.06479-0.17278-0.18357-0.17278h-1.8897c-0.086388 0-0.16198 0.075589-0.16198 0.17278v1.7062c0 0.09719 0.064791 0.17278 0.16198 0.17278m2.6348 0h1.9113c0.08639 0 0.16198-0.07559 0.16198-0.17278v-1.7062c0-0.086388-0.06479-0.17278-0.16198-0.17278h-1.9113c-0.08639 0-0.16198 0.075589-0.16198 0.17278v1.7062c0 0.09719 0.07559 0.17278 0.16198 0.17278m-5.302-2.4189h1.9005c0.086388 0 0.17278-0.097186 0.17278-0.19437v-1.6954c0-0.097186-0.075589-0.17278-0.17278-0.17278h-1.9005c-0.097186 0-0.17278 0.064791-0.17278 0.17278v1.6954c0.010798 0.097186 0.075589 0.19437 0.17278 0.19437m2.6672 0h1.8897c0.10798 0 0.18357-0.097186 0.18357-0.19437v-1.6954c0-0.097186-0.06479-0.17278-0.18357-0.17278h-1.8897c-0.086388 0-0.16198 0.064791-0.16198 0.17278v1.6954c0 0.097186 0.064791 0.19437 0.16198 0.19437m2.6348 0h1.9113c0.08639 0 0.16198-0.097186 0.16198-0.19437v-1.6954c0-0.097186-0.07559-0.17278-0.16198-0.17278h-1.9113c-0.08639 0-0.16198 0.064791-0.16198 0.17278v1.6954c0 0.097186 0.07559 0.19437 0.16198 0.19437m0-2.4621h1.9113c0.08639 0 0.16198-0.075589 0.16198-0.17278v-1.6846c0-0.10798-0.07559-0.18357-0.16198-0.18357h-1.9113c-0.08639 0-0.16198 0.064791-0.16198 0.18357v1.6846c0 0.086388 0.07559 0.17278 0.16198 0.17278m2.6564 4.8809h1.9005c0.09719 0 0.17278-0.07559 0.17278-0.17278v-1.7062c0-0.086388-0.07559-0.17278-0.17278-0.17278h-1.9005c-0.08639 0-0.16198 0.075589-0.16198 0.17278v1.7062c0 0.09719 0.07559 0.17278 0.16198 0.17278" fill="#0087c9" stroke-width="1.0798"/>
</svg>
