<svg xmlns="http://www.w3.org/2000/svg" viewBox="0 0 24 24"><path fill="#eee" d="M13 7.75h7.55V18.2H13z"/><path fill="#ff0" d="M14.891 11.6c-.735 0-1.371.42-1.685 1.031h5.377v2h-5.586v1.5h5.586v2h-5.586v2h5.685c1.047 0 1.896-.85 1.897-1.896V11.6z"/><path fill="#00C853" d="M8.256 3.87a.54.54 0 00-.473.273l-.236.41-.002.002-.127.22L6.77 4.4a.547.547 0 00-.82.475v.666l-.632.002a.547.547 0 00-.474.82l.355.615-.61.354a.548.548 0 000 .95l.817.47v.004l-.816.472a.548.548 0 000 .95l.816.47v.004l-.816.473a.548.548 0 000 .95l.816.47v.004l-.816.472a.548.548 0 000 .95l.816.47v.004l-.816.473a.548.548 0 000 .95l.498.286a3.801 3.801 0 01-2.117-1.71 3.77 3.77 0 00-.512 1.896 3.79 3.79 0 003.791 3.79h8.641v-3.79h-1.895v-1.897h1.895v-1.896h-1.64a1.89 1.89 0 011.64-.947h5.687v-.948l-6.637-.416a1.01 1.01 0 010-2.014l6.637-.413v-.95c0-1.047-.85-1.894-1.896-1.894h-5.686l-.473-.822a.548.548 0 00-.949 0l-.472.822-.475-.822a.547.547 0 00-.947 0l-.237.41-.002.002-.236.408-.238-.408-.237-.412a.543.543 0 00-.474-.274zm10.166 2.042a.444.444 0 01.205.037.491.491 0 01.154.102.485.485 0 01.13.428.493.493 0 01-.13.244.491.491 0 01-.154.102.486.486 0 01-.182.036.485.485 0 01-.336-.138.72.72 0 01-.058-.073.498.498 0 01-.043-.082.496.496 0 01-.037-.181.485.485 0 01.21-.395.491.491 0 01.24-.08zm-2.82.236a.452.452 0 01.181.038.491.491 0 01.155.101.483.483 0 010 .672.491.491 0 01-.154.102.486.486 0 01-.182.037.503.503 0 01-.092-.01.478.478 0 01-.09-.027.491.491 0 01-.154-.102c-.021-.023-.042-.046-.059-.072a.498.498 0 01-.043-.082.496.496 0 01-.035-.182.5.5 0 01.035-.182.498.498 0 01.102-.154.491.491 0 01.336-.139zm-6.635.475c1.045 0 1.894.851 1.894 1.897a.38.38 0 01-.379.378.38.38 0 01-.379-.378 1.14 1.14 0 00-1.136-1.14A1.14 1.14 0 007.83 8.52a.38.38 0 11-.76 0 1.9 1.9 0 011.897-1.897z"/><path fill="#00E676" d="M15.375 12.439a.237.237 0 00-.229.145.947.947 0 00-.255-.038.949.949 0 10.255 1.862.237.237 0 00.456-.094.232.232 0 00-.05-.14l.016-.018c.04.03.089.05.143.05a.237.237 0 00.092-.456l.006-.022c.01.001.019.004.029.004a.237.237 0 000-.475c-.01 0-.02.003-.03.004a1.762 1.762 0 00-.005-.021.237.237 0 00-.092-.455.233.233 0 00-.143.049.63.63 0 00-.015-.016.24.24 0 00.049-.143.237.237 0 00-.227-.236zm5.688 0a.237.237 0 00-.229.145.947.947 0 00-.256-.038v1.897a.953.953 0 00.256-.035c.101.238.456.165.455-.094a.232.232 0 00-.049-.14c.006-.006.01-.013.016-.018.04.03.089.05.142.05.264.005.337-.359.092-.456l.006-.022c.01.001.02.004.03.004.316 0 .316-.475 0-.475-.01 0-.02.003-.03.004a1.812 1.812 0 00-.006-.021c.237-.101.166-.454-.092-.455a.233.233 0 00-.142.049.606.606 0 00-.016-.016.24.24 0 00.05-.143.239.239 0 00-.227-.236zm-6.172 3.426a.474.474 0 00-.473.474c0 .021.003.041.006.061l-.043.01a.474.474 0 00-.91.185.47.47 0 00.095.283 1.895 1.895 0 103.16 1.824c.02.003.04.007.061.007a.474.474 0 00.473-.475.474.474 0 00-.473-.473c-.02 0-.04.004-.06.006l-.012-.043a.474.474 0 00-.182-.912.47.47 0 00-.287.098 2.515 2.515 0 00-.031-.031.47.47 0 00.095-.284.474.474 0 00-.91-.185l-.04-.01c.002-.02.005-.04.005-.06a.474.474 0 00-.474-.475zm5.687.26v2.109c0 .884-.606 1.627-1.426 1.836a1.893 1.893 0 002.313-1.367c.02.002.04.006.06.006a.474.474 0 100-.948c-.02 0-.04.004-.06.006l-.01-.043c.482-.198.337-.915-.184-.912a.47.47 0 00-.285.098l-.03-.032a.47.47 0 00-.378-.753z"/></svg>
