<svg xmlns="http://www.w3.org/2000/svg" width="1024" height="1024" viewBox="0 0 1024 1024">
<g>
<path d="M 331.87 991.99 C237.77,991.92 138.16,991.65 94.25,991.34 L 0.00 990.67 L 0.00 966.73 L 6.97 953.00 C10.80,945.45 13.65,938.98 13.30,938.63 C12.95,938.28 13.11,938.00 13.66,938.00 C14.84,938.00 24.49,920.01 23.32,919.98 C22.87,919.98 23.00,919.64 23.61,919.23 C25.37,918.08 31.08,907.41 30.33,906.67 C29.97,906.30 30.19,906.00 30.82,906.00 C32.19,906.00 38.19,894.52 37.29,893.62 C36.95,893.28 37.15,893.00 37.74,893.00 C38.95,893.00 44.33,884.26 44.33,882.29 C44.33,881.58 44.63,881.00 44.98,881.00 C46.05,881.00 50.02,873.35 49.31,872.65 C48.96,872.29 49.18,872.00 49.81,872.00 C51.18,872.00 55.18,864.52 54.29,863.62 C53.95,863.28 54.18,863.00 54.81,863.00 C56.18,863.00 59.18,857.52 58.29,856.63 C57.95,856.28 58.22,856.00 58.89,856.00 C59.57,856.00 59.84,855.55 59.50,855.00 C59.16,854.45 59.35,854.00 59.92,854.00 C61.22,854.00 65.14,846.48 64.29,845.62 C63.95,845.28 64.19,845.00 64.83,845.00 C66.02,845.00 78.56,820.89 79.16,817.44 C79.35,816.37 79.78,815.28 80.12,815.00 C81.48,813.89 87.05,799.89 86.49,798.98 C86.15,798.44 86.26,798.00 86.72,798.00 C87.82,798.00 90.09,791.96 89.41,790.85 C89.12,790.38 89.41,790.00 90.05,790.00 C90.69,790.00 90.95,789.33 90.64,788.50 C90.32,787.67 90.43,787.00 90.89,787.00 C91.70,787.00 95.58,774.84 96.31,770.00 C96.52,768.62 97.03,766.73 97.43,765.80 C97.84,764.86 97.89,763.62 97.53,763.05 C97.17,762.47 97.41,762.00 98.06,762.00 C98.74,762.00 99.01,761.16 98.71,760.00 C98.42,758.90 98.65,758.00 99.21,758.00 C99.77,758.00 100.02,756.88 99.76,755.50 C99.49,754.12 99.60,753.00 99.99,753.00 C100.95,753.00 103.98,734.24 104.43,725.50 C104.63,721.65 105.10,717.74 105.48,716.81 C105.86,715.88 105.90,707.11 105.56,697.31 C105.39,692.17 105.24,686.62 105.15,681.92 C105.45,682.53 105.85,682.30 106.69,681.46 C107.50,680.65 109.05,679.51 110.15,678.92 C114.12,676.80 119.76,666.34 121.86,657.21 C126.98,634.93 128.60,611.39 126.00,596.95 C124.08,586.35 118.49,572.82 105.84,548.19 C91.76,520.78 86.65,506.74 85.43,492.00 C85.07,487.67 84.63,484.60 84.34,484.31 C84.13,477.74 84.02,471.26 84.05,465.50 C84.21,436.51 84.43,430.73 85.40,429.16 C85.81,428.49 86.02,426.49 85.87,424.71 C85.72,422.93 85.94,420.90 86.37,420.21 C86.80,419.52 87.02,417.49 86.87,415.71 C86.72,413.93 86.88,412.00 87.23,411.43 C87.59,410.86 87.91,409.06 87.94,407.44 C88.02,403.77 88.50,401.01 89.47,398.75 C89.88,397.79 89.95,396.33 89.64,395.50 C89.32,394.67 89.55,394.00 90.15,394.00 C90.74,394.00 91.00,393.10 90.71,392.00 C90.42,390.90 90.63,389.73 91.18,389.39 C91.73,389.05 91.95,387.93 91.68,386.89 C91.41,385.85 91.63,384.73 92.18,384.39 C92.73,384.05 92.95,382.93 92.68,381.89 C92.41,380.85 92.52,380.00 92.93,380.00 C93.88,380.00 97.07,366.93 96.39,365.83 C96.11,365.37 96.41,365.00 97.06,365.00 C97.74,365.00 98.01,364.16 97.71,363.00 C97.42,361.90 97.64,361.00 98.20,361.00 C98.76,361.00 98.97,360.35 98.66,359.56 C98.36,358.78 98.49,357.99 98.96,357.81 C99.43,357.64 99.96,356.38 100.15,355.00 C100.34,353.62 100.75,352.27 101.06,352.00 C101.77,351.36 106.31,336.92 106.32,335.25 C106.33,334.56 106.76,334.00 107.27,334.00 C107.79,334.00 107.97,333.35 107.66,332.56 C107.36,331.78 107.50,330.99 107.96,330.81 C108.43,330.64 108.97,329.60 109.16,328.50 C109.35,327.40 109.81,326.27 110.19,325.98 C110.57,325.69 111.09,324.34 111.35,322.98 C112.03,319.38 113.20,316.69 114.75,315.12 C115.50,314.36 115.88,313.13 115.59,312.37 C115.30,311.62 115.53,311.00 116.09,311.00 C116.66,311.00 116.84,310.55 116.50,310.00 C116.16,309.45 116.29,309.00 116.78,309.00 C118.00,309.00 120.17,304.08 119.45,302.93 C119.14,302.42 119.43,302.00 120.11,302.00 C120.78,302.00 121.05,301.72 120.71,301.38 C120.37,301.04 120.75,300.11 121.55,299.31 C122.35,298.51 123.00,296.99 123.00,295.93 C123.00,294.87 123.48,294.00 124.06,294.00 C124.64,294.00 124.84,293.55 124.50,293.00 C124.16,292.45 124.33,292.00 124.87,292.00 C125.87,292.00 127.57,288.16 127.20,286.75 C127.09,286.34 127.40,286.00 127.88,286.00 C128.83,286.00 131.63,279.97 131.24,278.75 C131.11,278.34 131.48,278.00 132.06,278.00 C132.64,278.00 132.84,277.55 132.50,277.00 C132.16,276.45 132.39,276.00 133.00,276.00 C133.61,276.00 133.84,275.55 133.50,275.00 C133.16,274.45 133.39,274.00 134.00,274.00 C134.61,274.00 134.84,273.55 134.50,273.00 C134.16,272.45 134.35,272.00 134.92,272.00 C136.10,272.00 139.45,266.01 138.28,265.98 C137.85,265.98 137.95,265.64 138.50,265.23 C139.05,264.83 140.40,262.72 141.50,260.55 C142.60,258.37 144.55,255.33 145.84,253.80 C147.13,252.26 147.91,251.00 147.59,251.00 C147.26,251.00 147.94,250.06 149.09,248.91 C150.24,247.76 151.82,245.29 152.60,243.41 C153.39,241.54 154.50,240.00 155.07,240.00 C155.65,240.00 155.87,239.60 155.56,239.10 C155.26,238.61 155.71,237.94 156.57,237.61 C157.43,237.28 157.90,236.65 157.62,236.20 C157.34,235.75 158.86,233.41 161.00,231.00 C163.14,228.59 164.69,226.30 164.45,225.92 C164.21,225.53 164.75,224.93 165.65,224.58 C166.55,224.24 167.07,223.74 166.80,223.47 C166.54,223.20 168.05,221.11 170.16,218.83 C172.27,216.54 173.83,214.50 173.62,214.29 C173.16,213.82 176.40,209.78 180.50,205.71 C182.15,204.07 183.50,202.43 183.50,202.05 C183.50,201.68 185.19,199.90 187.25,198.09 C189.31,196.27 191.00,194.34 191.00,193.79 C191.00,192.73 201.00,182.88 209.91,175.18 C212.88,172.61 216.31,169.49 217.52,168.25 C218.74,167.01 220.19,166.00 220.76,166.00 C221.33,166.00 223.20,164.31 224.93,162.25 C226.65,160.19 229.19,157.35 230.57,155.95 C231.95,154.55 232.76,153.09 232.37,152.70 C231.98,152.32 232.09,152.00 232.62,152.00 C234.00,152.00 237.23,146.18 236.50,145.00 C236.16,144.45 236.39,144.00 237.00,144.00 C237.61,144.00 237.84,143.55 237.50,143.00 C237.16,142.45 237.41,142.00 238.05,142.00 C238.69,142.00 238.95,141.32 238.64,140.50 C238.32,139.68 238.47,139.00 238.96,139.00 C239.46,139.00 239.83,137.67 239.78,136.03 C239.74,134.40 240.25,132.40 240.93,131.58 C241.62,130.76 241.93,129.70 241.64,129.22 C241.34,128.75 241.76,127.08 242.57,125.53 C243.38,123.97 243.82,122.49 243.55,122.22 C243.29,121.95 243.60,120.78 244.25,119.62 C244.90,118.45 245.33,117.16 245.21,116.75 C245.10,116.34 245.40,116.00 245.89,116.00 C246.38,116.00 247.08,114.80 247.45,113.33 C247.82,111.86 248.88,109.66 249.81,108.44 C250.74,107.23 252.18,105.23 253.00,104.00 C255.49,100.28 263.12,92.95 267.11,90.43 C269.17,89.13 271.68,86.87 272.68,85.41 C273.68,83.95 275.58,81.69 276.90,80.38 C278.21,79.07 278.90,78.00 278.42,78.00 C277.95,78.00 278.56,77.29 279.79,76.43 C281.03,75.57 281.79,74.47 281.50,73.99 C281.20,73.51 281.54,72.76 282.25,72.31 C282.97,71.87 284.37,70.20 285.38,68.62 C288.17,64.25 297.94,54.65 303.00,51.33 C310.14,46.63 331.23,38.41 333.12,39.58 C333.61,39.87 334.00,39.71 334.00,39.21 C334.00,37.70 355.95,32.77 365.04,32.24 C369.76,31.97 376.04,32.26 379.04,32.89 C386.86,34.54 403.03,42.88 413.50,50.68 C436.48,67.78 454.96,79.31 472.50,87.48 C483.89,92.79 488.85,94.93 491.00,95.45 C491.27,95.52 492.51,96.13 493.75,96.82 C494.99,97.51 496.00,97.82 496.00,97.52 C496.00,97.22 497.46,97.58 499.25,98.33 C501.04,99.08 502.84,99.76 503.25,99.84 C503.66,99.93 504.11,100.04 504.25,100.08 C504.39,100.13 505.82,100.38 507.42,100.64 C509.03,100.90 511.14,101.54 512.12,102.06 C516.39,104.35 540.49,104.84 542.65,102.69 C543.02,102.31 544.38,102.00 545.67,102.00 C546.95,102.00 548.00,101.66 548.00,101.25 C548.00,100.84 550.59,99.16 553.75,97.53 C556.91,95.89 559.95,94.06 560.50,93.46 C561.05,92.86 563.96,90.37 566.97,87.93 C569.98,85.49 577.38,79.08 583.42,73.68 C589.45,68.28 595.88,63.24 597.69,62.48 C599.51,61.72 601.00,60.68 601.00,60.17 C601.00,59.04 610.97,54.64 611.76,55.42 C612.06,55.73 612.99,55.42 613.81,54.74 C614.90,53.84 619.68,53.58 631.40,53.80 C669.45,54.49 686.00,54.23 686.00,52.93 C686.00,52.38 687.68,52.25 690.00,52.62 C692.56,53.03 694.00,52.87 694.00,52.19 C694.00,51.53 695.34,51.34 697.50,51.69 C699.87,52.08 701.00,51.87 701.00,51.06 C701.00,50.32 701.76,50.11 702.99,50.50 C704.09,50.84 705.55,50.77 706.24,50.32 C706.93,49.88 708.40,49.44 709.50,49.35 C710.60,49.27 713.08,48.92 715.00,48.58 C716.92,48.24 721.13,47.76 724.35,47.52 C727.56,47.28 730.77,46.61 731.47,46.03 C732.17,45.44 733.48,45.25 734.39,45.59 C735.29,45.94 736.65,45.70 737.42,45.07 C738.21,44.41 739.93,44.20 741.40,44.57 C743.11,44.99 744.00,44.81 744.00,44.03 C744.00,43.23 744.98,43.06 747.04,43.51 C748.71,43.88 750.63,43.73 751.29,43.18 C751.96,42.63 753.62,42.15 755.00,42.13 C756.38,42.10 759.53,41.84 762.00,41.54 C764.47,41.25 768.75,40.80 771.50,40.54 C778.68,39.87 819.94,39.92 823.50,40.60 C825.15,40.91 827.40,41.28 828.50,41.42 C829.60,41.55 831.44,41.97 832.58,42.35 C833.73,42.72 836.43,43.22 838.58,43.46 C842.82,43.93 843.27,44.03 850.00,45.94 C852.47,46.65 855.40,47.34 856.50,47.47 C859.24,47.82 867.27,50.06 868.50,50.82 C869.05,51.16 869.95,51.52 870.50,51.62 C874.76,52.36 897.47,61.89 911.14,68.66 C950.65,88.25 977.04,112.32 988.08,138.84 C999.45,166.16 999.59,200.45 988.44,224.69 C987.63,226.44 986.72,228.54 985.94,230.41 C986.87,227.92 987.38,226.00 986.92,226.00 C986.46,226.00 983.69,226.95 980.79,228.11 C972.73,231.32 936.07,244.65 922.00,249.49 C915.12,251.86 898.92,257.72 886.00,262.52 C853.71,274.50 833.33,281.62 821.50,285.03 C809.84,288.40 786.97,293.34 775.50,294.97 C771.10,295.59 766.83,296.35 766.00,296.65 C765.17,296.96 762.92,297.31 761.00,297.45 C753.83,297.95 734.45,300.22 733.00,300.73 C731.41,301.29 723.95,301.76 715.25,301.85 C712.36,301.87 710.00,302.30 710.00,302.79 C710.00,303.29 705.84,303.66 700.75,303.62 C695.66,303.58 680.25,303.90 666.50,304.33 C590.62,306.73 586.13,307.08 566.50,312.08 C537.96,319.35 515.59,330.93 488.33,352.53 C476.85,361.63 467.17,366.43 454.56,369.28 C446.36,371.13 441.83,371.35 407.00,371.49 C365.55,371.67 354.25,372.61 335.00,377.47 C307.26,384.48 278.60,398.37 263.60,412.08 C254.60,420.31 253.03,426.97 259.70,428.64 C262.39,429.31 285.92,426.62 309.50,422.95 C342.25,417.84 366.84,419.72 400.54,429.92 C413.21,433.76 418.92,436.06 471.16,458.36 C498.49,470.03 520.78,477.98 544.07,484.36 L 559.50 488.58 L 559.81 496.04 C560.97,523.90 539.28,553.09 501.00,575.19 C478.65,588.08 455.71,596.41 428.00,601.69 C413.23,604.50 380.40,604.23 365.00,601.16 C339.52,596.09 317.45,588.72 296.86,578.42 C254.30,557.12 219.33,519.84 201.98,477.27 C198.71,469.25 198.57,469.08 196.67,470.77 C194.15,473.01 192.00,478.14 192.00,481.90 C192.00,486.98 197.70,507.26 203.18,521.69 C212.86,547.18 228.76,576.10 246.41,600.34 C260.04,619.06 270.32,630.99 296.11,658.02 C332.85,696.54 345.12,710.69 361.52,733.50 C383.46,764.01 391.34,795.77 388.09,840.50 C385.91,870.53 382.61,887.22 374.47,909.32 C368.59,925.27 350.07,962.77 342.15,974.75 C338.79,979.84 336.37,984.01 336.77,984.02 C337.17,984.03 336.54,984.82 335.36,985.77 C334.18,986.72 332.91,988.51 332.54,989.75 L 331.87 991.99 ZM 392.76 254.02 C395.37,254.49 404.48,254.74 413.00,254.56 C436.78,254.07 449.44,250.06 470.01,236.49 C480.95,229.28 491.74,220.52 507.20,206.30 C512.53,201.40 521.44,194.28 527.01,190.49 C532.57,186.71 537.40,183.16 537.74,182.61 C538.48,181.42 528.43,171.97 518.00,164.05 C505.15,154.28 495.77,148.38 478.85,139.40 C434.36,115.80 425.95,111.40 406.00,101.27 C374.22,85.12 361.86,80.70 348.50,80.68 C338.68,80.67 330.39,82.85 318.50,88.56 C300.82,97.04 289.93,109.26 284.60,126.57 C278.93,145.00 277.95,147.01 270.81,154.85 C265.27,160.93 264.00,162.94 264.00,165.64 C264.00,169.69 266.34,171.45 273.87,173.07 C283.44,175.12 285.09,179.52 280.50,190.81 C275.31,203.59 278.23,214.36 288.33,219.65 C293.18,222.19 295.37,219.77 299.07,207.76 C302.07,198.02 305.39,190.46 308.24,186.88 C310.60,183.92 317.24,180.00 319.89,180.01 C326.32,180.02 330.78,185.60 337.23,201.65 C345.13,221.32 352.60,232.47 363.75,241.21 C372.39,247.98 381.44,251.98 392.76,254.02 ZM 569.40 141.57 C573.66,143.43 591.03,143.39 598.54,141.51 C601.82,140.69 608.88,137.76 614.23,135.01 C625.09,129.42 626.54,129.22 640.28,131.47 C653.88,133.70 669.00,134.54 669.00,133.07 C669.00,130.98 658.42,120.66 652.80,117.26 C645.10,112.61 640.21,112.21 629.39,115.35 C616.61,119.07 613.23,119.70 596.50,121.48 C578.42,123.41 571.66,125.19 567.85,128.99 C563.39,133.45 564.11,139.27 569.40,141.57 ZM 136.75 387.92 C139.65,389.61 142.38,389.15 147.05,386.16 C152.50,382.69 158.79,375.93 163.62,368.37 C171.40,356.22 173.89,341.71 169.09,336.60 C163.34,330.47 154.33,332.64 145.39,342.29 C133.51,355.12 128.32,373.63 133.64,384.20 C134.39,385.69 135.79,387.36 136.75,387.92 ZM 137.43 511.75 C142.64,517.92 149.86,515.41 153.89,506.03 C158.61,495.06 157.42,478.25 151.36,470.25 C144.98,461.82 135.08,462.15 130.54,470.93 C125.52,480.63 129.11,501.92 137.43,511.75 ZM 222.91 712.70 C233.86,718.41 249.42,712.40 251.41,701.69 C252.61,695.22 250.36,687.36 246.09,683.09 C233.95,670.95 215.05,679.18 214.69,696.75 C214.52,704.62 217.14,709.69 222.91,712.70 ZM 180.82 288.33 C182.60,292.36 183.29,293.00 185.82,293.00 C189.36,293.00 194.78,287.50 201.57,277.00 C209.19,265.23 213.35,255.55 212.66,251.22 C211.93,246.62 207.17,242.00 203.16,242.00 C196.72,242.00 186.27,251.79 181.44,262.35 C177.99,269.89 177.72,281.31 180.82,288.33 ZM 170.50 621.84 C176.54,625.16 183.07,621.00 185.63,612.21 C187.92,604.31 186.93,593.36 183.25,586.04 C180.01,579.61 176.85,577.06 171.18,576.30 C162.65,575.15 158.06,581.93 158.02,595.71 C157.99,608.36 162.26,617.30 170.50,621.84 ZM 207.31 885.50 C214.47,890.52 225.88,883.73 229.84,872.10 C234.43,858.63 224.30,842.22 212.74,844.39 C205.50,845.75 201.65,853.43 201.62,866.58 C201.60,875.67 203.82,883.06 207.31,885.50 ZM 298.10 799.28 C302.29,801.34 303.18,801.37 307.51,799.56 C314.18,796.77 316.90,788.40 315.00,776.52 C313.16,765.00 308.68,758.78 301.21,757.38 C294.21,756.07 288.67,761.95 287.51,771.92 C286.18,783.38 290.97,795.77 298.10,799.28 ZM 139.31 847.01 C142.14,848.18 145.72,847.40 149.59,844.77 C163.67,835.23 163.32,806.00 149.13,806.00 C145.71,806.00 144.65,806.59 141.33,810.36 C136.04,816.37 133.52,823.69 133.51,833.04 C133.50,841.24 135.19,845.31 139.31,847.01 ZM 157.33 736.71 C162.63,739.68 167.82,736.72 171.62,728.58 C175.60,720.02 174.28,707.12 168.82,701.31 C163.14,695.26 154.84,696.58 150.83,704.17 C149.05,707.55 148.54,710.15 148.52,716.00 C148.49,726.00 151.71,733.56 157.33,736.71 ZM 184.30 786.49 C187.80,788.95 193.55,786.18 197.75,780.01 C200.87,775.42 200.66,771.50 197.08,767.92 C193.81,764.66 190.43,764.21 186.09,766.45 C183.48,767.80 182.09,770.12 180.49,775.77 C179.62,778.85 181.68,784.66 184.30,786.49 ZM 630.50 992.26 C627.72,992.79 619.55,993.00 603.61,993.00 C590.65,993.00 579.55,992.83 576.60,992.61 C589.56,992.66 599.10,992.71 603.69,992.75 C619.74,992.90 627.76,992.76 630.50,992.26 ZM 88.87 532.70 C88.86,531.36 88.67,530.39 88.31,530.15 C87.39,529.54 86.30,519.81 85.46,507.10 C86.47,518.54 87.77,530.00 88.31,530.00 C88.72,530.00 88.92,531.04 88.87,532.70 ZM 984.69 233.55 C984.58,233.83 984.49,234.08 984.40,234.32 C983.66,236.41 982.13,239.29 981.02,240.70 C979.91,242.11 979.00,243.88 979.00,244.63 C979.00,243.88 979.84,242.20 980.87,240.88 C981.90,239.56 983.41,236.53 984.69,233.55 ZM 104.88 667.38 C104.75,665.92 104.54,665.00 104.31,665.00 C103.86,665.00 103.47,661.74 103.43,657.75 C103.47,661.74 103.90,665.00 104.39,665.00 C104.68,665.00 104.85,665.93 104.88,667.38 ZM 89.70 540.46 C89.57,540.16 89.39,540.00 89.15,540.00 C88.49,540.00 88.29,538.81 88.55,536.38 C88.36,538.77 88.57,540.00 89.18,540.00 C89.41,540.00 89.58,540.16 89.70,540.46 Z" fill="rgba(7,115,186,1)"/>
<path d="M 454.18 992.25 L 331.87 991.99 L 332.54 989.75 C332.91,988.51 334.18,986.72 335.36,985.77 C336.54,984.82 337.17,984.03 336.77,984.02 C336.37,984.01 338.79,979.84 342.15,974.75 C350.07,962.77 368.59,925.27 374.47,909.32 C382.61,887.22 385.91,870.53 388.09,840.50 C391.34,795.77 383.46,764.01 361.52,733.50 C345.12,710.69 332.85,696.54 296.11,658.02 C270.32,630.99 260.04,619.06 246.41,600.34 C228.76,576.10 212.86,547.18 203.18,521.69 C197.70,507.26 192.00,486.98 192.00,481.90 C192.00,478.14 194.15,473.01 196.67,470.77 C198.57,469.08 198.71,469.25 201.98,477.27 C219.33,519.84 254.30,557.12 296.86,578.42 C317.45,588.72 339.52,596.09 365.00,601.16 C380.40,604.23 413.23,604.50 428.00,601.69 C455.71,596.41 478.65,588.08 501.00,575.19 C539.28,553.09 560.97,523.90 559.81,496.04 L 559.50 488.58 L 544.07 484.36 C520.78,477.98 498.49,470.03 471.16,458.36 C418.92,436.06 413.21,433.76 400.54,429.92 C366.84,419.72 342.25,417.84 309.50,422.95 C285.92,426.62 262.39,429.31 259.70,428.64 C253.03,426.97 254.60,420.31 263.60,412.08 C278.60,398.37 307.26,384.48 335.00,377.47 C354.25,372.61 365.55,371.67 407.00,371.49 C441.83,371.35 446.36,371.13 454.56,369.28 C467.17,366.43 476.85,361.63 488.33,352.53 C515.59,330.93 537.96,319.35 566.50,312.08 C586.13,307.08 590.62,306.73 666.50,304.33 C680.25,303.90 695.66,303.58 700.75,303.62 C705.84,303.66 710.00,303.29 710.00,302.79 C710.00,302.30 712.36,301.87 715.25,301.85 C723.95,301.76 731.41,301.29 733.00,300.73 C734.45,300.22 753.83,297.95 761.00,297.45 C762.92,297.31 765.17,296.96 766.00,296.65 C766.83,296.35 771.10,295.59 775.50,294.97 C786.97,293.34 809.84,288.40 821.50,285.03 C833.33,281.62 853.71,274.50 886.00,262.52 C898.92,257.72 915.12,251.86 922.00,249.49 C936.07,244.65 972.73,231.32 980.79,228.11 C983.69,226.95 986.46,226.00 986.92,226.00 C988.05,226.00 983.22,237.87 980.87,240.88 C979.84,242.20 979.00,243.88 979.00,244.63 C979.00,245.39 978.59,246.00 978.10,246.00 C977.60,246.00 976.72,247.24 976.14,248.75 C975.56,250.26 973.67,253.97 971.93,257.00 C969.23,261.71 968.65,263.99 967.87,273.00 C966.71,286.47 964.97,298.82 963.79,302.00 C962.38,305.81 958.93,309.00 956.22,309.00 C953.83,309.00 948.66,305.46 948.21,303.50 C948.08,302.95 947.44,299.91 946.79,296.75 C946.13,293.59 945.21,291.00 944.74,291.00 C944.27,291.00 944.15,290.56 944.49,290.02 C945.33,288.65 943.14,281.00 941.90,281.00 C941.34,281.00 941.14,280.59 941.45,280.08 C942.52,278.36 936.79,274.83 934.05,275.52 C927.58,277.15 926.07,281.53 924.94,302.00 C923.89,320.78 923.48,324.16 921.24,332.43 C919.46,339.01 915.16,343.92 911.13,343.97 C908.65,344.00 902.74,339.36 902.17,336.93 C901.99,336.16 901.54,335.29 901.17,335.01 C900.80,334.73 900.35,333.60 900.16,332.50 C899.97,331.40 899.41,330.35 898.90,330.16 C898.40,329.98 898.19,329.50 898.44,329.10 C899.17,327.92 893.28,305.59 892.14,305.21 C891.58,305.03 891.32,304.32 891.58,303.64 C892.27,301.86 887.49,298.07 884.25,297.82 C881.33,297.60 877.00,300.53 877.00,302.72 C877.00,303.43 876.65,304.00 876.22,304.00 C874.89,304.00 871.98,315.41 870.56,326.19 C869.32,335.59 866.80,344.48 862.64,354.13 C862.12,355.33 861.37,356.54 860.48,357.66 C860.83,356.84 859.74,357.06 857.42,358.89 C855.94,360.05 854.12,361.00 853.37,361.00 C852.61,361.00 852.00,361.45 852.00,362.00 C852.00,362.64 852.35,362.95 852.93,362.98 C852.82,362.99 852.70,363.00 852.59,363.00 C850.02,363.00 845.61,358.46 845.28,355.48 C841.06,316.88 838.13,309.96 827.69,313.93 C823.40,315.56 820.64,323.01 816.93,343.00 C814.80,354.53 809.27,369.73 806.05,372.95 C805.15,373.85 802.97,375.18 801.21,375.91 C795.63,378.23 792.91,374.57 791.16,360.13 C791.97,362.82 792.18,359.09 791.64,350.15 C790.87,337.50 788.81,329.50 785.90,327.95 C782.70,326.23 778.18,326.53 775.89,328.60 C774.03,330.28 770.00,337.03 770.00,338.46 C770.00,340.11 771.88,338.63 772.39,336.58 C772.66,335.52 773.62,333.73 774.72,332.20 C772.62,335.58 770.52,341.46 767.56,351.22 C761.44,371.41 758.46,377.88 752.55,383.75 C748.39,387.88 746.58,389.00 744.08,389.00 C741.35,389.00 740.67,388.47 739.32,385.25 C737.99,382.10 737.86,379.18 738.50,367.00 C739.20,353.71 739.33,347.52 739.00,342.70 C738.94,341.70 738.24,340.64 737.45,340.34 C736.66,340.04 736.24,339.42 736.51,338.98 C736.79,338.53 735.61,337.85 733.89,337.48 C731.58,336.97 730.08,337.29 728.13,338.73 C725.40,340.74 720.06,349.43 720.02,351.93 C720.01,352.72 719.13,355.20 718.06,357.43 C716.99,359.67 714.50,365.08 712.53,369.45 C710.55,373.82 707.82,378.86 706.47,380.63 C705.11,382.41 704.00,384.35 704.00,384.93 C704.00,385.52 703.58,386.00 703.07,386.00 C702.56,386.00 701.46,386.68 700.63,387.51 C699.80,388.34 697.12,389.30 694.66,389.63 C693.22,389.83 692.21,389.93 691.44,389.87 C691.59,389.54 691.04,388.61 690.02,387.52 C687.82,385.18 687.66,384.06 687.03,366.77 C686.49,352.09 686.00,347.75 684.52,344.66 C682.45,340.31 677.31,337.22 674.34,338.52 C672.91,339.15 673.45,339.47 676.76,339.98 C677.46,340.09 678.11,340.22 678.70,340.40 C677.56,340.12 676.25,340.11 674.74,340.31 C669.60,341.00 666.06,344.56 663.49,351.62 C662.52,354.30 660.71,358.75 659.48,361.50 C658.25,364.25 656.93,367.62 656.55,369.00 C656.17,370.38 655.25,372.85 654.51,374.50 C645.83,393.67 645.65,395.99 650.22,429.00 C650.69,432.41 651.09,436.24 651.42,440.33 C651.29,440.12 651.15,440.00 651.00,440.00 C649.89,440.00 649.67,442.98 650.61,445.42 C651.23,447.05 651.64,447.35 651.84,446.29 C651.99,448.73 652.12,451.24 652.22,453.78 C652.16,453.65 652.10,453.56 652.04,453.52 C651.43,453.15 651.08,458.91 651.09,468.96 C651.09,477.77 650.79,487.69 650.42,490.99 C650.00,494.71 650.12,497.00 650.72,497.00 C651.10,497.00 651.45,495.46 651.76,492.95 C651.46,496.52 651.08,499.60 650.61,502.00 C646.90,521.11 642.62,537.56 639.03,546.50 C636.99,551.57 622.42,580.54 621.75,580.83 C621.34,581.02 621.00,581.80 621.00,582.58 C621.00,583.36 620.56,584.00 620.02,584.00 C619.48,584.00 618.76,585.12 618.41,586.50 C618.07,587.88 617.38,589.00 616.89,589.00 C616.40,589.00 616.00,589.67 616.00,590.50 C616.00,591.33 615.55,592.00 615.00,592.00 C614.45,592.00 614.00,592.47 614.00,593.04 C614.00,593.62 612.86,595.31 611.47,596.79 C610.08,598.28 608.69,600.48 608.38,601.68 C608.07,602.88 607.19,604.10 606.41,604.40 C605.63,604.69 605.00,605.63 605.00,606.47 C605.00,607.31 604.54,608.00 603.97,608.00 C603.40,608.00 602.64,608.79 602.28,609.75 C601.92,610.71 601.08,611.95 600.42,612.50 C598.18,614.35 584.00,631.94 584.00,632.86 C584.00,633.36 582.88,634.51 581.50,635.41 C580.12,636.31 579.00,637.44 579.00,637.93 C579.00,638.42 575.17,642.76 570.50,647.59 C565.83,652.41 562.00,656.78 562.00,657.29 C562.00,657.80 560.88,659.10 559.50,660.18 C558.12,661.26 557.00,662.77 557.00,663.54 C557.00,664.30 556.10,665.41 555.00,666.00 C553.90,666.59 553.00,667.54 553.00,668.11 C553.00,668.69 551.74,670.41 550.21,671.94 C548.67,673.48 546.31,676.93 544.96,679.62 C543.61,682.30 542.15,684.76 541.73,685.07 C541.30,685.39 540.11,687.86 539.06,690.57 C538.99,690.76 538.91,690.97 538.83,691.19 C538.81,691.16 538.79,691.13 538.77,691.11 C538.65,690.99 538.40,691.00 538.08,691.00 C536.99,691.00 530.87,706.47 527.98,716.50 C526.04,723.26 522.00,743.75 522.00,746.87 C522.00,749.76 522.89,747.98 523.79,744.17 C523.39,747.07 523.11,750.07 522.92,753.79 C522.86,750.87 522.71,750.81 521.80,752.69 C521.22,753.90 521.01,755.59 521.34,756.44 C522.02,758.22 522.54,758.39 522.78,757.11 C522.60,762.57 522.55,769.56 522.58,779.50 C522.60,786.67 522.65,792.44 522.78,797.34 C522.70,796.12 522.48,794.94 522.09,794.27 C521.26,792.84 521.05,793.29 521.03,796.58 C521.01,798.83 521.34,801.01 521.75,801.43 C522.41,802.10 522.80,800.41 522.81,798.44 C523.20,811.54 524.17,818.31 526.60,829.50 C529.13,841.13 533.30,856.34 534.68,859.00 C535.40,860.38 535.99,862.09 535.99,862.82 C536.00,864.74 542.21,879.44 543.18,879.83 C543.63,880.02 544.00,880.82 544.00,881.61 C544.00,883.42 549.96,895.39 551.07,895.81 C551.52,895.99 552.40,897.68 553.02,899.56 C553.64,901.45 554.57,903.00 555.08,903.00 C555.58,903.00 556.00,903.64 556.00,904.43 C556.00,905.21 556.56,906.46 557.25,907.19 C557.94,907.93 559.38,910.25 560.46,912.36 C561.54,914.47 563.44,917.16 564.69,918.35 C565.94,919.53 566.97,921.06 566.98,921.75 C566.99,922.44 567.45,923.00 568.00,923.00 C568.55,923.00 569.00,923.69 569.00,924.53 C569.00,925.37 569.67,926.32 570.50,926.64 C571.33,926.95 572.00,927.85 572.00,928.64 C572.00,929.42 572.67,930.32 573.50,930.64 C574.33,930.95 575.00,931.73 575.00,932.36 C575.00,932.99 576.80,935.47 579.00,937.88 C581.20,940.28 583.00,942.53 583.00,942.88 C583.00,943.50 583.87,944.47 594.61,955.62 C597.85,958.99 601.90,963.26 603.61,965.12 C608.42,970.35 617.69,979.00 618.48,979.00 C618.88,979.00 620.39,980.24 621.85,981.76 C623.31,983.28 626.26,985.91 628.41,987.60 C630.75,989.44 632.03,991.14 631.60,991.84 C631.08,992.68 623.50,992.93 603.69,992.75 C588.74,992.62 521.46,992.39 454.18,992.25 ZM 392.76 254.02 C381.44,251.98 372.39,247.98 363.75,241.21 C352.60,232.47 345.13,221.32 337.23,201.65 C330.78,185.60 326.32,180.02 319.89,180.01 C317.24,180.00 310.60,183.92 308.24,186.88 C305.39,190.46 302.07,198.02 299.07,207.76 C295.37,219.77 293.18,222.19 288.33,219.65 C278.23,214.36 275.31,203.59 280.50,190.81 C285.09,179.52 283.44,175.12 273.87,173.07 C266.34,171.45 264.00,169.69 264.00,165.64 C264.00,162.94 265.27,160.93 270.81,154.85 C277.95,147.01 278.93,145.00 284.60,126.57 C289.93,109.26 300.82,97.04 318.50,88.56 C330.39,82.85 338.68,80.67 348.50,80.68 C361.86,80.70 374.22,85.12 406.00,101.27 C425.95,111.40 434.36,115.80 478.85,139.40 C495.77,148.38 505.15,154.28 518.00,164.05 C528.43,171.97 538.48,181.42 537.74,182.61 C537.40,183.16 532.57,186.71 527.01,190.49 C521.44,194.28 512.53,201.40 507.20,206.30 C491.74,220.52 480.95,229.28 470.01,236.49 C449.44,250.06 436.78,254.07 413.00,254.56 C404.48,254.74 395.37,254.49 392.76,254.02 ZM 399.26 221.46 C414.66,225.60 434.40,221.27 450.76,210.17 C457.48,205.60 467.24,195.34 470.04,189.90 L 471.89 186.30 L 468.29 180.90 C463.07,173.04 447.51,158.09 439.99,153.72 C426.62,145.93 412.42,144.33 401.75,149.41 C382.33,158.65 368.96,183.79 374.19,201.24 C376.74,209.75 387.24,218.22 399.26,221.46 ZM 104.69 680.21 C104.39,678.72 104.41,674.69 104.72,671.25 C105.03,667.81 104.89,665.00 104.39,665.00 C103.90,665.00 103.47,661.74 103.43,657.75 C103.36,650.00 98.96,611.84 98.05,611.00 C97.75,610.72 97.37,607.37 97.21,603.53 C97.05,599.70 96.42,596.26 95.82,595.89 C95.21,595.51 95.00,594.46 95.35,593.54 C96.07,591.66 90.86,548.66 89.86,548.20 C89.50,548.04 89.44,546.12 89.73,543.95 C90.07,541.45 89.86,540.00 89.18,540.00 C88.47,540.00 88.30,538.29 88.69,535.00 C89.04,532.04 88.88,530.00 88.31,530.00 C88.16,530.00 87.96,529.17 87.73,527.74 C88.19,525.11 86.96,503.09 86.13,500.50 C85.22,497.66 85.17,497.63 85.08,500.00 C85.05,500.86 85.22,503.90 85.52,507.78 C84.56,497.05 83.83,486.13 84.19,484.50 C84.44,483.40 84.99,486.77 85.43,492.00 C86.65,506.74 91.76,520.78 105.84,548.19 C118.49,572.82 124.08,586.35 126.00,596.95 C128.60,611.39 126.98,634.93 121.86,657.21 C119.76,666.34 114.12,676.80 110.15,678.92 C109.05,679.51 107.50,680.65 106.69,681.46 C105.40,682.75 105.15,682.60 104.69,680.21 ZM 569.40 141.57 C564.11,139.27 563.39,133.45 567.85,128.99 C571.66,125.19 578.42,123.41 596.50,121.48 C613.23,119.70 616.61,119.07 629.39,115.35 C640.21,112.21 645.10,112.61 652.80,117.26 C658.42,120.66 669.00,130.98 669.00,133.07 C669.00,134.54 653.88,133.70 640.28,131.47 C626.54,129.22 625.09,129.42 614.23,135.01 C608.88,137.76 601.82,140.69 598.54,141.51 C591.03,143.39 573.66,143.43 569.40,141.57 ZM 613.00 399.50 C617.57,397.14 625.95,384.34 624.48,381.97 C624.15,381.43 624.31,381.00 624.82,381.00 C626.04,381.00 628.26,372.23 627.40,370.84 C627.04,370.25 627.34,369.41 628.06,368.96 C630.07,367.72 630.01,350.26 628.00,348.98 C627.17,348.46 626.82,348.02 627.20,348.02 C627.59,348.01 626.88,346.97 625.63,345.72 C622.61,342.70 617.61,341.38 611.58,342.00 C607.23,342.44 606.43,342.91 604.66,346.00 C602.48,349.82 600.30,356.69 598.81,364.50 C598.28,367.25 597.43,370.88 596.92,372.57 C595.24,378.17 595.83,388.73 598.12,394.05 C599.28,396.76 600.63,398.73 601.12,398.43 C601.60,398.13 602.00,398.39 602.00,399.00 C602.00,399.61 602.36,399.90 602.80,399.62 C603.24,399.35 604.25,399.55 605.05,400.05 C607.15,401.38 609.70,401.21 613.00,399.50 ZM 136.75 387.92 C135.79,387.36 134.39,385.69 133.64,384.20 C128.32,373.63 133.51,355.12 145.39,342.29 C154.33,332.64 163.34,330.47 169.09,336.60 C173.89,341.71 171.40,356.22 163.62,368.37 C158.79,375.93 152.50,382.69 147.05,386.16 C142.38,389.15 139.65,389.61 136.75,387.92 ZM 137.43 511.75 C129.11,501.92 125.52,480.63 130.54,470.93 C135.08,462.15 144.98,461.82 151.36,470.25 C157.42,478.25 158.61,495.06 153.89,506.03 C149.86,515.41 142.64,517.92 137.43,511.75 ZM 222.91 712.70 C217.14,709.69 214.52,704.62 214.69,696.75 C215.05,679.18 233.95,670.95 246.09,683.09 C250.36,687.36 252.61,695.22 251.41,701.69 C249.42,712.40 233.86,718.41 222.91,712.70 ZM 180.82 288.33 C177.72,281.31 177.99,269.89 181.44,262.35 C186.27,251.79 196.72,242.00 203.16,242.00 C207.17,242.00 211.93,246.62 212.66,251.22 C213.35,255.55 209.19,265.23 201.57,277.00 C194.78,287.50 189.36,293.00 185.82,293.00 C183.29,293.00 182.60,292.36 180.82,288.33 ZM 170.50 621.84 C162.26,617.30 157.99,608.36 158.02,595.71 C158.06,581.93 162.65,575.15 171.18,576.30 C176.85,577.06 180.01,579.61 183.25,586.04 C186.93,593.36 187.92,604.31 185.63,612.21 C183.07,621.00 176.54,625.16 170.50,621.84 ZM 207.31 885.50 C203.82,883.06 201.60,875.67 201.62,866.58 C201.65,853.43 205.50,845.75 212.74,844.39 C224.30,842.22 234.43,858.63 229.84,872.10 C225.88,883.73 214.47,890.52 207.31,885.50 ZM 298.10 799.28 C290.97,795.77 286.18,783.38 287.51,771.92 C288.67,761.95 294.21,756.07 301.21,757.38 C308.68,758.78 313.16,765.00 315.00,776.52 C316.90,788.40 314.18,796.77 307.51,799.56 C303.18,801.37 302.29,801.34 298.10,799.28 ZM 139.31 847.01 C135.19,845.31 133.50,841.24 133.51,833.04 C133.52,823.69 136.04,816.37 141.33,810.36 C144.65,806.59 145.71,806.00 149.13,806.00 C163.32,806.00 163.67,835.23 149.59,844.77 C145.72,847.40 142.14,848.18 139.31,847.01 ZM 157.33 736.71 C151.71,733.56 148.49,726.00 148.52,716.00 C148.54,710.15 149.05,707.55 150.83,704.17 C154.84,696.58 163.14,695.26 168.82,701.31 C174.28,707.12 175.60,720.02 171.62,728.58 C167.82,736.72 162.63,739.68 157.33,736.71 ZM 430.39 198.91 C423.07,204.67 413.08,197.19 411.37,184.66 C410.01,174.80 416.96,161.99 423.65,162.00 C437.83,162.02 442.79,189.16 430.39,198.91 ZM 184.30 786.49 C181.68,784.66 179.62,778.85 180.49,775.77 C182.09,770.12 183.48,767.80 186.09,766.45 C190.43,764.21 193.81,764.66 197.08,767.92 C200.66,771.50 200.87,775.42 197.75,780.01 C193.55,786.18 187.80,788.95 184.30,786.49 ZM 789.99 347.21 C788.95,333.13 787.09,328.65 782.16,328.18 C781.40,328.11 780.71,328.10 780.05,328.19 C782.37,327.57 784.77,328.08 786.34,329.82 C788.28,331.97 789.83,339.46 789.99,347.21 ZM 536.21 697.85 C535.47,699.72 534.71,701.65 534.03,703.35 C532.14,708.07 530.33,713.76 528.68,720.07 C529.71,715.88 530.81,711.79 531.82,708.50 C532.32,706.85 534.14,702.40 535.87,698.61 C535.99,698.35 536.10,698.10 536.21,697.85 ZM 685.08 361.34 C685.08,360.76 685.08,360.17 685.08,359.58 C685.13,348.55 683.82,342.92 680.24,340.98 C684.25,342.94 685.19,347.80 685.09,360.55 C685.09,360.82 685.08,361.08 685.08,361.34 ZM 690.22 389.55 C689.63,389.23 689.18,388.67 688.60,387.79 C688.59,387.78 688.58,387.76 688.57,387.74 C689.06,388.48 689.67,389.13 690.22,389.55 Z" fill="rgba(5,81,139,1)"/>
<path d="M 522.00 746.87 C522.00,743.75 526.04,723.26 527.98,716.50 C530.87,706.47 536.99,691.00 538.08,691.00 C538.40,691.00 538.65,690.99 538.77,691.11 C539.13,691.46 538.48,692.86 535.87,698.61 C534.14,702.40 532.32,706.85 531.82,708.50 C529.20,717.07 525.95,731.05 524.89,738.31 C523.82,745.60 522.00,751.00 522.00,746.87 ZM 688.52 387.67 C686.56,384.69 684.99,372.28 685.09,360.55 C685.22,344.72 683.73,341.05 676.76,339.98 C673.45,339.47 672.91,339.15 674.34,338.52 C677.31,337.22 682.45,340.31 684.52,344.66 C686.00,347.75 686.49,352.09 687.03,366.77 C687.66,384.06 687.82,385.18 690.02,387.52 C691.30,388.89 691.83,390.00 691.20,390.00 C690.56,390.00 689.36,388.95 688.52,387.67 ZM 790.62 357.88 C790.28,356.16 790.00,351.94 790.00,348.51 C790.00,340.31 788.39,332.09 786.34,329.82 C783.67,326.87 778.63,327.46 775.59,331.08 C774.16,332.77 772.73,335.24 772.39,336.58 C771.88,338.63 770.00,340.11 770.00,338.46 C770.00,337.03 774.03,330.28 775.89,328.60 C778.18,326.53 782.70,326.23 785.90,327.95 C788.81,329.50 790.87,337.50 791.64,350.15 C792.29,360.80 791.86,364.05 790.62,357.88 ZM 650.42 490.99 C650.79,487.69 651.09,477.77 651.09,468.96 C651.08,458.91 651.43,453.15 652.04,453.52 C653.98,454.72 652.70,497.00 650.72,497.00 C650.12,497.00 650.00,494.71 650.42,490.99 ZM 86.14 515.25 C85.51,508.24 85.03,501.38 85.08,500.00 C85.17,497.63 85.22,497.66 86.13,500.50 C87.01,503.26 88.35,528.00 87.62,528.00 C87.44,528.00 86.78,522.26 86.14,515.25 ZM 852.00 362.00 C852.00,361.45 852.61,361.00 853.37,361.00 C854.12,361.00 855.94,360.05 857.42,358.89 C861.24,355.88 861.72,357.21 857.97,360.38 C854.79,363.05 852.00,363.81 852.00,362.00 ZM 521.75 801.43 C521.34,801.01 521.01,798.83 521.03,796.58 C521.05,793.29 521.26,792.84 522.09,794.27 C523.24,796.24 522.93,802.63 521.75,801.43 ZM 650.61 445.42 C649.67,442.98 649.89,440.00 651.00,440.00 C651.55,440.00 652.00,441.58 652.00,443.50 C652.00,447.29 651.56,447.90 650.61,445.42 ZM 521.34 756.44 C521.01,755.59 521.22,753.90 521.80,752.69 C522.76,750.72 522.87,750.88 522.93,754.25 C523.00,758.18 522.35,759.08 521.34,756.44 Z" fill="rgba(12,64,102,1)"/>
<path d="M 399.26 221.46 C387.24,218.22 376.74,209.75 374.19,201.24 C368.96,183.79 382.33,158.65 401.75,149.41 C412.42,144.33 426.62,145.93 439.99,153.72 C447.51,158.09 463.07,173.04 468.29,180.90 L 471.89 186.30 L 470.04 189.90 C467.24,195.34 457.48,205.60 450.76,210.17 C434.40,221.27 414.66,225.60 399.26,221.46 ZM 430.39 198.91 C442.79,189.16 437.83,162.02 423.65,162.00 C416.96,161.99 410.01,174.80 411.37,184.66 C413.08,197.19 423.07,204.67 430.39,198.91 Z" fill="rgba(234,221,40,1)"/>
</g>
</svg>