<svg xmlns="http://www.w3.org/2000/svg" viewBox="0 0 32 32"><path d="M4.04334,21.97623m1.17639,1.14193L8.86719,16.5249a1.71194,1.71194,0,1,0-2.9961-1.65722L2.22363,21.46a1.71218,1.71218,0,0,0,2.9961,1.6582Zm12.0205,0L20.8877,16.5249a1.71194,1.71194,0,1,0-2.9961-1.65722L14.24414,21.46a1.71218,1.71218,0,0,0,2.99609,1.6582Zm-3.37793-5.96,3.87989-6.58838a1.7055,1.7055,0,0,0-2.93946-1.73046l-3.87988,6.58837A1.7055,1.7055,0,0,0,13.8623,17.1582Zm12.02735,0,3.87988-6.58838a1.7055,1.7055,0,0,0-2.93945-1.73046L22.9502,15.42773a1.7055,1.7055,0,0,0,2.93945,1.73047Z" style="fill:#4caf50"/></svg>