<?xml version="1.0" encoding="UTF-8"?>
<svg version="1.1" viewBox="0 0 230 230" xmlns="http://www.w3.org/2000/svg">
 <g transform="matrix(.97114 0 0 .97114 -273.46 -30.671)" fill="#cfd8dc">
  <path d="m340.29 69.38-0.85864 0.85864 35.047 35.047c-4.9556 7.7372-7.8098 17.239-7.8098 28.048 0 30.048 22.059 50 50 50 10.441 0 20.06-2.7859 28.014-7.8435l35.226 35.226c-18.252 24.107-47.254 39.285-79.907 39.285-55.22 0-100-43.407-100-100 0-33.656 15.837-62.648 40.288-80.62zm16.67-9.8967c13.037-6.1032 27.633-9.483 43.041-9.483 55.22 0 100 43.407 100 100 0 15.566-3.3877 30.134-9.4485 43.076l-31.695-31.695c4.9556-7.7372 7.8098-17.239 7.8098-28.048 0-30.048-22.059-50-50-50-10.441 0-20.06 2.7859-28.014 7.8435zm59.708 103.85c-16.765 0-30-11.971-30-30 0-18.029 13.235-30 30-30 16.765 0 30 11.971 30 30 0 18.029-13.235 30-30 30z" fill="#cfd8dc"/>
 </g>
</svg>
