<svg viewBox="0 0 230 230" xmlns="http://www.w3.org/2000/svg"><g transform="translate(-285.000000, -35.000000)" fill="#FFFFFF"><path d="M340.288221,69.3797473 L339.429583,70.2383855 L374.476463,105.285265 C369.520903,113.022443 366.666667,122.524707 366.666667,133.333333 C366.666667,163.38141 388.72549,183.333333 416.666667,183.333333 C427.107498,183.333333 436.726972,180.547433 444.681066,175.489868 L479.90668,210.715482 C461.655003,234.822389 432.652657,250 400,250 C344.78022,250 300,206.593407 300,150 C300,116.344376 315.836888,87.3523756 340.288221,69.3797473 Z M356.958511,59.4830419 C369.995354,53.3798856 384.591235,50 400,50 C455.21978,50 500,93.4065934 500,150 C500,165.565882 496.612323,180.134166 490.551518,193.076049 L458.85687,161.381401 C463.81243,153.644224 466.666667,144.14196 466.666667,133.333333 C466.666667,103.285256 444.607843,83.3333333 416.666667,83.3333333 C406.225835,83.3333333 396.606361,86.1192334 388.652268,91.1767986 L356.958511,59.4830419 Z M416.666667,163.333333 C399.901961,163.333333 386.666667,151.362179 386.666667,133.333333 C386.666667,115.304487 399.901961,103.333333 416.666667,103.333333 C433.431373,103.333333 446.666667,115.304487 446.666667,133.333333 C446.666667,151.362179 433.431373,163.333333 416.666667,163.333333 Z"/></g></svg>