<svg width="24" height="24" viewBox="0 0 24 24" fill="none" xmlns="http://www.w3.org/2000/svg">
<path d="M18.3365 13.1641C18.4183 12.8503 18.5049 12.5413 18.548 12.2206C18.6783 11.2448 18.5221 10.3096 18.1847 9.39649C18.1568 9.3206 18.123 9.24519 18.0799 9.17714C17.9125 8.91519 17.6153 8.90589 17.4415 9.16539C17.3661 9.27849 17.3156 9.41118 17.2686 9.53995C16.9455 10.4262 16.5176 11.2492 15.8453 11.9264C15.5016 12.272 15.1207 12.5712 14.6736 12.8459C14.7515 12.5335 14.8925 12.275 15.01 12.0253C15.4712 11.046 15.7072 10.0129 15.8502 8.9524C15.9706 8.05982 15.9883 7.16038 15.7523 6.28689C15.3224 4.69317 14.3818 3.54353 12.7269 3.13861C11.0548 2.72978 9.65107 3.23458 8.52885 4.53061C8.22039 4.88706 7.9369 5.26505 7.62941 5.62247C7.11678 6.21932 6.48565 6.65019 5.75367 6.93956C5.53236 7.02671 5.3086 7.01741 5.08239 7.01937C4.88703 7.02084 4.6902 7.02133 4.5066 7.09673C3.94842 7.32587 3.82357 8.01918 4.27256 8.49411C4.70147 8.94799 5.266 9.12573 5.86824 9.22316C6.60267 9.34214 7.28178 9.10418 7.97117 8.9289C8.62384 8.76292 9.27406 8.58616 9.92526 8.4143C10.0418 8.38346 10.1931 8.3296 10.2651 8.42459C10.3287 8.50831 10.2337 8.63953 10.1804 8.73843C10.0217 9.03319 9.77201 9.23834 9.49929 9.42195C8.805 9.88905 8.06567 10.2886 7.41643 10.8218C6.17572 11.8407 5.34287 13.1069 5.14555 14.7251C4.91641 16.6042 5.49808 18.2445 6.73732 19.6482C7.55254 20.5717 8.54452 21.2708 9.72598 21.639C12.0022 22.3485 14.1267 22.0214 16.0441 20.5756C18.0094 19.093 19.0313 17.0689 19.353 14.6629C19.4088 14.2452 19.4328 13.8193 19.3755 13.3962C19.3055 12.8782 19.0029 12.747 18.5818 13.0491C18.5226 13.0917 18.4614 13.1308 18.3992 13.169C18.3889 13.1754 18.3703 13.1675 18.3365 13.1641ZM7.21911 7.0365C7.23625 7.01692 7.26334 6.98553 7.28048 6.96595C7.79801 6.55516 8.30754 6.15714 8.72617 5.60435C8.84025 6.54982 9.34408 7.1922 10.196 7.58684C10.0237 7.65735 9.8856 7.69798 9.74557 7.72883C8.66742 7.96777 7.60493 8.27917 6.51258 8.45592C5.98918 8.54063 5.50053 8.44858 5.05742 8.14893C4.83268 7.99714 4.81163 7.84242 4.98887 7.66567C5.11618 7.59957 5.25621 7.6172 5.39135 7.60202C5.63616 7.5746 5.88146 7.54816 6.12529 7.51536C6.51454 7.46297 6.83965 7.2539 7.17602 7.07371C7.19022 7.06098 7.20491 7.04923 7.21911 7.0365ZM13.768 12.4742C13.8414 12.5232 13.8302 12.57 13.8169 12.5966C13.698 12.8346 13.674 12.8762 13.5477 13.1107C13.4987 13.1842 13.4253 13.1678 13.3763 13.1352C13.156 12.9883 13.1315 12.9738 12.9051 12.8429C12.397 12.5492 11.9082 12.2148 11.424 11.8789C11.352 11.8289 11.3177 11.7692 11.3055 11.6806C11.2512 11.2879 11.1885 10.8962 11.1243 10.4737C11.4607 10.7209 11.7711 10.9594 12.0918 11.1831C12.6784 11.5915 13.227 12.0066 13.768 12.4742ZM17.6799 10.6813C17.7618 10.763 17.7509 10.8493 17.7602 10.928C17.8875 11.9841 17.6926 12.9678 17.1952 13.8942C17.134 14.0087 17.0483 14.139 16.9734 14.2384C16.779 14.4817 15.3376 16.1146 15.4815 16.2199C15.644 16.3713 17.5195 15.0184 17.6603 14.8245C17.9384 14.588 18.1676 14.2203 18.4633 14.0043C18.4991 13.9779 18.5387 13.9231 18.5872 13.9681C18.6112 13.9901 18.619 14.0425 18.6156 14.0797C18.5857 14.4034 18.5705 14.7295 18.5152 15.0487C18.3497 16.0025 17.9913 16.8907 17.5046 17.7206C16.5778 19.3011 15.294 20.4576 13.4907 20.9496C12.696 21.1665 11.8842 21.147 11.069 21.0716C10.1892 20.9903 9.39695 20.6985 8.68455 20.1775C8.58026 20.1011 8.53913 20.0233 8.5455 19.8955C8.56802 19.4225 8.62139 18.9549 8.7717 18.504C8.92936 18.0315 9.12521 17.5766 9.34016 17.1252C9.60749 16.5646 9.9419 16.0622 10.3698 15.6216C11.1121 14.8563 12.061 14.4822 13.0745 14.2555C13.6479 14.1272 14.2193 13.9676 14.7402 13.7218C15.6299 13.3027 16.3716 12.6686 16.9631 11.8661C17.2372 11.4941 17.4714 11.1008 17.6799 10.6813ZM14.09 12.1859C13.1107 11.3976 12.0958 10.7665 11.1532 10.0359C10.9745 9.89737 10.8683 9.4053 10.9642 9.19623C11.1052 8.89022 11.2091 8.57882 11.1474 8.23118C11.0499 7.68379 10.715 7.31804 10.2406 7.08449C9.57322 6.75595 9.23244 6.2296 9.14235 5.50104C9.1164 5.29295 9.15165 5.14558 9.27602 4.98939C10.0947 3.96167 11.4999 3.53716 12.7734 4.00084C14.1791 4.51298 14.8881 5.60925 15.0634 7.04385C15.2827 8.8393 14.75 10.507 14.09 12.1859ZM8.98469 14.2384C9.37296 13.5456 9.75536 12.8576 10.2043 12.2104C10.2406 12.158 10.2866 12.0664 10.3243 12.0684C10.6098 12.084 10.9148 12.0106 11.1753 12.1633C11.448 12.3235 11.6982 12.5218 11.9729 12.7132C10.9358 13.1612 9.96981 13.7135 8.98469 14.2384ZM7.77973 13.8663C7.77983 13.8664 7.77962 13.8662 7.77973 13.8663C7.77101 13.8605 7.7615 13.8544 7.7528 13.8486C7.99565 12.9262 8.23899 12.0037 8.48136 11.0813C8.49507 11.0299 8.52787 10.998 8.57194 10.9736C8.80402 10.8448 9.01994 10.6857 9.29169 10.5833C9.36268 10.8938 9.42927 11.1929 9.50075 11.4911C9.5267 11.5983 9.48753 11.6762 9.42241 11.757C9.20894 12.0233 8.99987 12.2931 8.79031 12.5624C8.45302 12.9966 8.11653 13.4321 7.77973 13.8663ZM10.5368 9.66382C10.6049 9.90863 10.6636 10.1177 10.7214 10.3273C10.741 10.3987 10.7424 10.4453 10.6386 10.4482C10.3307 10.4575 10.0232 10.4781 9.7157 10.4991C9.65303 10.5035 9.60553 10.504 9.58007 10.4355C9.54923 10.3522 9.61973 10.3405 9.6638 10.3145C9.96443 10.1358 10.2318 9.91108 10.5368 9.66382Z" fill="#E46157"/>
<path d="M14.0899 12.186C13.1106 11.3977 12.0957 10.7666 11.1531 10.036C10.9744 9.89746 10.8682 9.40539 10.9641 9.19632C11.1051 8.89031 11.209 8.57891 11.1473 8.23127C11.0498 7.68388 10.7149 7.31813 10.2405 7.08458C9.57315 6.75604 9.23237 6.22969 9.14228 5.50113C9.11633 5.29304 9.15158 5.14567 9.27595 4.98948C10.0946 3.96176 11.4998 3.53725 12.7733 4.00093C14.179 4.51307 14.888 5.60934 15.0633 7.04394C15.2826 8.83939 14.7499 10.5071 14.0899 12.186Z" fill="#E46157"/>
<path d="M17.7603 10.928C17.751 10.8493 17.7622 10.7633 17.6803 10.6816C17.4718 11.1011 17.2373 11.4941 16.9632 11.8661C16.3717 12.6686 15.63 13.3027 14.7403 13.7218C14.2194 13.9676 13.648 14.1272 13.0746 14.2555C12.0611 14.4822 11.1122 14.8563 10.3699 15.6216C9.94196 16.0622 9.60755 16.5646 9.34022 17.1252C9.12527 17.5766 8.92942 18.0315 8.77176 18.504C8.62145 18.9549 8.56808 19.4225 8.54556 19.8955C8.53919 20.0233 8.58032 20.1011 8.68461 20.1775C9.39701 20.6985 10.1893 20.9903 11.0691 21.0716C11.8843 21.147 12.6961 21.1665 13.4908 20.9496C15.2941 20.4576 16.5779 19.3011 17.5047 17.7206C17.9914 16.8907 18.3498 16.0025 18.5153 15.0487C18.5706 14.7295 18.5858 14.4034 18.6157 14.0797C18.6191 14.0425 18.6113 13.9901 18.5873 13.9681C18.5388 13.9231 18.4992 13.9779 18.4634 14.0043C18.1677 14.2203 17.9385 14.588 17.6604 14.8245C17.5196 15.0184 15.6441 16.3713 15.4816 16.2199C15.3377 16.1146 16.7791 14.4817 16.9735 14.2384C17.0484 14.139 17.1341 14.0087 17.1953 13.8942C17.6927 12.9678 17.8876 11.9841 17.7603 10.928Z" fill="#E46157"/>
<path d="M13.768 12.4741C13.8414 12.5231 13.8302 12.5699 13.8169 12.5965C13.698 12.8345 13.674 12.8761 13.5477 13.1106C13.4987 13.1841 13.4253 13.1677 13.3763 13.1351C13.156 12.9882 13.1315 12.9737 12.9051 12.8428C12.397 12.5491 11.9082 12.2147 11.424 11.8788C11.352 11.8288 11.3177 11.7691 11.3055 11.6805C11.2512 11.2878 11.1885 10.8961 11.1243 10.4736C11.4607 10.7208 11.7711 10.9593 12.0918 11.183C12.6784 11.5914 13.227 12.0065 13.768 12.4741Z" fill="#E46157"/>
<path d="M8.98462 14.2383C9.37289 13.5455 9.75529 12.8575 10.2042 12.2103C10.2405 12.1579 10.2865 12.0663 10.3242 12.0683C10.6097 12.0839 10.9147 12.0105 11.1752 12.1632C11.4479 12.3234 11.6981 12.5217 11.9728 12.7131C10.9357 13.1611 9.96974 13.7134 8.98462 14.2383Z" fill="#E46157"/>
<path d="M7.75269 13.8488C7.76139 13.8546 7.77058 13.8604 7.7793 13.8662C8.1161 13.432 8.45291 12.9968 8.7902 12.5626C8.99976 12.2933 9.20883 12.0235 9.4223 11.7572C9.48742 11.6764 9.52659 11.5985 9.50064 11.4913C9.42916 11.1931 9.36257 10.894 9.29158 10.5835C9.01983 10.6859 8.80391 10.845 8.57183 10.9738C8.52776 10.9982 8.49496 11.0301 8.48125 11.0815C8.23888 12.0039 7.99554 12.9264 7.75269 13.8488Z" fill="#E46157"/>
<path d="M10.5368 9.66406C10.6049 9.90887 10.6636 10.1179 10.7214 10.3275C10.741 10.3989 10.7424 10.4455 10.6386 10.4484C10.3307 10.4577 10.0232 10.4783 9.71571 10.4993C9.65304 10.5037 9.60554 10.5042 9.58008 10.4357C9.54924 10.3524 9.61974 10.3407 9.66381 10.3147C9.96444 10.136 10.2318 9.91132 10.5368 9.66406Z" fill="#E46157"/>
<path d="M7.21919 7.03664C7.23633 7.01706 7.26342 6.98567 7.28056 6.96609C7.79809 6.5553 8.30762 6.15728 8.72625 5.60449C8.84033 6.54996 9.34416 7.19234 10.1961 7.58698C10.0238 7.65749 9.88568 7.69812 9.74565 7.72897C8.6675 7.96791 7.60501 8.27931 6.51266 8.45606C5.98926 8.54077 5.50061 8.44872 5.0575 8.14907C4.83276 7.99728 4.81171 7.84256 4.98895 7.66581C5.11626 7.59971 5.25629 7.61734 5.39143 7.60216C5.63624 7.57474 5.88154 7.5483 6.12537 7.5155C6.51462 7.46311 6.83973 7.25404 7.1761 7.07385C7.1903 7.06112 7.20499 7.04937 7.21919 7.03664Z" fill="#E46157"/>
<mask id="mask0_4896_6800" style="mask-type:luminance" maskUnits="userSpaceOnUse" x="3" y="2" width="17" height="21">
<path d="M20 2H3V23H20V2Z" fill="white"/>
<path d="M18.3365 13.1641C18.4183 12.8503 18.5049 12.5413 18.548 12.2206C18.6783 11.2448 18.5221 10.3096 18.1847 9.39649C18.1568 9.3206 18.123 9.24519 18.0799 9.17714C17.9125 8.91519 17.6153 8.90589 17.4415 9.16539C17.3661 9.27849 17.3156 9.41118 17.2686 9.53995C16.9455 10.4262 16.5176 11.2492 15.8453 11.9264C15.5016 12.272 15.1207 12.5712 14.6736 12.8459C14.7515 12.5335 14.8925 12.275 15.01 12.0253C15.4712 11.046 15.7072 10.0129 15.8502 8.9524C15.9706 8.05982 15.9883 7.16038 15.7523 6.28689C15.3224 4.69317 14.3818 3.54353 12.7269 3.13861C11.0548 2.72978 9.65107 3.23458 8.52885 4.53061C8.22039 4.88706 7.9369 5.26505 7.62941 5.62247C7.11678 6.21932 6.48565 6.65019 5.75367 6.93956C5.53236 7.02671 5.3086 7.01741 5.08239 7.01937C4.88703 7.02084 4.6902 7.02133 4.5066 7.09673C3.94842 7.32587 3.82357 8.01918 4.27256 8.49411C4.70147 8.94799 5.266 9.12573 5.86824 9.22316C6.60267 9.34214 7.28178 9.10418 7.97117 8.9289C8.62384 8.76292 9.27406 8.58616 9.92526 8.4143C10.0418 8.38346 10.1931 8.3296 10.2651 8.42459C10.3287 8.50831 10.2337 8.63953 10.1804 8.73843C10.0217 9.03319 9.77201 9.23834 9.49929 9.42195C8.805 9.88905 8.06567 10.2886 7.41643 10.8218C6.17572 11.8407 5.34287 13.1069 5.14555 14.7251C4.91641 16.6042 5.49808 18.2445 6.73732 19.6482C7.55254 20.5717 8.54452 21.2708 9.72598 21.639C12.0022 22.3485 14.1267 22.0214 16.0441 20.5756C18.0094 19.093 19.0313 17.0689 19.353 14.6629C19.4088 14.2452 19.4328 13.8193 19.3755 13.3962C19.3055 12.8782 19.0029 12.747 18.5818 13.0491C18.5226 13.0917 18.4614 13.1308 18.3992 13.169C18.3889 13.1754 18.3703 13.1675 18.3365 13.1641ZM7.21911 7.0365C7.23625 7.01692 7.26334 6.98553 7.28048 6.96595C7.79801 6.55516 8.30754 6.15714 8.72617 5.60435C8.84025 6.54982 9.34408 7.1922 10.196 7.58684C10.0237 7.65735 9.8856 7.69798 9.74557 7.72883C8.66742 7.96777 7.60493 8.27917 6.51258 8.45592C5.98918 8.54063 5.50053 8.44858 5.05742 8.14893C4.83268 7.99714 4.81163 7.84242 4.98887 7.66567C5.11618 7.59957 5.25621 7.6172 5.39135 7.60202C5.63616 7.5746 5.88146 7.54816 6.12529 7.51536C6.51454 7.46297 6.83965 7.2539 7.17602 7.07371C7.19022 7.06098 7.20491 7.04923 7.21911 7.0365ZM13.768 12.4742C13.8414 12.5232 13.8302 12.57 13.8169 12.5966C13.698 12.8346 13.674 12.8762 13.5477 13.1107C13.4987 13.1842 13.4253 13.1678 13.3763 13.1352C13.156 12.9883 13.1315 12.9738 12.9051 12.8429C12.397 12.5492 11.9082 12.2148 11.424 11.8789C11.352 11.8289 11.3177 11.7692 11.3055 11.6806C11.2512 11.2879 11.1885 10.8962 11.1243 10.4737C11.4607 10.7209 11.7711 10.9594 12.0918 11.1831C12.6784 11.5915 13.227 12.0066 13.768 12.4742ZM17.6799 10.6813C17.7618 10.763 17.7509 10.8493 17.7602 10.928C17.8875 11.9841 17.6926 12.9678 17.1952 13.8942C17.134 14.0087 17.0483 14.139 16.9734 14.2384C16.779 14.4817 15.3376 16.1146 15.4815 16.2199C15.644 16.3713 17.5195 15.0184 17.6603 14.8245C17.9384 14.588 18.1676 14.2203 18.4633 14.0043C18.4991 13.9779 18.5387 13.9231 18.5872 13.9681C18.6112 13.9901 18.619 14.0425 18.6156 14.0797C18.5857 14.4034 18.5705 14.7295 18.5152 15.0487C18.3497 16.0025 17.9913 16.8907 17.5046 17.7206C16.5778 19.3011 15.294 20.4576 13.4907 20.9496C12.696 21.1665 11.8842 21.147 11.069 21.0716C10.1892 20.9903 9.39695 20.6985 8.68455 20.1775C8.58026 20.1011 8.53913 20.0233 8.5455 19.8955C8.56802 19.4225 8.62139 18.9549 8.7717 18.504C8.92936 18.0315 9.12521 17.5766 9.34016 17.1252C9.60749 16.5646 9.9419 16.0622 10.3698 15.6216C11.1121 14.8563 12.061 14.4822 13.0745 14.2555C13.6479 14.1272 14.2193 13.9676 14.7402 13.7218C15.6299 13.3027 16.3716 12.6686 16.9631 11.8661C17.2372 11.4941 17.4714 11.1008 17.6799 10.6813ZM14.09 12.1859C13.1107 11.3976 12.0958 10.7665 11.1532 10.0359C10.9745 9.89737 10.8683 9.4053 10.9642 9.19623C11.1052 8.89022 11.2091 8.57882 11.1474 8.23118C11.0499 7.68379 10.715 7.31804 10.2406 7.08449C9.57322 6.75595 9.23244 6.2296 9.14235 5.50104C9.1164 5.29295 9.15165 5.14558 9.27602 4.98939C10.0947 3.96167 11.4999 3.53716 12.7734 4.00084C14.1791 4.51298 14.8881 5.60925 15.0634 7.04385C15.2827 8.8393 14.75 10.507 14.09 12.1859ZM8.98469 14.2384C9.37296 13.5456 9.75536 12.8576 10.2043 12.2104C10.2406 12.158 10.2866 12.0664 10.3243 12.0684C10.6098 12.084 10.9148 12.0106 11.1753 12.1633C11.448 12.3235 11.6982 12.5218 11.9729 12.7132C10.9358 13.1612 9.96981 13.7135 8.98469 14.2384ZM7.77973 13.8663C7.77983 13.8664 7.77962 13.8662 7.77973 13.8663C7.77101 13.8605 7.7615 13.8544 7.7528 13.8486C7.99565 12.9262 8.23899 12.0037 8.48136 11.0813C8.49507 11.0299 8.52787 10.998 8.57194 10.9736C8.80402 10.8448 9.01994 10.6857 9.29169 10.5833C9.36268 10.8938 9.42927 11.1929 9.50075 11.4911C9.5267 11.5983 9.48753 11.6762 9.42241 11.757C9.20894 12.0233 8.99987 12.2931 8.79031 12.5624C8.45302 12.9966 8.11653 13.4321 7.77973 13.8663ZM10.5368 9.66382C10.6049 9.90863 10.6636 10.1177 10.7214 10.3273C10.741 10.3987 10.7424 10.4453 10.6386 10.4482C10.3307 10.4575 10.0232 10.4781 9.7157 10.4991C9.65303 10.5035 9.60553 10.504 9.58007 10.4355C9.54923 10.3522 9.61973 10.3405 9.6638 10.3145C9.96443 10.1358 10.2318 9.91108 10.5368 9.66382Z" fill="black"/>
<path d="M14.0899 12.186C13.1106 11.3977 12.0957 10.7666 11.1531 10.036C10.9744 9.89746 10.8682 9.40539 10.9641 9.19632C11.1051 8.89031 11.209 8.57891 11.1473 8.23127C11.0498 7.68388 10.7149 7.31813 10.2405 7.08458C9.57315 6.75604 9.23237 6.22969 9.14228 5.50113C9.11633 5.29304 9.15158 5.14567 9.27595 4.98948C10.0946 3.96176 11.4998 3.53725 12.7733 4.00093C14.179 4.51307 14.888 5.60934 15.0633 7.04394C15.2826 8.83939 14.7499 10.5071 14.0899 12.186Z" fill="black"/>
<path d="M17.7603 10.928C17.751 10.8493 17.7622 10.7633 17.6803 10.6816C17.4718 11.1011 17.2373 11.4941 16.9632 11.8661C16.3717 12.6686 15.63 13.3027 14.7403 13.7218C14.2194 13.9676 13.648 14.1272 13.0746 14.2555C12.0611 14.4822 11.1122 14.8563 10.3699 15.6216C9.94196 16.0622 9.60755 16.5646 9.34022 17.1252C9.12527 17.5766 8.92942 18.0315 8.77176 18.504C8.62145 18.9549 8.56808 19.4225 8.54556 19.8955C8.53919 20.0233 8.58032 20.1011 8.68461 20.1775C9.39701 20.6985 10.1893 20.9903 11.0691 21.0716C11.8843 21.147 12.6961 21.1665 13.4908 20.9496C15.2941 20.4576 16.5779 19.3011 17.5047 17.7206C17.9914 16.8907 18.3498 16.0025 18.5153 15.0487C18.5706 14.7295 18.5858 14.4034 18.6157 14.0797C18.6191 14.0425 18.6113 13.9901 18.5873 13.9681C18.5388 13.9231 18.4992 13.9779 18.4634 14.0043C18.1677 14.2203 17.9385 14.588 17.6604 14.8245C17.5196 15.0184 15.6441 16.3713 15.4816 16.2199C15.3377 16.1146 16.7791 14.4817 16.9735 14.2384C17.0484 14.139 17.1341 14.0087 17.1953 13.8942C17.6927 12.9678 17.8876 11.9841 17.7603 10.928Z" fill="black"/>
<path d="M13.768 12.4741C13.8414 12.5231 13.8302 12.5699 13.8169 12.5965C13.698 12.8345 13.674 12.8761 13.5477 13.1106C13.4987 13.1841 13.4253 13.1677 13.3763 13.1351C13.156 12.9882 13.1315 12.9737 12.9051 12.8428C12.397 12.5491 11.9082 12.2147 11.424 11.8788C11.352 11.8288 11.3177 11.7691 11.3055 11.6805C11.2512 11.2878 11.1885 10.8961 11.1243 10.4736C11.4607 10.7208 11.7711 10.9593 12.0918 11.183C12.6784 11.5914 13.227 12.0065 13.768 12.4741Z" fill="black"/>
<path d="M8.98462 14.2383C9.37289 13.5455 9.75529 12.8575 10.2042 12.2103C10.2405 12.1579 10.2865 12.0663 10.3242 12.0683C10.6097 12.0839 10.9147 12.0105 11.1752 12.1632C11.4479 12.3234 11.6981 12.5217 11.9728 12.7131C10.9357 13.1611 9.96974 13.7134 8.98462 14.2383Z" fill="black"/>
<path d="M7.75269 13.8488C7.76139 13.8546 7.77058 13.8604 7.7793 13.8662C8.1161 13.432 8.45291 12.9968 8.7902 12.5626C8.99976 12.2933 9.20883 12.0235 9.4223 11.7572C9.48742 11.6764 9.52659 11.5985 9.50064 11.4913C9.42916 11.1931 9.36257 10.894 9.29158 10.5835C9.01983 10.6859 8.80391 10.845 8.57183 10.9738C8.52776 10.9982 8.49496 11.0301 8.48125 11.0815C8.23888 12.0039 7.99554 12.9264 7.75269 13.8488Z" fill="black"/>
<path d="M10.5368 9.66406C10.6049 9.90887 10.6636 10.1179 10.7214 10.3275C10.741 10.3989 10.7424 10.4455 10.6386 10.4484C10.3307 10.4577 10.0232 10.4783 9.71571 10.4993C9.65304 10.5037 9.60554 10.5042 9.58008 10.4357C9.54924 10.3524 9.61974 10.3407 9.66381 10.3147C9.96444 10.136 10.2318 9.91132 10.5368 9.66406Z" fill="black"/>
<path d="M7.21919 7.03664C7.23633 7.01706 7.26342 6.98567 7.28056 6.96609C7.79809 6.5553 8.30762 6.15728 8.72625 5.60449C8.84033 6.54996 9.34416 7.19234 10.1961 7.58698C10.0238 7.65749 9.88568 7.69812 9.74565 7.72897C8.6675 7.96791 7.60501 8.27931 6.51266 8.45606C5.98926 8.54077 5.50061 8.44872 5.0575 8.14907C4.83276 7.99728 4.81171 7.84256 4.98895 7.66581C5.11626 7.59971 5.25629 7.61734 5.39143 7.60216C5.63624 7.57474 5.88154 7.5483 6.12537 7.5155C6.51462 7.46311 6.83973 7.25404 7.1761 7.07385C7.1903 7.06112 7.20499 7.04937 7.21919 7.03664Z" fill="black"/>
</mask>
<g mask="url(#mask0_4896_6800)">
<path d="M7.21908 7.03663L7.20178 7.05395L7.22028 7.07244L7.2375 7.05275L7.21908 7.03663ZM7.28045 6.96608L7.26497 6.94659L7.26202 6.94996L7.28045 6.96608ZM8.72614 5.60448L8.75045 5.60155L8.74319 5.54142L8.70662 5.5897L8.72614 5.60448ZM10.196 7.58697L10.2053 7.60963L10.2573 7.58836L10.2063 7.56476L10.196 7.58697ZM4.98884 7.6658L4.97702 7.64302L4.97156 7.64846L4.98884 7.6658ZM7.17599 7.07384L7.18789 7.09606L7.19233 7.09207L7.17599 7.07384ZM7.21908 7.03663L7.23589 7.01883L7.2195 7.00245L7.20225 7.01792L7.21908 7.03663ZM13.768 12.4743L13.7519 12.493L13.7544 12.4947L13.768 12.4743ZM13.5477 13.1108L13.5681 13.1245L13.5692 13.1224L13.5477 13.1108ZM11.1243 10.4738L11.1388 10.454L11.0913 10.4191L11.1001 10.4774L11.1243 10.4738ZM15.4815 16.22L15.4983 16.2019L15.496 16.2002L15.4815 16.22ZM17.6603 14.8246L17.644 14.8054L17.6405 14.8102L17.6603 14.8246ZM14.09 12.186L14.0746 12.205L14.1073 12.1687L14.09 12.186ZM14.09 12.186L14.0667 12.1765L14.0609 12.1915L14.0722 12.2028L14.09 12.186ZM8.98466 14.2385L8.96331 14.2265L8.94288 14.263H8.98466V14.2385ZM11.9729 12.7133L11.9826 12.7358L12.0229 12.7183L11.9869 12.6932L11.9729 12.7133ZM8.98466 14.2385L8.98515 14.2662L8.99666 14.2601L8.98466 14.2385ZM7.75277 13.8487L7.72909 13.8425L7.72464 13.8594L7.73919 13.8691L7.75277 13.8487ZM9.29166 10.5834L9.31552 10.578L9.30927 10.5506L9.28303 10.5605L9.29166 10.5834ZM10.5368 9.66395L10.5604 9.6574L10.5123 9.66395H10.5368ZM10.5368 9.66395L10.5522 9.68346L10.5613 9.67611V9.66444L10.5368 9.66395ZM17.6802 10.6817L17.6975 10.6644L17.6735 10.6403L17.6583 10.6708L17.6802 10.6817ZM7.77938 13.8661L7.76581 13.8865L7.78476 13.8991L7.79872 13.8811L7.77938 13.8661ZM7.2375 7.05275C7.24611 7.04292 7.25721 7.03013 7.26825 7.0174C7.27932 7.00465 7.29034 6.99195 7.29887 6.9822L7.26202 6.94996C7.25341 6.9598 7.24232 6.97258 7.23127 6.98531C7.2202 6.99807 7.20918 7.01077 7.20066 7.02051L7.2375 7.05275ZM7.29567 6.98525C7.81275 6.57482 8.32484 6.17494 8.74566 5.61926L8.70662 5.5897C8.29019 6.1396 7.78295 6.53544 7.26497 6.94659L7.29567 6.98525ZM8.70184 5.60742C8.81701 6.56189 9.32662 7.21124 10.1857 7.60918L10.2063 7.56476C9.36147 7.17343 8.86344 6.538 8.75045 5.60155L8.70184 5.60742ZM10.1868 7.56431C10.0157 7.63427 9.87899 7.6745 9.74027 7.70505L9.7508 7.75287C9.89215 7.72173 10.0316 7.68069 10.2053 7.60963L10.1868 7.56431ZM9.74027 7.70505C8.65978 7.9445 7.60027 8.25525 6.50864 8.43188L6.51646 8.48022C7.60954 8.30335 8.67499 7.99129 9.7508 7.75287L9.74027 7.70505ZM6.50864 8.43188C5.99087 8.51568 5.50863 8.42465 5.07111 8.12878L5.04368 8.16934C5.49237 8.47276 5.98742 8.56584 6.51646 8.48022L6.50864 8.43188ZM5.07111 8.12878C4.96064 8.05417 4.90636 7.98273 4.89662 7.91339C4.88699 7.84486 4.91974 7.76929 5.00613 7.68313L4.97156 7.64846C4.88071 7.73906 4.83536 7.82923 4.84813 7.9202C4.86079 8.01035 4.92941 8.09216 5.04368 8.16934L5.07111 8.12878ZM5.00013 7.68753C5.05966 7.65662 5.12282 7.6449 5.18921 7.63927C5.2225 7.63645 5.25603 7.63519 5.29041 7.63366C5.32455 7.63214 5.35936 7.63037 5.39405 7.62648L5.38859 7.57782C5.35571 7.58151 5.32234 7.58323 5.28823 7.58474C5.25437 7.58625 5.2196 7.58756 5.18507 7.59049C5.11584 7.59636 5.04533 7.60888 4.97756 7.64407L5.00013 7.68753ZM5.39405 7.62648C5.63871 7.59908 5.88435 7.5726 6.12852 7.53975L6.122 7.49122C5.87851 7.52398 5.63356 7.55038 5.38859 7.57782L5.39405 7.62648ZM6.12852 7.53975C6.52339 7.4866 6.85404 7.2749 7.18789 7.09606L7.16443 7.05226C6.82554 7.2338 6.50563 7.43959 6.122 7.49122L6.12852 7.53975ZM7.19233 7.09207C7.19933 7.0858 7.20634 7.07963 7.21346 7.07338C7.22054 7.06715 7.22773 7.06083 7.23493 7.05437L7.20225 7.01792C7.19525 7.02419 7.18824 7.03035 7.18113 7.03661C7.17404 7.04284 7.16685 7.04916 7.15965 7.05562L7.19233 7.09207ZM13.7544 12.4947C13.7877 12.5169 13.7982 12.5361 13.8011 12.5492C13.8041 12.5627 13.8005 12.575 13.7951 12.5858L13.8388 12.6077C13.8467 12.5919 13.8553 12.5675 13.8489 12.5386C13.8424 12.5094 13.8217 12.4807 13.7816 12.4539L13.7544 12.4947ZM13.7951 12.5858C13.6763 12.8234 13.6524 12.8647 13.5261 13.0992L13.5692 13.1224C13.6955 12.8879 13.7197 12.846 13.8388 12.6077L13.7951 12.5858ZM13.5273 13.0972C13.507 13.1277 13.4835 13.1376 13.4612 13.1384C13.4373 13.1392 13.4117 13.1295 13.3899 13.1149L13.3627 13.1557C13.3898 13.1738 13.4254 13.1886 13.4628 13.1873C13.5017 13.186 13.5395 13.1675 13.5681 13.1245L13.5273 13.0972ZM13.3899 13.1149C13.1691 12.9677 13.1441 12.953 12.9174 12.8219L12.8929 12.8642C13.1188 12.9949 13.1429 13.0091 13.3627 13.1557L13.3899 13.1149ZM12.9174 12.8219C12.4103 12.5286 11.9222 12.1948 11.4379 11.8589L11.41 11.8991C11.8943 12.235 12.3838 12.5699 12.8929 12.8642L12.9174 12.8219ZM11.4379 11.8589C11.4042 11.8355 11.3804 11.8106 11.3634 11.7819C11.3464 11.7531 11.3356 11.7193 11.3298 11.6773L11.2813 11.684C11.2877 11.7307 11.3001 11.7711 11.3213 11.8068C11.3425 11.8426 11.3717 11.8725 11.41 11.8991L11.4379 11.8589ZM11.3298 11.6773C11.2754 11.2844 11.2127 10.8924 11.1485 10.4701L11.1001 10.4774C11.1643 10.9002 11.2269 11.2916 11.2813 11.684L11.3298 11.6773ZM11.1098 10.4935C11.4456 10.7403 11.7568 10.9793 12.0778 11.2033L12.1058 11.1631C11.7855 10.9396 11.4758 10.7017 11.1388 10.454L11.1098 10.4935ZM12.0778 11.2033C12.6638 11.6113 13.2116 12.0261 13.7519 12.493L13.784 12.4558C13.2422 11.9875 12.6929 11.5718 12.1058 11.1631L12.0778 11.2033ZM17.7359 10.931C17.8626 11.982 17.6688 12.9606 17.1736 13.8827L17.2168 13.9059C17.7165 12.9752 17.9124 11.9864 17.7845 10.9252L17.7359 10.931ZM17.1736 13.8827C17.1131 13.996 17.0281 14.1252 16.9538 14.2237L16.9925 14.2538C17.0681 14.1536 17.1549 14.0218 17.2168 13.9059L17.1736 13.8827ZM16.9538 14.2237C16.9055 14.2842 16.7799 14.4308 16.6194 14.6201C16.4591 14.8091 16.2651 15.0395 16.0816 15.2656C15.8982 15.4916 15.7249 15.7138 15.6064 15.8863C15.5472 15.9724 15.5011 16.0471 15.4742 16.1042C15.4608 16.1325 15.4514 16.1581 15.4482 16.1794C15.4452 16.1995 15.4465 16.2247 15.4671 16.2397L15.496 16.2002C15.4985 16.2021 15.4943 16.2022 15.4966 16.1867C15.4988 16.1724 15.5058 16.1519 15.5185 16.125C15.5436 16.0717 15.5879 15.9996 15.6467 15.914C15.7641 15.7432 15.9363 15.5222 16.1196 15.2964C16.3027 15.0707 16.4965 14.8407 16.6567 14.6518C16.8166 14.4632 16.9436 14.315 16.9925 14.2538L16.9538 14.2237ZM15.4648 16.2379C15.4826 16.2545 15.5082 16.2576 15.533 16.2558C15.5587 16.2539 15.5895 16.2464 15.6239 16.2346C15.693 16.2111 15.7815 16.1691 15.8823 16.1146C16.0843 16.0055 16.3391 15.844 16.5928 15.672C16.8466 15.5 17.0997 15.3172 17.2982 15.1651C17.3975 15.0891 17.4833 15.0207 17.5488 14.9651C17.6134 14.9102 17.6605 14.866 17.6801 14.8389L17.6405 14.8102C17.625 14.8316 17.5826 14.8721 17.5171 14.9277C17.4525 14.9826 17.3674 15.0505 17.2685 15.1262C17.0707 15.2777 16.8184 15.46 16.5653 15.6315C16.3122 15.8031 16.0589 15.9635 15.8591 16.0715C15.759 16.1256 15.6733 16.1661 15.6081 16.1883C15.5754 16.1994 15.5491 16.2055 15.5294 16.207C15.5088 16.2085 15.5008 16.2042 15.4983 16.2019L15.4648 16.2379ZM17.6762 14.8432C17.817 14.7235 17.9452 14.5707 18.0737 14.4228C18.2028 14.2742 18.3324 14.1303 18.4778 14.0242L18.4489 13.9847C18.2985 14.0945 18.1656 14.2424 18.0367 14.3907C17.9071 14.5399 17.7813 14.6887 17.644 14.8054L17.6762 14.8432ZM18.4778 14.0242C18.4877 14.0169 18.4982 14.0073 18.5069 13.9999C18.5162 13.9918 18.5245 13.9853 18.5324 13.9809C18.5401 13.9766 18.546 13.9752 18.5507 13.9756C18.5551 13.9759 18.5616 13.9778 18.5705 13.9861L18.6039 13.9503C18.5886 13.9361 18.572 13.928 18.5541 13.9267C18.5367 13.9255 18.5213 13.9311 18.5086 13.9381C18.496 13.9451 18.4846 13.9544 18.475 13.9627C18.4646 13.9716 18.4568 13.9787 18.4489 13.9847L18.4778 14.0242ZM18.5705 13.9861C18.577 13.9921 18.5836 14.0049 18.5878 14.0236C18.5917 14.0415 18.5927 14.0614 18.5912 14.0776L18.64 14.0821C18.6419 14.0611 18.6407 14.0361 18.6356 14.013C18.6306 13.9907 18.6214 13.9663 18.6039 13.9503L18.5705 13.9861ZM18.5912 14.0776C18.5612 14.4027 18.5462 14.7267 18.4911 15.0446L18.5393 15.053C18.5949 14.7325 18.6102 14.4042 18.64 14.0821L18.5912 14.0776ZM18.4911 15.0446C18.3262 15.995 17.969 16.8804 17.4835 17.7083L17.5258 17.7331C18.0136 16.9011 18.3733 16.0102 18.5393 15.053L18.4911 15.0446ZM17.4835 17.7083C16.5592 19.2845 15.2801 20.4361 13.4843 20.9261L13.4971 20.9734C15.3078 20.4793 16.5964 19.3179 17.5258 17.7331L17.4835 17.7083ZM13.4843 20.9261C12.694 21.1418 11.8857 21.1226 11.0713 21.0473L11.0668 21.096C11.8828 21.1715 12.6981 21.1914 13.4971 20.9734L13.4843 20.9261ZM11.0713 21.0473C10.1957 20.9664 9.40768 20.6761 8.69897 20.1578L8.67006 20.1974C9.38616 20.721 10.1827 21.0144 11.0668 21.096L11.0713 21.0473ZM8.69897 20.1578C8.64872 20.121 8.61559 20.0853 8.59539 20.0449C8.57526 20.0047 8.56688 19.9578 8.56992 19.8968L8.52102 19.8944C8.51769 19.9612 8.5267 20.0171 8.55161 20.0668C8.57645 20.1164 8.61601 20.1578 8.67006 20.1974L8.69897 20.1578ZM8.56992 19.8968C8.5924 19.4248 8.64562 18.9597 8.7949 18.5118L8.74845 18.4963C8.59711 18.9504 8.54358 19.4205 8.52102 19.8944L8.56992 19.8968ZM8.7949 18.5118C8.95213 18.0406 9.14754 17.5867 9.36223 17.1358L9.31803 17.1148C9.10284 17.5667 8.90654 18.0226 8.74845 18.4963L8.7949 18.5118ZM9.36223 17.1358C9.62857 16.5773 9.96153 16.0772 10.3874 15.6387L10.3523 15.6046C9.92222 16.0474 9.58635 16.5521 9.31803 17.1148L9.36223 17.1358ZM10.3874 15.6387C11.125 14.8783 12.0686 14.5057 13.0799 14.2795L13.0692 14.2317C12.0534 14.4589 11.0992 14.8345 10.3523 15.6046L10.3874 15.6387ZM13.0799 14.2795C13.6539 14.1511 14.2273 13.991 14.7507 13.7441L14.7298 13.6998C14.2112 13.9444 13.6418 14.1036 13.0692 14.2317L13.0799 14.2795ZM14.7507 13.7441C15.6443 13.3231 16.3892 12.6862 16.9828 11.8808L16.9434 11.8517C16.3541 12.6512 15.6154 13.2825 14.7298 13.6998L14.7507 13.7441ZM14.1053 12.1669C13.615 11.7722 13.1159 11.417 12.6219 11.0693C12.1278 10.7215 11.6389 10.3815 11.1682 10.0167L11.1382 10.0554C11.6101 10.4211 12.1 10.7619 12.5938 11.1094C13.0877 11.457 13.5857 11.8114 14.0746 12.205L14.1053 12.1669ZM11.1682 10.0167C11.1277 9.98531 11.0896 9.93231 11.0568 9.86508C11.0242 9.79821 10.9977 9.71905 10.9796 9.63736C10.9615 9.55567 10.9519 9.4721 10.9526 9.39652C10.9534 9.32057 10.9645 9.25447 10.9865 9.20658L10.942 9.18612C10.916 9.24276 10.9044 9.3166 10.9037 9.39605C10.9029 9.47586 10.913 9.56317 10.9318 9.64795C10.9506 9.73273 10.9782 9.81563 11.0128 9.88654C11.0472 9.95707 11.0894 10.0175 11.1382 10.0554L11.1682 10.0167ZM10.9865 9.20658C11.128 8.89934 11.2345 8.58225 11.1715 8.22704L11.1233 8.23559C11.1836 8.57564 11.0825 8.88132 10.942 9.18612L10.9865 9.20658ZM11.1715 8.22704C11.0724 7.6705 10.7314 7.29893 10.2514 7.06265L10.2298 7.10658C10.6987 7.33741 11.0274 7.69734 11.1233 8.23559L11.1715 8.22704ZM10.2514 7.06265C9.59204 6.73807 9.25579 6.21928 9.16662 5.49817L9.11802 5.50418C9.20904 6.24019 9.55433 6.77408 10.2298 7.10658L10.2514 7.06265ZM9.16662 5.49817C9.1539 5.39617 9.15636 5.31053 9.1765 5.23196C9.1966 5.15353 9.23468 5.0807 9.29514 5.00477L9.25684 4.97426C9.19293 5.05452 9.1512 5.13347 9.12907 5.21981C9.10698 5.306 9.10479 5.3981 9.11802 5.50418L9.16662 5.49817ZM9.29514 5.00477C10.1074 3.98509 11.5016 3.56398 12.765 4.02397L12.7818 3.97797C11.4981 3.51062 10.0819 3.93851 9.25684 4.97426L9.29514 5.00477ZM12.765 4.02397C14.1605 4.5324 14.8647 5.61974 15.0391 7.04695L15.0877 7.04101C14.9115 5.59902 14.1977 4.49383 12.7818 3.97797L12.765 4.02397ZM15.0391 7.04695C15.2576 8.83586 14.7266 10.498 14.0667 12.1765L14.1123 12.1944C14.7725 10.5151 15.3078 8.843 15.0877 7.04101L15.0391 7.04695ZM9.00602 14.2504C9.39443 13.5574 9.77624 12.8705 10.2245 12.2244L10.1842 12.1965C9.73442 12.8449 9.35144 13.5339 8.96331 14.2265L9.00602 14.2504ZM10.2245 12.2244C10.2339 12.2107 10.2439 12.1946 10.2538 12.1789C10.2638 12.1629 10.2738 12.1472 10.2837 12.1333C10.2938 12.1191 10.3029 12.108 10.3111 12.1007C10.3199 12.0928 10.3236 12.0929 10.323 12.0929L10.3256 12.044C10.3062 12.043 10.2899 12.0539 10.2784 12.0642C10.2662 12.0752 10.2545 12.0898 10.2438 12.1049C10.233 12.1201 10.2223 12.137 10.2123 12.1529C10.2022 12.169 10.1929 12.184 10.1842 12.1965L10.2245 12.2244ZM10.323 12.0929C10.3955 12.0969 10.469 12.0952 10.5418 12.0929C10.615 12.0906 10.6872 12.0877 10.7587 12.089C10.9014 12.0917 11.0379 12.1113 11.1629 12.1846L11.1877 12.1423C11.0521 12.0629 10.9059 12.0428 10.7596 12.0401C10.6866 12.0387 10.6128 12.0417 10.5403 12.044C10.4675 12.0463 10.3958 12.0479 10.3256 12.044L10.323 12.0929ZM11.1629 12.1846C11.4345 12.3441 11.6825 12.5408 11.9589 12.7334L11.9869 12.6932C11.7139 12.503 11.4614 12.3031 11.1877 12.1423L11.1629 12.1846ZM11.9632 12.6908C10.9249 13.1394 9.9579 13.6925 8.97364 14.2169L8.99666 14.2601C9.98265 13.7347 10.9468 13.1833 11.9826 12.7358L11.9632 12.6908ZM7.77644 13.855C8.01929 12.9325 8.26264 12.0101 8.50501 11.0876L8.45767 11.0751C8.21531 11.9975 7.97195 12.92 7.72909 13.8425L7.77644 13.855ZM8.50501 11.0876C8.51649 11.0446 8.54348 11.0175 8.5838 10.9951L8.56003 10.9523C8.51221 10.9788 8.47362 11.0153 8.45767 11.0751L8.50501 11.0876ZM8.5838 10.9951C8.69995 10.9306 8.8137 10.8576 8.9293 10.7897C9.04575 10.7214 9.1663 10.6568 9.30028 10.6063L9.28303 10.5605C9.14527 10.6124 9.02198 10.6786 8.90451 10.7475C8.7862 10.817 8.67595 10.8879 8.56003 10.9523L8.5838 10.9951ZM9.26779 10.5889C9.33874 10.8991 9.40539 11.1986 9.47692 11.4969L9.52453 11.4855C9.45309 11.1875 9.38656 10.8886 9.31552 10.578L9.26779 10.5889ZM9.47692 11.4969C9.50025 11.5933 9.46643 11.6634 9.40332 11.7417L9.44144 11.7724C9.50858 11.6891 9.5531 11.6036 9.52453 11.4855L9.47692 11.4969ZM9.40332 11.7417C9.18971 12.0082 8.98047 12.2782 8.77096 12.5475L8.8096 12.5775C9.01921 12.3082 9.2281 12.0386 9.44144 11.7724L9.40332 11.7417ZM10.5132 9.67051C10.5813 9.91542 10.64 10.1243 10.6978 10.3339L10.745 10.3209C10.6872 10.1113 10.6284 9.90211 10.5604 9.6574L10.5132 9.67051ZM10.6978 10.3339C10.7026 10.3515 10.7059 10.366 10.7069 10.3781C10.708 10.3904 10.7066 10.3979 10.7043 10.4028C10.7006 10.4104 10.6885 10.4224 10.6379 10.4238L10.6393 10.4728C10.6925 10.4713 10.7316 10.4586 10.7483 10.4242C10.7561 10.4082 10.7572 10.3906 10.7557 10.3739C10.7542 10.3571 10.75 10.3391 10.745 10.3209L10.6978 10.3339ZM10.6379 10.4238C10.3294 10.4331 10.0215 10.4537 9.714 10.4748L9.71734 10.5236C10.0249 10.5026 10.3318 10.4821 10.6393 10.4728L10.6379 10.4238ZM9.714 10.4748C9.68176 10.4771 9.65927 10.4776 9.64188 10.4716C9.62721 10.4665 9.61369 10.4558 9.60299 10.427L9.55709 10.4441C9.57186 10.4838 9.59482 10.5072 9.62592 10.5179C9.65432 10.5277 9.68691 10.5258 9.71734 10.5236L9.714 10.4748ZM9.60299 10.427C9.59635 10.409 9.59619 10.3978 9.5978 10.3906C9.59935 10.3837 9.60309 10.3779 9.60978 10.3722C9.6169 10.3661 9.62647 10.3607 9.63855 10.3547C9.6496 10.3493 9.66411 10.3428 9.67619 10.3357L9.65135 10.2935C9.64139 10.2994 9.63056 10.3041 9.61697 10.3108C9.6044 10.317 9.59001 10.3246 9.57785 10.3351C9.56526 10.3459 9.55441 10.3603 9.55003 10.3799C9.54572 10.3991 9.5483 10.4204 9.55709 10.4441L9.60299 10.427ZM9.67619 10.3357C9.97871 10.1558 10.2478 9.93023 10.5522 9.68346L10.5214 9.64542C10.2157 9.89317 9.95008 10.1159 9.65135 10.2935L9.67619 10.3357ZM17.7845 10.9252C17.7759 10.8524 17.7872 10.7538 17.6975 10.6644L17.663 10.699C17.7371 10.773 17.7259 10.8463 17.7359 10.931L17.7845 10.9252ZM17.6583 10.6708C17.4503 11.0892 17.2166 11.481 16.9434 11.8517L16.9828 11.8808C17.2579 11.5075 17.4931 11.1132 17.7022 10.6926L17.6583 10.6708ZM7.73919 13.8691C7.74369 13.8721 7.74829 13.8751 7.75275 13.878C7.75724 13.8809 7.76159 13.8837 7.76581 13.8865L7.79294 13.8458C7.78844 13.8428 7.78384 13.8398 7.77939 13.8369C7.7749 13.834 7.77055 13.8312 7.76635 13.8284L7.73919 13.8691ZM7.79872 13.8811C8.13555 13.4469 8.47231 13.0117 8.8096 12.5775L8.77096 12.5475C8.43366 12.9817 8.09681 13.4169 7.76003 13.8511L7.79872 13.8811ZM18.3365 13.1642H18.2875L18.3839 13.1766L18.3365 13.1642ZM14.6736 12.846L14.6261 12.8341L14.5971 12.9505L14.6993 12.8877L14.6736 12.846ZM18.3365 13.1642L18.3414 13.115L18.2875 13.1096V13.1642H18.3365ZM17.6802 10.6817L17.6799 10.6324H17.5612L17.6454 10.7161L17.6802 10.6817ZM17.6802 10.6817L17.7243 10.7032L17.7594 10.6324H17.6799L17.6802 10.6817ZM7.77938 13.8661L7.7797 13.9153H7.94141L7.80686 13.8256L7.77938 13.8661ZM7.77938 13.8661L7.7405 13.8364L7.67937 13.9153H7.7797L7.77938 13.8661ZM17.6802 10.6817L17.6454 10.7161L17.6938 10.7644L17.7243 10.7032L17.6802 10.6817ZM7.77938 13.8661L7.80686 13.8256L7.76857 13.8001L7.7405 13.8364L7.77938 13.8661ZM18.3839 13.1766C18.4653 12.8641 18.553 12.5516 18.5965 12.2273L18.4995 12.2142C18.4569 12.5312 18.3713 12.8366 18.2891 13.1519L18.3839 13.1766ZM18.5965 12.2273C18.728 11.2419 18.5701 10.2985 18.2306 9.37965L18.1388 9.41352C18.474 10.321 18.6284 11.2479 18.4995 12.2142L18.5965 12.2273ZM18.2306 9.37965C18.2019 9.30178 18.1669 9.22302 18.1213 9.15108L18.0386 9.20346C18.0792 9.26763 18.1116 9.3396 18.1388 9.41352L18.2306 9.37965ZM18.1213 9.15108C18.0306 9.00921 17.9006 8.92997 17.7642 8.9269C17.6275 8.92382 17.4952 8.99732 17.4008 9.13827L17.4822 9.19276C17.5616 9.07421 17.6648 9.02261 17.762 9.0248C17.8595 9.02699 17.9618 9.08337 18.0386 9.20346L18.1213 9.15108ZM17.4008 9.13827C17.3217 9.2569 17.2695 9.39498 17.2226 9.52329L17.3146 9.55687C17.3618 9.42763 17.4105 9.30033 17.4822 9.19276L17.4008 9.13827ZM17.2226 9.52329C16.9008 10.4058 16.476 11.2217 15.8106 11.892L15.88 11.961C16.5591 11.277 16.9901 10.4469 17.3146 9.55687L17.2226 9.52329ZM15.8106 11.892C15.4698 12.2348 15.092 12.5315 14.648 12.8043L14.6993 12.8877C15.1494 12.6111 15.5334 12.3096 15.88 11.961L15.8106 11.892ZM14.7211 12.8578C14.7975 12.5515 14.9353 12.2991 15.0543 12.0462L14.9657 12.0045C14.8497 12.251 14.7055 12.5157 14.6261 12.8341L14.7211 12.8578ZM15.0543 12.0462C15.5184 11.0608 15.7554 10.0223 15.8987 8.95907L15.8017 8.94598C15.6591 10.0037 15.424 11.0315 14.9657 12.0045L15.0543 12.0462ZM15.8987 8.95907C16.0196 8.06311 16.0379 7.15647 15.7995 6.27425L15.705 6.29977C15.9386 7.16453 15.9217 8.05677 15.8017 8.94598L15.8987 8.95907ZM15.7995 6.27425C15.3661 4.66726 14.4144 3.50124 12.7385 3.09118L12.7152 3.1863C14.3492 3.58608 15.2787 4.71931 15.705 6.29977L15.7995 6.27425ZM12.7385 3.09118C11.8946 2.88484 11.1161 2.90859 10.406 3.14904C9.69601 3.38943 9.05752 3.84536 8.49181 4.49869L8.56584 4.56279C9.12234 3.92009 9.74684 3.4756 10.4374 3.24179C11.1277 3.00804 11.887 2.98381 12.7152 3.1863L12.7385 3.09118ZM8.49181 4.49869C8.33692 4.67768 8.18839 4.86196 8.04059 5.04561C7.89262 5.22947 7.74539 5.41268 7.59227 5.59067L7.6665 5.65453C7.82086 5.4751 7.96912 5.2906 8.11688 5.107C8.26482 4.92318 8.41226 4.74025 8.56584 4.56279L8.49181 4.49869ZM7.59227 5.59067C7.08524 6.18099 6.46086 6.60746 5.73564 6.89415L5.77158 6.98525C6.51032 6.69321 7.14825 6.25791 7.6665 5.65453L7.59227 5.59067ZM5.73564 6.89415C5.52475 6.9772 5.31195 6.96854 5.08194 6.97054L5.08273 7.06846C5.30513 7.06653 5.53984 7.0765 5.77158 6.98525L5.73564 6.89415ZM5.08194 6.97054C4.8885 6.97199 4.68186 6.97194 4.48797 7.05157L4.52516 7.14215C4.69848 7.07097 4.88545 7.06994 5.08273 7.06846L5.08194 6.97054ZM4.48797 7.05157C3.89359 7.29558 3.76772 8.03153 4.23695 8.52788L4.30811 8.46061C3.87936 8.00708 4.0032 7.35643 4.52516 7.14215L4.48797 7.05157ZM4.23695 8.52788C4.67692 8.99347 5.25443 9.17359 5.86039 9.27163L5.87604 9.17496C5.27753 9.07813 4.72596 8.90279 4.30811 8.46061L4.23695 8.52788ZM5.86039 9.27163C6.60763 9.39269 7.2999 9.15022 7.98321 8.97648L7.95908 8.88158C7.2636 9.05841 6.59767 9.29186 5.87604 9.17496L5.86039 9.27163ZM7.98321 8.97648C8.63615 8.81043 9.287 8.63351 9.93772 8.46178L9.91273 8.36709C9.26105 8.53908 8.61148 8.71566 7.95908 8.88158L7.98321 8.97648ZM9.93772 8.46178C9.99963 8.44539 10.0603 8.42612 10.1162 8.42116C10.1712 8.41628 10.2052 8.42685 10.226 8.45429L10.3041 8.39515C10.2529 8.3276 10.1753 8.3176 10.1075 8.32362C10.0407 8.32955 9.96735 8.35263 9.91273 8.36709L9.93772 8.46178ZM10.226 8.45429C10.241 8.47407 10.2424 8.50498 10.2212 8.55762C10.2 8.61002 10.1667 8.66072 10.1373 8.71531L10.2234 8.76182C10.2474 8.7175 10.2882 8.65314 10.312 8.59428C10.3357 8.53565 10.3527 8.4591 10.3041 8.39515L10.226 8.45429ZM10.1373 8.71531C9.98441 8.9994 9.74268 9.19917 9.47191 9.38146L9.52659 9.4627C9.80126 9.27778 10.059 9.06723 10.2234 8.76182L10.1373 8.71531ZM9.47191 9.38146C8.78322 9.8448 8.03665 10.2491 7.38532 10.784L7.44747 10.8597C8.09463 10.3282 8.8267 9.93357 9.52659 9.4627L9.47191 9.38146ZM7.38532 10.784C6.13708 11.8091 5.29608 13.086 5.09692 14.7192L5.19413 14.7311C5.38961 13.1279 6.21431 11.8724 7.44747 10.8597L7.38532 10.784ZM5.09692 14.7192C4.86593 16.6136 5.453 18.2675 6.70058 19.6807L6.774 19.6159C5.54311 18.2216 4.96684 16.5951 5.19413 14.7311L5.09692 14.7192ZM6.70058 19.6807C7.52083 20.6098 8.52016 21.3146 9.71138 21.6859L9.74052 21.5924C8.56882 21.2272 7.5842 20.5337 6.774 19.6159L6.70058 19.6807ZM9.71138 21.6859C12.0021 22.3998 14.1431 22.0705 16.0736 20.6148L16.0146 20.5366C14.1103 21.9726 12.0024 22.2974 9.74052 21.5924L9.71138 21.6859ZM16.0736 20.6148C18.051 19.1231 19.0784 17.0863 19.4015 14.6695L19.3044 14.6565C18.9842 17.0516 17.9679 19.0631 16.0146 20.5366L16.0736 20.6148ZM19.4015 14.6695C19.4576 14.2495 19.4821 13.8188 19.424 13.3898L19.327 13.4029C19.3834 13.8199 19.3599 14.2411 19.3044 14.6565L19.4015 14.6695ZM19.424 13.3898C19.3883 13.1253 19.2909 12.9406 19.1299 12.8703C18.9687 12.8 18.7684 12.8551 18.5533 13.0094L18.6103 13.089C18.8163 12.9412 18.9778 12.9108 19.0907 12.9601C19.2037 13.0094 19.2927 13.1493 19.327 13.4029L19.424 13.3898ZM18.5533 13.0094C18.4955 13.051 18.4352 13.0895 18.3735 13.1274L18.4248 13.2109C18.4874 13.1724 18.5497 13.1326 18.6103 13.089L18.5533 13.0094ZM18.3735 13.1274C18.381 13.1227 18.3875 13.1225 18.389 13.1225C18.39 13.1225 18.3894 13.1226 18.3848 13.1218C18.3775 13.1206 18.3604 13.117 18.3414 13.115L18.3316 13.2125C18.3463 13.214 18.3554 13.2162 18.3685 13.2184C18.3741 13.2193 18.3821 13.2206 18.3906 13.2204C18.3995 13.2203 18.4122 13.2187 18.4248 13.2109L18.3735 13.1274ZM17.6454 10.7161C17.6451 10.7158 17.6455 10.7162 17.6454 10.7161L17.7148 10.647C17.7149 10.6471 17.7147 10.6469 17.7148 10.647L17.6454 10.7161ZM7.80686 13.8256C7.80698 13.8257 7.80679 13.8256 7.80686 13.8256L7.75224 13.9069C7.7521 13.9068 7.75233 13.907 7.75224 13.9069L7.80686 13.8256Z" fill="#E46157"/>
</g>
<path d="M18.3365 13.1641C18.4183 12.8503 18.5049 12.5413 18.548 12.2206C18.6783 11.2448 18.5221 10.3096 18.1847 9.39649C18.1568 9.3206 18.123 9.24519 18.0799 9.17714C17.9125 8.91519 17.6153 8.90589 17.4415 9.16539C17.3661 9.27849 17.3156 9.41118 17.2686 9.53995C16.9455 10.4262 16.5176 11.2492 15.8453 11.9264C15.5016 12.272 15.1207 12.5712 14.6736 12.8459C14.7515 12.5335 14.8925 12.275 15.01 12.0253C15.4712 11.046 15.7072 10.0129 15.8502 8.9524C15.9706 8.05982 15.9883 7.16038 15.7523 6.28689C15.3224 4.69317 14.3818 3.54353 12.7269 3.13861C11.0548 2.72978 9.65107 3.23458 8.52885 4.53061C8.22039 4.88706 7.9369 5.26505 7.62941 5.62247C7.11678 6.21932 6.48565 6.65019 5.75367 6.93956C5.53236 7.02671 5.3086 7.01741 5.08239 7.01937C4.88703 7.02084 4.6902 7.02133 4.5066 7.09673C3.94842 7.32587 3.82357 8.01918 4.27256 8.49411C4.70147 8.94799 5.266 9.12573 5.86824 9.22316C6.60267 9.34214 7.28178 9.10418 7.97117 8.9289C8.62384 8.76292 9.27406 8.58616 9.92526 8.4143C10.0418 8.38346 10.1931 8.3296 10.2651 8.42459C10.3287 8.50831 10.2337 8.63953 10.1804 8.73843C10.0217 9.03319 9.77201 9.23834 9.49929 9.42195C8.805 9.88905 8.06567 10.2886 7.41643 10.8218C6.17572 11.8407 5.34287 13.1069 5.14555 14.7251C4.91641 16.6042 5.49808 18.2445 6.73732 19.6482C7.55254 20.5717 8.54452 21.2708 9.72598 21.639C12.0022 22.3485 14.1267 22.0214 16.0441 20.5756C18.0094 19.093 19.0313 17.0689 19.353 14.6629C19.4088 14.2452 19.4328 13.8193 19.3755 13.3962C19.3055 12.8782 19.0029 12.747 18.5818 13.0491C18.5226 13.0917 18.4614 13.1308 18.3992 13.169C18.3889 13.1754 18.3703 13.1675 18.3365 13.1641ZM7.21911 7.0365C7.23625 7.01692 7.26334 6.98553 7.28048 6.96595C7.79801 6.55516 8.30754 6.15714 8.72617 5.60435C8.84025 6.54982 9.34408 7.1922 10.196 7.58684C10.0237 7.65735 9.8856 7.69798 9.74557 7.72883C8.66742 7.96777 7.60493 8.27917 6.51258 8.45592C5.98918 8.54063 5.50053 8.44858 5.05742 8.14893C4.83268 7.99714 4.81163 7.84242 4.98887 7.66567C5.11618 7.59957 5.25621 7.6172 5.39135 7.60202C5.63616 7.5746 5.88146 7.54816 6.12529 7.51536C6.51454 7.46297 6.83965 7.2539 7.17602 7.07371C7.19022 7.06098 7.20491 7.04923 7.21911 7.0365ZM13.768 12.4742C13.8414 12.5232 13.8302 12.57 13.8169 12.5966C13.698 12.8346 13.674 12.8762 13.5477 13.1107C13.4987 13.1842 13.4253 13.1678 13.3763 13.1352C13.156 12.9883 13.1315 12.9738 12.9051 12.8429C12.397 12.5492 11.9082 12.2148 11.424 11.8789C11.352 11.8289 11.3177 11.7692 11.3055 11.6806C11.2512 11.2879 11.1885 10.8962 11.1243 10.4737C11.4607 10.7209 11.7711 10.9594 12.0918 11.1831C12.6784 11.5915 13.227 12.0066 13.768 12.4742ZM17.6799 10.6813C17.7618 10.763 17.7509 10.8493 17.7602 10.928C17.8875 11.9841 17.6926 12.9678 17.1952 13.8942C17.134 14.0087 17.0483 14.139 16.9734 14.2384C16.779 14.4817 15.3376 16.1146 15.4815 16.2199C15.644 16.3713 17.5195 15.0184 17.6603 14.8245C17.9384 14.588 18.1676 14.2203 18.4633 14.0043C18.4991 13.9779 18.5387 13.9231 18.5872 13.9681C18.6112 13.9901 18.619 14.0425 18.6156 14.0797C18.5857 14.4034 18.5705 14.7295 18.5152 15.0487C18.3497 16.0025 17.9913 16.8907 17.5046 17.7206C16.5778 19.3011 15.294 20.4576 13.4907 20.9496C12.696 21.1665 11.8842 21.147 11.069 21.0716C10.1892 20.9903 9.39695 20.6985 8.68455 20.1775C8.58026 20.1011 8.53913 20.0233 8.5455 19.8955C8.56802 19.4225 8.62139 18.9549 8.7717 18.504C8.92936 18.0315 9.12521 17.5766 9.34016 17.1252C9.60749 16.5646 9.9419 16.0622 10.3698 15.6216C11.1121 14.8563 12.061 14.4822 13.0745 14.2555C13.6479 14.1272 14.2193 13.9676 14.7402 13.7218C15.6299 13.3027 16.3716 12.6686 16.9631 11.8661C17.2372 11.4941 17.4714 11.1008 17.6799 10.6813ZM14.09 12.1859C13.1107 11.3976 12.0958 10.7665 11.1532 10.0359C10.9745 9.89737 10.8683 9.4053 10.9642 9.19623C11.1052 8.89022 11.2091 8.57882 11.1474 8.23118C11.0499 7.68379 10.715 7.31804 10.2406 7.08449C9.57322 6.75595 9.23244 6.2296 9.14235 5.50104C9.1164 5.29295 9.15165 5.14558 9.27602 4.98939C10.0947 3.96167 11.4999 3.53716 12.7734 4.00084C14.1791 4.51298 14.8881 5.60925 15.0634 7.04385C15.2827 8.8393 14.75 10.507 14.09 12.1859ZM8.98469 14.2384C9.37296 13.5456 9.75536 12.8576 10.2043 12.2104C10.2406 12.158 10.2866 12.0664 10.3243 12.0684C10.6098 12.084 10.9148 12.0106 11.1753 12.1633C11.448 12.3235 11.6982 12.5218 11.9729 12.7132C10.9358 13.1612 9.96981 13.7135 8.98469 14.2384ZM7.77973 13.8663C7.77983 13.8664 7.77962 13.8662 7.77973 13.8663C7.77101 13.8605 7.7615 13.8544 7.7528 13.8486C7.99565 12.9262 8.23899 12.0037 8.48136 11.0813C8.49507 11.0299 8.52787 10.998 8.57194 10.9736C8.80402 10.8448 9.01994 10.6857 9.29169 10.5833C9.36268 10.8938 9.42927 11.1929 9.50075 11.4911C9.5267 11.5983 9.48753 11.6762 9.42241 11.757C9.20894 12.0233 8.99987 12.2931 8.79031 12.5624C8.45302 12.9966 8.11653 13.4321 7.77973 13.8663ZM10.5368 9.66382C10.6049 9.90863 10.6636 10.1177 10.7214 10.3273C10.741 10.3987 10.7424 10.4453 10.6386 10.4482C10.3307 10.4575 10.0232 10.4781 9.7157 10.4991C9.65303 10.5035 9.60553 10.504 9.58007 10.4355C9.54923 10.3522 9.61973 10.3405 9.6638 10.3145C9.96443 10.1358 10.2318 9.91108 10.5368 9.66382Z" fill="#E46157"/>
<path d="M14.0899 12.186C13.1106 11.3977 12.0957 10.7666 11.1531 10.036C10.9744 9.89746 10.8682 9.40539 10.9641 9.19632C11.1051 8.89031 11.209 8.57891 11.1473 8.23127C11.0498 7.68388 10.7149 7.31813 10.2405 7.08458C9.57315 6.75604 9.23237 6.22969 9.14228 5.50113C9.11633 5.29304 9.15158 5.14567 9.27595 4.98948C10.0946 3.96176 11.4998 3.53725 12.7733 4.00093C14.179 4.51307 14.888 5.60934 15.0633 7.04394C15.2826 8.83939 14.7499 10.5071 14.0899 12.186Z" fill="#F9695E"/>
<path d="M17.7603 10.928C17.751 10.8493 17.7622 10.7633 17.6803 10.6816C17.4718 11.1011 17.2373 11.4941 16.9632 11.8661C16.3717 12.6686 15.63 13.3027 14.7403 13.7218C14.2194 13.9676 13.648 14.1272 13.0746 14.2555C12.0611 14.4822 11.1122 14.8563 10.3699 15.6216C9.94196 16.0622 9.60755 16.5646 9.34022 17.1252C9.12527 17.5766 8.92942 18.0315 8.77176 18.504C8.62145 18.9549 8.56808 19.4225 8.54556 19.8955C8.53919 20.0233 8.58032 20.1011 8.68461 20.1775C9.39701 20.6985 10.1893 20.9903 11.0691 21.0716C11.8843 21.147 12.6961 21.1665 13.4908 20.9496C15.2941 20.4576 16.5779 19.3011 17.5047 17.7206C17.9914 16.8907 18.3498 16.0025 18.5153 15.0487C18.5706 14.7295 18.5858 14.4034 18.6157 14.0797C18.6191 14.0425 18.6113 13.9901 18.5873 13.9681C18.5388 13.9231 18.4992 13.9779 18.4634 14.0043C18.1677 14.2203 17.9385 14.588 17.6604 14.8245C17.5196 15.0184 15.6441 16.3713 15.4816 16.2199C15.3377 16.1146 16.7791 14.4817 16.9735 14.2384C17.0484 14.139 17.1341 14.0087 17.1953 13.8942C17.6927 12.9678 17.8876 11.9841 17.7603 10.928Z" fill="#F9695E"/>
<path d="M13.768 12.4741C13.8414 12.5231 13.8302 12.5699 13.8169 12.5965C13.698 12.8345 13.674 12.8761 13.5477 13.1106C13.4987 13.1841 13.4253 13.1677 13.3763 13.1351C13.156 12.9882 13.1315 12.9737 12.9051 12.8428C12.397 12.5491 11.9082 12.2147 11.424 11.8788C11.352 11.8288 11.3177 11.7691 11.3055 11.6805C11.2512 11.2878 11.1885 10.8961 11.1243 10.4736C11.4607 10.7208 11.7711 10.9593 12.0918 11.183C12.6784 11.5914 13.227 12.0065 13.768 12.4741Z" fill="#F9695E"/>
<path d="M8.98462 14.2383C9.37289 13.5455 9.75529 12.8575 10.2042 12.2103C10.2405 12.1579 10.2865 12.0663 10.3242 12.0683C10.6097 12.0839 10.9147 12.0105 11.1752 12.1632C11.4479 12.3234 11.6981 12.5217 11.9728 12.7131C10.9357 13.1611 9.96974 13.7134 8.98462 14.2383Z" fill="#F9695E"/>
<path d="M7.75269 13.8488C7.76139 13.8546 7.77058 13.8604 7.7793 13.8662C8.1161 13.432 8.45291 12.9968 8.7902 12.5626C8.99976 12.2933 9.20883 12.0235 9.4223 11.7572C9.48742 11.6764 9.52659 11.5985 9.50064 11.4913C9.42916 11.1931 9.36257 10.894 9.29158 10.5835C9.01983 10.6859 8.80391 10.845 8.57183 10.9738C8.52776 10.9982 8.49496 11.0301 8.48125 11.0815C8.23888 12.0039 7.99554 12.9264 7.75269 13.8488Z" fill="#F9695E"/>
<path d="M10.5368 9.66406C10.6049 9.90887 10.6636 10.1179 10.7214 10.3275C10.741 10.3989 10.7424 10.4455 10.6386 10.4484C10.3307 10.4577 10.0232 10.4783 9.71571 10.4993C9.65304 10.5037 9.60554 10.5042 9.58008 10.4357C9.54924 10.3524 9.61974 10.3407 9.66381 10.3147C9.96444 10.136 10.2318 9.91132 10.5368 9.66406Z" fill="#F9695E"/>
<path d="M7.21919 7.03664C7.23633 7.01706 7.26342 6.98567 7.28056 6.96609C7.79809 6.5553 8.30762 6.15728 8.72625 5.60449C8.84033 6.54996 9.34416 7.19234 10.1961 7.58698C10.0238 7.65749 9.88568 7.69812 9.74565 7.72897C8.6675 7.96791 7.60501 8.27931 6.51266 8.45606C5.98926 8.54077 5.50061 8.44872 5.0575 8.14907C4.83276 7.99728 4.81171 7.84256 4.98895 7.66581C5.11626 7.59971 5.25629 7.61734 5.39143 7.60216C5.63624 7.57474 5.88154 7.5483 6.12537 7.5155C6.51462 7.46311 6.83973 7.25404 7.1761 7.07385C7.1903 7.06112 7.20499 7.04937 7.21919 7.03664Z" fill="#F9695E"/>
</svg>
