<svg xmlns="http://www.w3.org/2000/svg" viewBox="0 0 16 16"><path fill="#FF5252" d="M12.564 8.49c.06-.232.124-.46.156-.696.096-.719-.02-1.408-.268-2.08a.858.858 0 0 0-.077-.162c-.124-.193-.343-.2-.47-.01a1.297 1.297 0 0 0-.128.277c-.238.653-.553 1.26-1.049 1.758a4.566 4.566 0 0 1-.863.678c.057-.23.161-.42.248-.605.34-.721.513-1.483.619-2.264.088-.658.102-1.32-.072-1.964-.317-1.174-1.01-2.022-2.23-2.32-1.232-.301-2.266.07-3.093 1.026-.227.262-.436.541-.663.804-.377.44-.842.758-1.382.97-.163.065-.328.058-.494.06-.144 0-.29.001-.425.057-.411.168-.503.68-.172 1.03.316.334.732.465 1.176.536.54.088 1.041-.087 1.55-.216.48-.123.96-.253 1.439-.38.086-.022.197-.062.25.008.047.062-.023.158-.062.231-.117.218-.301.369-.502.504-.511.344-1.056.639-1.535 1.031-.914.751-1.528 1.684-1.673 2.877-.169 1.384.26 2.593 1.173 3.627.6.68 1.332 1.196 2.202 1.467 1.677.523 3.243.282 4.656-.784 1.448-1.092 2.2-2.583 2.438-4.356a3.5 3.5 0 0 0 .016-.934c-.051-.381-.274-.478-.585-.255-.043.031-.088.06-.134.088-.008.005-.021-.001-.046-.004Z"/></svg>