<svg width="24" height="24" viewBox="0 0 24 24" fill="none" xmlns="http://www.w3.org/2000/svg">
<mask id="path-1-outside-1_2945_74563" maskUnits="userSpaceOnUse" x="3" y="2" width="17" height="21" fill="black">
<rect fill="white" x="3" y="2" width="17" height="21"/>
<path d="M18.3365 13.1641C18.4183 12.8503 18.5049 12.5413 18.548 12.2206C18.6783 11.2448 18.5221 10.3096 18.1847 9.39649C18.1568 9.3206 18.123 9.24519 18.0799 9.17714C17.9125 8.91519 17.6153 8.90589 17.4415 9.16539C17.3661 9.27849 17.3156 9.41118 17.2686 9.53995C16.9455 10.4262 16.5176 11.2492 15.8453 11.9264C15.5016 12.272 15.1207 12.5712 14.6736 12.8459C14.7515 12.5335 14.8925 12.275 15.01 12.0253C15.4712 11.046 15.7072 10.0129 15.8502 8.9524C15.9706 8.05982 15.9883 7.16038 15.7523 6.28689C15.3224 4.69317 14.3818 3.54353 12.7269 3.13861C11.0548 2.72978 9.65107 3.23458 8.52885 4.53061C8.22039 4.88706 7.9369 5.26505 7.62941 5.62247C7.11678 6.21932 6.48565 6.65019 5.75367 6.93956C5.53236 7.02671 5.3086 7.01741 5.08239 7.01937C4.88703 7.02084 4.6902 7.02133 4.5066 7.09673C3.94842 7.32587 3.82357 8.01918 4.27256 8.49411C4.70147 8.94799 5.266 9.12573 5.86824 9.22316C6.60267 9.34214 7.28178 9.10418 7.97117 8.9289C8.62384 8.76292 9.27406 8.58616 9.92526 8.4143C10.0418 8.38346 10.1931 8.3296 10.2651 8.42459C10.3287 8.50831 10.2337 8.63953 10.1804 8.73843C10.0217 9.03319 9.77201 9.23834 9.49929 9.42195C8.805 9.88905 8.06567 10.2886 7.41643 10.8218C6.17572 11.8407 5.34287 13.1069 5.14555 14.7251C4.91641 16.6042 5.49808 18.2445 6.73732 19.6482C7.55254 20.5717 8.54452 21.2708 9.72598 21.639C12.0022 22.3485 14.1267 22.0214 16.0441 20.5756C18.0094 19.093 19.0313 17.0689 19.353 14.6629C19.4088 14.2452 19.4328 13.8193 19.3755 13.3962C19.3055 12.8782 19.0029 12.747 18.5818 13.0491C18.5226 13.0917 18.4614 13.1308 18.3992 13.169C18.3889 13.1754 18.3703 13.1671 18.3365 13.1637V13.1641ZM7.21911 7.0365C7.23625 7.01692 7.26334 6.98553 7.28048 6.96595C7.79801 6.55516 8.30754 6.15714 8.72617 5.60435C8.84025 6.54982 9.34408 7.1922 10.196 7.58684C10.0237 7.65735 9.8856 7.69798 9.74557 7.72883C8.66742 7.96777 7.60493 8.27917 6.51258 8.45592C5.98918 8.54063 5.50053 8.44858 5.05742 8.14893C4.83268 7.99714 4.81163 7.84242 4.98887 7.66567C5.11618 7.59957 5.25621 7.6172 5.39135 7.60202C5.63616 7.5746 5.88146 7.54816 6.12529 7.51536C6.51454 7.46297 6.83965 7.2539 7.17602 7.07371C7.19022 7.06098 7.20442 7.04874 7.21862 7.03601L7.21911 7.0365ZM13.768 12.4742C13.8414 12.5232 13.8302 12.57 13.8169 12.5966C13.698 12.8346 13.674 12.8762 13.5477 13.1107C13.4987 13.1842 13.4253 13.1678 13.3763 13.1352C13.156 12.9883 13.1315 12.9738 12.9051 12.8429C12.397 12.5492 11.9082 12.2148 11.424 11.8789C11.352 11.8289 11.3177 11.7692 11.3055 11.6806C11.2512 11.2879 11.1885 10.8962 11.1243 10.4737C11.4607 10.7209 11.7711 10.9594 12.0918 11.1831C12.6784 11.5915 13.227 12.0066 13.768 12.4742ZM17.6799 10.6813C17.68 10.6814 17.6801 10.6815 17.6802 10.6816C17.7621 10.7633 17.7509 10.8493 17.7602 10.928C17.8875 11.9841 17.6926 12.9678 17.1952 13.8942C17.134 14.0087 17.0483 14.139 16.9734 14.2384C16.779 14.4817 15.3376 16.1146 15.4815 16.2199C15.644 16.3713 17.5195 15.0184 17.6603 14.8245C17.9384 14.588 18.1676 14.2203 18.4633 14.0043C18.4991 13.9779 18.5387 13.9231 18.5872 13.9681C18.6112 13.9901 18.619 14.0425 18.6156 14.0797C18.5857 14.4034 18.5705 14.7295 18.5152 15.0487C18.3497 16.0025 17.9913 16.8907 17.5046 17.7206C16.5778 19.3011 15.294 20.4576 13.4907 20.9496C12.696 21.1665 11.8842 21.147 11.069 21.0716C10.1892 20.9903 9.39695 20.6985 8.68455 20.1775C8.58026 20.1011 8.53913 20.0233 8.5455 19.8955C8.56802 19.4225 8.62139 18.9549 8.7717 18.504C8.92936 18.0315 9.12521 17.5766 9.34016 17.1252C9.60749 16.5646 9.9419 16.0622 10.3698 15.6216C11.1121 14.8563 12.061 14.4822 13.0745 14.2555C13.6479 14.1272 14.2193 13.9676 14.7402 13.7218C15.6299 13.3027 16.3716 12.6686 16.9631 11.8661C17.2372 11.4941 17.4717 11.1011 17.6802 10.6816C17.6803 10.6815 17.6804 10.6814 17.6804 10.6813H17.6799ZM14.09 12.1859C13.1107 11.3976 12.0958 10.7665 11.1532 10.0359C10.9745 9.89737 10.8683 9.4053 10.9642 9.19623C11.1052 8.89022 11.2091 8.57882 11.1474 8.23118C11.0499 7.68379 10.715 7.31804 10.2406 7.08449C9.57322 6.75595 9.23244 6.2296 9.14235 5.50104C9.1164 5.29295 9.15165 5.14558 9.27602 4.98939C10.0947 3.96167 11.4999 3.53716 12.7734 4.00084C14.1791 4.51298 14.8881 5.60925 15.0634 7.04385C15.2827 8.8393 14.7495 10.5065 14.0895 12.1854L14.09 12.1859ZM8.98469 14.2384C9.37296 13.5456 9.75536 12.8576 10.2043 12.2104C10.2406 12.158 10.2866 12.0664 10.3243 12.0684C10.6098 12.084 10.9148 12.0106 11.1753 12.1633C11.448 12.3235 11.6982 12.5218 11.9729 12.7132C10.9358 13.1612 9.9703 13.7135 8.98518 14.2384H8.98469ZM7.77973 13.8663C7.77962 13.8662 7.77951 13.8661 7.77941 13.866C7.77069 13.8602 7.7615 13.8544 7.7528 13.8486C7.99565 12.9262 8.23899 12.0037 8.48136 11.0813C8.49507 11.0299 8.52787 10.998 8.57194 10.9736C8.80402 10.8448 9.01994 10.6857 9.29169 10.5833C9.36268 10.8938 9.42927 11.1929 9.50075 11.4911C9.5267 11.5983 9.48753 11.6762 9.42241 11.757C9.20894 12.0233 8.99987 12.2931 8.79031 12.5624C8.45302 12.9966 8.11621 13.4318 7.77941 13.866L7.77924 13.8663H7.77973ZM10.5368 9.66382C10.6049 9.90863 10.6636 10.1177 10.7214 10.3273C10.741 10.3987 10.7424 10.4453 10.6386 10.4482C10.3307 10.4575 10.0232 10.4781 9.7157 10.4991C9.65303 10.5035 9.60553 10.504 9.58007 10.4355C9.54923 10.3522 9.61973 10.3405 9.6638 10.3145C9.96443 10.1358 10.2318 9.91157 10.5368 9.66431V9.66382Z"/>
<path d="M14.09 12.1859C13.1107 11.3976 12.0958 10.7665 11.1532 10.0359C10.9745 9.89737 10.8683 9.4053 10.9642 9.19623C11.1052 8.89022 11.2091 8.57882 11.1474 8.23118C11.0499 7.68379 10.715 7.31804 10.2406 7.08449C9.57322 6.75595 9.23244 6.2296 9.14235 5.50104C9.1164 5.29295 9.15165 5.14558 9.27602 4.98939C10.0947 3.96167 11.4999 3.53716 12.7734 4.00084C14.1791 4.51298 14.8881 5.60925 15.0634 7.04385C15.2827 8.8393 14.7495 10.5065 14.0895 12.1854L14.09 12.1859Z"/>
<path d="M17.7602 10.928C17.7509 10.8493 17.7621 10.7633 17.6802 10.6816C17.4717 11.1011 17.2372 11.4941 16.9631 11.8661C16.3716 12.6686 15.6299 13.3027 14.7402 13.7218C14.2193 13.9676 13.6479 14.1272 13.0745 14.2555C12.061 14.4822 11.1121 14.8563 10.3698 15.6216C9.9419 16.0622 9.60749 16.5646 9.34016 17.1252C9.12521 17.5766 8.92936 18.0315 8.7717 18.504C8.62139 18.9549 8.56802 19.4225 8.5455 19.8955C8.53913 20.0233 8.58026 20.1011 8.68455 20.1775C9.39695 20.6985 10.1892 20.9903 11.069 21.0716C11.8842 21.147 12.696 21.1665 13.4907 20.9496C15.294 20.4576 16.5778 19.3011 17.5046 17.7206C17.9913 16.8907 18.3497 16.0025 18.5152 15.0487C18.5705 14.7295 18.5857 14.4034 18.6156 14.0797C18.619 14.0425 18.6112 13.9901 18.5872 13.9681C18.5387 13.9231 18.4991 13.9779 18.4633 14.0043C18.1676 14.2203 17.9384 14.588 17.6603 14.8245C17.5195 15.0184 15.644 16.3713 15.4815 16.2199C15.3376 16.1146 16.779 14.4817 16.9734 14.2384C17.0483 14.139 17.134 14.0087 17.1952 13.8942C17.6926 12.9678 17.8875 11.9841 17.7602 10.928Z"/>
<path d="M13.768 12.4742C13.8414 12.5232 13.8302 12.57 13.8169 12.5966C13.698 12.8346 13.674 12.8762 13.5477 13.1107C13.4987 13.1842 13.4253 13.1678 13.3763 13.1352C13.156 12.9883 13.1315 12.9738 12.9051 12.8429C12.397 12.5492 11.9082 12.2148 11.424 11.8789C11.352 11.8289 11.3177 11.7692 11.3055 11.6806C11.2512 11.2879 11.1885 10.8962 11.1243 10.4737C11.4607 10.7209 11.7711 10.9594 12.0918 11.1831C12.6784 11.5915 13.227 12.0066 13.768 12.4742Z"/>
<path d="M8.98469 14.2384C9.37296 13.5456 9.75536 12.8576 10.2043 12.2104C10.2406 12.158 10.2866 12.0664 10.3243 12.0684C10.6098 12.084 10.9148 12.0106 11.1753 12.1633C11.448 12.3235 11.6982 12.5218 11.9729 12.7132C10.9358 13.1612 9.9703 13.7135 8.98518 14.2384H8.98469Z"/>
<path d="M7.7528 13.8486C7.7615 13.8544 7.77069 13.8602 7.77941 13.866C8.11621 13.4318 8.45302 12.9966 8.79031 12.5624C8.99987 12.2931 9.20894 12.0233 9.42241 11.757C9.48753 11.6762 9.5267 11.5983 9.50075 11.4911C9.42927 11.1929 9.36268 10.8938 9.29169 10.5833C9.01994 10.6857 8.80402 10.8448 8.57194 10.9736C8.52787 10.998 8.49507 11.0299 8.48136 11.0813C8.23899 12.0037 7.99565 12.9262 7.7528 13.8486Z"/>
<path d="M10.5368 9.66382C10.6049 9.90863 10.6636 10.1177 10.7214 10.3273C10.741 10.3987 10.7424 10.4453 10.6386 10.4482C10.3307 10.4575 10.0232 10.4781 9.7157 10.4991C9.65303 10.5035 9.60553 10.504 9.58007 10.4355C9.54923 10.3522 9.61973 10.3405 9.6638 10.3145C9.96443 10.1358 10.2318 9.91157 10.5368 9.66431V9.66382Z"/>
<path d="M7.21911 7.0365C7.23625 7.01692 7.26334 6.98553 7.28048 6.96595C7.79801 6.55516 8.30754 6.15714 8.72617 5.60435C8.84025 6.54982 9.34408 7.1922 10.196 7.58684C10.0237 7.65735 9.8856 7.69798 9.74557 7.72883C8.66742 7.96777 7.60493 8.27917 6.51258 8.45592C5.98918 8.54063 5.50053 8.44858 5.05742 8.14893C4.83268 7.99714 4.81163 7.84242 4.98887 7.66567C5.11618 7.59957 5.25621 7.6172 5.39135 7.60202C5.63616 7.5746 5.88146 7.54816 6.12529 7.51536C6.51454 7.46297 6.83965 7.2539 7.17602 7.07371C7.19022 7.06098 7.20442 7.04874 7.21862 7.03601L7.21911 7.0365Z"/>
</mask>
<path d="M18.3365 13.1641C18.4183 12.8503 18.5049 12.5413 18.548 12.2206C18.6783 11.2448 18.5221 10.3096 18.1847 9.39649C18.1568 9.3206 18.123 9.24519 18.0799 9.17714C17.9125 8.91519 17.6153 8.90589 17.4415 9.16539C17.3661 9.27849 17.3156 9.41118 17.2686 9.53995C16.9455 10.4262 16.5176 11.2492 15.8453 11.9264C15.5016 12.272 15.1207 12.5712 14.6736 12.8459C14.7515 12.5335 14.8925 12.275 15.01 12.0253C15.4712 11.046 15.7072 10.0129 15.8502 8.9524C15.9706 8.05982 15.9883 7.16038 15.7523 6.28689C15.3224 4.69317 14.3818 3.54353 12.7269 3.13861C11.0548 2.72978 9.65107 3.23458 8.52885 4.53061C8.22039 4.88706 7.9369 5.26505 7.62941 5.62247C7.11678 6.21932 6.48565 6.65019 5.75367 6.93956C5.53236 7.02671 5.3086 7.01741 5.08239 7.01937C4.88703 7.02084 4.6902 7.02133 4.5066 7.09673C3.94842 7.32587 3.82357 8.01918 4.27256 8.49411C4.70147 8.94799 5.266 9.12573 5.86824 9.22316C6.60267 9.34214 7.28178 9.10418 7.97117 8.9289C8.62384 8.76292 9.27406 8.58616 9.92526 8.4143C10.0418 8.38346 10.1931 8.3296 10.2651 8.42459C10.3287 8.50831 10.2337 8.63953 10.1804 8.73843C10.0217 9.03319 9.77201 9.23834 9.49929 9.42195C8.805 9.88905 8.06567 10.2886 7.41643 10.8218C6.17572 11.8407 5.34287 13.1069 5.14555 14.7251C4.91641 16.6042 5.49808 18.2445 6.73732 19.6482C7.55254 20.5717 8.54452 21.2708 9.72598 21.639C12.0022 22.3485 14.1267 22.0214 16.0441 20.5756C18.0094 19.093 19.0313 17.0689 19.353 14.6629C19.4088 14.2452 19.4328 13.8193 19.3755 13.3962C19.3055 12.8782 19.0029 12.747 18.5818 13.0491C18.5226 13.0917 18.4614 13.1308 18.3992 13.169C18.3889 13.1754 18.3703 13.1671 18.3365 13.1637V13.1641ZM7.21911 7.0365C7.23625 7.01692 7.26334 6.98553 7.28048 6.96595C7.79801 6.55516 8.30754 6.15714 8.72617 5.60435C8.84025 6.54982 9.34408 7.1922 10.196 7.58684C10.0237 7.65735 9.8856 7.69798 9.74557 7.72883C8.66742 7.96777 7.60493 8.27917 6.51258 8.45592C5.98918 8.54063 5.50053 8.44858 5.05742 8.14893C4.83268 7.99714 4.81163 7.84242 4.98887 7.66567C5.11618 7.59957 5.25621 7.6172 5.39135 7.60202C5.63616 7.5746 5.88146 7.54816 6.12529 7.51536C6.51454 7.46297 6.83965 7.2539 7.17602 7.07371C7.19022 7.06098 7.20442 7.04874 7.21862 7.03601L7.21911 7.0365ZM13.768 12.4742C13.8414 12.5232 13.8302 12.57 13.8169 12.5966C13.698 12.8346 13.674 12.8762 13.5477 13.1107C13.4987 13.1842 13.4253 13.1678 13.3763 13.1352C13.156 12.9883 13.1315 12.9738 12.9051 12.8429C12.397 12.5492 11.9082 12.2148 11.424 11.8789C11.352 11.8289 11.3177 11.7692 11.3055 11.6806C11.2512 11.2879 11.1885 10.8962 11.1243 10.4737C11.4607 10.7209 11.7711 10.9594 12.0918 11.1831C12.6784 11.5915 13.227 12.0066 13.768 12.4742ZM17.6799 10.6813C17.68 10.6814 17.6801 10.6815 17.6802 10.6816C17.7621 10.7633 17.7509 10.8493 17.7602 10.928C17.8875 11.9841 17.6926 12.9678 17.1952 13.8942C17.134 14.0087 17.0483 14.139 16.9734 14.2384C16.779 14.4817 15.3376 16.1146 15.4815 16.2199C15.644 16.3713 17.5195 15.0184 17.6603 14.8245C17.9384 14.588 18.1676 14.2203 18.4633 14.0043C18.4991 13.9779 18.5387 13.9231 18.5872 13.9681C18.6112 13.9901 18.619 14.0425 18.6156 14.0797C18.5857 14.4034 18.5705 14.7295 18.5152 15.0487C18.3497 16.0025 17.9913 16.8907 17.5046 17.7206C16.5778 19.3011 15.294 20.4576 13.4907 20.9496C12.696 21.1665 11.8842 21.147 11.069 21.0716C10.1892 20.9903 9.39695 20.6985 8.68455 20.1775C8.58026 20.1011 8.53913 20.0233 8.5455 19.8955C8.56802 19.4225 8.62139 18.9549 8.7717 18.504C8.92936 18.0315 9.12521 17.5766 9.34016 17.1252C9.60749 16.5646 9.9419 16.0622 10.3698 15.6216C11.1121 14.8563 12.061 14.4822 13.0745 14.2555C13.6479 14.1272 14.2193 13.9676 14.7402 13.7218C15.6299 13.3027 16.3716 12.6686 16.9631 11.8661C17.2372 11.4941 17.4717 11.1011 17.6802 10.6816C17.6803 10.6815 17.6804 10.6814 17.6804 10.6813H17.6799ZM14.09 12.1859C13.1107 11.3976 12.0958 10.7665 11.1532 10.0359C10.9745 9.89737 10.8683 9.4053 10.9642 9.19623C11.1052 8.89022 11.2091 8.57882 11.1474 8.23118C11.0499 7.68379 10.715 7.31804 10.2406 7.08449C9.57322 6.75595 9.23244 6.2296 9.14235 5.50104C9.1164 5.29295 9.15165 5.14558 9.27602 4.98939C10.0947 3.96167 11.4999 3.53716 12.7734 4.00084C14.1791 4.51298 14.8881 5.60925 15.0634 7.04385C15.2827 8.8393 14.7495 10.5065 14.0895 12.1854L14.09 12.1859ZM8.98469 14.2384C9.37296 13.5456 9.75536 12.8576 10.2043 12.2104C10.2406 12.158 10.2866 12.0664 10.3243 12.0684C10.6098 12.084 10.9148 12.0106 11.1753 12.1633C11.448 12.3235 11.6982 12.5218 11.9729 12.7132C10.9358 13.1612 9.9703 13.7135 8.98518 14.2384H8.98469ZM7.77973 13.8663C7.77962 13.8662 7.77951 13.8661 7.77941 13.866C7.77069 13.8602 7.7615 13.8544 7.7528 13.8486C7.99565 12.9262 8.23899 12.0037 8.48136 11.0813C8.49507 11.0299 8.52787 10.998 8.57194 10.9736C8.80402 10.8448 9.01994 10.6857 9.29169 10.5833C9.36268 10.8938 9.42927 11.1929 9.50075 11.4911C9.5267 11.5983 9.48753 11.6762 9.42241 11.757C9.20894 12.0233 8.99987 12.2931 8.79031 12.5624C8.45302 12.9966 8.11621 13.4318 7.77941 13.866L7.77924 13.8663H7.77973ZM10.5368 9.66382C10.6049 9.90863 10.6636 10.1177 10.7214 10.3273C10.741 10.3987 10.7424 10.4453 10.6386 10.4482C10.3307 10.4575 10.0232 10.4781 9.7157 10.4991C9.65303 10.5035 9.60553 10.504 9.58007 10.4355C9.54923 10.3522 9.61973 10.3405 9.6638 10.3145C9.96443 10.1358 10.2318 9.91157 10.5368 9.66431V9.66382Z" fill="#4E342E"/>
<path d="M14.09 12.1859C13.1107 11.3976 12.0958 10.7665 11.1532 10.0359C10.9745 9.89737 10.8683 9.4053 10.9642 9.19623C11.1052 8.89022 11.2091 8.57882 11.1474 8.23118C11.0499 7.68379 10.715 7.31804 10.2406 7.08449C9.57322 6.75595 9.23244 6.2296 9.14235 5.50104C9.1164 5.29295 9.15165 5.14558 9.27602 4.98939C10.0947 3.96167 11.4999 3.53716 12.7734 4.00084C14.1791 4.51298 14.8881 5.60925 15.0634 7.04385C15.2827 8.8393 14.7495 10.5065 14.0895 12.1854L14.09 12.1859Z" fill="#4E342E"/>
<path d="M17.7602 10.928C17.7509 10.8493 17.7621 10.7633 17.6802 10.6816C17.4717 11.1011 17.2372 11.4941 16.9631 11.8661C16.3716 12.6686 15.6299 13.3027 14.7402 13.7218C14.2193 13.9676 13.6479 14.1272 13.0745 14.2555C12.061 14.4822 11.1121 14.8563 10.3698 15.6216C9.9419 16.0622 9.60749 16.5646 9.34016 17.1252C9.12521 17.5766 8.92936 18.0315 8.7717 18.504C8.62139 18.9549 8.56802 19.4225 8.5455 19.8955C8.53913 20.0233 8.58026 20.1011 8.68455 20.1775C9.39695 20.6985 10.1892 20.9903 11.069 21.0716C11.8842 21.147 12.696 21.1665 13.4907 20.9496C15.294 20.4576 16.5778 19.3011 17.5046 17.7206C17.9913 16.8907 18.3497 16.0025 18.5152 15.0487C18.5705 14.7295 18.5857 14.4034 18.6156 14.0797C18.619 14.0425 18.6112 13.9901 18.5872 13.9681C18.5387 13.9231 18.4991 13.9779 18.4633 14.0043C18.1676 14.2203 17.9384 14.588 17.6603 14.8245C17.5195 15.0184 15.644 16.3713 15.4815 16.2199C15.3376 16.1146 16.779 14.4817 16.9734 14.2384C17.0483 14.139 17.134 14.0087 17.1952 13.8942C17.6926 12.9678 17.8875 11.9841 17.7602 10.928Z" fill="#4E342E"/>
<path d="M13.768 12.4742C13.8414 12.5232 13.8302 12.57 13.8169 12.5966C13.698 12.8346 13.674 12.8762 13.5477 13.1107C13.4987 13.1842 13.4253 13.1678 13.3763 13.1352C13.156 12.9883 13.1315 12.9738 12.9051 12.8429C12.397 12.5492 11.9082 12.2148 11.424 11.8789C11.352 11.8289 11.3177 11.7692 11.3055 11.6806C11.2512 11.2879 11.1885 10.8962 11.1243 10.4737C11.4607 10.7209 11.7711 10.9594 12.0918 11.1831C12.6784 11.5915 13.227 12.0066 13.768 12.4742Z" fill="#4E342E"/>
<path d="M8.98469 14.2384C9.37296 13.5456 9.75536 12.8576 10.2043 12.2104C10.2406 12.158 10.2866 12.0664 10.3243 12.0684C10.6098 12.084 10.9148 12.0106 11.1753 12.1633C11.448 12.3235 11.6982 12.5218 11.9729 12.7132C10.9358 13.1612 9.9703 13.7135 8.98518 14.2384H8.98469Z" fill="#4E342E"/>
<path d="M7.7528 13.8486C7.7615 13.8544 7.77069 13.8602 7.77941 13.866C8.11621 13.4318 8.45302 12.9966 8.79031 12.5624C8.99987 12.2931 9.20894 12.0233 9.42241 11.757C9.48753 11.6762 9.5267 11.5983 9.50075 11.4911C9.42927 11.1929 9.36268 10.8938 9.29169 10.5833C9.01994 10.6857 8.80402 10.8448 8.57194 10.9736C8.52787 10.998 8.49507 11.0299 8.48136 11.0813C8.23899 12.0037 7.99565 12.9262 7.7528 13.8486Z" fill="#4E342E"/>
<path d="M10.5368 9.66382C10.6049 9.90863 10.6636 10.1177 10.7214 10.3273C10.741 10.3987 10.7424 10.4453 10.6386 10.4482C10.3307 10.4575 10.0232 10.4781 9.7157 10.4991C9.65303 10.5035 9.60553 10.504 9.58007 10.4355C9.54923 10.3522 9.61973 10.3405 9.6638 10.3145C9.96443 10.1358 10.2318 9.91157 10.5368 9.66431V9.66382Z" fill="#4E342E"/>
<path d="M7.21911 7.0365C7.23625 7.01692 7.26334 6.98553 7.28048 6.96595C7.79801 6.55516 8.30754 6.15714 8.72617 5.60435C8.84025 6.54982 9.34408 7.1922 10.196 7.58684C10.0237 7.65735 9.8856 7.69798 9.74557 7.72883C8.66742 7.96777 7.60493 8.27917 6.51258 8.45592C5.98918 8.54063 5.50053 8.44858 5.05742 8.14893C4.83268 7.99714 4.81163 7.84242 4.98887 7.66567C5.11618 7.59957 5.25621 7.6172 5.39135 7.60202C5.63616 7.5746 5.88146 7.54816 6.12529 7.51536C6.51454 7.46297 6.83965 7.2539 7.17602 7.07371C7.19022 7.06098 7.20442 7.04874 7.21862 7.03601L7.21911 7.0365Z" fill="#4E342E"/>
<path d="M7.21911 7.0365L7.20181 7.05382L7.22031 7.07231L7.23753 7.05262L7.21911 7.0365ZM7.28048 6.96595L7.265 6.94646L7.26205 6.94983L7.28048 6.96595ZM8.72617 5.60435L8.75048 5.60142L8.74322 5.54129L8.70665 5.58957L8.72617 5.60435ZM10.196 7.58684L10.2053 7.6095L10.2573 7.58823L10.2063 7.56463L10.196 7.58684ZM9.74557 7.72883L9.7403 7.70492L9.74027 7.70493L9.74557 7.72883ZM6.51258 8.45592L6.50867 8.43175L6.50867 8.43175L6.51258 8.45592ZM5.05742 8.14893L5.07114 8.12865L5.07112 8.12864L5.05742 8.14893ZM4.98887 7.66567L4.97705 7.64289L4.97159 7.64833L4.98887 7.66567ZM5.39135 7.60202L5.38862 7.57769L5.38861 7.57769L5.39135 7.60202ZM6.12529 7.51536L6.12855 7.53962L6.12856 7.53962L6.12529 7.51536ZM7.17602 7.07371L7.18792 7.09593L7.19236 7.09194L7.17602 7.07371ZM7.21862 7.03601L7.23592 7.0187L7.21953 7.00232L7.20228 7.01779L7.21862 7.03601ZM13.768 12.4742L13.7519 12.4929L13.7544 12.4946L13.768 12.4742ZM13.8169 12.5966L13.7951 12.5857L13.8169 12.5966ZM13.5477 13.1107L13.5681 13.1244L13.5692 13.1223L13.5477 13.1107ZM13.3763 13.1352L13.3899 13.1148L13.3763 13.1352ZM12.9051 12.8429L12.8929 12.8641L12.9051 12.8429ZM11.424 11.8789L11.41 11.899L11.41 11.899L11.424 11.8789ZM11.3055 11.6806L11.3298 11.6772L11.3298 11.6772L11.3055 11.6806ZM11.1243 10.4737L11.1388 10.4539L11.0913 10.419L11.1001 10.4773L11.1243 10.4737ZM12.0918 11.1831L12.0778 11.2032L12.0779 11.2032L12.0918 11.1831ZM17.7602 10.928L17.7359 10.9309L17.7359 10.931L17.7602 10.928ZM17.1952 13.8942L17.1736 13.8826L17.1736 13.8826L17.1952 13.8942ZM16.9734 14.2384L16.9925 14.2537L16.9929 14.2531L16.9734 14.2384ZM15.4815 16.2199L15.4983 16.2018L15.496 16.2001L15.4815 16.2199ZM17.6603 14.8245L17.644 14.8053L17.6405 14.8101L17.6603 14.8245ZM18.4633 14.0043L18.4778 14.0241L18.4779 14.024L18.4633 14.0043ZM18.5872 13.9681L18.5705 13.986L18.5706 13.9861L18.5872 13.9681ZM18.6156 14.0797L18.64 14.082L18.64 14.082L18.6156 14.0797ZM18.5152 15.0487L18.5393 15.0529L18.5393 15.0529L18.5152 15.0487ZM17.5046 17.7206L17.5258 17.733L17.5258 17.733L17.5046 17.7206ZM13.4907 20.9496L13.4843 20.926L13.4842 20.926L13.4907 20.9496ZM11.069 21.0716L11.0713 21.0472L11.0713 21.0472L11.069 21.0716ZM8.68455 20.1775L8.67009 20.1973L8.6701 20.1973L8.68455 20.1775ZM8.5455 19.8955L8.56995 19.8967L8.56995 19.8966L8.5455 19.8955ZM8.7717 18.504L8.74848 18.4962L8.74848 18.4962L8.7717 18.504ZM9.34016 17.1252L9.31806 17.1147L9.31805 17.1147L9.34016 17.1252ZM10.3698 15.6216L10.3874 15.6386L10.3874 15.6386L10.3698 15.6216ZM13.0745 14.2555L13.0799 14.2794L13.0799 14.2794L13.0745 14.2555ZM14.7402 13.7218L14.7298 13.6997L14.7298 13.6997L14.7402 13.7218ZM16.9631 11.8661L16.9828 11.8807L16.9828 11.8807L16.9631 11.8661ZM14.09 12.1859L14.0746 12.2049L14.1073 12.1686L14.09 12.1859ZM11.1532 10.0359L11.1382 10.0553L11.1382 10.0553L11.1532 10.0359ZM10.9642 9.19623L10.942 9.18599L10.942 9.18602L10.9642 9.19623ZM11.1474 8.23118L11.1715 8.22691L11.1715 8.22689L11.1474 8.23118ZM10.2406 7.08449L10.2298 7.10645L10.2298 7.10645L10.2406 7.08449ZM9.14235 5.50104L9.16665 5.49804L9.16664 5.49801L9.14235 5.50104ZM9.27602 4.98939L9.25687 4.97413L9.25687 4.97414L9.27602 4.98939ZM12.7734 4.00084L12.7818 3.97784L12.7818 3.97783L12.7734 4.00084ZM15.0634 7.04385L15.0877 7.04088L15.0877 7.04088L15.0634 7.04385ZM14.0895 12.1854L14.0667 12.1764L14.0609 12.1914L14.0722 12.2027L14.0895 12.1854ZM8.98469 14.2384L8.96334 14.2264L8.94291 14.2629H8.98469V14.2384ZM10.2043 12.2104L10.2245 12.2243L10.2245 12.2243L10.2043 12.2104ZM10.3243 12.0684L10.3256 12.0439L10.3256 12.0439L10.3243 12.0684ZM11.1753 12.1633L11.1877 12.1422L11.1877 12.1422L11.1753 12.1633ZM11.9729 12.7132L11.9826 12.7357L12.0229 12.7182L11.9869 12.6931L11.9729 12.7132ZM8.98518 14.2384V14.2661L8.99669 14.26L8.98518 14.2384ZM7.7528 13.8486L7.72912 13.8424L7.72467 13.8593L7.73922 13.869L7.7528 13.8486ZM8.48136 11.0813L8.4577 11.075L8.45768 11.0751L8.48136 11.0813ZM8.57194 10.9736L8.56006 10.9522L8.56005 10.9522L8.57194 10.9736ZM9.29169 10.5833L9.31555 10.5779L9.3093 10.5505L9.28306 10.5604L9.29169 10.5833ZM9.50075 11.4911L9.47695 11.4968L9.47696 11.4969L9.50075 11.4911ZM9.42241 11.757L9.40335 11.7416L9.40331 11.7417L9.42241 11.757ZM8.79031 12.5624L8.77099 12.5474L8.77098 12.5474L8.79031 12.5624ZM10.5368 9.66382L10.5604 9.65727L10.5123 9.66382H10.5368ZM10.7214 10.3273L10.745 10.3208L10.745 10.3208L10.7214 10.3273ZM10.6386 10.4482L10.6379 10.4237L10.6379 10.4237L10.6386 10.4482ZM9.7157 10.4991L9.71403 10.4747L9.71398 10.4747L9.7157 10.4991ZM9.58007 10.4355L9.55712 10.444L9.55712 10.444L9.58007 10.4355ZM9.6638 10.3145L9.67622 10.3356L9.67631 10.3356L9.6638 10.3145ZM10.5368 9.66431L10.5522 9.68333L10.5613 9.67598V9.66431H10.5368ZM17.6802 10.6816L17.6975 10.6643L17.6735 10.6402L17.6583 10.6707L17.6802 10.6816ZM7.77941 13.866L7.76584 13.8864L7.78479 13.899L7.79875 13.881L7.77941 13.866ZM7.23753 7.05262C7.24614 7.04279 7.25724 7.03 7.26828 7.01727C7.27935 7.00452 7.29037 6.99182 7.2989 6.98207L7.26205 6.94983C7.25344 6.95967 7.24235 6.97245 7.2313 6.98518C7.22023 6.99794 7.20921 7.01064 7.20069 7.02038L7.23753 7.05262ZM7.2957 6.98512C7.81278 6.57469 8.32487 6.17481 8.74569 5.61913L8.70665 5.58957C8.29022 6.13947 7.78324 6.53562 7.26526 6.94677L7.2957 6.98512ZM8.70187 5.60729C8.81704 6.56176 9.32665 7.21111 10.1857 7.60905L10.2063 7.56463C9.3615 7.1733 8.86347 6.53787 8.75048 5.60142L8.70187 5.60729ZM10.1868 7.56418C10.0157 7.63414 9.87902 7.67437 9.7403 7.70492L9.75083 7.75274C9.89218 7.7216 10.0316 7.68056 10.2053 7.6095L10.1868 7.56418ZM9.74027 7.70493C8.65978 7.94438 7.6003 8.25512 6.50867 8.43175L6.51649 8.48009C7.60957 8.30322 8.67505 7.99115 9.75086 7.75273L9.74027 7.70493ZM6.50867 8.43175C5.9909 8.51555 5.50866 8.42452 5.07114 8.12865L5.04371 8.16921C5.4924 8.47263 5.98745 8.56571 6.51649 8.48009L6.50867 8.43175ZM5.07112 8.12864C4.96065 8.05403 4.90639 7.9826 4.89665 7.91326C4.88702 7.84473 4.91977 7.76916 5.00616 7.683L4.97159 7.64833C4.88074 7.73893 4.83539 7.8291 4.84816 7.92007C4.86082 8.01022 4.92945 8.09204 5.04372 8.16922L5.07112 8.12864ZM5.00016 7.6874C5.05969 7.65649 5.12285 7.64477 5.18924 7.63914C5.22253 7.63632 5.25606 7.63506 5.29044 7.63353C5.32458 7.63201 5.35939 7.63024 5.39408 7.62635L5.38861 7.57769C5.35573 7.58138 5.32237 7.5831 5.28826 7.58461C5.2544 7.58612 5.21963 7.58743 5.1851 7.59036C5.11587 7.59623 5.04536 7.60875 4.97759 7.64394L5.00016 7.6874ZM5.39407 7.62635C5.63873 7.59895 5.88438 7.57247 6.12855 7.53962L6.12203 7.49109C5.87854 7.52385 5.63359 7.55025 5.38862 7.57769L5.39407 7.62635ZM6.12856 7.53962C6.52343 7.48647 6.85373 7.27413 7.18758 7.09529L7.16446 7.05213C6.82557 7.23367 6.50565 7.43946 6.12202 7.49109L6.12856 7.53962ZM7.19236 7.09194C7.19936 7.08567 7.20637 7.0795 7.21349 7.07325C7.22057 7.06702 7.22776 7.0607 7.23496 7.05424L7.20228 7.01779C7.19528 7.02406 7.18827 7.03022 7.18116 7.03648C7.17407 7.04271 7.16688 7.04903 7.15968 7.05549L7.19236 7.09194ZM7.20132 7.05333L7.20181 7.05382L7.23641 7.01919L7.23592 7.0187L7.20132 7.05333ZM13.7544 12.4946C13.7877 12.5168 13.7982 12.536 13.8011 12.5491C13.8041 12.5626 13.8005 12.5749 13.7951 12.5857L13.8388 12.6076C13.8467 12.5918 13.8553 12.5674 13.8489 12.5385C13.8424 12.5093 13.8217 12.4806 13.7816 12.4538L13.7544 12.4946ZM13.7951 12.5857C13.6763 12.8233 13.6524 12.8646 13.5261 13.0991L13.5692 13.1223C13.6955 12.8878 13.7197 12.8459 13.8388 12.6076L13.7951 12.5857ZM13.5273 13.0971C13.507 13.1276 13.4835 13.1375 13.4612 13.1383C13.4373 13.1391 13.4117 13.1294 13.3899 13.1148L13.3627 13.1556C13.3898 13.1737 13.4254 13.1885 13.4628 13.1872C13.5017 13.1859 13.5394 13.1673 13.568 13.1243L13.5273 13.0971ZM13.3899 13.1148C13.1691 12.9676 13.1441 12.9529 12.9174 12.8218L12.8929 12.8641C13.1188 12.9948 13.1429 13.009 13.3627 13.1556L13.3899 13.1148ZM12.9174 12.8218C12.4103 12.5285 11.9222 12.1947 11.4379 11.8588L11.41 11.899C11.8943 12.2349 12.3838 12.5698 12.8929 12.8641L12.9174 12.8218ZM11.438 11.8588C11.4043 11.8354 11.3804 11.8105 11.3634 11.7818C11.3464 11.753 11.3356 11.7192 11.3298 11.6772L11.2813 11.6839C11.2877 11.7306 11.3001 11.771 11.3213 11.8067C11.3425 11.8425 11.3717 11.8724 11.41 11.899L11.438 11.8588ZM11.3298 11.6772C11.2754 11.2843 11.2127 10.8923 11.1485 10.47L11.1001 10.4773C11.1643 10.9001 11.2269 11.2915 11.2813 11.6839L11.3298 11.6772ZM11.1098 10.4934C11.4456 10.7402 11.7568 10.9792 12.0778 11.2032L12.1058 11.163C11.7855 10.9395 11.4758 10.7016 11.1388 10.4539L11.1098 10.4934ZM12.0779 11.2032C12.6639 11.6112 13.2117 12.0258 13.752 12.4927L13.784 12.4557C13.2422 11.9874 12.6929 11.5717 12.1058 11.163L12.0779 11.2032ZM17.7359 10.931C17.8626 11.982 17.6688 12.9605 17.1736 13.8826L17.2168 13.9058C17.7165 12.9751 17.9124 11.9863 17.7845 10.9251L17.7359 10.931ZM17.1736 13.8826C17.1131 13.9959 17.0281 14.1251 16.9538 14.2236L16.9929 14.2531C17.0685 14.1529 17.1549 14.0216 17.2168 13.9057L17.1736 13.8826ZM16.9543 14.2231C16.906 14.2836 16.7799 14.4307 16.6194 14.62C16.4591 14.809 16.2651 15.0394 16.0816 15.2655C15.8982 15.4915 15.7249 15.7137 15.6064 15.8862C15.5472 15.9723 15.5011 16.047 15.4742 16.1041C15.4608 16.1324 15.4514 16.158 15.4482 16.1793C15.4452 16.1994 15.4465 16.2246 15.4671 16.2396L15.496 16.2001C15.4985 16.202 15.4943 16.2021 15.4966 16.1866C15.4988 16.1723 15.5058 16.1518 15.5185 16.1249C15.5436 16.0716 15.5879 15.9995 15.6467 15.9139C15.7641 15.7431 15.9363 15.5221 16.1196 15.2963C16.3027 15.0706 16.4965 14.8406 16.6567 14.6517C16.8166 14.4631 16.9436 14.3149 16.9925 14.2537L16.9543 14.2231ZM15.4648 16.2378C15.4826 16.2544 15.5082 16.2575 15.533 16.2557C15.5587 16.2538 15.5895 16.2463 15.6239 16.2345C15.693 16.211 15.7815 16.169 15.8823 16.1145C16.0843 16.0054 16.3391 15.8439 16.5928 15.6719C16.8466 15.4999 17.0997 15.3171 17.2982 15.165C17.3975 15.089 17.4833 15.0206 17.5488 14.965C17.6134 14.9101 17.6605 14.8659 17.6801 14.8388L17.6405 14.8101C17.625 14.8315 17.5826 14.872 17.5171 14.9276C17.4525 14.9825 17.3674 15.0504 17.2685 15.1261C17.0707 15.2776 16.8184 15.4599 16.5653 15.6314C16.3122 15.803 16.0589 15.9634 15.8591 16.0714C15.759 16.1255 15.6733 16.166 15.6081 16.1882C15.5754 16.1993 15.5491 16.2054 15.5294 16.2069C15.5088 16.2084 15.5007 16.2043 15.4982 16.202L15.4648 16.2378ZM17.6762 14.8431C17.817 14.7234 17.9452 14.5706 18.0737 14.4227C18.2028 14.2741 18.3324 14.1302 18.4778 14.0241L18.4489 13.9846C18.2985 14.0944 18.1656 14.2423 18.0367 14.3906C17.9071 14.5398 17.7818 14.6891 17.6445 14.8058L17.6762 14.8431ZM18.4779 14.024C18.4878 14.0167 18.4982 14.0072 18.5069 13.9998C18.5162 13.9917 18.5245 13.9852 18.5324 13.9808C18.5401 13.9765 18.546 13.9751 18.5507 13.9755C18.5551 13.9758 18.5616 13.9777 18.5705 13.986L18.6039 13.9502C18.5886 13.936 18.572 13.9279 18.5541 13.9266C18.5367 13.9254 18.5213 13.931 18.5086 13.938C18.496 13.945 18.4846 13.9543 18.475 13.9626C18.4646 13.9715 18.4567 13.9787 18.4488 13.9847L18.4779 14.024ZM18.5706 13.9861C18.5771 13.9921 18.5836 14.0048 18.5878 14.0235C18.5917 14.0414 18.5927 14.0613 18.5912 14.0775L18.64 14.082C18.6419 14.061 18.6407 14.036 18.6356 14.0129C18.6306 13.9906 18.6212 13.9661 18.6037 13.9501L18.5706 13.9861ZM18.5912 14.0775C18.5612 14.4026 18.5462 14.7266 18.4911 15.0445L18.5393 15.0529C18.5949 14.7324 18.6102 14.4041 18.64 14.082L18.5912 14.0775ZM18.4911 15.0445C18.3262 15.9949 17.969 16.8803 17.4835 17.7082L17.5258 17.733C18.0136 16.901 18.3733 16.0101 18.5393 15.0529L18.4911 15.0445ZM17.4835 17.7082C16.5592 19.2844 15.2801 20.436 13.4843 20.926L13.4971 20.9733C15.3078 20.4792 16.5964 19.3178 17.5258 17.733L17.4835 17.7082ZM13.4842 20.926C12.6939 21.1417 11.8857 21.1225 11.0713 21.0472L11.0668 21.0959C11.8828 21.1714 12.6981 21.1913 13.4971 20.9733L13.4842 20.926ZM11.0713 21.0472C10.1957 20.9663 9.40771 20.676 8.699 20.1577L8.6701 20.1973C9.3862 20.7209 10.1827 21.0143 11.0668 21.0959L11.0713 21.0472ZM8.69902 20.1578C8.64877 20.121 8.61562 20.0852 8.59542 20.0448C8.57529 20.0046 8.56691 19.9577 8.56995 19.8967L8.52105 19.8943C8.51772 19.9611 8.52673 20.017 8.55164 20.0667C8.57648 20.1163 8.61604 20.1577 8.67009 20.1973L8.69902 20.1578ZM8.56995 19.8966C8.59243 19.4246 8.64565 18.9596 8.79493 18.5117L8.74848 18.4962C8.59714 18.9503 8.54361 19.4204 8.52105 19.8943L8.56995 19.8966ZM8.79493 18.5117C8.95216 18.0405 9.14757 17.5866 9.36226 17.1357L9.31805 17.1147C9.10286 17.5666 8.90657 18.0225 8.74848 18.4962L8.79493 18.5117ZM9.36226 17.1357C9.6286 16.5772 9.96156 16.0771 10.3874 15.6386L10.3523 15.6045C9.92225 16.0473 9.58638 16.552 9.31806 17.1147L9.36226 17.1357ZM10.3874 15.6386C11.125 14.8782 12.0686 14.5056 13.0799 14.2794L13.0692 14.2316C12.0534 14.4588 11.0992 14.8344 10.3523 15.6045L10.3874 15.6386ZM13.0799 14.2794C13.6539 14.151 14.2273 13.9909 14.7507 13.744L14.7298 13.6997C14.2112 13.9443 13.6418 14.1035 13.0692 14.2316L13.0799 14.2794ZM14.7507 13.744C15.6443 13.323 16.3892 12.6861 16.9828 11.8807L16.9434 11.8516C16.3541 12.6511 15.6154 13.2824 14.7298 13.6997L14.7507 13.744ZM14.1053 12.1668C13.615 11.7721 13.1159 11.4169 12.6219 11.0692C12.1278 10.7214 11.6389 10.3814 11.1682 10.0166L11.1382 10.0553C11.6101 10.421 12.1 10.7618 12.5938 11.1093C13.0877 11.4569 13.5857 11.8113 14.0746 12.2049L14.1053 12.1668ZM11.1682 10.0166C11.1277 9.98518 11.0896 9.93218 11.0568 9.86495C11.0242 9.79808 10.9977 9.71892 10.9796 9.63723C10.9615 9.55554 10.9519 9.47197 10.9526 9.39639C10.9534 9.32044 10.9645 9.25434 10.9865 9.20645L10.942 9.18602C10.916 9.24266 10.9044 9.31647 10.9037 9.39592C10.9029 9.47573 10.913 9.56304 10.9318 9.64782C10.9506 9.7326 10.9782 9.8155 11.0128 9.88641C11.0472 9.95694 11.0894 10.0174 11.1382 10.0553L11.1682 10.0166ZM10.9865 9.20648C11.128 8.89924 11.2345 8.58212 11.1715 8.22691L11.1233 8.23546C11.1836 8.57551 11.0825 8.88119 10.942 9.18599L10.9865 9.20648ZM11.1715 8.22689C11.0724 7.67035 10.7314 7.2988 10.2514 7.06252L10.2298 7.10645C10.6987 7.33728 11.0274 7.69722 11.1233 8.23547L11.1715 8.22689ZM10.2514 7.06252C9.59207 6.73794 9.25582 6.21915 9.16665 5.49804L9.11805 5.50405C9.20907 6.24006 9.55436 6.77395 10.2298 7.10645L10.2514 7.06252ZM9.16664 5.49801C9.15392 5.39601 9.15639 5.3104 9.17653 5.23183C9.19663 5.1534 9.23471 5.08057 9.29517 5.00464L9.25687 4.97414C9.19296 5.0544 9.15123 5.13334 9.1291 5.21968C9.10701 5.30587 9.10483 5.39799 9.11806 5.50407L9.16664 5.49801ZM9.29517 5.00464C10.1074 3.98496 11.5016 3.56385 12.765 4.02384L12.7818 3.97783C11.4981 3.51048 10.0819 3.93838 9.25687 4.97413L9.29517 5.00464ZM12.765 4.02384C14.1605 4.53227 14.8647 5.61961 15.0391 7.04682L15.0877 7.04088C14.9115 5.59889 14.1977 4.4937 12.7818 3.97784L12.765 4.02384ZM15.0391 7.04682C15.2576 8.83573 14.7266 10.4979 14.0667 12.1764L14.1123 12.1943C14.7725 10.515 15.3078 8.84287 15.0877 7.04088L15.0391 7.04682ZM14.0722 12.2027L14.0727 12.2032L14.1073 12.1686L14.1068 12.1681L14.0722 12.2027ZM9.00605 14.2503C9.39446 13.5573 9.77627 12.8704 10.2245 12.2243L10.1842 12.1964C9.73445 12.8448 9.35147 13.5338 8.96334 14.2264L9.00605 14.2503ZM10.2245 12.2243C10.2339 12.2106 10.2439 12.1945 10.2538 12.1788C10.2638 12.1628 10.2738 12.1471 10.2837 12.1332C10.2938 12.119 10.3029 12.1079 10.3111 12.1006C10.3199 12.0927 10.3236 12.0928 10.323 12.0928L10.3256 12.0439C10.3062 12.0429 10.2899 12.0538 10.2784 12.0641C10.2662 12.0751 10.2545 12.0897 10.2438 12.1048C10.233 12.12 10.2223 12.1369 10.2123 12.1528C10.2022 12.1689 10.1929 12.1839 10.1842 12.1964L10.2245 12.2243ZM10.323 12.0928C10.3955 12.0968 10.469 12.0951 10.5418 12.0928C10.615 12.0905 10.6872 12.0876 10.7587 12.0889C10.9014 12.0916 11.0379 12.1112 11.1629 12.1845L11.1877 12.1422C11.0521 12.0628 10.9059 12.0427 10.7596 12.04C10.6866 12.0386 10.6128 12.0416 10.5403 12.0439C10.4675 12.0462 10.3958 12.0478 10.3256 12.0439L10.323 12.0928ZM11.1629 12.1845C11.4345 12.344 11.6825 12.5407 11.9589 12.7333L11.9869 12.6931C11.7139 12.5029 11.4614 12.303 11.1877 12.1422L11.1629 12.1845ZM11.9632 12.6907C10.9249 13.1393 9.95793 13.6924 8.97367 14.2168L8.99669 14.26C9.98268 13.7346 10.9468 13.1832 11.9826 12.7357L11.9632 12.6907ZM8.98518 14.2139H8.98469V14.2629H8.98518V14.2139ZM7.77647 13.8549C8.01932 12.9324 8.26267 12.01 8.50504 11.0875L8.45768 11.0751C8.21532 11.9975 7.97198 12.9199 7.72912 13.8424L7.77647 13.8549ZM8.50501 11.0876C8.51649 11.0446 8.54351 11.0174 8.58383 10.995L8.56005 10.9522C8.51223 10.9787 8.47365 11.0152 8.4577 11.075L8.50501 11.0876ZM8.58382 10.995C8.69997 10.9305 8.81373 10.8575 8.92933 10.7896C9.04578 10.7213 9.16633 10.6567 9.30031 10.6062L9.28306 10.5604C9.1453 10.6123 9.02201 10.6785 8.90454 10.7474C8.78623 10.8169 8.67598 10.8878 8.56006 10.9522L8.58382 10.995ZM9.26782 10.5888C9.33877 10.899 9.40542 11.1985 9.47695 11.4968L9.52456 11.4854C9.45312 11.1874 9.38659 10.8885 9.31555 10.5779L9.26782 10.5888ZM9.47696 11.4969C9.50029 11.5933 9.46646 11.6633 9.40335 11.7416L9.44147 11.7723C9.50861 11.689 9.55312 11.6034 9.52455 11.4853L9.47696 11.4969ZM9.40331 11.7417C9.1897 12.0082 8.9805 12.2781 8.77099 12.5474L8.80963 12.5774C9.01924 12.3081 9.22818 12.0385 9.44152 11.7723L9.40331 11.7417ZM10.5132 9.67038C10.5813 9.91529 10.64 10.1242 10.6978 10.3338L10.745 10.3208C10.6872 10.1112 10.6284 9.90198 10.5604 9.65727L10.5132 9.67038ZM10.6978 10.3337C10.7026 10.3513 10.7059 10.3659 10.7069 10.378C10.708 10.3903 10.7066 10.3978 10.7043 10.4027C10.7006 10.4103 10.6885 10.4223 10.6379 10.4237L10.6393 10.4727C10.6925 10.4712 10.7316 10.4585 10.7483 10.4241C10.7561 10.4081 10.7572 10.3905 10.7557 10.3738C10.7542 10.357 10.75 10.339 10.745 10.3208L10.6978 10.3337ZM10.6379 10.4237C10.3294 10.433 10.0215 10.4536 9.71403 10.4747L9.71737 10.5235C10.0249 10.5025 10.3319 10.482 10.6394 10.4727L10.6379 10.4237ZM9.71398 10.4747C9.68174 10.477 9.6593 10.4775 9.64191 10.4715C9.62724 10.4664 9.61372 10.4557 9.60302 10.4269L9.55712 10.444C9.57189 10.4837 9.59485 10.5071 9.62595 10.5178C9.65435 10.5276 9.68699 10.5257 9.71742 10.5235L9.71398 10.4747ZM9.60303 10.427C9.59639 10.409 9.59622 10.3977 9.59783 10.3905C9.59938 10.3836 9.60312 10.3778 9.60981 10.3721C9.61693 10.366 9.6265 10.3606 9.63858 10.3546C9.64963 10.3492 9.66414 10.3427 9.67622 10.3356L9.65138 10.2934C9.64142 10.2993 9.63059 10.304 9.617 10.3107C9.60443 10.3169 9.59004 10.3245 9.57788 10.335C9.56529 10.3458 9.55444 10.3602 9.55006 10.3798C9.54575 10.399 9.54833 10.4203 9.55712 10.444L9.60303 10.427ZM9.67631 10.3356C9.97883 10.1557 10.2478 9.9301 10.5522 9.68333L10.5214 9.64529C10.2157 9.89304 9.95002 10.1159 9.65129 10.2935L9.67631 10.3356ZM10.5613 9.66431V9.66382H10.5123V9.66431H10.5613ZM17.7845 10.9252C17.7759 10.8524 17.7872 10.7537 17.6975 10.6643L17.663 10.6989C17.7371 10.7729 17.7259 10.8462 17.7359 10.9309L17.7845 10.9252ZM17.6583 10.6707C17.4503 11.0891 17.2166 11.4809 16.9434 11.8516L16.9828 11.8807C17.2579 11.5074 17.4931 11.1131 17.7022 10.6925L17.6583 10.6707ZM7.73922 13.869C7.74372 13.872 7.74832 13.875 7.75278 13.8779C7.75727 13.8808 7.76162 13.8836 7.76584 13.8864L7.79297 13.8457C7.78847 13.8427 7.78387 13.8397 7.77942 13.8368C7.77493 13.8339 7.77058 13.8311 7.76638 13.8283L7.73922 13.869ZM7.79875 13.881C8.13558 13.4468 8.47235 13.0116 8.80964 12.5774L8.77098 12.5474C8.43368 12.9816 8.09684 13.4168 7.76006 13.851L7.79875 13.881ZM18.3365 13.1641H18.2875L18.3839 13.1765L18.3365 13.1641ZM18.548 12.2206L18.5965 12.2272L18.5966 12.2271L18.548 12.2206ZM18.1847 9.39649L18.1388 9.41339L18.1388 9.41346L18.1847 9.39649ZM18.0799 9.17714L18.1213 9.15095L18.1212 9.15077L18.0799 9.17714ZM17.4415 9.16539L17.4008 9.13814L17.4007 9.13823L17.4415 9.16539ZM17.2686 9.53995L17.2226 9.52316L17.2226 9.52317L17.2686 9.53995ZM15.8453 11.9264L15.88 11.9609L15.88 11.9609L15.8453 11.9264ZM14.6736 12.8459L14.6261 12.834L14.5971 12.9504L14.6993 12.8876L14.6736 12.8459ZM15.01 12.0253L14.9657 12.0044L14.9657 12.0044L15.01 12.0253ZM15.8502 8.9524L15.8017 8.94585L15.8017 8.94586L15.8502 8.9524ZM15.7523 6.28689L15.705 6.29964L15.705 6.29966L15.7523 6.28689ZM12.7269 3.13861L12.7385 3.09105L12.7385 3.09105L12.7269 3.13861ZM8.52885 4.53061L8.49184 4.49856L8.49183 4.49857L8.52885 4.53061ZM7.62941 5.62247L7.5923 5.59054L7.59227 5.59057L7.62941 5.62247ZM5.75367 6.93956L5.77161 6.98512L5.77167 6.98509L5.75367 6.93956ZM5.08239 7.01937L5.08276 7.06833L5.08282 7.06833L5.08239 7.01937ZM4.5066 7.09673L4.52519 7.14202L4.5252 7.14202L4.5066 7.09673ZM4.27256 8.49411L4.30814 8.46048L4.30814 8.46048L4.27256 8.49411ZM5.86824 9.22316L5.87607 9.17483L5.87606 9.17483L5.86824 9.22316ZM7.97117 8.9289L7.98324 8.97635L7.98324 8.97635L7.97117 8.9289ZM9.92526 8.4143L9.93775 8.46165L9.93779 8.46164L9.92526 8.4143ZM10.2651 8.42459L10.226 8.45416L10.2261 8.45422L10.2651 8.42459ZM10.1804 8.73843L10.1373 8.71518L10.1372 8.71523L10.1804 8.73843ZM9.49929 9.42195L9.52662 9.46257L9.52663 9.46256L9.49929 9.42195ZM7.41643 10.8218L7.4475 10.8596L7.4475 10.8596L7.41643 10.8218ZM5.14555 14.7251L5.19416 14.731L5.19416 14.731L5.14555 14.7251ZM6.73732 19.6482L6.70061 19.6806L6.70061 19.6806L6.73732 19.6482ZM9.72598 21.639L9.74055 21.5923L9.74055 21.5923L9.72598 21.639ZM16.0441 20.5756L16.0736 20.6147L16.0736 20.6147L16.0441 20.5756ZM19.353 14.6629L19.4015 14.6694L19.4015 14.6694L19.353 14.6629ZM19.3755 13.3962L19.327 13.4028L19.327 13.4028L19.3755 13.3962ZM18.5818 13.0491L18.5533 13.0093L18.5532 13.0093L18.5818 13.0491ZM18.3992 13.169L18.3735 13.1273L18.3734 13.1274L18.3992 13.169ZM18.3365 13.1637L18.3414 13.1149L18.2875 13.1095V13.1637H18.3365ZM17.6799 10.6813V10.6323H17.5612L17.6454 10.716L17.6799 10.6813ZM17.6804 10.6813L17.7243 10.7031L17.7594 10.6323H17.6804V10.6813ZM7.77973 13.8663V13.9152H7.94144L7.80689 13.8255L7.77973 13.8663ZM7.77924 13.8663L7.74053 13.8363L7.6794 13.9152H7.77924V13.8663ZM17.6802 10.6816L17.6457 10.7163L17.6938 10.7643L17.7241 10.7034L17.6802 10.6816ZM7.77941 13.866L7.80654 13.8253L7.7686 13.8L7.74069 13.8361L7.77941 13.866ZM18.3839 13.1765C18.4653 12.864 18.553 12.5515 18.5965 12.2272L18.4995 12.2141C18.4569 12.5311 18.3713 12.8365 18.2891 13.1518L18.3839 13.1765ZM18.5966 12.2271C18.7281 11.2417 18.5701 10.2984 18.2306 9.37952L18.1388 9.41346C18.474 10.3209 18.6284 11.2479 18.4995 12.2142L18.5966 12.2271ZM18.2307 9.37959C18.202 9.30172 18.1669 9.22289 18.1213 9.15095L18.0386 9.20333C18.0792 9.2675 18.1116 9.33947 18.1388 9.41339L18.2307 9.37959ZM18.1212 9.15077C18.0305 9.0089 17.9006 8.92984 17.7642 8.92677C17.6275 8.92369 17.4952 8.99719 17.4008 9.13814L17.4822 9.19263C17.5616 9.07408 17.6648 9.02248 17.762 9.02467C17.8595 9.02686 17.9619 9.08342 18.0387 9.20351L18.1212 9.15077ZM17.4007 9.13823C17.3216 9.25686 17.2695 9.39485 17.2226 9.52316L17.3146 9.55674C17.3618 9.4275 17.4105 9.30012 17.4822 9.19255L17.4007 9.13823ZM17.2226 9.52317C16.9008 10.4057 16.476 11.2216 15.8106 11.8919L15.88 11.9609C16.5591 11.2769 16.9901 10.4467 17.3146 9.55672L17.2226 9.52317ZM15.8106 11.8918C15.4698 12.2346 15.092 12.5314 14.648 12.8042L14.6993 12.8876C15.1494 12.611 15.5334 12.3095 15.88 11.9609L15.8106 11.8918ZM14.7211 12.8577C14.7975 12.5514 14.9353 12.299 15.0543 12.0461L14.9657 12.0044C14.8497 12.2509 14.7055 12.5156 14.6261 12.834L14.7211 12.8577ZM15.0543 12.0461C15.5184 11.0607 15.7554 10.0222 15.8987 8.95894L15.8017 8.94586C15.6591 10.0036 15.424 11.0314 14.9657 12.0044L15.0543 12.0461ZM15.8987 8.95895C16.0196 8.06299 16.0379 7.15634 15.7995 6.27412L15.705 6.29966C15.9386 7.16442 15.9217 8.05664 15.8017 8.94585L15.8987 8.95895ZM15.7995 6.27414C15.3661 4.66715 14.4144 3.50111 12.7385 3.09105L12.7152 3.18617C14.3492 3.58595 15.2787 4.71918 15.705 6.29964L15.7995 6.27414ZM12.7385 3.09105C11.8946 2.88471 11.1161 2.90846 10.406 3.14891C9.69604 3.3893 9.05755 3.84523 8.49184 4.49856L8.56587 4.56266C9.12237 3.91996 9.74687 3.47547 10.4374 3.24166C11.1277 3.00791 11.8871 2.98368 12.7153 3.18617L12.7385 3.09105ZM8.49183 4.49857C8.33694 4.67756 8.18842 4.86183 8.04062 5.04548C7.89265 5.22934 7.74542 5.41255 7.5923 5.59054L7.66653 5.6544C7.82089 5.47497 7.96915 5.29047 8.11691 5.10687C8.26485 4.92305 8.4123 4.74011 8.56588 4.56265L8.49183 4.49857ZM7.59227 5.59057C7.08524 6.18089 6.46089 6.60733 5.73567 6.89402L5.77167 6.98509C6.51041 6.69305 7.14831 6.25775 7.66656 5.65437L7.59227 5.59057ZM5.73573 6.894C5.52484 6.97705 5.31198 6.96841 5.08197 6.97041L5.08282 7.06833C5.30522 7.0664 5.53987 7.07637 5.77161 6.98512L5.73573 6.894ZM5.08202 6.97041C4.88858 6.97186 4.68189 6.97181 4.488 7.05144L4.5252 7.14202C4.69852 7.07084 4.88548 7.06981 5.08276 7.06833L5.08202 6.97041ZM4.488 7.05143C3.89362 7.29544 3.76775 8.0314 4.23698 8.52775L4.30814 8.46048C3.87939 8.00695 4.00323 7.3563 4.52519 7.14202L4.488 7.05143ZM4.23697 8.52774C4.67694 8.99333 5.25446 9.17346 5.86042 9.2715L5.87606 9.17483C5.27755 9.078 4.72599 8.90266 4.30814 8.46048L4.23697 8.52774ZM5.86041 9.27149C6.60765 9.39255 7.29993 9.15009 7.98324 8.97635L7.95911 8.88145C7.26363 9.05828 6.5977 9.29173 5.87607 9.17483L5.86041 9.27149ZM7.98324 8.97635C8.63618 8.8103 9.28703 8.63338 9.93775 8.46165L9.91276 8.36696C9.26108 8.53895 8.6115 8.71553 7.9591 8.88145L7.98324 8.97635ZM9.93779 8.46164C9.9997 8.44525 10.0603 8.42599 10.1162 8.42103C10.1712 8.41615 10.2052 8.42672 10.226 8.45416L10.3041 8.39502C10.2529 8.32747 10.1753 8.31747 10.1075 8.32349C10.0407 8.32942 9.96735 8.35251 9.91273 8.36697L9.93779 8.46164ZM10.2261 8.45422C10.2411 8.474 10.2424 8.50485 10.2212 8.55749C10.2 8.60989 10.1667 8.66059 10.1373 8.71518L10.2234 8.76169C10.2474 8.71737 10.2882 8.65301 10.312 8.59415C10.3357 8.53552 10.3526 8.4589 10.304 8.39495L10.2261 8.45422ZM10.1372 8.71523C9.98434 8.99932 9.74271 9.19904 9.47194 9.38133L9.52663 9.46256C9.8013 9.27764 10.0591 9.06705 10.2235 8.76164L10.1372 8.71523ZM9.47195 9.38132C8.78326 9.84466 8.03668 10.249 7.38535 10.7839L7.4475 10.8596C8.09466 10.3281 8.82673 9.93344 9.52662 9.46257L9.47195 9.38132ZM7.38535 10.7839C6.13711 11.809 5.29611 13.0859 5.09695 14.7191L5.19416 14.731C5.38964 13.1278 6.21434 11.8723 7.4475 10.8596L7.38535 10.7839ZM5.09695 14.7191C4.86596 16.6135 5.45303 18.2674 6.70061 19.6806L6.77403 19.6158C5.54314 18.2215 4.96687 16.595 5.19416 14.731L5.09695 14.7191ZM6.70061 19.6806C7.52086 20.6097 8.52019 21.3145 9.71141 21.6858L9.74055 21.5923C8.56885 21.2271 7.58422 20.5336 6.77402 19.6158L6.70061 19.6806ZM9.71141 21.6858C12.0021 22.3997 14.1431 22.0704 16.0736 20.6147L16.0146 20.5365C14.1103 21.9725 12.0024 22.2973 9.74055 21.5923L9.71141 21.6858ZM16.0736 20.6147C18.051 19.123 19.0784 17.0862 19.4015 14.6694L19.3044 14.6564C18.9842 17.0515 17.9679 19.063 16.0146 20.5365L16.0736 20.6147ZM19.4015 14.6694C19.4576 14.2494 19.4821 13.8187 19.424 13.3897L19.327 13.4028C19.3834 13.8198 19.3599 14.241 19.3044 14.6564L19.4015 14.6694ZM19.424 13.3897C19.3883 13.1252 19.2909 12.9405 19.1299 12.8702C18.9687 12.7999 18.7684 12.855 18.5533 13.0093L18.6103 13.0889C18.8163 12.9411 18.9778 12.9107 19.0907 12.96C19.2037 13.0093 19.2927 13.1492 19.327 13.4028L19.424 13.3897ZM18.5532 13.0093C18.4954 13.0509 18.4353 13.0894 18.3736 13.1273L18.4248 13.2108C18.4874 13.1723 18.5498 13.1324 18.6104 13.0888L18.5532 13.0093ZM18.3734 13.1274C18.3809 13.1227 18.3875 13.1224 18.389 13.1224C18.39 13.1224 18.3894 13.1225 18.3848 13.1217C18.3775 13.1205 18.3604 13.1169 18.3414 13.1149L18.3316 13.2124C18.3463 13.2139 18.3554 13.2161 18.3685 13.2183C18.3741 13.2192 18.3821 13.2205 18.3906 13.2203C18.3995 13.2202 18.4123 13.2185 18.4249 13.2107L18.3734 13.1274ZM18.2875 13.1637V13.1641H18.3855V13.1637H18.2875ZM17.6804 10.6323H17.6799V10.7302H17.6804V10.6323ZM7.77924 13.9152H7.77973V13.8173H7.77924V13.9152ZM17.7241 10.7034L17.7243 10.7031L17.6366 10.6595L17.6364 10.6598L17.7241 10.7034ZM17.6454 10.716C17.6455 10.7161 17.6454 10.716 17.6457 10.7163L17.7148 10.6469C17.7148 10.6469 17.7148 10.6469 17.7147 10.6468C17.7146 10.6467 17.7145 10.6466 17.7144 10.6465L17.6454 10.716ZM7.74069 13.8361L7.74053 13.8363L7.81795 13.8962L7.81812 13.896L7.74069 13.8361ZM7.80689 13.8255C7.80682 13.8255 7.80666 13.8254 7.80654 13.8253L7.75227 13.9068C7.75236 13.9069 7.75243 13.9069 7.75257 13.907L7.80689 13.8255Z" fill="#4E342E" mask="url(#path-1-outside-1_2945_74563)"/>
<path d="M18.3365 13.1641C18.4183 12.8503 18.5049 12.5413 18.548 12.2206C18.6783 11.2448 18.5221 10.3096 18.1847 9.39649C18.1568 9.3206 18.123 9.24519 18.0799 9.17714C17.9125 8.91519 17.6153 8.90589 17.4415 9.16539C17.3661 9.27849 17.3156 9.41118 17.2686 9.53995C16.9455 10.4262 16.5176 11.2492 15.8453 11.9264C15.5016 12.272 15.1207 12.5712 14.6736 12.8459C14.7515 12.5335 14.8925 12.275 15.01 12.0253C15.4712 11.046 15.7072 10.0129 15.8502 8.9524C15.9706 8.05982 15.9883 7.16038 15.7523 6.28689C15.3224 4.69317 14.3818 3.54353 12.7269 3.13861C11.0548 2.72978 9.65107 3.23458 8.52885 4.53061C8.22039 4.88706 7.9369 5.26505 7.62941 5.62247C7.11678 6.21932 6.48565 6.65019 5.75367 6.93956C5.53236 7.02671 5.3086 7.01741 5.08239 7.01937C4.88703 7.02084 4.6902 7.02133 4.5066 7.09673C3.94842 7.32587 3.82357 8.01918 4.27256 8.49411C4.70147 8.94799 5.266 9.12573 5.86824 9.22316C6.60267 9.34214 7.28178 9.10418 7.97117 8.9289C8.62384 8.76292 9.27406 8.58616 9.92526 8.4143C10.0418 8.38346 10.1931 8.3296 10.2651 8.42459C10.3287 8.50831 10.2337 8.63953 10.1804 8.73843C10.0217 9.03319 9.77201 9.23834 9.49929 9.42195C8.805 9.88905 8.06567 10.2886 7.41643 10.8218C6.17572 11.8407 5.34287 13.1069 5.14555 14.7251C4.91641 16.6042 5.49808 18.2445 6.73732 19.6482C7.55254 20.5717 8.54452 21.2708 9.72598 21.639C12.0022 22.3485 14.1267 22.0214 16.0441 20.5756C18.0094 19.093 19.0313 17.0689 19.353 14.6629C19.4088 14.2452 19.4328 13.8193 19.3755 13.3962C19.3055 12.8782 19.0029 12.747 18.5818 13.0491C18.5226 13.0917 18.4614 13.1308 18.3992 13.169C18.3889 13.1754 18.3703 13.1671 18.3365 13.1637V13.1641ZM7.21911 7.0365C7.23625 7.01692 7.26334 6.98553 7.28048 6.96595C7.79801 6.55516 8.30754 6.15714 8.72617 5.60435C8.84025 6.54982 9.34408 7.1922 10.196 7.58684C10.0237 7.65735 9.8856 7.69798 9.74557 7.72883C8.66742 7.96777 7.60493 8.27917 6.51258 8.45592C5.98918 8.54063 5.50053 8.44858 5.05742 8.14893C4.83268 7.99714 4.81163 7.84242 4.98887 7.66567C5.11618 7.59957 5.25621 7.6172 5.39135 7.60202C5.63616 7.5746 5.88146 7.54816 6.12529 7.51536C6.51454 7.46297 6.83965 7.2539 7.17602 7.07371C7.19022 7.06098 7.20442 7.04874 7.21862 7.03601L7.21911 7.0365ZM13.768 12.4742C13.8414 12.5232 13.8302 12.57 13.8169 12.5966C13.698 12.8346 13.674 12.8762 13.5477 13.1107C13.4987 13.1842 13.4253 13.1678 13.3763 13.1352C13.156 12.9883 13.1315 12.9738 12.9051 12.8429C12.397 12.5492 11.9082 12.2148 11.424 11.8789C11.352 11.8289 11.3177 11.7692 11.3055 11.6806C11.2512 11.2879 11.1885 10.8962 11.1243 10.4737C11.4607 10.7209 11.7711 10.9594 12.0918 11.1831C12.6784 11.5915 13.227 12.0066 13.768 12.4742ZM17.6799 10.6813C17.68 10.6814 17.6801 10.6815 17.6802 10.6816C17.7621 10.7633 17.7509 10.8493 17.7602 10.928C17.8875 11.9841 17.6926 12.9678 17.1952 13.8942C17.134 14.0087 17.0483 14.139 16.9734 14.2384C16.779 14.4817 15.3376 16.1146 15.4815 16.2199C15.644 16.3713 17.5195 15.0184 17.6603 14.8245C17.9384 14.588 18.1676 14.2203 18.4633 14.0043C18.4991 13.9779 18.5387 13.9231 18.5872 13.9681C18.6112 13.9901 18.619 14.0425 18.6156 14.0797C18.5857 14.4034 18.5705 14.7295 18.5152 15.0487C18.3497 16.0025 17.9913 16.8907 17.5046 17.7206C16.5778 19.3011 15.294 20.4576 13.4907 20.9496C12.696 21.1665 11.8842 21.147 11.069 21.0716C10.1892 20.9903 9.39695 20.6985 8.68455 20.1775C8.58026 20.1011 8.53913 20.0233 8.5455 19.8955C8.56802 19.4225 8.62139 18.9549 8.7717 18.504C8.92936 18.0315 9.12521 17.5766 9.34016 17.1252C9.60749 16.5646 9.9419 16.0622 10.3698 15.6216C11.1121 14.8563 12.061 14.4822 13.0745 14.2555C13.6479 14.1272 14.2193 13.9676 14.7402 13.7218C15.6299 13.3027 16.3716 12.6686 16.9631 11.8661C17.2372 11.4941 17.4717 11.1011 17.6802 10.6816C17.6803 10.6815 17.6804 10.6814 17.6804 10.6813H17.6799ZM14.09 12.1859C13.1107 11.3976 12.0958 10.7665 11.1532 10.0359C10.9745 9.89737 10.8683 9.4053 10.9642 9.19623C11.1052 8.89022 11.2091 8.57882 11.1474 8.23118C11.0499 7.68379 10.715 7.31804 10.2406 7.08449C9.57322 6.75595 9.23244 6.2296 9.14235 5.50104C9.1164 5.29295 9.15165 5.14558 9.27602 4.98939C10.0947 3.96167 11.4999 3.53716 12.7734 4.00084C14.1791 4.51298 14.8881 5.60925 15.0634 7.04385C15.2827 8.8393 14.7495 10.5065 14.0895 12.1854L14.09 12.1859ZM8.98469 14.2384C9.37296 13.5456 9.75536 12.8576 10.2043 12.2104C10.2406 12.158 10.2866 12.0664 10.3243 12.0684C10.6098 12.084 10.9148 12.0106 11.1753 12.1633C11.448 12.3235 11.6982 12.5218 11.9729 12.7132C10.9358 13.1612 9.9703 13.7135 8.98518 14.2384H8.98469ZM7.77973 13.8663C7.77962 13.8662 7.77951 13.8661 7.77941 13.866C7.77069 13.8602 7.7615 13.8544 7.7528 13.8486C7.99565 12.9262 8.23899 12.0037 8.48136 11.0813C8.49507 11.0299 8.52787 10.998 8.57194 10.9736C8.80402 10.8448 9.01994 10.6857 9.29169 10.5833C9.36268 10.8938 9.42927 11.1929 9.50075 11.4911C9.5267 11.5983 9.48753 11.6762 9.42241 11.757C9.20894 12.0233 8.99987 12.2931 8.79031 12.5624C8.45302 12.9966 8.11621 13.4318 7.77941 13.866L7.77924 13.8663H7.77973ZM10.5368 9.66382C10.6049 9.90863 10.6636 10.1177 10.7214 10.3273C10.741 10.3987 10.7424 10.4453 10.6386 10.4482C10.3307 10.4575 10.0232 10.4781 9.7157 10.4991C9.65303 10.5035 9.60553 10.504 9.58007 10.4355C9.54923 10.3522 9.61973 10.3405 9.6638 10.3145C9.96443 10.1358 10.2318 9.91157 10.5368 9.66431V9.66382Z" fill="#4E342E"/>
<path d="M14.09 12.1859C13.1107 11.3976 12.0958 10.7665 11.1532 10.0359C10.9745 9.89737 10.8683 9.4053 10.9642 9.19623C11.1052 8.89022 11.2091 8.57882 11.1474 8.23118C11.0499 7.68379 10.715 7.31804 10.2406 7.08449C9.57322 6.75595 9.23244 6.2296 9.14235 5.50104C9.1164 5.29295 9.15165 5.14558 9.27602 4.98939C10.0947 3.96167 11.4999 3.53716 12.7734 4.00084C14.1791 4.51298 14.8881 5.60925 15.0634 7.04385C15.2827 8.8393 14.7495 10.5065 14.0895 12.1854L14.09 12.1859Z" fill="#F9695E"/>
<path d="M17.7602 10.928C17.7509 10.8493 17.7621 10.7633 17.6802 10.6816C17.4717 11.1011 17.2372 11.4941 16.9631 11.8661C16.3716 12.6686 15.6299 13.3027 14.7402 13.7218C14.2193 13.9676 13.6479 14.1272 13.0745 14.2555C12.061 14.4822 11.1121 14.8563 10.3698 15.6216C9.9419 16.0622 9.60749 16.5646 9.34016 17.1252C9.12521 17.5766 8.92936 18.0315 8.7717 18.504C8.62139 18.9549 8.56802 19.4225 8.5455 19.8955C8.53913 20.0233 8.58026 20.1011 8.68455 20.1775C9.39695 20.6985 10.1892 20.9903 11.069 21.0716C11.8842 21.147 12.696 21.1665 13.4907 20.9496C15.294 20.4576 16.5778 19.3011 17.5046 17.7206C17.9913 16.8907 18.3497 16.0025 18.5152 15.0487C18.5705 14.7295 18.5857 14.4034 18.6156 14.0797C18.619 14.0425 18.6112 13.9901 18.5872 13.9681C18.5387 13.9231 18.4991 13.9779 18.4633 14.0043C18.1676 14.2203 17.9384 14.588 17.6603 14.8245C17.5195 15.0184 15.644 16.3713 15.4815 16.2199C15.3376 16.1146 16.779 14.4817 16.9734 14.2384C17.0483 14.139 17.134 14.0087 17.1952 13.8942C17.6926 12.9678 17.8875 11.9841 17.7602 10.928Z" fill="#F9695E"/>
<path d="M13.768 12.4742C13.8414 12.5232 13.8302 12.57 13.8169 12.5966C13.698 12.8346 13.674 12.8762 13.5477 13.1107C13.4987 13.1842 13.4253 13.1678 13.3763 13.1352C13.156 12.9883 13.1315 12.9738 12.9051 12.8429C12.397 12.5492 11.9082 12.2148 11.424 11.8789C11.352 11.8289 11.3177 11.7692 11.3055 11.6806C11.2512 11.2879 11.1885 10.8962 11.1243 10.4737C11.4607 10.7209 11.7711 10.9594 12.0918 11.1831C12.6784 11.5915 13.227 12.0066 13.768 12.4742Z" fill="#F9695E"/>
<path d="M8.98469 14.2384C9.37296 13.5456 9.75536 12.8576 10.2043 12.2104C10.2406 12.158 10.2866 12.0664 10.3243 12.0684C10.6098 12.084 10.9148 12.0106 11.1753 12.1633C11.448 12.3235 11.6982 12.5218 11.9729 12.7132C10.9358 13.1612 9.9703 13.7135 8.98518 14.2384H8.98469Z" fill="#F9695E"/>
<path d="M7.7528 13.8486C7.7615 13.8544 7.77069 13.8602 7.77941 13.866C8.11621 13.4318 8.45302 12.9966 8.79031 12.5624C8.99987 12.2931 9.20894 12.0233 9.42241 11.757C9.48753 11.6762 9.5267 11.5983 9.50075 11.4911C9.42927 11.1929 9.36268 10.8938 9.29169 10.5833C9.01994 10.6857 8.80402 10.8448 8.57194 10.9736C8.52787 10.998 8.49507 11.0299 8.48136 11.0813C8.23899 12.0037 7.99565 12.9262 7.7528 13.8486Z" fill="#F9695E"/>
<path d="M10.5368 9.66382C10.6049 9.90863 10.6636 10.1177 10.7214 10.3273C10.741 10.3987 10.7424 10.4453 10.6386 10.4482C10.3307 10.4575 10.0232 10.4781 9.7157 10.4991C9.65303 10.5035 9.60553 10.504 9.58007 10.4355C9.54923 10.3522 9.61973 10.3405 9.6638 10.3145C9.96443 10.1358 10.2318 9.91157 10.5368 9.66431V9.66382Z" fill="#F9695E"/>
<path d="M7.21911 7.0365C7.23625 7.01692 7.26334 6.98553 7.28048 6.96595C7.79801 6.55516 8.30754 6.15714 8.72617 5.60435C8.84025 6.54982 9.34408 7.1922 10.196 7.58684C10.0237 7.65735 9.8856 7.69798 9.74557 7.72883C8.66742 7.96777 7.60493 8.27917 6.51258 8.45592C5.98918 8.54063 5.50053 8.44858 5.05742 8.14893C4.83268 7.99714 4.81163 7.84242 4.98887 7.66567C5.11618 7.59957 5.25621 7.6172 5.39135 7.60202C5.63616 7.5746 5.88146 7.54816 6.12529 7.51536C6.51454 7.46297 6.83965 7.2539 7.17602 7.07371C7.19022 7.06098 7.20442 7.04874 7.21862 7.03601L7.21911 7.0365Z" fill="#F9695E"/>
</svg>
