<svg width="24" height="24" viewBox="0 0 24 24" fill="none" xmlns="http://www.w3.org/2000/svg">
<path d="M18.6103 12.663C18.6916 12.351 18.7777 12.044 18.8205 11.7252C18.95 10.7552 18.7947 9.82569 18.4594 8.91804C18.4317 8.8426 18.3981 8.76766 18.3553 8.70001C18.1888 8.43964 17.8934 8.43039 17.7207 8.68833C17.6457 8.80075 17.5956 8.93264 17.5489 9.06063C17.2277 9.94152 16.8023 10.7596 16.1341 11.4327C15.7924 11.7763 15.4138 12.0736 14.9695 12.3467C15.0469 12.0362 15.187 11.7792 15.3038 11.531C15.7623 10.5576 15.9969 9.53076 16.139 8.47662C16.2587 7.58941 16.2762 6.69539 16.0416 5.82716C15.6143 4.24303 14.6794 3.10032 13.0344 2.69784C11.3725 2.29146 9.97715 2.79323 8.86169 4.08145C8.55509 4.43575 8.2733 4.81147 7.96767 5.16674C7.45812 5.76 6.83079 6.18827 6.10322 6.4759C5.88324 6.56253 5.66083 6.55328 5.43598 6.55523C5.2418 6.55669 5.04616 6.55717 4.86365 6.63212C4.30884 6.85989 4.18474 7.54902 4.63102 8.0211C5.05735 8.47224 5.61849 8.64891 6.2171 8.74576C6.94711 8.86402 7.62213 8.62749 8.30737 8.45326C8.95611 8.28828 9.60241 8.11259 10.2497 7.94177C10.3655 7.91111 10.5159 7.85757 10.5874 7.95199C10.6507 8.03521 10.5563 8.16564 10.5032 8.26395C10.3456 8.55693 10.0974 8.76084 9.82628 8.94335C9.13618 9.40763 8.4013 9.80476 7.75597 10.3348C6.52273 11.3475 5.69489 12.6061 5.49876 14.2145C5.271 16.0824 5.84917 17.7128 7.08095 19.1081C7.89126 20.0259 8.87727 20.7209 10.0516 21.0869C12.3142 21.7921 14.4259 21.467 16.3317 20.0298C18.2852 18.5562 19.3009 16.5443 19.6206 14.1527C19.6761 13.7376 19.7 13.3142 19.643 12.8937C19.5734 12.3788 19.2727 12.2484 18.8541 12.5486C18.7952 12.591 18.7344 12.6299 18.6726 12.6679C18.6624 12.6742 18.6439 12.6659 18.6103 12.6625V12.663Z" fill="#F9695E"/>
</svg>
