<?xml version="1.0" encoding="UTF-8"?>
<!-- Created with Inkscape (http://www.inkscape.org/) -->
<svg width="233" height="231" version="1.1" viewBox="0 0 233 231" xmlns="http://www.w3.org/2000/svg" xmlns:cc="http://creativecommons.org/ns#" xmlns:dc="http://purl.org/dc/elements/1.1/" xmlns:rdf="http://www.w3.org/1999/02/22-rdf-syntax-ns#">
 <metadata>
  <rdf:RDF>
   <cc:Work rdf:about="">
    <dc:format>image/svg+xml</dc:format>
    <dc:type rdf:resource="http://purl.org/dc/dcmitype/StillImage"/>
    <dc:title/>
   </cc:Work>
  </rdf:RDF>
 </metadata>
 <path d="m95.824 222.04-88.756-0.26088 0.25609-78.145 0.25609-78.145 16-5.7082c29.404-10.49 123.87-47.953 130.05-51.572 5.4542-3.1964 12.16-3.1607 24.451 0.13009 9.448 2.5296 46.305 16.63 48.73 18.642 1.011 0.83902 1.2703 20.722 1.2703 97.397 0 94.227-0.0425 96.365-1.9343 97.378-1.194 0.63899-9.5182 0.94159-21.75 0.79065-10.899-0.13449-59.756-0.36192-108.57-0.5054z" fill="#ada587"/>
 <path d="m7.5 220.87c-0.23072-0.22916-0.41949-2.3318-0.41949-4.6724 0-3.9303 0.24856-4.332 3.25-5.2524 1.7875-0.54813 5.5-1.3017 8.25-1.6746 7.4261-1.007 20.072-5.2074 28-9.3004 15.346-7.9228 34.729-31.71 43.743-53.683 3.2682-7.967 8.2566-16.055 15.837-25.68 10.428-13.238 22.565-22.721 47.517-37.121 20.884-12.053 39.701-23.63 42.154-25.934 3.7145-3.4896 4.8179-8.7654 2.7463-13.131-2.3155-4.8796-6.9289-8.3469-19.456-14.623-5.7529-2.882-12.455-6.7636-14.894-8.6256-2.4387-1.8621-5.0042-3.3856-5.7013-3.3856s-2.4622-1.4201-3.9227-3.1557l-2.6554-3.1557 2.0071-2.0071c3.277-3.277 11.162-3.3601 23.255-0.24504 10.029 2.5836 43.063 15.168 47.621 18.142l2.25 1.4678v95.418c0 75.236-0.26439 95.589-1.25 96.227-1.2402 0.80268-217.53 1.1914-218.33 0.39235z" fill="#ad906b"/>
 <path d="m7.497 220.87c-0.2291-0.22916-0.41655-2.2985-0.41655-4.5985v-4.1818l8.5297-1.1932c15.834-2.2151 29.288-7.6113 41.084-16.478 10.901-8.1941 23.809-25.22 31.565-41.631 7.311-15.472 8.5773-17.743 14.659-26.29 10.956-15.398 26.138-27.913 51.163-42.176 4.675-2.6644 16.168-9.4796 25.541-15.145 14.12-8.535 17.42-10.974 19.25-14.231 2.7424-4.8794 2.7971-8.4703 0.19344-12.683-2.8061-4.5403-6.8284-7.375-19.508-13.748-6.0372-3.0344-12.621-6.8018-14.631-8.3721-2.01-1.5703-5.0553-3.6261-6.7674-4.5685-4.0367-2.222-4.9641-4.651-2.4907-6.524 3.0227-2.2889 16.032-1.002 27.912 2.7612 11.492 3.6401 39.43 14.757 41.172 16.383 1.3903 1.298 2.9067 189.28 1.5434 191.33-0.64438 0.97286-24.334 1.2971-109.6 1.5-59.829 0.14239-108.97 0.0714-109.2-0.15779z" fill="#9d6e4d"/>
 <path d="m7.0805 216.89c0-4.0753 0.028898-4.1072 3.75-4.1286 5.9274-0.0342 20.408-3.5699 28.617-6.9875 21.372-8.8973 41.149-31.02 53.073-59.367 3.3847-8.0469 10.087-18.578 17.426-27.379 9.6886-11.62 23.412-21.842 47.677-35.514 19.481-10.976 38.489-22.979 40.867-25.806 3.4071-4.0491 4.1114-7.2405 2.664-12.072-1.6854-5.6254-7.575-10.844-17.769-15.744-9.5703-4.6005-21.602-11.993-26.634-16.365-3.1234-2.7136-3.1413-2.78-1.1719-4.3428 3.0761-2.441 15.767-1.2525 28 2.6223 10.342 3.2758 39.058 14.596 41.235 16.255 0.96431 0.73492 1.2392 21.839 1.255 96.331l0.0202 95.39h-107.92c-59.358 0-108.64 0.27314-109.51 0.60699-1.2841 0.49277-1.5818-0.16581-1.5818-3.5z" fill="#b56e29"/>
 <path d="m7.0805 216.89c0-4.0753 0.028898-4.1072 3.75-4.1286 5.9274-0.0342 20.408-3.5699 28.617-6.9875 21.372-8.8973 41.149-31.02 53.073-59.367 3.3847-8.0469 10.087-18.578 17.426-27.379 9.6886-11.62 23.412-21.842 47.677-35.514 29.197-16.451 42.12-25.305 43.706-29.944 0.33309-0.97453 1.5473-0.75497 5.0018 0.90447 2.5091 1.2053 7.4167 2.7524 10.906 3.4381s6.9063 1.6671 7.5938 2.181c0.98165 0.73377 1.25 17.975 1.25 80.312v79.378h-107.92c-59.355 0-108.63 0.27314-109.5 0.60699-1.2841 0.49277-1.5818-0.16581-1.5818-3.5z" fill="#844e24"/>
 <path d="m7.7622 220.14c-0.37493-0.37493-0.6817-2.1534-0.6817-3.9522 0-3.1489 0.12403-3.2503 3.3379-2.7288 9.9614 1.6165 33.953-7.0108 47.163-16.96 13.3-10.017 28.108-30.479 35.855-49.545 5.5104-13.561 21.537-33.651 34.798-43.619 3.294-2.4761 10.794-7.364 16.668-10.862 34.361-20.465 44.864-26.624 46.429-27.224 1.3845-0.53127 1.7493-0.13838 1.7493 1.8838 0 2.3932 7.007 11.961 11.435 15.614 2.362 1.9485 9.8239 11.921 11.258 15.045 0.63109 1.375 2.8709 6.1 4.9773 10.5l3.8299 8 0.27577 51.567 0.27576 51.567-107.65-0.43079c-79.288-0.31731-107.83-0.13342-108.34 0.69802-0.3837 0.62084-1.0044 0.82204-1.3793 0.44711z" fill="#87401c"/>
 <path d="m7.8096 220.18c-0.40104-0.40104-0.72917-2.1739-0.72917-3.9397 0-3.1852 0.033557-3.2067 4.25-2.7339 5.0844 0.57016 19.071-2.5775 27.967-6.2939 20.677-8.638 38.392-27.221 50.932-53.428 7.8673-16.441 9.1347-18.771 12.601-23.163 4.2546-5.391 4.348-2.4991 0.15593 4.8278-1.7017 2.9743-4.6527 10.229-6.5577 16.122-3.4343 10.623-8.1989 19.377-15.288 28.088-5.5298 6.7947-8.6594 11.188-11.905 16.713-2.1442 3.6502-5.4841 6.936-11.822 11.63-14.408 10.672-14.744 10.782-32.71 10.782-10.022 0-15.581 0.3736-15.811 1.0625-0.19479 0.58437-0.68229 0.73437-1.0833 0.33333zm100.27-95.796c0-2.3469 21.062-22.638 23.426-22.569 1.0438 0.0307-0.75263 1.7214-8.8153 8.2964-2.1394 1.7446-4.6144 3.982-5.5 4.9719-7.363 8.23-9.1102 10.014-9.1102 9.3003zm85.089-50.916c-1.1491-2.3736-2.0695-5.1861-2.0453-6.25 0.0241-1.0639 0.66078-0.20411 1.4148 1.9105 0.75397 2.1146 2.3877 4.9271 3.6304 6.25 1.7959 1.9117 1.9343 2.4052 0.67445 2.4052-0.87922 0-2.5155-1.9219-3.6743-4.3157z" fill="#7d3e1a"/>
</svg>
