<svg width="35" height="33" viewBox="0 0 35 33" fill="none" xmlns="http://www.w3.org/2000/svg">
<path d="M19.3206 10.0085L15.6628 16.441H15.6368L12.0146 10.0748L19.3206 10.0085Z" fill="#83FF50" stroke="#83FF50" stroke-width="0.329405"/>
<g opacity="0.83">
<path d="M19.3521 9.97279L19.3373 9.9992H19.3261L19.3204 10.0088L12.0143 10.0749L12.0087 10.0636H4.69133L4.6393 9.97279L8.31738 3.50627H15.6739L19.3521 9.97279Z" fill="#96FF5B" fill-opacity="0.647"/>
</g>
<path d="M19.3374 9.99911L19.3318 10.0085L15.674 16.441H15.6628L19.3207 10.0085L19.3262 9.99911H19.3374Z" fill="white"/>
<path d="M15.6871 16.5299L15.6721 16.5565L12.0089 22.9946V22.9965H4.65232L0.974045 16.5299L4.65232 10.0633H4.69144L8.3175 16.4411H15.6368L15.6871 16.5299Z" fill="#00D6FF" stroke="#00D6FF" stroke-width="0.329405"/>
<path d="M15.6362 16.4411H8.31704L4.69079 10.0634H12.0083L15.6362 16.4411Z" fill="#7DFFFF" stroke="#7DFFFF" stroke-width="0.329405"/>
<path d="M19.3746 22.8338L19.4324 22.9341H19.3262L16.5274 22.9587L12.0088 22.9945L15.6722 16.5564H22.9448L19.3746 22.8338Z" fill="#32E6FF" stroke="#32E6FF" stroke-width="0.329405"/>
<g opacity="0.86">
<path d="M23.1255 29.3024L23.0173 29.4915H15.6609L11.9827 23.0231L11.9976 22.9967V22.9947L15.6609 16.5567H15.6721L12.0087 22.9947L16.5273 22.9589L19.3261 22.9341H19.4324L23.0528 29.3024H23.1255Z" fill="#00D5FF" fill-opacity="0.545"/>
</g>
<path d="M19.3746 22.8338L19.4324 22.9341H19.3262L15.6984 16.5564H22.9449L19.3746 22.8338Z" fill="#20E6FF" stroke="#20E6FF" stroke-width="0.329405"/>
<path d="M26.6454 22.9341H19.4324L19.3747 22.8338L22.9448 16.5564H23.0175L26.6454 22.9341Z" fill="#2AF0FF" stroke="#2AF0FF" stroke-width="0.329405"/>
<g opacity="0.95">
<path d="M26.6955 23.0231L23.1254 29.3024H23.0528L19.4323 22.9342H26.6452L26.6955 23.0231Z" fill="#29EFFF" fill-opacity="0.8"/>
</g>
<path d="M30.3609 16.4676L26.6826 22.9342H26.6454L23.0173 16.5565H15.6984L15.6479 16.4676L15.663 16.4411L19.3207 10.0086L19.3263 9.99921H26.6828L30.3033 16.3673L30.3609 16.4676Z" fill="#32F8B9" stroke="#32F8B9" stroke-width="0.329405"/>
<g opacity="0.85">
<path d="M34.0339 22.9252L30.3558 29.3937L23.0085 29.4832L26.6422 23.1144L26.5917 23.0255H26.629L30.3074 16.559L30.2495 16.4587H30.3558L34.0339 22.9252Z" fill="#32F6B8" fill-opacity="0.565"/>
</g>
</svg>
