<?xml version="1.0" encoding="UTF-8" standalone="no"?>
<!-- Creator: CorelDRAW X6 -->

<svg
   xmlns:dc="http://purl.org/dc/elements/1.1/"
   xmlns:cc="http://creativecommons.org/ns#"
   xmlns:rdf="http://www.w3.org/1999/02/22-rdf-syntax-ns#"
   xmlns:svg="http://www.w3.org/2000/svg"
   xmlns="http://www.w3.org/2000/svg"
   xmlns:sodipodi="http://sodipodi.sourceforge.net/DTD/sodipodi-0.dtd"
   xmlns:inkscape="http://www.inkscape.org/namespaces/inkscape"
   xml:space="preserve"
   width="3.473in"
   height="3.473in"
   version="1.1"
   style="shape-rendering:geometricPrecision; text-rendering:geometricPrecision; image-rendering:optimizeQuality; fill-rule:evenodd; clip-rule:evenodd"
   viewBox="0 0 3473 3473"
   id="svg35"
   sodipodi:docname="editorconfig.svg"
   inkscape:version="0.92.1 r15371"><metadata
   id="metadata39"><rdf:RDF><cc:Work
       rdf:about=""><dc:format>image/svg+xml</dc:format><dc:type
         rdf:resource="http://purl.org/dc/dcmitype/StillImage" /></cc:Work></rdf:RDF></metadata><sodipodi:namedview
   pagecolor="#ffffff"
   bordercolor="#666666"
   borderopacity="1"
   objecttolerance="10"
   gridtolerance="10"
   guidetolerance="10"
   inkscape:pageopacity="0"
   inkscape:pageshadow="2"
   inkscape:window-width="1366"
   inkscape:window-height="705"
   id="namedview37"
   showgrid="false"
   inkscape:zoom="0.70784143"
   inkscape:cx="129.26624"
   inkscape:cy="166.81327"
   inkscape:window-x="-8"
   inkscape:window-y="-8"
   inkscape:window-maximized="1"
   inkscape:current-layer="svg35" />
 <defs
   id="defs4">
  <style
   type="text/css"
   id="style2">
   <![CDATA[
    .fil2 {fill:#020202}
    .fil0 {fill:#E3E3F8}
    .fil5 {fill:#EFEFEF}
    .fil6 {fill:#FAF1F1}
    .fil3 {fill:#FDF2F2}
    .fil1 {fill:#FDFDFD}
    .fil4 {fill:#FEF3F3}
   ]]>
  </style>
 </defs>
 <g
   id="Layer_x0020_1"
   transform="matrix(0.89449213,0,0,0.89449213,138.64898,275.98467)">
  <metadata
   id="CorelCorpID_0Corel-Layer" />
  <g
   id="_631799120">
   <g
   id="g11">
    <path
   class="fil0"
   d="m 967,1895 c 46,-30 84,-105 61,-158 -63,27 -60,89 -61,158 z"
   id="path7"
   inkscape:connector-curvature="0"
   style="fill:#e3e3f8" />
    <path
   class="fil0"
   d="m 1679,2067 c 50,-16 98,-72 71,-130 -39,27 -64,64 -71,130 z"
   id="path9"
   inkscape:connector-curvature="0"
   style="fill:#e3e3f8" />
   </g>
   <g
   id="g21">
    <path
   class="fil1"
   d="m 280,2895 c 0,63 16,131 60,155 162,91 730,20 923,-23 101,-23 183,-98 278,-139 214,-93 369,-168 540,-293 124,-91 321,-347 342,-500 l -169,-38 c -4,172 -43,211 -196,251 -103,28 -304,34 -409,16 -139,-23 -202,-96 -265,-179 -122,-162 27,-275 -166,-286 -203,249 -561,70 -718,45 -67,97 -224,727 -222,871 97,-33 158,3 245,37 308,119 39,224 -84,193 -84,-20 -110,-75 -159,-110 z"
   id="path13"
   inkscape:connector-curvature="0"
   style="fill:#fdfdfd" />
    <path
   class="fil1"
   d="m 683,1458 c 125,24 236,76 342,129 173,86 204,74 220,194 2,22 -2,34 61,54 106,33 -61,-26 223,-25 169,1 556,69 681,148 52,33 42,75 218,70 -2,-207 -57,-516 -138,-706 -99,-230 -230,-265 -497,-351 -156,-50 -614,-105 -756,-17 -133,83 -158,182 -282,356 -36,51 -49,90 -72,148 z"
   id="path15"
   inkscape:connector-curvature="0"
   style="fill:#fdfdfd" />
    <path
   class="fil1"
   d="m 1784,1883 c 100,41 -5,306 -144,242 -45,-127 62,-199 91,-256 -60,-9 -231,-36 -282,-17 -66,25 -81,166 -47,232 160,314 867,247 792,3 -30,-99 -58,-115 -159,-149 -81,-27 -162,-55 -251,-55 z"
   id="path17"
   inkscape:connector-curvature="0"
   style="fill:#fdfdfd" />
    <path
   class="fil1"
   d="m 527,1848 c 80,77 261,89 378,95 15,-155 28,-271 152,-262 61,83 29,181 -35,244 109,-1 172,-83 156,-202 -92,-66 -371,-198 -511,-217 -39,42 -135,272 -140,342 z"
   id="path19"
   inkscape:connector-curvature="0"
   style="fill:#fdfdfd" />
   </g>
   <path
   class="fil2"
   d="m 339,2838 c 66,-6 238,44 252,100 -107,13 -243,3 -252,-100 z m -59,57 c 49,35 75,90 159,110 123,31 392,-74 84,-193 -87,-34 -148,-70 -245,-37 -2,-144 155,-774 222,-871 157,25 515,204 718,-45 193,11 44,124 166,286 63,83 126,156 265,179 105,18 306,12 409,-16 153,-40 192,-79 196,-251 l 169,38 c -21,153 -218,409 -342,500 -171,125 -326,200 -540,293 -95,41 -177,116 -278,139 -193,43 -761,114 -923,23 -44,-24 -60,-92 -60,-155 z m 1399,-828 c 7,-66 32,-103 71,-130 27,58 -21,114 -71,130 z m 105,-184 c 89,0 170,28 251,55 101,34 129,50 159,149 75,244 -632,311 -792,-3 -34,-66 -19,-207 47,-232 51,-19 222,8 282,17 -29,57 -136,129 -91,256 139,64 244,-201 144,-242 z m -817,12 c 1,-69 -2,-131 61,-158 23,53 -15,128 -61,158 z m -440,-47 c 5,-70 101,-300 140,-342 140,19 419,151 511,217 16,119 -47,201 -156,202 64,-63 96,-161 35,-244 -124,-9 -137,107 -152,262 -117,-6 -298,-18 -378,-95 z m -100,-80 c -37,-102 -37,-261 120,-274 l -80,223 c -21,48 -21,37 -40,51 z m 256,-310 c 23,-58 36,-97 72,-148 124,-174 149,-273 282,-356 142,-88 600,-33 756,17 267,86 398,121 497,351 81,190 136,499 138,706 -176,5 -166,-37 -218,-70 -125,-79 -512,-147 -681,-148 -284,-1 -117,58 -223,25 -63,-20 -59,-32 -61,-54 -16,-120 -47,-108 -220,-194 -106,-53 -217,-105 -342,-129 z m 1770,-49 c -19,-63 16,-59 77,-102 35,-25 63,-51 106,-75 161,-90 461,-105 589,2 52,43 137,127 124,237 -27,219 -177,339 -300,439 -125,102 -333,207 -548,137 -18,-44 -4,-323 -25,-426 -19,-92 -9,-102 44,-157 156,-162 494,-280 686,-141 81,60 58,83 100,129 52,-56 -45,-244 -403,-232 -243,8 -348,198 -450,189 z M 997,840 c 5,-139 133,-427 261,-527 155,-120 317,-233 555,-98 59,33 56,50 62,132 5,79 -2,108 -22,172 -158,510 -290,217 -796,338 19,-166 163,-314 243,-391 137,-133 236,-219 442,-191 57,95 63,155 -6,266 -92,148 -115,139 -101,240 72,-18 94,-88 127,-158 201,-420 -91,-471 -270,-394 -120,51 -334,287 -404,429 -14,28 -29,64 -42,95 z m 792,21 C 1810,736 1934,705 1934,320 1934,154 1730,5 1463,116 1234,210 1199,282 1077,466 962,640 966,831 867,992 c -29,46 -55,62 -87,108 -23,34 -40,77 -63,117 -47,77 -95,133 -133,225 -120,3 -221,5 -233,129 -16,170 64,212 64,276 -1,69 -281,765 -203,1180 22,114 97,115 217,129 289,35 664,23 923,-81 l 470,-225 c 119,-67 319,-194 408,-287 63,-65 96,-120 150,-197 74,-108 76,-106 92,-253 98,18 281,61 342,114 -7,69 -41,36 -41,98 39,1 104,-48 120,-102 -41,-60 -84,-50 -143,-98 47,-37 132,-54 197,-81 140,-58 379,-234 438,-394 47,-129 12,-344 -64,-428 -80,-88 -266,-133 -418,-133 -181,0 -368,130 -514,186 -56,-49 -60,-105 -101,-159 -47,-64 -353,-224 -499,-255 z"
   id="path23"
   inkscape:connector-curvature="0"
   style="fill:#020202" />
   <path
   class="fil3"
   d="m 2453,1409 c 102,9 207,-181 450,-189 358,-12 455,176 403,232 -42,-46 -19,-69 -100,-129 -192,-139 -530,-21 -686,141 -53,55 -63,65 -44,157 21,103 7,382 25,426 215,70 423,-35 548,-137 123,-100 273,-220 300,-439 13,-110 -72,-194 -124,-237 -128,-107 -428,-92 -589,-2 -43,24 -71,50 -106,75 -61,43 -96,39 -77,102 z"
   id="path25"
   inkscape:connector-curvature="0"
   style="fill:#fdf2f2" />
   <path
   class="fil4"
   d="m 997,840 49,-87 c 13,-31 28,-67 42,-95 70,-142 284,-378 404,-429 179,-77 471,-26 270,394 -33,70 -55,140 -127,158 -14,-101 9,-92 101,-240 69,-111 63,-171 6,-266 -206,-28 -305,58 -442,191 -80,77 -224,225 -243,391 506,-121 638,172 796,-338 20,-64 27,-93 22,-172 -6,-82 -3,-99 -62,-132 -238,-135 -400,-22 -555,98 -128,100 -256,388 -261,527 z"
   id="path27"
   inkscape:connector-curvature="0"
   style="fill:#fef3f3" />
   <path
   class="fil5"
   d="m 427,1768 c 19,-14 19,-3 40,-51 l 80,-223 c -157,13 -157,172 -120,274 z"
   id="path29"
   inkscape:connector-curvature="0"
   style="fill:#efefef" />
   <path
   class="fil6"
   d="m 591,2938 c -14,-56 -186,-106 -252,-100 9,103 145,113 252,100 z"
   id="path31"
   inkscape:connector-curvature="0"
   style="fill:#faf1f1" />
  </g>
 </g>
</svg>