<svg xmlns="http://www.w3.org/2000/svg" viewBox="0 0 32 32"><path d="M10.21,2C7.61873,2,5.34309,3.90714,4.41257,6.85866a8.81617,8.81617,0,0,0-.37821,1.93459A6.35545,6.35545,0,0,0,2,13.44244V26.18158a3.80934,3.80934,0,0,0,3.74989,3.81823C12.0695,30,19.58444,25.82807,21.52359,20H21.95a6.83386,6.83386,0,0,0,3.28383-.62584,8.91208,8.91208,0,0,0,4.69508-6.36293l.00586-.03283.00476-.033A5.9644,5.9644,0,0,0,25.077,6.1704a9.6647,9.6647,0,0,0-1.80662-.16875,9.87619,9.87619,0,0,0-3.80774.76144,8.73265,8.73265,0,0,0-.8631.40039,7.25611,7.25611,0,0,0-3.17041-1.1393l-.03172-.0035-.0318-.00248Q15.13319,6,14.90028,6a5.995,5.995,0,0,0-.91092.06983A4.79008,4.79008,0,0,0,13.08443,3.506,3.63389,3.63389,0,0,0,10.21,2Z" style="fill:#263238"/><path d="M23.998,12l-2,6h-2V16l-2-6,.56-.26a3.12641,3.12641,0,0,1,.94-.79c.24-.13.73-.34.73-.34ZM10,6,6.32,7.46A7.13572,7.13572,0,0,0,6,9.62V10h4l2-1V6.41Z" style="fill:#607d8b"/><path d="M24.728,8.14a7.87979,7.87979,0,0,0-4.5.47,7.51112,7.51112,0,0,1,1.77,4.84V18a4.85931,4.85931,0,0,0,2.33-.41,6.86794,6.86794,0,0,0,3.63-4.93A3.99574,3.99574,0,0,0,24.728,8.14ZM11.48,4.7A1.62794,1.62794,0,0,0,10.21,4C8.46,4,6.96,5.43,6.32,7.46a5.72862,5.72862,0,0,1,.84-.21L12,6.41A2.91635,2.91635,0,0,0,11.48,4.7ZM6,18H4V16H6Zm12,0a2,2,0,0,1-2,2H12a2,2,0,0,1-2-2H8a2,2,0,0,1-2,2H4v4H7a1,1,0,0,1,0,2H4v.18158A1.82347,1.82347,0,0,0,5.77777,28C11.60522,28,19.2572,23.72675,20,18Zm-2-2H12v2h4Zm-.79-7.98792a3.97966,3.97966,0,0,0-1.07989.06318L7.49731,9.2196A4.25411,4.25411,0,0,0,4,13.44244V14H6a2,2,0,0,1,2,2h2a2,2,0,0,1,2-2h4a2,2,0,0,1,2,2h2V13.4527A5.44333,5.44333,0,0,0,15.21,8.01208Z" style="fill:#eceff1"/></svg>