<svg xmlns="http://www.w3.org/2000/svg" clip-rule="evenodd" image-rendering="optimizeQuality" shape-rendering="geometricPrecision" text-rendering="geometricPrecision" viewBox="0 0 3473 3473"><path fill="#EDE7F6" d="M989.342 1977.409c41.146-26.835 75.137-93.922 54.564-141.33-56.353 24.151-53.67 79.61-54.564 141.33m636.877 153.851c44.724-14.311 87.66-64.402 63.509-116.283-34.886 24.151-57.248 57.247-63.51 116.284z"/><g fill="#FAFAFA"><path d="M374.827 2871.899c0 56.352 14.312 117.178 53.67 138.645 144.907 81.4 652.977 17.89 825.614-20.573 90.343-20.573 163.692-87.66 248.668-124.334 191.421-83.187 330.067-150.274 483.025-262.085 110.916-81.399 287.131-310.388 305.915-447.245l-151.169-33.991c-3.578 153.852-38.463 188.737-175.32 224.517-92.132 25.046-271.925 30.413-365.846 14.312-124.334-20.574-180.687-85.871-237.04-160.114-109.128-144.907 24.151-245.985-148.485-255.824-181.582 222.728-501.81 62.614-642.244 40.252-59.93 86.765-200.366 650.294-198.577 779.1 86.766-29.517 141.33 2.684 219.15 33.097 275.503 106.444 34.885 200.366-75.137 172.636-75.137-17.89-98.394-67.086-142.224-98.393m360.48-1285.383c111.81 21.468 211.1 67.982 305.915 115.39 154.747 76.926 182.476 66.192 196.788 173.53 1.789 19.68-1.789 30.413 54.564 48.303 94.816 29.518-54.564-23.257 199.471-22.362 151.169.894 497.337 61.72 609.148 132.384 46.513 29.519 37.568 67.087 194.999 62.615-1.79-185.16-50.986-461.557-123.44-631.51-88.554-205.733-205.733-237.04-444.561-313.966-139.54-44.725-549.217-93.922-676.235-15.207-118.967 74.243-141.33 162.798-252.246 318.439-32.202 45.619-43.83 80.504-64.403 132.384"/><path d="M1720.14 1966.675c89.45 36.674-4.472 273.714-128.806 216.466-40.252-113.6 55.458-178.003 81.398-228.99-53.67-8.05-206.627-32.2-252.246-15.206-59.036 22.363-72.454 148.486-42.041 207.522 143.118 280.87 775.523 220.94 708.436 2.684-26.835-88.555-51.88-102.867-142.224-133.28-72.454-24.15-144.907-49.196-224.517-49.196m-1124.374-31.307c71.56 68.875 233.462 79.61 338.117 84.976 13.418-138.646 25.046-242.407 135.963-234.356 54.564 74.242 25.94 161.902-31.307 218.255 97.5-.894 153.852-74.242 139.54-180.687-82.293-59.036-331.856-177.109-457.084-194.104-34.885 37.569-120.756 243.301-125.229 305.916"/></g><path d="M427.602 2820.913c59.036-5.367 212.889 39.357 225.412 89.449-95.71 11.628-217.361 2.683-225.412-89.45zm-52.775 50.986c43.83 31.307 67.087 80.504 142.224 98.393 110.022 27.73 350.64-66.192 75.137-172.636-77.82-30.413-132.384-62.614-219.15-33.096-1.789-128.807 138.646-692.336 198.577-779.101 140.435 22.362 460.662 182.476 642.244-40.252 172.636 9.84 39.357 110.917 148.485 255.824 56.353 74.243 112.706 139.54 237.04 160.114 93.921 16.1 273.714 10.734 365.846-14.312 136.857-35.78 171.742-70.665 175.32-224.517l151.17 33.99c-18.785 136.858-195 365.847-305.916 447.246-152.958 111.81-291.604 178.898-483.025 262.085-84.976 36.674-158.325 103.761-248.668 124.334-172.637 38.463-680.707 101.972-825.614 20.574-39.358-21.468-53.67-82.294-53.67-138.646M1626.22 2131.26c6.261-59.037 28.623-92.133 63.508-116.284 24.152 51.88-18.784 101.972-63.508 116.284m93.921-164.586c79.61 0 152.063 25.045 224.517 49.197 90.344 30.412 115.39 44.724 142.224 133.279 67.087 218.255-565.318 278.186-708.436-2.684-30.413-59.036-16.995-185.16 42.041-207.522 45.619-16.995 198.577 7.156 252.246 15.207-25.94 50.986-121.65 115.389-81.398 228.99 124.334 57.247 218.255-179.793 128.806-216.467m-730.798 10.734c.894-61.72-1.79-117.179 54.564-141.33 20.573 47.408-13.418 114.495-54.564 141.33m-393.576-42.041c4.473-62.615 90.344-268.347 125.229-305.916 125.228 16.995 374.791 135.068 457.084 194.104 14.312 106.445-42.04 179.793-139.54 180.687 57.247-56.353 85.87-144.013 31.307-218.255-110.917-8.05-122.545 95.71-135.963 234.356-104.655-5.367-266.558-16.1-338.117-84.976m-89.449-71.56c-33.096-91.238-33.096-233.462 107.339-245.09l-71.56 199.471c-18.783 42.936-18.783 33.096-35.779 45.62zm228.99-277.292c20.573-51.88 32.201-86.765 64.403-132.384 110.917-155.641 133.279-244.196 252.246-318.439 127.018-78.715 536.694-29.518 676.235 15.207 238.828 76.926 356.007 108.233 444.561 313.966 72.454 169.953 121.65 446.35 123.44 631.51-157.43 4.472-148.486-33.096-195-62.615-111.81-70.664-457.978-131.49-609.147-132.384-254.035-.895-104.655 51.88-199.471 22.362-56.353-17.89-52.775-28.624-54.564-48.302-14.312-107.34-42.041-96.605-196.788-173.531-94.816-47.408-194.104-93.922-305.915-115.39m1583.247-43.83c-16.995-56.352 14.312-52.775 68.876-91.238 31.307-22.362 56.353-45.619 94.816-67.086 144.013-80.504 412.36-93.922 526.854 1.789 46.514 38.463 122.545 113.6 110.917 211.994-24.151 195.893-158.325 303.232-268.347 392.68-111.811 91.239-297.865 185.16-490.18 122.546-16.101-39.358-3.578-288.92-22.363-381.053-16.995-82.293-8.05-91.238 39.358-140.435 139.54-144.907 441.878-250.457 613.62-126.123 72.454 53.67 51.88 74.243 89.449 115.39 46.513-50.092-40.252-218.256-360.48-207.522-217.36 7.156-311.282 177.109-402.52 169.058m-1302.377-508.964c4.472-124.335 118.967-381.948 233.461-471.397 138.646-107.338 283.554-208.416 496.442-87.66 52.775 29.519 50.092 44.725 55.459 118.073 4.472 70.665-1.79 96.605-19.679 153.852-141.33 456.19-259.402 194.105-712.014 302.338 16.995-148.485 145.802-280.87 217.361-349.746 122.545-118.967 211.1-195.893 395.365-170.847 50.986 84.976 56.352 138.646-5.367 237.934-82.293 132.385-102.867 124.334-90.344 214.678 64.403-16.101 84.082-78.715 113.6-141.33 179.793-375.686-81.398-421.305-241.512-352.429-107.339 45.62-298.76 256.719-361.374 383.736-12.523 25.046-25.94 57.248-37.568 84.977zm708.436 18.784c18.784-111.811 129.7-139.54 129.7-483.92 0-148.485-182.475-281.764-421.304-182.475-204.838 84.082-236.145 148.485-345.273 313.071-102.867 155.642-99.289 326.49-187.843 470.502-25.94 41.147-49.197 55.458-77.82 96.605-20.574 30.413-35.78 68.876-56.354 104.655-42.04 68.876-84.976 118.968-118.967 201.26-107.339 2.684-197.682 4.473-208.416 115.39-14.312 152.063 57.247 189.632 57.247 246.879-.894 61.72-251.351 684.285-181.581 1055.498 19.679 101.972 86.765 102.867 194.104 115.39 258.508 31.307 593.942 20.573 825.614-72.454l420.41-201.26c106.445-59.931 285.343-173.532 364.953-256.72 56.353-58.141 85.87-107.338 134.173-176.214 66.192-96.605 67.981-94.816 82.293-226.306 87.66 16.101 251.352 54.564 305.916 101.972-6.262 61.72-36.674 32.202-36.674 87.66 34.885.895 93.027-42.935 107.339-91.238-36.675-53.67-75.138-44.724-127.913-87.66 42.042-33.096 118.073-48.302 176.215-72.453 125.229-51.88 339.012-209.311 391.787-352.43 42.04-115.389 10.734-307.704-57.248-382.841-71.559-78.715-237.934-118.967-373.897-118.967-161.902 0-329.172 116.283-459.767 166.375-50.092-43.83-53.67-93.922-90.344-142.224-42.04-57.248-315.755-200.366-446.35-228.095"/><path fill="#EFEBE9" d="M2318.554 1542.686c91.238 8.05 185.16-161.902 402.52-169.058 320.228-10.734 406.993 157.43 360.48 207.521-37.569-41.146-16.995-61.72-89.45-115.389-171.741-124.334-474.079-18.784-613.62 126.123-47.407 49.197-56.352 58.142-39.357 140.435 18.785 92.133 6.262 341.695 22.362 381.053 192.316 62.614 378.37-31.307 490.181-122.545 110.022-89.45 244.196-196.788 268.347-392.681 11.628-98.394-64.403-173.531-110.917-211.994-114.494-95.71-382.841-82.293-526.854-1.79-38.463 21.468-63.51 44.725-94.816 67.087-54.564 38.464-85.871 34.886-68.876 91.238m-1302.377-508.964 43.83-77.821c11.628-27.73 25.045-59.93 37.568-84.977 62.614-127.017 254.035-338.117 361.374-383.736 160.114-68.876 421.305-23.257 241.512 352.43-29.518 62.614-49.197 125.228-113.6 141.329-12.523-90.344 8.05-82.293 90.344-214.678 61.72-99.288 56.353-152.958 5.367-237.934-184.265-25.046-272.82 51.88-395.365 170.847-71.56 68.876-200.366 201.26-217.361 349.746 452.612-108.233 570.685 153.852 712.014-302.338 17.89-57.247 24.151-83.187 19.679-153.852-5.367-73.348-2.684-88.554-55.459-118.073-212.888-120.756-357.796-19.678-496.442 87.66-114.494 89.45-228.989 347.062-233.461 471.397"/><path fill="#EEE" d="M506.317 1863.808c16.996-12.523 16.996-2.683 35.78-45.619l71.559-199.47c-140.435 11.627-140.435 153.851-107.339 245.09z"/><path fill="#EFEBE9" d="M653.014 2910.362c-12.523-50.092-166.376-94.816-225.412-89.45 8.05 92.133 129.701 101.078 225.412 89.45"/></svg>