<svg width="32" height="32" version="1.1" viewBox="0 0 32 32" xmlns="http://www.w3.org/2000/svg">
 <path d="m16 2.172c-1.1311 0-2.0692 0.93802-2.0692 2.0692 0 1.1311 0.93802 2.0692 2.0692 2.0692 0.61048 0 1.1629-0.27653 1.5438-0.70588 0.84504 0.62138 1.7059 1.7822 2.3628 3.3812 0.81194 1.9762 1.3202 4.5697 1.3202 7.4064 0 2.3431-0.22594 3.925-0.89717 5.7063l1.9344 0.73013c0.76338-2.0259 1.0319-3.9515 1.0319-6.4365 0-3.0811-0.53724-5.9137-1.4737-8.1931-0.91582-2.229-2.204-3.9735-3.9255-4.7795-0.32138-0.7308-1.0558-1.2474-1.8967-1.2474zm-6.388 4.9978c-0.68525 0.012374-1.3331 0.090245-1.9398 0.23709-1.3868 0.33565-2.5839 1.0829-3.2708 2.2577-0.44822 0.76338-0.84926 1.7074-0.96991 2.7616-0.1208 1.0554 0.076932 2.254 0.84868 3.2681l1.6462-1.2528c-0.41457-0.54472-0.51493-1.1162-0.43916-1.7782 0.07577-0.66199 0.36308-1.3791 0.70049-1.9533v-0.0027c0.36151-0.61837 0.97944-1.0503 1.9722-1.2905 0.99272-0.24027 2.3308-0.24242 3.8824 0.048496l0.38258-2.0341c-0.98949-0.18553-1.9317-0.27724-2.8128-0.26134zm13.148 0.24248v2.0692c0.9656 0 1.6575 0.10509 2.123 0.29906 0.46553 0.19397 0.74903 0.44019 1.0427 0.96453l0.0028 0.0081 0.0054 0.0054c0.35031 0.6072 0.41424 1.3692 0.11855 2.3601-0.2957 0.99096-0.97101 2.1592-2.0018 3.3381l1.5573 1.3633c1.1763-1.3454 2.0162-2.7305 2.4275-4.1087 0.41026-1.3753 0.37287-2.7948-0.3072-3.9794-0.47891-0.85338-1.1928-1.5017-2.0504-1.859-0.85873-0.3578-1.8143-0.46071-2.9178-0.46071zm-4.1572 0.24787c-2.2368 0.34297-4.0613 1.2064-6.2479 2.4814-2.7327 1.5636-4.9671 3.4719-6.4957 5.4423-1.4864 1.916-2.3583 3.9151-2.1446 5.8168-0.41618 0.37809-0.68163 0.92342-0.68163 1.5303 0 1.1311 0.93802 2.0692 2.0692 2.0692 1.1311 0 2.0692-0.93802 2.0692-2.0692 0-0.91445-0.59723-1.687-1.4145-1.9614-0.031618-1.0732 0.5294-2.5619 1.7378-4.1194 1.3234-1.7058 3.3639-3.468 5.8868-4.9115l0.0054-0.0027 0.0028-0.0027c2.1131-1.2327 3.6273-1.937 5.5257-2.2281zm-2.6026 6.8568c-1.1311 0-2.0692 0.93802-2.0692 2.0692 0 1.1449 0.93802 2.0692 2.0692 2.0692s2.0692-0.92422 2.0692-2.0692c0-1.1311-0.93802-2.0692-2.0692-2.0692zm-7.2151 2.7454-1.5168 1.4064c1.4348 1.5496 2.8672 2.7088 5.0705 3.974h0.0027c2.6555 1.5215 5.3631 2.4699 7.797 2.8181 2.2355 0.31984 4.2628 0.16013 5.8141-0.6978 0.28688 0.15127 0.60993 0.23709 0.94566 0.23709 1.1311 0 2.0692-0.9656 2.0692-2.0692 0-1.1449-0.93802-2.0692-2.0692-2.0692-1.1311 0-2.0692 0.92422-2.0692 2.0692 0 0.02862 0.0015 0.05787 0.0028 0.08621-0.98061 0.47439-2.5348 0.66286-4.3996 0.39605-2.1217-0.30355-4.6131-1.162-7.0615-2.5649-2.073-1.1903-3.2615-2.156-4.5856-3.586zm3.0983 5.9946-1.9452 0.70319c0.60263 1.6683 1.4037 3.0854 2.4113 4.1329 1.0076 1.0476 2.273 1.7351 3.6641 1.7351 0.89036 0 1.7646-0.18836 2.5326-0.67086 0.76792-0.4825 1.3961-1.2109 1.991-2.1823l-1.7647-1.0804c-0.49484 0.80803-0.9271 1.2594-1.3282 1.5114-0.40115 0.25205-0.80361 0.35294-1.4306 0.35294-0.71942 0-1.4403-0.33898-2.1742-1.1019-0.73389-0.76295-1.4275-1.937-1.956-3.4001z" color="#000000" fill="#00b8d4" stroke-width="1.3794" style="-inkscape-stroke:none"/>
</svg>
