<svg width="17" height="18" viewBox="0 0 17 18" fill="none" xmlns="http://www.w3.org/2000/svg">
<path d="M8.5 18C6.97693 18 5.61803 16.65 4.76073 14.337C4.69689 14.157 4.78809 13.95 4.97961 13.896C5.16202 13.824 5.36266 13.923 5.4265 14.103C6.16524 16.11 7.31438 17.307 8.5 17.307C9.3573 17.307 10.2055 16.695 10.8895 15.579C10.9898 15.417 11.1996 15.363 11.3729 15.462C11.537 15.561 11.5917 15.777 11.4914 15.939C10.6706 17.271 9.61266 18 8.5 18ZM12.066 14.148C12.0295 14.148 11.993 14.139 11.9657 14.13C11.7741 14.067 11.6921 13.878 11.7285 13.689C12.1481 12.429 12.3487 10.962 12.3487 9.45C12.3487 5.985 11.2087 2.916 9.5853 1.926C9.3573 2.25 8.95601 2.502 8.5 2.502C7.80687 2.502 7.2323 1.944 7.2323 1.251C7.2323 0.558 7.80687 0 8.5 0C9.20225 0 9.77682 0.549 9.78594 1.233C11.7194 2.25 13.0601 5.589 13.0601 9.45C13.0601 11.025 12.8321 12.564 12.4034 13.905C12.3578 14.049 12.221 14.148 12.066 14.148ZM8.5 0.693C8.18991 0.693 7.93455 0.945 7.93455 1.251C7.93455 1.557 8.19903 1.8 8.5 1.8C8.81921 1.8 9.08369 1.557 9.08369 1.251C9.08369 0.945 8.81921 0.693 8.5 0.693ZM1.27682 14.886C0.574571 14.886 0 14.319 0 13.635C0 13.194 0.237124 12.798 0.592811 12.573C0.465129 10.404 2.73605 7.569 6.21996 5.598C7.67006 4.788 9.18401 4.203 10.6159 3.906C10.78 3.861 10.9898 3.978 11.0263 4.167C11.0719 4.356 10.9533 4.545 10.78 4.581C9.41202 4.869 7.96191 5.427 6.58476 6.201C3.44742 7.974 1.29506 10.512 1.29506 12.384C1.9882 12.393 2.57189 12.951 2.57189 13.635C2.57189 14.328 1.97908 14.886 1.27682 14.886ZM1.27682 13.077C0.966738 13.077 0.711373 13.329 0.711373 13.635C0.711373 13.95 0.966738 14.193 1.27682 14.193C1.58691 14.193 1.85139 13.95 1.85139 13.635C1.85139 13.329 1.58691 13.077 1.27682 13.077ZM14.4281 10.296C14.3643 10.296 14.2822 10.269 14.2183 10.215C14.0724 10.089 14.0542 9.873 14.1819 9.72C15.5864 8.1 16.0697 6.534 15.4678 5.526C15.0392 4.797 14.0633 4.392 12.7226 4.374C12.522 4.374 12.367 4.212 12.3761 4.023C12.3761 3.834 12.5402 3.69 12.7318 3.681C14.3278 3.699 15.5225 4.23 16.0789 5.175C16.845 6.471 16.3433 8.289 14.72 10.17C14.647 10.251 14.5467 10.296 14.4281 10.296ZM12.6041 15.21C10.78 15.21 8.44528 14.544 6.21996 13.293C4.80633 12.492 3.54775 11.511 2.57189 10.467C2.43509 10.323 2.44421 10.107 2.57189 9.972C2.73605 9.846 2.95494 9.855 3.09174 9.999C4.01288 10.989 5.21674 11.925 6.57564 12.69C9.59442 14.4 12.8503 14.967 14.5649 14.148C14.492 13.995 14.4281 13.815 14.4281 13.635C14.4281 12.942 15.0209 12.384 15.7232 12.384C16.4254 12.384 17 12.942 17 13.635C17 14.328 16.4254 14.886 15.7232 14.886C15.4678 14.886 15.2398 14.814 15.0392 14.688C14.4008 15.039 13.5708 15.21 12.6041 15.21ZM15.3401 14.067C15.4587 14.139 15.5864 14.193 15.7232 14.193C16.0424 14.193 16.2977 13.95 16.2977 13.635C16.2977 13.329 16.0424 13.077 15.7232 13.077C15.404 13.077 15.1577 13.329 15.1577 13.635C15.1577 13.761 15.2033 13.878 15.2763 13.977C15.3128 13.995 15.3401 14.031 15.3401 14.067ZM1.62339 9C1.50483 9 1.38627 8.928 1.32243 8.82C0.50161 7.425 0.364807 6.129 0.930258 5.166C1.69635 3.87 3.55687 3.384 6.04667 3.825C6.21996 3.861 6.36588 4.05 6.3294 4.23C6.30204 4.419 6.11964 4.545 5.92811 4.5C3.77575 4.131 2.11588 4.5 1.54131 5.517C1.10354 6.255 1.24034 7.299 1.93348 8.469C2.02468 8.64 1.96996 8.847 1.79667 8.946C1.74195 8.973 1.68723 9 1.62339 9ZM8.69152 10.26C8.23552 10.35 7.77951 10.071 7.6883 9.621C7.58798 9.18 7.87983 8.739 8.32672 8.64C8.78273 8.55 9.23873 8.829 9.32994 9.279C9.41202 9.72 9.13841 10.161 8.69152 10.26Z" fill="#B2EBF2"/>
</svg>
