<svg xmlns="http://www.w3.org/2000/svg" viewBox="0 0 24 24" version="1.1"> <path d="M 9.27 6.6 C 6.87 6.15 5 6.56 4.24 7.86 3.67 8.83 3.24 10.27 4.1 11.4" fill="none" stroke="#80deea" stroke-width="1.5px" /> <path d="M 6.22 13.5 c 1 1.08 1.95 1.85 3.5 2.74 3.7 2.12 7.54 2.62 9.37 1.39" fill="none" stroke="#80deea" stroke-width="1.5px" /> <path d="M 18.4 12.9 C 20 11.07 20.6 9.2 19.85 7.9 19.29 6.9 18.4 6.6 16.9 6.6" fill="none" stroke="#80deea" stroke-width="1.5px" /> <path d="M 14 6.77 C 12.5 7 11.29 7.57 9.73 8.48 5.92 10.66 3.53 13.8 3.85 16" fill="none" stroke="#80deea" stroke-width="1.5px" /> <path d="m 8.31 17.59 c 0.82 2.27 2.17 3.76 3.7 3.76 1.1 0 1.85 -0.42 2.64 -1.71" fill="none" stroke="#80deea" stroke-width="1.5px" /> <path d="M 15.84 16.76 c 0.52 -1.38 0.7 -2.65 0.7 -4.4 0 -4.29 -1.52 -7.87 -3.55 -8.76" fill="none" stroke="#80deea" stroke-width="1.5px" /> <path d="M 19.9 15.6 c -0.82 0 -1.5 0.67 -1.5 1.5 0 0.83 0.7 1.5 1.5 1.5 0.82 0 1.5 -0.7 1.5 -1.5 C 21.4 16.27 20.72 15.6 19.9 15.6 Z" fill="#80deea" /> <path d="M 4.1 15.6 C 3.28 15.6 2.6 16.27 2.6 17.1 2.6 17.92 3.28 18.6 4.1 18.6 4.92 18.6 5.6 17.92 5.6 17.1 5.6 16.27 4.92 15.6 4.1 15.6 Z" fill="#80deea" /> <path d="M 12,2.05 c -0.82,0 -1.5,0.68 -1.5,1.5 0,0.82 0.68,1.5 1.5,1.5 0.82,0 1.5,-0.68 1.5,-1.5 0,-0.82 -0.68,-1.5 -1.5,-1.5 Z" fill="#80deea" /> <path d="M 12 11 c -0.82 0 -1.5 0.68 -1.5 1.5 C 10.5 13.33 11.18 14 12 14 12.82 14 13.5 13.33 13.5 12.5 13.5 11.68 12.82 11 12 11 Z" fill="#80deea" /></svg>
