<?xml version="1.0" encoding="UTF-8" standalone="no"?>
<!DOCTYPE svg PUBLIC "-//W3C//DTD SVG 1.1//EN" "http://www.w3.org/Graphics/SVG/1.1/DTD/svg11.dtd">
<svg width="100%" height="100%" viewBox="0 0 24 24" version="1.1" xmlns="http://www.w3.org/2000/svg" xml:space="preserve" style="fill-rule:evenodd;clip-rule:evenodd;stroke-linejoin:round;stroke-miterlimit:2;">
    <g>
        <path d="M9.104,6.338c-2.549,-0.459 -4.64,-0.022 -5.447,1.362c-0.599,1.027 -0.389,2.399 0.445,3.838" style="fill:none;stroke:#80deea;stroke-width:1.04px;"/>
        <path d="M5.483,13.383c1.055,1.147 2.453,2.261 4.1,3.203c3.927,2.245 8.004,2.782 9.94,1.475" style="fill:none;stroke:#80deea;stroke-width:1.04px;"/>
        <ellipse cx="20.373" cy="17.435" rx="1.059" ry="1.048" style="fill:none;stroke:#80deea;stroke-width:1.04px;"/>
        <path d="M18.805,13.053c1.669,-1.951 2.327,-3.958 1.522,-5.339c-0.589,-1.01 -1.862,-1.516 -3.497,-1.537" style="fill:none;stroke:#80deea;stroke-width:1.04px;"/>
        <path d="M14.491,6.429c-1.544,0.327 -3.235,0.972 -4.9,1.923c-4.043,2.311 -6.582,5.663 -6.237,7.988" style="fill:none;stroke:#80deea;stroke-width:1.04px;"/>
        <ellipse cx="3.627" cy="17.435" rx="1.059" ry="1.048" style="fill:none;stroke:#80deea;stroke-width:1.04px;"/>
        <path d="M8.083,18.016c0.873,2.412 2.3,3.984 3.913,3.984c1.169,-0 2.24,-0.826 3.074,-2.198" style="fill:none;stroke:#80deea;stroke-width:1.04px;"/>
        <path d="M16.076,17.522c0.463,-1.463 0.73,-3.193 0.73,-5.046c0,-4.548 -1.61,-8.351 -3.763,-9.297" style="fill:none;stroke:#80deea;stroke-width:1.04px;"/>
        <ellipse cx="12" cy="3.048" rx="1.059" ry="1.048" style="fill:none;stroke:#80deea;stroke-width:1.04px;"/>
        <ellipse cx="12" cy="12.576" rx="0.962" ry="0.953" style="fill:none;stroke:#80deea;stroke-width:1.04px;"/>
    </g>
</svg>
