<?xml version="1.0" encoding="UTF-8" standalone="no"?>
<!-- Generator: Adobe Illustrator 17.1.0, SVG Export Plug-In . SVG Version: 6.00 Build 0)  -->

<svg
   xmlns:dc="http://purl.org/dc/elements/1.1/"
   xmlns:cc="http://creativecommons.org/ns#"
   xmlns:rdf="http://www.w3.org/1999/02/22-rdf-syntax-ns#"
   xmlns:svg="http://www.w3.org/2000/svg"
   xmlns="http://www.w3.org/2000/svg"
   xmlns:sodipodi="http://sodipodi.sourceforge.net/DTD/sodipodi-0.dtd"
   xmlns:inkscape="http://www.inkscape.org/namespaces/inkscape"
   version="1.1"
   id="Layer_1"
   x="0px"
   y="0px"
   viewBox="0 0 323.00001 322.99999"
   enable-background="new 0 0 323.141 322.95"
   xml:space="preserve"
   sodipodi:docname="elm.svg"
   width="323"
   height="323"
   inkscape:version="0.92.1 r15371"><metadata
     id="metadata23"><rdf:RDF><cc:Work
         rdf:about=""><dc:format>image/svg+xml</dc:format><dc:type
           rdf:resource="http://purl.org/dc/dcmitype/StillImage" /><dc:title /></cc:Work></rdf:RDF></metadata><defs
     id="defs21" /><sodipodi:namedview
     pagecolor="#ffffff"
     bordercolor="#666666"
     borderopacity="1"
     objecttolerance="10"
     gridtolerance="10"
     guidetolerance="10"
     inkscape:pageopacity="0"
     inkscape:pageshadow="2"
     inkscape:window-width="1366"
     inkscape:window-height="705"
     id="namedview19"
     showgrid="false"
     inkscape:zoom="0.73076325"
     inkscape:cx="-15.222317"
     inkscape:cy="161.47501"
     inkscape:window-x="-8"
     inkscape:window-y="-8"
     inkscape:window-maximized="1"
     inkscape:current-layer="g16" /><g
     id="g16"
     transform="matrix(0.80529455,0,0,0.80529455,30.105509,31.52393)"><polygon
       points="161.649,152.782 231.514,82.916 91.783,82.916 "
       id="polygon2"
       style="fill:#f0ad00"
       transform="matrix(0.97371938,0,0,0.97371938,3.3985881,5.0978823)" /><polygon
       points="161.838,0 8.867,0 79.241,70.375 232.213,70.375 "
       id="polygon4"
       style="fill:#7fd13b"
       transform="matrix(0.97371938,0,0,0.97371938,3.3985881,5.0978823)" /><rect
       x="234.7083"
       y="-110.22738"
       transform="rotate(45)"
       width="104.84521"
       height="105.3233"
       id="rect6"
       style="fill:#7fd13b;stroke-width:0.97371006" /><polygon
       points="323.298,143.724 323.298,0 179.573,0 "
       id="polygon8"
       style="fill:#60b5cc"
       transform="matrix(0.97371938,0,0,0.97371938,3.3985881,5.0978823)" /><polygon
       points="152.781,161.649 0,8.868 0,314.432 "
       id="polygon10"
       style="fill:#5a6378"
       transform="matrix(0.97371938,0,0,0.97371938,3.3985881,5.0978823)" /><polygon
       points="255.522,246.655 323.298,314.432 323.298,178.879 "
       id="polygon12"
       style="fill:#f0ad00"
       transform="matrix(0.97371938,0,0,0.97371938,3.3985881,5.0978823)" /><polygon
       points="161.649,170.517 8.869,323.298 314.43,323.298 "
       id="polygon14"
       style="fill:#60b5cc"
       transform="matrix(0.97371938,0,0,0.97371938,3.3985881,5.0978823)" /></g></svg>