<svg viewBox="0 0 24 24" xmlns="http://www.w3.org/2000/svg"><path d="M 12.78 4 c 1.79 -0.03 3.18 0.35 4.12 1.99 2.36 5.88 -6.08 8.92 -6.42 9.04 h -0.01 c 0 0 -0.25 1.6 2.17 1.54 2.98 0 6.1 -2.31 7.3 -3.3 0.29 -0.23 0.71 -0.21 0.97 0.06 l 0.89 0.93 c 0.25 0.27 0.26 0.69 0.02 0.97 -0.77 0.87 -2.59 2.65 -5.33 3.79 0 0 -4.57 2.13 -7.65 0.12 -1.83 -1.2 -2.34 -2.64 -2.55 -4.13 0 0 -2.23 -0.12 -3.66 -0.67 -1.44 -0.57 0.01 -2.26 0.01 -2.26 0 0 0.44 -0.71 1.28 0 0.83 0.71 2.4 0.39 2.4 0.39 C 6.46 11.36 6.69 9.9 7.38 8.36 8.81 5.14 11 4.04 12.78 4 Z m 1.05 3.24 c -0.94 -0.91 -3.67 0.91 -3.78 5.09 0 0 0.81 0.24 2.58 -0.98 1.79 -1.23 2.13 -3.19 1.19 -4.11 Z" fill="#FF5722"/></svg>
