<svg xmlns="http://www.w3.org/2000/svg" viewBox="0 0 32 32">
  <path d="M22.71281,4H9.28719a.5.5,0,0,0-.43189.24806l-6.70834,11.5a.5.5,0,0,0,0,.50388l6.70834,11.5A.5.5,0,0,0,9.28719,28H22.71281a.5.5,0,0,0,.43189-.24806l6.70834-11.5a.5.5,0,0,0,0-.50388l-6.70834-11.5A.5.5,0,0,0,22.71281,4ZM15.77639,24.8882l-7.5-3.75A.5.5,0,0,1,8,20.691V11.309a.5.5,0,0,1,.27639-.44722l7.5-3.75a.5.5,0,0,1,.44722,0l7.5,3.75A.5.5,0,0,1,24,11.309v9.382a.5.5,0,0,1-.27639.44722l-7.5,3.75A.5.5,0,0,1,15.77639,24.8882Z" style="fill: #3f51b5"/>
  <path d="M22,19.441V12.559a.5.5,0,0,0-.27639-.44722l-5.5-2.75a.5.5,0,0,0-.44722,0l-5.5,2.75A.5.5,0,0,0,10,12.559v6.882a.5.5,0,0,0,.27639.44722l5.5,2.75a.5.5,0,0,0,.44722,0l5.5-2.75A.5.5,0,0,0,22,19.441Z" style="fill: #7986cb"/>
</svg>
