<svg width="300" height="300" viewBox="0 0 300 300" fill="none" xmlns="http://www.w3.org/2000/svg">
<path d="M97.4785 120.861L147.577 91.9376C148.83 91.2135 150.376 91.2135 151.629 91.9376L201.728 120.861C202.981 121.586 203.755 122.923 203.755 124.371V182.219C203.755 183.666 202.981 185.005 201.728 185.73L151.629 214.654C150.376 215.378 148.83 215.378 147.577 214.654L97.4785 185.73C96.2249 185.006 95.4521 183.667 95.4521 182.219V124.371C95.4532 122.923 96.2259 121.586 97.4785 120.861" fill="#7389FF"/>
<path d="M279.863 147.211L220.005 43.0777C217.831 39.3125 213.814 36.5352 209.467 36.5352H89.7452C85.3966 36.5352 81.379 39.3125 79.2047 43.0777L19.347 146.983C17.1727 150.749 17.1727 155.503 19.347 159.269L79.2047 262.551C81.379 266.316 85.3966 268.241 89.7452 268.241H209.467C213.814 268.241 217.832 266.374 220.005 262.607L279.863 159.157C282.039 155.393 282.039 150.978 279.864 147.213L279.863 147.211ZM230.298 197.288C230.298 198.819 229.377 200.235 228.05 201.002L151.804 244.992C150.478 245.757 148.817 245.757 147.491 244.992L71.186 201.002C69.8599 200.235 68.932 198.82 68.932 197.288V109.307C68.932 107.775 69.8465 106.36 71.1736 105.594L147.416 61.6038C148.742 60.8373 150.401 60.8373 151.727 61.6038L228.037 105.594C229.364 106.36 230.298 107.775 230.298 109.307V197.288Z" fill="#7389FF"/>
</svg>
