<svg xmlns="http://www.w3.org/2000/svg" viewBox="0 0 32 32"><path fill="#3f51b5" d="M22.713 4H9.287a.5.5 0 0 0-.432.248l-6.708 11.5a.5.5 0 0 0 0 .504l6.708 11.5a.5.5 0 0 0 .432.248h13.426a.5.5 0 0 0 .432-.248l6.708-11.5a.5.5 0 0 0 0-.504l-6.708-11.5A.5.5 0 0 0 22.713 4Zm-6.937 20.888-7.5-3.75A.5.5 0 0 1 8 20.691v-9.382a.5.5 0 0 1 .276-.447l7.5-3.75a.5.5 0 0 1 .448 0l7.5 3.75a.5.5 0 0 1 .276.447v9.382a.5.5 0 0 1-.276.447l-7.5 3.75a.5.5 0 0 1-.448 0Z"/><path fill="#7986cb" d="M22 19.441v-6.882a.5.5 0 0 0-.276-.447l-5.5-2.75a.5.5 0 0 0-.448 0l-5.5 2.75a.5.5 0 0 0-.276.447v6.882a.5.5 0 0 0 .276.447l5.5 2.75a.5.5 0 0 0 .448 0l5.5-2.75a.5.5 0 0 0 .276-.447Z"/></svg>