<svg xmlns="http://www.w3.org/2000/svg" xml:space="preserve" viewBox="0 0 16 16">
<path d="M2 2V14H14V2H2ZM3 3H13V13H3V3Z" fill="#0080FF"/>
<path d="M6.65 8.5H7.55V12.5H8.45V8.5H9.35V7.5H6.65V8.5ZM10.7 7.5C10.4615 7.50079 10.2332 7.60658 10.0645 7.79395C9.89594 7.98131 9.80072 8.23503 9.8 8.5V9.5C9.80072 9.765 9.89594 10.0187 10.0645 10.2061C10.2332 10.3934 10.4615 10.4992 10.7 10.5H11.6V11.5H9.8V12.5H11.6C11.8385 12.4992 12.0668 12.3934 12.2355 12.2061C12.4041 12.0187 12.4993 11.765 12.5 11.5V10.5C12.4993 10.235 12.4041 9.9813 12.2355 9.7939C12.0668 9.6066 11.8385 9.5008 11.6 9.5H10.7V8.5H12.5V7.5H10.7ZM3.5 12.5H6.2V11.5H4.4V10.5H6.2V9.5H4.4V8.5H6.2V7.5H3.5V12.5Z" fill="#0080FF"/>
</svg>
