<svg xmlns="http://www.w3.org/2000/svg" xml:space="preserve" viewBox="0 0 16 16">
<path d="M14 14H2V2H14V14ZM6.5 9H7.5V13H8.5V9H9.5V8H6.5V9ZM11 8C10.735 8.00079 10.4813 8.10658 10.2939 8.29395C10.1066 8.48131 10.0008 8.73503 10 9V10C10.0008 10.265 10.1066 10.5187 10.2939 10.7061C10.4813 10.8934 10.735 10.9992 11 11H12V12H10V13H12C12.265 12.9992 12.5187 12.8934 12.7061 12.7061C12.8934 12.5187 12.9992 12.265 13 12V11C12.9992 10.735 12.8934 10.4813 12.7061 10.2939C12.5187 10.1066 12.265 10.0008 12 10H11V9H13V8H11ZM3 13H6V12H4V11H6V10H4V9H6V8H3V13Z" fill="#0080FF"/>
</svg>
