<?xml version="1.0" encoding="UTF-8"?><svg id="Layer_1" xmlns="http://www.w3.org/2000/svg" viewBox="0 0 32 32"><defs><style>.cls-1{fill:none;}.cls-2{fill:#6965db;}</style></defs><rect class="cls-1" x="0" width="32" height="32"/><path class="cls-2" d="M27.95,24.62s-.1-.06-.16-.04c-1.25-1.93-2.85-3.77-4.4-5.54l-.25-.29s-.01-.07-.04-.09c-.03-.03-.06-.06-.1-.06l-.05-.06-.04-.03c-.04-.1-.16-.18-.28-.11-.47,.25-.9,.62-1.32,.95-.56,.45-1.11,.91-1.62,1.41-.21,.2-.42,.42-.59,.65-.08,.12-.02,.23,.08,.27-.37,.38-.73,.77-1.1,1.17-.03,.04-.05,.09-.05,.14s.03,.1,.07,.13l.65,.52s0,0,0,.01c.93,.95,2.55,2.28,4.27,3.68,.25,.21,.51,.42,.77,.63,.12,.15,.23,.29,.34,.44,.06,.08,.16,.09,.24,.03,.04,.03,.08,.07,.12,.1,.07,.06,.18,.05,.24-.03,0,0,0,0,0,0,.02-.03,.03-.06,.03-.1,.01,0,.02,0,.03,0,.04,0,.09-.02,.13-.06l3.05-3.48c.06-.07,.06-.18,0-.25,0,0,0,0,0,0h0Zm-8.75-1.21s.04,.05,.06,.08c.35,.31,.72,.64,1.1,.98l-1.53-1.22s-.1-.07-.16-.11c-.03-.03-.06-.05-.09-.08l-.11-.1s.02-.02,.03-.03l.1-.11c.51-.54,1.4-1.45,1.85-1.89-.48,.51-1.46,1.99-1.25,2.49h0Zm5.25,4.32l-1.26-1.01c-.49-.53-1.03-1.06-1.57-1.57,.68,.55,1.27,1.02,1.35,1.1,.66,.62,.63,.5,1.09,.91l.55,.42c-.05,.05-.11,.1-.16,.15h0Zm.32,.27l-.02-.02s.1-.08,.15-.12l-.12,.14h0ZM4.72,7.57c.04,.24,.08,.46,.12,.67,.21,1.16,.4,2.2,.76,2.99l.14,.6c.06,.23,.14,.51,.21,.57,.85,.79,2.16,1.96,3.56,3.07,.06,.05,.15,.05,.21,0,0,0,0,0,.01,.01,.03,.03,.07,.05,.11,.05,.05,0,.09-.02,.13-.06,1.79-2.08,3.12-3.79,4.07-5.22,.06-.08,.09-.17,.09-.26,.06-.08,.12-.15,.18-.21,.06-.07,.06-.18,0-.25,0,0-.02-.02-.03-.02,0-.04-.02-.08-.05-.11-.42-.42-.72-.72-1.04-1.03-.55-.54-1.12-1.09-2.33-2.35,0,0-.01-.01-.02-.02-.02-.02-.04-.03-.07-.04-.33-.12-1.01-.24-1.87-.4-1.26-.23-2.99-.54-4.55-1.03h-.01s0,0,0,.03h0v-.03s-.08,0-.1,.01c-.02,.01-.04,.03-.06,.05s-.03,.04-.14,.06,.02,0,.03,0h-.05s.03,.18,.06,.31c0,.03,.06,.32,.07,.35l.55,2.26h0Zm9.27,2.06s0,.01-.01,.02l-.19-.22c.07,.07,.13,.13,.2,.21Zm-2.12,2.93s-.02,.03-.03,.04h0s.02-.03,.04-.04h0Zm-1.21-6.27c.1,.11,.52,.52,.62,.62-.43-.21-1.51-.73-2.02-.9,.49,.09,1.18,.21,1.4,.28h0Zm-5.74-.88c.25,.45,.45,2.03,.65,3.56-.11-.49-.21-.98-.3-1.44-.16-.8-.3-1.52-.5-2.15,.04,0,.09,0,.15,.02,0,0,0,0,0,0h0Zm-.08-.36c-.07,0-.13-.01-.19-.02,0-.01,0-.03-.01-.04l.2,.06h0Zm-.67,.14h0s0,0,0,0Zm23.51-.37c.01-.07-.33-.39-.22-.39,.25-.01,.26-.42,0-.41-.34,.02-.68,.1-1.01,.17-.59,.12-1.18,.24-1.77,.38-1.31,.29-2.63,.6-3.92,.97-.41,.12-.86,.22-1.23,.43-.13,.07-.12,.21-.05,.3-.03,.02-.05,.03-.08,.03-.11,.02-.22,.04-.33,.06-.09,.02-.16,.11-.14,.2,0,.02,.01,.05,.02,.07-.69,.97-1.49,2.01-2.34,3.11-.84,1-1.72,2.07-2.61,3.17-2.82,3.46-6.01,7.38-9.55,10.83-.07,.07-.07,.18,0,.25,.01,.02,.04,.03,.06,.04-.05,.05-.1,.09-.14,.14-.03,.03-.04,.06-.05,.1-.02,.03-.05,.05-.07,.08-.06,.07-.06,.18,0,.25s.18,.06,.24,0c.01-.01,.02-.03,.04-.04,.1-.11,.25-.11,.36-.01,0,0,0,0,0,.01,.21,.23,.4,.45,.58,.65l-.41-.36c-.07-.06-.18-.05-.24,.02-.06,.08-.05,.19,.02,.25l4.44,3.89s.07,.04,.11,.04c.04,0,.09-.02,.12-.05l.11-.11c.06,.03,.14,.02,.19-.04,6.02-6.31,10.86-11.07,16.41-15.33,.05-.04,.07-.1,.07-.16,.07,0,.12-.06,.14-.12,1.02-3.27,1.22-6.16,1.28-7.59,0,0,0-.02,0-.02,0-.02,0-.03,.01-.04,0-.03,.01-.06,.01-.06,.08-.24,.05-.48-.04-.67h0s0,0,0,0Zm-10.76,5.12c.27-.32,.54-.64,.8-.94-1.72,2.37-4.58,6.02-8.63,10.36,2.75-3.18,5.53-6.48,7.83-9.41h0ZM7.17,26.43h0s.06,0,.06,0c-.02,0-.03,0-.05,0h0Zm2.07,2.01h-.01s0-.02,0-.02c0,0,0,0,.01,0,0,0,0,0,0,.02h0Zm2.5-2.24l.41-.45s0,0,0,.02c-.14,.14-.28,.29-.43,.43h0Zm.68-.71c.08-.09,.17-.2,.26-.32,0,0,0,0,.01-.01,.99-1.06,2-2.13,3.05-3.2,0,0,.01-.01,.02-.02,.26-.21,.54-.43,.81-.65-1.35,1.35-2.73,2.74-4.16,4.21h0Zm6.47-17.47c-.56,.76-1.17,1.74-1.69,2.52-1.63,2.47-6.9,8.53-7.02,8.64-.81,.82-3.26,3.27-4.82,4.8-.04,.04-.07,.08-.1,.11-.09-.1-.09-.26,0-.35,0,0,0,0,0,0,7.43-7.31,11.94-13.41,13.77-16.06-.04,.1-.07,.22-.16,.34h0Zm4.94,2.21h0s0-.02,0,0Zm-2.04,1.35c-.68-.41-.99-1.02-.81-1.64l.06-.21c.02-.06,.05-.12,.08-.18,.18-.31,.45-.58,.75-.74,.01,0,.03,0,.04-.01-.02-.04-.02-.09-.01-.13,.01-.1,.07-.18,.2-.18,.2,0,.82,.19,1.06,.41,.07,.06,.14,.13,.2,.2,.09,.11,.22,.29,.29,.42,.04,.02,.07,.19,.11,.28,.04,.14,.06,.29,.05,.44t0,0s0,.12-.01,.13c-.03,.23-.11,.45-.22,.64-.01,.02-.02,.03-.03,.05,0,0,0,0,0,.01-.09,.13-.19,.26-.32,.35-.38,.28-.82,.36-1.26,.25-.06-.02-.12-.05-.17-.08h0Zm4.87-.52c-.15,.64-.33,1.31-.54,1.99,0,.03,0,.05,0,.07-.03,0-.06,.02-.08,.03-1.33,1.02-2.61,2.07-3.89,3.16,1.1-1.04,2.21-2.07,3.36-3.11,.33-.3,.56-.72,.63-1.17l.17-1.05v-.03c.08-.22,.41-.13,.36,.1h0Z"/></svg>