<?xml version="1.0" encoding="UTF-8"?>
<svg width="16" height="16" fill="none" version="1.1" viewBox="0 0 16 16" xmlns="http://www.w3.org/2000/svg">
 <path d="m9.6963 2.6724c-0.5155-0.78764-0.63757-0.8926-1.6872-0.8926h-0.02488c-1.0497 0-1.1655 0.10496-1.6872 0.8926-0.4844 0.7402-5.295 9.583-5.295 9.8295 0.00783 0.4281 0.15679 0.8416 0.42376 1.1764 0.33744 0.4867 0.91981 0.7573 1.3436 0.3266 0.28768-0.2901 3.3745-5.6293 4.865-7.6486 0.04127-0.05856 0.09601-0.10635 0.15961-0.13933 0.06359-0.03298 0.13419-0.0502 0.20583-0.0502s0.14223 0.01722 0.20583 0.0502 0.11833 0.08077 0.15961 0.13933c1.4897 2.0192 4.5774 7.3585 4.865 7.6486 0.4238 0.4307 1.0062 0.1586 1.3436-0.3266 0.267-0.3348 0.4159-0.7483 0.4238-1.1764-0.0063-0.2465-4.8168-9.0963-5.3012-9.8295z" fill="#455a64"/>
</svg>
