<svg id="uuid-7f72da77-d42e-4b41-83d7-4e614f0b7549" xmlns="http://www.w3.org/2000/svg" viewBox="0 0 512 512"><path d="m54.55,304.14c0,29.48.01,58.96,0,88.43-.01,17.23,16.23,38.53,32.76,41.56,5.91,1.08,11.94,2.12,18.22,2.07,49.67-.35,99.34-.16,149.01-.15,5.33,0,11.06,6.02,11.6,11.58,1.05,10.82-7.08,16.02-15.44,15.98-48.71-.23-97.42-.3-146.13.03-11.37.08-22.25-1.07-32.67-5.6-15.42-6.71-27.13-17.52-35.66-31.98-5.99-10.15-8.26-21.33-9.53-32.78-.34-3.09.57-6.3.57-9.45.04-54,.42-108-.19-161.99-.2-18.16,4.23-34.11,14.75-48.69,6.82-9.46,16.27-15.76,25.62-22.21,15.05-10.37,30.01-20.91,45.31-30.9,15.25-9.96,30.25-20.32,45.33-30.51,14.85-10.04,29.46-20.5,44.45-30.32,14.57-9.54,30.81-12.78,48.35-10.55,10.72,1.36,20.68,4.56,29.62,10.15,7.45,4.66,14.74,9.7,22.03,14.67,15.03,10.25,30.08,20.47,45.11,30.7,15.22,10.37,30.46,20.71,45.66,31.13,11.64,7.98,23.49,15.68,34.74,24.17,15.6,11.77,24.78,27.52,27.51,47.09.65,4.63.75,9.18.75,13.76,0,6.79-5.54,12.4-12.6,13.1-6.02.59-12.48-4.42-14.36-10.32-1.63-5.13-.43-10.36-1.57-15.55-2.69-12.31-9.45-21.63-19.57-28.61-20.3-14-40.65-27.94-61.16-41.64-16.19-10.81-32.17-21.94-48.42-32.68-9.8-6.48-19.5-13.21-29.12-20-4.88-3.44-10.84-4.83-16.04-7.39-4.68-2.3-8.72-.85-12.95-1.56-9.57-1.61-17.3,3.05-24.58,7.65-13.85,8.75-27.1,18.44-40.6,27.73-8.13,5.6-16.25,11.22-24.42,16.78-19.21,13.07-38.45,26.07-57.65,39.15-7.95,5.42-15.9,10.86-23.68,16.52-5.27,3.82-7.4,9.95-10.36,15.42-5.65,10.45-4.46,21.86-4.47,33.08-.04,24.03-.01,48.07-.01,72.1-.07,0-.13,0-.2,0Z" style="fill:#27a4ff;"/><path d="m483.5,324.34c1.12,6.4,1.61,12.81,1.83,19.31.27,7.94-1.62,15.39-3.75,22.83-6.35,22.16-20.12,39.16-36.87,54.48-11.21,10.25-23.42,18.83-36.48,26.22-12.16,6.88-24.89,12.77-38.44,16.5-4.51,1.24-8.55-1.55-12.51-3.05-22.64-8.58-43.06-20.92-61.71-36.43-14.21-11.82-25.83-25.7-34.23-41.94-7.81-15.12-11.53-31.67-9.6-48.75,2.12-18.75,8.84-36.03,22.29-49.63,10.27-10.38,22.94-16.46,37.79-18.97,13.05-2.21,25.22.47,37.27,3.75,5.67,1.54,11.21,5.2,16.03,9.17,2.56,2.11,4.64,1.67,7.17-.14,12.76-9.11,26.88-13.58,42.74-13.58,19.48,0,35.58,7.36,48.93,20.9,9.28,9.41,15.1,21.07,18.21,33.9.43,1.78,3.34,3.11,1.33,5.43Zm-26.1,17.5c.31-13.24-3.66-25.76-12.13-36.11-11.27-13.77-26.73-15.7-43.2-11.98-8.79,1.98-15.66,7.3-22.11,13.45-9.05,8.63-15.36,7.63-23.34-.26-6.64-6.56-14.04-11.4-22.86-13.51-14.47-3.47-27.99-1.53-39.26,9.32-12.26,11.79-18.72,33.69-13.19,53.77,4.62,16.78,14.25,30.59,26.66,42.09,15.15,14.05,32.4,25.39,51.79,33.01,3.81,1.5,7.24,4.79,12.27,2.36,8.23-3.97,16.73-7.29,24.66-11.97,19.87-11.73,37.88-25.42,49.94-45.6,6.28-10.5,11.16-21.53,10.78-34.56Z" style="fill:#27a4ff;"/></svg>