<svg xmlns="http://www.w3.org/2000/svg" width="819" height="819" viewBox="0 0 819 819"><path fill="#ffffff" d="M308.645 9.767c77.84-2.61 159.43 20.114 189.252 99.912 1.575 4.214 4.41 10.354 5.303 14.544 11.216 5.504 18.652 9.292 27.174 18.345 14.876 15.8 14.373 34.39-1.325 48.983 17.461 34.812 45.426 64.383 48.023 104.833.675 10.504-.698 25.217-4.96 34.886q1.106.475 2.2.977c15.309 6.966 24.9 17.867 30.715 33.319a1518 1518 0 0 1 52.557 20.966c20.116 8.539 27.9 10.705 26.274 35.147-.287 4.303 0 11.131 0 15.729v68.138l-.013 140.135.013 44.166c.013 8.373.092 16.85-.026 25.21-.098 4.409-.796 8.19-3.24 11.887-5.342 8.08-13.218 8.36-21.95 10.345-7.864 1.796-16.034 3.181-24.13 4.637a3348 3348 0 0 1-67.766 11.476l-203.224 32.106c-8.678 1.052-18.51 2.94-27.266 4.304l-63.888 9.993c-4.522.692-9.213 1.515-13.66 2.09-9.641 1.234-18.968 4.069-28.662 1.81-5.933-1.379-10.546-4.547-15.672-7.616l-19.044-11.606-48.787-29.43c-18.822-11.396-38.555-23.126-57.295-34.816-5.288-3.305-7.539-12.005-7.59-18.092-.124-14.55-.064-29.252-.065-43.869l-.008-85.705.14-96.62.02-43.865c.025-3.812-.06-8.139-.09-11.988-.319-39.498 5.358-35.508 39.377-48.629 1.006-1.541 2.163-3.89 3.052-5.567-23.378-20.726-39.935-48.739-43.4-80.169-.67-6.08-.365-13.058-.326-19.241-2.484-1.408-5.391-2.339-7.888-3.754-22.078-12.585-39.278-32.605-39.3-59.08-.029-36.424 38.361-55.09 70.932-54.833 4.843-22.082 17.117-45.885 31.894-63.008 44.408-51.453 106.7-71.42 172.65-76.05"/><path d="M314.505 19.819c37.844-1.861 81.6 5.307 114.97 24.043 35.629 20.005 54.604 49.306 65.392 87.71 15.55 6.628 41.448 19.118 35.526 41.818-1.88 7.202-7.893 11.41-14.298 14.665 22.055 47.657 70.734 91.352 43.24 148.426 18.054 6.73 33.424 16.11 36.939 36.319 4.833 2.196 15.205 5.84 20.49 7.878a1964 1964 0 0 1 34.783 13.938c5.436 2.236 21.522 7.415 22.064 13.563 1.058 11.955.673 24.68.686 36.733l-.007 72.469.007 132.174-.02 43.107c-.006 7.903.033 15.864-.117 23.767-.053 2.567-.804 3.951-2.162 6.041-1.345 2.077-5.408 3.305-7.903 3.854-10.208 2.246-20.767 3.984-31.079 5.851a4070 4070 0 0 1-73.147 12.344l-139.574 22.043c-20.852 3.226-41.824 6.838-62.687 9.875-2.265.574-9.854 1.456-12.838 1.933l-31.695 5.088-43.661 6.812c-9.982 1.606-25.156 4.467-34.866 4.539-4.954.032-25.644-13.422-30.983-16.661l-41.161-24.825-42.313-25.608c-8.072-4.846-16.22-9.68-24.138-14.774-4.291-2.762-4.465-7.112-4.507-11.69-.062-6.766-.09-13.559-.127-20.338l.041-77.44.212-131.388c.02-21.75-.127-43.45.095-65.237.147-14.36 2.92-15.43 16.165-20.319 6.818-2.516 13.737-4.565 20.727-6.592 2.272-6.51 4.185-9.961 8.099-15.59-9.735-8.35-17.225-15.458-24.802-25.985-16.483-22.9-25.388-49.91-20.994-78.184-12.529-4.226-22.148-10.09-31.679-19.342-17.57-17.056-24.11-46.637-4.372-64.847 15.863-14.637 36.075-17.609 57.084-17.138C130.019 64.711 227.2 21.984 314.505 19.82"/><path fill="#ffcc80" d="M662.88 412.085c.17-.04.967.026 1.176.037.973 1.736.49 21.768.496 25.493l-.013 63.874.033 214.444c-9.797 2.175-20.447 3.86-30.377 5.603a4399 4399 0 0 1-56.844 9.575L433.24 753.983l-122.187 19.11-43.28 6.746c-5.788.915-30.205 5.61-34.516 3.847-1.439-3.56-.991-81.847-1.038-90.155l-.386-160.911-.185-50.234c-.004-8.868-.164-18.398.22-27.175 15.563-1.343 31.565-3.207 47.141-4.786l82.603-8.249c16.95-1.7 38.552-4.415 55.327-5.31 1.448 26.759 1.472 53.435 2.388 80.285.508 14.885 19.539 3.02 26.439.392 2.827-1.077 5.52-2.576 8.667-2.663 5.262-.097 9.785 1.981 15.085.752 5.169-1.198 11.127-5.545 16.351-5.302 7.264.338 14.524 3.05 21.877 3.043 4.648-.004 8.713-2.575 8.588-7.61.283-8.224.126-16.435.081-24.66q-.036-26.973-.91-53.932c4.653-.23 10.776-1.065 15.518-1.572l25.058-2.552q53.372-5.752 106.8-10.962"/><path fill="#ffffff" d="M246.738 192.687c11.538-5.516 24.08-8.552 35.89-13.398 57.095-23.422 120.75-37.72 180.93-16.863 15.925 5.52 36.651 16.694 44.127 32.995.437 1.001.446.985.488 2.104 3.833 3.782 10.41 17.699 13.713 22.979 20.769 33.184 48.19 72.78 26.464 112.997-25.648-4.392-66.79-5.882-78.321 23.556-7.729.295-15.696 1.06-23.443 1.616l-43.132 3.168-91.649 6.589c-15.053 1.123-32.706 2.99-47.58 3.547-12.255-37.438-59.44-40.363-91.259-29.54-7.19 2.446-17.888 6.862-23.79 11.769-.836.24-3.071 2.102-3.917 2.748-33.647-22.59-59.94-79.528-34.824-115.999 1.406-2.04 6.81-9.75 8.907-10.247l.109 1.623c1.753-3.22 4.829-7.15 7.544-9.733 8.313-7.91 25.573-19.98 35.703-24.629 3.976-1.824 25.852-5.693 30.66-6.326 2.792-.367 16.79.612 21.404.559 8.893-.101 17.819-1.415 26.618-1.237 1.385.027 3.985 1.158 5.358 1.722"/><path fill="#37474f" d="M246.738 192.687c11.538-5.516 24.08-8.552 35.89-13.398 57.095-23.422 120.75-37.72 180.93-16.863 15.925 5.52 36.651 16.694 44.127 32.995.437 1.001.446.985.488 2.104-14.374-10.296-26.73-18.645-45.725-15.358-33.078 5.726-48.378 42.843-52.363 72.501-1.406 10.536-1.906 18.796-6.96 28.142-1.552 2.85-3.927 7.388-6.349 9.557-20.358 18.23-56.16 14.919-73.37-5.692-9.046-8.016-16.334-24.852-22.002-35.94-12.6-24.65-29.314-45.55-54.666-58.048"/><path d="M323.406 286.675c-1.574-6.958-2.374-10.949 1.85-17.65 5.103-7.675 14.539-11.73 23.513-13.708 17.191-3.789 47.716.197 53.282 20.527.495 1.805.666 4.912 1.073 6.966-1.55 2.85-3.926 7.388-6.348 9.557-20.358 18.23-56.16 14.919-73.37-5.692"/><path fill="#ffffff" d="M343.818 266.421c2.796-.082 5.083-.093 6.837 2.297.723 3.903-3.068 4.618-6.03 5.182-2.822.025-4.991-.01-6.813-2.368-.788-3.982 3.02-4.506 6.006-5.11"/><path fill="#37474f" d="M145.259 356.954c-33.647-22.59-59.94-79.528-34.824-115.999 1.406-2.04 6.81-9.75 8.907-10.247l.109 1.623c-12.57 26.758-13.195 46.96-3.242 75.279 5.204 14.805 20.5 37.145 32.968 46.596-.837.24-3.072 2.102-3.918 2.748"/><path d="M490.515 287.577c-24.331 9.485-42.593-21.094-43.397-41.393-.51-12.914.613-25.688 9.023-36.192 9.35-11.678 23.956-11.198 34.362-1.653 11.512 10.548 18.484 27.212 19.422 42.59l.406 2.332.543.374c7.729-1.644 12.658-1.759 19.642 2.464 10.29 6.223 17.034 24.613 9.435 34.93-10.405 14.128-33.512 8.756-45.228.221a30.4 30.4 0 0 1-4.208-3.673"/><path fill="#ff4081" d="m509.925 250.93.406 2.331.543.374c7.729-1.644 12.658-1.759 19.642 2.464 10.29 6.223 17.034 24.613 9.435 34.93-10.405 14.128-33.512 8.756-45.228.221a30.4 30.4 0 0 1-4.208-3.673c15.037-6.09 20.051-21.602 19.41-36.648"/><path fill="#ffffff" d="M468.258 213.58c15.286-1.95 19.372 22.193 5.102 28.952-15.685 2.277-18.566-22.635-5.102-28.951"/><path d="M174.59 260.71c-1.673-10.382-1.596-20.196 1.775-30.284 4.068-12.17 12.73-22.974 26.063-25.02a30.4 30.4 0 0 1 23.04 5.776c20.658 15.415 26.234 52.716 10.463 73.346-10.568 13.825-26.736 17.1-41.628 8.106-11.697-9.363-16.14-17.074-19.714-31.924"/><path fill="#ffffff" d="M199.835 217.659c14.964 1 15.166 26.162-.311 30.34-16.697-.031-16.061-27.602.311-30.34"/><path fill="#ff4081" d="M194.303 292.634c-18.57 23.056-62.86 18.24-71.213-12.031-3.619-13.115 5.001-25.746 18.028-28.355 12.698-2.543 22.959 1.72 33.471 8.462 3.575 14.85 8.017 22.561 19.714 31.924"/><path d="M271.858 279.2c9.022-.752 18.222 3.396 10.947 12.926 19.464 29.67 65.2 37.665 97.621 30.05 17.634-4.142 36.419-12.806 46.336-28.654.121-3.647.359-8.093 3.822-10.266a5.49 5.49 0 0 1 4.477-.619c5.933 1.737 5.223 9.028 3.778 13.618-5.695 11.761-16.497 20.63-27.75 26.878-42.226 23.445-114.44 16.527-139.37-29.164-7.523-4.186-8.011-11.06.14-14.769"/><path fill="#ffcc80" d="M101.693 402.66c10.406 4.094 20.924 8.751 31.344 13.016l25.261 10.555c4.161 1.767 10.632 4.834 14.668 6.28 16.875 6.815 35.03 14.67 51.78 21.953l.73 324.703-90.915-54.848c-10.56-6.46-22.833-13.187-32.978-19.992l-.022-195.29.005-67.512c0-12.78-.182-26.127.127-38.866"/><path fill="#5d4037" d="m133.037 415.676 25.261 10.555c4.161 1.767 10.632 4.834 14.668 6.28-.073 6.287.835 43.27-.843 46.248-3.101 0-34.338-15.165-38.947-17.573-.597-13.636-.164-31.582-.139-45.51"/><path fill="#5d4037" d="M302.434 29.762c3.677-.238 7.796-.217 11.512-.278 13.821 21.174 29.694 59.524 32.988 84.704a366.9 366.9 0 0 0-144.373 48.66c-8.574 4.86-16.488 9.875-24.895 14.965-2.361-7.788-3.905-18.413-4.579-26.6-2.104-26.016 1.854-51.145 13.602-74.578 7.042-14.047 7.377-13.884 21.007-20.933a245.8 245.8 0 0 1 94.738-25.94"/><path fill="#ffd54f" d="M390.447 370.877c1.11-.108 2.24-.227 3.355-.247 3.19-.058 98.446 47.095 108.09 52.216 1.506.798 4.406 2.118 5.407 3.509.953 1.325 1.067 4.07 1.186 5.694.56 7.636 1.694 70.121.65 72.89-.816 2.161-6.2.829-7.994.535-8.14-1.333-15.208-4.03-23.362-.767-3.462 1.385-6.919 3.192-10.64 3.72-2.977.421-5.694-.062-8.62-.506-6.703-1.018-11.646 1.29-17.593 3.981-4.342 1.903-10.214 4.65-14.672 5.6-.237-18.077-.932-36.239-1.308-54.368-.304-8.304.071-21.898-1.304-29.563-.788-4.389-26.248-16.73-30.942-19.248l-46.245-24.736c-8.43-4.51-17.615-9.129-25.779-13.99 7.624-.175 15.497-.92 23.13-1.444z"/><path fill="#ffcc80" d="M307.034 376.891c2.436-.293 13.102 6.122 15.88 7.637l24.268 13.11c20.522 11.076 41.823 22.07 62.162 33.275-17.527.912-38.594 3.491-56.155 5.272l-83.655 8.253q-11.38 1.104-22.746 2.337c-4.913.532-13.504 1.776-18.114 1.345-1.618-.151-10.268-3.865-12.29-4.705l-23.64-9.917-61.957-26.192c-7.442-3.203-15.466-6.227-22.725-9.663a1792 1792 0 0 1 23.885-7.324c6.14 23.379 35.304 33.33 55.932 22.185 2.673-1.445 4.824-3.493 7.018-5.572 10.024 7.728 22.693 10.053 34.439 4.53 4.405-2.072 6.778-4.652 10.016-8.183 15.154-.447 23.673-7.81 25.76-23.002 4.067-.656 10.881-1.024 15.066-1.348z"/><path fill="#5d4037" d="M322.15 28.92c36.486-1.859 88.622 10.383 117.437 33.252 17.256 13.695 29.981 30.936 38.3 51.331 1.632 4 4.046 9.539 4.599 13.694l-.546.336c-41.869-13.874-84.439-16.415-128.11-14.192-4.919-25.332-12.114-47.158-24.2-69.969-1.561-2.945-7.717-12.223-7.48-14.451"/><path fill="#5d4037" d="M370.347 119.75c35.917-1.666 78.923 4.003 112.834 16.245 12.725 5.185 30.878 11.814 37.392 24.689 4.51 8.913-.574 15.57-8.95 18.927-5.418-10.352-12.822-16.211-23.039-21.771-41.753-22.723-99.393-22.58-144.066-9.707-35.4 8.49-70.452 27.914-106.356 33.637-16.481 2.627-35.216 1.632-51.792.483 6.91-5.184 16.582-10.782 24.144-15.132 48.68-28.005 103.565-45.375 159.833-47.371"/><path fill="#37474f" d="M204.358 345.694c19.275-.285 42.08 5.81 49.668 25.943 1.752 4.858 2.403 9.72-.157 14.478-1.78 3.311-6.978 9.362-11.126 7.176-.446-1.026-.34-3.023-.468-4.445-.677-7.338-4.069-14.662-9.297-19.845-1.722-1.708-3.752-1.009-4.886.882.276 1.97 3.995 7.525 5.007 10.443 6.8 19.618-12.834 30.556-28.855 21.793-2.89-1.58-5.616-4.122-6.567-7.47-.363-4.902-3.917-22.474-11.362-20.237-1.936 2.643 1.589 6.164 2.583 8.863 5.13 13.372-2.928 23.59-16.478 24.236-32.167 1.534-43.023-30.443-14.52-47.85 15.508-9.47 28.614-13.183 46.458-13.967"/><path fill="#ffcc80" d="M463.145 365.68c1.636-.194 4.818-.243 6.577-.329.157 3.108.945 6.15 2.315 8.943 5.719 11.92 20.39 18.103 33.087 17.639 5.058-.185 8.635-1.487 13.129-3.621 12.972 12.356 26.904 14.505 42.134 4.841 14.128 4.53 27.302 3.786 34.639-11.392 18.733 6.564 42.253 16.372 60.71 23.948a3606 3606 0 0 1-41.686 4.578c-33.644 3.072-67.478 7.428-101.094 10.346-6.342-2.946-12.789-6.226-19.009-9.432-28.357-14.62-57.86-27.533-86.263-41.991 6.631-.039 14.456-.755 21.135-1.218z"/><path fill="#37474f" d="M518.166 339.688c21.35-1.53 58.12 6.083 67.168 28.352 5.768 14.197-8.415 22.824-21.476 15.637.133-4.827-.137-8.407-1.875-13.002-1.372-3.627-6.952-12.758-11.56-10.668-1.853 4.635 13.46 15.495 2.704 26.488l-.36.36c-10.02 6.426-27.676 1.732-29.895-11.05-.606-3.494-2.945-18.766-9.183-15.965-.753 1.568-.228 3.622.305 5.225 2.34 7.044 3.142 16.294-6.56 17.571-7.208.95-14.489-.713-20.582-4.963-8.452-5.895-10.314-16.446-3.61-24.541 8.25-9.64 22.871-12.43 34.924-13.444"/><path fill="#5d4037" d="M180.303 72.82c-.167 1.175-3.236 7.849-3.888 9.383-13.292 31.286-13.788 66.401-5.035 99.12-14.469 8.176-26.42 15.642-40.275 24.642l-.6-.47c-1.588-3.41-2.12-7.616-2.85-11.313-3.102-15.68-2.735-29.993.507-45.659 5.26-25.422 20.441-47.465 39.092-65.035 4.098-3.86 8.32-7.586 13.05-10.668"/><path fill="#ff4081" d="M91.163 184.108c6.728-.553 15.05.8 20.907 4.217-12.755 16.744-18.07 36.032-18.536 56.89l-2.974-1.542a47 47 0 0 1-6.25-3.988c-15.669-12.042-25.487-37.254-5.538-51.71 3.48-2.521 8.158-3.418 12.391-3.867"/><path fill="#37474f" d="M97.548 168.912c5.806-.704 12.414-.148 18.243.373l.092 11.788-.495-.218c-13.98-6.058-30.243-7.676-42.867 2.13-14.035 10.902-15.123 27.352-9.005 42.818 1.962 4.461 4.15 7.18 6.977 11.072l-.34-.261c-8.702-6.82-15.425-17.862-16.663-29.003-2.786-25.066 22.808-36.416 44.058-38.7"/><path fill="#37474f" d="M117.314 194.612c.318.315 4.328 15.411 5.01 17.604-5.39 4.366-12.138 11.18-16.447 16.492l-2.476 3.04c1.42-12.73 5.945-26.935 13.913-37.136"/></svg>