<svg xmlns="http://www.w3.org/2000/svg" width="819" height="819" viewBox="0 0 819 819"><path fill="#000000" d="M64.682 285.873c-10.864-2.87-26.281-17.289-33.331-26.094-15.654-19.55-25.394-48.632-18.103-73.236 9.338-31.514 41.556-45.118 71.36-49.461 13.244-2.011 27.788-3.103 39.633-9.474 13.102-7.152 22.797-18.253 33.889-27.589a378 378 0 0 1 41.539-30.538c81.929-52.546 200.249-63.414 292.588-37.637 71.399 19.931 133.907 67.31 168.403 133.182 10.751 20.531 19.301 41.447 28.411 62.699 21.647 45.454 52.764 97.054 36.655 149.374-19.911 64.666-93.495 91.294-153.097 105.108-5.034 1.167-13.104 3.25-18.079 3.361 4.549 7.98 8.44 16.286 12.722 24.405 4.086 7.748 8.568 15.362 12.915 22.97 9.015 15.78 18.465 31.312 27.077 47.32 23.349 43.403 53.939 109.942 40.246 159.589-4.216 15.286-13.06 29.028-27.105 36.985-4.947 2.802-21.91 9.088-26.929 7.817-7.103 3.44-17.624 4.999-25.379 6.838-9.246 2.956-27.939 5.999-37.856 7.625a764.9 764.9 0 0 1-193.487 5.794c-6.153-.587-25.831-2.301-30.729-3.831-4.895.072-21.104-2.696-26.429-3.815-7.985-1.108-17.481-3.292-25.422-4.918-4.948-1.014-14.309-2.858-18.932-4.456-7.346-1.723-14.983-3.358-22.165-5.731-1.285-.424-4.288-2.089-5.945-2.813l-.563.236c-1.12.77-2.866.611-4.117.3-64.356-16.016-63.663-111.84-51.365-162.782 11.471-47.517 26.792-93.005 29.754-142.453.358-5.964 1.882-12.503 2.135-18.979-51.079-25.532-90.492-59.619-109.216-115.377-4.255-12.671-10.412-41.065-9.078-54.419"/><path fill="#ffffff" d="M300.785 715.907c.324-1.832.36-4.454.469-6.378 4.092-72.145 24.956-142.114 42.626-211.788 1.361-5.365 2.549-11.181 4.595-16.286.213-.53.816-.487 1.355-.612a637 637 0 0 0 98.822 3.261c6.035-.286 11.37-.109 17.428-.796l1.447.171c1.579 2.689 7.423 14.84 6.939 17.717 5.652 14.39 14.454 30.63 20.721 45.021.983 2.258 7.637 16.602 8.418 17.688 1.101 2.742 1.982 4.577 3.334 7.214 8.23 18.094 17.115 36.584 24.65 54.948a571 571 0 0 1 32.162 105.779c2.811 13.594 4.031 28.472 4.478 42.35.165 5.142-.572 12.747-.132 17.296-9.246 2.956-27.939 5.999-37.856 7.625a764.9 764.9 0 0 1-193.487 5.794c-6.153-.587-25.831-2.301-30.729-3.831-2.308-9.089-3.484-19.813-4.432-29.077-1.177-17.185-1.827-31.803-1.012-48.99.124-2.299.146-4.792.204-7.106"/><path fill="#000000" d="m466.08 483.308 1.447.171c1.579 2.689 7.423 14.84 6.939 17.717a288 288 0 0 1-8.386-17.888"/><path fill="#37474f" d="M220.249 453.998a512.5 512.5 0 0 0 89.731 21.875 576 576 0 0 0 27.369 3.562c1.334.151 11.701 1.188 12.481 1.408-.539.125-1.142.082-1.355.612-2.046 5.105-3.234 10.921-4.595 16.286-17.67 69.674-38.534 139.643-42.626 211.788-.109 1.924-.145 4.546-.469 6.378-.058 2.314-.08 4.807-.204 7.106-.815 17.187-.165 31.805 1.012 48.99.948 9.264 2.124 19.988 4.432 29.077-4.895.072-21.104-2.696-26.429-3.815-7.985-1.108-17.481-3.292-25.422-4.918-4.948-1.014-14.309-2.858-18.932-4.456-3.613-2.432-7.769-4.465-11.508-6.769-7.261-4.475-14.74-11.073-20.417-17.461-9.573-10.772-16.749-26.968-20.242-41.017-11.769-47.344-1.437-98.274 11.987-144.153 4.989-17.054 10.423-32.604 14.361-50.023 5.343-23.638 9.549-50.312 10.826-74.47"/><path fill="#000000" d="m279.596 797.265.311-.197c.401-1.012-1.117-3.94-1.556-5.306a446 446 0 0 1-6.396-21.245c-8.525-31.412-10.409-53.521-10.09-85.875a704 704 0 0 1 4.392-71.245c.229-2.014 2-20.026 2.131-20.256 1.153.555 8.219 32.016 8.859 36.208 7.202 47.224 10.942 94.948 21.945 141.522.197.833 1.145 1.817 1.766 2.395.126-1.236-.083-2.004-.256-3.249l.103.072.108.955.466.127.214.832c.948 9.264 2.124 19.988 4.432 29.077-4.895.072-21.104-2.696-26.429-3.815"/><path fill="#000000" d="m300.581 723.013-.652-.211c-.588-2.459-.566-8.203.379-10.434.556 1.333.414 2.036.477 3.539-.058 2.314-.08 4.807-.204 7.106"/><path fill="#ffffff" d="M64.682 285.873c-10.864-2.87-26.281-17.289-33.331-26.094-15.654-19.55-25.394-48.632-18.103-73.236 9.338-31.514 41.556-45.118 71.36-49.461 13.244-2.011 27.788-3.103 39.633-9.474 13.102-7.152 22.797-18.253 33.889-27.589a378 378 0 0 1 41.539-30.538c81.929-52.546 200.249-63.414 292.588-37.637 71.399 19.931 133.907 67.31 168.403 133.182 10.751 20.531 19.301 41.447 28.411 62.699 21.647 45.454 52.764 97.054 36.655 149.374-19.911 64.666-93.495 91.294-153.097 105.108-5.034 1.167-13.104 3.25-18.079 3.361 4.549 7.98 8.44 16.286 12.722 24.405 4.086 7.748 8.568 15.362 12.915 22.97 9.015 15.78 18.465 31.312 27.077 47.32 23.349 43.403 53.939 109.942 40.246 159.589-4.216 15.286-13.06 29.028-27.105 36.985-4.947 2.802-21.91 9.088-26.929 7.817 2.322-1.845 6.464-4.213 9.184-6.046 64.314-43.324 21.972-132.989-4.919-185.935-12.504-24.619-28.816-49.692-42.237-74.452a368 368 0 0 1-19.982-42.93c59.5-10.083 148.943-33.914 173.574-96.365 17.504-44.378-7.773-93.872-27.396-132.954-7.766-15.467-13.682-32.148-20.775-47.946-27.555-66.523-78.574-118.644-146.207-144.317-63.973-25.1-147.256-27.692-214.129-11.155a320 320 0 0 0-95.588 40.416 347 347 0 0 0-36.518 26.745c-11.19 9.513-24.376 23.449-36.883 30.171-25.056 12.535-48.469 7.915-74.718 19.551-30.876 13.687-38.59 42.172-25.262 72.455 8.987 20.423 25.966 36.434 47.401 44.375-.049 66.372 31.485 120.608 88.65 154.275 10.14 5.972 21.171 12.177 32.283 16.084-3.29 17.236-4.73 33.242-6.942 50.5a533 533 0 0 1-6.622 40.31c-9.976 50.279-30.894 96.213-26.815 148.877 2.583 33.341 11.305 62.581 37.803 85.252 2.06 1.763 8.445 6.188 9.191 8.018-1.12.77-2.866.611-4.117.3-64.356-16.016-63.663-111.84-51.365-162.782 11.471-47.517 26.792-93.005 29.754-142.453.358-5.964 1.882-12.503 2.135-18.979-51.079-25.532-90.492-59.619-109.216-115.377-4.255-12.671-10.412-41.065-9.078-54.419"/><path fill="#37474f" d="M467.527 483.479a371 371 0 0 0 29.724-2.865c6.607-.875 13.731-2.106 20.298-2.736 7.932 23.911 23.09 53.012 35.78 74.865 18.955 32.643 37.93 61.087 50.969 96.993 14.286 39.337 26.403 91.138-9.979 122.948 3.979-24.455-7.963-68.213-15.244-91.696-12.145-39.172-26.665-78.787-43.067-116.388-1.845-4.215-4.1-10.289-6.206-14.212 1.321 26.775 13.118 65.014 19.971 91.452a564.6 564.6 0 0 1 14.623 78.538c.267 2.416 1.991 9.486 1.128 11.077-.974-.446-.668-.073-1.036-1.051l.665-.722-.509.045c-.509.948-.57 1.093-.893 2.119a571 571 0 0 0-32.162-105.779c-7.535-18.364-16.42-36.854-24.65-54.948-1.352-2.637-2.233-4.472-3.334-7.214-.781-1.086-7.435-15.43-8.418-17.688-6.267-14.391-15.069-30.631-20.721-45.021.484-2.877-5.36-15.028-6.939-17.717"/><path fill="#000000" d="m503.605 563.905.81-.127c1.682 1.826 3.157 4.833 2.524 7.341-1.352-2.637-2.233-4.472-3.334-7.214"/><path fill="#ffffff" d="M67.755 168.288c.847-.269 1.417-.495 2.25-.799 19.88-7.241 42.117-9.19 62.909-12.498 7.3-1.161 18.197-2.267 24.54-5.401 5.744-2.839 13.497-12.474 18.615-17.122 4.788-4.287 9.444-9.012 14.403-13.095 35.481-29.207 76.828-51.284 121.195-63.335 30.201-8.204 58.234-10.73 89.144-10.222 49.317.811 95.567 11.342 138.983 36.077 51.728 29.47 90.659 81.869 112.129 136.88.457 1.172-.074 1.875-.621 2.82 8.15 14.105 14.453 27.842 21.295 42.602 14.701 31.716 28.707 65.632 19.748 101.13-6.245 24.747-27.639 43.842-49.358 55.737-27.78 15.216-64.854 25.979-95.723 32.373a625.5 625.5 0 0 1-291.691-6.904c-41.138-11.216-83.204-27.817-112.519-60.237-1.445-1.597-5.849-7.097-7.215-8.099l-.651.171c1.566 2.193 4.794 5.436 5.701 6.985l-.101.339c-1.086-.662-4.17-4.595-5.363-5.777-37.532-37.203-45.77-97.116-32.33-146.579 4.223-15.539 15.135-36.883 28.3-46.456-4.023-2.68-9.159-6.154-13.49-8.108-13.897-6.272-35.077-10.253-50.15-10.482"/><path fill="#37474f" d="M67.755 168.288c.847-.269 1.417-.495 2.25-.799 19.88-7.241 42.117-9.19 62.909-12.498 7.3-1.161 18.197-2.267 24.54-5.401 5.744-2.839 13.497-12.474 18.615-17.122 4.788-4.287 9.444-9.012 14.403-13.095 35.481-29.207 76.828-51.284 121.195-63.335 30.201-8.204 58.234-10.73 89.144-10.222 49.317.811 95.567 11.342 138.983 36.077 51.728 29.47 90.659 81.869 112.129 136.88.457 1.172-.074 1.875-.621 2.82-14.491-21.642-29.721-38.707-56.78-44.372-17.002-3.561-35.829 2.041-50.071 11.63-27.019 18.193-40.713 48.521-46.734 79.556-1.538 7.934-2.453 15.478-3.486 23.417-.788 6.058-2.052 18.488-4.193 23.753-10.307 40.067-65.732 46.167-95.676 24.712-4.916-3.523-8.886-8.099-12.303-13.071-11.376-14.788-17.403-29.692-24.784-46.605-23.066-52.855-60.747-103.534-122.536-110.562a114.3 114.3 0 0 0-84.993 24.255c-20.516 16.504-34.029 40.373-38.633 66.12-1.148 6.416-1.58 11.949-2.296 18.363-.047 9.226-.161 18.608.396 27.81 2.855 21.209 5.91 36.899 16.575 56.173 3.185 5.755 7.295 10.692 10.051 15.423l-.651.171c1.566 2.193 4.794 5.436 5.701 6.985l-.101.339c-1.086-.662-4.17-4.595-5.363-5.777-37.532-37.203-45.77-97.116-32.33-146.579 4.223-15.539 15.135-36.883 28.3-46.456-4.023-2.68-9.159-6.154-13.49-8.108-13.897-6.272-35.077-10.253-50.15-10.482"/><path fill="#000000" d="M382.059 327.218c.378-1.261.336-3.298.156-4.608-2.67-19.458 15.706-31.533 33.102-35.241 23.622-5.035 62.761-.499 72.008 26.819.314.929.383 1.688 1.164 2.197l.905-.843.644.035c-10.307 40.067-65.732 46.167-95.676 24.712-4.916-3.523-8.886-8.099-12.303-13.071"/><path fill="#ffffff" d="M409.909 298.834c12.944.926 6.48 10.405-3.604 12.639-10.775.945-9.544-10.907 3.604-12.639"/><path fill="#000000" d="M109.213 306.599c-.026 1.234.105 2.102-.546 3.122-1.865-3.644-1.91-30.286-.436-34.746.6 1.148.505 2.441.586 3.814-.047 9.226-.161 18.608.396 27.81"/><path fill="#000000" d="M611.051 326.551c-2.137.751-4.961 1.689-7.184 1.978-30.843 4-48.574-35.224-52.504-59.986-2.61-16.445-1.475-32.8 8.421-46.058 11.746-15.734 31.757-16.121 46.315-4.236 16.332 12.941 24.687 35.97 27.247 55.953a32.56 32.56 0 0 1 25.017-1.257 40.06 40.06 0 0 1 22.884 20.709c4.55 9.69 7.245 25.061 3.155 35.218-10.905 27.086-50.114 22.445-67.372 4.665-2.107-2.171-3.755-4.995-5.979-6.986"/><path fill="#ff4081" d="M633.346 274.202a32.56 32.56 0 0 1 25.017-1.257 40.06 40.06 0 0 1 22.884 20.709c4.55 9.69 7.245 25.061 3.155 35.218-10.905 27.086-50.114 22.445-67.372 4.665-2.107-2.171-3.755-4.995-5.979-6.986 21.492-11.264 24.444-29.718 22.295-52.349"/><path fill="#ffffff" d="M580.221 224.013c18.578-1.197 27.043 31.389 5.378 36.715-20.633-.579-26.992-31.637-5.378-36.715"/><path fill="#000000" d="M180.551 281.614c-1.615-19.695 1.649-39.032 14.258-54.814 11.953-15.122 31.934-20.055 49.131-10.884 35.364 18.859 43.978 78.962 17.981 108.599-13.463 15.349-32.712 17.796-50.954 10.039-18.879-12.753-27.447-30.652-30.416-52.94"/><path fill="#ffffff" d="M212.689 226.862c4.07-.213 7.432-.288 11.155 1.687 12.064 6.4 15.092 22.261 8.799 33.765-3.671 6.712-8.183 10.1-15.303 12.272-27.942 5.304-33.016-41.879-4.651-47.724"/><path fill="#ff4081" d="M210.967 334.554c-8.902 9.22-15.601 12.997-28.666 15.647-23.476 4.763-58.152-7.184-62.869-33.616-5.266-29.508 23.164-47.32 49.724-38.667 1.935.63 10.202 3.878 11.395 3.696 2.969 22.288 11.537 40.187 30.416 52.94"/><path fill="#000000" d="M315.909 322.778c7.999-.61 12.867 1.963 15.394 9.79-.808 2.734-1.196 3.578-2.469 6.129l.593.842c34.043 47.856 131.083 49.323 176.788 17.694 5.586-3.866 12.873-10.351 15.415-16.909.545-1.405.449-4.185.773-5.819 1.157-5.829 9.666-7.63 12.37-1.87 2.041 4.357.934 7.638-.345 11.876-6.799 18.813-32.976 31.974-51.113 37.515-41.726 12.747-91.369 11.859-130.868-7.793-14.619-7.273-30.966-19.948-36.195-35.966-11.096-1.079-12.336-12.724-.343-15.489"/><path fill="#ff4081" d="M75.238 180.129c11.263-1.704 23.117 1.606 33.155 6.481-17.322 21.477-24.367 38.822-27.896 66.131-.23 1.777-.344 5.475-.967 6.927l-.506-.011c-17.255-8.436-31.87-26.016-34.21-45.447-2.33-19.363 11.799-32.745 30.424-34.081"/></svg>