<svg xmlns="http://www.w3.org/2000/svg" width="819" height="819" viewBox="0 0 819 819"><path fill="#fff" d="M0 0h819v819H0z"/><path fill="#000000" d="m127.737 40.146 1.416-.036 217.853-.043 73.032.005c12.756-.018 25.486-.175 38.24.081 15.368.308 23.732 11.898 33.772 21.85l25.827 25.716 76.537 75.59c14.5 14.287 12.277 23 12.272 42.093l-.016 37.701.261 150.825c10.257.009 20.1-.16 29.834 3.517 12.969 4.899 22.256 13.167 28.063 25.693a64.7 64.7 0 0 1 5.693 22.499c1.056 15.07.389 36.761.37 52.193l-.011 88.544-.086 90.198c0 16.17.35 32.477-.242 48.62-.826 22.52-13.304 38.232-33.304 47.183-11.323 3.927-19.15 3.621-30.994 3.709l-283.58.093-83.852-.005c-14.937.006-32.056.542-46.752-.88-11.32-1.493-21.59-6.558-29.62-14.465-17.756-17.491-15.01-39.59-15.012-62.372l.056-53.912c-13.088-.057-28.77 2.027-39.13-6.696-5.278-4.442-9.277-12.298-9.5-19.039-.324-9.74-.182-20.097-.214-29.866l-.1-61.27.004-186.14-.056-187.25.086-55.458c-.01-10.054-.467-20.47.14-30.471 1.013-16.734 12.934-27.011 29.013-28.207"/><path fill="#ffd54f" d="M200.693 418.06c3.39-.435 12.238-.203 16.083-.2l31.673.026 105.905-.007 174.327-.02 56.64-.02c10.253-.003 21.661-.498 31.31.2 23.398 1.687 30.385 21.52 28.654 42.035-.384 4.556.023 12.175.031 16.833l-.033 68.685-.127 117.542v38.597c0 12.306 1.805 26.9-5.959 37.314-5.407 7.252-12.093 10.163-20.848 11.538-10.29.597-21.65.356-32.07.355l-48.202.02-153.94.006-123.878.019-37.648.034c-13.128.017-28.117 2.07-38.844-6.463-12.35-9.821-11.077-23.739-11.096-37.796l-.02-28.135.028-92.09V491.45l.004-28.897c.003-5.856-.222-11.925.288-17.75 1.398-15.98 12.217-25.194 27.722-26.744"/><path fill="#000000" d="M405.323 486.442c3.595-.277 8.003-.121 11.566.326a58.61 58.61 0 0 1 39.602 22.659 56.04 56.04 0 0 1 11.206 42.023c-2.522 18.218-11.629 29.64-25.814 40.292 5.902 20.546 9.741 42.381 15.194 63.085 5.696 21.632.632 21.846-18.64 21.835l-22.06-.04-32.382.005c-3.127 0-7.458-.229-10.485-.007-19.213 1.406-14.41-13.885-11.244-27.046 4.553-18.922 8.85-38.939 13.933-58.125l-.545-.443c-13.841-11.26-22.46-23.098-24.252-41.606a57.15 57.15 0 0 1 13.122-42.514c10.117-12.075 25.226-19.076 40.799-20.444"/><path fill="#fff" d="M147.53 628.324c-11.39.1-32.935 4.542-32.672-11.22.167-10.042.027-20.185.048-30.235l-.004-57.18V335.101l.052-173.384-.067-63.27c-.004-10.116-.292-20.37-.024-30.465.36-13.608 13.239-11.966 22.419-11.96l21.11.021 69.387.006 228.182-.044-.017 100.677c-12.598-3.583-32.834-5.981-45.906-6.28a202 202 0 0 0-126.291 39.688c-7.338 5.534-12.96 10.762-19.591 17.095-5.013 5.36-9.364 10.186-13.925 15.964-8.891 12.026-15.142 21.795-21.148 35.627-2.231 5.31-4.29 10.05-6.004 15.561-4.206 12.875-6.393 22.391-8.227 35.958-.523 4.49-.88 12.077-1.546 15.913-1.017 21.733-.601 45.035-.6 66.926-19.423-.065-35.612-1.027-50.733 14.17a49.53 49.53 0 0 0-13.212 25.031c-1.529 8.035-1.231 19.272-1.255 27.728l-.039 36.711z"/><path fill="#bdbdbd" d="M165.173 207.89c5.305-1.036 26.513-.614 33.61-.602l65.373-.103c-5.013 5.36-9.364 10.186-13.925 15.964-4.357-2.23-71.024.91-80.467-.48-10.027-1.475-11.737-9.031-4.591-14.778"/><path fill="#bdbdbd" d="M223.08 274.337c-1.67-.605-8.813-.463-10.918-.459l-29.505.114c-4.866.012-9.57.067-14.458-.176-9.08-.452-9.14-13.774-1.43-14.75 5.703-.723 13.589-.36 19.514-.361l42.8.071c-2.231 5.31-4.29 10.05-6.004 15.561"/><path fill="#bdbdbd" d="M213.306 326.208c-3.871-2.892-44.482 2.174-49.862-2.7-1.543-1.397-2.224-3.53-2.267-5.565-.04-1.898.418-3.796 1.782-5.18 1.328-1.347 3.196-1.946 5.018-2.247 4.673-.77 10.156-.172 14.934-.178l31.941-.043c-.523 4.49-.88 12.077-1.546 15.913"/><path fill="#bdbdbd" d="M398.706 173.734c46.43-3.06 95.791 14.72 128.905 47.653 48.413 48.15 46.751 108.298 46.605 171.785l-49.06.11c-.957-45.166 3.5-90.028-28.759-127.47C475 240.978 444.961 229.2 412.98 226.858a216 216 0 0 0-7.377-.096c-32.052.018-62.378 11.362-85.3 34.17-36.491 36.309-32.463 84.948-32.266 132.321q-25.141.18-50.284 0c-.252-11.255-.016-22.676-.075-33.857-.261-50.276 6.734-96.06 42.296-134.235 31.077-33.36 73.62-49.67 118.733-51.426"/><path fill="#fff" d="M364.77 258.124c23.427-10.714 54.225-11.058 78.321-2.098a82.56 82.56 0 0 1 46.846 43.386c9.247 20.333 8.636 43.99 8.798 65.919.066 8.794.27 18.96-.01 27.724l-184.346-.01-.023-36.75c.013-10.12-.128-20.747 1.034-30.794.695-5.249 1.877-10.082 3.152-15.191 4.973-15.61 11.13-25.188 22.667-36.666 6.46-6.123 15.485-11.919 23.56-15.52"/><path fill="#bdbdbd" d="M341.209 273.644c6.46-6.123 15.485-11.919 23.56-15.52l.417.247c18.644 1.035 37.68-.015 56.427.32 5.424.143 10.782-.484 16.12.593 6.516 1.316 6.747 12.587.815 13.92-6.684 1.503-15.714.73-22.632.713l-37.983.031-23.595.015c-3.018-.002-10.433.134-13.13-.32"/><path fill="#bdbdbd" d="m318.542 310.31 38.41-.002c4.788-.005 20.853-1.007 23.873 2.017a7.65 7.65 0 0 1 2.23 5.74c-.192 4.022-2.727 7.11-6.91 7.332-7.51.397-15.067.098-22.589.196-12.537-.196-25.748.35-38.166-.092.695-5.249 1.877-10.082 3.152-15.191"/><path fill="#bdbdbd" d="M471.53 64.165c2.628 1.5 14.257 14.006 17.21 16.898 32.153 31.497 63.536 64.25 96.076 95.313l-79.014.07c-12.034-6.979-21.319-10.55-34.265-15.26z"/><path fill="#fff" d="M528.807 192.008q30.867-.168 61.734.005.333 44.421.056 88.842c-.875-1.735-2.38-6.498-3.101-8.533a171 171 0 0 0-5.664-14.114c-12.876-28.065-29.384-46.857-53.025-66.2"/></svg>