<svg viewBox="0 0 24 24" fill="none" xmlns="http://www.w3.org/2000/svg">
  <g clip-path="url(#a)">
    <path d="M9.145 22c1.737 0 3.146-1.419 3.146-3.167v-3.166H9.145C7.41 15.667 6 17.085 6 18.833S7.41 22 9.145 22Z"
      fill="#00E676" />
    <path d="M6 12.5c0-1.748 1.41-3.167 3.145-3.167h3.146v6.334H9.145C7.41 15.667 6 14.248 6 12.5Z" fill="#7C4DFF" />
    <path d="M6 6.167C6 4.419 7.41 3 9.145 3h3.146v6.333H9.145C7.41 9.333 6 7.915 6 6.167Z" fill="#F4511E" />
    <path d="M12.29 3h3.146c1.736 0 3.145 1.419 3.145 3.167 0 1.748-1.409 3.166-3.145 3.166H12.29V3Z" fill="#FF8A65" />
    <path
      d="M18.581 12.5c0 1.748-1.409 3.167-3.145 3.167S12.29 14.248 12.29 12.5c0-1.748 1.41-3.167 3.146-3.167s3.145 1.419 3.145 3.167Z"
      fill="#29B6F6" />
  </g>
  <defs>
    <clipPath id="a">
      <path fill="#fff" transform="translate(6 3)" d="M0 0h12.581v19H0z" />
    </clipPath>
  </defs>
</svg>