<?xml version="1.0" encoding="UTF-8" standalone="no"?>
<!DOCTYPE svg PUBLIC "-//W3C//DTD SVG 1.1//EN" "http://www.w3.org/Graphics/SVG/1.1/DTD/svg11.dtd">
<svg width="100%" height="100%" viewBox="0 0 24 24" version="1.1" xmlns="http://www.w3.org/2000/svg" xmlns:xlink="http://www.w3.org/1999/xlink" xml:space="preserve" xmlns:serif="http://www.serif.com/" style="fill-rule:evenodd;clip-rule:evenodd;stroke-linejoin:round;stroke-miterlimit:2;">
    <g>
        <g transform="matrix(0.0360468,0,0,0.0360468,1.10109,1.24302)">
            <path d="M473.406,214.608C460.939,197.309 432.272,161.741 388.237,108.901C369.122,85.982 352.725,66.528 344.653,56.978C340.202,51.709 336.384,47.201 333.37,43.637L328.566,37.975L325.96,34.904L325.453,34.157L325.227,34.058L314.113,21L300.026,32.298C264.063,61.105 234.607,98.238 214.872,139.624C202.771,164.248 194.869,188.322 190.727,213.115C189.643,218.693 188.713,224.426 187.938,230.174C183.106,229.779 178.19,229.526 173.316,229.413C172.908,229.385 172.499,229.371 171.95,229.357C154.102,228.737 136.352,230.864 119.209,235.696L111.87,237.752L108.095,244.373C90.402,275.406 80.386,310.736 79.132,346.53C77.512,393.016 90.176,438.009 115.758,476.649C140.79,514.444 176.147,543.336 218.013,560.198L223.465,562.395L225.113,562.973L225.183,562.945C246.99,570.861 269.881,575.285 293.222,576.088C295.871,576.186 298.505,576.228 301.139,576.228C330.594,576.228 359.275,570.467 386.491,559.071L386.688,559.155L393.928,555.803C430.638,538.828 462.052,512.148 484.774,478.636C508.144,444.165 521.272,403.835 522.737,362.012C524.484,312.018 507.876,262.432 473.392,214.622L473.406,214.608ZM309.535,369.506C317.128,398.285 315.634,425.937 305.126,451.814C278.868,425.895 259.611,397.397 247.863,367.026C235.284,334.542 227.719,303.636 225.324,275.054C236.439,278.703 246.652,283.52 255.752,289.451C281.925,306.51 300.026,333.444 309.535,369.52L309.535,369.506ZM314.324,508.823C325.481,517.318 337.215,525.277 349.316,532.602C331.496,537.448 313.113,539.575 294.518,538.913C291.645,538.814 288.771,538.645 285.883,538.406C296.476,529.277 305.999,519.374 314.31,508.823L314.324,508.823ZM345.484,360.025C333.539,314.751 310.169,280.52 276.037,258.291C261.062,248.543 244.003,241.147 225.268,236.316C225.536,233.202 225.874,230.103 226.268,227.061C226.606,224.455 226.958,222.06 227.339,219.82C230.424,203.888 235.016,188.125 240.961,172.982C243.243,167.178 245.736,161.417 248.384,155.852L248.483,155.655C252.568,147.386 257.174,139.033 262.598,130.102L264.725,126.594L264.654,126.552C277.248,106.873 292.335,88.926 309.591,73.107L316.254,80.981C331.792,99.393 346.4,116.804 359.684,132.736C389.561,168.573 428.3,215.636 443.246,236.386C472.8,277.35 487.042,319.174 485.591,360.73C484.464,393.002 474.913,424.472 457.953,451.716C441.894,477.537 419.524,499.146 393.168,514.359C378.461,507.02 357.106,494.948 334.426,477.382C352.711,440.939 356.444,401.483 345.498,360.025L345.484,360.025ZM285.911,484.89C269.148,506.612 249.201,520.741 237.566,527.84C235.678,527.15 233.79,526.432 231.931,525.671L230.438,525.079C195.968,510.838 166.893,486.764 146.354,455.435C125.365,423.416 114.969,386.198 116.307,347.798C117.265,320.273 124.125,293.973 136.719,269.617C144.03,267.997 151.482,266.982 158.934,266.602L160.863,266.56C164.625,266.475 168.372,266.475 171.936,266.56C177.176,266.799 182.43,267.349 187.6,268.18C189.29,303.171 197.883,340.924 213.167,380.423C227.888,418.443 252.343,453.561 285.897,484.876L285.911,484.89Z" style="fill:rgb(255,145,0);fill-rule:nonzero;"/>
        </g>
        <g transform="matrix(0.0341382,0,0,0.0341382,1.67543,1.81294)">
            <path d="M473.406,214.608C460.939,197.309 432.272,161.741 388.237,108.901C369.122,85.982 352.725,66.528 344.653,56.978C340.202,51.709 336.384,47.201 333.37,43.637L328.566,37.975L325.96,34.904L325.453,34.157L325.227,34.058L314.113,21L300.026,32.298C264.063,61.105 234.607,98.238 214.872,139.624C202.771,164.248 194.869,188.322 190.727,213.115C189.643,218.693 188.713,224.426 187.938,230.174C183.106,229.779 178.19,229.526 173.316,229.413C172.908,229.385 172.499,229.371 171.95,229.357C154.102,228.737 136.352,230.864 119.209,235.696L111.87,237.752L108.095,244.373C90.402,275.406 80.386,310.736 79.132,346.53C77.512,393.016 90.176,438.009 115.758,476.649C140.79,514.444 176.147,543.336 218.013,560.198L223.465,562.395L225.113,562.973L225.183,562.945C246.99,570.861 269.881,575.285 293.222,576.088C295.871,576.186 298.505,576.228 301.139,576.228C330.594,576.228 359.275,570.467 386.491,559.071L386.688,559.155L393.928,555.803C430.638,538.828 462.052,512.148 484.774,478.636C508.144,444.165 521.272,403.835 522.737,362.012C524.484,312.018 507.876,262.432 473.392,214.622L473.406,214.608ZM309.535,369.506C317.128,398.285 315.634,425.937 305.126,451.814C278.868,425.895 259.611,397.397 247.863,367.026C235.284,334.542 227.719,303.636 225.324,275.054C236.439,278.703 246.652,283.52 255.752,289.451C281.925,306.51 300.026,333.444 309.535,369.52L309.535,369.506ZM314.324,508.823C325.481,517.318 337.215,525.277 349.316,532.602C331.496,537.448 313.113,539.575 294.518,538.913C291.645,538.814 288.771,538.645 285.883,538.406C296.476,529.277 305.999,519.374 314.31,508.823L314.324,508.823ZM345.484,360.025C333.539,314.751 310.169,280.52 276.037,258.291C261.062,248.543 244.003,241.147 225.268,236.316C225.536,233.202 225.874,230.103 226.268,227.061C226.606,224.455 226.958,222.06 227.339,219.82C230.424,203.888 235.016,188.125 240.961,172.982C243.243,167.178 245.736,161.417 248.384,155.852L248.483,155.655C252.568,147.386 257.174,139.033 262.598,130.102L264.725,126.594L264.654,126.552C277.248,106.873 292.335,88.926 309.591,73.107L316.254,80.981C331.792,99.393 346.4,116.804 359.684,132.736C389.561,168.573 428.3,215.636 443.246,236.386C472.8,277.35 487.042,319.174 485.591,360.73C484.464,393.002 474.913,424.472 457.953,451.716C441.894,477.537 419.524,499.146 393.168,514.359C378.461,507.02 357.106,494.948 334.426,477.382C352.711,440.939 356.444,401.483 345.498,360.025L345.484,360.025ZM285.911,484.89C269.148,506.612 249.201,520.741 237.566,527.84C235.678,527.15 233.79,526.432 231.931,525.671L230.438,525.079C195.968,510.838 166.893,486.764 146.354,455.435C125.365,423.416 114.969,386.198 116.307,347.798C117.265,320.273 124.125,293.973 136.719,269.617C144.03,267.997 151.482,266.982 158.934,266.602L160.863,266.56C164.625,266.475 168.372,266.475 171.936,266.56C177.176,266.799 182.43,267.349 187.6,268.18C189.29,303.171 197.883,340.924 213.167,380.423C227.888,418.443 252.343,453.561 285.897,484.876L285.911,484.89Z" style="fill:rgb(255,145,0);fill-rule:nonzero;"/>
        </g>
    </g>
</svg>
