<svg xmlns="http://www.w3.org/2000/svg" viewBox="0 0 24 24"><path fill="#ff9100" d="M18.217 8.974c-.45-.623-1.482-1.904-3.07-3.808-.689-.825-1.28-1.526-1.57-1.87l-.408-.48-.173-.205-.094-.11-.018-.027-.008-.004-.4-.47-.509.407a11.1 11.1 0 0 0-3.069 3.866 9.5 9.5 0 0 0-.87 2.647q-.06.303-.1.615a9 9 0 0 0-.577-.03 6.2 6.2 0 0 0-1.901.229l-.265.074-.136.238a8 8 0 0 0-1.044 3.68 8 8 0 0 0 5.006 7.697l.197.079.06.02h.002a8 8 0 0 0 2.452.473q.143.005.286.005a7.9 7.9 0 0 0 3.076-.618l.007.003.261-.12a7.99 7.99 0 0 0 4.643-6.981 8.5 8.5 0 0 0-1.778-5.31M9.837 19.82l-.192-.074-.051-.02a6.31 6.31 0 0 1-3.897-6.048 6.2 6.2 0 0 1 .697-2.667 4.6 4.6 0 0 1 .759-.103l.065-.002a8 8 0 0 1 .378 0c.108.005.215.021.322.034a13 13 0 0 0 .918 4.007 10.1 10.1 0 0 0 2.474 3.61 6.4 6.4 0 0 1-1.473 1.263m.351-5.486a11.4 11.4 0 0 1-.767-3.125 4.6 4.6 0 0 1 .95.461 4.73 4.73 0 0 1 1.94 2.884 5 5 0 0 1 .12.649 4.2 4.2 0 0 1-.288 2.023 8.3 8.3 0 0 1-1.955-2.892m1.741 5.858a8 8 0 0 0 .553-.62c.233.177.485.332.73.495a6.3 6.3 0 0 1-1.283.125m5.432-2.97a6.34 6.34 0 0 1-2.212 2.138 12.4 12.4 0 0 1-1.851-1.15 5.84 5.84 0 0 0 .309-3.998 6.02 6.02 0 0 0-2.504-3.664 6.1 6.1 0 0 0-1.679-.74 8 8 0 0 1 .064-.496 9 9 0 0 1 .465-1.598q.117-.298.253-.584l.004-.007c.14-.282.296-.567.481-.872l.073-.12h-.002a9.2 9.2 0 0 1 1.534-1.824l.227.269c.53.628 1.03 1.222 1.483 1.765 1.02 1.223 2.342 2.828 2.852 3.536a6.8 6.8 0 0 1 1.446 4.242 6.3 6.3 0 0 1-.943 3.104"/></svg>