<svg xmlns="http://www.w3.org/2000/svg" clip-rule="evenodd" fill-rule="evenodd" stroke-linejoin="round" stroke-miterlimit="1.414" viewBox="0 0 24 24"><path d="M19 20H4a2 2 0 0 1-2-2V6c0-1.11.89-2 2-2h6l2 2h7c1.097 0 2 .903 2 2H4v10l2.14-8h17.07l-2.28 8.5c-.23.87-1.01 1.5-1.93 1.5z" fill="#E53935" fill-rule="nonzero"/><path d="M18.187 18.025h1.014l-2.479-6.306h-.902l-2.479 6.306h1.014l.543-1.455h2.736zm-2.92-2.426l1.004-2.677 1.004 2.677zm7.354.287l-3.924 3.924-1.78-1.785-.685.684 2.47 2.469 4.603-4.608z" fill="#FFCDD2"/></svg>