<svg xmlns="http://www.w3.org/2000/svg" clip-rule="evenodd" fill-rule="evenodd" stroke-linejoin="round" stroke-miterlimit="1.414" viewBox="0 0 24 24">
  <path d="M10 4H4c-1.11 0-2 .89-2 2v12c0 1.097.903 2 2 2h16c1.097 0 2-.903 2-2V8a2 2 0 0 0-2-2h-8l-2-2z" fill="#424242" fill-rule="nonzero"/>
  <path d="M20.469 11.667v8.166h-8.167v-8.166h8.167m.642-1.167h-9.45a.523.523 0 0 0-.525.525v9.45c0 .233.233.525.525.525h9.45c.233 0 .525-.292.525-.525v-9.45c0-.292-.292-.525-.525-.525zm-5.309 2.333h3.5V14h-3.5zm0 2.334h3.5v1.166h-3.5zm0 2.333h3.5v1.167h-3.5zm-2.333-4.667h1.167V14h-1.167zm0 2.334h1.167v1.166h-1.167zm0 2.333h1.167v1.167h-1.167z"/>
</svg>