<svg viewBox="0 0 1024 1024" xmlns="http://www.w3.org/2000/svg"><path d="M443.008 241.152l-41.216-34.304A64 64 0 00360.832 192H128a64 64 0 00-64 64v512a64 64 0 0064 64h768a64 64 0 0064-64V320a64 64 0 00-64-64H483.968a64 64 0 01-40.96-14.848" fill="#9c27b0"/><path d="M960 416.219V544c0 53.02-42.98 96-96 96H544c-17.673 0-32-14.327-32-32 0-17.673 14.327-32 32-32h320v-64H544c-53.02 0-96 42.98-96 96s42.98 96 96 96h320c88.366 0 160-71.634 160-160 0-52.295-25.203-98.585-64-127.781z" fill="#e1bee7"/></svg>