<svg clip-rule="evenodd" fill-rule="evenodd" stroke-linejoin="round" stroke-miterlimit="1.414" viewBox="0 0 24 24" xml:space="preserve" xmlns="http://www.w3.org/2000/svg"><path fill="#F44336" d="M10 4.001H3.999c-1.109 0-1.999.89-1.999 2V18c0 1.096.903 2 1.999 2h16c1.096 0 2-.903 2-2V8.002a2 2 0 0 0-2-2h-8L10 4.001z"/><path fill="#FFCDD2" d="m12.347 21.443-.043-.006a3.5 3.5 0 0 1-.899-.253 2.69 2.69 0 0 1-1.33-1.283 3.402 3.402 0 0 1-.245-.685 4.43 4.43 0 0 1-.12-.93l-.012-.23.826-1.509a2.02 2.02 0 0 1-.276-.532 2.426 2.426 0 0 1-.13-.812c0-.35.062-.731.185-1.132.122-.382.287-.764.495-1.14.412-.757.997-1.522 1.689-2.209l.264-.255h.006a10.78 10.78 0 0 1 1.422-1.128c.606-.399 1.195-.694 1.752-.877a3.83 3.83 0 0 1 1.173-.205c.28 0 .544.044.786.129a1.882 1.882 0 0 1 .786.525l1.74-.92.151.023c.592.099 1.041.267 1.409.509.359.235.652.542.869.915.127.219.227.464.297.728.081.306.122.635.122.981v.76h-.052l-.681 8.935-8.977.613-.014.046-.549-.01-.644-.048zm1.834-1.79 6.714-.458.428-5.62-2.434.183 1.307 5.109-5.224-1.671-.791 2.457zm-1.285-1.597.275-.887a3.957 3.957 0 0 1-.599.132l.324.755zm4.813-1.828-.474-1.857c-.135.15-.277.299-.424.445-.306.3-.616.576-.929.828l1.827.584zm-5.711-.678c.018.005.07.021.176.021a2 2 0 0 0 .611-.119c.271-.092.561-.226.863-.398a9.563 9.563 0 0 0 1.926-1.485 8.67 8.67 0 0 0 1.123-1.357c.294-.445.513-.877.631-1.251.07-.221.108-.43.108-.592a.695.695 0 0 0-.029-.218l-.046-.015-.118-.115c-.001.001-.073-.005-.138-.005-.176 0-.385.04-.619.12a4.79 4.79 0 0 0-.867.383 8.7 8.7 0 0 0-1.883 1.45l-.136.13a8.088 8.088 0 0 0-.991 1.229 5.286 5.286 0 0 0-.626 1.268 2.163 2.163 0 0 0-.108.604c0 .101.01.177.032.237l.027.077M19 11.491a5.832 5.832 0 0 1-.196.52l1.025-.063-.775-.635a8.65 8.65 0 0 1-.054.178zm2.509-.363a2.093 2.093 0 0 0-.078-.57 1.017 1.017 0 0 0-.468-.595 1.473 1.473 0 0 0-.337-.143l-.391.217 1.274 1.091z"/></svg>