<svg xmlns="http://www.w3.org/2000/svg" viewBox="0 0 32 32">
  <path d="M28.96692,12H9.44152a2,2,0,0,0-1.89737,1.36754L4,24V10H28a2,2,0,0,0-2-2H15.1241a2,2,0,0,1-1.28038-.46357L12.5563,6.46357A2,2,0,0,0,11.27592,6H4A2,2,0,0,0,2,8V24a2,2,0,0,0,2,2H26l4.80523-11.21213A2,2,0,0,0,28.96692,12Z" style="fill: #ec407a"/>
  <path d="M25,14a6.90829,6.90829,0,0,0-2,.29,7.042,7.042,0,0,0-4,0A6.90829,6.90829,0,0,0,17,14a7,7,0,0,0,0,14,6.90831,6.90831,0,0,0,2-.29,7.04062,7.04062,0,0,0,4,0A6.90831,6.90831,0,0,0,25,28a7,7,0,0,0,0-14ZM12,21a4.99927,4.99927,0,0,1,4.01-4.9,6.97759,6.97759,0,0,0,0,9.8A4.99921,4.99921,0,0,1,12,21Zm8.01,4.9a4.99875,4.99875,0,0,1,0-9.8,6.97759,6.97759,0,0,0,0,9.8ZM23,16.41a5.01135,5.01135,0,0,1,0,9.18,5.01135,5.01135,0,0,1,0-9.18Zm2.99,9.49a6.97759,6.97759,0,0,0,0-9.8,4.99875,4.99875,0,0,1,0,9.8Z" style="fill: #f8bbd0"/>
</svg>
