<svg xmlns="http://www.w3.org/2000/svg" viewBox="0 0 16 16">
<path id="folder" fill="#039be5" d="M14.483 6H4.721a1 1 0 0 0-.949.684L2 12V5h12a1 1 0 0 0-1-1H7.562a1 1 0 0 1-.64-.232l-.644-.536A1 1 0 0 0 5.638 3H2a1 1 0 0 0-1 1v8a1 1 0 0 0 1 1h11l2.403-5.606A1 1 0 0 0 14.483 6" />
<path id="motive" fill="#b3e5fc" d="M 12,8 V 7 H 10.5 A 0.5,0.5 0 0 0 10,7.5 v 5 A 0.5,0.5 0 0 0 10.5,13 H 12 V 12 H 11 V 8 Z M 16,7 V 6 H 13.5 A 0.5,0.5 0 0 0 13,6.5 v 7 A 0.5,0.5 0 0 0 13.5,14 H 16 V 13 H 14 V 7 Z M 8,8 h 1 v 4 H 8 Z" />
</svg>
