<svg xmlns="http://www.w3.org/2000/svg" viewBox="0 0 32 32"><path fill="#1976d2" d="m13.844 7.536-1.288-1.072A2 2 0 0 0 11.276 6H4a2 2 0 0 0-2 2v16a2 2 0 0 0 2 2h24a2 2 0 0 0 2-2V10a2 2 0 0 0-2-2H15.124a2 2 0 0 1-1.28-.464Z"/><path fill="#bbdefb" d="M24.026 20A2.028 2.028 0 1 1 22 18.048 1.99 1.99 0 0 1 24.026 20Zm6.967-5.002a10.052 10.052 0 0 0-1.59-2.002L27.06 14.3a7.878 7.878 0 0 0-2.445-1.365 9.264 9.264 0 0 0-1.893 2.6 11.744 11.744 0 0 1 7.8 2.618l1.473-.819A9.797 9.797 0 0 0 30.993 15Zm0 10.002A9.799 9.799 0 0 0 32 22.67l-2.342-1.303a7.239 7.239 0 0 0 .005-2.72 9.966 9.966 0 0 0-3.285-.278 10.698 10.698 0 0 1 1.545 7.812l1.473.82A10.054 10.054 0 0 0 30.993 25Zm-8.992 5a10.762 10.762 0 0 0 2.597-.326v-2.603a7.88 7.88 0 0 0 2.451-1.357 9.102 9.102 0 0 0-1.392-2.88 11.358 11.358 0 0 1-6.255 5.196v1.64a10.761 10.761 0 0 0 2.599.33Zm-8.994-5a10.051 10.051 0 0 0 1.592 2.004L16.94 25.7a7.812 7.812 0 0 0 2.447 1.365 9.263 9.263 0 0 0 1.891-2.6 11.746 11.746 0 0 1-7.8-2.618l-1.471.819a9.797 9.797 0 0 0 1 2.333Zm0-10A9.8 9.8 0 0 0 12 17.33l2.343 1.303a7.239 7.239 0 0 0-.005 2.72 9.943 9.943 0 0 0 3.286.278 10.692 10.692 0 0 1-1.545-7.814l-1.475-.82a10.053 10.053 0 0 0-1.597 2.005Zm8.992-5a10.762 10.762 0 0 0-2.597.326v2.603a7.88 7.88 0 0 0-2.45 1.357 9.102 9.102 0 0 0 1.393 2.88A11.353 11.353 0 0 1 24.6 11.97v-1.64A10.762 10.762 0 0 0 22 10Z"/></svg>