<?xml version="1.0" encoding="UTF-8"?>
<svg xmlns="http://www.w3.org/2000/svg" xmlns:xlink="http://www.w3.org/1999/xlink" width="768pt" height="767.999994pt" viewBox="0 0 768 767.999994" version="1.2">
<defs>
<clipPath id="clip1">
  <path d="M 327.925781 382 L 747.925781 382 L 747.925781 733 L 327.925781 733 Z M 327.925781 382 "/>
</clipPath>
</defs>
<g id="surface1">
<path style=" stroke:none;fill-rule:nonzero;fill:rgb(1.179504%,60.778809%,89.7995%);fill-opacity:1;" d="M 581.167969 650.65625 L 81.011719 650.65625 C 44 650.65625 14.324219 620.648438 14.324219 583.96875 L 14.324219 183.84375 C 14.324219 146.832031 44 117.15625 81.011719 117.15625 L 281.074219 117.15625 L 347.761719 183.84375 L 581.167969 183.84375 C 582.257812 183.84375 583.351562 183.871094 584.441406 183.925781 C 585.53125 183.976562 586.617188 184.058594 587.703125 184.164062 C 588.789062 184.273438 589.875 184.40625 590.953125 184.566406 C 592.03125 184.726562 593.105469 184.914062 594.175781 185.125 C 595.25 185.339844 596.3125 185.578125 597.371094 185.84375 C 598.429688 186.109375 599.480469 186.398438 600.527344 186.714844 C 601.570312 187.03125 602.605469 187.375 603.632812 187.742188 C 604.660156 188.109375 605.679688 188.503906 606.6875 188.921875 C 607.695312 189.339844 608.695312 189.78125 609.679688 190.246094 C 610.667969 190.714844 611.640625 191.203125 612.605469 191.71875 C 613.566406 192.234375 614.515625 192.769531 615.453125 193.332031 C 616.386719 193.894531 617.308594 194.476562 618.21875 195.082031 C 619.125 195.691406 620.015625 196.316406 620.894531 196.96875 C 621.769531 197.617188 622.628906 198.289062 623.472656 198.980469 C 624.316406 199.675781 625.144531 200.386719 625.953125 201.121094 C 626.761719 201.851562 627.550781 202.605469 628.324219 203.375 C 629.09375 204.148438 629.847656 204.9375 630.578125 205.746094 C 631.3125 206.554688 632.023438 207.382812 632.71875 208.226562 C 633.410156 209.070312 634.082031 209.929688 634.730469 210.804688 C 635.382812 211.683594 636.011719 212.574219 636.617188 213.480469 C 637.222656 214.390625 637.804688 215.3125 638.367188 216.246094 C 638.929688 217.183594 639.464844 218.132812 639.980469 219.09375 C 640.496094 220.058594 640.984375 221.03125 641.453125 222.019531 C 641.917969 223.003906 642.359375 224.003906 642.777344 225.011719 C 643.195312 226.019531 643.589844 227.039062 643.957031 228.066406 C 644.324219 229.09375 644.667969 230.128906 644.984375 231.171875 C 645.300781 232.21875 645.589844 233.269531 645.855469 234.328125 C 646.121094 235.386719 646.359375 236.453125 646.574219 237.523438 C 646.785156 238.59375 646.972656 239.667969 647.132812 240.746094 C 647.292969 241.828125 647.425781 242.910156 647.535156 243.996094 C 647.640625 245.082031 647.722656 246.167969 647.773438 247.257812 C 647.828125 248.351562 647.855469 249.441406 647.855469 250.53125 L 81.011719 250.53125 L 81.011719 583.96875 L 152.367188 317.21875 L 721.542969 317.21875 L 645.519531 600.640625 C 637.851562 629.648438 611.84375 650.65625 581.167969 650.65625 Z M 581.167969 650.65625 "/>
<g clip-path="url(#clip1)" clip-rule="nonzero">
<path style=" stroke:none;fill-rule:nonzero;fill:rgb(70.199585%,89.7995%,98.81897%);fill-opacity:1;" d="M 450.425781 610.355469 L 529.175781 505.355469 L 590.425781 584.105469 L 634.175781 531.605469 L 695.425781 610.355469 M 712.925781 417.855469 L 572.925781 417.855469 L 537.925781 382.855469 L 432.925781 382.855469 C 431.78125 382.855469 430.636719 382.910156 429.496094 383.023438 C 428.355469 383.136719 427.222656 383.304688 426.097656 383.527344 C 424.976562 383.75 423.863281 384.027344 422.765625 384.363281 C 421.671875 384.695312 420.59375 385.082031 419.535156 385.519531 C 418.472656 385.957031 417.4375 386.445312 416.429688 386.988281 C 415.417969 387.527344 414.433594 388.117188 413.480469 388.753906 C 412.527344 389.390625 411.609375 390.070312 410.722656 390.800781 C 409.835938 391.527344 408.988281 392.296875 408.179688 393.105469 C 407.367188 393.917969 406.597656 394.765625 405.871094 395.652344 C 405.144531 396.535156 404.460938 397.457031 403.824219 398.410156 C 403.1875 399.363281 402.601562 400.34375 402.058594 401.355469 C 401.519531 402.367188 401.03125 403.402344 400.589844 404.460938 C 400.152344 405.519531 399.765625 406.597656 399.433594 407.695312 C 399.101562 408.792969 398.824219 409.902344 398.601562 411.027344 C 398.375 412.152344 398.207031 413.28125 398.097656 414.425781 C 397.984375 415.566406 397.925781 416.707031 397.925781 417.855469 L 397.925781 627.855469 C 397.925781 629 397.984375 630.144531 398.097656 631.285156 C 398.207031 632.425781 398.375 633.558594 398.601562 634.683594 C 398.824219 635.808594 399.101562 636.917969 399.433594 638.015625 C 399.765625 639.113281 400.152344 640.1875 400.589844 641.25 C 401.03125 642.308594 401.519531 643.34375 402.058594 644.351562 C 402.601562 645.363281 403.1875 646.347656 403.824219 647.300781 C 404.460938 648.253906 405.144531 649.171875 405.871094 650.058594 C 406.597656 650.945312 407.367188 651.792969 408.179688 652.601562 C 408.988281 653.414062 409.835938 654.183594 410.722656 654.910156 C 411.609375 655.636719 412.527344 656.320312 413.480469 656.957031 C 414.433594 657.59375 415.417969 658.179688 416.429688 658.722656 C 417.4375 659.261719 418.472656 659.75 419.535156 660.191406 C 420.59375 660.628906 421.671875 661.015625 422.765625 661.347656 C 423.863281 661.679688 424.976562 661.957031 426.097656 662.183594 C 427.222656 662.40625 428.355469 662.574219 429.496094 662.6875 C 430.636719 662.796875 431.78125 662.855469 432.925781 662.855469 L 712.925781 662.855469 C 714.074219 662.855469 715.21875 662.796875 716.359375 662.6875 C 717.5 662.574219 718.632812 662.40625 719.753906 662.183594 C 720.878906 661.957031 721.992188 661.679688 723.085938 661.347656 C 724.183594 661.015625 725.261719 660.628906 726.320312 660.191406 C 727.378906 659.75 728.414062 659.261719 729.425781 658.722656 C 730.4375 658.179688 731.417969 657.59375 732.371094 656.957031 C 733.324219 656.320312 734.246094 655.636719 735.132812 654.910156 C 736.015625 654.183594 736.867188 653.414062 737.675781 652.601562 C 738.488281 651.792969 739.253906 650.945312 739.984375 650.058594 C 740.710938 649.171875 741.390625 648.253906 742.027344 647.300781 C 742.664062 646.347656 743.253906 645.363281 743.792969 644.351562 C 744.335938 643.34375 744.824219 642.308594 745.261719 641.25 C 745.703125 640.1875 746.085938 639.113281 746.421875 638.015625 C 746.753906 636.917969 747.03125 635.808594 747.253906 634.683594 C 747.476562 633.558594 747.644531 632.425781 747.757812 631.285156 C 747.871094 630.144531 747.925781 629 747.925781 627.855469 L 747.925781 452.855469 C 747.925781 451.707031 747.871094 450.566406 747.757812 449.425781 C 747.644531 448.28125 747.476562 447.152344 747.253906 446.027344 C 747.03125 444.902344 746.753906 443.792969 746.421875 442.695312 C 746.085938 441.597656 745.703125 440.519531 745.261719 439.460938 C 744.824219 438.402344 744.335938 437.367188 743.792969 436.355469 C 743.253906 435.34375 742.664062 434.363281 742.027344 433.410156 C 741.390625 432.457031 740.710938 431.535156 739.984375 430.652344 C 739.253906 429.765625 738.488281 428.917969 737.675781 428.105469 C 736.867188 427.296875 736.015625 426.527344 735.132812 425.800781 C 734.246094 425.070312 733.324219 424.390625 732.371094 423.753906 C 731.417969 423.117188 730.4375 422.527344 729.425781 421.988281 C 728.414062 421.445312 727.378906 420.957031 726.320312 420.519531 C 725.261719 420.082031 724.183594 419.695312 723.085938 419.363281 C 721.992188 419.027344 720.878906 418.75 719.753906 418.527344 C 718.632812 418.304688 717.5 418.136719 716.359375 418.023438 C 715.21875 417.910156 714.074219 417.855469 712.925781 417.855469 M 362.925781 452.855469 L 327.925781 452.855469 L 327.925781 697.855469 C 327.925781 699 327.984375 700.144531 328.097656 701.285156 C 328.207031 702.425781 328.375 703.558594 328.601562 704.683594 C 328.824219 705.808594 329.101562 706.917969 329.433594 708.015625 C 329.765625 709.113281 330.152344 710.1875 330.589844 711.25 C 331.03125 712.308594 331.519531 713.34375 332.058594 714.351562 C 332.601562 715.363281 333.1875 716.347656 333.824219 717.300781 C 334.460938 718.253906 335.144531 719.171875 335.871094 720.058594 C 336.597656 720.945312 337.367188 721.792969 338.179688 722.601562 C 338.988281 723.414062 339.835938 724.183594 340.722656 724.910156 C 341.609375 725.636719 342.527344 726.320312 343.480469 726.957031 C 344.433594 727.59375 345.417969 728.179688 346.429688 728.722656 C 347.4375 729.261719 348.472656 729.75 349.535156 730.191406 C 350.59375 730.628906 351.671875 731.015625 352.765625 731.347656 C 353.863281 731.679688 354.976562 731.957031 356.097656 732.183594 C 357.222656 732.40625 358.355469 732.574219 359.496094 732.6875 C 360.636719 732.796875 361.78125 732.855469 362.925781 732.855469 L 677.925781 732.855469 L 677.925781 697.855469 L 362.925781 697.855469 Z M 362.925781 452.855469 "/>
</g>
</g>
</svg>
