<?xml version="1.0" encoding="UTF-8"?>
<svg version="1.1" viewBox="0 0 32 32" xmlns="http://www.w3.org/2000/svg">
 <path d="m28.965 12h-19.524c-0.86094-1e-3 -1.6259 0.55-1.8979 1.368l-3.5437 10.632v-14h23.998c0-1.105-0.89494-2-1.9999-2h-10.875c-0.46797-1e-3 -0.92094-0.165-1.2799-0.464l-1.2879-1.072c-0.35898-0.3-0.81194-0.464-1.2799-0.464h-7.2755c-1.1039 0-1.9999 0.895-1.9999 2v16c0 1.104 0.89594 2 1.9999 2h21.998l4.8047-11.212c0.56596-1.32-0.40197-2.788-1.8379-2.788" fill="#00acc1" stroke-width=".99996"/>
 <path d="m13.98 10c-1.0977 0-1.9805 0.99359-1.9805 2.2285v3.7715h2v-4h16v14h-16v-4h-2v3.7715c0 1.2349 0.88276 2.2285 1.9805 2.2285h16.039c1.0977 0 1.9805-0.99359 1.9805-2.2285v-13.543c0-1.2349-0.88276-2.2285-1.9805-2.2285zm8.0195 4v4h-10v2h10v4l5.1211-5z" fill="#b2ebf2" stroke-width="1.0607"/>
</svg>
