<svg width="24" height="24" viewBox="0 0 24 24" fill="none" xmlns="http://www.w3.org/2000/svg">
<path d="M10 4H4C2.89 4 2 4.89 2 6V18C2 19.097 2.903 20 4 20H20C21.097 20 22 19.097 22 18V8C22 6.89 21.1 6 20 6H12L10 4Z" fill="#66BB6A"/>
<path fill-rule="evenodd" clip-rule="evenodd" d="M22 14.7893C22 11.3564 19.2221 8.57855 15.7893 8.57855C12.3564 8.57855 9.57854 11.3564 9.57854 14.7893C9.57854 18.2221 12.3564 21 15.7893 21C19.2221 21 22 18.2221 22 14.7893ZM18.0477 19.1255C18.522 18.7416 18.8608 18.2221 19.0866 17.522L20.8482 12.1018H19.335L18.1832 16.5961L17.0992 12.1018H15.5408L17.4154 18.1092C17.4154 18.1092 17.2347 18.3125 17.1443 18.3802C16.8959 18.5609 16.512 18.6738 15.9925 18.7416L16.1506 19.7805C16.9411 19.7127 17.5734 19.5095 18.0477 19.1255ZM14.6149 12.0566C14.3439 11.9437 14.0051 11.8985 13.6437 11.8985C13.1243 11.8985 12.6726 12.034 12.2887 12.2373C11.9047 12.4857 11.5886 12.8245 11.3853 13.2761C11.182 13.7052 11.0691 14.2247 11.0691 14.7893C11.0691 15.3765 11.182 15.8734 11.3853 16.3025C11.5886 16.7316 11.9047 17.0703 12.2887 17.2962C12.6952 17.522 13.1469 17.6349 13.6889 17.6349C14.3664 17.6349 14.9536 17.4317 15.4731 17.0026L14.8407 16.0992C14.6149 16.2347 14.4342 16.325 14.2761 16.3928C14.118 16.4606 13.9373 16.4831 13.7567 16.4831C13.3727 16.4831 13.1017 16.3702 12.8985 16.0992C12.6952 15.8508 12.6049 15.4217 12.6049 14.8119C12.6049 13.6149 12.9888 13.0277 13.7567 13.0277C13.9373 13.0277 14.1406 13.0503 14.2987 13.1181C14.4568 13.1858 14.6375 13.2761 14.8181 13.4117L15.4505 12.5534C15.1795 12.3276 14.9085 12.1695 14.6149 12.0566Z" fill="#CFD8DC"/>
</svg>
