<svg xmlns="http://www.w3.org/2000/svg" viewBox="0 0 32 32"><path fill="#ef5350" d="m13.844 7.536-1.288-1.072A2 2 0 0 0 11.276 6H4a2 2 0 0 0-2 2v16a2 2 0 0 0 2 2h24a2 2 0 0 0 2-2V10a2 2 0 0 0-2-2H15.124a2 2 0 0 1-1.28-.464Z"/><path fill="#ffcdd2" d="M23.998 12.978v2.986l4-3.981-4-3.983v2.986A7.981 7.981 0 0 0 16 18.95v.002a7.875 7.875 0 0 0 1.239 4.24l1.46-1.455a5.855 5.855 0 0 1-.7-2.785 5.987 5.987 0 0 1 6-5.974m6.759 1.732-1.46 1.454a5.968 5.968 0 0 1-5.3 8.76v-2.985l-4 3.983 4 3.981v-2.986a7.981 7.981 0 0 0 7.999-7.964v-.001a7.874 7.874 0 0 0-1.24-4.24Z"/></svg>