<?xml version="1.0" encoding="UTF-8" standalone="no"?>
<svg
   clip-rule="evenodd"
   fill-rule="evenodd"
   stroke-linejoin="round"
   stroke-miterlimit="1.414"
   viewBox="0 0 24 24"
   xml:space="preserve"
   version="1.1"
   id="svg831"
   sodipodi:docname="folder-entity.svg"
   inkscape:version="1.1.2 (0a00cf5339, 2022-02-04)"
   xmlns:inkscape="http://www.inkscape.org/namespaces/inkscape"
   xmlns:sodipodi="http://sodipodi.sourceforge.net/DTD/sodipodi-0.dtd"
   xmlns="http://www.w3.org/2000/svg"
   xmlns:svg="http://www.w3.org/2000/svg"
   xmlns:rdf="http://www.w3.org/1999/02/22-rdf-syntax-ns#"
   xmlns:cc="http://creativecommons.org/ns#"
   xmlns:dc="http://purl.org/dc/elements/1.1/"><metadata
     id="metadata837"><rdf:RDF><cc:Work
         rdf:about=""><dc:format>image/svg+xml</dc:format><dc:type
           rdf:resource="http://purl.org/dc/dcmitype/StillImage" /></cc:Work></rdf:RDF></metadata><defs
     id="defs835" /><sodipodi:namedview
     pagecolor="#ffffff"
     bordercolor="#666666"
     borderopacity="1"
     objecttolerance="10"
     gridtolerance="10"
     guidetolerance="10"
     inkscape:pageopacity="0"
     inkscape:pageshadow="2"
     inkscape:window-width="1680"
     inkscape:window-height="994"
     id="namedview833"
     showgrid="false"
     inkscape:showpageshadow="false"
     borderlayer="true"
     inkscape:zoom="32"
     inkscape:cx="12.125"
     inkscape:cy="13.421875"
     inkscape:window-x="0"
     inkscape:window-y="0"
     inkscape:window-maximized="1"
     inkscape:current-layer="svg831"
     inkscape:pagecheckerboard="0" /><path
     d="M10 4H4c-1.11 0-2 .89-2 2v12c0 1.097.903 2 2 2h16c1.097 0 2-.903 2-2V8a2 2 0 0 0-2-2h-8l-2-2z"
     fill="#e57373"
     fill-rule="nonzero"
     style="fill:#00796B
;fill-opacity:1"
     id="path827" /><path
     d="m 11.467538,16.212316 v 1.912729 c 0,1.275153 1.944609,2.371784 4.463035,2.550306 v -1.842596 l 0.08289,-0.07013 c -2.556683,-0.15302 -4.545921,-1.2369 -4.545921,-2.550307 m 5.100608,-0.637579 c -2.818089,0 -5.100612,-1.141261 -5.100612,-2.550306 v 1.91273 c 0,1.409044 2.282523,2.550305 5.100612,2.550305 0.248655,0 0.490934,0 0.739588,0 l 2.448294,-2.473796 c -1.020122,0.382546 -2.097626,0.561067 -3.187882,0.561067 m 0,-6.375764 c -2.818089,0 -5.100612,1.141262 -5.100612,2.550305 0,1.409044 2.282523,2.550306 5.100612,2.550306 2.818088,0 5.100611,-1.141262 5.100611,-2.550306 0,-1.409043 -2.282523,-2.550305 -5.100611,-2.550305 m 5.738188,5.183496 c -0.09564,0 -0.184897,0.03825 -0.248655,0.108388 l -0.637576,0.637576 1.307031,1.275154 0.637577,-0.637577 c 0.133891,-0.127515 0.140266,-0.344291 0,-0.490934 L 22.57412,14.490859 c -0.06375,-0.07013 -0.153018,-0.108388 -0.242279,-0.108388 m -1.275153,1.115759 -3.850962,3.863714 v 1.313407 h 1.313408 l 3.863713,-3.87009 z"
     id="path858"
     style="stroke-width:0.637576;fill:#80CBC4
" /></svg>
