<svg xmlns="http://www.w3.org/2000/svg" viewBox="0 0 32 32">
  <path d="M28.96692,12H9.44152a2,2,0,0,0-1.89737,1.36754L4,24V10H28a2,2,0,0,0-2-2H15.1241a2,2,0,0,1-1.28038-.46357L12.5563,6.46357A2,2,0,0,0,11.27592,6H4A2,2,0,0,0,2,8V24a2,2,0,0,0,2,2H26l4.80523-11.21213A2,2,0,0,0,28.96692,12Z" style="fill: #546e7a"/>
  <path d="M24,12a8,8,0,1,0,3.96857,14.94006L22,19v4.5a.5.5,0,0,1-.5.5h-1a.5.5,0,0,1-.5-.5v-7a.5.5,0,0,1,.5-.5h1.23242a.5.5,0,0,1,.416.22266l6.73572,10.10357A7.99345,7.99345,0,0,0,24,12Zm4,8H26V16.5a.5.5,0,0,1,.5-.5h1a.5.5,0,0,1,.5.5Z" style="fill: #cfd8dc;fill-rule: evenodd"/>
</svg>
