<svg xmlns="http://www.w3.org/2000/svg" clip-rule="evenodd" stroke-linejoin="round" stroke-miterlimit="1.414" viewBox="0 0 24 24">
    <path d="M19 20H4a2 2 0 0 1-2-2V6c0-1.11.89-2 2-2h6l2 2h7c1.097 0 2 .903 2 2H4v10l2.14-8h17.07l-2.28 8.5c-.23.87-1.01 1.5-1.93 1.5z" fill="#ffb300"/>
    <path d="M0 0h24v24H0z" fill="none"/>
    <path fill="none" d="M-74 29h48v48h-48V29zM0 0h24v24H0V0zm0 0h24v24H0V0z"/>
    <path d="M21 9.7h-8v1.5l4.333 4.5L13 20.2v1.5h8v-2.25h-4.667l3.334-3.75-3.334-3.75H21z"/>
</svg>