<svg xmlns="http://www.w3.org/2000/svg" viewBox="0 0 16 16">
<path id="folder" fill="#78909c" d="M14.483 6H4.721a1 1 0 0 0-.949.684L2 12V5h12a1 1 0 0 0-1-1H7.562a1 1 0 0 1-.64-.232l-.644-.536A1 1 0 0 0 5.638 3H2a1 1 0 0 0-1 1v8a1 1 0 0 0 1 1h11l2.403-5.606A1 1 0 0 0 14.483 6" />
<path id="motive" fill="#cfd8dc" d="m 6,9 h 1 v 5 H 6 Z M 6,7 H 7 V 8 H 6 Z m 2,0.5 v 6 A 0.5,0.5 0 0 0 8.5,14 h 3 A 0.5,0.5 0 0 0 12,13.5 v -6 A 0.5,0.5 0 0 0 11.5,7 h -3 A 0.5,0.5 0 0 0 8,7.5 M 11,13 H 9 V 8 h 2 z M 16,8 V 7 H 13.5 A 0.5,0.5 0 0 0 13,7.5 v 3 A 0.5,0.5 0 0 0 13.5,11 H 15 v 2 h -2 v 1 h 2.5 A 0.5,0.5 0 0 0 16,13.5 v -3 A 0.5,0.5 0 0 0 15.5,10 H 14 V 8 Z" />
</svg>
