<svg xmlns="http://www.w3.org/2000/svg" viewBox="0 0 16 16"><path id="folder" fill="#448aff" d="m6.922 3.768-.644-.536A1 1 0 0 0 5.638 3H2a1 1 0 0 0-1 1v8a1 1 0 0 0 1 1h12a1 1 0 0 0 1-1V5a1 1 0 0 0-1-1H7.562a1 1 0 0 1-.64-.232"/><path id="motive" fill="#bbdefb" d="M12.188 10.188a.476.475 0 0 0-.022.672l.022.022a.49.49 0 0 0 .694 0 2.445 2.445 0 0 0 0-3.456l-1.73-1.73A2.444 2.444 0 0 0 7.695 9.15l.728.73a3.4 3.4 0 0 1 .196-1.184l-.23-.235a1.46 1.46 0 0 1-.01-2.06l.01-.012a1.46 1.46 0 0 1 2.062-.01l.01.01 1.727 1.725a1.46 1.46 0 0 1 .011 2.062zm-1.379-2.073a.49.49 0 0 0-.694 0 2.445 2.445 0 0 0 0 3.456l1.731 1.731a2.444 2.444 0 0 0 3.46-3.451l-.004-.005-.728-.729a3.4 3.4 0 0 1-.196 1.188l.23.23a1.46 1.46 0 0 1 .012 2.06l-.012.013a1.46 1.46 0 0 1-2.062.011l-.011-.01-1.726-1.727a1.46 1.46 0 0 1-.011-2.061l.011-.011a.476.475 0 0 0 .022-.673z"/></svg>