<svg id="Camada_1" data-name="Camada 1" xmlns="http://www.w3.org/2000/svg" viewBox="0 0 22 17.64"><defs><style>.cls-1{fill:#a5a598;}.cls-2{fill:#f0f4c3;fill-rule:evenodd;}</style></defs><title>folder-domain</title><path class="cls-1" d="M10,4H4A2,2,0,0,0,2,6V18a2,2,0,0,0,2,2H20a2,2,0,0,0,2-2V8a2,2,0,0,0-2-2H12Z" transform="translate(-2 -4)"/><path class="cls-2" d="M11.1,9.61h5.34v2.9l3.78-3.77L24,12.51,20.22,16.3h2.9v5.34H17.78V16.3h2.44l-3.78-3.79V15H11.1V9.61m0,6.69h5.34v5.34H11.1Z" transform="translate(-2 -4)"/></svg>