<svg version="1.1" viewBox="0 0 32 32" xml:space="preserve" xmlns="http://www.w3.org/2000/svg"><path transform="matrix(1 0 0 1 -1.52e-5 0)" d="m28.967 12h-19.525a2 2 0 0 0-1.898 1.368l-3.544 10.632v-14h24a2 2 0 0 0-2-2h-10.876a2 2 0 0 1-1.28-0.464l-1.288-1.072a2 2 0 0 0-1.28-0.464h-7.276a2 2 0 0 0-2 2v16a2 2 0 0 0 2 2h22l4.805-11.212a2 2 0 0 0-1.838-2.788" display="none" fill="#546e7a"/><path transform="translate(.095729 3.182)" d="m13.748 4.354-1.288-1.072a2 2 0 0 0-1.28-0.464h-7.276a2 2 0 0 0-2 2v16a2 2 0 0 0 2 2h24a2 2 0 0 0 2-2v-14a2 2 0 0 0-2-2h-12.876a2 2 0 0 1-1.28-0.464" fill="#546e7a"/><g transform="translate(-.010848)" fill="none" stroke="#e0e0e0" stroke-linecap="round" stroke-width=".26458"><path transform="matrix(4.1691 0 0 4.0167 -1.6443 -1.7127)" d="m5.7286 5.5117 1.2446-1.2446m-2.3664 0.86967 1.6712-1.6525c0.5506-0.5506 1.2854 0.19264 0.69508 0.78292 0.59002-0.59002 1.3494 0.14729 0.75974 0.73696l-1.3627 1.3627c-0.22945 0.22945-0.22624 0.33503 0.093544 0.65481"/><path transform="matrix(4.1691 0 0 4.0167 -1.6443 -1.7127)" d="m6.6334 3.8586-1.1987 1.1987c-0.6407 0.6407 0.14361 1.3531 0.74835 0.74835l1.1971-1.1971"/></g></svg>
