<svg viewBox="0 0 24 24" fill="none" xmlns="http://www.w3.org/2000/svg"><g><path d="M10 4H4a2 2 0 00-2 2v12c0 1.1.9 2 2 2h16c1.1 0 2-.9 2-2V8a2 2 0 00-2-2h-8l-2-2z" fill="#546E7A"/><path d="M12.361 16.886l.018-.008a1.3 1.3 0 01.56-.113c.212 0 .4.037.56.113.16.076.294.177.401.304.108.126.189.272.243.437.053.164.08.335.08.513s-.027.35-.08.514c-.054.165-.135.31-.243.437a1.16 1.16 0 01-.402.302 1.32 1.32 0 01-.56.111 1.32 1.32 0 01-.657-.161c.836.757 2.443 1.27 4.29 1.27 1.502 0 2.848-.305 3.746-.839-.983.895-2.738 1.525-4.74 1.525-3.08 0-5.577-1.41-5.577-3.146 0-1.738 2.497-3.146 5.577-3.145 2.011 0 3.77.633 4.751 1.534-.899-.538-2.25-.848-3.757-.848-1.79 0-3.354.482-4.21 1.2zm-.299 1.637c.035.128.09.244.166.346a.84.84 0 00.71.34.891.891 0 00.422-.093.841.841 0 00.29-.247c.075-.102.13-.218.165-.346a1.465 1.465 0 000-.78 1.046 1.046 0 00-.165-.345.841.841 0 00-.29-.247.891.891 0 00-.421-.094.84.84 0 00-.71.34c-.077.103-.132.218-.167.347a1.469 1.469 0 000 .78zm2.69-.748V18h.006a.416.416 0 01.218-.201.827.827 0 01.326-.063c.131 0 .246.024.344.07a.7.7 0 01.244.192c.064.08.113.174.146.279a1.151 1.151 0 01.002.67.78.78 0 01-.145.275.681.681 0 01-.244.185.808.808 0 01-.48.054.793.793 0 01-.154-.041.604.604 0 01-.143-.08.443.443 0 01-.114-.123h-.005v.859h-.283v-2.301h.283zm1.003.591a.608.608 0 00-.095-.197.464.464 0 00-.165-.139.507.507 0 00-.234-.051.488.488 0 00-.24.055.478.478 0 00-.161.143.59.59 0 00-.09.2.946.946 0 00.001.466.58.58 0 00.094.201.474.474 0 00.165.14c.069.035.15.053.247.053a.486.486 0 00.241-.055.447.447 0 00.157-.144.626.626 0 00.085-.206 1.08 1.08 0 00.026-.239.84.84 0 00-.031-.227zm1.77.967a.789.789 0 01-.48.141.898.898 0 01-.356-.064.7.7 0 01-.406-.457 1.308 1.308 0 01-.058-.351c0-.127.02-.242.06-.348a.826.826 0 01.167-.273.758.758 0 01.576-.245c.152 0 .278.03.378.092.1.061.181.14.242.234.06.094.102.198.125.31a1.3 1.3 0 01.028.319h-1.276a.643.643 0 00.026.207.463.463 0 00.264.294c.068.03.148.045.24.045a.492.492 0 00.291-.08.388.388 0 00.15-.246h.277a.661.661 0 01-.247.422zm-.068-1.068a.467.467 0 00-.253-.25.49.49 0 00-.192-.036.498.498 0 00-.196.037.454.454 0 00-.248.25.557.557 0 00-.043.182h.977a.549.549 0 00-.045-.183zm.797-.49v.264h.005c.117-.202.303-.303.557-.303.112 0 .206.015.282.045.075.03.135.072.182.126a.462.462 0 01.098.192c.018.074.028.156.028.246v1.096h-.283v-1.127a.326.326 0 00-.092-.245.35.35 0 00-.255-.09.586.586 0 00-.223.038.418.418 0 00-.157.11.469.469 0 00-.094.166.657.657 0 00-.032.208v.94h-.282v-1.666h.266zm3.104 1.648a1.006 1.006 0 01-.386.079c-.206 0-.39-.035-.554-.105a1.184 1.184 0 01-.414-.288 1.267 1.267 0 01-.259-.431 1.553 1.553 0 01-.09-.535c0-.195.03-.377.09-.545.06-.168.146-.314.258-.439a1.18 1.18 0 01.414-.293c.164-.071.348-.107.553-.107.138 0 .27.02.4.06.128.041.244.1.348.18a.963.963 0 01.38.686h-.562a.549.549 0 00-.202-.33.599.599 0 00-.364-.11.633.633 0 00-.563.277.873.873 0 00-.125.288 1.403 1.403 0 000 .656.858.858 0 00.126.28.64.64 0 00.563.276c.195 0 .346-.048.452-.145.107-.096.169-.235.186-.418h-.592v-.43h1.123v1.414h-.374l-.06-.297a.88.88 0 01-.348.277zm1.737-2.598v2.13H24.4v.486h-1.892v-2.616h.587z" fill="#B8CEDA"/></g></svg>