<svg xmlns="http://www.w3.org/2000/svg" viewBox="0 0 32 32">
  <path d="M13.84376,7.53645l-1.28749-1.0729A2,2,0,0,0,11.27591,6H4A2,2,0,0,0,2,8V24a2,2,0,0,0,2,2H28a2,2,0,0,0,2-2V10a2,2,0,0,0-2-2H15.12412A2,2,0,0,1,13.84376,7.53645Z" style="fill: #03a9f4"/>
  <g>
    <path d="M30.99225,14.26349l-7-4a2,2,0,0,0-1.98456.00006l-6.99994,4A1.99992,1.99992,0,0,0,14,16v8.65a2.0001,2.0001,0,0,0,1.025,1.74628l6,3.35A1.99351,1.99351,0,0,0,23,29.73a1.99351,1.99351,0,0,0,1.975.01624l6-3.35A2.0001,2.0001,0,0,0,32,24.65V16A2.00009,2.00009,0,0,0,30.99225,14.26349Z" style="fill: #fff"/>
    <polygon points="30 24.65 24 28 24 22 30 18.65 30 24.65" style="fill: #0277bd"/>
    <polygon points="23 12 16 16 23 20 30 16 23 12" style="fill: #0277bd"/>
    <polygon points="16 24.65 22 28 22 22 16 18.65 16 24.65" style="fill: #0277bd"/>
  </g>
</svg>
