<svg xmlns="http://www.w3.org/2000/svg" viewBox="0 0 16 16"><path id="folder" fill="#8bc34a" d="m6.922 3.768-.644-.536A1 1 0 0 0 5.638 3H2a1 1 0 0 0-1 1v8a1 1 0 0 0 1 1h12a1 1 0 0 0 1-1V5a1 1 0 0 0-1-1H7.562a1 1 0 0 1-.64-.232"/><path id="motive" fill="#dcedc8" d="M13 7H8a2.27 2.27 0 0 0-2.249 1.986l-.742 4.637A1.225 1.225 0 0 0 6.225 15a1.23 1.23 0 0 0 .98-.49L8.5 13h4l1.295 1.51a1.23 1.23 0 0 0 .98.49 1.225 1.225 0 0 0 1.216-1.376l-.741-4.639A2.27 2.27 0 0 0 13 7m-.5 1a.5.5 0 1 1-.5.5.5.5 0 0 1 .5-.5M10 10H9v1H8v-1H7V9h1V8h1v1h1zm1.5 0a.5.5 0 1 1 .5-.5.5.5 0 0 1-.5.5m1 1a.5.5 0 1 1 .5-.5.5.5 0 0 1-.5.5m1-1a.5.5 0 1 1 .5-.5.5.5 0 0 1-.5.5"/></svg>