<svg viewBox="0 0 24 24" xmlns="http://www.w3.org/2000/svg"><path d="M19 20H4a2 2 0 0 1-2-2V6c0-1.11.89-2 2-2h6l2 2h7c1.097 0 2 .903 2 2H4v10l2.14-8h17.07l-2.28 8.5c-.23.87-1.01 1.5-1.93 1.5z" fill="#8bc34a" /><path stroke="null" fill="#dcedc8" d="m13.42806,20.49768l-2.17181,2.30556c-0.24131,0.23056 -0.56306,0.38426 -0.91406,0.38426a1.27969,1.34491 0 0 1 -1.27969,-1.34491l0,-0.19213l0.73125,-5.67167c0.15356,-1.77528 1.56488,-3.1663 3.29063,-3.1663l6.58125,0c1.72575,0 3.13706,1.39102 3.29063,3.1663l0.73125,5.67167l0,0.19213a1.27969,1.34491 0 0 1 -1.27969,1.34491c-0.351,0 -0.67275,-0.1537 -0.91406,-0.38426l-2.17181,-2.30556l-5.89388,0m-0.70931,-6.14815l0,1.53704l-1.4625,0l0,0.76852l1.4625,0l0,1.53704l0.73125,0l0,-1.53704l1.4625,0l0,-0.76852l-1.4625,0l0,-1.53704l-0.73125,0m6.94688,0a0.54844,0.57639 0 0 0 -0.54844,0.57639a0.54844,0.57639 0 0 0 0.54844,0.57639a0.54844,0.57639 0 0 0 0.54844,-0.57639a0.54844,0.57639 0 0 0 -0.54844,-0.57639m-1.27969,1.34491a0.54844,0.57639 0 0 0 -0.54844,0.57639a0.54844,0.57639 0 0 0 0.54844,0.57639a0.54844,0.57639 0 0 0 0.54844,-0.57639a0.54844,0.57639 0 0 0 -0.54844,-0.57639m2.55938,0a0.54844,0.57639 0 0 0 -0.54844,0.57639a0.54844,0.57639 0 0 0 0.54844,0.57639a0.54844,0.57639 0 0 0 0.54844,-0.57639a0.54844,0.57639 0 0 0 -0.54844,-0.57639m-1.27969,1.34491a0.54844,0.57639 0 0 0 -0.54844,0.57639a0.54844,0.57639 0 0 0 0.54844,0.57639a0.54844,0.57639 0 0 0 0.54844,-0.57639a0.54844,0.57639 0 0 0 -0.54844,-0.57639z"/></svg>