<svg viewBox="0 0 32 32" xmlns="http://www.w3.org/2000/svg">
<path d="M28.967 12H9.442C9.02207 11.9999 8.61276 12.132 8.2721 12.3775C7.93143 12.6231 7.6767 12.9696 7.544 13.368L4 24V10H28C28 9.46957 27.7893 8.96086 27.4142 8.58579C27.0391 8.21071 26.5304 8 26 8H15.124C14.6562 7.99979 14.2033 7.8356 13.844 7.536L12.556 6.464C12.1967 6.1644 11.7438 6.00021 11.276 6H4C3.46957 6 2.96086 6.21071 2.58579 6.58579C2.21071 6.96086 2 7.46957 2 8V24C2 24.5304 2.21071 25.0391 2.58579 25.4142C2.96086 25.7893 3.46957 26 4 26H26L30.805 14.788C30.9354 14.4838 30.9883 14.152 30.9589 13.8224C30.9295 13.4927 30.8187 13.1755 30.6366 12.8992C30.4544 12.6229 30.2065 12.3961 29.9151 12.2391C29.6237 12.0822 29.298 12 28.967 12Z" fill="#FF7043"/>
<path d="M32 17L30 16V14H28L27 12L25 13L23 12L22 14H20V16L18 17L19 19L18 21L20 22V24H22L23 26L25 25L27 26L28 24H30V22L32 21L31 19L32 17ZM20 19C19.9997 18.3113 20.1431 17.6301 20.421 17H22V21H20.421C20.1431 20.3699 19.9997 19.6887 20 19ZM25 24C24.2255 23.9991 23.4618 23.8179 22.7695 23.4707C22.0771 23.1236 21.4751 22.6201 21.011 22H25V21H24V20H26C26.4095 20.4095 26.1485 21.154 26.5895 21.685C26.681 21.7874 26.7937 21.8686 26.9198 21.923C27.0458 21.9774 27.1822 22.0037 27.3195 22H28.9895C28.5254 22.6201 27.9232 23.1237 27.2308 23.4708C26.5383 23.818 25.7746 23.9991 25 24ZM24 18V17H26C26.1326 17 26.2598 17.0527 26.3536 17.1464C26.4473 17.2402 26.5 17.3674 26.5 17.5C26.5 17.6326 26.4473 17.7598 26.3536 17.8536C26.2598 17.9473 26.1326 18 26 18H24ZM29.579 21H29C28.735 20.9992 28.4811 20.8936 28.2938 20.7062C28.1064 20.5189 28.0008 20.265 28 20C28 19.7348 27.8946 19.4804 27.7071 19.2929C27.5196 19.1054 27.2652 19 27 19C27.3978 19 27.7794 18.842 28.0607 18.5607C28.342 18.2794 28.5 17.8978 28.5 17.5C28.5 17.4733 28.4993 17.4465 28.498 17.4195C28.4631 17.0264 28.2803 16.6611 27.9864 16.3976C27.6925 16.1341 27.3096 15.992 26.915 16H21.011C21.7457 15.0196 22.8152 14.3435 24.016 14.1004C25.2168 13.8574 26.465 14.0643 27.5232 14.6818C28.5813 15.2993 29.3755 16.2843 29.7546 17.4493C30.1337 18.6143 30.0712 19.8781 29.579 21Z" fill="#FFCCBC"/>
</svg>