<svg xmlns="http://www.w3.org/2000/svg" viewBox="0 0 16 16">
<path id="folder" fill="#00acc1" d="M14.483 6H4.721a1 1 0 0 0-.949.684L2 12V5h12a1 1 0 0 0-1-1H7.562a1 1 0 0 1-.64-.232l-.644-.536A1 1 0 0 0 5.638 3H2a1 1 0 0 0-1 1v8a1 1 0 0 0 1 1h11l2.403-5.606A1 1 0 0 0 14.483 6" />
<path id="motive" fill="#b2ebf2" d="M 6.99005,5 C 6.441022,5 6,5.497 6,6.1145 V 8 H 7.00005 V 6 h 8.0004 v 7 H 7.00005 V 11 H 6 v 1.886 C 6,13.503 6.441022,14 6.99005,14 h 8.0199 C 15.558978,14 16,13.503 16,12.886 V 6.1145 C 16.0005,5.497 15.559478,5 15.01045,5 Z m 4.0102,2 V 9 H 6 v 1 h 5.00025 v 2 l 2.560128,-2.5 z" />
</svg>
