<svg xmlns="http://www.w3.org/2000/svg" viewBox="0 0 16 16">
<path id="folder" fill="#f9a825" d="M14.483 6H4.721a1 1 0 0 0-.949.684L2 12V5h12a1 1 0 0 0-1-1H7.562a1 1 0 0 1-.64-.232l-.644-.536A1 1 0 0 0 5.638 3H2a1 1 0 0 0-1 1v8a1 1 0 0 0 1 1h11l2.403-5.606A1 1 0 0 0 14.483 6" />
<path id="motive" fill="#fff9c4" d="M 13.999894,8.0001059 V 6.0861399 A 2.0579637,2.0579637 0 0 0 12.196426,4.0096763 1.9999647,1.9999647 0 0 0 9.999965,6.0001411 V 8.0001059 H 8.999982 A 0.99998235,0.99998236 0 0 0 8,9.0000879 V 13.000018 A 0.99998235,0.99998236 0 0 0 8.999982,14 h 5.999894 a 0.99998235,0.99998236 0 0 0 0.999983,-0.999982 V 9.0000879 a 0.99998235,0.99998236 0 0 0 -0.999983,-0.999982 z m -1.999965,3.9999291 a 0.99998235,0.99998236 0 1 1 0.999983,-0.999982 0.99998235,0.99998236 0 0 1 -0.999983,0.999982 M 12.999912,8.0001059 H 10.999947 V 6.0001411 a 0.9999825,0.99998251 0 0 1 1.999965,0 z" />
</svg>
