<svg xmlns="http://www.w3.org/2000/svg" viewBox="0 0 32 32">
  <path d="M24.645,27.33335H4.66414A2.6654,2.6654,0,0,1,2,24.66668v-16A2.65618,2.65618,0,0,1,4.64568,6q.00923,0,.01846,0h7.99234l2.66411,2.66667H24.645a2.67842,2.67842,0,0,1,2.66411,2.66667H4.66414V24.66668L7.51474,14H30.25291l-3.037,11.33334A2.66706,2.66706,0,0,1,24.645,27.33335Z" style="fill: #00bcd4"/>
  <path d="M21,18.03464a1.92255,1.92255,0,1,1-.00354,0l.00354,0m-4.738,10.2841c.64543.39531,2.05722-.20729,3.68464-1.76781q-.82049-.94838-1.54439-1.97657a22.8855,22.8855,0,0,1-2.45642-.37311c-.5216,2.22383-.32782,3.75327.31609,4.116m.727-5.96673-.29722-.53153a8.32331,8.32331,0,0,0-.29577.89427c.27682.06218.58279.11548.90041.16731l-.30743-.53152m6.69188-.78916.829-1.56053-.829-1.559c-.306-.55077-.63378-1.03937-.931-1.528-.55364-.03257-1.13642-.03257-1.74834-.03257-.61484,0-1.19907,0-1.75126.03257-.29722.48859-.62357.97718-.931,1.528l-.829,1.559.83046,1.56054c.306.55077.63231,1.03936.92953,1.528.55364.03109,1.13642.03109,1.7498.03109s1.19767,0,1.7498-.02961c.29722-.49007.62358-.97866.931-1.52944M21,14.57158c-.19377.22948-.39922.46786-.60318.74917h1.20636c-.204-.28131-.408-.51969-.60318-.74917m0,10.8556c.19378-.228.39922-.46786.60318-.74769H20.39682c.204.28132.408.5182.60318.74769m4.72782-13.7457c-.63524-.39531-2.047.20727-3.67444,1.76781a24.51613,24.51613,0,0,1,1.54439,1.97508,22.85711,22.85711,0,0,1,2.45643.3746c.523-2.22531.32781-3.75327-.32636-4.116M25.011,17.64968l.29722.53006a8.23284,8.23284,0,0,0,.29577-.89428c-.27682-.06218-.58278-.114-.9004-.16582l.30741.53m1.48314-7.32886c1.505.87207,1.66821,3.16992,1.03444,5.85273C30.12782,16.95382,32,18.2434,32,19.99936c0,1.75745-1.87218,3.047-4.47285,3.8273.63523,2.6828.472,4.98066-1.033,5.8542-1.49338.87355-3.53021-.12585-5.49273-2.02839-1.96691,1.90255-4.00225,2.90194-5.50727,2.02839-1.49338-.87354-1.65656-3.1714-1.02279-5.8542C11.8737,23.04639,10,21.75681,10,19.99936s1.87362-3.04554,4.47284-3.82581c-.63522-2.68281-.472-4.98067,1.02279-5.8542C16.9992,9.4458,19.036,10.44371,21,12.34773c1.964-1.904,4.0008-2.90193,5.49418-2.02838m-.29577,9.68a23.38269,23.38269,0,0,1,.9106,2.35116c2.149-.65589,3.35536-1.59162,3.35536-2.35116,0-.75806-1.20635-1.69378-3.35536-2.34968a23.63546,23.63546,0,0,1-.9106,2.34968m-10.39682,0a23.62708,23.62708,0,0,1-.91059-2.34968c-2.14755.6559-3.35537,1.59162-3.35537,2.34968,0,.75954,1.20782,1.69527,3.35537,2.35116a24.24877,24.24877,0,0,1,.91059-2.35116m9.2094,2.35116-.306.53006c.31617-.05183.62358-.10365.89894-.16731a8.45059,8.45059,0,0,0-.29575-.89426l-.29722.53152m-2.95762,4.2004c1.62742,1.559,3.03921,2.16163,3.67444,1.76781.65562-.36422.84941-1.89218.32636-4.11749a23.324,23.324,0,0,1-2.455.37458c-.491.69588-1.01259,1.36214-1.5444,1.9751M16.989,17.64969l.306-.53c-.3161.05182-.62358.10364-.89895.1673a8.45012,8.45012,0,0,0,.29577.89427l.29722-.53152m2.95764-4.2004c-1.62742-1.559-3.0392-2.16165-3.68464-1.76781-.644.36422-.8392,1.89218-.3161,4.11749a23.32662,23.32662,0,0,1,2.455-.37459c.491-.69587,1.01257-1.36213,1.54439-1.97509Z" style="fill: #b2ebf2;fill-rule: evenodd"/>
</svg>
