<svg version="1.1" viewBox="0 0 32 32" xmlns="http://www.w3.org/2000/svg">
 <path d="m13.844 7.536-1.288-1.072A2 2 0 0 0 11.276 6H4a2 2 0 0 0-2 2v16a2 2 0 0 0 2 2h24a2 2 0 0 0 2-2V10a2 2 0 0 0-2-2H15.124a2 2 0 0 1-1.28-.464" fill="#29b6f6"/>
 <path d="m16 12c-1.108 0-2 0.892-2 2s0.892 2 2 2h14c1.108 0 2-0.892 2-2s-0.892-2-2-2zm0 6c-1.108 0-2 0.892-2 2s0.892 2 2 2h14c1.108 0 2-0.892 2-2s-0.892-2-2-2zm0 6c-1.108 0-2 0.892-2 2s0.892 2 2 2h14c1.108 0 2-0.892 2-2s-0.892-2-2-2z" fill="#b3e5fc" stroke-width="0"/>
</svg>
