<svg xmlns="http://www.w3.org/2000/svg" viewBox="0 0 16 16"><path id="folder" fill="#03a9f4" d="m6.922 3.768-.644-.536A1 1 0 0 0 5.638 3H2a1 1 0 0 0-1 1v8a1 1 0 0 0 1 1h12a1 1 0 0 0 1-1V5a1 1 0 0 0-1-1H7.562a1 1 0 0 1-.64-.232"/><g id="motive"><path fill="#fafafa" d="m15.496 7.132-3.5-2a1 1 0 0 0-.992 0l-3.5 2A1 1 0 0 0 7 8v4.325a1 1 0 0 0 .513.873l3 1.675a1 1 0 0 0 .987-.008 1 1 0 0 0 .988.008l3-1.675a1 1 0 0 0 .512-.873V8a1 1 0 0 0-.504-.868"/><path fill="#0277bd" d="M15 12.325 12 14v-3l3-1.675zM11.5 6 8 8l3.5 2L15 8zM8 12.325 11 14v-3L8 9.325z"/></g></svg>