<svg xmlns="http://www.w3.org/2000/svg" viewBox="0 0 32 32">
  <path d="M13.84376,7.53645l-1.28749-1.0729A2,2,0,0,0,11.27591,6H4A2,2,0,0,0,2,8V24a2,2,0,0,0,2,2H28a2,2,0,0,0,2-2V10a2,2,0,0,0-2-2H15.12412A2,2,0,0,1,13.84376,7.53645Z" style="fill: #0288d1"/>
  <path d="M23.99844,12.97757v2.98624l4-3.98114L23.99844,8v2.98624A7.98117,7.98117,0,0,0,16,18.95v.00154a7.87463,7.87463,0,0,0,1.239,4.23982l1.4604-1.45409a5.85456,5.85456,0,0,1-.701-2.78573,5.987,5.987,0,0,1,6-5.974h0m6.75939,1.73267L29.2974,16.16431a5.96846,5.96846,0,0,1-5.299,8.75972h0v-2.9847l-4,3.98266,4,3.98113V26.9169a7.98117,7.98117,0,0,0,7.99845-7.96377v-.00157a7.87447,7.87447,0,0,0-1.239-4.2398Z" style="fill: #b3e5fc;fill-rule: evenodd"/>
</svg>
