<svg clip-rule="evenodd" fill-rule="evenodd" stroke-linejoin="round" stroke-miterlimit="1.414" viewBox="0 0 24 24" xml:space="preserve" xmlns="http://www.w3.org/2000/svg"><path d="M19 20H4a2 2 0 0 1-2-2V6c0-1.11.89-2 2-2h6l2 2h7c1.097 0 2 .903 2 2H4v10l2.14-8h17.07l-2.28 8.5c-.23.87-1.01 1.5-1.93 1.5z" fill="#ff7043" fill-rule="nonzero"/><path d="M10.916 8.915h12.585v2.797H10.916V8.915m.7 3.496h11.186V21.5H11.615v-9.09m3.846 2.098a.35.35 0 0 0-.35.35v1.049h4.195v-1.05a.35.35 0 0 0-.35-.349z" fill="#ffccbc"/></svg>