<svg xmlns="http://www.w3.org/2000/svg" viewBox="0 0 16 16">
<path id="folder" fill="#546e7a" d="M14.483 6H4.721a1 1 0 0 0-.949.684L2 12V5h12a1 1 0 0 0-1-1H7.562a1 1 0 0 1-.64-.232l-.644-.536A1 1 0 0 0 5.638 3H2a1 1 0 0 0-1 1v8a1 1 0 0 0 1 1h11l2.403-5.606A1 1 0 0 0 14.483 6" />
<path id="motive" fill="#cfd8dc" d="m 14.576172,5 -2.136719,2.1366017 -0.355469,1.0663478 -0.810546,0.8124554 a 1.0069668,1.0069047 0 0 0 -0.498047,-0.00586 c -0.01242,0.00333 -0.02536,0.00766 -0.03711,0.011718 a 1.0069668,1.0069047 0 0 0 -0.183593,0.072262 c -0.01813,0.00906 -0.0369,0.019222 -0.05469,0.029295 a 1.0069668,1.0069047 0 1 0 1.376953,1.3768781 c 0.01007,-0.01779 0.01861,-0.03622 0.02734,-0.05468 a 1.0069668,1.0069047 0 0 0 0.07422,-0.183583 l 0.01172,-0.03711 a 1.0069668,1.0069047 0 0 0 -0.0059,-0.4980196 L 12.794922,8.915801 13.863281,8.5603518 16,6.4237501 h -1.423828 z m -3.806641,0.00586 a 5,4.999726 0 1 0 4.884766,3.1677951 l -0.791016,0.7909723 a 4,3.9997808 0 1 1 -2.830078,-2.82797 L 12.826172,5.3456842 A 5,4.999726 0 0 0 10.769531,5.00586 Z m 0.138672,1.9959843 A 3,2.9998356 0 1 0 13.982422,9.669666 L 12.988281,9.779035 A 2,1.9998904 0 1 1 11.220703,8.0115538 l 0.109375,-0.9940863 a 3,2.9998356 0 0 0 -0.421875,-0.015623 z" />
</svg>
