<svg xmlns="http://www.w3.org/2000/svg" clip-rule="evenodd" fill-rule="evenodd" stroke-linejoin="round" stroke-miterlimit="1.414" viewBox="0 0 24 24">
    <path d="M19 20H4a2 2 0 0 1-2-2V6c0-1.11.89-2 2-2h6l2 2h7c1.097 0 2 .903 2 2H4v10l2.14-8h17.07l-2.28 8.5c-.23.87-1.01 1.5-1.93 1.5z" fill="#00796B" fill-rule="nonzero"/>
    <path d="M19.777 10.407h-8.273a1.18 1.18 0 0 0-1.176 1.182l-.006 7.64c0 .408.207.768.52.981l4.798 3.197 4.792-3.197c.314-.213.52-.573.52-.981l.007-7.64c0-.65-.532-1.182-1.182-1.182zm-5.319 8.863l-2.954-2.954.833-.833 2.121 2.115 4.485-4.485.834.84z" fill="#E0F2F1"/>
</svg>