<svg viewBox="0 0 24 24" fill="none" xmlns="http://www.w3.org/2000/svg">
  <path
    d="M10 4H4C2.89 4 2 4.89 2 6V18C2 19.097 2.903 20 4 20H20C21.097 20 22 19.097 22 18V8C22 7.46957 21.7893 6.96086 21.4142 6.58579C21.0391 6.21071 20.5304 6 20 6H12L10 4Z"
    fill="#1976D2" />
  <path
    d="M17.8551 18.2074V21.0799H23.6V15.3351H17.8551V18.2074ZM11.7 18.2074V21.0799H17.4447V15.3351H11.7V18.2074ZM17.8551 12.0523V14.9247H23.6V9.17993H17.8551V12.0523ZM11.7 12.0523V14.9247H17.4447V9.17993H11.7V12.0523Z"
    fill="#BBDEFB" />
</svg>