<svg width="32" height="32" viewBox="0 0 32 32" fill="none" xmlns="http://www.w3.org/2000/svg">
<path d="M28.9669 12H9.44152C9.02175 12 8.61263 12.1321 8.2721 12.3775C7.93157 12.623 7.67689 12.9693 7.54415 13.3675L4 24V10H28C28 9.46957 27.7893 8.96086 27.4142 8.58579C27.0391 8.21071 26.5304 8 26 8H15.1241C14.6562 8 14.2032 7.83596 13.8437 7.53643L12.5563 6.46357C12.1969 6.16404 11.7438 6 11.2759 6H4C3.46957 6 2.96086 6.21071 2.58579 6.58579C2.21071 6.96086 2 7.46957 2 8V24C2 24.5304 2.21071 25.0391 2.58579 25.4142C2.96086 25.7893 3.46957 26 4 26H26L30.8052 14.7879C30.9356 14.4837 30.9885 14.1519 30.959 13.8222C30.9296 13.4925 30.8188 13.1753 30.6366 12.899C30.4544 12.6227 30.2065 12.3959 29.9151 12.239C29.6237 12.0821 29.2979 12 28.9669 12Z" fill="#BA68C8"/>
<path d="M18.5048 28.5901C17.3651 27.6403 17.0324 25.6446 17.5072 24.1987C18.3305 25.1103 19.4713 25.3991 20.6529 25.5621C22.4771 25.8136 24.2686 25.7195 25.9631 24.9594C26.157 24.8724 26.3361 24.7567 26.548 24.6394C26.707 25.06 26.7483 25.4846 26.6928 25.9167C26.5578 26.9692 25.9833 27.7821 25.0696 28.3984C24.7042 28.6449 24.3176 28.8653 23.9402 29.0977C22.7809 29.8121 22.4673 30.6497 22.9029 31.868C22.9133 31.8979 22.9225 31.9276 22.9459 32C22.354 31.7584 21.9217 31.4067 21.5922 30.9444C21.2443 30.4565 21.0787 29.9167 21.07 29.3326C21.0657 29.0484 21.0657 28.7616 21.0238 28.4814C20.9214 27.7982 20.5696 27.4924 19.9069 27.4748C19.2268 27.4567 18.6888 27.84 18.5462 28.4437C18.5353 28.49 18.5206 28.5363 18.5048 28.5901Z" fill="#E1BEE7"/>
<path d="M12 23.9579C12 23.9579 15.3748 22.459 18.7591 22.459L21.3107 15.2595C21.4062 14.9114 21.6851 14.6747 22 14.6747C22.3149 14.6747 22.5938 14.9114 22.6893 15.2595L25.241 22.459C29.2491 22.459 32 23.9579 32 23.9579C32 23.9579 26.2676 9.72059 26.2564 9.69203C26.0919 9.2711 25.8141 9 25.4397 9H18.5609C18.1865 9 17.9199 9.2711 17.7442 9.69203C17.7318 9.72006 12 23.9579 12 23.9579Z" fill="#E1BEE7"/>
</svg>
