<svg xmlns="http://www.w3.org/2000/svg" viewBox="0 0 16 16">
<path fill="#039be5" d="m6.922 3.768-.644-.536A1 1 0 0 0 5.638 3H2a1 1 0 0 0-1 1v8a1 1 0 0 0 1 1h12a1 1 0 0 0 1-1V5a1 1 0 0 0-1-1H7.562a1 1 0 0 1-.64-.232" id="folder"/>
<g id="motive"><path fill="#b3e5fc" d="M7 8h2v2h-2zm-3 0h2v2H4zm6 0h2v2h-2zm0-3h2v2h-2z"/><path fill="#b3e5fc" d="M15.8335 9.905a1.825 1.825 0 0 0-1.5335-0.1885 2.3 2.3 0 0 0-0.8335-1.4725l-0.1665-0.151-0.1335 0.189a2.22 2.22 0 0 0-0.3335 1.3965 2.5 2.5 0 0 0 0.1165 0.5505l-0.31 0.6415A2.55 2.55 0 0 1 11.8 11H3a7.65 7.65 0 0 0 0.4325 2.3785l0.1335 0.264v0.038a4.11 4.11 0 0 0 3.8 2.19c3 0 5.467-1.4725 6.634-4.644a1.8025 1.8025 0 0 0 1.9-1.0195l0.1-0.1885ZM6 14a1 1 0 1 1 1-1 1 1 0 0 1-1 1"/></g>
</svg>
