<svg xmlns="http://www.w3.org/2000/svg" viewBox="0 0 16 16"><path id="folder" fill="#1e88e5" d="m6.922 3.768-.644-.536A1 1 0 0 0 5.638 3H2a1 1 0 0 0-1 1v8a1 1 0 0 0 1 1h12a1 1 0 0 0 1-1V5a1 1 0 0 0-1-1H7.562a1 1 0 0 1-.64-.232"/><path id="motive" fill="#bbdefb" d="M13.677 10.436 16 12.67l-1.37 1.313-2.307-2.236v-.368l.974-.945zm.376-1.012-.4-.384-1.977 1.92v.788L9.353 14 8 12.672l2.306-2.237h.813l.322-.312-1.585-1.54H9.32L8.16 7.449 9.243 6.4l1.155 1.12v.524l1.605 1.536L13.1 8.516l-.395-.404.535-.524h-1.098l-.268-.26L13.24 6l.272.263v1.065l.541-.529 1.353 1.313a1.11 1.11 0 0 1 0 1.592l-.813-.805Z"/></svg>