<svg width="24" height="24" viewBox="0 0 24 24" fill="none" xmlns="http://www.w3.org/2000/svg">
<path d="M19 20H4C2.9 20 2 19.1 2 18V6C2 4.9 2.9 4 4 4H10L12 6H19C20.1 6 21 6.9 21 8H4V18L6.1 10H23.2L20.9 18.5C20.7 19.4 19.9 20 19 20V20Z" fill="#EEEEEE"/>
<path d="M22.7257 12.7424L22.1654 12.7883V14.0065L21.667 13.7692L21.1686 14.0065V12.8699L17.3064 13.1863L17.6383 20.987L22.726 21.2576L22.7257 12.7424ZM20.1093 14.3464V14.3465C21.0592 14.3465 21.6049 14.9228 21.5779 16.0905L20.4934 16.1205C20.5136 15.4917 20.271 15.4318 20.1363 15.4318C20.0083 15.4318 19.7927 15.4768 19.7927 15.8136C19.7927 16.6445 21.6386 16.5996 21.6386 18.2763C21.6386 19.2194 20.9784 19.6535 20.1363 19.6535C19.2672 19.6535 18.506 19.3241 18.5935 17.8794H19.7321C19.7186 18.4633 19.8332 18.673 20.1228 18.673C20.3451 18.673 20.4461 18.5307 20.4461 18.2912C20.4461 17.4379 18.6273 17.4079 18.6273 15.8434C18.6273 14.9452 19.1594 14.3464 20.1093 14.3464L20.1093 14.3464Z" fill="#EC407A"/>
<path d="M16.8679 13.1864H16.274L16.5229 20.987H17.1997L16.8679 13.1864Z" fill="#BA68C8"/>
</svg>
