<?xml version="1.0" encoding="UTF-8"?>
<svg version="1.1" viewBox="0 0 24 24" xmlns="http://www.w3.org/2000/svg">
 <path d="M19 20H4C3.46957 20 2.96086 19.7893 2.58579 19.4142C2.21071 19.0391 2 18.5304 2 18V6C2 4.89 2.89 4 4 4H10L12 6H19C20.097 6 21 6.903 21 8H4V18L6.14 10H23.21L20.93 18.5C20.7 19.37 19.92 20 19 20Z" fill="#EF5350"/>
 <path d="m10.814 18.856h2.1923l-0.67924 2.0511h-1.5131zm0-3.8995h3.4836l-0.67913 2.0511h-2.8044zm0-3.8995h4.775l-0.67935 2.0511h-4.0957zm6.9356 0h5.4504v2.0511h-6.1295zm-1.2912 3.8995h6.7416v2.0511h-7.4209zm-1.2914 3.8995h8.033v2.0511h-8.7121z" fill="#ffcdd2" stroke-width="1.1059"/>
</svg>
