<svg xmlns="http://www.w3.org/2000/svg" viewBox="0 0 32 32"><path fill="#ff9800" d="M28.967 12H9.442a2 2 0 0 0-1.898 1.368L4 24V10h24a2 2 0 0 0-2-2H15.124a2 2 0 0 1-1.28-.464l-1.288-1.072A2 2 0 0 0 11.276 6H4a2 2 0 0 0-2 2v16a2 2 0 0 0 2 2h22l4.805-11.212A2 2 0 0 0 28.967 12"/><g fill="#ffe0b2" data-mit-no-recolor="true" transform="matrix(.7 0 0 .7 10 10)"><path d="M6.2 18a22.7 22.7 0 0 0 9.8 2 22.7 22.7 0 0 0 9.8-2 10.002 10.002 0 0 1-19.6 0m0-4a22.7 22.7 0 0 1 9.8-2 22.7 22.7 0 0 1 9.8 2 10.002 10.002 0 0 0-19.6 0"/><circle cx="27" cy="5" r="3"/><circle cx="5" cy="27" r="3"/><circle cx="5" cy="5" r="3"/></g></svg>