<svg xmlns="http://www.w3.org/2000/svg" viewBox="0 0 32 32"><path fill="#1e88e5" d="M28.965 12.001H9.44a2 2 0 0 0-1.898 1.368L3.998 24.001v-14h24a2 2 0 0 0-2-2H15.122a2 2 0 0 1-1.28-.464l-1.288-1.072a2 2 0 0 0-1.28-.464H3.998a2 2 0 0 0-2 2v16a2 2 0 0 0 2 2h22l4.805-11.212a2 2 0 0 0-1.838-2.788"/><path fill="#bbdefb" d="M21 20h-6a1 1 0 0 1-1-1v-6a1 1 0 0 1 1-1h6a1 1 0 0 1 1 1v6a1 1 0 0 1-1 1m7-8a4 4 0 1 0 4 4 4 4 0 0 0-4-4m.707 17.707 3-3a1 1 0 0 0 0-1.414l-3-3a1 1 0 0 0-1.414 0l-3 3a1 1 0 0 0 0 1.414l3 3a1 1 0 0 0 1.414 0m-11.581-7.193-2.999 6A1 1 0 0 0 15.001 30H21a1 1 0 0 0 .874-1.486l-2.999-6a1 1 0 0 0-1.748 0"/></svg>