<svg
  xmlns="http://www.w3.org/2000/svg"
  clip-rule="evenodd"
  fill-rule="evenodd"
  stroke-linejoin="round"
  stroke-miterlimit="1.414"
  viewBox="0 0 24 24"
>
  <path
    d="M10 4H4c-1.11 0-2 .89-2 2v12c0 1.097.903 2 2 2h16c1.097 0 2-.903 2-2V8a2 2 0 00-2-2h-8l-2-2z"
    fill-rule="nonzero"
    fill="#212121"
  />
  <path
    d="M23.38 16.335a7.621 7.388 0 01-7.616 7.389 7.621 7.388 0 01-7.626-7.38 7.621 7.388 0 017.608-7.397 7.621 7.388 0 017.635 7.37"
    fill="#fff"
  />
  <path
    d="M15.025 6.323a8.822 8.822 0 00-8.731 8.832 8.822 8.822 0 008.826 8.81 8.822 8.822 0 003.74-.832c-.22-.298-.215-.287-.469-.63l-1.798-2.43-2.257-3.337a325.785 325.785 0 00-2.27-3.335c-.008-.003-.016 1.48-.02 3.291-.007 3.17-.01 3.296-.05 3.371a.402.402 0 01-.193.201c-.07.036-.132.042-.464.042h-.382l-.1-.062a.415.415 0 01-.147-.163l-.047-.098.005-4.41.006-4.414.07-.087a.602.602 0 01.162-.135c.09-.044.125-.046.505-.046.45 0 .523.017.64.144.033.036 1.255 1.876 2.716 4.091 1.46 2.216 3.458 5.24 4.44 6.725l.53.807a8.822 8.822 0 004.2-7.514v-.02A8.822 8.822 0 0015.1 6.323a8.822 8.822 0 00-.075 0zm3.276 4.258c.325 0 .384.005.456.044a.445.445 0 01.222.26c.018.058.023 1.28.018 4.038l-.008 3.956-.696-1.07-.699-1.068v-2.876c0-1.86.007-2.905.02-2.956a.449.449 0 01.22-.276c.09-.046.121-.052.467-.052z"
  />
</svg>
