<svg xmlns="http://www.w3.org/2000/svg" viewBox="0 0 32 32">
  <path d="M28.96692,12H9.44152a2,2,0,0,0-1.89737,1.36754L4,24V10H28a2,2,0,0,0-2-2H15.1241a2,2,0,0,1-1.28038-.46357L12.5563,6.46357A2,2,0,0,0,11.27592,6H4A2,2,0,0,0,2,8V24a2,2,0,0,0,2,2H26l4.80523-11.21213A2,2,0,0,0,28.96692,12Z" style="fill: #ff7043"/>
  <g>
    <polygon points="26.017 24 22 28 32 28 32 24 26.017 24" style="fill: #ffccbc;fill-rule: evenodd"/>
    <path d="M23.29289,14.70711,14,24v4h4l9.29289-9.29289a1,1,0,0,0,0-1.41422l-2.58578-2.58578A1,1,0,0,0,23.29289,14.70711Z" style="fill: #ffccbc;fill-rule: evenodd"/>
  </g>
</svg>
