<svg xmlns="http://www.w3.org/2000/svg" viewBox="0 0 16 16"><path id="folder" fill="#1976d2" d="m6.922 3.768-.644-.536A1 1 0 0 0 5.638 3H2a1 1 0 0 0-1 1v8a1 1 0 0 0 1 1h12a1 1 0 0 0 1-1V5a1 1 0 0 0-1-1H7.562a1 1 0 0 1-.64-.232"/><path id="motive" fill="#bbdefb" d="M12.591 6.574c-.332-.506-.41-.574-1.085-.574h-.016c-.675 0-.75.067-1.085.574C10.094 7.05 7 12.737 7 12.895a1.25 1.25 0 0 0 .273.757c.217.312.591.486.864.21.184-.187 2.17-3.62 3.128-4.919a.288.288 0 0 1 .47 0c.958 1.299 2.944 4.732 3.129 4.919.272.276.647.101.864-.21a1.25 1.25 0 0 0 .272-.757c-.004-.159-3.097-5.85-3.409-6.321"/></svg>