<svg xmlns="http://www.w3.org/2000/svg" viewBox="0 0 16 16">
<path id="folder" fill="#ef5350" d="M14.483 6H4.721a1 1 0 0 0-.949.684L2 12V5h12a1 1 0 0 0-1-1H7.562a1 1 0 0 1-.64-.232l-.644-.536A1 1 0 0 0 5.638 3H2a1 1 0 0 0-1 1v8a1 1 0 0 0 1 1h11l2.403-5.606A1 1 0 0 0 14.483 6" />
<path id="motive" fill="#ffcdd2" d="m 12,5.0000003 a 1.4585,1.46 0 0 0 -0.6525,0.1540004 l -2.695,1.35 A 1.18,1.1815 0 0 0 8,7.5600007 v 3.8795003 a 1.18,1.1815 0 0 0 0.652,1.0555 l 2.695,1.3505 a 1.4585,1.46 0 0 0 1.305,0 l 2.695,-1.35 A 1.18,1.1815 0 0 0 16,11.439001 V 7.5600007 a 1.18,1.1815 0 0 0 -0.652,-1.056 l -2.6955,-1.35 a 1.4585,1.46 0 0 0 -0.653,-0.1540004 m 0,0.6650004 a 1.4375,1.439 0 0 1 0.643,0.1525 l 2.0235,1.0125 -0.8335,0.417 -1.8335,-0.9175 -1.833,0.9175 -0.8335,-0.417 2.0235,-1.0125 a 1.4375,1.439 0 0 1 0.644,-0.153 z m -2.8675,1.7725 a 0.441,0.4415 0 0 1 0.172,0.0455 l 2.695,1.3495 2.695,-1.3495 a 0.441,0.4415 0 0 1 0.1565,-0.044 0.441,0.4415 0 0 1 0.482,0.439 v 3.0765003 a 1.154,1.155 0 0 1 -0.638,1.0335 l -2.057,1.03 a 1.4265,1.428 0 0 1 -1.2765,0 l -2.057,-1.03 a 1.154,1.155 0 0 1 -0.638,-1.0335 V 7.8780007 a 0.441,0.4415 0 0 1 0.466,-0.4405 m 0.2005,0.894 v 2.8365003 l 2.6675,1.335 2.667,-1.335 V 8.3315007 l -2.0665,1.035 a 1.3415,1.343 0 0 1 -1.2005,0 z" />
</svg>
