<svg xmlns="http://www.w3.org/2000/svg" viewBox="0 0 32 32"><path fill="#4caf50" d="m13.844 7.536-1.288-1.072A2 2 0 0 0 11.276 6H4a2 2 0 0 0-2 2v16a2 2 0 0 0 2 2h24a2 2 0 0 0 2-2V10a2 2 0 0 0-2-2H15.124a2 2 0 0 1-1.28-.464"/><path fill="#c8e6c9" d="M18.435 30a1 1 0 0 1-.238-.028 1.137 1.137 0 0 1-.828-1.323l3.093-15.744a1.13 1.13 0 0 1 .507-.744 1.06 1.06 0 0 1 .8-.134 1.14 1.14 0 0 1 .828 1.324l-3.1 15.744a1.12 1.12 0 0 1-.505.743 1.06 1.06 0 0 1-.557.162m6.2-2h-.077a1.08 1.08 0 0 1-.762-.412 1.164 1.164 0 0 1 .113-1.548l5.32-4.967-5.297-4.623a1.165 1.165 0 0 1-.162-1.544 1.08 1.08 0 0 1 .754-.437 1.06 1.06 0 0 1 .81.258l6.244 5.455a1.156 1.156 0 0 1 .004 1.723l-6.22 5.808a1.07 1.07 0 0 1-.728.289Zm-9.31 0a1.07 1.07 0 0 1-.728-.292l-6.225-5.811a1.16 1.16 0 0 1-.01-1.692l.02-.018 6.246-5.454a1.03 1.03 0 0 1 .8-.26 1.08 1.08 0 0 1 .758.436 1.165 1.165 0 0 1-.16 1.547l-5.293 4.62 5.32 4.964a1.156 1.156 0 0 1 .112 1.548 1.07 1.07 0 0 1-.762.412Z"/></svg>