<svg version="1.1" viewBox="0 0 16 16" xml:space="preserve" xmlns="http://www.w3.org/2000/svg"><path d="m6.922 3.768-0.644-0.536c-0.17964-0.1498-0.4061-0.23189-0.64-0.232h-3.638c-0.55228 0-1 0.44772-1 1v8c0 0.55228 0.44772 1 1 1h12c0.55228 0 1-0.44772 1-1v-7c0-0.55228-0.44772-1-1-1h-6.438c-0.2339-1.052e-4 -0.46036-0.082198-0.64-0.232" fill="#f44336"/><g transform="matrix(1.0002 0 0 1.0004 .99412 -.0054252)" fill="#ffccbc"><path d="m12.437 9.0018c-1.3465 0-2.4332 0.47943-2.4332 1.0955 0 0.61604 1.0906 1.115 2.4371 1.115 1.3465 0 2.5557-0.49897 2.5557-1.115 0-0.61604-1.1936-1.0955-2.5401-1.0955m-2.4527 1.653v0.83626c0 0.61604 1.0906 1.115 2.4371 1.115 1.3465 0 2.5604-0.51322 2.5604-1.1293v-0.8125c0 0.61604-1.214 1.1055-2.5604 1.1055-1.3465 0-2.4371-0.49897-2.4371-1.115m0 1.3938v0.83626c0 0.61604 1.0906 1.115 2.4371 1.115 1.3465 0 2.5648-0.50679 2.5619-1.1228l-0.0039-0.84016c0 0.61604-1.2116 1.1267-2.558 1.1267-1.3465 0-2.4371-0.49896-2.4371-1.115z" stroke-width=".2914"/><path d="m10.803 5.0034-4.1984 2.9988 2.769 1.9367c0.03976-0.27982 0.17759-0.53051 0.34954-0.71456 0.01912-0.020465 0.03867-0.03921 0.05858-0.05857l-1.6559-1.1636 2.6772-1.8801 2.6792 1.8801-0.52919 0.3729c0.42828 0.032974 0.83301 0.10925 1.199 0.22647l0.85139-0.59937zm-3.4427 4.6017-0.75571 0.53104 2.7553 1.9348v-1.0601z" stroke-width=".44304"/></g></svg>
