<svg xmlns="http://www.w3.org/2000/svg" viewBox="0 0 24 24"><path d="m19 20h-15c-1.11 0-2-.9-2-2v-12c0-1.11.89-2 2-2h6l2 2h7c1.097 0 2 .903 2 2h-17v10l2.14-8h17.07l-2.28 8.5c-.23.87-1.01 1.5-1.93 1.5z" fill="#ec407a"/><path d="M17.496 8.158a1.382 1.382 0 00-1.355 1.643l-2.582 1.492a1.386 1.386 0 00-.213-.154.168.168 0 00-.002 0 1.382 1.382 0 00-1.381 2.394c.078.045.158.08.24.108v2.984c-.08.028-.16.061-.236.105a1.386 1.386 0 00-.506 1.887c.379.66 1.225.886 1.887.508.076-.044.146-.096.21-.152l2.583 1.49a1.382 1.382 0 102.738.262c0-.104-.013-.204-.035-.301l2.558-1.479a1.384 1.384 0 002.129-.326h.002v-.002a1.381 1.381 0 00-.506-1.887 1.37 1.37 0 00-.236-.105v-2.986a1.38 1.38 0 00.24-.106c.659-.382.885-1.23.506-1.888a1.383 1.383 0 00-1.887-.506.168.168 0 00-.002 0c-.077.045-.149.097-.214.154l-2.58-1.488a1.384 1.384 0 00-1.357-1.646zm-1.246 2.637l-3.135 5.426v-2.59c.3-.106.567-.31.737-.606.169-.294.21-.624.154-.935l2.244-1.295zm2.5.004l2.236 1.293c-.056.31-.012.64.157.933.17.296.436.5.736.606v2.586l-3.129-5.418zm-1.506.097c.082.016.166.026.252.026.088 0 .173-.01.256-.026l3.539 6.131a1.373 1.373 0 00-.152.211 1.365 1.365 0 00-.106.235h-7.072a1.365 1.365 0 00-.106-.235.168.168 0 00-.001-.002 1.378 1.378 0 00-.15-.207l3.54-6.133zm-2.875 7.49h6.322L18.414 19.7a1.37 1.37 0 00-.918-.357c-.341 0-.651.13-.892.336l-2.235-1.291z" fill="#f8bbd0"/></svg>