<svg xmlns="http://www.w3.org/2000/svg" viewBox="0 0 32 32"><path fill="#F4511E" d="m13.844 7.536-1.288-1.072A2 2 0 0 0 11.276 6H4a2 2 0 0 0-2 2v16a2 2 0 0 0 2 2h24a2 2 0 0 0 2-2V10a2 2 0 0 0-2-2H15.124a2 2 0 0 1-1.28-.464"/><path fill="#FFCCBC" d="M20.852 18.182v-1.818h.851v-3.637h-.851v-.909L24.258 10l3.407 1.818v.91h-.852v3.636h.852v1.818h-1.073l-5.366 3.308.477-3.31h-.851zm4.258-1.818v-3.637h-1.703v3.637zM20 30l.034-.218L27.792 25l.443 3.073L25.11 30zm.894-6.21L27.077 20l.443 3.064-7.154 4.409z"/></svg>