<svg viewBox="0 0 24 24" xmlns="http://www.w3.org/2000/svg" clip-rule="evenodd" fill-rule="evenodd" stroke-linejoin="round" stroke-miterlimit="1.414"><path d="M19 20H4c-1.111 0-2-.9-2-2V6c0-1.11.89-2 2-2h6l2 2h7c1.097 0 2 .903 2 2H4v10l2.14-8h17.07l-2.28 8.5c-.23.87-1.011 1.5-1.93 1.5z" fill-rule="nonzero" fill="#B39DDB"/><g fill-rule="nonzero" paint-order="fill markers stroke" fill="#ec407a"><path d="M22.3 10.39l-.746.056v1.462l-.665-.285-.664.285v-1.364l-5.15.38.443 9.36 6.783.325zm-3.488 1.926c1.267 0 1.995.691 1.959 2.093l-1.446.036c.026-.755-.297-.827-.477-.827-.17 0-.458.054-.458.458 0 .997 2.461.943 2.461 2.955 0 1.132-.88 1.653-2.003 1.653-1.158 0-2.173-.395-2.057-2.129h1.518c-.018.7.135.953.521.953.297 0 .432-.171.432-.459 0-1.024-2.426-1.06-2.426-2.937 0-1.078.71-1.796 1.976-1.796z"/><path d="M14.49 10.924H13.7l.332 9.36h.902z" fill="#ba68c8"/></g></svg>