<svg xmlns="http://www.w3.org/2000/svg" viewBox="0 0 32 32">
  <path d="M13.84376,7.53645l-1.28749-1.0729A2,2,0,0,0,11.27591,6H4A2,2,0,0,0,2,8V24a2,2,0,0,0,2,2H28a2,2,0,0,0,2-2V10a2,2,0,0,0-2-2H15.12412A2,2,0,0,1,13.84376,7.53645Z" style="fill: #757575"/>
  <g>
    <path d="M31.35067,17.70267,31.328,17.64l-2.33867-6.09733a.6066.6066,0,0,0-.24-.29067.61735.61735,0,0,0-.928.35333L26.244,16.436H19.85333l-1.57866-4.83067A.61867.61867,0,0,0,17.348,11.252a.60671.60671,0,0,0-.24.29067l-2.33733,6.09866-.024.06a4.34,4.34,0,0,0,1.44,5.01734l.00933.00666.02.01467,3.556,2.66667L21.536,26.74l1.072.80933a.724.724,0,0,0,.87334,0l1.072-.81066,1.764-1.33334,3.58266-2.68.00934-.008A4.34,4.34,0,0,0,31.35067,17.70267Z" style="fill: #e53935"/>
    <path d="M31.35067,17.70267,31.328,17.64a7.8854,7.8854,0,0,0-3.14267,1.41333L23.052,22.936l3.268,2.46933,3.58133-2.68.01067-.008a4.34,4.34,0,0,0,1.44-5.01466Z" style="fill: #ef6c00"/>
    <path d="M19.772,25.40533l1.764,1.33334,1.072.81066a.724.724,0,0,0,.87334,0l1.072-.81066,1.76533-1.33334L23.04934,22.936Z" style="fill: #f9a825"/>
    <path d="M17.912,19.05333a7.87871,7.87871,0,0,0-3.14133-1.412l-.024.06134a4.34,4.34,0,0,0,1.44,5.016l.00933.00666.02.016,3.556,2.66533L23.04267,22.936Z" style="fill: #ef6c00"/>
  </g>
</svg>
