<svg xmlns="http://www.w3.org/2000/svg" viewBox="0 0 16 16">
<path id="folder" fill="#ff9800" d="m6.922 3.768-.644-.536A1 1 0 0 0 5.638 3H2a1 1 0 0 0-1 1v8a1 1 0 0 0 1 1h12a1 1 0 0 0 1-1V5a1 1 0 0 0-1-1H7.562a1 1 0 0 1-.64-.232" />
<path id="motive" fill="#fffde7" d="M 11.5 5 A 1.025 1.0251145 0 0 0 10.992188 5.1347656 L 7.515625 7.1269531 A 1.025 1.0251145 0 0 0 7 8.015625 L 7 11.986328 A 0.96500002 0.96510776 0 0 0 7.5078125 12.839844 L 8 13.121094 L 8 8.4667969 A 0.85000001 0.8500949 0 0 1 8.0703125 8.1757812 A 0.82000001 0.82009155 0 0 1 8.4140625 7.7773438 L 11.113281 6.2324219 A 0.79500001 0.79508875 0 0 1 11.902344 6.2324219 L 14.599609 7.7773438 A 0.80000001 0.8000893 0 0 1 14.974609 8.2695312 A 0.80000001 0.8000893 0 0 1 15 8.4667969 L 15 11.535156 A 0.79000001 0.7900882 0 0 1 14.601562 12.224609 L 11.898438 13.771484 A 0.80000001 0.8000893 0 0 1 11.5 13.876953 L 11.5 15 A 1.03 1.030115 0 0 0 12.009766 14.865234 L 15.484375 12.873047 A 1.025 1.0251145 0 0 0 16 11.984375 L 16 8.015625 A 1 1.0001117 0 0 0 15.962891 7.7421875 A 1.015 1.0151133 0 0 0 15.486328 7.1269531 L 12.009766 5.1347656 A 1.025 1.0251145 0 0 0 11.5 5 z M 11.5 7.2246094 A 0.57000001 0.57006365 0 0 0 11.216797 7.2988281 L 9.2871094 8.4042969 A 0.57500001 0.5750642 0 0 0 9.03125 8.7128906 A 0.60000001 0.600067 0 0 0 9 8.8984375 L 8.9921875 13.6875 L 10 14.251953 L 10 12.019531 L 11.201172 12.707031 A 0.57500001 0.5750642 0 0 0 11.769531 12.707031 L 13.714844 11.591797 A 0.57000001 0.57006365 0 0 0 14 11.099609 L 14 8.8984375 A 0.57000001 0.57006365 0 0 0 13.712891 8.4042969 L 11.783203 7.2988281 A 0.57000001 0.57006365 0 0 0 11.5 7.2246094 z M 11.5 8.3339844 A 0.34000001 0.34003796 0 0 1 11.667969 8.3789062 L 12.828125 9.0429688 A 0.34000001 0.34003796 0 0 1 12.992188 9.2675781 A 0.50000001 0.5000558 0 0 1 13 9.3398438 L 13 10.664062 A 0.34000001 0.34003796 0 0 1 12.830078 10.957031 L 11.669922 11.621094 A 0.35000001 0.35003908 0 0 1 11.5 11.666016 A 0.35000001 0.35003908 0 0 1 11.330078 11.621094 L 10.169922 10.955078 A 0.34000001 0.34003796 0 0 1 10 10.664062 L 10 9.3398438 A 0.35000001 0.35003908 0 0 1 10.019531 9.2226562 A 0.34000001 0.34003796 0 0 1 10.171875 9.0429688 L 11.332031 8.3789062 A 0.34000001 0.34003796 0 0 1 11.5 8.3339844 z " />
</svg>
