<svg xmlns="http://www.w3.org/2000/svg" viewBox="0 0 32 32"><path d="M28.967 12H9.442a2 2 0 0 0-1.898 1.368L4 24V10h24a2 2 0 0 0-2-2H15.124a2 2 0 0 1-1.28-.464l-1.288-1.072A2 2 0 0 0 11.276 6H4a2 2 0 0 0-2 2v16a2 2 0 0 0 2 2h22l4.805-11.212A2 2 0 0 0 28.967 12" fill="#FF1744"/><g fill="#FF80AB"><path d="M22.776 12.447c-4.197 0-7.6 1.7-7.6 3.8s3.4 3.8 7.6 3.8 7.6-1.7 7.6-3.8-3.4-3.8-7.6-3.8m-7.6 6.133v1.547c0 2.1 3.4 3.8 7.6 3.8s7.6-1.7 7.6-3.8V17.28c0 2.096-3.4 3.8-7.6 3.8s-7.6-1.704-7.6-3.8m0 3.88v2.853c0 2.096 3.4 3.8 7.6 3.8s7.6-1.704 7.6-3.8V21.16c0 2.1-3.4 3.8-7.6 3.8s-7.6-1.7-7.6-3.8"/><path d="M21 11.4h-2.267l3.965-4.52 3.96 4.52h-2.262v4.863H21z"/><path d="M24.741 12.205v4.042h-3.965v-4.042" stroke="#FF1744" stroke-width=".427"/></g></svg>