<svg xmlns="http://www.w3.org/2000/svg" viewBox="0 0 16 16"><path id="folder" fill="#00acc1" d="m6.922 3.768-.644-.536A1 1 0 0 0 5.638 3H2a1 1 0 0 0-1 1v8a1 1 0 0 0 1 1h12a1 1 0 0 0 1-1V5a1 1 0 0 0-1-1H7.562a1 1 0 0 1-.64-.232"/><path id="motive" fill="#b2ebf2" d="M15.434 7.91a.905.905 0 0 1 .032 1.283q-.015.017-.032.033l-1.321 1.314-3.679-3.662 1.321-1.315a.915.915 0 0 1 1.288-.031q.017.015.032.032l.85.845L15.338 5l.661.657-1.415 1.409Zm-2.735 2.723-.662-.657-1.32 1.315-.99-.987 1.32-1.314-.66-.658-1.321 1.315-.708-.657-1.32 1.314a.905.905 0 0 0-.032 1.283l.032.032.849.845L6 14.341l.661.659 1.887-1.878.848.845a.915.915 0 0 0 1.29.032l.031-.033 1.32-1.313-.66-.658z"/></svg>