<?xml version="1.0" encoding="utf-8"?>
<svg xmlns="http://www.w3.org/2000/svg" viewBox="0 0 32 32" xmlns:bx="https://boxy-svg.com" width="32px" height="32px"><defs><bx:export><bx:file format="svg"/></bx:export></defs><path d="m13.844 7.536-1.288-1.072A2 2 0 0 0 11.276 6H4a2 2 0 0 0-2 2v16a2 2 0 0 0 2 2h24a2 2 0 0 0 2-2V10a2 2 0 0 0-2-2H15.124a2 2 0 0 1-1.28-.464" style="fill: rgb(183, 28, 28);"/><path d="M 15.795 11.264 C 16.508 11.221 18.638 12.237 18.681 12.262 C 17.598 12.94 16.676 13.855 15.979 14.937 C 15.292 13.621 14.662 12.026 15.217 11.473 C 15.358 11.331 15.552 11.264 15.795 11.264 M 31.018 11.373 C 31.362 11.331 31.639 11.381 31.806 11.549 C 32.704 12.455 30.213 16.421 29.794 16.85 C 29.365 17.269 28.275 16.883 27.378 15.985 C 26.48 15.079 26.094 13.998 26.514 13.57 C 26.857 13.226 29.55 11.515 31.018 11.373 M 23.604 11.733 C 24.685 11.733 25.726 11.951 26.674 12.337 C 26.262 12.606 25.961 12.816 25.86 12.916 C 25.03 13.747 25.399 15.315 26.724 16.64 C 27.545 17.454 28.502 17.948 29.29 17.948 C 29.86 17.948 30.247 17.704 30.447 17.504 C 30.591 17.361 30.816 17.034 31.077 16.64 C 31.504 17.629 31.731 18.711 31.731 19.861 C 31.731 24.356 28.099 28.014 23.604 28.014 C 19.109 28.014 15.475 24.356 15.475 19.861 C 15.475 15.365 19.109 11.733 23.604 11.733 Z" style="fill: rgb(255, 205, 210);"/></svg>