<svg xmlns="http://www.w3.org/2000/svg" viewBox="0 0 32 32">
  <path d="M13.84376,7.53645l-1.28749-1.0729A2,2,0,0,0,11.27591,6H4A2,2,0,0,0,2,8V24a2,2,0,0,0,2,2H28a2,2,0,0,0,2-2V10a2,2,0,0,0-2-2H15.12412A2,2,0,0,1,13.84376,7.53645Z" style="fill: #616161"/>
  <path d="M32,17V14a41.26251,41.26251,0,0,1-9,1,41.26251,41.26251,0,0,1-9-1v3a36.08426,36.08426,0,0,0,3.93805.6814L17.72729,20H14v2h3.54547L17,28h3V22h6v6h3l-.54547-6H32V20H28.27271L28.062,17.6814A36.08426,36.08426,0,0,0,32,17Zm-6,3H24V18H22v2H20V17.88354C20.93811,17.95386,21.94452,18,23,18s2.06189-.04614,3-.11646Z" style="fill: #f5f5f5;fill-rule: evenodd"/>
</svg>
