<?xml version="1.0" encoding="utf-8"?>
<!-- Generator: Adobe Illustrator 28.0.0, SVG Export Plug-In . SVG Version: 6.00 Build 0)  -->
<svg version="1.1" id="Layer_1" xmlns="http://www.w3.org/2000/svg" xmlns:xlink="http://www.w3.org/1999/xlink" x="0px" y="0px"
	 viewBox="0 0 32 32" style="enable-background:new 0 0 32 32;" xml:space="preserve">
<style type="text/css">
	.st0{display:none;fill:#212128;}
	.st1{fill:#722E89;}
	.st2{display:none;fill:#722E89;}
	.st3{fill:#EBEBEB;}
</style>
<rect id="bg" x="-38.4" y="-32.6" class="st0" width="108.8" height="108.8"/>
<path id="closed" class="st1" d="M13.8,7.5l-1.3-1.1C12.2,6.2,11.7,6,11.3,6H4C2.9,6,2,6.9,2,8v16c0,1.1,0.9,2,2,2h24
	c1.1,0,2-0.9,2-2V10c0-1.1-0.9-2-2-2H15.1C14.7,8,14.2,7.8,13.8,7.5z"/>
<path id="opened" class="st2" d="M29,12H9.4c-0.9,0-1.6,0.6-1.9,1.4L4,24V10h24c0-1.1-0.9-2-2-2H15.1c-0.5,0-0.9-0.2-1.3-0.5
	l-1.3-1.1C12.2,6.2,11.7,6,11.3,6H4C2.9,6,2,6.9,2,8v16c0,1.1,0.9,2,2,2h22l4.8-11.2c0.4-1,0-2.2-1.1-2.6C29.5,12.1,29.2,12,29,12z"
	/>
<path id="icon" class="st3" d="M31,18c0,0.2,0,0.5,0,0.7c-0.2,0.8-0.4,1.6-0.9,2.2c-0.5,0.7-1,1.4-1.6,2c-2.3,2.3-4.6,4.6-6.9,6.8
	h-0.1l-0.1,0.1c-0.3-0.3-0.5-0.6-0.8-0.9c-1.7-1.6-3.4-3.2-5-4.8c-1.1-1.1-2.1-2.3-2.7-3.7c-0.3-0.6-0.4-1.3-0.6-2
	c0-0.3,0-0.6,0-0.9l0.1-0.1c0.3-2.4,2.6-3.8,4.9-3.6c1.3,0.1,2.3,0.7,3.2,1.5c0.3,0.3,0.7,0.7,1.1,1c0.5-0.5,1-1,1.5-1.5
	c2.5-2.3,6.7-0.9,7.7,2.4C30.9,17.5,30.9,17.8,31,18z"/>
</svg>
