<?xml version="1.0" encoding="UTF-8"?><svg id="Camada_1" xmlns="http://www.w3.org/2000/svg" viewBox="0 0 500 500"><defs><style>.cls-1{fill:#29beb0;}.cls-2{fill:#69d2c8;}.cls-3{fill:#94dfd8;}.cls-4{fill:#168e80;}</style></defs><path class="cls-4" d="M377.45,373.19H78.51c-22.01,0-39.86-17.85-39.86-39.86V94.18c0-22.12,17.74-39.86,39.86-39.86h119.57l39.86,39.86h139.5c21.86,0,39.86,18,39.86,39.86H78.51v199.29l42.65-159.43H461.35l-45.44,169.4c-4.58,17.34-20.13,29.89-38.46,29.89Z"/><g><path class="cls-1" d="M343.34,323.68v121.99l-104.39-63.27v-122l104.39,63.27Z"/><path class="cls-2" d="M343.34,323.68v121.99l104.39-63.27v-122l-104.39,63.27Z"/><path class="cls-3" d="M343.34,323.68l-104.39-63.27,104.39-63.27,104.39,63.27-104.39,63.27Z"/></g></svg>