<svg viewBox="0 0 24 24" fill="none" xmlns="http://www.w3.org/2000/svg">
  <path
    d="M19 20H4a2 2 0 0 1-2-2V6c0-1.11.89-2 2-2h6l2 2h7c1.097 0 2 .903 2 2H4v10l2.14-8h17.07l-2.28 8.5c-.23.87-1.01 1.5-1.93 1.5Z"
    fill="#37474F" />
  <path fill-rule="evenodd" clip-rule="evenodd"
    d="M18.448 15.022 18.437 12h-1.685l.011 3.022.843 1.157.842-1.157ZM16.763 20.2v3.034h1.685V20.2l-.842-1.157-.843 1.157Z"
    fill="#fff" />
  <path fill-rule="evenodd" clip-rule="evenodd"
    d="m18.448 20.2 1.775 2.45 1.36-.989-1.776-2.449-1.359-.438V20.2ZM16.763 15.022l-1.786-2.45-1.36.99 1.776 2.448 1.37.439v-1.427Z"
    fill="#00F2E6" />
  <path fill-rule="evenodd" clip-rule="evenodd"
    d="m15.393 16.01-2.876-.932L12 16.673l2.876.944 1.36-.45-.843-1.157ZM18.965 18.055l.842 1.157 2.876.933.517-1.596-2.876-.932-1.36.438Z"
    fill="#40C4FF" />
  <path fill-rule="evenodd" clip-rule="evenodd"
    d="m20.324 17.617 2.876-.944-.517-1.595-2.876.932-.842 1.157 1.36.45ZM14.876 17.617 12 18.549l.517 1.596 2.876-.933.842-1.157-1.36-.438Z"
    fill="#E040FB" />
  <path fill-rule="evenodd" clip-rule="evenodd"
    d="m15.393 19.212-1.775 2.449 1.359.989 1.786-2.45v-1.426l-1.37.438ZM19.807 16.01l1.775-2.449-1.359-.988-1.775 2.449v1.427l1.36-.439Z"
    fill="#F50057" />
</svg>