<svg xmlns="http://www.w3.org/2000/svg" clip-rule="evenodd" fill-rule="evenodd" stroke-linejoin="round" stroke-miterlimit="1.41" viewBox="0 0 24 24"><path d="M19 20H4a2 2 0 0 1-2-2V6c0-1.11.89-2 2-2h6l2 2h7c1.1 0 2 .9 2 2H4v10l2.14-8h17.07l-2.28 8.5c-.23.87-1.01 1.5-1.93 1.5z" fill="#00e4bc" fill-rule="nonzero"/><path d="m16.911 8.83-1.033.035-4.717 11.966 3.168-.018s.43-1.136.654-1.687c1.309 0 2.617.017 3.926.017.223.551.654 1.688.654 1.688l3.357-.052-4.976-11.914zm.018 5.028.895 2.428c-.585.017-1.17.017-1.739.017z" fill="#ccfff6" style="stroke-width:1.72166"/></svg>