<svg xmlns="http://www.w3.org/2000/svg" viewBox="0 0 16 16">
<path id="folder" fill="#ec407a" d="M14.483 6H4.721a1 1 0 0 0-.949.684L2 12V5h12a1 1 0 0 0-1-1H7.562a1 1 0 0 1-.64-.232l-.644-.536A1 1 0 0 0 5.638 3H2a1 1 0 0 0-1 1v8a1 1 0 0 0 1 1h11l2.403-5.606A1 1 0 0 0 14.483 6" />
<path id="motive" fill="#f8bbd0" d="m 12.500373,7.0000333 a 3.5006523,3.5 0 0 0 -1.000186,0.145 3.520656,3.52 0 0 0 -2.0003733,0 3.5006523,3.5 0 0 0 -1.0001863,-0.145 3.5006523,3.5 0 0 0 0,6.9999997 3.5006523,3.5 0 0 0 1.0001863,-0.145 3.520656,3.52 0 0 0 2.0003733,0 3.5006523,3.5 0 0 0 1.000186,0.145 3.5006523,3.5 0 0 0 0,-6.9999997 M 5.9991614,10.500033 a 2.5004659,2.5 0 0 1 2.0053737,-2.4499997 3.4906504,3.49 0 0 0 0,4.8999997 2.5004659,2.5 0 0 1 -2.0053737,-2.45 m 4.0057466,2.45 a 2.4999658,2.4995 0 0 1 0,-4.8999997 3.4906504,3.49 0 0 0 0,4.8999997 m 1.495279,-4.7449997 a 2.505967,2.5055 0 0 1 0,4.5899997 2.505967,2.5055 0 0 1 0,-4.5899997 m 1.495279,4.7449997 a 3.4906504,3.49 0 0 0 0,-4.8999997 2.4999658,2.4995 0 0 1 0,4.8999997" />
</svg>
