<svg xmlns="http://www.w3.org/2000/svg" viewBox="0 0 16 16"><path id="folder" fill="#8d6e63" d="m6.922 3.768-.644-.536A1 1 0 0 0 5.638 3H2a1 1 0 0 0-1 1v8a1 1 0 0 0 1 1h12a1 1 0 0 0 1-1V5a1 1 0 0 0-1-1H7.562a1 1 0 0 1-.64-.232"/><g id="motive"><path fill="#5d4037" d="M15.799 10.395c-.514-.506-3.083-.822-3.893-.914a3 3 0 0 0 .1-.294 3 3 0 0 1 .353-.135c.015.046.086.22.126.303a1.583 1.583 0 0 0 1.767-1.39 2 2 0 0 0 .013-.204 2 2 0 0 1 .62-1.287c-.832-.249-2.03.385-2.431 1.329a2.5 2.5 0 0 0-.452-.127A2.2 2.2 0 0 0 9.875 6a4.035 4.035 0 0 0-3.873 4.182l.001.035c0 2.23 1.485 4.183 2.324 4.183a.825.825 0 0 0 .755-.534c.062.173.252.71.315.847.092.202.52.378.707.168a.68.68 0 0 0 .922-.147.68.68 0 0 0 .861-.445l.02-.074c.227-.013.339-.34.289-.6a6.5 6.5 0 0 0-.58-1.117c.303.251 1.067.322 1.159 0 .487.391 1.244.186 1.305-.132.59.157 1.268-.188 1.157-.607A.815.815 0 0 0 16 10.9a.83.83 0 0 0-.201-.506"/><path fill="#03a9f4" d="M13.126 8.187a3.7 3.7 0 0 1 .785-1.151 2.07 2.07 0 0 0-.918 1.06 3 3 0 0 0-.323-.185 2.1 2.1 0 0 1 1.712-1.21c-.5.465-.322 1.428-.732 1.939a6 6 0 0 0-.524-.454Zm-.323.677a2 2 0 0 1 .017-.195 1.7 1.7 0 0 0-.3-.041 1.2 1.2 0 0 0 .104.444 1.53 1.53 0 0 0 .815-.23 3 3 0 0 0-.55-.16c-.02.043-.068.15-.086.181Z"/><path fill="#4caf50" d="M11.424 12.152v.002a6 6 0 0 1-.16-.403c.237.354.98.172.942-.146.364.281 1.113-.047.942-.44.365.174.78-.176.688-.328a38 38 0 0 1 1.404.293.715.715 0 0 1-.834.253c.23.322-.217.707-.84.495.137.315-.417.6-1.048.27.008.316-.782.353-1.095.004Zm1.232-1.596c.722.056 1.914.166 2.653.272-.047-.246-.174-.316-.575-.427-.431.048-1.525.158-2.078.155"/><path fill="#ffca28" d="M12.205 11.605c.365.281 1.114-.046.943-.44.365.174.78-.176.688-.328a67 67 0 0 0-1.681-.317 27 27 0 0 1 .501.035c.553.004 1.646-.106 2.078-.153a20.5 20.5 0 0 0-3.108-.512 1.5 1.5 0 0 1-.275.308 2.41 2.41 0 0 1-2.075 1.554 2.8 2.8 0 0 1-.849-.147 1.77 1.77 0 0 1-1.716.037 3.47 3.47 0 0 0 3.178 2.16c1.168 0 1.685-1.221 1.572-1.544-.028-.078-.136-.339-.197-.507.237.354.98.172.941-.145Z"/><path fill="#e0e0e0" d="M11.498 9.147a3.4 3.4 0 0 1 .799-.362q-.009-.058-.012-.116c-.223.054-.642.238-.883-.016.508.157.76-.14 1.134-.14a2.4 2.4 0 0 1 .79.165 2.64 2.64 0 0 0-1.678-.767 1.23 1.23 0 0 0-.15 1.236"/><path fill="#f4511e" d="M8.428 11.605a2.8 2.8 0 0 0 .848.147 2.41 2.41 0 0 0 2.075-1.555 2.63 2.63 0 0 1-1.737.505 2.7 2.7 0 0 0 1.77-1.147 1.57 1.57 0 0 1 .157-1.918 1.76 1.76 0 0 0-1.666-1.2 3.587 3.587 0 0 0-3.447 3.716l.002.063a3.7 3.7 0 0 0 .282 1.425 1.77 1.77 0 0 0 1.716-.037Z"/><path fill="#ffca28" d="M8.993 8.31a.87.87 0 1 0 .87-.892.88.88 0 0 0-.87.892"/><path fill="#5d4037" d="M9.342 8.31a.521.521 0 1 0 .52-.535.53.53 0 0 0-.52.534"/><ellipse cx="9.863" cy="8.072" fill="#fafafa" rx=".303" ry=".194"/></g></svg>