<svg xmlns="http://www.w3.org/2000/svg" viewBox="0 0 32 32">
  <path fill="#FFC107" d="m13.844 7.536-1.288-1.072A2 2 0 0 0 11.276 6H4a2 2 0 0 0-2 2v16a2 2 0 0 0 2 2h24a2 2 0 0 0 2-2V10a2 2 0 0 0-2-2H15.124a2 2 0 0 1-1.28-.464Z" />
  <path fill="#FFECB3" d="M29.9,11.8c-0.3-0.5-2.4-0.5-4,0.5c0.1-2.4-1.1-4.8-1.6-4.8c-0.5-0.1-2.2,1.9-2.8,4.2c-1.3-1.4-3.2-1.8-3.6-1.4
	c-0.5,0.4-0.6,3.5,0.6,5.5c-1.4,1.6-2.3,4-2.3,6.6c0,4.8,2.9,5.8,6.5,5.8s6.5-1,6.5-5.8c0-2-0.5-3.8-1.4-5.3
	C29.6,15.4,30.3,12.3,29.9,11.8z" />
</svg>