<svg xmlns="http://www.w3.org/2000/svg" viewBox="0 0 32 32">
  <path d="M28.96692,12H9.44152a2,2,0,0,0-1.89737,1.36754L4,24V10H28a2,2,0,0,0-2-2H15.1241a2,2,0,0,1-1.28038-.46357L12.5563,6.46357A2,2,0,0,0,11.27592,6H4A2,2,0,0,0,2,8V24a2,2,0,0,0,2,2H26l4.80523-11.21213A2,2,0,0,0,28.96692,12Z" style="fill: #ef5350"/>
  <g>
    <polygon points="14 14 20 14 19.2 17 14 17 14 14" style="fill: #ffcdd2"/>
    <polygon points="32 14 32 17 22.2 17 23 14 32 14" style="fill: #ffcdd2"/>
    <polygon points="14 20 18.4 20 17.6 23 14 23 14 20" style="fill: #ffcdd2"/>
    <polygon points="32 20 32 23 20.6 23 21.4 20 32 20" style="fill: #ffcdd2"/>
    <polygon points="14 26 16.8 26 16 29 14 29 14 26" style="fill: #ffcdd2"/>
    <polygon points="32 26 32 29 19 29 19.8 26 32 26" style="fill: #ffcdd2"/>
  </g>
</svg>
