<svg xmlns="http://www.w3.org/2000/svg" viewBox="0 0 32 32">
  <path d="M28.96692,12H9.44152a2,2,0,0,0-1.89737,1.36754L4,24V10H28a2,2,0,0,0-2-2H15.1241a2,2,0,0,1-1.28038-.46357L12.5563,6.46357A2,2,0,0,0,11.27592,6H4A2,2,0,0,0,2,8V24a2,2,0,0,0,2,2H26l4.80523-11.21213A2,2,0,0,0,28.96692,12Z" style="fill: #009688"/>
  <path d="M24,10H17a1,1,0,0,0-1,1V27a1,1,0,0,0,1,1H29a1,1,0,0,0,1-1V16Zm-4,6a2,2,0,1,1-2,2A2.01067,2.01067,0,0,1,20,16Zm8,10H18l4-4,2,2,4-4Zm-4.82843-9.17157V12L28,16.82843Z" style="fill: #b2dfdb"/>
</svg>
