<svg width="24" height="24" fill="none" xmlns="http://www.w3.org/2000/svg"><g clip-path="url(#clip0)"><path d="M10 4H4c-1.11 0-2 .89-2 2v12c0 1.097.903 2 2 2h16c1.097 0 2-.903 2-2V8a2 2 0 0 0-2-2h-8l-2-2z" fill="#009688"/><path d="M14.498 19.078H10L15.842 9l5.843 10.078h-4.47" fill="#41B883"/><path d="M21.11 19.078h3.1l-5.068-8.71-5.025 8.71h3.1" fill="#328170"/><path d="M19.27 19.078h2.283l-3.734-6.416-3.702 6.416h2.284" fill="#35495E"/></g><defs><clipPath id="clip0"><path fill="#fff" d="M0 0h24v24H0z"/></clipPath></defs></svg>