<svg xmlns="http://www.w3.org/2000/svg" viewBox="0 0 16 16">
<path id="folder" fill="#7e57c2" d="M14.483 6H4.721a1 1 0 0 0-.949.684L2 12V5h12a1 1 0 0 0-1-1H7.562a1 1 0 0 1-.64-.232l-.644-.536A1 1 0 0 0 5.638 3H2a1 1 0 0 0-1 1v8a1 1 0 0 0 1 1h11l2.403-5.606A1 1 0 0 0 14.483 6" />
<path id="motive" fill="#d1c4e9" d="M 11.5,5 C 10.67156,5 10,5.67156 10,6.5 c 0.002,0.63427 0.40202,1.19895 1,1.41037 V 9 H 10.5 C 10.22386,9 10,9.22386 10,9.5 10,9.77614 10.22386,10 10.5,10 H 11 v 2.9773 C 9.30452,12.83833 8,12.0073 8,11 H 9 L 7,9 v 2 c 0,1.65686 2.01472,3 4.5,3 2.48528,0 4.5,-1.34314 4.5,-3 V 9 l -2,2 h 1 c 0,1.0073 -1.30452,1.83833 -3,1.9773 V 10 h 0.5 C 12.77614,10 13,9.77614 13,9.5 13,9.22386 12.77614,9 12.5,9 H 12 V 7.91037 C 12.59798,7.69895 12.99837,7.13427 13,6.5 13,5.67156 12.32844,5 11.5,5 m 0,1 C 11.77614,6 12,6.22386 12,6.5 12,6.77614 11.77614,7 11.5,7 11.22386,7 11,6.77614 11,6.5 11,6.22386 11.22386,6 11.5,6" />
</svg>
