<svg xmlns="http://www.w3.org/2000/svg" viewBox="0 0 32 32"><path fill="#7e57c2" d="M28.967 12H9.442a2 2 0 0 0-1.898 1.368L4 24V10h24a2 2 0 0 0-2-2H15.124a2 2 0 0 1-1.28-.464l-1.288-1.072A2 2 0 0 0 11.276 6H4a2 2 0 0 0-2 2v16a2 2 0 0 0 2 2h22l4.805-11.212A2 2 0 0 0 28.967 12"/><path fill="#d1c4e9" d="M25 28h3l-4-12h-4l-4 12h3l.667-2h3.01L22 24h-1.667L22 19z"/><path fill="#d1c4e9" d="M28 12a2 2 0 0 0-.416.045 10.996 10.996 0 0 0-17.102 13.473 1.003 1.003 0 0 0 1.72-1.034A8.986 8.986 0 0 1 26.1 13.406 2 2 0 0 0 26 14a2 2 0 1 0 2-2"/></svg>