<svg xmlns="http://www.w3.org/2000/svg" viewBox="0 0 16 16">
<path id="folder" fill="#2196f3" d="M14.483 6H4.721a1 1 0 0 0-.949.684L2 12V5h12a1 1 0 0 0-1-1H7.562a1 1 0 0 1-.64-.232l-.644-.536A1 1 0 0 0 5.638 3H2a1 1 0 0 0-1 1v8a1 1 0 0 0 1 1h11l2.403-5.606A1 1 0 0 0 14.483 6" />
<path id="motive" fill="#bbdefb" d="m 15.012372,13.999736 a 0.94984603,0.94996874 0 0 1 -0.703385,-0.28749 1.0348322,1.0349659 0 0 1 0,-1.424953 1.0048371,1.0049669 0 0 1 1.406771,0 1.0348322,1.0349659 0 0 1 0,1.424953 0.94984603,0.94996874 0 0 1 -0.703386,0.28749 m 0,-2.999901 a 0.94984603,0.94996874 0 0 1 -0.703385,-0.28749 1.0348322,1.0349659 0 0 1 0,-1.424953 1.0048371,1.0049669 0 0 1 1.406771,0 1.0348322,1.0349659 0 0 1 0,1.424953 0.94984603,0.94996874 0 0 1 -0.703386,0.28749 m 0,-2.999901 a 0.94984603,0.94996874 0 0 1 -0.703385,-0.287491 1.0348322,1.0349659 0 0 1 0,-1.424953 1.0048371,1.0049669 0 0 1 1.406771,0 1.0348322,1.0349659 0 0 1 0,1.424953 0.94984603,0.94996874 0 0 1 -0.703386,0.287491 m -8.0112006,5.499819 v -0.999967 a 0.46842405,0.46848459 0 0 1 0.428431,-0.499984 h 5.1421656 a 0.46842405,0.46848459 0 0 1 0.42843,0.499984 v 0.999967 a 0.46842405,0.46848459 0 0 1 -0.42843,0.499983 H 7.4296024 a 0.46842405,0.46848459 0 0 1 -0.428431,-0.499983 m 0,-2.999901 V 9.499885 a 0.46842405,0.46848459 0 0 1 0.428431,-0.499984 h 5.1421656 a 0.46842405,0.46848459 0 0 1 0.42843,0.499984 v 0.999967 a 0.46842405,0.46848459 0 0 1 -0.42843,0.499983 H 7.4296024 a 0.46842405,0.46848459 0 0 1 -0.428431,-0.499983 m 0,-2.999902 V 6.499983 A 0.46842405,0.46848459 0 0 1 7.4296024,6 h 5.1421656 a 0.46842405,0.46848459 0 0 1 0.42843,0.499983 V 7.49995 a 0.46842405,0.46848459 0 0 1 -0.42843,0.499984 H 7.4296024 A 0.46842405,0.46848459 0 0 1 7.0011714,7.49995" />
</svg>
