<svg xmlns="http://www.w3.org/2000/svg" viewBox="0 0 32 32"><path d="M28.9669,12H9.44152a2,2,0,0,0-1.89737,1.3675L4,24V10H28a2,2,0,0,0-2-2H15.1241a2.00013,2.00013,0,0,1-1.2804-.46357L12.5563,6.46357A2,2,0,0,0,11.2759,6H4A2,2,0,0,0,2,8V24a2,2,0,0,0,2,2H26l4.8052-11.2121A1.99994,1.99994,0,0,0,28.9669,12Z" style="fill:#7c4dff"/><path d="M19.33333,27c0-.81075.08134-1.5075,1.3-1.5075,0,2.60775,1.5,4.5075,2.7,4.5075C23.33333,26.68125,26,26.8785,26,24H18C18,25.275,18.158,26.68125,19.33333,27Zm5.92308-16.38462L30,22H27.66667a4,4,0,0,1-3.69231-2.46154l-1.51282-3.63078a.5.5,0,0,0-.92308,0l-1.51282,3.63078A4,4,0,0,1,16.33333,22H14l4.74359-11.38462A1,1,0,0,1,19.66667,10h4.66666A1,1,0,0,1,25.25641,10.61538Z" style="fill:#d1c4e9"/></svg>