<svg xmlns="http://www.w3.org/2000/svg" viewBox="0 0 32 32">
  <path d="M13.84376,7.53645l-1.28749-1.0729A2,2,0,0,0,11.27591,6H4A2,2,0,0,0,2,8V24a2,2,0,0,0,2,2H28a2,2,0,0,0,2-2V10a2,2,0,0,0-2-2H15.12412A2,2,0,0,1,13.84376,7.53645Z" style="fill: #ff7043"/>
  <g>
    <polygon points="26.017 24 22 28 32 28 32 24 26.017 24" style="fill: #ffccbc;fill-rule: evenodd"/>
    <path d="M23.29289,14.70711,14,24v4h4l9.29289-9.29289a1,1,0,0,0,0-1.41422l-2.58578-2.58578A1,1,0,0,0,23.29289,14.70711Z" style="fill: #ffccbc;fill-rule: evenodd"/>
  </g>
</svg>
