<svg xmlns="http://www.w3.org/2000/svg" viewBox="0 0 16 16"><path id="folder" fill="#1e88e5" d="m6.922 3.768-.644-.536A1 1 0 0 0 5.638 3H2a1 1 0 0 0-1 1v8a1 1 0 0 0 1 1h12a1 1 0 0 0 1-1V5a1 1 0 0 0-1-1H7.562a1 1 0 0 1-.64-.232"/><path id="motive" fill="#bbdefb" d="M10.5 10h-3a.5.5 0 0 1-.5-.5v-3a.5.5 0 0 1 .5-.5h3a.5.5 0 0 1 .5.5v3a.5.5 0 0 1-.5.5M14 6a2 2 0 1 0 2 2 2 2 0 0 0-2-2m.354 8.854 1.5-1.5a.5.5 0 0 0 0-.707l-1.5-1.5a.5.5 0 0 0-.707 0l-1.5 1.5a.5.5 0 0 0 0 .706l1.5 1.5a.5.5 0 0 0 .706 0m-5.79-3.596-1.5 3a.5.5 0 0 0 .438.743H10.5a.5.5 0 0 0 .437-.743l-1.5-3a.5.5 0 0 0-.873 0"/></svg>