<svg width="17" height="16" viewBox="0 0 17 16" fill="none" xmlns="http://www.w3.org/2000/svg">
<g id="folder-powershell 1">
<g id="folder-powershell">
<path id="Vector" d="M7.422 3.768L6.778 3.232C6.59835 3.0822 6.3719 3.0001 6.138 3H2.5C2.23478 3 1.98043 3.10536 1.79289 3.2929C1.60535 3.48043 1.5 3.73478 1.5 4V12C1.5 12.2652 1.60535 12.5195 1.79289 12.7071C1.98043 12.8946 2.23478 13 2.5 13H14.5C14.7652 13 15.0195 12.8946 15.2071 12.7071C15.3946 12.5195 15.5 12.2652 15.5 12V5C15.5 4.73478 15.3946 4.48043 15.2071 4.29289C15.0195 4.10535 14.7652 4 14.5 4H8.062C7.8281 3.9999 7.60165 3.9178 7.422 3.768Z" fill="#03A9F4"/>
<g id="ps">
<path id="Whitespace" d="M15.2671 8.00094H9.91961C9.83791 8.00299 9.75901 8.03109 9.69441 8.08114C9.62981 8.13119 9.58286 8.20054 9.56041 8.27914L8.51056 12.722C8.49956 12.7556 8.49711 12.7914 8.50341 12.8261C8.50971 12.8609 8.52456 12.8936 8.54666 12.9212C8.56871 12.9488 8.59731 12.9704 8.62986 12.9842C8.66236 12.998 8.69786 13.0035 8.73301 13.0002H14.0805C14.1622 12.9981 14.241 12.9699 14.3056 12.9199C14.3701 12.8699 14.417 12.8005 14.4395 12.722L15.4896 8.27889C15.5005 8.24529 15.5029 8.20954 15.4966 8.17479C15.4903 8.14009 15.4754 8.10744 15.4533 8.07989C15.4313 8.05229 15.4027 8.03069 15.3702 8.01689C15.3377 8.00309 15.3022 7.99764 15.2671 8.00094Z" fill="#4FC3F7"/>
<path id="Vector_2" d="M15.2671 8.00094H9.91961C9.83791 8.00299 9.75901 8.03109 9.69441 8.08114C9.62981 8.13119 9.58286 8.20054 9.56041 8.27914L8.51056 12.722C8.49956 12.7556 8.49711 12.7914 8.50341 12.8261C8.50971 12.8609 8.52456 12.8936 8.54666 12.9212C8.56871 12.9488 8.59731 12.9704 8.62986 12.9842C8.66236 12.998 8.69786 13.0035 8.73301 13.0002H14.0805C14.1622 12.9981 14.241 12.9699 14.3056 12.9199C14.3701 12.8699 14.417 12.8005 14.4395 12.722L15.4896 8.27889C15.5005 8.24529 15.5029 8.20954 15.4966 8.17479C15.4903 8.14009 15.4754 8.10744 15.4533 8.07989C15.4313 8.05229 15.4027 8.03069 15.3702 8.01689C15.3377 8.00309 15.3022 7.99764 15.2671 8.00094ZM10.1568 12.4495C10.0846 12.4935 9.99896 12.5098 9.91561 12.4956C9.83226 12.4813 9.75691 12.4375 9.70336 12.372L9.70161 12.3698C9.67776 12.3394 9.66071 12.3041 9.65166 12.2665C9.64266 12.2289 9.64186 12.1898 9.64931 12.1519C9.65681 12.1139 9.67236 12.078 9.69501 12.0467C9.71761 12.0153 9.74671 11.9892 9.78036 11.9701L12.18 10.4551L10.6548 8.99229L10.6523 8.98979C10.6241 8.96324 10.6021 8.93089 10.5877 8.89499C10.5733 8.85909 10.5669 8.82049 10.5689 8.78184C10.5709 8.74319 10.5812 8.70544 10.5993 8.67124C10.6173 8.63699 10.6425 8.60709 10.6733 8.58359L10.6825 8.57609C10.7472 8.52464 10.8281 8.49809 10.9107 8.50129C10.9933 8.50454 11.072 8.53729 11.1324 8.59359L12.9404 10.3326C12.9817 10.385 13.0027 10.4506 12.9994 10.5173C12.9974 10.5557 12.9871 10.5931 12.9694 10.6272C12.9516 10.6613 12.9267 10.6911 12.8964 10.7148C12.8779 10.7248 12.8599 10.7445 10.1591 12.4483L10.1568 12.4495ZM13.9998 12.2353C13.995 12.31 13.9608 12.3798 13.9047 12.4294C13.8487 12.479 13.7753 12.5045 13.7006 12.5003H12.2923C12.2555 12.5038 12.2183 12.4997 12.1832 12.488C12.1481 12.4764 12.1158 12.4575 12.0884 12.4326C12.061 12.4077 12.0391 12.3774 12.0241 12.3436C12.0092 12.3098 12.0015 12.2732 12.0015 12.2362C12.0015 12.1992 12.0092 12.1626 12.0242 12.1288C12.0392 12.0949 12.0612 12.0646 12.0886 12.0398C12.116 12.0149 12.1483 11.9961 12.1834 11.9845C12.2185 11.9729 12.2557 11.9687 12.2925 11.9723H13.7006C13.7749 11.968 13.848 11.9931 13.904 12.0422C13.96 12.0913 13.9944 12.161 13.9998 12.2353Z" fill="#B3E5FC"/>
</g>
</g>
</g>
</svg>
