<svg xmlns="http://www.w3.org/2000/svg" viewBox="0 0 24 24"><path fill="#4FC3F7" d="M10 4H4c-1.1 0-2 .9-2 2v12c0 1.1.9 2 2 2h16c1.1 0 2-.9 2-2V8c0-1.1-.9-2-2-2h-8l-2-2z"/><g fill="#B3E5FC"><path d="M14.576 8.899c-.64.142-1.272.34-1.865.639.014.524.047 1.026.116 1.535-.23.147-.473.274-.688.447-.219.168-.442.329-.64.526-.4-.266-.816-.508-1.245-.725-.464.5-.899 1.04-1.254 1.644.267.432.546.837.847 1.221h.008v3.708l.02.001 2.273.219a.244.244 0 0 1 .221.227l.07 1.003 1.983.141.137-.926a.245.245 0 0 1 .242-.209h2.398c.121 0 .224.089.242.209l.137.926 1.983-.141.07-1.003a.247.247 0 0 1 .221-.227l2.272-.219.02-.001v-.296h.001v-3.411h.008c.301-.384.58-.789.847-1.221a9.54 9.54 0 0 0-1.254-1.644c-.431.217-.85.463-1.245.724-.198-.197-.421-.358-.64-.526-.215-.173-.457-.299-.687-.447.068-.51.102-1.012.116-1.535-.593-.299-1.226-.496-1.866-.639-.256.429-.489.894-.693 1.349a4.646 4.646 0 0 0-.726-.058h-.01c-.243 0-.486.02-.726.058-.204-.455-.437-.92-.693-1.349zm-1.798 5.424a1.37 1.37 0 1 1 .074 2.74 1.37 1.37 0 0 1-.074-2.74zm6.444 0a1.37 1.37 0 0 1 .002 2.74h-.001a1.369 1.369 0 0 1-.001-2.74zM16 15.124c.244 0 .441.18.441.401v1.261c0 .221-.198.401-.441.401-.244 0-.441-.179-.441-.401v-1.261c0-.222.197-.401.441-.401z"/><path d="m20.104 18.582-.07 1.009a.243.243 0 0 1-.227.227l-2.421.172-.018.001a.245.245 0 0 1-.242-.209l-.138-.942h-1.976l-.139.942a.244.244 0 0 1-.26.208l-2.421-.173a.247.247 0 0 1-.227-.227l-.07-1.009-2.044-.197.004.508c0 2.159 2.738 3.196 6.14 3.208h.008c3.402-.012 6.14-1.049 6.14-3.208l.004-.508-2.043.198z"/></g></svg>