<svg xmlns="http://www.w3.org/2000/svg" viewBox="0 0 16 16"><path id="folder" fill="#5c6bc0" d="m6.922 3.768-.644-.536A1 1 0 0 0 5.638 3H2a1 1 0 0 0-1 1v8a1 1 0 0 0 1 1h12a1 1 0 0 0 1-1V5a1 1 0 0 0-1-1H7.562a1 1 0 0 1-.64-.232"/><g id="motive" fill="#c5cae9"><path d="M8.618 6.224a2.105 2.105 0 0 1 1.656 1.656.736.736 0 0 0 1.453 0 2.105 2.105 0 0 1 1.655-1.656.736.736 0 0 0 0-1.453 2.105 2.105 0 0 1-1.655-1.656.735.735 0 0 0-1.452 0 2.105 2.105 0 0 1-1.658 1.656.736.736 0 0 0 0 1.452m6.971 3.293a1.4 1.4 0 0 1-1.103-1.104.49.49 0 0 0-.968 0 1.4 1.4 0 0 1-1.105 1.104.49.49 0 0 0 0 .968 1.4 1.4 0 0 1 1.104 1.105.49.49 0 0 0 .969 0 1.4 1.4 0 0 1 1.104-1.105.49.49 0 0 0 0-.968"/><rect width="5" height="1" x="6" y="11" rx=".5"/><rect width="5" height="1" x="6" y="9" rx=".5"/><path d="M12.5 12a.5.5 0 0 0-.5.5.5.5 0 0 1-.5.5h-6a.5.5 0 0 1-.5-.5v-4a.5.5 0 0 1 .5-.5h3a.5.5 0 0 0 0-1h-3A1.5 1.5 0 0 0 4 8.5v4A1.5 1.5 0 0 0 5.5 14h6a1.5 1.5 0 0 0 1.5-1.5.5.5 0 0 0-.5-.5"/></g></svg>