<svg xmlns="http://www.w3.org/2000/svg" fill="none" viewBox="0 0 16 16">
<path fill="#689f38" d="m6.922 3.768-.644-.536A1 1 0 0 0 5.638 3H2a1 1 0 0 0-1 1v8a1 1 0 0 0 1 1h12a1 1 0 0 0 1-1V5a1 1 0 0 0-1-1H7.562a1 1 0 0 1-.64-.232" id="folder"/>
<path fill="#dcedc8" d="m13.7935 6.7915 1.066 0.255-3.015 3.015-1.35-1.3505-0.728 0.7275 2.078 2.0775 3.2425-3.243-0.03 0.3455L16 9.7475l-0.9425 1.1295 0.131 1.494-1.395 0.333-0.73 1.292-1.3135-0.5925L10.4365 14l-0.73-1.2915-1.395-0.3335 0.131-1.498L7.5 9.7475l0.9425-1.1325-0.131-1.4945 1.395-0.329L10.4365 5.5l1.3135 0.5925L13.0635 5.5zM16 7.3605l-0.913 0.9125 0.1015-1.148-0.329-0.0785 0.4135-0.413z" id="motive"/>
</svg>
