<svg xmlns="http://www.w3.org/2000/svg" viewBox="0 0 16 16">
<path fill="#00acc1" d="m6.922 3.768-.644-.536A1 1 0 0 0 5.638 3H2a1 1 0 0 0-1 1v8a1 1 0 0 0 1 1h12a1 1 0 0 0 1-1V5a1 1 0 0 0-1-1H7.562a1 1 0 0 1-.64-.232" id="folder"/>
<path fill="#80deea" d="M11.5005 12.075A1.5975 1.5975 0 0 1 9.881 10.5a1.62 1.62 0 1 1 1.6195 1.575m3.4375-1.1385a3.5 3.5 0 0 0 0.032-0.437 4 4 0 0 0-0.032-0.45l0.9755-0.7335a0.223 0.223 0 0 0 0.0565-0.288l-0.9265-1.556a0.23 0.23 0 0 0-0.282-0.0995l-1.151 0.45a3.4 3.4 0 0 0-0.7825-0.441l-0.171-1.1925A0.232 0.232 0 0 0 12.425 6h-1.85a0.232 0.232 0 0 0-0.2315 0.189l-0.1705 1.1925a3.4 3.4 0 0 0-0.7815 0.4405l-1.152-0.4495a0.23 0.23 0 0 0-0.282 0.099l-0.9255 1.5565a0.218 0.218 0 0 0 0.056 0.288l0.975 0.734a4 4 0 0 0-0.032 0.45 3.5 3.5 0 0 0 0.032 0.4365l-0.975 0.7465a0.218 0.218 0 0 0-0.056 0.288l0.925 1.5575a0.235 0.235 0 0 0 0.2825 0.099l1.152-0.455a3.2 3.2 0 0 0 0.7815 0.446l0.171 1.1925a0.232 0.232 0 0 0 0.2315 0.189h1.85a0.232 0.232 0 0 0 0.232-0.189l0.17-1.1925a3.4 3.4 0 0 0 0.783-0.4455l1.151 0.4545a0.2375 0.2375 0 0 0 0.283-0.099l0.925-1.5575a0.223 0.223 0 0 0-0.056-0.288Z" id="motive"/>
</svg>
