<svg width="24" height="24" viewBox="0 0 24 24" fill="none" xmlns="http://www.w3.org/2000/svg">
<path d="M10 4H4C2.89 4 2 4.89 2 6V18C2 18.5304 2.21071 19.0391 2.58579 19.4142C2.96086 19.7893 3.46957 20 4 20H20C20.5304 20 21.0391 19.7893 21.4142 19.4142C21.7893 19.0391 22 18.5304 22 18V8C22 6.89 21.1 6 20 6H12L10 4Z" fill="#9575CD"/>
<path d="M10.25 17.25C10.25 16.6977 10.6977 16.25 11.25 16.25H17.75V22.75C17.75 23.3023 17.3023 23.75 16.75 23.75H11.25C10.6977 23.75 10.25 23.3023 10.25 22.75V17.25Z" fill="#D1C4E9"/>
<rect x="11" y="19" width="6" height="1" fill="#9575CD"/>
<path d="M18.5 15.5H16.25V11.25C16.25 10.6977 16.6977 10.25 17.25 10.25H22.75C23.3023 10.25 23.75 10.6977 23.75 11.25V16.75C23.75 17.3023 23.3023 17.75 22.75 17.75H18.5V15.5Z" fill="#D1C4E9"/>
<rect x="17" y="14" width="6" height="1" fill="#9575CD"/>
<rect x="17" y="12" width="6" height="1" fill="#9575CD"/>
</svg>
