<svg xmlns="http://www.w3.org/2000/svg" viewBox="0 0 32 32">
  <path d="M28.96692,12H9.44152a2,2,0,0,0-1.89737,1.36754L4,24V10H28a2,2,0,0,0-2-2H15.1241a2,2,0,0,1-1.28038-.46357L12.5563,6.46357A2,2,0,0,0,11.27592,6H4A2,2,0,0,0,2,8V24a2,2,0,0,0,2,2H26l4.80523-11.21213A2,2,0,0,0,28.96692,12Z" style="fill: #c0ca33"/>
  <path d="M23,16a3,3,0,0,0,.00293-6H23a2.99927,2.99927,0,0,0-3,2.99854V13a2.99926,2.99926,0,0,0,2.99853,3H23m0,3.97333C20.77468,17.89524,17.04475,15.995,14,16V26c3.18933,0,6.84933,2.004,9,4,2.22532-2.07809,5.95525-4.005,9-4V16C28.95525,15.995,25.22532,17.89524,23,19.97333Z" style="fill: #f0f4c3;fill-rule: evenodd"/>
</svg>
