<?xml version="1.0" encoding="utf-8"?>
<svg xmlns="http://www.w3.org/2000/svg" viewBox="0 0 32 32">
    <g id="group-1" transform="matrix(0.065133, 0, 0, 0.065133, -0.244717, 0.881336)" style="">
        <path id="path-1"
            d="M 216.887 102.388 L 197.131 85.922 C 191.614 81.313 184.658 78.794 177.461 78.794 L 65.762 78.794 C 48.782 78.794 35.04 92.536 35.04 109.499 L 35.04 355.171 C 35.04 372.117 48.782 385.876 65.762 385.876 L 434.237 385.876 C 451.217 385.876 464.959 372.117 464.959 355.171 L 464.959 140.221 C 464.959 123.24 451.217 109.499 434.237 109.499 L 236.558 109.499 C 229.361 109.482 222.405 106.98 216.887 102.388"
            style="stroke-width: 17.134; fill: rgb(77, 208, 225);" />
        <path
            d="M 258.972 404.966 C 252.869 404.966 247.642 402.791 243.294 398.442 C 238.943 394.091 236.772 388.868 236.779 382.772 L 236.779 349.483 L 258.972 349.483 L 258.972 382.772 L 436.517 382.772 L 436.517 249.614 L 258.972 249.614 L 258.972 282.905 L 236.779 282.905 L 236.779 249.614 C 236.779 243.511 238.954 238.283 243.303 233.935 C 247.653 229.585 252.876 227.414 258.972 227.421 L 436.517 227.421 C 442.62 227.421 447.846 229.596 452.195 233.945 C 456.547 238.296 458.718 243.518 458.709 249.614 L 458.709 382.772 C 458.709 388.876 456.534 394.102 452.185 398.452 C 447.835 402.802 442.612 404.974 436.517 404.966 L 258.972 404.966 Z M 342.196 366.129 L 326.661 350.037 L 349.685 327.289 L 236.779 327.289 L 236.779 305.099 L 349.685 305.099 L 326.661 282.348 L 342.196 266.258 L 392.13 316.192 L 342.196 366.129 Z"
            style="stroke-width: 127.943; fill: rgb(178, 235, 242);" />
    </g>
</svg>