<svg xmlns="http://www.w3.org/2000/svg" viewBox="0 0 16 16"><path id="folder" fill="#0288d1" d="m6.922 3.768-.644-.536A1 1 0 0 0 5.638 3H2a1 1 0 0 0-1 1v8a1 1 0 0 0 1 1h12a1 1 0 0 0 1-1V5a1 1 0 0 0-1-1H7.562a1 1 0 0 1-.64-.232"/><path id="motive" fill="#90caf9" d="M12 9.535a.665.664 0 0 0 .15.52 1.25 1.248 0 0 0 .305.14c.27.09.665.184 1.045.309 1.32.44 1.48 1.159 1.495 1.743q.006.119.005.23v.024c0 .53-.23 1.394-1.72 1.489q-.096.006-.185.005A.5.5 0 0 1 13 14h-2v-.88l.12-.12H13a1 .999 0 0 0 .125-.004h.085c.09-.005.165-.015.235-.02a1 .999 0 0 0 .135-.03q.051-.015.095-.03a.02.02 0 0 0 .015-.005c.245-.09.295-.225.305-.33l.005-.08c0-.16-.34-.614-1.5-.998-1.37-.455-1.49-1.209-1.495-1.803A.3.3 0 0 1 11 9.635v-.13a1.425 1.423 0 0 1 .225-.794c.02-.03.035-.055.055-.08.005-.005.005-.01.01-.015a.5.5 0 0 1 .09-.1 2.15 2.147 0 0 1 1.575-.509H15v.999h-2q-.098-.001-.195.005c-.59.03-.745.2-.79.35a.1.1 0 0 0-.005.03.5.5 0 0 0-.01.114zM9 14H8V9.006H6v-.999h5v.999H9Z"/></svg>