<svg xmlns="http://www.w3.org/2000/svg" viewBox="0 0 16 16">
<path id="folder" fill="#43a047" d="M14.483 6H4.721a1 1 0 0 0-.949.684L2 12V5h12a1 1 0 0 0-1-1H7.562a1 1 0 0 1-.64-.232l-.644-.536A1 1 0 0 0 5.638 3H2a1 1 0 0 0-1 1v8a1 1 0 0 0 1 1h11l2.403-5.606A1 1 0 0 0 14.483 6" />
<path id="motive" fill="#c8e6c9" d="M 10,5 A 1,1 0 0 0 9.2,5.4 L 8.4,6.467 A 2,2 0 0 0 8,7.666 V 13 a 1,1 0 0 0 1,1 h 6 a 1,1 0 0 0 1,-1 V 7.666 A 2,2 0 0 0 15.6,6.467 L 14.8,5.4 A 1,1 0 0 0 14,5 Z m 0,1 h 4 l 0.75,1 h -5.5 z m 1,2 h 2 v 2 h 2 l -3,3 -3,-3 h 2 z" />
</svg>
