<svg xmlns="http://www.w3.org/2000/svg" viewBox="0 0 32 32">
  <path d="M13.84376,7.53645l-1.28749-1.0729A2,2,0,0,0,11.27591,6H4A2,2,0,0,0,2,8V24a2,2,0,0,0,2,2H28a2,2,0,0,0,2-2V10a2,2,0,0,0-2-2H15.12412A2,2,0,0,1,13.84376,7.53645Z" style="fill: #546e7a"/>
  <g>
    <path d="M31.304,16.34741l-1.58393,1.58393a8,8,0,1,1-5.6568-5.65686l1.58387-1.58393A10.00005,10.00005,0,1,0,31.304,16.34741Z" style="fill: #cfd8dc;fill-rule: evenodd"/>
    <path d="M22.43689,16.02222l.21918-1.987a6,6,0,1,0,5.30334,5.30328l-1.987.21924a4,4,0,1,1-3.53552-3.53552Z" style="fill: #cfd8dc;fill-rule: evenodd"/>
    <path d="M24.8269,14.33929l-.70709,2.12128L22.50946,18.071a1.99661,1.99661,0,0,0-.98987-.00958c-.02441.00586-.04761.01459-.07184.02136a1.975,1.975,0,0,0-.36657.14649c-.03614.01855-.072.03546-.10712.05633a2.00018,2.00018,0,1,0,2.735,2.73493c.02087-.0351.03778-.07093.05627-.10706a1.9801,1.9801,0,0,0,.14655-.36664c.00677-.02417.01544-.04736.0213-.07177a1.9966,1.9966,0,0,0-.00952-.98987L25.534,17.87482l2.12133-.7071L31.898,12.92505H29.06952V10.09662Z" style="fill: #cfd8dc;fill-rule: evenodd"/>
  </g>
</svg>
