<svg viewBox="0 0 24 24" fill="none" xmlns="http://www.w3.org/2000/svg">
  <path
    d="M19 20H4a2 2 0 0 1-2-2V6c0-1.11.89-2 2-2h6l2 2h7c1.097 0 2 .903 2 2H4v10l2.14-8h17.07l-2.28 8.5c-.23.87-1.01 1.5-1.93 1.5Z"
    fill="#0277BD" />
  <path
    d="M17.058 21.644v-3.16c0-.59-.09-1.028-.269-1.313a4.234 4.234 0 0 0-.711-.837l.9-.901c.127.116.248.24.364.371.116.132.232.272.348.42.147-.201.298-.378.45-.53.153-.153.309-.303.467-.45.4-.37.764-.796 1.09-1.281.327-.485.5-1.333.522-2.545l-.996.996-.9-.885L20.85 9l2.529 2.529-.885.885-1.012-.996c-.02 1.507-.253 2.58-.695 3.216-.443.638-.885 1.157-1.328 1.558a5.973 5.973 0 0 0-.822.892c-.21.29-.316.757-.316 1.4v3.16h-1.264Zm-3.035-8.74a5.257 5.257 0 0 1-.087-.695 33.984 33.984 0 0 1-.04-.79l-1.01.995-.886-.885L14.529 9l2.529 2.529-.901.885-.996-.98c0 .221.01.43.032.625.02.194.042.376.063.545l-1.233.3Zm1.36 2.782a5.552 5.552 0 0 1-.609-.775 4.773 4.773 0 0 1-.514-1.09l1.217-.3a3.345 3.345 0 0 0 .806 1.264l-.9.9Z"
    fill="#B3E5FC" />
</svg>