<svg xmlns="http://www.w3.org/2000/svg" viewBox="0 0 24 24" fill="none"><path fill="#0288D1" d="M19 20H4a2 2 0 0 1-2-2V6c0-1.11.89-2 2-2h6l2 2h7c1.097 0 2 .903 2 2H4v10l2.14-8h17.07l-2.28 8.5c-.23.87-1.01 1.5-1.93 1.5Z"/><path fill="#B3E5FC" d="m20.703 16.135 2.157 1.235v2.471l-2.157 1.235-.958-.549-2.329 1.333-2.314-1.325-.945.541L12 19.84V17.37l2.157-1.235 2.158 1.235v2.47l-.653.373 1.754 1.005 1.769-1.012-.64-.367V17.37l2.158-1.235Zm-1.597 1.879v1.507l1.316.753v-1.507l-1.316-.753Zm3.193-.002-1.316.753v1.51l1.316-.756v-1.507Zm-9.738 0v1.507l1.316.753v-1.507l-1.316-.753Zm3.193 0-1.316.753v1.507l1.316-.753v-1.507Zm4.949-1.233-1.316.753 1.316.754 1.316-.754-1.316-.753Zm-6.546-.002-1.316.755 1.316.752 1.316-.752-1.316-.755Zm1.073-3.83v.64l-1.996 1.144v1.932l-.56.322V14.41l2.556-1.464ZM17.388 11l2.158 1.235v.679l2.613 1.496v2.559l-.56-.322v-1.916l-2.053-1.175v1.149l-2.157 1.234-2.157-1.235v-2.47L17.388 11Zm-1.596 1.876v1.508l1.315.753V13.63l-1.315-.754Zm3.192 0-1.315.754v1.506l1.315-.752v-1.508Zm-1.596-1.234-1.315.753 1.315.754 1.316-.754-1.316-.753Z"/></svg>