<svg clip-rule="evenodd" fill-rule="evenodd" stroke-linejoin="round" stroke-miterlimit="1.4142" version="1.1" viewBox="0 0 24 24" xml:space="preserve" xmlns="http://www.w3.org/2000/svg"><path d="m10 4h-6c-1.11 0-2 0.89-2 2v12c0 1.097 0.903 2 2 2h16c1.097 0 2-0.903 2-2v-10c0-1.11-0.9-2-2-2h-8l-2-2z" fill="#7e57c2" fill-rule="nonzero"/><path d="m17.265 8.4929c-3.553 0-6.4328 2.88-6.4328 6.4328 0 3.553 2.8799 6.4328 6.4328 6.4328 3.553 0 6.4328-2.8799 6.4328-6.4328 0-0.60098-0.08199-1.1825-0.23612-1.7344h-0.0012a0.32109 0.32109 0 0 0-0.01559-0.05753c-0.0017-0.0065-0.0084-0.01918-0.0084-0.01918a0.32122 0.32122 0 0 0-0.29126-0.18698 0.32166 0.32166 0 0 0-0.32243 0.32123c0 0.03615 7e-3 0.07072 0.01799 0.10308l-0.0012 0.0012a5.8128 5.8128 0 0 1 0.21448 1.5726c0 1.5465-0.60135 3.001-1.6948 4.0944-1.0936 1.0936-2.548 1.6948-4.0944 1.6948-1.5465 0-3.0011-0.60131-4.0945-1.6948-1.0937-1.0935-1.696-2.5481-1.696-4.0944 0-1.5465 0.60243-3.001 1.696-4.0945 1.0934-1.0937 2.548-1.6948 4.0945-1.6948 1.381 0 2.6875 0.48005 3.7301 1.3616a0.78602 0.78602 0 0 0-0.05393 0.28767c0 0.43432 0.35193 0.78627 0.78627 0.78627 0.43423 0 0.78627-0.35196 0.78627-0.78627 0-0.43431-0.35203-0.78627-0.78627-0.78627-0.09476 0-0.18554 0.017253-0.26969 0.047943-1.126-0.96852-2.5909-1.5546-4.1928-1.5546zm-0.81267 2.9989-2.3697 6.1501h1.4851l0.38715-1.0416h2.239l-0.40513-1.1531h-1.4743l0.9589-2.6453 1.7056 4.8398h1.4839l-2.3697-6.1501z" fill="#d1c4e9" stroke-width=".99691"/></svg>
