<svg xmlns="http://www.w3.org/2000/svg" viewBox="0 0 32 32">
  <path d="M28.96692,12H9.44152a2,2,0,0,0-1.89737,1.36754L4,24V10H28a2,2,0,0,0-2-2H15.1241a2,2,0,0,1-1.28038-.46357L12.5563,6.46357A2,2,0,0,0,11.27592,6H4A2,2,0,0,0,2,8V24a2,2,0,0,0,2,2H26l4.80523-11.21213A2,2,0,0,0,28.96692,12Z" style="fill: #42a5f5"/>
  <polygon points="13.19 10 12.4 14 27.73 14 27.24 16 12.01 16 11.22 20 26.52 20 25.68 23.99 18 26.36 14 23.99 14.46 22 10.83 22 10 26.2 18 30 28.75 26.36 30.06 19.79 30.32 18.47 32 10 13.19 10" style="fill: #bbdefb"/>
</svg>
