<svg xmlns="http://www.w3.org/2000/svg" viewBox="0 0 32 32">
  <path d="M13.84376,7.53645l-1.28749-1.0729A2,2,0,0,0,11.27591,6H4A2,2,0,0,0,2,8V24a2,2,0,0,0,2,2H28a2,2,0,0,0,2-2V10a2,2,0,0,0-2-2H15.12412A2,2,0,0,1,13.84376,7.53645Z" style="fill: #8d6e63"/>
  <path d="M16,24.66712V28h3.33288l9.82978-9.82978-3.33288-3.33288ZM31.74009,15.5928a.88522.88522,0,0,0,.00128-1.25188l-.00128-.00129-2.07972-2.07972a.88522.88522,0,0,0-1.25188-.00128l-.00129.00128-1.62644,1.62645,3.33288,3.33288Z" style="fill: #d7ccc8;fill-rule: evenodd"/>
</svg>
