<svg xmlns="http://www.w3.org/2000/svg" viewBox="0 0 16 16"><path id="folder" fill="#616161" d="m6.922 3.768-.644-.536A1 1 0 0 0 5.638 3H2a1 1 0 0 0-1 1v8a1 1 0 0 0 1 1h12a1 1 0 0 0 1-1V5a1 1 0 0 0-1-1H7.562a1 1 0 0 1-.64-.232"/><g id="motive"><path fill="#9e9e9e" d="M16 10.5A4.5 4.5 0 1 1 11.5 6a4.52 4.52 0 0 1 4.5 4.5"/><path fill="#fafafa" d="m13.965 12.314-2-5A.5.5 0 0 0 11.499 7h-.003a.5.5 0 0 0-.463.32L9 13h1l.62-1.819 2.603 1.735a.5.5 0 0 0 .741-.602m-2.976-2.09.521-1.355.929 2.322Z"/></g></svg>