<svg xmlns="http://www.w3.org/2000/svg" viewBox="0 0 32 32"><path fill="#0288d1" d="m13.844 7.536-1.288-1.072A2 2 0 0 0 11.276 6H4a2 2 0 0 0-2 2v16a2 2 0 0 0 2 2h24a2 2 0 0 0 2-2V10a2 2 0 0 0-2-2H15.124a2 2 0 0 1-1.28-.464"/><path fill="#90caf9" d="m21.972 21.668.697.696a1.004 1.004 0 0 0 1.414 0l5.626-5.623a1.003 1.003 0 0 0 0-1.413l-.697-.707a1.004 1.004 0 0 0-1.414 0l-.707.707-1.404-1.404a1.003 1.003 0 0 0 0-1.413.99.99 0 0 0-1.404 0l-1.414-1.423.707-.687a.99.99 0 0 0 0-1.403l-.707-.707a.99.99 0 0 0-1.404 0l-5.636 5.633a.99.99 0 0 0 0 1.404l.707.706a.99.99 0 0 0 1.404 0l.717-.706 1.394 1.413-9.56 9.555a1.003 1.003 0 0 0 0 1.413.99.99 0 0 0 1.404 0l9.57-9.565 1.404 1.404-.697.706a.985.985 0 0 0 0 1.414M24 26h6a2 2 0 0 1 2 2v2H22v-2a2 2 0 0 1 2-2"/></svg>