<svg xmlns="http://www.w3.org/2000/svg" viewBox="0 0 32 32">
  <path d="M28.96692,12H9.44152a2,2,0,0,0-1.89737,1.36754L4,24V10H28a2,2,0,0,0-2-2H15.1241a2,2,0,0,1-1.28038-.46357L12.5563,6.46357A2,2,0,0,0,11.27592,6H4A2,2,0,0,0,2,8V24a2,2,0,0,0,2,2H26l4.80523-11.21213A2,2,0,0,0,28.96692,12Z" style="fill: #616161"/>
  <g>
    <path d="M31.9995,21a8.99975,8.99975,0,1,1-8.99976-9h.00052A9.043,9.043,0,0,1,32,21v.0005" style="fill: #9e9e9e"/>
    <path d="M27.92861,24.62842l-4-10A1.00051,1.00051,0,0,0,22.9999,14h-.00684a1.00115,1.00115,0,0,0-.92675.64111L17.9999,26h2l1.23975-3.63818L26.44521,25.832a1.00029,1.00029,0,0,0,1.4834-1.20361Zm-5.95312-4.17969L23.018,17.73828l1.85791,4.64356Z" style="fill: #fff"/>
  </g>
</svg>
