<svg xmlns="http://www.w3.org/2000/svg" clip-rule="evenodd" fill-rule="evenodd" stroke-linejoin="round" stroke-miterlimit="1.414" viewBox="0 0 21.42 18.25">
  <path fill="#FBC02D" d="M17,16H2a2,2,0,0,1-2-2V2A2,2,0,0,1,2,0H8l2,2h7a2,2,0,0,1,2,2H2V14L4.14,6H21.21l-2.28,8.5A2,2,0,0,1,17,16Z"/>
  <path fill="#FFFDE7" d="M10.38,7.8h1.17V9H10.38v2.91A1.16,1.16,0,0,1,9.22,13a1.16,1.16,0,0,1,1.16,1.16v2.9h1.17v1.16H10.38c-.62-.15-1.16-.52-1.16-1.16V14.77a1.16,1.16,0,0,0-1.16-1.16H7.48V12.45h.58a1.16,1.16,0,0,0,1.16-1.16V9A1.16,1.16,0,0,1,10.38,7.8m8.13,0A1.16,1.16,0,0,1,19.67,9v2.33a1.16,1.16,0,0,0,1.16,1.16h.59v1.16h-.59a1.16,1.16,0,0,0-1.16,1.16v2.32a1.16,1.16,0,0,1-1.16,1.16H17.35V17.09h1.16v-2.9A1.16,1.16,0,0,1,19.67,13a1.16,1.16,0,0,1-1.16-1.16V9H17.35V7.8h1.16m-4.06,7a.58.58,0,1,1-.58.58.58.58,0,0,1,.58-.58m-2.32,0a.58.58,0,1,1-.58.58.58.58,0,0,1,.58-.58m4.64,0a.58.58,0,1,1-.58.58A.58.58,0,0,1,16.77,14.77Z"/>
</svg>
