<svg xmlns="http://www.w3.org/2000/svg" viewBox="0 0 32 32">
  <path d="M28.96692,12H9.44152a2,2,0,0,0-1.89737,1.36754L4,24V10H28a2,2,0,0,0-2-2H15.1241a2,2,0,0,1-1.28038-.46357L12.5563,6.46357A2,2,0,0,0,11.27592,6H4A2,2,0,0,0,2,8V24a2,2,0,0,0,2,2H26l4.80523-11.21213A2,2,0,0,0,28.96692,12Z" style="fill: #fbc02d"/>
  <g>
    <polygon points="20 18 16 18 16 20 22 20 22 18 22 14 20 14 20 18" style="fill: #fffde7;fill-rule: evenodd"/>
    <polygon points="28 18 28 14 26 14 26 20 28 20 32 20 32 18 28 18" style="fill: #fffde7;fill-rule: evenodd"/>
    <polygon points="16 26 20 26 20 30 22 30 22 26 22 24 16 24 16 26" style="fill: #fffde7;fill-rule: evenodd"/>
    <polygon points="26 26 26 30 28 30 28 26 32 26 32 24 26 24 26 26" style="fill: #fffde7;fill-rule: evenodd"/>
  </g>
</svg>
