<?xml version="1.0" encoding="utf-8"?>
<!-- Generator: Adobe Illustrator 25.2.1, SVG Export Plug-In . SVG Version: 6.00 Build 0)  -->
<svg version="1.1" id="Layer_1" xmlns="http://www.w3.org/2000/svg" xmlns:xlink="http://www.w3.org/1999/xlink" x="0px" y="0px"
	 viewBox="0 0 24 24" style="enable-background:new 0 0 24 24;" xml:space="preserve">
<style type="text/css">
	.st0{fill:#FBC02D;}
	.st1{fill:#FFFFFF;}
	.st2{fill:#95C675;}
	.st3{fill:#79B259;}
	.st4{fill:#55932C;}
	.st5{fill:#4A7A2B;}
	.st6{fill:#4C822A;}
</style>
<path class="st0" d="M19,20H4c-1.1,0-2-0.9-2-2V6c0-1.1,0.9-2,2-2h6l2,2h7c1.1,0,2,0.9,2,2H4v10l2.1-8h17.1l-2.3,8.5
	C20.7,19.4,19.9,20,19,20z"/>
<g>
	<rect x="13.3" y="12.7" class="st1" width="5.2" height="6.7"/>
	<path class="st2" d="M21.5,11.1c0,0-1-0.1-1-0.1s-0.7-0.7-0.8-0.7c-0.1-0.1-0.2-0.1-0.3,0c0,0-0.1,0-0.4,0.1
		c-0.2-0.6-0.6-1.2-1.3-1.2c0,0,0,0-0.1,0c-0.2-0.3-0.4-0.4-0.7-0.4c-1.6,0-2.4,2-2.6,3c-0.6,0.2-1.1,0.3-1.1,0.3
		c-0.3,0.1-0.4,0.1-0.4,0.4c0,0.2-1,7.2-1,7.2l7.1,1.3l3.9-0.8c0,0-1.4-9.1-1.4-9.1C21.6,11.1,21.5,11.1,21.5,11.1z M17.7,10.7
		C17.7,10.7,17.7,10.7,17.7,10.7c-0.4,0.2-0.8,0.3-1.2,0.4c0.2-0.9,0.7-1.4,1.1-1.5C17.6,9.9,17.7,10.2,17.7,10.7z M17,9.2
		c0.1,0,0.1,0,0.2,0.1c-0.5,0.2-1.1,0.8-1.3,2.1c-0.3,0.1-0.7,0.2-1,0.3C15.2,10.7,15.9,9.2,17,9.2z M17.3,14.6c0,0-0.4-0.2-0.9-0.2
		c-0.8,0-0.8,0.5-0.8,0.6c0,0.6,1.7,0.9,1.7,2.4c0,1.2-0.8,1.9-1.8,1.9c-1.2,0-1.9-0.8-1.9-0.8l0.3-1.1c0,0,0.7,0.5,1.2,0.5
		c0.3,0,0.5-0.3,0.5-0.5c0-0.8-1.4-0.9-1.4-2.2c0-1.2,0.8-2.3,2.5-2.3c0.7,0,1,0.2,1,0.2L17.3,14.6z M18.1,10.6c0,0,0-0.1,0-0.1
		c0-0.4-0.1-0.7-0.1-1c0.4,0,0.6,0.4,0.8,0.9C18.5,10.5,18.3,10.6,18.1,10.6z"/>
	<path class="st3" d="M21.5,11.1c0,0-1-0.1-1-0.1s-0.7-0.7-0.8-0.7c-0.1-0.1-0.2-0.1-0.3,0c0,0-0.1,0-0.4,0.1
		c-0.2-0.6-0.6-1.2-1.3-1.2c0,0,0,0-0.1,0c-0.2-0.3-0.4-0.4-0.7-0.4c-1.6,0-2,2-2.3,3C14.2,12,13.7,13,13.6,13
		c-0.3,0.1-0.4,0.1-0.4,0.4c0,0.2-1.3,6.3-1.3,6.3l7.1,1.3l3.9-0.8c0,0-1.4-9.1-1.4-9.1C21.6,11.1,21.5,11.1,21.5,11.1z M17.7,10.7
		C17.7,10.7,17.7,10.7,17.7,10.7c-0.4,0.2-0.8,0.3-1.2,0.4c0.2-0.9,0.7-1.4,1.1-1.5C17.6,9.9,17.7,10.2,17.7,10.7z M17,9.2
		c0.1,0,0.1,0,0.2,0.1c-0.5,0.2-1.1,0.8-1.3,2.1c-0.3,0.1-0.7,0.2-1,0.3C15.2,10.7,15.9,9.2,17,9.2z M17.3,14.6c0,0-0.4-0.2-0.9-0.2
		c-0.8,0-0.8,0.5-0.8,0.6c0,0.6,1.7,0.9,1.7,2.4c0,1.2-0.8,1.9-1.8,1.9c-1.2,0-1.9-0.8-1.9-0.8l0.3-1.1c0,0,0.7,0.5,1.2,0.5
		c0.3,0,0.5-0.3,0.5-0.5c0-0.8-1.4-0.9-1.4-2.2c0-1.2,0.8-2.3,2.5-2.3c0.7,0,1,0.2,1,0.2L17.3,14.6z M18.1,10.6c0,0,0-0.1,0-0.1
		c0-0.4-0.1-0.7-0.1-1c0.4,0,0.6,0.4,0.8,0.9C18.5,10.5,18.3,10.6,18.1,10.6z"/>
	<path class="st4" d="M19.1,21.1l3.9-0.8c0,0-1.4-9.1-1.4-9.1s-0.1-0.1-0.1-0.1s-1-0.1-1-0.1s-0.7-0.7-0.8-0.7c0,0-0.1,0-0.2-0.1
		c-0.1,0.2-0.1,0.7-0.1,0.7L19.1,21.1L19.1,21.1z"/>
	<path class="st5" d="M17.8,9.1C17.8,9.1,17.7,9.1,17.8,9.1c-0.3-0.3-0.5-0.4-0.7-0.4c-1.6,0-2.4,2-2.6,3l0.5-0.2
		c0.3-0.9,0.9-2.4,2.1-2.4c0.1,0,0.1,0,0.2,0.1c-0.5,0.2-1.1,0.8-1.3,2l0.5-0.2c0.2-0.9,0.7-1.3,1.1-1.5c0.1,0.2,0.2,0.6,0.2,1.1
		c0,0,0,0,0,0.1l0.4-0.1c0,0,0-0.1,0-0.1c0-0.4-0.1-0.7-0.1-1c0.3,0,0.6,0.4,0.8,0.9l0.4-0.1C18.9,9.7,18.5,9.1,17.8,9.1z"/>
	<path class="st6" d="M20.6,11c-0.1,0-0.2,0-0.2,0s-0.7-0.6-0.7-0.7c0,0-0.1,0-0.2-0.1c-0.1,0.2-0.1,0.7-0.1,0.7L19,21.1l0.1,0
		l2.1-0.4L20.6,11z"/>
</g>
</svg>
