<svg version="1.1" viewBox="0 0 32 32" xmlns="http://www.w3.org/2000/svg">
 <path d="M28.966,12H9.442a2,2,0,0,0-1.898,1.368L4,24V10H28a2,2,0,0,0-2-2H15.124a2,2,0,0,1-1.28-.464L12.556,6.464A2,2,0,0,0,11.276,6H4A2,2,0,0,0,2,8V24a2,2,0,0,0,2,2H26l4.806-11.212A2,2,0,0,0,28.966,12" fill="#388e3c"/>
 <path d="m24 10.857-8 4.5714v9.1429l8 4.5714 8-4.5714v-9.1429zm4 12.643v0.5h-1.76c-0.15171-9.5e-5 -0.29518-0.06907-0.39-0.1875l-3.85-4.8125v5h-2v-8h1.76c0.15171 9.5e-5 0.29518 0.06907 0.39 0.1875l3.85 4.8125v-5h2z" fill="#a5d6a7"/>
</svg>
