<svg xmlns="http://www.w3.org/2000/svg" clip-rule="evenodd" stroke-linejoin="round" stroke-miterlimit="1.414" viewBox="0 0 24 24">
    <path fill="#00BCD4" d="M19 20H4a2 2 0 0 1-2-2V6c0-1.11.89-2 2-2h6l2 2h7c1.097 0 2 .903 2 2H4v10l2.14-8h17.07l-2.28 8.5c-.23.87-1.01 1.5-1.93 1.5z"/>
    <path fill="#B2EBF2" d="M15.97 15.502h3.658v.898H15.97zm0-1.496h3.658v.898H15.97zm0 2.992h3.658v.898H15.97zm4.181-6.283h-9.409c-.575 0-1.045.539-1.045 1.197v7.78c0 .658.47 1.196 1.045 1.196h9.41c.574 0 1.045-.538 1.045-1.197v-7.78c0-.657-.47-1.196-1.046-1.196zm0 8.976h-4.704v-7.78h4.704z"/>
</svg>