<svg xmlns="http://www.w3.org/2000/svg" viewBox="0 0 32 32"><path fill="#1e88e5" d="M28.967 12H9.442a2 2 0 0 0-1.898 1.368L4 24V10h24a2 2 0 0 0-2-2H15.124a2 2 0 0 1-1.28-.464l-1.288-1.072A2 2 0 0 0 11.276 6H4a2 2 0 0 0-2 2v16a2 2 0 0 0 2 2h22l4.805-11.212A2 2 0 0 0 28.967 12Z"/><path fill="#bbdefb" d="M24.363 19.012 13.364 30 12 28.638l10.988-11 1.375 1.374m4.365-2.815.574-.576-.77-.77.624-.623-1.384-1.383-.623.624-.77-.77-.574.575A20.483 20.483 0 0 0 20.155 10l-.81 1.744a24.473 24.473 0 0 1 4.736 3.253l-.488.488 2.923 2.923.488-.488a24.476 24.476 0 0 1 3.252 4.736L32 21.848a20.48 20.48 0 0 0-3.272-5.651Z"/></svg>