<svg xmlns="http://www.w3.org/2000/svg" viewBox="0 0 32 32">
  <path d="M13.84376,7.53645l-1.28749-1.0729A2,2,0,0,0,11.27591,6H4A2,2,0,0,0,2,8V24a2,2,0,0,0,2,2H28a2,2,0,0,0,2-2V10a2,2,0,0,0-2-2H15.12412A2,2,0,0,1,13.84376,7.53645Z" style="fill: #616161"/>
  <path d="M32,15.833V12.88705a.5.5,0,0,0-.65808-.47437l-11,3.66669A.50008.50008,0,0,0,20,16.55373V19.833a.5.5,0,0,0,.34192.47431L26,22.19332l-5.65808,1.88605A.50008.50008,0,0,0,20,24.55373V27.4996a.5.5,0,0,0,.65814.47436l11-3.66668A.5.5,0,0,0,32,23.833V20.55373a.5.5,0,0,0-.34186-.47436L26,18.19332l5.65814-1.886A.5.5,0,0,0,32,15.833Z" style="fill: #ffa726;fill-rule: evenodd"/>
</svg>
