<svg xmlns="http://www.w3.org/2000/svg" viewBox="0 0 32 32">
  <path d="M13.84376,7.53645l-1.28749-1.0729A2,2,0,0,0,11.27591,6H4A2,2,0,0,0,2,8V24a2,2,0,0,0,2,2H28a2,2,0,0,0,2-2V10a2,2,0,0,0-2-2H15.12412A2,2,0,0,1,13.84376,7.53645Z" style="fill: #f06292"/>
  <path d="M31.89726,12.59168a3.00776,3.00776,0,0,0-1.5309-1.91157,7.95244,7.95244,0,0,0-6.34694-.05105,17.357,17.357,0,0,0-5.8649,3.55767c-1.83044,1.80947-2.28778,3.49641-2.12352,4.39037.34569,1.89,2.18149,3.22641,3.65765,4.30075.31455.22916.61837.44924.876.65572-.92.51391-2.91581,1.74934-3.48266,3.07439a2.88933,2.88933,0,0,0-.07407,2.3472,1.56741,1.56741,0,0,0,.87388.903A3.46539,3.46539,0,0,0,18.86844,30,4.14092,4.14092,0,0,0,22.306,27.975a5.02809,5.02809,0,0,0,.55074-3.88554,4.51216,4.51216,0,0,1,1.459-.034,2.63986,2.63986,0,0,1,1.92705.95862,1.44086,1.44086,0,0,1,.30382.96883,1.20624,1.20624,0,0,1-.54967.80547c-.15888.10323-.35642.23256-.30918.5037.02684.15088.1299.39252.53141.31311a1.98973,1.98973,0,0,0,1.39135-1.84123,2.90656,2.90656,0,0,0-.80089-2.05111,3.89615,3.89615,0,0,0-2.89648-1.13446,6.5171,6.5171,0,0,0-1.81326.22576,13.3039,13.3039,0,0,0-1.49763-1.34661c-1.16482-.94614-2.26523-1.84123-2.19974-3.12431.08481-1.654,1.67155-3.30582,4.71511-4.90882,2.7011-1.42261,4.8944-1.47026,6.041-1.04143a1.43975,1.43975,0,0,1,.85778.67387,2.22871,2.22871,0,0,1-.25765,1.86619,6.57322,6.57322,0,0,1-5.02323,3.105,2.55915,2.55915,0,0,1-2.22443-.565c-.189-.21895-.36931-.42316-.65058-.2632-.33174.19627-.175.62509-.12239.768A2.59994,2.59994,0,0,0,23.31623,19.31a7.32438,7.32438,0,0,0,4.75162-.48214C30.69916,17.75008,32.4523,14.89464,31.89726,12.59168ZM21.30115,26.11787a2.7927,2.7927,0,0,1-.131.34488,3.40613,3.40613,0,0,1-.51639.79525c-.64736.74308-1.4987.97791-1.77568.80774a.26807.26807,0,0,1-.088-.18718,2.509,2.509,0,0,1,.74184-1.704,7.78,7.78,0,0,1,1.86478-1.44417A3.05165,3.05165,0,0,1,21.30115,26.11787Z" style="fill: #fce4ec"/>
</svg>
