<svg xmlns="http://www.w3.org/2000/svg" clip-rule="evenodd" fill-rule="evenodd" stroke-linejoin="round" stroke-miterlimit="1.414" viewBox="0 0 24 24">
  <path d="M10 4H4c-1.11 0-2 .89-2 2v12c0 1.097.903 2 2 2h16c1.097 0 2-.903 2-2V8a2 2 0 0 0-2-2h-8l-2-2z" fill-rule="nonzero" fill="#ffb300"/>
  <path d="M11.85 16.233h1.167v-1.166H11.85zm0 2.334h1.167V17.4H11.85zm1.167 2.333v-1.167H11.85c0 .642.52 1.167 1.167 1.167zm-1.167-7h1.167v-1.167H11.85zm7 7h1.167v-1.167H18.85zm2.333-10.5H15.35c-.648 0-1.167.525-1.167 1.167V17.4c0 .642.52 1.167 1.167 1.167h5.833A1.17 1.17 0 0 0 22.35 17.4v-5.833a1.17 1.17 0 0 0-1.167-1.167zm0 7H15.35v-5.833h5.833zm-4.666 3.5h1.166v-1.167h-1.166zm-2.334 0h1.167v-1.167h-1.167z"/>
</svg>