<svg version="1.1" viewBox="0 0 32 32" xmlns="http://www.w3.org/2000/svg">
 <path d="M13.844 7.536L12.556 6.464C12.1967 6.1644 11.7438 6.00021 11.276 6H4C3.46957 6 2.96086 6.21071 2.58579 6.58579C2.21071 6.96086 2 7.46957 2 8V24C2 24.5304 2.21071 25.0391 2.58579 25.4142C2.96086 25.7893 3.46957 26 4 26H28C28.5304 26 29.0391 25.7893 29.4142 25.4142C29.7893 25.0391 30 24.5304 30 24V10C30 9.46957 29.7893 8.96086 29.4142 8.58579C29.0391 8.21071 28.5304 8 28 8H15.124C14.6562 7.99979 14.2033 7.8356 13.844 7.536Z" fill="#FF7043"/>
 <path d="m30 24v0.99988a1 0.99989 0 0 1-2 0v-0.99988a2 1.9998 0 0 0-2-1.9998 3.0002 2.9998 0 0 0 2.9958-3.161 3.1145 3.1142 0 0 0-3.1655-2.8384h-11.83v1.9998h2v7.9991h-2v1.9998h8v-1.9998h-2v-1.9998h4c0.81885 0.81876 0.29669 2.3078 1.1786 3.3695a1.8853 1.885 0 0 0 1.4601 0.63006h5.3612v-3.9995zm-6-3.9995h-4v-1.9998h4a1 0.99989 0 0 1 0 1.9998z" fill="#ffccbc" stroke-width=".99994"/>
</svg>
