<svg xmlns="http://www.w3.org/2000/svg" viewBox="0 0 32 32">
  <path d="M28.96692,12H9.44152a2,2,0,0,0-1.89737,1.36754L4,24V10H28a2,2,0,0,0-2-2H15.1241a2,2,0,0,1-1.28038-.46357L12.5563,6.46357A2,2,0,0,0,11.27592,6H4A2,2,0,0,0,2,8V24a2,2,0,0,0,2,2H26l4.80523-11.21213A2,2,0,0,0,28.96692,12Z" style="fill: #42a5f5"/>
  <path d="M28.14474,10l-7.90321,7.26652-4.41619-3.3284L14,15.00051l4.35284,3.99883L14,23.00081l1.82534,1.065,4.41619-3.3284L28.14474,28,32,26.12728V11.874ZM28,14.78012V23.2212l-5.60273-4.22054Z" style="fill: #bbdefb;fill-rule: evenodd"/>
</svg>
