<svg xmlns="http://www.w3.org/2000/svg" viewBox="0 0 16 16"><path id="folder" fill="#26a69a" d="m6.922 3.768-.644-.536A1 1 0 0 0 5.638 3H2a1 1 0 0 0-1 1v8a1 1 0 0 0 1 1h12a1 1 0 0 0 1-1V5a1 1 0 0 0-1-1H7.562a1 1 0 0 1-.64-.232"/><path id="motive" fill="#a7ffeb" d="M10.25 4a.25.25 0 0 0-.25.25v2.5c0 .138.111.25.25.25h.5a.25.25 0 0 0 .25-.25v-2.5a.25.25 0 0 0-.25-.25ZM7.207 5.379l-.707.707L7.914 7.5l.707-.707ZM9 8v3h1V9h.75a.25.25 0 0 1 .25.25V11h1V9a1 1 0 0 0-1-1ZM5.25 9a.25.25 0 0 0-.25.25v.5c0 .139.112.25.25.25h2.5A.25.25 0 0 0 8 9.75v-.5A.25.25 0 0 0 7.75 9Zm8 0a.25.25 0 0 0-.25.25v.5c0 .139.111.25.25.25h2.5a.25.25 0 0 0 .25-.25v-.5a.25.25 0 0 0-.25-.25Zm-5.336 2.5L6.5 12.914l.707.707 1.414-1.414Zm2.336.5a.25.25 0 0 0-.25.25v2.5c0 .139.112.25.25.25h.5a.25.25 0 0 0 .25-.25v-2.5a.25.25 0 0 0-.25-.25Z"/></svg>