<svg xmlns="http://www.w3.org/2000/svg" viewBox="0 0 16 16"><path fill="#9c27b0" d="m6.922 3.768-.644-.536A1 1 0 0 0 5.638 3H2a1 1 0 0 0-1 1v8a1 1 0 0 0 1 1h12a1 1 0 0 0 1-1V5a1 1 0 0 0-1-1H7.562a1 1 0 0 1-.64-.232"/><path fill="#e1bee7" d="M9.5 5c-.275 0-.5.25-.5.5v8c0 .275.25.5.5.5h6c.275 0 .5-.25.5-.5V8l-3-3zM13 6l2 2h-2z"/><path fill="#9c27b0" d="M10 10h3v1h-3zm0 2h2v1h-2Zm5.002-1.71-.264.265.707.707.266-.266a.2.2 0 0 0 0-.282l-.424-.423a.2.2 0 0 0-.285 0m-.441.442-1.559 1.559H13v.002l-.004.004.004.004v.697h.701l.002.006 1.565-1.565Z"/></svg>