<svg clip-rule="evenodd" fill-rule="evenodd" stroke-linejoin="round" stroke-miterlimit="1.4142" version="1.1" viewBox="0 0 24 24" xml:space="preserve" xmlns="http://www.w3.org/2000/svg"><path d="m10 4h-6c-1.11 0-2 0.89-2 2v12c0 1.097 0.903 2 2 2h16c1.097 0 2-0.903 2-2v-10c0-1.11-0.9-2-2-2h-8l-2-2z" fill="#e57373" fill-rule="nonzero" style="fill:#448aff"/><path d="m18.116 15.74c-0.27143 0.25819-0.27143 0.68188 0 0.94007 0.25819 0.25819 0.68188 0.25819 0.94007 0 1.2909-1.2909 1.2909-3.3895 0-4.6805l-2.3435-2.3435c-1.2909-1.2909-3.3895-1.2909-4.6805 0-1.2909 1.2909-1.2909 3.3895 0 4.6805l0.98641 0.98641c-0.0066-0.54285 0.07944-1.0857 0.26481-1.6021l-0.31115-0.31777c-0.78118-0.77456-0.78118-2.0324 0-2.807 0.77456-0.78118 2.0324-0.78118 2.807 0l2.3369 2.3369c0.78118 0.77456 0.78118 2.0324 0 2.807m-1.8669-2.807c-0.25819-0.25819-0.68188-0.25819-0.94007 0-1.2909 1.2909-1.2909 3.3895 0 4.6805l2.3435 2.3435c1.2909 1.2909 3.3895 1.2909 4.6805 0 1.2909-1.2909 1.2909-3.3895 0-4.6805l-0.98641-0.98641c0.0066 0.54285-0.07944 1.0857-0.26481 1.6087l0.31115 0.31115c0.78118 0.77456 0.78118 2.0324 0 2.807-0.77456 0.78118-2.0324 0.78118-2.807 0l-2.3369-2.3369c-0.78118-0.77456-0.78118-2.0324 0-2.807 0.27143-0.25819 0.27143-0.68188 1e-6 -0.94007z" style="fill:#bbdefb;stroke-width:.66202"/></svg>
