<?xml version="1.0" encoding="UTF-8"?>
<svg xmlns="http://www.w3.org/2000/svg" viewBox="0 0 17 13"><path d="M6.0952381 0H1.52380952C.67809524 0 0 .65690476 0 1.47619048v8.85714282c0 .8152775.68223276 1.4761905 1.52380952 1.4761905H13.7142857c.8415768 0 1.5238095-.660913 1.5238095-1.4761905V2.95238095c0-.81928571-.6857142-1.47619047-1.5238095-1.47619047H7.61904762L6.0952381 0z" fill="#03A9F4"/><g fill="#CBEDFC"><path d="M16.2610375 7.63772419c0-.49245116-.0815625-.96913638-.229401-1.41578204l-2.2730518 5.50804419c1.4972543-.82717064 2.502427-2.34967971 2.502427-4.09226215h.0000258zM9.28991904 12.5123019c.49452944.1629101 1.02387496.2504427 1.57518837.2504427.57605248 0 1.12784455-.0956114 1.6422509-.2724803l-1.51764863-3.85855282-1.69976545 3.88059042h-.00002519zM5.9148722 6.56619491c-.12927215.42732034-.1998857.87965067-.1998857 1.34805021 0 1.78704188 1.00982083 3.34416106 2.50245278 4.15999398l-2.2875862-5.4781047-.01498088-.02993949z"/><path d="M8.69808242 5.97897054l-.22379733-.00941053c-.48819388-.00762278-.43413196.46911129-.43413196.46911129l1.73214589 4.08643037 1.16449578-2.61632651-.65008926-1.5568347c-.26030496-.41163007-.89553247-.40730967-.89553247-.40730967v-.21686434h3.6421576l-.00541147.24052724-.37896136.02212344c-.47195946 0-.37653279.42230693-.37653279.42230693l1.58049271 3.97126929.45303252-1.09966658c.80361662-1.71368518.30787311-2.98192196.30787311-2.98192196-.80472534-1.55733129.21218246-1.78082522.21218246-1.78082522.06433051-.0086408.12462222-.0134578.18380525-.01601528-.95556022-1.05618944-2.37898828-1.72614979-3.96813935-1.72614979-2.14869718 0-3.99435198 1.22475963-4.79044536 2.97228795l2.43819768-.02363806.00863195.25095579.0000264-.00004966z"/></g></svg>
