<svg xmlns="http://www.w3.org/2000/svg" viewBox="0 0 32 32">
  <path d="M28.96692,12H9.44152a2,2,0,0,0-1.89737,1.36754L4,24V10H28a2,2,0,0,0-2-2H15.1241a2,2,0,0,1-1.28038-.46357L12.5563,6.46357A2,2,0,0,0,11.27592,6H4A2,2,0,0,0,2,8V24a2,2,0,0,0,2,2H26l4.80523-11.21213A2,2,0,0,0,28.96692,12Z" style="fill: #546e7a"/>
  <path d="M23,10a9.0315,9.0315,0,0,0-9,9.06267h0A9.0816,9.0816,0,0,0,20.15713,27.672c.4502.072.5932-.20933.5932-.45334v-1.532c-2.4933.544-3.02427-1.21334-3.02427-1.21334A2.42526,2.42526,0,0,0,16.72767,23.14c-.81962-.56133.06224-.544.06224-.544a1.89456,1.89456,0,0,1,1.37708.93333,1.9252,1.9252,0,0,0,2.61909.75334A1.96368,1.96368,0,0,1,21.3528,23.068c-1.99808-.22666-4.09416-1.00666-4.09416-4.45866a3.522,3.522,0,0,1,.92688-2.456,3.25974,3.25974,0,0,1,.09-2.392s.75475-.24534,2.47477.924a8.62192,8.62192,0,0,1,4.49934,0c1.7187-1.16934,2.47609-.924,2.47609-.924a3.264,3.264,0,0,1,.08872,2.392,3.52438,3.52438,0,0,1,.92688,2.456c0,3.46133-2.10534,4.22266-4.1127,4.44933a2.1658,2.1658,0,0,1,.62233,1.676v2.484c0,.244.143.53333.60247.45333A9.07956,9.07956,0,0,0,23,10Z" style="fill: #eceff1"/>
</svg>
