<svg xmlns="http://www.w3.org/2000/svg" viewBox="0 0 16 16"><path id="folder" fill="#ff5722" d="m6.922 3.768-.644-.536A1 1 0 0 0 5.638 3H2a1 1 0 0 0-1 1v8a1 1 0 0 0 1 1h12a1 1 0 0 0 1-1V5a1 1 0 0 0-1-1H7.562a1 1 0 0 1-.64-.232"/><path id="motive" fill="#ffccbc" d="M12.992 4a2.7 2.7 0 0 0-1.433.445L9.321 5.931a2.68 2.68 0 0 0-1.16 1.788 2.92 2.92 0 0 0 .265 1.81 2.8 2.8 0 0 0-.383.999 2.94 2.94 0 0 0 .467 2.156 2.865 2.865 0 0 0 3.93.879l2.24-1.48a2.7 2.7 0 0 0 1.16-1.787 2.92 2.92 0 0 0-.267-1.809 2.8 2.8 0 0 0 .385-1 2.95 2.95 0 0 0-.468-2.156v-.007a2.96 2.96 0 0 0-2.498-1.323Zm.196 1.142a1.803 1.803 0 0 1 1.661 2.092 2 2 0 0 1-.053.216l-.043.135-.114-.09a2.9 2.9 0 0 0-.875-.456l-.086-.025.008-.09a.54.54 0 0 0-.091-.346.525.525 0 0 0-.572-.216.5.5 0 0 0-.137.063l-2.24 1.482a.5.5 0 0 0-.211.326.54.54 0 0 0 .086.39.525.525 0 0 0 .57.222.5.5 0 0 0 .138-.062l.859-.567a1.6 1.6 0 0 1 .455-.208 1.74 1.74 0 0 1 1.908.736 1.77 1.77 0 0 1 .281 1.297 1.6 1.6 0 0 1-.697 1.078l-2.24 1.485a1.6 1.6 0 0 1-.455.208 1.745 1.745 0 0 1-1.91-.737 1.77 1.77 0 0 1-.28-1.296 1.5 1.5 0 0 1 .053-.216l.043-.134.115.09a2.9 2.9 0 0 0 .873.452l.086.025-.008.09a.55.55 0 0 0 .094.344.525.525 0 0 0 .575.222.5.5 0 0 0 .137-.063l2.236-1.485a.5.5 0 0 0 .21-.326.53.53 0 0 0-.086-.39.525.525 0 0 0-.575-.222.5.5 0 0 0-.138.063l-.858.567a1.6 1.6 0 0 1-.454.208 1.745 1.745 0 0 1-1.906-.737 1.77 1.77 0 0 1-.279-1.296 1.6 1.6 0 0 1 .698-1.078l2.242-1.486a1.6 1.6 0 0 1 .452-.207 1.7 1.7 0 0 1 .528-.057z"/></svg>