<svg xmlns="http://www.w3.org/2000/svg" viewBox="0 0 16 16">
<path id="folder" fill="#00acc1" d="M14.483 6H4.721a1 1 0 0 0-.949.684L2 12V5h12a1 1 0 0 0-1-1H7.562a1 1 0 0 1-.64-.232l-.644-.536A1 1 0 0 0 5.638 3H2a1 1 0 0 0-1 1v8a1 1 0 0 0 1 1h11l2.403-5.606A1 1 0 0 0 14.483 6" />
<path id="motive" fill="#b2ebf2" d="m 15.434,7.9105 a 0.905,0.905 0 0 1 0.032,1.283 Q 15.4505,9.21 15.434,9.2255 l -1.321,1.315 -3.679,-3.6625 1.321,-1.315 a 0.915,0.915 0 0 1 1.2885,-0.0315 q 0.0165,0.0155 0.032,0.032 l 0.849,0.845 L 15.3395,5 16,5.657 14.585,7.066 Z m -2.7355,2.7225 -0.661,-0.657 -1.32,1.315 -0.9905,-0.987 1.32,-1.3135 -0.66,-0.658 -1.321,1.315 -0.7075,-0.657 -1.32,1.3135 a 0.905,0.905 0 0 0 -0.032,1.283 q 0.015,0.0165 0.032,0.032 L 7.887,12.464 6,14.3415 6.661,15 8.548,13.122 9.3965,13.967 a 0.915,0.915 0 0 0 1.289,0.0315 q 0.0165,-0.0155 0.032,-0.032 l 1.32,-1.314 -0.66,-0.6575 z" />
</svg>
