<svg xmlns="http://www.w3.org/2000/svg" xml:space="preserve" fill-rule="evenodd" stroke-linejoin="round" stroke-miterlimit="2" clip-rule="evenodd" viewBox="0 0 48 48"><path fill="#f4511e" fill-rule="nonzero" d="M20 8H8c-2.22 0-4 1.78-4 4v24c0 2.2 1.8 4 4 4h32c2.2 0 4-1.8 4-4V16a4 4 0 0 0-4-4H24l-4-4Z"/><g fill-rule="nonzero"><path fill="#ffccbc" d="M35.51 17.21c-.11 3.3-.35 3.81-1.79 3.94-.88 0-1 .14-1.54 1.17-.68 1.27-1.14 6.83-1.27 7.13-.13.3-.5.43-.7.55-.27.14-.58.21-.89.2a4.18 4.18 0 0 1-.53-.5 3.82 3.82 0 0 1-.79-1.86c0-.33-.11-1.6-.3-1.27l-.74 1.05c-.47.73-.86 1.5-1.18 2.3a6.4 6.4 0 0 0-.35 2.81c.1 1.9.87 3.7 2.16 5.09.77.87.88 1.12.57 1.17a2.5 2.5 0 0 1-1.01-.16c-.37-.11-.66-.14-.66 0 0 .4 1.43 1.6 2.62 2.19 2.05.96 4.26 1.56 6.52 1.78a12.87 12.87 0 0 1-4.46-2.54 9.3 9.3 0 0 1-2.04-2.71c-.68-1.3-1-2.75-.94-4.2l.1-.52.71.42c.43.27.91.43 1.42.49.87 0 1.62-.74 1.98-1.92.54-2.28 1.33-4.5 2.36-6.6.42-.73 1.03-1.88 1.36-2.54.33-.66.59-1 .75-1.27.14-.27.24-.55.3-.84.15-.64.21-.69.52-.44a13.03 13.03 0 0 1 2.25 3.82c.47 1.14.53 1.71.56 4.4-.05 1.14.02 2.28.19 3.4.14.2.56.27 1.48.2 1.16-.08 1.28 0 1.39.38.08.83-.14 1.67-.62 2.36-.2.3-.32.64-.35 1 0 .41.1.5.66.5.37 0 .67.06.67.15-.2.41-.43.8-.69 1.18a54.13 54.13 0 0 1-5.56 5.23c1.57-.3 3.1-.77 4.58-1.39 1.49-.68 2.99-1.76 2.99-2.1 0-.08-.3-.12-.66 0-.37.13-.66 0-.66-.17.3-.52.7-.97 1.18-1.35a8.44 8.44 0 0 0 1.68-2.1c.68-1.69.8-3.56.35-5.32-.62-2.55-1.71-4.14-1.66-3.35 0 .52-.64 1.53-1 1.53a1.1 1.1 0 0 1-.67-.52 6.5 6.5 0 0 1-.4-2.82 6.43 6.43 0 0 0-.64-3.58c-.45-.86-.98-1.67-1.59-2.42-1.39-1.6-3-3-4.77-4.14l-.82-.48-.07 2.67Zm-7.21 4.17a2.4 2.4 0 0 1-.6.92 3.94 3.94 0 0 0-1.1 2.54c-.14.84-.11 1.03.18 1.03.3 0 1.65-1.46 2-2.24.28-.82.28-1.72 0-2.54-.25-.22-.34-.18-.49.29Z"/><path fill="#ffecb3" d="M36.96 20.24c-.12.49-.3.96-.56 1.4-.12.3-.7 1.27-1.27 2.36a19.6 19.6 0 0 0-2.54 5.92c-.2.82-.45 1.62-.78 2.4-.6 1.34-1.76 1.5-3.03.4l-.64-.56-.14.93a8.8 8.8 0 0 0 .78 4.46 11.44 11.44 0 0 0 3.57 4.07c1.07.43 2.16.8 3.28 1.12-.6-.44-1.16-.94-1.67-1.48-1-1.19-1.75-2.58-2.18-4.08 0-.27.23-.4.84-.44l.82-.07.13-1.76a9.3 9.3 0 0 1 .57-2.78 7.17 7.17 0 0 1 2.54-2.98l.64-.33v2.27c0 3.82.5 4.72 2.38 4.08l.91-.3-.32.76c-.42.98-.42 1.16 0 1.16s.33.12.2.58a15.07 15.07 0 0 1-2.1 4.16c-.27.38-.53.79-.77 1.2 0 0 1.17-.65 1.8-1.05a17.65 17.65 0 0 0 4.61-4.82l.6-1.13-.9.12c-1 .12-1.08-.07-.45-1.12a3.5 3.5 0 0 0 .48-2.85c-.2-.53-.3-.57-.66-.38-.6.32-1.94.3-2.13 0a17.69 17.69 0 0 1-.2-3.27c.3-3.17-.86-6.3-3.13-8.53l-.47-.32-.2.86Z"/><path fill="#fff9c4" d="m38.18 37.33 1.67 1.07-1.07 2.84-1.16 1.5h-2L33.4 39.7l-.09-1.57 1.17-.16 1.36-2.86.78-.3 1.57 2.53Z"/><path fill="#ffecb3" d="M36.6 28.86a6.95 6.95 0 0 0-2.68 3.06 9.49 9.49 0 0 0-.57 2.77l-.14 1.77h-1.9l.15.68c.42 1.6 1.2 3.1 2.29 4.35a6.8 6.8 0 0 0 1.93 1.27c0-.07-.55-.84-1.03-1.55a7.77 7.77 0 0 1-1.02-1.96c-.13-.6-.09-.63.33-.53.26.07.53.03.75-.1.34-.53.61-1.1.82-1.68.5-1.4.68-1.83.89-1.13a16 16 0 0 0 .8 1.84c.45.97.94.92 1.64.92h.62l-.3.9c-.27.68-.56 1.34-.9 1.98-.3.63-.64 1.27-.66 1.27 0 0 .54-.56.78-.77.38-.42.72-.88.99-1.38.66-1.3 1.22-2.65 1.65-4.05 0-.22.16-.34-.09-.23l-.77.28.53-1.27.51-1.33-.57.41c-.4.28-.82.5-1.27.65-.6.18-.8.16-1.15-.2-.53-.53-.73-1.96-.62-4.41.07-.66.07-1.33 0-1.99-.14 0-.56.22-1 .43Z"/></g></svg>