<svg xmlns="http://www.w3.org/2000/svg" viewBox="0 0 16 16"><path id="folder" fill="#ff7043" d="m6.922 3.768-.644-.536A1 1 0 0 0 5.638 3H2a1 1 0 0 0-1 1v8a1 1 0 0 0 1 1h12a1 1 0 0 0 1-1V5a1 1 0 0 0-1-1H7.562a1 1 0 0 1-.64-.232"/><path id="motive" fill="#ffccbc" d="M15.249 8.55a4.501 4.5 0 0 0-.44-.457c-.383-.331-.82-.57-1.183-.92A2.7 2.7 0 0 1 13.127 4a3.75 3.75 0 0 0-1.423.731 4.296 4.295 0 0 0-1.371 4.938.4.4 0 0 1 .047.182.31.31 0 0 1-.2.278.36.36 0 0 1-.379-.067 2.71 2.71 0 0 1-.393-2.935 3.9 3.9 0 0 0-1.4 3.234 4 4 0 0 0 .167.835 3.6 3.6 0 0 0 .404.958 4.01 4.01 0 0 0 2.838 1.783 4.4 4.4 0 0 0 3.468-.884 3.22 3.22 0 0 0 .873-3.662l-.073-.142a6.001 6 0 0 0-.44-.7m-1.805 3.495a2 2 0 0 1-.63.331 1.67 1.67 0 0 1-1.659-.456 1.57 1.57 0 0 0 1.208-1.137 3.1 3.1 0 0 0-.16-1.234 2 2 0 0 1 .095-1.14 3.5 3.5 0 0 0 .364.584c.436.556 1.128.799 1.277 1.555a1 1 0 0 1 .036.235 1.67 1.67 0 0 1-.531 1.262"/></svg>