<svg width="32" height="32" viewBox="0 0 32 32" fill="none" xmlns="http://www.w3.org/2000/svg">
<rect width="32" height="32" fill="black"/>
<g id="folder-powershell">
<path id="Vector" d="M13.844 7.536L12.556 6.464C12.1967 6.1644 11.7438 6.00021 11.276 6H4C3.46957 6 2.96086 6.21071 2.58579 6.58579C2.21071 6.96086 2 7.46957 2 8V24C2 24.5304 2.21071 25.0391 2.58579 25.4142C2.96086 25.7893 3.46957 26 4 26H28C28.5304 26 29.0391 25.7893 29.4142 25.4142C29.7893 25.0391 30 24.5304 30 24V10C30 9.46957 29.7893 8.96086 29.4142 8.58579C29.0391 8.21071 28.5304 8 28 8H15.124C14.6562 7.99979 14.2033 7.8356 13.844 7.536Z" fill="#03A9F4"/>
<path id="Whitespace" d="M30.5341 18.0019H19.8392C19.6758 18.006 19.518 18.0622 19.3888 18.1623C19.2596 18.2624 19.1657 18.4011 19.1208 18.5583L17.0211 27.444C16.9991 27.5112 16.9942 27.5828 17.0068 27.6523C17.0194 27.7219 17.0491 27.7872 17.0933 27.8424C17.1374 27.8976 17.1946 27.9409 17.2597 27.9685C17.3247 27.9961 17.3957 28.0071 17.466 28.0004H28.161C28.3243 27.9962 28.482 27.9399 28.6111 27.8398C28.7402 27.7398 28.834 27.6011 28.8789 27.444L30.9791 18.5578C31.0009 18.4906 31.0058 18.4191 30.9931 18.3496C30.9805 18.2802 30.9507 18.2149 30.9066 18.1598C30.8625 18.1046 30.8053 18.0614 30.7403 18.0338C30.6753 18.0062 30.6044 17.9953 30.5341 18.0019Z" fill="#4FC3F7"/>
<path id="Vector_2" d="M30.5341 18.0019H19.8392C19.6758 18.006 19.518 18.0622 19.3888 18.1623C19.2596 18.2624 19.1657 18.4011 19.1208 18.5583L17.0211 27.444C16.9991 27.5112 16.9942 27.5828 17.0068 27.6523C17.0194 27.7219 17.0491 27.7872 17.0933 27.8424C17.1374 27.8976 17.1946 27.9409 17.2597 27.9685C17.3247 27.9961 17.3957 28.0071 17.466 28.0004H28.161C28.3243 27.9962 28.482 27.9399 28.6111 27.8398C28.7402 27.7398 28.834 27.6011 28.8789 27.444L30.9791 18.5578C31.0009 18.4906 31.0058 18.4191 30.9931 18.3496C30.9805 18.2802 30.9507 18.2149 30.9066 18.1598C30.8625 18.1046 30.8053 18.0614 30.7403 18.0338C30.6753 18.0062 30.6044 17.9953 30.5341 18.0019ZM20.3136 26.8991C20.1692 26.987 19.9979 27.0197 19.8312 26.9912C19.6645 26.9627 19.5138 26.875 19.4067 26.7441L19.4032 26.7396C19.3555 26.6788 19.3214 26.6083 19.3033 26.5331C19.2853 26.4579 19.2837 26.3797 19.2986 26.3038C19.3136 26.2279 19.3447 26.1561 19.39 26.0934C19.4352 26.0306 19.4934 25.9784 19.5607 25.9402L24.36 22.9102L21.3095 19.9846L21.3045 19.9796C21.2482 19.9265 21.2041 19.8618 21.1753 19.79C21.1465 19.7182 21.1337 19.641 21.1377 19.5637C21.1417 19.4864 21.1624 19.4109 21.1985 19.3425C21.2345 19.274 21.285 19.2142 21.3465 19.1672L21.365 19.1522C21.4943 19.0493 21.6562 18.9962 21.8214 19.0026C21.9865 19.0091 22.1439 19.0746 22.2648 19.1872L25.8808 22.6652C25.9634 22.7701 26.0053 22.9013 25.9988 23.0346C25.9947 23.1114 25.9742 23.1863 25.9387 23.2545C25.9031 23.3226 25.8534 23.3823 25.7928 23.4296C25.7558 23.4496 25.7198 23.4891 20.3181 26.8966L20.3136 26.8991ZM27.9995 26.4707C27.9899 26.6201 27.9215 26.7596 27.8094 26.8589C27.6974 26.9581 27.5506 27.0091 27.4011 27.0006H24.5845C24.5109 27.0077 24.4365 26.9994 24.3663 26.9761C24.2961 26.9528 24.2315 26.915 24.1767 26.8653C24.1219 26.8155 24.0782 26.7549 24.0482 26.6872C24.0183 26.6196 24.0029 26.5464 24.0029 26.4724C24.0029 26.3984 24.0184 26.3252 24.0484 26.2576C24.0784 26.1899 24.1223 26.1293 24.1771 26.0796C24.2319 26.0299 24.2965 25.9923 24.3668 25.969C24.437 25.9458 24.5114 25.9375 24.585 25.9447H27.4011C27.5498 25.9361 27.6959 25.9863 27.8079 26.0845C27.9199 26.1827 27.9887 26.3211 27.9995 26.4697V26.4707Z" fill="#B3E5FC"/>
</g>
</svg>
