<svg xmlns="http://www.w3.org/2000/svg" viewBox="0 0 16 16"><path id="folder" fill="#00bfa5" d="m6.922 3.768-.644-.536A1 1 0 0 0 5.638 3H2a1 1 0 0 0-1 1v8a1 1 0 0 0 1 1h12a1 1 0 0 0 1-1V5a1 1 0 0 0-1-1H7.562a1 1 0 0 1-.64-.232"/><path id="motive" fill="#a7ffeb" d="m15.105 13.137-4.88 1.194a.21.21 0 0 1-.255-.112.15.15 0 0 1-.006-.082l1.743-6.91a.175.175 0 0 1 .206-.105.17.17 0 0 1 .11.075l3.229 5.673a.181.18 0 0 1-.11.255zm.836-.282-3.738-6.569a.67.67 0 0 0-.823-.226.6.6 0 0 0-.234.178l-4.053 5.434a.435.435 0 0 0 .007.546l1.982 2.54a.7.7 0 0 0 .716.217l5.751-1.407a.6.6 0 0 0 .395-.283.43.43 0 0 0-.003-.43"/></svg>