<?xml version="1.0" encoding="UTF-8" standalone="no"?>
<svg
   xmlns:dc="http://purl.org/dc/elements/1.1/"
   xmlns:cc="http://creativecommons.org/ns#"
   xmlns:rdf="http://www.w3.org/1999/02/22-rdf-syntax-ns#"
   xmlns:svg="http://www.w3.org/2000/svg"
   xmlns="http://www.w3.org/2000/svg"
   xmlns:sodipodi="http://sodipodi.sourceforge.net/DTD/sodipodi-0.dtd"
   xmlns:inkscape="http://www.inkscape.org/namespaces/inkscape"
   clip-rule="evenodd"
   fill-rule="evenodd"
   stroke-linejoin="round"
   stroke-miterlimit="1.414"
   viewBox="0 0 24 24"
   version="1.1"
   id="svg6"
   sodipodi:docname="folder-packages.svg"
   inkscape:version="0.92.2 5c3e80d, 2017-08-06">
  <metadata
     id="metadata12">
    <rdf:RDF>
      <cc:Work
         rdf:about="">
        <dc:format>image/svg+xml</dc:format>
        <dc:type
           rdf:resource="http://purl.org/dc/dcmitype/StillImage" />
      </cc:Work>
    </rdf:RDF>
  </metadata>
  <defs
     id="defs10" />
  <sodipodi:namedview
     pagecolor="#ffffff"
     bordercolor="#666666"
     borderopacity="1"
     objecttolerance="10"
     gridtolerance="10"
     guidetolerance="10"
     inkscape:pageopacity="0"
     inkscape:pageshadow="2"
     inkscape:window-width="640"
     inkscape:window-height="480"
     id="namedview8"
     showgrid="false"
     inkscape:zoom="9.8333333"
     inkscape:cx="12"
     inkscape:cy="12"
     inkscape:window-x="0"
     inkscape:window-y="0"
     inkscape:window-maximized="0"
     inkscape:current-layer="svg6" />
  <path
     d="M10 4H4c-1.11 0-2 .89-2 2v12c0 1.097.903 2 2 2h16c1.097 0 2-.903 2-2V8a2 2 0 0 0-2-2h-8l-2-2z"
     fill="#424242"
     fill-rule="nonzero"
     id="path2" />
  <path
     d="m 22.856568,12.036977 -0.888056,-1.073333 c -0.178888,-0.210833 -0.440833,-0.345 -0.741111,-0.345 h -7.666667 c -0.300277,0 -0.562222,0.134167 -0.734722,0.351389 l -0.888055,1.066944 c -0.185278,0.223611 -0.293889,0.504723 -0.293889,0.817778 v 7.986111 c 0,0.702778 0.568611,1.277778 1.277778,1.277778 h 8.944444 c 0.702778,0 1.277778,-0.575 1.277778,-1.277778 v -7.986111 c 0,-0.313055 -0.108611,-0.594167 -0.2875,-0.817778 z m -5.4625,2.734445 3.513889,3.513889 h -2.236111 v 1.277777 H 16.11629 v -1.277777 h -2.236111 z m -4.395556,-2.875 0.523889,-0.638889 h 7.666667 l 0.594167,0.638889 z"
     id="path4"
     inkscape:connector-curvature="0"
     style="stroke-width:0.6388889" />
</svg>
