<?xml version="1.0" encoding="UTF-8" standalone="no"?>
<svg
   clip-rule="evenodd"
   fill-rule="evenodd"
   stroke-linejoin="round"
   stroke-miterlimit="1.414"
   viewBox="0 0 24 24"
   version="1.1"
   id="svg2"
   sodipodi:docname="folder-linux.svg"
   xml:space="preserve"
   inkscape:version="1.3 (0e150ed, 2023-07-21)"
   xmlns:inkscape="http://www.inkscape.org/namespaces/inkscape"
   xmlns:sodipodi="http://sodipodi.sourceforge.net/DTD/sodipodi-0.dtd"
   xmlns="http://www.w3.org/2000/svg"
   xmlns:svg="http://www.w3.org/2000/svg"><defs
     id="defs2" /><sodipodi:namedview
     id="namedview2"
     pagecolor="#ffffff"
     bordercolor="#000000"
     borderopacity="0.25"
     inkscape:showpageshadow="2"
     inkscape:pageopacity="0.0"
     inkscape:pagecheckerboard="0"
     inkscape:deskcolor="#d1d1d1"
     inkscape:zoom="37.606272"
     inkscape:cx="11.979385"
     inkscape:cy="12.737237"
     inkscape:window-width="1440"
     inkscape:window-height="1567"
     inkscape:window-x="1800"
     inkscape:window-y="25"
     inkscape:window-maximized="0"
     inkscape:current-layer="svg2" /><path
     d="M10 4H4c-1.11 0-2 .89-2 2v12c0 1.097.903 2 2 2h16c1.097 0 2-.903 2-2V8a2 2 0 0 0-2-2h-8l-2-2z"
     fill="#FFB300"
     fill-rule="nonzero"
     style="fill:#ffc107;fill-opacity:1"
     id="path1" /><path
     d="m 17.313673,11.550206 c 0,0.04083 -0.04083,0.04083 -0.04083,0.04083 h -0.04083 c -0.04083,0 -0.04083,-0.04083 -0.08156,-0.08156 0,0 -0.04083,-0.04083 -0.04083,-0.08156 0,-0.04083 0,-0.04083 0.04083,-0.04083 l 0.08156,0.04083 c 0.04083,0.04083 0.08156,0.08156 0.08156,0.122375 m -0.734213,-0.4079 c 0,-0.20395 -0.08156,-0.326324 -0.203949,-0.326324 0,0 0,0.04083 -0.04083,0.04083 v 0.08155 h 0.122374 c 0,0.08156 0.04083,0.122364 0.04083,0.20395 h 0.08155 m 1.42765,-0.20395 c 0.08156,0 0.122363,0.08156 0.163162,0.20395 h 0.08155 c -0.04082,-0.04083 -0.04082,-0.08155 -0.04082,-0.122374 0,-0.04083 0,-0.08156 -0.04083,-0.122364 -0.04083,-0.04083 -0.08156,-0.08156 -0.122374,-0.08156 0,0 -0.04083,0.04083 -0.08156,0.04083 0,0.04083 0.04083,0.04083 0.04083,0.08156 m -1.223699,0.652637 c -0.04083,0 -0.04083,0 -0.04083,-0.04083 0,-0.04082 0,-0.08155 0.04083,-0.122373 0.08156,0 0.122363,-0.04083 0.122363,-0.04083 0.04083,0 0.04083,0.04083 0.04083,0.04083 0,0.04083 -0.04083,0.08155 -0.122364,0.163162 h -0.04082 m -0.448698,-0.04083 c -0.163151,-0.08156 -0.20395,-0.20395 -0.20395,-0.4079 0,-0.122374 0,-0.20395 0.08156,-0.285536 0.04083,-0.08156 0.122363,-0.122363 0.20395,-0.122363 0.08156,0 0.122363,0.04082 0.20395,0.122363 0.04083,0.122374 0.08156,0.244749 0.08156,0.367112 v 0.08156 h 0.04083 v -0.04083 c 0.04083,0 0.04083,-0.08156 0.04083,-0.244749 0,-0.122363 0,-0.244737 -0.08156,-0.367112 -0.08156,-0.122363 -0.163162,-0.203949 -0.326314,-0.203949 -0.122374,0 -0.244748,0.08156 -0.285536,0.203949 -0.08156,0.163163 -0.09789,0.285537 -0.09789,0.489487 0,0.163162 0.05716,0.326324 0.220271,0.489475 0.04082,-0.04083 0.08156,-0.04083 0.122364,-0.08155 m 5.098758,5.751395 c 0.04083,0 0.04083,-0.01633 0.04083,-0.05297 0,-0.08973 -0.04083,-0.195795 -0.163162,-0.314086 -0.122364,-0.122374 -0.326314,-0.199867 -0.571051,-0.232499 -0.04083,-0.0042 -0.08156,-0.0042 -0.08156,-0.0042 -0.04083,-0.0084 -0.04083,-0.0084 -0.08156,-0.0084 -0.04082,-0.0042 -0.122374,-0.01225 -0.163162,-0.02042 0.122374,-0.379351 0.163162,-0.71383 0.163162,-1.007521 0,-0.4079 -0.08156,-0.693426 -0.244738,-0.938164 -0.163162,-0.244749 -0.326324,-0.367112 -0.530274,-0.4079 -0.04083,0.04083 -0.04083,0.04083 -0.04083,0.08156 0.203951,0.08156 0.407901,0.244738 0.530264,0.489486 0.122374,0.285526 0.163162,0.530263 0.163162,0.8158 0,0.228417 -0.04083,0.566979 -0.20395,0.999356 -0.163162,0.06522 -0.326324,0.216188 -0.448687,0.45277 0,0.03675 0,0.05706 0.04083,0.05706 0,0 0.04083,-0.03675 0.08156,-0.106052 0.08156,-0.06931 0.122374,-0.138685 0.20395,-0.208033 0.122374,-0.06931 0.20396,-0.106053 0.326324,-0.106053 0.20395,0 0.4079,0.02858 0.530274,0.08564 0.163162,0.05308 0.244737,0.110135 0.285525,0.1754 0.04083,0.06114 0.08156,0.118292 0.122375,0.171318 0,0.05298 0.04083,0.07747 0.04083,0.07747 M 17.680804,11.38661 c -0.04082,-0.04083 -0.04082,-0.122363 -0.04082,-0.20395 0,-0.163162 0,-0.244737 0.08155,-0.367112 0.08156,-0.08156 0.163162,-0.122363 0.244749,-0.122363 0.122363,0 0.20395,0.08156 0.285525,0.163151 0.04083,0.122375 0.08156,0.20395 0.08156,0.326324 0,0.20395 -0.08156,0.326325 -0.244738,0.367112 0,0 0.04083,0.04083 0.08156,0.04083 0.08156,0 0.122364,0.04083 0.20395,0.08156 0.04083,-0.244748 0.08156,-0.4079 0.08156,-0.61186 0,-0.244738 -0.04083,-0.4079 -0.122374,-0.530264 -0.122364,-0.122374 -0.244738,-0.163161 -0.4079,-0.163161 -0.122363,0 -0.244738,0.04083 -0.367101,0.122373 -0.08156,0.122364 -0.122374,0.20395 -0.122374,0.326314 0,0.20395 0.04083,0.367112 0.122374,0.530274 0.04083,0 0.08155,0.04083 0.122363,0.04083 m 0.489487,0.652639 c -0.530274,0.367111 -0.938174,0.530274 -1.264498,0.530274 -0.285527,0 -0.571062,-0.122375 -0.815801,-0.326325 0.04083,0.08155 0.08156,0.163162 0.122374,0.20395 l 0.244738,0.244748 c 0.163162,0.163162 0.367112,0.244739 0.571063,0.244739 0.285525,0 0.61185,-0.163163 1.019749,-0.448689 l 0.367112,-0.244748 c 0.08156,-0.08156 0.163162,-0.163152 0.163162,-0.285526 0,-0.04083 0,-0.08155 -0.04083,-0.08155 -0.04083,-0.08156 -0.244737,-0.20395 -0.652637,-0.326324 -0.367112,-0.163162 -0.652638,-0.244739 -0.8158,-0.244739 -0.122374,0 -0.326324,0.08156 -0.611849,0.244739 -0.244739,0.163162 -0.407901,0.326324 -0.407901,0.489475 0,0 0.04083,0.04083 0.08156,0.122374 0.244748,0.20395 0.489486,0.326324 0.734224,0.326324 0.326324,0 0.734224,-0.163162 1.264488,-0.571061 v 0.08155 c 0.04082,0 0.04082,0.04083 0.04082,0.04083 m 0.938164,8.239593 c 0.163162,0.306737 0.448698,0.460927 0.775012,0.460927 0.08156,0 0.163162,-0.01225 0.244737,-0.03675 0.08156,-0.01633 0.163162,-0.04491 0.203961,-0.07747 0.04083,-0.02858 0.08155,-0.05706 0.122364,-0.08972 0.08156,-0.02858 0.08156,-0.049 0.122374,-0.06931 l 0.693425,-0.599611 c 0.163162,-0.130121 0.326324,-0.243921 0.530274,-0.342635 0.163162,-0.09789 0.326324,-0.163162 0.4079,-0.199866 0.122374,-0.03267 0.20395,-0.08156 0.285525,-0.146851 0.04083,-0.06114 0.08156,-0.138686 0.08156,-0.236583 0,-0.118291 -0.08156,-0.208023 -0.163162,-0.273287 -0.08156,-0.06522 -0.163162,-0.110136 -0.244738,-0.138686 -0.08156,-0.02858 -0.163162,-0.0938 -0.285536,-0.203949 -0.08156,-0.106064 -0.163162,-0.252904 -0.20395,-0.444615 l -0.04083,-0.236583 c -0.04082,-0.110136 -0.04082,-0.191712 -0.08155,-0.236583 0,-0.01225 0,-0.01633 -0.04083,-0.01633 -0.04083,0 -0.122363,0.03675 -0.163151,0.106052 -0.08156,0.06931 -0.163162,0.146841 -0.244749,0.228417 -0.04083,0.08156 -0.163151,0.155006 -0.244737,0.224354 -0.122365,0.06931 -0.244738,0.106052 -0.326315,0.106052 -0.326324,0 -0.489485,-0.08972 -0.611859,-0.265141 -0.08156,-0.13053 -0.122364,-0.281444 -0.163152,-0.452771 -0.08156,-0.06931 -0.122375,-0.106053 -0.20395,-0.106053 -0.20395,0 -0.285536,0.212116 -0.285536,0.64041 v 1.26857 c 0,0.03675 -0.04082,0.118291 -0.04082,0.244738 -0.04083,0.126447 -0.04083,0.270031 -0.04083,0.432377 l -0.08156,0.452771 v 0.0074 m -5.914547,-0.215781 c 0.379339,0.05548 0.815799,0.174175 1.309358,0.355281 0.493559,0.179474 0.795406,0.273298 0.905541,0.273298 0.285527,0 0.522108,-0.126456 0.717903,-0.370786 0.04083,-0.07914 0.04083,-0.172134 0.04083,-0.279004 0,-0.385463 -0.2325,-0.872909 -0.697508,-1.464364 l -0.277371,-0.371185 c -0.05706,-0.07747 -0.126458,-0.195795 -0.216188,-0.354873 -0.08564,-0.159079 -0.163162,-0.281453 -0.224344,-0.367112 -0.05308,-0.0938 -0.138686,-0.187639 -0.248821,-0.281453 -0.106053,-0.0938 -0.228427,-0.154996 -0.363029,-0.187629 -0.171317,0.03266 -0.289609,0.08972 -0.346718,0.167235 -0.05716,0.07747 -0.08972,0.163162 -0.09789,0.252893 -0.01225,0.08564 -0.03675,0.142768 -0.07747,0.171328 -0.04083,0.02449 -0.110136,0.0448 -0.20395,0.06522 -0.02042,0 -0.05706,0 -0.110136,0.0042 h -0.110125 c -0.216188,0 -0.363039,0.0245 -0.440531,0.06522 -0.10197,0.118291 -0.155007,0.252903 -0.155007,0.395661 0,0.06522 0.01633,0.175401 0.04889,0.330397 0.03266,0.150924 0.049,0.273298 0.049,0.358957 0,0.167244 -0.049,0.334479 -0.150923,0.501714 -0.101969,0.1754 -0.155006,0.305929 -0.155006,0.398927 0.04083,0.158273 0.310013,0.269623 0.803572,0.334888 m 1.358301,-3.707814 c 0,-0.281453 0.07339,-0.591456 0.224344,-0.958567 0.146851,-0.367112 0.293691,-0.61185 0.436459,-0.775012 -0.0084,-0.04083 -0.02858,-0.04083 -0.06114,-0.04083 l -0.04082,-0.04083 c -0.118292,0.122374 -0.261049,0.4079 -0.432367,0.815799 -0.171328,0.367112 -0.261059,0.705665 -0.261059,0.954485 0,0.183557 0.04491,0.342635 0.126446,0.481321 0.08972,0.134612 0.305931,0.330407 0.648566,0.579227 l 0.432366,0.281443 c 0.460937,0.399745 0.705675,0.677115 0.705675,0.840277 0,0.08564 -0.04083,0.171318 -0.163162,0.265143 -0.08156,0.09789 -0.191712,0.14684 -0.285526,0.14684 -0.0084,0 -0.01225,0.0084 -0.01225,0.02858 0,0.0042 0.04083,0.08564 0.126447,0.244737 0.171317,0.23251 0.538429,0.346719 1.027905,0.346719 0.897386,0 1.590811,-0.367112 2.121085,-1.101326 0,-0.20395 0,-0.330407 -0.04083,-0.383433 v -0.150924 c 0,-0.265132 0.04083,-0.464999 0.122364,-0.595528 0.08156,-0.13053 0.163162,-0.191712 0.285536,-0.191712 0.08156,0 0.163162,0.02858 0.244738,0.08972 0.04083,-0.314075 0.04083,-0.587373 0.04083,-0.832111 0,-0.371195 0,-0.677114 -0.08156,-0.96265 -0.04082,-0.244738 -0.122374,-0.448688 -0.20395,-0.61185 L 19.26738,14.415839 c -0.08156,-0.122364 -0.122374,-0.244738 -0.20395,-0.367102 -0.04083,-0.163162 -0.08156,-0.285536 -0.08156,-0.489486 -0.122364,-0.20395 -0.20395,-0.4079 -0.326325,-0.61185 -0.08156,-0.20395 -0.163151,-0.4079 -0.244737,-0.571062 l -0.367112,0.285537 c -0.4079,0.285525 -0.734213,0.407899 -1.01975,0.407899 -0.244737,0 -0.448687,-0.04083 -0.571061,-0.203949 l -0.244738,-0.20395 c 0,0.122363 -0.04083,0.285525 -0.122364,0.448687 l -0.256987,0.489477 c -0.114208,0.285535 -0.17539,0.448697 -0.187629,0.571061 -0.01633,0.08155 -0.02858,0.163162 -0.03675,0.163162 l -0.30592,0.61185 c -0.330396,0.61185 -0.497641,1.178828 -0.497641,1.647921 0,0.0938 0.0084,0.191711 0.02449,0.289608 -0.183556,-0.126446 -0.273298,-0.301846 -0.273298,-0.530274 m 2.920574,3.858738 c -0.530274,0 -0.938174,0.07182 -1.22371,0.214147 v -0.01225 c -0.20395,0.244749 -0.432366,0.371194 -0.750535,0.371194 -0.199866,0 -0.513952,-0.07747 -0.938163,-0.232509 -0.428304,-0.146841 -0.807644,-0.259415 -1.138051,-0.333663 -0.03266,-0.0094 -0.106053,-0.02324 -0.224344,-0.04198 -0.114209,-0.01832 -0.220261,-0.03706 -0.314086,-0.05591 -0.08564,-0.01832 -0.183546,-0.04606 -0.289609,-0.08365 -0.101969,-0.03225 -0.183555,-0.07423 -0.244738,-0.125221 -0.05633,-0.05141 -0.08407,-0.109319 -0.08407,-0.174176 0,-0.06522 0.01382,-0.13501 0.04156,-0.209247 0.02607,-0.04491 0.05465,-0.08973 0.08323,-0.130529 0.02858,-0.04491 0.05308,-0.08564 0.06931,-0.126447 0.02449,-0.03675 0.04082,-0.07339 0.05716,-0.114219 0.01633,-0.03675 0.03266,-0.07339 0.04082,-0.118291 0.0084,-0.04083 0.01633,-0.08155 0.01633,-0.122364 0,-0.04083 -0.01633,-0.163162 -0.049,-0.37935 -0.03266,-0.212105 -0.049,-0.346718 -0.049,-0.403827 0,-0.179473 0.04083,-0.322241 0.130529,-0.424211 0.08972,-0.10197 0.175401,-0.155007 0.265143,-0.155007 h 0.469081 c 0.03675,0 0.0938,-0.02042 0.179473,-0.06931 0.02858,-0.06522 0.05308,-0.118291 0.06931,-0.167244 0.02042,-0.049 0.02858,-0.08564 0.03675,-0.10197 0.0084,-0.0245 0.01633,-0.049 0.02449,-0.06931 0.01633,-0.02858 0.03675,-0.06114 0.06522,-0.0938 -0.03266,-0.04083 -0.049,-0.0938 -0.049,-0.159079 0,-0.04491 0,-0.08564 0.0084,-0.110136 0,-0.14684 0.06931,-0.354873 0.216188,-0.628161 l 0.142758,-0.256987 c 0.118291,-0.22026 0.208033,-0.383422 0.273298,-0.546585 0.06931,-0.163162 0.142768,-0.407899 0.224343,-0.734213 0.06522,-0.285536 0.220272,-0.571061 0.46501,-0.856598 l 0.30592,-0.367112 c 0.212115,-0.244737 0.350801,-0.448687 0.428304,-0.611849 0.07747,-0.163152 0.118291,-0.367112 0.118291,-0.530264 0,-0.08156 -0.02042,-0.326324 -0.06522,-0.734223 -0.04083,-0.407901 -0.06114,-0.815801 -0.06114,-1.182913 0,-0.285525 0.02449,-0.4894747 0.07747,-0.6934246 0.05308,-0.2039499 0.14684,-0.4079102 0.285536,-0.5710618 0.122364,-0.1631621 0.285526,-0.326324 0.530263,-0.4078998 0.244738,-0.081555 0.530274,-0.1223742 0.856598,-0.1223742 0.122364,0 0.244738,0 0.367102,0.04083 0.122374,0 0.285536,0.04083 0.489486,0.1223741 0.163162,0.081555 0.326314,0.1631621 0.448687,0.2855257 0.163162,0.1223742 0.285537,0.326324 0.407901,0.5302739 0.08155,0.2447378 0.163161,0.4894747 0.20395,0.8157987 0.04083,0.20395 0.04083,0.4079 0.08155,0.693436 0,0.244738 0.04083,0.4079 0.04083,0.530264 0.04083,0.122374 0.04083,0.285536 0.08156,0.489486 0.04083,0.163151 0.08156,0.326313 0.163162,0.448687 0.08156,0.163162 0.163162,0.326325 0.285526,0.489477 0.122374,0.20395 0.285536,0.4079 0.448698,0.652647 0.367112,0.4079 0.652637,0.856588 0.815799,1.305276 0.20395,0.4079 0.326314,0.938174 0.326314,1.505152 0,0.281454 -0.04082,0.554751 -0.122364,0.819883 0.08156,0 0.122364,0.03267 0.163162,0.08972 0.04083,0.05706 0.08156,0.179473 0.122364,0.371184 l 0.04083,0.301848 c 0.04083,0.08972 0.08156,0.1754 0.203961,0.24882 0.08156,0.07339 0.163151,0.134603 0.285525,0.183556 0.08156,0.04083 0.20395,0.09789 0.285526,0.171317 0.08156,0.08156 0.122374,0.167235 0.122374,0.256977 0,0.138685 -0.04083,0.240655 -0.122374,0.314085 -0.08156,0.08156 -0.163152,0.138685 -0.285526,0.175391 -0.08156,0.04083 -0.244738,0.122374 -0.489486,0.237399 -0.20395,0.12074 -0.4079,0.267173 -0.61185,0.440532 l -0.4079,0.347126 c -0.163151,0.15908 -0.326313,0.273298 -0.448687,0.342635 -0.122374,0.07338 -0.285527,0.110136 -0.448689,0.110136 l -0.285588,-0.03264 c -0.326314,-0.08564 -0.530264,-0.24882 -0.652638,-0.497642 -0.652638,-0.07914 -1.182912,-0.11829 -1.509225,-0.11829"
     id="path1-9"
     style="fill:#ffecb3;fill-opacity:1;stroke-width:0.0407901" /></svg>
