<svg enable-background="new 0 0 24 24" viewBox="0 0 24 24" xmlns="http://www.w3.org/2000/svg">
  <path d="m10 4h-6c-1.1 0-2 .9-2 2v12c0 1.1.9 2 2 2h16c1.1 0 2-.9 2-2v-10c0-1.1-.9-2-2-2h-8z" fill="#e53935" />
  <path d="m14.814911 17.428147c-.193529-1.960131-.350764-3.588841-.349406-3.619346.0014-.03047-.163735-.0554-.366859-.0554h-.369321v-1.403401h2.880675v-2.7242975l1.359244-.8168244c.827791-.497474 1.436524-.8168244 1.556803-.8168244.29053 0 .629375.3671207.629375.6819024 0 .1375513-.04155.3066033-.09233.375684-.05078.069079-.524427.3846469-1.052589.7012589l-.960201.575663-.02055 1.011697-.02055 1.011697h2.884815v1.403404h-.711549l-.359472 3.619346-.359472 3.619348h-4.296791l-.351867-3.563929z" fill="#ffcdd2" stroke-width=".726324" />
</svg>
