<svg xmlns="http://www.w3.org/2000/svg" xml:space="preserve" style="fill-rule:evenodd;clip-rule:evenodd;stroke-linejoin:round;stroke-miterlimit:2" viewBox="0 0 24 24"><path d="M19 20H4c-1.097 0-2-.903-2-2V6c0-1.11.89-2 2-2h6l2 2h7c1.097 0 2 .903 2 2H4v10l2.14-8h17.07l-2.28 8.5c-.23.87-1.01 1.5-1.93 1.5Z" style="fill:#616161;fill-rule:nonzero"/><path d="M16.842 16.114a.843.843 0 1 0-.138-1.677.841.841 0 0 0 .083 1.679l.055-.002Zm.972-.012a1.77 1.77 0 0 1-.651.458l-.003.006c.189.732.484 1.431.876 2.075a3.177 3.177 0 0 1-1.101.352L16.88 19l-.064.005-.13.01c-.08 0-.158.007-.242.002a3.301 3.301 0 0 1-.964-.166 3.415 3.415 0 0 1-1.075-.583c-.084-.064-.15-.129-.208-.179a9.145 9.145 0 0 1-.17-.171c-.056-.058.051.071.147.193.05.059.108.133.184.209.183.194.387.366.609.513a3.645 3.645 0 0 0 1.442.565c.09.017.186.023.28.035l.13.008.065.004.075.001c.49.005.977-.088 1.432-.273.109.151.224.297.344.438l-.017.01-.143.09-.02.012-.005.004h-.001l.025-.012-.003.001-.01.006-.044.022-.091.047-.048.025-.025.012-.013.007-.005.002.017-.006-.007.002-.107.048-.112.049-.014.007-.002.001.012-.005-.004.002-.008.003-.029.012-.061.024a4.365 4.365 0 0 1-1.718.292l-.076-.003-.086-.006-.173-.015c-.107-.017-.214-.024-.325-.048a4.465 4.465 0 0 1-1.522-.58c-.089-.052-.172-.11-.253-.165a4.578 4.578 0 0 1-.773-.679c-.097-.102-.171-.202-.237-.28-.063-.081-.107-.148-.139-.192l-.049-.068.042.073c.028.047.065.119.12.206.057.085.122.193.21.306.21.284.451.544.719.775.078.066.157.135.245.197a4.868 4.868 0 0 0 1.55.779c.114.037.238.061.358.091l.171.032.085.016.095.014a4.924 4.924 0 0 0 1.959-.133l.063-.018.03-.008.043-.013.116-.039.111-.036.12-.046.096-.038.045-.018.012-.004.002-.001.056-.028.152-.074.189-.093c.129.125.261.246.399.361 0 0 .656.682 1.018.401.34-.263-.052-1.09-.052-1.09a7.662 7.662 0 0 0-2.809-3.74Zm-2.29-1.121-.003-.004a7.514 7.514 0 0 0-2.194-.312 3.24 3.24 0 0 1 .291-1.177l.023-.051.03-.058.06-.116c.043-.068.078-.139.126-.207a3.41 3.41 0 0 1 1.71-1.349c.099-.038.188-.061.261-.083.147-.038.234-.056.234-.056s-.087.006-.24.023c-.076.013-.169.023-.274.047-.26.054-.513.138-.754.25a3.662 3.662 0 0 0-1.238.935c-.063.068-.119.147-.178.222l-.076.107-.037.053-.041.064c-.271.43-.454.911-.538 1.415l-.002.013c-.181.017-.362.04-.541.07v-.095l.001-.171v-.03l-.003.028v-.003l.002-.012.004-.049.009-.104.004-.054.003-.027.001-.015v-.003l.001-.002c0-.005-.006.035-.004.017l.002-.007.016-.116.018-.122.002-.016v-.002l-.002.012.001-.004.001-.008.006-.032.012-.064a4.43 4.43 0 0 1 .665-1.626l.043-.063.051-.07.103-.141c.071-.083.134-.171.213-.252a4.485 4.485 0 0 1 1.294-.996c.09-.049.182-.089.272-.129.314-.138.643-.239.98-.302.138-.029.261-.04.361-.054.101-.012.181-.013.235-.018l.084-.006-.084-.003c-.054-.001-.135-.007-.236-.006-.103.004-.227.002-.369.017a4.48 4.48 0 0 0-1.032.205c-.097.032-.197.064-.296.105a4.76 4.76 0 0 0-1.475.914c-.093.078-.178.172-.267.258l-.117.13-.058.065-.062.073a4.997 4.997 0 0 0-.927 1.748l-.018.062-.009.031-.012.044-.029.12-.028.114-.025.127-.019.102-.01.049-.002.012v.002l-.003.033-.001.006-.003.024-.018.168-.032.302a7.569 7.569 0 0 0-.519.161s-.917.217-.865.674c.049.43.953.517.953.517a7.532 7.532 0 0 0 4.624-.504 1.804 1.804 0 0 1-.055-.8Zm6.459-.496a4.819 4.819 0 0 0-.113-.717c-.023-.119-.065-.239-.097-.36l-.056-.166-.028-.082-.035-.09a4.98 4.98 0 0 0-1.077-1.657l-.069-.069-.033-.031-.09-.083-.085-.08-.099-.083-.08-.066-.037-.031-.012-.01-.027-.018-.024-.017-.138-.096-.187-.13c.049-.193.089-.388.122-.585.033-.197.256-.915-.165-1.09-.397-.165-.91.591-.91.591a7.7 7.7 0 0 0-1.799 4.328c.262.056.508.172.719.339l.006-.001a7.645 7.645 0 0 0 1.305-1.738c.336.213.629.487.866.809l.032.044.037.054.072.11c.039.07.084.135.121.211a3.464 3.464 0 0 1 .355 2.16c-.014.106-.037.196-.052.271-.038.149-.064.233-.064.233s.037-.079.095-.223c.025-.073.061-.161.089-.265.036-.117.065-.235.088-.355a3.728 3.728 0 0 0-.165-1.977c-.029-.088-.072-.176-.108-.264l-.057-.118-.029-.059-.035-.066a3.735 3.735 0 0 0-.96-1.142c.078-.174.148-.351.213-.53l.028.015.149.082.02.012.006.003-.023-.016.003.002.05.034.086.058.044.03.024.015.016.011-.014-.011.006.004.093.071.098.074.012.009.002.001-.009-.007.01.007.024.021.051.041c.452.377.826.841 1.097 1.367l.035.068.109.238c.038.102.084.2.117.309a4.544 4.544 0 0 1 .248 1.623c0 .104-.01.205-.017.304a4.725 4.725 0 0 1-.207 1.012c-.04.136-.09.25-.126.346-.038.095-.074.167-.096.217l-.035.077.043-.073c.026-.047.07-.115.118-.207.046-.091.107-.201.161-.335a4.59 4.59 0 0 0 .315-1.012c.019-.101.039-.205.05-.313a4.84 4.84 0 0 0 .023-1.028Z" style="fill:#f5f5f5;fill-rule:nonzero"/></svg>
