<svg xmlns="http://www.w3.org/2000/svg" viewBox="0 0 24 24" version="1.1"><path d="m19 20h-15c-1.11 0-2-.9-2-2v-12c0-1.11.89-2 2-2h6l2 2h7c1.097 0 2 .903 2 2h-17v10l2.14-8h17.07l-2.28 8.5c-.23.87-1.01 1.5-1.93 1.5z" fill="#8bc34a" /><path d="m 17.15 8.53 -5.49 3.17 c -0.21 0.12 -0.33 0.34 -0.33 0.57 v 6.34 c 0 0.24 0.13 0.46 0.33 0.57 L 17.15 22.36 c 0.21 0.12 0.46 0.12 0.66 0 l 5.49 -3.17 c 0.2 -0.12 0.33 -0.34 0.33 -0.57 v -6.34 c 0 -0.24 -0.13 -0.46 -0.33 -0.57 L 17.81 8.53 C 17.71 8.47 17.59 8.44 17.48 8.44 c -0.11 0 -0.23 0.03 -0.33 0.09" fill="#dcedc8" /></svg>
