<svg xmlns="http://www.w3.org/2000/svg" viewBox="0 0 32 32">
  <path d="M13.84376,7.53645l-1.28749-1.0729A2,2,0,0,0,11.27591,6H4A2,2,0,0,0,2,8V24a2,2,0,0,0,2,2H28a2,2,0,0,0,2-2V10a2,2,0,0,0-2-2H15.12412A2,2,0,0,1,13.84376,7.53645Z" style="fill: #546e7a"/>
  <path d="M30.63919,27.49871c-.81845,1.24-1.68639,2.44979-3.00757,2.4699-1.3215.02991-1.7454-.79006-3.24435-.79006-1.50862,0-1.97217.77012-3.22452.82013-1.29167.04985-2.26808-1.31994-3.09622-2.52988-1.6864-2.46991-2.97807-7.01959-1.24252-10.07935a4.8078,4.8078,0,0,1,4.06281-2.50978c1.262-.0201,2.46521.87,3.24418.87.76914,0,2.2286-1.07005,3.757-.91a4.5627,4.5627,0,0,1,3.58926,1.97991,4.56927,4.56927,0,0,0-2.12013,3.80979A4.414,4.414,0,0,0,32,24.66907,11.12133,11.12133,0,0,1,30.63919,27.49871ZM25.00845,11.49989A4.46219,4.46219,0,0,1,27.90755,10,4.4157,4.4157,0,0,1,26.882,13.18986a3.5825,3.5825,0,0,1-2.90907,1.41981A4.31224,4.31224,0,0,1,25.00845,11.49989Z" style="fill: #cfd8dc"/>
</svg>
