<?xml version="1.0" encoding="UTF-8" standalone="no"?>
<!-- Created with Inkscape (http://www.inkscape.org/) -->

<svg
   width="210mm"
   height="297mm"
   viewBox="0 0 210 297"
   version="1.1"
   id="svg1"
   xml:space="preserve"
   inkscape:version="1.4.2 (f4327f4, 2025-05-13)"
   sodipodi:docname="1drawing.svg"
   xmlns:inkscape="http://www.inkscape.org/namespaces/inkscape"
   xmlns:sodipodi="http://sodipodi.sourceforge.net/DTD/sodipodi-0.dtd"
   xmlns="http://www.w3.org/2000/svg"
   xmlns:svg="http://www.w3.org/2000/svg"><sodipodi:namedview
     id="namedview1"
     pagecolor="#505050"
     bordercolor="#eeeeee"
     borderopacity="1"
     inkscape:showpageshadow="0"
     inkscape:pageopacity="0"
     inkscape:pagecheckerboard="0"
     inkscape:deskcolor="#505050"
     inkscape:document-units="mm"
     inkscape:zoom="11.588215"
     inkscape:cx="407.22405"
     inkscape:cy="557.89436"
     inkscape:window-width="1920"
     inkscape:window-height="1094"
     inkscape:window-x="-11"
     inkscape:window-y="-11"
     inkscape:window-maximized="1"
     inkscape:current-layer="layer1" /><defs
     id="defs1"><clipPath
       id="clip0_0_1"><rect
         width="12"
         height="12"
         fill="white"
         transform="translate(18 14)"
         id="rect37" /></clipPath><clipPath
       id="clip0_0_1-4"><rect
         width="12"
         height="12"
         fill="white"
         transform="translate(19 16)"
         id="rect37-8" /></clipPath></defs><g
     inkscape:label="Layer 1"
     inkscape:groupmode="layer"
     id="layer1"><g
       style="fill:none"
       id="g39"
       transform="matrix(0.26458333,0,0,0.26458333,104.94872,143.88812)"><path
         id="rect1"
         d="M -3.2952756e-4,9.6316438e-4 V 32.000964 H 31.999671 V 9.6316438e-4 Z M 17.564124,3.1298695 c 0.705713,0.042482 0.710761,0.8037537 -0.08789,0.8632812 -0.190223,0.015874 -0.380202,0.027851 -0.570312,0.042969 -1.201323,0.079748 -2.403076,0.1243664 -3.607422,0.1054687 -0.854173,-0.013946 -0.854136,-0.8783994 0,-0.8632812 1.185184,0.019276 2.368545,-0.024523 3.550781,-0.1035157 0.187918,-0.015496 0.376611,-0.027851 0.564453,-0.042969 0.05325,-0.00397 0.103373,-0.00479 0.150391,-0.00195 z" /><path
         d="M 28.967,12 H 9.442 C 9.02207,11.9999 8.61276,12.132 8.2721,12.3775 7.93143,12.6231 7.6767,12.9696 7.544,13.368 L 4,24 V 10 H 28 C 28,9.46957 27.7893,8.96086 27.4142,8.58579 27.0391,8.21071 26.5304,8 26,8 H 15.124 C 14.6562,7.99979 14.2033,7.8356 13.844,7.536 L 12.556,6.464 C 12.1967,6.1644 11.7438,6.00021 11.276,6 H 4 C 3.46957,6 2.96086,6.21071 2.58579,6.58579 2.21071,6.96086 2,7.46957 2,8 v 16 c 0,0.5304 0.21071,1.0391 0.58579,1.4142 C 2.96086,25.7893 3.46957,26 4,26 h 22 l 4.805,-11.212 c 0.1304,-0.3042 0.1833,-0.636 0.1539,-0.9656 C 30.9295,13.4927 30.8187,13.1755 30.6366,12.8992 30.4544,12.6229 30.2065,12.3961 29.9151,12.2391 29.6237,12.0822 29.298,12 28.967,12 Z"
         fill="#f4511e"
         id="path1" /><g
         clip-path="url(#clip0_0_1-4)"
         id="g37"><path
           d="m 21.4215,16.0866 c 0.0305,-6e-4 0.0305,-6e-4 0.0616,-0.0012 0.0219,-10e-5 0.0438,-2e-4 0.0664,-3e-4 0.0225,-3e-4 0.0451,-5e-4 0.0684,-7e-4 0.0477,-3e-4 0.0954,-5e-4 0.1432,-6e-4 0.073,-3e-4 0.146,-0.0015 0.2191,-0.0026 0.0464,-3e-4 0.0927,-4e-4 0.1391,-5e-4 0.0219,-5e-4 0.0437,-0.001 0.0662,-0.0014 0.1512,0.001 0.1512,0.001 0.2259,0.0685 0.0427,0.0794 0.0591,0.1517 0.0749,0.2404 0.003,0.0154 0.0059,0.0309 0.0089,0.0468 0.0138,0.0756 0.0204,0.1441 0.0204,0.2212 0.0238,0.0068 0.0238,0.0068 0.048,0.0138 0.0209,0.0061 0.0418,0.0122 0.0634,0.0185 0.0206,0.006 0.0413,0.0119 0.0626,0.0181 0.0604,0.02 0.0604,0.02 0.1076,0.0472 0.0658,0.0277 0.0964,0.0193 0.1637,-0.0038 0.0649,-0.0434 0.1265,-0.0888 0.1877,-0.1371 0.0652,-0.0484 0.1174,-0.0739 0.197,-0.0906 0.1241,0.0247 0.1842,0.0928 0.2716,0.1808 0.02,0.0195 0.04,0.0389 0.0606,0.0589 0.0658,0.0644 0.1308,0.1294 0.1957,0.1945 0.0227,0.0226 0.0454,0.0452 0.068,0.0677 0.0319,0.032 0.0319,0.032 0.0645,0.0646 0.0193,0.0194 0.0386,0.0387 0.0585,0.0586 0.0524,0.056 0.0664,0.0813 0.0772,0.157 -0.014,0.1238 -0.0882,0.2025 -0.162,0.2995 -0.0674,0.0924 -0.0674,0.0924 -0.0798,0.2041 0.0212,0.0647 0.0435,0.1274 0.0703,0.19 0.0454,0.1067 0.0454,0.1067 0.0454,0.1582 0.0209,0.0014 0.0209,0.0014 0.0422,0.0027 0.3574,0.0283 0.3574,0.0283 0.4883,0.1171 0.0496,0.0686 0.0387,0.1297 0.0364,0.2128 -9e-4,0.0447 -9e-4,0.0447 -0.0019,0.0903 -8e-4,0.0229 -0.0016,0.0458 -0.0025,0.0693 0.2622,0.0532 0.5731,0.0909 0.8088,-0.0614 0.2958,-0.2281 0.5445,-0.5217 0.785,-0.8058 -0.0072,-0.018 -0.0144,-0.0359 -0.0218,-0.0545 -0.0927,-0.2318 -0.1224,-0.5127 -0.0383,-0.754 0.1082,-0.2213 0.2959,-0.3913 0.5223,-0.4829 0.2067,-0.0567 0.4654,-0.0511 0.6596,0.0432 0.2057,0.1211 0.3568,0.274 0.4485,0.4982 0,0.031 0,0.0619 0,0.0938 0.495,0 0.99,0 1.5,0 0.0077,-0.0464 0.0155,-0.0928 0.0234,-0.1406 0.1042,-0.2332 0.2782,-0.3994 0.5157,-0.4922 0.1953,-0.0659 0.4881,-0.0532 0.6732,0.0361 0.2141,0.1373 0.3902,0.3218 0.4518,0.5733 0.0532,0.2554 0.0015,0.5085 -0.1407,0.7265 -0.1202,0.158 -0.3173,0.2947 -0.5156,0.3281 -0.2975,0.0216 -0.5385,-0.0154 -0.7732,-0.211 -0.1071,-0.1064 -0.1861,-0.2319 -0.2346,-0.3749 0,-0.0309 0,-0.0619 0,-0.0937 -0.4873,0.0077 -0.9745,0.0154 -1.4766,0.0234 -0.0386,0.0928 -0.0773,0.1856 -0.1172,0.2812 -0.139,0.1904 -0.3237,0.3335 -0.5625,0.375 -0.1941,0.014 -0.3613,0.0151 -0.5378,-0.0755 -0.0598,-0.0226 -0.0821,-0.0158 -0.1418,0.0052 -0.0403,0.0302 -0.0403,0.0302 -0.0774,0.0694 -0.0145,0.0145 -0.0291,0.0291 -0.044,0.0441 -0.0154,0.0157 -0.0309,0.0315 -0.0467,0.0478 -0.016,0.0161 -0.032,0.0321 -0.0485,0.0487 -0.051,0.0515 -0.1018,0.1031 -0.1526,0.1548 -0.0345,0.0349 -0.0691,0.0698 -0.1037,0.1047 -0.0848,0.0855 -0.1693,0.1712 -0.2537,0.2571 0.0308,0.0681 0.0638,0.1164 0.1167,0.1689 0.0141,0.0141 0.0282,0.0282 0.0427,0.0427 0.0151,0.0149 0.0303,0.0298 0.0459,0.0451 0.0155,0.0155 0.031,0.031 0.047,0.0469 0.0496,0.0493 0.0993,0.0984 0.1491,0.1476 0.0336,0.0334 0.0673,0.0669 0.1009,0.1003 0.0825,0.0819 0.165,0.1637 0.2477,0.2454 0.0143,-0.0049 0.0286,-0.0097 0.0434,-0.0147 0.0189,-0.0064 0.0377,-0.0128 0.0572,-0.0193 0.0186,-0.0063 0.0373,-0.0126 0.0566,-0.0191 0.2571,-0.0823 0.4918,-0.0781 0.7378,0.0326 0.2018,0.1098 0.3407,0.272 0.4175,0.4892 0,0.031 0,0.0619 0,0.0938 0.495,0 0.99,0 1.5,0 0.0077,-0.0464 0.0155,-0.0928 0.0234,-0.1407 0.0941,-0.2143 0.252,-0.3847 0.4673,-0.479 0.2493,-0.0865 0.4919,-0.0724 0.7324,0.0367 0.2035,0.1108 0.339,0.2717 0.4175,0.4892 0.0636,0.2244 0.0573,0.4456 -0.0381,0.6607 -0.1327,0.233 -0.3153,0.3726 -0.5701,0.4558 -0.2477,0.0439 -0.4777,0.0102 -0.6918,-0.1206 -0.1622,-0.1162 -0.2764,-0.2674 -0.3406,-0.4568 0,-0.031 0,-0.0619 0,-0.0938 -0.495,0 -0.99,0 -1.5,0 -0.0077,0.0542 -0.0155,0.1083 -0.0234,0.1641 -0.0985,0.229 -0.2625,0.3809 -0.4904,0.4752 -0.2183,0.0763 -0.4583,0.0655 -0.6707,-0.0239 C 26.3563,21.0361 26.1906,20.8757 26.103,20.6641 26.0395,20.438 26.0435,20.168 26.156,19.9605 26.1776,19.914 26.1776,19.914 26.1536,19.8695 25.9748,19.5619 25.5649,19.085 25.217,18.9838 25.0062,18.9409 24.7881,18.9608 24.5781,19 c 0.0021,0.0364 0.0021,0.0364 0.0042,0.0736 0.0011,0.0321 0.0021,0.0642 0.0032,0.0963 0.0014,0.024 0.0014,0.024 0.0029,0.0485 0.0022,0.088 -0.0024,0.1248 -0.0636,0.1899 -0.0552,0.032 -0.0929,0.0512 -0.1549,0.0615 -0.0243,0.0044 -0.0243,0.0044 -0.0491,0.0087 -0.0166,0.0026 -0.0332,0.0052 -0.0503,0.0078 -0.0168,0.003 -0.0335,0.0059 -0.0508,0.0089 -0.0688,0.0117 -0.1341,0.0204 -0.2041,0.0204 -0.0045,0.0139 -0.009,0.0278 -0.0137,0.042 -0.0061,0.0186 -0.0122,0.0371 -0.0185,0.0562 -0.0063,0.0193 -0.0127,0.0386 -0.0192,0.0585 -0.0189,0.0543 -0.0189,0.0543 -0.0482,0.1187 -0.023,0.0692 -0.0152,0.0997 0.0059,0.1699 0.0442,0.0696 0.0902,0.1365 0.1391,0.2028 0.0535,0.0774 0.0717,0.1144 0.0725,0.2113 -0.0265,0.086 -0.0532,0.1223 -0.1193,0.1821 -0.0172,0.0159 -0.0344,0.0319 -0.0521,0.0483 -0.0133,0.0116 -0.0266,0.0232 -0.0402,0.0352 0.0193,0.0215 0.0386,0.043 0.0586,0.0651 0.0617,0.0718 0.1155,0.1464 0.1684,0.2248 0.112,0.1639 0.2327,0.3184 0.3618,0.4689 0.0176,0.0205 0.0176,0.0205 0.0356,0.0414 0.3428,0.3926 0.6833,0.5783 1.2072,0.614 0.6075,0.0317 1.2191,-0.0026 1.8246,-0.0548 0.0035,-0.0221 0.0069,-0.0442 0.0104,-0.067 0.0342,-0.1931 0.1654,-0.3541 0.3178,-0.4721 0.2498,-0.1412 0.4851,-0.1801 0.7631,-0.104 0.241,0.0813 0.4068,0.2309 0.5259,0.4556 0.0893,0.2248 0.0998,0.4727 0.0073,0.6987 -0.112,0.218 -0.2617,0.3824 -0.4933,0.4756 -0.2489,0.0753 -0.486,0.0669 -0.7183,-0.0553 -0.1976,-0.1229 -0.3418,-0.2858 -0.4129,-0.5096 0,-0.0232 0,-0.0464 0,-0.0703 -0.7347,0 -1.4695,0 -2.2265,0 -0.1916,1.412 -0.1916,1.412 0.3107,2.6831 0.1466,0.1674 0.3036,0.3214 0.4686,0.4707 0.0179,0.0163 0.0359,0.0326 0.0544,0.0495 0.1808,0.1634 0.3664,0.321 0.5604,0.4686 0.0206,0.0162 0.0206,0.0162 0.0417,0.0327 0.0611,0.045 0.0973,0.0695 0.1743,0.0657 0.0447,-0.0169 0.0884,-0.0366 0.1316,-0.057 0.1833,-0.0702 0.4311,-0.0631 0.6137,0.0044 0.2354,0.1124 0.404,0.2825 0.5039,0.5244 0.0663,0.1949 0.0531,0.4886 -0.0361,0.6733 -0.1481,0.2311 -0.3292,0.3876 -0.5967,0.4517 -0.2903,0.0255 -0.5233,-0.0085 -0.7544,-0.1948 -0.1749,-0.1628 -0.2776,-0.3597 -0.2879,-0.5998 -0.0021,-0.1545 0.0144,-0.2846 0.0866,-0.4237 0.0228,-0.0591 0.0153,-0.0819 -0.0052,-0.141 -0.0274,-0.0376 -0.0274,-0.0376 -0.0632,-0.0715 -0.0134,-0.0135 -0.0268,-0.0269 -0.0406,-0.0408 -0.0148,-0.0145 -0.0296,-0.029 -0.0448,-0.0439 -0.0155,-0.0155 -0.031,-0.031 -0.047,-0.0469 C 26.3703,26.1051 26.3187,26.0542 26.2671,26.0032 26.2314,25.9678 26.1958,25.9323 26.1602,25.8968 26.0663,25.8033 25.9723,25.7101 25.8781,25.6169 25.7275,25.4676 25.5771,25.318 25.4267,25.1683 25.374,25.116 25.3213,25.0638 25.2685,25.0115 25.2363,24.9796 25.2042,24.9477 25.172,24.9158 25.1573,24.9012 25.1425,24.8866 25.1272,24.8716 25.0261,24.7709 25.0261,24.7709 25,24.7187 c 0.004,-0.0711 0.0095,-0.1416 0.016,-0.2125 0.171,-1.4078 0.171,-1.4078 -0.2902,-2.6788 -0.1257,-0.1464 -0.2611,-0.2784 -0.4069,-0.4045 -0.0236,-0.0204 -0.0236,-0.0204 -0.0475,-0.0412 -0.1938,-0.1659 -0.3951,-0.3184 -0.6073,-0.4598 -0.0264,0.0224 -0.0528,0.0449 -0.0791,0.0674 -0.0147,0.0126 -0.0294,0.0251 -0.0445,0.038 -0.0299,0.026 -0.0589,0.053 -0.0874,0.0806 -0.0752,0.04 -0.1292,0.0198 -0.2109,0.0015 -0.074,-0.0392 -0.14,-0.0895 -0.2071,-0.1392 -0.0689,-0.048 -0.1095,-0.0721 -0.1945,-0.0695 -0.0623,0.0196 -0.1197,0.0412 -0.1785,0.0695 -0.095,0.0454 -0.095,0.0454 -0.1465,0.0454 -0.0025,0.0196 -0.0051,0.0391 -0.0077,0.0593 -0.057,0.4038 -0.057,0.4038 -0.1563,0.5032 -0.0605,0.0034 -0.1184,0.0044 -0.1787,0.003 -0.0166,-3e-4 -0.0332,-5e-4 -0.0502,-7e-4 -0.0409,-5e-4 -0.0818,-0.0014 -0.1227,-0.0023 -0.0431,0.2519 -0.0826,0.5674 0.0519,0.7991 0.0869,0.1208 0.1923,0.2227 0.3011,0.3235 0.0247,0.0229 0.0247,0.0229 0.0499,0.0464 0.1387,0.1278 0.2815,0.2506 0.425,0.3731 0.1242,0.1063 0.2465,0.2143 0.366,0.3261 0.0163,0.0152 0.0326,0.0304 0.0494,0.0461 0.2149,0.2058 0.3262,0.3788 0.3396,0.6805 0.001,0.1601 -0.0117,0.3173 -0.036,0.4755 0.019,0.0075 0.0379,0.015 0.0575,0.0227 0.0251,0.0102 0.0501,0.0203 0.076,0.0307 0.0371,0.0149 0.0371,0.0149 0.0751,0.03 0.2238,0.1041 0.3347,0.2789 0.4242,0.5026 0.0651,0.1994 0.039,0.4317 -0.0408,0.6219 -0.1132,0.2217 -0.288,0.3773 -0.5225,0.4633 -0.2314,0.0543 -0.494,0.0425 -0.7023,-0.0774 -0.2087,-0.1526 -0.3652,-0.337 -0.408,-0.5968 -0.0305,-0.247 0.0149,-0.4586 0.1502,-0.6688 0.1129,-0.1437 0.249,-0.2436 0.4218,-0.3047 0.031,0 0.0619,0 0.0938,0 0.0388,-0.2572 0.0725,-0.5658 -0.0776,-0.7943 -0.1548,-0.208 -0.3532,-0.3818 -0.545,-0.5547 -0.0789,-0.0718 -0.1558,-0.1456 -0.2328,-0.2193 -0.1506,-0.1434 -0.3031,-0.2843 -0.4571,-0.4239 -0.0674,0.0306 -0.1165,0.0635 -0.1693,0.1152 -0.0142,0.0138 -0.0283,0.0276 -0.0429,0.0418 -0.015,0.0148 -0.0299,0.0297 -0.0454,0.045 -0.0232,0.0229 -0.0232,0.0229 -0.047,0.0464 -0.0327,0.0323 -0.0654,0.0648 -0.0979,0.0973 -0.0501,0.0497 -0.1006,0.0991 -0.1511,0.1484 -0.0317,0.0315 -0.0634,0.063 -0.0951,0.0946 -0.0152,0.0147 -0.0304,0.0295 -0.0461,0.0447 -0.0137,0.0139 -0.0275,0.0278 -0.0417,0.0421 -0.0123,0.0122 -0.0245,0.0243 -0.0371,0.0368 -0.0286,0.0374 -0.0286,0.0374 -0.0165,0.0865 0.0109,0.0295 0.0224,0.0588 0.0343,0.0879 0.0848,0.2077 0.0851,0.4466 0.0146,0.6587 -0.0955,0.225 -0.2488,0.3881 -0.4717,0.4907 -0.0762,0.0264 -0.0762,0.0264 -0.1699,0.0264 0,0.495 0,0.99 0,1.5 0.0541,0.0077 0.1083,0.0155 0.164,0.0234 0.2291,0.0985 0.3809,0.2625 0.4752,0.4904 0.0748,0.2139 0.0738,0.4711 -0.0239,0.6767 -0.1184,0.2081 -0.2889,0.3964 -0.5268,0.4633 -0.2324,0.0366 -0.4937,0.0474 -0.6979,-0.0835 -0.1932,-0.1451 -0.334,-0.3039 -0.3984,-0.5391 -0.0253,-0.2977 0.0022,-0.538 0.1945,-0.7777 0.1112,-0.1189 0.2385,-0.1995 0.3914,-0.2535 0.0232,0 0.0464,0 0.0703,0 0,-0.495 0,-0.99 0,-1.5 -0.0464,-0.0077 -0.0928,-0.0155 -0.1406,-0.0235 -0.2332,-0.1041 -0.3994,-0.2781 -0.4922,-0.5156 -0.0659,-0.1953 -0.0532,-0.4882 0.0362,-0.6733 0.1403,-0.2189 0.3205,-0.3824 0.5732,-0.4517 0.0656,-0.0056 0.1278,-0.0089 0.1933,-0.0088 0.0176,0 0.0351,-10e-5 0.0532,-2e-4 0.1274,0.0023 0.2266,0.0255 0.3399,0.0868 0.0464,0.0217 0.0464,0.0217 0.0909,-0.0023 0.3077,-0.1788 0.7845,-0.5887 0.8857,-0.9366 0.043,-0.2109 0.0231,-0.4289 -0.0162,-0.6389 -0.0339,0.0021 -0.0339,0.0021 -0.0684,0.0041 -0.0296,0.0011 -0.0593,0.0022 -0.0898,0.0032 -0.0293,0.0014 -0.0587,0.0028 -0.0889,0.0042 -0.081,-0.0115 -0.081,-0.0115 -0.1369,-0.0656 -0.0452,-0.0754 -0.0621,-0.1409 -0.0788,-0.2271 -0.0057,-0.0281 -0.0114,-0.0561 -0.0173,-0.085 -0.0102,-0.0673 -0.0146,-0.1284 -0.012,-0.1963 -0.0139,-0.0045 -0.0278,-0.009 -0.0421,-0.0137 -0.0185,-0.0061 -0.037,-0.0122 -0.0561,-0.0185 -0.0193,-0.0063 -0.0386,-0.0127 -0.0585,-0.0192 -0.0543,-0.0189 -0.0543,-0.0189 -0.1187,-0.0482 -0.0692,-0.023 -0.0997,-0.015 -0.17,0.0059 -0.0702,0.0435 -0.1376,0.0891 -0.2048,0.1371 -0.0628,0.0427 -0.1182,0.0726 -0.1922,0.0906 -0.1139,-0.0267 -0.1776,-0.1 -0.2592,-0.1809 -0.02,-0.0194 -0.0401,-0.0388 -0.0607,-0.0589 -0.0657,-0.0643 -0.1308,-0.1293 -0.1957,-0.1945 -0.0226,-0.0225 -0.0453,-0.0451 -0.0679,-0.0677 -0.0213,-0.0213 -0.0426,-0.0426 -0.0645,-0.0646 -0.0193,-0.0193 -0.0386,-0.0386 -0.0585,-0.0585 -0.0584,-0.0624 -0.0673,-0.0844 -0.0755,-0.1706 0.0085,-0.1044 0.0373,-0.1505 0.098,-0.2348 0.0253,-0.0357 0.0253,-0.0357 0.0511,-0.0721 0.015,-0.0207 0.0301,-0.0413 0.0456,-0.0626 0.0535,-0.0641 0.0535,-0.0641 0.0411,-0.1257 -0.0182,-0.0634 -0.0404,-0.1227 -0.066,-0.1834 -0.0454,-0.1078 -0.0454,-0.1078 -0.0454,-0.1597 -0.0435,-0.0036 -0.0435,-0.0036 -0.0879,-0.0073 -0.344,-0.0388 -0.344,-0.0388 -0.4463,-0.1196 -0.0688,-0.0901 -0.056,-0.1965 -0.0565,-0.3042 -2e-4,-0.0193 -3e-4,-0.0387 -4e-4,-0.0586 -3e-4,-0.0409 -4e-4,-0.0818 -5e-4,-0.1227 -2e-4,-0.0624 -10e-4,-0.1247 -0.0017,-0.1871 -2e-4,-0.0398 -3e-4,-0.0796 -4e-4,-0.1194 -3e-4,-0.0185 -5e-4,-0.0371 -8e-4,-0.0562 4e-4,-0.1137 0.0151,-0.1923 0.0788,-0.2905 0.0602,-0.0283 0.0602,-0.0283 0.1304,-0.0425 0.0248,-0.0051 0.0496,-0.0103 0.0752,-0.0155 0.1031,-0.0168 0.2058,-0.0291 0.3101,-0.0358 0.0028,-0.0169 0.0056,-0.0338 0.0085,-0.0512 0.0196,-0.0865 0.0561,-0.1616 0.0935,-0.2417 0.02,-0.0774 0.0058,-0.1059 -0.0317,-0.1758 -0.0479,-0.0705 -0.0978,-0.1391 -0.1482,-0.2078 -0.0491,-0.0916 -0.0586,-0.135 -0.0393,-0.2375 0.0461,-0.071 0.1041,-0.128 0.164,-0.1875 0.0195,-0.02 0.0389,-0.04 0.059,-0.0606 0.0643,-0.0658 0.1293,-0.1308 0.1945,-0.1958 0.0225,-0.0226 0.0451,-0.0453 0.0677,-0.0679 0.0213,-0.0213 0.0426,-0.0426 0.0645,-0.0645 0.0194,-0.0193 0.0387,-0.0386 0.0586,-0.0585 0.0612,-0.0574 0.0849,-0.0671 0.169,-0.0774 0.1173,0.0118 0.1711,0.0594 0.2612,0.1306 0.1149,0.0867 0.1149,0.0867 0.2518,0.1144 0.0599,-0.0186 0.1089,-0.0402 0.1628,-0.0719 0.0642,-0.0351 0.089,-0.0469 0.1641,-0.0469 8e-4,-0.0136 0.0017,-0.0273 0.0026,-0.0413 0.0129,-0.1605 0.035,-0.3227 0.0911,-0.4743 0.0725,-0.0483 0.0892,-0.0529 0.1715,-0.054 z"
           fill="#000000"
           id="path2" /><path
           d="m 21.5312,16.4219 c 0.2011,0 0.4022,0 0.6094,0 0.0293,0.1933 0.0293,0.1933 0.0379,0.2538 0.0026,0.0159 0.0052,0.0319 0.0079,0.0483 0.0025,0.0162 0.0049,0.0324 0.0074,0.0491 0.0311,0.0857 0.0908,0.1296 0.1684,0.1735 0.069,0.0311 0.1382,0.0618 0.2076,0.092 0.0239,0.0109 0.0479,0.0219 0.0725,0.0332 0.1773,0.0783 0.1773,0.0783 0.3655,0.0532 0.0753,-0.0431 0.0753,-0.0431 0.145,-0.0967 0.124,-0.092 0.124,-0.092 0.1818,-0.0864 0.059,0.0233 0.0901,0.0529 0.1343,0.0982 0.0155,0.0158 0.0311,0.0316 0.0471,0.0479 0.024,0.0248 0.024,0.0248 0.0485,0.0502 0.0245,0.025 0.0245,0.025 0.0495,0.0505 0.0403,0.0411 0.0804,0.0824 0.1204,0.1238 -0.0412,0.1161 -0.1069,0.2055 -0.179,0.3044 -0.0621,0.1372 -0.0114,0.2577 0.0376,0.3919 0.0195,0.0478 0.0393,0.0955 0.0593,0.1431 0.014,0.0364 0.014,0.0364 0.0282,0.0735 0.0513,0.1265 0.0513,0.1265 0.1468,0.219 0.132,0.047 0.2884,0.0624 0.4227,0.0868 0,0.2011 0,0.4022 0,0.6094 -0.1919,0.0279 -0.1919,0.0279 -0.2517,0.0357 -0.1228,0.0198 -0.1877,0.0478 -0.2639,0.1518 -0.043,0.0835 -0.0783,0.1691 -0.1128,0.2564 -0.0095,0.0229 -0.0191,0.0457 -0.0289,0.0693 -0.0686,0.1604 -0.0686,0.1604 -0.0693,0.3306 0.0335,0.0564 0.0658,0.1053 0.1055,0.1567 0.1055,0.1395 0.1055,0.1395 0.1055,0.2183 -0.0336,0.0353 -0.0336,0.0353 -0.0806,0.0732 -0.1127,0.0942 -0.2151,0.1969 -0.3179,0.3018 -0.116,-0.0412 -0.2054,-0.1069 -0.3044,-0.179 -0.1145,-0.0519 -0.2048,-0.0273 -0.3184,0.0127 -0.0656,0.0262 -0.1301,0.0541 -0.1945,0.0828 -0.0223,0.0095 -0.0445,0.0191 -0.0674,0.029 -0.1176,0.0484 -0.1176,0.0484 -0.2168,0.1248 -0.0151,0.0474 -0.0151,0.0474 -0.0251,0.102 -0.0055,0.0269 -0.0055,0.0269 -0.0112,0.0544 -0.0045,0.0228 -0.0089,0.0457 -0.0135,0.0692 -0.0145,0.0725 -0.029,0.145 -0.044,0.2197 -0.2011,0 -0.4022,0 -0.6094,0 -0.0087,-0.0701 -0.0174,-0.1402 -0.0263,-0.2124 -0.0219,-0.124 -0.0406,-0.2087 -0.136,-0.2949 -0.0715,-0.0352 -0.1394,-0.0636 -0.2151,-0.0875 -0.071,-0.0233 -0.1385,-0.0552 -0.207,-0.0849 -0.113,-0.0466 -0.1869,-0.0532 -0.3062,-0.0234 -0.0785,0.042 -0.0785,0.042 -0.1509,0.0952 -0.0246,0.0172 -0.0492,0.0344 -0.0746,0.0521 -0.0184,0.0132 -0.0368,0.0265 -0.0557,0.0402 -0.1084,-0.0491 -0.1812,-0.124 -0.2652,-0.2066 -0.0154,-0.0144 -0.0308,-0.0289 -0.0467,-0.0438 -0.1088,-0.107 -0.1088,-0.107 -0.1141,-0.1851 0.0471,-0.0969 0.1125,-0.1789 0.1771,-0.2645 0.0498,-0.0964 0.0423,-0.1328 0.0145,-0.2375 -0.0313,-0.0936 -0.0675,-0.1844 -0.1055,-0.2754 -0.0093,-0.0244 -0.0186,-0.0488 -0.0282,-0.0739 -0.0511,-0.1271 -0.0511,-0.1271 -0.1467,-0.2202 -0.132,-0.0469 -0.2886,-0.0624 -0.4227,-0.0868 0,-0.2011 0,-0.4022 0,-0.6094 0.2065,-0.0424 0.2065,-0.0424 0.2713,-0.0553 0.017,-0.0037 0.0339,-0.0073 0.0514,-0.011 0.026,-0.0054 0.026,-0.0054 0.0524,-0.0108 0.0794,-0.0282 0.1088,-0.0707 0.1466,-0.1447 0.0309,-0.0734 0.0617,-0.1469 0.092,-0.2205 0.0109,-0.0256 0.0218,-0.0511 0.033,-0.0774 0.0102,-0.0247 0.0205,-0.0494 0.031,-0.0748 0.0094,-0.0225 0.0188,-0.045 0.0284,-0.0682 0.0211,-0.0659 0.0279,-0.1124 0.0204,-0.181 -0.0428,-0.0682 -0.0887,-0.1304 -0.138,-0.1939 -0.0739,-0.0995 -0.0739,-0.0995 -0.0687,-0.1567 0.0381,-0.0949 0.1193,-0.1599 0.1906,-0.2309 0.0159,-0.0166 0.0318,-0.0331 0.0481,-0.0502 0.0232,-0.0232 0.0232,-0.0232 0.0469,-0.047 0.0211,-0.0214 0.0211,-0.0214 0.0427,-0.0432 0.0425,-0.0281 0.0425,-0.0281 0.0906,-0.0236 0.0937,0.0389 0.1719,0.1082 0.2527,0.1685 0.1146,0.0585 0.1865,0.0303 0.3028,-0.0052 0.0752,-0.025 0.1487,-0.0528 0.2226,-0.0814 0.0382,-0.013 0.0382,-0.013 0.0772,-0.0264 0.1416,-0.0542 0.1416,-0.0542 0.2293,-0.1714 0.0182,-0.0723 0.0291,-0.1429 0.0392,-0.2167 0.0154,-0.0619 0.0309,-0.1238 0.0468,-0.1875 z"
           fill="#8e9acf"
           id="path3" /><path
           d="m 22.5084,17.8825 c 0.2499,0.1818 0.407,0.4319 0.4659,0.7354 0.0458,0.3521 -0.0274,0.6489 -0.2301,0.9399 C 22.5555,19.7945 22.2965,19.933 22,19.9844 21.6777,20.0137 21.3757,19.9505 21.1196,19.7498 20.8958,19.5586 20.711,19.3004 20.683,18.998 c -0.0134,-0.3701 0.0327,-0.6416 0.2706,-0.9403 0.4178,-0.4412 1.0458,-0.5026 1.5548,-0.1752 z"
           fill="#f2f2fe"
           id="path4" /><path
           d="m 26.4238,23.2964 c 0.2067,0.0437 0.3681,0.2906 0.5057,0.4411 0.1157,0.1265 0.2337,0.2506 0.3519,0.3747 0.0891,0.0938 0.1773,0.1882 0.2638,0.2844 0.4367,0.5107 0.4367,0.5107 1.0431,0.7331 0.1882,0.0081 0.3743,-0.0069 0.5601,-0.036 0.0034,-0.0219 0.0067,-0.0439 0.0101,-0.0666 0.0363,-0.201 0.1798,-0.3569 0.3415,-0.4724 0.1867,-0.127 0.418,-0.157 0.6387,-0.1275 0.2318,0.048 0.4397,0.1819 0.5742,0.378 0.1265,0.2192 0.1599,0.4679 0.0967,0.7119 -0.0814,0.2413 -0.2459,0.4293 -0.4717,0.5464 -0.2011,0.0955 -0.4591,0.0939 -0.6694,0.0278 -0.2391,-0.1008 -0.3968,-0.2949 -0.5039,-0.5244 -0.0162,-0.0513 -0.0162,-0.0513 -0.0162,-0.1216 -0.0295,9e-4 -0.0591,0.0017 -0.0895,0.0026 -0.1102,0.003 -0.2205,0.0049 -0.3307,0.0064 -0.0477,8e-4 -0.0953,0.002 -0.1428,0.0034 -0.0687,0.002 -0.1373,0.0029 -0.206,0.0036 -0.0211,9e-4 -0.0422,0.0017 -0.0639,0.0026 -0.1139,10e-5 -0.1801,-0.0125 -0.2649,-0.0911 -0.0162,-0.0149 -0.0323,-0.0298 -0.049,-0.0452 -0.016,-0.0153 -0.032,-0.0306 -0.0485,-0.0464 -0.0143,-0.0136 -0.0286,-0.0273 -0.0433,-0.0415 -0.0439,-0.0426 -0.0872,-0.0858 -0.1303,-0.1291 -0.0163,-0.0162 -0.0325,-0.0323 -0.0492,-0.049 -0.0529,-0.0529 -0.1058,-0.1058 -0.1587,-0.1587 -0.037,-0.037 -0.0739,-0.074 -0.1109,-0.1109 -0.0772,-0.0771 -0.1543,-0.1543 -0.2314,-0.2315 -0.099,-0.0991 -0.198,-0.1981 -0.2971,-0.2971 -0.0763,-0.0761 -0.1524,-0.1523 -0.2286,-0.2285 -0.0365,-0.0366 -0.073,-0.0731 -0.1096,-0.1096 -0.0509,-0.0508 -0.1017,-0.1017 -0.1525,-0.1526 -0.0152,-0.0152 -0.0304,-0.0303 -0.046,-0.0459 -0.1272,-0.1278 -0.1272,-0.1278 -0.1372,-0.2356 0.0073,-0.085 0.0073,-0.085 0.0454,-0.1421 0.0557,-0.0366 0.0557,-0.0366 0.1201,-0.0527 z"
           fill="#000000"
           id="path5" /><path
           d="m 22.3984,17.4531 c 0.0307,0.0128 0.0307,0.0128 0.062,0.0258 0.399,0.1808 0.6441,0.5139 0.8092,0.9065 0.1229,0.3746 0.0411,0.8061 -0.1212,1.1537 -0.0493,0.0828 -0.1044,0.1586 -0.164,0.2343 -0.0103,0.0144 -0.0205,0.0287 -0.0311,0.0435 -0.1923,0.2524 -0.5428,0.4431 -0.8531,0.4889 -0.4465,0.0389 -0.847,-0.0175 -1.2073,-0.3108 -0.2753,-0.2365 -0.4724,-0.539 -0.5335,-0.9012 -0.0195,-0.2841 -0.0357,-0.5837 0.0937,-0.8438 0.01,-0.0217 0.0199,-0.0433 0.0302,-0.0656 0.0823,-0.1659 0.1913,-0.2958 0.3214,-0.4266 0.0139,-0.0147 0.0277,-0.0293 0.042,-0.0445 0.3916,-0.382 1.0579,-0.48 1.5517,-0.2602 z M 20.931,18.088 c -0.2261,0.3003 -0.2799,0.5892 -0.2435,0.9589 0.058,0.3006 0.2296,0.5661 0.4786,0.7435 0.2791,0.1761 0.591,0.2381 0.9176,0.1788 0.3201,-0.0823 0.5794,-0.252 0.7506,-0.54 0.0289,-0.0565 0.0553,-0.1129 0.0798,-0.1714 0.0082,-0.0187 0.0165,-0.0374 0.025,-0.0567 0.1005,-0.278 0.0623,-0.6211 -0.0596,-0.8855 -0.1679,-0.3051 -0.4137,-0.5094 -0.7483,-0.6117 -0.4508,-0.0876 -0.9007,0.0136 -1.2002,0.3841 z"
           fill="#030304"
           id="path6" /><path
           d="m 23.0723,21.6558 c 0.1929,0.0408 0.3564,0.2694 0.4913,0.4047 0.0315,0.0315 0.0315,0.0315 0.0637,0.0636 0.044,0.044 0.0881,0.0881 0.1321,0.1322 0.0564,0.0565 0.1129,0.113 0.1694,0.1694 0.0541,0.054 0.1081,0.1081 0.1622,0.1622 0.0203,0.0202 0.0406,0.0405 0.0615,0.0614 0.0187,0.0187 0.0373,0.0374 0.0565,0.0566 0.0164,0.0165 0.0329,0.033 0.0498,0.05 0.0694,0.0748 0.0648,0.1295 0.0657,0.2294 4e-4,0.0446 4e-4,0.0446 9e-4,0.0901 2e-4,0.0326 3e-4,0.0652 5e-4,0.0978 10e-5,0.0163 2e-4,0.0327 3e-4,0.0496 5e-4,0.0867 8e-4,0.1735 0.001,0.2602 3e-4,0.0896 0.0011,0.1792 0.002,0.2688 6e-4,0.0688 8e-4,0.1377 9e-4,0.2066 10e-5,0.033 4e-4,0.0661 8e-4,0.0991 6e-4,0.0462 5e-4,0.0924 4e-4,0.1387 2e-4,0.0263 3e-4,0.0526 4e-4,0.0796 -0.014,0.0834 -0.0395,0.1102 -0.1051,0.1617 -0.0572,0.022 -0.0572,0.022 -0.1172,0.0234 -0.1078,-0.0514 -0.1078,-0.0514 -0.1406,-0.1171 0.0023,-0.0382 0.0063,-0.0763 0.0111,-0.1142 0.0978,-0.7574 0.0978,-0.7574 -0.1637,-1.4462 -0.2388,-0.2934 -0.5394,-0.5422 -0.8378,-0.7721 -0.0619,-0.0525 -0.064,-0.0783 -0.0717,-0.1607 0.0074,-0.085 0.0074,-0.085 0.0454,-0.1421 0.0557,-0.0366 0.0557,-0.0366 0.1202,-0.0527 z"
           fill="#000000"
           id="path7" /><path
           d="m 21.8242,23.7681 c 0.082,0.0131 0.082,0.0131 0.1333,0.0468 0.0646,0.0913 0.0554,0.1755 0.0543,0.2848 10e-5,0.0227 2e-4,0.0455 3e-4,0.0689 3e-4,0.0753 -10e-5,0.1505 -5e-4,0.2258 0,0.0522 10e-5,0.1045 10e-5,0.1567 10e-5,0.1095 -2e-4,0.219 -8e-4,0.3285 -6e-4,0.1405 -6e-4,0.281 -3e-4,0.4215 2e-4,0.1078 0,0.2157 -3e-4,0.3236 -10e-5,0.0518 -10e-5,0.1036 0,0.1554 10e-5,0.0724 -3e-4,0.1447 -8e-4,0.217 10e-5,0.0215 2e-4,0.043 3e-4,0.0652 -2e-4,0.0197 -5e-4,0.0394 -7e-4,0.0596 -10e-5,0.0171 -10e-5,0.0342 -2e-4,0.0519 -0.0115,0.0582 -0.0333,0.0787 -0.0792,0.1153 -0.07,0.0239 -0.1083,0.0257 -0.1802,0.0073 -0.0637,-0.0362 -0.0743,-0.0577 -0.1011,-0.1245 -0.006,-0.0467 -0.006,-0.0467 -0.0062,-0.0968 -2e-4,-0.0191 -4e-4,-0.0382 -6e-4,-0.0579 0,-0.0207 0,-0.0414 0,-0.0628 -10e-5,-0.022 -3e-4,-0.044 -5e-4,-0.0667 -4e-4,-0.0727 -5e-4,-0.1454 -5e-4,-0.2182 -2e-4,-0.0505 -4e-4,-0.1011 -5e-4,-0.1516 -3e-4,-0.106 -4e-4,-0.212 -4e-4,-0.318 0,-0.1358 -6e-4,-0.2716 -0.0014,-0.4074 -5e-4,-0.1045 -6e-4,-0.2089 -6e-4,-0.3133 0,-0.0501 -3e-4,-0.1001 -6e-4,-0.1502 -5e-4,-0.07 -3e-4,-0.14 -10e-5,-0.2101 -2e-4,-0.0206 -5e-4,-0.0413 -8e-4,-0.0626 0.001,-0.0951 0.0052,-0.1461 0.0547,-0.2294 0.0513,-0.0457 0.0513,-0.0457 0.1333,-0.0588 z"
           fill="#000000"
           id="path8" /><path
           d="m 30.3609,16.8741 c 0.1031,0.0774 0.1605,0.1843 0.2172,0.2978 0.0172,0.1668 0.0096,0.3088 -0.0937,0.4453 -0.1254,0.1325 -0.233,0.2104 -0.4175,0.2197 -0.1421,-0.0036 -0.2436,-0.0439 -0.3495,-0.1387 -0.1094,-0.1175 -0.171,-0.2482 -0.1808,-0.4091 0.0077,-0.1578 0.082,-0.2678 0.1963,-0.3721 0.197,-0.1587 0.4061,-0.1645 0.628,-0.0429 z"
           fill="#f8d734"
           id="path9" /><path
           d="m 27.1387,16.832 c 0.1237,0.0716 0.2124,0.1808 0.2856,0.3018 0.0372,0.1736 0.0263,0.3088 -0.0693,0.4606 -0.1039,0.1385 -0.2397,0.2141 -0.4099,0.2412 -0.1263,0.0075 -0.2255,-0.0278 -0.3279,-0.1012 -0.1312,-0.1235 -0.2161,-0.2416 -0.2227,-0.4263 0.0037,-0.1517 0.053,-0.2569 0.1524,-0.3706 0.1732,-0.1514 0.3764,-0.1978 0.5918,-0.1055 z"
           fill="#4caef8"
           id="path10" /><path
           d="m 20.6172,26.6406 c 0.1123,0.0991 0.2001,0.2057 0.2167,0.3573 0.0072,0.1438 -0.0131,0.2527 -0.0995,0.3693 -0.13,0.1402 -0.2476,0.2086 -0.4395,0.2226 -0.1438,-0.0034 -0.2486,-0.0607 -0.3574,-0.1523 -0.1097,-0.1335 -0.1497,-0.259 -0.1469,-0.4307 0.0151,-0.1472 0.0852,-0.2416 0.1923,-0.3398 0.202,-0.1633 0.4131,-0.1555 0.6343,-0.0264 z"
           fill="#f9d834"
           id="path11" /><path
           d="m 20.5293,23.4414 c 0.1237,0.0715 0.2124,0.1808 0.2856,0.3018 0.0372,0.1736 0.0263,0.3087 -0.0693,0.4606 -0.1039,0.1384 -0.2397,0.2141 -0.4098,0.2412 -0.1264,0.0074 -0.2256,-0.0279 -0.328,-0.1012 -0.1312,-0.1235 -0.2161,-0.2416 -0.2226,-0.4263 0.0036,-0.1517 0.0529,-0.257 0.1523,-0.3706 0.1732,-0.1515 0.3764,-0.1978 0.5918,-0.1055 z"
           fill="#4caef8"
           id="path12" /><path
           d="m 27.6511,26.4203 c 0.1108,0.0823 0.2256,0.1996 0.2552,0.3375 0.0175,0.1605 0.0041,0.2901 -0.0938,0.4219 -0.1252,0.1326 -0.233,0.2104 -0.4175,0.2197 -0.1471,-0.0039 -0.2484,-0.0452 -0.3555,-0.1464 -0.1274,-0.1389 -0.1767,-0.2457 -0.1716,-0.4353 0.0202,-0.1693 0.1136,-0.2742 0.243,-0.3784 0.1606,-0.1171 0.3685,-0.1169 0.5402,-0.019 z"
           fill="#a5df03"
           id="path13" /><path
           d="m 23.5762,25.0132 c 0.1516,0.087 0.2456,0.2199 0.2988,0.3852 0.0193,0.1465 -0.021,0.2721 -0.0938,0.3985 -0.0989,0.1124 -0.2049,0.198 -0.3556,0.2175 -0.1607,0.01 -0.2884,-0.0269 -0.4178,-0.1238 -0.1252,-0.145 -0.1758,-0.2781 -0.1735,-0.469 0.0189,-0.1403 0.0896,-0.2548 0.1987,-0.3442 0.1669,-0.1077 0.3555,-0.1488 0.5432,-0.0642 z"
           fill="#fb526f"
           id="path14" /><path
           d="m 27.1387,19.8789 c 0.1241,0.0718 0.2148,0.1815 0.2856,0.3047 0.0399,0.1773 0.0086,0.3235 -0.0805,0.4805 -0.1037,0.1252 -0.2394,0.1932 -0.3986,0.2183 -0.1264,0.0077 -0.2256,-0.0278 -0.328,-0.1011 -0.1312,-0.1235 -0.2161,-0.2416 -0.2227,-0.4263 0.0037,-0.1517 0.053,-0.257 0.1524,-0.3706 0.1732,-0.1515 0.3764,-0.1978 0.5918,-0.1055 z"
           fill="#fb8546"
           id="path15" /><path
           d="m 30.249,24.8282 c 0.1028,0.067 0.1673,0.1518 0.2207,0.2612 0.0357,0.1819 0.0279,0.3254 -0.0627,0.4902 -0.0814,0.1087 -0.1936,0.1748 -0.3211,0.2173 -0.1701,0.0243 -0.3059,-0.0182 -0.4453,-0.1172 -0.1455,-0.154 -0.1738,-0.2689 -0.1721,-0.4791 0.0146,-0.1507 0.0858,-0.2396 0.1956,-0.3383 0.1837,-0.1301 0.3835,-0.135 0.5849,-0.0341 z"
           fill="#64dbfc"
           id="path16" /><path
           d="m 28.6201,21.6931 c 0.1243,0.0742 0.2152,0.1699 0.2778,0.301 0.0344,0.1626 0.0376,0.3082 -0.0462,0.4554 -0.074,0.1006 -0.1728,0.1838 -0.2892,0.2302 -0.1726,0.0219 -0.3234,0.0152 -0.4717,-0.0805 -0.1091,-0.0912 -0.1772,-0.1991 -0.1918,-0.3423 -0.0061,-0.1713 -4e-4,-0.2891 0.1075,-0.4263 0.1597,-0.1644 0.3949,-0.2181 0.6136,-0.1375 z"
           fill="#a6e103"
           id="path17" /><path
           d="m 30.2437,19.8626 c 0.1722,0.0756 0.2523,0.1919 0.3344,0.3561 0.0172,0.1669 0.009,0.3085 -0.0937,0.4454 -0.0962,0.1002 -0.1913,0.1797 -0.3322,0.1962 -0.1791,0.0033 -0.3059,-0.0019 -0.4413,-0.1259 -0.1082,-0.1082 -0.1656,-0.2459 -0.1743,-0.3985 0.0065,-0.1317 0.0581,-0.2333 0.1487,-0.3278 0.1728,-0.1557 0.3258,-0.214 0.5584,-0.1455 z"
           fill="#64dbfc"
           id="path18" /><path
           d="m 27.2249,18.6601 c 0.0211,-10e-5 0.0422,-2e-4 0.064,-4e-4 0.0698,-3e-4 0.1396,10e-5 0.2094,6e-4 0.0485,0 0.097,-10e-5 0.1455,-10e-5 0.1017,-10e-5 0.2033,2e-4 0.305,7e-4 0.1304,7e-4 0.2607,6e-4 0.3911,3e-4 0.1002,-10e-5 0.2003,10e-5 0.3005,4e-4 0.0481,10e-5 0.0961,10e-5 0.1442,0 0.0672,-10e-5 0.1343,3e-4 0.2015,8e-4 0.0298,-1e-4 0.0298,-1e-4 0.0603,-3e-4 0.0826,0.001 0.1349,0.002 0.2081,0.0427 0.0428,0.0463 0.0466,0.0688 0.0448,0.1311 -0.0031,0.0626 -0.0057,0.0874 -0.0425,0.1392 -0.0917,0.06 -0.1777,0.0522 -0.2842,0.0525 -0.0309,2e-4 -0.0309,2e-4 -0.0625,5e-4 -0.0684,4e-4 -0.1368,7e-4 -0.2052,9e-4 -0.035,2e-4 -0.035,2e-4 -0.0708,3e-4 -0.1235,5e-4 -0.247,8e-4 -0.3706,0.0011 -0.1276,2e-4 -0.2553,0.001 -0.383,0.002 -0.0981,6e-4 -0.1962,8e-4 -0.2943,9e-4 -0.0471,10e-5 -0.0941,3e-4 -0.1412,8e-4 -0.0659,5e-4 -0.1317,5e-4 -0.1976,4e-4 -0.0292,4e-4 -0.0292,4e-4 -0.0589,9e-4 -0.0923,-9e-4 -0.1393,-0.0059 -0.2202,-0.0544 -0.0464,-0.0513 -0.0464,-0.0513 -0.0596,-0.1333 0.0132,-0.0821 0.0132,-0.0821 0.0478,-0.1333 0.0873,-0.0628 0.1633,-0.0555 0.2684,-0.0543 z"
           fill="#000000"
           id="path19" /><path
           d="m 24.7878,19.8725 c 0.1077,0.0406 0.1835,0.1347 0.2625,0.2154 0.0299,0.0299 0.0299,0.0299 0.0604,0.0604 0.042,0.0421 0.0839,0.0844 0.1256,0.1269 0.0638,0.0649 0.1282,0.1292 0.1927,0.1934 0.0408,0.041 0.0815,0.0821 0.1222,0.1232 0.0289,0.0288 0.0289,0.0288 0.0583,0.0582 0.167,0.1712 0.167,0.1712 0.1874,0.2953 -0.0227,0.0906 -0.0379,0.1112 -0.1172,0.1641 -0.063,0.0132 -0.063,0.0132 -0.1406,0 -0.0419,-0.0307 -0.0419,-0.0307 -0.0866,-0.0714 -0.0165,-0.0149 -0.033,-0.0299 -0.05,-0.0452 -0.1373,-0.1279 -0.2718,-0.2584 -0.4055,-0.39 -0.0372,-0.0365 -0.0746,-0.0727 -0.1122,-0.1088 -0.0546,-0.0524 -0.1085,-0.1055 -0.1624,-0.1587 -0.0168,-0.0159 -0.0337,-0.0319 -0.051,-0.0483 -0.0768,-0.0771 -0.1268,-0.129 -0.1292,-0.2411 0.0125,-0.085 0.0125,-0.085 0.0447,-0.1304 0.0698,-0.0456 0.1169,-0.0569 0.2009,-0.043 z"
           fill="#000000"
           id="path20" /><path
           d="m 28.5156,21.6719 c 0.1399,0.0314 0.2343,0.1058 0.3282,0.2109 0.0794,0.1275 0.0908,0.2753 0.0703,0.4219 -0.0433,0.1451 -0.1322,0.246 -0.2579,0.3281 -0.0805,0.0322 -0.0805,0.0322 -0.1406,0.0469 0.0096,-0.0139 0.0192,-0.0277 0.0291,-0.042 0.0127,-0.0186 0.0253,-0.0371 0.0383,-0.0562 0.0188,-0.0273 0.0188,-0.0273 0.0379,-0.0552 0.1024,-0.1668 0.1017,-0.3362 0.0822,-0.5263 -0.0414,-0.1248 -0.1078,-0.2246 -0.1875,-0.3281 z"
           fill="#94ca00"
           id="path21" /><path
           d="m 30.1328,24.7891 c 0.1412,0.048 0.2211,0.1104 0.3047,0.2343 0.0672,0.1374 0.0721,0.2918 0.028,0.4373 -0.0679,0.1555 -0.1614,0.2335 -0.3093,0.3127 -0.0154,-0.0077 -0.0309,-0.0154 -0.0468,-0.0234 0.0099,-0.0141 0.0197,-0.0283 0.0299,-0.0428 0.0129,-0.0188 0.0257,-0.0375 0.0389,-0.0568 0.0128,-0.0185 0.0256,-0.037 0.0387,-0.056 0.0907,-0.1518 0.0805,-0.3691 0.0433,-0.5371 -0.0303,-0.0839 -0.0716,-0.1524 -0.1274,-0.2214 0,-0.0154 0,-0.0309 0,-0.0468 z"
           fill="#2dcaf6"
           id="path22" /><path
           d="m 20.4531,23.4297 c 0.1714,0.056 0.2692,0.1604 0.3618,0.3135 0.0373,0.1736 0.0261,0.3084 -0.069,0.4605 -0.0783,0.1036 -0.1679,0.17 -0.2928,0.2104 0.0234,-0.0471 0.047,-0.094 0.0712,-0.1407 0.0079,-0.0154 0.0159,-0.0309 0.024,-0.0468 0.008,-0.0155 0.0161,-0.031 0.0243,-0.0469 0.0674,-0.1494 0.0761,-0.3355 0.0201,-0.4891 C 20.5638,23.6334 20.5329,23.5784 20.5,23.5234 20.4841,23.4923 20.4684,23.4611 20.4531,23.4297 Z"
           fill="#298df1"
           id="path23" /><path
           d="m 30.2266,19.8672 c 0.1843,0.0731 0.2639,0.1764 0.3515,0.3516 0.0172,0.1669 0.0089,0.3082 -0.0937,0.4453 -0.0821,0.0873 -0.1651,0.1523 -0.2813,0.1875 0.0239,-0.0493 0.0487,-0.0967 0.0771,-0.1435 0.1065,-0.1847 0.1193,-0.3745 0.0694,-0.5816 -0.0321,-0.0788 -0.0745,-0.1428 -0.123,-0.2124 0,-0.0155 0,-0.031 0,-0.0469 z"
           fill="#2cc9f5"
           id="path24" /><path
           d="m 27.0625,16.8203 c 0.1714,0.056 0.2692,0.1604 0.3618,0.3135 0.0372,0.1736 0.0261,0.3084 -0.069,0.4605 -0.0783,0.1037 -0.1679,0.17 -0.2928,0.2104 0.0236,-0.0472 0.0472,-0.0944 0.0711,-0.1415 0.008,-0.0156 0.0159,-0.0313 0.0241,-0.0475 0.008,-0.0157 0.016,-0.0315 0.0243,-0.0477 0.0706,-0.1488 0.0751,-0.3338 0.02,-0.4884 -0.0287,-0.0568 -0.0596,-0.1111 -0.0926,-0.1655 -0.0159,-0.0311 -0.0316,-0.0624 -0.0469,-0.0938 z"
           fill="#288df1"
           id="path25" /><path
           d="m 20.4531,26.5703 c 0.1677,0.0723 0.2669,0.1548 0.3604,0.312 0.036,0.155 0.0335,0.3003 -0.0461,0.4406 -0.0759,0.1018 -0.1696,0.1914 -0.2908,0.2318 0.0213,-0.0552 0.0425,-0.1092 0.0708,-0.1612 0.088,-0.1694 0.1059,-0.3504 0.051,-0.5347 -0.0382,-0.0895 -0.0844,-0.1656 -0.1453,-0.2416 0,-0.0155 0,-0.0309 0,-0.0469 z"
           fill="#f3c02c"
           id="path26" /><path
           d="m 30.2266,16.8203 c 0.1843,0.0731 0.2639,0.1764 0.3515,0.3516 0.0172,0.1669 0.0096,0.3088 -0.0937,0.4453 -0.0575,0.0616 -0.1152,0.1202 -0.1875,0.164 -0.0232,-0.0077 -0.0464,-0.0154 -0.0703,-0.0234 0.0101,-0.0165 0.0203,-0.033 0.0307,-0.05 0.1064,-0.1885 0.1407,-0.3439 0.1099,-0.5594 -0.0236,-0.0757 -0.0554,-0.1418 -0.0938,-0.2109 -0.0159,-0.039 -0.0316,-0.078 -0.0468,-0.1172 z"
           fill="#f5c12c"
           id="path27" /><path
           d="m 27.5312,26.3828 c 0.1715,0.056 0.2692,0.1604 0.3619,0.3135 0.0332,0.155 0.0321,0.2989 -0.0475,0.4389 -0.0608,0.0818 -0.1332,0.1556 -0.2206,0.2086 -0.0232,-0.0078 -0.0464,-0.0155 -0.0703,-0.0235 0.0101,-0.0165 0.0203,-0.033 0.0307,-0.05 0.1058,-0.1874 0.1446,-0.345 0.1099,-0.5594 -0.0254,-0.068 -0.0544,-0.1277 -0.0915,-0.19 -0.0257,-0.0443 -0.0257,-0.0443 -0.0257,-0.0912 -0.0154,0 -0.0309,0 -0.0469,0 0,-0.0155 0,-0.0309 0,-0.0469 z"
           fill="#95cb00"
           id="path28" /><path
           d="m 27.0859,19.8672 c 0.1556,0.0607 0.2564,0.1737 0.3384,0.3164 0.0398,0.177 0.0089,0.3239 -0.0805,0.4805 -0.0832,0.0975 -0.1539,0.1446 -0.2813,0.164 0.0099,-0.0155 0.0198,-0.0311 0.0299,-0.0471 0.0129,-0.0207 0.0257,-0.0414 0.0389,-0.0627 0.0192,-0.0306 0.0192,-0.0306 0.0388,-0.0618 0.0741,-0.1407 0.0744,-0.3057 0.0565,-0.4612 -0.0248,-0.0656 -0.0539,-0.1234 -0.0893,-0.1838 -0.0269,-0.0486 -0.0406,-0.0901 -0.0514,-0.1443 z"
           fill="#ea641e"
           id="path29" /><path
           d="m 23.5,25 c 0.1757,0.0597 0.2616,0.154 0.3486,0.3164 0.0504,0.1565 0.029,0.2751 -0.0344,0.4233 -0.0611,0.1061 -0.154,0.2011 -0.2732,0.2373 -0.0203,0.0036 -0.0203,0.0036 -0.041,0.0074 0.0358,-0.0747 0.0768,-0.1452 0.1195,-0.2161 0.0706,-0.1394 0.0654,-0.3233 0.0321,-0.4727 -0.0343,-0.0978 -0.0849,-0.1705 -0.1516,-0.2487 0,-0.0155 0,-0.031 0,-0.0469 z"
           fill="#ea3150"
           id="path30" /><path
           d="m 23.6406,19.3516 c 0.0232,0 0.0464,0 0.0703,0 -0.0462,0.1461 -0.1009,0.2847 -0.1643,0.4243 -0.0266,0.0779 -0.0347,0.1267 -0.0232,0.2085 0.034,0.0563 0.0669,0.1053 0.107,0.1567 0.0373,0.0485 0.0709,0.0962 0.104,0.148 -0.0078,0.0232 -0.0155,0.0464 -0.0235,0.0703 -0.0467,-0.0638 -0.0932,-0.1276 -0.1394,-0.1917 -0.0267,-0.0368 -0.0538,-0.0733 -0.0822,-0.1088 -0.0469,-0.0607 -0.0599,-0.092 -0.056,-0.1695 0.0196,-0.1152 0.0682,-0.2191 0.115,-0.3254 0.0133,-0.0308 0.0133,-0.0308 0.0268,-0.0622 0.0217,-0.0501 0.0435,-0.1002 0.0655,-0.1502 z"
           fill="#5b6699"
           id="path31" /><path
           d="m 23.6875,17.2891 c 0.0155,0.0077 0.0309,0.0154 0.0469,0.0234 -0.0412,0.1161 -0.1069,0.2055 -0.179,0.3044 -0.0499,0.1102 -0.028,0.2003 0.0091,0.3104 0.0207,0.0535 0.0429,0.1061 0.0659,0.1586 0.0077,0.0182 0.0154,0.0364 0.0234,0.0551 0.0188,0.0442 0.0379,0.0883 0.0571,0.1324 -0.0348,0.0116 -0.0348,0.0116 -0.0703,0.0235 -0.2271,-0.4821 -0.2271,-0.4821 -0.1875,-0.6094 0.0339,-0.0574 0.0681,-0.1121 0.1055,-0.167 0.0753,-0.1099 0.0753,-0.1099 0.1289,-0.2314 z"
           fill="#5a6497"
           id="path32" /><path
           d="m 20.5,18.1328 c 0,0.0741 -0.0191,0.1187 -0.0504,0.1849 -0.0661,0.1639 -0.0758,0.3102 -0.0756,0.486 0,0.025 0,0.05 0,0.0757 0.0026,0.1909 0.033,0.3411 0.1026,0.519 0.0086,0.0389 0.0167,0.078 0.0234,0.1172 -0.0629,-0.055 -0.0902,-0.107 -0.1201,-0.1845 -0.0078,-0.0198 -0.0156,-0.0396 -0.0236,-0.0599 -0.0948,-0.281 -0.0893,-0.6703 0.0229,-0.9448 0.0356,-0.0696 0.0728,-0.1318 0.1208,-0.1936 z"
           fill="#566090"
           id="path33" /><path
           d="m 24.1562,18.5312 c 0.031,0 0.0619,0 0.0938,0 0,0.2011 0,0.4022 0,0.6094 -0.0309,0 -0.0619,0 -0.0938,0 0,-0.2011 0,-0.4022 0,-0.6094 z"
           fill="#576192"
           id="path34" /><path
           d="m 22.1875,20.8516 c 0.0373,0.0745 0.0067,0.1473 -0.0103,0.2255 -0.012,0.0571 -0.0241,0.1141 -0.0366,0.1729 -0.2011,0 -0.4022,0 -0.6094,0 0,-0.0077 0,-0.0155 0,-0.0234 0.1702,0 0.3404,0 0.5157,0 0.0232,-0.1161 0.0464,-0.2321 0.0703,-0.3516 0.0232,-0.0077 0.0464,-0.0155 0.0703,-0.0234 z"
           fill="#5b6493"
           id="path35" /><path
           d="m 22.0469,16.4219 c 0.0309,0 0.0618,0 0.0937,0 0.008,0.0405 0.0157,0.081 0.0235,0.1216 0.0043,0.0225 0.0087,0.0451 0.0131,0.0683 0.0096,0.063 0.0122,0.1215 0.0103,0.1851 -0.0232,-0.0078 -0.0464,-0.0155 -0.0703,-0.0235 -0.0232,-0.116 -0.0464,-0.232 -0.0703,-0.3515 z"
           fill="#5a6498"
           id="path36" /><path
           d="m 20.5,18.1328 c 0,0.0743 -0.02,0.1153 -0.05,0.1817 -0.0415,0.1077 -0.0646,0.2216 -0.0906,0.3339 -0.0155,0 -0.031,0 -0.0469,0 0.0102,-0.1764 0.0593,-0.3874 0.1875,-0.5156 z"
           fill="#5d6799"
           id="path37" /></g></g></g></svg>
