<svg viewBox="0 0 24 24" fill="none" xmlns="http://www.w3.org/2000/svg">
  <path d="M10 4H4c-1.11 0-2 .89-2 2v12c0 1.097.903 2 2 2h16c1.097 0 2-.903 2-2V8a2 2 0 0 0-2-2h-8l-2-2Z"
    fill="#AB47BC" />
  <path fill-rule="evenodd" clip-rule="evenodd"
    d="M14.034 16.187c.467-.276.467-1.169.002-1.994s-1.22-1.27-1.686-.995c-.466.276-.467 1.168-.002 1.993.465.826 1.22 1.271 1.686.996Zm.003 1.767c.465.825.465 1.718-.001 1.993-.466.276-1.221-.17-1.687-.995-.465-.825-.464-1.718.002-1.993.466-.276 1.221.17 1.686.995Zm3.177 1.88c.465.826.464 1.719-.002 1.994-.466.276-1.221-.17-1.686-.995-.465-.825-.465-1.717.002-1.993.466-.276 1.22.17 1.686.995Zm-.001-3.76c.465.826.464 1.718-.002 1.994-.466.275-1.221-.17-1.686-.995-.466-.826-.465-1.718.001-1.994.466-.275 1.221.17 1.687.995Z"
    fill="#FFCDD2" />
  <path fill-rule="evenodd" clip-rule="evenodd"
    d="M23.567 15.194c.465-.826.464-1.718-.002-1.994s-1.221.17-1.686.995c-.465.825-.465 1.718.002 1.994.466.275 1.22-.17 1.686-.995Zm0 1.766c.466.275.467 1.168.002 1.993-.466.826-1.22 1.271-1.687.995-.466-.275-.466-1.168-.001-1.993.465-.825 1.22-1.27 1.686-.995Zm-3.176 1.878c.466.276.467 1.168.002 1.993-.465.826-1.22 1.271-1.686.995-.466-.275-.467-1.168-.002-1.993.465-.825 1.22-1.27 1.686-.995Zm-.002-3.76c.466.276.467 1.168.002 1.994-.465.825-1.22 1.27-1.686.995-.466-.276-.467-1.168-.002-1.994.465-.825 1.22-1.27 1.686-.995Z"
    fill="#E1BEE7" />
  <path fill-rule="evenodd" clip-rule="evenodd"
    d="M19.641 9.998c0 .552-.754.999-1.684.999-.93 0-1.684-.447-1.684-.999 0-.551.754-.998 1.684-.998.93 0 1.684.447 1.684.998Zm-3.175 1.877c0 .55-.754.998-1.685.998-.93 0-1.684-.447-1.684-.998 0-.552.754-.999 1.684-.999.93 0 1.685.447 1.685.998Zm4.67.998c.931 0 1.685-.447 1.685-.998 0-.552-.754-.999-1.684-.999-.93 0-1.685.447-1.685.998 0 .552.754.999 1.685.999Zm-1.495.882c0 .551-.754.998-1.684.998-.93 0-1.684-.447-1.684-.998 0-.552.754-.998 1.684-.998.93 0 1.684.447 1.684.998Z"
    fill="#FFE082" />
</svg>