<?xml version="1.0" encoding="UTF-8"?>
<svg clip-rule="evenodd" stroke-linejoin="round" stroke-miterlimit="1.414" version="1.1" viewBox="0 0 24 24" xml:space="preserve" xmlns="http://www.w3.org/2000/svg"><path d="M19 20H4a2 2 0 0 1-2-2V6c0-1.11.89-2 2-2h6l2 2h7c1.097 0 2 .903 2 2H4v10l2.14-8h17.07l-2.28 8.5c-.23.87-1.01 1.5-1.93 1.5z" fill="#ef5350"/><path d="m18.606 12.82h3.3652l-3.3652-3.3652v3.3652m-4.283-4.2829h4.8948l3.6711 3.6711v7.3422a1.2237 1.2237 0 0 1-1.2237 1.2237h-7.3422a1.2237 1.2237 0 0 1-1.2237-1.2237v-9.7896a1.2237 1.2237 0 0 1 1.2237-1.2237m3.0164 6.3877c0.25086 0.55066 0.56902 1.0034 0.93613 1.3155l0.25086 0.19579c-0.53231 0.09789-1.2665 0.26921-2.0436 0.56902l-0.0673 0.02447 0.30592-0.63632c0.27533-0.53231 0.47724-1.0157 0.61797-1.4684m3.9648 2.3311c0.11013-0.11013 0.1652-0.25086 0.17132-0.40382 0.01836-0.12237-0.01223-0.23862-0.07343-0.33652-0.17744-0.28757-0.63632-0.42218-1.395-0.42218l-0.78929 0.04283-0.53231-0.35487c-0.38546-0.31816-0.73422-0.87495-0.97896-1.5663l0.02447-0.08566c0.20191-0.81376 0.39158-1.7988-0.01224-2.2027a0.52191 0.52191 0 0 0-0.37323-0.14684h-0.14684c-0.22638 0-0.4283 0.23862-0.48336 0.47113-0.22638 0.81376-0.09177 1.2604 0.13461 2.0007v0.0061c-0.15296 0.53843-0.34876 1.1625-0.6608 1.7927l-0.58738 1.1013-0.54455 0.29981c-0.73422 0.45889-1.083 0.97284-1.1503 1.2971-0.02448 0.11625-0.01223 0.22027 0.03059 0.3304l0.01836 0.03059 0.29369 0.18967 0.26921 0.06731c0.4956 0 1.0585-0.58126 1.8172-1.8784l0.11013-0.04283c0.63021-0.20191 1.4134-0.34264 2.4658-0.45889 0.63021 0.31204 1.3705 0.45277 1.8356 0.45277 0.26921 0 0.45277-0.06731 0.55678-0.18356m-0.25086-0.43441 0.05507 0.06731c-0.0061 0.06118-0.02447 0.06731-0.05507 0.07954h-0.02448l-0.11625 0.01223c-0.28145 0-0.71586-0.11625-1.1625-0.31204 0.05507-0.06118 0.07954-0.06118 0.14073-0.06118 0.85659 0 1.1013 0.15296 1.1625 0.21415m-5.6107 0.8933c-0.3977 0.7281-0.7587 1.1319-1.034 1.2237 0.03059-0.2325 0.30592-0.63632 0.74034-1.034l0.29369-0.18967m1.8478-4.2279c-0.14073-0.55066-0.14684-0.99732-0.04283-1.2543l0.04283-0.07342 0.09177 0.03059c0.10402 0.14684 0.11625 0.34264 0.05507 0.67303l-0.01836 0.0979-0.0979 0.50172z" fill="#ffcdd2" stroke-width=".61185"/></svg>
