<?xml version="1.0" encoding="UTF-8" standalone="no"?>
<svg
   xmlns:dc="http://purl.org/dc/elements/1.1/"
   xmlns:cc="http://creativecommons.org/ns#"
   xmlns:rdf="http://www.w3.org/1999/02/22-rdf-syntax-ns#"
   xmlns:svg="http://www.w3.org/2000/svg"
   xmlns="http://www.w3.org/2000/svg"
   xmlns:sodipodi="http://sodipodi.sourceforge.net/DTD/sodipodi-0.dtd"
   xmlns:inkscape="http://www.inkscape.org/namespaces/inkscape"
   clip-rule="evenodd"
   fill-rule="evenodd"
   stroke-linejoin="round"
   stroke-miterlimit="1.4142"
   version="1.1"
   viewBox="0 0 24 24"
   xml:space="preserve"
   id="svg8"
   sodipodi:docname="folder-container.svg"
   inkscape:version="0.92.2 5c3e80d, 2017-08-06"><metadata
     id="metadata14"><rdf:RDF><cc:Work
         rdf:about=""><dc:format>image/svg+xml</dc:format><dc:type
           rdf:resource="http://purl.org/dc/dcmitype/StillImage" /></cc:Work></rdf:RDF></metadata><defs
     id="defs12"><inkscape:perspective
       sodipodi:type="inkscape:persp3d"
       inkscape:vp_x="0 : 12 : 1"
       inkscape:vp_y="0 : 1000 : 0"
       inkscape:vp_z="24 : 12 : 1"
       inkscape:persp3d-origin="12 : 8 : 1"
       id="perspective11" /></defs><sodipodi:namedview
     pagecolor="#ffffff"
     bordercolor="#666666"
     borderopacity="1"
     objecttolerance="10"
     gridtolerance="10"
     guidetolerance="10"
     inkscape:pageopacity="0"
     inkscape:pageshadow="2"
     inkscape:window-width="1021"
     inkscape:window-height="610"
     id="namedview10"
     showgrid="false"
     inkscape:zoom="17.041667"
     inkscape:cx="12"
     inkscape:cy="12"
     inkscape:window-x="0"
     inkscape:window-y="0"
     inkscape:window-maximized="0"
     inkscape:current-layer="svg8" /><path
     d="m10 4h-6c-1.11 0-2 0.89-2 2v12c0 1.097 0.903 2 2 2h16c1.097 0 2-0.903 2-2v-10c0-1.11-0.9-2-2-2h-8l-2-2z"
     id="path2"
     fill-rule="nonzero"
     fill="#ffb300" /><path
     style="stroke-width:0.58333331"
     inkscape:connector-curvature="0"
     id="path10"
     d="m 11.85,16.233329 h 1.166667 V 15.066671 H 11.85 Z m 0,2.333336 h 1.166667 V 17.399997 H 11.85 Z M 13.016667,20.9 V 19.733333 H 11.85 C 11.85,20.375 12.369169,20.9 13.016667,20.9 Z M 11.85,13.900003 h 1.166667 V 12.733335 H 11.85 Z M 18.849998,20.9 h 1.166668 v -1.166667 h -1.166668 z m 2.333335,-10.5 h -5.833331 c -0.647504,0 -1.166668,0.525 -1.166668,1.166667 v 5.83333 c 0,0.641668 0.519164,1.166668 1.166668,1.166668 h 5.833331 c 0.641667,0 1.166667,-0.525 1.166667,-1.166668 v -5.83333 C 22.35,10.925 21.825,10.4 21.183333,10.4 Z m 0,6.999997 h -5.833331 v -5.83333 h 5.833331 z M 16.516669,20.9 h 1.166662 v -1.166667 h -1.166662 z m -2.333335,0 h 1.166668 v -1.166667 h -1.166668 z" /></svg>