<svg xmlns="http://www.w3.org/2000/svg" xmlns:xlink="http://www.w3.org/1999/xlink" fill="none" viewBox="0 0 32 32"><path fill="#7E57C2" d="M29 12H9.4c-.9 0-1.6.6-1.9 1.4L4 24V10h24c0-1.1-.9-2-2-2H15.1c-.5 0-.9-.2-1.3-.5l-1.3-1.1c-.3-.2-.8-.4-1.2-.4H4c-1.1 0-2 .9-2 2v16c0 1.1.9 2 2 2h22l4.8-11.2c.4-1 0-2.2-1-2.6-.3-.1-.6-.2-.8-.2"/><g fill="#D1C4E9" clip-path="url(#a)"><path d="M20 24h12v6H12v-6h6l8-4H12v-6h20v6z"/><path d="M26 14H12v6h14zm6 10H20v6h12z"/></g><defs><clipPath id="a"><path d="M12 14h20v16H12z"/></clipPath></defs></svg>