<svg xmlns="http://www.w3.org/2000/svg" viewBox="0 0 32 32">
  <path d="M28.96692,12H9.44152a2,2,0,0,0-1.89737,1.36754L4,24V10H28a2,2,0,0,0-2-2H15.1241a2,2,0,0,1-1.28038-.46357L12.5563,6.46357A2,2,0,0,0,11.27592,6H4A2,2,0,0,0,2,8V24a2,2,0,0,0,2,2H26l4.80523-11.21213A2,2,0,0,0,28.96692,12Z" style="fill: #afb42b"/>
  <path d="M28.1776,12.00013a1.5728,1.5728,0,0,0-1.13722.46714L22.4201,17.15841l4.49306,4.55428,4.62807-4.68324a1.64632,1.64632,0,0,0,0-2.28043l-2.25887-2.28175a1.54356,1.54356,0,0,0-1.10476-.46714m-6.52084,5.92412-4.73841,4.803a1.6355,1.6355,0,0,0,.00753,2.29081l.008.00805C15.96287,26.017,14.97754,27.00914,14,28h4.49955l.68415-.69347a1.58148,1.58148,0,0,0,2.23419-.01579l4.73193-4.803" style="fill: #f0f4c3;fill-rule: evenodd"/>
</svg>
