<svg xmlns="http://www.w3.org/2000/svg" viewBox="0 0 32 32"><path fill="#ff6e40" d="m13.844 7.536-1.288-1.072A2 2 0 0 0 11.276 6H4a2 2 0 0 0-2 2v16a2 2 0 0 0 2 2h24a2 2 0 0 0 2-2V10a2 2 0 0 0-2-2H15.124a2 2 0 0 1-1.28-.464"/><path fill="#ffccbc" d="M23.098 10.01c-4.998 0-9.043 4.045-8.984 9.042 0 4.997 4.046 9.043 9.043 8.983 1.354 0 2.708-.291 3.947-.931l-6.208-6.208a.54.54 0 0 1-.178-.416.54.54 0 0 1 .178-.417l7.972-7.971c-1.606-1.369-3.629-2.083-5.77-2.083m6.663 2.915-7.615 7.555 6.009 6.009c.475-.298.951-.714 1.308-1.071 3.391-3.391 3.57-8.924.298-12.493m-.45 4.544c.298-.01.59.163.688.453.594 1.19.416 2.617-.476 3.748a.67.67 0 0 1-.952.119.72.72 0 0 1-.06-.952c.476-.655.595-1.547.238-2.26 0-.06-.06-.12-.06-.18-.118-.356.06-.773.417-.892a.7.7 0 0 1 .205-.036"/></svg>