<svg xmlns="http://www.w3.org/2000/svg" viewBox="0 0 16 16">
<path id="folder" fill="#009688" d="m6.922 3.768-.644-.536A1 1 0 0 0 5.638 3H2a1 1 0 0 0-1 1v8a1 1 0 0 0 1 1h12a1 1 0 0 0 1-1V5a1 1 0 0 0-1-1H7.562a1 1 0 0 1-.64-.232" />
<path id="motive" fill="#b2dfdb" d="M 11.4995,5.0000007 A 4.4969995,4.4969995 0 0 0 7.000001,9.4950004 v 0.005 A 4.4969995,4.4969995 0 0 0 11.494,13.999999 H 11.5 A 4.4969995,4.4969995 0 0 0 16,9.5060004 v -0.006 A 4.5084995,4.5084995 0 0 0 11.4995,5.0000007 M 9.388501,10.4655 a 0.70499992,0.70499992 0 0 0 0.621,0.2785 0.94999989,0.94999989 0 0 0 0.3775,-0.0665 3.1999996,3.1999996 0 0 0 0.4085,-0.2125 l 0.458,0.655 a 1.9499998,1.9499998 0 0 1 -1.2925,0.458 2.0249998,2.0249998 0 0 1 -1.014,-0.245 1.6499998,1.6499998 0 0 1 -0.655,-0.72 2.5199997,2.5199997 0 0 1 -0.2285,-1.0969996 2.5999997,2.5999997 0 0 1 0.228,-1.0965 1.7299998,1.7299998 0 0 1 0.656,-0.7515 1.7999998,1.7999998 0 0 1 0.998,-0.2625 1.8499998,1.8499998 0 0 1 0.7035,0.115 2.0999998,2.0999998 0 0 1 0.605,0.36 l -0.4575,0.6215 a 1.7999998,1.7999998 0 0 0 -0.377,-0.2135 1.0499999,1.0499999 0 0 0 -0.3925,-0.0655 c -0.556,0 -0.8345,0.426 -0.8345,1.2925 A 1.6199998,1.6199998 0 0 0 9.389001,10.465 Z m 4.499999,1.015 a 2.3499997,2.3499997 0 0 1 -0.7525,1.161499 2.4499997,2.4499997 0 0 1 -1.375,0.475 l -0.114,-0.7685 A 1.8699998,1.8699998 0 0 0 12.482,12.0855 1.9999998,1.9999998 0 0 0 12.6775,11.89 L 11.319501,7.5365004 H 12.448 L 13.234,10.793 14.069,7.5365004 h 1.0965 z" />
</svg>
