<?xml version="1.0" encoding="UTF-8" standalone="no"?>
<svg
   viewBox="0 0 32 32"
   version="1.1"
   id="svg2"
   sodipodi:docname="folder-kusto.svg"
   inkscape:version="1.4 (86a8ad7, 2024-10-11)"
   xmlns:inkscape="http://www.inkscape.org/namespaces/inkscape"
   xmlns:sodipodi="http://sodipodi.sourceforge.net/DTD/sodipodi-0.dtd"
   xmlns="http://www.w3.org/2000/svg"
   xmlns:svg="http://www.w3.org/2000/svg">
  <defs
     id="defs2" />
  <sodipodi:namedview
     id="namedview2"
     pagecolor="#505050"
     bordercolor="#ffffff"
     borderopacity="1"
     inkscape:showpageshadow="0"
     inkscape:pageopacity="0"
     inkscape:pagecheckerboard="1"
     inkscape:deskcolor="#505050"
     inkscape:zoom="150.43697"
     inkscape:cx="30.278462"
     inkscape:cy="17.811447"
     inkscape:window-width="1920"
     inkscape:window-height="1111"
     inkscape:window-x="-9"
     inkscape:window-y="-9"
     inkscape:window-maximized="1"
     inkscape:current-layer="svg2"
     showgrid="true">
    <inkscape:grid
       id="grid1"
       units="px"
       originx="0"
       originy="0"
       spacingx="1"
       spacingy="1"
       empcolor="#0099e5"
       empopacity="0.30196078"
       color="#0099e5"
       opacity="0.14901961"
       empspacing="5"
       enabled="true"
       visible="true" />
  </sodipodi:namedview>
  <path
     fill="#1e88e5"
     d="m13.844 7.536-1.288-1.072A2 2 0 0 0 11.276 6H4a2 2 0 0 0-2 2v16a2 2 0 0 0 2 2h24a2 2 0 0 0 2-2V10a2 2 0 0 0-2-2H15.124a2 2 0 0 1-1.28-.464"
     id="path1" />
  <path
     fill="#bbdefb"
     d="M 14.366042,29.913689 C 14.010449,29.758776 14.004658,29.70714 14.004658,27.447143 v -2.036364 h 4.531591 v 4.588947 h -1.99045 c -1.571703,-0.0056 -2.036364,-0.02295 -2.179757,-0.08604 m 5.030577,-2.208432 v -2.294476 h 4.531659 v 4.588946 h -4.531659 z m -0.05727,-6.447513 c 0,-3.745669 0.01142,-3.940775 0.321192,-4.921655 0.298305,-0.946408 0.854726,-1.841258 1.588941,-2.552584 1.164474,-1.130002 2.53542,-1.715096 4.1702,-1.77818 1.204598,-0.04593 2.151082,0.160563 3.183598,0.688302 3.77442,1.950319 4.560271,7.135808 1.543021,10.158774 -1.061197,1.061197 -2.403468,1.674979 -3.95221,1.812721 -0.344221,0.02864 -2.030642,0.05727 -3.740018,0.05727 h -3.114648 z m 4.474234,-1.152962 V 17.552195 H 21.63375 v 5.105173 h 2.179759 z m 2.925409,0.745734 v -1.806932 h -2.179756 v 3.613857 h 2.179756 z m 2.925486,-1.462781 v -3.269494 h -2.17975 v 6.539197 h 2.179752 z m -15.659803,2.954166 v -2.323151 h 4.531591 v 4.646303 h -4.531591 z"
     id="path3"
     inkscape:label="path2"
     style="display:inline;stroke-width:0.0724219" />
</svg>
