<svg xmlns="http://www.w3.org/2000/svg" viewBox="0 0 32 32">
  <path d="M13.84376,7.53645l-1.28749-1.0729A2,2,0,0,0,11.27591,6H4A2,2,0,0,0,2,8V24a2,2,0,0,0,2,2H28a2,2,0,0,0,2-2V10a2,2,0,0,0-2-2H15.12412A2,2,0,0,1,13.84376,7.53645Z" style="fill: #616161"/>
  <g>
    <path d="M14,14H10V28h2V22h2a4,4,0,0,0,0-8Zm0,6H12V16h2a2,2,0,0,1,0,4Z" style="fill: #eee;fill-rule: evenodd"/>
    <polygon points="20 17 20 28 32 28 32 17 26 23 20 17" style="fill: #ffd180;fill-rule: evenodd"/>
    <polygon points="32 14 20 14 26 20 32 14" style="fill: #ffd180;fill-rule: evenodd"/>
  </g>
</svg>
