<?xml version="1.0" encoding="UTF-8" standalone="no"?>
<svg xmlns:dc="http://purl.org/dc/elements/1.1/" 
  xmlns:cc="http://creativecommons.org/ns#" 
  xmlns:rdf="http://www.w3.org/1999/02/22-rdf-syntax-ns#" 
  xmlns:svg="http://www.w3.org/2000/svg" 
  xmlns="http://www.w3.org/2000/svg" 
  xmlns:sodipodi="http://sodipodi.sourceforge.net/DTD/sodipodi-0.dtd" 
  xmlns:inkscape="http://www.inkscape.org/namespaces/inkscape" clip-rule="evenodd" stroke-linejoin="round" stroke-miterlimit="1.4142" version="1.1" viewBox="0 0 24 24" xml:space="preserve" id="svg10" sodipodi:docname="folder-utils-open.svg" inkscape:version="0.92.2 5c3e80d, 2017-08-06">
  <metadata id="metadata16">
    <rdf:RDF>
      <cc:Work rdf:about="">
        <dc:format>image/svg+xml</dc:format>
        <dc:type rdf:resource="http://purl.org/dc/dcmitype/StillImage" />
      </cc:Work>
    </rdf:RDF>
  </metadata>
  <defs id="defs14" />
  <sodipodi:namedview pagecolor="#ffffff" bordercolor="#666666" borderopacity="1" objecttolerance="10" gridtolerance="10" guidetolerance="10" inkscape:pageopacity="0" inkscape:pageshadow="2" inkscape:window-width="972" inkscape:window-height="555" id="namedview12" showgrid="false" inkscape:zoom="19.666667" inkscape:cx="10.022786" inkscape:cy="5.7955832" inkscape:window-x="20" inkscape:window-y="21" inkscape:window-maximized="0" inkscape:current-layer="svg10" />
  <path d="m19 20h-15c-1.11 0-2-0.9-2-2v-12c0-1.11 0.89-2 2-2h6l2 2h7c1.097 0 2 0.903 2 2h-17v10l2.14-8h17.07l-2.28 8.5c-0.23 0.87-1.01 1.5-1.93 1.5z" fill="#ffb300" id="path2" />
  <path d="M0 0h24v24H0z" fill="none" id="path7" />
  <path d="M 12.95,12.6 H 11.9 v 7.35 c 0,0.5775 0.4725,1.05 1.05,1.05 h 7.35 v -1.05 h -7.35 z m 8.4,-2.1 h -6.3 C 14.4725,10.5 14,10.9725 14,11.55 v 6.3 c 0,0.5775 0.4725,1.05 1.05,1.05 h 6.3 c 0.5775,0 1.05,-0.4725 1.05,-1.05 v -6.3 c 0,-0.5775 -0.4725,-1.05 -1.05,-1.05 z m -0.525,4.725 h -2.1 v 2.1 h -1.05 v -2.1 h -2.1 v -1.05 h 2.1 v -2.1 h 1.05 v 2.1 h 2.1 z" id="path8" inkscape:connector-curvature="0" style="stroke-width:0.52500004" />
</svg>