<svg xmlns="http://www.w3.org/2000/svg" viewBox="0 0 32 32"><path fill="#ab47bc" d="M28.965 12H9.441a2 2 0 0 0-1.898 1.368L4 24V10h23.998a2 2 0 0 0-2-2H15.122a2 2 0 0 1-1.28-.464l-1.287-1.072A2 2 0 0 0 11.275 6H3.999a2 2 0 0 0-2 2v16a2 2 0 0 0 2 2h21.998l4.805-11.212A2 2 0 0 0 28.964 12"/><path fill="#e1bee7" d="m24.029 28.172-1.474-3.447c1.417-.523 2.733-1.225 3.97-2.044zm-6.749-8.723-3.448-1.466 5.501-2.493a18.6 18.6 0 0 0-2.053 3.96m14.383-9.1s-4.458-1.907-9.55 3.187c-1.974 1.97-3.154 4.14-3.914 6.04a1.79 1.79 0 0 0 .409 1.916l1.916 1.908c.5.504 1.237.666 1.906.414a17.2 17.2 0 0 0 6.046-3.914c5.093-5.095 3.187-9.55 3.187-9.55m-6.374 6.363a1.82 1.82 0 0 1 0-2.547 1.81 1.81 0 0 1 2.552 0 1.81 1.81 0 0 1 0 2.547 1.81 1.81 0 0 1-2.552 0m-5.093 6.364-1.26-1.27zm-2.371 4.923 3.278-3.276a2.8 2.8 0 0 1-.873-.406l-3.675 3.682zm-3.811 0h1.259l4.299-4.284-1.282-1.27-4.276 4.285zm0-2.548 3.675-3.671a2.6 2.6 0 0 1-.408-.874l-3.267 3.277z"/></svg>