<svg xmlns="http://www.w3.org/2000/svg" viewBox="0 0 32 32">
  <path d="M28.96692,12H9.44152a2,2,0,0,0-1.89737,1.36754L4,24V10H28a2,2,0,0,0-2-2H15.1241a2,2,0,0,1-1.28038-.46357L12.5563,6.46357A2,2,0,0,0,11.27592,6H4A2,2,0,0,0,2,8V24a2,2,0,0,0,2,2H26l4.80523-11.21213A2,2,0,0,0,28.96692,12Z" style="fill: #5c6bc0"/>
  <g>
    <path d="M22,10A10,10,0,1,0,32,20,10,10,0,0,0,22,10Zm8,10a7.95942,7.95942,0,0,1-.26331,2H26l-2-2V18H20V14h4v2h2V13.08246A7.99843,7.99843,0,0,1,30,20ZM14,20a7.98285,7.98285,0,0,1,.12256-1.34723L18,20h4l2,2-2,2v4A8.00909,8.00909,0,0,1,14,20Z" style="fill: #c5cae9"/>
    <rect x="26" y="17" width="2" height="1" style="fill: #c5cae9"/>
  </g>
</svg>
