<svg xmlns="http://www.w3.org/2000/svg" clip-rule="evenodd" fill-rule="evenodd" stroke-linejoin="round" stroke-miterlimit="1.414" viewBox="0 0 24 24"><path d="M19 20H4a2 2 0 0 1-2-2V6c0-1.11.89-2 2-2h6l2 2h7c1.097 0 2 .903 2 2H4v10l2.14-8h17.07l-2.28 8.5c-.23.87-1.01 1.5-1.93 1.5z" fill="#4DD0E1" fill-rule="nonzero"/><path d="M17.073 11.395h-2.57c-.566 0-1.028.463-1.028 1.029v7.197c0 .566.462 1.029 1.028 1.029h2.57v1.028h1.029v-11.31h-1.029zm0 7.712h-2.57l2.57-3.084zm4.628-7.712H19.13v1.029h2.57v6.683l-2.57-3.084v4.627h2.57c.566 0 1.029-.463 1.029-1.029v-7.197c0-.566-.463-1.029-1.028-1.029z" fill="#B2EBF2"/></svg>