<svg xmlns="http://www.w3.org/2000/svg" viewBox="0 0 24 24" fill="none"><path fill="#FF9800" d="M19 20H4a2 2 0 0 1-2-2V6c0-1.11.89-2 2-2h6l2 2h7c1.097 0 2 .903 2 2H4v10l2.14-8h17.07l-2.28 8.5c-.23.87-1.01 1.5-1.93 1.5Z"/><path fill="#FFE0B2" d="M21.155 16.437c-1.18 0-2.213.63-2.783 1.571-.327.038-.67.06-1.023.06-2.403 0-4.349-.973-4.349-2.175v-1.63c0 1.2 1.946 2.174 4.35 2.174 2.403 0 4.349-.973 4.349-2.175v1.631c0 .196-.054.386-.152.571-.12-.027-.261-.027-.392-.027Zm-3.806-1.088c2.404 0 4.35-.973 4.35-2.174 0-1.202-1.946-2.175-4.35-2.175-2.403 0-4.349.973-4.349 2.175 0 1.201 1.946 2.175 4.35 2.175Zm.599 3.785c-.196.021-.397.021-.599.021-2.403 0-4.349-.973-4.349-2.175v1.632c0 1.201 1.946 2.174 4.35 2.174.25 0 .489 0 .723-.032a3.23 3.23 0 0 1-.18-1.055c0-.196.022-.38.055-.566Zm3.207-1.61-1.63 1.631h1.087v2.175h1.087v-2.175h1.087l-1.63-1.63Z"/></svg>