<svg xmlns="http://www.w3.org/2000/svg" viewBox="0 0 32 32">
  <path d="M28.96692,12H9.44152a2,2,0,0,0-1.89737,1.36754L4,24V10H28a2,2,0,0,0-2-2H15.1241a2,2,0,0,1-1.28038-.46357L12.5563,6.46357A2,2,0,0,0,11.27592,6H4A2,2,0,0,0,2,8V24a2,2,0,0,0,2,2H26l4.80523-11.21213A2,2,0,0,0,28.96692,12Z" style="fill: #0097a7"/>
  <g>
    <polygon points="25.375 24.781 20 20.48 20 14 22 14 22 19.52 26.625 23.219 25.375 24.781" style="fill: #b2ebf2"/>
    <path d="M22,30A10,10,0,1,1,32,20,10.01146,10.01146,0,0,1,22,30Zm0-18a8,8,0,1,0,8,8A8.00917,8.00917,0,0,0,22,12Z" style="fill: #b2ebf2"/>
  </g>
</svg>
