<?xml version="1.0" encoding="UTF-8" standalone="no"?>
<svg
   clip-rule="evenodd"
   stroke-linejoin="round"
   stroke-miterlimit="1.414"
   viewBox="0 0 24 24"
   xml:space="preserve"
   version="1.1"
   id="svg6"
   sodipodi:docname="folder-notification-open.svg"
   inkscape:version="1.1.2 (0a00cf5339, 2022-02-04)"
   xmlns:inkscape="http://www.inkscape.org/namespaces/inkscape"
   xmlns:sodipodi="http://sodipodi.sourceforge.net/DTD/sodipodi-0.dtd"
   xmlns="http://www.w3.org/2000/svg"
   xmlns:svg="http://www.w3.org/2000/svg"><defs
     id="defs10" /><sodipodi:namedview
     id="namedview8"
     pagecolor="#ffffff"
     bordercolor="#666666"
     borderopacity="1.0"
     inkscape:pageshadow="2"
     inkscape:pageopacity="0.0"
     inkscape:pagecheckerboard="0"
     showgrid="false"
     inkscape:zoom="26.833333"
     inkscape:cx="11.440994"
     inkscape:cy="11.981366"
     inkscape:window-width="1680"
     inkscape:window-height="994"
     inkscape:window-x="0"
     inkscape:window-y="0"
     inkscape:window-maximized="1"
     inkscape:current-layer="svg6" /><path
     d="M19 20H4a2 2 0 0 1-2-2V6c0-1.11.89-2 2-2h6l2 2h7c1.097 0 2 .903 2 2H4v10l2.14-8h17.07l-2.28 8.5c-.23.87-1.01 1.5-1.93 1.5z"
     fill="#e57373"
     style="fill:#d32f2f"
     id="path2" /><path
     d="m 22.321272,20.020175 v 0.636359 H 10.866725 v -0.636359 l 1.272732,-1.27272 V 14.92927 c 0,-1.972734 1.291815,-3.710001 3.181815,-4.27 0,-0.06364 0,-0.120913 0,-0.184544 A 1.2727276,1.2727276 0 0 1 16.593997,9.202 a 1.2727276,1.2727276 0 0 1 1.272727,1.272726 c 0,0.06363 0,0.120914 0,0.184544 1.89,0.559999 3.181812,2.297266 3.181812,4.27 v 3.818185 l 1.272736,1.27272 m -4.454548,1.272727 A 1.2727276,1.2727276 0 0 1 16.593997,22.56562 1.2727276,1.2727276 0 0 1 15.321272,21.292902 M 21.525807,9.9592724 20.622176,10.862907 c 1.088184,1.075456 1.699096,2.539089 1.699096,4.066363 h 1.272726 c 0,-1.864548 -0.738189,-3.659094 -2.068191,-4.9699976 M 9.594,14.92927 h 1.272725 c 0,-1.527274 0.610897,-2.990907 1.699083,-4.066363 L 11.662186,9.9592724 C 10.33218,11.270176 9.594,13.064722 9.594,14.92927 Z"
     id="path169"
     style="stroke-width:0.636368;fill:#FFCDD2
" /></svg>
