<?xml version="1.0" encoding="UTF-8" standalone="no"?>
<svg
   xmlns:dc="http://purl.org/dc/elements/1.1/"
   xmlns:cc="http://creativecommons.org/ns#"
   xmlns:rdf="http://www.w3.org/1999/02/22-rdf-syntax-ns#"
   xmlns:svg="http://www.w3.org/2000/svg"
   xmlns="http://www.w3.org/2000/svg"
   xmlns:sodipodi="http://sodipodi.sourceforge.net/DTD/sodipodi-0.dtd"
   xmlns:inkscape="http://www.inkscape.org/namespaces/inkscape"
   clip-rule="evenodd"
   fill-rule="evenodd"
   stroke-linejoin="round"
   stroke-miterlimit="1.4142"
   version="1.1"
   viewBox="0 0 24 24"
   xml:space="preserve"
   id="svg8"
   sodipodi:docname="folder-content.svg"
   inkscape:version="0.92.2 5c3e80d, 2017-08-06"><metadata
     id="metadata14"><rdf:RDF><cc:Work
         rdf:about=""><dc:format>image/svg+xml</dc:format><dc:type
           rdf:resource="http://purl.org/dc/dcmitype/StillImage" /></cc:Work></rdf:RDF></metadata><defs
     id="defs12"><inkscape:perspective
       sodipodi:type="inkscape:persp3d"
       inkscape:vp_x="0 : 12 : 1"
       inkscape:vp_y="0 : 1000 : 0"
       inkscape:vp_z="24 : 12 : 1"
       inkscape:persp3d-origin="12 : 8 : 1"
       id="perspective11" /></defs><sodipodi:namedview
     pagecolor="#ffffff"
     bordercolor="#666666"
     borderopacity="1"
     objecttolerance="10"
     gridtolerance="10"
     guidetolerance="10"
     inkscape:pageopacity="0"
     inkscape:pageshadow="2"
     inkscape:window-width="1021"
     inkscape:window-height="610"
     id="namedview10"
     showgrid="false"
     inkscape:zoom="9.8333333"
     inkscape:cx="13.220339"
     inkscape:cy="12"
     inkscape:window-x="0"
     inkscape:window-y="0"
     inkscape:window-maximized="0"
     inkscape:current-layer="svg8" /><path
     d="m10 4h-6c-1.11 0-2 0.89-2 2v12c0 1.097 0.903 2 2 2h16c1.097 0 2-0.903 2-2v-10c0-1.11-0.9-2-2-2h-8l-2-2z"
     fill="#ffb300"
     fill-rule="nonzero"
     id="path2" /><path
     fill="none"
     d="M-74 29h48v48h-48V29zM0 0h24v24H0V0zm0 0h24v24H0V0z"
     id="path6" /><path
     d="m 16.99091,15.511766 h 4.136362 V 16.52647 H 16.99091 Z m 0,-1.691177 h 4.136362 v 1.014705 H 16.99091 Z m 0,3.382352 h 4.136362 v 1.014707 H 16.99091 Z M 21.718182,10.1 H 11.081818 C 10.431818,10.1 9.9,10.708823 9.9,11.452941 v 8.794118 C 9.9,20.991177 10.431818,21.6 11.081818,21.6 H 21.718182 C 22.368182,21.6 22.9,20.991177 22.9,20.247059 V 11.452941 C 22.9,10.708823 22.368182,10.1 21.718182,10.1 Z m 0,10.147059 H 16.4 v -8.794118 h 5.318182 z"
     id="path8"
     inkscape:connector-curvature="0"
     style="stroke-width:0.63224411" /></svg>