<svg xmlns="http://www.w3.org/2000/svg" viewBox="0 0 32 32">
    <path fill="#0288d1" d="m13.844 7.536-1.288-1.072A2 2 0 0 0 11.276 6H4a2 2 0 0 0-2 2v16a2 2 0 0 0 2 2h24a2 2 0 0 0 2-2V10a2 2 0 0 0-2-2H15.124a2 2 0 0 1-1.28-.464"/>
    <path d="M14 20 C14.825 19.928, 16.346 20.187, 17.28 21 L23.72 27 C24.654 27.813, 26.175 28.072, 27 28 C29.21 28, 31 26.21, 31 24 C31 21.79, 29.21 20, 27 20 C26.175 19.928, 24.654 20.187, 23.72 21 L17.28 27 C16.346 27.813, 14.825 28.072, 14 28 C11.79 28, 10 26.21, 10 24 C10 21.79, 11.79 20, 14 20Z" fill="none" stroke="#b3e5fc" stroke-width="2" />
</svg>