<svg width="24" height="24" viewBox="0 0 24 24" fill="none" xmlns="http://www.w3.org/2000/svg">
<path d="M10 4H4C2.89 4 2 4.89 2 6V18C2 18.5304 2.21071 19.0391 2.58579 19.4142C2.96086 19.7893 3.46957 20 4 20H20C20.5304 20 21.0391 19.7893 21.4142 19.4142C21.7893 19.0391 22 18.5304 22 18V8C22 6.89 21.1 6 20 6H12L10 4Z" fill="#5AA3C8"/>
<path d="M15.7941 9L9 13.9798L11.1029 15.5211L20 9H15.7941Z" fill="#47C5FB"/>
<path d="M15.7467 13.5923L12.1089 16.2586L14.2197 17.8288L16.3187 16.2903L19.9999 13.5923H15.7467Z" fill="#47C5FB"/>
<path d="M14.2198 17.8286L15.8177 18.9998H19.9999L16.3188 16.2902L14.2198 17.8286Z" fill="#00569E"/>
<path d="M12.0853 16.2757L14.1883 14.7344L16.3188 16.2902L14.2198 17.8287L12.0853 16.2757Z" fill="#00B5F8"/>
<path d="M14.2198 17.8289L15.9676 17.4038L16.1412 16.4205L14.2198 17.8289Z" fill="url(#paint0_linear_11_14)" fill-opacity="0.8"/>
<defs>
<linearGradient id="paint0_linear_11_14" x1="21.8127" y1="54.4362" x2="147.598" y2="116.278" gradientUnits="userSpaceOnUse">
<stop/>
<stop offset="1" stop-opacity="0"/>
</linearGradient>
</defs>
</svg>
