<svg xmlns="http://www.w3.org/2000/svg" viewBox="0 0 16 16"><path id="folder" fill="#039be5" d="m6.922 3.768-.644-.536A1 1 0 0 0 5.638 3H2a1 1 0 0 0-1 1v8a1 1 0 0 0 1 1h12a1 1 0 0 0 1-1V5a1 1 0 0 0-1-1H7.562a1 1 0 0 1-.64-.232"/><path id="motive" fill="#b3e5fc" d="M11 5a5 5 0 1 0 5 5 5 5 0 0 0-5-5m3.459 3H12.98a8 8 0 0 0-.671-1.77A4.02 4.02 0 0 1 14.459 8M11 6a7 7 0 0 1 .945 2h-1.89A7 7 0 0 1 11 6m-1.309.23A8 8 0 0 0 9.02 8H7.541a4.02 4.02 0 0 1 2.15-1.77M7.131 11a3.85 3.85 0 0 1 0-2h1.704a7.8 7.8 0 0 0 0 2zm.41 1H9.02a8 8 0 0 0 .671 1.77A4.02 4.02 0 0 1 7.541 12M11 14a7 7 0 0 1-.945-2h1.89A7 7 0 0 1 11 14m1.155-3h-2.31a6.7 6.7 0 0 1 0-2h2.31a6.7 6.7 0 0 1 0 2m.154 2.77A8 8 0 0 0 12.98 12h1.479a4.02 4.02 0 0 1-2.15 1.77m2.56-2.77h-1.704a7.8 7.8 0 0 0 0-2h1.704a3.85 3.85 0 0 1 0 2"/></svg>