<svg viewBox="0 0 24 24" xmlns="http://www.w3.org/2000/svg" xml:space="preserve" style="fill-rule:evenodd;clip-rule:evenodd;stroke-linejoin:round;stroke-miterlimit:2"><path d="M19 20H4a2 2 0 0 1-2-2V6c0-1.11.89-2 2-2h6l2 2h7c1.097 0 2 .903 2 2H4v10l2.14-8h17.07l-2.28 8.5c-.23.87-1.01 1.5-1.93 1.5Z" style="fill:#00e676;fill-rule:nonzero"/><path d="M55.75 27.155c-3.222-5.54-11.278-5.54-14.5 0L6.134 87.535C2.912 93.075 6.94 100 13.384 100h27.414c-2.754-2.407-3.774-6.57-1.69-10.142l26.595-45.589-9.953-17.114Z" style="fill:#b9f6ca" transform="matrix(.11304 0 0 .11304 9.435 9.548)"/><path d="M78 40.4c2.667-4.533 9.333-4.533 12 0l29.061 49.401c2.667 4.533-.666 10.199-5.999 10.199H54.938c-5.333 0-8.666-5.666-5.999-10.199L78 40.4Z" style="fill:#b9f6ca;fill-rule:nonzero" transform="matrix(.11304 0 0 .11304 9.435 9.548)"/></svg>
