<svg xmlns="http://www.w3.org/2000/svg" viewBox="0 0 32 32"><path fill="#ff7043" d="m13.844 7.536-1.288-1.072A2 2 0 0 0 11.276 6H4a2 2 0 0 0-2 2v16a2 2 0 0 0 2 2h24a2 2 0 0 0 2-2V10a2 2 0 0 0-2-2H15.124a2 2 0 0 1-1.28-.464Z"/><path fill="#ffccbc" d="m12.593 18.589 5.784-5.794 1.692 1.7a1.983 1.983 0 0 0 .93 2.233v5.544a1.985 1.985 0 0 0-1 1.731 2.002 2.002 0 0 0 4.003 0A1.985 1.985 0 0 0 23 22.272v-4.864l2.071 2.092a1.17 1.17 0 0 0-.07.5 2.002 2.002 0 1 0 2.002-2.002 1.17 1.17 0 0 0-.5.07l-2.573-2.571a1.981 1.981 0 0 0-1.15-2.342 2.104 2.104 0 0 0-1.281-.09l-1.702-1.692.791-.78a1.975 1.975 0 0 1 2.822 0l7.996 7.996a1.975 1.975 0 0 1 0 2.822l-7.996 7.996a1.975 1.975 0 0 1-2.822 0l-7.996-7.996a1.975 1.975 0 0 1 0-2.822Z"/></svg>