<svg xmlns="http://www.w3.org/2000/svg" viewBox="0 0 32 32"><path fill="#546e7a" d="M28.967 12H9.442a2 2 0 0 0-1.898 1.368L4 24V10h24a2 2 0 0 0-2-2H15.124a2 2 0 0 1-1.28-.464l-1.288-1.072A2 2 0 0 0 11.276 6H4a2 2 0 0 0-2 2v16a2 2 0 0 0 2 2h22l4.805-11.212A2 2 0 0 0 28.967 12Z"/><path fill="#cfd8dc" d="m25 10-7 3.273v4.908c0 4.542 2.986 8.788 7 9.819 4.014-1.031 7-5.277 7-9.82v-4.907L25 10m0 3.273a2.457 2.457 0 1 1-2.333 2.454A2.396 2.396 0 0 1 25 13.273m3.99 9.817A7.595 7.595 0 0 1 25 26.298a7.597 7.597 0 0 1-3.99-3.208 8.443 8.443 0 0 1-.677-1.25c0-1.352 2.108-2.456 4.667-2.456s4.666 1.08 4.666 2.455a8.315 8.315 0 0 1-.676 1.251Z"/></svg>