<?xml version="1.0" encoding="UTF-8" standalone="no"?>
<svg
   xmlns:dc="http://purl.org/dc/elements/1.1/"
   xmlns:cc="http://creativecommons.org/ns#"
   xmlns:rdf="http://www.w3.org/1999/02/22-rdf-syntax-ns#"
   xmlns:svg="http://www.w3.org/2000/svg"
   xmlns="http://www.w3.org/2000/svg"
   xmlns:sodipodi="http://sodipodi.sourceforge.net/DTD/sodipodi-0.dtd"
   xmlns:inkscape="http://www.inkscape.org/namespaces/inkscape"
   version="1.1"
   width="24"
   height="24"
   viewBox="0 0 24 24"
   id="svg4"
   sodipodi:docname="folder-node-open.svg"
   inkscape:version="0.92.1 r15371">
  <metadata
     id="metadata10">
    <rdf:RDF>
      <cc:Work
         rdf:about="">
        <dc:format>image/svg+xml</dc:format>
        <dc:type
           rdf:resource="http://purl.org/dc/dcmitype/StillImage" />
      </cc:Work>
    </rdf:RDF>
  </metadata>
  <defs
     id="defs8" />
  <sodipodi:namedview
     pagecolor="#ffffff"
     bordercolor="#666666"
     borderopacity="1"
     objecttolerance="10"
     gridtolerance="10"
     guidetolerance="10"
     inkscape:pageopacity="0"
     inkscape:pageshadow="2"
     inkscape:window-width="1366"
     inkscape:window-height="705"
     id="namedview6"
     showgrid="false"
     inkscape:zoom="13.906433"
     inkscape:cx="3.014889"
     inkscape:cy="11.192897"
     inkscape:window-x="-8"
     inkscape:window-y="-8"
     inkscape:window-maximized="1"
     inkscape:current-layer="svg4" />
  <path
     style="fill:#90a4ae;fill-opacity:1"
     d="M 4 4 C 2.89 4 2 4.89 2 6 L 2 18 C 2 19.1 2.89 20 4 20 L 19 20 C 19.92 20 20.699687 19.37 20.929688 18.5 L 23.210938 10 L 6.140625 10 L 4 18 L 4 8 L 21 8 A 2 2 0 0 0 19 6 L 12 6 L 10 4 L 4 4 z M 14.429688 11.570312 L 17.064453 13.369141 L 16.099609 16.966797 L 12.501953 18.765625 L 9.8691406 16.966797 L 10.832031 13.369141 L 14.429688 11.570312 z "
     id="path2" />
  <text
     xml:space="preserve"
     style="font-style:normal;font-weight:normal;font-size:21.39353752px;line-height:1.25;font-family:sans-serif;letter-spacing:0px;word-spacing:0px;fill:#90a4ae;fill-opacity:1;stroke:none;stroke-width:0.5348385"
     x="15.404915"
     y="16.616138"
     id="text856"
     transform="skewX(-15)"><tspan
       sodipodi:role="line"
       id="tspan854"
       x="15.404915"
       y="16.616138"
       style="font-style:normal;font-variant:normal;font-weight:bold;font-stretch:normal;font-size:4.27870798px;font-family:'Segoe UI';-inkscape-font-specification:'Segoe UI Bold';fill:#90a4ae;fill-opacity:1;stroke-width:0.5348385">JS</tspan></text>
</svg>
