<svg xmlns="http://www.w3.org/2000/svg" viewBox="0 0 16 16"><path id="folder" fill="#ff6e40" d="m6.922 3.768-.644-.536A1 1 0 0 0 5.638 3H2a1 1 0 0 0-1 1v8a1 1 0 0 0 1 1h12a1 1 0 0 0 1-1V5a1 1 0 0 0-1-1H7.562a1 1 0 0 1-.64-.232"/><path id="motive" fill="#ffccbc" d="M11.492 5C8.993 5 6.971 7.02 7 9.516A4.47 4.47 0 0 0 11.522 14a4.3 4.3 0 0 0 1.973-.465l-3.104-3.1a.27.27 0 0 1-.089-.207.27.27 0 0 1 .09-.208l3.985-3.98A4.4 4.4 0 0 0 11.492 5m3.332 1.455-3.808 3.772 3.005 3c.237-.148.475-.356.654-.534 1.695-1.693 1.785-4.456.149-6.238m-.225 2.269a.35.35 0 0 1 .344.226c.297.594.208 1.307-.238 1.871a.335.335 0 0 1-.476.06.36.36 0 0 1-.03-.476c.238-.327.297-.772.119-1.128 0-.03-.03-.06-.03-.09-.06-.177.03-.386.208-.445a.4.4 0 0 1 .103-.018"/></svg>