<svg xmlns="http://www.w3.org/2000/svg" viewBox="0 0 32 32">
  <path d="M28.96692,12H9.44152a2,2,0,0,0-1.89737,1.36754L4,24V10H28a2,2,0,0,0-2-2H15.1241a2,2,0,0,1-1.28038-.46357L12.5563,6.46357A2,2,0,0,0,11.27592,6H4A2,2,0,0,0,2,8V24a2,2,0,0,0,2,2H26l4.80523-11.21213A2,2,0,0,0,28.96692,12Z" style="fill: #ef5350"/>
  <path d="M30,14H28a3,3,0,0,0-6,0H20a2,2,0,0,0-2,2V26a2,2,0,0,0,2,2H30a2,2,0,0,0,2-2V16A2,2,0,0,0,30,14Zm-5-1a1,1,0,1,1-1,1A1.003,1.003,0,0,1,25,13ZM23.45331,24.59729,20.36,21.504l1.09063-1.09064,2.00269,1.996,5.096-5.096L29.64,18.412Z" style="fill: #ffcdd2;fill-rule: evenodd"/>
</svg>
