<svg version="1.1" viewBox="0 0 32 32" xmlns="http://www.w3.org/2000/svg">
 <path d="M28.967 12H9.442a2 2 0 0 0-1.898 1.368L4 24V10h24a2 2 0 0 0-2-2H15.124a2 2 0 0 1-1.28-.464l-1.288-1.072A2 2 0 0 0 11.276 6H4a2 2 0 0 0-2 2v16a2 2 0 0 0 2 2h22l4.805-11.212A2 2 0 0 0 28.967 12" fill="#5c6bc0"/>
 <path d="m16.525 10a0.375 0.375 0 0 0-0.32422 0.18555l-5.0312 8.625a0.375 0.375 0 0 0 0 0.37891l5.0312 8.625a0.375 0.375 0 0 0 0.32422 0.18555h10.068a0.375 0.375 0 0 0 0.32422-0.18555l5.0312-8.625a0.375 0.375 0 0 0 0-0.3789l-5.0312-8.625a0.375 0.375 0 0 0-0.32422-0.18555zm5.0098 2.2949a0.375 0.375 0 0 1 0.19141 0.03906l5.625 2.8125a0.375 0.375 0 0 1 0.20703 0.33594v7.0352a0.375 0.375 0 0 1-0.20703 0.33594l-5.625 2.8125a0.375 0.375 0 0 1-0.33594 0l-5.625-2.8125a0.375 0.375 0 0 1-0.20703-0.33594v-7.0352a0.375 0.375 0 0 1 0.20703-0.33594l5.625-2.8125a0.375 0.375 0 0 1 0.14453-0.03906zm0 1.6875a0.375 0.375 0 0 0-0.14453 0.03906l-4.125 2.0625a0.375 0.375 0 0 0-0.20703 0.33594v5.1602a0.375 0.375 0 0 0 0.20703 0.33594l4.125 2.0625a0.375 0.375 0 0 0 0.33594 0l4.125-2.0625a0.375 0.375 0 0 0 0.20703-0.33594v-5.1602a0.375 0.375 0 0 0-0.20703-0.33594l-4.125-2.0625a0.375 0.375 0 0 0-0.19141-0.03906z" fill="#c5cae9" stroke-width=".75"/>
</svg>
