<svg width="24" height="24" viewBox="0 0 24 24" fill="none" xmlns="http://www.w3.org/2000/svg">
<path d="M10 4H4C2.89 4 2 4.89 2 6V18C2 19.097 2.903 20 4 20H20C21.097 20 22 19.097 22 18V8C22 7.46957 21.7893 6.96086 21.4142 6.58579C21.0391 6.21071 20.5304 6 20 6H12L10 4Z" fill="#1976D2"/>
<path fill-rule="evenodd" clip-rule="evenodd" d="M11.45 8.45H16.6947V14.6946L10.45 14.6946V9.45C10.45 8.89771 10.8977 8.45 11.45 8.45ZM10.45 15.6554V20.9C10.45 21.4523 10.8977 21.9 11.45 21.9H16.6947V15.6554H10.45ZM17.6554 15.6554V21.9H22.9C23.4523 21.9 23.9 21.4523 23.9 20.9V15.6554H17.6554ZM23.9 14.6946V9.45C23.9 8.89771 23.4523 8.45 22.9 8.45H17.6554V14.6946L23.9 14.6946Z" fill="#BBDEFB"/>
</svg>
