<?xml version="1.0" encoding="UTF-8"?>
<svg clip-rule="evenodd" fill-rule="evenodd" stroke-linejoin="round" stroke-miterlimit="1.4142" version="1.1" viewBox="0 0 24 24" xml:space="preserve" 
    xmlns="http://www.w3.org/2000/svg">         
    <path d=" M 19.063 19.938 L 4.063 19.938 C 2.952 19.938 2.063 19.038 2.063 17.938 L 2.063 5.938 C 2.063 4.828 2.953 3.938 4.063 3.938 L 10.063 3.938 L 12.063 5.938 L 19.063 5.938 C 20.16 5.938 21.063 6.841 21.063 7.938 L 4.063 7.938 L 4.063 17.938 L 6.203 9.938 L 23.273 9.938 L 20.993 18.438 C 20.763 19.308 19.982 19.938 19.063 19.938 Z " fill="rgb(70,70,70)"/>
    <path d=" M 9.031 21.532 L 9.031 12.698 L 9.031 11.613 L 10.75 11.603 C 13.564 11.603 14.901 12.206 14.95 14.627 C 14.86 17.11 13.604 17.814 10.74 17.653 L 10.74 21.532 L 9.031 21.532 Z  M 10.73 16.286 L 10.72 12.909 Q 13.534 12.728 13.514 14.618 Q 13.494 16.507 10.73 16.286 Z " fill-rule="evenodd" fill="rgb(232,232,232)"/>
    <path d=" M 15.815 21.542 L 15.835 13.613 L 19.765 17.225 L 23.594 13.472 L 23.634 21.562 L 15.815 21.542 Z " fill="rgb(248,216,125)"/>
    <path d=" M 15.815 11.603 L 19.755 15.351 L 23.574 11.562 L 15.815 11.603 Z " fill="rgb(248,216,125)"/>
</svg>