<svg xmlns="http://www.w3.org/2000/svg" xmlns:xlink="http://www.w3.org/1999/xlink" viewBox="0 0 32 32"><defs><linearGradient id="a" x1="1900.681" x2="1971.195" y1="2029.643" y2="2094.383" gradientTransform="matrix(.3031 0 0 .33012 -563.43 -666.868)" gradientUnits="userSpaceOnUse"><stop offset="0" stop-color="#ba68c8"/><stop offset="1" stop-color="#7e57c2"/></linearGradient><linearGradient id="b" x1="1941.881" x2="1903.835" y1="2094.543" y2="2042.593" gradientTransform="matrix(.30439 0 0 .32873 -562.803 -659.828)" gradientUnits="userSpaceOnUse"><stop offset="0" stop-color="#7e57c2"/><stop offset=".14" stop-color="#7b1fa2"/><stop offset=".29" stop-color="#ad1457"/><stop offset=".84" stop-color="#c2185b"/><stop offset="1" stop-color="#ec407a"/></linearGradient><linearGradient xlink:href="#a" id="c" x1="1724.927" x2="1791.601" y1="2182.482" y2="2275.279" gradientTransform="matrix(.3299 0 0 .30331 -565.358 -657.724)"/><linearGradient xlink:href="#a" id="d" x1="1793.759" x2="1875.779" y1="2101.188" y2="2168.469" gradientTransform="matrix(.31601 0 0 .31665 -559.595 -661.081)"/><linearGradient xlink:href="#a" id="e" x1="1817.883" x2="1894.351" y1="2130.411" y2="2197.794" gradientTransform="matrix(.31642 0 0 .31622 -569.167 -663.436)"/><linearGradient xlink:href="#b" id="f" x1="1962.514" x2="1924.373" y1="2123.223" y2="2071.047" gradientTransform="matrix(.30448 0 0 .32864 -567.814 -667.345)"/><linearGradient xlink:href="#a" id="g" x1="1903.406" x2="1973.987" y1="2025.692" y2="2103.839" gradientTransform="matrix(.30312 0 0 .33012 -563.404 -666.844)"/><linearGradient id="h" x1="2232.134" x2="2273.567" y1="1794.832" y2="1753.862" gradientTransform="rotate(11.284 3096.4 -3207.367)scale(.31697 .3157)" gradientUnits="userSpaceOnUse"><stop offset="0" stop-color="#7e57c2"/><stop offset=".14" stop-color="#7b1fa2"/><stop offset=".53" stop-color="#ad1457"/><stop offset=".79" stop-color="#c2185b"/><stop offset="1" stop-color="#ec407a"/></linearGradient></defs><path fill="#f06292" d="m13.844 7.536-1.288-1.072A2 2 0 0 0 11.276 6H4a2 2 0 0 0-2 2v16a2 2 0 0 0 2 2h24a2 2 0 0 0 2-2V10a2 2 0 0 0-2-2H15.124a2 2 0 0 1-1.28-.464"/><path fill="url(#a)" d="m25.787 15.333-1.671 1.144-1.72-2.646 1.67-1.144Z"/><path fill="url(#b)" d="M27.145 23.283 30 27.672 26.6 30l-2.855-4.389-.498-.765 3.4-2.328Z"/><path fill="url(#c)" d="m22.864 26.215.628.966-2.588 1.772-1.127-1.732.566-.387 2.023-1.385Z"/><path fill="url(#d)" d="m28.56 21.208.727-.497 1.126 1.732-1.671 1.144-.628-.967.945-.647Zm-.447 1.412-.497-.765.945-.647.498.765Z"/><path fill="url(#e)" d="m16.844 21.457-.565.387-1.72-2.647 2.587-1.772 1.206 1.855-2.022 1.385 2.023-1.385.515.791Z"/><path fill="url(#f)" d="m22.635 16.348.515.79-3.4 2.329-.515-.791-2.828-4.348 3.4-2.328Z"/><path fill="url(#g)" d="m25.062 15.83-.945.647-.515-.792-1.206-1.855 1.67-1.144 1.722 2.646Z"/><path fill="#673ab7" d="m20.84 27.6-.497-.765 2.023-1.386.497.766Zm7.273-4.98-.498-.764.945-.647.498.765Z"/><path fill="#ab47bc" d="m16.844 21.457-.515-.791 2.023-1.385.515.79Z"/><path fill="#7e57c2" d="m24.117 16.477-.514-.791.945-.648.514.791Z"/><path fill="#880e4f" d="m27.145 23.283-3.4 2.328-.497-.766 3.399-2.328Z"/><path fill="#ad1457" d="m22.635 16.347.515.792-3.4 2.329-.515-.793Z"/><path fill="#ab47bc" d="m15.88 15.715.642.986-.962.659-.642-.987Z"/><path fill="#7e57c2" d="m19.346 27.545.642.987-.962.659-.641-.988Z"/><path fill="url(#h)" d="M16.815 28.539 14 24.175l15.048-10.328L32 18.142Z"/></svg>