<svg xmlns="http://www.w3.org/2000/svg" viewBox="0 0 32 32"><path fill="#039be5" d="m13.844 7.536-1.288-1.072A2 2 0 0 0 11.276 6H4a2 2 0 0 0-2 2v16a2 2 0 0 0 2 2h24a2 2 0 0 0 2-2V10a2 2 0 0 0-2-2H15.124a2 2 0 0 1-1.28-.464"/><path fill="#b3e5fc" d="M14 16h4v4h-4zm-6 0h4v4H8zm12 0h4v4h-4zm0-6h4v4h-4z"/><path fill="#b3e5fc" d="M31.667 19.81a3.65 3.65 0 0 0-3.067-.377 4.6 4.6 0 0 0-1.667-2.945l-.333-.302-.267.378a4.44 4.44 0 0 0-.667 2.793 5 5 0 0 0 .233 1.101l-.62 1.283A5.1 5.1 0 0 1 23.6 22H6a15.3 15.3 0 0 0 .865 4.757l.267.528v.076a8.22 8.22 0 0 0 7.6 4.38c6 0 10.934-2.945 13.268-9.288a3.605 3.605 0 0 0 3.8-2.039l.2-.377ZM12 28a2 2 0 1 1 2-2 2 2 0 0 1-2 2"/></svg>