<?xml version="1.0" encoding="UTF-8"?>
<svg fill="none" version="1.1" viewBox="0 0 24 24" xmlns="http://www.w3.org/2000/svg">
  <path d="M19 20H4C3.46957 20 2.96086 19.7893 2.58579 19.4142C2.21071 19.0391 2 18.5304 2 18V6C2 4.89 2.89 4 4 4H10L12 6H19C20.097 6 21 6.903 21 8H4V18L6.14 10H23.21L20.93 18.5C20.7 19.37 19.92 20 19 20Z" fill="#2196F3"/>
  <path d="m18.144 17.98v2.7918h5.5835v-5.5834h-5.5835v2.7916zm-5.9822 0v2.7918h5.5833v-5.5834h-5.5833v2.7916zm5.9822-5.9823v2.7918h5.5835v-5.5834h-5.5835v2.7916zm-5.9822 0v2.7918h5.5833v-5.5834h-5.5833v2.7916z" fill="#BBDEFB"/>
</svg>
