<svg xmlns="http://www.w3.org/2000/svg" viewBox="0 0 16 16"><path id="folder" fill="#ff9800" d="m6.922 3.768-.644-.536A1 1 0 0 0 5.638 3H2a1 1 0 0 0-1 1v8a1 1 0 0 0 1 1h12a1 1 0 0 0 1-1V5a1 1 0 0 0-1-1H7.562a1 1 0 0 1-.64-.232"/><path id="motive" fill="#ffe0b2" d="M9.035 11.47a.497.496 0 1 1-.497-.497.497.496 0 0 1 .497.497m6.965 0a2.487 2.482 0 1 1-4.408-1.56 2.288 2.283 0 0 1-1.134 0 2.512 2.506 0 1 1-1.353-.851 2.487 2.482 0 1 1 3.84 0A2.468 2.462 0 0 1 16 11.469m-5.97 0a1.492 1.489 0 1 0-1.492 1.49 1.492 1.489 0 0 0 1.492-1.49m.995-2.481a1.492 1.489 0 1 0-1.492-1.489 1.492 1.489 0 0 0 1.492 1.489m3.98 2.482a1.492 1.489 0 1 0-1.493 1.489 1.492 1.489 0 0 0 1.493-1.49m-1.493-.496a.497.496 0 1 0 .498.497.497.496 0 0 0-.498-.497m-2.487-3.97a.497.496 0 1 0 .497.496.497.496 0 0 0-.497-.496"/></svg>