<svg clip-rule="evenodd" stroke-linejoin="round" stroke-miterlimit="1.414" viewBox="0 0 24 24" xml:space="preserve" xmlns="http://www.w3.org/2000/svg"><path d="M10 4H4c-1.1 0-2 .9-2 2v12c0 1.1.9 2 2 2h16c1.1 0 2-.9 2-2V8c0-1.1-.9-2-2-2h-8l-2-2z" fill="#26a69a"/><path d="m20.146 12.271-.005-.002-.007-.004a.036.036 0 0 1-.01-.032l.263-1.605 1.23 1.232-1.28.544a.025.025 0 0 1-.01.003h-.006l-.006-.006a.586.586 0 0 0-.169-.13zm1.786-.098 1.317 1.317c.273.274.41.41.46.57a.594.594 0 0 1 .019.07l-3.147-1.332-.005-.003c-.013-.005-.027-.01-.027-.023s.015-.02.027-.025l.005-.001zm1.742 2.38c-.068.127-.2.26-.424.484l-1.485 1.484-1.92-.4-.01-.002c-.018-.002-.035-.006-.035-.02a.583.583 0 0 0-.223-.406c-.008-.008-.006-.02-.003-.03v-.006l.362-2.217v-.007c.002-.018.006-.037.021-.037a.587.587 0 0 0 .395-.226c.002-.003.004-.007.009-.009.01-.005.023 0 .034.005zm-2.25 2.31-2.442 2.44.418-2.567v-.004l.002-.01c.004-.008.013-.011.022-.014l.004-.002a.638.638 0 0 0 .236-.176.052.052 0 0 1 .03-.02.016.016 0 0 1 .01 0l1.72.353zm-2.958 2.958-.276.274-3.042-4.396-.003-.004c-.004-.007-.01-.013-.01-.02a.033.033 0 0 1 .008-.016l.004-.003a.623.623 0 0 0 .025-.042l.008-.012V15.6a.052.052 0 0 1 .017-.02c.008-.004.018-.002.026 0l3.37.694c.01.001.018.005.025.011.005.005.006.01.007.014a.595.595 0 0 0 .349.4c.01.005.005.015.001.027a.048.048 0 0 0-.005.014zm-.575.574c-.203.2-.322.307-.458.35a.683.683 0 0 1-.41 0c-.158-.05-.294-.187-.568-.46L13.4 17.228l.798-1.237a.07.07 0 0 1 .013-.016c.01-.007.022-.004.032 0a.829.829 0 0 0 .556-.028c.01-.004.018-.006.025 0a.099.099 0 0 1 .01.011zm-4.785-3.46-.702-.7 1.385-.591a.025.025 0 0 1 .01-.003c.012 0 .02.012.025.022a.755.755 0 0 0 .045.062l.003.006c.005.006.002.012-.002.017zm-1.011-1.011-.887-.887c-.15-.15-.26-.26-.337-.354l2.696.559.01.001c.017.003.036.006.036.022 0 .017-.02.025-.037.032l-.009.002zm-1.378-1.697a.641.641 0 0 1 .03-.168c.05-.159.187-.295.46-.57l1.135-1.133c.523.758 1.047 1.515 1.572 2.272.009.012.019.025.009.035a.93.93 0 0 0-.134.18.063.063 0 0 1-.017.02c-.005.004-.01.002-.015 0h-.001zm1.93-2.176 1.525-1.524c.143.062.665.282 1.131.48l.777.329c.01.005.02.008.024.019a.05.05 0 0 1 0 .02.681.681 0 0 0 .177.62c.01.01 0 .026-.008.038l-.005.007-1.549 2.4a.051.051 0 0 1-.015.016c-.008.006-.02.003-.029.001a.778.778 0 0 0-.184-.025.96.96 0 0 0-.178.022c-.007 0-.013.001-.018-.002a.093.093 0 0 1-.016-.018zm1.833-1.832 1.975-1.976c.274-.273.41-.41.569-.46a.683.683 0 0 1 .409 0c.158.05.296.187.568.46l.43.428-1.406 2.176a.06.06 0 0 1-.014.016c-.008.006-.02.003-.03 0a.71.71 0 0 0-.652.126c-.01.01-.024.004-.035-.001-.183-.08-1.61-.683-1.814-.77zm4.248-1.25 1.297 1.297-.313 1.936v.005c0 .004 0 .009-.003.013-.002.007-.01.008-.016.01a.635.635 0 0 0-.193.099c-.004.003-.007.007-.014.008a.082.082 0 0 1-.015-.002l-1.976-.84-.004-.002c-.012-.004-.027-.011-.027-.024a.744.744 0 0 0-.106-.31c-.009-.017-.02-.032-.012-.048zm-1.336 2.924 1.853.785c.01.004.022.009.026.02a.069.069 0 0 1 0 .019.444.444 0 0 0-.01.089v.052c0 .013-.014.019-.026.023l-.004.002c-.293.125-4.12 1.757-4.126 1.757-.005 0-.012 0-.018-.006-.01-.01 0-.024.01-.037l.004-.007 1.523-2.357.002-.005c.01-.014.02-.03.035-.03l.016.002a.69.69 0 0 0 .67-.295.06.06 0 0 1 .012-.014c.009-.006.023-.002.033.002zm-2.121 3.12 4.172-1.78s.005 0 .01.006a.506.506 0 0 0 .062.053l.01.006c.008.005.016.01.017.019v.008l-.358 2.196-.002.008c-.002.018-.005.036-.02.036a.585.585 0 0 0-.467.289l-.001.003c-.005.007-.01.015-.017.018a.036.036 0 0 1-.024.001l-3.327-.686c-.003-.001-.051-.176-.055-.177z" fill="#a7ffeb"/></svg>