<svg xmlns="http://www.w3.org/2000/svg" viewBox="0 0 16 16"><path id="folder" fill="#757575" d="m6.922 3.768-.644-.536A1 1 0 0 0 5.638 3H2a1 1 0 0 0-1 1v8a1 1 0 0 0 1 1h12a1 1 0 0 0 1-1V5a1 1 0 0 0-1-1H7.562a1 1 0 0 1-.64-.232"/><g id="motive" fill="none" transform="translate(7.265 5.228)scale(.08531)"><path stroke="#ff6d00" stroke-width="12.5" d="M29 84V35a25 25 0 0 1 25-25h10" class="prefix__prefix__orange"/><path stroke="#d50000" stroke-width="12.5" d="M29 84V69a25 25 0 0 1 25-25h10" class="prefix__prefix__red"/><circle cx="71" cy="10" r="9" stroke="#ff6d00" stroke-width="7.5" class="prefix__prefix__orange"/><circle cx="71" cy="44" r="9" stroke="#d50000" stroke-width="7.5" class="prefix__prefix__red"/><circle cx="29" cy="90" r="9" stroke="#d50000" stroke-width="7.5" class="prefix__prefix__red"/></g></svg>