<svg version="1.1" viewBox="0 0 32 32" xml:space="preserve" xmlns="http://www.w3.org/2000/svg"><path d="m13.844 7.536-1.288-1.072c-0.35927-0.2996-0.8122-0.46379-1.28-0.464h-7.276c-1.1046 0-2 0.89543-2 2v16c0 1.1046 0.89543 2 2 2h24c1.1046 0 2-0.89543 2-2v-14c0-1.1046-0.89543-2-2-2h-12.876c-0.4678-2.105e-4 -0.92073-0.1644-1.28-0.464" fill="#5c6bc0"/><g transform="matrix(.75 0 0 .75 9.6102 7)" fill="#c5cae9"><path d="m9.853 4-6.6667 12 6.6667 12h13.333l6.6667-12-6.6667-12h-13.333zm6.6667 3.3333 8 3.3333v10.667l-8 3.3333-8-3.3333v-10.667l8-3.3333z" stroke-width="1.3333"/><path d="m11.186 12.444v7.1111l5.3333 2.2222 5.3333-2.2222v-7.1111l-5.3333-2.2222z" stroke-width=".88889"/></g></svg>
