<?xml version="1.0" encoding="UTF-8" standalone="no"?>
<svg
   viewBox="0 0 32 32"
   version="1.1"
   id="svg2"
   sodipodi:docname="folder-cmake-open.svg"
   inkscape:version="1.4.3 (0d15f75, 2025-12-25)"
   xmlns:inkscape="http://www.inkscape.org/namespaces/inkscape"
   xmlns:sodipodi="http://sodipodi.sourceforge.net/DTD/sodipodi-0.dtd"
   xmlns="http://www.w3.org/2000/svg"
   xmlns:svg="http://www.w3.org/2000/svg">
  <defs
     id="defs2" />
  <sodipodi:namedview
     id="namedview2"
     pagecolor="#ffffff"
     bordercolor="#000000"
     borderopacity="0.25"
     inkscape:showpageshadow="2"
     inkscape:pageopacity="0.0"
     inkscape:pagecheckerboard="0"
     inkscape:deskcolor="#d1d1d1"
     showguides="false"
     inkscape:zoom="20.646686"
     inkscape:cx="19.494654"
     inkscape:cy="20.318031"
     inkscape:window-width="1470"
     inkscape:window-height="820"
     inkscape:window-x="0"
     inkscape:window-y="33"
     inkscape:window-maximized="0"
     inkscape:current-layer="svg2" />
  <path
     fill="#546e7a"
     d="M 28.967,12 H 9.4419997 A 2,2 0 0 0 7.544,13.368 L 4,24 V 10 H 28 A 2,2 0 0 0 26,8.0000002 H 15.124 a 2,2 0 0 1 -1.28,-0.464 L 12.556,6.4640003 a 2,2 0 0 0 -1.28,-0.464 H 4 A 2,2 0 0 0 2,8.0000002 V 24 a 2,2 0 0 0 2,2 H 26 L 30.805,14.788 A 2,2 0 0 0 28.967,12"
     id="path1"
     style="fill:#455a64;fill-opacity:1" />
  <path
     fill="#1e88e5"
     d="M 22.947537,11.096986 15,27 23.708603,19.530442 Z"
     id="path1-8"
     style="fill:#bbdefb;fill-opacity:1;stroke-width:0.881886" />
  <path
     fill="#e53935"
     d="m 22.963409,11.095222 0.002,0.255749 1.157033,12.786431 -0.002,0.0054 0.02027,0.229289 6.493312,2.626251 h 0.36598 l -0.139347,-0.273358 -0.100523,-0.201071 h -8.82e-4 l -7.79586,-15.427657 z"
     id="path2"
     style="fill:#ffcdd2;fill-opacity:1;stroke-width:0.881886" />
  <path
     fill="#7cb342"
     d="m 19.965004,22.690235 -4.962363,4.307116 h 15.647268 v -0.01423 z"
     id="path3"
     style="opacity:0.829146;fill:#c8e6c9;fill-opacity:1;stroke-width:0.881886" />
</svg>
