<svg clip-rule="evenodd" fill-rule="evenodd" stroke-linejoin="round" stroke-miterlimit="1.414" viewBox="0 0 24 24" xml:space="preserve" xmlns="http://www.w3.org/2000/svg"><path d="M10 4H4C2.89 4 2 4.89 2 6V18C2 19.097 2.903 20 4 20H20C21.097 20 22 19.097 22 18V8C22 7.46957 21.7893 6.96086 21.4142 6.58579C21.0391 6.21071 20.5304 6 20 6H12L10 4Z" fill="#3470A6"/><path d="M17 12.8333C17.221 12.8333 17.433 12.9211 17.5893 13.0774C17.7455 13.2337 17.8333 13.4457 17.8333 13.6667C17.8333 13.975 17.6667 14.2458 17.4167 14.3875V14.9167H17.8333C18.6069 14.9167 19.3487 15.224 19.8957 15.7709C20.4427 16.3179 20.75 17.0598 20.75 17.8333H21.1667C21.2772 17.8333 21.3832 17.8772 21.4613 17.9554C21.5394 18.0335 21.5833 18.1395 21.5833 18.25V19.5C21.5833 19.6105 21.5394 19.7165 21.4613 19.7946C21.3832 19.8728 21.2772 19.9167 21.1667 19.9167H20.75V20.3333C20.75 20.5543 20.6622 20.7663 20.5059 20.9226C20.3496 21.0789 20.1377 21.1667 19.9167 21.1667H14.0833C13.8623 21.1667 13.6504 21.0789 13.4941 20.9226C13.3378 20.7663 13.25 20.5543 13.25 20.3333V19.9167H12.8333C12.7228 19.9167 12.6168 19.8728 12.5387 19.7946C12.4606 19.7165 12.4167 19.6105 12.4167 19.5V18.25C12.4167 18.1395 12.4606 18.0335 12.5387 17.9554C12.6168 17.8772 12.7228 17.8333 12.8333 17.8333H13.25C13.25 17.0598 13.5573 16.3179 14.1043 15.7709C14.6513 15.224 15.3931 14.9167 16.1667 14.9167H16.5833V14.3875C16.3333 14.2458 16.1667 13.975 16.1667 13.6667C16.1667 13.4457 16.2545 13.2337 16.4107 13.0774C16.567 12.9211 16.779 12.8333 17 12.8333ZM15.125 17.4167C14.8487 17.4167 14.5838 17.5264 14.3884 17.7218C14.1931 17.9171 14.0833 18.1821 14.0833 18.4583C14.0833 18.7346 14.1931 18.9996 14.3884 19.1949C14.5838 19.3903 14.8487 19.5 15.125 19.5C15.4013 19.5 15.6662 19.3903 15.8616 19.1949C16.0569 18.9996 16.1667 18.7346 16.1667 18.4583C16.1667 18.1821 16.0569 17.9171 15.8616 17.7218C15.6662 17.5264 15.4013 17.4167 15.125 17.4167ZM18.875 17.4167C18.5987 17.4167 18.3338 17.5264 18.1384 17.7218C17.9431 17.9171 17.8333 18.1821 17.8333 18.4583C17.8333 18.7346 17.9431 18.9996 18.1384 19.1949C18.3338 19.3903 18.5987 19.5 18.875 19.5C19.1513 19.5 19.4162 19.3903 19.6116 19.1949C19.8069 18.9996 19.9167 18.7346 19.9167 18.4583C19.9167 18.1821 19.8069 17.9171 19.6116 17.7218C19.4162 17.5264 19.1513 17.4167 18.875 17.4167Z" fill="#9DCFF9"/></svg>
