<svg width="24" height="24" viewBox="0 0 24 24" fill="none" xmlns="http://www.w3.org/2000/svg">
<path d="M10 4H4C2.89 4 2 4.89 2 6V18C2 19.097 2.903 20 4 20H20C21.097 20 22 19.097 22 18V8C22 6.89 21.1 6 20 6H12L10 4Z" fill="#EF5350"/>
<path fill-rule="evenodd" clip-rule="evenodd" d="M14.0597 17.448L11.7399 15.1282L12.5576 14.3105L14.0597 15.8068L17.8815 11.985L18.6992 12.8085M15.2195 9.32885C15.3733 9.32885 15.5208 9.38995 15.6296 9.49871C15.7383 9.60747 15.7994 9.75498 15.7994 9.90879C15.7994 10.0626 15.7383 10.2101 15.6296 10.3189C15.5208 10.4276 15.3733 10.4887 15.2195 10.4887C15.1433 10.4887 15.0679 10.4737 14.9976 10.4446C14.9272 10.4154 14.8633 10.3727 14.8094 10.3189C14.7556 10.265 14.7129 10.2011 14.6837 10.1307C14.6546 10.0604 14.6396 9.98494 14.6396 9.90879C14.6396 9.83263 14.6546 9.75721 14.6837 9.68685C14.7129 9.61649 14.7556 9.55256 14.8094 9.49871C14.8633 9.44485 14.9272 9.40214 14.9976 9.37299C15.0679 9.34385 15.1433 9.32885 15.2195 9.32885ZM19.2791 9.32885H16.8549C16.6113 8.65612 15.9734 8.16895 15.2195 8.16895C14.4656 8.16895 13.8276 8.6561 13.5841 9.32885H11.1599C10.8523 9.32885 10.5572 9.45105 10.3397 9.66857C10.1222 9.8861 10 10.1811 10 10.4887V18.6079C10 18.9156 10.1222 19.2106 10.3397 19.4281C10.5572 19.6456 10.8523 19.7678 11.1599 19.7678H19.2791C19.5867 19.7678 19.8817 19.6456 20.0993 19.4281C20.3168 19.2106 20.439 18.9156 20.439 18.6079V10.4887C20.439 10.1811 20.3168 9.8861 20.0993 9.66857C19.8817 9.45105 19.5867 9.32885 19.2791 9.32885Z" fill="#FFCDD2"/>
</svg>
