<svg xmlns="http://www.w3.org/2000/svg" viewBox="0 0 16 16">
<path id="folder" fill="#ff5722" d="m6.922 3.768-.644-.536A1 1 0 0 0 5.638 3H2a1 1 0 0 0-1 1v8a1 1 0 0 0 1 1h12a1 1 0 0 0 1-1V5a1 1 0 0 0-1-1H7.562a1 1 0 0 1-.64-.232" />
<path id="motive" fill="#ffccbc" d="M 12.991582,4 A 2.6798049,2.6806724 0 0 0 11.559187,4.4451117 L 9.3208497,5.9309845 a 2.6798049,2.6806724 0 0 0 -1.160416,1.7879484 2.9197875,2.9207326 0 0 0 0.265981,1.809454 2.7497998,2.7506899 0 0 0 -0.383472,0.9992511 2.939786,2.9407376 0 0 0 0.466966,2.15604 2.8647915,2.8657188 0 0 0 3.9307143,0.879221 l 2.239337,-1.480371 a 2.6848046,2.6856736 0 0 0 1.159915,-1.786949 2.9197875,2.9207326 0 0 0 -0.26698,-1.8084531 2.7497998,2.7506899 0 0 0 0.384972,-1.000251 2.9497853,2.9507401 0 0 0 -0.467966,-2.1555409 v -0.007 A 2.9547849,2.9557414 0 0 0 12.991582,4.0005002 Z m 0.196486,1.1417865 a 1.8028688,1.8034524 0 0 1 1.661379,2.0920244 1.9998545,2.0005019 0 0 1 -0.053,0.216555 l -0.043,0.134533 -0.113992,-0.09002 a 2.8497925,2.850715 0 0 0 -0.875936,-0.455614 l -0.08599,-0.02501 0.008,-0.09002 a 0.53996071,0.5401355 0 0 0 -0.09099,-0.346587 0.52496181,0.5251317 0 0 0 -0.571458,-0.2160539 0.49996361,0.50012545 0 0 0 -0.13749,0.06302 l -2.239837,1.48287 a 0.48996434,0.49012294 0 0 0 -0.210985,0.325082 0.53996071,0.5401355 0 0 0 0.08599,0.390098 0.52496181,0.5251317 0 0 0 0.570958,0.222556 0.49996361,0.50012545 0 0 0 0.13749,-0.06252 l 0.858438,-0.566642 a 1.5498872,1.5503889 0 0 1 0.454967,-0.208553 1.7398734,1.7404366 0 0 1 1.908361,0.736685 1.7698712,1.7704442 0 0 1 0.281479,1.296325 1.6098828,1.610404 0 0 1 -0.697449,1.078271 l -2.239837,1.485372 a 1.5998836,1.6004015 0 0 1 -0.454967,0.208053 1.744873,1.7454378 0 0 1 -1.9093613,-0.737685 1.7648716,1.7654429 0 0 1 -0.280479,-1.295325 1.4998909,1.5003764 0 0 1 0.053,-0.216055 l 0.04249,-0.134033 0.114991,0.08952 a 2.8497925,2.850715 0 0 0 0.8729373,0.452614 l 0.08599,0.02501 -0.0075,0.09002 a 0.54995996,0.550138 0 0 0 0.09349,0.344087 0.52496181,0.5251317 0 0 0 0.574958,0.221555 0.49996361,0.50012545 0 0 0 0.13699,-0.06252 l 2.235837,-1.485372 a 0.4849647,0.48512169 0 0 0 0.209985,-0.325582 0.52996146,0.53013295 0 0 0 -0.08599,-0.391098 0.52496181,0.5251317 0 0 0 -0.574958,-0.221055 0.49996361,0.50012545 0 0 0 -0.13749,0.06251 L 11.906651,9.796445 A 1.5998836,1.6004015 0 0 1 11.453184,10.003997 1.744873,1.7454378 0 0 1 9.5468227,9.267312 1.7698712,1.7704442 0 0 1 9.2683427,7.970987 1.6098828,1.610404 0 0 1 9.9657927,6.892716 L 12.208129,5.4073436 a 1.5998836,1.6004015 0 0 1 0.451468,-0.207552 1.6998763,1.7004265 0 0 1 0.528461,-0.057014 z" />
</svg>
