<?xml version="1.0" encoding="UTF-8"?>
<svg version="1.1" xmlns="http://www.w3.org/2000/svg" viewBox="0 0 21.74 17.5" xml:space="preserve"><path fill="#F26B00" d="M17,16H2c-1.11,0-2-0.9-2-2V2c0-1.11,0.89-2,2-2h6l2,2h7c1.1,0,2,0.9,2,2H2v10l2.14-8h17.07l-2.28,8.5C18.7,15.37,17.92,16,17,16z"/><g><path fill="#FFFFFF" d="M8.32,9.33c0,0.86-0.7,1.56-1.56,1.56c-0.86,0-1.56-0.7-1.56-1.56s0.7-1.56,1.56-1.56C7.62,7.76,8.32,8.46,8.32,9.33"/><path fill="#FFFFFF" d="M11.45,16.37c-1.15,0-2.09-0.94-2.09-2.09s0.94-2.09,2.09-2.09h3.95c0.68,0,1.23-0.55,1.23-1.23c0-0.68-0.55-1.23-1.23-1.23H6.76c-0.24,0-0.43-0.19-0.43-0.43c0-0.24,0.19-0.43,0.43-0.43h8.64c1.15,0,2.09,0.94,2.09,2.09s-0.94,2.09-2.09,2.09h-3.95c-0.68,0-1.23,0.55-1.23,1.23c0,0.68,0.55,1.23,1.23,1.23h8.73c0.24,0,0.43,0.19,0.43,0.43c0,0.24-0.19,0.43-0.43,0.43L11.45,16.37L11.45,16.37z"/><path fill="#FFFFFF" d="M18.62,15.94c0-0.86,0.7-1.56,1.56-1.56c0.86,0,1.56,0.7,1.56,1.56c0,0.86-0.7,1.56-1.56,1.56C19.32,17.5,18.62,16.8,18.62,15.94"/></g></svg>
