<svg xmlns="http://www.w3.org/2000/svg" viewBox="0 0 16 16"><path id="folder" fill="#0288d1" d="m6.922 3.768-.644-.536A1 1 0 0 0 5.638 3H2a1 1 0 0 0-1 1v8a1 1 0 0 0 1 1h12a1 1 0 0 0 1-1V5a1 1 0 0 0-1-1H7.562a1 1 0 0 1-.64-.232"/><path id="motive" fill="#b3e5fc" d="M11.492 4c-.34.01-.668 1.049-.668 1.049a1.79 1.79 0 0 0-1.523.607 1.25 1.25 0 0 1-.502.305c-.054.02-.119.015-.28.467-.25.692.42 1.457.42 1.457A3.7 3.7 0 0 0 7.846 9.19a3.4 3.4 0 0 0-.229 1.573 1.96 1.96 0 0 0-.61 1.039 1.8 1.8 0 0 0 .231 1.054l.002.006a.25.25 0 0 0 .34.116s-.377.455-.025.648a1.02 1.02 0 0 0 1.15-.027c.208-.216.25-.695.328-.891l.002-.004v-.002l.002-.002.002-.002h.01l.005.004c.029.022.075.1.118.145a1.3 1.3 0 0 0 .18.134l-.01.004a.57.57 0 0 0-.291.737c.069.17.314.28.716.277a20.997 21 0 0 0 2.229-.207.55.55 0 0 0 .34-.197 8 8 0 0 0 2.019-.942 3.6 3.6 0 0 1 1.367-.65.387.387 0 0 0 .271-.445.375.375 0 0 0-.437-.311 2.9 2.9 0 0 0-1.477.574 2.2 2.2 0 0 1-1.171.467l-.012-.021a4.2 4.2 0 0 0-.09-1.862 3.95 3.95 0 0 0-.904-1.388 5.05 5.05 0 0 0 .896-1.932 4.2 4.2 0 0 0-.18-2.191c-.05-.1-.492.168-.492.168a6.7 6.7 0 0 0-.53-1.032.17.17 0 0 0-.104-.031"/></svg>