<svg xmlns="http://www.w3.org/2000/svg" viewBox="0 0 16 16">
<path id="folder" fill="#2196f3" d="m6.922 3.768-.644-.536A1 1 0 0 0 5.638 3H2a1 1 0 0 0-1 1v8a1 1 0 0 0 1 1h12a1 1 0 0 0 1-1V5a1 1 0 0 0-1-1H7.562a1 1 0 0 1-.64-.232" />
<path id="motive" fill="#bbdefb" d="m 7.0035633,7 a 3.3384679,3.3447782 0 0 0 3.1660467,3.494993 h 0.949565 A 3.3084816,3.3147353 0 0 0 8.0016053,14 h 0.585731 A 3.1785413,3.1845494 0 0 0 11.5,11.87196 3.1785413,3.1845494 0 0 0 14.412663,14 h 0.585732 a 3.3084816,3.3147353 0 0 0 -3.11807,-3.505007 h 0.950064 A 3.3384679,3.3447782 0 0 0 15.996436,7 H 14.412663 A 3.1685458,3.174535 0 0 0 11.5,9.118026 3.1685458,3.174535 0 0 0 8.5873363,7 Z M 11.5,9.120028 a 3.848234,3.8555079 0 0 1 0,2.75043 3.848234,3.8555079 0 0 1 0,-2.75043" />
</svg>
