<?xml version="1.0" encoding="UTF-8" standalone="no"?>
<svg xmlns:dc="http://purl.org/dc/elements/1.1/" 
  xmlns:cc="http://creativecommons.org/ns#" 
  xmlns:rdf="http://www.w3.org/1999/02/22-rdf-syntax-ns#" 
  xmlns:svg="http://www.w3.org/2000/svg" 
  xmlns="http://www.w3.org/2000/svg" 
  xmlns:sodipodi="http://sodipodi.sourceforge.net/DTD/sodipodi-0.dtd" 
  xmlns:inkscape="http://www.inkscape.org/namespaces/inkscape" clip-rule="evenodd" fill-rule="evenodd" stroke-linejoin="round" stroke-miterlimit="1.4142" version="1.1" viewBox="0 0 24 24" xml:space="preserve" id="svg8" sodipodi:docname="folder-job.svg" inkscape:version="0.92.2 5c3e80d, 2017-08-06">
  <metadata id="metadata14">
    <rdf:RDF>
      <cc:Work rdf:about="">
        <dc:format>image/svg+xml</dc:format>
        <dc:type rdf:resource="http://purl.org/dc/dcmitype/StillImage" />
      </cc:Work>
    </rdf:RDF>
  </metadata>
  <defs id="defs12" />
  <sodipodi:namedview pagecolor="#ffffff" bordercolor="#666666" borderopacity="1" objecttolerance="10" gridtolerance="10" guidetolerance="10" inkscape:pageopacity="0" inkscape:pageshadow="2" inkscape:window-width="1286" inkscape:window-height="685" id="namedview10" showgrid="false" inkscape:zoom="9.8333333" inkscape:cx="13.220339" inkscape:cy="12" inkscape:window-x="0" inkscape:window-y="0" inkscape:window-maximized="0" inkscape:current-layer="svg8" />
  <path d="m10 4h-6c-1.11 0-2 0.89-2 2v12c0 1.097 0.903 2 2 2h16c1.097 0 2-0.903 2-2v-10c0-1.11-0.9-2-2-2h-8l-2-2z" fill="#ffb300" fill-rule="nonzero" id="path2" />
  <path d="M0 0h24v24H0z" fill="none" id="path6" />
  <path d="M20 7h-4V5c0-.55-.22-1.05-.59-1.41C15.05 3.22 14.55 3 14 3h-4c-1.1 0-2 .9-2 2v2H4c-1.1 0-2 .9-2 2v11c0 1.1.9 2 2 2h16c1.1 0 2-.9 2-2V9c0-1.1-.9-2-2-2zM10 5h4v2h-4V5zm1 13.5l-1-1 3-3-3-3 1-1 4 4-4 4z" />
</svg>