<?xml version="1.0" encoding="UTF-8" standalone="no"?> <!-- Created with Inkscape (http://www.inkscape.org/) -->

<svg width="6in" height="6in" viewBox="0 0 152.4 152.4" version="1.1" id="svg5" sodipodi:docname="queues.svg" inkscape:version="1.1 (ce6663b3b7, 2021-05-25)" xmlns:inkscape="http://www.inkscape.org/namespaces/inkscape" xmlns:sodipodi="http://sodipodi.sourceforge.net/DTD/sodipodi-0.dtd" xmlns="http://www.w3.org/2000/svg" xmlns:svg="http://www.w3.org/2000/svg"> <sodipodi:namedview id="namedview7" pagecolor="#505050" bordercolor="#eeeeee" borderopacity="1" inkscape:pageshadow="0" inkscape:pageopacity="0" inkscape:pagecheckerboard="0" inkscape:document-units="mm" showgrid="false" inkscape:zoom="0.37549453" inkscape:cx="379.49954" inkscape:cy="543.28355" inkscape:window-width="1366" inkscape:window-height="730" inkscape:window-x="1920" inkscape:window-y="0" inkscape:window-maximized="1" inkscape:current-layer="layer2" units="in" width="10in" /> <defs id="defs2"> <marker style="overflow:visible" id="Arrow1Mend" refX="0" refY="0" orient="auto" inkscape:stockid="Arrow1Mend" inkscape:isstock="true"> <path transform="matrix(-0.4,0,0,-0.4,-4,0)" style="fill:context-stroke;fill-rule:evenodd;stroke:context-stroke;stroke-width:1pt" d="M 0,0 5,-5 -12.5,0 5,5 Z" id="path7859" /> </marker> <marker style="overflow:visible" id="Arrow1Lstart" refX="0" refY="0" orient="auto" inkscape:stockid="Arrow1Lstart" inkscape:isstock="true"> <path transform="matrix(0.8,0,0,0.8,10,0)" style="fill:context-stroke;fill-rule:evenodd;stroke:context-stroke;stroke-width:1pt" d="M 0,0 5,-5 -12.5,0 5,5 Z" id="path7850" /> </marker> </defs> <g inkscape:label="Layer 1" inkscape:groupmode="layer" id="layer1" /> <g inkscape:groupmode="layer" id="layer2" inkscape:label="Icon"> <g style="fill:#000000;stroke:none;stroke-opacity:1" id="g22" transform="matrix(5.7472923,0,0,5.7472923,7.5230667,6.9843154)"> <path d="M 0,0 H 24 V 24 H 0 Z" fill="none" id="path10" style="stroke:none;stroke-opacity:1" /> <path d="M 10,4 H 4 C 2.9,4 2.01,4.8999853 2.01,5.9999672 L 2,17.999771 c 0,1.099982 0.9,1.999967 2,1.999967 h 16 c 1.1,0 2,-0.899985 2,-1.999967 V 7.9999345 C 22,6.8999525 21.1,5.9999672 20,5.9999672 h -8 z" id="path12" style="mix-blend-mode:normal;fill:#0097a7;fill-opacity:1;fill-rule:evenodd;stroke:none;stroke-width:0.999992;stroke-opacity:1" /> </g> <g transform="matrix(0.01351617,0,0,-0.01351617,73.244397,134.21691)" fill="#000000" stroke="none" id="g30" style="opacity:1;fill:#a1f6ff;fill-opacity:1;stroke:#a3f6ff;stroke-width:190.603;stroke-linecap:butt;stroke-linejoin:round;stroke-miterlimit:3.7;stroke-dasharray:none;stroke-opacity:1;paint-order:markers fill stroke"> <path d="m 2504,4949 c -27,-4 -81,-22 -120,-38 C 2268,4861 158,3743 118,3711 27,3635 -3,3475 51,3359 c 15,-32 41,-67 60,-81 40,-29 2245,-1022 2334,-1050 73,-24 171,-20 259,11 97,34 2268,1012 2302,1037 50,37 78,105 82,199 5,106 -21,179 -81,231 -42,35 -2191,1176 -2297,1219 -67,27 -138,36 -206,24 z m 1114.7031,-820.417 c 607,-326 1104.1368,-625.7156 1104.1368,-629.7156 C 4723.8399,3494.8674 4269,3280 3663,3024 L 2560,2560 1462,3022 C 858,3277 408.49617,3499.7196 407.49617,3504.7196 406.49617,3510.7196 854,3771 1458,4096 c 603,326 1098,593 1098,593 0,0 456.7031,-234.417 1062.7031,-560.417 z" id="path24" style="fill:#a1f6ff;fill-opacity:1;stroke:#a3f6ff;stroke-width:190.603;stroke-linecap:butt;stroke-linejoin:round;stroke-miterlimit:3.7;stroke-dasharray:none;stroke-dashoffset:0;stroke-opacity:1;paint-order:markers fill stroke" sodipodi:nodetypes="ccccccccccccccccccccc" /> <path d="m 4,2568 c 14,-143 49,-247 99,-299 27,-27 255,-134 1173,-546 626,-281 1157,-516 1179,-522 68,-18 160,-13 238,13 78,26 2241,995 2294,1028 48,29 98,139 117,257 27,158 39,152 -131,67 -82,-40 -658,-308 -1280,-595 L 2560,1449 1428,1971 C 805,2258 228,2526 146,2567 l -149,74 z" id="path26" style="fill:#a1f6ff;fill-opacity:1;stroke:#a3f6ff;stroke-width:190.603;stroke-linecap:butt;stroke-linejoin:round;stroke-miterlimit:3.7;stroke-dasharray:none;stroke-opacity:1;paint-order:markers fill stroke" /> <path d="m 5,1544 c 14,-149 61,-275 118,-318 35,-25 2244,-1020 2317,-1043 63,-20 164,-19 235,2 67,19 2274,1007 2317,1037 59,41 107,169 123,326 l 7,73 -173,-86 C 4767,1443 2575,430 2560,430 2545,430 210,1509 101,1566 l -103,55 z" id="path28" style="fill:#a1f6ff;fill-opacity:1;stroke:#a3f6ff;stroke-width:190.603;stroke-linecap:butt;stroke-linejoin:round;stroke-miterlimit:3.7;stroke-dasharray:none;stroke-opacity:1;paint-order:markers fill stroke" /> </g> </g> </svg> 