<?xml version="1.0" encoding="UTF-8" standalone="no"?>
<svg
   version="1.1"
   width="24"
   height="24"
   viewBox="0 0 24 24"
   id="svg4"
   sodipodi:docname="folder-c++-open.svg"
   inkscape:version="1.1.1 (1:1.1+202109281949+c3084ef5ed)"
   xmlns:inkscape="http://www.inkscape.org/namespaces/inkscape"
   xmlns:sodipodi="http://sodipodi.sourceforge.net/DTD/sodipodi-0.dtd"
   xmlns="http://www.w3.org/2000/svg"
   xmlns:svg="http://www.w3.org/2000/svg">
  <defs
     id="defs8">
    <linearGradient
       id="a"
       x1="1.725"
       x2="22.185"
       y1="22.67"
       y2="1.982"
       gradientTransform="matrix(0.89324,0,0,0.89324,1.306,1.129)"
       gradientUnits="userSpaceOnUse">
      <stop
         stop-color="#0296d8"
         offset="0"
         id="stop861" />
      <stop
         stop-color="#8371d9"
         offset="1"
         id="stop863" />
    </linearGradient>
    <linearGradient
       id="b"
       x1="1.869"
       x2="22.798"
       y1="22.382"
       y2="3.377"
       gradientTransform="matrix(0.89324,0,0,0.89324,1.323,1.129)"
       gradientUnits="userSpaceOnUse">
      <stop
         stop-color="#cb55c0"
         offset="0"
         id="stop866" />
      <stop
         stop-color="#f28e0e"
         offset="1"
         id="stop868" />
    </linearGradient>
  </defs>
  <sodipodi:namedview
     id="namedview6"
     pagecolor="#ffffff"
     bordercolor="#666666"
     borderopacity="1.0"
     inkscape:pageshadow="2"
     inkscape:pageopacity="0.0"
     inkscape:pagecheckerboard="0"
     showgrid="false"
     inkscape:zoom="29.458333"
     inkscape:cx="13.646393"
     inkscape:cy="12"
     inkscape:window-width="960"
     inkscape:window-height="1020"
     inkscape:window-x="960"
     inkscape:window-y="28"
     inkscape:window-maximized="0"
     inkscape:current-layer="svg4" />
  <path
     d="M19,20H4C2.89,20 2,19.1 2,18V6C2,4.89 2.89,4 4,4H10L12,6H19A2,2 0 0,1 21,8H21L4,8V18L6.14,10H23.21L20.93,18.5C20.7,19.37 19.92,20 19,20Z"
     id="path2"
     style="fill:#0277bd;fill-opacity:0.38431373" />
  <path
     d="m 12.219082,18.376816 0.342109,2.004339 c -0.216947,0.115005 -0.567401,0.221791 -1.034673,0.320366 -0.475613,0.106791 -1.034669,0.16429 -1.6771675,0.16429 C 8.0052971,20.83295 6.6201731,20.290796 5.693975,19.255769 4.7594328,18.212526 4.2921617,16.889991 4.2921617,15.288162 4.3338826,13.390613 4.8929389,11.936645 5.9609872,10.918047 7.062412,9.8912342 8.4308486,9.3655066 10.082986,9.3655066 c 0.625809,0 1.168178,0.057502 1.618761,0.1560755 0.450582,0.098573 0.784348,0.2053623 1.001295,0.3285799 l -0.48396,2.045411 -0.884478,-0.279293 c -0.333764,-0.08215 -0.717594,-0.123217 -1.159832,-0.123217 -0.9679204,-0.0082 -1.7689562,0.295721 -2.3947665,0.903596 -0.6341529,0.599657 -0.9595734,1.519681 -0.9846059,2.743643 0,1.117171 0.3087334,1.98791 0.9011655,2.62864 0.5924334,0.632517 1.4268447,0.961098 2.4948949,0.969312 l 1.109769,-0.09858 c 0.358796,-0.06573 0.659186,-0.156076 0.917853,-0.262864 m 0.417206,-4.082609 h 1.668825 V 12.6513 h 1.668827 v 1.642901 h 1.668825 v 1.6429 H 15.97394 v 1.642902 h -1.668827 v -1.642902 h -1.668825 v -1.6429 m 5.840889,0 h 1.668826 V 12.6513 h 1.668825 v 1.642901 h 1.668826 v 1.6429 h -1.668826 v 1.642902 h -1.668825 v -1.642902 h -1.668826 z"
     style="fill:#0277bd;stroke-width:0.827906"
     id="path1000" />
</svg>
