<svg xmlns="http://www.w3.org/2000/svg" clip-rule="evenodd" fill-rule="evenodd" stroke-linejoin="round" stroke-miterlimit="1.414" viewBox="0 0 24 24"><path d="M19 20H4a2 2 0 0 1-2-2V6c0-1.11.89-2 2-2h6l2 2h7c1.097 0 2 .903 2 2H4v10l2.14-8h17.07l-2.28 8.5c-.23.87-1.01 1.5-1.93 1.5z" fill="#FF5722" fill-rule="nonzero"/><path d="M22.89 17.519h-6.2v-1.55h6.2zm0-4.65h-6.2v1.55h6.2zm-6.2 7.75h6.2v-1.55h-6.2zm-1.55-6.2v4.65c0 .852-.698 1.55-1.55 1.55H8.94c-.853 0-1.55-.698-1.55-1.55v-4.65c0-.853.697-1.55 1.55-1.55h4.65c.852 0 1.55.697 1.55 1.55zm-1.163 4.65l-1.743-2.325-1.357 1.751-.968-1.17-1.357 1.744z" fill="#FFCCBC"/></svg>