<svg xmlns="http://www.w3.org/2000/svg" viewBox="0 0 32 32"><path fill="#ff5722" d="m13.844 7.536-1.288-1.072A2 2 0 0 0 11.276 6H4a2 2 0 0 0-2 2v16a2 2 0 0 0 2 2h24a2 2 0 0 0 2-2V10a2 2 0 0 0-2-2H15.124a2 2 0 0 1-1.28-.464Z"/><path fill="#ffccbc" d="M25.983 8a5.355 5.355 0 0 0-2.865.89l-4.477 2.971a5.356 5.356 0 0 0-2.321 3.575 5.84 5.84 0 0 0 .532 3.618 5.48 5.48 0 0 0-.767 1.998 5.88 5.88 0 0 0 .934 4.311 5.73 5.73 0 0 0 7.862 1.758l4.479-2.96a5.372 5.372 0 0 0 2.32-3.573 5.837 5.837 0 0 0-.534-3.616 5.514 5.514 0 0 0 .77-2 5.886 5.886 0 0 0-.936-4.31v-.014a5.913 5.913 0 0 0-4.997-2.647Zm.393 2.283a3.606 3.606 0 0 1 3.323 4.183 3.72 3.72 0 0 1-.106.433l-.086.269-.228-.18a5.713 5.713 0 0 0-1.752-.911l-.172-.05.016-.18a1.079 1.079 0 0 0-.182-.693 1.048 1.048 0 0 0-1.143-.432.964.964 0 0 0-.275.126l-4.48 2.965a.976.976 0 0 0-.422.65 1.077 1.077 0 0 0 .172.78 1.052 1.052 0 0 0 1.142.445 1.01 1.01 0 0 0 .275-.125l1.717-1.133a3.133 3.133 0 0 1 .91-.417 3.484 3.484 0 0 1 3.817 1.473 3.535 3.535 0 0 1 .563 2.592 3.224 3.224 0 0 1-1.395 2.156l-4.48 2.97a3.23 3.23 0 0 1-.91.416 3.49 3.49 0 0 1-3.819-1.475 3.531 3.531 0 0 1-.561-2.59 3.139 3.139 0 0 1 .106-.432l.085-.268.23.179a5.712 5.712 0 0 0 1.746.905l.172.05-.015.18a1.087 1.087 0 0 0 .187.688 1.052 1.052 0 0 0 1.15.443.985.985 0 0 0 .274-.125l4.472-2.97a.971.971 0 0 0 .42-.651 1.064 1.064 0 0 0-.172-.782 1.052 1.052 0 0 0-1.15-.442.963.963 0 0 0-.275.125l-1.717 1.135a3.216 3.216 0 0 1-.907.415 3.489 3.489 0 0 1-3.813-1.473 3.535 3.535 0 0 1-.557-2.592 3.224 3.224 0 0 1 1.395-2.156l4.485-2.97a3.207 3.207 0 0 1 .903-.415 3.422 3.422 0 0 1 1.057-.114Z"/></svg>