<svg xmlns="http://www.w3.org/2000/svg" viewBox="0 0 16 16">
<path id="folder" fill="#ff5252" d="m6.922 3.768-.644-.536A1 1 0 0 0 5.638 3H2a1 1 0 0 0-1 1v8a1 1 0 0 0 1 1h12a1 1 0 0 0 1-1V5a1 1 0 0 0-1-1H7.562a1 1 0 0 1-.64-.232" />
<path id="motive" fill="#ffcdd2" d="M 5.25,13 H 6 V 10 H 5.25 A 0.25,0.25 0 0 0 5,10.25 v 2.5 A 0.25,0.25 0 0 0 5.25,13 M 15,10 v 3 h 0.75 A 0.25,0.25 0 0 0 16,12.75 v -2.5 A 0.25,0.25 0 0 0 15.75,10 Z M 10.75,6 h -0.5 A 0.25,0.25 0 0 0 10,6.25 V 8 H 7.25 A 0.25,0.25 0 0 0 7,8.25 v 5.5 A 0.25,0.25 0 0 0 7.25,14 h 6.5 A 0.25,0.25 0 0 0 14,13.75 V 8.25 A 0.25,0.25 0 0 0 13.75,8 H 11 V 6.25 A 0.25,0.25 0 0 0 10.75,6 M 9,9 A 1,1 0 1 1 8,10 1,1 0 0 1 9,9 m 4,4 H 8 v -1 h 5 z M 12,9 a 1,1 0 1 1 -1,1 1,1 0 0 1 1,-1" />
</svg>
