<?xml version="1.0" encoding="UTF-8" standalone="no"?>
<svg
   version="1.1"
   width="24"
   height="24"
   viewBox="0 0 24 24"
   id="svg4"
   sodipodi:docname="folder-kotin.svg"
   inkscape:version="1.1.1 (1:1.1+202109281949+c3084ef5ed)"
   xmlns:inkscape="http://www.inkscape.org/namespaces/inkscape"
   xmlns:sodipodi="http://sodipodi.sourceforge.net/DTD/sodipodi-0.dtd"
   xmlns="http://www.w3.org/2000/svg"
   xmlns:svg="http://www.w3.org/2000/svg">
  <defs
     id="defs8">
    <linearGradient
       id="a"
       x1="1.725"
       x2="22.185"
       y1="22.67"
       y2="1.982"
       gradientTransform="matrix(0.89324,0,0,0.89324,1.306,1.129)"
       gradientUnits="userSpaceOnUse">
      <stop
         stop-color="#0296d8"
         offset="0"
         id="stop1869" />
      <stop
         stop-color="#8371d9"
         offset="1"
         id="stop1871" />
    </linearGradient>
    <linearGradient
       id="b"
       x1="1.869"
       x2="22.798"
       y1="22.382"
       y2="3.377"
       gradientTransform="matrix(0.89324,0,0,0.89324,1.323,1.129)"
       gradientUnits="userSpaceOnUse">
      <stop
         stop-color="#cb55c0"
         offset="0"
         id="stop1874" />
      <stop
         stop-color="#f28e0e"
         offset="1"
         id="stop1876" />
    </linearGradient>
  </defs>
  <sodipodi:namedview
     id="namedview6"
     pagecolor="#ffffff"
     bordercolor="#666666"
     borderopacity="1.0"
     inkscape:pageshadow="2"
     inkscape:pageopacity="0.0"
     inkscape:pagecheckerboard="0"
     showgrid="false"
     inkscape:zoom="29.458333"
     inkscape:cx="12.186705"
     inkscape:cy="12"
     inkscape:window-width="960"
     inkscape:window-height="1020"
     inkscape:window-x="0"
     inkscape:window-y="28"
     inkscape:window-maximized="0"
     inkscape:current-layer="svg4" />
  <g
     id="g3940"
     style="fill:#00b6ff;fill-opacity:0.45666283">
    <path
       d="M10,4H4C2.89,4 2,4.89 2,6V18A2,2 0 0,0 4,20H20A2,2 0 0,0 22,18V8C22,6.89 21.1,6 20,6H12L10,4Z"
       id="path2"
       style="fill:#00b6ff;fill-opacity:0.45666283" />
  </g>
  <g
     id="g1897"
     transform="matrix(0.66481994,0,0,0.64079122,10.022161,7.1680054)">
    <path
       d="m 2.975,2.976 v 18.048 h 18.05 v -0.03 l -4.478,-4.511 -4.48,-4.515 4.48,-4.515 4.443,-4.477 z"
       fill="url(#a)"
       id="path1881"
       style="fill:url(#a)" />
    <g
       id="g3937">
      <path
         d="m 12.223,2.976 -9.23,9.23 v 8.818 h 0.083 l 9.032,-9.032 -0.024,-0.024 4.48,-4.515 4.443,-4.477 z"
         fill="url(#b)"
         id="path1883"
         style="fill:url(#b)" />
    </g>
  </g>
</svg>
