<svg xmlns="http://www.w3.org/2000/svg" viewBox="0 0 32 32">
  <path d="M28.96692,12H9.44152a2,2,0,0,0-1.89737,1.36754L4,24V10H28a2,2,0,0,0-2-2H15.1241a2,2,0,0,1-1.28038-.46357L12.5563,6.46357A2,2,0,0,0,11.27592,6H4A2,2,0,0,0,2,8V24a2,2,0,0,0,2,2H26l4.80523-11.21213A2,2,0,0,0,28.96692,12Z" style="fill: #039be5"/>
  <path d="M22,10A10,10,0,1,0,32,20,10,10,0,0,0,22,10Zm6.91754,6H25.96a15.74864,15.74864,0,0,0-1.342-3.54028A8.03868,8.03868,0,0,1,28.91754,16ZM22,12a14.12829,14.12829,0,0,1,1.89,4H20.11A14.12829,14.12829,0,0,1,22,12Zm-2.61792.45972A15.74864,15.74864,0,0,0,18.04,16H15.08246A8.03868,8.03868,0,0,1,19.38208,12.45972ZM14.26331,22a7.72726,7.72726,0,0,1,0-4H17.67a15.44962,15.44962,0,0,0,0,4Zm.81915,2H18.04a15.74864,15.74864,0,0,0,1.342,3.54028A8.03868,8.03868,0,0,1,15.08246,24ZM22,28a14.12829,14.12829,0,0,1-1.89-4h3.78A14.12829,14.12829,0,0,1,22,28Zm2.31-6H19.69a13.41187,13.41187,0,0,1,0-4h4.62a13.41187,13.41187,0,0,1,0,4Zm.30792,5.54028A15.74864,15.74864,0,0,0,25.96,24h2.95758A8.03868,8.03868,0,0,1,24.61792,27.54028ZM29.73669,22H26.33a15.44962,15.44962,0,0,0,0-4h3.40673a7.72726,7.72726,0,0,1,0,4Z" style="fill: #b3e5fc"/>
</svg>
