<svg xmlns="http://www.w3.org/2000/svg" viewBox="0 0 32 32">
  <path d="M13.84376,7.53645l-1.28749-1.0729A2,2,0,0,0,11.27591,6H4A2,2,0,0,0,2,8V24a2,2,0,0,0,2,2H28a2,2,0,0,0,2-2V10a2,2,0,0,0-2-2H15.12412A2,2,0,0,1,13.84376,7.53645Z" style="fill: #ff5252"/>
  <g>
    <path d="M12,14V24a2,2,0,0,0,2,2h8V24H16V14H28v2h4V14a2,2,0,0,0-2-2H14A2,2,0,0,0,12,14Z" style="fill: #ffcdd2;fill-rule: evenodd"/>
    <path d="M24,19v8a1,1,0,0,0,1,1h6a1,1,0,0,0,1-1V19a1,1,0,0,0-1-1H25A1,1,0,0,0,24,19Zm6,7H26V20h4Z" style="fill: #ffcdd2;fill-rule: evenodd"/>
  </g>
</svg>
