<svg xmlns="http://www.w3.org/2000/svg" viewBox="0 0 16 16">
<path id="folder" fill="#ffa726" d="M14.483 6H4.721a1 1 0 0 0-.949.684L2 12V5h12a1 1 0 0 0-1-1H7.562a1 1 0 0 1-.64-.232l-.644-.536A1 1 0 0 0 5.638 3H2a1 1 0 0 0-1 1v8a1 1 0 0 0 1 1h11l2.403-5.606A1 1 0 0 0 14.483 6" />
<path id="motive" fill="#ffe0b2" d="M 8,5 C 7.446,5 7,5.446 7,6 v 1 c 0,0.554 0.446,1 1,1 v 5 c 0,0.554 0.446,1 1,1 h 5 c 0.554,0 1,-0.446 1,-1 V 8 c 0.554,0 1,-0.446 1,-1 V 6 C 16,5.446 15.554,5 15,5 Z m 0,1 h 7 V 7 H 8 Z m 2,2 h 3 v 1 h -3 z" />
</svg>
