<svg xmlns="http://www.w3.org/2000/svg" viewBox="0 0 16 16">
<path id="folder" fill="#42a5f5" d="M14.483 6H4.721a1 1 0 0 0-.949.684L2 12V5h12a1 1 0 0 0-1-1H7.562a1 1 0 0 1-.64-.232l-.644-.536A1 1 0 0 0 5.638 3H2a1 1 0 0 0-1 1v8a1 1 0 0 0 1 1h11l2.403-5.606A1 1 0 0 0 14.483 6" />
<path id="motive" fill="#b3e5fc" d="M 14.499981,5 A 1.5000188,1.5000188 0 0 0 12.999963,6.500019 1.5000188,1.5000188 0 0 0 14.499981,8.0000379 1.5000188,1.5000188 0 0 0 16,6.500019 1.5000188,1.5000188 0 0 0 14.499981,5 Z M 9.8514862,7.296904 a 3.8515481,3.851548 0 1 0 3.8516098,3.85161 3.8515481,3.851548 0 0 0 -3.8516098,-3.85161 z m 0.7177818,1.7050989 a 1.5000188,1.5000188 0 0 1 1.430682,1.4980661 1.5000188,1.5000188 0 0 1 -1.500019,1.500019 1.5000188,1.5000188 0 1 1 0.06934,-2.9980851 z" />
</svg>
