<svg xmlns="http://www.w3.org/2000/svg" viewBox="0 0 32 32"><path fill="#4caf50" d="M28.967 12H9.442a2 2 0 0 0-1.898 1.368L4 24V10h24a2 2 0 0 0-2-2H15.124a2 2 0 0 1-1.28-.464l-1.288-1.072A2 2 0 0 0 11.276 6H4a2 2 0 0 0-2 2v16a2 2 0 0 0 2 2h22l4.805-11.212A2 2 0 0 0 28.967 12Z"/><path fill="#c8e6c9" d="m10.752 27.217 3.127-5.764a1.512 1.512 0 0 0-.573-2.034 1.452 1.452 0 0 0-1.995.586l-3.127 5.763a1.512 1.512 0 0 0 .573 2.034 1.437 1.437 0 0 0 .71.187 1.462 1.462 0 0 0 1.285-.772Zm10.305 0 3.127-5.764a1.512 1.512 0 0 0-.574-2.034 1.452 1.452 0 0 0-1.995.586l-3.127 5.763a1.512 1.512 0 0 0 .574 2.034 1.437 1.437 0 0 0 .709.187 1.462 1.462 0 0 0 1.286-.772Zm-2.896-5.21 3.326-5.76a1.507 1.507 0 0 0-.518-2.04 1.447 1.447 0 0 0-2.002.527l-3.326 5.76a1.508 1.508 0 0 0 .519 2.041 1.43 1.43 0 0 0 .74.206 1.456 1.456 0 0 0 1.261-.734Zm10.31 0 3.327-5.76a1.507 1.507 0 0 0-.518-2.04 1.447 1.447 0 0 0-2.002.527l-3.326 5.76a1.508 1.508 0 0 0 .518 2.041 1.43 1.43 0 0 0 .74.206 1.456 1.456 0 0 0 1.262-.734Z"/></svg>