<svg xmlns="http://www.w3.org/2000/svg" xml:space="preserve" viewBox="0 0 32 32"><path fill="#ff9800" d="m13.84 7.54-1.28-1.08A2 2 0 0 0 11.28 6H4a2 2 0 0 0-2 2v16a2 2 0 0 0 2 2h24a2 2 0 0 0 2-2V10a2 2 0 0 0-2-2H15.12a2 2 0 0 1-1.28-.46Z"/><path fill="#fffde7" d="m30 11-4 7 1 3s4-3.94 4-6-1-4-1-4zm-11 0s-1 1.86-1 4c0 2.14 5 7 5 7l-1.13 1.13A2.99 2.99 0 0 0 18 26c0 1.67 1.33 3 3 3a2.99 2.99 0 0 0 2.69-4.34L25 24l1.31.66c-1.54 3.08 2.48 5.9 4.86 3.4 2.37-2.48-.63-6.36-3.64-4.68Zm2 14c1.33 0 1.33 2 0 2s-1.33-2 0-2zm8 0a1 1 0 1 1 0 2 1 1 0 0 1 0-2z" color="#000" paint-order="stroke fill markers" style="-inkscape-stroke:none"/></svg>