<svg xmlns="http://www.w3.org/2000/svg" viewBox="0 0 32 32">
  <path d="M28.96692,12H9.44152a2,2,0,0,0-1.89737,1.36754L4,24V10H28a2,2,0,0,0-2-2H15.1241a2,2,0,0,1-1.28038-.46357L12.5563,6.46357A2,2,0,0,0,11.27592,6H4A2,2,0,0,0,2,8V24a2,2,0,0,0,2,2H26l4.80523-11.21213A2,2,0,0,0,28.96692,12Z" style="fill: #26a69a;fill-rule: evenodd"/>
  <g>
    <circle cx="21" cy="15" r="3" style="fill: #b2dfdb"/>
    <circle cx="17" cy="23" r="3" style="fill: #b2dfdb"/>
    <circle cx="27" cy="27" r="3" style="fill: #b2dfdb"/>
  </g>
</svg>
