<?xml version="1.0" encoding="utf-8"?>
<!-- Generator: Adobe Illustrator 24.0.2, SVG Export Plug-In . SVG Version: 6.00 Build 0)  -->
<svg version="1.1" id="Layer_1" xmlns="http://www.w3.org/2000/svg" xmlns:xlink="http://www.w3.org/1999/xlink" x="0px" y="0px"
	 viewBox="0 0 24 24" style="enable-background:new 0 0 24 24;" xml:space="preserve">
<style type="text/css">
	.st0{fill:#2962FF;}
	.st1{fill:#FFFFFF;}
</style>
<path class="st0" d="M10,4H4C2.9,4,2,4.9,2,6v12c0,1.1,0.9,2,2,2h16c1.1,0,2-0.9,2-2V8c0-1.1-0.9-2-2-2h-8L10,4z"/>
<path class="st1" d="M12.2,17.9h-0.9V21h3.1v-0.9h-2.2V17.9z M23.1,8.6h-4.6c-0.3,0-0.7,0.2-0.9,0.5l-1.8,2.6h-4.1
	c-0.3,0-0.5,0.2-0.5,0.5v2.8l1.8,1.9l0.6-0.7l0.8,0.8l-0.6,0.6l0.8,0.8l0.6-0.6l0.8,0.8l-0.6,0.6l1.8,1.8H20c0.3,0,0.5-0.2,0.5-0.5
	v-4.1l2.6-1.8c0.3-0.2,0.5-0.5,0.5-0.9V9.1C23.6,8.8,23.4,8.6,23.1,8.6z M20.5,13.3c-0.9,0-1.5-0.7-1.5-1.5s0.7-1.5,1.5-1.5
	s1.5,0.7,1.5,1.5S21.4,13.3,20.5,13.3z"/>
</svg>
