<svg xmlns="http://www.w3.org/2000/svg" viewBox="0 0 32 32">
  <path d="M13.84376,7.53645l-1.28749-1.0729A2,2,0,0,0,11.27591,6H4A2,2,0,0,0,2,8V24a2,2,0,0,0,2,2H28a2,2,0,0,0,2-2V10a2,2,0,0,0-2-2H15.12412A2,2,0,0,1,13.84376,7.53645Z" style="fill: #ffa726"/>
  <g>
    <rect x="16" y="16.00623" width="4" height="4" style="fill: #ffe0b2"/>
    <rect x="16" y="22.00623" width="4" height="4" style="fill: #ffe0b2"/>
    <rect x="22" y="20.00623" width="4" height="6" style="fill: #ffe0b2"/>
    <rect x="22" y="16.00623" width="4" height="2" style="fill: #ffe0b2"/>
    <path d="M32,16.00623v-2H30v-1a1,1,0,0,0-1-1H13a1,1,0,0,0-1,1v16a1,1,0,0,0,1,1H29a1,1,0,0,0,1-1v-1h2v-2H30v-4h2v-2H30v-4Zm-4,12H14v-14H28Z" style="fill: #ffe0b2;fill-rule: evenodd"/>
  </g>
</svg>
