<svg xmlns="http://www.w3.org/2000/svg" viewBox="0 0 16 16"><path id="folder" fill="#546e7a" d="m6.922 3.768-.644-.536A1 1 0 0 0 5.638 3H2a1 1 0 0 0-1 1v8a1 1 0 0 0 1 1h12a1 1 0 0 0 1-1V5a1 1 0 0 0-1-1H7.562a1 1 0 0 1-.64-.232"/><path id="motive" fill="#eceff1" d="M11.5 5A4.516 4.516 0 0 0 7 9.532a4.54 4.54 0 0 0 3.079 4.305c.225.036.296-.105.296-.226v-.766c-1.246.272-1.512-.607-1.512-.607a1.2 1.2 0 0 0-.499-.667c-.41-.28.031-.272.031-.272a.95.95 0 0 1 .689.466.963.963 0 0 0 1.31.377.98.98 0 0 1 .283-.607c-1-.114-2.047-.504-2.047-2.23a1.76 1.76 0 0 1 .463-1.228 1.63 1.63 0 0 1 .045-1.196s.377-.123 1.237.462a4.3 4.3 0 0 1 2.25 0c.86-.585 1.239-.462 1.239-.462a1.63 1.63 0 0 1 .044 1.196 1.76 1.76 0 0 1 .464 1.228c0 1.731-1.053 2.112-2.057 2.225a1.1 1.1 0 0 1 .311.839v1.242c0 .122.072.266.301.226A4.54 4.54 0 0 0 11.501 5"/></svg>