<svg xmlns="http://www.w3.org/2000/svg" viewBox="0 0 16 16">
<path id="folder" fill="#546e7a" d="m6.922 3.768-.644-.536A1 1 0 0 0 5.638 3H2a1 1 0 0 0-1 1v8a1 1 0 0 0 1 1h12a1 1 0 0 0 1-1V5a1 1 0 0 0-1-1H7.562a1 1 0 0 1-.64-.232" />
<path id="motive" fill="#eceff1" d="M 11.500655,5 A 4.515627,4.515627 0 0 0 7.0000302,9.5321293 4.5406305,4.5406305 0 0 0 10.078958,13.837227 c 0.225031,0.036 0.296541,-0.105015 0.296541,-0.226531 V 12.844589 C 9.1288256,13.116627 8.8632887,12.237505 8.8632887,12.237505 a 1.210168,1.210168 0 0 0 -0.499069,-0.666592 c -0.410057,-0.28054 0.031004,-0.272039 0.031004,-0.272039 a 0.95013193,0.95013193 0 0 1 0.6885954,0.466565 0.96263367,0.96263367 0 0 0 1.3101819,0.377053 0.9801361,0.9801361 0 0 1 0.283039,-0.607584 C 9.6779018,11.421392 8.6297563,11.031337 8.6297563,9.3050978 A 1.7602445,1.7602445 0 0 1 9.0933206,8.0769272 1.6302264,1.6302264 0 0 1 9.138327,6.8807612 c 0,0 0.3770522,-0.1225171 1.237172,0.4620641 a 4.3005972,4.3005972 0 0 1 2.250312,0 c 0.85912,-0.5845812 1.238172,-0.4620641 1.238172,-0.4620641 a 1.6302264,1.6302264 0 0 1 0.04401,1.196166 1.7602445,1.7602445 0 0 1 0.463565,1.2281706 c 0,1.7312402 -1.052647,2.1117932 -2.056286,2.2253092 a 1.0851507,1.0851507 0 0 1 0.311043,0.838116 v 1.242173 c 0,0.122016 0.07151,0.266536 0.301042,0.226531 A 4.5406305,4.5406305 0 0 0 11.500655,5" />
</svg>
