<svg width="24" height="24" viewBox="0 0 24 24" fill="none" xmlns="http://www.w3.org/2000/svg">
<path d="M10 4H4C2.9 4 2 4.9 2 6V18C2 19.1 2.9 20 4 20H20C21.1 20 22 19.1 22 18V8C22 6.9 21.1 6 20 6H12L10 4Z" fill="#424242"/>
<path d="M18.5739 18.7101C20.3643 18.5112 22.0523 17.5572 22.9817 15.9649C22.5415 19.9034 18.2349 22.3927 14.7197 20.8643C14.3957 20.7239 14.1169 20.4902 13.9256 20.1898C13.1356 18.9493 12.8759 17.3709 13.249 15.9385C14.3151 17.7784 16.4828 18.9062 18.5739 18.7101Z" fill="#FFB300"/>
<path d="M13.1839 14.7828C12.4581 16.46 12.4267 18.4235 13.3165 20.0395C10.1852 17.6838 10.2194 12.6425 13.2782 10.3103C13.5611 10.0948 13.8973 9.96683 14.25 9.94735C15.7001 9.87086 17.1735 10.4313 18.2067 11.4757C16.1074 11.4966 14.0627 12.8414 13.1839 14.7828Z" fill="#880E4F"/>
<path d="M19.2191 11.9918C18.1599 10.5148 16.502 9.50938 14.6855 9.47879C18.1967 7.88507 22.5156 10.469 22.9859 14.2892C23.0296 14.6438 22.9722 15.0054 22.815 15.3252C22.1589 16.6575 20.9425 17.6908 19.5211 18.0732C20.5626 16.1415 20.4341 13.7816 19.2191 11.9918Z" fill="#E53935"/>
</svg>
