<svg xmlns="http://www.w3.org/2000/svg" viewBox="0 0 16 16">
<path id="folder" fill="#8bc34a" d="M14.483 6H4.721a1 1 0 0 0-.949.684L2 12V5h12a1 1 0 0 0-1-1H7.562a1 1 0 0 1-.64-.232l-.644-.536A1 1 0 0 0 5.638 3H2a1 1 0 0 0-1 1v8a1 1 0 0 0 1 1h11l2.403-5.606A1 1 0 0 0 14.483 6" />
<path id="motive" fill="#dcedc8" d="M 13.000408,7 H 8.000093 A 2.2666424,2.2665 0 0 0 5.750952,8.9855 l -0.741547,4.638 A 1.225077,1.225 0 0 0 6.224982,15 1.225077,1.225 0 0 0 7.205043,14.51 L 8.500125,13 h 4.000251 l 1.295081,1.51 A 1.225077,1.225 0 0 0 14.775519,15 1.225077,1.225 0 0 0 15.990595,13.6235 L 15.249549,8.9855 A 2.2666424,2.2665 0 0 0 13.000408,7 M 12.500376,8 A 0.5000314,0.5 0 1 1 12.000345,8.5 0.5000314,0.5 0 0 1 12.500376,8 m -2.500157,2 H 9.000156 v 1 H 8.000093 V 10 H 7.00003 V 9 H 8.000093 V 8 h 1.000063 v 1 h 1.000063 z m 1.500094,0 A 0.5000314,0.5 0 1 1 12.000345,9.5 0.5000314,0.5 0 0 1 11.500313,10 m 1.000063,1 a 0.5000314,0.5 0 1 1 0.500032,-0.5 0.5000314,0.5 0 0 1 -0.500032,0.5 m 1.000063,-1 A 0.5000314,0.5 0 1 1 14.00047,9.5 0.5000314,0.5 0 0 1 13.500439,10" />
</svg>
