<svg xmlns="http://www.w3.org/2000/svg" viewBox="0 0 32 32">
  <path d="M28.96692,12H9.44152a2,2,0,0,0-1.89737,1.36754L4,24V10H28a2,2,0,0,0-2-2H15.1241a2,2,0,0,1-1.28038-.46357L12.5563,6.46357A2,2,0,0,0,11.27592,6H4A2,2,0,0,0,2,8V24a2,2,0,0,0,2,2H26l4.80523-11.21213A2,2,0,0,0,28.96692,12Z" style="fill: #00897b"/>
  <g>
    <path d="M14,12.00145l7.765,16h2.53569l4.85191-10H24.81649l-1.78084,4L18.3389,12Z" style="fill: #b2dfdb"/>
    <path d="M25.76423,12.00145v.92617h1.73193l-.28516.5848H24.37757v.92187H26.7553L26.417,15.13h-3.394v.87145h7.03953L32,12.01585h-.76462v-.0144Z" style="fill: #ffcdd2"/>
  </g>
</svg>
