<svg viewBox="0 0 25 25" fill="none" xmlns="http://www.w3.org/2000/svg">
  <g clip-path="url(#clip0_614_45)">
    <path
      d="M10.446 4.29077H4.38122C3.25923 4.29077 2.35962 5.17718 2.35962 6.28269V18.2342C2.35962 19.3268 3.27237 20.2262 4.38122 20.2262H20.554C21.6628 20.2262 22.5756 19.3268 22.5756 18.2342V8.27462C22.5756 7.74633 22.3626 7.23967 21.9835 6.86611C21.6043 6.49256 21.0901 6.28269 20.554 6.28269H12.4676L10.446 4.29077Z"
      fill="#69F0AE" />
    <g clip-path="url(#clip1_614_45)">
      <path
        d="M11.062 16.8498C10.902 16.2648 10.896 15.9598 10.896 15.3478C10.896 12.5578 12.649 10.0058 15.258 8.99976L15.6 9.88476C14.4988 10.3139 13.552 11.0641 12.8826 12.0381C12.2131 13.0121 11.852 14.1649 11.846 15.3468C11.846 15.8738 11.851 16.1368 11.988 16.6398L11.062 16.8488V16.8498Z"
        fill="#B9F6CA" />
      <path
        d="M15.258 8.99977C15.8099 8.78547 16.3887 8.64818 16.978 8.59177C19.754 8.29977 22.437 9.69477 23.71 12.1838L22.869 12.6228C21.773 10.4798 19.467 9.28477 17.078 9.53677C16.571 9.5841 16.073 9.7012 15.598 9.88477L15.258 8.99977Z"
        fill="#B9F6CA" />
      <path
        d="M21.585 19.6948C22.946 18.2778 23.675 16.7178 23.509 14.8258C23.443 14.0565 23.2255 13.3078 22.869 12.6228L23.711 12.1838C24.125 12.9798 24.353 13.8438 24.455 14.7438C24.648 16.4338 23.939 18.8438 22.379 20.2618L21.585 19.6948V19.6948ZM18.45 20.4478L18.22 21.0078C18.1977 21.0619 18.1604 21.1084 18.1126 21.1421C18.0648 21.1757 18.0084 21.1951 17.95 21.1978C17.8714 21.2013 17.7927 21.2033 17.714 21.2038C14.993 21.2028 12.585 19.2838 11.988 16.6408L11.062 16.8498C11.4033 18.3428 12.2366 19.6776 13.428 20.6398C14.64 21.6153 16.1482 22.149 17.704 22.1528H17.717C17.809 22.1528 17.899 22.1508 17.989 22.1468C18.2289 22.1364 18.4609 22.0577 18.6575 21.9198C18.8542 21.782 19.0074 21.5908 19.099 21.3688L19.4 20.6368L18.45 20.4478Z"
        fill="#B9F6CA" />
      <path
        d="M15.681 13.9439C16.231 13.9439 16.681 14.2379 16.911 14.7499L16.929 14.7899L17.854 14.4759L17.834 14.4289C17.476 13.5559 16.651 13.0139 15.681 13.0139C14.999 13.0139 14.445 13.2329 13.987 13.6819C13.532 14.1279 13.301 14.6889 13.301 15.3499C13.301 16.0049 13.531 16.5629 13.987 17.0089C14.445 17.4569 14.999 17.6759 15.681 17.6759C16.651 17.6759 17.476 17.1339 17.834 16.2629L17.854 16.2149L16.928 15.8999L16.91 15.9419C16.704 16.4449 16.244 16.7459 15.681 16.7459C15.298 16.7459 14.974 16.6119 14.717 16.3479C14.5889 16.2159 14.4884 16.0596 14.4214 15.8882C14.3544 15.7169 14.3223 15.5338 14.327 15.3499C14.327 14.9519 14.454 14.6229 14.717 14.3429C14.973 14.0779 15.297 13.9439 15.681 13.9439V13.9439Z"
        fill="white" />
      <path
        d="M21.474 13.0999L20.156 16.4349L18.828 13.0999H17.744L19.604 17.6519L17.701 22.1479C17.9849 22.2023 18.2789 22.1568 18.5332 22.0192C18.7874 21.8816 18.9863 21.6603 19.096 21.3929L22.499 13.0999H21.474Z"
        fill="white" />
    </g>
  </g>
  <defs>
    <clipPath id="clip0_614_45">
      <rect width="24.2592" height="23.9031" fill="white" transform="translate(0.338013 0.306885)" />
    </clipPath>
    <clipPath id="clip1_614_45">
      <rect width="15" height="14" fill="white" transform="translate(10.448 8.27686)" />
    </clipPath>
  </defs>
</svg>