<?xml version="1.0" encoding="UTF-8"?>
<svg viewBox="0 0 17 13" xmlns="http://www.w3.org/2000/svg"><path d="M12.548125 11.81H1.47625C.656931 11.81 0 11.145688 0 10.33375v-8.8575C0 .656931.656931 0 1.47625 0H5.905l1.47625 1.47625h5.166875c.81531 0 1.47625.66094 1.47625 1.47625H1.47625v7.38125l1.579588-5.905h12.599794l-1.682925 6.274063C13.802938 11.344982 13.2272 11.81 12.548125 11.81z" fill="#03A9F4"/><g fill="#CBEDFC"><path d="M16.261038 7.637724c0-.492451-.081563-.969136-.229401-1.415782l-2.273052 5.508044c1.497254-.82717 2.502427-2.34968 2.502427-4.092262h.000025zm-6.971119 4.874578c.49453.16291 1.023875.250443 1.575188.250443.576053 0 1.127845-.095612 1.642251-.27248L10.98971 8.63171 9.289944 12.5123H9.28992zM5.914872 6.566195c-.129272.42732-.199885.87965-.199885 1.34805 0 1.787042 1.00982 3.344161 2.502452 4.159994L5.929853 6.596134l-.01498-.02994z"/><path d="M8.474285 5.96956c-.488194-.007623-.434132.469111-.434132.469111l1.732146 4.08643 1.164496-2.616326-.65009-1.556835c-.260304-.41163-.895532-.40731-.895532-.40731v-.216864h3.642158l-.005412.240528-.378961.022123c-.47196 0-.376533.422307-.376533.422307l1.580493 3.97127.453032-1.099667c.803617-1.713685.307873-2.981922.307873-2.981922-.804725-1.557331.212183-1.780825.212183-1.780825.06433-.008641.124622-.013458.183805-.016016-.95556-1.05619-2.378988-1.72615-3.96814-1.72615-2.148696 0-3.994351 1.22476-4.790445 2.972288l2.438198-.023638.008632.250956-.22377-.00946z"/></g></svg>
