<svg version="1.1" viewBox="0 0 32 32" xmlns="http://www.w3.org/2000/svg">
 <path d="M28.96692,12H9.44152a2,2,0,0,0-1.89737,1.36754L4,24V10H28a2,2,0,0,0-2-2H15.1241a2,2,0,0,1-1.28038-.46357L12.5563,6.46357A2,2,0,0,0,11.27592,6H4A2,2,0,0,0,2,8V24a2,2,0,0,0,2,2H26l4.80523-11.21213A2,2,0,0,0,28.96692,12Z" fill="#f9a825"/>
 <path d="m24 28v-2h3q0.425 0 0.7125-0.288 0.2875-0.287 0.2875-0.712v-2q0-0.95 0.55-1.725t1.45-1.1v-0.35q-0.9-0.325-1.45-1.1t-0.55-1.725v-2q0-0.425-0.2875-0.712-0.2875-0.288-0.7125-0.288h-3v-2h3q1.25 0 2.125 0.875t0.875 2.125v2q0 0.425 0.2875 0.712 0.2875 0.288 0.7125 0.288h1v4h-1q-0.425 0-0.7125 0.288-0.2875 0.287-0.2875 0.712v2q0 1.25-0.875 2.125t-2.125 0.875zm-7 0q-1.25 0-2.125-0.875t-0.875-2.125v-2q0-0.425-0.2875-0.712-0.2875-0.288-0.7125-0.288h-1v-4h1q0.425 0 0.7125-0.288 0.2875-0.287 0.2875-0.712v-2q0-1.25 0.875-2.125t2.125-0.875h3v2h-3q-0.425 0-0.7125 0.288-0.2875 0.287-0.2875 0.712v2q0 0.95-0.55 1.725t-1.45 1.1v0.35q0.9 0.325 1.45 1.1t0.55 1.725v2q0 0.425 0.2875 0.712 0.2875 0.288 0.7125 0.288h3v2z" fill="#fff8e1" stroke-width=".025"/>
</svg>
