<svg xmlns="http://www.w3.org/2000/svg" viewBox="0 0 16 16"><path id="folder" fill="#ffc107" d="m6.922 3.768-.644-.536A1 1 0 0 0 5.638 3H2a1 1 0 0 0-1 1v8a1 1 0 0 0 1 1h12a1 1 0 0 0 1-1V5a1 1 0 0 0-1-1H7.562a1 1 0 0 1-.64-.232"/><path id="motive" fill="#fff9c4" d="M11.5 12.075A1.6 1.6 0 0 1 9.88 10.5a1.62 1.62 0 1 1 1.62 1.575m3.438-1.138a4 4 0 0 0 .032-.437 4 4 0 0 0-.032-.45l.976-.734a.223.223 0 0 0 .056-.288l-.927-1.556a.23.23 0 0 0-.282-.1l-1.15.45a3.4 3.4 0 0 0-.783-.44l-.171-1.193A.23.23 0 0 0 12.425 6h-1.85a.23.23 0 0 0-.232.189l-.17 1.193a3.4 3.4 0 0 0-.782.44l-1.152-.45a.23.23 0 0 0-.282.1l-.925 1.556a.22.22 0 0 0 .056.288l.975.734a4 4 0 0 0-.032.45 4 4 0 0 0 .032.437l-.975.746a.22.22 0 0 0-.056.288l.925 1.558a.235.235 0 0 0 .282.099l1.152-.455a3.2 3.2 0 0 0 .782.446l.17 1.192a.23.23 0 0 0 .232.189h1.85a.23.23 0 0 0 .232-.189l.17-1.192a3.4 3.4 0 0 0 .783-.446l1.151.455a.24.24 0 0 0 .283-.1l.926-1.557a.223.223 0 0 0-.056-.288z"/></svg>