<?xml version="1.0" encoding="UTF-8" standalone="no"?>
<svg
   xmlns:dc="http://purl.org/dc/elements/1.1/"
   xmlns:cc="http://creativecommons.org/ns#"
   xmlns:rdf="http://www.w3.org/1999/02/22-rdf-syntax-ns#"
   xmlns:svg="http://www.w3.org/2000/svg"
   xmlns="http://www.w3.org/2000/svg"
   xmlns:sodipodi="http://sodipodi.sourceforge.net/DTD/sodipodi-0.dtd"
   xmlns:inkscape="http://www.inkscape.org/namespaces/inkscape"
   style="clip-rule:evenodd;fill-rule:evenodd;stroke-linejoin:round;stroke-miterlimit:1.4142"
   version="1.1"
   viewBox="0 0 24 24"
   xml:space="preserve"
   id="svg8"
   sodipodi:docname="folder-templates-open.svg"
   inkscape:version="0.92.2 2405546, 2018-03-11"><metadata
     id="metadata14"><rdf:RDF><cc:Work
         rdf:about=""><dc:format>image/svg+xml</dc:format><dc:type
           rdf:resource="http://purl.org/dc/dcmitype/StillImage" /></cc:Work></rdf:RDF></metadata><defs
     id="defs12" /><sodipodi:namedview
     pagecolor="#ffffff"
     bordercolor="#666666"
     borderopacity="1"
     objecttolerance="10"
     gridtolerance="10"
     guidetolerance="10"
     inkscape:pageopacity="0"
     inkscape:pageshadow="2"
     inkscape:window-width="640"
     inkscape:window-height="480"
     id="namedview10"
     showgrid="true"
     inkscape:zoom="24"
     inkscape:cx="10.793196"
     inkscape:cy="11.133369"
     inkscape:current-layer="svg8"><inkscape:grid
       type="xygrid"
       id="grid1384" /></sodipodi:namedview><path
     d="m19 20h-15c-1.11 0-2-.9-2-2v-12c0-1.11.89-2 2-2h6l2 2h7c1.097 0 2 .903 2 2h-17v10l2.14-8h17.07l-2.28 8.5c-.23.87-1.01 1.5-1.93 1.5z"
     style="fill-rule:nonzero;fill:#039be5;fill-opacity:1"
     id="path2" /><path
     inkscape:connector-curvature="0"
     d="m 13.888889,8.7777773 a 1.5555555,1.5555555 0 0 0 -1.555556,1.5555557 v 3.111111 A 1.5555555,1.5555555 0 0 1 10.777777,15 H 9.9999998 v 1.555555 h 0.7777772 a 1.5555555,1.5555555 0 0 1 1.555556,1.555555 v 3.111111 a 1.5555555,1.5555555 0 0 0 1.555556,1.555556 h 1.555555 v -1.555556 h -1.555555 v -3.888888 a 1.5555555,1.5555555 0 0 0 -1.555556,-1.555556 1.5555555,1.5555555 0 0 0 1.555556,-1.555556 v -3.888888 h 1.555555 V 8.7777773 m 4.666667,0 a 1.5555555,1.5555555 0 0 1 1.555555,1.5555557 v 3.111111 A 1.5555555,1.5555555 0 0 0 23.222221,15 H 24 v 1.555555 h -0.777779 a 1.5555555,1.5555555 0 0 0 -1.555555,1.555555 v 3.111111 a 1.5555555,1.5555555 0 0 1 -1.555555,1.555556 h -1.555555 v -1.555556 h 1.555555 v -3.888888 a 1.5555555,1.5555555 0 0 1 1.555555,-1.555556 1.5555555,1.5555555 0 0 1 -1.555555,-1.555556 V 10.333333 H 18.555556 V 8.7777773 Z"
     id="path2-36"
     style="fill:#b3e5fc;fill-opacity:1;stroke-width:0.77777773" /></svg>