<svg clip-rule="evenodd" fill-rule="evenodd" stroke-linejoin="round" stroke-miterlimit="1.414" viewBox="0 0 24 24" xml:space="preserve" xmlns="http://www.w3.org/2000/svg"><path fill="#F44336" d="M19.001,20.001h-15c-1.104,0-2-0.896-2-2v-12c0-1.109,0.89-2,2-2h6l2,2h7c1.097,0,2,0.903,2,2h-17v10l2.14-8 h17.07l-2.28,8.5C20.701,19.371,19.921,20.001,19.001,20.001z"/><path fill="#FFCDD2" d="M12.347,21.452c-0.014-0.001-0.029-0.004-0.043-0.006c-0.332-0.05-0.633-0.135-0.899-0.253 c-0.232-0.102-0.447-0.235-0.637-0.396c-0.282-0.232-0.517-0.533-0.693-0.887c-0.1-0.203-0.183-0.434-0.245-0.685 c-0.071-0.293-0.112-0.607-0.12-0.93l-0.012-0.23l0.826-1.509c-0.116-0.159-0.21-0.34-0.276-0.532 c-0.087-0.245-0.13-0.519-0.13-0.812c0-0.35,0.062-0.731,0.185-1.132c0.122-0.382,0.287-0.764,0.495-1.14 c0.412-0.757,0.997-1.522,1.689-2.209l0.264-0.255h0.006c0.458-0.429,0.936-0.807,1.422-1.128c0.606-0.399,1.195-0.694,1.752-0.877 c0.431-0.138,0.813-0.205,1.173-0.205c0.28,0,0.544,0.044,0.786,0.129c0.278,0.098,0.52,0.252,0.722,0.457 c0.021,0.021,0.043,0.045,0.064,0.068L20.416,8l0.151,0.023c0.592,0.099,1.041,0.267,1.409,0.509 c0.359,0.235,0.652,0.542,0.869,0.915c0.127,0.219,0.227,0.464,0.297,0.728c0.081,0.306,0.122,0.635,0.122,0.981v0.76h-0.052 l-0.681,8.935l-8.977,0.613L13.54,21.51l-0.549-0.01L12.347,21.452z M14.181,19.662l6.714-0.458l0.428-5.62l-2.434,0.183 l1.307,5.109l-5.224-1.671L14.181,19.662z M12.896,18.065l0.275-0.887c-0.207,0.062-0.408,0.106-0.599,0.132L12.896,18.065z  M17.709,16.237l-0.474-1.857c-0.135,0.15-0.277,0.299-0.424,0.445c-0.306,0.3-0.616,0.576-0.929,0.828L17.709,16.237z  M11.998,15.559c0.018,0.005,0.07,0.021,0.176,0.021c0.168,0,0.385-0.042,0.611-0.119c0.271-0.092,0.561-0.226,0.863-0.398 c0.641-0.364,1.307-0.877,1.926-1.485c0.424-0.418,0.812-0.888,1.123-1.357c0.294-0.445,0.513-0.877,0.631-1.251 c0.07-0.221,0.108-0.43,0.108-0.592c0-0.109-0.016-0.179-0.029-0.218l-0.046-0.015l-0.118-0.115 c-0.001,0.001-0.073-0.005-0.138-0.005c-0.176,0-0.385,0.04-0.619,0.12c-0.266,0.083-0.554,0.211-0.867,0.383 c-0.646,0.36-1.297,0.862-1.883,1.45l-0.136,0.13c-0.379,0.388-0.712,0.801-0.991,1.229c-0.286,0.436-0.502,0.875-0.626,1.268 c-0.071,0.231-0.108,0.442-0.108,0.604c0,0.101,0.01,0.177,0.032,0.237l0.027,0.077 M19,11.501c-0.055,0.172-0.121,0.345-0.196,0.52 l1.025-0.063l-0.775-0.635C19.037,11.381,19.019,11.44,19,11.501z M21.509,11.137c-0.003-0.217-0.029-0.406-0.078-0.57 c-0.049-0.157-0.119-0.284-0.219-0.394c-0.071-0.081-0.15-0.143-0.249-0.201c-0.095-0.057-0.209-0.105-0.337-0.143l-0.391,0.217 L21.509,11.137z"/>
</svg>
