<svg xmlns="http://www.w3.org/2000/svg" viewBox="0 0 16 16"><path d="m6.922 3.768-.644-.536A1 1 0 0 0 5.638 3H2a1 1 0 0 0-1 1v8a1 1 0 0 0 1 1h12a1 1 0 0 0 1-1V5a1 1 0 0 0-1-1H7.562a1 1 0 0 1-.64-.232" fill="#388E3C"/><path transform="scale(0.25) translate(32,24)" fill="#A5D6A7" d="M16 0 2 8v16l14 8 14-8V8Zm8 23a1 1 0 0 1-1 1h-2.52a1 1 0 0 1-.78-.375L12 14v9a1 1 0 0 1-1 1H9a1 1 0 0 1-1-1V9a1 1 0 0 1 1-1h2.52a1 1 0 0 1 .78.375L20 18V9a1 1 0 0 1 1-1h2a1 1 0 0 1 1 1Z"/><path id="grid" fill="none" stroke="#FF3D00" stroke-width="0.01" d="m 1,0 v 16 m 1,0 V 0 m 1,0 v 16 m 1,0 V 0 m 1,0 v 16 m 1,0 V 0 m 1,0 v 16 m 1,0 V 0 m 1,0 v 16 m 1,0 V 0 m 1,0 v 16 m 1,0 V 0 m 1,0 v 16 m 1,0 V 0 m 1,0 V 16 M 0,1 h 16 m 0,1 H 0 m 0,1 h 16 m 0,1 H 0 m 0,1 h 16 m 0,1 H 0 m 0,1 h 16 m 0,1 H 0 m 0,1 h 16 m 0,1 H 0 m 0,1 h 16 m 0,1 H 0 m 0,1 h 16 m 0,1 H 0 m 0,1 h 16"/></svg>
