<svg xmlns="http://www.w3.org/2000/svg" viewBox="0 0 16 16">
<path id="folder" fill="#ff9800" d="m6.922 3.768-.644-.536A1 1 0 0 0 5.638 3H2a1 1 0 0 0-1 1v8a1 1 0 0 0 1 1h12a1 1 0 0 0 1-1V5a1 1 0 0 0-1-1H7.562a1 1 0 0 1-.64-.232" />
<path id="motive" fill="#ffe0b2" d="M 9.999879,5 C 9.999879,5 9,5.929888 9,6.999759 c 0,1.069872 2.999639,3.999519 2.999639,3.999519 l -0.444946,0.439947 a 1.4998196,1.4998195 0 0 0 -2.549694,0.99988 1.504819,1.5048189 0 0 0 1.429828,1.559812 1.5098183,1.5098182 0 0 0 1.554813,-1.619805 l 1.009879,-0.629924 0.124984,0.154981 a 1.5098183,1.5098182 0 0 0 1.314842,2.094748 1.504819,1.5048189 0 0 0 1.559812,-1.439827 1.504819,1.5048189 0 0 0 -2.189736,-1.389833 z m 4.999399,0 -1.999759,3.999519 0.999879,0.999879 c 0,0 1.999759,-1.969763 1.999759,-2.999639 C 15.999157,5.969883 14.999278,5 14.999278,5 m -4.529455,6.999157 h 0.04999 c 0.25497,0.01 0.449946,0.199976 0.474943,0.444947 v 0.09999 A 0.48994105,0.48994102 0 0 1 10.479823,12.999037 0.49494045,0.49494042 0 0 1 9.99988,12.4791 0.48994105,0.48994102 0 0 1 10.469824,11.999157 m 3.999519,0 h 0.04999 c 0.279967,0.01 0.489941,0.239972 0.479943,0.519938 A 0.48994105,0.48994102 0 0 1 14.479343,12.999037 0.48994105,0.48994102 0 0 1 13.9994,12.4791 0.48994105,0.48994102 0 0 1 14.469344,11.999157" />
</svg>
