<svg xmlns="http://www.w3.org/2000/svg" xml:space="preserve" viewBox="0 0 16 16">
<path fill="#00acc1" d="m6.922 3.768-.644-.536A1 1 0 0 0 5.638 3H2a1 1 0 0 0-1 1v8a1 1 0 0 0 1 1h12a1 1 0 0 0 1-1V5a1 1 0 0 0-1-1H7.562a1 1 0 0 1-.64-.232" id="folder"/>
<path fill="#b2ebf2" d="M11.62 13.998c-0.065-0.045-0.142-0.195-0.186-0.362-0.039-0.148-0.054-0.539-0.028-0.731 0.01-0.0715 0.015-0.132 0.0125-0.135a1 1 0 0 0-0.135-0.021c-0.41-0.0495-0.847-0.189-1.18-0.376a1 1 0 0 0-0.147-0.072c-0.01 0-0.046 0.053-0.08 0.118-0.1565 0.302-0.4305 0.602-0.639 0.7-0.076 0.035-0.1775 0.044-0.224 0.019-0.071-0.038-0.0915-0.188-0.0495-0.354 0.029-0.1135 0.145-0.353 0.239-0.4925 0.0415-0.062 0.124-0.1665 0.183-0.233l0.1065-0.12-0.0555-0.0535c-0.147-0.14-0.423-0.465-0.423-0.4975 0-0.0115 0.3765-0.273 0.404-0.28 0.014-0.004 0.0475 0.029 0.0935 0.092 0.0985 0.136 0.363 0.3975 0.519 0.513 1.186 0.882 2.858 0.66 3.7585-0.498 0.0475-0.0615 0.094-0.112 0.1035-0.112 0.018 0 0.39 0.253 0.4035 0.274 0.0115 0.0185-0.1515 0.23-0.29 0.376-0.0665 0.0695-0.12 0.132-0.12 0.139s0.0515 0.067 0.115 0.1335c0.201 0.212 0.3985 0.543 0.4535 0.759 0.042 0.166 0.0215 0.316-0.0495 0.354a0.25 0.25 0 0 1-0.09 0.0145c-0.2165 0-0.575-0.348-0.7885-0.7635-0.041-0.08-0.0805-0.146-0.088-0.146a0.5 0.5 0 0 0-0.093 0.051c-0.31 0.1985-0.772 0.37-1.172 0.434a1 1 0 0 0-0.17 0.037c-0.011 0.0085-0.01 0.0485 0.005 0.1385 0.026 0.16 0.016 0.5415-0.0185 0.696-0.035 0.159-0.0895 0.2825-0.1565 0.3555-0.077 0.084-0.1365 0.0965-0.2135 0.043m-4.2565-3.245c-0.004-0.01-0.005-0.538-0.0035-1.1735l0.004-1.155h0.605l0.004 0.425c0.003 0.3185 0.0085 0.4285 0.0215 0.437 0.01 0.006 0.1615 0.0115 0.337 0.0115 0.2485 0 0.3225-0.004 0.335-0.019q0.015-0.019 0.0195-0.437l0.004-0.417h0.605v2.3385h-0.605l-0.004-0.4465c-0.0025-0.3-0.009-0.4525-0.02-0.465-0.0125-0.015-0.0865-0.02-0.3365-0.02s-0.3245 0.005-0.337 0.02c-0.0105 0.0125-0.017 0.165-0.02 0.465l-0.0035 0.4465-0.2995 0.004c-0.2315 0.003-0.301 0-0.306-0.015zm2.45 0c-0.004-0.01-0.005-0.538-0.003-1.1735l0.0035-1.155h1.499l0.004 0.2565 0.004 0.256-0.4435 0.0035-0.444 0.004-0.004 0.172c-0.003 0.128 0.001 0.175 0.015 0.184 0.01 0.0065 0.182 0.0115 0.3825 0.012h0.364l-0.004 0.2565-0.004 0.256-0.749 0.015v0.404l0.461 0.007 0.461 0.007v0.5055l-0.7675 0.0035c-0.607 0.003-0.77 0-0.775-0.0145zm2.0175 0c-0.0035-0.01-0.005-0.538-0.003-1.1735l0.0035-1.155h0.6055l0.0075 0.91 0.007 0.909 0.879 0.015v0.505l-0.746 0.0035c-0.5895 0.003-0.748 0-0.7535-0.0145zm1.917 0c-0.0035-0.01-0.005-0.538-0.003-1.173l0.0035-1.155 0.317-0.0035c0.175-0.002 0.3245 0.001 0.333 0.007 0.0215 0.0145 0.3415 0.8865 0.412 1.1225 0.0735 0.2455 0.068 0.231 0.085 0.2145 0.0075-0.008 0.0415-0.105 0.075-0.2155 0.075-0.244 0.37-1.089 0.39-1.115 0.01-0.0135 0.088-0.017 0.332-0.014l0.319 0.004v2.3385l-0.27 0.004-0.27 0.004-0.0095-0.0385c-0.02-0.079 0.007-0.915 0.037-1.1535 0.047-0.375 0.04-0.381-0.0715-0.0575-0.1205 0.35-0.36 0.9935-0.383 1.0285-0.02 0.03-0.0315 0.0325-0.17 0.0325-0.1025 0-0.154-0.0055-0.1635-0.018-0.018-0.023-0.312-0.8235-0.3925-1.068-0.057-0.1725-0.0875-0.235-0.0865-0.1745 0 0.015 0.0135 0.1335 0.0295 0.2645 0.03 0.245 0.056 1.068 0.0365 1.146l-0.0095 0.0375h-0.267c-0.2 0-0.2685-0.0045-0.2735-0.018zm0.1905-2.6665a2.85 2.85 0 0 0-0.32-0.4035c-0.39-0.41-0.858-0.6685-1.4335-0.7915-0.165-0.0355-0.2085-0.039-0.512-0.0395-0.357-0.001-0.435 0.008-0.712 0.0805a2.65 2.65 0 0 0-1.0175 0.5185c-0.145 0.1185-0.3765 0.3625-0.475 0.5015-0.061 0.085-0.092 0.117-0.108 0.111-0.0525-0.02-0.404-0.2565-0.404-0.2715 0.0005-0.0345 0.2375-0.3315 0.3985-0.5l0.166-0.1735-0.11-0.119c-0.201-0.218-0.3935-0.543-0.447-0.754-0.0425-0.166-0.0215-0.316 0.0495-0.354a0.25 0.25 0 0 1 0.09-0.015c0.2165 0.001 0.575 0.3485 0.7885 0.764 0.041 0.08 0.08 0.1455 0.086 0.1455s0.0625-0.029 0.125-0.065c0.322-0.1835 0.8385-0.347 1.1905-0.377 0.061-0.005 0.118-0.014 0.1275-0.02 0.0125-0.0075 0.0105-0.0465-0.008-0.1575-0.034-0.205-0.0235-0.6065 0.0205-0.7735 0.07-0.264 0.182-0.412 0.296-0.3905 0.1065 0.02 0.21 0.1935 0.2635 0.443 0.035 0.1625 0.036 0.6205 0.0015 0.7705-0.0125 0.0555-0.019 0.1055-0.0135 0.111s0.074 0.02 0.1535 0.0325c0.459 0.0725 0.8075 0.2005 1.2345 0.455 0.029 0.017 0.0565 0.025 0.0605 0.018 0.005-0.007 0.044-0.0845 0.0875-0.172 0.169-0.338 0.441-0.645 0.664-0.75 0.076-0.035 0.177-0.044 0.224-0.019 0.071 0.038 0.0915 0.188 0.05 0.354-0.0315 0.1215-0.15 0.3605-0.256 0.516-0.05 0.073-0.15 0.193-0.224 0.267l-0.1335 0.135 0.1315 0.14c0.133 0.141 0.3675 0.441 0.4105 0.524 0.02 0.0375 0.02 0.048 0.004 0.063-0.033 0.03-0.3875 0.2385-0.406 0.2385-0.01 0-0.029-0.019-0.043-0.0425" id="motive"/>
</svg>
