<svg version="1.1" viewBox="0 0 32 32" xml:space="preserve" xmlns="http://www.w3.org/2000/svg"><path transform="translate(.095729 3.182)" d="m13.748 4.354-1.288-1.072a2 2 0 0 0-1.28-0.464h-7.276a2 2 0 0 0-2 2v16a2 2 0 0 0 2 2h24a2 2 0 0 0 2-2v-14a2 2 0 0 0-2-2h-12.876a2 2 0 0 1-1.28-0.464" fill="#455a64"/><g transform="matrix(1.398 0 0 1.3099 -13.794 -7.3898)" fill="none" stroke="#F5F5F5" stroke-linecap="round"><path d="m22.246 20.413 5.1959-4.992m-9.8795 3.4883 6.9773-6.6283c2.2987-2.2085 5.3663 0.77268 2.9019 3.1403 2.4633-2.3666 5.6337 0.59077 3.1719 2.956l-5.6893 5.466c-0.95793 0.92033-0.94453 1.3438 0.39054 2.6265" stroke-width="1.0827"/><path transform="matrix(4.1691 0 0 4.0167 -1.6443 -1.7127)" d="m6.6334 3.8586-1.1987 1.1987c-0.6407 0.6407 0.14361 1.3531 0.74835 0.74835l1.1971-1.1971" stroke-width=".26458"/></g></svg>
