<?xml version="1.0" encoding="UTF-8" standalone="no"?>
<svg
   clip-rule="evenodd"
   fill-rule="evenodd"
   stroke-linejoin="round"
   stroke-miterlimit="1.414"
   viewBox="0 0 24 24"
   xml:space="preserve"
   version="1.1"
   id="svg2"
   sodipodi:docname="folder-ios.svg"
   inkscape:version="1.3 (0e150ed, 2023-07-21)"
   xmlns:inkscape="http://www.inkscape.org/namespaces/inkscape"
   xmlns:sodipodi="http://sodipodi.sourceforge.net/DTD/sodipodi-0.dtd"
   xmlns="http://www.w3.org/2000/svg"
   xmlns:svg="http://www.w3.org/2000/svg"><defs
     id="defs2" /><sodipodi:namedview
     id="namedview2"
     pagecolor="#ffffff"
     bordercolor="#000000"
     borderopacity="0.25"
     inkscape:showpageshadow="2"
     inkscape:pageopacity="0.0"
     inkscape:pagecheckerboard="0"
     inkscape:deskcolor="#d1d1d1"
     inkscape:zoom="1"
     inkscape:cx="12.5"
     inkscape:cy="12"
     inkscape:window-width="1440"
     inkscape:window-height="1567"
     inkscape:window-x="1800"
     inkscape:window-y="25"
     inkscape:window-maximized="0"
     inkscape:current-layer="svg2" /><path
     d="M10 4H4c-1.11 0-2 .89-2 2v12c0 1.097.903 2 2 2h16c1.097 0 2-.903 2-2V8a2 2 0 0 0-2-2h-8l-2-2z"
     fill="#e57373"
     fill-rule="nonzero"
     style="fill:#546e7a;fill-opacity:1"
     id="path1" /><path
     d="m 23.395,13.464 v -1.801 h -3.602 a 1.801,1.801 0 0 0 -1.801,1.801 v 1.801 a 1.801,1.801 0 0 0 1.8,1.801 h 1.802 v 1.801 H 17.99 v 1.801 h 3.603 a 1.801,1.801 0 0 0 1.8,-1.8 v -1.802 a 1.801,1.801 0 0 0 -1.8,-1.8 h -1.801 v -1.802 m -4.503,5.403 h -1.801 v -5.403 h 1.8 m 0,-1.801 h -1.8 a 1.801,1.801 0 0 0 -1.801,1.801 v 5.403 a 1.801,1.801 0 0 0 1.8,1.802 h 1.802 a 1.801,1.801 0 0 0 1.801,-1.802 v -5.403 a 1.801,1.801 0 0 0 -1.801,-1.801 m -6.304,9.006 h 1.801 v -5.404 h -1.8 m 0,-1.801 h 1.801 V 11.663 H 8.986 Z"
     style="display:inline;fill:#cfd8dc;stroke-width:0.90056"
     id="path2" /></svg>
