<svg width="24" height="24" viewBox="0 0 24 24" fill="none" xmlns="http://www.w3.org/2000/svg">
<path d="M19 20H4C3.46957 20 2.96086 19.7893 2.58579 19.4142C2.21071 19.0391 2 18.5304 2 18V6C2 4.89 2.89 4 4 4H10L12 6H19C20.097 6 21 6.903 21 8H4V18L6.14 10H23.21L20.93 18.5C20.7 19.37 19.92 20 19 20Z" fill="#5AA3C8"/>
<path d="M12.9166 9.5L13.7916 16.7917L11.4528 14.4528C11.106 14.106 11.0129 13.579 11.2206 13.1345L12.9166 9.5Z" fill="#1565C0"/>
<path d="M17.9681 7.84308C17.7216 7.59662 17.3876 7.45837 17.0394 7.45837C16.8221 7.45837 16.608 7.51233 16.4167 7.61529L12.9167 9.50004V15.4334C12.9167 15.7429 13.0395 16.0395 13.2585 16.2582L13.7917 16.7917H20.2084V15.3334L22.25 12.125L17.9681 7.84308Z" fill="#42A5F5"/>
<path d="M12.9167 9.5H19.1417C19.4512 9.5 19.7478 9.62279 19.9666 9.84183L22.25 12.125V16.7917H20.2084L12.9167 9.5Z" fill="#1565C0"/>
<path d="M20.2084 16.7916H13.7917L15.5417 18.5416H20.2084V16.7916Z" fill="#85CBF8"/>
</svg>
