<svg xmlns="http://www.w3.org/2000/svg" viewBox="0 0 32 32">
  <path d="M28.96692,12H9.44152a2,2,0,0,0-1.89737,1.36754L4,24V10H28a2,2,0,0,0-2-2H15.1241a2,2,0,0,1-1.28038-.46357L12.5563,6.46357A2,2,0,0,0,11.27592,6H4A2,2,0,0,0,2,8V24a2,2,0,0,0,2,2H26l4.80523-11.21213A2,2,0,0,0,28.96692,12Z" style="fill: #039be5"/>
  <g>
    <rect x="14" y="16" width="4" height="4" style="fill: #b3e5fc"/>
    <rect x="8" y="16" width="4" height="4" style="fill: #b3e5fc"/>
    <rect x="20" y="16" width="4" height="4" style="fill: #b3e5fc"/>
    <rect x="20" y="10" width="4" height="4" style="fill: #b3e5fc"/>
    <path d="M31.66669,19.8103a3.648,3.648,0,0,0-3.067-.37756A4.59221,4.59221,0,0,0,26.933,16.488l-.33337-.30207-.26666.37763a4.43814,4.43814,0,0,0-.66663,2.79364,4.98623,4.98623,0,0,0,.23254,1.101c-.24487.50726-.37445.7757-.61938,1.283a5.08587,5.08587,0,0,1-1.68.25879H6a15.32436,15.32436,0,0,0,.86487,4.75677l.26666.52863v.07544a8.21567,8.21567,0,0,0,7.60059,4.37933c6.00042,0,10.9342-2.94464,13.26757-9.28723a3.605,3.605,0,0,0,3.80036-2.03863l.2-.37757ZM12,28a2,2,0,1,1,2-2A2,2,0,0,1,12,28Z" style="fill: #b3e5fc;fill-rule: evenodd"/>
  </g>
</svg>
