<svg xmlns="http://www.w3.org/2000/svg" viewBox="0 0 32 32">
  <path d="M13.84376,7.53645l-1.28749-1.0729A2,2,0,0,0,11.27591,6H4A2,2,0,0,0,2,8V24a2,2,0,0,0,2,2H28a2,2,0,0,0,2-2V10a2,2,0,0,0-2-2H15.12412A2,2,0,0,1,13.84376,7.53645Z" style="fill: #1e88e5"/>
  <path d="M31.20005,12.93339l-1.6-2.13333A2.0001,2.0001,0,0,0,28,10H20a2,2,0,0,0-1.6.8l-1.6,2.13336a3.99988,3.99988,0,0,0-.8,2.39994V26a2,2,0,0,0,2,2H30a2,2,0,0,0,2-2V15.33331A4,4,0,0,0,31.20005,12.93339ZM20,12h8l1.5,2H18.50006Zm6,10v4H22V22H18l6-6,6,6Z" style="fill: #bbdefb;fill-rule: evenodd"/>
</svg>
