<?xml version="1.0" encoding="UTF-8"?>
<svg width="20px" height="18px" viewBox="0 0 20 18" version="1.1" xmlns="http://www.w3.org/2000/svg" xmlns:xlink="http://www.w3.org/1999/xlink">
    <!-- Generator: Sketch 51.3 (57544) - http://www.bohemiancoding.com/sketch -->
    <title>folder-prisma</title>
    <desc>Created with Sketch.</desc>
    <defs></defs>
    <g id="Page-1" stroke="none" stroke-width="1" fill="none" fill-rule="evenodd">
        <g id="folder-prisma">
            <path d="M8,0 L2,0 C0.89,0 0,0.89 0,2 L0,14 C0,15.097 0.903,16 2,16 L18,16 C19.097,16 20,15.097 20,14 L20,4 C20,2.89 19.1,2 18,2 L10,2 L8,0 Z" id="Shape" fill="#00BFA5" fill-rule="nonzero"></path>
            <g id="prisma" transform="translate(9.000000, 5.000000)" fill="#263238">
                <path d="M9.65033235,10.31147 L3.839,12.0380325 C3.66147941,12.090845 3.49130294,11.9366 3.52863824,11.7567125 L5.60466176,1.7691375 C5.64351765,1.58236325 5.90049706,1.552707 5.98160588,1.72566875 L9.82552353,9.925435 C9.89802647,10.080135 9.81533235,10.262525 9.65033235,10.31147 Z M10.6468029,9.9042775 L6.19604118,0.40997775 L6.19604118,0.409773 C6.08442353,0.17242225 5.85148235,0.0158123875 5.58748235,0.0012889175 C5.31665588,-0.014554865 5.07397647,0.116664275 4.93709118,0.340002 L0.110027823,8.193835 C-0.0395039118,8.438625 -0.0365717648,8.7404525 0.118520471,8.982285 L2.47806706,12.6539725 C2.61870206,12.8731525 2.86235853,13 3.11562382,13 C3.18740529,13 3.25959118,12.98986 3.33057353,12.968735 L10.1796912,10.9338125 C10.3895,10.871445 10.5610676,10.7223675 10.6508471,10.5247025 C10.7403353,10.3269725 10.7389118,10.100675 10.6468029,9.9042775 Z" id="Shape"></path>
            </g>
        </g>
    </g>
</svg>