<?xml version="1.0" encoding="UTF-8" standalone="no"?>
<!-- Created with Inkscape (http://www.inkscape.org/) -->

<svg
   width="210mm"
   height="297mm"
   viewBox="0 0 210 297"
   version="1.1"
   id="svg5"
   inkscape:version="1.1.2 (0a00cf5339, 2022-02-04)"
   sodipodi:docname="linux-open.svg"
   xmlns:inkscape="http://www.inkscape.org/namespaces/inkscape"
   xmlns:sodipodi="http://sodipodi.sourceforge.net/DTD/sodipodi-0.dtd"
   xmlns="http://www.w3.org/2000/svg"
   xmlns:svg="http://www.w3.org/2000/svg">
  <sodipodi:namedview
     id="namedview7"
     pagecolor="#505050"
     bordercolor="#eeeeee"
     borderopacity="1"
     inkscape:pageshadow="0"
     inkscape:pageopacity="0"
     inkscape:pagecheckerboard="0"
     inkscape:document-units="mm"
     showgrid="false"
     inkscape:zoom="0.72782688"
     inkscape:cx="397.07245"
     inkscape:cy="560.57287"
     inkscape:window-width="1920"
     inkscape:window-height="1006"
     inkscape:window-x="0"
     inkscape:window-y="0"
     inkscape:window-maximized="1"
     inkscape:current-layer="layer1" />
  <defs
     id="defs2" />
  <g
     inkscape:groupmode="layer"
     id="layer2"
     inkscape:label="Layer 2" />
  <g
     inkscape:label="Layer 1"
     inkscape:groupmode="layer"
     id="layer1">
    <g
       style="fill:#aa8800"
       id="g1240"
       transform="matrix(0.11024306,0,0,0.11024306,5.6765742,38.016651)">
      <path
         d="M 572.501,747 317.568,1562.893 215.701,1531.107 494.208,640.333 h 1105.813 v -320 H 783.808 L 612.181,107 H 0.021 v 1546.667 c 0,88.213 71.787,160 160,160 h 1388.054 c 75.946,0 141.973,-54.08 156.906,-128.64 L 1892.608,747 Z"
         fill-rule="evenodd"
         id="path1231"
         style="fill:#aa8800" />
    </g>
    <g
       id="g1491"
       transform="matrix(0.22050519,0,0,0.22199118,109.99426,125.66012)">
      <g
         id="g1465">
        <path
           style="fill:#ffffff"
           d="m 259.345,110.181 c -0.076,-0.789 -0.112,-1.578 -0.112,-2.369 0,-11.578 7.584,-20.997 16.903,-20.997 9.537,0 17.007,9.223 17.007,20.997 0,2.666 -0.401,5.236 -1.148,7.61 2.795,-4.442 4.412,-10.032 4.412,-15.892 0,-14.079 -9,-25.535 -20.06,-25.535 -11.063,0 -20.06,11.455 -20.06,25.535 0,3.461 0.542,6.849 1.615,10.099 0.467,0.178 0.949,0.363 1.443,0.552 z"
           id="path1459" />
        <path
           style="fill:#ffffff"
           d="m 209.407,87.924 c 0.604,-0.092 1.157,-0.134 1.707,-0.134 7.418,0 14.069,7.281 15.812,17.311 0.175,1.1 0.285,2.196 0.334,3.277 0.482,-0.245 0.972,-0.475 1.471,-0.688 0.245,-1.739 0.364,-3.369 0.364,-5.006 0,-12.986 -6.879,-23.957 -15.019,-23.957 -6.933,0 -12.775,7.636 -14.44,17.95 1.896,-4.704 5.357,-8.02 9.771,-8.753 z"
           id="path1461" />
        <path
           style="fill:#ffffff"
           d="m 349.093,349.859 c 1.865,-7.908 5.575,-28.1 2.063,-52.525 -4.438,-30.87 -47.875,-126.994 -55.35,-137.727 -4.36,0.609 -15.946,7.304 -25.342,12.733 -10.896,6.295 -22.166,12.807 -29.829,15.019 -1.6,0.453 -3.273,0.677 -4.997,0.677 -11.199,0 -23.32,-9.468 -31.135,-16.926 -1.365,14.472 -9.078,32.835 -17.423,42.273 -5.271,6.045 -9.982,19.854 -14.538,33.21 -4.22,12.367 -8.583,25.157 -13.925,33.592 -10.809,16.842 -17.009,49.555 -9.144,68.159 3.806,9.018 17.62,19.668 29.807,29.062 14.905,11.491 27.776,21.413 29.196,31.419 1.657,11.831 -4.635,18.388 -10.927,21.497 l 15.961,18.263 c 2.466,0.374 8.405,1.091 17.712,1.091 10.886,0 22.97,-0.952 35.907,-2.834 31.763,-4.705 53.886,-30.88 58.261,-36.438 0.023,-7.363 0.248,-40.123 2.396,-50.366 0.834,-3.945 4.037,-10.547 16.136,-10.547 1.881,-0.003 3.672,0.162 5.171,0.368 z"
           id="path1463" />
      </g>
      <g
         id="g1473">
        <path
           style="fill:#e69629"
           d="m 210.488,147.081 c 0.623,2.422 6.136,8.617 14.71,14.242 1.217,0.781 2.359,1.558 3.431,2.286 4.756,3.232 6.871,4.559 10.29,4.098 5.034,-0.66 23.579,-11.904 31.499,-16.706 l 1.971,-1.194 c 2.949,-1.796 5.306,-3.023 7.2,-4.009 3.75,-1.951 4.089,-2.266 4.249,-2.978 -0.425,-1.103 -3.926,-4.056 -10.641,-6.364 -2.134,-0.764 -5.162,-1.974 -8.67,-3.374 -7.589,-3.03 -17.984,-7.176 -22.197,-7.922 -0.18,-0.034 -0.349,-0.045 -0.539,-0.045 -3.586,0 -10.831,4.499 -18.031,11.194 -3.549,3.204 -10.477,8.611 -13.272,10.772 z"
           id="path1467" />
        <path
           style="fill:#e69629"
           d="m 147.149,395.532 c -3.119,-5.222 -5.815,-9.735 -7.27,-11.984 -5.738,-8.931 -15.696,-18.907 -20.442,-18.907 -0.416,0 -0.635,0.097 -0.777,0.181 -2.533,1.442 -4.662,5.837 -6.723,10.084 -2.847,5.875 -6.075,12.535 -12.036,16.146 -4.41,2.676 -11.152,4.138 -17.668,5.555 -4.637,1.007 -15.493,3.362 -16.003,5.562 -0.703,2.968 -0.049,6.033 0.781,9.913 0.977,4.578 2.196,10.274 1.158,17.267 -0.732,4.386 -2.063,8.575 -3.354,12.627 -1.793,5.637 -3.826,12.03 -2.073,13.995 2.162,1.909 15.207,4.019 24.731,5.562 11.972,1.937 24.351,3.942 31.932,7.118 l 2.009,0.846 c 13.579,5.706 38.854,16.329 51.622,16.329 1.162,0 2.152,-0.094 2.951,-0.274 2.202,-1.482 11.531,-8.184 13.284,-16.424 2.394,-10.619 -7.338,-23.005 -13.349,-29.444 -6.672,-7.165 -19.445,-28.544 -28.773,-44.152 z"
           id="path1469" />
        <path
           style="fill:#e69629"
           d="m 435.761,420.974 -1.556,-0.819 c -10.688,-5.65 -16.307,-20.984 -15.563,-32.542 0.139,-2.129 -0.126,-3.78 -0.557,-5.045 -1.974,3.247 -4.793,7.348 -8.143,10.697 -5.691,5.692 -19.584,11.833 -32.105,11.833 -4.67,0 -8.927,-0.823 -12.652,-2.448 -12.498,-5.451 -14.202,-21.081 -14.234,-28.917 -0.185,0.052 -0.354,0.112 -0.505,0.183 -0.764,2.701 -0.024,11.806 0.475,17.935 0.267,3.279 0.542,6.669 0.705,9.78 0.708,13.708 -3.658,36.958 -7.447,54.049 -3.597,16.732 3.097,28.464 11.224,30.997 0.73,0.232 1.551,0.346 2.453,0.346 7.487,0 19.886,-7.749 30.848,-19.285 7.788,-8.189 25.122,-17.04 40.416,-24.85 8.622,-4.402 17.537,-8.956 20.071,-11.271 0.564,-0.525 0.648,-0.819 0.65,-0.821 -0.16,-2.514 -10.273,-7.824 -14.08,-9.822 z"
           id="path1471" />
      </g>
      <path
         d="m 461.071,411.093 c -15.014,-6.147 -21.437,-14.308 -20.816,-26.485 0.64,-14.212 -7.423,-24.62 -11.252,-28.733 2.313,-8.837 9.073,-39.406 0.007,-65.959 -9.743,-28.42 -39.49,-71.825 -70.183,-114.492 -12.565,-17.522 -13.159,-36.57 -13.846,-58.625 -0.658,-21.036 -1.4,-44.88 -13.131,-71.387 C 319.095,16.55 293.501,0 261.628,0 c -18.961,0 -38.424,5.926 -53.401,16.257 -30.67,21.167 -26.616,67.316 -23.933,97.851 0.368,4.182 0.713,8.132 0.915,11.504 1.786,29.908 0.161,45.672 -1.964,50.463 -1.375,3.131 -8.143,12.041 -15.306,21.476 -7.408,9.758 -15.807,20.816 -22.691,31.121 -8.214,12.401 -14.845,31.355 -21.257,49.684 -4.692,13.411 -9.124,26.08 -13.438,33.655 -8.177,14.564 -6.142,28.145 -4.444,34.422 -3.096,2.15 -7.568,6.386 -11.343,14.366 -4.563,9.736 -13.821,14.967 -33.072,18.669 -8.847,1.81 -14.947,5.53 -18.137,11.056 -4.642,8.043 -2.113,18.148 0.193,25.056 3.408,10.151 1.284,16.577 -2.577,28.246 -0.89,2.691 -1.899,5.741 -2.921,9.102 -1.61,5.308 -1.029,10.131 1.722,14.341 7.27,11.113 28.486,15.033 50.326,17.613 13.04,1.548 27.312,6.763 41.116,11.808 13.525,4.942 27.511,10.054 40.223,11.605 1.932,0.243 3.846,0.364 5.691,0.364 19.194,0 27.866,-12.735 30.616,-17.967 6.894,-1.407 30.673,-5.912 55.181,-6.518 24.469,-0.697 48.143,4.135 54.85,5.635 2.108,4.036 7.667,13.253 16.527,18.004 4.87,2.662 11.647,4.188 18.588,4.188 0.002,0 0,0 0.002,0 7.413,0 21.516,-1.753 32.678,-13.497 11.133,-11.796 38.949,-26.859 59.261,-37.856 4.533,-2.454 8.773,-4.751 12.491,-6.822 11.41,-6.325 17.636,-15.362 17.081,-24.794 -0.464,-7.838 -5.65,-14.71 -13.534,-17.939 z M 276.345,73.995 c 11.061,0 20.06,11.455 20.06,25.535 0,5.859 -1.617,11.449 -4.412,15.892 0.745,-2.374 1.148,-4.944 1.148,-7.61 0,-11.774 -7.47,-20.997 -17.007,-20.997 -9.32,0 -16.903,9.419 -16.903,20.997 0,0.791 0.039,1.58 0.112,2.369 -0.494,-0.188 -0.975,-0.374 -1.445,-0.552 -1.073,-3.25 -1.615,-6.638 -1.615,-10.099 10e-4,-14.079 8.999,-25.535 20.062,-25.535 z m -34.016,51.169 c 4.214,0.744 14.606,4.892 22.197,7.922 3.508,1.4 6.539,2.61 8.67,3.374 6.715,2.308 10.217,5.261 10.641,6.364 -0.159,0.713 -0.499,1.027 -4.249,2.978 -1.894,0.985 -4.25,2.211 -7.2,4.009 l -1.971,1.194 c -7.92,4.803 -26.465,16.048 -31.499,16.706 -3.42,0.46 -5.535,-0.868 -10.29,-4.098 -1.073,-0.73 -2.214,-1.506 -3.431,-2.286 -8.573,-5.627 -14.088,-11.82 -14.71,-14.242 2.795,-2.16 9.723,-7.568 13.27,-10.771 7.2,-6.695 14.445,-11.194 18.031,-11.194 0.19,-0.003 0.362,0.01 0.541,0.044 z m -28.256,-46.44 c 8.142,0 15.019,10.97 15.019,23.957 0,1.638 -0.118,3.267 -0.364,5.006 -0.499,0.213 -0.989,0.445 -1.471,0.688 -0.049,-1.083 -0.161,-2.177 -0.334,-3.277 -1.742,-10.03 -8.394,-17.311 -15.812,-17.311 -0.549,0 -1.101,0.042 -1.707,0.134 -4.413,0.735 -7.875,4.049 -9.772,8.751 1.667,-10.313 7.51,-17.948 14.441,-17.948 z m -24.802,390.404 c -1.753,8.241 -11.083,14.942 -13.284,16.424 -0.799,0.18 -1.788,0.274 -2.951,0.274 -12.768,0 -38.043,-10.623 -51.622,-16.329 l -2.009,-0.846 c -7.583,-3.178 -19.961,-5.18 -31.932,-7.118 -9.525,-1.543 -22.568,-3.653 -24.731,-5.562 -1.753,-1.966 0.28,-8.358 2.073,-13.995 1.291,-4.052 2.624,-8.241 3.354,-12.627 1.036,-6.993 -0.181,-12.691 -1.158,-17.267 -0.829,-3.881 -1.484,-6.945 -0.781,-9.913 0.51,-2.199 11.366,-4.554 16.003,-5.562 6.518,-1.417 13.26,-2.879 17.668,-5.555 5.961,-3.611 9.189,-10.27 12.036,-16.146 2.061,-4.247 4.19,-8.642 6.723,-10.084 0.143,-0.086 0.361,-0.181 0.777,-0.181 4.746,0 14.704,9.975 20.442,18.907 1.455,2.249 4.151,6.76 7.27,11.984 9.329,15.609 22.102,36.987 28.773,44.151 6.011,6.44 15.742,18.825 13.349,29.445 z M 327.787,360.037 c -2.145,10.243 -2.372,43.003 -2.396,50.366 -4.375,5.558 -26.498,31.732 -58.261,36.438 -12.938,1.88 -25.019,2.834 -35.907,2.834 -9.307,0 -15.246,-0.719 -17.712,-1.091 L 197.55,430.321 c 6.292,-3.109 12.584,-9.666 10.927,-21.497 -1.42,-10.005 -14.291,-19.928 -29.196,-31.419 -12.187,-9.394 -26.001,-20.042 -29.807,-29.062 -7.865,-18.602 -1.665,-51.315 9.144,-68.159 5.342,-8.434 9.705,-21.225 13.925,-33.592 4.556,-13.356 9.268,-27.166 14.538,-33.21 8.345,-9.438 16.057,-27.801 17.423,-42.273 7.814,7.458 19.936,16.926 31.135,16.926 1.724,0 3.398,-0.225 4.997,-0.677 7.662,-2.213 18.931,-8.724 29.829,-15.019 9.396,-5.429 20.982,-12.124 25.342,-12.733 7.475,10.734 50.912,106.858 55.35,137.727 3.512,24.425 -0.198,44.616 -2.063,52.525 -1.501,-0.206 -3.29,-0.371 -5.17,-0.371 -12.1,10e-4 -15.303,6.605 -16.137,10.55 z m 121.407,71.584 c -2.533,2.315 -11.449,6.869 -20.071,11.271 -15.295,7.808 -32.631,16.661 -40.416,24.85 -10.962,11.536 -23.361,19.285 -30.848,19.285 -0.901,0 -1.722,-0.114 -2.453,-0.346 -8.128,-2.533 -14.821,-14.266 -11.224,-30.997 3.789,-17.093 8.153,-40.341 7.447,-54.049 -0.163,-3.112 -0.438,-6.502 -0.705,-9.78 -0.499,-6.127 -1.239,-15.233 -0.475,-17.935 0.151,-0.071 0.319,-0.131 0.505,-0.183 0.032,7.836 1.734,23.467 14.234,28.917 3.725,1.625 7.982,2.448 12.652,2.448 12.521,0 26.414,-6.141 32.105,-11.833 3.351,-3.349 6.169,-7.45 8.143,-10.697 0.431,1.264 0.697,2.916 0.557,5.044 -0.744,11.558 4.873,26.891 15.563,32.542 l 1.556,0.819 c 3.807,1.996 13.92,7.307 14.083,9.824 -0.005,0 -0.089,0.296 -0.653,0.82 z"
         id="path1475" />
    </g>
  </g>
</svg>
