<svg width="16" height="16" viewBox="0 0 16 16" fill="none" xmlns="http://www.w3.org/2000/svg">
<path d="M6.922 3.768L6.278 3.232C6.09836 3.0822 5.8719 3.00011 5.638 3H2C1.73478 3 1.48043 3.10536 1.29289 3.29289C1.10536 3.48043 1 3.73478 1 4V12C1 12.2652 1.10536 12.5196 1.29289 12.7071C1.48043 12.8946 1.73478 13 2 13H14C14.2652 13 14.5196 12.8946 14.7071 12.7071C14.8946 12.5196 15 12.2652 15 12V5C15 4.73478 14.8946 4.48043 14.7071 4.29289C14.5196 4.10536 14.2652 4 14 4H7.562C7.3281 3.99989 7.10164 3.9178 6.922 3.768Z" fill="#616161"/>
<g clip-path="url(#clip0_408_373)">
<path fill-rule="evenodd" clip-rule="evenodd" d="M11.4662 5.27649C11.2576 4.90784 10.7423 4.90784 10.5338 5.27649L6.0747 13.1596C5.86412 13.5319 6.12378 14 6.54088 14H15.4591C15.8762 14 16.1359 13.5319 15.9253 13.1596L11.4662 5.27649ZM14.2822 12.7435L13.6695 11.6604H8.33047L7.71781 12.7435H14.2822ZM12.5532 9.68691L13.1483 10.739H8.85167L9.4468 9.68691H12.5532ZM12.032 8.76545L11 6.94104L9.968 8.76545H12.032Z" fill="#F5F5F5"/>
</g>
<defs>
<clipPath id="clip0_408_373">
<rect width="10" height="9" fill="white" transform="translate(6 5)"/>
</clipPath>
</defs>
</svg>
