<svg xmlns="http://www.w3.org/2000/svg" viewBox="0 0 16 16"><path id="folder" fill="#e0e0e0" d="m6.922 3.768-.644-.536A1 1 0 0 0 5.638 3H2a1 1 0 0 0-1 1v8a1 1 0 0 0 1 1h12a1 1 0 0 0 1-1V5a1 1 0 0 0-1-1H7.562a1 1 0 0 1-.64-.232"/><path id="motive" fill="#424242" d="M16 8.5V7a20.7 20.7 0 0 1-4.5.5A20.7 20.7 0 0 1 7 7v1.5a18 18 0 0 0 1.969.34L8.864 10H7v1h1.773L8.5 14H10v-3h3v3h1.5l-.272-3H16v-1h-1.863l-.106-1.16A18 18 0 0 0 16 8.5M13 10h-1V9h-1v1h-1V8.942c.469.035.973.058 1.5.058s1.031-.023 1.5-.058Z"/></svg>