<svg xmlns="http://www.w3.org/2000/svg" viewBox="0 0 16 16">
<path id="folder" fill="#42a5f5" d="m6.922 3.768-.644-.536A1 1 0 0 0 5.638 3H2a1 1 0 0 0-1 1v8a1 1 0 0 0 1 1h12a1 1 0 0 0 1-1V5a1 1 0 0 0-1-1H7.562a1 1 0 0 1-.64-.232" />
<g id="motive">
<path fill="#0277bd" d="M 10.537197,5 A 1.2870715,1.287 0 0 0 9.2501254,6.287 v 0.756 h 1.9301066 c 0.17601,0 0.320018,0.2565 0.320018,0.432 H 8.2870719 A 1.2870715,1.287 0 0 0 7.0000004,8.762 v 1.702 A 1.2850714,1.285 0 0 0 8.2855718,11.75 H 8.8181014 V 10.544 A 1.2825713,1.2825 0 0 1 10.096172,9.257 h 2.367132 A 1.2825713,1.2825 0 0 0 13.750375,7.979 V 6.287 A 1.2870715,1.287 0 0 0 12.463304,5 Z m -0.324018,0.7245 c 0.18001,0 0.324018,0.0545 0.324018,0.32 0,0.2655 -0.144008,0.4 -0.324018,0.4 -0.17551,0 -0.3200179,-0.135 -0.3200179,-0.4 0,-0.265 0.1445079,-0.32 0.3200179,-0.32" />
<path fill="#fdd835" d="m 14.181899,7.25 v 1.206 a 1.2825713,1.2825 0 0 1 -1.278071,1.287 h -2.366631 a 1.2825713,1.2825 0 0 0 -1.2870716,1.278 v 1.691 A 1.2870715,1.287 0 0 0 10.535696,14 h 1.927107 a 1.2870715,1.287 0 0 0 1.287072,-1.287 v -0.7565 h -1.931107 c -0.17551,0 -0.319018,-0.256 -0.319018,-0.4315 h 3.213178 A 1.2870715,1.287 0 0 0 16,10.238 V 8.5365 A 1.2870715,1.287 0 0 0 14.712928,7.25 Z m -4.3377406,2.0315 -0.002,0.0015 q 0.0085,-0.0015 0.017001,-0.0015 z m 2.9431636,3.2735 c 0.175009,0 0.319517,0.135 0.319517,0.4005 a 0.32001778,0.32 0 0 1 -0.320018,0.32 c -0.18001,0 -0.323517,-0.0545 -0.323517,-0.32 0,-0.2655 0.144008,-0.4 0.324018,-0.4 z" />
</g>
</svg>
