<svg clip-rule="evenodd" fill-rule="evenodd" stroke-linejoin="round" stroke-miterlimit="1.414" viewBox="0 0 24 24" xml:space="preserve" xmlns="http://www.w3.org/2000/svg">
<path d="M10 4H4C2.89 4 2 4.89 2 6V18C2 19.097 2.903 20 4 20H20C21.097 20 22 19.097 22 18V8C22 7.46957 21.7893 6.96086 21.4142 6.58579C21.0391 6.21071 20.5304 6 20 6H12L10 4Z" fill="#C1AFF4"/>
<path fill-rule="evenodd" clip-rule="evenodd" d="M17.6587 9C20.6647 9.33136 23 11.8876 23 14.9961C23 15.0513 23 15.1065 22.9921 15.1617V21H17.6587V9ZM16.286 20.9844C13.3117 20.6294 11 18.089 11 14.9963C11 11.9036 13.3117 9.36314 16.286 9.00811V20.9844Z" fill="#7950ED"/>
</svg>
