<svg xmlns="http://www.w3.org/2000/svg" viewBox="0 0 32 32"><path fill="#0277BD" d="M28.967 12H9.442a2 2 0 0 0-1.898 1.368L4 24V10h24a2 2 0 0 0-2-2H15.124a2 2 0 0 1-1.28-.464l-1.288-1.072A2 2 0 0 0 11.276 6H4a2 2 0 0 0-2 2v16a2 2 0 0 0 2 2h22l4.805-11.212A2 2 0 0 0 28.967 12Z"/><path fill="#e1f5fe" d="M22 8a9.996 9.996 0 0 0-8.356 4.51l.642.013c1.049 0 2.669-.125 2.669-.125a.413.413 0 0 1 .07.824l-1.155.119 3.648 10.803 2.188-6.56-1.559-4.243-1.061-.12a.414.414 0 0 1 .07-.823l2.632.125c1.049 0 2.67-.125 2.67-.125a.413.413 0 0 1 .062.824l-1.143.119 3.612 10.72 1.002-3.332a12.685 12.685 0 0 0 .757-3.228 5.189 5.189 0 0 0-.83-2.764 4.674 4.674 0 0 1-.978-2.34 1.731 1.731 0 0 1 1.681-1.771h.127A9.99 9.99 0 0 0 22.001 8Zm8.777 5.201.07 1.037a9.446 9.446 0 0 1-.771 3.576l-3.053 8.822a10 10 0 0 0 3.754-13.435Zm-17.916.724A10.189 10.189 0 0 0 12 18.003 9.981 9.981 0 0 0 17.64 27Zm9.315 4.952-2.996 8.72a10.057 10.057 0 0 0 6.144-.164l-.073-.142Z"/></svg>