<svg xmlns="http://www.w3.org/2000/svg" viewBox="0 0 16 16">
<path id="folder" fill="#43a047" d="M14.483 6H4.721a1 1 0 0 0-.949.684L2 12V5h12a1 1 0 0 0-1-1H7.562a1 1 0 0 1-.64-.232l-.644-.536A1 1 0 0 0 5.638 3H2a1 1 0 0 0-1 1v8a1 1 0 0 0 1 1h11l2.403-5.606A1 1 0 0 0 14.483 6" />
<path id="motive" fill="#c8e6c9" d="M 10.759766 5.0058594 A 4.9997985 5 0 1 0 15.900391 10.994141 L 14.873047 10.994141 A 4.0232754 4.0234375 0 1 1 13.830078 7.1777344 L 12.482422 8.4902344 L 16 8.4902344 L 16 5.0644531 L 14.548828 6.4785156 A 4.9997985 5 0 0 0 10.759766 5.0058594 z M 10 7 L 10 10.240234 L 12.689453 12.390625 L 13.310547 11.609375 L 11 9.7597656 L 11 7 L 10 7 z " />
</svg>
