<?xml version="1.0" encoding="UTF-8"?>
<svg version="1.1" viewBox="0 0 16 16" xmlns="http://www.w3.org/2000/svg">
 <path id="folder" d="M14.483 6H4.721a1 1 0 0 0-.949.684L2 12V5h12a1 1 0 0 0-1-1H7.562a1 1 0 0 1-.64-.232l-.644-.536A1 1 0 0 0 5.638 3H2a1 1 0 0 0-1 1v8a1 1 0 0 0 1 1h11l2.403-5.606A1 1 0 0 0 14.483 6" fill="#00acc1"/>
 <path id="motive" d="m4 10v0.5h2v-0.5zm-1.5 1v0.5h3v-0.5zm1.5 1v0.5h1.5v-0.5zm9.6523-2.9961c-0.16362 0.00443-0.3311 0.023065-0.5 0.052734-0.7882 0.13846-1.37 0.46861-1.8535 1.1016-0.4504 0.5868-0.65633 1.2452-0.53711 1.9902 0.07948 0.50768 0.32406 0.93718 0.71484 1.2734 0.46364 0.3956 1.0144 0.56689 1.6172 0.58008 0.17221-0.01978 0.35046-0.02758 0.5293-0.06055 0.61598-0.12527 1.1527-0.402 1.5898-0.84375 0.61598-0.61977 0.87432-1.3443 0.76172-2.2344-0.0861-0.63296-0.41034-1.1147-0.93359-1.4707-0.43218-0.29175-0.89781-0.40196-1.3887-0.38867zm-0.11914 1.209c0.53853-0.01758 1.0129 0.33706 1.1172 0.9082 0.01325 0.06593 0.01291 0.13108 0.01953 0.2168-0.03312 0.56702-0.31854 0.98944-0.8418 1.2598-0.35104 0.17802-0.71383 0.1973-1.0781 0.03906-0.47689-0.21098-0.7286-0.73182-0.60938-1.2461 0.14572-0.61977 0.54222-1.008 1.1582-1.1465 0.07865-0.01813 0.15744-0.02874 0.23438-0.03125zm-4.627-1.2109c-0.15192 0.0032659-0.30519 0.019115-0.46094 0.046875-0.76217 0.13717-1.3849 0.52341-1.8555 1.1309-0.43742 0.56172-0.65061 1.2021-0.56445 1.9141 0.072904 0.60092 0.35135 1.0834 0.8418 1.4492 0.53021 0.3919 1.1337 0.51655 1.7832 0.43164 0.78868-0.10451 1.4115-0.49082 1.8887-1.1113 0.29161-0.37884 0.47202-0.80902 0.54492-1.2793 0.02651-0.17636 0.02581-0.40763 0.03906-0.58398h-2.4121c-0.099414 0-0.14613 0.12097-0.16602 0.16016-0.092786 0.16982-0.25173 0.50846-0.33789 0.71094-0.046393 0.11104-0.014179 0.12891 0.125 0.12891h1.2793c-0.066276 0.09144-0.11809 0.23674-0.17773 0.30859-0.29824 0.33312-0.67628 0.49043-1.127 0.43164-0.52358-0.07185-0.8879-0.50286-0.89453-1.0254-0.00663-0.52907 0.2251-0.95479 0.67578-1.2422 0.37777-0.24167 0.78168-0.30014 1.1992-0.09766 0.13918 0.06532 0.21113 0.13701 0.31055 0.24805 0.086158 0.09798 0.093945 0.09253 0.19336 0.06641 0.41091-0.10451 0.69574-0.1826 1.1133-0.28711 0.03728-0.0092 0.06356-0.02279 0.07617-0.03906 0.0116-0.01796 0.01012-0.04287-0.0098-0.07226-0.16565-0.37885-0.41823-0.69327-0.7695-0.92188-0.40263-0.26943-0.83917-0.37698-1.2949-0.36719z" fill="#b2ebf2"/>
</svg>
