<?xml version="1.0" encoding="UTF-8" standalone="no"?>
<!DOCTYPE svg PUBLIC "-//W3C//DTD SVG 1.1//EN" "http://www.w3.org/Graphics/SVG/1.1/DTD/svg11.dtd">
<svg width="100%" height="100%" viewBox="0 0 24 24" version="1.1" xmlns="http://www.w3.org/2000/svg" xmlns:xlink="http://www.w3.org/1999/xlink" xml:space="preserve" style="fill-rule:evenodd;clip-rule:evenodd;stroke-linejoin:round;stroke-miterlimit:1.41421;">
    <path id="path2" d="M19,20L4,20C2.89,20 2,19.1 2,18L2,6C2,4.89 2.89,4 4,4L10,4L12,6L19,6C20.097,6 21,6.903 21,8L4,8L4,18L6.14,10L23.21,10L20.93,18.5C20.7,19.37 19.92,20 19,20Z" style="fill:rgb(21,101,192);fill-rule:nonzero;"/>
    <g id="path4" transform="matrix(0.676056,0,0,0.676056,9.10732,7.38732)">
        <path d="M5,3L4.35,6.34L17.94,6.34L17.5,8.5L3.92,8.5L3.26,11.83L16.85,11.83L16.09,15.64L10.61,17.45L5.86,15.64L6.19,14L2.85,14L2.06,18L9.91,21L18.96,18L20.16,11.97L20.4,10.76L21.94,3L5,3Z" style="fill:rgb(66,165,245);fill-rule:nonzero;"/>
    </g>
</svg>
