<svg xmlns="http://www.w3.org/2000/svg" viewBox="0 0 32 32">
  <path d="M13.84376,7.53645l-1.28749-1.0729A2,2,0,0,0,11.27591,6H4A2,2,0,0,0,2,8V24a2,2,0,0,0,2,2H28a2,2,0,0,0,2-2V10a2,2,0,0,0-2-2H15.12412A2,2,0,0,1,13.84376,7.53645Z" style="fill: #ef5350"/>
  <path d="M31.5,12h-5a.5.5,0,0,0-.5.5v8.05475a3.90345,3.90345,0,0,0-3.2316-.357,3.99875,3.99875,0,0,0,1.8555,7.755A4.1012,4.1012,0,0,0,28,23.84714V16h3.5a.5.5,0,0,0,.5-.5v-3A.5.5,0,0,0,31.5,12Z" style="fill: #ffcdd2;fill-rule: evenodd"/>
</svg>
