<svg xmlns="http://www.w3.org/2000/svg" viewBox="0 0 32 32">
  <path d="M28.96692,12H9.44152a2,2,0,0,0-1.89737,1.36754L4,24V10H28a2,2,0,0,0-2-2H15.1241a2,2,0,0,1-1.28038-.46357L12.5563,6.46357A2,2,0,0,0,11.27592,6H4A2,2,0,0,0,2,8V24a2,2,0,0,0,2,2H26l4.80523-11.21213A2,2,0,0,0,28.96692,12Z" style="fill: #ff7043"/>
  <path d="M12.59294,18.58894l5.78434-5.79434,1.69127,1.70127a1.98328,1.98328,0,0,0,.9307,2.23167V22.2717A1.98545,1.98545,0,0,0,19.9985,24.003a2.0015,2.0015,0,0,0,4.003,0,1.98545,1.98545,0,0,0-1.00075-1.7313V17.40806l2.07155,2.09156a1.17,1.17,0,0,0-.07.50038,2.0015,2.0015,0,1,0,2.0015-2.0015,1.17,1.17,0,0,0-.50037.07l-2.57193-2.57193a1.98148,1.98148,0,0,0-1.15086-2.34175,2.10389,2.10389,0,0,0-1.281-.09007l-1.70128-1.69127.79059-.78059a1.97546,1.97546,0,0,1,2.82212,0l7.996,7.996a1.97544,1.97544,0,0,1,0,2.82212l-7.996,7.996a1.97544,1.97544,0,0,1-2.82212,0l-7.996-7.996A1.97546,1.97546,0,0,1,12.59294,18.58894Z" style="fill: #ffccbc"/>
</svg>
