<svg xmlns="http://www.w3.org/2000/svg" clip-rule="evenodd" fill-rule="evenodd" stroke-linejoin="round" stroke-miterlimit="1.414" viewBox="0 0 21.19 17.37">
  <path fill="#FBC02D" d="M8,0H2A2,2,0,0,0,0,2V14a2,2,0,0,0,2,2H18a2,2,0,0,0,2-2V4a2,2,0,0,0-2-2H10Z"/>
  <path fill="#FFFDE7" d="M10.16,6.92h1.16V8.08H10.16V11A1.16,1.16,0,0,1,9,12.15a1.16,1.16,0,0,1,1.16,1.16v2.9h1.16v1.16H10.16C9.54,17.22,9,16.85,9,16.21V13.89a1.16,1.16,0,0,0-1.16-1.16H7.26V11.57h.58A1.16,1.16,0,0,0,9,10.41V8.08a1.16,1.16,0,0,1,1.16-1.16m8.13,0a1.16,1.16,0,0,1,1.16,1.16v2.33a1.16,1.16,0,0,0,1.16,1.16h.58v1.16h-.58a1.16,1.16,0,0,0-1.16,1.16v2.32a1.16,1.16,0,0,1-1.16,1.16H17.13V16.21h1.16v-2.9a1.16,1.16,0,0,1,1.16-1.16A1.16,1.16,0,0,1,18.29,11V8.08H17.13V6.92h1.16m-4.06,7a.58.58,0,1,1-.58.58.58.58,0,0,1,.58-.58m-2.33,0a.58.58,0,1,1-.58.58.58.58,0,0,1,.58-.58m4.65,0a.58.58,0,1,1-.58.58A.58.58,0,0,1,16.55,13.89Z"/>
</svg>
