<svg clip-rule="evenodd" fill-rule="evenodd" stroke-linejoin="round" stroke-miterlimit="1.414" version="1.1" viewBox="0 0 24 24" xml:space="preserve" xmlns="http://www.w3.org/2000/svg"><path d="M10 4H4c-1.11 0-2 .89-2 2v12c0 1.097.903 2 2 2h16c1.097 0 2-.903 2-2V8a2 2 0 0 0-2-2h-8l-2-2z" fill="#448aff" fill-rule="nonzero"/><path d="m17.332 8.5297c-0.0242-0.00212-0.04922-0.0015-0.07472 0.00167-0.20404 0.025505-0.3491 0.20444-0.3321 0.40848v0.10295c0.0085 0.11902 0.02597 0.23818 0.05149 0.3487 0.03402 0.21254 0.05002 0.43319 0.04151 0.65424-0.02549 0.08502-0.06004 0.14493-0.11956 0.19594l-0.0083 0.15277c-0.22105 0.01701-0.45 0.05028-0.66254 0.10129-0.90966 0.20404-1.7435 0.67981-2.3811 1.3599l-0.1262-0.09299c-0.07652 0.01701-0.15449 0.0091-0.22251-0.0249-0.17854-0.12753-0.33848-0.28182-0.49151-0.44335-0.07651-0.08502-0.15409-0.17754-0.23911-0.25406l-0.07638-0.05978c-0.07652-0.05951-0.1622-0.09278-0.25572-0.10129-0.11902 0-0.22071 0.04118-0.29723 0.1262-0.11902 0.17854-0.07539 0.40031 0.09465 0.53634l0.0083 0.0083c0.01701 0.01701 0.05108 0.04278 0.06808 0.05978 0.10202 0.06802 0.20351 0.12666 0.30553 0.17767 0.19554 0.11052 0.37461 0.23905 0.54464 0.38358 0.04251 0.05951 0.06808 0.13603 0.06808 0.21254l0.11789 0.10129c-0.64613 0.9692-0.90915 2.1349-0.73062 3.2911l-0.16107 0.04151c-0.04251 0.06802-0.09471 0.12022-0.16273 0.16273-0.21254 0.05101-0.43319 0.10129-0.65424 0.10129-0.11052 0-0.22968-7.73e-4 -0.3487 0.03321l-0.09299 0.01826h-0.0083v0.0083c-0.0255 1e-6 -0.05108 0.0083-0.06808 0.0083-0.20404 0.06802-0.29696 0.27272-0.23745 0.46826 0.06802 0.18704 0.27126 0.28866 0.4583 0.22915 0.05101-0.0085 0.08575-0.01807 0.11125-0.02658 0.11052-0.03401 0.22032-0.07519 0.31383-0.1262 0.22105-0.07658 0.42469-0.14519 0.65424-0.1877 0.06802 0 0.14493 0.03388 0.19594 0.07639l0.16937-0.02491c0.35707 1.1052 1.1058 2.0318 2.1005 2.6269l-0.05978 0.15276c0.0255 0.06802 0.03506 0.14453 0.02656 0.21254-0.08501 0.20404-0.19607 0.40762-0.3321 0.58616-0.06802 0.10202-0.12772 0.19521-0.20424 0.29723 0 0.0255 7.71e-4 0.06915-0.03321 0.09464-0.0085 0.0255-0.02637 0.04257-0.03487 0.06809-0.06802 0.19554 0.03381 0.39859 0.22084 0.4666 0.19554 0.06802 0.40025-0.03383 0.46826-0.22085 0.01701-0.0255 0.03281-0.08469 0.04982-0.08469 0.04251-0.11902 0.07744-0.22988 0.10295-0.3404 0.07651-0.23805 0.1616-0.45019 0.28062-0.65424 0.04251-0.04251 0.10156-0.06787 0.16107-0.07639l0.08469-0.15276c1.0797 0.41658 2.2791 0.41638 3.3758 0.0083l0.06808 0.13616c0.06802 0.017 0.13517 0.05838 0.17767 0.11789 0.11052 0.19554 0.1792 0.40018 0.25572 0.61272 0.0255 0.11052 0.06045 0.22118 0.10295 0.3487 0.017 0 0.0328 0.05086 0.04981 0.07639 0.0085 0.02549 0.01807 0.04257 0.02658 0.06808 0.10202 0.17004 0.32293 0.23838 0.50147 0.12786 0.17854-0.11052 0.22822-0.33144 0.1262-0.50147-0.0085-0.03401-0.03321-0.07744-0.03321-0.10295-0.06802-0.09352-0.13623-0.19541-0.20424-0.28893-0.12753-0.18704-0.22011-0.37381-0.32214-0.57785-0.02549-0.07651-0.0091-0.15283 0.02491-0.22085-0.0255-0.04251-0.04277-0.09346-0.05978-0.14446 0.9862-0.59512 1.752-1.5298 2.1005-2.6435 0.05101 0.0085 0.10155 0.01641 0.16107 0.02491 0.05101-0.06802 0.11942-0.06808 0.19594-0.06808 0.22954 0.03401 0.43319 0.09432 0.65423 0.17934 0.09352 0.05101 0.19501 0.09219 0.30553 0.1262 0.03401 0.0085 0.06854 0.01826 0.11956 0.01826v0.0083c0 0.0085 0.03427 0.0081 0.05979 0.0166 0.20404 0.0255 0.36597-0.11995 0.40848-0.31549 0.02549-0.20404-0.11145-0.38962-0.31549-0.41512-0.03402-0.0085-0.07579-0.01766-0.10129-0.04317h-0.34875c-0.22104-0.02549-0.44169-0.06004-0.65424-0.11956-0.06802-0.03402-0.12872-0.08476-0.16273-0.15276l-0.16107-0.0415c0.17004-1.1477-0.09424-2.3221-0.74888-3.2828l0.13616-0.11795c-0.0085-0.07652 0.01708-0.14473 0.06808-0.20424 0.16153-0.14453 0.3491-0.27305 0.54464-0.38357 0.10202-0.05101 0.20371-0.10966 0.29723-0.17767 0.0255-0.01701 0.05938-0.04278 0.07639-0.05978 0.0255-0.01701 0.05149-0.03447 0.05149-0.05148 0.15303-0.14453 0.16153-0.37374 0-0.50977-0.12753-0.15303-0.35694-0.15303-0.50147 0-0.0255 0-0.05917 0.03447-0.08469 0.05148-0.08501 0.08501-0.16259 0.16904-0.23911 0.25406-0.14453 0.16153-0.31463 0.31583-0.49317 0.44335-0.06802 0.03401-0.14433 0.04191-0.22085 0.0249l-0.13616 0.10129c-0.79921-0.84149-1.8692-1.359-3.0255-1.4611l-0.0083-0.16273c-0.05951-0.04251-0.10255-0.10095-0.11956-0.18598-0.0085-0.22104 0.0076-0.44169 0.04151-0.65423 0.0255-0.11052 0.04298-0.22968 0.05148-0.34871v-0.18776c-0.022269-0.1711-0.15436-0.31044-0.32375-0.32546zm-0.49981 2.8328-0.10295 1.9129h-0.0083c-0.0085 0.06802-0.02557 0.12832-0.06808 0.17933-0.10202 0.14453-0.29716 0.1699-0.44169 0.07639h-0.0083l-1.5641-1.1142c0.4931-0.4931 1.1215-0.8333 1.8016-0.98634 0.13603-0.0255 0.26435-0.05108 0.39188-0.06808zm0.91659 0c0.81617 0.10202 1.5901 0.4678 2.1852 1.0544l-1.5559 1.1142h-0.0083c-0.05101 0.0255-0.10966 0.04317-0.17767 0.04317-0.17854 0.0085-0.3236-0.12866-0.3321-0.30719zm-3.6797 1.7435 1.428 1.3002v0.0083c0.05101 0.04251 0.09299 0.09471 0.09299 0.16273 0.05101 0.17004-0.05081 0.34771-0.22084 0.39022v0.0083l-1.8365 0.52798c-0.09352-0.83317 0.09425-1.6666 0.53634-2.3978zm6.4344 0.0249c0.43359 0.70564 0.61246 1.5399 0.55294 2.3645l-1.8448-0.52804-0.0083-0.0083c-0.05951-0.017-0.11026-0.05028-0.15277-0.10129-0.11902-0.12753-0.10282-0.33263 0.03321-0.45166l-0.0082-0.02489zm-3.5103 1.3782h0.58616l0.36531 0.45-0.12786 0.56955-0.52638 0.25572-0.52638-0.25572-0.13616-0.56955zm-1.3699 1.5725h0.06808c0.14453 0 0.27279 0.10123 0.3238 0.24575 0 0.05951 7.72e-4 0.13683-0.03321 0.17933v0.02491l-0.72398 1.7601c-0.70564-0.45059-1.2405-1.1141-1.521-1.8963zm3.13 0h0.20428l1.8946 0.30553c-0.28056 0.79066-0.81537 1.4623-1.521 1.9129l-0.73228-1.7933c-0.06802-0.15303 0.0013-0.33157 0.15443-0.42509zm-1.4961 0.77047c0.12354-0.01195 0.25007 0.04962 0.31383 0.16439h0.0083l0.92656 1.6754c-0.11902 0.04252-0.24628 0.07578-0.36531 0.10129-0.68864 0.16153-1.4025 0.11975-2.0657-0.10129l0.92656-1.6754h0.0083c0.02549-0.05951 0.06834-0.08535 0.12786-0.12786 0.03827-0.02126 0.07838-0.03255 0.11956-0.03653z" fill="#bbdefb" stroke-width=".85017"/></svg>
