<?xml version="1.0" encoding="UTF-8"?>
<svg version="1.1" xmlns="http://www.w3.org/2000/svg" viewBox="0 0 24 24">
	<path fill="#EF5350" d="M19,20H4c-1.105,0-2-0.895-2-2V6c0-1.11,0.89-2,2-2h6l2,2h7c1.097,0,2,0.903,2,2H4v10l2.14-8h17.07 l-2.28,8.5C20.7,19.37,19.92,20,19,20z"/>
	<g fill="#FFCDD2">
		<rect x="9" y="20.368" width="6.612" height="2.515"/>
		<rect x="16.519" y="8.412" transform="matrix(0.4462 -0.8949 0.8949 0.4462 -0.6419 22.3977)" width="2.515" height="6.612"/>
		<rect x="16.388" y="20.368" width="6.612" height="2.515"/>
		<rect x="9" y="17.345" width="3.676" height="2.515"/>
		<rect x="19.324" y="17.345" width="3.676" height="2.515"/>
		<path d="M16.55,16.962v-1.895c0-0.562,0.203-0.878,0.381-1.159c0.059-0.092,0.111-0.174,0.15-0.25l-0.976-0.508
			c-0.026,0.05-0.062,0.105-0.101,0.166c-0.207,0.325-0.554,0.868-0.554,1.751v1.895h-0.874l1.431,2.898l1.418-2.898
			C17.425,16.962,16.55,16.962,16.55,16.962z"/>
	</g>
</svg>