<svg xmlns="http://www.w3.org/2000/svg" viewBox="0 0 32 32"><path fill="#607d8b" d="m13.845 7.533-1.288-1.072a2 2 0 0 0-1.28-.464H4a2 2 0 0 0-2 2v16.002a2 2 0 0 0 2 2h24.003a2 2 0 0 0 2-2V9.997a2 2 0 0 0-2-2H15.125a2 2 0 0 1-1.28-.464z"/><path fill="#f44336" d="M14 20v6h-4zm4.026-5.342-2.385.795a1.494 1.494 0 0 0-.867 2.094l.534 1.068 4.696-1.624c.014-.293-.004-.602-.004-.91a1.496 1.496 0 0 0-1.974-1.423zm12.886 5.502-5.546-5.18C24.272 13.999 23.85 14 22 14v3.012a3.361 3.361 0 0 1-1.301 2.787L24 24l5.876 1.676c.606-.698.85-1.005 1.38-1.595a2.583 2.583 0 0 0-.344-3.921z"/><path fill="#b71c1c" d="m10 26 4-2 4 2-4 2zm10.699-6.2a19.762 19.762 0 0 1-2.463 1.314 3.494 3.494 0 0 1-2.236.302v1.339l8.98 4.888a3.217 3.217 0 0 0 4.054-1c.333-.384.505-.582.842-.967zm-5.127-1.89 3.756-1.408a.499.499 0 0 1 .675.492 1.48 1.48 0 0 1-.832 1.42l-1.83.915c-1.399.7-2.717-1.063-1.769-1.419z"/></svg>