<svg xmlns="http://www.w3.org/2000/svg" viewBox="0 0 32 32"><path fill="#fbc02d" d="M 28.967 12 L 9.442 12 C 8.58 12 7.816 12.551 7.544 13.368 L 4 24 L 4 10 L 28 10 C 28 8.896 27.104 8 26 8 L 15.124 8 C 14.656 8 14.203 7.836 13.844 7.536 L 12.556 6.464 C 12.196 6.165 11.743 6 11.276 6 L 4 6 C 2.895 6 2 6.896 2 8 L 2 24 C 2 25.105 2.895 26 4 26 L 26 26 L 30.805 14.788 C 31.37 13.469 30.402 12 28.967 12 Z"/><path fill="#fffde7" d="M 24.001 24.571 L 29.715 28 L 27.428 22.286 L 32 17.714 L 26.286 17.696 L 24.001 12 L 21.714 17.714 L 16 17.714 L 20.572 22.286 L 18.285 28 L 24.001 24.571 Z" style=""/></svg>