<svg clip-rule="evenodd" fill-rule="evenodd" stroke-linejoin="round" stroke-miterlimit="1.4142" version="1.1" viewBox="0 0 24 24" xml:space="preserve" xmlns="http://www.w3.org/2000/svg"><path d="m10 4h-6c-1.11 0-2 0.89-2 2v12c0 1.097 0.903 2 2 2h16c1.097 0 2-0.903 2-2v-10c0-1.11-0.9-2-2-2h-8l-2-2z" fill="#1e88e5" fill-rule="nonzero"/><path id="Flame" d="m18.432 9.0195c-0.33031 0-0.63904 0.16465-0.82245 0.43977l-1.6881 2.5283h-3.9541c-0.27334 0-0.49455 0.2212-0.49455 0.49455v2.7204l1.7313 1.783 0.59717-0.63883 0.74221 0.74221-0.60334 0.60334 0.73064 0.73141 0.60411-0.60411 0.74761 0.74761-0.59254 0.59254 1.7313 1.7313h2.7204c0.27305 0 0.49455-0.2212 0.49455-0.49455v-3.9549l2.5275-1.6873c0.2751-0.18342 0.43977-0.4926 0.43977-0.82322v-4.417c0-0.27336-0.22121-0.49455-0.49455-0.49455zm1.9443 1.4837c0.51215 0 0.96389 0.25952 1.2306 0.65426 0.1601 0.23693 0.25384 0.52288 0.25384 0.83017 0 0.30729-0.09373 0.5926-0.25384 0.8294-0.05334 0.07895-0.11417 0.15275-0.18131 0.21989-0.13434 0.13424-0.29383 0.2428-0.4714 0.31787-0.17753 0.0751-0.37302 0.1165-0.57788 0.1165-0.10268 0-0.20254-0.01021-0.29936-0.03009-0.09634-0.01972-0.1892-0.04902-0.27775-0.08641h-7.91e-4c-0.17749-0.07508-0.33715-0.18363-0.47139-0.31787-0.13412-0.13412-0.24278-0.29412-0.31787-0.4714v-7.7e-4c-0.03746-0.08854-0.06664-0.18142-0.08641-0.27775v-7.7e-4c-0.01976-0.09659-0.03009-0.19615-0.03009-0.29858 0-0.61434 0.37352-1.1425 0.90578-1.3679 0.1775-0.07515 0.37302-0.1165 0.57788-0.1165zm-8.9035 7.4198v2.9681h2.9681v-0.89035h-2.0777v-2.0777z" fill="#bbdefb" stroke-width=".29679"/></svg>
