<?xml version="1.0" encoding="UTF-8" standalone="no"?>
<svg
   xmlns:dc="http://purl.org/dc/elements/1.1/"
   xmlns:cc="http://creativecommons.org/ns#"
   xmlns:rdf="http://www.w3.org/1999/02/22-rdf-syntax-ns#"
   xmlns:svg="http://www.w3.org/2000/svg"
   xmlns="http://www.w3.org/2000/svg"
   xmlns:sodipodi="http://sodipodi.sourceforge.net/DTD/sodipodi-0.dtd"
   xmlns:inkscape="http://www.inkscape.org/namespaces/inkscape"
   clip-rule="evenodd"
   fill-rule="evenodd"
   stroke-linejoin="round"
   stroke-miterlimit="1.414"
   version="1.1"
   viewBox="0 0 24 24"
   id="svg6"
   sodipodi:docname="folder-gatsby-open.svg"
   inkscape:version="0.92.4 5da689c313, 2019-01-14">
  <metadata
     id="metadata12">
    <rdf:RDF>
      <cc:Work
         rdf:about="">
        <dc:format>image/svg+xml</dc:format>
        <dc:type
           rdf:resource="http://purl.org/dc/dcmitype/StillImage" />
        <dc:title />
      </cc:Work>
    </rdf:RDF>
  </metadata>
  <defs
     id="defs10" />
  <sodipodi:namedview
     pagecolor="#ffffff"
     bordercolor="#666666"
     borderopacity="1"
     objecttolerance="10"
     gridtolerance="10"
     guidetolerance="10"
     inkscape:pageopacity="0"
     inkscape:pageshadow="2"
     inkscape:window-width="1575"
     inkscape:window-height="815"
     id="namedview8"
     showgrid="false"
     inkscape:zoom="13.906433"
     inkscape:cx="10.588704"
     inkscape:cy="7.2717158"
     inkscape:window-x="691"
     inkscape:window-y="332"
     inkscape:window-maximized="0"
     inkscape:current-layer="g3795" />
  <path
     d="M19 20H4a2 2 0 0 1-2-2V6c0-1.11.89-2 2-2h6l2 2h7c1.097 0 2 .903 2 2H4v10l2.14-8h17.07l-2.28 8.5c-.23.87-1.01 1.5-1.93 1.5z"
     fill="#009688"
     id="path2"
     style="fill:#663399;fill-opacity:1" />
  <style
     id="style3785"
     type="text/css">
	.st0{fill:#FFFFFF;}
	.st1{fill:#663399;}
</style>
  <g
     id="g3795"
     transform="matrix(0.36380366,0,0,0.36380366,13.211834,12.805054)">
    <g
       id="g822"
       transform="matrix(1.4725368,0,0,1.4725368,-11.577217,-10.459086)">
      <g
         style="fill:#ffffff"
         id="g3791">
        <path
           style="fill:#ffffff"
           inkscape:connector-curvature="0"
           class="st0"
           d="m 25,14 h -7 v 2 h 4.8 c -0.7,3 -2.9,5.5 -5.8,6.5 L 5.5,11 C 6.7,7.5 10.1,5 14,5 c 3,0 5.7,1.5 7.4,3.8 L 22.9,7.5 C 20.9,4.8 17.7,3 14,3 8.8,3 4.4,6.7 3.3,11.6 L 16.5,24.8 C 21.3,23.6 25,19.2 25,14 Z"
           id="path3787" />
        <path
           style="fill:#ffffff"
           inkscape:connector-curvature="0"
           class="st0"
           d="m 3,14.1 c 0,2.8 1.1,5.5 3.2,7.6 2.1,2.1 4.9,3.2 7.6,3.2 z"
           id="path3789" />
      </g>
      <path
         style="opacity:1;fill:#a780d4;fill-opacity:1"
         inkscape:connector-curvature="0"
         class="st1"
         d="M 14,0 C 6.3,0 0,6.3 0,14 0,21.7 6.3,28 14,28 21.7,28 28,21.7 28,14 28,6.3 21.7,0 14,0 Z M 6.2,21.8 C 4.1,19.7 3,16.9 3,14.2 L 13.9,25 C 11.1,24.9 8.3,23.9 6.2,21.8 Z M 16.4,24.7 3.3,11.6 C 4.4,6.7 8.8,3 14,3 c 3.7,0 6.9,1.8 8.9,4.5 L 21.4,8.8 C 19.7,6.5 17,5 14,5 10.1,5 6.8,7.5 5.5,11 L 17,22.5 c 2.9,-1 5.1,-3.5 5.8,-6.5 H 18 v -2 h 7 c 0,5.2 -3.7,9.6 -8.6,10.7 z"
         id="path3793" />
    </g>
  </g>
</svg>
