<svg xmlns="http://www.w3.org/2000/svg" viewBox="0 0 16 16">
<path id="folder" fill="#689f38" d="m6.922 3.768-.644-.536A1 1 0 0 0 5.638 3H2a1 1 0 0 0-1 1v8a1 1 0 0 0 1 1h12a1 1 0 0 0 1-1V5a1 1 0 0 0-1-1H7.562a1 1 0 0 1-.64-.232" />
<path id="motive" fill="#dcedc8" d="m 12,7 v 2 h 0.75 A 0.25,0.25 0 0 1 13,9.25 v 2.5 A 0.25,0.25 0 0 1 12.75,12 h -2.5 A 0.25,0.25 0 0 1 10,11.75 V 9.25 A 0.25,0.25 0 0 1 10.25,9 H 11 V 7 H 6 A 1,1 0 0 0 5,8 v 2 a 1,1 0 0 0 1,1 h 1.601 l 0.15,1 A 2.275,2.275 0 0 0 10,14 h 3 a 2.275,2.275 0 0 0 2.2485,-2 L 16,7 Z M 6,10 V 8 h 1.15 l 0.301,2 z" />
</svg>
