<svg xmlns="http://www.w3.org/2000/svg" viewBox="0 0 16 16">
<path id="folder" fill="#1976d2" d="m6.922 3.768-.644-.536A1 1 0 0 0 5.638 3H2a1 1 0 0 0-1 1v8a1 1 0 0 0 1 1h12a1 1 0 0 0 1-1V5a1 1 0 0 0-1-1H7.562a1 1 0 0 1-.64-.232" />
<path id="motive" fill="#bbdefb" d="M 12.591,6.574 C 12.2595,6.0675 12.181,6 11.506,6 H 11.49 C 10.815,6 10.7405,6.0675 10.405,6.574 10.0935,7.05 7,12.7365 7,12.895 a 1.25,1.25 0 0 0 0.2725,0.7565 c 0.217,0.313 0.5915,0.487 0.864,0.21 0.185,-0.1865 2.17,-3.62 3.1285,-4.9185 a 0.2875,0.2875 0 0 1 0.47,0 c 0.958,1.2985 2.9435,4.732 3.1285,4.9185 0.2725,0.277 0.647,0.102 0.864,-0.21 A 1.25,1.25 0 0 0 16,12.895 C 15.996,12.7365 12.9025,7.0455 12.591,6.574" />
</svg>
