<svg xmlns="http://www.w3.org/2000/svg" viewBox="0 0 16 16"><path id="folder" fill="#ef5350" d="m6.922 3.768-.644-.536A1 1 0 0 0 5.638 3H2a1 1 0 0 0-1 1v8a1 1 0 0 0 1 1h12a1 1 0 0 0 1-1V5a1 1 0 0 0-1-1H7.562a1 1 0 0 1-.64-.232"/><path id="motive" fill="#ffcdd2" d="M12 6.5V8l2-2-2-2v1.5a3.99 4.008 0 0 0-4 4 3.95 3.967 0 0 0 .62 2.13l.73-.731A2.93 2.943 0 0 1 9 9.5a2.994 3.007 0 0 1 3-3m3.38.87-.73.73A2.985 2.997 0 0 1 12 12.5V11l-2 2 2 2v-1.5a3.99 4.008 0 0 0 4-4 3.936 3.952 0 0 0-.62-2.13"/></svg>