<?xml version="1.0" encoding="UTF-8" standalone="no"?>
<!DOCTYPE svg PUBLIC "-//W3C//DTD SVG 1.1//EN" "http://www.w3.org/Graphics/SVG/1.1/DTD/svg11.dtd">
<svg width="100%" height="100%" viewBox="0 0 24 24" version="1.1" xmlns="http://www.w3.org/2000/svg" xmlns:xlink="http://www.w3.org/1999/xlink" xml:space="preserve" xmlns:serif="http://www.serif.com/" style="fill-rule:evenodd;clip-rule:evenodd;stroke-linejoin:round;stroke-miterlimit:1.41421;">
    <path d="M19,20L4,20C2.889,20 2,19.1 2,18L2,6C2,4.89 2.89,4 4,4L10,4L12,6L19,6C20.097,6 21,6.903 21,8L4,8L4,18L6.14,10L23.21,10L20.93,18.5C20.7,19.37 19.919,20 19,20Z" style="fill:rgb(97,97,97);"/>
    <g transform="matrix(0.937813,0,0,0.937813,6.38433,4.18613)">
        <g transform="matrix(0.0616791,0,0,0.0616791,2.5631,2.56804)">
            <path d="M259.793,152.92C259.793,152.92 259.793,152.92 259.793,152.92C259.793,211.505 211.585,259.713 153,259.713C94.415,259.713 46.207,211.505 46.207,152.92C46.207,94.335 94.415,46.127 153,46.127C153.002,46.127 153.004,46.127 153.006,46.127C211.587,46.127 259.793,94.333 259.793,152.914C259.793,152.916 259.793,152.918 259.793,152.92" style="fill:rgb(132,137,146);fill-rule:nonzero;"/>
        </g>
        <g transform="matrix(0.0616791,0,0,0.0616791,2.5631,2.56804)">
            <path d="M154.799,112.893L182.438,181.102L140.692,148.221L154.799,112.893ZM203.895,196.815L161.385,94.514C160.385,91.762 157.727,89.94 154.799,90.001C151.826,89.933 149.113,91.743 148.034,94.514L101.377,206.726L117.338,206.726L135.806,160.458L190.923,204.988C193.142,206.782 194.739,207.593 196.82,207.593C196.88,207.594 196.939,207.595 196.999,207.595C201.181,207.595 204.623,204.153 204.623,199.97C204.623,199.968 204.623,199.966 204.623,199.964C204.551,198.882 204.305,197.819 203.895,196.815" style="fill:white;fill-rule:nonzero;"/>
        </g>
    </g>
</svg>
