<?xml version="1.0" encoding="UTF-8" standalone="no"?>
<svg
   clip-rule="evenodd"
   fill-rule="evenodd"
   stroke-linejoin="round"
   stroke-miterlimit="1.414"
   viewBox="0 0 24 24"
   version="1.1"
   id="svg2"
   sodipodi:docname="folder-lottie-open.svg"
   inkscape:version="1.3 (0e150ed, 2023-07-21)"
   xmlns:inkscape="http://www.inkscape.org/namespaces/inkscape"
   xmlns:sodipodi="http://sodipodi.sourceforge.net/DTD/sodipodi-0.dtd"
   xmlns="http://www.w3.org/2000/svg"
   xmlns:svg="http://www.w3.org/2000/svg">
  <defs
     id="defs2" />
  <sodipodi:namedview
     id="namedview2"
     pagecolor="#ffffff"
     bordercolor="#000000"
     borderopacity="0.25"
     inkscape:showpageshadow="2"
     inkscape:pageopacity="0.0"
     inkscape:pagecheckerboard="0"
     inkscape:deskcolor="#d1d1d1"
     inkscape:zoom="23.618417"
     inkscape:cx="12.638442"
     inkscape:cy="17.147635"
     inkscape:window-width="1440"
     inkscape:window-height="1567"
     inkscape:window-x="1800"
     inkscape:window-y="25"
     inkscape:window-maximized="0"
     inkscape:current-layer="svg2" />
  <path
     d="M19 20H4a2 2 0 0 1-2-2V6c0-1.11.89-2 2-2h6l2 2h7c1.097 0 2 .903 2 2H4v10l2.14-8h17.07l-2.28 8.5c-.23.87-1.01 1.5-1.93 1.5z"
     fill="#607D8B"
     id="path1"
     style="fill:#009688;fill-opacity:1" />
  <path
     fill="#ffffff"
     d="m 22.681383,10.200413 c -3.563813,0 -4.878278,2.540649 -5.937828,4.582429 l -0.697135,1.304954 c -1.12364,2.16562 -1.961978,3.481117 -4.123462,3.481117 A 1.0219242,1.0219242 0 0 0 10.9,20.590837 a 1.0219242,1.0219242 0 0 0 1.022751,1.021718 c 3.563814,0 4.87807,-2.540855 5.937828,-4.582638 l 0.692792,-1.304953 c 1.123642,-2.165412 1.962185,-3.480909 4.123671,-3.480909 A 1.0219242,1.0219242 0 0 0 23.7,11.22213 1.022131,1.022131 0 0 0 22.677042,10.2 h 0.0041 z"
     id="path2-8"
     style="fill:#b2dfdb;fill-opacity:1;stroke-width:0.206742" />
</svg>
