<?xml version="1.0" encoding="UTF-8" standalone="no"?>
<svg
   xmlns:dc="http://purl.org/dc/elements/1.1/"
   xmlns:cc="http://creativecommons.org/ns#"
   xmlns:rdf="http://www.w3.org/1999/02/22-rdf-syntax-ns#"
   xmlns:svg="http://www.w3.org/2000/svg"
   xmlns="http://www.w3.org/2000/svg"
   xmlns:sodipodi="http://sodipodi.sourceforge.net/DTD/sodipodi-0.dtd"
   xmlns:inkscape="http://www.inkscape.org/namespaces/inkscape"
   clip-rule="evenodd"
   fill-rule="evenodd"
   stroke-linejoin="round"
   stroke-miterlimit="1.4142"
   version="1.1"
   viewBox="0 0 24 24"
   xml:space="preserve"
   id="svg74"
   sodipodi:docname="folder-gulp.svg"
   inkscape:version="1.0.1 (3bc2e813f5, 2020-09-07)"><metadata
     id="metadata80"><rdf:RDF><cc:Work
         rdf:about=""><dc:format>image/svg+xml</dc:format><dc:type
           rdf:resource="http://purl.org/dc/dcmitype/StillImage" /><dc:title /></cc:Work></rdf:RDF></metadata><defs
     id="defs78" /><sodipodi:namedview
     pagecolor="#ffffff"
     bordercolor="#666666"
     borderopacity="1"
     objecttolerance="10"
     gridtolerance="10"
     guidetolerance="10"
     inkscape:pageopacity="0"
     inkscape:pageshadow="2"
     inkscape:window-width="1366"
     inkscape:window-height="714"
     id="namedview76"
     showgrid="false"
     inkscape:zoom="15.232259"
     inkscape:cx="23.987111"
     inkscape:cy="15.877926"
     inkscape:window-x="0"
     inkscape:window-y="32"
     inkscape:window-maximized="1"
     inkscape:current-layer="svg74"
     inkscape:document-rotation="0" /><path
     d="m10 4h-6c-1.11 0-2 .89-2 2v12c0 1.097.903 2 2 2h16c1.097 0 2-.903 2-2v-10c0-1.11-.9-2-2-2h-8l-2-2z"
     fill="#e57373"
     fill-rule="nonzero"
     style="fill:#ff5252;fill-opacity:1"
     id="path64" /><path
     d="m 15.20642,17.254047 c -0.214012,-2.167589 -0.387888,-3.968678 -0.386386,-4.002412 0.0015,-0.03369 -0.181064,-0.06125 -0.405686,-0.06125 h -0.408411 v -1.551938 h 3.185561 V 8.6258124 L 18.6946,7.7225369 c 0.915404,-0.5501258 1.588564,-0.9032754 1.721573,-0.9032754 0.321279,0 0.695986,0.4059759 0.695986,0.7540735 0,0.1521095 -0.04594,0.3390536 -0.102108,0.4154456 -0.05615,0.076392 -0.579932,0.4253569 -1.163993,0.7754792 l -1.061826,0.6365895 -0.02272,1.1187737 -0.02272,1.118772 h 3.190139 v 1.551938 H 21.14207 l -0.397518,4.002411 -0.397519,4.002412 H 15.59548 l -0.389109,-3.941128 z"
     fill="#e53935"
     id="path236"
     style="fill:#ffebee;fill-opacity:1;stroke-width:0.803197" /></svg>
