<?xml version="1.0" encoding="UTF-8" standalone="no"?>
<svg
   xmlns:dc="http://purl.org/dc/elements/1.1/"
   xmlns:cc="http://creativecommons.org/ns#"
   xmlns:rdf="http://www.w3.org/1999/02/22-rdf-syntax-ns#"
   xmlns:svg="http://www.w3.org/2000/svg"
   xmlns="http://www.w3.org/2000/svg"
   id="svg6"
   xml:space="preserve"
   viewBox="0 0 24 24"
   version="1.1"
   stroke-miterlimit="1.4142"
   stroke-linejoin="round"
   fill-rule="evenodd"
   clip-rule="evenodd"><metadata
     id="metadata12"><rdf:RDF><cc:Work
         rdf:about=""><dc:format>image/svg+xml</dc:format><dc:type
           rdf:resource="http://purl.org/dc/dcmitype/StillImage" /><dc:title></dc:title></cc:Work></rdf:RDF></metadata><defs
     id="defs10" /><path
     id="path2"
     fill-rule="nonzero"
     fill="#ef5350"
     d="m10 4h-6c-1.11 0-2 .89-2 2v12c0 1.097.903 2 2 2h16c1.097 0 2-.903 2-2v-10c0-1.11-.9-2-2-2h-8l-2-2z" /><g
     style="fill:#ffcdd2;fill-opacity:1"
     transform="translate(0.04352833,-0.20009314)"
     id="g832"><path
       d="m 18.180408,18.851137 v -0.934885 l 1.783255,-1.035259 -1.783255,-1.034795 v -0.935343 l 2.775494,1.661134 v 0.618008 z m -0.693872,9.19e-4 -2.775494,-1.668533 v -0.604596 l 2.775494,-1.668997 v 0.935804 l -1.770766,1.035259 1.770766,1.035722 z M 13.770472,8.9103931 c -0.748456,-3.123e-4 -1.355294,0.5710553 -1.355,1.2757999 v 10.201 c -0.0014,0.705487 0.605755,1.278014 1.355,1.2777 h 8.1259 c 0.749245,3.14e-4 1.35641,-0.572213 1.355,-1.2777 v -10.201 c 2.94e-4,-0.7047446 -0.606544,-1.2761122 -1.355,-1.2757999 z m 8.126,8.9269999 v 2.5498 h -8.1259 v -2.5497 l -10e-5,-1.274 v -3.1887 h 8.1259 v 3.1887 z"
       style="clip-rule:evenodd;fill:#ffcdd2;fill-rule:evenodd;stroke-width:0.46258226;stroke-linejoin:round;stroke-miterlimit:1.41419995;fill-opacity:1"
       id="path4-6" /></g></svg>