<svg width="24" height="24" viewBox="0 0 24 24" fill="none" xmlns="http://www.w3.org/2000/svg">
<path d="M10 4H4C2.89 4 2 4.89 2 6V18C2 19.097 2.903 20 4 20H20C21.097 20 22 19.097 22 18V8C22 7.46957 21.7893 6.96086 21.4142 6.58579C21.0391 6.21071 20.5304 6 20 6H12L10 4Z" fill="#BF360C"/>
<g clip-path="url(#clip0_3_24)">
<path fill-rule="evenodd" clip-rule="evenodd" d="M14.7612 10.7796L17.1549 12.3926C17.2089 12.4281 17.2721 12.4475 17.3368 12.4486C17.4017 12.4482 17.465 12.4287 17.5187 12.3926L19.9143 10.7741C20.0074 10.7083 20.0587 10.5987 20.0494 10.4855C20.0401 10.3723 19.9715 10.2724 19.8688 10.2226L17.4751 9.05263C17.3843 9.00913 17.2785 9.00913 17.1877 9.05263L14.8012 10.2226C14.6967 10.2727 14.6272 10.3745 14.619 10.4896C14.6107 10.6046 14.6649 10.7152 14.7612 10.7796ZM18.1499 12.8989C18.1501 13.0059 18.2031 13.1059 18.2918 13.1665L20.2108 14.4613C20.3336 14.5449 20.498 14.5345 20.6092 14.436L22.219 13.0146C22.2907 12.9513 22.3305 12.8597 22.3277 12.7644C22.3249 12.6691 22.2797 12.58 22.2044 12.521L20.6674 11.3076C20.5556 11.22 20.3998 11.2141 20.2817 11.2931L18.2918 12.6367C18.2047 12.6962 18.1519 12.7939 18.1499 12.8989ZM13.3769 14.6602C13.4545 14.729 13.4944 14.8304 13.4843 14.9333C13.4742 15.0367 13.4137 15.1286 13.3224 15.1792L12.1764 15.8573C12.0603 15.9258 11.9136 15.916 11.8078 15.8325C11.702 15.749 11.6591 15.6092 11.6999 15.4812L12.1237 14.1647C12.1569 14.0604 12.2412 13.98 12.3474 13.9513C12.4535 13.9208 12.568 13.9476 12.6494 14.0219L13.3769 14.6602ZM19.5923 14.7976L17.5206 13.398C17.4105 13.3249 17.2669 13.3249 17.1568 13.398L15.0849 14.7976C15.0026 14.8539 14.9504 14.9444 14.9431 15.0435C14.9377 15.1434 14.9778 15.2403 15.0522 15.3076L17.1222 17.1358C17.1819 17.1883 17.2589 17.2173 17.3387 17.2171C17.4183 17.2171 17.4953 17.1882 17.5551 17.1358L19.6251 15.3076C19.6997 15.2406 19.7393 15.1433 19.7324 15.0435C19.7266 14.9444 19.6749 14.8535 19.5923 14.7976ZM14.0663 14.436L12.4584 13.0146C12.386 12.9498 12.3461 12.8565 12.3492 12.7597C12.351 12.6643 12.3957 12.5746 12.4711 12.5155L14.0081 11.2949C14.1206 11.2076 14.2768 11.2017 14.3956 11.2805L16.3837 12.624C16.476 12.6838 16.5316 12.7858 16.5316 12.8953C16.5316 13.0048 16.476 13.1068 16.3837 13.1665L14.4665 14.4613C14.3429 14.5445 14.1783 14.5341 14.0663 14.436ZM22.3226 16.4775L20.6855 15.5101C20.564 15.4378 20.4092 15.4524 20.3036 15.5463L18.3027 17.3094C18.2183 17.3838 18.1787 17.4963 18.1979 17.6068C18.2172 17.7173 18.2926 17.81 18.3973 17.8519L21.173 18.9622C21.2111 18.9778 21.2519 18.9858 21.2931 18.9857C21.4219 18.9861 21.5389 18.9109 21.5914 18.794L22.4518 16.8916C22.5218 16.7411 22.466 16.5623 22.3226 16.4775ZM22.55 14.1647L22.9738 15.4812H22.9702C23.0015 15.5796 22.9837 15.6871 22.9222 15.7703C22.8608 15.8536 22.763 15.9027 22.6591 15.9025C22.6009 15.9027 22.5436 15.8871 22.4936 15.8573L21.3458 15.1792C21.2564 15.1275 21.198 15.0357 21.1894 14.9333C21.1787 14.8303 21.2186 14.7286 21.2967 14.6602L22.0243 14.02C22.1065 13.9473 22.2201 13.9208 22.3263 13.9495C22.4324 13.9795 22.5164 14.0603 22.55 14.1647ZM16.4783 17.6059C16.4979 17.4959 16.4586 17.3836 16.3746 17.3094L14.3737 15.5463C14.2681 15.4524 14.1133 15.4378 13.9918 15.5101L12.3547 16.4775C12.2129 16.5627 12.1569 16.7392 12.2237 16.8899L13.0859 18.7922C13.1573 18.9508 13.342 19.025 13.5043 18.9604L16.2782 17.8501C16.3829 17.8086 16.4586 17.7163 16.4783 17.6059ZM17.4605 18.1484L19.6869 19.0381C19.7958 19.0841 19.871 19.1852 19.8834 19.3021C19.8975 19.4205 19.8442 19.5369 19.7452 19.6041L17.5169 21.1321C17.4635 21.1692 17.4001 21.1893 17.335 21.19C17.27 21.189 17.2067 21.1689 17.1531 21.1321L14.9267 19.6041C14.8273 19.5371 14.7734 19.4208 14.7867 19.3021C14.8015 19.184 14.8794 19.083 14.9904 19.0381L17.2168 18.1484C17.2951 18.1176 17.3822 18.1176 17.4605 18.1484Z" fill="#FFCCBC"/>
</g>
<defs>
<clipPath id="clip0_3_24">
<rect width="12.17" height="12.17" fill="white" transform="translate(11.25 9.02)"/>
</clipPath>
</defs>
</svg>
