<svg xmlns="http://www.w3.org/2000/svg" viewBox="0 0 16 16"><path id="folder" fill="#7c4dff" d="m6.922 3.768-.644-.536A1 1 0 0 0 5.638 3H2a1 1 0 0 0-1 1v8a1 1 0 0 0 1 1h12a1 1 0 0 0 1-1V5a1 1 0 0 0-1-1H7.562a1 1 0 0 1-.64-.232"/><path id="motive" fill="#d1c4e9" d="M9.667 13.5c0-.405.04-.754.65-.754 0 1.304.75 2.254 1.35 2.254 0-1.66 1.333-1.561 1.333-3H9c0 .638.079 1.34.667 1.5m2.961-8.192L15 11h-1.166a2 2 0 0 1-1.847-1.231l-.756-1.815a.25.25 0 0 0-.462 0l-.756 1.815A2 2 0 0 1 8.166 11H7l2.372-5.692A.5.5 0 0 1 9.834 5h2.333a.5.5 0 0 1 .461.308"/></svg>