<svg width="24" height="24" viewBox="0 0 24 24" fill="none" xmlns="http://www.w3.org/2000/svg">
<path d="M19 20H4C3.46957 20 2.96086 19.7893 2.58579 19.4142C2.21071 19.0391 2 18.5304 2 18V6C2 4.89 2.89 4 4 4H10L12 6H19C20.097 6 21 6.903 21 8H4V18L6.14 10H23.21L20.93 18.5C20.7 19.37 19.92 20 19 20Z" fill="#54A45E"/>
<path d="M11.5339 17.5361L12.7267 18.4806L12.1545 18.9771L10.9799 18.0326L11.5339 17.5361ZM12.7569 15.8832V16.0921C12.7569 16.4271 12.7115 16.7278 12.6207 16.9942C12.5319 17.2606 12.4037 17.4877 12.2362 17.6754C12.0687 17.861 11.8709 18.0033 11.6429 18.1022C11.4148 18.2011 11.1615 18.2505 10.883 18.2505C10.6065 18.2505 10.3532 18.2011 10.1231 18.1022C9.89307 18.0033 9.69427 17.861 9.52676 17.6754C9.35924 17.4877 9.22907 17.2606 9.13623 16.9942C9.04541 16.7278 9 16.4271 9 16.0921V15.8832C9 15.5461 9.04541 15.2454 9.13623 14.981C9.22907 14.7146 9.35824 14.4876 9.52373 14.2999C9.68923 14.1122 9.88701 13.9689 10.1171 13.87C10.3472 13.7711 10.6005 13.7216 10.877 13.7216C11.1555 13.7216 11.4088 13.7711 11.6368 13.87C11.8669 13.9689 12.0657 14.1122 12.2332 14.2999C12.4007 14.4876 12.5299 14.7146 12.6207 14.981C12.7115 15.2454 12.7569 15.5461 12.7569 15.8832ZM11.8396 16.0921V15.8771C11.8396 15.643 11.8174 15.4371 11.773 15.2595C11.7307 15.0819 11.6681 14.9326 11.5854 14.8115C11.5046 14.6904 11.4047 14.5996 11.2856 14.539C11.1666 14.4765 11.0303 14.4452 10.877 14.4452C10.7236 14.4452 10.5873 14.4765 10.4683 14.539C10.3492 14.5996 10.2493 14.6904 10.1686 14.8115C10.0878 14.9326 10.0263 15.0819 9.98389 15.2595C9.9415 15.4371 9.92031 15.643 9.92031 15.8771V16.0921C9.92031 16.3241 9.9415 16.53 9.98389 16.7096C10.0263 16.8872 10.0878 17.0376 10.1686 17.1607C10.2513 17.2818 10.3522 17.3736 10.4713 17.4362C10.5924 17.4988 10.7296 17.53 10.883 17.53C11.0364 17.53 11.1716 17.4988 11.2887 17.4362C11.4077 17.3736 11.5076 17.2818 11.5884 17.1607C11.6711 17.0376 11.7337 16.8872 11.7761 16.7096C11.8185 16.53 11.8396 16.3241 11.8396 16.0921ZM14.2312 15.5925V18.19H13.3563V14.9144H14.1768L14.2312 15.5925ZM14.1102 16.4372H13.868C13.868 16.2091 13.8952 15.9992 13.9497 15.8075C14.0062 15.6137 14.088 15.4462 14.1949 15.3049C14.3039 15.1616 14.4381 15.0506 14.5976 14.9719C14.757 14.8932 14.9417 14.8539 15.1516 14.8539C15.2969 14.8539 15.4301 14.8761 15.5512 14.9205C15.6723 14.9629 15.7762 15.0305 15.863 15.1233C15.9518 15.2141 16.0204 15.3332 16.0688 15.4805C16.1173 15.6258 16.1415 15.8004 16.1415 16.0043V18.19H15.2696V16.1011C15.2696 15.9518 15.2494 15.8367 15.2091 15.756C15.1687 15.6753 15.1112 15.6188 15.0365 15.5865C14.9639 15.5542 14.8761 15.538 14.7731 15.538C14.6601 15.538 14.5612 15.5613 14.4765 15.6077C14.3937 15.6541 14.3251 15.7187 14.2706 15.8014C14.2161 15.8822 14.1757 15.977 14.1495 16.086C14.1233 16.195 14.1102 16.312 14.1102 16.4372ZM16.0598 16.3373L15.7479 16.3766C15.7479 16.1627 15.7742 15.9639 15.8267 15.7802C15.8812 15.5966 15.9609 15.4351 16.0658 15.2959C16.1728 15.1566 16.305 15.0486 16.4624 14.9719C16.6198 14.8932 16.8015 14.8539 17.0073 14.8539C17.1647 14.8539 17.308 14.8771 17.4372 14.9235C17.5664 14.9679 17.6764 15.0395 17.7672 15.1384C17.86 15.2353 17.9307 15.3625 17.9791 15.5199C18.0296 15.6773 18.0548 15.87 18.0548 16.0981V18.19H17.1799V16.0981C17.1799 15.9467 17.1597 15.8317 17.1193 15.753C17.081 15.6723 17.0245 15.6168 16.9498 15.5865C16.8771 15.5542 16.7904 15.538 16.6895 15.538C16.5845 15.538 16.4927 15.5592 16.414 15.6016C16.3353 15.642 16.2697 15.6985 16.2172 15.7712C16.1647 15.8438 16.1254 15.9286 16.0991 16.0254C16.0729 16.1203 16.0598 16.2242 16.0598 16.3373ZM19.6502 13.54V18.19H18.7753V13.54H19.6502Z" fill="#E5E5E5"/>
</svg>
