<svg xmlns="http://www.w3.org/2000/svg" viewBox="0 0 16 16"><path id="folder" fill="#607d8b" d="m6.922 3.768-.644-.536A1 1 0 0 0 5.638 3H2a1 1 0 0 0-1 1v8a1 1 0 0 0 1 1h12a1 1 0 0 0 1-1V5a1 1 0 0 0-1-1H7.562a1 1 0 0 1-.64-.232"/><path id="motive" fill="#cfd8dc" d="M12.471 6.038c.436.175.609.865.38 1.547-.225.679-.758 1.092-1.197.92-.434-.17-.61-.862-.385-1.546.222-.68.761-1.09 1.202-.921m2.44 1.416c.369.3.283.973-.186 1.511-.48.535-1.16.73-1.528.435-.37-.297-.28-.968.194-1.502.474-.54 1.154-.734 1.52-.444m-5.172-.898c.485.058.84.67.81 1.362-.052.693-.467 1.21-.95 1.155-.481-.055-.834-.663-.794-1.358s.464-1.212.934-1.16m6.143 3.566c.28.383.047 1.011-.532 1.393s-1.278.38-1.567-.013c-.289-.391-.05-1.012.52-1.404.582-.371 1.286-.37 1.579.025m-2.694 3.367a1.07 1.07 0 0 1-.992.508c-.773-.073-1.162-1.076-1.84-1.47-.68-.395-1.758-.211-2.184-.866a1.2 1.2 0 0 1 .033-1.293c.355-.476 1.124-.396 1.7-.56.76-.204 1.622-.915 2.308-.516.683.395.53 1.5.705 2.265.139.639.567 1.359.27 1.932"/></svg>