<svg xmlns="http://www.w3.org/2000/svg" viewBox="0 0 16 16">
<path fill="#41b883" d="m6.922 3.768-.644-.536A1 1 0 0 0 5.638 3H2a1 1 0 0 0-1 1v8a1 1 0 0 0 1 1h12a1 1 0 0 0 1-1V5a1 1 0 0 0-1-1H7.562a1 1 0 0 1-.64-.232" id="folder"/>
<g id="motive"><path fill="#e8f5e9" d="M9.2 6a1.115 1.115 0 0 0-1.2 1v6a1.115 1.115 0 0 0 1.2 1h5.6a1.115 1.115 0 0 0 1.2-1V7a1.115 1.115 0 0 0-1.2-1Z"/><path fill="#41b883" d="m9 8 3 5 3-4.976V8h-1.1665l-1.816 3.013L10.21 8Z"/><path fill="#35495e" d="m10.209 8 1.808 3.013L13.8335 8h-1.094l-0.715 1.186L11.3125 8Z"/></g>
</svg>
