<svg xmlns="http://www.w3.org/2000/svg" viewBox="0 0 32 32"><path fill="#fbc02d" d="M 13.844 7.536 L 12.556 6.464 C 12.197 6.164 11.744 6 11.276 6 L 4 6 C 2.896 6 2 6.895 2 8 L 2 24 C 2 25.104 2.896 26 4 26 L 28 26 C 29.105 26 30 25.104 30 24 L 30 10 C 30 8.895 29.105 8 28 8 L 15.124 8 C 14.657 7.999 14.204 7.835 13.844 7.536 Z" transform="matrix(1, 0, 0, 1, 0, 4.440892098500626e-16)"/><path fill="#fffde7" d="M 24.001 24.571 L 29.715 28 L 27.428 22.286 L 32 17.714 L 26.286 17.696 L 24.001 12 L 21.714 17.714 L 16 17.714 L 20.572 22.286 L 18.285 28 L 24.001 24.571 Z" style="" transform="matrix(1, 0, 0, 1, 0, 4.440892098500626e-16)"/></svg>