<svg viewBox="0 0 24 24" fill="none" xmlns="http://www.w3.org/2000/svg">
  <g clip-path="url(#a)">
    <path
      d="M19.205 19.92H4.043c-.536 0-1.05-.21-1.43-.584a1.977 1.977 0 0 1-.591-1.409V5.976c0-1.106.9-1.992 2.021-1.992h6.065l2.022 1.992h7.075c1.109 0 2.022.9 2.022 1.992H4.043v9.96L6.206 9.96h17.255l-2.305 8.465a2.018 2.018 0 0 1-1.95 1.494Z"
      fill="#00BFA5" />
    <path
      d="M21.63 15.109a2.875 2.875 0 0 0-4.151.006c-1.148 1.18-1.148 3.091 0 4.264a2.883 2.883 0 0 0 3.635.423l2.029 2.058.907-.932-2.016-2.085a3.056 3.056 0 0 0-.405-3.734Zm-.921 3.318c-.64.657-1.67.65-2.31 0a1.714 1.714 0 0 1 .007-2.373 1.604 1.604 0 0 1 2.303 0 1.72 1.72 0 0 1 0 2.373Zm-4.157 1.898a4.393 4.393 0 0 1-.965-1.556c-2.056-.355-3.537-1.354-3.537-2.534v2.011c0 1.482 2.336 2.682 5.22 2.682a4.178 4.178 0 0 1-.718-.603Zm-4.502-7.442v2.011c0 1.126 1.35 2.092 3.263 2.48v-.133c0-.624.13-1.24.378-1.804-2.114-.342-3.641-1.354-3.641-2.554Zm5.22-4.023c-2.884 0-5.22 1.2-5.22 2.682 0 1.34 1.958 2.467 4.47 2.682h.032c.784-.845 1.867-1.341 3.002-1.341.594 0 1.181.127 1.723.375a2.152 2.152 0 0 0 1.213-1.716c0-1.482-2.336-2.682-5.22-2.682Z"
      fill="#A7FFEB" />
  </g>
  <defs>
    <clipPath id="a">
      <path fill="#fff" d="M0 0h24.259v23.903H0z" />
    </clipPath>
  </defs>
</svg>