<svg xmlns="http://www.w3.org/2000/svg" viewBox="0 0 32 32">
  <path d="M13.84376,7.53645l-1.28749-1.0729A2,2,0,0,0,11.27591,6H4A2,2,0,0,0,2,8V24a2,2,0,0,0,2,2H28a2,2,0,0,0,2-2V10a2,2,0,0,0-2-2H15.12412A2,2,0,0,1,13.84376,7.53645Z" style="fill: #1976d2"/>
  <g>
    <path d="M18,14V24H28V14Zm8,8H20V16h6Z" style="fill: #bbdefb;fill-rule: evenodd"/>
    <path d="M14,12h2V10A2,2,0,0,0,14,12Z" style="fill: #bbdefb;fill-rule: evenodd"/>
    <rect x="18" y="10" width="2" height="2" style="fill: #bbdefb"/>
    <rect x="22" y="10" width="2" height="2" style="fill: #bbdefb"/>
    <rect x="26" y="10" width="2" height="2" style="fill: #bbdefb"/>
    <path d="M30,10v2h2A2,2,0,0,0,30,10Z" style="fill: #bbdefb;fill-rule: evenodd"/>
    <rect x="30" y="14" width="2" height="2" style="fill: #bbdefb"/>
    <rect x="30" y="18" width="2" height="2" style="fill: #bbdefb"/>
    <rect x="30" y="22" width="2" height="2" style="fill: #bbdefb"/>
    <path d="M30,28a2,2,0,0,0,2-2H30Z" style="fill: #bbdefb;fill-rule: evenodd"/>
    <rect x="26" y="26" width="2" height="2" style="fill: #bbdefb"/>
    <rect x="22" y="26" width="2" height="2" style="fill: #bbdefb"/>
    <rect x="18" y="26" width="2" height="2" style="fill: #bbdefb"/>
    <path d="M16,28V26H14A2,2,0,0,0,16,28Z" style="fill: #bbdefb;fill-rule: evenodd"/>
    <rect x="14" y="22" width="2" height="2" style="fill: #bbdefb"/>
    <rect x="14" y="18" width="2" height="2" style="fill: #bbdefb"/>
    <rect x="14" y="14" width="2" height="2" style="fill: #bbdefb"/>
  </g>
</svg>
