<?xml version="1.0" encoding="UTF-8" standalone="no"?>
<svg
   viewBox="0 0 32 32"
   version="1.1"
   id="svg2"
   sodipodi:docname="folder-kusto-open.svg"
   inkscape:version="1.4 (86a8ad7, 2024-10-11)"
   xmlns:inkscape="http://www.inkscape.org/namespaces/inkscape"
   xmlns:sodipodi="http://sodipodi.sourceforge.net/DTD/sodipodi-0.dtd"
   xmlns="http://www.w3.org/2000/svg"
   xmlns:svg="http://www.w3.org/2000/svg">
  <defs
     id="defs2" />
  <sodipodi:namedview
     id="namedview2"
     pagecolor="#505050"
     bordercolor="#ffffff"
     borderopacity="1"
     inkscape:showpageshadow="0"
     inkscape:pageopacity="0"
     inkscape:pagecheckerboard="1"
     inkscape:deskcolor="#505050"
     inkscape:zoom="26.59375"
     inkscape:cx="16.018801"
     inkscape:cy="16"
     inkscape:window-width="1920"
     inkscape:window-height="1111"
     inkscape:window-x="-9"
     inkscape:window-y="-9"
     inkscape:window-maximized="1"
     inkscape:current-layer="svg2" />
  <path
     fill="#1e88e5"
     d="M28.967 12H9.442a2 2 0 0 0-1.898 1.368L4 24V10h24a2 2 0 0 0-2-2H15.124a2 2 0 0 1-1.28-.464l-1.288-1.072A2 2 0 0 0 11.276 6H4a2 2 0 0 0-2 2v16a2 2 0 0 0 2 2h22l4.805-11.212A2 2 0 0 0 28.967 12"
     id="path1" />
  <path
     fill="#bbdefb"
     d="M 14.391163,29.827623 C 14.037014,29.67334 14.031247,29.621914 14.031247,27.371097 v -2.028092 h 4.513183 v 4.570306 h -1.982364 c -1.565319,-0.0056 -2.028092,-0.02286 -2.170903,-0.08569 m 5.010142,-2.199462 v -2.285155 h 4.513251 v 4.570305 h -4.513251 z m -0.05704,-6.421322 c 0,-3.730454 0.01137,-3.924767 0.319887,-4.901663 0.297094,-0.942564 0.851254,-1.833779 1.582487,-2.542215 1.159744,-1.125412 2.525121,-1.708129 4.15326,-1.770957 1.199705,-0.04574 2.142344,0.159911 3.170666,0.685506 3.759088,1.942397 4.541747,7.106822 1.536753,10.117508 -1.056886,1.056886 -2.393705,1.668175 -3.936156,1.805358 -0.342822,0.02852 -2.022393,0.05704 -3.724825,0.05704 h -3.101996 z m 4.456059,-1.148279 v -2.542215 h -2.170978 v 5.084435 h 2.170904 z m 2.913526,0.742705 v -1.799592 h -2.170902 v 3.599177 h 2.170902 z m 2.913602,-1.456839 v -3.256213 h -2.170895 v 6.512634 h 2.170897 z M 14.031261,22.28659 v -2.313714 h 4.513183 v 4.627429 h -4.513183 z"
     id="path2" />
</svg>
