<svg xmlns="http://www.w3.org/2000/svg" viewBox="0 0 32 32">
  <path d="M28.96692,12H9.44152a2,2,0,0,0-1.89737,1.36754L4,24V10H28a2,2,0,0,0-2-2H15.1241a2,2,0,0,1-1.28038-.46357L12.5563,6.46357A2,2,0,0,0,11.27592,6H4A2,2,0,0,0,2,8V24a2,2,0,0,0,2,2H26l4.80523-11.21213A2,2,0,0,0,28.96692,12Z" style="fill: #ffb300"/>
  <path d="M29,17a1.99146,1.99146,0,0,0-1.7226,1H23.41418l3.07428-3.07428a2.03451,2.03451,0,1,0-1.41418-1.41418L22,16.58582V12.7226a2,2,0,1,0-2,0v3.86315l-3.07428-3.07428a2.03448,2.03448,0,1,0-1.41418,1.41425L18.58582,18H14.7226a2,2,0,1,0,0,2h3.86315l-3.07428,3.07428a2.0346,2.0346,0,1,0,1.41425,1.41425L20,21.41425V25.2774a2,2,0,1,0,2,0V21.41418l3.07428,3.07428a2.03463,2.03463,0,1,0,1.41425-1.41418L23.41425,20H27.2774A1.99655,1.99655,0,1,0,29,17Z" style="fill: #fff9c4;fill-rule: evenodd"/>
</svg>
