<svg xmlns="http://www.w3.org/2000/svg" viewBox="0 0 16 16"><path id="folder" fill="#757575" d="m6.922 3.768-.644-.536A1 1 0 0 0 5.638 3H2a1 1 0 0 0-1 1v8a1 1 0 0 0 1 1h12a1 1 0 0 0 1-1V5a1 1 0 0 0-1-1H7.562a1 1 0 0 1-.64-.232"/><g id="motive" data-mit-no-recolor="true"><path fill="#e53935" d="m15.675 8.852-.011-.032-1.17-3.048a.3.3 0 0 0-.12-.146.31.31 0 0 0-.463.176l-.789 2.416H9.927l-.79-2.415a.31.31 0 0 0-.463-.177.3.3 0 0 0-.12.145l-1.168 3.05-.012.03a2.17 2.17 0 0 0 .72 2.508l.004.003.01.008 1.778 1.334.882.666.536.405a.36.36 0 0 0 .437 0l.536-.406.882-.667 1.791-1.34.005-.004a2.17 2.17 0 0 0 .72-2.507"/><path fill="#ef6c00" d="m15.675 8.852-.011-.032a3.95 3.95 0 0 0-1.571.707l-2.567 1.941 1.634 1.235 1.79-1.34.006-.004a2.17 2.17 0 0 0 .72-2.508Z"/><path fill="#f9a825" d="m9.886 12.703.882.667.536.405a.36.36 0 0 0 .436 0l.536-.406.883-.666-1.635-1.235Z"/><path fill="#ef6c00" d="M8.956 9.527a3.95 3.95 0 0 0-1.57-.706l-.013.03a2.17 2.17 0 0 0 .72 2.509l.005.003.01.008 1.778 1.332 1.635-1.235Z"/></g></svg>