<svg xmlns="http://www.w3.org/2000/svg" viewBox="0 0 16 16"><path id="folder" fill="#ab47bc" d="m6.922 3.768-.644-.536A1 1 0 0 0 5.638 3H2a1 1 0 0 0-1 1v8a1 1 0 0 0 1 1h12a1 1 0 0 0 1-1V5a1 1 0 0 0-1-1H7.562a1 1 0 0 1-.64-.232"/><path id="motive" fill="#e1bee7" d="M10.79 12.998A1.949 1.951 0 0 1 8.898 15a2.002 2.005 0 0 1 0-4.004A1.949 1.951 0 0 1 10.791 13zm2.351-4.737a1.982 1.984 0 0 0-1.627-2.248 1.915 1.918 0 0 0-2.126 1.72 2.012 2.014 0 0 0 1.228 2.144c1.451.603 1.793 1.212 1.611 2.856a1.982 1.985 0 0 0 1.626 2.249 1.914 1.916 0 0 0 2.127-1.718 2.014 2.016 0 0 0-1.227-2.146c-1.451-.603-1.794-1.214-1.611-2.858Z"/></svg>