<?xml version="1.0" encoding="UTF-8"?>
<svg clip-rule="evenodd" fill-rule="evenodd" stroke-linejoin="round" stroke-miterlimit="1.4142" version="1.1" viewBox="0 0 24 24" xml:space="preserve" xmlns="http://www.w3.org/2000/svg"><path d="m10 4h-6c-1.11 0-2 0.89-2 2v12c0 1.097 0.903 2 2 2h16c1.097 0 2-0.903 2-2v-10c0-1.11-0.9-2-2-2h-8l-2-2z" fill="#ff8a65" fill-rule="nonzero"/><path d="m20.593 15.61h-6.406v-1.2812h6.406m-3.203-5.7654a6.406 6.406 0 0 0 -6.406 6.406 6.406 6.406 0 0 0 6.406 6.406 6.406 6.406 0 0 0 6.406 -6.406 6.406 6.406 0 0 0 -6.406 -6.406z" fill="#fbe9e7" fill-opacity=".94902" stroke-width=".6406"/></svg>
