<?xml version="1.0" encoding="UTF-8" standalone="no"?>
<svg
   viewBox="0 0 32 32"
   version="1.1"
   id="svg2"
   sodipodi:docname="folder-datastructure.svg"
   xml:space="preserve"
   inkscape:version="1.4.2 (f4327f4, 2025-05-13)"
   xmlns:inkscape="http://www.inkscape.org/namespaces/inkscape"
   xmlns:sodipodi="http://sodipodi.sourceforge.net/DTD/sodipodi-0.dtd"
   xmlns="http://www.w3.org/2000/svg"
   xmlns:svg="http://www.w3.org/2000/svg"><defs
     id="defs2"><clipPath
       id="clip0_0_1"><rect
         width="12"
         height="12"
         fill="white"
         transform="translate(18 14)"
         id="rect37" /></clipPath><clipPath
       id="clip0_0_1-4"><rect
         width="12"
         height="12"
         fill="white"
         transform="translate(19 16)"
         id="rect37-8" /></clipPath><clipPath
       id="clip0_0_1-45"><rect
         width="12"
         height="12"
         fill="white"
         transform="translate(18 14)"
         id="rect37-5" /></clipPath><clipPath
       id="clip0_0_1-4-1"><rect
         width="12"
         height="12"
         fill="white"
         transform="translate(19 16)"
         id="rect37-8-7" /></clipPath><clipPath
       id="clip0_0_1-8"><rect
         width="12"
         height="12"
         fill="white"
         transform="translate(18 14)"
         id="rect37-6" /></clipPath><clipPath
       id="clip0_0_1-4-5"><rect
         width="12"
         height="12"
         fill="white"
         transform="translate(19 16)"
         id="rect37-8-0" /></clipPath><clipPath
       id="clip0_0_1-1"><rect
         width="12"
         height="12"
         fill="white"
         transform="translate(18 14)"
         id="rect37-52" /></clipPath><clipPath
       id="clip0_0_1-4-7"><rect
         width="12"
         height="12"
         fill="white"
         transform="translate(19 16)"
         id="rect37-8-6" /></clipPath><clipPath
       id="clip0_0_1-45-1"><rect
         width="12"
         height="12"
         fill="white"
         transform="translate(18 14)"
         id="rect37-5-4" /></clipPath><clipPath
       id="clip0_0_1-4-1-2"><rect
         width="12"
         height="12"
         fill="white"
         transform="translate(19 16)"
         id="rect37-8-7-3" /></clipPath><clipPath
       id="clip0_0_1-8-2"><rect
         width="12"
         height="12"
         fill="white"
         transform="translate(18 14)"
         id="rect37-6-2" /></clipPath><clipPath
       id="clip0_0_1-4-5-1"><rect
         width="12"
         height="12"
         fill="white"
         transform="translate(19 16)"
         id="rect37-8-0-6" /></clipPath><clipPath
       id="clip0_0_1-18"><rect
         width="12"
         height="12"
         fill="white"
         transform="translate(18 14)"
         id="rect37-9" /></clipPath><clipPath
       id="clip0_0_1-4-2"><rect
         width="12"
         height="12"
         fill="white"
         transform="translate(19 16)"
         id="rect37-8-79" /></clipPath><clipPath
       id="clip0_0_1-48"><rect
         width="12"
         height="12"
         fill="white"
         transform="translate(18 14)"
         id="rect37-82" /></clipPath><clipPath
       id="clip0_0_1-4-4"><rect
         width="12"
         height="12"
         fill="white"
         transform="translate(19 16)"
         id="rect37-8-5" /></clipPath><clipPath
       id="clip0_0_1-84"><rect
         width="64"
         height="64"
         fill="white"
         id="rect115" /></clipPath><clipPath
       id="clip1_0_1"><rect
         width="64"
         height="64"
         fill="white"
         transform="translate(100)"
         id="rect116" /></clipPath><clipPath
       id="clip0_0_1-9"><rect
         width="64"
         height="64"
         fill="white"
         id="rect39" /></clipPath></defs><sodipodi:namedview
     id="namedview2"
     pagecolor="#505050"
     bordercolor="#eeeeee"
     borderopacity="1"
     inkscape:showpageshadow="0"
     inkscape:pageopacity="0"
     inkscape:pagecheckerboard="0"
     inkscape:deskcolor="#505050"
     inkscape:zoom="12.703125"
     inkscape:cx="11.808118"
     inkscape:cy="8.9348094"
     inkscape:window-width="1920"
     inkscape:window-height="1094"
     inkscape:window-x="-11"
     inkscape:window-y="-11"
     inkscape:window-maximized="1"
     inkscape:current-layer="g5" /><g
     id="g2"
     transform="translate(-0.1193112,-0.22140222)"><g
       style="fill:none"
       id="g1"
       transform="translate(-133.02337,32.917589)"><g
         style="fill:none"
         id="g3"
         transform="translate(54.990159,-11.415744)"><g
           style="fill:none"
           id="g4"
           transform="matrix(0.49994497,0,0,0.49985492,98.788259,-26.859943)"><g
             style="fill:none"
             id="g5"
             transform="matrix(0.99971886,0,0,1.0000792,-41.255897,11.174908)"><path
               d="M 27.688,15.072 25.112,12.928 C 24.3934,12.3288 23.4876,12.0004 22.552,12 H 8 C 6.93914,12 5.92172,12.4214 5.17158,13.1716 4.42142,13.9217 4,14.9391 4,16 v 32 c 0,1.0608 0.42142,2.0782 1.17158,2.8284 C 5.92172,51.5786 6.93914,52 8,52 h 48 c 1.0608,0 2.0782,-0.4214 2.8284,-1.1716 C 59.5786,50.0782 60,49.0608 60,48 V 20 C 60,18.9391 59.5786,17.9217 58.8284,17.1716 58.0782,16.4214 57.0608,16 56,16 H 30.248 c -0.9356,-4e-4 -1.8414,-0.3288 -2.56,-0.928 z"
               fill="#f4511e"
               id="path2-9" /><g
               mask="url(#mask1_0_1)"
               id="g76"><path
                 d="m 40.843,28.1732 c 0.061,-0.0012 0.061,-0.0012 0.1232,-0.0024 0.0438,-2e-4 0.0876,-4e-4 0.1328,-6e-4 0.045,-6e-4 0.0902,-0.001 0.1368,-0.0014 0.0954,-6e-4 0.1908,-0.001 0.2864,-0.0012 0.146,-6e-4 0.292,-0.003 0.4382,-0.0052 0.0928,-6e-4 0.1854,-8e-4 0.2782,-0.001 0.0438,-0.001 0.0874,-0.002 0.1324,-0.0028 0.3024,0.002 0.3024,0.002 0.4518,0.137 0.0854,0.1588 0.1182,0.3034 0.1498,0.4808 0.006,0.0308 0.0118,0.0618 0.0178,0.0936 0.0276,0.1512 0.0408,0.2882 0.0408,0.4424 0.0476,0.0136 0.0476,0.0136 0.096,0.0276 0.0418,0.0122 0.0836,0.0244 0.1268,0.037 0.0412,0.012 0.0826,0.0238 0.1252,0.0362 0.1208,0.04 0.1208,0.04 0.2152,0.0944 0.1316,0.0554 0.1928,0.0386 0.3274,-0.0076 0.1298,-0.0868 0.253,-0.1776 0.3754,-0.2742 0.1304,-0.0968 0.2348,-0.1478 0.394,-0.1812 0.2482,0.0494 0.3684,0.1856 0.5432,0.3616 0.04,0.039 0.08,0.0778 0.1212,0.1178 0.1316,0.1288 0.2616,0.2588 0.3914,0.389 0.0454,0.0452 0.0908,0.0904 0.136,0.1354 0.0638,0.064 0.0638,0.064 0.129,0.1292 0.0386,0.0388 0.0772,0.0774 0.117,0.1172 0.1048,0.112 0.1328,0.1626 0.1544,0.314 -0.028,0.2476 -0.1764,0.405 -0.324,0.599 -0.1348,0.1848 -0.1348,0.1848 -0.1596,0.4082 0.0424,0.1294 0.087,0.2548 0.1406,0.38 0.0908,0.2134 0.0908,0.2134 0.0908,0.3164 0.0418,0.0028 0.0418,0.0028 0.0844,0.0054 0.7148,0.0566 0.7148,0.0566 0.9766,0.2342 0.0992,0.1372 0.0774,0.2594 0.0728,0.4256 -0.0018,0.0894 -0.0018,0.0894 -0.0038,0.1806 -0.0016,0.0458 -0.0032,0.0916 -0.005,0.1386 0.5244,0.1064 1.1462,0.1818 1.6176,-0.1228 0.5916,-0.4562 1.089,-1.0434 1.57,-1.6116 -0.0144,-0.036 -0.0288,-0.0718 -0.0436,-0.109 -0.1854,-0.4636 -0.2448,-1.0254 -0.0766,-1.508 0.2164,-0.4426 0.5918,-0.7826 1.0446,-0.9658 0.4134,-0.1134 0.9308,-0.1022 1.3192,0.0864 0.4114,0.2422 0.7136,0.548 0.897,0.9964 0,0.062 0,0.1238 0,0.1876 0.99,0 1.98,0 3,0 0.0154,-0.0928 0.031,-0.1856 0.0468,-0.2812 0.2084,-0.4664 0.5564,-0.7988 1.0314,-0.9844 0.3906,-0.1318 0.9762,-0.1064 1.3464,0.0722 0.4282,0.2746 0.7804,0.6436 0.9036,1.1466 0.1064,0.5108 0.003,1.017 -0.2814,1.453 -0.2404,0.316 -0.6346,0.5894 -1.0312,0.6562 -0.595,0.0432 -1.077,-0.0308 -1.5464,-0.422 -0.2142,-0.2128 -0.3722,-0.4638 -0.4692,-0.7498 0,-0.0618 0,-0.1238 0,-0.1874 -0.9746,0.0154 -1.949,0.0308 -2.9532,0.0468 -0.0772,0.1856 -0.1546,0.3712 -0.2344,0.5624 -0.278,0.3808 -0.6474,0.667 -1.125,0.75 -0.3882,0.028 -0.7226,0.0302 -1.0756,-0.151 -0.1196,-0.0452 -0.1642,-0.0316 -0.2836,0.0104 -0.0806,0.0604 -0.0806,0.0604 -0.1548,0.1388 -0.029,0.029 -0.0582,0.0582 -0.088,0.0882 -0.0308,0.0314 -0.0618,0.063 -0.0934,0.0956 -0.032,0.0322 -0.064,0.0642 -0.097,0.0974 -0.102,0.103 -0.2036,0.2062 -0.3052,0.3096 -0.069,0.0698 -0.1382,0.1396 -0.2074,0.2094 -0.1696,0.171 -0.3386,0.3424 -0.5074,0.5142 0.0616,0.1362 0.1276,0.2328 0.2334,0.3378 0.0282,0.0282 0.0564,0.0564 0.0854,0.0854 0.0302,0.0298 0.0606,0.0596 0.0918,0.0902 0.031,0.031 0.062,0.062 0.094,0.0938 0.0992,0.0986 0.1986,0.1968 0.2982,0.2952 0.0672,0.0668 0.1346,0.1338 0.2018,0.2006 0.165,0.1638 0.33,0.3274 0.4954,0.4908 0.0286,-0.0098 0.0572,-0.0194 0.0868,-0.0294 0.0378,-0.0128 0.0754,-0.0256 0.1144,-0.0386 0.0372,-0.0126 0.0746,-0.0252 0.1132,-0.0382 0.5142,-0.1646 0.9836,-0.1562 1.4756,0.0652 0.4036,0.2196 0.6814,0.544 0.835,0.9784 0,0.062 0,0.1238 0,0.1876 0.99,0 1.98,0 3,0 0.0154,-0.0928 0.031,-0.1856 0.0468,-0.2814 0.1882,-0.4286 0.504,-0.7694 0.9346,-0.958 0.4986,-0.173 0.9838,-0.1448 1.4648,0.0734 0.407,0.2216 0.678,0.5434 0.835,0.9784 0.1272,0.4488 0.1146,0.8912 -0.0762,1.3214 -0.2654,0.466 -0.6306,0.7452 -1.1402,0.9116 -0.4954,0.0878 -0.9554,0.0204 -1.3836,-0.2412 -0.3244,-0.2324 -0.5528,-0.5348 -0.6812,-0.9136 0,-0.062 0,-0.1238 0,-0.1876 -0.99,0 -1.98,0 -3,0 -0.0154,0.1084 -0.031,0.2166 -0.0468,0.3282 -0.197,0.458 -0.525,0.7618 -0.9808,0.9504 -0.4366,0.1526 -0.9166,0.131 -1.3414,-0.0478 C 50.7126,38.0722 50.3812,37.7514 50.206,37.3282 50.079,36.876 50.087,36.336 50.312,35.921 50.3552,35.828 50.3552,35.828 50.3072,35.739 49.9496,35.1238 49.1298,34.17 48.434,33.9676 48.0124,33.8818 47.5762,33.9216 47.1562,34 c 0.0042,0.0728 0.0042,0.0728 0.0084,0.1472 0.0022,0.0642 0.0042,0.1284 0.0064,0.1926 0.0028,0.048 0.0028,0.048 0.0058,0.097 0.0044,0.176 -0.0048,0.2496 -0.1272,0.3798 -0.1104,0.064 -0.1858,0.1024 -0.3098,0.123 -0.0486,0.0088 -0.0486,0.0088 -0.0982,0.0174 -0.0332,0.0052 -0.0664,0.0104 -0.1006,0.0156 -0.0336,0.006 -0.067,0.0118 -0.1016,0.0178 -0.1376,0.0234 -0.2682,0.0408 -0.4082,0.0408 -0.009,0.0278 -0.018,0.0556 -0.0274,0.084 -0.0122,0.0372 -0.0244,0.0742 -0.037,0.1124 -0.0126,0.0386 -0.0254,0.0772 -0.0384,0.117 -0.0378,0.1086 -0.0378,0.1086 -0.0964,0.2374 -0.046,0.1384 -0.0304,0.1994 0.0118,0.3398 0.0884,0.1392 0.1804,0.273 0.2782,0.4056 0.107,0.1548 0.1434,0.2288 0.145,0.4226 -0.053,0.172 -0.1064,0.2446 -0.2386,0.3642 -0.0344,0.0318 -0.0688,0.0638 -0.1042,0.0966 -0.0266,0.0232 -0.0532,0.0464 -0.0804,0.0704 0.0386,0.043 0.0772,0.086 0.1172,0.1302 0.1234,0.1436 0.231,0.2928 0.3368,0.4496 0.224,0.3278 0.4654,0.6368 0.7236,0.9378 0.0352,0.041 0.0352,0.041 0.0712,0.0828 0.6856,0.7852 1.3666,1.1566 2.4144,1.228 1.215,0.0634 2.4382,-0.0052 3.6492,-0.1096 0.007,-0.0442 0.0138,-0.0884 0.0208,-0.134 0.0684,-0.3862 0.3308,-0.7082 0.6356,-0.9442 0.4996,-0.2824 0.9702,-0.3602 1.5262,-0.208 0.482,0.1626 0.8136,0.4618 1.0518,0.9112 0.1786,0.4496 0.1996,0.9454 0.0146,1.3974 -0.224,0.436 -0.5234,0.7648 -0.9866,0.9512 -0.4978,0.1506 -0.972,0.1338 -1.4366,-0.1106 -0.3952,-0.2458 -0.6836,-0.5716 -0.8258,-1.0192 0,-0.0464 0,-0.0928 0,-0.1406 -1.4694,0 -2.939,0 -4.453,0 -0.3832,2.824 -0.3832,2.824 0.6214,5.3662 0.2932,0.3348 0.6072,0.6428 0.9372,0.9414 0.0358,0.0326 0.0718,0.0652 0.1088,0.099 0.3616,0.3268 0.7328,0.642 1.1208,0.9372 0.0412,0.0324 0.0412,0.0324 0.0834,0.0654 0.1222,0.09 0.1946,0.139 0.3486,0.1314 0.0894,-0.0338 0.1768,-0.0732 0.2632,-0.114 0.3666,-0.1404 0.8622,-0.1262 1.2274,0.0088 0.4708,0.2248 0.808,0.565 1.0078,1.0488 0.1326,0.3898 0.1062,0.9772 -0.0722,1.3466 -0.2962,0.4622 -0.6584,0.7752 -1.1934,0.9034 -0.5806,0.051 -1.0466,-0.017 -1.5088,-0.3896 -0.3498,-0.3256 -0.5552,-0.7194 -0.5758,-1.1996 -0.0042,-0.309 0.0288,-0.5692 0.1732,-0.8474 0.0456,-0.1182 0.0306,-0.1638 -0.0104,-0.282 -0.0548,-0.0752 -0.0548,-0.0752 -0.1264,-0.143 -0.0268,-0.027 -0.0536,-0.0538 -0.0812,-0.0816 -0.0296,-0.029 -0.0592,-0.058 -0.0896,-0.0878 -0.031,-0.031 -0.062,-0.062 -0.094,-0.0938 -0.1026,-0.1024 -0.2058,-0.2042 -0.309,-0.3062 -0.0714,-0.0708 -0.1426,-0.1418 -0.2138,-0.2128 -0.1878,-0.187 -0.3758,-0.3734 -0.5642,-0.5598 C 49.455,46.9352 49.1542,46.636 48.8534,46.3366 48.748,46.232 48.6426,46.1276 48.537,46.023 48.4726,45.9592 48.4084,45.8954 48.344,45.8316 48.3146,45.8024 48.285,45.7732 48.2544,45.7432 48.0522,45.5418 48.0522,45.5418 48,45.4374 c 0.008,-0.1422 0.019,-0.2832 0.032,-0.425 0.342,-2.8156 0.342,-2.8156 -0.5804,-5.3576 -0.2514,-0.2928 -0.5222,-0.5568 -0.8138,-0.809 -0.0472,-0.0408 -0.0472,-0.0408 -0.095,-0.0824 -0.3876,-0.3318 -0.7902,-0.6368 -1.2146,-0.9196 -0.0528,0.0448 -0.1056,0.0898 -0.1582,0.1348 -0.0294,0.0252 -0.0588,0.0502 -0.089,0.076 -0.0598,0.052 -0.1178,0.106 -0.1748,0.1612 -0.1504,0.08 -0.2584,0.0396 -0.4218,0.003 -0.148,-0.0784 -0.28,-0.179 -0.4142,-0.2784 -0.1378,-0.096 -0.219,-0.1442 -0.389,-0.139 -0.1246,0.0392 -0.2394,0.0824 -0.357,0.139 -0.19,0.0908 -0.19,0.0908 -0.293,0.0908 -0.005,0.0392 -0.0102,0.0782 -0.0154,0.1186 -0.114,0.8076 -0.114,0.8076 -0.3126,1.0064 -0.121,0.0068 -0.2368,0.0088 -0.3574,0.006 -0.0332,-6e-4 -0.0664,-10e-4 -0.1004,-0.0014 C 42.1636,39.1598 42.0818,39.158 42,39.1562 c -0.0862,0.5038 -0.1652,1.1348 0.1038,1.5982 0.1738,0.2416 0.3846,0.4454 0.6022,0.647 0.0494,0.0458 0.0494,0.0458 0.0998,0.0928 0.2774,0.2556 0.563,0.5012 0.85,0.7462 0.2484,0.2126 0.493,0.4286 0.732,0.6522 0.0326,0.0304 0.0652,0.0608 0.0988,0.0922 0.4298,0.4116 0.6524,0.7576 0.6792,1.361 0.002,0.3202 -0.0234,0.6346 -0.072,0.951 0.038,0.015 0.0758,0.03 0.115,0.0454 0.0502,0.0204 0.1002,0.0406 0.152,0.0614 0.0742,0.0298 0.0742,0.0298 0.1502,0.06 0.4476,0.2082 0.6694,0.5578 0.8484,1.0052 0.1302,0.3988 0.078,0.8634 -0.0816,1.2438 -0.2264,0.4434 -0.576,0.7546 -1.045,0.9266 -0.4628,0.1086 -0.988,0.085 -1.4046,-0.1548 -0.4174,-0.3052 -0.7304,-0.674 -0.816,-1.1936 -0.061,-0.494 0.0298,-0.9172 0.3004,-1.3376 0.2258,-0.2874 0.498,-0.4872 0.8436,-0.6094 0.062,0 0.1238,0 0.1876,0 0.0776,-0.5144 0.145,-1.1316 -0.1552,-1.5886 -0.3096,-0.416 -0.7064,-0.7636 -1.09,-1.1094 -0.1578,-0.1436 -0.3116,-0.2912 -0.4656,-0.4386 -0.3012,-0.2868 -0.6062,-0.5686 -0.9142,-0.8478 -0.1348,0.0612 -0.233,0.127 -0.3386,0.2304 -0.0284,0.0276 -0.0566,0.0552 -0.0858,0.0836 -0.03,0.0296 -0.0598,0.0594 -0.0908,0.09 -0.0464,0.0458 -0.0464,0.0458 -0.094,0.0928 -0.0654,0.0646 -0.1308,0.1296 -0.1958,0.1946 -0.1002,0.0994 -0.2012,0.1982 -0.3022,0.2968 -0.0634,0.063 -0.1268,0.126 -0.1902,0.1892 -0.0304,0.0294 -0.0608,0.059 -0.0922,0.0894 -0.0274,0.0278 -0.055,0.0556 -0.0834,0.0842 -0.0246,0.0244 -0.049,0.0486 -0.0742,0.0736 -0.0572,0.0748 -0.0572,0.0748 -0.033,0.173 0.0218,0.059 0.0448,0.1176 0.0686,0.1758 0.1696,0.4154 0.1702,0.8932 0.0292,1.3174 -0.191,0.45 -0.4976,0.7762 -0.9434,0.9814 -0.1524,0.0528 -0.1524,0.0528 -0.3398,0.0528 0,0.99 0,1.98 0,3 0.1082,0.0154 0.2166,0.031 0.328,0.0468 0.4582,0.197 0.7618,0.525 0.9504,0.9808 0.1496,0.4278 0.1476,0.9422 -0.0478,1.3534 -0.2368,0.4162 -0.5778,0.7928 -1.0536,0.9266 -0.4648,0.0732 -0.9874,0.0948 -1.3958,-0.167 -0.3864,-0.2902 -0.668,-0.6078 -0.7968,-1.0782 -0.0506,-0.5954 0.0044,-1.076 0.389,-1.5554 0.2224,-0.2378 0.477,-0.399 0.7828,-0.507 0.0464,0 0.0928,0 0.1406,0 0,-0.99 0,-1.98 0,-3 -0.0928,-0.0154 -0.1856,-0.031 -0.2812,-0.047 -0.4664,-0.2082 -0.7988,-0.5562 -0.9844,-1.0312 -0.1318,-0.3906 -0.1064,-0.9764 0.0724,-1.3466 0.2806,-0.4378 0.641,-0.7648 1.1464,-0.9034 0.1312,-0.0112 0.2556,-0.0178 0.3866,-0.0176 0.0352,0 0.0702,-2e-4 0.1064,-4e-4 0.2548,0.0046 0.4532,0.051 0.6798,0.1736 0.0928,0.0434 0.0928,0.0434 0.1818,-0.0046 0.6154,-0.3576 1.569,-1.1774 1.7714,-1.8732 0.086,-0.4218 0.0462,-0.8578 -0.0324,-1.2778 -0.0678,0.0042 -0.0678,0.0042 -0.1368,0.0082 -0.0592,0.0022 -0.1186,0.0044 -0.1796,0.0064 -0.0586,0.0028 -0.1174,0.0056 -0.1778,0.0084 -0.162,-0.023 -0.162,-0.023 -0.2738,-0.1312 -0.0904,-0.1508 -0.1242,-0.2818 -0.1576,-0.4542 -0.0114,-0.0562 -0.0228,-0.1122 -0.0346,-0.17 -0.0204,-0.1346 -0.0292,-0.2568 -0.024,-0.3926 -0.0278,-0.009 -0.0556,-0.018 -0.0842,-0.0274 -0.037,-0.0122 -0.074,-0.0244 -0.1122,-0.037 -0.0386,-0.0126 -0.0772,-0.0254 -0.117,-0.0384 -0.1086,-0.0378 -0.1086,-0.0378 -0.2374,-0.0964 -0.1384,-0.046 -0.1994,-0.03 -0.34,0.0118 -0.1404,0.087 -0.2752,0.1782 -0.4096,0.2742 -0.1256,0.0854 -0.2364,0.1452 -0.3844,0.1812 -0.2278,-0.0534 -0.3552,-0.2 -0.5184,-0.3618 -0.04,-0.0388 -0.0802,-0.0776 -0.1214,-0.1178 -0.1314,-0.1286 -0.2616,-0.2586 -0.3914,-0.389 -0.0452,-0.045 -0.0906,-0.0902 -0.1358,-0.1354 -0.0426,-0.0426 -0.0852,-0.0852 -0.129,-0.1292 -0.0386,-0.0386 -0.0772,-0.0772 -0.117,-0.117 -0.1168,-0.1248 -0.1346,-0.1688 -0.151,-0.3412 0.017,-0.2088 0.0746,-0.301 0.196,-0.4696 0.0506,-0.0714 0.0506,-0.0714 0.1022,-0.1442 0.03,-0.0414 0.0602,-0.0826 0.0912,-0.1252 0.107,-0.1282 0.107,-0.1282 0.0822,-0.2514 -0.0364,-0.1268 -0.0808,-0.2454 -0.132,-0.3668 -0.0908,-0.2156 -0.0908,-0.2156 -0.0908,-0.3194 -0.087,-0.0072 -0.087,-0.0072 -0.1758,-0.0146 -0.688,-0.0776 -0.688,-0.0776 -0.8926,-0.2392 -0.1376,-0.1802 -0.112,-0.393 -0.113,-0.6084 -4e-4,-0.0386 -6e-4,-0.0774 -8e-4,-0.1172 -6e-4,-0.0818 -8e-4,-0.1636 -0.001,-0.2454 -4e-4,-0.1248 -0.002,-0.2494 -0.0034,-0.3742 -4e-4,-0.0796 -6e-4,-0.1592 -8e-4,-0.2388 -6e-4,-0.037 -10e-4,-0.0742 -0.0016,-0.1124 8e-4,-0.2274 0.0302,-0.3846 0.1576,-0.581 0.1204,-0.0566 0.1204,-0.0566 0.2608,-0.085 0.0496,-0.0102 0.0992,-0.0206 0.1504,-0.031 0.2062,-0.0336 0.4116,-0.0582 0.6202,-0.0716 0.0056,-0.0338 0.0112,-0.0676 0.017,-0.1024 0.0392,-0.173 0.1122,-0.3232 0.187,-0.4834 0.04,-0.1548 0.0116,-0.2118 -0.0634,-0.3516 -0.0958,-0.141 -0.1956,-0.2782 -0.2964,-0.4156 -0.0982,-0.1832 -0.1172,-0.27 -0.0786,-0.475 0.0922,-0.142 0.2082,-0.256 0.328,-0.375 0.039,-0.04 0.0778,-0.08 0.118,-0.1212 0.1286,-0.1316 0.2586,-0.2616 0.389,-0.3916 0.045,-0.0452 0.0902,-0.0906 0.1354,-0.1358 0.0426,-0.0426 0.0852,-0.0852 0.129,-0.129 0.0388,-0.0386 0.0774,-0.0772 0.1172,-0.117 0.1224,-0.1148 0.1698,-0.1342 0.338,-0.1548 0.2346,0.0236 0.3422,0.1188 0.5224,0.2612 0.2298,0.1734 0.2298,0.1734 0.5036,0.2288 0.1198,-0.0372 0.2178,-0.0804 0.3256,-0.1438 0.1284,-0.0702 0.178,-0.0938 0.3282,-0.0938 0.0016,-0.0272 0.0034,-0.0546 0.0052,-0.0826 0.0258,-0.321 0.07,-0.6454 0.1822,-0.9486 0.145,-0.0966 0.1784,-0.1058 0.343,-0.108 z"
                 fill="#000000"
                 id="path41" /><path
                 d="m 41.0624,28.8438 c 0.4022,0 0.8044,0 1.2188,0 0.0586,0.3866 0.0586,0.3866 0.0758,0.5076 0.0052,0.0318 0.0104,0.0638 0.0158,0.0966 0.005,0.0324 0.0098,0.0648 0.0148,0.0982 0.0622,0.1714 0.1816,0.2592 0.3368,0.347 0.138,0.0622 0.2764,0.1236 0.4152,0.184 0.0478,0.0218 0.0958,0.0438 0.145,0.0664 0.3546,0.1566 0.3546,0.1566 0.731,0.1064 0.1506,-0.0862 0.1506,-0.0862 0.29,-0.1934 0.248,-0.184 0.248,-0.184 0.3636,-0.1728 0.118,0.0466 0.1802,0.1058 0.2686,0.1964 0.031,0.0316 0.0622,0.0632 0.0942,0.0958 0.048,0.0496 0.048,0.0496 0.097,0.1004 0.049,0.05 0.049,0.05 0.099,0.101 0.0806,0.0822 0.1608,0.1648 0.2408,0.2476 -0.0824,0.2322 -0.2138,0.411 -0.358,0.6088 -0.1242,0.2744 -0.0228,0.5154 0.0752,0.7838 0.039,0.0956 0.0786,0.191 0.1186,0.2862 0.028,0.0728 0.028,0.0728 0.0564,0.147 0.1026,0.253 0.1026,0.253 0.2936,0.438 0.264,0.094 0.5768,0.1248 0.8454,0.1736 0,0.4022 0,0.8044 0,1.2188 -0.3838,0.0558 -0.3838,0.0558 -0.5034,0.0714 -0.2456,0.0396 -0.3754,0.0956 -0.5278,0.3036 -0.086,0.167 -0.1566,0.3382 -0.2256,0.5128 -0.019,0.0458 -0.0382,0.0914 -0.0578,0.1386 -0.1372,0.3208 -0.1372,0.3208 -0.1386,0.6612 0.067,0.1128 0.1316,0.2106 0.211,0.3134 0.211,0.279 0.211,0.279 0.211,0.4366 -0.0672,0.0706 -0.0672,0.0706 -0.1612,0.1464 -0.2254,0.1884 -0.4302,0.3938 -0.6358,0.6036 -0.232,-0.0824 -0.4108,-0.2138 -0.6088,-0.358 -0.229,-0.1038 -0.4096,-0.0546 -0.6368,0.0254 -0.1312,0.0524 -0.2602,0.1082 -0.389,0.1656 -0.0446,0.019 -0.089,0.0382 -0.1348,0.058 -0.2352,0.0968 -0.2352,0.0968 -0.4336,0.2496 -0.0302,0.0948 -0.0302,0.0948 -0.0502,0.204 -0.011,0.0538 -0.011,0.0538 -0.0224,0.1088 -0.009,0.0456 -0.0178,0.0914 -0.027,0.1384 -0.029,0.145 -0.058,0.29 -0.088,0.4394 -0.4022,0 -0.8044,0 -1.2188,0 -0.0174,-0.1402 -0.0348,-0.2804 -0.0526,-0.4248 -0.0438,-0.248 -0.0812,-0.4174 -0.272,-0.5898 -0.143,-0.0704 -0.2788,-0.1272 -0.4302,-0.175 -0.142,-0.0466 -0.277,-0.1104 -0.414,-0.1698 -0.226,-0.0932 -0.3738,-0.1064 -0.6124,-0.0468 -0.157,0.084 -0.157,0.084 -0.3018,0.1904 -0.0492,0.0344 -0.0984,0.0688 -0.1492,0.1042 -0.0368,0.0264 -0.0736,0.053 -0.1114,0.0804 C 38.502,37.3706 38.3564,37.2208 38.1884,37.0556 38.1576,37.0268 38.1268,36.9978 38.095,36.968 37.8774,36.754 37.8774,36.754 37.8668,36.5978 37.961,36.404 38.0918,36.24 38.221,36.0688 38.3206,35.876 38.3056,35.8032 38.25,35.5938 38.1874,35.4066 38.115,35.225 38.039,35.043 38.0204,34.9942 38.0018,34.9454 37.9826,34.8952 37.8804,34.641 37.8804,34.641 37.6892,34.4548 37.4252,34.361 37.112,34.33 36.8438,34.2812 c 0,-0.4022 0,-0.8044 0,-1.2188 0.413,-0.0848 0.413,-0.0848 0.5426,-0.1106 0.034,-0.0074 0.0678,-0.0146 0.1028,-0.022 0.052,-0.0108 0.052,-0.0108 0.1048,-0.0216 0.1588,-0.0564 0.2176,-0.1414 0.2932,-0.2894 0.0618,-0.1468 0.1234,-0.2938 0.184,-0.441 0.0218,-0.0512 0.0436,-0.1022 0.066,-0.1548 0.0204,-0.0494 0.041,-0.0988 0.062,-0.1496 0.0188,-0.045 0.0376,-0.09 0.0568,-0.1364 0.0422,-0.1318 0.0558,-0.2248 0.0408,-0.362 -0.0856,-0.1364 -0.1774,-0.2608 -0.276,-0.3878 -0.1478,-0.199 -0.1478,-0.199 -0.1374,-0.3134 0.0762,-0.1898 0.2386,-0.3198 0.3812,-0.4618 0.0318,-0.0332 0.0636,-0.0662 0.0962,-0.1004 0.0464,-0.0464 0.0464,-0.0464 0.0938,-0.094 0.0422,-0.0428 0.0422,-0.0428 0.0854,-0.0864 0.085,-0.0562 0.085,-0.0562 0.1812,-0.0472 0.1874,0.0778 0.3438,0.2164 0.5054,0.337 0.2292,0.117 0.373,0.0606 0.6056,-0.0104 0.1504,-0.05 0.2974,-0.1056 0.4452,-0.1628 0.0764,-0.026 0.0764,-0.026 0.1544,-0.0528 0.2832,-0.1084 0.2832,-0.1084 0.4586,-0.3428 0.0364,-0.1446 0.0582,-0.2858 0.0784,-0.4334 0.0308,-0.1238 0.0618,-0.2476 0.0936,-0.375 z"
                 fill="#8e9acf"
                 id="path42" /><path
                 d="m 43.0168,31.765 c 0.4998,0.3636 0.814,0.8638 0.9318,1.4708 0.0916,0.7042 -0.0548,1.2978 -0.4602,1.8798 C 43.111,35.589 42.593,35.866 42,35.9688 41.3554,36.0274 40.7514,35.901 40.2392,35.4996 39.7916,35.1172 39.422,34.6008 39.366,33.996 c -0.0268,-0.7402 0.0654,-1.2832 0.5412,-1.8806 0.8356,-0.8824 2.0916,-1.0052 3.1096,-0.3504 z"
                 fill="#f2f2fe"
                 id="path43" /><path
                 d="m 50.8476,42.5928 c 0.4134,0.0874 0.7362,0.5812 1.0114,0.8822 0.2314,0.253 0.4674,0.5012 0.7038,0.7494 0.1782,0.1876 0.3546,0.3764 0.5276,0.5688 0.8734,1.0214 0.8734,1.0214 2.0862,1.4662 0.3764,0.0162 0.7486,-0.0138 1.1202,-0.072 0.0068,-0.0438 0.0134,-0.0878 0.0202,-0.1332 0.0726,-0.402 0.3596,-0.7138 0.683,-0.9448 0.3734,-0.254 0.836,-0.314 1.2774,-0.255 0.4636,0.096 0.8794,0.3638 1.1484,0.756 0.253,0.4384 0.3198,0.9358 0.1934,1.4238 -0.1628,0.4826 -0.4918,0.8586 -0.9434,1.0928 -0.4022,0.191 -0.9182,0.1878 -1.3388,0.0556 -0.4782,-0.2016 -0.7936,-0.5898 -1.0078,-1.0488 -0.0324,-0.1026 -0.0324,-0.1026 -0.0324,-0.2432 -0.059,0.0018 -0.1182,0.0034 -0.179,0.0052 -0.2204,0.006 -0.441,0.0098 -0.6614,0.0128 -0.0954,0.0016 -0.1906,0.004 -0.2856,0.0068 -0.1374,0.004 -0.2746,0.0058 -0.412,0.0072 -0.0422,0.0018 -0.0844,0.0034 -0.1278,0.0052 -0.2278,2e-4 -0.3602,-0.025 -0.5298,-0.1822 -0.0324,-0.0298 -0.0646,-0.0596 -0.098,-0.0904 -0.032,-0.0306 -0.064,-0.0612 -0.097,-0.0928 -0.0286,-0.0272 -0.0572,-0.0546 -0.0866,-0.083 -0.0878,-0.0852 -0.1744,-0.1716 -0.2606,-0.2582 -0.0326,-0.0324 -0.065,-0.0646 -0.0984,-0.098 -0.1058,-0.1058 -0.2116,-0.2116 -0.3174,-0.3174 -0.074,-0.074 -0.1478,-0.148 -0.2218,-0.2218 -0.1544,-0.1542 -0.3086,-0.3086 -0.4628,-0.463 -0.198,-0.1982 -0.396,-0.3962 -0.5942,-0.5942 -0.1526,-0.1522 -0.3048,-0.3046 -0.4572,-0.457 -0.073,-0.0732 -0.146,-0.1462 -0.2192,-0.2192 -0.1018,-0.1016 -0.2034,-0.2034 -0.305,-0.3052 -0.0304,-0.0304 -0.0608,-0.0606 -0.092,-0.0918 -0.2544,-0.2556 -0.2544,-0.2556 -0.2744,-0.4712 0.0146,-0.17 0.0146,-0.17 0.0908,-0.2842 0.1114,-0.0732 0.1114,-0.0732 0.2402,-0.1054 z"
                 fill="#000000"
                 id="path44" /><path
                 d="m 42.7968,30.9062 c 0.0614,0.0256 0.0614,0.0256 0.124,0.0516 0.798,0.3616 1.2882,1.0278 1.6184,1.813 0.2458,0.7492 0.0822,1.6122 -0.2424,2.3074 -0.0986,0.1656 -0.2088,0.3172 -0.328,0.4686 -0.0206,0.0288 -0.041,0.0574 -0.0622,0.087 -0.3846,0.5048 -1.0856,0.8862 -1.7062,0.9778 -0.893,0.0778 -1.694,-0.035 -2.4146,-0.6216 -0.5506,-0.473 -0.9448,-1.078 -1.067,-1.8024 -0.039,-0.5682 -0.0714,-1.1674 0.1874,-1.6876 0.02,-0.0434 0.0398,-0.0866 0.0604,-0.1312 0.1646,-0.3318 0.3826,-0.5916 0.6428,-0.8532 0.0278,-0.0294 0.0554,-0.0586 0.084,-0.089 0.7832,-0.764 2.1158,-0.96 3.1034,-0.5204 z M 39.862,32.176 c -0.4522,0.6006 -0.5598,1.1784 -0.487,1.9178 0.116,0.6012 0.4592,1.1322 0.9572,1.487 0.5582,0.3522 1.182,0.4762 1.8352,0.3576 0.6402,-0.1646 1.1588,-0.504 1.5012,-1.08 0.0578,-0.113 0.1106,-0.2258 0.1596,-0.3428 0.0164,-0.0374 0.033,-0.0748 0.05,-0.1134 0.201,-0.556 0.1246,-1.2422 -0.1192,-1.771 C 43.4232,32.021 42.9316,31.6124 42.2624,31.4078 41.3608,31.2326 40.461,31.435 39.862,32.176 Z"
                 fill="#030304"
                 id="path45" /><path
                 d="m 44.1446,39.3116 c 0.3858,0.0816 0.7128,0.5388 0.9826,0.8094 0.063,0.063 0.063,0.063 0.1274,0.1272 0.088,0.088 0.1762,0.1762 0.2642,0.2644 0.1128,0.113 0.2258,0.226 0.3388,0.3388 0.1082,0.108 0.2162,0.2162 0.3244,0.3244 0.0406,0.0404 0.0812,0.081 0.123,0.1228 0.0374,0.0374 0.0746,0.0748 0.113,0.1132 0.0328,0.033 0.0658,0.066 0.0996,0.1 0.1388,0.1496 0.1296,0.259 0.1314,0.4588 8e-4,0.0892 8e-4,0.0892 0.0018,0.1802 4e-4,0.0652 6e-4,0.1304 0.001,0.1956 2e-4,0.0326 4e-4,0.0654 6e-4,0.0992 10e-4,0.1734 0.0016,0.347 0.002,0.5204 6e-4,0.1792 0.0022,0.3584 0.004,0.5376 0.0012,0.1376 0.0016,0.2754 0.0018,0.4132 2e-4,0.066 8e-4,0.1322 0.0016,0.1982 0.0012,0.0924 10e-4,0.1848 8e-4,0.2774 4e-4,0.0526 6e-4,0.1052 8e-4,0.1592 -0.028,0.1668 -0.079,0.2204 -0.2102,0.3234 -0.1144,0.044 -0.1144,0.044 -0.2344,0.0468 -0.2156,-0.1028 -0.2156,-0.1028 -0.2812,-0.2342 0.0046,-0.0764 0.0126,-0.1526 0.0222,-0.2284 0.1956,-1.5148 0.1956,-1.5148 -0.3274,-2.8924 -0.4776,-0.5868 -1.0788,-1.0844 -1.6756,-1.5442 -0.1238,-0.105 -0.128,-0.1566 -0.1434,-0.3214 0.0148,-0.17 0.0148,-0.17 0.0908,-0.2842 0.1114,-0.0732 0.1114,-0.0732 0.2404,-0.1054 z"
                 fill="#000000"
                 id="path46" /><path
                 d="m 41.6484,43.5362 c 0.164,0.0262 0.164,0.0262 0.2666,0.0936 0.1292,0.1826 0.1108,0.351 0.1086,0.5696 2e-4,0.0454 4e-4,0.091 6e-4,0.1378 6e-4,0.1506 -2e-4,0.301 -10e-4,0.4516 0,0.1044 2e-4,0.209 2e-4,0.3134 2e-4,0.219 -4e-4,0.438 -0.0016,0.657 -0.0012,0.281 -0.0012,0.562 -6e-4,0.843 4e-4,0.2156 0,0.4314 -6e-4,0.6472 -2e-4,0.1036 -2e-4,0.2072 0,0.3108 2e-4,0.1448 -6e-4,0.2894 -0.0016,0.434 2e-4,0.043 4e-4,0.086 6e-4,0.1304 -4e-4,0.0394 -10e-4,0.0788 -0.0014,0.1192 -2e-4,0.0342 -2e-4,0.0684 -4e-4,0.1038 -0.023,0.1164 -0.0666,0.1574 -0.1584,0.2306 -0.14,0.0478 -0.2166,0.0514 -0.3604,0.0146 -0.1274,-0.0724 -0.1486,-0.1154 -0.2022,-0.249 -0.012,-0.0934 -0.012,-0.0934 -0.0124,-0.1936 -4e-4,-0.0382 -8e-4,-0.0764 -0.0012,-0.1158 0,-0.0414 0,-0.0828 0,-0.1256 -2e-4,-0.044 -6e-4,-0.088 -10e-4,-0.1334 -8e-4,-0.1454 -0.001,-0.2908 -0.001,-0.4364 -4e-4,-0.101 -8e-4,-0.2022 -10e-4,-0.3032 -6e-4,-0.212 -8e-4,-0.424 -8e-4,-0.636 0,-0.2716 -0.0012,-0.5432 -0.0028,-0.8148 -0.001,-0.209 -0.0012,-0.4178 -0.0012,-0.6266 0,-0.1002 -6e-4,-0.2002 -0.0012,-0.3004 -10e-4,-0.14 -6e-4,-0.28 -2e-4,-0.4202 -4e-4,-0.0412 -10e-4,-0.0826 -0.0016,-0.1252 0.002,-0.1902 0.0104,-0.2922 0.1094,-0.4588 0.1026,-0.0914 0.1026,-0.0914 0.2666,-0.1176 z"
                 fill="#000000"
                 id="path47" /><path
                 d="m 58.7218,29.7482 c 0.2062,0.1548 0.321,0.3686 0.4344,0.5956 0.0344,0.3336 0.0192,0.6176 -0.1874,0.8906 -0.2508,0.265 -0.466,0.4208 -0.835,0.4394 -0.2842,-0.0072 -0.4872,-0.0878 -0.699,-0.2774 -0.2188,-0.235 -0.342,-0.4964 -0.3616,-0.8182 0.0154,-0.3156 0.164,-0.5356 0.3926,-0.7442 0.394,-0.3174 0.8122,-0.329 1.256,-0.0858 z"
                 fill="#f8d734"
                 id="path48" /><path
                 d="m 52.2774,29.664 c 0.2474,0.1432 0.4248,0.3616 0.5712,0.6036 0.0744,0.3472 0.0526,0.6176 -0.1386,0.9212 -0.2078,0.277 -0.4794,0.4282 -0.8198,0.4824 -0.2526,0.015 -0.451,-0.0556 -0.6558,-0.2024 -0.2624,-0.247 -0.4322,-0.4832 -0.4454,-0.8526 0.0074,-0.3034 0.106,-0.5138 0.3048,-0.7412 0.3464,-0.3028 0.7528,-0.3956 1.1836,-0.211 z"
                 fill="#4caef8"
                 id="path49" /><path
                 d="m 39.2344,49.2812 c 0.2246,0.1982 0.4002,0.4114 0.4334,0.7146 0.0144,0.2876 -0.0262,0.5054 -0.199,0.7386 -0.26,0.2804 -0.4952,0.4172 -0.879,0.4452 -0.2876,-0.0068 -0.4972,-0.1214 -0.7148,-0.3046 -0.2194,-0.267 -0.2994,-0.518 -0.2938,-0.8614 0.0302,-0.2944 0.1704,-0.4832 0.3846,-0.6796 0.404,-0.3266 0.8262,-0.311 1.2686,-0.0528 z"
                 fill="#f9d834"
                 id="path50" /><path
                 d="m 39.0586,42.8828 c 0.2474,0.143 0.4248,0.3616 0.5712,0.6036 0.0744,0.3472 0.0526,0.6174 -0.1386,0.9212 -0.2078,0.2768 -0.4794,0.4282 -0.8196,0.4824 -0.2528,0.0148 -0.4512,-0.0558 -0.656,-0.2024 -0.2624,-0.247 -0.4322,-0.4832 -0.4452,-0.8526 0.0072,-0.3034 0.1058,-0.514 0.3046,-0.7412 0.3464,-0.303 0.7528,-0.3956 1.1836,-0.211 z"
                 fill="#4caef8"
                 id="path51" /><path
                 d="m 53.3022,48.8406 c 0.2216,0.1646 0.4512,0.3992 0.5104,0.675 0.035,0.321 0.0082,0.5802 -0.1876,0.8438 -0.2504,0.2652 -0.466,0.4208 -0.835,0.4394 -0.2942,-0.0078 -0.4968,-0.0904 -0.711,-0.2928 -0.2548,-0.2778 -0.3534,-0.4914 -0.3432,-0.8706 0.0404,-0.3386 0.2272,-0.5484 0.486,-0.7568 0.3212,-0.2342 0.737,-0.2338 1.0804,-0.038 z"
                 fill="#a5df03"
                 id="path52" /><path
                 d="m 45.1524,46.0264 c 0.3032,0.174 0.4912,0.4398 0.5976,0.7704 0.0386,0.293 -0.042,0.5442 -0.1876,0.797 -0.1978,0.2248 -0.4098,0.396 -0.7112,0.435 -0.3214,0.02 -0.5768,-0.0538 -0.8356,-0.2476 -0.2504,-0.29 -0.3516,-0.5562 -0.347,-0.938 0.0378,-0.2806 0.1792,-0.5096 0.3974,-0.6884 0.3338,-0.2154 0.711,-0.2976 1.0864,-0.1284 z"
                 fill="#fb526f"
                 id="path53" /><path
                 d="m 52.2774,35.7578 c 0.2482,0.1436 0.4296,0.363 0.5712,0.6094 0.0798,0.3546 0.0172,0.647 -0.161,0.961 -0.2074,0.2504 -0.4788,0.3864 -0.7972,0.4366 -0.2528,0.0154 -0.4512,-0.0556 -0.656,-0.2022 -0.2624,-0.247 -0.4322,-0.4832 -0.4454,-0.8526 0.0074,-0.3034 0.106,-0.514 0.3048,-0.7412 0.3464,-0.303 0.7528,-0.3956 1.1836,-0.211 z"
                 fill="#fb8546"
                 id="path54" /><path
                 d="m 58.498,45.6564 c 0.2056,0.134 0.3346,0.3036 0.4414,0.5224 0.0714,0.3638 0.0558,0.6508 -0.1254,0.9804 -0.1628,0.2174 -0.3872,0.3496 -0.6422,0.4346 -0.3402,0.0486 -0.6118,-0.0364 -0.8906,-0.2344 -0.291,-0.308 -0.3476,-0.5378 -0.3442,-0.9582 0.0292,-0.3014 0.1716,-0.4792 0.3912,-0.6766 0.3674,-0.2602 0.767,-0.27 1.1698,-0.0682 z"
                 fill="#64dbfc"
                 id="path55" /><path
                 d="m 55.2402,39.3862 c 0.2486,0.1484 0.4304,0.3398 0.5556,0.602 0.0688,0.3252 0.0752,0.6164 -0.0924,0.9108 -0.148,0.2012 -0.3456,0.3676 -0.5784,0.4604 -0.3452,0.0438 -0.6468,0.0304 -0.9434,-0.161 -0.2182,-0.1824 -0.3544,-0.3982 -0.3836,-0.6846 -0.0122,-0.3426 -8e-4,-0.5782 0.215,-0.8526 0.3194,-0.3288 0.7898,-0.4362 1.2272,-0.275 z"
                 fill="#a6e103"
                 id="path56" /><path
                 d="m 58.4874,35.7252 c 0.3444,0.1512 0.5046,0.3838 0.6688,0.7122 0.0344,0.3338 0.018,0.617 -0.1874,0.8908 -0.1924,0.2004 -0.3826,0.3594 -0.6644,0.3924 -0.3582,0.0066 -0.6118,-0.0038 -0.8826,-0.2518 -0.2164,-0.2164 -0.3312,-0.4918 -0.3486,-0.797 0.013,-0.2634 0.1162,-0.4666 0.2974,-0.6556 0.3456,-0.3114 0.6516,-0.428 1.1168,-0.291 z"
                 fill="#64dbfc"
                 id="path57" /><path
                 d="m 52.4498,33.3202 c 0.0422,-2e-4 0.0844,-4e-4 0.128,-8e-4 0.1396,-6e-4 0.2792,2e-4 0.4188,0.0012 0.097,0 0.194,-2e-4 0.291,-2e-4 0.2034,-2e-4 0.4066,4e-4 0.61,0.0014 0.2608,0.0014 0.5214,0.0012 0.7822,6e-4 0.2004,-2e-4 0.4006,2e-4 0.601,8e-4 0.0962,2e-4 0.1922,2e-4 0.2884,0 0.1344,-2e-4 0.2686,6e-4 0.403,0.0016 0.0596,-2e-4 0.0596,-2e-4 0.1206,-6e-4 0.1652,0.002 0.2698,0.004 0.4162,0.0854 0.0856,0.0926 0.0932,0.1376 0.0896,0.2622 -0.0062,0.1252 -0.0114,0.1748 -0.085,0.2784 -0.1834,0.12 -0.3554,0.1044 -0.5684,0.105 -0.0618,4e-4 -0.0618,4e-4 -0.125,10e-4 -0.1368,8e-4 -0.2736,0.0014 -0.4104,0.0018 -0.07,4e-4 -0.07,4e-4 -0.1416,6e-4 -0.247,0.001 -0.494,0.0016 -0.7412,0.0022 -0.2552,4e-4 -0.5106,0.002 -0.766,0.004 -0.1962,0.0012 -0.3924,0.0016 -0.5886,0.0018 -0.0942,2e-4 -0.1882,6e-4 -0.2824,0.0016 -0.1318,0.001 -0.2634,0.001 -0.3952,8e-4 -0.0584,8e-4 -0.0584,8e-4 -0.1178,0.0018 -0.1846,-0.0018 -0.2786,-0.0118 -0.4404,-0.1088 -0.0928,-0.1026 -0.0928,-0.1026 -0.1192,-0.2666 0.0264,-0.1642 0.0264,-0.1642 0.0956,-0.2666 0.1746,-0.1256 0.3266,-0.111 0.5368,-0.1086 z"
                 fill="#000000"
                 id="path58" /><path
                 d="m 47.5756,35.745 c 0.2154,0.0812 0.367,0.2694 0.525,0.4308 0.0598,0.0598 0.0598,0.0598 0.1208,0.1208 0.084,0.0842 0.1678,0.1688 0.2512,0.2538 0.1276,0.1298 0.2564,0.2584 0.3854,0.3868 0.0816,0.082 0.163,0.1642 0.2444,0.2464 0.0578,0.0576 0.0578,0.0576 0.1166,0.1164 0.334,0.3424 0.334,0.3424 0.3748,0.5906 -0.0454,0.1812 -0.0758,0.2224 -0.2344,0.3282 -0.126,0.0264 -0.126,0.0264 -0.2812,0 -0.0838,-0.0614 -0.0838,-0.0614 -0.1732,-0.1428 -0.033,-0.0298 -0.066,-0.0598 -0.1,-0.0904 -0.2746,-0.2558 -0.5436,-0.5168 -0.811,-0.78 -0.0744,-0.073 -0.1492,-0.1454 -0.2244,-0.2176 -0.1092,-0.1048 -0.217,-0.211 -0.3248,-0.3174 -0.0336,-0.0318 -0.0674,-0.0638 -0.102,-0.0966 -0.1536,-0.1542 -0.2536,-0.258 -0.2584,-0.4822 0.025,-0.17 0.025,-0.17 0.0894,-0.2608 0.1396,-0.0912 0.2338,-0.1138 0.4018,-0.086 z"
                 fill="#000000"
                 id="path59" /><path
                 d="m 55.0312,39.3438 c 0.2798,0.0628 0.4686,0.2116 0.6564,0.4218 0.1588,0.255 0.1816,0.5506 0.1406,0.8438 -0.0866,0.2902 -0.2644,0.492 -0.5158,0.6562 -0.161,0.0644 -0.161,0.0644 -0.2812,0.0938 0.0192,-0.0278 0.0384,-0.0554 0.0582,-0.084 0.0254,-0.0372 0.0506,-0.0742 0.0766,-0.1124 0.0376,-0.0546 0.0376,-0.0546 0.0758,-0.1104 0.2048,-0.3336 0.2034,-0.6724 0.1644,-1.0526 -0.0828,-0.2496 -0.2156,-0.4492 -0.375,-0.6562 z"
                 fill="#94ca00"
                 id="path60" /><path
                 d="m 58.2656,45.5782 c 0.2824,0.096 0.4422,0.2208 0.6094,0.4686 0.1344,0.2748 0.1442,0.5836 0.056,0.8746 -0.1358,0.311 -0.3228,0.467 -0.6186,0.6254 -0.0308,-0.0154 -0.0618,-0.0308 -0.0936,-0.0468 0.0198,-0.0282 0.0394,-0.0566 0.0598,-0.0856 0.0258,-0.0376 0.0514,-0.075 0.0778,-0.1136 0.0256,-0.037 0.0512,-0.074 0.0774,-0.112 0.1814,-0.3036 0.161,-0.7382 0.0866,-1.0742 -0.0606,-0.1678 -0.1432,-0.3048 -0.2548,-0.4428 0,-0.0308 0,-0.0618 0,-0.0936 z"
                 fill="#2dcaf6"
                 id="path61" /><path
                 d="m 38.9062,42.8594 c 0.3428,0.112 0.5384,0.3208 0.7236,0.627 0.0746,0.3472 0.0522,0.6168 -0.138,0.921 -0.1566,0.2072 -0.3358,0.34 -0.5856,0.4208 0.0468,-0.0942 0.094,-0.188 0.1424,-0.2814 0.0158,-0.0308 0.0318,-0.0618 0.048,-0.0936 0.016,-0.031 0.0322,-0.062 0.0486,-0.0938 0.1348,-0.2988 0.1522,-0.671 0.0402,-0.9782 C 39.1276,43.2668 39.0658,43.1568 39,43.0468 38.9682,42.9846 38.9368,42.9222 38.9062,42.8594 Z"
                 fill="#298df1"
                 id="path62" /><path
                 d="m 58.4532,35.7344 c 0.3686,0.1462 0.5278,0.3528 0.703,0.7032 0.0344,0.3338 0.0178,0.6164 -0.1874,0.8906 -0.1642,0.1746 -0.3302,0.3046 -0.5626,0.375 0.0478,-0.0986 0.0974,-0.1934 0.1542,-0.287 0.213,-0.3694 0.2386,-0.749 0.1388,-1.1632 -0.0642,-0.1576 -0.149,-0.2856 -0.246,-0.4248 0,-0.031 0,-0.062 0,-0.0938 z"
                 fill="#2cc9f5"
                 id="path63" /><path
                 d="m 52.125,29.6406 c 0.3428,0.112 0.5384,0.3208 0.7236,0.627 0.0744,0.3472 0.0522,0.6168 -0.138,0.921 -0.1566,0.2074 -0.3358,0.34 -0.5856,0.4208 0.0472,-0.0944 0.0944,-0.1888 0.1422,-0.283 0.016,-0.0312 0.0318,-0.0626 0.0482,-0.095 0.016,-0.0314 0.032,-0.063 0.0486,-0.0954 0.1412,-0.2976 0.1502,-0.6676 0.04,-0.9768 C 52.3466,30.0456 52.2848,29.937 52.2188,29.8282 52.187,29.766 52.1556,29.7034 52.125,29.6406 Z"
                 fill="#288df1"
                 id="path64" /><path
                 d="m 38.9062,49.1406 c 0.3354,0.1446 0.5338,0.3096 0.7208,0.624 0.072,0.31 0.067,0.6006 -0.0922,0.8812 -0.1518,0.2036 -0.3392,0.3828 -0.5816,0.4636 0.0426,-0.1104 0.085,-0.2184 0.1416,-0.3224 0.176,-0.3388 0.2118,-0.7008 0.102,-1.0694 -0.0764,-0.179 -0.1688,-0.3312 -0.2906,-0.4832 0,-0.031 0,-0.0618 0,-0.0938 z"
                 fill="#f3c02c"
                 id="path65" /><path
                 d="m 58.4532,29.6406 c 0.3686,0.1462 0.5278,0.3528 0.703,0.7032 0.0344,0.3338 0.0192,0.6176 -0.1874,0.8906 -0.115,0.1232 -0.2304,0.2404 -0.375,0.328 -0.0464,-0.0154 -0.0928,-0.0308 -0.1406,-0.0468 0.0202,-0.033 0.0406,-0.066 0.0614,-0.1 0.2128,-0.377 0.2814,-0.6878 0.2198,-1.1188 -0.0472,-0.1514 -0.1108,-0.2836 -0.1876,-0.4218 -0.0318,-0.078 -0.0632,-0.156 -0.0936,-0.2344 z"
                 fill="#f5c12c"
                 id="path66" /><path
                 d="m 53.0624,48.7656 c 0.343,0.112 0.5384,0.3208 0.7238,0.627 0.0664,0.31 0.0642,0.5978 -0.095,0.8778 -0.1216,0.1636 -0.2664,0.3112 -0.4412,0.4172 -0.0464,-0.0156 -0.0928,-0.031 -0.1406,-0.047 0.0202,-0.033 0.0406,-0.066 0.0614,-0.1 0.2116,-0.3748 0.2892,-0.69 0.2198,-1.1188 -0.0508,-0.136 -0.1088,-0.2554 -0.183,-0.38 -0.0514,-0.0886 -0.0514,-0.0886 -0.0514,-0.1824 -0.0308,0 -0.0618,0 -0.0938,0 0,-0.031 0,-0.0618 0,-0.0938 z"
                 fill="#95cb00"
                 id="path67" /><path
                 d="m 52.1718,35.7344 c 0.3112,0.1214 0.5128,0.3474 0.6768,0.6328 0.0796,0.354 0.0178,0.6478 -0.161,0.961 -0.1664,0.195 -0.3078,0.2892 -0.5626,0.328 0.0198,-0.031 0.0396,-0.0622 0.0598,-0.0942 0.0258,-0.0414 0.0514,-0.0828 0.0778,-0.1254 0.0384,-0.0612 0.0384,-0.0612 0.0776,-0.1236 0.1482,-0.2814 0.1488,-0.6114 0.113,-0.9224 -0.0496,-0.1312 -0.1078,-0.2468 -0.1786,-0.3676 -0.0538,-0.0972 -0.0812,-0.1802 -0.1028,-0.2886 z"
                 fill="#ea641e"
                 id="path68" /><path
                 d="m 45,46 c 0.3514,0.1194 0.5232,0.308 0.6972,0.6328 0.1008,0.313 0.058,0.5502 -0.0688,0.8466 -0.1222,0.2122 -0.308,0.4022 -0.5464,0.4746 -0.0406,0.0072 -0.0406,0.0072 -0.082,0.0148 0.0716,-0.1494 0.1536,-0.2904 0.239,-0.4322 0.1412,-0.2788 0.1308,-0.6466 0.0642,-0.9454 C 45.2346,46.3956 45.1334,46.2502 45,46.0938 45,46.0628 45,46.0318 45,46 Z"
                 fill="#ea3150"
                 id="path69" /><path
                 d="m 45.2812,34.7032 c 0.0464,0 0.0928,0 0.1406,0 -0.0924,0.2922 -0.2018,0.5694 -0.3286,0.8486 -0.0532,0.1558 -0.0694,0.2534 -0.0464,0.417 0.068,0.1126 0.1338,0.2106 0.214,0.3134 0.0746,0.097 0.1418,0.1924 0.208,0.296 -0.0156,0.0464 -0.031,0.0928 -0.047,0.1406 -0.0934,-0.1276 -0.1864,-0.2552 -0.2788,-0.3834 -0.0534,-0.0736 -0.1076,-0.1466 -0.1644,-0.2176 -0.0938,-0.1214 -0.1198,-0.184 -0.112,-0.339 0.0392,-0.2304 0.1364,-0.4382 0.23,-0.6508 0.0266,-0.0616 0.0266,-0.0616 0.0536,-0.1244 0.0434,-0.1002 0.087,-0.2004 0.131,-0.3004 z"
                 fill="#5b6699"
                 id="path70" /><path
                 d="m 45.375,30.5782 c 0.031,0.0154 0.0618,0.0308 0.0938,0.0468 -0.0824,0.2322 -0.2138,0.411 -0.358,0.6088 -0.0998,0.2204 -0.056,0.4006 0.0182,0.6208 0.0414,0.107 0.0858,0.2122 0.1318,0.3172 0.0154,0.0364 0.0308,0.0728 0.0468,0.1102 0.0376,0.0884 0.0758,0.1766 0.1142,0.2648 -0.0696,0.0232 -0.0696,0.0232 -0.1406,0.047 -0.4542,-0.9642 -0.4542,-0.9642 -0.375,-1.2188 0.0678,-0.1148 0.1362,-0.2242 0.211,-0.334 0.1506,-0.2198 0.1506,-0.2198 0.2578,-0.4628 z"
                 fill="#5a6497"
                 id="path71" /><path
                 d="m 39,32.2656 c 0,0.1482 -0.0382,0.2374 -0.1008,0.3698 -0.1322,0.3278 -0.1516,0.6204 -0.1512,0.972 0,0.05 0,0.1 0,0.1514 0.0052,0.3818 0.066,0.6822 0.2052,1.038 0.0172,0.0778 0.0334,0.156 0.0468,0.2344 -0.1258,-0.11 -0.1804,-0.214 -0.2402,-0.369 C 38.7442,34.6226 38.7286,34.583 38.7126,34.5424 38.523,33.9804 38.534,33.2018 38.7584,32.6528 38.8296,32.5136 38.904,32.3892 39,32.2656 Z"
                 fill="#566090"
                 id="path72" /><path
                 d="m 46.3124,33.0624 c 0.062,0 0.1238,0 0.1876,0 0,0.4022 0,0.8044 0,1.2188 -0.0618,0 -0.1238,0 -0.1876,0 0,-0.4022 0,-0.8044 0,-1.2188 z"
                 fill="#576192"
                 id="path73" /><path
                 d="m 42.375,37.7032 c 0.0746,0.149 0.0134,0.2946 -0.0206,0.451 -0.024,0.1142 -0.0482,0.2282 -0.0732,0.3458 -0.4022,0 -0.8044,0 -1.2188,0 0,-0.0154 0,-0.031 0,-0.0468 0.3404,0 0.6808,0 1.0314,0 0.0464,-0.2322 0.0928,-0.4642 0.1406,-0.7032 0.0464,-0.0154 0.0928,-0.031 0.1406,-0.0468 z"
                 fill="#5b6493"
                 id="path74" /><path
                 d="m 42.0938,28.8438 c 0.0618,0 0.1236,0 0.1874,0 0.016,0.081 0.0314,0.162 0.047,0.2432 0.0086,0.045 0.0174,0.0902 0.0262,0.1366 0.0192,0.126 0.0244,0.243 0.0206,0.3702 -0.0464,-0.0156 -0.0928,-0.031 -0.1406,-0.047 -0.0464,-0.232 -0.0928,-0.464 -0.1406,-0.703 z"
                 fill="#5a6498"
                 id="path75" /><path
                 d="m 39,32.2656 c 0,0.1486 -0.04,0.2306 -0.1,0.3634 -0.083,0.2154 -0.1292,0.4432 -0.1812,0.6678 -0.031,0 -0.062,0 -0.0938,0 C 38.6454,32.944 38.7436,32.522 39,32.2656 Z"
                 fill="#5d6799"
                 id="path76" /></g></g></g></g></g></g></svg>
