<svg xmlns="http://www.w3.org/2000/svg" viewBox="0 0 16 16">
<path fill="#ff9800" d="m6.922 3.768-.644-.536A1 1 0 0 0 5.638 3H2a1 1 0 0 0-1 1v8a1 1 0 0 0 1 1h12a1 1 0 0 0 1-1V5a1 1 0 0 0-1-1H7.562a1 1 0 0 1-.64-.232" id="folder"/>
<g fill="#ffe0b2" data-mit-no-recolor="true" transform="matrix(0.7 0 0 0.7 5 5)" id="motive"><path d="M3.1 9a11.35 11.35 0 0 0 4.9 1 11.35 11.35 0 0 0 4.9-1 5.001 5.001 0 0 1-9.8 0m0-2a11.35 11.35 0 0 1 4.9-1 11.35 11.35 0 0 1 4.9 1 5.001 5.001 0 0 0-9.8 0"/><circle cx="13.5" cy="2.5" r="1.5"/><circle cx="2.5" cy="13.5" r="1.5"/><circle cx="2.5" cy="2.5" r="1.5"/></g>
</svg>
