<svg xmlns="http://www.w3.org/2000/svg" viewBox="0 0 16 16"><path id="folder" fill="#03a9f4" d="m6.922 3.768-.644-.536A1 1 0 0 0 5.638 3H2a1 1 0 0 0-1 1v8a1 1 0 0 0 1 1h12a1 1 0 0 0 1-1V5a1 1 0 0 0-1-1H7.562a1 1 0 0 1-.64-.232"/><path id="motive" fill="#b3e5fc" d="M15.627 7.017A.5.5 0 0 0 15.484 7H7.247a.515.515 0 0 0-.498.366l-1.732 6a.504.503 0 0 0 .499.634h8.237a.515.515 0 0 0 .498-.366l1.732-6a.504.503 0 0 0-.356-.617M7.499 13a.5.5 0 0 1-.278-.916l2.494-1.661-1.57-1.57a.5.5 0 0 1 .708-.706l2 2a.5.5 0 0 1-.075.77l-3.002 2A.5.5 0 0 1 7.5 13zm5.502 0h-2a.5.5 0 0 1 0-1h2a.5.5 0 0 1 0 1"/></svg>