<svg xmlns="http://www.w3.org/2000/svg" xml:space="preserve" id="Capa_1" x="0" y="0" style="enable-background:new 0 0 32 32" version="1.1" viewBox="0 0 32 32"><style>.st1{fill:#b2dfdb}</style><path d="M29 12H9.4c-.9 0-1.6.6-1.9 1.4L4 24V10h24c0-1.1-.9-2-2-2H15.1c-.5 0-.9-.2-1.3-.5l-1.3-1.1c-.3-.2-.8-.4-1.2-.4H4c-1.1 0-2 .9-2 2v16c0 1.1.9 2 2 2h22l4.8-11.2c.4-1 0-2.2-1-2.6-.3-.1-.6-.2-.8-.2z" style="fill:#26a69a"/><path d="m25 20.4 6.9-4.2L25 12l-7 4.2 7 4.2zM32 24.3v-8.1l-7 4.2v8.1c.1 0 7-4.2 7-4.2z" class="st1"/><path d="m18 16.2 7 4.2v8.1l-7-4.2v-8.1z" class="st1"/></svg>