<svg xmlns="http://www.w3.org/2000/svg" viewBox="0 0 16 16">
<path fill="#448aff" d="m6.922 3.768-.644-.536A1 1 0 0 0 5.638 3H2a1 1 0 0 0-1 1v8a1 1 0 0 0 1 1h12a1 1 0 0 0 1-1V5a1 1 0 0 0-1-1H7.562a1 1 0 0 1-.64-.232" id="folder"/>
<path fill="#bbdefb" d="M11.0345 5.2315a0.3 0.3 0 0 0-0.058 0.0015 0.295 0.295 0 0 0-0.2585 0.3175v0.08a1.8 1.8 0 0 0 0.04 0.2715 2.6 2.6 0 0 1 0.0325 0.509 0.3 0.3 0 0 1-0.093 0.1525l-0.0065 0.119a3.5 3.5 0 0 0-0.5155 0.0785 3.635 3.635 0 0 0-1.853 1.0585l-0.098-0.0725a0.26 0.26 0 0 1-0.173-0.0195 2.7 2.7 0 0 1-0.3825-0.345 2.5 2.5 0 0 0-0.186-0.1975l-0.06-0.0465a0.375 0.375 0 0 0-0.1985-0.079 0.3 0.3 0 0 0-0.2315 0.0985 0.305 0.305 0 0 0 0.074 0.417l0.0065 0.0065c0.013 0.0135 0.0395 0.0335 0.053 0.0465a2 2 0 0 0 0.2375 0.1385 2.7 2.7 0 0 1 0.424 0.2985 0.3 0.3 0 0 1 0.053 0.165l0.0915 0.079a3.61 3.61 0 0 0-0.5685 2.5605l-0.125 0.0325a0.4 0.4 0 0 1-0.127 0.1265 2.2 2.2 0 0 1-0.509 0.079 1 1 0 0 0-0.2715 0.0255l-0.072 0.0145h-0.0065v0.0065c-0.02 0-0.04 0.0065-0.053 0.0065a0.285 0.285 0 1 0 0.1695 0.543l0.002-0.0005a0.5 0.5 0 0 0 0.087-0.0205 1.35 1.35 0 0 0 0.244-0.0985 3.5 3.5 0 0 1 0.509-0.146 0.25 0.25 0 0 1 0.1525 0.0595l0.1315-0.0195a3.715 3.715 0 0 0 1.635 2.044l-0.047 0.119a0.35 0.35 0 0 1 0.021 0.165 2.1 2.1 0 0 1-0.2585 0.4565c-0.053 0.0795-0.0995 0.152-0.159 0.231a0.085 0.085 0 0 1-0.026 0.074c-0.0065 0.02-0.02 0.033-0.027 0.053a0.285 0.285 0 0 0 0.536 0.191c0.0135-0.02 0.0255-0.066 0.039-0.066a2.5 2.5 0 0 0 0.08-0.265 2.5 2.5 0 0 1 0.2185-0.5085 0.225 0.225 0 0 1 0.125-0.06l0.066-0.1185a3.7 3.7 0 0 0 2.627 0.0065l0.0525 0.106a0.25 0.25 0 0 1 0.1385 0.0915 3 3 0 0 1 0.199 0.477c0.02 0.086 0.047 0.172 0.08 0.271 0.0135 0 0.0255 0.04 0.039 0.06 0.0065 0.0195 0.014 0.0325 0.0205 0.0525a0.284 0.284 0 0 0 0.492-0.2845l-0.0035-0.006a0.5 0.5 0 0 1-0.026-0.08c-0.053-0.073-0.106-0.1525-0.159-0.225a3.7 3.7 0 0 1-0.2505-0.45 0.22 0.22 0 0 1 0.0195-0.1715 0.5 0.5 0 0 1-0.0465-0.1125 3.72 3.72 0 0 0 1.634-2.0565c0.04 0.0065 0.079 0.0125 0.1255 0.019a0.165 0.165 0 0 1 0.1525-0.053 2.35 2.35 0 0 1 0.509 0.14 1.3 1.3 0 0 0 0.2375 0.098 0.35 0.35 0 0 0 0.0935 0.014v0.0065c0 0.0065 0.0265 0.0065 0.0465 0.013a0.2925 0.2925 0 0 0 0.3175-0.2455 0.285 0.285 0 0 0-0.2415-0.3225l-0.004-0.0005a0.17 0.17 0 0 1-0.0785-0.0335h-0.2715a3.3 3.3 0 0 1-0.509-0.093 0.275 0.275 0 0 1-0.1265-0.119l-0.1255-0.032a3.6 3.6 0 0 0-0.5825-2.5545l0.1055-0.092a0.2 0.2 0 0 1 0.053-0.1585 2.5 2.5 0 0 1 0.424-0.2985 1.65 1.65 0 0 0 0.231-0.1385 0.5 0.5 0 0 0 0.06-0.0465c0.0195-0.013 0.04-0.0265 0.04-0.04a0.278 0.278 0 0 0-0.39-0.3965c-0.02 0-0.0465 0.027-0.0665 0.04a5 5 0 0 0-0.186 0.1975 2.4 2.4 0 0 1-0.3835 0.345 0.25 0.25 0 0 1-0.172 0.0195l-0.106 0.079a3.685 3.685 0 0 0-2.354-1.137l-0.0065-0.1265a0.225 0.225 0 0 1-0.093-0.145 2.6 2.6 0 0 1 0.0325-0.509 1.8 1.8 0 0 0 0.04-0.2715v-0.146a0.285 0.285 0 0 0-0.252-0.253m-0.389 2.204-0.08 1.4885h-0.0065a0.25 0.25 0 0 1-0.053 0.14 0.25 0.25 0 0 1-0.3435 0.059h-0.0065l-1.217-0.867a2.875 2.875 0 0 1 1.4015-0.7675c0.106-0.02 0.206-0.04 0.305-0.053m0.7135 0a2.95 2.95 0 0 1 1.7 0.8205l-1.2105 0.867h-0.0065a0.3 0.3 0 0 1-0.1385 0.0335 0.247 0.247 0 0 1-0.258-0.235v-0.004Zm-2.8635 1.3565 1.1115 1.012v0.0065a0.17 0.17 0 0 1 0.072 0.1265 0.2415 0.2415 0 0 1-0.1615 0.301l-0.01 0.0025v0.0065l-1.429 0.411a2.95 2.95 0 0 1 0.417-1.866m5.0065 0.02a3.09 3.09 0 0 1 0.43 1.8395l-1.435-0.411-0.0065-0.0065a0.235 0.235 0 0 1-0.119-0.0785 0.245 0.245 0 0 1 0.021-0.347l0.005-0.005-0.0065-0.019Zm-2.731 1.072h0.456l0.284 0.35-0.0995 0.443-0.4095 0.199-0.4095-0.199-0.106-0.443Zm-1.066 1.2235h0.053a0.275 0.275 0 0 1 0.252 0.191 0.25 0.25 0 0 1-0.026 0.14v0.019l-0.5635 1.37a2.92 2.92 0 0 1-1.183-1.476Zm2.435 0h0.1595l1.474 0.2375a2.925 2.925 0 0 1-1.1835 1.4885l-0.57-1.395a0.265 0.265 0 0 1 0.12-0.331m-1.1635 0.5995a0.255 0.255 0 0 1 0.244 0.128h0.0065l0.721 1.3035a2.5 2.5 0 0 1-0.2845 0.0785 2.95 2.95 0 0 1-1.607-0.0785l0.721-1.3035h0.006c0.02-0.0465 0.0535-0.0665 0.1-0.1a0.25 0.25 0 0 1 0.093-0.028" id="motive"/>
</svg>
