<svg viewBox="0 0 24 24" fill="none" xmlns="http://www.w3.org/2000/svg">
  <path
    d="M19 20H4C3.46957 20 2.96086 19.7893 2.58579 19.4142C2.21071 19.0391 2 18.5304 2 18V6C2 4.89 2.89 4 4 4H10L12 6H19C20.097 6 21 6.903 21 8H4V18L6.14 10H23.21L20.93 18.5C20.7 19.37 19.92 20 19 20Z"
    fill="#43A047" />
  <path fill-rule="evenodd" clip-rule="evenodd"
    d="M18.034 9.132L23.726 11.1603L22.8632 18.6939L18.034 21.3661L13.2048 18.6939L12.342 11.1603L18.034 9.132H18.034ZM18.034 10.4842L14.4733 18.4685H15.7997L16.5144 16.6785H19.5407L20.2554 18.4685H21.5754L18.034 10.4842H18.034ZM19.0771 15.571H16.9973L18.034 13.0791L19.0771 15.571Z"
    fill="#C5E1A5" />
</svg>