<svg xmlns="http://www.w3.org/2000/svg" xmlns:xlink="http://www.w3.org/1999/xlink" viewBox="0 0 16 16">
<defs><linearGradient id="a" x1="475.17025" x2="492.79875" y1="507.41075" y2="523.59575" gradientTransform="matrix(0.3031 0 0 0.33012 -281.715 -333.434)" gradientUnits="userSpaceOnUse"><stop offset="0" stop-color="#ba68c8"/><stop offset="1" stop-color="#7e57c2"/></linearGradient><linearGradient id="b" x1="485.47025" x2="475.95875" y1="523.63575" y2="510.64825" gradientTransform="matrix(0.30439 0 0 0.32873 -281.4015 -329.914)" gradientUnits="userSpaceOnUse"><stop offset="0" stop-color="#7e57c2"/><stop offset=".14" stop-color="#7b1fa2"/><stop offset=".29" stop-color="#ad1457"/><stop offset=".84" stop-color="#c2185b"/><stop offset="1" stop-color="#ec407a"/></linearGradient><linearGradient xlink:href="#a" id="c" x1="862.4635" x2="895.8005" y1="1091.241" y2="1137.6395" gradientTransform="matrix(0.3299 0 0 0.30331 -282.679 -328.862)"/><linearGradient xlink:href="#a" id="d" x1="896.8795" x2="937.8895" y1="1050.594" y2="1084.2345" gradientTransform="matrix(0.31601 0 0 0.31665 -279.7975 -330.5405)"/><linearGradient xlink:href="#a" id="e" x1="908.9415" x2="947.1755" y1="1065.2055" y2="1098.897" gradientTransform="matrix(0.31642 0 0 0.31622 -284.5835 -331.718)"/><linearGradient xlink:href="#b" id="f" x1="981.257" x2="962.1865" y1="1061.6115" y2="1035.5235" gradientTransform="matrix(0.30448 0 0 0.32864 -283.907 -333.6725)"/><linearGradient xlink:href="#a" id="g" x1="951.703" x2="986.9935" y1="1012.846" y2="1051.9195" gradientTransform="matrix(0.30312 0 0 0.33012 -281.702 -333.422)"/><linearGradient id="h" x1="558.0335" x2="568.39175" y1="448.708" y2="438.4655" gradientTransform="rotate(11.284 1548.2 -1603.6835)scale(.31697 .3157)" gradientUnits="userSpaceOnUse"><stop offset="0" stop-color="#7e57c2"/><stop offset=".14" stop-color="#7b1fa2"/><stop offset=".53" stop-color="#ad1457"/><stop offset=".79" stop-color="#c2185b"/><stop offset="1" stop-color="#ec407a"/></linearGradient></defs>
<path fill="#f06292" d="m6.922 3.768-.644-.536A1 1 0 0 0 5.638 3H2a1 1 0 0 0-1 1v8a1 1 0 0 0 1 1h12a1 1 0 0 0 1-1V5a1 1 0 0 0-1-1H7.562a1 1 0 0 1-.64-.232" id="folder"/>
<g id="motive"><path fill="url(#a)" d="m12.8935 7.6665-0.8355 0.572-0.86-1.323 0.835-0.572Z"/><path fill="url(#b)" d="M13.5725 11.6415 15 13.836 13.3 15l-1.4275-2.1945-0.249-0.3825 1.7-1.164Z"/><path fill="url(#c)" d="m11.432 13.1075 0.314 0.483-1.294 0.886-0.5635-0.866 0.283-0.1935 1.0115-0.6925Z"/><path fill="url(#d)" d="m14.28 10.604 0.3635-0.2485 0.563 0.866-0.8355 0.572-0.314-0.4835 0.4725-0.3235Zm-0.2235 0.706-0.2485-0.3825 0.4725-0.3235 0.249 0.3825Z"/><path fill="url(#e)" d="m8.422 10.7285-0.2825 0.1935-0.86-1.3235 1.2935-0.886 0.603 0.9275-1.011 0.6925 1.0115-0.6925 0.2575 0.3955Z"/><path fill="url(#f)" d="m11.3175 8.174 0.2575 0.395-1.7 1.1645-0.2575-0.3955-1.414-2.174 1.7-1.164Z"/><path fill="url(#g)" d="m12.531 7.915-0.4725 0.3235-0.2575-0.396-0.603-0.9275 0.835-0.572 0.861 1.323Z"/><path fill="#673ab7" d="m10.42 13.8-0.2485-0.3825 1.0115-0.693 0.2485 0.383Zm3.6365-2.49-0.249-0.382 0.4725-0.3235 0.249 0.3825Z"/><path fill="#ab47bc" d="m8.422 10.7285-0.2575-0.3955 1.0115-0.6925 0.2575 0.395Z"/><path fill="#7e57c2" d="m12.0585 8.2385-0.257-0.3955 0.4725-0.324 0.257 0.3955Z"/><path fill="#880e4f" d="m13.5725 11.6415-1.7 1.164-0.2485-0.383 1.6995-1.164Z"/><path fill="#ad1457" d="m11.3175 8.1735 0.2575 0.396-1.7 1.1645-0.2575-0.3965Z"/><path fill="#ab47bc" d="m7.94 7.8575 0.321 0.493-0.481 0.3295-0.321-0.4935Z"/><path fill="#7e57c2" d="m9.673 13.7725 0.321 0.4935-0.481 0.3295-0.3205-0.494Z"/><path fill="url(#h)" d="M8.4075 14.2695 7 12.0875l7.524-5.164L16 9.071Z"/></g>
</svg>
