<svg xmlns="http://www.w3.org/2000/svg" viewBox="0 0 32 32">
  <path d="M13.84376,7.53645l-1.28749-1.0729A2,2,0,0,0,11.27591,6H4A2,2,0,0,0,2,8V24a2,2,0,0,0,2,2H28a2,2,0,0,0,2-2V10a2,2,0,0,0-2-2H15.12412A2,2,0,0,1,13.84376,7.53645Z" style="fill: #00bfa5;fill-rule: evenodd"/>
  <path d="M30.20863,26.27481,20.449,28.66559a.42344.42344,0,0,1-.50932-.225.29553.29553,0,0,1-.01256-.16447l3.48605-13.82672a.34784.34784,0,0,1,.4123-.21049.33549.33549,0,0,1,.221.14964L30.503,25.74068a.36172.36172,0,0,1-.21779.51057A.50549.50549,0,0,1,30.20863,26.27481Zm1.67223-.56389L24.406,12.56709a1.33466,1.33466,0,0,0-1.64729-.45284,1.17924,1.17924,0,0,0-.46725.35684L14.18491,23.3445a.87141.87141,0,0,0,.01432,1.09126l3.96337,5.08309a1.40683,1.40683,0,0,0,1.432.43543l11.50348-2.81673a1.21577,1.21577,0,0,0,.79077-.5666A.86074.86074,0,0,0,31.88086,25.71092Z" style="fill: #a7ffeb;fill-rule: evenodd"/>
</svg>
