<?xml version="1.0" encoding="UTF-8"?>
<svg clip-rule="evenodd" fill-rule="evenodd" image-rendering="optimizeQuality" shape-rendering="geometricPrecision" text-rendering="geometricPrecision" version="1.1" viewBox="0 0 2400 2400" xmlns="http://www.w3.org/2000/svg">
    <path d="m2199.5 1163.5c-2.45 0.97-5.11 1.31-8 1-5.77-1.45-11.77-2.11-18-2-16.58-2.33-33.24-3.33-50-3-18.15-1.41-36.48-2.08-55-2-10.51 0-20.84 0.33-31 1h-9c-25.28 0.45-50.28 2.45-75 6h-1c-6.53 0.2-12.86 0.86-19 2-9.21 0.79-18.21 2.12-27 4-8.27 0.46-16.27 1.79-24 4-114.28 19.12-217.94 62.62-311 130.5-90.25 70.63-156.08 159.46-197.5 266.5-21.1 53.72-36.26 109.05-45.5 166-2.95 12.73-4.95 25.73-6 39-1.39 4.77-2.06 9.77-2 15-2.83 27.58-5.33 55.25-7.5 83-0.43 41.85-0.59 83.51-0.5 125-311 0.17-622 0-933-0.5-68.833-8.8-120.67-42.97-155.5-102.5-13.031-24.09-21.031-49.76-24-77-0.667-414-0.667-828 0-1242 12.728-86.049 60.228-142.88 142.5-170.5 12.109-3.518 24.443-5.852 37-7 207-0.667 414-0.667 621 0 66.33 66.333 132.67 132.67 199 199 273 0.333 546 0.667 819 1 70.77 8.61 123.61 43.777 158.5 105.5 11.99 23.627 19.32 48.627 22 75 0.5 127.67 0.67 255.33 0.5 383z" fill="#388e3c"/>
    <path d="m2028.5 1158.5h9c28.67 0.06 57.34 0.4 86 1 16.76-0.33 33.42 0.67 50 3 5.77 1.45 11.77 2.11 18 2 2.89 0.31 5.55-0.03 8-1 20.03 2.65 40.03 5.81 60 9.5 0.63 0.75 1.13 1.58 1.5 2.5 16.65 100.21 19.98 200.88 10 302-7.98 78.59-25.65 154.92-53 229-5.51 14.39-11.68 28.39-18.5 42 0.13-0.74-0.04-1.41-0.5-2-41.75 90.98-102.25 167.14-181.5 228.5-11.39 8.39-23.06 16.39-35 24 0.59 0.46 1.26 0.63 2 0.5-63.6 41.84-132.6 72-207 90.5-106.7 26.73-215.03 37.73-325 33-44.07-2.27-88.07-5.44-132-9.5-3.51-37.94-6.17-75.94-8-114-0.09-41.49 0.07-83.15 0.5-125 2.17-27.75 4.67-55.42 7.5-83 1.39-4.77 2.06-9.77 2-15 2.74-12.76 4.74-25.76 6-39 9.24-56.95 24.4-112.28 45.5-166 41.42-107.04 107.25-195.87 197.5-266.5 93.06-67.88 196.72-111.38 311-130.5 8.27-0.46 16.27-1.79 24-4 9.27-0.42 18.27-1.75 27-4 6.57 0.26 12.91-0.41 19-2h1c25.17-1.69 50.17-3.69 75-6z" fill="#a4d5a6" opacity=".998"/>
    <path d="m2037.5 1158.5c10.16-0.67 20.49-1 31-1 18.52-0.08 36.85 0.59 55 2-28.66-0.6-57.33-0.94-86-1z" fill="#81be83"/>
    <path d="m2028.5 1158.5c-24.83 2.31-49.83 4.31-75 6 24.72-3.55 49.72-5.55 75-6z" fill="#81be84"/>
    <path d="m2173.5 1162.5c6.23-0.11 12.23 0.55 18 2-6.23 0.11-12.23-0.55-18-2z" fill="#86c188"/>
    <path d="m1952.5 1164.5c-6.09 1.59-12.43 2.26-19 2 6.14-1.14 12.47-1.8 19-2z" fill="#7dbc80"/>
    <path d="m1933.5 1166.5c-8.73 2.25-17.73 3.58-27 4 8.79-1.88 17.79-3.21 27-4z" fill="#84c086"/>
    <path d="m1906.5 1170.5c-7.73 2.21-15.73 3.54-24 4 7.73-2.21 15.73-3.54 24-4z" fill="#83bf85"/>
    <path d="m2025.5 1373.5c11.16-1.16 22.49-1.33 34-0.5-1.24 0.79-2.58 1.29-4 1.5-9.82-0.99-19.82-1.33-30-1z" fill="#5ca65f"/>
    <path d="m2025.5 1373.5c10.18-0.33 20.18 0.01 30 1-56.01 22.66-108.34 51.49-157 86.5-111.88 80.88-206.38 178.38-283.5 292.5-33.22 49.09-62.89 100.42-89 154-0.82-15.39-0.15-30.73 2-46 3.31-26.87 7.81-53.54 13.5-80 2.11-5.43 3.78-11.1 5-17 21.89-91.46 64.06-172.13 126.5-242 50.99-53.84 111.49-92.84 181.5-117 1.65-0.16 2.99-0.83 4-2 54.14-18.23 109.81-28.23 167-30z" fill="#388e3c"/>
    <path d="m1858.5 1403.5c-1.01 1.17-2.35 1.84-4 2 0.79-1.6 2.12-2.27 4-2z" fill="#6cb06e"/>
    <path d="m1328.5 1737.5c-1.26 13.24-3.26 26.24-6 39 1.05-13.27 3.05-26.27 6-39z" fill="#7ab97c"/>
    <path d="m2199.5 1748.5c0.17 23.67 0 47.34-0.5 71-9.31 69.51-44.14 121.68-104.5 156.5-34.41 18.27-71.08 26.1-110 23.5-0.74 0.13-1.41-0.04-2-0.5 11.94-7.61 23.61-15.61 35-24 79.25-61.36 139.75-137.52 181.5-228.5 0.46 0.59 0.63 1.26 0.5 2z" fill="#388e3c" opacity=".987"/>
    <path d="m1546.5 1764.5c-1.22 5.9-2.89 11.57-5 17 0.85-5.39 2.01-10.72 3.5-16 0.38-0.56 0.88-0.89 1.5-1z" fill="#85c187"/>
    <path d="m1322.5 1776.5c0.06 5.23-0.61 10.23-2 15-0.06-5.23 0.61-10.23 2-15z" fill="#75b678"/>
</svg>
