<svg viewBox="0 0 24 24" fill="none" xmlns="http://www.w3.org/2000/svg">
  <path
    d="M19 20H4C3.46957 20 2.96086 19.7893 2.58579 19.4142C2.21071 19.0391 2 18.5304 2 18V6C2 4.89 2.89 4 4 4H10L12 6H19C20.097 6 21 6.903 21 8H4V18L6.14 10H23.21L20.93 18.5C20.7 19.37 19.92 20 19 20Z"
    fill="#1976D2" />
  <path
    d="M17.8715 18.2074V21.0799H23.6316V15.3351H17.8715V18.2074ZM11.7 18.2074V21.0799H17.46V15.3351H11.7V18.2074ZM17.8715 12.0523V14.9247H23.6316V9.17993H17.8715V12.0523ZM11.7 12.0523V14.9247H17.46V9.17993H11.7V12.0523Z"
    fill="#BBDEFB" />
</svg>