<svg xmlns="http://www.w3.org/2000/svg" viewBox="0 0 32 32">
  <path d="M13.84376,7.53645l-1.28749-1.0729A2,2,0,0,0,11.27591,6H4A2,2,0,0,0,2,8V24a2,2,0,0,0,2,2H28a2,2,0,0,0,2-2V10a2,2,0,0,0-2-2H15.12412A2,2,0,0,1,13.84376,7.53645Z" style="fill: #448aff"/>
  <path d="M24.36758,20.36821a.94706.94706,0,0,0-.04373,1.33869q.02115.02256.04373.04372a.98107.98107,0,0,0,1.38253,0,4.87051,4.87051,0,0,0,0-6.88262l-3.446-3.4472a4.867,4.867,0,0,0-6.88318,6.88263l1.4487,1.45153a6.72635,6.72635,0,0,1,.38975-2.356l-.45593-.46766a2.9029,2.9029,0,0,1-.02264-4.10548l0,0,.02263-.02262a2.90347,2.90347,0,0,1,4.10582-.02115l.02114.02115,3.43718,3.4369a2.90289,2.90289,0,0,1,.02264,4.10547l-.02264.02263m-2.74591-4.1281a.98105.98105,0,0,0-1.38252,0,4.87051,4.87051,0,0,0,0,6.88262l3.44747,3.44719a4.867,4.867,0,0,0,6.89246-6.87335l-.00928-.00927-1.45018-1.45153a6.81582,6.81582,0,0,1-.38975,2.36628l.45742.45589a2.90291,2.90291,0,0,1,.0241,4.10547l-.0241.02411a2.90346,2.90346,0,0,1-4.10581.02262l-.02263-.02262-3.43718-3.4369a2.90288,2.90288,0,0,1-.02263-4.10547l.02263-.02264a.947.947,0,0,0,.04373-1.33868Q21.64426,16.26127,21.62167,16.24011Z" style="fill: #bbdefb;fill-rule: evenodd"/>
</svg>
