<svg clip-rule="evenodd" fill-rule="evenodd" stroke-linejoin="round" stroke-miterlimit="1.4142" version="1.1" viewBox="0 0 24 24" xml:space="preserve" xmlns="http://www.w3.org/2000/svg"><g transform="matrix(3.7795 0 0 3.7795 -576.15 -340.48)"><path d="m154.88 90.919h-1.5898c-0.29411 0-0.52993 0.23582-0.52993 0.52992v3.1795a0.52993 0.52992 0 0 0 0.52993 0.52992h4.2395a0.52993 0.52992 0 0 0 0.52993-0.52992v-2.6496c0-0.29411-0.23847-0.52992-0.52993-0.52992h-2.1197z" fill="#f30c39" stroke-width=".043093"/><g fill="#fa90a4"><path d="m156.96 92.556c-0.83327 0-1.5082 0.33745-1.5082 0.75409 0 0.41664 0.67491 0.7541 1.5082 0.7541s1.5082-0.33746 1.5082-0.7541c0-0.41664-0.67491-0.75409-1.5082-0.75409m-1.5082 1.2173v0.30701c0 0.41664 0.67491 0.75409 1.5082 0.75409s1.5082-0.33745 1.5082-0.75409v-0.56557c0 0.41664-0.67491 0.75409-1.5082 0.75409s-1.5082-0.33745-1.5082-0.75409m0 0.77024v0.56557c0 0.41664 0.67491 0.75409 1.5082 0.75409s1.5082-0.33745 1.5082-0.75409v-0.56557c0 0.41664-0.67491 0.75409-1.5082 0.75409s-1.5082-0.33745-1.5082-0.75409z" stroke-width=".043093"/><path d="m156.62 92.346h-0.44882l0.78543-0.89724 0.78543 0.89724h-0.44883v0.96457h-0.67322z" clip-rule="evenodd" fill-rule="evenodd"/><path d="m157.35 92.346v0.96452h-0.78662l1e-5 -0.96452" clip-rule="evenodd" fill-rule="evenodd" stroke="#f30c39" stroke-linejoin="round" stroke-miterlimit="1.4142" stroke-width=".11303"/></g></g></svg>
