<?xml version="1.0" encoding="UTF-8" standalone="no"?>
<svg
   clip-rule="evenodd"
   stroke-linejoin="round"
   stroke-miterlimit="1.414"
   viewBox="0 0 24 24"
   xml:space="preserve"
   version="1.1"
   id="svg2"
   sodipodi:docname="folder-ios-open.svg"
   inkscape:version="1.3 (0e150ed, 2023-07-21)"
   xmlns:inkscape="http://www.inkscape.org/namespaces/inkscape"
   xmlns:sodipodi="http://sodipodi.sourceforge.net/DTD/sodipodi-0.dtd"
   xmlns="http://www.w3.org/2000/svg"
   xmlns:svg="http://www.w3.org/2000/svg"><defs
     id="defs2" /><sodipodi:namedview
     id="namedview2"
     pagecolor="#ffffff"
     bordercolor="#000000"
     borderopacity="0.25"
     inkscape:showpageshadow="2"
     inkscape:pageopacity="0.0"
     inkscape:pagecheckerboard="0"
     inkscape:deskcolor="#d1d1d1"
     inkscape:zoom="1"
     inkscape:cx="12.5"
     inkscape:cy="12"
     inkscape:window-width="1440"
     inkscape:window-height="1567"
     inkscape:window-x="3240"
     inkscape:window-y="25"
     inkscape:window-maximized="0"
     inkscape:current-layer="svg2" /><path
     d="M19 20H4a2 2 0 0 1-2-2V6c0-1.11.89-2 2-2h6l2 2h7c1.097 0 2 .903 2 2H4v10l2.14-8h17.07l-2.28 8.5c-.23.87-1.01 1.5-1.93 1.5z"
     fill="#e57373"
     style="fill:#546e7a;fill-opacity:1"
     id="path1" /><path
     d="M23.395 13.464v-1.801h-3.602a1.801 1.801 0 0 0-1.801 1.801v1.801a1.801 1.801 0 0 0 1.8 1.801h1.802v1.801H17.99v1.801h3.603a1.801 1.801 0 0 0 1.8-1.8v-1.802a1.801 1.801 0 0 0-1.8-1.8h-1.801v-1.802m-4.503 5.403h-1.801v-5.403h1.8m0-1.801h-1.8a1.801 1.801 0 0 0-1.801 1.801v5.403a1.801 1.801 0 0 0 1.8 1.802h1.802a1.801 1.801 0 0 0 1.801-1.802v-5.403a1.801 1.801 0 0 0-1.801-1.801m-6.304 9.006h1.801v-5.404h-1.8m0-1.801h1.801v-1.801H8.986z"
     style="fill:#cfd8dc;stroke-width:.90056"
     id="path2" /></svg>
