<svg width="24" height="24" viewBox="0 0 24 24" fill="none" xmlns="http://www.w3.org/2000/svg">
<path d="M10 4H4C2.89 4 2 4.89 2 6V18C2 18.5304 2.21071 19.0391 2.58579 19.4142C2.96086 19.7893 3.46957 20 4 20H20C20.5304 20 21.0391 19.7893 21.4142 19.4142C21.7893 19.0391 22 18.5304 22 18V8C22 6.89 21.1 6 20 6H12L10 4Z" fill="#5AA3C8"/>
<path d="M12.9167 9.5L13.7917 16.7917L11.4528 14.4528C11.106 14.106 11.013 13.579 11.2207 13.1345L12.9167 9.5Z" fill="#1565C0"/>
<path d="M17.968 7.84308C17.7215 7.59662 17.3876 7.45837 17.0393 7.45837C16.822 7.45837 16.608 7.51233 16.4166 7.61529L12.9166 9.50004V15.4334C12.9166 15.7429 13.0394 16.0395 13.2585 16.2582L13.7916 16.7917H20.2083V15.3334L22.25 12.125L17.968 7.84308Z" fill="#42A5F5"/>
<path d="M12.9166 9.5H19.1417C19.4511 9.5 19.7478 9.62279 19.9665 9.84183L22.25 12.125V16.7917H20.2083L12.9166 9.5Z" fill="#1565C0"/>
<path d="M20.2084 16.7916H13.7917L15.5417 18.5416H20.2084V16.7916Z" fill="#85CBF8"/>
</svg>
