<svg xmlns="http://www.w3.org/2000/svg" viewBox="0 0 32 32"><path d="M28.967,12H9.442a2,2,0,0,0-1.898,1.368L4,24V10H28a2,2,0,0,0-2-2H15.124a2,2,0,0,1-1.28-.464L12.556,6.464A2,2,0,0,0,11.276,6H4A2,2,0,0,0,2,8V24a2,2,0,0,0,2,2H26l4.805-11.212A2,2,0,0,0,28.967,12" style="fill:#ff9800"/><path d="M29.95459,19.68634a6.39593,6.39593,0,0,0-2.14539-3.87006c-.37677-.32159-5.49658-4.24969-6.74927-5.18457l-.35864-.27581a1.04489,1.04489,0,1,0-1.274,1.65655l2.52014,1.93817.062.05078L12.99578,14a.99323.99323,0,0,0-.08117,1.98364l.00628.00287c.00873.00226.02118.00311.03138.0047.01526.00067.02807.00879.04351.00879h.06812l.0304.0014h4.41241l-7.73407,5.957a1.56033,1.56033,0,0,0-.52454,1.215,1.002,1.002,0,0,0,.43995.82453,1.47293,1.47293,0,0,0,1.51611.02295,3.13994,3.13994,0,0,0,.76111-.55378c2.098-1.72528,3.67407-3.00842,3.68371-2.99884a1.53052,1.53052,0,0,1-.01336.2663,3.50243,3.50243,0,0,0,.08923,1.25915,6.17542,6.17542,0,0,0,1.08069,2.28846,7.2804,7.2804,0,0,0,4.57971,2.7594c.25177.04486.42584.06683.87457.11041.16168.01568,1.18415-.00757,1.37915-.03137A7.488,7.488,0,0,0,28.02075,25.103a6.4145,6.4145,0,0,0,1.924-3.60022A8.23835,8.23835,0,0,0,29.95459,19.68634Zm-2.80249.93048A3.80754,3.80754,0,0,1,26.061,22.66431a4.07094,4.07094,0,0,1-1.23676.88134,4.82852,4.82852,0,0,1-1.61132.43549,4.28293,4.28293,0,0,1-4.836-3.81158A3.90532,3.90532,0,0,1,20.459,16.60138a4.75366,4.75366,0,0,1,5.69171.802,3.6659,3.6659,0,0,1,.65021.93244,3.518,3.518,0,0,1,.34015.97821A4.4766,4.4766,0,0,1,27.1521,20.61682Zm-1.549-1.33472a1.72076,1.72076,0,0,1,.05853.56067,1.75524,1.75524,0,0,1-.05042.54493,2.41281,2.41281,0,0,1-.72345,1.21582,2.8456,2.8456,0,0,1-1.75763.77246,1.94353,1.94353,0,0,1-.54919-.00122v.00006a2.79319,2.79319,0,0,1-2.26581-1.51026,2.834,2.834,0,0,1-.15478-.39154,2.3557,2.3557,0,0,1,.60223-2.27612,2.85043,2.85043,0,0,1,1.50513-.82349,3.36012,3.36012,0,0,1,1.53235.08466A2.67763,2.67763,0,0,1,25.60315,19.2821Z" style="fill:#ffe0b2"/></svg>