<svg xmlns="http://www.w3.org/2000/svg" xmlns:xlink="http://www.w3.org/1999/xlink" viewBox="0 0 16 16"><defs><linearGradient id="a" x1="475.17" x2="492.799" y1="507.411" y2="523.596" gradientTransform="matrix(.3031 0 0 .33012 -281.715 -333.434)" gradientUnits="userSpaceOnUse"><stop offset="0" stop-color="#ba68c8"/><stop offset="1" stop-color="#7e57c2"/></linearGradient><linearGradient id="b" x1="485.47" x2="475.959" y1="523.636" y2="510.648" gradientTransform="matrix(.30439 0 0 .32873 -281.401 -329.914)" gradientUnits="userSpaceOnUse"><stop offset="0" stop-color="#7e57c2"/><stop offset=".14" stop-color="#7b1fa2"/><stop offset=".29" stop-color="#ad1457"/><stop offset=".84" stop-color="#c2185b"/><stop offset="1" stop-color="#ec407a"/></linearGradient><linearGradient xlink:href="#a" id="c" x1="862.463" x2="895.801" y1="1091.241" y2="1137.639" gradientTransform="matrix(.3299 0 0 .30331 -282.679 -328.862)"/><linearGradient xlink:href="#a" id="d" x1="896.88" x2="937.889" y1="1050.594" y2="1084.235" gradientTransform="matrix(.31601 0 0 .31665 -279.798 -330.54)"/><linearGradient xlink:href="#a" id="e" x1="908.942" x2="947.176" y1="1065.206" y2="1098.897" gradientTransform="matrix(.31642 0 0 .31622 -284.584 -331.718)"/><linearGradient xlink:href="#b" id="f" x1="981.257" x2="962.187" y1="1061.611" y2="1035.524" gradientTransform="matrix(.30448 0 0 .32864 -283.907 -333.673)"/><linearGradient xlink:href="#a" id="g" x1="951.703" x2="986.994" y1="1012.846" y2="1051.919" gradientTransform="matrix(.30312 0 0 .33012 -281.702 -333.422)"/><linearGradient id="h" x1="558.034" x2="568.392" y1="448.708" y2="438.466" gradientTransform="rotate(11.284 1548.2 -1603.683)scale(.31697 .3157)" gradientUnits="userSpaceOnUse"><stop offset="0" stop-color="#7e57c2"/><stop offset=".14" stop-color="#7b1fa2"/><stop offset=".53" stop-color="#ad1457"/><stop offset=".79" stop-color="#c2185b"/><stop offset="1" stop-color="#ec407a"/></linearGradient></defs><path id="folder" fill="#f06292" d="m6.922 3.768-.644-.536A1 1 0 0 0 5.638 3H2a1 1 0 0 0-1 1v8a1 1 0 0 0 1 1h12a1 1 0 0 0 1-1V5a1 1 0 0 0-1-1H7.562a1 1 0 0 1-.64-.232"/><g id="motive"><path fill="url(#a)" d="m12.894 7.667-.836.572-.86-1.324.835-.572Z"/><path fill="url(#b)" d="M13.573 11.642 15 13.836 13.3 15l-1.427-2.194-.25-.383 1.7-1.164Z"/><path fill="url(#c)" d="m11.432 13.108.314.482-1.294.887-.563-.867.283-.193 1.011-.692Z"/><path fill="url(#d)" d="m14.28 10.604.364-.248.562.865-.835.572-.314-.483.473-.324Zm-.223.706-.249-.383.473-.323.248.383Z"/><path fill="url(#e)" d="m8.422 10.729-.282.193-.86-1.323 1.293-.886.603.927-1.011.693 1.012-.693.257.396Z"/><path fill="url(#f)" d="m11.318 8.174.257.395-1.7 1.164-.257-.395-1.414-2.174L9.904 6Z"/><path fill="url(#g)" d="m12.531 7.915-.472.324-.258-.397-.603-.927.835-.572.861 1.323Z"/><path fill="#673ab7" d="m10.42 13.8-.248-.382 1.011-.693.249.383Zm3.637-2.49-.25-.382.473-.323.249.382Z"/><path fill="#ab47bc" d="m8.422 10.729-.257-.396 1.011-.692.258.394Z"/><path fill="#7e57c2" d="m12.059 8.239-.257-.396.472-.324.257.396Z"/><path fill="#880e4f" d="m13.573 11.642-1.7 1.164-.249-.383 1.7-1.165Z"/><path fill="#ad1457" d="m11.318 8.174.257.396-1.7 1.164-.257-.396Z"/><path fill="#ab47bc" d="m7.94 7.858.321.493-.481.329-.321-.493Z"/><path fill="#7e57c2" d="m9.673 13.773.321.493-.481.33-.32-.495Z"/><path fill="url(#h)" d="M8.408 14.27 7 12.088l7.524-5.164L16 9.07Z"/></g></svg>