<svg version="1.1" viewBox="0 0 32 32" xmlns="http://www.w3.org/2000/svg">
 <path d="M28.967 12H9.442C9.02207 11.9999 8.61276 12.132 8.2721 12.3775C7.93143 12.6231 7.6767 12.9696 7.544 13.368L4 24V10H28C28 9.46957 27.7893 8.96086 27.4142 8.58579C27.0391 8.21071 26.5304 8 26 8H15.124C14.6562 7.99979 14.2033 7.8356 13.844 7.536L12.556 6.464C12.1967 6.1644 11.7438 6.00021 11.276 6H4C3.46957 6 2.96086 6.21071 2.58579 6.58579C2.21071 6.96086 2 7.46957 2 8V24C2 24.5304 2.21071 25.0391 2.58579 25.4142C2.96086 25.7893 3.46957 26 4 26H26L30.805 14.788C30.9354 14.4838 30.9883 14.152 30.9589 13.8224C30.9295 13.4927 30.8187 13.1755 30.6366 12.8992C30.4544 12.6229 30.2065 12.3961 29.9151 12.2391C29.6237 12.0822 29.298 12 28.967 12Z" fill="#FF7043"/>
 <path d="m30 24v0.99988a1 0.99989 0 0 1-2 0v-0.99988a2 1.9998 0 0 0-2-1.9998 3.0002 2.9998 0 0 0 2.9958-3.161 3.1145 3.1142 0 0 0-3.1655-2.8384h-11.83v1.9998h2v7.9991h-2v1.9998h8v-1.9998h-2v-1.9998h4c0.81885 0.81876 0.29669 2.3078 1.1786 3.3695a1.8853 1.885 0 0 0 1.4601 0.63006h5.3612v-3.9995zm-6-3.9995h-4v-1.9998h4a1 0.99989 0 0 1 0 1.9998z" fill="#ffccbc" stroke-width=".99994"/>
</svg>
