<svg xmlns="http://www.w3.org/2000/svg" viewBox="0 0 32 32"><path d="M13.84376,7.6l-1.28749-1.0729a2,2,0,0,0-1.28036-.46355H4a2,2,0,0,0-2,2v16a2,2,0,0,0,2,2H28a2,2,0,0,0,2-2v-14a2,2,0,0,0-2-2H15.12412A2,2,0,0,1,13.84376,7.6Z" style="fill:#ff9800"/><path d="M18,23a1,1,0,1,1-1-1A1,1,0,0,1,18,23Zm14,0a5.00013,5.00013,0,1,1-8.85956-3.14276,4.62659,4.62659,0,0,1-2.28088,0,5.049,5.049,0,1,1-2.71912-1.71448,5.00013,5.00013,0,1,1,7.71912,0A4.95863,4.95863,0,0,1,32,23ZM20,23a3,3,0,1,0-3,3A3,3,0,0,0,20,23Zm2-5a3,3,0,1,0-3-3A3,3,0,0,0,22,18Zm8,5a3,3,0,1,0-3,3A3,3,0,0,0,30,23Zm-3-1a1,1,0,1,0,1,1A1,1,0,0,0,27,22Zm-5-8a1,1,0,1,0,1,1A1,1,0,0,0,22,14Z" style="fill:#ffe0b2"/></svg>