<?xml version="1.0" encoding="UTF-8"?>
<svg clip-rule="evenodd" fill-rule="evenodd" image-rendering="optimizeQuality" shape-rendering="geometricPrecision" text-rendering="geometricPrecision" version="1.1" viewBox="0 0 2400 2400" xmlns="http://www.w3.org/2000/svg">
<path d="m1439.5 999.5c-60.43 38.87-115.6 84.54-165.5 137-21.76 25.76-42.76 52.09-63 79-60.34 89.25-104.34 186.25-132 291-20.88 78.72-33.88 158.72-39 240-5.75 82.65-5.92 165.32-0.5 248-0.01 1.87-0.34 3.54-1 5-219.33 0.17-438.67 0-658-0.5-85.833-11.5-143.33-58-172.5-139.5-3.936-13.08-6.602-26.41-8-40-0.667-414-0.667-828 0-1242 12.728-86.049 60.228-142.88 142.5-170.5 12.109-3.518 24.443-5.852 37-7 207-0.667 414-0.667 621 0 66.33 66.333 132.67 132.67 199 199 240 0.333 480 0.667 720 1 74.15 9.858 127.98 48.025 161.5 114.5 12.36 26.973 18.53 55.306 18.5 85h-1700c-0.167 332 0 664 0.5 996 71.149-265.27 141.98-530.6 212.5-796h827z" fill="#388e3c" opacity=".999"/>
<path d="m2294.5 999.5c1.59 27.49 3.26 54.82 5 82 2.63 110.42-6.87 219.75-28.5 328-26.26 123.54-74.26 237.54-144 342-3.37 5.19-7.21 9.86-11.5 14-27.48 37.01-57.82 71.84-91 104.5-37.87 33.91-77.87 64.91-120 93-21.33 13.5-43.33 25.66-66 36.5-15.08 8.87-30.75 16.7-47 23.5-112.88 48.05-230.54 77.05-353 87-83.87 7.87-167.87 9.54-252 5-45.72-3.06-91.38-6.72-137-11-0.92-0.37-1.75-0.87-2.5-1.5-3.37-34.3-6.2-68.63-8.5-103 0.66-1.46 0.99-3.13 1-5-5.42-82.68-5.25-165.35 0.5-248 5.12-81.28 18.12-161.28 39-240 27.66-104.75 71.66-201.75 132-291 20.24-26.91 41.24-53.24 63-79 49.9-52.46 105.07-98.13 165.5-137 113.17-67.234 235.17-111.07 366-131.5 112.52-16.66 225.52-20.993 339-13 44.92 3.699 89.59 9.199 134 16.5 0.69 0.525 1.19 1.192 1.5 2 6.48 41.804 11.31 83.804 14.5 126z" fill="#a4d5a6" opacity=".999"/>
<path d="m2294.5 999.5h26c-7 27.33-14 54.66-21 82-1.74-27.18-3.41-54.51-5-82z" fill="#388e3c" opacity=".956"/>
<path d="m1977.5 1133.5c12.83-1.16 25.83-1.33 39-0.5-0.74 1.04-1.74 1.54-3 1.5-11.82-1-23.82-1.33-36-1z" fill="#71b374"/>
<path d="m1977.5 1133.5c12.18-0.33 24.18 0 36 1-33.58 12.46-65.91 27.62-97 45.5-112.99 63.29-214.83 141.46-305.5 234.5-85.03 88.45-159.7 184.78-224 289-14.4 25.8-29.07 51.46-44 77-9.5 18.33-19 36.67-28.5 55 5.08-130 37.25-253 96.5-369 27.68-49.04 60.01-94.7 97-137 45.86-47.56 97.7-87.06 155.5-118.5 98.87-48.98 203.54-74.82 314-77.5z" fill="#388e3c"/>
<path d="m2115.5 1765.5c-7.83 29.31-15.66 58.65-23.5 88-19.05 62.39-58.55 106.55-118.5 132.5-17.78 6.69-36.11 11.03-55 13-26.66 0.5-53.33 0.67-80 0.5 22.67-10.84 44.67-23 66-36.5 42.13-28.09 82.13-59.09 120-93 33.18-32.66 63.52-67.49 91-104.5z" fill="#388e3c" opacity=".987"/>
</svg>
