<svg xmlns="http://www.w3.org/2000/svg" viewBox="0 0 32 32"><path fill="#ff9800" d="M28.967 12H9.442a2 2 0 0 0-1.898 1.368L4 24V10h24a2 2 0 0 0-2-2H15.124a2 2 0 0 1-1.28-.464l-1.288-1.072A2 2 0 0 0 11.276 6H4a2 2 0 0 0-2 2v16a2 2 0 0 0 2 2h22l4.805-11.212A2 2 0 0 0 28.967 12"/><path fill="#ffe0b2" d="M18 23a1 1 0 1 1-1-1 1 1 0 0 1 1 1m14 0a5 5 0 1 1-8.86-3.143 4.6 4.6 0 0 1-2.28 0 5.049 5.049 0 1 1-2.72-1.714 5 5 0 1 1 7.72 0A4.96 4.96 0 0 1 32 23m-12 0a3 3 0 1 0-3 3 3 3 0 0 0 3-3m2-5a3 3 0 1 0-3-3 3 3 0 0 0 3 3m8 5a3 3 0 1 0-3 3 3 3 0 0 0 3-3m-3-1a1 1 0 1 0 1 1 1 1 0 0 0-1-1m-5-8a1 1 0 1 0 1 1 1 1 0 0 0-1-1"/></svg>