<?xml version="1.0" encoding="UTF-8"?>
<svg clip-rule="evenodd" stroke-linejoin="round" stroke-miterlimit="1.414" version="1.1" viewBox="0 0 24 24" xml:space="preserve" xmlns="http://www.w3.org/2000/svg" xmlns:xlink="http://www.w3.org/1999/xlink"><defs><linearGradient id="a" x1="37.75" x2="87.116" y1="26.139" y2="26.139" gradientTransform="scale(1.6185 .61784)" gradientUnits="userSpaceOnUse"><stop stop-color="#2A3B8F" offset="0"/><stop stop-color="#29ABE2" offset="1"/></linearGradient><linearGradient id="b" x1="65.921" x2="106.09" y1="74.788" y2="74.788" gradientTransform="scale(1.4988 .66722)" gradientUnits="userSpaceOnUse"><stop stop-color="#2A3B8F" offset="0"/><stop stop-color="#29ABE2" offset="1"/></linearGradient><linearGradient id="c" x1="100%" x2="0%" y1="50%" y2="50%"><stop stop-color="#B4D44E" offset="0"/><stop stop-color="#E7F716" offset="1"/></linearGradient><linearGradient id="linearGradient401" x1="87.083" x2="37.594" y1="187.49" y2="187.49" gradientTransform="scale(1.6226 .6163)" gradientUnits="userSpaceOnUse" xlink:href="#c"/><linearGradient id="linearGradient403" x1="106.09" x2="65.921" y1="122.6" y2="122.6" gradientTransform="scale(1.4988 .66722)" gradientUnits="userSpaceOnUse" xlink:href="#c"/></defs><path d="M19 20H4a2 2 0 0 1-2-2V6c0-1.11.89-2 2-2h6l2 2h7c1.097 0 2 .903 2 2H4v10l2.14-8h17.07l-2.28 8.5c-.23.87-1.01 1.5-1.93 1.5z" fill="#176fa6"/><g transform="matrix(.08867 0 0 .08867 9.6425 9.1661)" fill-rule="evenodd"><path d="m160.6 65.9-17.4 29.3-24.4-29.7 24.4-28.9z" fill="#166da5"/><path d="m141.3 100.2-26.5-31.7-15.9 26.6 24.7 36.1z" fill="#8fdb69"/><path d="m141 31.4-26.2 31.8-15.9-26.6 24.7-35.7z" fill="#166da5"/><path d="m61.1 31.4h79.9l-17.6-30.5h-44.7z" fill="url(#a)" opacity=".95"/><path d="m114.8 63.3h44.2l-15.9-26.8h-44.3" fill="url(#b)" opacity=".95"/><path d="m141.3 100.3h-80.3l17.6 30.5h45z" fill="url(#linearGradient401)" opacity=".95"/><path d="m78.6 130.8-37.6-65 38.1-65h-41.2l-37.5 65 37.5 65z" fill="#010101"/><path d="m114.8 68.4h44.2l-15.9 26.8h-44.3" fill="url(#linearGradient403)" opacity=".95"/></g></svg>
