<svg xmlns="http://www.w3.org/2000/svg" viewBox="0 0 32 32">
  <path d="M13.84376,7.53645l-1.28749-1.0729A2,2,0,0,0,11.27591,6H4A2,2,0,0,0,2,8V24a2,2,0,0,0,2,2H28a2,2,0,0,0,2-2V10a2,2,0,0,0-2-2H15.12412A2,2,0,0,1,13.84376,7.53645Z" style="fill: #546e7a"/>
  <path d="M22.49836,27.99815h6.92617a1.56385,1.56385,0,0,0,1.12751-.61746,1.28362,1.28362,0,0,0,.18792-.63086,1.26176,1.26176,0,0,0-.18792-.61745L25.86749,18.0787a1.14109,1.14109,0,0,0-.443-.44295,1.48405,1.48405,0,0,0-.67114-.18792,1.28859,1.28859,0,0,0-1.07383.63088l-1.1812,2.05368-2.37584-3.98657a1.31544,1.31544,0,0,0-.42953-.49664,1.51814,1.51814,0,0,0-1.24832,0,1.47657,1.47657,0,0,0-.51006.49664L12.136,26.13239a1.208,1.208,0,0,0-.13423.61745,1.24355,1.24355,0,0,0,.13423.63087,1.28634,1.28634,0,0,0,.49664.42952,1.327,1.327,0,0,0,.63088.18791h4.3624a4.26185,4.26185,0,0,0,3.87919-2.2416l2.1208-3.69127L24.74,20.13238l3.43624,5.86577H23.61245Zm-4.90089-2h-3.04l4.53333-7.8,2.28,3.89333-1.52,2.66667a2.341,2.341,0,0,1-2.26667,1.24Z" style="fill: #00e676"/>
</svg>
