<svg xmlns="http://www.w3.org/2000/svg" viewBox="0 0 16 16">
<path id="folder" fill="#4caf50" d="M14.483 6H4.721a1 1 0 0 0-.949.684L2 12V5h12a1 1 0 0 0-1-1H7.562a1 1 0 0 1-.64-.232l-.644-.536A1 1 0 0 0 5.638 3H2a1 1 0 0 0-1 1v8a1 1 0 0 0 1 1h11l2.403-5.606A1 1 0 0 0 14.483 6" />
<path id="motive" fill="#c8e6c9" d="m 9.2249015,15.000057 a 0.50073907,0.49999997 0 0 1 -0.119176,-0.014 0.56934033,0.56849996 0 0 1 -0.414611,-0.6615 L 10.239899,6.4525568 a 0.56583514,0.56499996 0 0 1 0.253875,-0.372 0.5307834,0.52999997 0 0 1 0.400591,-0.067 0.57084253,0.56999996 0 0 1 0.414612,0.662 L 9.7566865,14.547557 a 0.56082774,0.55999996 0 0 1 -0.252873,0.3715 0.5307834,0.52999997 0 0 1 -0.278912,0.081 m 3.1045815,-1 h -0.03855 a 0.54079819,0.53999996 0 0 1 -0.381562,-0.206 0.58286028,0.58199996 0 0 1 0.05658,-0.774 l 2.663932,-2.4835 -2.652415,-2.3115002 a 0.58336103,0.58249996 0 0 1 -0.08112,-0.772 0.54079819,0.53999996 0 0 1 0.377557,-0.2185 0.5307834,0.52999997 0 0 1 0.405599,0.129 l 3.126615,2.7275002 a 0.57885438,0.57799996 0 0 1 0.002,0.8615 l -3.114597,2.904 a 0.5357908,0.53499996 0 0 1 -0.364538,0.1445 z m -4.6618795,0 a 0.5357908,0.53499996 0 0 1 -0.364538,-0.146 l -3.117101,-2.9055 a 0.58085733,0.57999996 0 0 1 -0.00501,-0.846 l 0.010015,-0.009 3.127617,-2.7270002 a 0.51576126,0.51499997 0 0 1 0.400591,-0.13 0.54079819,0.53999996 0 0 1 0.37956,0.218 0.58336103,0.58249996 0 0 1 -0.08012,0.7735 l -2.6504125,2.3100002 2.6639325,2.482 a 0.57885438,0.57799996 0 0 1 0.05608,0.774 0.5357908,0.53499996 0 0 1 -0.381563,0.206 z" />
</svg>
