<svg xmlns="http://www.w3.org/2000/svg" viewBox="0 0 32 32">
  <path d="M13.84376,7.53645l-1.28749-1.0729A2,2,0,0,0,11.27591,6H4A2,2,0,0,0,2,8V24a2,2,0,0,0,2,2H28a2,2,0,0,0,2-2V10a2,2,0,0,0-2-2H15.12412A2,2,0,0,1,13.84376,7.53645Z" style="fill: #5c6bc0"/>
  <path d="M22.79071,23.762,20.482,21.5034l.02716-.02689A15.72681,15.72681,0,0,0,23.8817,15.6H26.545V13.8H20.18168V12H18.36336v1.8H12v1.8H22.15542a14.16138,14.16138,0,0,1-2.88214,4.81444A14.074,14.074,0,0,1,17.17278,17.4H15.35446a15.78656,15.78656,0,0,0,2.70861,4.1034l-4.628,4.51718,1.29168,1.27867,4.54505-4.50074,2.82782,2.79933.69112-1.83585M27.90916,19.2H26.09084L22,30h1.81832l1.01705-2.70075h4.3187l1.0261,2.69925H32l-4.09084-10.8m-2.38268,6.30074L26.99924,21.602,28.472,25.49925Z" style="fill: #c5cae9"/>
</svg>
