<svg xmlns="http://www.w3.org/2000/svg" viewBox="0 0 32 32"><path fill="#0288d1" d="M28.967 12H9.442a2 2 0 0 0-1.898 1.368L4 24V10h24a2 2 0 0 0-2-2H15.124a2 2 0 0 1-1.28-.464l-1.288-1.072A2 2 0 0 0 11.276 6H4a2 2 0 0 0-2 2v16a2 2 0 0 0 2 2h22l4.805-11.212A2 2 0 0 0 28.967 12Z"/><path fill="#b3e5fc" d="M23.448 10.106a9.975 9.975 0 0 0-2.896 0l-.634 1.653a8.495 8.495 0 0 0-2.273.942l-1.618-.72a9.977 9.977 0 0 0-2.047 2.046l.721 1.618a8.496 8.496 0 0 0-.942 2.273l-1.653.634a9.975 9.975 0 0 0 0 2.896l1.653.634a8.495 8.495 0 0 0 .942 2.273l-.72 1.618a9.977 9.977 0 0 0 2.046 2.047l1.618-.721a8.496 8.496 0 0 0 2.273.942l.634 1.653a9.974 9.974 0 0 0 2.896 0l.634-1.653a8.496 8.496 0 0 0 2.273-.942l1.618.72a9.977 9.977 0 0 0 2.047-2.046l-.721-1.618a8.495 8.495 0 0 0 .942-2.273l1.653-.634a9.975 9.975 0 0 0 0-2.896l-1.653-.634a8.495 8.495 0 0 0-.942-2.273l.72-1.618a9.977 9.977 0 0 0-2.046-2.047l-1.618.721a8.495 8.495 0 0 0-2.273-.942ZM22 13.592A6.408 6.408 0 1 1 15.592 20 6.408 6.408 0 0 1 22 13.592Z"/><path fill="#b3e5fc" d="M24.607 22.602a3.62 3.62 0 1 1-.006-5.118l.006.006-1.28 1.278a1.81 1.81 0 1 0-.004 2.56l.004-.004Z"/></svg>