<svg xmlns="http://www.w3.org/2000/svg" viewBox="0 0 16 16"><path id="folder" fill="#ff9100" d="m6.922 3.768-.644-.536A1 1 0 0 0 5.638 3H2a1 1 0 0 0-1 1v8a1 1 0 0 0 1 1h12a1 1 0 0 0 1-1V5a1 1 0 0 0-1-1H7.562a1 1 0 0 1-.64-.232"/><path id="motive" fill="#ffe0b2" d="M12 4s-1.875 1.824-1.994 3.787c-.743-.036-1.425.142-1.485.207l-.001.002c-.038.06-.514.869-.52 2-.003.597.17 1.42.5 1.997C9.705 14.1 11.986 14 11.998 14H12s3.678.084 4-4.003C16.031 7.136 12 4 12 4m0 1.248s3.038 2.559 3 4.748c-.025 1.473-.478 1.925-1 2.492 0 0-.542-.147-1.166-.577.103-.274.169-.581.166-.917-.01-1.392-.996-2.565-2-2.998.072-1.552 1-2.748 1-2.748m-1.97 3.42c.13 1.537.692 2.626 1.556 3.548a6 6 0 0 1-.586.525c-.002 0-2.959-1.296-1.75-3.995.14-.037.445-.09.78-.078m1.019.373c.484.47 1.011 1.258.951 1.953l-.012.158a4.1 4.1 0 0 1-.94-2.111"/></svg>