<svg viewBox="0 0 32 32" fill="none" xmlns="http://www.w3.org/2000/svg"><path d="M28.967 12H9.442a2 2 0 00-1.898 1.368L4 24V10h24a2 2 0 00-2-2H15.124a2 2 0 01-1.28-.464l-1.288-1.072A2 2 0 0011.276 6H4a2 2 0 00-2 2v16a2 2 0 002 2h22l4.805-11.212A2 2 0 0028.967 12z" fill="#448AFF"/><path d="M22 14.5a5.501 5.501 0 010 11 5.501 5.501 0 010-11zm0 2a3.5 3.5 0 000 7 3.5 3.5 0 000-7z" fill="#BBDEFB"/><path d="M22 10c5.523 0 10 4.477 10 10s-4.477 10-10 10-10-4.477-10-10 4.477-10 10-10zm0 2a8 8 0 100 16 8 8 0 000-16z" fill="#BBDEFB"/></svg>