<svg width="24" height="24" viewBox="0 0 24 24" fill="none" xmlns="http://www.w3.org/2000/svg">
<path d="M9 4H3C1.89 4 1 4.89 1 6V18C1 19.097 1.903 20 3 20H19C20.097 20 21 19.097 21 18V8C21 7.46957 20.7893 6.96086 20.4142 6.58579C20.0391 6.21071 19.5304 6 19 6H11L9 4Z" fill="#0D47A1"/>
<path d="M21.6488 19.0521L21.8988 20.6207C21.744 20.7107 21.494 20.7943 21.1607 20.8714C20.8214 20.955 20.4226 21 19.9643 21C18.6488 20.9743 17.6607 20.55 17 19.74C16.3214 18.9236 16 17.8886 16 16.635C16.0238 15.15 16.4286 14.0121 17.2143 13.215C17.9762 12.4114 18.9524 12 20.131 12C20.5774 12 20.9643 12.045 21.2857 12.1221C21.6071 12.1993 21.8452 12.2829 22 12.3793L21.6429 13.98L21.0238 13.7614C20.7857 13.6971 20.506 13.665 20.1905 13.665C19.506 13.6586 18.9345 13.8964 18.4881 14.3721C18.0357 14.8414 17.8095 15.5614 17.7857 16.5193C17.7917 17.3936 18.006 18.075 18.4286 18.5764C18.8512 19.0714 19.4405 19.3286 20.2083 19.335L21 19.2579C21.256 19.2064 21.4702 19.1357 21.6488 19.0521Z" fill="#0277BD"/>
</svg>
