<svg clip-rule="evenodd" stroke-linejoin="round" stroke-miterlimit="1.4142" version="1.1" viewBox="0 0 24 24" xml:space="preserve" xmlns="http://www.w3.org/2000/svg">
    <path d="M19,20L4,20C2.89,20 2,19.1 2,18L2,6C2,4.89 2.89,4 4,4L10,4L12,6L19,6C20.097,6 21,6.903 21,8L4,8L4,18L6.14,10L23.21,10L20.93,18.5C20.7,19.37 19.92,20 19,20Z" fill="#7C4DFF" fill-rule="nonzero"/>
    <path d="M22.6,10.443L22.6,14.91L18.68,17.144L18.68,12.747L22.6,10.443M18.26,12.747L18.26,17.144L14.34,14.91L14.34,10.443L18.26,12.747M18.26,17.633L18.26,22.1L14.34,19.866L14.34,15.399L18.26,17.633M13.92,10.234L13.92,14.701L10,12.467L10,8L13.92,10.234Z" fill="#D1C4E9" file-rule="nonzero"/>
</svg>
