<svg xmlns="http://www.w3.org/2000/svg" viewBox="0 0 16 16"><path id="folder" fill="#1e88e5" d="m6.922 3.768-.644-.536A1 1 0 0 0 5.638 3H2a1 1 0 0 0-1 1v8a1 1 0 0 0 1 1h12a1 1 0 0 0 1-1V5a1 1 0 0 0-1-1H7.562a1 1 0 0 1-.64-.232"/><path id="motive" fill="#bbdefb" d="M10 6a4.995 4.995 0 0 0-3.995 8H7.36A3.997 3.997 0 0 1 10 7a4 4 0 0 1 .846.09c.365-.22.754-.45 1.14-.676A4.9 4.9 0 0 0 10 6m4.242.758S9.366 8.804 8.585 9.586a2 2 0 0 0 2.829 2.828c.781-.78 2.828-5.656 2.828-5.656m.318 2.203c-.205.365-.43.759-.66 1.164A4 4 0 0 1 14 11a4 4 0 0 1-1.36 3h1.354A4.97 4.97 0 0 0 15 11a4.9 4.9 0 0 0-.44-2.04"/></svg>