<svg xmlns="http://www.w3.org/2000/svg" viewBox="0 0 16 16"><path id="folder" fill="#616161" d="m6.922 3.768-.644-.536A1 1 0 0 0 5.638 3H2a1 1 0 0 0-1 1v8a1 1 0 0 0 1 1h12a1 1 0 0 0 1-1V5a1 1 0 0 0-1-1H7.562a1 1 0 0 1-.64-.232"/><path id="motive" fill="#ffa726" d="M16 7.917V6.444a.25.25 0 0 0-.329-.237l-5.5 1.833a.25.25 0 0 0-.171.237v1.64a.25.25 0 0 0 .171.237l2.829.943-2.829.943a.25.25 0 0 0-.171.237v1.473a.25.25 0 0 0 .329.237l5.5-1.833a.25.25 0 0 0 .171-.237v-1.64a.25.25 0 0 0-.171-.237L13 9.097l2.829-.943A.25.25 0 0 0 16 7.917" data-mit-no-recolor="true"/></svg>