<svg xmlns="http://www.w3.org/2000/svg" viewBox="0 0 16 16">
<path id="folder" fill="#ffca28" d="M14.483 6H4.721a1 1 0 0 0-.949.684L2 12V5h12a1 1 0 0 0-1-1H7.562a1 1 0 0 1-.64-.232l-.644-.536A1 1 0 0 0 5.638 3H2a1 1 0 0 0-1 1v8a1 1 0 0 0 1 1h11l2.403-5.606A1 1 0 0 0 14.483 6" />
<path id="motive" fill="#ffecb3" d="m 12.003296,9.5328365 a 0.66426501,0.66310349 0 0 0 0.149833,0.5185175 1.2486184,1.2464351 0 0 0 0.304664,0.1396 c 0.269701,0.08974 0.664265,0.184473 1.043845,0.309117 1.318541,0.438744 1.478364,1.156691 1.493347,1.740023 0.005,0.07977 0.005,0.154557 0.005,0.229344 v 0.02493 c 0,0.528488 -0.229746,1.391021 -1.718099,1.48575 -0.06493,0.005 -0.124861,0.005 -0.184795,0.005 a 0.49944738,0.49857406 0 0 1 -0.09489,0.005 h -1.99779 v -0.877491 l 0.119867,-0.119657 h 1.877923 a 0.99889476,0.99714811 0 0 0 0.124862,-0.005 h 0.0849 c 0.0899,-0.005 0.164818,-0.01496 0.234741,-0.01994 a 0.99889476,0.99714811 0 0 0 0.134851,-0.02992 c 0.03496,-0.01 0.06493,-0.01994 0.09489,-0.02991 a 0.0199779,0.01994296 0 0 0 0.01498,-0.005 c 0.24473,-0.08974 0.294674,-0.224359 0.304663,-0.329059 a 0.49944738,0.49857406 0 0 0 0.005,-0.07977 c 0,-0.159544 -0.339624,-0.613246 -1.498342,-0.997148 -1.368486,-0.453703 -1.488353,-1.20655 -1.493348,-1.7998521 a 0.29966843,0.29914443 0 0 1 -0.005,-0.06481 V 9.5029314 A 1.423425,1.420936 0 0 1 11.22915,8.7101991 c 0.01998,-0.02991 0.03496,-0.05484 0.05494,-0.07977 0.005,-0.005 0.005,-0.01 0.01,-0.01496 a 0.49944738,0.49857406 0 0 1 0.0899,-0.09971 2.1476238,2.1438684 0 0 1 1.57326,-0.5085455 h 2.042739 V 9.0043625 H 13.0022 c -0.06493,0 -0.129857,0 -0.194784,0.005 -0.589349,0.02991 -0.744177,0.1994296 -0.789127,0.3490021 a 0.06492816,0.06481463 0 0 0 -0.005,0.02991 0.49944738,0.49857406 0 0 0 -0.01,0.1146714 z M 8.0077164,13.990089 a 1.8179885,1.8148096 0 0 1 -1.997789,-1.994297 h 0.998894 c 0,0.717947 0.279691,0.997149 0.998895,0.997149 0.719205,0 0.998895,-0.279202 0.998895,-0.997149 V 8.0072 h 0.9988946 v 3.988592 a 1.8179885,1.8148096 0 0 1 -1.9977896,1.994297" />
</svg>
