<svg xmlns="http://www.w3.org/2000/svg" viewBox="0 0 16 16">
<path fill="#1e88e5" d="m6.922 3.768-.644-.536A1 1 0 0 0 5.638 3H2a1 1 0 0 0-1 1v8a1 1 0 0 0 1 1h12a1 1 0 0 0 1-1V5a1 1 0 0 0-1-1H7.562a1 1 0 0 1-.64-.232" id="folder"/>
<path fill="#bbdefb" d="M6 9H4.25a0.25 0.25 0 0 0-0.25 0.25v4.5a0.25 0.25 0 0 0 0.25 0.25h0.5a0.25 0.25 0 0 0 0.25-0.25V12h1a1 1 0 0 0 1-1v-1a1 1 0 0 0-1-1m0 1.75a0.25 0.25 0 0 1-0.25 0.25H5v-1h0.75a0.25 0.25 0 0 1 0.25 0.25ZM14 9h-1.75a0.25 0.25 0 0 0-0.25 0.25v4.5a0.25 0.25 0 0 0 0.25 0.25h0.5a0.25 0.25 0 0 0 0.25-0.25V12h1a1 1 0 0 0 1-1v-1a1 1 0 0 0-1-1m0 1.75a0.25 0.25 0 0 1-0.25 0.25H13v-1h0.75a0.25 0.25 0 0 1 0.25 0.25ZM10 9h-1v-1.75a0.25 0.25 0 0 0-0.25-0.25h-0.5a0.25 0.25 0 0 0-0.25 0.25v4.5a0.25 0.25 0 0 0 0.25 0.25h0.5a0.25 0.25 0 0 0 0.25-0.25V10h0.75a0.25 0.25 0 0 1 0.25 0.25v1.5a0.25 0.25 0 0 0 0.25 0.25h0.5a0.25 0.25 0 0 0 0.25-0.25V10a1 1 0 0 0-1-1" id="motive"/>
</svg>
