<svg xmlns="http://www.w3.org/2000/svg" viewBox="0 0 16 16">
<path id="folder" fill="#afb42b" d="M14.483 6H4.721a1 1 0 0 0-.949.684L2 12V5h12a1 1 0 0 0-1-1H7.562a1 1 0 0 1-.64-.232l-.644-.536A1 1 0 0 0 5.638 3H2a1 1 0 0 0-1 1v8a1 1 0 0 0 1 1h11l2.403-5.606A1 1 0 0 0 14.483 6" />
<path id="motive" fill="#f0f4c3" d="m 14.08894,6.0000676 a 0.78499337,0.78499332 0 0 0 -0.568995,0.2334979 l -2.309981,2.3454809 2.246481,2.2774796 2.313981,-2.3419796 a 0.82299305,0.82299299 0 0 0 0,-1.1399899 L 14.640935,6.2335655 A 0.7699935,0.76999345 0 0 0 14.08894,6.0000676 m -3.260472,2.9619747 -2.36948,2.4014797 a 0.8174931,0.81749304 0 0 0 0.004,1.14549 l 0.004,0.004 C 7.981492,13.008508 7.488996,13.505004 7,14 h 2.249981 l 0.341997,-0.346497 a 0.78999333,0.78999328 0 0 0 1.116991,-0.008 l 2.36598,-2.40148" />
</svg>
