<?xml version="1.0" encoding="utf-8"?>
<svg xmlns="http://www.w3.org/2000/svg" viewBox="0 0 32 32" xmlns:bx="https://boxy-svg.com" width="32px" height="32px"><defs><bx:export><bx:file format="svg"/></bx:export><bx:export><bx:file format="svg" excluded="true"/></bx:export></defs><path d="M 13.86 7.524 L 12.572 6.452 C 12.213 6.152 11.76 5.988 11.292 5.988 L 4.016 5.988 C 2.911 5.988 2.016 6.883 2.016 7.988 L 2.016 23.988 C 2.016 25.092 2.911 25.988 4.016 25.988 L 28.016 25.988 C 29.121 25.988 30.016 25.092 30.016 23.988 L 30.016 9.988 C 30.016 8.883 29.121 7.988 28.016 7.988 L 15.14 7.988 C 14.672 7.988 14.219 7.823 13.86 7.524" style="fill: rgb(236, 64, 122);"/><path d="M 18.063 10.084 C 18.153 10.084 18.243 10.084 18.333 10.084 C 20.049 10.077 21.632 10.913 22.858 12.067 C 22.932 12.138 23.015 12.209 23.095 12.277 C 24.042 13.102 24.768 14.193 25.283 15.329 C 25.366 15.512 25.458 15.692 25.548 15.869 C 25.56 15.861 25.572 15.847 25.585 15.835 C 25.298 14.831 24.718 13.954 24.079 13.14 C 24.052 13.106 24.024 13.073 24 13.035 C 23.792 12.78 23.573 12.538 23.345 12.303 C 23.323 12.277 23.3 12.254 23.277 12.233 C 22.988 11.931 22.69 11.649 22.355 11.4 C 22.294 11.359 22.238 11.313 22.181 11.266 C 21.958 11.089 21.728 10.934 21.479 10.791 C 21.424 10.761 21.369 10.727 21.315 10.694 C 21.315 10.668 21.315 10.646 21.315 10.62 C 22.011 10.499 22.697 10.468 23.401 10.463 C 23.464 10.463 23.464 10.463 23.526 10.463 C 24.82 10.46 25.795 10.737 26.845 11.499 C 26.881 11.524 26.918 11.548 26.959 11.579 C 27.231 11.774 27.476 11.996 27.718 12.232 C 27.737 12.249 27.755 12.267 27.774 12.282 C 28.471 12.946 29.013 13.76 29.347 14.666 C 29.357 14.696 29.371 14.728 29.381 14.764 C 29.447 14.946 29.488 15.117 29.503 15.312 C 29.474 15.298 29.474 15.298 29.445 15.286 C 28.837 14.984 28.837 14.984 28.172 14.888 C 28.229 14.903 28.229 14.903 28.287 14.917 C 28.553 14.979 28.804 15.046 29.046 15.169 C 28.955 15.234 28.899 15.257 28.794 15.286 C 28.239 15.431 27.826 15.637 27.517 16.149 C 27.463 16.251 27.416 16.358 27.369 16.465 C 27.358 16.494 27.346 16.52 27.333 16.548 C 27.189 16.926 27.207 17.467 27.356 17.842 C 27.622 18.354 28.014 18.627 28.553 18.809 C 28.874 18.899 29.208 18.919 29.54 18.951 C 29.466 19.778 29.072 20.744 28.437 21.301 C 27.98 21.642 27.481 21.925 26.981 22.202 C 26.912 22.241 26.843 22.28 26.774 22.32 C 26.276 22.607 25.763 22.854 25.236 23.08 C 25.223 22.75 25.26 22.426 25.304 22.099 C 25.039 22.833 25.036 23.647 25.164 24.411 C 25.172 24.475 25.172 24.475 25.182 24.54 C 25.308 25.456 25.725 26.329 26.213 27.103 C 26.096 27.258 25.976 27.37 25.811 27.473 C 25.781 27.493 25.781 27.493 25.747 27.515 C 25.224 27.834 24.614 27.978 24.012 27.837 C 23.857 27.797 23.704 27.752 23.554 27.699 C 23.518 27.691 23.518 27.691 23.486 27.678 C 23.366 27.636 23.318 27.609 23.262 27.494 C 23.229 27.342 23.198 27.187 23.17 27.036 C 23.162 27.002 23.158 26.972 23.151 26.939 C 23.029 26.264 23.01 25.609 23.018 24.927 C 23.018 24.818 23.018 24.711 23.018 24.603 C 23.018 23.964 23.037 23.332 23.098 22.694 C 23.101 22.658 23.106 22.62 23.11 22.583 C 23.238 21.227 23.554 19.896 23.853 18.572 C 24.352 16.477 24.352 16.477 23.762 14.469 C 23.508 14.078 23.215 13.719 22.855 13.421 C 22.815 13.389 22.778 13.354 22.738 13.318 C 22.38 13.016 22.005 12.773 21.596 12.544 C 21.565 12.533 21.541 12.515 21.511 12.499 C 20.686 12.04 19.789 11.71 18.865 11.532 C 18.809 11.52 18.809 11.52 18.751 11.508 C 17.889 11.349 16.924 11.485 16.17 11.951 C 16.258 11.951 16.32 11.926 16.404 11.892 C 16.437 11.879 16.473 11.868 16.504 11.855 C 16.574 11.828 16.643 11.803 16.712 11.78 C 17.811 11.37 19.067 11.527 20.121 11.984 C 20.171 12.017 20.218 12.051 20.265 12.09 C 20.235 12.097 20.211 12.1 20.18 12.104 C 19.067 12.282 19.067 12.282 18.033 12.735 C 17.775 12.888 17.538 12.98 17.239 13.038 C 16.875 13.138 16.65 13.447 16.467 13.753 C 16.306 14.036 16.2 14.34 16.089 14.64 C 16.064 14.724 16.031 14.809 15.998 14.888 C 15.707 14.796 15.605 14.502 15.473 14.246 C 15.149 13.592 14.976 12.989 14.968 12.256 C 14.968 12.216 14.968 12.173 14.966 12.134 C 14.971 11.599 15.11 11.169 15.478 10.777 C 15.8 10.499 16.218 10.373 16.625 10.274 C 16.689 10.251 16.756 10.234 16.819 10.215 C 17.233 10.105 17.638 10.084 18.063 10.084 Z" style="fill: rgb(248, 187, 208);"/><path d="M 12.425 18.356 C 12.614 18.448 12.752 18.603 12.877 18.767 C 12.965 18.863 13.06 18.944 13.157 19.028 C 13.691 19.49 14.178 20.002 14.679 20.501 C 14.744 20.57 14.809 20.636 14.873 20.699 C 14.708 20.489 14.539 20.288 14.345 20.101 C 14.26 20.016 14.178 19.922 14.101 19.831 C 13.997 19.71 13.888 19.597 13.784 19.479 C 13.72 19.405 13.72 19.405 13.72 19.334 C 13.775 19.334 13.775 19.334 13.834 19.332 C 14.51 19.305 15.175 19.208 15.802 18.939 C 16.141 18.814 16.596 18.825 16.924 18.967 C 17.091 19.068 17.226 19.197 17.359 19.334 C 17.391 19.363 17.416 19.39 17.446 19.42 C 17.525 19.496 17.599 19.572 17.675 19.651 C 17.701 19.68 17.732 19.704 17.756 19.734 C 17.861 19.836 17.958 19.943 18.057 20.049 C 18.187 20.192 18.322 20.335 18.461 20.469 C 18.522 20.534 18.576 20.602 18.636 20.667 C 19.024 21.109 19.568 21.204 20.121 21.299 C 20.171 21.305 20.218 21.316 20.265 21.324 C 20.336 21.338 20.406 21.349 20.477 21.362 C 21.825 21.602 21.825 21.602 22.174 21.986 C 22.279 22.15 22.286 22.291 22.261 22.486 C 21.958 23.383 20.68 23.87 19.903 24.283 C 19.863 24.304 19.824 24.325 19.783 24.347 C 19.703 24.39 19.627 24.432 19.547 24.472 C 19.165 24.673 18.82 24.907 18.488 25.172 C 18.432 25.216 18.379 25.258 18.324 25.301 C 18.297 25.322 18.27 25.341 18.243 25.364 C 18.044 25.517 17.846 25.667 17.639 25.807 C 17.609 25.831 17.609 25.831 17.578 25.854 C 17.283 26.056 17.024 26.153 16.66 26.088 C 16.019 25.903 15.476 25.222 15.122 24.689 C 15.048 24.353 15.211 24.044 15.338 23.742 C 15.392 23.608 15.404 23.486 15.412 23.347 C 15.413 23.31 15.413 23.273 15.419 23.236 C 15.419 23.198 15.419 23.16 15.421 23.124 C 15.424 23.066 15.424 23.066 15.424 23.009 C 15.429 22.913 15.43 22.822 15.435 22.729 C 15.607 22.784 15.764 22.855 15.925 22.939 C 15.949 23.236 15.867 23.475 15.768 23.752 C 15.739 23.837 15.71 23.924 15.681 24.011 C 15.665 24.05 15.654 24.087 15.637 24.128 C 15.599 24.279 15.586 24.396 15.654 24.539 C 15.914 24.937 16.207 25.248 16.675 25.373 C 17.229 25.482 17.776 25.19 18.227 24.89 C 18.522 24.688 18.78 24.444 19.04 24.198 C 19.269 23.987 19.504 23.791 19.75 23.601 C 19.857 23.517 19.964 23.434 20.068 23.348 C 20.371 23.103 20.682 22.872 20.998 22.645 C 21.043 22.609 21.092 22.573 21.143 22.538 C 21.303 22.412 21.303 22.412 21.435 22.417 C 21.523 22.449 21.523 22.449 21.562 22.521 C 21.568 22.586 21.574 22.651 21.58 22.718 C 21.582 22.751 21.585 22.787 21.585 22.822 C 21.592 22.851 21.592 22.876 21.596 22.905 C 21.612 22.662 21.622 22.465 21.473 22.262 C 21.261 22.028 21.009 21.908 20.691 21.88 C 20.622 21.88 20.547 21.885 20.475 21.89 C 20.578 21.959 20.617 21.97 20.739 21.986 C 20.961 22.028 21.151 22.129 21.351 22.241 C 21.351 22.275 21.351 22.31 21.351 22.346 C 20.459 22.809 20.459 22.809 19.985 22.939 C 19.94 22.954 19.889 22.969 19.842 22.984 C 18.589 23.362 17.101 23.434 15.913 22.816 C 14.971 22.301 14.237 21.559 13.638 20.683 C 13.412 20.357 13.157 20.072 12.881 19.793 C 12.854 19.762 12.822 19.734 12.796 19.702 C 12.656 19.56 12.508 19.428 12.358 19.303 C 12.376 19.449 12.414 19.516 12.525 19.617 C 12.564 19.659 12.564 19.659 12.606 19.698 C 12.632 19.723 12.657 19.751 12.69 19.778 C 12.742 19.831 12.798 19.883 12.854 19.936 C 12.893 19.97 12.893 19.97 12.928 20.006 C 12.987 20.067 12.987 20.067 13.021 20.175 C 12.53 19.989 12.015 19.616 11.775 19.144 C 11.709 18.971 11.716 18.814 11.763 18.634 C 11.918 18.377 12.137 18.303 12.425 18.356 Z" style="fill: rgb(245, 245, 245);"/><path d="M 31.953 15.138 C 31.971 15.602 31.964 16.021 31.812 16.465 C 31.8 16.509 31.785 16.553 31.769 16.6 C 31.46 17.44 30.868 18.176 30.059 18.574 C 29.918 18.634 29.794 18.662 29.644 18.671 C 29.577 18.675 29.577 18.675 29.508 18.678 C 28.901 18.698 28.337 18.579 27.86 18.188 C 27.627 17.967 27.475 17.677 27.466 17.356 C 27.453 16.694 27.453 16.694 27.617 16.396 C 27.63 16.364 27.646 16.334 27.663 16.303 C 27.894 15.899 28.193 15.611 28.644 15.472 C 28.95 15.416 29.274 15.43 29.581 15.467 C 30.15 15.534 30.746 15.534 31.288 15.346 C 31.315 15.334 31.339 15.329 31.366 15.319 C 31.502 15.273 31.634 15.227 31.768 15.179 C 31.885 15.138 31.885 15.138 31.953 15.138 Z" style="fill: rgb(248, 187, 208);"/><path d="M 20.685 8.492 C 20.937 8.605 21.054 9.022 21.154 9.256 C 21.187 9.332 21.219 9.407 21.255 9.489 C 21.272 9.526 21.284 9.563 21.303 9.604 C 21.347 9.705 21.39 9.806 21.435 9.908 C 21.448 9.933 21.463 9.961 21.475 9.992 C 21.502 10.046 21.523 10.098 21.548 10.153 C 21.598 10.259 21.628 10.33 21.628 10.445 C 21.523 10.46 21.419 10.472 21.315 10.482 C 21.287 10.485 21.26 10.49 21.232 10.494 C 20.967 10.517 20.772 10.426 20.542 10.319 C 20.273 10.201 19.999 10.117 19.718 10.037 C 19.686 10.025 19.652 10.015 19.62 10.008 C 19.59 10 19.56 9.992 19.532 9.982 C 19.459 9.958 19.459 9.958 19.389 9.887 C 20.187 8.404 20.187 8.404 20.685 8.492 Z" style="fill: rgb(248, 187, 208);"/></svg>