<svg xmlns="http://www.w3.org/2000/svg" viewBox="0 0 16 16"><path id="folder" fill="#546e7a" d="m6.922 3.768-.644-.536A1 1 0 0 0 5.638 3H2a1 1 0 0 0-1 1v8a1 1 0 0 0 1 1h12a1 1 0 0 0 1-1V5a1 1 0 0 0-1-1H7.562a1 1 0 0 1-.64-.232"/><path id="motive" fill="#cfd8dc" d="M12.5 5 9 6.636v2.455c0 2.27 1.493 4.394 3.5 4.909 2.007-.515 3.5-2.639 3.5-4.91V6.637Zm0 1.637a1.229 1.229 0 1 1-1.166 1.227A1.2 1.2 0 0 1 12.5 6.637m1.995 4.908a3.8 3.8 0 0 1-1.995 1.604 3.8 3.8 0 0 1-1.995-1.604 4 4 0 0 1-.339-.625c0-.676 1.054-1.228 2.334-1.228s2.333.54 2.333 1.228a4 4 0 0 1-.338.625"/></svg>