<svg xmlns="http://www.w3.org/2000/svg" viewBox="0 0 32 32"><path fill="#ff5252" d="m13.844 7.536-1.288-1.072A2 2 0 0 0 11.276 6H4a2 2 0 0 0-2 2v16a2 2 0 0 0 2 2h24a2 2 0 0 0 2-2V10a2 2 0 0 0-2-2H15.124a2 2 0 0 1-1.28-.464Z"/><path fill="#ffcdd2" d="M10.5 26H12v-6h-1.5a.5.5 0 0 0-.5.5v5a.5.5 0 0 0 .5.5ZM30 20v6h1.5a.5.5 0 0 0 .5-.5v-5a.5.5 0 0 0-.5-.5Zm-8.5-8h-1a.5.5 0 0 0-.5.5V16h-5.5a.5.5 0 0 0-.5.5v11a.5.5 0 0 0 .5.5h13a.5.5 0 0 0 .5-.5v-11a.5.5 0 0 0-.5-.5H22v-3.5a.5.5 0 0 0-.5-.5ZM18 18a2 2 0 1 1-2 2 2 2 0 0 1 2-2Zm8 8H16v-2h10Zm-2-8a2 2 0 1 1-2 2 2 2 0 0 1 2-2Z"/></svg>