<svg xmlns="http://www.w3.org/2000/svg" viewBox="0 0 16 16"><path id="folder" fill="#ef5350" d="m6.922 3.768-.644-.536A1 1 0 0 0 5.638 3H2a1 1 0 0 0-1 1v8a1 1 0 0 0 1 1h12a1 1 0 0 0 1-1V5a1 1 0 0 0-1-1H7.562a1 1 0 0 1-.64-.232"/><path id="motive" fill="#ffcdd2" d="M12 5a1.46 1.46 0 0 0-.652.154l-2.696 1.35A1.18 1.182 0 0 0 8 7.56v3.88a1.18 1.182 0 0 0 .652 1.055l2.695 1.35a1.46 1.46 0 0 0 1.305 0l2.695-1.35A1.18 1.182 0 0 0 16 11.44V7.56a1.18 1.182 0 0 0-.652-1.056l-2.695-1.35A1.46 1.46 0 0 0 11.999 5m0 .665a1.438 1.439 0 0 1 .643.153l2.024 1.012-.833.417-1.834-.917-1.833.917-.834-.417 2.024-1.012A1.438 1.439 0 0 1 12 5.665zM9.133 7.438a.441.442 0 0 1 .172.045L12 8.833l2.695-1.35a.441.442 0 0 1 .157-.044.441.442 0 0 1 .481.439v3.077a1.154 1.155 0 0 1-.638 1.033l-2.057 1.03a1.43 1.43 0 0 1-1.276 0l-2.057-1.03a1.154 1.155 0 0 1-.638-1.033V7.878a.441.442 0 0 1 .466-.44m.2.894v2.836L12 12.503l2.667-1.335V8.332L12.6 9.367a1.34 1.34 0 0 1-1.2 0z"/></svg>