<?xml version="1.0" encoding="UTF-8" standalone="no"?>
<svg
   xmlns:dc="http://purl.org/dc/elements/1.1/"
   xmlns:cc="http://creativecommons.org/ns#"
   xmlns:rdf="http://www.w3.org/1999/02/22-rdf-syntax-ns#"
   xmlns:svg="http://www.w3.org/2000/svg"
   xmlns="http://www.w3.org/2000/svg"
   id="svg4855"
   viewBox="0 0 24 24"
   height="24"
   width="24"
   version="1.1">
  <metadata
     id="metadata4861">
    <rdf:RDF>
      <cc:Work
         rdf:about="">
        <dc:format>image/svg+xml</dc:format>
        <dc:type
           rdf:resource="http://purl.org/dc/dcmitype/StillImage" />
        <dc:title></dc:title>
      </cc:Work>
    </rdf:RDF>
  </metadata>
  <defs
     id="defs4859" />
  <path
     id="path4876"
     d="m 10.946105,16.628948 v -5.98305 h 5.890109 5.890109 v 5.98305 5.983049 h -5.890109 -5.890109 z"
     style="fill:#fefefe;stroke-width:0.04240284;opacity:0" />
  <path
     id="path4874"
     d="m 17.844437,20.568908 c -0.01949,-0.0198 -0.03502,-0.426742 -0.03451,-0.904322 8.6e-4,-0.837334 0.0053,-0.872563 0.124121,-0.986909 0.235992,-0.227143 0.364935,-0.769278 0.39288,-1.651868 l 0.02529,-0.798638 -0.577217,0.602801 c -2.612158,2.727929 -4.901008,3.80707 -7.08818,3.341915 C 9.7774958,19.978497 9.2454224,19.611355 8.9293534,18.959197 8.7865766,18.664598 8.7684683,18.571059 8.761429,18.091746 c -0.00468,-0.322075 0.020226,-0.623737 0.06232,-0.753203 0.095015,-0.292222 0.3929787,-0.698062 0.6147335,-0.837277 0.2358955,-0.148093 0.8439715,-0.323821 1.1152905,-0.322308 0.24083,0.0013 0.630155,0.163496 0.815358,0.339598 0.600586,0.571073 0.124664,1.774874 -0.640259,1.619475 -0.198081,-0.04023 -0.453704,-0.299354 -0.508943,-0.515894 -0.0569,-0.223037 -0.133371,-0.239029 -0.2952172,-0.06174 -0.2006096,0.219762 -0.2371386,0.599615 -0.087804,0.912981 0.2423372,0.508501 0.6597882,0.680992 1.7312282,0.715336 0.649655,0.02082 0.804,0.0086 1.169315,-0.09281 1.049264,-0.291183 2.342685,-1.128219 3.583333,-2.318955 l 0.39863,-0.382593 -0.406945,0.03367 C 15.71022,16.477846 14.152189,16.300701 13.362533,16.092627 12.435502,15.848355 12.041555,15.7358 11.89087,15.672161 11.79868,15.633221 11.507989,15.546738 11.244893,15.479955 10.981797,15.413175 10.658907,15.326453 10.527358,15.287234 10.395811,15.248024 10.060961,15.162241 9.7832491,15.096622 9.5055361,15.031002 9.2607449,14.9498 9.2392685,14.91617 c -0.021477,-0.03363 -0.039416,-0.298626 -0.039858,-0.588879 -7.997e-4,-0.517134 0.00189,-0.528789 0.1355227,-0.580386 0.074991,-0.02895 0.2027889,-0.05265 0.2840099,-0.05265 0.2266913,0 1.8570519,-0.394658 2.8846269,-0.698276 1.4696,-0.434224 2.384787,-0.608853 3.205987,-0.611745 0.480848,-0.0017 0.820256,0.02717 1.116164,0.09493 0.917853,0.210153 1.461105,0.349909 2.072877,0.533265 1.676799,0.502564 1.746826,0.519859 2.095425,0.517514 0.19223,-0.0013 0.445179,-0.02053 0.562111,-0.04276 0.116932,-0.02223 0.249886,-0.03243 0.295453,-0.02268 0.09405,0.02012 0.475718,0.842028 0.475424,1.023803 -1.6e-4,0.101365 -0.05781,0.136354 -0.385536,0.233973 -0.644709,0.192043 -1.418605,0.607522 -1.809761,0.971601 -0.578889,0.538818 -0.594873,0.891167 -0.05907,1.302087 0.158178,0.121305 0.287596,0.252204 0.287596,0.290874 0,0.03866 -0.0897,0.0995 -0.199315,0.13517 -0.24223,0.07882 -0.521017,0.283486 -0.606323,0.445111 -0.03463,0.06561 -0.117299,0.341974 -0.183724,0.614154 -0.178093,0.729763 -0.378762,1.088652 -0.91987,1.645142 -0.448335,0.461082 -0.529772,0.520487 -0.606567,0.442478 z m -0.660558,-5.529275 c 0.299969,-0.06064 0.653027,-0.146005 0.784576,-0.189709 0.44842,-0.14898 1.116165,-0.423668 1.116165,-0.459154 0,-0.04707 -1.976321,-0.750499 -2.108562,-0.750499 -0.0096,0 -0.01747,0.07197 -0.01747,0.159943 0,0.313561 -0.20524,0.743083 -0.461311,0.965419 -0.501127,0.435109 -1.166208,0.409654 -1.630951,-0.06242 -0.241246,-0.245057 -0.438393,-0.739739 -0.392337,-0.984464 0.01438,-0.07637 -1.06e-4,-0.132446 -0.03413,-0.132421 -0.274399,2.17e-4 -2.512604,0.640131 -2.540487,0.72635 -0.01766,0.05461 1.05954,0.390439 1.817036,0.566478 0.388602,0.09032 1.081745,0.205916 1.753972,0.292538 0.336905,0.0434 1.158804,-0.01993 1.713507,-0.132058 z M 9.2648446,13.524006 c -0.069116,-0.07021 -0.096164,-0.983497 -0.033996,-1.148069 0.017749,-0.04697 0.087674,-0.0854 0.1553974,-0.0854 0.281653,0 1.633124,-0.325101 2.921656,-0.702815 1.572758,-0.46103 2.731077,-0.697488 3.42822,-0.699832 0.434277,-0.0015 1.895801,0.270103 2.498083,0.464163 0.131549,0.04238 0.442479,0.136093 0.690959,0.208238 0.248479,0.07215 0.690959,0.205244 0.983288,0.295776 0.564257,0.174746 1.022693,0.209678 1.770065,0.134871 l 0.366806,-0.03671 0.193894,0.470496 c 0.208611,0.506211 0.231088,0.632469 0.127454,0.715967 -0.14762,0.118941 -0.678666,0.201841 -1.288904,0.201212 -0.666227,-6.88e-4 -0.887697,-0.0527 -2.68411,-0.630246 -0.422235,-0.135752 -0.530688,-0.163579 -1.432135,-0.367466 -0.967555,-0.21884 -1.528542,-0.218723 -2.561142,5.39e-4 -0.42004,0.0892 -0.919176,0.209077 -1.10919,0.266416 -1.035663,0.312519 -1.674198,0.491326 -2.126028,0.595348 -0.277712,0.06393 -0.63648,0.149148 -0.79726,0.189361 -0.160781,0.04021 -0.4119191,0.0891 -0.5580821,0.108658 -0.1461651,0.01955 -0.3136727,0.04707 -0.372239,0.06117 -0.058567,0.0141 -0.1363009,-0.0047 -0.1727401,-0.04167 z"
     style="opacity:1;fill:#d0d0d0;stroke-width:0.0535684" />
  <path
     id="path4872"
     d="m 17.870477,20.483779 c -0.04076,-0.04138 -0.06148,-0.320487 -0.06148,-0.827881 0,-0.628848 0.01486,-0.777957 0.08323,-0.835602 0.277061,-0.233568 0.450605,-0.892582 0.486171,-1.84618 0.01633,-0.437989 0.0144,-0.796345 -0.0043,-0.796345 -0.01869,0 -0.291011,0.270561 -0.605167,0.601245 -1.69379,1.782904 -3.369736,2.920381 -4.876399,3.309651 -1.238181,0.319903 -2.775016,0.08947 -3.456436,-0.518271 -0.4754059,-0.423997 -0.6963468,-1.010059 -0.6485882,-1.720425 0.063242,-0.940653 0.6466356,-1.520914 1.6125392,-1.603869 0.71935,-0.06178 1.190292,0.330501 1.190292,0.991482 0,0.915254 -1.082633,1.19969 -1.333174,0.35026 -0.06828,-0.231496 -0.124361,-0.263855 -0.2653406,-0.153102 -0.181407,0.142513 -0.2704488,0.358094 -0.2731308,0.661298 -0.0067,0.752127 0.6932494,1.155884 2.0076904,1.158189 1.158441,0.002 2.32273,-0.513564 3.717381,-1.646209 0.450166,-0.365595 1.302197,-1.153833 1.302176,-1.204679 -9e-6,-0.02013 -0.364755,-0.03767 -0.810548,-0.03899 -1.126563,-0.0032 -1.931079,-0.124956 -3.228862,-0.488235 -0.365411,-0.102286 -0.720302,-0.210337 -0.788649,-0.240113 -0.129356,-0.05636 -1.26541,-0.364594 -2.0017629,-0.543129 -0.7065372,-0.1713 -0.6643878,-0.124105 -0.6643878,-0.743811 0,-0.574682 0.012974,-0.600818 0.2981603,-0.600818 0.3131862,0 2.2866464,-0.497191 3.6543564,-0.920673 0.08373,-0.02592 0.514254,-0.125359 0.956712,-0.220955 0.684985,-0.148 0.91499,-0.173965 1.548582,-0.174823 0.867628,-0.0012 1.414885,0.105248 3.082739,0.599502 0.555425,0.164593 1.164203,0.344479 1.352839,0.399746 0.483742,0.141724 0.930591,0.176415 1.325645,0.102914 0.413947,-0.07702 0.417902,-0.07398 0.669485,0.513877 0.211196,0.493491 0.208047,0.502004 -0.238653,0.645289 -0.814854,0.261377 -1.52503,0.667442 -1.950201,1.11509 -0.434793,0.457779 -0.41933,0.808761 0.05224,1.185773 0.152274,0.121734 0.284252,0.241221 0.293286,0.265515 0.009,0.0243 -0.0983,0.09572 -0.238516,0.158724 -0.26368,0.118474 -0.468552,0.283166 -0.555077,0.446201 -0.02743,0.05168 -0.106523,0.320827 -0.175764,0.598092 -0.164925,0.660409 -0.371125,1.062539 -0.772858,1.507226 -0.415839,0.460298 -0.600542,0.599056 -0.684244,0.514032 z M 17.208345,15.07539 c 0.805391,-0.16766 2.059491,-0.619136 1.970612,-0.709418 -0.05178,-0.05259 -1.514696,-0.563169 -2.146369,-0.749114 -0.101878,-0.02999 -0.11471,-0.0066 -0.141623,0.258275 -0.05538,0.544942 -0.385539,0.968078 -0.870507,1.115621 -0.705501,0.214633 -1.503198,-0.422087 -1.505907,-1.202012 -6.76e-4,-0.187314 -0.02162,-0.256449 -0.07776,-0.256449 -0.182329,0 -2.653388,0.703748 -2.724425,0.775906 -0.02444,0.02482 0.380076,0.15842 1.392803,0.459983 0.343934,0.102422 1.073593,0.256345 1.780548,0.375629 0.605873,0.102224 1.650741,0.07145 2.322631,-0.06842 z M 9.2871752,13.4963 c -0.056319,-0.05721 -0.041058,-1.087887 0.01665,-1.124109 0.028639,-0.01799 0.2562228,-0.06889 0.5057268,-0.113131 0.510344,-0.09048 1.828972,-0.42188 2.551506,-0.641239 1.382398,-0.419693 2.674965,-0.677712 3.387477,-0.676199 0.349505,7.44e-4 1.061394,0.108494 1.768139,0.267632 0.331545,0.07465 1.379279,0.375632 2.27616,0.653864 0.586689,0.182006 0.749567,0.211133 1.169316,0.209109 0.268222,-0.0013 0.595305,-0.02388 0.726853,-0.05017 0.297572,-0.0595 0.315985,-0.04253 0.552137,0.509149 0.130369,0.304554 0.169931,0.456149 0.135898,0.520741 -0.07955,0.151 -0.554113,0.237456 -1.299267,0.236706 -0.601045,-6.06e-4 -0.749751,-0.01957 -1.142742,-0.145714 -1.050417,-0.337172 -2.144531,-0.655313 -2.79041,-0.811382 -0.587215,-0.141892 -0.798696,-0.167493 -1.408495,-0.170504 -0.830211,-0.0041 -1.398279,0.10441 -2.971045,0.567539 -1.308867,0.385416 -2.078981,0.575891 -2.9286814,0.724358 -0.5245363,0.09166 -0.503329,0.08997 -0.5492224,0.04335 z"
     style="opacity:1;fill:#afafaf;stroke-width:0.0535684" />
  <path
     id="path4870"
     d="m 17.862154,19.666696 c 0,-0.689256 0.0142,-0.842191 0.08361,-0.900709 0.127659,-0.107623 0.265793,-0.418051 0.358904,-0.806565 0.08101,-0.338041 0.140666,-1.747158 0.07671,-1.812118 -0.01604,-0.01629 -0.157372,0.109492 -0.314062,0.279537 -2.417539,2.623507 -4.640138,3.90009 -6.58269,3.780865 -1.003523,-0.06159 -1.7002878,-0.312265 -2.156945,-0.776 -0.3597622,-0.36534 -0.4682448,-0.649946 -0.4922884,-1.291543 -0.02303,-0.614383 0.027048,-0.836092 0.2705288,-1.198069 0.2112273,-0.314018 0.5321816,-0.510232 1.0290056,-0.629079 0.348763,-0.08343 0.448621,-0.08845 0.654456,-0.03292 0.486245,0.131163 0.802514,0.497738 0.799812,0.927032 -0.0015,0.248107 -0.164314,0.598837 -0.344803,0.743049 -0.225842,0.18045 -0.574972,0.161873 -0.774923,-0.04124 -0.08581,-0.08716 -0.170555,-0.232381 -0.188343,-0.322725 -0.04932,-0.250517 -0.138296,-0.295717 -0.310787,-0.157895 -0.4748256,0.379392 -0.3565827,1.178514 0.227302,1.536193 0.352695,0.216054 0.788639,0.301004 1.553143,0.302653 0.734121,0.0015 1.211277,-0.114091 1.935946,-0.469297 0.909665,-0.445891 2.408731,-1.597259 2.984378,-2.292172 l 0.150446,-0.181614 -0.42313,0.02932 c -1.070038,0.07415 -2.94321,-0.22692 -4.307963,-0.692402 C 11.715352,15.533058 10.925678,15.316182 9.9197254,15.06483 9.6293822,14.992293 9.3603063,14.906352 9.32178,14.873873 9.249645,14.813056 9.2198548,14.057405 9.2830086,13.890235 c 0.018937,-0.05011 0.1290874,-0.0961 0.2790416,-0.116478 0.5019638,-0.06824 1.9762018,-0.423657 2.9318688,-0.706859 2.793354,-0.827785 3.67431,-0.819582 6.56411,0.06112 1.644011,0.501032 1.483058,0.468684 2.184192,0.43896 l 0.642823,-0.02725 0.194302,0.427656 c 0.106864,0.235214 0.1943,0.463671 0.1943,0.507683 0,0.05121 -0.110022,0.111741 -0.305617,0.168115 -0.442112,0.127437 -1.205997,0.48396 -1.549882,0.723366 -0.903247,0.628824 -1.03329,1.171619 -0.401256,1.674819 0.130366,0.103793 0.237028,0.204195 0.237028,0.223119 0,0.01892 -0.13097,0.0995 -0.291046,0.179049 -0.378154,0.187934 -0.49403,0.363637 -0.643176,0.97525 -0.173716,0.712362 -0.379542,1.090756 -0.883168,1.623621 -0.236274,0.249992 -0.462169,0.454532 -0.50199,0.454532 -0.05796,0 -0.0724,-0.165573 -0.0724,-0.830226 z m -1.005941,-4.492451 c 0.922715,-0.157848 2.290712,-0.62137 2.323243,-0.787192 0.01099,-0.05571 -0.27873,-0.177149 -1.046858,-0.438895 -0.584083,-0.199033 -1.107109,-0.361876 -1.16228,-0.361876 -0.08312,0 -0.100309,0.04072 -0.100309,0.23751 0,0.334808 -0.227132,0.775795 -0.499763,0.970312 -0.269746,0.192458 -0.768216,0.253349 -1.059435,0.129416 -0.465397,-0.198057 -0.740776,-0.608729 -0.742832,-1.107784 l -0.0012,-0.283443 -0.172741,0.0019 c -0.095,10e-4 -0.304286,0.03505 -0.465066,0.07552 -0.572855,0.144223 -2.206486,0.634637 -2.248086,0.674871 -0.05289,0.05116 0.235135,0.159982 1.052194,0.39753 0.983758,0.286015 1.194748,0.332766 2.099453,0.465207 0.219246,0.03209 0.458425,0.06726 0.531506,0.07813 0.339749,0.05054 1.037109,0.02662 1.492141,-0.05123 z M 9.2916044,13.447438 c -0.069938,-0.07215 -0.04668,-0.976424 0.026581,-1.033237 0.036535,-0.02834 0.2338614,-0.08045 0.4384944,-0.115797 0.5944042,-0.102683 1.4615882,-0.32163 2.6043842,-0.657544 1.156638,-0.339984 1.787882,-0.483859 2.752233,-0.627295 0.593062,-0.0882 0.657762,-0.0882 1.222465,9.8e-5 0.696158,0.10886 1.505438,0.279739 1.845301,0.389637 0.131547,0.04254 0.490316,0.151377 0.797261,0.241865 0.306946,0.09049 0.749424,0.221951 0.983288,0.292139 0.588534,0.176638 0.87669,0.204224 1.461643,0.139926 0.596253,-0.06554 0.5942,-0.06687 0.826997,0.535853 0.112689,0.291741 0.131488,0.393084 0.08378,0.451484 -0.100204,0.122643 -0.685092,0.222749 -1.282824,0.219554 -0.576061,-0.003 -0.818678,-0.06151 -2.657534,-0.640059 -0.219246,-0.06898 -0.625851,-0.178985 -0.903564,-0.244454 -0.277711,-0.06546 -0.648438,-0.154904 -0.823834,-0.198745 -0.475297,-0.118803 -1.429728,-0.104599 -2.072877,0.03085 -0.748991,0.157739 -1.208114,0.276889 -2.152603,0.558636 -0.45311,0.135165 -1.051056,0.298575 -1.328768,0.36313 -0.277713,0.06455 -0.648437,0.150743 -0.823835,0.191529 -0.4288526,0.09972 -0.9475237,0.153034 -0.9965759,0.102433 z"
     style="opacity:1;fill:#8f8f8f;stroke-width:0.0535684" />
  <path
     id="path4868"
     d="m 17.862154,19.666696 c 0,-0.638647 0.01475,-0.788671 0.08323,-0.8464 0.114393,-0.09645 0.234076,-0.341836 0.35402,-0.725901 0.07326,-0.234584 0.109619,-0.558484 0.131826,-1.174269 0.01687,-0.467683 0.01125,-0.850333 -0.01238,-0.850333 -0.02366,0 -0.304877,0.280141 -0.624939,0.622533 -1.299421,1.39008 -2.713455,2.468462 -3.964217,3.023221 -0.714945,0.317102 -1.358265,0.456253 -2.106475,0.455631 -1.8873755,-0.0015 -2.8967142,-0.753426 -2.8967142,-2.157768 0,-0.551043 0.1189038,-0.877874 0.4419464,-1.214739 0.2335982,-0.243597 0.334793,-0.305519 0.6641513,-0.406404 0.9173335,-0.280988 1.6168545,0.07001 1.6168545,0.811303 0,0.297751 -0.106486,0.528527 -0.333339,0.722426 -0.320153,0.273641 -0.765036,0.10992 -0.904267,-0.332771 -0.03472,-0.110376 -0.08173,-0.221327 -0.104504,-0.246548 -0.07497,-0.08307 -0.263776,0.02323 -0.3982193,0.224207 -0.105664,0.157948 -0.1322166,0.264771 -0.1322166,0.531847 0,0.293129 0.021221,0.362915 0.1727449,0.567852 0.343178,0.464174 1.065032,0.677063 2.112735,0.623087 0.62815,-0.03235 1.067442,-0.152251 1.727397,-0.471438 0.514997,-0.249076 1.324827,-0.793021 1.908081,-1.281615 0.454065,-0.380371 1.254402,-1.143945 1.254363,-1.196743 -1.2e-5,-0.01712 -0.424554,-0.03326 -0.943426,-0.03585 C 14.76761,16.302324 13.97578,16.181006 12.729619,15.820975 11.9793,15.604198 9.8449869,15.015522 9.4491147,14.916162 l -0.1480697,-0.03717 0.015198,-0.524248 0.015198,-0.524253 0.2923273,-0.04139 c 0.5318597,-0.07532 1.7580417,-0.372786 2.8400227,-0.688976 1.658379,-0.484633 2.354701,-0.61682 3.245733,-0.616162 0.613041,4.53e-4 0.861136,0.02664 1.408494,0.148661 0.682585,0.152169 1.615897,0.412692 2.73726,0.764073 0.673595,0.211073 1.204031,0.263338 1.742523,0.171698 l 0.254304,-0.04328 0.204048,0.448869 c 0.112221,0.246878 0.192964,0.478207 0.179417,0.514066 -0.01354,0.03586 -0.160009,0.10483 -0.325474,0.153279 -0.480223,0.140602 -1.097473,0.434715 -1.519674,0.724109 -0.882281,0.60475 -1.025544,1.133978 -0.444551,1.642207 0.140158,0.122605 0.254847,0.240004 0.25486,0.260885 1.5e-5,0.02089 -0.101616,0.08364 -0.225863,0.139466 -0.372263,0.16727 -0.538074,0.409966 -0.676007,0.989469 -0.167061,0.70188 -0.395259,1.134026 -0.86086,1.630238 -0.560773,0.59764 -0.575873,0.588174 -0.575873,-0.361007 z m -0.736565,-4.518144 c 0.814959,-0.164908 2.118483,-0.631253 2.118483,-0.757902 0,-0.0246 -0.04186,-0.06741 -0.09301,-0.09517 -0.129307,-0.07013 -2.160519,-0.763197 -2.236732,-0.763197 -0.03851,0 -0.06223,0.09729 -0.06257,0.256449 -0.0015,0.713412 -0.621858,1.280645 -1.28948,1.178949 -0.568482,-0.0866 -1.022196,-0.640822 -0.987933,-1.206793 0.0096,-0.157588 -0.0084,-0.255875 -0.04912,-0.269674 -0.09355,-0.03168 -0.69977,0.116656 -1.845277,0.451537 -1.272234,0.371921 -1.204435,0.343136 -1.008395,0.428111 0.544791,0.236144 2.154602,0.644076 3.267299,0.827946 0.562836,0.093 1.596044,0.06925 2.186723,-0.05027 z M 9.304892,12.944505 c 0,-0.618429 -0.067462,-0.544535 0.5954874,-0.652318 0.4217746,-0.06857 1.7140736,-0.398698 2.6467036,-0.676115 1.354084,-0.40278 2.470008,-0.621279 3.17301,-0.621279 0.759851,0 1.800589,0.235062 4.15275,0.937944 0.702702,0.209982 1.307897,0.256199 1.811335,0.138319 0.133169,-0.03118 0.254348,-0.03456 0.280665,-0.0078 0.09022,0.09166 0.406195,0.889978 0.379845,0.959725 -0.04316,0.11428 -0.743074,0.246609 -1.29265,0.244403 -0.534792,-0.0022 -0.482517,0.01025 -2.400573,-0.567518 -0.930598,-0.2803 -1.799812,-0.49415 -2.357256,-0.579949 -0.734409,-0.113029 -1.811284,0.04804 -3.348494,0.500853 -0.409261,0.120558 -0.899575,0.264955 -1.089589,0.320888 -0.464849,0.136837 -1.9253746,0.464816 -2.2721934,0.510251 l -0.2790406,0.03656 z"
     style="opacity:1;fill:#6e6e6e;stroke-width:0.0535684" />
  <path
     id="path4866"
     d="m 17.915305,19.639702 c 0,-0.663149 0.01451,-0.815466 0.08323,-0.873395 0.105185,-0.08867 0.221089,-0.315424 0.325582,-0.636953 0.108014,-0.332367 0.169015,-2.149002 0.07008,-2.086888 -0.03574,0.02243 -0.343473,0.332528 -0.683852,0.689091 -2.16464,2.267563 -4.19998,3.443491 -5.95509,3.440583 -1.327516,-0.0022 -2.3554965,-0.46617 -2.7260754,-1.230389 -0.1642355,-0.338691 -0.2066565,-1.298414 -0.072451,-1.639117 0.1238559,-0.31443 0.3315484,-0.570709 0.582377,-0.718614 0.2259777,-0.13325 0.7782824,-0.298493 0.9959294,-0.297969 0.437608,0.001 0.908666,0.347059 0.977124,0.717726 0.110995,0.601023 -0.317394,1.140458 -0.796785,1.003316 -0.201462,-0.05764 -0.329772,-0.212351 -0.401968,-0.484697 -0.04492,-0.16947 -0.08049,-0.210847 -0.181214,-0.210847 -0.1957985,0 -0.4375078,0.318529 -0.4778781,0.629761 -0.082373,0.635011 0.3074518,1.104136 1.0716411,1.289637 0.401938,0.09757 1.545974,0.09721 1.927437,-5.95e-4 0.899293,-0.230581 1.813217,-0.735628 2.814913,-1.555562 0.647742,-0.530203 1.383992,-1.233832 1.383992,-1.322668 0,-0.07011 -0.06752,-0.07703 -0.455864,-0.0467 -0.630637,0.04924 -1.860562,-0.07326 -2.866054,-0.285467 C 13.235436,15.957712 12.17439,15.657 11.811284,15.53275 11.645935,15.476171 11.033743,15.305203 10.450857,15.152822 9.8679691,15.000441 9.3716754,14.863595 9.3479793,14.848721 c -0.0237,-0.01487 -0.04308,-0.231268 -0.04308,-0.480871 0,-0.496148 0.042688,-0.565603 0.3476666,-0.565603 0.078125,0 0.3129016,-0.03984 0.5217141,-0.08853 1.284166,-0.299401 2.212898,-0.542813 2.744866,-0.719402 0.271355,-0.09008 0.737474,-0.202322 1.684739,-0.405695 0.549109,-0.117893 1.670109,-0.107585 2.274988,0.02091 0.80322,0.170628 1.136198,0.257282 1.99315,0.518688 1.697633,0.517847 1.716924,0.521817 2.382748,0.490177 l 0.602199,-0.02862 0.18561,0.408068 c 0.102087,0.224439 0.174419,0.437695 0.16074,0.473905 -0.01369,0.03621 -0.176851,0.111968 -0.362604,0.168339 -0.758446,0.230194 -1.414091,0.601164 -1.891892,1.070452 -0.489204,0.480485 -0.504372,0.843216 -0.05352,1.280019 0.150016,0.145342 0.262181,0.272699 0.24926,0.283014 -0.01292,0.01036 -0.135541,0.08391 -0.272488,0.163546 -0.338914,0.19708 -0.448397,0.374059 -0.596056,0.963522 -0.185507,0.740566 -0.361137,1.071305 -0.844089,1.58956 -0.232038,0.249001 -0.443201,0.452729 -0.469252,0.452729 -0.02604,0 -0.04736,-0.361454 -0.04736,-0.803231 z m -0.707512,-4.48695 c 0.596549,-0.12148 1.202523,-0.314534 1.696868,-0.540603 0.335137,-0.153264 0.433166,-0.238153 0.341479,-0.295712 -0.175998,-0.11049 -1.97858,-0.721059 -2.271167,-0.769289 -0.18556,-0.03059 -0.187348,-0.02905 -0.152609,0.131616 0.06354,0.293805 -0.07074,0.662782 -0.341109,0.937422 -0.438677,0.4456 -0.97499,0.469942 -1.472364,0.06683 -0.277502,-0.22491 -0.466623,-0.681414 -0.413819,-0.998888 0.03402,-0.204534 0.03313,-0.205813 -0.143178,-0.203902 -0.235639,0.0025 -1.094868,0.218873 -2.064262,0.519694 -0.24848,0.07711 -0.547452,0.169453 -0.664384,0.205212 -0.258916,0.07917 -0.256188,0.138278 0.01026,0.221203 1.762187,0.548543 2.138158,0.63532 3.710343,0.856378 0.318991,0.04485 1.238036,-0.02286 1.763996,-0.129961 z M 9.3589129,13.424861 c -0.037344,-0.02345 -0.052832,-0.209546 -0.042928,-0.515837 l 0.015488,-0.479161 0.584658,-0.116895 c 0.7634161,-0.152638 1.6122251,-0.365901 2.3386311,-0.587577 0.321561,-0.09813 0.632492,-0.190525 0.690958,-0.205318 0.05846,-0.0148 0.285686,-0.07522 0.504932,-0.134275 0.727461,-0.195951 1.870966,-0.390589 2.296152,-0.390831 0.166649,-9.8e-5 0.417787,0.0229 0.558081,0.05112 0.140295,0.02821 0.470342,0.09162 0.733439,0.140932 0.571915,0.107167 0.954068,0.207727 2.046301,0.538439 0.45311,0.137195 0.955383,0.287195 1.116165,0.333334 0.308363,0.08849 1.010592,0.109517 1.477802,0.04424 l 0.277585,-0.03878 0.187662,0.418295 c 0.103218,0.230063 0.180601,0.455537 0.171969,0.501054 -0.02697,0.142248 -0.499604,0.236237 -1.211456,0.240911 -0.577371,0.0038 -0.723552,-0.01439 -1.116165,-0.138855 -0.997413,-0.316187 -2.0724,-0.630815 -2.524991,-0.739014 -0.262912,-0.06285 -0.626442,-0.149781 -0.807849,-0.19317 -0.56376,-0.134844 -1.43166,-0.103542 -2.28153,0.08229 -0.813047,0.177778 -0.865003,0.191186 -1.667273,0.430203 -0.969561,0.288858 -1.283499,0.37209 -2.019727,0.535477 -0.9992683,0.221762 -1.2605203,0.265718 -1.327896,0.22342 z"
     style="opacity:1;fill:#4e4e4e;stroke-width:0.0535684" />
  <path
     id="path4864"
     d="m 17.915305,19.639702 c 0,-0.615599 0.01491,-0.761813 0.08361,-0.819726 0.120635,-0.1017 0.266236,-0.41197 0.366918,-0.781901 0.09362,-0.344001 0.182819,-2.076261 0.106902,-2.076261 -0.02317,0 -0.440463,0.406945 -0.927333,0.904322 -1.596064,1.630509 -3.066074,2.646871 -4.440239,3.06997 -0.677624,0.208638 -1.771266,0.244457 -2.470521,0.08092 -0.8192485,-0.191605 -1.3235274,-0.542084 -1.592736,-1.10697 -0.1701251,-0.356977 -0.2149301,-1.139513 -0.087549,-1.529071 0.2079628,-0.636001 0.81278,-1.039101 1.5614146,-1.040661 0.50307,-10e-4 0.859002,0.235007 0.966648,0.641083 0.124879,0.47109 -0.205775,1.032004 -0.608361,1.032004 -0.230364,0 -0.480732,-0.218062 -0.534452,-0.465489 -0.05814,-0.267795 -0.07202,-0.290363 -0.178564,-0.290363 -0.156493,0 -0.4158027,0.248698 -0.4866412,0.466727 -0.034542,0.106284 -0.05209,0.324387 -0.039,0.484668 0.026317,0.322272 0.2002685,0.596071 0.5185722,0.816193 0.500819,0.346342 1.81335,0.435472 2.685428,0.18236 0.78001,-0.226391 1.781406,-0.800118 2.662212,-1.525257 0.537222,-0.442278 1.403819,-1.283308 1.403806,-1.362391 -9e-6,-0.04316 -0.284806,-0.06176 -0.970001,-0.06336 -0.674851,-0.0015 -1.14788,-0.03194 -1.554645,-0.09981 -0.652313,-0.108847 -1.809876,-0.398673 -2.420396,-0.606019 -0.220367,-0.07484 -0.890065,-0.262482 -1.488218,-0.416979 l -1.0875524,-0.280904 -0.015173,-0.489756 -0.015173,-0.489758 0.3872257,-0.05971 c 0.6075957,-0.09367 1.6914737,-0.355894 2.6195557,-0.633735 0.884361,-0.264752 1.066063,-0.311962 1.993151,-0.517849 0.436105,-0.09684 0.726526,-0.12426 1.328767,-0.125384 0.943434,-0.0018 1.452243,0.09711 3.268768,0.635316 0.350795,0.103929 0.850743,0.253496 1.110999,0.332358 0.494754,0.149924 0.995854,0.18814 1.497486,0.114218 l 0.269853,-0.03977 0.191408,0.422201 c 0.216224,0.476941 0.209962,0.498905 -0.173032,0.607051 -0.590921,0.166859 -1.452461,0.63509 -1.864783,1.013475 -0.336209,0.308537 -0.437856,0.517919 -0.407454,0.83931 0.0233,0.246438 0.05477,0.303836 0.29294,0.534627 l 0.266824,0.258548 -0.280278,0.160678 c -0.350398,0.200871 -0.466849,0.391941 -0.607608,0.996934 -0.06131,0.263512 -0.19734,0.645102 -0.302292,0.847976 -0.186077,0.359694 -0.846993,1.129427 -0.969762,1.129427 -0.04264,0 -0.06074,-0.223328 -0.06074,-0.749242 z M 17.200323,15.17949 c 0.651248,-0.133943 1.453308,-0.398056 1.879456,-0.618892 0.386599,-0.20034 0.311561,-0.25449 -0.952282,-0.687194 -0.628281,-0.215106 -1.184185,-0.392003 -1.235344,-0.393102 -0.07696,-0.0017 -0.09311,0.04692 -0.09354,0.281446 -0.0012,0.612577 -0.391929,1.089455 -0.947606,1.156305 -0.687132,0.08268 -1.29317,-0.518643 -1.216758,-1.207263 0.0193,-0.173841 0.0065,-0.248518 -0.04637,-0.269095 -0.103866,-0.04048 -0.741114,0.109795 -1.907927,0.449958 -1.149601,0.335148 -1.28421,0.384385 -1.217264,0.445261 0.134014,0.12186 2.142825,0.682505 2.894921,0.80795 0.363535,0.06064 0.720768,0.120167 0.793852,0.132309 0.457927,0.07604 1.429401,0.02973 2.048853,-0.09768 z m -7.8309878,-2.250515 0.015286,-0.495338 0.5315067,-0.09677 c 0.6437921,-0.117211 1.7076481,-0.38912 2.7082121,-0.692176 1.276513,-0.386636 2.369598,-0.595151 3.122389,-0.59562 0.45561,-2.81e-4 1.761927,0.225147 2.354606,0.406332 0.146165,0.04468 0.504932,0.15124 0.79726,0.236793 0.292329,0.08555 0.779754,0.230883 1.083165,0.322958 0.583985,0.177216 1.146862,0.216309 1.654096,0.114874 0.171849,-0.03436 0.257956,-0.02929 0.305883,0.01805 0.10636,0.105044 0.383464,0.812931 0.336874,0.86059 -0.102778,0.105146 -0.658953,0.204838 -1.174264,0.210482 -0.538487,0.006 -0.597271,-0.0059 -1.674247,-0.331934 -0.613889,-0.185924 -1.211834,-0.369501 -1.328766,-0.407949 -0.116932,-0.03845 -0.55941,-0.150639 -0.983288,-0.249316 -1.396473,-0.325091 -2.124439,-0.255756 -4.438083,0.422704 -1.332763,0.390822 -2.9460394,0.769798 -3.284051,0.771456 -0.02303,1.14e-4 -0.034981,-0.222697 -0.02658,-0.495133 z"
     style="opacity:1;fill:#2e2e2e;stroke-width:0.0535684" />
  <g
     style="display:none"
     id="layer4">
    <path
       style="fill:#336ecc;fill-opacity:1"
       id="path4853"
       d="M 10,4 H 4 C 2.89,4 2,4.89 2,6 v 12 a 2,2 0 0 0 2,2 h 16 a 2,2 0 0 0 2,-2 V 8 C 22,6.89 21.1,6 20,6 h -8 z" />
  </g>
  <g
     style="display:inline"
     id="layer5">
    <path
       style="display:inline;fill:#336ecc;fill-opacity:1"
       d="M 19,20 H 4 C 2.89,20 2,19.1 2,18 V 6 C 2,4.89 2.89,4 4,4 h 6 l 2,2 h 7 a 2,2 0 0 1 2,2 V 8 H 4 v 10 l 2.14,-8 h 17.07 l -2.28,8.5 C 20.7,19.37 19.92,20 19,20 Z"
       id="path5108" />
  </g>
  <g
     id="layer6">
    <path
       id="path4862"
       d="m 17.968455,19.631307 c 0,-0.678151 0.0062,-0.718922 0.131493,-0.87022 0.07233,-0.08731 0.182186,-0.321616 0.244147,-0.520694 0.176271,-0.566354 0.285763,-2.332568 0.144603,-2.332568 -0.03542,0 -0.424155,0.370502 -0.86384,0.823338 -1.709538,1.760674 -3.23552,2.806789 -4.679143,3.207717 -1.065863,0.296017 -2.501553,0.159068 -3.2093838,-0.306136 -0.5759871,-0.378554 -0.8034949,-0.841869 -0.8034949,-1.636307 0,-0.431509 0.019253,-0.540962 0.1375681,-0.782139 0.1843248,-0.375726 0.4797837,-0.622783 0.8876435,-0.742226 0.6835201,-0.200172 1.2068361,-0.07031 1.4190061,0.352148 0.132299,0.26342 0.133638,0.449554 0.0053,0.736625 -0.253275,0.566532 -0.862662,0.529609 -1.009103,-0.06113 -0.07294,-0.294251 -0.159448,-0.340873 -0.3843094,-0.207115 -0.3038104,0.180725 -0.3917262,0.35857 -0.3916425,0.792262 6.38e-5,0.33359 0.020196,0.417086 0.1448592,0.600507 0.3262007,0.479985 0.9011187,0.685366 1.9388897,0.692643 0.893986,0.0062 1.328934,-0.106852 2.220322,-0.577461 0.869686,-0.45915 1.681156,-1.070821 2.539006,-1.913856 0.689478,-0.67757 0.688175,-0.729887 -0.01639,-0.65774 -0.302607,0.03098 -0.696321,0.02192 -1.218554,-0.02805 C 14.077843,16.09298 13.682714,16.016244 12.573654,15.68979 12.164394,15.56932 11.387065,15.350358 10.846257,15.2032 10.305488,15.056038 9.7553789,14.90422 9.62383,14.865821 l -0.2391778,-0.06981 -0.015375,-0.43926 -0.015375,-0.439261 0.2545569,-0.03267 c 0.140007,-0.01797 0.3980649,-0.06654 0.5734619,-0.107938 0.175398,-0.0414 0.546124,-0.127371 0.823837,-0.191055 0.560366,-0.128504 0.758173,-0.182763 1.647671,-0.451968 0.560824,-0.169732 0.945824,-0.264121 2.003643,-0.49123 0.654989,-0.140623 1.571174,-0.109807 2.437373,0.08197 0.699946,0.154972 2.15443,0.556995 2.623959,0.725268 0.576169,0.206493 0.925255,0.259568 1.517114,0.230665 l 0.586405,-0.02864 0.144547,0.33163 c 0.0795,0.182396 0.151254,0.363702 0.159453,0.402902 0.0096,0.04562 -0.157239,0.134746 -0.463451,0.247653 -0.837342,0.308745 -1.484395,0.696285 -1.851275,1.108781 -0.22425,0.252138 -0.301329,0.420434 -0.301329,0.657948 0,0.212996 0.07325,0.349875 0.335084,0.626178 0.119005,0.125575 0.205901,0.234908 0.193108,0.242953 -0.0128,0.0081 -0.115759,0.06251 -0.228818,0.121026 -0.316913,0.164036 -0.45134,0.389859 -0.601782,1.010937 -0.07412,0.305984 -0.190981,0.66916 -0.259694,0.807057 -0.132952,0.266815 -0.590511,0.825974 -0.833104,1.018092 l -0.146165,0.115745 z M 16.964996,15.26064 c 0.861608,-0.152842 1.893466,-0.485619 2.257917,-0.728184 0.131514,-0.08753 0.166631,-0.21335 0.07551,-0.270552 -0.09271,-0.05821 -0.756308,-0.298607 -1.43627,-0.520317 -1.002736,-0.326955 -1.004027,-0.32731 -1.059948,-0.292203 -0.02869,0.01802 -0.05061,0.164812 -0.04871,0.326227 0.0045,0.387872 -0.156008,0.722717 -0.443533,0.924924 -0.192281,0.135225 -0.267681,0.154498 -0.604446,0.154498 -0.350711,0 -0.402832,-0.01478 -0.588992,-0.167101 -0.322121,-0.263555 -0.445979,-0.527103 -0.435497,-0.926658 0.0048,-0.18585 -0.0053,-0.352354 -0.02274,-0.370011 -0.05108,-0.05188 -0.849472,0.129786 -1.792304,0.407823 -0.482342,0.14224 -1.008534,0.294249 -1.169315,0.337797 -0.224681,0.06085 -0.292328,0.102956 -0.292328,0.181966 0,0.06068 0.04355,0.110313 0.106296,0.121153 0.05846,0.01015 0.381355,0.102506 0.717534,0.205343 0.336179,0.102831 0.721451,0.220448 0.856161,0.261348 0.307638,0.09341 1.17153,0.270831 1.695073,0.348133 0.219245,0.03237 0.458426,0.06776 0.531507,0.07863 0.373397,0.05556 1.114228,0.02294 1.654074,-0.07282 z M 9.3691142,12.931688 9.3846152,12.48472 9.8098199,12.40587 c 0.4693771,-0.08703 1.9259641,-0.456811 2.6309601,-0.667908 0.248481,-0.0744 0.511574,-0.151181 0.584658,-0.17062 0.07308,-0.01944 0.264425,-0.07178 0.425205,-0.116326 0.475355,-0.131683 0.943485,-0.223335 1.651759,-0.323385 0.62844,-0.08878 0.69869,-0.08896 1.221622,-0.0035 1.021175,0.167128 1.794828,0.364453 3.590293,0.915736 0.554937,0.170388 1.005126,0.213481 1.535506,0.146981 0.403987,-0.05065 0.429184,-0.04758 0.504932,0.06161 0.111222,0.16033 0.322037,0.694977 0.292915,0.742843 -0.0552,0.09072 -0.728418,0.187266 -1.249629,0.179203 -0.459434,-0.0071 -0.652031,-0.03833 -1.089588,-0.176607 -1.077614,-0.34055 -1.929361,-0.590795 -2.367356,-0.695533 -0.247297,-0.05913 -0.627943,-0.149698 -0.845882,-0.201246 -0.524076,-0.123957 -1.497279,-0.120685 -2.05861,0.0069 -0.79452,0.180629 -1.428562,0.343195 -1.983221,0.508494 -0.306946,0.09148 -0.677673,0.201795 -0.823836,0.245155 -0.442563,0.131284 -1.840033,0.442569 -2.1681085,0.482943 L 9.3536082,13.3785 Z"
       style="opacity:1;fill:#e9edf5;fill-opacity:1;stroke-width:0.0535684" />
  </g>
</svg>
