<svg width="24" height="24" viewBox="0 0 24 24" fill="none" xmlns="http://www.w3.org/2000/svg">
<path d="M19 20H4C3.46957 20 2.96086 19.7893 2.58579 19.4142C2.21071 19.0391 2 18.5304 2 18V6C2 4.89 2.89 4 4 4H10L12 6H19C20.097 6 21 6.903 21 8H4V18L6.14 10H23.21L20.93 18.5C20.7 19.37 19.92 20 19 20Z" fill="#5AA3C8"/>
<path d="M15.7941 9L9 13.9798L11.1029 15.5211L20 9H15.7941Z" fill="#47C5FB"/>
<path d="M15.7467 13.5923L12.1089 16.2586L14.2198 17.8288L16.3188 16.2903L19.9999 13.5923H15.7467Z" fill="#47C5FB"/>
<path d="M14.2198 17.8286L15.8177 18.9998H19.9999L16.3188 16.2902L14.2198 17.8286Z" fill="#00569E"/>
<path d="M12.0853 16.2757L14.1883 14.7344L16.3188 16.2902L14.2198 17.8287L12.0853 16.2757Z" fill="#00B5F8"/>
<path d="M14.2198 17.8289L15.9676 17.4038L16.1412 16.4205L14.2198 17.8289Z" fill="url(#paint0_linear_11_21)" fill-opacity="0.8"/>
<defs>
<linearGradient id="paint0_linear_11_21" x1="21.8127" y1="54.4362" x2="147.598" y2="116.278" gradientUnits="userSpaceOnUse">
<stop/>
<stop offset="1" stop-opacity="0"/>
</linearGradient>
</defs>
</svg>
