<?xml version="1.0" encoding="UTF-8" standalone="no"?>
<svg
   clip-rule="evenodd"
   fill-rule="evenodd"
   stroke-linejoin="round"
   stroke-miterlimit="1.414"
   viewBox="0 0 24 24"
   version="1.1"
   id="svg2"
   sodipodi:docname="folder-feature.svg"
   inkscape:version="1.3 (0e150ed, 2023-07-21)"
   xmlns:inkscape="http://www.inkscape.org/namespaces/inkscape"
   xmlns:sodipodi="http://sodipodi.sourceforge.net/DTD/sodipodi-0.dtd"
   xmlns="http://www.w3.org/2000/svg"
   xmlns:svg="http://www.w3.org/2000/svg">
  <defs
     id="defs2" />
  <sodipodi:namedview
     id="namedview2"
     pagecolor="#ffffff"
     bordercolor="#000000"
     borderopacity="0.25"
     inkscape:showpageshadow="2"
     inkscape:pageopacity="0.0"
     inkscape:pagecheckerboard="0"
     inkscape:deskcolor="#d1d1d1"
     inkscape:zoom="36.041667"
     inkscape:cx="12"
     inkscape:cy="12.013873"
     inkscape:window-width="1440"
     inkscape:window-height="1567"
     inkscape:window-x="3240"
     inkscape:window-y="25"
     inkscape:window-maximized="0"
     inkscape:current-layer="svg2" />
  <path
     d="M10 4H4c-1.11 0-2 .89-2 2v12c0 1.097.903 2 2 2h16c1.097 0 2-.903 2-2V8a2 2 0 0 0-2-2h-8l-2-2z"
     fill="#FFB300"
     fill-rule="nonzero"
     style="fill:#ffeb3b;fill-opacity:1"
     id="path1" />
  <path
     sodipodi:type="star"
     style="fill:#fff9c4;fill-opacity:1"
     id="path3"
     inkscape:flatsided="false"
     sodipodi:sides="5"
     sodipodi:cx="3.4959538"
     sodipodi:cy="-4.6612716"
     sodipodi:r1="3.0254228"
     sodipodi:r2="1.2101691"
     sodipodi:arg1="1.5707963"
     sodipodi:arg2="2.1991149"
     inkscape:rounded="0"
     inkscape:randomized="0"
     d="m 3.4959539,-1.6358488 -0.7113197,-2.0463755 -2.16602846,-0.04414 1.72640886,-1.30887 -0.6273598,-2.0736556 1.778299,1.2374494 1.7782988,-1.2374495 -0.6273596,2.0736558 1.7264089,1.3088697 -2.1660286,0.04414 z"
     inkscape:transform-center-y="-0.62459366"
     transform="matrix(-2.1619563,0,0,-2.1619563,25.0788,5.2633665)" />
</svg>
