<svg xmlns="http://www.w3.org/2000/svg" viewBox="0 0 32 32">
  <path d="M13.84376,7.53645l-1.28749-1.0729A2,2,0,0,0,11.27591,6H4A2,2,0,0,0,2,8V24a2,2,0,0,0,2,2H28a2,2,0,0,0,2-2V10a2,2,0,0,0-2-2H15.12412A2,2,0,0,1,13.84376,7.53645Z" style="fill: #0097a7"/>
  <g>
    <polygon points="25.375 24.781 20 20.48 20 14 22 14 22 19.52 26.625 23.219 25.375 24.781" style="fill: #b2ebf2"/>
    <path d="M22,30A10,10,0,1,1,32,20,10.01146,10.01146,0,0,1,22,30Zm0-18a8,8,0,1,0,8,8A8.00917,8.00917,0,0,0,22,12Z" style="fill: #b2ebf2"/>
  </g>
</svg>
