<svg xmlns="http://www.w3.org/2000/svg" viewBox="0 0 16 16"><path id="folder" fill="#f06292" d="m6.922 3.768-.644-.536A1 1 0 0 0 5.638 3H2a1 1 0 0 0-1 1v8a1 1 0 0 0 1 1h12a1 1 0 0 0 1-1V5a1 1 0 0 0-1-1H7.562a1 1 0 0 1-.64-.232"/><path id="motive" fill="#fce4ec" d="M15.948 6.299a1.5 1.5 0 0 0-.765-.956 3.98 3.98 0 0 0-3.174-.025 8.7 8.697 0 0 0-2.932 1.778c-.915.905-1.144 1.747-1.062 2.194.173.945 1.09 1.613 1.83 2.15.156.115.308.225.437.328-.46.256-1.458.874-1.741 1.537a1.45 1.45 0 0 0-.037 1.173.8.8 0 0 0 .437.451 1.8 1.8 0 0 0 .493.071 2.07 2.07 0 0 0 1.719-1.012 2.515 2.514 0 0 0 .275-1.943 2.3 2.3 0 0 1 .73-.017 1.32 1.32 0 0 1 .963.48.72.72 0 0 1 .152.484.6.6 0 0 1-.275.403c-.08.051-.178.116-.155.251.014.076.065.197.266.157a.995.995 0 0 0 .696-.92 1.45 1.45 0 0 0-.4-1.025 1.95 1.95 0 0 0-1.449-.568 3.3 3.3 0 0 0-.906.113 6.5 6.498 0 0 0-.75-.673c-.582-.473-1.132-.92-1.1-1.562.043-.826.837-1.652 2.359-2.453 1.35-.711 2.447-.735 3.02-.52a.72.72 0 0 1 .429.336 1.12 1.12 0 0 1-.129.933 3.285 3.284 0 0 1-2.511 1.552 1.28 1.28 0 0 1-1.113-.283c-.094-.109-.185-.21-.325-.131-.166.098-.087.312-.061.384a1.3 1.3 0 0 0 .789.67 3.66 3.659 0 0 0 2.376-.24c1.315-.54 2.192-1.966 1.915-3.117zm-5.298 6.76a2 2 0 0 1-.065.173 1.7 1.7 0 0 1-.258.397c-.324.372-.75.49-.888.404a.14.14 0 0 1-.044-.093 1.25 1.25 0 0 1 .37-.852 3.9 3.9 0 0 1 .933-.722 1.5 1.5 0 0 1-.048.694"/></svg>