<svg xmlns="http://www.w3.org/2000/svg" viewBox="0 0 32 32">
  <path d="M13.84376,7.53645l-1.28749-1.0729A2,2,0,0,0,11.27591,6H4A2,2,0,0,0,2,8V24a2,2,0,0,0,2,2H28a2,2,0,0,0,2-2V10a2,2,0,0,0-2-2H15.12412A2,2,0,0,1,13.84376,7.53645Z" style="fill: #21759b"/>
  <path d="M22.00075,8a9.99586,9.99586,0,0,0-8.35692,4.51072l.64188.01253c1.04892,0,2.66926-.12526,2.66926-.12526a.41334.41334,0,0,1,.07045.82356l-1.15537.119,3.64773,10.8032,2.18864-6.56021-1.55929-4.243-1.06144-.119a.41354.41354,0,0,1,.07045-.82356l2.63169.12526c1.04892,0,2.67083-.12526,2.67083-.12526a.41294.41294,0,0,1,.06106.82356l-1.14285.119,3.61172,10.72022,1.002-3.33177a12.685,12.685,0,0,0,.75773-3.22843,5.1889,5.1889,0,0,0-.82975-2.76343,4.6741,4.6741,0,0,1-.97847-2.34069,1.73136,1.73136,0,0,1,1.6814-1.77079h.12681A9.9893,9.9893,0,0,0,22.00075,8Zm8.77647,5.20119.06889,1.03648a9.44635,9.44635,0,0,1-.77026,3.576L27.023,26.63629A10.00043,10.00043,0,0,0,30.77722,13.20119Zm-17.91617.72334A10.1888,10.1888,0,0,0,12,18.00313a9.9813,9.9813,0,0,0,5.64068,8.9964Zm9.315,4.95225-2.99647,8.72084a10.05693,10.05693,0,0,0,6.14479-.1644l-.07359-.14247Z" style="fill: #e1f5fe;fill-rule: evenodd"/>
</svg>
