<?xml version="1.0" encoding="UTF-8" standalone="no"?>
<svg
   clip-rule="evenodd"
   fill-rule="evenodd"
   stroke-linejoin="round"
   stroke-miterlimit="1.414"
   viewBox="0 0 24 24"
   version="1.1"
   id="svg2"
   sodipodi:docname="folder-lottie.svg"
   xml:space="preserve"
   inkscape:version="1.3 (0e150ed, 2023-07-21)"
   xmlns:inkscape="http://www.inkscape.org/namespaces/inkscape"
   xmlns:sodipodi="http://sodipodi.sourceforge.net/DTD/sodipodi-0.dtd"
   xmlns="http://www.w3.org/2000/svg"
   xmlns:svg="http://www.w3.org/2000/svg"><defs
     id="defs2"><clipPath
       id="a"><path
         fill="#fff"
         d="M0 0h100v100H0z"
         id="path3" /></clipPath></defs><sodipodi:namedview
     id="namedview2"
     pagecolor="#ffffff"
     bordercolor="#000000"
     borderopacity="0.25"
     inkscape:showpageshadow="2"
     inkscape:pageopacity="0.0"
     inkscape:pagecheckerboard="0"
     inkscape:deskcolor="#d1d1d1"
     inkscape:zoom="16.101996"
     inkscape:cx="18.103346"
     inkscape:cy="21.177499"
     inkscape:window-width="1440"
     inkscape:window-height="1567"
     inkscape:window-x="3240"
     inkscape:window-y="25"
     inkscape:window-maximized="0"
     inkscape:current-layer="svg2" /><path
     d="M10 4H4c-1.11 0-2 .89-2 2v12c0 1.097.903 2 2 2h16c1.097 0 2-.903 2-2V8a2 2 0 0 0-2-2h-8l-2-2z"
     fill="#607D8B"
     fill-rule="nonzero"
     id="path1"
     style="fill:#009688;fill-opacity:1" /><path
     d="m 13.589,11.247 h -2.02 a 0.675,0.675 0 0 0 -0.672,0.673 v 8.082 c 0,0.37 0.302,0.673 0.673,0.673 h 2.02 a 0.675,0.675 0 0 0 0.673,-0.673 V 11.92 A 0.675,0.675 0 0 0 13.59,11.247 Z m 9.428,0 h -2.02 a 0.675,0.675 0 0 0 -0.674,0.673 v 8.082 c 0,0.37 0.303,0.673 0.673,0.673 h 2.02 A 0.675,0.675 0 0 0 23.69,20.002 V 11.92 a 0.675,0.675 0 0 0 -0.673,-0.673 z m -4.714,0 h -2.02 A 0.675,0.675 0 0 0 15.61,11.92 v 8.082 c 0,0.37 0.302,0.673 0.673,0.673 h 2.02 a 0.675,0.675 0 0 0 0.673,-0.673 V 11.92 a 0.675,0.675 0 0 0 -0.673,-0.673 z"
     style="display:none;fill:#b2dfdb;fill-opacity:1;stroke-width:1.1126"
     id="path2" /><path
     fill="#ffffff"
     d="m 22.681383,10.200413 c -3.563813,0 -4.878278,2.540649 -5.937828,4.582429 l -0.697135,1.304954 c -1.12364,2.16562 -1.961978,3.481117 -4.123462,3.481117 A 1.0219242,1.0219242 0 0 0 10.9,20.590837 a 1.0219242,1.0219242 0 0 0 1.022751,1.021718 c 3.563814,0 4.87807,-2.540855 5.937828,-4.582638 l 0.692792,-1.304953 c 1.123642,-2.165412 1.962185,-3.480909 4.123671,-3.480909 A 1.0219242,1.0219242 0 0 0 23.7,11.22213 1.022131,1.022131 0 0 0 22.677042,10.2 h 0.0041 z"
     id="path2-8"
     style="fill:#b2dfdb;fill-opacity:1;stroke-width:0.206742" /></svg>
