<svg xmlns="http://www.w3.org/2000/svg" viewBox="0 0 16 16"><path fill="#0288d1" d="m6.922 3.768-.644-.536A1 1 0 0 0 5.638 3H2a1 1 0 0 0-1 1v8a1 1 0 0 0 1 1h12a1 1 0 0 0 1-1V5a1 1 0 0 0-1-1H7.562a1 1 0 0 1-.64-.232"/><path fill="#b3e5fc" d="m 10.994141,12.193353 -0.828125,0.890625 c 0.124101,0.145552 0.253744,0.289847 0.535156,0.554688 0.182637,0.171883 0.373443,0.35177 0.574219,0.521484 v -0.609375 -0.25 h 0.25 0.685547 C 11.982779,13.141869 11.745403,12.953606 11.533203,12.7539 11.259786,12.496583 11.116432,12.336878 10.994141,12.193353 Z"/><path fill="#4fc3f7" d="M 15.992188,11.769525 15.552734,12.208978 15.375,12.38476 15.197266,12.208978 14.773438,11.78515 c 0.0075,0.07045 0.01172,0.141634 0.01172,0.214844 0,1.014708 -0.745105,1.785157 -1.626953,1.785156 -0.09733,0 -0.303346,-0.08829 -0.554687,-0.234375 h -0.328125 -0.75 v 0.75 0.06055 C 12.000947,14.722688 12.534969,15.000001 13.158203,15 14.743501,15 16,13.627864 16,12 16,11.92253 15.9978,11.845724 15.9922,11.769531 Z"/><path fill="#b3e5fc" d="M 4.0097656,11.765625 C 4.0039878,11.842968 4,11.921342 4,12 c 2e-7,1.627863 1.2564949,3.000001 2.8417969,3 0.6269367,10e-7 1.1648135,-0.281908 1.6425781,-0.646484 v -0.03125 -0.75 h -0.75 -0.375 c -0.2346483,0.133202 -0.4251302,0.21289 -0.5175781,0.21289 -0.8818544,0 -1.6269537,-0.770447 -1.6269532,-1.785156 -3e-7,-0.07096 0.00462,-0.140597 0.011719,-0.208984 l -0.4179688,0.416015 v 0.002 L 4.6308594,12.384766 4.453125,12.208984 v -0.002 z"/><path fill="#4fc3f7" d="m 10.759766,10.306641 c -0.01938,0.01832 -0.03933,0.03656 -0.05859,0.05469 C 10.300044,10.738837 10.209387,10.872227 10,11.113281 L 9.171875,12 c -0.1820136,0.212119 -0.3071879,0.379446 -0.7050781,0.753906 -0.2222756,0.209187 -0.472956,0.404787 -0.7109375,0.56836 h 0.7285156 0.25 v 0.25 0.580078 C 8.932037,13.984761 9.1187621,13.808135 9.2988281,13.638672 9.7000322,13.261092 9.7911861,13.12902 10,12.888672 L 10.830078,12 c 0.18133,-0.211298 0.305034,-0.379249 0.703125,-0.753906 0.07269,-0.06841 0.147383,-0.136285 0.22461,-0.201172 v -0.738281 h -0.75 z"/><path fill="#b3e5fc" d="m 8.15625,10.167969 v 0.75 0.05859 c 0.1066261,0.08598 0.2115816,0.176391 0.3105469,0.269531 0.271952,0.255943 0.417007,0.416118 0.5390625,0.558594 L 9.828125,10.912109 C 9.7053571,10.7677 9.577182,10.623296 9.2988281,10.361328 9.2310258,10.297517 9.1616653,10.23282 9.0917969,10.167969 H 8.90625 Z"/><path fill="#b3e5fc" d="m 13.158203,9 c -0.849564,10e-8 -1.533353,0.5164374 -2.128906,1.056641 h 0.728516 0.25 v 0.791015 c 0.48884,-0.369367 0.982412,-0.632812 1.15039,-0.632812 0.670879,0 1.261299,0.445333 1.50586,1.105469 L 14.84375,11.5 15.375,12.03125 15.90625,11.5 15.95117,11.45508 C 15.70794,10.077457 14.562665,9 13.158203,9 Z"/><path fill="#4fc3f7" d="M 6.8417969,9 C 5.4389874,9 4.2939355,10.073979 4.0488281,11.449219 L 4.0996094,11.5 4.6308594,12.03125 5.1621094,11.5 5.3300781,11.332031 c 0.2425954,-0.665449 0.8376643,-1.117187 1.5117188,-1.117187 0.158149,-10e-7 0.6048545,0.232871 1.0644531,0.568359 V 10.167969 9.9179688 h 0.25 0.6582031 C 8.2559453,9.4317039 7.6177205,9 6.8417969,9 Z"/></svg>