<?xml version="1.0" encoding="UTF-8"?>
<svg clip-rule="evenodd" fill-rule="evenodd" stroke-linejoin="round" stroke-miterlimit="1.414" version="1.1" viewBox="0 0 24 24" xml:space="preserve" xmlns="http://www.w3.org/2000/svg"><defs><style>.cls-1{fill:#171321;}.cls-2{fill:#e24329;}.cls-3{fill:#fc6d26;}.cls-4{fill:#fca326;}</style></defs><path d="M10 4H4c-1.11 0-2 .89-2 2v12c0 1.097.903 2 2 2h16c1.097 0 2-.903 2-2V8a2 2 0 0 0-2-2h-8l-2-2z" fill="#757575" fill-rule="nonzero"/><g id="LOGO" transform="matrix(.082707 0 0 .082707 -1.4643 -1.141)"><path class="cls-2" d="m302 174.37-0.21-0.56-21.2-55.3a5.5 5.5 0 0 0-2.18-2.63 5.6 5.6 0 0 0-8.41 3.2l-14.31 43.81h-57.95l-14.31-43.81a5.61 5.61 0 0 0-8.41-3.2 5.5 5.5 0 0 0-2.18 2.63l-21.19 55.31-0.22 0.55a39.36 39.36 0 0 0 13.06 45.49l0.08 0.06 0.18 0.14 32.25 24.17 16 12.09 9.72 7.35a6.57 6.57 0 0 0 7.92 0l9.72-7.35 16-12.09 32.48-24.31 0.09-0.07a39.36 39.36 0 0 0 13.07-45.48z" fill="#e53935"/><path class="cls-3" d="m302 174.37-0.21-0.56a71.5 71.5 0 0 0-28.5 12.82l-46.55 35.2 29.64 22.4 32.48-24.31 0.09-0.07a39.36 39.36 0 0 0 13.05-45.48z" fill="#ef6c00"/><path class="cls-4" d="m197 244.23 16 12.09 9.72 7.35a6.57 6.57 0 0 0 7.92 0l9.72-7.35 16-12.09-29.64-22.4z" fill="#f9a825"/><path class="cls-3" d="m180.14 186.63a71.44 71.44 0 0 0-28.49-12.81l-0.22 0.55a39.36 39.36 0 0 0 13.06 45.49l0.08 0.06 0.18 0.14 32.25 24.17 29.66-22.4z" fill="#ef6c00"/></g></svg>
