<svg xmlns="http://www.w3.org/2000/svg" viewBox="0 0 32 32">
  <path d="M28.96692,12H9.44152a2,2,0,0,0-1.89737,1.36754L4,24V10H28a2,2,0,0,0-2-2H15.1241a2,2,0,0,1-1.28038-.46357L12.5563,6.46357A2,2,0,0,0,11.27592,6H4A2,2,0,0,0,2,8V24a2,2,0,0,0,2,2H26l4.80523-11.21213A2,2,0,0,0,28.96692,12Z" style="fill: #009688"/>
  <g>
    <path d="M12,12.00044,22.0007,28,32,12.07746v-.077H28.11124L22.05843,21.6412l-6.02605-9.64076Z" style="fill: #41b883;fill-rule: evenodd"/>
    <path d="M16.03058,12l6.026,9.64234L28.11093,12H24.4642L22.081,15.79536,19.70767,12Z" style="fill: #35495e;fill-rule: evenodd"/>
  </g>
</svg>
