<?xml version="1.0" encoding="UTF-8" standalone="no"?>
<svg
   xmlns:dc="http://purl.org/dc/elements/1.1/"
   xmlns:cc="http://creativecommons.org/ns#"
   xmlns:rdf="http://www.w3.org/1999/02/22-rdf-syntax-ns#"
   xmlns:svg="http://www.w3.org/2000/svg"
   xmlns="http://www.w3.org/2000/svg"
   xmlns:xlink="http://www.w3.org/1999/xlink"
   xmlns:sodipodi="http://sodipodi.sourceforge.net/DTD/sodipodi-0.dtd"
   xmlns:inkscape="http://www.inkscape.org/namespaces/inkscape"
   width="24"
   height="24"
   clip-rule="evenodd"
   id="svg3611"
   version="1.1"
   inkscape:version="0.91 r13725"
   sodipodi:docname="folder-bower.svg">
  <metadata
     id="metadata3639">
    <rdf:RDF>
      <cc:Work
         rdf:about="">
        <dc:format>image/svg+xml</dc:format>
        <dc:type
           rdf:resource="http://purl.org/dc/dcmitype/StillImage" />
      </cc:Work>
    </rdf:RDF>
  </metadata>
  <sodipodi:namedview
     pagecolor="#ffffff"
     bordercolor="#666666"
     borderopacity="1"
     objecttolerance="10"
     gridtolerance="10"
     guidetolerance="10"
     inkscape:pageopacity="0"
     inkscape:pageshadow="2"
     inkscape:window-width="1920"
     inkscape:window-height="1029"
     id="namedview3637"
     showgrid="false"
     inkscape:zoom="27.812867"
     inkscape:cx="14.421409"
     inkscape:cy="14.667259"
     inkscape:window-x="0"
     inkscape:window-y="25"
     inkscape:window-maximized="1"
     inkscape:current-layer="svg3611" />
  <g
     id="g3613">
    <title
       id="title3615">Layer 1</title>
    <path
       d="m10,4l-6,0c-1.11,0 -2,0.89 -2,2l0,12c0,1.097 0.903,2 2,2l16,0c1.097,0 2,-0.903 2,-2l0,-10c0,-1.11 -0.9,-2 -2,-2l-8,0l-2,-2z"
       fill="#8bc34a"
       fill-rule="nonzero"
       id="svg_1" />
    <use
       id="svg_14"
       xlink:href="#svg_13"
       transform="matrix(0.56824722,0,0,0.56824722,-3.4971301,-4.982023)"
       y="25.24087"
       x="24.348961"
       width="100%"
       height="100%" />
  </g>
  <defs
     id="defs3622">
    <symbol
       viewBox="0 0 400.00001 399.99999"
       id="svg_13">
      <g
         id="svg_16"
         transform="matrix(0.81733,0,0,0.81733,12.061,33.203) ">
        <path
           id="svg_12"
           d="m447.61,200.08c-23.139,-22.234 -138.85,-36.114 -175.36,-40.154c1.7683,-4.1766 3.274,-8.4961 4.517,-12.944c4.9771,-2.1797 10.35,-4.2077 15.905,-5.9011c0.67696,1.9969 3.8653,9.6478 5.6822,13.279c73.415,2.0251 77.184,-54.557 80.17,-70.058c2.9199,-15.157 2.7711,-29.802 27.953,-56.575c-37.516,-10.933 -91.467,16.945 -109.54,58.437c-6.7911,-2.5445 -13.597,-4.4236 -20.328,-5.586c-4.8244,-19.459 -29.944,-73.672 -95.863,-73.672c-83.461,0 -174.43,68.853 -174.43,185.41c0,97.976 66.891,183.84 104.68,183.84c16.505,0 30.703,-12.36 34.036,-23.439c2.7944,7.5964 11.368,31.212 14.184,37.224c4.162,8.8901 23.41,16.583 31.833,7.3572c10.83,6.0168 30.703,9.641 41.534,-6.4049c20.859,4.412 39.299,-8.0263 39.702,-22.868c10.235,-0.54664 15.256,-14.918 13.021,-26.363c-1.6477,-8.4261 -19.248,-38.661 -26.113,-49.098c13.59,11.054 48.013,14.183 52.194,0.007c21.911,17.198 56.057,8.1713 58.765,-5.8155c26.624,6.9175 57.16,-8.2754 52.146,-26.676c42.771,-2.9578 37.296,-48.464 25.296,-59.996l0.0158,-0.0037z"
           fill="#543729"
           stroke-width="0.97265" />
        <g
           id="svg_11"
           transform="matrix(0.97265,0,0,0.97265,6.324,6.9029) ">
          <path
             id="svg_17"
             d="m331.25,98.825c9.471,-18.791 21.372,-39.309 36.404,-52.003c-16.545,6.668 -32.88,26.601 -42.538,47.906c-4.923,-3.129 -9.921,-5.92 -14.961,-8.361c13.473,-28.758 44.779,-52.775 79.28,-54.651c-23.109,20.958 -14.906,64.518 -33.906,87.578c-5.437,-5.461 -17.921,-16 -24.279,-20.469zm-14.938,30.599c0.01,-0.719 0.279,-6.266 0.784,-8.798c-1.325,-0.312 -9.561,-1.923 -13.855,-1.822c-0.313,5.393 2.266,14.568 4.815,20.091c17.555,-0.368 30.235,-5.625 37.698,-10.458c-6.354,-2.962 -17.196,-5.595 -25.44,-7.17c-0.92,1.903 -3.184,6.752 -4.002,8.157z"
             fill="#00acee" />
        </g>
        <g
           id="svg_18"
           stroke-width="0.97265">
          <path
             id="svg_10"
             d="m250.54,277.39c0.004,0.0243 0.0146,0.0573 0.0176,0.0817c-2.1642,-4.6571 -4.4625,-10.314 -7.2074,-17.708c10.688,15.557 44.184,7.5332 42.427,-6.4069c16.395,12.336 50.143,-2.0552 42.471,-19.353c16.423,7.6528 35.168,-7.7452 30.964,-14.455c28,5.4002 54.832,10.783 63.256,12.938c-5.5957,9.1235 -18.339,15.566 -37.549,11.089c10.38,14.14 -9.7732,31.105 -37.844,21.761c6.1793,13.882 -18.814,26.379 -47.22,11.91c0.36085,13.888 -35.24,15.487 -49.315,0.14201l-0.0002,0.00119zm55.543,-70.194c32.497,2.4949 86.238,7.3406 119.51,11.997c-2.1019,-10.828 -7.8435,-13.921 -25.905,-18.772c-19.425,2.0718 -68.706,6.9127 -93.604,6.7755l-0.001,-0.0005z"
             fill="#2baf2b" />
          <path
             id="svg_9"
             d="m285.78,253.36c16.395,12.336 50.143,-2.0552 42.471,-19.353c16.423,7.6528 35.168,-7.7453 30.964,-14.455c-33.103,-6.3826 -67.84,-12.788 -75.719,-13.908c4.7796,0.25387 12.702,0.7966 22.59,1.5562c24.899,0.13714 74.18,-4.7038 93.604,-6.7755c-31.452,-7.9748 -95.666,-19.613 -140.01,-22.48c-2.0552,3.0036 -5.833,8.0974 -12.413,13.51c-19.403,41.053 -54.557,68.341 -93.454,68.341c-11.335,0 -24.018,-1.9122 -38.233,-6.4565c-8.8648,9.497 -46.661,16.694 -77.329,1.6409c24.326,56.961 80.74,94.984 143.19,94.984c52.591,0 75.912,-53.704 70.808,-67.914c-1.2382,-3.45 -6.1452,-14.889 -8.891,-22.283c10.689,15.556 44.185,7.5322 42.429,-6.4078l-0.007,0.0007z"
             fill="#ffcc2f" />
          <path
             id="svg_8"
             d="m253.91,145.27c4.6435,-2.526 20.69,-12.253 35.981,-15.908c-0.24121,-1.6934 -0.4231,-3.4014 -0.53593,-5.1191c-10.032,2.4025 -28.945,10.509 -39.784,-0.66237c22.866,6.9 34.283,-6.1482 51.09,-6.1482c10.014,0 24.305,2.7974 35.569,7.22c-9.0603,-8.3697 -38.771,-33.63 -75.557,-33.717c-8.2131,9.9571 -17.091,31.526 -6.7638,54.334l0.00073,0.00067z"
             fill="#cecece" />
          <path
             id="svg_7"
             d="m115.58,253.33c14.215,4.5442 26.898,6.4565 38.233,6.4565c38.896,0 74.05,-27.289 93.454,-68.341c-14.351,11.979 -39.291,22.229 -78.241,22.229c34.694,-7.8668 64.56,-25.156 79.753,-50.427c-10.68,-16.998 -22.263,-54.603 7.0702,-84.331c-4.5122,-14.496 -26.475,-52.765 -75.095,-52.765c-84.851,0 -155.17,71.001 -155.17,166.15c0,22.525 4.5472,43.65 12.669,62.664c30.667,15.054 68.463,7.8571 77.328,-1.6399l-0.0012,0.0044z"
             fill="#ef5734" />
          <path
             id="svg_6"
             d="m141.03,108.45c0,21.644 17.546,39.191 39.19,39.191c21.644,0 39.192,-17.548 39.192,-39.191c0,-21.644 -17.548,-39.191 -39.192,-39.191c-21.644,0 -39.19,17.547 -39.19,39.191z"
             fill="#ffcc2f" />
          <path
             id="svg_5"
             d="m156.76,108.45c0,12.958 10.507,23.463 23.463,23.463c12.96,0 23.464,-10.506 23.464,-23.463c0,-12.959 -10.504,-23.464 -23.464,-23.464c-12.957,0 -23.463,10.506 -23.463,23.464z"
             fill="#543729" />
          <ellipse
             id="svg_4"
             cx="180.22"
             cy="98.044"
             rx="13.673"
             ry="8.501"
             fill="#fff" />
        </g>
      </g>
    </symbol>
  </defs>
</svg>
