<svg xmlns="http://www.w3.org/2000/svg" viewBox="0 0 16 16"><path id="folder" fill="#f9a825" d="m6.922 3.768-.644-.536A1 1 0 0 0 5.638 3H2a1 1 0 0 0-1 1v8a1 1 0 0 0 1 1h12a1 1 0 0 0 1-1V5a1 1 0 0 0-1-1H7.562a1 1 0 0 1-.64-.232"/><path id="motive" fill="#fff9c4" d="M16 9V8h-1.174a3 3 0 0 0-.858-1.261L15 5.707 14.293 5l-1.206 1.206a2.97 2.97 0 0 0-2.173 0L9.706 5 9 5.707l1.032 1.032A3 3 0 0 0 9.174 8H8v1h1v1H8v1h1v1H8v1h1.175a2.996 2.996 0 0 0 5.65 0H16v-1h-1v-1h1v-1h-1V9Zm-3 4h-2v-1h2zm0-3h-2V9h2z"/></svg>