<svg xmlns="http://www.w3.org/2000/svg" viewBox="0 0 24 24" fill="none"><path fill="#4CAF50" d="M19 20H4a2 2 0 0 1-2-2V6c0-1.11.89-2 2-2h6l2 2h7c1.097 0 2 .903 2 2H4v10l2.14-8h17.07l-2.28 8.5c-.23.87-1.01 1.5-1.93 1.5Z"/><path fill="#A5D6A7" fill-rule="evenodd" d="m20.655 14.791 1.205 1.372-1.204 1.373.167 1.816-1.782.405-.933 1.57-1.678-.72-1.678.725-.933-1.57-1.782-.405.167-1.821L11 16.163l1.204-1.377-.167-1.816 1.782-.4.933-1.57 1.678.72 1.678-.72.933 1.57 1.375.312-4.127 3.883-1.73-1.652-.597.57 2.327 2.228 4.482-4.369-.116 1.25Zm.116-1.249.052-.567-.407-.093.95-.895.494.494-1.09 1.061Z" clip-rule="evenodd"/></svg>