<svg width="24" height="24" viewBox="0 0 24 24" fill="none" xmlns="http://www.w3.org/2000/svg">
<g clip-path="url(#clip0)">
<path d="M19 20H4C3.46957 20 2.96086 19.7893 2.58579 19.4142C2.21071 19.0391 2 18.5304 2 18V6C2 4.89 2.89 4 4 4H10L12 6H19C20.097 6 21 6.903 21 8H4V18L6.14 10H23.21L20.93 18.5C20.7 19.37 19.92 20 19 20Z" fill="#009688"/>
<path d="M14.498 19.078H10L15.842 9L21.685 19.078H17.215" fill="#41B883"/>
<path d="M21.11 19.078H24.21L19.142 10.368L14.117 19.078H17.217" fill="#328170"/>
<path d="M19.27 19.078H21.553L17.819 12.662L14.117 19.078H16.401" fill="#35495E"/>
</g>
<defs>
<clipPath id="clip0">
<rect width="24" height="24" fill="white"/>
</clipPath>
</defs>
</svg>
