<svg xmlns="http://www.w3.org/2000/svg" viewBox="0 0 32 32">
  <path d="M13.84376,7.53645l-1.28749-1.0729A2,2,0,0,0,11.27591,6H4A2,2,0,0,0,2,8V24a2,2,0,0,0,2,2H28a2,2,0,0,0,2-2V10a2,2,0,0,0-2-2H15.12412A2,2,0,0,1,13.84376,7.53645Z" style="fill: #c0ca33"/>
  <path d="M22.93125,16a3,3,0,0,0,.00293-6h-.00293a2.99927,2.99927,0,0,0-3,2.99854V13a2.99926,2.99926,0,0,0,2.99853,3h.00147m0,3.97333c-2.22532-2.07809-5.95525-3.97835-9-3.97333V26c3.18933,0,6.84933,2.004,9,4,2.22532-2.07809,5.95525-4.005,9-4V16C28.8865,15.995,25.15657,17.89524,22.93125,19.97333Z" style="fill: #f0f4c3;fill-rule: evenodd"/>
</svg>
