<svg width="32" height="32" viewBox="0 0 32 32" fill="none" xmlns="http://www.w3.org/2000/svg">
<path d="M13.844 7.536L12.556 6.464C12.1967 6.1644 11.7438 6.00021 11.276 6H4C3.46957 6 2.96086 6.21071 2.58579 6.58579C2.21071 6.96086 2 7.46957 2 8V24C2 24.5304 2.21071 25.0391 2.58579 25.4142C2.96086 25.7893 3.46957 26 4 26H28C28.5304 26 29.0391 25.7893 29.4142 25.4142C29.7893 25.0391 30 24.5304 30 24V10C30 9.46957 29.7893 8.96086 29.4142 8.58579C29.0391 8.21071 28.5304 8 28 8H15.124C14.6562 7.99979 14.2033 7.8356 13.844 7.536Z" fill="#FFF3E0"/>
<path d="M24.006 25.9333C26.8352 25.6191 29.5025 24.1115 30.9711 21.5954C30.2755 27.8189 23.4705 31.7523 17.9158 29.3373C17.4039 29.1154 16.9633 28.7461 16.661 28.2714C15.4127 26.3113 15.0024 23.8172 15.5919 21.5537C17.2765 24.461 20.7017 26.2431 24.006 25.9333Z" fill="#FFB300"/>
<path d="M15.4887 19.728C14.3419 22.3783 14.2922 25.481 15.6982 28.0345C10.7504 24.3121 10.8043 16.3461 15.6377 12.6609C16.0848 12.3203 16.616 12.1181 17.1732 12.0874C19.4647 11.9665 21.7928 12.8521 23.4255 14.5024C20.1082 14.5354 16.8774 16.6603 15.4887 19.728Z" fill="#880E4F"/>
<path d="M25.0255 15.3178C23.3517 12.984 20.732 11.3952 17.8618 11.3469C23.41 8.82857 30.2345 12.9115 30.9776 18.948C31.0467 19.5084 30.9559 20.0797 30.7075 20.5851C29.6709 22.6903 27.7488 24.3231 25.5028 24.9273C27.1485 21.875 26.9454 18.1459 25.0255 15.3178Z" fill="#E53935"/>
</svg>
