<?xml version="1.0" encoding="UTF-8"?>
<svg fill="none" version="1.1" viewBox="0 0 24 24" xml:space="preserve" xmlns="http://www.w3.org/2000/svg"><path d="m10 4h-6c-1.11 0-2 0.89-2 2v12c0 1.097 0.903 2 2 2h16c1.097 0 2-0.903 2-2v-10a2 2 0 0 0-2-2h-8z" clip-rule="evenodd" fill="#e57373" stroke-linejoin="round" stroke-miterlimit="1.414"/><path d="m10 4h-6c-1.11 0-2 0.89-2 2v12c0 1.097 0.903 2 2 2h16c1.097 0 2-0.903 2-2v-10c0-0.53043-0.2107-1.0391-0.5858-1.4142-0.3751-0.37508-0.8838-0.58579-1.4142-0.58579h-8z" fill="#2196f3"/><path d="m18.144 17.98v2.7918h5.5835v-5.5834h-5.5835zm-5.9822 0v2.7918h5.5833v-5.5834h-5.5833zm5.9822-5.9823v2.7918h5.5835v-5.5834h-5.5835zm-5.9822 0v2.7918h5.5833v-5.5834h-5.5833z" fill="#bbdefb" stroke-width=".96381"/><path d="m0.16206 18.459v-5.25l6-1.32v6.48l-6 0.09m17-9v8.75l-10 0.15v-6.69l10-2.21m-17 10 6 0.09v6.81l-6-1.15v-5.75m17 0.25v8.75l-10-1.91v-6.99z"/></svg>
