<svg xmlns="http://www.w3.org/2000/svg" viewBox="0 0 32 32"><path fill="#546e7a" d="M28.967 12H9.442a2 2 0 0 0-1.898 1.368L4 24V10h24a2 2 0 0 0-2-2H15.124a2 2 0 0 1-1.28-.464l-1.288-1.072A2 2 0 0 0 11.276 6H4a2 2 0 0 0-2 2v16a2 2 0 0 0 2 2h22l4.805-11.212A2 2 0 0 0 28.967 12"/><path fill="#cfd8dc" d="M24 12a8 8 0 1 0 3.969 14.94L22 19v4.5a.5.5 0 0 1-.5.5h-1a.5.5 0 0 1-.5-.5v-7a.5.5 0 0 1 .5-.5h1.232a.5.5 0 0 1 .416.223l6.736 10.103A7.993 7.993 0 0 0 24 12m4 8h-2v-3.5a.5.5 0 0 1 .5-.5h1a.5.5 0 0 1 .5.5Z"/></svg>