<svg xmlns="http://www.w3.org/2000/svg" viewBox="0 0 32 32">
  <path d="M28.96692,12H9.44152a2,2,0,0,0-1.89737,1.36754L4,24V10H28a2,2,0,0,0-2-2H15.1241a2,2,0,0,1-1.28038-.46357L12.5563,6.46357A2,2,0,0,0,11.27592,6H4A2,2,0,0,0,2,8V24a2,2,0,0,0,2,2H26l4.80523-11.21213A2,2,0,0,0,28.96692,12Z" style="fill: #ff5252"/>
  <path d="M24,14a8,8,0,1,0,8,8A8,8,0,0,0,24,14Zm6,8a5.96067,5.96067,0,0,1-1.11487,3.47095l-8.35608-8.35608A5.99041,5.99041,0,0,1,30,22ZM18,22a5.96067,5.96067,0,0,1,1.11487-3.47095L27.471,26.88513A5.99041,5.99041,0,0,1,18,22Z" style="fill: #ffcdd2;fill-rule: evenodd"/>
</svg>
