<svg xmlns="http://www.w3.org/2000/svg" viewBox="0 0 16 16"><path id="folder" fill="#ff4081" d="m6.922 3.768-.644-.536A1 1 0 0 0 5.638 3H2a1 1 0 0 0-1 1v8a1 1 0 0 0 1 1h12a1 1 0 0 0 1-1V5a1 1 0 0 0-1-1H7.562a1 1 0 0 1-.64-.232"/><path id="motive" fill="#ffcdd2" d="M11.753 7.957c0 .269 1.878.142 2.131-.05 0-1.856-1.022-2.834-2.892-2.834-1.863 0-2.907.992-2.907 2.48 0 2.586 3.574 2.635 3.574 4.045a.573.569 0 0 1-.638.638c-.573 0-.797-.284-.768-1.254 0-.212-2.175-.276-2.24 0C7.846 13.32 9.339 14 11.05 14c1.645 0 2.95-.864 2.95-2.423 0-2.777-3.624-2.7-3.624-4.074a.596.592 0 0 1 .674-.637c.261 0 .739.05.696 1.09zM3 5.317 3.096 3h1.827L5 5.242a.144.143 0 0 1-.231.114l-.701-.553-.837.63A.144.143 0 0 1 3 5.316Z"/></svg>