<svg viewBox="0 0 32 32" xmlns="http://www.w3.org/2000/svg">
  <path
    d="M13.844 7.536L12.556 6.464C12.1967 6.1644 11.7438 6.00021 11.276 6H4C3.46957 6 2.96086 6.21071 2.58579 6.58579C2.21071 6.96086 2 7.46957 2 8V24C2 24.5304 2.21071 25.0391 2.58579 25.4142C2.96086 25.7893 3.46957 26 4 26H28C28.5304 26 29.0391 25.7893 29.4142 25.4142C29.7893 25.0391 30 24.5304 30 24V10C30 9.46957 29.7893 8.96086 29.4142 8.58579C29.0391 8.21071 28.5304 8 28 8H15.124C14.6562 7.99979 14.2033 7.8356 13.844 7.536Z"
    fill="#546E7A" />
  <path
    d="M30 17L28 16V14H26L25 12L23 13L21 12L20 14H18V16L16 17L17 19L16 21L18 22V24H20L21 26L23 25L25 26L26 24H28V22L30 21L29 19L30 17ZM18 19C17.9997 18.3113 18.1431 17.6301 18.421 17H20V21H18.421C18.1431 20.3699 17.9997 19.6887 18 19ZM23 24C22.2255 23.9991 21.4618 23.8179 20.7695 23.4707C20.0771 23.1236 19.4751 22.6201 19.011 22H23V21H22V20H24C24.4095 20.4095 24.1485 21.154 24.5895 21.685C24.681 21.7874 24.7937 21.8686 24.9198 21.923C25.0458 21.9774 25.1822 22.0037 25.3195 22H26.9895C26.5254 22.6201 25.9232 23.1237 25.2308 23.4708C24.5383 23.818 23.7746 23.9991 23 24ZM22 18V17H24C24.1326 17 24.2598 17.0527 24.3536 17.1464C24.4473 17.2402 24.5 17.3674 24.5 17.5C24.5 17.6326 24.4473 17.7598 24.3536 17.8536C24.2598 17.9473 24.1326 18 24 18H22ZM27.579 21H27C26.735 20.9992 26.4811 20.8936 26.2938 20.7062C26.1064 20.5189 26.0008 20.265 26 20C26 19.7348 25.8946 19.4804 25.7071 19.2929C25.5196 19.1054 25.2652 19 25 19C25.3978 19 25.7794 18.842 26.0607 18.5607C26.342 18.2794 26.5 17.8978 26.5 17.5C26.5 17.4733 26.4993 17.4465 26.498 17.4195C26.4631 17.0264 26.2803 16.6611 25.9864 16.3976C25.6925 16.1341 25.3096 15.992 24.915 16H19.011C19.7457 15.0196 20.8152 14.3435 22.016 14.1004C23.2168 13.8574 24.465 14.0643 25.5232 14.6818C26.5813 15.2993 27.3755 16.2843 27.7546 17.4493C28.1337 18.6143 28.0712 19.8781 27.579 21Z"
    fill="#FF7043" />
</svg>