<svg width="100%" height="100%" viewBox="0 0 24 24" version="1.1" xmlns="http://www.w3.org/2000/svg" xmlns:xlink="http://www.w3.org/1999/xlink" xml:space="preserve" xmlns:serif="http://www.serif.com/" style="fill-rule:evenodd;clip-rule:evenodd;stroke-linejoin:round;stroke-miterlimit:2;"> <path d="M10,4L4,4C2.89,4 2,4.89 2,6L2,18C2,19.097 2.903,20 4,20L20,20C21.097,20 22,19.097 22,18L22,8C22,6.89 21.1,6 20,6L12,6L10,4Z" style="fill:rgb(100,181,246);fill-rule:nonzero;"/> <g transform="matrix(0.10049,0,0,0.10049,11.3433,8.56778)"> <path d="M59.595,125.11C58.692,124.484 57.624,122.408 57.016,120.098C56.475,118.043 56.27,112.625 56.632,109.967C56.767,108.979 56.844,108.137 56.803,108.096C56.761,108.054 55.921,107.923 54.936,107.805C49.259,107.12 43.2,105.191 38.587,102.598C37.609,102.048 36.692,101.598 36.551,101.598C36.409,101.598 35.911,102.335 35.443,103.235C33.27,107.419 29.474,111.574 26.589,112.926C25.536,113.42 24.132,113.54 23.483,113.192C22.504,112.668 22.214,110.59 22.799,108.29C23.199,106.715 24.808,103.401 26.112,101.465C26.688,100.61 27.826,99.16 28.641,98.242L30.123,96.574L29.35,95.836C27.316,93.892 23.494,89.395 23.494,88.944C23.494,88.783 28.708,85.161 29.088,85.058C29.281,85.006 29.749,85.468 30.381,86.337C31.751,88.221 35.415,91.844 37.571,93.446C54.006,105.664 77.171,102.595 89.643,86.548C90.305,85.696 90.95,84.998 91.076,84.998C91.326,84.998 96.487,88.497 96.667,88.788C96.828,89.049 94.572,91.972 92.645,94C91.731,94.963 90.983,95.829 90.985,95.924C90.986,96.02 91.704,96.855 92.581,97.779C95.365,100.714 98.105,105.297 98.866,108.29C99.451,110.59 99.16,112.668 98.182,113.192C97.97,113.306 97.41,113.397 96.936,113.396C93.936,113.389 88.961,108.572 86.009,102.815C85.44,101.706 84.89,100.798 84.787,100.798C84.684,100.798 84.105,101.116 83.5,101.503C79.211,104.252 72.806,106.623 67.266,107.514C66.088,107.703 65.027,107.933 64.909,108.024C64.756,108.143 64.775,108.698 64.977,109.945C65.337,112.169 65.198,117.451 64.724,119.587C64.234,121.792 63.482,123.501 62.554,124.515C61.488,125.681 60.659,125.848 59.595,125.11L59.595,125.11ZM0.625,80.152C0.572,80.012 0.551,72.698 0.58,63.898L0.631,47.898L9.017,47.898L9.07,53.788C9.11,58.195 9.186,59.718 9.37,59.835C9.506,59.921 11.605,59.993 14.035,59.995C17.476,59.997 18.502,59.939 18.674,59.731C18.821,59.553 18.913,57.54 18.948,53.681L19.001,47.898L27.387,47.898L27.387,80.298L19.001,80.298L18.948,74.115C18.913,69.96 18.823,67.844 18.674,67.665C18.502,67.457 17.471,67.398 14.009,67.398C10.547,67.398 9.517,67.457 9.344,67.665C9.196,67.844 9.106,69.96 9.07,74.115L9.017,80.298L4.869,80.352C1.66,80.394 0.7,80.349 0.625,80.152L0.625,80.152ZM34.568,80.15C34.515,80.011 34.495,72.698 34.524,63.898L34.575,47.898L55.341,47.898L55.45,54.992L43.161,55.098L43.105,57.482C43.063,59.255 43.114,59.908 43.305,60.029C43.446,60.118 45.832,60.193 48.607,60.195L53.653,60.198L53.599,63.748L53.544,67.298L43.162,67.498L43.162,73.098L55.94,73.298L55.94,80.298L45.302,80.349C36.898,80.39 34.644,80.348 34.568,80.149L34.568,80.15ZM62.522,80.15C62.469,80.011 62.449,72.698 62.478,63.898L62.529,47.898L70.915,47.898L71.115,73.098L83.295,73.298L83.295,80.298L72.957,80.35C64.792,80.39 62.598,80.348 62.523,80.15L62.522,80.15ZM89.077,80.148C89.025,80.01 89.005,72.698 89.033,63.898L89.085,47.898L93.478,47.849C95.894,47.822 97.97,47.867 98.091,47.949C98.387,48.149 102.822,60.228 103.8,63.498C104.817,66.9 104.738,66.699 104.969,66.468C105.077,66.36 105.549,65.017 106.018,63.484C107.052,60.107 111.14,48.398 111.41,48.044C111.558,47.85 112.634,47.803 116.018,47.844L120.433,47.898L120.433,80.298L116.694,80.353L112.955,80.407L112.823,79.878C112.547,78.778 112.917,67.204 113.333,63.898C113.988,58.696 113.889,58.615 112.345,63.098C110.675,67.946 107.356,76.86 107.039,77.348C106.767,77.767 106.603,77.798 104.679,77.798C103.262,77.798 102.55,77.719 102.416,77.548C102.169,77.231 98.093,66.138 96.979,62.75C96.193,60.36 95.766,59.499 95.78,60.336C95.783,60.535 95.967,62.183 96.188,63.998C96.601,67.397 96.967,78.794 96.697,79.872L96.565,80.397L92.869,80.397C90.095,80.397 89.148,80.335 89.077,80.147L89.077,80.148ZM91.718,43.208C90.932,41.874 88.953,39.384 87.279,37.622C81.886,31.947 75.393,28.36 67.421,26.652C65.138,26.163 64.532,26.117 60.332,26.108C55.387,26.097 54.298,26.22 50.469,27.223C45.284,28.581 40.557,30.99 36.372,34.408C34.359,36.051 31.154,39.431 29.785,41.354C28.942,42.538 28.517,42.976 28.295,42.892C27.568,42.616 22.694,39.339 22.697,39.129C22.704,38.655 25.987,34.539 28.214,32.21L30.517,29.802L28.994,28.15C26.21,25.131 23.541,20.632 22.797,17.706C22.213,15.406 22.503,13.328 23.482,12.803C23.693,12.69 24.254,12.598 24.728,12.599C27.727,12.606 32.702,17.424 35.655,23.18C36.224,24.29 36.76,25.197 36.846,25.197C36.932,25.197 37.712,24.792 38.58,24.297C43.039,21.752 50.199,19.483 55.073,19.072C55.914,19.001 56.708,18.878 56.837,18.798C57.014,18.688 56.988,18.152 56.73,16.611C56.256,13.771 56.404,8.209 57.014,5.898C57.981,2.236 59.534,0.185 61.115,0.482C62.589,0.759 64.019,3.165 64.763,6.621C65.249,8.877 65.261,15.22 64.785,17.298C64.608,18.068 64.522,18.76 64.594,18.836C64.666,18.912 65.623,19.115 66.721,19.288C73.085,20.289 77.91,22.065 83.825,25.582C84.228,25.821 84.606,25.937 84.667,25.839C84.727,25.74 85.273,24.668 85.879,23.455C88.219,18.773 91.986,14.518 95.074,13.07C96.128,12.576 97.531,12.456 98.18,12.804C99.159,13.329 99.449,15.406 98.865,17.706C98.438,19.385 96.796,22.702 95.325,24.856C94.638,25.862 93.243,27.527 92.225,28.556L90.375,30.426L92.196,32.362C94.036,34.319 97.287,38.469 97.882,39.622C98.151,40.143 98.161,40.289 97.938,40.494C97.481,40.915 92.571,43.798 92.311,43.798C92.176,43.798 91.909,43.533 91.718,43.208L91.718,43.208Z" style="fill:rgb(179,229,252);fill-rule:nonzero;"/> </g> </svg>