<svg xmlns="http://www.w3.org/2000/svg" viewBox="0 0 32 32">
  <path d="M13.84376,7.53645l-1.28749-1.0729A2,2,0,0,0,11.27591,6H4A2,2,0,0,0,2,8V24a2,2,0,0,0,2,2H28a2,2,0,0,0,2-2V10a2,2,0,0,0-2-2H15.12412A2,2,0,0,1,13.84376,7.53645Z" style="fill: #42a5f5"/>
  <g>
    <circle cx="29" cy="13" r="3" style="fill: #b3e5fc"/>
    <path d="M19.70312,14.59375a7.70313,7.70313,0,1,0,7.70313,7.70313A7.7031,7.7031,0,0,0,19.70312,14.59375ZM21,24a3,3,0,1,1,3-3A3,3,0,0,1,21,24Z" style="fill: #b3e5fc"/>
  </g>
</svg>
