<svg xmlns="http://www.w3.org/2000/svg" xml:space="preserve" style="fill-rule:evenodd;clip-rule:evenodd;stroke-linejoin:round;stroke-miterlimit:2" viewBox="0 0 32 32"><path d="M28.967 12H9.442c-.859 0-1.627.553-1.898 1.368L4 24V10h24c0-1.097-.903-2-2-2H15.124c-.468 0-.921-.164-1.28-.464l-1.288-1.072A1.996 1.996 0 0 0 11.276 6H4c-1.097 0-2 .903-2 2v16c0 1.097.903 2 2 2h22l4.805-11.212c.107-.249.162-.517.162-.788 0-1.097-.903-2-2-2" style="fill:#757575;fill-rule:nonzero"/><g data-mit-no-recolor="true" transform="matrix(.71429 0 0 1.35714 12.286 -10.714)"><path d="M17 26.053v2.894c0 .581-.896 1.053-2 1.053s-2-.472-2-1.053v-2.894c0-.581.896-1.053 2-1.053s2 .472 2 1.053Z" style="fill:#ffd180"/><clipPath id="a"><path d="M17 26.053v2.894c0 .581-.896 1.053-2 1.053s-2-.472-2-1.053v-2.894c0-.581.896-1.053 2-1.053s2 .472 2 1.053Z"/></clipPath><g clip-path="url(#a)"><path d="m20 30-4-4v-4h4v8Z" style="fill:#ffb74d" transform="matrix(1 0 0 .52632 -2.997 13.158)"/></g></g><g data-mit-no-recolor="true" transform="matrix(1.25 0 0 1.58874 9.255 -13.037)"><path d="M14.996 17.696v5.021c0 1.023-1.039 1.854-2.32 1.854h-3.36c-1.28 0-2.32-.831-2.32-1.854v-5.021c0-1.963 1.936-3.196 4-3.196h.002c1.97 0 3.998 1.217 3.998 3.196Z" style="fill:#ffca28"/><clipPath id="b"><path d="M14.996 17.696v5.021c0 1.023-1.039 1.854-2.32 1.854h-3.36c-1.28 0-2.32-.831-2.32-1.854v-5.021c0-1.963 1.936-3.196 4-3.196h.002c1.97 0 3.998 1.217 3.998 3.196Z"/></clipPath><g clip-path="url(#b)"><path d="M8 16 21 3l-9-3-8 11 4 5Z" style="fill:#ff8a80" transform="matrix(.57143 0 0 .45777 2.425 13.585)"/><path d="M22 13 11 24l1 2h11V14l-1-1Z" style="fill:#00bfa5" transform="matrix(.57143 0 0 .45777 2.425 13.585)"/></g></g></svg>