<?xml version="1.0" encoding="UTF-8" standalone="no"?>
<svg
   clip-rule="evenodd"
   stroke-linejoin="round"
   stroke-miterlimit="1.414"
   viewBox="0 0 24 24"
   xml:space="preserve"
   version="1.1"
   id="svg6"
   sodipodi:docname="folder-user-open.svg"
   inkscape:version="1.1.2 (0a00cf5339, 2022-02-04)"
   xmlns:inkscape="http://www.inkscape.org/namespaces/inkscape"
   xmlns:sodipodi="http://sodipodi.sourceforge.net/DTD/sodipodi-0.dtd"
   xmlns="http://www.w3.org/2000/svg"
   xmlns:svg="http://www.w3.org/2000/svg"><defs
     id="defs10" /><sodipodi:namedview
     id="namedview8"
     pagecolor="#ffffff"
     bordercolor="#666666"
     borderopacity="1.0"
     inkscape:pageshadow="2"
     inkscape:pageopacity="0.0"
     inkscape:pagecheckerboard="0"
     showgrid="false"
     inkscape:zoom="26.833333"
     inkscape:cx="11.440994"
     inkscape:cy="11.981366"
     inkscape:window-width="1680"
     inkscape:window-height="994"
     inkscape:window-x="0"
     inkscape:window-y="0"
     inkscape:window-maximized="1"
     inkscape:current-layer="svg6" /><path
     d="M19 20H4a2 2 0 0 1-2-2V6c0-1.11.89-2 2-2h6l2 2h7c1.097 0 2 .903 2 2H4v10l2.14-8h17.07l-2.28 8.5c-.23.87-1.01 1.5-1.93 1.5z"
     fill="#e57373"
     style="fill:#5e35b1"
     id="path2" /><path
     id="path870"
     d="m 17.388997,9.139 a 2.85,2.85 0 0 1 2.850001,2.850003 2.85,2.85 0 0 1 -2.850001,2.85 2.85,2.85 0 0 1 -2.849999,-2.85 A 2.85,2.85 0 0 1 17.388997,9.139 m 0,7.125003 c 3.14925,0 5.7,1.275375 5.7,2.85 v 1.425 H 11.689 v -1.425 c 0,-1.574625 2.550747,-2.85 5.699997,-2.85 z"
     inkscape:connector-curvature="0"
     style="fill:#b39ddb;fill-opacity:1;stroke-width:0.7125" /></svg>
