<svg xmlns="http://www.w3.org/2000/svg" viewBox="0 0 16 16">
<path id="folder" fill="#546e7a" d="m6.922 3.768-.644-.536A1 1 0 0 0 5.638 3H2a1 1 0 0 0-1 1v8a1 1 0 0 0 1 1h12a1 1 0 0 0 1-1V5a1 1 0 0 0-1-1H7.562a1 1 0 0 1-.64-.232" />
<path id="motive" fill="#cfd8dc" d="m 15.319989,13.749356 c -0.409993,0.61999 -0.843486,1.22498 -1.503975,1.23498 -0.66099,0.015 -0.872986,-0.394994 -1.622474,-0.394994 -0.753987,0 -0.985983,0.384994 -1.611973,0.409993 -0.6459898,0.025 -1.1339808,-0.659989 -1.5479748,-1.264979 -0.843486,-1.234979 -1.489475,-3.509942 -0.621489,-5.0399169 a 2.4049604,2.4049605 0 0 1 2.0314658,-1.254979 c 0.63099,-0.01 1.23248,0.434993 1.621973,0.434993 0.384994,0 1.114482,-0.534992 1.87847,-0.454993 a 2.2799625,2.2799626 0 0 1 1.79497,0.989984 2.2849624,2.2849625 0 0 0 -1.059983,1.9049689 2.2049637,2.2049638 0 0 0 1.320979,2.020466 5.5499087,5.5499089 0 0 1 -0.679989,1.414977 z M 12.504035,5.749488 A 2.2299633,2.2299634 0 0 1 13.954011,5 2.2099636,2.2099637 0 0 1 13.44102,6.5949741 1.7899705,1.7899706 0 0 1 11.986044,7.3049621 2.1499646,2.1499647 0 0 1 12.504035,5.749988 Z" />
</svg>
