<?xml version="1.0" encoding="UTF-8"?>
<svg version="1.1" viewBox="0 0 24 24" xmlns="http://www.w3.org/2000/svg">
 <path d="M19 20H4C3.46957 20 2.96086 19.7893 2.58579 19.4142C2.21071 19.0391 2 18.5304 2 18V6C2 4.89 2.89 4 4 4H10L12 6H19C20.097 6 21 6.903 21 8H4V18L6.14 10H23.21L20.93 18.5C20.7 19.37 19.92 20 19 20Z" fill="#546E7A"/>
 <path d="m22.884 19.244c-0.5079 0.7587-1.0463 1.4989-1.866 1.5112-0.8199 0.0183-1.0829-0.4834-2.0129-0.4834-0.936 0-1.2236 0.4712-2.0006 0.5018-0.8014 0.0305-1.4072-0.8076-1.921-1.5479-1.0463-1.5112-1.8477-4.2949-0.7709-6.167 0.5323-0.93 1.4867-1.5173 2.5207-1.5356 0.783-0.0123 1.5295 0.5323 2.0128 0.5323 0.4772 0 1.3827-0.6547 2.331-0.5568 0.3976 0.0183 1.5112 0.1591 2.2269 1.2114-0.0551 0.0367-1.3276 0.7832-1.3154 2.331 0.0183 1.8477 1.6213 2.4656 1.6397 2.4717-0.0184 0.0428-0.257 0.881-0.8443 1.7313zm-3.4935-9.7888c0.4467-0.5078 1.1869-0.89323 1.7987-0.9177 0.0795 0.71581-0.208 1.4377-0.6363 1.9517-0.4222 0.5199-1.1196 0.9238-1.8049 0.8687-0.0918-0.7035 0.2509-1.4377 0.6425-1.9027z" fill="#cfd8dc"/>
</svg>
