<?xml version="1.0" encoding="UTF-8" standalone="no"?>
<svg
   xmlns:dc="http://purl.org/dc/elements/1.1/"
   xmlns:cc="http://creativecommons.org/ns#"
   xmlns:rdf="http://www.w3.org/1999/02/22-rdf-syntax-ns#"
   xmlns:svg="http://www.w3.org/2000/svg"
   xmlns="http://www.w3.org/2000/svg"
   xmlns:sodipodi="http://sodipodi.sourceforge.net/DTD/sodipodi-0.dtd"
   xmlns:inkscape="http://www.inkscape.org/namespaces/inkscape"
   clip-rule="evenodd"
   fill-rule="evenodd"
   stroke-linejoin="round"
   stroke-miterlimit="1.4142"
   version="1.1"
   viewBox="0 0 24 24"
   xml:space="preserve"
   id="svg8"
   sodipodi:docname="folder-utils.svg"
   inkscape:version="0.92.2 5c3e80d, 2017-08-06"><metadata
     id="metadata14"><rdf:RDF><cc:Work
         rdf:about=""><dc:format>image/svg+xml</dc:format><dc:type
           rdf:resource="http://purl.org/dc/dcmitype/StillImage" /></cc:Work></rdf:RDF></metadata><defs
     id="defs12"><inkscape:perspective
       sodipodi:type="inkscape:persp3d"
       inkscape:vp_x="0 : 12 : 1"
       inkscape:vp_y="0 : 1000 : 0"
       inkscape:vp_z="24 : 12 : 1"
       inkscape:persp3d-origin="12 : 8 : 1"
       id="perspective11" /></defs><sodipodi:namedview
     pagecolor="#ffffff"
     bordercolor="#666666"
     borderopacity="1"
     objecttolerance="10"
     gridtolerance="10"
     guidetolerance="10"
     inkscape:pageopacity="0"
     inkscape:pageshadow="2"
     inkscape:window-width="1021"
     inkscape:window-height="610"
     id="namedview10"
     showgrid="false"
     inkscape:zoom="17.041667"
     inkscape:cx="12"
     inkscape:cy="12"
     inkscape:window-x="0"
     inkscape:window-y="0"
     inkscape:window-maximized="0"
     inkscape:current-layer="svg8" /><path
     d="m10 4h-6c-1.11 0-2 0.89-2 2v12c0 1.097 0.903 2 2 2h16c1.097 0 2-0.903 2-2v-10c0-1.11-0.9-2-2-2h-8l-2-2z"
     id="path2"
     fill-rule="nonzero"
     fill="#ffb300" /><path
     d="M 13.05,12.6 H 12 v 7.35 c 0,0.5775 0.4725,1.05 1.05,1.05 h 7.35 v -1.05 h -7.35 z m 8.4,-2.1 h -6.3 c -0.5775,0 -1.05,0.4725 -1.05,1.05 v 6.3 c 0,0.5775 0.4725,1.05 1.05,1.05 h 6.3 c 0.5775,0 1.05,-0.4725 1.05,-1.05 v -6.3 c 0,-0.5775 -0.4725,-1.05 -1.05,-1.05 z m -0.525,4.725 h -2.1 v 2.1 h -1.05 v -2.1 h -2.1 v -1.05 h 2.1 v -2.1 h 1.05 v 2.1 h 2.1 z"
     id="path7"
     inkscape:connector-curvature="0"
     style="stroke-width:0.52499998" /></svg>