<svg xmlns="http://www.w3.org/2000/svg" viewBox="0 0 16 16">
<path fill="#546e7a" d="m6.922 3.768-.644-.536A1 1 0 0 0 5.638 3H2a1 1 0 0 0-1 1v8a1 1 0 0 0 1 1h12a1 1 0 0 0 1-1V5a1 1 0 0 0-1-1H7.562a1 1 0 0 1-.64-.232" id="folder"/>
<path fill="#00e676" d="M11.249 13.999h3.4635a0.78 0.78 0 0 0 0.5635-0.3085 0.65 0.65 0 0 0 0.094-0.3155 0.63 0.63 0 0 0-0.094-0.309l-2.3425-4.0265a0.57 0.57 0 0 0-0.2215-0.2215 0.75 0.75 0 0 0-0.335-0.094 0.645 0.645 0 0 0-0.537 0.315l-0.591 1.027-1.188-1.993a0.65 0.65 0 0 0-0.215-0.2485 0.76 0.76 0 0 0-0.6235 0 0.75 0.75 0 0 0-0.255 0.2485l-2.8995 4.993a0.6 0.6 0 0 0-0.067 0.309 0.62 0.62 0 0 0 0.067 0.315 0.65 0.65 0 0 0 0.2485 0.215 0.65 0.65 0 0 0 0.315 0.094h2.1815a2.13 2.13 0 0 0 1.94-1.1205l1.06-1.846 0.557-0.9665 1.718 2.933h-2.282Zm-2.45-1h-1.52l2.2665-3.9 1.14 1.9465-0.76 1.3335a1.17 1.17 0 0 1-1.1335 0.62Z" id="motive"/>
</svg>
