<svg xmlns="http://www.w3.org/2000/svg" viewBox="0 0 16 16">
<path id="folder" fill="#009688" d="M14.483 6H4.721a1 1 0 0 0-.949.684L2 12V5h12a1 1 0 0 0-1-1H7.562a1 1 0 0 1-.64-.232l-.644-.536A1 1 0 0 0 5.638 3H2a1 1 0 0 0-1 1v8a1 1 0 0 0 1 1h11l2.403-5.606A1 1 0 0 0 14.483 6" />
<path id="motive" fill="#b2dfdb" d="m 8,7 v 6 a 1,1 0 0 0 1,1 h 6 a 1,1 0 0 0 1,-1 V 7 A 1,1 0 0 0 15,6 H 9 A 1,1 0 0 0 8,7 m 1,0 h 1 A 1,1 0 0 1 9,8 Z m 0,2 a 2,2 0 0 0 2,-2 h 1 a 3.0025,3.0025 0 0 1 -3,3 z m 0,4 2,-2 0.8,0.8 1.2,-1.8 2,3 z" />
</svg>
