<svg width="16" height="16" viewBox="0 0 16 16" fill="none" xmlns="http://www.w3.org/2000/svg">
<g clip-path="url(#clip0_581_264)">
<path d="M14.4835 6H4.721C4.51104 5.99995 4.30638 6.06599 4.13605 6.18876C3.96572 6.31153 3.83835 6.48479 3.772 6.684L2 12V5H14C14 4.73478 13.8946 4.48043 13.7071 4.29289C13.5196 4.10536 13.2652 4 13 4H7.562C7.3281 3.99989 7.10164 3.9178 6.922 3.768L6.278 3.232C6.09836 3.0822 5.8719 3.00011 5.638 3H2C1.73478 3 1.48043 3.10536 1.29289 3.29289C1.10536 3.48043 1 3.73478 1 4V12C1 12.2652 1.10536 12.5196 1.29289 12.7071C1.48043 12.8946 1.73478 13 2 13H13L15.4025 7.394C15.4677 7.24191 15.4941 7.07601 15.4794 6.91118C15.4647 6.74635 15.4094 6.58775 15.3183 6.44959C15.2272 6.31143 15.1033 6.19804 14.9576 6.11957C14.8119 6.0411 14.649 6.00002 14.4835 6Z" fill="#6D4C41"/>
<path d="M10.5352 12.6953H12.667Z" fill="#D7CCC8"/>
<path d="M10.5352 12.6953H12.667" stroke="#D7CCC8" stroke-width="0.4" stroke-miterlimit="2.6131" stroke-linecap="round" stroke-linejoin="round"/>
<path d="M10.5352 13.2476H12.667Z" fill="#D7CCC8"/>
<path d="M10.5352 13.2476H12.667" stroke="#D7CCC8" stroke-width="0.4" stroke-miterlimit="2.6131" stroke-linecap="round" stroke-linejoin="round"/>
<path d="M11.0684 13.8003H12.1343Z" fill="#D7CCC8"/>
<path d="M11.0684 13.8003H12.1343" stroke="#D7CCC8" stroke-width="0.4" stroke-miterlimit="2.6131" stroke-linecap="round" stroke-linejoin="round"/>
<path d="M11.584 5.3623V4.25695Z" fill="#D7CCC8"/>
<path d="M11.584 5.3623V4.25695" stroke="#D7CCC8" stroke-width="0.5" stroke-miterlimit="2.6131" stroke-linecap="round" stroke-linejoin="round"/>
<path d="M13.127 5.79004L13.6599 4.68469Z" fill="#D7CCC8"/>
<path d="M13.127 5.79004L13.6599 4.68469" stroke="#D7CCC8" stroke-width="0.5" stroke-miterlimit="2.6131" stroke-linecap="round" stroke-linejoin="round"/>
<path d="M14.2148 6.8335L15.2808 6.28082Z" fill="#D7CCC8"/>
<path d="M14.2148 6.8335L15.2808 6.28082" stroke="#D7CCC8" stroke-width="0.5" stroke-miterlimit="2.6131" stroke-linecap="round" stroke-linejoin="round"/>
<path d="M14.6855 8.45801H15.7515Z" fill="#D7CCC8"/>
<path d="M14.6855 8.45801H15.7515" stroke="#D7CCC8" stroke-width="0.5" stroke-miterlimit="2.6131" stroke-linecap="round" stroke-linejoin="round"/>
<path d="M14.7773 10.1129L15.3103 10.6655Z" fill="#D7CCC8"/>
<path d="M14.7773 10.1129L15.3103 10.6655" stroke="#D7CCC8" stroke-width="0.5" stroke-miterlimit="2.6131" stroke-linecap="round" stroke-linejoin="round"/>
<path d="M10.0095 5.79346L9.47656 4.68811Z" fill="#D7CCC8"/>
<path d="M10.0095 5.79346L9.47656 4.68811" stroke="#D7CCC8" stroke-width="0.5" stroke-miterlimit="2.6131" stroke-linecap="round" stroke-linejoin="round"/>
<path d="M8.94678 6.80225L7.88086 6.24957Z" fill="#D7CCC8"/>
<path d="M8.94678 6.80225L7.88086 6.24957" stroke="#D7CCC8" stroke-width="0.5" stroke-miterlimit="2.6131" stroke-linecap="round" stroke-linejoin="round"/>
<path d="M8.47217 8.4541H7.40625Z" fill="#D7CCC8"/>
<path d="M8.47217 8.4541H7.40625" stroke="#D7CCC8" stroke-width="0.5" stroke-miterlimit="2.6131" stroke-linecap="round" stroke-linejoin="round"/>
<path d="M8.38062 10.1129L7.84766 10.6655Z" fill="#D7CCC8"/>
<path d="M8.38062 10.1129L7.84766 10.6655" stroke="#D7CCC8" stroke-width="0.5" stroke-miterlimit="2.6131" stroke-linecap="round" stroke-linejoin="round"/>
<path d="M11.584 5.69092C13.0557 5.69112 14.249 6.91498 14.249 8.42432C14.2489 10.3342 12.8068 10.073 12.7666 11.7397C12.7615 11.9445 12.6087 12.3237 12.3916 12.3237H10.7754C10.5278 12.3234 10.4053 11.9444 10.4004 11.7397C10.3602 10.073 8.91811 10.3342 8.91797 8.42432C8.91797 6.91486 10.112 5.69092 11.584 5.69092ZM11.5166 6.38525C11.2819 6.10462 10.9912 6.30382 10.7129 6.44775C10.0547 6.78816 9.60443 7.29534 9.46387 8.05029C9.36499 8.58299 9.93583 8.57794 10.1875 8.10107C10.5381 7.43676 10.3758 7.5897 11.0117 7.0874C11.1233 6.99937 11.5534 6.77522 11.5762 6.65381C11.599 6.53205 11.5676 6.44651 11.5166 6.38525Z" fill="#D7CCC8"/>
</g>
<defs>
<clipPath id="clip0_581_264">
<rect width="16" height="16" fill="white"/>
</clipPath>
</defs>
</svg>
