<svg xmlns="http://www.w3.org/2000/svg" viewBox="0 0 16 16">
<path id="folder" fill="#ab47bc" d="M14.483 6H4.721a1 1 0 0 0-.949.684L2 12V5h12a1 1 0 0 0-1-1H7.562a1 1 0 0 1-.64-.232l-.644-.536A1 1 0 0 0 5.638 3H2a1 1 0 0 0-1 1v8a1 1 0 0 0 1 1h11l2.403-5.606A1 1 0 0 0 14.483 6" />
<path id="motive" fill="#e1bee7" d="m 10.790942,12.998422 a 1.9486511,1.9510496 0 0 1 -1.8936904,2.001577 2.0021141,2.0045784 0 0 1 0,-4.003654 1.9486511,1.9510496 0 0 1 1.8936904,2.002577 z m 2.350372,-4.7375493 a 1.9816282,1.9840674 0 0 0 -1.627373,-2.24821 1.9151743,1.9175316 0 0 0 -2.1260284,1.720426 2.0116075,2.0140835 0 0 0 1.2276504,2.143654 c 1.451496,0.6028243 1.793759,1.2121513 1.611885,2.8565363 a 1.9821279,1.9845676 0 0 0 1.625874,2.24871 1.9136753,1.9160308 0 0 0 2.127028,-1.718425 2.0136061,2.0160846 0 0 0 -1.227152,-2.145153 C 13.301703,10.514585 12.95944,9.9042577 13.141814,8.2603727 Z" />
</svg>
