<svg xmlns="http://www.w3.org/2000/svg" viewBox="0 0 32 32">
  <path d="M28.96692,12H9.44152a2,2,0,0,0-1.89737,1.36754L4,24V10H28a2,2,0,0,0-2-2H15.1241a2,2,0,0,1-1.28038-.46357L12.5563,6.46357A2,2,0,0,0,11.27592,6H4A2,2,0,0,0,2,8V24a2,2,0,0,0,2,2H26l4.80523-11.21213A2,2,0,0,0,28.96692,12Z" style="fill: #616161;fill-rule: evenodd"/>
  <g>
    <rect x="16" y="14" width="12" height="2" style="fill: #bdbdbd"/>
    <rect x="16" y="18" width="12" height="2" style="fill: #bdbdbd"/>
    <rect x="16" y="22" width="8" height="2" style="fill: #bdbdbd"/>
    <polygon points="26 22 26 28 32 25 26 22" style="fill: #bdbdbd;fill-rule: evenodd"/>
  </g>
</svg>
