<svg width="24" height="24" viewBox="0 0 24 24" fill="none" xmlns="http://www.w3.org/2000/svg">
<path d="M19 20H4C2.89 20 2 19.1 2 18V6C2 4.89 2.89 4 4 4H10L12 6H19C19.5304 6 20.0391 6.21071 20.4142 6.58579C20.7893 6.96086 21 7.46957 21 8H4V18L6.14 10H23.21L20.93 18.5C20.7 19.37 19.92 20 19 20Z" fill="#9575CD"/>
<path d="M10.25 17.25C10.25 16.6977 10.6977 16.25 11.25 16.25H17.75V22.75C17.75 23.3023 17.3023 23.75 16.75 23.75H11.25C10.6977 23.75 10.25 23.3023 10.25 22.75V17.25Z" fill="#D1C4E9"/>
<rect x="11" y="19" width="6" height="1" fill="#9575CD"/>
<path d="M18.5 15.5H16.25V11.25C16.25 10.6977 16.6977 10.25 17.25 10.25H22.75C23.3023 10.25 23.75 10.6977 23.75 11.25V16.75C23.75 17.3023 23.3023 17.75 22.75 17.75H18.5V15.5Z" fill="#D1C4E9"/>
<rect x="17" y="14" width="6" height="1" fill="#9575CD"/>
<rect x="17" y="12" width="6" height="1" fill="#9575CD"/>
</svg>
