<svg xmlns="http://www.w3.org/2000/svg" viewBox="0 0 16 16">
<path fill="#9575cd" d="m6.922 3.768-.644-.536A1 1 0 0 0 5.638 3H2a1 1 0 0 0-1 1v8a1 1 0 0 0 1 1h12a1 1 0 0 0 1-1V5a1 1 0 0 0-1-1H7.562a1 1 0 0 1-.64-.232" id="folder"/>
<path fill="#d1c4e9" d="m11.755 5.138-3.5 1.9685a0.5 0.5 0 0 0-0.255 0.436v3.915a0.5 0.5 0 0 0 0.255 0.436l3.5 1.9685a0.5 0.5 0 0 0 0.49 0l3.5-1.9685a0.5 0.5 0 0 0 0.255-0.436v-3.915a0.5 0.5 0 0 0-0.255-0.436l-3.5-1.9685a0.5 0.5 0 0 0-0.49 0m-2.6275 2.625 2.75-1.549a0.25 0.25 0 0 1 0.245 0L13 6.71V7l-4 2v-1.019a0.25 0.25 0 0 1 0.1275-0.2175ZM13 8v2.76l-2.62-1.45Zm-1.123 4.786-2.75-1.5495a0.25 0.25 0 0 1-0.127-0.2175V10l0.295-0.145 4.05 2.24-1.222 0.6905a0.25 0.25 0 0 1-0.246 0ZM15 11.019a0.25 0.25 0 0 1-0.1275 0.2175l-0.5025 0.2835-0.37-0.205v-4.045l0.873 0.493a0.25 0.25 0 0 1 0.127 0.218Z" id="motive"/>
</svg>
