<svg viewBox="0 0 24 24" fill="none" xmlns="http://www.w3.org/2000/svg">
  <path
    d="M19 20H4a2 2 0 0 1-2-2V6c0-1.11.89-2 2-2h6l2 2h7c1.097 0 2 .903 2 2H4v10l2.14-8h17.07l-2.28 8.5c-.23.87-1.01 1.5-1.93 1.5Z"
    fill="#1565C0" />
  <path
    d="M17.338 16.5c0-2.485-1.892-4.5-4.225-4.5H11c0 2.485 1.892 4.5 4.225 4.5h2.113ZM17.338 16.5c0 2.485-1.892 4.5-4.225 4.5h-.845c0-2.485 1.891-4.5 4.225-4.5h.845Z"
    fill="#64B5F6" />
  <path
    d="M16.662 16.5c0-2.485 1.892-4.5 4.225-4.5H23c0 2.485-1.892 4.5-4.225 4.5h-2.113ZM16.662 16.5c0 2.485 1.892 4.5 4.225 4.5h.845c0-2.485-1.891-4.5-4.225-4.5h-.845Z"
    fill="#B3E5FC" />
  <path
    d="M17 14.733c.218.543.338 1.14.338 1.767s-.12 1.224-.338 1.767a4.738 4.738 0 0 1-.338-1.767c0-.627.12-1.224.338-1.767Z"
    fill="#B3E5FC" />
</svg>