<svg viewBox="0 0 24 24" fill="none" xmlns="http://www.w3.org/2000/svg">
  <path d="M10 4H4c-1.11 0-2 .89-2 2v12c0 1.097.903 2 2 2h16c1.097 0 2-.903 2-2V8a2 2 0 0 0-2-2h-8l-2-2Z"
    fill="#CFD8DC" />
  <path d="M17.455 21.91a6.455 6.455 0 1 0 0-12.91 6.455 6.455 0 0 0 0 12.91Z" fill="#fff" />
  <path
    d="M14.461 20.205c.082-3.74.073-5.81-.093-9.426l1.387-.656c-.058 2.392-.15 3.788-.076 6.35 1.33-.925 2.15-1.576 3.011-2.79h1.691c-.886 1.15-1.744 1.778-3.332 2.79 1.328 1.082 2.124 1.89 3.493 3.617l-1.37.607c-1.109-1.584-2.613-3.478-3.493-3.749l.076 3.84-1.294-.583Z"
    fill="#000" />
  <path d="M17.455 21.21a5.754 5.754 0 1 0 0-11.508 5.754 5.754 0 0 0 0 11.507Z" stroke="#000" stroke-width=".54" />
</svg>