<svg xmlns="http://www.w3.org/2000/svg" viewBox="0 0 32 32"><path d="M13.844,7.536,12.556,6.464A2,2,0,0,0,11.276,6H4A2,2,0,0,0,2,8V24a2,2,0,0,0,2,2H28a2,2,0,0,0,2-2V10a2,2,0,0,0-2-2H15.124a2,2,0,0,1-1.28-.464" style="fill:#1e88e5"/><path d="M21,20H15a1,1,0,0,1-1-1V13a1,1,0,0,1,1-1h6a1,1,0,0,1,1,1v6A1,1,0,0,1,21,20Zm7-8a4,4,0,1,0,4,4A4,4,0,0,0,28,12Zm.70711,17.70711,3-3a1,1,0,0,0,0-1.41422l-3-3a1,1,0,0,0-1.41422,0l-3,3a1,1,0,0,0,0,1.41422l3,3A1,1,0,0,0,28.70711,29.70711ZM17.12584,22.51436l-2.99856,6A1,1,0,0,0,15.00144,30h5.99712a1,1,0,0,0,.87416-1.48564l-2.99856-6A1,1,0,0,0,17.12584,22.51436Z" style="fill:#bbdefb"/></svg>