<svg xmlns="http://www.w3.org/2000/svg" viewBox="0 0 16 16">
<path fill="#8bc34a" d="m6.922 3.768-.644-.536A1 1 0 0 0 5.638 3H2a1 1 0 0 0-1 1v8a1 1 0 0 0 1 1h12a1 1 0 0 0 1-1V5a1 1 0 0 0-1-1H7.562a1 1 0 0 1-.64-.232" id="folder"/>
<path fill="#dcedc8" d="m11.5 4.5-4.5 1.5 0.5 6 4 2 4-2 0.5-6Zm-0.9345 1.3925a1.15 1.15 0 0 1 0.562 0.162 2.65 2.65 0 0 0 0.607 0.1525 3.315 3.315 0 0 1 2.2165 1.417c0.224 0.4375 0.178 0.674-0.165 0.85-0.295 0.1515-0.8995 0.0785-1.777-0.216l-0.7405-0.2485-0.2635 0.0995a1.765 1.765 0 0 0-0.92 0.865 1.45 1.45 0 0 0-0.109 0.811 1.45 1.45 0 0 0 0.205 0.8225c0.175 0.3065 0.575 0.6975 0.6435 0.6295 0.019-0.019-0.022-0.1435-0.091-0.2765a0.55 0.55 0 0 1-0.089-0.2975c0.019-0.0305 0.2 0.0825 0.401 0.252a2.8 2.8 0 0 0 1.449 0.6665c0.3935 0.0405 0.4835-0.032 0.1885-0.1535a0.9 0.9 0 0 1-0.2735-0.1815c-0.115-0.126-0.1215-0.122 0.369-0.231a2.3 2.3 0 0 0 0.9435-0.498c0.0115-0.0365-0.0865-0.051-0.2475-0.0385-0.146 0.0115-0.265-0.003-0.265-0.0335a1.5 1.5 0 0 1 0.265-0.328 2.465 2.465 0 0 0 0.7925-1.798l0.04-0.557 0.129 0.265a1.6 1.6 0 0 1 0.0665 1.074c-0.084 0.3025-0.028 0.336 0.1265 0.076 0.191-0.322 0.2525-0.2715 0.219 0.182a1.975 1.975 0 0 1-0.5915 1.2805c-0.3135 0.34-0.2755 0.4015 0.1035 0.17 0.3655-0.2245 0.415-0.1895 0.2265 0.1625a3.04 3.04 0 0 1-1.891 1.4155 3.1 3.1 0 0 1-1.2435 0.08 3.665 3.665 0 0 1-2.72-1.9245 6.5 6.5 0 0 0-0.418-0.7185c-0.2015-0.271-0.218-0.3925-0.083-0.5985a0.46 0.46 0 0 0 0.0555-0.365c-0.1285-0.7255-0.124-0.748 0.1685-1.044 0.256-0.2565 0.2715-0.2905 0.2715-0.591 0-0.26 0.026-0.345 0.145-0.4625a0.5 0.5 0 0 1 0.2805-0.1455 1.44 1.44 0 0 0 0.812-0.4325 0.835 0.835 0 0 1 0.6015-0.2935" id="motive"/>
</svg>
