<svg viewBox="0 0 24 24" xmlns="http://www.w3.org/2000/svg"><path d="m10.383 5.652-.966-.804a1.5 1.5 0 0 0-.96-.348H3A1.5 1.5 0 0 0 1.5 6v12A1.5 1.5 0 0 0 3 19.5h18a1.5 1.5 0 0 0 1.5-1.5V7.5A1.5 1.5 0 0 0 21 6h-9.657a1.5 1.5 0 0 1-.96-.348" fill="#FF1744"/><g fill="#FF80AB"><path d="M17.08 9.335c-3.148 0-5.7 1.274-5.7 2.85s2.552 2.85 5.7 2.85 5.7-1.274 5.7-2.85-2.551-2.85-5.7-2.85m-5.7 4.6v1.16c0 1.576 2.552 2.85 5.7 2.85s5.7-1.274 5.7-2.85V12.96c0 1.572-2.551 2.85-5.7 2.85s-5.7-1.278-5.7-2.85m0 2.91v2.14c0 1.572 2.552 2.85 5.7 2.85s5.7-1.278 5.7-2.85v-2.14c0 1.576-2.551 2.85-5.7 2.85s-5.7-1.274-5.7-2.85"/><path d="M15.795 8.542h-1.697l2.971-3.39 2.967 3.39h-1.697v3.647h-2.544z"/><path d="M18.554 8.542v3.647H15.58V8.542" stroke="#FF1744" stroke-width=".427"/></g></svg>