<svg width="24" height="24" xmlns="http://www.w3.org/2000/svg" xmlns:svg="http://www.w3.org/2000/svg" clip-rule="evenodd">
 <g>
  <title>Layer 1</title>
  <path d="M10,4L4,4C2.89,4 2,4.89 2,6L2,18C2,19.097 2.903,20 4,20L20,20C21.097,20 22,19.097 22,18L22,8C22,6.89 21.1,6 20,6L12,6L10,4Z" fill="rgb(255,138,101)" fill-rule="nonzero" id="svg_1"/>
  <g transform="matrix(0.67606,0,0,0.67606,9.1073,7.3873) " fill="#bbdefb" id="svg_2">
   <path d="m8.36921,15.94068c-0.26645,-2.69873 -0.48293,-4.9411 -0.48107,-4.98305c0.0019,-0.04195 -0.22543,-0.07627 -0.50509,-0.07627l-0.50847,0l0,-0.9661l0,-0.96611l1.98305,0l1.98305,0l0,-1.87538l0,-1.87538l1.87142,-1.12462c1.13973,-0.68492 1.97776,-1.12462 2.14341,-1.12462c0.40001,0 0.86652,0.50546 0.86652,0.93885c0,0.18937 -0.05719,0.42213 -0.12711,0.51724c-0.06991,0.09511 -0.72204,0.52958 -1.44916,0.96549l-1.32203,0.79256l-0.02829,1.39293l-0.02829,1.39293l1.98592,0l1.98592,0l0,0.96611l0,0.9661l-0.48983,0l-0.48982,0l-0.49493,4.98305l-0.49492,4.98305l-2.95791,0l-2.95792,0l-0.48445,-4.90678z" fill="#e53935" fill-rule="nonzero" id="svg_3"/>
  </g>
 </g>
</svg>
