<svg xmlns="http://www.w3.org/2000/svg" viewBox="0 0 16 16"><path id="folder" fill="#ab47bc" d="m6.922 3.768-.644-.536A1 1 0 0 0 5.638 3H2a1 1 0 0 0-1 1v8a1 1 0 0 0 1 1h12a1 1 0 0 0 1-1V5a1 1 0 0 0-1-1H7.562a1 1 0 0 1-.64-.232"/><path id="motive" fill="#e1bee7" d="M11.819 15a3.907 3.896 0 0 1-1.872-.464 3.536 3.527 0 0 1-1.408-1.391 4.608 4.596 0 0 1-.536-2.325 9.167 9.141 0 0 1 .432-2.934 6.312 6.294 0 0 1 1.177-2.132 5.06 5.045 0 0 1 1.7-1.3 4.659 4.645 0 0 1 1.983-.444 2.615 2.607 0 0 1 2.054.727 2.825 2.817 0 0 1 .647 1.944 2.705 2.697 0 0 1-.034.416q-.035.221-.077.456l-.807 3.982h-1.156l-.015-.503h-.055c-.232.129-.48.332-.745.48a1.984 1.978 0 0 1-.982.221 1.518 1.514 0 0 1-1.05-.408 1.398 1.394 0 0 1-.454-1.087 2.174 2.168 0 0 1 .94-1.888 6.512 6.494 0 0 1 2.96-.88 3.006 2.997 0 0 0 .083-.609 1.974 1.968 0 0 0-.306-1.128 1.357 1.354 0 0 0-1.197-.45 2.454 2.448 0 0 0-1.212.346 3.857 3.846 0 0 0-1.135 1.025 5.46 5.445 0 0 0-.843 1.682 7.664 7.643 0 0 0-.32 2.318 3.531 3.522 0 0 0 .362 1.681 2.505 2.498 0 0 0 .933 1.004 2.34 2.333 0 0 0 1.198.332 2.204 2.198 0 0 0 .835-.145 3.106 3.097 0 0 0 .71-.409l.641 1.135a3.657 3.646 0 0 1-1.107.56A4.508 4.496 0 0 1 11.82 15m1.01-4.524a1.403 1.399 0 0 0 .521-.105 2.404 2.398 0 0 0 .521-.287l.28-1.37a3.406 3.397 0 0 0-1.497.476.937.934 0 0 0-.387.755.5.5 0 0 0 .156.391.581.58 0 0 0 .406.14"/></svg>