<svg xmlns="http://www.w3.org/2000/svg" viewBox="0 0 16 16">
<path id="folder" fill="#ef5350" d="m6.922 3.768-.644-.536A1 1 0 0 0 5.638 3H2a1 1 0 0 0-1 1v8a1 1 0 0 0 1 1h12a1 1 0 0 0 1-1V5a1 1 0 0 0-1-1H7.562a1 1 0 0 1-.64-.232" />
<path id="motive" fill="#ffcdd2" d="M 11.2165,8.9685 A 7.35,7.35 0 0 1 10.709,10.172 4.5,4.5 0 0 0 10.462,10.69 l 0.0545,-0.0205 a 9.15,9.15 0 0 1 1.671,-0.462 q -0.109,-0.0755 -0.21,-0.162 a 3.125,3.125 0 0 1 -0.761,-1.077 m 3.237,1.906 a 0.57,0.57 0 0 1 -0.45,0.1495 3.6,3.6 0 0 1 -1.4925,-0.3695 10,10 0 0 0 -2.0235,0.375 l -0.092,0.035 c -0.6215,1.0615 -1.081,1.535 -1.487,1.535 a 0.5,0.5 0 0 1 -0.22,-0.052 L 8.4485,12.39 8.437,12.3635 a 0.415,0.415 0 0 1 -0.0265,-0.269 1.9,1.9 0 0 1 0.9415,-1.059 2.75,2.75 0 0 1 0.445,-0.245 c 0.148,-0.261 0.308,-0.564 0.476,-0.902 a 8.65,8.65 0 0 0 0.5435,-1.462 L 10.814,8.4205 A 2.47,2.47 0 0 1 10.7045,6.788 C 10.7595,6.595 10.9145,6.4 11.1015,6.4 H 11.22 a 0.425,0.425 0 0 1 0.304,0.123 c 0.3295,0.3295 0.1785,1.1335 0.011,1.7975 L 11.5175,8.391 a 2.9,2.9 0 0 0 0.798,1.278 4,4 0 0 0 0.431,0.293 6,6 0 0 1 0.649,-0.037 c 0.62,0 0.993,0.112 1.1385,0.343 a 0.4,0.4 0 0 1 0.062,0.2755 0.48,0.48 0 0 1 -0.1425,0.331 M 15,5 H 8 A 1,1 0 0 0 7,6 v 7 a 1,1 0 0 0 1,1 h 7 a 1,1 0 0 0 1,-1 V 6 A 1,1 0 0 0 15,5 m -0.743,5.5215 c -0.056,-0.053 -0.261,-0.178 -0.959,-0.178 a 0.13,0.13 0 0 0 -0.115,0.05 2.7,2.7 0 0 0 0.951,0.256 0.65,0.65 0 0 0 0.098,-0.0075 l 0.017,-0.003 c 0.024,-0.007 0.04,-0.015 0.045,-0.065 A 0.5,0.5 0 0 0 14.257,10.5215 M 9.6645,11.249 A 2,2 0 0 0 9.427,11.406 1.83,1.83 0 0 0 8.8195,12.252 C 9.047,12.174 9.341,11.846 9.6655,11.249 Z m 1.508,-3.453 0.028,-0.0185 c 0.0365,-0.1615 0.06,-0.3005 0.08,-0.4115 l 0.015,-0.081 C 11.3435,7.0145 11.338,6.8585 11.2465,6.737 L 11.173,6.712 a 0.5,0.5 0 0 0 -0.0335,0.059 1.825,1.825 0 0 0 0.0335,1.025 z" />
</svg>
