<?xml version="1.0" encoding="UTF-8"?>
<svg clip-rule="evenodd" stroke-linejoin="round" stroke-miterlimit="1.4142" version="1.1" viewBox="0 0 24 24" xml:space="preserve" xmlns="http://www.w3.org/2000/svg"><path d="m19 20h-15c-1.11 0-2-0.9-2-2v-12c0-1.11 0.89-2 2-2h6l2 2h7c1.097 0 2 0.903 2 2h-17v10l2.14-8h17.07l-2.28 8.5c-0.23 0.87-1.01 1.5-1.93 1.5z" fill="#ff8a65"/><path d="m20.593 15.61h-6.406v-1.2812h6.406m-3.203-5.7654a6.406 6.406 0 0 0 -6.406 6.406 6.406 6.406 0 0 0 6.406 6.406 6.406 6.406 0 0 0 6.406 -6.406 6.406 6.406 0 0 0 -6.406 -6.406z" fill="#fbe9e7" fill-opacity=".94902" stroke-width=".6406"/></svg>
