<svg xmlns="http://www.w3.org/2000/svg" viewBox="0 0 32 32">
    <path fill="#0288d1" d="M28.967 12H9.442a2 2 0 0 0-1.898 1.368L4 24V10h24a2 2 0 0 0-2-2H15.124a2 2 0 0 1-1.28-.464l-1.288-1.072A2 2 0 0 0 11.276 6H4a2 2 0 0 0-2 2v16a2 2 0 0 0 2 2h22l4.805-11.212A2 2 0 0 0 28.967 12"/>
    <!-- <path fill="#b3e5fc" d="M29 16 H9 10 V0 0"/> -->


<path d="
M10 22
C10 16, 20 16, 20 22
C20 16, 30 16, 30 22
C30 28, 20 28, 20 22
C20 28, 10 28, 10 22
Z
" fill="none" stroke="#b3e5fc" stroke-width="2" />

<!-- 
<path d="
M12 22
C12 16, 21 20, 21 22
C21 24, 30 28, 30 22
C30 16, 21 20, 21 22
C21 24, 12 28, 12 22
Z
" fill="none" stroke="#b3e5fc" stroke-width="2" /> -->



</svg>