<svg width="97" height="96" viewBox="0 0 97 96" fill="none" xmlns="http://www.w3.org/2000/svg">
<path d="M87.8062 36H28.6211C27.3482 35.9997 26.1074 36.3959 25.0748 37.1325C24.0422 37.8692 23.27 38.9088 22.8678 40.104L12.125 72V30H84.875C84.875 28.4087 84.2363 26.8826 83.0993 25.7574C81.9624 24.6321 80.4204 24 78.8125 24H45.8446C44.4266 23.9994 43.0537 23.5068 41.9646 22.608L38.0604 19.392C36.9713 18.4932 35.5984 18.0006 34.1804 18H12.125C10.5171 18 8.9751 18.6321 7.83816 19.7574C6.70123 20.8826 6.0625 22.4087 6.0625 24V72C6.0625 73.5913 6.70123 75.1174 7.83816 76.2426C8.9751 77.3679 10.5171 78 12.125 78H78.8125L93.3777 44.364C93.7729 43.4514 93.9332 42.456 93.8441 41.4671C93.755 40.4781 93.4193 39.5265 92.8671 38.6975C92.3149 37.8686 91.5635 37.1882 90.6802 36.7174C89.797 36.2466 88.8094 36.0001 87.8062 36Z" fill="#EF5350"/>
<path d="M72.1826 33.0803C72.9511 32.9706 73.6657 32.9759 74.3789 33.0803C75.765 33.2834 77.0829 33.7595 78.332 34.5081C83.3474 37.4919 88.399 40.4204 93.4863 43.2932C95.2537 44.821 96.4248 46.6883 97 48.8938V68.4407C96.5526 70.8387 95.3816 72.8525 93.4863 74.4807C88.2527 77.4267 83.0544 80.4277 77.8926 83.4846C76.8298 84.0586 75.7317 84.4614 74.5986 84.6926C73.6103 84.8024 72.7314 84.8024 71.7432 84.6926C70.6448 84.5827 59.5466 78.0085 53.5137 74.4807C51.7477 72.9564 50.5765 71.0892 50 68.8801V48.8938C50.5752 46.6883 51.7463 44.821 53.5137 43.2932C58.601 40.4204 63.6526 37.4918 68.668 34.5081C69.7932 33.8328 70.9653 33.3568 72.1826 33.0803ZM56.5889 47.7962C56.0822 48.1206 55.6795 48.5595 55.3809 49.1135C55.2344 55.6292 55.2344 62.1448 55.3809 68.6604C55.6181 69.2085 55.9114 69.721 56.2598 70.1975C61.0006 73.0991 65.7953 75.9182 70.6445 78.6536C71.8295 79.5478 73.1474 79.8402 74.5977 79.5315C79.7222 76.6032 84.8472 73.6746 89.9717 70.7463C90.701 70.2079 91.2504 69.5129 91.6191 68.6604C91.7656 62.0716 91.7656 55.4826 91.6191 48.8938C90.8386 47.8065 89.8503 47.5503 88.6543 48.1253C83.6675 51.2773 78.616 54.3152 73.5 57.2395C68.3841 54.3152 63.3326 51.2773 58.3457 48.1253C57.7937 47.8502 57.2081 47.7407 56.5889 47.7962ZM72.8408 38.5715C69.0563 40.6113 65.3222 42.7706 61.6396 45.0501C62.628 45.5806 63.5802 46.1662 64.4951 46.8069C64.9046 47.0927 65.3436 47.1659 65.8125 47.0266C68.3121 45.4841 70.8751 44.0569 73.5 42.7444C76.2598 44.1854 78.9687 45.7222 81.626 47.3557C82.8704 46.5871 84.1149 45.8186 85.3594 45.0501C82.2847 43.2199 79.2095 41.39 76.1348 39.5598C75.1272 38.9237 74.0293 38.5942 72.8408 38.5715Z" fill="#FFCDD2"/>
<path fill-rule="evenodd" clip-rule="evenodd" d="M59.2227 53.2861C63.6457 55.9006 68.0382 58.5728 72.4003 61.3025C73.1323 61.7418 73.8646 61.7418 74.5966 61.3025C78.9342 58.6029 83.2901 55.9307 87.6644 53.2861C87.8473 58.0463 87.8106 62.805 87.5545 67.5619C82.8693 70.2705 78.1837 72.9794 73.4984 75.688C68.8131 72.9794 64.1277 70.2705 59.4424 67.5619C59.2228 62.8056 59.1496 58.047 59.2227 53.2861Z" fill="#FFCDD2"/>
</svg>
