<svg style="clip-rule:evenodd;fill-rule:evenodd;stroke-linejoin:round;stroke-miterlimit:2" version="1.1" viewBox="0 0 24 24" xml:space="preserve" xmlns="http://www.w3.org/2000/svg">
    <path d="m10 4h-6c-1.11 0-2 0.89-2 2v12c0 1.097 0.903 2 2 2h16c1.097 0 2-0.903 2-2v-10c0-1.11-0.9-2-2-2h-8l-2-2z" style="fill-rule:nonzero;fill:#f44336"/>
    <g transform="translate(.027858 .028)">
        <path d="m20.732 9s1e-3 2.624 1e-3 2.79c0 0.023-8e-3 0.046-0.022 0.064-0.043 0.083-0.151 0.245-0.389 0.351-0.15 0.067-0.865 0.484-3.126 0.794-1.956 0.268-3.017 0.41-3.519 0.487-0.448 0.069-0.409 0.133-0.409 0.133v-2.736c0-0.046 0.031-0.087 0.077-0.098 0.136-0.037 0.48-0.116 1.232-0.205 1.519-0.18 3.36-0.464 4.801-0.817 1.363-0.333 1.354-0.763 1.354-0.763z" style="fill:#ffcdd2"/>
        <path d="m20.732 12.763s1e-3 2.624 1e-3 2.79c0 0.023-8e-3 0.045-0.022 0.063-0.043 0.083-0.151 0.245-0.389 0.351-0.15 0.067-0.865 0.484-3.126 0.795-1.956 0.268-3.017 0.409-3.519 0.486-0.448 0.069-0.409 0.133-0.409 0.133v-2.735c0-0.047 0.031-0.087 0.077-0.098 0.136-0.038 0.48-0.116 1.232-0.205 1.519-0.18 3.36-0.465 4.801-0.817 1.363-0.333 1.354-0.763 1.354-0.763z" style="fill:#ffcdd2"/>
        <path d="m20.732 16.381s1e-3 2.624 1e-3 2.791c0 0.023-8e-3 0.045-0.022 0.063-0.043 0.083-0.151 0.245-0.389 0.351-0.15 0.067-0.865 0.484-3.126 0.794-1.956 0.269-3.017 0.41-3.519 0.487-0.448 0.069-0.409 0.133-0.409 0.133v-2.736c0-0.046 0.031-0.087 0.077-0.098 0.136-0.037 0.48-0.116 1.232-0.205 1.519-0.179 3.36-0.464 4.801-0.816 1.363-0.334 1.354-0.764 1.354-0.764z" style="fill:#ffcdd2"/>
    </g>
</svg>
