<svg xmlns="http://www.w3.org/2000/svg" viewBox="0 0 16 16"><path id="folder" fill="#455a64" d="m6.922 3.768-.644-.536A1 1 0 0 0 5.638 3H2a1 1 0 0 0-1 1v8a1 1 0 0 0 1 1h12a1 1 0 0 0 1-1V5a1 1 0 0 0-1-1H7.562a1 1 0 0 1-.64-.232"/><g id="motive"><path fill="#ffca28" d="M13.579 8.276a.857.857 0 0 1-1.287.741 1 1 0 0 1-.177-.135.857.857 0 0 1 .383-1.434.858.858 0 0 1 1.08.827"/><path fill="#26c6da" d="M11.278 9.872a.857.857 0 1 0-.001 1.714.857.857 0 0 0 .001-1.714"/><path fill="#ffca28" d="M14.498 11.02a3.3 3.3 0 0 1-1.13.46 2.3 2.3 0 0 0 .112-1.036 2.297 2.297 0 0 0 .261-4.227 2.3 2.3 0 0 0-2.887.72 3.8 3.8 0 0 0-1.255.365 3.275 3.275 0 0 1 6.399 1.096 3.27 3.27 0 0 1-1.5 2.623M9.637 7.898l.804.098a2.3 2.3 0 0 1 .101-.456 3.3 3.3 0 0 0-.905.358" clip-rule="evenodd"/><path fill="#26c6da" d="M9.498 7.984a3.3 3.3 0 0 1 1.138-.463 2.3 2.3 0 0 0-.129 1.039 2.3 2.3 0 0 0-1.431 1.503 2.297 2.297 0 0 0 2.226 2.957 2.3 2.3 0 0 0 1.844-.956 3.9 3.9 0 0 0 1.255-.363 3.277 3.277 0 0 1-5.106 1.633c-1.809-1.37-1.705-4.12.203-5.35m4.86 3.122-.015.008z" clip-rule="evenodd"/></g></svg>