<svg xmlns="http://www.w3.org/2000/svg" viewBox="0 0 32 32">
  <path d="M13.84376,7.53645l-1.28749-1.0729A2,2,0,0,0,11.27591,6H4A2,2,0,0,0,2,8V24a2,2,0,0,0,2,2H28a2,2,0,0,0,2-2V10a2,2,0,0,0-2-2H15.12412A2,2,0,0,1,13.84376,7.53645Z" style="fill: #00acc1"/>
  <path d="M30.86783,15.82137a1.80881,1.80881,0,0,1,.064,2.56572q-.03118.03261-.064.06366l-2.64174,2.62938-7.35826-7.32387,2.64172-2.62938a1.82937,1.82937,0,0,1,2.57777-.06367q.03278.031.064.06367l1.69743,1.6895L30.67832,10,32,11.31387l-2.8296,2.818,1.69743,1.68949M25.3965,21.26712l-1.32168-1.31387-2.64008,2.62938-1.98088-1.97327,2.64008-2.62773-1.32-1.31551-2.64173,2.62937-1.41562-1.31387-2.64008,2.62774a1.80875,1.80875,0,0,0-.064,2.56564q.03121.03266.064.06373l1.69742,1.68951L12,28.68448,13.32168,30l3.7739-3.75626,1.69743,1.6895a1.82935,1.82935,0,0,0,2.57773.0637q.03279-.031.064-.0637l2.64007-2.62774-1.32-1.3155Z" style="fill: #b2ebf2;fill-rule: evenodd"/>
</svg>
