<svg xmlns="http://www.w3.org/2000/svg" viewBox="0 0 32 32"><path fill="#42a5f5" d="m13.844 7.536-1.288-1.072A2 2 0 0 0 11.276 6H4a2 2 0 0 0-2 2v16a2 2 0 0 0 2 2h24a2 2 0 0 0 2-2V10a2 2 0 0 0-2-2H15.124a2 2 0 0 1-1.28-.464Z"/><path fill="#bbdefb" d="M19.966 10a11.716 11.716 0 0 0-2.665.871 18.398 18.398 0 0 0 .166 2.093 10.766 10.766 0 0 0-.983.61 9.078 9.078 0 0 0-.914.717 17.593 17.593 0 0 0-1.779-.989A13.098 13.098 0 0 0 12 15.544a18.17 18.17 0 0 0 1.21 1.665h.011v5.056l.029.001 3.247.299a.34.34 0 0 1 .316.31l.1 1.367 2.833.192.195-1.262a.345.345 0 0 1 .346-.285h3.426a.346.346 0 0 1 .346.285l.195 1.262 2.833-.192.1-1.367a.345.345 0 0 1 .316-.31l3.246-.299.028-.001v-.404h.002v-4.65h.011A18.167 18.167 0 0 0 32 15.545a13.092 13.092 0 0 0-1.791-2.242 17.835 17.835 0 0 0-1.779.987 9.078 9.078 0 0 0-.914-.717 11.053 11.053 0 0 0-.982-.61 18.781 18.781 0 0 0 .166-2.093 11.796 11.796 0 0 0-2.666-.87 17.704 17.704 0 0 0-.99 1.84 6.945 6.945 0 0 0-1.037-.08h-.014a6.945 6.945 0 0 0-1.037.08 17.704 17.704 0 0 0-.99-1.84Zm-2.569 7.396a1.87 1.87 0 1 1 .11 3.736h-.004a1.87 1.87 0 1 1-.106-3.736Zm9.206 0a1.87 1.87 0 1 1 .026 3.736h-.025a1.87 1.87 0 1 1-.024-3.736h.023ZM22 18.488a.593.593 0 0 1 .63.547v1.72a.626.626 0 0 1-.69.543.619.619 0 0 1-.57-.544v-1.72a.592.592 0 0 1 .63-.546Z"/><path fill="#bbdefb" d="m27.863 23.203-.1 1.376a.34.34 0 0 1-.324.31l-3.459.234-.026.001a.345.345 0 0 1-.345-.285l-.198-1.284H20.59l-.199 1.284a.345.345 0 0 1-.371.284l-3.459-.236a.345.345 0 0 1-.324-.31l-.1-1.375-2.92-.269.005.693c0 2.944 3.912 4.358 8.772 4.374h.011c4.86-.016 8.772-1.43 8.772-4.374l.005-.693Z"/></svg>