<svg xmlns="http://www.w3.org/2000/svg" viewBox="0 0 32 32">
  <path d="M28.96692,12H9.44152a2,2,0,0,0-1.89737,1.36754L4,24V10H28a2,2,0,0,0-2-2H15.1241a2,2,0,0,1-1.28038-.46357L12.5563,6.46357A2,2,0,0,0,11.27592,6H4A2,2,0,0,0,2,8V24a2,2,0,0,0,2,2H26l4.80523-11.21213A2,2,0,0,0,28.96692,12Z" style="fill: #26a69a"/>
  <path d="M32,20l-9.02944-9.02944L13.94113,20l9.02943,9.02944,3.76571-3.76571L26.74321,20Zm-9.51331,2.52594L19.96075,20l3.00981-3.00981L25.98038,20H22.48669Z" style="fill: #b2dfdb;fill-rule: evenodd"/>
</svg>
