<svg xmlns="http://www.w3.org/2000/svg" viewBox="0 0 16 16"><path id="folder" fill="#0288d1" d="m6.922 3.768-.644-.536A1 1 0 0 0 5.638 3H2a1 1 0 0 0-1 1v8a1 1 0 0 0 1 1h12a1 1 0 0 0 1-1V5a1 1 0 0 0-1-1H7.562a1 1 0 0 1-.64-.232"/><g id="motive" fill="#b3e5fc"><path d="M11.724 5.053a5 5 0 0 0-1.448 0l-.317.827a4.3 4.3 0 0 0-1.136.47l-.81-.36A5 5 0 0 0 6.99 7.014l.36.81a4.3 4.3 0 0 0-.47 1.136l-.827.317a5 5 0 0 0 0 1.448l.827.317a4.3 4.3 0 0 0 .47 1.137l-.36.808a5 5 0 0 0 1.023 1.024l.81-.36a4.3 4.3 0 0 0 1.136.47l.317.827a5 5 0 0 0 1.448 0l.317-.826a4.3 4.3 0 0 0 1.137-.472l.808.36a5 5 0 0 0 1.024-1.023l-.36-.809a4.3 4.3 0 0 0 .47-1.136l.827-.317a5 5 0 0 0 0-1.448l-.826-.317a4.3 4.3 0 0 0-.472-1.136l.36-.81a5 5 0 0 0-1.023-1.023l-.809.36a4.3 4.3 0 0 0-1.136-.47ZM11 6.796A3.204 3.204 0 1 1 7.796 10 3.205 3.205 0 0 1 11 6.796"/><path d="M12.304 11.301a1.81 1.81 0 1 1-.004-2.559l.003.003-.64.639a.905.905 0 1 0-.002 1.28l.002-.002Z"/></g></svg>