<svg width="64" height="64" viewBox="0 0 64 64" fill="none" xmlns="http://www.w3.org/2000/svg">
<g id="folder-powershell">
<path id="folder" d="M27.688 15.072L25.112 12.928C24.3934 12.3288 23.4876 12.0004 22.552 12H8C6.93914 12 5.92172 12.4214 5.17158 13.1716C4.42142 13.9217 4 14.9391 4 16V48C4 49.0608 4.42142 50.0782 5.17158 50.8284C5.92172 51.5786 6.93914 52 8 52H56C57.0608 52 58.0782 51.5786 58.8284 50.8284C59.5786 50.0782 60 49.0608 60 48V20C60 18.9391 59.5786 17.9217 58.8284 17.1716C58.0782 16.4214 57.0608 16 56 16H30.248C29.3124 15.9996 28.4066 15.6712 27.688 15.072Z" fill="#03A9F4"/>
<g id="ps">
<path id="Whitespace" d="M62.5357 28.0052H28.9233C28.4097 28.0167 27.9138 28.174 27.5077 28.4543C27.1017 28.7345 26.8065 29.1227 26.6654 29.5628L20.0664 54.4371C19.9972 54.6252 19.9818 54.8256 20.0214 55.0202C20.061 55.215 20.1544 55.3978 20.2933 55.5524C20.4319 55.7069 20.6117 55.8281 20.8163 55.9054C21.0206 55.9826 21.2437 56.0134 21.4646 55.9947H55.0774C55.5907 55.9829 56.0863 55.8253 56.492 55.5451C56.8978 55.2651 57.1926 54.8769 57.3337 54.4371L63.9343 29.5614C64.0028 29.3733 64.0182 29.1731 63.9783 28.9786C63.9387 28.7843 63.845 28.6015 63.7064 28.4473C63.5678 28.2927 63.3881 28.1718 63.1838 28.0945C62.9795 28.0173 62.7567 27.9868 62.5357 28.0052Z" fill="#B3E5FC"/>
<g id="Group 2465">
<path id="Vector_2" d="M29.3756 51.9188C29.7982 51.9898 30.2324 51.9083 30.5984 51.6892L30.6098 51.6829C44.302 43.1872 44.3933 43.0887 44.4871 43.0389C44.6407 42.9209 44.7667 42.7721 44.8569 42.6023C44.9469 42.4323 44.9989 42.2455 45.0093 42.054C45.0257 41.7217 44.9195 41.3946 44.7101 41.133L35.5443 32.4615C35.2379 32.1808 34.8389 32.0175 34.4204 32.0013C34.0016 31.9853 33.5913 32.1177 33.2635 32.3743L33.2166 32.4117C33.0607 32.5289 32.9327 32.678 32.8415 32.8487C32.75 33.0193 32.6975 33.2075 32.6873 33.4002C32.6772 33.593 32.7097 33.7855 32.7827 33.9645C32.8557 34.1435 32.9674 34.3048 33.1102 34.4372L33.1228 34.4497L40.8552 41.7439L28.69 49.2984C28.5194 49.3936 28.3719 49.5238 28.2573 49.6804C28.1425 49.8367 28.0636 50.0157 28.0256 50.2049C27.9878 50.3942 27.9919 50.5891 28.0375 50.7766C28.0834 50.9641 28.1698 51.1399 28.2907 51.2915L28.2996 51.3027C28.5711 51.6291 28.9531 51.8477 29.3756 51.9188Z" fill="#4FC3F7"/>
<path id="Vector_2_2" d="M55.2828 51.4645C55.7057 51.096 55.9638 50.5783 56 50.0238C55.9593 49.4724 55.6997 48.9551 55.2771 48.5906C54.8546 48.2262 54.3033 48.0399 53.7423 48.0718H43.1175C42.8398 48.0451 42.5591 48.0759 42.2942 48.162C42.029 48.2485 41.7853 48.388 41.5785 48.5725C41.3718 48.7569 41.2061 48.9818 41.0929 49.233C40.9798 49.4839 40.9213 49.7555 40.9213 50.0301C40.9213 50.3048 40.9794 50.5764 41.0922 50.8273C41.2054 51.0785 41.3702 51.3034 41.577 51.4882C41.7838 51.6726 42.0275 51.8129 42.2923 51.8994C42.5572 51.9859 42.8379 52.0167 43.1156 51.9903H53.7423C54.3064 52.0219 54.8602 51.8326 55.2828 51.4645Z" fill="#4FC3F7"/>
</g>
</g>
</g>
</svg>
