<?xml version="1.0" encoding="UTF-8"?>
<svg version="1.1" viewBox="0 0 24 24" xmlns="http://www.w3.org/2000/svg">
 <path d="M19 20H4C3.46957 20 2.96086 19.7893 2.58579 19.4142C2.21071 19.0391 2 18.5304 2 18V6C2 4.89 2.89 4 4 4H10L12 6H19C20.097 6 21 6.903 21 8H4V18L6.14 10H23.21L20.93 18.5C20.7 19.37 19.92 20 19 20Z" fill="#00b8d4"/>
 <path d="m22.884 19.244c-0.50784 0.75869-1.0463 1.4989-1.866 1.5112-0.81988 0.01835-1.0829-0.48336-2.0129-0.48336-0.93603 0-1.2236 0.47112-2.0006 0.50172-0.80142 0.03059-1.4072-0.80754-1.921-1.5479-1.0463-1.5112-1.8477-4.2949-0.77093-6.167 0.53231-0.92991 1.4867-1.5173 2.5207-1.5356 0.78307-0.01224 1.5295 0.53231 2.0128 0.53231 0.47724 0 1.3827-0.65468 2.331-0.55678 0.3976 0.01836 1.5112 0.15908 2.2269 1.2114-0.05507 0.03671-1.3276 0.78317-1.3154 2.331 0.01835 1.8477 1.6213 2.4656 1.6397 2.4717-0.01836 0.04283-0.25698 0.88106-0.84425 1.7314m-3.4935-9.7889c0.44665-0.5078 1.1869-0.89324 1.7987-0.91771 0.07954 0.71581-0.20803 1.4377-0.63632 1.9517-0.42218 0.51997-1.1196 0.92379-1.8049 0.86872-0.09178-0.70353 0.25086-1.4377 0.64244-1.9027z" fill="#b2ebf2" stroke-width="1.0198"/>
</svg>
