<?xml version="1.0" encoding="UTF-8" standalone="no"?>
<svg
   viewBox="0 0 16 16"
   version="1.1"
   id="svg1"
   sodipodi:docname="folder-dal.svg"
   inkscape:version="1.4.2 (ebf0e940, 2025-05-08)"
   xml:space="preserve"
   xmlns:inkscape="http://www.inkscape.org/namespaces/inkscape"
   xmlns:sodipodi="http://sodipodi.sourceforge.net/DTD/sodipodi-0.dtd"
   xmlns="http://www.w3.org/2000/svg"
   xmlns:svg="http://www.w3.org/2000/svg"><defs
     id="defs1" /><sodipodi:namedview
     id="namedview1"
     pagecolor="#ffffff"
     bordercolor="#000000"
     borderopacity="0.25"
     inkscape:showpageshadow="2"
     inkscape:pageopacity="0.0"
     inkscape:pagecheckerboard="0"
     inkscape:deskcolor="#d1d1d1"
     inkscape:zoom="30.145272"
     inkscape:cx="11.179199"
     inkscape:cy="9.6698413"
     inkscape:window-width="1280"
     inkscape:window-height="692"
     inkscape:window-x="1280"
     inkscape:window-y="720"
     inkscape:window-maximized="0"
     inkscape:current-layer="svg1"
     showgrid="true"><inkscape:grid
       id="grid1"
       units="px"
       originx="0"
       originy="0"
       spacingx="1"
       spacingy="1"
       empcolor="#0099e5"
       empopacity="0.30196078"
       color="#0099e5"
       opacity="0.14901961"
       empspacing="5"
       enabled="true"
       visible="true" /></sodipodi:namedview><path
     d="M 6.922,3.768 6.278,3.232 C 6.0983643,3.0821983 5.8719007,3.0001052 5.638,3 H 2 C 1.4477153,3 1,3.4477153 1,4 v 8 c 0,0.552285 0.4477153,1 1,1 h 12 c 0.552285,0 1,-0.447715 1,-1 V 5 C 15,4.4477153 14.552285,4 14,4 H 7.562 C 7.3280993,3.9998948 7.1016357,3.9178017 6.922,3.768"
     fill="#90a4ae"
     id="path1"
     style="fill:#f44336;fill-opacity:1"
     sodipodi:nodetypes="cccsssssssscc" /><path
     d="M 9.6786954,12.294094 6.6047589,10.135882 7.3604155,9.605795 9.4034864,11.040396 v 0.117797 c 0,0.403876 0.10262,0.790923 0.275209,1.135901 M 9.6367134,10.123262 6.6047585,8.0029137 10.802851,5.0032965 15.000942,8.0029137 13.909438,8.768595 C 13.58292,8.6087278 13.223749,8.499344 12.841257,8.4530673 L 13.480301,8.0029137 10.802851,6.122366 8.1254008,8.0029137 10.117162,9.3996512 C 9.9165863,9.618417 9.7486633,9.8624259 9.6367134,10.123262 Z"
     id="path1-9"
     sodipodi:nodetypes="ccccscccccccccccc"
     style="fill:#ffccbc;fill-opacity:1;stroke-width:0.442989" /><path
     d="m 12.434927,9.0030001 c -1.347824,0 -2.4355945,0.479282 -2.4355945,1.0951359 0,0.615853 1.0916765,1.114666 2.4395005,1.114666 1.347823,0 2.558258,-0.498813 2.558258,-1.114666 0,-0.6158539 -1.19481,-1.0951359 -2.542633,-1.0951359 M 9.9993325,10.655469 v 0.836 c 0,0.615853 1.0916765,1.114667 2.4395005,1.114667 1.347823,0 2.563008,-0.513065 2.563008,-1.128918 V 10.66497 c 0,0.615853 -1.215185,1.105166 -2.563008,1.105166 -1.347824,0 -2.4395005,-0.498814 -2.4395005,-1.114667 m 0,1.393333 v 0.836 c 0,0.615854 1.0916765,1.114667 2.4395005,1.114667 1.347823,0 2.567372,-0.506632 2.564499,-1.122479 l -0.0039,-0.839907 c 0,0.615854 -1.21277,1.126386 -2.560593,1.126386 -1.347824,0 -2.4395005,-0.498813 -2.4395005,-1.114667 z"
     id="path1-2"
     style="fill:#ffccbc;fill-opacity:1;stroke-width:0.291506"
     sodipodi:nodetypes="csssccssscsccssscscc" /></svg>
