<svg xmlns="http://www.w3.org/2000/svg" viewBox="0 0 16 16">
<path fill="#e0e0e0" d="m6.922 3.768-.644-.536A1 1 0 0 0 5.638 3H2a1 1 0 0 0-1 1v8a1 1 0 0 0 1 1h12a1 1 0 0 0 1-1V5a1 1 0 0 0-1-1H7.562a1 1 0 0 1-.64-.232" id="folder"/>
<path fill="#424242" d="M16 8.5v-1.5a20.65 20.65 0 0 1-4.5 0.5 20.65 20.65 0 0 1-4.5-0.5v1.5a18 18 0 0 0 1.969 0.3405L8.864 10H7v1h1.7725L8.5 14h1.5v-3h3v3h1.5l-0.2725-3H16v-1h-1.8635l-0.1055-1.1595A18 18 0 0 0 16 8.5m-3 1.5h-1v-1h-1v1h-1v-1.058c0.469 0.035 0.9725 0.058 1.5 0.058s1.031-0.023 1.5-0.058Z" id="motive"/>
</svg>
