<svg xmlns="http://www.w3.org/2000/svg" clip-rule="evenodd" fill-rule="evenodd" stroke-linejoin="round" stroke-miterlimit="1.414" viewBox="0 0 24 24">
    <path fill="#ffb300" d="M19 20H4a2 2 0 0 1-2-2V6c0-1.11.89-2 2-2h6l2 2h7c1.097 0 2 .903 2 2H4v10l2.14-8h17.07l-2.28 8.5c-.23.87-1.01 1.5-1.93 1.5z"/>
  <path d="M21.42 10.981h-9.408c-.575 0-1.046.47-1.046 1.046v2.085h1.046v-2.096h9.409v7.334h-9.41V17.25h-1.045v2.096c0 .575.47 1.035 1.046 1.035h9.409a1.04 1.04 0 0 0 1.045-1.035v-7.318c0-.58-.47-1.046-1.045-1.046zm-5.227 6.79l2.091-2.09-2.09-2.091v1.568h-5.228v1.045h5.227z"/>
</svg>
