<svg xmlns="http://www.w3.org/2000/svg" viewBox="0 0 32 32">
   <path fill="#f4511e"
      d="M28.967 12H9.442a2 2 0 0 0-1.898 1.368L4 24V10h24a2 2 0 0 0-2-2H15.124a2 2 0 0 1-1.28-.464l-1.288-1.072A2 2 0 0 0 11.276 6H4a2 2 0 0 0-2 2v16a2 2 0 0 0 2 2h22l4.805-11.212A2 2 0 0 0 28.967 12" />
   <path fill="#ffab91"
      d="m 22.615701,11.024957 c -0.121867,-0.05056 -0.262181,-0.02288 -0.355716,0.07018 l -2.627949,2.629154 c -0.722769,0.723169 -1.39005,1.392237 -1.882637,1.887476 -0.246294,0.24762 -0.448428,0.451636 -0.592861,0.597702 -0.07222,0.07303 -0.130238,0.131786 -0.171809,0.174228 -0.04157,0.04244 -0.05041,0.04927 -0.08349,0.08712 -0.530453,0.607382 -0.929178,1.222758 -1.242589,1.921354 -0.356777,0.795012 -0.569345,1.633575 -0.633998,2.504537 -0.03363,0.44378 -0.03363,0.754735 0.0048,1.211131 0.09064,1.124925 0.455587,2.248532 1.045372,3.228069 0.880855,1.462945 2.231842,2.591303 3.82093,3.188143 0.667263,0.250878 1.375506,0.405612 2.054447,0.45493 0.0028,4.5e-4 0.0057,8.35e-4 0.0085,0.0012 0.09368,0.0044 0.192956,0.01085 0.209317,0.0121 4.11e-4,4.14e-4 8.36e-4,8.35e-4 0.0012,0.0012 0.12085,0.01081 0.268374,0.0055 0.463399,0.0024 0.193593,-0.0031 0.378854,-0.0073 0.490019,-0.01694 1.250866,-0.09933 2.455441,-0.513476 3.494251,-1.205082 1.241088,-0.826246 2.253118,-2.052053 2.815486,-3.410767 h -0.0012 c 0.18999,-0.458334 0.334761,-0.922082 0.428327,-1.378101 0.20669,-1.005702 0.205745,-2.0466 -0.0012,-3.049 -0.225699,-1.093411 -0.696652,-2.126693 -1.376952,-3.019872 -0.164868,-0.216127 -0.383294,-0.471134 -0.566243,-0.660618 l -0.104022,-0.107738 c -0.127013,-0.131085 -0.336779,-0.132719 -0.465819,-0.0036 l -0.642469,0.643677 c -0.08855,0.08854 -0.37795,0.379929 -0.45493,0.457351 -0.07698,0.07742 -0.117434,0.107299 -0.117434,0.107299 -0.114116,0.11039 -0.219006,0.287316 -0.0599,0.510024 0.153139,0.211912 1.247814,1.814005 1.410216,2.828534 0.08023,0.501086 0.0805,1.091449 0.0012,1.578948 -0.118945,0.729818 -0.388084,1.407332 -0.790079,1.999999 h 0.0012 c -0.189985,0.280047 -0.35607,0.479934 -0.627948,0.751361 -0.26288,0.262291 -0.452017,0.422059 -0.721113,0.6098 -0.717489,0.499487 -1.551659,0.800538 -2.450091,0.883243 -4.13e-4,-1e-6 -8.35e-4,-1e-6 -0.0012,0 -0.203088,0.01985 -0.682477,0.01643 -0.894131,-0.0037 h -0.0012 c -0.857167,-0.08614 -1.6039,-0.352071 -2.301223,-0.816659 -0.481469,-0.320805 -0.968462,-0.788972 -1.315184,-1.267997 -0.567618,-0.784067 -0.896237,-1.696628 -0.957048,-2.654567 -0.0079,-0.153624 -0.0081,-0.483663 0,-0.641258 0.06189,-0.985629 0.42203,-1.943179 1.021174,-2.717483 0.196789,-0.254308 0.220114,-0.276502 2.260132,-2.318209 l 2.016938,-2.018148 c 0.06124,-0.06131 0.09562,-0.144437 0.09558,-0.231095 v -1.259528 -1.259528 c -3.17e-4,-0.132018 -0.08004,-0.250879 -0.202057,-0.30127 z m 2.430731,2.831215 c -0.13967,0 -0.236139,0.01074 -0.324258,0.0363 -5.41e-4,1.5e-4 -7.07e-4,10e-4 -0.0012,0.0012 -0.225082,0.06279 -0.432083,0.181308 -0.594073,0.352088 -0.167301,0.175823 -0.2781,0.398693 -0.325439,0.64247 -4.26e-4,0.0016 -8.36e-4,0.0032 -0.0012,0.0048 -0.03356,0.189511 -0.02373,0.362271 0.02299,0.544464 8.36e-4,0.0024 0.0016,0.0049 0.0024,0.0073 0.04323,0.155065 0.112655,0.297984 0.209316,0.427102 0.204514,0.272425 0.507786,0.450333 0.839686,0.496068 0.0012,6e-6 0.0024,6e-6 0.0037,0 0.527808,0.06719 1.045886,-0.201258 1.288572,-0.673925 0.365314,-0.711128 -0.02449,-1.588664 -0.796122,-1.801592 -0.08413,-0.02312 -0.179034,-0.03601 -0.32305,-0.0363 -4.13e-4,-10e-7 -8.36e-4,-10e-7 -0.0012,0 z" />
</svg>