<svg width="24" height="24" viewBox="0 0 24 24" fill="none" xmlns="http://www.w3.org/2000/svg">
<path d="M19 20H4C2.89 20 2 19.1 2 18V6C2 4.89 2.89 4 4 4H10L12 6H19C19.5304 6 20.0391 6.21071 20.4142 6.58579C20.7893 6.96086 21 7.46957 21 8H4V18L6.14 10H23.21L20.93 18.5C20.7 19.37 19.92 20 19 20Z" fill="#4CAF50"/>
<path d="M12.2826 22.175C14.0955 22.175 15.5652 20.7053 15.5652 18.8924C15.5652 17.0795 14.0955 15.6098 12.2826 15.6098C10.4697 15.6098 9 17.0795 9 18.8924C9 20.7053 10.4697 22.175 12.2826 22.175Z" fill="#BC342D"/>
<path d="M20.0412 22.175C21.8542 22.175 23.3238 20.7053 23.3238 18.8924C23.3238 17.0795 21.8542 15.6098 20.0412 15.6098C18.2283 15.6098 16.7587 17.0795 16.7587 18.8924C16.7587 20.7053 18.2283 22.175 20.0412 22.175Z" fill="#864E9F"/>
<path d="M16.1389 15.5652C17.9518 15.5652 19.4215 14.0955 19.4215 12.2826C19.4215 10.4697 17.9518 9 16.1389 9C14.326 9 12.8563 10.4697 12.8563 12.2826C12.8563 14.0955 14.326 15.5652 16.1389 15.5652Z" fill="#328A22"/>
</svg>
