<?xml version="1.0" encoding="UTF-8" standalone="no"?>
<svg
   viewBox="0 0 16 16"
   version="1.1"
   id="svg1"
   width="16"
   height="16"
   xml:space="preserve"
   sodipodi:docname="folder-directive-open.svg"
   inkscape:version="1.3.2 (091e20e, 2023-11-25, custom)"
   inkscape:export-filename="folder-directive-open.svg"
   inkscape:export-xdpi="96"
   inkscape:export-ydpi="96"
   xmlns:inkscape="http://www.inkscape.org/namespaces/inkscape"
   xmlns:sodipodi="http://sodipodi.sourceforge.net/DTD/sodipodi-0.dtd"
   xmlns="http://www.w3.org/2000/svg"
   xmlns:svg="http://www.w3.org/2000/svg"><sodipodi:namedview
     id="namedview1"
     pagecolor="#ffffff"
     bordercolor="#000000"
     borderopacity="0.25"
     inkscape:showpageshadow="2"
     inkscape:pageopacity="0.0"
     inkscape:pagecheckerboard="0"
     inkscape:deskcolor="#d1d1d1"
     inkscape:zoom="51.3125"
     inkscape:cx="8"
     inkscape:cy="8"
     inkscape:window-width="1920"
     inkscape:window-height="1017"
     inkscape:window-x="-8"
     inkscape:window-y="-8"
     inkscape:window-maximized="1"
     inkscape:current-layer="g16" /><defs
     id="defs1" /><g
     id="g1"
     transform="scale(0.5)"><path
       d="M 28.967,12 H 9.442 C 8.58,12 7.816,12.551 7.544,13.368 L 4,24 V 10 H 28 C 28,8.896 27.104,8 26,8 H 15.124 C 14.656,8 14.203,7.836 13.844,7.536 L 12.556,6.464 C 12.196,6.165 11.743,6 11.276,6 H 4 C 2.895,6 2,6.896 2,8 v 16 c 0,1.105 0.895,2 2,2 H 26 L 30.805,14.788 C 31.37,13.469 30.402,12 28.967,12 Z"
       fill="#fbc02d"
       id="path1-4"
       style="fill:#f44336;fill-opacity:1" /><g
       id="g16"
       transform="matrix(2.5674416,0,0,2.5674416,29.429474,4.3255835)"
       style="fill:#ffcdd2;fill-opacity:1"><path
         style="fill:#ffcdd2;fill-opacity:1;stroke-width:0.778986"
         d="m -2.5042337,2.9891299 -1.1684784,1.5579712 h 2.3369568 z"
         id="path6" /><path
         style="fill:#ffcdd2;fill-opacity:1;stroke-width:0.899502"
         d="m -2.8937266,3.7681156 v 1.557971 h 0.7789856 v -1.557971 z"
         id="path7" /><path
         style="fill:#ffcdd2;fill-opacity:1;stroke-width:0.899502"
         d="m -3.6727122,6.1050722 h -1.557971 v 0.7789856 h 1.557971 z"
         id="path8" /><path
         style="fill:#ffcdd2;fill-opacity:1;stroke-width:0.778986"
         d="m -4.4516977,5.3260867 -1.5579712,1.1684784 1.5579712,1.1684783 z"
         id="path9" /><path
         style="fill:#ffcdd2;fill-opacity:1;stroke-width:0.899502"
         d="M -2.8937266,7.6630434 H -2.114741 V 9.2210146 H -2.8937266 Z"
         id="path10" /><path
         style="fill:#ffcdd2;fill-opacity:1;stroke-width:0.778986"
         d="M -3.6727121,8.442029 -2.5042337,10 -1.3357553,8.442029 Z"
         id="path11" /><path
         style="fill:#ffcdd2;fill-opacity:1;stroke-width:0.961618"
         d="M -1.5583624,6.1050722 V 6.8840578 H 0.22221577 V 6.1050722 Z"
         id="path13" /><path
         style="fill:#ffcdd2;fill-opacity:1;stroke-width:0.778986"
         d="M -0.55676974,5.3260867 1.0012014,6.4945651 -0.55676974,7.6630434 Z"
         id="path14" /></g></g></svg>
