<?xml version="1.0" encoding="UTF-8"?>
<!DOCTYPE svg PUBLIC "-//W3C//DTD SVG 1.1//EN" "http://www.w3.org/Graphics/SVG/1.1/DTD/svg11.dtd">
<svg xmlns="http://www.w3.org/2000/svg" version="1.1" width="2400px" height="2400px" style="shape-rendering:geometricPrecision; text-rendering:geometricPrecision; image-rendering:optimizeQuality; fill-rule:evenodd; clip-rule:evenodd" xmlns:xlink="http://www.w3.org/1999/xlink">
<g><path style="opacity:1" fill="#388e3c" d="M 2199.5,1163.5 C 2197.05,1164.47 2194.39,1164.81 2191.5,1164.5C 2185.73,1163.05 2179.73,1162.39 2173.5,1162.5C 2156.92,1160.17 2140.26,1159.17 2123.5,1159.5C 2105.35,1158.09 2087.02,1157.42 2068.5,1157.5C 2057.99,1157.5 2047.66,1157.83 2037.5,1158.5C 2034.5,1158.5 2031.5,1158.5 2028.5,1158.5C 2003.22,1158.95 1978.22,1160.95 1953.5,1164.5C 1953.17,1164.5 1952.83,1164.5 1952.5,1164.5C 1945.97,1164.7 1939.64,1165.36 1933.5,1166.5C 1924.29,1167.29 1915.29,1168.62 1906.5,1170.5C 1898.23,1170.96 1890.23,1172.29 1882.5,1174.5C 1768.22,1193.62 1664.56,1237.12 1571.5,1305C 1481.25,1375.63 1415.42,1464.46 1374,1571.5C 1352.9,1625.22 1337.74,1680.55 1328.5,1737.5C 1325.55,1750.23 1323.55,1763.23 1322.5,1776.5C 1321.11,1781.27 1320.44,1786.27 1320.5,1791.5C 1317.67,1819.08 1315.17,1846.75 1313,1874.5C 1312.57,1916.35 1312.41,1958.01 1312.5,1999.5C 1001.5,1999.67 690.5,1999.5 379.5,1999C 310.667,1990.2 258.834,1956.03 224,1896.5C 210.969,1872.41 202.969,1846.74 200,1819.5C 199.333,1405.5 199.333,991.5 200,577.5C 212.728,491.451 260.228,434.617 342.5,407C 354.609,403.482 366.943,401.148 379.5,400C 586.5,399.333 793.5,399.333 1000.5,400C 1066.83,466.333 1133.17,532.667 1199.5,599C 1472.5,599.333 1745.5,599.667 2018.5,600C 2089.27,608.61 2142.11,643.777 2177,705.5C 2188.99,729.127 2196.32,754.127 2199,780.5C 2199.5,908.166 2199.67,1035.83 2199.5,1163.5 Z"/></g>
<g><path style="opacity:0.998" fill="#a4d5a6" d="M 2028.5,1158.5 C 2031.5,1158.5 2034.5,1158.5 2037.5,1158.5C 2066.17,1158.56 2094.84,1158.9 2123.5,1159.5C 2140.26,1159.17 2156.92,1160.17 2173.5,1162.5C 2179.27,1163.95 2185.27,1164.61 2191.5,1164.5C 2194.39,1164.81 2197.05,1164.47 2199.5,1163.5C 2219.53,1166.15 2239.53,1169.31 2259.5,1173C 2260.13,1173.75 2260.63,1174.58 2261,1175.5C 2277.65,1275.71 2280.98,1376.38 2271,1477.5C 2263.02,1556.09 2245.35,1632.42 2218,1706.5C 2212.49,1720.89 2206.32,1734.89 2199.5,1748.5C 2199.63,1747.76 2199.46,1747.09 2199,1746.5C 2157.25,1837.48 2096.75,1913.64 2017.5,1975C 2006.11,1983.39 1994.44,1991.39 1982.5,1999C 1983.09,1999.46 1983.76,1999.63 1984.5,1999.5C 1920.9,2041.34 1851.9,2071.5 1777.5,2090C 1670.8,2116.73 1562.47,2127.73 1452.5,2123C 1408.43,2120.73 1364.43,2117.56 1320.5,2113.5C 1316.99,2075.56 1314.33,2037.56 1312.5,1999.5C 1312.41,1958.01 1312.57,1916.35 1313,1874.5C 1315.17,1846.75 1317.67,1819.08 1320.5,1791.5C 1321.89,1786.73 1322.56,1781.73 1322.5,1776.5C 1325.24,1763.74 1327.24,1750.74 1328.5,1737.5C 1337.74,1680.55 1352.9,1625.22 1374,1571.5C 1415.42,1464.46 1481.25,1375.63 1571.5,1305C 1664.56,1237.12 1768.22,1193.62 1882.5,1174.5C 1890.77,1174.04 1898.77,1172.71 1906.5,1170.5C 1915.77,1170.08 1924.77,1168.75 1933.5,1166.5C 1940.07,1166.76 1946.41,1166.09 1952.5,1164.5C 1952.83,1164.5 1953.17,1164.5 1953.5,1164.5C 1978.67,1162.81 2003.67,1160.81 2028.5,1158.5 Z"/></g>
<g><path style="opacity:1" fill="#81be83" d="M 2037.5,1158.5 C 2047.66,1157.83 2057.99,1157.5 2068.5,1157.5C 2087.02,1157.42 2105.35,1158.09 2123.5,1159.5C 2094.84,1158.9 2066.17,1158.56 2037.5,1158.5 Z"/></g>
<g><path style="opacity:1" fill="#81be84" d="M 2028.5,1158.5 C 2003.67,1160.81 1978.67,1162.81 1953.5,1164.5C 1978.22,1160.95 2003.22,1158.95 2028.5,1158.5 Z"/></g>
<g><path style="opacity:1" fill="#86c188" d="M 2173.5,1162.5 C 2179.73,1162.39 2185.73,1163.05 2191.5,1164.5C 2185.27,1164.61 2179.27,1163.95 2173.5,1162.5 Z"/></g>
<g><path style="opacity:1" fill="#7dbc80" d="M 1952.5,1164.5 C 1946.41,1166.09 1940.07,1166.76 1933.5,1166.5C 1939.64,1165.36 1945.97,1164.7 1952.5,1164.5 Z"/></g>
<g><path style="opacity:1" fill="#84c086" d="M 1933.5,1166.5 C 1924.77,1168.75 1915.77,1170.08 1906.5,1170.5C 1915.29,1168.62 1924.29,1167.29 1933.5,1166.5 Z"/></g>
<g><path style="opacity:1" fill="#83bf85" d="M 1906.5,1170.5 C 1898.77,1172.71 1890.77,1174.04 1882.5,1174.5C 1890.23,1172.29 1898.23,1170.96 1906.5,1170.5 Z"/></g>
<g><path style="opacity:1" fill="#5ca65f" d="M 2025.5,1373.5 C 2036.66,1372.34 2047.99,1372.17 2059.5,1373C 2058.26,1373.79 2056.92,1374.29 2055.5,1374.5C 2045.68,1373.51 2035.68,1373.17 2025.5,1373.5 Z"/></g>
<g><path style="opacity:1" fill="#388e3c" d="M 2025.5,1373.5 C 2035.68,1373.17 2045.68,1373.51 2055.5,1374.5C 1999.49,1397.16 1947.16,1425.99 1898.5,1461C 1786.62,1541.88 1692.12,1639.38 1615,1753.5C 1581.78,1802.59 1552.11,1853.92 1526,1907.5C 1525.18,1892.11 1525.85,1876.77 1528,1861.5C 1531.31,1834.63 1535.81,1807.96 1541.5,1781.5C 1543.61,1776.07 1545.28,1770.4 1546.5,1764.5C 1568.39,1673.04 1610.56,1592.37 1673,1522.5C 1723.99,1468.66 1784.49,1429.66 1854.5,1405.5C 1856.15,1405.34 1857.49,1404.67 1858.5,1403.5C 1912.64,1385.27 1968.31,1375.27 2025.5,1373.5 Z"/></g>
<g><path style="opacity:1" fill="#6cb06e" d="M 1858.5,1403.5 C 1857.49,1404.67 1856.15,1405.34 1854.5,1405.5C 1855.29,1403.9 1856.62,1403.23 1858.5,1403.5 Z"/></g>
<g><path style="opacity:1" fill="#7ab97c" d="M 1328.5,1737.5 C 1327.24,1750.74 1325.24,1763.74 1322.5,1776.5C 1323.55,1763.23 1325.55,1750.23 1328.5,1737.5 Z"/></g>
<g><path style="opacity:0.987" fill="#388e3c" d="M 2199.5,1748.5 C 2199.67,1772.17 2199.5,1795.84 2199,1819.5C 2189.69,1889.01 2154.86,1941.18 2094.5,1976C 2060.09,1994.27 2023.42,2002.1 1984.5,1999.5C 1983.76,1999.63 1983.09,1999.46 1982.5,1999C 1994.44,1991.39 2006.11,1983.39 2017.5,1975C 2096.75,1913.64 2157.25,1837.48 2199,1746.5C 2199.46,1747.09 2199.63,1747.76 2199.5,1748.5 Z"/></g>
<g><path style="opacity:1" fill="#85c187" d="M 1546.5,1764.5 C 1545.28,1770.4 1543.61,1776.07 1541.5,1781.5C 1542.35,1776.11 1543.51,1770.78 1545,1765.5C 1545.38,1764.94 1545.88,1764.61 1546.5,1764.5 Z"/></g>
<g><path style="opacity:1" fill="#75b678" d="M 1322.5,1776.5 C 1322.56,1781.73 1321.89,1786.73 1320.5,1791.5C 1320.44,1786.27 1321.11,1781.27 1322.5,1776.5 Z"/></g>
</svg>
