<svg xmlns="http://www.w3.org/2000/svg" viewBox="0 0 16 16"><path id="folder" fill="#ff9800" d="m6.922 3.768-.644-.536A1 1 0 0 0 5.638 3H2a1 1 0 0 0-1 1v8a1 1 0 0 0 1 1h12a1 1 0 0 0 1-1V5a1 1 0 0 0-1-1H7.562a1 1 0 0 1-.64-.232"/><path id="motive" fill="#fffde7" d="M11.5 5a1 1 0 0 0-.508.135L7.516 7.127A1.02 1.02 0 0 0 7 8.016v3.97a.97.97 0 0 0 .508.854l.492.28V8.467a.9.9 0 0 1 .07-.291.82.82 0 0 1 .344-.399l2.7-1.545a.8.8 0 0 1 .788 0L14.6 7.777a.8.8 0 0 1 .375.493.8.8 0 0 1 .025.197v3.068a.79.79 0 0 1-.398.69l-2.704 1.546a.8.8 0 0 1-.398.106V15a1.03 1.03 0 0 0 .51-.135l3.474-1.992a1.02 1.02 0 0 0 .516-.889V8.016a1 1 0 0 0-.037-.274 1 1 0 0 0-.477-.615L12.01 5.135A1 1 0 0 0 11.5 5m0 2.225a.6.6 0 0 0-.283.074l-1.93 1.105a.57.57 0 0 0-.256.309.6.6 0 0 0-.031.185l-.008 4.79 1.008.564V12.02l1.201.687a.57.57 0 0 0 .569 0l1.945-1.115A.57.57 0 0 0 14 11.1V8.898a.57.57 0 0 0-.287-.494L11.783 7.3a.6.6 0 0 0-.283-.074m0 1.109a.34.34 0 0 1 .168.045l1.16.664a.34.34 0 0 1 .164.225L13 9.34v1.324a.34.34 0 0 1-.17.293l-1.16.664a.35.35 0 0 1-.17.045.35.35 0 0 1-.17-.045l-1.16-.666a.34.34 0 0 1-.17-.29V9.34a.4.4 0 0 1 .02-.117.34.34 0 0 1 .152-.18l1.16-.664a.34.34 0 0 1 .168-.045"/></svg>