<svg xmlns="http://www.w3.org/2000/svg" clip-rule="evenodd" stroke-linejoin="round" stroke-miterlimit="1.414" viewBox="0 0 24 24">
  <path d="M19 20H4a2 2 0 0 1-2-2V6c0-1.11.89-2 2-2h6l2 2h7c1.097 0 2 .903 2 2H4v10l2.14-8h17.07l-2.28 8.5c-.23.87-1.01 1.5-1.93 1.5z" fill="#ffb300"/>
  <path d="M0 0h24v24H0z" fill="none"/>
  <path d="M12.95 12.6H11.9v7.35c0 .578.472 1.05 1.05 1.05h7.35v-1.05h-7.35zm8.4-2.1h-6.3c-.578 0-1.05.473-1.05 1.05v6.3c0 .578.472 1.05 1.05 1.05h6.3c.578 0 1.05-.472 1.05-1.05v-6.3c0-.578-.472-1.05-1.05-1.05zm-.525 4.725h-2.1v2.1h-1.05v-2.1h-2.1v-1.05h2.1v-2.1h1.05v2.1h2.1z"/>
</svg>