<svg viewBox="0 0 24 24" fill="none" xmlns="http://www.w3.org/2000/svg">
  <path
    d="M10 4H4C2.89 4 2 4.89 2 6V18C2 19.097 2.903 20 4 20H20C21.097 20 22 19.097 22 18V8C22 7.46957 21.7893 6.96086 21.4142 6.58579C21.0391 6.21071 20.5304 6 20 6H12L10 4Z"
    fill="#546E7A" />
  <g clip-path="url(#clip0_758_37)">
    <path
      d="M11.7 13.619C11.7 12.0652 11.7 11.2882 12.0024 10.6948C12.2684 10.1727 12.6928 9.74833 13.2148 9.48234C13.8083 9.17993 14.5854 9.17993 16.1391 9.17993H19.1909C20.7447 9.17993 21.5217 9.17993 22.1152 9.48234C22.6372 9.74833 23.0616 10.1727 23.3276 10.6948C23.63 11.2882 23.63 12.0653 23.63 13.619V16.6709C23.63 18.2247 23.63 19.0017 23.3276 19.5951C23.0616 20.1171 22.6372 20.5415 22.1152 20.8075C21.5217 21.1099 20.7446 21.1099 19.1909 21.1099H16.1391C14.5853 21.1099 13.8083 21.1099 13.2148 20.8075C12.6928 20.5415 12.2684 20.1171 12.0024 19.5951C11.7 19.0017 11.7 18.2245 11.7 16.6709V13.619Z"
      fill="#2196F3" />
    <path
      d="M11.7 13.619C11.7 12.0652 11.7 11.2882 12.0024 10.6948C12.2684 10.1727 12.6928 9.74833 13.2148 9.48234C13.8083 9.17993 14.5854 9.17993 16.1391 9.17993H19.1909C20.7447 9.17993 21.5217 9.17993 22.1152 9.48234C22.6372 9.74833 23.0616 10.1727 23.3276 10.6948C23.63 11.2882 23.63 12.0653 23.63 13.619V16.6709C23.63 18.2247 23.63 19.0017 23.3276 19.5951C23.0616 20.1171 22.6372 20.5415 22.1152 20.8075C21.5217 21.1099 20.7446 21.1099 19.1909 21.1099H16.1391C14.5853 21.1099 13.8083 21.1099 13.2148 20.8075C12.6928 20.5415 12.2684 20.1171 12.0024 19.5951C11.7 19.0017 11.7 18.2245 11.7 16.6709V13.619Z"
      fill="#2196F3" />
    <path
      d="M16.2785 15.7688C16.3094 12.721 17.3493 10.1135 17.8731 9.17986L24.393 8.00073V13.8964L23.8381 20.9711C22.4509 21.8497 19.4961 23.1213 18.7748 21.1792C18.0534 19.2371 18.0118 16.8557 18.0812 15.9078H16.4168C16.3986 15.9079 16.3805 15.9043 16.3637 15.8973C16.3468 15.8903 16.3315 15.8801 16.3187 15.8672C16.3058 15.8542 16.2956 15.8389 16.2887 15.822C16.2818 15.8051 16.2784 15.7871 16.2785 15.7688V15.7688Z"
      fill="#EEEEEE" />
    <path
      d="M20.4394 12.7867C20.4394 12.7131 20.4102 12.6426 20.3582 12.5905C20.3061 12.5385 20.2356 12.5093 20.162 12.5093C20.0884 12.5093 20.0178 12.5385 19.9658 12.5905C19.9138 12.6426 19.8845 12.7131 19.8845 12.7867V13.4803C19.8845 13.5539 19.9138 13.6245 19.9658 13.6765C20.0178 13.7285 20.0884 13.7578 20.162 13.7578C20.2356 13.7578 20.3061 13.7285 20.3582 13.6765C20.4102 13.6245 20.4394 13.5539 20.4394 13.4803V12.7867ZM15.0293 12.7867C15.0293 12.7131 15.0001 12.6426 14.948 12.5905C14.896 12.5385 14.8254 12.5093 14.7519 12.5093C14.6783 12.5093 14.6077 12.5385 14.5557 12.5905C14.5036 12.6426 14.4744 12.7131 14.4744 12.7867V13.4803C14.4744 13.5539 14.5036 13.6245 14.5557 13.6765C14.6077 13.7285 14.6783 13.7578 14.7519 13.7578C14.8254 13.7578 14.896 13.7285 14.948 13.6765C15.0001 13.6245 15.0293 13.5539 15.0293 13.4803V12.7867Z"
      fill="#424242" />
    <path fill-rule="evenodd" clip-rule="evenodd"
      d="M21.0692 16.8312C21.1325 16.8731 21.152 16.962 21.1128 17.0297L20.9982 16.9539C21.1128 17.0297 21.1128 17.03 21.1128 17.03L21.1126 17.0302L21.1124 17.0307L21.1114 17.0321L21.1086 17.0368L21.0992 17.0521C21.0908 17.065 21.0791 17.0831 21.0631 17.1056C21.0315 17.1508 20.984 17.2138 20.9191 17.2887C20.7891 17.4385 20.589 17.6359 20.305 17.8325C19.7355 18.2265 19.0522 18.613 17.4944 18.613C15.2374 18.613 14.4203 17.5789 14.0809 17.0339C14.0397 16.9676 14.0563 16.878 14.1183 16.8339C14.1802 16.7896 14.264 16.8075 14.3052 16.8738C14.5947 17.3387 15.3761 18.3244 17.4944 18.3244C19.1214 18.3244 19.633 17.9536 20.1585 17.5902C20.4219 17.4079 20.605 17.2267 20.7214 17.0924C20.7797 17.0253 20.8212 16.9699 20.8477 16.9322C20.8597 16.915 20.8713 16.8975 20.8824 16.8796L20.8835 16.878L20.8836 16.8778C20.9229 16.8101 21.0057 16.7893 21.0691 16.8312H21.0692Z"
      fill="#424242" />
  </g>
  <defs>
    <clipPath id="clip0_758_37">
      <rect x="11.7" y="9.17993" width="11.93" height="11.93" rx="3" fill="white" />
    </clipPath>
  </defs>
</svg>