<svg xmlns="http://www.w3.org/2000/svg" viewBox="0 0 16 16"><path id="folder" fill="#ffca28" d="m6.922 3.768-.644-.536A1 1 0 0 0 5.638 3H2a1 1 0 0 0-1 1v8a1 1 0 0 0 1 1h12a1 1 0 0 0 1-1V5a1 1 0 0 0-1-1H7.562a1 1 0 0 1-.64-.232"/><path id="motive" fill="#ffecb3" d="M12.003 9.533a.664.663 0 0 0 .15.518 1.249 1.246 0 0 0 .305.14c.27.09.664.184 1.044.31 1.318.438 1.478 1.156 1.493 1.74q.006.118.005.228v.025c0 .529-.23 1.391-1.718 1.486a2 2 0 0 1-.185.005.5.499 0 0 1-.095.005h-1.998v-.877l.12-.12h1.878a.999.997 0 0 0 .125-.005h.085c.09-.005.165-.015.235-.02a.999.997 0 0 0 .135-.03l.094-.03a.02.02 0 0 0 .015-.005c.245-.09.295-.224.305-.329a.5.499 0 0 0 .005-.08c0-.16-.34-.613-1.498-.997-1.369-.453-1.489-1.206-1.494-1.8a.3.3 0 0 1-.005-.064v-.13a1.423 1.42 0 0 1 .225-.793c.02-.03.035-.055.055-.08.005-.005.005-.01.01-.015a.5.499 0 0 1 .09-.1 2.148 2.144 0 0 1 1.573-.508H15v.997h-1.998q-.098-.001-.195.005c-.589.03-.744.2-.789.35a.1.1 0 0 0-.005.03.5.499 0 0 0-.01.114zM8.008 13.99a1.818 1.815 0 0 1-1.998-1.994h.999c0 .718.28.997.999.997s.999-.28.999-.997V8.007h.999v3.989a1.818 1.815 0 0 1-1.998 1.994"/></svg>