<svg xmlns="http://www.w3.org/2000/svg" viewBox="0 0 24 24" fill="none"><path fill="#BA68C8" d="M19 20H4a2 2 0 0 1-2-2V6c0-1.11.89-2 2-2h6l2 2h7c1.097 0 2 .903 2 2H4v10l2.14-8h17.07l-2.28 8.5c-.23.87-1.01 1.5-1.93 1.5Z"/><path fill="#E1BEE7" d="M18.165 21.33a5.165 5.165 0 1 1 0-10.33c2.84 0 5.165 2.066 5.165 4.649a3.099 3.099 0 0 1-3.099 3.098h-.93c-.155 0-.258.104-.258.259 0 .051.052.103.052.155.206.258.31.568.31.878.051.723-.517 1.291-1.24 1.291Zm0-9.297a4.132 4.132 0 1 0 0 8.264c.155 0 .258-.103.258-.258 0-.104-.051-.155-.051-.207-.207-.258-.31-.516-.31-.826 0-.723.568-1.291 1.291-1.291h.878a2.066 2.066 0 0 0 2.066-2.066c0-2.015-1.86-3.616-4.132-3.616Zm-2.84 3.099c.412 0 .774.361.774.775a.794.794 0 0 1-.775.774.794.794 0 0 1-.774-.774c0-.414.361-.775.774-.775Zm1.549-2.066c.413 0 .774.361.774.775a.794.794 0 0 1-.774.775.794.794 0 0 1-.775-.775c0-.413.361-.775.775-.775Zm2.582 0c.413 0 .775.361.775.775a.794.794 0 0 1-.775.775.794.794 0 0 1-.774-.775c0-.413.361-.775.774-.775Zm1.55 2.066c.413 0 .774.361.774.775a.794.794 0 0 1-.774.774.794.794 0 0 1-.775-.774c0-.414.361-.775.775-.775Z"/></svg>