<svg width="16" height="16" viewBox="0 0 16 16" fill="none" xmlns="http://www.w3.org/2000/svg">
<path d="M6.922 3.768L6.278 3.232C6.09836 3.0822 5.8719 3.00011 5.638 3H2C1.73478 3 1.48043 3.10536 1.29289 3.29289C1.10536 3.48043 1 3.73478 1 4V12C1 12.2652 1.10536 12.5196 1.29289 12.7071C1.48043 12.8946 1.73478 13 2 13H14C14.2652 13 14.5196 12.8946 14.7071 12.7071C14.8946 12.5196 15 12.2652 15 12V5C15 4.73478 14.8946 4.48043 14.7071 4.29289C14.5196 4.10536 14.2652 4 14 4H7.562C7.3281 3.99989 7.10164 3.9178 6.922 3.768Z" fill="#6D4C41"/>
<path d="M11.4278 6.0583L11.8653 4.52797C12.0293 3.95514 12.8411 3.95514 13.005 4.52797L13.442 6.0583C13.4697 6.15511 13.5216 6.24326 13.5928 6.31446C13.664 6.38565 13.7521 6.43753 13.8489 6.4652L15.3792 6.90223C15.952 7.06618 15.952 7.87801 15.3792 8.04195L13.8489 8.47898C13.7521 8.50665 13.664 8.55853 13.5928 8.62972C13.5216 8.70092 13.4697 8.78908 13.442 8.88588L13.005 10.4162C12.8411 10.989 12.0293 10.989 11.8653 10.4162L11.4283 8.88588C11.4007 8.78908 11.3488 8.70092 11.2776 8.62972C11.2064 8.55853 11.1183 8.50665 11.0214 8.47898L9.49116 8.04195C8.91835 7.87801 8.91835 7.06618 9.49116 6.90223L11.0214 6.4652C11.1183 6.43753 11.2064 6.38565 11.2776 6.31446C11.3488 6.24326 11.4007 6.15511 11.4283 6.0583M14.014 11.2256C14.1567 10.8093 14.7566 10.8089 14.8988 11.2256L14.9117 11.2686L15.0578 11.8552L15.6445 12.0019C16.1185 12.1204 16.1185 12.793 15.6445 12.9115L15.0578 13.0582L14.9117 13.6448C14.7932 14.1184 14.1201 14.1184 14.0016 13.6448L13.8549 13.0582L13.2683 12.9115C12.7943 12.793 12.7943 12.1199 13.2683 12.0019L13.8549 11.8552L14.0016 11.2686L14.014 11.2256ZM14.4564 12.3565C14.428 12.3945 14.3942 12.4283 14.3562 12.4567C14.3942 12.4851 14.428 12.5189 14.4564 12.557C14.4848 12.5189 14.5186 12.4851 14.5566 12.4567C14.5185 12.4281 14.4848 12.3942 14.4564 12.356M7.10117 4.31219C7.24832 3.88208 7.88383 3.8964 7.99889 4.35515L8.14505 4.9418L8.73168 5.08847C9.20573 5.20698 9.20573 5.87956 8.73168 5.99807L8.14505 6.14474L7.99889 6.73139C7.88038 7.20496 7.20733 7.20496 7.08882 6.73139L6.94216 6.14474L6.35553 5.99807C5.88149 5.87956 5.88149 5.20649 6.35553 5.08847L6.94216 4.9418L7.08882 4.35515L7.10117 4.31219ZM7.54361 5.44352C7.51515 5.48141 7.48139 5.515 7.44337 5.54327C7.48146 5.57184 7.51523 5.60577 7.54361 5.64401C7.57199 5.60577 7.60575 5.57184 7.64385 5.54327C7.60579 5.51485 7.57203 5.48158 7.54361 5.44352Z" fill="#D7CCC8"/>
</svg>
