<svg xmlns="http://www.w3.org/2000/svg" viewBox="0 0 32 32"><path fill="#455a64" d="M 13.843 5.536 L 12.555 4.464 C 12.196 4.164 11.743 4 11.275 4 L 3.999 4 C 2.895 4 1.999 4.895 1.999 6 L 1.999 22 C 1.999 23.104 2.895 24 3.999 24 L 27.999 24 C 29.104 24 29.999 23.104 29.999 22 L 29.999 8 C 29.999 6.895 29.104 6 27.999 6 L 15.123 6 C 14.656 5.999 14.203 5.835 13.843 5.536 Z" transform="matrix(1, 0, 0, 1, 0, 8.881784197001252e-16)"/><path fill="#ffca28" d="M 27.163 14.551 C 27.163 15.87 25.735 16.694 24.593 16.034 C 24.463 15.96 24.344 15.869 24.239 15.763 C 23.306 14.83 23.733 13.238 25.006 12.896 C 26.094 12.605 27.163 13.425 27.163 14.551 Z" style="" transform="matrix(1, 0, 0, 1, 0, 8.881784197001252e-16)"/><path fill="#26c6da" d="M 22.568 17.744 C 21.622 17.744 20.855 18.511 20.855 19.456 C 20.855 20.402 21.622 21.169 22.568 21.169 C 23.515 21.169 24.282 20.402 24.282 19.456 C 24.282 18.511 23.515 17.744 22.568 17.744 Z" style="" transform="matrix(1, 0, 0, 1, 0, 8.881784197001252e-16)"/><path fill="#ffca28" d="M 29 20.041 C 28.311 20.486 27.545 20.797 26.741 20.959 C 26.974 20.295 27.052 19.586 26.967 18.889 C 28.35 18.405 29.418 17.292 29.846 15.893 C 30.501 13.741 29.504 11.431 27.488 10.434 C 25.472 9.438 23.032 10.046 21.72 11.874 C 20.848 11.971 20 12.218 19.213 12.605 C 20.184 9.47 23.33 7.541 26.564 8.094 C 29.799 8.649 32.123 11.516 31.995 14.796 C 31.912 16.928 30.793 18.885 29 20.041 Z M 19.29 13.796 L 20.895 13.991 C 20.932 13.681 20.999 13.376 21.097 13.08 C 20.462 13.227 19.854 13.469 19.29 13.796 Z" clip-rule="evenodd" style="" transform="matrix(1, 0, 0, 1, 0, 8.881784197001252e-16)"/><path fill="#26c6da" d="M 19.011 13.967 C 19.703 13.518 20.475 13.203 21.284 13.041 C 21.039 13.705 20.951 14.417 21.027 15.12 C 19.651 15.61 18.588 16.725 18.168 18.125 C 17.276 21.094 19.518 24.076 22.617 24.041 C 24.08 24.025 25.446 23.314 26.299 22.127 C 27.169 22.031 28.018 21.786 28.805 21.403 C 28.172 23.439 26.586 25.039 24.556 25.688 C 22.524 26.339 20.304 25.959 18.605 24.669 C 14.993 21.927 15.2 16.429 19.011 13.967 Z M 28.719 20.212 L 28.689 20.228 L 28.719 20.212 Z" clip-rule="evenodd" style="" transform="matrix(1, 0, 0, 1, 0, 8.881784197001252e-16)"/></svg>