<svg width="22" height="16" viewBox="0 0 22 16" fill="none" xmlns="http://www.w3.org/2000/svg">
<path d="M8 0H2C0.89 0 0 0.89 0 2V14C0 15.097 0.903 16 2 16H18C19.097 16 20 15.097 20 14V4C20 3.46957 19.7893 2.96086 19.4142 2.58579C19.0391 2.21071 18.5304 2 18 2H10L8 0Z" fill="#8F9395" fill-opacity="0.3"/>
<ellipse cx="10.6" cy="7.6" rx="0.8" ry="0.8" fill="#F73D48"/>
<path d="M11.95 7.6C11.95 8.34558 11.3456 8.95 10.6 8.95C9.85442 8.95 9.25 8.34558 9.25 7.6C9.25 6.85442 9.85442 6.25 10.6 6.25C11.3456 6.25 11.95 6.85442 11.95 7.6Z" stroke="#040707" stroke-width="0.5"/>
<circle cx="13.6" cy="7.6" r="0.8" fill="#F73D48"/>
<path d="M14.95 7.6C14.95 8.34558 14.3456 8.95 13.6 8.95C12.8544 8.95 12.25 8.34558 12.25 7.6C12.25 6.85442 12.8544 6.25 13.6 6.25C14.3456 6.25 14.95 6.85442 14.95 7.6Z" stroke="#040707" stroke-width="0.5"/>
<circle cx="16.7" cy="7.6" r="0.8" fill="#F73D48"/>
<path d="M18.05 7.6C18.05 8.34558 17.4456 8.95 16.7 8.95C15.9544 8.95 15.35 8.34558 15.35 7.6C15.35 6.85442 15.9544 6.25 16.7 6.25C17.4456 6.25 18.05 6.85442 18.05 7.6Z" stroke="#040707" stroke-width="0.5"/>
<ellipse cx="19.7" cy="7.6" rx="0.8" ry="0.8" fill="#F73D48"/>
<path d="M21.05 7.6C21.05 8.34558 20.4456 8.95 19.7 8.95C18.9544 8.95 18.35 8.34558 18.35 7.6C18.35 6.85442 18.9544 6.25 19.7 6.25C20.4456 6.25 21.05 6.85442 21.05 7.6Z" stroke="#040707" stroke-width="0.5"/>
<ellipse cx="10.6" cy="10.6" rx="0.8" ry="0.8" fill="#F73D48"/>
<path d="M11.95 10.6C11.95 11.3456 11.3456 11.95 10.6 11.95C9.85442 11.95 9.25 11.3456 9.25 10.6C9.25 9.85442 9.85442 9.25 10.6 9.25C11.3456 9.25 11.95 9.85442 11.95 10.6Z" stroke="#040707" stroke-width="0.5"/>
<ellipse cx="13.6" cy="10.6" rx="0.8" ry="0.8" fill="#F73D48"/>
<path d="M14.95 10.6C14.95 11.3456 14.3456 11.95 13.6 11.95C12.8544 11.95 12.25 11.3456 12.25 10.6C12.25 9.85442 12.8544 9.25 13.6 9.25C14.3456 9.25 14.95 9.85442 14.95 10.6Z" stroke="#040707" stroke-width="0.5"/>
<ellipse cx="16.7" cy="10.6" rx="0.8" ry="0.8" fill="#F73D48"/>
<path d="M18.05 10.6C18.05 11.3456 17.4456 11.95 16.7 11.95C15.9544 11.95 15.35 11.3456 15.35 10.6C15.35 9.85442 15.9544 9.25 16.7 9.25C17.4456 9.25 18.05 9.85442 18.05 10.6Z" stroke="#040707" stroke-width="0.5"/>
<ellipse cx="19.7" cy="10.6" rx="0.8" ry="0.8" fill="#F73D48"/>
<path d="M21.05 10.6C21.05 11.3456 20.4456 11.95 19.7 11.95C18.9544 11.95 18.35 11.3456 18.35 10.6C18.35 9.85442 18.9544 9.25 19.7 9.25C20.4456 9.25 21.05 9.85442 21.05 10.6Z" stroke="#040707" stroke-width="0.5"/>
<ellipse cx="10.6" cy="13.6" rx="0.8" ry="0.8" fill="#F73D48"/>
<path d="M11.95 13.6C11.95 14.3456 11.3456 14.95 10.6 14.95C9.85442 14.95 9.25 14.3456 9.25 13.6C9.25 12.8544 9.85442 12.25 10.6 12.25C11.3456 12.25 11.95 12.8544 11.95 13.6Z" stroke="#040707" stroke-width="0.5"/>
<circle cx="13.6" cy="13.6" r="0.8" fill="#F73D48"/>
<path d="M14.95 13.6C14.95 14.3456 14.3456 14.95 13.6 14.95C12.8544 14.95 12.25 14.3456 12.25 13.6C12.25 12.8544 12.8544 12.25 13.6 12.25C14.3456 12.25 14.95 12.8544 14.95 13.6Z" stroke="#040707" stroke-width="0.5"/>
<circle cx="16.7" cy="13.6" r="0.8" fill="#F73D48"/>
<path d="M18.05 13.6C18.05 14.3456 17.4456 14.95 16.7 14.95C15.9544 14.95 15.35 14.3456 15.35 13.6C15.35 12.8544 15.9544 12.25 16.7 12.25C17.4456 12.25 18.05 12.8544 18.05 13.6Z" stroke="#040707" stroke-width="0.5"/>
<ellipse cx="19.7" cy="13.6" rx="0.8" ry="0.8" fill="#F73D48"/>
<path d="M21.05 13.6C21.05 14.3456 20.4456 14.95 19.7 14.95C18.9544 14.95 18.35 14.3456 18.35 13.6C18.35 12.8544 18.9544 12.25 19.7 12.25C20.4456 12.25 21.05 12.8544 21.05 13.6Z" stroke="#040707" stroke-width="0.5"/>
<ellipse cx="10.6" cy="9.1" rx="0.4" ry="0.4" fill="#F73D48"/>
<ellipse cx="13.7" cy="9.1" rx="0.4" ry="0.4" fill="#F73D48"/>
<ellipse cx="16.7" cy="9.1" rx="0.4" ry="0.4" fill="#F73D48"/>
<ellipse cx="19.7" cy="9.1" rx="0.4" ry="0.4" fill="#F73D48"/>
<ellipse cx="10.6" cy="12.1" rx="0.4" ry="0.399998" fill="#F73D48"/>
<ellipse cx="13.7" cy="12.1" rx="0.4" ry="0.399998" fill="#F73D48"/>
<ellipse cx="16.7" cy="12.1" rx="0.4" ry="0.399998" fill="#F73D48"/>
<ellipse cx="19.7" cy="12.1" rx="0.4" ry="0.399998" fill="#F73D48"/>
<circle cx="12.1" cy="7.6" r="0.4" fill="#F73D48"/>
<ellipse cx="12.1" cy="13.6" rx="0.4" ry="0.4" fill="#F73D48"/>
<ellipse cx="12.1" cy="10.6" rx="0.4" ry="0.4" fill="#F73D48"/>
<ellipse cx="15.1" cy="7.6" rx="0.4" ry="0.4" fill="#F73D48"/>
<circle cx="15.1" cy="13.6" r="0.4" fill="#F73D48"/>
<ellipse cx="15.1" cy="10.6" rx="0.4" ry="0.4" fill="#F73D48"/>
<ellipse cx="18.2" cy="7.6" rx="0.4" ry="0.4" fill="#F73D48"/>
<ellipse cx="18.2" cy="13.6" rx="0.4" ry="0.4" fill="#F73D48"/>
<ellipse cx="18.2" cy="10.6" rx="0.4" ry="0.4" fill="#F73D48"/>
</svg>
