<svg width="25" height="24" viewBox="0 0 25 24" fill="none" xmlns="http://www.w3.org/2000/svg">
<path d="M19 20H4C2.89 20 2 19.1 2 18V6C2 4.89 2.89 4 4 4H10L12 6H19C19.5304 6 20.0391 6.21071 20.4142 6.58579C20.7893 6.96086 21 7.46957 21 8H4V18L6.14 10H23.21L20.93 18.5C20.7 19.37 19.92 20 19 20Z" fill="#263238"/>
<path d="M17.2133 22.3333C16.1 22.3333 15.1067 21.3333 14.48 19.62C14.4333 19.4867 14.5 19.3333 14.64 19.2933C14.7733 19.24 14.92 19.3133 14.9667 19.4467C15.5067 20.9333 16.3467 21.82 17.2133 21.82C17.84 21.82 18.46 21.3667 18.96 20.54C19.0333 20.42 19.1867 20.38 19.3133 20.4533C19.4333 20.5267 19.4733 20.6867 19.4 20.8067C18.8 21.7933 18.0267 22.3333 17.2133 22.3333ZM19.82 19.48C19.7933 19.48 19.7667 19.4733 19.7467 19.4667C19.6067 19.42 19.5467 19.28 19.5733 19.14C19.88 18.2067 20.0267 17.12 20.0267 16C20.0267 13.4333 19.1933 11.16 18.0067 10.4267C17.84 10.6667 17.5467 10.8533 17.2133 10.8533C16.7067 10.8533 16.2867 10.44 16.2867 9.92667C16.2867 9.41333 16.7067 9 17.2133 9C17.7267 9 18.1467 9.40667 18.1533 9.91333C19.5667 10.6667 20.5467 13.14 20.5467 16C20.5467 17.1667 20.38 18.3067 20.0667 19.3C20.0333 19.4067 19.9333 19.48 19.82 19.48ZM17.2133 9.51333C16.9867 9.51333 16.8 9.7 16.8 9.92667C16.8 10.1533 16.9933 10.3333 17.2133 10.3333C17.4467 10.3333 17.64 10.1533 17.64 9.92667C17.64 9.7 17.4467 9.51333 17.2133 9.51333ZM11.9333 20.0267C11.42 20.0267 11 19.6067 11 19.1C11 18.7733 11.1733 18.48 11.4333 18.3133C11.34 16.7067 13 14.6067 15.5467 13.1467C16.6067 12.5467 17.7133 12.1133 18.76 11.8933C18.88 11.86 19.0333 11.9467 19.06 12.0867C19.0933 12.2267 19.0067 12.3667 18.88 12.3933C17.88 12.6067 16.82 13.02 15.8133 13.5933C13.52 14.9067 11.9467 16.7867 11.9467 18.1733C12.4533 18.18 12.88 18.5933 12.88 19.1C12.88 19.6133 12.4467 20.0267 11.9333 20.0267ZM11.9333 18.6867C11.7067 18.6867 11.52 18.8733 11.52 19.1C11.52 19.3333 11.7067 19.5133 11.9333 19.5133C12.16 19.5133 12.3533 19.3333 12.3533 19.1C12.3533 18.8733 12.16 18.6867 11.9333 18.6867ZM21.5467 16.6267C21.5 16.6267 21.44 16.6067 21.3933 16.5667C21.2867 16.4733 21.2733 16.3133 21.3667 16.2C22.3933 15 22.7467 13.84 22.3067 13.0933C21.9933 12.5533 21.28 12.2533 20.3 12.24C20.1533 12.24 20.04 12.12 20.0467 11.98C20.0467 11.84 20.1667 11.7333 20.3067 11.7267C21.4733 11.74 22.3467 12.1333 22.7533 12.8333C23.3133 13.7933 22.9467 15.14 21.76 16.5333C21.7067 16.5933 21.6333 16.6267 21.5467 16.6267ZM20.2133 20.2667C18.88 20.2667 17.1733 19.7733 15.5467 18.8467C14.5133 18.2533 13.5933 17.5267 12.88 16.7533C12.78 16.6467 12.7867 16.4867 12.88 16.3867C13 16.2933 13.16 16.3 13.26 16.4067C13.9333 17.14 14.8133 17.8333 15.8067 18.4C18.0133 19.6667 20.3933 20.0867 21.6467 19.48C21.5933 19.3667 21.5467 19.2333 21.5467 19.1C21.5467 18.5867 21.98 18.1733 22.4933 18.1733C23.0067 18.1733 23.4267 18.5867 23.4267 19.1C23.4267 19.6133 23.0067 20.0267 22.4933 20.0267C22.3067 20.0267 22.14 19.9733 21.9933 19.88C21.5267 20.14 20.92 20.2667 20.2133 20.2667ZM22.2133 19.42C22.3 19.4733 22.3933 19.5133 22.4933 19.5133C22.7267 19.5133 22.9133 19.3333 22.9133 19.1C22.9133 18.8733 22.7267 18.6867 22.4933 18.6867C22.26 18.6867 22.08 18.8733 22.08 19.1C22.08 19.1933 22.1133 19.28 22.1667 19.3533C22.1933 19.3667 22.2133 19.3933 22.2133 19.42ZM12.1867 15.6667C12.1 15.6667 12.0133 15.6133 11.9667 15.5333C11.3667 14.5 11.2667 13.54 11.68 12.8267C12.24 11.8667 13.6 11.5067 15.42 11.8333C15.5467 11.86 15.6533 12 15.6267 12.1333C15.6067 12.2733 15.4733 12.3667 15.3333 12.3333C13.76 12.06 12.5467 12.3333 12.1267 13.0867C11.8067 13.6333 11.9067 14.4067 12.4133 15.2733C12.48 15.4 12.44 15.5533 12.3133 15.6267C12.2733 15.6467 12.2333 15.6667 12.1867 15.6667ZM17.3533 16.6C17.02 16.6667 16.6867 16.46 16.62 16.1267C16.5467 15.8 16.76 15.4733 17.0867 15.4C17.42 15.3333 17.7533 15.54 17.82 15.8733C17.88 16.2 17.68 16.5267 17.3533 16.6Z" fill="#B2EBF2"/>
</svg>
