<svg xmlns="http://www.w3.org/2000/svg" clip-rule="evenodd" fill-rule="evenodd" stroke-linejoin="round" stroke-miterlimit="1.414" viewBox="0 0 24 24">
<path fill="#00BFA5" d="M10,4H4C2.89,4,2,4.89,2,6v12c0,1.097,0.903,2,2,2h16c1.097,0,2-0.903,2-2V8c0-1.11-0.9-2-2-2h-8L10,4z"/>
<g id="prisma" transform="translate(-.5)">
	<path fill-rule="evenodd" clip-rule="evenodd" fill="#A7FFEB" d="M23.036,18.979l-6.134,1.768
		c-0.187,0.054-0.367-0.104-0.328-0.288l2.191-10.225c0.041-0.191,0.312-0.222,0.398-0.045l4.058,8.395
		C23.297,18.742,23.21,18.928,23.036,18.979L23.036,18.979z M24.087,18.562l-4.698-9.72v0c-0.118-0.243-0.364-0.403-0.642-0.418
		c-0.286-0.016-0.542,0.118-0.687,0.347l-5.095,8.041c-0.158,0.251-0.155,0.56,0.009,0.807l2.491,3.759
		c0.148,0.224,0.406,0.354,0.673,0.354c0.076,0,0.152-0.01,0.227-0.032l7.23-2.083c0.221-0.064,0.403-0.216,0.497-0.419
		C24.187,18.995,24.185,18.763,24.087,18.562L24.087,18.562z"/>
</g>
</svg>
