<svg clip-rule="evenodd" fill-rule="evenodd" stroke-linejoin="round" stroke-miterlimit="1.4142" viewBox="0 0 24 24" xmlns="http://www.w3.org/2000/svg">
  <path d="m19 20h-15c-1.11 0-2-.9-2-2v-12c0-1.11.89-2 2-2h6l2 2h7c1.097 0 2 .903 2 2h-17v10l2.14-8h17.07l-2.28 8.5c-.23.87-1.01 1.5-1.93 1.5z" fill="#41b883" />
  <path d="m14.923527 9.1855471c-.82833 0-1.499699.6715027-1.499699 1.4999999v9c0 .828496.671369 1.5 1.499699 1.5h7.000602c.82833 0 1.499699-.671504 1.499699-1.5v-9c0-.8284972-.671369-1.4999999-1.499699-1.4999999z" fill="#d6f0e4" stroke-width="1.23262" />
  <g transform="matrix(.34054146 0 0 .34054146 14.33733 10.928472)">
    <path d="m1.791 3.6914 10.209 17.619 10.209-17.533v-.085938h-3.9688l-6.1816 10.615-6.1523-10.615z" fill="#41b883" />
    <path d="m5.9072 3.6914 6.1521 10.617 6.1809-10.617h-3.7228l-2.4337 4.1783-2.4226-4.1783z" fill="#35495e" />
  </g>
</svg>
