<svg xmlns="http://www.w3.org/2000/svg" viewBox="0 0 32 32">
  <path d="M13.84376,7.53645l-1.28749-1.0729A2,2,0,0,0,11.27591,6H4A2,2,0,0,0,2,8V24a2,2,0,0,0,2,2H28a2,2,0,0,0,2-2V10a2,2,0,0,0-2-2H15.12412A2,2,0,0,1,13.84376,7.53645Z" style="fill: #1e88e5"/>
  <path d="M21.99847,10C16,10,12,14,12,20A10.00131,10.00131,0,0,0,22,30c.91986.00085,1.99915,0,2-2,.00018-.43585-.56885-.78528-.9635-1.18A2.36758,2.36758,0,0,1,22,25c0-1,1-1,2-1h4c4,0,4-4,4-6C32,14,28,10,21.99847,10ZM16,20a2,2,0,1,1,2-2A2,2,0,0,1,16,20Zm6-4a2,2,0,1,1,2-2A2,2,0,0,1,22,16Zm6,4a2,2,0,1,1,2-2A2,2,0,0,1,28,20Z" style="fill: #bbdefb;fill-rule: evenodd"/>
</svg>
