<svg xmlns="http://www.w3.org/2000/svg" viewBox="0 0 16 16">
<path id="folder" fill="#1976d2" d="m6.922 3.768-.644-.536A1 1 0 0 0 5.638 3H2a1 1 0 0 0-1 1v8a1 1 0 0 0 1 1h12a1 1 0 0 0 1-1V5a1 1 0 0 0-1-1H7.562a1 1 0 0 1-.64-.232" />
<path id="motive" fill="#bbdefb" d="m 9,7 v 5 h 5 V 7 Z m 4,4 H 10 V 8 h 3 z M 7,6 H 8 V 5 A 1,1 0 0 0 7,6 M 9,5 h 1 V 6 H 9 Z m 2,0 h 1 v 1 h -1 z m 2,0 h 1 v 1 h -1 z m 2,0 v 1 h 1 A 1,1 0 0 0 15,5 m 0,2 h 1 v 1 h -1 z m 0,2 h 1 v 1 h -1 z m 0,2 h 1 v 1 h -1 z m 0,3 a 1,1 0 0 0 1,-1 h -1 z m -2,-1 h 1 v 1 h -1 z m -2,0 h 1 v 1 h -1 z m -2,0 h 1 v 1 H 9 Z M 8,14 V 13 H 7 a 1,1 0 0 0 1,1 M 7,11 h 1 v 1 H 7 Z M 7,9 h 1 v 1 H 7 Z M 7,7 H 8 V 8 H 7 Z" />
</svg>
