<svg xmlns="http://www.w3.org/2000/svg" viewBox="0 0 16 16"><path fill="#ff4081" d="M14.483 6H4.721a1 1 0 0 0-.949.684L2 12V5h12a1 1 0 0 0-1-1H7.562a1 1 0 0 1-.64-.232l-.644-.536A1 1 0 0 0 5.638 3H2a1 1 0 0 0-1 1v8a1 1 0 0 0 1 1h11l2.403-5.606A1 1 0 0 0 14.483 6"/><path fill="#f8bbd0" d="M10.5 6A4.5 4.5 0 0 0 6 10.5a4.5 4.5 0 0 0 4.5 4.5H16v-2h-5.5A2.5 2.5 0 0 1 8 10.5 2.5 2.5 0 0 1 10.5 8a2.5 2.5 0 0 1 2 1h2.242A4.5 4.5 0 0 0 10.5 6m2.45 4a2.5 2.5 0 0 1 .05.5 2.5 2.5 0 0 1-.5 1.5H16v-2h-1.027z"/></svg>