<svg viewBox="0 0 24 24" fill="none" xmlns="http://www.w3.org/2000/svg">
  <path
    d="M10 4H4C2.89 4 2 4.89 2 6V18C2 19.097 2.903 20 4 20H20C21.097 20 22 19.097 22 18V8C22 7.46957 21.7893 6.96086 21.4142 6.58579C21.0391 6.21071 20.5304 6 20 6H12L10 4Z"
    fill="#EF5350" />
  <path
    d="M12 19.0526H13.9824L13.3682 20.9074H12V19.0526ZM12 15.5263H15.15L14.5359 17.3811H12V15.5263ZM12 12H16.3178L15.7035 13.8548H12V12ZM18.2715 12H23.2V13.8548H17.6574L18.2715 12ZM17.1039 15.5263H23.2V17.3811H16.4897L17.1039 15.5263ZM15.9362 19.0526H23.2V20.9074H15.3221L15.9362 19.0526Z"
    fill="#FFCDD2" />
</svg>