<?xml version="1.0" encoding="UTF-8"?>
<svg clip-rule="evenodd" fill-rule="evenodd" stroke-linejoin="round" stroke-miterlimit="1.4142" version="1.1" viewBox="0 0 24 24" xml:space="preserve" 
    xmlns="http://www.w3.org/2000/svg">         
    <path d=" M 10.004 4 L 4.004 4 C 2.894 4 2.004 4.89 2.004 6 L 2.004 18 C 2.004 19.097 2.907 20 4.004 20 L 20.004 20 C 21.101 20 22.004 19.097 22.004 18 L 22.004 8 C 22.004 6.89 21.104 6 20.004 6 L 12.004 6 L 10.004 4 Z " fill="rgb(70,70,70)" fill-rule="nonzero" />
    <path d=" M 9.031 21.532 L 9.031 12.698 L 9.031 11.613 L 10.75 11.603 C 13.564 11.603 14.901 12.206 14.95 14.627 C 14.86 17.11 13.604 17.814 10.74 17.653 L 10.74 21.532 L 9.031 21.532 Z  M 10.73 16.286 L 10.72 12.909 Q 13.534 12.728 13.514 14.618 Q 13.494 16.507 10.73 16.286 Z " fill-rule="evenodd" fill="rgb(232,232,232)"/>
    <path d=" M 15.815 21.542 L 15.835 13.613 L 19.765 17.225 L 23.594 13.472 L 23.634 21.562 L 15.815 21.542 Z " fill="rgb(248,216,125)"/>
    <path d=" M 15.815 11.603 L 19.755 15.351 L 23.574 11.562 L 15.815 11.603 Z " fill="rgb(248,216,125)"/>
</svg>