<svg xmlns="http://www.w3.org/2000/svg" viewBox="0 0 32 32">
  <path d="M13.84376,7.53645l-1.28749-1.0729A2,2,0,0,0,11.27591,6H4A2,2,0,0,0,2,8V24a2,2,0,0,0,2,2H28a2,2,0,0,0,2-2V10a2,2,0,0,0-2-2H15.12412A2,2,0,0,1,13.84376,7.53645Z" style="fill: #42a5f5"/>
  <g>
    <path d="M21.1228,10a2.574,2.574,0,0,0-2.574,2.574h0v1.512h3.861c.351,0,.639.513.639.864h-6.426a2.574,2.574,0,0,0-2.574,2.574v3.4038A2.57192,2.57192,0,0,0,16.62046,23.5H17.6848V21.088a2.565,2.565,0,0,1,2.556-2.57393h4.734a2.565,2.565,0,0,0,2.574-2.556V12.574A2.574,2.574,0,0,0,24.97478,10h-3.852Zm-.648,1.449c.36,0,.648.1089.648.6399s-.288.801-.648.801c-.351,0-.639-.27-.639-.801s.288-.639.639-.639Z" style="fill: #0277bd;fill-rule: evenodd"/>
    <path d="M28.4119,14.5v2.412a2.565,2.565,0,0,1-2.556,2.574H21.1228a2.565,2.565,0,0,0-2.574,2.556v3.3822A2.574,2.574,0,0,0,21.121,28h3.8538a2.574,2.574,0,0,0,2.574-2.574h0v-1.5129H23.68687c-.351,0-.63808-.51211-.63808-.86311h6.426a2.574,2.574,0,0,0,2.574-2.574h0V17.0731a2.574,2.574,0,0,0-2.574-2.5731Zm-8.6751,4.06257-.0036.0036c.0108-.0027.0225-.0018.0342-.0036Zm5.886,6.54749c.351,0,.639.27.639.801a.639.639,0,0,1-.639.639c-.36,0-.648-.108-.648-.639s.288-.801.648-.801Z" style="fill: #fdd835;fill-rule: evenodd"/>
  </g>
</svg>
