<svg viewBox="0 0 24 24" fill="none" xmlns="http://www.w3.org/2000/svg">
  <path
    d="M19 20H4a2 2 0 0 1-2-2V6c0-1.11.89-2 2-2h6l2 2h7c1.097 0 2 .903 2 2H4v10l2.14-8h17.07l-2.28 8.5c-.23.87-1.01 1.5-1.93 1.5Z"
    fill="#00BFA5" />
  <path
    d="m21.715 16.536 1.191-.713h.001c.08-.05.14-.109.18-.183a.514.514 0 0 0 .056-.25v-2.625a.526.526 0 0 0-.062-.265.512.512 0 0 0-.195-.188L20.72 11.01a.444.444 0 0 0-.273-.085.567.567 0 0 0-.265.095l-1.407.85a.282.282 0 0 1-.066.016c-.028.004-.04-.001-.043-.002v-.001l-1.444-.864h-.001a.6.6 0 0 0-.278-.092.44.44 0 0 0-.28.094l-4.51 2.714a.454.454 0 0 0-.172.173.493.493 0 0 0-.055.24v5.47a.45.45 0 0 0 .238.423l4.462 2.686a.62.62 0 0 0 .326.108c.11 0 .214-.04.326-.108l4.463-2.686a.47.47 0 0 0 .172-.16.442.442 0 0 0 .056-.232v-2.46c0-.1 0-.179-.005-.243a.503.503 0 0 0-.04-.175.486.486 0 0 0-.107-.143 1.961 1.961 0 0 0-.1-.092Zm-5.173.501a.14.14 0 0 1 .061.057.21.21 0 0 1 .017.098l-.02 4.74-3.93-2.357a.215.215 0 0 1-.077-.071.202.202 0 0 1-.02-.104v-4.733l3.969 2.37Zm.793.01 1.617-.972v2.142c0 .168.048.31.16.377.115.068.26.04.403-.045l1.78-1.057.008 1.908c0 .052-.008.079-.02.097a.23.23 0 0 1-.078.068l-3.938 2.368v-4.742c0-.04.004-.068.014-.088a.12.12 0 0 1 .054-.056Zm-.46-.58-.01-.006-3.955-2.393 3.917-2.373a.18.18 0 0 1 .08-.03c.017 0 .04.004.08.03h.002l1.014.61a.471.471 0 0 0-.215.242.81.81 0 0 0-.033.381.61.61 0 0 1-.003.062.353.353 0 0 0 .005.087c.006.04 0 .066-.01.086a.175.175 0 0 1-.076.063l-.004.002-.879.527c-.123.076-.194.19-.194.313s.07.237.193.313h.001l1.682 1.015.143.086-.62.382h-.001l-.993.597-.009.006a.092.092 0 0 1-.116 0Zm3.628-4.788 1.64.984-.9.544-.001.001-.72.424a.251.251 0 0 1-.095.013.051.051 0 0 1-.01-.002l-1.643-.985.127-.078 1.499-.893a.139.139 0 0 1 .103-.008Zm1.924 3.629-1.634.976v-1.928c0-.019.005-.044.014-.066a.09.09 0 0 1 .027-.039l1.633-.99.001.021.002.648c.002.426.004.848-.002 1.271v.001a.182.182 0 0 1-.014.067.091.091 0 0 1-.027.039Zm-3.91-.678-.004-.002a.131.131 0 0 1-.056-.049.16.16 0 0 1-.018-.083v-1.231l1.635.976a.156.156 0 0 1 .06.086v1.977l-.13-.077a7.208 7.208 0 0 1-.37-.228.198.198 0 0 1-.01-.06v-.399a.447.447 0 0 0-.048-.216.398.398 0 0 0-.16-.157l-.899-.537Zm1.117 3.065V16.8a20.986 20.986 0 0 0 .244.145c.118.07.234.138.347.212l.003.001c.06.036.122.06.185.067l-.78.471Zm-1.88-3.723v.196a9.123 9.123 0 0 1-.16-.097c.055-.032.108-.065.16-.099Z"
    fill="#fff" stroke="#fff" stroke-width=".15" />
</svg>