<svg version="1.1" viewBox="0 0 32 32" xmlns="http://www.w3.org/2000/svg">
 <g>
  <path d="M28.967 12H9.442a2 2 0 0 0-1.898 1.368L4 24V10h24a2 2 0 0 0-2-2H15.124a2 2 0 0 1-1.28-.464l-1.288-1.072A2 2 0 0 0 11.276 6H4a2 2 0 0 0-2 2v16a2 2 0 0 0 2 2h22l4.805-11.212A2 2 0 0 0 28.967 12" fill="#5c6bc0"/>
  <path d="m17 10-5 9 5 9h10l5-9-5-9zm5 2.5 6 2.5v8l-6 2.5-6-2.5v-8z" fill="#c5cae9"/>
  <path d="m18 16.333v5.3333l4 1.6667 4-1.6667v-5.3333l-4-1.6667z" fill="#c5cae9" stroke-width=".66666"/>
 </g>
</svg>
