<?xml version="1.0" encoding="UTF-8"?>
<svg version="1.1" viewBox="0 0 24 24" xmlns="http://www.w3.org/2000/svg">
 <path d="M10 4H4C2.89 4 2 4.89 2 6V18C2 19.097 2.903 20 4 20H20C21.097 20 22 19.097 22 18V8C22 7.46957 21.7893 6.96086 21.4142 6.58579C21.0391 6.21071 20.5304 6 20 6H12L10 4Z" fill="#546E7A"/>
 <path d="m22.883 19.244c-0.5078 0.7587-1.0463 1.4989-1.866 1.5112-0.8199 0.0183-1.0829-0.4834-2.0129-0.4834-0.936 0-1.2236 0.4712-2.0006 0.5018-0.8014 0.0305-1.4072-0.8076-1.921-1.5479-1.0463-1.5112-1.8477-4.2949-0.7709-6.167 0.5323-0.93 1.4867-1.5173 2.5207-1.5356 0.783-0.0123 1.5295 0.5323 2.0128 0.5323 0.4772 0 1.3827-0.6547 2.331-0.5568 0.3976 0.0183 1.5112 0.1591 2.2269 1.2114-0.0551 0.0367-1.3276 0.7832-1.3154 2.331 0.0183 1.8477 1.6213 2.4656 1.6397 2.4717-0.0184 0.0428-0.257 0.881-0.8443 1.7313zm-3.4935-9.7888c0.4467-0.5078 1.1869-0.89323 1.7987-0.9177 0.0796 0.71581-0.208 1.4377-0.6363 1.9517-0.4222 0.5199-1.1196 0.9238-1.8049 0.8687-0.0918-0.7035 0.251-1.4377 0.6425-1.9027z" fill="#cfd8dc"/>
</svg>
