<svg width="22" height="18" viewBox="0 0 22 18" fill="none" xmlns="http://www.w3.org/2000/svg">
<path d="M8 0H2C0.89 0 0 0.89 0 2V14C0 15.097 0.903 16 2 16H18C19.097 16 20 15.097 20 14V4C20 3.46957 19.7893 2.96086 19.4142 2.58579C19.0391 2.21071 18.5304 2 18 2H10L8 0Z" fill="#8F9395" fill-opacity="0.3"/>
<path d="M17.7 7.65C17.7 9.37704 16.2577 10.8 14.45 10.8C12.6422 10.8 11.2 9.37704 11.2 7.65C11.2 5.92296 12.6422 4.5 14.45 4.5C16.2577 4.5 17.7 5.92296 17.7 7.65Z" stroke="#040707"/>
<ellipse cx="14.45" cy="7.7" rx="1.95" ry="1.9" fill="#F73D48"/>
<path d="M14 13.95C14 15.677 12.5578 17.1 10.75 17.1C8.94225 17.1 7.5 15.677 7.5 13.95C7.5 12.223 8.94225 10.8 10.75 10.8C12.5578 10.8 14 12.223 14 13.95Z" stroke="#040707"/>
<ellipse cx="10.75" cy="14" rx="1.95" ry="1.9" fill="#F73D48"/>
<path d="M21.4 13.95C21.4 15.677 19.9577 17.1 18.15 17.1C16.3422 17.1 14.9 15.677 14.9 13.95C14.9 12.223 16.3422 10.8 18.15 10.8C19.9577 10.8 21.4 12.223 21.4 13.95Z" stroke="#040707"/>
<ellipse cx="18.15" cy="14" rx="1.95" ry="1.9" fill="#F73D48"/>
<ellipse cx="16.25" cy="10.45" rx="0.85" ry="0.85" fill="#F73D48"/>
<ellipse cx="12.85" cy="10.35" rx="0.850002" ry="0.85" fill="#F73D48"/>
<ellipse cx="12.35" cy="11.35" rx="0.85" ry="0.85" fill="#F73D48"/>
<ellipse cx="13.95" cy="13.95" rx="0.85" ry="0.85" fill="#F73D48"/>
<ellipse cx="16.55" cy="11.35" rx="0.850004" ry="0.85" fill="#F73D48"/>
<ellipse cx="14.85" cy="13.95" rx="0.849996" ry="0.85" fill="#F73D48"/>
</svg>
