<svg xmlns="http://www.w3.org/2000/svg" viewBox="0 0 32 32">
  <path d="M13.84376,7.53645l-1.28749-1.0729A2,2,0,0,0,11.27591,6H4A2,2,0,0,0,2,8V24a2,2,0,0,0,2,2H28a2,2,0,0,0,2-2V10a2,2,0,0,0-2-2H15.12412A2,2,0,0,1,13.84376,7.53645Z" style="fill: #ff5722"/>
  <g>
    <rect x="14" y="24" width="12" height="4" rx="2" style="fill: #ffccbc"/>
    <rect x="20" y="18" width="12" height="4" rx="2" style="fill: #ffccbc"/>
    <rect x="14" y="12" width="12" height="4" rx="2" style="fill: #ffccbc"/>
    <circle cx="30" cy="26" r="2" style="fill: #ffccbc"/>
    <circle cx="16" cy="20" r="2" style="fill: #ffccbc"/>
    <circle cx="30" cy="14" r="2" style="fill: #ffccbc"/>
  </g>
</svg>
