<svg xmlns="http://www.w3.org/2000/svg" viewBox="0 0 16 16">
<path id="folder" fill="#ff5252" d="M14.483 6H4.721a1 1 0 0 0-.949.684L2 12V5h12a1 1 0 0 0-1-1H7.562a1 1 0 0 1-.64-.232l-.644-.536A1 1 0 0 0 5.638 3H2a1 1 0 0 0-1 1v8a1 1 0 0 0 1 1h11l2.403-5.606A1 1 0 0 0 14.483 6" />
<path id="motive" fill="#ffcdd2" d="M 7,6 A 1,1 0 0 0 6,7 v 5 a 1,1 0 0 0 1,1 h 4 V 12 H 8 V 7 h 6 v 1 h 2 V 7 A 1,1 0 0 0 15,6 Z m 5.5,3 A 0.5,0.5 0 0 0 12,9.5 v 4 a 0.5,0.5 0 0 0 0.5,0.5 h 3 A 0.5,0.5 0 0 0 16,13.5 v -4 A 0.5,0.5 0 0 0 15.5,9 Z m 0.5,1 h 2 v 3 h -2 z" />
</svg>
