<svg xmlns="http://www.w3.org/2000/svg" viewBox="0 0 32 32"><path fill="#448aff" d="M28.967 12H9.442a2 2 0 0 0-1.898 1.368L4 24V10h24a2 2 0 0 0-2-2H15.124a2 2 0 0 1-1.28-.464l-1.288-1.072A2 2 0 0 0 11.276 6H4a2 2 0 0 0-2 2v16a2 2 0 0 0 2 2h22l4.805-11.212A2 2 0 0 0 28.967 12Z"/><path fill="#bbdefb" d="M22.069 10.463a.552.552 0 0 0-.116.003.589.589 0 0 0-.517.635v.16a3.568 3.568 0 0 0 .08.543 5.2 5.2 0 0 1 .065 1.018.597.597 0 0 1-.186.305l-.013.238a6.688 6.688 0 0 0-1.031.157 7.273 7.273 0 0 0-3.706 2.117l-.196-.145a.519.519 0 0 1-.346-.039 5.383 5.383 0 0 1-.765-.69 5.253 5.253 0 0 0-.372-.395l-.12-.093a.747.747 0 0 0-.397-.158.598.598 0 0 0-.463.197.612.612 0 0 0 .148.834l.013.013c.026.027.079.067.106.093a4.408 4.408 0 0 0 .475.277 5.43 5.43 0 0 1 .848.597.579.579 0 0 1 .106.33l.183.158a7.219 7.219 0 0 0-1.137 5.121l-.25.065a.772.772 0 0 1-.254.253 4.412 4.412 0 0 1-1.018.158 1.935 1.935 0 0 0-.543.051l-.144.029h-.013v.013c-.04 0-.08.013-.106.013a.57.57 0 1 0 .339 1.086l.004-.001a1.114 1.114 0 0 0 .174-.041 2.688 2.688 0 0 0 .488-.197 6.858 6.858 0 0 1 1.018-.292.515.515 0 0 1 .305.119l.263-.039a7.425 7.425 0 0 0 3.27 4.088l-.094.238a.715.715 0 0 1 .042.33 4.15 4.15 0 0 1-.517.913c-.106.159-.199.304-.318.462a.171.171 0 0 1-.052.148c-.013.04-.04.066-.054.106a.57.57 0 0 0 1.072.382c.027-.04.051-.132.078-.132a4.752 4.752 0 0 0 .16-.53 5.023 5.023 0 0 1 .437-1.017.445.445 0 0 1 .25-.12l.132-.237a7.408 7.408 0 0 0 5.254.013l.105.212a.49.49 0 0 1 .277.183 6.042 6.042 0 0 1 .398.954c.04.172.094.344.16.542.027 0 .051.08.078.12.013.039.028.065.041.105a.568.568 0 0 0 .984-.569l-.007-.012a1.105 1.105 0 0 1-.052-.16c-.106-.146-.212-.305-.318-.45a7.438 7.438 0 0 1-.501-.9.444.444 0 0 1 .039-.343 1.145 1.145 0 0 1-.093-.225 7.435 7.435 0 0 0 3.268-4.113c.08.013.158.025.251.038a.329.329 0 0 1 .305-.106 4.656 4.656 0 0 1 1.018.28 2.558 2.558 0 0 0 .475.196.688.688 0 0 0 .187.028v.013c0 .013.053.013.093.026a.585.585 0 0 0 .635-.491.57.57 0 0 0-.483-.645l-.008-.001a.337.337 0 0 1-.157-.067h-.543a6.566 6.566 0 0 1-1.018-.186.552.552 0 0 1-.253-.238l-.251-.064a7.201 7.201 0 0 0-1.165-5.109l.211-.184a.407.407 0 0 1 .106-.317 4.87 4.87 0 0 1 .848-.597 3.288 3.288 0 0 0 .462-.277.933.933 0 0 0 .12-.093c.039-.026.08-.053.08-.08a.556.556 0 0 0-.78-.793c-.04 0-.093.054-.133.08a10.37 10.37 0 0 0-.372.395 4.763 4.763 0 0 1-.767.69.511.511 0 0 1-.344.039l-.212.158a7.37 7.37 0 0 0-4.708-2.274l-.013-.253a.448.448 0 0 1-.186-.29 5.212 5.212 0 0 1 .065-1.018 3.576 3.576 0 0 0 .08-.543v-.292a.572.572 0 0 0-.504-.506Zm-.778 4.408-.16 2.977h-.013a.515.515 0 0 1-.106.28.502.502 0 0 1-.687.118h-.013l-2.434-1.734a5.752 5.752 0 0 1 2.803-1.535c.212-.04.412-.08.61-.106Zm1.427 0a5.89 5.89 0 0 1 3.4 1.641l-2.421 1.734h-.013a.61.61 0 0 1-.277.067.494.494 0 0 1-.516-.47v-.008Zm-5.727 2.713 2.223 2.024v.013a.337.337 0 0 1 .144.253.483.483 0 0 1-.323.602l-.02.005v.013l-2.858.822a5.905 5.905 0 0 1 .834-3.732Zm10.013.04a6.178 6.178 0 0 1 .86 3.679l-2.87-.822-.013-.013a.473.473 0 0 1-.238-.157.492.492 0 0 1 .042-.694l.01-.01-.013-.038Zm-5.462 2.144h.912l.568.7-.199.886-.819.398-.819-.398-.212-.886Zm-2.132 2.447h.106a.55.55 0 0 1 .504.382.482.482 0 0 1-.052.28v.038l-1.127 2.74a5.843 5.843 0 0 1-2.366-2.952Zm4.87 0h.319l2.948.475a5.85 5.85 0 0 1-2.367 2.977l-1.14-2.79a.531.531 0 0 1 .24-.662Zm-2.327 1.199a.506.506 0 0 1 .488.256h.013l1.442 2.607a4.551 4.551 0 0 1-.569.157 5.9 5.9 0 0 1-3.214-.157l1.442-2.607h.012c.04-.093.107-.133.2-.2a.471.471 0 0 1 .186-.056Z"/></svg>