<svg xmlns="http://www.w3.org/2000/svg" viewBox="0 0 32 32"><path d="M28.967 12H9.442a2 2 0 0 0-1.898 1.368L4 24V10h24a2 2 0 0 0-2-2H15.124a2 2 0 0 1-1.28-.464l-1.288-1.072A2 2 0 0 0 11.276 6H4a2 2 0 0 0-2 2v16a2 2 0 0 0 2 2h22l4.805-11.212A2 2 0 0 0 28.967 12" fill="#E91E63"/><g fill="#F8BBD0"><ellipse cx="24" cy="14" rx="8" ry="4"/><path d="M24 26c-4 0-8-2-8-4v4c0 2 4 4 8 4s8-2 8-4v-4c0 2-4 4-8 4"/><path d="M28.967 12H9.442a2 2 0 0 0-1.898 1.368L4 24V10h24a2 2 0 0 0-2-2H15.124a2 2 0 0 1-1.28-.464l-1.288-1.072A2 2 0 0 0 11.276 6H4a2 2 0 0 0-2 2v16a2 2 0 0 0 2 2h22l4.805-11.212A2 2 0 0 0 28.967 12" fill="#e91e63"/><g fill="#f8bbd0"><ellipse cx="24" cy="14" rx="8" ry="4"/><path d="M24 26c-4 0-8-2-8-4v4c0 2 4 4 8 4s8-2 8-4v-4c0 2-4 4-8 4"/><path d="M24 20c-4 0-8-2-8-4v4c0 2 4 4 8 4s8-2 8-4v-4c0 2-4 4-8 4"/><path d="m16 13 6 6-6 6" stroke="#e91e63" stroke-width="1.414"/><path d="M12 18h6v2h-6z"/><path d="M16 24h2l-2 2z" fill="#e91e63"/></g></svg>