<?xml version="1.0" encoding="UTF-8" standalone="no"?>
<!DOCTYPE svg PUBLIC "-//W3C//DTD SVG 1.1//EN" "http://www.w3.org/Graphics/SVG/1.1/DTD/svg11.dtd">
<svg width="100%" height="100%" viewBox="0 0 24 24" version="1.1" xmlns="http://www.w3.org/2000/svg" xmlns:xlink="http://www.w3.org/1999/xlink" xml:space="preserve" style="fill-rule:evenodd;clip-rule:evenodd;">
    <path id="path2" d="M19,20L4,20C2.89,20 2,19.1 2,18L2,6C2,4.89 2.89,4 4,4L10,4L12,6L19,6C20.097,6 21,6.903 21,8L4,8L4,18L6.14,10L23.21,10L20.93,18.5C20.7,19.37 19.92,20 19,20Z" style="fill:rgb(248,187,208);fill-rule:nonzero;"/>
    <g id="path4" transform="matrix(0.041856,0,0,0.041856,5.18143,-1.16903)">
        <path d="M434.3,278.93C425,242.44 364.5,230.45 307.24,250.79C273.16,262.9 236.28,281.9 209.75,306.71C178.21,336.21 173.18,361.88 175.26,372.61C182.57,410.46 234.44,435.21 255.76,453.56L255.76,453.67C249.47,456.76 203.46,480.05 192.69,503.86C181.33,528.98 194.5,547 203.22,549.43C230.24,556.95 257.96,543.43 272.87,521.2C287.25,499.75 286.05,472.06 279.8,458.28C288.42,456.01 298.47,454.99 311.24,456.48C347.28,460.69 354.35,483.19 353,492.61C351.65,502.03 344.09,507.21 341.56,508.77C339.03,510.33 338.26,510.88 338.47,512.04C338.78,513.73 339.95,513.67 342.1,513.3C345.07,512.8 361.02,505.64 361.71,488.26C362.58,466.19 341.43,441.5 303.98,442.15C288.56,442.42 278.86,443.88 271.85,446.49C271.33,445.9 270.81,445.31 270.26,444.73C247.11,420.03 204.31,402.56 206.12,369.35C206.78,357.28 210.98,325.49 288.36,286.93C351.75,255.34 402.5,264.04 411.27,283.3C423.8,310.82 384.15,361.97 318.32,369.35C293.24,372.16 280.03,362.44 276.75,358.82C273.29,355.01 272.78,354.84 271.48,355.55C269.38,356.72 270.71,360.08 271.48,362.09C273.45,367.21 281.51,376.28 295.26,380.79C307.36,384.76 336.8,386.94 372.42,373.17C412.3,357.72 443.45,314.8 434.3,278.93L434.3,278.93ZM264.61,464.87C267.6,475.93 267.27,486.24 264.18,495.57C263.84,496.61 263.46,497.63 263.05,498.65C262.64,499.66 262.2,500.66 261.72,501.65C259.34,506.59 256.14,511.21 252.23,515.48C240.29,528.5 223.62,533.43 216.47,529.28C208.75,524.8 212.62,506.44 226.45,491.82C241.34,476.08 262.76,465.96 262.76,465.96L262.73,465.9C263.35,465.56 263.97,465.22 264.61,464.87Z" style="fill:rgb(236,64,122);fill-rule:nonzero;stroke:rgb(236,64,122);stroke-width:12.42px;"/>
    </g>
</svg>
