<?xml version="1.0" encoding="UTF-8" standalone="no"?>
<svg
   clip-rule="evenodd"
   fill-rule="evenodd"
   stroke-linejoin="round"
   stroke-miterlimit="1.414"
   viewBox="0 0 24 24"
   version="1.1"
   id="svg2"
   sodipodi:docname="folder-apple.svg"
   inkscape:version="1.3 (0e150ed, 2023-07-21)"
   xmlns:inkscape="http://www.inkscape.org/namespaces/inkscape"
   xmlns:sodipodi="http://sodipodi.sourceforge.net/DTD/sodipodi-0.dtd"
   xmlns="http://www.w3.org/2000/svg"
   xmlns:svg="http://www.w3.org/2000/svg">
  <defs
     id="defs2" />
  <sodipodi:namedview
     id="namedview2"
     pagecolor="#ffffff"
     bordercolor="#000000"
     borderopacity="0.25"
     inkscape:showpageshadow="2"
     inkscape:pageopacity="0.0"
     inkscape:pagecheckerboard="0"
     inkscape:deskcolor="#d1d1d1"
     inkscape:zoom="36.041667"
     inkscape:cx="12"
     inkscape:cy="12.013873"
     inkscape:window-width="1440"
     inkscape:window-height="1567"
     inkscape:window-x="1800"
     inkscape:window-y="25"
     inkscape:window-maximized="0"
     inkscape:current-layer="svg2" />
  <path
     d="M10 4H4c-1.11 0-2 .89-2 2v12c0 1.097.903 2 2 2h16c1.097 0 2-.903 2-2V8a2 2 0 0 0-2-2h-8l-2-2z"
     fill="#FFB300"
     fill-rule="nonzero"
     style="fill:#546e7a;fill-opacity:1"
     id="path1" />
  <path
     d="m 17.632392,11.330644 q 0.378024,0 1.234879,-0.294018 0.856855,-0.294019 1.486895,-0.294019 1.033266,0 1.839718,0.554435 0.453629,0.319221 0.898857,0.865256 -0.672043,0.571236 -0.982863,1.016464 -0.562836,0.806452 -0.562836,1.780914 0,1.066869 0.596439,1.923723 0.596438,0.856855 1.360887,1.08367 -0.319221,1.033266 -1.058468,2.158938 -1.117271,1.688508 -2.217742,1.688508 -0.436828,0 -1.209677,-0.277218 -0.764449,-0.277218 -1.293683,-0.277218 -0.529234,0 -1.234879,0.285618 -0.697244,0.294019 -1.134072,0.294019 -1.318885,0 -2.587366,-2.234543 Q 11.5,17.395832 11.5,15.270496 q 0,-1.974126 0.966062,-3.217405 0.974462,-1.24328 2.452957,-1.24328 0.63004,0 1.520497,0.260417 0.898857,0.260416 1.192876,0.260416 z M 20.26176,7.8612225 q 0,0.5376344 -0.252016,1.1760752 -0.252016,0.6384408 -0.798051,1.1844753 -0.47043,0.46203 -0.932459,0.62164 -0.294019,0.09241 -0.890457,0.142809 0.0168,-1.2768813 0.663642,-2.2093409 0.655242,-0.9324596 2.158938,-1.2768817 0.0336,0.109207 0.042,0.1932124 0.0084,0.084005 0.0084,0.1680107 z"
     id="text2"
     style="font-size:17.2043px;fill:#cfd8dc;stroke-width:1.4337"
     aria-label="" />
</svg>
