<svg xmlns="http://www.w3.org/2000/svg" viewBox="0 0 16 16">
<path fill="#757575" d="m6.922 3.768-.644-.536A1 1 0 0 0 5.638 3H2a1 1 0 0 0-1 1v8a1 1 0 0 0 1 1h12a1 1 0 0 0 1-1V5a1 1 0 0 0-1-1H7.562a1 1 0 0 1-.64-.232" id="folder"/>
<g data-mit-no-recolor="true" id="motive"><path fill="#e53935" d="m15.675 8.8515-0.011-0.0315-1.1695-3.0485a0.3 0.3 0 0 0-0.12-0.1455 0.3085 0.3085 0 0 0-0.464 0.1765l-0.7885 2.4155h-3.195l-0.79-2.415a0.31 0.31 0 0 0-0.463-0.177 0.3 0.3 0 0 0-0.12 0.145l-1.1685 3.05-0.012 0.03a2.17 2.17 0 0 0 0.72 2.5085l0.0045 0.003 0.01 0.0075 1.778 1.3335 0.882 0.6665 0.536 0.405a0.362 0.362 0 0 0 0.4365 0l0.536-0.4055 0.882-0.667 1.7915-1.34 0.005-0.004a2.17 2.17 0 0 0 0.72-2.507"/><path fill="#ef6c00" d="m15.675 8.8515-0.011-0.0315a3.95 3.95 0 0 0-1.5715 0.7065l-2.5665 1.9415 1.634 1.235 1.7905-1.34 0.0055-0.0045a2.17 2.17 0 0 0 0.72-2.507Z"/><path fill="#f9a825" d="m9.886 12.7025 0.882 0.667 0.536 0.405a0.362 0.362 0 0 0 0.4365 0l0.536-0.405 0.883-0.667-1.635-1.2345Z"/><path fill="#ef6c00" d="M8.956 9.5265a3.95 3.95 0 0 0-1.5705-0.706l-0.012 0.031a2.17 2.17 0 0 0 0.72 2.508l0.0045 0.003 0.01 0.008 1.778 1.333 1.635-1.2355Z"/></g>
</svg>
