<svg clip-rule="evenodd" fill-rule="evenodd" stroke-linejoin="round" stroke-miterlimit="1.414" viewBox="0 0 24 24" xml:space="preserve" xmlns="http://www.w3.org/2000/svg"><path d="M10 4H4c-1.11 0-2 .89-2 2v12c0 1.097.903 2 2 2h16c1.097 0 2-.903 2-2V8a2 2 0 0 0-2-2h-8l-2-2z" fill-rule="nonzero" style="fill:#009688"/><path style="fill:#80eec0;fill-opacity:1;stroke-width:.130435" d="M13.984 10.705c-.367 0-.735.182-.945.543l-4.58 7.875c-.42.723.105 1.627.945 1.627h3.577a1.049 1.049 0 0 1-.221-1.324l3.469-5.945-1.3-2.233a1.084 1.084 0 0 0-.945-.543Zm4.631 1.826a.9.9 0 0 0-.783.444l-3.79 6.445c-.349.591.087 1.33.782 1.33h7.582c.696 0 1.13-.739.782-1.33l-3.791-6.445a.896.896 0 0 0-.782-.444z"/></svg>