<svg xmlns="http://www.w3.org/2000/svg" viewBox="0 0 32 32">
  <path d="M13.84376,7.53645l-1.28749-1.0729A2,2,0,0,0,11.27591,6H4A2,2,0,0,0,2,8V24a2,2,0,0,0,2,2H28a2,2,0,0,0,2-2V10a2,2,0,0,0-2-2H15.12412A2,2,0,0,1,13.84376,7.53645Z" style="fill: #ff5252"/>
  <g>
    <path d="M10.5,26H12V20H10.5a.5.5,0,0,0-.5.5v5A.5.5,0,0,0,10.5,26Z" style="fill: #ffcdd2;fill-rule: evenodd"/>
    <path d="M30,20v6h1.5a.5.5,0,0,0,.5-.5v-5a.5.5,0,0,0-.5-.5Z" style="fill: #ffcdd2;fill-rule: evenodd"/>
    <path d="M21.5,12h-1a.5.5,0,0,0-.5.5V16H14.5a.5.5,0,0,0-.5.5v11a.5.5,0,0,0,.5.5h13a.5.5,0,0,0,.5-.5v-11a.5.5,0,0,0-.5-.5H22V12.5A.5.5,0,0,0,21.5,12ZM18,18a2,2,0,1,1-2,2A2,2,0,0,1,18,18Zm8,8H16V24H26Zm-2-8a2,2,0,1,1-2,2A2,2,0,0,1,24,18Z" style="fill: #ffcdd2;fill-rule: evenodd"/>
  </g>
</svg>
