<?xml version="1.0" encoding="UTF-8" standalone="no"?>
<!DOCTYPE svg PUBLIC "-//W3C//DTD SVG 1.1//EN" "http://www.w3.org/Graphics/SVG/1.1/DTD/svg11.dtd">
<svg width="100%" height="100%" viewBox="0 0 24 24" version="1.1" xmlns="http://www.w3.org/2000/svg" xmlns:xlink="http://www.w3.org/1999/xlink" xml:space="preserve" xmlns:serif="http://www.serif.com/" style="fill-rule:evenodd;clip-rule:evenodd;stroke-linejoin:round;stroke-miterlimit:2;">
    <g>
        <path d="M19,20L4,20C2.89,20 2,19.1 2,18L2,6C2,4.89 2.89,4 4,4L10,4L12,6L19,6C20.097,6 21,6.903 21,8L4,8L4,18L6.14,10L23.21,10L20.93,18.5C20.7,19.37 19.92,20 19,20Z" style="fill:rgb(0,191,165);fill-rule:nonzero;"/>
        <path d="M23.465,15.912C22.272,15.912 21.295,16.889 21.295,18.082L21.295,19.167C21.295,20.36 20.319,21.337 19.125,21.337L16.956,21.337L16.956,19.167L19.125,19.167L19.125,16.997C19.125,15.804 20.102,14.827 21.295,14.827C20.102,14.827 19.125,13.851 19.125,12.657L19.125,10.488L16.956,10.488L16.956,8.318L19.125,8.318C20.319,8.318 21.295,9.294 21.295,10.488L21.295,11.572C21.295,12.766 22.272,13.742 23.465,13.742L23.465,15.912ZM8.276,15.912C9.47,15.912 10.446,16.889 10.446,18.082L10.446,19.167C10.446,20.36 11.423,21.337 12.616,21.337L14.786,21.337L14.786,19.167L12.616,19.167L12.616,16.997C12.616,15.804 11.64,14.827 10.446,14.827C11.64,14.827 12.616,13.851 12.616,12.657L12.616,10.488L14.786,10.488L14.786,8.318L12.616,8.318C11.423,8.318 10.446,9.294 10.446,10.488L10.446,11.572C10.446,12.766 9.47,13.742 8.276,13.742L8.276,15.912Z" style="fill:rgb(230,255,252);"/>
    </g>
</svg>
