<svg viewBox="0 0 32 32" xmlns="http://www.w3.org/2000/svg" xmlns:svg="http://www.w3.org/2000/svg"><path fill="#ff6e40" d="m13.844 7.536-1.288-1.072A2 2 0 0 0 11.276 6H4a2 2 0 0 0-2 2v16a2 2 0 0 0 2 2h24a2 2 0 0 0 2-2V10a2 2 0 0 0-2-2H15.124a2 2 0 0 1-1.28-.464" id="path1" /><g id="g2" transform="matrix(0.10598584,0,0,0.10598584,9.6652964,5.7662269)"><g id="SVGRepo_bgCarrier" stroke-width="0" /><g id="SVGRepo_tracerCarrier" stroke-linecap="round" stroke-linejoin="round" /><g id="SVGRepo_iconCarrier"><g id="g22"><g transform="translate(50.181225,45.198924)" id="g21"><path d="M 124.01845,36.985334 70.012182,90.9916 54.782927,75.762345 C 107.89335,22.651917 113.14041,27.259087 124.01845,36.985334 Z" fill="#ffccbc" id="path2-4" style="display:inline" /><path d="m 70.012182,92.271369 c -0.383931,0 -0.639885,-0.127977 -0.895839,-0.38393 L 53.759111,76.658183 c -0.511907,-0.511907 -0.511907,-1.279769 0,-1.791677 54.006269,-54.006266 59.637249,-48.887188 71.027199,-38.649034 0.25595,0.255954 0.38393,0.511908 0.38393,0.895839 0,0.383931 -0.12798,0.639884 -0.38393,0.895838 l -54.006266,53.87829 c -0.127977,0.255953 -0.511908,0.38393 -0.767862,0.38393 z M 56.574604,75.762345 70.012182,89.199923 122.09879,37.113311 C 112.6285,28.666833 106.22965,26.107294 56.574604,75.762345 Z" fill="#ffccbc" id="path3" /><path d="M 85.497391,106.47681 70.780044,91.759462 124.78631,37.753195 C 139.2477,52.342566 117.6196,76.018299 85.497391,106.47681 Z" fill="#ffccbc" id="path4" style="display:inline" /><path d="m 85.497391,107.75658 c -0.383931,0 -0.639885,-0.12798 -0.895839,-0.38393 L 69.884205,92.6553 c -0.255954,-0.255954 -0.255954,-0.511908 -0.255954,-0.895838 0,-0.383931 0.127977,-0.639885 0.383931,-0.895839 L 124.01845,36.857357 c 0.51191,-0.511908 1.27977,-0.511908 1.79168,0 3.32739,3.071446 5.11907,7.422662 4.9911,11.901855 -0.25596,14.20544 -16.38105,32.250187 -44.280023,58.613438 -0.383931,0.25595 -0.767862,0.38393 -1.023816,0.38393 z M 72.571721,91.759462 c 8.190523,8.318498 11.645901,11.645898 12.92567,12.925668 21.500129,-20.476308 42.360369,-41.464525 42.488339,-55.925918 0.12798,-3.3274 -1.15179,-6.654801 -3.3274,-9.214339 z" fill="#ffccbc" id="path5" style="display:inline" /><path d="M 55.038881,76.146276 65.91692,87.024315 c 0.255954,0.255954 0.255954,0.511908 0,0.767862 -0.127977,0.127977 -0.127977,0.127977 -0.255954,0.127977 l -22.52394,4.863123 c -1.151793,0.127977 -2.175608,-0.639885 -2.431562,-1.791677 -0.127977,-0.639885 0.127977,-1.279769 0.511908,-1.6637 L 54.271019,76.274253 c 0.255954,-0.255954 0.639885,-0.383931 0.767862,-0.127977 z" fill="#ffccbc" id="path6" /><path d="m 42.753095,94.063046 c -1.919654,0 -3.3274,-1.535723 -3.3274,-3.455377 0,-0.895838 0.383931,-1.791677 1.023815,-2.431562 L 53.503158,75.12246 c 0.767861,-0.639885 1.791677,-0.639885 2.559538,0 l 10.87804,10.87804 c 0.767861,0.639884 0.767861,1.791677 0,2.559538 -0.255954,0.255954 -0.511908,0.383931 -0.895839,0.511908 l -22.52394,4.863123 c -0.255954,0 -0.511908,0.127977 -0.767862,0.127977 z M 54.65495,77.554022 42.11321,90.095761 c -0.255953,0.255954 -0.38393,0.639885 -0.127977,1.023816 0.127977,0.383931 0.511908,0.511908 0.895839,0.383931 l 21.116194,-4.60717 z" fill="#ffccbc" id="path7" /><path d="m 152.5573,7.0387314 c -8.19052,-7.93456994 -21.37214,-7.67861607 -29.30671,0.6398846 -7.93457,8.318501 -7.67862,21.372148 0.63988,29.306718 6.78278,6.526823 17.02093,7.678616 25.08348,2.815492 l -14.58937,-14.58937 z" fill="#ffccbc" id="path8" /><path d="m 138.22389,44.024065 c -12.15781,0 -22.01203,-9.854224 -22.01203,-22.012032 C 116.21186,9.8542239 126.06608,0 138.22389,0 c 5.63098,0 11.13399,2.1756079 15.22925,6.1428928 0.25596,0.2559539 0.38393,0.5119078 0.38393,0.8958386 0,0.3839308 -0.12797,0.6398846 -0.38393,0.8958385 l -17.27688,17.2768861 13.56555,13.565555 c 0.51191,0.511908 0.51191,1.279769 0,1.791677 -0.12798,0.127977 -0.12798,0.127977 -0.25595,0.255954 -3.3274,2.047631 -7.29469,3.199423 -11.26197,3.199423 z m 0,-41.3365494 c -10.75006,0 -19.4525,8.7024314 -19.32452,19.4524944 0,10.750062 8.70243,19.452493 19.45249,19.324517 2.94347,0 5.88694,-0.639885 8.57446,-2.047631 L 133.48874,26.107294 c -0.25595,-0.255953 -0.38393,-0.511907 -0.38393,-0.895838 0,-0.383931 0.12798,-0.639885 0.38393,-0.895839 L 150.63765,7.1667083 C 147.18227,4.2232388 142.83106,2.6875156 138.22389,2.6875156 Z" fill="#ffccbc" id="path9" /><path d="m 152.94123,7.4226622 -0.25595,-0.2559539 -18.3007,18.0447477 14.46139,14.461393 c 1.40775,-0.895838 2.8155,-1.919654 3.96729,-3.071446 8.19052,-8.062547 8.19052,-21.116194 0.12797,-29.1787408 z" fill="#ffccbc" id="path10" /><path d="m 148.97395,41.080596 c -0.38393,0 -0.63988,-0.127977 -0.89584,-0.383931 L 133.48874,26.107294 c -0.25595,-0.255953 -0.38393,-0.511907 -0.38393,-0.895838 0,-0.383931 0.12798,-0.639885 0.38393,-0.895839 L 151.66147,6.1428928 c 0.5119,-0.5119077 1.27976,-0.5119077 1.79167,0 l 0.38393,0.2559539 c 8.57446,8.5744543 8.57446,22.3959633 0.12798,31.0983953 -1.27977,1.279769 -2.68752,2.431561 -4.22324,3.3274 -0.38393,0.127977 -0.63988,0.255954 -0.76786,0.255954 z m -12.79769,-15.86914 12.92567,12.92567 c 1.02381,-0.639884 2.04763,-1.535723 2.81549,-2.303584 7.29468,-7.294686 7.67862,-19.196541 0.63988,-26.8751566 z" fill="#ffccbc" id="path11" /><path d="m 126.19406,39.288919 c -3.07145,-3.071447 -8.06255,-3.071447 -11.134,0 L 66.812759,87.536223 74.875305,95.59877 125.9381,50.806843 c 3.3274,-2.815493 3.58336,-7.806593 0.76786,-11.133994 -0.25595,-0.127976 -0.38393,-0.255953 -0.5119,-0.38393 z" fill="#ffccbc" id="path12" /><path d="m 74.747329,96.878539 c -0.383931,0 -0.639885,-0.127977 -0.895839,-0.383931 l -8.062547,-8.062547 c -0.511908,-0.511907 -0.511908,-1.279769 0,-1.791677 L 114.03625,38.39308 c 3.58335,-3.583354 9.34231,-3.583354 12.92567,0 3.58335,3.583354 3.58335,9.342316 0,12.92567 -0.12798,0.127977 -0.25596,0.255954 -0.38393,0.383931 l -51.0628,44.791927 c -0.127977,0.255954 -0.383931,0.383931 -0.767861,0.383931 z m -6.142893,-9.342316 6.270869,6.270869 50.166955,-44.024065 c 2.8155,-2.303585 3.07145,-6.526823 0.76787,-9.342316 -2.30359,-2.815492 -6.52683,-3.071446 -9.34232,-0.767862 -0.12798,0.127977 -0.25595,0.255954 -0.51191,0.383931 z" fill="#ffccbc" id="path13" /><path d="m 29.827425,142.43833 c -0.511908,0.25595 -0.767862,0.76786 -0.639885,1.27977 l 2.175608,9.21434 c 0.511908,1.27976 -0.255954,2.81549 -1.6637,3.19942 -1.023816,0.38393 -2.175608,0 -2.815493,-0.76786 l -14.077462,-13.94949 45.943719,-45.943717 15.86914,0.255954 10.750062,10.750063 c -2.559539,2.17561 -18.044748,17.14891 -55.541989,35.96152 z" fill="#ffccbc" id="path14" /><path d="m 28.803609,157.41163 c -1.023815,0 -2.047631,-0.38393 -2.687515,-1.15179 L 12.166608,142.31035 c -0.255954,-0.25595 -0.383931,-0.51191 -0.383931,-0.89584 0,-0.38393 0.127977,-0.63988 0.383931,-0.89584 L 58.110327,94.574954 c 0.255954,-0.255954 0.639885,-0.383931 0.895839,-0.383931 l 15.869139,0.255954 c 0.383931,0 0.639885,0.127977 0.895839,0.383931 l 10.750063,10.750062 c 0.255953,0.25595 0.38393,0.63989 0.38393,1.02382 0,0.38393 -0.127977,0.63988 -0.511907,0.89583 l -0.895839,0.76787 C 71.931836,120.17034 53.503158,132.0722 30.595286,143.46214 l 2.175608,9.08636 c 0.383931,1.6637 -0.383931,3.45538 -1.919654,4.35122 -0.767861,0.38393 -1.407746,0.51191 -2.047631,0.51191 z m -14.077462,-15.99712 13.181624,13.05365 c 0.383931,0.63988 1.151792,0.89584 1.791677,0.51191 0.639884,-0.38393 0.895838,-1.1518 0.511908,-1.79168 l -2.175608,-9.21434 c -0.255954,-1.15179 0.255954,-2.17561 1.279769,-2.68752 22.651917,-11.38994 40.952619,-23.16382 54.390197,-34.80972 L 74.235421,97.006516 59.518073,96.750562 Z" fill="#ffccbc" id="path15" style="display:inline" /><path d="M 1.9284532,152.42053 12.93447,141.41451 29.315517,157.79556 3.2082225,156.00388 c -1.1517924,-0.12798 -1.919654,-1.15179 -1.791677,-2.30358 0,-0.51191 0.1279769,-1.02382 0.5119077,-1.27977 z" fill="#ffccbc" id="path16" /><path d="M 29.315517,158.94735 3.0802456,157.15567 c -1.919654,-0.12797 -3.19942334,-1.79167 -3.07144641,-3.71133 0.12797693,-0.76786 0.3839308,-1.53572 1.02381551,-2.04763 L 12.038631,140.3907 c 0.511908,-0.51191 1.279769,-0.51191 1.791677,0 l 16.381048,16.38104 c 0.38393,0.38393 0.511907,0.89584 0.255953,1.40775 -0.255953,0.51191 -0.639884,0.76786 -1.151792,0.76786 z M 12.93447,143.20619 2.8242917,153.31637 c -0.3839308,0.25595 -0.3839308,0.89583 0,1.15179 0.127977,0.12798 0.2559539,0.25595 0.5119078,0.25595 l 22.6519175,1.53573 z" fill="#ffccbc" id="path17" /><path d="m 54.271019,101.35773 c -0.767861,0 -1.279769,-0.63988 -1.279769,-1.27977 0,-0.383929 0.127977,-0.639882 0.383931,-0.895836 L 65.788943,86.768361 c 0.511908,-0.511908 1.27977,-0.511908 1.791677,0 l 8.062547,8.062547 c 0.383931,0.383931 0.511908,0.767862 0.383931,1.279769 -0.127977,0.383931 -0.511908,0.767862 -1.023816,0.895839 l -20.476309,4.351214 c -0.127977,0 -0.255954,0 -0.255954,0 z m 12.413763,-11.901853 -8.446478,8.446477 13.821509,-2.943469 z" fill="#ffccbc" id="path18" /><path d="m 74.619352,95.726747 -14.077463,3.071446 c -1.023816,0.255954 -2.047631,-0.383931 -2.303585,-1.407746 -0.127977,-0.639885 0,-1.27977 0.511908,-1.791677 l 7.806593,-7.806593 z" fill="#ffccbc" id="path19" /><path d="m 60.285935,100.07796 c -1.791677,0 -3.199423,-1.407744 -3.199423,-3.199421 0,-0.895839 0.38393,-1.6637 0.895838,-2.303585 l 7.806593,-7.806593 c 0.511908,-0.511908 1.27977,-0.511908 1.791677,0 l 8.062547,8.062547 c 0.383931,0.383931 0.511908,0.767862 0.383931,1.279769 -0.127977,0.383931 -0.511908,0.767862 -1.023816,0.895839 L 60.92582,100.07796 c -0.255954,0 -0.511908,0 -0.639885,0 z m 6.398847,-10.622083 -6.910755,6.910754 c -0.255954,0.255954 -0.255954,0.511908 -0.127977,0.767862 0.127977,0.255954 0.383931,0.383931 0.767862,0.383931 L 72.18779,94.958885 Z" fill="#ffccbc" id="path20" /><path d="m 153.06921,19.708448 c -0.25595,-0.767862 -1.15179,-1.151793 -1.91965,-0.895839 -0.76786,0.255954 -1.15179,1.151793 -0.89584,1.919654 0,0.127977 0.12798,0.255954 0.12798,0.383931 0.76786,1.535723 0.5119,3.455377 -0.51191,4.863124 -0.51191,0.639884 -0.38393,1.535723 0.12798,2.04763 0.63988,0.511908 1.53572,0.383931 2.04763,-0.255953 1.91965,-2.431562 2.30358,-5.503009 1.02381,-8.062547 z" fill="#ffccbc" id="path21" /></g></g></g></g></svg>