<?xml version="1.0" encoding="UTF-8"?>
<svg clip-rule="evenodd" stroke-linejoin="round" stroke-miterlimit="1.4142" version="1.1" viewBox="0 0 24 24" xml:space="preserve" xmlns="http://www.w3.org/2000/svg"><path d="m19 20h-15c-1.11 0-2-0.9-2-2v-12c0-1.11 0.89-2 2-2h6l2 2h7c1.097 0 2 0.903 2 2h-17v10l2.14-8h17.07l-2.28 8.5c-0.23 0.87-1.01 1.5-1.93 1.5z" fill="#009688"/><path d="m10.26 18.997c-0.0079-0.97033-0.01578-1.7908-0.0079-1.8302l0.0079-0.071 0.6035-0.01184c0.33133-0.0079 0.60744-0.01578 0.61139-0.01972 0 0 0.0039-0.44967 0.0039-0.99005 0-0.781 0.0079-1.0177 0.0355-1.1163 0.11044-0.41417 0.42994-0.7455 0.852-0.88355 0.07495-0.02367 0.5325-0.03156 2.0472-0.04339l1.9525-0.01183 0.0079-0.90328 0.0039-0.90722h-1.2306v-3.6683h3.6683v3.6683h-1.207v1.8184l1.9486 0.0079c2.1537 0.01183 2.0393 0 2.3193 0.16566 0.15383 0.09072 0.20906 0.13806 0.33922 0.30767 0.13411 0.1775 0.21694 0.35894 0.24455 0.56011 0.01184 0.08678 0.02367 0.57983 0.02367 1.1005v0.93878h1.2307v3.6447h-3.6565l-0.01578-3.6683h0.56406c0.31161 0 0.58772-0.0079 0.61928-0.01578l0.05128-0.01183v-1.7947h-3.6683v1.8223h1.207v3.6683h-3.6683v-3.6683h0.56406c0.30766 0 0.58378-0.0079 0.61533-0.01578l0.05128-0.01183v-1.7947h-3.6683v1.8223h1.207v3.6683h-3.6407z" fill="#b2dfdb"/></svg>
