<?xml version="1.0" encoding="UTF-8"?>
<svg version="1.1" viewBox="0 0 24 24" xmlns="http://www.w3.org/2000/svg">
 <path d="M10 4H4C2.89 4 2 4.89 2 6V18C2 19.097 2.903 20 4 20H20C21.097 20 22 19.097 22 18V8C22 7.46957 21.7893 6.96086 21.4142 6.58579C21.0391 6.21071 20.5304 6 20 6H12L10 4Z" fill="#F9A825"/>
 <path d="m18.57 12.808c-0.2519 0.168-1.0496 0.6238-1.1696 0.7138-0.2339 0.1859-0.4498 0.1739-0.6837-6e-3 -0.12-0.096-0.9177-0.5518-1.1696-0.7138-0.2879-0.1859-0.2699-0.4198 0.048-0.5517 0.9836-0.4139 1.9673-0.3839 2.9449 0.0179 0.2939 0.126 0.3059 0.3599 0.03 0.5398zm4.3303 4.3664c-0.5578-1.2535-1.3195-2.3931-2.3031-3.3947-0.3179-0.3299-0.5158-0.7018-0.6358-1.1276-0.0599-0.1979-0.1019-0.4018-0.1439-0.6058-0.12-0.5278-0.1739-1.0676-0.4198-1.5654-0.4379-0.9476-1.1996-1.4394-2.3032-1.4814-1.0855 0.02999-1.8952 0.48581-2.369 1.4394-0.126 0.258-0.216 0.5278-0.2759 0.8037-0.102 0.4559-0.192 0.9297-0.2999 1.3915-0.09 0.3899-0.2699 0.7257-0.5758 1.0256-0.9656 0.9417-1.7393 2.0212-2.3271 3.2088-0.084 0.1739-0.168 0.3479-0.2219 0.5278-0.114 0.3958 0.1739 0.6717 0.5937 0.5758 0.2639-0.054 0.5278-0.108 0.7797-0.186 0.2459-0.0899 0.3419-0.03 0.4019 0.21 0.3898 1.2895 1.2415 2.1951 2.543 2.6989 2.4711 0.9357 5.356-0.3958 5.9797-2.7469 0.042-0.162 0.102-0.2219 0.2819-0.162 0.2759 0.084 0.5578 0.144 0.8397 0.21 0.2939 0.0539 0.5098-0.096 0.5518-0.3839 0.018-0.1559-0.036-0.2939-0.096-0.4378z" fill="#ffecb3"/>
</svg>
