<svg xmlns="http://www.w3.org/2000/svg" viewBox="0 0 32 32">
  <path d="M28.96692,12H9.44152a2,2,0,0,0-1.89737,1.36754L4,24V10H28a2,2,0,0,0-2-2H15.1241a2,2,0,0,1-1.28038-.46357L12.5563,6.46357A2,2,0,0,0,11.27592,6H4A2,2,0,0,0,2,8V24a2,2,0,0,0,2,2H26l4.80523-11.21213A2,2,0,0,0,28.96692,12Z" style="fill: #ef5350"/>
  <path d="M31.5,12h-5a.5.5,0,0,0-.5.5v8.05475a3.90345,3.90345,0,0,0-3.2316-.357,3.99875,3.99875,0,0,0,1.8555,7.755A4.1012,4.1012,0,0,0,28,23.84714V16h3.5a.5.5,0,0,0,.5-.5v-3A.5.5,0,0,0,31.5,12Z" style="fill: #ffcdd2;fill-rule: evenodd"/>
</svg>
