<svg clip-rule="evenodd" fill-rule="evenodd" stroke-linejoin="round" stroke-miterlimit="1.41" viewBox="0 0 24 24" xmlns="http://www.w3.org/2000/svg"><path d="M19 20H4a2 2 0 0 1-2-2V6c0-1.11.89-2 2-2h6l2 2h7c1.1 0 2 .9 2 2H4v10l2.14-8h17.07l-2.28 8.5c-.23.87-1.01 1.5-1.93 1.5z" fill="#00e4bc" fill-rule="nonzero"/><path d="m11.03 13.82-.6.02-2.74 6.95 1.84-.01s.25-.66.38-.98c.76 0 1.52.01 2.28.01.13.32.38.98.38.98l1.95-.03-2.89-6.92zm7.37.03s-.02.68-.02.8c.62.46 1.16 1.3 1.22 2.13-.01.02-.05.02-.19.02-.21 0-.2.01-.23-.15a3.7 3.7 0 0 0-.68-1.45c-.74-.97-1.64-1.36-2.76-1.33-1.2 0-2.45.87-2.97 1.72.81 1.87 1.37 3.28 2.12 5.08.39.22 1.03.16 1.5.13.66-.09 1.64-.72 2.01-1.17.36-.46.67-1.06.78-1.57.05-.18.09-.15.23-.15s.18.01.19.02c-.17.76-.57 1.61-1.22 2.11.01.3.02.77.02.77h1.71l.02-2.48h2.66v-1.64h-2.65V15.5l2.76-.02.02-1.64s-3.01 0-4.5.01zm-2.61 1.62c1.01-.01 1.56.6 1.81 1.34h.77v1.07h-.77c-.41.82-1.15 1.49-2.08 1.33-.94-.07-1.91-1.27-1.49-2.42.23-.67.8-1.17 1.5-1.29.09-.02.17-.03.26-.03zm-4.75 1.27.52 1.41c-.34.01-.68.01-1.01.01z" fill="#ccfff6"/></svg>