<?xml version="1.0" encoding="UTF-8"?>
<svg version="1.1" viewBox="0 0 24 24" xmlns="http://www.w3.org/2000/svg">
 <path d="M10 4H4c-1.11 0-2 .89-2 2v12c0 1.097.903 2 2 2h16c1.097 0 2-.903 2-2V8a2 2 0 0 0-2-2h-8l-2-2Z" fill="#009688"/>
 <path d="m19.258 9.6055v0.64258h1.2383l-0.20312 0.40625h-2.0273v0.64062h1.7012l-0.24219 0.48242h-2.4277v0.64062h3.4375l1.5938 0.007812 1.3906-2.8105h-0.54688v-0.0097656h-3.9141zm-8.416 0.029297 5.5547 11.107h1.8145l3.4707-6.9414h-3.1035l-1.2734 2.5488-3.3594-6.7148h-3.1035z" fill="#b2dfdb" stroke-width="1.0696"/>
</svg>
