<?xml version="1.0" encoding="UTF-8"?>
<svg clip-rule="evenodd" stroke-linejoin="round" stroke-miterlimit="1.414" version="1.1" viewBox="0 0 24 24" xml:space="preserve" xmlns="http://www.w3.org/2000/svg"><path d="M19 20H4a2 2 0 0 1-2-2V6c0-1.11.89-2 2-2h6l2 2h7c1.097 0 2 .903 2 2H4v10l2.14-8h17.07l-2.28 8.5c-.23.87-1.01 1.5-1.93 1.5z" fill="#1976d2"/><path d="m16.259 18.052h-1.7748l-3.3387-3.3999 3.3387-3.3999h1.7748l0.89078-1.5368 4.6171-1.1832 1.2716 4.5831-0.89078 1.5368 0.89078 1.5368-1.2716 4.5831-4.6171-1.1832-0.89078-1.5368m0.0952-0.17 3.4883 0.93838-2.0127-3.4883h-4.0255l2.5499 2.5499m4.6715 0.25839 0.93838-3.4883-0.93838-3.4883-2.0195 3.4883 2.0195 3.4883m-4.6715-6.7182-2.5499 2.5499h4.0255l2.0127-3.4883z" fill="#bbdefb" stroke-width=".67998"/></svg>
