<svg xmlns="http://www.w3.org/2000/svg" viewBox="0 0 16 16">
<path id="folder" fill="#0277bd" d="m6.922 3.768-.644-.536A1 1 0 0 0 5.638 3H2a1 1 0 0 0-1 1v8a1 1 0 0 0 1 1h12a1 1 0 0 0 1-1V5a1 1 0 0 0-1-1H7.562a1 1 0 0 1-.64-.232" />
<path id="motive" fill="#e1f5fe" d="M 11.000425,4 A 5.0004165,5.0001795 0 0 0 6.8220765,6.255081 l 0.321027,0.0065 c 0.524543,0 1.334611,-0.0625 1.334611,-0.0625 a 0.20675932,0.20674949 0 0 1 0.035,0.412015 l -0.577548,0.0595 1.824152,5.401694 1.0940915,-3.280118 -0.779565,-2.121576 -0.5305445,-0.06 a 0.20701726,0.20700742 0 0 1 0.035,-0.411515 l 1.3161095,0.0625 c 0.524544,0 1.335112,-0.0625 1.335112,-0.0625 a 0.20659993,0.20659011 0 0 1 0.03101,0.412015 l -0.571549,0.0595 1.806152,5.360192 0.501041,-1.66606 a 6.3505295,6.3502275 0 0 0 0.378532,-1.614057 2.6002168,2.6000933 0 0 0 -0.415035,-1.38205 2.3351947,2.3350837 0 0 1 -0.48904,-1.170042 0.86507211,0.86503101 0 0 1 0.84057,-0.885532 h 0.0635 A 5.0004165,5.0001795 0 0 0 11.000925,4 Z m 4.388867,2.600593 0.035,0.518519 a 4.7503961,4.7501703 0 0 1 -0.385533,1.788064 l -1.526627,4.411158 A 5.0004165,5.0001795 0 0 0 15.389287,6.600593 M 6.4305385,6.962606 a 5.100425,5.100183 0 0 0 -0.430536,2.039074 4.9904161,4.9901789 0 0 0 2.820236,4.498661 z m 4.6578885,2.476089 -1.4981245,4.360157 a 5.030419,5.0301805 0 0 0 3.0722565,-0.082 l -0.0365,-0.071 z" />
</svg>
