<svg xmlns="http://www.w3.org/2000/svg" viewBox="0 0 16 16">
<path id="folder" fill="#f9a825" d="m6.922 3.768-.644-.536A1 1 0 0 0 5.638 3H2a1 1 0 0 0-1 1v8a1 1 0 0 0 1 1h12a1 1 0 0 0 1-1V5a1 1 0 0 0-1-1H7.562a1 1 0 0 1-.64-.232" />
<path id="motive" fill="#ffecb3" d="m 12.309467,8.1752938 c -0.209986,0.139995 -0.874941,0.519981 -0.974934,0.594979 a 0.41247186,0.41248484 0 0 1 -0.569962,-0.005 c -0.09999,-0.08 -0.7649482,-0.459984 -0.9749332,-0.594978 -0.239984,-0.154495 -0.224985,-0.349487 0.04,-0.459483 a 3.0797899,3.0798868 0 0 1 2.4548332,0.015 c 0.244983,0.104995 0.254982,0.299989 0.025,0.449983 z M 15.91822,11.814661 A 9.5493487,9.5496487 0 0 0 13.999351,8.9857638 2.1498533,2.149921 0 0 1 13.469387,8.0457988 c -0.04999,-0.164994 -0.08499,-0.334987 -0.119991,-0.504981 a 5.6496147,5.6497921 0 0 0 -0.349976,-1.304452 2.0298615,2.0299253 0 0 0 -1.919369,-1.234955 2.0998568,2.0999228 0 0 0 -1.9748662,1.199956 2.9997953,2.9998897 0 0 0 -0.229985,0.669975 c -0.08499,0.379986 -0.159989,0.774972 -0.249983,1.159458 a 1.699884,1.6999375 0 0 1 -0.479467,0.854968 9.7493352,9.7496417 0 0 0 -1.939867,2.6739022 2.9997953,2.9998897 0 0 0 -0.184988,0.439984 c -0.09499,0.329987 0.14499,0.559979 0.494967,0.479982 0.219984,-0.045 0.439969,-0.09 0.649955,-0.154994 0.204986,-0.075 0.284981,-0.025 0.334977,0.174993 a 3.3647704,3.3648763 0 0 0 2.119855,2.248918 c 2.0593612,0.779971 4.4636962,-0.329988 4.9836612,-2.288916 0.035,-0.134995 0.08499,-0.184993 0.234984,-0.134995 0.229984,0.07 0.464968,0.119995 0.699952,0.174993 a 0.36197531,0.36198669 0 0 0 0.459968,-0.319988 0.71995089,0.71997352 0 0 0 -0.07999,-0.364986 z" />
</svg>
