<svg viewBox="0 0 32 32" xmlns="http://www.w3.org/2000/svg"><path d="m13.844 7.536-1.288-1.072A2 2 0 0 0 11.276 6H4a2 2 0 0 0-2 2v16a2 2 0 0 0 2 2h24a2 2 0 0 0 2-2V10a2 2 0 0 0-2-2H15.124a2 2 0 0 1-1.28-.464" fill="#E91E63"/><g fill="#F8BBD0"><ellipse cx="24" cy="14" rx="8" ry="4"/><path d="M24 26c-4 0-8-2-8-4v4c0 2 4 4 8 4s8-2 8-4v-4c0 2-4 4-8 4"/><path d="M24 20c-4 0-8-2-8-4v4c0 2 4 4 8 4s8-2 8-4v-4c0 2-4 4-8 4"/><path d="M27 8v7h-6V8" stroke="#E91E63" stroke-width="2"/><path d="m20 8 4-6 4 6z"/></g></svg>