<svg xmlns="http://www.w3.org/2000/svg" viewBox="0 0 16 16"><path id="folder" fill="#ec407a" d="m6.922 3.768-.644-.536A1 1 0 0 0 5.638 3H2a1 1 0 0 0-1 1v8a1 1 0 0 0 1 1h12a1 1 0 0 0 1-1V5a1 1 0 0 0-1-1H7.562a1 1 0 0 1-.64-.232"/><path id="motive" fill="#f8bbd0" d="M11.497 5a.995.994 0 0 0-.998.991 1 1 0 0 0 .018.185L8.65 7.246a1 1 0 0 0-.154-.11h-.002a1.005 1.005 0 0 0-1.36.38.974.973 0 0 0 .535 1.411v2.137a.988.987 0 0 0-.614 1.26 1.004 1.003 0 0 0 1.442.531 1 1 0 0 0 .152-.109l1.868 1.067a1 .998 0 1 0 1.98.188 1 1 0 0 0-.024-.216l1.85-1.059a1.008 1.007 0 0 0 1.414-.064 1 1 0 0 0 .126-.17h.001a.985.984 0 0 0-.365-1.352 1 1 0 0 0-.171-.076V8.926a.987.986 0 0 0 .618-1.258 1.003 1.003 0 0 0-1.443-.533H14.5a1 1 0 0 0-.155.11L12.479 6.18a.993.992 0 0 0-.794-1.162 1 1 0 0 0-.188-.017Zm-.901 1.889-2.268 3.886V8.92a.967.966 0 0 0 .644-1.104zm1.808.002 1.617.927a.97.97 0 0 0 .647 1.102v1.852zm-1.09.07a1 1 0 0 0 .368 0l2.56 4.391a.925.924 0 0 0-.187.32H8.94a1 1 0 0 0-.077-.169v-.001a1 1 0 0 0-.11-.148zm-2.079 5.365h4.573l-1.647.94a.987.986 0 0 0-1.31-.014z"/></svg>