<svg xmlns="http://www.w3.org/2000/svg" viewBox="0 0 16 16">
<path fill="#9c27b0" d="m6.922 3.768-.644-.536A1 1 0 0 0 5.638 3H2a1 1 0 0 0-1 1v8a1 1 0 0 0 1 1h12a1 1 0 0 0 1-1V5a1 1 0 0 0-1-1H7.562a1 1 0 0 1-.64-.232" id="folder"/>
<path fill="#e1bee7" d="M15 6.503422V8.5c0 0.828438-0.671562 1.5-1.5 1.5H8.5c-0.276141 0-0.5-0.223859-0.5-0.5s0.223859-0.5 0.5-0.5h5v-1H8.5c-0.828438 0-1.5 0.671562-1.5 1.5s0.671562 1.5 1.5 1.5h5c1.380719 0 2.5-1.119281 2.5-2.5 0-0.817109-0.393797-1.540391-1-1.996578" id="motive"/>
</svg>
