<svg xmlns="http://www.w3.org/2000/svg" viewBox="0 0 16 16">
<path id="folder" fill="#ff9100" d="M14.483 6H4.721a1 1 0 0 0-.949.684L2 12V5h12a1 1 0 0 0-1-1H7.562a1 1 0 0 1-.64-.232l-.644-.536A1 1 0 0 0 5.638 3H2a1 1 0 0 0-1 1v8a1 1 0 0 0 1 1h11l2.403-5.606A1 1 0 0 0 14.483 6" />
<path id="motive" fill="#ffe0b2" d="M 12,4 C 12,4 10.124935,5.8237577 10.005859,7.7867763 9.2628264,7.7509107 8.5812148,7.9285701 8.5214844,7.9937893 l -0.00195,0.00195 C 8.4815324,8.0551891 8.006,8.8645579 8,9.9955665 7.997,10.592542 8.170009,11.415945 8.5,11.993438 c 1.2048661,2.106228 3.486336,2.00621 3.498047,2.005683 H 12 c 9.29e-4,2.1e-5 3.67805,0.08384 4,-4.0035545 C 16.031499,7.1360739 12,4 12,4 Z m 0,1.2479371 c 0,0 3.0375,2.5590477 3,4.7476294 -0.025,1.4732075 -0.478014,1.9249655 -1,2.4919685 0,0 -0.542189,-0.146844 -1.166016,-0.576122 C 12.937278,11.636912 13.002539,11.330001 13,10.993526 12.9895,9.6022445 12.003973,8.4288622 11,7.9957424 11.072,6.4436037 12,5.2479371 12,5.2479371 Z M 10.029297,8.6675583 C 10.160433,10.20495 10.721573,11.293777 11.585938,12.216074 11.448495,12.363919 11.259968,12.532963 11,12.741419 10.9985,12.740752 8.0413439,11.445113 9.25,8.7456764 9.3893466,8.7087784 9.6952409,8.6559644 10.029297,8.6675583 Z m 1.019531,0.373014 C 11.532956,9.5112208 12.060487,10.298777 12,10.993526 c -0.0049,0.05578 -0.0081,0.108038 -0.01172,0.158189 -0.434312,-0.509778 -0.804405,-1.1968622 -0.939453,-2.1111427 z" />
</svg>
