<svg xmlns="http://www.w3.org/2000/svg" viewBox="0 0 16 16">
<path fill="#7e57c2" d="m6.922 3.768-.644-.536A1 1 0 0 0 5.638 3H2a1 1 0 0 0-1 1v8a1 1 0 0 0 1 1h12a1 1 0 0 0 1-1V5a1 1 0 0 0-1-1H7.562a1 1 0 0 1-.64-.232" id="folder"/>
<g id="motive"><path fill="#d1c4e9" d="M12.5 14h1.5l-2-6h-2l-2 6h1.5l0.3335-1h1.505L11 12h-0.8335L11 9.5z"/><path fill="#d1c4e9" d="M14 6a1 1 0 0 0-0.208 0.0225 5.498 5.498 0 0 0-8.551 6.7365 0.5015 0.5015 0 0 0 0.86-0.517A4.493 4.493 0 0 1 13.05 6.703 1 1 0 0 0 13 7a1 1 0 1 0 1-1"/></g>
</svg>
