<svg xmlns="http://www.w3.org/2000/svg" viewBox="0 0 16 16"><path id="folder" fill="#5c6bc0" d="m6.922 3.768-.644-.536A1 1 0 0 0 5.638 3H2a1 1 0 0 0-1 1v8a1 1 0 0 0 1 1h12a1 1 0 0 0 1-1V5a1 1 0 0 0-1-1H7.562a1 1 0 0 1-.64-.232"/><path id="motive" fill="#c5cae9" d="m11.395 11.881-1.154-1.13.014-.012A7.85 7.85 0 0 0 11.94 7.8h1.332v-.9H10.09V6h-.91v.9H6v.9h5.078a7.1 7.1 0 0 1-1.441 2.407A7 7 0 0 1 8.587 8.7h-.91a7.9 7.9 0 0 0 1.355 2.052L6.718 13.01l.646.64 2.272-2.25 1.414 1.399zm2.56-2.281h-.91L11 15h.909l.508-1.35h2.16L15.09 15H16Zm-1.192 3.15.737-1.949.737 1.949z"/></svg>