<svg
	viewBox="0 0 16 16"
	xmlns="http://www.w3.org/2000/svg"
>
	<path
		id="folder"
		fill="#ef6c00" stroke="none"
		d="M14.483 6H4.721a1 1 0 0 0-.949.684L2 12V5h12a1 1 0 0 0-1-1H7.562a1 1 0 0 1-.64-.232l-.644-.536A1 1 0 0 0 5.638 3H2a1 1 0 0 0-1 1v8a1 1 0 0 0 1 1h11l2.403-5.606A1 1 0 0 0 14.483 6"
	/>
	<g id="motive">
		<path
			id="page-details"
			fill="#ffe0b2" stroke="none"
			d="m 8.5,5 c -0.275,0 -0.5,0.25 -0.5,0.5 v 8 c 0,0.275 0.25,0.5 0.5,0.5 h 6 c 0.275,0 0.5,-0.25 0.5,-0.5 v -5.5 l -3,-3 z m 3.5,1 2,2 -2,0 z m -3,4 h 1 v 1 h -1 z m 1.5,0.125 h 2.5 v 0.75 H 10.5 Z m -1.5,1.875 h 1 v 1 h -1 z m 1.5,0.125 h 1 V 12.875 H 10.5 Z"
		/>
		<path
			id="pencil"
			fill="#ef6c00" stroke="none"
			d="m 14.2089255,10.2087527 c 0.149981,-0.03124 0.23122,0.08749 0.331208,0.181227 0.08749,0.08749 0.293712,0.249968 0.23122,0.38745 -0.025,0.06249 -0.112486,0.143732 -0.162479,0.193726 -0.025,0.025 -0.112486,0.118735 -0.143732,0.124984 -0.03124,0.0063 -0.06874,-0.03124 -0.09374,-0.05624 0,0 -0.199975,-0.199975 -0.199975,-0.199975 0,0 -0.199974,-0.199974 -0.199974,-0.199974 -0.01874,-0.01875 -0.06874,-0.06874 -0.07499,-0.09374 -0.0125,-0.04375 0.03749,-0.08124 0.06249,-0.106237 0.06249,-0.06249 0.174978,-0.193725 0.249969,-0.23122 z m -0.493688,0.487438 c 0,0 0.437445,0.424946 0.437445,0.424946 0.025,0.03125 0.124984,0.118735 0.124984,0.15623 0,0.03749 -0.09999,0.124984 -0.124984,0.149981 0,0 -0.406199,0.399949 -0.406199,0.399949 0,0 -0.868639,0.874889 -0.868639,0.874889 0,0 -0.187477,0.187476 -0.187477,0.187476 -0.03124,0.025 -0.07499,0.08124 -0.106236,0.09374 -0.03124,0.01874 -0.06874,0.0125 -0.09999,0.0125 0,0 -0.481189,0 -0.481189,0 0,0 0,-0.493687 0,-0.493687 0,-0.131233 0.05624,-0.149981 0.143731,-0.23747 0,0 0.281215,-0.281214 0.281215,-0.281214 z"
		/>
	</g>
</svg>
