<svg xmlns="http://www.w3.org/2000/svg" stroke-linejoin="round" stroke-miterlimit="2" clip-rule="evenodd" viewBox="0 0 24 24">
  <path fill="#546e7a" d="M10 4H4a2 2 0 0 0-2 2v12c0 1.1.9 2 2 2h16c1.1 0 2-.9 2-2V8a2 2 0 0 0-2-2h-8z" />
  <path fill="#00E676" d="M16.77 20.81h5.16c.17 0 .32-.06.47-.14a.98.98 0 0 0 .37-.32c.08-.14.14-.3.14-.47a.94.94 0 0 0-.14-.46l-3.49-6a.85.85 0 0 0-.33-.33c-.14-.08-.34-.14-.5-.14a.96.96 0 0 0-.8.47l-.88 1.53L15 11.98a.98.98 0 0 0-.32-.37.9.9 0 0 0-.47-.1.9.9 0 0 0-.46.1 1.1 1.1 0 0 0-.38.37l-4.32 7.44a.9.9 0 0 0-.1.46c0 .17.02.33.1.47.08.14.23.24.37.32.15.08.3.14.47.14h3.25c1.3 0 2.23-.58 2.89-1.67l1.58-2.75.83-1.44L21 19.32h-3.4zm-3.67-1.49h-2.28l3.4-5.85 1.71 2.92-1.14 2c-.43.7-.93.93-1.7.93z" />
</svg>
