<svg xmlns="http://www.w3.org/2000/svg" viewBox="0 0 24 24" style="enable-background:new 0 0 24 24" xml:space="preserve"><path d="M10 4H4c-1.1 0-2 .9-2 2v12c0 1.1.9 2 2 2h16c1.1 0 2-.9 2-2V8c0-1.1-.9-2-2-2h-8l-2-2z" style="fill:#dd2c00"/><path d="M16.6 13.1H20l-3.4-3.4v3.4m-4.4-4.3h5l3.8 3.8V20c0 .7-.6 1.2-1.2 1.2h-7.5c-.7 0-1.2-.6-1.2-1.2V10c-.1-.7.5-1.2 1.1-1.2m3.1 6.5c.3.6.6 1 1 1.3l.3.2c-.5.1-1.3.3-2.1.6h-.1l.3-.6c.3-.6.5-1.1.6-1.5m4.1 2.4c.1-.1.2-.3.2-.4 0-.1 0-.2-.1-.3-.2-.3-.7-.4-1.4-.4h-.8l-.5-.4c-.4-.3-.7-.9-1-1.6v-.1c.2-.8.4-1.8 0-2.2-.1-.1-.2-.2-.4-.2h-.1c-.2 0-.4.2-.5.5-.2.8-.1 1.3.1 2-.2.6-.4 1.2-.7 1.8l-.6 1.1-.6.4c-.8.5-1.1 1-1.2 1.3v.3l.3.2.3.1c.5 0 1.1-.6 1.9-1.9h.1c.6-.2 1.4-.4 2.5-.5.6.3 1.4.5 1.9.5.3-.1.5-.1.6-.2m-.3-.5v.1H19c-.3 0-.7-.1-1.2-.3l.1-.1c.9.1 1.2.2 1.2.3m-5.7.9c-.4.7-.8 1.2-1.1 1.2 0-.2.3-.6.8-1.1l.3-.1m1.9-4.3c-.1-.6-.1-1 0-1.3v-.1h.1c.1.2.1.4.1.7v.1l-.2.6z" style="fill:#ff9e80"/></svg>