<?xml version="1.0" encoding="UTF-8" standalone="no"?>
<svg
   xmlns:dc="http://purl.org/dc/elements/1.1/"
   xmlns:cc="http://creativecommons.org/ns#"
   xmlns:rdf="http://www.w3.org/1999/02/22-rdf-syntax-ns#"
   xmlns:svg="http://www.w3.org/2000/svg"
   xmlns="http://www.w3.org/2000/svg"
   xmlns:sodipodi="http://sodipodi.sourceforge.net/DTD/sodipodi-0.dtd"
   xmlns:inkscape="http://www.inkscape.org/namespaces/inkscape"
   clip-rule="evenodd"
   fill-rule="evenodd"
   stroke-linejoin="round"
   stroke-miterlimit="1.414"
   viewBox="0 0 24 24"
   version="1.1"
   id="svg6"
   sodipodi:docname="folder-mappings.svg"
   inkscape:version="0.92.2 5c3e80d, 2017-08-06">
  <metadata
     id="metadata12">
    <rdf:RDF>
      <cc:Work
         rdf:about="">
        <dc:format>image/svg+xml</dc:format>
        <dc:type
           rdf:resource="http://purl.org/dc/dcmitype/StillImage" />
      </cc:Work>
    </rdf:RDF>
  </metadata>
  <defs
     id="defs10" />
  <sodipodi:namedview
     pagecolor="#ffffff"
     bordercolor="#666666"
     borderopacity="1"
     objecttolerance="10"
     gridtolerance="10"
     guidetolerance="10"
     inkscape:pageopacity="0"
     inkscape:pageshadow="2"
     inkscape:window-width="730"
     inkscape:window-height="576"
     id="namedview8"
     showgrid="false"
     inkscape:zoom="9.8333333"
     inkscape:cx="12"
     inkscape:cy="12"
     inkscape:window-x="0"
     inkscape:window-y="0"
     inkscape:window-maximized="0"
     inkscape:current-layer="svg6" />
  <path
     d="M10 4H4c-1.11 0-2 .89-2 2v12c0 1.097.903 2 2 2h16c1.097 0 2-.903 2-2V8a2 2 0 0 0-2-2h-8l-2-2z"
     fill="#424242"
     fill-rule="nonzero"
     id="path2" />
  <path
     d="m 20.468926,11.666668 v 8.166664 h -8.166665 v -8.166664 h 8.166665 M 21.110594,10.5 h -9.45 c -0.291665,0 -0.525,0.233335 -0.525,0.525 v 9.45 c 0,0.233336 0.233335,0.525 0.525,0.525 h 9.45 c 0.233336,0 0.525,-0.291664 0.525,-0.525 v -9.45 c 0,-0.291665 -0.291664,-0.525 -0.525,-0.525 z m -5.308329,2.333336 h 3.499993 v 1.166667 h -3.499993 z m 0,2.333335 h 3.499993 v 1.166658 h -3.499993 z m 0,2.333326 h 3.499993 v 1.166667 h -3.499993 z m -2.333336,-4.666661 h 1.166668 v 1.166667 h -1.166668 z m 0,2.333335 h 1.166668 v 1.166658 h -1.166668 z m 0,2.333326 h 1.166668 v 1.166667 h -1.166668 z"
     id="path4"
     inkscape:connector-curvature="0"
     style="stroke-width:0.58333319" />
</svg>
