<svg width="24" height="24" viewBox="0 0 24 24" fill="none" xmlns="http://www.w3.org/2000/svg">
<path d="M10 4H4C2.9 4 2 4.9 2 6V18C2 19.1 2.9 20 4 20H20C21.1 20 22 19.1 22 18V8C22 6.9 21.1 6 20 6H12L10 4Z" fill="#42A5F5"/>
<path fill-rule="evenodd" clip-rule="evenodd" d="M23.4949 10.8518L12.8518 8L10 18.6431L20.6431 21.4949L23.4949 10.8518ZM21.8081 11.8257L19.6794 11.2553L19.1091 13.384L21.2377 13.9543L21.8081 11.8257ZM13.4916 17.8248L12.1469 17.4645L12.8253 14.933L12.4492 14.8322L11.6888 17.6697L13.4096 18.1308L13.4916 17.8248ZM14.3678 18.4293C14.6393 18.5021 14.8673 18.4747 15.0518 18.3473L15.0038 18.5579L15.3468 18.6498L15.9118 16.5412L15.5512 16.4446L15.1403 17.9783C14.9943 18.1593 14.7836 18.2128 14.5082 18.139C14.2484 18.0694 14.1613 17.8748 14.2469 17.5551L14.6119 16.193L14.2514 16.0963L13.8838 17.4683C13.8165 17.7246 13.8237 17.934 13.9055 18.0966C13.9889 18.2582 14.143 18.3691 14.3678 18.4293ZM17.207 18.9102C17.1914 19.0202 17.1885 19.0988 17.1981 19.1459L17.5762 19.2472L17.5846 19.2161C17.5658 19.0885 17.5824 18.9279 17.6343 18.7343L17.8943 17.7638C17.9462 17.5494 17.9195 17.3633 17.8141 17.2055C17.7091 17.0465 17.5352 16.9344 17.2922 16.8694C17.1389 16.8283 16.9903 16.8191 16.8463 16.8418C16.7037 16.8648 16.5815 16.9156 16.4797 16.9942C16.3795 17.0718 16.3153 17.1632 16.2871 17.2684L16.6496 17.3656C16.6743 17.2733 16.7389 17.2064 16.8434 17.1647C16.9478 17.1231 17.0644 17.1195 17.193 17.154C17.3398 17.1933 17.4408 17.2608 17.4959 17.3563C17.5515 17.4506 17.5623 17.5607 17.5286 17.6867L17.4842 17.8524L17.1334 17.7584C16.8307 17.6773 16.5791 17.6753 16.3788 17.7525C16.1801 17.8288 16.0514 17.9767 15.9926 18.1963C15.9442 18.3769 15.9704 18.544 16.0712 18.6978C16.1737 18.8505 16.3289 18.9548 16.5368 19.0105C16.7693 19.0728 16.9927 19.0394 17.207 18.9102ZM17.0185 18.7093C16.9015 18.7406 16.7865 18.7411 16.6735 18.7108C16.5552 18.6791 16.467 18.6214 16.4087 18.5375C16.3504 18.4537 16.3364 18.3552 16.3667 18.2422C16.4359 17.9837 16.6915 17.9136 17.1332 18.0319L17.4158 18.1076L17.2998 18.5403C17.2293 18.6217 17.1355 18.678 17.0185 18.7093ZM18.7409 19.6011C19.0124 19.6738 19.2405 19.6465 19.425 19.5191L19.3769 19.7297L19.7199 19.8216L20.2849 17.713L19.9244 17.6164L19.5134 19.1501C19.3674 19.331 19.1568 19.3846 18.8813 19.3108C18.6215 19.2411 18.5344 19.0465 18.62 18.7269L18.985 17.3647L18.6245 17.2681L18.2569 18.6401C18.1896 18.8964 18.1968 19.1058 18.2786 19.2683C18.362 19.43 18.5161 19.5409 18.7409 19.6011Z" fill="#B3E5FC"/>
</svg>
