<?xml version="1.0" encoding="UTF-8" standalone="no"?><!-- Generator: Gravit.io --><svg xmlns="http://www.w3.org/2000/svg" xmlns:xlink="http://www.w3.org/1999/xlink" style="isolation:isolate" viewBox="0 0 22.5 19" width="22.5pt" height="19pt"><defs><clipPath id="_clipPath_vgn3n0npQfTK08NZO6YJwIAZN1kVN2k6"><rect width="22.5" height="19"/></clipPath></defs><g clip-path="url(#_clipPath_vgn3n0npQfTK08NZO6YJwIAZN1kVN2k6)"><rect width="22.5" height="19" style="fill:rgb(0,0,0)" fill-opacity="0"/><g><path d=" M 8.513 1.5 L 3.461 1.5 C 2.526 1.5 1.776 2.249 1.776 3.184 L 1.776 13.289 C 1.776 14.22 2.53 14.974 3.461 14.974 L 16.934 14.974 C 17.864 14.974 18.618 14.22 18.618 13.289 L 18.618 4.868 C 18.618 3.934 17.861 3.184 16.934 3.184 L 10.197 3.184 L 8.513 1.5 Z " fill="rgb(25,118,210)"/><path d=" M 13.783 9.92 L 14.826 10.959 L 14.182 11.603 L 13.143 10.559 L 12.105 11.603 L 11.461 10.959 L 12.504 9.92 L 11.461 8.881 L 12.105 8.237 L 13.143 9.28 L 14.182 8.237 L 14.826 8.881 M 20.724 14.778 L 20.08 14.134 L 19.041 15.177 L 18.002 14.134 L 17.358 14.778 L 18.401 15.817 L 17.358 16.856 L 18.002 17.5 L 19.041 16.457 L 20.08 17.5 L 20.724 16.856 L 19.68 15.817 M 19.903 10.523 L 18.442 12.415 L 17.725 11.839 L 18.256 11.158 C 16.88 11.438 15.742 12.399 15.235 13.708 C 16.051 14.296 16.316 15.391 15.861 16.288 C 15.406 17.184 14.365 17.616 13.409 17.304 C 12.452 16.993 11.865 16.031 12.025 15.038 C 12.186 14.045 13.045 13.317 14.051 13.322 C 14.17 13.323 14.288 13.335 14.405 13.358 C 15.043 11.774 16.43 10.614 18.102 10.265 L 17.453 9.775 L 18.029 9.058 M 15.185 15.363 C 15.185 14.737 14.677 14.229 14.051 14.229 C 13.424 14.229 12.917 14.737 12.917 15.363 C 12.917 15.99 13.424 16.497 14.051 16.497 C 14.677 16.497 15.185 15.99 15.185 15.363 Z " fill="rgb(79,195,247)"/></g></g></svg>