<svg xmlns="http://www.w3.org/2000/svg" viewBox="0 0 32 32"><path fill="#8bc34a" d="M28.967 12H9.442a2 2 0 0 0-1.898 1.368L4 24V10h24a2 2 0 0 0-2-2H15.124a2 2 0 0 1-1.28-.464l-1.288-1.072A2 2 0 0 0 11.276 6H4a2 2 0 0 0-2 2v16a2 2 0 0 0 2 2h22l4.805-11.212A2 2 0 0 0 28.967 12Z"/><path fill="#dcedc8" d="M27.943 19.471 32 15.414 30.586 14l-4.333 4.333a11.013 11.013 0 0 0-10.505 0L11.414 14 10 15.414l4.057 4.057A10.976 10.976 0 0 0 10 28h22a10.976 10.976 0 0 0-4.057-8.529ZM18 26h-4v-4h4Zm10 0h-4v-4h4Z"/></svg>