<svg xmlns="http://www.w3.org/2000/svg" viewBox="0 0 32 32">
  <path d="M13.84376,7.53645l-1.28749-1.0729A2,2,0,0,0,11.27591,6H4A2,2,0,0,0,2,8V24a2,2,0,0,0,2,2H28a2,2,0,0,0,2-2V10a2,2,0,0,0-2-2H15.12412A2,2,0,0,1,13.84376,7.53645Z" style="fill: #1e88e5"/>
  <g>
    <path d="M12,18H8.5a.5.5,0,0,0-.5.5v9a.5.5,0,0,0,.5.5h1a.5.5,0,0,0,.5-.5V24h2a2,2,0,0,0,2-2V20A2,2,0,0,0,12,18Zm0,3.5a.5.5,0,0,1-.5.5H10V20h1.5a.5.5,0,0,1,.5.5Z" style="fill: #bbdefb;fill-rule: evenodd"/>
    <path d="M28,18H24.5a.5.5,0,0,0-.5.5v9a.5.5,0,0,0,.5.5h1a.5.5,0,0,0,.5-.5V24h2a2,2,0,0,0,2-2V20A2,2,0,0,0,28,18Zm0,3.5a.5.5,0,0,1-.5.5H26V20h1.5a.5.5,0,0,1,.5.5Z" style="fill: #bbdefb;fill-rule: evenodd"/>
    <path d="M20,18H18V14.5a.5.5,0,0,0-.5-.5h-1a.5.5,0,0,0-.5.5v9a.5.5,0,0,0,.5.5h1a.5.5,0,0,0,.5-.5V20h1.5a.5.5,0,0,1,.5.5v3a.5.5,0,0,0,.5.5h1a.5.5,0,0,0,.5-.5V20A2,2,0,0,0,20,18Z" style="fill: #bbdefb;fill-rule: evenodd"/>
  </g>
</svg>
