<svg xmlns="http://www.w3.org/2000/svg" viewBox="0 0 32 32">
  <path d="M28.96692,12H9.44152a2,2,0,0,0-1.89737,1.36754L4,24V10H28a2,2,0,0,0-2-2H15.1241a2,2,0,0,1-1.28038-.46357L12.5563,6.46357A2,2,0,0,0,11.27592,6H4A2,2,0,0,0,2,8V24a2,2,0,0,0,2,2H26l4.80523-11.21213A2,2,0,0,0,28.96692,12Z" style="fill: #4caf50"/>
  <path d="M18.47267,30a1.07457,1.07457,0,0,1-.23744-.02778,1.13739,1.13739,0,0,1-.82864-1.32282l3.09326-15.7441a1.1305,1.1305,0,0,1,.5072-.744,1.05716,1.05716,0,0,1,.79956-.13429,1.13885,1.13885,0,0,1,.82864,1.32436l-3.10133,15.7441a1.12414,1.12414,0,0,1-.504.74244A1.05491,1.05491,0,0,1,18.47267,30Zm6.20106-2H24.5962a1.07494,1.07494,0,0,1-.76241-.41213,1.164,1.164,0,0,1,.11307-1.54817L29.266,21.0726l-5.2965-4.6229a1.16471,1.16471,0,0,1-.16153-1.54354,1.07957,1.07957,0,0,1,.75434-.43682,1.05763,1.05763,0,0,1,.80925.25777L31.6162,20.182a1.1563,1.1563,0,0,1,.00323,1.72259L25.4006,27.7129a1.06858,1.06858,0,0,1-.72849.28864Zm-9.31047,0a1.07162,1.07162,0,0,1-.72849-.29173L8.40948,21.89685a1.159,1.159,0,0,1-.0099-1.69172l.0196-.01853,6.24628-5.45332a1.03545,1.03545,0,0,1,.79956-.26086,1.08077,1.08077,0,0,1,.75918.43682,1.16473,1.16473,0,0,1-.15991,1.54663L10.771,21.07568l5.31912,4.964a1.1561,1.1561,0,0,1,.11307,1.54817A1.07173,1.07173,0,0,1,15.4408,28Z" style="fill: #c8e6c9"/>
</svg>
