<svg xmlns="http://www.w3.org/2000/svg" viewBox="0 0 16 16"><path id="folder" fill="#448aff" d="m6.922 3.768-.644-.536A1 1 0 0 0 5.638 3H2a1 1 0 0 0-1 1v8a1 1 0 0 0 1 1h12a1 1 0 0 0 1-1V5a1 1 0 0 0-1-1H7.562a1 1 0 0 1-.64-.232"/><path id="motive" fill="#bbdefb" d="M11.035 5.232a.3.3 0 0 0-.059.001.295.295 0 0 0-.258.318v.08a2 2 0 0 0 .04.271 2.6 2.6 0 0 1 .033.509.3.3 0 0 1-.094.153l-.006.118a3.5 3.5 0 0 0-.516.079 3.64 3.64 0 0 0-1.853 1.058l-.097-.072a.26.26 0 0 1-.174-.02 2.7 2.7 0 0 1-.382-.345 3 3 0 0 0-.186-.197l-.06-.046a.4.4 0 0 0-.199-.08.3.3 0 0 0-.231.099.305.305 0 0 0 .074.417l.006.007c.013.013.04.033.053.046a2 2 0 0 0 .238.139 2.7 2.7 0 0 1 .424.298.3.3 0 0 1 .053.165l.091.079a3.6 3.6 0 0 0-.568 2.56l-.125.033a.4.4 0 0 1-.127.127 2.2 2.2 0 0 1-.509.078 1 1 0 0 0-.272.026l-.072.015h-.006v.006c-.02 0-.04.007-.053.007a.285.285 0 1 0 .17.543l.001-.001.087-.02a1.4 1.4 0 0 0 .244-.099 3.5 3.5 0 0 1 .51-.146.25.25 0 0 1 .152.06l.131-.02a3.72 3.72 0 0 0 1.635 2.044l-.047.119a.35.35 0 0 1 .021.165 2 2 0 0 1-.258.456c-.053.08-.1.152-.159.231a.1.1 0 0 1-.026.074c-.006.02-.02.033-.027.053a.285.285 0 0 0 .536.191c.014-.02.026-.066.039-.066a3 3 0 0 0 .08-.265 2.5 2.5 0 0 1 .219-.508.23.23 0 0 1 .125-.06l.066-.119a3.7 3.7 0 0 0 2.627.007l.052.106a.25.25 0 0 1 .139.091 3 3 0 0 1 .199.477c.02.086.047.172.08.271.013 0 .025.04.039.06.006.02.014.033.02.053a.284.284 0 0 0 .492-.284l-.003-.006-.026-.08c-.053-.073-.106-.153-.16-.225a4 4 0 0 1-.25-.45.22.22 0 0 1 .02-.172.5.5 0 0 1-.047-.112 3.72 3.72 0 0 0 1.634-2.057c.04.007.079.013.126.019a.17.17 0 0 1 .152-.053 2.4 2.4 0 0 1 .509.14 1.3 1.3 0 0 0 .238.098.4.4 0 0 0 .093.014v.007c0 .006.027.006.047.013a.293.293 0 0 0 .317-.246.285.285 0 0 0-.241-.322l-.004-.001a.2.2 0 0 1-.079-.033h-.271a3.3 3.3 0 0 1-.51-.093.3.3 0 0 1-.126-.12l-.125-.031a3.6 3.6 0 0 0-.583-2.555l.106-.092a.2.2 0 0 1 .053-.158 2.5 2.5 0 0 1 .424-.299 2 2 0 0 0 .23-.138l.06-.047c.02-.013.04-.026.04-.04a.278.278 0 0 0-.39-.396c-.02 0-.046.027-.066.04a5 5 0 0 0-.186.197 2.4 2.4 0 0 1-.383.345.25.25 0 0 1-.172.02l-.106.079a3.7 3.7 0 0 0-2.354-1.137l-.007-.127a.23.23 0 0 1-.093-.145 2.6 2.6 0 0 1 .033-.509 2 2 0 0 0 .04-.271v-.146a.285.285 0 0 0-.253-.253m-.389 2.204-.08 1.488h-.006a.25.25 0 0 1-.053.14.25.25 0 0 1-.344.059h-.006l-1.217-.867a2.9 2.9 0 0 1 1.401-.767q.158-.032.305-.053m.714 0a2.95 2.95 0 0 1 1.7.82l-1.21.867h-.007a.3.3 0 0 1-.139.034.247.247 0 0 1-.258-.235v-.004ZM8.495 8.792l1.112 1.012v.007a.17.17 0 0 1 .072.126.24.24 0 0 1-.162.301l-.01.003v.006l-1.429.411a2.95 2.95 0 0 1 .417-1.866m5.007.02a3.1 3.1 0 0 1 .43 1.84l-1.435-.411-.007-.007a.24.24 0 0 1-.119-.078.245.245 0 0 1 .021-.348l.005-.004-.006-.02Zm-2.731 1.072h.456l.284.35-.1.443-.409.199-.41-.199-.106-.443Zm-1.066 1.224h.053a.275.275 0 0 1 .252.19.25.25 0 0 1-.026.14v.02l-.564 1.37a2.92 2.92 0 0 1-1.183-1.476Zm2.435 0h.16l1.473.237a2.93 2.93 0 0 1-1.183 1.489l-.57-1.395a.265.265 0 0 1 .12-.331m-1.164.599a.26.26 0 0 1 .244.128h.007l.721 1.304a3 3 0 0 1-.285.078 2.95 2.95 0 0 1-1.607-.078l.721-1.304h.006c.02-.046.054-.066.1-.1a.3.3 0 0 1 .093-.028"/></svg>