<svg width="24" height="24" viewBox="0 0 24 24" fill="none" xmlns="http://www.w3.org/2000/svg">
<path d="M10 4H4C2.89 4 2 4.89 2 6V18C2 18.5304 2.21071 19.0391 2.58579 19.4142C2.96086 19.7893 3.46957 20 4 20H20C20.5304 20 21.0391 19.7893 21.4142 19.4142C21.7893 19.0391 22 18.5304 22 18V8C22 6.89 21.1 6 20 6H12L10 4Z" fill="#4CAF50"/>
<path d="M12.2826 22.175C14.0955 22.175 15.5652 20.7053 15.5652 18.8924C15.5652 17.0795 14.0955 15.6098 12.2826 15.6098C10.4697 15.6098 9 17.0795 9 18.8924C9 20.7053 10.4697 22.175 12.2826 22.175Z" fill="#BC342D"/>
<path d="M20.0412 22.175C21.8542 22.175 23.3238 20.7053 23.3238 18.8924C23.3238 17.0795 21.8542 15.6098 20.0412 15.6098C18.2283 15.6098 16.7587 17.0795 16.7587 18.8924C16.7587 20.7053 18.2283 22.175 20.0412 22.175Z" fill="#864E9F"/>
<path d="M16.1389 15.5652C17.9518 15.5652 19.4215 14.0955 19.4215 12.2826C19.4215 10.4697 17.9518 9 16.1389 9C14.326 9 12.8563 10.4697 12.8563 12.2826C12.8563 14.0955 14.326 15.5652 16.1389 15.5652Z" fill="#328A22"/>
</svg>
