<svg xmlns="http://www.w3.org/2000/svg" viewBox="0 0 16 16">
<path id="folder" fill="#0288d1" d="m6.922 3.768-.644-.536A1 1 0 0 0 5.638 3H2a1 1 0 0 0-1 1v8a1 1 0 0 0 1 1h12a1 1 0 0 0 1-1V5a1 1 0 0 0-1-1H7.562a1 1 0 0 1-.64-.232" />
<path id="motive" fill="#b3e5fc" d="M 15.0535,10 H 16 V 8 A 1,1 0 0 0 15,7 H 13 V 6 A 1,1 0 0 0 11,6 V 7 H 9 A 1,1 0 0 0 8,8 v 2 H 7 a 1,1 0 0 0 0,2 h 1 v 2 a 1,1 0 0 0 1,1 h 2 v -0.9465 a 1.037,1.037 0 0 1 0.832,-1.04 A 1,1 0 0 1 13,14 v 1 h 2 a 1,1 0 0 0 1,-1 V 12 H 15 A 1,1 0 0 1 14.0135,10.832 1.037,1.037 0 0 1 15.0535,10" />
</svg>
