<svg xmlns="http://www.w3.org/2000/svg" viewBox="0 0 16 16"><path id="folder" fill="#1976d2" d="m6.922 3.768-.644-.536A1 1 0 0 0 5.638 3H2a1 1 0 0 0-1 1v8a1 1 0 0 0 1 1h12a1 1 0 0 0 1-1V5a1 1 0 0 0-1-1H7.562a1 1 0 0 1-.64-.232"/><path id="motive" fill="#90caf9" fill-rule="evenodd" d="M8 11.203v1.393c-2.4-.549-4.131-2.085-4.131-3.902 0-2.277 2.716-4.123 6.066-4.123S16 6.417 16 8.694a3.23 3.23 0 0 1-.957 2.216l-.245-.427A2.33 2.33 0 0 0 15.288 9c0-1.954-1.879-2.818-4.425-2.818s-4.61 1.262-4.61 2.819c0 .893.686 1.684 1.747 2.2m7.666 2.798h-2.328l-1.088-2.104a2.7 2.7 0 0 0-.36-.508c-.115-.095-.164-.13-.277-.13H11V14H9V7h4.137S15 7.035 15 8.88a1.933 1.933 0 0 1-1.78 1.982 4.5 4.5 0 0 1 .578.224 1.1 1.1 0 0 1 .293.216.8.8 0 0 1 .134.198ZM13 8.75a.75.75 0 0 0-.75-.75H11v2h1.25a.75.75 0 0 0 .75-.75Z"/></svg>