<?xml version="1.0" encoding="UTF-8"?>
<svg clip-rule="evenodd" fill-rule="evenodd" stroke-linejoin="round" stroke-miterlimit="1.4142" version="1.1" viewBox="0 0 24 24" xml:space="preserve" xmlns="http://www.w3.org/2000/svg"><path d="m10 4h-6c-1.11 0-2 0.89-2 2v12c0 1.097 0.903 2 2 2h16c1.097 0 2-0.903 2-2v-10c0-1.11-0.9-2-2-2h-8l-2-2z" fill="#64b5f6" fill-rule="nonzero"/><g transform="matrix(.66157 0 0 .66157 9.0612 7.6769)"><path d="M17,8.5L12.25,12.32L17,16L17,8.5M4.7,18.4L2,16.7L2,7.7L5,6.7L9.3,10.03L18,2L22,4.5L22,20L17,22L9.34,14.66L4.7,18.4M5,14L6.86,12.28L5,10.5L5,14Z" fill="#0277bd" fill-rule="nonzero"/></g></svg>
