<svg xmlns="http://www.w3.org/2000/svg" viewBox="0 0 32 32">
  <path d="M13.84376,7.53645l-1.28749-1.0729A2,2,0,0,0,11.27591,6H4A2,2,0,0,0,2,8V24a2,2,0,0,0,2,2H28a2,2,0,0,0,2-2V10a2,2,0,0,0-2-2H15.12412A2,2,0,0,1,13.84376,7.53645Z" style="fill: #ef5350"/>
  <g>
    <rect x="16" y="12" width="4" height="4" style="fill: #ffcdd2"/>
    <rect x="22" y="12" width="4" height="4" style="fill: #ffcdd2"/>
    <rect x="28" y="12" width="4" height="4" style="fill: #ffcdd2"/>
    <rect x="16" y="18" width="4" height="4" style="fill: #ffcdd2"/>
    <rect x="22" y="18" width="4" height="4" style="fill: #ffcdd2"/>
    <rect x="28" y="18" width="4" height="4" style="fill: #ffcdd2"/>
    <rect x="16" y="24" width="4" height="4" style="fill: #ffcdd2"/>
    <rect x="22" y="24" width="4" height="4" style="fill: #ffcdd2"/>
    <rect x="28" y="24" width="4" height="4" style="fill: #ffcdd2"/>
  </g>
</svg>
