<svg
	xmlns="http://www.w3.org/2000/svg"
	viewBox="0 0 32 32"
>
	<path
		fill="#00acc1"
		d="m13.844 7.536-1.288-1.072A2 2 0 0 0 11.276 6H4a2 2 0 0 0-2 2v16a2 2 0 0 0 2 2h24a2 2 0 0 0 2-2V10a2 2 0 0 0-2-2H15.124a2 2 0 0 1-1.28-.464"
	/>
	<path id="path"
		fill="#b2ebf2" stroke="none"
		transform="translate(12,10) scale(1.25)"
		d="M 15.35,3.65
		C 15.35,3.65 15.39,3.87 15.39,3.87
			15.39,3.87 15.39,4.22 15.39,4.22
			15.39,4.68 15.13,5.33 14.82,5.66
			14.70,5.80 14.49,5.94 14.33,6.03
			13.43,6.52 12.60,6.30 11.64,6.82
			11.30,7.00 10.99,7.25 10.70,7.51
			10.70,7.51 9.57,8.53 9.57,8.53
			9.57,8.53 9.15,8.92 9.15,8.92
			9.15,8.92 8.96,9.11 8.96,9.11
			8.96,9.11 7.77,10.24 7.77,10.24
			7.77,10.24 7.27,10.70 7.27,10.70
			7.27,10.70 6.96,11.01 6.96,11.01
			6.96,11.01 6.82,11.17 6.82,11.17
			6.82,11.17 6.40,11.59 6.40,11.59
			6.40,11.59 6.04,11.99 6.04,11.99
			5.84,12.23 5.55,12.56 5.39,12.83
			5.17,13.18 5.15,13.47 4.99,13.84
			4.81,14.22 4.49,14.56 4.12,14.77
			3.05,15.41 1.61,15.09 0.97,13.99
			0.87,13.81 0.78,13.62 0.73,13.42
			0.71,13.32 0.68,13.19 0.67,13.09
			0.67,13.09 0.67,12.95 0.67,12.95
			0.66,12.89 0.65,12.86 0.65,12.80
			0.67,12.55 0.71,12.23 0.80,12.01
			1.03,11.40 1.51,10.89 2.12,10.68
			2.12,10.68 3.26,10.44 3.26,10.44
			3.59,10.36 3.86,10.24 4.16,10.06
			4.36,9.93 4.86,9.46 5.07,9.28
			5.07,9.28 5.80,8.62 5.80,8.62
			5.80,8.62 6.84,7.64 6.84,7.64
			6.84,7.64 7.50,7.01 7.50,7.01
			7.50,7.01 7.69,6.83 7.69,6.83
			7.69,6.83 8.14,6.42 8.14,6.42
			8.14,6.42 8.31,6.24 8.31,6.24
			8.31,6.24 9.02,5.51 9.02,5.51
			9.26,5.25 9.58,4.98 9.78,4.69
			9.97,4.42 10.03,4.09 10.09,3.77
			10.09,3.77 10.28,3.06 10.28,3.06
			10.53,2.26 11.00,1.54 11.81,1.23
			12.14,1.11 12.41,1.09 12.74,1.06
			12.74,1.06 12.99,1.08 12.99,1.08
			13.12,1.08 13.38,1.12 13.50,1.15
			13.69,1.19 13.92,1.28 14.06,1.40
			14.11,1.44 14.20,1.53 14.18,1.60
			14.16,1.64 14.10,1.68 14.06,1.70
			14.06,1.70 13.77,1.90 13.77,1.90
			13.77,1.90 12.67,2.63 12.67,2.63
			12.57,2.69 12.36,2.82 12.33,2.94
			12.31,2.99 12.32,3.06 12.33,3.12
			12.37,3.35 12.45,3.59 12.55,3.80
			12.62,3.97 12.74,4.12 12.87,4.25
			12.99,4.39 13.14,4.51 13.30,4.60
			13.36,4.64 13.46,4.70 13.53,4.70
			13.60,4.70 13.65,4.67 13.71,4.64
			13.71,4.64 14.03,4.44 14.03,4.44
			14.03,4.44 14.91,3.88 14.91,3.88
			15.03,3.81 15.22,3.66 15.35,3.65 Z
		M 10.57,5.41
		C 10.40,5.47 10.12,5.77 9.98,5.90
			9.98,5.90 9.24,6.58 9.24,6.58
			9.24,6.58 8.90,6.90 8.90,6.90
			8.90,6.90 8.08,7.66 8.08,7.66
			8.08,7.66 6.22,9.38 6.22,9.38
			6.22,9.38 5.16,10.36 5.16,10.36
			5.16,10.36 4.81,10.69 4.81,10.69
			4.81,10.69 4.68,10.80 4.68,10.80
			4.61,10.88 4.55,11.00 4.56,11.11
			4.57,11.32 4.80,11.52 5.01,11.49
			5.20,11.46 5.43,11.21 5.57,11.08
			5.57,11.08 5.89,10.78 5.89,10.78
			5.89,10.78 6.62,10.10 6.62,10.10
			6.62,10.10 9.74,7.22 9.74,7.22
			9.74,7.22 10.59,6.43 10.59,6.43
			10.69,6.34 10.97,6.10 11.03,6.01
			11.21,5.74 10.89,5.36 10.57,5.41 Z
		M 4.12,11.84
		C 4.00,11.82 3.86,11.80 3.78,11.69
			3.73,11.64 3.68,11.51 3.62,11.48
			3.55,11.44 3.41,11.50 3.30,11.48
			3.20,11.45 3.12,11.33 3.02,11.31
			2.90,11.29 2.79,11.46 2.64,11.44
			2.56,11.44 2.47,11.38 2.39,11.41
			2.28,11.45 2.27,11.58 2.14,11.65
			2.05,11.70 1.91,11.68 1.85,11.75
			1.79,11.82 1.82,11.96 1.74,12.07
			1.66,12.16 1.55,12.18 1.51,12.27
			1.48,12.36 1.56,12.48 1.55,12.58
			1.53,12.70 1.40,12.79 1.41,12.91
			1.43,13.01 1.54,13.09 1.57,13.20
			1.60,13.30 1.54,13.41 1.57,13.49
			1.62,13.59 1.73,13.60 1.82,13.70
			1.93,13.81 1.90,13.93 1.96,13.99
			2.01,14.03 2.18,14.03 2.25,14.05
			2.38,14.10 2.42,14.25 2.53,14.28
			2.62,14.30 2.71,14.23 2.81,14.22
			2.94,14.21 3.05,14.32 3.15,14.31
			3.24,14.31 3.28,14.21 3.40,14.14
			3.53,14.07 3.64,14.15 3.73,14.09
			3.82,14.04 3.82,13.90 3.92,13.81
			4.01,13.73 4.12,13.73 4.18,13.66
			4.26,13.56 4.17,13.48 4.23,13.34
			4.27,13.22 4.39,13.17 4.41,13.08
			4.44,12.98 4.34,12.88 4.32,12.78
			4.29,12.65 4.41,12.53 4.38,12.42
			4.35,12.35 4.24,12.28 4.19,12.21
			4.13,12.12 4.12,11.94 4.12,11.84 Z"
	/>
</svg>
