<?xml version="1.0" encoding="UTF-8"?>
<svg clip-rule="evenodd" fill-rule="evenodd" image-rendering="optimizeQuality" shape-rendering="geometricPrecision" text-rendering="geometricPrecision" version="1.1" viewBox="0 0 2400 2400" xmlns="http://www.w3.org/2000/svg">
<path d="m2199.5 859.5c-34.9-3.779-69.9-6.112-105-7-20.14-1.517-40.48-2.184-61-2-14.17 0-28.17 0.333-42 1-120.82 1.693-238.82 20.693-354 57-3.6 0.192-6.6 1.526-9 4h-1c-4.21 0.177-7.87 1.51-11 4-2.29 0.095-4.29 0.762-6 2-3.22-0.155-5.88 0.845-8 3-2.65-0.09-4.99 0.576-7 2-2.9 0.629-5.56 1.629-8 3-234.09 91.42-394.42 255.09-481 491-1.7 3.44-3.04 7.11-4 11v2c-4.29 8.86-7.62 18.19-10 28-2.17 8.36-4.51 16.69-7 25-1.9 2.2-2.9 4.86-3 8-0.67 3.33-1.33 6.67-2 10-1.9 2.2-2.9 4.86-3 8v3c-0.62 0.11-1.12 0.44-1.5 1-1.31 4.25-2.15 8.59-2.5 13-20.64 87.83-32.98 176.83-37 267-1.5 22.65-2.17 45.48-2 68.5 0 15.34 0.33 30.5 1 45.5-0.18 28.88 0.82 57.71 3 86.5-0.01 2.03-0.34 3.87-1 5.5-222.35 0.49-444.69-0.01-667-1.5-71.453-13.14-122.95-52.31-154.5-117.5-8.616-19.47-13.95-39.8-16-61-0.667-414-0.667-828 0-1242 12.728-86.049 60.228-142.88 142.5-170.5 12.109-3.518 24.443-5.852 37-7 207-0.667 414-0.667 621 0 66.33 66.333 132.67 132.67 199 199 273 0.333 546 0.667 819 1 65.41 7.48 115.91 38.647 151.5 93.5 16.05 26.812 25.72 55.812 29 87 0.5 26.331 0.67 52.665 0.5 79z" fill="#388e3c"/>
<path d="m1991.5 851.5c13.83-0.667 27.83-1 42-1 20.52-0.184 40.86 0.483 61 2-34.33-0.61-68.66-0.944-103-1z" fill="#8cc58f"/>
<path d="m1991.5 851.5c34.34 0.056 68.67 0.39 103 1 35.1 0.888 70.1 3.221 105 7 25.76 2.799 51.43 6.299 77 10.5 1.83 0.5 3 1.667 3.5 3.5 28.12 175.76 25.78 351.1-7 526-15.84 77.36-40.34 151.69-73.5 223-36.79 77.13-83.95 147.8-141.5 212-64.01 67.55-137.18 122.55-219.5 165-15.05 8.86-30.71 16.69-47 23.5-112.9 47.97-230.57 76.97-353 87-84.21 7.88-168.54 9.55-253 5-45.92-2.92-91.76-6.75-137.5-11.5-0.95-0.41-1.61-1.07-2-2-3.39-33.97-6.22-67.97-8.5-102 0.66-1.63 0.99-3.47 1-5.5-2.18-28.79-3.18-57.62-3-86.5-0.04-38 0.3-76 1-114 4.02-90.17 16.36-179.17 37-267 1.62-4.48 2.96-9.14 4-14v-3c1.6-2.35 2.6-5.01 3-8 0.67-3.33 1.33-6.67 2-10 1.6-2.35 2.6-5.01 3-8 2.49-8.31 4.83-16.64 7-25 3.9-9.03 7.23-18.36 10-28v-2c2.49-3.13 3.82-6.79 4-11 86.58-235.91 246.91-399.58 481-491 3.22 0.155 5.88-0.845 8-3 2.01-1.424 4.35-2.09 7-2 2.9-0.629 5.56-1.629 8-3 1.71-1.238 3.71-1.905 6-2 3.89-0.962 7.56-2.296 11-4h1c3.41-0.575 6.41-1.908 9-4 115.18-36.307 233.18-55.307 354-57z" fill="#a4d5a6" opacity=".999"/>
<path d="m1637.5 908.5c-2.59 2.092-5.59 3.425-9 4 2.4-2.474 5.4-3.808 9-4z" fill="#76b778"/>
<path d="m1627.5 912.5c-3.44 1.704-7.11 3.038-11 4 3.13-2.49 6.79-3.823 11-4z" fill="#7ab97d"/>
<path d="m1610.5 918.5c-2.44 1.371-5.1 2.371-8 3 2.12-2.155 4.78-3.155 8-3z" fill="#7cbb7e"/>
<path d="m1595.5 923.5c-2.12 2.155-4.78 3.155-8 3 2.44-1.371 5.1-2.371 8-3z" fill="#7ebc81"/>
<path d="m1982.5 1132.5c10.84-1.32 21.84-1.32 33 0-0.36 1.02-1.02 1.69-2 2-9.95-1.98-20.28-2.64-31-2z" fill="#8fc791"/>
<path d="m1980.5 1133.5v-1h2c10.72-0.64 21.05 0.02 31 2h-3c-9.82-0.99-19.82-1.33-30-1z" fill="#5aa45e"/>
<path d="m1980.5 1132.5v1c-12.7 0.11-25.37 0.78-38 2 0.42-0.72 1.08-1.22 2-1.5 11.99-0.9 23.99-1.4 36-1.5z" fill="#71b374"/>
<path d="m1980.5 1133.5c10.18-0.33 20.18 0.01 30 1-35.09 13.71-69.09 29.88-102 48.5-113.68 65.28-216.18 145.45-307.5 240.5-115.79 121.31-210.63 257.31-284.5 408-0.62 0.11-1.12 0.44-1.5 1-0.2-11.67-0.04-23.33 0.5-35 1.87-17.41 3.87-34.75 6-52 2.08-9.13 3.75-18.47 5-28v-1c2-5.71 3-11.71 3-18 0.84-1.88 1.17-3.88 1-6 1.42-2.01 2.09-4.35 2-7v-2c1.42-2.01 2.09-4.35 2-7 1.41-10.32 3.75-20.32 7-30 1.57-1.6 2.24-3.6 2-6-0.28-1.91 0.05-3.58 1-5 1.42-2.01 2.09-4.35 2-7 1.42-2.01 2.09-4.35 2-7 2.44-5 4.11-10.33 5-16 3.58-8.73 6.58-17.73 9-27 37.29-114.14 100.29-211.31 189-291.5 53.52-45.95 113.52-81.45 180-106.5 13.86-4.29 27.53-8.95 41-14 5.67-0.89 11-2.56 16-5 1.07-0.93 2.4-1.27 4-1 2.65 0.09 4.99-0.58 7-2 1.07-0.93 2.4-1.27 4-1 2.65 0.09 4.99-0.58 7-2 6.18 0.37 11.85-0.96 17-4h2c2.65 0.09 4.99-0.58 7-2h4c4.3-0.25 8.3-1.25 12-3 2.79-0.98 5.79-1.31 9-1 3.23-0.18 6.23-0.84 9-2h2c4.29 0.3 8.29-0.36 12-2h1c11.93-0.78 23.59-2.45 35-5 7.33-0.44 14.66-0.78 22-1 12.63-1.22 25.3-1.89 38-2z" fill="#388e3c"/>
<path d="m1920.5 1136.5c-11.41 2.55-23.07 4.22-35 5 11.42-2.44 23.09-4.11 35-5z" fill="#60a862"/>
<path d="m1884.5 1141.5c-3.71 1.64-7.71 2.3-12 2 3.71-1.64 7.71-2.3 12-2z" fill="#58a35b"/>
<path d="m1870.5 1143.5c-2.77 1.16-5.77 1.82-9 2 0.11-0.62 0.44-1.12 1-1.5 2.65-0.5 5.31-0.66 8-0.5z" fill="#66ac69"/>
<path d="m1852.5 1146.5c-3.7 1.75-7.7 2.75-12 3 0.11-0.62 0.44-1.12 1-1.5 3.67-0.55 7.34-1.05 11-1.5z" fill="#62aa65"/>
<path d="m1836.5 1149.5c-2.01 1.42-4.35 2.09-7 2 2.01-1.42 4.35-2.09 7-2z" fill="#67ad6a"/>
<path d="m1827.5 1151.5c-5.15 3.04-10.82 4.37-17 4 5.48-1.64 11.15-2.98 17-4z" fill="#59a35c"/>
<path d="m1810.5 1155.5c-2.01 1.42-4.35 2.09-7 2 2.01-1.42 4.35-2.09 7-2z" fill="#66ac69"/>
<path d="m1799.5 1158.5c-2.01 1.42-4.35 2.09-7 2 2.01-1.42 4.35-2.09 7-2z" fill="#64aa67"/>
<path d="m1788.5 1161.5c-5 2.44-10.33 4.11-16 5 5-2.44 10.33-4.11 16-5z" fill="#5da660"/>
<path d="m1772.5 1166.5c-13.47 5.05-27.14 9.71-41 14 13.17-5.84 26.84-10.5 41-14z" fill="#56a159"/>
<path d="m1106.5 1417.5c-0.18 4.21-1.51 7.87-4 11 0.96-3.89 2.3-7.56 4-11z" fill="#79b87b"/>
<path d="m1102.5 1430.5c-2.77 9.64-6.1 18.97-10 28 2.38-9.81 5.71-19.14 10-28z" fill="#6fb271"/>
<path d="m1085.5 1483.5c-0.4 2.99-1.4 5.65-3 8 0.1-3.14 1.1-5.8 3-8z" fill="#60a862"/>
<path d="m1080.5 1501.5c-0.4 2.99-1.4 5.65-3 8 0.1-3.14 1.1-5.8 3-8z" fill="#5ea761"/>
<path d="m1077.5 1512.5c-1.04 4.86-2.38 9.52-4 14 0.35-4.41 1.19-8.75 2.5-13 0.38-0.56 0.88-0.89 1.5-1z" fill="#5ba45e"/>
<path d="m1362.5 1578.5c-2.42 9.27-5.42 18.27-9 27 2.03-9.41 5.03-18.41 9-27z" fill="#5aa45d"/>
<path d="m1353.5 1605.5c-0.89 5.67-2.56 11-5 16 0.89-5.67 2.56-11 5-16z" fill="#5ca55f"/>
<path d="m1348.5 1621.5c0.09 2.65-0.58 4.99-2 7-0.09-2.65 0.58-4.99 2-7z" fill="#61a863"/>
<path d="m2199.5 1622.5c0.17 65.67 0 131.33-0.5 197-9.31 69.51-44.14 121.68-104.5 156.5-23.51 12.5-48.51 20.17-75 23-60.33 0.5-120.67 0.67-181 0.5 82.32-42.45 155.49-97.45 219.5-165 57.55-64.2 104.71-134.87 141.5-212z" fill="#388e3c" opacity=".996"/>
<path d="m1346.5 1628.5c0.09 2.65-0.58 4.99-2 7-0.09-2.65 0.58-4.99 2-7z" fill="#63aa66"/>
<path d="m1343.5 1640.5c0.24 2.4-0.43 4.4-2 6-0.24-2.4 0.43-4.4 2-6z" fill="#62a965"/>
<path d="m1334.5 1676.5c0.09 2.65-0.58 4.99-2 7-0.09-2.65 0.58-4.99 2-7z" fill="#70b373"/>
<path d="m1332.5 1685.5c0.09 2.65-0.58 4.99-2 7-0.09-2.65 0.58-4.99 2-7z" fill="#75b678"/>
<path d="m1329.5 1698.5c0 6.29-1 12.29-3 18 0-6.29 1-12.29 3-18z" fill="#65ab68"/>
<path d="m1326.5 1717.5c-1.25 9.53-2.92 18.87-5 28 0.62-8.73 1.79-17.4 3.5-26 0.28-0.92 0.78-1.58 1.5-2z" fill="#74b576"/>
<path d="m1315.5 1797.5c-0.54 11.67-0.7 23.33-0.5 35 0.38-0.56 0.88-0.89 1.5-1 0.09 1.5-0.58 2.5-2 3-1.38-12.53-1.04-24.86 1-37z" fill="#77b779"/>
<path d="m1036.5 1793.5c-0.7 38-1.04 76-1 114-0.67-15-1-30.16-1-45.5-0.17-23.02 0.5-45.85 2-68.5z" fill="#8ac48c"/>
</svg>
