<?xml version="1.0" encoding="UTF-8" standalone="no"?>
<svg
   xmlns:dc="http://purl.org/dc/elements/1.1/"
   xmlns:cc="http://creativecommons.org/ns#"
   xmlns:rdf="http://www.w3.org/1999/02/22-rdf-syntax-ns#"
   xmlns:svg="http://www.w3.org/2000/svg"
   xmlns="http://www.w3.org/2000/svg"
   xmlns:sodipodi="http://sodipodi.sourceforge.net/DTD/sodipodi-0.dtd"
   xmlns:inkscape="http://www.inkscape.org/namespaces/inkscape"
   version="1.1"
   width="24"
   height="24"
   viewBox="0 0 24 24"
   id="svg4"
   sodipodi:docname="folder-src-open.svg"
   inkscape:version="0.92.1 r15371">
  <metadata
     id="metadata10">
    <rdf:RDF>
      <cc:Work
         rdf:about="">
        <dc:format>image/svg+xml</dc:format>
        <dc:type
           rdf:resource="http://purl.org/dc/dcmitype/StillImage" />
      </cc:Work>
    </rdf:RDF>
  </metadata>
  <defs
     id="defs8" />
  <sodipodi:namedview
     pagecolor="#ffffff"
     bordercolor="#666666"
     borderopacity="1"
     objecttolerance="10"
     gridtolerance="10"
     guidetolerance="10"
     inkscape:pageopacity="0"
     inkscape:pageshadow="2"
     inkscape:window-width="1366"
     inkscape:window-height="705"
     id="namedview6"
     showgrid="false"
     inkscape:zoom="9.8333333"
     inkscape:cx="-5.2881356"
     inkscape:cy="12"
     inkscape:window-x="-8"
     inkscape:window-y="-8"
     inkscape:window-maximized="1"
     inkscape:current-layer="svg4" />
  <path
     style="fill:#90a4ae;fill-opacity:1"
     d="M 4 4 C 2.89 4 2 4.89 2 6 L 2 18 C 2 19.1 2.89 20 4 20 L 19 20 C 19.92 20 20.699687 19.37 20.929688 18.5 L 23.210938 10 L 6.140625 10 L 4 18 L 4 8 L 21 8 A 2 2 0 0 0 19 6 L 12 6 L 10 4 L 4 4 z M 12.837891 11.525391 L 13.738281 12.753906 L 10.845703 15.033203 L 12.515625 17.314453 L 10.958984 18.542969 L 8.390625 15.033203 L 12.837891 11.525391 z M 16.347656 11.525391 L 18.916016 15.033203 L 14.466797 18.542969 L 13.568359 17.314453 L 16.458984 15.033203 L 14.789062 12.753906 L 16.347656 11.525391 z "
     id="path2" />
</svg>
