<?xml version="1.0" encoding="utf-8"?>
<!-- Generator: Adobe Illustrator 23.0.2, SVG Export Plug-In . SVG Version: 6.00 Build 0)  -->
<svg version="1.1" id="Camada_1" xmlns="http://www.w3.org/2000/svg" xmlns:xlink="http://www.w3.org/1999/xlink" x="0px" y="0px"
	 viewBox="0 0 24 24" style="enable-background:new 0 0 24 24;" xml:space="preserve">
<style type="text/css">
	.st0{fill:#FF5252;}
	.st1{fill:#FFCDD2;}
</style>
<path class="st0" d="M10,4H4C2.9,4,2,4.9,2,6v12c0,1.1,0.9,2,2,2h16c1.1,0,2-0.9,2-2V8c0-1.1-0.9-2-2-2h-8L10,4z"/>
<g>
	<path class="st1" d="M16.7,17h1.2v1.2h-1.2V17 M16.7,12.3h1.2v3.5h-1.2V12.3 M17.2,9.4c-3.3,0-5.9,2.7-5.9,5.9
		c0,3.3,2.6,5.9,5.9,5.9s5.9-2.6,5.9-5.9S20.5,9.4,17.2,9.4 M17.2,20c-2.6,0-4.7-2.1-4.7-4.7s2.1-4.7,4.7-4.7s4.7,2.1,4.7,4.7
		S19.9,20,17.2,20z"/>
</g>
</svg>
