<svg xmlns="http://www.w3.org/2000/svg" viewBox="0 0 32 32">
  <path d="M13.84376,7.53645l-1.28749-1.0729A2,2,0,0,0,11.27591,6H4A2,2,0,0,0,2,8V24a2,2,0,0,0,2,2H28a2,2,0,0,0,2-2V10a2,2,0,0,0-2-2H15.12412A2,2,0,0,1,13.84376,7.53645Z" style="fill: #546e7a"/>
  <path d="M12,10l6.70979,6H13.9854l4.67169,4H11.98053L20,28.02542V12h3.54845L25.132,14H22v6h1.97926l1.97925,2h-3.9832L22,22.02467V28H32l-4-3.03264V23.746l.65659.65458L28,18H26V15.99031l4,1.99676v-5.9903l-6-.99839L21.92319,10Z" style="fill: #fbc02d;fill-opacity: 0.976000010967255;fill-rule: evenodd"/>
</svg>
