<svg xmlns="http://www.w3.org/2000/svg" viewBox="0 0 32 32"><path d="M28.97062,11.99813H9.4425A2.00033,2.00033,0,0,0,7.545,13.36625L4.00063,23.99938V9.9975H28.00375a2.00079,2.00079,0,0,0-2.00063-2H15.12562a2.00077,2.00077,0,0,1-1.28-.46375L12.5575,6.46125a1.99939,1.99939,0,0,0-1.28-.46375H4.00063A2.00039,2.00039,0,0,0,2,7.9975V23.99938A2.00052,2.00052,0,0,0,4.00063,26H26.00312l4.80563-11.21375a1.99992,1.99992,0,0,0-1.83813-2.78812Z" style="fill:#607d8b"/><path d="M14,20v6H10Zm4.02563-5.34192-2.385.795a1.49448,1.49448,0,0,0-.86688,2.09376L15.3075,18.615l4.69622-1.62378c.0138-.2937-.00372-.60248-.00372-.91A1.49644,1.49644,0,0,0,18.02563,14.65808ZM30.91216,20.16l-5.54581-5.18023C24.27166,13.99878,23.84953,14,22,14v3.0119a3.361,3.361,0,0,1-1.30127,2.78748L24,24l5.87634,1.67555c.6053-.698.84986-1.00459,1.37945-1.59431A2.58274,2.58274,0,0,0,30.91216,20.16Z" style="fill:#f44336"/><path d="M10,26l4-2,4,2-4,2Zm10.69873-6.20062a19.76172,19.76172,0,0,1-2.46246,1.31469A3.49422,3.49422,0,0,1,16,21.41632V22.7547l8.98065,4.88794a3.2174,3.2174,0,0,0,4.05383-.999c.33289-.38422.50458-.58307.84186-.96808ZM15.5725,17.91l3.75562-1.40813a.49865.49865,0,0,1,.675.49251,1.47908,1.47908,0,0,1-.83187,1.42l-1.82937.915C15.9425,20.02875,14.62375,18.26625,15.5725,17.91Z" style="fill:#b71c1c"/></svg>