<?xml version="1.0" encoding="utf-8"?>
<svg xmlns="http://www.w3.org/2000/svg" viewBox="0 0 32 32" xmlns:bx="https://boxy-svg.com" width="32px" height="32px"><defs><bx:export><bx:file format="svg"/></bx:export></defs><path d="M 28.967 11.989 L 9.442 11.989 C 8.58 11.989 7.816 12.54 7.544 13.357 L 4 23.989 L 4 9.989 L 28 9.989 C 28 8.884 27.104 7.989 26 7.989 L 15.124 7.989 C 14.656 7.989 14.203 7.824 13.844 7.525 L 12.556 6.453 C 12.196 6.153 11.743 5.989 11.276 5.989 L 4 5.989 C 2.895 5.989 2 6.884 2 7.989 L 2 23.989 C 2 25.093 2.895 25.989 4 25.989 L 26 25.989 L 30.805 14.777 C 31.37 13.457 30.402 11.989 28.967 11.989" style="fill: rgb(239, 108, 0);"/><path d="M 26.954 11.225 C 26.982 11.225 26.982 11.225 27.01 11.225 C 27.106 11.225 27.2 11.225 27.295 11.225 C 27.371 11.225 27.448 11.225 27.528 11.223 C 28.023 11.22 28.507 11.237 28.996 11.308 C 29.017 11.312 29.035 11.314 29.055 11.317 C 29.156 11.332 29.252 11.351 29.35 11.368 C 29.393 11.375 29.393 11.375 29.439 11.384 C 30.218 11.537 30.967 11.783 31.694 12.103 C 31.777 12.142 31.859 12.178 31.942 12.21 C 31.942 12.22 31.942 12.228 31.942 12.236 C 31.771 12.225 31.609 12.199 31.444 12.168 C 30.394 11.966 29.306 11.93 28.25 12.083 C 28.218 12.088 28.188 12.092 28.156 12.096 C 26.169 12.393 24.319 13.215 22.543 14.121 C 22.573 14.114 22.606 14.107 22.638 14.098 C 23.773 13.821 24.911 13.56 26.08 13.476 C 26.098 13.476 26.117 13.472 26.137 13.472 C 27.87 13.337 29.569 13.667 31.144 14.395 C 31.16 14.405 31.178 14.411 31.199 14.42 C 31.317 14.478 31.317 14.478 31.346 14.539 C 31.319 14.531 31.297 14.525 31.269 14.522 C 31.173 14.506 31.074 14.488 30.974 14.471 C 30.933 14.463 30.891 14.458 30.85 14.451 C 29.188 14.165 27.553 14.34 25.951 14.844 C 25.927 14.852 25.901 14.863 25.876 14.866 C 24.679 15.24 23.53 15.791 22.416 16.354 C 22.222 16.451 22.028 16.545 21.83 16.64 C 21.677 16.715 21.523 16.786 21.372 16.864 C 21.351 16.873 21.335 16.885 21.313 16.893 C 21.296 16.903 21.276 16.914 21.254 16.924 C 19.73 17.694 18.094 18.417 16.37 18.562 C 16.342 18.567 16.312 18.568 16.284 18.572 C 15.542 18.633 14.802 18.575 14.073 18.433 C 14.051 18.43 14.025 18.425 14.001 18.421 C 13.93 18.405 13.858 18.39 13.789 18.377 C 13.768 18.375 13.746 18.37 13.723 18.366 C 13.605 18.339 13.545 18.304 13.475 18.2 C 13.453 18.159 13.426 18.114 13.403 18.072 C 13.393 18.052 13.383 18.033 13.366 18.012 C 13.332 17.944 13.295 17.879 13.259 17.811 C 13.15 17.611 13.042 17.412 12.929 17.215 C 12.807 17.001 12.685 16.781 12.564 16.564 C 12.443 16.345 12.325 16.13 12.205 15.916 C 12.066 15.674 11.928 15.428 11.792 15.183 C 11.69 14.995 11.586 14.811 11.479 14.627 C 11.359 14.411 11.236 14.195 11.12 13.981 C 10.996 13.759 10.871 13.534 10.744 13.313 C 10.733 13.291 10.719 13.266 10.704 13.24 C 10.644 13.133 10.582 13.027 10.524 12.921 C 10.513 12.908 10.503 12.888 10.494 12.872 C 10.468 12.827 10.442 12.783 10.417 12.738 C 10.382 12.677 10.382 12.677 10.382 12.626 C 10.48 12.639 10.567 12.67 10.662 12.702 C 10.692 12.714 10.722 12.725 10.75 12.737 C 10.781 12.747 10.812 12.758 10.845 12.771 C 11.738 13.093 12.647 13.317 13.592 13.431 C 13.608 13.434 13.627 13.438 13.643 13.438 C 14.096 13.494 14.541 13.509 14.995 13.509 C 15.025 13.509 15.05 13.509 15.079 13.509 C 16.606 13.509 18.096 13.23 19.574 12.855 C 19.592 12.854 19.613 12.847 19.629 12.841 C 20.181 12.702 20.727 12.541 21.272 12.38 C 25.15 11.231 25.15 11.231 26.954 11.225 Z" style="fill: rgb(255, 224, 178);"/><path d="M 13.391 21.261 C 9.91 13.768 10.403 13.662 14.682 21.261 C 14.729 21.354 14.773 21.444 14.821 21.54 C 14.926 21.752 15.033 21.961 15.145 22.168 C 15.251 22.375 15.361 22.582 15.465 22.791 C 15.593 23.037 15.721 23.281 15.847 23.526 C 15.961 23.744 16.074 23.965 16.188 24.181 C 16.195 24.198 16.203 24.214 16.213 24.231 C 16.254 24.309 16.294 24.39 16.335 24.471 C 16.419 24.627 16.502 24.786 16.581 24.944 C 16.591 24.959 16.598 24.974 16.606 24.991 C 16.721 25.217 16.84 25.44 16.956 25.666 C 16.97 25.694 16.985 25.722 17 25.752 C 17.084 25.916 17.172 26.08 17.255 26.243 C 17.31 26.347 17.362 26.452 17.414 26.556 C 17.463 26.646 17.51 26.735 17.56 26.822 C 17.663 27.007 17.716 27.166 17.678 27.38 C 17.622 27.571 17.495 27.677 17.332 27.782 C 17.135 27.885 16.944 27.903 16.721 27.87 C 16.431 27.763 16.306 27.517 16.18 27.251 C 16.153 27.191 16.125 27.129 16.095 27.066 C 16.076 27.025 16.056 26.979 16.036 26.937 C 15.991 26.846 15.95 26.756 15.909 26.662 C 15.82 26.474 15.728 26.285 15.639 26.096 C 15.591 25.993 15.542 25.891 15.495 25.79 C 15.483 25.77 15.474 25.748 15.463 25.728 C 15.355 25.493 15.243 25.258 15.133 25.023 C 14.99 24.726 14.849 24.427 14.708 24.126 C 14.55 23.789 14.39 23.453 14.231 23.114 C 14.124 22.891 14.018 22.668 13.912 22.445 C 13.904 22.423 13.891 22.4 13.882 22.378 C 13.829 22.273 13.781 22.166 13.73 22.061 C 13.694 21.986 13.657 21.909 13.622 21.835 C 13.588 21.761 13.552 21.687 13.52 21.615 C 13.503 21.579 13.484 21.544 13.469 21.509 C 13.461 21.491 13.453 21.476 13.442 21.461 C 13.411 21.387 13.391 21.341 13.391 21.261 Z" style="fill: rgb(245, 245, 245);"/><path d="M 10.022 12.677 C 10.151 12.781 10.215 12.916 10.284 13.068 C 10.309 13.119 10.335 13.172 10.361 13.222 C 10.373 13.249 10.386 13.274 10.399 13.298 C 10.447 13.401 10.5 13.502 10.553 13.602 C 10.673 13.826 10.792 14.055 10.909 14.284 C 11.034 14.529 11.157 14.77 11.284 15.012 C 11.412 15.253 11.534 15.496 11.662 15.735 C 11.797 16.003 11.936 16.268 12.075 16.537 C 12.177 16.732 12.279 16.931 12.383 17.124 C 12.393 17.148 12.393 17.148 12.406 17.17 C 12.416 17.194 12.416 17.194 12.429 17.221 C 12.447 17.251 12.464 17.281 12.48 17.315 C 12.488 17.331 12.495 17.347 12.505 17.363 C 12.588 17.528 12.672 17.694 12.759 17.855 C 12.773 17.883 12.788 17.913 12.803 17.944 C 12.836 18.001 12.865 18.059 12.894 18.114 C 12.983 18.288 13.075 18.464 13.165 18.637 C 13.239 18.78 13.314 18.925 13.391 19.07 C 13.538 19.356 13.685 19.638 13.829 19.923 C 13.857 19.97 13.88 20.017 13.904 20.063 C 13.912 20.08 13.919 20.094 13.926 20.11 C 13.945 20.14 13.959 20.172 13.977 20.204 C 14.025 20.299 14.073 20.394 14.124 20.491 C 14.155 20.555 14.192 20.619 14.224 20.685 C 14.245 20.727 14.268 20.772 14.293 20.816 C 14.351 20.929 14.407 21.039 14.472 21.148 C 14.513 21.222 14.513 21.222 14.513 21.274 C 14.188 21.274 13.865 21.274 13.531 21.274 C 13.287 20.755 13.039 20.235 12.794 19.716 C 12.653 19.418 12.511 19.119 12.369 18.822 C 12.211 18.484 12.052 18.148 11.891 17.806 C 11.751 17.51 11.609 17.21 11.468 16.912 C 11.308 16.576 11.146 16.236 10.986 15.896 C 10.858 15.62 10.724 15.339 10.591 15.06 C 10.392 14.635 10.188 14.207 9.991 13.783 C 9.949 13.7 9.91 13.616 9.873 13.534 C 9.831 13.45 9.792 13.363 9.751 13.274 C 9.736 13.25 9.727 13.228 9.716 13.202 C 9.615 12.986 9.615 12.986 9.634 12.855 C 9.732 12.7 9.833 12.652 10.022 12.677 Z" style="fill: rgb(245, 245, 245);"/></svg>