<svg xmlns="http://www.w3.org/2000/svg" viewBox="0 0 32 32"><path d="M28.966,12H9.442a2,2,0,0,0-1.898,1.368L4,24V10H28a2,2,0,0,0-2-2H15.124a2,2,0,0,1-1.28-.464L12.556,6.464A2,2,0,0,0,11.276,6H4A2,2,0,0,0,2,8V24a2,2,0,0,0,2,2H26l4.806-11.212A2,2,0,0,0,28.966,12" style="fill:#388e3c"/><path d="M24,10.85714l-8,4.57143v9.14286l8,4.57143,8-4.57143V15.42857ZM28,23.5a.5.5,0,0,1-.5.5H26.24a.5.5,0,0,1-.39-.1875L22,19v4.5a.5.5,0,0,1-.5.5h-1a.5.5,0,0,1-.5-.5v-7a.5.5,0,0,1,.5-.5h1.26a.5.5,0,0,1,.39.1875L26,21V16.5a.5.5,0,0,1,.5-.5h1a.5.5,0,0,1,.5.5Z" style="fill:#a5d6a7"/></svg>
