<svg xmlns="http://www.w3.org/2000/svg" xml:space="preserve" viewBox="0 0 32 32"><path fill="#0288d1" d="M29 12H9.4a2 2 0 0 0-1.9 1.4L4 24V10h24a2 2 0 0 0-2-2H15.1a2 2 0 0 1-1.3-.5l-1.2-1a2 2 0 0 0-1.3-.5H4a2 2 0 0 0-2 2v16a2 2 0 0 0 2 2h22l4.8-11.2A2 2 0 0 0 29 12Z"/><path fill="none" stroke="#b3e5fc" stroke-width="1.93" d="M30.64 28.54a10.8 3.41 45 0 1-10.01-5.23 10.8 3.41 45 0 1-5.24-10.01 10.8 3.41 45 0 1 10.02 5.23 10.8 3.41 45 0 1 5.23 10.01zm0-15.24a3.41 10.8 45 0 1-5.23 10.01 3.41 10.8 45 0 1-10.02 5.23 3.41 10.8 45 0 1 5.24-10 3.41 10.8 45 0 1 10.01-5.24z" paint-order="stroke fill markers"/></svg>