<svg width="97" height="97" viewBox="0 0 97 97" fill="none" xmlns="http://www.w3.org/2000/svg">
<path d="M41.9646 22.8435L38.0604 19.594C36.9713 18.6858 35.5984 18.1881 34.1804 18.1875H12.125C10.5171 18.1875 8.9751 18.8262 7.83816 19.9632C6.70123 21.1001 6.0625 22.6421 6.0625 24.25V72.75C6.0625 74.3579 6.70123 75.8999 7.83816 77.0368C8.9751 78.1738 10.5171 78.8125 12.125 78.8125H84.875C86.4829 78.8125 88.0249 78.1738 89.1618 77.0368C90.2988 75.8999 90.9375 74.3579 90.9375 72.75V30.3125C90.9375 28.7046 90.2988 27.1626 89.1618 26.0257C88.0249 24.8887 86.4829 24.25 84.875 24.25H45.8446C44.4266 24.2494 43.0537 23.7517 41.9646 22.8435Z" fill="#EF5350"/>
<path d="M72.1826 33.0803C72.9512 32.9706 73.6657 32.9759 74.3789 33.0803C75.7651 33.2834 77.0829 33.7595 78.332 34.5081C83.3474 37.4919 88.399 40.4204 93.4863 43.2932C95.2538 44.8211 96.4248 46.6882 97 48.8938V68.4407C96.5526 70.8385 95.3814 72.8516 93.4863 74.4798C88.2527 77.4258 83.0544 80.4277 77.8926 83.4846C76.8297 84.0587 75.7317 84.4614 74.5986 84.6926C73.6104 84.8024 72.7314 84.8024 71.7432 84.6926C70.645 84.5828 59.5467 78.0076 53.5137 74.4798C51.7477 72.9554 50.5765 71.0882 50 68.8792V48.8938C50.5751 46.6882 51.7463 44.8211 53.5137 43.2932C58.601 40.4204 63.6526 37.4919 68.668 34.5081C69.7932 33.8328 70.9652 33.3568 72.1826 33.0803ZM56.5889 47.7952C56.0823 48.1196 55.6795 48.5587 55.3809 49.1126C55.2344 55.6281 55.2344 62.1439 55.3809 68.6594C55.6181 69.2076 55.9114 69.7209 56.2598 70.1975C61.0005 73.0991 65.7954 75.9173 70.6445 78.6526C71.8295 79.5468 73.1474 79.8401 74.5977 79.5315C79.7221 76.6033 84.8472 73.6746 89.9717 70.7464C90.7011 70.2078 91.2504 69.512 91.6191 68.6594C91.7656 62.0709 91.7656 55.4824 91.6191 48.8938C90.8386 47.8065 89.8503 47.5495 88.6543 48.1243C83.6675 51.2763 78.616 54.3152 73.5 57.2395C68.3841 54.3152 63.3326 51.2763 58.3457 48.1243C57.7938 47.8493 57.2081 47.7398 56.5889 47.7952ZM72.8408 38.5706C69.0562 40.6104 65.3223 42.7705 61.6396 45.0501C62.6281 45.5807 63.5801 46.1662 64.4951 46.8069C64.9045 47.0926 65.3437 47.1659 65.8125 47.0266C68.3121 45.484 70.875 44.056 73.5 42.7434C76.26 44.1845 78.9685 45.7221 81.626 47.3557C82.8705 46.5871 84.1149 45.8187 85.3594 45.0501C82.2846 43.2199 79.2095 41.3891 76.1348 39.5589C75.1273 38.9229 74.0292 38.5933 72.8408 38.5706Z" fill="#FFCDD2"/>
<path fill-rule="evenodd" clip-rule="evenodd" d="M59.2227 53.2861C63.6457 55.9006 68.0382 58.5728 72.4003 61.3025C73.1323 61.7418 73.8646 61.7418 74.5966 61.3025C78.9342 58.6029 83.2901 55.9307 87.6644 53.2861C87.8473 58.0463 87.8106 62.805 87.5545 67.5619C82.8693 70.2705 78.1837 72.9794 73.4984 75.688C68.8131 72.9794 64.1277 70.2705 59.4424 67.5619C59.2228 62.8056 59.1496 58.047 59.2227 53.2861Z" fill="#FFCDD2"/>
</svg>
