<?xml version="1.0" encoding="UTF-8"?>
<svg id="Camada_2" data-name="Camada 2" xmlns="http://www.w3.org/2000/svg" viewBox="0 0 273.69 230.42">
  <defs>
    <style>
      .cls-1 {
        fill: #92c100;
      }

      .cls-2 {
        fill: #fff;
      }

      .cls-3 {
        fill: #6d9a00;
      }
    </style>
  </defs>
  <g id="Camada_1-2" data-name="Camada 1">
    <g>
      <path class="cls-1" d="m223.11,22.37h-102.27L99.11.21H27.41S0-4.24,0,28.06v148.59c0,13.5,10.94,24.44,24.44,24.44h198.67c13.5,0,24.44-10.94,24.44-24.44V46.82c0-13.5-10.94-24.44-24.44-24.44Z"/>
      <g>
        <path class="cls-2" d="m273.69,158.55c0,39.7-32.18,71.87-71.88,71.87-39.7,0-71.87-32.18-71.87-71.88,0-39.7,32.18-71.87,71.88-71.87,19.06,0,37.34,7.57,50.82,21.05,13.5,13.47,21.08,31.76,21.05,50.83Z"/>
        <path class="cls-3" d="m262.91,158.55c0,33.74-27.36,61.09-61.1,61.09-33.74,0-61.09-27.36-61.09-61.1,0-33.74,27.36-61.09,61.1-61.09,16.2,0,31.74,6.44,43.2,17.9,11.47,11.45,17.91,26.99,17.89,43.2Z"/>
        <path class="cls-2" d="m179.53,158.46c-.11-2.66,1.95-4.9,4.61-5.01.13,0,.27,0,.4,0,2.77,0,5.01,2.25,5.01,5.02,0,2.77-2.25,5.01-5.02,5.01-2.77,0-5.01-2.25-5.01-5.01Z"/>
        <path class="cls-2" d="m196.84,158.46c-.11-2.66,1.95-4.9,4.61-5.01.13,0,.27,0,.4,0,2.77,0,5.01,2.25,5.01,5.02,0,2.77-2.25,5.01-5.02,5.01-2.77,0-5.01-2.25-5.01-5.01Z"/>
        <path class="cls-2" d="m214.13,158.46c-.11-2.66,1.95-4.9,4.61-5.01.13,0,.27,0,.4,0,2.77,0,5.01,2.25,5.01,5.02,0,2.77-2.25,5.01-5.02,5.01-2.77,0-5.01-2.25-5.01-5.01Z"/>
        <path class="cls-2" d="m158.78,163.12v-8.97c1.54,0,3.06-.25,4.52-.73.95-.53,1.73-1.31,2.25-2.26.69-1.23,1.13-2.58,1.3-3.98.23-2.07.33-4.16.28-6.24-.11-3.38.11-6.77.63-10.11.32-1.72,1.11-3.32,2.29-4.62,1.08-1.33,2.53-2.31,4.16-2.83,2.21-.54,4.48-.76,6.76-.67h1.86v7.38c-1.69-.1-3.38.05-5.02.47-.69.27-1.27.77-1.64,1.42-.4,1.58-.57,3.2-.51,4.83,0,1.57-.11,4.55-.32,8.94-.05,2.03-.35,4.05-.91,6-.41,1.36-1.04,2.65-1.88,3.79-1,1.2-2.18,2.24-3.5,3.08,1.3.78,2.46,1.78,3.4,2.97.93,1.23,1.61,2.62,2.02,4.11.54,2.13.85,4.31.91,6.5.16,4.14.25,6.78.25,7.93-.06,1.61.13,3.23.56,4.78.39.67.99,1.18,1.71,1.48,1.61.44,3.28.62,4.94.51v7.63h-1.86c-2.25.05-4.49-.28-6.63-.99-1.63-.49-3.11-1.4-4.28-2.63-1.19-1.3-2-2.9-2.34-4.62-.48-2.86-.68-5.76-.6-8.66.12-2.99-.07-5.99-.56-8.94-.31-1.64-1.13-3.13-2.34-4.28-1.67-.9-3.55-1.34-5.45-1.28Z"/>
        <path class="cls-2" d="m239.21,164.42c-1.21,1.15-2.03,2.64-2.34,4.28-.5,2.95-.69,5.95-.56,8.94.08,2.89-.13,5.78-.61,8.64-.34,1.73-1.15,3.32-2.34,4.62-1.17,1.25-2.64,2.17-4.28,2.67-2.14.7-4.38,1.04-6.63.99h-1.86v-7.61c1.67.1,3.34-.07,4.94-.51.72-.29,1.32-.81,1.71-1.48.44-1.56.63-3.17.56-4.78,0-1.15.08-3.79.25-7.93.07-2.19.38-4.37.92-6.5.41-1.48,1.1-2.88,2.02-4.11.94-1.19,2.09-2.2,3.4-2.97-1.32-.84-2.5-1.88-3.5-3.08-.84-1.15-1.48-2.43-1.88-3.79-.56-1.95-.87-3.97-.91-6-.21-4.39-.32-7.37-.32-8.94.06-1.63-.12-3.25-.51-4.83-.37-.65-.94-1.15-1.64-1.42-1.64-.41-3.33-.57-5.02-.47v-7.43h1.86c2.27-.09,4.55.14,6.76.67,1.63.52,3.08,1.51,4.16,2.83,1.18,1.3,1.97,2.9,2.29,4.62.53,3.34.74,6.73.63,10.11-.05,2.08.05,4.17.28,6.24.17,1.4.61,2.75,1.3,3.98.52.95,1.3,1.74,2.25,2.26,1.46.49,2.99.74,4.53.74v8.95c-1.91-.06-3.79.39-5.47,1.3Z"/>
      </g>
    </g>
  </g>
</svg>