<svg xmlns="http://www.w3.org/2000/svg" viewBox="0 0 16 16"><path id="folder" fill="#1e88e5" d="m6.922 3.768-.644-.536A1 1 0 0 0 5.638 3H2a1 1 0 0 0-1 1v8a1 1 0 0 0 1 1h12a1 1 0 0 0 1-1V5a1 1 0 0 0-1-1H7.562a1 1 0 0 1-.64-.232"/><path id="motive" fill="#bbdefb" d="m14 11 1.862-.931A.25.25 0 0 0 16 9.845V6.25a.25.25 0 0 0-.25-.25h-3.595a.25.25 0 0 0-.224.138L11 8H8.25a.25.25 0 0 0-.25.25V10l.586.586.707-.707.707.707-.707.707 1.414 1.414.707-.707.707.707-.707.707L12 14h1.75a.25.25 0 0 0 .25-.25Zm0-2a1 1 0 1 1 1-1 1 1 0 0 1-1 1m-6 5v-2H7v3h3v-1z"/></svg>