<svg clip-rule="evenodd" stroke-linejoin="round" stroke-miterlimit="1.414" viewBox="0 0 24 24" version="1.1" id="svg2" xmlns="http://www.w3.org/2000/svg"><path d="M19 20H4a2 2 0 0 1-2-2V6c0-1.11.89-2 2-2h6l2 2h7c1.097 0 2 .903 2 2H4v10l2.14-8h17.07l-2.28 8.5c-.23.87-1.01 1.5-1.93 1.5z" fill="#26C6DA"/><path fill="#b3e5fc" d="m 23.334478,17.666827 c 0,0.246419 -0.136179,0.460415 -0.34369,0.570655 l -5.122919,2.87921 c -0.103756,0.07782 -0.23345,0.116725 -0.369629,0.116725 -0.136179,0 -0.265873,-0.03891 -0.369628,-0.116725 l -5.12292,-2.87921 a 0.64263461,0.64263461 0 0 1 -0.34369,-0.570655 V 11.83059 c 0,-0.246419 0.136179,-0.460414 0.34369,-0.570654 l 5.12292,-2.879211 C 17.232367,8.302908 17.362061,8.264 17.49824,8.264 c 0.136179,0 0.265873,0.03891 0.369629,0.116725 l 5.122919,2.879211 c 0.207511,0.11024 0.34369,0.324235 0.34369,0.570654 v 5.836237 M 17.49824,9.658213 13.633354,11.83059 17.49824,14.002967 21.363127,11.83059 17.49824,9.658213 m -4.539296,7.626017 3.890825,2.191831 v -4.351239 l -3.890825,-2.185347 v 4.344755 m 9.078592,0 v -4.344755 l -3.890825,2.185347 v 4.351239 z"/></svg>
