<svg xmlns="http://www.w3.org/2000/svg" viewBox="0 0 16 16">
<path id="folder" fill="#ff4081" d="m6.922 3.768-.644-.536A1 1 0 0 0 5.638 3H2a1 1 0 0 0-1 1v8a1 1 0 0 0 1 1h12a1 1 0 0 0 1-1V5a1 1 0 0 0-1-1H7.562a1 1 0 0 1-.64-.232" />
<path id="motive" fill="#ffcdd2" d="m 11.753003,7.9567197 c 0,0.2692848 1.877498,0.1418332 2.130998,-0.049592 0,-1.8562281 -1.021999,-2.8336863 -2.891998,-2.8336863 -1.8629982,0 -2.9069972,0.9918399 -2.9069972,2.4796001 0,2.5857265 3.5734972,2.6353185 3.5734972,4.0452185 a 0.57349946,0.56882017 0 0 1 -0.6375,0.637753 c -0.572999,0 -0.797499,-0.283666 -0.768499,-1.254182 0,-0.212254 -2.1749982,-0.276227 -2.2399982,0 C 7.8460058,13.32059 9.3390048,14 11.050003,14 12.695002,14 14,13.135612 14,11.576936 14,8.7997834 10.376004,8.8776429 10.376004,7.5034494 a 0.59649944,0.59163249 0 0 1 0.673999,-0.6377535 c 0.261,0 0.739,0.049592 0.6955,1.0910238 z M 3.0000108,5.3174339 3.0960107,3 H 4.923009 l 0.077,2.2420541 A 0.14399987,0.14282494 0 0 1 4.7690091,5.3561157 L 4.0675098,4.802669 3.2310106,5.4324873 A 0.14399987,0.14282494 0 0 1 3.0000108,5.3169379 Z" />
</svg>
