<svg xmlns="http://www.w3.org/2000/svg" viewBox="0 0 32 32"><path fill="#ff5722" d="M28.967 12H9.442a2 2 0 0 0-1.898 1.368L4 24V10h24a2 2 0 0 0-2-2H15.124a2 2 0 0 1-1.28-.464l-1.288-1.072A2 2 0 0 0 11.276 6H4a2 2 0 0 0-2 2v16a2 2 0 0 0 2 2h22l4.805-11.212A2 2 0 0 0 28.967 12"/><path fill="#ffccbc" d="M25.983 8a5.36 5.36 0 0 0-2.865.89l-4.477 2.971a5.36 5.36 0 0 0-2.321 3.575 5.84 5.84 0 0 0 .532 3.618 5.5 5.5 0 0 0-.767 1.998 5.88 5.88 0 0 0 .934 4.311 5.73 5.73 0 0 0 7.862 1.758l4.479-2.96a5.37 5.37 0 0 0 2.32-3.573 5.84 5.84 0 0 0-.534-3.616 5.5 5.5 0 0 0 .77-2 5.9 5.9 0 0 0-.936-4.31v-.014a5.91 5.91 0 0 0-4.997-2.647Zm.393 2.283a3.606 3.606 0 0 1 3.323 4.183 4 4 0 0 1-.106.433l-.086.269-.228-.18a5.7 5.7 0 0 0-1.752-.911l-.172-.05.016-.18a1.08 1.08 0 0 0-.182-.693 1.05 1.05 0 0 0-1.143-.432 1 1 0 0 0-.275.126l-4.48 2.965a.98.98 0 0 0-.422.65 1.08 1.08 0 0 0 .172.78 1.05 1.05 0 0 0 1.142.445 1 1 0 0 0 .275-.125l1.717-1.133a3.1 3.1 0 0 1 .91-.417 3.48 3.48 0 0 1 3.817 1.473 3.54 3.54 0 0 1 .563 2.592 3.22 3.22 0 0 1-1.395 2.156l-4.48 2.97a3.2 3.2 0 0 1-.91.416 3.49 3.49 0 0 1-3.819-1.475 3.53 3.53 0 0 1-.561-2.59 3 3 0 0 1 .106-.432l.085-.268.23.179a5.7 5.7 0 0 0 1.746.905l.172.05-.015.18a1.1 1.1 0 0 0 .187.688 1.05 1.05 0 0 0 1.15.443 1 1 0 0 0 .274-.125l4.472-2.97a.97.97 0 0 0 .42-.651 1.06 1.06 0 0 0-.172-.782 1.05 1.05 0 0 0-1.15-.442 1 1 0 0 0-.275.125l-1.717 1.135a3.2 3.2 0 0 1-.907.415 3.49 3.49 0 0 1-3.813-1.473 3.54 3.54 0 0 1-.557-2.592 3.22 3.22 0 0 1 1.395-2.156l4.485-2.97a3.2 3.2 0 0 1 .903-.415 3.4 3.4 0 0 1 1.057-.114Z"/></svg>