<svg clip-rule="evenodd" fill-rule="evenodd" stroke-linejoin="round" stroke-miterlimit="1.414" viewBox="0 0 24 24" xml:space="preserve" version="1.1" id="svg828" xmlns="http://www.w3.org/2000/svg" xmlns:svg="http://www.w3.org/2000/svg"><defs id="defs832" /><path d="M10 4H4c-1.11 0-2 .89-2 2v12c0 1.097.903 2 2 2h16c1.097 0 2-.903 2-2V8a2 2 0 0 0-2-2h-8l-2-2z" fill="#e57373" fill-rule="nonzero" style="fill:#546e7a" id="path824" /><path d="m 16.793167,8.3575817 c -0.32496,0 -0.649919,0.1234846 -0.916386,0.3834521 l -5.19935,5.1993502 c -0.513436,0.506936 -0.513436,1.325834 0,1.832771 l 5.19935,5.19935 c 0.506937,0.513436 1.325834,0.513436 1.832771,0 l 5.19935,-5.19935 c 0.513436,-0.506937 0.513436,-1.325835 0,-1.832771 L 17.709552,8.7410338 C 17.443085,8.4810663 17.118126,8.3575817 16.793167,8.3575817 m -0.649919,3.2495933 h 1.299837 v 3.899513 h -1.299837 v -3.899513 m 0,5.199351 h 1.299837 v 1.299837 h -1.299837 z" id="path963" style="fill:#cfd8dc;fill-opacity:1;stroke-width:0.649919" /></svg> 
