<svg width="258" height="258" viewBox="0 0 258 258" fill="none" xmlns="http://www.w3.org/2000/svg">
<path d="M204.25 215H43C31.0675 215 21.5 205.325 21.5 193.5V64.5C21.5 52.5675 31.0675 43 43 43H107.5L129 64.5H204.25C209.952 64.5 215.421 66.7652 219.453 70.7972C223.485 74.8292 225.75 80.2978 225.75 86H43V193.5L66.005 107.5H249.507L224.998 198.875C222.525 208.228 214.14 215 204.25 215Z" fill="#1DE9B6"/>
<path fill-rule="evenodd" clip-rule="evenodd" d="M173.81 131H224.19C238.444 131 250 142.556 250 156.81V207.19C250 221.444 238.444 233 224.19 233H173.81C159.556 233 148 221.444 148 207.19V156.81C148 142.556 159.556 131 173.81 131ZM196.252 176.421C201.476 166.355 207.965 153.852 225.52 153.848C225.523 153.848 225.526 153.848 225.529 153.848H225.521C226.179 153.848 226.831 153.978 227.44 154.23C228.052 154.483 228.608 154.854 229.077 155.323C229.783 156.028 230.264 156.927 230.459 157.905C230.653 158.884 230.553 159.899 230.171 160.82C229.789 161.742 229.142 162.53 228.312 163.084C227.482 163.638 226.506 163.933 225.508 163.932C214.845 163.932 210.708 170.422 205.164 181.106L201.746 187.544L201.727 187.58C196.502 197.648 190.012 210.153 172.45 210.153C171.788 210.154 171.131 210.024 170.519 209.771C169.907 209.518 169.35 209.147 168.881 208.679C168.413 208.21 168.041 207.654 167.787 207.042C167.405 206.12 167.305 205.106 167.5 204.127C167.695 203.148 168.175 202.249 168.881 201.544C169.35 201.076 169.907 200.704 170.519 200.451C171.131 200.198 171.788 200.068 172.45 200.069C183.114 200.069 187.251 193.579 192.794 182.895L196.233 176.457L196.252 176.421Z" fill="#A7FFEB"/>
</svg>
