<svg xmlns="http://www.w3.org/2000/svg" viewBox="0 0 16 16"><path id="folder" fill="#f4511e" d="m6.922 3.768-.644-.536A1 1 0 0 0 5.638 3H2a1 1 0 0 0-1 1v8a1 1 0 0 0 1 1h12a1 1 0 0 0 1-1V5a1 1 0 0 0-1-1H7.562a1 1 0 0 1-.64-.232"/><path id="motive" fill="#ffab91" d="M11.667 7.006a.667.667 0 0 1 .667-.668.668.668 0 1 1-.667.667m3.249 2.645a3.75 3.75 0 0 0-.725-1.533 4 4 0 0 0-.367-.407l-.942.946a3 3 0 0 1 .25.272 2.45 2.45 0 0 1 .48 1.005 2.5 2.5 0 0 1 .055.411 2.667 2.667 0 0 1-5.334.008v-.008a1.9 1.9 0 0 1 .232-.922 2.5 2.5 0 0 1 .426-.634c.06-.06.604-.583 1.246-1.197l.769-.736L11 5 9.314 6.628A169 169 0 0 0 8.022 7.87a3.9 3.9 0 0 0-.663.983A3.3 3.3 0 0 0 7 10.344a4 4 0 1 0 8-.01 4 4 0 0 0-.085-.683"/></svg>