<svg xmlns="http://www.w3.org/2000/svg" viewBox="0 0 16 16">
<path id="folder" fill="#ab47bc" d="M14.483 6H4.721a1 1 0 0 0-.949.684L2 12V5h12a1 1 0 0 0-1-1H7.562a1 1 0 0 1-.64-.232l-.644-.536A1 1 0 0 0 5.638 3H2a1 1 0 0 0-1 1v8a1 1 0 0 0 1 1h11l2.403-5.606A1 1 0 0 0 14.483 6" />
<path id="motive" fill="#e1bee7" d="m 11.818589,14.999639 a 3.9071612,3.8962138 0 0 1 -1.8719308,-0.464049 3.5364818,3.526573 0 0 1 -1.40758,-1.390648 4.6084466,4.5955342 0 0 1 -0.535982,-2.325241 9.1668011,9.1411165 0 0 1 0.432292,-2.9341483 6.3115679,6.2938835 0 0 1 1.176657,-2.1314289 5.0592728,5.045097 0 0 1 1.6991138,-1.3007361 4.6585384,4.6454856 0 0 1 1.983635,-0.4430694 2.6147926,2.6074662 0 0 1 2.054265,0.7267937 2.8251781,2.8172623 0 0 1 0.647186,1.9441107 2.7049578,2.6973788 0 0 1 -0.03456,0.415596 q -0.03506,0.221285 -0.07664,0.456557 l -0.806979,3.9811313 h -1.156121 l -0.01452,-0.502512 h -0.0551 c -0.232426,0.128875 -0.480881,0.332177 -0.745366,0.479534 a 1.9836357,1.9780777 0 0 1 -0.981799,0.221785 1.5177819,1.5135292 0 0 1 -1.050926,-0.408603 1.3975615,1.3936457 0 0 1 -0.452831,-1.086445 2.1739845,2.1678933 0 0 1 0.940224,-1.8886643 6.5119354,6.4936895 0 0 1 2.958923,-0.879146 3.0055086,2.9970875 0 0 0 0.08365,-0.609408 1.9736173,1.9680874 0 0 0 -0.306061,-1.1279039 1.3574881,1.3536845 0 0 0 -1.197194,-0.449563 2.4544987,2.4476215 0 0 0 -1.212222,0.345664 3.8570693,3.8462623 0 0 0 -1.13508,1.0245049 5.4600073,5.444709 0 0 0 -0.8425438,1.681865 7.664047,7.642573 0 0 0 -0.319586,2.3182483 3.5314726,3.5215778 0 0 0 0.361162,1.681366 2.5045905,2.4975729 0 0 0 0.9337108,1.003524 2.3392875,2.3327331 0 0 0 1.197194,0.332178 2.2040396,2.1978642 0 0 0 0.835532,-0.14486 3.1056922,3.0969904 0 0 0 0.710301,-0.408603 l 0.640675,1.134898 a 3.6567021,3.6464565 0 0 1 -1.107029,0.560455 4.5082629,4.4956312 0 0 1 -1.344464,0.186818 m 1.010853,-4.523604 a 1.4025707,1.3986408 0 0 0 0.520954,-0.104898 2.4044068,2.39767 0 0 0 0.520955,-0.286721 l 0.280514,-1.3696693 a 3.4062431,3.3966992 0 0 0 -1.497745,0.475038 0.93671686,0.93409225 0 0 0 -0.386709,0.755266 0.50091808,0.49951458 0 0 0 0.155285,0.3911203 0.58106499,0.5794369 0 0 0 0.406746,0.139864" />
</svg>
