<svg clip-rule="evenodd" fill-rule="evenodd" stroke-linejoin="round" stroke-miterlimit="1.414" viewBox="0 0 24 24" xml:space="preserve" xmlns="http://www.w3.org/2000/svg">
<path d="M19 20H4C3.46957 20 2.96086 19.7893 2.58579 19.4142C2.21071 19.0391 2 18.5304 2 18V6C2 4.89 2.89 4 4 4H10L12 6H19C20.097 6 21 6.903 21 8H4V18L6.14 10H23.21L20.93 18.5C20.7 19.37 19.92 20 19 20Z" fill="#C1AFF4"/>
<path fill-rule="evenodd" clip-rule="evenodd" d="M17.6587 9C20.6647 9.33136 23 11.8876 23 14.9961C23 15.0513 23 15.1065 22.9921 15.1617V21H17.6587V9ZM16.286 20.9844C13.3117 20.6294 11 18.089 11 14.9963C11 11.9036 13.3117 9.36314 16.286 9.00811V20.9844Z" fill="#7950ED"/>
</svg>
