<svg xmlns="http://www.w3.org/2000/svg" viewBox="0 0 32 32">
  <path d="M13.84376,7.53645l-1.28749-1.0729A2,2,0,0,0,11.27591,6H4A2,2,0,0,0,2,8V24a2,2,0,0,0,2,2H28a2,2,0,0,0,2-2V10a2,2,0,0,0-2-2H15.12412A2,2,0,0,1,13.84376,7.53645Z" style="fill: #ffca28"/>
  <g>
    <ellipse cx="24" cy="14" rx="8" ry="4" style="fill: #ffecb3"/>
    <path d="M24,26c-4.41827,0-8-1.79089-8-4v4c0,2.20911,3.58173,4,8,4s8-1.79089,8-4V22C32,24.20911,28.41827,26,24,26Z" style="fill: #ffecb3;fill-rule: evenodd"/>
    <path d="M24,20c-4.41827,0-8-1.79089-8-4v4c0,2.20911,3.58173,4,8,4s8-1.79089,8-4V16C32,18.20911,28.41827,20,24,20Z" style="fill: #ffecb3;fill-rule: evenodd"/>
  </g>
</svg>
