<svg xmlns="http://www.w3.org/2000/svg" viewBox="0 0 32 32">
  <path d="M13.84376,7.53645l-1.28749-1.0729A2,2,0,0,0,11.27591,6H4A2,2,0,0,0,2,8V24a2,2,0,0,0,2,2H28a2,2,0,0,0,2-2V10a2,2,0,0,0-2-2H15.12412A2,2,0,0,1,13.84376,7.53645Z" style="fill: #00897b"/>
  <g>
    <path d="M14,12.00145l7.765,16h2.53569l4.85191-10H24.81649l-1.78084,4L18.3389,12Z" style="fill: #b2dfdb"/>
    <path d="M25.76423,12.00145v.92617h1.73193l-.28516.5848H24.37757v.92187H26.7553L26.417,15.13h-3.394v.87145h7.03953L32,12.01585h-.76462v-.0144Z" style="fill: #ffcdd2"/>
  </g>
</svg>
