<svg xmlns="http://www.w3.org/2000/svg" viewBox="0 0 32 32"><path fill="#ff6e40" d="M28.967 12H9.442a2 2 0 0 0-1.898 1.368L4 24V10h24a2 2 0 0 0-2-2H15.124a2 2 0 0 1-1.28-.464l-1.288-1.072A2 2 0 0 0 11.276 6H4a2 2 0 0 0-2 2v16a2 2 0 0 0 2 2h22l4.805-11.212A2 2 0 0 0 28.967 12"/><path fill="#ffccbc" d="M22.984 10c-4.997 0-9.043 4.045-8.983 9.043 0 4.997 4.045 9.042 9.042 8.983 1.354 0 2.708-.292 3.947-.932l-6.207-6.207a.54.54 0 0 1-.179-.417.54.54 0 0 1 .179-.416l7.972-7.972C27.148 10.714 25.125 10 22.984 10m6.663 2.915-7.615 7.555 6.009 6.01c.476-.298.951-.715 1.308-1.072 3.391-3.39 3.57-8.923.298-12.493m-.45 4.545c.298-.01.591.162.688.452.595 1.19.416 2.618-.476 3.748a.67.67 0 0 1-.952.12.723.723 0 0 1-.06-.953c.477-.654.596-1.546.239-2.26 0-.06-.06-.12-.06-.179-.119-.357.06-.773.417-.892a.7.7 0 0 1 .204-.036"/></svg>