<svg viewBox="0 0 32 32" fill="none" xmlns="http://www.w3.org/2000/svg"><path d="M28.967 12H9.442C9.02207 11.9999 8.61276 12.132 8.2721 12.3775C7.93143 12.6231 7.6767 12.9696 7.544 13.368L4 24V10H28C28 9.46957 27.7893 8.96086 27.4142 8.58579C27.0391 8.21071 26.5304 8 26 8H15.124C14.6562 7.99979 14.2033 7.8356 13.844 7.536L12.556 6.464C12.1967 6.1644 11.7438 6.00021 11.276 6H4C3.46957 6 2.96086 6.21071 2.58579 6.58579C2.21071 6.96086 2 7.46957 2 8V24C2 24.5304 2.21071 25.0391 2.58579 25.4142C2.96086 25.7893 3.46957 26 4 26H26L30.805 14.788C30.9354 14.4838 30.9883 14.152 30.9589 13.8224C30.9295 13.4927 30.8187 13.1755 30.6366 12.8992C30.4544 12.6229 30.2065 12.3961 29.9151 12.2391C29.6237 12.0822 29.298 12 28.967 12Z" fill="#0288D1"/><path d="M29.2193 19.6197L32 21.2118V24.3972L29.2193 25.9893L27.9843 25.2816L24.982 27L21.9989 25.2919L20.7807 25.9893L18 24.3959V21.2118L20.7807 19.6197L23.5626 21.2118V24.3959L22.7208 24.8768L24.982 26.1724L27.2624 24.8678L26.4374 24.3947V21.2118L29.2193 19.6197ZM27.1606 22.042V23.9847L28.8571 24.9554V23.0127L27.1606 22.042ZM31.2768 22.0394L29.5803 23.0101V24.9567L31.2768 23.9821V22.0394ZM18.7232 22.0394V23.9821L20.4197 24.9529V23.0101L18.7232 22.0394ZM22.8394 22.0394L21.1429 23.0101V24.9529L22.8394 23.9821V22.0394ZM29.2193 20.4499L27.5228 21.4206L29.2193 22.3926L30.9158 21.4206L29.2193 20.4499ZM20.7807 20.4473L19.0842 21.4206L20.7807 22.3901L22.4772 21.4206L20.7807 20.4473ZM22.1639 15.5099V16.335L19.5908 17.8098V20.3004L18.8689 20.7155V17.3959L22.1639 15.5087V15.5099ZM24.9459 13L27.7278 14.5921V15.4674L31.0963 17.3959V20.6948L30.3744 20.2797V17.8098L27.7278 16.295V17.7762L24.9471 19.367L22.1665 17.775V14.5908L24.9459 13ZM22.8884 15.4184V17.3624L24.5836 18.3331V16.3904L22.8884 15.4184ZM27.0033 15.4184L25.3081 16.3904V18.3319L27.0033 17.3624V15.4184ZM24.9459 13.8276L23.2506 14.7983L24.9459 15.7704L26.6424 14.7983L24.9459 13.8276Z" fill="#B3E5FC"/></svg>