<svg xmlns="http://www.w3.org/2000/svg" viewBox="0 0 32 32"><path fill="#ffca28" d="m13.844 7.536-1.288-1.072A2 2 0 0 0 11.276 6H4a2 2 0 0 0-2 2v16a2 2 0 0 0 2 2h24a2 2 0 0 0 2-2V10a2 2 0 0 0-2-2H15.124a2 2 0 0 1-1.28-.464"/><ellipse cx="24" cy="14" fill="#ffecb3" rx="8" ry="4"/><path fill="#ffecb3" d="M24 26c-4.418 0-8-1.79-8-4v4c0 2.21 3.582 4 8 4s8-1.79 8-4v-4c0 2.21-3.582 4-8 4"/><path fill="#ffecb3" d="M24 20c-4.418 0-8-1.79-8-4v4c0 2.21 3.582 4 8 4s8-1.79 8-4v-4c0 2.21-3.582 4-8 4"/></svg>