<?xml version="1.0" encoding="UTF-8"?>
<svg id="Layer_1" data-name="Layer 1" xmlns="http://www.w3.org/2000/svg" viewBox="0 0 28.97 22">
  <defs>
    <style>
      .cls-1 {
        fill: #0288d1;
      }

      .cls-1, .cls-2 {
        stroke-width: 0px;
      }

      .cls-2 {
        fill: #90caf9;
      }
    </style>
  </defs>
  <path class="cls-1" d="m26.97,6H7.44c-.86,0-1.63.55-1.9,1.37l-3.54,10.63V4h24c0-1.1-.9-2-2-2h-10.88c-.47,0-.92-.16-1.28-.46l-1.29-1.07c-.36-.3-.81-.46-1.28-.46H2C.9,0,0,.9,0,2v16c0,1.1.9,2,2,2h22l4.81-11.21c.44-1.02-.03-2.19-1.05-2.63-.25-.11-.52-.16-.79-.16"/>
  <path class="cls-2" d="m10.26,20.46l8.6-8.6-1.25-1.27-.65.64c-.35.35-.91.35-1.26,0l-.64-.64c-.35-.35-.35-.91,0-1.26l5.07-5.07c.35-.35.91-.35,1.26,0l.64.64c.35.35.35.91,0,1.26l-.64.62,1.27,1.28c.35-.35.91-.35,1.26,0,.35.35.35.92,0,1.27l1.26,1.26.64-.64c.35-.35.92-.35,1.27,0l.63.64c.35.35.35.92,0,1.27l-5.06,5.06c-.35.35-.92.35-1.27,0l-.63-.63c-.36-.35-.36-.92,0-1.27l.63-.64-1.26-1.26-8.61,8.6c-.35.35-.91.35-1.26,0-.35-.35-.35-.92,0-1.27m15.86-1.15c.99,0,1.79.8,1.79,1.79v.9h-8.96v-.9c0-.99.8-1.79,1.79-1.79h5.38Z"/>
</svg>