<svg xmlns="http://www.w3.org/2000/svg" xml:space="preserve" fill-rule="evenodd" stroke-linejoin="round" stroke-miterlimit="2" clip-rule="evenodd" viewBox="0 0 48 48"><path fill="#f4511e" fill-rule="nonzero" d="M38 40H8a4 4 0 0 1-4-4V12c0-2.22 1.78-4 4-4h12l4 4h14c2.2 0 4 1.8 4 4H8v20l4.28-16h34.14l-4.56 17A4 4 0 0 1 38 40Z"/><path fill="#ffccbc" fill-rule="nonzero" d="M43.91 28.76c-.36-.47-.8-.88-1.21-1.28-1.05-.93-2.25-1.6-3.25-2.58a7.69 7.69 0 0 1-1.37-8.9c-1.5.36-2.8 1.17-3.91 2.05A12.2 12.2 0 0 0 30.4 31.9c.07.15.13.3.13.51 0 .34-.24.66-.55.78-.36.16-.74.06-1.04-.19a7.72 7.72 0 0 1-1.08-8.23 11.03 11.03 0 0 0-3.85 9.07c.1.78.19 1.56.46 2.34.21.93.64 1.86 1.11 2.69a11 11 0 0 0 7.8 5c3.35.43 6.95-.18 9.53-2.48a9.15 9.15 0 0 0 2.4-10.27l-.2-.4c-.33-.72-1.21-1.96-1.21-1.96m-4.96 9.8c-.45.37-1.17.77-1.73.93-1.76.62-3.52-.25-4.56-1.28a4.34 4.34 0 0 0 3.32-3.19c.26-1.24-.24-2.27-.44-3.46a5.7 5.7 0 0 1 .26-3.2c.3.58.62 1.17 1 1.64 1.2 1.56 3.1 2.24 3.51 4.36.06.21.1.43.1.66a4.73 4.73 0 0 1-1.46 3.54Z"/></svg>