<svg xmlns="http://www.w3.org/2000/svg" viewBox="0 0 16 16"><path id="folder" fill="#ef5350" d="m6.922 3.768-.644-.536A1 1 0 0 0 5.638 3H2a1 1 0 0 0-1 1v8a1 1 0 0 0 1 1h12a1 1 0 0 0 1-1V5a1 1 0 0 0-1-1H7.562a1 1 0 0 1-.64-.232"/><path id="motive" fill="#ffcdd2" d="M10.902 5a2.98 2.98 0 0 0-2.68 2.193 5.7 5.7 0 0 0 .467 4.578.75.75 0 0 0-.064.375l.06-.003-.06.01a.852.853 0 0 0 .834.84h.027a.857.858 0 0 0 .82-.89.9.9 0 0 0-.254-.61.8.8 0 0 0-.593-.247H9.42a4.8 4.8 0 0 1-.578-2.725 3.4 3.4 0 0 1 .696-1.925 2 2 0 0 1 1.421-.682h.028c1.218 0 1.707 1.669 1.738 2.244a.145.145 0 0 0 .107.133c.15.037.412.122.607.191a.14.14 0 0 0 .133-.023.15.15 0 0 0 .053-.123C13.464 6.043 12.102 5 10.902 5m-.59 2.98a.8.8 0 0 0-.588.268.903.903 0 0 0 .02 1.232.84.84 0 0 0 .595.249h.032a.84.84 0 0 0 .687-.444h.135a4.414 4.415 0 0 1 2.562.822 3.3 3.3 0 0 1 1.261 1.602 1.74 1.74 0 0 1-.023 1.416 1.7 1.7 0 0 1-1.568.984 2.9 2.9 0 0 1-1.16-.261.135.135 0 0 0-.153.027 7 7 0 0 1-.542.457.147.147 0 0 0 .02.246 3.85 3.85 0 0 0 1.655.42l.096.002a2.83 2.83 0 0 0 2.443-1.475 3.2 3.2 0 0 0-.621-3.312 5.06 5.06 0 0 0-3.886-1.844l-.133.002h-.117a.8.8 0 0 0-.69-.39ZM7.558 9.518a.14.14 0 0 0-.066.027c-1.865 1.418-1.663 3.381-1.094 4.289a2.68 2.68 0 0 0 2.147 1.115q.062 0 .12-.002h.02a3 3 0 0 0 .75-.094 4.94 4.94 0 0 0 3.539-2.796.83.83 0 0 0 .484-.3.9.9 0 0 0 .191-.636.86.86 0 0 0-.845-.799h-.03a.86.86 0 0 0-.806.906.93.93 0 0 0 .172.495 4.43 4.43 0 0 1-1.932 1.898 3.08 3.08 0 0 1-1.939.385 1.57 1.57 0 0 1-1.16-.705 1.84 1.84 0 0 1-.09-1.87 2.9 2.9 0 0 1 .803-.992.15.15 0 0 0 .049-.156 7 7 0 0 1-.156-.65.14.14 0 0 0-.086-.106.14.14 0 0 0-.07-.01"/></svg>