<svg version="1.1" viewBox="0 0 32 32" xmlns="http://www.w3.org/2000/svg">
  <path
    d="M28.967 12H9.442a2 2 0 0 0-1.898 1.368L4 24V10h24a2 2 0 0 0-2-2H15.124a2 2 0 0 1-1.28-.464l-1.288-1.072A2 2 0 0 0 11.276 6H4a2 2 0 0 0-2 2v16a2 2 0 0 0 2 2h22l4.805-11.212A2 2 0 0 0 28.967 12"
    fill="#FF9800" />
  <g fill="#ffe0b2">
    <rect x="12" y="18" width="6" height="4" rx="2" />
    <rect x="20" y="12" width="4" height="16" rx="2" />
    <rect x="26" y="18" width="6" height="4" rx="2" />
  </g>
</svg>