<svg xmlns="http://www.w3.org/2000/svg" viewBox="0 0 32 32"><path fill="#639" d="M28.967 12H9.442a2 2 0 0 0-1.898 1.368L4 24V10h24a2 2 0 0 0-2-2H15.124c-.468 0-.921-.164-1.28-.464l-1.288-1.072A1.996 1.996 0 0 0 11.276 6H4a2 2 0 0 0-2 2v16a2 2 0 0 0 2 2h22l4.805-11.212A2 2 0 0 0 28.967 12"/><path fill="#CBB8E0" d="M26.794 27.908c-1.04 0-1.835-.302-2.391-.91-.55-.611-.837-1.482-.863-2.62h2.24c.013 1.007.367 1.511 1.062 1.511.354 0 .605-.112.75-.334.142-.221.216-.576.216-1.061 0-.386-.097-.707-.283-.961a2.356 2.356 0 0 0-.946-.679l-.83-.399c-.74-.354-1.278-.772-1.609-1.26-.322-.486-.483-1.167-.483-2.038 0-.974.283-1.765.846-2.373.579-.608 1.368-.91 2.375-.91.973 0 1.726.299 2.256.894.541.598.824 1.453.847 2.572h-2.157a2.312 2.312 0 0 0-.216-1.061c-.122-.244-.36-.366-.714-.366-.631 0-.946.376-.946 1.125 0 .38.077.675.232.9.223.249.502.441.814.56l.795.351c.821.376 1.413.836 1.777 1.392.367.553.547 1.293.547 2.219 0 1.109-.29 1.961-.879 2.556-.586.593-1.4.892-2.44.892zm-7.235 0c-1.04 0-1.835-.302-2.392-.91-.55-.611-.837-1.482-.862-2.62h2.24c.013 1.007.367 1.511 1.062 1.511.354 0 .605-.112.746-.334.145-.221.216-.576.216-1.061 0-.386-.093-.707-.28-.961a2.356 2.356 0 0 0-.946-.679l-.83-.399c-.74-.354-1.278-.772-1.609-1.26-.322-.486-.483-1.167-.483-2.038 0-.974.283-1.765.846-2.373.579-.608 1.368-.91 2.375-.91.972 0 1.725.299 2.253.894.547.598.827 1.453.85 2.572h-2.156a2.312 2.312 0 0 0-.216-1.061c-.122-.244-.36-.366-.714-.366-.631 0-.947.376-.947 1.125 0 .38.077.675.232.9.223.249.502.441.814.56l.795.351c.821.376 1.413.836 1.777 1.392.364.553.547 1.293.547 2.219 0 1.109-.293 1.961-.879 2.556-.585.593-1.4.892-2.439.892zm-7.535 0c-1.017 0-1.825-.277-2.424-.83-.599-.55-.895-1.376-.895-2.469v-5.402c0-1.087.316-1.91.946-2.476.641-.559 1.481-.842 2.52-.842 1.008 0 1.802.289 2.391.862.596.576.895 1.431.895 2.572v.428h-2.372v-.415c0-.44-.097-.765-.283-.977a.85.85 0 0 0-.695-.331c-.386 0-.66.132-.814.399a2.532 2.532 0 0 0-.216 1.177v4.695c0 .981.345 1.479 1.03 1.489.322 0 .563-.116.731-.347.182-.292.269-.634.248-.978v-.35h2.372v.367c0 .762-.148 1.399-.447 1.907a2.854 2.854 0 0 1-1.226 1.145 3.938 3.938 0 0 1-1.761.376z"/></svg>