<svg xmlns="http://www.w3.org/2000/svg" viewBox="0 0 16 16"><path id="folder" fill="#8bc34a" d="m6.922 3.768-.644-.536A1 1 0 0 0 5.638 3H2a1 1 0 0 0-1 1v8a1 1 0 0 0 1 1h12a1 1 0 0 0 1-1V5a1 1 0 0 0-1-1H7.562a1 1 0 0 1-.64-.232"/><path id="motive" fill="#dcedc8" d="M11.5 4.5 7 6l.5 6 4 2 4-2 .5-6Zm-.934 1.393a1.15 1.15 0 0 1 .561.162 2.7 2.7 0 0 0 .607.152 3.32 3.32 0 0 1 2.217 1.417c.224.438.178.674-.165.85-.295.152-.9.079-1.777-.216l-.74-.248-.264.099a1.77 1.77 0 0 0-.92.865 1.45 1.45 0 0 0-.109.811 1.45 1.45 0 0 0 .205.823c.175.306.575.697.644.629.018-.019-.023-.143-.092-.276a.55.55 0 0 1-.089-.298c.02-.03.2.083.401.252a2.8 2.8 0 0 0 1.45.667c.393.04.483-.032.188-.154a.9.9 0 0 1-.274-.181c-.115-.126-.121-.122.37-.231a2.3 2.3 0 0 0 .943-.498c.011-.037-.087-.051-.248-.039-.146.012-.265-.003-.265-.033a1.5 1.5 0 0 1 .265-.328 2.47 2.47 0 0 0 .793-1.798l.04-.557.129.265a1.6 1.6 0 0 1 .066 1.074c-.084.302-.028.336.127.076.191-.322.252-.272.219.182a1.98 1.98 0 0 1-.592 1.28c-.313.34-.275.402.104.17.365-.224.415-.19.226.163a3.04 3.04 0 0 1-1.89 1.415 3.1 3.1 0 0 1-1.244.08 3.67 3.67 0 0 1-2.72-1.924 7 7 0 0 0-.418-.719c-.202-.271-.218-.392-.083-.598a.46.46 0 0 0 .055-.365c-.128-.726-.124-.748.169-1.044.256-.257.271-.291.271-.591 0-.26.026-.345.145-.463a.5.5 0 0 1 .281-.145 1.44 1.44 0 0 0 .812-.433.84.84 0 0 1 .601-.293"/></svg>