<svg xmlns="http://www.w3.org/2000/svg" viewBox="0 0 32 32"><path fill="#ef5350" d="m13.844 7.536-1.288-1.072A2 2 0 0 0 11.276 6H4a2 2 0 0 0-2 2v16a2 2 0 0 0 2 2h24a2 2 0 0 0 2-2V10a2 2 0 0 0-2-2H15.124a2 2 0 0 1-1.28-.464"/><path fill="#ffcdd2" d="M22.433 17.937a14.7 14.7 0 0 1-1.015 2.407 9 9 0 0 0-.494 1.036l.109-.041a18.3 18.3 0 0 1 3.342-.924q-.218-.151-.42-.324a6.25 6.25 0 0 1-1.522-2.154m6.474 3.812a1.14 1.14 0 0 1-.9.299 7.2 7.2 0 0 1-2.985-.739 20 20 0 0 0-4.047.75l-.184.07c-1.243 2.123-2.162 3.07-2.974 3.07a1 1 0 0 1-.44-.104l-.48-.315-.023-.053a.83.83 0 0 1-.053-.538 3.8 3.8 0 0 1 1.883-2.118 5.5 5.5 0 0 1 .89-.49c.296-.522.616-1.128.952-1.804a17.3 17.3 0 0 0 1.087-2.924l-.005-.012a4.94 4.94 0 0 1-.219-3.265c.11-.386.42-.776.794-.776h.237a.85.85 0 0 1 .608.246c.659.659.357 2.267.022 3.595l-.035.141a5.8 5.8 0 0 0 1.596 2.556 8 8 0 0 0 .862.586 12 12 0 0 1 1.298-.074c1.24 0 1.986.224 2.277.686a.8.8 0 0 1 .124.551.96.96 0 0 1-.285.662M30 10H16a2 2 0 0 0-2 2v14a2 2 0 0 0 2 2h14a2 2 0 0 0 2-2V12a2 2 0 0 0-2-2m-1.486 11.043c-.112-.106-.522-.356-1.918-.356a.26.26 0 0 0-.23.1 5.4 5.4 0 0 0 1.902.512 1.3 1.3 0 0 0 .196-.015l.034-.006c.048-.014.08-.03.09-.13a1 1 0 0 0-.074-.105m-9.185 1.455a4 4 0 0 0-.475.314 3.66 3.66 0 0 0-1.215 1.692c.455-.156 1.043-.812 1.692-2.006Zm3.016-6.906.056-.037c.073-.323.12-.601.16-.823l.03-.162c.096-.541.085-.853-.098-1.096l-.147-.05a1 1 0 0 0-.067.118 3.65 3.65 0 0 0 .067 2.05Z"/></svg>