<svg xmlns="http://www.w3.org/2000/svg" viewBox="0 0 16 16"><path id="folder" fill="#2196f3" d="m6.922 3.768-.644-.536A1 1 0 0 0 5.638 3H2a1 1 0 0 0-1 1v8a1 1 0 0 0 1 1h12a1 1 0 0 0 1-1V5a1 1 0 0 0-1-1H7.562a1 1 0 0 1-.64-.232"/><path id="motive" fill="#bbdefb" d="M10.5 7C8.17 7 5.825 8.455 5 10.5c.825 2.045 3.17 3.5 5.5 3.5s4.675-1.455 5.5-3.5C15.175 8.455 12.83 7 10.5 7m.115 1.002A2.5 2.5 0 0 1 13 10.5a2.5 2.5 0 0 1-2.5 2.5 2.5 2.5 0 1 1 .115-4.998M10.5 9A1.5 1.5 0 0 0 9 10.5a1.5 1.5 0 0 0 1.5 1.5 1.5 1.5 0 0 0 1.5-1.5A1.5 1.5 0 0 0 10.5 9"/></svg>