<svg xmlns="http://www.w3.org/2000/svg" viewBox="0 0 16 16">
<path fill="#ef5350" d="m6.922 3.768-.644-.536A1 1 0 0 0 5.638 3H2a1 1 0 0 0-1 1v8a1 1 0 0 0 1 1h12a1 1 0 0 0 1-1V5a1 1 0 0 0-1-1H7.562a1 1 0 0 1-.64-.232" id="folder"/>
<g id="motive"><path fill="#ffcdd2" d="m15.935 9.9585-0.6535-0.689a0.2385 0.2385 0 0 0-0.3455-0.0005l-3.578 3.769-1.5285-1.615a0.24 0.24 0 0 0-0.1725-0.074h-0.0005a0.24 0.24 0 0 0-0.1725 0.074l-0.655 0.6885a0.2385 0.2385 0 0 0 0 0.3285l2.3605 2.486a0.2385 0.2385 0 0 0 0.3455 0l4.4-4.64a0.238 0.238 0 0 0 0-0.3275"/><path fill="#ffcdd2" d="M10.646 11.668a0.24 0.24 0 0 0 0.224 0.157h0.97a0.238 0.238 0 0 0 0.223-0.321l-2.37-6.349a0.24 0.24 0 0 0-0.223-0.155h-0.862a0.24 0.24 0 0 0-0.2235 0.155l-2.37 6.349a0.238 0.238 0 0 0 0.2235 0.321h0.97a0.24 0.24 0 0 0 0.224-0.1585l0.463-1.306h2.279Zm-0.985-2.7615h-1.245l0.6225-1.7475Z"/></g>
</svg>
