<svg xmlns="http://www.w3.org/2000/svg" viewBox="0 0 16 16">
<path id="folder" fill="#ff6e40" d="M14.483 6H4.721a1 1 0 0 0-.949.684L2 12V5h12a1 1 0 0 0-1-1H7.562a1 1 0 0 1-.64-.232l-.644-.536A1 1 0 0 0 5.638 3H2a1 1 0 0 0-1 1v8a1 1 0 0 0 1 1h11l2.403-5.606A1 1 0 0 0 14.483 6" />
<path id="motive" fill="#ffccbc" d="m 11.492319,5.0005 c -2.4990003,0 -4.5215003,2.019509 -4.4920003,4.514314 0,2.494805 2.023,4.514813 4.5215003,4.484857 0.677,0 1.354,-0.145284 1.9735,-0.464811 l -3.104,-3.09941 a 0.27,0.26960071 0 0 1 -0.089,-0.207692 0.27,0.26960071 0 0 1 0.089,-0.208192 l 3.986,-3.979606 C 13.574319,5.356472 12.562819,5 11.492319,5 m 3.3315,1.455345 -3.8075,3.771913 3.0045,3.000057 c 0.2375,-0.148779 0.4755,-0.356472 0.654,-0.534708 1.6955,-1.692992 1.785,-4.455401 0.149,-6.237262 m -0.225,2.26864 c 0.149,-0.005 0.295,0.08138 0.344,0.226165 0.297,0.59412 0.208,1.306565 -0.238,1.871229 a 0.335,0.33450459 0 0 1 -0.476,0.05941 0.36,0.35946761 0 0 1 -0.03,-0.475297 c 0.238,-0.327015 0.2975,-0.772356 0.119,-1.128328 0,-0.02995 -0.03,-0.05991 -0.03,-0.08987 -0.059,-0.177737 0.03,-0.385929 0.2085,-0.445341 a 0.35,0.3494824 0 0 1 0.1025,-0.01797" />
</svg>
