<svg clip-rule="evenodd" fill-rule="evenodd" stroke-linejoin="round" stroke-miterlimit="1.414" viewBox="0 0 24 24" xmlns="http://www.w3.org/2000/svg"><path d="M10 4H4c-1.11 0-2 .89-2 2v12c0 1.097.903 2 2 2h16c1.097 0 2-.903 2-2V8a2 2 0 0 0-2-2h-8z" fill="#41B883" fill-rule="nonzero"/><path d="M14.924 9.185a1.5 1.5 0 0 0-1.5 1.5v9a1.5 1.5 0 0 0 1.5 1.5h7a1.5 1.5 0 0 0 1.5-1.5v-9a1.5 1.5 0 0 0-1.5-1.5z" fill="#D6F0E4" transform="translate(.31 -.414)"/><path d="M17 11.3v4h1.2v3.3l2.8-4.4h-1.6l1.6-2.9H17z" fill="#FFAB00" /></svg>