<svg xmlns="http://www.w3.org/2000/svg" viewBox="0 0 16 16">
<path fill="#f4511e" d="m6.922 3.768-.644-.536A1 1 0 0 0 5.638 3H2a1 1 0 0 0-1 1v8a1 1 0 0 0 1 1h12a1 1 0 0 0 1-1V5a1 1 0 0 0-1-1H7.562a1 1 0 0 1-.64-.232" id="folder"/>
<path fill="#ffab91" d="M11.667 7.0055a0.667 0.667 0 0 1 0.6665-0.6675 0.6675 0.6675 0 1 1-0.6665 0.6675m3.2485 2.645a3.75 3.75 0 0 0-0.7245-1.533 4 4 0 0 0-0.367-0.407l-0.9415 0.946a3 3 0 0 1 0.249 0.2715 2.45 2.45 0 0 1 0.4805 1.005 2.5 2.5 0 0 1 0.055 0.411 2.667 2.667 0 0 1-5.3335 0.008v-0.008a1.93 1.93 0 0 1 0.2315-0.9225 2.5 2.5 0 0 1 0.426-0.6335c0.06-0.06 0.6045-0.583 1.2465-1.197l0.7685-0.7365L11 5l-1.686 1.6275a168.5 168.5 0 0 0-1.292 1.243 3.85 3.85 0 0 0-0.6635 0.9825A3.27 3.27 0 0 0 7 10.344a4 4 0 1 0 8-0.01 4 4 0 0 0-0.085-0.683" id="motive"/>
</svg>
