<?xml version="1.0" encoding="UTF-8"?>
<svg fill="none" version="1.1" viewBox="0 0 24 24" xmlns="http://www.w3.org/2000/svg">
 <path d="M19 20H4a2 2 0 0 1-2-2V6c0-1.11.89-2 2-2h6l2 2h7c1.097 0 2 .903 2 2H4v10l2.14-8h17.07l-2.28 8.5c-.23.87-1.01 1.5-1.93 1.5Z" fill="#00897b"/>
 <g>
  <path d="m19.258 9.6055v0.0097656h3.9141v-0.0097656h-3.9141zm-8.416 0.029297 5.5547 11.107h1.8145l3.4707-6.9414h-3.1035l-1.2734 2.5488-3.3594-6.7148h-3.1035zm9.8926 2.7832 1.5938 0.007812 0.003906-0.007812h-1.5977z" fill="#b2dfdb" stroke-width="1.0696"/>
  <path d="m19.258 9.605v0.64258h1.2383l-0.20312 0.40625h-2.0273v0.64062h1.7012l-0.24219 0.48242h-2.4277v0.64062h5.0352l1.3867-2.8027h-0.54688v-0.00976z" fill="#ffcdd2"/>
 </g>
</svg>
