<svg xmlns="http://www.w3.org/2000/svg" viewBox="0 0 32 32">
  <path d="M13.84376,7.53645l-1.28749-1.0729A2,2,0,0,0,11.27591,6H4A2,2,0,0,0,2,8V24a2,2,0,0,0,2,2H28a2,2,0,0,0,2-2V10a2,2,0,0,0-2-2H15.12412A2,2,0,0,1,13.84376,7.53645Z" style="fill: #7e57c2"/>
  <path d="M32,14a3.99495,3.99495,0,0,0-7.64-1.64A7.71188,7.71188,0,0,0,22,12a8,8,0,1,0,8,8,7.71188,7.71188,0,0,0-.36-2.36A3.98783,3.98783,0,0,0,32,14Zm-8,8a4,4,0,0,1,0-8,3.999,3.999,0,0,0,4,4A3.99891,3.99891,0,0,1,24,22Z" style="fill: #d1c4e9;fill-rule: evenodd"/>
</svg>
