<svg xmlns="http://www.w3.org/2000/svg" viewBox="0 0 16 16"><path fill="#ffca28" d="M14.483 6H4.721a1 1 0 0 0-.949.684L2 12V5h12a1 1 0 0 0-1-1H7.562a1 1 0 0 1-.64-.232l-.644-.536A1 1 0 0 0 5.638 3H2a1 1 0 0 0-1 1v8a1 1 0 0 0 1 1h11l2.403-5.606A1 1 0 0 0 14.483 6"/><path fill="#ffecb3" d="M12 5a4 2 0 0 0-4 2 4 2 0 0 0 4 2 4 2 0 0 0 4-2 4 2 0 0 0-4-2M8 8v2c0 1.105 1.791 2 4 2s4-.895 4-2V8c0 1.105-1.791 2-4 2s-4-.895-4-2m0 3v2c0 1.105 1.791 2 4 2s4-.895 4-2v-2c0 1.105-1.791 2-4 2s-4-.895-4-2"/></svg>