<svg xmlns="http://www.w3.org/2000/svg" viewBox="0 0 32 32">
  <path d="M13.84376,7.53645l-1.28749-1.0729A2,2,0,0,0,11.27591,6H4A2,2,0,0,0,2,8V24a2,2,0,0,0,2,2H28a2,2,0,0,0,2-2V10a2,2,0,0,0-2-2H15.12412A2,2,0,0,1,13.84376,7.53645Z" style="fill: #78909c"/>
  <g>
    <path d="M31.98335,20.72813c.309-5.491-3.70827-11.40444-9.8887-10.66526A6.10081,6.10081,0,0,0,16.94429,13.442c-1.236,2.63992.103,6.12461,4.12029,7.28617,2.47218.73918,2.98721,1.79514,2.67818,3.0623-.309,1.16157-1.13307,2.42873-1.33909,3.48469a2.99364,2.99364,0,0,0-.103.95036c.103,2.32314,4.73834,3.2735,8.3436-2.9567A9.35431,9.35431,0,0,0,31.98335,20.72813Z" style="fill: #cfd8dc;fill-rule: evenodd"/>
    <circle cx="16" cy="26" r="4" style="fill: #cfd8dc"/>
    <circle cx="12" cy="18" r="2" style="fill: #cfd8dc"/>
  </g>
</svg>
