<?xml version="1.0" encoding="UTF-8"?>
<svg version="1.1" viewBox="0 0 24 24" xmlns="http://www.w3.org/2000/svg">
 <path d="M10 4H4C2.89 4 2 4.89 2 6V18C2 19.097 2.903 20 4 20H20C21.097 20 22 19.097 22 18V8C22 7.46957 21.7893 6.96086 21.4142 6.58579C21.0391 6.21071 20.5304 6 20 6H12L10 4Z" fill="#EF5350"/>
 <path d="m10.814 18.856h2.1923l-0.67923 2.0512h-1.5131zm0-3.8996h3.4835l-0.67912 2.0512h-2.8044zm0-3.8996h4.7749l-0.67934 2.0512h-4.0956zm6.9355 0h5.4503v2.0512h-6.1294zm-1.2912 3.8996h6.7415v2.0512h-7.4208zm-1.2913 3.8996h8.0329v2.0512h-8.712z" fill="#ffcdd2" stroke-width="1.1059"/>
</svg>
