<svg xmlns="http://www.w3.org/2000/svg" viewBox="0 0 32 32">
  <path d="M28.96692,12H9.44152a2,2,0,0,0-1.89737,1.36754L4,24V10H28a2,2,0,0,0-2-2H15.1241a2,2,0,0,1-1.28038-.46357L12.5563,6.46357A2,2,0,0,0,11.27592,6H4A2,2,0,0,0,2,8V24a2,2,0,0,0,2,2H26l4.80523-11.21213A2,2,0,0,0,28.96692,12Z" style="fill: #0288d1"/>
  <g>
    <path d="M23.44814,10.10568a9.97465,9.97465,0,0,0-2.89629,0l-.63362,1.65359a8.49478,8.49478,0,0,0-2.27361.9418l-1.61723-.72089a9.97693,9.97693,0,0,0-2.04722,2.04721l.72089,1.61723a8.49556,8.49556,0,0,0-.9418,2.27361l-1.65359.63362a9.97535,9.97535,0,0,0,0,2.89629l1.65359.63362a8.49529,8.49529,0,0,0,.9418,2.27361l-.72089,1.61723a9.97728,9.97728,0,0,0,2.04722,2.04723l1.61723-.72089a8.49572,8.49572,0,0,0,2.27361.94179l.63362,1.65358a9.974,9.974,0,0,0,2.89629,0l.63362-1.65358a8.49553,8.49553,0,0,0,2.27361-.94179l1.61723.72089a9.97728,9.97728,0,0,0,2.04722-2.04723l-.72089-1.61723a8.49507,8.49507,0,0,0,.94179-2.27361l1.6536-.63362a9.97465,9.97465,0,0,0,0-2.89629l-1.6536-.63362a8.49521,8.49521,0,0,0-.94179-2.27361l.72089-1.61723a9.97718,9.97718,0,0,0-2.04722-2.04721l-1.61723.72089a8.49491,8.49491,0,0,0-2.27361-.9418ZM22,13.59194A6.408,6.408,0,1,1,15.592,20,6.408,6.408,0,0,1,22,13.59194Z" style="fill: #b3e5fc;fill-rule: evenodd"/>
    <path d="M24.60684,22.60229a3.61953,3.61953,0,1,1-.0062-5.11878l.0062.0062-1.2795,1.2786a1.80976,1.80976,0,1,0-.004,2.55939h0l.004-.004Z" style="fill: #b3e5fc;fill-rule: evenodd"/>
  </g>
</svg>
