<svg xmlns="http://www.w3.org/2000/svg" viewBox="0 0 32 32">
  <path d="M28.96692,12H9.44152a2,2,0,0,0-1.89737,1.36754L4,24V10H28a2,2,0,0,0-2-2H15.1241a2,2,0,0,1-1.28038-.46357L12.5563,6.46357A2,2,0,0,0,11.27592,6H4A2,2,0,0,0,2,8V24a2,2,0,0,0,2,2H26l4.80523-11.21213A2,2,0,0,0,28.96692,12Z" style="fill: #ff7043"/>
  <path d="M30.49461,17.10007a8.82423,8.82423,0,0,0-.8804-.91286c-.764-.66324-1.63711-1.14108-2.36469-1.83993A5.40294,5.40294,0,0,1,26.2527,8a7.50547,7.50547,0,0,0-2.845,1.462,8.59289,8.59289,0,0,0-2.74306,9.87742.79239.79239,0,0,1,.09459.36372.62122.62122,0,0,1-.40017.55627.72192.72192,0,0,1-.75671-.1355,5.41869,5.41869,0,0,1-.78583-5.86944A7.794,7.794,0,0,0,16.01525,20.723a7.98433,7.98433,0,0,0,.33471,1.6688,7.18594,7.18594,0,0,0,.80765,1.91843A8.01956,8.01956,0,0,0,22.83293,27.876a8.80873,8.80873,0,0,0,6.934-1.76868A6.43772,6.43772,0,0,0,31.5132,18.783l-.14554-.28527a12.07391,12.07391,0,0,0-.88041-1.39782M26.8783,24.0891a4.005,4.005,0,0,1-1.25876.66324,3.334,3.334,0,0,1-3.31787-.91285,3.13056,3.13056,0,0,0,2.41571-2.275,6.19544,6.19544,0,0,0-.32016-2.46752,3.98931,3.98931,0,0,1,.18918-2.28221,6.97623,6.97623,0,0,0,.72761,1.16965c.87313,1.11255,2.25555,1.59755,2.55387,3.1094a1.67619,1.67619,0,0,1,.07277.47069,3.34,3.34,0,0,1-1.06231,2.52461Z" style="fill: #ffccbc"/>
</svg>
