<svg xmlns="http://www.w3.org/2000/svg" viewBox="0 0 16 16">
<path id="folder" fill="#546e7a" d="m6.922 3.768-.644-.536A1 1 0 0 0 5.638 3H2a1 1 0 0 0-1 1v8a1 1 0 0 0 1 1h12a1 1 0 0 0 1-1V5a1 1 0 0 0-1-1H7.562a1 1 0 0 1-.64-.232" />
<path id="motive" fill="#cfd8dc" d="M 12.5,5 9,6.6365 v 2.454 C 9,11.3615 10.493,13.4845 12.5,14 14.507,13.4845 16,11.3615 16,9.09 V 6.6365 Z m 0,1.6365 A 1.2285,1.2285 0 1 1 11.3335,7.8635 1.198,1.198 0 0 1 12.5,6.6365 m 1.995,4.9085 A 3.8,3.8 0 0 1 12.5,13.149 3.8,3.8 0 0 1 10.505,11.545 4.2,4.2 0 0 1 10.1665,10.92 c 0,-0.676 1.054,-1.228 2.3335,-1.228 1.2795,0 2.333,0.54 2.333,1.2275 a 4.15,4.15 0 0 1 -0.338,0.6255" />
</svg>
