<svg xmlns="http://www.w3.org/2000/svg" viewBox="0 0 16 16">
<path id="folder" fill="#00897b" d="m6.922 3.768-.644-.536A1 1 0 0 0 5.638 3H2a1 1 0 0 0-1 1v8a1 1 0 0 0 1 1h12a1 1 0 0 0 1-1V5a1 1 0 0 0-1-1H7.562a1 1 0 0 1-.64-.232" />
<g id="motive">
<path fill="#b2dfdb" d="M 7,6.0005 10.882958,14 h 1.268148 L 14.577392,9.000313 H 12.408637 L 11.518531,11.000187 9.169755,6 Z" />
<path fill="#ffcdd2" d="m 12.882217,6.0005 v 0.463384 h 0.86594 l -0.142491,0.291927 h -1.416401 v 0.460885 h 1.188417 L 13.208695,7.564609 H 11.511813 V 8 h 3.519754 L 16,6.007998 H 15.617527 V 6 Z" />
</g>
</svg>
