<svg xmlns="http://www.w3.org/2000/svg" viewBox="0 0 16 16"><path id="folder" fill="#78909c" d="m6.922 3.768-.644-.536A1 1 0 0 0 5.638 3H2a1 1 0 0 0-1 1v8a1 1 0 0 0 1 1h12a1 1 0 0 0 1-1V5a1 1 0 0 0-1-1H7.562a1 1 0 0 1-.64-.232"/><path id="motive" fill="#cfd8dc" d="M11.615 5a4 4 0 0 0-.567.032A3.05 3.05 0 0 0 8.473 6.72c-.619 1.32.05 3.063 2.06 3.643 1.235.37 1.493.897 1.338 1.53-.155.582-.566 1.216-.67 1.744a1.5 1.5 0 0 0-.05.474c.051 1.162 2.37 1.638 4.172-1.477a4.7 4.7 0 0 0 .67-2.27h-.001C16.137 7.79 14.38 5.03 11.615 5M6 8a1 1 0 0 0-1 1 1 1 0 0 0 1 1 1 1 0 0 0 1-1 1 1 0 0 0-1-1m2 3a2 2 0 0 0-2 2 2 2 0 0 0 2 2 2 2 0 0 0 2-2 2 2 0 0 0-2-2"/></svg>