<?xml version="1.0" encoding="UTF-8" standalone="no"?>
<svg
   xmlns:dc="http://purl.org/dc/elements/1.1/"
   xmlns:cc="http://creativecommons.org/ns#"
   xmlns:rdf="http://www.w3.org/1999/02/22-rdf-syntax-ns#"
   xmlns:svg="http://www.w3.org/2000/svg"
   xmlns="http://www.w3.org/2000/svg"
   xmlns:sodipodi="http://sodipodi.sourceforge.net/DTD/sodipodi-0.dtd"
   xmlns:inkscape="http://www.inkscape.org/namespaces/inkscape"
   clip-rule="evenodd"
   fill-rule="evenodd"
   stroke-linejoin="round"
   stroke-miterlimit="1.414"
   viewBox="0 0 24 24"
   version="1.1"
   id="svg6"
   sodipodi:docname="folder-core.svg"
   inkscape:version="0.92.2 5c3e80d, 2017-08-06">
  <metadata
     id="metadata12">
    <rdf:RDF>
      <cc:Work
         rdf:about="">
        <dc:format>image/svg+xml</dc:format>
        <dc:type
           rdf:resource="http://purl.org/dc/dcmitype/StillImage" />
      </cc:Work>
    </rdf:RDF>
  </metadata>
  <defs
     id="defs10" />
  <sodipodi:namedview
     pagecolor="#ffffff"
     bordercolor="#666666"
     borderopacity="1"
     objecttolerance="10"
     gridtolerance="10"
     guidetolerance="10"
     inkscape:pageopacity="0"
     inkscape:pageshadow="2"
     inkscape:window-width="741"
     inkscape:window-height="617"
     id="namedview8"
     showgrid="false"
     inkscape:zoom="9.8333333"
     inkscape:cx="12"
     inkscape:cy="12"
     inkscape:window-x="0"
     inkscape:window-y="0"
     inkscape:window-maximized="0"
     inkscape:current-layer="svg6" />
  <path
     d="M10 4H4c-1.11 0-2 .89-2 2v12c0 1.097.903 2 2 2h16c1.097 0 2-.903 2-2V8a2 2 0 0 0-2-2h-8l-2-2z"
     fill="#424242"
     fill-rule="nonzero"
     id="path2" />
  <path
     d="m 11.542373,12.099812 h 1.277778 v -1.277778 c -0.702778,0 -1.277778,0.575 -1.277778,1.277778 z m 0,5.111111 h 1.277778 v -1.277778 h -1.277778 z m 2.555555,5.111111 h 1.277778 v -1.277778 h -1.277778 z m -2.555555,-7.666667 h 1.277778 V 13.37759 h -1.277778 z m 6.388889,-3.833333 h -1.277778 v 1.277778 h 1.277778 z m 3.833333,0 v 1.277778 h 1.277778 c 0,-0.702778 -0.575,-1.277778 -1.277778,-1.277778 z m -8.944444,11.5 v -1.277778 h -1.277778 c 0,0.702778 0.575,1.277778 1.277778,1.277778 z m -1.277778,-2.555556 h 1.277778 v -1.277777 h -1.277778 z m 3.833333,-8.944444 h -1.277778 v 1.277778 h 1.277778 z m 1.277778,11.5 h 1.277778 v -1.277778 h -1.277778 z m 5.111111,-5.111111 h 1.277778 v -1.277778 h -1.277778 z m 0,5.111111 c 0.702778,0 1.277778,-0.575 1.277778,-1.277778 h -1.277778 z m 0,-7.666667 h 1.277778 V 13.37759 h -1.277778 z m 0,5.111111 h 1.277778 v -1.277777 h -1.277778 z m -2.555555,2.555556 h 1.277777 V 21.044256 H 19.20904 Z m 0,-10.222222 h 1.277777 V 10.822034 H 19.20904 Z m -5.111112,7.666666 h 6.388889 V 13.37759 h -6.388889 z m 1.277778,-5.111111 h 3.833334 v 3.833334 h -3.833334 z"
     id="path4"
     inkscape:connector-curvature="0"
     style="stroke-width:0.6388889" />
</svg>
