<svg xmlns="http://www.w3.org/2000/svg" viewBox="0 0 16 16">
<path id="folder" fill="#8bc34a" d="M14.483 6H4.721a1 1 0 0 0-.949.684L2 12V5h12a1 1 0 0 0-1-1H7.562a1 1 0 0 1-.64-.232l-.644-.536A1 1 0 0 0 5.638 3H2a1 1 0 0 0-1 1v8a1 1 0 0 0 1 1h11l2.403-5.606A1 1 0 0 0 14.483 6" />
<path id="motive" fill="#dcedc8" d="M 13.971499,9.7355 15.999999,7.707 15.292999,7 13.1265,9.1665 a 5.504999,5.504999 0 0 0 -5.252499,0 L 5.707001,7 l -0.707,0.707 2.0285,2.0285 a 5.489999,5.489999 0 0 0 -2.0285,4.264499 H 15.999999 A 5.489999,5.489999 0 0 0 13.971499,9.7355 M 9,12.999999 H 7.000001 v -2 H 9 Z m 4.999999,0 H 12 v -2 h 1.999999 z" />
</svg>
