<svg xmlns="http://www.w3.org/2000/svg" viewBox="0 0 32 32">
  <path d="M28.96692,12H9.44152a2,2,0,0,0-1.89737,1.36754L4,24V10H28a2,2,0,0,0-2-2H15.1241a2,2,0,0,1-1.28038-.46357L12.5563,6.46357A2,2,0,0,0,11.27592,6H4A2,2,0,0,0,2,8V24a2,2,0,0,0,2,2H26l4.80523-11.21213A2,2,0,0,0,28.96692,12Z" style="fill: #7cb342"/>
  <g>
    <path d="M16,16H14V29a1,1,0,0,0,1,1H28V28H16Z" style="fill: #dcedc8;fill-rule: evenodd"/>
    <path d="M31,12H19a1,1,0,0,0-1,1V25a1,1,0,0,0,1,1H31a1,1,0,0,0,1-1V13A1,1,0,0,0,31,12ZM26,24H20V22h6Zm4-4H20V18H30Zm0-4H20V14H30Z" style="fill: #dcedc8;fill-rule: evenodd"/>
  </g>
</svg>
