<?xml version="1.0" encoding="UTF-8"?>
<svg clip-rule="evenodd" stroke-linejoin="round" stroke-miterlimit="1.4142" version="1.1" viewBox="0 0 24 24" xml:space="preserve" xmlns="http://www.w3.org/2000/svg"><path d="m19 20h-15c-1.11 0-2-0.9-2-2v-12c0-1.11 0.89-2 2-2h6l2 2h7c1.097 0 2 0.903 2 2h-17v10l2.14-8h17.07l-2.28 8.5c-0.23 0.87-1.01 1.5-1.93 1.5z" fill="#64b5f6"/><g transform="matrix(.8608 0 0 .8608 -202.35 -28.955)" stroke-width=".17406"><path class="st0" d="m261.61 46.83c-0.087-0.2785-0.29592-0.50479-0.55701-0.64404l-5.309-2.5413c-0.13925-0.06963-0.2959-0.08703-0.43516-0.08703-0.13924 0-0.29591 0-0.43515 0.03481l-5.309 2.5587c-0.2611 0.12184-0.45257 0.34813-0.52219 0.64404l-1.3229 5.7267c-0.0522 0.29591 0.0174 0.59182 0.19148 0.83551l3.6727 4.5431c0.20888 0.20888 0.50479 0.34813 0.8007 0.36553h5.866c0.31331 0.03481 0.60922-0.10444 0.80069-0.36553l3.6728-4.5431c0.17406-0.24369 0.24368-0.5396 0.20887-0.83551z" fill="#1976d2"/><path class="st1" d="m260.77 52.295c-0.0174 0-0.0174 0-0.0174-0.01741 0-0.0174-0.0522-0.0174-0.0696-0.0174-0.0696-0.01741-0.13925-0.01741-0.20887-0.01741-0.0348 0-0.0696 0-0.10444-0.0174h-0.0174c-0.19147-0.0174-0.40034-0.05222-0.59182-0.10444-0.0522-0.0174-0.10443-0.06963-0.12184-0.12184 0-0.0174-0.0174-0.0174-0.0174-0.0174l-0.13925-0.03481c0.0696-0.50479 0.0348-1.027-0.0696-1.5318-0.12184-0.50479-0.33072-0.99217-0.60923-1.4273l0.10444-0.10444v-0.01741c0-0.05222 0.0174-0.12184 0.0522-0.15666 0.15666-0.12184 0.31332-0.24369 0.48738-0.33072 0.0348-0.0174 0.0696-0.03481 0.10444-0.05222 0.0696-0.03481 0.12184-0.06963 0.19147-0.10444 0.0174-0.01741 0.0348-0.01741 0.0522-0.03481l0.0174-0.01741c0.15666-0.12184 0.19147-0.33072 0.0696-0.48738-0.0522-0.06963-0.15666-0.12185-0.24369-0.12185-0.087 0-0.17407 0.03481-0.24369 0.08703l-0.0174 0.01741c-0.0174 0.0174-0.0348 0.03481-0.0522 0.03481-0.0522 0.05222-0.10444 0.10444-0.13925 0.15666-0.0174 0.03481-0.0522 0.05222-0.0696 0.06962-0.13925 0.13925-0.2785 0.2785-0.43516 0.38294-0.0348 0.0174-0.0696 0.03481-0.10444 0.03481-0.0174 0-0.0522 0-0.0696-0.01741l-0.13925 0.10444c-0.13925-0.13925-0.29591-0.2785-0.43516-0.41775-0.64404-0.50479-1.4447-0.8181-2.2628-0.90513l-0.0174-0.13925-0.0174-0.01741c-0.0522-0.03481-0.0696-0.08703-0.087-0.13925 0-0.19147 0-0.38294 0.0348-0.59182v-0.0174c0-0.03481 0.0174-0.06963 0.0174-0.10444 0.0174-0.06963 0.0174-0.13925 0.0348-0.20888v-0.10444c0.0174-0.17406-0.12185-0.34813-0.29591-0.34813-0.10443 0-0.20887 0.03481-0.2785 0.10444-0.0696 0.06963-0.10444 0.15666-0.10444 0.24369v0.08703c0 0.06962 0.0174 0.13925 0.0348 0.20888 0.0174 0.03481 0.0174 0.06963 0.0174 0.10444v0.01741c0.0348 0.19147 0.0348 0.38294 0.0348 0.59182-0.0174 0.05222-0.0348 0.10444-0.087 0.13925l-0.0174 0.0174-0.0174 0.13925c-0.19147 0.0174-0.38294 0.05222-0.59182 0.08703-0.8181 0.17406-1.5666 0.60922-2.141 1.2184l-0.10446-0.06962h-0.0174c-0.0174 0-0.0348 0.01741-0.0696 0.01741s-0.087-0.01741-0.10444-0.03481c-0.15665-0.12184-0.29591-0.2611-0.43516-0.40035-0.0174-0.03481-0.0522-0.05222-0.0696-0.06963-0.0522-0.05222-0.087-0.10444-0.13925-0.15666-0.0174-0.0174-0.0348-0.0174-0.0522-0.03481l-0.0174-0.0174c-0.0696-0.05222-0.15667-0.08703-0.2437-0.08703-0.10444 0-0.19147 0.03481-0.26109 0.12184-0.10444 0.15666-0.0696 0.36553 0.0696 0.48738 0.0174 0 0.0174 0.0174 0.0174 0.0174s0.0348 0.03481 0.0522 0.03481c0.0522 0.03481 0.12184 0.06962 0.19147 0.10444 0.0348 0.0174 0.0696 0.03481 0.10444 0.05222 0.17406 0.10444 0.33072 0.20888 0.48737 0.33072 0.0348 0.03481 0.0696 0.10444 0.0522 0.15666v0.0174l0.10444 0.10444c-0.0174 0.03481-0.0348 0.05222-0.0522 0.08703-0.5396 0.85291-0.74847 1.8625-0.59181 2.8547l-0.13926 0.03481c0 0.0174-0.0174 0.0174-0.0174 0.0174-0.0174 0.05222-0.0696 0.08703-0.12185 0.12184-0.19147 0.05222-0.38294 0.08703-0.59181 0.10444h-0.0174c-0.0348 0-0.0696 0-0.10444 0.01741-0.0696 0-0.13925 0.0174-0.20888 0.0174-0.0174 0-0.0348 0.0174-0.0696 0.0174-0.0174 0-0.0174 0-0.0348 0.01741-0.19147 0.03481-0.31331 0.20888-0.2785 0.40035 0.0348 0.15666 0.19147 0.2611 0.34813 0.24369 0.0348 0 0.0522 0 0.087-0.01741 0.0174 0 0.0174 0 0.0174-0.0174 0-0.01741 0.0348-0.01741 0.0696-0.01741 0.0696-0.0174 0.13925-0.05222 0.19147-0.06963 0.0348-0.01741 0.0696-0.03481 0.10444-0.03481h0.0174c0.17406-0.06963 0.36554-0.12184 0.55701-0.15666h0.0174c0.0522 0 0.10444 0.0174 0.13925 0.05222 0.0174 0 0.0174 0.0174 0.0174 0.0174l0.15666-0.0174c0.2611 0.8007 0.74847 1.5144 1.4273 2.0366 0.15666 0.12184 0.29591 0.22628 0.46998 0.31332l-0.0696 0.13925c0 0.0174 0.0174 0.0174 0.0174 0.0174 0.0348 0.05222 0.0348 0.12184 0.0174 0.17406-0.0696 0.17406-0.17407 0.34813-0.27851 0.50479v0.0174c-0.0174 0.03481-0.0348 0.05222-0.0696 0.08703s-0.0696 0.10444-0.12184 0.17406c-0.0174 0.01741-0.0174 0.03481-0.0348 0.05222 0 0 0 0.0174-0.0174 0.0174-0.087 0.17406-0.0174 0.38294 0.13925 0.46997 0.0348 0.0174 0.087 0.03481 0.13925 0.03481 0.13925 0 0.26109-0.08703 0.33072-0.20888 0 0 0-0.0174 0.0174-0.0174 0-0.0174 0.0174-0.03481 0.0348-0.05222 0.0174-0.06963 0.0522-0.12184 0.0696-0.19147l0.0348-0.10444c0.0522-0.19147 0.13925-0.36554 0.22628-0.5396 0.0348-0.05222 0.087-0.08703 0.13925-0.10444 0.0174 0 0.0174 0 0.0174-0.0174l0.0696-0.13925c0.48738 0.19147 0.99216 0.2785 1.5144 0.2785 0.31331 0 0.62663-0.03481 0.93994-0.10444 0.19147-0.03481 0.38294-0.10444 0.55701-0.15666l0.0696 0.12184c0.0174 0 0.0174 0 0.0174 0.0174 0.0522 0.0174 0.10444 0.05222 0.13925 0.10444 0.087 0.17406 0.15665 0.34813 0.22628 0.52219v0.0174l0.0348 0.10444c0.0174 0.06963 0.0348 0.13925 0.0696 0.19147 0.0174 0.0174 0.0174 0.03481 0.0348 0.05222 0 0 0 0.0174 0.0174 0.0174 0.0696 0.12184 0.19147 0.20888 0.33072 0.20888 0.0522 0 0.087-0.0174 0.13925-0.03481 0.0696-0.03481 0.13925-0.10444 0.15666-0.19147 0.0174-0.08703 0.0174-0.19147-0.0174-0.2785 0-0.0174-0.0174-0.0174-0.0174-0.0174 0-0.01741-0.0174-0.03481-0.0348-0.05222-0.0348-0.06963-0.0696-0.12184-0.12184-0.17406-0.0174-0.03481-0.0348-0.05222-0.0696-0.08703v-0.01739c-0.12184-0.15666-0.20887-0.33072-0.2785-0.50478-0.0174-0.05222-0.0174-0.12184 0.0174-0.17406 0-0.0174 0.0174-0.0174 0.0174-0.0174l-0.0522-0.13925c0.90514-0.5396 1.5666-1.3751 1.8973-2.3673l0.13925 0.0174c0.0174 0 0.0174-0.0174 0.0174-0.0174 0.0348-0.03481 0.087-0.05222 0.13926-0.05222h0.0174c0.19147 0.03481 0.38294 0.08703 0.557 0.15666h0.0174c0.0348 0.01741 0.0696 0.03481 0.10444 0.03481 0.0696 0.03481 0.12185 0.05222 0.19147 0.06963 0.0174 0 0.0348 0.0174 0.0696 0.0174 0.0174 0 0.0174 0 0.0348 0.01741 0.0348 0.0174 0.0522 0.0174 0.087 0.0174 0.15666 0 0.29591-0.10444 0.34813-0.24369-0.0522-0.17406-0.17406-0.31332-0.34813-0.34813zm-5.013-0.5396-0.46997 0.22628-0.46997-0.22628-0.13926-0.50478 0.33072-0.41775h0.53961l0.33072 0.41775zm2.8372-1.1314c0.087 0.36553 0.10444 0.73107 0.0696 1.0966l-1.6536-0.46997c-0.15667-0.03481-0.2437-0.19147-0.20888-0.34813 0.0174-0.05222 0.0348-0.08703 0.0696-0.12184l1.3055-1.1836c0.19148 0.31332 0.33072 0.66144 0.41776 1.027zm-0.93995-1.671-1.4099 1.0096c-0.12184 0.06963-0.29591 0.05222-0.38294-0.06963-0.0348-0.03481-0.0522-0.06963-0.0522-0.12184l-0.10444-1.758c0.73107 0.08703 1.4273 0.41776 1.9495 0.93995zm-3.1506-0.88773 0.34813-0.06963-0.10444 1.7406c0 0.15666-0.13925 0.2785-0.29591 0.2785-0.0522 0-0.087-0.01741-0.13925-0.03481l-1.4099-1.027c0.43516-0.43516 0.99217-0.74848 1.6014-0.88773zm-2.1236 1.5318 1.2881 1.1488c0.12185 0.10444 0.13926 0.2785 0.0348 0.40035-0.0348 0.05222-0.0696 0.06963-0.13925 0.08703l-1.671 0.48738c-0.0696-0.73107 0.10444-1.4795 0.48737-2.1236zm-0.29591 2.9417 1.7232-0.29591c0.13925 0 0.2785 0.08703 0.2959 0.22628 0.0174 0.05222 0.0174 0.12184-0.0174 0.17406l-0.66144 1.6014c-0.60922-0.40035-1.0966-1.0096-1.3403-1.7058zm3.9512 2.1584c-0.24368 0.05222-0.50478 0.08703-0.76588 0.08703-0.36553 0-0.74847-0.06963-1.0966-0.17406l0.85291-1.5492c0.087-0.10444 0.22629-0.13925 0.34813-0.06963 0.0522 0.03481 0.087 0.06963 0.13925 0.12184l0.83551 1.5144c-0.087 0.0174-0.19147 0.03481-0.31332 0.06963zm2.1236-1.5144c-0.2611 0.41776-0.62663 0.78329-1.0444 1.0444l-0.67885-1.6188c-0.0348-0.13925 0.0174-0.2785 0.15666-0.34813 0.0522-0.01741 0.10444-0.03481 0.15666-0.03481l1.7406 0.29591c-0.087 0.24369-0.19147 0.46997-0.33072 0.66144z" fill="#fff"/></g></svg>
