<svg xmlns="http://www.w3.org/2000/svg" viewBox="0 0 16 16"><path id="folder" fill="#1976d2" d="m6.922 3.768-.644-.536A1 1 0 0 0 5.638 3H2a1 1 0 0 0-1 1v8a1 1 0 0 0 1 1h12a1 1 0 0 0 1-1V5a1 1 0 0 0-1-1H7.562a1 1 0 0 1-.64-.232"/><path id="motive" fill="#bbdefb" d="M9 7v5h5V7Zm4 4h-3V8h3zM7 6h1V5a1 1 0 0 0-1 1m2-1h1v1H9Zm2 0h1v1h-1zm2 0h1v1h-1zm2 0v1h1a1 1 0 0 0-1-1m0 2h1v1h-1zm0 2h1v1h-1zm0 2h1v1h-1zm0 3a1 1 0 0 0 1-1h-1zm-2-1h1v1h-1zm-2 0h1v1h-1zm-2 0h1v1H9Zm-1 1v-1H7a1 1 0 0 0 1 1m-1-3h1v1H7Zm0-2h1v1H7Zm0-2h1v1H7Z"/></svg>