<svg xmlns="http://www.w3.org/2000/svg" viewBox="0 0 16 16"><path id="folder" fill="#c0ca33" d="m6.922 3.768-.644-.536A1 1 0 0 0 5.638 3H2a1 1 0 0 0-1 1v8a1 1 0 0 0 1 1h12a1 1 0 0 0 1-1V5a1 1 0 0 0-1-1H7.562a1 1 0 0 1-.64-.232"/><path id="motive" fill="#f0f4c3" d="M13.822 12.272c.98-1.182 1.096-2.402.337-4.668-.48-1.433-1.278-2.537-.692-3.427.624-.95 1.951-.03.845 1.24l.22.153c1.326.156 1.98-1.675.99-2.197-2.612-1.375-4.898 1.268-3.89 4.327.433 1.299 1.038 2.674.548 3.768a2.42 2.42 0 0 1-1.787 1.51c-1.143.057-.383-2.585.932-3.243.115-.058.279-.135.125-.33a2.87 2.87 0 0 0-3.122 1.627c-1.596 3.07 3.025 4.203 5.494 1.24"/></svg>