<svg viewBox="0 0 24 24" fill="none" xmlns="http://www.w3.org/2000/svg">
  <path
    d="M19 20H4C3.46957 20 2.96086 19.7893 2.58579 19.4142C2.21071 19.0391 2 18.5304 2 18V6C2 4.89 2.89 4 4 4H10L12 6H19C20.097 6 21 6.903 21 8H4V18L6.14 10H23.21L20.93 18.5C20.7 19.37 19.92 20 19 20Z"
    fill="#4CAF50" />
  <path
    d="M15.3583 18.4599V17.5642L12.8693 18.2696C12.8693 18.2696 13.0531 17.2018 14.3513 16.833C14.7448 16.7216 15.0807 16.7229 15.3577 16.776V13.1021H16.6041C16.5009 12.7717 16.3748 12.4488 16.2268 12.1359C16.0443 11.7651 15.8579 12.011 15.4334 12.3663C15.1344 12.6154 14.3785 13.1487 13.2421 13.4548C12.1057 13.7609 11.1867 13.68 10.803 13.6133C10.2593 13.5195 9.9746 13.3998 10.0018 13.814C10.0251 14.1783 10.1118 14.7439 10.3105 15.4901C10.7415 17.108 12.1639 20.2241 14.8529 19.4999C15.555 19.3103 16.0508 18.9369 16.3944 18.4593H15.3583V18.4599ZM11.3427 15.5128L13.2531 15.0093C13.2531 15.0093 13.1974 15.7444 12.481 15.9334C11.7646 16.1217 11.342 15.5128 11.342 15.5128H11.3427Z"
    fill="#A5D6A7" />
  <path
    d="M22.5495 13.1447C22.0525 13.232 20.8604 13.3401 19.3882 12.9453C17.9152 12.5506 16.938 11.8613 16.5504 11.5371C16.0016 11.0776 15.7608 10.7573 15.5227 11.2407C15.3124 11.6672 15.0438 12.3603 14.7836 13.3323C14.2206 15.4356 13.7993 19.8732 17.2823 20.807C20.7647 21.7402 22.6188 17.6858 23.1824 15.5825C23.4426 14.6118 23.5565 13.8766 23.5876 13.4022C23.6238 12.8651 23.2549 13.021 22.5495 13.1447V13.1447ZM15.5512 14.8849C15.5512 14.8849 16.0999 14.0306 17.0306 14.2959C17.9625 14.56 18.0343 15.5903 18.0343 15.5903L15.5512 14.8849ZM17.8233 18.716C16.186 18.2358 15.9336 16.9299 15.9336 16.9299L20.3324 18.1601C20.3324 18.1601 19.4445 19.1891 17.8233 18.716ZM19.3791 16.0323C19.3791 16.0323 19.9272 15.1787 20.8579 15.444C21.7885 15.7093 21.8622 16.739 21.8622 16.739L19.3791 16.0323Z"
    fill="#A5D6A7" />
</svg>