<svg xmlns="http://www.w3.org/2000/svg" xml:space="preserve" viewBox="0 0 32 32"><path fill="#00acc1" d="m13.844 7.536-1.288-1.072A2 2 0 0 0 11.276 6H4a2 2 0 0 0-2 2v16a2 2 0 0 0 2 2h24a2 2 0 0 0 2-2V10a2 2 0 0 0-2-2H15.124a2 2 0 0 1-1.28-.464"/><path fill="#b2ebf2" d="M23.24 27.996c-.13-.09-.284-.39-.372-.724-.078-.296-.108-1.078-.056-1.462.02-.143.03-.264.025-.27a2 2 0 0 0-.27-.042c-.82-.099-1.694-.378-2.36-.752a2 2 0 0 0-.294-.144c-.02 0-.092.106-.16.236-.313.604-.861 1.204-1.278 1.4-.152.07-.355.088-.448.038-.142-.076-.183-.376-.099-.708.058-.227.29-.706.478-.985.083-.124.248-.333.366-.466l.213-.24-.111-.107c-.294-.28-.846-.93-.846-.995 0-.023.753-.546.808-.56.028-.008.095.058.187.184.197.272.726.795 1.038 1.026 2.372 1.764 5.716 1.32 7.517-.996.095-.123.188-.224.207-.224.036 0 .78.506.807.548.023.037-.303.46-.58.752-.133.139-.24.264-.24.278s.103.134.23.267c.402.424.797 1.086.907 1.518.084.332.043.632-.099.708a.5.5 0 0 1-.18.029c-.433 0-1.15-.696-1.577-1.527-.082-.16-.161-.292-.176-.292a1 1 0 0 0-.186.102c-.62.397-1.544.74-2.344.868a2 2 0 0 0-.34.074c-.022.017-.02.097.01.277.052.32.032 1.083-.037 1.392-.07.318-.179.565-.313.711-.154.168-.273.193-.427.086m-8.513-6.49c-.008-.02-.01-1.076-.007-2.347l.008-2.31h1.21l.008.85c.006.637.017.857.043.874.02.012.323.023.674.023.497 0 .645-.008.67-.038q.03-.038.039-.874l.008-.834h1.21v4.677h-1.21l-.008-.893c-.005-.6-.018-.905-.04-.93-.025-.03-.173-.04-.673-.04s-.649.01-.674.04c-.021.025-.034.33-.04.93l-.007.893-.599.008c-.463.006-.602 0-.612-.03zm4.9 0c-.008-.02-.01-1.076-.006-2.347l.007-2.31h2.998l.008.513.008.512-.887.007-.888.008-.008.344c-.006.256.002.35.03.368.02.013.364.023.765.024h.728l-.008.513-.008.512-1.498.03v.808l.922.014.922.014v1.011l-1.535.007c-1.214.006-1.54 0-1.55-.029zm4.035 0c-.007-.02-.01-1.076-.006-2.347l.007-2.31h1.211l.015 1.82.014 1.818 1.758.03v1.01l-1.492.007c-1.179.006-1.496 0-1.507-.029zm3.834 0c-.007-.02-.01-1.076-.006-2.346l.007-2.31.634-.007c.35-.004.649.002.666.014.043.029.683 1.773.824 2.245.147.491.136.462.17.429.015-.016.083-.21.15-.431.15-.488.74-2.178.78-2.23.02-.027.176-.034.664-.028l.638.008v4.677l-.54.008-.54.008-.019-.077c-.04-.158.014-1.83.074-2.307.094-.75.08-.762-.143-.115-.241.7-.72 1.987-.766 2.057-.04.06-.063.065-.34.065-.205 0-.308-.011-.327-.036-.036-.046-.624-1.647-.785-2.136-.114-.345-.175-.47-.173-.349 0 .03.027.267.059.529.06.49.112 2.136.073 2.292l-.019.075h-.534c-.4 0-.537-.009-.547-.036zm.381-5.333a5.7 5.7 0 0 0-.64-.807c-.78-.82-1.716-1.337-2.867-1.583-.33-.071-.417-.078-1.024-.079-.714-.002-.87.016-1.424.161a5.3 5.3 0 0 0-2.035 1.037c-.29.237-.753.725-.95 1.003-.122.17-.184.234-.216.222-.105-.04-.808-.513-.808-.543.001-.069.475-.663.797-1l.332-.347-.22-.238c-.402-.436-.787-1.086-.894-1.508-.085-.332-.043-.632.099-.708a.5.5 0 0 1 .18-.03c.433.002 1.15.697 1.577 1.528.082.16.16.291.172.291s.125-.058.25-.13c.644-.367 1.677-.694 2.381-.754.122-.01.236-.028.255-.04.025-.015.021-.093-.016-.315-.068-.41-.047-1.213.041-1.547.14-.528.364-.824.592-.781.213.04.42.387.527.886.07.325.072 1.241.003 1.541-.025.111-.038.211-.027.222s.148.04.307.065c.918.145 1.615.401 2.469.91.058.034.113.05.121.036.01-.014.088-.169.175-.344.338-.676.882-1.29 1.328-1.5.152-.07.354-.088.448-.038.142.076.183.376.1.708-.063.243-.3.721-.512 1.032-.1.146-.3.386-.448.534l-.267.27.263.28c.266.282.735.882.821 1.048.04.075.04.096.008.126-.066.06-.775.477-.812.477-.02 0-.058-.038-.086-.085"/></svg>