<svg xmlns="http://www.w3.org/2000/svg" viewBox="0 0 32 32">
  <path d="M13.84376,7.53645l-1.28749-1.0729A2,2,0,0,0,11.27591,6H4A2,2,0,0,0,2,8V24a2,2,0,0,0,2,2H28a2,2,0,0,0,2-2V10a2,2,0,0,0-2-2H15.12412A2,2,0,0,1,13.84376,7.53645Z" style="fill: #546e7a"/>
  <g>
    <path d="M22.95357,10.00013a8.997,8.997,0,0,0-8.55446,6.36692.5.5,0,0,0,.486.633h3.22963a.49922.49922,0,0,0,.44205-.27938,5.00007,5.00007,0,1,1-.001,4.55668A.49472.49472,0,0,0,18.11735,21h-3.232a.50014.50014,0,0,0-.48615.63313,8.997,8.997,0,0,0,17.59718-2.89241A9.10306,9.10306,0,0,0,22.95357,10.00013Z" style="fill: #eceff1"/>
    <circle cx="23" cy="19" r="2" style="fill: #eceff1"/>
  </g>
</svg>
