<svg xmlns="http://www.w3.org/2000/svg" viewBox="0 0 16 16"><path id="folder" fill="#9575cd" d="m6.922 3.768-.644-.536A1 1 0 0 0 5.638 3H2a1 1 0 0 0-1 1v8a1 1 0 0 0 1 1h12a1 1 0 0 0 1-1V5a1 1 0 0 0-1-1H7.562a1 1 0 0 1-.64-.232"/><path id="motive" fill="#d1c4e9" d="m11.755 5.138-3.5 1.969A.5.5 0 0 0 8 7.541v3.915a.5.5 0 0 0 .255.436l3.5 1.969a.5.5 0 0 0 .49 0l3.5-1.968a.5.5 0 0 0 .255-.437V7.542a.5.5 0 0 0-.255-.436l-3.5-1.968a.5.5 0 0 0-.49 0M9.127 7.763l2.75-1.549a.25.25 0 0 1 .245 0L13 6.71V7L9 9V7.981a.25.25 0 0 1 .128-.217ZM13 8v2.76l-2.62-1.45Zm-1.123 4.786-2.75-1.55A.25.25 0 0 1 9 11.02V10l.295-.145 4.05 2.24-1.222.69a.25.25 0 0 1-.246 0ZM15 11.019a.25.25 0 0 1-.127.218l-.503.283-.37-.205V7.27l.873.493a.25.25 0 0 1 .127.218Z"/></svg>