<svg xmlns="http://www.w3.org/2000/svg" viewBox="0 0 16 16"><path id="folder" fill="#ec407a" d="m6.922 3.768-.644-.536A1 1 0 0 0 5.638 3H2a1 1 0 0 0-1 1v8a1 1 0 0 0 1 1h12a1 1 0 0 0 1-1V5a1 1 0 0 0-1-1H7.562a1 1 0 0 1-.64-.232"/><path id="motive" fill="#f8bbd0" d="M12 5c-1.705 0-3.155.535-3.73 1.285l2.625 2.625c.355.055.715.09 1.105.09 2.21 0 4-.895 4-2s-1.79-2-4-2M8 7v2H6v1h2v2l2.42-2.5M16 8c0 1.105-1.79 2-4 2-.33 0-.65-.025-.955-.065L9.81 11.17c.63.205 1.38.33 2.19.33 2.21 0 4-.895 4-2m0 1c0 1.105-1.79 2-4 2-1.14 0-2.165-.25-2.895-.625l-.84.84C8.84 13.465 10.295 14 12 14c2.21 0 4-.895 4-2"/></svg>