<svg xmlns="http://www.w3.org/2000/svg" viewBox="0 0 32 32"><path fill="#5c6bc0" d="M28.967 12H9.442a2 2 0 0 0-1.898 1.368L4 24V10h24a2 2 0 0 0-2-2H15.124a2 2 0 0 1-1.28-.464l-1.288-1.072A2 2 0 0 0 11.276 6H4a2 2 0 0 0-2 2v16a2 2 0 0 0 2 2h22l4.805-11.212A2 2 0 0 0 28.967 12Z"/><path fill="#c5cae9" d="M23.08 24 20 21.108l1.378-1.465 1.718 1.612L26.638 18 28 19.48 23.08 24z"/><path fill="#c5cae9" d="M30 12v-2h-2v2h-8v-2h-2v2a2 2 0 0 0-2 2v12a2 2 0 0 0 2 2h12a2 2 0 0 0 2-2V14a2 2 0 0 0-2-2Zm0 14H18V16h12Z"/></svg>