<svg xmlns="http://www.w3.org/2000/svg" viewBox="0 0 16 16">
<path id="folder" fill="#1e88e5" d="M14.483 6H4.721a1 1 0 0 0-.949.684L2 12V5h12a1 1 0 0 0-1-1H7.562a1 1 0 0 1-.64-.232l-.644-.536A1 1 0 0 0 5.638 3H2a1 1 0 0 0-1 1v8a1 1 0 0 0 1 1h11l2.403-5.606A1 1 0 0 0 14.483 6" />
<path id="motive" fill="#bbdefb" d="M 10.999,5 C 8,5 6,7 6,10 a 5,5 0 0 0 5,5 c 0.46,0 1,0 1,-1 0,-0.218 -0.2845,-0.3925 -0.482,-0.59 A 1.185,1.185 0 0 1 11,12.5 C 11,12 11.5,12 12,12 h 2 c 2,0 2,-2 2,-3 C 16,7 14,5 10.999,5 M 8,10 A 1,1 0 1 1 9,9 1,1 0 0 1 8,10 m 3,-2 a 1,1 0 1 1 1,-1 1,1 0 0 1 -1,1 m 3,2 a 1,1 0 1 1 1,-1 1,1 0 0 1 -1,1" />
</svg>
