<svg xmlns="http://www.w3.org/2000/svg" xml:space="preserve" viewBox="0 0 24 24" version="1.1" style="clip-rule:evenodd;fill-rule:evenodd;stroke-linejoin:round;stroke-miterlimit:2">
   <path style="fill-rule:nonzero;fill:#5a0fc8;fill-opacity:1" d="m19 20h-15c-1.11 0-2-0.9-2-2v-12c0-1.11 0.89-2 2-2h6l2 2h7c1.097 0 2 0.903 2 2h-17v10l2.14-8h17.07l-2.28 8.5c-0.23 0.87-1.01 1.5-1.93 1.5z" />
   <g style="clip-rule:evenodd;fill:#a664ff;fill-opacity:1;fill-rule:evenodd;stroke-linejoin:round;stroke-miterlimit:2" transform="matrix(0.00837557,0,0,0.00903289,7.600476,11.888342)">
      <path style="fill:#a664ff;fill-opacity:1;stroke-width:0.2;stroke-linejoin:round" d="m 1436.62,603.304 56.39,-142.599 h 162.82 L 1578.56,244.39 1675.2,5.28336e-4 1952,734.933 h -204.13 l -47.3,-131.629 z"/>
      <path style="fill:#a664ff;fill-opacity:1;stroke-width:0.2;stroke-linejoin:round" d="M 1262.47,734.935 1558.79,0.00156593 1362.34,0.0025425 1159.64,474.933 1015.5,0.00351906 H 864.499 L 709.731,474.933 600.585,258.517 501.812,562.819 602.096,734.935 h 193.331 l 139.857,-425.91 133.346,425.91 z"/>
      <path style="fill:#a664ff;fill-opacity:1;stroke-width:0.2;stroke-linejoin:round" d="m 186.476,482.643 h 121.003 c 36.654,0 69.293,-4.091 97.917,-12.273 l 31.293,-96.408 87.459,-269.446 C 517.484,93.9535 509.876,83.9667 501.324,74.5569 456.419,24.852 390.719,4.06265e-4 304.222,4.06265e-4 H -3.8147e-6 V 734.933 H 186.476 Z M 346.642,169.079 c 17.54,17.653 26.309,41.276 26.309,70.871 0,29.822 -7.713,53.474 -23.138,70.956 -16.91,19.425 -48.047,29.137 -93.409,29.137 H 186.476 V 142.598 h 70.442 c 42.277,0 72.185,8.827 89.724,26.481 z"/>
   </g>
</svg>