<?xml version="1.0" encoding="UTF-8"?>
<svg version="1.1" viewBox="0 0 32 32" xmlns="http://www.w3.org/2000/svg">
 <path d="M28.967 12H9.442a2 2 0 0 0-1.898 1.368L4 24V10h24a2 2 0 0 0-2-2H15.124a2 2 0 0 1-1.28-.464l-1.288-1.072A2 2 0 0 0 11.276 6H4a2 2 0 0 0-2 2v16a2 2 0 0 0 2 2h22l4.805-11.212A2 2 0 0 0 28.967 12" fill="#ff8f00"/>
 <g transform="translate(9,2)" fill="#ffecb3">
  <path d="m15 24v2h4v-2z" stroke-linecap="round" stroke-linejoin="round" stroke-miterlimit="2.6131" stroke-width="2.3325"/>
  <path d="m15 8-4 4v4l2 2v2l2 2h4l2-2v-2l2-2v-4l-4-4-2 2v2l-2 2h-2v-2l2-2h2l2-2z" stroke-width="1.4283"/>
 </g>
</svg>
