<svg xmlns="http://www.w3.org/2000/svg" viewBox="0 0 32 32">
  <path d="M28.96692,12H9.44152a2,2,0,0,0-1.89737,1.36754L4,24V10H28a2,2,0,0,0-2-2H15.1241a2,2,0,0,1-1.28038-.46357L12.5563,6.46357A2,2,0,0,0,11.27592,6H4A2,2,0,0,0,2,8V24a2,2,0,0,0,2,2H26l4.80523-11.21213A2,2,0,0,0,28.96692,12Z" style="fill: #fbc02d"/>
  <g>
    <path d="M24,30a2,2,0,0,0,2-2H22A2,2,0,0,0,24,30Z" style="fill: #fff9c4;fill-rule: evenodd"/>
    <path d="M30,22V17a5.00112,5.00112,0,0,0-4-4.89923V12a2,2,0,0,0-4,0v.10077A5.00112,5.00112,0,0,0,18,17v5l-2,2v2H32V24Z" style="fill: #fff9c4;fill-rule: evenodd"/>
  </g>
</svg>
