<svg version="1.1" viewBox="0 0 32 32" xml:space="preserve" xmlns="http://www.w3.org/2000/svg"><path d="m13.844 7.536-1.288-1.072c-0.35927-0.2996-0.8122-0.46379-1.28-0.464h-7.276c-1.1046 0-2 0.89543-2 2v16c0 1.1046 0.89543 2 2 2h24c1.1046 0 2-0.89543 2-2v-14c0-1.1046-0.89543-2-2-2h-12.876c-0.4678-2.105e-4 -0.92073-0.1644-1.28-0.464" fill="#1e88e5"/><path transform="translate(0,2)" d="m25 8c-3.878 0-7 3.122-7 7v7h7c3.878 0 7-3.122 7-7s-3.122-7-7-7zm3 4h2v6h-2v-6zm-8 2h2v4h-2v-4zm4 2h2v2h-2v-2zm-8 2-3.9961 0.019531v2.3223l-0.003906 1.6582h4v-4zm-4 6v4h4v-4h-4zm6 0v4h4v-4h-4z" fill="#bbdefb" stroke-width=".072422"/></svg>
