<?xml version="1.0" encoding="UTF-8"?>
<svg version="1.1" xmlns="http://www.w3.org/2000/svg" viewBox="0 0 24 24">
<path fill="#757575" d="M19,20H4c-1.105,0-2-0.895-2-2V6c0-1.11,0.89-2,2-2h6l2,2h7c1.097,0,2,0.903,2,2H4v10l2.14-8h17.07 l-2.28,8.5C20.7,19.37,19.92,20,19,20z"/>
<g>
	<path fill="#E0E0E0" d="M16.948,14.905l-5.856-3.446h-0.269v6.378l2-1.14l0.012-2.883l2.988,1.653v3.931l-2.857-1.654l-1.993,1.165l5.85,3.484l0.125-0.17V14.905z"/>
	<path fill="#BDBDBD" d="M16.822,14.801l5.668-3.342h0.333v6.378l-2-1.14l-0.012-2.883l-2.988,1.653v3.931l2.857-1.654l1.993,1.165l-5.85,3.484L16.822,14.801z"/>
	<path fill="#EEEEEE" d="M16.823,14.979l5.999-3.52l-5.503-3.187v2.291l2.504,1.484l-3,1.73l-3.001-1.73l2.501-1.484V8.272l-5.5,3.187L16.823,14.979L16.823,14.979L16.823,14.979z"/>
</g>
</svg>