<svg xmlns="http://www.w3.org/2000/svg" viewBox="0 0 16 16">
<path fill="#ffb300" d="m6.922 3.768-.644-.536A1 1 0 0 0 5.638 3H2a1 1 0 0 0-1 1v8a1 1 0 0 0 1 1h12a1 1 0 0 0 1-1V5a1 1 0 0 0-1-1H7.562a1 1 0 0 1-.64-.232" id="folder"/>
<path fill="#fff9c4" d="M14.5 8.5a0.995 0.995 0 0 0-0.8615 0.5h-1.9315l1.537-1.537a1.0175 1.0175 0 1 0-0.707-0.707L11 8.293v-1.9315a1 1 0 1 0-1 0v1.9315l-1.537-1.5375a1.017 1.017 0 1 0-0.707 0.7075L9.293 9h-1.9315a1 1 0 1 0 0 1h1.9315l-1.5375 1.537a1.0175 1.0175 0 1 0 0.7075 0.7075L10 10.707v1.9315a1 1 0 1 0 1 0v-1.9315l1.537 1.537a1.0175 1.0175 0 1 0 0.7075-0.707L11.707 10h1.9315A0.9985 0.9985 0 1 0 14.5 8.5" id="motive"/>
</svg>
