<?xml version="1.0" encoding="UTF-8" standalone="no"?>
<svg
   clip-rule="evenodd"
   stroke-linejoin="round"
   stroke-miterlimit="1.414"
   viewBox="0 0 24 24"
   xml:space="preserve"
   version="1.1"
   id="svg6"
   sodipodi:docname="folder-friend-open.svg"
   inkscape:version="1.1.2 (0a00cf5339, 2022-02-04)"
   xmlns:inkscape="http://www.inkscape.org/namespaces/inkscape"
   xmlns:sodipodi="http://sodipodi.sourceforge.net/DTD/sodipodi-0.dtd"
   xmlns="http://www.w3.org/2000/svg"
   xmlns:svg="http://www.w3.org/2000/svg"><defs
     id="defs10" /><sodipodi:namedview
     id="namedview8"
     pagecolor="#ffffff"
     bordercolor="#666666"
     borderopacity="1.0"
     inkscape:pageshadow="2"
     inkscape:pageopacity="0.0"
     inkscape:pagecheckerboard="0"
     showgrid="false"
     inkscape:zoom="26.83"
     inkscape:cx="11.442415"
     inkscape:cy="11.982855"
     inkscape:window-width="1680"
     inkscape:window-height="994"
     inkscape:window-x="0"
     inkscape:window-y="0"
     inkscape:window-maximized="1"
     inkscape:current-layer="svg6" /><path
     d="M19 20H4a2 2 0 0 1-2-2V6c0-1.11.89-2 2-2h6l2 2h7c1.097 0 2 .903 2 2H4v10l2.14-8h17.07l-2.28 8.5c-.23.87-1.01 1.5-1.93 1.5z"
     fill="#e57373"
     style="fill:#2e7d32"
     id="path2" /><path
     d="m 12.628013,14.735016 c 1.547501,0 2.800008,-1.252509 2.800008,-2.800008 0,-1.5475 -1.252507,-2.800008 -2.800008,-2.800008 -1.547499,0 -2.800008,1.252508 -2.800008,2.800008 0,1.547499 1.252509,2.800008 2.800008,2.800008 z m 1.920007,0.800002 h -0.207497 c -0.520001,0.249995 -1.097505,0.400002 -1.71251,0.400002 -0.615004,0 -1.189996,-0.150007 -1.712508,-0.400002 h -0.207497 c -1.589998,0 -2.880008,1.289998 -2.880008,2.880008 v 0.720003 c 0,0.662499 0.537503,1.200003 1.200004,1.200003 h 7.20002 c 0.6625,0 1.200004,-0.537504 1.200004,-1.200003 v -0.720003 c 0,-1.59001 -1.289998,-2.880008 -2.880008,-2.880008 z m 5.280014,-0.800002 c 1.325,0 2.400007,-1.075007 2.400007,-2.400007 0,-1.325001 -1.075007,-2.400006 -2.400007,-2.400006 -1.325001,0 -2.400006,1.075005 -2.400006,2.400006 0,1.325 1.075005,2.400007 2.400006,2.400007 z m 1.200004,0.800002 h -0.09502 c -0.347495,0.12 -0.714992,0.2 -1.105,0.2 -0.389995,0 -0.757503,-0.08 -1.105,-0.2 h -0.09502 c -0.509995,0 -0.980002,0.147496 -1.392508,0.384998 0.610008,0.657503 0.992507,1.53001 0.992507,2.49501 v 0.960003 c 0,0.05502 -0.01255,0.107446 -0.01502,0.160001 h 4.415016 c 0.662501,0 1.200004,-0.537503 1.200004,-1.200004 0,-1.547499 -1.252508,-2.800008 -2.800008,-2.800008 z"
     id="path585"
     style="fill:#a5d6a7;stroke-width:0.0250001" /></svg>
