<svg xmlns="http://www.w3.org/2000/svg" viewBox="0 0 16 16"><path id="folder" fill="#0288d1" d="m6.922 3.768-.644-.536A1 1 0 0 0 5.638 3H2a1 1 0 0 0-1 1v8a1 1 0 0 0 1 1h12a1 1 0 0 0 1-1V5a1 1 0 0 0-1-1H7.562a1 1 0 0 1-.64-.232"/><g id="motive" fill="#27ddf5" transform="translate(6.6 6) scale(0.058)"><rect x="6" y="10" width="8" height="80"/><rect x="6" y="10" width="20" height="8"/><rect x="6" y="82" width="20" height="8"/><rect x="32" y="22" width="8" height="56"/><rect x="32" y="22" width="28" height="8"/><rect x="32" y="46" width="22" height="8"/><rect x="32" y="70" width="28" height="8"/><rect x="80" y="10" width="8" height="80"/><rect x="68" y="10" width="20" height="8"/><rect x="68" y="82" width="20" height="8"/></g></svg>