<svg xmlns="http://www.w3.org/2000/svg" viewBox="0 0 16 16"><path id="folder" fill="#8e24aa" d="m6.922 3.768-.644-.536A1 1 0 0 0 5.638 3H2a1 1 0 0 0-1 1v8a1 1 0 0 0 1 1h12a1 1 0 0 0 1-1V5a1 1 0 0 0-1-1H7.562a1 1 0 0 1-.64-.232"/><path id="motive" fill="#e1bee7" transform="translate(4.66 4.29) scale(.0105) translate(0 960)" d="M424-343q0-80 16-120t64-76q45-34 63-58.5t18-69.5q0-38-25.5-63T488-755q-40 0-73.5 26T367-659l-121-51q27-80 91-127.5T488-885q109 0 168 66.5T715-667q0 63-20 104t-71 84q-45 38-57.5 66T554-343H424Zm64 289q-44 0-75-31t-31-75q0-44 31-75t75-31q44 0 75 31t31 75q0 44-31 75t-75 31Z"/></svg>