<svg xmlns="http://www.w3.org/2000/svg" fill="none" viewBox="0 0 32 32"><path fill="#448aff" d="m13.844 7.536-1.288-1.072A2 2 0 0 0 11.276 6H4a2 2 0 0 0-2 2v16a2 2 0 0 0 2 2h24a2 2 0 0 0 2-2V10a2 2 0 0 0-2-2H15.124a2 2 0 0 1-1.28-.464"/><path fill="#bbdefb" d="M22 14.5a5.501 5.501 0 0 1 0 11 5.501 5.501 0 0 1 0-11m0 2a3.5 3.5 0 0 0 0 7 3.5 3.5 0 0 0 0-7"/><path fill="#bbdefb" d="M22 10c5.523 0 10 4.477 10 10s-4.477 10-10 10-10-4.477-10-10 4.477-10 10-10m0 2a8 8 0 1 0 0 16 8 8 0 0 0 0-16"/></svg>