<svg xmlns="http://www.w3.org/2000/svg" viewBox="0 0 32 32">
  <path d="M28.96692,12H9.44152a2,2,0,0,0-1.89737,1.36754L4,24V10H28a2,2,0,0,0-2-2H15.1241a2,2,0,0,1-1.28038-.46357L12.5563,6.46357A2,2,0,0,0,11.27592,6H4A2,2,0,0,0,2,8V24a2,2,0,0,0,2,2H26l4.80523-11.21213A2,2,0,0,0,28.96692,12Z" style="fill: #ab47bc"/>
  <path d="M21.57959,25.99874A3.89983,3.89983,0,0,1,17.7898,30a4.00715,4.00715,0,0,1,0-8.00251h0A3.89983,3.89983,0,0,1,21.57959,25.99874Zm4.704-9.4706A3.96619,3.96619,0,0,0,23.027,12.03535a3.83269,3.83269,0,0,0-4.25536,3.43835,4.02644,4.02644,0,0,0,2.45694,4.28522c2.90552,1.20519,3.58954,2.42308,3.22653,5.70927a3.96658,3.96658,0,0,0,3.25339,4.49541,3.8323,3.8323,0,0,0,4.25784-3.43491,4.02662,4.02662,0,0,0-2.45617-4.2881c-2.90553-1.20679-3.591-2.42624-3.225-5.71245Z" style="fill: #e1bee7"/>
</svg>
