<svg xmlns="http://www.w3.org/2000/svg" viewBox="0 0 16 16"><path id="folder" fill="#a1887f" d="m6.922 3.768-.644-.536A1 1 0 0 0 5.638 3H2a1 1 0 0 0-1 1v8a1 1 0 0 0 1 1h12a1 1 0 0 0 1-1V5a1 1 0 0 0-1-1H7.562a1 1 0 0 1-.64-.232"/><g id="motive"><path fill="#8d6e63" d="M9 11v2c0 .554.446 1 1 1h5.5c.277 0 .5-.223.5-.5V11Z"/><path fill="#ffe082" d="M14 12v1h1v-1z"/><path fill="#fff8e1" d="M10 12c0 .554.446 1 1 1h4a1 1 0 0 1-1-1z"/><path fill="#ff1744" d="M11 12.5h1V15h-1z"/><path fill="#d7ccc8" d="M10 5c-.554 0-1 .446-1 1v7a1 1 0 0 1 1-1h5.5c.277 0 .5-.223.5-.5v-6c0-.277-.223-.5-.5-.5Z"/><path fill="#5d4037" d="M10 6v.5h.5c.5 0 .5.112.5.25v3.5c0 .138 0 .25-.5.25H10v.5h3c1.105 0 2-.616 2-1.375 0-.63-.623-1.179-1.51-1.333.328-.252.51-.578.51-.917C14 6.615 13.105 6 12 6Zm2.248.527c.432.097.752.44.752.848 0 .483-.448.875-1 .875v-1.5c0-.138.114-.253.248-.223M12 8.75h1c.552 0 1 .392 1 .875s-.448.875-1 .875h-.75a.25.25 0 0 1-.25-.25Z"/></g></svg>