<?xml version="1.0" encoding="UTF-8"?>
<svg clip-rule="evenodd" fill-rule="evenodd" stroke-linejoin="round" stroke-miterlimit="1.4142" version="1.1" viewBox="0 0 24 24" xml:space="preserve" xmlns="http://www.w3.org/2000/svg"><path d="m10 4h-6c-1.11 0-2 0.89-2 2v12c0 1.097 0.903 2 2 2h16c1.097 0 2-0.903 2-2v-10c0-1.11-0.9-2-2-2h-8l-2-2z" fill="#fbc02d" fill-rule="nonzero"/><path d="m21.436 11.754h-6.2881v-1.2576h6.2881m-2.5153 6.2881h-3.7729v-1.2576h3.7729m2.5153-1.2576h-6.2881v-1.2576h6.2881m0.62881-4.4017h-7.5458a1.2576 1.2576 0 0 0 -1.2576 1.2576v7.5458a1.2576 1.2576 0 0 0 1.2576 1.2576h7.5458a1.2576 1.2576 0 0 0 1.2576 -1.2576v-7.5458a1.2576 1.2576 0 0 0 -1.2576 -1.2576m-10.061 2.5153h-1.2576v8.8034a1.2576 1.2576 0 0 0 1.2576 1.2576h8.8034v-1.2576h-8.8034z" fill="#ffecb3" stroke-width=".62881"/></svg>
