<svg viewBox="0 0 24 24" fill="none" xmlns="http://www.w3.org/2000/svg">
  <path d="M10 4H4c-1.11 0-2 .89-2 2v12c0 1.097.903 2 2 2h16c1.097 0 2-.903 2-2V8a2 2 0 0 0-2-2h-8l-2-2Z"
    fill="#E040FB" />
  <path fill-rule="evenodd" clip-rule="evenodd"
    d="M17.876 11.793 17.863 8.5h-1.835l.012 3.293.918 1.26.918-1.26ZM16.04 17.435v3.305h1.836v-3.305l-.918-1.26-.918 1.26ZM17.876 17.435l1.934 2.669 1.48-1.078-1.933-2.668-1.481-.477v1.554ZM16.04 11.793l-1.946-2.669-1.481 1.077 1.934 2.669 1.493.477v-1.554ZM14.546 12.87l-3.133-1.016-.563 1.738 3.133 1.028 1.481-.49-.918-1.26Z"
    fill="#E1BEE7" />
  <path fill-rule="evenodd" clip-rule="evenodd"
    d="m18.439 15.097.918 1.261 3.133 1.016.563-1.738-3.133-1.016-1.481.477ZM19.92 14.62l3.133-1.028-.563-1.738-3.133 1.016-.918 1.26 1.48.49ZM13.983 14.62l-3.133 1.016.563 1.738 3.133-1.016.918-1.26-1.48-.478ZM14.546 16.358l-1.933 2.668 1.48 1.078 1.947-2.669v-1.554l-1.493.477ZM19.357 12.87 21.29 10.2 19.81 9.124l-1.934 2.669v1.554l1.48-.477Z"
    fill="#E1BEE7" />
</svg>