<?xml version="1.0" encoding="UTF-8" standalone="no"?>
<svg
   xmlns:dc="http://purl.org/dc/elements/1.1/"
   xmlns:cc="http://creativecommons.org/ns#"
   xmlns:rdf="http://www.w3.org/1999/02/22-rdf-syntax-ns#"
   xmlns:svg="http://www.w3.org/2000/svg"
   xmlns="http://www.w3.org/2000/svg"
   xmlns:sodipodi="http://sodipodi.sourceforge.net/DTD/sodipodi-0.dtd"
   xmlns:inkscape="http://www.inkscape.org/namespaces/inkscape"
   clip-rule="evenodd"
   fill-rule="evenodd"
   stroke-linejoin="round"
   stroke-miterlimit="1.4142"
   version="1.1"
   viewBox="0 0 24 24"
   xml:space="preserve"
   id="svg8"
   sodipodi:docname="folder-job.svg"
   inkscape:version="0.92.2 5c3e80d, 2017-08-06"><metadata
     id="metadata14"><rdf:RDF><cc:Work
         rdf:about=""><dc:format>image/svg+xml</dc:format><dc:type
           rdf:resource="http://purl.org/dc/dcmitype/StillImage" /></cc:Work></rdf:RDF></metadata><defs
     id="defs12" /><sodipodi:namedview
     pagecolor="#ffffff"
     bordercolor="#666666"
     borderopacity="1"
     objecttolerance="10"
     gridtolerance="10"
     guidetolerance="10"
     inkscape:pageopacity="0"
     inkscape:pageshadow="2"
     inkscape:window-width="1286"
     inkscape:window-height="685"
     id="namedview10"
     showgrid="false"
     inkscape:zoom="9.8333333"
     inkscape:cx="13.220339"
     inkscape:cy="12"
     inkscape:window-x="0"
     inkscape:window-y="0"
     inkscape:window-maximized="0"
     inkscape:current-layer="svg8" /><path
     d="m10 4h-6c-1.11 0-2 0.89-2 2v12c0 1.097 0.903 2 2 2h16c1.097 0 2-0.903 2-2v-10c0-1.11-0.9-2-2-2h-8l-2-2z"
     fill="#ffb300"
     fill-rule="nonzero"
     id="path2" /><path
     d="M0 0h24v24H0z"
     fill="none"
     id="path6" /><path
     d="M 21.6,12.836842 H 19 V 11.468421 C 19,10.708948 18.4215,10.1 17.7,10.1 h -2.6 c -0.7215,0 -1.3,0.608948 -1.3,1.368421 v 1.368421 h -2.6 c -0.7215,0 -1.2935,0.608948 -1.2935,1.368421 L 9.9,21.731577 C 9.9,22.491049 10.4785,23.1 11.2,23.1 h 10.4 c 0.7215,0 1.3,-0.608951 1.3,-1.368423 v -7.526314 c 0,-0.759473 -0.5785,-1.368421 -1.3,-1.368421 z m -3.9,0 h -2.6 v -1.368421 h 2.6 z"
     id="path8"
     inkscape:connector-curvature="0"
     style="stroke-width:0.66688579" /></svg>