<svg xmlns="http://www.w3.org/2000/svg" xmlns:xlink="http://www.w3.org/1999/xlink" viewBox="0 0 32 32"><defs><linearGradient id="a" x1="30.58045" y1="13.80763" x2="17.8155" y2="26.57258" gradientUnits="userSpaceOnUse"><stop offset="0.15" stop-color="#2196f3"/><stop offset="0.85" stop-color="#f50057"/></linearGradient></defs><path d="M28.967,12H9.442a2,2,0,0,0-1.898,1.368L4,24V10H28a2,2,0,0,0-2-2H15.124a2,2,0,0,1-1.28-.464L12.556,6.464A2,2,0,0,0,11.276,6H4A2,2,0,0,0,2,8V24a2,2,0,0,0,2,2H26l4.805-11.212A2,2,0,0,0,28.967,12Z" style="fill:#546e7a"/><path d="M23,16a3,3,0,1,1-3,3,3,3,0,0,1,3-3m0-2a5,5,0,1,0,5,5A5,5,0,0,0,23,14Z" style="fill:#cfd8dc"/><path d="M16,20a7.10357,7.10357,0,0,0,1.50061,3.40979L16.079,24.83606A9.04947,9.04947,0,0,1,14,20Zm15.9444-2.00323A9.01473,9.01473,0,0,0,24,10v2a7.08453,7.08453,0,0,1,0,14v2A9.02919,9.02919,0,0,0,31.9444,17.99677ZM17.53,26.22729A9.0718,9.0718,0,0,0,22,28V26a7.128,7.128,0,0,1-3.02972-1.21771Z" style="fill:url(#a)"/></svg>