<svg viewBox="0 0 24 24" xmlns="http://www.w3.org/2000/svg" xml:space="preserve" stroke-miterlimit="1.414" stroke-linejoin="round" fill-rule="evenodd" clip-rule="evenodd">
<path d="M19 20H4a2 2 0 0 1-2-2V6c0-1.11.89-2 2-2h6l2 2h7c1.097 0 2 .903 2 2H4v10l2.14-8h17.07l-2.28 8.5c-.23.87-1.01 1.5-1.93 1.5z"  style="fill:#039be5" />
<path stroke="null" fill="#b3e5fc" d="m20.71591,19.01246l-11.5569,0l0,-7.72505l11.5569,0m0,-1.28751l-11.5569,0c-0.71268,0 -1.2841,0.57294 -1.2841,1.28751l0,7.72505a1.2841,1.28751 0 0 0 1.2841,1.28751l4.49435,0l0,1.28751l-1.2841,0l0,1.28751l5.1364,0l0,-1.28751l-1.2841,0l0,-1.28751l4.49435,0a1.2841,1.28751 0 0 0 1.2841,-1.28751l0,-7.72505c0,-0.71457 -0.57784,-1.28751 -1.2841,-1.28751z"/>
</svg>