<svg width="24" height="24" viewBox="0 0 24 24" fill="none" xmlns="http://www.w3.org/2000/svg">
<path d="M19 20H4C2.89 20 2 19.1 2 18V6C2 4.89 2.89 4 4 4H10L12 6H19C19.5304 6 20.0391 6.21071 20.4142 6.58579C20.7893 6.96086 21 7.46957 21 8H4V18L6.14 10H23.21L20.93 18.5C20.7 19.37 19.92 20 19 20Z" fill="#FF9800"/>
<path d="M17.4169 10.59C16.1237 10.5915 14.8687 11.028 13.8537 11.8292C12.8387 12.6305 12.1228 13.75 11.8212 15.0075C12.2888 14.3897 13.0685 13.8628 14.0634 13.4925C15.0583 13.1222 16.2244 12.9248 17.4169 12.9247C18.612 12.9254 19.7802 13.1244 20.7757 13.4968C21.7712 13.8692 22.55 14.3985 23.0148 15.0186C22.7153 13.7587 22 12.6364 20.9843 11.8329C19.9687 11.0294 18.712 10.5916 17.4169 10.59ZM11.819 17.6839C12.1186 18.9438 12.8339 20.0661 13.8495 20.8696C14.8651 21.6731 16.1219 22.111 17.4169 22.1125C18.7101 22.1111 19.9652 21.6746 20.9802 20.8733C21.9952 20.072 22.7111 18.9525 23.0126 17.695C22.545 18.3129 21.7653 18.8397 20.7704 19.21C19.7755 19.5803 18.6094 19.7778 17.4169 19.7779C16.2218 19.7771 15.0536 19.5781 14.0581 19.2057C13.0626 18.8333 12.2838 18.304 11.819 17.6839Z" fill="#FFE0B2"/>
<path d="M12.6969 23.7861C13.3634 23.7861 13.9037 23.2458 13.9037 22.5794C13.9037 21.9129 13.3634 21.3726 12.6969 21.3726C12.0304 21.3726 11.4901 21.9129 11.4901 22.5794C11.4901 23.2458 12.0304 23.7861 12.6969 23.7861Z" fill="#ABABAB"/>
<path d="M11.8862 11.8283C12.3757 11.8283 12.7725 11.4315 12.7725 10.942C12.7725 10.4526 12.3757 10.0558 11.8862 10.0558C11.3968 10.0558 11 10.4526 11 10.942C11 11.4315 11.3968 11.8283 11.8862 11.8283Z" fill="#ABABAB"/>
<path d="M22.3129 11.2627C22.9377 11.2627 23.4443 10.7562 23.4443 10.1314C23.4443 9.50653 22.9377 9 22.3129 9C21.6881 9 21.1815 9.50653 21.1815 10.1314C21.1815 10.7562 21.6881 11.2627 22.3129 11.2627Z" fill="#ABABAB"/>
</svg>
