<svg xmlns="http://www.w3.org/2000/svg" viewBox="0 0 32 32"><path fill="#0288d1" d="M28.967 12H9.442a2 2 0 0 0-1.898 1.368L4 24V10h24a2 2 0 0 0-2-2H15.124a2 2 0 0 1-1.28-.464l-1.288-1.072A2 2 0 0 0 11.276 6H4a2 2 0 0 0-2 2v16a2 2 0 0 0 2 2h22l4.805-11.212A2 2 0 0 0 28.967 12Z"/><path fill="#b3e5fc" d="M31.445 24.006a7.163 7.163 0 0 0-2.736 1.301 16.238 16.238 0 0 1-4.038 1.886 1.112 1.112 0 0 1-.68.394 41.698 41.698 0 0 1-4.455.413c-.805.006-1.296-.212-1.434-.554a1.14 1.14 0 0 1 .58-1.474l.02-.008a2.535 2.535 0 0 1-.357-.27c-.118-.122-.243-.368-.28-.277-.156.392-.237 1.352-.654 1.784a2.038 2.038 0 0 1-2.3.052c-.704-.386.05-1.295.05-1.295a.497.497 0 0 1-.679-.23l-.007-.015a3.563 3.563 0 0 1-.46-2.106 3.923 3.923 0 0 1 1.221-2.08 6.852 6.852 0 0 1 .455-3.144 7.385 7.385 0 0 1 2.187-2.614s-1.34-1.527-.84-2.912c.322-.903.453-.895.56-.935a2.49 2.49 0 0 0 1.003-.61 3.578 3.578 0 0 1 3.046-1.213s.8-2.53 1.546-2.035a13.31 13.31 0 0 1 1.06 2.062s.885-.535.985-.336a8.353 8.353 0 0 1 .361 4.382 10.125 10.125 0 0 1-1.795 3.863 7.881 7.881 0 0 1 1.808 2.778 8.4 8.4 0 0 1 .181 3.722l.024.044a4.436 4.436 0 0 0 2.343-.934 5.768 5.768 0 0 1 2.954-1.147.75.75 0 0 1 .873.62.775.775 0 0 1-.542.888Z"/></svg>