<svg xmlns="http://www.w3.org/2000/svg" viewBox="0 0 32 32">
  <path d="M13.84376,7.53645l-1.28749-1.0729A2,2,0,0,0,11.27591,6H4A2,2,0,0,0,2,8V24a2,2,0,0,0,2,2H28a2,2,0,0,0,2-2V10a2,2,0,0,0-2-2H15.12412A2,2,0,0,1,13.84376,7.53645Z" style="fill: #448aff"/>
  <g>
    <polygon points="32 18 28 22 12 22 16 18 32 18" style="fill: #bbdefb;fill-rule: evenodd"/>
    <polygon points="28 12 24 16 18 16 22 12 28 12" style="fill: #bbdefb;fill-rule: evenodd"/>
    <polygon points="26 24 22 28 16 28 20 24 26 24" style="fill: #bbdefb;fill-rule: evenodd"/>
  </g>
</svg>
