<?xml version="1.0" encoding="UTF-8" standalone="no"?>
<svg
   style="enable-background:new 0 0 24 24"
   viewBox="0 0 24 24"
   xml:space="preserve"
   version="1.1"
   id="svg2"
   sodipodi:docname="folder-platform-open.svg"
   inkscape:version="1.3 (0e150ed, 2023-07-21)"
   xmlns:inkscape="http://www.inkscape.org/namespaces/inkscape"
   xmlns:sodipodi="http://sodipodi.sourceforge.net/DTD/sodipodi-0.dtd"
   xmlns="http://www.w3.org/2000/svg"
   xmlns:svg="http://www.w3.org/2000/svg"><defs
     id="defs2" /><sodipodi:namedview
     id="namedview2"
     pagecolor="#ffffff"
     bordercolor="#000000"
     borderopacity="0.25"
     inkscape:showpageshadow="2"
     inkscape:pageopacity="0.0"
     inkscape:pagecheckerboard="0"
     inkscape:deskcolor="#d1d1d1"
     inkscape:zoom="36.041667"
     inkscape:cx="12"
     inkscape:cy="12.013873"
     inkscape:window-width="1440"
     inkscape:window-height="1567"
     inkscape:window-x="3240"
     inkscape:window-y="25"
     inkscape:window-maximized="0"
     inkscape:current-layer="svg2" /><path
     d="M19 20H4c-1.1 0-2-.9-2-2V6c0-1.1.9-2 2-2h6l2 2h7c1.1 0 2 .9 2 2H4v10l2.1-8h17.1l-2.3 8.5c-.2.9-1 1.5-1.9 1.5z"
     style="fill:#2196f3;fill-opacity:1"
     id="path1" /><g
     id="g3"
     transform="matrix(0.66666667,0,0,0.49740932,9,8.5051815)"
     style="fill:#bbdefb;fill-opacity:1"><path
       d="M 19.369141,12.800781 12,18.539062 4.6191406,12.810547 3,14.070313 l 9,6.999999 9,-6.999999 z m 0,5.054688 L 12,23.595703 4.6191406,17.865234 3,19.125 l 9,7 9,-7 z"
       id="path3"
       style="fill:#bbdefb;fill-opacity:1" /><path
       d="m 12,16 7.36,-5.73 1.64,-1.2700002 -9,-7 -9,7 L 4.63,10.27"
       id="path1-9"
       style="display:inline;fill:#bbdefb;fill-opacity:1" /></g></svg>
