<svg clip-rule="evenodd" fill-rule="evenodd" stroke-linejoin="round" stroke-miterlimit="1.414" viewBox="0 0 24 24" xml:space="preserve" xmlns="http://www.w3.org/2000/svg"><path d="M10 4H4c-1.11 0-2 .89-2 2v12c0 1.097.903 2 2 2h16c1.097 0 2-.903 2-2V8a2 2 0 0 0-2-2h-8l-2-2z" fill="#673AB7" fill-rule="nonzero"/><path d="m19.886 12.784 1.55.896a.303.303 0 0 1 .152.262v4.31a.303.303 0 0 1-.151.261l-.942.544-.135-.077-.474-.274ZM14.163 16.8l5.12 2.957-1.578.911a.303.303 0 0 1-.303 0l-3.732-2.155a.303.303 0 0 1-.152-.262v-1.079l.037-.02zm1.211-.699 3.3-1.905v3.81zm3.3-3.304-5.156 2.976v-1.831c0-.108.058-.208.152-.262l3.732-2.155a.303.303 0 0 1 .303 0l.97.56v.286zm-1.878-2.321a1.514 1.514 0 0 1 1.515 0l3.732 2.154c.468.27.757.77.757 1.312v4.31c0 .54-.289 1.04-.757 1.31l-3.732 2.155c-.469.271-1.046.271-1.515 0l-3.732-2.154a1.515 1.515 0 0 1-.757-1.312v-4.31c0-.54.288-1.04.757-1.31z" fill="#B39DDB" style="stroke-width:.0302905"/></svg>
