<svg clip-rule="evenodd" fill-rule="evenodd" stroke-linejoin="round" stroke-miterlimit="1.41" viewBox="0 0 24 24" xmlns="http://www.w3.org/2000/svg"><path d="M10 4H4c-1.11 0-2 .89-2 2v12c0 1.1.9 2 2 2h16c1.1 0 2-.9 2-2V8a2 2 0 0 0-2-2h-8z" fill="#7f54b3" fill-rule="nonzero"/><path d="M21.09 14.08H10.51c-.67 0-1.21.55-1.21 1.21v4.04c0 .67.54 1.21 1.21 1.21h5.01l2.29 1.28-.52-1.28h3.79c.67 0 1.21-.54 1.21-1.21v-4.04c0-.67-.54-1.21-1.21-1.21zm-10.8.93c-.15.01-.26.06-.33.16s-.1.22-.09.36c.31 1.99.61 3.34.88 4.03.11.26.23.38.37.37.22-.02.49-.32.8-.92.16-.34.42-.85.77-1.53.29 1 .68 1.76 1.17 2.26.14.14.28.21.42.2a.33.33 0 0 0 .28-.19c.05-.1.07-.22.06-.35-.03-.48.02-1.16.15-2.02.14-.89.31-1.54.52-1.92.04-.08.06-.16.05-.26-.01-.12-.06-.22-.16-.3s-.21-.12-.33-.11c-.15.01-.27.09-.35.23-.33.6-.56 1.57-.7 2.92-.2-.51-.37-1.11-.5-1.82-.06-.31-.2-.46-.44-.45-.16.01-.29.12-.4.32l-1.17 2.23c-.19-.77-.37-1.71-.54-2.82-.04-.28-.19-.4-.46-.38zm10.24.38c.38.08.66.28.85.62.17.29.26.63.26 1.05 0 .55-.14 1.05-.41 1.5-.32.53-.73.8-1.25.8-.09 0-.19-.01-.29-.03-.38-.08-.66-.28-.85-.62-.17-.29-.26-.64-.26-1.05 0-.55.14-1.05.41-1.5.32-.53.74-.8 1.25-.8.09 0 .19.01.29.03zm-.22 2.88c.2-.18.33-.44.4-.79.02-.12.04-.26.04-.39 0-.15-.03-.32-.1-.48-.08-.21-.19-.32-.31-.35-.19-.04-.38.07-.55.33-.14.2-.23.41-.28.63-.03.12-.04.26-.04.39 0 .15.03.32.1.48.08.21.19.32.31.35.13.03.28-.03.43-.17zm-2.26-2.26c-.19-.33-.48-.54-.85-.62-.1-.02-.2-.03-.29-.03-.51 0-.92.27-1.25.8-.28.45-.41.95-.41 1.5 0 .41.09.76.26 1.05.19.33.47.54.85.62.1.02.2.03.29.03.52 0 .93-.27 1.25-.8.28-.46.41-.96.41-1.5 0-.41-.09-.76-.26-1.05zm-.67 1.47c-.07.35-.21.61-.4.79-.15.14-.3.2-.43.17s-.23-.14-.31-.35a1.422 1.422 0 0 1-.06-.87c.05-.22.14-.43.28-.63.18-.26.36-.37.55-.33.13.03.23.14.31.35a1.422 1.422 0 0 1 .06.87z" fill="#d7cae8"/></svg>