<svg xmlns="http://www.w3.org/2000/svg" xmlns:xlink="http://www.w3.org/1999/xlink" viewBox="0 0 16 16"><defs data-mit-no-recolor="true"><linearGradient id="a" x1="-84.662" x2="-58.529" y1="818.209" y2="802.436" gradientTransform="translate(27.748 -165.512)scale(.11021)" gradientUnits="userSpaceOnUse"><stop offset="0" stop-color="#fdd835"/><stop offset="1" stop-color="#f57c00"/></linearGradient><linearGradient id="b" x1="-79.135" x2="-55.282" y1="780.336" y2="801.218" gradientTransform="translate(27.748 -165.512)scale(.11021)" gradientUnits="userSpaceOnUse"><stop offset="0" stop-color="#ef5350"/><stop offset=".57" stop-color="#ff6e40"/><stop offset="1" stop-color="#f57c00"/></linearGradient><linearGradient id="c" x1="-77.621" x2="-91.757" y1="799.266" y2="790.438" gradientTransform="translate(27.748 -165.512)scale(.11021)" gradientUnits="userSpaceOnUse"><stop offset="0" stop-color="#8e24aa"/><stop offset=".385" stop-color="#ab47bc"/><stop offset=".765" stop-color="#ec407a"/><stop offset=".957" stop-color="#ec407a"/></linearGradient><linearGradient id="d" x1="-77.876" x2="-91.677" y1="779.271" y2="790.669" gradientTransform="translate(27.748 -165.512)scale(.11021)" gradientUnits="userSpaceOnUse"><stop offset="0" stop-color="#ef5350"/><stop offset=".364" stop-color="#ec407a"/><stop offset="1" stop-color="#ec407a"/></linearGradient></defs><path id="folder" fill="#546e7a" d="m6.922 3.768-.644-.536A1 1 0 0 0 5.638 3H2a1 1 0 0 0-1 1v8a1 1 0 0 0 1 1h12a1 1 0 0 0 1-1V5a1 1 0 0 0-1-1H7.562a1 1 0 0 1-.64-.232"/><g id="motive"><path fill="url(#a)" d="M15.465 11.26a.34.34 0 0 0 .11-.236.345.345 0 0 0-.323-.36.36.36 0 0 0-.243.081l-6.157 3.373a.72.72 0 0 0-.345.3.74.74 0 0 0 .253 1.016l.011.006a.76.76 0 0 0 .786-.015c.015-.014.037-.021.052-.036l5.73-4.027a1 1 0 0 0 .126-.102"/><path fill="url(#b)" d="m15.48 10.767-4.688-4.6a.567.567 0 1 0-.83.772 1 1 0 0 0 .087.073l4.952 4.24a.38.38 0 0 0 .221.095.345.345 0 0 0 .36-.322.37.37 0 0 0-.103-.258"/><path fill="url(#c)" d="M10.946 10.356c-.007 0-2.895-2.278-2.953-2.315l-.133-.066a.822.822 0 0 0-.72 1.47.7.7 0 0 0 .147.066c.03.015 3.336 1.381 3.336 1.381a.315.315 0 0 0 .323-.536"/><path fill="url(#d)" d="M10.373 5.984a.6.6 0 0 0-.338.11l-2.924 1.97c-.007.007-.015.007-.015.014h-.007a.819.819 0 0 0 .198 1.433.8.8 0 0 0 .764-.103.7.7 0 0 0 .133-.117l2.542-2.293a.566.566 0 0 0-.353-1.014"/></g></svg>