<svg xmlns="http://www.w3.org/2000/svg" viewBox="0 0 32 32">
  <path d="M13.84376,7.53645l-1.28749-1.0729A2,2,0,0,0,11.27591,6H4A2,2,0,0,0,2,8V24a2,2,0,0,0,2,2H28a2,2,0,0,0,2-2V10a2,2,0,0,0-2-2H15.12412A2,2,0,0,1,13.84376,7.53645Z" style="fill: #26a69a"/>
  <path d="M23.44438,23.26533l-3.11123-3.156,1.09622-1.112,2.015,2.03466,5.12624-5.2,1.09622,1.12M25.00066,10l-7.0006,4v4.53066A9.80144,9.80144,0,0,0,25.00066,28a9.80187,9.80187,0,0,0,6.99928-9.46934V14Z" style="fill: #b2dfdb;fill-rule: evenodd"/>
</svg>
