<svg viewBox="0 0 24 24" xmlns="http://www.w3.org/2000/svg"><path d="M19 20H4a2 2 0 01-2-2V6c0-1.11.89-2 2-2h6l2 2h7c1.097 0 2 .903 2 2H4v10l2.14-8h17.07l-2.28 8.5c-.23.87-1.01 1.5-1.93 1.5z" fill="#455A64"/><path d="M20.256 8.942C15.761 6.3 10.05 9.528 10 14.74c-.048 5.088 5.337 8.375 9.822 6.136l-5.233-7.417-.033 5.447c0 .494-1.17.494-1.17 0l.01-7.519c0-.392.987-.424 1.193-.083l5.907 9.187c4.192-2.7 4.136-8.975-.24-11.548zm-.052 8.927l-1.137-1.637v-4.846c0-.37 1.137-.37 1.137 0v6.483z" fill="#CFD8DC"/></svg>