<svg xmlns="http://www.w3.org/2000/svg" xml:space="preserve" viewBox="0 0 16 16"><path fill="#f44336" d="M14.483 6H4.721a1 1 0 0 0-.949.684L2 12V5h12a1 1 0 0 0-1-1H7.562a1 1 0 0 1-.64-.232l-.644-.536A1 1 0 0 0 5.638 3H2a1 1 0 0 0-1 1v8a1 1 0 0 0 1 1h11l2.403-5.606A1 1 0 0 0 14.483 6"/><g fill="#ffccbc"><path d="M13.433 9c-1.347 0-2.434.48-2.434 1.096s1.091 1.115 2.438 1.115c1.346 0 2.556-.5 2.556-1.115 0-.617-1.194-1.096-2.54-1.096m-2.454 1.653v.837c0 .616 1.091 1.115 2.438 1.115 1.346 0 2.56-.513 2.56-1.13v-.812c0 .616-1.214 1.106-2.56 1.106s-2.438-.5-2.438-1.116m0 1.395v.836C11 13.501 12.09 14 13.437 14c1.346 0 2.565-.507 2.562-1.124l-.004-.84c0 .616-1.212 1.127-2.558 1.127-1.347 0-2.438-.499-2.438-1.115"/><path d="m11.799 5-4.2 3 2.77 1.937c.04-.28.178-.53.35-.715l.058-.058L9.121 8l2.678-1.881 2.68 1.88-.53.374c.428.033.833.11 1.2.226l.85-.6zM8.355 9.603l-.755.532 2.755 1.935v-1.06z"/></g></svg>