<svg xmlns="http://www.w3.org/2000/svg" xml:space="preserve" viewBox="0 0 32 32"><path fill="#ff9800" d="M29 12H9.4a2 2 0 0 0-1.9 1.4L4 24V10h24a2 2 0 0 0-2-2H15.1a2 2 0 0 1-1.3-.5l-1.2-1a2 2 0 0 0-1.3-.5H4a2 2 0 0 0-2 2v16a2 2 0 0 0 2 2h22l4.8-11.2A2 2 0 0 0 29 12Z"/><path fill="#ffe0b2" d="M20 10s-2 1.86-2 4c0 2.14 6 8 6 8l-.89.88a3 3 0 0 0-5.1 2A3.01 3.01 0 0 0 20.87 28a3.02 3.02 0 0 0 3.11-3.24L26 23.5l.25.31A3.02 3.02 0 0 0 28.88 28 3.01 3.01 0 0 0 32 25.12a3.01 3.01 0 0 0-4.38-2.78zm10 0-4 8 2 2s4-3.94 4-6-2-4-2-4zm-9.06 14h.1c.51.02.9.4.95.89v.2a.98.98 0 0 1-1.03.91.99.99 0 0 1-.96-1.04.98.98 0 0 1 .94-.96zm8 0h.1c.56.02.98.48.96 1.04a.98.98 0 0 1-1.04.96.98.98 0 0 1-.96-1.04.98.98 0 0 1 .94-.96z" style="-inkscape-stroke:none"/></svg>