<svg width="24" height="24" viewBox="0 0 24 24" fill="none" xmlns="http://www.w3.org/2000/svg">
<g clip-path="url(#clip0)">
<path d="M10 4H4C2.89 4 2 4.89 2 6V18C2 19.097 2.903 20 4 20H20C21.097 20 22 19.097 22 18V8C22 7.46957 21.7893 6.96086 21.4142 6.58579C21.0391 6.21071 20.5304 6 20 6H12L10 4Z" fill="#009688"/>
<path d="M14.498 19.078H10L15.842 9L21.685 19.078H17.215" fill="#41B883"/>
<path d="M21.11 19.078H24.21L19.142 10.368L14.117 19.078H17.217" fill="#328170"/>
<path d="M19.27 19.078H21.553L17.819 12.662L14.117 19.078H16.401" fill="#35495E"/>
</g>
<defs>
<clipPath id="clip0">
<rect width="24" height="24" fill="white"/>
</clipPath>
</defs>
</svg>
