<?xml version="1.0" encoding="utf-8"?>
<!-- Generator: Adobe Illustrator 24.1.3, SVG Export Plug-In . SVG Version: 6.00 Build 0)  -->
<svg version="1.1" id="Camada_1" xmlns="http://www.w3.org/2000/svg" xmlns:xlink="http://www.w3.org/1999/xlink" x="0px" y="0px"
	 viewBox="0 0 24 24" style="enable-background:new 0 0 24 24;" xml:space="preserve">
<style type="text/css">
	.st0{fill:#47848F;}
	.st1{fill-rule:evenodd;clip-rule:evenodd;fill:#95B8BC;}
</style>
<path class="st0" d="M19,20H4c-1.1,0-2-0.9-2-2V6c0-1.1,0.9-2,2-2h6l2,2h7c1.1,0,2,0.9,2,2H4v10l2.1-8h17.1l-2.3,8.5
	C20.7,19.4,19.9,20,19,20z"/>
<path class="st1" d="M15.6,13c-1.4-0.3-2.6,0-3,0.8c-0.3,0.6-0.2,1.4,0.2,2.2c0,0.1,0.1,0.1,0.2,0.1c0.1,0,0.1-0.1,0.1-0.2
	c-0.4-0.8-0.5-1.4-0.2-1.9c0.4-0.7,1.4-0.9,2.7-0.7c0.1,0,0.2,0,0.2-0.1C15.8,13.1,15.7,13,15.6,13L15.6,13z M13.6,17
	c0.6,0.6,1.3,1.2,2.2,1.7c2.1,1.2,4.3,1.5,5.4,0.8c0.1,0,0.1-0.1,0-0.2c0-0.1-0.1-0.1-0.2,0c-1,0.7-3.1,0.4-5.1-0.8
	c-0.8-0.5-1.6-1.1-2.1-1.7c-0.1-0.1-0.1-0.1-0.2,0C13.5,16.9,13.5,17,13.6,17L13.6,17z M20.9,16.8c0.9-1.1,1.3-2.2,0.8-3
	c-0.3-0.6-1-0.9-2-0.9c-0.1,0-0.1,0.1-0.2,0.1c0,0.1,0.1,0.1,0.1,0.2c0.8,0,1.5,0.3,1.7,0.7c0.4,0.7,0.1,1.7-0.8,2.7
	c-0.1,0.1,0,0.2,0,0.2C20.7,16.9,20.8,16.9,20.9,16.8L20.9,16.8z M18.4,13.1c-0.9,0.2-1.8,0.5-2.6,1c-2.2,1.2-3.6,3.1-3.4,4.4
	c0,0.1,0.1,0.1,0.2,0.1c0.1,0,0.1-0.1,0.1-0.2c-0.2-1.2,1.2-2.9,3.2-4.1c0.8-0.5,1.7-0.8,2.6-1c0.1,0,0.1-0.1,0.1-0.2
	C18.6,13.1,18.5,13,18.4,13.1L18.4,13.1z"/>
<path class="st1" d="M14.9,19.5c0.5,1.4,1.3,2.2,2.2,2.2c0.7,0,1.3-0.5,1.8-1.2c0-0.1,0-0.2-0.1-0.2c-0.1,0-0.2,0-0.2,0.1
	c-0.4,0.7-1,1.1-1.5,1.1c-0.8,0-1.5-0.8-1.9-2c0-0.1-0.1-0.1-0.2-0.1C14.9,19.3,14.9,19.4,14.9,19.5z M19.5,19.2
	c0.3-0.8,0.4-1.8,0.4-2.7c0-2.5-0.9-4.6-2.1-5.1c-0.1,0-0.2,0-0.2,0.1c0,0.1,0,0.2,0.1,0.2c1.1,0.5,1.9,2.5,1.9,4.8
	c0,1-0.1,1.9-0.4,2.7c0,0.1,0,0.2,0.1,0.2C19.3,19.3,19.4,19.3,19.5,19.2L19.5,19.2z M22.2,19c0-0.4-0.3-0.7-0.7-0.7
	s-0.7,0.3-0.7,0.7c0,0.4,0.3,0.7,0.7,0.7S22.2,19.4,22.2,19L22.2,19z M21.9,19c0,0.2-0.2,0.4-0.4,0.4c-0.2,0-0.4-0.2-0.4-0.4
	c0-0.2,0.2-0.4,0.4-0.4C21.8,18.6,21.9,18.8,21.9,19z"/>
<path class="st1" d="M12.8,19.8c0.4,0,0.7-0.3,0.7-0.7s-0.3-0.7-0.7-0.7c-0.4,0-0.7,0.3-0.7,0.7S12.4,19.8,12.8,19.8L12.8,19.8z
	 M12.8,19.5c-0.2,0-0.4-0.2-0.4-0.4c0-0.2,0.2-0.4,0.4-0.4c0.2,0,0.4,0.2,0.4,0.4C13.2,19.3,13,19.5,12.8,19.5z M17.1,12
	c0.4,0,0.7-0.3,0.7-0.7c0-0.4-0.3-0.7-0.7-0.7c-0.4,0-0.7,0.3-0.7,0.7C16.4,11.7,16.8,12,17.1,12z M17.1,11.8
	c-0.2,0-0.4-0.2-0.4-0.4c0-0.2,0.2-0.4,0.4-0.4c0.2,0,0.4,0.2,0.4,0.4C17.6,11.6,17.4,11.8,17.1,11.8z M17.3,16.9
	c-0.3,0.1-0.6-0.1-0.6-0.4c-0.1-0.3,0.1-0.6,0.4-0.6c0,0,0,0,0,0c0.3-0.1,0.6,0.1,0.6,0.4C17.7,16.6,17.5,16.9,17.3,16.9
	C17.3,16.9,17.3,16.9,17.3,16.9z"/>
</svg>
