<svg xmlns="http://www.w3.org/2000/svg" xml:space="preserve" viewBox="0 0 32 32"><path fill="#0288d1" d="M29 12H9.4a2 2 0 0 0-1.9 1.4L4 24V10h24a2 2 0 0 0-2-2H15.1a2 2 0 0 1-1.3-.5l-1.2-1a2 2 0 0 0-1.3-.5H4a2 2 0 0 0-2 2v16a2 2 0 0 0 2 2h22l4.8-11.2A2 2 0 0 0 29 12Z"/><path fill="none" stroke="#b3e5fc" stroke-width="1.94" d="M30.67 28.67c-1.36 1.3-5.86-1.06-10.07-5.26-4.21-4.21-6.56-8.7-5.28-10.08 1.36-1.3 5.87 1.05 10.09 5.26 4.2 4.22 6.56 8.71 5.26 10.08zm0-15.34c1.3 1.37-1.05 5.86-5.26 10.08-4.22 4.21-8.73 6.56-10.09 5.26-1.27-1.38 1.08-5.86 5.28-10.07 4.2-4.2 8.7-6.55 10.07-5.27z" paint-order="stroke fill markers"/></svg>