<svg width="24" height="24" viewBox="0 0 24 24" fill="none" xmlns="http://www.w3.org/2000/svg">
<path fill-rule="evenodd" clip-rule="evenodd" d="M19 20H4C3.46957 20 2.96086 19.7893 2.58579 19.4142C2.21071 19.0391 2 18.5304 2 18V6C2 4.89 2.89 4 4 4H10L12 6H19C20.097 6 21 6.903 21 8H4V18L6.14 10H23.21L20.93 18.5C20.7 19.37 19.92 20 19 20Z" fill="#E51358"/>
<path d="M17.703 8.03942C17.2703 8.13266 16.9366 8.35912 16.9118 8.5767C16.8809 8.8076 16.918 8.88752 17.1344 9.0607C17.3074 9.19391 17.4558 9.26051 17.7586 9.32712C18.7167 9.54025 19.2606 9.34932 19.2606 8.80316C19.2606 8.51009 19.0134 8.15931 18.7414 8.06606C18.5189 7.99057 17.9873 7.97725 17.703 8.03942Z" fill="#ECEFF1"/>
<path d="M19.5201 9.41591C19.1987 9.558 19.0627 9.75338 19.0936 10.0376C19.1245 10.3617 19.2976 10.6681 19.7921 11.2809C20.3051 11.9203 20.3793 12.0624 20.4349 12.502C20.4535 12.6973 20.5647 13.0748 20.676 13.3412C20.7872 13.6032 20.9418 14.0561 21.0283 14.3447C21.1457 14.7488 21.257 14.9841 21.5166 15.3704C22.1162 16.2763 22.5365 17.2664 22.5365 17.7904C22.5365 17.9991 22.623 18.079 22.7095 17.9547C22.8084 17.8215 23.204 16.7869 23.3091 16.3873C23.5749 15.3571 23.6676 13.8829 23.5192 12.9904C23.3091 11.7293 22.6292 10.6237 21.6093 9.90435C20.8614 9.37595 20.0517 9.18501 19.5201 9.41591Z" fill="#ECEFF1"/>
<path d="M17.0296 9.82002C16.9245 9.89551 16.9059 9.94879 16.9307 10.0953C16.9739 10.3173 17.1841 10.4772 17.4808 10.5083C17.6724 10.5305 17.7342 10.5172 17.8702 10.415C18.0123 10.3173 18.0309 10.2729 18.0062 10.1353C17.9258 9.79338 17.3324 9.60245 17.0296 9.82002Z" fill="#ECEFF1"/>
<path d="M17.4309 11.303C17.128 11.4539 17.1095 11.676 17.2826 12.8127C17.3196 13.0569 17.3382 13.3367 17.3135 13.4343C17.2269 13.8473 16.6706 14.2647 15.3973 14.8686C14.9585 15.0773 14.5691 15.2726 14.5444 15.2948C14.5135 15.3215 14.5073 15.5613 14.5196 15.8321C14.5505 16.3783 14.6989 16.7557 15.0945 17.2708C15.6569 18.0123 16.7015 18.745 17.7276 19.1224C18.1046 19.2601 18.1479 19.2556 18.3766 19.0825C19.2543 18.412 19.7117 17.3196 19.5139 16.3517C19.4397 15.992 19.3347 15.7389 18.9267 14.9529C18.6609 14.4334 18.63 14.0871 18.8278 13.8207C18.8958 13.7318 19.1739 13.4743 19.4459 13.2567C19.7179 13.0347 19.9589 12.8083 19.9775 12.7505C20.0578 12.5374 19.4212 11.8491 18.8587 11.5428C18.3333 11.2586 17.7214 11.1564 17.4309 11.303Z" fill="#ECEFF1"/>
<path d="M14.254 12.0668C13.9512 12.1467 13.6978 12.4353 13.6978 12.6973C13.6978 13.1991 14.5198 13.3367 15.0143 12.9193C15.3357 12.6529 15.3481 12.2577 15.0452 12.1023C14.9092 12.0357 14.4457 12.0179 14.254 12.0668Z" fill="#ECEFF1"/>
<path d="M19.5822 13.4655C18.8157 14.0782 18.8034 14.1804 19.3658 15.2061C19.8541 16.103 19.9098 16.2718 19.9036 16.9201C19.9036 17.4085 19.885 17.5195 19.7305 17.8303C19.5204 18.2699 19.2237 18.6562 18.8281 19.0115C18.655 19.1624 18.519 19.3045 18.519 19.3223C18.519 19.3622 18.6921 19.3889 19.3906 19.451C20.6639 19.5665 21.5045 19.3267 21.8815 18.745C21.9928 18.563 22.0113 18.4609 22.0051 17.8525C22.0051 17.0311 21.9248 16.7602 21.3623 15.6634C21.1583 15.2594 20.9482 14.7842 20.8987 14.6066C20.6515 13.763 20.3239 13.0569 20.1756 13.0569C20.1323 13.0569 19.8665 13.2434 19.5822 13.4655Z" fill="#ECEFF1"/>
<path d="M12.7026 13.2568C11.8558 13.4788 10.7865 14.398 10.3538 15.2683C10.1066 15.7745 9.96444 16.4938 10.0077 17.0089C10.051 17.4796 10.1684 17.9503 10.2364 17.9192C10.2611 17.9103 10.2982 17.7993 10.3168 17.675C10.3724 17.3508 10.6876 16.9601 11.1388 16.6581C11.5159 16.4006 12.5728 15.8811 13.6483 15.4193C13.945 15.2905 14.1984 15.1529 14.217 15.1085C14.39 14.6777 14.421 14.0872 14.285 13.8074C14.0439 13.3279 13.3516 13.0837 12.7026 13.2568Z" fill="#ECEFF1"/>
<path d="M13.2461 15.8233C11.9543 16.3828 11.3238 16.7868 10.9838 17.2664C10.2854 18.2566 10.9282 19.2734 12.6404 19.8907C13.3079 20.1349 13.8642 20.2192 14.779 20.2192C15.9225 20.2192 16.5962 20.0771 17.5172 19.642C17.6902 19.5576 17.8386 19.4688 17.8386 19.4511C17.8386 19.4333 17.6532 19.3534 17.4306 19.2779C16.5097 18.9671 15.5887 18.4564 15.0015 17.928C14.3154 17.3064 13.9878 16.6803 13.9816 15.9787C13.9755 15.7389 13.9569 15.5436 13.9384 15.5436C13.9198 15.5436 13.6046 15.6723 13.2461 15.8233Z" fill="#ECEFF1"/>
<path d="M17.808 19.7353C17.3197 20.0017 16.6769 20.2237 16.0402 20.348C15.6261 20.4235 15.3541 20.4457 14.7175 20.4457C13.7965 20.4457 13.234 20.3614 12.4243 20.0949L11.936 19.9351L12.1215 20.0727C12.3811 20.2726 13.2279 20.6677 13.7656 20.8454C15.8981 21.5469 18.4385 21.3471 20.3731 20.3303C20.7378 20.1393 21.2385 19.8063 21.2385 19.7575C21.2385 19.7441 20.8985 19.7397 20.4844 19.753C19.8601 19.7664 19.6129 19.753 19.106 19.6731C18.7661 19.6198 18.4199 19.5665 18.3334 19.5577C18.2221 19.5399 18.08 19.5887 17.808 19.7353Z" fill="#ECEFF1"/>
</svg>
