<svg xmlns="http://www.w3.org/2000/svg" viewBox="0 0 32 32">
  <path d="M13.84376,7.53645l-1.28749-1.0729A2,2,0,0,0,11.27591,6H4A2,2,0,0,0,2,8V24a2,2,0,0,0,2,2H28a2,2,0,0,0,2-2V10a2,2,0,0,0-2-2H15.12412A2,2,0,0,1,13.84376,7.53645Z" style="fill: #1e88e5"/>
  <g>
    <path d="M28,22,31.7236,20.1382A.5.5,0,0,0,32,19.691V12.5a.5.5,0,0,0-.5-.5H24.309a.5.5,0,0,0-.44721.2764L22,16.00005l-5.5,0a.5.5,0,0,0-.5.5V20l1.17158,1.17158,1.41421-1.41422L20,21.17159,18.58577,22.5858l2.82843,2.82843L22.82841,24l1.41422,1.41422-1.41422,1.41421L24,28h3.5a.5.5,0,0,0,.5-.5Zm0-4a2,2,0,1,1,2-2A2,2,0,0,1,28,18Z" style="fill: #bbdefb"/>
    <polygon points="16 28 16 24 14 24 14 30 20 30 20 28 16 28" style="fill: #bbdefb"/>
  </g>
</svg>
