<svg xmlns="http://www.w3.org/2000/svg" viewBox="0 0 16 16"><path id="folder" fill="#ff9800" d="m6.922 3.768-.644-.536A1 1 0 0 0 5.638 3H2a1 1 0 0 0-1 1v8a1 1 0 0 0 1 1h12a1 1 0 0 0 1-1V5a1 1 0 0 0-1-1H7.562a1 1 0 0 1-.64-.232"/><g id="motive" fill="#ffe0b2" data-mit-no-recolor="true" transform="matrix(.7 0 0 .7 5 5)"><path d="M3.1 9A11.35 11.35 0 0 0 8 10a11.35 11.35 0 0 0 4.9-1 5.001 5.001 0 0 1-9.8 0m0-2A11.35 11.35 0 0 1 8 6a11.35 11.35 0 0 1 4.9 1 5.001 5.001 0 0 0-9.8 0"/><circle cx="13.5" cy="2.5" r="1.5"/><circle cx="2.5" cy="13.5" r="1.5"/><circle cx="2.5" cy="2.5" r="1.5"/></g></svg>