<svg xmlns="http://www.w3.org/2000/svg" viewBox="0 0 16 16">
<path id="folder" fill="#ff7043" d="M14.483 6H4.721a1 1 0 0 0-.949.684L2 12V5h12a1 1 0 0 0-1-1H7.562a1 1 0 0 1-.64-.232l-.644-.536A1 1 0 0 0 5.638 3H2a1 1 0 0 0-1 1v8a1 1 0 0 0 1 1h11l2.403-5.606A1 1 0 0 0 14.483 6" />
<path id="motive" fill="#ffccbc" d="m 7,6 1,8 3.5,1 3.5,-1 1,-8 z M 11,8.9495 9.33,10 11,11.051 V 12 L 8.3825,10.307 V 9.6935 L 11,8 Z m 3.6175,1.364 L 12,12 V 11.051 L 13.6815,10 12,8.9495 V 8 l 2.6175,1.6865 z" />
</svg>
