<svg xmlns="http://www.w3.org/2000/svg" viewBox="0 0 16 16"><path id="folder" fill="#546e7a" d="m6.922 3.768-.644-.536A1 1 0 0 0 5.638 3H2a1 1 0 0 0-1 1v8a1 1 0 0 0 1 1h12a1 1 0 0 0 1-1V5a1 1 0 0 0-1-1H7.562a1 1 0 0 1-.64-.232"/><path id="motive" fill="#cfd8dc" d="M14.576 5 12.44 7.137l-.355 1.066-.81.812a1 1 0 0 0-.499-.005l-.037.011a1 1 0 0 0-.183.073l-.055.029a1.007 1.007 0 1 0 1.377 1.377q.015-.027.027-.055a1 1 0 0 0 .075-.184l.011-.037a1 1 0 0 0-.006-.498l.81-.81 1.07-.356L16 6.424h-1.424zm-3.806.006a5 5 0 1 0 4.884 3.168l-.79.79a4 4 0 1 1-2.83-2.827l.792-.791a5 5 0 0 0-2.056-.34m.138 1.996a3 3 0 1 0 3.074 2.668l-.994.109a2 2 0 1 1-1.767-1.767l.11-.995a3 3 0 0 0-.423-.015"/></svg>