<svg xmlns="http://www.w3.org/2000/svg" viewBox="0 0 16 16">
<path id="folder" fill="#ef5350" d="M14.483 6H4.721a1 1 0 0 0-.949.684L2 12V5h12a1 1 0 0 0-1-1H7.562a1 1 0 0 1-.64-.232l-.644-.536A1 1 0 0 0 5.638 3H2a1 1 0 0 0-1 1v8a1 1 0 0 0 1 1h11l2.403-5.606A1 1 0 0 0 14.483 6" />
<path id="motive" fill="#ffcdd2" d="m 10.901706,5 a 2.9796124,2.98 0 0 0 -2.6793389,2.1933594 5.6892599,5.69 0 0 0 0.4667362,4.5781246 0.74990245,0.75 0 0 0 -0.064445,0.375 l 0.060539,-0.0039 -0.060539,0.0098 a 0.85238911,0.8525 0 0 0 0.8338759,0.839844 h 0.02734 A 0.85738846,0.8575 0 0 0 10.306081,12.103516 0.88988424,0.89 0 0 0 10.052207,11.492188 0.79989594,0.8 0 0 0 9.4585345,11.246094 H 9.4214299 A 4.7993757,4.8 0 0 1 8.8433801,8.5214844 3.4145558,3.415 0 0 1 9.5386022,6.5957031 1.9847418,1.985 0 0 1 10.960293,5.9140625 h 0.02734 c 1.218842,0 1.707059,1.6686406 1.738055,2.2441406 a 0.14498114,0.145 0 0 0 0.107408,0.1328125 c 0.149481,0.0365 0.411869,0.1224063 0.607343,0.1914063 a 0.13498244,0.135 0 0 0 0.132796,-0.023437 0.14998049,0.15 0 0 0 0.05273,-0.1230469 C 13.463982,6.0434375 12.10155,5 10.901706,5 Z M 10.311939,7.9804688 A 0.80989464,0.81 0 0 0 9.724125,8.2480469 0.90288254,0.903 0 0 0 9.7436536,9.4804688 0.83489139,0.835 0 0 0 10.33928,9.7285156 h 0.03125 a 0.83989074,0.84 0 0 0 0.687411,-0.4433594 h 0.134748 a 4.4144257,4.415 0 0 1 2.562166,0.8222658 3.2995708,3.3 0 0 1 1.261555,1.601562 1.7397737,1.74 0 0 1 -0.02343,1.416016 1.6947795,1.695 0 0 1 -1.568156,0.984375 2.8996228,2.9 0 0 1 -1.160005,-0.261719 0.13498244,0.135 0 0 0 -0.152324,0.02734 6.9990895,7 0 0 1 -0.542899,0.457031 0.14698088,0.147 0 0 0 0.01953,0.246094 3.8494992,3.85 0 0 0 1.656035,0.419922 L 13.340842,15 a 2.8296319,2.83 0 0 0 2.443041,-1.474609 3.1945844,3.195 0 0 0 -0.621013,-3.3125 5.0593418,5.06 0 0 0 -3.886212,-1.8437504 c -0.04433,0 -0.0888,9.532e-4 -0.132796,0.00195 H 11.02669 A 0.80489529,0.805 0 0 0 10.337327,7.9804688 Z M 7.5583911,9.5175781 a 0.13998856,0.13999765 0 0 0 -0.066398,0.027344 C 5.6266461,10.962897 5.8294317,12.925998 6.3983857,13.833984 a 2.6797811,2.679955 0 0 0 2.1462052,1.115235 c 0.041661,0 0.082746,-2.87e-4 0.121078,-0.002 h 0.019529 a 2.999755,2.9999496 0 0 0 0.7499025,-0.09375 4.9395963,4.939917 0 0 0 3.5386016,-2.796875 0.82493259,0.82498613 0 0 0 0.484312,-0.298829 0.89992647,0.89998488 0 0 0 0.191382,-0.636718 0.85992973,0.85998555 0 0 0 -0.845593,-0.798828 h -0.02929 a 0.86192956,0.86198551 0 0 0 -0.806536,0.90625 0.92492442,0.92498446 0 0 0 0.171852,0.49414 4.4246384,4.4249256 0 0 1 -1.931389,1.898438 3.0747488,3.0749484 0 0 1 -1.9392007,0.384765 1.5648721,1.5649737 0 0 1 -1.1600053,-0.705078 1.83485,1.8349691 0 0 1 -0.089832,-1.86914 2.8997631,2.8999513 0 0 1 0.80263,-0.992188 0.14998775,0.14999748 0 0 0 0.048822,-0.15625 6.999428,6.9998824 0 0 1 -0.1562297,-0.6503905 0.14498816,0.14499757 0 0 0 -0.085926,-0.1054687 0.13998856,0.13999765 0 0 0 -0.070303,-0.00977 z" />
</svg>
