<?xml version="1.0" encoding="UTF-8"?>
<svg fill="none" version="1.1" viewBox="0 0 24 24" xmlns="http://www.w3.org/2000/svg">
  <path d="m10 4h-6c-1.11 0-2 0.89-2 2v12c0 1.097 0.903 2 2 2h16c1.097 0 2-0.903 2-2v-10c0-0.53043-0.2107-1.0391-0.5858-1.4142-0.3751-0.37508-0.8838-0.58579-1.4142-0.58579h-8l-2-2z" fill="#2196F3"/>
  <path d="m18.144 17.98v2.7918h5.5835v-5.5834h-5.5835v2.7916zm-5.9822 0v2.7918h5.5833v-5.5834h-5.5833v2.7916zm5.9822-5.9823v2.7918h5.5835v-5.5834h-5.5835v2.7916zm-5.9822 0v2.7918h5.5833v-5.5834h-5.5833v2.7916z" fill="#BBDEFB"/>
</svg>
