<svg viewBox="0 0 24 24" xmlns="http://www.w3.org/2000/svg" clip-rule="evenodd" fill-rule="evenodd" stroke-linejoin="round" stroke-miterlimit="1.414"><path d="M19 20H4c-1.111 0-2-.9-2-2V6c0-1.11.89-2 2-2h6l2 2h7c1.097 0 2 .903 2 2H4v10l2.14-8h17.07l-2.28 8.5c-.23.87-1.011 1.5-1.93 1.5z" fill-rule="nonzero" fill="#D4E157"/><path d="M20.905 19.312c1.025-1.226 1.146-2.492.352-4.843-.502-1.487-1.336-2.632-.723-3.556.653-.985 2.04-.03.884 1.286l.23.16c1.387.161 2.07-1.738 1.036-2.28-2.733-1.427-5.124 1.316-4.07 4.49.453 1.347 1.086 2.774.573 3.909-.442.974-1.296 1.547-1.868 1.567-1.196.06-.402-2.682.974-3.365.12-.06.292-.141.13-.342-1.697-.19-2.692.593-3.264 1.688-1.668 3.185 3.164 4.36 5.746 1.286z" fill="#c0ca33"/></svg>