<svg xmlns="http://www.w3.org/2000/svg" viewBox="0 0 32 32">
  <path d="M28.96692,12H9.44152a2,2,0,0,0-1.89737,1.36754L4,24V10H28a2,2,0,0,0-2-2H15.1241a2,2,0,0,1-1.28038-.46357L12.5563,6.46357A2,2,0,0,0,11.27592,6H4A2,2,0,0,0,2,8V24a2,2,0,0,0,2,2H26l4.80523-11.21213A2,2,0,0,0,28.96692,12Z" style="fill: #7e57c2"/>
  <path d="M23,16c-4.97,0-9,2.24-9,5,0,2.18,2.5,4.03,6,4.71V28l4-3-4-3v1.67c-2.48-.58-4-1.79-4-2.67,0-1.19,2.79-3,7-3,4.21,0,7,1.81,7,3,0,.88-1.52,2.09-4,2.67v2.04c3.5-.68,6-2.53,6-4.71C32,18.24,27.97,16,23,16Z" style="fill: #d1c4e9;fill-rule: evenodd"/>
</svg>
