<?xml version="1.0" encoding="UTF-8" standalone="no"?>
<!-- Created with Inkscape (http://www.inkscape.org/) -->

<svg
   width="6in"
   height="6in"
   viewBox="0 0 152.4 152.4"
   version="1.1"
   id="svg5"
   sodipodi:docname="queues-open.svg"
   inkscape:version="1.1 (ce6663b3b7, 2021-05-25)"
   xmlns:inkscape="http://www.inkscape.org/namespaces/inkscape"
   xmlns:sodipodi="http://sodipodi.sourceforge.net/DTD/sodipodi-0.dtd"
   xmlns="http://www.w3.org/2000/svg"
   xmlns:svg="http://www.w3.org/2000/svg">
  <sodipodi:namedview
     id="namedview7"
     pagecolor="#505050"
     bordercolor="#eeeeee"
     borderopacity="1"
     inkscape:pageshadow="0"
     inkscape:pageopacity="0"
     inkscape:pagecheckerboard="0"
     inkscape:document-units="mm"
     showgrid="false"
     inkscape:zoom="0.75098906"
     inkscape:cx="262.32073"
     inkscape:cy="339.55222"
     inkscape:window-width="1366"
     inkscape:window-height="730"
     inkscape:window-x="1920"
     inkscape:window-y="0"
     inkscape:window-maximized="1"
     inkscape:current-layer="layer2"
     units="in"
     width="10in"
     inkscape:snap-global="false" />
  <defs
     id="defs2">
    <marker
       style="overflow:visible"
       id="Arrow1Mend"
       refX="0"
       refY="0"
       orient="auto"
       inkscape:stockid="Arrow1Mend"
       inkscape:isstock="true">
      <path
         transform="matrix(-0.4,0,0,-0.4,-4,0)"
         style="fill:context-stroke;fill-rule:evenodd;stroke:context-stroke;stroke-width:1pt"
         d="M 0,0 5,-5 -12.5,0 5,5 Z"
         id="path7859" />
    </marker>
    <marker
       style="overflow:visible"
       id="Arrow1Lstart"
       refX="0"
       refY="0"
       orient="auto"
       inkscape:stockid="Arrow1Lstart"
       inkscape:isstock="true">
      <path
         transform="matrix(0.8,0,0,0.8,10,0)"
         style="fill:context-stroke;fill-rule:evenodd;stroke:context-stroke;stroke-width:1pt"
         d="M 0,0 5,-5 -12.5,0 5,5 Z"
         id="path7850" />
    </marker>
  </defs>
  <g
     inkscape:label="Layer 1"
     inkscape:groupmode="layer"
     id="layer1" />
  <g
     inkscape:groupmode="layer"
     id="layer2"
     inkscape:label="Icon">
    <g
       style="fill:#000000;stroke:none;stroke-opacity:1"
       id="g22"
       transform="matrix(5.7472923,0,0,5.7472923,7.5230667,6.9843154)">
      <path
         d="M 0,0 H 24 V 24 H 0 Z"
         fill="none"
         id="path10"
         style="stroke:none;stroke-opacity:1" />
    </g>
    <path
       d="M 121.71796,121.76239 H 31.077112 c -6.707429,0 -12.085448,-5.17247 -12.085448,-11.49436 V 41.301764 c 0,-6.379389 5.378019,-11.494383 12.085448,-11.494383 h 36.256351 l 12.085514,11.494383 h 42.298983 a 12.085442,11.494377 0 0 1 12.08551,11.494364 v 0 H 31.077112 V 110.26803 L 44.008599,64.290512 H 147.15766 L 133.38027,113.1416 c -1.39088,5.00007 -6.10295,8.62079 -11.66231,8.62079 z"
       id="path11607"
       style="stroke-width:5.8931;fill:#0097a7;fill-opacity:1" />
    <g
       transform="matrix(0.01351617,0,0,-0.01351617,73.244398,134.21691)"
       fill="#000000"
       stroke="none"
       id="g30"
       style="opacity:1;fill:#a1f6ff;fill-opacity:1;stroke:#a3f6ff;stroke-width:190.603;stroke-linecap:butt;stroke-linejoin:round;stroke-miterlimit:3.7;stroke-dasharray:none;stroke-opacity:1;paint-order:markers fill stroke">
      <path
         d="m 2504,4949 c -27,-4 -81,-22 -120,-38 C 2268,4861 158,3743 118,3711 27,3635 -3,3475 51,3359 c 15,-32 41,-67 60,-81 40,-29 2245,-1022 2334,-1050 73,-24 171,-20 259,11 97,34 2268,1012 2302,1037 50,37 78,105 82,199 5,106 -21,179 -81,231 -42,35 -2191,1176 -2297,1219 -67,27 -138,36 -206,24 z m 1114.7031,-820.417 c 607,-326 1104.1368,-625.7156 1104.1368,-629.7156 C 4723.8399,3494.8674 4269,3280 3663,3024 L 2560,2560 1462,3022 C 858,3277 408.49617,3499.7196 407.49617,3504.7196 406.49617,3510.7196 854,3771 1458,4096 c 603,326 1098,593 1098,593 0,0 456.7031,-234.417 1062.7031,-560.417 z"
         id="path24"
         style="fill:#a1f6ff;fill-opacity:1;stroke:#a3f6ff;stroke-width:190.603;stroke-linecap:butt;stroke-linejoin:round;stroke-miterlimit:3.7;stroke-dasharray:none;stroke-dashoffset:0;stroke-opacity:1;paint-order:markers fill stroke"
         sodipodi:nodetypes="ccccccccccccccccccccc" />
      <path
         d="m 4,2568 c 14,-143 49,-247 99,-299 27,-27 255,-134 1173,-546 626,-281 1157,-516 1179,-522 68,-18 160,-13 238,13 78,26 2241,995 2294,1028 48,29 98,139 117,257 27,158 39,152 -131,67 -82,-40 -658,-308 -1280,-595 L 2560,1449 1428,1971 C 805,2258 228,2526 146,2567 l -149,74 z"
         id="path26"
         style="fill:#a1f6ff;fill-opacity:1;stroke:#a3f6ff;stroke-width:190.603;stroke-linecap:butt;stroke-linejoin:round;stroke-miterlimit:3.7;stroke-dasharray:none;stroke-opacity:1;paint-order:markers fill stroke" />
      <path
         d="m 5,1544 c 14,-149 61,-275 118,-318 35,-25 2244,-1020 2317,-1043 63,-20 164,-19 235,2 67,19 2274,1007 2317,1037 59,41 107,169 123,326 l 7,73 -173,-86 C 4767,1443 2575,430 2560,430 2545,430 210,1509 101,1566 l -103,55 z"
         id="path28"
         style="fill:#a1f6ff;fill-opacity:1;stroke:#a3f6ff;stroke-width:190.603;stroke-linecap:butt;stroke-linejoin:round;stroke-miterlimit:3.7;stroke-dasharray:none;stroke-opacity:1;paint-order:markers fill stroke" />
    </g>
  </g>
</svg>
