<svg xmlns="http://www.w3.org/2000/svg" viewBox="0 0 32 32">
  <path d="M13.84376,7.53645l-1.28749-1.0729A2,2,0,0,0,11.27591,6H4A2,2,0,0,0,2,8V24a2,2,0,0,0,2,2H28a2,2,0,0,0,2-2V10a2,2,0,0,0-2-2H15.12412A2,2,0,0,1,13.84376,7.53645Z" style="fill: #1e88e5"/>
  <g>
    <path d="M20,12a9.99,9.99,0,0,0-7.99,16h2.71A7.993,7.993,0,0,1,20,14a7.88266,7.88266,0,0,1,1.69.18c.73-.44,1.51-.9,2.28-1.35A9.7667,9.7667,0,0,0,20,12Zm9.12,5.92c-.41.73-.86,1.52-1.32,2.33A7.75925,7.75925,0,0,1,28,22a7.96471,7.96471,0,0,1-2.72,6h2.71A9.93425,9.93425,0,0,0,30,22,9.76527,9.76527,0,0,0,29.12,17.92Z" style="fill: #bbdefb"/>
    <path d="M17.17157,19.17157c1.5621-1.56209,11.31371-5.65685,11.31371-5.65685s-4.09476,9.75161-5.65685,11.31371a4,4,0,0,1-5.65686-5.65686Z" style="fill: #bbdefb;fill-rule: evenodd"/>
  </g>
</svg>
