<?xml version="1.0" encoding="UTF-8" standalone="no"?>
<svg
   clip-rule="evenodd"
   fill-rule="evenodd"
   stroke-linejoin="round"
   stroke-miterlimit="1.414"
   viewBox="0 0 24 24"
   xml:space="preserve"
   version="1.1"
   id="svg2"
   sodipodi:docname="folder-animation.svg"
   inkscape:version="1.3 (0e150ed, 2023-07-21)"
   xmlns:inkscape="http://www.inkscape.org/namespaces/inkscape"
   xmlns:sodipodi="http://sodipodi.sourceforge.net/DTD/sodipodi-0.dtd"
   xmlns="http://www.w3.org/2000/svg"
   xmlns:svg="http://www.w3.org/2000/svg"><defs
     id="defs2" /><sodipodi:namedview
     id="namedview2"
     pagecolor="#ffffff"
     bordercolor="#999999"
     borderopacity="1"
     inkscape:showpageshadow="2"
     inkscape:pageopacity="0"
     inkscape:pagecheckerboard="0"
     inkscape:deskcolor="#d1d1d1"
     inkscape:zoom="33.458333"
     inkscape:cx="16.049813"
     inkscape:cy="9.1755915"
     inkscape:window-width="2880"
     inkscape:window-height="1567"
     inkscape:window-x="1512"
     inkscape:window-y="25"
     inkscape:window-maximized="1"
     inkscape:current-layer="svg2" /><path
     d="M10 4H4c-1.11 0-2 .89-2 2v12c0 1.097.903 2 2 2h16c1.097 0 2-.903 2-2V8a2 2 0 0 0-2-2h-8l-2-2z"
     fill="#e57373"
     fill-rule="nonzero"
     style="fill:#cddc39;fill-opacity:1"
     id="path1" /><g
     style="fill:#f0f4c3;fill-opacity:1"
     id="g3"
     transform="matrix(0.16898294,0,0,0.16898294,0.56359154,2.9143217)"><rect
       width="9.6313896"
       height="40.851601"
       rx="4.8157001"
       transform="matrix(0.873028,0.48767,-0.497212,0.867629,43.4805,67.3037)"
       fill="#c6ff00"
       id="rect1"
       x="0"
       y="0"
       style="fill:#f0f4c3;fill-opacity:1" /><rect
       width="9.6313896"
       height="40.851601"
       rx="4.8157001"
       transform="matrix(0.873028,0.48767,-0.497212,0.867629,76.9395,46.5342)"
       fill="#c6ff00"
       id="rect2"
       x="0"
       y="0"
       style="fill:#f0f4c3;fill-opacity:1" /><rect
       width="9.6313896"
       height="40.851601"
       rx="4.8157001"
       transform="matrix(0.873028,0.48767,-0.497212,0.867629,128.424,46.5352)"
       fill="#c6ff00"
       id="rect3"
       x="0"
       y="0"
       style="fill:#f0f4c3;fill-opacity:1" /><rect
       width="9.6313896"
       height="40.851601"
       rx="4.8157001"
       transform="matrix(0.873028,0.48767,-0.497212,0.867629,94.957,67.3037)"
       fill="#c6ff00"
       id="rect4"
       x="0"
       y="0"
       style="fill:#f0f4c3;fill-opacity:1" /></g></svg>
