<svg xmlns="http://www.w3.org/2000/svg" viewBox="0 0 32 32"><path fill="#1e88e5" d="M28.967 12H9.442a2 2 0 0 0-1.898 1.368L4 24V10h24a2 2 0 0 0-2-2H15.124a2 2 0 0 1-1.28-.464l-1.288-1.072A2 2 0 0 0 11.276 6H4a2 2 0 0 0-2 2v16a2 2 0 0 0 2 2h22l4.805-11.212A2 2 0 0 0 28.967 12Z"/><path fill="#bbdefb" d="M12 18H8.5a.5.5 0 0 0-.5.5v9a.5.5 0 0 0 .5.5h1a.5.5 0 0 0 .5-.5V24h2a2 2 0 0 0 2-2v-2a2 2 0 0 0-2-2Zm0 3.5a.5.5 0 0 1-.5.5H10v-2h1.5a.5.5 0 0 1 .5.5ZM28 18h-3.5a.5.5 0 0 0-.5.5v9a.5.5 0 0 0 .5.5h1a.5.5 0 0 0 .5-.5V24h2a2 2 0 0 0 2-2v-2a2 2 0 0 0-2-2Zm0 3.5a.5.5 0 0 1-.5.5H26v-2h1.5a.5.5 0 0 1 .5.5ZM20 18h-2v-3.5a.5.5 0 0 0-.5-.5h-1a.5.5 0 0 0-.5.5v9a.5.5 0 0 0 .5.5h1a.5.5 0 0 0 .5-.5V20h1.5a.5.5 0 0 1 .5.5v3a.5.5 0 0 0 .5.5h1a.5.5 0 0 0 .5-.5V20a2 2 0 0 0-2-2Z"/></svg>