<svg width="24" height="24" viewBox="0 0 24 24" fill="none" xmlns="http://www.w3.org/2000/svg">
<path d="M19 20H4C3.46957 20 2.96086 19.7893 2.58579 19.4142C2.21071 19.0391 2 18.5304 2 18V6C2 4.89 2.89 4 4 4H10L12 6H19C20.097 6 21 6.903 21 8H4V18L6.14 10H23.21L20.93 18.5C20.7 19.37 19.92 20 19 20Z" fill="#1976D2"/>
<path fill-rule="evenodd" clip-rule="evenodd" d="M11.45 8.45H16.6947V14.6946L10.45 14.6946V9.45C10.45 8.89771 10.8977 8.45 11.45 8.45ZM10.45 15.6554V20.9C10.45 21.4523 10.8977 21.9 11.45 21.9H16.6947V15.6554H10.45ZM17.6554 15.6554V21.9H22.9C23.4523 21.9 23.9 21.4523 23.9 20.9V15.6554H17.6554ZM23.9 14.6946V9.45C23.9 8.89771 23.4523 8.45 22.9 8.45H17.6554V14.6946L23.9 14.6946Z" fill="#BBDEFB"/>
</svg>
