<svg xmlns="http://www.w3.org/2000/svg" viewBox="0 0 16 16">
<path id="folder" fill="#5c6bc0" d="M14.483 6H4.721a1 1 0 0 0-.949.684L2 12V5h12a1 1 0 0 0-1-1H7.562a1 1 0 0 1-.64-.232l-.644-.536A1 1 0 0 0 5.638 3H2a1 1 0 0 0-1 1v8a1 1 0 0 0 1 1h11l2.403-5.606A1 1 0 0 0 14.483 6" />
<path id="motive" fill="#c5cae9" d="M 9 5 L 9 6 A 1 1 0 0 0 8 7 L 8 13 A 1 1 0 0 0 9 14 L 15 14 A 1 1 0 0 0 16 13 L 16 7 A 1 1 0 0 0 15 6 L 15 5 L 14 5 L 14 6 L 10 6 L 10 5 L 9 5 z M 9 8 L 15 8 L 15 13 L 9 13 L 9 8 z M 13.318359 9 L 11.548828 10.626953 L 10.689453 9.8222656 L 10 10.554688 L 11.539062 12 L 14 9.7402344 L 13.318359 9 z " />
</svg>
