<svg xmlns="http://www.w3.org/2000/svg" viewBox="0 0 32 32"><path fill="#ab47bc" d="M24.667 27.333h-20A2.667 2.667 0 0 1 2 24.667v-16A2.657 2.657 0 0 1 4.648 6h8.019l2.666 2.667h9.334a2.68 2.68 0 0 1 2.666 2.666H4.667v13.334L7.52 14h22.76l-3.04 11.333a2.67 2.67 0 0 1-2.573 2Z"/><path fill="#e1bee7" d="M23.66 30a7.805 7.805 0 0 1-3.737-.929 7.06 7.06 0 0 1-2.81-2.784 9.216 9.216 0 0 1-1.07-4.655 18.318 18.318 0 0 1 .863-5.874 12.574 12.574 0 0 1 2.349-4.267 10.128 10.128 0 0 1 3.392-2.604A9.266 9.266 0 0 1 26.607 8a5.223 5.223 0 0 1 4.101 1.455A5.641 5.641 0 0 1 32 13.347a5.375 5.375 0 0 1-.069.832q-.07.443-.153.914l-1.611 7.97h-2.308l-.029-1.006h-.11c-.464.258-.96.665-1.488.96a3.958 3.958 0 0 1-1.96.444 3.03 3.03 0 0 1-2.098-.818 2.785 2.785 0 0 1-.904-2.175 4.338 4.338 0 0 1 1.877-3.781 12.988 12.988 0 0 1 5.907-1.76 5.827 5.827 0 0 0 .167-1.22 3.938 3.938 0 0 0-.611-2.258 2.709 2.709 0 0 0-2.39-.9 4.883 4.883 0 0 0-2.42.692 7.681 7.681 0 0 0-2.266 2.051 10.923 10.923 0 0 0-1.682 3.367 15.315 15.315 0 0 0-.638 4.641 7.046 7.046 0 0 0 .721 3.366 4.98 4.98 0 0 0 1.864 2.009 4.672 4.672 0 0 0 2.39.665 4.439 4.439 0 0 0 1.668-.29 6.195 6.195 0 0 0 1.418-.818l1.279 2.272a7.257 7.257 0 0 1-2.21 1.122A9.064 9.064 0 0 1 23.66 30Zm2.018-9.056a2.84 2.84 0 0 0 1.04-.21 4.776 4.776 0 0 0 1.04-.574l.56-2.742a6.791 6.791 0 0 0-2.99.951 1.87 1.87 0 0 0-.772 1.512 1.002 1.002 0 0 0 .31.783 1.164 1.164 0 0 0 .812.28Z"/></svg>