<svg xmlns="http://www.w3.org/2000/svg" viewBox="0 0 32 32">
  <path d="M28.96692,12H9.44152a2,2,0,0,0-1.89737,1.36754L4,24V10H28a2,2,0,0,0-2-2H15.1241a2,2,0,0,1-1.28038-.46357L12.5563,6.46357A2,2,0,0,0,11.27592,6H4A2,2,0,0,0,2,8V24a2,2,0,0,0,2,2H26l4.80523-11.21213A2,2,0,0,0,28.96692,12Z" style="fill: #1e88e5"/>
  <g>
    <path d="M28,22,31.7236,20.1382A.5.5,0,0,0,32,19.691V12.5a.5.5,0,0,0-.5-.5H24.309a.5.5,0,0,0-.44721.2764L22,16.00005l-5.5,0a.5.5,0,0,0-.5.5V20l1.17158,1.17158,1.41421-1.41422L20,21.17159,18.58577,22.5858l2.82843,2.82843L22.82841,24l1.41422,1.41422-1.41422,1.41421L24,28h3.5a.5.5,0,0,0,.5-.5Zm0-4a2,2,0,1,1,2-2A2,2,0,0,1,28,18Z" style="fill: #bbdefb"/>
    <polygon points="16 28 16 24 14 24 14 30 20 30 20 28 16 28" style="fill: #bbdefb"/>
  </g>
</svg>
