<svg xmlns="http://www.w3.org/2000/svg" viewBox="0 0 32 32">
  <path d="M28.96692,12H9.44152a2,2,0,0,0-1.89737,1.36754L4,24V10H28a2,2,0,0,0-2-2H15.1241a2,2,0,0,1-1.28038-.46357L12.5563,6.46357A2,2,0,0,0,11.27592,6H4A2,2,0,0,0,2,8V24a2,2,0,0,0,2,2H26l4.80523-11.21213A2,2,0,0,0,28.96692,12Z" style="fill: #607d8b"/>
  <path d="M24.94151,12.07552c.87222.35074,1.2172,1.73149.76157,3.09521-.45174,1.35719-1.51793,2.18433-2.39536,1.84012-.86831-.34028-1.2198-1.72494-.77067-3.0926.44392-1.36111,1.52313-2.17909,2.40446-1.84273m4.87921,2.83215c.73813.602.56629,1.94744-.371,3.02324-.96074,1.07057-2.32113,1.46058-3.05667.87033-.74073-.59549-.56107-1.937.388-3.00492.94772-1.07842,2.30812-1.46843,3.03974-.88865M19.47778,13.11336c.97116.11517,1.67935,1.33886,1.62077,2.72353-.10416,1.386-.936,2.42122-1.90066,2.31-.96334-.11125-1.66763-1.32577-1.58822-2.71568s.9282-2.42514,1.86811-2.31913M31.763,20.24349c.56108.76432.09373,2.02073-1.06359,2.785-1.15861.76431-2.55547.75908-3.13347-.02618-.578-.78263-.10155-2.02465,1.04015-2.8086,1.16252-.74206,2.57109-.73814,3.15691.04973m-5.38823,6.73358a2.14039,2.14039,0,0,1-1.984,1.0169c-1.54526-.14657-2.32245-2.1529-3.68023-2.94078-1.3578-.78919-3.51491-.42142-4.3663-1.73018a2.41169,2.41169,0,0,1,.06508-2.58611c.71079-.95147,2.24824-.79181,3.40035-1.119,1.51793-.40964,3.24414-1.83227,4.61625-1.03392,1.36561.79049,1.05968,3.001,1.40987,4.53093C26.11315,24.39227,26.96974,25.83191,26.37481,26.97707Z" style="fill: #cfd8dc;fill-rule: evenodd"/>
</svg>
