<svg xmlns="http://www.w3.org/2000/svg" viewBox="0 0 32 32"><path fill="#455a64" d="M 27.967 11 L 8.442 11 C 7.581 11 6.816 11.551 6.544 12.368 L 3 23 L 3 9 L 27 9 C 27 7.896 26.105 7 25 7 L 14.124 7 C 13.656 7 13.203 6.836 12.844 6.536 L 11.556 5.464 C 11.197 5.165 10.744 5 10.276 5 L 3 5 C 1.896 5 1 5.896 1 7 L 1 23 C 1 24.105 1.896 25 3 25 L 25 25 L 29.805 13.788 C 30.371 12.469 29.403 11 27.967 11 Z" transform="matrix(1, 0, 0, 1, 3.552713678800501e-15, 0)"/><path fill="#ffca28" d="M 25.748 15.584 C 25.748 16.896 24.329 17.715 23.192 17.059 C 23.064 16.986 22.945 16.893 22.841 16.789 C 21.914 15.862 22.337 14.28 23.604 13.94 C 24.686 13.65 25.748 14.466 25.748 15.584 Z" style="transform-origin: 15.929px 16.034px;"/><path fill="#26c6da" d="M 21.18 18.757 C 20.24 18.757 19.478 19.521 19.478 20.462 C 19.478 21.399 20.24 22.164 21.18 22.164 C 22.122 22.164 22.883 21.399 22.883 20.462 C 22.883 19.521 22.122 18.757 21.18 18.757 Z" style="transform-origin: 15.929px 16.034px;"/><path fill="#ffca28" d="M 27.573 21.042 C 26.888 21.484 26.127 21.792 25.33 21.954 C 25.561 21.295 25.636 20.591 25.553 19.896 C 26.926 19.415 27.99 18.31 28.412 16.918 C 29.067 14.78 28.074 12.484 26.071 11.494 C 24.067 10.502 21.641 11.106 20.337 12.923 C 19.47 13.02 18.628 13.266 17.844 13.65 C 18.81 10.534 21.937 8.616 25.152 9.166 C 28.369 9.717 30.678 12.567 30.55 15.828 C 30.467 17.947 29.357 19.894 27.573 21.042 Z M 17.922 14.834 L 19.516 15.027 C 19.553 14.72 19.621 14.416 19.718 14.122 C 19.088 14.269 18.482 14.51 17.922 14.834 Z" clip-rule="evenodd" style="transform-origin: 15.929px 16.034px;"/><path fill="#26c6da" d="M 17.644 15.004 C 18.332 14.558 19.099 14.245 19.903 14.081 C 19.661 14.742 19.573 15.451 19.648 16.15 C 18.279 16.635 17.225 17.747 16.806 19.138 C 15.92 22.087 18.148 25.053 21.229 25.019 C 22.682 25.001 24.04 24.296 24.887 23.114 C 25.754 23.02 26.596 22.777 27.382 22.396 C 26.752 24.42 25.173 26.01 23.155 26.657 C 21.137 27.302 18.928 26.924 17.242 25.644 C 13.65 22.916 13.857 17.452 17.644 15.004 Z M 27.296 21.213 L 27.263 21.226 L 27.296 21.213 Z" clip-rule="evenodd" style="transform-origin: 15.929px 16.034px;"/></svg>