<svg viewBox="0 0 16 16" xmlns="http://www.w3.org/2000/svg">
	<path
		fill="#90a4ae" stroke="none"
		d="M 2.4296875,3 C 1.6544825,3 1.0129624,3.6332539 1.0117187,4.4003906 l -0.00195,0.6035156 h -0.00391 V 5.9960937 6 h 1 v -0.00391 -0.9921875 h 0.00391 l 0.00195,-0.6015625 C 2.0120881,4.1740107 2.1792092,3.9999999 2.4296875,4 H 3.0058594 V 3 Z m 1.5761719,0 v 1 h 1.8007812 c 0.1037469,4.5e-5 0.2027836,0.03573 0.2792969,0.097656 h 0.00195 L 6.6855469,4.5800781 C 6.8493963,4.7126903 7.1105487,4.9997891 7.59375,5 h 0.4121094 v 0.00391 h 1 v -1 h -1 V 4 H 7.6015625 v -0.00195 h 0.00195 v -0.00195 h -0.00195 v -0.00195 C 7.5836941,3.9753993 7.4523859,3.9143711 7.3144531,3.8027344 L 6.7167969,3.3203125 h -0.00195 C 6.4579824,3.1129901 6.1366543,3.0001439 5.8066406,3 Z m 6.9999996,1 v 0.00391 h -1 v 1 h 1 1 v -1 V 4 Z m 2,0 V 4.0039062 5 h 0.566407 c 0.157184,1e-7 0.274699,0.047518 0.33789,0.099609 C 13.973346,5.1517024 14,5.1929677 14,5.3027344 v 0.6992187 h 1 V 5.3027344 C 15,4.9147653 14.819763,4.5530857 14.546875,4.328125 14.273986,4.1031645 13.927924,4.0000002 13.572266,4 Z M 1.0058594,7 V 8.0019531 L 1.0019531,10 H 2.0058594 V 8.0019531 l 0.00195,-1 h -0.00195 V 7 Z M 14,7.0019531 v 2.9999999 h 1 V 7.0019531 Z M 1.0019531,11 1,11.609375 c 5e-7,0.775939 0.6673856,1.382545 1.4296875,1.382813 h 0.515625 V 13 H 3.0058594 4 V 12 H 3.0058594 v -0.0078 H 2.4296875 C 2.1663066,11.99219 2.0000002,11.828907 2,11.609375 l 0.00195,-0.548828 h 0.00391 V 11 h -1 z M 14,11 v 0.609375 c 0,0.219532 -0.167102,0.386718 -0.427734,0.386719 H 13.005859 V 12 H 13 v 1 h 0.0059 v -0.0039 h 0.566407 C 14.337318,12.996092 15,12.385314 15,11.609375 V 11 Z M 6.0058594,11.992188 V 12 H 5 v 1 H 6.0058594 8 V 12 H 7.0058594 v -0.0059 z m 3,0.002 V 12 H 9 v 1 H 10.005859 12 v -1 h -1.994141 v -0.0039 z"
	/>
</svg>
