<svg clip-rule="evenodd" stroke-linejoin="round" stroke-miterlimit="1.4142" version="1.1" viewBox="0 0 24 24" xml:space="preserve" xmlns="http://www.w3.org/2000/svg"><path d="m19 20h-15c-1.11 0-2-.9-2-2v-12c0-1.11.89-2 2-2h6l2 2h7c1.097 0 2 .903 2 2h-17v10l2.14-8h17.07l-2.28 8.5c-.23.87-1.01 1.5-1.93 1.5z" fill="#ff5252"/><path d="m14.27 17.241c-0.20506-2.0769-0.37165-3.8026-0.37021-3.8349 0.0015-0.03228-0.17348-0.05869-0.3887-0.05869h-0.39132v-1.487h3.0522v-2.8865l1.4402-0.86547c0.87709-0.5271 1.5221-0.86547 1.6495-0.86547 0.30783 0 0.66685 0.38898 0.66685 0.72251 0 0.14574-0.04401 0.32486-0.09784 0.39806-0.0538 0.073195-0.55566 0.40755-1.1153 0.74302l-1.0174 0.60994-0.02177 1.0719-0.02177 1.0719h3.0566v1.487h-0.75392l-0.76176 7.6698h-4.5527l-0.37282-3.7762z" fill="#ffcdd2" stroke-width=".76958"/></svg>
