<svg xmlns="http://www.w3.org/2000/svg" viewBox="0 0 16 16">
<path id="folder" fill="#5c6bc0" d="M14.483 6H4.721a1 1 0 0 0-.949.684L2 12V5h12a1 1 0 0 0-1-1H7.562a1 1 0 0 1-.64-.232l-.644-.536A1 1 0 0 0 5.638 3H2a1 1 0 0 0-1 1v8a1 1 0 0 0 1 1h11l2.403-5.606A1 1 0 0 0 14.483 6" />
<path id="motive" fill="#c5cae9" d="m 11.395,11.881 -1.154,-1.1295 0.0135,-0.013 A 7.85,7.85 0 0 0 11.941,7.8 h 1.3315 V 6.9 H 10.091 V 6 H 9.1815 V 6.9 H 6 v 0.9 h 5.0775 A 7.1,7.1 0 0 1 9.6365,10.207 7,7 0 0 1 8.5865,8.7 H 7.677 a 7.9,7.9 0 0 0 1.355,2.0515 l -2.3145,2.259 0.646,0.639 2.2725,-2.25 1.414,1.3995 z M 13.955,9.6 h -0.91 L 11,15 h 0.909 l 0.5085,-1.35 h 2.16 L 15.09,14.9995 H 16 Z m -1.192,3.15 0.737,-1.949 0.7365,1.9485 z" />
</svg>
