<svg xmlns="http://www.w3.org/2000/svg" xmlns:xlink="http://www.w3.org/1999/xlink" viewBox="0 0 32 32">
  <defs>
    <linearGradient id="a" x1="1900.68138" y1="2029.64296" x2="1971.19525" y2="2094.3835" gradientTransform="translate(-563.42999 -666.86795) scale(0.3031 0.33012)" gradientUnits="userSpaceOnUse">
      <stop offset="0" stop-color="#c06fbb"/>
      <stop offset="1" stop-color="#6e4d9b"/>
    </linearGradient>
    <linearGradient id="b" x1="1941.88143" y1="2094.54281" x2="1903.83491" y2="2042.59329" gradientTransform="translate(-562.80301 -659.82801) scale(0.30439 0.32873)" gradientUnits="userSpaceOnUse">
      <stop offset="0" stop-color="#6e4d9b"/>
      <stop offset="0.14" stop-color="#77327a"/>
      <stop offset="0.29" stop-color="#b31777"/>
      <stop offset="0.84" stop-color="#cd0f7e"/>
      <stop offset="1" stop-color="#ed2c89"/>
    </linearGradient>
    <linearGradient id="c" x1="1724.92702" y1="2182.48165" x2="1791.60083" y2="2275.27909" gradientTransform="translate(-565.358 -657.72402) scale(0.3299 0.30331)" xlink:href="#a"/>
    <linearGradient id="d" x1="1793.75915" y1="2101.18789" x2="1875.77928" y2="2168.46942" gradientTransform="translate(-559.595 -661.08113) scale(0.31601 0.31665)" xlink:href="#a"/>
    <linearGradient id="e" x1="1817.88262" y1="2130.41144" x2="1894.35101" y2="2197.794" gradientTransform="translate(-569.16699 -663.43603) scale(0.31642 0.31622)" xlink:href="#a"/>
    <linearGradient id="f" x1="1962.51408" y1="2123.22333" x2="1924.3732" y2="2071.04657" gradientTransform="translate(-567.814 -667.34515) scale(0.30448 0.32864)" xlink:href="#b"/>
    <linearGradient id="g" x1="1903.40605" y1="2025.69209" x2="1973.98678" y2="2103.83882" gradientTransform="translate(-563.40399 -666.84393) scale(0.30312 0.33012)" xlink:href="#a"/>
    <linearGradient id="h" x1="2232.13415" y1="1794.83244" x2="2273.56684" y2="1753.86159" gradientTransform="matrix(0.31084, 0.06202, -0.06177, 0.30959, -567.72414, -667.8611)" gradientUnits="userSpaceOnUse">
      <stop offset="0" stop-color="#6e4d9b"/>
      <stop offset="0.14" stop-color="#77327a"/>
      <stop offset="0.53" stop-color="#b31777"/>
      <stop offset="0.79" stop-color="#cd0f7e"/>
      <stop offset="1" stop-color="#ed2c89"/>
    </linearGradient>
  </defs>
  <path d="M13.84376,7.53645l-1.28749-1.0729A2,2,0,0,0,11.27591,6H4A2,2,0,0,0,2,8V24a2,2,0,0,0,2,2H28a2,2,0,0,0,2-2V10a2,2,0,0,0-2-2H15.12412A2,2,0,0,1,13.84376,7.53645Z" style="fill: #f06292"/>
  <g>
    <path d="M25.78675,15.333l-1.67086,1.1438-1.72074-2.64592,1.67043-1.14425Z" style="fill-rule: evenodd;fill: url(#a)"/>
    <path d="M27.14543,23.28276l2.85444,4.389L26.59966,30l-2.85445-4.389-.498-.76474L26.647,22.51758Z" style="fill-rule: evenodd;fill: url(#b)"/>
    <path d="M22.86354,26.21476l.62878.966-2.58824,1.77175-1.12676-1.73155.56555-.387L22.366,25.44872Z" style="fill-rule: evenodd;fill: url(#c)"/>
    <path d="M28.56052,21.20783l.726-.49688,1.12638,1.732-1.67086,1.1438-.62792-.9664.94489-.64692Zm-.44728,1.41255-.49717-.76563.94489-.64692.498.76563Z" style="fill-rule: evenodd;fill: url(#d)"/>
    <path d="M16.84447,21.45682l-.56555.387-1.72076-2.64637,2.58779-1.7722,1.20639,1.85515-2.02224,1.3843L18.35276,19.28l.51481.79122Z" style="fill-rule: evenodd;fill: url(#e)"/>
    <path d="M22.63515,16.34751l.5148.79122-3.40068,2.3282-.51438-.79122L16.40711,14.3282,19.80733,12Z" style="fill-rule: evenodd;fill: url(#f)"/>
    <path d="M25.06216,15.82979l-.94489.64692-.51524-.79166-1.20595-1.85472,1.67044-1.14425,1.72161,2.64637Z" style="fill-rule: evenodd;fill: url(#g)"/>
    <path d="M20.84018,27.60042l-.49761-.76586,2.02307-1.38524.49761.76586Z" style="fill: #714896;fill-rule: evenodd"/>
    <path d="M28.11265,22.62025l-.49761-.76446.94492-.64728.49761.76586Z" style="fill: #6f4795;fill-rule: evenodd"/>
    <path d="M16.84434,21.45682l-.51529-.791,2.02307-1.38524.51529.791Z" style="fill: #88519f;fill-rule: evenodd"/>
    <path d="M24.1168,16.47665l-.51393-.791.94492-.64728.51393.791Z" style="fill: #85509e;fill-rule: evenodd"/>
    <path d="M27.14462,23.28288l-3.399,2.32826-.49761-.76585L26.647,22.517Z" style="fill: #8d166a;fill-rule: evenodd"/>
    <path d="M22.63484,16.34691l.5153.79237-3.40035,2.32826-.51528-.79236Z" style="fill: #a70d6f;fill-rule: evenodd"/>
    <path d="M15.88038,15.715l.64173.98627-.96259.65844-.64173-.98627Z" style="fill: #9e61ad;fill-rule: evenodd"/>
    <path d="M19.346,27.54462l.64172.98766-.96122.65844-.64174-.98766Z" style="fill: #8053a3;fill-rule: evenodd"/>
    <path d="M16.81546,28.539,14,24.17454,29.04776,13.84745,32,18.14223Z" style="fill-rule: evenodd;fill: url(#h)"/>
  </g>
</svg>
