<svg clip-rule="evenodd" fill-rule="evenodd" stroke-linejoin="round" stroke-miterlimit="1.414" viewBox="0 0 24 24" version="1.1" id="svg2" xmlns="http://www.w3.org/2000/svg"><path d="M10 4H4c-1.11 0-2 .89-2 2v12c0 1.097.903 2 2 2h16c1.097 0 2-.903 2-2V8a2 2 0 0 0-2-2h-8l-2-2z" fill="#26C6DA" fill-rule="nonzero"/><path fill="#b3e5fc" d="m 23.334499,17.666859 c 0,0.246419 -0.136179,0.460415 -0.34369,0.570655 l -5.122919,2.87921 c -0.103756,0.07782 -0.23345,0.116725 -0.369629,0.116725 -0.136179,0 -0.265873,-0.03891 -0.369628,-0.116725 l -5.12292,-2.87921 a 0.64263461,0.64263461 0 0 1 -0.34369,-0.570655 v -5.836237 c 0,-0.246419 0.136179,-0.460414 0.34369,-0.570654 l 5.12292,-2.879211 c 0.103755,-0.077817 0.233449,-0.1167247 0.369628,-0.1167247 0.136179,0 0.265873,0.038908 0.369629,0.1167247 l 5.122919,2.879211 c 0.207511,0.11024 0.34369,0.324235 0.34369,0.570654 v 5.836237 m -5.836238,-8.0086139 -3.864886,2.1723769 3.864886,2.172377 3.864887,-2.172377 -3.864887,-2.1723769 m -4.539296,7.6260169 3.890825,2.191831 v -4.351239 l -3.890825,-2.185347 v 4.344755 m 9.078592,0 v -4.344755 l -3.890825,2.185347 v 4.351239 z"/></svg>
