<svg width="24" height="24" viewBox="0 0 24 24" fill="none" xmlns="http://www.w3.org/2000/svg">
<g clip-path="url(#clip0_202_2)">
<path d="M10 4H4C2.89 4 2 4.89 2 6V18C2 18.5304 2.21071 19.0391 2.58579 19.4142C2.96086 19.7893 3.46957 20 4 20H20C20.5304 20 21.0391 19.7893 21.4142 19.4142C21.7893 19.0391 22 18.5304 22 18V8C22 6.89 21.1 6 20 6H12L10 4Z" fill="#FF9800"/>
<path d="M18 10.24C16.7068 10.2414 15.4518 10.6779 14.4368 11.4792C13.4218 12.2805 12.7059 13.4 12.4043 14.6575C12.8719 14.0396 13.6516 13.5128 14.6465 13.1425C15.6414 12.7722 16.8075 12.5747 18 12.5746C19.1951 12.5754 20.3633 12.7744 21.3588 13.1468C22.3543 13.5192 23.1331 14.0485 23.5979 14.6686C23.2984 13.4086 22.5831 12.2864 21.5674 11.4829C20.5518 10.6794 19.2951 10.2416 18 10.24ZM12.4021 17.3338C12.7017 18.5938 13.417 19.716 14.4326 20.5196C15.4482 21.3231 16.705 21.7609 18 21.7625C19.2932 21.761 20.5482 21.3245 21.5633 20.5233C22.5783 19.722 23.2942 18.6025 23.5957 17.345C23.1281 17.9628 22.3484 18.4897 21.3535 18.86C20.3586 19.2303 19.1925 19.4277 18 19.4278C16.8049 19.4271 15.6367 19.2281 14.6412 18.8557C13.6457 18.4833 12.8669 17.954 12.4021 17.3338Z" fill="#FFE0B2"/>
<path d="M13.28 23.4361C13.9465 23.4361 14.4868 22.8958 14.4868 22.2293C14.4868 21.5628 13.9465 21.0226 13.28 21.0226C12.6135 21.0226 12.0732 21.5628 12.0732 22.2293C12.0732 22.8958 12.6135 23.4361 13.28 23.4361Z" fill="#ABABAB"/>
<path d="M12.4693 11.4782C12.9588 11.4782 13.3556 11.0814 13.3556 10.592C13.3556 10.1025 12.9588 9.70575 12.4693 9.70575C11.9799 9.70575 11.5831 10.1025 11.5831 10.592C11.5831 11.0814 11.9799 11.4782 12.4693 11.4782Z" fill="#ABABAB"/>
<path d="M22.896 10.9127C23.5208 10.9127 24.0274 10.4062 24.0274 9.78132C24.0274 9.15649 23.5208 8.64996 22.896 8.64996C22.2712 8.64996 21.7646 9.15649 21.7646 9.78132C21.7646 10.4062 22.2712 10.9127 22.896 10.9127Z" fill="#ABABAB"/>
</g>
<defs>
<clipPath id="clip0_202_2">
<rect width="24" height="24" fill="white"/>
</clipPath>
</defs>
</svg>
