<?xml version="1.0" encoding="utf-8"?>
<!-- Generator: Adobe Illustrator 22.0.0, SVG Export Plug-In . SVG Version: 6.00 Build 0)  -->
<svg version="1.1" id="Layer_1" xmlns="http://www.w3.org/2000/svg" xmlns:xlink="http://www.w3.org/1999/xlink" x="0px" y="0px"
	 viewBox="0 0 24 24" style="enable-background:new 0 0 24 24;" xml:space="preserve">
<style type="text/css">
	.st0{fill:#112B49;}
	.st1{fill:#ADD0F7;}
</style>
<path class="st0" d="M10,4H4C2.9,4,2,4.9,2,6v12c0,1.1,0.9,2,2,2h16c1.1,0,2-0.9,2-2V8c0-1.1-0.9-2-2-2h-8L10,4z"/>
<g transform="matrix(.66949 0 0 .66949 5.6001 2.6725)">
	<path class="st1" d="M16.9,10.9c-4.9,0-8.9,4-8.9,8.9c0,4.9,4,8.9,8.9,8.9c4.9,0,8.9-4,8.9-8.9c0-0.8-0.1-1.6-0.3-2.4h0
		c0,0,0-0.1,0-0.1c0,0,0,0,0,0c-0.1-0.2-0.2-0.3-0.4-0.3c-0.2,0-0.4,0.2-0.4,0.4c0,0,0,0,0,0c0,0.1,0,0.1,0,0.1l0,0
		c0.2,0.7,0.3,1.4,0.3,2.2c0,2.1-0.8,4.2-2.3,5.7c-1.5,1.5-3.5,2.3-5.7,2.3c-2.1,0-4.2-0.8-5.7-2.3C9.7,24,8.9,22,8.9,19.9
		c0-2.1,0.8-4.2,2.4-5.7c1.5-1.5,3.5-2.3,5.7-2.3c1.9,0,3.7,0.7,5.2,1.9c0,0.1-0.1,0.3-0.1,0.4c0,0.6,0.5,1.1,1.1,1.1
		c0.6,0,1.1-0.5,1.1-1.1c0-0.6-0.5-1.1-1.1-1.1c-0.1,0-0.3,0-0.4,0.1C21.1,11.8,19.1,10.9,16.9,10.9L16.9,10.9z M15.8,15.1l-3.3,8.5
		h2.1l0.5-1.4h3.1l-0.6-1.6h-2l1.3-3.7l2.4,6.7h2.1L18,15.1L15.8,15.1z"/>
</g>
</svg>
