<svg xmlns="http://www.w3.org/2000/svg" width="23" height="18" viewBox="0 0 23 18">
  <g id="Page-1" fill="none" fill-rule="evenodd">
    <g id="folder-vue">
      <path id="path3338" fill="#009688" fill-rule="nonzero" d="M8,0 L2,0 C0.89,0 0,0.89 0,2 L0,14 C0,15.097 0.903,16 2,16 L18,16 C19.097,16 20,15.097 20,14 L20,4 C20,2.89 19.1,2 18,2 L10,2 L8,0 Z"/>
      <g id="vue-logo" transform="translate(7 5)">
        <polygon id="Path-2" fill="#42B883" points=".006 .007 5.819 .007 7.566 3.021 9.314 .008 15.128 .008 7.565 12.998"/>
        <polygon id="Path-2" fill="#35495E" points="3.035 .003 5.819 .007 7.566 3.021 9.314 .008 12.093 .008 7.561 7.807"/>
      </g>
    </g>
  </g>
</svg>
