<svg xmlns="http://www.w3.org/2000/svg" viewBox="0 0 16 16">
<path fill="#546e7a" d="m6.922 3.768-.644-.536A1 1 0 0 0 5.638 3H2a1 1 0 0 0-1 1v8a1 1 0 0 0 1 1h12a1 1 0 0 0 1-1V5a1 1 0 0 0-1-1H7.562a1 1 0 0 1-.64-.232" id="folder"/>
<g id="motive"><path fill="#eceff1" d="M11.477 5a4.5 4.5 0 0 0-4.2775 3.1835 0.25 0.25 0 0 0 0.243 0.3165h1.615a0.25 0.25 0 0 0 0.221-0.14 2.5 2.5 0 1 1-0.0005 2.2785 0.25 0.25 0 0 0-0.2195-0.1385h-1.616a0.25 0.25 0 0 0-0.243 0.3165 4.4985 4.4985 0 0 0 8.7985-1.446A4.5515 4.5515 0 0 0 11.477 5"/><circle cx="11.5" cy="9.5" r="1" fill="#eceff1"/></g>
</svg>
