<?xml version="1.0" encoding="UTF-8" standalone="no"?><svg viewBox="0 0 32 32" version="1.1" id="svg1" xmlns="http://www.w3.org/2000/svg" xmlns:svg="http://www.w3.org/2000/svg"><defs id="defs1" /><path fill="#ff6e40" d="M28.967 12H9.442a2 2 0 0 0-1.898 1.368L4 24V10h24a2 2 0 0 0-2-2H15.124a2 2 0 0 1-1.28-.464l-1.288-1.072A2 2 0 0 0 11.276 6H4a2 2 0 0 0-2 2v16a2 2 0 0 0 2 2h22l4.805-11.212A2 2 0 0 0 28.967 12" id="path1" /><path id="path1-1" d="m 22.984049,10 c -4.997262,0 -9.042894,4.045408 -8.983401,9.042672 0,4.997264 4.045408,9.042602 9.042672,8.98311 1.353937,0 2.707988,-0.29133 3.946653,-0.931461 l -6.207319,-6.20732 c -0.118981,-0.118983 -0.178391,-0.238157 -0.178391,-0.416631 0,-0.178474 0.05941,-0.297357 0.178391,-0.416339 l 7.97204,-7.971752 C 27.14843,10.713981 25.125735,10 22.984049,10 Z m 6.662886,2.915247 -7.614973,7.555123 6.008885,6.008885 c 0.475927,-0.297456 0.951632,-0.713972 1.308577,-1.070919 3.391,-3.391002 3.569533,-8.923613 0.297511,-12.493089 z m -0.449752,4.544289 c 0.297947,-0.0094 0.591028,0.162928 0.687699,0.452947 0.594913,1.189824 0.416467,2.617593 -0.4759,3.747926 -0.237965,0.297456 -0.654345,0.356795 -0.951798,0.11883 -0.237966,-0.237965 -0.297524,-0.654343 -0.05956,-0.951799 0.475928,-0.654404 0.594894,-1.546773 0.237947,-2.260668 0,-0.05949 -0.05956,-0.118898 -0.05956,-0.17839 -0.118981,-0.356946 0.05969,-0.773546 0.416629,-0.892528 0.06693,-0.02231 0.135782,-0.03414 0.204539,-0.03632 z" style="fill:#ffccbc;fill-opacity:1;stroke-width:0.464859" /></svg>