<svg xmlns="http://www.w3.org/2000/svg" viewBox="0 0 32 32">
  <path d="M13.84376,7.53645l-1.28749-1.0729A2,2,0,0,0,11.27591,6H4A2,2,0,0,0,2,8V24a2,2,0,0,0,2,2H28a2,2,0,0,0,2-2V10a2,2,0,0,0-2-2H15.12412A2,2,0,0,1,13.84376,7.53645Z" style="fill: #009688"/>
  <path d="M22.99854,10A8.99412,8.99412,0,0,0,14,18.9897h0V19a8.99411,8.99411,0,0,0,8.98821,9H23a8.99411,8.99411,0,0,0,9-8.9882V19A9.0167,9.0167,0,0,0,22.99854,10ZM18.77675,20.93131a1.413,1.413,0,0,0,1.2424.55643,1.92124,1.92124,0,0,0,.75515-.13249,6.37905,6.37905,0,0,0,.817-.42541l.9156,1.3101a3.90379,3.90379,0,0,1-2.58488.9156,4.04987,4.04987,0,0,1-2.02847-.49019,3.29447,3.29447,0,0,1-1.31011-1.43964,5.04185,5.04185,0,0,1-.45633-2.19332,5.16035,5.16035,0,0,1,.45633-2.19333A3.46273,3.46273,0,0,1,17.895,15.33612a3.6143,3.6143,0,0,1,1.99608-.52552,3.73989,3.73989,0,0,1,1.40726.22964,4.22168,4.22168,0,0,1,1.21.72129l-.9156,1.24239a3.58866,3.58866,0,0,0-.75368-.42688,2.105,2.105,0,0,0-.78459-.131c-1.11285,0-1.66928.8523-1.66928,2.58488a3.23851,3.23851,0,0,0,.393,1.89892Zm9,2.02992a4.71394,4.71394,0,0,1-1.50441,2.32287,4.90786,4.90786,0,0,1-2.74976.94946l-.22817-1.5368a3.73948,3.73948,0,0,0,1.66928-.52552,4.07552,4.07552,0,0,0,.39157-.39156l-2.7159-8.70706H24.896l1.57213,6.51374,1.66929-6.51374h2.19333Z" style="fill: #b2dfdb"/>
</svg>
