<svg xmlns="http://www.w3.org/2000/svg" viewBox="0 0 16 16"><path id="folder" fill="#42a5f5" d="m6.922 3.768-.644-.536A1 1 0 0 0 5.638 3H2a1 1 0 0 0-1 1v8a1 1 0 0 0 1 1h12a1 1 0 0 0 1-1V5a1 1 0 0 0-1-1H7.562a1 1 0 0 1-.64-.232"/><g id="motive"><path fill="#0277bd" d="M10.537 5A1.287 1.287 0 0 0 9.25 6.287v.756h1.93c.176 0 .32.257.32.432H8.287A1.287 1.287 0 0 0 7 8.762v1.702a1.285 1.285 0 0 0 1.286 1.286h.532v-1.206a1.283 1.283 0 0 1 1.278-1.287h2.367a1.283 1.283 0 0 0 1.287-1.278V6.287A1.287 1.287 0 0 0 12.463 5Zm-.324.725c.18 0 .324.054.324.32 0 .265-.144.4-.324.4-.175 0-.32-.135-.32-.4s.145-.32.32-.32"/><path fill="#fdd835" d="M14.182 7.25v1.206a1.283 1.283 0 0 1-1.278 1.287h-2.367a1.283 1.283 0 0 0-1.287 1.278v1.691A1.287 1.287 0 0 0 10.536 14h1.927a1.287 1.287 0 0 0 1.287-1.287v-.756h-1.931c-.176 0-.32-.256-.32-.432h3.214A1.287 1.287 0 0 0 16 10.238V8.537a1.287 1.287 0 0 0-1.287-1.287ZM9.844 9.281l-.002.002.017-.001zm2.943 3.274c.175 0 .32.135.32.4a.32.32 0 0 1-.32.32c-.18 0-.324-.054-.324-.32 0-.265.144-.4.324-.4"/></g></svg>