<?xml version="1.0" encoding="UTF-8"?>
<svg clip-rule="evenodd" stroke-linejoin="round" stroke-miterlimit="1.414" version="1.1" viewBox="0 0 24 24" xml:space="preserve" xmlns="http://www.w3.org/2000/svg"><path d="M19 20H4a2 2 0 0 1-2-2V6c0-1.11.89-2 2-2h6l2 2h7c1.097 0 2 .903 2 2H4v10l2.14-8h17.07l-2.28 8.5c-.23.87-1.01 1.5-1.93 1.5z" fill="#ff5252"/><g transform="translate(-11.426 -3.725)" clip-rule="evenodd" fill="#ffcdd2" fill-rule="evenodd" stroke-linejoin="round" stroke-miterlimit="1.414"><path d="m28.425 12.267c0.32443 0 0.63565 0.12889 0.8651 0.35834 0.2293 0.22945 0.3582 0.54067 0.3582 0.8651 0 0.45259-0.24457 0.85013-0.61157 1.0581v0.77687h0.61157c1.1357 0 2.2246 0.45112 3.0276 1.254 0.803 0.803 1.2541 1.8921 1.2541 3.0276h0.61172c0.16222 0 0.31782 0.06445 0.43248 0.17924 0.11465 0.11465 0.1791 0.27026 0.1791 0.43248v1.835c0 0.16222-0.06445 0.31782-0.1791 0.43248-0.11465 0.1148-0.27026 0.17924-0.43248 0.17924h-0.61172v0.61157c0 0.32443-0.12889 0.63565-0.35834 0.8651-0.22945 0.22945-0.54052 0.35834-0.86495 0.35834h-8.5635c-0.32443 0-0.6355-0.12889-0.86495-0.35834-0.22945-0.22945-0.35834-0.54067-0.35834-0.8651v-0.61157h-0.61172c-0.16222 0-0.31782-0.06444-0.43248-0.17924-0.11465-0.11465-0.1791-0.27026-0.1791-0.43248v-1.835c0-0.16222 0.06445-0.31782 0.1791-0.43248 0.11465-0.1148 0.27026-0.17924 0.43248-0.17924h0.61172c0-1.1355 0.45112-2.2246 1.2541-3.0276 0.803-0.80286 1.892-1.254 3.0276-1.254h0.61157v-0.77687c-0.367-0.20802-0.61157-0.60556-0.61157-1.0581 0-0.32443 0.12889-0.63565 0.3582-0.8651 0.22945-0.22945 0.54067-0.35834 0.8651-0.35834zm-2.7525 6.7285c-0.40561 0-0.79449 0.16104-1.0813 0.44789-0.2867 0.2867-0.44789 0.67573-0.44789 1.0812 0 0.40561 0.16119 0.79464 0.44789 1.0813 0.28685 0.28685 0.67573 0.44789 1.0813 0.44789 0.40561 0 0.79449-0.16104 1.0813-0.44789 0.2867-0.2867 0.44789-0.67573 0.44789-1.0813 0-0.40546-0.16119-0.79449-0.44789-1.0812-0.28685-0.28685-0.67573-0.44789-1.0813-0.44789zm5.505 0c-0.40561 0-0.79449 0.16104-1.0813 0.44789-0.2867 0.2867-0.44789 0.67573-0.44789 1.0812 0 0.40561 0.16119 0.79464 0.44789 1.0813 0.28685 0.28685 0.67573 0.44789 1.0813 0.44789 0.40561 0 0.79449-0.16104 1.0813-0.44789 0.2867-0.2867 0.44789-0.67573 0.44789-1.0813 0-0.40546-0.16119-0.79449-0.44789-1.0812-0.28685-0.28685-0.67573-0.44789-1.0813-0.44789z" fill="#ffcdd2" stroke-width="1.468"/></g></svg>
