<svg xmlns="http://www.w3.org/2000/svg" viewBox="0 0 32 32">
  <path d="M28.96692,12H9.44152a2,2,0,0,0-1.89737,1.36754L4,24V10H28a2,2,0,0,0-2-2H15.1241a2,2,0,0,1-1.28038-.46357L12.5563,6.46357A2,2,0,0,0,11.27592,6H4A2,2,0,0,0,2,8V24a2,2,0,0,0,2,2H26l4.80523-11.21213A2,2,0,0,0,28.96692,12Z" style="fill: #009688"/>
  <g>
    <path d="M14,29.98876,21.2,15.609,23,19.11657v3.688l-3.57722,7.18423ZM32,30,24.8,15.62031,23,19.12785v3.688L26.56582,30Z" style="fill: #41b883"/>
    <path d="M14,12l4.5,9,2.7-5.391L19.4,12Zm18,0-4.5,9-2.7-5.391L26.6,12Z" style="fill: #35495e"/>
  </g>
</svg>
