<?xml version="1.0" encoding="UTF-8" standalone="no"?>
<svg
   xmlns:dc="http://purl.org/dc/elements/1.1/"
   xmlns:cc="http://creativecommons.org/ns#"
   xmlns:rdf="http://www.w3.org/1999/02/22-rdf-syntax-ns#"
   xmlns:svg="http://www.w3.org/2000/svg"
   xmlns="http://www.w3.org/2000/svg"
   xmlns:sodipodi="http://sodipodi.sourceforge.net/DTD/sodipodi-0.dtd"
   xmlns:inkscape="http://www.inkscape.org/namespaces/inkscape"
   version="1.1"
   width="24"
   height="24"
   viewBox="0 0 24 24"
   id="svg4"
   sodipodi:docname="folder-netlify.svg"
   inkscape:version="0.92.4 (f8dce91, 2019-08-02)">
  <metadata
     id="metadata10">
    <rdf:RDF>
      <cc:Work
         rdf:about="">
        <dc:format>image/svg+xml</dc:format>
        <dc:type
           rdf:resource="http://purl.org/dc/dcmitype/StillImage" />
        <dc:title />
      </cc:Work>
    </rdf:RDF>
  </metadata>
  <defs
     id="defs8" />
  <sodipodi:namedview
     pagecolor="#ffffff"
     bordercolor="#666666"
     borderopacity="1"
     objecttolerance="10"
     gridtolerance="10"
     guidetolerance="10"
     inkscape:pageopacity="0"
     inkscape:pageshadow="2"
     inkscape:window-width="1920"
     inkscape:window-height="1017"
     id="namedview6"
     showgrid="false"
     inkscape:zoom="13.906433"
     inkscape:cx="16.541671"
     inkscape:cy="7.1109721"
     inkscape:window-x="0"
     inkscape:window-y="30"
     inkscape:window-maximized="1"
     inkscape:current-layer="svg4" />
  <path
     d="M10,4H4C2.89,4 2,4.89 2,6V18A2,2 0 0,0 4,20H20A2,2 0 0,0 22,18V8C22,6.89 21.1,6 20,6H12L10,4Z"
     id="path2"
     style="fill:#00bfa5;fill-opacity:1;opacity:1" />
  <path
     d="m 19.978648,13.243443 -0.005,-0.0021 c -0.0028,-0.0011 -0.0057,-0.0021 -0.0082,-0.0046 a 0.03917076,0.03917076 0 0 1 -0.01,-0.03312 l 0.275263,-1.682908 1.290848,1.2912 -1.342494,0.571161 a 0.02955576,0.02955576 0 0 1 -0.01175,0.0021 h -0.0053 c -0.0018,-0.0011 -0.0036,-0.0025 -0.0071,-0.0061 a 0.61107792,0.61107792 0 0 0 -0.17627,-0.135669 z m 1.872369,-0.102554 1.380223,1.380223 c 0.286655,0.287015 0.430178,0.430178 0.482528,0.596104 0.0078,0.02457 0.01425,0.04914 0.01923,0.07442 L 20.434467,13.79468 a 0.259237,0.259237 0 0 0 -0.0053,-0.0021 c -0.01318,-0.0053 -0.02849,-0.01139 -0.02849,-0.02493 0,-0.01353 0.01567,-0.01994 0.02885,-0.02528 l 0.0043,-0.0018 z m 1.825688,2.493729 c -0.07122,0.133894 -0.210097,0.272769 -0.445113,0.508137 l -1.556157,1.555766 -2.012648,-0.419114 -0.01069,-0.0021 c -0.0178,-0.0028 -0.03667,-0.0061 -0.03667,-0.02208 a 0.60748105,0.60748105 0 0 0 -0.233246,-0.424861 c -0.0082,-0.0082 -0.0061,-0.02101 -0.0036,-0.03276 0,-0.0018 0,-0.0036 7.04e-4,-0.005 l 0.378528,-2.323894 0.0014,-0.0078 c 0.0021,-0.0178 0.0053,-0.03846 0.02137,-0.03846 a 0.61604317,0.61604317 0 0 0 0.413054,-0.236803 c 0.0032,-0.0036 0.0053,-0.0075 0.0096,-0.0096 0.01139,-0.0053 0.02493,0 0.03667,0.005 l 3.436307,1.453568 z m -2.35912,2.421793 -2.558904,2.558903 0.437998,-2.692066 7.04e-4,-0.0036 c 3.55e-4,-0.0036 0.0011,-0.0071 0.0021,-0.01032 0.0036,-0.0085 0.01282,-0.01211 0.02172,-0.01567 l 0.0043,-0.0018 a 0.65877562,0.65877562 0 0 0 0.247489,-0.184101 c 0.0085,-0.01 0.01887,-0.01958 0.03205,-0.02137 a 0.03204855,0.03204855 0 0 1 0.01032,0 l 1.80184,0.370341 z m -3.100507,3.100506 -0.288439,0.288439 -3.188825,-4.608693 a 0.15098277,0.15098277 0 0 0 -0.0036,-0.005 c -0.005,-0.0068 -0.01032,-0.01353 -0.0093,-0.02137 3.56e-4,-0.0057 0.0039,-0.01068 0.0078,-0.01495 l 0.0036,-0.0046 c 0.0096,-0.01424 0.01781,-0.02849 0.02671,-0.0438 l 0.0071,-0.01246 0.0011,-0.0011 c 0.005,-0.0085 0.0096,-0.01674 0.01816,-0.02137 0.0075,-0.0036 0.01781,-0.0021 0.026,-3.56e-4 l 3.532847,0.728542 a 0.05839841,0.05839841 0 0 1 0.02707,0.01175 c 0.0046,0.0046 0.0057,0.0096 0.0068,0.01531 a 0.62566091,0.62566091 0 0 0 0.366068,0.418411 c 0.01,0.005 0.0057,0.01602 0.0011,0.02777 a 0.08474943,0.08474943 0 0 0 -0.0053,0.01602 c -0.04451,0.270633 -0.42623,2.598782 -0.528819,3.227297 z m -0.602516,0.602164 c -0.212591,0.210453 -0.337934,0.321913 -0.479675,0.36678 a 0.71218141,0.71218141 0 0 1 -0.429436,0 c -0.165941,-0.0527 -0.309448,-0.195854 -0.596103,-0.48288 l -3.202354,-3.202354 0.836469,-1.29726 c 0.0039,-0.0064 0.0078,-0.01211 0.01424,-0.01674 0.0089,-0.0064 0.02172,-0.0036 0.0324,0 a 0.86672978,0.86672978 0 0 0 0.583281,-0.02956 c 0.0096,-0.0036 0.01923,-0.0061 0.02671,7.04e-4 a 0.06765645,0.06765645 0 0 1 0.01,0.01139 l 3.204504,4.650135 z m -5.016469,-3.627175 -0.734623,-0.734623 1.450753,-0.618897 a 0.02991193,0.02991193 0 0 1 0.01175,-0.0025 c 0.01211,0 0.01923,0.01211 0.02564,0.02314 a 1.0362521,1.0362521 0 0 0 0.04629,0.06552 l 0.0046,0.0057 c 0.0043,0.0061 0.0014,0.01211 -0.0028,0.0178 l -0.801209,1.243899 z M 11.538344,17.072157 10.608942,16.142755 C 10.450836,15.984649 10.336174,15.869987 10.25641,15.771347 l 2.825971,0.586134 a 0.29911932,0.29911932 0 0 0 0.01068,0.0018 c 0.01745,0.0028 0.03667,0.0061 0.03667,0.02243 0,0.0178 -0.02101,0.026 -0.03882,0.03276 l -0.0082,0.0036 z m -1.444341,-1.778694 a 0.71218141,0.71218141 0 0 1 0.03205,-0.176267 c 0.0527,-0.165941 0.195854,-0.309089 0.48288,-0.596104 l 1.189354,-1.189354 a 774.69667,774.69667 0 0 0 1.647291,2.38121 c 0.0096,0.01282 0.0203,0.02706 0.0093,0.03775 -0.05199,0.05733 -0.103981,0.120003 -0.140658,0.188019 a 0.05697529,0.05697529 0 0 1 -0.01781,0.02208 c -0.0046,0.0028 -0.0096,0.0018 -0.01495,7.03e-4 h -7.05e-4 L 10.094,15.293103 Z m 2.022617,-2.280068 1.599241,-1.599241 c 0.150271,0.06588 0.697247,0.296984 1.1865,0.503523 0.370341,0.156683 0.70792,0.29912 0.814028,0.345414 0.01068,0.0043 0.0203,0.0085 0.02493,0.01923 0.0028,0.0064 0.0015,0.0146 0,0.02137 a 0.71327611,0.71327611 0 0 0 0.18624,0.650956 c 0.01069,0.01068 0,0.026 -0.0093,0.03917 l -0.005,0.0075 -1.623794,2.515115 c -0.0043,0.0071 -0.0082,0.01318 -0.01531,0.0178 -0.0085,0.0053 -0.02065,0.0029 -0.03062,3.55e-4 a 0.80976621,0.80976621 0 0 0 -0.193359,-0.02635 c -0.0584,0 -0.121786,0.01068 -0.185881,0.02243 h -3.56e-4 c -0.0071,0.0011 -0.01353,0.0025 -0.01923,-0.0018 a 0.07477983,0.07477983 0 0 1 -0.01602,-0.01816 z m 1.922217,-1.922217 2.070354,-2.0703543 c 0.286655,-0.286655 0.430179,-0.430179 0.596104,-0.482529 a 0.71218141,0.71218141 0 0 1 0.429436,0 c 0.165941,0.05235 0.309448,0.195854 0.596104,0.482529 l 0.448671,0.448671 -1.472452,2.2804193 a 0.0551964,0.0551964 0 0 1 -0.0146,0.01709 c -0.0089,0.0061 -0.02137,0.0036 -0.03205,0 a 0.74674269,0.74674269 0 0 0 -0.683719,0.131756 c -0.0096,0.01 -0.02386,0.0043 -0.03597,-0.0011 -0.192287,-0.08368 -1.687907,-0.715739 -1.901882,-0.80656 z m 4.45348,-1.3089893 1.35958,1.3595803 -0.327609,2.029029 v 0.0053 a 0.04807303,0.04807303 0 0 1 -0.0028,0.01353 c -0.0036,0.0071 -0.01069,0.0085 -0.01781,0.01069 a 0.65166006,0.65166006 0 0 0 -0.195138,0.09721 0.05484063,0.05484063 0 0 0 -0.0071,0.0061 c -0.0039,0.0043 -0.0078,0.0082 -0.01424,0.0089 a 0.04059387,0.04059387 0 0 1 -0.01531,-0.0025 l -2.071762,-0.880257 -0.0039,-0.0018 c -0.01318,-0.0053 -0.02884,-0.01175 -0.02884,-0.02528 a 0.78271145,0.78271145 0 0 0 -0.110426,-0.325754 c -0.01,-0.01638 -0.02101,-0.03347 -0.01246,-0.05021 z m -1.400162,3.0645773 1.942156,0.82259 c 0.01068,0.005 0.02243,0.0096 0.02706,0.02065 a 0.03774608,0.03774608 0 0 1 0,0.0203 c -0.0057,0.02849 -0.01069,0.06089 -0.01069,0.09365 v 0.05448 c 0,0.01353 -0.01389,0.01923 -0.02671,0.02457 l -0.0039,0.0014 c -0.307666,0.131399 -4.319379,1.842069 -4.325634,1.842069 -0.0061,0 -0.01246,0 -0.01852,-0.0061 -0.01069,-0.01068 0,-0.02564 0.0096,-0.03917 a 0.27063363,0.27063363 0 0 0 0.005,-0.0071 l 1.596035,-2.471288 0.0028,-0.0043 c 0.0093,-0.01496 0.01994,-0.0317 0.03703,-0.0317 l 0.01602,0.0025 c 0.03632,0.005 0.06837,0.0096 0.100775,0.0096 0.242144,0 0.4665,-0.117868 0.601812,-0.319418 a 0.05697529,0.05697529 0 0 1 0.01211,-0.01424 c 0.0096,-0.0071 0.02386,-0.0036 0.0349,0.0014 z m -2.22416,3.270733 4.372941,-1.864863 c 0,0 0.0064,0 0.01246,0.0061 0.02386,0.02386 0.04416,0.03988 0.06374,0.05484 l 0.0096,0.0061 c 0.0089,0.005 0.0178,0.01068 0.01852,0.01994 0,0.0036 0,0.0057 -7.04e-4,0.0089 l -0.374615,2.301102 -0.0014,0.0093 c -0.0025,0.0178 -0.005,0.0381 -0.02172,0.0381 a 0.61569131,0.61569131 0 0 0 -0.488902,0.301614 l -0.0018,0.0028 c -0.005,0.0082 -0.0096,0.01602 -0.0178,0.0203 -0.0075,0.0036 -0.01709,0.0021 -0.02493,3.55e-4 l -3.487234,-0.719408 c -0.0036,-7.04e-4 -0.05413,-0.184813 -0.05804,-0.185169 z"
     style="fill:#a7ffeb;fill-opacity:1;stroke-width:0.3560946"
     id="path2-5"
     inkscape:connector-curvature="0" />
</svg>
