<svg viewBox="0 0 16 16" xmlns="http://www.w3.org/2000/svg">
	<path
		fill="#90a4ae" stroke="none"
		d="M 2.4160156,3 2.2851562,3.00586 2.1445312,3.027344 2.0078125,3.060547 1.8769531,3.107422 1.7539062,3.166016 1.6367188,3.236328 1.5273438,3.318359 1.4257812,3.408203 1.3320312,3.496094 1.2421875,3.5996094 1.1679688,3.7070312 1.1074219,3.8339844 1.0527344,3.9726562 1.0253906,4.0800781 0.99609375,4.2382812 1,4.3925781 1.0039062,5 h 1.0058594 l 0.00195,-0.5859375 0.00391,-0.054687 0.00586,-0.039063 0.00977,-0.037109 0.013672,-0.037109 0.015625,-0.035156 0.019531,-0.03125 0.023437,-0.03125 0.027344,-0.029297 0.029297,-0.025391 0.03125,-0.023437 0.033203,-0.019531 0.037109,-0.017578 0.037109,-0.013672 0.041016,-0.011719 0.042969,-0.00586 L 2.4414062,4 H 3 V 3 Z M 4,3 v 1 h 0.5 1.296875 l 0.048828,0.00195 0.037109,0.00391 0.037109,0.00781 0.037109,0.011719 0.035156,0.013672 0.033203,0.017578 0.03125,0.019531 0.039063,0.027344 0.5898438,0.4765625 0.072266,0.054687 -0.162109,-0.1289062 0.234375,0.1894531 0.089844,0.066406 0.1015625,0.064453 0.109375,0.060547 0.070312,0.03125 0.068359,0.025391 0.072266,0.023437 0.080078,0.017578 0.083984,0.011719 L 7.5820312,5 H 8.6914062 9 V 4 H 8.6894531 7.6054688 7.6035188 7.6015688 L 7.5957088,3.99805 7.5859388,3.99414 7.5761688,3.99023 7.5331998,3.966793 7.4863248,3.935543 7.4335908,3.898434 7.3144501,3.802731 7.3105401,3.800781 6.7070312,3.3125 6.6171875,3.2460938 6.5117188,3.1816406 6.4023438,3.1269531 6.2890625,3.0820312 6.171875,3.046875 6.0527344,3.0195312 5.9316406,3.0039062 5.8183594,3 H 4.5 Z m 6,1 v 1 h 2 V 4 Z m 3,0 v 1 h 0.632812 v 0.00195 h 1.333985 L 14.931641,4.8808594 14.878906,4.7519531 14.8125,4.6308594 14.734375,4.5195312 14.646484,4.4179688 14.546875,4.328125 14.441406,4.25 14.328125,4.1816406 14.210938,4.125 14.089844,4.080078 13.964844,4.044922 13.835938,4.019531 13.748048,4.009761 V 4 Z M 0.99804688,6 1,6.4648438 0.99804688,6.46875 1.0019531,8 h 1.0039063 l 0.00391,-1.8183594 H 2 V 6 Z M 4.3417969,6 C 4.0023799,5.9999323 3.6842759,6.127503 3.4648438,6.3164062 3.278487,6.4768353 3.156714,6.6698462 3.0683594,6.8613281 l -0.00195,0.00195 -0.00195,0.00195 c -0.00957,0.014437 -0.013653,0.039026 -0.013672,0.039063 -1.05e-4,1.877e-4 -0.010994,0.023747 -0.013672,0.029297 -0.00536,0.0111 -0.00789,0.01525 -0.00977,0.019531 -0.00142,0.00325 -0.00279,0.0052 -0.00391,0.00781 l -0.00195,0.00195 v 0.00195 0.00195 0.00195 0.00195 h -0.00195 v 0.00195 0.00195 c -0.00557,0.013484 -0.013213,0.030153 -0.021484,0.050781 -0.016543,0.041258 -0.041164,0.097886 -0.070312,0.171875 C 2.8694458,7.3452627 2.7892912,7.5548497 2.6914062,7.8066406 2.6672945,7.868664 2.6430742,7.933221 2.6171875,8 H 3.7167969 C 3.78741,7.819391 3.8478154,7.6663598 3.8925781,7.5527344 c 0.028732,-0.072936 0.051237,-0.1301372 0.066406,-0.1679688 0.0062,-0.015469 0.010494,-0.025146 0.013672,-0.033203 v -0.00195 c 0.0036,-0.00836 0.00664,-0.016847 0.00977,-0.025391 C 4.0330237,7.1984626 4.0978995,7.1096412 4.1503906,7.0644531 4.2028816,7.0192651 4.2351784,6.999979 4.3417969,7 H 5 V 6 Z M 6,6 V 7 H 9 V 6 Z m 4,0 v 1 h 3 V 6 Z m 4,0 v 1 h 0.453125 c 0.222123,-1.635e-4 0.390928,0.035233 0.46875,0.1328125 0.07782,0.097579 0.07463,0.2157299 0.02344,0.3378906 L 13.634766,10 h 1.152343 L 15.865234,7.9199219 C 16.099163,7.4683377 16.010543,6.9386084 15.724609,6.5800781 15.439047,6.222012 14.974253,6.0001882 14.453125,6 h -0.002 z M 1,9 v 1 H 1.8496094 2.9472656 V 9.99805 h 0.00195 V 9.9961 C 3.0781869,9.6566321 3.2081129,9.3173966 3.3300781,9 H 2.2304688 C 2.1544975,9.1983374 2.0774538,9.4017201 2,9.6054688 V 9.1816406 H 2.00391 V 9 Z m 0.4765625,2 c -0.065768,0.179342 -0.1266616,0.348206 -0.1816406,0.501953 -0.090776,0.253852 -0.1650483,0.464379 -0.2148438,0.623047 -0.024898,0.07933 -0.041814,0.141585 -0.056641,0.207031 -0.00742,0.03272 -0.018033,0.0607 -0.021484,0.126953 -0.00172,0.03312 -0.00896,0.07321 0.021484,0.175782 0.016207,0.08397 0.062621,0.152401 0.125,0.210937 C 1.2277219,12.9201 1.3222075,13 1.5214844,13 H 3 V 12 H 2.2089844 c 0.022579,-0.06453 0.032702,-0.09752 0.058594,-0.169922 C 2.3540921,11.588144 2.4589617,11.304563 2.5722656,11 Z m 11.6386715,0 -0.517578,1 h -0.585937 v 1 h 0.904297 c 0.194921,1.98e-4 0.373364,-0.106521 0.460937,-0.275391 L 14.269531,11 Z M 4,12 v 1 h 3 v -1 z m 4,0 v 1 h 3.011719 v -1 z"
	/>
</svg>
