<svg xmlns="http://www.w3.org/2000/svg" viewBox="0 0 16 16"><path id="folder" fill="#4caf50" d="m6.922 3.768-.644-.536A1 1 0 0 0 5.638 3H2a1 1 0 0 0-1 1v8a1 1 0 0 0 1 1h12a1 1 0 0 0 1-1V5a1 1 0 0 0-1-1H7.562a1 1 0 0 1-.64-.232"/><path id="motive" fill="#c8e6c9" d="m5.376 13.614 1.564-2.885a.755.756 0 0 0-.287-1.018.725.726 0 0 0-.997.293L4.093 12.89a.755.756 0 0 0 .286 1.017.7.7 0 0 0 .355.094.73.73 0 0 0 .642-.386m5.153 0 1.563-2.885a.755.756 0 0 0-.287-1.018.725.726 0 0 0-.997.293L9.244 12.89a.755.756 0 0 0 .287 1.017.7.7 0 0 0 .355.094.73.73 0 0 0 .643-.386M9.08 11.006l1.663-2.882a.753.754 0 0 0-.26-1.021.723.724 0 0 0-1 .264L7.82 10.249a.755.756 0 0 0 .26 1.022.715.716 0 0 0 .37.103.73.73 0 0 0 .63-.368m5.154 0L15.9 8.124a.753.754 0 0 0-.26-1.021.723.724 0 0 0-1 .264l-1.663 2.882a.755.756 0 0 0 .259 1.022.715.716 0 0 0 .37.103.73.73 0 0 0 .63-.368z"/></svg>