<svg xmlns="http://www.w3.org/2000/svg" viewBox="0 0 16 16"><path id="folder" fill="#2196f3" d="m6.922 3.768-.644-.536A1 1 0 0 0 5.638 3H2a1 1 0 0 0-1 1v8a1 1 0 0 0 1 1h12a1 1 0 0 0 1-1V5a1 1 0 0 0-1-1H7.562a1 1 0 0 1-.64-.232"/><path id="motive" fill="#bbdefb" d="M7.004 7a3.338 3.345 0 0 0 3.166 3.495h.95A3.308 3.315 0 0 0 8.001 14h.585a3.179 3.185 0 0 0 2.913-2.128A3.179 3.185 0 0 0 14.413 14h.585a3.308 3.315 0 0 0-3.118-3.505h.95A3.338 3.345 0 0 0 15.996 7h-1.583A3.169 3.175 0 0 0 11.5 9.118 3.169 3.175 0 0 0 8.587 7ZM11.5 9.12a3.848 3.856 0 0 1 0 2.75 3.848 3.856 0 0 1 0-2.75"/></svg>