<svg width="24" height="24" viewBox="0 0 24 24" fill="none" xmlns="http://www.w3.org/2000/svg">
  <path
    d="M19 20H4C3.46957 20 2.96086 19.7893 2.58579 19.4142C2.21071 19.0391 2 18.5304 2 18V6C2 4.89 2.89 4 4 4H10L12 6H19C20.097 6 21 6.903 21 8H4V18L6.14 10H23.21L20.93 18.5C20.7 19.37 19.92 20 19 20Z"
    fill="#7E57C2" />
  <path d="M13 19V15L17.5 17.3333L22 15V19L17.5 21L13 19Z" fill="#D1C4E9" stroke="#D1C4E9" stroke-linecap="square"
    stroke-linejoin="round" />
  <path d="M14.5 14L13 15H13.5L14.5 14.5V14Z" fill="#D1C4E9" />
  <path
    d="M13 15L12.7226 14.584C12.5393 14.7062 12.4576 14.934 12.5215 15.1449C12.5853 15.3558 12.7797 15.5 13 15.5V15ZM14.5 14H15V13.0657L14.2226 13.584L14.5 14ZM14.5 14.5L14.7236 14.9472L15 14.809V14.5H14.5ZM13.5 15V15.5H13.618L13.7236 15.4472L13.5 15ZM13.2774 15.416L14.7774 14.416L14.2226 13.584L12.7226 14.584L13.2774 15.416ZM14 14V14.5H15V14H14ZM14.2764 14.0528L13.2764 14.5528L13.7236 15.4472L14.7236 14.9472L14.2764 14.0528ZM13.5 14.5H13V15.5H13.5V14.5Z"
    fill="#D1C4E9" />
  <path d="M20.5 14L22 15H21.5L20.5 14.5V14Z" fill="#D1C4E9" />
  <path
    d="M22 15L22.2774 14.584C22.4607 14.7062 22.5424 14.934 22.4785 15.1449C22.4147 15.3558 22.2203 15.5 22 15.5V15ZM20.5 14H20V13.0657L20.7774 13.584L20.5 14ZM20.5 14.5L20.2764 14.9472L20 14.809V14.5H20.5ZM21.5 15V15.5H21.382L21.2764 15.4472L21.5 15ZM21.7226 15.416L20.2226 14.416L20.7774 13.584L22.2774 14.584L21.7226 15.416ZM21 14V14.5H20V14H21ZM20.7236 14.0528L21.7236 14.5528L21.2764 15.4472L20.2764 14.9472L20.7236 14.0528ZM21.5 14.5H22V15.5H21.5V14.5Z"
    fill="#D1C4E9" />
  <path fill-rule="evenodd" clip-rule="evenodd" d="M19 8V11.2306H21L17.4997 15L14 11.2306H16V8L19 8Z" fill="#D1C4E9" />
</svg>