<svg xmlns="http://www.w3.org/2000/svg" viewBox="0 0 16 16">
<path id="folder" fill="#8d6e63" d="M14.483 6H4.721a1 1 0 0 0-.949.684L2 12V5h12a1 1 0 0 0-1-1H7.562a1 1 0 0 1-.64-.232l-.644-.536A1 1 0 0 0 5.638 3H2a1 1 0 0 0-1 1v8a1 1 0 0 0 1 1h11l2.403-5.606A1 1 0 0 0 14.483 6" />
<path id="motive" fill="#d7ccc8" d="m 8,12.333742 v 1.666508 h 1.666508 l 4.915024,-4.9150238 -1.666508,-1.666508 z m 7.870039,-4.5370218 a 0.44250215,0.44250217 0 0 0 5e-4,-0.626003 v -5e-4 l -1.040005,-1.040005 a 0.44250215,0.44250217 0 0 0 -0.626504,-5e-4 l -0.813504,0.813504 1.666509,1.666508 z" />
</svg>
