<svg xmlns="http://www.w3.org/2000/svg" viewBox="0 0 32 32"><path d="M28.967,12H9.442a2,2,0,0,0-1.898,1.368L4,24V10H28a2,2,0,0,0-2-2H15.124a2,2,0,0,1-1.28-.464L12.556,6.464A2,2,0,0,0,11.276,6H4A2,2,0,0,0,2,8V24a2,2,0,0,0,2,2H26l4.805-11.212A2,2,0,0,0,28.967,12" style="fill:#1976d2"/><path d="M16,22.40521v2.78552c-4.80035-1.0971-8.26251-4.17053-8.26251-7.80334,0-4.55389,5.43139-8.24554,12.13128-8.24554S32,12.8335,32,17.38739A6.4565,6.4565,0,0,1,30.085,21.82l-.49078-.8548a4.65236,4.65236,0,0,0,.98211-2.96259c0-3.91034-3.75817-5.637-8.85064-5.637-5.09253,0-9.22083,2.52374-9.22083,5.637C12.50482,19.78973,13.87671,21.37329,16,22.40521Zm15.33209,5.5954L31.33179,28l-.001.00061Zm0-.00061H26.6759l-2.17736-4.20776a5.41437,5.41437,0,0,0-.72016-1.01691c-.22888-.19067-.32648-.25855-.55273-.25855H22V28H18V14h8.27393S30,14.07,30,17.75958a3.86637,3.86637,0,0,1-3.55859,3.96436,8.93443,8.93443,0,0,1,1.1557.44812,2.2366,2.2366,0,0,1,.58618.43091,1.6329,1.6329,0,0,1,.268.39642ZM26,17.5A1.5,1.5,0,0,0,24.5,16H22v4h2.5A1.5,1.5,0,0,0,26,18.5Z" style="fill:#90caf9;fill-rule:evenodd"/></svg>