<svg xmlns="http://www.w3.org/2000/svg" xml:space="preserve" viewBox="0 0 16 16"><path id="folder" fill="#00acc1" d="m6.922 3.768-.644-.536A1 1 0 0 0 5.638 3H2a1 1 0 0 0-1 1v8a1 1 0 0 0 1 1h12a1 1 0 0 0 1-1V5a1 1 0 0 0-1-1H7.562a1 1 0 0 1-.64-.232"/><path id="motive" fill="#b2ebf2" d="M11.62 13.998c-.065-.045-.142-.195-.186-.362a2.7 2.7 0 0 1-.028-.731 1 1 0 0 0 .012-.135 1 1 0 0 0-.135-.021 3.3 3.3 0 0 1-1.18-.376 1 1 0 0 0-.147-.072c-.01 0-.046.053-.08.118-.156.302-.43.602-.639.7-.076.035-.177.044-.224.019-.07-.038-.091-.188-.049-.354.029-.113.145-.353.239-.492.042-.062.124-.167.183-.233l.107-.12-.056-.054c-.147-.14-.423-.465-.423-.497 0-.012.377-.273.404-.28q.023-.004.094.092c.098.136.362.397.518.513a2.71 2.71 0 0 0 3.759-.498.5.5 0 0 1 .104-.112c.017 0 .39.253.403.274.012.018-.151.23-.29.376-.066.069-.12.132-.12.139s.052.067.115.133c.201.212.399.543.454.759.042.166.021.316-.05.354a.3.3 0 0 1-.09.015c-.216 0-.575-.348-.788-.764a.7.7 0 0 0-.088-.146.5.5 0 0 0-.093.051c-.31.199-.772.37-1.172.434a1 1 0 0 0-.17.037c-.011.009-.01.049.005.139.026.16.016.541-.019.696a.8.8 0 0 1-.156.355c-.077.084-.137.097-.214.043m-4.256-3.245c-.004-.01-.005-.538-.004-1.173l.004-1.156h.605l.004.426c.003.318.009.428.022.437.01.005.161.011.337.011.248 0 .322-.004.335-.019q.015-.019.019-.437l.004-.417h.605v2.339H8.69l-.004-.447c-.002-.3-.009-.452-.02-.465-.012-.015-.086-.02-.336-.02s-.325.005-.337.02c-.011.013-.017.165-.02.465l-.004.447-.3.004c-.231.002-.3 0-.305-.016zm2.45 0c-.004-.01-.005-.538-.003-1.173l.003-1.156h1.499l.004.257.004.256-.443.004-.444.004-.004.172c-.003.128 0 .175.015.184.01.006.182.011.382.012h.364l-.004.256-.004.256-.749.015v.404l.461.007.461.007v.506l-.767.003c-.607.003-.77 0-.775-.014m2.017 0a54 54 0 0 1-.003-1.173l.004-1.156h.605l.008.91.007.91.879.015v.505l-.746.003c-.59.003-.748 0-.754-.014m1.917 0a58 58 0 0 1-.003-1.173l.004-1.155.317-.003c.175-.003.324 0 .333.006.021.015.341.887.412 1.123.073.246.068.231.085.215a2 2 0 0 0 .075-.216c.075-.244.37-1.089.39-1.115.01-.014.088-.017.332-.014l.319.004v2.338l-.27.004-.27.004-.01-.038c-.02-.079.007-.915.037-1.154.047-.375.04-.38-.071-.057-.121.35-.36.993-.383 1.028-.02.03-.032.033-.17.033-.103 0-.154-.006-.164-.018a24 24 0 0 1-.392-1.068c-.057-.173-.088-.235-.087-.175 0 .015.014.134.03.265.03.245.056 1.068.036 1.146l-.01.037h-.266c-.2 0-.269-.004-.274-.018zm.19-2.666a3 3 0 0 0-.32-.404 2.7 2.7 0 0 0-1.433-.791c-.165-.036-.208-.04-.512-.04-.357-.001-.435.008-.712.08a2.65 2.65 0 0 0-1.017.519 3.3 3.3 0 0 0-.475.502c-.061.085-.092.117-.108.11a3 3 0 0 1-.404-.271c0-.034.237-.331.398-.5l.166-.173-.11-.12c-.201-.217-.393-.542-.447-.753-.042-.166-.021-.316.05-.354a.3.3 0 0 1 .09-.015c.216 0 .575.348.788.764.041.08.08.145.086.145s.063-.029.125-.065a3.4 3.4 0 0 1 1.19-.377.6.6 0 0 0 .128-.02c.013-.007.01-.046-.008-.157a2.5 2.5 0 0 1 .02-.774c.07-.264.183-.412.297-.39.106.02.21.193.263.443.035.162.036.62.002.77-.013.056-.02.106-.014.111s.074.02.154.033c.459.072.807.2 1.234.455.029.017.057.025.06.018.006-.007.045-.085.088-.172.169-.338.441-.645.664-.75.076-.035.177-.044.224-.02.071.039.092.189.05.355-.031.121-.15.36-.256.516-.05.073-.15.193-.224.267l-.133.135.131.14c.133.14.368.44.41.524.02.037.02.048.005.063a4 4 0 0 1-.406.238c-.01 0-.03-.019-.043-.042"/></svg>