<svg xmlns="http://www.w3.org/2000/svg" viewBox="0 0 32 32">
  <path d="M13.84376,7.53645l-1.28749-1.0729A2,2,0,0,0,11.27591,6H4A2,2,0,0,0,2,8V24a2,2,0,0,0,2,2H28a2,2,0,0,0,2-2V10a2,2,0,0,0-2-2H15.12412A2,2,0,0,1,13.84376,7.53645Z" style="fill: #0288d1"/>
  <path d="M31.44505,24.006a7.16288,7.16288,0,0,0-2.73616,1.30111,16.23844,16.23844,0,0,1-4.03812,1.88631,1.112,1.112,0,0,1-.67973.3936,41.69761,41.69761,0,0,1-4.45487.41291c-.80475.00594-1.29623-.2124-1.43418-.554a1.13925,1.13925,0,0,1,.57985-1.47407l.0194-.00824a2.53541,2.53541,0,0,1-.3564-.27032c-.11783-.12179-.24285-.36686-.28022-.27626-.1552.39211-.23711,1.35161-.65386,1.78383a2.0383,2.0383,0,0,1-2.29929.052c-.70415-.38616.04887-1.29516.04887-1.29516a.49706.49706,0,0,1-.67827-.22974l-.00721-.01533a3.56275,3.56275,0,0,1-.45986-2.10612,3.92349,3.92349,0,0,1,1.2215-2.0794,6.85168,6.85168,0,0,1,.45411-3.14434A7.38477,7.38477,0,0,1,17.8778,15.7686s-1.33932-1.52688-.84067-2.91116c.32333-.90305.45411-.89563.56045-.93573a2.48922,2.48922,0,0,0,1.00307-.61045,3.57841,3.57841,0,0,1,3.04656-1.212s.799-2.53092,1.54626-2.03483A13.30981,13.30981,0,0,1,24.25259,10.126s.88522-.5347.98582-.33568a8.35294,8.35294,0,0,1,.36069,4.38158,10.12541,10.12541,0,0,1-1.79488,3.86322A7.88126,7.88126,0,0,1,25.612,20.81261a8.3991,8.3991,0,0,1,.18107,3.72211l.02443.04456a4.43609,4.43609,0,0,0,2.3424-.93424,5.7679,5.7679,0,0,1,2.95458-1.14664.75034.75034,0,0,1,.87272.61877A.77466.77466,0,0,1,31.44505,24.006Z" style="fill: #b3e5fc"/>
</svg>
