<?xml version="1.0" encoding="utf-8"?><svg xmlns="http://www.w3.org/2000/svg" viewBox="0 0 24 24"><path fill="#546E7A" d="M19,20H4c-1.105,0-2-0.895-2-2V6c0-1.11,0.89-2,2-2h6l2,2h7c1.097,0,2,0.903,2,2H4v10l2.14-8h17.07l-2.28,8.5C20.7,19.37,19.92,20,19,20z"/><path fill="#CFD8DC" d="M17.61,7.402l-5.241,2.604v9.295l5.241,2.603l5.241-2.604v-9.294L17.61,7.402z M21.186,18.393l-1.797,0.953l0.007,1.671l-5.362-2.623v-7.482l3.576-1.896l3.576,1.896V18.393L21.186,18.393z"/><path fill="#90A4AE" d="M17.611,10.913l-2.101,1.022v5.437l2.1,1.022l2.1-1.022v-5.437L17.611,10.913z"/></svg>