<svg xmlns="http://www.w3.org/2000/svg" viewBox="0 0 16 16"><path id="folder" fill="#43a047" d="m6.922 3.768-.644-.536A1 1 0 0 0 5.638 3H2a1 1 0 0 0-1 1v8a1 1 0 0 0 1 1h12a1 1 0 0 0 1-1V5a1 1 0 0 0-1-1H7.562a1 1 0 0 1-.64-.232"/><path id="motive" fill="#a5d6a7" stroke-width=".005" d="M13.683 5.978a9 9 0 0 0-1.306.17 7.648 7.653 0 0 0-1.088.32 6 6 0 0 0-1.177.631 4.71 4.713 0 0 0-.29.226l-.015.006a6 6 0 0 0-.68.686 11 11 0 0 1-.237.316 6 6 0 0 0-.752 1.562 8.728 8.734 0 0 0-.278 1.294 11.3 11.3 0 0 0-.08 1.883 17.366 17.378 0 0 0 .03.52 9.172 9.178 0 0 0 .036.437q.39.038.778.066.504.033 1.01.02a9 9 0 0 0 2.402-.378 8 8 0 0 0 .394-.145 7.658 7.663 0 0 0 .762-.37q.405-.247.773-.547a11.774 11.782 0 0 0 .423-.413 8.904 8.91 0 0 0 .404-.51q.431-.639.692-1.368a7.7 7.7 0 0 0 .36-1.604q.15-1.338-.071-2.664a.02.02 0 0 0-.01-.016 6 6 0 0 0-.28-.05L15 6q-.66-.059-1.317-.022m.276 1.802q.06 0 .121.003a4.336 4.34 0 0 0-.683.32 8.2 8.2 0 0 0-1.425 1.016 8 8 0 0 1-.252.226 23.868 23.884 0 0 0-.586.608 14.349 14.359 0 0 1-.3.357q-.733.921-1.258 1.983-.005.007-.01.003a5.56 5.56 0 0 1 .69-2.49q.918-1.56 2.7-1.923.193-.039.388-.063.308-.028.615-.04"/></svg>