<svg xmlns="http://www.w3.org/2000/svg" viewBox="0 0 16 16">
<path id="folder" fill="#009688" d="M14.483 6H4.721a1 1 0 0 0-.949.684L2 12V5h12a1 1 0 0 0-1-1H7.562a1 1 0 0 1-.64-.232l-.644-.536A1 1 0 0 0 5.638 3H2a1 1 0 0 0-1 1v8a1 1 0 0 0 1 1h11l2.403-5.606A1 1 0 0 0 14.483 6" />
<path id="motive" fill="#b2dfdb" d="M 12,5 H 8.5 A 0.5,0.5 0 0 0 8,5.5 v 8 A 0.5,0.5 0 0 0 8.5,14 h 6 A 0.5,0.5 0 0 0 15,13.5 V 8 Z M 10,8 A 1,1 0 1 1 9,9 1.005,1.005 0 0 1 10,8 m 4,5 H 9 l 2,-2 1,1 2,-2 z M 11.586,8.414 V 6 L 14,8.414 Z" />
</svg>
