<?xml version="1.0" encoding="utf-8"?>
<svg xmlns="http://www.w3.org/2000/svg" viewBox="0 0 32 32">
    <path
        d="M 29.015 12.016 L 9.49 12.016 C 8.629 12.015 7.864 12.566 7.592 13.384 L 4.048 24.016 L 4.048 10.016 L 28.048 10.016 C 28.048 8.911 27.153 8.016 26.048 8.016 L 15.172 8.016 C 14.704 8.015 14.251 7.851 13.892 7.552 L 12.604 6.48 C 12.245 6.18 11.792 6.016 11.324 6.016 L 4.048 6.016 C 2.944 6.016 2.048 6.911 2.048 8.016 L 2.048 24.016 C 2.048 25.12 2.944 26.016 4.048 26.016 L 26.048 26.016 L 30.853 14.804 C 31.419 13.484 30.451 12.016 29.015 12.016"
        style="fill: rgb(77, 208, 225); stroke-width: 1;" />
    <path
        d="M 16.631 27.297 C 16.234 27.297 15.893 27.155 15.61 26.872 C 15.327 26.589 15.185 26.249 15.186 25.852 L 15.186 23.683 L 16.631 23.683 L 16.631 25.852 L 28.195 25.852 L 28.195 17.179 L 16.631 17.179 L 16.631 19.347 L 15.186 19.347 L 15.186 17.179 C 15.186 16.781 15.327 16.441 15.611 16.157 C 15.894 15.874 16.234 15.733 16.631 15.733 L 28.195 15.733 C 28.593 15.733 28.933 15.875 29.216 16.158 C 29.5 16.441 29.641 16.782 29.641 17.179 L 29.641 25.852 C 29.641 26.249 29.499 26.59 29.216 26.873 C 28.932 27.156 28.592 27.298 28.195 27.297 L 16.631 27.297 Z M 22.052 24.768 L 21.04 23.719 L 22.54 22.238 L 15.186 22.238 L 15.186 20.792 L 22.54 20.792 L 21.04 19.311 L 22.052 18.263 L 25.304 21.515 L 22.052 24.768 Z"
        style="stroke-width: 8.333; fill: rgb(178, 235, 242);" />
</svg>