<svg xmlns="http://www.w3.org/2000/svg" viewBox="0 0 32 32">
  <path d="M28.96692,12H9.44152a2,2,0,0,0-1.89737,1.36754L4,24V10H28a2,2,0,0,0-2-2H15.1241a2,2,0,0,1-1.28038-.46357L12.5563,6.46357A2,2,0,0,0,11.27592,6H4A2,2,0,0,0,2,8V24a2,2,0,0,0,2,2H26l4.80523-11.21213A2,2,0,0,0,28.96692,12Z" style="fill: #42a5f5"/>
  <g>
    <circle cx="29" cy="13" r="3" style="fill: #b3e5fc"/>
    <path d="M19.70312,14.59375a7.70313,7.70313,0,1,0,7.70313,7.70313A7.7031,7.7031,0,0,0,19.70312,14.59375ZM21,24a3,3,0,1,1,3-3A3,3,0,0,1,21,24Z" style="fill: #b3e5fc"/>
  </g>
</svg>
