<svg xmlns="http://www.w3.org/2000/svg" viewBox="0 0 16 16">
<path id="folder" fill="#1e88e5" d="M14.483 6H4.721a1 1 0 0 0-.949.684L2 12V5h12a1 1 0 0 0-1-1H7.562a1 1 0 0 1-.64-.232l-.644-.536A1 1 0 0 0 5.638 3H2a1 1 0 0 0-1 1v8a1 1 0 0 0 1 1h11l2.403-5.606A1 1 0 0 0 14.483 6" />
<path id="motive" fill="#e3f2fd" d="M 10.96875 5 A 1.9999593 1.9999602 0 0 0 10.822266 5.0078125 A 1.5699681 1.5699688 0 0 0 9.7421875 5.5976562 A 1.6999654 1.6999662 0 0 0 9.5136719 7.3261719 L 7.9003906 8.5722656 A 0.67498627 0.67498658 0 0 0 7.0078125 8.8398438 A 0.72498525 0.72498558 0 0 0 6.9296875 9.3769531 A 0.69998576 0.69998608 0 0 0 7.2402344 9.8144531 A 0.66498647 0.66498677 0 0 0 7.59375 9.9160156 A 0.67998617 0.67998648 0 0 0 8.1816406 9.5742188 A 0.73498504 0.73498538 0 0 0 8.2695312 9.0878906 L 10.339844 7.5136719 A 0.08499827 0.08499831 0 0 0 10.373047 7.453125 A 0.08499827 0.08499831 0 0 0 10.347656 7.3886719 A 1.0449787 1.0449792 0 0 1 10.068359 6.3574219 A 0.94148085 0.94148128 0 0 1 11.259766 5.7246094 A 0.97498016 0.97498061 0 0 1 11.916016 6.6367188 A 0.07999837 0.07999841 0 0 0 11.992188 6.7167969 L 12.484375 6.7265625 A 0.09999796 0.09999801 0 0 0 12.541016 6.703125 A 0.08499827 0.08499831 0 0 0 12.566406 6.6445312 A 1.669966 1.6699668 0 0 0 12.09375 5.4785156 A 1.5599683 1.559969 0 0 0 10.96875 5 z M 11.013672 6.0058594 A 0.7124855 0.71248583 0 0 0 11.011719 7.4277344 L 11.013672 7.4277344 A 0.64998677 0.64998707 0 0 0 11.330078 7.3476562 L 13.412109 8.9160156 A 0.07999837 0.07999841 0 0 0 13.478516 8.9296875 A 0.07999837 0.07999841 0 0 0 13.53125 8.8867188 A 0.98997986 0.98998031 0 0 1 14.398438 8.296875 A 0.96648034 0.96648078 0 0 1 15.347656 9.2792969 A 0.97998006 0.97998051 0 0 1 14.699219 10.208984 A 0.08299831 0.08299835 0 0 0 14.648438 10.310547 L 14.787109 10.800781 A 0.07999837 0.07999841 0 0 0 14.828125 10.849609 A 0.07499848 0.07499851 0 0 0 14.888672 10.855469 A 1.5999675 1.5999682 0 0 0 15.822266 10.035156 A 1.6999654 1.6999662 0 0 0 15.921875 8.7714844 A 1.574968 1.5749687 0 0 0 13.333984 8.0429688 L 11.693359 6.8261719 A 0.72998515 0.72998548 0 0 0 11.597656 6.3417969 A 0.68498607 0.68498638 0 0 0 11.169922 6.0234375 A 0.64998677 0.64998707 0 0 0 11.015625 6.0058594 L 11.013672 6.0058594 z M 7.578125 7.5332031 A 1.6074673 1.607468 0 0 0 6 9.1484375 A 1.6499664 1.6499672 0 0 0 6.6601562 10.496094 A 1.5399687 1.5399694 0 0 0 7.7539062 10.808594 L 8.390625 12.777344 A 0.72798519 0.72798552 0 0 0 8.359375 13.738281 A 0.67498627 0.67498658 0 0 0 8.828125 13.980469 L 8.8789062 13.982422 A 0.66498647 0.66498677 0 0 0 9.3261719 13.808594 A 0.69998576 0.69998608 0 0 0 9.4296875 13.693359 A 0.72298529 0.72298562 0 0 0 9.2753906 12.707031 A 0.67998617 0.67998648 0 0 0 8.9765625 12.580078 L 8.1835938 10.060547 A 0.07999837 0.07999841 0 0 0 8.1386719 10.011719 A 0.07499848 0.07499851 0 0 0 8.0703125 10.013672 A 0.95998047 0.95998091 0 0 1 7.0410156 9.9570312 A 0.9974797 0.99748016 0 0 1 6.8300781 8.5976562 A 0.91998128 0.9199817 0 0 1 7.875 8.25 A 0.07999837 0.07999841 0 0 0 7.9746094 8.1992188 L 8.1367188 7.7226562 A 0.08499827 0.08499831 0 0 0 8.1328125 7.6601562 A 0.07999837 0.07999841 0 0 0 8.0859375 7.6171875 A 1.4999695 1.4999702 0 0 0 7.5976562 7.5332031 L 7.578125 7.5332031 z M 14.369141 8.5644531 A 0.68298611 0.68298642 0 0 0 13.685547 9.2128906 A 0.74998474 0.74998508 0 0 0 13.714844 9.4882812 A 0.69998576 0.69998608 0 0 0 13.882812 9.7714844 L 13.082031 12.285156 A 0.08499827 0.08499831 0 0 0 13.089844 12.353516 A 0.07999837 0.07999841 0 0 0 13.146484 12.392578 A 0.97598014 0.97598059 0 0 1 13.339844 14.283203 A 0.91998128 0.9199817 0 0 1 12.291016 13.9375 A 0.07799841 0.07799845 0 0 0 12.181641 13.917969 L 11.777344 14.205078 A 0.07999837 0.07999841 0 0 0 11.742188 14.257812 A 0.08499827 0.08499831 0 0 0 11.757812 14.320312 A 1.574968 1.5749687 0 0 0 13.048828 15 A 1.5499685 1.5499692 0 0 0 13.984375 14.685547 A 1.6799658 1.6799666 0 0 0 14.566406 12.851562 A 1.6149672 1.6149679 0 0 0 13.859375 11.941406 L 14.472656 9.96875 A 0.66998637 0.66998668 0 0 0 14.884766 9.7324219 A 0.71998535 0.71998568 0 0 0 15.048828 9.21875 A 0.68298611 0.68298642 0 0 0 14.369141 8.5644531 z M 7.6640625 12.296875 A 0.07499848 0.07499851 0 0 0 7.65625 12.298828 A 0.07999837 0.07999841 0 0 0 7.6035156 12.330078 A 1.6799658 1.6799666 0 0 0 7.3164062 13.554688 A 1.6499664 1.6499672 0 0 0 7.9492188 14.630859 A 1.5499685 1.5499692 0 0 0 8.8847656 14.949219 A 1.574968 1.5749687 0 0 0 10.171875 14.273438 A 1.6999654 1.6999662 0 0 0 10.443359 13.642578 L 12.449219 13.623047 A 0.67498627 0.67498658 0 0 0 13.322266 13.951172 A 0.69998576 0.69998608 0 0 0 13.689453 13.564453 A 0.72498525 0.72498558 0 0 0 13.6875 13.023438 A 0.68998596 0.68998628 0 0 0 13.316406 12.642578 A 0.64998677 0.64998707 0 0 0 12.792969 12.644531 A 0.69998576 0.69998608 0 0 0 12.445312 12.980469 L 9.8847656 12.988281 A 0.07999837 0.07999841 0 0 0 9.8242188 13.017578 A 0.08499827 0.08499831 0 0 0 9.8085938 13.085938 A 1.0399788 1.0399793 0 0 1 9.4453125 14.085938 A 0.90998148 0.9099819 0 0 1 8.7460938 14.263672 A 0.92998107 0.9299815 0 0 1 8.1289062 13.876953 A 0.99997965 0.99998011 0 0 1 8.1210938 12.732422 A 0.08499827 0.08499831 0 0 0 8.1054688 12.621094 L 7.7148438 12.314453 A 0.07499848 0.07499851 0 0 0 7.6640625 12.296875 z " />
</svg>
