<svg xmlns="http://www.w3.org/2000/svg" viewBox="0 0 16 16">
<path id="folder" fill="#7e57c2" d="m6.922 3.768-.644-.536A1 1 0 0 0 5.638 3H2a1 1 0 0 0-1 1v8a1 1 0 0 0 1 1h12a1 1 0 0 0 1-1V5a1 1 0 0 0-1-1H7.562a1 1 0 0 1-.64-.232" />
<path id="motive" fill="#d1c4e9" d="m 15.999999,6.9998858 a 1.9974997,1.9974997 0 0 0 -3.82,-0.82 3.8499993,3.8499994 0 0 0 -1.18,-0.18 3.9999993,3.9999994 0 1 0 4,4 3.8499993,3.8499994 0 0 0 -0.18,-1.18 1.9949997,1.9949997 0 0 0 1.18,-1.82 m -4,3.9999992 a 1.9999996,1.9999997 0 0 1 0,-3.9999992 1.9999996,1.9999997 0 0 0 2,2 1.9999996,1.9999997 0 0 1 -2,1.9999992" />
</svg>
