<?xml version="1.0" encoding="utf-8"?>
<!-- Generator: Adobe Illustrator 26.3.1, SVG Export Plug-In . SVG Version: 6.00 Build 0)  -->
<svg version="1.1" id="Layer_1" xmlns="http://www.w3.org/2000/svg" xmlns:xlink="http://www.w3.org/1999/xlink" x="0px" y="0px"
	 viewBox="0 0 24 24" style="enable-background:new 0 0 24 24;" xml:space="preserve">
<style type="text/css">
	.st0{fill:#FFAB00;}
	.st1{fill:#FFE57F;}
</style>
<path class="st0" d="M19,20H4c-1.1,0-2-0.9-2-2V6c0-1.1,0.9-2,2-2h6l2,2h7c1.1,0,2,0.9,2,2H4v10l2.1-8h17.1l-2.3,8.5
	C20.7,19.4,19.9,20,19,20z"/>
<path class="st1" d="M17,9c-3.3,0-6,2.7-6,6s2.7,6,6,6s6-2.7,6-6S20.3,9,17,9z M17.6,19.2h-1.2V18h1.2V19.2z M18.8,14.6l-0.5,0.6
	c-0.4,0.4-0.7,0.8-0.7,1.7h-1.2v-0.3c0-0.7,0.3-1.3,0.7-1.7l0.7-0.8c0.2-0.2,0.4-0.5,0.4-0.8c0-0.7-0.5-1.2-1.2-1.2
	s-1.2,0.5-1.2,1.2h-1.2c0-1.3,1.1-2.4,2.4-2.4s2.4,1.1,2.4,2.4C19.4,13.7,19.2,14.2,18.8,14.6z"/>
</svg>
