<svg width="16" height="16" xmlns="http://www.w3.org/2000/svg"><path fill="#ffc107" d="M6.922 3.768l-.644-.536A1 1 0 005.638 3H2a1 1 0 00-1 1v8a1 1 0 001 1h12a1 1 0 001-1V5a1 1 0 00-1-1H7.562a1 1 0 01-.64-.232z"/><path fill="#ffecb3" d="M15.947 6.079c-.145-.242-1.174-.252-1.947.231.048-1.16-.516-2.308-.758-2.308-.241-.049-1.062.887-1.352 1.998-.628-.676-1.546-.839-1.739-.646-.21.217-.258 1.646.29 2.657-.676.773-1.111 1.932-1.111 3.188 0 2.318 1.4 2.801 3.14 2.801 1.738 0 3.12-.483 3.12-2.801 0-.966-.155-1.836-.59-2.56.87-.822 1.14-2.319.947-2.56z"/></svg>
