<svg clip-rule="evenodd" fill-rule="evenodd" stroke-linejoin="round" stroke-miterlimit="1.4142" version="1.1" viewBox="0 0 24 24" xml:space="preserve" xmlns="http://www.w3.org/2000/svg"><path d="m10 4h-6c-1.11 0-2 0.89-2 2v12c0 1.097 0.903 2 2 2h16c1.097 0 2-0.903 2-2v-10c0-1.11-0.9-2-2-2h-8l-2-2z" fill="#e57373" fill-rule="nonzero" style="fill:#009688"/><path d="m21.275 18.517c-0.67814 0-1.2219 0.54374-1.2219 1.2219a1.2219 1.2219 0 0 0 1.2219 1.2219 1.2219 1.2219 0 0 0 1.2219-1.2219c0-0.67814-0.54984-1.2219-1.2219-1.2219m-9.775-9.775v1.2219h1.2219l2.1994 4.637-0.83088 1.4968c-0.09164 0.17106-0.14662 0.37267-0.14662 0.5865a1.2219 1.2219 0 0 0 1.2219 1.2219h7.3312v-1.2219h-7.0747a0.15273 0.15273 0 0 1-0.15274-0.15273c0-0.03055 0.0061-0.05499 0.01832-0.07331l0.54984-0.99583h4.5515c0.4582 0 0.86142-0.25659 1.0691-0.62927l2.1872-3.9528c0.04276-0.09775 0.07331-0.20161 0.07331-0.30547a0.61094 0.61094 0 0 0-0.61093-0.61094h-9.0358l-0.57428-1.2219m1.6679 9.775c-0.67814 0-1.2219 0.54374-1.2219 1.2219a1.2219 1.2219 0 0 0 1.2219 1.2219 1.2219 1.2219 0 0 0 1.2219-1.2219c0-0.67814-0.54984-1.2219-1.2219-1.2219z" style="fill:#b2dfdb;stroke-width:.61094"/></svg>
