<svg xmlns="http://www.w3.org/2000/svg" viewBox="0 0 32 32"><path fill="#5c6bc0" d="M28.967 12H9.442a2 2 0 0 0-1.898 1.368L4 24V10h24a2 2 0 0 0-2-2H15.124a2 2 0 0 1-1.28-.464l-1.288-1.072A2 2 0 0 0 11.276 6H4a2 2 0 0 0-2 2v16a2 2 0 0 0 2 2h22l4.805-11.212A2 2 0 0 0 28.967 12"/><path fill="#c5cae9" d="M17.235 12.447a4.21 4.21 0 0 1 3.314 3.313 1.471 1.471 0 0 0 2.904 0 4.21 4.21 0 0 1 3.312-3.313 1.471 1.471 0 0 0 0-2.904 4.21 4.21 0 0 1-3.312-3.313 1.47 1.47 0 0 0-2.903 0l-.001.001a4.21 4.21 0 0 1-3.314 3.312 1.471 1.471 0 0 0 0 2.904m13.942 6.585a2.805 2.805 0 0 1-2.208-2.209.98.98 0 0 0-1.936 0v.001a2.805 2.805 0 0 1-2.21 2.208.98.98 0 0 0 0 1.936 2.805 2.805 0 0 1 2.21 2.209.98.98 0 0 0 1.936 0 2.805 2.805 0 0 1 2.208-2.209.98.98 0 0 0 0-1.936"/><rect width="10" height="2" x="12" y="22" fill="#c5cae9" rx="1"/><rect width="10" height="2" x="12" y="18" fill="#c5cae9" rx="1"/><path fill="#c5cae9" d="M25 24a1 1 0 0 0-1 1 1 1 0 0 1-1 1H11a1 1 0 0 1-1-1v-8a1 1 0 0 1 1-1h6a1 1 0 0 0 0-2h-6a3 3 0 0 0-3 3v8a3 3 0 0 0 3 3h12a3 3 0 0 0 3-3 1 1 0 0 0-1-1"/></svg>