<?xml version="1.0" encoding="UTF-8"?>
<!DOCTYPE svg PUBLIC "-//W3C//DTD SVG 1.1//EN" "http://www.w3.org/Graphics/SVG/1.1/DTD/svg11.dtd">
<svg xmlns="http://www.w3.org/2000/svg" version="1.1" width="2400px" height="2400px" style="shape-rendering:geometricPrecision; text-rendering:geometricPrecision; image-rendering:optimizeQuality; fill-rule:evenodd; clip-rule:evenodd" xmlns:xlink="http://www.w3.org/1999/xlink">
<g><path style="opacity:0.999" fill="#388e3c" d="M 2265.5,1205.5 C 2262.9,1195.97 2260.9,1185.64 2259.5,1174.5C 2255.75,1172.77 2251.75,1171.77 2247.5,1171.5C 2244.16,1169.78 2240.49,1169.12 2236.5,1169.5C 2230.85,1167.22 2224.85,1166.22 2218.5,1166.5C 2201.52,1164.61 2184.52,1162.95 2167.5,1161.5C 2155.76,1159.19 2143.76,1158.19 2131.5,1158.5C 2017.53,1152.06 1905.53,1163.9 1795.5,1194C 1784.71,1197.21 1774.04,1200.71 1763.5,1204.5C 1756.34,1206.07 1749.34,1208.24 1742.5,1211C 1740.12,1211.72 1738.12,1212.88 1736.5,1214.5C 1733.85,1214.41 1731.51,1215.08 1729.5,1216.5C 1555.34,1285.33 1435.34,1407.33 1369.5,1582.5C 1367.93,1584.51 1366.93,1586.84 1366.5,1589.5C 1366.44,1590.61 1366.11,1591.61 1365.5,1592.5C 1363.8,1595.94 1362.46,1599.61 1361.5,1603.5C 1361.5,1604.17 1361.5,1604.83 1361.5,1605.5C 1358.01,1611.64 1355.68,1618.3 1354.5,1625.5C 1352.72,1628.5 1351.72,1631.84 1351.5,1635.5C 1351.5,1635.83 1351.5,1636.17 1351.5,1636.5C 1349.93,1638.1 1349.26,1640.1 1349.5,1642.5C 1348.7,1644.04 1348.37,1645.71 1348.5,1647.5C 1346.6,1649.7 1345.6,1652.36 1345.5,1655.5C 1334.67,1697.29 1326.67,1739.63 1321.5,1782.5C 1320.78,1782.92 1320.28,1783.58 1320,1784.5C 1319.17,1791.15 1318.67,1797.81 1318.5,1804.5C 1316,1827.11 1314.17,1849.78 1313,1872.5C 1312.83,1915 1312.33,1957.34 1311.5,1999.5C 1001.17,1999.67 690.833,1999.5 380.5,1999C 298.727,1988.22 242.227,1944.72 211,1868.5C 205.547,1852.57 201.881,1836.24 200,1819.5C 199.333,1405.5 199.333,991.5 200,577.5C 212.728,491.451 260.228,434.617 342.5,407C 351.7,404.367 361.033,402.367 370.5,401C 580.48,399.343 790.48,399.01 1000.5,400C 1066.83,466.333 1133.17,532.667 1199.5,599C 1439.5,599.333 1679.5,599.667 1919.5,600C 1993.65,609.858 2047.48,648.025 2081,714.5C 2093.36,741.473 2099.53,769.806 2099.5,799.5C 1532.83,799.5 966.167,799.5 399.5,799.5C 399.333,1131.5 399.5,1463.5 400,1795.5C 471.149,1530.23 541.983,1264.9 612.5,999.5C 1181.83,999.5 1751.17,999.5 2320.5,999.5C 2302.79,1068.35 2284.45,1137.02 2265.5,1205.5 Z"/></g>
<g><path style="opacity:0.997" fill="#a4d5a6" d="M 2131.5,1158.5 C 2143.32,1159.87 2155.32,1160.87 2167.5,1161.5C 2184.52,1162.95 2201.52,1164.61 2218.5,1166.5C 2224.29,1167.98 2230.29,1168.98 2236.5,1169.5C 2239.97,1170.52 2243.64,1171.19 2247.5,1171.5C 2251.75,1171.77 2255.75,1172.77 2259.5,1174.5C 2260.9,1185.64 2262.9,1195.97 2265.5,1205.5C 2280.63,1313.76 2280.13,1422.09 2264,1530.5C 2247.37,1646.34 2206.37,1752.34 2141,1848.5C 2075.65,1938.18 1992.15,2005.35 1890.5,2050C 1795.86,2089.99 1697.19,2113.33 1594.5,2120C 1546.88,2123.25 1499.22,2124.25 1451.5,2123C 1407.44,2120.62 1363.44,2117.46 1319.5,2113.5C 1316.08,2075.55 1313.41,2037.55 1311.5,1999.5C 1312.33,1957.34 1312.83,1915 1313,1872.5C 1314.17,1849.78 1316,1827.11 1318.5,1804.5C 1319.78,1797.34 1320.78,1790.01 1321.5,1782.5C 1326.67,1739.63 1334.67,1697.29 1345.5,1655.5C 1347.1,1653.15 1348.1,1650.49 1348.5,1647.5C 1348.37,1645.71 1348.7,1644.04 1349.5,1642.5C 1351.07,1640.9 1351.74,1638.9 1351.5,1636.5C 1351.5,1636.17 1351.5,1635.83 1351.5,1635.5C 1353.28,1632.5 1354.28,1629.16 1354.5,1625.5C 1357.2,1619.06 1359.54,1612.39 1361.5,1605.5C 1361.5,1604.83 1361.5,1604.17 1361.5,1603.5C 1363.99,1600.37 1365.32,1596.71 1365.5,1592.5C 1366.11,1591.61 1366.44,1590.61 1366.5,1589.5C 1368.83,1587.82 1369.83,1585.49 1369.5,1582.5C 1435.34,1407.33 1555.34,1285.33 1729.5,1216.5C 1732.15,1216.59 1734.49,1215.92 1736.5,1214.5C 1745.73,1211.54 1754.73,1208.2 1763.5,1204.5C 1774.04,1200.71 1784.71,1197.21 1795.5,1194C 1905.53,1163.9 2017.53,1152.06 2131.5,1158.5 Z"/></g>
<g><path style="opacity:1" fill="#529f55" d="M 2131.5,1158.5 C 2143.76,1158.19 2155.76,1159.19 2167.5,1161.5C 2155.32,1160.87 2143.32,1159.87 2131.5,1158.5 Z"/></g>
<g><path style="opacity:1" fill="#55a158" d="M 2218.5,1166.5 C 2224.85,1166.22 2230.85,1167.22 2236.5,1169.5C 2230.29,1168.98 2224.29,1167.98 2218.5,1166.5 Z"/></g>
<g><path style="opacity:1" fill="#5ea660" d="M 2236.5,1169.5 C 2240.49,1169.12 2244.16,1169.78 2247.5,1171.5C 2243.64,1171.19 2239.97,1170.52 2236.5,1169.5 Z"/></g>
<g><path style="opacity:1" fill="#7cba7e" d="M 1763.5,1204.5 C 1754.73,1208.2 1745.73,1211.54 1736.5,1214.5C 1738.12,1212.88 1740.12,1211.72 1742.5,1211C 1749.34,1208.24 1756.34,1206.07 1763.5,1204.5 Z"/></g>
<g><path style="opacity:1" fill="#7ebc81" d="M 1736.5,1214.5 C 1734.49,1215.92 1732.15,1216.59 1729.5,1216.5C 1731.51,1215.08 1733.85,1214.41 1736.5,1214.5 Z"/></g>
<g><path style="opacity:1" fill="#76b779" d="M 2031.5,1372.5 C 2040.32,1371.34 2049.32,1371.18 2058.5,1372C 2057.96,1372.72 2057.29,1373.22 2056.5,1373.5C 2048.35,1372.51 2040.02,1372.17 2031.5,1372.5 Z"/></g>
<g><path style="opacity:1" fill="#388e3c" d="M 2029.5,1372.5 C 2030.17,1372.5 2030.83,1372.5 2031.5,1372.5C 2040.02,1372.17 2048.35,1372.51 2056.5,1373.5C 2030.98,1383.09 2006.32,1394.59 1982.5,1408C 1891.54,1459.24 1810.04,1523.07 1738,1599.5C 1652.68,1690.76 1582.18,1792.43 1526.5,1904.5C 1525.51,1897.02 1525.17,1889.35 1525.5,1881.5C 1526.24,1877.88 1526.58,1874.21 1526.5,1870.5C 1527.97,1866.08 1528.64,1861.41 1528.5,1856.5C 1528.5,1855.5 1528.5,1854.5 1528.5,1853.5C 1530.68,1845.09 1532.01,1836.43 1532.5,1827.5C 1532.5,1826.83 1532.5,1826.17 1532.5,1825.5C 1534.76,1820.53 1535.76,1815.19 1535.5,1809.5C 1535.66,1805.71 1536.33,1802.04 1537.5,1798.5C 1540.04,1794.65 1541.04,1790.31 1540.5,1785.5C 1542.3,1775.94 1544.64,1766.6 1547.5,1757.5C 1548.92,1755.49 1549.59,1753.15 1549.5,1750.5C 1572.12,1665.92 1611.95,1590.92 1669,1525.5C 1737.06,1453.37 1819.9,1407.04 1917.5,1386.5C 1926.17,1385.97 1934.51,1384.3 1942.5,1381.5C 1945.29,1380.52 1948.29,1380.19 1951.5,1380.5C 1960.35,1379.48 1969.01,1378.15 1977.5,1376.5C 1980.73,1375.59 1984.06,1375.25 1987.5,1375.5C 2001.71,1375.41 2015.71,1374.41 2029.5,1372.5 Z"/></g>
<g><path style="opacity:1" fill="#59a45c" d="M 2029.5,1372.5 C 2015.71,1374.41 2001.71,1375.41 1987.5,1375.5C 2001.28,1373.55 2015.28,1372.55 2029.5,1372.5 Z"/></g>
<g><path style="opacity:1" fill="#64aa66" d="M 1977.5,1376.5 C 1969.01,1378.15 1960.35,1379.48 1951.5,1380.5C 1959.85,1378.04 1968.52,1376.7 1977.5,1376.5 Z"/></g>
<g><path style="opacity:1" fill="#54a057" d="M 1942.5,1381.5 C 1934.51,1384.3 1926.17,1385.97 1917.5,1386.5C 1925.54,1383.96 1933.87,1382.29 1942.5,1381.5 Z"/></g>
<g><path style="opacity:1" fill="#80bd83" d="M 1369.5,1582.5 C 1369.83,1585.49 1368.83,1587.82 1366.5,1589.5C 1366.93,1586.84 1367.93,1584.51 1369.5,1582.5 Z"/></g>
<g><path style="opacity:1" fill="#77b77a" d="M 1365.5,1592.5 C 1365.32,1596.71 1363.99,1600.37 1361.5,1603.5C 1362.46,1599.61 1363.8,1595.94 1365.5,1592.5 Z"/></g>
<g><path style="opacity:1" fill="#6aaf6d" d="M 1361.5,1605.5 C 1359.54,1612.39 1357.2,1619.06 1354.5,1625.5C 1355.68,1618.3 1358.01,1611.64 1361.5,1605.5 Z"/></g>
<g><path style="opacity:1" fill="#6eb170" d="M 1354.5,1625.5 C 1354.28,1629.16 1353.28,1632.5 1351.5,1635.5C 1351.72,1631.84 1352.72,1628.5 1354.5,1625.5 Z"/></g>
<g><path style="opacity:1" fill="#77b779" d="M 1351.5,1636.5 C 1351.74,1638.9 1351.07,1640.9 1349.5,1642.5C 1349.26,1640.1 1349.93,1638.1 1351.5,1636.5 Z"/></g>
<g><path style="opacity:1" fill="#60a863" d="M 1348.5,1647.5 C 1348.1,1650.49 1347.1,1653.15 1345.5,1655.5C 1345.6,1652.36 1346.6,1649.7 1348.5,1647.5 Z"/></g>
<g><path style="opacity:1" fill="#5da55f" d="M 1549.5,1750.5 C 1549.59,1753.15 1548.92,1755.49 1547.5,1757.5C 1547.41,1754.85 1548.08,1752.51 1549.5,1750.5 Z"/></g>
<g><path style="opacity:1" fill="#5ea761" d="M 1321.5,1782.5 C 1320.78,1790.01 1319.78,1797.34 1318.5,1804.5C 1318.67,1797.81 1319.17,1791.15 1320,1784.5C 1320.28,1783.58 1320.78,1782.92 1321.5,1782.5 Z"/></g>
<g><path style="opacity:1" fill="#55a057" d="M 1540.5,1785.5 C 1541.04,1790.31 1540.04,1794.65 1537.5,1798.5C 1538.34,1794.01 1539.34,1789.68 1540.5,1785.5 Z"/></g>
<g><path style="opacity:1" fill="#5ca55f" d="M 1535.5,1809.5 C 1535.76,1815.19 1534.76,1820.53 1532.5,1825.5C 1532.96,1819.94 1533.96,1814.61 1535.5,1809.5 Z"/></g>
<g><path style="opacity:1" fill="#62aa65" d="M 1532.5,1827.5 C 1532.01,1836.43 1530.68,1845.09 1528.5,1853.5C 1528.82,1844.55 1530.16,1835.88 1532.5,1827.5 Z"/></g>
<g><path style="opacity:1" fill="#64ab67" d="M 1528.5,1856.5 C 1528.64,1861.41 1527.97,1866.08 1526.5,1870.5C 1526.36,1865.59 1527.03,1860.92 1528.5,1856.5 Z"/></g>
<g><path style="opacity:1" fill="#66ac69" d="M 1525.5,1881.5 C 1525.17,1889.35 1525.51,1897.02 1526.5,1904.5C 1526.22,1905.29 1525.72,1905.96 1525,1906.5C 1524.18,1897.99 1524.34,1889.66 1525.5,1881.5 Z"/></g>
</svg>
