<svg version="1.1" viewBox="0 0 32 32" xmlns="http://www.w3.org/2000/svg">
 <path d="m13.844 7.536-1.288-1.072A2 2 0 0 0 11.276 6H4a2 2 0 0 0-2 2v16a2 2 0 0 0 2 2h24a2 2 0 0 0 2-2V10a2 2 0 0 0-2-2H15.124a2 2 0 0 1-1.28-.464" fill="#43a047"/>
 <path d="m20 10a2 2 0 0 0-1.5996 0.80078l-1.5996 2.1328a4 4 0 0 0-0.80078 2.3984v10.668a2 2 0 0 0 2 2h12a2 2 0 0 0 2-2v-10.668a4 4 0 0 0-0.80078-2.3984l-1.5996-2.1328a2 2 0 0 0-1.5996-0.80078h-8zm0 2h8l1.5 2h-11l1.5-2zm2 4h4v4h4l-6 6-6-6h4v-4z" fill="#c8e6c9"/>
</svg>
