<svg xmlns="http://www.w3.org/2000/svg" viewBox="0 0 16 16">
<path id="folder" fill="#039be5" d="m6.922 3.768-.644-.536A1 1 0 0 0 5.638 3H2a1 1 0 0 0-1 1v8a1 1 0 0 0 1 1h12a1 1 0 0 0 1-1V5a1 1 0 0 0-1-1H7.562a1 1 0 0 1-.64-.232" />
<path id="motive" fill="#b3e5fc" d="m 11,5 a 5,5 0 1 0 5,5 5,5 0 0 0 -5,-5 m 3.459,3 H 12.98 A 7.9,7.9 0 0 0 12.309,6.23 4.02,4.02 0 0 1 14.459,8 M 11,6 a 7.05,7.05 0 0 1 0.945,2 h -1.89 A 7.05,7.05 0 0 1 11,6 M 9.691,6.23 A 7.9,7.9 0 0 0 9.02,8 H 7.541 A 4.02,4.02 0 0 1 9.691,6.23 M 7.1315,11 a 3.85,3.85 0 0 1 0,-2 H 8.835 a 7.75,7.75 0 0 0 0,2 z m 0.41,1 H 9.02 A 7.9,7.9 0 0 0 9.691,13.77 4.02,4.02 0 0 1 7.541,12 Z M 11,14 a 7.05,7.05 0 0 1 -0.945,-2 h 1.89 A 7.05,7.05 0 0 1 11,14 m 1.155,-3 h -2.31 a 6.7,6.7 0 0 1 0,-2 h 2.31 a 6.7,6.7 0 0 1 0,2 m 0.154,2.77 A 7.9,7.9 0 0 0 12.98,12 h 1.479 a 4.02,4.02 0 0 1 -2.15,1.77 M 14.8685,11 H 13.165 a 7.75,7.75 0 0 0 0,-2 h 1.7035 a 3.85,3.85 0 0 1 0,2" />
</svg>
