<svg viewBox="0 0 32 32" xmlns="http://www.w3.org/2000/svg">
    <path
        d="m13.844 7.536-1.288-1.072A2 2 0 0 0 11.276 6H4a2 2 0 0 0-2 2v16a2 2 0 0 0 2 2h24a2 2 0 0 0 2-2V10a2 2 0 0 0-2-2H15.124a2 2 0 0 1-1.28-.464"
        fill="#01579b" />
    <g transform="matrix(.66433 0 0 .66433 5.3958 18.371)">
        <path
            d="m23.448-12c-0.16227 0-0.32347 0.01748-0.43208 0.05014-0.56775 0.17078-1.0933 0.87843-1.2619 1.4535-0.06447 0.22003-0.06447 0.65755 0 0.87758 0.12822 0.43729 0.40154 0.58942 2.2459 2.5894 1.1058 1.1226 2 1.9862 2 2 0 0.015456-2.7973 0.00837-6.353 0-4.2546-0.00992-6.5261-0.023308-6.647 0-0.43798 0.084132-0.94082 0.30837-1.135 0.69969-0.25646 0.51676-0.24507 1.1449 0.03151 1.6229 0.23178 0.4006 0.65418 0.60283 1.1035 0.67736 0.11963 0.019847 1.3317-1.136e-4 3 0 1.9063 1.354e-4 3-0.051504 3-0.051504-1.6018 1.6577-3.3181 3.4262-4.943 5.0863-5.0027 5.0746-4.8747 4.9336-5.005 5.3726-0.070256 0.2368-0.069016 0.68476 0.00207 0.92773 0.3017 1.0278 1.4815 1.5085 2.4012 0.98015 0.10542-0.06055 0.94878-0.88483 2.39-2.341 1.2245-1.2372 2.2348-2.2406 2.2459-2.2293 0.01116 0.011303 0.05682 0.40123 0.10125 0.86618l0.081 0.84339 0.2993 0.99839 0.29706 0.99611 0.4861 0.91633 0.48385 0.91861 0.65263 0.80236 0.65488 0.80464 0.74265 0.61772c0.40861 0.3395 0.78761 0.6489 0.84392 0.68839 0.05631 0.03949 0.4845 0.27892 0.95194 0.5311l0.85067 0.45816 0.94294 0.29404 0.94294 0.29177 0.90468 0.09801c0.4976 0.05332 1.0118 0.098 1.1432 0.1003 0.13144 0.0023 0.65425-0.03653 1.1612-0.08661l0.92044-0.09118 1.9849-0.60633 0.91593-0.49691 0.91368-0.49692 0.78992-0.65647 0.78765-0.65648 0.65037-0.80464 0.65038-0.80236 0.47258-0.89125 0.47034-0.89126 0.30382-1.0052 0.30381-1.0075 0.10352-1.0394 0.10125-1.0417-0.2025-2.0834-0.29255-0.97331-0.29256-0.97559-0.48159-0.92089-0.48385-0.92317-0.61662-0.75449c-0.57703-0.70646-0.87666-1.1267-5.4123-5.6028-4.218-4.1626-4.8874-4.9482-5.3358-5.0831-0.10862-0.03267-0.27206-0.05014-0.43434-0.05014zm3.0405 9.9768-0.75928 0.082861c-0.70432 0.075463-0.81215 0.094587-1.4326 0.28405-0.58497 0.17862-0.7521 0.24925-1.3132 0.5468-0.55399 0.29377-0.72086 0.40526-1.2177 0.80718-0.49888 0.40357-0.64079 0.54208-1.0482 1.0321-0.42096 0.50628-0.50817 0.63756-0.8333 1.2451-0.33476 0.62551-0.38022 0.73775-0.57781 1.399-0.20655 0.6912-0.21855 0.74491-0.27936 1.4534-0.06178 0.72051-0.06065 0.75147 0.01198 1.4368 0.0684 0.64972 0.08958 0.7516 0.29129 1.4013 0.19336 0.62277 0.25569 0.77083 0.56349 1.3398 0.29936 0.55336 0.40783 0.71594 0.8142 1.2072 0.40737 0.49251 0.54705 0.62946 1.0434 1.0321 0.49718 0.40327 0.65855 0.50974 1.2249 0.80955 0.59037 0.31254 0.71934 0.36474 1.3753 0.561 0.65968 0.19737 0.78419 0.22364 1.3944 0.28642 0.36856 0.03792 0.68063 0.07097 0.69242 0.07338 0.01168 0.0024 0.36185-0.02826 0.77838-0.06864 0.72054-0.06986 0.79349-0.08457 1.4827-0.29115 0.65358-0.19591 0.78706-0.25033 1.3753-0.561 0.57151-0.30184 0.72228-0.40245 1.2249-0.81192 0.49383-0.40231 0.63913-0.54619 1.041-1.0321 0.40802-0.49328 0.51096-0.64524 0.82136-1.2214 0.31906-0.59219 0.37694-0.73021 0.56588-1.3492 0.18989-0.62215 0.21653-0.75311 0.28174-1.3635 0.07594-0.71106 0.07366-0.92242-0.02387-1.825-0.04071-0.37559-0.0934-0.6027-0.26503-1.1575-0.18995-0.61414-0.25059-0.75982-0.56587-1.3445-0.31094-0.57667-0.41245-0.72666-0.82374-1.2214-0.40108-0.48248-0.54945-0.62953-1.0362-1.025-0.49287-0.40037-0.65466-0.50734-1.2201-0.80718-0.59272-0.31432-0.71671-0.36465-1.3753-0.561-0.68742-0.20495-0.76381-0.21957-1.4684-0.28642z"
            fill-rule="evenodd" fill="#ffe0b2" />
        <path
            d="m31.023 5.4758a4.5 4.5 0 0 1-4.4931 4.5 4.5 4.5 0 0 1-4.5069-4.4862 4.5 4.5 0 0 1 4.4793-4.5137 4.5 4.5 0 0 1 4.5206 4.4724z"
            fill-rule="evenodd" fill="#b3e5fc" paint-order="stroke fill markers" />
    </g>
</svg>