<svg xmlns="http://www.w3.org/2000/svg" viewBox="0 0 16 16">
<path id="folder" fill="#1e88e5" d="m6.922 3.768-.644-.536A1 1 0 0 0 5.638 3H2a1 1 0 0 0-1 1v8a1 1 0 0 0 1 1h12a1 1 0 0 0 1-1V5a1 1 0 0 0-1-1H7.562a1 1 0 0 1-.64-.232" />
<path id="motive" fill="#bbdefb" d="m 14.179999,5.3200326 a 1.4999999,1.4999999 0 1 1 -1.5,1.5 1.2999999,1.2999999 0 0 1 0.07,-0.42 4.0499998,4.0499997 0 0 0 -1.75,-0.4 3.9999998,3.9999997 0 0 0 -3.9999986,4.0000004 l 0.02,0.42 -0.995,0.105 -0.025,-0.525 a 4.9979997,4.9979996 0 0 1 7.3349986,-4.4200004 1.4999999,1.4999999 0 0 1 0.845,-0.26 m 0,1 a 0.49999997,0.49999996 0 1 0 0.5,0.5 0.49999997,0.49999996 0 0 0 -0.5,-0.5 M 7.8199994,11.680033 a 1.5049999,1.5049999 0 0 1 1.5,1.499999 1.2999999,1.2999999 0 0 1 -0.07,0.42 4.0499998,4.0499997 0 0 0 1.7499996,0.4 3.9999998,3.9999997 0 0 0 4,-3.999999 l -0.02,-0.4200004 0.995,-0.105 0.025,0.5250004 a 4.9979997,4.9979996 0 0 1 -7.3349996,4.419999 1.4999999,1.4999999 0 1 1 -0.845,-2.739999 m 0,0.999999 a 0.49999997,0.49999996 0 1 0 0.5,0.5 0.49849997,0.49849996 0 0 0 -0.5,-0.5 M 10.999999,8.0000326 A 1.9999998,1.9999998 0 1 1 8.9999994,10.000033 1.9999998,1.9999998 0 0 1 10.999999,8.0000326" />
</svg>
