<svg xmlns="http://www.w3.org/2000/svg" viewBox="0 0 16 16"><path id="folder" fill="#4caf50" d="m6.922 3.768-.644-.536A1 1 0 0 0 5.638 3H2a1 1 0 0 0-1 1v8a1 1 0 0 0 1 1h12a1 1 0 0 0 1-1V5a1 1 0 0 0-1-1H7.562a1 1 0 0 1-.64-.232"/><path id="motive" fill="#c8e6c9" d="M9.225 15a.5.5 0 0 1-.12-.014.57.568 0 0 1-.414-.661l1.549-7.872a.566.565 0 0 1 .254-.372.53.53 0 0 1 .4-.067.57.57 0 0 1 .415.662l-1.552 7.872a.56.56 0 0 1-.253.371.53.53 0 0 1-.28.081m3.105-1h-.038a.54.54 0 0 1-.382-.206.583.582 0 0 1 .057-.774l2.664-2.483-2.653-2.312a.583.582 0 0 1-.08-.772.54.54 0 0 1 .377-.218.53.53 0 0 1 .406.129l3.126 2.727a.579.578 0 0 1 .002.862l-3.114 2.904a.536.535 0 0 1-.365.144zm-4.661 0a.536.535 0 0 1-.365-.146L4.186 10.95a.58.58 0 0 1-.005-.846l.01-.01 3.128-2.726a.516.515 0 0 1 .4-.13.54.54 0 0 1 .38.218.583.582 0 0 1-.08.773l-2.65 2.31 2.663 2.482a.579.578 0 0 1 .056.774.536.535 0 0 1-.381.206z"/></svg>