<svg xmlns="http://www.w3.org/2000/svg" viewBox="0 0 32 32">
  <path d="M13.84376,7.53645l-1.28749-1.0729A2,2,0,0,0,11.27591,6H4A2,2,0,0,0,2,8V24a2,2,0,0,0,2,2H28a2,2,0,0,0,2-2V10a2,2,0,0,0-2-2H15.12412A2,2,0,0,1,13.84376,7.53645Z" style="fill: #ff5722"/>
  <path d="M25.98343,8.00089a5.35529,5.35529,0,0,0-2.86515.88894l-4.47757,2.9713a5.35611,5.35611,0,0,0-2.32089,3.57533,5.84051,5.84051,0,0,0,.53174,3.61766,5.47936,5.47936,0,0,0-.76633,1.99769,5.87924,5.87924,0,0,0,.93367,4.31124,5.73,5.73,0,0,0,7.86194,1.75836L29.36,24.1615a5.37235,5.37235,0,0,0,2.32089-3.57369,5.83679,5.83679,0,0,0-.53487-3.616,5.51386,5.51386,0,0,0,.76946-1.99931,5.886,5.886,0,0,0-.93523-4.31124v-.013A5.91288,5.91288,0,0,0,25.98343,8.00089Zm.39255,2.2826a3.60614,3.60614,0,0,1,3.32338,4.18261,3.72024,3.72024,0,0,1-.10636.43308l-.086.26864-.22834-.1791A5.71315,5.71315,0,0,0,27.527,14.077l-.172-.05048.01564-.17908a1.0789,1.0789,0,0,0-.18141-.69358,1.04838,1.04838,0,0,0-1.14325-.43146.96358.96358,0,0,0-.27525.12537l-4.47912,2.96479a.97551.97551,0,0,0-.42227.64962,1.07726,1.07726,0,0,0,.172.78149,1.05218,1.05218,0,0,0,1.14168.44447,1.01052,1.01052,0,0,0,.27525-.12537l1.71721-1.13316a3.133,3.133,0,0,1,.91022-.41679,3.48444,3.48444,0,0,1,3.816,1.47344,3.53455,3.53455,0,0,1,.563,2.59194,3.22425,3.22425,0,0,1-1.395,2.15563l-4.47914,2.96967a3.22971,3.22971,0,0,1-.91021.41679,3.49054,3.49054,0,0,1-3.81915-1.47507,3.53118,3.53118,0,0,1-.56146-2.59032,3.13858,3.13858,0,0,1,.10635-.43145l.08445-.26864.2299.17909a5.712,5.712,0,0,0,1.74692.90523l.172.05048-.01564.17909a1.08672,1.08672,0,0,0,.18767.68869,1.052,1.052,0,0,0,1.1495.44284.98455.98455,0,0,0,.27369-.12536l4.47287-2.96967a.97107.97107,0,0,0,.41915-.65124,1.06372,1.06372,0,0,0-.172-.7815,1.052,1.052,0,0,0-1.1495-.44283.96292.96292,0,0,0-.27526.12535l-1.71721,1.1348a3.216,3.216,0,0,1-.90708.41517,3.489,3.489,0,0,1-3.8129-1.47344,3.535,3.535,0,0,1-.55676-2.592,3.22423,3.22423,0,0,1,1.395-2.15561l4.48539-2.96967a3.20692,3.20692,0,0,1,.90239-.41517,3.4219,3.4219,0,0,1,1.05724-.114Z" style="fill: #ffccbc;fill-rule: evenodd"/>
</svg>
