<svg width="24" height="24" viewBox="0 0 24 24" fill="none" xmlns="http://www.w3.org/2000/svg">
<g clip-path="url(#clip0)">
<path d="M19 20H4C2.89 20 2 19.1 2 18V6C2 4.89 2.89 4 4 4H10L12 6H19C20.097 6 21 6.903 21 8H4V18L6.14 10H23.21L20.93 18.5C20.7 19.37 19.92 20 19 20Z" fill="#009688"/>
<path d="M10 9.00024L17.1037 21.2586L24.2055 9.05925V9.00065H21.4437L17.1448 16.3857L12.8635 9.00065H10.0001L10 9.00024Z" fill="#E0F2F1"/>
<path d="M12.8628 9L17.1429 16.3865L21.4431 9H18.8531L17.1599 11.9069L15.4745 9H12.8628Z" fill="#35495E"/>
</g>
<defs>
<clipPath id="clip0">
<rect width="24" height="24" fill="white"/>
</clipPath>
</defs>
</svg>
