<?xml version="1.0" encoding="UTF-8"?>
<svg fill="none" version="1.1" viewBox="0 0 24 24" xmlns="http://www.w3.org/2000/svg">
<path d="M10 4H4C2.89 4 2 4.89 2 6V18C2 19.097 2.903 20 4 20H20C21.097 20 22 19.097 22 18V8C22 7.46957 21.7893 6.96086 21.4142 6.58579C21.0391 6.21071 20.5304 6 20 6H12L10 4Z" fill="#26A69A"/>
<path d="M19.2185 17.0298C19.3871 18.2549 19.5435 19.4051 19.7059 20.5541C19.7251 20.6917 19.6943 20.7403 19.5279 20.748C18.5258 20.7941 18.5264 20.7978 18.1641 19.9525C18.0133 19.6008 17.8663 19.2477 17.7057 18.8994C17.6703 18.8422 17.6573 18.7757 17.6686 18.7109C17.68 18.646 17.7152 18.5866 17.7684 18.5423C18.2424 18.0626 18.7041 17.5699 19.2185 17.0298Z" fill="#E0F2F1"/>
<path d="M13.3284 18.0567C13.4719 18.731 13.6135 19.3649 13.7381 20.0015C13.7766 20.1986 13.9498 20.449 13.8016 20.5822C13.6739 20.6967 13.3903 20.5347 13.1723 20.5421C12.5933 20.5621 12.3237 20.3141 12.2297 19.7936C12.1745 19.488 12.15 19.2763 12.4265 19.0396C12.7492 18.7293 13.0504 18.4011 13.3284 18.0567V18.0567Z" fill="#E0F2F1"/>
<path d="M14.9635 19.2866C14.9635 18.9079 14.9571 18.5292 14.9665 18.1507C14.9702 18.002 14.9248 17.9518 14.7515 17.9466C13.569 17.9109 12.3867 17.8677 11.2047 17.8168C11.0191 17.8089 10.9458 17.857 10.9063 18.0242C10.7239 18.7989 10.5169 19.5689 10.3388 20.3444C10.2888 20.5622 10.1976 20.6425 9.94767 20.6178C9.67039 20.5916 9.39124 20.5857 9.11292 20.6003C8.90323 20.6099 8.86283 20.5301 8.8659 20.3637C8.88399 19.2006 8.91073 18.0374 8.89842 16.8746C8.89615 16.5167 9.02727 16.1688 9.2703 15.8878C9.9244 15.0593 10.5544 14.216 11.1882 13.3747C11.2223 13.3171 11.2761 13.2712 11.3414 13.2439C11.4067 13.2165 11.48 13.2093 11.5502 13.2232C13.9131 13.4536 16.2768 13.6768 18.6414 13.8928C18.7893 13.909 18.9306 13.9582 19.0526 14.0361C20.4596 14.8694 21.8642 15.7058 23.2784 16.529C23.4901 16.6517 23.4958 16.7218 23.2925 16.8328C23.2487 16.8544 23.2096 16.883 23.1771 16.9173C22.7698 17.3969 22.2921 17.3753 21.7149 17.1628C21.0174 16.9067 20.2817 16.7368 19.5664 16.519C19.4983 16.4938 19.4245 16.4843 19.3515 16.4913C19.2784 16.4982 19.2083 16.5214 19.1474 16.5588C18.4895 16.9312 17.8285 17.2991 17.1645 17.6623C17.1047 17.6915 17.0536 17.7336 17.0157 17.7849C16.9778 17.8361 16.9542 17.8951 16.9469 17.9566C16.8013 18.7561 16.6347 19.5521 16.5008 20.3537C16.4623 20.5834 16.3725 20.6562 16.122 20.6402C15.8039 20.6231 15.485 20.6226 15.1668 20.6388C14.9781 20.6465 14.9298 20.5862 14.936 20.4223C14.9483 20.0437 14.9398 19.6647 14.9398 19.2859L14.9635 19.2866Z" fill="#E0F2F1"/>
</svg>

