<svg xmlns="http://www.w3.org/2000/svg" viewBox="0 0 32 32">
  <path d="M13.84376,7.53645l-1.28749-1.0729A2,2,0,0,0,11.27591,6H4A2,2,0,0,0,2,8V24a2,2,0,0,0,2,2H28a2,2,0,0,0,2-2V10a2,2,0,0,0-2-2H15.12412A2,2,0,0,1,13.84376,7.53645Z" style="fill: #ec407a"/>
  <path d="M22.99522,10a1.98989,1.98989,0,0,0-1.99582,1.98394,1.964,1.964,0,0,0,.036.37094l-3.73457,2.13844a2.00491,2.00491,0,0,0-.30808-.22072h-.0029a2.00861,2.00861,0,0,0-2.72038.76169,1.94828,1.94828,0,0,0,1.07005,2.82436v4.27689a1.97476,1.97476,0,0,0-1.2273,2.521,2.00681,2.00681,0,0,0,2.88341,1.06218,1.9381,1.9381,0,0,0,.30375-.21785l3.736,2.13557a1.99825,1.99825,0,1,0,3.96022.37552,1.924,1.924,0,0,0-.05063-.43142l3.69987-2.11981a2.01471,2.01471,0,0,0,2.82805-.12815,1.98408,1.98408,0,0,0,.25132-.33909h.0029v-.00287a1.9696,1.9696,0,0,0-.73075-2.70395l-.00108-.00065a1.99136,1.99136,0,0,0-.34135-.15049V17.85578a1.97416,1.97416,0,0,0,1.23642-2.51549,2.006,2.006,0,0,0-2.8868-1.06769h-.00289a2.00421,2.00421,0,0,0-.30953.22073l-3.73168-2.13271a1.98468,1.98468,0,0,0-1.58669-2.32332,2.02014,2.02014,0,0,0-.37607-.03586ZM21.193,13.77955l-4.53444,7.777V17.84432a1.93385,1.93385,0,0,0,1.28873-2.20868Zm3.616.00574,3.23412,1.85322a1.94229,1.94229,0,0,0,1.29163,2.20581v3.70645Zm-2.17827.139a1.91611,1.91611,0,0,0,.73477,0l5.11878,8.78742a1.84943,1.84943,0,0,0-.37317.63924H17.88223a1.94748,1.94748,0,0,0-.15332-.33683l-.00145-.00287a1.97617,1.97617,0,0,0-.217-.29668ZM18.47237,24.65955h9.14407L24.323,26.54287a1.97388,1.97388,0,0,0-2.618-.0301l-3.23268-1.85036Z" style="fill: #f8bbd0"/>
</svg>
