<svg viewBox="0 0 1024 1024" xmlns="http://www.w3.org/2000/svg"><path d="M443.008 241.152l-41.216-34.304A64 64 0 00360.832 192H128a64 64 0 00-64 64v512a64 64 0 0064 64h768a64 64 0 0064-64V320a64 64 0 00-64-64H483.968a64 64 0 01-40.96-14.848" fill="#ffa726"/><path d="M512 320c-35.456 0-64 28.544-64 64v64c0 35.456 28.544 64 64 64v320c0 35.456 28.544 64 64 64h320c35.456 0 64-28.544 64-64V512c35.456 0 64-28.544 64-64v-64c0-35.456-28.544-64-64-64zm0 64h448v64H512zm128 128h192v64H640z" fill="#ffe0b2"/></svg>