<svg xmlns="http://www.w3.org/2000/svg" viewBox="0 0 16 16">
<path fill="#42a5f5" d="m6.922 3.768-.644-.536A1 1 0 0 0 5.638 3H2a1 1 0 0 0-1 1v8a1 1 0 0 0 1 1h12a1 1 0 0 0 1-1V5a1 1 0 0 0-1-1H7.562a1 1 0 0 1-.64-.232" id="folder"/>
<g id="motive"><path fill="#bbdefb" d="M9.983 5a5.85 5.85 0 0 0-1.3325 0.4355 9 9 0 0 0 0.083 1.0465 5.5 5.5 0 0 0-0.4915 0.305 4.5 4.5 0 0 0-0.457 0.3585 9 9 0 0 0-0.8895-0.4945A6.5 6.5 0 0 0 6 7.772a9 9 0 0 0 0.605 0.8325h0.0055v2.528l0.0145 0.0005 1.6235 0.1495a0.17 0.17 0 0 1 0.158 0.155l0.05 0.6835 1.4165 0.096 0.0975-0.631a0.1725 0.1725 0 0 1 0.173-0.1425h1.713a0.173 0.173 0 0 1 0.173 0.1425l0.0975 0.631 1.4165-0.096 0.05-0.6835a0.1725 0.1725 0 0 1 0.158-0.155l1.623-0.1495 0.014-0.0005v-0.202h0.001v-2.325h0.0055A9 9 0 0 0 16 7.7725a6.5 6.5 0 0 0-0.8955-1.121 9 9 0 0 0-0.8895 0.4935 4.5 4.5 0 0 0-0.457-0.3585 5.5 5.5 0 0 0-0.491-0.305 9.5 9.5 0 0 0 0.083-1.0465 5.9 5.9 0 0 0-1.333-0.435 9 9 0 0 0-0.495 0.92 3.5 3.5 0 0 0-0.5185-0.04h-0.007a3.5 3.5 0 0 0-0.5185 0.04 9 9 0 0 0-0.495-0.92m-1.2845 3.698a0.935 0.935 0 1 1 0.055 1.868h-0.002a0.935 0.935 0 1 1-0.053-1.868m4.603 0a0.935 0.935 0 1 1 0.013 1.868h-0.0125a0.935 0.935 0 1 1-0.012-1.868zM11 9.244a0.2965 0.2965 0 0 1 0.315 0.2735v0.86a0.313 0.313 0 0 1-0.345 0.2715 0.31 0.31 0 0 1-0.285-0.272v-0.86a0.295 0.295 0 0 1 0.315-0.273"/><path fill="#bbdefb" d="m13.9315 11.6015-0.05 0.688a0.17 0.17 0 0 1-0.162 0.155l-1.7295 0.117-0.013 0.0005a0.1725 0.1725 0 0 1-0.1725-0.1425l-0.099-0.642H10.295l-0.0995 0.642a0.1725 0.1725 0 0 1-0.1855 0.142l-1.7295-0.118a0.1725 0.1725 0 0 1-0.162-0.155l-0.05-0.6875-1.46-0.1345 0.0025 0.3465c0 1.472 1.956 2.179 4.386 2.187h0.0055c2.43-0.008 4.386-0.715 4.386-2.187l0.0025-0.3465Z"/></g>
</svg>
