<svg xmlns="http://www.w3.org/2000/svg" width="24" height="24" fill="none">
  <g clip-path="url(#clip0)">
    <path fill="#009688" d="M19 20H4a2 2 0 0 1-2-2V6a2 2 0 0 1 2-2h6l2 2h7c1.1 0 2 .9 2 2H4v10l2.14-8h17.07l-2.28 8.5A2 2 0 0 1 19 20z"/>
    <g clip-path="url(#clip1)">
      <path fill="#4FC08D" d="M11.17 21.07l5.21-9.62 1.31 2.35v2.46l-2.59 4.81h-3.93z"/>
      <path fill="#4FC08D" d="M24.2 21.08L19 11.46l-1.32 2.34v2.47l2.6 4.81h3.93z"/>
      <path fill="#35495E" d="M11.17 9.03l3.26 6.02 1.95-3.6-1.3-2.42h-3.91zM24.21 9.03l-3.26 6.02-1.96-3.6 1.31-2.42h3.91z"/>
    </g>
  </g>
  <defs>
    <clipPath id="clip0">
      <path fill="#fff" d="M0 0h24v24H0z"/>
    </clipPath>
    <clipPath id="clip1">
      <path fill="#fff" d="M0 0h13.21v12.08H0z" transform="translate(11 9)"/>
    </clipPath>
  </defs>
</svg>
