<svg xmlns="http://www.w3.org/2000/svg" viewBox="0 0 32 32"><path fill="#00bcd4" d="M12.656 6H4.664A2.656 2.656 0 0 0 2 8.648v16.019a2.68 2.68 0 0 0 2.664 2.666h21.313a2.68 2.68 0 0 0 2.664-2.666V11.333a2.665 2.665 0 0 0-2.664-2.666H15.321Z"/><path fill="#b2ebf2" d="M21 18.035a1.923 1.923 0 1 1-.004 0zm-4.738 10.284c.645.395 2.057-.208 3.685-1.768q-.82-.948-1.545-1.977a23 23 0 0 1-2.456-.373c-.522 2.224-.328 3.754.316 4.116m.727-5.966-.297-.532a8 8 0 0 0-.296.894c.277.062.583.116.9.168l-.307-.532m6.692-.79L24.51 20l-.83-1.559c-.305-.55-.633-1.039-.93-1.528-.554-.032-1.137-.032-1.749-.032-.614 0-1.199 0-1.75.032-.298.489-.624.978-.932 1.528L17.49 20l.83 1.56c.307.55.633 1.04.93 1.528.554.031 1.137.031 1.75.031s1.198 0 1.75-.03c.297-.49.623-.978.93-1.53M21 14.573c-.194.23-.4.467-.603.749h1.206c-.204-.282-.408-.52-.603-.75m0 10.856c.194-.228.4-.468.603-.748h-1.206c.204.282.408.519.603.748m4.728-13.746c-.635-.395-2.047.208-3.675 1.768a25 25 0 0 1 1.545 1.975 23 23 0 0 1 2.456.375c.523-2.225.328-3.753-.326-4.116m-.717 5.967.297.53a8 8 0 0 0 .296-.895 16 16 0 0 0-.9-.165zm1.483-7.33c1.505.873 1.668 3.17 1.035 5.854C30.128 16.955 32 18.245 32 20c0 1.758-1.872 3.047-4.473 3.828.635 2.682.472 4.98-1.033 5.854-1.493.873-3.53-.126-5.493-2.029-1.966 1.903-4.002 2.902-5.507 2.029-1.493-.874-1.656-3.172-1.023-5.854C11.874 23.048 10 21.758 10 20s1.874-3.045 4.473-3.825c-.635-2.683-.472-4.981 1.023-5.855 1.503-.873 3.54.125 5.504 2.029 1.964-1.904 4-2.902 5.494-2.029M26.198 20a23 23 0 0 1 .911 2.352c2.149-.656 3.355-1.592 3.355-2.352 0-.758-1.206-1.693-3.355-2.35a24 24 0 0 1-.91 2.35m-10.397 0a24 24 0 0 1-.911-2.35c-2.148.657-3.355 1.592-3.355 2.35 0 .76 1.207 1.696 3.355 2.352a24 24 0 0 1 .91-2.352m9.21 2.352-.306.53c.316-.052.624-.104.899-.168a9 9 0 0 0-.296-.894zm-2.958 4.2c1.628 1.559 3.04 2.162 3.675 1.768.655-.364.85-1.892.326-4.118a23 23 0 0 1-2.455.375 25 25 0 0 1-1.544 1.975m-5.066-8.901.306-.53a14 14 0 0 0-.899.167 9 9 0 0 0 .296.894zm2.958-4.2c-1.628-1.56-3.04-2.162-3.685-1.768-.644.364-.84 1.892-.316 4.117a23 23 0 0 1 2.455-.375 25 25 0 0 1 1.544-1.975Z"/></svg>