<svg clip-rule="evenodd" fill-rule="evenodd" stroke-linejoin="round" stroke-miterlimit="1.414" version="1.1" viewBox="0 0 24 24" xml:space="preserve" xmlns="http://www.w3.org/2000/svg"><path d="M19 20H4a2 2 0 0 1-2-2V6c0-1.11.89-2 2-2h6l2 2h7c1.097 0 2 .903 2 2H4v10l2.14-8h17.07l-2.28 8.5c-.23.87-1.01 1.5-1.93 1.5z" fill="#9575cd"/><path d="m20.243 11.194 1.6258 0.93982a0.31781 0.31782 0 0 1 0.15943 0.27481v4.5208a0.31781 0.31782 0 0 1-0.15838 0.27376l-0.98805 0.5706-0.1416-0.08076-0.49717-0.2874zm-6.0028 4.2124 5.3703 3.1016-1.6551 0.95555a0.31781 0.31782 0 0 1-0.31781 0l-3.9145-2.2604a0.31781 0.31782 0 0 1-0.15943-0.27481v-1.1318l0.03881-0.02098zm1.2702-0.73318 3.4613-1.9982v3.9963zm3.4613-3.4656-5.4081 3.1215v-1.9205c0-0.11328 0.06084-0.21817 0.15943-0.27481l3.9145-2.2604a0.31781 0.31782 0 0 1 0.31781 0l1.0174 0.58739v0.29999zm-1.9698-2.4345a1.588 1.588 0 0 1 1.5891 0l3.9145 2.2593c0.49088 0.2832 0.79401 0.80766 0.79401 1.3762v4.5208c0 0.56641-0.30313 1.0909-0.79401 1.3741l-3.9145 2.2604c-0.49193 0.28425-1.0971 0.28425-1.5891 0l-3.9145-2.2593a1.5891 1.5891 0 0 1-0.79401-1.3762v-4.5208c0-0.56641 0.30208-1.0909 0.79401-1.3741z" fill="#d1c4e9" stroke-width=".031772"/></svg>
