<svg xmlns="http://www.w3.org/2000/svg" viewBox="0 0 16 16">
<path id="folder" fill="#448aff" d="M14.483 6H4.721a1 1 0 0 0-.949.684L2 12V5h12a1 1 0 0 0-1-1H7.562a1 1 0 0 1-.64-.232l-.644-.536A1 1 0 0 0 5.638 3H2a1 1 0 0 0-1 1v8a1 1 0 0 0 1 1h11l2.403-5.606A1 1 0 0 0 14.483 6" />
<path id="motive" fill="#bbdefb" d="m 12.187942,10.187944 a 0.47551307,0.47549032 0 0 0 -0.0221,0.672315 l 0.0221,0.02209 a 0.49208322,0.49205968 0 0 0 0.693937,0 2.4453523,2.4452353 0 0 0 0,-3.4559672 l -1.730325,-1.730744 a 2.4438459,2.443729 0 0 0 -3.4561308,3.455464 l 0.72758,0.729052 a 3.3642424,3.3640815 0 0 1 0.195829,-1.182952 l -0.229471,-0.234984 a 1.457671,1.4576013 0 0 1 -0.01104,-2.061128 l 0.01104,-0.01155 a 1.457671,1.4576013 0 0 1 2.0617278,-0.01004 l 0.01055,0.01004 1.726308,1.725724 a 1.457671,1.4576013 0 0 1 0.01104,2.0616292 z M 10.809105,8.1152688 a 0.49208322,0.49205968 0 0 0 -0.69444,0 2.4453523,2.4452353 0 0 0 0,3.4559652 l 1.731329,1.730745 a 2.4438459,2.443729 0 0 0 3.460651,-3.4509452 l -0.005,-0.005 -0.728083,-0.72855 a 3.414455,3.4142916 0 0 1 -0.195828,1.1879732 l 0.229973,0.228958 a 1.457671,1.4576013 0 0 1 0.01205,2.061128 l -0.01205,0.01255 a 1.457671,1.4576013 0 0 1 -2.061728,0.01104 l -0.01104,-0.01104 -1.725805,-1.725723 a 1.457671,1.4576013 0 0 1 -0.01155,-2.0616302 l 0.01155,-0.01104 a 0.47551307,0.47549032 0 0 0 0.02159,-0.672816 q -0.01005,-0.01104 -0.02159,-0.02159" />
</svg>
