<svg xmlns="http://www.w3.org/2000/svg" viewBox="0 0 16 16">
<path id="folder" fill="#ec407a" d="m6.922 3.768-.644-.536A1 1 0 0 0 5.638 3H2a1 1 0 0 0-1 1v8a1 1 0 0 0 1 1h12a1 1 0 0 0 1-1V5a1 1 0 0 0-1-1H7.562a1 1 0 0 1-.64-.232" />
<path id="motive" fill="#f8bbd0" d="M 12,5 C 10.295,5 8.845,5.535 8.27,6.285 L 10.895,8.91 C 11.25,8.965 11.61,9 12,9 14.21,9 16,8.105 16,7 16,5.895 14.21,5 12,5 M 8,7 V 9 H 6 v 1 h 2 v 2 L 10.42,9.5 M 16,8 c 0,1.105 -1.79,2 -4,2 -0.33,0 -0.65,-0.025 -0.955,-0.065 L 9.81,11.17 c 0.63,0.205 1.38,0.33 2.19,0.33 2.21,0 4,-0.895 4,-2 m 0,1 c 0,1.105 -1.79,2 -4,2 -1.14,0 -2.165,-0.25 -2.895,-0.625 l -0.84,0.84 C 8.84,13.465 10.295,14 12,14 c 2.21,0 4,-0.895 4,-2" />
</svg>
