<?xml version="1.0" encoding="UTF-8"?>
<svg xmlns="http://www.w3.org/2000/svg" xmlns:xlink="http://www.w3.org/1999/xlink" width="768pt" height="767.999994pt" viewBox="0 0 768 767.999994" version="1.2">
<defs>
<clipPath id="clip1">
  <path d="M 263.273438 305 L 768 305 L 768 726 L 263.273438 726 Z M 263.273438 305 "/>
</clipPath>
</defs>
<g id="surface1">
<path style=" stroke:none;fill-rule:nonzero;fill:rgb(1.179504%,60.778809%,89.7995%);fill-opacity:1;" d="M 314.4375 106.3125 L 106.3125 106.3125 C 67.808594 106.3125 36.9375 137.183594 36.9375 175.6875 L 36.9375 591.9375 C 36.9375 593.074219 36.964844 594.207031 37.023438 595.34375 C 37.078125 596.476562 37.160156 597.609375 37.273438 598.738281 C 37.382812 599.867188 37.523438 600.996094 37.691406 602.117188 C 37.855469 603.242188 38.050781 604.359375 38.273438 605.472656 C 38.492188 606.585938 38.742188 607.695312 39.019531 608.796875 C 39.292969 609.898438 39.597656 610.992188 39.925781 612.078125 C 40.253906 613.164062 40.613281 614.242188 40.992188 615.308594 C 41.375 616.378906 41.785156 617.4375 42.21875 618.488281 C 42.652344 619.535156 43.113281 620.574219 43.597656 621.601562 C 44.085938 622.625 44.59375 623.640625 45.128906 624.640625 C 45.664062 625.644531 46.226562 626.628906 46.808594 627.605469 C 47.390625 628.578125 48 629.539062 48.628906 630.480469 C 49.261719 631.425781 49.914062 632.351562 50.589844 633.265625 C 51.265625 634.175781 51.964844 635.070312 52.6875 635.949219 C 53.40625 636.828125 54.148438 637.6875 54.910156 638.527344 C 55.671875 639.371094 56.457031 640.191406 57.257812 640.992188 C 58.0625 641.796875 58.882812 642.578125 59.722656 643.34375 C 60.566406 644.105469 61.425781 644.847656 62.300781 645.566406 C 63.179688 646.285156 64.074219 646.984375 64.988281 647.660156 C 65.898438 648.335938 66.828125 648.992188 67.769531 649.621094 C 68.714844 650.253906 69.675781 650.859375 70.648438 651.445312 C 71.621094 652.027344 72.609375 652.585938 73.609375 653.121094 C 74.613281 653.65625 75.625 654.167969 76.652344 654.652344 C 77.679688 655.136719 78.714844 655.597656 79.765625 656.03125 C 80.8125 656.46875 81.871094 656.875 82.941406 657.257812 C 84.011719 657.640625 85.089844 657.996094 86.175781 658.328125 C 87.261719 658.65625 88.355469 658.957031 89.457031 659.234375 C 90.558594 659.511719 91.664062 659.757812 92.777344 659.980469 C 93.894531 660.203125 95.011719 660.394531 96.132812 660.5625 C 97.257812 660.730469 98.382812 660.867188 99.515625 660.980469 C 100.644531 661.089844 101.777344 661.175781 102.910156 661.230469 C 104.042969 661.285156 105.179688 661.3125 106.3125 661.3125 L 661.3125 661.3125 C 662.449219 661.3125 663.582031 661.285156 664.71875 661.230469 C 665.851562 661.175781 666.984375 661.089844 668.113281 660.980469 C 669.242188 660.867188 670.371094 660.730469 671.492188 660.5625 C 672.617188 660.394531 673.734375 660.203125 674.847656 659.980469 C 675.960938 659.757812 677.070312 659.511719 678.171875 659.234375 C 679.273438 658.957031 680.367188 658.65625 681.453125 658.328125 C 682.539062 657.996094 683.617188 657.640625 684.683594 657.257812 C 685.753906 656.875 686.8125 656.46875 687.863281 656.03125 C 688.910156 655.597656 689.949219 655.136719 690.976562 654.652344 C 692 654.167969 693.015625 653.65625 694.015625 653.121094 C 695.019531 652.585938 696.003906 652.027344 696.980469 651.445312 C 697.953125 650.859375 698.914062 650.253906 699.855469 649.621094 C 700.800781 648.992188 701.726562 648.335938 702.640625 647.660156 C 703.550781 646.984375 704.445312 646.285156 705.324219 645.566406 C 706.203125 644.847656 707.0625 644.105469 707.902344 643.34375 C 708.746094 642.578125 709.566406 641.796875 710.367188 640.992188 C 711.171875 640.191406 711.953125 639.371094 712.71875 638.527344 C 713.480469 637.6875 714.222656 636.828125 714.941406 635.949219 C 715.660156 635.070312 716.359375 634.175781 717.035156 633.265625 C 717.710938 632.351562 718.367188 631.425781 718.996094 630.480469 C 719.628906 629.539062 720.234375 628.578125 720.820312 627.605469 C 721.402344 626.628906 721.960938 625.644531 722.496094 624.640625 C 723.03125 623.640625 723.542969 622.625 724.027344 621.601562 C 724.511719 620.574219 724.972656 619.535156 725.40625 618.488281 C 725.84375 617.4375 726.25 616.378906 726.632812 615.308594 C 727.015625 614.242188 727.371094 613.164062 727.703125 612.078125 C 728.03125 610.992188 728.332031 609.898438 728.609375 608.796875 C 728.886719 607.695312 729.132812 606.585938 729.355469 605.472656 C 729.578125 604.359375 729.769531 603.242188 729.9375 602.117188 C 730.105469 600.996094 730.242188 599.867188 730.355469 598.738281 C 730.464844 597.609375 730.550781 596.476562 730.605469 595.34375 C 730.660156 594.207031 730.6875 593.074219 730.6875 591.9375 L 730.6875 245.0625 C 730.6875 206.558594 699.46875 175.6875 661.3125 175.6875 L 383.8125 175.6875 Z M 314.4375 106.3125 "/>
<g clip-path="url(#clip1)" clip-rule="nonzero">
<path style=" stroke:none;fill-rule:nonzero;fill:rgb(70.199585%,89.7995%,98.81897%);fill-opacity:1;" d="M 410.492188 578.742188 L 505.132812 452.554688 L 578.742188 547.195312 L 631.320312 484.101562 L 704.929688 578.742188 M 725.960938 347.398438 L 557.710938 347.398438 L 515.648438 305.335938 L 389.460938 305.335938 C 388.082031 305.335938 386.707031 305.402344 385.335938 305.539062 C 383.964844 305.671875 382.605469 305.875 381.253906 306.144531 C 379.902344 306.414062 378.570312 306.746094 377.25 307.144531 C 375.933594 307.546875 374.636719 308.011719 373.363281 308.535156 C 372.089844 309.0625 370.847656 309.652344 369.632812 310.300781 C 368.417969 310.953125 367.238281 311.660156 366.089844 312.425781 C 364.945312 313.1875 363.839844 314.007812 362.777344 314.882812 C 361.710938 315.757812 360.691406 316.679688 359.71875 317.65625 C 358.742188 318.628906 357.820312 319.648438 356.945312 320.714844 C 356.070312 321.777344 355.25 322.882812 354.488281 324.027344 C 353.722656 325.175781 353.015625 326.355469 352.363281 327.570312 C 351.714844 328.785156 351.125 330.027344 350.597656 331.300781 C 350.074219 332.574219 349.609375 333.871094 349.207031 335.1875 C 348.808594 336.507812 348.476562 337.839844 348.207031 339.191406 C 347.9375 340.542969 347.734375 341.902344 347.601562 343.273438 C 347.464844 344.644531 347.398438 346.019531 347.398438 347.398438 L 347.398438 599.773438 C 347.398438 601.148438 347.464844 602.523438 347.601562 603.894531 C 347.734375 605.265625 347.9375 606.628906 348.207031 607.980469 C 348.476562 609.328125 348.808594 610.664062 349.207031 611.984375 C 349.609375 613.300781 350.074219 614.597656 350.597656 615.871094 C 351.125 617.140625 351.714844 618.386719 352.363281 619.601562 C 353.015625 620.816406 353.722656 621.996094 354.488281 623.140625 C 355.25 624.285156 356.070312 625.390625 356.945312 626.457031 C 357.820312 627.523438 358.742188 628.542969 359.71875 629.515625 C 360.691406 630.488281 361.710938 631.414062 362.777344 632.289062 C 363.839844 633.160156 364.945312 633.980469 366.089844 634.746094 C 367.238281 635.511719 368.417969 636.21875 369.632812 636.867188 C 370.847656 637.519531 372.089844 638.105469 373.363281 638.632812 C 374.636719 639.160156 375.933594 639.625 377.25 640.023438 C 378.570312 640.425781 379.902344 640.757812 381.253906 641.027344 C 382.605469 641.296875 383.964844 641.496094 385.335938 641.632812 C 386.707031 641.769531 388.082031 641.835938 389.460938 641.835938 L 725.960938 641.835938 C 727.335938 641.835938 728.710938 641.769531 730.082031 641.632812 C 731.453125 641.496094 732.816406 641.296875 734.167969 641.027344 C 735.515625 640.757812 736.851562 640.425781 738.171875 640.023438 C 739.488281 639.625 740.785156 639.160156 742.058594 638.632812 C 743.328125 638.105469 744.574219 637.519531 745.789062 636.867188 C 747.003906 636.21875 748.183594 635.511719 749.328125 634.746094 C 750.472656 633.980469 751.578125 633.160156 752.644531 632.289062 C 753.710938 631.414062 754.730469 630.488281 755.703125 629.515625 C 756.675781 628.542969 757.601562 627.523438 758.476562 626.457031 C 759.347656 625.390625 760.167969 624.285156 760.933594 623.140625 C 761.699219 621.996094 762.40625 620.816406 763.054688 619.601562 C 763.707031 618.386719 764.292969 617.140625 764.820312 615.871094 C 765.347656 614.597656 765.8125 613.300781 766.210938 611.984375 C 766.613281 610.664062 766.945312 609.328125 767.214844 607.980469 C 767.484375 606.628906 767.683594 605.265625 767.820312 603.894531 C 767.957031 602.523438 768.023438 601.148438 768.023438 599.773438 L 768.023438 389.460938 C 768.023438 388.082031 767.957031 386.707031 767.820312 385.335938 C 767.683594 383.964844 767.484375 382.605469 767.214844 381.253906 C 766.945312 379.902344 766.613281 378.570312 766.210938 377.25 C 765.8125 375.933594 765.347656 374.636719 764.820312 373.363281 C 764.292969 372.089844 763.707031 370.847656 763.054688 369.632812 C 762.40625 368.417969 761.699219 367.238281 760.933594 366.089844 C 760.167969 364.945312 759.347656 363.839844 758.476562 362.777344 C 757.601562 361.710938 756.675781 360.691406 755.703125 359.71875 C 754.730469 358.742188 753.710938 357.820312 752.644531 356.945312 C 751.578125 356.070312 750.472656 355.25 749.328125 354.488281 C 748.183594 353.722656 747.003906 353.015625 745.789062 352.363281 C 744.574219 351.714844 743.328125 351.125 742.058594 350.597656 C 740.785156 350.074219 739.488281 349.609375 738.171875 349.207031 C 736.851562 348.808594 735.515625 348.476562 734.167969 348.207031 C 732.816406 347.9375 731.453125 347.734375 730.082031 347.601562 C 728.710938 347.464844 727.335938 347.398438 725.960938 347.398438 M 305.335938 389.460938 L 263.273438 389.460938 L 263.273438 683.898438 C 263.273438 685.273438 263.339844 686.648438 263.476562 688.019531 C 263.609375 689.390625 263.8125 690.753906 264.082031 692.105469 C 264.351562 693.453125 264.683594 694.789062 265.082031 696.109375 C 265.484375 697.425781 265.949219 698.722656 266.472656 699.996094 C 267 701.265625 267.589844 702.511719 268.238281 703.726562 C 268.890625 704.941406 269.597656 706.121094 270.363281 707.265625 C 271.125 708.410156 271.945312 709.515625 272.820312 710.582031 C 273.695312 711.648438 274.617188 712.667969 275.59375 713.640625 C 276.566406 714.613281 277.585938 715.539062 278.652344 716.414062 C 279.714844 717.285156 280.820312 718.105469 281.964844 718.871094 C 283.113281 719.636719 284.292969 720.34375 285.507812 720.992188 C 286.722656 721.644531 287.964844 722.230469 289.238281 722.757812 C 290.511719 723.285156 291.808594 723.75 293.125 724.148438 C 294.445312 724.550781 295.777344 724.882812 297.128906 725.152344 C 298.480469 725.421875 299.839844 725.621094 301.210938 725.757812 C 302.582031 725.894531 303.957031 725.960938 305.335938 725.960938 L 683.898438 725.960938 L 683.898438 683.898438 L 305.335938 683.898438 Z M 305.335938 389.460938 "/>
</g>
</g>
</svg>
