<svg xmlns="http://www.w3.org/2000/svg" clip-rule="evenodd" fill-rule="evenodd" stroke-linejoin="round" stroke-miterlimit="1.414" viewBox="0 0 24 24"><path d="M10 4H4c-1.11 0-2 .89-2 2v12c0 1.097.903 2 2 2h16c1.097 0 2-.903 2-2V8a2 2 0 0 0-2-2h-8l-2-2z" fill="#01579B" fill-rule="nonzero"/><path d="M20.83 16.042v-2.195a.629.629 0 0 0-.627-.627h-7.525a.629.629 0 0 0-.627.627v6.272c0 .345.282.627.627.627h7.525a.629.629 0 0 0 .628-.627v-2.195l2.508 2.508v-6.898zm-1.88 1.568h-1.882v1.882h-1.254V17.61h-1.882v-1.254h1.882v-1.881h1.254v1.88h1.881z" fill="#B3E5FC"/></svg>