<svg clip-rule="evenodd" fill-rule="evenodd" stroke-linejoin="round" stroke-miterlimit="1.414" viewBox="0 0 24 24" xmlns="http://www.w3.org/2000/svg"><defs><clipPath id="a"><path d="M239.03 226.6l-42.13 24.317a5.085 5.085 0 0 0-2.546 4.406v48.668c0 1.817.968 3.496 2.546 4.406l42.133 24.336a5.1 5.1 0 0 0 5.09 0l42.126-24.336a5.096 5.096 0 0 0 2.54-4.406v-48.668c0-1.816-.97-3.496-2.55-4.406l-42.12-24.317a5.123 5.123 0 0 0-5.1 0"/></clipPath></defs><path d="M10 4H4c-1.11 0-2 .89-2 2v12c0 1.097.903 2 2 2h16c1.097 0 2-.903 2-2V8a2 2 0 0 0-2-2h-8l-2-2z" fill-rule="nonzero" fill="#8bc34a"/><g transform="matrix(.1303 0 0 .1303 -14.228 -21.037)" clip-path="url(#a)" fill="#dcedc8"><path d="M331.36 246.79L212.64 188.6l-60.87 124.17 118.71 58.193z"/></g><path fill="#558B2F" d="M17.08 8.295c-.189 0-.385.049-.546.14l-5.208 3.01c-.336.196-.546.56-.546.952v6.006c0 .392.21.756.546.952l1.365.784c.665.322.889.329 1.197.329.98 0 1.547-.595 1.547-1.631v-5.929a.155.155 0 0 0-.154-.154h-.651a.157.157 0 0 0-.161.154v5.929c0 .462-.476.917-1.239.532l-1.435-.819a.183.183 0 0 1-.077-.147v-6.006c0-.063.028-.119.077-.147l5.208-3.003a.152.152 0 0 1 .154 0l5.208 3.003a.165.165 0 0 1 .077.147v6.006a.183.183 0 0 1-.077.147l-5.208 3.003c-.042.028-.112.028-.161 0l-1.316-.798c-.056-.021-.112-.028-.147-.007-.371.21-.441.252-.784.357-.084.028-.217.077.049.224l1.736 1.029c.168.098.35.147.546.147s.378-.049.546-.147l5.208-3.003c.336-.196.546-.56.546-.952v-6.006c0-.392-.21-.756-.546-.952l-5.208-3.01a1.112 1.112 0 0 0-.546-.14m1.4 4.305c-1.484 0-2.373.623-2.373 1.673 0 1.127.882 1.456 2.31 1.596 1.701.168 1.834.42 1.834.756 0 .581-.469.826-1.561.826-1.386 0-1.68-.343-1.785-1.029a.158.158 0 0 0-.154-.126h-.672c-.084 0-.147.063-.147.154 0 .868.476 1.918 2.758 1.918 1.645 0 2.59-.651 2.59-1.785 0-1.127-.756-1.421-2.359-1.638-1.617-.21-1.778-.322-1.778-.7 0-.315.14-.735 1.337-.735 1.05 0 1.463.231 1.624.952a.15.15 0 0 0 .147.119h.679a.135.135 0 0 0 .105-.049c.028-.028.049-.07.035-.112-.098-1.246-.924-1.82-2.59-1.82z"/></svg>