<?xml version="1.0" encoding="UTF-8"?>
<svg version="1.1" viewBox="0 0 24 24" xmlns="http://www.w3.org/2000/svg">
 <path d="M19 20H4a2 2 0 0 1-2-2V6c0-1.11.89-2 2-2h6l2 2h7c1.097 0 2 .903 2 2H4v10l2.14-8h17.07l-2.28 8.5c-.23.87-1.01 1.5-1.93 1.5Z" fill="#00897b"/>
 <path d="m19.258 9.605v0.64258h1.2383l-0.20312 0.40625h-2.0273v0.64062h1.7012l-0.24219 0.48242h-2.4277v0.64062h3.4375l1.5938 0.0078 1.3906-2.8105h-0.54688v-0.00977zm-8.416 0.029297 5.5547 11.107h1.8145l3.4707-6.9414h-3.1035l-1.2734 2.5488-3.3594-6.7148z" fill="#b2dfdb" stroke-width="1.0696"/>
</svg>
