<svg clip-rule="evenodd" fill-rule="evenodd" stroke-linejoin="round" stroke-miterlimit="1.4142" version="1.1" viewBox="0 0 24 24" xml:space="preserve" xmlns="http://www.w3.org/2000/svg"><g transform="translate(2, 4)"><path d="M17,16 L2,16 C0.89,16 0,15.1 0,14 L0,2 C0,0.89 0.89,0 2,0 L8,0 L10,2 L17,2 C18.097,2 19,2.903 19,4 L2,4 L2,14 L4.14,6 L21.21,6 L18.93,14.5 C18.7,15.37 17.92,16 17,16 Z" fill="#FF80AB" fill-rule="nonzero"/><path d="M21.2761597,4.1435989 L20.3423597,4.2124489 L20.3423597,6.0396989 L19.5117097,5.6837439 L18.6810597,6.0396989 L18.6810597,4.3348989 L12.2440597,4.8095089 L12.7971097,16.5105089 L21.2766097,16.9163689 L21.2761597,4.1435989 Z M16.9155097,6.5496489 L16.9155097,6.5497489 C18.4986597,6.5497489 19.4081597,7.4141989 19.3632597,9.1657489 L17.5556597,9.2107684 C17.5893432,8.2676184 17.1849897,8.1777684 16.9604597,8.1777684 C16.7471297,8.1777684 16.3879097,8.2451734 16.3879097,8.7504184 C16.3879097,9.9967184 19.4643597,9.9293184 19.4643597,12.4443684 C19.4643597,13.8590684 18.3639597,14.5101684 16.9604597,14.5101684 C15.5120597,14.5101684 14.2433097,14.0161334 14.3892597,11.8491184 L16.2868097,11.8491184 C16.2643537,12.7249184 16.4552997,13.0394684 16.9380597,13.0394684 C17.3085797,13.0394684 17.4769097,12.8260984 17.4769097,12.4668184 C17.4769097,11.1868184 14.4454597,11.1417684 14.4454597,8.7951184 C14.4454597,7.4477684 15.3323597,6.5496184 16.9154597,6.5496184 L16.9155097,6.5496489 Z" fill="#EC407A"/><polygon fill="#BA68C8" points="11.5131597 4.8095389 10.5234097 4.8095389 10.9381547 16.5105389 12.0661547 16.5105389"/></g></svg>