<?xml version="1.0" encoding="UTF-8" standalone="no"?>
<svg
   viewBox="0 0 32 32"
   version="1.1"
   id="svg3"
   sodipodi:docname="folder-blender-fixed.svg"
   inkscape:version="1.4.2 (f4327f4, 2025-05-13)"
   xmlns:inkscape="http://www.inkscape.org/namespaces/inkscape"
   xmlns:sodipodi="http://sodipodi.sourceforge.net/DTD/sodipodi-0.dtd"
   xmlns="http://www.w3.org/2000/svg"
   xmlns:svg="http://www.w3.org/2000/svg">
  <defs
     id="defs3" />
  <sodipodi:namedview
     id="namedview3"
     pagecolor="#ffffff"
     bordercolor="#000000"
     borderopacity="0.25"
     inkscape:showpageshadow="2"
     inkscape:pageopacity="0.0"
     inkscape:pagecheckerboard="0"
     inkscape:deskcolor="#d1d1d1"
     inkscape:zoom="57.25"
     inkscape:cx="16"
     inkscape:cy="16"
     inkscape:window-width="3840"
     inkscape:window-height="2071"
     inkscape:window-x="-9"
     inkscape:window-y="-9"
     inkscape:window-maximized="1"
     inkscape:current-layer="svg3" />
  <path
     fill="#ff9800"
     d="m13.844 7.536-1.288-1.072A2 2 0 0 0 11.276 6H4a2 2 0 0 0-2 2v16a2 2 0 0 0 2 2h24a2 2 0 0 0 2-2V10a2 2 0 0 0-2-2H15.124a2 2 0 0 1-1.28-.464"
     id="path1" />
  <path
     style="font-variation-settings:normal;vector-effect:none;fill:#ffe0b2;fill-opacity:1;stroke:#ffe0b2;stroke-width:0.222992;stroke-linecap:square;stroke-linejoin:round;stroke-miterlimit:3;stroke-dasharray:none;stroke-dashoffset:0;stroke-opacity:1;-inkscape-stroke:none;paint-order:stroke fill markers;stop-color:#000000"
     d="m 22.120625,27.87009 c -0.448736,-0.04358 -0.622772,-0.06555 -0.874583,-0.110397 -1.865083,-0.332179 -3.485749,-1.308673 -4.579678,-2.759376 -0.51646,-0.684899 -0.92619,-1.552563 -1.080674,-2.288488 -0.11524,-0.548978 -0.13348,-0.80628 -0.08926,-1.259132 0.01368,-0.140117 0.01969,-0.259947 0.01334,-0.266289 -0.0096,-0.0096 -1.585751,1.273552 -3.683692,2.998838 -0.538948,0.443216 -0.534903,0.440272 -0.761081,0.553767 -0.540606,0.271272 -1.0879654,0.262989 -1.5161554,-0.02294 -0.271145,-0.18107 -0.421778,-0.46341 -0.439899,-0.824536 -0.02223,-0.442986 0.156297,-0.856555 0.524506,-1.215065 0.106435,-0.103632 5.7015004,-4.412892 7.2592314,-5.590984 0.228318,-0.172674 0.415712,-0.321908 0.416431,-0.331632 7.2e-4,-0.0097 -0.985313,-0.01641 -2.191183,-0.01486 -1.976448,0.0025 -2.206654,-8.54e-4 -2.336226,-0.03443 -0.305228,-0.07909 -0.515857,-0.237804 -0.633861,-0.477621 -0.06656,-0.135262 -0.07354,-0.168318 -0.07196,-0.340804 0.0013,-0.142965 0.01427,-0.221533 0.05155,-0.312342 0.150976,-0.367804 0.493773,-0.659021 0.955843,-0.812019 l 0.156976,-0.05198 4.275741,-0.0119 c 2.351658,-0.0065 4.281184,-0.01735 4.287836,-0.024 0.01016,-0.01017 -0.59445,-0.508146 -2.349613,-1.935217 -0.354184,-0.287977 -0.466418,-0.399195 -0.543897,-0.538977 -0.05417,-0.09773 -0.06376,-0.140331 -0.06376,-0.283221 -5e-6,-0.21213 0.07476,-0.377323 0.247865,-0.547688 0.370607,-0.364733 1.054577,-0.463733 1.544952,-0.223619 0.133594,0.06541 6.605613,5.026371 7.030631,5.389146 1.142586,0.975257 1.910125,2.359825 2.145401,3.8701 0.06471,0.415395 0.05925,1.414717 -0.0099,1.816441 -0.239605,1.391446 -0.879964,2.589714 -1.92397,3.60022 -1.153916,1.116889 -2.651393,1.806436 -4.381728,2.017663 -0.195025,0.02381 -1.217494,0.04705 -1.37915,0.03135 z m 0.953071,-3.127671 c 0.559685,-0.0511 1.130043,-0.20569 1.61136,-0.436734 0.499936,-0.239981 0.831639,-0.477023 1.236752,-0.883809 0.586398,-0.588819 0.930395,-1.236151 1.091072,-2.053175 0.06095,-0.309933 0.0554,-0.971814 -0.01096,-1.306389 -0.0723,-0.364505 -0.162532,-0.62475 -0.340138,-0.980981 -0.182557,-0.366161 -0.367545,-0.632189 -0.650201,-0.935042 -1.403772,-1.504075 -3.839666,-1.848257 -5.691722,-0.804216 -1.357141,0.765047 -2.147412,2.123116 -2.08214,3.578124 0.103228,2.301073 2.318643,4.052074 4.83598,3.822222 z"
     id="path4" />
  <path
     style="fill:#ffe0b2;fill-opacity:1;stroke:#ffe0b2;stroke-width:0.22174;stroke-linecap:square;stroke-linejoin:round;stroke-miterlimit:3;stroke-opacity:1;paint-order:stroke fill markers"
     d="m 22.445988,23.094254 c -0.995013,-0.09574 -1.858867,-0.671525 -2.265765,-1.510204 -0.06024,-0.124158 -0.129911,-0.300359 -0.154831,-0.391559 -0.220857,-0.808263 0.0021,-1.650854 0.602267,-2.276105 0.405948,-0.422911 0.90272,-0.6947 1.50515,-0.823484 0.186606,-0.03989 0.310056,-0.05039 0.604509,-0.05143 0.395947,-0.0014 0.571988,0.02442 0.927837,0.136058 0.888549,0.278756 1.572783,0.970979 1.803003,1.824055 0.04973,0.184259 0.05764,0.259997 0.05854,0.56063 8.8e-4,0.292383 -0.0071,0.378933 -0.05038,0.544921 -0.128195,0.491864 -0.341343,0.850065 -0.723497,1.21586 -0.468995,0.448917 -1.054454,0.706213 -1.757609,0.772426 -0.269765,0.0254 -0.273158,0.02539 -0.54922,-0.0012 z"
     id="path5" />
</svg>
