<svg id="uuid-964b113c-1b00-47df-9d42-6c76b3caa7de" xmlns="http://www.w3.org/2000/svg" viewBox="0 0 24 24"><path d="m19,20H4c-1.1,0-2-.9-2-2V6c0-1.11.89-2,2-2h6l2,2h7c1.1,0,2,.9,2,2H4v10l2.14-8h17.07l-2.28,8.5c-.23.87-1.01,1.5-1.93,1.5Z" style="fill:#03a9f4;"/><path d="m23.89,12.57c0,1.03,0,2.05,0,3.08,0,.26,0,.52,0,.79-.01.58-.08,1.16-.3,1.7-.17.42-.41.8-.69,1.15-.23.28-.47.54-.74.78-.29.26-.62.47-.96.66-.32.18-.65.36-1,.49-.28.1-.55.19-.84.26-.08.02-.12.03-.12-.09,0-.78,0-1.56,0-2.35,0-.1,0-.2,0-.3,0-.1.03-.15.12-.19.24-.09.48-.19.7-.32.69-.39,1.19-.93,1.4-1.71.09-.34.12-.68.14-1.03.04-.67.02-1.35.03-2.02,0-.11,0-.13-.12-.08-.39.18-.76.38-1.14.57-.32.16-.64.33-.96.5-.13.07-.17.04-.17-.1,0-.52,0-1.04,0-1.56,0-.5.19-.93.56-1.28.32-.3.7-.53,1.08-.75.33-.19.67-.35,1.01-.52.4-.21.8-.42,1.21-.62.23-.11.45-.24.67-.36.12-.06.14-.05.14.09,0,1.07,0,2.14,0,3.2,0,0,0,0,0,0Z" style="fill:#b3e5fc;"/><path d="m18.38,14.58c-.31-.16-.59-.3-.88-.45-.47-.24-.94-.47-1.39-.73-.06-.03-.09-.04-.09.05,0,.74-.02,1.48,0,2.22.02.5.12.98.36,1.43.24.44.57.78.99,1.05.27.18.57.29.87.41.11.04.15.09.15.21,0,.86,0,1.73,0,2.59,0,.14-.03.17-.16.13-.38-.13-.77-.23-1.14-.39-.49-.22-.95-.48-1.37-.81-.37-.29-.7-.61-1-.98-.32-.4-.59-.83-.77-1.31-.11-.28-.17-.58-.21-.88-.02-.17-.02-.34-.02-.5,0-2.4,0-4.81,0-7.21,0-.16,0-.16.15-.09.56.29,1.13.57,1.68.87.59.31,1.2.59,1.76.97.32.21.61.45.82.78.12.18.17.39.21.61.07.46.07.92.05,1.38-.01.22-.02.43-.02.67Z" style="fill:#b3e5fc;"/></svg>