<svg xmlns="http://www.w3.org/2000/svg" viewBox="0 0 32 32"><path fill="#fbc02d" d="M28.967 12H9.442a2 2 0 0 0-1.898 1.368L4 24V10h24a2 2 0 0 0-2-2H15.124a2 2 0 0 1-1.28-.464l-1.288-1.072A2 2 0 0 0 11.276 6H4a2 2 0 0 0-2 2v16a2 2 0 0 0 2 2h22l4.805-11.212A2 2 0 0 0 28.967 12"/><path fill="#fffde7" d="M14 15v4a1 1 0 0 0 1 1h16a1 1 0 0 0 1-1v-4a1 1 0 0 0-1-1H15a1 1 0 0 0-1 1m6 3h-4v-2h4Zm4 0h-2v-2h2Zm-10 5v4a1 1 0 0 0 1 1h16a1 1 0 0 0 1-1v-4a1 1 0 0 0-1-1H15a1 1 0 0 0-1 1m6 3h-4v-2h4Zm4 0h-2v-2h2Z"/></svg>