<svg xmlns="http://www.w3.org/2000/svg" viewBox="0 0 16 16">
<path id="folder" fill="#0288d1" d="M14.483 6H4.721a1 1 0 0 0-.949.684L2 12V5h12a1 1 0 0 0-1-1H7.562a1 1 0 0 1-.64-.232l-.644-.536A1 1 0 0 0 5.638 3H2a1 1 0 0 0-1 1v8a1 1 0 0 0 1 1h11l2.403-5.606A1 1 0 0 0 14.483 6" />
<path id="motive" fill="#90caf9" d="m 10.986012,10.83416 0.348499,0.347984 a 0.50199878,0.50197746 0 0 0 0.706999,0 l 2.812993,-2.8113731 a 0.50149878,0.50147746 0 0 0 0,-0.706469 l -0.3485,-0.353484 a 0.50199878,0.50197746 0 0 0 -0.706998,0 l -0.353499,0.353484 -0.701998,-0.701968 a 0.50149878,0.50147746 0 0 0 0,-0.706469 0.4949988,0.49497776 0 0 0 -0.701998,0 L 11.334511,5.5443975 11.68801,5.2009129 a 0.4949988,0.49497776 0 0 0 0,-0.7014685 L 11.334511,4.1459603 a 0.4949988,0.49497776 0 0 0 -0.701998,0 L 7.8145196,6.9623339 a 0.4949988,0.49497776 0 0 0 0,0.701968 l 0.353499,0.352985 a 0.4949988,0.49497776 0 0 0 0.701998,0 l 0.358499,-0.352985 0.696999,0.706469 -4.779988,4.7772851 a 0.50149878,0.50147746 0 0 0 0,0.706468 0.4949988,0.49497776 0 0 0 0.701998,0 l 4.7849884,-4.7822851 0.701998,0.701969 -0.348499,0.3529841 a 0.49249881,0.49247788 0 0 0 0,0.706968 m 1.013998,2.165903 h 2.999992 A 0.99999756,0.99995508 0 0 1 16,14.000018 v 0.999955 h -4.999988 v -0.999955 a 0.99999756,0.99995508 0 0 1 0.999998,-0.999955" />
</svg>
