<svg xmlns="http://www.w3.org/2000/svg" viewBox="0 0 16 16">
<path id="folder" fill="#5c6bc0" d="M14.483 6H4.721a1 1 0 0 0-.949.684L2 12V5h12a1 1 0 0 0-1-1H7.562a1 1 0 0 1-.64-.232l-.644-.536A1 1 0 0 0 5.638 3H2a1 1 0 0 0-1 1v8a1 1 0 0 0 1 1h11l2.403-5.606A1 1 0 0 0 14.483 6" />
<path id="motive" fill="#c5cae9" d="M 13.515,11.4965 16,9.92 V 6.762 l -2.485,1.58 m -2.758,-1.58 2.485,1.58 v 3.155 L 10.7575,9.9185 M 8,8.1565 10.485,9.7345 V 6.578 L 8,5 m 2.758,8.422 2.485,1.578 v -3.1565 l -2.485,-1.578" />
</svg>
