<svg xmlns="http://www.w3.org/2000/svg" viewBox="0 0 32 32">
    <path fill="#0288d1" d="M28.967 12H9.442a2 2 0 0 0-1.898 1.368L4 24V10h24a2 2 0 0 0-2-2H15.124a2 2 0 0 1-1.28-.464l-1.288-1.072A2 2 0 0 0 11.276 6H4a2 2 0 0 0-2 2v16a2 2 0 0 0 2 2h22l4.805-11.212A2 2 0 0 0 28.967 12"/>
    <!-- <path fill="#b3e5fc" d="M29 16 H9 10 V0 0"/> -->

 ->.825
 ^.072
 -0.634
 ^0.533

<path d="
M16 20
C16.825 19.928, 17.646 20.187, 18.28 20.72
L23.72 27.28
C24.354 27.813, 26.175 28.072, 27 28
C29.21 28, 31 26.21, 31 24
C31 21.79, 29.21 20, 27 20
C26.175 19.928, 24.354 20.187, 23.72 20.72
L18.28 27.28
C17.646 27.813, 16.825 28.072, 16 28
C13.79 28, 12 26.21, 12 24
C12 21.79, 13.79 20, 16 20
Z
" fill="none" stroke="#b3e5fc" stroke-width="2" />
L23 24
C23 26.21, 24.79 28, 27 28
C29.21 28, 31 26.21, 31 24
C31 21.79, 29.21 20, 27 20
C24.79 20, 23 21.79, 23 24
L20 24
C20 26.21, 18.21 28, 16 28
C13.79 28, 12 26.21, 12 24
C12 21.79, 13.79 20, 16 20
Z
" fill="none" stroke="#b3e5fc" stroke-width="0.5" />

M16 20
C17.105 20, 18.105 20.4475, 18.829 20.9475

2.28
0.72 or 1.72?

</svg>