<svg xmlns="http://www.w3.org/2000/svg" viewBox="0 0 32 32" >
  <path d="M13.84376,7.53645l-1.28749-1.0729A2,2,0,0,0,11.27591,6H4A2,2,0,0,0,2,8V24a2,2,0,0,0,2,2H28a2,2,0,0,0,2-2V10a2,2,0,0,0-2-2H15.12412A2,2,0,0,1,13.84376,7.53645Z" style="fill: rgb(97, 97, 97);"/>
  <path class="st0" d="M 31.326 24.15 L 31.326 14.936 L 23.347 10.331 L 23.347 13.863 L 26.474 15.676 C 26.597 15.757 26.597 15.927 26.474 15.97 L 22.767 18.111 C 22.666 18.175 22.54 18.175 22.437 18.111 L 18.738 15.97 C 18.659 15.934 18.622 15.839 18.659 15.757 C 18.673 15.723 18.701 15.692 18.738 15.676 L 21.864 13.863 L 21.864 10.331 L 13.843 14.936 L 13.843 24.15 L 16.888 22.381 L 16.888 18.76 C 16.902 18.65 16.998 18.578 17.106 18.591 C 17.113 18.591 17.127 18.591 17.136 18.599 L 20.836 20.74 C 20.946 20.799 21.003 20.91 21.003 21.034 L 21.003 25.301 C 20.986 25.411 20.895 25.483 20.785 25.468 C 20.778 25.468 20.764 25.468 20.755 25.461 L 17.631 23.654 L 14.586 25.425 L 22.563 30.072 L 30.547 25.468 L 27.502 23.697 L 24.375 25.513 C 24.253 25.591 24.127 25.513 24.127 25.346 L 24.127 21.068 C 24.127 20.953 24.195 20.844 24.296 20.776 L 27.997 18.634 C 28.12 18.555 28.244 18.634 28.244 18.803 L 28.244 22.424 L 31.326 24.15 Z" style="fill: rgb(236, 239, 241);"/>
</svg>