<svg clip-rule="evenodd" fill-rule="evenodd" stroke-linejoin="round" stroke-miterlimit="1.414" viewBox="0 0 24 24" xml:space="preserve" version="1.1" id="svg2" xmlns="http://www.w3.org/2000/svg"><path d="M19 20H4a2 2 0 0 1-2-2V6c0-1.11.89-2 2-2h6l2 2h7c1.097 0 2 .903 2 2H4v10l2.14-8h17.07l-2.28 8.5c-.23.87-1.01 1.5-1.93 1.5z" fill="#ab47bc" fill-rule="nonzero"/><path d="m 20.132829,12.748284 -3.355926,2.698825 3.355926,2.599957 V 12.748284 M 11.442573,19.742704 9.535,18.541637 v -6.358565 l 2.1195,-0.706505 3.037998,2.352672 L 20.83907,8.156 23.665074,9.92228 V 20.873005 L 20.132572,22.286007 14.72073,17.100278 11.442573,19.74258 M 11.6545,16.63394 12.968628,15.418752 11.6545,14.161155 Z" fill="#e1bee7" id="path1-3"/></svg>