<svg xmlns="http://www.w3.org/2000/svg" viewBox="0 0 32 32"><path fill="#1976d2" d="M28.967 12H9.442a2 2 0 0 0-1.898 1.368L4 24V10h24a2 2 0 0 0-2-2H15.124a2 2 0 0 1-1.28-.464l-1.288-1.072A2 2 0 0 0 11.276 6H4a2 2 0 0 0-2 2v16a2 2 0 0 0 2 2h22l4.805-11.212A2 2 0 0 0 28.967 12Z"/><path fill="#bbdefb" d="M20.6 25.556h-2.986L12 20l5.614-5.556h2.985l1.497-2.511L29.862 10 32 17.489 30.503 20 32 22.511 29.862 30l-7.764-1.933-1.499-2.511m.16-.278 5.866 1.532-3.384-5.699h-6.77l4.288 4.167m7.857.421L30.194 20l-1.578-5.7L25.22 20l3.397 5.7M20.76 14.721l-4.29 4.169h6.771l3.386-5.7Z"/></svg>