<?xml version="1.0" encoding="UTF-8"?><svg id="Layer_1" xmlns="http://www.w3.org/2000/svg" viewBox="0 0 32 32"><defs><style>.cls-1{fill:none;}.cls-2{fill:#90caf9;}.cls-3{fill:#0288d1;}</style></defs><path class="cls-3" d="M13.8,6.5l-1.3-1.1c-.3-.2-.8-.4-1.2-.4h-7.3c-1.1,0-2,.9-2,2v16c0,1.1.9,2,2,2h24c1.1,0,2-.9,2-2v-14c0-1.1-.9-2-2-2h-12.9c-.5,0-.9-.2-1.3-.5"/><path class="cls-2" d="M12.3,27.3l9.6-9.6-1.4-1.4-.8.7c-.4.4-1,.4-1.4,0l-.7-.7c-.4-.4-.4-1,0-1.4l5.6-5.6c.4-.4,1-.4,1.4,0l.7.7c.4.4.4,1,0,1.4l-.7.7,1.4,1.4c.4-.4,1-.4,1.4,0s.4,1,0,1.4l1.4,1.4.7-.7c.4-.4,1-.4,1.4,0l.7.7c.4.4.4,1,0,1.4l-5.6,5.6c-.4.4-1,.4-1.4,0l-.6-.6c-.4-.4-.4-1,0-1.4l.7-.7-1.4-1.4-9.6,9.6c-.4.4-1,.4-1.4,0-.4-.5-.4-1.1,0-1.5M29.9,26c1.1,0,2,.9,2,2v1h-9.9v-1c0-1.1.9-2,2-2-.1,0,5.9,0,5.9,0Z"/><rect class="cls-1" width="31.9" height="31.9"/></svg>