<?xml version="1.0" encoding="UTF-8" standalone="no"?>
<svg
   xmlns:dc="http://purl.org/dc/elements/1.1/"
   xmlns:cc="http://creativecommons.org/ns#"
   xmlns:rdf="http://www.w3.org/1999/02/22-rdf-syntax-ns#"
   xmlns:svg="http://www.w3.org/2000/svg"
   xmlns="http://www.w3.org/2000/svg"
   xmlns:sodipodi="http://sodipodi.sourceforge.net/DTD/sodipodi-0.dtd"
   xmlns:inkscape="http://www.inkscape.org/namespaces/inkscape"
   clip-rule="evenodd"
   stroke-linejoin="round"
   stroke-miterlimit="1.4142"
   version="1.1"
   viewBox="0 0 24 24"
   xml:space="preserve"
   id="svg9"
   sodipodi:docname="folder-al-open.svg"
   inkscape:version="0.92.4 (5da689c313, 2019-01-14)"><metadata
     id="metadata15"><rdf:RDF><cc:Work
         rdf:about=""><dc:format>image/svg+xml</dc:format><dc:type
           rdf:resource="http://purl.org/dc/dcmitype/StillImage" /><dc:title></dc:title></cc:Work></rdf:RDF></metadata><defs
     id="defs13" /><sodipodi:namedview
     pagecolor="#ffffff"
     bordercolor="#666666"
     borderopacity="1"
     objecttolerance="10"
     gridtolerance="10"
     guidetolerance="10"
     inkscape:pageopacity="0"
     inkscape:pageshadow="2"
     inkscape:window-width="640"
     inkscape:window-height="480"
     id="namedview11"
     showgrid="false"
     inkscape:zoom="13.906433"
     inkscape:cx="34.0909"
     inkscape:cy="-0.72084526"
     inkscape:current-layer="svg9" /><path
     d="m19 20h-15c-1.11 0-2-0.9-2-2v-12c0-1.11 0.89-2 2-2h6l2 2h7c1.097 0 2 0.903 2 2h-17v10l2.14-8h17.07l-2.28 8.5c-0.23 0.87-1.01 1.5-1.93 1.5z"
     fill="#455A64"
     id="path2" /><g
     id="g1418"
     transform="matrix(0.0788372,0,0,0.07658495,17.836238,14.815641)"><circle
       r="83.135696"
       cy="7.6414499"
       cx="-31.031355"
       id="path1977"
       style="opacity:1;fill:#00909a;fill-opacity:1;fill-rule:nonzero;stroke:#00909a;stroke-width:3.80735922;stroke-linecap:round;stroke-linejoin:round;stroke-miterlimit:4;stroke-dasharray:none;stroke-dashoffset:12.27369118;stroke-opacity:1" /><path
       style="opacity:1;fill:#a9eff4;fill-opacity:1;fill-rule:nonzero;stroke:#a9eff4;stroke-width:1.01529574;stroke-linecap:round;stroke-linejoin:round;stroke-miterlimit:4;stroke-dasharray:none;stroke-dashoffset:12.27369118;stroke-opacity:1"
       d="m -53.200872,7.6411306 c -2.27e-4,12.2441994 9.92572,22.1701394 22.169915,22.1699194 12.244189,2.2e-4 22.170139,-9.92572 22.169909,-22.1699194 -0.008,-7.56393098 -3.85731,-14.482356 -10.01424,-18.5175306 -1.28024,-0.839093 -3.13459,-2.33828 -3.7113,-4.085367 0,0 -0.48499,-2.156938 -0.60669,-3.253379 -1.23198,-11.099566 -1.22998,-33.480568 -1.22998,-33.480568 0,0 0.13002,-2.396409 0.59233,-3.477581 0.3549,-0.82953 0.86729,-1.704415 1.61514,-2.171792 4.80216,-3.001134 7.80605,-8.29663 7.81176,-14.082142 -8e-5,-9.182778 -7.44416,-16.62686 -16.626929,-16.626974 -9.182778,1.14e-4 -16.62686,7.444196 -16.626973,16.626974 0.0076,5.948523 3.175068,11.341153 8.148019,14.287862 0.991899,0.587716 1.598967,1.2672 1.897096,1.531729 0.298205,0.264567 0.64732,1.046816 0.81309,1.63132 0.267212,0.941593 0.264945,2.924182 0.264945,2.924182 0,0 0.667237,22.00732 -1.449071,32.716309 -0.236599,1.19743 -0.6,2.406463 -1.241651,3.444775 -0.919559,1.488038 -2.186041,2.897424 -3.619427,3.799786 -6.337511,3.9897066 -10.345738,11.01093562 -10.35583,18.7323966 z"
       id="path2256"
       inkscape:connector-curvature="0"
       sodipodi:nodetypes="cccssacascccszacaasc" /><path
       sodipodi:nodetypes="cccssacascccszacaasc"
       inkscape:connector-curvature="0"
       id="path2258"
       d="m -31.206327,-14.528784 c 12.244189,-2.27e-4 22.170139,9.9257196 22.169909,22.1699146 2.3e-4,12.2441994 -9.92572,22.1701394 -22.169909,22.1699194 -7.563931,-0.008 -14.482356,-3.85731 -18.517531,-10.01424 -0.839093,-1.28024 -2.33828,-3.13459 -4.085367,-3.71131 0,0 -2.156938,-0.48499 -3.253379,-0.60669 -11.099566,-1.23197 -33.480568,-1.22997 -33.480568,-1.22997 0,0 -2.396409,0.13002 -3.477581,0.59233 -0.82953,0.3549 -1.704415,0.86729 -2.171792,1.61514 -3.001134,4.80216 -8.296635,7.80605 -14.082145,7.81176 -9.18277,-8e-5 -16.62686,-7.44416 -16.62697,-16.6269394 1.1e-4,-9.182778 7.4442,-16.62686 16.62697,-16.626973 5.94853,0.0076 11.341156,3.175068 14.287865,8.14801902 0.587716,0.991899 1.2672,1.598967 1.531729,1.89709598 0.264567,0.298205 1.046816,0.64732 1.63132,0.81309 0.941593,0.267212 2.924182,0.264945 2.924182,0.264945 0,0 22.00732,0.667237 32.716309,-1.44907098 1.19743,-0.236599 2.406463,-0.6 3.444775,-1.241651 1.488038,-0.91955902 2.897424,-2.18604102 3.799786,-3.61942702 3.989707,-6.3375106 11.010936,-10.3457376 18.732397,-10.3558296 z"
       style="opacity:1;fill:#a9eff4;fill-opacity:1;fill-rule:nonzero;stroke:#a9eff4;stroke-width:1.01529574;stroke-linecap:round;stroke-linejoin:round;stroke-miterlimit:4;stroke-dasharray:none;stroke-dashoffset:12.27369118;stroke-opacity:1" /><path
       style="opacity:1;fill:#a9eff4;fill-opacity:1;fill-rule:nonzero;stroke:#a9eff4;stroke-width:1.01529574;stroke-linecap:round;stroke-linejoin:round;stroke-miterlimit:4;stroke-dasharray:none;stroke-dashoffset:12.27369118;stroke-opacity:1"
       d="m -53.200759,7.8165006 c -2.26e-4,-12.244195 9.92572,-22.1701416 22.169916,-22.1699146 12.244185,-2.27e-4 22.170135,9.9257196 22.169905,22.1699146 -0.008,7.5639294 -3.85731,14.4823594 -10.01423,18.5175294 -1.28024,0.8391 -3.13459,2.33828 -3.71131,4.08537 0,0 -0.48499,2.15694 -0.60669,3.25338 -1.23198,11.09956 -1.22997,33.48057 -1.22997,33.48057 0,0 0.13001,2.39641 0.59232,3.47758 0.3549,0.82953 0.86729,1.70441 1.61515,2.17179 4.80215,3.00113 7.80605,8.29663 7.81175,14.08214 -7e-5,9.18278 -7.44415,16.62686 -16.626925,16.62697 -9.182778,-1.1e-4 -16.62686,-7.44419 -16.626974,-16.62697 0.0076,-5.94852 3.175068,-11.34115 8.148019,-14.28786 0.991899,-0.58772 1.598967,-1.2672 1.897096,-1.53173 0.298205,-0.26457 0.64732,-1.04682 0.81309,-1.63132 0.267213,-0.94159 0.264945,-2.92418 0.264945,-2.92418 0,0 0.667238,-22.00732 -1.449071,-32.71631 -0.236598,-1.19743 -0.6,-2.40646 -1.24165,-3.44478 -0.919559,-1.48803 -2.186041,-2.89742 -3.619427,-3.79978 -6.337512,-3.98971 -10.345739,-11.01094 -10.35583,-18.7323994 z"
       id="path2260"
       inkscape:connector-curvature="0"
       sodipodi:nodetypes="cccssacascccszacaasc" /><circle
       r="49.881416"
       style="opacity:1;fill:#2ad8e4;fill-opacity:1;fill-rule:nonzero;stroke:#2ad8e4;stroke-width:2.28441548;stroke-linecap:round;stroke-linejoin:round;stroke-miterlimit:4;stroke-dasharray:none;stroke-dashoffset:12.27369118;stroke-opacity:1"
       id="circle1979"
       cx="-31.031355"
       cy="7.6415644" /><path
       sodipodi:nodetypes="cccssacascccszacaasc"
       inkscape:connector-curvature="0"
       id="circle1981"
       d="m -31.030949,-14.528104 c -12.244203,-2.26e-4 -22.170146,9.9257196 -22.169923,22.1699156 -2.23e-4,12.2441984 9.92572,22.1701384 22.169923,22.1699184 7.563911,-0.008 14.482341,-3.85728 18.517511,-10.01424 0.8391,-1.28024 2.33828,-3.13459 4.08537,-3.71131 0,0 2.15698,-0.48499 3.25338,-0.60669 11.09957,-1.23197 33.48057,-1.22997 33.48057,-1.22997 0,0 2.39641,0.13002 3.47758,0.59233 0.82953,0.35452 1.70442,0.86729 2.17179,1.61514 3.00114,4.80216 8.29667,7.80605 14.08214,7.81179 9.18278,-1.1e-4 16.62686,-7.44419 16.62698,-16.6269684 -1.2e-4,-9.182779 -7.4442,-16.626861 -16.62698,-16.626936 -5.94852,0.0076 -11.34115,3.175068 -14.28782,8.14798102 -0.58775,0.991899 -1.26724,1.598967 -1.53177,1.89709598 -0.26456,0.298205 -1.04678,0.64732 -1.63132,0.81309 -0.94155,0.267213 -2.92418,0.264945 -2.92418,0.264945 0,0 -22.00728,0.667238 -32.71631,-1.44907098 -1.19743,-0.236598 -2.40646,-0.6 -3.44477,-1.24165 -1.48804,-0.91952202 -2.89743,-2.18604102 -3.79979,-3.61938902 -3.98971,-6.3375496 -11.01093,-10.3457766 -18.732381,-10.3558676 z"
       style="opacity:1;fill:#a9eff4;fill-opacity:1;fill-rule:nonzero;stroke:#a9eff4;stroke-width:1.01529574;stroke-linecap:round;stroke-linejoin:round;stroke-miterlimit:4;stroke-dasharray:none;stroke-dashoffset:12.27369118;stroke-opacity:1" /></g></svg>