<svg xmlns="http://www.w3.org/2000/svg" viewBox="0 0 32 32"><path d="M28.96692,12H9.44152a2,2,0,0,0-1.89737,1.36754L4,24V10H28a2,2,0,0,0-2-2H15.1241a2,2,0,0,1-1.28038-.46357L12.5563,6.46357A2,2,0,0,0,11.27592,6H4A2,2,0,0,0,2,8V24a2,2,0,0,0,2,2H26l4.80523-11.21213A2,2,0,0,0,28.96692,12Z" style="fill:#cddc39"/><path d="M11.49533,19.57913h0a1.07077,1.07077,0,0,1,.40777,1.47054L8.40559,27.15278a1.09949,1.09949,0,0,1-1.48675.41227h0a1.07077,1.07077,0,0,1-.40777-1.47054l3.49751-6.10311A1.09949,1.09949,0,0,1,11.49533,19.57913Z" style="fill:#f0f4c3;fill-rule:evenodd"/><path d="M19.034,14.89954h0a1.07078,1.07078,0,0,1,.40777,1.47054l-3.49751,6.10311a1.09948,1.09948,0,0,1-1.48675.41227h0a1.07076,1.07076,0,0,1-.40777-1.47054l3.49751-6.10311A1.09949,1.09949,0,0,1,19.034,14.89954Z" style="fill:#f0f4c3;fill-rule:evenodd"/><path d="M30.634,14.89977h0a1.07076,1.07076,0,0,1,.40777,1.47054l-3.49751,6.10311a1.09949,1.09949,0,0,1-1.48675.41227h0a1.07078,1.07078,0,0,1-.40777-1.47054L29.14725,15.312A1.09948,1.09948,0,0,1,30.634,14.89977Z" style="fill:#f0f4c3;fill-rule:evenodd"/><path d="M23.09353,19.57913h0a1.07077,1.07077,0,0,1,.40777,1.47054l-3.49751,6.10311a1.09949,1.09949,0,0,1-1.48675.41227h0a1.07077,1.07077,0,0,1-.40777-1.47054l3.49751-6.10311A1.09949,1.09949,0,0,1,23.09353,19.57913Z" style="fill:#f0f4c3;fill-rule:evenodd"/></svg>
