<svg xmlns="http://www.w3.org/2000/svg" viewBox="0 0 16 16">
<path id="folder" fill="#607d8b" d="m6.922 3.768-.644-.536A1 1 0 0 0 5.638 3H2a1 1 0 0 0-1 1v8a1 1 0 0 0 1 1h12a1 1 0 0 0 1-1V5a1 1 0 0 0-1-1H7.562a1 1 0 0 1-.64-.232" />
<g id="motive">
<path fill="#f44336" d="m 6.999959,9.999938 v 2.999938 H 5 Z M 9.012917,7.328993 7.820441,7.726485 A 0.74698453,0.7469845 0 0 0 7.38695,8.773463 l 0.266995,0.533989 2.347951,-0.811983 c 0.007,-0.146497 -0.002,-0.300994 -0.002,-0.454991 A 0.74798451,0.74798448 0 0 0 9.012917,7.328993 M 15.455783,10.079936 12.682841,7.48999 C 12.135852,6.9995 11.924856,7 10.999876,7 V 8.505969 A 1.6799652,1.6799651 0 0 1 10.349389,9.89944 l 1.650466,2.100456 2.937939,0.837983 c 0.302994,-0.348993 0.424991,-0.50249 0.689985,-0.797484 a 1.2914733,1.2914732 0 0 0 -0.171996,-1.960459" />
<path fill="#b71c1c" d="m 5,12.999876 1.999959,-0.99998 1.999958,0.99998 -1.999958,0.999979 z M 10.349389,9.89994 a 9.9997929,9.9997925 0 0 1 -1.231474,0.656986 1.7499638,1.7499637 0 0 1 -1.117977,0.150997 v 0.669486 l 4.489907,2.443949 a 1.6099667,1.6099666 0 0 0 2.026958,-0.499989 c 0.166496,-0.191996 0.252494,-0.290994 0.420991,-0.48349 z M 7.785942,8.954959 9.663903,8.250974 A 0.24999482,0.24999481 0 0 1 10.001396,8.496969 0.73998468,0.73998465 0 0 1 9.585405,9.206954 L 8.670424,9.664445 C 7.970938,10.014437 7.311952,9.132956 7.785942,8.954959" />
</g>
</svg>
