<svg viewBox="0 0 32 32" xmlns="http://www.w3.org/2000/svg"><path fill="#757575" d="M28.967 12H9.442a2 2 0 00-1.898 1.368L4 24V10h24a2 2 0 00-2-2H15.124a2 2 0 01-1.28-.464l-1.288-1.072A2 2 0 0011.276 6H4a2 2 0 00-2 2v16a2 2 0 002 2h22l4.805-11.212A2 2 0 0028.967 12"/><g transform="translate(14.53 10.455) scale(.08531)"><path d="M58 168V70a50 50 0 0150-50h20" class="prefix__prefix__orange" fill="none" stroke="#FF6D00" stroke-width="25"/><path d="M58 168v-30a50 50 0 0150-50h20" class="prefix__prefix__red" fill="none" stroke="#D50000" stroke-width="25"/><circle cx="142" cy="20" r="18" class="prefix__prefix__orange" fill="none" stroke="#FF6D00" stroke-width="15"/><circle cx="142" cy="88" r="18" class="prefix__prefix__red" fill="none" stroke="#D50000" stroke-width="15"/><circle cx="58" cy="180" r="18" class="prefix__prefix__red" fill="none" stroke="#D50000" stroke-width="15"/></g></svg>