<svg xmlns="http://www.w3.org/2000/svg" xmlns:xlink="http://www.w3.org/1999/xlink" viewBox="0 0 32 32">
  <defs>
    <linearGradient id="a" x1="0.44462" y1="3272.83527" x2="104.97663" y2="3209.74189" gradientTransform="translate(18.126 -331.024) scale(0.11021)" gradientUnits="userSpaceOnUse">
      <stop offset="0" stop-color="#fdd835"/>
      <stop offset="1" stop-color="#f57c00"/>
    </linearGradient>
    <linearGradient id="b" x1="22.54961" y1="3121.34335" x2="117.96162" y2="3204.87265" gradientTransform="translate(18.126 -331.024) scale(0.11021)" gradientUnits="userSpaceOnUse">
      <stop offset="0" stop-color="#ef5350"/>
      <stop offset="0.57" stop-color="#ff6e40"/>
      <stop offset="1" stop-color="#f57c00"/>
    </linearGradient>
    <linearGradient id="c" x1="28.60789" y1="3197.06365" x2="-27.93745" y2="3161.75029" gradientTransform="translate(18.126 -331.024) scale(0.11021)" gradientUnits="userSpaceOnUse">
      <stop offset="0" stop-color="#8e24aa"/>
      <stop offset="0.385" stop-color="#ab47bc"/>
      <stop offset="0.765" stop-color="#ec407a"/>
      <stop offset="0.957" stop-color="#ec407a"/>
    </linearGradient>
    <linearGradient id="d" x1="27.58766" y1="3117.08505" x2="-27.61634" y2="3162.67843" gradientTransform="translate(18.126 -331.024) scale(0.11021)" gradientUnits="userSpaceOnUse">
      <stop offset="0" stop-color="#ef5350"/>
      <stop offset="0.364" stop-color="#ec407a"/>
      <stop offset="1" stop-color="#ec407a"/>
    </linearGradient>
  </defs>
  <path d="M28.96692,12H9.44152a2,2,0,0,0-1.89737,1.36754L4,24V10H28a2,2,0,0,0-2-2H15.1241a2,2,0,0,1-1.28038-.46357L12.5563,6.46357A2,2,0,0,0,11.27592,6H4A2,2,0,0,0,2,8V24a2,2,0,0,0,2,2H26l4.80523-11.21213A2,2,0,0,0,28.96692,12Z" style="fill: #546e7a"/>
  <g>
    <path d="M30.92921,22.51877a.67869.67869,0,0,0,.22042-.47023.68761.68761,0,0,0-.64657-.72.71767.71767,0,0,0-.48492.16164L17.704,28.235a1.44342,1.44342,0,0,0-.69065.60248,1.47919,1.47919,0,0,0,.50689,2.02955l.02211.013a1.51161,1.51161,0,0,0,1.57232-.02939c.02939-.02939.07348-.04409.10287-.07348L30.6794,22.7245A1.867,1.867,0,0,0,30.92921,22.51877Z" style="fill: url(#a)"/>
    <path d="M30.9586,21.53423l-9.3752-9.19886a1.13338,1.13338,0,1,0-1.6605,1.54294,1.55589,1.55589,0,0,0,.17634.14694l9.9042,8.47883a.757.757,0,0,0,.44084.191.6876.6876,0,0,0,.72-.64657A.73434.73434,0,0,0,30.9586,21.53423Z" style="fill: url(#b)"/>
    <path d="M21.892,20.71133c-.0147,0-5.7897-4.55535-5.90726-4.62882l-.2645-.13226a1.64446,1.64446,0,0,0-1.44008,2.93894,1.29589,1.29589,0,0,0,.29389.13225c.05878.02939,6.67138,2.7626,6.67138,2.7626a.63055.63055,0,0,0,.64657-1.07271Z" style="fill: url(#c)"/>
    <path d="M20.7458,11.968a1.19715,1.19715,0,0,0-.676.22042l-5.84848,3.93817c-.01469.0147-.02939.0147-.02939.02939h-.01469a1.63771,1.63771,0,0,0,.39675,2.86546,1.612,1.612,0,0,0,1.52825-.20573,1.37313,1.37313,0,0,0,.2645-.23511l5.08436-4.58474a1.13163,1.13163,0,0,0-.7053-2.02786Z" style="fill: url(#d)"/>
  </g>
</svg>
