<svg xmlns="http://www.w3.org/2000/svg" viewBox="0 0 16 16">
<path id="folder" fill="#546e7a" d="m6.922 3.768-.644-.536A1 1 0 0 0 5.638 3H2a1 1 0 0 0-1 1v8a1 1 0 0 0 1 1h12a1 1 0 0 0 1-1V5a1 1 0 0 0-1-1H7.562a1 1 0 0 1-.64-.232" />
<path id="motive" fill="#cfd8dc" d="m 12.002518,6.0000034 a 3.9972779,4.0000001 0 1 0 1.98315,7.4699996 L 11.003199,9.5000034 v 2.2499996 a 0.24982986,0.25 0 0 1 -0.24983,0.25 h -0.49966 a 0.24982986,0.25 0 0 1 -0.249829,-0.25 V 8.2500034 a 0.24982986,0.25 0 0 1 0.249829,-0.25 h 0.615581 a 0.24982986,0.25 0 0 1 0.207859,0.1115 l 3.365707,5.0514996 A 3.9937803,3.9965001 0 0 0 12.002518,6.0000034 m 1.998639,3.9999996 H 13.001838 V 8.2500034 a 0.24982986,0.25 0 0 1 0.24983,-0.25 h 0.499659 a 0.24982986,0.25 0 0 1 0.24983,0.25 z" />
</svg>
