<svg xmlns="http://www.w3.org/2000/svg" viewBox="0 0 16 16">
<path id="folder" fill="#7c4dff" d="M14.483 6H4.721a1 1 0 0 0-.949.684L2 12V5h12a1 1 0 0 0-1-1H7.562a1 1 0 0 1-.64-.232l-.644-.536A1 1 0 0 0 5.638 3H2a1 1 0 0 0-1 1v8a1 1 0 0 0 1 1h11l2.403-5.606A1 1 0 0 0 14.483 6" />
<path id="motive" fill="#d1c4e9" d="m 9.6665,13.5 c 0,-0.405 0.041,-0.754 0.65,-0.754 0,1.304 0.75,2.254 1.35,2.254 C 11.6665,13.3405 13,13.439 13,12 H 9 c 0,0.6375 0.079,1.3405 0.6665,1.5 M 12.628,5.3075 15,11 H 13.8335 A 2,2 0 0 1 11.987,9.769 L 11.231,7.954 a 0.25,0.25 0 0 0 -0.462,0 L 10.013,9.769 A 2,2 0 0 1 8.1665,11 H 7 L 9.372,5.3075 A 0.5,0.5 0 0 1 9.8335,5 h 2.333 a 0.5,0.5 0 0 1 0.4615,0.3075" />
</svg>
