<?xml version="1.0" encoding="UTF-8"?>
<svg version="1.1" viewBox="0 0 32 32" xmlns="http://www.w3.org/2000/svg">
 <path d="m13.843 7.5367-1.2867-1.0724c-0.35931-0.30018-0.81235-0.46424-1.2811-0.46424h-7.2748c-1.1059 0-2.0009 0.89501-2.0009 1.9998v16c0 1.1037 0.895 1.9998 2.0009 1.9998h23.998c1.1059 0 2.0009-0.89611 2.0009-1.9998v-14c0-1.106-0.895-2.0009-2.0009-2.0009h-12.875c-0.46873-0.0011073-0.92176-0.16406-1.2811-0.46313" fill="#AB47BC" stroke-width="1.1159"/>
 <path d="m24.029 28.172-1.4745-3.4471c1.4178-0.5229 2.7336-1.225 3.97-2.044l-2.4954 5.4911m-6.749-8.7226-3.4482-1.4666 5.5013-2.4931c-0.82802 1.2239-1.5313 2.5476-2.0531 3.9598m14.383-9.0992s-4.4578-1.9078-9.5507 3.1862c-1.9737 1.9714-3.1533 4.1401-3.9132 6.0401-0.2609 0.67489-0.09075 1.4122 0.40832 1.9169l1.9169 1.9078c0.49907 0.50368 1.2364 0.66588 1.9056 0.41406 1.9282-0.73734 4.072-1.9442 6.0457-3.9144 5.0929-5.0952 3.1874-9.5507 3.1874-9.5507m-6.3746 6.3633c-0.69195-0.70209-0.69195-1.8455 0-2.5464 0.71457-0.70213 1.8488-0.70213 2.5521 0 0.69195 0.70096 0.70326 1.8443 0 2.5464-0.70326 0.70212-1.8375 0.70212-2.5521 0m-5.093 6.3645-1.259-1.2703 1.259 1.2703m-2.3706 4.9228 3.2781-3.2758c-0.30622-0.08163-0.60116-0.21664-0.87341-0.40605l-3.675 3.6819h1.2704m-3.8112 0h1.259l4.299-4.2842-1.2817-1.2693-4.2763 4.2842v1.2693m0-2.5476 3.6751-3.6717c-0.19285-0.27111-0.32895-0.55808-0.40835-0.87341l-3.2667 3.2769z" fill="#e1bee7" stroke-width=".059896"/>
</svg>
