<svg xmlns="http://www.w3.org/2000/svg" viewBox="0 0 32 32"><path fill="#0097a7" d="m13.844 7.536-1.288-1.072A2 2 0 0 0 11.276 6H4a2 2 0 0 0-2 2v16a2 2 0 0 0 2 2h24a2 2 0 0 0 2-2V10a2 2 0 0 0-2-2H15.124a2 2 0 0 1-1.28-.464Z"/><path fill="#b2ebf2" d="M31.4 13.692a3.299 3.299 0 0 0-2.869-1.691c-1.097-.022-1.998.592-1.828.996a6.335 6.335 0 0 0 .369.726c.183.269.51.061.624 0a1.837 1.837 0 0 1 1.124-.194 1.678 1.678 0 0 1 1.276.98c.832 1.618-1.736 4.945-4.95 2.641a8.344 8.344 0 0 0-7.754-1.077c-1.414.465-2.065.932-1.505 2.012a20.978 20.978 0 0 0 1.243 2.232c1.17 1.93 3.733-.888 3.733-.888-1.908 2.846-3.544 2.159-4.172 1.164a15.59 15.59 0 0 1-1.004-1.93C10.854 20.386 12.161 28 12.161 28h2.4c.611-2.803 2.8-2.699 3.174 0h1.831c1.621-5.475 5.727 0 5.727 0h2.387c-.67-3.732 1.342-4.907 2.61-7.095 1.268-2.19 2.469-4.868 1.11-7.213Zm-6.158 7.21a1.278 1.278 0 0 1-.845-1.589q.015-.05.034-.099s1.103.36 2.593.852a1.432 1.432 0 0 1-1.782.836Z"/></svg>