<svg xmlns="http://www.w3.org/2000/svg" viewBox="0 0 32 32">
  <path d="M13.84376,7.53645l-1.28749-1.0729A2,2,0,0,0,11.27591,6H4A2,2,0,0,0,2,8V24a2,2,0,0,0,2,2H28a2,2,0,0,0,2-2V10a2,2,0,0,0-2-2H15.12412A2,2,0,0,1,13.84376,7.53645Z" style="fill: #afb42b"/>
  <g>
    <rect x="18" y="16" width="2" height="2" style="fill: #f0f4c3"/>
    <rect x="22" y="16" width="6" height="2" style="fill: #f0f4c3"/>
    <rect x="18" y="20" width="2" height="2" style="fill: #f0f4c3"/>
    <rect x="22" y="20" width="6" height="2" style="fill: #f0f4c3"/>
    <rect x="18" y="24" width="2" height="2" style="fill: #f0f4c3"/>
    <rect x="22" y="24" width="6" height="2" style="fill: #f0f4c3"/>
    <path d="M14,12.5v17a.5.5,0,0,0,.5.5h17a.5.5,0,0,0,.5-.5v-17a.5.5,0,0,0-.5-.5h-17A.5.5,0,0,0,14,12.5ZM30,28H16V14H30Z" style="fill: #f0f4c3;fill-rule: evenodd"/>
  </g>
</svg>
