<svg xmlns="http://www.w3.org/2000/svg" viewBox="0 0 32 32"><path fill="#2196f3" d="m13.844 7.536-1.288-1.072A2 2 0 0 0 11.276 6H4a2 2 0 0 0-2 2v16a2 2 0 0 0 2 2h24a2 2 0 0 0 2-2V10a2 2 0 0 0-2-2H15.124a2 2 0 0 1-1.28-.464"/><path fill="#bbdefb" d="M30.025 28a1.9 1.9 0 0 1-1.407-.575 2.07 2.07 0 0 1 0-2.85 2.01 2.01 0 0 1 2.814 0 2.07 2.07 0 0 1 0 2.85 1.9 1.9 0 0 1-1.407.575m0-6a1.9 1.9 0 0 1-1.407-.575 2.07 2.07 0 0 1 0-2.85 2.01 2.01 0 0 1 2.814 0 2.07 2.07 0 0 1 0 2.85 1.9 1.9 0 0 1-1.407.575m0-6a1.9 1.9 0 0 1-1.407-.575 2.07 2.07 0 0 1 0-2.85 2.01 2.01 0 0 1 2.814 0 2.07 2.07 0 0 1 0 2.85 1.9 1.9 0 0 1-1.407.575M14 27v-2a.937.937 0 0 1 .857-1h10.286A.937.937 0 0 1 26 25v2a.937.937 0 0 1-.857 1H14.857A.937.937 0 0 1 14 27m0-6v-2a.937.937 0 0 1 .857-1h10.286A.937.937 0 0 1 26 19v2a.937.937 0 0 1-.857 1H14.857A.937.937 0 0 1 14 21m0-6v-2a.937.937 0 0 1 .857-1h10.286A.937.937 0 0 1 26 13v2a.937.937 0 0 1-.857 1H14.857A.937.937 0 0 1 14 15"/></svg>