<?xml version="1.0" encoding="utf-8"?>
<!-- Generator: Adobe Illustrator 27.9.4, SVG Export Plug-In . SVG Version: 9.03 Build 54784)  -->
<svg version="1.1" id="Layer_1" xmlns="http://www.w3.org/2000/svg" xmlns:xlink="http://www.w3.org/1999/xlink" x="0px" y="0px"
	 viewBox="0 0 30 22.1" style="enable-background:new 0 0 30 22.1;" xml:space="preserve">
<style type="text/css">
	.st0{fill:#0288D1;}
	.st1{fill:#90CAF9;}
</style>
<path class="st0" d="M5.5,7.5l-2.8,10V5h22.4c0-1.4-1.2-2.5-2.6-2.5h-9.2L10.6,0H2.6C1.2,0,0,1.1,0,2.5v15C0,18.9,1.2,20,2.6,20
	h19.8c1.2,0,2.2-0.8,2.5-1.9l3-10.6C28,7.5,5.5,7.5,5.5,7.5z"/>
<path class="st1" d="M20.9,8.8c-0.8-0.9-1.7-1.8-2.5-2.6c-1.1,1.2-2.2,2.4-3.4,3.5c0.8,0.9,1.7,1.8,2.5,2.6
	C18.6,11.2,19.7,10,20.9,8.8z"/>
<path class="st1" d="M21.4,8c0.1,0.2,0.3,0.3,0.5,0.5c0.2,0.2,0.5,0.3,0.8,0.3c0.2,0,0.3,0,0.5-0.1c0.4-0.2,0.6-0.6,0.7-1.1
	c0,0-0.2-0.7-0.4-0.9c-1-1.1-2.1-2.2-3.1-3.3l-0.1-0.1C20,3.1,19.7,3,19.3,3c-0.5,0.1-0.8,0.4-0.9,0.9c-0.1,0.4,0,0.9,0.3,1.2
	L21.4,8L21.4,8z"/>
<path class="st1" d="M14.9,14.5l0.6,0.6c0.2,0.2,0.5,0.4,0.8,0.4h0c0.5,0,0.9-0.3,1-0.7c0.2-0.5,0.1-1-0.2-1.3
	c-1-1.1-2.1-2.2-3.2-3.4c-0.4-0.5-1.2-0.5-1.6,0c-0.2,0.2-0.4,0.5-0.4,0.9s0.1,0.6,0.3,0.9C13.2,12.7,14.1,13.6,14.9,14.5L14.9,14.5
	z"/>
<path class="st1" d="M19.8,20.9c0.2-0.3,0.3-0.8,0.2-1.3c-0.1-0.5-0.3-0.7-0.6-0.7c-2,0-4.1,0-6.1,0c-0.1,0-0.1,0-0.1,0
	c-0.4,0.1-0.6,0.9-0.4,1.6c0.1,0.2,0.1,0.3,0.2,0.4c-0.1,0-0.1,0-0.1,0C12.4,21,12,21.5,12,22h8.8C20.8,21.4,20.4,20.9,19.8,20.9z"
	/>
<path class="st1" d="M30,20.2c0-0.3-0.2-0.6-0.4-0.8c-0.5-0.5-7.3-6.9-8.8-8.3c-0.4,0.4-0.7,0.8-1.1,1.1c1.3,1.6,7.3,8.8,7.7,9.2
	c0.5,0.5,1.1,0.6,1.7,0.3C29.8,21.6,30.1,20.9,30,20.2L30,20.2z"/>
</svg>
