<svg xmlns="http://www.w3.org/2000/svg" viewBox="0 0 16 16">
<path id="folder" fill="#673ab7" d="M14.483 6H4.721a1 1 0 0 0-.949.684L2 12V5h12a1 1 0 0 0-1-1H7.562a1 1 0 0 1-.64-.232l-.644-.536A1 1 0 0 0 5.638 3H2a1 1 0 0 0-1 1v8a1 1 0 0 0 1 1h11l2.403-5.606A1 1 0 0 0 14.483 6" />
<path id="motive" fill="#d1c4e9" d="m 11.601569,5.0002958 c -0.57031,0.0225 -1.53117,1.2689 -2.1146595,1.79255 l -0.33333,1.16907 c 0.61762,0.50625 1.1324095,1.23847 1.3529495,1.98316 0.25211,-0.0472 0.39363,-0.0631 0.67666,-0.0631 -1.06777,-2.80376 1.52921,-4.35224 0.58202,-4.84725 -0.0498,-0.026 -0.10464,-0.0368 -0.16364,-0.0344 z m 0.95025,0.99445 c -0.44017,1.19594 -1.25862,1.77847 -0.5348,3.85566 1.15993,0.2181302 2.10801,0.8500002 2.4226,1.8256402 0,0 0.42706,-0.67162 0.52045,-0.83662 0.21931,-0.38844 -0.51889,-0.69623 -0.89783,-1.5868602 -0.32864,-0.77156 0.15402,-1.68189 -0.25553,-2.06971 z m -3.6184895,3.00593 -0.88534,2.0194102 c -0.25647,0.58345 0.56111,1.1503 1.35771,1.9778 0.9059595,-1.27281 0.7550295,-2.77971 -0.47237,-3.9972102 z m 2.6396895,1.5703202 c -0.25612,-0.0106 -0.53734,0.009 -0.84591,0.0666 0.23742,0.98126 -0.12966,2.01687 -0.71321,2.84438 1.03528,0.01 1.85222,0.20157 2.83689,0.49157 0.40768,0.12032 0.83283,-0.18499 0.89094,-0.60687 0.0422,-0.30656 0.10966,-0.64536 0.25743,-0.96692 -0.0727,-0.20535 -0.63338,-1.75434 -2.42614,-1.82875 z" />
</svg>
