<svg xmlns="http://www.w3.org/2000/svg" viewBox="0 0 32 32">
  <path d="M28.96692,12H9.44152a2,2,0,0,0-1.89737,1.36754L4,24V10H28a2,2,0,0,0-2-2H15.1241a2,2,0,0,1-1.28038-.46357L12.5563,6.46357A2,2,0,0,0,11.27592,6H4A2,2,0,0,0,2,8V24a2,2,0,0,0,2,2H26l4.80523-11.21213A2,2,0,0,0,28.96692,12Z" style="fill: #1e88e5"/>
  <g>
    <path d="M12,18H8.5a.5.5,0,0,0-.5.5v9a.5.5,0,0,0,.5.5h1a.5.5,0,0,0,.5-.5V24h2a2,2,0,0,0,2-2V20A2,2,0,0,0,12,18Zm0,3.5a.5.5,0,0,1-.5.5H10V20h1.5a.5.5,0,0,1,.5.5Z" style="fill: #bbdefb;fill-rule: evenodd"/>
    <path d="M28,18H24.5a.5.5,0,0,0-.5.5v9a.5.5,0,0,0,.5.5h1a.5.5,0,0,0,.5-.5V24h2a2,2,0,0,0,2-2V20A2,2,0,0,0,28,18Zm0,3.5a.5.5,0,0,1-.5.5H26V20h1.5a.5.5,0,0,1,.5.5Z" style="fill: #bbdefb;fill-rule: evenodd"/>
    <path d="M20,18H18V14.5a.5.5,0,0,0-.5-.5h-1a.5.5,0,0,0-.5.5v9a.5.5,0,0,0,.5.5h1a.5.5,0,0,0,.5-.5V20h1.5a.5.5,0,0,1,.5.5v3a.5.5,0,0,0,.5.5h1a.5.5,0,0,0,.5-.5V20A2,2,0,0,0,20,18Z" style="fill: #bbdefb;fill-rule: evenodd"/>
  </g>
</svg>
