<svg xmlns="http://www.w3.org/2000/svg" viewBox="0 0 16 16">
<path id="folder" fill="#607d8b" d="m6.922 3.768-.644-.536A1 1 0 0 0 5.638 3H2a1 1 0 0 0-1 1v8a1 1 0 0 0 1 1h12a1 1 0 0 0 1-1V5a1 1 0 0 0-1-1H7.562a1 1 0 0 1-.64-.232" />
<path id="motive" fill="#cfd8dc" d="m 12.47126,6.0378544 c 0.435995,0.175005 0.608493,0.865522 0.380495,1.547539 -0.225997,0.678517 -0.758991,1.092027 -1.197486,0.920023 -0.434494,-0.170004 -0.609992,-0.862522 -0.385495,-1.546539 0.221997,-0.680017 0.761491,-1.089527 1.202486,-0.921023 m 2.439471,1.416036 c 0.368996,0.301007 0.282997,0.973524 -0.185498,1.5115369 -0.480494,0.535014 -1.160486,0.730019 -1.528482,0.435011 -0.369995,-0.297507 -0.280497,-0.9685239 0.193998,-1.5025369 0.473994,-0.539014 1.153987,-0.734019 1.519982,-0.444011 M 9.7392921,6.5563674 c 0.4849939,0.058 0.8399899,0.670017 0.8099899,1.362034 -0.052,0.693018 -0.467494,1.2105309 -0.9499879,1.1550289 -0.481495,-0.0555 -0.833991,-0.6630159 -0.793991,-1.3580339 0.04,-0.695017 0.463994,-1.21253 0.933989,-1.159529 m 6.1424269,3.5655886 c 0.280497,0.38251 0.047,1.010526 -0.531993,1.392535 -0.578993,0.38201 -1.277485,0.38001 -1.566482,-0.013 -0.288996,-0.39101 -0.051,-1.012026 0.519994,-1.404035 0.581494,-0.3710097 1.285485,-0.3690097 1.578481,0.025 m -2.693968,3.366584 a 1.0699875,1.0700267 0 0 1 -0.991988,0.508513 c -0.772491,-0.0735 -1.161487,-1.076527 -1.839978,-1.470037 -0.6789919,-0.39501 -1.7574799,-0.211005 -2.1834749,-0.865521 a 1.2049858,1.2050301 0 0 1 0.0325,-1.293033 c 0.355496,-0.4760107 1.124486,-0.3960087 1.69998,-0.5600137 0.7594909,-0.204505 1.6224809,-0.915522 2.3084729,-0.516512 0.682992,0.395009 0.529994,1.5000367 0.704992,2.2650557 0.138498,0.639016 0.566993,1.359034 0.269496,1.931548" />
</svg>
