<?xml version="1.0" encoding="UTF-8" standalone="no"?>
<svg
   xmlns:dc="http://purl.org/dc/elements/1.1/"
   xmlns:cc="http://creativecommons.org/ns#"
   xmlns:rdf="http://www.w3.org/1999/02/22-rdf-syntax-ns#"
   xmlns:svg="http://www.w3.org/2000/svg"
   xmlns="http://www.w3.org/2000/svg"
   xmlns:sodipodi="http://sodipodi.sourceforge.net/DTD/sodipodi-0.dtd"
   xmlns:inkscape="http://www.inkscape.org/namespaces/inkscape"
   clip-rule="evenodd"
   stroke-linejoin="round"
   stroke-miterlimit="1.4142"
   version="1.1"
   viewBox="0 0 24 24"
   xml:space="preserve"
   id="svg10"
   sodipodi:docname="folder-container-open.svg"
   inkscape:version="0.92.2 5c3e80d, 2017-08-06"><metadata
     id="metadata16"><rdf:RDF><cc:Work
         rdf:about=""><dc:format>image/svg+xml</dc:format><dc:type
           rdf:resource="http://purl.org/dc/dcmitype/StillImage" /></cc:Work></rdf:RDF></metadata><defs
     id="defs14" /><sodipodi:namedview
     pagecolor="#ffffff"
     bordercolor="#666666"
     borderopacity="1"
     objecttolerance="10"
     gridtolerance="10"
     guidetolerance="10"
     inkscape:pageopacity="0"
     inkscape:pageshadow="2"
     inkscape:window-width="972"
     inkscape:window-height="555"
     id="namedview12"
     showgrid="false"
     inkscape:zoom="19.666667"
     inkscape:cx="10.022786"
     inkscape:cy="7.8294815"
     inkscape:window-x="20"
     inkscape:window-y="21"
     inkscape:window-maximized="0"
     inkscape:current-layer="svg10" /><path
     d="m19 20h-15c-1.11 0-2-0.9-2-2v-12c0-1.11 0.89-2 2-2h6l2 2h7c1.097 0 2 0.903 2 2h-17v10l2.14-8h17.07l-2.28 8.5c-0.23 0.87-1.01 1.5-1.93 1.5z"
     fill="#ffb300"
     id="path2" /><path
     d="M0 0h24v24H0z"
     fill="none"
     id="path7" /><path
     style="stroke-width:0.58333331"
     inkscape:connector-curvature="0"
     id="path10"
     d="m 11.85,16.233329 h 1.166667 V 15.066671 H 11.85 Z m 0,2.333336 h 1.166667 V 17.399997 H 11.85 Z M 13.016667,20.9 V 19.733333 H 11.85 C 11.85,20.375 12.369169,20.9 13.016667,20.9 Z M 11.85,13.900003 h 1.166667 V 12.733335 H 11.85 Z M 18.849998,20.9 h 1.166668 v -1.166667 h -1.166668 z m 2.333335,-10.5 h -5.833331 c -0.647504,0 -1.166668,0.525 -1.166668,1.166667 v 5.83333 c 0,0.641668 0.519164,1.166668 1.166668,1.166668 h 5.833331 c 0.641667,0 1.166667,-0.525 1.166667,-1.166668 v -5.83333 C 22.35,10.925 21.825,10.4 21.183333,10.4 Z m 0,6.999997 h -5.833331 v -5.83333 h 5.833331 z M 16.516669,20.9 h 1.166662 v -1.166667 h -1.166662 z m -2.333335,0 h 1.166668 v -1.166667 h -1.166668 z" /></svg>