<?xml version="1.0" encoding="utf-8"?>
<svg id="master-artboard" viewBox="0 0 1400 980" version="1.1" xmlns="http://www.w3.org/2000/svg" x="0px" y="0px" style="enable-background:new 0 0 336 235.2;" width="1400px" height="980px" xmlns:xlink="http://www.w3.org/1999/xlink"><defs><path d="M213.51 465.59C213.51 482.15 200.07 495.59 183.51 495.59C166.96 495.59 153.51 482.15 153.51 465.59C153.51 449.04 166.96 435.59 183.51 435.59C200.07 435.59 213.51 449.04 213.51 465.59Z" id="fLVQA4nSJ"/><path d="M150.95 468.15C130.46 464.05 117.65 461.49 112.52 460.46C104.19 458.79 99.07 450.35 101.44 442.19C107.22 422.28 116.7 389.66 121.62 372.73C127.18 353.61 140.67 337.78 158.67 329.27C162.15 327.63 153.01 331.95 158.67 329.27C170.19 323.83 182.47 320.18 195.09 318.44C201.1 317.62 216.12 315.56 240.17 312.26L203.89 439.72" id="hNtAh4nm"/><path d="M268.07 508C273.52 508 276.92 508 278.28 508C286.24 508 293.3 502.91 295.82 495.36C296.15 494.36 294.97 497.89 295.82 495.36C295.82 495.36 299.19 485.35 299.19 485.35C299.67 483.96 300.87 480.46 302.78 474.86C302.92 474.43 303.01 474.16 303.05 474.05C303.05 474.05 326.51 400.54 326.51 400.54C326.7 399.95 327.15 398.48 327.87 396.14C335.94 376.01 340.98 363.43 343 358.4C345.13 353.09 351.99 351.65 356.07 355.68C358.47 358.04 363.18 362.69 367.11 366.56C367.11 366.56 369.01 368.49 369.01 368.49C368.39 367.84 373.11 372.79 383.17 383.36C390.89 391.47 398.77 401.6 400.82 412.49C401.35 415.3 414.7 495.43 414.81 498.32C415.09 506.1 422.05 509.33 435.69 508C438.02 506.88 439.49 506.18 440.07 505.9C446.77 502.71 451.24 496.17 451.8 488.77C452.16 483.95 451.62 491.16 451.8 488.77C453.01 472.77 452.35 456.68 449.83 440.83C449.49 438.68 448.63 433.29 447.27 424.67C444.05 412.45 442.04 404.82 441.24 401.76C439.06 393.48 435.22 385.72 429.96 378.96C424.13 371.46 409.55 352.72 386.23 322.74L422.98 208.98C439.01 219.8 449.03 226.57 453.04 229.27C461.52 235 471.65 237.78 481.86 237.19C488.12 236.82 503.76 235.92 528.79 234.47L547.8 230.84C552.26 227.95 555.04 226.15 556.16 225.43C563.31 220.8 565.08 211.1 560.01 204.24C557.97 201.49 561.88 206.77 560.01 204.24C553.73 195.74 543.32 191.33 532.84 192.71C523.33 193.97 522.44 194.08 515.6 194.99C496.75 197.48 477.96 190.04 465.91 175.34C464.11 173.13 461.08 169.34 456.84 163.97C443.67 147.3 424.99 128.97 400.82 108.98C370.6 115.65 351.71 119.83 344.16 121.5C317.78 127.33 294.22 142.09 277.46 163.28C268.37 174.77 256.27 190.07 244.49 204.96C237.61 213.67 239.1 226.32 247.82 233.19C248.04 233.36 248.58 233.79 249.45 234.47C253.4 235 255.87 235.33 256.86 235.46C268.69 237.04 280.23 230.98 285.63 220.34C289.18 213.36 292.21 207.4 296.11 199.73C300.67 190.76 309.26 184.52 319.2 182.97C323.75 182.25 335.14 180.46 353.37 177.61L259.12 475.91C257.83 479.99 257.02 482.54 256.7 483.56C254.14 491.67 257.18 500.5 264.18 505.32C264.7 505.68 266 506.57 268.07 508Z" id="a4m5f963mO"/><path d="M445.05 74.9C445.05 79.63 444.11 84.15 442.4 88.27C437.15 100.96 424.63 109.9 410.05 109.9C390.73 109.9 375.05 94.22 375.05 74.9C375.05 55.58 390.73 39.9 410.05 39.9C429.37 39.9 445.05 55.58 445.05 74.9Z" id="a1npEZtfam"/><path d="M201.98 315.91L240.17 223.31" id="d2uxlACHmq"/><path d="M236.49 326.82L274.68 230.59" id="a1k4m9DqfU"/><path d="M518.03 87.3L581.82 21.17" id="f9jOnDubgD"/><path d="M501.06 189.64L424.62 116.6L479.34 54.43L555.79 127.47L501.06 189.64Z" id="f2tRKmByAq"/><path d="M453.38 87.48L529 157.43" id="b4gmTQ5WJ"/><path d="M451.97 308.49L507.04 253.61L501.48 189.64" id="aqwzaS1I9"/><path d="M427.77 328.73L411.93 344.52L273.98 217.91L305.7 184.94L355.33 134.82L426.54 118.17" id="b6FXw5Joby"/><path d="M81.53 559.68L56.66 585.31L17.55 625.63" id="b4W7t7rfA"/><path d="M99.69 457.38L175.93 530.63L121.03 592.65L44.79 519.4L99.69 457.38Z" id="a1jZKZjqGY"/><path d="M147.09 559.68L71.66 489.51" id="e3oYe13vT4"/><path d="M149.11 338.67L93.88 393.39L99.27 457.38" id="d1RSw533JJ"/><path d="M172.45 318.49L188.34 302.75L325.94 429.73L294.13 462.62L244.36 512.6L173.1 529.06" id="bBnevvUI"/><path d="M281.79 410.58L302.92 431.13L281.78 452.84L260.65 431.88L281.79 410.58Z" id="bjiOjba8"/><path d="M253.76 439.89L275.81 459.88L257.27 480.33L235.22 460.34L253.76 439.89Z" id="lkxJEcEHP"/><path d="M212.73 489.51L179.09 485.91L181.82 493.18L186.36 505L203.64 505L232.73 498.64L244.55 489.51L230 476.82L212.73 489.51Z" id="a7G6nruoL"/><path d="M240 347.73C258.15 329.4 269.49 317.95 274.02 313.37C280.65 306.68 283.74 297.27 282.36 287.95C282.24 287.18 283.45 295.37 283.18 293.53C282.28 287.44 279.2 281.9 274.52 277.92C273.91 277.41 272.41 276.13 270 274.09C266.93 273.33 265.02 272.85 264.25 272.66C259.7 271.53 254.91 271.99 250.66 273.97C249.85 274.35 247.81 275.3 244.55 276.82L204.55 320" id="c8eZYahrg4"/><path d="M316.12 415.9C334.26 397.58 345.6 386.13 350.14 381.55C356.76 374.86 359.85 365.44 358.47 356.13C358.36 355.35 359.57 363.54 359.3 361.7C358.4 355.62 355.32 350.07 350.63 346.1C350.03 345.58 348.52 344.31 346.12 342.27C343.05 341.5 341.13 341.03 340.37 340.84C335.82 339.71 331.02 340.17 326.78 342.14C325.96 342.52 323.92 343.47 320.66 344.99L280.66 388.17" id="a8i7zxCxl"/><radialGradient id="gradient-0" gradientUnits="objectBoundingBox" cx="0.5" cy="0.5" r="0.5">
                <stop offset="0" style="stop-color: #000000"/>
                <stop offset="1" style="stop-color: #000000"/>
              </radialGradient><radialGradient id="gradient-1" gradientUnits="objectBoundingBox" cx="0.5" cy="0.5" r="0.5">
                <stop offset="0" style="stop-color: #fdfdfd"/>
                <stop offset="1" style="stop-color: #cacaca"/>
              </radialGradient><radialGradient id="gradient-2" gradientUnits="objectBoundingBox" cx="0.5" cy="0.5" r="0.5">
                <stop offset="0" style="stop-color: #000000"/>
                <stop offset="1" style="stop-color: #000000"/>
              </radialGradient><radialGradient id="gradient-3" gradientUnits="objectBoundingBox" cx="0.5" cy="0.5" r="0.5">
                <stop offset="0" style="stop-color: #000000"/>
                <stop offset="1" style="stop-color: #000000"/>
              </radialGradient><radialGradient id="gradient-4" gradientUnits="objectBoundingBox" cx="0.5" cy="0.5" r="0.5">
                <stop offset="0" style="stop-color: #000000"/>
                <stop offset="1" style="stop-color: #000000"/>
              </radialGradient><radialGradient id="gradient-5" gradientUnits="objectBoundingBox" cx="0.5" cy="0.5" r="0.5">
                <stop offset="0" style="stop-color: #000000"/>
                <stop offset="1" style="stop-color: #000000"/>
              </radialGradient><radialGradient id="gradient-6" gradientUnits="objectBoundingBox" cx="0.5" cy="0.5" r="0.5">
                <stop offset="0" style="stop-color: #000000"/>
                <stop offset="1" style="stop-color: #000000"/>
              </radialGradient><radialGradient id="gradient-7" gradientUnits="objectBoundingBox" cx="0.5" cy="0.5" r="0.5">
                <stop offset="0" style="stop-color: #fdfdfd"/>
                <stop offset="1" style="stop-color: #cacaca"/>
              </radialGradient><radialGradient id="gradient-8" gradientUnits="objectBoundingBox" cx="0.5" cy="0.5" r="0.5">
                <stop offset="0" style="stop-color: #000000"/>
                <stop offset="1" style="stop-color: #000000"/>
              </radialGradient><radialGradient id="gradient-9" gradientUnits="objectBoundingBox" cx="0.5" cy="0.5" r="0.5">
                <stop offset="0" style="stop-color: #000000"/>
                <stop offset="1" style="stop-color: #000000"/>
              </radialGradient><radialGradient id="gradient-10" gradientUnits="objectBoundingBox" cx="0.5" cy="0.5" r="0.5">
                <stop offset="0" style="stop-color: #000000"/>
                <stop offset="1" style="stop-color: #000000"/>
              </radialGradient><radialGradient id="gradient-11" gradientUnits="objectBoundingBox" cx="0.5" cy="0.5" r="0.5">
                <stop offset="0" style="stop-color: #000000"/>
                <stop offset="1" style="stop-color: #000000"/>
              </radialGradient><radialGradient id="gradient-12" gradientUnits="objectBoundingBox" cx="0.5" cy="0.5" r="0.5">
                <stop offset="0" style="stop-color: #030303"/>
                <stop offset="1" style="stop-color: #000000"/>
              </radialGradient><radialGradient id="gradient-13" gradientUnits="objectBoundingBox" cx="0.5" cy="0.5" r="0.5">
                <stop offset="0" style="stop-color: #030303"/>
                <stop offset="1" style="stop-color: #000000"/>
              </radialGradient><radialGradient id="gradient-14" gradientUnits="objectBoundingBox" cx="0.5" cy="0.5" r="0.5" gradientTransform="matrix(0.4366302490234375, -1.0859149098396301, 0.31460702419281006, 0.6825846135616302, 0.12438124418258667, 0.7016651481389999)">
                <stop offset="0" style="stop-color: #000000"/>
                <stop offset="1" style="stop-color: #000000"/>
              </radialGradient><radialGradient id="gradient-15" gradientUnits="objectBoundingBox" cx="0.5" cy="0.5" r="0.5" gradientTransform="matrix(0.9076974391937256, -0.974762886762619, 0.28767824172973633, 1.4455047845840454, -0.09768795967102051, 0.2646290510892868)">
                <stop offset="0" style="stop-color: #000000"/>
                <stop offset="1" style="stop-color: #000000"/>
              </radialGradient><radialGradient id="gradient-16" gradientUnits="objectBoundingBox" cx="0.5" cy="0.5" r="0.5">
                <stop offset="0" style="stop-color: #000000"/><stop offset="0.47311" style="stop-color: rgb(1, 1, 1);"/>
                <stop offset="1" style="stop-color: #000000"/>
              </radialGradient><radialGradient id="gradient-17" gradientUnits="objectBoundingBox" cx="0.5" cy="0.5" r="0.5">
                <stop offset="0" style="stop-color: #000000"/>
                <stop offset="1" style="stop-color: #000000"/>
              </radialGradient></defs><rect id="ee-background" x="0" y="0" width="1400" height="980" style="fill: white; fill-opacity: 0; pointer-events: none;"/>














<g transform="matrix(40.833335876464844, 0, 0, 40.833335876464844, 210.00002092598152, 0.0000031971990210877266)"><path d="m19 20h-15c-1.11 0-2-.9-2-2v-12c0-1.11.89-2 2-2h6l2 2h7c1.097 0 2 .903 2 2h-17v10l2.14-8h17.07l-2.28 8.5c-.23.87-1.01 1.5-1.93 1.5z" fill="#e57373" style="fill: rgb(29, 204, 151);"/><path d="M 6.970032215118408 12.584977149963379" style="fill: rgb(29, 204, 151); fill-opacity: 1; stroke: rgb(0, 0, 0); stroke-opacity: 1; stroke-width: 0; paint-order: fill;"/></g><g transform="matrix(0.6695649623870848, 0, 0, 0.6695649623870848, 736.4206542968748, 433.1474609977167)"><g><g><g><g><use opacity="1" fill-opacity="0" stroke="#111314" stroke-width="10" stroke-opacity="1" style="fill: url('#gradient-0'); fill-opacity: 0; stroke-width: 21;" xlink:href="#f9jOnDubgD"/></g></g><g><use opacity="1" fill="#fdfdfd" fill-opacity="0" style="fill: url('#gradient-1'); fill-opacity: 0; stroke: rgb(0, 0, 0); stroke-width: 21;" xlink:href="#f2tRKmByAq"/><g><use opacity="1" fill-opacity="0" stroke="#111314" stroke-width="10" stroke-opacity="1" style="fill: url('#gradient-2'); fill-opacity: 0; stroke-width: 21;" xlink:href="#f2tRKmByAq"/></g></g><g><g><use opacity="1" fill-opacity="0" stroke="#111314" stroke-width="10" stroke-opacity="1" style="fill: url('#gradient-3'); fill-opacity: 0; stroke-width: 21;" xlink:href="#b4gmTQ5WJ"/></g></g><g><g><use opacity="1" fill-opacity="0" stroke="#111314" stroke-width="10" stroke-opacity="1" style="fill: url('#gradient-4'); fill-opacity: 0; stroke-width: 21;" xlink:href="#aqwzaS1I9"/></g></g><g><g><use opacity="1" fill-opacity="0" stroke="#111314" stroke-width="10" stroke-opacity="1" style="fill: url('#gradient-5'); fill-opacity: 0; stroke-width: 21;" xlink:href="#b6FXw5Joby"/></g></g><g><g><use opacity="1" fill-opacity="0" stroke="#111314" stroke-width="10" stroke-opacity="1" style="fill: url('#gradient-6'); fill-opacity: 0; stroke-width: 21;" xlink:href="#b4W7t7rfA"/></g></g><g><use opacity="1" fill="#fdfdfd" fill-opacity="0" style="fill: url('#gradient-7'); fill-opacity: 0; stroke: rgb(0, 0, 0); stroke-width: 21;" xlink:href="#a1jZKZjqGY"/><g><use opacity="1" fill-opacity="0" stroke="#111314" stroke-width="10" stroke-opacity="1" style="fill: url('#gradient-8'); fill-opacity: 0; stroke-width: 21;" xlink:href="#a1jZKZjqGY"/></g></g><g><g><use opacity="1" fill-opacity="0" stroke="#111314" stroke-width="10" stroke-opacity="1" style="fill: url('#gradient-9'); fill-opacity: 0; stroke-width: 21;" xlink:href="#e3oYe13vT4"/></g></g><g><g><use opacity="1" fill-opacity="0" stroke="#111314" stroke-width="10" stroke-opacity="1" style="fill: url('#gradient-10'); fill-opacity: 0; stroke-width: 21;" xlink:href="#d1RSw533JJ"/></g></g><g><g><use opacity="1" fill-opacity="0" stroke="#111314" stroke-width="10" stroke-opacity="1" style="fill: url('#gradient-11'); fill-opacity: 0; stroke-width: 21;" xlink:href="#bBnevvUI"/></g></g><g transform="matrix(0.9994922280311584, -0.03186950832605362, 0.03186950832605362, 0.9994922280311584, -19.89239308181729, 5.668746971016219)"><use opacity="1" fill="#030303" fill-opacity="1" style="fill: url('#gradient-12'); fill-opacity: 0; stroke: rgb(0, 0, 0); stroke-width: 8;" xlink:href="#bjiOjba8"/></g><g transform="matrix(1, 0, 0, 1, -9.80803947543859, -5.684341886080802e-14)"><use opacity="1" fill="#030303" fill-opacity="1" style="fill: url('#gradient-13'); fill-opacity: 0; stroke: rgb(0, 0, 0); stroke-width: 8;" xlink:href="#lkxJEcEHP"/></g><g transform="matrix(1, 0, 0, 1, -10.98500421249122, -4.315537369193066)"><use opacity="1" fill="#000000" fill-opacity="1" style="fill: url('#gradient-14'); fill-opacity: 0; stroke: rgb(0, 0, 0); stroke-width: 9;" xlink:href="#a7G6nruoL"/><g><use opacity="1" fill-opacity="0" stroke="#000000" stroke-width="9" stroke-opacity="1" style="fill: url('#gradient-15'); fill-opacity: 0; stroke-width: 9;" xlink:href="#a7G6nruoL"/></g></g><g><g><use opacity="1" fill-opacity="0" stroke="#040505" stroke-width="10" stroke-opacity="1" style="fill: url('#gradient-16'); fill-opacity: 0; stroke-width: 18;" xlink:href="#c8eZYahrg4"/></g></g><g><g><use opacity="1" fill-opacity="0" stroke="#040505" stroke-width="10" stroke-opacity="1" style="fill: url('#gradient-17'); fill-opacity: 0; stroke-width: 17;" xlink:href="#a8i7zxCxl"/></g></g></g></g></g></svg>