<?xml version="1.0" encoding="UTF-8" standalone="no"?>
<!DOCTYPE svg PUBLIC "-//W3C//DTD SVG 1.1//EN" "http://www.w3.org/Graphics/SVG/1.1/DTD/svg11.dtd">
<svg width="100%" height="100%" viewBox="0 0 24 24" version="1.1" xmlns="http://www.w3.org/2000/svg" xmlns:xlink="http://www.w3.org/1999/xlink" xml:space="preserve" style="fill-rule:evenodd;clip-rule:evenodd;stroke-linejoin:round;stroke-miterlimit:1.41421;">
    <path id="path3338" d="M10,4L4,4C2.89,4 2,4.89 2,6L2,18C2,19.097 2.903,20 4,20L20,20C21.097,20 22,19.097 22,18L22,8C22,6.89 21.1,6 20,6L12,6L10,4Z" style="fill:rgb(13,71,161);fill-rule:nonzero;"/>
    <g id="path4" transform="matrix(0.675,0,0,0.675,9.8,6.78397)">
        <path d="M13,9L18.5,9L13,3.5L13,9M6,2L14,2L20,8L20,20C20,21.097 19.097,22 18,22L6,22C4.89,22 4,21.1 4,20L4,4C4,2.89 4.89,2 6,2M15,18L15,16L6,16L6,18L15,18M18,14L18,12L6,12L6,14L18,14Z" style="fill:rgb(66,165,245);fill-rule:nonzero;"/>
    </g>
</svg>
