<svg xmlns="http://www.w3.org/2000/svg" viewBox="0 0 32 32"><path fill="#1e88e5" d="M28.967 12H9.442a2 2 0 0 0-1.898 1.368L4 24V10h24a2 2 0 0 0-2-2H15.124a2 2 0 0 1-1.28-.464l-1.288-1.072A2 2 0 0 0 11.276 6H4a2 2 0 0 0-2 2v16a2 2 0 0 0 2 2h22l4.805-11.212A2 2 0 0 0 28.967 12"/><path fill="#bbdefb" d="M28.36 10.64a3 3 0 1 1-3 3 2.6 2.6 0 0 1 .14-.84A8.1 8.1 0 0 0 22 12a8 8 0 0 0-8 8l.04.84-1.99.21L12 20a9.996 9.996 0 0 1 14.67-8.84 3 3 0 0 1 1.69-.52m0 2a1 1 0 1 0 1 1 1 1 0 0 0-1-1M15.64 23.36a3.01 3.01 0 0 1 3 3 2.6 2.6 0 0 1-.14.84 8.1 8.1 0 0 0 3.5.8 8 8 0 0 0 8-8l-.04-.84 1.99-.21L32 20a9.996 9.996 0 0 1-14.67 8.84 3 3 0 1 1-1.69-5.48m0 2a1 1 0 1 0 1 1 .997.997 0 0 0-1-1M22 16a4 4 0 1 1-4 4 4 4 0 0 1 4-4"/></svg>