<svg xmlns="http://www.w3.org/2000/svg" viewBox="0 0 32 32">
  <path d="M28.96692,12H9.44152a2,2,0,0,0-1.89737,1.36754L4,24V10H28a2,2,0,0,0-2-2H15.1241a2,2,0,0,1-1.28038-.46357L12.5563,6.46357A2,2,0,0,0,11.27592,6H4A2,2,0,0,0,2,8V24a2,2,0,0,0,2,2H26l4.80523-11.21213A2,2,0,0,0,28.96692,12Z" style="fill: #8d6e63"/>
  <path d="M16,24.66712V28h3.33288l9.82978-9.82978-3.33288-3.33288ZM31.74009,15.5928a.88522.88522,0,0,0,.00128-1.25188l-.00128-.00129-2.07972-2.07972a.88522.88522,0,0,0-1.25188-.00128l-.00129.00128-1.62644,1.62645,3.33288,3.33288Z" style="fill: #d7ccc8;fill-rule: evenodd"/>
</svg>
