<svg xmlns="http://www.w3.org/2000/svg" viewBox="0 0 16 16">
<defs data-mit-no-recolor="true"><linearGradient id="a" x1="-84.6615" x2="-58.5285" y1="818.20875" y2="802.4355" gradientTransform="translate(27.7485 -165.512)scale(.11021)" gradientUnits="userSpaceOnUse"><stop offset="0" stop-color="#fdd835"/><stop offset="1" stop-color="#f57c00"/></linearGradient><linearGradient id="b" x1="-79.13525" x2="-55.28225" y1="780.33575" y2="801.21825" gradientTransform="translate(27.7485 -165.512)scale(.11021)" gradientUnits="userSpaceOnUse"><stop offset="0" stop-color="#ef5350"/><stop offset=".57" stop-color="#ff6e40"/><stop offset="1" stop-color="#f57c00"/></linearGradient><linearGradient id="c" x1="-77.62075" x2="-91.757" y1="799.266" y2="790.4375" gradientTransform="translate(27.7485 -165.512)scale(.11021)" gradientUnits="userSpaceOnUse"><stop offset="0" stop-color="#8e24aa"/><stop offset=".385" stop-color="#ab47bc"/><stop offset=".765" stop-color="#ec407a"/><stop offset=".957" stop-color="#ec407a"/></linearGradient><linearGradient id="d" x1="-77.87575" x2="-91.67675" y1="779.27125" y2="790.6695" gradientTransform="translate(27.7485 -165.512)scale(.11021)" gradientUnits="userSpaceOnUse"><stop offset="0" stop-color="#ef5350"/><stop offset=".364" stop-color="#ec407a"/><stop offset="1" stop-color="#ec407a"/></linearGradient></defs>
<path fill="#546e7a" d="m6.922 3.768-.644-.536A1 1 0 0 0 5.638 3H2a1 1 0 0 0-1 1v8a1 1 0 0 0 1 1h12a1 1 0 0 0 1-1V5a1 1 0 0 0-1-1H7.562a1 1 0 0 1-.64-.232" id="folder"/>
<g id="motive"><path fill="url(#a)" d="M15.465 11.2595a0.34 0.34 0 0 0 0.11-0.235 0.345 0.345 0 0 0-0.3235-0.36 0.36 0.36 0 0 0-0.2425 0.0805l-6.157 3.3725a0.72 0.72 0 0 0-0.345 0.301 0.74 0.74 0 0 0 0.253 1.015l0.011 0.0065a0.755 0.755 0 0 0 0.7865-0.015c0.015-0.0145 0.0365-0.0215 0.0515-0.0365l5.7305-4.0265a1 1 0 0 0 0.125-0.1025Z"/><path fill="url(#b)" d="m15.4795 10.767-4.688-4.5995a0.5665 0.5665 0 1 0-0.83 0.7715 1 1 0 0 0 0.088 0.0735l4.952 4.24a0.38 0.38 0 0 0 0.2205 0.095 0.345 0.345 0 0 0 0.36-0.323 0.365 0.365 0 0 0-0.1025-0.2575"/><path fill="url(#c)" d="M10.946 10.3555c-0.0075 0-2.895-2.2775-2.9535-2.314l-0.1325-0.0665a0.822 0.822 0 0 0-0.72 1.47 0.65 0.65 0 0 0 0.147 0.0655c0.0295 0.015 3.3355 1.3815 3.3355 1.3815a0.315 0.315 0 0 0 0.3235-0.5365"/><path fill="url(#d)" d="M10.373 5.984a0.6 0.6 0 0 0-0.338 0.11l-2.9245 1.9695c-0.007 0.007-0.015 0.007-0.015 0.0145h-0.007a0.819 0.819 0 0 0 0.1985 1.4325 0.805 0.805 0 0 0 0.764-0.1025 0.7 0.7 0 0 0 0.1325-0.1175l2.542-2.2925a0.566 0.566 0 0 0-0.3525-1.014"/></g>
</svg>
