<?xml version="1.0" encoding="UTF-8"?>
<svg clip-rule="evenodd" fill-rule="evenodd" image-rendering="optimizeQuality" shape-rendering="geometricPrecision" text-rendering="geometricPrecision" version="1.1" viewBox="0 0 3200 3200" xmlns="http://www.w3.org/2000/svg">
<path d="m2999.5 1165.5c-30.43-3.18-61.1-6.35-92-9.5-167.75-14.9-334.08-5.57-499 28-70.52 15.21-139.52 35.55-207 61-79.51 31.74-154.18 71.74-224 120-18.88 13.61-37.21 27.94-55 43-1 0.33-2 0.67-3 1-46.92 39.92-90.09 83.42-129.5 130.5-14.62 20.28-29.62 40.28-45 60-61.77 91.89-109.44 190.89-143 297-23.89 80.65-41.55 162.65-53 246-14.98 118.89-19.98 238.22-15 358 1.34 33.03 3.17 66.03 5.5 99-386.33 0.17-772.67 0-1159-0.5-81.772-10.78-138.27-54.28-169.5-130.5-5.453-15.93-9.119-32.26-11-49-0.667-546.67-0.667-1093.3 0-1640 9.834-76.145 49.334-130.64 118.5-163.5 19.792-8.595 40.459-13.928 62-16 255.33-0.667 510.67-0.667 766 0 43.68 4.875 82.01 21.541 115 50 45.37 38.377 91.04 76.377 137 114 28.54 18.847 59.87 30.181 94 34 441.99 1.324 883.99 1.991 1326 2 77.31 10.044 132.48 50.211 165.5 120.5 7.82 19.295 12.82 39.295 15 60 0.5 61.67 0.67 123.33 0.5 185z" fill="#43a047"/>
<path d="m2999.5 1165.5c17.69 2.74 35.36 5.91 53 9.5 1.08 0.67 1.75 1.67 2 3 28.18 168.19 32.68 337.02 13.5 506.5-11.97 104.19-34.8 205.86-68.5 305-33.03 92.41-76.87 179.07-131.5 260-24.46 33.24-50.13 65.58-77 97-26.2 26.86-53.03 53.03-80.5 78.5-46.48 38.13-95.48 72.8-147 104-47.04 26.18-95.37 49.68-145 70.5-24.7 9.85-49.7 19.01-75 27.5-149 44.89-301.33 68.89-457 72-64.06 1.52-128.06 0.19-192-4-49.39-3.53-98.73-7.7-148-12.5-2.99-27.61-5.33-55.27-7-83-2.33-32.97-4.16-65.97-5.5-99-4.98-119.78 0.02-239.11 15-358 11.45-83.35 29.11-165.35 53-246 33.56-106.11 81.23-205.11 143-297 15.38-19.72 30.38-39.72 45-60 39.41-47.08 82.58-90.58 129.5-130.5 1-0.33 2-0.67 3-1 17.79-15.06 36.12-29.39 55-43 69.82-48.26 144.49-88.26 224-120 67.48-25.45 136.48-45.79 207-61 164.92-33.57 331.25-42.9 499-28 30.9 3.15 61.57 6.32 92 9.5z" fill="#A5D6A7" opacity=".999"/>
<path d="m2709.5 1494.5c7.67-0.17 15.34 0 23 0.5-45.07 16.54-88.41 36.87-130 61-97.27 54.78-187.6 119.12-271 193-15.7 14.7-31.7 29.04-48 43-37.92 37.92-75.09 76.42-111.5 115.5-18.62 22.96-37.62 45.63-57 68-93.1 116.73-172.93 242.4-239.5 377-0.5 1.02-1.17 1.19-2 0.5 6.63-168.23 50.47-326.06 131.5-473.5 116.36-197.54 287.53-319.37 513.5-365.5 24.5-4.98 49.17-8.98 74-12 39.09-3.5 78.09-6 117-7.5z" fill="#43a047"/>
<path d="m2999.5 1989.5c0.17 143 0 286-0.5 429-8.62 70.79-43.78 123.62-105.5 158.5-20.91 10.41-42.91 17.41-66 21-136.31 1.48-272.65 1.98-409 1.5 49.63-20.82 97.96-44.32 145-70.5 51.52-31.2 100.52-65.87 147-104 27.47-25.47 54.3-51.64 80.5-78.5 26.87-31.42 52.54-63.76 77-97 54.63-80.93 98.47-167.59 131.5-260z" fill="#43a047" opacity=".999"/>
</svg>
