<svg xmlns="http://www.w3.org/2000/svg" viewBox="0 0 16 16">
<path id="folder" fill="#43a047" d="m6.922 3.768-.644-.536A1 1 0 0 0 5.638 3H2a1 1 0 0 0-1 1v8a1 1 0 0 0 1 1h12a1 1 0 0 0 1-1V5a1 1 0 0 0-1-1H7.562a1 1 0 0 1-.64-.232"/>
<path id="motive" fill="#a5d6a7" d="M12.5 6C11 6 9.8 7 9.3 8.5c-.1.3.1.5.4.5h1.3v2.5c0 .3.2.5.5.5s.5-.2.5-.5V9h1c.3 0 .5-.1.5-.4C13.8 7 13.3 6 12.5 6M9 10.5C8 9.5 6.5 9.5 5.5 10c-.2.1-.2.4 0 .5l1.2 1V14c0 .3.2.5.5.5s.5-.2.5-.5v-2.5l1.2-1c.2-.1.2-.4.1-.5 0-.2 0-.3-.1-.5"/>
</svg>
