<svg xmlns="http://www.w3.org/2000/svg" viewBox="0 0 32 32">
  <path d="M13.84376,7.53645l-1.28749-1.0729A2,2,0,0,0,11.27591,6H4A2,2,0,0,0,2,8V24a2,2,0,0,0,2,2H28a2,2,0,0,0,2-2V10a2,2,0,0,0-2-2H15.12412A2,2,0,0,1,13.84376,7.53645Z" style="fill: #0277bd"/>
  <g>
    <path d="M20,21a1,1,0,0,0-1-1,1,1,0,0,0,1-1V14h2V12H20a2,2,0,0,0-2,2v4a1,1,0,0,1-1,1H16v2h1a1,1,0,0,1,1,1v4a2,2,0,0,0,2,2h2V26H20Z" style="fill: #b3e5fc;fill-rule: evenodd"/>
    <path d="M31,19a1,1,0,0,1-1-1V14a2,2,0,0,0-2-2H26v2h2v5a1,1,0,0,0,1,1,1,1,0,0,0-1,1v5H26v2h2a2,2,0,0,0,2-2V22a1,1,0,0,1,1-1h1V19Z" style="fill: #b3e5fc;fill-rule: evenodd"/>
  </g>
</svg>
