<svg width="24" height="24" fill="none" xmlns="http://www.w3.org/2000/svg"><g clip-path="url(#clip0)"><path d="M19 20H4a2 2 0 0 1-2-2V6c0-1.11.89-2 2-2h6l2 2h7c1.097 0 2 .903 2 2H4v10l2.14-8h17.07l-2.28 8.5c-.23.87-1.01 1.5-1.93 1.5z" fill="#009688"/><path d="M10 9l7.104 12.259 7.102-12.2v-.058h-2.762l-4.3 7.385L12.865 9H10z" fill="#E0F2F1"/><path d="M12.863 9l4.28 7.387L21.443 9h-2.59l-1.693 2.907L15.475 9h-2.612z" fill="#35495E"/></g><defs><clipPath id="clip0"><path fill="#fff" d="M0 0h24v24H0z"/></clipPath></defs></svg>