<svg xmlns="http://www.w3.org/2000/svg" viewBox="0 0 32 32"><path d="M28.967 12H9.442a2 2 0 0 0-1.898 1.368L4 24V10h24a2 2 0 0 0-2-2H15.124a2 2 0 0 1-1.28-.464l-1.288-1.072A2 2 0 0 0 11.276 6H4a2 2 0 0 0-2 2v16a2 2 0 0 0 2 2h22l4.805-11.212A2 2 0 0 0 28.967 12" fill="#FF1744"/><g fill="#FF80AB"><path d="M24 12.5c-4 0-8 2-8 4s4 4 8 4 8-2 8-4-4-4-8-4m-8 6V20c0 2 4 4 8 4s8-2 8-4v-2.5c0 2-4 4-8 4s-8-2-8-4m0 4v3c0 2 4 4 8 4s8-2 8-4V21c0 2-4 4-8 4s-8-2-8-4"/><path d="M26 11v6h-4v-6" stroke="#FF1744" stroke-width=".5"/><path d="m20 12 4-5 4 5z"/></g></svg>