<?xml version="1.0" encoding="UTF-8" standalone="no"?>
<svg
   version="1.1"
   width="24"
   height="24"
   viewBox="0 0 24 24"
   id="svg4"
   sodipodi:docname="folder-c++.svg"
   inkscape:version="1.1.1 (1:1.1+202109281949+c3084ef5ed)"
   xmlns:inkscape="http://www.inkscape.org/namespaces/inkscape"
   xmlns:sodipodi="http://sodipodi.sourceforge.net/DTD/sodipodi-0.dtd"
   xmlns="http://www.w3.org/2000/svg"
   xmlns:svg="http://www.w3.org/2000/svg">
  <defs
     id="defs8">
    <linearGradient
       id="a"
       x1="1.725"
       x2="22.185"
       y1="22.67"
       y2="1.982"
       gradientTransform="matrix(0.89324,0,0,0.89324,1.306,1.129)"
       gradientUnits="userSpaceOnUse">
      <stop
         stop-color="#0296d8"
         offset="0"
         id="stop1869" />
      <stop
         stop-color="#8371d9"
         offset="1"
         id="stop1871" />
    </linearGradient>
    <linearGradient
       id="b"
       x1="1.869"
       x2="22.798"
       y1="22.382"
       y2="3.377"
       gradientTransform="matrix(0.89324,0,0,0.89324,1.323,1.129)"
       gradientUnits="userSpaceOnUse">
      <stop
         stop-color="#cb55c0"
         offset="0"
         id="stop1874" />
      <stop
         stop-color="#f28e0e"
         offset="1"
         id="stop1876" />
    </linearGradient>
  </defs>
  <sodipodi:namedview
     id="namedview6"
     pagecolor="#ffffff"
     bordercolor="#666666"
     borderopacity="1.0"
     inkscape:pageshadow="2"
     inkscape:pageopacity="0.0"
     inkscape:pagecheckerboard="0"
     showgrid="false"
     inkscape:zoom="29.458333"
     inkscape:cx="12.967468"
     inkscape:cy="12"
     inkscape:window-width="960"
     inkscape:window-height="1020"
     inkscape:window-x="0"
     inkscape:window-y="28"
     inkscape:window-maximized="0"
     inkscape:current-layer="svg4" />
  <g
     id="g3940"
     style="fill:#0277bd;fill-opacity:0.38368964">
    <path
       d="M10,4H4C2.89,4 2,4.89 2,6V18A2,2 0 0,0 4,20H20A2,2 0 0,0 22,18V8C22,6.89 21.1,6 20,6H12L10,4Z"
       id="path2"
       style="fill:#0277bd;fill-opacity:0.38368964" />
  </g>
  <path
     d="M 12.218717,11.854929 12.560818,9.8506429 C 12.343876,9.7356429 11.993432,9.6288571 11.526173,9.5302857 11.05057,9.4235 10.491527,9.366 9.8490461,9.366 8.0050414,9.3988571 6.6199518,9.941 5.6937774,10.976 4.7592591,12.019214 4.292,13.341714 4.292,14.9435 c 0.04172,1.8975 0.6007617,3.351429 1.6687827,4.37 1.1013965,1.026786 2.4697983,1.5525 4.1218933,1.5525 0.625793,0 1.168147,-0.0575 1.618719,-0.156071 0.450571,-0.09857 0.784328,-0.205358 1.001269,-0.328572 L 12.218717,18.336 11.334263,18.615286 c -0.333757,0.08214 -0.717577,0.123214 -1.159804,0.123214 -0.9678942,0.0082 -1.7689098,-0.295714 -2.3947033,-0.903571 -0.6341374,-0.599643 -0.95955,-1.519643 -0.9845817,-2.743572 0,-1.117143 0.3087248,-1.987857 0.9011426,-2.628571 0.5924178,-0.6325 1.4268091,-0.961072 2.4948304,-0.969286 l 1.10974,0.09857 c 0.358788,0.06571 0.659169,0.156072 0.91783,0.262857 m 0.417196,4.0825 h 1.668783 v 1.642858 h 1.668782 v -1.642857 h 1.668783 v -1.642858 h -1.668783 v -1.642857 h -1.668782 v 1.642857 h -1.668783 v 1.642858 m 5.840739,0 h 1.668783 v 1.642857 h 1.668782 V 15.937429 H 23.483 v -1.642858 h -1.668783 v -1.642857 h -1.668782 v 1.642857 h -1.668783 z"
     style="fill:#0277bd;stroke-width:0.827884"
     id="path4372" />
</svg>
