<svg xmlns="http://www.w3.org/2000/svg" viewBox="0 0 32 32"><path fill="#ff9800" d="M28.967 12H9.442a2 2 0 0 0-1.898 1.368L4 24V10h24a2 2 0 0 0-2-2H15.124a2 2 0 0 1-1.28-.464l-1.288-1.072A2 2 0 0 0 11.276 6H4a2 2 0 0 0-2 2v16a2 2 0 0 0 2 2h22l4.805-11.212A2 2 0 0 0 28.967 12"/><g fill="#ffe0b2" fill-rule="evenodd"><path d="M19.716 20.926a3.215 3.215 0 0 1 3.21-3.216 3.215 3.215 0 0 1 3.22 3.206 3.215 3.215 0 0 1-3.2 3.224 3.215 3.215 0 0 1-3.23-3.195z" paint-order="stroke fill markers"/><path d="m25.595 13.309-2.8-2.862s-.957-.987-1.943-.03-.03 1.943-.03 1.943l.107.17c.445.444.907.88 1.353 1.324h-7.715s-1.286 0-1.286 1.285c0 1.286 1.286 1.286 1.286 1.286h2.572l-3.858 3.858-.857.907s-.967.966 0 1.933c.966.966 1.933 0 1.933 0l1.496-1.554.04.122q.039.357.112.701a7.08 7.08 0 0 0 5.528 5.47q.692.14 1.425.137a7.073 7.073 0 0 0 7.04-7.094c0-3.505-2.572-5.766-4.403-7.597zm-2.676 3.116a4.5 4.5 0 1 1-4.494 4.529v-.028a4.5 4.5 0 0 1 4.494-4.5"/></g></svg>