<svg xmlns="http://www.w3.org/2000/svg" viewBox="0 0 32 32">
  <path d="M28.96692,12H9.44152a2,2,0,0,0-1.89737,1.36754L4,24V10H28a2,2,0,0,0-2-2H15.1241a2,2,0,0,1-1.28038-.46357L12.5563,6.46357A2,2,0,0,0,11.27592,6H4A2,2,0,0,0,2,8V24a2,2,0,0,0,2,2H26l4.80523-11.21213A2,2,0,0,0,28.96692,12Z" style="fill: #ef5350"/>
  <path d="M22.433,17.93658a14.72634,14.72634,0,0,1-1.015,2.40776,8.61236,8.61236,0,0,0-.49424,1.03546l.10886-.04119a18.31533,18.31533,0,0,1,3.342-.92368q-.21747-.15136-.41922-.32357A6.25015,6.25015,0,0,1,22.433,17.93658ZM28.90659,21.749a1.13952,1.13952,0,0,1-.89874.29858,7.24192,7.24192,0,0,1-2.986-.73836,19.88483,19.88483,0,0,0-4.04658.75012l-.18387.0706c-1.24294,2.12241-2.1623,3.06962-2.97426,3.06962a.9739.9739,0,0,1-.43981-.10442l-.47953-.31476-.02353-.05295a.83379.83379,0,0,1-.05295-.53833,3.79671,3.79671,0,0,1,1.8828-2.118,5.51129,5.51129,0,0,1,.88993-.48979c.29566-.52214.61632-1.12811.95171-1.8047a17.2592,17.2592,0,0,0,1.087-2.924l-.00442-.01177a4.94322,4.94322,0,0,1-.21917-3.26524c.11032-.38537.41922-.77513.79431-.77513h.23683a.84522.84522,0,0,1,.60749.24563c.659.65893.35744,2.26654.02207,3.5947l-.03531.1412a5.79449,5.79449,0,0,0,1.596,2.55631,7.72147,7.72147,0,0,0,.862.58538,11.97486,11.97486,0,0,1,1.29885-.07353c1.24,0,1.98578.22356,2.277.6854a.80891.80891,0,0,1,.12356.55156A.9589.9589,0,0,1,28.90659,21.749ZM30,10H16a2,2,0,0,0-2,2V26a2,2,0,0,0,2,2H29.99951A2.00249,2.00249,0,0,0,32,25.99968V12A2,2,0,0,0,30,10ZM28.51385,21.043c-.11179-.1059-.52218-.35593-1.91812-.35593a.26037.26037,0,0,0-.22947.1,5.42705,5.42705,0,0,0,1.90194.51185,1.31813,1.31813,0,0,0,.19564-.01471l.03383-.00587c.04854-.01472.08091-.03089.08973-.12944A.67288.67288,0,0,0,28.51385,21.043Zm-9.1846,1.45466a3.84711,3.84711,0,0,0-.47512.31475,3.66093,3.66093,0,0,0-1.215,1.69146c.45452-.15591,1.0429-.81189,1.69159-2.00621Zm3.01544-6.90554.0559-.03677c.07354-.32359.12062-.60158.16033-.82367l.02943-.16179c.09708-.54126.08531-.85308-.09709-1.09577l-.14709-.05a.75717.75717,0,0,0-.06767.11766,3.64983,3.64983,0,0,0,.06767,2.05033Z" style="fill: #ffcdd2;fill-rule: evenodd"/>
</svg>
