<svg xmlns="http://www.w3.org/2000/svg" viewBox="0 0 16 16"><path fill="#00acc1" d="M14.483 6H4.721a1 1 0 0 0-.949.684L2 12V5h12a1 1 0 0 0-1-1H7.562a1 1 0 0 1-.64-.232l-.644-.536A1 1 0 0 0 5.638 3H2a1 1 0 0 0-1 1v8a1 1 0 0 0 1 1h11l2.403-5.606A1 1 0 0 0 14.483 6"/><path fill="#b2ebf2" d="M4 10v.5h2V10zm-1.5 1v.5h3V11zM4 12v.5h1.5V12zm9.652-2.996a3.4 3.4 0 0 0-.5.053c-.788.138-1.37.468-1.853 1.101-.45.587-.657 1.245-.537 1.99.08.508.324.938.715 1.274.463.395 1.014.567 1.617.58.172-.02.35-.028.529-.06a3.04 3.04 0 0 0 1.59-.844c.616-.62.874-1.345.762-2.235-.087-.633-.41-1.114-.934-1.47a2.3 2.3 0 0 0-1.389-.39m-.119 1.209a1.08 1.08 0 0 1 1.117.908c.014.066.013.131.02.217-.033.567-.319.99-.842 1.26a1.22 1.22 0 0 1-1.078.039 1.084 1.084 0 0 1-.61-1.246c.146-.62.543-1.008 1.159-1.147q.118-.028.234-.031m-4.627-1.21q-.228.005-.46.047a2.95 2.95 0 0 0-1.856 1.13c-.438.562-.65 1.203-.565 1.915q.108.9.842 1.45c.53.391 1.134.516 1.783.43.789-.104 1.412-.49 1.889-1.11.292-.38.472-.81.545-1.28.026-.176.026-.408.039-.584H8.71c-.1 0-.146.121-.166.16-.093.17-.252.509-.338.711-.046.111-.014.13.125.13h1.28c-.067.09-.119.236-.178.308-.299.333-.677.49-1.127.431a1.03 1.03 0 0 1-.895-1.025c-.007-.53.225-.955.676-1.242.378-.242.781-.3 1.199-.098.14.065.211.137.31.248.087.098.094.093.194.067.41-.105.696-.183 1.113-.288q.057-.014.076-.039.019-.027-.01-.072a2.06 2.06 0 0 0-.769-.922 2.2 2.2 0 0 0-1.295-.367"/></svg>