<svg xmlns="http://www.w3.org/2000/svg" viewBox="0 0 16 16">
<path id="folder" fill="#f44336" d="M14.483 6H4.721a1 1 0 0 0-.949.684L2 12V5h12a1 1 0 0 0-1-1H7.562a1 1 0 0 1-.64-.232l-.644-.536A1 1 0 0 0 5.638 3H2a1 1 0 0 0-1 1v8a1 1 0 0 0 1 1h11l2.403-5.606A1 1 0 0 0 14.483 6" />
<path id="motive" fill="#ffcdd2" d="M 11.50042,6 A 3.4995156,1.4999875 0 0 0 8.0009053,7.4999871 3.4995156,1.4999875 0 0 0 11.50042,8.9999751 3.4995156,1.4999875 0 0 0 14.999936,7.4999871 3.4995156,1.4999875 0 0 0 11.50042,6 m 3.499516,2.4999791 c -0.110985,0.1 -0.21897,0.208498 -0.351452,0.290998 -0.419942,0.232998 -0.883377,0.361996 -1.350313,0.478496 -0.819386,0.204998 -1.534287,0.336497 -2.822109,0.681494 -0.6159147,0.1649979 -1.6447717,0.5349949 -2.1522017,1.2469889 -0.342953,0.480496 -0.321955,1.057991 -0.322955,1.301989 0.218969,-0.144998 0.454936,-0.409996 1.629774,-0.754993 a 30.495779,30.499745 0 0 1 1.5727817,-0.388497 c 0.392446,-0.0875 0.784892,-0.164499 1.176837,-0.257998 1.426803,-0.348497 1.815749,-0.534995 2.162701,-0.769493 0.303958,-0.206499 0.457937,-0.4549969 0.456937,-0.8289929 0,0 -0.012,-0.670995 0,-0.999992 m 0,2.2264809 c -0.694904,0.389997 -1.122845,0.607495 -2.162701,0.840993 -0.883378,0.199999 -1.764756,0.404997 -2.647133,0.609995 -0.5939177,0.140999 -1.7777537,0.487496 -2.0897107,1.072491 -0.14348,0.267998 -0.14798,0.581995 0.08399,0.821493 0.025,0.025 0.279961,0.261998 0.368949,0.292998 0,0 0.108985,-0.053 0.417942,-0.196499 0.57992,-0.267997 1.1983337,-0.428996 1.8197477,-0.580995 0.912374,-0.212498 1.829747,-0.408996 2.724623,-0.691494 0.409443,-0.125999 0.802389,-0.290998 1.129844,-0.564995 0.231968,-0.194999 0.354451,-0.330497 0.354451,-0.830493 z m 0,2.073483 c 0,0 -0.252465,0.253498 -1.006861,0.537995 -1.886739,0.651495 -2.978088,0.661995 -4.4793797,1.23699 -0.07499,0.029 -0.193973,0.0735 -0.265963,0.105499 0.06199,0.025 0.35845,0.117999 0.355451,0.114499 0.4799327,0.121499 1.1823357,0.207998 1.8972367,0.204998 0.266963,-0.0065 2.143204,0.064 3.081574,-0.694994 0.191973,-0.169998 0.416442,-0.304997 0.417942,-0.804993 z" />
</svg>
