<svg xmlns="http://www.w3.org/2000/svg" viewBox="0 0 16 16"><path id="folder" fill="#0097a7" d="m6.922 3.768-.644-.536A1 1 0 0 0 5.638 3H2a1 1 0 0 0-1 1v8a1 1 0 0 0 1 1h12a1 1 0 0 0 1-1V5a1 1 0 0 0-1-1H7.562a1 1 0 0 1-.64-.232"/><path id="motive" fill="#b2ebf2" d="M15.7 6.846A1.65 1.65 0 0 0 14.265 6c-.548-.01-.999.296-.914.498a3 3 0 0 0 .185.363c.091.135.255.03.312 0a.92.92 0 0 1 .562-.097.84.84 0 0 1 .638.49c.416.81-.868 2.473-2.475 1.32a4.17 4.17 0 0 0-3.877-.538c-.707.233-1.032.466-.752 1.006a11 11 0 0 0 .621 1.116c.585.965 1.866-.444 1.866-.444-.954 1.423-1.772 1.08-2.086.582a8 8 0 0 1-.501-.965C5.427 10.193 6.08 14 6.08 14h1.2c.305-1.402 1.4-1.35 1.586 0h.916c.81-2.738 2.863 0 2.863 0h1.194c-.335-1.866.67-2.454 1.305-3.548.634-1.095 1.234-2.434.555-3.606M12.62 10.45a.64.64 0 0 1-.423-.795l.017-.05s.552.18 1.297.427a.715.715 0 0 1-.891.418"/></svg>