<?xml version="1.0" encoding="UTF-8" standalone="no"?>
<svg
   xmlns:dc="http://purl.org/dc/elements/1.1/"
   xmlns:cc="http://creativecommons.org/ns#"
   xmlns:rdf="http://www.w3.org/1999/02/22-rdf-syntax-ns#"
   xmlns:svg="http://www.w3.org/2000/svg"
   xmlns="http://www.w3.org/2000/svg"
   xmlns:sodipodi="http://sodipodi.sourceforge.net/DTD/sodipodi-0.dtd"
   xmlns:inkscape="http://www.inkscape.org/namespaces/inkscape"
   version="1.1"
   width="25.6"
   height="25.6"
   viewBox="0 0 24 24"
   id="svg3336"
   inkscape:version="0.92.1 r15371"
   sodipodi:docname="folder-src.svg">
  <metadata
     id="metadata3344">
    <rdf:RDF>
      <cc:Work
         rdf:about="">
        <dc:format>image/svg+xml</dc:format>
        <dc:type
           rdf:resource="http://purl.org/dc/dcmitype/StillImage" />
      </cc:Work>
    </rdf:RDF>
  </metadata>
  <defs
     id="defs3342" />
  <sodipodi:namedview
     pagecolor="#ffffff"
     bordercolor="#666666"
     borderopacity="1"
     objecttolerance="10"
     gridtolerance="10"
     guidetolerance="10"
     inkscape:pageopacity="0"
     inkscape:pageshadow="2"
     inkscape:window-width="1366"
     inkscape:window-height="705"
     id="namedview3340"
     showgrid="false"
     inkscape:zoom="11.041667"
     inkscape:cx="9.663995"
     inkscape:cy="18.797641"
     inkscape:window-x="-8"
     inkscape:window-y="-8"
     inkscape:window-maximized="1"
     inkscape:current-layer="svg3336" />
  <path
     style="fill:#90a4ae;fill-opacity:1;stroke-width:1.06666672"
     d="M 4.2675781 4.2675781 C 3.0835781 4.2675781 2.1328125 5.2163906 2.1328125 6.4003906 L 2.1328125 19.199219 A 2.1333334 2.1333334 0 0 0 4.2675781 21.333984 L 21.333984 21.333984 A 2.1333334 2.1333334 0 0 0 23.466797 19.199219 L 23.466797 8.5332031 C 23.466797 7.3492031 22.507318 6.4003906 21.333984 6.4003906 L 12.800781 6.4003906 L 10.666016 4.2675781 L 4.2675781 4.2675781 z M 10.769531 9.8261719 L 12.169922 11.226562 L 9.5703125 13.826172 L 12.169922 16.425781 L 10.769531 17.826172 L 6.7695312 13.826172 L 10.769531 9.8261719 z M 14.769531 9.8261719 L 18.769531 13.826172 L 14.769531 17.826172 L 13.369141 16.425781 L 15.970703 13.826172 L 13.369141 11.226562 L 14.769531 9.8261719 z "
     transform="scale(0.93749999)"
     id="path3338" />
</svg>
