<?xml version="1.0" encoding="UTF-8" standalone="no"?>
<!DOCTYPE svg PUBLIC "-//W3C//DTD SVG 1.1//EN" "http://www.w3.org/Graphics/SVG/1.1/DTD/svg11.dtd">
<svg width="100%" height="100%" viewBox="0 0 24 24" version="1.1" xmlns="http://www.w3.org/2000/svg" xmlns:xlink="http://www.w3.org/1999/xlink" xml:space="preserve" style="fill-rule:evenodd;clip-rule:evenodd;stroke-linejoin:round;stroke-miterlimit:1.41421;">
    <path id="path3338" d="M10,4L4,4C2.89,4 2,4.89 2,6L2,18C2,19.097 2.903,20 4,20L20,20C21.097,20 22,19.097 22,18L22,8C22,6.89 21.1,6 20,6L12,6L10,4Z" style="fill:rgb(239,154,154);fill-rule:nonzero;"/>
    <g id="path4" transform="matrix(1,0,0,1,5,5.40278)">
        <path d="M9.62,12L12,5.67L14.37,12M11,3L5.5,17L7.75,17L8.87,14L15.12,14L16.25,17L18.5,17L13,3L11,3Z" style="fill:rgb(244,67,54);fill-rule:nonzero;"/>
    </g>
</svg>
