<svg xmlns="http://www.w3.org/2000/svg" viewBox="0 0 16 16"><path id="folder" fill="#f44336" d="m6.922 3.768-.644-.536A1 1 0 0 0 5.638 3H2a1 1 0 0 0-1 1v8a1 1 0 0 0 1 1h12a1 1 0 0 0 1-1V5a1 1 0 0 0-1-1H7.562a1 1 0 0 1-.64-.232"/><path id="motive" fill="#ffcdd2" d="M11.5 6A3.5 1.5 0 0 0 8 7.5 3.5 1.5 0 0 0 11.5 9 3.5 1.5 0 0 0 15 7.5 3.5 1.5 0 0 0 11.5 6M15 8.5c-.111.1-.219.208-.352.291-.42.233-.883.362-1.35.478-.82.205-1.534.337-2.822.682-.616.165-1.645.535-2.152 1.247-.343.48-.322 1.058-.323 1.302.219-.145.455-.41 1.63-.755a30.496 30.5 0 0 1 1.572-.389c.393-.087.785-.164 1.177-.258 1.427-.348 1.816-.535 2.163-.769.304-.207.458-.455.457-.829 0 0-.012-.671 0-1m0 2.226c-.695.39-1.123.608-2.163.841q-1.324.301-2.647.61c-.594.141-1.778.488-2.09 1.073-.143.268-.148.582.084.821.025.025.28.262.37.293 0 0 .108-.053.417-.196.58-.268 1.199-.43 1.82-.581.912-.213 1.83-.41 2.725-.692.41-.126.802-.29 1.13-.565.231-.195.354-.33.354-.83zm0 2.074s-.253.253-1.007.538c-1.887.651-2.978.662-4.48 1.237-.074.029-.193.073-.265.105.062.025.358.118.355.115.48.121 1.183.208 1.897.205.267-.007 2.144.064 3.082-.695.192-.17.416-.305.418-.805z"/></svg>