<svg width="22" height="18" viewBox="0 0 22 18" fill="none" xmlns="http://www.w3.org/2000/svg">
<path d="M8 0H2C0.89 0 0 0.89 0 2V14C0 15.097 0.903 16 2 16H18C19.097 16 20 15.097 20 14V4C20 3.46957 19.7893 2.96086 19.4142 2.58579C19.0391 2.21071 18.5304 2 18 2H10L8 0Z" fill="#8F9395" fill-opacity="0.3"/>
<mask id="path-2-inside-1_2_25" fill="white">
<ellipse cx="14.6" cy="10.55" rx="6.6" ry="6.55"/>
</mask>
<path d="M9.2 10.55C9.2 7.45418 11.7039 5.1 14.6 5.1V29.1C24.7863 29.1 33.2 20.8808 33.2 10.55H9.2ZM14.6 5.1C17.4961 5.1 20 7.45418 20 10.55H-4C-4 20.8808 4.4137 29.1 14.6 29.1V5.1ZM20 10.55C20 13.6458 17.4961 16 14.6 16V-8C4.4137 -8 -4 0.219247 -4 10.55H20ZM14.6 16C11.7039 16 9.2 13.6458 9.2 10.55H33.2C33.2 0.219247 24.7863 -8 14.6 -8V16Z" fill="#040707" mask="url(#path-2-inside-1_2_25)"/>
<ellipse cx="14.6" cy="10.55" rx="3.4" ry="3.35" fill="#F73D48"/>
<ellipse cx="19.2" cy="6.95" rx="1.5" ry="1.45" fill="#F73D48"/>
</svg>
