<svg xmlns="http://www.w3.org/2000/svg" viewBox="0 0 32 32">
  <path d="M28.96692,12H9.44152a2,2,0,0,0-1.89737,1.36754L4,24V10H28a2,2,0,0,0-2-2H15.1241a2,2,0,0,1-1.28038-.46357L12.5563,6.46357A2,2,0,0,0,11.27592,6H4A2,2,0,0,0,2,8V24a2,2,0,0,0,2,2H26l4.80523-11.21213A2,2,0,0,0,28.96692,12Z" style="fill: #ab47bc"/>

  <g transform="translate(16 12) scale(0.5)">
    <circle cx="16" cy="16" r="16" fill="#ce93d8"/>
    <path d="M16 4 L24 28 L16 22 L8 28 Z" fill="white"/>
    <path d="M16 6 L20 12 L16 10 L12 12 Z" fill="#ab47bc"/>
  </g>
</svg>