<?xml version="1.0" encoding="UTF-8" standalone="no"?>
<svg
   xmlns:dc="http://purl.org/dc/elements/1.1/"
   xmlns:cc="http://creativecommons.org/ns#"
   xmlns:rdf="http://www.w3.org/1999/02/22-rdf-syntax-ns#"
   xmlns:svg="http://www.w3.org/2000/svg"
   xmlns="http://www.w3.org/2000/svg"
   id="svg8"
   xml:space="preserve"
   viewBox="0 0 24 24"
   version="1.1"
   style="enable-background:new 0 0 24 24"><metadata
   id="metadata14"><rdf:RDF><cc:Work
       rdf:about=""><dc:format>image/svg+xml</dc:format><dc:type
         rdf:resource="http://purl.org/dc/dcmitype/StillImage" /><dc:title></dc:title></cc:Work></rdf:RDF></metadata><defs
   id="defs12" />
<style
   id="style2"
   type="text/css">
	.st0{fill:#FF5252;}
	.st1{fill:#FFCDD2;}
</style>
<path
   id="path4"
   style="fill:#00bfa5;fill-opacity:1;stroke:none"
   d="m19 20h-15c-1.1 0-2-.9-2-2v-12c0-1.1.9-2 2-2h6l2 2h7c1.1 0 2 .9 2 2h-17v10l2.1-8h17.1l-2.3 8.5c-.2.9-1 1.5-1.9 1.5z"
   class="st0" />
<style
   type="text/css"
   id="style821">
	.st0{fill-rule:evenodd;clip-rule:evenodd;fill:#4A4A4D;stroke:#FFFFFF;stroke-miterlimit:10;}
	.st1{fill-rule:evenodd;clip-rule:evenodd;fill:#FFFFFF;}
</style><g
   style="stroke:none"
   transform="matrix(0.21428571,0,0,0.21428571,9.5928573,7.4714286)"
   id="g840"><path
     style="clip-rule:evenodd;fill:#4a4a4d;fill-rule:evenodd;stroke:none;stroke-miterlimit:10"
     class="st0"
     d="M 35.5,9 C 50.7,9 63,21.3 63,36.5 63,51.7 50.7,64 35.5,64 20.3,64 8,51.7 8,36.5 8,21.3 20.3,9 35.5,9 Z"
     id="path823" /><path
     style="clip-rule:evenodd;fill:#ffffff;fill-rule:evenodd;stroke:none"
     class="st1"
     d="m 50.1,48.6 c -1,3.1 -2.5,5.4 -4.6,7.1 -2.1,1.7 -4.9,2.6 -8.4,2.9 L 36.4,54 c 2.3,-0.3 4,-0.8 5.1,-1.6 0.4,-0.3 1.2,-1.2 1.2,-1.2 v 0 L 34.4,24.6 h 6.9 l 4.8,19.9 5.1,-19.9 h 6.7 z"
     id="path825" /><path
     style="clip-rule:evenodd;fill:#ffffff;fill-rule:evenodd;stroke:none"
     class="st1"
     d="m 26,23.7 c 1.6,0 3.1,0.2 4.3,0.7 1.3,0.5 2.5,1.2 3.7,2.2 l -2.8,3.8 c -0.8,-0.6 -1.6,-1 -2.3,-1.3 -0.7,-0.3 -1.6,-0.4 -2.4,-0.4 -3.4,0 -5.1,2.6 -5.1,7.9 0,2.7 0.4,4.6 1.3,5.7 0.9,1.2 2.1,1.7 3.8,1.7 0.8,0 1.6,-0.1 2.3,-0.4 0.7,-0.3 1.5,-0.7 2.5,-1.3 l 2.8,4 c -2.3,1.9 -4.9,2.8 -7.9,2.8 -2.4,0 -4.4,-0.5 -6.2,-1.5 -1.7,-1 -3.1,-2.5 -4,-4.4 -0.9,-1.9 -1.4,-4.1 -1.4,-6.7 0,-2.5 0.5,-4.8 1.4,-6.7 0.9,-2 2.3,-3.5 4,-4.6 1.7,-0.9 3.7,-1.5 6,-1.5 z"
     id="path827" /></g></svg>