<svg xmlns="http://www.w3.org/2000/svg" viewBox="0 0 16 16">
<path id="folder" fill="#ab47bc" d="M14.483 6H4.721a1 1 0 0 0-.949.684L2 12V5h12a1 1 0 0 0-1-1H7.562a1 1 0 0 1-.64-.232l-.644-.536A1 1 0 0 0 5.638 3H2a1 1 0 0 0-1 1v8a1 1 0 0 0 1 1h11l2.403-5.606A1 1 0 0 0 14.483 6" />
<path id="motive" fill="#e1bee7" d="m 12.047945,14 -0.729692,-1.707226 c 0.701474,-0.259031 1.35295,-0.606716 1.965317,-1.01235 z M 8.706905,9.6796834 7,8.9536044 9.723227,7.7188744 a 9.2077839,9.2121854 0 0 0 -1.016322,1.961304 m 7.120192,-4.507037 c 0,0 -2.206898,-0.9444962 -4.727653,1.578454 -0.977213,0.975699 -1.561363,2.050454 -1.937595,2.991484 a 0.88612544,0.88654904 0 0 0 0.202472,0.9489536 l 0.948501,0.944992 c 0.247521,0.249621 0.612367,0.329855 0.94355,0.205045 a 8.5147249,8.5187949 0 0 0 2.993025,-1.9385206 c 2.52125,-2.523446 1.5777,-4.729912 1.5777,-4.729912 m -3.155399,3.151458 a 0.90097674,0.90140744 0 0 1 0,-1.261474 0.89602629,0.89645459 0 0 1 1.263347,0 0.89602629,0.89645459 0 0 1 0,1.261474 0.89602629,0.89645459 0 0 1 -1.263347,0 M 10.150448,11.47705 9.526695,10.848046 Z m -1.173745,2.438257 1.622748,-1.622533 A 1.386118,1.3867806 0 0 1 10.16728,12.091691 L 8.348,13.915307 Z m -1.886606,0 h 0.623259 l 2.128186,-2.121774 -0.634644,-0.629004 -2.116801,2.12227 z m 0,-1.26197 1.81928,-1.818168 A 1.2871096,1.2877248 0 0 1 8.7074,10.402295 l -1.617303,1.623028 z" />
</svg>
