<svg xmlns="http://www.w3.org/2000/svg" viewBox="0 0 16 16"><path id="folder" fill="#afb42b" d="m6.922 3.768-.644-.536A1 1 0 0 0 5.638 3H2a1 1 0 0 0-1 1v8a1 1 0 0 0 1 1h12a1 1 0 0 0 1-1V5a1 1 0 0 0-1-1H7.562a1 1 0 0 1-.64-.232"/><path id="motive" fill="#f0f4c3" d="M14.089 6a.8.8 0 0 0-.57.234L11.21 8.579l2.246 2.278 2.314-2.342a.823.823 0 0 0 0-1.14l-1.13-1.141A.77.77 0 0 0 14.09 6m-3.26 2.962-2.37 2.402a.817.817 0 0 0 .004 1.145l.004.004c-.486.496-.978.992-1.467 1.487h2.25l.342-.346a.79.79 0 0 0 1.117-.008l2.366-2.402"/></svg>