<svg xmlns="http://www.w3.org/2000/svg" xml:space="preserve" viewBox="0 0 32 32"><path fill="#ef5350" d="m13.844 7.536-1.288-1.072A2 2 0 0 0 11.276 6H4a2 2 0 0 0-2 2v16a2 2 0 0 0 2 2h24a2 2 0 0 0 2-2V10a2 2 0 0 0-2-2H15.124a2 2 0 0 1-1.28-.464"/><path fill="#ffcdd2" d="M24 10a2.917 2.92 0 0 0-1.305.308l-5.39 2.7A2.36 2.363 0 0 0 16 15.12v7.759a2.36 2.363 0 0 0 1.304 2.111l5.39 2.701a2.917 2.92 0 0 0 2.61 0l5.39-2.7A2.36 2.363 0 0 0 32 22.878V15.12a2.36 2.363 0 0 0-1.304-2.112l-5.391-2.7A2.917 2.92 0 0 0 23.999 10m0 1.33a2.875 2.878 0 0 1 1.286.305l4.047 2.025-1.667.834-3.667-1.835-3.666 1.835-1.667-.834 4.047-2.025A2.875 2.878 0 0 1 24 11.329zm-5.735 3.545a.882.883 0 0 1 .344.091l5.39 2.699 5.39-2.699a.882.883 0 0 1 .313-.088.882.883 0 0 1 .964.878v6.153a2.308 2.31 0 0 1-1.276 2.067l-4.114 2.06a2.853 2.856 0 0 1-2.553 0l-4.114-2.06a2.308 2.31 0 0 1-1.276-2.067v-6.153a.882.883 0 0 1 .932-.881m.401 1.788v5.673L24 25.006l5.334-2.67v-5.673l-4.133 2.07a2.683 2.686 0 0 1-2.401 0z"/></svg>