<svg xmlns="http://www.w3.org/2000/svg" viewBox="0 0 32 32">
  <path d="M28.96692,12H9.44152a2,2,0,0,0-1.89737,1.36754L4,24V10H28a2,2,0,0,0-2-2H15.1241a2,2,0,0,1-1.28038-.46357L12.5563,6.46357A2,2,0,0,0,11.27592,6H4A2,2,0,0,0,2,8V24a2,2,0,0,0,2,2H26l4.80523-11.21213A2,2,0,0,0,28.96692,12Z" style="fill: #5c6bc0"/>
  <g>
    <polygon points="23.08 24 20 21.108 21.378 19.643 23.096 21.255 26.638 18 28 19.48 23.08 24" style="fill: #c5cae9"/>
    <path d="M30,12V10H28v2H20V10H18v2a2,2,0,0,0-2,2V26a2,2,0,0,0,2,2H30a2,2,0,0,0,2-2V14A2,2,0,0,0,30,12Zm0,14H18V16H30Z" style="fill: #c5cae9;fill-rule: evenodd"/>
  </g>
</svg>
