<svg xmlns="http://www.w3.org/2000/svg" viewBox="0 0 32 32">
  <path d="M28.96692,12H9.44152a2,2,0,0,0-1.89737,1.36754L4,24V10H28a2,2,0,0,0-2-2H15.1241a2,2,0,0,1-1.28038-.46357L12.5563,6.46357A2,2,0,0,0,11.27592,6H4A2,2,0,0,0,2,8V24a2,2,0,0,0,2,2H26l4.80523-11.21213A2,2,0,0,0,28.96692,12Z" style="fill: #ef5350"/>
  <g>
    <path d="M25.94784,24.11362a1.65288,1.65288,0,0,0,.97045-.599,1.79179,1.79179,0,0,0,.381-1.27508,1.721,1.721,0,0,0-1.69008-1.59529h-.06078a1.72417,1.72417,0,0,0-1.60857,1.81424,1.8528,1.8528,0,0,0,.34.98476A8.8467,8.8467,0,0,1,20.416,27.24151a6.14612,6.14612,0,0,1-3.87649.77161,3.13084,3.13084,0,0,1-2.32-1.41108,3.66824,3.66824,0,0,1-.17991-3.73842,5.81551,5.81551,0,0,1,1.60567-1.98592.29769.29769,0,0,0,.09792-.3125c-.124-.42052-.23007-.85745-.31545-1.29822a.289.289,0,0,0-.17171-.21316.27756.27756,0,0,0-.272.03569c-3.7313,2.83661-3.32566,6.76311-2.18833,8.57928a5.357,5.357,0,0,0,4.29418,2.229c.082,0,.16448-.001.24069-.00482h.03906a6.03018,6.03018,0,0,0,1.49957-.18808A9.88383,9.88383,0,0,0,25.94784,24.11362Z" style="fill: #ffcdd2;stroke: #ffcdd2;stroke-linejoin: round;stroke-width: 0.293000012636185px"/>
    <path d="M30.32692,20.42824a10.12255,10.12255,0,0,0-7.77372-3.69116c-.08826,0-.177.00192-.26528.00385h-.23344a1.60759,1.60759,0,0,0-1.37706-.77932h-.05354a1.62174,1.62174,0,0,0-1.17495.53434,1.80641,1.80641,0,0,0,.03907,2.46624,1.66511,1.66511,0,0,0,1.18942.49383h.06415a1.677,1.677,0,0,0,1.37513-.88638h.27107A8.833,8.833,0,0,1,27.513,20.21605a6.60924,6.60924,0,0,1,2.52162,3.20216A3.4752,3.4752,0,0,1,29.9888,26.249a3.38973,3.38973,0,0,1-3.13707,1.97048,5.79193,5.79193,0,0,1-2.32-.52276.27183.27183,0,0,0-.30338.054c-.26.24788-.74906.65876-1.08862.91242a.29416.29416,0,0,0,.03907.4948,7.68491,7.68491,0,0,0,3.31312.83912c.06415.00193.12782.00289.192.00289a5.658,5.658,0,0,0,4.886-2.94753A6.39308,6.39308,0,0,0,30.32692,20.42824Z" style="fill: #ffcdd2;stroke: #ffcdd2;stroke-linejoin: round;stroke-width: 0.293000012636185px"/>
    <path d="M17.249,24.295l.123-.00965-.12348.01929a1.70487,1.70487,0,0,0,1.66983,1.6821h.05353a1.71472,1.71472,0,0,0,1.64041-1.77759,1.77628,1.77628,0,0,0-.50741-1.22395,1.61217,1.61217,0,0,0-1.18653-.49287h-.07621a9.57683,9.57683,0,0,1-1.15422-5.44849,6.83387,6.83387,0,0,1,1.38959-3.8532,3.967,3.967,0,0,1,2.84286-1.36285h.0545c2.43818,0,3.4149,3.34008,3.47664,4.4917a.28777.28777,0,0,0,.21608.26428c.299.0733.82237.246,1.21306.38387a.27437.27437,0,0,0,.26673-.04726.29158.29158,0,0,0,.10418-.24691C26.92842,12.08816,24.20422,10,21.80415,10a5.95758,5.95758,0,0,0-5.35965,4.39043,11.37921,11.37921,0,0,0,.93572,9.15413A1.51662,1.51662,0,0,0,17.249,24.295Z" style="fill: #ffcdd2;stroke: #ffcdd2;stroke-linejoin: round;stroke-width: 0.293000012636185px"/>
  </g>
</svg>
