<svg xmlns="http://www.w3.org/2000/svg" viewBox="0 0 32 32"><path fill="#8d6e63" d="M28.967 12H9.442a2 2 0 0 0-1.898 1.368L4 24V10h24a2 2 0 0 0-2-2H15.124a2 2 0 0 1-1.28-.464l-1.288-1.072A2 2 0 0 0 11.276 6H4a2 2 0 0 0-2 2v16a2 2 0 0 0 2 2h22l4.805-11.212A2 2 0 0 0 28.967 12Z"/><path fill="#5d4037" d="M31.598 20.789c-1.028-1.012-6.166-1.644-7.786-1.827a4.902 4.902 0 0 0 .2-.589 6.39 6.39 0 0 1 .707-.269c.03.092.171.439.251.605a3.165 3.165 0 0 0 3.533-2.78 3.306 3.306 0 0 0 .027-.407 4.012 4.012 0 0 1 1.241-2.574c-1.666-.498-4.062.77-4.864 2.657a4.91 4.91 0 0 0-.902-.253A4.396 4.396 0 0 0 19.75 12a8.07 8.07 0 0 0-7.746 8.364l.002.07c0 4.46 2.97 8.365 4.647 8.365a1.653 1.653 0 0 0 1.511-1.067c.124.346.505 1.42.63 1.694.184.404 1.04.755 1.414.335a1.355 1.355 0 0 0 1.843-.292 1.358 1.358 0 0 0 1.724-.89 1.426 1.426 0 0 0 .039-.149c.454-.026.678-.68.578-1.2a12.952 12.952 0 0 0-1.159-2.234c.604.503 2.132.645 2.317 0 .973.782 2.488.372 2.61-.264 1.18.314 2.536-.376 2.314-1.213a1.628 1.628 0 0 0 1.525-1.719 1.664 1.664 0 0 0-.401-1.011Z"/><path fill="#03a9f4" d="M26.252 16.374a7.436 7.436 0 0 1 1.57-2.302 4.144 4.144 0 0 0-1.836 2.12 6.391 6.391 0 0 0-.646-.37 4.196 4.196 0 0 1 3.424-2.419c-.999.928-.644 2.855-1.464 3.876a10.816 10.816 0 0 0-1.048-.906Zm-.646 1.354a3.5 3.5 0 0 1 .035-.39 3.373 3.373 0 0 0-.6-.082 2.363 2.363 0 0 0 .208.889 3.051 3.051 0 0 0 1.629-.462 5.54 5.54 0 0 0-1.099-.318c-.04.085-.137.3-.173.362Z"/><path fill="#4caf50" d="M22.847 24.304v.003a11.232 11.232 0 0 1-.32-.805c.475.708 1.962.343 1.884-.292.728.562 2.226-.093 1.885-.88.73.348 1.561-.352 1.375-.657 1.243.245 2.434.49 2.808.588a1.429 1.429 0 0 1-1.667.505c.46.643-.434 1.414-1.68.99.274.63-.835 1.2-2.096.541.016.632-1.565.705-2.19.007Zm2.465-3.193c1.443.113 3.828.334 5.305.545-.093-.492-.348-.633-1.15-.854-.862.095-3.05.315-4.155.309Z"/><path fill="#ffca28" d="M24.41 23.21c.729.562 2.227-.093 1.886-.88.73.348 1.561-.352 1.375-.657-1.47-.29-3.012-.582-3.361-.633a53.3 53.3 0 0 1 1.002.07c1.106.007 3.293-.213 4.156-.307a40.946 40.946 0 0 0-6.216-1.023 2.873 2.873 0 0 1-.55.615 4.815 4.815 0 0 1-4.15 3.108 5.446 5.446 0 0 1-1.697-.293 3.538 3.538 0 0 1-3.432.074 6.944 6.944 0 0 0 6.356 4.321c2.335 0 3.37-2.443 3.143-3.09-.055-.156-.272-.677-.394-1.013.474.708 1.961.343 1.883-.291Z"/><path fill="#e0e0e0" d="M22.996 18.294a6.681 6.681 0 0 1 1.597-.724q-.016-.116-.023-.233c-.446.11-1.285.478-1.766-.03 1.015.314 1.521-.28 2.268-.28a4.697 4.697 0 0 1 1.579.329 5.27 5.27 0 0 0-3.355-1.534 2.454 2.454 0 0 0-.3 2.472Z"/><path fill="#f4511e" d="M16.855 23.21a5.446 5.446 0 0 0 1.698.293 4.816 4.816 0 0 0 4.148-3.109 5.246 5.246 0 0 1-3.473 1.011 5.423 5.423 0 0 0 3.54-2.294 3.143 3.143 0 0 1 .314-3.836 3.523 3.523 0 0 0-3.333-2.4 7.174 7.174 0 0 0-6.893 7.431l.004.127a7.384 7.384 0 0 0 .563 2.85 3.538 3.538 0 0 0 3.432-.074Z"/><path fill="#ffca28" d="M17.985 16.619a1.74 1.74 0 1 0 1.74-1.783 1.762 1.762 0 0 0-1.74 1.783Z"/><path fill="#5d4037" d="M18.683 16.619a1.042 1.042 0 1 0 1.042-1.068 1.055 1.055 0 0 0-1.042 1.068Z"/><ellipse cx="19.725" cy="16.145" fill="#FAFAFA" rx=".607" ry=".387"/></svg>