<svg xmlns="http://www.w3.org/2000/svg" viewBox="0 0 32 32">
  <path d="M13.84376,7.53645l-1.28749-1.0729A2,2,0,0,0,11.27591,6H4A2,2,0,0,0,2,8V24a2,2,0,0,0,2,2H28a2,2,0,0,0,2-2V10a2,2,0,0,0-2-2H15.12412A2,2,0,0,1,13.84376,7.53645Z" style="fill: #5c6bc0"/>
  <g>
    <polygon points="23.08 24 20 21.108 21.378 19.643 23.096 21.255 26.638 18 28 19.48 23.08 24" style="fill: #c5cae9"/>
    <path d="M30,12V10H28v2H20V10H18v2a2,2,0,0,0-2,2V26a2,2,0,0,0,2,2H30a2,2,0,0,0,2-2V14A2,2,0,0,0,30,12Zm0,14H18V16H30Z" style="fill: #c5cae9;fill-rule: evenodd"/>
  </g>
</svg>
