<svg xmlns="http://www.w3.org/2000/svg" viewBox="0 0 16 16"><path id="folder" fill="#607d8b" d="m6.922 3.768-.644-.536A1 1 0 0 0 5.638 3H2a1 1 0 0 0-1 1v8a1 1 0 0 0 1 1h12a1 1 0 0 0 1-1V5a1 1 0 0 0-1-1H7.562a1 1 0 0 1-.64-.232"/><g id="motive"><path fill="#f44336" d="M7 10v3H5Zm2.013-2.671-1.193.397a.747.747 0 0 0-.433 1.047l.267.534 2.348-.812c.007-.146-.002-.3-.002-.455a.748.748 0 0 0-.987-.711m6.443 2.75L12.683 7.49C12.136 7 11.925 7 11 7v1.506a1.68 1.68 0 0 1-.65 1.393L12 12l2.938.839c.303-.35.425-.503.69-.798a1.29 1.29 0 0 0-.172-1.96"/><path fill="#b71c1c" d="m5 13 2-1 2 1-2 1zm5.35-3.1a10 10 0 0 1-1.232.657 1.75 1.75 0 0 1-1.118.15v.67l4.49 2.444a1.61 1.61 0 0 0 2.027-.5l.42-.483zm-2.564-.945 1.878-.704a.25.25 0 0 1 .337.246.74.74 0 0 1-.416.71l-.915.457c-.7.35-1.358-.531-.884-.709"/></g></svg>