<svg xmlns="http://www.w3.org/2000/svg" viewBox="0 0 16 16">
<path id="folder" fill="#78909c" d="m6.922 3.768-.644-.536A1 1 0 0 0 5.638 3H2a1 1 0 0 0-1 1v8a1 1 0 0 0 1 1h12a1 1 0 0 0 1-1V5a1 1 0 0 0-1-1H7.562a1 1 0 0 1-.64-.232" />
<path id="path2" fill="#cfd8dc" d="m 11.614517,5.0002527 c -0.184423,-0.00203 -0.373296,0.00815 -0.566429,0.03125 A 3.0501193,3.0499098 0 0 0 8.472792,6.7209053 c -0.618524,1.319961 0.05057,3.062965 2.059651,3.6434477 1.236048,0.369989 1.493426,0.896747 1.33892,1.530227 -0.155006,0.580983 -0.566444,1.215629 -0.669948,1.743113 a 1.5000587,1.4999556 0 0 0 -0.05078,0.474595 c 0.0515,1.161966 2.369468,1.637413 4.172038,-1.477495 a 4.6751829,4.6748617 0 0 0 0.669949,-2.270441 h -0.001 C 16.136959,7.7909903 14.380854,5.0307113 11.614517,5.0002527 Z M 6.000039,8.0001633 A 1.0000391,0.9999704 0 0 0 5,9.0001343 1.0000391,0.9999704 0 0 0 6.000039,10.000104 1.0000391,0.9999704 0 0 0 7.000078,9.0001343 1.0000391,0.9999704 0 0 0 6.000039,8.0001633 Z m 2.000079,2.9999117 a 2.0000783,1.9999408 0 0 0 -2.000079,1.999941 2.0000783,1.9999408 0 0 0 2.000079,1.99994 2.0000783,1.9999408 0 0 0 2.000078,-1.99994 2.0000783,1.9999408 0 0 0 -2.000078,-1.999941 z" />
</svg>
