<svg viewBox="0 0 24 24" fill="none" xmlns="http://www.w3.org/2000/svg">
  <path
    d="M19.55 19.92H4.39c-.536 0-1.05-.21-1.43-.584a1.977 1.977 0 0 1-.592-1.409V5.976c0-1.106.9-1.992 2.022-1.992h6.065l2.021 1.992h7.076c1.109 0 2.021.9 2.021 1.992H4.39v9.96L6.552 9.96h17.254l-2.304 8.465a2.018 2.018 0 0 1-1.951 1.494Z"
    fill="#4CAF50" />
  <path
    d="M15.704 19.46v-.896l-2.49.706s.185-1.068 1.483-1.437a2.16 2.16 0 0 1 1.006-.057v-3.674h1.247a7.466 7.466 0 0 0-.378-.966c-.182-.37-.369-.125-.793.23-.299.25-1.055.783-2.191 1.089-1.137.306-2.056.225-2.44.158-.543-.093-.828-.213-.8.201.023.364.11.93.308 1.676.431 1.618 1.853 4.734 4.542 4.01.703-.19 1.198-.563 1.542-1.04h-1.036Zm-4.016-2.947 1.91-.504s-.055.735-.771.924c-.717.189-1.14-.42-1.14-.42h.001Z"
    fill="#EF9A9A" />
  <path
    d="M22.895 14.145c-.497.087-1.689.195-3.161-.2-1.473-.394-2.45-1.084-2.838-1.408-.549-.46-.79-.78-1.028-.296-.21.426-.479 1.12-.739 2.091-.563 2.104-.984 6.541 2.499 7.475 3.482.933 5.336-3.121 5.9-5.224.26-.971.374-1.706.405-2.18.036-.538-.332-.382-1.038-.258Zm-6.998 1.74s.548-.854 1.48-.59c.931.265 1.003 1.295 1.003 1.295l-2.483-.705Zm2.272 3.831c-1.637-.48-1.89-1.786-1.89-1.786l4.399 1.23s-.888 1.03-2.51.556Zm1.556-2.684s.548-.853 1.478-.588c.931.265 1.005 1.295 1.005 1.295l-2.483-.707Z"
    fill="#A5D6A7" />
</svg>