<svg width="22" height="19" viewBox="0 0 22 19" fill="none" xmlns="http://www.w3.org/2000/svg">
<path d="M17 16H2C1.46957 16 0.960859 15.7893 0.585786 15.4142C0.210714 15.0391 0 14.5304 0 14V2C0 0.89 0.89 0 2 0H8L10 2H17C18.097 2 19 2.903 19 4H2V14L4.14 6H21.21L18.93 14.5C18.7 15.37 17.92 16 17 16Z" fill="#8F9395" fill-opacity="0.3"/>
<mask id="path-2-inside-1_2_22" fill="white">
<ellipse cx="14.6" cy="11.55" rx="6.6" ry="6.55"/>
</mask>
<path d="M9.2 11.55C9.2 8.45418 11.7039 6.1 14.6 6.1V30.1C24.7863 30.1 33.2 21.8808 33.2 11.55H9.2ZM14.6 6.1C17.4961 6.1 20 8.45418 20 11.55H-4C-4 21.8808 4.4137 30.1 14.6 30.1V6.1ZM20 11.55C20 14.6458 17.4961 17 14.6 17V-7C4.4137 -7 -4 1.21925 -4 11.55H20ZM14.6 17C11.7039 17 9.2 14.6458 9.2 11.55H33.2C33.2 1.21925 24.7863 -7 14.6 -7V17Z" fill="#040707" mask="url(#path-2-inside-1_2_22)"/>
<ellipse cx="14.6" cy="11.55" rx="3.4" ry="3.35" fill="#F73D48"/>
<ellipse cx="19.2" cy="7.95" rx="1.5" ry="1.45" fill="#F73D48"/>
</svg>
