<svg xmlns="http://www.w3.org/2000/svg" viewBox="0 0 16 16"><path id="folder" fill="#00897b" d="m6.922 3.768-.644-.536A1 1 0 0 0 5.638 3H2a1 1 0 0 0-1 1v8a1 1 0 0 0 1 1h12a1 1 0 0 0 1-1V5a1 1 0 0 0-1-1H7.562a1 1 0 0 1-.64-.232"/><path id="motive" fill="#b2dfdb" fill-rule="evenodd" d="M9.4 6.4H15A.6.6 0 0 1 15.6 7V13A.6.6 0 0 1 15 13.6H9.4A.6.6 0 0 1 8.8 13V7A.6.6 0 0 1 9.4 6.4ZM10.3 5.6h.7v.8h-.7zM13.4 5.6h.7v.8h-.7zM9.3 7.9h5.8v.4H9.3zM9.95 10.6a.55.55 0 1 0 1.1 0 .55.55 0 1 0-1.1 0ZM11.65 10.6a.55.55 0 1 0 1.1 0 .55.55 0 1 0-1.1 0ZM13.35 10.6a.55.55 0 1 0 1.1 0 .55.55 0 1 0-1.1 0ZM9.95 12.4a.55.55 0 1 0 1.1 0 .55.55 0 1 0-1.1 0ZM11.65 12.4a.55.55 0 1 0 1.1 0 .55.55 0 1 0-1.1 0ZM13.35 12.4a.55.55 0 1 0 1.1 0 .55.55 0 1 0-1.1 0Z"/></svg>
