<svg xmlns="http://www.w3.org/2000/svg" viewBox="0 0 32 32">
  <path d="M13.84376,7.53645l-1.28749-1.0729A2,2,0,0,0,11.27591,6H4A2,2,0,0,0,2,8V24a2,2,0,0,0,2,2H28a2,2,0,0,0,2-2V10a2,2,0,0,0-2-2H15.12412A2,2,0,0,1,13.84376,7.53645Z" style="fill: #03a9f4"/>
  <path d="M28,28a2.00006,2.00006,0,0,0,2-2V16a2,2,0,0,0-2-2H12a2,2,0,0,0-2,2V26a2.00006,2.00006,0,0,0,2,2H8v2H32V28Zm0-2H20V24h8ZM12,17.73633l1.01416-1.72461L20.03711,20v2l-7.02295,4L12,24.27539l5.55811-3.26953Z" style="fill: #b3e5fc;fill-rule: evenodd"/>
</svg>
