<svg xmlns="http://www.w3.org/2000/svg" viewBox="0 0 16 16">
<path fill="#616161" d="m6.922 3.768-.644-.536A1 1 0 0 0 5.638 3H2a1 1 0 0 0-1 1v8a1 1 0 0 0 1 1h12a1 1 0 0 0 1-1V5a1 1 0 0 0-1-1H7.562a1 1 0 0 1-.64-.232" id="folder"/>
<path fill="#ffa726" d="M16 7.9165v-1.473a0.25 0.25 0 0 0-0.329-0.237l-5.5 1.833a0.25 0.25 0 0 0-0.171 0.2375v1.6395a0.25 0.25 0 0 0 0.171 0.237L13 11.0965l-2.829 0.943a0.25 0.25 0 0 0-0.171 0.2375V13.75a0.25 0.25 0 0 0 0.329 0.237l5.5-1.8335a0.25 0.25 0 0 0 0.171-0.237v-1.64a0.25 0.25 0 0 0-0.171-0.237L13 9.0965l2.829-0.943a0.25 0.25 0 0 0 0.171-0.237" data-mit-no-recolor="true" id="motive"/>
</svg>
