<?xml version="1.0" encoding="utf-8"?>
<!-- Generator: Adobe Illustrator 24.1.0, SVG Export Plug-In . SVG Version: 6.00 Build 0)  -->
<svg version="1.1" id="Camada_1" xmlns="http://www.w3.org/2000/svg" xmlns:xlink="http://www.w3.org/1999/xlink" x="0px" y="0px"
	 viewBox="0 0 24 24" style="enable-background:new 0 0 24 24;" xml:space="preserve">
<style type="text/css">
	.st0{fill:#7356AE;}
	.st1{fill:#FFFFFF;}
</style>
<path class="st0" d="M19,20H4c-1.1,0-2-0.9-2-2V6c0-1.1,0.9-2,2-2h6l2,2h7c1.1,0,2,0.9,2,2l0,0H4v10l2.1-8h17.1l-2.3,8.5
	C20.7,19.4,19.9,20,19,20z"/>
<g>
	<path class="st1" d="M19,13.4c0,0.5-0.4,0.9-0.9,0.9c0.5,0,0.9,0.4,0.9,0.9V16c0,0.6-0.5,1.2-1.2,1.2h-2.3v-5.8h2.3
		c0.6,0,1.2,0.5,1.2,1.2V13.4 M17.8,16v-1.2h-1.2V16H17.8 M17.8,13.7v-1.2h-1.2v1.2H17.8 M12,10.2C12,9.5,12.5,9,13.2,9h8.2
		c0.6,0,1.2,0.5,1.2,1.2v8.2c0,0.6-0.5,1.2-1.2,1.2h-8.2c-0.6,0-1.2-0.5-1.2-1.2V10.2 M13.2,10.2v8.2h8.2v-8.2H13.2z"/>
</g>
</svg>
