<svg xmlns="http://www.w3.org/2000/svg" viewBox="0 0 32 32"><path fill="#f44336" d="M28.967 12H9.442a2 2 0 0 0-1.898 1.368L4 24V10h24a2 2 0 0 0-2-2H15.124a2 2 0 0 1-1.28-.464l-1.288-1.072A2 2 0 0 0 11.276 6H4a2 2 0 0 0-2 2v16a2 2 0 0 0 2 2h22l4.805-11.212A2 2 0 0 0 28.967 12Z"/><path fill="#ffcdd2" d="M18 26v4c2.281-.781 8.713-1.025 10-2v-4c-1.287.975-7.719 1.219-10 2Zm0-6v4c2.281-.781 8.713-1.025 10-2v-4c-1.287.975-7.719 1.219-10 2Zm0-6v4c2.281-.781 8.713-1.025 10-2v-4c-1.287.975-7.719 1.219-10 2Z"/></svg>