<svg xmlns="http://www.w3.org/2000/svg" viewBox="0 0 32 32">
    <!-- Main folder icon -->
    <path fill="#FFB74D" d="m13.844 7.536-1.288-1.072A2 2 0 0 0 11.276 6H4a2 2 0 0 0-2 2v16a2 2 0 0 0 2 2h24a2 2 0 0 0 2-2V10a2 2 0 0 0-2-2H15.124a2 2 0 0 1-1.28-.464Z"/>
    
    <!-- Group containing the Jupyter logo elements, scaled down and positioned in the bottom right of the folder -->
    <g data-mit-no-recolor="true"> <!-- prevent recolor of the jupyter logo -->
        <g transform="translate(10, 10) scale(0.7)">
            <!-- Two symmetrical paths forming the main part of the Jupyter logo -->
            <path fill="#f57c00" d="M6.2 18a22.725 22.725 0 0 0 9.8 2 22.725 22.725 0 0 0 9.8-2 10.002 10.002 0 0 1-19.6 0Z" />
            <path fill="#f57c00" d="M6.2 14a22.725 22.725 0 0 1 9.8-2 22.725 22.725 0 0 1 9.8 2 10.002 10.002 0 0 0-19.6 0Z" />
            
            <!-- Three circles, each representing a different shade of grey (part of the Jupyter logo) -->
            <circle cx="27" cy="5" r="3" fill="#757575" />
            <circle cx="5" cy="27" r="3" fill="#9e9e9e" />
            <circle cx="5" cy="5" r="3" fill="#616161" />
        </g>
    </g>
</svg>
