<?xml version="1.0" encoding="UTF-8" standalone="no"?>
<svg
   viewBox="0 0 32 32"
   version="1.1"
   id="svg2"
   sodipodi:docname="folder-blender-open-5.svg"
   inkscape:version="1.4 (e7c3feb1, 2024-10-09)"
   xmlns:inkscape="http://www.inkscape.org/namespaces/inkscape"
   xmlns:sodipodi="http://sodipodi.sourceforge.net/DTD/sodipodi-0.dtd"
   xmlns="http://www.w3.org/2000/svg"
   xmlns:svg="http://www.w3.org/2000/svg">
  <defs
     id="defs2" />
  <sodipodi:namedview
     id="namedview2"
     pagecolor="#ffffff"
     bordercolor="#000000"
     borderopacity="0.25"
     inkscape:showpageshadow="2"
     inkscape:pageopacity="0.0"
     inkscape:pagecheckerboard="0"
     inkscape:deskcolor="#d1d1d1"
     inkscape:zoom="14.090204"
     inkscape:cx="16.287912"
     inkscape:cy="14.052316"
     inkscape:window-width="1472"
     inkscape:window-height="895"
     inkscape:window-x="202"
     inkscape:window-y="1141"
     inkscape:window-maximized="0"
     inkscape:current-layer="svg2"
     showgrid="true">
    <inkscape:grid
       id="grid2"
       units="px"
       originx="0"
       originy="0"
       spacingx="1"
       spacingy="1"
       empcolor="#0099e5"
       empopacity="0.30196078"
       color="#0099e5"
       opacity="0.14901961"
       empspacing="2"
       enabled="true"
       visible="true" />
  </sodipodi:namedview>
  <path
     fill="#f4511e"
     d="M 28.967,12 H 9.442 A 2,2 0 0 0 7.544,13.368 L 4,24 V 10 H 28 A 2,2 0 0 0 26,8 H 15.124 A 2,2 0 0 1 13.844,7.536 L 12.556,6.464 A 2,2 0 0 0 11.276,6 H 4 A 2,2 0 0 0 2,8 v 16 a 2,2 0 0 0 2,2 H 26 L 30.805,14.788 A 2,2 0 0 0 28.967,12"
     id="path1-6"
     style="fill:#01579b;fill-opacity:1" />
  <g
     id="g2"
     transform="matrix(0.66433398,0,0,0.66433398,5.395786,18.371008)">
    <path
       id="path3"
       style="display:inline;fill:#ffe0b2;fill-opacity:1;fill-rule:evenodd;stroke:none;stroke-width:1.03318"
       d="m 23.448011,-12 c -0.16227,0 -0.323467,0.01748 -0.432084,0.05014 -0.567751,0.170775 -1.093276,0.878429 -1.26188,1.453489 -0.06447,0.220031 -0.06447,0.6575463 0,0.8775787 0.128217,0.4372928 0.401544,0.5894249 2.245949,2.5894255 1.105819,1.1226233 2.000002,1.986249 2.000002,1.9999995 0,0.015456 -2.797294,0.00837 -6.35298,0 -4.254567,-0.00992 -6.526098,-0.023308 -6.647021,0 -0.437984,0.084132 -0.94082,0.308368 -1.135016,0.6996907 -0.256455,0.5167636 -0.245069,1.1449419 0.03151,1.6229491 0.231783,0.4005986 0.654176,0.6028304 1.103504,0.6773606 0.119632,0.019847 1.331671,-1.136e-4 3.000003,0 C 17.906249,-2.0292315 19,-2.0808709 19,-2.0808709 17.398226,-0.42312643 15.681893,1.3453735 14.056965,3.0054519 9.0542441,8.0800699 9.1822546,7.9390868 9.0519711,8.3780524 c -0.070256,0.2368039 -0.069016,0.6847602 0.00207,0.927727 0.3016977,1.0278486 1.4815229,1.5085176 2.4012259,0.9801516 0.105415,-0.06055 0.948776,-0.8848349 2.389974,-2.3409685 1.22452,-1.2372056 2.23478,-2.2405674 2.245939,-2.2292758 0.01116,0.011303 0.05682,0.4012319 0.101251,0.8661808 l 0.081,0.8433868 0.299301,0.998387 0.297058,0.9961078 0.486099,0.9163289 0.483847,0.918609 0.652626,0.802356 0.654879,0.804636 0.742647,0.617725 c 0.408611,0.339495 0.787611,0.648902 0.843919,0.688386 0.05631,0.03949 0.484498,0.278925 0.951937,0.531105 l 0.850666,0.458165 0.942938,0.294045 0.942939,0.291766 0.90468,0.09801 c 0.497598,0.05332 1.011779,0.098 1.14322,0.100301 0.13144,0.0023 0.654248,-0.03653 1.161228,-0.08661 l 0.920436,-0.09118 0.992448,-0.303164 0.992438,-0.303163 0.915931,-0.496914 0.913679,-0.496916 0.789915,-0.656474 0.787652,-0.656475 0.650374,-0.804635 0.650384,-0.802357 L 35.717257,10.35204 36.187599,9.4607829 36.491415,8.4555563 36.795221,7.4480515 36.898745,6.4086329 36.999996,5.3669373 36.898745,4.3252406 36.797494,3.2835449 36.50494,2.31023 36.212375,1.3346369 35.730781,0.41375054 35.246934,-0.50941606 34.630314,-1.2639053 c -0.577029,-0.7064559 -0.87666,-1.1267013 -5.412314,-5.6028231 -4.218003,-4.1626386 -4.887419,-4.9482446 -5.335807,-5.0831156 -0.108618,-0.03267 -0.272056,-0.05014 -0.434337,-0.05014 z m 3.040503,9.9767753 -0.759281,0.082861 c -0.704316,0.075463 -0.812149,0.094587 -1.432602,0.2840531 -0.584974,0.1786248 -0.7521,0.2492486 -1.313218,0.5468002 -0.553989,0.29377435 -0.720858,0.40525612 -1.217712,0.80718229 -0.498879,0.40356581 -0.640786,0.54208477 -1.048178,1.03205717 -0.420957,0.50628004 -0.508168,0.63755854 -0.833298,1.24509604 -0.334759,0.6255096 -0.380219,0.7377538 -0.577814,1.3989586 -0.206552,0.6912041 -0.218548,0.7449148 -0.27936,1.4533999 -0.06178,0.7205132 -0.06065,0.7514672 0.01198,1.4368328 0.0684,0.6497231 0.08958,0.7516015 0.291293,1.4013246 0.193359,0.6227666 0.255691,0.770831 0.563494,1.3397794 0.299363,0.5533578 0.407826,0.7159445 0.814195,1.2072226 0.407371,0.492507 0.547046,0.629465 1.043404,1.032057 0.497185,0.403272 0.658547,0.509739 1.224872,0.80955 0.590367,0.312537 0.719339,0.364742 1.375302,0.561003 0.659683,0.197374 0.784191,0.223639 1.394395,0.28642 0.368555,0.03792 0.680626,0.07097 0.692424,0.07338 0.01168,0.0024 0.36185,-0.02826 0.778385,-0.06864 0.720537,-0.06986 0.79349,-0.08457 1.482742,-0.291154 0.653577,-0.195911 0.787063,-0.250329 1.375292,-0.561003 0.571511,-0.301842 0.722283,-0.402449 1.224882,-0.811917 0.493827,-0.402312 0.639133,-0.54619 1.041007,-1.032056 C 32.74874,9.7167047 32.851675,9.5647389 33.162083,8.9885583 33.481138,8.3963655 33.539027,8.2583456 33.727964,7.6393089 33.917851,7.017154 33.944497,6.8861968 34.009701,6.2758584 34.085641,5.5647935 34.083361,5.3534398 33.985831,4.450822 33.945121,4.0752284 33.892431,3.848126 33.720801,3.2933073 33.530849,2.6791658 33.470212,2.533489 33.154928,1.9487857 32.843983,1.3721195 32.742474,1.2221261 32.331187,0.72736082 31.930108,0.24487894 31.781734,0.09783525 31.294942,-0.29759533 30.802076,-0.6979676 30.640281,-0.80493542 30.074844,-1.1047776 29.482121,-1.4190935 29.35813,-1.4694288 28.699552,-1.6657809 28.012129,-1.870731 27.935746,-1.8853525 27.23113,-1.9522 Z"
       inkscape:label="outer"
       sodipodi:nodetypes="csccccscccscccccssccccccccccscccccscccccccccccccccccccccccssccccscsscccccsssssscccscscscccsscsscc" />
    <path
       style="display:inline;fill:#b3e5fc;fill-opacity:1;fill-rule:evenodd;stroke:none;stroke-width:3.70566;stroke-linejoin:round;stroke-opacity:1;paint-order:stroke fill markers"
       id="path6"
       sodipodi:type="arc"
       sodipodi:cx="26.522869"
       sodipodi:cy="5.4758277"
       sodipodi:rx="4.5"
       sodipodi:ry="4.5"
       sodipodi:start="0"
       sodipodi:end="6.2770624"
       sodipodi:open="true"
       sodipodi:arc-type="chord"
       d="M 31.022869,5.4758277 A 4.5,4.5 0 0 1 26.529757,9.9758224 4.5,4.5 0 0 1 22.02289,5.4896042 4.5,4.5 0 0 1 26.502204,0.97587514 4.5,4.5 0 0 1 31.022785,5.4482748 Z" />
  </g>
</svg>
