<svg xmlns="http://www.w3.org/2000/svg" viewBox="0 0 16 16">
<path id="folder" fill="#03a9f4" d="m6.922 3.768-.644-.536A1 1 0 0 0 5.638 3H2a1 1 0 0 0-1 1v8a1 1 0 0 0 1 1h12a1 1 0 0 0 1-1V5a1 1 0 0 0-1-1H7.562a1 1 0 0 1-.64-.232" />
<path id="motive" fill="#b3e5fc" d="m 15.626921,7.0171596 a 0.50019031,0.49997859 0 0 0 -0.142554,-0.017 H 7.2467335 a 0.51519601,0.51497795 0 0 0 -0.49819,0.365485 l -1.731159,5.9997434 a 0.50369166,0.50347845 0 0 0 0.49819,0.634472 h 8.2376335 a 0.51519601,0.51497795 0 0 0 0.49819,-0.365484 L 15.982556,7.6346326 A 0.50369166,0.50347845 0 0 0 15.627421,7.0171596 Z M 7.4993295,12.999903 a 0.50019031,0.49997859 0 0 1 -0.278106,-0.91596 l 2.493949,-1.661429 -1.569597,-1.5689334 a 0.50019031,0.49997859 0 0 1 0.707269,-0.70697 l 2.0007605,1.9999154 a 0.50019031,0.49997859 0 0 1 -0.07603,0.769967 l -3.0011415,1.999914 a 0.50019031,0.49997859 0 0 1 -0.277606,0.0835 z m 5.5015925,0 h -2.000761 a 0.50019031,0.49997859 0 0 1 0,-0.999957 h 2.000761 a 0.50019031,0.49997859 0 0 1 0,0.999957" />
</svg>
