<svg width="22" height="18" viewBox="0 0 22 18" fill="none" xmlns="http://www.w3.org/2000/svg">
<path d="M17 16H2C1.46957 16 0.960859 15.7893 0.585786 15.4142C0.210714 15.0391 0 14.5304 0 14V2C0 0.89 0.89 0 2 0H8L10 2H17C18.097 2 19 2.903 19 4H2V14L4.14 6H21.21L18.93 14.5C18.7 15.37 17.92 16 17 16Z" fill="#8F9395" fill-opacity="0.3"/>
<path d="M17.7 7.65C17.7 9.37704 16.2577 10.8 14.45 10.8C12.6422 10.8 11.2 9.37704 11.2 7.65C11.2 5.92296 12.6422 4.5 14.45 4.5C16.2577 4.5 17.7 5.92296 17.7 7.65Z" stroke="#040707"/>
<ellipse cx="14.45" cy="7.7" rx="1.95" ry="1.9" fill="#F73D48"/>
<path d="M14 13.95C14 15.677 12.5578 17.1 10.75 17.1C8.94225 17.1 7.5 15.677 7.5 13.95C7.5 12.223 8.94225 10.8 10.75 10.8C12.5578 10.8 14 12.223 14 13.95Z" stroke="#040707"/>
<ellipse cx="10.75" cy="14" rx="1.95" ry="1.9" fill="#F73D48"/>
<path d="M21.4 13.95C21.4 15.677 19.9577 17.1 18.15 17.1C16.3422 17.1 14.9 15.677 14.9 13.95C14.9 12.223 16.3422 10.8 18.15 10.8C19.9577 10.8 21.4 12.223 21.4 13.95Z" stroke="#040707"/>
<ellipse cx="18.15" cy="14" rx="1.95" ry="1.9" fill="#F73D48"/>
<ellipse cx="16.25" cy="10.45" rx="0.85" ry="0.85" fill="#F73D48"/>
<ellipse cx="12.85" cy="10.35" rx="0.850002" ry="0.85" fill="#F73D48"/>
<ellipse cx="12.35" cy="11.35" rx="0.85" ry="0.85" fill="#F73D48"/>
<ellipse cx="13.95" cy="13.95" rx="0.85" ry="0.85" fill="#F73D48"/>
<ellipse cx="16.55" cy="11.35" rx="0.850004" ry="0.85" fill="#F73D48"/>
<ellipse cx="14.85" cy="13.95" rx="0.849996" ry="0.85" fill="#F73D48"/>
</svg>
