<svg clip-rule="evenodd" fill-rule="evenodd" stroke-linejoin="round" stroke-miterlimit="1.414" version="1.1" viewBox="0 0 24 24" xmlns="http://www.w3.org/2000/svg"><path d="M10 4H4c-1.11 0-2 .89-2 2v12c0 1.097.903 2 2 2h16c1.097 0 2-.903 2-2V8a2 2 0 0 0-2-2h-8l-2-2z" fill="#7B1FA2" fill-rule="nonzero" style="fill:#ab47bc"/><path d="m22.152 11.733h-2.399v-1.1995c0-.33065-.13247-.63-.35464-.84591a1.1724 1.1724 0 0 0 -.84487 -.35464h-2.399c-.66025 0-1.1995.5403-1.1995 1.1995v1.1995h-2.399c-.66025 0-1.1995.5403-1.1995 1.1995v6.5983c0 .65921.53925 1.1995 1.1995 1.1995h9.596c.6592 0 1.1995-.5403 1.1995-1.1995v-6.5973c0-.66025-.5403-1.1995-1.1995-1.1995zm-5.9975-1.1995h2.399v1.1995h-2.399zm.59871 8.0961-.59975-.59975 1.7993-1.7993-1.7993-1.7993.59975-.59975 2.399 2.399z" style="fill:#e1bee7;stroke-width:1.043"/></svg>
