<svg xmlns="http://www.w3.org/2000/svg" viewBox="0 0 16 16">
<path id="folder" fill="#ff5252" d="M14.483 6H4.721a1 1 0 0 0-.949.684L2 12V5h12a1 1 0 0 0-1-1H7.562a1 1 0 0 1-.64-.232l-.644-.536A1 1 0 0 0 5.638 3H2a1 1 0 0 0-1 1v8a1 1 0 0 0 1 1h11l2.403-5.606A1 1 0 0 0 14.483 6" />
<path id="motive" fill="#ffcdd2" d="m 12,7 a 4,4 0 1 0 4,4 4,4 0 0 0 -4,-4 m 3,4 a 2.98,2.98 0 0 1 -0.5575,1.7355 l -4.178,-4.178 A 2.995,2.995 0 0 1 15,11 M 9,11 A 2.98,2.98 0 0 1 9.5575,9.2645 l 4.178,4.178 A 2.995,2.995 0 0 1 9,11" />
</svg>
