<svg xmlns="http://www.w3.org/2000/svg" viewBox="0 0 32 32"><path fill="#039be5" d="M28.967 12H9.442a2 2 0 0 0-1.898 1.368L4 24V10h24a2 2 0 0 0-2-2H15.124a2 2 0 0 1-1.28-.464l-1.288-1.072A2 2 0 0 0 11.276 6H4a2 2 0 0 0-2 2v16a2 2 0 0 0 2 2h22l4.805-11.212A2 2 0 0 0 28.967 12Z"/><path fill="#b3e5fc" d="M22 10a10 10 0 1 0 10 10 10 10 0 0 0-10-10Zm6.918 6H25.96a15.749 15.749 0 0 0-1.342-3.54 8.039 8.039 0 0 1 4.3 3.54ZM22 12a14.128 14.128 0 0 1 1.89 4h-3.78A14.128 14.128 0 0 1 22 12Zm-2.618.46A15.749 15.749 0 0 0 18.04 16h-2.958a8.039 8.039 0 0 1 4.3-3.54ZM14.263 22a7.727 7.727 0 0 1 0-4h3.407a15.45 15.45 0 0 0 0 4Zm.82 2h2.957a15.749 15.749 0 0 0 1.342 3.54 8.039 8.039 0 0 1-4.3-3.54ZM22 28a14.128 14.128 0 0 1-1.89-4h3.78A14.128 14.128 0 0 1 22 28Zm2.31-6h-4.62a13.412 13.412 0 0 1 0-4h4.62a13.412 13.412 0 0 1 0 4Zm.308 5.54A15.749 15.749 0 0 0 25.96 24h2.958a8.039 8.039 0 0 1-4.3 3.54ZM29.737 22H26.33a15.45 15.45 0 0 0 0-4h3.407a7.727 7.727 0 0 1 0 4Z"/></svg>