<svg xmlns="http://www.w3.org/2000/svg" viewBox="0 0 32 32">
  <path d="M28.96692,12H9.44152a2,2,0,0,0-1.89737,1.36754L4,24V10H28a2,2,0,0,0-2-2H15.1241a2,2,0,0,1-1.28038-.46357L12.5563,6.46357A2,2,0,0,0,11.27592,6H4A2,2,0,0,0,2,8V24a2,2,0,0,0,2,2H26l4.80523-11.21213A2,2,0,0,0,28.96692,12Z" style="fill: #1976d2"/>
  <path d="M25.18172,13.14836C24.51887,12.1347,24.36162,12,23.01289,12h-.03254c-1.3501,0-1.49921.1347-2.17019,1.14836C20.18662,14.09943,14,25.47281,14,25.78984a2.49663,2.49663,0,0,0,.54492,1.513c.43376.62588,1.18337.9742,1.72829.42043.37006-.37281,4.339-7.23984,6.25711-9.83726a.5751.5751,0,0,1,.93937,0c1.91671,2.59742,5.887,9.46445,6.2571,9.83726.54492.55376,1.29453.20409,1.72829-.42043A2.50546,2.50546,0,0,0,32,25.78984C31.99187,25.47281,25.80525,14.09126,25.18172,13.14836Z" style="fill: #bbdefb;fill-rule: evenodd"/>
</svg>
