<svg xmlns="http://www.w3.org/2000/svg" viewBox="0 0 16 16">
<path fill="#1976d2" d="m6.922 3.768-.644-.536A1 1 0 0 0 5.638 3H2a1 1 0 0 0-1 1v8a1 1 0 0 0 1 1h12a1 1 0 0 0 1-1V5a1 1 0 0 0-1-1H7.562a1 1 0 0 1-.64-.232" id="folder"/>
<path fill="#90caf9" fill-rule="evenodd" d="M8 11.2025v1.393c-2.4-0.5485-4.1315-2.085-4.1315-3.902 0-2.2765 2.716-4.1225 6.066-4.1225S16 6.417 16 8.6935a3.23 3.23 0 0 1-0.9575 2.2165l-0.245-0.4275a2.325 2.325 0 0 0 0.4905-1.481c0-1.955-1.879-2.8185-4.425-2.8185-2.5465 0-4.6105 1.2615-4.6105 2.8185 0 0.8935 0.686 1.685 1.7475 2.201m7.666 2.798V14h-0.0005Zm0-0.0005h-2.328l-1.0885-2.104a2.7 2.7 0 0 0-0.36-0.5085c-0.115-0.095-0.1635-0.129-0.2765-0.129H11V14h-2V7h4.137S15 7.035 15 8.88a1.933 1.933 0 0 1-1.7795 1.982 4.5 4.5 0 0 1 0.578 0.224 1.1 1.1 0 0 1 0.293 0.2155 0.8 0.8 0 0 1 0.134 0.198ZM13 8.75a0.75 0.75 0 0 0-0.75-0.75H11v2h1.25a0.75 0.75 0 0 0 0.75-0.75Z" id="motive"/>
</svg>
