<svg xmlns="http://www.w3.org/2000/svg" viewBox="0 0 32 32">
  <path d="M13.84376,7.53645l-1.28749-1.0729A2,2,0,0,0,11.27591,6H4A2,2,0,0,0,2,8V24a2,2,0,0,0,2,2H28a2,2,0,0,0,2-2V10a2,2,0,0,0-2-2H15.12412A2,2,0,0,1,13.84376,7.53645Z" style="fill: #009688"/>
  <g>
    <path d="M12,12.00044,22.0007,28,32,12.07746v-.077H28.11124L22.05843,21.6412l-6.02605-9.64076Z" style="fill: #41b883;fill-rule: evenodd"/>
    <path d="M16.03058,12l6.026,9.64234L28.11093,12H24.4642L22.081,15.79536,19.70767,12Z" style="fill: #35495e;fill-rule: evenodd"/>
  </g>
</svg>
