<svg clip-rule="evenodd" fill-rule="evenodd" stroke-linejoin="round" stroke-miterlimit="1.414" viewBox="0 0 24 24" xml:space="preserve" version="1.1" id="svg2" xmlns="http://www.w3.org/2000/svg"><path d="M10 4H4c-1.11 0-2 .89-2 2v12c0 1.097.903 2 2 2h16c1.097 0 2-.903 2-2V8a2 2 0 0 0-2-2h-8l-2-2z" fill="#ab47bc" fill-rule="nonzero"/><path d="m 20.132698,12.747936 -3.355926,2.698825 3.355926,2.599957 v -5.298782 m -8.690256,6.99442 -1.9075726,-1.201067 v -6.358565 l 2.1194996,-0.706505 3.037998,2.352672 6.146572,-5.673239 2.826004,1.76628 v 10.950725 l -3.532502,1.413002 -5.411842,-5.185729 -3.278157,2.642302 m 0.211927,-3.10864 1.314128,-1.215188 -1.314128,-1.257597 z" fill="#e1bee7" id="path1-3"/></svg>