<?xml version="1.0" encoding="utf-8"?>
<!-- Generator: Adobe Illustrator 28.0.0, SVG Export Plug-In . SVG Version: 6.00 Build 0)  -->
<svg version="1.1" id="Layer_1" xmlns="http://www.w3.org/2000/svg" xmlns:xlink="http://www.w3.org/1999/xlink" x="0px" y="0px"
	 viewBox="0 0 24 24" style="enable-background:new 0 0 24 24;" xml:space="preserve">
<style type="text/css">
	.st0{fill:#FB8C00;}
	.st1{fill:#F68712;}
	.st2{fill:#FAB20B;}
	.st3{fill:#FBC707;}
	.st4{fill:#FFF200;}
	.st5{fill:#F47216;}
	.st6{fill:#F1471D;}
	.st7{fill:#F25C19;}
	.st8{fill:#F89C0E;}
</style>
<g id="Layer_1_00000065043043014329956040000005965372426542454671_">
	<path class="st0" d="M19,20H4c-1.1,0-2-0.9-2-2V6c0-1.1,0.9-2,2-2h6l2,2h7c1.1,0,2,0.9,2,2H4v10l2.1-8h17.1l-2.3,8.5
		C20.7,19.4,19.9,20,19,20z"/>
</g>
<g id="Layer_2_00000004541239089600263660000005114405695441358988_">
	<g>
		<path class="st1" d="M12.6,15.1l4.4-4.4l4.4,4.4L17,19.5L12.6,15.1z"/>
		<path class="st2" d="M12.6,15.1l-0.8-3l-0.8-3l3,0.8l3,0.8l-2.2,2.2L12.6,15.1z"/>
		<path class="st3" d="M17,10.7l-3-0.8l-3-0.8h1.6h1.6l1.4,0.8L17,10.7z"/>
		<path class="st4" d="M11,9.1l0.8,3l0.8,3l-0.8-1.4L11,12.3v-1.6V9.1z"/>
		<path class="st5" d="M17,10.7l3-0.8l3-0.8l-0.8,3l-0.8,3l-2.2-2.2L17,10.7z"/>
		<path class="st6" d="M21.4,15.1l0.8-3l0.8-3v1.6v1.6l-0.8,1.4L21.4,15.1z"/>
		<path class="st3" d="M23,9.1l-3,0.8l-3,0.8l1.4-0.8l1.4-0.8h1.6H23z"/>
		<path class="st7" d="M21.4,15.1l0.8,3l0.8,3l-3-0.8l-3-0.8l2.2-2.2L21.4,15.1z"/>
		<path class="st1" d="M17,19.5l3,0.8l3,0.8h-1.6h-1.6l-1.4-0.8L17,19.5z"/>
		<path class="st6" d="M23,21.1l-0.8-3l-0.8-3l0.8,1.4l0.8,1.4v1.6V21.1z"/>
		<path class="st8" d="M17,19.5l-3,0.8l-3,0.8l0.8-3l0.8-3l2.2,2.2L17,19.5z"/>
		<path class="st4" d="M12.6,15.1l-0.8,3l-0.8,3v-1.6v-1.6l0.8-1.4L12.6,15.1z"/>
		<path class="st7" d="M11,21.1l3-0.8l3-0.8l-1.4,0.8L14.2,21h-1.6L11,21.1z"/>
	</g>
</g>
</svg>
