<?xml version="1.0" encoding="UTF-8" standalone="no"?>
<svg
   viewBox="0 0 32 32"
   version="1.1"
   id="svg2"
   xml:space="preserve"
   xmlns="http://www.w3.org/2000/svg"
   xmlns:svg="http://www.w3.org/2000/svg"><defs
     id="defs2" /><path
     fill="#00acc1"
     d="M28.967 12H9.442a2 2 0 0 0-1.898 1.368L4 24V10h24a2 2 0 0 0-2-2H15.124a2 2 0 0 1-1.28-.464l-1.288-1.072A2 2 0 0 0 11.276 6H4a2 2 0 0 0-2 2v16a2 2 0 0 0 2 2h22l4.805-11.212A2 2 0 0 0 28.967 12"
     id="path1"
     style="fill:#ffffff;fill-opacity:1" /><g
     id="g2"
     transform="matrix(0.06442802,0,0,0.06442838,15.529552,11.93181)"><path
       d="m 223.774,57.34 c -0.201,-1.46 -1.48,-2.268 -2.537,-2.357 -1.055,-0.088 -23.383,-1.743 -23.383,-1.743 0,0 -15.507,-15.395 -17.209,-17.099 -1.703,-1.703 -5.029,-1.185 -6.32,-0.805 -0.19,0.056 -3.388,1.043 -8.678,2.68 -5.18,-14.906 -14.322,-28.604 -30.405,-28.604 -0.444,0 -0.901,0.018 -1.358,0.044 -4.574,-6.049 -10.24,-8.677 -15.134,-8.677 -37.465,0 -55.364,46.835 -60.976,70.635 -14.558,4.511 -24.9,7.718 -26.221,8.133 -8.126,2.549 -8.383,2.805 -9.45,10.462 C 21.3,95.806 0.038,260.235 0.038,260.235 l 165.678,31.042 89.77,-19.42 c 0,0 -31.513,-213.057 -31.711,-214.517 z M 156.49,40.848 142.471,45.187 c 0.005,-0.988 0.01,-1.96 0.01,-3.023 0,-9.264 -1.286,-16.723 -3.349,-22.636 8.287,1.04 13.806,10.469 17.358,21.32 z M 128.852,21.365 c 2.304,5.773 3.802,14.058 3.802,25.238 0,0.572 -0.005,1.095 -0.01,1.624 -9.117,2.824 -19.024,5.89 -28.953,8.966 5.575,-21.516 16.025,-31.908 25.161,-35.828 z M 117.721,10.828 c 1.617,0 3.246,0.549 4.805,1.622 C 110.519,18.1 97.649,32.33 92.214,60.747 L 69.328,67.835 C 75.694,46.16 90.81,10.828 117.72,10.828 Z"
       fill="#95bf46"
       id="path1-7"
       style="fill:#8bc34a;fill-opacity:1" /><path
       d="m 221.237,54.983 c -1.055,-0.088 -23.383,-1.743 -23.383,-1.743 0,0 -15.507,-15.395 -17.209,-17.099 -0.637,-0.634 -1.496,-0.959 -2.394,-1.099 l -12.527,256.233 89.762,-19.418 c 0,0 -31.514,-213.057 -31.712,-214.517 -0.201,-1.46 -1.48,-2.268 -2.537,-2.357"
       fill="#5e8e3e"
       id="path2-9"
       style="fill:#558b2f;fill-opacity:1;fill-rule:nonzero" /><path
       d="m 135.242,104.585 -11.069,32.926 c 0,0 -9.698,-5.176 -21.586,-5.176 -17.428,0 -18.305,10.937 -18.305,13.693 0,15.038 39.2,20.8 39.2,56.024 0,27.713 -17.577,45.558 -41.277,45.558 -28.44,0 -42.984,-17.7 -42.984,-17.7 l 7.615,-25.16 c 0,0 14.95,12.835 27.565,12.835 8.243,0 11.596,-6.49 11.596,-11.232 0,-19.616 -32.16,-20.491 -32.16,-52.724 0,-27.129 19.472,-53.382 58.778,-53.382 15.145,0 22.627,4.338 22.627,4.338"
       fill="#ffffff"
       id="path3" /></g></svg>
