<?xml version="1.0" encoding="UTF-8"?>
<svg clip-rule="evenodd" stroke-linejoin="round" stroke-miterlimit="1.4142" version="1.1" viewBox="0 0 24 24" xml:space="preserve" xmlns="http://www.w3.org/2000/svg"><path d="m19 20h-15c-1.11 0-2-0.9-2-2v-12c0-1.11 0.89-2 2-2h6l2 2h7c1.097 0 2 0.903 2 2h-17v10l2.14-8h17.07l-2.28 8.5c-0.23 0.87-1.01 1.5-1.93 1.5z" fill="#fbc02d"/><path d="m21.239 11.609h-6.4407v-1.2881h6.4407m-2.5763 6.4407h-3.8644v-1.2881h3.8644m2.5763-1.2881h-6.4407v-1.2881h6.4407m0.64407-4.5085h-7.7288a1.2881 1.2881 0 0 0 -1.2881 1.2881v7.7288a1.2881 1.2881 0 0 0 1.2881 1.2881h7.7288a1.2881 1.2881 0 0 0 1.2881 -1.2881v-7.7288a1.2881 1.2881 0 0 0 -1.2881 -1.2881m-10.305 2.5763h-1.2881v9.0169a1.2881 1.2881 0 0 0 1.2881 1.2881h9.0169v-1.2881h-9.0169z" fill="#ffecb3" stroke-width=".64407"/></svg>
