<svg xmlns="http://www.w3.org/2000/svg" viewBox="0 0 32 32">
  <path d="M28.96692,12H9.44152a2,2,0,0,0-1.89737,1.36754L4,24V10H28a2,2,0,0,0-2-2H15.1241a2,2,0,0,1-1.28038-.46357L12.5563,6.46357A2,2,0,0,0,11.27592,6H4A2,2,0,0,0,2,8V24a2,2,0,0,0,2,2H26l4.80523-11.21213A2,2,0,0,0,28.96692,12Z" style="fill: #fbc02d"/>
  <path d="M32,24.52611l-6.387,3.31434a1.4297,1.4297,0,0,1-1.31264,0L18,24.52611,29.41878,13.76626l.30689-.081c.2613,0,.4102.10655.43754.32674L32,24.52611M22.68084,13.92963,18.70038,20.108l1.66208-9.77821c.02582-.22019.17471-.32674.43755-.32674a.32152.32152,0,0,1,.34942.20457l1.88236,3.23194-.34942.49154m3.9364,1.02995-8.35593,7.84758L24.60576,12.7434a.416.416,0,0,1,.395-.23725.33461.33461,0,0,1,.34942.23725Z" style="fill: #fff9c4;fill-rule: evenodd"/>
</svg>
