<svg xmlns="http://www.w3.org/2000/svg" viewBox="0 0 32 32">
  <!-- Folder background (closed) -->
  <path d="M27.5 5.5H18.2L16.1 9.7H4.4V26.5H29.6V5.5H27.5Z" style="fill:#424242"/>

  <!-- Folder flap -->
  <path d="M27.9 9.7H4.4V6.5C4.4 6 4.7 5.5 5.2 5.5H16.2L18.3 9.7H27.9Z" style="fill:#616161"/>

  <!-- Dooor logo overlay (centered, scaled to fit) -->
  <g transform="translate(8, 11) scale(1)">
    <path style="fill:#FAFAFA;fill-opacity:1;" d="M 6.167969 1.066406 L 6.621094 1 C 6.644531 1 6.667969 1.011719 6.667969 1.027344 L 6.667969 15.070312 C 6.667969 15.089844 6.648438 15.101562 6.625 15.097656 L 6.167969 15.042969 C 6.152344 15.039062 6.136719 15.027344 6.136719 15.015625 L 6.136719 1.09375 C 6.136719 1.082031 6.148438 1.070312 6.167969 1.066406 Z M 6.167969 1.066406 "/>
    <path style="fill:#FAFAFA;fill-opacity:1;" d="M 4.457031 1.75 L 4.859375 1.683594 C 4.882812 1.679688 4.90625 1.695312 4.90625 1.710938 L 4.90625 14.441406 C 4.90625 14.457031 4.882812 14.472656 4.859375 14.46875 L 4.457031 14.414062 C 4.441406 14.410156 4.425781 14.398438 4.425781 14.386719 L 4.425781 1.777344 C 4.425781 1.761719 4.441406 1.75 4.457031 1.75 Z M 4.457031 1.75 "/>
    <path style="fill:#FAFAFA;fill-opacity:1;" d="M 3.089844 2.367188 L 3.425781 2.304688 C 3.449219 2.300781 3.472656 2.3125 3.472656 2.332031 L 3.472656 13.925781 C 3.472656 13.945312 3.449219 13.957031 3.425781 13.953125 L 3.089844 13.898438 C 3.074219 13.898438 3.0625 13.886719 3.0625 13.871094 L 3.0625 2.394531 C 3.0625 2.382812 3.074219 2.371094 3.089844 2.367188 Z M 3.089844 2.367188 "/>
    <path style="fill:#FAFAFA;fill-opacity:1;" d="M 1.832031 2.835938 L 2.105469 2.777344 C 2.128906 2.769531 2.152344 2.785156 2.152344 2.800781 L 2.152344 13.480469 C 2.152344 13.496094 2.128906 13.511719 2.105469 13.503906 L 1.832031 13.453125 C 1.816406 13.453125 1.804688 13.441406 1.804688 13.429688 L 1.804688 2.863281 C 1.804688 2.847656 1.8125 2.839844 1.832031 2.835938 Z M 1.832031 2.835938 "/>
    <path style="fill:#FAFAFA;fill-opacity:1;" d="M 0.828125 3.257812 L 1.0625 3.199219 C 1.089844 3.195312 1.113281 3.207031 1.113281 3.226562 L 1.113281 13.0625 C 1.113281 13.082031 1.089844 13.09375 1.066406 13.089844 L 0.832031 13.039062 C 0.816406 13.035156 0.804688 13.027344 0.804688 13.015625 L 0.804688 3.285156 C 0.804688 3.273438 0.816406 3.261719 0.828125 3.257812 Z M 0.828125 3.257812 "/>
    <path style="fill:#FAFAFA;fill-opacity:1;" d="M 0.0273438 3.597656 L 0.257812 3.539062 C 0.285156 3.535156 0.308594 3.546875 0.308594 3.566406 L 0.308594 12.773438 C 0.308594 12.792969 0.285156 12.808594 0.261719 12.800781 L 0.0273438 12.753906 C 0.0117188 12.75 0 12.738281 0 12.726562 L 0 3.625 C 0 3.613281 0.0117188 3.601562 0.0273438 3.597656 Z M 0.0273438 3.597656 "/>
    <path style="fill:#FAFAFA;fill-opacity:1;" d="M 8.222656 0.265625 L 8.222656 0.148438 C 8.222656 0.125 8.25 0.101562 8.285156 0.0976562 L 8.90625 0 C 8.917969 0 8.933594 0 8.945312 0.00390625 L 15.9375 1.5625 C 15.96875 1.570312 15.988281 1.589844 15.988281 1.613281 L 15.988281 14.433594 C 15.988281 14.457031 15.96875 14.476562 15.9375 14.484375 L 9.003906 15.992188 C 8.992188 15.996094 8.976562 15.996094 8.964844 15.992188 L 8.28125 15.863281 C 8.246094 15.855469 8.222656 15.835938 8.222656 15.808594 Z M 8.222656 0.265625 "/>
  </g>
</svg>
