<svg xmlns="http://www.w3.org/2000/svg" clip-rule="evenodd" image-rendering="optimizeQuality" shape-rendering="geometricPrecision" text-rendering="geometricPrecision" viewBox="0 0 3200 3200"><path fill="#43a047" d="M2999.5 1165.5c-30.43-3.18-61.1-6.35-92-9.5-167.75-14.9-334.08-5.57-499 28a1455.267 1455.267 0 0 0-207 61c-79.51 31.74-154.18 71.74-224 120a896.127 896.127 0 0 0-55 43c-1 .33-2 .67-3 1-46.92 39.92-90.09 83.42-129.5 130.5a1986.406 1986.406 0 0 1-45 60c-61.77 91.89-109.44 190.89-143 297a1660.593 1660.593 0 0 0-53 246c-14.98 118.89-19.98 238.22-15 358 1.34 33.03 3.17 66.03 5.5 99-386.33.17-772.67 0-1159-.5-81.772-10.78-138.27-54.28-169.5-130.5a230.21 230.21 0 0 1-11-49c-.667-546.67-.667-1093.3 0-1640 9.834-76.145 49.334-130.64 118.5-163.5 19.792-8.595 40.459-13.928 62-16 255.33-.667 510.67-.667 766 0 43.68 4.875 82.01 21.541 115 50 45.37 38.377 91.04 76.377 137 114 28.54 18.847 59.87 30.181 94 34 441.99 1.324 883.99 1.991 1326 2 77.31 10.044 132.48 50.211 165.5 120.5a220.404 220.404 0 0 1 15 60c.5 61.67.67 123.33.5 185z"/><path fill="#A5D6A7" d="M2999.5 1165.5c17.69 2.74 35.36 5.91 53 9.5 1.08.67 1.75 1.67 2 3 28.18 168.19 32.68 337.02 13.5 506.5-11.97 104.19-34.8 205.86-68.5 305-33.03 92.41-76.87 179.07-131.5 260a1693.986 1693.986 0 0 1-77 97 2239.76 2239.76 0 0 1-80.5 78.5c-46.48 38.13-95.48 72.8-147 104a1456.714 1456.714 0 0 1-145 70.5c-24.7 9.85-49.7 19.01-75 27.5-149 44.89-301.33 68.89-457 72-64.06 1.52-128.06.19-192-4-49.39-3.53-98.73-7.7-148-12.5a1745.11 1745.11 0 0 1-7-83 3304.35 3304.35 0 0 1-5.5-99c-4.98-119.78.02-239.11 15-358a1660.593 1660.593 0 0 1 53-246c33.56-106.11 81.23-205.11 143-297 15.38-19.72 30.38-39.72 45-60 39.41-47.08 82.58-90.58 129.5-130.5 1-.33 2-.67 3-1a896.127 896.127 0 0 1 55-43c69.82-48.26 144.49-88.26 224-120a1455.267 1455.267 0 0 1 207-61c164.92-33.57 331.25-42.9 499-28 30.9 3.15 61.57 6.32 92 9.5z" opacity=".999"/><path fill="#43a047" d="M2709.5 1494.5c7.67-.17 15.34 0 23 .5a824.815 824.815 0 0 0-130 61c-97.27 54.78-187.6 119.12-271 193-15.7 14.7-31.7 29.04-48 43a4540.858 4540.858 0 0 0-111.5 115.5 2729.718 2729.718 0 0 1-57 68c-93.1 116.73-172.93 242.4-239.5 377-.5 1.02-1.17 1.19-2 .5 6.63-168.23 50.47-326.06 131.5-473.5 116.36-197.54 287.53-319.37 513.5-365.5 24.5-4.98 49.17-8.98 74-12 39.09-3.5 78.09-6 117-7.5z"/><path fill="#43a047" d="M2999.5 1989.5c.17 143 0 286-.5 429-8.62 70.79-43.78 123.62-105.5 158.5-20.91 10.41-42.91 17.41-66 21-136.31 1.48-272.65 1.98-409 1.5 49.63-20.82 97.96-44.32 145-70.5 51.52-31.2 100.52-65.87 147-104a2239.76 2239.76 0 0 0 80.5-78.5c26.87-31.42 52.54-63.76 77-97 54.63-80.93 98.47-167.59 131.5-260z" opacity=".999"/></svg>