<svg viewBox="0 0 24 24" fill="none" xmlns="http://www.w3.org/2000/svg">
<path d="M19 20H4C3.46957 20 2.96086 19.7893 2.58579 19.4142C2.21071 19.0391 2 18.5304 2 18V6C2 4.89 2.89 4 4 4H10L12 6H19C20.097 6 21 6.903 21 8H4V18L6.14 10H23.21L20.93 18.5C20.7 19.37 19.92 20 19 20Z" fill="#689F38"/>
<path d="M14.1711 16.9004H14.159H11.0047C11.0052 16.9158 11.0057 16.9314 11.0065 16.9468C11.0078 16.9766 11.0099 17.0062 11.0118 17.036C11.0126 17.0488 11.0132 17.0615 11.0141 17.0742C11.0166 17.1087 11.0196 17.1429 11.0227 17.1772C11.0234 17.185 11.0241 17.1927 11.0248 17.2002C11.0285 17.2384 11.0327 17.2765 11.0372 17.3143C11.0374 17.3181 11.0378 17.3217 11.0383 17.3254C11.0433 17.3663 11.0485 17.4072 11.0545 17.4479C11.0545 17.4484 11.0546 17.449 11.0548 17.4494C11.0912 17.7018 11.1457 17.9519 11.2184 18.1976C11.2187 18.1987 11.2192 18.1997 11.2194 18.2007C11.2307 18.2394 11.2427 18.2779 11.2551 18.3161C11.2558 18.3184 11.2566 18.3206 11.2572 18.3229C11.2578 18.3251 11.2586 18.3274 11.2593 18.3296C11.2706 18.3642 11.2824 18.3987 11.2942 18.4333C11.2973 18.442 11.3002 18.4508 11.3034 18.4595C11.314 18.4893 11.3248 18.5192 11.3359 18.5491C11.3411 18.5626 11.3462 18.576 11.3513 18.5896C11.3609 18.6144 11.3704 18.6389 11.3802 18.6636C11.3876 18.6822 11.3953 18.7007 11.403 18.7192C11.4109 18.7385 11.4191 18.7577 11.4272 18.7771C11.4373 18.8007 11.4478 18.8241 11.4582 18.8476C11.4644 18.8616 11.4707 18.8755 11.4769 18.8895C11.4898 18.9177 11.5031 18.9458 11.5164 18.9738C11.5207 18.9828 11.5249 18.9918 11.5294 19.0008C11.545 19.033 11.5608 19.065 11.5769 19.0967C11.5796 19.1016 11.5819 19.1064 11.5844 19.1113C11.6025 19.1465 11.6209 19.1816 11.6399 19.2164C11.6407 19.2179 11.6416 19.2194 11.6423 19.2212C11.6463 19.2284 11.6507 19.2354 11.6547 19.2426L14.3589 17.6134L14.3689 17.6074C14.2622 17.3826 14.1958 17.1435 14.1711 16.9004Z" fill="#DCEDC8"/>
<path d="M14.9493 18.354L14.9417 18.3616L12.7114 20.5921C12.7229 20.6028 12.7342 20.6136 12.746 20.624C12.7668 20.6428 12.788 20.6616 12.8091 20.68C12.82 20.6898 12.8307 20.6994 12.8417 20.7088C12.8669 20.7307 12.8924 20.752 12.9178 20.7733C12.9248 20.7791 12.9315 20.7848 12.9384 20.7905C12.967 20.8141 12.9961 20.8374 13.0254 20.8605C13.0291 20.8634 13.0329 20.8664 13.0366 20.8694C13.0682 20.8943 13.1002 20.9185 13.1324 20.9429C13.1338 20.9438 13.135 20.9446 13.1361 20.9456C13.2704 21.046 13.4097 21.14 13.5533 21.2277C13.5583 21.2308 13.5632 21.2337 13.5682 21.2368C13.5955 21.2532 13.6229 21.2693 13.6504 21.2853C13.6672 21.2949 13.684 21.3045 13.7008 21.314C13.7167 21.3232 13.7326 21.332 13.7486 21.3409C13.7776 21.3568 13.8067 21.3725 13.8358 21.3879C13.8398 21.3901 13.8439 21.3922 13.8479 21.3944C13.929 21.4368 14.0115 21.4762 14.0947 21.5141L14.1738 21.3219L15.2956 18.5977L15.2998 18.5877C15.1772 18.5221 15.0598 18.4444 14.9493 18.354Z" fill="#DCEDC8"/>
<path d="M14.7171 18.1314C14.693 18.1047 14.6701 18.0772 14.6476 18.0495C14.6276 18.0248 14.6084 18 14.5897 17.9748C14.5684 17.9459 14.5475 17.9169 14.5278 17.8872C14.5079 17.8574 14.4884 17.8274 14.47 17.7969L11.7622 19.428C11.8038 19.4971 11.8472 19.5644 11.8914 19.6309C11.8929 19.6332 11.8943 19.6357 11.8958 19.6379C11.8964 19.6388 11.8969 19.6395 11.8974 19.6404C11.8989 19.6425 11.9002 19.6449 11.9017 19.6471C11.9018 19.6473 11.902 19.6475 11.9021 19.6478C11.9057 19.6531 11.9093 19.6583 11.913 19.6636C11.9132 19.6639 11.9134 19.6643 11.9136 19.6646C11.9137 19.6647 11.9138 19.6649 11.9139 19.665C11.961 19.7345 12.0093 19.803 12.0591 19.8696C12.0602 19.871 12.0613 19.8725 12.0624 19.8739C12.0635 19.8753 12.0646 19.8767 12.0656 19.8781C12.0873 19.9068 12.109 19.9354 12.1314 19.9638C12.1343 19.9675 12.1372 19.9712 12.1403 19.9748C12.1632 20.0042 12.1866 20.0331 12.2104 20.0618C12.2159 20.0686 12.2217 20.0754 12.2273 20.0823C12.2487 20.1079 12.2701 20.1334 12.292 20.1587C12.3013 20.1695 12.3111 20.1803 12.3205 20.191C12.3391 20.2122 12.3576 20.2333 12.3766 20.2542C12.387 20.2657 12.3978 20.2773 12.4084 20.2887C12.4133 20.294 12.418 20.2991 12.4229 20.3044C12.4368 20.3194 12.4507 20.3344 12.4647 20.3493C12.4703 20.3551 12.4762 20.3609 12.4818 20.3668C12.5065 20.3925 12.5313 20.4182 12.5567 20.4435L14.7904 18.2099C14.7648 18.1843 14.7408 18.1579 14.7171 18.1314Z" fill="#DCEDC8"/>
<path d="M17.6778 18.3525C17.6533 18.3724 17.6285 18.3917 17.6032 18.4104L17.6088 18.4197L19.2373 21.1231C19.3128 21.0739 19.3873 21.0231 19.4602 20.9697C19.6178 20.8535 19.7703 20.7275 19.9173 20.5919L17.6867 18.3613L17.6778 18.3525Z" fill="#DCEDC8"/>
<path d="M19.0007 21.1454L18.9454 21.0537L17.4252 18.5303C17.3945 18.5488 17.363 18.5655 17.3316 18.5824C17.2999 18.5995 17.268 18.6154 17.2356 18.6308C16.9436 18.7693 16.6274 18.84 16.3109 18.84C16.1035 18.84 15.8962 18.81 15.6957 18.7502C15.6616 18.74 15.6282 18.7266 15.5945 18.7146C15.5608 18.7028 15.5266 18.6925 15.4934 18.6788L14.3724 21.4011L14.3284 21.5079L14.2908 21.5992L14.2906 21.5997C14.2935 21.6008 14.2965 21.6018 14.2994 21.603C14.3025 21.6043 14.3055 21.6052 14.3086 21.6065H14.3087C14.3088 21.6065 14.3089 21.6066 14.3089 21.6066C14.3097 21.6069 14.3104 21.6072 14.3111 21.6075C14.3375 21.6183 14.3642 21.6276 14.3908 21.638C14.4241 21.651 14.4574 21.6642 14.4908 21.6764C14.5079 21.6826 14.5248 21.6899 14.5418 21.6959H14.5419C14.8931 21.8199 15.2565 21.9067 15.626 21.9553C15.6405 21.957 15.6548 21.9591 15.6693 21.9611C15.6844 21.9628 15.6996 21.9643 15.7147 21.966C15.7432 21.9693 15.7716 21.9726 15.8002 21.9754C15.8073 21.9759 15.8143 21.9765 15.8214 21.9772C15.8564 21.9805 15.8915 21.9835 15.9263 21.986C15.9382 21.9868 15.9502 21.9874 15.962 21.9882C15.9927 21.9903 16.0232 21.9922 16.0539 21.9936C16.0726 21.9947 16.0914 21.9952 16.1102 21.9958C16.1345 21.9967 16.1588 21.9976 16.1833 21.9984C16.2183 21.9993 16.2537 21.9996 16.2889 21.9997C16.2973 21.9997 16.3055 21.9999 16.3138 22C16.6089 22 16.904 21.9755 17.1958 21.9265C17.2007 21.9258 17.2055 21.9249 17.2106 21.9243C17.2414 21.9189 17.2723 21.9131 17.3031 21.9074C17.3207 21.904 17.3384 21.9007 17.3557 21.8973C17.3737 21.8935 17.3918 21.8898 17.4098 21.8859C17.4399 21.8796 17.4699 21.8731 17.5 21.8661C17.5054 21.8649 17.5108 21.8638 17.5163 21.8623C17.9599 21.759 18.3883 21.5989 18.7908 21.3871L18.7909 21.387C18.8173 21.3731 18.843 21.3572 18.8693 21.343C18.9005 21.3258 18.9316 21.3082 18.9627 21.2904C18.9842 21.2781 19.006 21.2667 19.0273 21.254L19.0274 21.2538C19.0276 21.2537 19.0278 21.2535 19.028 21.2534C19.028 21.2534 19.028 21.2534 19.0281 21.2534C19.0285 21.2532 19.0288 21.2531 19.0291 21.2529C19.0293 21.2528 19.0294 21.2527 19.0295 21.2526C19.0297 21.2525 19.03 21.2523 19.0302 21.2522C19.0305 21.252 19.0308 21.2519 19.0311 21.2517C19.0323 21.251 19.0335 21.2503 19.0347 21.2496C19.0416 21.2454 19.0486 21.2412 19.0556 21.237L19.0007 21.1454Z" fill="#DCEDC8"/>
<path d="M14.9506 15.0191C14.9753 14.9992 15.0001 14.9799 15.0253 14.9613L15.0197 14.952L13.3913 12.2485C13.3156 12.2979 13.2408 12.3488 13.1679 12.4024C13.0104 12.5183 12.858 12.6442 12.7113 12.7797L14.9419 15.0102L14.9506 15.0191Z" fill="#DCEDC8"/>
<path d="M12.5566 12.9282C12.5312 12.9536 12.5072 12.9799 12.4825 13.0056C12.4577 13.0313 12.4325 13.0569 12.4083 13.083C12.2436 13.2614 12.0929 13.4482 11.9571 13.6422C11.9506 13.6514 11.944 13.6609 11.9376 13.6702C11.9223 13.6925 11.9072 13.7148 11.8923 13.7372C11.8768 13.7604 11.8613 13.784 11.8463 13.8074C11.8407 13.816 11.8351 13.8247 11.8296 13.8333C11.3166 14.6381 11.0417 15.551 11.0047 16.4716C11.0033 16.5072 11.0026 16.543 11.0018 16.5787C11.0011 16.6144 11 16.6501 11 16.6858H14.1591C14.1591 16.65 14.1624 16.6145 14.1642 16.5787C14.166 16.5429 14.1666 16.5071 14.1701 16.4716C14.2109 16.0602 14.3697 15.6585 14.6465 15.3211C14.669 15.2937 14.6944 15.2679 14.7185 15.2415C14.7425 15.215 14.7648 15.1875 14.7904 15.162L12.5566 12.9282Z" fill="#DCEDC8"/>
<path d="M19.0747 12.1442C19.0705 12.1415 19.066 12.1389 19.0617 12.1363C19.0339 12.1193 19.0059 12.1029 18.9778 12.0865C18.9615 12.0771 18.9452 12.068 18.9288 12.0587C18.9123 12.0495 18.896 12.0402 18.8794 12.0312C18.8509 12.0156 18.8223 12.0002 18.7936 11.985C18.7891 11.9827 18.7847 11.9803 18.7801 11.9779C18.5949 11.881 18.4046 11.7958 18.2104 11.7217C18.2055 11.7197 18.2003 11.7178 18.1953 11.716C18.153 11.7001 18.1106 11.6844 18.0678 11.6696C17.7228 11.5491 17.3659 11.4645 17.0034 11.417C16.9886 11.4149 16.9737 11.4129 16.9589 11.411C16.944 11.4091 16.9292 11.4076 16.9145 11.406C16.8859 11.4027 16.8574 11.3995 16.8287 11.3967C16.8207 11.396 16.8127 11.3954 16.8047 11.3946C16.7707 11.3915 16.7365 11.3885 16.7026 11.386C16.6894 11.385 16.676 11.3843 16.6628 11.3835C16.6337 11.3816 16.6042 11.3796 16.5751 11.3783C16.5594 11.3774 16.544 11.377 16.5286 11.3765L16.5285 14.5308V14.5431C16.691 14.5599 16.852 14.5945 17.0082 14.6476L19.3387 12.3171C19.2523 12.2571 19.1647 12.1988 19.0747 12.1442Z" fill="#DCEDC8"/>
<path d="M16.2072 11.3737C16.1715 11.3745 16.1357 11.3746 16.1 11.376C15.8766 11.385 15.6535 11.4078 15.4323 11.4449C15.4275 11.4457 15.4226 11.4465 15.4177 11.4473C15.3867 11.4527 15.3559 11.4584 15.3251 11.4641C15.3076 11.4675 15.29 11.4707 15.2726 11.4742C15.2543 11.4779 15.2362 11.4816 15.2181 11.4856C15.1881 11.4918 15.1581 11.4983 15.1281 11.5053C15.1227 11.5065 15.1173 11.5077 15.1118 11.5089C14.6681 11.6124 14.2395 11.7726 13.8371 11.9844H13.837C13.8108 11.9983 13.7852 12.014 13.759 12.0284C13.7277 12.0455 13.6967 12.0632 13.6656 12.081C13.6426 12.0943 13.6191 12.1065 13.5962 12.1202C13.596 12.1203 13.5957 12.1205 13.5954 12.1206H13.5953C13.5937 12.1216 13.5921 12.1225 13.5905 12.1234C13.5845 12.1271 13.5783 12.1301 13.5723 12.1337L13.5726 12.1342L13.6279 12.2261L15.2032 14.8413C15.234 14.8228 15.2655 14.806 15.2969 14.7891C15.3285 14.7721 15.3605 14.7561 15.3928 14.7408C15.6177 14.6337 15.8568 14.5673 16.0999 14.5426C16.1356 14.539 16.1713 14.536 16.2071 14.5342C16.2427 14.5324 16.2784 14.5305 16.3142 14.5305L16.3143 11.3716C16.2785 11.3716 16.2428 11.3731 16.2072 11.3737Z" fill="#DCEDC8"/>
<path d="M21.6219 16.4245C21.6204 16.3961 21.6187 16.3678 21.6168 16.3393C21.6159 16.3252 21.6152 16.3112 21.614 16.2968C21.6117 16.2635 21.6089 16.2301 21.6058 16.1967C21.6051 16.1881 21.6043 16.1795 21.6035 16.1708C21.5999 16.1335 21.5959 16.0962 21.5916 16.0591C21.5912 16.0561 21.5909 16.0531 21.5905 16.0501C21.5903 16.0487 21.5902 16.0472 21.59 16.0458C21.5851 16.0056 21.5797 15.9654 21.5741 15.9254C21.5739 15.9242 21.5738 15.9227 21.5735 15.9216C21.5372 15.6698 21.4828 15.4202 21.4102 15.1747C21.4097 15.173 21.4093 15.1715 21.4087 15.17C21.3973 15.1319 21.3856 15.0939 21.3736 15.0561C21.372 15.0512 21.3703 15.0462 21.3688 15.0411C21.3575 15.0069 21.3462 14.973 21.3344 14.9389C21.3311 14.9298 21.3279 14.9206 21.3247 14.9113C21.3143 14.8818 21.3035 14.8525 21.2926 14.8231C21.2874 14.8091 21.282 14.7952 21.2765 14.7812C21.2673 14.7569 21.2578 14.7326 21.2482 14.7086C21.2404 14.6893 21.2327 14.6703 21.2248 14.6514C21.2171 14.6325 21.2092 14.6139 21.2012 14.595C21.1908 14.571 21.1803 14.547 21.1697 14.5231C21.1637 14.5098 21.1577 14.4962 21.1515 14.4827C21.1385 14.4542 21.1251 14.4257 21.1116 14.3973C21.1074 14.3887 21.1033 14.3799 21.0991 14.3713C21.0834 14.3389 21.0674 14.3064 21.0511 14.2743C21.0488 14.2699 21.0465 14.2654 21.0442 14.2609C21.026 14.2254 21.0073 14.1899 20.9884 14.1548C20.9876 14.1537 20.9871 14.1523 20.9863 14.1511C20.8943 13.9818 20.7933 13.8181 20.684 13.6606L18.3528 15.992C18.4058 16.1483 18.4403 16.3092 18.4571 16.4716H18.4695H21.6239C21.6231 16.4557 21.6227 16.44 21.6219 16.4245Z" fill="#DCEDC8"/>
<path d="M18.4693 16.6861C18.4693 16.7219 18.466 16.7575 18.4642 16.7933C18.4625 16.8291 18.4618 16.8648 18.4583 16.9004C18.4175 17.3118 18.2587 17.7135 17.982 18.051C17.9595 18.0784 17.9341 18.1041 17.91 18.1306C17.886 18.157 17.8637 18.1846 17.8381 18.2101L20.0719 20.4437C20.0973 20.4183 20.1212 20.3921 20.1459 20.3663C20.1707 20.3405 20.1958 20.315 20.2199 20.2888C20.3852 20.1098 20.5363 19.9225 20.6724 19.7279C20.6779 19.7202 20.6831 19.7126 20.6883 19.705C20.7049 19.6811 20.7211 19.657 20.7374 19.6329C20.7516 19.6113 20.7659 19.5898 20.7797 19.5681C20.7865 19.5577 20.7934 19.5468 20.8 19.5364C21.3123 18.732 21.5865 17.8201 21.6233 16.9003C21.6247 16.8646 21.6255 16.8288 21.6262 16.7932C21.627 16.7575 21.628 16.7218 21.628 16.686H18.4693V16.6861Z" fill="#DCEDC8"/>
<path d="M22.5666 10.4335C21.9887 9.85551 21.0516 9.85551 20.4737 10.4335C20.0127 10.8945 19.9205 11.5836 20.1951 12.1371L16.9714 15.3608C16.418 15.0864 15.7288 15.1784 15.2678 15.6394C14.6898 16.2173 14.6899 17.1544 15.2678 17.7324C15.8458 18.3103 16.7829 18.3101 17.3609 17.7323C17.8218 17.2713 17.9139 16.5821 17.6393 16.0286L20.863 12.8049C21.4165 13.0794 22.1056 12.9874 22.5665 12.5263C23.1445 11.9486 23.1445 11.0114 22.5666 10.4335Z" fill="#DCEDC8"/>
</svg>
