<svg xmlns="http://www.w3.org/2000/svg" xmlns:xlink="http://www.w3.org/1999/xlink" viewBox="0 0 16 16">
<defs><path id="a" fill="#d1c4e9" d="M7 10v-1h-1v4h1v-1h1v1a1 1 0 0 1-1 1h-1a1 1 0 0 1-1-1v-4a1 1 0 0 1 1-1h1a1 1 0 0 1 1 1v1Zm5 0v-1a1 1 0 0 0-1-1h-1a1 1 0 0 0-1 1v1c0 0.4195 0.1785 1.17 1.373 1.483C10.719 11.575 11 11.806 11 12v1h-1v-1h-1v1a1 1 0 0 0 1 1h1a1 1 0 0 0 1-1v-1a1.6725 1.6725 0 0 0-1.373-1.4835C10 10.3515 10 10.0965 10 10v-1h1v1Zm4 0v-1a1 1 0 0 0-1-1h-1a1 1 0 0 0-1 1v1c0 0.4195 0.1785 1.17 1.373 1.483C14.719 11.575 15 11.806 15 12v1h-1v-1h-1v1a1 1 0 0 0 1 1h1a1 1 0 0 0 1-1v-1a1.6725 1.6725 0 0 0-1.373-1.4835C14 10.3515 14 10.0965 14 10v-1h1v1Z"/></defs>
<path fill="#7e57c2" d="m6.922 3.768-.644-.536A1 1 0 0 0 5.638 3H2a1 1 0 0 0-1 1v8a1 1 0 0 0 1 1h12a1 1 0 0 0 1-1V5a1 1 0 0 0-1-1H7.562a1 1 0 0 1-.64-.232" id="folder"/>
<g id="motive"><use xlink:href="#a"/><use xlink:href="#a"/></g>
</svg>
