<?xml version="1.0" encoding="UTF-8" standalone="no"?> <svg clip-rule="evenodd" fill-rule="evenodd" stroke-linejoin="round" stroke-miterlimit="1.414" viewBox="0 0 24 24" xml:space="preserve" version="1.1" id="svg828" xmlns="http://www.w3.org/2000/svg" xmlns:svg="http://www.w3.org/2000/svg"><defs id="defs832" /><path d="M 19,20 H 4 A 2,2 0 0 1 2,18 V 6 C 2,4.89 2.89,4 4,4 H 9.9999997 L 12,6 h 7 c 1.097,0 2,0.903 2,2 H 4 v 10 l 2.14,-8 h 17.07 l -2.28,8.5 C 20.7,19.37 19.92,20 19,20 Z" fill="#e57373" style="clip-rule:evenodd;fill:#546e7a;stroke-linejoin:round;stroke-miterlimit:1.414" id="path1147" /><g id="layer1" /><g id="layer2"><path d="m 16.793167,8.3575817 c -0.32496,0 -0.649919,0.1234846 -0.916386,0.3834521 l -5.19935,5.1993502 c -0.513436,0.506936 -0.513436,1.325834 0,1.832771 l 5.19935,5.19935 c 0.506937,0.513436 1.325834,0.513436 1.832771,0 l 5.19935,-5.19935 c 0.513436,-0.506937 0.513436,-1.325835 0,-1.832771 L 17.709552,8.7410338 C 17.443085,8.4810663 17.118126,8.3575817 16.793167,8.3575817 m -0.649919,3.2495933 h 1.299837 v 3.899513 h -1.299837 v -3.899513 m 0,5.199351 h 1.299837 v 1.299837 h -1.299837 z" id="path963" style="fill:#cfd8dc;fill-opacity:1;stroke-width:0.649919" /></g></svg> 
