<svg xmlns="http://www.w3.org/2000/svg" viewBox="0 0 32 32"><path fill="#ec407a" d="M28.967 12H9.442a2 2 0 0 0-1.898 1.368L4 24V10h24a2 2 0 0 0-2-2H15.124a2 2 0 0 1-1.28-.464l-1.288-1.072A2 2 0 0 0 11.276 6H4a2 2 0 0 0-2 2v16a2 2 0 0 0 2 2h22l4.805-11.212A2 2 0 0 0 28.967 12Z"/><path fill="#f8bbd0" d="M25 14a6.908 6.908 0 0 0-2 .29 7.042 7.042 0 0 0-4 0 6.908 6.908 0 0 0-2-.29 7 7 0 0 0 0 14 6.908 6.908 0 0 0 2-.29 7.04 7.04 0 0 0 4 0 6.908 6.908 0 0 0 2 .29 7 7 0 0 0 0-14Zm-13 7a5 5 0 0 1 4.01-4.9 6.978 6.978 0 0 0 0 9.8A5 5 0 0 1 12 21Zm8.01 4.9a4.999 4.999 0 0 1 0-9.8 6.978 6.978 0 0 0 0 9.8ZM23 16.41a5.011 5.011 0 0 1 0 9.18 5.011 5.011 0 0 1 0-9.18Zm2.99 9.49a6.978 6.978 0 0 0 0-9.8 4.999 4.999 0 0 1 0 9.8Z"/></svg>