<svg xmlns="http://www.w3.org/2000/svg" clip-rule="evenodd" fill-rule="evenodd" stroke-linejoin="round" stroke-miterlimit="1.414" viewBox="0 0 24 24"><path d="M19 20H4a2 2 0 01-2-2V6c0-1.11.89-2 2-2h6l2 2h7c1.097 0 2 .903 2 2H4v10l2.14-8h17.07l-2.28 8.5c-.23.87-1.01 1.5-1.93 1.5z" fill-rule="nonzero" fill="#212121"/><path d="M23.025 17.37a6.118 5.84 0 01-6.115 5.84 6.118 5.84 0 01-6.121-5.833 6.118 5.84 0 016.107-5.847 6.118 5.84 0 016.129 5.826" fill="#fff"/><path d="M15.979 8.69l-.222.02c-2.078.186-4.025 1.308-5.258 3.032a7.243 7.243 0 00-1.292 3.197c-.058.401-.065.52-.065 1.065 0 .545.007.664.065 1.066a7.347 7.347 0 005.005 5.912c.475.153.976.257 1.545.32.222.024 1.18.024 1.402 0 .983-.109 1.815-.352 2.636-.77.126-.065.15-.082.133-.097-.011-.008-.548-.728-1.191-1.597l-1.17-1.581-1.466-2.17a208.442 208.442 0 00-1.477-2.168c-.005-.002-.011.962-.014 2.14-.004 2.06-.006 2.144-.031 2.192a.26.26 0 01-.126.13c-.046.023-.086.028-.302.028h-.248l-.065-.042a.267.267 0 01-.096-.104l-.03-.065.003-2.868.004-2.87.044-.055a.392.392 0 01.106-.087c.059-.029.082-.032.33-.032.29 0 .34.012.415.095.022.023.816 1.219 1.765 2.659l2.887 4.373 1.159 1.755.058-.039a7.511 7.511 0 001.504-1.319 7.284 7.284 0 001.722-3.74c.059-.402.066-.52.066-1.066 0-.545-.007-.664-.066-1.065a7.347 7.347 0 00-5.005-5.912 7.682 7.682 0 00-1.524-.32 18.91 18.91 0 00-1.201-.018zm2.995 4.425c.069.034.125.1.145.169.011.037.014.832.011 2.624l-.004 2.572-.454-.695-.454-.695v-1.87c0-1.208.005-1.888.014-1.92a.292.292 0 01.141-.18c.06-.031.08-.034.305-.034.212 0 .249.003.296.029z"/><path d="M20.353 22.2c-.05.03-.066.052-.021.028.031-.019.083-.057.074-.059a.294.294 0 00-.053.03zm-.099.064c-.025.02-.025.021.006.005.017-.008.032-.018.032-.021 0-.012-.008-.009-.038.016zm-.071.043c-.026.02-.026.021.006.005.017-.008.031-.018.031-.021 0-.012-.007-.009-.037.016zm-.072.042c-.025.02-.025.022.006.006.017-.008.032-.018.032-.021 0-.012-.008-.009-.038.015zm-.108.058c-.055.028-.052.04.003.013a.149.149 0 00.042-.029c0-.01-.001-.009-.045.016z"/></svg>