<svg viewBox="0 0 24 24" fill="none" xmlns="http://www.w3.org/2000/svg">
  <path
    d="M19 20H4a2 2 0 0 1-2-2V6c0-1.11.89-2 2-2h6l2 2h7c1.097 0 2 .903 2 2H4v10l2.14-8h17.07l-2.28 8.5c-.23.87-1.01 1.5-1.93 1.5Z"
    fill="#F4511E" />
  <path d="m20.506 12.025-.828 1.673c.272.252.464.585.54.96h.624c.072-.355.248-.676.5-.924l-.836-1.709Z"
    fill="#FFCCBC" />
  <path
    d="m18.981 13.294 1.525-3.081 1.52 3.101c.06-.02.12-.036.18-.052L23.652 9h-6.295l1.441 4.25c.06.012.124.028.184.044Zm-.524 2.725a1.01 1.01 0 0 0 .732-1.704l-.004-.004a.75.75 0 0 0-.136-.117l-.004-.004c-.012-.008-.028-.02-.044-.027-.004 0-.004-.005-.008-.005-.016-.008-.032-.02-.048-.027h-.004l-.052-.029h-.004c-.016-.008-.032-.016-.048-.02-.004 0-.008-.004-.012-.004-.012-.003-.028-.011-.04-.015-.004 0-.008-.005-.016-.005-.016-.003-.032-.011-.048-.015h-.004l-.056-.012c-.004 0-.008 0-.016-.005-.016-.003-.028-.003-.044-.008-.008 0-.012 0-.02-.004l-.04-.003h-.156c-.016 0-.028.004-.044.004h-.016c-.016.003-.032.003-.048.008h-.012l-.056.011c-.44.108-.768.509-.768.981.008.548.46 1.004 1.016 1.004Zm4.242-2.016h-.008c-.016 0-.028-.005-.044-.005h-.052c-.02 0-.04 0-.064.005h-.02c-.016 0-.032.004-.048.004-.004 0-.012 0-.016.004l-.06.012h-.004l-.056.011c-.004 0-.012.005-.016.005a.228.228 0 0 0-.048.016c-.004 0-.008.004-.012.004a.784.784 0 0 0-.056.024l-.056.024c-.004 0-.008.004-.012.004-.016.007-.032.015-.048.027 0 0-.004 0-.004.005a.596.596 0 0 0-.104.072l-.004.004a1.1 1.1 0 0 0-.14.132 1.014 1.014 0 0 0-.244.66 1.01 1.01 0 0 0 2.017 0c0-.488-.353-.9-.813-.992-.024-.008-.056-.012-.088-.017Zm-8.424 2.016a1.01 1.01 0 0 0 0-2.016 1.01 1.01 0 0 0 0 2.016Z"
    fill="#FFCCBC" />
  <path
    d="M22.599 16.8a1.795 1.795 0 0 1-1.733-1.34h-.672a1.795 1.795 0 0 1-2.01 1.32 5.371 5.371 0 0 1-.832.988c-.572.54-1.22.94-1.92 1.193l-.165.06-.152-.08c-.84-.432-1.272-1.309-1.12-2.157a1.552 1.552 0 0 1-.276-.072c-.016.028-.028.06-.044.092-.257.528-.525 1.072-.62 1.657-.105.624-.149 1.765.732 2.373.384.264.788.396 1.24.396.869 0 1.805-.464 2.798-.957.776-.384 1.576-.784 2.409-.988a10.2 10.2 0 0 1 .944-.168c.565-.08 1.1-.16 1.537-.412a1.768 1.768 0 0 0 .788-2.15 1.808 1.808 0 0 1-.904.245Z"
    fill="#FFCCBC" />
</svg>