<svg width="16" height="16" viewBox="0 0 16 16" fill="none" xmlns="http://www.w3.org/2000/svg">
  <g clip-path="url(#clip0_403_257)">
    <path
      d="M14.4835 6H4.721C4.51104 5.99995 4.30638 6.06599 4.13605 6.18876C3.96572 6.31153 3.83835 6.48479 3.772 6.684L2 12V5H14C14 4.73478 13.8946 4.48043 13.7071 4.29289C13.5196 4.10536 13.2652 4 13 4H7.562C7.3281 3.99989 7.10164 3.9178 6.922 3.768L6.278 3.232C6.09836 3.0822 5.8719 3.00011 5.638 3H2C1.73478 3 1.48043 3.10536 1.29289 3.29289C1.10536 3.48043 1 3.73478 1 4V12C1 12.2652 1.10536 12.5196 1.29289 12.7071C1.48043 12.8946 1.73478 13 2 13H13L15.4025 7.394C15.4677 7.24191 15.4941 7.07601 15.4794 6.91118C15.4647 6.74635 15.4094 6.58775 15.3183 6.44959C15.2272 6.31143 15.1033 6.19804 14.9576 6.11957C14.8119 6.0411 14.649 6.00002 14.4835 6Z"
      fill="#EF5350" />
    <path
      d="M12.2695 5.41309C12.4979 5.44693 12.7151 5.52583 12.9209 5.65039C13.7481 6.14765 14.5818 6.63646 15.4209 7.11523C15.7122 7.36976 15.9061 7.68051 16.001 8.04785V11.3057C15.9271 11.7051 15.7334 12.0412 15.4209 12.3125C14.5577 12.8035 13.7 13.304 12.8486 13.8135C12.6735 13.909 12.4924 13.9761 12.3057 14.0146C12.1428 14.0329 11.9978 14.0329 11.835 14.0146C11.6539 13.9963 9.82337 12.9005 8.82812 12.3125C8.53692 12.0585 8.34319 11.7469 8.24805 11.3789V8.04785C8.34292 7.68048 8.5368 7.36976 8.82812 7.11523C9.66714 6.6365 10.5 6.14761 11.3271 5.65039C11.5127 5.53787 11.7065 5.45916 11.9072 5.41309C12.0339 5.39481 12.1519 5.39568 12.2695 5.41309ZM9.33496 7.86426C9.25139 7.91834 9.185 7.99165 9.13574 8.08398C9.1116 9.16983 9.11159 10.256 9.13574 11.3418C9.17485 11.433 9.2229 11.5184 9.28027 11.5977C10.0623 12.0813 10.8534 12.5509 11.6533 13.0068C11.8487 13.1557 12.0657 13.2046 12.3047 13.1533C13.1499 12.6653 13.9956 12.1774 14.8408 11.6895C14.961 11.5998 15.0515 11.4837 15.1123 11.3418C15.1365 10.2437 15.1365 9.14501 15.1123 8.04688C14.9837 7.86601 14.8211 7.82335 14.624 7.91895C13.8015 8.44428 12.9679 8.95109 12.124 9.43848C11.2802 8.95109 10.4466 8.44428 9.62402 7.91895C9.53316 7.87326 9.43687 7.85511 9.33496 7.86426ZM12.0156 6.32715C11.3914 6.66708 10.7754 7.02735 10.168 7.40723C10.3309 7.49561 10.4878 7.59347 10.6387 7.7002C10.7061 7.74767 10.7792 7.75948 10.8564 7.73633C11.2686 7.47933 11.6912 7.24115 12.124 7.02246C12.5792 7.2626 13.0266 7.51881 13.4648 7.79102C13.6698 7.66309 13.8751 7.53515 14.0801 7.40723C13.5731 7.10229 13.0656 6.79712 12.5586 6.49219C12.3925 6.38625 12.2116 6.33093 12.0156 6.32715Z"
      fill="#FFCDD2" />
    <path fill-rule="evenodd" clip-rule="evenodd"
      d="M9.76819 8.7793C10.4978 9.21504 11.2223 9.6604 11.9418 10.1154C12.0626 10.1886 12.1833 10.1886 12.3041 10.1154C13.0196 9.66542 13.7381 9.22005 14.4596 8.7793C14.4898 9.57266 14.4837 10.3658 14.4415 11.1586C13.6687 11.61 12.8958 12.0615 12.123 12.5129C11.3501 12.0615 10.5773 11.61 9.80442 11.1586C9.7682 10.3659 9.75613 9.57277 9.76819 8.7793Z"
      fill="#FFCDD2" />
  </g>
</svg>