<svg width="32" height="32" viewBox="0 0 32 32" fill="none" xmlns="http://www.w3.org/2000/svg">
<path d="M28.967 12H9.442C9.02207 11.9999 8.61276 12.132 8.2721 12.3775C7.93143 12.6231 7.6767 12.9696 7.544 13.368L4 24V10H28C28 9.46957 27.7893 8.96086 27.4142 8.58579C27.0391 8.21071 26.5304 8 26 8H15.124C14.6562 7.99979 14.2033 7.8356 13.844 7.536L12.556 6.464C12.1967 6.1644 11.7438 6.00021 11.276 6H4C3.46957 6 2.96086 6.21071 2.58579 6.58579C2.21071 6.96086 2 7.46957 2 8V24C2 24.5304 2.21071 25.0391 2.58579 25.4142C2.96086 25.7893 3.46957 26 4 26H26L30.805 14.788C30.9354 14.4838 30.9883 14.152 30.9589 13.8224C30.9295 13.4927 30.8187 13.1755 30.6366 12.8992C30.4544 12.6229 30.2065 12.3961 29.9151 12.2391C29.6237 12.0822 29.298 12 28.967 12Z" fill="#FFF3E0"/>
<path d="M24.3701 25.8083C27.285 25.4845 30.0332 23.9313 31.5463 21.3389C30.8297 27.751 23.8182 31.8038 18.0951 29.3155C17.5677 29.0869 17.1138 28.7064 16.8023 28.2173C15.5161 26.1978 15.0933 23.628 15.7008 21.2959C17.4364 24.2914 20.9656 26.1275 24.3701 25.8083Z" fill="#FFB300"/>
<path d="M15.5945 19.4149C14.4129 22.1455 14.3617 25.3424 15.8103 27.9733C10.7125 24.1379 10.7681 15.9304 15.748 12.1335C16.2086 11.7825 16.756 11.5742 17.3301 11.5425C19.691 11.418 22.0898 12.3304 23.772 14.0308C20.3541 14.0648 17.0253 16.2542 15.5945 19.4149Z" fill="#880E4F"/>
<path d="M25.4204 14.8708C23.696 12.4663 20.9968 10.8293 18.0396 10.7795C23.756 8.18481 30.7875 12.3916 31.553 18.6111C31.6243 19.1885 31.5307 19.7772 31.2748 20.2979C30.2068 22.4669 28.2264 24.1492 25.9122 24.7718C27.6078 21.6269 27.3986 17.7847 25.4204 14.8708Z" fill="#E53935"/>
</svg>
