<svg xmlns="http://www.w3.org/2000/svg" viewBox="0 0 32 32">
  <path d="M28.96692,12H9.44152a2,2,0,0,0-1.89737,1.36754L4,24V10H28a2,2,0,0,0-2-2H15.1241a2,2,0,0,1-1.28038-.46357L12.5563,6.46357A2,2,0,0,0,11.27592,6H4A2,2,0,0,0,2,8V24a2,2,0,0,0,2,2H26l4.80523-11.21213A2,2,0,0,0,28.96692,12Z" style="fill: #ffc107"/>
  <path d="M23.05733,23.71467A3.07735,3.07735,0,0,1,19.98,20.63733h0a3.07734,3.07734,0,1,1,3.07734,3.07734h0m6.532-2.224a6.928,6.928,0,0,0,.06133-.85334,7.6275,7.6275,0,0,0-.06133-.87866L31.444,18.32533a.444.444,0,0,0,.10667-.56266l-1.76-3.04a.4315.4315,0,0,0-.536-.19467l-2.188.88A6.37183,6.37183,0,0,0,25.58,14.54533L25.25467,12.216a.444.444,0,0,0-.44-.36933h-3.516a.444.444,0,0,0-.44.36933l-.324,2.32933a6.37312,6.37312,0,0,0-1.48534.86134L16.86,14.528a.432.432,0,0,0-.536.19333l-1.75867,3.04134a.43333.43333,0,0,0,.10667.56266l1.85333,1.43334a7.62826,7.62826,0,0,0-.06133.88,6.90829,6.90829,0,0,0,.06133.852L14.672,22.94933a.43335.43335,0,0,0-.10667.56267L16.324,26.55467a.44266.44266,0,0,0,.536.19333l2.18933-.888a6.0632,6.0632,0,0,0,1.48534.87067L20.86,29.06a.444.444,0,0,0,.44.36933h3.516a.444.444,0,0,0,.44-.36933l.324-2.32933A6.40228,6.40228,0,0,0,27.06666,25.86l2.188.888a.445.445,0,0,0,.53733-.19333L31.54933,23.512a.444.444,0,0,0-.10533-.56267Z" style="fill: #fff9c4"/>
</svg>
