<svg xmlns="http://www.w3.org/2000/svg" viewBox="0 0 32 32">
  <path d="M28.96692,12H9.44152a2,2,0,0,0-1.89737,1.36754L4,24V10H28a2,2,0,0,0-2-2H15.1241a2,2,0,0,1-1.28038-.46357L12.5563,6.46357A2,2,0,0,0,11.27592,6H4A2,2,0,0,0,2,8V24a2,2,0,0,0,2,2H26l4.80523-11.21213A2,2,0,0,0,28.96692,12Z" style="fill: #43a047"/>
  <path d="M25,9.96246l-7,3.27265v4.9082c0,4.54181,2.98608,8.78778,7,9.81915,4.01392-1.03137,7-5.27734,7-9.81915v-4.9082ZM28,20H22V18h6Z" style="fill: #c8e6c9;fill-rule: evenodd"/>
</svg>
