<svg xmlns="http://www.w3.org/2000/svg" viewBox="0 0 32 32"><path fill="#ff9800" d="M28.967 12H9.442a2 2 0 0 0-1.898 1.368L4 24V10h24a2 2 0 0 0-2-2H15.124a2 2 0 0 1-1.28-.464l-1.288-1.072A2 2 0 0 0 11.276 6H4a2 2 0 0 0-2 2v16a2 2 0 0 0 2 2h22l4.805-11.212A2 2 0 0 0 28.967 12"/><path fill="#ffe0b2" d="M29.955 19.686a6.4 6.4 0 0 0-2.146-3.87c-.377-.321-5.496-4.25-6.75-5.184l-.358-.276a1.045 1.045 0 1 0-1.274 1.656l2.52 1.939.062.05L12.996 14a.993.993 0 0 0-.081 1.984l.006.003.031.004c.016 0 .028.009.044.009h.068l.03.001h4.413l-7.734 5.957a1.56 1.56 0 0 0-.525 1.215 1 1 0 0 0 .44.825 1.47 1.47 0 0 0 1.516.023 3.1 3.1 0 0 0 .761-.554c2.098-1.725 3.674-3.008 3.684-2.999a1.5 1.5 0 0 1-.013.267 3.5 3.5 0 0 0 .089 1.259 6.2 6.2 0 0 0 1.08 2.288 7.28 7.28 0 0 0 4.58 2.76c.252.044.426.066.875.11.161.016 1.184-.008 1.379-.031a7.5 7.5 0 0 0 4.382-2.018 6.4 6.4 0 0 0 1.924-3.6 8.2 8.2 0 0 0 .01-1.817m-2.803.93a3.8 3.8 0 0 1-1.091 2.048 4.1 4.1 0 0 1-1.237.882 4.8 4.8 0 0 1-1.611.435 4.283 4.283 0 0 1-4.836-3.811 3.9 3.9 0 0 1 2.082-3.569 4.754 4.754 0 0 1 5.692.802 3.7 3.7 0 0 1 .65.933 3.5 3.5 0 0 1 .34.978 4.5 4.5 0 0 1 .011 1.303m-1.549-1.334a1.7 1.7 0 0 1 .059.56 1.8 1.8 0 0 1-.05.546 2.4 2.4 0 0 1-.724 1.216 2.85 2.85 0 0 1-1.758.772 2 2 0 0 1-.55-.001 2.79 2.79 0 0 1-2.265-1.51 3 3 0 0 1-.155-.392 2.36 2.36 0 0 1 .603-2.276 2.85 2.85 0 0 1 1.505-.824 3.36 3.36 0 0 1 1.532.085 2.68 2.68 0 0 1 1.803 1.824"/></svg>