<svg xmlns="http://www.w3.org/2000/svg" viewBox="0 0 32 32">
  <path d="M13.84376,7.53645l-1.28749-1.0729A2,2,0,0,0,11.27591,6H4A2,2,0,0,0,2,8V24a2,2,0,0,0,2,2H28a2,2,0,0,0,2-2V10a2,2,0,0,0-2-2H15.12412A2,2,0,0,1,13.84376,7.53645Z" style="fill: #c0ca33"/>
  <path d="M27.64363,24.54382c1.96152-2.36347,2.19155-4.80423.674-9.33526-.96115-2.86672-2.55534-5.07382-1.38377-6.855,1.24824-1.898,3.90165-.05751,1.69048,2.48029l.44045.30734c2.65163.31094,3.95871-3.35019,1.97936-4.39443-5.22479-2.7499-9.79693,2.536-7.7819,8.65408.86664,2.59712,2.07743,5.347,1.09667,7.53615a4.85188,4.85188,0,0,1-3.57355,3.01949c-2.28607.115-.76678-5.16909,1.86345-6.48652.23-.115.55814-.26959.24965-.65782a5.74426,5.74426,0,0,0-6.243,3.25314C13.46358,28.205,22.70594,30.46957,27.64363,24.54382Z" style="fill: #f0f4c3;fill-rule: evenodd"/>
</svg>
