<svg xmlns="http://www.w3.org/2000/svg" viewBox="0 0 32 32">
  <path d="M28.96692,12H9.44152a2,2,0,0,0-1.89737,1.36754L4,24V10H28a2,2,0,0,0-2-2H15.1241a2,2,0,0,1-1.28038-.46357L12.5563,6.46357A2,2,0,0,0,11.27592,6H4A2,2,0,0,0,2,8V24a2,2,0,0,0,2,2H26l4.80523-11.21213A2,2,0,0,0,28.96692,12Z" style="fill: #43a047"/>
  <g>
    <polygon points="20 14 20 20.48 25.38 24.78 26.62 23.22 22 19.52 22 14 20 14" style="fill: #c8e6c9"/>
    <path d="M32,10.16248l-2.898,2.82061A9.98429,9.98429,0,1,0,31.8,22H29.75a8.03368,8.03368,0,1,1-2.0824-7.62073L24.975,17H32Z" style="fill: #c8e6c9"/>
  </g>
</svg>
