<svg width="24" height="24" viewBox="0 0 24 24" fill="none" xmlns="http://www.w3.org/2000/svg">
<path fill-rule="evenodd" clip-rule="evenodd" d="M10 4H4C2.89 4 2 4.89 2 6V18C2 19.097 2.903 20 4 20H20C21.097 20 22 19.097 22 18V8C22 7.46957 21.7893 6.96086 21.4142 6.58579C21.0391 6.21071 20.5304 6 20 6H12L10 4Z" fill="#263238"/>
<path fill-rule="evenodd" clip-rule="evenodd" d="M10.5182 14.0511C10.6771 14.1051 10.8439 14.1329 11.0118 14.1333C11.1629 14.1326 11.3132 14.1099 11.4578 14.0659V18.1554C11.4578 18.2999 11.535 18.4344 11.6597 18.5068L15.5696 20.782C15.6636 20.6706 15.7807 20.581 15.9129 20.5194C16.045 20.4579 16.189 20.4258 16.3347 20.4256C16.6686 20.4256 16.9628 20.59 17.147 20.8417C17.1497 20.8464 17.1531 20.8506 17.1572 20.8541C17.1696 20.8716 17.1817 20.8915 17.1942 20.9114L17.2067 20.934C17.2168 20.9515 17.2269 20.969 17.2367 20.9889L17.2518 21.0189L17.2741 21.0711L17.2892 21.1082C17.2944 21.1248 17.2993 21.1416 17.3041 21.1584C17.3091 21.1732 17.3115 21.1907 17.3165 21.2055L17.3263 21.2503C17.3313 21.2706 17.334 21.2904 17.3364 21.3103C17.3364 21.3228 17.3414 21.3329 17.3414 21.3453C17.3438 21.3777 17.3465 21.41 17.3465 21.4447C17.3465 21.4973 17.3414 21.5495 17.334 21.5994V21.6196C17.2491 22.0953 16.8354 22.4592 16.3395 22.4592C16.1281 22.4586 15.9222 22.3917 15.751 22.2677C15.5798 22.1438 15.4519 21.9691 15.3853 21.7685L11.191 19.3292C10.9861 19.2099 10.8162 19.0389 10.6981 18.8334C10.58 18.6278 10.518 18.3948 10.5182 18.1578V14.0511ZM21.4929 11.5639C22.0489 11.5639 22.5 12.0201 22.5 12.5781C22.5 12.8823 22.3652 13.1566 22.1533 13.3409V18.1554C22.1535 18.3924 22.0915 18.6254 21.9734 18.8309C21.8554 19.0364 21.6854 19.2073 21.4805 19.3265L17.8795 21.4198C17.8747 21.0902 17.7667 20.7704 17.5705 20.5054L21.0122 18.5041C21.1368 18.432 21.214 18.2976 21.214 18.1531V13.5528C21.0575 13.5068 20.9143 13.4239 20.7966 13.3109C20.679 13.198 20.5902 13.0584 20.5379 12.9039C20.4856 12.7494 20.4712 12.5845 20.4961 12.4233C20.5209 12.2621 20.5842 12.1093 20.6806 11.9777C20.6806 11.9753 20.6857 11.9726 20.6857 11.9703C20.7079 11.9403 20.7329 11.9079 20.7605 11.8806V11.8756C20.8201 11.8183 20.8801 11.7658 20.9475 11.7236C20.9543 11.7186 20.9618 11.7144 20.9697 11.7112C20.997 11.696 21.0246 11.6788 21.0519 11.6664C21.0593 11.6613 21.0694 11.6586 21.0769 11.6539C21.1129 11.6383 21.1495 11.6241 21.1867 11.6115L21.2588 11.5912C21.3336 11.5741 21.4107 11.5643 21.4906 11.5643L21.4929 11.5639ZM16.3371 9C16.5689 9 16.8007 9.05963 17.0099 9.18194L20.6335 11.2877C20.3641 11.4708 20.1591 11.734 20.0476 12.04L16.5389 10.0017C16.4774 9.96647 16.4079 9.94756 16.3371 9.94674C16.2661 9.94637 16.1963 9.96536 16.1353 10.0017L12.0037 12.4039C12.0443 12.6377 12.002 12.8784 11.8842 13.0845C11.7663 13.2905 11.5803 13.449 11.3581 13.5326C11.3558 13.5326 11.3531 13.5326 11.348 13.5353C11.3184 13.5454 11.2857 13.5555 11.256 13.5625L11.2362 13.5676C11.2062 13.575 11.1762 13.5801 11.1462 13.5851H11.1213C11.0839 13.5925 11.0465 13.5952 11.0091 13.5952C10.9574 13.5949 10.9058 13.5907 10.8548 13.5824C10.8248 13.5777 10.7948 13.5723 10.7651 13.5652C10.755 13.5652 10.7476 13.5602 10.7375 13.5578C10.6593 13.5363 10.5841 13.5053 10.5135 13.4655L10.4535 13.4281C10.3137 13.3354 10.1991 13.2095 10.1199 13.0616C10.0408 12.9137 9.99957 12.7485 10 12.5808C10.0051 12.0201 10.4559 11.5639 11.0118 11.5639C11.1563 11.5639 11.2934 11.5943 11.4178 11.6515L15.6643 9.18194C15.8688 9.06346 16.1008 9.00072 16.3371 9Z" fill="#00BCD4"/>
<path d="M17.4337 14.9655L18.0789 14.4972C18.1746 14.4275 18.2898 14.39 18.4081 14.39H18.6547C18.6871 14.5743 18.8589 14.7165 19.0708 14.7165H19.8184C20.0502 14.7165 20.2396 14.542 20.2396 14.3304V14.0012C20.2396 13.7869 20.0502 13.6151 19.8184 13.6151H19.0708C18.8616 13.6151 18.6871 13.757 18.6547 13.9439H18.4081C18.1938 13.9439 17.9893 14.0113 17.8175 14.136L17.172 14.6043C17.0765 14.6739 16.9613 14.7114 16.8431 14.7114H15.4126C15.3179 14.6467 15.2059 14.6119 15.0912 14.6117H13.0029C12.6913 14.6117 12.4373 14.8661 12.4373 15.1777V16.2815C12.4373 16.5931 12.6913 16.8472 13.0029 16.8472H15.0912C15.2108 16.8472 15.3203 16.8098 15.4126 16.7474H16.8431C16.9627 16.7474 17.0749 16.7848 17.172 16.8546L17.8175 17.3229C17.9893 17.4476 18.1962 17.5149 18.4081 17.5149H18.6547C18.6871 17.6992 18.8589 17.8417 19.0708 17.8417H19.8184C20.0502 17.8417 20.2396 17.6669 20.2396 17.4553V17.1261C20.2396 16.9119 20.0502 16.74 19.8184 16.74H19.0708C18.8616 16.74 18.6871 16.8822 18.6547 17.0665H18.4081C18.2898 17.0665 18.1746 17.029 18.0789 16.9594L17.4337 16.491C17.2622 16.3661 17.0554 16.2988 16.8431 16.299H15.6545V15.955H18.6524C18.6847 16.1393 18.8566 16.2815 19.0685 16.2815H19.8161C20.0479 16.2815 20.2372 16.107 20.2372 15.895V15.5662C20.2372 15.3519 20.0479 15.1801 19.8161 15.1801H19.0685C18.8589 15.1801 18.6847 15.3219 18.6524 15.5089H15.6545V15.1649H16.8431C17.0574 15.1649 17.2616 15.0976 17.4337 14.9729V14.9655ZM19.0958 14.0636H19.7885V14.2704H19.0958V14.0636ZM19.0958 17.1861H19.7885V17.393H19.0958V17.1861ZM19.0958 15.6235H19.7885V15.8303H19.0958V15.6235ZM15.0912 16.396H13.0029C12.9876 16.3961 12.9723 16.3931 12.9581 16.3872C12.9439 16.3814 12.9309 16.3728 12.9201 16.3619C12.9092 16.351 12.9005 16.3381 12.8946 16.3239C12.8887 16.3097 12.8857 16.2945 12.8857 16.2791V15.175C12.8857 15.1104 12.9379 15.0578 13.0029 15.0578H15.0912C15.1558 15.0578 15.2084 15.1104 15.2084 15.175V16.2788C15.2084 16.3099 15.1961 16.3397 15.1741 16.3617C15.1521 16.3837 15.1222 16.396 15.0912 16.396Z" fill="#00BCD4"/>
</svg>
