<svg xmlns="http://www.w3.org/2000/svg" viewBox="0 0 32 32"><path fill="#00acc1" d="M28.965 12H9.441a2 2 0 0 0-1.898 1.368L4 24V10h23.998a2 2 0 0 0-2-2H15.122a2 2 0 0 1-1.28-.464l-1.287-1.072A2 2 0 0 0 11.275 6H3.999a2 2 0 0 0-2 2v16a2 2 0 0 0 2 2h21.998l4.805-11.212A2 2 0 0 0 28.964 12"/><path fill="#b2ebf2" d="M13.98 10c-1.098 0-1.98.994-1.98 2.229V16h2v-4h16v14H14v-4h-2v3.772c0 1.234.882 2.228 1.98 2.228h16.039c1.098 0 1.98-.994 1.98-2.228V12.229C32 10.994 31.118 10 30.02 10zM22 14v4H12v2h10v4l5.12-5z"/></svg>