<?xml version="1.0" encoding="utf-8"?>
<svg version="1.1" id="Layer_1" xmlns="http://www.w3.org/2000/svg" xmlns:xlink="http://www.w3.org/1999/xlink" x="0px" y="0px"
	 viewBox="0 0 24 24" style="enable-background:new 0 0 24 24;" xml:space="preserve">
<style type="text/css">
	.st0{fill:#0288D1;}
	.st1{fill:#B3E5FC;}
</style>
<path class="st0" d="M19,20H4c-1.1,0-2-0.9-2-2V6c0-1.1,0.9-2,2-2h6l2,2h7c1.1,0,2,0.9,2,2H4v10l2.1-8h17.1l-2.3,8.5
	C20.7,19.4,19.9,20,19,20z"/>
<path class="st1" d="M19.6,13.8h3.2v-1.2h-2.3l-1.3-2.2c-0.2-0.3-0.5-0.5-0.9-0.5c-0.1,0-0.2,0-0.3,0.1l-3.5,1.1v3.4h1.2v-2.4
	l1.4-0.4l-2.5,9.9h1.2l1.9-5.3l1.5,2v3.2H20v-4.2l-1.6-2.9l0.5-1.9 M19.5,9.8c0.6,0,1.2-0.5,1.2-1.2s-0.5-1.2-1.2-1.2
	S18.4,8,18.4,8.6S18.9,9.8,19.5,9.8z"/>
</svg>
