<?xml version="1.0" encoding="UTF-8" standalone="no"?>
<!DOCTYPE svg PUBLIC "-//W3C//DTD SVG 1.1//EN" "http://www.w3.org/Graphics/SVG/1.1/DTD/svg11.dtd">
<svg width="100%" height="100%" viewBox="0 0 24 24" version="1.1" xmlns="http://www.w3.org/2000/svg" xmlns:xlink="http://www.w3.org/1999/xlink" xml:space="preserve" style="fill-rule:evenodd;clip-rule:evenodd;stroke-linejoin:round;stroke-miterlimit:1.41421;">
    <path id="path3338" d="M10,4L4,4C2.89,4 2,4.89 2,6L2,18C2,19.097 2.903,20 4,20L20,20C21.097,20 22,19.097 22,18L22,8C22,6.89 21.1,6 20,6L12,6L10,4Z" style="fill:rgb(56,142,60);fill-rule:nonzero;"/>
    <g transform="matrix(0.848547,0,0,0.848547,-2.30283,-3.29563)">
        <path d="M19.146,30.989C19.076,30.989 19.007,30.98 18.939,30.964C18.42,30.812 18.102,30.28 18.213,29.751L20.922,15.32C20.971,15.041 21.131,14.795 21.366,14.637C21.572,14.501 21.826,14.457 22.066,14.515C22.585,14.667 22.903,15.199 22.793,15.728L20.077,30.16C20.029,30.438 19.869,30.684 19.635,30.841C19.49,30.937 19.32,30.988 19.146,30.989L19.146,30.989Z" style="fill:rgb(129,199,132);fill-rule:nonzero;"/>
    </g>
    <g transform="matrix(0.848547,0,0,0.848547,-2.30283,-3.29563)">
        <path d="M24.578,28.944L24.51,28.944C24.244,28.92 24,28.783 23.842,28.567C23.525,28.135 23.568,27.531 23.942,27.148L28.6,22.595L23.962,18.356C23.577,17.984 23.517,17.381 23.821,16.94C23.973,16.718 24.215,16.572 24.482,16.54C24.741,16.512 25,16.599 25.191,16.777L30.661,21.777C31.047,22.149 31.109,22.751 30.805,23.193C30.763,23.252 30.716,23.307 30.663,23.356L25.216,28.68C25.046,28.848 24.817,28.943 24.578,28.944L24.578,28.944Z" style="fill:rgb(129,199,132);fill-rule:nonzero;"/>
    </g>
    <g transform="matrix(0.848547,0,0,0.848547,-2.30283,-3.29563)">
        <path d="M16.423,28.947C16.183,28.945 15.954,28.849 15.784,28.68L10.332,23.353C10.282,23.307 10.238,23.256 10.2,23.2C9.894,22.76 9.954,22.157 10.341,21.786L15.812,16.786C15.999,16.608 16.255,16.521 16.512,16.548C16.781,16.579 17.023,16.725 17.177,16.948C17.482,17.389 17.423,17.992 17.037,18.365L12.4,22.6L17.059,27.151C17.436,27.533 17.479,28.139 17.159,28.57C17.001,28.786 16.757,28.924 16.49,28.947L16.423,28.947Z" style="fill:rgb(129,199,132);fill-rule:nonzero;"/>
    </g>
</svg>
