<svg xmlns="http://www.w3.org/2000/svg" viewBox="0 0 16 16">
<path id="folder" fill="#0288d1" d="M14.483 6H4.721a1 1 0 0 0-.949.684L2 12V5h12a1 1 0 0 0-1-1H7.562a1 1 0 0 1-.64-.232l-.644-.536A1 1 0 0 0 5.638 3H2a1 1 0 0 0-1 1v8a1 1 0 0 0 1 1h11l2.403-5.606A1 1 0 0 0 14.483 6" />
<path id="motive" fill="#b3e5fc" d="m 15.766115,7.0767597 -4.042553,-2.024026 a 0.50000657,0.50000656 0 0 0 -0.447006,0 l -4.0425529,2.024026 a 0.50000657,0.50000656 0 0 0 -0.234003,0.423506 v 5.0000663 a 0.50000657,0.50000656 0 0 0 0.276504,0.447505 l 4.0230519,2.005027 a 0.45000591,0.4500059 0 0 0 0.401006,0 l 4.023053,-2.005027 a 0.50000657,0.50000656 0 0 0 0.276503,-0.447505 V 7.5002657 A 0.50000657,0.50000656 0 0 0 15.766115,7.0767597 M 11.000053,13.691347 8.0000131,12.191327 V 8.2962757 l 3.0000399,1.443519 z m 0.500006,-4.8200633 -2.8650379,-1.379518 2.8650379,-1.432519 2.865038,1.432519 z m 3.500046,3.3200433 -3.000039,1.50002 V 9.7397947 l 3.000039,-1.444019 z" />
</svg>
