<?xml version="1.0" encoding="utf-8"?>
<svg xmlns="http://www.w3.org/2000/svg" viewBox="0 0 32 32">
    <path
        d="M28.967 12H9.442a2 2 0 0 0-1.898 1.368L4 24V10h24a2 2 0 0 0-2-2H15.124a2 2 0 0 1-1.28-.464l-1.288-1.072A2 2 0 0 0 11.276 6H4a2 2 0 0 0-2 2v16a2 2 0 0 0 2 2h22l4.805-11.212A2 2 0 0 0 28.967 12"
        style="fill: rgb(77, 208, 225);" />
    <g transform="matrix(0.06215, 0, 0, 0.06215, 15.432593, 12.351604)" style="" id="object-0">
        <path
            d="M 112.819 15.175 C 103.937 15.175 96.729 22.369 96.729 31.266 L 96.729 127.814 C 96.729 140.205 110.132 147.946 120.865 141.749 C 125.837 138.868 128.911 133.558 128.911 127.814 L 128.911 31.266 C 128.911 22.369 121.703 15.175 112.819 15.175 Z"
            style="stroke-width: 1; fill: rgb(178, 235, 242);" />
        <path
            d="M 187.886 59.925 C 178.665 51.639 163.958 56.434 161.383 68.55 C 160.193 74.215 162.107 80.072 166.435 83.917 C 212.618 125.191 196.8 200.965 137.969 220.323 C 79.125 239.68 21.405 188.092 34.052 127.462 C 37.576 110.644 46.379 95.39 59.187 83.933 C 68.182 75.422 64.609 60.36 52.734 56.819 C 47.522 55.26 41.889 56.449 37.737 59.958 C -26.9 117.757 -4.712 223.847 77.66 250.913 C 160.048 277.994 240.825 205.729 223.076 120.862 C 218.153 97.306 205.827 75.953 187.886 59.925 Z"
            style="stroke-width: 1; fill: rgb(178, 235, 242);" />
    </g>
</svg>