<svg clip-rule="evenodd" fill-rule="evenodd" stroke-linejoin="round" stroke-miterlimit="1.4142" version="1.1" viewBox="0 0 24 24" xml:space="preserve" xmlns="http://www.w3.org/2000/svg"><path d="m10 4h-6c-1.11 0-2 0.89-2 2v12c0 1.097 0.903 2 2 2h16c1.097 0 2-0.903 2-2v-10c0-1.11-0.9-2-2-2h-8l-2-2z" fill="#e57373" fill-rule="nonzero" style="fill:#009688"/><g style="fill:#b2dfdb"><g transform="matrix(.055876 0 0 .055876 7.9902 6.9458)" style="fill:#b2dfdb"><path d="m168.79 105.48-9.0866 15.734-31.075-53.824-95.393 165.21h64.589c0 8.6897 7.0448 15.734 15.734 15.734h-80.325c-5.6208 0-10.814-3.0005-13.624-7.8686-2.81-4.868-2.8096-10.865 7.57e-4 -15.733l95.393-165.21c2.8106-4.8684 8.0053-7.8679 13.626-7.8679 5.6215 0 10.816 2.9991 13.626 7.8679z" fill="#00c58e" style="fill:#b2dfdb;stroke-width:.66379"/><path d="m237.65 224.74-59.777-103.52-9.0866-15.734-9.0866 15.734-59.77 103.52c-2.8104 4.8677-2.8107 10.865-6.63e-4 15.733 2.8099 4.868 8.0033 7.8686 13.624 7.8686h110.45c5.622 0 10.817-2.9971 13.629-7.8659 2.8115-4.8684 2.8119-10.867 6.6e-4 -15.736zm-124.1 7.8672 55.234-95.652 55.221 95.652z" fill="#2f495e" style="fill:#b2dfdb;stroke-width:.66379"/><path d="m280.39 240.47c-2.8101 4.8672-8.0033 7.8672-13.623 7.8672h-42.758c8.6897 0 15.734-7.0441 15.734-15.734h26.991l-76.588-132.65-12.273 21.261-9.0866-15.734 7.7358-13.394c2.8106-4.8684 8.0053-7.8679 13.626-7.8679 5.6215 0 10.816 2.9991 13.626 7.8679l76.615 132.65c2.8107 4.8682 2.8107 10.866 0 15.734z" fill="#108775" style="fill:#b2dfdb;stroke-width:.66379"/></g></g></svg>
