<?xml version="1.0" encoding="UTF-8"?>
<svg clip-rule="evenodd" stroke-linejoin="round" stroke-miterlimit="1.4142" version="1.1" viewBox="0 0 24 24" xml:space="preserve" xmlns="http://www.w3.org/2000/svg"><path d="M10 4H4c-1.1 0-2 .9-2 2v12c0 1.1.9 2 2 2h16c1.1 0 2-.9 2-2V8c0-1.1-.9-2-2-2h-8l-2-2z" fill="#26a69a"/><path d="m20.146 12.271-0.0046-0.0018c-0.0028-9.3e-4 -0.0056-0.0018-0.0075-0.0046a0.036284 0.036284 0 0 1-0.01023-0.03163l0.26329-1.6049 1.2309 1.2318-1.2802 0.54426a0.02512 0.02512 0 0 1-0.01115 0.0028h-0.0056l-0.0064-0.0064a0.58613 0.58613 0 0 0-0.1684-0.1294zm1.7863-0.0977 1.3165 1.3165c0.27353 0.27446 0.41029 0.41029 0.46053 0.56938 0.0075 0.02326 0.01396 0.04652 0.0186 0.07071l-3.1474-1.3323-0.0046-0.0028c-0.01303-0.0046-0.02697-0.01023-0.02697-0.02326s0.01489-0.01954 0.02697-0.02419l0.0046-0.0018zm1.7416 2.3789c-0.06792 0.12746-0.20003 0.2605-0.42425 0.48472l-1.4849 1.4839-1.9203-0.39912-0.01023-0.0028c-0.01674-0.0018-0.03442-0.0056-0.03442-0.02047a0.58334 0.58334 0 0 0-0.22236-0.40564c-0.0083-0.0075-0.0064-0.01954-0.0037-0.0307l9.3e-4 -0.0046 0.36098-2.2171 9.3e-4 -0.0075c0.0018-0.01767 0.0056-0.03722 0.02047-0.03722a0.58706 0.58706 0 0 0 0.39448-0.22608c0.0028-0.0028 0.0046-0.0064 0.0093-0.0083 0.01023-0.0056 0.02326 0 0.03443 0.0046zm-2.2506 2.3101-2.4413 2.4413 0.41773-2.5678 9.31e-4 -0.0037 0.0018-0.0093c0.0037-0.0084 0.0121-0.0121 0.0214-0.01489l0.0037-0.0018a0.63823 0.63823 0 0 0 0.23631-0.17584c0.0075-0.0093 0.01767-0.0186 0.0307-0.02047a0.015816 0.015816 0 0 1 0.0093 0l1.7193 0.35354zm-2.9576 2.9586-0.27539 0.27446-3.0423-4.396-0.0028-0.0046c-0.0046-0.0064-0.01023-0.01303-0.0093-0.02048a0.032563 0.032563 0 0 1 0.0075-0.01489l0.0037-0.0037a0.62334 0.62334 0 0 0 0.02511-0.04186l0.0075-0.0121 9.3e-4 -9.3e-4a0.0521 0.0521 0 0 1 0.01674-0.02048c0.0075-0.0037 0.01767-0.0018 0.02511 0l3.3698 0.69498c0.01023 9.31e-4 0.0186 0.0046 0.02604 0.01115 0.0046 0.0046 0.0056 0.0093 0.0064 0.01396a0.59543 0.59543 0 0 0 0.34888 0.39913c0.01023 0.0056 0.0056 0.01581 0.0018 0.02697a0.048379 0.048379 0 0 0-0.0056 0.01489zm-0.57497 0.57403c-0.20282 0.20096-0.32191 0.30702-0.45774 0.34982a0.68289 0.68289 0 0 1-0.40936 0c-0.15816-0.05024-0.29493-0.187-0.56845-0.46053l-3.0553-3.0553 0.79825-1.2374c0.0037-0.0056 0.0075-0.01117 0.01303-0.01582 0.0093-0.0064 0.0214-0.0037 0.03163 0a0.82895 0.82895 0 0 0 0.55636-0.02791c0.0093-0.0037 0.01767-0.0056 0.02511 0a0.098619 0.098619 0 0 1 0.0093 0.01117zm-4.7849-3.46-0.70149-0.70056 1.3844-0.59078a0.02512 0.02512 0 0 1 0.01116-0.0028c0.01115 0 0.0186 0.01209 0.02419 0.02233a0.75546 0.75546 0 0 0 0.04466 0.06233l0.0037 0.0056c0.0046 0.0056 0.0018 0.0121-0.0028 0.01674zm-1.0113-1.0113-0.88664-0.88664c-0.15072-0.15072-0.2605-0.25957-0.33679-0.35447l2.6962 0.55915 0.01023 0.0018c0.01674 0.0028 0.03536 0.0056 0.03536 0.0214 0 0.01674-0.02048 0.02511-0.03722 0.03163l-0.0083 0.0028zm-1.3779-1.697a0.64102 0.64102 0 0 1 0.0307-0.16746c0.05023-0.15909 0.187-0.29493 0.46053-0.56938l1.1341-1.1341c0.52286 0.75825 1.0467 1.5156 1.5723 2.2719 0.0083 0.01209 0.0186 0.02511 0.0083 0.03535a0.93036 0.93036 0 0 0-0.13397 0.17956 0.063265 0.063265 0 0 1-0.01674 0.0214c-0.0046 0.0028-0.0093 9.3e-4 -0.01489 0h-9.31e-4zm1.9296-2.1752 1.5258-1.5249c0.14328 0.06233 0.66521 0.28283 1.1313 0.48007l0.77685 0.32935c0.01023 0.0046 0.01954 0.0083 0.02419 0.0186a0.05024 0.05024 0 0 1 0 0.02047 0.68103 0.68103 0 0 0 0.17677 0.62055c0.01023 0.01023 0 0.02511-0.0084 0.03722l-0.0046 0.0075-1.5491 2.3994a0.05117 0.05117 0 0 1-0.01489 0.01674c-0.0083 0.0056-0.01954 0.0028-0.02885 9.3e-4a0.77778 0.77778 0 0 0-0.18421-0.02511c-0.05582 0-0.1163 0.01023-0.1777 0.0214-0.0075 9.3e-4 -0.01303 0.0018-0.0186-0.0018a0.093036 0.093036 0 0 1-0.01581-0.01767zm1.8337-1.8328 1.9752-1.9752c0.27353-0.27353 0.41029-0.41029 0.56845-0.46053a0.68289 0.68289 0 0 1 0.40936 0c0.15816 0.05024 0.29586 0.187 0.56845 0.46053l0.4289 0.42797-1.4049 2.1752a0.060474 0.060474 0 0 1-0.01396 0.01674c-0.0083 0.0056-0.02048 0.0028-0.0307 0a0.70987 0.70987 0 0 0-0.65219 0.1256c-0.0093 0.0093-0.02326 0.0037-0.03441-9.31e-4 -0.18328-0.08-1.6105-0.68289-1.8142-0.76941zm4.248-1.2495 1.2969 1.2969-0.3126 1.9361v0.0046c0 0.0046-9.31e-4 0.0093-0.0028 0.01303-0.0028 0.0075-0.01023 0.0084-0.01674 0.01023a0.63451 0.63451 0 0 0-0.19259 0.09863c-0.0037 0.0037-0.0075 0.0075-0.01396 0.0083a0.081872 0.081872 0 0 1-0.01489-0.0018l-1.9761-0.84012-0.0037-0.0018c-0.0121-0.0046-0.02792-0.01117-0.02792-0.02419a0.74429 0.74429 0 0 0-0.10513-0.31074c-0.0093-0.01582-0.01954-0.03163-0.01209-0.04745zm-1.336 2.9241 1.8533 0.7843c0.01023 0.0046 0.0214 0.0093 0.02604 0.01954a0.068847 0.068847 0 0 1 0 0.01953 0.44378 0.44378 0 0 0-0.01023 0.08932v0.05211c0 0.01303-0.01396 0.0186-0.02604 0.02326l-0.0037 0.0018c-0.29306 0.12467-4.1206 1.7565-4.1262 1.7565-0.0056 0-0.01209 0-0.01767-0.0056-0.01023-0.01023 0-0.02419 0.0093-0.03722l0.0046-0.0064 1.523-2.3575 0.0018-0.0046c0.0093-0.01396 0.01954-0.02977 0.03536-0.02977l0.01581 0.0018a0.6894 0.6894 0 0 0 0.66986-0.29492 0.059543 0.059543 0 0 1 0.01209-0.01396c0.0084-0.0064 0.02233-0.0028 0.03256 0.0018zm-2.1212 3.1195 4.1718-1.7789s0.0056 0 0.01116 0.0056c0.02326 0.02326 0.0428 0.03815 0.06141 0.05303l0.0093 0.0056c0.0084 0.0046 0.01674 0.01023 0.01767 0.0186l-9.3e-4 0.0084-0.35726 2.1957-0.0018 0.0084c-0.0018 0.01767-0.0046 0.03629-0.02048 0.03629a0.5852 0.5852 0 0 0-0.46611 0.28841l-0.0018 0.0028c-0.0046 0.0075-0.0093 0.01489-0.01674 0.0186-0.0075 0.0037-0.01674 0.0028-0.02419 9.3e-4l-3.327-0.68661c-0.0028-9.3e-4 -0.05118-0.17584-0.05489-0.17677z" fill="#a7ffeb" stroke-width=".93036"/></svg>
