<?xml version="1.0" encoding="UTF-8" standalone="no"?>
<svg
   clip-rule="evenodd"
   fill-rule="evenodd"
   stroke-linejoin="round"
   stroke-miterlimit="1.414"
   viewBox="0 0 24 24"
   xml:space="preserve"
   version="1.1"
   id="svg12"
   sodipodi:docname="folder-nuxt.svg"
   inkscape:version="1.1 (c68e22c387, 2021-05-23)"
   xmlns:inkscape="http://www.inkscape.org/namespaces/inkscape"
   xmlns:sodipodi="http://sodipodi.sourceforge.net/DTD/sodipodi-0.dtd"
   xmlns="http://www.w3.org/2000/svg"
   xmlns:svg="http://www.w3.org/2000/svg"><defs
     id="defs16" /><sodipodi:namedview
     id="namedview14"
     pagecolor="#ffffff"
     bordercolor="#666666"
     borderopacity="1.0"
     inkscape:pageshadow="2"
     inkscape:pageopacity="0.0"
     inkscape:pagecheckerboard="0"
     showgrid="false"
     inkscape:zoom="10.145833"
     inkscape:cx="-8.2792608"
     inkscape:cy="8.2792608"
     inkscape:current-layer="svg12" /><path
     d="M10 4H4c-1.11 0-2 .89-2 2v12c0 1.097.903 2 2 2h16c1.097 0 2-.903 2-2V8a2 2 0 0 0-2-2h-8l-2-2z"
     fill="#e57373"
     fill-rule="nonzero"
     style="fill:#009688"
     id="path2" /><path
     id="path2-9"
     style="fill:#80eec0;fill-opacity:1;stroke-width:0.130435"
     d="m 13.984499,10.705203 c -0.367745,-2e-6 -0.735175,0.18165 -0.945312,0.542968 l -4.5800777,7.875001 c -0.420279,0.722636 0.104757,1.626953 0.9453122,1.626953 H 12.980593 C 12.621414,20.43622 12.488089,19.891807 12.75989,19.425907 l 3.46875,-5.945314 -1.298828,-2.232422 C 14.719674,10.88686 14.352244,10.705204 13.984499,10.705203 Z m 4.630859,1.826171 c -0.304337,0 -0.609294,0.147735 -0.783203,0.44336 l -3.791015,6.445313 c -0.347818,0.591249 0.08758,1.330078 0.783203,1.330078 h 7.582031 c 0.695609,0 1.12912,-0.738829 0.78125,-1.330078 l -3.791016,-6.445313 c -0.173909,-0.295625 -0.476912,-0.44336 -0.78125,-0.44336 z" /></svg>
