<svg xmlns="http://www.w3.org/2000/svg" viewBox="0 0 16 16">
<path id="folder" fill="#00bfa5" d="m6.922 3.768-.644-.536A1 1 0 0 0 5.638 3H2a1 1 0 0 0-1 1v8a1 1 0 0 0 1 1h12a1 1 0 0 0 1-1V5a1 1 0 0 0-1-1H7.562a1 1 0 0 1-.64-.232" />
<path id="motive" fill="#a7ffeb" d="m 15.104649,13.13683 -4.879863,1.194453 a 0.20999408,0.20990393 0 0 1 -0.2549919,-0.111949 0.14999577,0.14993138 0 0 1 -0.006,-0.08246 L 11.706745,7.2265369 a 0.17499507,0.17491994 0 0 1 0.205994,-0.104952 0.16999521,0.16992223 0 0 1 0.110497,0.07497 l 3.228409,5.6734031 a 0.1809949,0.18091719 0 0 1 -0.108997,0.254883 z M 15.940625,12.854959 12.203231,6.2859659 A 0.66748119,0.66719464 0 0 0 11.379754,6.0595689 0.59998309,0.59972549 0 0 0 11.14576,6.2379879 L 7.0928751,11.672 a 0.43498774,0.43480099 0 0 0 0.007,0.54575 l 1.981944,2.540338 a 0.70498014,0.70467749 0 0 0 0.71598,0.2174 l 5.7513379,-1.407356 a 0.60998279,0.60972094 0 0 0 0.394989,-0.28337 0.42998788,0.42980328 0 0 0 -0.0035,-0.429803" />
</svg>
