<svg xmlns="http://www.w3.org/2000/svg" viewBox="0 0 32 32">
  <path d="M28.96692,12H9.44152a2,2,0,0,0-1.89737,1.36754L4,24V10H28a2,2,0,0,0-2-2H15.1241a2,2,0,0,1-1.28038-.46357L12.5563,6.46357A2,2,0,0,0,11.27592,6H4A2,2,0,0,0,2,8V24a2,2,0,0,0,2,2H26l4.80523-11.21213A2,2,0,0,0,28.96692,12Z" style="fill: #ff5252"/>
  <g>
    <path d="M22,12l-6,2V24Zm4,0,6,12V14Z" style="fill: #ffcdd2;fill-rule: evenodd"/>
    <g>
      <polygon points="25.592 20 24 16.034 22.408 20 25.592 20" style="fill: #ffcdd2;fill-rule: evenodd"/>
      <polygon points="20.803 24 20 26 24 28 28 26 27.197 24 20.803 24" style="fill: #ffcdd2;fill-rule: evenodd"/>
    </g>
  </g>
</svg>
