<svg xmlns="http://www.w3.org/2000/svg" viewBox="0 0 32 32">
  <path d="M13.84376,7.53645l-1.28749-1.0729A2,2,0,0,0,11.27591,6H4A2,2,0,0,0,2,8V24a2,2,0,0,0,2,2H28a2,2,0,0,0,2-2V10a2,2,0,0,0-2-2H15.12412A2,2,0,0,1,13.84376,7.53645Z" style="fill: #2196f3"/>
  <path d="M14.0031,14a6.67816,6.67816,0,0,0,6.33474,6.98028h1.90078a6.61852,6.61852,0,0,0-6.23862,7h1.172A6.35957,6.35957,0,0,0,23,23.7298a6.35953,6.35953,0,0,0,5.828,4.25047H30a6.61843,6.61843,0,0,0-6.23862-7h1.90077A6.67816,6.67816,0,0,0,31.9969,14H28.82806A6.34062,6.34062,0,0,0,23,18.23075,6.34055,6.34055,0,0,0,17.172,14ZM23,18.2338a7.69748,7.69748,0,0,1,0,5.493A7.69727,7.69727,0,0,1,23,18.2338Z" style="fill: #bbdefb"/>
</svg>
