<svg viewBox="0 0 24 24" fill="none" xmlns="http://www.w3.org/2000/svg">
<path d="M19 20H4C3.46957 20 2.96086 19.7893 2.58579 19.4142C2.21071 19.0391 2 18.5304 2 18V6C2 4.89 2.89 4 4 4H10L12 6H19C20.097 6 21 6.903 21 8H4V18L6.14 10H23.21L20.93 18.5C20.7 19.37 19.92 20 19 20Z" fill="#64DD17"/>
<path fill-rule="evenodd" clip-rule="evenodd" d="M16.428 11C19.4258 11 21.8559 13.4301 21.8559 16.428C21.8559 19.4257 19.4258 21.856 16.428 21.856C13.4302 21.856 11 19.4257 11 16.428C11 13.4302 13.4302 11 16.428 11ZM14.2013 14.8181C14.1988 14.7073 14.1963 14.5968 14.2061 14.4883C14.2361 14.156 14.2569 14.0199 14.6561 14.0338C14.6942 14.0338 14.7314 14.0301 14.7706 14.0263C14.7931 14.024 14.8163 14.0217 14.8406 14.02V13.3647C14.7861 13.3647 14.7336 13.3639 14.6827 13.3631C14.5852 13.3616 14.4932 13.3601 14.4023 13.3647C13.9108 13.3924 13.6154 13.6232 13.5347 14.1008C13.4959 14.3243 13.4875 14.552 13.479 14.779C13.4749 14.8893 13.4708 14.9995 13.4632 15.1089C13.4564 15.2843 13.4379 15.4573 13.4055 15.628C13.3386 15.9325 13.2071 16.0271 12.8979 16.0433C12.8565 16.0479 12.8172 16.0548 12.7757 16.0641V16.7954C13.3386 16.8231 13.4147 17.0215 13.4609 17.6099C13.4692 17.7202 13.4671 17.8306 13.465 17.9409C13.4631 18.0451 13.4611 18.1494 13.4679 18.2536C13.477 18.4566 13.5047 18.6574 13.5463 18.8535C13.6756 19.391 14.1994 19.5709 14.8338 19.4625V18.8211C14.7989 18.8211 14.7654 18.8214 14.7329 18.8216C14.6707 18.8221 14.6122 18.8226 14.5546 18.8211C14.3399 18.8143 14.2592 18.7612 14.2385 18.5535C14.2218 18.3931 14.2177 18.2309 14.2135 18.0685C14.2108 17.9602 14.208 17.8518 14.2015 17.7438C14.1693 17.243 14.114 16.7494 13.6247 16.431C13.8761 16.2464 14.0584 16.0249 14.1161 15.7319C14.1576 15.5265 14.183 15.3212 14.1992 15.1135C14.2057 15.0156 14.2035 14.9168 14.2013 14.8181ZM14.9651 16.0064H14.9744C15.2074 16.0111 15.3943 16.2025 15.3896 16.4355V16.4585C15.3757 16.6869 15.1797 16.8624 14.9512 16.8484H14.9235C14.6928 16.8371 14.5129 16.6386 14.5244 16.4055C14.536 16.1748 14.7344 15.9949 14.9651 16.0064ZM16.0034 16.3963C16.0102 16.1748 16.1972 15.9994 16.421 16.0064C16.6771 16.0041 16.8456 16.1702 16.848 16.4217C16.848 16.6825 16.6887 16.8486 16.4349 16.8486C16.1765 16.8486 16.0058 16.687 16.0058 16.4355C16.0034 16.4217 16.0034 16.4102 16.0034 16.3963ZM17.464 16.424C17.4708 16.1887 17.667 16.0017 17.9023 16.0064C18.1376 16.0064 18.3452 16.2048 18.3338 16.4332C18.3199 16.6801 18.1054 16.8854 17.8931 16.8484H17.8884C17.6531 16.8484 17.464 16.6593 17.464 16.424ZM19.4666 15.6856C19.5334 15.9395 19.6673 16.0294 19.935 16.0409C19.9646 16.0426 19.9933 16.0462 20.0274 16.0506C20.0436 16.0527 20.0611 16.0549 20.0804 16.0571V16.7886C20.0481 16.8001 20.0158 16.8069 19.9811 16.8116C19.6235 16.8347 19.4597 16.9823 19.4251 17.3399C19.4117 17.4725 19.4069 17.6067 19.402 17.7411C19.3985 17.8381 19.3949 17.9353 19.3882 18.0321C19.3812 18.2836 19.3582 18.535 19.319 18.7842C19.2266 19.2365 18.9451 19.4625 18.4791 19.4902C18.3801 19.4963 18.2812 19.4944 18.1782 19.4923C18.1252 19.4913 18.0711 19.4902 18.0154 19.4902V18.8373C18.0493 18.8355 18.0815 18.8333 18.1128 18.8313C18.1624 18.828 18.2096 18.8248 18.2577 18.8234C18.5369 18.8164 18.6337 18.7265 18.6476 18.4497C18.6582 18.2477 18.6649 18.0458 18.6715 17.8446C18.6749 17.7423 18.6782 17.6402 18.6821 17.5383C18.7029 17.0975 18.8229 16.7054 19.2312 16.4308C18.9983 16.2647 18.8114 16.0617 18.7606 15.7894C18.7181 15.5467 18.697 15.299 18.6759 15.0518C18.6683 14.963 18.6607 14.8743 18.6521 14.7858C18.6441 14.7019 18.64 14.6179 18.636 14.5343C18.6319 14.4501 18.6279 14.3662 18.6198 14.2828C18.6037 14.1005 18.4791 14.0381 18.3153 14.0359C18.2206 14.0336 18.126 14.0336 18.0038 14.0336V13.3967C18.7745 13.27 19.3051 13.526 19.3535 14.2597C19.3644 14.4223 19.369 14.5855 19.3735 14.7488C19.3776 14.8959 19.3817 15.0429 19.3905 15.1895C19.3997 15.3556 19.425 15.5241 19.4666 15.6856Z" fill="#CCFF90"/>
</svg>
