<svg xmlns="http://www.w3.org/2000/svg" viewBox="0 0 24 24"><path fill="#e0e0e0" d="M10 4H4c-1.11 0-2 .89-2 2v12c0 1.097.903 2 2 2h16c1.097 0 2-.903 2-2V8a2 2 0 0 0-2-2h-8z"/><g data-mit-no-recolor="true"><path fill="#616161" d="m16.948 14.905-5.856-3.446h-.269v6.378l2-1.14.012-2.883 2.988 1.653v3.931l-2.857-1.654-1.993 1.165 5.85 3.484.125-.17z"/><path fill="#424242" d="m16.822 14.801 5.668-3.342h.333v6.378l-2-1.14-.012-2.883-2.988 1.653v3.931l2.857-1.654 1.993 1.165-5.85 3.484z"/><path fill="#757575" d="m16.823 14.979 5.999-3.52-5.503-3.187v2.291l2.504 1.484-3 1.73-3.001-1.73 2.501-1.484V8.272l-5.5 3.187z"/></g></svg>