<svg xmlns="http://www.w3.org/2000/svg" viewBox="0 0 32 32">
  <path d="M13.84376,7.53645l-1.28749-1.0729A2,2,0,0,0,11.27591,6H4A2,2,0,0,0,2,8V24a2,2,0,0,0,2,2H28a2,2,0,0,0,2-2V10a2,2,0,0,0-2-2H15.12412A2,2,0,0,1,13.84376,7.53645Z" style="fill: #ff4081"/>
  <g>
    <path d="M23.50593,15.81429c0,.54285,3.75472.28571,4.26212-.1C27.76805,11.97143,25.724,10,21.98375,10c-3.72572,0-5.81329,2-5.81329,5,0,5.21429,7.147,5.31429,7.147,8.15714a1.14722,1.14722,0,0,1-1.27574,1.28572c-1.14526,0-1.59467-.57143-1.53668-2.52857,0-.42858-4.34909-.55715-4.47957,0C15.69206,26.62857,18.67844,28,22.09973,28,25.39054,28,28,26.25714,28,23.11429c0-5.6-7.24849-5.44286-7.24849-8.21429a1.193,1.193,0,0,1,1.34822-1.28571c.52189,0,1.47869.1,1.39171,2.2Z" style="fill: #ffcdd2"/>
    <path d="M6,10.4923l.19231-4.67308H9.84615L10,10.33845a.28847.28847,0,0,1-.46154.23077L8.13462,9.45384,6.46154,10.72307A.28846.28846,0,0,1,6,10.4923Z" style="fill: #ffcdd2"/>
  </g>
</svg>
