<svg
	xmlns="http://www.w3.org/2000/svg"
	viewBox="0 0 32 32"
>
	<path
		fill="#EF6C00"
		d="m13.844 7.536-1.288-1.072A2 2 0 0 0 11.276 6H4a2 2 0 0 0-2 2v16a2 2 0 0 0 2 2h24a2 2 0 0 0 2-2V10a2 2 0 0 0-2-2H15.124a2 2 0 0 1-1.28-.464"
	/>
	<g transform="translate(13.75,9.25) scale(1.2)">
		<path
			fill="#FFE0B2" stroke="none" stroke-width="0.1"
			d="M 2.43,14.89
           C 2.37,14.84 2.35,14.74 2.34,14.66
             2.34,14.66 2.34,14.08 2.34,14.08
             2.34,14.08 2.34,11.70 2.34,11.70
             2.34,11.70 2.34,3.15 2.34,3.15
             2.34,3.15 2.34,1.85 2.34,1.85
             2.34,1.61 2.32,1.29 2.41,1.08
             2.57,0.69 2.92,0.57 3.30,0.57
             3.30,0.57 8.60,0.57 8.60,0.57
             8.60,0.57 8.89,0.58 8.89,0.58
             8.94,0.59 9.07,0.58 9.11,0.60
             9.18,0.62 9.25,0.71 9.30,0.75
             9.30,0.75 9.64,1.09 9.64,1.09
             9.64,1.09 11.06,2.51 11.06,2.51
             11.06,2.51 13.15,4.60 13.15,4.60
             13.15,4.60 13.62,5.08 13.62,5.08
             13.77,5.22 13.85,5.25 13.85,5.45
             13.85,5.45 13.85,10.92 13.85,10.92
             13.85,10.92 13.85,14.51 13.85,14.51
             13.85,14.59 13.85,14.68 13.83,14.75
             13.77,15.04 13.52,15.27 13.25,15.34
             13.07,15.39 13.04,15.36 12.87,15.36
             12.87,15.36 9.09,15.36 9.09,15.36
             9.09,15.36 8.81,15.38 8.81,15.38
             8.81,15.38 8.58,15.36 8.58,15.36
             8.58,15.36 4.30,15.36 4.30,15.36
             4.30,15.36 3.32,15.36 3.32,15.36
             3.32,15.36 3.11,15.37 3.11,15.37
             3.00,15.37 2.80,15.33 2.74,15.23
             2.60,15.20 2.45,15.02 2.43,14.89 Z
           M 8.43,2.23
           C 8.43,2.23 8.42,2.60 8.42,2.60
             8.42,2.60 8.42,3.42 8.42,3.42
             8.42,3.42 8.42,6.17 8.42,6.17
             8.42,6.17 12.36,6.17 12.36,6.17
             12.36,6.17 11.91,5.70 11.91,5.70
             11.91,5.70 11.06,4.85 11.06,4.85
             11.06,4.85 8.43,2.23 8.43,2.23 Z
           M 5.36,8.66
           C 5.36,8.66 3.47,8.66 3.47,8.66
             3.47,8.66 3.47,10.55 3.47,10.55
             3.47,10.55 5.36,10.55 5.36,10.55
             5.36,10.55 5.36,8.66 5.36,8.66 Z
           M 10.23,9.04
           C 10.23,9.04 6.30,9.04 6.30,9.04
             6.30,9.04 6.30,10.17 6.30,10.17
             6.30,10.17 10.23,10.17 10.23,10.17
             10.23,10.17 10.23,9.04 10.23,9.04 Z
           M 5.36,11.96
           C 5.36,11.96 3.47,11.96 3.47,11.96
             3.47,11.96 3.47,13.85 3.47,13.85
             3.47,13.85 5.36,13.85 5.36,13.85
             5.36,13.85 5.36,11.96 5.36,11.96 Z
           M 8.04,12.34
           C 8.04,12.34 6.30,12.34 6.30,12.34
             6.30,12.34 6.30,13.47 6.30,13.47
             6.30,13.47 8.04,13.47 8.04,13.47
             8.04,13.47 8.04,12.34 8.04,12.34 Z"
		/>
		<path
			fill="#EF6C00" stroke="none" stroke-width="0.1"
			d="M 12.51,9.01
           C 12.75,8.96 12.88,9.15 13.04,9.30
             13.18,9.44 13.51,9.70 13.41,9.92
             13.37,10.02 13.23,10.15 13.15,10.23
             13.11,10.27 12.97,10.42 12.92,10.43
             12.87,10.44 12.81,10.38 12.77,10.34
             12.77,10.34 12.45,10.02 12.45,10.02
             12.45,10.02 12.13,9.70 12.13,9.70
             12.10,9.67 12.02,9.59 12.01,9.55
             11.99,9.48 12.07,9.42 12.11,9.38
             12.21,9.28 12.39,9.07 12.51,9.01 Z
           M 11.72,9.79
           C 11.72,9.79 12.42,10.47 12.42,10.47
             12.46,10.52 12.62,10.66 12.62,10.72
             12.62,10.78 12.46,10.92 12.42,10.96
             12.42,10.96 11.77,11.60 11.77,11.60
             11.77,11.60 10.38,13.00 10.38,13.00
             10.38,13.00 10.08,13.30 10.08,13.30
             10.03,13.34 9.96,13.43 9.91,13.45
             9.86,13.48 9.80,13.47 9.75,13.47
             9.75,13.47 8.98,13.47 8.98,13.47
             8.98,13.47 8.98,12.68 8.98,12.68
             8.98,12.47 9.07,12.44 9.21,12.30
             9.21,12.30 9.66,11.85 9.66,11.85
             9.66,11.85 11.72,9.79 11.72,9.79 Z"
		/>
	</g>
</svg>
