<svg xmlns="http://www.w3.org/2000/svg" viewBox="0 0 32 32">
  <path d="M28.96692,12H9.44152a2,2,0,0,0-1.89737,1.36754L4,24V10H28a2,2,0,0,0-2-2H15.1241a2,2,0,0,1-1.28038-.46357L12.5563,6.46357A2,2,0,0,0,11.27592,6H4A2,2,0,0,0,2,8V24a2,2,0,0,0,2,2H26l4.80523-11.21213A2,2,0,0,0,28.96692,12Z" style="fill: #616161"/>
  <path d="M32,15.833V12.88705a.5.5,0,0,0-.65808-.47437l-11,3.66669A.50008.50008,0,0,0,20,16.55373V19.833a.5.5,0,0,0,.34192.47431L26,22.19332l-5.65808,1.88605A.50008.50008,0,0,0,20,24.55373V27.4996a.5.5,0,0,0,.65814.47436l11-3.66668A.5.5,0,0,0,32,23.833V20.55373a.5.5,0,0,0-.34186-.47436L26,18.19332l5.65814-1.886A.5.5,0,0,0,32,15.833Z" style="fill: #ffa726;fill-rule: evenodd"/>
</svg>
