<svg
	viewBox="0 0 16 16"
	xmlns="http://www.w3.org/2000/svg"
>
	<path
		id="folder"
		fill="#9C27B0" stroke="none"
		d="m6.922 3.768-.644-.536A1 1 0 0 0 5.638 3H2a1 1 0 0 0-1 1v8a1 1 0 0 0 1 1h12a1 1 0 0 0 1-1V5a1 1 0 0 0-1-1H7.562a1 1 0 0 1-.64-.232"
	/>
	<g id="motive">
		<path
			id="page"
			fill="#E1BEE7" stroke="none"
			d="m 9.5,5 c -0.275,0 -0.5,0.25 -0.5,0.5 v 8 c 0,0.275 0.25,0.5 0.5,0.5 h 6 c 0.275,0 0.5,-0.25 0.5,-0.5 v -5.5 l -3,-3 z
			M 13 6 L 15 8 L 13 8 L 13 6 z"
		/>
		<path
			id="details"
			fill="#9C27B0" stroke="none"
			d="m 10,10 h 3 v 1 h -3 z m 0,2 h 2 v 1 h -2 Z"
		/>
		<path
			id="pencil"
			transform="rotate(-45)"
			fill="#9C27B0" stroke="none"
			d="M 3.3316883,17.88483 H 2.9582475 v 0.999893 H 3.3333456 A 0.19942619,0.19942619 135 0 0 3.5327718,18.685297 V 18.085913 A 0.20108349,0.20108349 45 0 0 3.3316883,17.88483 Z m -0.6247952,0 H 0.50270873 l -0.001381,-0.0014 -0.001381,0.0014 h -0.005524 v 0.0055 l -0.49166018,0.49166 -0.00138107,0.0014 0.49580339,0.495804 -0.002762,0.0055 H 2.7068931 Z"
		/>
	</g>
</svg>
