<svg xmlns="http://www.w3.org/2000/svg" viewBox="0 0 16 16">
<path id="folder" fill="#ab47bc" d="M14.483 6H4.721a1 1 0 0 0-.949.684L2 12V5h12a1 1 0 0 0-1-1H7.562a1 1 0 0 1-.64-.232l-.644-.536A1 1 0 0 0 5.638 3H2a1 1 0 0 0-1 1v8a1 1 0 0 0 1 1h11l2.403-5.606A1 1 0 0 0 14.483 6" />
<path id="motive" fill="#e1bee7" d="m 14,13 a 1,1 0 0 0 1,-1 V 9 A 1,1 0 0 0 14,8 H 9 A 1,1 0 0 0 8,9 v 3 a 1,1 0 0 0 1,1 H 7 v 1 h 9 V 13 Z M 11.5,10 V 9 l 2,1.399 -2,1.601 v -1 a 2.06,2.06 0 0 0 -2,1 c 0.224,-1.0015 0.444,-1.7975 2,-2" />
</svg>
