<svg xmlns="http://www.w3.org/2000/svg" viewBox="0 0 16 16">
<path id="folder" fill="#0288d1" d="M14.483 6H4.721a1 1 0 0 0-.949.684L2 12V5h12a1 1 0 0 0-1-1H7.562a1 1 0 0 1-.64-.232l-.644-.536A1 1 0 0 0 5.638 3H2a1 1 0 0 0-1 1v8a1 1 0 0 0 1 1h11l2.403-5.606A1 1 0 0 0 14.483 6" />
<path id="motive" fill="#90caf9" d="m 11.999987,9.5352604 a 0.66499856,0.66414763 0 0 0 0.15,0.5193346 1.2499973,1.2483978 0 0 0 0.304999,0.13982 c 0.269999,0.08988 0.664999,0.184763 1.044998,0.309603 1.319997,0.439435 1.479997,1.158512 1.494997,1.742763 0.005,0.0799 0.005,0.154802 0.005,0.229705 v 0.02497 c 0,0.529321 -0.23,1.393211 -1.719997,1.48809 -0.065,0.005 -0.124999,0.005 -0.184999,0.005 a 0.49999892,0.49935912 0 0 1 -0.095,0.005 h -1.999996 v -0.878872 l 0.12,-0.119846 h 1.879996 a 0.99999783,0.99871825 0 0 0 0.125,-0.005 h 0.085 c 0.09,-0.005 0.165,-0.01498 0.235,-0.01997 a 0.99999783,0.99871825 0 0 0 0.135,-0.02996 c 0.035,-0.01 0.065,-0.01997 0.095,-0.02996 a 0.01999996,0.01997437 0 0 0 0.015,-0.005 c 0.245,-0.08989 0.295,-0.224712 0.305,-0.329577 a 0.49999892,0.49935912 0 0 0 0.005,-0.0799 c 0,-0.159795 -0.34,-0.614211 -1.499997,-0.998718 -1.369997,-0.454418 -1.489997,-1.208449 -1.494997,-1.8026875 a 0.29999935,0.29961548 0 0 1 -0.005,-0.06492 v -0.129833 a 1.4249969,1.4231735 0 0 1 0.225,-0.7939813 c 0.02,-0.02996 0.035,-0.05493 0.055,-0.0799 0.005,-0.005 0.005,-0.01 0.01,-0.01498 a 0.49999892,0.49935912 0 0 1 0.09,-0.09987 2.1499953,2.1472442 0 0 1 1.574997,-0.5093462 h 2.044996 v 0.9987184 h -1.999996 c -0.065,0 -0.13,0 -0.195,0.005 -0.589998,0.02996 -0.744998,0.1997431 -0.789998,0.3495511 a 0.06499986,0.06491669 0 0 0 -0.005,0.02996 0.49999892,0.49935912 0 0 0 -0.01,0.1148531 z M 8.999994,13.999531 H 7.999996 V 9.0059392 H 6 V 8.0072218 h 4.999989 V 9.0059392 H 8.999994 Z" />
</svg>
