<svg xmlns="http://www.w3.org/2000/svg" viewBox="0 0 32 32"><path fill="#455a64" d="M 28.967 12 L 9.442 12 C 8.58 12 7.816 12.551 7.544 13.368 L 4 24 L 4 10 L 28 10 C 28 8.896 27.104 8 26 8 L 15.124 8 C 14.656 8 14.203 7.836 13.844 7.536 L 12.556 6.464 C 12.196 6.165 11.743 6 11.276 6 L 4 6 C 2.895 6 2 6.896 2 8 L 2 24 C 2 25.105 2.895 26 4 26 L 26 26 L 30.805 14.788 C 31.37 13.469 30.402 12 28.967 12 Z" transform="matrix(1, 0, 0, 1, 0, -4.440892098500626e-16)"/><path fill="#ffca28" d="M 27.163 16.551 C 27.163 17.87 25.735 18.694 24.593 18.034 C 24.463 17.96 24.344 17.869 24.239 17.763 C 23.306 16.83 23.733 15.238 25.006 14.896 C 26.094 14.605 27.163 15.425 27.163 16.551 Z" style="" transform="matrix(1, 0, 0, 1, 0, -4.440892098500626e-16)"/><path fill="#26c6da" d="M 22.568 19.744 C 21.622 19.744 20.855 20.511 20.855 21.456 C 20.855 22.402 21.622 23.169 22.568 23.169 C 23.515 23.169 24.282 22.402 24.282 21.456 C 24.282 20.511 23.515 19.744 22.568 19.744 Z" style="" transform="matrix(1, 0, 0, 1, 0, -4.440892098500626e-16)"/><path fill="#ffca28" d="M 29 22.041 C 28.311 22.486 27.545 22.797 26.741 22.959 C 26.974 22.295 27.052 21.586 26.967 20.889 C 28.35 20.405 29.418 19.292 29.846 17.893 C 30.501 15.741 29.504 13.431 27.488 12.434 C 25.472 11.438 23.032 12.046 21.72 13.874 C 20.848 13.971 20 14.218 19.213 14.605 C 20.184 11.47 23.33 9.541 26.564 10.094 C 29.799 10.649 32.123 13.516 31.995 16.796 C 31.912 18.928 30.793 20.885 29 22.041 Z M 19.29 15.796 L 20.895 15.991 C 20.932 15.681 20.999 15.376 21.097 15.08 C 20.462 15.227 19.854 15.469 19.29 15.796 Z" clip-rule="evenodd" style="" transform="matrix(1, 0, 0, 1, 0, -4.440892098500626e-16)"/><path fill="#26c6da" d="M 19.011 15.967 C 19.703 15.518 20.475 15.203 21.284 15.041 C 21.039 15.705 20.951 16.417 21.027 17.12 C 19.651 17.61 18.588 18.725 18.168 20.125 C 17.276 23.094 19.518 26.076 22.617 26.041 C 24.08 26.025 25.446 25.314 26.299 24.127 C 27.169 24.031 28.018 23.786 28.805 23.403 C 28.172 25.439 26.586 27.039 24.556 27.688 C 22.524 28.339 20.304 27.959 18.605 26.669 C 14.993 23.927 15.2 18.429 19.011 15.967 Z M 28.719 22.212 L 28.689 22.228 L 28.719 22.212 Z" clip-rule="evenodd" style="" transform="matrix(1, 0, 0, 1, 0, -4.440892098500626e-16)"/></svg>