<svg xmlns="http://www.w3.org/2000/svg" viewBox="0 0 32 32">
  <path d="M28.96692,12H9.44152a2,2,0,0,0-1.89737,1.36754L4,24V10H28a2,2,0,0,0-2-2H15.1241a2,2,0,0,1-1.28038-.46357L12.5563,6.46357A2,2,0,0,0,11.27592,6H4A2,2,0,0,0,2,8V24a2,2,0,0,0,2,2H26l4.80523-11.21213A2,2,0,0,0,28.96692,12Z" style="fill: #9575cd;fill-rule: evenodd"/>
  <path d="M23.50974,10.27577l-7,3.9375A1,1,0,0,0,16,15.08485v7.8303a1,1,0,0,0,.50974.87158l7,3.9375a1,1,0,0,0,.98052,0l7-3.9375A1,1,0,0,0,32,22.91515v-7.8303a1,1,0,0,0-.50974-.87158l-7-3.9375A1,1,0,0,0,23.50974,10.27577Zm-5.25515,5.25079,5.49964-3.09813a.5.5,0,0,1,.49136.00031L26,13.42V14l-8,4V15.96219A.5.5,0,0,1,18.25459,15.52656ZM26,16v5.52l-5.24-2.9Zm-2.24578,9.57151-5.49963-3.09813A.5.5,0,0,1,18,22.03774V20l.59-.29,8.1,4.48-2.4444,1.38119A.5.5,0,0,1,23.75422,25.57151ZM30,22.03779a.5.5,0,0,1-.25454.4356L28.74,23.04,28,22.63V14.54l1.746.98647a.5.5,0,0,1,.254.43532Z" style="fill: #d1c4e9;fill-rule: evenodd"/>
</svg>
