<svg xmlns="http://www.w3.org/2000/svg" viewBox="0 0 32 32">
  <path d="M13.84376,7.53645l-1.28749-1.0729A2,2,0,0,0,11.27591,6H4A2,2,0,0,0,2,8V24a2,2,0,0,0,2,2H28a2,2,0,0,0,2-2V10a2,2,0,0,0-2-2H15.12412A2,2,0,0,1,13.84376,7.53645Z" style="fill: #00acc1"/>
  <path d="M23.001,24.1497a3.19547,3.19547,0,0,1-3.2387-3.15039h0A3.24,3.24,0,1,1,23.001,24.14969h0m6.87454-2.27678a6.90129,6.90129,0,0,0,.06455-.8736,7.59591,7.59591,0,0,0-.06455-.89951l1.95193-1.46736a.4462.4462,0,0,0,.11227-.576l-1.8523-3.11216a.46.46,0,0,0-.56411-.19929l-2.30273.90089a6.75357,6.75357,0,0,0-1.56464-.88315l-.34239-2.38462A.46384.46384,0,0,0,24.85046,12H21.15008a.46385.46385,0,0,0-.46308.37809l-.341,2.38462a6.75526,6.75526,0,0,0-1.56323.88178L16.47865,14.745a.46064.46064,0,0,0-.56411.19792l-1.85089,3.11353a.43562.43562,0,0,0,.11226.576l1.95052,1.46736a7.59972,7.59972,0,0,0-.06455.90089,6.88347,6.88347,0,0,0,.06455.87222l-1.95052,1.49328a.43564.43564,0,0,0-.11227.576l1.8509,3.11489a.47213.47213,0,0,0,.56411.19792l2.30413-.90907a6.42474,6.42474,0,0,0,1.56323.89133l.3424,2.38462A.46384.46384,0,0,0,21.15148,30h3.70038a.46386.46386,0,0,0,.46308-.37809l.341-2.38462a6.78379,6.78379,0,0,0,1.56461-.89133l2.30274.90907a.47467.47467,0,0,0,.56551-.19792l1.84949-3.11489a.44616.44616,0,0,0-.11085-.576Z" style="fill: #80deea;fill-rule: evenodd"/>
</svg>
