<svg width="24" height="24" viewBox="0 0 24 24" fill="none" xmlns="http://www.w3.org/2000/svg">
<path d="M10 4H4C2.89 4 2 4.89 2 6V18C2 19.097 2.903 20 4 20H20C21.097 20 22 19.097 22 18V8C22 7.46957 21.7893 6.96086 21.4142 6.58579C21.0391 6.21071 20.5304 6 20 6H12L10 4Z" fill="#54A45E"/>
<path d="M12.5519 17.5352L13.7446 18.4797L13.1725 18.9762L11.9979 18.0316L12.5519 17.5352ZM13.7749 15.8822V16.0911C13.7749 16.4261 13.7295 16.7269 13.6387 16.9933C13.5499 17.2597 13.4217 17.4867 13.2542 17.6744C13.0867 17.8601 12.8889 18.0024 12.6608 18.1013C12.4328 18.2002 12.1795 18.2496 11.901 18.2496C11.6245 18.2496 11.3712 18.2002 11.1411 18.1013C10.911 18.0024 10.7122 17.8601 10.5447 17.6744C10.3772 17.4867 10.247 17.2597 10.1542 16.9933C10.0634 16.7269 10.018 16.4261 10.018 16.0911V15.8822C10.018 15.5452 10.0634 15.2445 10.1542 14.9801C10.247 14.7137 10.3762 14.4866 10.5417 14.2989C10.7072 14.1112 10.905 13.9679 11.1351 13.8691C11.3651 13.7702 11.6184 13.7207 11.8949 13.7207C12.1734 13.7207 12.4267 13.7702 12.6548 13.8691C12.8849 13.9679 13.0837 14.1112 13.2512 14.2989C13.4187 14.4866 13.5479 14.7137 13.6387 14.9801C13.7295 15.2445 13.7749 15.5452 13.7749 15.8822ZM12.8576 16.0911V15.8762C12.8576 15.6421 12.8354 15.4362 12.791 15.2586C12.7486 15.081 12.6861 14.9316 12.6033 14.8106C12.5226 14.6895 12.4227 14.5986 12.3036 14.5381C12.1845 14.4755 12.0483 14.4442 11.8949 14.4442C11.7415 14.4442 11.6053 14.4755 11.4862 14.5381C11.3672 14.5986 11.2673 14.6895 11.1865 14.8106C11.1058 14.9316 11.0442 15.081 11.0019 15.2586C10.9595 15.4362 10.9383 15.6421 10.9383 15.8762V16.0911C10.9383 16.3232 10.9595 16.5291 11.0019 16.7087C11.0442 16.8863 11.1058 17.0367 11.1865 17.1598C11.2693 17.2809 11.3702 17.3727 11.4893 17.4353C11.6104 17.4978 11.7476 17.5291 11.901 17.5291C12.0544 17.5291 12.1896 17.4978 12.3066 17.4353C12.4257 17.3727 12.5256 17.2809 12.6064 17.1598C12.6891 17.0367 12.7517 16.8863 12.794 16.7087C12.8364 16.5291 12.8576 16.3232 12.8576 16.0911ZM15.2492 15.5916V18.1891H14.3743V14.9135H15.1947L15.2492 15.5916ZM15.1281 16.4362H14.8859C14.8859 16.2082 14.9132 15.9983 14.9677 15.8066C15.0242 15.6128 15.1059 15.4453 15.2129 15.304C15.3219 15.1607 15.4561 15.0497 15.6155 14.971C15.775 14.8923 15.9596 14.8529 16.1695 14.8529C16.3148 14.8529 16.4481 14.8751 16.5691 14.9195C16.6902 14.9619 16.7942 15.0295 16.881 15.1224C16.9698 15.2132 17.0384 15.3323 17.0868 15.4796C17.1353 15.6249 17.1595 15.7995 17.1595 16.0033V18.1891H16.2876V16.1002C16.2876 15.9509 16.2674 15.8358 16.2271 15.7551C16.1867 15.6744 16.1292 15.6178 16.0545 15.5856C15.9818 15.5533 15.894 15.5371 15.7911 15.5371C15.6781 15.5371 15.5792 15.5603 15.4944 15.6067C15.4117 15.6532 15.3431 15.7177 15.2886 15.8005C15.2341 15.8812 15.1937 15.9761 15.1675 16.0851C15.1412 16.1941 15.1281 16.3111 15.1281 16.4362ZM17.0777 16.3363L16.7659 16.3757C16.7659 16.1618 16.7922 15.963 16.8446 15.7793C16.8991 15.5956 16.9788 15.4342 17.0838 15.2949C17.1908 15.1557 17.323 15.0477 17.4804 14.971C17.6378 14.8923 17.8194 14.8529 18.0253 14.8529C18.1827 14.8529 18.326 14.8761 18.4552 14.9226C18.5843 14.967 18.6943 15.0386 18.7852 15.1375C18.878 15.2344 18.9486 15.3615 18.9971 15.519C19.0475 15.6764 19.0728 15.8691 19.0728 16.0972V18.1891H18.1979V16.0972C18.1979 15.9458 18.1777 15.8308 18.1373 15.7521C18.099 15.6713 18.0425 15.6158 17.9678 15.5856C17.8951 15.5533 17.8083 15.5371 17.7074 15.5371C17.6025 15.5371 17.5107 15.5583 17.4319 15.6007C17.3532 15.6411 17.2876 15.6976 17.2352 15.7702C17.1827 15.8429 17.1433 15.9276 17.1171 16.0245C17.0909 16.1194 17.0777 16.2233 17.0777 16.3363ZM20.6682 13.5391V18.1891H19.7933V13.5391H20.6682Z" fill="#E5E5E5"/>
</svg>
