<svg xmlns="http://www.w3.org/2000/svg" viewBox="0 0 32 32">
  <path d="M28.96692,12H9.44152a2,2,0,0,0-1.89737,1.36754L4,24V10H28a2,2,0,0,0-2-2H15.1241a2,2,0,0,1-1.28038-.46357L12.5563,6.46357A2,2,0,0,0,11.27592,6H4A2,2,0,0,0,2,8V24a2,2,0,0,0,2,2H26l4.80523-11.21213A2,2,0,0,0,28.96692,12Z" style="fill: #2196f3"/>
  <g>
    <circle cx="21" cy="21" r="3" style="fill: #bbdefb"/>
    <path d="M21,14c-4.66,0-9.35,2.91-11,7,1.65,4.09,6.34,7,11,7,4.66,0,9.35-2.91,11-7C30.35,16.91,25.66,14,21,14Zm0,12a5,5,0,1,1,5-5A5.00181,5.00181,0,0,1,21,26Z" style="fill: #bbdefb;fill-rule: evenodd"/>
  </g>
</svg>
