<?xml version="1.0" encoding="UTF-8" standalone="no"?>
<svg
   viewBox="0 0 16 16"
   version="1.1"
   id="svg1"
   width="16"
   height="16"
   xml:space="preserve"
   xmlns="http://www.w3.org/2000/svg"
   xmlns:svg="http://www.w3.org/2000/svg"><defs
     id="defs1" /><g
     id="g1"
     transform="scale(0.5)"><path
       d="M 28.967,12 H 9.442 C 8.58,12 7.816,12.551 7.544,13.368 L 4,24 V 10 H 28 C 28,8.896 27.104,8 26,8 H 15.124 C 14.656,8 14.203,7.836 13.844,7.536 L 12.556,6.464 C 12.196,6.165 11.743,6 11.276,6 H 4 C 2.895,6 2,6.896 2,8 v 16 c 0,1.105 0.895,2 2,2 H 26 L 30.805,14.788 C 31.37,13.469 30.402,12 28.967,12 Z"
       fill="#fbc02d"
       id="path1-4"
       style="fill:#f44336;fill-opacity:1" /><g
       id="g16"
       transform="matrix(2.5674416,0,0,2.5674416,29.429474,4.3255835)"
       style="fill:#ffcdd2;fill-opacity:1"><path
         style="fill:#ffcdd2;fill-opacity:1;stroke-width:0.778986"
         d="m -2.5042337,2.9891299 -1.1684784,1.5579712 h 2.3369568 z"
         id="path6" /><path
         style="fill:#ffcdd2;fill-opacity:1;stroke-width:1.10166"
         d="M -2.8937266,3.7681156 V 6.1050722 H -2.114741 V 3.7681156 Z"
         id="path7" /><path
         style="fill:#ffcdd2;fill-opacity:1;stroke-width:1.10166"
         d="m -2.8937266,6.1050722 h -2.3369566 v 0.7789856 h 2.3369566 z"
         id="path8" /><path
         style="fill:#ffcdd2;fill-opacity:1;stroke-width:0.778986"
         d="m -4.4516977,5.3260867 -1.5579712,1.1684784 1.5579712,1.1684783 z"
         id="path9" /><path
         style="fill:#ffcdd2;fill-opacity:1;stroke-width:1.10166"
         d="M -2.8937266,6.8840578 H -2.114741 V 9.2210146 H -2.8937266 Z"
         id="path10" /><path
         style="fill:#ffcdd2;fill-opacity:1;stroke-width:0.778986"
         d="M -3.6727121,8.442029 -2.5042337,10 -1.3357553,8.442029 Z"
         id="path11" /><path
         style="fill:#ffcdd2;fill-opacity:1;stroke-width:1.10166"
         d="M -2.114741,6.1050722 V 6.8840578 H 0.22221577 V 6.1050722 Z"
         id="path13" /><path
         style="fill:#ffcdd2;fill-opacity:1;stroke-width:0.778986"
         d="M -0.55676974,5.3260867 1.0012014,6.4945651 -0.55676974,7.6630434 Z"
         id="path14" /></g><path
       style="fill:#ffcdd2;fill-opacity:1;stroke:none;stroke-width:2"
       d="m 20,24 v -6 h 6 v 6 z"
       id="path2" /></g></svg>
