<svg xmlns="http://www.w3.org/2000/svg" viewBox="0 0 32 32">
  <path d="M28.96692,12H9.44152a2,2,0,0,0-1.89737,1.36754L4,24V10H28a2,2,0,0,0-2-2H15.1241a2,2,0,0,1-1.28038-.46357L12.5563,6.46357A2,2,0,0,0,11.27592,6H4A2,2,0,0,0,2,8V24a2,2,0,0,0,2,2H26l4.80523-11.21213A2,2,0,0,0,28.96692,12Z" style="fill: #1976d2"/>
  <path d="M24.02605,20a2.02751,2.02751,0,1,1-2.02689-1.95177A1.98965,1.98965,0,0,1,24.02605,20Zm6.96727-5.00163a10.05163,10.05163,0,0,0-1.5904-2.00228l-2.34328,1.30336a7.87791,7.87791,0,0,0-2.4448-1.36526,9.26374,9.26374,0,0,0-1.89325,2.6002,11.74356,11.74356,0,0,1,7.79969,2.6181l1.47364-.81947A9.79691,9.79691,0,0,0,30.99332,15Zm0,10.00163A9.79858,9.79858,0,0,0,32,22.67026L29.65841,21.3669a7.23855,7.23855,0,0,0,.00507-2.72076,9.96617,9.96617,0,0,0-3.28568-.27695,10.69771,10.69771,0,0,1,1.54471,7.812l1.47365.81948A10.05441,10.05441,0,0,0,30.99332,25Zm-8.99248,5a10.76212,10.76212,0,0,0,2.59708-.32583V27.07071a7.88052,7.88052,0,0,0,2.45157-1.35712A9.10159,9.10159,0,0,0,25.657,22.8348a11.35849,11.35849,0,0,1-6.255,5.1955v1.639A10.76144,10.76144,0,0,0,22.00084,30Zm-8.99416-5a10.05141,10.05141,0,0,0,1.59208,2.00391l2.3416-1.30335a7.81244,7.81244,0,0,0,2.44649,1.36526,9.263,9.263,0,0,0,1.89155-2.60019,11.74643,11.74643,0,0,1-7.79968-2.61812l-1.472.81949A9.79714,9.79714,0,0,0,13.00668,25Zm0-10A9.79923,9.79923,0,0,0,12,17.32975l2.34328,1.30336a7.2387,7.2387,0,0,0-.00508,2.72075,9.9434,9.9434,0,0,0,3.28569.277,10.69237,10.69237,0,0,1-1.54472-7.81363l-1.47533-.81947a10.053,10.053,0,0,0-1.59716,2.00391Zm8.99248-5a10.76164,10.76164,0,0,0-2.59708.32584V12.9293a7.88,7.88,0,0,0-2.44987,1.35711,9.10154,9.10154,0,0,0,1.39243,2.87879,11.35276,11.35276,0,0,1,6.255-5.1955v-1.639A10.76215,10.76215,0,0,0,21.99916,10Z" style="fill: #bbdefb;fill-rule: evenodd"/>
</svg>
