<svg xmlns="http://www.w3.org/2000/svg" viewBox="0 0 32 32">
  <path d="M13.84376,7.53645l-1.28749-1.0729A2,2,0,0,0,11.27591,6H4A2,2,0,0,0,2,8V24a2,2,0,0,0,2,2H28a2,2,0,0,0,2-2V10a2,2,0,0,0-2-2H15.12412A2,2,0,0,1,13.84376,7.53645Z" style="fill: #039be5"/>
  <g>
    <path d="M24,16V14H21a1,1,0,0,0-1,1V25a1,1,0,0,0,1,1h3V24H22V16Z" style="fill: #b3e5fc"/>
    <path d="M32,14V12H27a1,1,0,0,0-1,1V27a1,1,0,0,0,1,1h5V26H28V14Z" style="fill: #b3e5fc"/>
    <rect x="16" y="16" width="2" height="8" style="fill: #b3e5fc"/>
  </g>
</svg>
