<svg xmlns="http://www.w3.org/2000/svg" xmlns:xlink="http://www.w3.org/1999/xlink" x="0px" y="0px" viewBox="0 0 24 24" style="enable-background: new 0 0 24 24" xml:space="preserve">
  <path fill="#90a4ae" d="M19,20H4c-1.1,0-2-0.9-2-2V6c0-1.1,0.9-2,2-2h6l2,2h7c1.1,0,2,0.9,2,2H4v10l2.1-8h17.1l-2.3,8.5 C20.7,19.4,19.9,20,19,20z" />
  <g>
    <path fill="#cfd8dc" d="M11.8,15.5C11.8,15.5,11.8,15.5,11.8,15.5c0-0.1,0-0.2,0-0.3c0,0,0,0,0,0c0,0,0,0,0,0c0-0.1,0-0.2,0-0.2 c-0.2-0.7-0.8-1.1-1.5-1v0C9.6,14,9.1,14.6,9,15.3c0,0.1,0,0.2,0,0.4c0.1,0.8,0.8,1.4,1.5,1.3C11.3,16.9,11.8,16.3,11.8,15.5z" />
    <path fill="#cfd8dc" d="M16.1,9.2c-1.9,0.2-3.1,1.2-3.6,2.3c-0.9,1.8,0.1,4.2,2.9,5c1.8,0.5,2.1,1.3,1.9,2.2c-0.2,0.8-0.7,1.6-0.9,2.3 c-0.1,0.2-0.1,0.5-0.1,0.7c0.1,1.6,3.3,2.2,5.9-2v0c0.6-1.1,0.9-2.3,0.9-3.5C23,12.4,20.3,8.7,16.1,9.2z" />
    <path fill="#cfd8dc" d="M15,19.4c-0.3-1.2-1.5-1.9-2.6-1.6c-0.9,0.2-1.5,1-1.6,2c0,0.3,0,0.6,0,0.9c0.3,1.2,1.5,1.9,2.6,1.6 c1-0.3,1.7-1.3,1.6-2.3C15,19.8,15,19.6,15,19.4z" />
  </g>
</svg>