<svg clip-rule="evenodd" fill-rule="evenodd" stroke-linejoin="round" stroke-miterlimit="1.4142" viewBox="0 0 24 24" xmlns="http://www.w3.org/2000/svg">
  <path d="m10 4h-6c-1.11 0-2 .89-2 2v12c0 1.097.903 2 2 2h16c1.097 0 2-.903 2-2v-10c0-1.11-.9-2-2-2h-8z" fill="#41b883" fill-rule="nonzero" />
  <path d="m12.470703 11.451172c-.672075 0-1.216797.544722-1.216797 1.216797v7.300781c0 .672075.544722 1.216797 1.216797 1.216797h7.302734c.672075 0 1.216797-.544722 1.216797-1.216797v-7.300781c0-.672075-.544722-1.216797-1.216797-1.216797z" fill="#35495e" />
  <path d="m13.6875 10.234375c-.672075 0-1.216797.544722-1.216797 1.216797v7.300781c0 .672075.544722 1.216797 1.216797 1.216797h7.302734c.672075 0 1.216797-.544722 1.216797-1.216797v-7.300781c0-.672075-.544722-1.216797-1.216797-1.216797z" fill="#41b883" />
  <path d="m14.904297 9.0175781c-.672075 0-1.216797.5447216-1.216797 1.2167969v7.300781c0 .672075.544722 1.216797 1.216797 1.216797h7.302734c.672075 0 1.216797-.544722 1.216797-1.216797v-7.300781c0-.6720753-.544722-1.2167969-1.216797-1.2167969z" fill="#d6f0e4" />
  <g transform="matrix(.29385836 0 0 .29385836 15.005745 10.173751)">
    <path d="m1.791 3.6914 10.209 17.619 10.209-17.533v-.085938h-3.9688l-6.1816 10.615-6.1523-10.615z" fill="#41b883" />
    <path d="m5.9072 3.6914 6.1521 10.617 6.1809-10.617h-3.7228l-2.4337 4.1783-2.4226-4.1783z" fill="#35495e" />
  </g>
</svg>
