<svg xmlns="http://www.w3.org/2000/svg" viewBox="0 0 16 16"><path id="folder" fill="#ff9800" d="m6.922 3.768-.644-.536A1 1 0 0 0 5.638 3H2a1 1 0 0 0-1 1v8a1 1 0 0 0 1 1h12a1 1 0 0 0 1-1V5a1 1 0 0 0-1-1H7.562a1 1 0 0 1-.64-.232"/><path id="motive" fill="#ffe0b2" d="M10 5s-1 .93-1 2 3 4 3 4l-.445.44a1.5 1.5 0 0 0-2.55 1 1.505 1.505 0 0 0 1.43 1.559 1.51 1.51 0 0 0 1.555-1.62l1.01-.63.125.155A1.51 1.51 0 0 0 14.439 14a1.505 1.505 0 0 0 1.56-1.44 1.505 1.505 0 0 0-2.19-1.39zm5 0-2 4 1 1s2-1.97 2-3-1-2-1-2m-4.53 7h.05c.255.01.45.2.475.444v.1a.49.49 0 0 1-.515.455.495.495 0 0 1-.48-.52.49.49 0 0 1 .47-.48m4 0h.05c.28.01.49.24.48.52a.49.49 0 0 1-.52.48.49.49 0 0 1-.48-.52.49.49 0 0 1 .47-.48"/></svg>