<svg xmlns="http://www.w3.org/2000/svg" viewBox="0 0 32 32"><path fill="#1e88e5" d="m13.844 7.536-1.288-1.072A2 2 0 0 0 11.276 6H4a2 2 0 0 0-2 2v16a2 2 0 0 0 2 2h24a2 2 0 0 0 2-2V10a2 2 0 0 0-2-2H15.124a2 2 0 0 1-1.28-.464"/><path fill="#e3f2fd" d="m15.508 21.618 1.272 3.936a1.456 1.456 0 0 0-.06 1.922 1.35 1.35 0 0 0 .937.486l.1.003a1.33 1.33 0 0 0 .894-.346 1.4 1.4 0 0 0 .207-.231 1.446 1.446 0 0 0-.307-1.972 1.36 1.36 0 0 0-.597-.256l-1.586-5.037a.16.16 0 0 0-.092-.101.15.15 0 0 0-.134.007 1.92 1.92 0 0 1-2.059-.113 1.995 1.995 0 0 1-.423-2.72 1.84 1.84 0 0 1 2.088-.697.16.16 0 0 0 .199-.102l.325-.95a.17.17 0 0 0-.007-.128.16.16 0 0 0-.093-.084 3 3 0 0 0-.978-.167h-.039A3.215 3.215 0 0 0 12 18.296a3.3 3.3 0 0 0 1.321 2.698 3.08 3.08 0 0 0 2.187.624"/><path fill="#e3f2fd" d="M15.802 17.146a1.35 1.35 0 0 0-1.787.535 1.45 1.45 0 0 0-.157 1.074 1.4 1.4 0 0 0 .622.875 1.33 1.33 0 0 0 .706.203 1.36 1.36 0 0 0 1.176-.685 1.47 1.47 0 0 0 .177-.971l4.14-3.149a.17.17 0 0 0 .065-.122.17.17 0 0 0-.05-.13 2.09 2.09 0 0 1-.556-2.063 1.883 1.883 0 0 1 2.383-1.262 1.95 1.95 0 0 1 1.31 1.823.16.16 0 0 0 .155.161l.983.02a.2.2 0 0 0 .114-.047.17.17 0 0 0 .048-.117 3.34 3.34 0 0 0-.945-2.333A3.12 3.12 0 0 0 21.939 10a4 4 0 0 0-.293.014 3.14 3.14 0 0 0-2.162 1.182 3.4 3.4 0 0 0-.457 3.457Zm10.842 10.755a1.4 1.4 0 0 0 .736-.77 1.45 1.45 0 0 0-.005-1.083 1.38 1.38 0 0 0-.744-.763 1.3 1.3 0 0 0-1.047.005 1.4 1.4 0 0 0-.693.672l-5.12.014a.16.16 0 0 0-.123.06.17.17 0 0 0-.033.135 2.08 2.08 0 0 1-.724 2 1.82 1.82 0 0 1-1.4.355 1.86 1.86 0 0 1-1.233-.773 2 2 0 0 1-.016-2.286.17.17 0 0 0-.033-.226l-.778-.613a.15.15 0 0 0-.12-.032.16.16 0 0 0-.105.065 3.36 3.36 0 0 0-.575 2.45 3.3 3.3 0 0 0 1.266 2.153 3.1 3.1 0 0 0 1.874.634 3.15 3.15 0 0 0 2.572-1.349 3.4 3.4 0 0 0 .545-1.264l4.01-.04a1.35 1.35 0 0 0 1.746.656"/><path fill="#e3f2fd" d="m27.718 23.882 1.228-3.945a1.34 1.34 0 0 0 .824-.473 1.44 1.44 0 0 0 .328-1.026 1.366 1.366 0 0 0-2.729-.013 1.5 1.5 0 0 0 .06.553 1.4 1.4 0 0 0 .336.564l-1.603 5.027a.17.17 0 0 0 .016.14.16.16 0 0 0 .115.075 1.952 1.952 0 0 1 .385 3.782 1.84 1.84 0 0 1-2.097-.692.156.156 0 0 0-.217-.037l-.811.572a.16.16 0 0 0-.067.108.17.17 0 0 0 .028.124A3.15 3.15 0 0 0 26.097 30a3.1 3.1 0 0 0 1.871-.63 3.36 3.36 0 0 0 1.165-3.667 3.23 3.23 0 0 0-1.415-1.82Z"/><path fill="#e3f2fd" d="M31.845 17.545a3.15 3.15 0 0 0-5.177-1.459l-3.28-2.432a1.46 1.46 0 0 0-.193-.969 1.37 1.37 0 0 0-.857-.637 1.3 1.3 0 0 0-.308-.038h-.004a1.425 1.425 0 0 0-.003 2.847h.005a1.3 1.3 0 0 0 .631-.16l4.165 3.137a.16.16 0 0 0 .133.027.16.16 0 0 0 .104-.089 1.98 1.98 0 0 1 1.735-1.178h.001a1.933 1.933 0 0 1 1.897 1.963 1.96 1.96 0 0 1-1.296 1.863.166.166 0 0 0-.102.203l.28.98a.16.16 0 0 0 .079.098.15.15 0 0 0 .123.011 3.2 3.2 0 0 0 1.867-1.64 3.4 3.4 0 0 0 .2-2.527"/></svg>