<svg xmlns="http://www.w3.org/2000/svg" viewBox="0 0 16 16">
<defs><linearGradient id="a" x1="7.645" x2="4.454" y1="3.452" y2="6.64325" gradientUnits="userSpaceOnUse"><stop offset=".15" stop-color="#2196f3"/><stop offset=".85" stop-color="#f50057"/></linearGradient></defs>
<path fill="#546e7a" d="m6.922 3.768-.644-.536A1 1 0 0 0 5.638 3H2a1 1 0 0 0-1 1v8a1 1 0 0 0 1 1h12a1 1 0 0 0 1-1V5a1 1 0 0 0-1-1H7.562a1 1 0 0 1-.64-.232" id="folder"/>
<g id="motive"><path fill="#cfd8dc" d="M11.5 8a1.5 1.5 0 1 1-1.5 1.5 1.5 1.5 0 0 1 1.5-1.5m0-1a2.5 2.5 0 1 0 2.5 2.5 2.5 2.5 0 0 0-2.5-2.5"/><path fill="url(#a)" d="M8 10a3.55 3.55 0 0 0 0.75 1.705l-0.7105 0.713A4.525 4.525 0 0 1 7 10Zm7.972-1.0015A4.5075 4.5075 0 0 0 12 5v1a3.5425 3.5425 0 0 1 0 7v1a4.515 4.515 0 0 0 3.972-5.0015m-7.207 4.115A4.535 4.535 0 0 0 11 14v-1a3.55 3.55 0 0 1-1.515-0.609Z"/></g>
</svg>
