<svg xmlns="http://www.w3.org/2000/svg" viewBox="0 0 32 32">
  <path d="M28.96692,12H9.44152a2,2,0,0,0-1.89737,1.36754L4,24V10H28a2,2,0,0,0-2-2H15.1241a2,2,0,0,1-1.28038-.46357L12.5563,6.46357A2,2,0,0,0,11.27592,6H4A2,2,0,0,0,2,8V24a2,2,0,0,0,2,2H26l4.80523-11.21213A2,2,0,0,0,28.96692,12Z" style="fill: #f44336"/>
  <path d="M18,26v4c2.28125-.78125,8.71252-1.025,10-2V24C26.71252,24.975,20.28125,25.21875,18,26Z" style="fill: #ffcdd2;fill-rule: evenodd"/>
  <path d="M18,20v4c2.28125-.78125,8.71252-1.025,10-2V18C26.71252,18.975,20.28125,19.21875,18,20Z" style="fill: #ffcdd2;fill-rule: evenodd"/>
  <path d="M18,14v4c2.28125-.78125,8.71252-1.025,10-2V12C26.71252,12.975,20.28125,13.21875,18,14Z" style="fill: #ffcdd2;fill-rule: evenodd"/>
</svg>
