<svg clip-rule="evenodd" stroke-linejoin="round" stroke-miterlimit="1.4142" version="1.1" viewBox="0 0 24 24" xml:space="preserve" xmlns="http://www.w3.org/2000/svg"><path d="m19 20h-15c-1.11 0-2-0.9-2-2v-12c0-1.11 0.89-2 2-2h6l2 2h7c1.097 0 2 0.903 2 2h-17v10l2.14-8h17.07l-2.28 8.5c-0.23 0.87-1.01 1.5-1.93 1.5z" fill="#ff5722"/><path d="m12.351 8.996c-0.82516 0-1.4961 0.66897-1.4961 1.4941 0 0.82517 0.67093 1.4961 1.4961 1.4961h5.9102c0.82517 0 1.4941-0.67093 1.4941-1.4961 0-0.82517-0.66897-1.4941-1.4941-1.4941zm9.7676 0a1.5266 1.4956 0 0 0-1.5273 1.4941 1.5266 1.4956 0 0 0 1.5273 1.4961 1.5266 1.4956 0 0 0 1.5254-1.4961 1.5266 1.4956 0 0 0-1.5254-1.4941zm-9.7383 4.4336c-0.8458 0-1.5254 0.68155-1.5254 1.5273 0 0.83548 0.67959 1.517 1.5254 1.5273 0.8458 0 1.5273-0.68155 1.5273-1.5273 0-0.8458-0.68155-1.5273-1.5273-1.5273zm3.6934 0.03125c-0.82517 0.06189-1.4545 0.77444-1.3926 1.5996 0.06189 0.82517 0.77444 1.4545 1.5996 1.3926h6.043c0.82517-0.06189 1.4545-0.77444 1.3926-1.5996s-0.77249-1.4545-1.5977-1.3926h-5.9004zm-3.7227 4.3027c-0.82516 0-1.4961 0.66898-1.4961 1.4941 0 0.82517 0.67093 1.4961 1.4961 1.4961h5.9102c0.82517 0 1.4941-0.67093 1.4941-1.4961 0-0.82516-0.66897-1.4941-1.4941-1.4941zm9.7676 0a1.5266 1.4956 0 0 0-1.5273 1.4941 1.5266 1.4956 0 0 0 1.5273 1.4961 1.5266 1.4956 0 0 0 1.5254-1.4961 1.5266 1.4956 0 0 0-1.5254-1.4941z" fill="#ffccbc" stroke-width=".10315"/></svg>
