<svg xmlns="http://www.w3.org/2000/svg" viewBox="0 0 16 16">
<path fill="#ef5350" d="m6.922 3.768-.644-.536A1 1 0 0 0 5.638 3H2a1 1 0 0 0-1 1v8a1 1 0 0 0 1 1h12a1 1 0 0 0 1-1V5a1 1 0 0 0-1-1H7.562a1 1 0 0 1-.64-.232" id="folder"/>
<path fill="#ffcdd2" d="M15 7h-1a1.5 1.5 0 0 0-3 0h-1a1 1 0 0 0-1 1v5a1 1 0 0 0 1 1h5a1 1 0 0 0 1-1V8a1 1 0 0 0-1-1m-2.5-0.5a0.5 0.5 0 1 1-0.5 0.5 0.5015 0.5015 0 0 1 0.5-0.5m-0.7735 5.7985-1.5465-1.5465 0.545-0.545 1.0015 0.9975 2.548-2.548 0.5455 0.5495Z" id="motive"/>
</svg>
