<svg xmlns="http://www.w3.org/2000/svg" clip-rule="evenodd" stroke-linejoin="round" stroke-miterlimit="1.414" viewBox="0 0 24 24">
    <path d="M19 20H4a2 2 0 0 1-2-2V6c0-1.11.89-2 2-2h6l2 2h7c1.097 0 2 .903 2 2H4v10l2.14-8h17.07l-2.28 8.5c-.23.87-1.01 1.5-1.93 1.5z" fill="#ffb300"/>
    <path d="M0 0h24v24H0z" fill="none"/>
    <path d="M21.6 12.837H19v-1.369c0-.76-.578-1.368-1.3-1.368h-2.6c-.722 0-1.3.609-1.3 1.368v1.369h-2.6c-.722 0-1.294.609-1.294 1.368L9.9 21.732c0 .759.579 1.368 1.3 1.368h10.4c.722 0 1.3-.609 1.3-1.368v-7.527c0-.76-.578-1.368-1.3-1.368zm-3.9 0h-2.6v-1.369h2.6z"/>
</svg>