<svg xmlns="http://www.w3.org/2000/svg" viewBox="0 0 16 16">
<path fill="#0288d1" d="m6.922 3.768-.644-.536A1 1 0 0 0 5.638 3H2a1 1 0 0 0-1 1v8a1 1 0 0 0 1 1h12a1 1 0 0 0 1-1V5a1 1 0 0 0-1-1H7.562a1 1 0 0 1-.64-.232" id="folder"/>
<path fill="#b3e5fc" d="M12 8h-1.491l0.07-0.838 0.001-0.005a0.9725 0.9725 0 0 1 1.924-0.2425l0.7375-0.8435a1.95 1.95 0 0 0-1.505-1.063 2.0715 2.0715 0 0 0-2.1315 2.0525L9.524 8H8v1h1.435l-0.2645 2.937a1.025 1.025 0 0 1-0.674 0.888l-0.013 0.0045a0.96 0.96 0 0 1-1.2255-0.7325l-0.7385 0.8435a1.955 1.955 0 0 0 1.495 1.05 2.065 2.065 0 0 0 2.137-2.04L10.4195 9H12Zm4 2.4645-0.707-0.707-1.4145 1.414-1.414-1.414-0.707 0.707 1.414 1.414-1.414 1.4145L12.4645 14l1.414-1.414L15.293 14 16 13.293l-1.414-1.4145z" id="motive"/>
</svg>
