<svg xmlns="http://www.w3.org/2000/svg" viewBox="0 0 16 16">
<path id="folder" fill="#1e88e5" d="M14.483 6H4.721a1 1 0 0 0-.949.684L2 12V5h12a1 1 0 0 0-1-1H7.562a1 1 0 0 1-.64-.232l-.644-.536A1 1 0 0 0 5.638 3H2a1 1 0 0 0-1 1v8a1 1 0 0 0 1 1h11l2.403-5.606A1 1 0 0 0 14.483 6" />
<path id="motive" fill="#bbdefb" d="M 12.5,5 C 10.561,5 9,6.561 9,8.5 V 12 h 3.5 C 14.439,12 16,10.439 16,8.5 16,6.561 14.439,5 12.5,5 M 14,7 h 1 v 3 h -1 z m -4,1 h 1 v 2 h -1 z m 2,1 h 1 v 1 h -1 z m -4,1 -1.998,0.01 v 1.161 L 6,12 h 2 z m -2,3 v 2 h 2 v -2 z m 3,0 v 2 h 2 v -2 z" />
</svg>
