<svg xmlns="http://www.w3.org/2000/svg" viewBox="0 0 32 32">
  <path d="M28.96692,12H9.44152a2,2,0,0,0-1.89737,1.36754L4,24V10H28a2,2,0,0,0-2-2H15.1241a2,2,0,0,1-1.28038-.46357L12.5563,6.46357A2,2,0,0,0,11.27592,6H4A2,2,0,0,0,2,8V24a2,2,0,0,0,2,2H26l4.80523-11.21213A2,2,0,0,0,28.96692,12Z" style="fill: #1976d2"/>
  <path d="M20.59907,25.55555H17.61386L12,20l5.61386-5.55555h2.98521L22.09586,11.933,29.86244,10,32,17.48857,30.5032,20,32,22.51143,29.86244,30l-7.76489-1.933-1.49848-2.51145m.15977-.27777L26.625,26.81045l-3.38379-5.69933H16.47023l4.2886,4.16666m7.85738.42157L30.19374,20l-1.57753-5.69935L25.219,20l3.39724,5.69935M20.75883,14.72222l-4.2886,4.16666h6.77094l3.38547-5.69934Z" style="fill: #bbdefb;fill-rule: evenodd"/>
</svg>
