<svg xmlns="http://www.w3.org/2000/svg" fill="none" viewBox="0 0 16 16"><path id="folder" fill="#689f38" d="m6.922 3.768-.644-.536A1 1 0 0 0 5.638 3H2a1 1 0 0 0-1 1v8a1 1 0 0 0 1 1h12a1 1 0 0 0 1-1V5a1 1 0 0 0-1-1H7.562a1 1 0 0 1-.64-.232"/><path id="motive" fill="#dcedc8" d="m13.794 6.792 1.065.255-3.014 3.015-1.35-1.351-.728.728 2.078 2.077 3.242-3.243-.03.346L16 9.748l-.942 1.129.13 1.494-1.395.333-.73 1.292-1.313-.592-1.313.596-.73-1.291-1.396-.334.132-1.498-.943-1.13.943-1.132-.131-1.494 1.395-.33.73-1.291 1.313.593 1.313-.593zM16 7.36l-.913.912.102-1.148-.33-.078.414-.413z"/></svg>