<?xml version="1.0" encoding="UTF-8" standalone="no"?>
<svg
   viewBox="0 0 32 32"
   version="1.1"
   id="svg2"
   sodipodi:docname="folder-bicep-open.svg"
   inkscape:version="1.3.2 (091e20e, 2023-11-25, custom)"
   xmlns:inkscape="http://www.inkscape.org/namespaces/inkscape"
   xmlns:sodipodi="http://sodipodi.sourceforge.net/DTD/sodipodi-0.dtd"
   xmlns="http://www.w3.org/2000/svg"
   xmlns:svg="http://www.w3.org/2000/svg">
  <defs
     id="defs2" />
  <sodipodi:namedview
     id="namedview2"
     pagecolor="#ffffff"
     bordercolor="#000000"
     borderopacity="0.25"
     inkscape:showpageshadow="2"
     inkscape:pageopacity="0.0"
     inkscape:pagecheckerboard="0"
     inkscape:deskcolor="#d1d1d1"
     inkscape:zoom="26.71875"
     inkscape:cx="15.981287"
     inkscape:cy="16"
     inkscape:window-width="1920"
     inkscape:window-height="1111"
     inkscape:window-x="-9"
     inkscape:window-y="-9"
     inkscape:window-maximized="1"
     inkscape:current-layer="svg2" />
  <path
     fill="#fbc02d"
     d="M28.967 12H9.442a2 2 0 00-1.898 1.368L4 24V10h24a2 2 0 00-2-2H15.124a2 2 0 01-1.28-.464l-1.288-1.072A2 2 0 0011.276 6H4a2 2 0 00-2 2v16a2 2 0 002 2h22l4.805-11.212A2 2 0 0028.967 12z"
     id="path1" />
  <path
     fill="#fff9c4"
     d="m 14.9,24.61 c 0,0 0.95,-10.685 3.8,-14.57 l 4.748,0.95 -0.95,2.935 h -1.9 v 6.8 h 0.95 c 1.9,-2.915 5.833,-3.98 8.207,-2.915 3.134,1.453 2.85,5.831 0,7.769 -2.28,1.558 -9.156,2.916 -14.855,-0.969 z"
     id="path2" />
</svg>
