<svg xmlns="http://www.w3.org/2000/svg" viewBox="0 0 32 32">
  <path d="M28.96692,12H9.44152a2,2,0,0,0-1.89737,1.36754L4,24V10H28a2,2,0,0,0-2-2H15.1241a2,2,0,0,1-1.28038-.46357L12.5563,6.46357A2,2,0,0,0,11.27592,6H4A2,2,0,0,0,2,8V24a2,2,0,0,0,2,2H26l4.80523-11.21213A2,2,0,0,0,28.96692,12Z" style="fill: #ff9800"/>
  <path d="M31,12H15a1,1,0,0,0-1,1V25a1,1,0,0,0,1,1h3v3a1,1,0,0,0,1,1h.69727a1.00024,1.00024,0,0,0,.55468-.168L26,26h5a1,1,0,0,0,1-1V13A1,1,0,0,0,31,12ZM16,18h8v2H16Zm10,6H16V22H26Zm4-8H16V14H30Z" style="fill: #fff9c4;fill-rule: evenodd"/>
</svg>
