<svg xmlns="http://www.w3.org/2000/svg" clip-rule="evenodd" image-rendering="optimizeQuality" shape-rendering="geometricPrecision" text-rendering="geometricPrecision" viewBox="0 0 3200 3200"><path fill="#43a047" d="M2340.5 1199.5c-18.05 5.55-36.72 11.21-56 17a565 565 0 0 0-62 21q-441.75 165.75-603 609c-2.04 4.44-3.7 9.11-5 14-1.4 3.2-2.4 6.53-3 10-3.64 7.59-6.31 15.59-8 24-2.11 4-3.44 8.34-4 13-.61.89-.94 1.89-1 3-1.78 3-2.78 6.34-3 10-.67 2.67-1.33 5.33-2 8-1.57 1.6-2.24 3.6-2 6-.92 2.92-1.58 5.92-2 9-1.9 2.2-2.9 4.86-3 8-.33 2-.67 4-1 6-1.42 2.01-2.09 4.35-2 7v1c-.62.11-1.12.44-1.5 1a103 103 0 0 0-3.5 17c-21.96 92.4-35.63 186.07-41 281a821 821 0 0 0-4 73v2c-1.16 46.16-1.33 92.5-.5 139 .89 16.16 1.73 32.16 2.5 48v11c.18 7.19.85 14.19 2 21 .47 13.68 1.13 27.34 2 41-386.33.17-772.67 0-1159-.5q-122.657-16.17-169.5-130.5a230.2 230.2 0 0 1-11-49c-.667-546.67-.667-1093.3 0-1640 9.834-76.145 49.334-130.64 118.5-163.5q29.688-12.892 62-16 387.03-1.49 774 1c40.68 5.845 76.34 22.178 107 49 45.37 38.377 91.04 76.377 137 114 33.84 22.572 71.17 34.238 112 35l1108 1q101.4 12.037 154.5 98.5c17.74 31.305 26.58 64.972 26.5 101h-2400c-.167 465.67 0 931.33.5 1397l357-1071c28.15-65.48 76.984-106.31 146.5-122.5a307 307 0 0 1 20-3c472.33-.5 944.67-.67 1417-.5" opacity=".999"/><path fill="#a5d6a7" d="M3071.5 1301.5c-1.15 5.48-1.32 11.15-.5 17 .28.92.78 1.58 1.5 2v4c-.17 6.34 0 12.68.5 19q.345 1.86 1.5 3v5c-.32 9.22.34 18.22 2 27v10c.15 12.67.49 25.34 1 38-.17 19 0 38 .5 57 .28-.92.78-1.58 1.5-2q.585 196.035-43.5 387c-27.87 114.37-71.2 222.37-130 324-21.76 34.53-44.76 68.2-69 101a1351 1351 0 0 1-82.5 92.5c-16.67 15-33.33 30-50 45a2628 2628 0 0 1-49 38.5c-73.84 51.95-153.18 95.28-238 130-60.65 24.38-122.99 43.88-187 58.5-113.01 24.48-227.35 38.15-343 41-68.76 1.79-137.42.13-206-5-45.06-3.26-90.06-7.1-135-11.5-3.11-27.6-5.45-55.26-7-83-.87-13.66-1.53-27.32-2-41 .24-7.23-.43-14.23-2-21v-11c-1.58-62.32-2.25-124.66-2-187v-2c.82-2.47 1.32-5.14 1.5-8 1.01-21.66 1.84-43.33 2.5-65 5.37-94.93 19.04-188.6 41-281 1.96-5.81 3.62-11.81 5-18v-1c1.42-2.01 2.09-4.35 2-7 .33-2 .67-4 1-6 1.6-2.35 2.6-5.01 3-8 .42-3.08 1.08-6.08 2-9 1.57-1.6 2.24-3.6 2-6 .67-2.67 1.33-5.33 2-8 1.78-3 2.78-6.34 3-10 .06-1.11.39-2.11 1-3 2.11-4 3.44-8.34 4-13a169 169 0 0 0 8-24c.6-3.47 1.6-6.8 3-10 2.82-4.13 4.49-8.8 5-14q161.25-443.25 603-609c20.86-6.62 41.53-13.62 62-21 19.28-5.79 37.95-11.45 56-17 29.89-8.48 60.22-15.65 91-21.5 191.75-33.99 384.08-37.66 577-11 14.64 2.55 29.3 4.88 44 7 1.2.9 2.03 2.07 2.5 3.5 6.67 41.19 12.17 82.52 16.5 124"/><path fill="#43a047" d="M3071.5 1303.5c19.44 34.7 27.61 72.03 24.5 112-1.77 22.43-7.27 43.77-16.5 64 .23-17.69-.1-35.35-1-53 .06-12.86-.61-25.53-2-38v-10c-.22-9.18-.88-18.18-2-27v-5c-.13-7.53-.79-14.86-2-22v-4c-.26-5.67-.59-11.34-1-17m-398 192h1c17.51-.33 34.84 0 52 1-1.33.67-2.67 1.33-4 2-3.65.77-6.98 2.1-10 4a950 950 0 0 0-105 50.5c-121.59 68.07-232.26 150.91-332 248.5a178.3 178.3 0 0 0-23 22c-96.64 96.09-181.81 201.09-255.5 315a2166 2166 0 0 0-119.5 210c-1.41.47-2.07 1.47-2 3v1q-1.17-19.245 0-39v-2c1.45-5.77 2.11-11.77 2-18 .24-7.06.91-14.06 2-21 1.75-6.43 2.75-13.09 3-20v-1c2.07-8.76 3.4-17.76 4-27v-2c1.72-3.34 2.38-7.01 2-11 2.57-6.3 3.9-12.97 4-20 .03-4.14.7-8.14 2-12 1.42-2.01 2.09-4.35 2-7v-2c2.54-3.85 3.54-8.19 3-13 17.15-76.63 42.32-150.3 75.5-221 51.76-109.33 124.93-201.83 219.5-277.5 91.03-69.67 193.03-116.5 306-140.5 4.81.54 9.15-.46 13-3 9.03-.41 17.7-2.07 26-5 8.58-.59 16.91-1.92 25-4 6.91-.25 13.57-1.25 20-3 6.26-1.24 12.59-1.91 19-2 14.8-1.38 29.47-2.72 44-4h2c8.18-.28 16.18-.94 24-2"/></svg>