<svg xmlns="http://www.w3.org/2000/svg" xmlns:xlink="http://www.w3.org/1999/xlink" xml:space="preserve" fill-rule="evenodd" stroke-linejoin="round" stroke-miterlimit="2" viewBox="0 0 16 16"><defs><path id="a" fill="#bbdefb" d="m13 7 1-1 2 2-1 1z"/></defs><path id="folder" fill="#2196f3" fill-rule="nonzero" d="m6.922 3.768-.644-.536A1 1 0 0 0 5.638 3H2a1 1 0 0 0-1 1v8a1 1 0 0 0 1 1h12a1 1 0 0 0 1-1V5a1 1 0 0 0-1-1H7.562a1 1 0 0 1-.64-.232"/><g id="motive"><path fill="#bbdefb" d="M10.991 8.994h1.019v.998h-1.02zm-1.491.01h1.018v.999H9.499zm2.998 0h.999v.999h-.999zM14.5 7H16v5h-1.5z"/><use xlink:href="#a" transform="translate(0 -1)"/><use xlink:href="#a" transform="matrix(1 0 0 -1 0 20)"/><path fill="#bbdefb" d="M7 7h1.5v5H7z"/><use xlink:href="#a" transform="matrix(-1 0 0 1 23 -1)"/><use xlink:href="#a" transform="rotate(180 11.5 10)"/></g></svg>