<svg xmlns="http://www.w3.org/2000/svg" viewBox="0 0 32 32">
  <path d="M13.84376,7.53645l-1.28749-1.0729A2,2,0,0,0,11.27591,6H4A2,2,0,0,0,2,8V24a2,2,0,0,0,2,2H28a2,2,0,0,0,2-2V10a2,2,0,0,0-2-2H15.12412A2,2,0,0,1,13.84376,7.53645Z" style="fill: #00bcd4"/>
  <path d="M23.00074,9,14,12l1,12,8.00074,4L31,24l1-12ZM21.131,11.78482a2.29923,2.29923,0,0,1,1.12363.32412,5.25951,5.25951,0,0,0,1.21434.30523A6.6295,6.6295,0,0,1,27.902,15.24849c.4477.875.35553,1.34739-.32918,1.69914-.59108.30377-1.79956.157-3.55523-.43169l-1.48063-.49709-.5267.19912a3.53441,3.53441,0,0,0-1.84052,1.72966,2.9016,2.9016,0,0,0-.218,1.6221,2.90045,2.90045,0,0,0,.40966,1.64536c.34967.61338,1.15,1.39535,1.28749,1.25873.038-.0378-.04389-.28634-.18143-.55233a1.1136,1.1136,0,0,1-.17848-.59593c.038-.061.39941.1657.80174.50436A5.57547,5.57547,0,0,0,24.989,23.16277c.78712.0814.96708-.064.37747-.30668a1.81206,1.81206,0,0,1-.54719-.36338c-.2297-.25145-.24286-.24419.73738-.46221a4.58949,4.58949,0,0,0,1.88735-.99565c.0234-.07267-.17264-.10174-.49452-.077-.29261.02326-.53109-.00581-.53109-.06686a2.93024,2.93024,0,0,1,.53109-.65552,4.93478,4.93478,0,0,0,1.58449-3.596l.08047-1.11483.25749.53053a3.20818,3.20818,0,0,1,.13315,2.14827c-.16826.60465-.0556.67151.2531.15116.38186-.6439.50476-.54215.43746.36483a3.94728,3.94728,0,0,1-1.18215,2.56105c-.62765.68024-.55157.80233.2063.33867.73152-.44768.82955-.37791.45354.32559a6.07921,6.07921,0,0,1-3.782,2.8314,6.22178,6.22178,0,0,1-2.4872.15989,7.32929,7.32929,0,0,1-5.43964-3.84886,12.67784,12.67784,0,0,0-.83688-1.43751c-.40233-.54215-.436-.78489-.16532-1.19622a.91527.91527,0,0,0,.11119-.72966c-.2575-1.452-.24872-1.4971.33651-2.08867.51206-.51309.54279-.5814.54279-1.18169,0-.52036.05267-.69042.28968-.92588a1.01586,1.01586,0,0,1,.56181-.2907,2.878,2.878,0,0,0,1.624-.86483A1.66574,1.66574,0,0,1,21.131,11.78482Z" style="fill: #b2ebf2;fill-rule: evenodd"/>
</svg>
