<svg xmlns="http://www.w3.org/2000/svg" viewBox="0 0 32 32">
  <path d="M13.84376,7.53645l-1.28749-1.0729A2,2,0,0,0,11.27591,6H4A2,2,0,0,0,2,8V24a2,2,0,0,0,2,2H28a2,2,0,0,0,2-2V10a2,2,0,0,0-2-2H15.12412A2,2,0,0,1,13.84376,7.53645Z" style="fill: #78909c"/>
  <g>
    <rect x="12" y="18" width="2" height="10" style="fill: #cfd8dc"/>
    <rect x="12" y="14" width="2" height="2" style="fill: #cfd8dc"/>
    <path d="M16,15V27a1,1,0,0,0,1,1h6a1,1,0,0,0,1-1V15a1,1,0,0,0-1-1H17A1,1,0,0,0,16,15Zm6,11H18V16h4Z" style="fill: #cfd8dc;fill-rule: evenodd"/>
    <path d="M32,16V14H27a1,1,0,0,0-1,1v6a1,1,0,0,0,1,1h3v4H26v2h5a1,1,0,0,0,1-1V21a1,1,0,0,0-1-1H28V16Z" style="fill: #cfd8dc;fill-rule: evenodd"/>
  </g>
</svg>
