<svg xmlns="http://www.w3.org/2000/svg" viewBox="0 0 32 32">
  <path d="M13.84376,7.53645l-1.28749-1.0729A2,2,0,0,0,11.27591,6H4A2,2,0,0,0,2,8V24a2,2,0,0,0,2,2H28a2,2,0,0,0,2-2V10a2,2,0,0,0-2-2H15.12412A2,2,0,0,1,13.84376,7.53645Z" style="fill: #8d6e63"/>
  <g>
    <path d="M31.59815,20.78876c-1.02772-1.01209-6.16627-1.644-7.78659-1.82722a4.90179,4.90179,0,0,0,.2002-.58811,6.38952,6.38952,0,0,1,.70739-.26942c.02936.09163.17085.439.25093.60451a3.16481,3.16481,0,0,0,3.53281-2.77934,3.306,3.306,0,0,0,.02681-.40735,4.01214,4.01214,0,0,1,1.24126-2.574c-1.66569-.49783-4.06147.77-4.86362,2.6574a4.90986,4.90986,0,0,0-.90225-.253,4.39554,4.39554,0,0,0-4.25633-3.35218,8.06911,8.06911,0,0,0-7.746,8.36347l.00211.071c0,4.45862,2.96969,8.36471,4.6474,8.36471a1.65326,1.65326,0,0,0,1.51087-1.06679c.12412.346.50451,1.41965.63,1.69319.18418.40484,1.03971.755,1.41343.33508a1.35481,1.35481,0,0,0,1.84321-.29131,1.35849,1.35849,0,0,0,1.72408-.891,1.42552,1.42552,0,0,0,.039-.14839c.4538-.026.678-.67974.57793-1.20083a12.95229,12.95229,0,0,0-1.15852-2.23342c.60329.5033,2.13151.64555,2.317,0,.973.78231,2.48786.372,2.60932-.264,1.1812.31457,2.53591-.37611,2.31436-1.21313a1.62758,1.62758,0,0,0,1.52516-1.71845,1.66437,1.66437,0,0,0-.40137-1.01144Z" style="fill: #5d4037;fill-rule: evenodd"/>
    <path d="M26.25182,16.37389a7.43579,7.43579,0,0,1,1.57093-2.3018,4.14411,4.14411,0,0,0-1.83653,2.1199,6.391,6.391,0,0,0-.646-.36927,4.19642,4.19642,0,0,1,3.42348-2.41943c-.99835.92729-.64333,2.85435-1.46416,3.876a10.8155,10.8155,0,0,0-1.04774-.90678Zm-.646,1.354a3.50088,3.50088,0,0,1,.03469-.38979,3.3734,3.3734,0,0,0-.59927-.08206,2.36337,2.36337,0,0,0,.20821.889,3.05145,3.05145,0,0,0,1.62832-.46228,5.5399,5.5399,0,0,0-1.09845-.3173c-.04.08479-.13747.29952-.1735.36107Z" style="fill: #03a9f4;fill-rule: evenodd"/>
    <g>
      <path d="M22.84653,24.30368l.0008.00373c-.0961-.21184-.19812-.46917-.32-.80552.47448.70767,1.96141.34267,1.88341-.29145.72781.56115,2.22594-.09348,1.88536-.88035.72905.34814,1.56117-.3523,1.37455-.65751,1.243.24564,2.4341.49051,2.808.58854a1.42875,1.42875,0,0,1-1.66687.50443c.46079.64321-.43384,1.41493-1.68.98985.27434.63153-.83518,1.2-2.09613.54178C25.05178,24.929,23.47139,25.00171,22.84653,24.30368Zm2.46565-3.193c1.4426.11349,3.82826.33389,5.30527.5457-.09332-.49255-.34822-.63325-1.15-.85391-.86232.09425-3.05.31446-4.15522.30823Z" style="fill: #4caf50;fill-rule: evenodd"/>
      <path d="M24.4109,23.21058c.7278.56116,2.22593-.09348,1.88535-.88035.72905.34813,1.56118-.35231,1.37455-.65751-1.46949-.29036-3.01153-.58171-3.3613-.63266.21222.01155.56387.03625,1.00281.07078,1.10532.00623,3.293-.214,4.15523-.30819a40.94626,40.94626,0,0,0-6.21532-1.02259,2.8729,2.8729,0,0,1-.551.61455,4.81536,4.81536,0,0,1-4.14859,3.10872,5.44593,5.44593,0,0,1-1.69724-.29368,3.53836,3.53836,0,0,1-3.43277.07466A6.94359,6.94359,0,0,0,19.779,27.605c2.33461,0,3.36987-2.44294,3.1433-3.08934-.05495-.15694-.27279-.67729-.39469-1.01364.47448.70763,1.96145.34261,1.8835-.29149Z" style="fill: #ffca28;fill-rule: evenodd"/>
      <path d="M22.99613,18.29367A6.68138,6.68138,0,0,1,24.59338,17.57q-.0162-.11592-.02379-.23291c-.44533.10931-1.28492.4781-1.76608-.03007,1.015.31389,1.52188-.27971,2.268-.27971a4.6971,4.6971,0,0,1,1.579.32843A5.26927,5.26927,0,0,0,23.29634,15.822a2.45355,2.45355,0,0,0-.3003,2.4716Z" style="fill: #e0e0e0;fill-rule: evenodd"/>
      <path d="M16.8554,23.20921a5.446,5.446,0,0,0,1.69724.29373,4.81565,4.81565,0,0,0,4.14859-3.10877A5.24561,5.24561,0,0,1,19.228,21.4053a5.42265,5.42265,0,0,0,3.54037-2.29387,3.14315,3.14315,0,0,1,.31386-3.83609,3.52267,3.52267,0,0,0-3.33361-2.40027,7.17422,7.17422,0,0,0-6.89251,7.43109q.00157.06348.00423.12691a7.38381,7.38381,0,0,0,.56244,2.85052,3.538,3.538,0,0,0,3.43269-.0746Z" style="fill: #f4511e;fill-rule: evenodd"/>
      <path d="M17.98518,16.61877A1.74029,1.74029,0,1,0,19.725,14.836h-.00006A1.76167,1.76167,0,0,0,17.98518,16.61877Z" style="fill: #ffca28;fill-rule: evenodd"/>
      <path d="M18.68346,16.61877A1.0419,1.0419,0,1,0,19.725,15.55142h0A1.05473,1.05473,0,0,0,18.68346,16.61877Z" style="fill: #5d4037;fill-rule: evenodd"/>
      <ellipse cx="19.72489" cy="16.14541" rx="0.60697" ry="0.3867" style="fill: #fff"/>
    </g>
  </g>
</svg>
