<svg xmlns="http://www.w3.org/2000/svg" viewBox="0 0 32 32">
  <path d="M13.84376,7.53645l-1.28749-1.0729A2,2,0,0,0,11.27591,6H4A2,2,0,0,0,2,8V24a2,2,0,0,0,2,2H28a2,2,0,0,0,2-2V10a2,2,0,0,0-2-2H15.12412A2,2,0,0,1,13.84376,7.53645Z" style="fill: #039be5"/>
  <g>
    <path d="M14.99963,11.99963a1,1,0,0,0-.99963,1V23.99377H10v4H22v-4H16V14H30V11.99377Z" style="fill: #b3e5fc;fill-rule: evenodd"/>
    <path d="M31,16H25a1,1,0,0,0-1,1V27a1,1,0,0,0,1,1h6a1,1,0,0,0,1-1V17A1,1,0,0,0,31,16Zm-1,8H26V18h4Z" style="fill: #b3e5fc;fill-rule: evenodd"/>
  </g>
</svg>
