<svg xmlns="http://www.w3.org/2000/svg" viewBox="0 0 16 16"><path id="folder" fill="#0288d1" d="m6.922 3.768-.644-.536A1 1 0 0 0 5.638 3H2a1 1 0 0 0-1 1v8a1 1 0 0 0 1 1h12a1 1 0 0 0 1-1V5a1 1 0 0 0-1-1H7.562a1 1 0 0 1-.64-.232"/><path id="motive" fill="#b3e5fc" d="m15.766 7.077-4.042-2.024a.5.5 0 0 0-.447 0L7.234 7.077A.5.5 0 0 0 7 7.5v5a.5.5 0 0 0 .277.448l4.023 2.005a.45.45 0 0 0 .4 0l4.024-2.005A.5.5 0 0 0 16 12.5v-5a.5.5 0 0 0-.234-.423M11 13.69l-3-1.5V8.296l3 1.444zm.5-4.82L8.635 7.49 11.5 6.06l2.865 1.433zm3.5 3.32-3 1.5V9.74l3-1.444z"/></svg>