<svg clip-rule="evenodd" stroke-linejoin="round" stroke-miterlimit="1.4142" version="1.1" viewBox="0 0 24 24" xml:space="preserve" xmlns="http://www.w3.org/2000/svg">
    <path d="M10,4L4,4C2.89,4 2,4.89 2,6L2,18C2,19.097 2.903,20 4,20L20,20C21.097,20 22,19.097 22,18L22,8C22,6.89 21.1,6 20,6L12,6L10,4Z" fill="#7C4DFF" fill-rule="nonzero"/>
    <path d="M22.564,10.443L22.564,14.91L18.655,17.144L18.655,12.747L22.564,10.443M18.237,12.747L18.237,17.144L14.328,14.91L14.328,10.443L18.237,12.747M18.237,17.633L18.237,22.1L14.328,19.866L14.328,15.399L18.237,17.633M13.909,10.234L13.909,14.701L10,12.467L10,8L13.909,10.234Z" fill="#E1BEE7" file-rule="nonzero"/>
</svg>
