<svg xmlns="http://www.w3.org/2000/svg" viewBox="0 0 32 32">
  <path d="M13.84376,7.53645l-1.28749-1.0729A2,2,0,0,0,11.27591,6H4A2,2,0,0,0,2,8V24a2,2,0,0,0,2,2H28a2,2,0,0,0,2-2V10a2,2,0,0,0-2-2H15.12412A2,2,0,0,1,13.84376,7.53645Z" style="fill: #ef5350"/>
  <g>
    <path d="M31.86956,19.91722l-1.30673-1.37834a.47655.47655,0,0,0-.691-.00093L22.716,26.07608l-3.05709-3.22917a.47651.47651,0,0,0-.34505-.14881H19.3129a.47929.47929,0,0,0-.34505.14788L17.65834,24.2234a.47654.47654,0,0,0,0,.65662l4.721,4.9721a.47655.47655,0,0,0,.691-.00093l8.79924-9.2792A.47606.47606,0,0,0,31.86956,19.91722Z" style="fill: #ffcdd2"/>
    <path d="M21.29206,23.33612a.47688.47688,0,0,0,.44828.31436H23.6795a.47606.47606,0,0,0,.44643-.64267l-4.73955-12.6981A.4769.4769,0,0,0,18.94,10H17.21563a.4769.4769,0,0,0-.44643.30971l-4.73955,12.6981a.47606.47606,0,0,0,.44643.64267h1.93916a.47753.47753,0,0,0,.44921-.31715l.92541-2.61253h4.55819ZM19.32127,17.8125H16.83245l1.24441-3.49423Z" style="fill: #ffcdd2"/>
  </g>
</svg>
