<svg viewBox="0 0 16 16" xmlns="http://www.w3.org/2000/svg">
	<path
		id="folder"
		fill="#F44336" 
		d="M14.483 6H4.721a1 1 0 0 0-.949.684L2 12V5h12a1 1 0 0 0-1-1H7.562a1 1 0 0 1-.64-.232l-.644-.536A1 1 0 0 0 5.638 3H2a1 1 0 0 0-1 1v8a1 1 0 0 0 1 1h11l2.403-5.606A1 1 0 0 0 14.483 6"
	/>
	<path
		id="motive"
		transform="translate(1,1)"
		fill="none" stroke="#FFCDD2" stroke-width="1"
		d="M 1.5,13 v -4 m 0.5,-0.5 h 2 m 0.5,0.5 v 4 m 0,-2.5 h -3
			M 9,8.5 h -2.5 v 2 h 2 v 2 h -2.5
			M 10.5,13 v -4 m 0.5,-0.5 h 1 m 0.5,0.5 v 4 m 0.5,-4.5 h 1 m 0.5,0.5 v 4"
	/>
</svg>
