<?xml version="1.0" encoding="utf-8"?>
<!-- Generator: Adobe Illustrator 24.1.3, SVG Export Plug-In . SVG Version: 6.00 Build 0)  -->
<svg version="1.1" id="Camada_1" xmlns="http://www.w3.org/2000/svg" xmlns:xlink="http://www.w3.org/1999/xlink" x="0px" y="0px"
	 viewBox="0 0 24 24" style="enable-background:new 0 0 24 24;" xml:space="preserve">
<style type="text/css">
	.st0{fill:#47848F;}
	.st1{fill-rule:evenodd;clip-rule:evenodd;fill:#95B8BC;}
</style>
<path class="st0" d="M10,4H4C2.9,4,2,4.9,2,6v12c0,1.1,0.9,2,2,2h16c1.1,0,2-0.9,2-2V8c0-1.1-0.9-2-2-2h-8L10,4z"/>
<path class="st1" d="M16,12.4c-1.4-0.3-2.6,0-3,0.8c-0.3,0.6-0.2,1.4,0.2,2.2c0,0.1,0.1,0.1,0.2,0.1c0.1,0,0.1-0.1,0.1-0.2
	c-0.4-0.8-0.5-1.4-0.2-1.9c0.4-0.7,1.4-0.9,2.7-0.7c0.1,0,0.2,0,0.2-0.1C16.2,12.5,16.1,12.4,16,12.4L16,12.4z M14,16.4
	c0.6,0.6,1.3,1.2,2.2,1.7c2.1,1.2,4.3,1.5,5.4,0.8c0.1,0,0.1-0.1,0-0.2c0-0.1-0.1-0.1-0.2,0c-1,0.7-3.1,0.4-5.1-0.8
	c-0.8-0.5-1.6-1.1-2.1-1.7c-0.1-0.1-0.1-0.1-0.2,0C13.9,16.3,13.9,16.4,14,16.4L14,16.4z M21.3,16.3c0.9-1.1,1.3-2.2,0.8-3
	c-0.3-0.6-1-0.9-2-0.9c-0.1,0-0.1,0.1-0.2,0.1c0,0.1,0.1,0.1,0.1,0.2c0.8,0,1.5,0.3,1.7,0.7c0.4,0.7,0.1,1.7-0.8,2.7
	c-0.1,0.1,0,0.2,0,0.2C21.1,16.3,21.2,16.3,21.3,16.3L21.3,16.3z M18.8,12.5c-0.9,0.2-1.8,0.5-2.6,1c-2.2,1.2-3.6,3.1-3.4,4.4
	c0,0.1,0.1,0.1,0.2,0.1c0.1,0,0.1-0.1,0.1-0.2c-0.2-1.2,1.2-2.9,3.2-4.1c0.8-0.5,1.7-0.8,2.6-1c0.1,0,0.1-0.1,0.1-0.2
	C19,12.5,18.9,12.4,18.8,12.5L18.8,12.5z"/>
<path class="st1" d="M15.3,18.9c0.5,1.4,1.3,2.2,2.2,2.2c0.7,0,1.3-0.5,1.8-1.2c0-0.1,0-0.2-0.1-0.2c-0.1,0-0.2,0-0.2,0.1
	c-0.4,0.7-1,1.1-1.5,1.1c-0.8,0-1.5-0.8-1.9-2c0-0.1-0.1-0.1-0.2-0.1C15.4,18.7,15.3,18.8,15.3,18.9z M19.9,18.6
	c0.3-0.8,0.4-1.8,0.4-2.7c0-2.5-0.9-4.6-2.1-5.1c-0.1,0-0.2,0-0.2,0.1c0,0.1,0,0.2,0.1,0.2c1.1,0.5,1.9,2.5,1.9,4.8
	c0,1-0.1,1.9-0.4,2.7c0,0.1,0,0.2,0.1,0.2C19.8,18.7,19.8,18.7,19.9,18.6L19.9,18.6z M22.6,18.4c0-0.4-0.3-0.7-0.7-0.7
	s-0.7,0.3-0.7,0.7s0.3,0.7,0.7,0.7S22.6,18.8,22.6,18.4L22.6,18.4z M22.4,18.4c0,0.2-0.2,0.4-0.4,0.4c-0.2,0-0.4-0.2-0.4-0.4
	c0-0.2,0.2-0.4,0.4-0.4C22.2,18,22.4,18.2,22.4,18.4z"/>
<path class="st1" d="M13.2,19.2c0.4,0,0.7-0.3,0.7-0.7s-0.3-0.7-0.7-0.7c-0.4,0-0.7,0.3-0.7,0.7S12.8,19.2,13.2,19.2L13.2,19.2z
	 M13.2,18.9c-0.2,0-0.4-0.2-0.4-0.4c0-0.2,0.2-0.4,0.4-0.4c0.2,0,0.4,0.2,0.4,0.4C13.6,18.7,13.4,18.9,13.2,18.9z M17.6,11.5
	c0.4,0,0.7-0.3,0.7-0.7S17.9,10,17.6,10s-0.7,0.3-0.7,0.7C16.8,11.1,17.2,11.5,17.6,11.5z M17.6,11.2c-0.2,0-0.4-0.2-0.4-0.4
	c0-0.2,0.2-0.4,0.4-0.4c0.2,0,0.4,0.2,0.4,0.4C18,11,17.8,11.2,17.6,11.2z M17.7,16.3c-0.3,0.1-0.6-0.1-0.6-0.4
	c-0.1-0.3,0.1-0.6,0.4-0.6c0,0,0,0,0,0c0.3-0.1,0.6,0.1,0.6,0.4C18.1,16,17.9,16.3,17.7,16.3C17.7,16.3,17.7,16.3,17.7,16.3z"/>
</svg>
