<?xml version="1.0" encoding="UTF-8" standalone="no"?>
<svg
   version="1.1"
   width="24"
   height="24"
   viewBox="0 0 24 24"
   id="svg243"
   sodipodi:docname="folder-open.svg"
   inkscape:version="1.1.2 (0a00cf5339, 2022-02-04, custom)"
   xmlns:inkscape="http://www.inkscape.org/namespaces/inkscape"
   xmlns:sodipodi="http://sodipodi.sourceforge.net/DTD/sodipodi-0.dtd"
   xmlns="http://www.w3.org/2000/svg"
   xmlns:svg="http://www.w3.org/2000/svg">
  <defs
     id="defs247" />
  <sodipodi:namedview
     id="namedview245"
     pagecolor="#505050"
     bordercolor="#eeeeee"
     borderopacity="1"
     inkscape:pageshadow="0"
     inkscape:pageopacity="0"
     inkscape:pagecheckerboard="0"
     showgrid="false"
     inkscape:snap-global="false"
     inkscape:zoom="29.5"
     inkscape:cx="12.016949"
     inkscape:cy="10.610169"
     inkscape:window-width="1280"
     inkscape:window-height="1011"
     inkscape:window-x="0"
     inkscape:window-y="32"
     inkscape:window-maximized="0"
     inkscape:current-layer="svg243" />
  <path
     d="M19,20H4C2.89,20 2,19.1 2,18V6C2,4.89 2.89,4 4,4H10L12,6H19A2,2 0 0,1 21,8H21L4,8V18L6.14,10H23.21L20.93,18.5C20.7,19.37 19.92,20 19,20Z"
     id="path241"
     style="fill:#00897b;fill-opacity:1" />
  <path
     d="m 13.499424,14.035714 c 0,-1.00935 0.820453,-1.829815 1.828433,-1.829815 1.009062,0 1.829668,0.820465 1.829668,1.829815 a 0.66399862,0.66388319 0 0 1 -0.663689,0.66481 0.66399862,0.66388319 0 0 1 -0.66369,-0.66481 0.50136149,0.5012743 0 0 0 -0.502136,-0.500039 0.50120688,0.50111976 0 0 0 -0.501051,0.500039 c 0,0.367725 -0.296982,0.66481 -0.663691,0.66481 -0.366707,0 -0.66369,-0.297085 -0.66369,-0.66481 m 7.575153,3.074575 A 0.66384403,0.66372862 0 0 1 20.411042,17.7751 h -6.158105 a 0.66384403,0.66372862 0 0 1 -0.663691,-0.664811 0.66399862,0.66388319 0 0 1 0.663691,-0.664966 h 6.158105 a 0.66399862,0.66388319 0 0 1 0.663689,0.664966 m -2.877689,-2.70206 a 0.66415322,0.66403775 0 0 1 0.179333,-0.922016 l 1.539336,-1.0398 c 0.301775,-0.209752 0.716715,-0.124895 0.921866,0.176984 a 0.66415322,0.66403775 0 0 1 -0.179333,0.922016 l -1.539332,1.039646 a 0.65286756,0.65275407 0 0 1 -0.370263,0.115625 0.66786357,0.66774747 0 0 1 -0.551607,-0.29245 m 4.21558,4.088099 c 0,0.12551 -0.04993,0.245924 -0.13883,0.334955 l -1.144025,1.144292 a 0.47415222,0.47406977 0 0 1 -0.335168,0.138649 h -7.015044 c -0.125687,0 -0.246119,-0.04992 -0.335012,-0.138649 l -1.144027,-1.144296 a 0.47415222,0.47406977 0 0 1 -0.13883,-0.334955 V 11.48498 c 0,-0.125822 0.04993,-0.246231 0.138676,-0.334956 l 1.144181,-1.144444 a 0.47399761,0.47391521 0 0 1 0.335012,-0.1386489 h 7.015199 c 0.125843,0 0.246275,0.04992 0.335013,0.1386489 l 1.144181,1.144444 a 0.47337923,0.47329692 0 0 1 0.138829,0.334956 z M 23.386436,10.384589 21.892553,8.8906585 A 1.2071015,1.2068918 0 0 0 21.039174,8.537 h -7.505429 a 1.206947,1.2067371 0 0 0 -0.85369,0.3539678 L 11.187256,10.384742 A 1.2074107,1.2072009 0 0 0 10.834,11.238131 v 7.504739 c 0,0.32027 0.127233,0.627558 0.353564,0.853696 l 1.493728,1.493929 A 1.2067923,1.2065825 0 0 0 13.534827,21.444 h 7.504191 c 0.320021,0 0.627206,-0.127211 0.853535,-0.353505 l 1.493883,-1.493929 A 1.2071015,1.2068918 0 0 0 23.74,18.74287 v -7.504431 a 1.2075654,1.2073553 0 0 0 -0.353564,-0.85385"
     style="fill:#00bfa5;stroke-width:0.154583"
     id="path273" />
</svg>
