<svg xmlns="http://www.w3.org/2000/svg" viewBox="0 0 16 16">
<path id="folder" fill="#0097a7" d="m6.922 3.768-.644-.536A1 1 0 0 0 5.638 3H2a1 1 0 0 0-1 1v8a1 1 0 0 0 1 1h12a1 1 0 0 0 1-1V5a1 1 0 0 0-1-1H7.562a1 1 0 0 1-.64-.232" />
<path id="motive" fill="#b2ebf2" d="m 15.69993,6.8457806 a 1.649985,1.649985 0 0 0 -1.434487,-0.845493 c -0.548495,-0.011 -0.998991,0.295998 -0.913992,0.497996 a 2.9999727,2.9999727 0 0 0 0.184498,0.362997 c 0.0915,0.134498 0.254998,0.0305 0.311997,0 a 0.91999164,0.91999164 0 0 1 0.561995,-0.097 0.83999237,0.83999237 0 0 1 0.637995,0.489996 c 0.415996,0.808993 -0.867993,2.472478 -2.474978,1.320488 A 4.1699621,4.1699621 0 0 0 8.6959935,8.0362696 c -0.706993,0.232498 -1.03249,0.465996 -0.752493,1.005991 a 10.499905,10.499905 0 0 0 0.621494,1.1159904 C 9.1499895,11.123242 10.431478,9.7142546 10.431478,9.7142546 9.4774865,11.137242 8.6594945,10.793745 8.3454965,10.296249 A 7.9999273,7.9999273 0 0 1 7.8435015,9.3312576 C 5.4270235,10.19275 6.0805175,13.999716 6.0805175,13.999716 h 1.199989 c 0.305497,-1.401488 1.399987,-1.349488 1.586986,0 h 0.915491 c 0.8104925,-2.737475 2.8634735,0 2.8634735,0 h 1.19349 C 13.50495,12.133733 14.51094,11.546238 15.144935,10.452248 15.778929,9.3572576 16.379423,8.0182696 15.69993,6.8457806 M 12.620958,10.450748 A 0.63999418,0.63999418 0 0 1 12.198461,9.6562546 q 0.0075,-0.025 0.017,-0.0495 c 0,0 0.551495,0.179998 1.296489,0.4259964 a 0.7149935,0.7149935 0 0 1 -0.890992,0.417996" />
</svg>
