<svg xmlns="http://www.w3.org/2000/svg" clip-rule="evenodd" fill-rule="evenodd" stroke-linejoin="round" stroke-miterlimit="1.414" viewBox="0 0 24 24"><path d="M10 4H4c-1.11 0-2 .89-2 2v12c0 1.097.903 2 2 2h16c1.097 0 2-.903 2-2V8a2 2 0 00-2-2h-8l-2-2z" fill-rule="nonzero" fill="#212121"/><path d="M23.025 17.37a6.118 5.84 0 01-6.114 5.84 6.118 5.84 0 01-6.122-5.833 6.118 5.84 0 016.107-5.847 6.118 5.84 0 016.129 5.826" fill="#fff"/><path d="M15.98 8.689c-.032.003-.132.013-.222.02-2.079.187-4.026 1.309-5.259 3.032a7.243 7.243 0 00-1.291 3.197c-.059.402-.066.521-.066 1.066s.007.664.066 1.066a7.347 7.347 0 005.005 5.912c.475.153.975.257 1.545.32.221.024 1.18.024 1.401 0 .983-.109 1.816-.352 2.637-.771.126-.064.15-.082.133-.096-.012-.008-.548-.728-1.192-1.598l-1.17-1.58-1.466-2.17a208.442 208.442 0 00-1.476-2.169c-.006-.001-.012.963-.015 2.14-.004 2.061-.005 2.144-.031 2.193a.26.26 0 01-.126.13c-.046.023-.086.027-.302.027h-.247l-.066-.041a.267.267 0 01-.096-.104l-.03-.065.003-2.868.004-2.87.045-.055a.392.392 0 01.106-.087c.058-.029.081-.032.328-.032.292 0 .34.012.417.095.021.023.815 1.218 1.765 2.659l2.886 4.373 1.16 1.755.058-.039a7.511 7.511 0 001.503-1.319 7.284 7.284 0 001.722-3.74c.059-.402.066-.521.066-1.066s-.007-.664-.066-1.066a7.347 7.347 0 00-5.005-5.911 7.682 7.682 0 00-1.523-.32 18.91 18.91 0 00-1.202-.018zm2.995 4.426c.068.034.124.1.144.168.012.038.014.833.012 2.625l-.005 2.572-.453-.695-.455-.695v-1.87c0-1.209.006-1.888.014-1.92a.292.292 0 01.142-.181c.059-.03.08-.033.305-.033.211 0 .248.003.296.029z"/><path d="M20.354 22.2c-.05.03-.066.052-.022.028.032-.019.083-.057.074-.059a.294.294 0 00-.052.03zm-.1.064c-.025.02-.025.021.007.005.017-.008.031-.018.031-.021 0-.012-.007-.009-.037.016zm-.07.042c-.026.02-.026.022.005.006.017-.008.032-.018.032-.021 0-.012-.008-.009-.038.015zm-.072.043c-.026.02-.026.022.006.006.017-.009.031-.019.031-.021 0-.012-.007-.009-.037.015zm-.109.058c-.054.028-.051.04.003.012a.149.149 0 00.043-.028c0-.01-.002-.009-.046.016z"/></svg>