<svg xmlns="http://www.w3.org/2000/svg" viewBox="0 0 32 32">
  <path d="M13.84376,7.53645l-1.28749-1.0729A2,2,0,0,0,11.27591,6H4A2,2,0,0,0,2,8V24a2,2,0,0,0,2,2H28a2,2,0,0,0,2-2V10a2,2,0,0,0-2-2H15.12412A2,2,0,0,1,13.84376,7.53645Z" style="fill: #f9a825"/>
  <path d="M24.6197,16.35088c-.41993.28-1.74972,1.03978-1.94976,1.1898a.82458.82458,0,0,1-1.13975-.01c-.2-.16-1.52983-.91977-1.94974-1.1898-.47994-.30985-.44994-.69973.08-.91959a6.16362,6.16362,0,0,1,4.90922.02984C25.05963,15.66115,25.07963,16.051,24.6197,16.35088ZM31.83841,23.629a19.08879,19.08879,0,0,0-3.83933-5.6584A4.31014,4.31014,0,0,1,26.93919,16.091c-.09986-.32987-.16987-.66974-.23989-1.00977a11.32049,11.32049,0,0,0-.69981-2.60926A4.06435,4.06435,0,0,0,22.16,10.00275,4.20289,4.20289,0,0,0,18.21081,12.402a5.89244,5.89244,0,0,0-.45994,1.33963c-.17.75992-.32007,1.54966-.49993,2.31941a3.3801,3.3801,0,0,1-.95988,1.7095,19.53138,19.53138,0,0,0-3.87934,5.34853,6.06361,6.06361,0,0,0-.3699.87976c-.19.65973.28988,1.11961.98971.95976.43992-.09.87985-.18,1.29978-.31.40991-.14985.57-.05.67.35a6.72974,6.72974,0,0,0,4.23925,4.49861c4.11939,1.55966,8.92859-.65973,9.96832-4.57862.07-.27.17-.36988.46993-.27.45994.14.92988.24,1.3998.35a.72415.72415,0,0,0,.91988-.63989A1.44141,1.44141,0,0,0,31.83841,23.629Z" style="fill: #ffecb3"/>
</svg>
