<?xml version="1.0" encoding="UTF-8"?>
<svg xmlns="http://www.w3.org/2000/svg" xmlns:xlink="http://www.w3.org/1999/xlink" width="24pt" height="24pt" viewBox="0 0 24 24" version="1.1">
<g id="surface1">
<path style=" stroke:none;fill-rule:nonzero;fill:rgb(0%,74.901961%,64.705882%);fill-opacity:1;" d="M 13.851562 19.113281 L 13.851562 18.164062 L 12.65625 18.164062 L 12.65625 16.21875 L 16.429688 16.21875 L 16.429688 18.136719 L 16.378906 18.148438 C 16.347656 18.15625 16.074219 18.164062 15.769531 18.164062 L 15.210938 18.164062 L 15.210938 19.113281 C 15.210938 19.941406 15.207031 20.0625 15.175781 20.0625 C 15.15625 20.0625 15.140625 20.046875 15.140625 20.027344 C 15.140625 19.996094 15.054688 19.992188 14.53125 19.992188 C 14.007812 19.992188 13.921875 19.996094 13.921875 20.027344 C 13.921875 20.046875 13.90625 20.0625 13.886719 20.0625 C 13.855469 20.0625 13.851562 19.941406 13.851562 19.113281 Z M 13.851562 19.113281 "/>
<path style=" stroke:none;fill-rule:nonzero;fill:rgb(0%,74.901961%,64.705882%);fill-opacity:1;" d="M 18.703125 19.113281 L 18.703125 18.164062 L 17.507812 18.164062 L 17.507812 16.21875 L 21.28125 16.21875 L 21.28125 16.875 C 21.28125 17.429688 21.277344 17.53125 21.25 17.53125 C 21.230469 17.53125 21.210938 17.511719 21.207031 17.492188 C 21.203125 17.46875 21.160156 17.597656 21.109375 17.777344 C 21.0625 17.964844 21.035156 18.109375 21.046875 18.113281 C 21.0625 18.117188 21.070312 18.132812 21.070312 18.144531 C 21.070312 18.15625 20.855469 18.164062 20.566406 18.164062 L 20.0625 18.164062 L 20.0625 18.972656 C 20.0625 19.445312 20.054688 19.78125 20.042969 19.78125 C 20.03125 19.78125 20.015625 19.769531 20.011719 19.753906 C 20.003906 19.730469 19.949219 19.75 19.832031 19.800781 C 19.566406 19.917969 19.351562 19.96875 19.050781 19.984375 C 18.839844 19.996094 18.773438 20.007812 18.773438 20.03125 C 18.773438 20.046875 18.757812 20.0625 18.738281 20.0625 C 18.707031 20.0625 18.703125 19.941406 18.703125 19.113281 Z M 18.703125 19.113281 "/>
<path style=" stroke:none;fill-rule:nonzero;fill:rgb(0%,74.901961%,64.705882%);fill-opacity:1;" d="M 10.3125 20.015625 C 10.3125 20 9.222656 19.992188 7.09375 19.992188 C 4.316406 19.992188 3.847656 19.988281 3.667969 19.957031 C 3.023438 19.84375 2.5 19.449219 2.214844 18.859375 C 2.007812 18.425781 2.027344 19.152344 2.027344 12 L 2.027344 5.660156 L 2.082031 5.476562 C 2.195312 5.082031 2.453125 4.691406 2.75 4.457031 C 2.933594 4.304688 3.265625 4.140625 3.503906 4.070312 L 3.691406 4.019531 L 6.84375 4.011719 L 9.996094 4.007812 L 11.988281 6 L 15.46875 6 C 17.492188 6 19.046875 6.011719 19.179688 6.023438 C 19.648438 6.070312 20.066406 6.265625 20.398438 6.601562 C 20.730469 6.929688 20.945312 7.378906 20.972656 7.800781 L 20.984375 7.992188 L 3.984375 7.992188 L 3.984375 13 C 3.984375 15.753906 3.992188 18 4.003906 17.988281 C 4.015625 17.972656 4.503906 16.175781 5.089844 13.988281 L 6.148438 10.007812 L 10.644531 10.007812 C 14.625 10.007812 15.140625 10.003906 15.140625 9.972656 C 15.140625 9.953125 15.15625 9.9375 15.175781 9.9375 C 15.207031 9.9375 15.210938 10.132812 15.210938 11.566406 L 15.210938 13.195312 L 16.429688 13.195312 L 16.425781 14.164062 L 16.417969 15.128906 L 14.484375 15.140625 C 12.984375 15.152344 12.53125 15.160156 12.457031 15.183594 C 12.039062 15.320312 11.722656 15.648438 11.613281 16.058594 C 11.585938 16.15625 11.578125 16.390625 11.578125 17.164062 C 11.578125 17.699219 11.574219 18.144531 11.574219 18.144531 C 11.570312 18.148438 11.296875 18.15625 10.96875 18.164062 L 10.371094 18.175781 L 10.363281 19.109375 C 10.363281 19.703125 10.351562 20.039062 10.335938 20.039062 C 10.320312 20.039062 10.3125 20.03125 10.3125 20.015625 Z M 10.3125 20.015625 "/>
<path style=" stroke:none;fill-rule:nonzero;fill:rgb(0%,74.901961%,64.705882%);fill-opacity:1;" d="M 21.667969 15.273438 C 21.640625 15.253906 21.5625 15.21875 21.492188 15.195312 C 21.371094 15.15625 21.230469 15.152344 19.4375 15.144531 L 17.507812 15.136719 L 17.507812 13.195312 L 18.703125 13.195312 L 18.703125 11.566406 C 18.703125 10.132812 18.707031 9.9375 18.738281 9.9375 C 18.757812 9.9375 18.773438 9.953125 18.773438 9.972656 C 18.773438 10.003906 19.039062 10.007812 20.984375 10.011719 L 23.191406 10.019531 L 22.492188 12.632812 C 22.039062 14.3125 21.800781 15.25 21.816406 15.253906 C 21.832031 15.257812 21.84375 15.273438 21.84375 15.285156 C 21.84375 15.316406 21.71875 15.308594 21.667969 15.273438 Z M 21.667969 15.273438 "/>
<path style=" stroke:none;fill-rule:nonzero;fill:rgb(65.490196%,100%,92.156863%);fill-opacity:1;" d="M 10.300781 19.988281 C 10.292969 19.027344 10.285156 18.214844 10.292969 18.175781 L 10.300781 18.105469 L 10.898438 18.09375 C 11.226562 18.085938 11.5 18.078125 11.503906 18.074219 C 11.503906 18.074219 11.507812 17.628906 11.507812 17.09375 C 11.507812 16.320312 11.515625 16.085938 11.542969 15.988281 C 11.652344 15.578125 11.96875 15.25 12.386719 15.113281 C 12.460938 15.089844 12.914062 15.082031 14.414062 15.070312 L 16.347656 15.058594 L 16.355469 14.164062 L 16.359375 13.265625 L 15.140625 13.265625 L 15.140625 9.632812 L 18.773438 9.632812 L 18.773438 13.265625 L 17.578125 13.265625 L 17.578125 15.066406 L 19.507812 15.074219 C 21.699219 15.085938 21.546875 15.070312 21.863281 15.289062 C 22.148438 15.484375 22.335938 15.777344 22.382812 16.097656 C 22.394531 16.183594 22.40625 16.671875 22.40625 17.1875 L 22.40625 18.117188 L 23.625 18.117188 L 23.625 21.726562 L 20.003906 21.726562 L 19.996094 19.90625 L 19.988281 18.089844 L 20.597656 18.097656 L 21.210938 18.109375 L 21.210938 16.289062 L 17.578125 16.289062 L 17.578125 18.09375 L 18.773438 18.09375 L 18.773438 21.726562 L 15.140625 21.726562 L 15.140625 18.09375 L 15.699219 18.09375 C 16.003906 18.09375 16.277344 18.085938 16.308594 18.078125 L 16.359375 18.066406 L 16.359375 16.289062 L 12.726562 16.289062 L 12.726562 18.09375 L 13.921875 18.09375 L 13.921875 21.726562 L 10.316406 21.726562 Z M 10.300781 19.988281 "/>
</g>
</svg>
