<svg xmlns="http://www.w3.org/2000/svg" viewBox="0 0 32 32"><path fill="#f44336" d="m13.844 7.536-1.288-1.072A2 2 0 0 0 11.276 6H4a2 2 0 0 0-2 2v16a2 2 0 0 0 2 2h24a2 2 0 0 0 2-2V10a2 2 0 0 0-2-2H15.124a2 2 0 0 1-1.28-.464"/><path fill="#ffcdd2" d="M23 12a7 3 0 0 0-7 3 7 3 0 0 0 7 3 7 3 0 0 0 7-3 7 3 0 0 0-7-3m7 5c-.222.2-.438.417-.703.582-.84.466-1.767.724-2.701.957-1.639.41-3.069.673-5.645 1.363-1.232.33-3.29 1.07-4.305 2.494-.686.961-.644 2.116-.646 2.604.438-.29.91-.82 3.26-1.51a61 61 0 0 1 3.146-.777c.785-.175 1.57-.329 2.354-.516 2.854-.697 3.632-1.07 4.326-1.539.608-.413.916-.91.914-1.658 0 0-.024-1.342 0-2m0 4.453c-1.39.78-2.246 1.215-4.326 1.682-1.767.4-3.53.81-5.295 1.22-1.188.282-3.556.975-4.18 2.145-.287.536-.296 1.164.168 1.643.05.05.56.524.738.586 0 0 .218-.106.836-.393 1.16-.536 2.397-.858 3.64-1.162 1.825-.425 3.66-.818 5.45-1.383.819-.252 1.605-.582 2.26-1.13C29.755 24.271 30 24 30 23zm0 4.147s-.505.507-2.014 1.076c-3.774 1.303-5.957 1.324-8.96 2.474-.15.058-.388.147-.532.211.124.05.717.236.711.229.96.243 2.365.416 3.795.41.534-.013 4.287.128 6.164-1.39.384-.34.833-.61.836-1.61z"/></svg>