<svg xmlns="http://www.w3.org/2000/svg" viewBox="0 0 16 16"><path id="folder" fill="#009688" d="m6.922 3.768-.644-.536A1 1 0 0 0 5.638 3H2a1 1 0 0 0-1 1v8a1 1 0 0 0 1 1h12a1 1 0 0 0 1-1V5a1 1 0 0 0-1-1H7.562a1 1 0 0 1-.64-.232"/><path id="motive" fill="#b2dfdb" d="M11.5 5A4.497 4.497 0 0 0 7 9.495V9.5a4.497 4.497 0 0 0 4.494 4.5h.006A4.497 4.497 0 0 0 16 9.506V9.5A4.51 4.51 0 0 0 11.5 5m-2.111 5.466a.7.7 0 0 0 .62.278 1 1 0 0 0 .378-.066 3 3 0 0 0 .409-.213l.458.655a1.95 1.95 0 0 1-1.293.458 2 2 0 0 1-1.014-.245 1.65 1.65 0 0 1-.655-.72 2.5 2.5 0 0 1-.228-1.097 2.6 2.6 0 0 1 .228-1.096 1.73 1.73 0 0 1 .656-.752 1.8 1.8 0 0 1 .998-.262 1.9 1.9 0 0 1 .703.115 2.1 2.1 0 0 1 .605.36l-.457.621a1.8 1.8 0 0 0-.377-.213 1 1 0 0 0-.393-.066c-.556 0-.834.426-.834 1.293a1.6 1.6 0 0 0 .196.949Zm4.5 1.015a2.35 2.35 0 0 1-.753 1.161 2.45 2.45 0 0 1-1.375.475l-.114-.769a1.9 1.9 0 0 0 .835-.263 2 2 0 0 0 .196-.195L11.32 7.537h1.128l.786 3.256.835-3.256h1.097z"/></svg>