<svg viewBox="0 0 24 24" xmlns="http://www.w3.org/2000/svg"><path d="M19 20H4a2 2 0 0 1-2-2V6c0-1.11.89-2 2-2h6l2 2h7c1.097 0 2 .903 2 2H4v10l2.14-8h17.07l-2.28 8.5c-.23.87-1.01 1.5-1.93 1.5z" fill="#fbc02d" /><path stroke="null" fill="#fff9c4" d="m21.64772,18.70831l-11.60804,0l0,-8.00005l11.60804,0m0,-1.33334l-11.60804,0a1.28978,1.33334 0 0 0 -1.28978,1.33334l0,8.00005a1.28978,1.33334 0 0 0 1.28978,1.33334l3.22445,0l0,1.33334l5.15913,0l0,-1.33334l3.22445,0a1.28978,1.33334 0 0 0 1.28978,-1.33334l0,-8.00005a1.28978,1.33334 0 0 0 -1.28978,-1.33334z"/></svg>