<svg xmlns="http://www.w3.org/2000/svg" viewBox="0 0 32 32"><path fill="#ef5350" d="m13.844 7.536-1.288-1.072A2 2 0 0 0 11.276 6H4a2 2 0 0 0-2 2v16a2 2 0 0 0 2 2h24a2 2 0 0 0 2-2V10a2 2 0 0 0-2-2H15.124a2 2 0 0 1-1.28-.464Z"/><path fill="#ffcdd2" stroke="#ffcdd2" stroke-linejoin="round" stroke-width=".293" d="M25.948 24.114a1.653 1.653 0 0 0 .97-.6 1.792 1.792 0 0 0 .381-1.274 1.721 1.721 0 0 0-1.69-1.596h-.06a1.724 1.724 0 0 0-1.61 1.814 1.853 1.853 0 0 0 .34.985 8.847 8.847 0 0 1-3.863 3.799 6.146 6.146 0 0 1-3.876.771 3.13 3.13 0 0 1-2.32-1.411 3.668 3.668 0 0 1-.18-3.738 5.816 5.816 0 0 1 1.605-1.986.298.298 0 0 0 .098-.313 14.07 14.07 0 0 1-.315-1.298.289.289 0 0 0-.172-.213.278.278 0 0 0-.272.036c-3.731 2.836-3.326 6.763-2.188 8.579a5.357 5.357 0 0 0 4.294 2.229c.082 0 .164-.001.24-.005h.04a6.03 6.03 0 0 0 1.5-.188 9.884 9.884 0 0 0 7.078-5.591Z"/><path fill="#ffcdd2" stroke="#ffcdd2" stroke-linejoin="round" stroke-width=".293" d="M30.327 20.428a10.123 10.123 0 0 0-7.774-3.69c-.088 0-.177.001-.265.003h-.234a1.608 1.608 0 0 0-1.377-.78h-.053a1.622 1.622 0 0 0-1.175.535 1.806 1.806 0 0 0 .039 2.466 1.665 1.665 0 0 0 1.19.494h.064a1.677 1.677 0 0 0 1.375-.886h.27a8.833 8.833 0 0 1 5.126 1.646 6.61 6.61 0 0 1 2.522 3.202 3.475 3.475 0 0 1-.046 2.831 3.39 3.39 0 0 1-3.137 1.97 5.792 5.792 0 0 1-2.32-.522.272.272 0 0 0-.304.054 14.4 14.4 0 0 1-1.088.912.294.294 0 0 0 .039.495 7.685 7.685 0 0 0 3.313.84l.192.002a5.658 5.658 0 0 0 4.886-2.948 6.393 6.393 0 0 0-1.243-6.624Z"/><path fill="#ffcdd2" stroke="#ffcdd2" stroke-linejoin="round" stroke-width=".293" d="m17.249 24.295.123-.01-.123.02a1.705 1.705 0 0 0 1.67 1.682h.053a1.715 1.715 0 0 0 1.64-1.778 1.776 1.776 0 0 0-.507-1.224 1.612 1.612 0 0 0-1.187-.493h-.076a9.577 9.577 0 0 1-1.154-5.448 6.834 6.834 0 0 1 1.39-3.853 3.967 3.967 0 0 1 2.842-1.363h.055c2.438 0 3.415 3.34 3.477 4.491a.288.288 0 0 0 .216.265c.299.073.822.246 1.213.384a.274.274 0 0 0 .266-.048.292.292 0 0 0 .105-.247C26.928 12.088 24.204 10 21.804 10a5.958 5.958 0 0 0-5.36 4.39 11.38 11.38 0 0 0 .936 9.155 1.517 1.517 0 0 0-.131.75Z"/></svg>