<svg xmlns="http://www.w3.org/2000/svg" viewBox="0 0 32 32">
  <path d="M28.96692,12H9.44152a2,2,0,0,0-1.89737,1.36754L4,24V10H28a2,2,0,0,0-2-2H15.1241a2,2,0,0,1-1.28038-.46357L12.5563,6.46357A2,2,0,0,0,11.27592,6H4A2,2,0,0,0,2,8V24a2,2,0,0,0,2,2H26l4.80523-11.21213A2,2,0,0,0,28.96692,12Z" style="fill: #1e88e5"/>
  <path d="M27.35392,20.87148,32,25.34312l-2.74051,2.62424-4.61241-4.47164v-.73636l1.94731-1.88788h.75953m.75146-2.02366-.80128-.76769-3.95253,3.83843v1.57716L18.7055,28,16,25.34313l4.61241-4.47165h1.62545l.64372-.62407-3.16876-3.07989h-1.072l-2.319-2.27172,2.16143-2.09547,2.31092,2.23908V16.0878l3.20916,3.072,2.1951-2.12811-.79186-.80816,1.072-1.04839h-2.1951l-.536-.51962L26.47858,12l.54541.52746v2.12811l1.08139-1.05622,2.70684,2.62423a2.2183,2.2183,0,0,1,0,3.18434l-1.6268-1.60849Z" style="fill: #bbdefb;fill-rule: evenodd"/>
</svg>
