<svg xmlns="http://www.w3.org/2000/svg" viewBox="0 0 16 16">
<path id="folder" fill="#7e57c2" d="M14.483 6H4.721a1 1 0 0 0-.949.684L2 12V5h12a1 1 0 0 0-1-1H7.562a1 1 0 0 1-.64-.232l-.644-.536A1 1 0 0 0 5.638 3H2a1 1 0 0 0-1 1v8a1 1 0 0 0 1 1h11l2.403-5.606A1 1 0 0 0 14.483 6" />
<path id="motive" fill="#d1c4e9" d="M 12.5,5 C 11.67156,5 11,5.67156 11,6.5 c 0.002,0.63427 0.40202,1.19895 1,1.41037 V 12 c 0,0.55228 -0.44772,1 -1,1 -0.55228,0 -1,-0.44772 -1,-1 v -1 h 1 L 9,9 v 3 c 0,1.10456 0.89544,2 2,2 1.10456,0 2,-0.89544 2,-2 V 7.91037 C 13.59798,7.69895 13.99837,7.13427 14,6.5 14,5.67156 13.32844,5 12.5,5 m 0,1 C 12.77614,6 13,6.22386 13,6.5 13,6.77614 12.77614,7 12.5,7 12.22386,7 12,6.77614 12,6.5 12,6.22386 12.22386,6 12.5,6" />
</svg>
