<svg width="137" height="137" viewBox="0 0 137 137" fill="none" xmlns="http://www.w3.org/2000/svg">
<path d="M108.379 114.083H22.8167C19.791 114.083 16.8892 112.881 14.7497 110.742C12.6103 108.602 11.4083 105.701 11.4083 102.675V34.225C11.4083 27.8934 16.485 22.8167 22.8167 22.8167H57.0417L68.45 34.225H108.379C114.637 34.225 119.787 39.3759 119.787 45.6333H22.8167V102.675L35.0236 57.0417H132.394L119.388 105.527C118.076 110.49 113.627 114.083 108.379 114.083Z" fill="#03A9F4"/>
<rect x="65" y="49" width="32" height="32" fill="#5CD8FF"/>
<rect x="103" y="49" width="32" height="32" fill="#5CD8FF"/>
<rect x="65" y="87" width="32" height="32" fill="#5CD8FF"/>
<rect x="103" y="87" width="32" height="32" fill="#5CD8FF"/>
</svg>
