<svg xmlns="http://www.w3.org/2000/svg" viewBox="0 0 32 32">
  <path d="M13.84376,7.53645l-1.28749-1.0729A2,2,0,0,0,11.27591,6H4A2,2,0,0,0,2,8V24a2,2,0,0,0,2,2H28a2,2,0,0,0,2-2V10a2,2,0,0,0-2-2H15.12412A2,2,0,0,1,13.84376,7.53645Z" style="fill: #ab47bc"/>
  <path d="M23.66092,30a7.805,7.805,0,0,1-3.73834-.92872,7.05935,7.05935,0,0,1-2.809-2.78464,9.21648,9.21648,0,0,1-1.06994-4.65481,18.31841,18.31841,0,0,1,.86234-5.87405,12.57356,12.57356,0,0,1,2.349-4.26646,10.12783,10.12783,0,0,1,3.39188-2.60473A9.26611,9.26611,0,0,1,26.6072,8a5.22327,5.22327,0,0,1,4.10091,1.45478A5.64146,5.64146,0,0,1,32,13.34722a5.375,5.375,0,0,1-.06869.83163q-.06946.44287-.15332.91441l-1.61126,7.96887H27.85919l-.02873-1.00549h-.11018c-.46469.25879-.95976.66546-1.48833.96075a3.95772,3.95772,0,0,1-1.95943.44327,3.02931,3.02931,0,0,1-2.09828-.81732,2.78456,2.78456,0,0,1-.90389-2.175,4.33813,4.33813,0,0,1,1.8764-3.78178A12.9883,12.9883,0,0,1,29.05366,14.927a5.82749,5.82749,0,0,0,.1677-1.21921,3.93816,3.93816,0,0,0-.61159-2.25858,2.70856,2.70856,0,0,0-2.39057-.90009,4.88289,4.88289,0,0,0-2.41937.69238,7.6813,7.6813,0,0,0-2.266,2.05084,10.92287,10.92287,0,0,0-1.68154,3.36637A15.31511,15.31511,0,0,0,19.21355,21.3a7.046,7.046,0,0,0,.72178,3.36637A4.97985,4.97985,0,0,0,21.79892,26.675a4.67216,4.67216,0,0,0,2.39057.66452,4.439,4.439,0,0,0,1.6672-.29047,6.19461,6.19461,0,0,0,1.41806-.81732l1.27907,2.27211A7.25684,7.25684,0,0,1,26.34371,29.626,9.06417,9.06417,0,0,1,23.66092,30Zm2.01747-9.05588a2.83919,2.83919,0,0,0,1.0404-.20981,4.7761,4.7761,0,0,0,1.03878-.57395l.56133-2.74277a6.79136,6.79136,0,0,0-2.99053.95177,1.86982,1.86982,0,0,0-.77263,1.51125,1.00208,1.00208,0,0,0,.3097.78376A1.16363,1.16363,0,0,0,25.67839,20.94412Z" style="fill: #e1bee7"/>
</svg>
