<svg xmlns="http://www.w3.org/2000/svg" viewBox="0 0 16 16"><path id="folder" fill="#689f38" d="m6.922 3.768-.644-.536A1 1 0 0 0 5.638 3H2a1 1 0 0 0-1 1v8a1 1 0 0 0 1 1h12a1 1 0 0 0 1-1V5a1 1 0 0 0-1-1H7.562a1 1 0 0 1-.64-.232"/><path id="motive" fill="#dcedc8" d="M12 7v2h.75a.25.25 0 0 1 .25.25v2.5a.25.25 0 0 1-.25.25h-2.5a.25.25 0 0 1-.25-.25v-2.5a.25.25 0 0 1 .25-.25H11V7H6a1 1 0 0 0-1 1v2a1 1 0 0 0 1 1h1.601l.15 1A2.275 2.275 0 0 0 10 14h3a2.275 2.275 0 0 0 2.249-2L16 7Zm-6 3V8h1.15l.301 2z"/></svg>