<?xml version="1.0" encoding="utf-8"?>
<svg xmlns="http://www.w3.org/2000/svg" viewBox="0 0 32 32">
    <g>
        <path
            d="M 13.914 7.553 L 12.626 6.481 C 12.267 6.181 11.814 6.017 11.346 6.017 L 4.07 6.017 C 2.966 6.017 2.07 6.912 2.07 8.017 L 2.07 24.017 C 2.07 25.121 2.966 26.017 4.07 26.017 L 28.07 26.017 C 29.175 26.017 30.07 25.121 30.07 24.017 L 30.07 10.017 C 30.07 8.912 29.175 8.017 28.07 8.017 L 15.194 8.017 C 14.726 8.016 14.273 7.852 13.914 7.553"
            style="stroke-width: 1; fill: rgb(171, 71, 188);" id="object-0" />
        <path
            d="M 24.477 27.961 L 23.183 24.922 C 24.43 24.461 25.595 23.842 26.675 23.12 L 24.477 27.961 M 18.534 20.271 L 15.494 18.978 L 20.335 16.78 C 19.612 17.859 18.994 19.026 18.534 20.271 M 31.205 12.249 C 31.205 12.249 27.278 10.567 22.787 15.058 C 21.049 16.796 20.01 18.708 19.335 20.383 C 19.113 20.978 19.264 21.628 19.7 22.073 L 21.39 23.755 C 21.826 24.199 22.478 24.342 23.073 24.12 C 24.771 23.47 26.659 22.406 28.397 20.669 C 32.888 16.177 31.205 12.249 31.205 12.249 M 25.595 17.859 C 24.977 17.24 24.977 16.232 25.595 15.614 C 26.215 14.995 27.223 14.995 27.841 15.614 C 28.453 16.232 28.461 17.24 27.841 17.859 C 27.223 18.478 26.215 18.478 25.595 17.859 M 21.104 23.47 L 19.986 22.35 L 21.104 23.47 M 19.01 27.81 L 21.898 24.922 C 21.628 24.85 21.367 24.731 21.128 24.564 L 17.891 27.81 L 19.01 27.81 M 15.645 27.81 L 16.764 27.81 L 20.549 24.033 L 19.423 22.914 L 15.645 26.691 L 15.645 27.81 M 15.645 25.564 L 18.89 22.327 C 18.724 22.088 18.605 21.835 18.534 21.557 L 15.645 24.446 L 15.645 25.564 Z"
            style="stroke-width: 1; fill: rgb(225, 190, 231);" />
    </g>
</svg>