<svg xmlns="http://www.w3.org/2000/svg" viewBox="0 0 32 32"><defs data-mit-no-recolor="true"><linearGradient id="a" x1=".445" x2="104.977" y1="3611.926" y2="3548.833" gradientTransform="translate(18.126 -368.395) scale(.11021)" gradientUnits="userSpaceOnUse"><stop offset="0" stop-color="#fdd835"/><stop offset="1" stop-color="#f57c00"/></linearGradient><linearGradient id="b" x1="22.55" x2="117.962" y1="3460.434" y2="3543.963" gradientTransform="translate(18.126 -368.395) scale(.11021)" gradientUnits="userSpaceOnUse"><stop offset="0" stop-color="#ef5350"/><stop offset=".57" stop-color="#ff6e40"/><stop offset="1" stop-color="#f57c00"/></linearGradient><linearGradient id="c" x1="28.608" x2="-27.937" y1="3536.154" y2="3500.841" gradientTransform="translate(18.126 -368.395) scale(.11021)" gradientUnits="userSpaceOnUse"><stop offset="0" stop-color="#8e24aa"/><stop offset=".385" stop-color="#ab47bc"/><stop offset=".765" stop-color="#ec407a"/><stop offset=".957" stop-color="#ec407a"/></linearGradient><linearGradient id="d" x1="27.588" x2="-27.616" y1="3456.176" y2="3501.769" gradientTransform="translate(18.126 -368.395) scale(.11021)" gradientUnits="userSpaceOnUse"><stop offset="0" stop-color="#ef5350"/><stop offset=".364" stop-color="#ec407a"/><stop offset="1" stop-color="#ec407a"/></linearGradient></defs><path fill="#b0bec5" d="M28.967 12H9.442a2 2 0 0 0-1.898 1.368L4 24V10h24a2 2 0 0 0-2-2H15.124a2 2 0 0 1-1.28-.464l-1.288-1.072A2 2 0 0 0 11.276 6H4a2 2 0 0 0-2 2v16a2 2 0 0 0 2 2h22l4.805-11.212A2 2 0 0 0 28.967 12Z"/><path fill="url(#a)" d="M30.93 22.519a.679.679 0 0 0 .22-.47.688.688 0 0 0-.647-.72.718.718 0 0 0-.485.161l-12.314 6.745a1.443 1.443 0 0 0-.69.602 1.48 1.48 0 0 0 .506 2.03l.022.013a1.512 1.512 0 0 0 1.573-.03c.03-.029.073-.043.103-.073l11.461-8.053a1.867 1.867 0 0 0 .25-.205Z"/><path fill="url(#b)" d="m30.959 21.534-9.376-9.199a1.133 1.133 0 1 0-1.66 1.543 1.556 1.556 0 0 0 .176.147l9.904 8.48a.757.757 0 0 0 .441.19.688.688 0 0 0 .72-.646.734.734 0 0 0-.205-.515Z"/><path fill="url(#c)" d="M21.892 20.711c-.015 0-5.79-4.555-5.907-4.628l-.265-.133a1.644 1.644 0 0 0-1.44 2.94 1.296 1.296 0 0 0 .294.131c.059.03 6.671 2.763 6.671 2.763a.63.63 0 0 0 .647-1.073Z"/><path fill="url(#d)" d="M20.746 11.968a1.197 1.197 0 0 0-.676.22l-5.849 3.939c-.014.014-.03.014-.03.029h-.014a1.638 1.638 0 0 0 .397 2.865 1.612 1.612 0 0 0 1.528-.205 1.373 1.373 0 0 0 .265-.235l5.084-4.585a1.132 1.132 0 0 0-.705-2.028Z"/></svg>