<svg xmlns="http://www.w3.org/2000/svg" viewBox="0 0 16 16">
<path id="folder" fill="#ef5350" d="M14.483 6H4.721a1 1 0 0 0-.949.684L2 12V5h12a1 1 0 0 0-1-1H7.562a1 1 0 0 1-.64-.232l-.644-.536A1 1 0 0 0 5.638 3H2a1 1 0 0 0-1 1v8a1 1 0 0 0 1 1h11l2.403-5.606A1 1 0 0 0 14.483 6" />
<path id="motive" fill="#ffcdd2" d="M 15.750041,6 H 13.250449 A 0.24995923,0.24995905 0 0 0 13.00049,6.249959 v 4.02684 a 1.949682,1.9496806 0 0 0 -1.615737,-0.17847 1.9991739,1.9991725 0 0 0 0.927849,3.876864 2.0496656,2.0496642 0 0 0 1.687725,-2.052663 V 7.999672 h 1.749714 A 0.24995923,0.24995905 0 0 0 16,7.749713 V 6.249959 A 0.24995923,0.24995905 0 0 0 15.750041,6" />
</svg>
