<?xml version="1.0" encoding="utf-8"?>
<svg xmlns="http://www.w3.org/2000/svg" viewBox="0 0 32 32" xmlns:bx="https://boxy-svg.com" width="32px" height="32px"><defs><bx:export><bx:file format="svg"/></bx:export><bx:export><bx:file format="svg" excluded="true"/></bx:export><bx:export><bx:file format="svg" excluded="true"/></bx:export></defs><path d="M 28.965 12.001 L 9.44 12.001 C 8.579 12.001 7.814 12.552 7.542 13.369 L 3.998 24.001 L 3.998 10.001 L 27.998 10.001 C 27.998 8.897 27.102 8.001 25.998 8.001 L 15.122 8.001 C 14.654 8.001 14.201 7.837 13.842 7.537 L 12.554 6.465 C 12.195 6.166 11.742 6.002 11.274 6.001 L 3.998 6.001 C 2.893 6.001 1.998 6.897 1.998 8.001 L 1.998 24.001 C 1.998 25.106 2.893 26.001 3.998 26.001 L 25.998 26.001 L 30.803 14.789 C 31.369 13.47 30.401 12.002 28.965 12.001" style="fill: rgb(100, 181, 246); stroke: rgb(100, 181, 246); stroke-opacity: 0; paint-order: fill;"/><ellipse style="paint-order: stroke; stroke-opacity: 0; fill: rgb(179, 229, 252); stroke: rgb(100, 181, 246);" cx="28.19" cy="16.307" rx="3.704" ry="3.704"/><rect style="stroke-opacity: 0; paint-order: fill; fill: rgb(255, 205, 210); stroke: rgb(100, 181, 246);" x="16.463" y="12.604" width="7.407" height="7.407" rx="1" ry="1"/><path d="M 19.549 21.228 Q 20.167 20.027 20.784 21.228 L 23.665 26.834 Q 24.282 28.035 23.047 28.035 L 17.286 28.035 Q 16.051 28.035 16.668 26.834 Z" bx:shape="triangle 16.051 20.027 8.231 8.008 0.5 0.15 1@ecdc5366" style="stroke-opacity: 0; fill: rgb(255, 249, 196); stroke: rgb(100, 181, 246);"/><path d="M 27.696 20.875 Q 28.19 20.381 28.684 20.875 L 31.646 23.837 Q 32.14 24.331 31.646 24.825 L 28.684 27.787 Q 28.19 28.281 27.696 27.787 L 24.734 24.825 Q 24.24 24.331 24.734 23.837 Z" bx:shape="n-gon 28.19 24.331 3.95 3.95 4 0.125 1@8d3b2d95" style="stroke-opacity: 0; fill: rgb(200, 230, 201); stroke: rgb(100, 181, 246);"/></svg>