<svg xmlns="http://www.w3.org/2000/svg" viewBox="0 0 32 32">
  <path d="M28.96692,12H9.44152a2,2,0,0,0-1.89737,1.36754L4,24V10H28a2,2,0,0,0-2-2H15.1241a2,2,0,0,1-1.28038-.46357L12.5563,6.46357A2,2,0,0,0,11.27592,6H4A2,2,0,0,0,2,8V24a2,2,0,0,0,2,2H26l4.80523-11.21213A2,2,0,0,0,28.96692,12Z" style="fill: #43a047"/>
  <g>
    <path d="M17.41406,14.58594,20,12H12v8l2.58594-2.58594,4.91015,4.91016A1.70844,1.70844,0,0,1,20,23.541V28h4V23.541a5.67951,5.67951,0,0,0-1.67578-4.04493Z" style="fill: #c8e6c9"/>
    <path d="M29.36,12l-5.61,4.93.57.57a5.59587,5.59587,0,0,1,1.56,2.89L32,15.01Z" style="fill: #c8e6c9"/>
  </g>
</svg>
