<svg xmlns="http://www.w3.org/2000/svg" viewBox="0 0 16 16">
<path id="folder" fill="#afb42b" d="m6.922 3.768-.644-.536A1 1 0 0 0 5.638 3H2a1 1 0 0 0-1 1v8a1 1 0 0 0 1 1h12a1 1 0 0 0 1-1V5a1 1 0 0 0-1-1H7.562a1 1 0 0 1-.64-.232" />
<path id="motive" fill="#f0f4c3" d="M 15.1685,7 H 8.8315 A 0.8315,0.8315 0 0 0 8,7.8315 v 5.337 A 0.8315,0.8315 0 0 0 8.8315,14 h 6.337 A 0.8315,0.8315 0 0 0 16,13.1685 V 7.8315 A 0.8315,0.8315 0 0 0 15.1685,7 M 13,13 h -3 v -1 h 3 z m 1,-2 h -4 v -1 h 4 z M 14,9 H 10 V 8 h 4 z" />
</svg>
