<?xml version="1.0" encoding="utf-8"?>
<!-- Generator: Adobe Illustrator 28.0.0, SVG Export Plug-In . SVG Version: 6.00 Build 0)  -->
<svg version="1.1" xmlns="http://www.w3.org/2000/svg" xmlns:xlink="http://www.w3.org/1999/xlink" x="0px" y="0px"
	 viewBox="0 0 24 24" style="enable-background:new 0 0 24 24;" xml:space="preserve">
<style type="text/css">
	.st0{fill:#66BB6A;}
	.st1{fill:#00CC33;}
	.st2{fill:#FFCC33;}
	.st3{fill:#FF3366;}
	.st4{fill:#3333FF;}
	.st5{fill:#00CCFF;}
</style>
<g id="Layer_1">
	<path class="st0" d="M10,4H4C2.9,4,2,4.9,2,6v12c0,1.1,0.9,2,2,2h16c1.1,0,2-0.9,2-2V8c0-1.1-0.9-2-2-2h-8L10,4z"/>
</g>
<g id="Layer_2">
	<g>
		<path class="st1" d="M12.5,10.5h9v9h-9V10.5z"/>
		<path class="st2" d="M11,9h3l3,1.5L12.5,15L11,12V9z"/>
		<path class="st3" d="M17,10.5L20,9h3v3l-1.5,3L17,10.5z"/>
		<path class="st4" d="M12.5,15l4.5,4.5L14,21h-3v-3L12.5,15z"/>
		<path class="st5" d="M21.5,15l1.5,3v3h-3l-3-1.5L21.5,15z"/>
	</g>
</g>
</svg>
