<svg xmlns="http://www.w3.org/2000/svg" clip-rule="evenodd" fill-rule="evenodd" stroke-linejoin="round" stroke-miterlimit="1.414" viewBox="0 0 24 24">
  <path fill="#FFB300" d="M10 4H4c-1.11 0-2 .89-2 2v12c0 1.097.903 2 2 2h16c1.097 0 2-.903 2-2V8a2 2 0 0 0-2-2h-8l-2-2z" fill-rule="nonzero"/>
  <path fill="#FFF8E1" d="M9.9 13.35h3.25V10.1H9.9zm4.875 9.75h3.25v-3.25h-3.25zm-4.875 0h3.25v-3.25H9.9zm0-4.875h3.25v-3.25H9.9zm4.875 0h3.25v-3.25h-3.25zM19.65 10.1v3.25h3.25V10.1zm-4.875 3.25h3.25V10.1h-3.25zm4.875 4.875h3.25v-3.25h-3.25zm0 4.875h3.25v-3.25h-3.25z"/>
</svg>