<svg xmlns="http://www.w3.org/2000/svg" viewBox="0 0 32 32">
  <path d="M13.84376,7.53645l-1.28749-1.0729A2,2,0,0,0,11.27591,6H4A2,2,0,0,0,2,8V24a2,2,0,0,0,2,2H28a2,2,0,0,0,2-2V10a2,2,0,0,0-2-2H15.12412A2,2,0,0,1,13.84376,7.53645Z" style="fill: #009688"/>
  <g>
    <circle cx="20" cy="26" r="2" style="fill: #b2dfdb"/>
    <circle cx="28" cy="26" r="2" style="fill: #b2dfdb"/>
    <path d="M30.61257,12H18.21985l-.4-2H14v2h2.18018l1.83922,9.19612A1,1,0,0,0,19,22H30V20H19.81982l-.4-2H30l1.56126-4.68377A1,1,0,0,0,30.61257,12Z" style="fill: #b2dfdb;fill-rule: evenodd"/>
  </g>
</svg>
