<svg xmlns="http://www.w3.org/2000/svg" viewBox="0 0 16 16"><path id="folder" fill="#f9a825" d="m6.922 3.768-.644-.536A1 1 0 0 0 5.638 3H2a1 1 0 0 0-1 1v8a1 1 0 0 0 1 1h12a1 1 0 0 0 1-1V5a1 1 0 0 0-1-1H7.562a1 1 0 0 1-.64-.232"/><path id="motive" fill="#ffecb3" d="M12.31 8.175c-.21.14-.875.52-.975.595a.41.41 0 0 1-.57-.005c-.1-.08-.765-.46-.975-.595-.24-.154-.225-.35.04-.46a3.08 3.08 0 0 1 2.454.016c.245.105.255.3.025.45zm3.608 3.64A9.6 9.6 0 0 0 14 8.985a2.15 2.15 0 0 1-.53-.94c-.05-.164-.085-.334-.12-.504A5.7 5.7 0 0 0 13 6.236a2.03 2.03 0 0 0-1.919-1.235 2.1 2.1 0 0 0-1.975 1.2 3 3 0 0 0-.23.67c-.085.38-.16.775-.25 1.16a1.7 1.7 0 0 1-.48.855 9.8 9.8 0 0 0-1.94 2.674 3 3 0 0 0-.184.44c-.095.33.145.56.495.48.22-.045.44-.09.65-.155.205-.075.285-.025.335.175a3.37 3.37 0 0 0 2.12 2.249c2.059.78 4.463-.33 4.983-2.29.035-.134.085-.184.235-.134.23.07.465.12.7.175a.362.362 0 0 0 .46-.32.7.7 0 0 0-.08-.365z"/></svg>