<svg xmlns="http://www.w3.org/2000/svg" viewBox="0 0 32 32"><path d="M13.84376,7.53645l-1.28749-1.0729A2,2,0,0,0,11.27591,6H4A2,2,0,0,0,2,8V24a2,2,0,0,0,2,2H28a2,2,0,0,0,2-2V10a2,2,0,0,0-2-2H15.12412A2,2,0,0,1,13.84376,7.53645Z" style="fill:#cddc39"/><path d="M11.49533,19.57913h0a1.07077,1.07077,0,0,1,.416,1.456l-.0082.0145L8.40559,27.15278a1.09949,1.09949,0,0,1-1.48675.41227h0a1.07077,1.07077,0,0,1-.416-1.456l.0082-.0145,3.49751-6.10311A1.09949,1.09949,0,0,1,11.49533,19.57913Z" style="fill:#f0f4c3;fill-rule:evenodd"/><path d="M19.034,14.89954h0a1.07077,1.07077,0,0,1,.416,1.45606l-.00819.01448-3.49751,6.10311a1.09948,1.09948,0,0,1-1.48675.41227h0a1.07076,1.07076,0,0,1-.416-1.456l.00821-.01451,3.49751-6.10311A1.09949,1.09949,0,0,1,19.034,14.89954Z" style="fill:#f0f4c3;fill-rule:evenodd"/><path d="M30.634,14.89977h0a1.07076,1.07076,0,0,1,.416,1.456l-.00821.01451-3.49751,6.10311a1.09949,1.09949,0,0,1-1.48675.41227h0a1.07079,1.07079,0,0,1-.416-1.45606l.00819-.01448L29.14725,15.312A1.09948,1.09948,0,0,1,30.634,14.89977Z" style="fill:#f0f4c3;fill-rule:evenodd"/><path d="M23.09353,19.57913h0a1.07077,1.07077,0,0,1,.416,1.456l-.0082.0145-3.49751,6.10311a1.09949,1.09949,0,0,1-1.48675.41227h0a1.07077,1.07077,0,0,1-.416-1.456l.0082-.0145,3.49751-6.10311A1.09949,1.09949,0,0,1,23.09353,19.57913Z" style="fill:#f0f4c3;fill-rule:evenodd"/></svg>
