<svg viewBox="0 0 24 24" xmlns="http://www.w3.org/2000/svg" clip-rule="evenodd" fill-rule="evenodd" stroke-linejoin="round" stroke-miterlimit="1.414"><path d="M19 20H4a2 2 0 0 1-2-2V6c0-1.11.89-2 2-2h6l2 2h7c1.097 0 2 .903 2 2H4v10l2.14-8h17.07l-2.28 8.5c-.23.87-1.01 1.5-1.93 1.5z" fill-rule="nonzero" fill="#795548"/><g fill="#a7ffeb"><path d="M11.228 11.63s.233.9.266 1.2c.034.3-.6.968-.6 1.302 0 .333.133.934.867 1.234.735.3.834 1.068.834 1.535 0 .467-.266 1.368-.266 1.368s-.167 2.236.734 2.636c.9.4.7.4.9.4.2 0 1.668.601 2.536.368.868-.234 1.1-.5 1.1-.5s.869.066 1.135-.701c.267-.767.434-2.37.334-3.103s-.234-1.702.366-2.035c.601-.334 1.235-.735 1.135-1.068s-.634-.8-.634-.8-.134-.835-.034-1.035c.1-.2.7-.7.367-1.067-.334-.367-.934-.367-.934-.367l-.768.066s-1.3-1.168-3.002-1.101c-1.7.067-2.769 1.1-2.769 1.1s-.567-.2-1.067 0c-.501.2-.6 0-.5.568z" fill="#fba919"/><g fill="#e78724"><path d="M14.277 16.597s-.661 1.01-1.146 1.727c-.075.111.485.12.485.12l.66-1.847zm.314-2.094s-.199.497-.308.76c-.119.286-.57.429-.57.429s.234-.246.234-.868c0-.26.337-.364.337-.364l.307.043z"/><path d="M14.39 14.783s-.408.486-1.166.214-.836-1.243-.836-1.515 1.438.272 1.633.388.563.583.369.913zm-2.862-5.19s.699-.136 1.165.233c.467.37.603.66.603.66l-.786.624s-.38-.176-.497-.682c-.116-.505-.039-.738-.485-.835z"/><path d="M14.186 13.38c-.301-.427-.798-.614-1.194-.644-.676-.053-.996.186-.996.186s1.106.046 1.425.465c.594.78 1.46.843 1.599.672-.16.008-.337-.071-.525-.25-.118-.111-.214-.293-.31-.429zm-1.868 1.512s-1.228-.422-.995-.85c.233-.427.048-.66.048-.66s-.686.512-.511 1.056c.107.334.287.576 1.276 1.039.475.88.098 2.467.121 2.474.038.013.666-.31.623-1.794-.013-.456-.05-1.078-.562-1.266zm1.609-4.539c-.515.262-1.22.626-1.22.626l.277.139a1 1 0 0 0-.04.068l.285.13s.696.504 1.122.828c-.142-.438-.56-1.125-.56-1.125s-.118-.316.135-.666zm1.71 10.661c-1.583 0-2.119-.803-2.119-.803l.248.602c.093.26 1.09 1.072 1.868 1.072"/><path d="M13.692 19.668s.145.89.728.89c.496 0 .642-.752.642-.907l-1.37.017zm-.97-1.342a6.42 6.42 0 0 0 .291-1.243c.07-.628.045-1.547.045-1.547s-.156.602-.292.7c-.136.096-.39.757-.39.757s-.135.983-.2 1.314c.18.036.33-.07.545.02zm-1.408-3.898s.33-.117.428-.835c.097-.72-.117-1.341-.117-1.341s.02.99-.097 1.185c-.117.194-.214.253-.35.505-.136.253.058.408.136.486z"/></g><path d="M11.708 9.763l-.067-.043c-.199.007.067.043.067.043z" fill="#fdc168"/><path d="M14.196 10.14s-.311-.051-.467-.285c-.155-.233-.596-.7-1.298-.704-.702-.006-1.396.186-1.396.186l.606.383c.064-.002.176-.001.362.005.76.025.878.777.878.777l2.681-.369" fill="#fba919"/><path d="M14.454 14.297s-.362.363-.92.246c-.556-.117-.893-.363-.92-.79-.025-.428.118-.596.118-.596s.622.195.92.453c.298.26.518.674.803.687z" fill="#fff"/><path d="M14.016 14.167s-.315.144-.667.027c-.46-.153-.49-.632-.49-.632s-.283.829.509.988c.635.128 1.01-.24 1.01-.24l-.362-.143z" fill="#c9c9c9"/><g fill="#463014"><path d="M14.24 9.965c-.035-.711.548-1.277.75-1.301.01.12-.012.59.19.734.059-.383.258-.806 1.042-1.084-.168.446-.022.82.047.992.536-.486.897-.405.897-.405s-.372.642-.227 1.063c-1.075-.084-2.695.115-2.7 0zm-2.281 1.082c-.257-.213-.065-.41-.086-.652-.01-.129-.02-.25-.063-.317-.236-.373-.793-.486-.799-.488l-.261-.05.173-.203c.022-.027.733-.705 1.833-.35.77.249 1.339 1.09 1.36 1.124l-.385.181c-.005-.007-.455-.798-1.115-1.01a1.69 1.69 0 0 0-1.236.098c.224.09.516.253.693.531.084.132.097.297.11.458.019.212.036.412.192.542l-.415.136zm-.685 3.108s.323-.401.419-1.181c.037-.307-.03-.914-.136-1.147.019.574-.127 1.147-.127 1.147s-.098 1.064-.156 1.18z"/><path d="M12.979 10.642s-.104-.453-.391-.682c-.405-.322-.9-.15-.905-.15l-.071-.221c.024-.008.59-.186 1.11.18.524.369.587.703.592.74l-.335.133zm-.69 3.225s-.17-.243-.139-.51c.015-.131.076-.267.186-.315.202-.089.292.141.292.141s-.285.07-.338.684z"/><path d="M14.152 14.237l.01.021s-.529.397-1.07-.006c-.291-.216-.264-.75-.175-.976.231.053.427.147.591.258-.207-.185-.388-.321-.388-.324l-.235-.067-.458-.157c-.006.035-.172.818.31 1.35.213.237 1.214.766 1.69-.139l-.275.041z"/><path d="M14.102 14.296c.298.453 1.05.194 1.036-.285 0 0-.502.277-.945-.233-.26-.298-1.09-1.12-2.215-.846.777.17 1.806.88 2.124 1.364z"/><path d="M11.873 15.575c.071.041.324.303.324.694 0 .197-.02 1.183-.116 1.785.146.095.248.115.393.212.073-.698.125-1.709.1-2.117-.027-.465-.276-.778-.507-.91-.072-.042-.148-.083-.224-.124-.396-.214-.805-.435-.805-.813 0-.296.115-.388.237-.486l.013-.01c.08-.066.172-.14.226-.261.148-.332.172-1.178 0-1.392-.085-.107-.315-.467-.249-.709a.325.325 0 0 1 .178-.209.89.89 0 0 1 .402-.077c.327 0 .69.1.876.159.669.211 1.475.822 1.707 1.004l.011.009.148.103-.093-.155c-.005-.01-.591-.974-1.64-1.327a3.327 3.327 0 0 0-.997-.184c-.234 0-.433.04-.59.121a.712.712 0 0 0-.377.453c-.132.485.3 1.026.314 1.043.05.09.072.741-.044 1.002a.4.4 0 0 1-.116.116 1.86 1.86 0 0 1-.057.044c-.164.123-.411.31-.411.74 0 .59.597.909 1.077 1.165.079.043.154.083.222.122z"/><path d="M11.959 11.047c-.257-.213-.065-.41-.086-.652-.01-.129-.02-.25-.063-.317-.236-.373-.793-.486-.799-.488l-.261-.05.173-.203c.022-.027.733-.705 1.833-.35.77.249 1.339 1.09 1.36 1.124l-.385.181c-.005-.007-.455-.798-1.115-1.01a1.69 1.69 0 0 0-1.236.098c.224.09.516.253.693.531.084.132.097.297.11.458.019.212.036.412.192.542l-.415.136z"/><path d="M11.95 11.09l-.016-.013c-.19-.158-.156-.314-.124-.464.015-.069.03-.141.024-.215-.01-.124-.02-.24-.057-.3-.225-.354-.768-.468-.774-.47l-.326-.064.216-.252c.004-.005.46-.466 1.234-.466.21 0 .426.035.64.105.804.259 1.377 1.131 1.382 1.14l.023.037-.456.215-.018-.029c-.05-.084-.482-.797-1.094-.995a1.52 1.52 0 0 0-.471-.073c-.293 0-.53.08-.657.134.211.095.467.255.63.511.088.14.102.31.116.475.017.204.034.397.177.516l.054.045-.502.165z"/><path d="M12.979 10.642s-.104-.453-.391-.682c-.405-.322-.9-.15-.905-.15l-.071-.221c.024-.008.59-.186 1.11.18.524.369.587.703.592.74l-.335.133z"/><path d="M12.95 10.695l-.01-.044c0-.005-.102-.442-.377-.66a.877.877 0 0 0-.56-.188c-.169 0-.294.04-.307.045l-.037.012-.096-.296.037-.011c.016-.006.166-.052.379-.052.28 0 .544.082.765.237.538.378.603.727.61.766l.004.03-.406.162zm-.947-.97c.23 0 .44.071.609.205.243.194.358.537.393.66l.264-.106c-.024-.093-.13-.373-.57-.683a1.229 1.229 0 0 0-.72-.223 1.32 1.32 0 0 0-.318.038l.047.147c.056-.015.162-.038.295-.038zm2.393 10.62a.49.49 0 0 1-.313-.112c-.062-.054-.273-.247-.365-.484-.035-.088-.027-.159.023-.21.035-.035.106-.077.252-.077h.784c.111 0 .19.024.236.071.059.06.04.137.024.178-.028.07-.147.3-.347.515a.394.394 0 0 1-.293.119zm.12-6.023l-.414-.027s.106.187.174.429c.078.273-.07.672-.07.672s.552-.625.31-1.074zM14 21.44c-1.476-.114-1.995-1.508-1.995-1.798h.386-.193.193c.002.126.394 1.318 1.638 1.414l-.03.384z"/></g><path d="M13.584 18.941a.968.968 0 0 1 .003-.383c-.112-.085-.313-.116-.464-.165-.124-.078-.755.08-1.214-.475-.574-.694-.453-1.11-.453-1.11-.148.164-.29.102-.515.865s.105 1.294.721 1.828c.29.252.702.356 1.055.396-.118-.12.203-.131.424-.214-.018-.179.012-.352.145-.491a.754.754 0 0 1 .29-.175l.017-.04a.36.36 0 0 1-.01-.037z" fill="#fff"/><path d="M13.138 19.68a1.382 1.382 0 0 1-.032-.114c-.01-.042-.06-.161.002-.026a.504.504 0 0 1-.034-.106c-.997-.002-1.864-.686-1.697-2.125-.13-.173-.313.35-.313.35s-.498 1.449.79 2.01c.43.187.81.322.899.267.186.038.355-.092.418-.177a1.004 1.004 0 0 1-.032-.08z" fill="#c9c9c9"/><path d="M13.567 18.733a.8.8 0 0 1 .085-.357l.013-.023c-.384-.004-.825-.04-1.202-.19-.413-.166-.93-.732-1.02-1.397 0 0-.778.601-.549 1.887.215 1.208 1.225 1.601 2.378 1.668 0-.008-.13-.277-.088-.442-.655.048-1.387-.205-1.74-.786-.323-.532-.232-1.44-.1-1.573.325 1.023 1.491 1.23 2.223 1.213z" fill="#463014"/><path d="M13.687 18c-.207.609-.631 1.101-.631 1.101s.583-.026.615-.13c.024-.076.526-1.251.719-2.63-.181.299-.685 1.607-.703 1.659z" fill="#463014"/><g fill="#e78724"><path d="M16.988 16.597s.661 1.01 1.146 1.727c.075.111-.485.12-.485.12zm-.314-2.094s.199.497.308.76c.118.286.57.429.57.429s-.234-.246-.234-.868c0-.26-.337-.364-.337-.364l-.307.043z"/><path d="M16.875 14.783s.408.486 1.166.214.835-1.243.835-1.515-1.438.272-1.632.388c-.194.117-.563.583-.37.913zm2.862-5.19s-.7-.136-1.166.233c-.466.37-.602.66-.602.66l.785.624s.38-.176.497-.682c.116-.505.038-.738.485-.835z"/><path d="M17.08 13.38c.3-.427.797-.614 1.193-.644.676-.053.996.186.996.186s-1.106.046-1.425.465c-.594.78-1.46.843-1.599.672.16.008.337-.071.525-.25.118-.111.214-.293.309-.429zm1.867 1.512s1.228-.422.995-.85c-.233-.427-.048-.66-.048-.66s.686.512.51 1.055c-.106.334-.287.576-1.276 1.04-.474.88-.098 2.467-.12 2.474-.038.012-.666-.31-.623-1.795.013-.455.049-1.077.562-1.265zm-1.609-4.539c.515.262 1.22.626 1.22.626l-.277.139c.027.043.04.068.04.068l-.285.13s-.695.504-1.122.828c.143-.438.56-1.125.56-1.125s.118-.316-.135-.666zm-1.71 10.661c1.582 0 2.118-.803 2.118-.803l-.247.602c-.093.26-1.09 1.072-1.868 1.072"/><path d="M17.573 19.668s-.146.89-.728.89c-.496 0-.642-.752-.642-.907zm.97-1.342a6.427 6.427 0 0 1-.291-1.243c-.07-.628-.045-1.547-.045-1.547s.156.602.292.7c.136.096.388.757.388.757s.136.983.2 1.314c-.178.036-.328-.07-.544.02zm1.408-3.898s-.33-.117-.427-.835c-.098-.72.116-1.341.116-1.341s-.02.99.097 1.185c.117.194.214.253.35.505.136.253-.059.408-.136.486z"/></g><path d="M19.556 9.763l.068-.043c.199.007-.068.043-.068.043z" fill="#fdc168"/><path d="M17.07 10.14s.31-.051.466-.285c.155-.233.596-.7 1.298-.704.702-.006 1.396.186 1.396.186l-.606.383a6.289 6.289 0 0 0-.362.005c-.76.025-.878.777-.878.777l-2.681-.369" fill="#fba919"/><path d="M16.81 14.297s.363.363.92.246c.557-.117.894-.363.92-.79.026-.428-.116-.596-.116-.596s-.622.195-.92.453-.518.674-.803.687z" fill="#fff"/><path d="M17.25 14.167s.314.144.666.027c.46-.153.49-.632.49-.632s.283.829-.509.988c-.635.128-1.01-.24-1.01-.24l.362-.143z" fill="#c9c9c9"/><g fill="#463014"><path d="M19.306 11.047c.256-.213.065-.41.086-.652.01-.129.02-.25.063-.317.236-.373.793-.486.799-.488l.261-.05-.173-.203c-.022-.027-.733-.705-1.833-.35-.77.249-1.339 1.09-1.36 1.124l.385.181c.005-.007.455-.798 1.116-1.01a1.688 1.688 0 0 1 1.235.098c-.224.09-.516.253-.693.531-.084.132-.097.297-.11.458-.019.212-.036.412-.192.542l.415.136zm.685 3.108s-.323-.401-.419-1.181c-.037-.307.03-.914.136-1.147-.02.574.127 1.147.127 1.147s.098 1.064.156 1.18z"/><path d="M18.286 10.642s.104-.453.391-.682c.405-.322.9-.15.905-.15l.072-.221a1.332 1.332 0 0 0-1.11.18c-.525.369-.588.703-.594.74l.336.133zm.69 3.225s.17-.243.139-.51c-.015-.131-.076-.267-.185-.315-.203-.089-.293.141-.293.141s.285.07.339.684z"/><path d="M17.113 14.237l-.01.021s.529.397 1.07-.006c.291-.216.264-.75.175-.976a1.75 1.75 0 0 0-.592.258c.208-.185.39-.321.388-.324l.236-.067.457-.157c.006.035.173.818-.31 1.35-.213.237-1.214.766-1.69-.139l.276.041z"/><path d="M17.163 14.296c-.298.453-1.05.194-1.036-.285 0 0 .502.277.945-.233.26-.298 1.09-1.12 2.215-.846-.777.17-1.807.88-2.124 1.364z"/><path d="M19.392 15.575c-.071.041-.324.303-.324.694 0 .197.02 1.183.116 1.785-.146.095-.248.115-.393.212-.073-.698-.125-1.709-.1-2.117.027-.465.276-.778.507-.91.072-.042.148-.083.224-.124.396-.214.805-.435.805-.813 0-.296-.115-.388-.236-.486l-.013-.01c-.08-.066-.172-.14-.226-.261-.148-.332-.173-1.178 0-1.392.085-.107.314-.467.248-.709a.325.325 0 0 0-.178-.209.89.89 0 0 0-.401-.077c-.327 0-.69.1-.877.159-.668.211-1.475.822-1.707 1.004l-.011.009-.148.103.092-.155c.006-.01.592-.974 1.64-1.327.204-.069.604-.184.998-.184.234 0 .432.04.59.121a.712.712 0 0 1 .376.453c.132.485-.299 1.026-.314 1.043-.05.09-.071.741.045 1.002.016.036.06.071.115.116l.057.044c.164.123.411.31.411.74 0 .59-.596.909-1.076 1.165-.079.043-.154.083-.221.122z"/><path d="M18.68 10.978c-.095-.161-.338-.472-.897-.744-.625-.305-1.348-.46-2.149-.46h-.003c-.801 0-1.524.156-2.149.46-.56.273-.802.583-.897.744l-.04.054.478.107.016-.02.008-.017c.007-.032.071-.203.606-.463.571-.279 1.237-.42 1.98-.42.742 0 1.408.141 1.98.42.534.26.598.431.606.463l.008.018.015.019.479-.107-.04-.054z"/><path d="M19.306 11.047c.256-.213.065-.41.086-.652.01-.129.02-.25.063-.317.236-.373.793-.486.799-.488l.261-.05-.173-.203c-.022-.027-.733-.705-1.833-.35-.77.249-1.339 1.09-1.36 1.124l.385.181c.005-.007.455-.798 1.116-1.01a1.688 1.688 0 0 1 1.235.098c-.224.09-.516.253-.693.531-.084.132-.097.297-.11.458-.019.212-.036.412-.192.542l.415.136z"/><path d="M18.812 10.926l.054-.045c.144-.119.16-.312.177-.516.014-.165.028-.335.117-.475.162-.256.418-.416.63-.512a1.716 1.716 0 0 0-.658-.133c-.162 0-.32.024-.47.073-.613.197-1.045.91-1.094.994l-.019.03-.456-.215.023-.037c.006-.009.578-.881 1.381-1.14.215-.07.431-.105.642-.105.773 0 1.23.46 1.233.465l.217.254-.327.063c-.005.001-.548.115-.773.47-.037.06-.047.176-.058.3a.73.73 0 0 0 .025.215c.032.15.066.306-.124.464l-.016.013-.503-.165z"/><path d="M18.286 10.642s.104-.453.391-.682c.405-.322.9-.15.905-.15l.072-.221a1.332 1.332 0 0 0-1.11.18c-.525.369-.588.703-.594.74l.336.133z"/><path d="M17.908 10.533l.005-.03c.005-.039.071-.388.608-.765.221-.156.486-.238.766-.238.213 0 .362.047.379.052l.037.012-.096.296-.037-.012a1.044 1.044 0 0 0-.307-.045.876.876 0 0 0-.56.189c-.274.218-.376.655-.377.66l-.01.044-.406-.162zm1.649-.77l.048-.147a1.317 1.317 0 0 0-.318-.038c-.268 0-.51.075-.721.223-.44.31-.546.59-.57.683l.264.106c.035-.123.15-.466.393-.66a.967.967 0 0 1 .61-.205c.132 0 .239.023.294.038zm-2.981 10.462a1.945 1.945 0 0 1-.348-.515c-.016-.04-.035-.117.024-.177.046-.047.125-.07.236-.07h.784c.146 0 .218.042.253.076.05.051.058.122.023.21-.093.237-.303.43-.365.484a.49.49 0 0 1-.313.112.395.395 0 0 1-.294-.119zm.173-5.903l.414-.027s-.106.187-.174.429c-.078.273.07.672.07.672s-.552-.626-.31-1.074z"/></g><path d="M15.632 12.842c-.264 0-.608-.007-.867-.193 0 0 .339.594.867.594v-.076.076c.529 0 .867-.594.867-.594-.258.186-.603.193-.867.193z" fill="#e78724"/><path d="M16.36 12.84a1.42 1.42 0 0 1-.728.22 1.42 1.42 0 0 1-.727-.22s.386.47.726.474h.003c.34-.003.726-.473.726-.473zm.906 8.6l-.03-.385c1.245-.096 1.637-1.288 1.64-1.414h.385c0 .29-.52 1.685-1.995 1.798z" fill="#463014"/><path d="M17.68 18.941a.967.967 0 0 0-.002-.383c.112-.085.313-.116.464-.165.124-.078.755.08 1.214-.475.574-.694.453-1.11.453-1.11.147.164.29.102.515.865.224.763-.106 1.294-.722 1.828-.29.252-.701.356-1.055.396.118-.12-.202-.131-.423-.214.018-.179-.012-.352-.145-.491a.75.75 0 0 0-.29-.175l-.017-.04a.36.36 0 0 0 .01-.037z" fill="#fff"/><path d="M18.126 19.68c.013-.038.023-.076.032-.114.01-.042.062-.161-.001-.026a.504.504 0 0 0 .034-.106c.997-.002 1.864-.686 1.696-2.125.13-.173.314.35.314.35s.499 1.449-.79 2.01c-.43.187-.809.322-.898.267-.187.038-.355-.092-.418-.177l.032-.08z" fill="#c9c9c9"/><g fill="#463014"><path d="M17.699 18.733a.8.8 0 0 0-.085-.357l-.014-.023c.384-.004.826-.04 1.202-.19.413-.166.93-.732 1.02-1.397 0 0 .778.601.55 1.887-.216 1.208-1.226 1.601-2.379 1.668 0-.008.13-.277.089-.442.654.048 1.386-.205 1.74-.786.323-.532.232-1.44.1-1.573-.325 1.023-1.492 1.23-2.223 1.213z"/><path d="M18.164 19.036c-.138-.15-.391-.327-.975-.327h-3.113c-.583 0-.836.178-.974.327-.2.216-.232.518-.093.894.369 1.003.887 2.021 2.623 2.023h.004c1.735 0 2.254-1.02 2.622-2.022.14-.377.108-.678-.093-.895zm-.27.824c-.176.503-.648 1.722-2.262 1.724-1.613-.002-2.085-1.22-2.26-1.724-.098-.28-.09-.486.022-.615.077-.087.254-.192.656-.192h.421a2377.022 2377.022 0 0 1 2.323 0h.42c.403 0 .58.105.657.192.112.128.12.335.023.614z"/><path d="M17.578 18c.207.609.63 1.101.63 1.101s-.582-.026-.614-.13c-.024-.076-.526-1.251-.719-2.63.182.299.685 1.607.703 1.659z"/></g></g></svg>