<svg xmlns="http://www.w3.org/2000/svg" viewBox="0 0 32 32">
  <path d="M28.96692,12H9.44152a2,2,0,0,0-1.89737,1.36754L4,24V10H28a2,2,0,0,0-2-2H15.1241a2,2,0,0,1-1.28038-.46357L12.5563,6.46357A2,2,0,0,0,11.27592,6H4A2,2,0,0,0,2,8V24a2,2,0,0,0,2,2H26l4.80523-11.21213A2,2,0,0,0,28.96692,12Z" style="fill: #448aff"/>
  <path d="M22.069,10.463a.55245.55245,0,0,0-.11626.0026.58886.58886,0,0,0-.5168.63566v.16021a3.5676,3.5676,0,0,0,.08012.54262,5.19992,5.19992,0,0,1,.0646,1.0181.59731.59731,0,0,1-.18606.30491l-.01291.23774a6.68774,6.68774,0,0,0-1.031.15756,7.27316,7.27316,0,0,0-3.70536,2.11621l-.19639-.14472a.51864.51864,0,0,1-.34626-.03875,5.38265,5.38265,0,0,1-.76486-.68991,5.25261,5.25261,0,0,0-.37209-.39536l-.11886-.093a.74674.74674,0,0,0-.398-.15756.5977.5977,0,0,0-.46253.19639.612.612,0,0,0,.14729.83463l.01291.01291c.02647.02647.07949.06653.106.093a4.40764,4.40764,0,0,0,.47545.27648,5.42922,5.42922,0,0,1,.84753.59691.579.579,0,0,1,.106.33075l.18345.15756a7.21858,7.21858,0,0,0-1.137,5.12146l-.25065.06458a.772.772,0,0,1-.25326.25327,4.41225,4.41225,0,0,1-1.0181.15756,1.93524,1.93524,0,0,0-.54262.05168l-.14472.02841h-.01291v.01292c-.03968,0-.07949.01291-.10595.01291a.5692.5692,0,1,0,.33929,1.08667l.00439-.00139a1.11435,1.11435,0,0,0,.17311-.04136,2.68805,2.68805,0,0,0,.48837-.19638,6.85817,6.85817,0,0,1,1.0181-.2921.51453.51453,0,0,1,.30492.11887l.26356-.03876a7.42462,7.42462,0,0,0,3.26879,4.088l-.093.23772a.715.715,0,0,1,.04133.33075,4.14908,4.14908,0,0,1-.5168.91214c-.10584.15873-.19875.30378-.31782.46254a.1711.1711,0,0,1-.05167.14728c-.01324.03969-.041.06625-.05427.106a.56924.56924,0,0,0,1.07234.38241c.02647-.03968.05106-.13179.07753-.13179a4.75238,4.75238,0,0,0,.16021-.52971,5.02267,5.02267,0,0,1,.43669-1.01809.44494.44494,0,0,1,.25064-.11889l.1318-.23771a7.40846,7.40846,0,0,0,5.25325.01292l.10594.21189a.49063.49063,0,0,1,.27649.18344,6.04156,6.04156,0,0,1,.398.95354c.03968.172.09407.34419.1602.54263.02645,0,.051.07914.07751.11887.01323.03969.02812.06625.04137.10594a.56838.56838,0,0,0,.984-.56916l-.00728-.01222a1.10462,1.10462,0,0,1-.05168-.16021c-.10584-.14553-.212-.30409-.31782-.44962a7.4383,7.4383,0,0,1-.5013-.89923.444.444,0,0,1,.03876-.34367,1.14542,1.14542,0,0,1-.093-.22481,7.4347,7.4347,0,0,0,3.26869-4.11368c.07936.01323.158.02554.25065.03876a.32853.32853,0,0,1,.30492-.10595,4.656,4.656,0,0,1,1.01807.27908,2.55789,2.55789,0,0,0,.47546.19639.68817.68817,0,0,0,.18605.02842v.01291c0,.01324.05332.01261.093.02584a.58473.58473,0,0,0,.63566-.491.56981.56981,0,0,0-.48314-.64492l-.00781-.00106a.33676.33676,0,0,1-.15763-.06718h-.54271a6.5655,6.5655,0,0,1-1.0181-.186.552.552,0,0,1-.25326-.23772l-.25065-.06459a7.20147,7.20147,0,0,0-1.16536-5.10853l.21187-.18355a.40693.40693,0,0,1,.106-.31783,4.8703,4.8703,0,0,1,.84754-.59689,3.28753,3.28753,0,0,0,.46254-.27648.93346.93346,0,0,0,.11887-.093c.03968-.02647.08013-.05369.08013-.08011a.55639.55639,0,0,0-.78036-.79328c-.03969,0-.09208.05369-.13179.08011-.1323.13229-.253.26306-.37211.39536a4.76311,4.76311,0,0,1-.76744.68992.51112.51112,0,0,1-.34367.03875l-.21189.15756A7.37087,7.37087,0,0,0,22.627,13.36478l-.01292-.25327a.448.448,0,0,1-.18605-.28944,5.212,5.212,0,0,1,.0646-1.01807,3.57586,3.57586,0,0,0,.08011-.54265v-.29219a.57243.57243,0,0,0-.50381-.50653Zm-.77777,4.40827L21.131,17.848h-.01292a.51535.51535,0,0,1-.10595.27907.50157.50157,0,0,1-.68734.11887h-.01291l-2.434-1.73386a5.752,5.752,0,0,1,2.80356-1.5349c.21168-.03968.41137-.07948.60983-.10594Zm1.42635,0a5.88975,5.88975,0,0,1,3.40051,1.64081l-2.42122,1.73387h-.013a.60956.60956,0,0,1-.27648.06718.4937.4937,0,0,1-.51648-.4698l-.00032-.00824Zm-5.72618,2.71316,2.22219,2.02331v.01291a.33654.33654,0,0,1,.14472.25326.48312.48312,0,0,1-.32366.6017l-.02.00554v.01292l-2.85787.82165a5.90541,5.90541,0,0,1,.83462-3.73135Zm10.01291.03874a6.178,6.178,0,0,1,.86047,3.67952L24.994,20.481l-.01291-.01292a.47258.47258,0,0,1-.23774-.15756.49156.49156,0,0,1,.04135-.69393l.01033-.00892-.01275-.03873Zm-5.46256,2.14469h.91216l.56847.70027-.199.88631-.81912.398-.81913-.398-.21188-.88631Zm-2.13182,2.447h.10594a.5492.5492,0,0,1,.50389.38243.48231.48231,0,0,1-.05168.27907v.03876l-1.12662,2.739a5.843,5.843,0,0,1-2.36691-2.95093Zm4.87076,0h.3179l2.94828.47546A5.85027,5.85027,0,0,1,25.18,25.66706l-1.13954-2.79057a.53122.53122,0,0,1,.24031-.66151Zm-2.32816,1.199a.50581.50581,0,0,1,.48836.25581h.01292l1.44187,2.60718a4.551,4.551,0,0,1-.56848.15756,5.89949,5.89949,0,0,1-3.21454-.15756l1.44187-2.60718h.01292c.03968-.0926.10635-.13282.199-.199a.47146.47146,0,0,1,.18606-.05685Z" style="fill: #bbdefb;fill-rule: evenodd"/>
</svg>
