<svg xmlns="http://www.w3.org/2000/svg" viewBox="0 0 16 16"><path id="folder" fill="#42a5f5" d="m6.922 3.768-.644-.536A1 1 0 0 0 5.638 3H2a1 1 0 0 0-1 1v8a1 1 0 0 0 1 1h12a1 1 0 0 0 1-1V5a1 1 0 0 0-1-1H7.562a1 1 0 0 1-.64-.232"/><path id="motive" fill="#bbdefb" d="M11.5 6a1 1 0 0 0-1 1H10c-1.108 0-2 .892-2 2l-1 1.5L8 12c0 1.108.892 2 2 2h3c1.108 0 2-.892 2-2l1-1.5L15 9c0-1.108-.892-2-2-2h-.5a1 1 0 0 0-1-1m-1 3c.277 0 .5.223.5.5v2a.499.499 0 1 1-1 0v-2c0-.277.223-.5.5-.5m2 0c.277 0 .5.223.5.5v2a.499.499 0 1 1-1 0v-2c0-.277.223-.5.5-.5"/></svg>