<svg xmlns="http://www.w3.org/2000/svg" viewBox="0 0 32 32"><path fill="#3f51b5" d="M28.967 12H9.442a2 2 0 0 0-1.898 1.368L4 24V10h24a2 2 0 0 0-2-2H15.124a2 2 0 0 1-1.28-.464l-1.288-1.072A2 2 0 0 0 11.276 6H4a2 2 0 0 0-2 2v16a2 2 0 0 0 2 2h22l4.805-11.212A2 2 0 0 0 28.967 12" /><path fill="#bbdefb" d="M29.1,25.6c0.2,0,0.3-0.1,0.3-0.3v-3.2c0-0.2,0.1-0.3,0.3-0.3h1.2c0.2,0,0.3,0.1,0.3,0.3v5 c0,0.2-0.1,0.3-0.3,0.3H20.4c-0.2,0-0.3-0.1-0.3-0.3v-1.4c0-0.1,0-0.1,0.1-0.2L28,15.3c0.2-0.2,0-0.5-0.3-0.5h-5.2 c-0.2,0-0.3,0.1-0.3,0.3v2.6c0,0.2-0.1,0.3-0.3,0.3h-1.2c-0.2,0-0.3-0.1-0.3-0.3v-4.4c0-0.2,0.1-0.3,0.3-0.3h10 c0.2,0,0.3,0.1,0.3,0.3v1.4c0,0.1,0,0.1-0.1,0.2L23,25.1c-0.2,0.2,0,0.5,0.3,0.5H29.1z" /></svg>