<?xml version="1.0" encoding="UTF-8" standalone="no"?>
<svg
   version="1.1"
   width="24"
   height="24"
   viewBox="0 0 24 24"
   id="svg243"
   sodipodi:docname="folder-robot-open.svg"
   inkscape:version="1.1.2 (0a00cf5339, 2022-02-04, custom)"
   xmlns:inkscape="http://www.inkscape.org/namespaces/inkscape"
   xmlns:sodipodi="http://sodipodi.sourceforge.net/DTD/sodipodi-0.dtd"
   xmlns="http://www.w3.org/2000/svg"
   xmlns:svg="http://www.w3.org/2000/svg">
  <defs
     id="defs247" />
  <sodipodi:namedview
     id="namedview245"
     pagecolor="#505050"
     bordercolor="#eeeeee"
     borderopacity="1"
     inkscape:pageshadow="0"
     inkscape:pageopacity="0"
     inkscape:pagecheckerboard="0"
     showgrid="false"
     inkscape:snap-global="false"
     inkscape:zoom="25"
     inkscape:cx="12.02"
     inkscape:cy="12"
     inkscape:window-width="1280"
     inkscape:window-height="1011"
     inkscape:window-x="0"
     inkscape:window-y="32"
     inkscape:window-maximized="0"
     inkscape:current-layer="svg243" />
  <path
     d="M19,20H4C2.89,20 2,19.1 2,18V6C2,4.89 2.89,4 4,4H10L12,6H19A2,2 0 0,1 21,8H21L4,8V18L6.14,10H23.21L20.93,18.5C20.7,19.37 19.92,20 19,20Z"
     id="path241"
     style="fill:#00897b;fill-opacity:1" />
  <path
     d="m 12.999,13.735714 c 0,-1.00935 0.821,-1.829815 1.829,-1.829815 1.009,0 1.83,0.820465 1.83,1.829815 a 0.66399862,0.66388319 0 0 1 -0.664,0.66481 0.66399862,0.66388319 0 0 1 -0.664,-0.66481 0.50136149,0.5012743 0 0 0 -0.502,-0.500039 0.50120688,0.50111976 0 0 0 -0.501,0.500039 c 0,0.367725 -0.297,0.66481 -0.664,0.66481 -0.366,0 -0.663,-0.297085 -0.663,-0.66481 m 7.575,3.074575 A 0.66384403,0.66372862 0 0 1 19.911,17.4751 h -6.158 a 0.66384403,0.66372862 0 0 1 -0.664,-0.664811 0.66399862,0.66388319 0 0 1 0.664,-0.664966 h 6.158 a 0.66399862,0.66388319 0 0 1 0.664,0.664966 m -2.878,-2.70206 a 0.66415322,0.66403775 0 0 1 0.179,-0.922016 l 1.54,-1.0398 c 0.301,-0.209752 0.716,-0.124895 0.922,0.176984 a 0.66415322,0.66403775 0 0 1 -0.18,0.922016 l -1.539,1.039646 a 0.65286756,0.65275407 0 0 1 -0.37,0.115625 0.66786357,0.66774747 0 0 1 -0.552,-0.29245 m 4.216,4.088099 c 0,0.12551 -0.05,0.245924 -0.139,0.334955 L 20.63,19.67558 a 0.47415222,0.47406977 0 0 1 -0.335,0.138649 H 13.28 c -0.126,0 -0.247,-0.04992 -0.335,-0.138649 L 11.801,18.531284 A 0.47415222,0.47406977 0 0 1 11.662,18.196329 V 11.18498 c 0,-0.125822 0.05,-0.246231 0.138,-0.334956 L 12.945,9.70558 A 0.47399761,0.47391521 0 0 1 13.28,9.5669311 h 7.015 c 0.126,0 0.246,0.04992 0.335,0.1386489 l 1.144,1.144444 a 0.47337923,0.47329692 0 0 1 0.139,0.334956 z M 22.886,10.084589 21.393,8.5906585 A 1.2071015,1.2068918 0 0 0 20.539,8.237 H 13.034 A 1.206947,1.2067371 0 0 0 12.18,8.5909678 l -1.493,1.4937742 a 1.2074107,1.2072009 0 0 0 -0.353,0.853389 v 7.504739 c 0,0.32027 0.127,0.627558 0.354,0.853696 l 1.493,1.493929 A 1.2067923,1.2065825 0 0 0 13.035,21.144 h 7.504 c 0.32,0 0.627,-0.127211 0.854,-0.353505 l 1.493,-1.493929 A 1.2071015,1.2068918 0 0 0 23.24,18.44287 v -7.504431 a 1.2075654,1.2073553 0 0 0 -0.354,-0.85385"
     style="fill:#00bfa5;stroke-width:0.154583"
     id="path273" />
</svg>
