<svg xmlns="http://www.w3.org/2000/svg" viewBox="0 0 32 32">
  <path d="M28.96692,12H9.44152a2,2,0,0,0-1.89737,1.36754L4,24V10H28a2,2,0,0,0-2-2H15.1241a2,2,0,0,1-1.28038-.46357L12.5563,6.46357A2,2,0,0,0,11.27592,6H4A2,2,0,0,0,2,8V24a2,2,0,0,0,2,2H26l4.80523-11.21213A2,2,0,0,0,28.96692,12Z" style="fill: #ffca28"/>
  <g>
    <ellipse cx="24" cy="14" rx="8" ry="4" style="fill: #ffecb3"/>
    <path d="M24,26c-4.41827,0-8-1.79089-8-4v4c0,2.20911,3.58173,4,8,4s8-1.79089,8-4V22C32,24.20911,28.41827,26,24,26Z" style="fill: #ffecb3;fill-rule: evenodd"/>
    <path d="M24,20c-4.41827,0-8-1.79089-8-4v4c0,2.20911,3.58173,4,8,4s8-1.79089,8-4V16C32,18.20911,28.41827,20,24,20Z" style="fill: #ffecb3;fill-rule: evenodd"/>
  </g>
</svg>
