<svg version="1.1" viewBox="0 0 32 32" xmlns="http://www.w3.org/2000/svg" xmlns:cc="http://creativecommons.org/ns#" xmlns:dc="http://purl.org/dc/elements/1.1/" xmlns:rdf="http://www.w3.org/1999/02/22-rdf-syntax-ns#">
 <title>Group Copy 2</title>
 <path d="M28.967 12H9.442a2 2 0 0 0-1.898 1.368L4 24V10h24a2 2 0 0 0-2-2H15.124a2 2 0 0 1-1.28-.464l-1.288-1.072A2 2 0 0 0 11.276 6H4a2 2 0 0 0-2 2v16a2 2 0 0 0 2 2h22l4.805-11.212A2 2 0 0 0 28.967 12" fill="#42a5f5"/>
 <path d="m23 12a2 2 0 0 0-2 2h-1c-2.216 0-4 1.784-4 4l-2 3 2 3c0 2.216 1.784 4 4 4h6c2.216 0 4-1.784 4-4l2-3-2-3c0-2.216-1.784-4-4-4h-1a2 2 0 0 0-2-2zm-2 6c0.554 0 1 0.446 1 1v4c0 0.554-0.446 1-1 1s-1-0.446-1-1v-4c0-0.554 0.446-1 1-1zm4 0c0.554 0 1 0.446 1 1v4c0 0.554-0.446 1-1 1s-1-0.446-1-1v-4c0-0.554 0.446-1 1-1z" fill="#bbdefb" stroke-width="0"/>
 <metadata>
  <rdf:RDF>
   <cc:Work rdf:about="">
    <dc:title>Group Copy 2</dc:title>
   </cc:Work>
  </rdf:RDF>
 </metadata>
</svg>
