<svg version="1.1" viewBox="0 0 32 32" xmlns="http://www.w3.org/2000/svg">
    <path d="m13.844 7.536-1.288-1.072A2 2 0 0 0 11.276 6H4a2 2 0 0 0-2 2v16a2 2 0 0 0 2 2h24a2 2 0 0 0 2-2V10a2 2 0 0 0-2-2H15.124a2 2 0 0 1-1.28-.464" fill="#2196f3"/>
    <g transform="matrix(.57139 0 0 .57142 12.857 10.857)" fill="#bbdefb" stroke-linecap="round" stroke-linejoin="round">
        <path d="m3.002 2a1.0016 0.99863 0 0 0-1.002 0.99899v6.0018a1.0016 0.99863 0 0 0 1.002 0.99899h6.0003a1.0016 0.99863 0 0 0 0.9981-0.99899v-6.0018a1.0016 0.99863 0 0 0-0.9981-0.99899zm1.002 1.998h3.9963v4.0077h-3.9963z"/>
        <path d="m13 2a0.99997 1 0 0 0-0.99995 1 0.99997 1 0 0 0 0.99995 1h16.001a0.99997 1 0 0 0 0.99995-1 0.99997 1 0 0 0-0.99995-1z"/>
        <path d="m13 6a1 1.0001 0 0 0-0.99993 1 1 1.0001 0 0 0 0.99993 1h14.001a1 1.0001 0 0 0 0.99993-1 1 1.0001 0 0 0-0.99993-1z"/>
        <g transform="translate(.001475 10)">
            <path d="m2.998 2a1.0001 1.0001 0 0 0-1 1v6a1.0001 1.0001 0 0 0 1 1h6a1.0001 1.0001 0 0 0 1-1v-6a1.0001 1.0001 0 0 0-1-1zm1 2h4v4h-4z"/>
            <path d="m12.999 2a1.0001 1 0 0 0-1.0001 1 1.0001 1 0 0 0 1.0001 1h16.001a1.0001 1 0 0 0 1.0001-1 1.0001 1 0 0 0-1.0001-1z"/>
            <path d="m12.999 6a1.0001 1.0001 0 0 0-1.0001 1 1.0001 1.0001 0 0 0 1.0001 1h14.001a1.0001 1.0001 0 0 0 1.0001-1 1.0001 1.0001 0 0 0-1.0001-1z"/>
        </g>
        <g transform="translate(.001475 20)">
            <path transform="matrix(2.0039 0 0 1.998 .0063843 .028461)" d="m1.4941 0.98633a0.49982 0.49982 0 0 0-0.5 0.5v3.0039a0.49982 0.49982 0 0 0 0.5 0.5h2.9941a0.49982 0.49982 0 0 0 0.49805-0.5v-3.0039a0.49982 0.49982 0 0 0-0.49805-0.5zm0.5 1h1.9941v2.0059h-1.9941z"/>
            <path d="m13 2a1 1 0 0 0-1 1 1 1 0 0 0 1 1h16a1 1 0 0 0 1-1 1 1 0 0 0-1-1z"/>
            <path d="m13 6a1 1 0 0 0-1 1 1 1 0 0 0 1 1h14a1 1 0 0 0 1-1 1 1 0 0 0-1-1z"/>
            <path d="m2.998 2a1.0001 1.0001 0 0 0-1 1v6a1.0001 1.0001 0 0 0 1 1h6a1.0001 1.0001 0 0 0 1-1v-6a1.0001 1.0001 0 0 0-1-1zm1 2h4v4h-4z"/>
            <path d="m12.999 2a1.0001 1 0 0 0-1.0001 1 1.0001 1 0 0 0 1.0001 1h16.001a1.0001 1 0 0 0 1.0001-1 1.0001 1 0 0 0-1.0001-1z"/>
            <path d="m12.999 6a1.0001 1.0001 0 0 0-1.0001 1 1.0001 1.0001 0 0 0 1.0001 1h14.001a1.0001 1.0001 0 0 0 1.0001-1 1.0001 1.0001 0 0 0-1.0001-1z"/>
        </g>
    </g>
</svg>
