<svg xmlns="http://www.w3.org/2000/svg" viewBox="0 0 16 16">
<path id="folder" fill="#43a047" d="M14.483 6H4.721a1 1 0 0 0-.949.684L2 12V5h12a1 1 0 0 0-1-1H7.562a1 1 0 0 1-.64-.232l-.644-.536A1 1 0 0 0 5.638 3H2a1 1 0 0 0-1 1v8a1 1 0 0 0 1 1h11l2.403-5.606A1 1 0 0 0 14.483 6" />
<path id="motive" fill="#c8e6c9" d="M 8.707,7.293 10,6 H 6 v 4 L 7.293,8.707 9.748,11.162 A 0.85,0.85 0 0 1 10,11.7705 V 14 h 2 V 11.7705 A 2.84,2.84 0 0 0 11.162,9.748 Z M 14.68,6 11.875,8.465 12.16,8.75 a 2.8,2.8 0 0 1 0.78,1.445 L 16,7.505 Z" />
</svg>
