<svg xmlns="http://www.w3.org/2000/svg" viewBox="0 0 32 32">
  <path d="M28.96692,12H9.44152a2,2,0,0,0-1.89737,1.36754L4,24V10H28a2,2,0,0,0-2-2H15.1241a2,2,0,0,1-1.28038-.46357L12.5563,6.46357A2,2,0,0,0,11.27592,6H4A2,2,0,0,0,2,8V24a2,2,0,0,0,2,2H26l4.80523-11.21213A2,2,0,0,0,28.96692,12Z" style="fill: #1e88e5"/>
  <g>
    <path d="M15.50771,21.61812l1.27179,3.93606a1.45612,1.45612,0,0,0-.05881,1.92225,1.34548,1.34548,0,0,0,.93664.48551c.03347.00248.06694.00347.09993.00347a1.331,1.331,0,0,0,.89408-.34595,1.40964,1.40964,0,0,0,.20654-.23162,1.446,1.446,0,0,0-.307-1.97174,1.35588,1.35588,0,0,0-.59669-.25637L16.36784,20.123a.16137.16137,0,0,0-.0918-.10146.15358.15358,0,0,0-.13387.00792,1.91644,1.91644,0,0,1-2.05878-.11383,1.99521,1.99521,0,0,1-.42313-2.71906,1.836,1.836,0,0,1,2.08794-.69783.15777.15777,0,0,0,.19842-.10146l.32512-.95123a.17215.17215,0,0,0-.00717-.12719.16057.16057,0,0,0-.09228-.08364,3.05487,3.05487,0,0,0-.97871-.16679h-.03825a3.21537,3.21537,0,0,0-3.1551,3.22734,3.30554,3.30554,0,0,0,1.321,2.69778A3.08324,3.08324,0,0,0,15.50771,21.61812Z" style="fill: #e3f2fd"/>
    <path d="M15.80223,17.14558a1.34874,1.34874,0,0,0-1.78721.5355,1.45175,1.45175,0,0,0-.1573,1.074,1.40646,1.40646,0,0,0,.62251.87452,1.32606,1.32606,0,0,0,.7057.20341,1.3624,1.3624,0,0,0,1.17618-.685,1.46816,1.46816,0,0,0,.17738-.971L20.679,15.02833a.16485.16485,0,0,0,.06454-.12273.168.168,0,0,0-.0502-.12967,2.08889,2.08889,0,0,1-.55557-2.0633,1.883,1.883,0,0,1,2.38294-1.262,1.954,1.954,0,0,1,1.31005,1.82376.16174.16174,0,0,0,.15539.16084l.98253.02029a.20293.20293,0,0,0,.11475-.04751.16808.16808,0,0,0,.04733-.11729,3.343,3.343,0,0,0-.94476-2.33254A3.1176,3.1176,0,0,0,21.93888,10c-.09514.00247-.196.00495-.29309.01435h-.00047a3.14143,3.14143,0,0,0-2.1611,1.18136,3.40188,3.40188,0,0,0-.45756,3.457Z" style="fill: #e3f2fd"/>
    <path d="M26.64357,27.90107a1.38494,1.38494,0,0,0,.73678-.77009,1.4512,1.4512,0,0,0-.00526-1.08337,1.38355,1.38355,0,0,0-.744-.76266,1.31448,1.31448,0,0,0-1.04708.005,1.40173,1.40173,0,0,0-.69327.67209l-5.12066.01386a.15651.15651,0,0,0-.12192.05988.16972.16972,0,0,0-.03346.13561,2.07539,2.07539,0,0,1-.7234,1.999,1.82286,1.82286,0,0,1-1.40041.35584,1.86034,1.86034,0,0,1-1.23306-.77305,2.00017,2.00017,0,0,1-.01578-2.286.16814.16814,0,0,0-.033-.22618l-.77838-.6132a.147.147,0,0,0-.119-.03167.15641.15641,0,0,0-.10519.06532,3.36042,3.36042,0,0,0-.57565,2.44934,3.29112,3.29112,0,0,0,1.26606,2.15337,3.09436,3.09436,0,0,0,1.87422.63349A3.14558,3.14558,0,0,0,20.3434,28.5494a3.36921,3.36921,0,0,0,.54458-1.264l4.01093-.03959A1.34954,1.34954,0,0,0,26.64357,27.90107Z" style="fill: #e3f2fd"/>
    <path d="M27.7179,23.88236l1.22829-3.94546a1.3432,1.3432,0,0,0,.82427-.47314,1.43529,1.43529,0,0,0,.32752-1.026,1.36579,1.36579,0,0,0-2.72863-.01237,1.48041,1.48041,0,0,0,.05881.55232,1.41425,1.41425,0,0,0,.33707.56421L26.1621,24.5693a.17093.17093,0,0,0,.01626.13907.15779.15779,0,0,0,.11427.07523,1.95234,1.95234,0,0,1,.38488,3.78214,1.84433,1.84433,0,0,1-2.09655-.6914.15606.15606,0,0,0-.21658-.03761l-.81185.57261a.16394.16394,0,0,0-.06694.1074.16866.16866,0,0,0,.02821.12472A3.15245,3.15245,0,0,0,26.09708,30a3.0987,3.0987,0,0,0,1.87136-.63052,3.36325,3.36325,0,0,0,1.16469-3.66633A3.22657,3.22657,0,0,0,27.7179,23.88236Z" style="fill: #e3f2fd"/>
    <path d="M31.845,17.545a3.14953,3.14953,0,0,0-5.17659-1.45852L23.38758,13.654a1.45747,1.45747,0,0,0-.1922-.969,1.37239,1.37239,0,0,0-.85775-.63745,1.30149,1.30149,0,0,0-.30791-.03761H22.0259a1.42452,1.42452,0,0,0-.00335,2.84724h.00574a1.33074,1.33074,0,0,0,.63112-.15985L26.8243,17.8345a.15488.15488,0,0,0,.13244.02623.159.159,0,0,0,.10423-.08859,1.97664,1.97664,0,0,1,1.73509-1.1779H28.797a1.9332,1.9332,0,0,1,1.8967,1.96284,1.95665,1.95665,0,0,1-1.29618,1.86335.16571.16571,0,0,0-.10184.20292l.28114.97894a.1607.1607,0,0,0,.07793.09848.15273.15273,0,0,0,.12288.01139,3.21164,3.21164,0,0,0,1.867-1.64064A3.39424,3.39424,0,0,0,31.845,17.545Z" style="fill: #e3f2fd"/>
  </g>
</svg>
