<?xml version="1.0" encoding="UTF-8"?><svg id="Layer_1" xmlns="http://www.w3.org/2000/svg" viewBox="0 0 32 32"><defs><style>.cls-1{fill:#0288d1;}.cls-2{fill:#90caf9;}</style></defs><path class="cls-1" d="M28.48,11H8.96c-.86,0-1.63,.55-1.9,1.37l-3.54,10.63V9H27.52c0-1.1-.9-2-2-2H14.64c-.47,0-.92-.16-1.28-.46l-1.29-1.07c-.36-.3-.81-.46-1.28-.46H3.52c-1.1,0-2,.89-2,1.99V23c0,1.1,.9,2,2,2H25.52l4.81-11.21c.44-1.02-.03-2.19-1.05-2.63-.25-.11-.52-.16-.79-.16"/><path class="cls-2" d="M12.29,27.3l9.56-9.56-1.39-1.41-.72,.71c-.39,.39-1.01,.39-1.4,0l-.71-.71c-.39-.39-.39-1.01,0-1.4l5.64-5.64c.39-.39,1.01-.39,1.4,0l.71,.71c.39,.39,.39,1.01,0,1.4l-.71,.69,1.41,1.42c.39-.39,1.01-.39,1.4,0,.39,.39,.39,1.02,0,1.41l1.4,1.4,.71-.71c.39-.39,1.02-.39,1.41,0l.7,.71c.39,.39,.39,1.02,0,1.41l-5.63,5.62c-.39,.39-1.02,.39-1.41,0l-.7-.7c-.4-.39-.4-1.02,0-1.41l.7-.71-1.4-1.4-9.57,9.56c-.39,.39-1.01,.39-1.4,0s-.39-1.02,0-1.41m17.64-1.28c1.1,0,1.99,.89,1.99,1.99v1h-9.96v-1c0-1.1,.89-1.99,1.99-1.99,0,0,5.98,0,5.98,0Z"/></svg>