<svg xmlns="http://www.w3.org/2000/svg" viewBox="0 0 16 16"><path id="folder" fill="#ff9800" d="m6.922 3.768-.644-.536A1 1 0 0 0 5.638 3H2a1 1 0 0 0-1 1v8a1 1 0 0 0 1 1h12a1 1 0 0 0 1-1V5a1 1 0 0 0-1-1H7.562a1 1 0 0 1-.64-.232"/><path id="motive" fill="#ffe0b2" d="M14.978 9.843a3.2 3.2 0 0 0-1.074-1.935c-.188-.16-2.748-2.125-3.375-2.592l-.179-.138a.523.523 0 1 0-.637.828l1.26.97.031.024H6.498a.497.497 0 0 0-.04.992l.003.002.015.002.022.004h2.256l-3.867 2.98a.78.78 0 0 0-.263.608.5.5 0 0 0 .22.412.74.74 0 0 0 .758.012 1.6 1.6 0 0 0 .38-.277 116 116 0 0 1 1.842-1.5 1 1 0 0 1-.006.134 1.8 1.8 0 0 0 .045.629 3.1 3.1 0 0 0 .54 1.144 3.64 3.64 0 0 0 2.29 1.38c.125.022.212.033.437.055.08.008.592-.004.69-.015a3.75 3.75 0 0 0 2.19-1.01 3.2 3.2 0 0 0 .963-1.8 4 4 0 0 0 .004-.908m-1.401.465a1.9 1.9 0 0 1-.545 1.024 2 2 0 0 1-.619.441 2.4 2.4 0 0 1-.806.218 2.14 2.14 0 0 1-2.418-1.906 1.95 1.95 0 0 1 1.041-1.784 2.38 2.38 0 0 1 2.846.4 1.9 1.9 0 0 1 .325.467 1.8 1.8 0 0 1 .17.489 2.3 2.3 0 0 1 .006.652m-.775-.667a.9.9 0 0 1 .03.28.9.9 0 0 1-.025.273 1.2 1.2 0 0 1-.362.608 1.43 1.43 0 0 1-.879.386 1 1 0 0 1-.275-.001 1.4 1.4 0 0 1-1.133-.755 2 2 0 0 1-.077-.196 1.18 1.18 0 0 1 .301-1.138 1.43 1.43 0 0 1 .753-.412 1.7 1.7 0 0 1 .766.043 1.34 1.34 0 0 1 .901.911"/></svg>