<svg xmlns="http://www.w3.org/2000/svg" viewBox="0 0 16 16"><path id="folder" fill="#0277bd" d="m6.922 3.768-.644-.536A1 1 0 0 0 5.638 3H2a1 1 0 0 0-1 1v8a1 1 0 0 0 1 1h12a1 1 0 0 0 1-1V5a1 1 0 0 0-1-1H7.562a1 1 0 0 1-.64-.232"/><path id="motive" fill="#e1f5fe" d="M11 4a5 5 0 0 0-4.178 2.255l.321.007c.525 0 1.335-.063 1.335-.063a.207.207 0 0 1 .035.412l-.578.06 1.824 5.401 1.094-3.28-.78-2.121-.53-.06a.207.207 0 0 1 .035-.412l1.316.063c.525 0 1.336-.063 1.336-.063a.207.207 0 0 1 .03.412l-.571.06 1.806 5.36.501-1.666a6.4 6.4 0 0 0 .379-1.614 2.6 2.6 0 0 0-.415-1.382 2.34 2.34 0 0 1-.49-1.17.865.865 0 0 1 .841-.886h.064A5 5 0 0 0 11 4m4.39 2.6.034.52a4.8 4.8 0 0 1-.385 1.787l-1.527 4.411a5 5 0 0 0 1.877-6.717m-8.958.362A5.1 5.1 0 0 0 6 9.002 4.99 4.99 0 0 0 8.82 13.5zm4.657 2.476-1.498 4.36a5.03 5.03 0 0 0 3.073-.082l-.037-.071z"/></svg>