<?xml version="1.0" encoding="UTF-8"?>
<svg xmlns="http://www.w3.org/2000/svg" xmlns:xlink="http://www.w3.org/1999/xlink" width="24pt" height="24pt" viewBox="0 0 24 24" version="1.1">
<g id="surface1">
<path style=" stroke:none;fill-rule:nonzero;fill:rgb(0%,74.901961%,64.705882%);fill-opacity:1;" d="M 13.851562 19.113281 L 13.851562 18.164062 L 12.65625 18.164062 L 12.65625 16.21875 L 16.429688 16.21875 L 16.429688 18.136719 L 16.378906 18.148438 C 16.347656 18.15625 16.074219 18.164062 15.769531 18.164062 L 15.210938 18.164062 L 15.210938 19.113281 C 15.210938 19.941406 15.207031 20.0625 15.175781 20.0625 C 15.15625 20.0625 15.140625 20.046875 15.140625 20.027344 C 15.140625 19.996094 15.054688 19.992188 14.53125 19.992188 C 14.007812 19.992188 13.921875 19.996094 13.921875 20.027344 C 13.921875 20.046875 13.90625 20.0625 13.886719 20.0625 C 13.855469 20.0625 13.851562 19.941406 13.851562 19.113281 Z M 13.851562 19.113281 "/>
<path style=" stroke:none;fill-rule:nonzero;fill:rgb(0%,74.901961%,64.705882%);fill-opacity:1;" d="M 18.703125 19.113281 L 18.703125 18.164062 L 17.507812 18.164062 L 17.507812 16.21875 L 21.28125 16.21875 L 21.28125 18.136719 L 21.230469 18.148438 C 21.199219 18.15625 20.925781 18.164062 20.621094 18.164062 L 20.0625 18.164062 L 20.0625 19.101562 C 20.0625 19.710938 20.054688 20.039062 20.039062 20.039062 C 20.027344 20.039062 20.015625 20.03125 20.015625 20.015625 C 20.015625 20 19.792969 19.992188 19.394531 19.992188 C 18.859375 19.992188 18.773438 19.996094 18.773438 20.027344 C 18.773438 20.046875 18.757812 20.0625 18.738281 20.0625 C 18.707031 20.0625 18.703125 19.941406 18.703125 19.113281 Z M 18.703125 19.113281 "/>
<path style=" stroke:none;fill-rule:nonzero;fill:rgb(0%,74.901961%,64.705882%);fill-opacity:1;" d="M 10.3125 20.015625 C 10.3125 20 9.222656 19.992188 7.09375 19.992188 C 3.554688 19.992188 3.660156 19.996094 3.28125 19.847656 C 3.089844 19.777344 2.875 19.648438 2.703125 19.503906 C 2.441406 19.289062 2.171875 18.859375 2.070312 18.492188 C 2.03125 18.347656 2.027344 18.066406 2.027344 12 L 2.027344 5.660156 L 2.082031 5.476562 C 2.195312 5.082031 2.453125 4.691406 2.75 4.457031 C 2.933594 4.304688 3.265625 4.140625 3.503906 4.070312 L 3.691406 4.019531 L 6.84375 4.011719 L 9.996094 4.007812 L 11.988281 6 L 15.964844 6 C 18.546875 6 20.023438 6.007812 20.175781 6.023438 C 20.699219 6.078125 21.101562 6.28125 21.460938 6.664062 C 21.695312 6.917969 21.820312 7.140625 21.929688 7.515625 C 21.96875 7.644531 21.972656 7.890625 21.980469 11.503906 C 21.984375 14.277344 21.992188 15.367188 22.011719 15.390625 C 22.066406 15.457031 21.917969 15.417969 21.769531 15.332031 C 21.460938 15.144531 21.597656 15.15625 19.4375 15.144531 L 17.507812 15.136719 L 17.507812 13.195312 L 18.703125 13.195312 L 18.703125 9.703125 L 15.210938 9.703125 L 15.210938 13.195312 L 16.429688 13.195312 L 16.425781 14.164062 L 16.417969 15.128906 L 14.484375 15.140625 C 12.984375 15.152344 12.53125 15.160156 12.457031 15.183594 C 12.039062 15.320312 11.722656 15.648438 11.613281 16.058594 C 11.585938 16.15625 11.578125 16.390625 11.578125 17.164062 C 11.578125 17.699219 11.574219 18.144531 11.574219 18.144531 C 11.570312 18.148438 11.296875 18.15625 10.96875 18.164062 L 10.371094 18.175781 L 10.363281 19.109375 C 10.363281 19.703125 10.351562 20.039062 10.335938 20.039062 C 10.320312 20.039062 10.3125 20.03125 10.3125 20.015625 Z M 10.3125 20.015625 "/>
<path style=" stroke:none;fill-rule:nonzero;fill:rgb(65.490196%,100%,92.156863%);fill-opacity:1;" d="M 10.300781 19.988281 C 10.292969 19.027344 10.285156 18.214844 10.292969 18.175781 L 10.300781 18.105469 L 10.898438 18.09375 C 11.226562 18.085938 11.5 18.078125 11.503906 18.074219 C 11.503906 18.074219 11.507812 17.628906 11.507812 17.09375 C 11.507812 16.320312 11.515625 16.085938 11.542969 15.988281 C 11.652344 15.578125 11.96875 15.25 12.386719 15.113281 C 12.460938 15.089844 12.914062 15.082031 14.414062 15.070312 L 16.347656 15.058594 L 16.355469 14.164062 L 16.359375 13.265625 L 15.140625 13.265625 L 15.140625 9.632812 L 18.773438 9.632812 L 18.773438 13.265625 L 17.578125 13.265625 L 17.578125 15.066406 L 19.507812 15.074219 C 21.640625 15.085938 21.527344 15.074219 21.804688 15.238281 C 21.957031 15.328125 22.011719 15.375 22.140625 15.542969 C 22.273438 15.71875 22.355469 15.898438 22.382812 16.097656 C 22.394531 16.183594 22.40625 16.671875 22.40625 17.1875 L 22.40625 18.117188 L 23.625 18.117188 L 23.625 21.726562 L 20.003906 21.726562 L 19.988281 18.09375 L 20.546875 18.09375 C 20.855469 18.09375 21.128906 18.085938 21.160156 18.078125 L 21.210938 18.066406 L 21.210938 16.289062 L 17.578125 16.289062 L 17.578125 18.09375 L 18.773438 18.09375 L 18.773438 21.726562 L 15.140625 21.726562 L 15.140625 18.09375 L 15.699219 18.09375 C 16.003906 18.09375 16.277344 18.085938 16.308594 18.078125 L 16.359375 18.066406 L 16.359375 16.289062 L 12.726562 16.289062 L 12.726562 18.09375 L 13.921875 18.09375 L 13.921875 21.726562 L 10.316406 21.726562 Z M 10.300781 19.988281 "/>
</g>
</svg>
