<svg width="24" height="24" xmlns="http://www.w3.org/2000/svg" xmlns:svg="http://www.w3.org/2000/svg" clip-rule="evenodd">
 <g>
  <title>Layer 1</title>
  <path d="m19,20l-15,0c-1.11,0 -2,-0.9 -2,-2l0,-12c0,-1.11 0.89,-2 2,-2l6,0l2,2l7,0c1.097,0 2,0.903 2,2l-17,0l0,10l2.14,-8l17.07,0l-2.28,8.5c-0.23,0.87 -1.01,1.5 -1.93,1.5z" fill="rgb(255,138,101)" fill-rule="nonzero" id="svg_1"/>
  <g transform="matrix(0.67606,0,0,0.67606,9.1073,7.3873) " fill="#bbdefb" id="svg_2">
   <path d="m8.36921,15.94068c-0.26645,-2.69873 -0.48293,-4.9411 -0.48107,-4.98305c0.0019,-0.04195 -0.22543,-0.07627 -0.50509,-0.07627l-0.50847,0l0,-0.9661l0,-0.96611l1.98305,0l1.98305,0l0,-1.87538l0,-1.87538l1.87142,-1.12462c1.13973,-0.68492 1.97776,-1.12462 2.14341,-1.12462c0.40001,0 0.86652,0.50546 0.86652,0.93885c0,0.18937 -0.05719,0.42213 -0.12711,0.51724c-0.06991,0.09511 -0.72204,0.52958 -1.44916,0.96549l-1.32203,0.79256l-0.02829,1.39293l-0.02829,1.39293l1.98592,0l1.98592,0l0,0.96611l0,0.9661l-0.48983,0l-0.48982,0l-0.49493,4.98305l-0.49492,4.98305l-2.95791,0l-2.95792,0l-0.48445,-4.90678z" fill="#e53935" fill-rule="nonzero" id="svg_3"/>
  </g>
 </g>
</svg>
