<svg width="32" height="32" viewBox="0 0 32 32" fill="none" xmlns="http://www.w3.org/2000/svg">
<path d="M13.8 7.5L12.5 6.4C12.2 6.2 11.7 6 11.3 6H4C2.9 6 2 6.9 2 8V24C2 25.1 2.9 26 4 26H28C29.1 26 30 25.1 30 24V10C30 8.9 29.1 8 28 8H15.1C14.6 8 14.2 7.9 13.8 7.5Z" fill="#7E57C2"/>
<g clip-path="url(#clip0_382_315)">
<path d="M20 23H26H32V29H12V23H18L26 19H18.5H12V13H32V19L20 23Z" fill="#D1C4E9"/>
<path d="M26 13H12V19H26V13Z" fill="#D1C4E9"/>
<path d="M32 23H20V29H32V23Z" fill="#D1C4E9"/>
</g>
<defs>
<clipPath id="clip0_382_315">
<rect width="20" height="16" fill="white" transform="translate(12 13)"/>
</clipPath>
</defs>
</svg>
