<svg xmlns="http://www.w3.org/2000/svg" viewBox="0 0 16 16"><path id="folder" fill="#1976d2" d="m6.922 3.768-.644-.536A1 1 0 0 0 5.638 3H2a1 1 0 0 0-1 1v8a1 1 0 0 0 1 1h12a1 1 0 0 0 1-1V5a1 1 0 0 0-1-1H7.562a1 1 0 0 1-.64-.232"/><g id="motive" fill="none" stroke="#bbdefb" stroke-width="2.1" stroke-linecap="round" stroke-linejoin="round" transform="translate(7.2 5.2) scale(0.58)"><path d="M8 6.4v4.9"/><path d="M7.5 7.4C6.8 4.7 4.3 2.4 2.8 3.5 1.4 4.6 3.3 7.9 7.5 8.7Z"/><path d="M8.5 7.4c.7-2.7 3.2-5 4.7-3.9 1.4 1.1-.5 4.4-4.7 5.2Z"/><path d="M7.6 10c-1.9-.3-3.6.6-3.3 1.9.3 1.2 2.2.8 3.3-.8Z"/><path d="M8.4 10c1.9-.3 3.6.6 3.3 1.9-.3 1.2-2.2.8-3.3-.8Z"/></g></svg>
