<?xml version="1.0" encoding="UTF-8"?>
<svg clip-rule="evenodd" fill-rule="evenodd" stroke-linejoin="round" stroke-miterlimit="1.414" version="1.1" viewBox="0 0 24 24" xml:space="preserve" xmlns="http://www.w3.org/2000/svg"><path d="M10 4H4c-1.11 0-2 .89-2 2v12c0 1.097.903 2 2 2h16c1.097 0 2-.903 2-2V8a2 2 0 0 0-2-2h-8l-2-2z" fill="#ef5350" fill-rule="nonzero"/><path d="m17.251 13.933c-0.15772 0.50783-0.3841 1.0463-0.69071 1.637-0.13393 0.25766-0.26446 0.49968-0.33516 0.70431l0.07411-0.02855v6.8e-4c0.86271-0.33312 1.6785-0.52347 2.2713-0.62884-0.10333-0.07274-0.19919-0.14684-0.28417-0.22027-0.40178-0.34603-0.75665-0.84911-1.0354-1.4644zm4.4012 2.5922c-0.11013 0.13189-0.31884 0.20327-0.61117 0.20327-0.52075 0-1.3447-0.15568-2.0293-0.5024-1.1863 0.12305-2.0613 0.28485-2.752 0.50987-0.03604 0.0136-0.07955 0.02991-0.12508 0.04827-0.84504 1.4426-1.4691 2.0864-2.0218 2.0864-0.10403 0-0.20463-0.02379-0.29845-0.0707l-0.32633-0.21415-0.01564-0.03535c-0.05369-0.11761-0.06322-0.23454-0.03602-0.36643 0.07206-0.35963 0.4446-0.92797 1.2794-1.4399 0.12917-0.0945 0.32971-0.20599 0.60504-0.33312 0.20124-0.35487 0.41879-0.76685 0.64721-1.2271 0.34807-0.69683 0.56426-1.3896 0.73898-1.9879l-0.0027-0.0082c-0.25018-0.82328-0.4011-1.3182-0.14888-2.2197 0.0741-0.26241 0.28417-0.52755 0.54047-0.52755l0.16044 0.0014c0.15908 0 0.30252 0.05709 0.41266 0.16587 0.44801 0.448 0.2427 1.5412 0.01496 2.444-0.01088 0.04419-0.01835 0.07411-0.02379 0.09587 0.26785 0.76686 0.65196 1.3835 1.085 1.7383 0.17336 0.13733 0.37051 0.27125 0.58602 0.3977 0.31-0.03399 0.60641-0.05031 0.88242-0.05031 0.84299 0 1.3495 0.15228 1.5487 0.46704 0.07206 0.11217 0.1013 0.24202 0.08362 0.37459-0.0054 0.17268-0.07138 0.32768-0.19375 0.45005zm0.74306-7.988h-9.5177c-0.7512 0-1.3597 0.60844-1.3597 1.3597v9.5177c0 0.75053 0.60846 1.3597 1.3597 1.3597h9.5177c0.75053 0 1.3597-0.60913 1.3597-1.3597v-9.5177c0-0.75122-0.60913-1.3597-1.3597-1.3597zm-1.0109 7.5081c-0.07546-0.07274-0.35419-0.24202-1.3032-0.24202-0.04691 0-0.0945 0-0.15568 0.06798 0.50172 0.21823 0.98372 0.34807 1.293 0.34807 0.04759 0 0.09178-0.0034 0.13257-0.0095l0.02311-0.0048c0.03263-0.01088 0.05439-0.02107 0.06119-0.0877-0.0102-0.017-0.02583-0.04351-0.05099-0.07206zm-6.2429 0.98848c-0.14413 0.0843-0.25562 0.15772-0.32361 0.21415-0.48677 0.44121-0.78861 0.88718-0.826 1.151 0.30865-0.10673 0.70907-0.5527 1.1496-1.3651zm2.0504-4.6943 0.03671-0.02583c0.04963-0.22027 0.08226-0.40856 0.10945-0.5595l0.0204-0.11081c0.06594-0.36778 0.05711-0.5799-0.06594-0.74442l-0.10062-0.03399c-0.01292 0.01971-0.03263 0.04894-0.04555 0.08021-0.11353 0.28214-0.10945 0.78114 0.04555 1.3943z" fill="#ffcdd2" stroke-linejoin="round" stroke-width=".13597"/></svg>
