<svg xmlns="http://www.w3.org/2000/svg" viewBox="0 0 32 32">
  <path d="M28.96692,12H9.44152a2,2,0,0,0-1.89737,1.36754L4,24V10H28a2,2,0,0,0-2-2H15.1241a2,2,0,0,1-1.28038-.46357L12.5563,6.46357A2,2,0,0,0,11.27592,6H4A2,2,0,0,0,2,8V24a2,2,0,0,0,2,2H26l4.80523-11.21213A2,2,0,0,0,28.96692,12Z" style="fill: #42a5f5"/>
  <g>
    <path d="M19.96573,10a11.71626,11.71626,0,0,0-2.66428.8713,18.39771,18.39771,0,0,0,.1657,2.093,10.76561,10.76561,0,0,0-.98285.6095A9.07829,9.07829,0,0,0,15.57,14.291a17.593,17.593,0,0,0-1.77857-.98856A13.09806,13.09806,0,0,0,12,15.54413,18.16909,18.16909,0,0,0,13.21,17.209h.01142v5.056l.02858.00136,3.24714.29861a.34041.34041,0,0,1,.31572.30952l.1,1.36764,2.83287.19225.19571-1.26263a.34528.34528,0,0,1,.34572-.285h3.42572a.34555.34555,0,0,1,.34571.285l.19572,1.26263,2.83281-.19223.1-1.36763a.34459.34459,0,0,1,.31572-.30952l3.24573-.29862.02857-.00136v-.4036h.00142v-4.651H30.79A18.16737,18.16737,0,0,0,32,15.5455a13.09179,13.09179,0,0,0-1.79143-2.24166A17.83482,17.83482,0,0,0,28.43,14.291a9.07829,9.07829,0,0,0-.91429-.71721,11.053,11.053,0,0,0-.98142-.6095A18.78113,18.78113,0,0,0,26.7,10.8713,11.79554,11.79554,0,0,0,24.03427,10a17.70418,17.70418,0,0,0-.99,1.83939,6.94536,6.94536,0,0,0-1.03716-.07908h-.01427a6.94536,6.94536,0,0,0-1.03716.07908A17.70376,17.70376,0,0,0,19.96573,10Zm-2.56854,7.39582a1.8707,1.8707,0,1,1,.10915,3.736l-.00346.00009a1.87067,1.87067,0,1,1-.10572-3.73609Zm9.20574,0a1.87011,1.87011,0,1,1,.02587,3.73607q-.01152.00008-.023,0h-.00142a1.87011,1.87011,0,1,1-.02459-3.73608Q26.59135,17.39577,26.60293,17.39582ZM22.00007,18.488a.59336.59336,0,0,1,.63.54678v1.71948a.62553.62553,0,0,1-.69.544.619.619,0,0,1-.57-.544V19.03479A.59249.59249,0,0,1,22,18.488Z" style="fill: #bbdefb"/>
    <path d="M27.8629,23.20312l-.1,1.37581a.33955.33955,0,0,1-.32428.30953L23.98,25.123l-.02571.00136a.34527.34527,0,0,1-.34566-.285l-.19714-1.28445H20.58859L20.39,24.83937a.34525.34525,0,0,1-.37142.28358L16.56,24.88705a.34514.34514,0,0,1-.32428-.30952l-.1-1.37581-2.92-.26863.00571.69268c0,2.9439,3.91144,4.35787,8.77145,4.37423h.01143c4.86-.01636,8.77145-1.43035,8.77145-4.37423l.00571-.69268Z" style="fill: #bbdefb"/>
  </g>
</svg>
