<svg xmlns="http://www.w3.org/2000/svg" viewBox="0 0 16 16"><path id="folder" fill="#0288d1" d="m6.922 3.768-.644-.536A1 1 0 0 0 5.638 3H2a1 1 0 0 0-1 1v8a1 1 0 0 0 1 1h12a1 1 0 0 0 1-1V5a1 1 0 0 0-1-1H7.562a1 1 0 0 1-.64-.232"/><path id="motive" fill="#90caf9" d="m10.986 10.834.349.348a.5.5 0 0 0 .707 0l2.813-2.811a.5.5 0 0 0 0-.707l-.349-.353a.5.5 0 0 0-.707 0l-.353.353-.702-.702a.5.5 0 0 0 0-.706.495.495 0 0 0-.702 0l-.707-.712.353-.343a.495.495 0 0 0 0-.702l-.353-.353a.495.495 0 0 0-.702 0L7.815 6.962a.495.495 0 0 0 0 .702l.353.353a.495.495 0 0 0 .702 0l.359-.353.697.707-4.78 4.777a.5.5 0 0 0 0 .707.495.495 0 0 0 .702 0l4.785-4.783.702.702-.349.353a.49.49 0 0 0 0 .707M12 13h3a1 1 0 0 1 1 1v1h-5v-1a1 1 0 0 1 1-1"/></svg>