<svg xmlns="http://www.w3.org/2000/svg" viewBox="0 0 32 32"><path d="M28.967,12H9.442a2,2,0,0,0-1.898,1.368L4,24V10H28a2,2,0,0,0-2-2H15.124a2,2,0,0,1-1.28-.464L12.556,6.464A2,2,0,0,0,11.276,6H4A2,2,0,0,0,2,8V24a2,2,0,0,0,2,2H26l4.805-11.212A2,2,0,0,0,28.967,12Z" style="fill:#689f38"/><path d="M24,14v4h1.5a.5.5,0,0,1,.5.5v5a.5.5,0,0,1-.5.5h-5a.5.5,0,0,1-.5-.5v-5a.5.5,0,0,1,.5-.5H22V14H12a2,2,0,0,0-2,2v4a2,2,0,0,0,2,2h3.20227l.3006,2A4.55257,4.55257,0,0,0,20,28h6a4.55257,4.55257,0,0,0,4.49713-4L32,14ZM12,20V16h2.3006l.60113,4Z" style="fill:#dcedc8"/></svg>