<?xml version="1.0" encoding="UTF-8" standalone="no"?><!-- Generator: Gravit.io --><svg xmlns="http://www.w3.org/2000/svg" xmlns:xlink="http://www.w3.org/1999/xlink" style="isolation:isolate" viewBox="0 0 22.5 19" width="22.5pt" height="19pt"><defs><clipPath id="_clipPath_UjeFvZMa7oRl49g0CLwLu6d4gSq0wmkw"><rect width="22.5" height="19"/></clipPath></defs><g clip-path="url(#_clipPath_UjeFvZMa7oRl49g0CLwLu6d4gSq0wmkw)"><rect width="22.5" height="19" style="fill:rgb(0,0,0)" fill-opacity="0"/><g><path d=" M 8 0 L 2 0 C 0.89 0 0 0.89 0 2 L 0 14 C 0 15.105 0.895 16 2 16 L 18 16 C 19.105 16 20 15.105 20 14 L 20 4 C 20 2.89 19.1 2 18 2 L 10 2 L 8 0 Z " fill="rgb(25,118,210)"/><path d=" M 14.258 9.999 L 15.497 11.232 L 14.732 11.997 L 13.499 10.758 L 12.265 11.997 L 11.5 11.232 L 12.739 9.999 L 11.5 8.765 L 12.265 8 L 13.499 9.239 L 14.732 8 L 15.497 8.765 M 22.5 15.768 L 21.735 15.003 L 20.501 16.242 L 19.268 15.003 L 18.503 15.768 L 19.742 17.001 L 18.503 18.235 L 19.268 19 L 20.501 17.761 L 21.735 19 L 22.5 18.235 L 21.261 17.001 M 21.525 10.715 L 19.79 12.961 L 18.939 12.277 L 19.57 11.469 C 17.936 11.801 16.584 12.942 15.982 14.497 C 16.951 15.195 17.266 16.495 16.725 17.56 C 16.185 18.625 14.949 19.138 13.813 18.768 C 12.678 18.398 11.981 17.256 12.171 16.077 C 12.361 14.898 13.382 14.033 14.576 14.039 C 14.717 14.039 14.858 14.054 14.996 14.082 C 15.754 12.201 17.401 10.822 19.386 10.408 L 18.616 9.826 L 19.3 8.975 M 15.923 16.463 C 15.923 15.719 15.32 15.116 14.576 15.116 C 13.832 15.116 13.229 15.719 13.229 16.463 C 13.229 17.207 13.832 17.81 14.576 17.81 C 15.32 17.81 15.923 17.207 15.923 16.463 Z " fill="rgb(79,195,247)"/></g></g></svg>