<svg viewBox="0 0 24 24" xmlns="http://www.w3.org/2000/svg"><path stroke="null" fill="#fbc02d" d="m9.9375,4.0625l-6,0c-1.11,0 -2,0.89 -2,2l0,12a2,2 0 0 0 2,2l16,0a2,2 0 0 0 2,-2l0,-10c0,-1.11 -0.9,-2 -2,-2l-8,0l-2,-2z"/><path stroke="null" fill="#fff9c4" d="m21.64772,18.70831l-11.60804,0l0,-8.00005l11.60804,0m0,-1.33334l-11.60804,0a1.28978,1.33334 0 0 0 -1.28978,1.33334l0,8.00005a1.28978,1.33334 0 0 0 1.28978,1.33334l3.22445,0l0,1.33334l5.15913,0l0,-1.33334l3.22445,0a1.28978,1.33334 0 0 0 1.28978,-1.33334l0,-8.00005a1.28978,1.33334 0 0 0 -1.28978,-1.33334z"/></svg>