<svg xmlns="http://www.w3.org/2000/svg" viewBox="0 0 16 16"><path id="folder" fill="#0288d1" d="m6.922 3.768-.644-.536A1 1 0 0 0 5.638 3H2a1 1 0 0 0-1 1v8a1 1 0 0 0 1 1h12a1 1 0 0 0 1-1V5a1 1 0 0 0-1-1H7.562a1 1 0 0 1-.64-.232"/><path id="motive" fill="#b3e5fc" d="M12 8h-1.491l.07-.838.001-.005a.973.973 0 0 1 1.924-.242l.738-.844a1.95 1.95 0 0 0-1.506-1.063 2.07 2.07 0 0 0-2.131 2.053L9.524 8H8v1h1.435l-.264 2.937a1.02 1.02 0 0 1-.674.888l-.013.005a.96.96 0 0 1-1.226-.733l-.738.844a1.96 1.96 0 0 0 1.495 1.05 2.065 2.065 0 0 0 2.137-2.04L10.42 9H12Zm4 2.465-.707-.707-1.414 1.414-1.415-1.415-.707.708 1.414 1.414-1.414 1.414.707.707 1.414-1.414L15.293 14l.707-.707-1.414-1.414z"/></svg>