<svg clip-rule="evenodd" stroke-linejoin="round" stroke-miterlimit="1.4142" version="1.1" viewBox="0 0 24 24" xml:space="preserve" xmlns="http://www.w3.org/2000/svg"><path d="m19 20h-15c-1.11 0-2-0.9-2-2v-12c0-1.11 0.89-2 2-2h6l2 2h7c1.097 0 2 0.903 2 2h-17v10l2.14-8h17.07l-2.28 8.5c-0.23 0.87-1.01 1.5-1.93 1.5z" fill="#5c6bc0"/><g transform="matrix(.23307 0 0 .23307 11.419 8.706)" fill="#c5cae9"><path class="rect-dark" d="m36.4 39.13 16.4-9.46v-18.95l-16.4 9.48"/><path class="rect-light" d="m18.2 10.72 16.4 9.48v18.93l-16.4-9.47"/><path class="rect-light" d="m0 19.09 16.4 9.47v-18.94l-16.4-9.47m18.2 50.53 16.4 9.47v-18.94l-16.4-9.47"/></g></svg>
