<svg xmlns="http://www.w3.org/2000/svg" viewBox="0 0 32 32">
  <path d="M28.96692,12H9.44152a2,2,0,0,0-1.89737,1.36754L4,24V10H28a2,2,0,0,0-2-2H15.1241a2,2,0,0,1-1.28038-.46357L12.5563,6.46357A2,2,0,0,0,11.27592,6H4A2,2,0,0,0,2,8V24a2,2,0,0,0,2,2H26l4.80523-11.21213A2,2,0,0,0,28.96692,12Z" style="fill: #0097a7"/>
  <path d="M31.39971,13.69245a3.29905,3.29905,0,0,0-2.86849-1.69188c-1.09722-.022-1.99778.59278-1.82825.99619a6.33494,6.33494,0,0,0,.3689.72588c.1831.26894.51.06174.62388,0a1.83674,1.83674,0,0,1,1.12434-.19348,1.67817,1.67817,0,0,1,1.27624.97973c.8314,1.61778-1.736,4.94527-4.95034,2.64142a8.34408,8.34408,0,0,0-7.75376-1.07716c-1.41458.46517-2.06559.9317-1.50545,2.0116a20.9777,20.9777,0,0,0,1.2437,2.23251c1.17044,1.92926,3.73243-.8878,3.73243-.8878-1.90826,2.84588-3.54391,2.15842-4.17186,1.1636a15.5904,15.5904,0,0,1-1.00364-1.93063C10.8537,20.38724,12.16113,28,12.16113,28h2.40058c.61032-2.80333,2.79933-2.699,3.17366,0h1.831c1.62074-5.47493,5.72614,0,5.72614,0h2.387c-.66863-3.73228,1.3427-4.90686,2.61081-7.09545C31.55839,18.71457,32.75869,16.03747,31.39971,13.69245ZM25.24227,20.9018a1.27825,1.27825,0,0,1-.84486-1.58879q.0149-.05017.03382-.099s1.10264.36088,2.59318.85211A1.43193,1.43193,0,0,1,25.24227,20.9018Z" style="fill: #b2ebf2;fill-rule: evenodd"/>
</svg>
