<svg xmlns="http://www.w3.org/2000/svg" viewBox="0 0 16 16">
<path id="folder" fill="#ff9800" d="m6.922 3.768-.644-.536A1 1 0 0 0 5.638 3H2a1 1 0 0 0-1 1v8a1 1 0 0 0 1 1h12a1 1 0 0 0 1-1V5a1 1 0 0 0-1-1H7.562a1 1 0 0 1-.64-.232" />
<path id="motive" fill="#ffe0b2" d="m 11,6 c -0.554,0 -1,0.446 -1,1 v 6 c 0,0.554 0.446,1 1,1 0.554,0 1,-0.446 1,-1 V 7 C 12,6.446 11.554,6 11,6 Z M 7,9 c -0.554,0 -1,0.446 -1,1 0,0.554 0.446,1 1,1 H 8 C 8.554,11 9,10.554 9,10 9,9.446 8.554,9 8,9 Z m 7,0 c -0.554,0 -1,0.446 -1,1 0,0.554 0.446,1 1,1 h 1 c 0.554,0 1,-0.446 1,-1 0,-0.554 -0.446,-1 -1,-1 z" />
</svg>
