<svg xmlns="http://www.w3.org/2000/svg" viewBox="0 0 32 32">
  <path d="M28.96692,12H9.44152a2,2,0,0,0-1.89737,1.36754L4,24V10H28a2,2,0,0,0-2-2H15.1241a2,2,0,0,1-1.28038-.46357L12.5563,6.46357A2,2,0,0,0,11.27592,6H4A2,2,0,0,0,2,8V24a2,2,0,0,0,2,2H26l4.80523-11.21213A2,2,0,0,0,28.96692,12Z" style="fill: #009688"/>
  <path d="M16,14V26a2,2,0,0,0,2,2H30a2,2,0,0,0,2-2V14a2,2,0,0,0-2-2H18A2,2,0,0,0,16,14Zm2,0h2a2,2,0,0,1-2,2Zm0,4a3.99891,3.99891,0,0,0,4-4h2a6.00475,6.00475,0,0,1-6,6Zm0,8,4-4,1.6,1.6L26,20l4,6Z" style="fill: #b2dfdb"/>
</svg>
