<svg width="16" height="16" xmlns="http://www.w3.org/2000/svg"><path fill="#ffc107" d="M14.989 6H4.834c-.466 0-.829.3-.984.7L2 12V5h12.47c0-.55-.466-1-1.035-1H7.787c-.259 0-.466-.1-.673-.25L6.44 3.2a1.3 1.3 0 00-.622-.2H2.036C1.466 3 1 3.45 1 4v8c0 .55.466 1 1.036 1h11.399l2.486-5.6c.358-.862-.503-1.4-.932-1.4z"/><path fill="#ffecb3" d="M15.947 6.079c-.145-.242-1.174-.252-1.947.231.048-1.16-.516-2.308-.758-2.308-.241-.049-1.062.887-1.352 1.998-.628-.676-1.546-.839-1.739-.646-.21.217-.258 1.646.29 2.657-.676.773-1.111 1.932-1.111 3.188 0 2.318 1.4 2.801 3.14 2.801 1.738 0 3.12-.483 3.12-2.801 0-.966-.155-1.836-.59-2.56.87-.822 1.14-2.319.947-2.56z"/></svg>
