<?xml version="1.0" encoding="UTF-8" standalone="no"?>
<svg
   xmlns:dc="http://purl.org/dc/elements/1.1/"
   xmlns:cc="http://creativecommons.org/ns#"
   xmlns:rdf="http://www.w3.org/1999/02/22-rdf-syntax-ns#"
   xmlns:svg="http://www.w3.org/2000/svg"
   xmlns="http://www.w3.org/2000/svg"
   xmlns:sodipodi="http://sodipodi.sourceforge.net/DTD/sodipodi-0.dtd"
   xmlns:inkscape="http://www.inkscape.org/namespaces/inkscape"
   clip-rule="evenodd"
   fill-rule="evenodd"
   stroke-linejoin="round"
   stroke-miterlimit="1.4142"
   version="1.1"
   viewBox="0 0 24 24"
   xml:space="preserve"
   id="svg6"
   sodipodi:docname="folder-plugin.svg"
   inkscape:version="0.92.2 2405546, 2018-03-11"><metadata
     id="metadata12"><rdf:RDF><cc:Work
         rdf:about=""><dc:format>image/svg+xml</dc:format><dc:type
           rdf:resource="http://purl.org/dc/dcmitype/StillImage" /></cc:Work></rdf:RDF></metadata><defs
     id="defs10" /><sodipodi:namedview
     pagecolor="#ffffff"
     bordercolor="#666666"
     borderopacity="1"
     objecttolerance="10"
     gridtolerance="10"
     guidetolerance="10"
     inkscape:pageopacity="0"
     inkscape:pageshadow="2"
     inkscape:window-width="640"
     inkscape:window-height="480"
     id="namedview8"
     showgrid="false"
     inkscape:zoom="22.958333"
     inkscape:cx="5.6624319"
     inkscape:cy="12"
     inkscape:current-layer="svg6" /><path
     d="m10 4h-6c-1.11 0-2 .89-2 2v12c0 1.097.903 2 2 2h16c1.097 0 2-.903 2-2v-10c0-1.11-.9-2-2-2h-8l-2-2z"
     fill="#e57373"
     fill-rule="nonzero"
     style="fill:#5c6bc0;fill-opacity:1"
     id="path2" /><path
     d="m12.276 14.245h.92216v-2.4591c0-.6824.5533-1.2295 1.2295-1.2295h2.4591v-.92216a1.5369 1.5369 0 0 1 1.5369 -1.5369 1.5369 1.5369 0 0 1 1.5369 1.5369v.92216h2.4591a1.2295 1.2295 0 0 1 1.2295 1.2295v2.3361h-.92216c-.92216 0-1.6599.73773-1.6599 1.6599 0 .92216.73773 1.6599 1.6599 1.6599h.92216v2.3361a1.2295 1.2295 0 0 1 -1.2295 1.2295h-2.3361v-.92216c0-.92216-.73773-1.6599-1.6599-1.6599-.92216 0-1.6599.73773-1.6599 1.6599v.92216h-2.3361a1.2295 1.2295 0 0 1 -1.2295 -1.2295v-2.4591h-.92216a1.5369 1.5369 0 0 1 -1.5369 -1.5369 1.5369 1.5369 0 0 1 1.5369 -1.5369z"
     style="fill:#c5cae9;stroke-width:0.61477;fill-opacity:1"
     id="path4" /></svg>