<?xml version="1.0" encoding="utf-8"?>
<!-- Generator: Adobe Illustrator 23.0.4, SVG Export Plug-In . SVG Version: 6.00 Build 0)  -->
<svg version="1.1" id="Camada_1" xmlns="http://www.w3.org/2000/svg" xmlns:xlink="http://www.w3.org/1999/xlink" x="0px" y="0px"
	 viewBox="0 0 24 24" style="enable-background:new 0 0 24 24;" xml:space="preserve">
<style type="text/css">
	.st0{fill-rule:evenodd;clip-rule:evenodd;fill:#66BB6A;}
	.st1{fill:#C8E6C9;}
</style>
<path class="st0" d="M19,20H4c-1.1,0-2-0.9-2-2V6c0-1.1,0.9-2,2-2h6l2,2h7c1.1,0,2,0.9,2,2H4v10l2.1-8h17.1l-2.3,8.5
	C20.7,19.4,19.9,20,19,20z"/>
<g>
	<path class="st1" d="M22,20.5v0.6H10.5v-0.6l1.3-1.3v-3.8c0-2,1.3-3.7,3.2-4.3c0-0.1,0-0.1,0-0.2c0-0.7,0.6-1.3,1.3-1.3
		s1.3,0.6,1.3,1.3c0,0.1,0,0.1,0,0.2c1.9,0.6,3.2,2.3,3.2,4.3v3.8L22,20.5 M17.5,21.8c0,0.7-0.6,1.3-1.3,1.3s-1.3-0.6-1.3-1.3"/>
</g>
</svg>
