<?xml version="1.0" encoding="UTF-8" standalone="no"?>
<svg
   version="1.1"
   width="24"
   height="24"
   viewBox="0 0 24 24"
   id="svg4"
   xmlns="http://www.w3.org/2000/svg"
   xmlns:svg="http://www.w3.org/2000/svg">
  <defs
     id="defs8" />
  <g
     id="layer1"
     style="display:none">
    <path
       d="M 10,4 H 4 C 2.89,4 2,4.89 2,6 v 12 a 2,2 0 0 0 2,2 h 16 a 2,2 0 0 0 2,-2 V 8 C 22,6.89 21.1,6 20,6 h -8 z"
       id="path2"
       style="fill:#9575cd;fill-opacity:1" />
  </g>
  <g
     id="layer2"
     style="display:inline">
    <path
       d="M 19,20 H 4 C 2.89,20 2,19.1 2,18 V 6 C 2,4.89 2.89,4 4,4 h 6 l 2,2 h 7 a 2,2 0 0 1 2,2 V 8 H 4 v 10 l 2.14,-8 h 17.07 l -2.28,8.5 C 20.7,19.37 19.92,20 19,20 Z"
       id="path47"
       style="display:inline;fill:#9575cd;fill-opacity:1" />
  </g>
  <g
     id="layer3"
     style="display:inline">
    <path
       d="m 19.207881,20.728611 c -2.455667,0 -4.446922,-2.315707 -4.446922,-5.172171 0,-2.339883 1.764137,-5.198891 3.127477,-6.9407613 0.645091,-0.824494 1.864018,-1.4772184 1.864018,-1.4772184 0,0 -0.624732,3.3329657 1.070697,4.6562267 1.505209,1.175032 2.612169,2.703779 2.612169,4.048035 0,2.692328 -1.771134,4.885889 -4.227439,4.885889 z"
       style="display:inline;fill:#dfceff;stroke-width:0.799365;fill-opacity:1"
       id="path30" />
  </g>
</svg>
