<svg xmlns="http://www.w3.org/2000/svg" viewBox="0 0 32 32">
  <path d="M13.84376,7.53645l-1.28749-1.0729A2,2,0,0,0,11.27591,6H4A2,2,0,0,0,2,8V24a2,2,0,0,0,2,2H28a2,2,0,0,0,2-2V10a2,2,0,0,0-2-2H15.12412A2,2,0,0,1,13.84376,7.53645Z" style="fill: #7e57c2"/>
  <g>
    <polygon points="25 28 28 28 24 16 23 16 21 16 20 16 16 28 19 28 19.667 26 22.677 26 22 24 20.333 24 22 19 25 28" style="fill: #d1c4e9"/>
    <path d="M28,12a2.005,2.005,0,0,0-.416.04468A10.99553,10.99553,0,0,0,10.48236,25.51776a1.00311,1.00311,0,0,0,1.71918-1.03406A8.98584,8.98584,0,0,1,26.1,13.40564,1.9779,1.9779,0,0,0,26,14a2,2,0,1,0,2-2Z" style="fill: #d1c4e9"/>
  </g>
</svg>
