<svg width="24" height="24" viewBox="0 0 24 24" fill="none" xmlns="http://www.w3.org/2000/svg">
<path fill-rule="evenodd" clip-rule="evenodd" d="M19 20H4C3.46957 20 2.96086 19.7893 2.58579 19.4142C2.21071 19.0391 2 18.5304 2 18V6C2 4.89 2.89 4 4 4H10L12 6H19C20.097 6 21 6.903 21 8H4V18L6.14 10H23.21L20.93 18.5C20.7 19.37 19.92 20 19 20Z" fill="#2979FF"/>
<path fill-rule="evenodd" clip-rule="evenodd" d="M14.8253 9.63663C14.8253 10.2071 15.2396 10.6971 15.8317 10.9099V11.1264C15.8317 11.2604 15.8751 11.4858 15.9282 11.6275C16.1936 12.3365 16.8685 12.8085 17.8366 12.9621C18.3223 13.0392 18.4571 13.1069 18.5831 13.3376C18.7522 13.6472 18.6807 13.9294 18.3799 14.1398C18.136 14.3104 17.8123 14.3648 16.4424 14.4654C15.0322 14.569 14.6767 14.6244 14.2188 14.8118C13.4242 15.1369 12.9109 15.8904 13.0129 16.5816C13.1418 17.4557 13.8361 18.0522 14.8839 18.1893C15.3143 18.2455 15.4806 18.3144 15.6608 18.5108C15.7651 18.6245 15.8056 18.7237 15.8207 18.9022C15.8287 18.9958 15.8333 19.0528 15.8249 19.0925C15.2364 19.3067 14.8253 19.7951 14.8253 20.3634C14.8253 21.1292 15.572 21.75 16.4932 21.75C17.4038 21.75 18.144 21.1433 18.1608 20.3895H18.1733V20.2045L18.1692 20.1828C18.1468 20.0652 18.0991 19.9444 18.0326 19.8288C17.8769 19.5192 17.5899 19.2665 17.2294 19.1188C17.209 19.0826 17.2058 19.0336 17.2058 18.9503C17.2058 18.4714 16.941 17.9767 16.4957 17.6235C16.099 17.3089 15.5397 17.0915 15.1226 17.0898C15.0544 17.0896 14.9012 17.0501 14.7821 17.0022C14.4968 16.8873 14.3314 16.6224 14.3695 16.3412C14.4041 16.0857 14.532 15.9495 14.8671 15.8113C15.1204 15.7068 15.2683 15.6871 16.5549 15.5873C17.3305 15.5271 18.0921 15.4503 18.2474 15.4167C18.965 15.2613 19.5328 14.8905 19.817 14.3917C19.9556 14.1483 19.982 14.0494 19.9971 13.717C20.017 13.2754 19.9381 13.0085 19.6909 12.6818C19.3559 12.2389 18.8587 11.9759 18.1406 11.8616C17.5136 11.7619 17.2508 11.5525 17.1777 11.0944L17.1486 10.9121C17.5426 10.772 17.8586 10.5093 18.0272 10.1818C18.0998 10.0582 18.1477 9.92991 18.1618 9.80743L18.1733 9.70788V9.55814H18.1584C18.1095 8.82884 17.3826 8.25 16.4932 8.25C15.572 8.25 14.8253 8.87081 14.8253 9.63663ZM13.0844 11.7688C13.0873 12.3692 13.4461 13.063 14.0448 13.6263L14.2539 13.8232L14.4839 13.7657C14.6105 13.734 14.954 13.6857 15.2474 13.6582C15.5408 13.6308 15.7808 13.5963 15.7808 13.5817C15.7808 13.5671 15.5623 13.3555 15.2952 13.1116C14.7487 12.6123 14.5419 12.308 14.4541 11.8746L14.3963 11.589H13.7399H13.0835L13.0844 11.7688ZM18.4018 16.3118C18.2619 16.3438 17.9603 16.3822 17.7316 16.3971C17.5029 16.4121 17.2872 16.439 17.2523 16.457C17.2081 16.4797 17.3358 16.6257 17.6728 16.938C18.1697 17.3983 18.3926 17.7021 18.4514 17.999C18.4699 18.0921 18.4967 18.2206 18.5111 18.2846L18.5371 18.401H19.2021H19.867L19.8378 18.1154C19.7935 17.6816 19.5812 17.1806 19.2916 16.8264C19.02 16.4941 18.7577 16.24 18.6952 16.2484C18.6738 16.2513 18.5418 16.2798 18.4018 16.3118Z" fill="#BBDEFB"/>
</svg>
