<?xml version="1.0" encoding="UTF-8" standalone="no"?>
<svg
   xmlns:dc="http://purl.org/dc/elements/1.1/"
   xmlns:cc="http://creativecommons.org/ns#"
   xmlns:rdf="http://www.w3.org/1999/02/22-rdf-syntax-ns#"
   xmlns:svg="http://www.w3.org/2000/svg"
   xmlns="http://www.w3.org/2000/svg"
   xmlns:sodipodi="http://sodipodi.sourceforge.net/DTD/sodipodi-0.dtd"
   xmlns:inkscape="http://www.inkscape.org/namespaces/inkscape"
   clip-rule="evenodd"
   fill-rule="evenodd"
   stroke-linejoin="round"
   stroke-miterlimit="1.4142"
   version="1.1"
   viewBox="0 0 24 24"
   xml:space="preserve"
   id="svg492"
   sodipodi:docname="folder-gatsby.svg"
   inkscape:version="0.92.4 5da689c313, 2019-01-14"><metadata
     id="metadata498"><rdf:RDF><cc:Work
         rdf:about=""><dc:format>image/svg+xml</dc:format><dc:type
           rdf:resource="http://purl.org/dc/dcmitype/StillImage" /><dc:title></dc:title></cc:Work></rdf:RDF></metadata><defs
     id="defs496" /><sodipodi:namedview
     pagecolor="#ffffff"
     bordercolor="#666666"
     borderopacity="1"
     objecttolerance="10"
     gridtolerance="10"
     guidetolerance="10"
     inkscape:pageopacity="0"
     inkscape:pageshadow="2"
     inkscape:window-width="1097"
     inkscape:window-height="659"
     id="namedview494"
     showgrid="false"
     inkscape:zoom="19.666667"
     inkscape:cx="16.370056"
     inkscape:cy="6.3130384"
     inkscape:window-x="1891"
     inkscape:window-y="325"
     inkscape:window-maximized="0"
     inkscape:current-layer="svg492" /><path
     d="m10 4h-6c-1.11 0-2 .89-2 2v12c0 1.097.903 2 2 2h16c1.097 0 2-.903 2-2v-10c0-1.11-.9-2-2-2h-8l-2-2z"
     fill="#ec407a"
     fill-rule="nonzero"
     id="path440"
     style="fill:#663399;fill-opacity:1" /><g
     id="g3795"
     transform="matrix(0.36380366,0,0,0.36380366,13.110139,13.008443)"><g
       id="g3791"
       style="fill:#ffffff"><path
         id="path3787"
         d="m 25,14 h -7 v 2 h 4.8 c -0.7,3 -2.9,5.5 -5.8,6.5 L 5.5,11 C 6.7,7.5 10.1,5 14,5 c 3,0 5.7,1.5 7.4,3.8 L 22.9,7.5 C 20.9,4.8 17.7,3 14,3 8.8,3 4.4,6.7 3.3,11.6 L 16.5,24.8 C 21.3,23.6 25,19.2 25,14 Z"
         class="st0"
         inkscape:connector-curvature="0"
         style="fill:#ffffff" /><path
         id="path3789"
         d="m 3,14.1 c 0,2.8 1.1,5.5 3.2,7.6 2.1,2.1 4.9,3.2 7.6,3.2 z"
         class="st0"
         inkscape:connector-curvature="0"
         style="fill:#ffffff" /></g><path
       id="path3793"
       d="M 14,0 C 6.3,0 0,6.3 0,14 0,21.7 6.3,28 14,28 21.7,28 28,21.7 28,14 28,6.3 21.7,0 14,0 Z M 6.2,21.8 C 4.1,19.7 3,16.9 3,14.2 L 13.9,25 C 11.1,24.9 8.3,23.9 6.2,21.8 Z M 16.4,24.7 3.3,11.6 C 4.4,6.7 8.8,3 14,3 c 3.7,0 6.9,1.8 8.9,4.5 L 21.4,8.8 C 19.7,6.5 17,5 14,5 10.1,5 6.8,7.5 5.5,11 L 17,22.5 c 2.9,-1 5.1,-3.5 5.8,-6.5 H 18 v -2 h 7 c 0,5.2 -3.7,9.6 -8.6,10.7 z"
       class="st1"
       inkscape:connector-curvature="0"
       style="opacity:1;fill:#a780d4;fill-opacity:1" /></g></svg>