<svg xmlns="http://www.w3.org/2000/svg" viewBox="0 0 32 32"><path fill="#1976d2" d="M28.967 12H9.442a2 2 0 0 0-1.898 1.368L4 24V10h24a2 2 0 0 0-2-2H15.124a2 2 0 0 1-1.28-.464l-1.288-1.072A2 2 0 0 0 11.276 6H4a2 2 0 0 0-2 2v16a2 2 0 0 0 2 2h22l4.805-11.212A2 2 0 0 0 28.967 12"/><path fill="#90caf9" fill-rule="evenodd" d="M16 22.405v2.786c-4.8-1.097-8.263-4.17-8.263-7.804 0-4.553 5.432-8.245 12.132-8.245S32 12.834 32 17.387a6.46 6.46 0 0 1-1.915 4.433l-.49-.855a4.65 4.65 0 0 0 .981-2.962c0-3.91-3.758-5.637-8.85-5.637-5.093 0-9.221 2.523-9.221 5.637 0 1.787 1.372 3.37 3.495 4.402m15.332 5.596V28h-.001Zm0-.001h-4.656l-2.177-4.208a5.4 5.4 0 0 0-.72-1.017c-.23-.19-.327-.258-.553-.258H22V28h-4V14h8.274S30 14.07 30 17.76a3.866 3.866 0 0 1-3.559 3.964 9 9 0 0 1 1.156.448 2.2 2.2 0 0 1 .586.431 1.6 1.6 0 0 1 .268.396ZM26 17.5a1.5 1.5 0 0 0-1.5-1.5H22v4h2.5a1.5 1.5 0 0 0 1.5-1.5Z"/></svg>