<?xml version="1.0" encoding="UTF-8"?>
<svg clip-rule="evenodd" stroke-linejoin="round" stroke-miterlimit="1.414" version="1.1" viewBox="0 0 24 24" xml:space="preserve" xmlns="http://www.w3.org/2000/svg"><path d="M19 20H4a2 2 0 0 1-2-2V6c0-1.11.89-2 2-2h6l2 2h7c1.097 0 2 .903 2 2H4v10l2.14-8h17.07l-2.28 8.5c-.23.87-1.01 1.5-1.93 1.5z" fill="#ff7043"/><g transform="matrix(.085405 0 0 .085405 8.141 6.1166)" fill="#ffccbc" stroke-width="1.786"><path d="m17.493 82.498 82.506-54.158v35.003l-82.506 54.157z"/><path d="m17.493 117.5 82.506 54.159v-35.003l-82.506-54.159z"/><path d="m182.51 117.5-82.506 54.159v-35.003l82.506-54.159z"/><path d="m182.51 82.498-82.506-54.158v35.003l82.506 54.158z"/></g></svg>
