<?xml version="1.0" encoding="UTF-8"?>
<svg clip-rule="evenodd" fill-rule="evenodd" stroke-linejoin="round" stroke-miterlimit="1.414" version="1.1" viewBox="0 0 24 24" xml:space="preserve" xmlns="http://www.w3.org/2000/svg"><path d="M10 4H4c-1.11 0-2 .89-2 2v12c0 1.097.903 2 2 2h16c1.097 0 2-.903 2-2V8a2 2 0 0 0-2-2h-8l-2-2z" fill="#757575" fill-rule="nonzero"/><g transform="matrix(.031269 0 0 .031269 9.4689 6.7518)"><path d="m449.14 208.67-0.555-1.482-56.075-146.27a14.547 14.547 0 0 0-5.767-6.956 14.812 14.812 0 0 0-22.244 8.464l-37.85 115.88h-153.28l-37.85-115.88a14.838 14.838 0 0 0-22.244-8.464 14.547 14.547 0 0 0-5.766 6.956l-56.048 146.29-0.582 1.455a104.11 104.11 0 0 0 34.544 120.32l0.212 0.16 0.476 0.37 85.301 63.93 42.32 31.977 25.71 19.441a17.378 17.378 0 0 0 20.948 0l25.71-19.44 42.32-31.979 85.909-64.3 0.238-0.185a104.11 104.11 0 0 0 34.57-120.29z" fill="#e53935"/><path d="m449.14 208.67-0.555-1.482a189.12 189.12 0 0 0-75.383 33.91l-123.12 93.103 78.398 59.248 85.91-64.3 0.238-0.185a104.11 104.11 0 0 0 34.517-120.29z" fill="#ef6c00"/><path d="m171.42 393.45 42.32 31.978 25.71 19.441a17.378 17.378 0 0 0 20.948 0l25.71-19.44 42.32-31.979-78.399-59.248z" fill="#f9a825"/><path d="m126.82 241.1a188.96 188.96 0 0 0-75.356-33.882l-0.582 1.455a104.11 104.11 0 0 0 34.544 120.32l0.212 0.16 0.476 0.37 85.301 63.93 78.45-59.249z" fill="#ef6c00"/></g></svg>
