<svg xmlns="http://www.w3.org/2000/svg" viewBox="0 0 16 16"><path id="folder" fill="#ef5350" d="m6.922 3.768-.644-.536A1 1 0 0 0 5.638 3H2a1 1 0 0 0-1 1v8a1 1 0 0 0 1 1h12a1 1 0 0 0 1-1V5a1 1 0 0 0-1-1H7.562a1 1 0 0 1-.64-.232"/><path id="motive" fill="#ffcdd2" d="M11.217 8.969a7.4 7.4 0 0 1-.508 1.203 5 5 0 0 0-.247.518l.055-.02a9 9 0 0 1 1.67-.463q-.108-.075-.21-.162a3.1 3.1 0 0 1-.76-1.077m3.236 1.906a.57.57 0 0 1-.45.15 3.6 3.6 0 0 1-1.492-.37 10 10 0 0 0-2.023.375l-.092.035C9.774 12.126 9.314 12.6 8.908 12.6a.5.5 0 0 1-.22-.052l-.24-.157-.011-.027a.4.4 0 0 1-.026-.268 1.9 1.9 0 0 1 .941-1.06 3 3 0 0 1 .445-.244q.223-.393.476-.902a8.7 8.7 0 0 0 .544-1.462l-.003-.006a2.47 2.47 0 0 1-.11-1.633c.055-.193.21-.388.397-.388h.119a.43.43 0 0 1 .304.123c.33.33.179 1.134.011 1.798l-.018.07a2.9 2.9 0 0 0 .799 1.278 4 4 0 0 0 .43.293 6 6 0 0 1 .65-.037c.62 0 .992.112 1.138.343a.4.4 0 0 1 .062.275.48.48 0 0 1-.143.331M15 5H8a1 1 0 0 0-1 1v7a1 1 0 0 0 1 1h7a1 1 0 0 0 1-1V6a1 1 0 0 0-1-1m-.743 5.522c-.056-.054-.261-.179-.959-.179a.13.13 0 0 0-.115.05 2.7 2.7 0 0 0 .951.256 1 1 0 0 0 .098-.007l.017-.003c.024-.007.04-.015.045-.065zm-4.592.728a2 2 0 0 0-.238.157 1.83 1.83 0 0 0-.607.846c.227-.078.521-.406.845-1.003m1.508-3.453.027-.018c.037-.162.06-.301.08-.412l.016-.081c.048-.27.042-.426-.05-.548l-.073-.025-.033.059a1.83 1.83 0 0 0 .033 1.025"/></svg>