<svg width="16" height="16" viewBox="0 0 16 16" fill="none" xmlns="http://www.w3.org/2000/svg">
<g clip-path="url(#clip0_142_98)">
<path d="M14.4835 6H4.721C4.51104 5.99995 4.30638 6.06599 4.13605 6.18876C3.96572 6.31153 3.83835 6.48479 3.772 6.684L2 12V5H14C14 4.73478 13.8946 4.48043 13.7071 4.29289C13.5196 4.10536 13.2652 4 13 4H7.562C7.3281 3.99989 7.10164 3.9178 6.922 3.768L6.278 3.232C6.09836 3.0822 5.8719 3.00011 5.638 3H2C1.73478 3 1.48043 3.10536 1.29289 3.29289C1.10536 3.48043 1 3.73478 1 4V12C1 12.2652 1.10536 12.5196 1.29289 12.7071C1.48043 12.8946 1.73478 13 2 13H13L15.4025 7.394C15.4677 7.24191 15.4941 7.07601 15.4794 6.91118C15.4647 6.74635 15.4094 6.58775 15.3183 6.44959C15.2272 6.31143 15.1033 6.19804 14.9576 6.11957C14.8119 6.0411 14.649 6.00002 14.4835 6Z" fill="#8BC34A"/>
<path fill-rule="evenodd" clip-rule="evenodd" d="M14.8648 12.1722C15.5987 11.2781 15.9999 10.1571 16 9.00037C16.0009 8.34362 15.872 7.69316 15.6207 7.08638C15.3694 6.47961 15.0007 5.92847 14.5357 5.46465C13.7178 4.64665 12.6415 4.13756 11.4904 4.02411C10.3392 3.91067 9.18424 4.19989 8.22238 4.8425C7.26053 5.48512 6.55124 6.44136 6.21539 7.5483C5.87953 8.65525 5.93787 9.8444 6.38049 10.9131C6.8231 11.9819 7.62259 12.8641 8.64273 13.4095C9.66288 13.9548 10.8406 14.1296 11.9751 13.904C13.1097 13.6784 14.1309 13.0664 14.8648 12.1722ZM9.20307 8.83364C9.18324 8.88444 9.17416 8.93881 9.17642 8.9933C9.17642 9.07439 9.20046 9.15366 9.2455 9.22109C9.29055 9.28852 9.35457 9.34108 9.42948 9.37213C9.50438 9.40318 9.58682 9.41132 9.66635 9.39554C9.74589 9.37975 9.81896 9.34073 9.87633 9.28342C9.9337 9.22611 9.97279 9.15308 9.98866 9.07356C10.0045 8.99404 9.99647 8.9116 9.96549 8.83666C9.93452 8.76172 9.88202 8.69764 9.81464 8.65253C9.74726 8.60742 9.66801 8.5833 9.58693 8.58322C9.53244 8.5809 9.47806 8.58992 9.42723 8.60971C9.37641 8.62949 9.33025 8.65961 9.29166 8.69815C9.25308 8.7367 9.22291 8.78283 9.20307 8.83364ZM10.5929 8.9933C10.5906 8.93881 10.5997 8.88444 10.6195 8.83364C10.6393 8.78283 10.6695 8.7367 10.7081 8.69815C10.7467 8.65961 10.7928 8.62949 10.8437 8.60971C10.8945 8.58992 10.9489 8.5809 11.0034 8.58322C11.0845 8.5833 11.1637 8.60742 11.2311 8.65253C11.2985 8.69764 11.351 8.76172 11.3819 8.83666C11.4129 8.9116 11.421 8.99404 11.4051 9.07356C11.3892 9.15308 11.3501 9.22611 11.2928 9.28342C11.2354 9.34073 11.1623 9.37975 11.0828 9.39554C11.0033 9.41132 10.9208 9.40318 10.8459 9.37213C10.771 9.34108 10.707 9.28852 10.6619 9.22109C10.6169 9.15366 10.5929 9.07439 10.5929 8.9933ZM12.0351 8.83364C12.0152 8.88444 12.0062 8.93881 12.0084 8.9933C12.0084 9.07439 12.0325 9.15366 12.0775 9.22109C12.1225 9.28852 12.1866 9.34108 12.2615 9.37213C12.3364 9.40318 12.4188 9.41132 12.4983 9.39554C12.5779 9.37975 12.651 9.34073 12.7083 9.28342C12.7657 9.22611 12.8048 9.15308 12.8207 9.07356C12.8365 8.99404 12.8285 8.9116 12.7975 8.83666C12.7665 8.76172 12.714 8.69764 12.6466 8.65253C12.5793 8.60742 12.5 8.5833 12.4189 8.58322C12.3644 8.5809 12.3101 8.58992 12.2592 8.60971C12.2084 8.62949 12.1622 8.65961 12.1237 8.69815C12.0851 8.7367 12.0549 8.78283 12.0351 8.83364ZM7.47858 9.37455V8.6401C7.60435 8.63996 7.7293 8.61982 7.84875 8.58044C7.92642 8.53722 7.99034 8.47301 8.0332 8.39514C8.08976 8.29449 8.12602 8.18371 8.13992 8.06909C8.15904 7.89949 8.16677 7.7288 8.16303 7.55817C8.15435 7.28125 8.17165 7.00412 8.21471 6.73044C8.24104 6.58949 8.30591 6.4586 8.40211 6.35228C8.49066 6.2436 8.6089 6.16302 8.74244 6.12035C8.92332 6.07651 9.10941 6.05799 9.29538 6.06531H9.4479V6.66909C9.30992 6.6605 9.17143 6.6734 9.0374 6.70733C8.98066 6.72954 8.93332 6.77065 8.90337 6.82371C8.87085 6.95288 8.8567 7.08598 8.86135 7.21909C8.86135 7.34766 8.85267 7.5915 8.8353 7.9506C8.83142 8.11685 8.80629 8.28192 8.76051 8.44178C8.72715 8.5533 8.675 8.65831 8.60631 8.75229C8.52443 8.85066 8.42776 8.93571 8.31975 9.00439C8.42649 9.0679 8.52074 9.15034 8.59791 9.24766C8.6738 9.34826 8.72997 9.46231 8.76345 9.5838C8.80794 9.75795 8.83302 9.93648 8.83824 10.1162C8.85169 10.4548 8.85841 10.6711 8.85841 10.7649C8.85341 10.897 8.869 11.0291 8.90463 11.1565C8.9369 11.2109 8.98601 11.2534 9.04454 11.2775C9.17615 11.3139 9.31289 11.3281 9.44917 11.3195V11.9439H9.29664C9.11241 11.9482 8.92881 11.9209 8.75379 11.8632C8.6202 11.8231 8.4994 11.7488 8.40337 11.6477C8.30615 11.5415 8.23989 11.4107 8.21177 11.2695C8.1725 11.0355 8.15603 10.7983 8.16261 10.5611C8.17259 10.3163 8.1571 10.0712 8.11639 9.8296C8.09072 9.69563 8.02372 9.57309 7.9248 9.47918C7.78783 9.40572 7.63392 9.36963 7.47858 9.37455ZM13.8693 9.83108C13.8949 9.69712 13.9619 9.57457 14.0609 9.48066C14.198 9.4064 14.3524 9.36973 14.5083 9.37436V8.64158C14.3822 8.64126 14.257 8.62083 14.1373 8.58108C14.0597 8.53787 13.9957 8.47365 13.9529 8.39578C13.8963 8.29513 13.8601 8.18435 13.8462 8.06973C13.827 7.90013 13.8193 7.72944 13.823 7.55881C13.8317 7.28189 13.8144 7.00477 13.7714 6.73108C13.745 6.59014 13.6802 6.45925 13.584 6.35293C13.4954 6.24424 13.3772 6.16366 13.2436 6.12099C13.0628 6.07716 12.8767 6.05863 12.6907 6.06595H12.5382V6.67394C12.6762 6.66535 12.8146 6.67824 12.9487 6.71217C13.0054 6.73438 13.0528 6.77549 13.0827 6.82856C13.1152 6.95772 13.1294 7.09082 13.1247 7.22394C13.1247 7.35251 13.1334 7.59634 13.1508 7.95545C13.1547 8.12169 13.1798 8.28676 13.2256 8.44663C13.2589 8.55815 13.3111 8.66315 13.3798 8.75713C13.4616 8.85551 13.5583 8.94055 13.6663 9.00923C13.5596 9.07274 13.4653 9.15519 13.3882 9.25251C13.3123 9.35311 13.2561 9.46716 13.2226 9.58864C13.1779 9.76262 13.1525 9.94102 13.147 10.1206C13.1336 10.4592 13.1268 10.6755 13.1268 10.7693C13.1318 10.9015 13.1162 11.0336 13.0806 11.1609C13.0483 11.2154 12.9992 11.2578 12.9407 11.2819C12.8091 11.3183 12.6723 11.3325 12.5361 11.3239V11.947H12.6886C12.8728 11.9513 13.0564 11.924 13.2314 11.8664C13.3653 11.8253 13.4859 11.7498 13.5814 11.6475C13.6787 11.5413 13.7449 11.4105 13.773 11.2693C13.8125 11.0359 13.8292 10.7992 13.823 10.5626C13.8131 10.3178 13.8286 10.0727 13.8693 9.83108Z" fill="#DCEDC8"/>
<path d="M16 9.00037L15.996 9.00037L15.996 9.00037L16 9.00037ZM14.8648 12.1722L14.8617 12.1697L14.8617 12.1697L14.8648 12.1722ZM15.6207 7.08638L15.6244 7.08485L15.6244 7.08485L15.6207 7.08638ZM14.5357 5.46465L14.5329 5.46748L14.5329 5.46749L14.5357 5.46465ZM11.4904 4.02411L11.49 4.02809L11.49 4.02809L11.4904 4.02411ZM8.22238 4.8425L8.22461 4.84583L8.22461 4.84583L8.22238 4.8425ZM6.21539 7.5483L6.21921 7.54946L6.21539 7.5483ZM6.38049 10.9131L6.37679 10.9147L6.38049 10.9131ZM8.64273 13.4095L8.64085 13.413L8.64085 13.413L8.64273 13.4095ZM9.17642 8.9933H9.18042L9.18042 8.99313L9.17642 8.9933ZM9.20307 8.83364L9.2068 8.83509L9.2068 8.83509L9.20307 8.83364ZM9.2455 9.22109L9.24218 9.22331L9.24218 9.22331L9.2455 9.22109ZM9.66635 9.39554L9.66558 9.39161L9.66558 9.39161L9.66635 9.39554ZM9.87633 9.28342L9.87916 9.28625L9.87916 9.28625L9.87633 9.28342ZM9.98866 9.07356L9.99258 9.07434L9.99258 9.07434L9.98866 9.07356ZM9.96549 8.83666L9.96919 8.83513L9.96919 8.83513L9.96549 8.83666ZM9.81464 8.65253L9.81687 8.64921L9.81687 8.64921L9.81464 8.65253ZM9.58693 8.58322L9.58676 8.58722L9.58692 8.58722L9.58693 8.58322ZM9.42723 8.60971L9.42578 8.60598L9.42578 8.60598L9.42723 8.60971ZM10.6195 8.83364L10.6232 8.83509L10.6232 8.83509L10.6195 8.83364ZM10.5929 8.9933H10.5969L10.5969 8.99313L10.5929 8.9933ZM10.8437 8.60971L10.8422 8.60598L10.8422 8.60598L10.8437 8.60971ZM11.0034 8.58322L11.0032 8.58722L11.0034 8.58722L11.0034 8.58322ZM11.2311 8.65253L11.2333 8.64921L11.2333 8.64921L11.2311 8.65253ZM11.3819 8.83666L11.3856 8.83513L11.3856 8.83513L11.3819 8.83666ZM11.4051 9.07356L11.409 9.07434L11.409 9.07434L11.4051 9.07356ZM11.0828 9.39554L11.082 9.39161L11.082 9.39161L11.0828 9.39554ZM10.8459 9.37213L10.8474 9.36843L10.8474 9.36843L10.8459 9.37213ZM10.6619 9.22109L10.6586 9.22331L10.6586 9.22331L10.6619 9.22109ZM12.0084 8.9933H12.0124L12.0124 8.99313L12.0084 8.9933ZM12.0351 8.83364L12.0313 8.83218L12.0313 8.83218L12.0351 8.83364ZM12.0775 9.22109L12.0742 9.22331L12.0742 9.22331L12.0775 9.22109ZM12.2615 9.37213L12.263 9.36843L12.263 9.36843L12.2615 9.37213ZM12.4983 9.39554L12.4976 9.39161L12.4976 9.39161L12.4983 9.39554ZM12.8207 9.07356L12.8246 9.07434L12.8246 9.07434L12.8207 9.07356ZM12.7975 8.83666L12.8012 8.83513L12.8012 8.83513L12.7975 8.83666ZM12.6466 8.65253L12.6444 8.65586L12.6444 8.65586L12.6466 8.65253ZM12.4189 8.58322L12.4188 8.58722L12.4189 8.58722L12.4189 8.58322ZM12.2592 8.60971L12.2578 8.60598L12.2578 8.60598L12.2592 8.60971ZM7.47858 8.6401L7.47458 5.14656V8.6401H7.47858ZM7.47858 9.37455H7.60495L7.4787 9.37855L7.47858 9.37455ZM7.84875 8.58044L7.85002 8.5843L7.85069 8.58393L7.84875 8.58044ZM8.0332 8.39514L8.02971 8.39318L8.0297 8.39321L8.0332 8.39514ZM8.13992 8.06909L8.14389 8.06957L8.1439 8.06954L8.13992 8.06909ZM8.16303 7.55817L8.16703 7.55808L8.16703 7.55804L8.16303 7.55817ZM8.21471 6.73044L8.21078 6.7297L8.21076 6.72981L8.21471 6.73044ZM8.40211 6.35228L8.40508 6.35497L8.40521 6.35481L8.40211 6.35228ZM8.74244 6.12035L8.7415 6.11645L8.74123 6.11654L8.74244 6.12035ZM9.29538 6.06531L9.29523 6.06931H9.29538V6.06531ZM9.4479 6.66909L9.4519 6.60484V6.66909H9.4479ZM9.0374 6.70733L9.03641 6.70342L9.03594 6.7036L9.0374 6.70733ZM8.90337 6.82371L8.89976 6.82167L8.89949 6.82274L8.90337 6.82371ZM8.86135 7.21909H8.86535L8.86535 7.21895L8.86135 7.21909ZM8.8353 7.9506L8.8313 7.95041L8.8313 7.95051L8.8353 7.9506ZM8.76051 8.44178L8.76434 8.44293L8.76436 8.44288L8.76051 8.44178ZM8.60631 8.75229L8.60939 8.75485L8.60954 8.75465L8.60631 8.75229ZM8.31975 9.00439L8.32452 9.01187L8.31771 9.00782L8.31975 9.00439ZM8.59791 9.24766L8.6011 9.24525L8.60104 9.24518L8.59791 9.24766ZM8.76345 9.5838L8.76733 9.58281L8.76731 9.58274L8.76345 9.5838ZM8.83824 10.1162L8.83424 10.1163L8.83424 10.1163L8.83824 10.1162ZM8.85841 10.7649L8.86241 10.765V10.7649H8.85841ZM8.90463 11.1565L8.90064 11.1576L8.90119 11.1585L8.90463 11.1565ZM9.04454 11.2775L9.04301 11.2812L9.04348 11.2814L9.04454 11.2775ZM9.44917 11.3195H9.38531L9.44891 11.3155L9.44917 11.3195ZM9.29664 11.9439V11.9399L9.29655 11.9399L9.29664 11.9439ZM8.75379 11.8632L8.75504 11.8594L8.75494 11.8594L8.75379 11.8632ZM8.40337 11.6477L8.40042 11.6504L8.40047 11.6504L8.40337 11.6477ZM8.21177 11.2695L8.20782 11.2702L8.20785 11.2703L8.21177 11.2695ZM8.16261 10.5611L8.15861 10.5609L8.15861 10.561L8.16261 10.5611ZM8.11639 9.8296L8.12034 9.82893L8.12032 9.82884L8.11639 9.8296ZM7.9248 9.47918L7.92765 9.47617L7.92669 9.47565L7.9248 9.47918ZM14.0609 9.48066L14.0589 9.47702L14.0581 9.47776L14.0609 9.48066ZM13.8693 9.83108L13.8653 9.83033L13.8653 9.83041L13.8693 9.83108ZM14.5083 9.37436L14.5123 9.23957V9.37436H14.5083ZM14.5083 8.64158H16.0571L14.5084 8.63758L14.5083 8.64158ZM14.1373 8.58108L14.1354 8.58464L14.1361 8.58488L14.1373 8.58108ZM13.9529 8.39578L13.9564 8.39386L13.9564 8.39383L13.9529 8.39578ZM13.8462 8.06973L13.8422 8.07018L13.8422 8.07022L13.8462 8.06973ZM13.823 7.55881L13.819 7.55868L13.819 7.55872L13.823 7.55881ZM13.7714 6.73108L13.7753 6.73046L13.7753 6.73034L13.7714 6.73108ZM13.584 6.35293L13.5809 6.35546L13.581 6.35561L13.584 6.35293ZM13.2436 6.12099L13.2449 6.11717L13.2446 6.11711L13.2436 6.12099ZM12.6907 6.06595V6.06995L12.6909 6.06995L12.6907 6.06595ZM12.5382 6.67394H12.6026L12.5384 6.67793L12.5382 6.67394ZM12.9487 6.71217L12.9501 6.70842L12.9497 6.70829L12.9487 6.71217ZM13.0827 6.82856L13.0867 6.82754L13.0862 6.82659L13.0827 6.82856ZM13.1247 7.22394L13.1207 7.2238V7.22394H13.1247ZM13.1508 7.95545L13.1548 7.95536L13.1548 7.95526L13.1508 7.95545ZM13.2256 8.44663L13.2217 8.44773L13.2217 8.44777L13.2256 8.44663ZM13.3798 8.75713L13.3765 8.75949L13.3767 8.75969L13.3798 8.75713ZM13.6663 9.00923L13.6618 9.0016L13.6685 9.00585L13.6663 9.00923ZM13.3882 9.25251L13.385 9.25002L13.385 9.2501L13.3882 9.25251ZM13.2226 9.58864L13.2188 9.58758L13.2188 9.58765L13.2226 9.58864ZM13.147 10.1206L13.151 10.1207L13.151 10.1207L13.147 10.1206ZM13.1268 10.7693H13.1228L13.1228 10.7695L13.1268 10.7693ZM13.0806 11.1609L13.0842 11.163L13.0845 11.162L13.0806 11.1609ZM12.9407 11.2819L12.9418 11.2858L12.9422 11.2856L12.9407 11.2819ZM12.5361 11.3239L12.5321 11.3877V11.3239H12.5361ZM12.6886 11.947L12.6887 11.943H12.6886V11.947ZM13.2314 11.8664L13.2303 11.8625L13.2302 11.8626L13.2314 11.8664ZM13.5814 11.6475L13.5844 11.6502L13.5844 11.6502L13.5814 11.6475ZM13.773 11.2693L13.777 11.2701L13.777 11.27L13.773 11.2693ZM13.823 10.5626L13.827 10.5625L13.827 10.5624L13.823 10.5626ZM15.996 9.00037C15.9959 10.1562 15.5951 11.2763 14.8617 12.1697L14.8679 12.1748C15.6024 11.2799 16.0039 10.1581 16.004 9.00037L15.996 9.00037ZM15.617 7.08791C15.8681 7.6942 15.9969 8.34414 15.996 9.00037L16.004 9.00038C16.0049 8.3431 15.8759 7.69212 15.6244 7.08485L15.617 7.08791ZM14.5329 5.46749C14.9975 5.93093 15.3659 6.48163 15.617 7.08791L15.6244 7.08485C15.3729 6.47759 15.0039 5.92601 14.5385 5.46182L14.5329 5.46749ZM11.49 4.02809C12.6402 4.14145 13.7156 4.65013 14.5329 5.46748L14.5385 5.46183C13.72 4.64317 12.6429 4.13367 11.4907 4.02013L11.49 4.02809ZM8.22461 4.84583C9.18569 4.20373 10.3397 3.91474 11.49 4.02809L11.4907 4.02013C10.3386 3.90659 9.18279 4.19605 8.22016 4.83918L8.22461 4.84583ZM6.21921 7.54946C6.5548 6.44341 7.26352 5.48793 8.22461 4.84583L8.22016 4.83918C7.25754 5.48231 6.54768 6.43931 6.21156 7.54714L6.21921 7.54946ZM6.38418 10.9116C5.94192 9.84372 5.88362 8.65552 6.21921 7.54946L6.21156 7.54714C5.87543 8.65497 5.93382 9.84507 6.37679 10.9147L6.38418 10.9116ZM8.64462 13.4059C7.62529 12.861 6.82644 11.9795 6.38418 10.9116L6.37679 10.9147C6.81976 11.9843 7.61988 12.8672 8.64085 13.413L8.64462 13.4059ZM11.9743 13.9001C10.8407 14.1255 9.66395 13.9509 8.64462 13.4059L8.64085 13.413C9.66181 13.9588 10.8404 14.1337 11.9759 13.9079L11.9743 13.9001ZM14.8617 12.1697C14.1284 13.0631 13.108 13.6747 11.9743 13.9001L11.9759 13.9079C13.1114 13.6821 14.1334 13.0696 14.8679 12.1748L14.8617 12.1697ZM9.18042 8.99313C9.17818 8.9392 9.18717 8.88538 9.2068 8.83509L9.19935 8.83218C9.17931 8.8835 9.17014 8.93842 9.17242 8.99347L9.18042 8.99313ZM9.24883 9.21887C9.20423 9.15209 9.18042 9.0736 9.18042 8.9933H9.17242C9.17242 9.07518 9.1967 9.15522 9.24218 9.22331L9.24883 9.21887ZM9.43101 9.36843C9.35683 9.33769 9.29343 9.28564 9.24883 9.21887L9.24218 9.22331C9.28766 9.2914 9.3523 9.34447 9.42794 9.37582L9.43101 9.36843ZM9.66558 9.39161C9.58681 9.40725 9.50519 9.39918 9.43101 9.36843L9.42794 9.37582C9.50358 9.40718 9.58682 9.4154 9.66713 9.39946L9.66558 9.39161ZM9.8735 9.28059C9.81669 9.33734 9.74434 9.37598 9.66558 9.39161L9.66713 9.39946C9.74745 9.38352 9.82123 9.34412 9.87916 9.28625L9.8735 9.28059ZM9.98474 9.07278C9.96902 9.15152 9.93031 9.22384 9.8735 9.28059L9.87916 9.28625C9.93708 9.22838 9.97656 9.15464 9.99258 9.07434L9.98474 9.07278ZM9.9618 8.83819C9.99247 8.9124 10.0005 8.99403 9.98474 9.07278L9.99258 9.07434C10.0086 8.99405 10.0005 8.9108 9.96919 8.83513L9.9618 8.83819ZM9.81242 8.65586C9.87914 8.70053 9.93113 8.76398 9.9618 8.83819L9.96919 8.83513C9.93791 8.75946 9.88491 8.69476 9.81687 8.64921L9.81242 8.65586ZM9.58692 8.58722C9.66722 8.5873 9.74569 8.61118 9.81242 8.65586L9.81687 8.64921C9.74883 8.60366 9.66881 8.5793 9.58693 8.57922L9.58692 8.58722ZM9.42868 8.61343C9.47899 8.59385 9.53282 8.58492 9.58676 8.58721L9.5871 8.57922C9.53205 8.57688 9.47712 8.58599 9.42578 8.60598L9.42868 8.61343ZM9.29449 8.70098C9.33268 8.66283 9.37838 8.63302 9.42868 8.61343L9.42578 8.60598C9.37444 8.62596 9.32781 8.65639 9.28883 8.69532L9.29449 8.70098ZM9.2068 8.83509C9.22644 8.7848 9.25629 8.73914 9.29449 8.70098L9.28883 8.69532C9.24986 8.73426 9.21939 8.78086 9.19935 8.83218L9.2068 8.83509ZM10.6158 8.83218C10.5957 8.8835 10.5866 8.93842 10.5889 8.99347L10.5969 8.99313C10.5946 8.9392 10.6036 8.88538 10.6232 8.83509L10.6158 8.83218ZM10.7053 8.69532C10.6663 8.73426 10.6358 8.78086 10.6158 8.83218L10.6232 8.83509C10.6429 8.7848 10.6727 8.73914 10.7109 8.70098L10.7053 8.69532ZM10.8422 8.60598C10.7909 8.62596 10.7442 8.65639 10.7053 8.69532L10.7109 8.70098C10.7491 8.66283 10.7948 8.63302 10.8451 8.61343L10.8422 8.60598ZM11.0035 8.57922C10.9485 8.57688 10.8936 8.58599 10.8422 8.60598L10.8451 8.61343C10.8954 8.59385 10.9493 8.58492 11.0032 8.58721L11.0035 8.57922ZM11.2333 8.64921C11.1653 8.60366 11.0852 8.5793 11.0034 8.57922L11.0034 8.58722C11.0837 8.5873 11.1621 8.61118 11.2289 8.65586L11.2333 8.64921ZM11.3856 8.83513C11.3544 8.75946 11.3013 8.69476 11.2333 8.64921L11.2289 8.65586C11.2956 8.70053 11.3476 8.76398 11.3782 8.83819L11.3856 8.83513ZM11.409 9.07434C11.425 8.99405 11.4169 8.9108 11.3856 8.83513L11.3782 8.83819C11.4089 8.9124 11.4169 8.99403 11.4012 9.07278L11.409 9.07434ZM11.2956 9.28625C11.3535 9.22838 11.393 9.15464 11.409 9.07434L11.4012 9.07278C11.3855 9.15152 11.3467 9.22384 11.2899 9.28059L11.2956 9.28625ZM11.0836 9.39946C11.1639 9.38352 11.2377 9.34412 11.2956 9.28625L11.2899 9.28059C11.2331 9.33734 11.1608 9.37598 11.082 9.39161L11.0836 9.39946ZM10.8444 9.37582C10.92 9.40718 11.0033 9.4154 11.0836 9.39946L11.082 9.39161C11.0033 9.40725 10.9216 9.39918 10.8474 9.36843L10.8444 9.37582ZM10.6586 9.22331C10.7041 9.2914 10.7687 9.34447 10.8444 9.37582L10.8474 9.36843C10.7733 9.33769 10.7099 9.28564 10.6653 9.21887L10.6586 9.22331ZM10.5889 8.9933C10.5889 9.07518 10.6131 9.15522 10.6586 9.22331L10.6653 9.21887C10.6207 9.15209 10.5969 9.0736 10.5969 8.9933H10.5889ZM12.0124 8.99313C12.0102 8.9392 12.0192 8.88538 12.0388 8.83509L12.0313 8.83218C12.0113 8.8835 12.0021 8.93842 12.0044 8.99347L12.0124 8.99313ZM12.0808 9.21887C12.0362 9.15209 12.0124 9.0736 12.0124 8.9933H12.0044C12.0044 9.07518 12.0287 9.15522 12.0742 9.22331L12.0808 9.21887ZM12.263 9.36843C12.1888 9.33769 12.1254 9.28564 12.0808 9.21887L12.0742 9.22331C12.1197 9.2914 12.1843 9.34447 12.2599 9.37582L12.263 9.36843ZM12.4976 9.39161C12.4188 9.40725 12.3372 9.39918 12.263 9.36843L12.2599 9.37582C12.3356 9.40718 12.4188 9.4154 12.4991 9.39946L12.4976 9.39161ZM12.7055 9.28059C12.6487 9.33734 12.5763 9.37598 12.4976 9.39161L12.4991 9.39946C12.5794 9.38352 12.6532 9.34412 12.7112 9.28625L12.7055 9.28059ZM12.8167 9.07278C12.801 9.15152 12.7623 9.22384 12.7055 9.28059L12.7112 9.28625C12.7691 9.22838 12.8086 9.15464 12.8246 9.07434L12.8167 9.07278ZM12.7938 8.83819C12.8245 8.9124 12.8324 8.99403 12.8167 9.07278L12.8246 9.07434C12.8406 8.99405 12.8325 8.9108 12.8012 8.83513L12.7938 8.83819ZM12.6444 8.65586C12.7111 8.70053 12.7631 8.76398 12.7938 8.83819L12.8012 8.83513C12.7699 8.75946 12.7169 8.69476 12.6489 8.64921L12.6444 8.65586ZM12.4189 8.58722C12.4992 8.5873 12.5777 8.61118 12.6444 8.65586L12.6489 8.64921C12.5808 8.60366 12.5008 8.5793 12.4189 8.57922L12.4189 8.58722ZM12.2607 8.61343C12.311 8.59385 12.3648 8.58492 12.4188 8.58721L12.4191 8.57922C12.364 8.57688 12.3091 8.58599 12.2578 8.60598L12.2607 8.61343ZM12.1265 8.70098C12.1647 8.66283 12.2104 8.63302 12.2607 8.61343L12.2578 8.60598C12.2064 8.62596 12.1598 8.65639 12.1208 8.69532L12.1265 8.70098ZM12.0388 8.83509C12.0584 8.7848 12.0883 8.73914 12.1265 8.70098L12.1208 8.69532C12.0819 8.73426 12.0514 8.78086 12.0313 8.83218L12.0388 8.83509ZM7.47458 8.6401V9.37455H7.48258V8.6401H7.47458ZM7.84749 8.57664C7.72845 8.61589 7.60392 8.63596 7.47857 8.6361L7.47858 8.6441C7.60478 8.64396 7.73015 8.62375 7.85 8.58423L7.84749 8.57664ZM8.0297 8.39321C7.9872 8.47042 7.92381 8.53409 7.8468 8.57694L7.85069 8.58393C7.92902 8.54035 7.99348 8.47559 8.0367 8.39707L8.0297 8.39321ZM8.13595 8.06861C8.12212 8.18271 8.08602 8.29298 8.02971 8.39318L8.03669 8.3971C8.09351 8.29599 8.12993 8.18471 8.14389 8.06957L8.13595 8.06861ZM8.15903 7.55825C8.16276 7.72871 8.15505 7.89922 8.13595 8.06864L8.1439 8.06954C8.16304 7.89976 8.17077 7.72889 8.16703 7.55808L8.15903 7.55825ZM8.21076 6.72981C8.16766 7.00375 8.15034 7.28112 8.15903 7.55829L8.16703 7.55804C8.15835 7.28137 8.17564 7.0045 8.21866 6.73106L8.21076 6.72981ZM8.39914 6.3496C8.30245 6.45647 8.23725 6.58803 8.21078 6.7297L8.21864 6.73117C8.24484 6.59096 8.30937 6.46074 8.40507 6.35497L8.39914 6.3496ZM8.74123 6.11654C8.60695 6.15944 8.48804 6.24047 8.39901 6.34976L8.40521 6.35481C8.49327 6.24673 8.61086 6.16659 8.74366 6.12416L8.74123 6.11654ZM9.29554 6.06131C9.1092 6.05398 8.92274 6.07254 8.7415 6.11646L8.74338 6.12424C8.92391 6.08049 9.10962 6.062 9.29523 6.06931L9.29554 6.06131ZM9.4479 6.06131H9.29538V6.06931H9.4479V6.06131ZM9.4519 6.66909V6.06531H9.4439V6.66909H9.4519ZM9.03838 6.7112C9.17201 6.67738 9.31008 6.66452 9.44766 6.67308L9.44815 6.6651C9.30975 6.65648 9.17085 6.66942 9.03642 6.70345L9.03838 6.7112ZM8.90685 6.82568C8.93635 6.77341 8.98297 6.73293 9.03886 6.71105L9.03594 6.7036C8.97834 6.72615 8.93029 6.76788 8.89988 6.82175L8.90685 6.82568ZM8.86535 7.21895C8.86071 7.08621 8.87482 6.95349 8.90725 6.82469L8.89949 6.82274C8.86688 6.95226 8.85269 7.08574 8.85735 7.21923L8.86535 7.21895ZM8.8393 7.9508C8.85666 7.5917 8.86535 7.34777 8.86535 7.21909H8.85735C8.85735 7.34755 8.84867 7.5913 8.8313 7.95041L8.8393 7.9508ZM8.76436 8.44288C8.81023 8.28269 8.83541 8.11728 8.8393 7.9507L8.8313 7.95051C8.82743 8.11642 8.80235 8.28114 8.75666 8.44068L8.76436 8.44288ZM8.60954 8.75465C8.6785 8.6603 8.73085 8.55488 8.76434 8.44293L8.75668 8.44063C8.72345 8.55172 8.6715 8.65632 8.60308 8.74992L8.60954 8.75465ZM8.3219 9.00776C8.43026 8.93886 8.52724 8.85354 8.60938 8.75484L8.60323 8.74973C8.52162 8.84778 8.42526 8.93256 8.31761 9.00101L8.3219 9.00776ZM8.60104 9.24518C8.52358 9.14747 8.42895 9.06471 8.3218 9.00095L8.31771 9.00782C8.42402 9.07109 8.51791 9.15321 8.59477 9.25015L8.60104 9.24518ZM8.76731 9.58274C8.73369 9.46076 8.6773 9.34625 8.6011 9.24525L8.59471 9.25007C8.6703 9.35027 8.72625 9.46386 8.7596 9.58486L8.76731 9.58274ZM8.84224 10.116C8.83701 9.93607 8.81189 9.75724 8.76733 9.58281L8.75958 9.58479C8.80399 9.75865 8.82903 9.9369 8.83424 10.1163L8.84224 10.116ZM8.86241 10.7649C8.86241 10.671 8.85568 10.4546 8.84224 10.116L8.83424 10.1163C8.84769 10.455 8.85441 10.6711 8.85441 10.7649H8.86241ZM8.90848 11.1554C8.87297 11.0285 8.85742 10.8968 8.86241 10.765L8.85441 10.7647C8.8494 10.8973 8.86504 11.0298 8.90078 11.1576L8.90848 11.1554ZM9.04607 11.2738C8.98833 11.25 8.9399 11.2082 8.90807 11.1544L8.90119 11.1585C8.9339 11.2137 8.98368 11.2568 9.04302 11.2812L9.04607 11.2738ZM9.44891 11.3155C9.31309 11.324 9.17679 11.3099 9.04561 11.2736L9.04348 11.2814C9.17551 11.3178 9.3127 11.3321 9.44942 11.3235L9.44891 11.3155ZM9.45317 11.9439V11.3195H9.44517V11.9439H9.45317ZM9.29664 11.9479H9.44917V11.9399H9.29664V11.9479ZM8.75254 11.867C8.92799 11.9248 9.11205 11.9522 9.29674 11.9479L9.29655 11.9399C9.11278 11.9442 8.92963 11.9169 8.75504 11.8594L8.75254 11.867ZM8.40047 11.6504C8.49698 11.7521 8.61838 11.8268 8.75264 11.867L8.75494 11.8594C8.62201 11.8195 8.50182 11.7456 8.40627 11.6449L8.40047 11.6504ZM8.20785 11.2703C8.23611 11.4122 8.30271 11.5436 8.40042 11.6504L8.40632 11.645C8.30959 11.5393 8.24367 11.4092 8.21569 11.2687L8.20785 11.2703ZM8.15861 10.561C8.15203 10.7984 8.16851 11.0359 8.20783 11.2702L8.21572 11.2689C8.17648 11.0351 8.16004 10.7981 8.16661 10.5612L8.15861 10.561ZM8.11245 9.83026C8.15311 10.0716 8.16858 10.3164 8.15861 10.5609L8.16661 10.5613C8.1766 10.3162 8.16109 10.0708 8.12034 9.82893L8.11245 9.83026ZM7.92204 9.48208C8.02036 9.57541 8.08695 9.69721 8.11246 9.83035L8.12032 9.82884C8.09449 9.69406 8.02708 9.57076 7.92755 9.47627L7.92204 9.48208ZM7.4787 9.37855C7.63335 9.37365 7.78655 9.40958 7.92291 9.4827L7.92669 9.47565C7.7891 9.40186 7.6345 9.36561 7.47845 9.37056L7.4787 9.37855ZM14.0581 9.47776C13.9586 9.57224 13.8912 9.69554 13.8653 9.83033L13.8732 9.83183C13.8987 9.69869 13.9653 9.57689 14.0636 9.48356L14.0581 9.47776ZM14.5085 9.37036C14.3518 9.36571 14.1968 9.40255 14.059 9.47714L14.0628 9.48418C14.1993 9.41026 14.353 9.37375 14.5082 9.37835L14.5085 9.37036ZM14.5043 8.64158V9.37436H14.5123V8.64158H14.5043ZM14.1361 8.58488C14.2561 8.62476 14.3818 8.64526 14.5083 8.64558L14.5084 8.63758C14.3827 8.63726 14.2579 8.6169 14.1386 8.57728L14.1361 8.58488ZM13.9494 8.39771C13.9926 8.47624 14.0571 8.541 14.1354 8.58457L14.1393 8.57758C14.0623 8.53474 13.9989 8.47106 13.9564 8.39386L13.9494 8.39771ZM13.8422 8.07022C13.8561 8.18535 13.8926 8.29663 13.9494 8.39774L13.9564 8.39383C13.9001 8.29363 13.864 8.18335 13.8501 8.06925L13.8422 8.07022ZM13.819 7.55872C13.8153 7.72953 13.823 7.9004 13.8422 8.07018L13.8501 8.06929C13.831 7.89986 13.8233 7.72935 13.827 7.5589L13.819 7.55872ZM13.7674 6.7317C13.8104 7.00514 13.8277 7.28201 13.819 7.55868L13.827 7.55894C13.8357 7.28177 13.8184 7.00439 13.7753 6.73046L13.7674 6.7317ZM13.581 6.35561C13.6767 6.46138 13.7412 6.5916 13.7674 6.73181L13.7753 6.73034C13.7488 6.58868 13.6836 6.45711 13.5869 6.35024L13.581 6.35561ZM13.2424 6.1248C13.3752 6.16723 13.4928 6.24737 13.5809 6.35545L13.5871 6.3504C13.498 6.24111 13.3791 6.16008 13.2449 6.11718L13.2424 6.1248ZM12.6909 6.06995C12.8765 6.06265 13.0622 6.08113 13.2427 6.12488L13.2446 6.11711C13.0633 6.07318 12.8769 6.05462 12.6905 6.06195L12.6909 6.06995ZM12.5382 6.06995H12.6907V6.06195H12.5382V6.06995ZM12.5422 6.67394V6.06595H12.5342V6.67394H12.5422ZM12.9497 6.70829C12.8152 6.67426 12.6763 6.66133 12.5379 6.66994L12.5384 6.67793C12.676 6.66936 12.8141 6.68222 12.9477 6.71605L12.9497 6.70829ZM13.0862 6.82659C13.0558 6.77272 13.0077 6.73099 12.9501 6.70845L12.9472 6.7159C13.0031 6.73777 13.0497 6.77826 13.0792 6.83052L13.0862 6.82659ZM13.1287 7.22408C13.1334 7.09059 13.1192 6.95711 13.0866 6.82758L13.0788 6.82953C13.1113 6.95833 13.1254 7.09106 13.1207 7.2238L13.1287 7.22408ZM13.1548 7.95526C13.1374 7.59614 13.1287 7.3524 13.1287 7.22394H13.1207C13.1207 7.35262 13.1294 7.59655 13.1468 7.95564L13.1548 7.95526ZM13.2294 8.44552C13.1837 8.28599 13.1586 8.12126 13.1548 7.95536L13.1468 7.95554C13.1507 8.12213 13.1758 8.28753 13.2217 8.44773L13.2294 8.44552ZM13.383 8.75477C13.3146 8.66116 13.2626 8.55656 13.2294 8.44548L13.2217 8.44777C13.2552 8.55973 13.3076 8.66515 13.3765 8.75949L13.383 8.75477ZM13.6685 9.00585C13.5608 8.9374 13.4645 8.85263 13.3828 8.75457L13.3767 8.75969C13.4588 8.85838 13.5558 8.94371 13.6642 9.01261L13.6685 9.00585ZM13.3913 9.25499C13.4682 9.15805 13.5621 9.07593 13.6684 9.01267L13.6643 9.00579C13.5571 9.06956 13.4625 9.15232 13.385 9.25002L13.3913 9.25499ZM13.2265 9.5897C13.2598 9.46871 13.3158 9.35511 13.3914 9.25492L13.385 9.2501C13.3088 9.3511 13.2524 9.46561 13.2188 9.58758L13.2265 9.5897ZM13.151 10.1207C13.1565 9.94144 13.1818 9.76333 13.2265 9.58964L13.2188 9.58765C13.1739 9.76191 13.1485 9.9406 13.143 10.1205L13.151 10.1207ZM13.1308 10.7693C13.1308 10.6756 13.1375 10.4594 13.151 10.1207L13.143 10.1204C13.1296 10.459 13.1228 10.6754 13.1228 10.7693H13.1308ZM13.0845 11.162C13.1202 11.0342 13.1358 10.9017 13.1308 10.7692L13.1228 10.7695C13.1278 10.9012 13.1123 11.0329 13.0768 11.1598L13.0845 11.162ZM12.9422 11.2856C13.0016 11.2612 13.0513 11.2182 13.0841 11.163L13.0772 11.1589C13.0453 11.2126 12.9969 11.2545 12.9392 11.2782L12.9422 11.2856ZM12.5358 11.3279C12.6725 11.3365 12.8097 11.3223 12.9418 11.2858L12.9396 11.2781C12.8084 11.3143 12.6722 11.3285 12.5363 11.3199L12.5358 11.3279ZM12.5401 11.947V11.3239H12.5321V11.947H12.5401ZM12.6886 11.943H12.5361V11.951H12.6886V11.943ZM13.2302 11.8626C13.0556 11.9201 12.8725 11.9473 12.6887 11.943L12.6885 11.951C12.8732 11.9553 13.0572 11.928 13.2327 11.8702L13.2302 11.8626ZM13.5785 11.6447C13.4835 11.7465 13.3634 11.8216 13.2303 11.8626L13.2326 11.8702C13.3671 11.8289 13.4884 11.753 13.5844 11.6502L13.5785 11.6447ZM13.7691 11.2685C13.7412 11.409 13.6752 11.5391 13.5785 11.6448L13.5844 11.6502C13.6821 11.5435 13.7487 11.412 13.777 11.2701L13.7691 11.2685ZM13.819 10.5627C13.8252 10.7991 13.8085 11.0355 13.7691 11.2686L13.777 11.27C13.8165 11.0363 13.8332 10.7994 13.827 10.5625L13.819 10.5627ZM13.8653 9.83041C13.8246 10.0723 13.8091 10.3177 13.819 10.5628L13.827 10.5624C13.8171 10.3179 13.8325 10.073 13.8732 9.83174L13.8653 9.83041Z" fill="#DCEDC8"/>
</g>
<defs>
<clipPath id="clip0_142_98">
<rect width="16" height="16" fill="#FAFAFA"/>
</clipPath>
</defs>
</svg>
