<svg clip-rule="evenodd" fill-rule="evenodd" stroke-linejoin="round" stroke-miterlimit="1.4142" version="1.1" viewBox="0 0 24 24" xml:space="preserve" xmlns="http://www.w3.org/2000/svg"><path d="m10 4h-6c-1.11 0-2 0.89-2 2v12c0 1.097 0.903 2 2 2h16c1.097 0 2-0.903 2-2v-10c0-1.11-0.9-2-2-2h-8l-2-2z" fill="#e57373" fill-rule="nonzero" style="fill:#0288d1"/><g transform="matrix(.61246 0 0 .61246 10.008 8.0792)" style="clip-rule:evenodd;fill-rule:evenodd;fill:#b3e5fc;stroke-linejoin:round;stroke-miterlimit:2"><g transform="matrix(.94546 0 0 .94546 .65453 .65453)" style="fill:#b3e5fc"><path d="m13.593 1.116c-1.056-0.155-2.13-0.155-3.186 0l-0.697 1.819c-0.879 0.222-1.722 0.571-2.501 1.036l-1.779-0.793c-0.856 0.637-1.615 1.396-2.252 2.252l0.793 1.779c-0.465 0.779-0.814 1.622-1.036 2.501l-1.819 0.697c-0.155 1.056-0.155 2.13 0 3.186l1.819 0.697c0.222 0.879 0.571 1.722 1.036 2.501l-0.793 1.779c0.637 0.856 1.396 1.615 2.252 2.252l1.779-0.793c0.779 0.465 1.622 0.814 2.501 1.036l0.697 1.819c1.056 0.155 2.13 0.155 3.186 0l0.697-1.819c0.879-0.222 1.722-0.571 2.501-1.036l1.779 0.793c0.856-0.637 1.615-1.396 2.252-2.252l-0.793-1.779c0.465-0.779 0.814-1.622 1.036-2.501l1.819-0.697c0.155-1.056 0.155-2.13 0-3.186l-1.819-0.697c-0.222-0.879-0.571-1.722-1.036-2.501l0.793-1.779c-0.637-0.856-1.396-1.615-2.252-2.252l-1.779 0.793c-0.779-0.465-1.622-0.814-2.501-1.036zm-1.593 3.835c3.89 0 7.049 3.159 7.049 7.049s-3.159 7.049-7.049 7.049-7.049-3.159-7.049-7.049 3.159-7.049 7.049-7.049z" style="fill:#b3e5fc"/><path d="m14.83 14.825c-0.724 0.726-1.725 1.175-2.83 1.175-2.208 0-4-1.792-4-4s1.792-4 4-4c1.105 0 2.106 0.449 2.83 1.175l-1.414 1.413c-0.362-0.363-0.863-0.588-1.416-0.588-1.104 0-2 0.896-2 2s0.896 2 2 2c0.553 0 1.054-0.225 1.416-0.588z" style="fill:#b3e5fc"/></g></g></svg>
