<svg version="1.1" viewBox="0 0 32 32" xml:space="preserve" xmlns="http://www.w3.org/2000/svg"><path d="M29 12H9.4a2 2 0 0 0-1.9 1.4L4 24V10h24a2 2 0 0 0-2-2H15.1a2 2 0 0 1-1.3-.5l-1.2-1a2 2 0 0 0-1.3-.5H4a2 2 0 0 0-2 2v16a2 2 0 0 0 2 2h22l4.8-11.2A2 2 0 0 0 29 12z" fill="#ab47bc"/><path d="m21.15 25.74-8.3-5.2a1.8 1.8 0 0 1-0.85-1.54v-0.98l9.15 5.72a1.6 1.6 0 0 0 1.7 0l9.15-5.74v1a1.8 1.8 0 0 1-0.85 1.53l-8.3 5.21a1.6 1.6 0 0 1-1.7 0zm0 4-8.3-5.2a1.8 1.8 0 0 1-0.85-1.54v-0.98l9.15 5.72a1.6 1.6 0 0 0 1.7 0l9.15-5.74v1a1.8 1.8 0 0 1-0.85 1.53l-8.3 5.21a1.6 1.6 0 0 1-1.7 0zm-0.08-19.46-9.07 5.72 9.07 5.73c0.56 0.36 1.29 0.36 1.85 0l9.07-5.73-9.07-5.72a1.68 1.68 0 0 0-1.85 0z" fill="#e1bee7"/></svg>
