<svg xmlns="http://www.w3.org/2000/svg" viewBox="0 0 32 32"><path fill="#1e88e5" d="M28.967 12H9.442a2 2 0 0 0-1.898 1.368L4 24V10h24a2 2 0 0 0-2-2H15.124a2 2 0 0 1-1.28-.464l-1.288-1.072A2 2 0 0 0 11.276 6H4a2 2 0 0 0-2 2v16a2 2 0 0 0 2 2h22l4.805-11.212A2 2 0 0 0 28.967 12Z"/><path fill="#e3f2fd" d="m15.508 21.618 1.272 3.936a1.456 1.456 0 0 0-.06 1.922 1.345 1.345 0 0 0 .937.486l.1.003a1.331 1.331 0 0 0 .894-.346 1.41 1.41 0 0 0 .207-.231 1.446 1.446 0 0 0-.307-1.972 1.356 1.356 0 0 0-.597-.256l-1.586-5.037a.161.161 0 0 0-.092-.101.154.154 0 0 0-.134.007 1.916 1.916 0 0 1-2.059-.113 1.995 1.995 0 0 1-.423-2.72 1.836 1.836 0 0 1 2.088-.697.158.158 0 0 0 .199-.102l.325-.95a.172.172 0 0 0-.007-.128.16.16 0 0 0-.093-.084 3.055 3.055 0 0 0-.978-.167h-.039A3.215 3.215 0 0 0 12 18.296a3.306 3.306 0 0 0 1.321 2.698 3.083 3.083 0 0 0 2.187.624Z"/><path fill="#e3f2fd" d="M15.802 17.146a1.349 1.349 0 0 0-1.787.535 1.452 1.452 0 0 0-.157 1.074 1.406 1.406 0 0 0 .622.875 1.326 1.326 0 0 0 .706.203 1.362 1.362 0 0 0 1.176-.685 1.468 1.468 0 0 0 .177-.971l4.14-3.149a.165.165 0 0 0 .065-.122.168.168 0 0 0-.05-.13 2.089 2.089 0 0 1-.556-2.063 1.883 1.883 0 0 1 2.383-1.262 1.954 1.954 0 0 1 1.31 1.823.162.162 0 0 0 .155.161l.983.02a.203.203 0 0 0 .114-.047.168.168 0 0 0 .048-.117 3.343 3.343 0 0 0-.945-2.333A3.118 3.118 0 0 0 21.939 10a4.16 4.16 0 0 0-.293.014 3.141 3.141 0 0 0-2.162 1.182 3.402 3.402 0 0 0-.457 3.457Zm10.842 10.755a1.385 1.385 0 0 0 .736-.77 1.451 1.451 0 0 0-.005-1.083 1.384 1.384 0 0 0-.744-.763 1.314 1.314 0 0 0-1.047.005 1.402 1.402 0 0 0-.693.672l-5.12.014a.157.157 0 0 0-.123.06.17.17 0 0 0-.033.135 2.075 2.075 0 0 1-.724 2 1.823 1.823 0 0 1-1.4.355 1.86 1.86 0 0 1-1.233-.773 2 2 0 0 1-.016-2.286.168.168 0 0 0-.033-.226l-.778-.613a.147.147 0 0 0-.12-.032.156.156 0 0 0-.105.065 3.36 3.36 0 0 0-.575 2.45 3.291 3.291 0 0 0 1.266 2.153 3.094 3.094 0 0 0 1.874.634 3.146 3.146 0 0 0 2.572-1.349 3.37 3.37 0 0 0 .545-1.264l4.01-.04a1.35 1.35 0 0 0 1.746.656Z"/><path fill="#e3f2fd" d="m27.718 23.882 1.228-3.945a1.343 1.343 0 0 0 .824-.473 1.435 1.435 0 0 0 .328-1.026 1.366 1.366 0 0 0-2.729-.013 1.48 1.48 0 0 0 .06.553 1.414 1.414 0 0 0 .336.564l-1.603 5.027a.17.17 0 0 0 .016.14.158.158 0 0 0 .115.075 1.952 1.952 0 0 1 .385 3.782 1.844 1.844 0 0 1-2.097-.692.156.156 0 0 0-.217-.037l-.811.572a.164.164 0 0 0-.067.108.169.169 0 0 0 .028.124A3.152 3.152 0 0 0 26.097 30a3.099 3.099 0 0 0 1.871-.63 3.363 3.363 0 0 0 1.165-3.667 3.227 3.227 0 0 0-1.415-1.82Z"/><path fill="#e3f2fd" d="M31.845 17.545a3.15 3.15 0 0 0-5.177-1.459l-3.28-2.432a1.457 1.457 0 0 0-.193-.969 1.372 1.372 0 0 0-.857-.637 1.301 1.301 0 0 0-.308-.038h-.004a1.425 1.425 0 0 0-.003 2.847h.005a1.33 1.33 0 0 0 .631-.16l4.165 3.137a.155.155 0 0 0 .133.027.159.159 0 0 0 .104-.089 1.977 1.977 0 0 1 1.735-1.178h.001a1.933 1.933 0 0 1 1.897 1.963 1.957 1.957 0 0 1-1.296 1.863.166.166 0 0 0-.102.203l.28.98a.16.16 0 0 0 .079.098.153.153 0 0 0 .123.011 3.212 3.212 0 0 0 1.867-1.64 3.394 3.394 0 0 0 .2-2.527Z"/></svg>