<svg xmlns="http://www.w3.org/2000/svg" style="clip-rule:evenodd;fill-rule:evenodd;stroke-linejoin:round;stroke-miterlimit:2" version="1.1" viewBox="0 0 24 24" xml:space="preserve">
  <path d="m19 20h-15c-1.11 0-2-0.9-2-2v-12c0-1.11 0.89-2 2-2h6l2 2h7c1.097 0 2 0.903 2 2h-17v10l2.14-8h17.07l-2.28 8.5c-0.23 0.87-1.01 1.5-1.93 1.5z" style="fill-rule:nonzero;fill:#0288d1;fill-opacity:1" />
  <g transform="matrix(0.56440882,0,0,0.56440882,9.858743,8.054902)" style="clip-rule:evenodd;fill:#42a5f5;fill-opacity:1;fill-rule:evenodd;stroke-linejoin:round;stroke-miterlimit:2">
    <g style="fill:#42a5f5;fill-opacity:1" transform="matrix(0.94546,0,0,0.94546,0.65453,0.65453)">
      <path d="m 13.593,1.116 c -1.056,-0.155 -2.13,-0.155 -3.186,0 L 9.71,2.935 C 8.831,3.157 7.988,3.506 7.209,3.971 L 5.43,3.178 C 4.574,3.815 3.815,4.574 3.178,5.43 L 3.971,7.209 C 3.506,7.988 3.157,8.831 2.935,9.71 l -1.819,0.697 c -0.155,1.056 -0.155,2.13 0,3.186 l 1.819,0.697 c 0.222,0.879 0.571,1.722 1.036,2.501 L 3.178,18.57 c 0.637,0.856 1.396,1.615 2.252,2.252 l 1.779,-0.793 c 0.779,0.465 1.622,0.814 2.501,1.036 l 0.697,1.819 c 1.056,0.155 2.13,0.155 3.186,0 l 0.697,-1.819 c 0.879,-0.222 1.722,-0.571 2.501,-1.036 l 1.779,0.793 c 0.856,-0.637 1.615,-1.396 2.252,-2.252 l -0.793,-1.779 c 0.465,-0.779 0.814,-1.622 1.036,-2.501 l 1.819,-0.697 c 0.155,-1.056 0.155,-2.13 0,-3.186 L 21.065,9.71 C 20.843,8.831 20.494,7.988 20.029,7.209 L 20.822,5.43 C 20.185,4.574 19.426,3.815 18.57,3.178 L 16.791,3.971 C 16.012,3.506 15.169,3.157 14.29,2.935 Z M 12,4.951 c 3.89,0 7.049,3.159 7.049,7.049 0,3.89 -3.159,7.049 -7.049,7.049 C 8.11,19.049 4.951,15.89 4.951,12 4.951,8.11 8.11,4.951 12,4.951 Z" style="fill:#42a5f5;fill-opacity:1"/>
      <path d="M 14.83,14.825 C 14.106,15.551 13.105,16 12,16 9.792,16 8,14.208 8,12 8,9.792 9.792,8 12,8 c 1.105,0 2.106,0.449 2.83,1.175 l -1.414,1.413 C 13.054,10.225 12.553,10 12,10 c -1.104,0 -2,0.896 -2,2 0,1.104 0.896,2 2,2 0.553,0 1.054,-0.225 1.416,-0.588 z" style="fill:#42a5f5;fill-opacity:1"/>
    </g>
  </g>
</svg>