<svg xmlns="http://www.w3.org/2000/svg" viewBox="0 0 16 16">
<path id="folder" fill="#ff9800" d="m6.922 3.768-.644-.536A1 1 0 0 0 5.638 3H2a1 1 0 0 0-1 1v8a1 1 0 0 0 1 1h12a1 1 0 0 0 1-1V5a1 1 0 0 0-1-1H7.562a1 1 0 0 1-.64-.232" />
<path id="motive" fill="#ffe0b2" d="m 9.0350404,11.469586 a 0.49749152,0.49631995 0 1 1 -0.497492,-0.49632 0.49749152,0.49631995 0 0 1 0.497492,0.49632 m 6.9648806,0 a 2.4874577,2.4815998 0 1 1 -4.407774,-1.5599326 2.288461,2.2830718 0 0 1 -1.134281,0 2.5118347,2.5059194 0 1 1 -1.3531766,-0.850693 2.4874577,2.4815998 0 1 1 3.8406346,0 2.467558,2.461747 0 0 1 3.054597,2.4106256 m -5.969898,0 a 1.4924745,1.4889598 0 1 0 -1.4924746,1.488961 1.4924745,1.4889598 0 0 0 1.4924746,-1.488961 m 0.994983,-2.4815986 a 1.4924745,1.4889598 0 1 0 -1.4924736,-1.48896 1.4924745,1.4889598 0 0 0 1.4924736,1.48896 m 3.979932,2.4815986 a 1.4924745,1.4889598 0 1 0 -1.492474,1.488961 1.4924745,1.4889598 0 0 0 1.492474,-1.488961 m -1.492474,-0.49632 a 0.49749152,0.49631995 0 1 0 0.497492,0.49632 0.49749152,0.49631995 0 0 0 -0.497492,-0.49632 M 11.025006,7.0027074 a 0.49749152,0.49631995 0 1 0 0.497492,0.49632 0.49749152,0.49631995 0 0 0 -0.497492,-0.49632" />
</svg>
