<svg xmlns="http://www.w3.org/2000/svg" viewBox="0 0 32 32"><path fill="#546e7a" d="M28.967 12H9.442a2 2 0 0 0-1.898 1.368L4 24V10h24a2 2 0 0 0-2-2H15.124a2 2 0 0 1-1.28-.464l-1.288-1.072A2 2 0 0 0 11.276 6H4a2 2 0 0 0-2 2v16a2 2 0 0 0 2 2h22l4.805-11.212A2 2 0 0 0 28.967 12Z"/><path fill="#cfd8dc" d="M30.64 27.499c-.82 1.24-1.687 2.45-3.008 2.47-1.322.03-1.746-.79-3.245-.79-1.508 0-1.972.77-3.224.82-1.292.05-2.268-1.32-3.096-2.53-1.687-2.47-2.979-7.02-1.243-10.08a4.808 4.808 0 0 1 4.063-2.51c1.262-.02 2.465.87 3.244.87.77 0 2.229-1.07 3.757-.91a4.563 4.563 0 0 1 3.59 1.98 4.57 4.57 0 0 0-2.12 3.81A4.414 4.414 0 0 0 32 24.67a11.121 11.121 0 0 1-1.36 2.83Zm-5.632-16a4.462 4.462 0 0 1 2.9-1.499 4.416 4.416 0 0 1-1.026 3.19 3.583 3.583 0 0 1-2.91 1.42 4.312 4.312 0 0 1 1.036-3.11Z"/></svg>