<svg xmlns="http://www.w3.org/2000/svg" viewBox="0 0 16 16"><path id="folder" fill="#546e7a" d="m6.922 3.768-.644-.536A1 1 0 0 0 5.638 3H2a1 1 0 0 0-1 1v8a1 1 0 0 0 1 1h12a1 1 0 0 0 1-1V5a1 1 0 0 0-1-1H7.562a1 1 0 0 1-.64-.232"/><path id="motive" fill="#cfd8dc" d="M15.32 13.75c-.41.62-.843 1.224-1.504 1.234-.661.015-.873-.395-1.622-.395-.754 0-.986.385-1.612.41-.646.025-1.134-.66-1.548-1.265-.844-1.235-1.49-3.51-.622-5.04a2.4 2.4 0 0 1 2.032-1.255c.63-.01 1.232.435 1.622.435.385 0 1.114-.535 1.878-.455a2.28 2.28 0 0 1 1.795.99 2.29 2.29 0 0 0-1.06 1.905A2.2 2.2 0 0 0 16 12.334a5.6 5.6 0 0 1-.68 1.416m-2.816-8a2.23 2.23 0 0 1 1.45-.75 2.2 2.2 0 0 1-.513 1.595 1.79 1.79 0 0 1-1.455.71 2.15 2.15 0 0 1 .518-1.555"/></svg>