<svg xmlns="http://www.w3.org/2000/svg" viewBox="0 0 32 32">
  <path d="M13.84376,7.53645l-1.28749-1.0729A2,2,0,0,0,11.27591,6H4A2,2,0,0,0,2,8V24a2,2,0,0,0,2,2H28a2,2,0,0,0,2-2V10a2,2,0,0,0-2-2H15.12412A2,2,0,0,1,13.84376,7.53645Z" style="fill: #039be5"/>
  <g>
    <rect x="10" y="16" width="6" height="14" style="fill: #b3e5fc"/>
    <rect x="18" y="24" width="6" height="6" style="fill: #b3e5fc"/>
    <rect x="26" y="24" width="6" height="6" style="fill: #b3e5fc"/>
    <rect x="18" y="16" width="14" height="6" style="fill: #b3e5fc"/>
  </g>
</svg>
