<svg xmlns="http://www.w3.org/2000/svg" viewBox="0 0 16 16"><path id="folder" fill="#ab47bc" d="m6.922 3.768-.644-.536A1 1 0 0 0 5.638 3H2a1 1 0 0 0-1 1v8a1 1 0 0 0 1 1h12a1 1 0 0 0 1-1V5a1 1 0 0 0-1-1H7.562a1 1 0 0 1-.64-.232"/><path id="motive" fill="#e1bee7" d="m12.048 14-.73-1.707a9.6 9.6 0 0 0 1.966-1.013zM8.707 9.68 7 8.954l2.723-1.235A9.208 9.212 0 0 0 8.707 9.68m7.12-4.507S13.62 4.23 11.1 6.752c-.977.975-1.56 2.05-1.937 2.991a.886.887 0 0 0 .202.949l.949.945a.88.88 0 0 0 .943.205 8.515 8.519 0 0 0 2.993-1.938c2.522-2.524 1.578-4.73 1.578-4.73m-3.155 3.151a.9.9 0 0 1 0-1.261.896.896 0 0 1 1.263 0 .896.896 0 0 1 0 1.261.896.896 0 0 1-1.263 0m-2.522 3.152-.623-.629Zm-1.173 2.438 1.622-1.622a1.386 1.387 0 0 1-.432-.201l-1.819 1.823Zm-1.887 0h.623l2.129-2.121-.635-.63-2.117 2.123zm0-1.262 1.82-1.818a1.287 1.288 0 0 1-.203-.433L7.09 12.025z"/></svg>