<svg xmlns="http://www.w3.org/2000/svg" width="32" height="32" viewBox="0 0 32 32"><path d="m13.84,7.54l-1.29-1.07c-.36-.3-.81-.46-1.28-.46h-7.28c-1.1,0-2,.9-2,2v16c0,1.1.9,2,2,2h24c1.1,0,2-.9,2-2v-14c0-1.1-.9-2-2-2h-12.88c-.47,0-.92-.16-1.28-.46Z" fill="#26a69a"/><g><path d="m32,24.16l-7.91,4.89-8.01-4.81-.08-9.34,7.97-4.89,7.99,4.8.04,9.36Z"/><path d="m24.03,19.74l6.11-3.77-6.15-3.69-6.14,3.77,6.18,3.69Z" fill="#0288D1"/><path d="m30.17,23.19l-.03-7.21-6.11,3.77.04,7.21,6.1-3.77Z" fill="#00BFA5"/><path d="m17.85,16.05l6.18,3.69.04,7.21-6.17-3.71-.06-7.19Z" fill="#84FFFF"/></g></svg>