<svg version="1.1" viewBox="0 0 32 32" xml:space="preserve" xmlns="http://www.w3.org/2000/svg"><path d="M13.84376,7.53645l-1.28749-1.0729A2,2,0,0,0,11.27591,6H4A2,2,0,0,0,2,8V24a2,2,0,0,0,2,2H28a2,2,0,0,0,2-2V10a2,2,0,0,0-2-2H15.12412A2,2,0,0,1,13.84376,7.53645Z" fill="#f9a825"/><path d="m24 28v-2h3q0.425 0 0.7125-0.2875t0.2875-0.7125v-2q0-0.95 0.55-1.725t1.45-1.1v-0.35q-0.9-0.325-1.45-1.1t-0.55-1.725v-2q0-0.425-0.2875-0.7125t-0.7125-0.2875h-3v-2h3q1.25 0 2.125 0.875t0.875 2.125v2q0 0.425 0.2875 0.7125t0.7125 0.2875h1v4h-1q-0.425 0-0.7125 0.2875t-0.2875 0.7125v2q0 1.25-0.875 2.125t-2.125 0.875zm-7 0q-1.25 0-2.125-0.875t-0.875-2.125v-2q0-0.425-0.2875-0.7125t-0.7125-0.2875h-1v-4h1q0.425 0 0.7125-0.2875t0.2875-0.7125v-2q0-1.25 0.875-2.125t2.125-0.875h3v2h-3q-0.425 0-0.7125 0.2875t-0.2875 0.7125v2q0 0.95-0.55 1.725t-1.45 1.1v0.35q0.9 0.325 1.45 1.1t0.55 1.725v2q0 0.425 0.2875 0.7125t0.7125 0.2875h3v2z" fill="#fff8e1" stroke-width=".025"/></svg>
