<svg xmlns="http://www.w3.org/2000/svg" viewBox="0 0 32 32">
  <path d="M13.84376,7.53645l-1.28749-1.0729A2,2,0,0,0,11.27591,6H4A2,2,0,0,0,2,8V24a2,2,0,0,0,2,2H28a2,2,0,0,0,2-2V10a2,2,0,0,0-2-2H15.12412A2,2,0,0,1,13.84376,7.53645Z" style="fill: #ff5252"/>
  <path d="M24,14a8,8,0,1,0,8,8A8,8,0,0,0,24,14Zm6,8a5.96067,5.96067,0,0,1-1.11487,3.47095l-8.35608-8.35608A5.99041,5.99041,0,0,1,30,22ZM18,22a5.96067,5.96067,0,0,1,1.11487-3.47095L27.471,26.88513A5.99041,5.99041,0,0,1,18,22Z" style="fill: #ffcdd2;fill-rule: evenodd"/>
</svg>
