<?xml version="1.0" encoding="UTF-8" standalone="no"?>
<!DOCTYPE svg PUBLIC "-//W3C//DTD SVG 1.1//EN" "http://www.w3.org/Graphics/SVG/1.1/DTD/svg11.dtd">
<svg width="100%" height="100%" viewBox="0 0 24 24" version="1.1" xmlns="http://www.w3.org/2000/svg" xmlns:xlink="http://www.w3.org/1999/xlink" xml:space="preserve" xmlns:serif="http://www.serif.com/" style="fill-rule:evenodd;clip-rule:evenodd;stroke-linecap:round;stroke-miterlimit:1;">
    <path d="M19,20L4,20C2.89,20 2,19.1 2,18L2,6C2,4.89 2.89,4 4,4L10,4L12,6L19,6C20.097,6 21,6.903 21,8L4,8L4,18L6.14,10L23.21,10L20.93,18.5C20.7,19.37 19.92,20 19,20Z" style="fill:rgb(229,174,14);fill-rule:nonzero;"/>
    <g transform="matrix(0.146024,-0.692368,1.95851,0.41306,-1.42706,20.2964)">
        <path d="M19.878,8.153C19.878,8.153 19.873,8.247 19.866,8.386C19.826,9.145 18.76,9.85 16.999,10.283C16.998,10.283 16.998,10.283 16.998,10.283" style="fill:none;stroke:rgb(229,219,114);stroke-width:0.33px;"/>
    </g>
    <g transform="matrix(-0.230916,0.668861,-1.89201,-0.653195,34.8362,14.0239)">
        <path d="M19.878,8.153C19.878,8.153 19.873,8.247 19.866,8.386C19.826,9.145 18.76,9.85 16.999,10.283C16.998,10.283 16.998,10.283 16.998,10.283" style="fill:none;stroke:rgb(229,219,114);stroke-width:0.33px;"/>
    </g>
    <g transform="matrix(0.0195007,0,0,0.0174768,15.6661,14.2598)">
        <path d="M400.016,186.352C399.832,186.496 399.594,186.625 399.406,186.77C397.594,188.105 395.68,189.406 393.617,190.68C393.289,190.879 392.93,191.07 392.602,191.273C390.734,192.375 388.77,193.457 386.719,194.512L385.047,195.375C382.688,196.543 380.246,197.68 377.656,198.785L376.129,199.406C373.855,200.352 371.512,201.266 369.098,202.152L367.121,202.879C364.293,203.883 361.379,204.852 358.375,205.793L356.352,206.398C353.734,207.199 351.07,207.945 348.352,208.688C347.633,208.879 346.93,209.078 346.207,209.266C343.008,210.113 339.711,210.91 336.313,211.664C335.512,211.848 334.711,212.016 333.91,212.191C330.969,212.848 327.977,213.477 324.938,214.078L322.809,214.504C319.266,215.188 315.664,215.828 312,216.434C311.113,216.586 310.207,216.719 309.313,216.863C306.113,217.383 302.824,217.879 299.52,218.344L297.543,218.625C293.754,219.156 289.922,219.633 286.055,220.055L283.145,220.375C279.602,220.762 276.039,221.117 272.449,221.449L270.992,221.586C266.992,221.938 262.992,222.23 258.992,222.504L256.016,222.727C252.207,222.969 248.395,223.176 244.574,223.352L243.625,223.398C239.543,223.574 235.461,223.711 231.375,223.801L228.383,223.863C224.266,223.945 220.145,224 216.031,224C211.922,224 207.801,223.945 203.68,223.863L200.688,223.801C196.598,223.703 192.516,223.57 188.441,223.398L187.488,223.352C183.664,223.176 179.852,222.969 176.047,222.727L173.055,222.527C169.055,222.258 165.055,221.961 161.055,221.609L159.602,221.473C156.012,221.148 152.445,220.789 148.902,220.398L145.992,220.078C142.129,219.633 138.301,219.156 134.504,218.648L132.496,218.398C129.191,217.938 125.938,217.441 122.703,216.922C121.809,216.777 120.902,216.641 120.016,216.488C116.355,215.879 112.754,215.238 109.207,214.559L107.078,214.137C104.039,213.535 101.047,212.902 98.105,212.246C97.305,212.07 96.504,211.902 95.703,211.719C92.328,210.953 89.031,210.152 85.809,209.32C85.09,209.137 84.383,208.938 83.664,208.742C80.93,208 78.266,207.238 75.664,206.457L73.641,205.848C70.633,204.91 67.719,203.938 64.895,202.938L62.922,202.207C60.504,201.324 58.16,200.406 55.887,199.465L54.359,198.84C51.785,197.734 49.328,196.602 46.969,195.434L45.297,194.566C43.246,193.512 41.297,192.434 39.414,191.328C39.09,191.129 38.727,190.938 38.398,190.734C36.336,189.465 34.398,188.16 32.609,186.824C32.426,186.68 32.184,186.551 32,186.406L32,272C32,292.039 102,320 216,320C330,320 400,292.039 400,272L400.016,186.352Z" style="fill:rgb(229,219,114);fill-rule:nonzero;"/>
    </g>
    <g transform="matrix(0.0195007,0,0,0.0174768,7.78771,10.4849)">
        <path d="M400.016,186.352C399.832,186.496 399.594,186.625 399.406,186.77C397.594,188.105 395.68,189.406 393.617,190.68C393.289,190.879 392.93,191.07 392.602,191.273C390.734,192.375 388.77,193.457 386.719,194.512L385.047,195.375C382.688,196.543 380.246,197.68 377.656,198.785L376.129,199.406C373.855,200.352 371.512,201.266 369.098,202.152L367.121,202.879C364.293,203.883 361.379,204.852 358.375,205.793L356.352,206.398C353.734,207.199 351.07,207.945 348.352,208.688C347.633,208.879 346.93,209.078 346.207,209.266C343.008,210.113 339.711,210.91 336.313,211.664C335.512,211.848 334.711,212.016 333.91,212.191C330.969,212.848 327.977,213.477 324.938,214.078L322.809,214.504C319.266,215.188 315.664,215.828 312,216.434C311.113,216.586 310.207,216.719 309.313,216.863C306.113,217.383 302.824,217.879 299.52,218.344L297.543,218.625C293.754,219.156 289.922,219.633 286.055,220.055L283.145,220.375C279.602,220.762 276.039,221.117 272.449,221.449L270.992,221.586C266.992,221.938 262.992,222.23 258.992,222.504L256.016,222.727C252.207,222.969 248.395,223.176 244.574,223.352L243.625,223.398C239.543,223.574 235.461,223.711 231.375,223.801L228.383,223.863C224.266,223.945 220.145,224 216.031,224C211.922,224 207.801,223.945 203.68,223.863L200.688,223.801C196.598,223.703 192.516,223.57 188.441,223.398L187.488,223.352C183.664,223.176 179.852,222.969 176.047,222.727L173.055,222.527C169.055,222.258 165.055,221.961 161.055,221.609L159.602,221.473C156.012,221.148 152.445,220.789 148.902,220.398L145.992,220.078C142.129,219.633 138.301,219.156 134.504,218.648L132.496,218.398C129.191,217.938 125.938,217.441 122.703,216.922C121.809,216.777 120.902,216.641 120.016,216.488C116.355,215.879 112.754,215.238 109.207,214.559L107.078,214.137C104.039,213.535 101.047,212.902 98.105,212.246C97.305,212.07 96.504,211.902 95.703,211.719C92.328,210.953 89.031,210.152 85.809,209.32C85.09,209.137 84.383,208.938 83.664,208.742C80.93,208 78.266,207.238 75.664,206.457L73.641,205.848C70.633,204.91 67.719,203.938 64.895,202.938L62.922,202.207C60.504,201.324 58.16,200.406 55.887,199.465L54.359,198.84C51.785,197.734 49.328,196.602 46.969,195.434L45.297,194.566C43.246,193.512 41.297,192.434 39.414,191.328C39.09,191.129 38.727,190.938 38.398,190.734C36.336,189.465 34.398,188.16 32.609,186.824C32.426,186.68 32.184,186.551 32,186.406L32,272C32,292.039 102,320 216,320C330,320 400,292.039 400,272L400.016,186.352Z" style="fill:rgb(229,219,114);fill-rule:nonzero;"/>
    </g>
    <g transform="matrix(0.0195007,0,0,0.0174768,15.6661,14.2598)">
        <path d="M400.016,298.352C399.832,298.496 399.594,298.625 399.406,298.77C397.594,300.105 395.68,301.406 393.617,302.68C393.289,302.879 392.93,303.07 392.602,303.273C390.734,304.375 388.77,305.457 386.719,306.512L385.047,307.375C382.688,308.543 380.246,309.68 377.656,310.785L376.129,311.406C373.855,312.352 371.512,313.266 369.098,314.152L367.121,314.879C364.293,315.883 361.379,316.852 358.375,317.793L356.352,318.398C353.734,319.199 351.07,319.945 348.352,320.688C347.633,320.879 346.93,321.078 346.207,321.266C343.008,322.113 339.711,322.91 336.313,323.664C335.512,323.848 334.711,324.016 333.91,324.191C330.969,324.848 327.977,325.477 324.938,326.078L322.809,326.504C319.266,327.18 315.664,327.824 312,328.434C311.113,328.586 310.207,328.719 309.313,328.863C306.113,329.383 302.824,329.879 299.52,330.344L297.543,330.625C293.754,331.156 289.922,331.633 286.055,332.055L283.145,332.375C279.602,332.762 276.039,333.117 272.449,333.449L270.992,333.586C266.992,333.938 262.992,334.23 258.992,334.504L256.016,334.727C252.207,334.969 248.395,335.176 244.574,335.352L243.625,335.398C239.543,335.574 235.461,335.711 231.375,335.801L228.383,335.863C224.266,335.945 220.145,336 216.031,336C211.922,336 207.801,335.945 203.68,335.863L200.688,335.801C196.598,335.703 192.516,335.57 188.441,335.398L187.488,335.352C183.664,335.176 179.852,334.969 176.047,334.727L173.055,334.527C169.055,334.258 165.055,333.961 161.055,333.609L159.602,333.473C156.012,333.148 152.445,332.789 148.902,332.398L145.992,332.078C142.129,331.633 138.301,331.156 134.504,330.648L132.496,330.398C129.191,329.938 125.938,329.441 122.703,328.922C121.809,328.777 120.902,328.641 120.016,328.488C116.355,327.879 112.754,327.238 109.207,326.559L107.078,326.137C104.039,325.539 101.047,324.91 98.105,324.246C97.305,324.07 96.504,323.902 95.703,323.719C92.328,322.953 89.031,322.152 85.809,321.32C85.09,321.137 84.383,320.938 83.664,320.742C80.93,320 78.266,319.238 75.664,318.457L73.641,317.848C70.633,316.914 67.719,315.945 64.895,314.938L62.922,314.207C60.504,313.324 58.16,312.406 55.887,311.465L54.359,310.84C51.785,309.734 49.328,308.602 46.969,307.434L45.297,306.566C43.246,305.512 41.297,304.434 39.414,303.328C39.09,303.129 38.727,302.938 38.398,302.734C36.336,301.465 34.398,300.16 32.609,298.824C32.426,298.68 32.184,298.551 32,298.406L32,384C32,404.039 102,432 216,432C330,432 400,404.039 400,384L400.016,298.352Z" style="fill:rgb(229,219,114);fill-rule:nonzero;"/>
    </g>
    <g transform="matrix(0.0195007,0,0,0.0174768,7.78771,10.4849)">
        <path d="M400.016,298.352C399.832,298.496 399.594,298.625 399.406,298.77C397.594,300.105 395.68,301.406 393.617,302.68C393.289,302.879 392.93,303.07 392.602,303.273C390.734,304.375 388.77,305.457 386.719,306.512L385.047,307.375C382.688,308.543 380.246,309.68 377.656,310.785L376.129,311.406C373.855,312.352 371.512,313.266 369.098,314.152L367.121,314.879C364.293,315.883 361.379,316.852 358.375,317.793L356.352,318.398C353.734,319.199 351.07,319.945 348.352,320.688C347.633,320.879 346.93,321.078 346.207,321.266C343.008,322.113 339.711,322.91 336.313,323.664C335.512,323.848 334.711,324.016 333.91,324.191C330.969,324.848 327.977,325.477 324.938,326.078L322.809,326.504C319.266,327.18 315.664,327.824 312,328.434C311.113,328.586 310.207,328.719 309.313,328.863C306.113,329.383 302.824,329.879 299.52,330.344L297.543,330.625C293.754,331.156 289.922,331.633 286.055,332.055L283.145,332.375C279.602,332.762 276.039,333.117 272.449,333.449L270.992,333.586C266.992,333.938 262.992,334.23 258.992,334.504L256.016,334.727C252.207,334.969 248.395,335.176 244.574,335.352L243.625,335.398C239.543,335.574 235.461,335.711 231.375,335.801L228.383,335.863C224.266,335.945 220.145,336 216.031,336C211.922,336 207.801,335.945 203.68,335.863L200.688,335.801C196.598,335.703 192.516,335.57 188.441,335.398L187.488,335.352C183.664,335.176 179.852,334.969 176.047,334.727L173.055,334.527C169.055,334.258 165.055,333.961 161.055,333.609L159.602,333.473C156.012,333.148 152.445,332.789 148.902,332.398L145.992,332.078C142.129,331.633 138.301,331.156 134.504,330.648L132.496,330.398C129.191,329.938 125.938,329.441 122.703,328.922C121.809,328.777 120.902,328.641 120.016,328.488C116.355,327.879 112.754,327.238 109.207,326.559L107.078,326.137C104.039,325.539 101.047,324.91 98.105,324.246C97.305,324.07 96.504,323.902 95.703,323.719C92.328,322.953 89.031,322.152 85.809,321.32C85.09,321.137 84.383,320.938 83.664,320.742C80.93,320 78.266,319.238 75.664,318.457L73.641,317.848C70.633,316.914 67.719,315.945 64.895,314.938L62.922,314.207C60.504,313.324 58.16,312.406 55.887,311.465L54.359,310.84C51.785,309.734 49.328,308.602 46.969,307.434L45.297,306.566C43.246,305.512 41.297,304.434 39.414,303.328C39.09,303.129 38.727,302.938 38.398,302.734C36.336,301.465 34.398,300.16 32.609,298.824C32.426,298.68 32.184,298.551 32,298.406L32,384C32,404.039 102,432 216,432C330,432 400,404.039 400,384L400.016,298.352Z" style="fill:rgb(229,219,114);fill-rule:nonzero;"/>
    </g>
    <g transform="matrix(0.0195007,0,0,0.0174768,15.6661,14.2598)">
        <path d="M400.016,74.352C399.832,74.496 399.594,74.625 399.406,74.77C397.594,76.105 395.68,77.406 393.617,78.68C393.289,78.879 392.93,79.07 392.602,79.273C390.734,80.375 388.77,81.457 386.719,82.473L385.047,83.336C382.688,84.504 380.246,85.641 377.656,86.742L376.129,87.367C373.855,88.313 371.512,89.227 369.098,90.113L367.121,90.84C364.293,91.844 361.379,92.813 358.375,93.754L356.352,94.359C353.734,95.16 351.07,95.902 348.352,96.648C347.633,96.84 346.93,97.039 346.207,97.223C343.008,98.07 339.711,98.871 336.313,99.625C335.512,99.809 334.711,99.977 333.91,100.152C330.969,100.809 327.977,101.438 324.938,102.039L322.809,102.465C319.266,103.148 315.664,103.789 312,104.391C311.113,104.543 310.207,104.68 309.313,104.824C306.113,105.344 302.824,105.84 299.52,106.305L297.543,106.586C293.754,107.117 289.922,107.594 286.055,108.016L283.145,108.336C279.602,108.719 276.039,109.078 272.449,109.406L270.992,109.543C266.992,109.895 262.992,110.191 258.992,110.465L256.016,110.727C252.207,110.969 248.395,111.176 244.574,111.352L243.625,111.398C239.543,111.574 235.461,111.711 231.375,111.801L228.383,111.863C224.266,111.945 220.145,112 216.031,112C211.922,112 207.801,111.945 203.68,111.863L200.688,111.801C196.598,111.703 192.516,111.57 188.441,111.398L187.488,111.352C183.664,111.176 179.852,110.969 176.047,110.727L173.055,110.527C169.055,110.258 165.055,109.961 161.055,109.609L159.602,109.473C156.012,109.148 152.445,108.789 148.902,108.398L145.992,108.078C142.129,107.633 138.301,107.156 134.504,106.648L132.496,106.398C129.191,105.938 125.938,105.441 122.703,104.922C121.809,104.777 120.902,104.641 120.016,104.488C116.355,103.879 112.754,103.238 109.207,102.559L107.078,102.137C104.039,101.535 101.047,100.902 98.105,100.246C97.305,100.07 96.504,99.902 95.703,99.719C92.328,98.953 89.031,98.152 85.809,97.32C85.09,97.137 84.383,96.938 83.664,96.742C80.93,96 78.266,95.238 75.664,94.457L73.641,93.848C70.633,92.91 67.719,91.938 64.895,90.938L62.922,90.207C60.504,89.324 58.16,88.406 55.887,87.465L54.359,86.84C51.785,85.734 49.328,84.602 46.969,83.434L45.297,82.566C43.246,81.512 41.297,80.434 39.414,79.367C39.09,79.168 38.727,78.977 38.398,78.777C36.336,77.504 34.398,76.199 32.609,74.863C32.426,74.719 32.184,74.594 32,74.449L32,160C32,180 102,208 216,208C330,208 400,180 400,160L400.016,74.352Z" style="fill:rgb(229,219,114);fill-rule:nonzero;"/>
    </g>
    <g transform="matrix(0.0195007,0,0,0.0174768,7.78771,10.4849)">
        <path d="M400.016,74.352C399.832,74.496 399.594,74.625 399.406,74.77C397.594,76.105 395.68,77.406 393.617,78.68C393.289,78.879 392.93,79.07 392.602,79.273C390.734,80.375 388.77,81.457 386.719,82.473L385.047,83.336C382.688,84.504 380.246,85.641 377.656,86.742L376.129,87.367C373.855,88.313 371.512,89.227 369.098,90.113L367.121,90.84C364.293,91.844 361.379,92.813 358.375,93.754L356.352,94.359C353.734,95.16 351.07,95.902 348.352,96.648C347.633,96.84 346.93,97.039 346.207,97.223C343.008,98.07 339.711,98.871 336.313,99.625C335.512,99.809 334.711,99.977 333.91,100.152C330.969,100.809 327.977,101.438 324.938,102.039L322.809,102.465C319.266,103.148 315.664,103.789 312,104.391C311.113,104.543 310.207,104.68 309.313,104.824C306.113,105.344 302.824,105.84 299.52,106.305L297.543,106.586C293.754,107.117 289.922,107.594 286.055,108.016L283.145,108.336C279.602,108.719 276.039,109.078 272.449,109.406L270.992,109.543C266.992,109.895 262.992,110.191 258.992,110.465L256.016,110.727C252.207,110.969 248.395,111.176 244.574,111.352L243.625,111.398C239.543,111.574 235.461,111.711 231.375,111.801L228.383,111.863C224.266,111.945 220.145,112 216.031,112C211.922,112 207.801,111.945 203.68,111.863L200.688,111.801C196.598,111.703 192.516,111.57 188.441,111.398L187.488,111.352C183.664,111.176 179.852,110.969 176.047,110.727L173.055,110.527C169.055,110.258 165.055,109.961 161.055,109.609L159.602,109.473C156.012,109.148 152.445,108.789 148.902,108.398L145.992,108.078C142.129,107.633 138.301,107.156 134.504,106.648L132.496,106.398C129.191,105.938 125.938,105.441 122.703,104.922C121.809,104.777 120.902,104.641 120.016,104.488C116.355,103.879 112.754,103.238 109.207,102.559L107.078,102.137C104.039,101.535 101.047,100.902 98.105,100.246C97.305,100.07 96.504,99.902 95.703,99.719C92.328,98.953 89.031,98.152 85.809,97.32C85.09,97.137 84.383,96.938 83.664,96.742C80.93,96 78.266,95.238 75.664,94.457L73.641,93.848C70.633,92.91 67.719,91.938 64.895,90.938L62.922,90.207C60.504,89.324 58.16,88.406 55.887,87.465L54.359,86.84C51.785,85.734 49.328,84.602 46.969,83.434L45.297,82.566C43.246,81.512 41.297,80.434 39.414,79.367C39.09,79.168 38.727,78.977 38.398,78.777C36.336,77.504 34.398,76.199 32.609,74.863C32.426,74.719 32.184,74.594 32,74.449L32,160C32,180 102,208 216,208C330,208 400,180 400,160L400.016,74.352Z" style="fill:rgb(229,219,114);fill-rule:nonzero;"/>
    </g>
    <g transform="matrix(0.0195007,0,0,0.0174768,15.6661,14.2598)">
        <path d="M400.016,48C400.016,21.492 317.637,0 216.016,0C114.395,0 32.016,21.492 32.016,48C32.016,74.508 114.395,96 216.016,96C317.637,96 400.016,74.508 400.016,48Z" style="fill:rgb(229,219,114);fill-rule:nonzero;"/>
    </g>
    <g transform="matrix(0.0195007,0,0,0.0174768,7.78771,10.4849)">
        <path d="M400.016,48C400.016,21.492 317.637,0 216.016,0C114.395,0 32.016,21.492 32.016,48C32.016,74.508 114.395,96 216.016,96C317.637,96 400.016,74.508 400.016,48Z" style="fill:rgb(229,219,114);fill-rule:nonzero;"/>
    </g>
    <g transform="matrix(-0.0675489,-0.674137,1.05537,-0.105748,10.0976,24.1117)">
        <path d="M18.632,8.153C18.632,8.153 19.312,7.302 19.668,6.858C19.707,6.808 19.787,6.778 19.874,6.778C19.961,6.779 20.04,6.812 20.077,6.862C20.408,7.307 21.035,8.153 21.035,8.153" style="fill:none;stroke:rgb(229,219,114);stroke-width:0.56px;"/>
    </g>
    <g transform="matrix(-0.0167329,0.677307,-0.905878,-0.0223798,22.6156,8.77509)">
        <path d="M18.632,8.153C18.632,8.153 19.312,7.302 19.668,6.858C19.711,6.804 19.79,6.771 19.875,6.772C19.959,6.773 20.037,6.807 20.078,6.863C20.409,7.309 21.035,8.153 21.035,8.153" style="fill:none;stroke:rgb(229,219,114);stroke-width:0.62px;"/>
    </g>
</svg>
