<svg xmlns="http://www.w3.org/2000/svg" width="512" height="512" shape-rendering="geometricPrecision" text-rendering="geometricPrecision" image-rendering="optimizeQuality" fill-rule="evenodd" clip-rule="evenodd"><path fill="#795548" d="M463.53 191.96H151.09h-.01c-13.77 0-26.01 8.82-30.36 21.89L64.01 383.98V159.95h384.05c0-17.67-14.34-32-32.01-32H242.01a32.01 32.01 0 01-20.48-7.42l-20.61-17.16a31.99 31.99 0 00-20.48-7.42H64.01c-17.68 0-32.01 14.33-32.01 32v256.03c0 17.68 14.33 32.01 32.01 32.01h352.04l76.89-179.42c1.7-3.98 2.59-8.27 2.59-12.61 0-17.67-14.33-32-32-32z"/><g fill="#F44336"><path d="M160 416l64-32v-60c-.5-.59-.99-1.19-1.46-1.8L160 416zM469.34 408.89l-138.16-92.1c13.1-10.48 20.82-26.27 20.82-43.62 0-12.24.91-23.35-3.31-35.05l5.92-2.37c18.22-7.28 37.9-3.24 51.77 10.63l76.19 76.18c17 17.01 18.89 43.5 4.46 62.74l-17.69 23.59zM236.38 280.75l8.54 17.09c-1.9-4.74-.95-9.33 4.24-11.28l60.09-22.53c5.4-2.02 11.05 2.09 10.81 7.83.22-4.7-.06-9.64-.06-14.56 0-16.45-15.98-27.97-31.59-22.77l-38.16 12.72a23.91 23.91 0 00-13.87 33.5z"/></g><g fill="#B71C1C"><path d="M160 416l64-32 64 32-64 32zM469.34 408.89l-138.16-92.1c-7.78 6.21-29.54 16.17-39.4 21.1-11.5 5.75-24.05 7.15-35.78 4.85v21.48l143.69 71.85c20.93 10.47 45.82 4.59 59.86-14.13l9.79-13.05zM249.16 286.56l60.09-22.53c5.41-2.03 11.09 2.11 10.8 7.88-.45 9.24-2.88 17.51-13.31 22.72l-29.27 14.64c-22.39 11.19-43.49-17.01-28.31-22.71z"/></g></svg>
