<svg xmlns="http://www.w3.org/2000/svg" viewBox="0 0 16 16">
<path id="folder" fill="#f44336" d="M14.483 6H4.721a1 1 0 0 0-.949.684L2 12V5h12a1 1 0 0 0-1-1H7.562a1 1 0 0 1-.64-.232l-.644-.536A1 1 0 0 0 5.638 3H2a1 1 0 0 0-1 1v8a1 1 0 0 0 1 1h11l2.403-5.606A1 1 0 0 0 14.483 6" />
<path id="motive" fill="#ffcdd2" d="m 9,13 v 2 c 1.1405,-0.3905 4.3565,-0.5125 5,-1 v -2 c -0.6435,0.4875 -3.8595,0.6095 -5,1 m 0,-3 v 2 c 1.1405,-0.3905 4.3565,-0.5125 5,-1 V 9 C 13.3565,9.4875 10.1405,9.6095 9,10 M 9,7 V 9 C 10.1405,8.6095 13.3565,8.4875 14,8 V 6 C 13.3565,6.4875 10.1405,6.6095 9,7" />
</svg>
