<svg viewBox="0 0 24 24" fill="none" xmlns="http://www.w3.org/2000/svg">
<path d="M19 20H4C3.46957 20 2.96086 19.7893 2.58579 19.4142C2.21071 19.0391 2 18.5304 2 18V6C2 4.89 2.89 4 4 4H10L12 6H19C20.097 6 21 6.903 21 8H4V18L6.14 10H23.21L20.93 18.5C20.7 19.37 19.92 20 19 20Z" fill="#FF7043"/>
<g clip-path="url(#clip0_1329_62)">
<path d="M14.1467 19.273C14.1551 19.2606 14.156 19.2445 14.149 19.2311C14.1455 19.2246 14.1404 19.2192 14.1341 19.2154C14.1278 19.2117 14.1205 19.2097 14.1132 19.2097H11.7431C11.6455 19.2097 11.5488 19.1904 11.4586 19.1529C11.3684 19.1154 11.2865 19.0605 11.2175 18.9912C11.1485 18.922 11.0937 18.8398 11.0564 18.7494C11.0191 18.6589 10.9999 18.562 11 18.4641L11.0028 15.0055C11.003 14.8594 11.0412 14.7158 11.1137 14.5889L12.3799 12.3769C12.4454 12.2624 12.54 12.1672 12.6539 12.101C12.7679 12.0348 12.8973 12 13.029 12H20.7117C20.7911 12 20.8691 12.0213 20.9375 12.0617C21.0059 12.1021 21.0622 12.1601 21.1007 12.2297C21.1392 12.2994 21.1584 12.378 21.1563 12.4576C21.1542 12.5371 21.1308 12.6147 21.0887 12.6822C20.8036 13.1392 20.4477 13.7097 20.2626 14.0063C20.2502 14.0261 20.2433 14.0489 20.2427 14.0723C20.2421 14.0956 20.2477 14.1187 20.259 14.1392C20.2703 14.1596 20.2868 14.1767 20.3069 14.1885C20.327 14.2004 20.3499 14.2067 20.3732 14.2066H22.2451C22.6068 14.2066 22.9 14.5006 22.9 14.8632V18.1813C22.9 18.5521 22.8063 18.9168 22.6276 19.2415C22.4024 19.6505 22.0371 20.23 21.8067 20.6486C21.7182 20.8094 21.5882 20.9435 21.4304 21.0369C21.2726 21.1303 21.0927 21.1796 20.9094 21.1796H13.699C13.6179 21.1796 13.5383 21.1575 13.4688 21.1155C13.3993 21.0736 13.3425 21.0135 13.3046 20.9417C13.2666 20.8699 13.2488 20.789 13.2532 20.7079C13.2576 20.6267 13.284 20.5482 13.3295 20.481L14.1467 19.273Z" fill="#FFAB91"/>
<path d="M15.258 18.925C15.1837 18.925 15.1105 18.9429 15.0445 18.9772C14.9785 19.0115 14.9218 19.0612 14.8789 19.122L13.903 20.5099C13.8889 20.53 13.8806 20.5536 13.879 20.5782C13.8773 20.6027 13.8824 20.6272 13.8937 20.649C13.905 20.6708 13.922 20.6891 13.9429 20.7019C13.9639 20.7147 13.9879 20.7215 14.0124 20.7215H20.7428C20.9906 20.7215 21.2195 20.5887 21.3431 20.3733C21.519 20.0665 21.8212 19.6206 22.0024 19.3046C22.0245 19.2661 22.0361 19.2224 22.0361 19.178C22.0361 19.1335 22.0243 19.0899 22.0021 19.0514C21.9799 19.013 21.948 18.981 21.9096 18.9588C21.8712 18.9367 21.8276 18.925 21.7833 18.925H15.258ZM13.3603 16.9928C13.2352 16.9932 13.1118 17.0221 12.9994 17.0772C12.887 17.1324 12.7886 17.2124 12.7116 17.3113L11.9151 18.3327C11.8852 18.3709 11.8667 18.4168 11.8616 18.4651C11.8566 18.5134 11.8651 18.5621 11.8864 18.6058C11.9076 18.6495 11.9406 18.6863 11.9817 18.7121C12.0228 18.7378 12.0703 18.7515 12.1188 18.7514H14.4451C14.4854 18.6663 14.5489 18.5944 14.6284 18.544C14.7078 18.4936 14.7999 18.4669 14.8939 18.4669H19.3898C19.5738 18.4669 19.7445 18.3709 19.8405 18.2136C20.0111 17.9343 20.2838 17.488 20.4522 17.2122C20.467 17.188 20.4751 17.1601 20.4757 17.1317C20.4762 17.1032 20.4691 17.0751 20.4552 17.0503C20.4413 17.0255 20.421 17.0048 20.3965 16.9905C20.3719 16.9762 20.344 16.9687 20.3156 16.9688C19.1459 16.9728 14.7221 16.988 13.3603 16.9928Z" fill="#FAFAFA"/>
<path d="M20.5059 18.0941C20.483 18.131 20.4703 18.1734 20.4693 18.2168C20.4682 18.2603 20.4787 18.3032 20.4998 18.3412C20.5208 18.3792 20.5516 18.4109 20.589 18.4329C20.6264 18.455 20.6689 18.4666 20.7123 18.4666H22.0169C22.1176 18.4666 22.2141 18.4265 22.2853 18.3552C22.3565 18.2838 22.3965 18.187 22.3965 18.086V15.0375C22.3965 14.9885 22.3869 14.94 22.3682 14.8948C22.3495 14.8495 22.3221 14.8084 22.2876 14.7738C22.253 14.7391 22.212 14.7117 22.1669 14.6929C22.1217 14.6742 22.0734 14.6645 22.0245 14.6646H15.9386C15.7104 14.6646 15.4979 14.7815 15.3754 14.9746C15.1595 15.3152 14.9082 15.858 14.6956 16.1932C14.6771 16.2225 14.6667 16.2562 14.6656 16.2908C14.6645 16.3254 14.6727 16.3597 14.6893 16.3901C14.7059 16.4205 14.7304 16.4459 14.7602 16.4635C14.7899 16.4812 14.8239 16.4905 14.8584 16.4905H20.6373C20.7229 16.4905 20.8069 16.5135 20.8807 16.557C20.9545 16.6005 21.0153 16.663 21.0569 16.738C21.0984 16.8131 21.1192 16.8978 21.1171 16.9836C21.115 17.0694 21.0901 17.1531 21.0449 17.226C20.8613 17.5216 20.6576 17.8496 20.5059 18.0941Z" fill="#FAFAFA"/>
<path d="M19.4432 14.2065C19.4678 14.2065 19.492 14.2003 19.5136 14.1886C19.5352 14.1768 19.5536 14.1599 19.5671 14.1392L20.4317 12.812C20.4482 12.7866 20.4576 12.7571 20.4589 12.7268C20.4601 12.6964 20.4531 12.6663 20.4387 12.6396C20.4243 12.6129 20.4029 12.5906 20.3769 12.575C20.3509 12.5595 20.3211 12.5513 20.2908 12.5513H13.7069C13.6138 12.5513 13.5216 12.5696 13.4356 12.6053C13.3495 12.6411 13.2713 12.6934 13.2055 12.7594C13.1397 12.8254 13.0874 12.9038 13.0518 12.9901C13.0162 13.0763 12.9979 13.1687 12.9979 13.2621V15.7759C12.9979 15.8739 13.0177 15.9708 13.0562 16.0609C13.0947 16.1509 13.151 16.2322 13.2217 16.2998C13.2924 16.3674 13.3761 16.4199 13.4676 16.4541C13.5592 16.4884 13.6567 16.5036 13.7543 16.4989H13.8473C13.8497 16.4789 14.5977 15.1843 15.0106 14.5496C15.0792 14.4442 15.1729 14.3577 15.2833 14.2978C15.3937 14.2379 15.5172 14.2065 15.6427 14.2065H19.4433H19.4432Z" fill="#FAFAFA"/>
</g>
<defs>
<clipPath id="clip0_1329_62">
<rect width="11.9" height="9.18" fill="white" transform="translate(11 12)"/>
</clipPath>
</defs>
</svg>
