<?xml version="1.0" encoding="UTF-8" standalone="no"?>
<svg
   clip-rule="evenodd"
   stroke-linejoin="round"
   stroke-miterlimit="1.414"
   viewBox="0 0 24 24"
   xml:space="preserve"
   version="1.1"
   id="svg2"
   sodipodi:docname="folder-windows-open.svg"
   inkscape:version="1.3 (0e150ed, 2023-07-21)"
   xmlns:inkscape="http://www.inkscape.org/namespaces/inkscape"
   xmlns:sodipodi="http://sodipodi.sourceforge.net/DTD/sodipodi-0.dtd"
   xmlns="http://www.w3.org/2000/svg"
   xmlns:svg="http://www.w3.org/2000/svg"><defs
     id="defs2" /><sodipodi:namedview
     id="namedview2"
     pagecolor="#ffffff"
     bordercolor="#000000"
     borderopacity="0.25"
     inkscape:showpageshadow="2"
     inkscape:pageopacity="0.0"
     inkscape:pagecheckerboard="0"
     inkscape:deskcolor="#d1d1d1"
     inkscape:zoom="36.041667"
     inkscape:cx="12"
     inkscape:cy="12.013873"
     inkscape:window-width="1440"
     inkscape:window-height="1567"
     inkscape:window-x="3240"
     inkscape:window-y="25"
     inkscape:window-maximized="0"
     inkscape:current-layer="svg2" /><path
     d="M19 20H4a2 2 0 0 1-2-2V6c0-1.11.89-2 2-2h6l2 2h7c1.097 0 2 .903 2 2H4v10l2.14-8h17.07l-2.28 8.5c-.23.87-1.01 1.5-1.93 1.5z"
     fill="#546e7a"
     id="path1"
     style="fill:#1976d2;fill-opacity:1" /><path
     d="m 11.4,8.5 v 5.830207 h 5.830077 V 8.5 Z m 6.469792,0 v 5.830207 H 23.7 V 8.5 Z M 11.4,14.970314 v 5.830206 h 5.830077 v -5.830206 z m 6.469792,0 V 20.80052 H 23.7 v -5.830206 z"
     id="path12-8"
     style="fill:#bbdefb;fill-opacity:1;stroke-width:0.252333"
     inkscape:label="path2" /></svg>
