<svg xmlns="http://www.w3.org/2000/svg" clip-rule="evenodd" fill-rule="evenodd" stroke-linejoin="round" stroke-miterlimit="1.414" viewBox="0 0 24 24"><path d="M10 4H4c-1.11 0-2 .89-2 2v12c0 1.097.903 2 2 2h16c1.097 0 2-.903 2-2V8a2 2 0 0 0-2-2h-8l-2-2z" fill="#303F9F" fill-rule="nonzero"/><path d="M21.422 10.593H15.31c-.56 0-1.018.459-1.018 1.019v8.149c0 .56.458 1.019 1.018 1.019h6.112c.56 0 1.019-.459 1.019-1.019v-8.15c0-.56-.459-1.018-1.019-1.018zm-6.112 1.019h2.547v4.074l-1.274-.764-1.273.764zm0 7.64l1.528-1.966 1.09 1.314 1.528-1.966 1.966 2.618z" fill="#C5CAE9"/></svg>