<svg xmlns="http://www.w3.org/2000/svg" viewBox="0 0 16 16"><path id="folder" fill="#ef5350" d="m6.922 3.768-.644-.536A1 1 0 0 0 5.638 3H2a1 1 0 0 0-1 1v8a1 1 0 0 0 1 1h12a1 1 0 0 0 1-1V5a1 1 0 0 0-1-1H7.562a1 1 0 0 1-.64-.232"/><g id="motive" fill="#ffcdd2"><path d="m15.935 9.959-.653-.69a.24.24 0 0 0-.346 0l-3.578 3.769-1.528-1.615a.24.24 0 0 0-.173-.074.24.24 0 0 0-.173.074l-.655.689a.24.24 0 0 0 0 .328l2.36 2.486a.24.24 0 0 0 .346 0l4.4-4.64a.24.24 0 0 0 0-.327"/><path d="M10.646 11.668a.24.24 0 0 0 .224.157h.97a.238.238 0 0 0 .223-.321l-2.37-6.349A.24.24 0 0 0 9.47 5h-.862a.24.24 0 0 0-.223.155l-2.37 6.349a.238.238 0 0 0 .223.321h.97a.24.24 0 0 0 .224-.158l.463-1.307h2.279Zm-.985-2.761H8.416l.623-1.748Z"/></g></svg>