<svg version="1.2" xmlns="http://www.w3.org/2000/svg" viewBox="0 0 32 32" width="32" height="32">
	<title>folder-ui-open</title>
	<style>
		.s0 { fill: #398ccb } 
		.s1 { fill: #d5edff } 
	</style>
	<path class="s0" d="m29 12h-19.6q-0.3 0-0.6 0.1-0.3 0.1-0.5 0.3-0.3 0.2-0.5 0.4-0.2 0.3-0.3 0.6l-3.5 10.6v-14h24q0-0.4-0.2-0.8-0.1-0.3-0.4-0.6-0.3-0.3-0.6-0.4-0.4-0.2-0.8-0.2h-10.9q-0.2 0-0.3 0-0.2-0.1-0.4-0.1-0.1-0.1-0.3-0.2-0.1-0.1-0.3-0.2l-1.2-1q-0.2-0.1-0.3-0.2-0.2-0.1-0.3-0.2-0.2 0-0.4-0.1-0.1 0-0.3 0h-7.3q-0.4 0-0.8 0.2-0.3 0.1-0.6 0.4-0.3 0.3-0.4 0.6-0.2 0.4-0.2 0.8v16q0 0.4 0.2 0.8 0.1 0.3 0.4 0.6 0.3 0.3 0.6 0.4 0.4 0.2 0.8 0.2h22l4.8-11.2q0.2-0.5 0.2-1-0.1-0.5-0.4-0.9-0.2-0.4-0.7-0.7-0.4-0.2-0.9-0.2z"/>
	<path fill-rule="evenodd" class="s1" d="m22.1 11c0.1 0 0.4 0.2 0.8 0.4 0.3 0.2 1 0.6 1.4 0.8 0.5 0.3 1.1 0.6 1.3 0.8q0.5 0.2 0.6 0.4c0.1 0.2 0.1 0.2 0.1 1.1l0.4 0.3c0.3 0.1 0.7 0.3 0.9 0.5 0.3 0.1 1 0.5 1.5 0.8 0.6 0.4 1.1 0.7 1.2 0.8 0.2 0.1 0.3 0.2 0.4 0.3 0.1 0.1 0.1 0.3 0.1 4.3l0.4 0.2c0.2 0.2 0.5 0.3 0.6 0.4 0 0.1 0.1 0.2 0.2 0.3 0 0.1 0 1.2 0 2.3 0 1.2 0 2.1-0.1 2.2 0 0.2-0.1 0.3-0.1 0.4-0.1 0-0.7 0.4-1.4 0.8-0.7 0.4-1.5 0.9-1.9 1.1-0.6 0.3-0.7 0.4-0.9 0.4-0.1-0.1-0.5-0.2-0.9-0.4-0.3-0.2-0.7-0.4-0.7-0.4 0 0-0.2 0.1-0.5 0.3-0.3 0.1-0.8 0.4-1.2 0.6-0.4 0.3-1 0.6-1.4 0.8-0.5 0.3-0.7 0.4-0.8 0.4-0.2 0-0.4-0.1-1.4-0.6-0.6-0.4-1.4-0.8-1.8-1.1-0.7-0.4-0.8-0.4-0.9-0.4-0.1 0.1-0.4 0.2-0.7 0.4-0.4 0.3-0.5 0.3-0.8 0.3-0.2 0-0.3 0-0.8-0.3-0.2-0.1-0.7-0.4-0.9-0.5-0.3-0.2-0.9-0.5-1.3-0.7-0.4-0.3-0.8-0.5-0.9-0.6-0.1-0.1-0.3-0.2-0.3-0.3-0.1-0.2-0.1-0.4-0.1-2.5 0-2.2 0-2.3 0.1-2.4 0.1-0.1 0.3-0.3 1-0.7v-2c0-1.6 0-2.1 0.1-2.2 0-0.1 0.1-0.2 0.1-0.3 0.1 0 0.4-0.2 0.7-0.4 0.2-0.1 0.8-0.5 1.3-0.7 0.4-0.3 1.1-0.7 2.1-1.3v-0.5c0.1-0.5 0.1-0.5 0.2-0.7 0.1-0.1 0.3-0.3 0.7-0.5 0.2-0.1 0.7-0.4 0.9-0.5 0.2-0.2 0.8-0.5 1.3-0.8 0.5-0.3 0.9-0.5 1-0.6 0.1 0 0.3 0 0.4 0zm-1 3.1c0.7 0.3 0.9 0.4 0.9 0.4 0 0 0.2-0.1 0.4-0.2 0.3-0.1 0.5-0.2 0.5-0.3q0 0-0.2-0.1c0 0-0.2-0.1-0.4-0.2l-0.3-0.2zm-1.1 3c0.5 0.4 0.7 0.5 0.7 0.5 0.1 0 0.1 0 0.1-0.5l0.1-0.5c-0.4-0.2-0.6-0.3-0.7-0.4l-0.2-0.1zm3.2-0.5c0 0.7 0 1 0 1 0 0 0.2-0.1 0.4-0.3l0.5-0.2c0-0.8-0.1-1-0.1-1 0 0-0.2 0.1-0.4 0.2zm3.1 1.2c0 0.4 0 0.5-0.1 0.6q-0.1 0.2-0.6 0.5c-0.2 0.1-0.8 0.5-1.3 0.7-0.4 0.3-1.1 0.7-1.4 0.9-0.5 0.3-0.7 0.3-0.9 0.3-0.2 0-0.3 0-1-0.4-0.4-0.2-1.1-0.6-1.4-0.8-0.4-0.3-0.9-0.6-1.2-0.7-0.3-0.2-0.5-0.3-0.6-0.4-0.1-0.1-0.1-0.3-0.1-0.7v-0.5l-2.1 1.2c0 1.4 0 1.8 0.1 1.8 0 0 0.1-0.1 0.3-0.2 0.2-0.1 0.3-0.2 0.5-0.2 0.3 0 0.4 0.1 1 0.4 0.4 0.2 1 0.6 1.3 0.8 0.4 0.2 1 0.5 1.2 0.7 0.3 0.1 0.6 0.3 0.6 0.4 0.1 0 0.1 0.1 0.2 0.2 0 0.1 0.1 0.6 0.1 2.4 0 1.7-0.1 2.2-0.1 2.3-0.1 0.1-0.2 0.3-0.2 0.3-0.1 0.1-0.2 0.1-0.2 0.2 0.1 0 0.4 0.2 0.9 0.4 0.4 0.3 0.7 0.5 0.8 0.5 0 0 0.3-0.2 0.8-0.5 0.4-0.2 0.7-0.4 0.8-0.4 0 0-0.1-0.1-0.2-0.2l-0.1-0.2v-4.8c0.2-0.3 0.7-0.6 1.2-0.9 0.5-0.3 1.3-0.7 1.9-1q0.9-0.6 1.1-0.6c0.2 0 0.3 0 0.5 0.2l0.4 0.2v-1.8c-1.4-0.8-1.8-1-2-1.1l-0.2-0.1zm-10.7 5.1q0.5 0.3 0.7 0.4l0.2 0.1c0.7-0.3 0.9-0.5 0.9-0.5 0 0-0.2-0.1-0.4-0.2-0.3-0.2-0.5-0.3-0.5-0.3 0 0-0.2 0.1-0.4 0.3zm11.1 0c0 0 0.2 0.1 0.4 0.2 0.2 0.2 0.5 0.3 0.5 0.3 0 0 0.2-0.1 0.4-0.3 0.3-0.1 0.4-0.2 0.4-0.2 0 0-0.2-0.2-0.4-0.3-0.2-0.1-0.4-0.2-0.4-0.2-0.1 0-0.3 0.1-0.5 0.2-0.2 0.1-0.4 0.3-0.4 0.3zm-12.3 3c0.7 0.4 0.9 0.5 0.9 0.5 0 0 0-0.2 0-0.5v-0.5c-0.6-0.4-0.8-0.5-0.8-0.5-0.1-0.1-0.1 0-0.1 0.5zm3.2-0.6v1.1l0.9-0.5c0-0.9 0-1.1 0-1.1 0 0-0.2 0.1-0.5 0.3zm11.2 0c0 0.8 0 1 0 1 0 0 0.2-0.1 0.5-0.3l0.4-0.2c0-0.8 0-1.1 0-1.1 0 0.1-0.2 0.2-0.5 0.3zm-3.2 0.5c0.5 0.3 0.7 0.4 0.8 0.5h0.1v-1c-0.6-0.4-0.8-0.5-0.8-0.5-0.1 0-0.1 0.3-0.1 0.5z"/>
</svg>