<svg xmlns="http://www.w3.org/2000/svg" fill-rule="evenodd" stroke-linejoin="round" stroke-miterlimit="2" clip-rule="evenodd" viewBox="0 0 24 24">
  <path fill="#546e7a" fill-rule="nonzero" d="M19 20H4c-1.097 0-2-.903-2-2V6c0-1.11.89-2 2-2h6l2 2h7c1.097 0 2 .903 2 2H4v10l2.14-8h17.07l-2.28 8.5c-.23.87-1.01 1.5-1.93 1.5z"/>
  <path fill="#cfd8dc" fill-rule="nonzero" d="M18.286 8.842l-5.256 2.336v3.504c0 3.2412 2.24256 6.27216 5.256 7.008 3.01344-.73584 5.256-3.7668 5.256-7.008v-3.504l-5.256-2.336m0 2.336c.961264 0 1.752.790736 1.752 1.752s-.790736 1.752-1.752 1.752-1.752-.790736-1.752-1.752.790736-1.752 1.752-1.752m2.99592 7.008c-.70664 1.0804-1.76368 1.89216-2.99592 2.28928-1.23224-.39712-2.28928-1.20888-2.99592-2.28928-.19856-.292-.36792-.584-.50808-.89352 0-.9636 1.58264-1.752 3.504-1.752s3.504.77088 3.504 1.752c-.14016.30952-.30952.60152-.50808.89352z"/>
</svg>