<svg xmlns="http://www.w3.org/2000/svg" viewBox="0 0 16 16">
<path id="folder" fill="#ffa726" d="M14.483 6H4.721a1 1 0 0 0-.949.684L2 12V5h12a1 1 0 0 0-1-1H7.562a1 1 0 0 1-.64-.232l-.644-.536A1 1 0 0 0 5.638 3H2a1 1 0 0 0-1 1v8a1 1 0 0 0 1 1h11l2.403-5.606A1 1 0 0 0 14.483 6" />
<path id="motive" fill="#ffe0b2" d="M 6.5 6 A 0.5 0.5 0 0 0 6 6.5 L 6 14.5 A 0.5 0.5 0 0 0 6.5 15 L 14.5 15 A 0.5 0.5 0 0 0 15 14.5 L 15 14 L 16 14 L 16 13 L 15 13 L 15 11 L 16 11 L 16 10 L 15 10 L 15 8 L 16 8 L 16 7 L 15 7 L 15 6.5 A 0.5 0.5 0 0 0 14.5 6 L 6.5 6 z M 7 7 L 14 7 L 14 14 L 7 14 L 7 7 z M 8 8 L 8 10 L 10 10 L 10 8 L 8 8 z M 11 8 L 11 9 L 13 9 L 13 8 L 11 8 z M 11 10 L 11 13 L 13 13 L 13 10 L 11 10 z M 8 11 L 8 13 L 10 13 L 10 11 L 8 11 z " />
</svg>
