<?xml version="1.0" encoding="UTF-8"?>
<svg clip-rule="evenodd" fill-rule="evenodd" image-rendering="optimizeQuality" shape-rendering="geometricPrecision" text-rendering="geometricPrecision" version="1.1" viewBox="0 0 2400 2400" xmlns="http://www.w3.org/2000/svg">
    <path d="m2265.5 1205.5c-2.6-9.53-4.6-19.86-6-31-3.75-1.73-7.75-2.73-12-3-3.34-1.72-7.01-2.38-11-2-5.65-2.28-11.65-3.28-18-3-16.98-1.89-33.98-3.55-51-5-11.74-2.31-23.74-3.31-36-3-113.97-6.44-225.97 5.4-336 35.5-10.79 3.21-21.46 6.71-32 10.5-7.16 1.57-14.16 3.74-21 6.5-2.38 0.72-4.38 1.88-6 3.5-2.65-0.09-4.99 0.58-7 2-174.16 68.83-294.16 190.83-360 366-1.57 2.01-2.57 4.34-3 7-0.06 1.11-0.39 2.11-1 3-1.7 3.44-3.04 7.11-4 11v2c-3.49 6.14-5.82 12.8-7 20-1.78 3-2.78 6.34-3 10v1c-1.57 1.6-2.24 3.6-2 6-0.8 1.54-1.13 3.21-1 5-1.9 2.2-2.9 4.86-3 8-10.83 41.79-18.83 84.13-24 127-0.72 0.42-1.22 1.08-1.5 2-0.83 6.65-1.33 13.31-1.5 20-2.5 22.61-4.33 45.28-5.5 68-0.17 42.5-0.67 84.84-1.5 127-310.33 0.17-620.67 0-931-0.5-81.773-10.78-138.27-54.28-169.5-130.5-5.453-15.93-9.119-32.26-11-49-0.667-414-0.667-828 0-1242 12.728-86.049 60.228-142.88 142.5-170.5 9.2-2.633 18.533-4.633 28-6 209.98-1.657 419.98-1.99 630-1 66.33 66.333 132.67 132.67 199 199 240 0.333 480 0.667 720 1 74.15 9.858 127.98 48.025 161.5 114.5 12.36 26.973 18.53 55.306 18.5 85h-1700c-0.167 332 0 664 0.5 996 71.149-265.27 141.98-530.6 212.5-796h1708c-17.71 68.85-36.05 137.52-55 206z" fill="#388e3c" opacity=".999"/>
    <path d="m2131.5 1158.5c11.82 1.37 23.82 2.37 36 3 17.02 1.45 34.02 3.11 51 5 5.79 1.48 11.79 2.48 18 3 3.47 1.02 7.14 1.69 11 2 4.25 0.27 8.25 1.27 12 3 1.4 11.14 3.4 21.47 6 31 15.13 108.26 14.63 216.59-1.5 325-16.63 115.84-57.63 221.84-123 318-65.35 89.68-148.85 156.85-250.5 201.5-94.64 39.99-193.31 63.33-296 70-47.62 3.25-95.28 4.25-143 3-44.06-2.38-88.06-5.54-132-9.5-3.42-37.95-6.09-75.95-8-114 0.83-42.16 1.33-84.5 1.5-127 1.17-22.72 3-45.39 5.5-68 1.28-7.16 2.28-14.49 3-22 5.17-42.87 13.17-85.21 24-127 1.6-2.35 2.6-5.01 3-8-0.13-1.79 0.2-3.46 1-5 1.57-1.6 2.24-3.6 2-6v-1c1.78-3 2.78-6.34 3-10 2.7-6.44 5.04-13.11 7-20v-2c2.49-3.13 3.82-6.79 4-11 0.61-0.89 0.94-1.89 1-3 2.33-1.68 3.33-4.01 3-7 65.84-175.17 185.84-297.17 360-366 2.65 0.09 4.99-0.58 7-2 9.23-2.96 18.23-6.3 27-10 10.54-3.79 21.21-7.29 32-10.5 110.03-30.1 222.03-41.94 336-35.5z" fill="#a4d5a6" opacity=".997"/>
    <path d="m2131.5 1158.5c12.26-0.31 24.26 0.69 36 3-12.18-0.63-24.18-1.63-36-3z" fill="#529f55"/>
    <path d="m2218.5 1166.5c6.35-0.28 12.35 0.72 18 3-6.21-0.52-12.21-1.52-18-3z" fill="#55a158"/>
    <path d="m2236.5 1169.5c3.99-0.38 7.66 0.28 11 2-3.86-0.31-7.53-0.98-11-2z" fill="#5ea660"/>
    <path d="m1763.5 1204.5c-8.77 3.7-17.77 7.04-27 10 1.62-1.62 3.62-2.78 6-3.5 6.84-2.76 13.84-4.93 21-6.5z" fill="#7cba7e"/>
    <path d="m1736.5 1214.5c-2.01 1.42-4.35 2.09-7 2 2.01-1.42 4.35-2.09 7-2z" fill="#7ebc81"/>
    <path d="m2031.5 1372.5c8.82-1.16 17.82-1.32 27-0.5-0.54 0.72-1.21 1.22-2 1.5-8.15-0.99-16.48-1.33-25-1z" fill="#76b779"/>
    <path d="m2029.5 1372.5h2c8.52-0.33 16.85 0.01 25 1-25.52 9.59-50.18 21.09-74 34.5-90.96 51.24-172.46 115.07-244.5 191.5-85.32 91.26-155.82 192.93-211.5 305-0.99-7.48-1.33-15.15-1-23 0.74-3.62 1.08-7.29 1-11 1.47-4.42 2.14-9.09 2-14v-3c2.18-8.41 3.51-17.07 4-26v-2c2.26-4.97 3.26-10.31 3-16 0.16-3.79 0.83-7.46 2-11 2.54-3.85 3.54-8.19 3-13 1.8-9.56 4.14-18.9 7-28 1.42-2.01 2.09-4.35 2-7 22.62-84.58 62.45-159.58 119.5-225 68.06-72.13 150.9-118.46 248.5-139 8.67-0.53 17.01-2.2 25-5 2.79-0.98 5.79-1.31 9-1 8.85-1.02 17.51-2.35 26-4 3.23-0.91 6.56-1.25 10-1 14.21-0.09 28.21-1.09 42-3z" fill="#388e3c"/>
    <path d="m2029.5 1372.5c-13.79 1.91-27.79 2.91-42 3 13.78-1.95 27.78-2.95 42-3z" fill="#59a45c"/>
    <path d="m1977.5 1376.5c-8.49 1.65-17.15 2.98-26 4 8.35-2.46 17.02-3.8 26-4z" fill="#64aa66"/>
    <path d="m1942.5 1381.5c-7.99 2.8-16.33 4.47-25 5 8.04-2.54 16.37-4.21 25-5z" fill="#54a057"/>
    <path d="m1369.5 1582.5c0.33 2.99-0.67 5.32-3 7 0.43-2.66 1.43-4.99 3-7z" fill="#80bd83"/>
    <path d="m1365.5 1592.5c-0.18 4.21-1.51 7.87-4 11 0.96-3.89 2.3-7.56 4-11z" fill="#77b77a"/>
    <path d="m1361.5 1605.5c-1.96 6.89-4.3 13.56-7 20 1.18-7.2 3.51-13.86 7-20z" fill="#6aaf6d"/>
    <path d="m1354.5 1625.5c-0.22 3.66-1.22 7-3 10 0.22-3.66 1.22-7 3-10z" fill="#6eb170"/>
    <path d="m1351.5 1636.5c0.24 2.4-0.43 4.4-2 6-0.24-2.4 0.43-4.4 2-6z" fill="#77b779"/>
    <path d="m1348.5 1647.5c-0.4 2.99-1.4 5.65-3 8 0.1-3.14 1.1-5.8 3-8z" fill="#60a863"/>
    <path d="m1549.5 1750.5c0.09 2.65-0.58 4.99-2 7-0.09-2.65 0.58-4.99 2-7z" fill="#5da55f"/>
    <path d="m1321.5 1782.5c-0.72 7.51-1.72 14.84-3 22 0.17-6.69 0.67-13.35 1.5-20 0.28-0.92 0.78-1.58 1.5-2z" fill="#5ea761"/>
    <path d="m1540.5 1785.5c0.54 4.81-0.46 9.15-3 13 0.84-4.49 1.84-8.82 3-13z" fill="#55a057"/>
    <path d="m1535.5 1809.5c0.26 5.69-0.74 11.03-3 16 0.46-5.56 1.46-10.89 3-16z" fill="#5ca55f"/>
    <path d="m1532.5 1827.5c-0.49 8.93-1.82 17.59-4 26 0.32-8.95 1.66-17.62 4-26z" fill="#62aa65"/>
    <path d="m1528.5 1856.5c0.14 4.91-0.53 9.58-2 14-0.14-4.91 0.53-9.58 2-14z" fill="#64ab67"/>
    <path d="m1525.5 1881.5c-0.33 7.85 0.01 15.52 1 23-0.28 0.79-0.78 1.46-1.5 2-0.82-8.51-0.66-16.84 0.5-25z" fill="#66ac69"/>
</svg>
