<?xml version="1.0" encoding="UTF-8" standalone="no"?>
<svg
   xmlns:dc="http://purl.org/dc/elements/1.1/"
   xmlns:cc="http://creativecommons.org/ns#"
   xmlns:rdf="http://www.w3.org/1999/02/22-rdf-syntax-ns#"
   xmlns:svg="http://www.w3.org/2000/svg"
   xmlns="http://www.w3.org/2000/svg"
   xmlns:sodipodi="http://sodipodi.sourceforge.net/DTD/sodipodi-0.dtd"
   xmlns:inkscape="http://www.inkscape.org/namespaces/inkscape"
   clip-rule="evenodd"
   stroke-linejoin="round"
   stroke-miterlimit="1.4142"
   version="1.1"
   viewBox="0 0 24 24"
   xml:space="preserve"
   id="svg1190"
   sodipodi:docname="folder-gulp-open.svg"
   inkscape:version="1.0.1 (3bc2e813f5, 2020-09-07)"><metadata
     id="metadata1196"><rdf:RDF><cc:Work
         rdf:about=""><dc:format>image/svg+xml</dc:format><dc:type
           rdf:resource="http://purl.org/dc/dcmitype/StillImage" /><dc:title></dc:title></cc:Work></rdf:RDF></metadata><defs
     id="defs1194" /><sodipodi:namedview
     pagecolor="#ffffff"
     bordercolor="#666666"
     borderopacity="1"
     objecttolerance="10"
     gridtolerance="10"
     guidetolerance="10"
     inkscape:pageopacity="0"
     inkscape:pageshadow="2"
     inkscape:window-width="1366"
     inkscape:window-height="714"
     id="namedview1192"
     showgrid="false"
     inkscape:zoom="16.116142"
     inkscape:cx="25.400964"
     inkscape:cy="15.749777"
     inkscape:window-x="0"
     inkscape:window-y="32"
     inkscape:window-maximized="1"
     inkscape:current-layer="svg1190"
     inkscape:document-rotation="0" /><path
     d="m19 20h-15c-1.11 0-2-.9-2-2v-12c0-1.11.89-2 2-2h6l2 2h7c1.097 0 2 .903 2 2h-17v10l2.14-8h17.07l-2.28 8.5c-.23.87-1.01 1.5-1.93 1.5z"
     fill="#e57373"
     style="fill:#e53935;fill-opacity:1"
     id="path1180" /><path
     d="m 15.305474,17.021575 c -0.214012,-2.167589 -0.387888,-3.968678 -0.386386,-4.002412 0.0015,-0.03369 -0.181064,-0.06125 -0.405686,-0.06125 h -0.408411 v -1.551938 h 3.185561 V 8.3933397 l 1.503102,-0.903275 c 0.915404,-0.550126 1.588564,-0.903276 1.721573,-0.903276 0.321279,0 0.695986,0.405976 0.695986,0.754074 0,0.152109 -0.04594,0.339053 -0.102108,0.415445 -0.05615,0.07639 -0.579932,0.425357 -1.163993,0.77548 l -1.061826,0.6365893 -0.02272,1.118774 -0.02272,1.118772 h 3.190139 v 1.551938 h -0.786861 l -0.397518,4.00241 -0.397519,4.002412 h -4.751553 l -0.389109,-3.941128 z"
     fill="#e53935"
     id="path236-3"
     style="fill:#f6f8fa;fill-opacity:1;stroke-width:0.803197" /></svg>
