<?xml version="1.0" encoding="UTF-8"?>
<svg version="1.1" viewBox="0 0 32 32" xml:space="preserve" xmlns="http://www.w3.org/2000/svg"><path d="m13.844 7.536-1.288-1.072A2 2 0 0 0 11.276 6H4a2 2 0 0 0-2 2v16a2 2 0 0 0 2 2h24a2 2 0 0 0 2-2V10a2 2 0 0 0-2-2H15.124a2 2 0 0 1-1.28-.464" fill="#ff8f00"/><g transform="matrix(1.4283 0 0 1.4283 14.881 8.5529)" fill="#ffecb3"><path d="m6.3847 12.215v1.4002h2.8005v-1.4002z" stroke-linecap="round" stroke-linejoin="round" stroke-miterlimit="2.6131" stroke-width="1.633"/><path d="m6.3847 1.0131-2.8005 2.8005v2.8005l1.4002 1.4002v1.4002l1.4002 1.4002h2.8005l1.4002-1.4002v-1.4002l1.4002-1.4002v-2.8005l-2.8005-2.8005-1.4002 1.4002v1.4002l-1.4002 1.4002h-1.4002v-1.4002l1.4002-1.4002h1.4002l1.4002-1.4002z"/></g></svg>
