<svg xmlns="http://www.w3.org/2000/svg" viewBox="0 0 32 32"><path fill="#ec407a" d="M28.967 12H9.442a2 2 0 0 0-1.898 1.368L4 24V10h24a2 2 0 0 0-2-2H15.124a2 2 0 0 1-1.28-.464l-1.288-1.072A2 2 0 0 0 11.276 6H4a2 2 0 0 0-2 2v16a2 2 0 0 0 2 2h22l4.805-11.212A2 2 0 0 0 28.967 12"/><path fill="#f8bbd0" d="M24 10c-3.41 0-6.31 1.07-7.46 2.57l5.25 5.25c.71.11 1.43.18 2.21.18 4.42 0 8-1.79 8-4s-3.58-4-8-4m-8 4v4h-4v2h4v4l4.84-5M32 16c0 2.21-3.58 4-8 4-.66 0-1.3-.05-1.91-.13l-2.47 2.47c1.26.41 2.76.66 4.38.66 4.42 0 8-1.79 8-4m0 2c0 2.21-3.58 4-8 4-2.28 0-4.33-.5-5.79-1.25l-1.68 1.68C17.68 26.93 20.59 28 24 28c4.42 0 8-1.79 8-4"/></svg>