<?xml version="1.0" encoding="UTF-8" standalone="no"?>
<svg
   version="1.1"
   width="24"
   height="24"
   viewBox="0 0 24 24"
   id="svg4"
   sodipodi:docname="folder-c-open.svg"
   inkscape:version="1.1.1 (1:1.1+202109281949+c3084ef5ed)"
   xmlns:inkscape="http://www.inkscape.org/namespaces/inkscape"
   xmlns:sodipodi="http://sodipodi.sourceforge.net/DTD/sodipodi-0.dtd"
   xmlns="http://www.w3.org/2000/svg"
   xmlns:svg="http://www.w3.org/2000/svg">
  <defs
     id="defs8">
    <linearGradient
       id="a"
       x1="1.725"
       x2="22.185"
       y1="22.67"
       y2="1.982"
       gradientTransform="matrix(0.89324,0,0,0.89324,1.306,1.129)"
       gradientUnits="userSpaceOnUse">
      <stop
         stop-color="#0296d8"
         offset="0"
         id="stop861" />
      <stop
         stop-color="#8371d9"
         offset="1"
         id="stop863" />
    </linearGradient>
    <linearGradient
       id="b"
       x1="1.869"
       x2="22.798"
       y1="22.382"
       y2="3.377"
       gradientTransform="matrix(0.89324,0,0,0.89324,1.323,1.129)"
       gradientUnits="userSpaceOnUse">
      <stop
         stop-color="#cb55c0"
         offset="0"
         id="stop866" />
      <stop
         stop-color="#f28e0e"
         offset="1"
         id="stop868" />
    </linearGradient>
  </defs>
  <sodipodi:namedview
     id="namedview6"
     pagecolor="#ffffff"
     bordercolor="#666666"
     borderopacity="1.0"
     inkscape:pageshadow="2"
     inkscape:pageopacity="0.0"
     inkscape:pagecheckerboard="0"
     showgrid="false"
     inkscape:zoom="29.458333"
     inkscape:cx="13.646393"
     inkscape:cy="12"
     inkscape:window-width="960"
     inkscape:window-height="1020"
     inkscape:window-x="960"
     inkscape:window-y="28"
     inkscape:window-maximized="0"
     inkscape:current-layer="svg4" />
  <path
     d="M19,20H4C2.89,20 2,19.1 2,18V6C2,4.89 2.89,4 4,4H10L12,6H19A2,2 0 0,1 21,8H21L4,8V18L6.14,10H23.21L20.93,18.5C20.7,19.37 19.92,20 19,20Z"
     id="path2"
     style="fill:#0277bd;fill-opacity:0.38431373" />
  <path
     d="m 22.928393,19.096348 0.42,2.44 c -0.26,0.14 -0.68,0.27 -1.24,0.39 -0.57,0.13 -1.24,0.2 -2.01,0.2 -2.21,-0.04 -3.87,-0.7 -4.98,-1.96 -1.14,-1.27 -1.68,-2.88 -1.68,-4.83 0.04,-2.31 0.72,-4.08 2.04,-5.32 1.28,-1.2500003 2.92,-1.8900003 4.9,-1.8900003 0.75,0 1.4,0.07 1.94,0.19 0.54,0.12 0.94,0.25 1.2,0.4 l -0.6,2.4900003 -1.04,-0.34 c -0.4,-0.1 -0.87,-0.15 -1.4,-0.15 -1.15,-0.01 -2.11,0.36 -2.86,1.1 -0.76,0.73 -1.14,1.85 -1.18,3.34 0.01,1.36 0.37,2.42 1.08,3.2 0.71,0.77 1.7,1.17 2.99,1.18 l 1.33,-0.12 c 0.43,-0.08 0.79,-0.19 1.09,-0.32 z"
     style="fill:#0277bd"
     id="path15" />
</svg>
