<svg viewBox="0 0 1024 1024" xmlns="http://www.w3.org/2000/svg"><path d="M926.912 384H302.144a64 64 0 00-60.736 43.776L128 768V320h768a64 64 0 00-64-64H483.968a64 64 0 01-40.96-14.848l-41.216-34.304A64 64 0 00360.832 192H128a64 64 0 00-64 64v512a64 64 0 0064 64h704l153.792-358.784A64 64 0 00926.912 384" fill="#673ab7"/><path d="M736 320c-53.02 0-96 42.98-96 96 .104 40.593 25.729 76.733 64 90.264V576h-32c-17.673 0-32 14.327-32 32 0 17.673 14.327 32 32 32h32v190.547C595.489 821.653 512 768.467 512 704h64L448 576v128c0 106.039 128.942 192 288 192s288-85.961 288-192V576L896 704h64c0 64.467-83.489 117.653-192 126.547V640h32c17.673 0 32-14.327 32-32 0-17.673-14.327-32-32-32h-32v-69.736c38.271-13.531 63.896-49.671 64-90.264 0-53.02-42.98-96-96-96zm0 64c17.673 0 32 14.327 32 32 0 17.673-14.327 32-32 32-17.673 0-32-14.327-32-32 0-17.673 14.327-32 32-32z" fill="#d1c4e9"/></svg>