<svg xmlns="http://www.w3.org/2000/svg" viewBox="0 0 16 16"><path id="folder" fill="#1e88e5" d="m6.922 3.768-.644-.536A1 1 0 0 0 5.638 3H2a1 1 0 0 0-1 1v8a1 1 0 0 0 1 1h12a1 1 0 0 0 1-1V5a1 1 0 0 0-1-1H7.562a1 1 0 0 1-.64-.232"/><path id="motive" fill="#e3f2fd" d="M10.969 5a2 2 0 0 0-.147.008 1.57 1.57 0 0 0-1.08.59 1.7 1.7 0 0 0-.228 1.728L7.9 8.572a.675.675 0 0 0-.892.268.73.73 0 0 0-.078.537.7.7 0 0 0 .31.437.67.67 0 0 0 .354.102.68.68 0 0 0 .588-.342.74.74 0 0 0 .088-.486l2.07-1.574a.1.1 0 0 0 .033-.06.1.1 0 0 0-.025-.065 1.05 1.05 0 0 1-.28-1.032.94.94 0 0 1 1.192-.632.975.975 0 0 1 .656.912.08.08 0 0 0 .076.08l.492.01a.1.1 0 0 0 .057-.024.1.1 0 0 0 .025-.058 1.67 1.67 0 0 0-.472-1.166A1.56 1.56 0 0 0 10.969 5m.045 1.006a.712.712 0 0 0-.002 1.422h.002a.65.65 0 0 0 .316-.08l2.082 1.568a.08.08 0 0 0 .067.014.08.08 0 0 0 .052-.043.99.99 0 0 1 .867-.59.966.966 0 0 1 .95.982.98.98 0 0 1-.649.93.083.083 0 0 0-.05.102l.138.49a.08.08 0 0 0 .041.049.08.08 0 0 0 .06.005 1.6 1.6 0 0 0 .934-.82 1.7 1.7 0 0 0 .1-1.264 1.575 1.575 0 0 0-2.588-.728l-1.64-1.217a.73.73 0 0 0-.096-.484.7.7 0 0 0-.428-.319.7.7 0 0 0-.154-.017zM7.578 7.533A1.607 1.607 0 0 0 6 9.148a1.65 1.65 0 0 0 .66 1.348 1.54 1.54 0 0 0 1.094.313l.637 1.968a.73.73 0 0 0-.032.961.68.68 0 0 0 .47.242l.05.002a.67.67 0 0 0 .447-.173.7.7 0 0 0 .104-.116.723.723 0 0 0-.155-.986.7.7 0 0 0-.298-.127l-.793-2.52a.08.08 0 0 0-.045-.048.08.08 0 0 0-.069.002.96.96 0 0 1-1.029-.057.997.997 0 0 1-.21-1.36.92.92 0 0 1 1.044-.347.08.08 0 0 0 .1-.05l.162-.477a.1.1 0 0 0-.004-.063.08.08 0 0 0-.047-.043 1.5 1.5 0 0 0-.488-.084zm6.791 1.031a.683.683 0 0 0-.683.649.8.8 0 0 0 .029.275.7.7 0 0 0 .168.283l-.801 2.514a.1.1 0 0 0 .008.069.08.08 0 0 0 .056.039.976.976 0 0 1 .194 1.89.92.92 0 0 1-1.049-.345.08.08 0 0 0-.11-.02l-.404.287a.08.08 0 0 0-.035.053.1.1 0 0 0 .016.062 1.58 1.58 0 0 0 1.29.68 1.55 1.55 0 0 0 .936-.314 1.68 1.68 0 0 0 .582-1.834 1.62 1.62 0 0 0-.707-.91l.614-1.973a.67.67 0 0 0 .412-.237.72.72 0 0 0 .164-.513.683.683 0 0 0-.68-.655m-6.705 3.733-.008.002a.08.08 0 0 0-.052.031 1.68 1.68 0 0 0-.288 1.225 1.65 1.65 0 0 0 .633 1.076 1.55 1.55 0 0 0 .936.318 1.58 1.58 0 0 0 1.287-.676 1.7 1.7 0 0 0 .271-.63l2.006-.02a.675.675 0 0 0 .873.328.7.7 0 0 0 .367-.387.73.73 0 0 0-.002-.54.7.7 0 0 0-.37-.381.65.65 0 0 0-.524.002.7.7 0 0 0-.348.335l-2.56.008a.08.08 0 0 0-.06.03.1.1 0 0 0-.016.068 1.04 1.04 0 0 1-.364 1 .9.9 0 0 1-.699.178.93.93 0 0 1-.617-.387 1 1 0 0 1-.008-1.145.085.085 0 0 0-.016-.11l-.39-.308a.1.1 0 0 0-.05-.017"/></svg>