<svg viewBox="0 0 16 16" xmlns="http://www.w3.org/2000/svg">
	<path
		id="folder"
		fill="#C51162"
		d="M14.483 6H4.721a1 1 0 0 0-.949.684L2 12V5h12a1 1 0 0 0-1-1H7.562a1 1 0 0 1-.64-.232l-.644-.536A1 1 0 0 0 5.638 3H2a1 1 0 0 0-1 1v8a1 1 0 0 0 1 1h11l2.403-5.606A1 1 0 0 0 14.483 6"
	/>
	<path
		id="motive"
		transform="scale(0.666666667) translate(9,7)"
		fill="#F48FB1" stroke="none"
		d="M 7 2 A 6 6 0 0 0 1 8 A 6 6 0 0 0 7 14 L 15 14 L 15 11 L 12.195312 11 L 7 11 A 3 3 0 0 1 4 8 A 3 3 0 0 1 7 5 A 3 3 0 0 1 9.2363281 6 L 12.65625 6 A 6 6 0 0 0 7 2 z M 9.828125 7 A 3 3 0 0 1 10 8 A 3 3 0 0 1 9.2363281 10 L 15 10 L 15 7 L 9.828125 7 z"
	/>
</svg>
