<svg xmlns="http://www.w3.org/2000/svg" viewBox="0 0 32 32"><path d="M13.845,7.53312,12.55688,6.46063a1.99935,1.99935,0,0,0-1.28-.46376H4a2.00039,2.00039,0,0,0-2.00063,2V23.99875A2.00052,2.00052,0,0,0,4,25.99937H28.00312a2.00038,2.00038,0,0,0,2-2.00062V9.99687a2.00025,2.00025,0,0,0-2-2H15.125A1.99917,1.99917,0,0,1,13.845,7.53312Z" style="fill:#607d8b"/><path d="M14,20v6H10Zm4.02563-5.34192-2.385.795a1.49448,1.49448,0,0,0-.86688,2.09376L15.3075,18.615l4.69622-1.62378c.0138-.2937-.00372-.60248-.00372-.91A1.49644,1.49644,0,0,0,18.02563,14.65808ZM30.91216,20.16l-5.54581-5.18023C24.27166,13.99878,23.84953,14,22,14v3.0119a3.361,3.361,0,0,1-1.30127,2.78748L24,24l5.87634,1.67555c.6053-.698.84986-1.00459,1.37945-1.59431A2.58274,2.58274,0,0,0,30.91216,20.16Z" style="fill:#f44336"/><path d="M10,26l4-2,4,2-4,2Zm10.69873-6.20062a19.76172,19.76172,0,0,1-2.46246,1.31469A3.49422,3.49422,0,0,1,16,21.41632V22.7547l8.98065,4.88794a3.2174,3.2174,0,0,0,4.05383-.999c.33289-.38422.50458-.58307.84186-.96808ZM15.5725,17.91l3.75562-1.40813a.49865.49865,0,0,1,.675.49251,1.47908,1.47908,0,0,1-.83187,1.42l-1.82937.915C15.9425,20.02875,14.62375,18.26625,15.5725,17.91Z" style="fill:#b71c1c"/></svg>