<svg xmlns="http://www.w3.org/2000/svg" viewBox="0 0 16 16">
<path fill="#0288d1" d="m6.922 3.768-.644-.536A1 1 0 0 0 5.638 3H2a1 1 0 0 0-1 1v8a1 1 0 0 0 1 1h12a1 1 0 0 0 1-1V5a1 1 0 0 0-1-1H7.562a1 1 0 0 1-.64-.232" id="folder"/>
<g id="motive"><path fill="#b3e5fc" d="M11.724 5.053a5 5 0 0 0-1.448 0l-0.317 0.8265a4.25 4.25 0 0 0-1.1365 0.471l-0.809-0.36a5 5 0 0 0-1.0235 1.023l0.3605 0.809a4.25 4.25 0 0 0-0.471 1.1365l-0.8265 0.317a5 5 0 0 0 0 1.448l0.8265 0.317a4.25 4.25 0 0 0 0.471 1.1365l-0.36 0.809a5 5 0 0 0 1.023 1.0235l0.809-0.3605a4.25 4.25 0 0 0 1.1365 0.471l0.317 0.8265a5 5 0 0 0 1.448 0l0.317-0.8265a4.25 4.25 0 0 0 1.1365-0.471l0.809 0.36a5 5 0 0 0 1.0235-1.023l-0.3605-0.809a4.25 4.25 0 0 0 0.471-1.1365l0.8265-0.317a5 5 0 0 0 0-1.448l-0.8265-0.317a4.25 4.25 0 0 0-0.471-1.1365l0.36-0.809a5 5 0 0 0-1.023-1.0235l-0.809 0.3605a4.25 4.25 0 0 0-1.1365-0.471ZM11 6.796A3.204 3.204 0 1 1 7.796 10 3.205 3.205 0 0 1 11 6.796"/><path fill="#b3e5fc" d="M12.3035 11.301a1.81 1.81 0 1 1-0.003-2.559l0.003 0.003-0.64 0.639a0.905 0.905 0 1 0-0.002 1.28l0.002-0.002Z"/></g>
</svg>
