<svg width="24" height="24" viewBox="0 0 24 24" fill="none" xmlns="http://www.w3.org/2000/svg">
<path d="M19 20H4C2.89 20 2 19.1 2 18V6C2 4.89 2.89 4 4 4H10L12 6H19C19.5304 6 20.0391 6.21071 20.4142 6.58579C20.7893 6.96086 21 7.46957 21 8H4V18L6.14 10H23.21L20.93 18.5C20.7 19.37 19.92 20 19 20Z" fill="#5C6BC0"/>
<path d="M15.5 9C10.825 9 7 11.3346 7 14.2218C7 16.7743 10.026 18.8911 14.004 19.3424V21H16.9025V19.3502C17.625 19.2802 18.2965 19.1556 18.934 18.9767L20.107 21H23.388L21.416 17.9572C23.0055 17.0078 24 15.677 24 14.2218C24 11.3346 20.175 9 15.5 9ZM16.8005 11.0389C20.3705 11.0389 23.0055 12.1284 23.0055 14.6109C23.0055 15.9416 22.2235 16.8755 20.9485 17.4514C20.872 17.4125 20.804 17.3735 20.7615 17.3346C20.4555 17.2101 19.9455 17.07 19.9455 17.07C19.9455 17.07 22.4785 16.8988 22.4785 14.5875C22.4785 12.2763 19.8265 12.2374 19.8265 12.2374H14.004V17.8093C11.8365 17.2335 10.3405 16.0117 10.3405 14.6109C10.3405 12.6342 13.2305 11.0389 16.8005 11.0389ZM16.928 14.1362H18.6875C18.6875 14.1362 19.495 14.0973 19.495 14.8677C19.495 15.6226 18.6875 15.6226 18.6875 15.6226H16.928V14.1362ZM16.9025 17.5681H17.6845C17.8375 17.5681 17.914 17.607 18.05 17.7237C18.1605 17.8016 18.2795 17.9494 18.3815 18.0817C17.914 18.1362 17.421 18.1595 16.9025 18.1595V17.5681Z" fill="#C5CAE9"/>
</svg>
