<?xml version="1.0" encoding="UTF-8" standalone="no"?>
<svg
   viewBox="0 0 32 32"
   version="1.1"
   id="svg2"
   xml:space="preserve"
   xmlns="http://www.w3.org/2000/svg"
   xmlns:svg="http://www.w3.org/2000/svg"><defs
     id="defs2" /><path
     fill="#00acc1"
     d="m13.844 7.536-1.288-1.072A2 2 0 0 0 11.276 6H4a2 2 0 0 0-2 2v16a2 2 0 0 0 2 2h24a2 2 0 0 0 2-2V10a2 2 0 0 0-2-2H15.124a2 2 0 0 1-1.28-.464"
     id="path1"
     style="fill:#8bc34a;fill-opacity:1" /><g
     style="fill:#c5e1a5;fill-opacity:1"
     id="g2"
     transform="matrix(0.26666667,0,0,0.26666667,10.666667,8.1633333)"><path
       d="m 31,34 h 38 a 1,1 0 0 0 1,-1 V 29 A 1,1 0 0 0 69,28 H 31 a 1,1 0 0 0 -1,1 v 4 a 1,1 0 0 0 1,1 m 41,6 H 28 A 4,4 0 0 1 24,36 V 26 a 4,4 0 0 1 4,-4 h 44 a 4,4 0 0 1 4,4 v 10 a 4,4 0 0 1 -4,4"
       fill-rule="evenodd"
       id="path1-5"
       style="fill:#c5e1a5;fill-opacity:1" /><path
       d="m 31,72 h 38 a 1,1 0 0 0 1,-1 V 67 A 1,1 0 0 0 69,66 H 31 a 1,1 0 0 0 -1,1 v 4 a 1,1 0 0 0 1,1 m 41,6 H 28 A 4,4 0 0 1 24,74 V 64 a 4,4 0 0 1 4,-4 h 44 a 4,4 0 0 1 4,4 v 10 a 4,4 0 0 1 -4,4"
       fill-rule="evenodd"
       id="path2"
       style="fill:#c5e1a5;fill-opacity:1" /><path
       d="M 77,54 H 67 a 3,3 0 0 1 -3,-3 v -2 a 3,3 0 0 1 3,-3 h 10 a 3,3 0 0 1 3,3 v 2 a 3,3 0 0 1 -3,3"
       fill-rule="evenodd"
       id="path3"
       style="fill:#c5e1a5;fill-opacity:1" /><path
       d="M 55,54 H 45 a 3,3 0 0 1 -3,-3 v -2 a 3,3 0 0 1 3,-3 h 10 a 3,3 0 0 1 3,3 v 2 a 3,3 0 0 1 -3,3"
       fill-rule="evenodd"
       id="path4"
       style="fill:#c5e1a5;fill-opacity:1" /><path
       d="M 33,54 H 23 a 3,3 0 0 1 -3,-3 v -2 a 3,3 0 0 1 3,-3 h 10 a 3,3 0 0 1 3,3 v 2 a 3,3 0 0 1 -3,3"
       fill-rule="evenodd"
       id="path5"
       style="fill:#c5e1a5;fill-opacity:1" /></g></svg>
