<svg viewBox="0 0 24 24" fill="none" xmlns="http://www.w3.org/2000/svg">
  <path
    d="M10 4H4C2.89 4 2 4.89 2 6V18C2 19.097 2.903 20 4 20H20C21.097 20 22 19.097 22 18V8C22 7.46957 21.7893 6.96086 21.4142 6.58579C21.0391 6.21071 20.5304 6 20 6H12L10 4Z"
    fill="#546E7A" />
  <g clip-path="url(#clip0_757_510)">
    <path
      d="M19.105 12.44C19.25 12.754 19.409 13.059 19.55 13.373C19.824 13.979 20.031 14.615 20.12 15.274C20.208 15.934 20.168 16.614 19.96 17.242C19.727 17.954 19.29 18.586 18.747 19.108C18.107 19.723 17.291 20.196 16.405 20.231C15.827 20.253 15.253 20.09 14.745 19.82C14.3132 19.5961 13.9286 19.2913 13.612 18.922C13.2961 18.5503 13.0724 18.1094 12.959 17.635C12.826 17.052 12.889 16.433 13.087 15.871C13.228 15.469 13.44 15.093 13.594 14.695C13.757 14.257 13.85 13.793 14.071 13.377C14.269 13.002 14.565 12.683 14.724 12.29C14.816 12.055 14.86 11.803 14.918 11.556C14.979 11.308 15.063 11.065 15.231 10.87C15.43 10.64 15.73 10.517 16.034 10.481C16.334 10.446 16.643 10.494 16.938 10.561C17.177 10.614 17.406 10.681 17.635 10.764C17.83 10.834 18.024 10.914 18.191 11.034C18.421 11.197 18.597 11.427 18.734 11.675C18.871 11.923 18.99 12.184 19.104 12.44H19.105Z"
      fill="#37474F" />
    <path
      d="M16.568 20.2359C17.0243 20.2628 17.4773 20.3294 17.922 20.4349C18.249 20.5149 18.571 20.6149 18.906 20.6249C18.994 20.6289 19.083 20.6249 19.171 20.6029C19.2582 20.5865 19.34 20.5487 19.409 20.4929C19.5097 20.4056 19.5781 20.2869 19.603 20.1559C19.6255 20.0257 19.6166 19.892 19.577 19.7659C19.502 19.5149 19.338 19.2979 19.207 19.0729C19.131 18.9439 19.061 18.8069 18.977 18.6829C18.8961 18.5561 18.7907 18.4466 18.667 18.3609C18.4877 18.2505 18.2759 18.205 18.067 18.2319C17.8606 18.2596 17.6608 18.324 17.477 18.4219C17.217 18.5549 16.974 18.7419 16.833 18.9969C16.784 19.0859 16.749 19.1829 16.705 19.2769C16.6668 19.3717 16.6112 19.4586 16.541 19.5329C16.461 19.6129 16.361 19.6699 16.277 19.7489C16.236 19.7878 16.203 19.8343 16.18 19.8859C16.1569 19.939 16.1534 19.9985 16.17 20.0539C16.1828 20.0908 16.2061 20.1231 16.237 20.1469C16.267 20.1739 16.303 20.1909 16.338 20.2049C16.413 20.2269 16.493 20.2309 16.568 20.2349V20.2359Z"
      fill="#37474F" />
    <path
      d="M15.849 20.218C15.646 20.223 15.447 20.258 15.249 20.302C15.059 20.342 14.869 20.386 14.684 20.435C14.366 20.519 14.053 20.616 13.727 20.625C13.6411 20.6265 13.5553 20.6191 13.471 20.603C13.3861 20.5853 13.3062 20.5491 13.237 20.497C13.1357 20.4106 13.0672 20.292 13.043 20.161C13.0203 20.0308 13.0292 19.8971 13.069 19.771C13.144 19.519 13.303 19.303 13.435 19.077C13.51 18.949 13.577 18.812 13.656 18.688C13.736 18.564 13.832 18.445 13.96 18.361C14.1338 18.2525 14.3397 18.2073 14.543 18.233C14.746 18.255 14.94 18.325 15.116 18.423C15.368 18.56 15.597 18.75 15.743 18.998C15.844 19.17 15.906 19.369 16.025 19.533C16.091 19.621 16.171 19.696 16.224 19.789C16.2508 19.8371 16.2687 19.8896 16.277 19.944C16.281 19.9981 16.2684 20.0522 16.241 20.099C16.1971 20.1565 16.1325 20.1945 16.061 20.205C15.994 20.218 15.919 20.218 15.849 20.218ZM14.72 11.777C14.693 11.432 14.697 11.091 14.684 10.747C14.671 10.415 14.64 10.087 14.654 9.75702C14.666 9.42002 14.719 9.08002 14.869 8.77902C15.019 8.47902 15.262 8.22202 15.558 8.06302C15.835 7.91302 16.158 7.84602 16.471 7.85002C16.899 7.85502 17.331 7.98302 17.675 8.23502C18.079 8.53595 18.3697 8.96439 18.5 9.45102C18.624 9.90602 18.593 10.384 18.62 10.857C18.641 11.304 18.712 11.75 18.69 12.197C18.689 12.2941 18.6696 12.3901 18.633 12.48C18.5884 12.5637 18.5207 12.6327 18.438 12.679C18.3551 12.726 18.2636 12.7559 18.169 12.767C17.984 12.798 17.794 12.777 17.605 12.794C17.331 12.82 17.071 12.922 16.802 12.962C16.48 13.011 16.149 12.975 15.827 12.962C15.6958 12.9591 15.5647 12.9518 15.434 12.94C15.3035 12.9258 15.1765 12.8885 15.059 12.83C14.9884 12.7912 14.9243 12.7416 14.869 12.683C14.8159 12.6216 14.7769 12.5492 14.755 12.471C14.724 12.351 14.741 12.232 14.741 12.108C14.741 11.998 14.728 11.888 14.719 11.777H14.72Z"
      fill="#37474F" />
    <path
      d="M15.231 11.6489C15.1869 11.7083 15.1552 11.776 15.138 11.8479C15.1205 11.9199 15.1117 11.9938 15.112 12.0679C15.107 12.2189 15.116 12.3689 15.077 12.5109C15.037 12.6659 14.94 12.7979 14.847 12.9269C14.688 13.1519 14.53 13.3819 14.45 13.6429C14.402 13.8029 14.388 13.9699 14.406 14.1379C14.23 14.3989 14.076 14.6779 13.947 14.9689C13.7499 15.4077 13.6234 15.8747 13.572 16.3529C13.515 16.9369 13.59 17.5429 13.819 18.0829C13.987 18.4719 14.234 18.8299 14.556 19.1079C14.719 19.2499 14.9 19.3689 15.094 19.4659C15.764 19.7979 16.594 19.7979 17.256 19.4439C17.6 19.2589 17.891 18.9889 18.174 18.7189C18.341 18.5559 18.509 18.3869 18.641 18.1889C18.888 17.8089 18.977 17.3489 19.03 16.8969C19.122 16.1099 19.127 15.2749 18.783 14.5629C18.6642 14.3164 18.5061 14.0908 18.315 13.8949C18.2657 13.5505 18.166 13.2153 18.019 12.8999C17.913 12.6699 17.785 12.4529 17.689 12.2239C17.649 12.1309 17.613 12.0339 17.569 11.9409C17.5278 11.847 17.4695 11.7615 17.397 11.6889C17.3189 11.6182 17.2274 11.5638 17.128 11.5289C17.0277 11.4981 16.9238 11.4803 16.819 11.4759C16.608 11.4669 16.4 11.4939 16.189 11.4859C16.021 11.4759 15.853 11.4499 15.685 11.4589C15.6004 11.4634 15.517 11.4812 15.438 11.5119C15.356 11.534 15.2833 11.582 15.231 11.6489ZM15.297 9.81393C15.2177 9.81951 15.1428 9.85237 15.085 9.90693C15.0285 9.96236 14.9863 10.0306 14.962 10.1059C14.913 10.2559 14.922 10.4189 14.935 10.5739C14.945 10.7159 14.957 10.8619 15.01 10.9939C15.037 11.061 15.076 11.1227 15.125 11.1759C15.1741 11.2276 15.2369 11.2643 15.306 11.2819C15.3718 11.2986 15.4412 11.2951 15.505 11.2719C15.5676 11.2519 15.6247 11.2176 15.672 11.1719C15.7407 11.1009 15.7909 11.014 15.818 10.9189C15.8429 10.8236 15.8547 10.7254 15.853 10.6269C15.853 10.5029 15.835 10.3839 15.796 10.2649C15.7586 10.1475 15.695 10.0401 15.61 9.95093C15.5703 9.9072 15.5228 9.87126 15.47 9.84493C15.415 9.82307 15.3562 9.81252 15.297 9.81393ZM16.687 9.81393C16.561 9.8976 16.464 10.0181 16.409 10.1589C16.3547 10.3402 16.3624 10.5345 16.431 10.7109C16.488 10.8967 16.6025 11.0595 16.758 11.1759C16.837 11.2289 16.93 11.2679 17.022 11.2769C17.1173 11.2906 17.2145 11.2742 17.3 11.2299C17.4037 11.1718 17.4858 11.0816 17.534 10.9729C17.5807 10.8655 17.6061 10.75 17.609 10.6329C17.618 10.4829 17.605 10.3319 17.552 10.1909C17.5019 10.0342 17.4009 9.89868 17.265 9.80593C17.1976 9.76062 17.1205 9.73184 17.04 9.72193C16.9779 9.71127 16.9143 9.71405 16.8534 9.73009C16.7925 9.74614 16.7357 9.77507 16.687 9.81493V9.81393Z"
      fill="white" />
    <path
      d="M16.974 10.185C16.9271 10.1885 16.8817 10.2033 16.8417 10.228C16.8017 10.2527 16.7682 10.2866 16.744 10.327C16.6933 10.4043 16.6656 10.4945 16.664 10.587C16.6592 10.6561 16.6684 10.7255 16.691 10.791C16.7101 10.8594 16.7502 10.9201 16.8056 10.9646C16.8611 11.0091 16.929 11.0351 17 11.039C17.0721 11.0418 17.1433 11.0215 17.203 10.981C17.2507 10.9492 17.2888 10.9049 17.313 10.853C17.3406 10.8023 17.3572 10.7464 17.362 10.689C17.3768 10.5889 17.3597 10.4867 17.313 10.397C17.2675 10.3068 17.1907 10.2364 17.097 10.199C17.057 10.1878 17.0155 10.1831 16.974 10.185ZM15.107 10.464C15.0864 10.5625 15.0927 10.6647 15.125 10.76C15.147 10.822 15.187 10.88 15.231 10.928C15.261 10.958 15.293 10.99 15.332 11.008C15.372 11.025 15.416 11.034 15.46 11.025C15.4992 11.0153 15.5336 10.9918 15.557 10.959C15.584 10.928 15.597 10.888 15.61 10.853C15.6442 10.7386 15.6428 10.6165 15.606 10.503C15.5842 10.4196 15.5383 10.3444 15.474 10.287C15.4431 10.2583 15.4051 10.2383 15.364 10.229C15.3241 10.2183 15.2818 10.2214 15.244 10.238C15.2021 10.2575 15.1693 10.2921 15.152 10.335C15.1304 10.3754 15.1152 10.4189 15.107 10.464Z"
      fill="#37474F" />
    <path
      d="M14.927 11.702C14.931 11.715 14.935 11.728 14.94 11.737C14.953 11.755 14.97 11.772 14.988 11.786C15.006 11.799 15.028 11.812 15.046 11.821C15.147 11.887 15.231 11.976 15.306 12.073C15.407 12.201 15.496 12.347 15.628 12.44C15.723 12.5066 15.8343 12.5463 15.95 12.555C16.087 12.568 16.22 12.546 16.352 12.506C16.471 12.471 16.59 12.422 16.696 12.356C16.899 12.232 16.938 12.086 17.243 11.905C17.287 11.878 17.41 11.79 17.446 11.759C17.486 11.719 17.499 11.71 17.534 11.662C17.564 11.622 17.564 11.613 17.583 11.573C17.6 11.529 17.609 11.52 17.613 11.472C17.618 11.423 17.623 11.396 17.605 11.343C17.5846 11.3032 17.552 11.271 17.512 11.251C17.4727 11.2298 17.4286 11.2191 17.384 11.22C17.296 11.215 17.208 11.237 17.119 11.246C17.005 11.255 16.885 11.242 16.766 11.246C16.621 11.251 16.476 11.281 16.33 11.29C16.162 11.3 15.999 11.273 15.831 11.264C15.7589 11.2582 15.6864 11.2612 15.615 11.273C15.5433 11.2836 15.4751 11.311 15.416 11.353C15.359 11.392 15.31 11.445 15.257 11.493C15.2312 11.5173 15.2015 11.5369 15.169 11.551C15.1378 11.567 15.103 11.5746 15.068 11.573C15.05 11.573 15.032 11.569 15.015 11.573C15.006 11.578 14.993 11.583 14.988 11.591C14.982 11.601 14.9746 11.6101 14.966 11.618C14.949 11.653 14.936 11.675 14.926 11.702H14.927Z"
      fill="#FFC400" />
    <path
      d="M15.293 11.1581C15.2079 11.2152 15.132 11.2851 15.068 11.3651C15.0304 11.4098 15.0007 11.4605 14.98 11.5151C14.966 11.5601 14.962 11.6051 14.949 11.6531C14.944 11.6711 14.939 11.6881 14.939 11.7061C14.939 11.7151 14.939 11.7241 14.944 11.7321C14.9473 11.7403 14.9516 11.7481 14.957 11.7551C14.9622 11.7604 14.9684 11.7647 14.9753 11.7676C14.9821 11.7705 14.9895 11.7721 14.997 11.7721C15.01 11.7771 15.024 11.7771 15.041 11.7771C15.105 11.7881 15.1656 11.8137 15.218 11.8521C15.271 11.8871 15.319 11.9321 15.377 11.9671C15.496 12.0421 15.641 12.0771 15.782 12.0821C15.9245 12.083 16.0667 12.0683 16.206 12.0381C16.316 12.0151 16.426 11.9881 16.533 11.9491C16.696 11.8871 16.841 11.7851 16.978 11.6841C17.0609 11.6203 17.1403 11.5522 17.216 11.4801C17.2367 11.4626 17.2604 11.4491 17.286 11.4401C17.3252 11.4289 17.3668 11.4289 17.406 11.4401C17.437 11.4451 17.468 11.4541 17.499 11.4501C17.512 11.4501 17.529 11.4451 17.543 11.4401C17.5572 11.4354 17.5694 11.4263 17.578 11.4141C17.5904 11.3977 17.5967 11.3776 17.596 11.3571C17.597 11.3362 17.5906 11.3157 17.578 11.2991C17.5545 11.266 17.5223 11.24 17.485 11.2241C17.437 11.2021 17.38 11.1891 17.327 11.1751C17.1613 11.136 17.0011 11.0765 16.85 10.9981L16.625 10.8791C16.549 10.8367 16.4694 10.8012 16.387 10.7731C16.1979 10.7197 15.9965 10.7288 15.813 10.7991C15.615 10.8701 15.43 10.9941 15.293 11.1581Z"
      fill="#FFC400" />
    <path
      d="M19.308 14.3721C19.577 14.5891 19.744 14.9161 19.798 15.2571C19.837 15.5221 19.811 15.7971 19.753 16.0571C19.696 16.3181 19.599 16.5741 19.511 16.8271C19.475 16.9281 19.436 17.0301 19.422 17.1361C19.4052 17.2428 19.4205 17.3521 19.466 17.4501C19.5297 17.5571 19.6327 17.635 19.753 17.6671C19.8696 17.7017 19.9936 17.703 20.111 17.6711C20.2278 17.6395 20.3373 17.5851 20.433 17.5111C20.675 17.3211 20.821 17.0301 20.878 16.7251C20.936 16.4201 20.909 16.1051 20.856 15.8051C20.7825 15.3904 20.6659 14.9845 20.508 14.5941C20.4002 14.3033 20.2546 14.0279 20.075 13.7751C19.895 13.5321 19.665 13.3291 19.488 13.0851C19.365 12.9131 19.268 12.7281 19.118 12.5771C19.0447 12.5005 18.9561 12.4402 18.858 12.4001C18.7597 12.3595 18.651 12.3518 18.548 12.3781C18.4817 12.3992 18.4206 12.4342 18.3689 12.4808C18.3172 12.5273 18.276 12.5844 18.248 12.6481C18.1942 12.7766 18.1792 12.9181 18.205 13.0551C18.235 13.2321 18.315 13.3951 18.403 13.5501C18.505 13.7221 18.623 13.8901 18.778 14.0231C18.946 14.1511 19.144 14.2401 19.308 14.3731V14.3721Z"
      fill="#37474F" />
    <path
      d="M21.995 19.0769C21.9651 19.1524 21.9232 19.2226 21.871 19.2849C21.751 19.4269 21.593 19.5149 21.434 19.5949C21.161 19.7319 20.878 19.8549 20.622 20.0229C20.45 20.1339 20.292 20.2669 20.142 20.4079C20.014 20.5319 19.894 20.6599 19.753 20.7619C19.6101 20.8686 19.4439 20.9399 19.268 20.9699C19.0526 20.9973 18.8339 20.9633 18.637 20.8719C18.494 20.819 18.3707 20.7233 18.284 20.5979C18.204 20.4699 18.187 20.3109 18.187 20.1599C18.187 19.8899 18.236 19.6259 18.284 19.3599C18.324 19.1399 18.359 18.9219 18.386 18.6969C18.426 18.2949 18.421 17.8869 18.399 17.4809C18.3915 17.413 18.3928 17.3444 18.403 17.2769C18.4099 17.2103 18.4395 17.1481 18.487 17.1009C18.535 17.0596 18.5957 17.036 18.659 17.0339C18.721 17.0299 18.783 17.0439 18.844 17.0519C18.99 17.0739 19.136 17.0919 19.281 17.1269C19.369 17.1489 19.458 17.1849 19.551 17.2069C19.701 17.2469 19.859 17.2689 20.014 17.2509C20.181 17.2329 20.34 17.1669 20.508 17.1709C20.578 17.1709 20.644 17.1849 20.711 17.2069C20.7786 17.2247 20.8406 17.2594 20.891 17.3079C20.927 17.3479 20.953 17.3929 20.975 17.4459C21.006 17.5209 21.019 17.5999 21.028 17.6759C21.033 17.7459 21.033 17.8169 21.046 17.8879C21.0717 18.0031 21.1265 18.1098 21.205 18.1979C21.28 18.2859 21.368 18.3609 21.456 18.4319C21.544 18.5069 21.633 18.5819 21.73 18.6439C21.774 18.6739 21.818 18.7009 21.862 18.7369C21.9064 18.7703 21.9438 18.8121 21.972 18.8599C21.999 18.9269 22.012 19.0059 21.995 19.0769Z"
      fill="#FFC400" />
    <path
      d="M20.68 17.0211C20.6613 16.9717 20.6308 16.9278 20.591 16.8931C20.5515 16.8585 20.507 16.8302 20.459 16.8091C20.362 16.7732 20.2614 16.7481 20.159 16.7341C20.062 16.7161 19.969 16.6941 19.872 16.6761C19.7719 16.6549 19.6686 16.6536 19.568 16.6721C19.4806 16.6926 19.4 16.7353 19.334 16.7961C19.2692 16.8575 19.2169 16.9308 19.18 17.0121C19.1177 17.157 19.092 17.3149 19.105 17.4721C19.114 17.5871 19.145 17.7071 19.219 17.7951C19.281 17.8651 19.369 17.9101 19.458 17.9361C19.6151 17.982 19.7825 17.9792 19.938 17.9281C20.194 17.8441 20.419 17.6711 20.569 17.4501C20.6213 17.3779 20.6602 17.297 20.684 17.2111C20.7025 17.1489 20.7011 17.0825 20.68 17.0211ZM14.605 12.5601C14.481 12.7141 14.357 12.8691 14.238 13.0201C14.11 13.1781 13.987 13.3381 13.858 13.4971C13.704 13.6911 13.546 13.8861 13.444 14.1111C13.356 14.3061 13.316 14.5181 13.254 14.7211C13.188 14.9561 13.096 15.1811 12.99 15.3981C12.893 15.6021 12.791 15.8001 12.685 15.9951C12.61 16.1411 12.531 16.2871 12.505 16.4461C12.4858 16.5746 12.4933 16.7056 12.527 16.8311C12.557 16.9551 12.61 17.0741 12.667 17.1891C12.919 17.6791 13.294 18.0991 13.735 18.4231C13.938 18.5691 14.155 18.6971 14.38 18.7981C14.503 18.8561 14.631 18.9051 14.768 18.9091C14.8357 18.9107 14.903 18.8988 14.966 18.8741C15.0296 18.8479 15.0837 18.8029 15.121 18.7451C15.1646 18.6738 15.1833 18.5901 15.174 18.5071C15.1642 18.4234 15.1355 18.343 15.09 18.2721C14.984 18.1001 14.816 17.9721 14.657 17.8481C14.313 17.5781 13.978 17.2951 13.656 16.9981C13.5624 16.9172 13.4806 16.8236 13.413 16.7201C13.3552 16.6139 13.315 16.4991 13.294 16.3801C13.2296 16.0543 13.2524 15.7173 13.36 15.4031C13.404 15.2791 13.462 15.1631 13.515 15.0491C13.612 14.8451 13.7 14.6381 13.824 14.4521C13.978 14.2221 14.19 14.0221 14.318 13.7751C14.424 13.5671 14.468 13.3291 14.512 13.0991L14.605 12.5591V12.5601Z"
      fill="#37474F" />
    <path
      d="M12.8 16.83C12.8713 16.8011 12.9496 16.7938 13.025 16.809C13.0997 16.8226 13.1704 16.8527 13.232 16.897C13.36 16.981 13.453 17.11 13.542 17.233C13.749 17.516 13.947 17.808 14.124 18.109C14.269 18.352 14.402 18.609 14.574 18.839C14.684 18.989 14.807 19.126 14.918 19.276C15.028 19.426 15.125 19.59 15.174 19.767C15.235 20.001 15.214 20.257 15.104 20.475C15.0254 20.6271 14.9059 20.7542 14.759 20.842C14.6128 20.9298 14.4445 20.9742 14.274 20.97C14.004 20.96 13.757 20.824 13.506 20.726C12.994 20.523 12.438 20.456 11.913 20.298C11.75 20.248 11.591 20.191 11.428 20.148C11.358 20.125 11.282 20.112 11.212 20.076C11.1413 20.0482 11.0811 19.9989 11.04 19.935C11.0113 19.8839 10.9974 19.8257 11 19.767C11 19.71 11.013 19.652 11.035 19.595C11.075 19.484 11.137 19.387 11.181 19.276C11.251 19.099 11.265 18.905 11.256 18.715C11.247 18.525 11.216 18.339 11.203 18.149C11.1949 18.065 11.1979 17.9803 11.212 17.897C11.2281 17.8125 11.2676 17.7342 11.326 17.671C11.3843 17.618 11.4564 17.5827 11.534 17.569C11.611 17.5536 11.6898 17.5492 11.768 17.556C11.848 17.556 11.922 17.561 12.002 17.556C12.0784 17.5544 12.1532 17.5343 12.2201 17.4973C12.287 17.4604 12.3439 17.4078 12.386 17.344C12.429 17.282 12.465 17.22 12.5 17.154C12.535 17.087 12.575 17.025 12.62 16.968C12.6667 16.9071 12.7288 16.8598 12.8 16.831V16.83Z"
      fill="#FFC400" />
  </g>
  <defs>
    <clipPath id="clip0_757_510">
      <rect width="12" height="14" fill="white" transform="translate(11 7)" />
    </clipPath>
  </defs>
</svg>