<svg xmlns="http://www.w3.org/2000/svg" viewBox="0 0 32 32">
    <path fill="#0288d1" d="M28.967 12H9.442a2 2 0 0 0-1.898 1.368L4 24V10h24a2 2 0 0 0-2-2H15.124a2 2 0 0 1-1.28-.464l-1.288-1.072A2 2 0 0 0 11.276 6H4a2 2 0 0 0-2 2v16a2 2 0 0 0 2 2h22l4.805-11.212A2 2 0 0 0 28.967 12"/>
    <!-- <path fill="#b3e5fc" d="M29 16 H9 10 V0 0"/> -->


<path d="
M16 20
C18.21 20, 20 21.79, 20 24
C20 26.21, 18.21 28, 16 28
C13.79 28, 12 26.21, 12 24
C12 21.79, 13.79 20, 16 20
Z
" fill="none" stroke="#b3e5fc" stroke-width="0.25" />

<path d="
M24 20
C26.21 20, 28 21.79, 28 24
C28 26.21, 26.21 28, 24 28
C21.79 28, 20 26.21, 20 24
C20 21.79, 21.79 20, 24 20
Z
" fill="none" stroke="#b3e5fc" stroke-width="0.25" />



</svg>