<svg xmlns="http://www.w3.org/2000/svg" viewBox="0 0 32 32"><path d="M13.84376,7.53645l-1.28749-1.0729A2,2,0,0,0,11.27591,6H4A2,2,0,0,0,2,8V24a2,2,0,0,0,2,2H28a2,2,0,0,0,2-2V10a2,2,0,0,0-2-2H15.12412A2,2,0,0,1,13.84376,7.53645Z" style="fill:#4caf50"/><path d="M9.7438,26.21913m1.00847.99833,3.12682-5.76413a1.512,1.512,0,0,0-.57346-2.03408,1.452,1.452,0,0,0-1.995.58525L8.18384,25.76778a1.51242,1.51242,0,0,0,.57346,2.03451,1.43655,1.43655,0,0,0,.70908.187A1.46238,1.46238,0,0,0,10.75227,27.21746Zm10.30469,0,3.12681-5.76413a1.512,1.512,0,0,0-.57346-2.03408,1.45177,1.45177,0,0,0-1.995.58525l-3.12682,5.76328a1.51242,1.51242,0,0,0,.57346,2.03451,1.43652,1.43652,0,0,0,.70908.187A1.46239,1.46239,0,0,0,21.057,27.21746ZM18.1612,22.007l3.32606-5.75987a1.5074,1.5074,0,0,0-.51821-2.0409,1.44712,1.44712,0,0,0-2.00166.52805l-3.32607,5.75986a1.50811,1.50811,0,0,0,.51821,2.04133,1.43,1.43,0,0,0,.74005.20576A1.45558,1.45558,0,0,0,18.1612,22.007Zm10.31054,0,3.32607-5.75987a1.50741,1.50741,0,0,0-.51821-2.0409,1.44713,1.44713,0,0,0-2.00167.52805l-3.32606,5.75986a1.50811,1.50811,0,0,0,.51821,2.04133,1.43,1.43,0,0,0,.74005.20576A1.45556,1.45556,0,0,0,28.47174,22.007Z" style="fill:#c8e6c9"/></svg>