<svg viewBox="0 0 24 24" fill="none" xmlns="http://www.w3.org/2000/svg">
  <path
    d="M10 4H4C2.89 4 2 4.89 2 6V18C2 19.097 2.903 20 4 20H20C21.097 20 22 19.097 22 18V8C22 7.46957 21.7893 6.96086 21.4142 6.58579C21.0391 6.21071 20.5304 6 20 6H12L10 4Z"
    fill="#0288D1" />
  <path fill-rule="evenodd" clip-rule="evenodd"
    d="M18.034 9.132L23.726 11.1603L22.8632 18.6939L18.034 21.3661L13.2048 18.6939L12.342 11.1603L18.034 9.132H18.034ZM18.034 10.4842L14.4733 18.4685H15.7997L16.5144 16.6785H19.5407L20.2554 18.4685H21.5754L18.034 10.4842H18.034ZM19.0771 15.571H16.9973L18.034 13.0791L19.0771 15.571Z"
    fill="#B3E5FC" />
</svg>