<svg xmlns="http://www.w3.org/2000/svg" clip-rule="evenodd" stroke-linejoin="round" stroke-miterlimit="1.414" viewBox="0 0 24 24">
  <path fill="#9575CD" d="M19 20H4a2 2 0 0 1-2-2V6c0-1.11.89-2 2-2h6l2 2h7c1.097 0 2 .903 2 2H4v10l2.14-8h17.07l-2.28 8.5c-.23.87-1.01 1.5-1.93 1.5z"/>
  <path fill="#512DA8" d="M16.5 13.85c-3.312 0-6 1.344-6 3 0 1.344 1.764 2.478 4.2 2.862v1.938l2.4-2.4-2.4-2.4v1.638c-1.89-.336-3-1.14-3-1.638 0-.636 1.824-1.8 4.8-1.8s4.8 1.164 4.8 1.8c0 .438-.876 1.134-2.4 1.518v1.23c2.118-.462 3.6-1.518 3.6-2.748 0-1.656-2.688-3-6-3z"/>
</svg>