<svg xmlns="http://www.w3.org/2000/svg" clip-rule="evenodd" fill-rule="evenodd" stroke-linejoin="round" stroke-miterlimit="1.414" viewBox="0 0 24 24">
    <path fill="#ffb300" d="M19 20H4a2 2 0 0 1-2-2V6c0-1.11.89-2 2-2h6l2 2h7c1.097 0 2 .903 2 2H4v10l2.14-8h17.07l-2.28 8.5c-.23.87-1.01 1.5-1.93 1.5z"/>
  <path d="M0 0h24v24H0z" fill="none"/>
  <path d="M21.3 12.46H19v-1.15c0-.317-.127-.604-.34-.811a1.124 1.124 0 0 0-.81-.34h-2.3c-.633 0-1.15.518-1.15 1.15v1.15h-2.3c-.633 0-1.15.518-1.15 1.15v6.326c0 .632.517 1.15 1.15 1.15h9.2c.632 0 1.15-.518 1.15-1.15V13.61c0-.633-.518-1.15-1.15-1.15zm-5.75-1.15h2.3v1.15h-2.3zm.574 7.762l-.575-.575 1.725-1.725-1.725-1.725.575-.575 2.3 2.3z"/>
</svg>
