<svg clip-rule="evenodd" fill-rule="evenodd" stroke-linejoin="round" stroke-miterlimit="1.414" version="1.1" viewBox="0 0 24 24" xmlns="http://www.w3.org/2000/svg"><path d="M19 20H4a2 2 0 0 1-2-2V6c0-1.11.89-2 2-2h6l2 2h7c1.097 0 2 .903 2 2H4v10l2.14-8h17.07l-2.28 8.5c-.23.87-1.01 1.5-1.93 1.5z" fill="#7B1FA2" style="fill:#ab47bc"/><path d="m22.152 11.733h-2.399v-1.1995c0-.33064-.13247-.62998-.35464-.84589a1.1724 1.1723 0 0 0 -.84486 -.35463h-2.399c-.66025 0-1.1995.54028-1.1995 1.1995v1.1995h-2.399c-.66025 0-1.1995.54028-1.1995 1.1995v6.5981c0 .65918.53925 1.1995 1.1995 1.1995h9.596c.6592 0 1.1995-.54028 1.1995-1.1995v-6.5971c0-.66023-.5403-1.1995-1.1995-1.1995zm-5.9975-1.1995h2.399v1.1995h-2.399zm.59871 8.0959-.59975-.59973 1.7992-1.7992-1.7992-1.7992.59975-.59974 2.399 2.3989z" style="fill:#e1bee7;stroke-width:1.043"/></svg>
