<?xml version="1.0" encoding="UTF-8"?>
<svg clip-rule="evenodd" stroke-linejoin="round" stroke-miterlimit="1.4142" version="1.1" viewBox="0 0 24 24" xml:space="preserve" xmlns="http://www.w3.org/2000/svg">
<path d="m19 20h-15c-1.11 0-2-0.9-2-2v-12c0-1.11 0.89-2 2-2h6l2 2h7c1.097 0 2 0.903 2 2h-17v10l2.14-8h17.07l-2.28 8.5c-0.23 0.87-1.01 1.5-1.93 1.5z" fill="#1E88E5"/>
<g>
<path stroke="null" fill="#FFF" d="m21.683,11.98512c-0.52511,0 -1.00115,0.2088 -1.35063,0.54744l-2.21614,-1.58691c0.01384,-0.05795 0.02194,-0.11812 0.02194,-0.18034c0,-0.42893 -0.34771,-0.77669 -0.77669,-0.77669c-0.42893,0 -0.77669,0.34777 -0.77669,0.77669c0,0.42898 0.34777,0.77669 0.77669,0.77669c0.1502,0 0.28996,-0.04338 0.40881,-0.11718l2.71284,1.97422c0.2115,-0.44115 0.67797,-0.78464 1.19988,-0.78464c0.72483,0 1.31246,0.58758 1.31246,1.3124c0,0.57923 -0.37524,1.07083 -0.89589,1.24493l0.17808,0.60402c0.7815,-0.25115 1.34705,-0.98397 1.34705,-1.84895c0,-1.07235 -0.86929,-1.94169 -1.94169,-1.94169"/>
<path stroke="null" fill="#FFF" d="m15.45758,10.09895c-0.15855,0.49915 -0.10383,1.01479 0.11252,1.44931l-2.17777,1.62749c-0.05094,-0.03062 -0.1057,-0.05648 -0.16483,-0.07527c-0.40778,-0.12955 -0.84338,0.09603 -0.97288,0.50381c-0.12955,0.40778 0.09603,0.84338 0.50376,0.97288c0.40778,0.12955 0.84338,-0.09598 0.97293,-0.50376c0.04534,-0.1428 0.04633,-0.28874 0.01202,-0.42397l2.69606,-1.98281c-0.35552,-0.33427 -0.5412,-0.88146 -0.38364,-1.37762c0.21891,-0.68906 0.95497,-1.07024 1.64402,-0.85133c0.55063,0.17489 0.90462,0.68007 0.91297,1.22761l0.62796,0.0131c-0.00275,-0.81875 -0.52864,-1.57773 -1.35093,-1.83893c-1.0194,-0.32382 -2.10838,0.24005 -2.4322,1.2595"/>
<path stroke="null" fill="#FFF" d="m11.86064,15.34751c0.4225,0.30832 0.92714,0.42118 1.40559,0.35616l0.85913,2.56759c-0.04485,0.03813 -0.08636,0.08141 -0.12263,0.13102c-0.24977,0.34232 -0.17244,0.824 0.17273,1.07583c0.34517,0.25188 0.82743,0.17852 1.07721,-0.1638c0.24982,-0.34232 0.17248,-0.82395 -0.17268,-1.07583c-0.12086,-0.08818 -0.25856,-0.13563 -0.39713,-0.14648l-1.03339,-3.16837c-0.42707,0.22789 -1.00242,0.22813 -1.42242,-0.07832c-0.58321,-0.42559 -0.71388,-1.23949 -0.29182,-1.81793c0.33732,-0.46225 0.92547,-0.63424 1.44578,-0.46755l0.20846,-0.58655c-0.77507,-0.25846 -1.65693,-0.00564 -2.16059,0.68459c-0.62443,0.8558 -0.43114,2.06 0.43177,2.68963"/>
<path stroke="null" fill="#FFF" d="m21.80168,18.36497c-0.15997,-0.49512 -0.50293,-0.88014 -0.93034,-1.10601l0.8291,-2.57574c0.05913,-0.00471 0.11865,-0.01551 0.17759,-0.03455c0.4066,-0.13136 0.63027,-0.56578 0.49964,-0.97023c-0.13068,-0.40454 -0.56623,-0.62595 -0.97283,-0.49459c-0.4066,0.13131 -0.63032,0.56574 -0.49964,0.97023c0.04579,0.14162 0.12945,0.26012 0.23559,0.34958l-1.04491,3.16282c0.48262,0.06433 0.95031,0.399 1.1093,0.89118c0.22082,0.68351 -0.15717,1.41756 -0.84421,1.63951c-0.54905,0.17739 -1.12937,-0.02591 -1.45299,-0.46357l-0.51833,0.35292c0.47614,0.66 1.34313,0.96896 2.163,0.70407c1.01651,-0.32838 1.57572,-1.41437 1.24905,-2.42563"/>
<path stroke="null" fill="#FFF" d="m15.78675,20.44268c0.42122,-0.30821 0.68061,-0.75511 0.76222,-1.23193l2.70931,-0.02763c0.02297,0.05457 0.05177,0.10761 0.08828,0.15751c0.25179,0.34414 0.73484,0.41897 1.07897,0.16723c0.34414,-0.25179 0.41897,-0.73484 0.16723,-1.07897c-0.25179,-0.34414 -0.73484,-0.41901 -1.07897,-0.16723c-0.12047,0.08818 -0.20718,0.20492 -0.25919,0.33393l-3.33516,0.00849c0.08926,0.47805 -0.08332,1.0274 -0.50205,1.33375c-0.58149,0.42545 -1.39779,0.29894 -1.82323,-0.28255c-0.33996,-0.46471 -0.32745,-1.07932 -0.01202,-1.52459l-0.49739,-0.38005c-0.47952,0.66015 -0.50307,1.58004 0.00456,2.27395c0.62943,0.86036 1.83712,1.04752 2.69743,0.41808"/>
</g>
</svg>
