<svg clip-rule="evenodd" fill-rule="evenodd" stroke-linejoin="round" stroke-miterlimit="1.4142" version="1.1" viewBox="0 0 24 24" xml:space="preserve" xmlns="http://www.w3.org/2000/svg"><g transform="translate(2, 4)"><path d="M8,0 L2,0 C0.89,0 0,0.89 0,2 L0,14 C0,15.097 0.903,16 2,16 L18,16 C19.097,16 20,15.097 20,14 L20,4 C20,2.89 19.1,2 18,2 L10,2 L8,0 Z" fill="#FF80AB" fill-rule="nonzero"/><g transform="translate(10.500000, 4.130000)"><path d="M10.7761597,0.0135989 L9.8423597,0.0824489 L9.8423597,1.9096989 L9.0117097,1.5537439 L8.1810597,1.9096989 L8.1810597,0.2048989 L1.7440597,0.6795089 L2.2971097,12.3805089 L10.7766097,12.7863689 L10.7761597,0.0135989 Z M6.4155097,2.4196489 L6.4155097,2.4197489 C7.9986597,2.4197489 8.9081597,3.2841989 8.8632597,5.0357489 L7.0556597,5.0807684 C7.0893432,4.1376184 6.6849897,4.0477684 6.4604597,4.0477684 C6.2471297,4.0477684 5.8879097,4.1151734 5.8879097,4.6204184 C5.8879097,5.8667184 8.9643597,5.7993184 8.9643597,8.3143684 C8.9643597,9.7290684 7.8639597,10.3801684 6.4604597,10.3801684 C5.0120597,10.3801684 3.7433097,9.8861334 3.8892597,7.7191184 L5.7868097,7.7191184 C5.7643537,8.5949184 5.9552997,8.9094684 6.4380597,8.9094684 C6.8085797,8.9094684 6.9769097,8.6960984 6.9769097,8.3368184 C6.9769097,7.0568184 3.9454597,7.0117684 3.9454597,4.6651184 C3.9454597,3.3177684 4.8323597,2.4196184 6.4154597,2.4196184 L6.4155097,2.4196489 Z" fill="#EC407A"/><polygon fill="#BA68C8" points="1.0131597 0.6795389 0.0234097 0.6795389 0.4381547 12.3805389 1.5661547 12.3805389"/></g></g></svg>