<svg xmlns="http://www.w3.org/2000/svg" xmlns:xlink="http://www.w3.org/1999/xlink" viewBox="0 0 32 32"><defs><linearGradient id="a" x1="30.58" x2="17.816" y1="13.808" y2="26.573" gradientUnits="userSpaceOnUse"><stop offset=".15" stop-color="#2196f3"/><stop offset=".85" stop-color="#f50057"/></linearGradient></defs><path fill="#546e7a" d="M28.967 12H9.442a2 2 0 0 0-1.898 1.368L4 24V10h24a2 2 0 0 0-2-2H15.124a2 2 0 0 1-1.28-.464l-1.288-1.072A2 2 0 0 0 11.276 6H4a2 2 0 0 0-2 2v16a2 2 0 0 0 2 2h22l4.805-11.212A2 2 0 0 0 28.967 12"/><path fill="#cfd8dc" d="M23 16a3 3 0 1 1-3 3 3 3 0 0 1 3-3m0-2a5 5 0 1 0 5 5 5 5 0 0 0-5-5"/><path fill="url(#a)" d="M16 20a7.1 7.1 0 0 0 1.5 3.41l-1.421 1.426A9.05 9.05 0 0 1 14 20Zm15.944-2.003A9.015 9.015 0 0 0 24 10v2a7.085 7.085 0 0 1 0 14v2a9.03 9.03 0 0 0 7.944-10.003m-14.414 8.23A9.07 9.07 0 0 0 22 28v-2a7.1 7.1 0 0 1-3.03-1.218Z"/></svg>