<svg clip-rule="evenodd" fill-rule="evenodd" stroke-linejoin="round" stroke-miterlimit="1.4142" version="1.1" viewBox="0 0 24 24" xml:space="preserve" xmlns="http://www.w3.org/2000/svg"><g transform="matrix(3.7795 0 0 3.7795 -609.03 -340.48)"><path d="m165.71 95.158h-3.7478c-0.27733 0-0.4997-0.23846-0.4997-0.52992v-3.1795c0-0.29411 0.22237-0.52992 0.4997-0.52992h1.4991l0.4997 0.52992h1.749c0.27408 0 0.4997 0.23926 0.4997 0.52992h-4.2475v2.6496l0.53468-2.1197h4.265l-0.56966 2.2522c-0.0575 0.23052-0.25235 0.39744-0.48221 0.39744z" clip-rule="evenodd" fill="#f30c39" stroke-linejoin="round" stroke-miterlimit="1.4142" stroke-width=".043093"/><g fill="#fa90a4"><path d="m165.66 92.556c-0.83327 0-1.5082 0.33745-1.5082 0.75409 0 0.41664 0.67491 0.7541 1.5082 0.7541 0.83326 0 1.5082-0.33746 1.5082-0.7541 0-0.41664-0.67492-0.75409-1.5082-0.75409m-1.5082 1.2173v0.30701c0 0.41664 0.67491 0.75409 1.5082 0.75409 0.83326 0 1.5082-0.33745 1.5082-0.75409v-0.56557c0 0.41664-0.67492 0.75409-1.5082 0.75409-0.83327 0-1.5082-0.33745-1.5082-0.75409m0 0.77024v0.56557c0 0.41664 0.67491 0.75409 1.5082 0.75409 0.83326 0 1.5082-0.33745 1.5082-0.75409v-0.56557c0 0.41664-0.67492 0.75409-1.5082 0.75409-0.83327 0-1.5082-0.33745-1.5082-0.75409z" stroke-width=".043093"/><path d="m165.32 92.346h-0.44933l0.78632-0.89737 0.78632 0.89737h-0.44934v0.9647h-0.67398z" clip-rule="evenodd" fill-rule="evenodd"/><path d="m166.05 92.508v0.80232h-0.78662l1e-5 -0.80232" clip-rule="evenodd" fill-rule="evenodd" stroke="#f30c39" stroke-linejoin="round" stroke-miterlimit="1.4142" stroke-width=".11303"/></g></g></svg>
