<svg id="uuid-e40e3fdd-6ad0-445b-a39b-f01a072195f2" xmlns="http://www.w3.org/2000/svg" viewBox="0 0 24 24"><path d="m19,20H4c-1.1,0-2-.9-2-2V6c0-1.11.89-2,2-2h6l2,2h7c1.1,0,2,.9,2,2H4v10l2.14-8h17.07l-2.28,8.5c-.23.87-1.01,1.5-1.93,1.5Z" style="fill:#607d8b;"/><path d="m23.09,9.41c.26.15.33.42.44.66.12.26.19.54.23.82.05.38.06.77-.05,1.15-.12.46-.35.85-.68,1.19-.03.03-.06.02-.06-.02-.02-.27-.1-.52-.15-.78-.04-.16-.11-.32-.18-.47-.15-.31-.32-.61-.55-.87-.2-.23-.41-.46-.68-.61-.01,0-.02-.02-.04-.04.23-.11.45-.23.66-.36.26-.16.52-.34.74-.56.05-.05.11-.07.16-.1h.18Z" style="fill:#cfd8dc;"/><path d="m15.19,10.94c-.22.25-.41.53-.58.82-.07.02-.07.07-.06.13-.17.38-.29.77-.34,1.19,0,.06-.03.1-.05.11-.07.05-.09-.03-.12-.06-.17-.2-.33-.41-.43-.66.03-.05.04-.09-.04-.09-.15-.36-.22-.73-.19-1.11,0-.07-.03-.15.01-.22.02,0,.04,0,.04-.03,0-.02-.02-.03-.04-.03-.01-.11.04-.21.04-.31.02,0,.05,0,.06-.03,0-.03-.01-.04-.04-.04.09-.37.22-.71.42-1.04.05-.08.13-.12.2-.16h.04s0,.06.04.06c.04,0,.05-.03.05-.06h.04c.27.2.51.44.8.62.22.13.44.26.67.38.02.01.04.02.06.04-.15.09-.28.22-.42.32-.11,0-.17.06-.18.18Z" style="fill:#cfd8dc;"/><path d="m14.21,9.41s-.01.06-.05.06c-.03,0-.04-.03-.04-.06h.09Z" style="fill:#cfd8dc;"/><path d="m15.12,12.27c.09-.23.22-.44.37-.64.16-.22.36-.42.59-.58,0,0,.02-.01.02-.02.21-.14.41-.28.65-.36.04-.01.03-.06.06-.07,0,.02.02.04.03.03,0,0,0-.03.01-.05.16.01.29-.07.44-.1.17-.04.34-.07.5-.1.28-.05.55-.07.83-.07.15,0,.32,0,.46.01.22.02.44.06.65.12.23.07.47.13.7.24.32.16.62.34.89.58.41.38.68.83.83,1.36.08.29.13.58.17.87.04.28.09.56.13.84.02.15.03.3.05.44.02.24.04.47.07.71,0,.02,0,.04,0,.06,0,.34.03.67.05,1.01.02.26.05.53.11.79.06.28.09.57.06.86-.04.36-.18.67-.42.93-.27.3-.6.5-.97.65-.38.15-.74.35-1.09.57-.25.16-.54.25-.83.32-.4.1-.8.09-1.21.08-.39,0-.77-.09-1.13-.24-.31-.13-.57-.32-.86-.48-.16-.09-.33-.14-.49-.21-.53-.22-1-.52-1.28-1.03-.18-.32-.22-.68-.17-1.05.03-.26.09-.52.12-.78.03-.3.05-.6.07-.9.01-.27.01-.53.04-.8.03-.32.06-.63.1-.95.01-.1.06-.21.01-.32,0,0,.01-.01.02-.02.06-.1.04-.22.07-.33.08-.42.12-.84.27-1.24.01-.04.03-.08.05-.12,0,0,.01-.02.02-.02Zm4.38,6.5s.01-.01.02-.02c.05-.03.09-.04.15-.05.14-.01.33-.18.34-.29.02-.17-.18-.38-.36-.38-.43.01-.78.29-.85.75-.01.08-.02.16.01.24.05.13.19.24.35.21.15-.02.28-.16.3-.32,0-.06.02-.11.05-.15Zm-.89-1.22c.37-.01.75-.12,1.08-.35.2-.14.38-.28.45-.53,0-.03.04-.04.04-.09-.03-.21-.07-.42-.15-.62-.15-.42-.27-.85-.41-1.28-.14-.45-.29-.9-.43-1.35-.1-.3-.21-.61-.3-.91-.04-.13-.11-.21-.22-.24-.11-.03-.23-.01-.33.08-.1.1-.12.23-.16.35-.13.37-.24.74-.36,1.12-.12.37-.24.74-.35,1.11-.15.45-.29.91-.44,1.36-.1.32-.06.62.2.85.38.33.83.5,1.37.5Zm-.25,1.3c.01-.16-.05-.3-.13-.42-.16-.25-.4-.37-.69-.39-.19-.02-.36.13-.38.32-.01.15.14.32.32.35.16.02.19.06.21.2.03.2.16.32.33.33.21.01.34-.13.34-.38Zm2.45-3.17c.17,0,.37-.18.37-.32,0-.17-.17-.35-.35-.34-.19,0-.34.12-.34.33,0,.17.16.34.32.34Zm-4.16-.34c.02-.22-.18-.32-.34-.33-.16,0-.33.16-.33.32,0,.16.17.35.31.35.2,0,.35-.15.35-.34Z" style="fill:#cfd8dc;"/><path d="m15.19,10.94c0-.11.06-.17.18-.18-.05.07-.11.13-.18.18Z" style="fill:#cfd8dc;"/><path d="m14.56,11.89c-.02-.06-.01-.11.06-.13,0,.05-.04.09-.06.13Z" style="fill:#cfd8dc;"/><path d="m13.57,12.38c.08,0,.07.04.04.09-.03-.02-.04-.06-.04-.09Z" style="fill:#cfd8dc;"/><path d="m13.46,10.61s.04.01.04.04c0,.03-.04.03-.06.03,0-.02.01-.04.02-.07Z" style="fill:#cfd8dc;"/><path d="m13.4,10.99s.04,0,.04.03c0,.03-.02.03-.04.03,0-.02,0-.04,0-.07Z" style="fill:#cfd8dc;"/><path d="m16.85,10.59s0,.04-.01.05c-.02,0-.03-.01-.03-.03,0-.03.03-.02.04-.02Z" style="fill:#cfd8dc;"/><path d="m16.1,11.03s-.02.01-.02.02c0-.01,0-.02.02-.02Z" style="fill:#cfd8dc;"/><path d="m15.12,12.27s-.01.02-.02.02c0-.02,0-.02.02-.02Z" style="fill:#cfd8dc;"/><path d="m14.72,13.99s-.01.01-.02.02c0-.01,0-.02.02-.02Z" style="fill:#cfd8dc;"/><path d="m19.5,18.77s0-.02.02-.02c0,0-.01.01-.02.02Z" style="fill:#cfd8dc;"/><path d="m18.5,16.89c-.26,0-.53-.13-.79-.3-.06-.04-.07-.09-.05-.17.18-.54.34-1.08.51-1.62.11-.34.22-.68.33-1.03.01-.03,0-.1.06-.1.05,0,.04.06.05.09.25.75.49,1.51.73,2.27.04.13.08.26.12.39.03.07,0,.12-.05.16-.25.18-.55.3-.93.31Z" style="fill:#cfd8dc;"/></svg>