<svg viewBox="0 0 24 24" fill="none" xmlns="http://www.w3.org/2000/svg">
  <path d="M10 4H4c-1.11 0-2 .89-2 2v12c0 1.097.903 2 2 2h16c1.097 0 2-.903 2-2V8a2 2 0 00-2-2h-8l-2-2z" fill="#00BFA5"/>
  <path d="M16.719 8A6.715 6.715 0 0010 14.72a6.715 6.715 0 006.72 6.72 6.716 6.716 0 006.72-6.72c0-3.714-3.03-6.72-6.721-6.72zm-3.152 8.162c.22.293.513.415.928.415.196 0 .392-.025.563-.098.17-.072.366-.171.61-.318l.684.977a2.915 2.915 0 01-1.93.685c-.587 0-1.075-.123-1.515-.367a2.46 2.46 0 01-.977-1.074c-.22-.465-.342-1.002-.342-1.638 0-.61.122-1.172.341-1.637.21-.462.55-.853.98-1.123.414-.27.927-.392 1.49-.392.391 0 .757.049 1.05.171.33.128.635.31.904.538l-.684.928a2.679 2.679 0 00-.562-.318 1.571 1.571 0 00-.586-.098c-.831 0-1.246.636-1.246 1.93-.024.661.098 1.125.293 1.418l-.001.001zm6.72 1.515c-.244.758-.61 1.32-1.124 1.735-.513.416-1.198.636-2.053.709l-.17-1.148c.561-.074.977-.196 1.246-.392.097-.072.293-.293.293-.293l-2.028-6.5h1.685l1.173 4.863 1.247-4.863h1.637l-1.906 5.889z" fill="#B2DFDB"/>
</svg>