<svg viewBox="0 0 24 24" fill="none" xmlns="http://www.w3.org/2000/svg">
<path d="M19 20H4C3.46957 20 2.96086 19.7893 2.58579 19.4142C2.21071 19.0391 2 18.5304 2 18V6C2 4.89 2.89 4 4 4H10L12 6H19C20.097 6 21 6.903 21 8H4V18L6.14 10H23.21L20.93 18.5C20.7 19.37 19.92 20 19 20Z" fill="#FFB74D"/>
<path d="M12.2916 14.376C12.2253 14.3377 12.167 14.2857 12.1202 14.2232C12.0735 14.1607 12.0392 14.089 12.0195 14.0122C11.9997 13.9355 11.9949 13.8553 12.0054 13.7766C12.0158 13.6979 12.0413 13.6222 12.0802 13.554L12.9371 12C13 11.88 13.0971 11.796 13.2056 11.748L17.6786 9.108C17.77 9.036 17.8843 9 18.0042 9C18.1242 9 18.2385 9.036 18.3299 9.108L22.8429 11.772C22.9514 11.832 23.0428 11.928 23.0942 12.048L23.9226 13.56C24.0825 13.848 23.9854 14.214 23.7169 14.376L23.1456 14.724V17.7C23.1456 17.928 23.0257 18.126 22.8429 18.228L18.3299 20.892C18.2385 20.964 18.1242 21 18.0042 21C17.8843 21 17.77 20.964 17.6786 20.892L13.1656 18.228C13.074 18.1775 12.9974 18.1015 12.944 18.0084C12.8906 17.9153 12.8626 17.8087 12.8629 17.7V14.376C12.6915 14.478 12.4744 14.484 12.2916 14.376ZM18.0042 10.29V14.31L21.409 12.3L18.0042 10.29ZM14.0054 17.346L17.433 19.374V15.348L14.0054 13.326V17.346ZM22.0031 17.346V15.414L19.1468 17.154C18.9583 17.262 18.7469 17.256 18.5755 17.16V19.374L22.0031 17.346ZM19.0611 15.816L22.6486 13.638L22.3173 13.032L18.7297 15.21L19.0611 15.816Z" fill="#FFE0B2"/>
</svg>
