<svg xmlns="http://www.w3.org/2000/svg" viewBox="0 0 16 16">
<path id="folder" fill="#ffc107" d="M14.483 6H4.721a1 1 0 0 0-.949.684L2 12V5h12a1 1 0 0 0-1-1H7.562a1 1 0 0 1-.64-.232l-.644-.536A1 1 0 0 0 5.638 3H2a1 1 0 0 0-1 1v8a1 1 0 0 0 1 1h11l2.403-5.606A1 1 0 0 0 14.483 6" />
<path id="motive" fill="#fff9c4" d="m 11.500368,12.075035 a 1.5975558,1.5975 0 0 1 -1.6195572,-1.575 1.6200566,1.62 0 1 1 1.6195572,1.575 m 3.437619,-1.1385 a 3.5001224,3.5 0 0 0 0.032,-0.437 4.0001398,3.9999999 0 0 0 -0.032,-0.45 l 0.975534,-0.7335003 a 0.2230078,0.223 0 0 0 0.0565,-0.288 l -0.926532,-1.556 a 0.23000804,0.23 0 0 0 -0.28201,-0.0995 l -1.15104,0.45 a 3.4001189,3.4 0 0 0 -0.782528,-0.441 l -0.171006,-1.1925 a 0.23200811,0.232 0 0 0 -0.232008,-0.189 h -1.850064 a 0.23200811,0.232 0 0 0 -0.231508,0.189 l -0.170506,1.1925 a 3.4001189,3.4 0 0 0 -0.7815272,0.4405 l -1.152041,-0.4495 a 0.23000804,0.23 0 0 0 -0.28201,0.099 l -0.925532,1.5565 a 0.21800762,0.218 0 0 0 0.056,0.288 l 0.975034,0.7340003 a 4.0001398,3.9999999 0 0 0 -0.032,0.45 3.5001224,3.5 0 0 0 0.032,0.4365 l -0.975034,0.7465 a 0.21800762,0.218 0 0 0 -0.056,0.288 l 0.925032,1.5575 a 0.23500822,0.235 0 0 0 0.28251,0.099 l 1.152041,-0.455 a 3.2001119,3.2 0 0 0 0.7815272,0.446 l 0.171006,1.1925 a 0.23200811,0.232 0 0 0 0.231508,0.189 h 1.850064 a 0.23200811,0.232 0 0 0 0.232008,-0.189 l 0.170006,-1.1925 a 3.4001189,3.4 0 0 0 0.783028,-0.4455 l 1.15104,0.4545 a 0.2375083,0.2375 0 0 0 0.28301,-0.099 l 0.925032,-1.5575 a 0.2230078,0.223 0 0 0 -0.056,-0.288 z" />
</svg>
