<svg xmlns="http://www.w3.org/2000/svg" viewBox="0 0 16 16">
<path id="folder" fill="#ffa000" d="M14.483 6H4.721a1 1 0 0 0-.949.684L2 12V5h12a1 1 0 0 0-1-1H7.562a1 1 0 0 1-.64-.232l-.644-.536A1 1 0 0 0 5.638 3H2a1 1 0 0 0-1 1v8a1 1 0 0 0 1 1h11l2.403-5.606A1 1 0 0 0 14.483 6" />
<path id="motive" fill="#ffecb3" d="M 15,7 H 13 V 6 L 12,5 H 10 L 9,6 V 7 H 7 A 1,1 0 0 0 6,8 v 5 a 1,1 0 0 0 1,1 h 8 a 1,1 0 0 0 1,-1 V 8 A 1,1 0 0 0 15,7 M 10,6 h 2 v 1 h -2 z m 3,5 -3.5115,2 -0.507,-0.8625 2.779,-1.635 L 8.9815,8.868 9.4885,8.006 13,10 Z" />
</svg>
