<svg viewBox="0 0 32 32" xmlns="http://www.w3.org/2000/svg"><path fill="#0288d1" d="M28.967 12H9.442a2 2 0 00-1.898 1.368L4 24V10h24a2 2 0 00-2-2H15.124a2 2 0 01-1.28-.464l-1.288-1.072A2 2 0 0011.276 6H4a2 2 0 00-2 2v16a2 2 0 002 2h22l4.805-11.212A2 2 0 0028.967 12"/><path fill="#b3e5fc" d="M28 22v-4h-2v4h-6v-4h-2v4h-4v2h4v4h2v-4h6v4h2v-4h4v-2zM11.781 26.5A2.785 2.785 0 019 23.718v-1.436a2.785 2.785 0 012.781-2.782H14v-3h-2.219A5.782 5.782 0 006 22.282v1.436a5.782 5.782 0 005.781 5.782H14v-3z"/></svg>