<svg xmlns="http://www.w3.org/2000/svg" viewBox="0 0 24 24"><path fill="#546e7a" d="M10 4H4a2 2 0 0 0-2 2v12c0 1.1.9 2 2 2h16a2 2 0 0 0 2-2V8a2 2 0 0 0-2-2h-8l-2-2z"/><path fill="#cfd8dc" d="M16.8 11.2c-2.3-.1-4.1 1.7-4.2 3.9s1.7 4.1 3.9 4.2h.3c2.3-.1 4-2 3.9-4.2 0-2.1-1.7-3.9-3.9-3.9zm0 6.2c-1.2 0-2.1-.9-2.1-2.1s.9-2.1 2.1-2.1 2.1.9 2.1 2.1c.1 1.1-.9 2.1-2.1 2.1z"/><linearGradient id="a" x1="20.56" x2="14.38" y1="1221.02" y2="1227.19" gradientTransform="translate(0 -1208)" gradientUnits="userSpaceOnUse"><stop offset="0" stop-color="#2196f3"/><stop offset="1" stop-color="#f50057"/></linearGradient><path fill="url(#a)" fill-rule="evenodd" d="M17.2 10.5V9a6.26 6.26 0 0 1 0 12.5V20c2.6-.2 4.6-2.6 4.3-5.2-.2-2.3-2-4.1-4.3-4.3zm-4 7.9c-.7-.8-1.1-1.7-1.2-2.8h-1.5c.1 1.5.7 2.8 1.6 3.9l1.1-1.1zm3.3 3.1V20c-1-.1-2-.5-2.8-1.2l-1.1 1.1c1.1.9 2.4 1.5 3.9 1.6z"/></svg>