<svg xmlns="http://www.w3.org/2000/svg" viewBox="0 0 16 16">
<path id="folder" fill="#1e88e5" d="m6.922 3.768-.644-.536A1 1 0 0 0 5.638 3H2a1 1 0 0 0-1 1v8a1 1 0 0 0 1 1h12a1 1 0 0 0 1-1V5a1 1 0 0 0-1-1H7.562a1 1 0 0 1-.64-.232" />
<path id="motive" fill="#bbdefb" d="m 10.5,10 h -3 A 0.5,0.5 0 0 1 7,9.5 v -3 A 0.5,0.5 0 0 1 7.5,6 h 3 A 0.5,0.5 0 0 1 11,6.5 v 3 A 0.5,0.5 0 0 1 10.5,10 M 14,6 a 2,2 0 1 0 2,2 2,2 0 0 0 -2,-2 m 0.3535,8.8535 1.5,-1.5 a 0.5,0.5 0 0 0 0,-0.707 l -1.5,-1.5 a 0.5,0.5 0 0 0 -0.707,0 l -1.5,1.5 a 0.5,0.5 0 0 0 0,0.707 l 1.5,1.5 a 0.5,0.5 0 0 0 0.707,0 M 8.563,11.257 l -1.4995,3 A 0.5,0.5 0 0 0 7.5005,15 H 10.5 a 0.5,0.5 0 0 0 0.437,-0.743 l -1.4995,-3 a 0.5,0.5 0 0 0 -0.874,0" />
</svg>
