<svg clip-rule="evenodd" fill-rule="evenodd" stroke-linejoin="round" stroke-miterlimit="1.4142" version="1.1" viewBox="0 0 24 24" xml:space="preserve" xmlns="http://www.w3.org/2000/svg"><path d="m10 4h-6c-1.11 0-2 0.89-2 2v12c0 1.097 0.903 2 2 2h16c1.097 0 2-0.903 2-2v-10c0-1.11-0.9-2-2-2h-8l-2-2z" fill="#ff5722" fill-rule="nonzero"/><style type="text/css">
	.st0{fill:#FF5722;}
	.st1{fill:#FF1744;}
</style><path d="m12.352 8.9961c-0.82516 0-1.4961 0.66897-1.4961 1.4941 0 0.82517 0.67093 1.4961 1.4961 1.4961h5.9102c0.82517 0 1.4941-0.67093 1.4941-1.4961 0-0.82517-0.66897-1.4941-1.4941-1.4941h-5.9102zm9.7676 0a1.5266 1.4956 0 0 0-1.5273 1.4941 1.5266 1.4956 0 0 0 1.5273 1.4961 1.5266 1.4956 0 0 0 1.5254-1.4961 1.5266 1.4956 0 0 0-1.5254-1.4941zm-9.7383 4.4336c-0.8458 0-1.5254 0.68155-1.5254 1.5273 0 0.83548 0.67959 1.517 1.5254 1.5273 0.8458 0 1.5273-0.68155 1.5273-1.5273 0-0.8458-0.68155-1.5273-1.5273-1.5273zm3.6934 0.03125c-0.82517 0.061886-1.4545 0.77444-1.3926 1.5996 0.061888 0.82517 0.77444 1.4545 1.5996 1.3926h5.8984 0.14453c0.82517-0.061888 1.4545-0.77444 1.3926-1.5996-0.061888-0.82517-0.77249-1.4545-1.5977-1.3926h-5.8379-0.0625-0.14453zm-3.7227 4.3027c-0.82516 0-1.4961 0.66898-1.4961 1.4941 0 0.82517 0.67093 1.4961 1.4961 1.4961h5.9102c0.82517 0 1.4941-0.67093 1.4941-1.4961 0-0.82516-0.66897-1.4941-1.4941-1.4941h-5.9102zm9.7676 0a1.5266 1.4956 0 0 0-1.5273 1.4941 1.5266 1.4956 0 0 0 1.5273 1.4961 1.5266 1.4956 0 0 0 1.5254-1.4961 1.5266 1.4956 0 0 0-1.5254-1.4941z" fill="#ffccbc" stroke-width=".10315"/></svg>
