<svg xmlns="http://www.w3.org/2000/svg" viewBox="0 0 32 32">
  <path fill="rgb(255,145,0)"
    d="M28.967 12H9.442a2 2 0 0 0-1.898 1.368L4 24V10h24a2 2 0 0 0-2-2H15.124a2 2 0 0 1-1.28-.464l-1.288-1.072A2 2 0 0 0 11.276 6H4a2 2 0 0 0-2 2v16a2 2 0 0 0 2 2h22l4.805-11.212A2 2 0 0 0 28.967 12" />
  <g transform="matrix(0.0361695,0,0,0.0359964,13.274,7.24917)">
    <path
      d="M213.918,560.499C237.166,569.856 262.387,575.408 288.87,576.333C324.71,577.585 358.792,570.175 389.261,556.099C352.724,541.744 319.634,520.751 291.392,494.651C273.086,523.961 246.01,547.113 213.918,560.499Z"
      style="fill:rgb(255,145,0);fill-rule:nonzero;" />
    <path
      d="M291.389,494.66C226.923,435.038 187.815,348.743 191.12,254.092C191.228,251.019 191.39,247.947 191.58,244.876C180.034,241.89 167.98,240.068 155.576,239.635C137.821,239.015 120.626,241.217 104.393,245.788C87.184,275.933 76.799,310.521 75.505,347.569C72.166,443.18 130.027,526.723 213.914,560.508C246.007,547.121 273.082,523.998 291.389,494.66Z"
      style="fill:rgb(255,196,0);fill-rule:nonzero;" />
    <path
      d="M291.39,494.657C306.378,470.671 315.465,442.551 316.523,412.254C319.306,332.559 265.731,264.003 191.581,244.873C191.391,247.944 191.229,251.016 191.121,254.089C187.816,348.74 226.924,435.035 291.39,494.657Z"
      style="fill:rgb(255,145,0);fill-rule:nonzero;" />
    <path
      d="M308.231,20.858C266,54.691 232.652,99.302 212.475,150.693C200.924,180.129 193.665,211.748 191.546,244.893C265.696,264.023 319.272,332.579 316.489,412.273C315.431,442.57 306.317,470.663 291.355,494.677C319.595,520.804 352.686,541.77 389.223,556.124C462.56,522.224 514.593,449.278 517.606,362.997C519.558,307.096 498.08,257.273 467.731,215.219C435.68,170.742 308.231,20.858 308.231,20.858Z"
      style="fill:rgb(221,44,0);fill-rule:nonzero;" />
  </g>
</svg>