<svg xmlns="http://www.w3.org/2000/svg" viewBox="0 0 16 16"><path id="folder" fill="#ec407a" d="m6.922 3.768-.644-.536A1 1 0 0 0 5.638 3H2a1 1 0 0 0-1 1v8a1 1 0 0 0 1 1h12a1 1 0 0 0 1-1V5a1 1 0 0 0-1-1H7.562a1 1 0 0 1-.64-.232"/><path id="motive" fill="#f8bbd0" d="M12.5 7a3.5 3.5 0 0 0-1 .145 3.5 3.5 0 0 0-2 0A3.5 3.5 0 0 0 8.5 7a3.5 3.5 0 0 0 0 7 3.5 3.5 0 0 0 1-.145 3.5 3.5 0 0 0 2 0 3.5 3.5 0 0 0 1 .145 3.5 3.5 0 0 0 0-7M6 10.5a2.5 2.5 0 0 1 2.005-2.45 3.49 3.49 0 0 0 0 4.9 2.5 2.5 0 0 1-2.006-2.45m4.006 2.45a2.5 2.5 0 0 1 0-4.9 3.49 3.49 0 0 0 0 4.9M11.5 8.205a2.506 2.506 0 0 1 0 4.59 2.506 2.506 0 0 1 0-4.59m1.495 4.745a3.49 3.49 0 0 0 0-4.9 2.5 2.5 0 0 1 0 4.9"/></svg>