<svg xmlns="http://www.w3.org/2000/svg" xml:space="preserve" viewBox="0 0 16 16"><path fill="#f44336" d="m6.922 3.768-.644-.536A1 1 0 0 0 5.638 3H2a1 1 0 0 0-1 1v8a1 1 0 0 0 1 1h12a1 1 0 0 0 1-1V5a1 1 0 0 0-1-1H7.562a1 1 0 0 1-.64-.232"/><g fill="#ffccbc"><path d="M13.434 9C12.087 9 11 9.48 11 10.096s1.09 1.115 2.438 1.115c1.346 0 2.556-.499 2.556-1.115S14.8 9 13.454 9M11 10.654v.836c0 .617 1.09 1.116 2.438 1.116 1.346 0 2.56-.514 2.56-1.13v-.813c0 .616-1.214 1.106-2.56 1.106S11 11.269 11 10.654m0 1.394v.837C11 13.5 12.09 14 13.438 14c1.346 0 2.565-.507 2.562-1.123l-.004-.84c0 .616-1.212 1.126-2.558 1.126-1.347 0-2.438-.499-2.438-1.115"/><path d="M11.8 5 7.6 8l2.77 1.937c.04-.28.177-.53.35-.714q.028-.03.058-.059L9.122 8l2.677-1.88L14.48 8l-.53.373c.43.033.834.11 1.2.227l.852-.6zM8.355 9.604l-.756.53 2.756 1.936v-1.06z"/></g></svg>