<svg xmlns="http://www.w3.org/2000/svg" viewBox="0 0 16 16"><path id="folder" fill="#1e88e5" d="m6.922 3.768-.644-.536A1 1 0 0 0 5.638 3H2a1 1 0 0 0-1 1v8a1 1 0 0 0 1 1h12a1 1 0 0 0 1-1V5a1 1 0 0 0-1-1H7.562a1 1 0 0 1-.64-.232"/><path id="motive" fill="#bbdefb" d="M10.999 5C8 5 6 7 6 10a5 5 0 0 0 5 5c.46 0 1 0 1-1 0-.218-.284-.392-.482-.59A1.19 1.19 0 0 1 11 12.5c0-.5.5-.5 1-.5h2c2 0 2-2 2-3 0-2-2-4-5.001-4M8 10a1 1 0 1 1 1-1 1 1 0 0 1-1 1m3-2a1 1 0 1 1 1-1 1 1 0 0 1-1 1m3 2a1 1 0 1 1 1-1 1 1 0 0 1-1 1"/></svg>