<svg xmlns="http://www.w3.org/2000/svg" viewBox="0 0 16 16">
<path id="folder" fill="#c0ca33" d="M14.483 6H4.721a1 1 0 0 0-.949.684L2 12V5h12a1 1 0 0 0-1-1H7.562a1 1 0 0 1-.64-.232l-.644-.536A1 1 0 0 0 5.638 3H2a1 1 0 0 0-1 1v8a1 1 0 0 0 1 1h11l2.403-5.606A1 1 0 0 0 14.483 6" />
<path id="motive" fill="#f0f4c3" d="m 13.82211,12.271895 c 0.980499,-1.181998 1.095498,-2.4019948 0.337,-4.6674908 -0.480999,-1.4334968 -1.277998,-2.5369947 -0.691999,-3.4274929 0.623999,-0.9489981 1.950996,-0.029 0.844999,1.2399975 l 0.219999,0.1534997 c 1.325997,0.1554997 1.979996,-1.6749967 0.989998,-2.1969956 -2.612495,-1.3749973 -4.89849,1.2679975 -3.890992,4.3269913 0.433499,1.298498 1.038998,2.6734948 0.548499,3.7679928 a 2.4249952,2.4249952 0 0 1 -1.786997,1.509997 c -1.1429975,0.057 -0.382999,-2.584995 0.931998,-3.2434938 0.115,-0.0575 0.279,-0.135 0.125,-0.328999 A 2.8719943,2.8719943 0 0 0 8.3276215,11.032398 c -1.595497,3.069994 3.0249935,4.202491 5.4944885,1.239497" />
</svg>
