<?xml version="1.0" encoding="UTF-8"?>
<svg clip-rule="evenodd" stroke-linejoin="round" stroke-miterlimit="2" version="1.1" viewBox="0 0 24 24" xml:space="preserve" xmlns="http://www.w3.org/2000/svg"><path d="M10 4H4c-1.11 0-2 .89-2 2v12c0 1.097.903 2 2 2h16c1.097 0 2-.903 2-2V8a2 2 0 0 0-2-2h-8l-2-2Z" fill="#546e7a"/><g transform="matrix(.12842 0 0 .12842 7.9919 8.1944)" clip-rule="evenodd" fill-rule="evenodd" stroke-linejoin="round" stroke-miterlimit="2"><g transform="matrix(1.0713,0,0,1.0713,-4.4236,-4.4236)" stroke-width=".87904"><path d="m56.067 31.809c-2.8323-4.8699-9.9138-4.8699-12.746 0l-30.868 53.076c-2.8323 4.8699 0.7085 10.957 6.373 10.957h24.098c-2.4209-2.1158-3.3175-5.7753-1.4856-8.9152l23.378-40.074z" fill="#69f0ae"/><path d="m75.625 43.452c2.3444-3.9847 8.204-3.9847 10.548 0l25.546 43.425c2.3444 3.9847-0.58544 8.9653-5.2734 8.9653h-51.093c-4.6879 0-7.6177-4.9806-5.2733-8.9653z" fill="#00e676" fill-rule="nonzero"/></g></g></svg>
