<svg version="1.1" viewBox="0 0 32 32" xml:space="preserve" xmlns="http://www.w3.org/2000/svg"><path d="m13.844 7.536-1.288-1.072A2 2 0 0 0 11.276 6H4a2 2 0 0 0-2 2v16a2 2 0 0 0 2 2h24a2 2 0 0 0 2-2V10a2 2 0 0 0-2-2H15.124a2 2 0 0 1-1.28-.464" fill="#5c6bc0"/><g transform="matrix(.75 0 0 .75 9.6102 7)"><path d="m9.2195 4a0.5 0.5 0 0 0-0.43229 0.2474l-6.7083 11.5a0.5 0.5 0 0 0 0 0.50521l6.7083 11.5a0.5 0.5 0 0 0 0.43229 0.2474h13.424a0.5 0.5 0 0 0 0.43229-0.2474l6.7083-11.5a0.5 0.5 0 0 0 0-0.50521l-6.7083-11.5a0.5 0.5 0 0 0-0.43229-0.2474zm6.6797 3.0599a0.5 0.5 0 0 1 0.25521 0.052083l7.5 3.75a0.5 0.5 0 0 1 0.27604 0.44792v9.3802a0.5 0.5 0 0 1-0.27604 0.44792l-7.5 3.75a0.5 0.5 0 0 1-0.44792 0l-7.5-3.75a0.5 0.5 0 0 1-0.27604-0.44792v-9.3802a0.5 0.5 0 0 1 0.27604-0.44792l7.5-3.75a0.5 0.5 0 0 1 0.19271-0.052083zm0 2.25a0.5 0.5 0 0 0-0.19271 0.052083l-5.5 2.75a0.5 0.5 0 0 0-0.27604 0.44792v6.8802a0.5 0.5 0 0 0 0.27604 0.44792l5.5 2.75a0.5 0.5 0 0 0 0.44792 0l5.5-2.75a0.5 0.5 0 0 0 0.27604-0.44792v-6.8802a0.5 0.5 0 0 0-0.27604-0.44792l-5.5-2.75a0.5 0.5 0 0 0-0.25521-0.052083z" fill="#c5cae9"/></g></svg>
