<svg viewBox="0 0 32 32" xmlns="http://www.w3.org/2000/svg"><path fill="#0288d1" d="M28.967 12H9.442a2 2 0 00-1.898 1.368L4 24V10h24a2 2 0 00-2-2H15.124a2 2 0 01-1.28-.464l-1.288-1.072A2 2 0 0011.276 6H4a2 2 0 00-2 2v16a2 2 0 002 2h22l4.805-11.212A2 2 0 0028.967 12"/><path d="M17.337 25.231a2.57 2.57 0 01-2.568-2.568v-1.326a2.57 2.57 0 012.568-2.568h2.048V16h-2.048A5.337 5.337 0 0012 21.337v1.326A5.337 5.337 0 0017.337 28h2.048v-2.769zM24 22h2v2h-2zm4 0h2v2h-2zm2-2h2v2h-2zm-2-2h2v2h-2zm0 2h2v2h-2zm-2 0h2v2h-2zm-2 0h2v2h-2zm-2 4h2v2h-2zm2 2h2v2h-2zm2-2h2v2h-2zm2 2h2v2h-2zm2-2h2v2h-2zm-2 0h2v2h-2zm-6-4h2v2h-2zm2-2h2v2h-2zm0 6h2v2h-2z" fill="#b3e5fc"/></svg>