<?xml version="1.0" encoding="UTF-8" standalone="no"?>
<!DOCTYPE svg PUBLIC "-//W3C//DTD SVG 1.1//EN" "http://www.w3.org/Graphics/SVG/1.1/DTD/svg11.dtd">
<svg width="100%" height="100%" viewBox="0 0 32 32" version="1.1" xmlns="http://www.w3.org/2000/svg" xmlns:xlink="http://www.w3.org/1999/xlink" xml:space="preserve" xmlns:serif="http://www.serif.com/" style="fill-rule:evenodd;clip-rule:evenodd;stroke-linejoin:round;stroke-miterlimit:2;">
    <path d="M13.844,7.536L12.556,6.464C12.197,6.164 11.744,6 11.276,6L4,6C2.903,6 2,6.903 2,8L2,24C2,25.097 2.903,26 4,26L28,26C29.097,26 30,25.097 30,24L30,10C30,8.903 29.097,8 28,8L15.124,8C14.656,8 14.203,7.836 13.844,7.536" style="fill:rgb(251,192,45);fill-rule:nonzero;"/>
    <g transform="matrix(0.681818,0,0,0.681818,17,12.4839)">
        <path d="M22,12.77L21.993,12.777L21.993,17.003L17.755,21.243L15.64,19.125L19.007,15.757L19.007,7.743L19.007,6.246L15.64,2.878L17.758,0.758L22,5L22,12.77ZM0.008,9.222L0.008,4.997L4.245,0.757L6.36,2.875L2.993,6.244L2.993,14.257L2.993,15.754L6.36,19.122L4.242,21.242L0,17L0,9.23L0.008,9.222ZM6.501,9.494C7.331,9.494 8.005,10.168 8.005,10.998C8.005,11.828 7.331,12.502 6.501,12.502C5.671,12.502 4.997,11.828 4.997,10.998C4.997,10.168 5.671,9.494 6.501,9.494ZM10.999,9.494C11.829,9.494 12.503,10.168 12.503,10.998C12.503,11.828 11.829,12.502 10.999,12.502C10.169,12.502 9.495,11.828 9.495,10.998C9.495,10.168 10.169,9.494 10.999,9.494ZM15.497,9.494C16.327,9.494 17.001,10.168 17.001,10.998C17.001,11.828 16.327,12.502 15.497,12.502C14.667,12.502 13.993,11.828 13.993,10.998C13.993,10.168 14.667,9.494 15.497,9.494Z" style="fill:rgb(255,249,196);"/>
    </g>
</svg>
