<svg width="24" height="24" viewBox="0 0 24 24" fill="none" xmlns="http://www.w3.org/2000/svg">
<path fill-rule="evenodd" clip-rule="evenodd" d="M10 4H4C2.9 4 2 4.9 2 6V18C2 19.1 2.9 20 4 20H20C21.1 20 22 19.1 22 18V8C22 6.9 21.1 6 20 6H12L10 4Z" fill="#FF7043"/>
<path fill-rule="evenodd" clip-rule="evenodd" d="M16.8 12.45C16.3359 12.45 15.8908 12.2657 15.5626 11.9375C15.2344 11.6093 15.05 11.1642 15.05 10.7C15.05 10.2359 15.2344 9.7908 15.5626 9.46261C15.8908 9.13442 16.3359 8.95005 16.8 8.95005C17.2642 8.95005 17.7093 9.13442 18.0375 9.46261C18.3657 9.7908 18.55 10.2359 18.55 10.7C18.55 10.9299 18.5048 11.1574 18.4168 11.3697C18.3289 11.5821 18.2 11.775 18.0375 11.9375C17.875 12.1 17.682 12.2289 17.4697 12.3168C17.2574 12.4048 17.0298 12.45 16.8 12.45ZM16.8 5.80005C15.5005 5.80005 14.2541 6.3163 13.3352 7.23523C12.4163 8.15415 11.9 9.40049 11.9 10.7C11.9 14.375 16.8 19.8 16.8 19.8C16.8 19.8 21.7 14.375 21.7 10.7C21.7 9.40049 21.1838 8.15415 20.2648 7.23523C19.3459 6.3163 18.0996 5.80005 16.8 5.80005Z" fill="#FFCCBC"/>
</svg>
