<svg xmlns="http://www.w3.org/2000/svg" viewBox="0 0 16 16"><path id="folder" fill="#546e7a" d="m6.922 3.768-.644-.536A1 1 0 0 0 5.638 3H2a1 1 0 0 0-1 1v8a1 1 0 0 0 1 1h12a1 1 0 0 0 1-1V5a1 1 0 0 0-1-1H7.562a1 1 0 0 1-.64-.232"/><path id="motive" fill="#cfd8dc" d="M12.003 6a3.997 4 0 1 0 1.983 7.47L11.003 9.5v2.25a.25.25 0 0 1-.25.25h-.5a.25.25 0 0 1-.25-.25v-3.5a.25.25 0 0 1 .25-.25h.616a.25.25 0 0 1 .208.112l3.366 5.051A3.994 3.997 0 0 0 12.003 6M14 10h-1V8.25a.25.25 0 0 1 .25-.25h.5a.25.25 0 0 1 .25.25z"/></svg>