<svg version="1.1" viewBox="0 0 32 32" xmlns="http://www.w3.org/2000/svg">
 <path d="M28.967 12H9.442a2 2 0 0 0-1.898 1.368L4 24V10h24a2 2 0 0 0-2-2H15.124a2 2 0 0 1-1.28-.464l-1.288-1.072A2 2 0 0 0 11.276 6H4a2 2 0 0 0-2 2v16a2 2 0 0 0 2 2h22l4.805-11.212A2 2 0 0 0 28.967 12Z" fill="#00acc1"/>
 <path d="m23.239 27.996c-0.13041-0.09035-0.28439-0.39004-0.37231-0.72355-0.07814-0.2966-0.10769-1.0788-0.05549-1.4623 0.0195-0.14282 0.03066-0.26436 0.02456-0.27027-0.0058-0.0061-0.12699-0.02495-0.26935-0.04202-0.81955-0.09889-1.6943-0.37737-2.3602-0.75165-0.14118-0.07945-0.27362-0.14439-0.29398-0.14439-0.02048 0-0.09239 0.10638-0.15996 0.23639-0.31368 0.60398-0.86164 1.2038-1.2781 1.399-0.15201 0.07131-0.35472 0.08865-0.44842 0.03841-0.14131-0.07564-0.1832-0.3756-0.09869-0.70766 0.05772-0.22739 0.28997-0.70582 0.47823-0.98529 0.0832-0.12345 0.24742-0.33278 0.36522-0.4653l0.21367-0.24079-0.11143-0.10657c-0.29365-0.28058-0.84536-0.9298-0.84536-0.99494 0-0.02324 0.7527-0.54613 0.80753-0.56097 0.02784-0.0075 0.09528 0.05916 0.18668 0.18478 0.19778 0.27185 0.7267 0.79486 1.0379 1.0261 2.3726 1.7638 5.7167 1.3209 7.5172-0.99579 0.09561-0.12299 0.18872-0.22378 0.20684-0.22378 0.03611 0 0.7812 0.50528 0.80701 0.54711 0.02338 0.03769-0.30225 0.45965-0.58034 0.75244-0.13205 0.13901-0.24007 0.26403-0.23974 0.27776 0 0.01386 0.10388 0.13428 0.23035 0.26778 0.40193 0.42373 0.79749 1.0853 0.90734 1.5174 0.08431 0.332 0.04242 0.63202-0.09876 0.70766-0.0306 0.01642-0.11143 0.02955-0.17992 0.02942-0.43305-9.18e-4 -1.1512-0.69636-1.5774-1.5273-0.08228-0.16022-0.16154-0.29135-0.17644-0.29135-0.01492 0-0.0985 0.04596-0.18583 0.10178-0.61921 0.39687-1.5438 0.73918-2.3435 0.86762-0.17007 0.02745-0.3232 0.06067-0.34027 0.07381-0.02205 0.01713-0.01929 0.09731 0.0099 0.2771 0.05194 0.32129 0.03191 1.0838-0.03651 1.3921-0.07079 0.31834-0.17926 0.56504-0.31328 0.7114-0.15392 0.16836-0.27356 0.1924-0.42734 0.08589zm-8.5131-6.4902c-0.0076-0.02023-0.0107-1.076-0.0065-2.3464l0.0074-2.3098h1.2106l0.0076 0.85028c0.0058 0.63622 0.01674 0.85606 0.04334 0.87294 0.01963 0.01247 0.32267 0.02285 0.67345 0.02311 0.49675 2.28e-4 0.64482-0.0081 0.6697-0.03808 0.02121-0.02574 0.03448-0.31617 0.03953-0.8734l0.0075-0.83485h1.2106v4.6773h-1.2106l-0.0077-0.89257c-0.0051-0.59984-0.01806-0.90518-0.03953-0.93111-0.02488-0.03008-0.17368-0.03854-0.67345-0.03854-0.49977 0-0.6485 0.0085-0.67345 0.03854-0.02141 0.02593-0.0344 0.33127-0.03959 0.93111l-0.0076 0.89257-0.59886 0.0078c-0.46339 0.0061-0.60194-4.57e-4 -0.61264-0.02889zm4.9001-2.28e-4c-0.0077-0.02009-0.0105-1.0758-0.0064-2.3462l0.0074-2.3098h2.9978l8e-3 0.51205 0.0078 0.51205-0.88699 0.0076-0.88712 0.0077-0.0081 0.34414c-0.0061 0.25596 0.0013 0.35025 0.02889 0.36772 0.02022 0.013 0.36483 0.02364 0.76538 0.02397l0.72848 4.56e-4 -0.0078 0.51251-0.0079 0.51251-1.4988 0.02886v0.80839l0.92232 0.01443 0.92244 0.01444v1.0106l-1.5359 0.0073c-1.2132 0.0059-1.5386 0-1.5495-0.02889zm4.0355 0c-0.0077-0.02009-0.01051-1.0758-0.0064-2.3462l0.0074-2.3098h1.2106l0.01444 1.8189 0.01446 1.819 1.7583 0.02887v1.0106l-1.4925 0.0074c-1.1787 0.0058-1.4956-2.28e-4 -1.5063-0.02889zm3.8335-2.28e-4c-0.0075-0.01988-0.01038-1.0754-0.0063-2.3458l0.0075-2.3098 0.63418-0.0072c0.3488-0.0037 0.6485 0.0028 0.66596 0.01444 0.04269 0.02903 0.68284 1.7727 0.82415 2.2448 0.14682 0.49117 0.1354 0.46201 0.16876 0.42879 0.01562-0.01562 0.08372-0.20934 0.15149-0.43076 0.14925-0.48755 0.73938-2.1779 0.77838-2.229 0.02135-0.02804 0.17664-0.03467 0.66518-0.02889l0.6374 0.0078v4.6773l-0.53976 0.0079-0.53976 0.0078-0.01904-0.0765c-0.03986-0.15871 0.01353-1.8295 0.07354-2.3069 0.09456-0.75087 0.08031-0.76256-0.14262-0.11557-0.24105 0.70004-0.7202 1.9869-0.76597 2.0573-0.03927 0.06061-0.06291 0.06494-0.34066 0.06494-0.20454 0-0.30731-0.01129-0.32668-0.03611-0.03565-0.04563-0.62414-1.6472-0.78495-2.1361-0.11347-0.34506-0.17506-0.46917-0.17309-0.34848 4.56e-4 0.02889 0.02699 0.2666 0.0589 0.52859 0.05963 0.4909 0.11248 2.136 0.07354 2.2917l-0.01905 0.07578h-0.53365c-0.40042 0-0.537-9e-3 -0.54737-0.03611zm0.38131-5.3327c-0.11347-0.19259-0.39917-0.55204-0.64095-0.80642-0.77844-0.81929-1.7158-1.3371-2.8666-1.5837-0.32964-0.07059-0.41703-0.07722-1.0234-0.07853-0.7139-0.0016-0.8711 0.01622-1.424 0.16101-0.74837 0.19601-1.4308 0.54383-2.0351 1.0372-0.2905 0.23718-0.75316 0.72513-0.95081 1.0027-0.12167 0.17099-0.183 0.23422-0.21505 0.22208-0.105-0.03986-0.80845-0.5129-0.80819-0.54324 0.0011-0.06842 0.47495-0.66261 0.7965-0.99881l0.33246-0.34762-0.21991-0.23849c-0.40186-0.43614-0.78718-1.0855-0.8946-1.5078-0.08431-0.33206-0.04242-0.63202 0.09889-0.70786 0.03047-0.01628 0.11143-0.02955 0.17992-0.02941 0.43305 9.88e-4 1.1511 0.69656 1.5774 1.5275 0.08208 0.16022 0.1595 0.29122 0.17178 0.29122 0.01254 0 0.12516-0.05844 0.25044-0.12995 0.64384-0.36739 1.6774-0.69499 2.381-0.75428 0.12141-0.01024 0.23606-0.02804 0.25464-0.03959 0.02561-0.01583 0.02166-0.09324-0.01544-0.31571-0.06842-0.40994-0.04708-1.2129 0.04098-1.5465 0.1396-0.52866 0.36378-0.82474 0.59189-0.78186 0.21295 0.03999 0.41939 0.38729 0.52695 0.88633 0.07 0.32556 0.0717 1.2412 0.0029 1.5413-0.02541 0.1111-0.03782 0.21104-0.02745 0.22194 0.01038 0.01103 0.14866 0.04051 0.30704 0.06534 0.9187 0.14433 1.6154 0.40088 2.4692 0.90859 0.05818 0.03467 0.11275 0.05122 0.12154 0.0371 0.0088-0.01412 0.08753-0.16902 0.175-0.34414 0.33777-0.67594 0.8816-1.2902 1.3274-1.4992 0.15214-0.07131 0.35472-0.08865 0.44842-0.03835 0.14144 0.07578 0.18333 0.3756 0.09889 0.70766-0.06172 0.2425-0.29871 0.72119-0.51106 1.0322-0.09915 0.14525-0.30054 0.38558-0.4475 0.53411l-0.26712 0.27001 0.26278 0.27946c0.26574 0.28249 0.73504 0.8816 0.821 1.0481 0.03894 0.07518 0.04025 0.09626 0.0081 0.12588-0.06599 0.06081-0.77483 0.47698-0.81233 0.47698-0.0195 0-0.05804-0.03828-0.08563-0.08517z" fill="#b2ebf2" stroke-width=".065664"/>
</svg>
