<svg xmlns="http://www.w3.org/2000/svg" viewBox="0 0 32 32"><path fill="#f06292" d="M28.967 12H9.442a2 2 0 0 0-1.898 1.368L4 24V10h24a2 2 0 0 0-2-2H15.124a2 2 0 0 1-1.28-.464l-1.288-1.072A2 2 0 0 0 11.276 6H4a2 2 0 0 0-2 2v16a2 2 0 0 0 2 2h22l4.805-11.212A2 2 0 0 0 28.967 12"/><path fill="#fce4ec" d="M31.897 12.592a3 3 0 0 0-1.53-1.912 7.95 7.95 0 0 0-6.348-.05 17.4 17.4 0 0 0-5.864 3.557c-1.83 1.81-2.288 3.496-2.124 4.39.346 1.89 2.181 3.227 3.658 4.3.314.23.618.45.876.657-.92.513-2.916 1.749-3.483 3.074a2.9 2.9 0 0 0-.074 2.347 1.57 1.57 0 0 0 .874.903 3.5 3.5 0 0 0 .986.142 4.14 4.14 0 0 0 3.438-2.025 5.03 5.03 0 0 0 .55-3.886 4.5 4.5 0 0 1 1.46-.034 2.64 2.64 0 0 1 1.927.96 1.44 1.44 0 0 1 .304.968 1.2 1.2 0 0 1-.55.805c-.159.104-.356.233-.31.504.028.151.13.393.532.313a1.99 1.99 0 0 0 1.392-1.841 2.9 2.9 0 0 0-.801-2.051 3.9 3.9 0 0 0-2.897-1.135 6.5 6.5 0 0 0-1.813.226 13 13 0 0 0-1.498-1.346c-1.165-.947-2.265-1.842-2.2-3.125.085-1.654 1.672-3.306 4.716-4.909 2.7-1.422 4.894-1.47 6.04-1.041a1.44 1.44 0 0 1 .858.674 2.23 2.23 0 0 1-.257 1.866 6.57 6.57 0 0 1-5.023 3.105 2.56 2.56 0 0 1-2.225-.565c-.189-.219-.37-.423-.65-.263-.332.196-.175.625-.123.768a2.6 2.6 0 0 0 1.578 1.342 7.32 7.32 0 0 0 4.752-.482c2.631-1.078 4.384-3.933 3.83-6.236ZM21.301 26.118a3 3 0 0 1-.13.345 3.4 3.4 0 0 1-.517.795c-.648.743-1.499.978-1.776.808a.27.27 0 0 1-.088-.187 2.5 2.5 0 0 1 .742-1.704 7.8 7.8 0 0 1 1.865-1.445 3.05 3.05 0 0 1-.096 1.388"/></svg>