<svg xmlns="http://www.w3.org/2000/svg" viewBox="0 0 32 32"><path fill="#f44336" d="M28.967 12H9.442a2 2 0 0 0-1.898 1.368L4 24V10h24a2 2 0 0 0-2-2H15.124a2 2 0 0 1-1.28-.464l-1.288-1.072A2 2 0 0 0 11.276 6H4a2 2 0 0 0-2 2v16a2 2 0 0 0 2 2h22l4.805-11.212A2 2 0 0 0 28.967 12"/><path fill="#ffcdd2" d="M23 12c-3.865 0-6.998 1.343-6.998 3s3.133 3 6.999 3S30 16.657 30 15s-3.134-3-7-3m7 5c-.222.2-.438.417-.703.582-.84.466-1.767.724-2.7.957-1.64.41-3.07.673-5.645 1.363-1.232.33-3.29 1.07-4.304 2.494-.686.961-.644 2.116-.646 2.604.438-.29.91-.82 3.26-1.51a61 61 0 0 1 3.145-.777c.785-.175 1.57-.329 2.354-.516 2.853-.697 3.631-1.07 4.325-1.539.608-.413.916-.91.914-1.658 0 0-.024-1.342 0-2m0 4.453c-1.39.78-2.246 1.215-4.325 1.682-1.767.4-3.53.81-5.295 1.22-1.188.282-3.555.975-4.18 2.145-.286.536-.295 1.164.169 1.643.05.05.56.524.738.586 0 0 .218-.106.836-.393 1.16-.536 2.396-.858 3.64-1.162 1.824-.425 3.659-.818 5.448-1.383.82-.252 1.605-.582 2.26-1.13C29.755 24.271 30 24 30 23Zm0 4.147s-.505.507-2.014 1.076C24.213 27.979 22.03 28 19.027 29.15c-.15.058-.388.147-.532.211.124.05.717.236.711.229.96.243 2.365.416 3.795.41.534-.013 4.286.128 6.163-1.39.384-.34.833-.61.836-1.61Z"/></svg>