<svg xmlns="http://www.w3.org/2000/svg" viewBox="0 0 32 32"><path fill="#546e7a" d="m13.844 7.536-1.288-1.072A2 2 0 0 0 11.276 6H4a2 2 0 0 0-2 2v16a2 2 0 0 0 2 2h24a2 2 0 0 0 2-2V10a2 2 0 0 0-2-2H15.124a2 2 0 0 1-1.28-.464Z"/><path fill="#cfd8dc" d="m31.304 16.347-1.584 1.584a8 8 0 1 1-5.657-5.657l1.584-1.583a10 10 0 1 0 5.657 5.656Z"/><path fill="#cfd8dc" d="m22.437 16.022.22-1.987a6 6 0 1 0 5.302 5.304l-1.987.219a4 4 0 1 1-3.535-3.536Z"/><path fill="#cfd8dc" d="m24.827 14.34-.707 2.12-1.61 1.611a1.997 1.997 0 0 0-.99-.01c-.025.006-.048.015-.072.022a1.975 1.975 0 0 0-.367.146c-.036.019-.072.036-.107.057a2 2 0 1 0 2.735 2.735c.02-.036.038-.071.056-.108a1.98 1.98 0 0 0 .147-.366l.021-.072a1.997 1.997 0 0 0-.01-.99l1.611-1.61 2.121-.707 4.243-4.243H29.07v-2.828Z"/></svg>