<svg xmlns="http://www.w3.org/2000/svg" viewBox="0 0 24 24" fill="none"><path fill="#2979FF" d="M10 4H4c-1.11 0-2 .89-2 2v12c0 1.097.903 2 2 2h16c1.097 0 2-.903 2-2V8a2 2 0 0 0-2-2h-8l-2-2Z"/><path fill="#BBDEFB" d="M18.338 11.003A5.053 5.053 0 0 0 15 12.11l.651.37c.774-.575 1.751-.82 2.687-.78v-.696ZM21.799 12.559a4.861 4.861 0 0 0-3.013-1.515v.697c.96.158 1.843.617 2.524 1.31l.49-.492h-.001ZM23.265 15.919c-.041-1.065-.448-2.13-1.14-3.031l-.489.492c.57.778.896 1.638.936 2.54l.693-.001ZM22.125 19.443c.692-.902 1.099-1.967 1.14-3.032h-.693c-.04.901-.366 1.761-.936 2.54l.489.492ZM18.786 21.286A4.965 4.965 0 0 0 21.8 19.77l-.488-.492a4.22 4.22 0 0 1-2.525 1.312v.696ZM15 20.221a5.054 5.054 0 0 0 3.338 1.106v-.696a4.296 4.296 0 0 1-2.687-.779l-.651.369ZM18.152 13.318c.413-.005.822.071 1.206.223a2.766 2.766 0 0 1 1.577 1.542c.145.35.218.727.215 1.107 0 .404-.074.782-.222 1.133a2.854 2.854 0 0 1-1.57 1.523 3.263 3.263 0 0 1-1.206.216c-.44 0-.843-.072-1.211-.216a2.828 2.828 0 0 1-1.779-2.655 2.833 2.833 0 0 1 .84-2.043 2.78 2.78 0 0 1 .939-.606 3.201 3.201 0 0 1 1.211-.224Zm0 1.371a1.53 1.53 0 0 0-.588.115 1.459 1.459 0 0 0-.81.787 1.46 1.46 0 0 0-.122.599c0 .216.04.416.122.6.157.359.448.643.81.793.187.072.383.108.588.108.206 0 .4-.036.581-.108a1.52 1.52 0 0 0 .488-.318 1.462 1.462 0 0 0 .459-1.075 1.46 1.46 0 0 0-.459-1.075 1.436 1.436 0 0 0-.488-.31 1.476 1.476 0 0 0-.58-.116Z"/></svg>