<svg xmlns="http://www.w3.org/2000/svg" viewBox="0 0 16 16"><path id="folder" fill="#ab47bc" d="m6.922 3.768-.644-.536A1 1 0 0 0 5.638 3H2a1 1 0 0 0-1 1v8a1 1 0 0 0 1 1h12a1 1 0 0 0 1-1V5a1 1 0 0 0-1-1H7.562a1 1 0 0 1-.64-.232"/><path id="motive" fill="#e1bee7" d="m10.575 12.876-4.15-2.602A.9.9 0 0 1 6 9.503v-.49l4.575 2.862a.8.8 0 0 0 .85 0L16 9.002v.5a.9.9 0 0 1-.425.767l-4.15 2.607a.8.8 0 0 1-.85 0m0 2.002-4.15-2.603a.9.9 0 0 1-.425-.77v-.49l4.575 2.862a.8.8 0 0 0 .85 0L16 11.004v.5a.9.9 0 0 1-.425.766l-4.15 2.608a.8.8 0 0 1-.85 0m-.04-9.74L6 8.002l4.535 2.863a.84.84 0 0 0 .925 0l4.535-2.863L11.46 5.14a.84.84 0 0 0-.925 0"/></svg>