<svg width="24" height="24" viewBox="0 0 24 24" fill="none" xmlns="http://www.w3.org/2000/svg">
<path d="M19 20H4C2.89 20 2 19.1 2 18V6C2 4.89 2.89 4 4 4H10L12 6H19C20.097 6 21 6.903 21 8H4V18L6.14 10H23.21L20.93 18.5C20.7 19.37 19.92 20 19 20Z" fill="#66BB6A"/>
<path fill-rule="evenodd" clip-rule="evenodd" d="M21.4215 14.7893C21.4215 11.3564 18.6436 8.57855 15.2107 8.57855C11.7779 8.57855 9 11.3564 9 14.7893C9 18.2221 11.7779 21 15.2107 21C18.6436 21 21.4215 18.2221 21.4215 14.7893ZM17.4692 19.1255C17.9435 18.7416 18.2822 18.2221 18.5081 17.522L20.2697 12.1018H18.7565L17.6047 16.5961L16.5206 12.1018H14.9623L16.8368 18.1092C16.8368 18.1092 16.6561 18.3125 16.5658 18.3802C16.3174 18.5609 15.9334 18.6738 15.414 18.7416L15.5721 19.7805C16.3625 19.7127 16.9949 19.5095 17.4692 19.1255ZM14.0363 12.0566C13.7653 11.9437 13.4266 11.8985 13.0652 11.8985C12.5458 11.8985 12.0941 12.034 11.7101 12.2373C11.3262 12.4857 11.01 12.8245 10.8068 13.2761C10.6035 13.7052 10.4906 14.2247 10.4906 14.7893C10.4906 15.3765 10.6035 15.8734 10.8068 16.3025C11.01 16.7316 11.3262 17.0703 11.7101 17.2962C12.1167 17.522 12.5683 17.6349 13.1104 17.6349C13.7879 17.6349 14.3751 17.4317 14.8945 17.0026L14.2622 16.0992C14.0363 16.2347 13.8557 16.325 13.6976 16.3928C13.5395 16.4606 13.3588 16.4831 13.1781 16.4831C12.7942 16.4831 12.5232 16.3702 12.3199 16.0992C12.1167 15.8508 12.0263 15.4217 12.0263 14.8119C12.0263 13.6149 12.4103 13.0277 13.1781 13.0277C13.3588 13.0277 13.5621 13.0503 13.7202 13.1181C13.8782 13.1858 14.0589 13.2761 14.2396 13.4117L14.872 12.5534C14.601 12.3276 14.3299 12.1695 14.0363 12.0566Z" fill="#CFD8DC"/>
</svg>
