<svg viewBox="0 0 16 16" xmlns="http://www.w3.org/2000/svg">
<path fill="#66bb6a" d="m6.922 3.768-.644-.536A1 1 0 0 0 5.638 3H2a1 1 0 0 0-1 1v8a1 1 0 0 0 1 1h12a1 1 0 0 0 1-1V5a1 1 0 0 0-1-1H7.562a1 1 0 0 1-.64-.232" id="folder"/>
<path fill="#c8e6c9" d="m 7.5,4.499847 h -1.5 v -1.62484 a 0.125,0.125007 0 0 0 -0.225,-0.075004 l -1.575,2.100116 a 0.375,0.375021 0 0 0 0.3,0.600034 h 1.5 v 1.62484 a 0.125,0.125007 0 0 0 0.225,0.075004 l 1.575,-2.100117 a 0.375,0.375021 0 0 0 -0.3,-0.600033" style="stroke-width:0.250007" id="motive"/>
</svg>
