<svg xmlns="http://www.w3.org/2000/svg" viewBox="0 0 16 16">
<path fill="#03a9f4" d="m6.922 3.768-.644-.536A1 1 0 0 0 5.638 3H2a1 1 0 0 0-1 1v8a1 1 0 0 0 1 1h12a1 1 0 0 0 1-1V5a1 1 0 0 0-1-1H7.562a1 1 0 0 1-.64-.232" id="folder"/>
<g id="motive"><path fill="#fafafa" d="m15.496 7.1315-3.5-2a1 1 0 0 0-0.992 0l-3.5 2A1 1 0 0 0 7 8v4.325a1 1 0 0 0 0.5125 0.873l3 1.675A1 1 0 0 0 11.5 14.865a1 1 0 0 0 0.9875 0.008l3-1.675A1 1 0 0 0 16 12.325V8a1 1 0 0 0-0.504-0.8685"/><path fill="#0277bd" d="M15 12.325 12 14v-3l3-1.675zM11.5 6l-3.5 2 3.5 2 3.5-2zm-3.5 6.325L11 14v-3l-3-1.675z"/></g>
</svg>
