<svg clip-rule="evenodd" fill-rule="evenodd" stroke-linejoin="round" stroke-miterlimit="1.4142" version="1.1" viewBox="0 0 24 24" xml:space="preserve" xmlns="http://www.w3.org/2000/svg"><path d="m10 4h-6c-1.11 0-2 0.89-2 2v12c0 1.097 0.903 2 2 2h16c1.097 0 2-0.903 2-2v-10c0-1.11-0.9-2-2-2h-8l-2-2z" fill="#e57373" fill-rule="nonzero" style="fill:#607d8b"/><path d="m18.311 8.6013c0.67005 0.26803 0.93489 1.3227 0.58489 2.3648-0.347 1.0368-1.166 1.6685-1.839 1.4056-0.66784-0.25976-0.93796-1.3174-0.59316-2.3626 0.34176-1.0399 1.1712-1.6654 1.8473-1.4078m3.7484 2.1641c0.56634 0.45979 0.43412 1.4879-0.2851 2.3099-0.738 0.81817-1.7837 1.1161-2.3479 0.66456-0.56937-0.45454-0.43191-1.4796 0.2978-2.2955 0.72751-0.82418 1.7732-1.1221 2.3352-0.67887m-7.9452-1.3719c0.74595 0.088159 1.2891 1.0239 1.2446 2.0816-0.0798 1.0584-0.71855 1.8499-1.4592 1.7647-0.74073-0.08514-1.2817-1.0126-1.2206-2.0748 0.06104-1.0622 0.71328-1.8529 1.4352-1.7716m9.4364 5.4481c0.43139 0.58458 0.07271 1.5448-0.81663 2.1287-0.88934 0.58393-1.963 0.57917-2.4071-0.01973-0.44409-0.5989-0.07795-1.5478 0.79872-2.1461 0.8938-0.56741 1.9757-0.56485 2.425 0.03707m-4.1383 5.1459c-0.26354 0.5049-0.9558 0.8322-1.5247 0.77634-1.1866-0.1119-1.7835-1.6448-2.8267-2.2471-1.0433-0.60232-2.7008-0.32212-3.3541-1.3214-0.37593-0.55955-0.34419-1.4499 0.05085-1.9767 0.54534-0.72664 1.7259-0.60425 2.6115-0.85485 1.1659-0.31242 2.4923-1.399 3.546-0.79064 1.0485 0.60534 0.81423 2.2944 1.0831 3.4632 0.21265 0.97558 0.87075 2.0755 0.41409 2.9512z" style="fill:#cfd8dc;stroke-width:.60534"/></svg>
