<svg xmlns="http://www.w3.org/2000/svg" viewBox="0 0 16 16">
<path id="folder" fill="#2196f3" d="M14.483 6H4.721a1 1 0 0 0-.949.684L2 12V5h12a1 1 0 0 0-1-1H7.562a1 1 0 0 1-.64-.232l-.644-.536A1 1 0 0 0 5.638 3H2a1 1 0 0 0-1 1v8a1 1 0 0 0 1 1h11l2.403-5.606A1 1 0 0 0 14.483 6" />
<path id="motive" fill="#bbdefb" d="M 11.517756,7.0240058 7.9980051,8.0052668 7.0237971,11.52062 c -0.07352,0.2663 0.02901,0.636021 0.229049,0.826378 A 243.05191,242.81718 0 0 1 9.9984321,15 H 12.999573 V 13.001505 H 15 V 10.003762 L 12.346433,7.2493358 c -0.191541,-0.198351 -0.56262,-0.299275 -0.828677,-0.224831 z" />
</svg>
