<svg xmlns="http://www.w3.org/2000/svg" clip-rule="evenodd" fill-rule="evenodd" stroke-linejoin="round" stroke-miterlimit="1.414" viewBox="0 0 24 24">
  <path fill="#7CB342" d="M10 4H4c-1.11 0-2 .89-2 2v12c0 1.097.903 2 2 2h16c1.097 0 2-.903 2-2V8a2 2 0 0 0-2-2h-8l-2-2z" fill-rule="nonzero"/>
  <path fill="#C5E1A5" d="M13.05 12.6H12v7.35c0 .578.472 1.05 1.05 1.05h7.35v-1.05h-7.35zm8.4-2.1h-6.3c-.577 0-1.05.472-1.05 1.05v6.3c0 .578.473 1.05 1.05 1.05h6.3c.578 0 1.05-.472 1.05-1.05v-6.3c0-.578-.472-1.05-1.05-1.05zm-.525 4.725h-2.1v2.1h-1.05v-2.1h-2.1v-1.05h2.1v-2.1h1.05v2.1h2.1z"/>
</svg>