<svg viewBox="0 0 24 24" fill="none" xmlns="http://www.w3.org/2000/svg">
  <path
    d="M19 20H4C3.46957 20 2.96086 19.7893 2.58579 19.4142C2.21071 19.0391 2 18.5304 2 18V6C2 4.89 2.89 4 4 4H10L12 6H19C20.097 6 21 6.903 21 8H4V18L6.14 10H23.21L20.93 18.5C20.7 19.37 19.92 20 19 20Z"
    fill="#EF5350" />
  <path
    d="M12 19.0526H13.9824L13.3682 20.9074H12V19.0526ZM12 15.5263H15.15L14.5359 17.3811H12V15.5263ZM12 12H16.3178L15.7035 13.8548H12V12ZM18.2715 12H23.2V13.8548H17.6574L18.2715 12ZM17.1039 15.5263H23.2V17.3811H16.4897L17.1039 15.5263ZM15.9362 19.0526H23.2V20.9074H15.3221L15.9362 19.0526Z"
    fill="#FFCDD2" />
</svg>