<svg xmlns="http://www.w3.org/2000/svg" viewBox="0 0 16 16">
<path id="folder" fill="#ff7043" d="m6.922 3.768-.644-.536A1 1 0 0 0 5.638 3H2a1 1 0 0 0-1 1v8a1 1 0 0 0 1 1h12a1 1 0 0 0 1-1V5a1 1 0 0 0-1-1H7.562a1 1 0 0 1-.64-.232" />
<path id="motive" fill="#ffccbc" d="M 15.248649,8.5497118 A 4.5009892,4.4997156 0 0 0 14.808552,8.0932406 C 14.425968,7.7617615 13.989372,7.5232774 13.625792,7.1732993 A 2.7005935,2.6998293 0 0 1 13.127182,4 3.7508244,3.749763 0 0 0 11.70437,4.7309538 a 4.2959442,4.2947285 0 0 0 -1.371802,4.9381875 0.40008793,0.39997472 0 0 1 0.04701,0.181989 0.31006815,0.3099804 0 0 1 -0.200044,0.2779817 0.36007914,0.35997724 0 0 1 -0.3785831,-0.0675 2.7105957,2.7098287 0 0 1 -0.392587,-2.9348138 3.9008574,3.8997535 0 0 0 -1.401308,3.2342958 4.0008793,3.9997472 0 0 0 0.167537,0.834447 3.6007914,3.5997724 0 0 0 0.404089,0.958939 4.0108815,4.0097465 0 0 0 2.8381241,1.782888 4.4009672,4.3997219 0 0 0 3.467762,-0.884444 3.2207078,3.2197965 0 0 0 0.873192,-3.6617688 L 15.68525,9.2486641 A 6.001319,5.9996209 0 0 0 15.245148,8.5497118 m -1.805397,3.4947792 a 2.0004397,1.9998736 0 0 1 -0.629138,0.330979 1.665366,1.6648948 0 0 1 -1.659365,-0.456471 1.565344,1.564901 0 0 0 1.207765,-1.137428 3.1006815,3.099804 0 0 0 -0.160035,-1.2334218 2.0004397,1.9998736 0 0 1 0.09502,-1.1409284 3.5007694,3.4997788 0 0 0 0.36358,0.5849632 c 0.436596,0.5559652 1.128248,0.7984493 1.277281,1.554402 a 0.85018689,0.84994628 0 0 1 0.03651,0.234985 1.6703671,1.6698945 0 0 1 -0.531617,1.26242 z" />
</svg>
