<svg xmlns="http://www.w3.org/2000/svg" clip-rule="evenodd" stroke-linejoin="round" stroke-miterlimit="1.414" viewBox="0 0 24 24">
    <path d="M19 20H4a2 2 0 0 1-2-2V6c0-1.11.89-2 2-2h6l2 2h7c1.097 0 2 .903 2 2H4v10l2.14-8h17.07l-2.28 8.5c-.23.87-1.01 1.5-1.93 1.5z" fill="#ffb300"/>
    <path d="M0 0h24v24H0z" fill="none"/>
    <path d="M12.2 12.6h-1.1v7.7c0 .605.495 1.1 1.1 1.1h7.7v-1.1h-7.7zm8.8-2.2h-6.6c-.605 0-1.1.495-1.1 1.1v6.6c0 .605.495 1.1 1.1 1.1H21c.605 0 1.1-.495 1.1-1.1v-6.6c0-.605-.495-1.1-1.1-1.1zm-.55 4.95h-5.5v-1.1h5.5zm-2.2 2.2h-3.3v-1.1h3.3zm2.2-4.4h-5.5v-1.1h5.5z"/>
</svg>