<svg xmlns="http://www.w3.org/2000/svg" xmlns:xlink="http://www.w3.org/1999/xlink" viewBox="0 0 16 16"><defs><path id="a" fill="#d1c4e9" d="M7 10V9H6v4h1v-1h1v1a1 1 0 0 1-1 1H6a1 1 0 0 1-1-1V9a1 1 0 0 1 1-1h1a1 1 0 0 1 1 1v1Zm5 0V9a1 1 0 0 0-1-1h-1a1 1 0 0 0-1 1v1c0 .42.179 1.17 1.373 1.483.346.092.627.323.627.517v1h-1v-1H9v1a1 1 0 0 0 1 1h1a1 1 0 0 0 1-1v-1a1.67 1.67 0 0 0-1.373-1.483C10 10.352 10 10.097 10 10V9h1v1Zm4 0V9a1 1 0 0 0-1-1h-1a1 1 0 0 0-1 1v1c0 .42.179 1.17 1.373 1.483.346.092.627.323.627.517v1h-1v-1h-1v1a1 1 0 0 0 1 1h1a1 1 0 0 0 1-1v-1a1.67 1.67 0 0 0-1.373-1.483C14 10.352 14 10.097 14 10V9h1v1Z"/></defs><path id="folder" fill="#7e57c2" d="m6.922 3.768-.644-.536A1 1 0 0 0 5.638 3H2a1 1 0 0 0-1 1v8a1 1 0 0 0 1 1h12a1 1 0 0 0 1-1V5a1 1 0 0 0-1-1H7.562a1 1 0 0 1-.64-.232"/><g id="motive"><use xlink:href="#a"/><use xlink:href="#a"/></g></svg>