<?xml version="1.0" encoding="UTF-8"?>
<svg clip-rule="evenodd" fill-rule="evenodd" stroke-linejoin="round" stroke-miterlimit="1.4142" version="1.1" viewBox="0 0 24 24" xml:space="preserve" xmlns="http://www.w3.org/2000/svg" xmlns:cc="http://creativecommons.org/ns#" xmlns:dc="http://purl.org/dc/elements/1.1/" xmlns:rdf="http://www.w3.org/1999/02/22-rdf-syntax-ns#"><metadata><rdf:RDF><cc:Work rdf:about=""><dc:format>image/svg+xml</dc:format><dc:type rdf:resource="http://purl.org/dc/dcmitype/StillImage"/><dc:title/></cc:Work></rdf:RDF></metadata><path d="m10 4h-6c-1.11 0-2 0.89-2 2v12c0 1.097 0.903 2 2 2h16c1.097 0 2-0.903 2-2v-10c0-1.11-0.9-2-2-2h-8l-2-2z" fill="#f06292" fill-rule="nonzero"/><path d="m23.419 20.708v1.5094l-1.2816-0.83304-3.4105-6.408c0.46992-0.14952 0.89712-0.3916 1.2674-0.712l3.4247 6.4436m-3.56-9.1706a2.136 2.136 0 0 1-2.136 2.136h-0.31328l-4.1011 7.711-1.2816 0.83304v-1.5094l4.1225-7.7466c-0.7832-0.87576-0.712-2.2286 0.17088-3.0189 0.38448-0.34176 0.88288-0.54112 1.4026-0.54112v-1.424a0.712 0.712 0 0 1 0.712 0.712v0.84016c0.8544 0.29904 1.424 1.1036 1.424 2.0078m-1.424 0a0.712 0.712 0 0 0-0.712-0.712 0.712 0.712 0 0 0-0.712 0.712 0.712 0.712 0 0 0 0.712 0.712 0.712 0.712 0 0 0 0.712-0.712z" fill="#880e4f" stroke-width=".712"/></svg>
