<svg xmlns="http://www.w3.org/2000/svg" viewBox="0 0 32 32"><path d="M28.965,12.001H9.44a2.00045,2.00045,0,0,0-1.898,1.368L3.998,24.001v-14h24a2.00073,2.00073,0,0,0-2-2H15.122a1.99569,1.99569,0,0,1-1.28-.464L12.554,6.465a2.00681,2.00681,0,0,0-1.28-.464H3.998a2.00009,2.00009,0,0,0-2,2v16a1.99945,1.99945,0,0,0,2,2h22l4.805-11.212a2.0002,2.0002,0,0,0-1.838-2.788" style="fill:#1e88e5"/><path d="M21,20H15a1,1,0,0,1-1-1V13a1,1,0,0,1,1-1h6a1,1,0,0,1,1,1v6A1,1,0,0,1,21,20Zm7-8a4,4,0,1,0,4,4A4,4,0,0,0,28,12Zm.70711,17.70711,3-3a1,1,0,0,0,0-1.41422l-3-3a1,1,0,0,0-1.41422,0l-3,3a1,1,0,0,0,0,1.41422l3,3A1,1,0,0,0,28.70711,29.70711ZM17.12584,22.51436l-2.99856,6A1,1,0,0,0,15.00144,30h5.99712a1,1,0,0,0,.87416-1.48564l-2.99856-6A1,1,0,0,0,17.12584,22.51436Z" style="fill:#bbdefb"/></svg>