<svg xmlns="http://www.w3.org/2000/svg" viewBox="0 0 16 16"><path id="folder" fill="#42a5f5" d="m6.922 3.768-.644-.536A1 1 0 0 0 5.638 3H2a1 1 0 0 0-1 1v8a1 1 0 0 0 1 1h12a1 1 0 0 0 1-1V5a1 1 0 0 0-1-1H7.562a1 1 0 0 1-.64-.232"/><g id="motive" fill="#bbdefb"><path d="M9.983 5a6 6 0 0 0-1.332.436 9 9 0 0 0 .083 1.046 6 6 0 0 0-.492.305 5 5 0 0 0-.457.359 9 9 0 0 0-.89-.495A6.5 6.5 0 0 0 6 7.772a9 9 0 0 0 .605.833h.006v2.527l.014.001 1.624.15a.17.17 0 0 1 .157.155l.05.683 1.417.096.098-.631a.17.17 0 0 1 .173-.142h1.713a.17.17 0 0 1 .173.142l.097.631 1.417-.096.05-.683a.17.17 0 0 1 .158-.156l1.623-.149h.014V8.606h.006A9 9 0 0 0 16 7.772a6.5 6.5 0 0 0-.895-1.121 9 9 0 0 0-.89.493 5 5 0 0 0-.457-.358 6 6 0 0 0-.491-.305 10 10 0 0 0 .083-1.047A6 6 0 0 0 12.017 5a9 9 0 0 0-.495.92 3.5 3.5 0 0 0-.518-.04h-.007a3.5 3.5 0 0 0-.519.04A9 9 0 0 0 9.983 5M8.699 8.698a.935.935 0 1 1 .055 1.868h-.002a.935.935 0 1 1-.053-1.868m4.603 0a.935.935 0 1 1 .013 1.868h-.013a.935.935 0 1 1-.012-1.868zM11 9.244a.297.297 0 0 1 .315.274v.86a.313.313 0 0 1-.345.271.31.31 0 0 1-.285-.272v-.86A.295.295 0 0 1 11 9.244"/><path d="m13.932 11.602-.05.687a.17.17 0 0 1-.163.156l-1.729.116-.013.001a.17.17 0 0 1-.173-.142l-.099-.642h-1.41l-.1.642a.173.173 0 0 1-.185.142l-1.73-.118a.17.17 0 0 1-.161-.156l-.05-.687-1.46-.134.002.346c0 1.472 1.956 2.179 4.386 2.187h.006c2.43-.008 4.385-.715 4.385-2.187l.003-.346Z"/></g></svg>