<svg version="1.1" viewBox="0 0 16 16" xml:space="preserve" xmlns="http://www.w3.org/2000/svg"><path d="m14.483 6h-9.762a1 1 0 0 0-0.949 0.684l-1.772 5.316v-7h12a1 1 0 0 0-1-1h-5.438a1 1 0 0 1-0.64-0.232l-0.644-0.536a1 1 0 0 0-0.64-0.232h-3.638a1 1 0 0 0-1 1v8a1 1 0 0 0 1 1h11l2.403-5.606a1 1 0 0 0-0.92-1.394" fill="#f44336"/><g transform="matrix(1.0002 0 0 1.0004 .99343 -.0054252)" fill="#ffccbc"><path d="m12.437 9.0016c-1.3464 0-2.4331 0.47942-2.4331 1.0954 0 0.61603 1.0905 1.115 2.437 1.115 1.3464 0 2.5556-0.49895 2.5556-1.115 0-0.61603-1.1936-1.0954-2.54-1.0954m-2.4526 1.6529v0.83624c0 0.61603 1.0905 1.115 2.437 1.115 1.3464 0 2.5603-0.51321 2.5603-1.1292v-0.81248c0 0.61603-1.2139 1.1055-2.5603 1.1055-1.3464 0-2.437-0.49895-2.437-1.115m0 1.3937v0.83624c0 0.61603 1.0905 1.115 2.437 1.115 1.3464 0 2.5647-0.50677 2.5618-1.1228l-0.0039-0.84014c0 0.61603-1.2115 1.1267-2.5579 1.1267-1.3464 0-2.437-0.49895-2.437-1.115z" stroke-width=".2914"/><path d="m10.803 5.0033-4.1982 2.9987 2.7689 1.9367c0.039753-0.27981 0.17758-0.5305 0.34953-0.71454 0.019119-0.020465 0.038671-0.039209 0.05858-0.058569l-1.6559-1.1636 2.6771-1.8801 2.6791 1.8801-0.52917 0.37289c0.42826 0.032973 0.83298 0.10925 1.1989 0.22647l0.85136-0.59935-4.2002-2.9987zm-3.4425 4.6016-0.75568 0.53102 2.7552 1.9347v-0.023428-0.5564-0.48026l-1.9995-1.4057z" stroke-width=".44303"/></g></svg>
