<svg xmlns="http://www.w3.org/2000/svg" viewBox="0 0 16 16">
<path id="folder" fill="#1e88e5" d="M14.483 6H4.721a1 1 0 0 0-.949.684L2 12V5h12a1 1 0 0 0-1-1H7.562a1 1 0 0 1-.64-.232l-.644-.536A1 1 0 0 0 5.638 3H2a1 1 0 0 0-1 1v8a1 1 0 0 0 1 1h11l2.403-5.606A1 1 0 0 0 14.483 6" />
<path id="motive" fill="#bbdefb" d="M 15.6,6.4665 14.8,5.4 A 1,1 0 0 0 14,5 H 10 A 1,1 0 0 0 9.2,5.4 L 8.4,6.4665 A 2,2 0 0 0 8,7.6665 V 13 a 1,1 0 0 0 1,1 h 6 a 1,1 0 0 0 1,-1 V 7.6665 a 2,2 0 0 0 -0.4,-1.2 M 10,6 h 4 l 0.75,1 h -5.5 z m 3,5 v 2 H 11 V 11 H 9 l 3,-3 3,3 z" />
</svg>
