<svg width="680" height="530" version="1.1" xmlns="http://www.w3.org/2000/svg" xmlns:cc="http://creativecommons.org/ns#" xmlns:dc="http://purl.org/dc/elements/1.1/" xmlns:rdf="http://www.w3.org/1999/02/22-rdf-syntax-ns#">
 <title>RiveScript Folder Icon</title>
 <metadata>
  <rdf:RDF>
   <cc:Work rdf:about="">
    <dc:format>image/svg+xml</dc:format>
    <dc:type rdf:resource="http://purl.org/dc/dcmitype/StillImage"/>
    <dc:title>RiveScript Logo</dc:title>
    <dc:date>2011-10-23</dc:date>
    <dc:creator>
     <cc:Agent>
      <dc:title>Noah Petherbridge</dc:title>
     </cc:Agent>
    </dc:creator>
    <dc:description>The RiveScript logo.</dc:description>
   </cc:Work>
  </rdf:RDF>
 </metadata>
 <g transform="translate(0 -97.254)">
  <path d="m241.56 102.38h-177.86c-32.904 0-59.286 26.382-59.286 59.286v355.71a59.286 59.286 0 0 0 59.286 59.286h474.28a59.286 59.286 0 0 0 59.286-59.286v-296.43c0-32.904-26.679-59.286-59.286-59.286h-237.14z" fill="#780000" stroke-width="29.643"/>
 </g>
 <g transform="translate(0 -97.254)">
  <path id="ring" d="m576.23 424.59c0 73.475-59.563 133.04-133.04 133.04s-133.04-59.563-133.04-133.04c0-73.475 59.563-133.04 133.04-133.04s133.04 59.563 133.04 133.04z" fill="none" stroke="#eee" stroke-width="14.724"/>
  <g id="crescents" transform="matrix(.659 0 0 .659 192.69 86.943)" fill="#eee">
   <path d="m198.98 796.33c-0.0175 6.0908 0.2231 12.126 0.79502 18.063 9.3158-91.249 86.57-162.3 180.23-162.04 93.657 0.26752 170.46 71.761 179.25 163.06 0.60583-5.9341 0.92782-11.968 0.94522-18.058 0.28492-99.748-80.346-180.84-180.09-181.13-99.748-0.28491-180.84 80.346-181.13 180.09z"/>
   <path d="m237.56 207.26c-5.1228-3.2946-10.338-6.3417-15.649-9.057 71.872 56.986 90.144 160.35 39.485 239.12-50.659 78.774-152.26 104.99-233.93 63.236 4.6741 3.706 9.5847 7.2263 14.708 10.521 83.897 53.953 195.65 29.679 249.6-54.218 53.953-83.897 29.679-195.65-54.218-249.6z"/>
   <path d="m716.13 512.47c5.1498-3.2523 10.114-6.6926 14.818-10.36-82.008 41.083-183.41 13.996-233.43-65.191-50.012-79.187-30.868-182.35 41.469-238.75-5.3332 2.6718-10.598 5.6363-15.748 8.8887-84.337 53.264-109.53 164.81-56.262 249.15 53.264 84.337 164.81 109.53 249.15 56.262z"/>
  </g>
  <path id="middle" d="m493.79 459.24c-1.9773-0.64251-8.5048-2.1963-14.506-3.453-26.795-5.6113-53.993-5.0663-80.862 1.6202-5.216 1.298-9.5843 2.36-9.7074 2.36-0.12292 0 2.7857-3.071 6.4639-6.8245 22.064-22.516 37.923-50.103 45.897-79.837 2.0236-7.5458 2.166-7.8128 2.6868-5.0365 0.99 5.277 6.1448 20.66 9.7574 29.118 8.8986 20.834 22.102 40.278 38.29 56.389 3.8632 3.8448 6.6979 6.955 6.2993 6.9116-0.3986-0.0433-2.3426-0.60467-4.3199-1.2472z" fill="#eee"/>
 </g>
</svg>
