<svg xmlns="http://www.w3.org/2000/svg" viewBox="0 0 32 32"><path fill="#546e7a" d="M28.967 12H9.442a2 2 0 0 0-1.898 1.368L4 24V10h24a2 2 0 0 0-2-2H15.124a2 2 0 0 1-1.28-.464l-1.288-1.072A2 2 0 0 0 11.276 6H4a2 2 0 0 0-2 2v16a2 2 0 0 0 2 2h22l4.805-11.212A2 2 0 0 0 28.967 12Z"/><path fill="#00e676" d="M22.498 27.998h6.927a1.564 1.564 0 0 0 1.127-.617 1.284 1.284 0 0 0 .188-.631 1.262 1.262 0 0 0-.188-.618l-4.685-8.053a1.141 1.141 0 0 0-.443-.443 1.484 1.484 0 0 0-.67-.188 1.289 1.289 0 0 0-1.074.63l-1.182 2.054-2.376-3.986a1.315 1.315 0 0 0-.43-.497 1.518 1.518 0 0 0-1.247 0 1.477 1.477 0 0 0-.51.497l-5.799 9.986a1.208 1.208 0 0 0-.134.618 1.244 1.244 0 0 0 .134.63 1.286 1.286 0 0 0 .497.43 1.327 1.327 0 0 0 .63.188h4.363a4.262 4.262 0 0 0 3.88-2.241l2.12-3.692 1.114-1.933 3.436 5.866h-4.564Zm-4.9-2h-3.04l4.533-7.8 2.28 3.893-1.52 2.667a2.341 2.341 0 0 1-2.267 1.24Z"/></svg>