<svg width="22" height="17" viewBox="0 0 22 17" fill="none" xmlns="http://www.w3.org/2000/svg">
<path d="M17 16H2C1.46957 16 0.960859 15.7893 0.585786 15.4142C0.210714 15.0391 0 14.5304 0 14V2C0 0.89 0.89 0 2 0H8L10 2H17C18.097 2 19 2.903 19 4H2V14L4.14 6H21.21L18.93 14.5C18.7 15.37 17.92 16 17 16Z" fill="#8F9395" fill-opacity="0.3"/>
<ellipse cx="10.6" cy="8.6" rx="0.8" ry="0.8" fill="#F73D48"/>
<path d="M11.95 8.6C11.95 9.34558 11.3456 9.95 10.6 9.95C9.85442 9.95 9.25 9.34558 9.25 8.6C9.25 7.85442 9.85442 7.25 10.6 7.25C11.3456 7.25 11.95 7.85442 11.95 8.6Z" stroke="#040707" stroke-width="0.5"/>
<circle cx="13.6" cy="8.6" r="0.8" fill="#F73D48"/>
<path d="M14.95 8.6C14.95 9.34558 14.3456 9.95 13.6 9.95C12.8544 9.95 12.25 9.34558 12.25 8.6C12.25 7.85442 12.8544 7.25 13.6 7.25C14.3456 7.25 14.95 7.85442 14.95 8.6Z" stroke="#040707" stroke-width="0.5"/>
<circle cx="16.7" cy="8.6" r="0.8" fill="#F73D48"/>
<path d="M18.05 8.6C18.05 9.34558 17.4456 9.95 16.7 9.95C15.9544 9.95 15.35 9.34558 15.35 8.6C15.35 7.85442 15.9544 7.25 16.7 7.25C17.4456 7.25 18.05 7.85442 18.05 8.6Z" stroke="#040707" stroke-width="0.5"/>
<ellipse cx="19.7" cy="8.6" rx="0.8" ry="0.8" fill="#F73D48"/>
<path d="M21.05 8.6C21.05 9.34558 20.4456 9.95 19.7 9.95C18.9544 9.95 18.35 9.34558 18.35 8.6C18.35 7.85442 18.9544 7.25 19.7 7.25C20.4456 7.25 21.05 7.85442 21.05 8.6Z" stroke="#040707" stroke-width="0.5"/>
<ellipse cx="10.6" cy="11.6" rx="0.8" ry="0.8" fill="#F73D48"/>
<path d="M11.95 11.6C11.95 12.3456 11.3456 12.95 10.6 12.95C9.85442 12.95 9.25 12.3456 9.25 11.6C9.25 10.8544 9.85442 10.25 10.6 10.25C11.3456 10.25 11.95 10.8544 11.95 11.6Z" stroke="#040707" stroke-width="0.5"/>
<ellipse cx="13.6" cy="11.6" rx="0.8" ry="0.8" fill="#F73D48"/>
<path d="M14.95 11.6C14.95 12.3456 14.3456 12.95 13.6 12.95C12.8544 12.95 12.25 12.3456 12.25 11.6C12.25 10.8544 12.8544 10.25 13.6 10.25C14.3456 10.25 14.95 10.8544 14.95 11.6Z" stroke="#040707" stroke-width="0.5"/>
<ellipse cx="16.7" cy="11.6" rx="0.8" ry="0.8" fill="#F73D48"/>
<path d="M18.05 11.6C18.05 12.3456 17.4456 12.95 16.7 12.95C15.9544 12.95 15.35 12.3456 15.35 11.6C15.35 10.8544 15.9544 10.25 16.7 10.25C17.4456 10.25 18.05 10.8544 18.05 11.6Z" stroke="#040707" stroke-width="0.5"/>
<ellipse cx="19.7" cy="11.6" rx="0.8" ry="0.8" fill="#F73D48"/>
<path d="M21.05 11.6C21.05 12.3456 20.4456 12.95 19.7 12.95C18.9544 12.95 18.35 12.3456 18.35 11.6C18.35 10.8544 18.9544 10.25 19.7 10.25C20.4456 10.25 21.05 10.8544 21.05 11.6Z" stroke="#040707" stroke-width="0.5"/>
<ellipse cx="10.6" cy="14.6" rx="0.8" ry="0.8" fill="#F73D48"/>
<path d="M11.95 14.6C11.95 15.3456 11.3456 15.95 10.6 15.95C9.85442 15.95 9.25 15.3456 9.25 14.6C9.25 13.8544 9.85442 13.25 10.6 13.25C11.3456 13.25 11.95 13.8544 11.95 14.6Z" stroke="#040707" stroke-width="0.5"/>
<circle cx="13.6" cy="14.6" r="0.8" fill="#F73D48"/>
<path d="M14.95 14.6C14.95 15.3456 14.3456 15.95 13.6 15.95C12.8544 15.95 12.25 15.3456 12.25 14.6C12.25 13.8544 12.8544 13.25 13.6 13.25C14.3456 13.25 14.95 13.8544 14.95 14.6Z" stroke="#040707" stroke-width="0.5"/>
<circle cx="16.7" cy="14.6" r="0.8" fill="#F73D48"/>
<path d="M18.05 14.6C18.05 15.3456 17.4456 15.95 16.7 15.95C15.9544 15.95 15.35 15.3456 15.35 14.6C15.35 13.8544 15.9544 13.25 16.7 13.25C17.4456 13.25 18.05 13.8544 18.05 14.6Z" stroke="#040707" stroke-width="0.5"/>
<ellipse cx="19.7" cy="14.6" rx="0.8" ry="0.8" fill="#F73D48"/>
<path d="M21.05 14.6C21.05 15.3456 20.4456 15.95 19.7 15.95C18.9544 15.95 18.35 15.3456 18.35 14.6C18.35 13.8544 18.9544 13.25 19.7 13.25C20.4456 13.25 21.05 13.8544 21.05 14.6Z" stroke="#040707" stroke-width="0.5"/>
<ellipse cx="10.6" cy="10.1" rx="0.4" ry="0.4" fill="#F73D48"/>
<ellipse cx="13.7" cy="10.1" rx="0.4" ry="0.4" fill="#F73D48"/>
<ellipse cx="16.7" cy="10.1" rx="0.4" ry="0.4" fill="#F73D48"/>
<ellipse cx="19.7" cy="10.1" rx="0.4" ry="0.4" fill="#F73D48"/>
<ellipse cx="10.6" cy="13.1" rx="0.4" ry="0.399998" fill="#F73D48"/>
<ellipse cx="13.7" cy="13.1" rx="0.4" ry="0.399998" fill="#F73D48"/>
<ellipse cx="16.7" cy="13.1" rx="0.4" ry="0.399998" fill="#F73D48"/>
<ellipse cx="19.7" cy="13.1" rx="0.4" ry="0.399998" fill="#F73D48"/>
<circle cx="12.1" cy="8.6" r="0.4" fill="#F73D48"/>
<ellipse cx="12.1" cy="14.6" rx="0.4" ry="0.4" fill="#F73D48"/>
<ellipse cx="12.1" cy="11.6" rx="0.4" ry="0.4" fill="#F73D48"/>
<ellipse cx="15.1" cy="8.6" rx="0.4" ry="0.4" fill="#F73D48"/>
<circle cx="15.1" cy="14.6" r="0.4" fill="#F73D48"/>
<ellipse cx="15.1" cy="11.6" rx="0.4" ry="0.4" fill="#F73D48"/>
<ellipse cx="18.2" cy="8.6" rx="0.4" ry="0.4" fill="#F73D48"/>
<ellipse cx="18.2" cy="14.6" rx="0.4" ry="0.4" fill="#F73D48"/>
<ellipse cx="18.2" cy="11.6" rx="0.4" ry="0.4" fill="#F73D48"/>
</svg>
