<svg xmlns="http://www.w3.org/2000/svg" viewBox="0 0 21.21 17.3"><defs><style>.cls-1{fill:#00897b;fill-rule:evenodd;}.cls-2{fill:#b2dfdb;}</style></defs><title>folder-pipe-open</title><g id="Layer_2" data-name="Layer 2"><g id="Layer_1-2" data-name="Layer 1"><path class="cls-1" d="M17,16H2a2,2,0,0,1-2-2V2A2,2,0,0,1,2,0H8l2,2h7a2,2,0,0,1,2,2H2V14L4.14,6H21.21l-2.28,8.5A2,2,0,0,1,17,16Z"/><path class="cls-2" d="M20.7,12.81H19.58v1.12H16.2V12.24h1.13V11.12H16.2V8.31a1.13,1.13,0,0,0-1.07-1.13h-4.5V6.06H9.46v4.55h1.12V9.43H14v1.69H12.83v1.12H14v2.82a1.12,1.12,0,0,0,1.13,1.12h4.55V17.3h1.12"/></g></g></svg>