<svg xmlns="http://www.w3.org/2000/svg" viewBox="0 0 16 16">
<path fill="#8d6e63" d="m6.922 3.768-.644-.536A1 1 0 0 0 5.638 3H2a1 1 0 0 0-1 1v8a1 1 0 0 0 1 1h12a1 1 0 0 0 1-1V5a1 1 0 0 0-1-1H7.562a1 1 0 0 1-.64-.232" id="folder"/>
<g id="motive"><path fill="#5d4037" d="M15.799 10.3945c-0.514-0.506-3.083-0.822-3.893-0.9135a2.5 2.5 0 0 0 0.1-0.2945 3 3 0 0 1 0.3535-0.1345c0.015 0.046 0.0855 0.2195 0.1255 0.3025a1.5825 1.5825 0 0 0 1.7665-1.39 1.5 1.5 0 0 0 0.0135-0.2035 2 2 0 0 1 0.6205-1.287c-0.833-0.249-2.031 0.385-2.432 1.3285a2.5 2.5 0 0 0-0.451-0.1265A2.198 2.198 0 0 0 9.875 6a4.035 4.035 0 0 0-3.873 4.182l0.001 0.035c0 2.23 1.485 4.1825 2.3235 4.1825a0.825 0.825 0 0 0 0.7555-0.5335c0.062 0.173 0.2525 0.71 0.315 0.847 0.092 0.202 0.52 0.3775 0.707 0.1675a0.6775 0.6775 0 0 0 0.9215-0.146 0.68 0.68 0 0 0 0.862-0.445 0.5 0.5 0 0 0 0.0195-0.0745c0.227-0.013 0.339-0.34 0.289-0.6a6.5 6.5 0 0 0-0.5795-1.117c0.302 0.2515 1.066 0.3225 1.1585 0 0.4865 0.391 1.244 0.186 1.305-0.132 0.59 0.157 1.268-0.188 1.157-0.6065a0.815 0.815 0 0 0 0.7625-0.8595 0.83 0.83 0 0 0-0.2005-0.5055"/><path fill="#03a9f4" d="M13.126 8.187a3.7 3.7 0 0 1 0.785-1.151 2.07 2.07 0 0 0-0.918 1.06 3 3 0 0 0-0.323-0.185 2.1 2.1 0 0 1 1.712-1.2095c-0.4995 0.464-0.322 1.4275-0.732 1.938a5.5 5.5 0 0 0-0.524-0.453Zm-0.323 0.677a2 2 0 0 1 0.0175-0.195 1.7 1.7 0 0 0-0.3-0.041 1.2 1.2 0 0 0 0.104 0.4445 1.525 1.525 0 0 0 0.8145-0.231 2.75 2.75 0 0 0-0.5495-0.159c-0.02 0.0425-0.0685 0.15-0.0865 0.181Z"/><path fill="#4caf50" d="M11.4235 12.152v0.0015a5.5 5.5 0 0 1-0.16-0.4025c0.2375 0.354 0.981 0.1715 0.942-0.146 0.364 0.281 1.113-0.0465 0.9425-0.44 0.365 0.174 0.7805-0.176 0.6875-0.3285 0.6215 0.1225 1.217 0.245 1.404 0.294a0.715 0.715 0 0 1-0.8335 0.2525c0.23 0.3215-0.217 0.707-0.84 0.495 0.137 0.315-0.4175 0.6-1.048 0.2705 0.008 0.316-0.7825 0.3525-1.095 0.0035Zm1.2325-1.5965c0.7215 0.0565 1.914 0.167 2.6525 0.2725-0.0465-0.246-0.174-0.3165-0.575-0.427-0.431 0.0475-1.525 0.1575-2.0775 0.1545"/><path fill="#ffca28" d="M12.205 11.605c0.3645 0.281 1.1135-0.0465 0.943-0.44 0.365 0.174 0.7805-0.176 0.6875-0.3285-0.735-0.145-1.506-0.291-1.6805-0.3165a26.5 26.5 0 0 1 0.501 0.035c0.553 0.0035 1.6465-0.1065 2.078-0.1535a20.5 20.5 0 0 0-3.108-0.5115 1.5 1.5 0 0 1-0.275 0.3075 2.41 2.41 0 0 1-2.075 1.554 2.75 2.75 0 0 1-0.8485-0.1465 1.77 1.77 0 0 1-1.716 0.037 3.47 3.47 0 0 0 3.178 2.1605c1.1675 0 1.685-1.2215 1.5715-1.545-0.0275-0.078-0.136-0.3385-0.197-0.5065 0.237 0.354 0.9805 0.1715 0.9415-0.1455Z"/><path fill="#e0e0e0" d="M11.498 9.147a3.35 3.35 0 0 1 0.7985-0.362q-0.008-0.058-0.0115-0.1165c-0.223 0.055-0.6425 0.239-0.883-0.015 0.5075 0.157 0.7605-0.14 1.134-0.14a2.35 2.35 0 0 1 0.7895 0.1645 2.635 2.635 0 0 0-1.6775-0.767 1.225 1.225 0 0 0-0.15 1.236"/><path fill="#f4511e" d="M8.4275 11.605a2.75 2.75 0 0 0 0.849 0.1465 2.41 2.41 0 0 0 2.074-1.5545 2.625 2.625 0 0 1-1.7365 0.5055 2.71 2.71 0 0 0 1.77-1.147 1.57 1.57 0 0 1 0.157-1.918 1.76 1.76 0 0 0-1.6665-1.2 3.587 3.587 0 0 0-3.4465 3.7155l0.002 0.0635a3.7 3.7 0 0 0 0.2815 1.425 1.77 1.77 0 0 0 1.716-0.037Z"/><path fill="#ffca28" d="M8.9925 8.3095a0.87 0.87 0 1 0 0.87-0.8915 0.88 0.88 0 0 0-0.87 0.8915"/><path fill="#5d4037" d="M9.3415 8.3095a0.521 0.521 0 1 0 0.521-0.534 0.5275 0.5275 0 0 0-0.521 0.534"/><ellipse cx="9.8625" cy="8.0725" fill="#fafafa" rx="0.3035" ry="0.1935"/></g>
</svg>
