<svg xmlns="http://www.w3.org/2000/svg" viewBox="0 0 32 32">
  <path d="M28.96692,12H9.44152a2,2,0,0,0-1.89737,1.36754L4,24V10H28a2,2,0,0,0-2-2H15.1241a2,2,0,0,1-1.28038-.46357L12.5563,6.46357A2,2,0,0,0,11.27592,6H4A2,2,0,0,0,2,8V24a2,2,0,0,0,2,2H26l4.80523-11.21213A2,2,0,0,0,28.96692,12Z" style="fill: #0277bd"/>
  <g>
    <polygon points="22 18 22 28 18 28 18 22 16 24 14 22 14 28 10 28 10 18 14 18 16 20 18 18 22 18" style="fill: #b3e5fc;fill-rule: evenodd"/>
    <polygon points="32 24 28 29 24 24 26 24 26 18 30 18 30 24 32 24" style="fill: #b3e5fc;fill-rule: evenodd"/>
  </g>
</svg>
