<svg xmlns="http://www.w3.org/2000/svg" viewBox="0 0 16 16">
<path id="folder" fill="#f06292" d="m6.922 3.768-.644-.536A1 1 0 0 0 5.638 3H2a1 1 0 0 0-1 1v8a1 1 0 0 0 1 1h12a1 1 0 0 0 1-1V5a1 1 0 0 0-1-1H7.562a1 1 0 0 1-.64-.232" />
<path id="motive" fill="#fce4ec" d="m 15.948445,6.2987647 a 1.5,1.4995231 0 0 0 -0.765,-0.9556959 3.975,3.9737364 0 0 0 -3.174,-0.02499 8.7,8.6972345 0 0 0 -2.932,1.7779343 C 8.1624449,8.0007255 7.9334449,8.8434575 8.0154449,9.2903155 c 0.173,0.9446995 1.0905001,1.6129875 1.8290001,2.1493165 0.157,0.114964 0.309,0.224929 0.438,0.328396 -0.46,0.256418 -1.4580001,0.874221 -1.7415001,1.536511 a 1.45,1.4495391 0 0 0 -0.037,1.173127 0.785,0.7847505 0 0 0 0.437,0.451356 A 1.75,1.7494437 0 0 0 9.433945,15 a 2.07,2.0693419 0 0 0 1.719,-1.012178 2.515,2.5142005 0 0 0 0.275,-1.942382 2.25,2.2492847 0 0 1 0.73,-0.01699 1.32,1.3195804 0 0 1 0.9635,0.479847 0.72,0.71977115 0 0 1 0.152,0.483846 0.6,0.59980925 0 0 1 -0.275,0.402372 c -0.0795,0.05198 -0.178,0.116463 -0.155,0.25192 0.014,0.07548 0.065,0.196438 0.266,0.15645 a 0.995,0.9946837 0 0 0 0.696,-0.920209 1.45,1.4495391 0 0 0 -0.4005,-1.025174 1.95,1.9493801 0 0 0 -1.4485,-0.567319 3.25,3.2489668 0 0 0 -0.9065,0.112964 6.5,6.497934 0 0 0 -0.749,-0.672786 c -0.5825,-0.47335 -1.1325,-0.9207075 -1.1,-1.5620035 0.0425,-0.8267375 0.836,-1.652475 2.358,-2.4537198 1.35,-0.710774 2.447,-0.7347665 3.02,-0.5203345 a 0.72,0.71977115 0 0 1 0.429,0.3368925 1.115,1.1146455 0 0 1 -0.1285,0.9327034 3.285,3.2839557 0 0 1 -2.5115,1.5520069 1.28,1.2795931 0 0 1 -1.1125,-0.2824105 c -0.0945,-0.109465 -0.185,-0.2114325 -0.325,-0.131458 -0.166,0.097969 -0.0875,0.3124005 -0.0615,0.383878 a 1.3,1.2995867 0 0 0 0.789,0.6707865 3.66,3.6588365 0 0 0 2.376,-0.2409235 c 1.3155,-0.5388285 2.192,-1.9658749 1.915,-3.1170088 z m -5.298,6.7608503 a 1.5,1.4995231 0 0 1 -0.065,0.172445 1.7,1.6994596 0 0 1 -0.2585,0.397373 c -0.324,0.371382 -0.7495,0.488845 -0.888,0.403872 a 0.135,0.13495709 0 0 1 -0.044,-0.09347 1.25,1.2496026 0 0 1 0.371,-0.851729 3.9,3.8987602 0 0 1 0.9325,-0.722271 1.525,1.5245152 0 0 1 -0.048,0.69378" />
</svg>
