<svg xmlns="http://www.w3.org/2000/svg" viewBox="0 0 32 32">
  <path d="M28.96692,12H9.44152a2,2,0,0,0-1.89737,1.36754L4,24V10H28a2,2,0,0,0-2-2H15.1241a2,2,0,0,1-1.28038-.46357L12.5563,6.46357A2,2,0,0,0,11.27592,6H4A2,2,0,0,0,2,8V24a2,2,0,0,0,2,2H26l4.80523-11.21213A2,2,0,0,0,28.96692,12Z" style="fill: #ff9800"/>
  <g>
    <path d="M30.97314,14.25513l-6.95488-3.98408a2.04565,2.04565,0,0,0-2.03365,0l-6.95445,3.98381A2.0483,2.0483,0,0,0,14,16.03219v7.93942a1.92867,1.92867,0,0,0,1.01569,1.708L16,26.24041v-9.306a1.72816,1.72816,0,0,1,.14025-.58121,1.63747,1.63747,0,0,1,.68841-.7974L22.22741,12.464a1.58484,1.58484,0,0,1,1.57523,0l5.39875,3.09174a1.58956,1.58956,0,0,1,.74851.98351,1.573,1.573,0,0,1,.0501.3951v6.13786a1.58413,1.58413,0,0,1-.79689,1.37467L23.79672,27.543A1.57749,1.57749,0,0,1,23,27.75232v2.24625a2.05452,2.05452,0,0,0,1.01919-.26985l6.95114-3.98192A2.0473,2.0473,0,0,0,32,23.97032V16.03219a2.00272,2.00272,0,0,0-.07569-.54855A2.03,2.03,0,0,0,30.97314,14.25513Z" style="fill: #fff3e0"/>
    <path d="M23.53869,25.41219l3.88986-2.22809a1.13581,1.13581,0,0,0,.57128-.98558v-4.402a1.13842,1.13842,0,0,0-.57287-.988l-3.86239-2.211a1.13662,1.13662,0,0,0-1.12948.00009l-3.86232,2.21175a1.14764,1.14764,0,0,0-.51135.6172,1.23989,1.23989,0,0,0-.06142.37l-.014,9.57809L20,28.50554V24.03686l2.40224,1.37533a1.14509,1.14509,0,0,0,1.13647,0ZM20.339,21.91252A.67456.67456,0,0,1,20,21.32733V18.67824a.69682.69682,0,0,1,.04041-.23243.67922.67922,0,0,1,.30311-.3595l2.3216-1.32888a.67556.67556,0,0,1,.67121,0l2.3216,1.32888a.68068.68068,0,0,1,.32764.45045A.92142.92142,0,0,1,26,18.67824v2.6491a.67457.67457,0,0,1-.33946.58544l-2.32207,1.32915a.67921.67921,0,0,1-.33919.091.69283.69283,0,0,1-.33919-.08951Z" style="fill: #fff3e0"/>
  </g>
</svg>
