<?xml version="1.0" encoding="UTF-8" standalone="no"?>
<!-- Created with Inkscape (http://www.inkscape.org/) -->

<svg
   width="16"
   height="16"
   viewBox="0 0 16 16"
   version="1.1"
   id="svg1"
   xml:space="preserve"
   xmlns="http://www.w3.org/2000/svg"
   xmlns:svg="http://www.w3.org/2000/svg"><defs
     id="defs1" /><path
     d="M 6.922,3.768 6.278,3.232 A 1,1 0 0 0 5.638,3 H 2 A 1,1 0 0 0 1,4 v 8 a 1,1 0 0 0 1,1 h 12 a 1,1 0 0 0 1,-1 V 5 A 1,1 0 0 0 14,4 H 7.562 A 1,1 0 0 1 6.922,3.768"
     fill="#90a4ae"
     id="path1"
     style="fill:#7e57c2;fill-opacity:1" /><path
     style="fill:#d1c4e9;fill-opacity:1;stroke:none;stroke-width:1px;stroke-linecap:butt;stroke-linejoin:miter;stroke-opacity:1"
     d="M 15,6 H 7 C 6.6309751,6 6.4461668,6.4461668 6.7071068,6.7071068 L 10,10 v 4 l 1.292893,1.292893 A 0.41421356,0.41421356 0 0 0 12,15 V 10 L 15.292893,6.7071068 C 15.553833,6.4461669 15.369025,6.0000002 15,6 Z"
     id="path2" /></svg>
