<svg xmlns="http://www.w3.org/2000/svg" viewBox="0 0 32 32"><path fill="#ff6e40" d="M28.967 12H9.442a2 2 0 0 0-1.898 1.368L4 24V10h24a2 2 0 0 0-2-2H15.124a2 2 0 0 1-1.28-.464l-1.288-1.072A2 2 0 0 0 11.276 6H4a2 2 0 0 0-2 2v16a2 2 0 0 0 2 2h22l4.805-11.212A2 2 0 0 0 28.967 12"/><path fill="#ffccbc" d="m23 9-9 3 1 12 8 4 8-4 1-12Zm-1.869 2.785a2.3 2.3 0 0 1 1.124.324 5.3 5.3 0 0 0 1.214.305 6.63 6.63 0 0 1 4.433 2.834c.448.875.356 1.348-.33 1.7-.59.303-1.799.157-3.554-.432l-1.481-.497-.527.199a3.53 3.53 0 0 0-1.84 1.73 2.9 2.9 0 0 0-.218 1.622 2.9 2.9 0 0 0 .41 1.645c.35.613 1.15 1.395 1.287 1.259.038-.038-.044-.287-.182-.553a1.1 1.1 0 0 1-.178-.595c.038-.061.4.165.802.504a5.6 5.6 0 0 0 2.898 1.333c.787.081.967-.064.377-.307a1.8 1.8 0 0 1-.547-.363c-.23-.252-.243-.244.738-.462a4.6 4.6 0 0 0 1.887-.996c.023-.073-.173-.102-.495-.077-.292.023-.53-.006-.53-.067a3 3 0 0 1 .53-.656 4.93 4.93 0 0 0 1.585-3.596l.08-1.114.258.53a3.2 3.2 0 0 1 .133 2.148c-.168.605-.056.672.253.152.382-.644.505-.543.438.364a3.95 3.95 0 0 1-1.183 2.561c-.627.68-.551.803.207.34.731-.449.83-.379.453.325a6.08 6.08 0 0 1-3.782 2.831 6.2 6.2 0 0 1-2.487.16 7.33 7.33 0 0 1-5.44-3.849 13 13 0 0 0-.836-1.437c-.403-.542-.436-.785-.166-1.197a.92.92 0 0 0 .111-.73c-.257-1.451-.248-1.496.337-2.088.512-.513.543-.581.543-1.182 0-.52.052-.69.29-.925a1 1 0 0 1 .561-.291 2.88 2.88 0 0 0 1.624-.865 1.67 1.67 0 0 1 1.203-.587"/></svg>