<svg xmlns="http://www.w3.org/2000/svg" xml:space="preserve" style="enable-background:new 0 0 24 24" viewBox="0 0 24 24"><path d="M3.5 20c-.4 0-.7-.2-1-.5-.3-.3-.5-.7-.5-1v-13c0-.4.2-.7.5-1s.6-.5 1-.5h6.9l1.5 1.5h8.4c.4 0 .7.2 1 .5.3.3.5.7.5 1H3.5v11.5L6 8.5h17.2l-2.6 10.4c-.1.4-.3.7-.5.9-.3.2-.6.3-1 .3H3.5z" style="fill:#ab47bc"/><path d="m16.8 20.8-.3-1.7-.6-.3c-.2-.1-.4-.2-.5-.3l-1.6.7-1.3-2.3 1.5-1.1v-1.2l-1.5-1.1 1.3-2.3 1.6.7c.1-.1.3-.2.5-.3s.4-.2.6-.2l.3-1.8h2.6l.3 1.7.6.3c.2.1.4.2.5.4l1.6-.7 1.3 2.3-1.5 1.1v1.2l1.5 1.1-1.3 2.3-1.6-.7c-.1.1-.3.2-.5.4l-.6.3-.3 1.7h-2.6zm1.2-3.7c.5 0 .9-.2 1.3-.5s.5-.8.5-1.3-.2-.9-.5-1.3c-.4-.4-.8-.5-1.3-.5s-.9.2-1.3.5c-.4.4-.5.8-.5 1.3s.2.9.5 1.3c.4.3.8.5 1.3.5z" style="fill:#e1bee7"/></svg>