<svg xmlns="http://www.w3.org/2000/svg" viewBox="0 0 16 16"><path id="folder" fill="#1e88e5" d="m6.922 3.768-.644-.536A1 1 0 0 0 5.638 3H2a1 1 0 0 0-1 1v8a1 1 0 0 0 1 1h12a1 1 0 0 0 1-1V5a1 1 0 0 0-1-1H7.562a1 1 0 0 1-.64-.232"/><path id="motive" fill="#bbdefb" d="M6 9H4.25a.25.25 0 0 0-.25.25v4.5a.25.25 0 0 0 .25.25h.5a.25.25 0 0 0 .25-.25V12h1a1 1 0 0 0 1-1v-1a1 1 0 0 0-1-1m0 1.75a.25.25 0 0 1-.25.25H5v-1h.75a.25.25 0 0 1 .25.25ZM14 9h-1.75a.25.25 0 0 0-.25.25v4.5a.25.25 0 0 0 .25.25h.5a.25.25 0 0 0 .25-.25V12h1a1 1 0 0 0 1-1v-1a1 1 0 0 0-1-1m0 1.75a.25.25 0 0 1-.25.25H13v-1h.75a.25.25 0 0 1 .25.25ZM10 9H9V7.25A.25.25 0 0 0 8.75 7h-.5a.25.25 0 0 0-.25.25v4.5a.25.25 0 0 0 .25.25h.5a.25.25 0 0 0 .25-.25V10h.75a.25.25 0 0 1 .25.25v1.5a.25.25 0 0 0 .25.25h.5a.25.25 0 0 0 .25-.25V10a1 1 0 0 0-1-1"/></svg>