<svg xmlns="http://www.w3.org/2000/svg" viewBox="0 0 16 16"><path id="folder" fill="#ff5252" d="m6.922 3.768-.644-.536A1 1 0 0 0 5.638 3H2a1 1 0 0 0-1 1v8a1 1 0 0 0 1 1h12a1 1 0 0 0 1-1V5a1 1 0 0 0-1-1H7.562a1 1 0 0 1-.64-.232"/><path id="motive" fill="#ffcdd2" d="M5.25 13H6v-3h-.75a.25.25 0 0 0-.25.25v2.5a.25.25 0 0 0 .25.25M15 10v3h.75a.25.25 0 0 0 .25-.25v-2.5a.25.25 0 0 0-.25-.25Zm-4.25-4h-.5a.25.25 0 0 0-.25.25V8H7.25a.25.25 0 0 0-.25.25v5.5a.25.25 0 0 0 .25.25h6.5a.25.25 0 0 0 .25-.25v-5.5a.25.25 0 0 0-.25-.25H11V6.25a.25.25 0 0 0-.25-.25M9 9a1 1 0 1 1-1 1 1 1 0 0 1 1-1m4 4H8v-1h5zm-1-4a1 1 0 1 1-1 1 1 1 0 0 1 1-1"/></svg>