<svg xmlns="http://www.w3.org/2000/svg" viewBox="0 0 16 16"><path id="folder" fill="#f9a825" d="m6.922 3.768-.644-.536A1 1 0 0 0 5.638 3H2a1 1 0 0 0-1 1v8a1 1 0 0 0 1 1h12a1 1 0 0 0 1-1V5a1 1 0 0 0-1-1H7.562a1 1 0 0 1-.64-.232"/><path id="motive" fill="#fffde7" d="M12 14v-1h1.5q.213 0 .357-.143.144-.144.143-.357v-1q0-.475.275-.863.275-.387.725-.55v-.175q-.45-.162-.725-.55Q14 8.976 14 8.5v-1q0-.213-.143-.356Q13.713 7 13.5 7H12V6h1.5q.625 0 1.063.438Q15 6.875 15 7.5v1q0 .213.143.356.144.143.357.144h.5v2h-.5q-.213 0-.357.143-.144.144-.143.357v1q0 .625-.437 1.063Q14.125 14 13.5 14Zm-3.5 0q-.625 0-1.062-.437Q7 13.125 7 12.5v-1q0-.213-.144-.357Q6.714 11 6.5 11H6V9h.5q.213 0 .356-.143Q7 8.713 7 8.5v-1q0-.625.438-1.062Q7.875 6 8.5 6H10v1H8.5q-.213 0-.357.144Q8 7.287 8 7.5v1q0 .475-.275.863-.275.387-.725.55v.174q.45.163.725.55.275.388.275.863v1q0 .213.143.357.144.144.357.143H10v1z"/></svg>