<svg xmlns="http://www.w3.org/2000/svg" viewBox="0 0 16 16">
<path id="folder" fill="#03a9f4" d="M14.483 6H4.721a1 1 0 0 0-.949.684L2 12V5h12a1 1 0 0 0-1-1H7.562a1 1 0 0 1-.64-.232l-.644-.536A1 1 0 0 0 5.638 3H2a1 1 0 0 0-1 1v8a1 1 0 0 0 1 1h11l2.403-5.606A1 1 0 0 0 14.483 6" />
<path id="motive" fill="#b3e5fc" d="m 14,14 a 1,1 0 0 0 1,-1 V 8 A 1,1 0 0 0 14,7 H 6 A 1,1 0 0 0 5,8 v 5 a 1,1 0 0 0 1,1 H 4 v 1 h 12 v -1 z m 0,-1 h -4 v -1 h 4 z M 6,8.868 6.507,8.006 10.0185,10 v 1 L 6.507,13 6,12.1375 8.779,10.5025 Z" />
</svg>
