<svg xmlns="http://www.w3.org/2000/svg" viewBox="0 0 16 16">
<path id="folder" fill="#1e88e5" d="m6.922 3.768-.644-.536A1 1 0 0 0 5.638 3H2a1 1 0 0 0-1 1v8a1 1 0 0 0 1 1h12a1 1 0 0 0 1-1V5a1 1 0 0 0-1-1H7.562a1 1 0 0 1-.64-.232" />
<path id="motive" fill="#bbdefb" d="m 14,11 1.862,-0.931 A 0.25,0.25 0 0 0 16,9.8455 V 6.25 A 0.25,0.25 0 0 0 15.75,6 H 12.1545 A 0.25,0.25 0 0 0 11.931,6.138 L 11,8 H 8.25 A 0.25,0.25 0 0 0 8,8.25 V 10 L 8.586,10.586 9.293,9.8785 10,10.586 9.293,11.293 10.707,12.707 11.414,12 12.1215,12.707 11.414,13.414 12,14 h 1.75 A 0.25,0.25 0 0 0 14,13.75 Z M 14,9 A 1,1 0 1 1 15,8 1,1 0 0 1 14,9 M 8,14 V 12 H 7 v 3 h 3 v -1 z" />
</svg>
