<svg xmlns="http://www.w3.org/2000/svg" viewBox="0 0 32 32">
  <path d="M13.84376,7.53645l-1.28749-1.0729A2,2,0,0,0,11.27591,6H4A2,2,0,0,0,2,8V24a2,2,0,0,0,2,2H28a2,2,0,0,0,2-2V10a2,2,0,0,0-2-2H15.12412A2,2,0,0,1,13.84376,7.53645Z" style="fill: #fbc02d"/>
  <g>
    <polygon points="20 18 16 18 16 20 22 20 22 18 22 14 20 14 20 18" style="fill: #fffde7;fill-rule: evenodd"/>
    <polygon points="28 18 28 14 26 14 26 20 28 20 32 20 32 18 28 18" style="fill: #fffde7;fill-rule: evenodd"/>
    <polygon points="16 26 20 26 20 30 22 30 22 26 22 24 16 24 16 26" style="fill: #fffde7;fill-rule: evenodd"/>
    <polygon points="26 26 26 30 28 30 28 26 32 26 32 24 26 24 26 26" style="fill: #fffde7;fill-rule: evenodd"/>
  </g>
</svg>
