<svg xmlns="http://www.w3.org/2000/svg" viewBox="0 0 21.57 16.69"><defs><style>.cls-1{fill:#00897b;}.cls-2{fill:#b2dfdb;}</style></defs><title>folder-pipe</title><g id="Layer_2" data-name="Layer 2"><g id="Layer_1-2" data-name="Layer 1"><path class="cls-1" d="M8,0H2A2,2,0,0,0,0,2V14a2,2,0,0,0,2,2H18a2,2,0,0,0,2-2V4a2,2,0,0,0-2-2H10Z"/><path class="cls-2" d="M21.57,12.2H20.45v1.12H17.07V11.63H18.2V10.51H17.07V7.7A1.13,1.13,0,0,0,16,6.57h-4.5V5.45H10.33V10h1.12V8.82h3.37v1.69H13.7v1.12h1.12v2.82A1.13,1.13,0,0,0,16,15.57h4.5v1.12h1.12"/></g></g></svg>