<?xml version="1.0" encoding="UTF-8" standalone="no"?>
<svg
   version="1.1"
   width="24"
   height="24"
   viewBox="0 0 24 24"
   id="svg155"
   sodipodi:docname="folder.svg"
   inkscape:version="1.1.2 (0a00cf5339, 2022-02-04, custom)"
   xmlns:inkscape="http://www.inkscape.org/namespaces/inkscape"
   xmlns:sodipodi="http://sodipodi.sourceforge.net/DTD/sodipodi-0.dtd"
   xmlns="http://www.w3.org/2000/svg"
   xmlns:svg="http://www.w3.org/2000/svg">
  <defs
     id="defs159" />
  <sodipodi:namedview
     id="namedview157"
     pagecolor="#505050"
     bordercolor="#eeeeee"
     borderopacity="1"
     inkscape:pageshadow="0"
     inkscape:pageopacity="0"
     inkscape:pagecheckerboard="0"
     showgrid="false"
     inkscape:zoom="29.5"
     inkscape:cx="12.016949"
     inkscape:cy="12"
     inkscape:window-width="1280"
     inkscape:window-height="1011"
     inkscape:window-x="1280"
     inkscape:window-y="32"
     inkscape:window-maximized="0"
     inkscape:current-layer="svg155" />
  <path
     d="M10,4H4C2.89,4 2,4.89 2,6V18A2,2 0 0,0 4,20H20A2,2 0 0,0 22,18V8C22,6.89 21.1,6 20,6H12L10,4Z"
     id="path153"
     style="fill:#00897b;fill-opacity:1" />
  <path
     d="m 13.499425,14.035714 c 0,-1.00935 0.820452,-1.829815 1.828432,-1.829815 1.009062,0 1.829668,0.820465 1.829668,1.829815 a 0.66399863,0.66388319 0 0 1 -0.663689,0.66481 0.66399863,0.66388319 0 0 1 -0.663691,-0.66481 0.50136149,0.5012743 0 0 0 -0.502135,-0.500039 0.50120688,0.50111976 0 0 0 -0.50105,0.500039 c 0,0.367725 -0.296982,0.66481 -0.663692,0.66481 -0.366707,0 -0.66369,-0.297085 -0.66369,-0.66481 m 7.575152,3.074575 A 0.66384403,0.66372862 0 0 1 20.411042,17.7751 h -6.158105 a 0.66384403,0.66372862 0 0 1 -0.663691,-0.664811 0.66399863,0.66388319 0 0 1 0.663691,-0.664966 h 6.158105 a 0.66399863,0.66388319 0 0 1 0.663688,0.664966 m -2.877688,-2.70206 a 0.66415322,0.66403775 0 0 1 0.179334,-0.922016 l 1.539335,-1.0398 c 0.301775,-0.209752 0.716716,-0.124895 0.921866,0.176984 a 0.66415322,0.66403775 0 0 1 -0.179333,0.922016 l -1.539332,1.039646 a 0.65286756,0.65275407 0 0 1 -0.370263,0.115625 0.66786357,0.66774747 0 0 1 -0.551607,-0.29245 m 4.21558,4.088099 c 0,0.12551 -0.04992,0.245924 -0.13883,0.334955 l -1.144025,1.144292 a 0.47415221,0.47406977 0 0 1 -0.335168,0.138649 h -7.015044 c -0.125687,0 -0.246118,-0.04992 -0.335012,-0.138649 L 12.300515,18.831284 A 0.47415221,0.47406977 0 0 1 12.161686,18.496329 V 11.48498 c 0,-0.125822 0.04993,-0.246231 0.138675,-0.334956 l 1.144182,-1.144444 a 0.47399762,0.47391521 0 0 1 0.335012,-0.1386491 h 7.015198 c 0.125844,0 0.246277,0.04992 0.335014,0.1386491 l 1.144181,1.144444 a 0.47337923,0.47329692 0 0 1 0.138829,0.334956 z M 23.386437,10.384589 21.892553,8.8906587 A 1.2071015,1.2068918 0 0 0 21.039173,8.537 h -7.505427 a 1.206947,1.2067371 0 0 0 -0.853691,0.353968 l -1.492799,1.493774 A 1.2074106,1.2072009 0 0 0 10.834,11.238131 v 7.504739 c 0,0.32027 0.127233,0.627558 0.353563,0.853696 l 1.493729,1.493929 A 1.2067923,1.2065825 0 0 0 13.534828,21.444 h 7.504189 c 0.320022,0 0.627207,-0.127211 0.853536,-0.353505 l 1.493884,-1.493929 A 1.2071015,1.2068918 0 0 0 23.74,18.74287 v -7.504431 a 1.2075654,1.2073553 0 0 0 -0.353563,-0.85385"
     style="fill:#00bfa5;stroke-width:0.154584"
     id="path273" />
</svg>
