<?xml version="1.0" encoding="UTF-8" standalone="no"?>
<svg
   viewBox="0 0 24 24"
   version="1.1"
   id="svg1"
   sodipodi:docname="folder-cmake.svg"
   xml:space="preserve"
   inkscape:version="1.3 (0e150ed6c4, 2023-07-21)"
   xmlns:inkscape="http://www.inkscape.org/namespaces/inkscape"
   xmlns:sodipodi="http://sodipodi.sourceforge.net/DTD/sodipodi-0.dtd"
   xmlns="http://www.w3.org/2000/svg"
   xmlns:svg="http://www.w3.org/2000/svg"><defs
     id="defs1" /><sodipodi:namedview
     id="namedview1"
     pagecolor="#ffffff"
     bordercolor="#000000"
     borderopacity="0.25"
     inkscape:showpageshadow="2"
     inkscape:pageopacity="0.0"
     inkscape:pagecheckerboard="0"
     inkscape:deskcolor="#d1d1d1"
     inkscape:zoom="36.083333"
     inkscape:cx="11.986143"
     inkscape:cy="12.277136"
     inkscape:window-width="1920"
     inkscape:window-height="1112"
     inkscape:window-x="-8"
     inkscape:window-y="-8"
     inkscape:window-maximized="1"
     inkscape:current-layer="svg1" /><path
     d="M10,4H4C2.89,4 2,4.89 2,6V18A2,2 0 0,0 4,20H20A2,2 0 0,0 22,18V8C22,6.89 21.1,6 20,6H12L10,4Z"
     id="path1"
     inkscape:label="Folder"
     style="fill:#bdbdbd;fill-opacity:1" /><g
     inkscape:groupmode="layer"
     id="layer1"
     inkscape:label="logo"
     style="display:inline"><g
       id="g1"
       transform="matrix(0.64501372,0,0,0.64501372,9.9666185,7.2114927)"><path
         d="m 11.94,2.984 -9.012,18.033 9.875,-8.47 z"
         fill="#1e88e5"
         id="path1-6" /><path
         d="m 11.958,2.982 0.002,0.29 1.312,14.499 -0.002,0.006 0.023,0.26 7.363,2.978 h 0.415 l -0.158,-0.31 -0.114,-0.228 H 20.798 L 11.958,2.983 Z"
         fill="#e53935"
         id="path2" /><path
         d="M 8.558,16.13 2.931,21.014 H 20.674 V 20.998 L 8.559,16.13 Z"
         fill="#7cb342"
         id="path3" /></g></g></svg>
