<svg xmlns="http://www.w3.org/2000/svg" viewBox="0 0 24 24"><path fill="#546e7a" d="M19 20H4a2 2 0 0 1-2-2V6c0-1.1.9-2 2-2h6l2 2h7a2 2 0 0 1 2 2H4v10l2.1-8h17.1l-2.3 8.5c-.2.9-1 1.5-1.9 1.5z"/><path fill="#cfd8dc" d="M16.7 10.7c-2.4-.1-4.3 1.8-4.4 4.1-.1 2.3 1.8 4.3 4.1 4.4h.3c2.4-.1 4.2-2.1 4.1-4.4 0-2.2-1.8-4.1-4.1-4.1zm0 6.6c-1.3 0-2.2-.9-2.2-2.2s.9-2.2 2.2-2.2c1.3 0 2.2.9 2.2 2.2s-1 2.2-2.2 2.2z"/><linearGradient id="a" x1="20.61" x2="14.11" y1="-1194.63" y2="-1201.12" gradientTransform="matrix(1 0 0 -1 0 -1182)" gradientUnits="userSpaceOnUse"><stop offset="0" stop-color="#2196f3"/><stop offset="1" stop-color="#f50057"/></linearGradient><path fill="url(#a)" fill-rule="evenodd" d="M17.1 10V8.4c3.7.2 6.4 3.4 6.2 6.9-.2 3.4-2.8 6-6.2 6.2V20c2.7-.2 4.8-2.7 4.5-5.5-.2-2.4-2.1-4.3-4.5-4.5zm-4.2 8.3c-.7-.8-1.2-1.8-1.3-2.9H10c.1 1.6.7 2.9 1.7 4.1l1.2-1.2zm3.5 3.3V20c-1.1-.1-2.1-.5-2.9-1.3l-1.2 1.2c1.1.9 2.5 1.6 4.1 1.7z"/></svg>