<svg width="16" height="16" viewBox="0 0 16 16" fill="none" xmlns="http://www.w3.org/2000/svg">
<g id="folder-powershell" clip-path="url(#clip0_933_174)">
<path id="folder" d="M6.922 3.768L6.278 3.232C6.09835 3.0822 5.8719 3.0001 5.638 3H2C1.73478 3 1.48043 3.10536 1.29289 3.2929C1.10535 3.48043 1 3.73478 1 4V12C1 12.2652 1.10535 12.5195 1.29289 12.7071C1.48043 12.8946 1.73478 13 2 13H14C14.2652 13 14.5195 12.8946 14.7071 12.7071C14.8946 12.5195 15 12.2652 15 12V5C15 4.73478 14.8946 4.48043 14.7071 4.29289C14.5195 4.10535 14.2652 4 14 4H7.562C7.3281 3.9999 7.10165 3.9178 6.922 3.768Z" fill="#03A9F4"/>
<g id="ps">
<path id="Whitespace" d="M15.7671 9.00094H10.4196C10.3379 9.00299 10.259 9.03109 10.1944 9.08114C10.1298 9.13119 10.0829 9.20054 10.0604 9.27914L9.01056 13.722C8.99956 13.7556 8.99711 13.7914 9.00341 13.8261C9.00971 13.8609 9.02456 13.8936 9.04666 13.9212C9.06871 13.9488 9.09731 13.9704 9.12986 13.9842C9.16236 13.998 9.19786 14.0035 9.23301 14.0002H14.5805C14.6622 13.9981 14.741 13.9699 14.8056 13.9199C14.8701 13.8699 14.917 13.8005 14.9395 13.722L15.9896 9.27889C16.0005 9.24529 16.0029 9.20954 15.9966 9.17479C15.9903 9.14009 15.9754 9.10744 15.9533 9.07989C15.9313 9.05229 15.9027 9.03069 15.8702 9.01689C15.8377 9.00309 15.8022 8.99764 15.7671 9.00094Z" fill="#4FC3F7"/>
<path id="Vector_2" d="M15.7671 9.00094H10.4196C10.3379 9.00299 10.259 9.03109 10.1944 9.08114C10.1298 9.13119 10.0829 9.20054 10.0604 9.27914L9.01056 13.722C8.99956 13.7556 8.99711 13.7914 9.00341 13.8261C9.00971 13.8609 9.02456 13.8936 9.04666 13.9212C9.06871 13.9488 9.09731 13.9704 9.12986 13.9842C9.16236 13.998 9.19786 14.0035 9.23301 14.0002H14.5805C14.6622 13.9981 14.741 13.9699 14.8056 13.9199C14.8701 13.8699 14.917 13.8005 14.9395 13.722L15.9896 9.27889C16.0005 9.24529 16.0029 9.20954 15.9966 9.17479C15.9903 9.14009 15.9754 9.10744 15.9533 9.07989C15.9313 9.05229 15.9027 9.03069 15.8702 9.01689C15.8377 9.00309 15.8022 8.99764 15.7671 9.00094ZM10.6568 13.4495C10.5846 13.4935 10.499 13.5098 10.4156 13.4956C10.3323 13.4813 10.2569 13.4375 10.2034 13.372L10.2016 13.3698C10.1778 13.3394 10.1607 13.3041 10.1517 13.2665C10.1427 13.2289 10.1419 13.1898 10.1493 13.1519C10.1568 13.1139 10.1724 13.078 10.195 13.0467C10.2176 13.0153 10.2467 12.9892 10.2804 12.9701L12.68 11.4551L11.1548 9.99229L11.1523 9.98979C11.1241 9.96324 11.1021 9.93089 11.0877 9.89499C11.0733 9.85909 11.0669 9.82049 11.0689 9.78184C11.0709 9.74319 11.0812 9.70544 11.0993 9.67124C11.1173 9.63699 11.1425 9.60709 11.1733 9.58359L11.1825 9.57609C11.2472 9.52464 11.3281 9.49809 11.4107 9.50129C11.4933 9.50454 11.572 9.53729 11.6324 9.59359L13.4404 11.3326C13.4817 11.385 13.5027 11.4506 13.4994 11.5173C13.4974 11.5557 13.4871 11.5931 13.4694 11.6272C13.4516 11.6613 13.4267 11.6911 13.3964 11.7148C13.3779 11.7248 13.3599 11.7445 10.6591 13.4483L10.6568 13.4495ZM14.4998 13.2353C14.495 13.31 14.4608 13.3798 14.4047 13.4294C14.3487 13.479 14.2753 13.5045 14.2006 13.5003H12.7923C12.7555 13.5038 12.7183 13.4997 12.6832 13.488C12.6481 13.4764 12.6158 13.4575 12.5884 13.4326C12.561 13.4077 12.5391 13.3774 12.5241 13.3436C12.5092 13.3098 12.5015 13.2732 12.5015 13.2362C12.5015 13.1992 12.5092 13.1626 12.5242 13.1288C12.5392 13.0949 12.5612 13.0646 12.5886 13.0398C12.616 13.0149 12.6483 12.9961 12.6834 12.9845C12.7185 12.9729 12.7557 12.9687 12.7925 12.9723H14.2006C14.2749 12.968 14.348 12.9931 14.404 13.0422C14.46 13.0913 14.4944 13.161 14.4998 13.2353Z" fill="#B3E5FC"/>
</g>
</g>
<defs>
<clipPath id="clip0_933_174">
<rect width="16" height="16" fill="white"/>
</clipPath>
</defs>
</svg>
