<svg xmlns="http://www.w3.org/2000/svg" viewBox="0 0 16 16"><path id="folder" fill="#ff7043" d="m6.922 3.768-.644-.536A1 1 0 0 0 5.638 3H2a1 1 0 0 0-1 1v8a1 1 0 0 0 1 1h12a1 1 0 0 0 1-1V5a1 1 0 0 0-1-1H7.562a1 1 0 0 1-.64-.232"/><path id="motive" fill="#ffccbc" d="m6.297 9.295 2.892-2.897.846.85a.99.99 0 0 0 .465 1.116v2.772a1 1 0 0 0-.5.865 1.001 1.001 0 0 0 2.001 0 1 1 0 0 0-.5-.865V8.704l1.035 1.046a.6.6 0 0 0-.035.25 1.001 1.001 0 1 0 1.001-1.001.6.6 0 0 0-.25.035l-1.287-1.285a.99.99 0 0 0-.575-1.171 1.05 1.05 0 0 0-.64-.045l-.851-.846.396-.39a.987.987 0 0 1 1.41 0l3.998 3.998a.987.987 0 0 1 0 1.41l-3.998 3.998a.987.987 0 0 1-1.41 0l-3.998-3.998a.987.987 0 0 1 0-1.41"/></svg>