<svg xmlns="http://www.w3.org/2000/svg" viewBox="0 0 16 16">
<path id="folder" fill="#4caf50" d="m6.922 3.768-.644-.536A1 1 0 0 0 5.638 3H2a1 1 0 0 0-1 1v8a1 1 0 0 0 1 1h12a1 1 0 0 0 1-1V5a1 1 0 0 0-1-1H7.562a1 1 0 0 1-.64-.232" />
<path id="motive" fill="#c8e6c9" d="M 5.376482,13.613665 6.9398749,10.729127 A 0.75494834,0.75566475 0 0 0 6.6533949,9.7112317 0.72495039,0.7256383 0 0 0 5.655963,10.00449 L 4.09257,12.888527 a 0.75494834,0.75566475 0 0 0 0.2864804,1.017895 0.71995074,0.7206339 0 0 0 0.3549757,0.09358 0.72995004,0.7306427 0 0 0 0.6424559,-0.386339 m 5.152147,0 1.563393,-2.884538 A 0.75494834,0.75566475 0 0 0 11.805042,9.7112297 0.72495039,0.7256383 0 0 0 10.80761,10.004488 L 9.2442169,12.888525 A 0.75494834,0.75566475 0 0 0 9.5311969,13.90642 0.71995074,0.7206339 0 0 0 9.8856729,14 0.72995004,0.7306427 0 0 0 10.528629,13.613661 M 9.0807279,11.006367 10.743614,8.1238307 a 0.75344844,0.7541634 0 0 0 -0.258982,-1.020898 0.72345049,0.724137 0 0 0 -1.0009311,0.263732 l -1.662886,2.8825363 a 0.75494834,0.75566475 0 0 0 0.259482,1.021399 0.71495109,0.71562955 0 0 0 0.369974,0.10309 0.72995004,0.7306427 0 0 0 0.630457,-0.367323 m 5.1546481,0 1.663386,-2.8825363 a 0.75344844,0.7541634 0 0 0 -0.258982,-1.020898 0.72345049,0.724137 0 0 0 -1.000931,0.263732 l -1.662886,2.8825363 a 0.75494834,0.75566475 0 0 0 0.258982,1.021399 0.71495109,0.71562955 0 0 0 0.369974,0.10309 0.72995004,0.7306427 0 0 0 0.630957,-0.367323 z" />
</svg>
