<svg xmlns="http://www.w3.org/2000/svg" viewBox="0 0 16 16">
<path fill="#455a64" d="m6.922 3.768-.644-.536A1 1 0 0 0 5.638 3H2a1 1 0 0 0-1 1v8a1 1 0 0 0 1 1h12a1 1 0 0 0 1-1V5a1 1 0 0 0-1-1H7.562a1 1 0 0 1-.64-.232" id="folder"/>
<g id="motive"><path fill="#ffca28" d="M13.5785 8.2755c0 0.6595-0.715 1.0715-1.2865 0.7415a0.85 0.85 0 0 1-0.1775-0.1355c-0.467-0.4665-0.253-1.2625 0.384-1.4335a0.858 0.858 0 0 1 1.08 0.8275"/><path fill="#26c6da" d="M11.278 9.872c-0.4735 0-0.8575 0.3835-0.8575 0.856 0 0.473 0.384 0.8565 0.8575 0.8565 0.4745 0 0.8585-0.3835 0.8585-0.8565 0-0.4725-0.384-0.856-0.8585-0.856"/><path fill="#ffca28" d="M14.498 11.0205a3.3 3.3 0 0 1-1.1305 0.459 2.3 2.3 0 0 0 0.113-1.035 2.2965 2.2965 0 0 0 0.2605-4.2275 2.3 2.3 0 0 0-2.8875 0.72 3.8 3.8 0 0 0-1.255 0.3655 3.275 3.275 0 0 1 6.399 1.0955 3.27 3.27 0 0 1-1.4995 2.6225m-4.861-3.1225 0.8035 0.0975a2.3 2.3 0 0 1 0.1015-0.4555 3.3 3.3 0 0 0-0.905 0.358" clip-rule="evenodd"/><path fill="#26c6da" d="M9.4975 7.9835a3.3 3.3 0 0 1 1.138-0.463 2.3 2.3 0 0 0-0.1285 1.0395 2.3 2.3 0 0 0-1.4315 1.5025c-0.4465 1.4845 0.676 2.9755 2.227 2.958a2.3 2.3 0 0 0 1.8435-0.957 3.85 3.85 0 0 0 1.2545-0.362 3.2765 3.2765 0 0 1-5.106 1.633c-1.8085-1.371-1.705-4.12 0.203-5.351m4.86 3.1225-0.015 0.008z" clip-rule="evenodd"/></g>
</svg>
