<svg width="300" height="300" viewBox="0 0 300 300" fill="none" xmlns="http://www.w3.org/2000/svg"><path d="M125 50H50C36.125 50 25 61.125 25 75V225C25 238.713 36.2875 250 50 250H250C263.713 250 275 238.713 275 225V100C275 93.3696 272.366 87.0107 267.678 82.3223C262.989 77.6339 256.63 75 250 75H150L125 50Z" fill="#7E57C2"/><path fill-rule="evenodd" clip-rule="evenodd" d="M271.318 172.39C283.185 169.525 292 158.829 292 146.072C292 131.121 279.89 119 264.952 119C252.414 119 241.869 127.539 238.804 139.123C230.959 135.615 222.265 133.664 213.111 133.664C178.258 133.664 150 161.947 150 196.832C150 231.717 178.258 260 213.111 260C247.964 260 276.222 231.717 276.222 196.832C276.222 188.163 274.475 179.908 271.318 172.39ZM267.32 173.042C266.54 173.109 265.75 173.144 264.952 173.144C250.014 173.144 237.905 161.023 237.905 146.072C237.905 145.473 237.924 144.878 237.963 144.289C224.045 145.444 213.128 157.128 213.128 171.358C213.128 186.353 225.268 198.504 240.25 198.504C254.666 198.504 266.452 187.252 267.32 173.042Z" fill="#D1C4E9"/></svg>