<svg version="1.2" baseProfile="tiny" id="Layer_1" xmlns="http://www.w3.org/2000/svg" xmlns:xlink="http://www.w3.org/1999/xlink"
	 x="0px" y="0px" viewBox="0 0 24 24" xml:space="preserve">
<path fill="#1976D2" d="M10,4H4C2.9,4,2,4.9,2,6v12c0,1.1,0.9,2,2,2h16c1.1,0,2-0.9,2-2V8c0-1.1-0.9-2-2-2h-8L10,4z"/>
<path fill="#BBDEFB" d="M19.2,10.8V12c1.8,0.5,3.1,2.2,3.1,4.1c0,1.9-1.3,3.6-3.1,4.1v1.3c2.4-0.6,4.3-2.7,4.3-5.4
	S21.6,11.3,19.2,10.8 M20.7,16.1c0-1.1-0.6-2-1.5-2.5v4.9C20.1,18.1,20.7,17.2,20.7,16.1 M12.5,14.3V18h2.4l3.1,3v-9.8l-3.1,3.1
	C14.9,14.3,12.5,14.3,12.5,14.3z"/>
</svg>
