<?xml version="1.0" encoding="UTF-8"?>
<svg id="Layer_2" data-name="Layer 2" xmlns="http://www.w3.org/2000/svg" viewBox="0 0 29.61 22">
  <defs>
    <style>
      .cls-1 {
        fill: #d4ddb1;
      }

      .cls-1, .cls-2, .cls-3 {
        stroke-width: 0px;
      }

      .cls-2 {
        fill: #bcc497;
      }

      .cls-3 {
        fill: #8c844d;
      }
    </style>
  </defs>
  <g id="Layer_1-2" data-name="Layer 1">
    <path class="cls-3" d="m11.84,1.54l-1.29-1.07c-.36-.3-.81-.46-1.28-.46H2C.9,0,0,.9,0,2v16c0,1.1.9,2,2,2h24c1.1,0,2-.9,2-2V4c0-1.1-.9-2-2-2h-12.88c-.47,0-.92-.16-1.28-.46Z"/>
    <circle class="cls-1" cx="18" cy="20" r="2"/>
    <circle class="cls-1" cx="26" cy="20" r="2"/>
    <path class="cls-1" d="m28.61,6h-12.39l-.4-2h-3.82v2h2.18l1.84,9.2c.09.47.5.8.98.8h11v-2h-10.18l-.4-2h10.58l1.56-4.68c.17-.52-.11-1.09-.63-1.26-.1-.03-.21-.05-.32-.05Z"/>
    <path class="cls-2" d="m15,15.56l-2.95-2.36v-3.56h1.1v3.03l2.54,2.03-.69.86Z"/>
    <path class="cls-2" d="m13.15,18.42c-3.03,0-5.49-2.46-5.49-5.49s2.46-5.49,5.49-5.49,5.49,2.46,5.49,5.49c0,3.03-2.46,5.49-5.49,5.49Zm0-9.88c-2.43,0-4.39,1.97-4.39,4.39s1.97,4.39,4.39,4.39,4.39-1.97,4.39-4.39c0-2.42-1.97-4.39-4.39-4.39Z"/>
  </g>
</svg>