<svg xmlns="http://www.w3.org/2000/svg" viewBox="0 0 16 16">
<path id="folder" fill="#afb42b" d="M14.483 6H4.721a1 1 0 0 0-.949.684L2 12V5h12a1 1 0 0 0-1-1H7.562a1 1 0 0 1-.64-.232l-.644-.536A1 1 0 0 0 5.638 3H2a1 1 0 0 0-1 1v8a1 1 0 0 0 1 1h11l2.403-5.606A1 1 0 0 0 14.483 6" />
<path id="motive" fill="#f0f4c3" d="M 7.25,6 A 0.25,0.25 0 0 0 7,6.25 v 8.5 A 0.25,0.25 0 0 0 7.25,15 h 8.5 A 0.25,0.25 0 0 0 16,14.75 V 6.25 A 0.25,0.25 0 0 0 15.75,6 Z M 8,7 h 7 v 7 H 8 Z m 1,1 v 1 h 1 V 8 Z m 2,0 v 1 h 3 V 8 Z m -2,2 v 1 h 1 v -1 z m 2,0 v 1 h 3 v -1 z m -2,2 v 1 h 1 v -1 z m 2,0 v 1 h 3 v -1 z" />
</svg>
