<?xml version="1.0" encoding="utf-8"?>
<svg viewBox="0 0 24 24" xmlns="http://www.w3.org/2000/svg">
  <path fill="#8caa32" d="M 10 4 L 4 4 C 2.89 4 2 4.89 2 6 L 2 18 C 2 19.105 2.895 20 4 20 L 20 20 C 21.105 20 22 19.105 22 18 L 22 8 C 22 6.89 21.1 6 20 6 L 12 6 L 10 4 Z"/>
  <path fill="#f0f4c3" d="M 15.094 13.197 C 15.597 13.627 15.939 14.157 16.198 14.693 L 16.275 14.601 C 17.02 13.729 18.382 13.622 19.256 14.369 C 20.128 15.113 20.235 16.475 19.49 17.348 C 18.744 18.221 17.382 18.327 16.509 17.583 C 16.417 17.505 16.325 17.427 16.32 17.343 C 16.145 17.827 15.922 18.271 15.528 18.729 C 15.331 18.962 15.089 19.152 14.847 19.343 L 14.939 19.42 C 15.078 19.539 15.26 19.694 15.439 19.767 L 15.349 21.359 C 15.365 21.529 15.453 21.607 15.587 21.64 L 17.979 22.093 C 18.156 22.168 18.234 22.077 18.352 21.938 L 18.874 20.395 C 19.253 20.321 19.626 20.166 19.999 20.01 L 21.394 20.883 C 21.403 20.968 21.613 20.909 21.691 20.818 L 23.26 18.98 C 23.338 18.889 23.365 18.672 23.271 18.592 L 22.191 17.351 C 22.331 16.997 22.346 16.609 22.444 16.217 L 23.843 15.508 C 23.963 15.369 24.038 15.278 23.979 15.068 L 23.158 12.776 C 23.103 12.652 22.975 12.62 22.805 12.632 L 21.244 12.971 C 21.107 12.85 20.965 12.649 20.824 12.531 C 20.688 12.412 20.504 12.258 20.326 12.184 L 20.37 10.552 C 20.357 10.383 20.265 10.305 20.134 10.272 L 17.74 9.817 C 17.61 9.788 17.532 9.876 17.414 10.017 L 16.894 11.555 C 16.512 11.628 16.138 11.788 15.767 11.942 L 14.371 11.07 C 14.28 10.991 14.107 11.002 13.989 11.14 L 13.008 12.288 C 13.789 12.397 14.496 12.686 15.094 13.197 M 14.382 17.751 L 15.07 18.337 L 14.924 16.466 L 13.049 16.611 L 13.692 17.162 C 13.144 17.805 12.206 17.879 11.563 17.33 C 11.379 17.172 11.237 16.969 11.176 16.761 L 10.24 16.831 C 10.594 18.093 11.936 18.84 13.197 18.488 C 13.661 18.406 14.066 18.119 14.382 17.751 M 11.396 15.199 C 11.943 14.557 12.881 14.482 13.524 15.033 C 13.707 15.191 13.853 15.391 13.913 15.601 L 14.849 15.53 C 14.495 14.272 13.149 13.521 11.891 13.875 C 11.433 14.038 11.02 14.245 10.706 14.612 L 10.018 14.023 L 10.165 15.897 L 12.086 15.79 L 11.396 15.199 Z"/>
</svg>