<?xml version="1.0" encoding="UTF-8" standalone="no"?>
<svg xmlns:dc="http://purl.org/dc/elements/1.1/" 
  xmlns:cc="http://creativecommons.org/ns#" 
  xmlns:rdf="http://www.w3.org/1999/02/22-rdf-syntax-ns#" 
  xmlns:svg="http://www.w3.org/2000/svg" 
  xmlns="http://www.w3.org/2000/svg" 
  xmlns:sodipodi="http://sodipodi.sourceforge.net/DTD/sodipodi-0.dtd" 
  xmlns:inkscape="http://www.inkscape.org/namespaces/inkscape" clip-rule="evenodd" stroke-linejoin="round" stroke-miterlimit="1.4142" version="1.1" viewBox="0 0 24 24" xml:space="preserve" id="svg10" sodipodi:docname="folder-job-open.svg" inkscape:version="0.92.2 5c3e80d, 2017-08-06">
  <metadata id="metadata16">
    <rdf:RDF>
      <cc:Work rdf:about="">
        <dc:format>image/svg+xml</dc:format>
        <dc:type rdf:resource="http://purl.org/dc/dcmitype/StillImage" />
      </cc:Work>
    </rdf:RDF>
  </metadata>
  <defs id="defs14" />
  <sodipodi:namedview pagecolor="#ffffff" bordercolor="#666666" borderopacity="1" objecttolerance="10" gridtolerance="10" guidetolerance="10" inkscape:pageopacity="0" inkscape:pageshadow="2" inkscape:window-width="640" inkscape:window-height="480" id="namedview12" showgrid="false" inkscape:zoom="19.666667" inkscape:cx="10.022786" inkscape:cy="11.897278" inkscape:window-x="0" inkscape:window-y="0" inkscape:window-maximized="0" inkscape:current-layer="svg10" />
  <path d="m19 20h-15c-1.11 0-2-0.9-2-2v-12c0-1.11 0.89-2 2-2h6l2 2h7c1.097 0 2 0.903 2 2h-17v10l2.14-8h17.07l-2.28 8.5c-0.23 0.87-1.01 1.5-1.93 1.5z" fill="#ffb300" id="path2" />
  <path d="M0 0h24v24H0z" fill="none" id="path7" />
  <path fill="none" d="M-74 29h48v48h-48V29zM0 0h24v24H0V0zm0 0h24v24H0V0z" id="path6" />
  <path d="m 10.6,17.828572 h 5.333333 V 16.542858 H 10.6 Z M 10.6,20.4 h 5.333333 V 19.114286 H 10.6 Z m 0,-5.142858 h 5.333333 V 13.971428 H 10.6 Z M 10.6,11.4 v 1.285714 h 5.333333 V 11.4 Z m 6.666666,0 H 22.6 v 9 h -5.333334 z" id="path7" inkscape:connector-curvature="0" style="stroke-width:0.65465373" />
</svg>