<svg xmlns="http://www.w3.org/2000/svg" viewBox="0 0 32 32">
  <path d="M28.96692,12H9.44152a2,2,0,0,0-1.89737,1.36754L4,24V10H28a2,2,0,0,0-2-2H15.1241a2,2,0,0,1-1.28038-.46357L12.5563,6.46357A2,2,0,0,0,11.27592,6H4A2,2,0,0,0,2,8V24a2,2,0,0,0,2,2H26l4.80523-11.21213A2,2,0,0,0,28.96692,12Z" style="fill: #616161"/>
  <g>
    <path d="M14,14H10V28h2V22h2a4,4,0,0,0,0-8Zm0,6H12V16h2a2,2,0,0,1,0,4Z" style="fill: #eee;fill-rule: evenodd"/>
    <polygon points="20 17 20 28 32 28 32 17 26 23 20 17" style="fill: #ffd180;fill-rule: evenodd"/>
    <polygon points="32 14 20 14 26 20 32 14" style="fill: #ffd180;fill-rule: evenodd"/>
  </g>
</svg>
