<?xml version="1.0" encoding="utf-8"?>
<!-- Generator: Adobe Illustrator 28.0.0, SVG Export Plug-In . SVG Version: 6.00 Build 0)  -->
<svg version="1.1" xmlns="http://www.w3.org/2000/svg" xmlns:xlink="http://www.w3.org/1999/xlink" x="0px" y="0px"
	 viewBox="0 0 24 24" style="enable-background:new 0 0 24 24;" xml:space="preserve">
<style type="text/css">
	.st0{fill:#F68712;}
	.st1{fill:#FAB20B;}
	.st2{fill:#FBC707;}
	.st3{fill:#FFF200;}
	.st4{fill:#F47216;}
	.st5{fill:#F1471D;}
	.st6{fill:#F25C19;}
	.st7{fill:#F89C0E;}
</style>
<g id="Layer_1">
	<path class="st0" d="M10,4H4C2.9,4,2,4.9,2,6v12c0,1.1,0.9,2,2,2h16c1.1,0,2-0.9,2-2V8c0-1.1-0.9-2-2-2h-8L10,4z"/>
</g>
<g id="Layer_2">
	<g>
		<path class="st0" d="M12.6,15.1l4.4-4.4l4.4,4.4L17,19.5L12.6,15.1z"/>
		<path class="st1" d="M12.6,15.1l-0.8-3l-0.8-3l3,0.8l3,0.8l-2.2,2.2L12.6,15.1z"/>
		<path class="st2" d="M17,10.7l-3-0.8l-3-0.8l1.6,0l1.6,0l1.4,0.8L17,10.7z"/>
		<path class="st3" d="M11,9.1l0.8,3l0.8,3l-0.8-1.4l-0.8-1.4l0-1.6L11,9.1z"/>
		<path class="st4" d="M17,10.7l3-0.8l3-0.8l-0.8,3l-0.8,3l-2.2-2.2L17,10.7z"/>
		<path class="st5" d="M21.4,15.1l0.8-3l0.8-3l0,1.6l0,1.6l-0.8,1.4L21.4,15.1z"/>
		<path class="st2" d="M23,9.1l-3,0.8l-3,0.8l1.4-0.8l1.4-0.8l1.6,0L23,9.1z"/>
		<path class="st6" d="M21.4,15.1l0.8,3l0.8,3l-3-0.8l-3-0.8l2.2-2.2L21.4,15.1z"/>
		<path class="st0" d="M17,19.5l3,0.8l3,0.8l-1.6,0l-1.6,0l-1.4-0.8L17,19.5z"/>
		<path class="st5" d="M23,21.1l-0.8-3l-0.8-3l0.8,1.4l0.8,1.4l0,1.6L23,21.1z"/>
		<path class="st7" d="M17,19.5l-3,0.8l-3,0.8l0.8-3l0.8-3l2.2,2.2L17,19.5z"/>
		<path class="st3" d="M12.6,15.1l-0.8,3l-0.8,3l0-1.6l0-1.6l0.8-1.4L12.6,15.1z"/>
		<path class="st6" d="M11,21.1l3-0.8l3-0.8l-1.4,0.8L14.2,21l-1.6,0L11,21.1z"/>
	</g>
</g>
</svg>
