<svg xmlns="http://www.w3.org/2000/svg" viewBox="0 0 16 16"><path id="folder" fill="#ffb300" d="m6.922 3.768-.644-.536A1 1 0 0 0 5.638 3H2a1 1 0 0 0-1 1v8a1 1 0 0 0 1 1h12a1 1 0 0 0 1-1V5a1 1 0 0 0-1-1H7.562a1 1 0 0 1-.64-.232"/><path id="motive" fill="#fff9c4" d="M14.5 8.5a1 1 0 0 0-.861.5h-1.932l1.537-1.537a1.018 1.018 0 1 0-.707-.707L11 8.293V6.362a1 1 0 1 0-1 0v1.931L8.463 6.756a1.017 1.017 0 1 0-.707.707L9.293 9H7.362a1 1 0 1 0 0 1h1.931l-1.537 1.537a1.018 1.018 0 1 0 .707.707L10 10.708v1.932a1 1 0 1 0 1 0v-1.932l1.537 1.537a1.018 1.018 0 1 0 .707-.707L11.708 10h1.932a.999.999 0 1 0 .861-1.5"/></svg>