<svg xmlns="http://www.w3.org/2000/svg" viewBox="0 0 32 32">
  <path d="M13.84376,7.53645l-1.28749-1.0729A2,2,0,0,0,11.27591,6H4A2,2,0,0,0,2,8V24a2,2,0,0,0,2,2H28a2,2,0,0,0,2-2V10a2,2,0,0,0-2-2H15.12412A2,2,0,0,1,13.84376,7.53645Z" style="fill: #ffca28"/>
  <path d="M24,19.06a1.33374,1.33374,0,0,0,.3,1.04,2.54352,2.54352,0,0,0,.61.28c.54.18,1.33.37,2.09.62,2.64.88,2.96,2.32,2.99,3.49.01.16.01.31.01.46V25c0,1.06-.46,2.79-3.44,2.98-.13.01-.25.01-.37.01A1.209,1.209,0,0,1,26,28H22V26.24l.24-.24H26a2.00623,2.00623,0,0,0,.25-.01h.17c.18-.01.33-.03.47-.04a2.14592,2.14592,0,0,0,.27-.06c.07-.02.13-.04.19-.06005a.03689.03689,0,0,0,.03-.00995c.49-.18.59-.45.61-.66A.91384.91384,0,0,0,28,25c0-.32-.68-1.23-3-2-2.74-.91-2.98-2.42-2.99-3.61a.61477.61477,0,0,1-.01-.13V19a2.84824,2.84824,0,0,1,.45-1.59c.04-.06.07-.11.11-.16.01-.01.01-.02.02-.03a1.12182,1.12182,0,0,1,.18-.2A4.29814,4.29814,0,0,1,25.91,16H30v2H26c-.13,0-.26,0-.39.01-1.18.06-1.49.4-1.58.69995a.12684.12684,0,0,0-.01.06A1.0174,1.0174,0,0,0,24,19Z" style="fill: #ffecb3"/>
  <path d="M16,28a3.6412,3.6412,0,0,1-4-4h2c0,1.43945.56055,2,2,2s2-.56055,2-2V16h2v8A3.6412,3.6412,0,0,1,16,28Z" style="fill: #ffecb3"/>
</svg>
