<svg xmlns="http://www.w3.org/2000/svg" viewBox="0 0 32 32">
  <path d="M13.84376,7.53645l-1.28749-1.0729A2,2,0,0,0,11.27591,6H4A2,2,0,0,0,2,8V24a2,2,0,0,0,2,2H28a2,2,0,0,0,2-2V10a2,2,0,0,0-2-2H15.12412A2,2,0,0,1,13.84376,7.53645Z" style="fill: #ec407a"/>
  <path d="M25,14a6.90829,6.90829,0,0,0-2,.29,7.042,7.042,0,0,0-4,0A6.90829,6.90829,0,0,0,17,14a7,7,0,0,0,0,14,6.90831,6.90831,0,0,0,2-.29,7.04062,7.04062,0,0,0,4,0A6.90831,6.90831,0,0,0,25,28a7,7,0,0,0,0-14ZM12,21a4.99927,4.99927,0,0,1,4.01-4.9,6.97759,6.97759,0,0,0,0,9.8A4.99921,4.99921,0,0,1,12,21Zm8.01,4.9a4.99875,4.99875,0,0,1,0-9.8,6.97759,6.97759,0,0,0,0,9.8ZM23,16.41a5.01135,5.01135,0,0,1,0,9.18,5.01135,5.01135,0,0,1,0-9.18Zm2.99,9.49a6.97759,6.97759,0,0,0,0-9.8,4.99875,4.99875,0,0,1,0,9.8Z" style="fill: #f8bbd0"/>
</svg>
