<?xml version="1.0" encoding="UTF-8" standalone="no"?>
<!DOCTYPE svg PUBLIC "-//W3C//DTD SVG 1.1//EN" "http://www.w3.org/Graphics/SVG/1.1/DTD/svg11.dtd">
<svg width="100%" height="100%" viewBox="0 0 24 24" version="1.1" xmlns="http://www.w3.org/2000/svg" xmlns:xlink="http://www.w3.org/1999/xlink" xml:space="preserve" style="fill-rule:evenodd;clip-rule:evenodd;stroke-linejoin:round;stroke-miterlimit:1.41421;">
    <path id="path3338" d="M10,4L4,4C2.89,4 2,4.89 2,6L2,18C2,19.097 2.903,20 4,20L20,20C21.097,20 22,19.097 22,18L22,8C22,6.89 21.1,6 20,6L12,6L10,4Z" style="fill:rgb(249,168,37);fill-rule:nonzero;"/>
    <g transform="matrix(0.802168,0,0,0.802168,-0.855966,-1.8526)">
        <path d="M23.013,26.479C23.568,27.602 24.721,28.312 25.974,28.3C27.218,28.3 28.007,27.678 28.007,26.819C28.007,25.794 27.192,25.426 25.826,24.83L25.073,24.506C22.918,23.586 21.463,22.438 21.463,19.994C21.463,17.742 23.215,16.034 25.843,16.034C27.615,15.905 29.3,16.853 30.11,18.434L27.78,19.934C27.467,19.145 26.693,18.63 25.844,18.646C25.8,18.642 25.756,18.639 25.712,18.639C25.046,18.639 24.481,19.15 24.414,19.813C24.41,19.853 24.408,19.893 24.407,19.934C24.407,20.81 24.968,21.196 26.247,21.756L27,22.08C29.549,23.18 30.986,24.288 30.986,26.793C30.986,29.493 28.866,30.972 26.019,30.972C23.766,31.104 21.635,29.899 20.586,27.9L23.013,26.479ZM12.43,26.742C12.903,27.618 13.306,28.284 14.357,28.284C15.408,28.284 15.957,27.899 15.957,26.4L15.957,16.229L18.957,16.229L18.957,26.444C18.957,29.544 17.135,30.965 14.48,30.965C12.563,31.068 10.771,29.974 9.986,28.223L12.43,26.742Z" style="fill:rgb(245,222,25);fill-rule:nonzero;"/>
    </g>
</svg>
