<svg xmlns="http://www.w3.org/2000/svg" fill="none" viewBox="0 0 32 32"><path fill="#689f38" d="m13.844 7.536-1.288-1.072A2 2 0 0 0 11.276 6H4a2 2 0 0 0-2 2v16a2 2 0 0 0 2 2h24a2 2 0 0 0 2-2V10a2 2 0 0 0-2-2H15.124a2 2 0 0 1-1.28-.464"/><path fill="#dcedc8" d="m27.587 13.583 2.132.51-6.03 6.03-2.7-2.701-1.456 1.455 4.156 4.155 6.485-6.486-.06.691L32 19.495l-1.885 2.259.262 2.988-2.79.666-1.46 2.584-2.627-1.185L20.873 28l-1.46-2.583-2.79-.667.262-2.996L15 19.495l1.885-2.265-.262-2.989 2.79-.658L20.873 11l2.627 1.185L26.127 11zM32 14.721l-1.826 1.825.203-2.296-.658-.157.827-.826z"/></svg>