<svg xmlns="http://www.w3.org/2000/svg" viewBox="0 0 16 16">
<path id="folder" fill="#ff5252" d="M14.483 6H4.721a1 1 0 0 0-.949.684L2 12V5h12a1 1 0 0 0-1-1H7.562a1 1 0 0 1-.64-.232l-.644-.536A1 1 0 0 0 5.638 3H2a1 1 0 0 0-1 1v8a1 1 0 0 0 1 1h11l2.403-5.606A1 1 0 0 0 14.483 6" />
<path id="motive" fill="#ffcdd2" d="m 12,8.0544998 v -1.47052 l 1.2815,-0.647069 A 0.5,0.49545836 0 0 0 13.5,5.2705198 0.5,0.49545836 0 0 0 12.8275,5.0540038 L 11,5.9765478 v 2.077952 H 9 v 0.990917 H 9.5 L 10,14 h 3 L 13.5,9.0454168 H 14 v -0.990917 z" />
</svg>
