<svg viewBox="0 0 32 32" xml:space="preserve" xmlns="http://www.w3.org/2000/svg"><path fill="#f44336" d="m13.844 7.536-1.288-1.072A2 2 0 0 0 11.276 6H4a2 2 0 0 0-2 2v16a2 2 0 0 0 2 2h24a2 2 0 0 0 2-2V10a2 2 0 0 0-2-2H15.124a2 2 0 0 1-1.28-.464" style="fill:#2196f3;fill-opacity:1"/><path style="fill:#bbdefb;fill-opacity:1;stroke-width:8.00795" d="M78.245.59c-2.358 0-4.28 1.073-4.28 1.073L25.905 24.611S2.82 70.674 2.843 70.661a11.275 11.275 0 0 0-.928 5.378c.362 5 3.91 9.617 7.738 12.876l48.289 47.795h56.062v-24.021h24.026v-56.05c-17.834-17.67-35.492-35.551-53.585-52.942C82.033 2.005 80.603.59 78.245.59Z" transform="matrix(.12486 0 0 .12489 12.765 11.926)"/></svg>