<svg clip-rule="evenodd" fill-rule="evenodd" stroke-linejoin="round" stroke-miterlimit="1.414" viewBox="0 0 24 24" xml:space="preserve" xmlns="http://www.w3.org/2000/svg"><path d="M19 20H4a2 2 0 0 1-2-2V6c0-1.11.89-2 2-2h6l2 2h7c1.097 0 2 .903 2 2H4v10l2.14-8h17.07l-2.28 8.5c-.23.87-1.01 1.5-1.93 1.5z" fill="#546e7a" fill-rule="nonzero"/><path d="M17.208 8.915a6.293 6.293 0 0 0-6.293 6.293 6.293 6.293 0 0 0 6.293 6.292 6.293 6.293 0 0 0 6.293-6.293 6.15 6.15 0 0 0-.384-2.133l-1.007 1.007c.088.371.132.749.132 1.126a5.034 5.034 0 0 1-5.034 5.034 5.034 5.034 0 0 1-5.034-5.034 5.034 5.034 0 0 1 5.034-5.034c.378 0 .755.045 1.126.133l1.014-1.013a6.357 6.357 0 0 0-2.14-.378m4.405 0-2.517 2.517v.944L17.49 13.98c-.094-.031-.188-.031-.283-.031a1.258 1.258 0 0 0-1.258 1.259 1.258 1.258 0 0 0 1.258 1.258 1.258 1.258 0 0 0 1.259-1.258c0-.095 0-.19-.032-.284l1.605-1.604h.944l2.517-2.517h-1.888V8.915m-4.405 2.517a3.776 3.776 0 0 0-3.775 3.775 3.776 3.776 0 0 0 3.775 3.776 3.776 3.776 0 0 0 3.776-3.776h-1.259a2.517 2.517 0 0 1-2.517 2.517 2.517 2.517 0 0 1-2.517-2.517 2.517 2.517 0 0 1 2.517-2.517z" fill="#cfd8dc"/></svg>