<svg width="24" height="24" viewBox="0 0 24 24" fill="none" xmlns="http://www.w3.org/2000/svg">
<path d="M10 4H4C2.89 4 2 4.89 2 6V18C2 19.097 2.903 20 4 20H20C21.097 20 22 19.097 22 18V8C22 7.46957 21.7893 6.96086 21.4142 6.58579C21.0391 6.21071 20.5304 6 20 6H12L10 4Z" fill="#0D47A1"/>
<path d="M15.7826 19.0521L16.0322 20.6207C15.8739 20.7107 15.6183 20.7943 15.2774 20.8714C14.9304 20.955 14.5226 21 14.0539 21C12.7087 20.9743 11.6983 20.55 11.0226 19.74C10.3409 18.9236 10 17.8886 10 16.635C10.0304 15.15 10.4383 14.0121 11.2174 13.215C12.0209 12.4114 13.0191 12 14.2243 12C14.6809 12 15.0765 12.045 15.4052 12.1221C15.7339 12.1993 15.9774 12.2829 16.1357 12.3793L15.7826 13.98L15.1374 13.7614C14.8939 13.6971 14.6139 13.665 14.2913 13.665C13.5852 13.6586 13.0009 13.8964 12.5443 14.3721C12.0817 14.8414 11.8443 15.5614 11.8261 16.5193C11.8261 17.3936 12.0513 18.075 12.4835 18.5764C12.9157 19.0714 13.5243 19.3286 14.3035 19.335L15.113 19.2579C15.3748 19.2064 15.5939 19.1357 15.7826 19.0521ZM16.087 15.8571H17.3043V14.5714H18.5217V15.8571H19.7391V17.1429H18.5217V18.4286H17.3043V17.1429H16.087V15.8571ZM20.3478 15.8571H21.5652V14.5714H22.7826V15.8571H24V17.1429H22.7826V18.4286H21.5652V17.1429H20.3478V15.8571Z" fill="#0277BD"/>
</svg>
