<svg xmlns="http://www.w3.org/2000/svg" viewBox="0 0 16 16">
<path id="folder" fill="#1e88e5" d="M14.483 6H4.721a1 1 0 0 0-.949.684L2 12V5h12a1 1 0 0 0-1-1H7.562a1 1 0 0 1-.64-.232l-.644-.536A1 1 0 0 0 5.638 3H2a1 1 0 0 0-1 1v8a1 1 0 0 0 1 1h11l2.403-5.606A1 1 0 0 0 14.483 6" />
<path id="motive" fill="#bbdefb" d="M 9.9995761,6 A 4.9953954,4.9949871 0 0 0 6.005109,14 H 7.3587354 A 3.9968164,3.9964897 0 0 1 9.9995761,7 4.0003167,3.9999897 0 0 1 10.845349,7.089844 c 0.36503,-0.22 0.753734,-0.4507823 1.138765,-0.6757813 A 4.9003879,4.8999873 0 0 0 9.9995761,6 Z m 4.2425349,0.7578125 c -10e-7,0 -4.8756389,2.0466158 -5.6567128,2.828125 a 2.0001882,2.0000225 0 0 0 2.8283558,2.8281245 c 0.781575,-0.781009 2.828357,-5.6562495 2.828357,-5.6562495 z m 0.318386,2.203125 C 14.35548,9.3259365 14.130304,9.7200014 13.900286,10.125 A 3.9003087,3.8999899 0 0 1 13.999906,11 3.9853155,3.9849897 0 0 1 12.64042,14 h 1.353626 a 4.965393,4.9649872 0 0 0 1.005942,-3 4.9003879,4.8999873 0 0 0 -0.439489,-2.0390625 z" />
</svg>
