<svg version="1.1" viewBox="0 0 32 32" xmlns="http://www.w3.org/2000/svg">
    <path d="m13.844 7.536-1.288-1.072A2 2 0 0 0 11.276 6H4a2 2 0 0 0-2 2v16a2 2 0 0 0 2 2h24a2 2 0 0 0 2-2V10a2 2 0 0 0-2-2H15.124a2 2 0 0 1-1.28-.464" fill="#2196f3"/>
    <g fill="#bbdefb" stroke-linecap="round" stroke-linejoin="round">
        <g transform="matrix(.57143 0 0 .57143 12.857 10.857)">
            <path d="m3 2a1 1 0 0 0-1 1v6a1 1 0 0 0 1 1h6a1 1 0 0 0 1-1v-6a1 1 0 0 0-1-1zm1 2h4v4h-4z"/>
            <path d="m3 12a1 1 0 0 0-1 1v6a1 1 0 0 0 1 1h6a1 1 0 0 0 1-1v-6a1 1 0 0 0-1-1zm1 2h4v4h-4z"/>
            <path d="m13 12a1 1 0 0 0-1 1 1 1 0 0 0 1 1h16a1 1 0 0 0 1-1 1 1 0 0 0-1-1z"/>
            <path d="m13 16a1 1 0 0 0-1 1 1 1 0 0 0 1 1h14a1 1 0 0 0 1-1 1 1 0 0 0-1-1z"/>
            <path d="m3 22a1 1 0 0 0-1 1v6a1 1 0 0 0 1 1h6a1 1 0 0 0 1-1v-6a1 1 0 0 0-1-1zm1 2h4v4h-4z" stroke-width="2"/>
            <path d="m13 22a1 1 0 0 0-1 1 1 1 0 0 0 1 1h16a1 1 0 0 0 1-1 1 1 0 0 0-1-1z"/>
            <path d="m13 26a1 1 0 0 0-1 1 1 1 0 0 0 1 1h14a1 1 0 0 0 1-1 1 1 0 0 0-1-1z"/>
            <path d="m3 22a1 1 0 0 0-1 1v6a1 1 0 0 0 1 1h6a1 1 0 0 0 1-1v-6a1 1 0 0 0-1-1zm1 2h4v4h-4z"/>
            <path d="m13 22a1 1 0 0 0-1 1 1 1 0 0 0 1 1h16a1 1 0 0 0 1-1 1 1 0 0 0-1-1z"/>
            <path d="m13 26a1 1 0 0 0-1 1 1 1 0 0 0 1 1h14a1 1 0 0 0 1-1 1 1 0 0 0-1-1z"/>
            <path d="m13 2a1 1 0 0 0-1 1 1 1 0 0 0 1 1h16a1 1 0 0 0 1-1 1 1 0 0 0-1-1z"/>
            <path d="m13 6a1 1 0 0 0-1 1 1 1 0 0 0 1 1h14a1 1 0 0 0 1-1 1 1 0 0 0-1-1z"/>
        </g>
        <g stroke-width=".57143">
            <path d="m14.571 12a0.57143 0.57143 0 0 0-0.57143 0.57143v3.4286a0.57143 0.57143 0 0 0 0.57143 0.57143h3.4286a0.57143 0.57143 0 0 0 0.57143-0.57143v-3.4286a0.57143 0.57143 0 0 0-0.57143-0.57143zm0.57143 1.1429h2.2857v2.2857h-2.2857z"/>
            <path d="m14.571 17.714a0.57143 0.57143 0 0 0-0.57143 0.57143v3.4286a0.57143 0.57143 0 0 0 0.57143 0.57143h3.4286a0.57143 0.57143 0 0 0 0.57143-0.57143v-3.4286a0.57143 0.57143 0 0 0-0.57143-0.57143zm0.57143 1.1429h2.2857v2.2857h-2.2857z"/>
            <path d="m20.286 17.714a0.57143 0.57143 0 0 0-0.57143 0.57143 0.57143 0.57143 0 0 0 0.57143 0.57143h9.1429a0.57143 0.57143 0 0 0 0.57143-0.57143 0.57143 0.57143 0 0 0-0.57143-0.57143z"/>
            <path d="m20.286 20a0.57143 0.57143 0 0 0-0.57143 0.57143 0.57143 0.57143 0 0 0 0.57143 0.57143h8a0.57143 0.57143 0 0 0 0.57143-0.57143 0.57143 0.57143 0 0 0-0.57143-0.57143z"/>
        </g>
        <path d="m14.571 23.429a0.57143 0.57143 0 0 0-0.57143 0.57143v3.4286a0.57143 0.57143 0 0 0 0.57143 0.57143h3.4286a0.57143 0.57143 0 0 0 0.57143-0.57143v-3.4286a0.57143 0.57143 0 0 0-0.57143-0.57143zm0.57143 1.1429h2.2857v2.2857h-2.2857z" stroke-width="1.1429"/>
        <g stroke-width=".57143">
            <path d="m20.286 23.429a0.57143 0.57143 0 0 0-0.57143 0.57143 0.57143 0.57143 0 0 0 0.57143 0.57143h9.1429a0.57143 0.57143 0 0 0 0.57143-0.57143 0.57143 0.57143 0 0 0-0.57143-0.57143z"/>
            <path d="m20.286 25.714a0.57143 0.57143 0 0 0-0.57143 0.57143 0.57143 0.57143 0 0 0 0.57143 0.57143h8a0.57143 0.57143 0 0 0 0.57143-0.57143 0.57143 0.57143 0 0 0-0.57143-0.57143z"/>
            <path d="m14.571 23.429a0.57143 0.57143 0 0 0-0.57143 0.57143v3.4286a0.57143 0.57143 0 0 0 0.57143 0.57143h3.4286a0.57143 0.57143 0 0 0 0.57143-0.57143v-3.4286a0.57143 0.57143 0 0 0-0.57143-0.57143zm0.57143 1.1429h2.2857v2.2857h-2.2857z"/>
            <path d="m20.286 23.429a0.57143 0.57143 0 0 0-0.57143 0.57143 0.57143 0.57143 0 0 0 0.57143 0.57143h9.1429a0.57143 0.57143 0 0 0 0.57143-0.57143 0.57143 0.57143 0 0 0-0.57143-0.57143z"/>
            <path d="m20.286 25.714a0.57143 0.57143 0 0 0-0.57143 0.57143 0.57143 0.57143 0 0 0 0.57143 0.57143h8a0.57143 0.57143 0 0 0 0.57143-0.57143 0.57143 0.57143 0 0 0-0.57143-0.57143z"/>
            <path d="m20.286 12a0.57143 0.57143 0 0 0-0.57143 0.57143 0.57143 0.57143 0 0 0 0.57143 0.57143h9.1429a0.57143 0.57143 0 0 0 0.57143-0.57143 0.57143 0.57143 0 0 0-0.57143-0.57143z"/>
            <path d="m20.286 14.286a0.57143 0.57143 0 0 0-0.57143 0.57143 0.57143 0.57143 0 0 0 0.57143 0.57143h8a0.57143 0.57143 0 0 0 0.57143-0.57143 0.57143 0.57143 0 0 0-0.57143-0.57143z"/>
        </g>
    </g>
</svg>
