<svg xmlns="http://www.w3.org/2000/svg" viewBox="0 0 16 16">
<path id="folder" fill="#546e7a" d="M14.483 6H4.721a1 1 0 0 0-.949.684L2 12V5h12a1 1 0 0 0-1-1H7.562a1 1 0 0 1-.64-.232l-.644-.536A1 1 0 0 0 5.638 3H2a1 1 0 0 0-1 1v8a1 1 0 0 0 1 1h11l2.403-5.606A1 1 0 0 0 14.483 6" />
<path id="motive" fill="#fbc02d" fill-opacity="0.976" d="M 6.009491,5 9.361307,7.995839 H 7.001049 L 9.334832,9.993065 H 6 L 10.005695,14 V 5.998613 h 1.772316 l 0.791248,0.998613 h -1.564514 v 2.995839 h 0.989061 l 0.988561,0.998613 h -1.990109 l 0.01249,0.01248 v 2.983356 H 16 L 14.001898,12.473123 V 11.86347 l 0.328189,0.327045 -0.328189,-3.19606 h -0.99905 V 7.990849 l 1.998101,0.997115 V 5.997116 L 12.003797,5.498308 10.966282,5 Z" />
</svg>
