<svg xmlns="http://www.w3.org/2000/svg" viewBox="0 0 16 16">
<path id="folder" fill="#ab47bc" d="m6.922 3.768-.644-.536A1 1 0 0 0 5.638 3H2a1 1 0 0 0-1 1v8a1 1 0 0 0 1 1h12a1 1 0 0 0 1-1V5a1 1 0 0 0-1-1H7.562a1 1 0 0 1-.64-.232" />
<path id="motive" fill="#e1bee7" d="M 10.575017,12.875864 6.4250171,10.273527 a 0.90000002,0.90080904 0 0 1 -0.425,-0.7706919 v -0.49044 l 4.5749999,2.8625709 a 0.80000002,0.80071914 0 0 0 0.85,0 l 4.575,-2.8725799 v 0.500449 a 0.90000002,0.90080904 0 0 1 -0.425,0.7656879 l -4.15,2.607341 a 0.80000002,0.80071914 0 0 1 -0.85,0 m 0,2.001798 -4.1499999,-2.602337 a 0.90000002,0.90080904 0 0 1 -0.425,-0.770692 v -0.49044 l 4.5749999,2.86257 a 0.80000002,0.80071914 0 0 0 0.85,0 l 4.575,-2.872579 v 0.500449 a 0.90000002,0.90080904 0 0 1 -0.425,0.765688 l -4.15,2.607341 a 0.80000002,0.80071914 0 0 1 -0.85,0 m -0.04,-9.738746 -4.5349999,2.862571 4.5349999,2.862571 c 0.28,0.185166 0.645,0.185166 0.925,0 l 4.535,-2.862571 -4.535,-2.862571 a 0.84000002,0.84075509 0 0 0 -0.925,0" />
</svg>
