<?xml version="1.0" encoding="UTF-8"?>
<svg version="1.1" xmlns="http://www.w3.org/2000/svg" viewBox="0 0 24 24">
<path fill="#607D8B" d="M19,20H4c-1.105,0-2-0.895-2-2V6c0-1.11,0.89-2,2-2h6l2,2h7c1.097,0,2,0.903,2,2H4v10l2.14-8h17.07 l-2.28,8.5C20.7,19.37,19.92,20,19,20z"/>
<g>
	<polygon fill="#CFD8DC" points="16.948,14.905 11.092,11.459 10.823,11.459 10.823,17.837 12.823,16.697 12.835,13.814 15.823,15.467 15.823,19.398 12.966,17.744 10.973,18.909 16.823,22.393 16.948,22.223"/>
	<polygon fill="#CFD8DC" points="16.822,14.801 22.49,11.459 22.823,11.459 22.823,17.837 20.823,16.697 20.811,13.814 17.823,15.467 17.823,19.398 20.68,17.744 22.673,18.909 16.823,22.393"/>
	<polygon fill="#CFD8DC" points="16.823,14.979 22.822,11.459 17.319,8.272 17.319,10.563 19.823,12.047 16.823,13.777 13.822,12.047 16.323,10.563 16.323,8.272 10.823,11.459 16.822,14.979 16.822,14.979"/>
</g>
</svg>