<svg xmlns="http://www.w3.org/2000/svg" xml:space="preserve" id="svg1" version="1.1" viewBox="0 0 4.233 4.233"><g id="layer1"><path id="path1" fill="#90a4ae" d="m1.831.997-.17-.142a.265.265 0 0 0-.17-.061H.53a.265.265 0 0 0-.264.264v2.117a.265.265 0 0 0 .264.265h3.175a.265.265 0 0 0 .265-.265V1.323a.265.265 0 0 0-.265-.265H2.001a.265.265 0 0 1-.17-.061" style="display:inline;fill:#42a5f5;fill-opacity:1;stroke-width:.264583"/><g id="middlePart" transform="translate(-.066 -.148) scale(.01256)"><linearGradient id="leftGradient" x1="92.67" x2="235.668" y1="362.394" y2="218.917" gradientTransform="matrix(2.4488 0 0 -2.4488 -123.332 1032.619)" gradientUnits="userSpaceOnUse"><stop id="stop5" offset="0" style="stop-color:#0277bd;stop-opacity:1"/><stop id="stop6" offset="1" style="stop-color:#366994"/></linearGradient><path id="leftPart" d="M195.6 159.9s-27.4-.6-56.2 21c0 0-28.8 52.2-28.8 116.6 0 0 16.8 29 61 30.4 0 0 7.4-9 13.4-16.6-25.3-7.6-34.9-23.5-35-23.6l-1-1.5c1.3-8.8 5.5-22.8 20.6-29.6 0-12.2 9-22.1 20.4-22.1 10.2 0 18.6 8 20.1 18.5h32.8c1.6-10.4 9.9-18.2 20.1-18.5 9.1-.3 16.2 7.2 19.7 16.5 12.7-8.1 16-16.2 16-34.5l.1-22.4c-13.9-12.2-38.1-22.5-54.4-24.4-18-2-36.7-1.4-54.4 2.3-11.4 2.3-22.5 6.1-33.1 10.7-7.4 3.4-11.8 5.8-11.8 5.8s16.6-15.8 52.6-26.2z" style="fill:url(#leftGradient)"/><linearGradient id="rightGradient" x1="138.337" x2="289.537" y1="334.594" y2="189.737" gradientTransform="matrix(2.4488 0 0 -2.4488 -123.332 1032.619)" gradientUnits="userSpaceOnUse"><stop id="stop7" offset="0" style="stop-color:#fdd835;stop-opacity:1"/><stop id="stop8" offset="1" style="stop-color:#ffc331"/></linearGradient><path id="rightPart" d="m259 161.3-2.8 3.1c17.9 5.1 35.1 14 49.4 25.3v31.1s.9 28.4-23 37.5c-.9 11.1-9.4 19.8-20 19.8-9.5 0-17.8-8.3-19.8-18l-32.1-.1c-2 9.7-10.1 18.1-19.8 18.1-7.1 0-16-7.1-19.6-13.3-7.1 3.9-10.8 8.4-13.7 18.7 11.2 12.3 31.5 20.5 45.3 23.2 14.7 2.8 32 3.7 50.9.2 9.2-1.6 18.7-4.3 28.5-8.5 6.9-2.6 14.5-6.3 22.6-11.6 0 0-9.8 16.1-35.6 23.4 5.9 7.5 13 15.9 13 15.9 43.4-1.4 60.1-29.9 60.1-29.9 0-63.3-28.3-114.6-28.3-114.6-28.2-20.8-55.1-20.3-55.1-20.3Z" style="fill:url(#rightGradient)"/></g></g></svg>
