<svg xmlns="http://www.w3.org/2000/svg" viewBox="0 0 32 32">
  <path d="M13.84376,7.53645l-1.28749-1.0729A2,2,0,0,0,11.27591,6H4A2,2,0,0,0,2,8V24a2,2,0,0,0,2,2H28a2,2,0,0,0,2-2V10a2,2,0,0,0-2-2H15.12412A2,2,0,0,1,13.84376,7.53645Z" style="fill: #43a047"/>
  <g>
    <polygon points="20 14 20 20.48 25.38 24.78 26.62 23.22 22 19.52 22 14 20 14" style="fill: #c8e6c9"/>
    <path d="M32,10.16248l-2.898,2.82061A9.98429,9.98429,0,1,0,31.8,22H29.75a8.03368,8.03368,0,1,1-2.0824-7.62073L24.975,17H32Z" style="fill: #c8e6c9"/>
  </g>
</svg>
