<svg xmlns="http://www.w3.org/2000/svg" viewBox="0 0 16 16">
<path id="folder" fill="#ff7043" d="m6.922 3.768-.644-.536A1 1 0 0 0 5.638 3H2a1 1 0 0 0-1 1v8a1 1 0 0 0 1 1h12a1 1 0 0 0 1-1V5a1 1 0 0 0-1-1H7.562a1 1 0 0 1-.64-.232" />
<path id="motive" fill="#ffccbc" d="m 6.2970378,9.2945056 2.891977,-2.896977 0.8459932,0.849993 a 0.98999211,0.98999212 0 0 0 0.464996,1.116491 v 2.7719784 a 0.99499207,0.99499208 0 0 0 -0.499996,0.865493 1.000992,1.000992 0 0 0 2.001484,0 0.99499207,0.99499208 0 0 0 -0.500996,-0.865493 V 8.7040106 l 1.035492,1.045991 a 0.59999521,0.59999522 0 0 0 -0.035,0.249998 1.000992,1.000992 0 1 0 1.000992,-1.000992 0.59999521,0.59999522 0 0 0 -0.249998,0.035 l -1.286489,-1.28549 a 0.98999211,0.98999212 0 0 0 -0.574996,-1.17099 1.0499916,1.0499916 0 0 0 -0.640495,-0.045 L 9.8990088,5.6865346 10.294506,5.2965376 a 0.98749213,0.98749214 0 0 1 1.410989,0 l 3.997968,3.997968 a 0.98749213,0.98749214 0 0 1 0,1.4109894 l -3.997968,3.997968 a 0.98749213,0.98749214 0 0 1 -1.410989,0 L 6.2965378,10.705495 a 0.98749213,0.98749214 0 0 1 0,-1.4109894 z" />
</svg>
