<svg xmlns="http://www.w3.org/2000/svg" viewBox="0 0 32 32">
  <path d="M28.96692,12H9.44152a2,2,0,0,0-1.89737,1.36754L4,24V10H28a2,2,0,0,0-2-2H15.1241a2,2,0,0,1-1.28038-.46357L12.5563,6.46357A2,2,0,0,0,11.27592,6H4A2,2,0,0,0,2,8V24a2,2,0,0,0,2,2H26l4.80523-11.21213A2,2,0,0,0,28.96692,12Z" style="fill: #0288d1"/>
  <g>
    <path d="M24,16H21.01782l.141-1.67615.0008-.01031a1.94472,1.94472,0,0,1,3.84887-.48407l1.47474-1.6875a3.89662,3.89662,0,0,0-3.01062-2.126,4.14277,4.14277,0,0,0-4.26227,4.10523L19.04791,16H16v2h2.87067l-.5293,5.87427a2.05035,2.05035,0,0,1-1.34827,1.77527l-.02606.0094a1.92187,1.92187,0,0,1-2.45142-1.4654L13.03931,25.881a3.9089,3.9089,0,0,0,2.98944,2.10065,4.12755,4.12755,0,0,0,4.27429-4.0816L20.839,18H24Z" style="fill: #b3e5fc;fill-rule: evenodd"/>
    <polygon points="32 20.929 30.586 19.515 27.757 22.343 24.929 19.515 23.515 20.929 26.343 23.757 23.515 26.586 24.929 28 27.757 25.172 30.586 28 32 26.586 29.172 23.757 32 20.929" style="fill: #b3e5fc;fill-rule: evenodd"/>
  </g>
</svg>
