<svg xmlns="http://www.w3.org/2000/svg" viewBox="0 0 32 32"><path fill="#398ccb" d="m13.8 7.5l-1.2-1q-0.2-0.1-0.3-0.2-0.2-0.1-0.3-0.2-0.2 0-0.4-0.1-0.1 0-0.3 0h-7.3q-0.4 0-0.8 0.2-0.3 0.1-0.6 0.4-0.3 0.3-0.4 0.6-0.2 0.4-0.2 0.8v16q0 0.4 0.2 0.8 0.1 0.3 0.4 0.6 0.3 0.3 0.6 0.4 0.4 0.2 0.8 0.2h24q0.4 0 0.8-0.2 0.3-0.1 0.6-0.4 0.3-0.3 0.4-0.6 0.2-0.4 0.2-0.8v-14q0-0.4-0.2-0.8-0.1-0.3-0.4-0.6-0.3-0.3-0.6-0.4-0.4-0.2-0.8-0.2h-12.9q-0.2 0-0.3 0-0.2-0.1-0.4-0.1-0.1-0.1-0.3-0.2-0.1-0.1-0.3-0.2z"/><path fill="#b3deff" fill-rule="evenodd" d="m22.9 11c0.1 0 0.1 0 0.3 0.1 0.1 0 0.1 0.1 0.2 0.1q0 0 0 0 0 0 0.1 0.1c0 0 0.1 0.1 0.2 0.1 0.1 0.1 0.2 0.1 0.2 0.1q0.1 0.1 0.2 0.1c0 0.1 0.2 0.1 0.2 0.2 0.1 0 0.2 0.1 0.2 0.1q0.1 0 0.2 0.1 0 0 0.1 0 0 0 0 0 0 0 0 0 0.1 0.1 0.1 0.1 0.1 0.1 0.2 0.1 0 0 0 0 0.1 0 0.2 0.1 0.1 0 0.1 0.1 0 0 0.1 0 0.1 0.1 0.1 0.1 0 0 0 0 0 0 0 0 0.1 0 0.1 0.1 0.1 0 0.2 0 0.1 0.1 0.1 0.1 0 0 0.1 0.1 0.2 0.1 0.2 0.1 0 0 0 0 0 0 0.1 0c0 0 0 0.1 0.1 0.1 0.1 0.1 0.2 0.1 0.2 0.1q0 0.1 0.1 0.1 0 0 0 0 0 0 0.1 0.1v1.1h0.1q0 0.1 0.1 0.1 0.1 0 0.1 0.1 0 0 0.1 0 0 0 0 0 0 0 0.1 0 0 0.1 0 0.1 0.1 0 0.1 0 0.1 0.1 0.2 0.1 0 0.1 0.1 0.1 0 0 0 0 0.1 0 0.1 0.1 0.1 0 0.2 0 0 0.1 0 0.1 0.1 0 0.1 0 0.1 0.1 0.1 0.1 0 0 0 0 0.1 0 0.1 0 0 0.1 0 0.1 0.1 0 0.2 0 0 0.1 0.1 0.1 0 0 0 0 0 0 0 0 0.1 0.1 0.1 0.1 0 0 0.1 0 0 0 0 0 0 0.1 0.1 0.1 0 0 0 0 0.1 0 0.1 0.1 0.1 0 0.2 0 0 0.1 0.1 0.1 0.1 0 0.1 0.1 0 0 0.1 0 0 0 0 0 0 0 0.1 0.1 0 0 0.1 0 0 0 0 0 0 0.1 0.1 0.1 0 0 0 0 0.1 0.1 0.2 0.1 0.1 0.1 0.1 0.1 0.1 0 0.1 0 0 0 0.1 0.1 0.1 0.1 0.2 0.1 0 0 0 0 0.1 0.1 0.1 0.1 0 0 0.1 0 0 0 0 0 0 0 0.1 0.1 0 0 0.1 0 0 0.1 0 0.1c0 0 0 0.8 0 4.9h0.1q0.1 0.1 0.2 0.1 0 0 0.1 0.1c0 0 0.1 0 0.1 0.1 0.1 0 0.2 0.1 0.3 0.1q0.1 0.1 0.1 0.1 0 0 0 0c0 0 0 1.1 0 4.6h-0.1c-0.1 0.1-0.1 0.1-0.2 0.2q-0.1 0-0.1 0 0 0.1-0.1 0.1 0 0 0 0-0.1 0-0.2 0.1 0 0-0.1 0.1-0.1 0-0.2 0c0 0.1-0.1 0.1-0.1 0.1q-0.1 0.1-0.1 0.1c0 0-0.1 0.1-0.2 0.1-0.1 0.1-0.3 0.1-0.3 0.1q0 0.1 0 0.1 0 0-0.1 0 0 0 0 0.1-0.1 0-0.1 0 0 0-0.1 0-0.1 0.1-0.1 0.1 0 0 0 0c0 0-0.1 0.1-0.2 0.1-0.1 0.1-0.2 0.1-0.2 0.1-0.1 0.1-0.1 0.1-0.2 0.1q-0.1 0.1-0.1 0.1-0.1 0.1-0.1 0.1 0 0-0.1 0c0 0-0.1 0.1-0.2 0.1 0 0.1-0.1 0.1-0.1 0.1q0 0-0.1 0 0 0.1-0.1 0.1 0 0-0.1 0.1-0.1 0-0.1 0 0 0-0.1 0.1-0.1 0-0.2 0-0.1 0-0.2 0c0-0.1-0.1-0.1-0.1-0.1q-0.1-0.1-0.1-0.1-0.1 0-0.2-0.1c0 0-0.1-0.1-0.2-0.1q-0.1-0.1-0.1-0.1 0 0-0.1 0 0 0 0 0 0 0-0.1 0 0-0.1 0 0 0 0-0.1 0-0.1 0.1-0.1 0.1-0.1 0-0.1 0 0 0-0.1 0.1 0 0 0 0 0 0-0.2 0.1c0 0-0.1 0.1-0.2 0.1q0 0 0 0 0 0.1-0.1 0.1-0.1 0-0.1 0.1-0.1 0-0.2 0 0 0.1 0 0.1 0 0-0.1 0-0.1 0-0.1 0.1 0 0 0 0-0.1 0-0.1 0 0 0-0.1 0.1 0 0-0.1 0-0.1 0.1-0.1 0.1 0 0-0.1 0 0 0 0 0.1c0 0-0.1 0-0.2 0.1-0.1 0-0.2 0.1-0.3 0.1q0 0.1-0.1 0.1 0 0 0 0-0.1 0-0.1 0.1 0 0-0.1 0 0 0 0 0 0 0-0.1 0.1 0 0-0.1 0 0 0-0.1 0.1c-0.1 0-0.1 0.1-0.2 0.1q0 0-0.1 0 0 0.1 0 0.1-0.1 0-0.1 0 0 0-0.1 0.1 0 0-0.1 0 0 0 0 0 0 0-0.1 0.1 0 0-0.1 0-0.2 0-0.2 0 0-0.1-0.1-0.1 0 0 0 0 0 0-0.1 0-0.1-0.1-0.1-0.1 0 0 0 0-0.1 0-0.1-0.1 0 0-0.1 0c0 0-0.1-0.1-0.2-0.1q-0.1-0.1-0.1-0.1 0 0-0.1 0 0-0.1-0.1-0.1 0 0 0 0-0.1 0-0.1 0 0-0.1 0-0.1-0.1 0-0.1 0 0 0-0.1-0.1c0 0-0.2-0.1-0.3-0.1-0.1-0.1-0.2-0.1-0.2-0.1q0-0.1 0-0.1-0.1 0-0.1 0 0 0-0.1-0.1 0 0-0.1 0 0-0.1-0.1-0.1 0 0 0 0-0.1 0-0.1 0 0-0.1-0.1-0.1 0 0 0 0 0 0-0.1-0.1 0 0-0.1 0-0.1-0.1-0.2-0.1 0 0 0-0.1-0.1 0-0.1 0c-0.1 0-0.1-0.1-0.2-0.1q-0.1-0.1-0.1-0.1-0.1 0-0.1 0-0.1-0.1-0.1-0.1 0 0 0 0-0.1 0-0.2-0.1 0 0 0 0 0 0-0.1-0.1 0 0-0.1 0.1 0 0 0 0 0 0-0.1 0c-0.1 0.1-0.1 0.1-0.2 0.1 0 0.1-0.1 0.1-0.1 0.1-0.1 0.1-0.2 0.1-0.2 0.2-0.1 0-0.2 0.1-0.3 0.1q0 0-0.1 0c-0.1 0-0.2 0-0.3-0.1-0.1 0-0.2-0.1-0.3-0.1 0-0.1-0.1-0.1-0.2-0.1q0-0.1 0-0.1c0 0-0.1 0-0.2-0.1-0.1 0-0.2-0.1-0.2-0.1q0 0-0.1-0.1-0.1 0-0.2-0.1 0 0 0 0-0.1 0-0.1 0-0.1-0.1-0.1-0.1 0 0 0 0 0 0-0.1 0 0 0 0-0.1 0 0-0.1 0 0 0 0 0 0 0 0 0 0 0-0.1 0 0-0.1-0.1-0.1-0.1-0.1-0.1-0.1-0.1 0-0.2-0.1-0.1 0-0.1 0 0-0.1-0.1-0.1c0 0-0.1-0.1-0.2-0.1-0.1-0.1-0.1-0.1-0.2-0.1q0 0 0-0.1-0.1 0-0.1 0-0.1 0-0.1-0.1-0.1 0-0.1 0 0 0 0 0-0.1-0.1-0.2-0.1c0 0-0.1-0.1-0.2-0.1q0 0 0-0.1c0 0-0.1 0-0.3-0.1v-4.6l0.1-0.1q0.1-0.1 0.1-0.1 0 0 0.1 0 0.1-0.1 0.2-0.1 0 0 0 0 0.1 0 0.1-0.1c0 0 0.1-0.1 0.3-0.2v-2.4q0-2.4 0-2.4 0.1 0 0.1-0.1 0 0 0.1 0 0-0.1 0-0.1 0 0 0.1 0 0 0 0 0 0-0.1 0.1-0.1 0 0 0.1 0 0 0 0.1-0.1 0.1-0.1 0.2-0.1 0 0 0.1-0.1c0.1 0 0.2-0.1 0.2-0.1q0 0 0.1 0 0 0 0-0.1 0 0 0.1 0 0 0 0 0 0.1-0.1 0.1-0.1 0 0 0.1 0 0 0 0 0 0-0.1 0.1-0.1 0 0 0.1-0.1c0.1 0 0.2 0 0.2 0q0.1-0.1 0.1-0.1 0 0 0.1 0 0 0 0-0.1 0 0 0.1 0 0 0 0 0 0 0 0.1-0.1 0.1 0 0.1 0 0 0 0 0 0 0 0.1-0.1 0 0 0.1 0 0 0 0-0.1 0 0 0.1 0 0 0 0.1 0 0 0 0-0.1 0.1 0 0.1 0 0 0 0.1-0.1 0 0 0.1 0 0.1-0.1 0.1-0.1 0 0 0 0 0.1 0 0.2-0.1 0 0 0.1-0.1 0.1 0 0.1 0 0 0 0.1-0.1 0 0 0 0 0 0 0.1 0 0-0.1 0-0.1 0 0 0.1 0 0 0 0.1-0.1v-1.1l0.1-0.1c0.1-0.1 0.2-0.1 0.2-0.1 0.1-0.1 0.2-0.1 0.3-0.1q0.1-0.1 0.1-0.1 0 0 0 0 0 0 0.1-0.1 0 0 0 0 0 0 0.1 0 0-0.1 0.1-0.1 0.1-0.1 0.1-0.1 0.1 0 0.1 0 0.1-0.1 0.1-0.1 0 0 0.1 0 0.1-0.1 0.1-0.1 0 0 0.1 0c0 0 0.1-0.1 0.1-0.1 0.1-0.1 0.2-0.1 0.2-0.1q0.1-0.1 0.1-0.1 0 0 0.1 0c0 0 0.1-0.1 0.1-0.1q0.1-0.1 0.1-0.1 0 0 0.1 0 0 0 0 0 0 0 0.1-0.1c0.1 0 0.2-0.1 0.3-0.1 0.1-0.1 0.2-0.1 0.2-0.1q0-0.1 0-0.1 0 0 0.2-0.1c0 0 0.1-0.1 0.2-0.1q0.1 0 0.1-0.1 0.1 0 0.1 0 0 0 0.1-0.1 0 0 0.1 0 0 0 0-0.1c0.1 0 0.1 0 0.2 0zm4 6.9q-0.1 0-0.1 0 0 0.1-0.1 0.1 0 0-0.1 0 0 0-0.1 0.1 0 0-0.1 0-0.1 0.1-0.1 0.1 0 0-0.1 0-0.1 0.1-0.1 0.1 0 0-0.1 0.1-0.1 0-0.1 0.1 0 0 0 0-0.1 0-0.1 0-0.1 0-0.1 0 0 0.1 0 0.1-0.1 0-0.1 0 0 0-0.1 0.1c-0.1 0-0.1 0-0.2 0.1q-0.1 0-0.1 0 0 0.1-0.1 0.1 0 0 0 0 0 0 0 0 0 0-0.1 0c0 0 0 0.1-0.1 0.1-0.1 0.1-0.2 0.1-0.2 0.1q-0.1 0.1-0.1 0.1-0.1 0-0.1 0 0 0.1-0.1 0.1 0 0 0 0-0.1 0-0.2 0.1c0 0-0.1 0.1-0.2 0.1q-0.1 0.1-0.1 0.1 0 0-0.1 0 0 0.1 0 0.1-0.1 0-0.1 0-0.1 0-0.2 0.1 0 0 0 0 0 0.1-0.1 0.1 0 0 0 0 0 0-0.1 0c-0.1 0.1-0.1 0.1-0.2 0.1q-0.1 0.1-0.2 0.1-0.1 0-0.1 0-0.1-0.1-0.2-0.1c0 0-0.1-0.1-0.1-0.1-0.1-0.1-0.2-0.1-0.2-0.1-0.1-0.1-0.2-0.1-0.2-0.1q-0.1-0.1-0.2-0.1 0 0-0.1-0.1c0 0-0.1 0-0.1-0.1-0.1 0-0.2-0.1-0.2-0.1q0 0-0.1 0 0 0-0.1-0.1-0.1 0-0.1-0.1c0 0-0.1 0-0.2-0.1-0.1 0-0.2-0.1-0.2-0.1q-0.1 0-0.2-0.1 0 0-0.1 0 0 0 0-0.1-0.1 0-0.1 0-0.1 0-0.1 0 0-0.1 0-0.1 0 0 0 0-0.1 0-0.2-0.1-0.1 0-0.1 0 0 0 0 0 0-0.1-0.1-0.1-0.1-0.1-0.2-0.1 0 0 0 0-0.1 0-0.1-0.1 0 0 0 0 0 0-0.1 0 0-0.1-0.1-0.1 0 0 0 0-0.1 0-0.1-0.1c-0.1 0-0.2 0-0.2-0.1h-0.2c0-0.8 0-1 0-1q0 0-0.1 0 0 0.1-0.1 0.1 0 0 0 0-0.1 0-0.1 0.1-0.1 0-0.1 0-0.1 0.1-0.1 0.1-0.1 0-0.1 0 0 0 0 0.1 0 0-0.1 0-0.1 0-0.1 0 0 0.1 0 0.1-0.1 0-0.2 0 0 0.1-0.1 0.1-0.1 0.1-0.1 0.1 0 0-0.1 0 0 0.1-0.1 0.1 0 0 0 0-0.1 0-0.1 0 0 0 0 0.1-0.1 0-0.1 0 0 0-0.1 0 0 0.1 0 0.1 0 0-0.1 0l-0.1 0.1v2.4q0.2-0.1 0.2-0.1 0 0 0.1-0.1 0.1 0 0.1 0 0 0 0.1-0.1c0.1 0 0.2-0.1 0.2-0.1 0.1 0 0.1 0 0.2-0.1q0.2 0 0.2 0.1 0.1 0 0.1 0 0.1 0.1 0.1 0.1 0 0 0.1 0c0.1 0.1 0.2 0.1 0.3 0.2 0.1 0.1 0.2 0.1 0.3 0.2 0 0 0.1 0 0.1 0 0.1 0.1 0.2 0.1 0.2 0.1 0.1 0.1 0.1 0.1 0.2 0.1q0.1 0.1 0.1 0.1 0.1 0 0.1 0.1 0 0 0 0 0.1 0 0.1 0 0.1 0.1 0.2 0.1 0.1 0.1 0.1 0.1 0 0 0.1 0.1 0 0 0.1 0 0 0 0 0.1 0.1 0 0.1 0 0.1 0 0.1 0 0 0 0.1 0.1 0 0 0.1 0.1c0 0 0.1 0 0.2 0 0 0.1 0.1 0.1 0.1 0.1 0.1 0.1 0.1 0.1 0.2 0.1q0.1 0.1 0.1 0.1 0.1 0 0.1 0.1 0.1 0 0.1 0 0 0 0.1 0.1 0.1 0 0.1 0 0 0 0 0 0 0 0.1 0.1l0.2 0.1c0 4.6 0 4.6-0.1 4.6q0 0 0 0 0 0 0 0-0.1 0-0.1 0.1 0 0-0.1 0 0 0 0 0-0.1 0.1-0.1 0.1-0.1 0-0.1 0 0 0-0.1 0.1 0 0 0 0-0.1 0-0.1 0.1-0.1 0-0.1 0 0 0 0.1 0.1 0.1 0 0.1 0 0 0 0 0 0.1 0.1 0.1 0.1 0 0 0.1 0 0 0 0 0 0 0.1 0.2 0.1 0.1 0.1 0.1 0.1 0 0 0.1 0 0 0 0 0.1 0 0 0.1 0 0 0 0.1 0.1 0 0 0 0 0.1 0 0.2 0.1 0 0 0.1 0 0 0 0 0.1 0.1 0 0.1 0 0.1 0.1 0.1 0.1 0.1 0 0.1 0 0 0 0.1 0.1 0 0 0 0 0.1 0 0.1 0 0.1 0 0.1 0 0-0.1 0-0.1 0.1 0 0.1 0 0 0 0.1-0.1 0.1 0 0.1 0 0.1-0.1 0.1-0.1 0 0 0.1 0 0-0.1 0.1-0.1 0.1 0 0.1 0 0-0.1 0-0.1 0.1 0 0.1 0 0.1-0.1 0.1-0.1 0 0 0 0c0 0 0.1 0 0.2-0.1q0.1 0 0.1-0.1 0 0 0.1 0 0 0 0 0 0 0 0.1-0.1 0 0 0.1 0 0 0 0 0 0.1-0.1 0.1-0.1 0 0-0.1 0 0 0-0.1-0.1 0 0-0.1 0c0-0.1-0.1-0.1-0.1-0.1-0.1-0.1-0.2-0.1-0.3-0.2v-4.6q0.1-0.1 0.2-0.1 0-0.1 0.1-0.1 0 0 0 0 0 0 0.1-0.1 0 0 0.1 0 0-0.1 0-0.1 0 0 0.1 0 0 0 0 0 0.1-0.1 0.2-0.1 0 0 0.1-0.1 0 0 0.1 0 0 0 0-0.1 0.1 0 0.1 0 0 0 0.2-0.1 0.1-0.1 0.1-0.1 0 0 0 0 0.1 0 0.2-0.1 0.1 0 0.1 0 0.1-0.1 0.2-0.1 0-0.1 0.1-0.1 0 0 0.1-0.1c0.1 0 0.1-0.1 0.2-0.1q0.1 0 0.1-0.1 0 0 0.1 0 0.1 0 0.1 0 0-0.1 0-0.1c0 0 0.1 0 0.2-0.1 0.1 0 0.2-0.1 0.2-0.1q0 0 0.1 0 0-0.1 0.1-0.1c0 0 0.1-0.1 0.2-0.1 0 0 0.1-0.1 0.1-0.1q0.1 0 0.1-0.1 0.1 0 0.1 0 0 0 0.1 0 0-0.1 0.1-0.1 0.1 0 0.2 0.1 0 0 0.1 0c0 0 0 0 0.1 0.1 0.1 0.1 0.2 0.1 0.2 0.1q0.1 0 0.1 0.1 0.1 0 0.1 0 0 0 0.1 0.1 0 0 0.1 0v-2.4q-0.2-0.1-0.1-0.1-0.1 0-0.1-0.1-0.1 0-0.1 0 0 0 0 0-0.1-0.1-0.1-0.1 0 0 0 0-0.1 0-0.2-0.1 0 0-0.1 0 0 0 0 0 0 0-0.1-0.1 0 0-0.1-0.1-0.1 0-0.1 0-0.1 0-0.1-0.1 0 0-0.1 0 0 0 0 0 0-0.1-0.1-0.1 0 0 0 0-0.1 0-0.1-0.1-0.1 0-0.1 0-0.1-0.1-0.1-0.1-0.1 0-0.1 0 0 0-0.1-0.1 0 0-0.1 0l-0.1-0.1z"/></svg>