<svg
  xmlns="http://www.w3.org/2000/svg"
  viewBox="0 0 24 24"
  stroke-miterlimit="1.414"
  stroke-linejoin="round"
  fill-rule="evenodd"
  clip-rule="evenodd"
>
  <path
    fill="#212121"
    fill-rule="nonzero"
    d="M19 20H4a2 2 0 01-2-2V6c0-1.11.89-2 2-2h6l2 2h7c1.097 0 2 .903 2 2H4v10l2.14-8h17.07l-2.28 8.5c-.23.87-1.01 1.5-1.93 1.5z"
  />
  <path
    d="M20.353 22.2c-.05.03-.066.052-.021.028.031-.019.083-.057.074-.059a.294.294 0 00-.053.03zm-.099.064c-.025.02-.025.021.006.005.017-.008.032-.018.032-.021 0-.012-.008-.009-.038.016zm-.071.043c-.026.02-.026.021.006.005.017-.008.031-.018.031-.021 0-.012-.007-.009-.037.016zm-.072.042c-.025.02-.025.022.006.006.017-.008.032-.018.032-.021 0-.012-.008-.009-.038.015zm-.108.058c-.055.028-.052.04.003.013a.149.149 0 00.042-.029c0-.01-.001-.009-.045.016z"
  />
  <path
    fill="#fff"
    d="M23.38 16.335a7.621 7.388 0 01-7.616 7.389 7.621 7.388 0 01-7.626-7.38 7.621 7.388 0 017.608-7.397 7.621 7.388 0 017.635 7.37"
  />
  <path
    d="M15.025 6.323a8.822 8.822 0 00-8.731 8.832 8.822 8.822 0 008.827 8.81 8.822 8.822 0 003.74-.832c-.221-.298-.216-.287-.47-.63l-1.798-2.43-2.257-3.337a325.785 325.785 0 00-2.27-3.335c-.008-.002-.016 1.48-.02 3.291-.007 3.17-.01 3.297-.049 3.371a.402.402 0 01-.193.202c-.07.035-.133.04-.465.04h-.382l-.1-.061a.415.415 0 01-.147-.163l-.047-.098.006-4.41.005-4.414.07-.087a.602.602 0 01.162-.134c.09-.044.125-.047.505-.047.45 0 .524.017.64.145.033.035 1.255 1.875 2.716 4.09 1.461 2.216 3.458 5.24 4.44 6.725l.53.807a8.822 8.822 0 004.2-7.514v-.02a8.822 8.822 0 00-8.837-8.8 8.822 8.822 0 00-.075 0zm3.276 4.259c.326 0 .384.004.456.043a.445.445 0 01.222.261c.018.057.023 1.28.018 4.037l-.007 3.956-.697-1.07-.699-1.068v-2.876c0-1.859.008-2.905.02-2.956a.449.449 0 01.22-.276c.09-.046.121-.051.467-.051z"
  />
</svg>
