<svg xmlns="http://www.w3.org/2000/svg" xml:space="preserve" stroke-linejoin="round" stroke-miterlimit="1.414" clip-rule="evenodd" viewBox="0 0 24 24">
  <path fill="#4a2ec6" d="M19 20H4a2 2 0 0 1-2-2V6c0-1.11.89-2 2-2h6l2 2h7c1.097 0 2 .903 2 2H4v10l2.14-8h17.07l-2.28 8.5c-.23.87-1.01 1.5-1.93 1.5z"/>
  <path fill="#9282dd" d="M21.15588 12.43946c.10134.26717.15969.55584.15969.85832 0 1.33585-1.0825 2.41835-2.41835 2.41835s-2.41835-1.0825-2.41835-2.41835 1.08097-2.41989 2.41682-2.41989c.35469 0 .68942.07831.99344.21496-.94584-.7232-2.12815-1.15313-3.4118-1.15313-3.10778 0-5.62747 2.51969-5.62747 5.62747s2.51969 5.62747 5.62747 5.62747 5.62747-2.51969 5.62747-5.62747c0-1.15774-.35009-2.23256-.94892-3.12774z"/>
  <circle cx="21.10675" cy="11.0253" r="2.41835" fill="#9282dd"/>
</svg>
