<?xml version="1.0" encoding="utf-8"?>
<!-- Generator: Adobe Illustrator 23.0.2, SVG Export Plug-In . SVG Version: 6.00 Build 0)  -->
<svg version="1.1" id="Camada_1" xmlns="http://www.w3.org/2000/svg" xmlns:xlink="http://www.w3.org/1999/xlink" x="0px" y="0px"
	 viewBox="0 0 24 24" style="enable-background:new 0 0 24 24;" xml:space="preserve">
<style type="text/css">
	.st0{fill:#FF5252;}
	.st1{fill:#FFCDD2;}
</style>
<path class="st0" d="M19,20H4c-1.1,0-2-0.9-2-2V6c0-1.1,0.9-2,2-2h6l2,2h7c1.1,0,2,0.9,2,2H4v10l2.1-8h17.1l-2.3,8.5
	C20.7,19.4,19.9,20,19,20z"/>
<g>
	<path class="st1" d="M16.7,17h1.2v1.2h-1.2V17 M16.7,12.2h1.2v3.6h-1.2V12.2 M17.2,9.2c-3.3,0-6,2.7-6,6c0,3.3,2.7,6,6,6s6-2.7,6-6
		S20.5,9.2,17.2,9.2 M17.2,20c-2.6,0-4.8-2.1-4.8-4.8s2.1-4.8,4.8-4.8s4.8,2.1,4.8,4.8S19.9,20,17.2,20z"/>
</g>
</svg>
