<?xml version="1.0" encoding="utf-8"?>
<!-- Generator: Adobe Illustrator 26.3.1, SVG Export Plug-In . SVG Version: 6.00 Build 0)  -->
<svg version="1.1" id="Layer_1" xmlns="http://www.w3.org/2000/svg" xmlns:xlink="http://www.w3.org/1999/xlink" x="0px" y="0px"
	 viewBox="0 0 24 24" style="enable-background:new 0 0 24 24;" xml:space="preserve">
<style type="text/css">
	.st0{fill:#26C6DA;}
	.st1{fill:#E0F7FA;}
	.st2{fill-rule:evenodd;clip-rule:evenodd;fill:#DAF8FC;}
</style>
<path class="st0" d="M10,4H4C2.9,4,2,4.9,2,6v12c0,1.1,0.9,2,2,2h16c1.1,0,2-0.9,2-2V8c0-1.1-0.9-2-2-2h-8L10,4z"/>
<g>
	<path class="st1" d="M19.6,13.7c0,0.7-0.6,1.3-1.4,1.3s-1.4-0.6-1.4-1.3s0.6-1.3,1.4-1.3S19.6,13,19.6,13.7z"/>
	<ellipse class="st1" cx="15.9" cy="17.5" rx="1.4" ry="1.3"/>
	<g>
		<path class="st2" d="M21,18c-0.5,0.3-1.2,0.6-1.8,0.7c0.2-0.5,0.2-1.1,0.2-1.6c1.9-0.7,2.9-2.7,2.2-4.6c-0.7-1.9-2.7-2.8-4.6-2.2
			c-0.7,0.2-1.3,0.7-1.8,1.3c-0.7,0.1-1.4,0.3-2,0.6C14.1,9.5,17,8,19.7,8.8c2.7,0.8,4.3,3.7,3.4,6.4C22.8,16.3,22,17.3,21,18L21,18
			z"/>
		<path class="st2" d="M13.1,13.3c0.5-0.3,1.2-0.6,1.8-0.7c-0.2,0.5-0.3,1.1-0.2,1.6c-1.9,0.7-2.9,2.7-2.2,4.6
			c0.7,1.9,2.8,2.8,4.7,2.2c0.7-0.2,1.3-0.7,1.7-1.3c0.7-0.1,1.4-0.3,2-0.6c-0.9,2.7-3.8,4.2-6.5,3.3c-2.7-0.8-4.3-3.7-3.4-6.4
			C11.3,14.9,12.1,13.9,13.1,13.3L13.1,13.3z M20.8,18.1L20.8,18.1L20.8,18.1z"/>
	</g>
</g>
</svg>
