<svg xmlns="http://www.w3.org/2000/svg" viewBox="0 0 32 32"><path fill="#398ccb" d="m13.844 7.536-1.288-1.072A2 2 0 0 0 11.276 6H4a2 2 0 0 0-2 2v16a2 2 0 0 0 2 2h24a2 2 0 0 0 2-2V10a2 2 0 0 0-2-2H15.124a2 2 0 0 1-1.28-.464"/><path fill="#b3deff" fill-rule="evenodd"  d="m23.7 10.7l3.1 1.9v1l3.9 2.2v3.8l1 0.6v3.6l-3.2 1.9-1.4-0.8-3.4 1.9-3.4-1.9-1.4 0.8-3.2-1.9v-3.6l1-0.6v-3.8l3.8-2.2v-1zm3.2 3.7v1.8l-3.2 1.8-3.2-1.8v-1.7l-2.9 1.7v2.9l1.3-0.8 3.2 1.8v3.7l-1 0.5 2.6 1.5 2.6-1.5-0.9-0.5v-3.7l3.2-1.8 1.3 0.7v-2.8zm1.3 10v-2.3l-2-1.1v2.3zm2.8-3.4l-1.9 1.1v2.3l1.9-1.2zm-12.4 3.4v-2.2l-1.9-1.2v2.3zm2.7-3.4l-1.9 1.1v2.3l1.9-1.1zm7.3 0.4l1.9-1.2-1.9-1.1-1.9 1.1zm-9.7-2.2l-1.9 1.1 1.9 1.1 2-1.1zm4.3-2.4v-2.3l-1.9-1.1v2.3zm2.7-3.4l-1.9 1.1v2.3l1.9-1.2zm-2.3 0.4l1.9-1.1-1.9-1.1-1.9 1.1z"/></svg>