<?xml version="1.0" encoding="utf-8"?>
<svg xmlns="http://www.w3.org/2000/svg" viewBox="0 0 1024 1024">
    <path
        d="M926.912 384H302.144a64 64 0 0 0-60.736 43.776L128 768V320h768a64 64 0 0 0-64-64H483.968a64 64 0 0 1-40.96-14.848l-41.216-34.304A64 64 0 0 0 360.832 192H128a64 64 0 0 0-64 64v512a64 64 0 0 0 64 64h704l153.792-358.784A64 64 0 0 0 926.912 384"
        style="fill: rgb(186, 104, 200);" />
    <path
        d="M 780.526 894.13 L 738.946 796.926 C 778.927 782.181 816.031 762.382 850.894 739.289 L 780.526 894.13 M 590.214 648.163 L 492.979 606.806 L 648.108 536.503 C 624.759 571.014 604.928 608.341 590.214 648.163 M 995.787 391.577 C 995.787 391.577 870.084 337.779 726.471 481.424 C 670.816 537.014 637.553 598.17 616.123 651.746 C 608.766 670.777 613.564 691.567 627.637 705.801 L 681.692 759.599 C 695.765 773.802 716.557 778.376 735.428 771.275 C 789.802 750.483 850.253 716.451 905.908 660.893 C 1049.52 517.216 995.787 391.577 995.787 391.577 M 816.031 571.014 C 796.519 551.216 796.519 518.974 816.031 499.208 C 836.181 479.409 868.165 479.409 887.996 499.208 C 907.508 518.974 907.827 551.216 887.996 571.014 C 868.165 590.813 836.181 590.813 816.031 571.014 M 672.416 750.483 L 636.913 714.661 L 672.416 750.483 M 605.567 889.3 L 698.004 796.926 C 689.369 794.624 681.052 790.817 673.375 785.476 L 569.744 889.3 L 605.567 889.3 M 498.097 889.3 L 533.6 889.3 L 654.825 768.492 L 618.682 732.7 L 498.097 853.508 L 498.097 889.3 M 498.097 817.461 L 601.729 713.925 C 596.291 706.28 592.453 698.188 590.214 689.296 L 498.097 781.701 L 498.097 817.461 Z"
        style="stroke-width: 1.689; fill: rgb(225, 190, 231);" />
</svg>