<svg xmlns="http://www.w3.org/2000/svg" viewBox="0 0 32 32">
  <path d="M28.96692,12H9.44152a2,2,0,0,0-1.89737,1.36754L4,24V10H28a2,2,0,0,0-2-2H15.1241a2,2,0,0,1-1.28038-.46357L12.5563,6.46357A2,2,0,0,0,11.27592,6H4A2,2,0,0,0,2,8V24a2,2,0,0,0,2,2H26l4.80523-11.21213A2,2,0,0,0,28.96692,12Z" style="fill: #ff7043"/>
  <path d="M14,12l2,16,7,2,7-2,2-16Zm8,5.899L18.66028,20,22,22.10187V24L16.76532,20.614V19.387L22,16Zm7.23474,2.72833L24,24V22.10187L27.36334,20,24,17.89905V16l5.23474,3.37262Z" style="fill: #ffccbc;fill-rule: evenodd"/>
</svg>
