<svg xmlns="http://www.w3.org/2000/svg" viewBox="0 0 16 16">
<path id="folder" fill="#0277bd" d="m6.922 3.768-.644-.536A1 1 0 0 0 5.638 3H2a1 1 0 0 0-1 1v8a1 1 0 0 0 1 1h12a1 1 0 0 0 1-1V5a1 1 0 0 0-1-1H7.562a1 1 0 0 1-.64-.232" />
<path id="motive" fill="#b3e5fc" d="M 10,10.5 A 0.5,0.5 0 0 0 9.5,10 0.5,0.5 0 0 0 10,9.5 V 7 h 1 V 6 H 10 A 1,1 0 0 0 9,7 V 9 A 0.5,0.5 0 0 1 8.5,9.5 H 8 v 1 H 8.5 A 0.5,0.5 0 0 1 9,11 v 2 a 1,1 0 0 0 1,1 h 1 v -1 h -1 z m 5.5,-1 A 0.5,0.5 0 0 1 15,9 V 7 A 1,1 0 0 0 14,6 h -1 v 1 h 1 V 9.5 A 0.5,0.5 0 0 0 14.5,10 0.5,0.5 0 0 0 14,10.5 V 13 h -1 v 1 h 1 a 1,1 0 0 0 1,-1 v -2 a 0.5,0.5 0 0 1 0.5,-0.5 H 16 v -1 z" />
</svg>
