<svg xmlns="http://www.w3.org/2000/svg" viewBox="0 0 16 16"><path id="folder" fill="#039be5" d="m6.922 3.768-.644-.536A1 1 0 0 0 5.638 3H2a1 1 0 0 0-1 1v8a1 1 0 0 0 1 1h12a1 1 0 0 0 1-1V5a1 1 0 0 0-1-1H7.562a1 1 0 0 1-.64-.232"/><g id="motive" fill="#b3e5fc"><path d="M7 8h2v2H7zM4 8h2v2H4zm6 0h2v2h-2zm0-3h2v2h-2z"/><path d="M15.834 9.905a1.83 1.83 0 0 0-1.534-.188 2.3 2.3 0 0 0-.833-1.473l-.167-.151-.133.189a2.22 2.22 0 0 0-.334 1.397 2.5 2.5 0 0 0 .117.55l-.31.642a2.6 2.6 0 0 1-.84.129H3a7.7 7.7 0 0 0 .433 2.379l.133.263v.038a4.11 4.11 0 0 0 3.8 2.19c3 0 5.467-1.472 6.634-4.644a1.8 1.8 0 0 0 1.9-1.019l.1-.189ZM6 14a1 1 0 1 1 1-1 1 1 0 0 1-1 1"/></g></svg>