<svg xmlns="http://www.w3.org/2000/svg" viewBox="0 0 16 16">
<path id="folder" fill="#c0ca33" d="m6.922 3.768-.644-.536A1 1 0 0 0 5.638 3H2a1 1 0 0 0-1 1v8a1 1 0 0 0 1 1h12a1 1 0 0 0 1-1V5a1 1 0 0 0-1-1H7.562a1 1 0 0 1-.64-.232" />
<path id="motive" fill="#f0f4c3" d="M 11.5,8 A 1.5000002,1.5000002 0 0 0 11.5015,5 H 11.5 A 1.5,1.5 0 0 0 10,6.4995 V 6.5 A 1.5,1.5 0 0 0 11.4995,8 Z m 0,1.9865 C 10.3875,8.9475 8.5225,7.9975 7,8 v 5 c 1.595,0 3.425,1.002 4.5,2 1.113,-1.039 2.9775,-2.0025 4.5,-2 V 8 C 14.478,7.9975 12.613,8.9475 11.5,9.9865" />
</svg>
