<svg version="1.1" viewBox="0 0 32 32" xmlns="http://www.w3.org/2000/svg">
    <path d="M28.967 12H9.442a2 2 0 0 0-1.898 1.368L4 24V10h24a2 2 0 0 0-2-2H15.124a2 2 0 0 1-1.28-.464l-1.288-1.072A2 2 0 0 0 11.276 6H4a2 2 0 0 0-2 2v16a2 2 0 0 0 2 2h22l4.805-11.212A2 2 0 0 0 28.967 12" fill="#2196f3"/>
    <g fill="#bbdefb">
        <path d="m28.5 15q-0.6375 0-1.0688-0.43125-0.43125-0.43124-0.43125-1.0688 0-0.6375 0.43125-1.0688t1.0688-0.43125 1.0688 0.43125q0.43126 0.43124 0.43126 1.0688 0 0.6375-0.43126 1.0688-0.43124 0.43125-1.0688 0.43125z"/>
        <path d="m9 15v-3h16.5v3z"/>
        <path d="m28.5 21q-0.6375 0-1.0688-0.43125-0.43125-0.43124-0.43125-1.0688 0-0.6375 0.43125-1.0688t1.0688-0.43125 1.0688 0.43125q0.43126 0.43124 0.43126 1.0688 0 0.6375-0.43126 1.0688-0.43124 0.43125-1.0688 0.43125z"/>
        <path d="m9 21v-3h16.5v3z"/>
        <path d="m28.5 27q-0.6375 0-1.0688-0.43125-0.43125-0.43124-0.43125-1.0688t0.43125-1.0688q0.43125-0.43125 1.0688-0.43125t1.0688 0.43125q0.43126 0.43124 0.43126 1.0688t-0.43126 1.0688q-0.43124 0.43125-1.0688 0.43125z"/>
        <path d="m9 27v-3h16.5v3z"/>
    </g>
</svg>
