<svg xmlns="http://www.w3.org/2000/svg" viewBox="0 0 24 24"><path fill="#EF5350" d="M19 20H4a2 2 0 0 1-2-2V6c0-1.11.89-2 2-2h6l2 2h7c1.097 0 2 .903 2 2H4v10l2.14-8h17.07l-2.28 8.5c-.23.87-1.01 1.5-1.93 1.5"/><path fill="#FFCDD2" d="M9 20.368h6.612v2.515H9zm5.257-9 1.122-2.25 5.917 2.95-1.122 2.25zm2.131 9H23v2.515h-6.612zM9 17.345h3.676v2.515H9zm10.324 0H23v2.515h-3.676zm-2.774-.383v-1.895c0-.562.203-.878.381-1.159q.09-.137.15-.25l-.976-.508q-.04.075-.101.166c-.207.325-.554.868-.554 1.751v1.895h-.874l1.431 2.898 1.418-2.898z"/></svg>