<svg xmlns="http://www.w3.org/2000/svg" viewBox="0 0 32 32">
  <path d="M28.96692,12H9.44152a2,2,0,0,0-1.89737,1.36754L4,24V10H28a2,2,0,0,0-2-2H15.1241a2,2,0,0,1-1.28038-.46357L12.5563,6.46357A2,2,0,0,0,11.27592,6H4A2,2,0,0,0,2,8V24a2,2,0,0,0,2,2H26l4.80523-11.21213A2,2,0,0,0,28.96692,12Z" style="fill: #ff7043"/>
  <path d="M22,10A10,10,0,1,0,32,20,10,10,0,0,0,22,10ZM16,22.125a2,2,0,1,1,2-2A2,2,0,0,1,16,22.125Zm6,0a2,2,0,1,1,2-2A2,2,0,0,1,22,22.125Zm6,0a2,2,0,1,1,2-2A2,2,0,0,1,28,22.125Z" style="fill: #ffccbc;fill-rule: evenodd"/>
</svg>
