<?xml version="1.0" encoding="UTF-8" standalone="no"?>
<!DOCTYPE svg PUBLIC "-//W3C//DTD SVG 1.1//EN" "http://www.w3.org/Graphics/SVG/1.1/DTD/svg11.dtd">
<svg width="100%" height="100%" viewBox="0 0 32 32" version="1.1" xmlns="http://www.w3.org/2000/svg"
  xmlns:xlink="http://www.w3.org/1999/xlink" xml:space="preserve" xmlns:serif="http://www.serif.com/"
  style="fill-rule:evenodd;clip-rule:evenodd;stroke-linejoin:round;stroke-miterlimit:2;">
  <path
    d="M13.844,7.536L12.556,6.464C12.197,6.164 11.744,6 11.276,6L4,6C2.903,6 2,6.903 2,8L2,24C2,25.097 2.903,26 4,26L28,26C29.097,26 30,25.097 30,24L30,10C30,8.903 29.097,8 28,8L15.124,8C14.656,8 14.203,7.836 13.844,7.536"
    style="fill:rgb(33,150,243);fill-rule:nonzero;" />
  <g id="cloudfunctions.svg" transform="matrix(0.666667,0,0,0.659244,12,9.76926)">
    <path d="M30,8.656L26.01,6.66L26.01,21.357L30,19.362L30,8.656ZM0,19.35L3.99,21.344L3.99,6.647L0,8.642L0,19.35Z"
      style="fill:rgb(187,222,251);" />
    <path d="M30,16.362L26.01,18.357L26.01,20.352L30,16.362ZM26.01,7.666L26.01,9.66L30,11.657L26.01,7.666Z"
      style="fill:rgb(187,222,251);" />
    <path
      d="M21.52,24.833L29.99,16.363L29.99,22.003L24.34,27.653L21.52,24.833ZM21.52,3.176L30,11.656L30,6.004L24.346,0.35L21.52,3.176Z"
      style="fill:rgb(187,222,251);" />
    <path d="M0,11.642L3.99,9.647L3.99,7.652L0,11.642ZM3.99,20.34L3.99,18.344L0,16.35L3.99,20.34Z"
      style="fill:rgb(187,222,251);" />
    <path d="M8.48,3.172L0.01,11.642L0.01,6L5.66,0.35L8.48,3.172ZM8.48,24.828L0,16.348L0,22L5.654,27.654L8.48,24.828Z"
      style="fill:rgb(187,222,251);" />
    <circle cx="8.999" cy="14" r="2.005" style="fill:rgb(187,222,251);" />
    <circle cx="14.995" cy="14" r="2.005" style="fill:rgb(187,222,251);" />
    <circle cx="20.99" cy="14" r="2.005" style="fill:rgb(187,222,251);" />
  </g>
</svg>