<svg xmlns="http://www.w3.org/2000/svg" viewBox="0 0 24 24" style="enable-background:new 0 0 24 24" xml:space="preserve"><path d="M19 20H4c-1.1 0-2-.9-2-2V6c0-1.1.9-2 2-2h6l2 2h7c1.1 0 2 .9 2 2H4v10l2.1-8h17.1l-2.3 8.5c-.2.9-1 1.5-1.9 1.5z" style="fill:#ffab00"/><path d="M17 9c-3.3 0-6 2.7-6 6s2.7 6 6 6 6-2.7 6-6-2.7-6-6-6zm.6 10.2h-1.2V18h1.2v1.2zm1.2-4.6-.5.6c-.4.4-.7.8-.7 1.7h-1.2v-.3c0-.7.3-1.3.7-1.7l.7-.8c.2-.2.4-.5.4-.8 0-.7-.5-1.2-1.2-1.2s-1.2.5-1.2 1.2h-1.2c0-1.3 1.1-2.4 2.4-2.4s2.4 1.1 2.4 2.4c0 .4-.2.9-.6 1.3z" style="fill:#ffe57f"/></svg>