<svg viewBox="0 0 16 16" xmlns="http://www.w3.org/2000/svg">
	<path
		id="folder"
		fill="#880E4F"
		d="M14.483 6H4.721a1 1 0 0 0-.949.684L2 12V5h12a1 1 0 0 0-1-1H7.562a1 1 0 0 1-.64-.232l-.644-.536A1 1 0 0 0 5.638 3H2a1 1 0 0 0-1 1v8a1 1 0 0 0 1 1h11l2.403-5.606A1 1 0 0 0 14.483 6"
	/>
	<path
		id="motive"
		fill="#FF4081" stroke="none"
		d="M 10.5,6 A 4.5,4.5 0 0 0 6,10.5 4.5,4.5 0 0 0 10.5,15 H 16 V 13 H 14.242188 10.5 A 2.5,2.5 0 0 1 8,10.5 2.5,2.5 0 0 1 10.5,8 a 2.5,2.5 0 0 1 2,1 h 2.242188 A 4.5,4.5 0 0 0 10.5,6 Z m 2.449219,4 A 2.5,2.5 0 0 1 13,10.5 2.5,2.5 0 0 1 12.5,12 H 14.742188 16 v -2 h -1.027344 z"
	/>
</svg>
