<?xml version="1.0" encoding="UTF-8"?>
<svg clip-rule="evenodd" fill-rule="evenodd" stroke-linejoin="round" stroke-miterlimit="1.4142" version="1.1" viewBox="0 0 24 24" xml:space="preserve" 
    xmlns="http://www.w3.org/2000/svg">
    <path d=" M 10 4 L 4 4 C 2.89 4 2 4.89 2 6 L 2 18 C 2 19.097 2.903 20 4 20 L 20 20 C 21.097 20 22 19.097 22 18 L 22 8 C 22 6.89 21.1 6 20 6 L 12 6 L 10 4 Z " fill="#D1D1D1" fill-rule="nonzero"/>
    <path d=" M 9.875 11.625 Q 13.703 12.097 16.438 12.094 Q 19.128 12.091 22.875 11.625 L 22.875 13.344 Q 19.128 13.81 16.438 13.813 Q 13.703 13.815 9.875 13.344 L 9.875 11.625 Z " fill="rgb(46,46,46)"/>
    <path d=" M 12.844 13.008 L 11.969 21.516 L 13.875 21.508 L 14.156 13.508 L 12.844 13.008 Z " fill="rgb(46,46,46)"/>
    <path d=" M 19.688 13 L 20.539 21.5 L 18.656 21.5 L 18.375 13.5 L 19.688 13 Z " fill="rgb(46,46,46)"/>
    <rect x="9.797" y="15.172" width="13" height="1" transform="matrix(1,0,0,1,0,0)" fill="rgb(46,46,46)"/>
    <rect x="15.797" y="13" width="1" height="2.375" transform="matrix(1,0,0,1,0,0)" fill="rgb(46,46,46)"/>
</svg>

