<svg xmlns="http://www.w3.org/2000/svg" viewBox="0 0 24 24" fill="none"><path fill="#7B1FA2" d="M19 20H4a2 2 0 0 1-2-2V6c0-1.11.89-2 2-2h6l2 2h7c1.097 0 2 .903 2 2H4v10l2.14-8h17.07l-2.28 8.5c-.23.87-1.01 1.5-1.93 1.5Z"/><path fill="#CE93D8" d="M18.648 17.198c-1.735 0-2.303.697-2.489 1.157a1.55 1.55 0 1 1-1.126-.036V14.01a1.55 1.55 0 1 1 1.033 0v2.732c.454-.335 1.116-.578 2.066-.578 1.38 0 1.839-.692 1.988-1.152a1.55 1.55 0 1 1 2.143-1.43 1.54 1.54 0 0 1-1.078 1.477c-.135.738-.636 2.138-2.537 2.138Zm-3.098 2.066a.516.516 0 1 0 0 1.032.516.516 0 0 0 0-1.032Zm0-7.231a.516.516 0 1 0 0 1.032.516.516 0 0 0 0-1.032Zm5.165 1.033a.516.516 0 1 0 0 1.032.516.516 0 0 0 0-1.032Z"/></svg>