<svg xmlns="http://www.w3.org/2000/svg" viewBox="0 0 16 16">
<path fill="#ff9800" d="m6.922 3.768-.644-.536A1 1 0 0 0 5.638 3H2a1 1 0 0 0-1 1v8a1 1 0 0 0 1 1h12a1 1 0 0 0 1-1V5a1 1 0 0 0-1-1H7.562a1 1 0 0 1-.64-.232" id="folder"/>
<path fill="#ffe0b2" d="M14.9775 9.843a3.2 3.2 0 0 0-1.073-1.935c-0.1885-0.1605-2.748-2.125-3.375-2.592l-0.179-0.138a0.5225 0.5225 0 1 0-0.637 0.828l1.26 0.9695 0.031 0.025L6.498 7a0.4965 0.4965 0 0 0-0.0405 0.992l0.003 0.0015 0.0155 0.002c0.008 0 0.014 0.0045 0.022 0.0045h0.034l0.015 0.0005h2.2065l-3.867 2.9785a0.78 0.78 0 0 0-0.2625 0.6075 0.5 0.5 0 0 0 0.22 0.4125 0.735 0.735 0 0 0 0.758 0.0115 1.55 1.55 0 0 0 0.3805-0.277c1.049-0.8625 1.837-1.504 1.842-1.4995a0.75 0.75 0 0 1-0.0065 0.1335 1.75 1.75 0 0 0 0.0445 0.6295 3.1 3.1 0 0 0 0.54 1.144 3.64 3.64 0 0 0 2.29 1.38c0.126 0.022 0.213 0.033 0.4375 0.055 0.0805 0.008 0.592-0.004 0.6895-0.0155a3.75 3.75 0 0 0 2.191-1.009 3.2 3.2 0 0 0 0.962-1.8 4.1 4.1 0 0 0 0.005-0.9085m-1.4015 0.465a1.9 1.9 0 0 1-0.5455 1.024 2.05 2.05 0 0 1-0.6185 0.441 2.4 2.4 0 0 1-0.8055 0.2175 2.1415 2.1415 0 0 1-2.418-1.9055 1.95 1.95 0 0 1 1.041-1.7845 2.377 2.377 0 0 1 2.846 0.401 1.85 1.85 0 0 1 0.325 0.4665 1.75 1.75 0 0 1 0.17 0.489 2.25 2.25 0 0 1 0.0055 0.6515m-0.7745-0.667a0.85 0.85 0 0 1 0.0295 0.28 0.9 0.9 0 0 1-0.025 0.273 1.2 1.2 0 0 1-0.362 0.608 1.425 1.425 0 0 1-0.879 0.386 1 1 0 0 1-0.275-0.0005 1.395 1.395 0 0 1-1.1325-0.755 1.5 1.5 0 0 1-0.0775-0.196 1.18 1.18 0 0 1 0.3015-1.138 1.425 1.425 0 0 1 0.7525-0.412 1.68 1.68 0 0 1 0.766 0.0425 1.34 1.34 0 0 1 0.9015 0.912" id="motive"/>
</svg>
