<svg xmlns="http://www.w3.org/2000/svg" viewBox="0 0 16 16">
	<path
		id="folder"
		fill="#00B8D4" stroke="none"
		d="M 6.922,3.768 6.278,3.232 A 1,1 0 0 0 5.638,3 H 2 A 1,1 0 0 0 1,4 v 8 a 1,1 0 0 0 1,1 h 12 a 1,1 0 0 0 1,-1 V 5 A 1,1 0 0 0 14,4 H 7.562 A 1,1 0 0 1 6.922,3.768"
	/>
	<path
		id="motive"
		fill="#84FFFF" stroke="none" display="inline"
		d="M 4,10 v 0.5 h 2 v -0.5 z m -1.5,1 v 0.5 h 3 v -0.5 z m 1.5,1 v 0.5 h 1.5 v -0.5 z
		M 13.652344,9.0039063 c -0.163621,0.00443 -0.331101,0.023065 -0.5,0.052734 -0.788195,0.138459 -1.370001,0.4686073 -1.853516,1.1015624 -0.450397,0.586803 -0.656332,1.245193 -0.537109,1.990235 0.07948,0.507682 0.324058,0.93718 0.714844,1.273437 0.463644,0.395596 1.01445,0.566892 1.617187,0.580078 0.172211,-0.01978 0.350463,-0.02758 0.529297,-0.06055 0.615984,-0.125272 1.152694,-0.401999 1.589844,-0.84375 0.615984,-0.619768 0.874318,-1.344281 0.761718,-2.234375 -0.0861,-0.632955 -0.410338,-1.1146655 -0.933593,-1.4707029 -0.432183,-0.2917527 -0.89781,-0.4019614 -1.388672,-0.3886718 z m -0.119141,1.2089847 c 0.538534,-0.01758 1.012868,0.33706 1.117188,0.908203 0.01325,0.06593 0.01291,0.131084 0.01953,0.216797 -0.03312,0.567022 -0.318542,0.989441 -0.841797,1.259765 -0.351045,0.17802 -0.713833,0.197302 -1.078125,0.03906 -0.476891,-0.210985 -0.728598,-0.731818 -0.609375,-1.246094 0.145717,-0.619768 0.542219,-1.008025 1.158203,-1.146484 0.07865,-0.01813 0.157442,-0.02874 0.234375,-0.03125 z
		M 8.90625,9.0019531 C 8.754333,9.005219 8.6010611,9.0210684 8.4453125,9.0488281 7.6831387,9.1859936 7.0604034,9.5722401 6.5898437,10.179688 6.1524221,10.741413 5.9392319,11.381795 6.0253906,12.09375 c 0.072904,0.600916 0.3513545,1.083445 0.8417969,1.449219 0.5302077,0.391901 1.1336988,0.516552 1.7832031,0.43164 0.788685,-0.104507 1.4114844,-0.490817 1.8886724,-1.111328 0.291614,-0.378838 0.472018,-0.809015 0.544921,-1.279297 0.02651,-0.176356 0.02581,-0.407629 0.03906,-0.583984 H 8.7109375 C 8.6115236,11 8.5648049,11.120966 8.5449219,11.160156 8.4521354,11.32998 8.2931902,11.668611 8.2070313,11.871094 8.1606384,11.982132 8.1928519,12 8.3320313,12 h 1.2792968 c -0.066276,0.09144 -0.1180859,0.236745 -0.1777343,0.308594 -0.2982417,0.333116 -0.676276,0.490426 -1.1269532,0.43164 -0.5235799,-0.07185 -0.8879038,-0.502855 -0.8945312,-1.02539 -0.00663,-0.529067 0.2251047,-0.954793 0.6757812,-1.242188 0.3777739,-0.241672 0.7816795,-0.300138 1.1992188,-0.09766 0.1391793,0.06532 0.211133,0.137008 0.3105469,0.248047 0.086158,0.09798 0.093945,0.09253 0.1933593,0.06641 0.4109114,-0.104508 0.6957424,-0.182602 1.1132814,-0.287109 0.03728,-0.0092 0.06356,-0.02279 0.07617,-0.03906 0.0116,-0.01796 0.01012,-0.04287 -0.0098,-0.07226 C 10.805013,9.9121775 10.552435,9.5977499 10.201172,9.3691406 9.7985452,9.0997083 9.3620011,8.9921556 8.90625,9.0019531 Z"
	/>
</svg>
