<svg xmlns="http://www.w3.org/2000/svg" viewBox="0 0 16 16">
<path id="folder" fill="#2196f3" d="M14.483 6H4.721a1 1 0 0 0-.949.684L2 12V5h12a1 1 0 0 0-1-1H7.562a1 1 0 0 1-.64-.232l-.644-.536A1 1 0 0 0 5.638 3H2a1 1 0 0 0-1 1v8a1 1 0 0 0 1 1h11l2.403-5.606A1 1 0 0 0 14.483 6" />
<path id="motive" fill="#bbdefb" d="M 10.5 7 C 8.17 7 5.825 8.455 5 10.5 C 5.825 12.545 8.17 14 10.5 14 C 12.83 14 15.175 12.545 16 10.5 C 15.175 8.455 12.83 7 10.5 7 z M 10.615234 8.0019531 A 2.5 2.5 0 0 1 13 10.5 A 2.5 2.5 0 0 1 10.5 13 A 2.5 2.5 0 1 1 10.615234 8.0019531 z M 10.5 9 A 1.5 1.5 0 0 0 9 10.5 A 1.5 1.5 0 0 0 10.5 12 A 1.5 1.5 0 0 0 12 10.5 A 1.5 1.5 0 0 0 10.5 9 z " />
</svg>
