<?xml version="1.0" encoding="UTF-8"?>
<svg version="1.1" xmlns="http://www.w3.org/2000/svg" viewBox="0 0 24 24">
	<path fill="#FFA726" d="M10,4H4C2.89,4,2,4.89,2,6v12c0,1.097,0.903,2,2,2h16c1.097,0,2-0.903,2-2V8c0-1.105-0.895-2-2-2h-8L10,4z"/>
	<g fill="#FFE0B2">
		<path class="st1" d="M22.583,11.978l-4.87-2.789c-0.441-0.253-0.983-0.253-1.424,0l-4.87,2.789c-0.281,0.161-0.494,0.409-0.614,0.7
			l0,0c-0.07,0.17-0.107,0.354-0.107,0.544v5.557c0,0.514,0.266,0.941,0.712,1.197l0.69,0.393l0.021-6.519
			c0-0.138,0.03-0.281,0.077-0.406l0,0c0.092-0.226,0.262-0.432,0.481-0.557l3.771-2.159c0.342-0.196,0.761-0.196,1.103,0
			l3.771,2.159c0.263,0.151,0.45,0.401,0.523,0.687l0,0l0,0c0.023,0.089,0.035,0.181,0.035,0.276v4.303
			c0,0.398-0.213,0.765-0.558,0.963l-3.771,2.159c-0.172,0.099-0.364,0.147-0.556,0.146L16.997,23l0,0
			c0.246,0,0.494-0.063,0.714-0.189l4.87-2.789c0.446-0.255,0.721-0.73,0.721-1.244v-5.556c0-0.132-0.018-0.261-0.053-0.384l0,0
			C23.152,12.479,22.914,12.168,22.583,11.978z"/>
		<path class="st1" d="M17.396,19.782l2.705-1.549c0.248-0.142,0.4-0.405,0.4-0.691v-3.085c0-0.065-0.008-0.128-0.023-0.19l0,0
			c-0.051-0.209-0.186-0.391-0.377-0.501l-2.705-1.548c-0.245-0.14-0.546-0.14-0.791,0l-2.704,1.548
			c-0.17,0.098-0.296,0.253-0.358,0.432l0,0c-0.026,0.081-0.043,0.172-0.043,0.259l-0.01,6.696l1.443,0.81v-3.138l1.672,0.957
			c0.12,0.069,0.254,0.104,0.388,0.105l0,0C17.132,19.889,17.271,19.854,17.396,19.782z M15.16,17.326
			c-0.147-0.084-0.238-0.241-0.238-0.41v-1.832c0-0.056,0.01-0.11,0.028-0.161l0,0l0,0c0.038-0.104,0.111-0.193,0.21-0.249
			l1.606-0.919c0.145-0.083,0.324-0.083,0.47,0l1.606,0.919c0.118,0.068,0.2,0.182,0.227,0.312l0,0
			c0.005,0.028,0.01,0.069,0.01,0.098v1.832c0,0.169-0.091,0.326-0.238,0.41l-1.606,0.919c-0.073,0.042-0.154,0.063-0.235,0.063l0,0
			c-0.081,0-0.162-0.021-0.235-0.062L15.16,17.326z"/>
	</g>
</svg>