<svg xmlns="http://www.w3.org/2000/svg" viewBox="0 0 16 16">
<path fill="#5c6bc0" d="m6.922 3.768-.644-.536A1 1 0 0 0 5.638 3H2a1 1 0 0 0-1 1v8a1 1 0 0 0 1 1h12a1 1 0 0 0 1-1V5a1 1 0 0 0-1-1H7.562a1 1 0 0 1-.64-.232" id="folder"/>
<g id="motive"><path fill="#c5cae9" d="M8.6175 6.2235a2.105 2.105 0 0 1 1.657 1.6565 0.7355 0.7355 0 0 0 1.452 0 2.105 2.105 0 0 1 1.656-1.6565 0.7355 0.7355 0 0 0 0-1.452 2.105 2.105 0 0 1-1.656-1.6565 0.735 0.735 0 0 0-1.4515 0l-0.0005 0.0005a2.105 2.105 0 0 1-1.657 1.656 0.7355 0.7355 0 0 0 0 1.452m6.971 3.2925a1.4025 1.4025 0 0 1-1.104-1.1045 0.49 0.49 0 0 0-0.968 0v0.0005a1.4025 1.4025 0 0 1-1.105 1.104 0.49 0.49 0 0 0 0 0.968 1.4025 1.4025 0 0 1 1.105 1.1045 0.49 0.49 0 0 0 0.968 0 1.4025 1.4025 0 0 1 1.104-1.1045 0.49 0.49 0 0 0 0-0.968"/><rect width="5" height="1" x="6" y="11" fill="#c5cae9" rx="0.5"/><rect width="5" height="1" x="6" y="9" fill="#c5cae9" rx="0.5"/><path fill="#c5cae9" d="M12.5 12a0.5 0.5 0 0 0-0.5 0.5 0.5 0.5 0 0 1-0.5 0.5H5.5a0.5 0.5 0 0 1-0.5-0.5v-4a0.5 0.5 0 0 1 0.5-0.5h3a0.5 0.5 0 0 0 0-1h-3a1.5 1.5 0 0 0-1.5 1.5v4a1.5 1.5 0 0 0 1.5 1.5h6a1.5 1.5 0 0 0 1.5-1.5 0.5 0.5 0 0 0-0.5-0.5"/></g>
</svg>
