<?xml version="1.0" encoding="UTF-8" standalone="no"?>
<!DOCTYPE svg PUBLIC "-//W3C//DTD SVG 1.1//EN" "http://www.w3.org/Graphics/SVG/1.1/DTD/svg11.dtd">
<svg width="100%" height="100%" viewBox="0 0 32 32" version="1.1" xmlns="http://www.w3.org/2000/svg"
  xmlns:xlink="http://www.w3.org/1999/xlink" xml:space="preserve" xmlns:serif="http://www.serif.com/"
  style="fill-rule:evenodd;clip-rule:evenodd;stroke-linejoin:round;stroke-miterlimit:2;">
  <path
    d="M13.844,7.536L12.556,6.464C12.197,6.164 11.744,6 11.276,6L4,6C2.903,6 2,6.903 2,8L2,24C2,25.097 2.903,26 4,26L28,26C29.097,26 30,25.097 30,24L30,10C30,8.903 29.097,8 28,8L15.124,8C14.656,8 14.203,7.836 13.844,7.536"
    style="fill:rgb(33,150,243);fill-rule:nonzero;" />
  <g transform="matrix(1,0,0,1,0,-2)">
    <g transform="matrix(1,0,0,1,1.00067,0)">
      <g transform="matrix(1,0,0,1.03885,2.98203,-0.811491)">
        <rect x="17.999" y="20.021" width="2.037" height="1.922" style="fill:rgb(187,222,251);" />
      </g>
      <g transform="matrix(1,0,0,1.03885,5.32907e-15,-0.789496)">
        <rect x="17.999" y="20.021" width="2.037" height="1.922" style="fill:rgb(187,222,251);" />
      </g>
      <g transform="matrix(1,0,0,1.03885,3.55271e-15,-0.789496)">
        <rect x="23.997" y="20.021" width="1.996" height="1.922" style="fill:rgb(187,222,251);" />
      </g>
    </g>
    <g>
      <rect x="29" y="16" width="3" height="10" style="fill:rgb(187,222,251);" />
      <path d="M26,14L28,12L32,16L30,18L26,14Z" style="fill:rgb(187,222,251);" />
      <g transform="matrix(1,0,0,-1,0,42)">
        <path d="M26,14L28,12L32,16L30,18L26,14Z" style="fill:rgb(187,222,251);" />
      </g>
    </g>
    <g transform="matrix(1,0,0,1,2,0)">
      <rect x="12" y="16" width="3" height="10" style="fill:rgb(187,222,251);" />
      <g transform="matrix(-1,0,0,1,44,-1.77636e-15)">
        <path d="M26,14L28,12L32,16L30,18L26,14Z" style="fill:rgb(187,222,251);" />
      </g>
      <g transform="matrix(-1,0,0,-1,44,42)">
        <path d="M26,14L28,12L32,16L30,18L26,14Z" style="fill:rgb(187,222,251);" />
      </g>
    </g>
  </g>
</svg>