<svg xmlns="http://www.w3.org/2000/svg" viewBox="0 0 16 16">
<path id="folder" fill="#f9a825" d="m6.922 3.768-.644-.536A1 1 0 0 0 5.638 3H2a1 1 0 0 0-1 1v8a1 1 0 0 0 1 1h12a1 1 0 0 0 1-1V5a1 1 0 0 0-1-1H7.562a1 1 0 0 1-.64-.232" />
<path id="motive" fill="#fffde7" d="m 12,14 v -1 h 1.5 q 0.2125,0 0.3565,-0.1435 Q 14.0005,12.713 14,12.5 v -1 Q 14,11.025 14.275,10.6375 14.55,10.25 15,10.0875 V 9.9125 Q 14.55,9.75 14.275,9.3625 14,8.975 14,8.5 v -1 Q 14,7.2875 13.8565,7.1435 13.713,6.9995 13.5,7 H 12 V 6 h 1.5 Q 14.125,6 14.5625,6.4375 15,6.875 15,7.5 v 1 Q 15,8.7125 15.1435,8.856 15.287,8.9995 15.5,9 H 16 v 2 H 15.5 Q 15.2875,11 15.1435,11.1435 14.9995,11.287 15,11.5 v 1 q 0,0.625 -0.4375,1.0625 Q 14.125,14 13.5,14 Z M 8.5,14 Q 7.875,14 7.4375,13.5625 7,13.125 7,12.5 v -1 Q 7,11.2875 6.8565,11.1435 6.713,10.9995 6.5,11 H 6 V 9 H 6.5 Q 6.7125,9 6.8565,8.8565 7.0005,8.713 7,8.5 v -1 Q 7,6.875 7.4375,6.4375 7.875,6 8.5,6 H 10 V 7 H 8.5 Q 8.2875,7 8.1435,7.1435 7.9995,7.287 8,7.5 v 1 Q 8,8.975 7.725,9.3625 7.45,9.75 7,9.9125 v 0.175 Q 7.45,10.25 7.725,10.6375 8,11.025 8,11.5 v 1 Q 8,12.7125 8.1435,12.8565 8.287,13.0005 8.5,13 H 10 v 1 z" />
</svg>
