<svg viewBox="0 0 24 24" fill="none" xmlns="http://www.w3.org/2000/svg">
  <path d="M19 20H4a2 2 0 01-2-2V6c0-1.11.89-2 2-2h6l2 2h7c1.097 0 2 .903 2 2H4v10l2.14-8h17.07l-2.28 8.5c-.23.87-1.01 1.5-1.93 1.5z" fill="#81D4FA"/>
  <mask id="folder-buddy-open" style="mask-type:alpha" maskUnits="userSpaceOnUse" x="10" y="7" width="14" height="16">
    <path d="M16.19 7.16c-1.29.738-4.295 2.464-5.585 3.202A1.204 1.204 0 0010 11.4v6.405c0 .425.233.825.605 1.038 1.284.738 4.294 2.464 5.585 3.202.378.213.838.213 1.21 0a4428.32 4428.32 0 015.585-3.202c.372-.213.605-.613.605-1.038V11.4c0-.431-.233-.825-.605-1.038-1.284-.738-4.294-2.464-5.585-3.203A1.237 1.237 0 0016.793 7a1.21 1.21 0 00-.602.16z" fill="#fff"/>
  </mask>
  <g mask="url(#folder-buddy-open)">
    <path d="M16.19 7.16c-1.29.738-4.295 2.464-5.585 3.202A1.204 1.204 0 0010 11.4v6.405c0 .425.233.825.605 1.038 1.284.738 4.294 2.464 5.585 3.202.378.213.838.213 1.21 0a4428.32 4428.32 0 015.585-3.202c.372-.213.605-.613.605-1.038V11.4c0-.431-.233-.825-.605-1.038-1.284-.738-4.294-2.464-5.585-3.203A1.237 1.237 0 0016.793 7a1.21 1.21 0 00-.602.16z" fill="#00C9FF"/>
    <path d="M13.533 14.602l3.262 7.806L10 18.5l3.533-3.896z" fill="#1A67FD"/>
    <path d="M13.533 14.602L10 10.681v7.818l3.533-3.897z" fill="#0DA7FE"/>
    <path d="M13.533 14.602l3.262-7.793L23.59 18.5l-10.057-3.897z" fill="#00C9FF"/>
    <path d="M13.533 14.602l3.262-7.793L10 10.681l3.533 3.921z" fill="#05BBFF"/>
    <path d="M16.795 22.408L23.59 18.5l-10.057-3.896 3.262 7.805z" fill="#1A86FD"/>
    <path d="M23.59 18.499v-7.793l-6.795-3.897L23.59 18.5z" fill="#05BBFF"/>
    <path d="M18.23 13.946l.864.857-.429.425-.434.431-2.431 2.415-.863-.857 2.431-2.414-2.43-2.415.862-.857 2.43 2.415z" fill="#1A67FD" fill-opacity=".5"/>
    <path d="M19.093 14.415l-.862-.857-3.294 3.271.863.857 3.293-3.271z" fill="#D6FFFF"/>
    <path d="M15.8 11.15l-.857.857 3.294 3.271.863-.857-3.3-3.271z" fill="#D6FFFF"/>
  </g>
</svg>