<svg xmlns="http://www.w3.org/2000/svg" fill="none" viewBox="0 0 32 32"><path fill="#689f38" d="M28.067 12H9.194a1.9 1.9 0 0 0-1.131.377c-.33.246-.576.593-.704.991L3.933 24V10h23.2c0-.53-.204-1.04-.567-1.414A1.9 1.9 0 0 0 25.199 8H14.686a1.9 1.9 0 0 1-1.237-.464l-1.245-1.072A1.9 1.9 0 0 0 10.966 6H3.933a1.9 1.9 0 0 0-1.367.586A2.04 2.04 0 0 0 2 8v16c0 .53.204 1.04.566 1.414.363.375.855.586 1.367.586H25.2l4.645-11.212a2.06 2.06 0 0 0-.163-1.889 1.96 1.96 0 0 0-.698-.66 1.9 1.9 0 0 0-.916-.239"/><path fill="#dcedc8" d="m27.587 13.584 2.132.509-6.03 6.03-2.7-2.7-1.456 1.454 4.156 4.155 6.485-6.485-.06.691L32 19.495l-1.885 2.259.262 2.988-2.79.666-1.46 2.583-2.627-1.184L20.873 28l-1.46-2.583-2.79-.667.262-2.996L15 19.495l1.885-2.265-.262-2.989 2.79-.657L20.873 11l2.627 1.185L26.127 11zM32 14.722l-1.826 1.825.203-2.297-.658-.157.827-.826z"/></svg>