<svg viewBox="0 0 24 24" fill="none" xmlns="http://www.w3.org/2000/svg">
  <path d="M8 0H2C.89 0 0 .89 0 2v12c0 1.097.903 2 2 2h16c1.097 0 2-.903 2-2V4a2 2 0 0 0-2-2h-8L8 0Z" fill="#0277BD" />
  <path
    d="M14.978 20.444v-3.11c0-.581-.088-1.012-.265-1.292a4.17 4.17 0 0 0-.7-.824l.887-.887c.124.114.244.236.358.365.114.13.228.268.342.413.145-.197.293-.371.444-.521.15-.15.303-.298.458-.444a7.084 7.084 0 0 0 1.074-1.26c.321-.477.492-1.311.513-2.504l-.98.98-.887-.871L18.712 8l2.488 2.489-.871.871-.996-.98c-.02 1.483-.249 2.538-.684 3.165-.436.628-.871 1.139-1.307 1.533-.332.3-.601.593-.809.878-.207.286-.31.745-.31 1.377v3.111h-1.245Zm-2.987-8.602a5.168 5.168 0 0 1-.086-.684 33.583 33.583 0 0 1-.038-.778l-.996.98-.871-.871L12.489 8l2.489 2.489-.887.871-.98-.964c0 .217.01.422.031.614.021.192.042.37.062.537l-1.213.295Zm1.338 2.738a5.484 5.484 0 0 1-.599-.762 4.702 4.702 0 0 1-.506-1.074l1.198-.295a3.287 3.287 0 0 0 .794 1.244l-.887.887Z"
    fill="#B3E5FC" />
</svg>