<svg xmlns="http://www.w3.org/2000/svg" viewBox="0 0 16 16">
	<path fill="#FFCA28" d="M14.483 6H4.721a1 1 0 0 0-.949.684L2 12V5h12a1 1 0 0 0-1-1H7.562a1 1 0 0 1-.64-.232l-.644-.536A1 1 0 0 0 5.638 3H2a1 1 0 0 0-1 1v8a1 1 0 0 0 1 1h11l2.403-5.606A1 1 0 0 0 14.483 6" />
	<path fill="#FFECB3" d="M 12,5 A 4,2 0 0 0 8,7 4,2 0 0 0 12,9 4,2 0 0 0 16,7 4,2 0 0 0 12,5 Z M 8,8 v 2 c 0,1.105 1.791,2 4,2 2.209,0 4,-0.895 4,-2 V 8 c 0,1.105 -1.791,2 -4,2 C 9.791,10 8,9.105 8,8 Z m 0,3 v 2 c 0,1.105 1.791,2 4,2 2.209,0 4,-0.895 4,-2 v -2 c 0,1.105 -1.791,2 -4,2 -2.209,0 -4,-0.895 -4,-2 z" />
</svg>
