<svg xmlns="http://www.w3.org/2000/svg" viewBox="0 0 16 16"><path id="folder" fill="#673ab7" d="m6.922 3.768-.644-.536A1 1 0 0 0 5.638 3H2a1 1 0 0 0-1 1v8a1 1 0 0 0 1 1h12a1 1 0 0 0 1-1V5a1 1 0 0 0-1-1H7.562a1 1 0 0 1-.64-.232"/><path id="motive" fill="#d1c4e9" d="M11.602 5c-.57.023-1.532 1.27-2.115 1.793l-.333 1.169c.617.506 1.132 1.238 1.353 1.983a3 3 0 0 1 .676-.063c-1.068-2.804 1.53-4.352.582-4.847A.3.3 0 0 0 11.602 5m.95.995c-.44 1.196-1.259 1.778-.535 3.855 1.16.219 2.108.85 2.423 1.826 0 0 .427-.672.52-.837.22-.388-.519-.696-.898-1.586-.328-.772.154-1.682-.255-2.07zM8.933 9l-.885 2.02c-.256.583.561 1.15 1.358 1.977.906-1.273.755-2.78-.473-3.997m2.64 1.57a3.8 3.8 0 0 0-.846.067c.238.98-.13 2.016-.713 2.844 1.035.01 1.852.202 2.837.492.407.12.833-.185.89-.607.043-.307.11-.646.258-.967-.073-.206-.633-1.755-2.426-1.829"/></svg>