<svg xmlns="http://www.w3.org/2000/svg" viewBox="0 0 32 32"><path d="M13.844,7.536,12.556,6.464A2,2,0,0,0,11.276,6H4A2,2,0,0,0,2,8V24a2,2,0,0,0,2,2H28a2,2,0,0,0,2-2V10a2,2,0,0,0-2-2H15.124A2,2,0,0,1,13.844,7.536Z" style="fill:#689f38"/><path d="M24,14v4h1.5a.5.5,0,0,1,.5.5v5a.5.5,0,0,1-.5.5h-5a.5.5,0,0,1-.5-.5v-5a.5.5,0,0,1,.5-.5H22V14H12a2,2,0,0,0-2,2v4a2,2,0,0,0,2,2h3.20227l.3006,2A4.55257,4.55257,0,0,0,20,28h6a4.55257,4.55257,0,0,0,4.49713-4L32,14ZM12,20V16h2.3006l.60113,4Z" style="fill:#dcedc8"/></svg>