<?xml version="1.0" encoding="UTF-8"?>
<svg version="1.1" viewBox="0 0 24 24" xml:space="preserve" xmlns="http://www.w3.org/2000/svg"><path d="M10 4H4C2.89 4 2 4.89 2 6V18C2 19.097 2.903 20 4 20H20C21.097 20 22 19.097 22 18V8C22 7.46957 21.7893 6.96086 21.4142 6.58579C21.0391 6.21071 20.5304 6 20 6H12L10 4Z" fill="#689f38"/><path d="m22.504 17.103c0 1.0524-0.38546 2.0191-1.0157 2.7533 0.25086 0.23862 0.40382 0.55678 0.40382 0.91778h-7.3422c0-0.36099 0.15296-0.67915 0.40382-0.91778-0.6302-0.73422-1.0157-1.7009-1.0157-2.7533h-1.2237c0-0.76481 0.34876-1.444 0.8933-1.8906l0.0061-0.01224c0.93613-0.6608 1.548-1.7682 1.548-2.9919v-0.61185a3.0592 3.0592 0 0 1 3.0592-3.0592 3.0592 3.0592 0 0 1 3.0592 3.0592v0.61185c0 1.2237 0.61185 2.3311 1.548 2.9919l0.0061 0.01224c0.54453 0.44665 0.89328 1.1258 0.89328 1.8906h-1.2237m-1.8356 0a2.4474 2.4474 0 0 0-2.4474-2.4474 2.4474 2.4474 0 0 0-2.4474 2.4474 2.4474 2.4474 0 0 0 2.4474 2.4474 2.4474 2.4474 0 0 0 2.4474-2.4474m-3.6711-4.283 1.2237 0.91778 1.2237-0.91778-1.2237-0.91778-1.2237 0.91778m0-2.4474a0.61185 0.61185 0 0 0-0.61185 0.61185 0.61185 0.61185 0 0 0 0.61185 0.61185 0.61185 0.61185 0 0 0 0.61185-0.61185 0.61185 0.61185 0 0 0-0.61185-0.61185m2.4474 0a0.61185 0.61185 0 0 0-0.61185 0.61185 0.61185 0.61185 0 0 0 0.61185 0.61185 0.61185 0.61185 0 0 0 0.61185-0.61185 0.61185 0.61185 0 0 0-0.61185-0.61185z" fill="#dcedc8" stroke-width=".61185"/></svg>
