<svg xmlns="http://www.w3.org/2000/svg" viewBox="0 0 160 160">
    <circle fill="#424242" cx="80" cy="80" r="74.1" />
    <g fill="#80DEEA">
        <circle cx="80" cy="80" r="8.7" />
        <path
            d="M30.8 102.1c-.2-14.4 4.2-23.6 17.4-35.3 8.9-7.9 25.8-18.9 42.9-22.6 1.3-.2 2.4.7 2.6 1.7.2 1.2-.5 2.3-1.7 2.5-8.7 1.9-15.5 5-24.3 10C46.3 70.8 35.1 84.2 36 101.3c.1 1.1-1.4 2.7-2.7 2.7s-2.4-.8-2.5-1.9zM79.3 37c-4.9 0-8.9-4-8.9-8.9s4-8.9 8.9-8.9 8.9 4 8.9 8.9-4 8.9-8.9 8.9zm0-13.1c-2.3 0-4.1 1.9-4.1 4.1s1.9 4.1 4.1 4.1c2.3 0 4.1-1.9 4.1-4.1s-1.8-4.1-4.1-4.1zM33.1 74.5c-5.2-9.1-8-18.3-4.4-24.5 4.9-8.4 18.6-10.8 34.5-7.9 1.1.2 1.9 1.3 1.7 2.5-.1 1-.9 2-2.5 1.8-13.8-2.2-26.2-.8-30 5.9-2.8 4.9 0 12.6 4.4 20.2.6 1.1.2 2.5-.8 3s-2.3 0-2.9-1zm87 13.5c-.6-.5-.9-2 0-3 11.3-12.4 15.2-26.7 11.7-32.9-2.8-4.8-6.2-7.1-14.8-7.3-1.2 0-2.1-1-2.1-2.1 0-1.2 1-2.2 2.1-2.2 10.2.1 14.7 3.3 18.2 9.5 5.7 10-.6 25.5-11.7 37.8-1.1 1-2.5 1-3.4.2z" />
        <path
            d="M33 118.4c-5 0-9.1-4.1-9.1-9.1s4.1-9.1 9.1-9.1 9.1 4.1 9.1 9.1-4.1 9.1-9.1 9.1zm0-13.3c-2.3 0-4.2 1.9-4.2 4.2 0 2.3 1.9 4.2 4.2 4.2s4.2-1.9 4.2-4.2c0-2.3-1.9-4.2-4.2-4.2zm70.5 1.4c-1.3-.4-1.5-2-.7-4.3 6-19 7.1-34.5 5.5-42.5-3.2-15.4-11.9-24.4-21.4-29.7-1.4-.8-2.1-3.2-1.9-3.7.3-.8 1.3-1.9 2.7-1 13 8.3 21.3 16.9 25 33.7 2.2 9.7.5 25.2-6.2 45.5-.4 1.5-1.3 2.6-3 2z" />
        <path
            d="M105.9 118.5c-11.9 0-26.7-4.3-40.9-12.5-7.9-4.5-17.9-14.3-20.9-17.4-1.1-1.1-1.6-2.7-.5-3.7.8-.7 2.5-.5 3.8.8 5.6 5.7 12 12.1 19.7 16.5 13.5 7.8 28.2 11.9 39.6 11.7 5.9-.1 12.6-2.6 14.6-4.1 2-1.5 2.5-.2 3.1.8s-.8 2.9-1.8 3.6c-4.1 2.9-10 4.3-16.7 4.3zm-28.6 21.1c-9.7 0-20.5-7.7-25.9-22.8-.4-1.5 0-2.8 1.2-3.1 1.4-.4 2.4.6 2.8 1.8 4.7 13.1 14.2 19.9 21.8 19.9 5.5 0 12.4-2.9 16.8-10.2.6-1.1 1.8-1.3 3-.7 1 .6 1.3 2 .7 3-5.1 8.4-13.3 12.1-20.4 12.1z" />
        <path
            d="M130 100.8c-5.2 0-8.5 3.8-8.5 8.5s3.8 8.5 8.5 8.5 8.5-3.8 8.5-8.5c-.1-4.7-3.9-8.5-8.5-8.5zm0 12.5c-2.2 0-4-1.8-4-4s1.8-4 4-4 4 1.8 4 4-1.9 4-4 4z" />
    </g>
</svg>