<svg xmlns="http://www.w3.org/2000/svg" viewBox="0 0 300 300"><path fill="#fbc02d" d="M110.978 292.583c1.71-.48 4.858-.93 6.994-.996l3.886-.123v-5.072c0-9.684-6.355-24.885-13.844-33.115-1.22-1.34-5.476-4.083-9.459-6.096-7.06-3.568-7.46-3.643-16.061-3.032-4.85.345-11.618 1.392-15.038 2.325-21.15 5.777-53.825-10.127-53.871-26.223-.017-5.957 2.584-8.327 11.094-10.108 10.248-2.144 17.288-5.479 18.06-8.554 1.18-4.697-.304-19.367-2.339-23.14-1.434-2.66-1.925-5.792-1.94-12.369-.018-8.404.16-9.092 3.878-15.025 2.143-3.42 6.093-8.94 8.779-12.265 4.553-5.639 4.908-6.515 5.266-12.953.414-7.455-2.387-20.66-6.188-29.184-4.29-9.62-3.664-35.68 1.334-55.392C56.631 21.138 66.772 4.993 73.058 6.99c2.083.66 2.215 1.013 9.388 24.968 2.121 7.084 2.404 7.46 8.731 11.62 10.456 6.875 20.048 18.022 29.738 34.563l2.684 4.582 10.203 1.289c17.3 2.184 37.568 10.032 48.636 18.83 2.26 1.796 4.824 3.043 5.7 2.771.875-.271 6.923-2.912 13.438-5.867 14.079-6.386 28.26-11.15 47.56-15.972 20.388-5.097 31.764-7.167 34.968-6.363 2.781.699 2.796.75 2.153 7.662-.73 7.857-5.042 21.461-9.758 30.793-7.233 14.308-25.004 34-41.889 46.417-7.607 5.594-7.995 6.08-8.621 10.787-5.233 39.421-15.87 61.176-43.496 88.956-12.947 13.02-13.966 13.797-25.405 19.401-15.592 7.64-23.663 9.762-44.04 11.572-4.036.36-4.494.268-2.072-.414zm-80.394-56.332a167 167 0 0 1-2.505-1.814c-1.917-1.406-1.965-1.384-.65.294.783.997 1.91 1.813 2.504 1.813s.888-.132.65-.293z"/><path fill="#ff9800" d="M110.978 292.583c1.71-.48 4.858-.93 6.994-.996l3.886-.123-.012-4.922c-.015-5.735-1.855-13.217-5.005-20.336-1.63-3.684-1.805-4.689-.653-3.733 2.945 2.445 2.772.137-.327-4.355-3.607-5.228-8.862-9.639-16.88-14.163-3.157-1.782-6.76-4.412-8.006-5.844-1.367-1.574-3.365-2.604-5.048-2.604-2.704 0-2.657.1 1.547 3.33 2.383 1.832 4.333 3.63 4.333 3.992s-4.08.951-9.067 1.305c-4.987.353-11.864 1.407-15.284 2.34-21.15 5.777-53.825-10.127-53.871-26.223-.018-5.957 2.584-8.327 11.094-10.107 10.282-2.151 17.288-5.477 18.066-8.578 1.24-4.94-.43-20.227-2.787-25.52-1.773-3.981-2.17-6.518-1.862-11.917.432-7.593 3.474-13.514 13.02-25.34 4.553-5.639 4.91-6.514 5.267-12.953.413-7.454-2.387-20.66-6.188-29.184-4.29-9.618-3.664-35.68 1.334-55.392C56.631 21.138 66.772 4.992 73.058 6.988c2.083.661 2.215 1.014 9.388 24.968 2.121 7.085 2.404 7.46 8.731 11.62 10.456 6.876 20.048 18.022 29.738 34.563l2.684 4.583 10.203 1.289c17.3 2.184 37.568 10.032 48.636 18.83 2.26 1.796 4.824 3.043 5.7 2.771.875-.271 6.922-2.912 13.438-5.867 14.079-6.386 28.26-11.15 47.56-15.972 20.388-5.097 31.764-7.167 34.968-6.363 2.781.699 2.795.75 2.153 7.662-.73 7.857-5.042 21.461-9.758 30.793-7.233 14.308-25.004 34-41.889 46.417-7.608 5.594-7.995 6.08-8.621 10.787-5.233 39.421-15.87 61.176-43.496 88.956-12.947 13.02-13.966 13.797-25.405 19.401-15.592 7.64-23.663 9.762-44.04 11.572-4.036.36-4.494.267-2.072-.414zm28.487-17.757c15.214-5.868 29.597-17.34 38.77-30.924 10.817-16.02 18.632-40.542 21.438-67.272l1.34-12.765 7.065-6.263c7.63-6.765 16.248-18.903 22.119-31.154 4.509-9.41 4.622-12.622.517-14.743-6.472-3.347-27.43-1.059-46.262 5.05-12.977 4.211-14.76 4.4-19.647 2.08l-3.479-1.65-7.558 5.011c-4.158 2.756-12.657 10.028-18.889 16.158-11.187 11.007-14.057 12.906-14.057 9.305 0-2.563 14.333-18.344 24.633-27.122 6.74-5.744 9.286-7.307 11.917-7.32 2.425-.011 2.932-.277 1.846-.964-.823-.52-3.643-.694-6.265-.383-4.02.477-5.899.003-11.973-3.008-3.964-1.966-12.103-5.63-18.087-8.143-9.855-4.14-11.67-5.35-19.27-12.867C99.007 83.29 92.3 75.125 88.715 69.711c-7.619-11.512-9.882-14.176-13.738-16.182-6.709-3.49-11.336 2.036-14.805 17.687-2.129 9.603-1.636 29.433 1.083 43.55 2.508 13.023 1.12 18.641-7.308 29.553-9.286 12.025-10.76 19.67-6.29 32.617 3.345 9.682 4.876 19.774 3.542 23.34-2.335 6.24-12.264 13.471-18.5 13.471-3.035 0-3.19.184-2.564 3.04.794 3.61-2.412 13.54-4.373 13.54-1.97 0-1.581 1.74.91 4.06 3.543 3.301 11.06 6.389 16.814 6.907 4.561.412 4.949.314 2.725-.687a979 979 0 0 1-5.699-2.599l-3.109-1.433 4.145.762c6.893 1.266 21.308.708 29.22-1.132 4.101-.953 10.03-1.733 13.172-1.733 10.801 0 24.919 7.327 33.195 17.229 4.183 5.005 10.903 18.998 10.926 22.751.026 4.412.858 4.44 11.402.374zm-5.69-42.91c-34.094-5.987-38.188-6.821-39.716-8.089-2.84-2.356 2.65-2.362 31.777-.034 15.761 1.26 28.936 1.963 29.277 1.563.34-.401 1.119-5.78 1.728-11.953.61-6.174 1.39-11.504 1.733-11.847 1.709-1.709 2.777 2.714 3.803 15.74 1.267 16.085 1.015 16.916-5.357 17.66-1.957.229-12.417-1.14-23.245-3.04m-52.977-29.777c-.839-1.356 2.065-3.717 11.39-9.264 9.722-5.78 21.588-9.929 32.597-11.395 13.411-1.786 17.117.44 6.12 3.676-4.205 1.238-6 2.454-8.009 5.428-3.307 4.9-9.59 9.453-14.248 10.327-2.002.375-6.759.093-10.572-.626-6.389-1.205-7.31-1.14-11.762.83-3.246 1.436-5.054 1.771-5.515 1.025zM61.8 181.891c-4.124-5.852-5.081-11.666-2.813-17.094 1.092-2.615 1.411-5.572 1.014-9.413-.62-6.007.614-8.12 3.393-5.814.85.706 3.211 4.26 5.244 7.896 4.35 7.777 4.959 15.03 2.008 23.912-2.29 6.894-4.267 7.008-8.846.513"/><path fill="#263238" d="M110.978 292.583c1.71-.48 4.858-.93 6.994-.996 2.347-.075 3.89-.637 3.897-1.418.004-.73 5.324-3.067 12.175-5.35 15.388-5.127 25.225-9.652 34.145-15.702 29.01-19.678 47.927-56.35 47.958-92.981.01-10.453.32-10.95 10.844-17.31 8.456-5.11 30.613-27.397 30.613-30.793 0-.536 1.457-3.175 3.238-5.863 3.99-6.023 10.38-23.325 10.995-29.775.435-4.56.323-4.8-2.485-5.336-10.334-1.974-40.272 5.589-66.668 16.842-19.344 8.248-18.662 8.18-28.102 2.792-15.56-8.878-31.568-15.114-45.666-17.789-4.657-.883-8.536-1.716-8.618-1.852-1.217-1.964-13.342-18.003-16.245-21.488-2.138-2.565-7.377-7.672-11.643-11.352-8.3-7.155-11.524-12.045-15.023-22.776-2.646-8.118-4.738-11.482-7.106-11.42-.985.026-3.746 2.288-6.138 5.024-4.88 5.587-7.616 14.008-9.749 30-1.675 12.57-.592 40.068 2.189 55.6 3.13 17.474 1.72 23.614-7.368 32.123l-4.426 4.145 4.343-5.33c6.243-7.661 7.43-10.45 7.434-17.466.004-6.504-3.948-23.123-6.818-28.673-2.286-4.42-3.133-24.55-1.54-36.61 3.76-28.47 16.268-54.564 24.849-51.842 2.083.662 2.216 1.014 9.388 24.969 2.122 7.084 2.404 7.46 8.732 11.62 10.456 6.875 20.048 18.022 29.738 34.563l2.684 4.582 10.161 1.284c17.57 2.218 38.61 10.584 50.486 20.072l2.808 2.243 9.398-4.367c5.169-2.402 13.464-5.935 18.435-7.852 18.978-7.321 63.593-18.103 69.142-16.71 2.872.72 2.875.729 2.228 7.681-.73 7.856-5.041 21.46-9.758 30.793-7.232 14.308-25.004 34-41.889 46.417-7.607 5.593-7.995 6.08-8.62 10.787-5.233 39.421-15.871 61.176-43.497 88.956-12.947 13.02-13.966 13.797-25.405 19.401-15.592 7.64-23.663 9.76-44.04 11.572-4.036.358-4.494.267-2.072-.415zm-65.8-46.306c-8.26-2.214-20.64-8.61-24.89-12.861-7.241-7.241-9.021-15.757-4.205-20.116 1.073-.972 5.017-2.408 8.763-3.191 8.78-1.837 14.8-4.553 19.146-8.637 1.913-1.798 4.127-3.27 4.922-3.27 5.032 0-6.224 11.61-13.063 13.474-2.565.699-5.241 1.434-5.947 1.634-.94.266-1.012 1.077-.266 3.039 1.193 3.138-.806 8.86-4.458 12.76l-2.282 2.437 3.109 2.521c11.045 8.96 23.647 10.678 44.586 6.077 12.895-2.833 13.257-2.856 16.62-1.046 6.163 3.32 5.233 4.346-4.562 5.039-4.937.349-11.542 1.342-14.677 2.207-7.077 1.954-15.352 1.93-22.797-.067zm103.622-13.43c-.855-.19-11.94-2.02-24.634-4.066-24.527-3.953-26.442-4.385-25.583-5.776.577-.932 1.04-.91 34.537 1.674 11.609.897 21.688 1.405 22.398 1.133.84-.321 1.55-4.145 2.031-10.932.721-10.171 2.027-14.003 3.137-9.206.302 1.305.987 7.236 1.523 13.18 1.229 13.66.8 14.62-6.452 14.461-2.973-.066-6.103-.277-6.958-.468zm-62.842-35.035c9.795-8.936 32.919-17.021 46.583-16.29 2.632.141 1.297 1.805-2.125 2.647-1.572.387-5.686 3.662-9.142 7.277-7.841 8.202-11.972 9.648-21.914 7.672-5.395-1.073-7.267-1.07-9.948.007-6.85 2.753-7.6 2.468-3.454-1.313m-23.513-17.967c-4.163-6.559-4.619-9.794-2.197-15.588 1.148-2.75 1.403-5.397.904-9.395-.626-5.014-.51-5.53 1.183-5.204 1.033.2 3.52 3.16 5.527 6.578 4.576 7.796 5.448 15.96 2.535 23.746-1.048 2.802-2.411 5.265-3.03 5.47-.62.207-2.834-2.317-4.922-5.607m59.413-32.9c0-2.015 12.835-16.484 20.322-22.909 9.177-7.875 12.004-9.768 14.593-9.768 4.217 0 2.596 2.78-4.605 7.892-3.848 2.73-11.858 9.766-17.803 15.634-5.944 5.869-11.19 10.67-11.657 10.67s-.85-.684-.85-1.52z"/></svg>