<svg width="32" height="32" fill="none" version="1.1" viewBox="0 0 32 32" xmlns="http://www.w3.org/2000/svg">
 <path d="m23 4c-3.324 0-6 2.676-6 6 0 3.324 2.676 6 6 6s6-2.676 6-6c0-3.324-2.676-6-6-6zm-20 11v13h5v-13zm7 0v11l9 2 10-3c0.01235-0.65468-0.23502-1.5879-0.7168-2.082-0.48178-0.49413-1.5791-0.91797-2.2832-0.91797h-9l-2-1 1-1 2 1h3c0.43238 0 1.0812-0.23158 1.3652-0.51562 0.28418-0.28418 0.41992-0.63069 0.41992-1.0137 0-0.66703-0.32043-1.1233-0.96289-1.3828l-8.8223-3.0879z" fill="#f9a825" stroke-width="1.3"/>
</svg>
