<svg xmlns="http://www.w3.org/2000/svg" viewBox="0 0 24 24" fill="none"><path fill="#FDD835" d="M16.27 11.503a4.753 4.753 0 0 0 4.75-4.752A4.753 4.753 0 0 0 16.27 2a4.753 4.753 0 0 0-4.752 4.751 4.753 4.753 0 0 0 4.752 4.752Zm5.178 5.321c-.37-.38-.836-.57-1.377-.57h-6.652l-1.977-.694.314-.893 1.663.637h2.66c.333 0 .6-.133.818-.352a1.07 1.07 0 0 0 .323-.779c0-.513-.247-.865-.741-1.064L9.57 10.553H7.717v8.552l6.652 1.9 7.63-2.85c.01-.504-.18-FUNDING.95-.55-1.33ZM5.816 10.552H2v10.454h3.816V10.552Z"/></svg>