<svg width="16" height="16" version="1.1" xmlns="http://www.w3.org/2000/svg">
 <g transform="matrix(.087773 0 0 .08777 .016955 .016422)" stroke-width=".75159">
  <path d="m159.31 159.32v-136.72h-19.549v136.72z" fill="#80cbc4"/>
  <path d="m120.35 159.32v-136.72h-19.549v136.72z" fill="#80deea"/>
  <path d="m120.35 102.13v-79.533h-19.549v79.533z" fill="#26a69a"/>
  <path d="m120.66 114.14v-18.805h-20.098v18.805z" fill="#ff80ab"/>
  <path d="m81.213 159.32v-86.846h-19.297v86.846z" fill="#1565c0"/>
  <path d="m61.915 159.32v-136.72h-19.768v136.72z" fill="#43a047"/>
  <path d="m42.142 159.32v-136.72h-19.549v136.72z" fill="#4db6ac"/>
  <path d="m81.243 73.612v-51.015h-19.334v51.015z" fill="#0288d1"/>
  <path d="m81.213 92.808v-18.898h-19.297v18.898z" fill="#ff80ab"/>
  <path d="m139.9 159.32v-136.72h-19.548v136.72z" fill="#4caf50"/>
  <path d="m100.79 159.32v-136.72h-19.549v136.72z" fill="#00bfa5"/>
 </g>
</svg>
