<svg xmlns="http://www.w3.org/2000/svg" viewBox="0 0 28 28"><path fill="#fafafa" d="M23.835 14h-6.259v1.788h4.292c-.626 2.682-2.593 4.918-5.186 5.812L6.4 11.318c1.073-3.13 4.113-5.365 7.6-5.365 2.682 0 5.096 1.342 6.616 3.398l1.341-1.162C20.17 5.775 17.308 4.165 14 4.165c-4.65 0-8.583 3.308-9.566 7.69l11.801 11.801c4.292-1.073 7.6-5.007 7.6-9.656m-19.67.09c0 2.503.984 4.917 2.861 6.794s4.381 2.861 6.795 2.861z"/><path fill="#6a1b9a" d="M14 1.483C7.116 1.483 1.483 7.116 1.483 14S7.116 26.517 14 26.517 26.517 20.884 26.517 14 20.884 1.483 14 1.483m-6.974 19.49c-1.877-1.877-2.86-4.38-2.86-6.794l9.745 9.656c-2.504-.09-5.007-.984-6.885-2.861zm9.12 2.594L4.433 11.854C5.417 7.474 9.351 4.165 14 4.165c3.308 0 6.17 1.61 7.957 4.024l-1.34 1.162C19.096 7.294 16.681 5.953 14 5.953c-3.487 0-6.437 2.236-7.6 5.365L16.682 21.6c2.593-.894 4.56-3.13 5.186-5.812h-4.292V14h6.259c0 4.65-3.308 8.583-7.69 9.567z"/></svg>