<svg xmlns="http://www.w3.org/2000/svg" viewBox="0 0 32 32">
  <path d="M13.17157,2.82843,11.78,4.22l1.91,1.91,2,2A2.98634,2.98634,0,0,1,20,10.81a3.24762,3.24762,0,0,1-.31,1.31l2.06,2a2.68305,2.68305,0,0,1,3.37.57A2.86047,2.86047,0,0,1,26,16.80725a3.01491,3.01491,0,0,1-.856,2.10855A2.89268,2.89268,0,0,1,23,19.81a2.92912,2.92912,0,0,1-2.13-.87,2.69441,2.69441,0,0,1-.56-3.38l-2-2.06a2.54662,2.54662,0,0,1-.31.12V20a3.02384,3.02384,0,0,1,1.44,1.09A2.92105,2.92105,0,0,1,20,22.81a2.88288,2.88288,0,0,1-.878,2.128,2.98224,2.98224,0,0,1-2.04815.87125A2.98125,2.98125,0,0,1,14.56,21.09,3.02384,3.02384,0,0,1,16,20V13.62a2.9626,2.9626,0,0,1-1.44-1.09A2.89859,2.89859,0,0,1,14,10.81a2.86805,2.86805,0,0,1,.31-1.31l-3.9-3.9L2.83113,13.17157a4,4,0,0,0-.00135,5.65821L13.17157,29.17157a4,4,0,0,0,5.65686,0L29.17157,18.82843a4,4,0,0,0,0-5.65686L18.82843,2.82843A4,4,0,0,0,13.17157,2.82843Z" style="fill: #e64a19"/>
</svg>
