<svg xmlns="http://www.w3.org/2000/svg" viewBox="0 0 32 32"><path fill="#e64a19" d="M13.172 2.828 11.78 4.22l1.91 1.91 2 2A2.986 2.986 0 0 1 20 10.81a3.248 3.248 0 0 1-.31 1.31l2.06 2a2.683 2.683 0 0 1 3.37.57 2.86 2.86 0 0 1 .88 2.117 3.015 3.015 0 0 1-.856 2.109A2.893 2.893 0 0 1 23 19.81a2.93 2.93 0 0 1-2.13-.87 2.694 2.694 0 0 1-.56-3.38l-2-2.06a2.547 2.547 0 0 1-.31.12V20a3.024 3.024 0 0 1 1.44 1.09 2.921 2.921 0 0 1 .56 1.72 2.883 2.883 0 0 1-.878 2.128 2.982 2.982 0 0 1-2.048.871 2.981 2.981 0 0 1-2.514-4.719A3.024 3.024 0 0 1 16 20v-6.38a2.963 2.963 0 0 1-1.44-1.09 2.899 2.899 0 0 1-.56-1.72 2.868 2.868 0 0 1 .31-1.31l-3.9-3.9-7.579 7.572a4 4 0 0 0-.001 5.658l10.342 10.342a4 4 0 0 0 5.656 0l10.344-10.344a4 4 0 0 0 0-5.656L18.828 2.828a4 4 0 0 0-5.656 0Z"/></svg>