<svg xmlns="http://www.w3.org/2000/svg" width="24" height="24"><circle fill="#FAFAFA" cx="12" cy="12" r="10"/><path d="M13.08 12.374c-.714.412-1.07.618-1.462.618-.392 0-.75-.205-1.464-.615L5.6 9.759a.662.662 0 010-1.149l4.556-2.619c.714-.41 1.07-.615 1.462-.615.391 0 .748.206 1.461.617l3.917 2.255.057.033a4.397 4.397 0 012.175 3.763v.132A4.397 4.397 0 0117 15.969l-2.453 1.416c-1.43.826-2.144 1.238-2.93 1.239-.784 0-1.5-.412-2.93-1.237l-2.589-1.492c-.716-.413-1.074-.62-1.27-.96-.197-.34-.197-.753-.197-1.58V11.76a.632.632 0 01.947-.548l5.31 3.052c.356.205.535.307.73.307.195 0 .374-.102.73-.306l3.594-2.063c.18-.104.27-.155.342-.165a.366.366 0 01.386.225c.028.068.027.171.026.379 0 .153 0 .23-.015.3a.733.733 0 01-.236.405c-.054.047-.12.086-.252.162l-3.843 2.218c-.357.206-.536.31-.732.31-.196 0-.375-.104-.732-.31l-4.71-2.715c-.122-.07-.183-.105-.23-.079-.045.027-.045.097-.045.238v.724c0 .207 0 .31.05.395.048.085.138.137.317.24l3.885 2.24c.715.411 1.072.618 1.465.617.392 0 .75-.206 1.465-.62l3.634-2.099.023-.013a2.496 2.496 0 001.236-2.142V11.82c0-.488-.26-.938-.68-1.182a1.203 1.203 0 00-1.205-.001z" fill="#212121"/></svg>