<svg width="24" height="24" xmlns="http://www.w3.org/2000/svg"><path fill="#FAFAFA" d="M13.576 12.536c-.978.565-1.466.847-2.003.847-.537 0-1.027-.28-2.006-.843l-6.24-3.587a.907.907 0 010-1.574L9.57 3.791c.978-.562 1.466-.843 2.003-.843.536 0 1.025.282 2.002.845l5.367 3.09.078.045A6.025 6.025 0 0122 12.084v.181a6.025 6.025 0 01-3.053 5.197l-3.36 1.94c-1.96 1.132-2.938 1.696-4.015 1.698-1.074 0-2.055-.565-4.015-1.695L4.01 17.36c-.981-.566-1.472-.85-1.74-1.316C2 15.58 2 15.013 2 13.88v-2.185a.866.866 0 011.298-.75l7.275 4.18c.488.282.733.421 1 .421s.513-.14 1-.419l4.925-2.826c.246-.143.37-.213.468-.226a.501.501 0 01.53.308c.038.093.036.234.035.52 0 .209 0 .314-.02.41a1.004 1.004 0 01-.324.555 2.214 2.214 0 01-.345.222l-5.266 3.039c-.489.282-.734.425-1.003.425-.268 0-.514-.143-1.003-.425l-6.453-3.72c-.167-.096-.25-.144-.315-.108-.062.037-.062.133-.062.326v.992c0 .284 0 .425.069.541.065.117.189.188.434.329l5.323 3.07c.98.562 1.469.846 2.007.844.537 0 1.028-.282 2.007-.85l4.98-2.875.031-.018a3.42 3.42 0 001.694-2.935v-.948c0-.668-.357-1.285-.932-1.62a1.648 1.648 0 00-1.651 0z"/></svg>