<svg xmlns="http://www.w3.org/2000/svg" viewBox="0 0 32 32">
  <g>
    <path d="M29.53247,13.083l-.03772-.10459L25.684,2.656a1.01869,1.01869,0,0,0-.39192-.49091.9846.9846,0,0,0-1.39045.31685,1.06547,1.06547,0,0,0-.1212.28048L21.20823,10H10.79184L8.21963,2.76238A1.00388,1.00388,0,0,0,6.97424,2.041a.99039.99039,0,0,0-.26627.12408,1.01869,1.01869,0,0,0-.39184.49091L2.50722,12.98035l-.03955.10268a7.51889,7.51889,0,0,0,2.34754,8.49133l.0144.0113.03235.02611,5.79688,4.51172,2.876,2.25671,1.7472,1.372a1.14621,1.14621,0,0,0,1.42358,0l1.7472-1.37194,2.876-2.25685,5.8382-4.53783.01618-.01306a7.51882,7.51882,0,0,0,2.34931-8.4895Z" style="fill: #e53935"/>
    <path d="M29.53247,13.083l-.03772-.10459a12.62931,12.62931,0,0,0-5.12287,2.39313l-8.36733,6.57055,5.32777,4.1813,5.83827-4.53783.01617-.01306a7.519,7.519,0,0,0,2.34571-8.48943Z" style="fill: #ef6c00"/>
    <path d="M10.65884,26.12342l2.876,2.25678,1.7472,1.372a1.14621,1.14621,0,0,0,1.42358,0l1.7472-1.37194,2.876-2.25685L16.001,21.94212Z" style="fill: #f9a825"/>
    <path d="M7.62826,15.3715a12.61844,12.61844,0,0,0-5.121-2.39115l-.03955.10268a7.51889,7.51889,0,0,0,2.34754,8.49133l.0144.01129.03235.02612,5.79688,4.51172,5.3313-4.18137Z" style="fill: #ef6c00"/>
  </g>
</svg>
