<?xml version="1.0" encoding="UTF-8" standalone="no"?><svg viewBox="0 0 500 500" version="1.1" id="svg27" sodipodi:docname="GitLab_logo.svg" width="500" height="500" inkscape:version="1.2 (dc2aedaf03, 2022-05-15)" xmlns:inkscape="http://www.inkscape.org/namespaces/inkscape" xmlns:sodipodi="http://sodipodi.sourceforge.net/DTD/sodipodi-0.dtd" xmlns="http://www.w3.org/2000/svg" xmlns:svg="http://www.w3.org/2000/svg"> <sodipodi:namedview id="namedview29" pagecolor="#505050" bordercolor="#eeeeee" borderopacity="1" inkscape:showpageshadow="0" inkscape:pageopacity="0" inkscape:pagecheckerboard="0" inkscape:deskcolor="#505050" showgrid="false" inkscape:zoom="1.2222222" inkscape:cx="346.09091" inkscape:cy="270.81818" inkscape:window-width="1920" inkscape:window-height="1009" inkscape:window-x="-8" inkscape:window-y="-8" inkscape:window-maximized="1" inkscape:current-layer="svg27" /> <defs id="defs4"> <style id="style2">.cls-1{fill:#171321;}.cls-2{fill:#e24329;}.cls-3{fill:#fc6d26;}.cls-4{fill:#fca326;}</style> </defs> <g id="LOGO" transform="matrix(2.6449673,0,0,2.6449673,-349.6528,-252.53577)"> <path class="cls-2" d="m 302,174.37 -0.21,-0.56 -21.2,-55.3 a 5.5,5.5 0 0 0 -2.18,-2.63 5.6,5.6 0 0 0 -8.41,3.2 l -14.31,43.81 h -57.95 l -14.31,-43.81 a 5.61,5.61 0 0 0 -8.41,-3.2 5.5,5.5 0 0 0 -2.18,2.63 l -21.19,55.31 -0.22,0.55 a 39.36,39.36 0 0 0 13.06,45.49 l 0.08,0.06 0.18,0.14 32.25,24.17 16,12.09 9.72,7.35 a 6.57,6.57 0 0 0 7.92,0 l 9.72,-7.35 16,-12.09 32.48,-24.31 0.09,-0.07 A 39.36,39.36 0 0 0 302,174.37 Z" id="path18" /> <path class="cls-3" d="m 302,174.37 -0.21,-0.56 a 71.5,71.5 0 0 0 -28.5,12.82 l -46.55,35.2 29.64,22.4 32.48,-24.31 0.09,-0.07 A 39.36,39.36 0 0 0 302,174.37 Z" id="path20" /> <path class="cls-4" d="m 197,244.23 16,12.09 9.72,7.35 a 6.57,6.57 0 0 0 7.92,0 l 9.72,-7.35 16,-12.09 -29.64,-22.4 z" id="path22" /> <path class="cls-3" d="m 180.14,186.63 a 71.44,71.44 0 0 0 -28.49,-12.81 l -0.22,0.55 a 39.36,39.36 0 0 0 13.06,45.49 l 0.08,0.06 0.18,0.14 32.25,24.17 29.66,-22.4 z" id="path24" /> </g></svg>
