<?xml version="1.0" encoding="UTF-8"?>
<svg width="24" height="24" fill="none" version="1.1" viewBox="0 0 24 24" xmlns="http://www.w3.org/2000/svg">
 <g transform="matrix(.82213 0 0 .82213 2.1345 2.1345)" clip-path="url(#clip0)" fill="#ffa726">
  <path d="m14.07 1.195a2.364 2.364 0 0 1-0.887 3.236l-7.11 4.04a0.6 0.6 0 0 0-0.304 0.52v6.343a0.6 0.6 0 0 0 0.304 0.52l5.628 3.199a0.605 0.605 0 0 0 0.598 0l5.628-3.198a0.6 0.6 0 0 0 0.304-0.521v-3.944l-5.06 2.838a2.392 2.392 0 0 1-3.248-0.9 2.364 2.364 0 0 1 0.905-3.23l7.239-4.062c2.205-1.236 4.933 0.347 4.933 2.865v6.914c0 1.62-0.873 3.115-2.287 3.919l-6.461 3.671a4.56 4.56 0 0 1-4.504 0l-6.461-3.671a4.509 4.509 0 0 1-2.287-3.919v-7.305c0-1.62 0.873-3.115 2.287-3.918l7.53-4.28a2.392 2.392 0 0 1 3.253 0.883z" clip-rule="evenodd" fill="#ffa726" fill-rule="evenodd"/>
 </g>
 <defs>
  <clipPath id="clip0">
   <path d="M0 0h24v24H0z" fill="#fff"/>
  </clipPath>
 </defs>
</svg>
