<svg xmlns="http://www.w3.org/2000/svg" viewBox="0 0 32 32">
  <path d="M18.25818,4.15626a2.59815,2.59815,0,0,1-.9513,3.53787l-.01633.00935L9.53418,12.132a.65826.65826,0,0,0-.33164.57v6.953a.65827.65827,0,0,0,.33164.57l6.13964,3.50666a.65727.65727,0,0,0,.65236,0l6.13964-3.50557a.65824.65824,0,0,0,.33163-.5711V15.33175l-5.52,3.11094A2.59948,2.59948,0,0,1,14.70638,13.924l.01507-.00852,7.89709-4.45265A3.6087,3.6087,0,0,1,28,12.60337v7.579a4.94787,4.94787,0,0,1-2.49491,4.2959l-7.04836,4.024a4.95379,4.95379,0,0,1-4.91346,0l-7.04836-4.024A4.94677,4.94677,0,0,1,4,20.18231V12.17477A4.94476,4.94476,0,0,1,6.49491,7.88l8.21454-4.69162A2.60265,2.60265,0,0,1,18.25818,4.15626Z" style="fill: #ffa726;fill-rule: evenodd"/>
</svg>
