<?xml version="1.0" encoding="UTF-8"?>
<svg enable-background="new 0 0 283.46 283.46" version="1.1" viewBox="0 0 283.46 283.46" xml:space="preserve" xmlns="http://www.w3.org/2000/svg">
	
<path d="m159.7 27.803-5.8867 1.2344-2.9336 4.3965 0.5 4.8926-5.7871 17.67 0.69922 6.166-0.35351 2.9707-3.0274 8.8145-3.8125 11.648-0.77148 5.3906-1.7676 5.3047-1.6055 6.166-3.418 10.08-3.2305 11.4 0.95899 0.68555 5.502 3.9316 10.484-1.5566 8.8887-14.359 4.9394-24.355 3.0234-14.732 3.418-20.053 1.1504-10.088 0.98828-6.1328-2.2754-7.3047-5.6836-2.1699zm-123.12 41.727-7.9531 2.6035-3.3262 4.5332 0.79297 1.0039 9.7793 12.377 13.025 9.6699 36.832 27.611 1.2363 2.3594 6.3223 4.4531 11.498 11.086 7.6914 0.51367 8.0156-10.359-0.08203-7.5644-34.549-26.676-25.256-15.539-24.027-16.072zm202.61 54.682-20.355 1.8125-12.998 1.5254-6.8789 0.11719-9.9785-0.63282-9.7344 0.26172-5.6191 0.60547-5.8594 0.52149-5.6211 0.89062-7.084 0.67383-3.3066 1.7363-4.5059 8.7422-0.7168 7.6875 0.70508 0.56446 5.1836 4.1523 21.74-3.3691 10.047 0.93945 13.43-2.3008 19.252-1.5488 17.93-2.4922 11.055-1.8281 10.521-1.6035 9.5703-2.5859-2.4531-3.2695 0.60547-2.1504-4.4043-5.793-11.26-1.2285-9.2637-1.4277zm-129.4 29.592-1.1875 0.72461-7.6445 4.6641-60.682 53.527-20.795 17.879-2.0059 5.8418 5.1914 7.1836 5.5195-3.748 2.1875 0.98828 21.209-13.326 6.7734-5.5195 10.855-6.8711 5.7168-5.9746 24.586-18.215 8.6777-7.4219 9.3281-11.188 0.93555-8.9414-8.666-9.6035zm33.641 5.0215-0.48633 0.13672s-9.631 2.4239-11.605 10.215c-0.43806 1.7285-0.11017 3.5287 0.19727 5.084 0.30742 1.5553 0.69335 2.8086 0.69335 2.8086l0.13282 0.4375 3.623 3.3027 5.3906 10.307 11.107 27.811 4.5508 11.271 5.9922 12.324 3.2656 5.5664 1.0918 5.0312 10.373 2.5391 2.7324-6.4336-3.0801-16.342-7.7969-25.34-8.6289-23.943-11.814-22.951-5.7383-1.8242z" fill="#f06292"/></svg>
