<?xml version="1.0" encoding="UTF-8"?>
<svg version="1.1" viewBox="0 0 24 24" xmlns="http://www.w3.org/2000/svg">
 <path d="m13.022 2.3893-0.40794 0.085981-0.18597 0.27996 0.042 0.41793-0.17397 0.28195s0.09641 0.12018 0.05199 0.28596c-0.04441 0.16578-0.39394 1.0058-0.39394 1.0058l0.024 0.041997s-0.15698 0.21401 0 0.48592c0.15698 0.27191-0.12198 0.55791-0.12198 0.55791l-0.13998 0.40993-0.018 0.14997 0.04799 0.11199-0.09198 0.073992-0.30195 0.92984-0.03399 0.28596-0.10198 0.41793-0.19996 0.56791-0.04999 0.29595-0.08598 0.35994-0.12398 0.28596-0.08399 0.15597-0.15198 0.45993-0.09999 0.43193 0.41994 0.29995 0.79187-0.11598 0.5639-0.73988 0.27996-0.76787 0.18397-0.86186 0.11398-0.6439 0.06799-0.34995 0.17797-0.81986 0.05399-0.48792 0.12998-0.39594 0.02-0.32794 0.08398-0.5899 0.03999-0.49392 0.08399-0.27996 0.05399-0.6159-0.03199-0.15997 0.11199-0.34794-0.07599-0.091981 0.03399-0.18597-0.11799-0.25596zm-10.893 2.9855-0.5659 0.22396-0.19396 0.21196 0.83786 1.0718 0.33994 0.031995 0.28195 0.47792 0.47192 0.17797 0.075989 0.17797 0.34594 0.27396 0.94984 0.69188 0.67988 0.44392 1.3618 1.0939 0.10798 0.20596 0.35794 0.19597 0.48392 0.41394 0.6159 0.54391 0.089984 0.19396 0.52991 0.036 0.6199-0.79987-0.00604-0.53991-1.7377-1.3977-1.2958-0.93985-1.2698-0.85186-0.99784-0.54191-0.059986-0.14598-1.0658-0.62789-0.41393-0.32995zm18.381 5.6151-0.19597 0.17197-0.26796-0.07399-0.97784 0.14598-0.36194-0.08399s0.02767 0.19025-0.13598 0.08998c-0.16365-0.10027-0.42611 0.05272-0.5939-0.03999-0.1678-0.09271-0.44793 0.08998-0.44793 0.08998l-0.26995-0.15397-0.35994 0.15997-0.43393-0.04399-0.41593-0.018-0.46792 0.08399-0.26196-0.06599-0.6319 0.06999-0.28795-0.07599s-0.13818 0.17674-0.23997 0.11798c-0.10179-0.05877-0.32595 0-0.32595 0l-0.25795 0.12198-0.78787 0.13198s-0.48132 0.58118-0.35594 0.69188c0.12539 0.11071-0.05399 0.5699-0.05399 0.5699l0.39393 0.31594 0.43393 0.05599 0.28195-0.09198 0.96584-0.17598 0.21396-0.08799 0.12398 0.042 0.6099-0.05399 0.16197 0.08999 0.11798-0.10198 0.14598 0.048 0.93785-0.14198 0.27996 0.08598s-0.03739-0.19291 0.12398-0.09798c0.16138 0.09492 1.3298-0.12798 1.3298-0.12798l0.19597 0.06799 0.84186-0.12598 0.56191-0.16597 0.37794 0.12398 0.36194-0.05399 0.24596-0.23596 0.46592 0.11798s-0.04625-0.37162 0.48592-0.25795c0.53217 0.11364 0.5939-0.14799 0.5939-0.14799l-0.12398-0.16398 0.05399-0.19396-0.29595-0.38994-0.54391-0.10599-0.40593 6e-3 -0.04399-0.06599s-0.24642-0.0165-0.42193 0.042c-0.17552 0.0585-0.33795-0.09798-0.33795-0.09798zm-11.239 2.2256-0.65989 0.34994-0.21396 0.20397-0.15198 0.31195 0.18796 0.52591 0.31594 0.29196 0.36794 0.55791-3.9434 3.2754-0.12398 0.17397-0.82387 0.63389-0.33394 0.34194-0.56391 0.42593-0.075989 0.11398-0.13597 0.39594 0.30994 0.42793 0.43593-0.29595 0.19396 0.08799 0.16998-0.20596 0.11799 0.05599 0.70588-0.55391 0.25996-0.14598 0.28596-0.06599 0.25996-0.20197-0.061993-0.08199 0.31795-0.10798 0.42793-0.36794 0.28395-0.07999 0.30195-0.20596 0.14598-0.27595 0.093988-0.06199 0.099987 0.042 0.49592-0.52192 0.55791-0.29796 1.2258-1.0278 0.50791 1.4298 0.25996 0.38794 0.14397 0.6099 0.25396 0.09999-0.03199 0.09798 0.10599 0.71188 0.21196 0.19996-0.07599 0.31395 0.37194 0.19197s-0.21641-0.03394 0.08598 0.38994c0.3024 0.42387 0.66788 0.16797 0.66788 0.16797l0.16998-0.40194-0.25795-1.3918-0.22797-1.1058-0.27795-0.5999-0.19797-0.5699s-0.21113-0.6423-0.23596-0.86186c-0.02482-0.21956-0.09598-0.35194-0.09598-0.35194l-0.17797-0.37594 0.23997-0.22396 0.54991-0.63589 0.07199-0.67388-0.6279-0.69589-0.41394 0.16797-0.45592 0.48592-0.6439-0.95784z" fill="#ea80fc" stroke="#ea80fc" stroke-width=".324"/>
</svg>
