<?xml version="1.0" encoding="UTF-8"?>
<svg version="1.1" viewBox="0 0 24 24" xmlns="http://www.w3.org/2000/svg">
 <path d="m12.717 2.5293-0.027344 0.0058593-0.4375 0.091797-0.2207 0.33398 0.041016 0.41016-0.1875 0.30664 0.041015 0.052734s0.06296 0.076999 0.03125 0.19531c-0.01603 0.059854-0.11441 0.31786-0.20508 0.54297-0.09066 0.22511-0.17578 0.42969-0.17578 0.42969l-0.017578 0.042969 0.021484 0.037109c-0.043267 0.095485-0.10305 0.29504 0.025391 0.51758 0.05757 0.099726 0.03576 0.19959-0.00586 0.28711-0.04158 0.087519-0.099609 0.14648-0.099609 0.14648l-0.013672 0.015625-0.14648 0.43164-0.023438 0.18164 0.029297 0.066406-0.056641 0.044922-0.30469 0.94531-0.035156 0.2832-0.097657 0.39844-0.19531 0.56055-0.050781 0.29297-0.082031 0.3418-0.11719 0.26953-0.083984 0.15625-0.15234 0.46094-0.11133 0.48828 0.49219 0.34961 0.84961-0.12305 0.58398-0.76562 0.28125-0.77148 0.18164-0.85156 0.11133-0.63086 0.066406-0.33789 0.17383-0.80664 0.052734-0.47266 0.12695-0.39062 0.021484-0.32812 0.082031-0.57617 0.03711-0.47656 0.083984-0.27344 0.054687-0.625-0.03125-0.14648 0.11914-0.36719-0.078125-0.09375 0.029297-0.16992-0.14258-0.31055-0.4375-0.16992zm-10.658 2.9141-0.039063 0.017578-0.57617 0.22656-0.25781 0.2832 0.89258 1.1426 0.32617 0.03125 0.26758 0.45312 0.45703 0.17188 0.068359 0.16016 0.35742 0.28516 0.93164 0.67773 0.66406 0.43359 1.3125 1.0547 0.11133 0.20898 0.36523 0.20117 0.4668 0.39844 0.58789 0.51758 0.10156 0.22266 0.625 0.042968 0.65625-0.84961-0.0058593-0.60547-1.7383-1.3945-1.2695-0.92188-1.2461-0.83789-0.95312-0.51562-0.056641-0.14062-1.0645-0.62695-0.40625-0.32422-0.57812-0.3125zm17.912 5.5273-0.15234 0.13477-0.23242-0.0625-0.95898 0.14062-0.4707-0.10938 0.019531 0.13086c-0.11468-0.06502-0.23944-0.048656-0.3418-0.035156-0.10522 0.01388-0.1877 0.0189-0.23242-0.00586-0.12437-0.068709-0.26129-0.033593-0.36133 0.003907-0.06898 0.02583-0.090086 0.043337-0.11914 0.060547l-0.26367-0.15039-0.37305 0.16602-0.40039-0.041016-0.41992-0.017578-0.44922 0.080078-0.25195-0.0625-0.61719 0.066406-0.32617-0.083984-0.039062 0.048828s-0.02751 0.03523-0.0625 0.0625c-0.0175 0.01364-0.037155 0.022431-0.046875 0.025391-0.0097 3e-3 -0.004606 0.001453-0.003906 0.001953-0.087451-0.05049-0.17883-0.03927-0.25391-0.03125-0.07507 8e-3 -0.13476 0.021484-0.13476 0.021484l-0.007813 0.003906-0.24805 0.11719-0.79492 0.13281-0.021484 0.027344s-0.12044 0.14332-0.22656 0.30469c-0.05307 0.08069-0.10143 0.16613-0.13281 0.24609-0.01569 0.03998-0.02937 0.080318-0.03125 0.12305-0.0018 0.04273 0.010894 0.095869 0.052734 0.13281-0.0018-0.0016 0.011089 0.019533 0.011719 0.064453 6.26e-4 0.04492-0.008164 0.1054-0.021484 0.16406-0.02661 0.11733-0.06836 0.22656-0.06836 0.22656l-0.02539 0.0625 0.46094 0.36719 0.4707 0.0625 0.28906-0.09375 0.94922-0.17383 0.18555-0.076172 0.10742 0.03711 0.58789-0.052735 0.18945 0.10547 0.125-0.10742 0.11523 0.03711 0.91797-0.13867 0.40234 0.125-0.027344-0.14648c0.03994 0.0182 0.076295 0.026477 0.12109 0.029297 0.05246 0.0033 0.11466 0.001847 0.18164-0.001953 0.13396-0.0076 0.29309-0.027168 0.44726-0.048828 0.29568-0.04153 0.54811-0.08953 0.57031-0.09375l0.18945 0.066406 0.85352-0.12695 0.52734-0.15625 0.36328 0.11719 0.40625-0.058594 0.22461-0.21484 0.53906 0.13477-0.017578-0.13477s-0.003026-0.062062 0.027344-0.10547c0.01516-0.02171 0.034274-0.041397 0.083984-0.054687 0.04972-0.01329 0.12982-0.015974 0.25 0.009765 0.27544 0.058831 0.45043 0.023382 0.55664-0.042968 0.05311-0.03317 0.087036-0.072587 0.10742-0.10547 0.02038-0.03289 0.029297-0.066406 0.029297-0.066406l0.009765-0.042969-0.12109-0.1582 0.052734-0.18945-0.33789-0.44922-0.57617-0.11133-0.35742 0.005859-0.039063-0.0625-0.046875-0.001953s-0.24742-0.022318-0.44922 0.044922c-0.10743 0.03581-0.23438-0.072266-0.23438-0.072266l-0.13867 0.12695 0.009765-0.13086zm-10.941 2.1465-0.033203 0.017578-0.6582 0.34961-0.23047 0.2207-0.17188 0.35547 0.20312 0.57226 0.31836 0.29492 0.30664 0.46484-3.8027 3.1582-0.11914 0.16992-0.79883 0.61524-0.32812 0.33398-0.55859 0.42188-0.089844 0.13476-0.15234 0.44531 0.38477 0.53125 0.45898-0.31055 0.20703 0.09375 0.16602-0.19922 0.10156 0.046875 0.72852-0.57226 0.23828-0.13281 0.28711-0.068359 0.34375-0.26562-0.039062-0.050781 0.20508-0.06836 0.41602-0.35938 0.27344-0.076172 0.32812-0.22461 0.14062-0.26758 0.03125-0.021485 0.11133 0.048829 0.51953-0.54688 0.54102-0.29102 1.1016-0.92383 0.45703 1.2832 0.25195 0.375 0.14648 0.62891 0.21289 0.082031-0.011719 0.033204 0.11133 0.75 0.19336 0.17969-0.080078 0.32617 0.31641 0.16406c-0.01122 0.04868-0.007255 0.098085 0.015625 0.15625 0.02623 0.066559 0.071751 0.1464 0.14844 0.25391 0.16352 0.2292 0.36812 0.29039 0.52148 0.27734 0.15336-0.01305 0.26172-0.089844 0.26172-0.089844l0.023438-0.015625 0.18555-0.44531-0.25586-1.3906-0.22461-1.0918-0.27539-0.5918-0.19336-0.55274v-0.001953c-5.15e-4 -0.0015-0.051508-0.15442-0.10547-0.33594-0.05424-0.18244-0.10919-0.39835-0.11914-0.48633-0.02579-0.2281-0.10189-0.36996-0.10352-0.37305l-0.001953-0.003907-0.14258-0.30078 0.18945-0.17773 0.55859-0.64844 0.080079-0.72852-0.6875-0.76172-0.48438 0.19531-0.37891 0.40625-0.58203-0.86719-0.45703-0.14453z" color="#000000" fill="#ea80fc" stroke-width=".18819" style="-inkscape-stroke:none"/>
</svg>
