<svg viewBox="0 0 24 24" fill="none" xmlns="http://www.w3.org/2000/svg"><path d="M5.28 10.62l.024-.012c.222-.104.482-.157.777-.157.296 0 .555.053.778.157.222.105.409.246.558.422.15.176.262.378.337.607.074.228.112.466.112.713 0 .248-.038.486-.112.714-.075.229-.187.431-.337.607a1.61 1.61 0 01-.558.42 1.833 1.833 0 01-.778.154c-.295 0-.555-.052-.777-.155a1.79 1.79 0 01-.135-.07c1.16 1.052 3.393 1.764 5.957 1.764 2.086 0 3.955-.422 5.203-1.164-1.366 1.242-3.802 2.118-6.584 2.117C5.467 16.737 2 14.78 2 12.367 2 9.956 5.469 8 9.746 8c2.793 0 5.236.88 6.599 2.13-1.249-.747-3.126-1.177-5.22-1.177-2.484 0-4.657.669-5.845 1.667zm-.416 2.273c.049.178.125.338.23.48.104.143.238.257.402.344.164.086.359.13.585.13.227 0 .422-.044.585-.13.164-.087.298-.201.403-.343.104-.143.18-.303.23-.48a2.04 2.04 0 000-1.084 1.455 1.455 0 00-.23-.48 1.167 1.167 0 00-.403-.343 1.237 1.237 0 00-.585-.13c-.226 0-.421.043-.585.13-.164.086-.298.2-.402.343a1.453 1.453 0 00-.23.48 2.038 2.038 0 000 1.083zm3.737-1.04v.314h.008a.577.577 0 01.302-.28c.137-.058.288-.087.453-.087.182 0 .342.033.478.098a.97.97 0 01.338.266c.09.112.158.241.204.387.045.146.068.301.068.465a1.6 1.6 0 01-.066.465 1.087 1.087 0 01-.201.382.946.946 0 01-.339.257 1.196 1.196 0 01-.88.018.837.837 0 01-.2-.11.614.614 0 01-.157-.172H8.6v1.194h-.392v-3.196H8.6zm1.392.823a.844.844 0 00-.132-.275.644.644 0 00-.228-.192.705.705 0 00-.327-.072.678.678 0 00-.333.076.664.664 0 00-.223.199.823.823 0 00-.126.28 1.312 1.312 0 00.002.645c.028.106.071.2.13.28.06.08.136.145.23.194.095.05.21.074.343.074a.674.674 0 00.335-.076.618.618 0 00.217-.201.866.866 0 00.119-.286c.024-.108.037-.218.037-.331 0-.107-.015-.212-.044-.315zm2.46 1.342c-.178.13-.4.196-.67.196-.189 0-.353-.03-.492-.09a.97.97 0 01-.351-.25 1.055 1.055 0 01-.213-.384 1.813 1.813 0 01-.08-.487c0-.176.027-.337.082-.483.055-.146.132-.273.232-.38.1-.108.217-.191.353-.25.136-.06.285-.09.447-.09.212 0 .387.042.526.128.139.085.25.193.335.324.084.132.142.275.174.43.032.156.045.303.04.444h-1.774a.895.895 0 00.037.288.645.645 0 00.366.408.822.822 0 00.334.063c.164 0 .3-.037.404-.112a.54.54 0 00.209-.34h.384c-.052.259-.166.454-.343.585zm-.095-1.484a.647.647 0 00-.352-.346.679.679 0 00-.268-.05.69.69 0 00-.271.05.63.63 0 00-.345.349.772.772 0 00-.06.252h1.357a.764.764 0 00-.061-.255zm1.106-.68v.367h.007c.163-.28.42-.421.773-.421.157 0 .287.02.391.063.105.042.189.1.254.174.064.075.11.164.135.267a1.4 1.4 0 01.04.342v1.522h-.393v-1.566a.453.453 0 00-.128-.34.485.485 0 00-.354-.125.814.814 0 00-.31.054.58.58 0 00-.218.152.65.65 0 00-.13.23.912.912 0 00-.044.289v1.306h-.392v-2.314h.369zm4.31 2.29c-.177.072-.355.109-.536.109-.285 0-.54-.049-.768-.146a1.643 1.643 0 01-.576-.4 1.764 1.764 0 01-.359-.6 2.158 2.158 0 01-.125-.741c0-.272.042-.524.125-.757.083-.233.202-.436.358-.61.156-.173.348-.31.575-.408.227-.098.483-.148.768-.148.191 0 .376.028.555.085.179.056.34.138.484.247a1.336 1.336 0 01.529.953h-.781a.763.763 0 00-.282-.457.832.832 0 00-.505-.153.971.971 0 00-.469.104.88.88 0 00-.312.28c-.08.118-.138.252-.174.401a1.944 1.944 0 000 .91c.036.145.094.275.174.39a.888.888 0 00.783.383c.27 0 .48-.067.628-.2.148-.134.234-.328.258-.582h-.823v-.598h1.56v1.965h-.519l-.083-.412a1.22 1.22 0 01-.484.384zm2.413-3.609v2.959H22v.674h-2.628v-3.633h.815z" fill="#B0BEC5"/></svg>