<svg viewBox="0 0 24 24" fill="none" xmlns="http://www.w3.org/2000/svg">
<path d="M10.4211 17.7368C10.4211 20.0623 8.53594 21.9474 6.21053 21.9474C3.88512 21.9474 2 20.0623 2 17.7368C2 15.4114 3.88512 13.5263 6.21053 13.5263C8.53594 13.5263 10.4211 15.4114 10.4211 17.7368Z" fill="#AB47BC"/>
<path d="M15.6475 7.76932C15.6717 7.5865 15.6842 7.39997 15.6842 7.21053C15.6842 4.88512 13.7991 3 11.4737 3C9.14827 3 7.26316 4.88512 7.26316 7.21053C7.26316 9.0295 8.41658 10.5791 10.0319 11.1677C13.259 12.4383 14.0203 13.7192 13.6158 17.1774C13.5915 17.3605 13.5789 17.5472 13.5789 17.7368C13.5789 20.0623 15.4641 21.9474 17.7895 21.9474C20.1149 21.9474 22 20.0623 22 17.7368C22 15.9179 20.8466 14.3684 19.2314 13.7797C16.004 12.5091 15.2428 11.228 15.6475 7.76932Z" fill="#AB47BC"/>
</svg>
