<svg id="SvgjsSvg1001" width="288" height="288" xmlns="http://www.w3.org/2000/svg" version="1.1" xmlns:xlink="http://www.w3.org/1999/xlink" xmlns:svgjs="http://svgjs.com/svgjs"><defs id="SvgjsDefs1002"></defs><g id="SvgjsG1008" transform="matrix(1,0,0,1,0,0)"><svg xmlns="http://www.w3.org/2000/svg" width="288" height="288" viewBox="0 0 32 32"><g transform="translate(0 -1020.362)" fill="#f266ff" class="color000 svgShape"><ellipse cx="-907.357" cy="479.9" fill="#523854" color="#000" enable-background="accumulate" overflow="visible" rx="3.579" ry="3.821" transform="scale(-1 1) rotate(-60.548)" style="isolation:auto;mix-blend-mode:normal;solid-color:#000;solid-opacity:1" class="color384e54 svgShape"></ellipse><ellipse style="isolation:auto;mix-blend-mode:normal;solid-color:#000;solid-opacity:1" cx="-891.577" cy="507.846" fill="#523854" color="#000" enable-background="accumulate" overflow="visible" rx="3.579" ry="3.821" transform="rotate(-60.548)" class="color384e54 svgShape"></ellipse><path fill="#523854" d="m 16.091693,1021.3642 c -1.105749,0.01 -2.210341,0.049 -3.31609,0.09 C 6.8422558,1021.6738 2,1026.3942 2,1032.3622 c 0,2.9786 0,13 0,20 l 28,0 c 0,-8 0,-16 0,-20 0,-5.9683 -4.667345,-10.4912 -10.59023,-10.908 -1.10575,-0.078 -2.212328,-0.099 -3.318077,-0.09 z" color="#000" enable-background="accumulate" overflow="visible" style="isolation:auto;mix-blend-mode:normal;solid-color:#000;solid-opacity:1" class="color384e54 svgShape"></path><path fill="#f376fe" style="isolation:auto;mix-blend-mode:normal;solid-color:#000;solid-opacity:1" d="m 4.6078867,1025.0462 c 0.459564,0.2595 1.818262,1.2013 1.980983,1.648 0.183401,0.5035 0.159385,1.0657 -0.114614,1.551 -0.346627,0.6138 -1.005341,0.9487 -1.696421,0.9365 -0.339886,-0.01 -1.720283,-0.6372 -2.042561,-0.8192 -0.97754,-0.5519 -1.350795,-1.7418 -0.833686,-2.6576 0.517109,-0.9158 1.728749,-1.2107 2.706299,-0.6587 z" color="#000" enable-background="accumulate" overflow="visible" class="color76e1fe svgShape"></path><rect width="3.087" height="3.531" x="14.406" y="1035.684" fill-opacity=".329" color="#000" enable-background="accumulate" overflow="visible" ry=".624" style="isolation:auto;mix-blend-mode:normal;solid-color:#000;solid-opacity:1" fill="#f266ff" class="color000 svgShape"></rect><path fill="#f376fe" d="m 16,1023.3622 c -9,0 -12,3.7153 -12,9 l 0,20 24,0 c -0.04889,-7.3562 0,-18 0,-20 0,-5.2848 -3,-9 -12,-9 z" color="#000" enable-background="accumulate" overflow="visible" style="isolation:auto;mix-blend-mode:normal;solid-color:#000;solid-opacity:1" class="color76e1fe svgShape"></path><path fill="#f376fe" d="m 27.074073,1025.0462 c -0.45957,0.2595 -1.818257,1.2013 -1.980979,1.648 -0.183401,0.5035 -0.159384,1.0657 0.114614,1.551 0.346627,0.6138 1.005335,0.9487 1.696415,0.9365 0.33988,-0.01 1.72029,-0.6372 2.04256,-0.8192 0.97754,-0.5519 1.35079,-1.7418 0.83369,-2.6576 -0.51711,-0.9158 -1.72876,-1.2107 -2.7063,-0.6587 z" color="#000" enable-background="accumulate" overflow="visible" style="isolation:auto;mix-blend-mode:normal;solid-color:#000;solid-opacity:1" class="color76e1fe svgShape"></path><circle cx="21.176" cy="1030.354" r="4.654" fill="#ffffff" color="#000" enable-background="accumulate" overflow="visible" style="isolation:auto;mix-blend-mode:normal;solid-color:#000;solid-opacity:1" class="colorfff svgShape"></circle><circle style="isolation:auto;mix-blend-mode:normal;solid-color:#000;solid-opacity:1" cx="10.339" cy="1030.354" r="4.832" fill="#ffffff" color="#000" enable-background="accumulate" overflow="visible" class="colorfff svgShape"></circle><rect width="3.667" height="4.106" x="14.116" y="1035.917" fill-opacity=".329" color="#000" enable-background="accumulate" overflow="visible" ry=".726" style="isolation:auto;mix-blend-mode:normal;solid-color:#000;solid-opacity:1" fill="#f266ff" class="color000 svgShape"></rect><rect style="isolation:auto;mix-blend-mode:normal;solid-color:#000;solid-opacity:1" width="3.667" height="4.106" x="14.116" y="1035.225" fill="#fffbff" color="#000" enable-background="accumulate" overflow="visible" ry=".726" class="colorfffcfb svgShape"></rect><path fill-opacity=".329" d="m 19.999735,1036.5289 c 0,0.838 -0.871228,1.2682 -2.144766,1.1659 -0.02366,0 -0.04795,-0.6004 -0.254147,-0.5832 -0.503669,0.042 -1.095902,-0.02 -1.685964,-0.02 -0.612939,0 -1.206342,0.1826 -1.68549,0.017 -0.110233,-0.038 -0.178298,0.5838 -0.261532,0.5816 -1.243685,-0.033 -2.078803,-0.3383 -2.078803,-1.1618 0,-1.2118 1.815635,-2.1941 4.055351,-2.1941 2.239704,0 4.055351,0.9823 4.055351,2.1941 z" color="#000" enable-background="accumulate" overflow="visible" style="isolation:auto;mix-blend-mode:normal;solid-color:#000;solid-opacity:1" fill="#f266ff" class="color000 svgShape"></path><path fill="#bc74c3" style="isolation:auto;mix-blend-mode:normal;solid-color:#000;solid-opacity:1" d="m 19.977414,1035.7004 c 0,0.5685 -0.433659,0.8554 -1.138091,1.0001 -0.291933,0.06 -0.630371,0.096 -1.003719,0.1166 -0.56405,0.032 -1.207782,0.031 -1.89122,0.031 -0.672834,0 -1.307182,0 -1.864904,-0.029 -0.306268,-0.017 -0.589429,-0.043 -0.843164,-0.084 -0.813833,-0.1318 -1.324962,-0.417 -1.324962,-1.0344 0,-1.1601 1.805642,-2.1006 4.03303,-2.1006 2.227377,0 4.03303,0.9405 4.03303,2.1006 z" color="#000" enable-background="accumulate" overflow="visible" class="colorc38c74 svgShape"></path><ellipse style="isolation:auto;mix-blend-mode:normal;solid-color:#000;solid-opacity:1" cx="15.944" cy="1033.85" fill="#231f23" color="#000" enable-background="accumulate" overflow="visible" rx="2.08" ry="1.344" class="color23201f svgShape"></ellipse><circle cx="12.414" cy="1030.354" r="1.963" fill="#161117" color="#000" enable-background="accumulate" overflow="visible" style="isolation:auto;mix-blend-mode:normal;solid-color:#000;solid-opacity:1" class="color171311 svgShape"></circle><circle style="isolation:auto;mix-blend-mode:normal;solid-color:#000;solid-opacity:1" cx="23.11" cy="1030.354" r="1.963" fill="#161117" color="#000" enable-background="accumulate" overflow="visible" class="color171311 svgShape"></circle><path fill="none" stroke="#523854" stroke-linecap="round" stroke-width=".397" d="M5.0055377 1027.2727c-1.170435-1.0835-2.026973-.7721-2.044172-.7463M4.3852457 1026.9152c-1.158557.036-1.346704.6303-1.33881.6523M26.630533 1027.1724c1.17043-1.0835 2.02697-.7721 2.04417-.7463M27.321773 1026.673c1.15856.036 1.3467.6302 1.3388.6522" class="colorStroke384e54 svgStroke"></path></g></svg></g></svg>