<?xml version="1.0" encoding="UTF-8"?>
<svg width="24" height="24" version="1.1" viewBox="0 0 24 24" xmlns="http://www.w3.org/2000/svg">
 <g fill="#73cddc">
  <path d="m10.575 1.6953c-2.6341 0-4.7565 2.453-4.7565 5.5017v4.5995c-0.00877-7.51e-4 -0.017765-0.0015-0.026536-0.0022v4.7101c0 3.0487 2.1224 5.5017 4.7565 5.5017h2.2865c2.6341 0 4.7565-2.453 4.7565-5.5017v-4.5995c0.0088 7.49e-4 0.01777 0.0015 0.02654 0.0022v-4.7101c0-3.0487-2.1224-5.5017-4.7565-5.5017h-2.2865z"/>
  <rect transform="matrix(.48489 -.87457 .85979 .51065 0 0)" x="-1.1775" y="6.0925" width="2.2886" height="3.335" ry="1.1246"/>
  <rect transform="matrix(.44646 .8948 -.89204 .45195 0 0)" x="10.261" y="-15.076" width="2.297" height="3.3904" ry="1.1433"/>
 </g>
 <g>
  <circle cx="9.2673" cy="5.1301" r="2.0545" fill="#fff" stroke="#5e5d5b" stroke-width=".1"/>
  <circle cx="14.214" cy="5.1156" r="2.0545" fill="#fff" stroke="#5e5d5b" stroke-width=".1"/>
  <ellipse cx="8.039" cy="5.0512" rx=".79244" ry=".90067" fill="#030d18"/>
  <path d="m11.792 9.5557 0.76303 0.13832a0.40286 0.68856 0 0 1 8e-3 0.13832 0.40286 0.68856 0 0 1 -0.40259 0.68923 0.40286 0.68856 0 0 1 -0.40332 -0.68923 0.40286 0.68856 0 0 1 0.03488 -0.27664z" fill="#fff" stroke="#fff" stroke-width=".15521"/>
  <ellipse cx="8.5097" cy="5.3647" rx=".13796" ry=".16614" fill="#fff"/>
  <ellipse cx="12.945" cy="5.1891" rx=".79244" ry=".90067" fill="#030d18"/>
  <ellipse cx="13.414" cy="5.4461" rx=".13796" ry=".16614" fill="#fff"/>
  <ellipse transform="matrix(-.63477 -.7727 .7727 -.63477 0 0)" cx="-12.982" cy="-3.4087" rx=".70762" ry="1.026" fill="#f6d2a1"/>
  <path d="m11.772 9.5526-0.75678 0.13495a0.39956 0.6718 0 0 0 -0.0079 0.13495 0.39956 0.6718 0 0 0 0.39929 0.67245 0.39956 0.6718 0 0 0 0.40001 -0.67245 0.39956 0.6718 0 0 0 -0.0346 -0.2699z" fill="#fff" stroke="#fff" stroke-width=".15268"/>
 </g>
 <g fill="#f6d2a1">
  <ellipse transform="matrix(.63477 -.7727 -.7727 -.63477 0 0)" cx="1.8408" cy="-21.563" rx=".70736" ry="1.0257"/>
  <ellipse transform="matrix(.3054 -.95222 -.97065 -.24051 0 0)" cx="-17.281" cy="-21.784" rx=".86445" ry="1.2703"/>
  <ellipse transform="matrix(.22652 .97401 .95652 -.29167 0 0)" cx="22.885" cy="2.5872" rx=".86445" ry="1.2703"/>
  <path d="m10.708 8.3921c-0.32934 0-0.59377 0.26653-0.59377 0.59734v0.11487c0 0.33081 0.26444 0.59734 0.59377 0.59734h0.38609a0.97346 0.77195 0 0 1 0.69716 -0.23434 0.97346 0.77195 0 0 1 0.69807 0.23434h0.33394c0.32934 0 0.59469-0.26654 0.59469-0.59734v-0.11487c0-0.33081-0.26535-0.59734-0.59469-0.59734h-2.1153z" stroke="#657075" stroke-width=".1"/>
 </g>
 <ellipse cx="11.734" cy="8.2031" rx="1.2084" ry=".68013" fill="#030d18" stroke="#fff" stroke-width=".162"/>
</svg>
