<svg xmlns="http://www.w3.org/2000/svg" viewBox="0 0 32 32"><rect x="2" y="12" width="4" height="2" style="fill:#00acc1"/><rect y="16" width="6" height="2" style="fill:#00acc1"/><rect x="4" y="20" width="2" height="2" style="fill:#00acc1"/><path d="M18,8H10a2,2,0,0,0-2,2V24a2,2,0,0,0,2,2h8a2,2,0,0,0,2-2V18a2,2,0,0,0-2-2H14v2h2v6H12V10h4v2h4V10A2,2,0,0,0,18,8Z" style="fill:#00acc1"/><path d="M30,8H24.11285A2.11284,2.11284,0,0,0,22,10.11285V24a2,2,0,0,0,2,2h6a2,2,0,0,0,2-2V10A2,2,0,0,0,30,8ZM28,24H26V10h2Z" style="fill:#00acc1"/></svg>