<svg xmlns="http://www.w3.org/2000/svg" viewBox="0 0 32 32"><rect x="2" y="12" width="4" height="2" style="fill:#00acc1"/><rect y="16" width="6" height="2" style="fill:#00acc1"/><rect x="4" y="20" width="2" height="2" style="fill:#00acc1"/><path d="M20.9541,15H14v3H17.239a4.41613,4.41613,0,0,1-3.531,2,2.64933,2.64933,0,0,1-2.05329-.85828,2.85507,2.85507,0,0,1-.62756-2.27887A4.51451,4.51451,0,0,1,15.29205,13a2.72468,2.72468,0,0,1,1.74872.58368L20.0025,12.399A5.60478,5.60478,0,0,0,15.29205,10a7.52569,7.52569,0,0,0-7.24292,6.5A5.61427,5.61427,0,0,0,13.708,23a7.52569,7.52569,0,0,0,7.24292-6.5A6.40392,6.40392,0,0,0,20.9541,15Z" style="fill:#00acc1"/><path d="M26.29205,10a7.52569,7.52569,0,0,0-7.24292,6.5A5.61427,5.61427,0,0,0,24.708,23a7.5258,7.5258,0,0,0,7.243-6.5A5.61428,5.61428,0,0,0,26.29205,10ZM28.973,16.13708A4.51463,4.51463,0,0,1,24.708,20a2.64906,2.64906,0,0,1-2.05323-.85822,2.85508,2.85508,0,0,1-.62762-2.27893A4.51451,4.51451,0,0,1,26.29205,13a2.64919,2.64919,0,0,1,2.05329.85822A2.855,2.855,0,0,1,28.973,16.13708Z" style="fill:#00acc1"/></svg>