<svg xmlns="http://www.w3.org/2000/svg" viewBox="0 0 32 32"><path fill="#00acc1" d="M2 12h4v2H2zm-2 4h6v2H0zm4 4h2v2H4zm16.954-5H14v3h3.239a4.416 4.416 0 0 1-3.531 2 2.65 2.65 0 0 1-2.053-.858 2.855 2.855 0 0 1-.628-2.28A4.515 4.515 0 0 1 15.292 13a2.725 2.725 0 0 1 1.749.584l2.962-1.185A5.605 5.605 0 0 0 15.292 10a7.526 7.526 0 0 0-7.243 6.5 5.614 5.614 0 0 0 5.659 6.5 7.526 7.526 0 0 0 7.243-6.5 6.404 6.404 0 0 0 .003-1.5Z"/><path fill="#00acc1" d="M26.292 10a7.526 7.526 0 0 0-7.243 6.5 5.614 5.614 0 0 0 5.659 6.5 7.526 7.526 0 0 0 7.243-6.5 5.614 5.614 0 0 0-5.659-6.5Zm2.681 6.137A4.515 4.515 0 0 1 24.708 20a2.65 2.65 0 0 1-2.053-.858 2.855 2.855 0 0 1-.628-2.28A4.515 4.515 0 0 1 26.292 13a2.65 2.65 0 0 1 2.053.858 2.855 2.855 0 0 1 .628 2.28Z"/></svg>