<svg xmlns="http://www.w3.org/2000/svg" viewBox="0 0 32 32">
  <g>
    <rect y="16" width="8" height="2" style="fill: #00acc1"/>
    <rect x="2" y="12" width="6" height="2" style="fill: #00acc1"/>
    <rect x="4" y="20" width="4" height="2" style="fill: #00acc1"/>
    <path d="M14,14V12h6a4,4,0,0,0-4-4H14a4,4,0,0,0-4,4V22a4,4,0,0,0,4,4h2a4,4,0,0,0,4-4V16H16v4h2v2H14V14Z" style="fill: #00acc1"/>
    <path d="M28,8H26a4,4,0,0,0-4,4V22a4,4,0,0,0,4,4h2a4,4,0,0,0,4-4V12A4,4,0,0,0,28,8Zm0,14H26V12h2Z" style="fill: #00acc1"/>
  </g>
</svg>
