<svg xmlns="http://www.w3.org/2000/svg" viewBox="0 0 32 32"><path fill="#66bb6a" d="m31.75 10.745-2.5-4.33a.5.5 0 0 0-.683-.183l-2.793 1.612A9.97 9.97 0 0 0 24 6.838V2.5a.5.5 0 0 0-.5-.5h-5a.5.5 0 0 0-.5.5V6h-4V2.5a.5.5 0 0 0-.5-.5h-5a.5.5 0 0 0-.5.5v4.338a9.974 9.974 0 0 0-1.725.97l-2.73-1.576a.5.5 0 0 0-.683.183l-2.5 4.33a.5.5 0 0 0 .183.683L2.6 12.614A9.959 9.959 0 0 0 2 16v3l5 1 1 4h4l1-4h6l1 4h4l1-4 5-1v-3a9.96 9.96 0 0 0-.58-3.332l2.147-1.24a.5.5 0 0 0 .183-.683ZM9 18a3 3 0 1 1 3-3 3 3 0 0 1-3 3Zm9-2h-4v-2h4Zm5 2a3 3 0 1 1 3-3 3 3 0 0 1-3 3Z"/><path fill="#66bb6a" d="m26 22-1 4h-6l-1-4h-4l-1 4H7l-1-4-4-1v3a4 4 0 0 0 4 4h20a4 4 0 0 0 4-4v-3Z"/></svg>