<svg xmlns="http://www.w3.org/2000/svg" viewBox="0 0 24 24"><path fill="#FF6F00" d="M20.173 8.483a14.694 14.694 0 0 0-3.287-3.92l-.025-.02a12.974 12.974 0 0 0-.784-.603C14.28 2.67 12.317 2 10.394 2 7.953 2 5.741 3.302 4.167 5.668 1.952 8.994 1.48 13.656 2.99 17.269c1.134 2.712 4.077 4.47 7.873 4.706.276.016.555.025.833.025 1.757 0 3.531-.338 5.073-.975 1.962-.81 3.463-2.048 4.342-3.583 1.304-2.28.945-5.712-.938-8.96zm-8.871.508c.863 0 1.723.354 2.341 1.048.558.625.839 1.43.79 2.266a3.114 3.114 0 0 1-1.007 2.128l-.072.064a3.14 3.14 0 0 1-3.725.28 4.36 4.36 0 0 1-.745-.67 2.537 2.537 0 0 1-.17-.214 3.107 3.107 0 0 1-.416-.874l-.016-.057a.022.022 0 0 0-.002-.007c-.277-1.08.04-2.339.905-3.138l.066-.061a3.121 3.121 0 0 1 2.05-.764zm-.908-5.84c1.683 0 3.418.598 5.018 1.73.245.173.485.359.72.553l.386.348c2.95 2.744 3.873 5.42 3.642 8.189-.151 1.818-1.31 3.27-2.97 4.394-1.58 1.07-4 1.377-5.727 1.192-1.697-.182-3.456-.866-4.592-2.404-.939-1.273-1.218-2.64-1.091-4.107.127-1.459.712-2.823 1.662-3.772.533-.533 1.442-1.202 2.894-1.324-.68.156-1.33.48-1.887.976a4.287 4.287 0 0 0-1.378 3.869c.093.636.33 1.248.713 1.778a4.277 4.277 0 0 0 1.252 1.191c1.66 1.121 3.728 1.033 5.747-.306 1.1-.73 1.844-1.994 2.04-3.471.238-1.788-.336-3.623-1.575-5.033-1.347-1.533-3.212-2.44-5.116-2.49-1.77-.046-3.409.652-4.737 2.017-.407.417-.777.87-1.107 1.349.239-.533.518-1.043.838-1.523C6.48 4.272 8.35 3.152 10.394 3.152z"/></svg>