<?xml version="1.0" encoding="UTF-8"?>
<svg fill="none" version="1.1" viewBox="0 0 245 245" xmlns="http://www.w3.org/2000/svg">
 <path d="m121.79 19.003c-60.269 0.99836-103.37 50.943-102.92 102.33-0.0032 0.14153-0.02149 0.27926-0.02149 0.42158 0 0.72087 0.04126 1.424 0.05456 2.1393 3e-3 0.0838-3.1e-5 0.16745 0.0032 0.25129 6.46e-4 0.0161 0.0043 0.0318 5e-3 0.0479 1.3169 62.142 52.51 103.07 104.3 101.79 62.264-1.7293 106.45-55.813 102.72-104.09-0.0658-0.76316-0.1929-1.5075-0.34883-2.2418-1.6986-8.569-9.478-15.046-18.582-15.046h-27.21c-10.311 0-18.67 8.3078-18.67 18.556 0 10.249 8.3584 18.556 18.67 18.556h6.803c-7.5182 24.105-31.273 47.113-64.269 48.029-33.064 0.81574-66.143-25.437-67.103-66.18-0.0017-0.19358 0.01272-0.38379 5e-3 -0.57862-1.2794-32.131 25.005-65.971 68.06-67.764 9.9737-0.41535 17.724-8.8601 17.309-18.862-0.41391-10.001-8.835-17.773-18.809-17.357zm0.78032 85.601c-10.234 0-18.541 8.319-18.541 18.582 0 10.263 8.3065 18.584 18.541 18.584 10.235 0 18.543-8.3207 18.543-18.584 0-10.263-8.3073-18.582-18.543-18.582z" fill="#00bfa5" stroke-width=".84645"/>
</svg>
