<svg viewBox="0 0 24 24" xmlns="http://www.w3.org/2000/svg" fill-rule="evenodd" clip-rule="evenodd" stroke-linejoin="round" stroke-miterlimit="2"><path d="M22 12c0-5.51914063-4.48085937-10-10-10S2 6.48085937 2 12s4.48085937 10 10 10 10-4.48085937 10-10zm-14.23796875.07703125c.00136719-.03253906.00140625-.06542969.00007812-.09855469-.0830078-2.07835937 1.62210938-4.2671875 4.41515626-4.38316406.64703124-.026875 1.14972656-.57308594 1.12289062-1.22-.026875-.64691406-.57316406-1.14957031-1.22019531-1.12269531-3.93269531.06496094-6.74050781 3.33316406-6.67769531 6.6775l-.00003907-.00203125C5.4182422 16.02011719 8.77675781 18.72417969 12.1725 18.640625c4.00851562-.14304687 6.90425781-3.62488281 6.6634375-6.73289062-.00570313-.06609376-.01683594-.13070313-.03292969-.19335938-.1290625-.53019531-.62171875-.925-1.19507812-.925h-1.76515625c-.66894532 0-1.21121094.53738281-1.21121094 1.20027344 0 .66289062.54226563 1.20027344 1.21121094 1.20027344h.44242187c-.48765625 1.55921874-2.02984375 3.0473828-4.17039062 3.10667968-2.1284375.05234375-4.25933594-1.61878906-4.35277344-4.21957031zm3.16585938-.085625c0-.66386719.53882812-1.20203125 1.20277343-1.20203125.66394531 0 1.2028125.53816406 1.2028125 1.20203125s-.53886719 1.20203125-1.2028125 1.20203125-1.20277344-.53816406-1.20277344-1.20203125z" fill="#00a672"/></svg>
