<svg xmlns="http://www.w3.org/2000/svg" viewBox="0 0 32 32">
  <path d="M19.32219,2a6.48511,6.48511,0,0,1,4.35159,1.419A4.55376,4.55376,0,0,1,25.359,7.081,5.81545,5.81545,0,0,1,23.47321,11.356a6.03593,6.03593,0,0,1-4.33979,1.84646,4.15231,4.15231,0,0,1-2.38521-.64945,1.90881,1.90881,0,0,1-.936-1.60269,1.59391,1.59391,0,0,1,.35592-1.0242,1.10566,1.10566,0,0,1,.86127-.44752c.31265,0,.468.16737.468.50392a.78925.78925,0,0,0,.35788.6931,1.42558,1.42558,0,0,0,.82588.24559A3.10722,3.10722,0,0,0,21.0703,9.34766a5.6618,5.6618,0,0,0,1.15426-3.38913,2.63567,2.63567,0,0,0-.89077-2.06476A3.27864,3.27864,0,0,0,19.041,3.08241a6.17945,6.17945,0,0,0-4.08613,1.7355,12.92124,12.92124,0,0,0-3.215,4.557,13.41086,13.41086,0,0,0-1.23292,5.3593,5.85631,5.85631,0,0,0,1.09134,3.72386,3.5295,3.5295,0,0,0,2.90434,1.37166q3.0587,0,5.848-4.00219l2.9358-.38749c.36378-.0473.54469.03457.54469.24559a7.88425,7.88425,0,0,1-.42277,1.24068q-.42178,1.097-1.1523,3.66746A12.68992,12.68992,0,0,0,26,17.71952v1.66091a14.15625,14.15625,0,0,1-4.05467,2.5705,10.38044,10.38044,0,0,1-2.76472,5.93052,6.69386,6.69386,0,0,1-4.80582,2.11025,3.29366,3.29366,0,0,1-2.0116-.55121,1.80016,1.80016,0,0,1-.71773-1.51356q0-2.6851,5.63367-5.21194.53162-1.76595,1.15229-3.50738a8.5708,8.5708,0,0,1-2.85321,2.32309,7.40415,7.40415,0,0,1-3.48048,1.00965,5.45847,5.45847,0,0,1-4.36535-2.09206A8.10821,8.10821,0,0,1,6,15.12174,11.61333,11.61333,0,0,1,7.96637,8.6964a14.68589,14.68589,0,0,1,5.16174-4.86266A12.44016,12.44016,0,0,1,19.32219,2ZM16.91535,24.17033q-4.05566,1.87466-4.05467,3.69475a.87092.87092,0,0,0,.99892.96962Q15.824,28.8347,16.91535,24.17033Z" style="fill: #26c6da"/>
</svg>
