<svg xmlns="http://www.w3.org/2000/svg" viewBox="0 0 32 32"><path fill="#26c6da" d="M19.322 2a6.485 6.485 0 0 1 4.352 1.419 4.554 4.554 0 0 1 1.685 3.662 5.815 5.815 0 0 1-1.886 4.275 6.036 6.036 0 0 1-4.34 1.846 4.152 4.152 0 0 1-2.385-.649 1.909 1.909 0 0 1-.936-1.603 1.594 1.594 0 0 1 .356-1.024 1.106 1.106 0 0 1 .861-.447c.313 0 .468.167.468.504a.79.79 0 0 0 .358.693 1.426 1.426 0 0 0 .826.245 3.107 3.107 0 0 0 2.39-1.573 5.662 5.662 0 0 0 1.154-3.39 2.636 2.636 0 0 0-.891-2.064 3.279 3.279 0 0 0-2.293-.812 6.18 6.18 0 0 0-4.086 1.736 12.921 12.921 0 0 0-3.215 4.557 13.41 13.41 0 0 0-1.233 5.36 5.856 5.856 0 0 0 1.091 3.723 3.53 3.53 0 0 0 2.905 1.372q3.058 0 5.848-4.002l2.935-.388c.364-.047.545.035.545.246a7.884 7.884 0 0 1-.423 1.24q-.421 1.097-1.152 3.668A12.69 12.69 0 0 0 26 17.72v1.66a14.156 14.156 0 0 1-4.055 2.57 10.38 10.38 0 0 1-2.764 5.931 6.694 6.694 0 0 1-4.806 2.11 3.294 3.294 0 0 1-2.012-.55 1.8 1.8 0 0 1-.718-1.514q0-2.685 5.634-5.212.532-1.766 1.152-3.507a8.57 8.57 0 0 1-2.853 2.323 7.404 7.404 0 0 1-3.48 1.01 5.458 5.458 0 0 1-4.366-2.093A8.108 8.108 0 0 1 6 15.122a11.613 11.613 0 0 1 1.966-6.426 14.686 14.686 0 0 1 5.162-4.862A12.44 12.44 0 0 1 19.322 2Zm-2.407 22.17q-4.055 1.875-4.054 3.695a.87.87 0 0 0 .999.97q1.964 0 3.055-4.665Z"/></svg>