<svg xmlns="http://www.w3.org/2000/svg" viewBox="0 0 1024 1024"><path fill="#1976d2" d="M128 704h768c35.456 0 64 28.544 64 64v128c0 35.456-28.544 64-64 64H128c-35.456 0-64-28.544-64-64V768c0-35.456 28.544-64 64-64"/><path fill="#e0e0e0" d="M160 768h704c17.728 0 32 14.272 32 32s-14.272 32-32 32H160c-17.728 0-32-14.272-32-32s14.272-32 32-32"/><path fill="#1a237e" d="M160 64c-53.02 0-96 42.98-96 96v320c0 160 128 352 288 352h320c160 0 288-256 288-512V128c0-35.346-28.654-64-64-64s-64 28.654-64 64 28.654 64 64 64v128h-64c-64-64-128-128-192-128v-32c0-53.02-42.98-96-96-96s-96 42.98-96 96v32H256v-32c0-53.02-42.98-96-96-96"/><path fill="#fafafa" d="M224 320c-53.02 0-96 42.98-96 96s42.98 96 96 96 96-42.98 96-96-42.98-96-96-96m256 0c-53.02 0-96 42.98-96 96s42.98 96 96 96 96-42.98 96-96-42.98-96-96-96"/><path d="M224 384a32 32 0 0 0-32 32 32 32 0 0 0 32 32 32 32 0 0 0 32-32 32 32 0 0 0-32-32m256 0a32 32 0 0 0-32 32 32 32 0 0 0 32 32 32 32 0 0 0 32-32 32 32 0 0 0-32-32"/><path fill="#ad1457" d="M320 512h64c17.728 0 32 14.272 32 32s-14.272 32-32 32h-64c-17.728 0-32-14.272-32-32s14.272-32 32-32"/><path fill="#757575" d="M352 592c-8.864 0-16 7.136-16 16v6.762l-61.281 35.383A15.964 15.964 0 0 0 268.86 672a15.966 15.966 0 0 0 21.858 5.855L352 642.475l61.281 35.38A15.966 15.966 0 0 0 435.14 672a15.964 15.964 0 0 0-5.858-21.855L368 614.762V608c0-8.864-7.136-16-16-16m-80.422-368.008c-2.578.07-5.18.768-7.578 2.153A15.964 15.964 0 0 0 258.145 248l32 55.426A15.964 15.964 0 0 0 312 309.28a15.964 15.964 0 0 0 5.855-21.855l-32-55.426a15.96 15.96 0 0 0-14.277-8.008zm160.844 0A15.96 15.96 0 0 0 418.145 232l-32 55.426A15.964 15.964 0 0 0 392 309.28a15.964 15.964 0 0 0 21.855-5.855l32-55.426A15.964 15.964 0 0 0 440 226.145a16 16 0 0 0-7.578-2.153M160 128c-17.728 0-32 14.272-32 32v64c0 17.728 14.272 32 32 32s32-14.272 32-32v-64c0-17.728-14.272-32-32-32m384 0c-17.728 0-32 14.272-32 32v64c0 17.728 14.272 32 32 32s32-14.272 32-32v-64c0-17.728-14.272-32-32-32"/></svg>