<svg viewBox="0 0 1024 1024" xmlns="http://www.w3.org/2000/svg"><path d="M128 704h768c35.456 0 64 28.544 64 64v128c0 35.456-28.544 64-64 64H128c-35.456 0-64-28.544-64-64V768c0-35.456 28.544-64 64-64z" fill="#1976d2"/><path d="M160 768h704c17.728 0 32 14.272 32 32s-14.272 32-32 32H160c-17.728 0-32-14.272-32-32s14.272-32 32-32z" fill="#e0e0e0"/><path d="M160 64c-53.02 0-96 42.98-96 96v320c0 160 128 352 288 352h320c160 0 288-256 288-512V128c0-35.346-28.654-64-64-64-35.346 0-64 28.654-64 64 0 35.346 28.654 64 64 64v128h-64c-64-64-128-128-192-128v-32c0-53.02-42.98-96-96-96s-96 42.98-96 96v32H256v-32c0-53.02-42.98-96-96-96z" fill="#1a237e"/><path d="M224 320c-53.02 0-96 42.98-96 96s42.98 96 96 96 96-42.98 96-96-42.98-96-96-96zm256 0c-53.02 0-96 42.98-96 96s42.98 96 96 96 96-42.98 96-96-42.98-96-96-96z" fill="#fafafa"/><path d="M224 384a32 32 0 00-32 32 32 32 0 0032 32 32 32 0 0032-32 32 32 0 00-32-32zm256 0a32 32 0 00-32 32 32 32 0 0032 32 32 32 0 0032-32 32 32 0 00-32-32z"/><path d="M320 512h64c17.728 0 32 14.272 32 32s-14.272 32-32 32h-64c-17.728 0-32-14.272-32-32s14.272-32 32-32z" fill="#ad1457"/><path d="M352 576c-8.864 0-16 7.136-16 16v22.762l-61.281 35.383A15.964 15.964 0 00268.86 672a15.966 15.966 0 0021.858 5.855L352 642.475l61.281 35.38A15.966 15.966 0 00435.14 672a15.964 15.964 0 00-5.858-21.855L368 614.762V592c0-8.864-7.136-16-16-16zm-207.732 7.666a15.962 15.962 0 00-15.295 13.22 15.965 15.965 0 0012.978 18.536l94.541 16.67a15.965 15.965 0 0018.535-12.979 15.965 15.965 0 00-12.978-18.535l-94.541-16.67a16.196 16.196 0 00-3.24-.242zm415.464 0a16.2 16.2 0 00-3.24.242l-94.54 16.67a15.965 15.965 0 00-12.98 18.535 15.965 15.965 0 0018.536 12.979l94.54-16.67a15.965 15.965 0 0012.98-18.535 15.962 15.962 0 00-15.296-13.221zM271.578 223.992c-2.578.07-5.18.768-7.578 2.153A15.964 15.964 0 00258.145 248l32 55.426A15.964 15.964 0 00312 309.28a15.964 15.964 0 005.855-21.855l-32-55.426a15.962 15.962 0 00-14.277-8.008zm160.844 0A15.961 15.961 0 00418.145 232l-32 55.426A15.964 15.964 0 00392 309.28a15.964 15.964 0 0021.855-5.855l32-55.426A15.964 15.964 0 00440 226.145a15.982 15.982 0 00-7.578-2.153zM160 128c-17.728 0-32 14.272-32 32v64c0 17.728 14.272 32 32 32s32-14.272 32-32v-64c0-17.728-14.272-32-32-32zm384 0c-17.728 0-32 14.272-32 32v64c0 17.728 14.272 32 32 32s32-14.272 32-32v-64c0-17.728-14.272-32-32-32z" fill="#757575"/></svg>