<svg viewBox="0 0 1024 1024" xmlns="http://www.w3.org/2000/svg"><path d="M128 704c-35.456 0-64 28.544-64 64v128c0 35.346 28.654 64 64 64h768c35.346 0 64-28.654 64-64V768c0-35.456-28.544-64-64-64h-38.902c-15.558 24.283-32.535 45.806-50.666 64H864c17.728 0 32 14.272 32 32s-14.272 32-32 32H160c-17.728 0-32-14.272-32-32s14.272-32 32-32h36.49c-21.157-18.507-40.43-40.16-57.287-64z" fill="#1976d2"/><path d="M160 768c-17.728 0-32 14.272-32 32s14.272 32 32 32h192c-57.463 0-110.75-24.847-155.51-64zm646.432 0c-40.056 40.195-85.745 64-134.432 64h192c17.728 0 32-14.272 32-32s-14.272-32-32-32z" fill="#e0e0e0"/><path d="M160 64c-53.02 0-96 42.98-96 96v320c0 160 128 352 288 352h320c160 0 288-256 288-512V128c0-35.346-28.654-64-64-64-35.346 0-64 28.654-64 64 0 35.346 28.654 64 64 64v128h-64c-64-64-128-128-192-128v-32c0-53.02-42.98-96-96-96s-96 42.98-96 96v32H256v-32c0-53.02-42.98-96-96-96zm0 64c17.728 0 32 14.272 32 32v64c0 17.728-14.272 32-32 32s-32-14.272-32-32v-64c0-17.728 14.272-32 32-32zm384 0c17.728 0 32 14.272 32 32v64c0 17.728-14.272 32-32 32s-32-14.272-32-32v-64c0-17.728 14.272-32 32-32zM224 320c53.02 0 96 42.98 96 96s-42.98 96-96 96-96-42.98-96-96 42.98-96 96-96zm256 0c53.02 0 96 42.98 96 96s-42.98 96-96 96-96-42.98-96-96 42.98-96 96-96zM352 576c32 0 96 0 96 32s-64 96-96 96-96-64-96-96 64-32 96-32z" fill="#1a237e"/><path d="M224 320c-53.02 0-96 42.98-96 96s42.98 96 96 96 96-42.98 96-96-42.98-96-96-96zm-32 64h64v64h-64v-32z" fill="#fafafa"/><path d="M192 384v64h64v-64z"/><path d="M480 320c-53.02 0-96 42.98-96 96s42.98 96 96 96 96-42.98 96-96-42.98-96-96-96zm-32 64h64v64h-64v-32z" fill="#fafafa"/><path d="M448 384v64h64v-64z"/><path d="M352 576c-32 0-96 0-96 32s64 96 96 96 96-64 96-96-64-32-96-32z" fill="#ad1457"/><path d="M160 128c-17.728 0-32 14.272-32 32v64c0 17.728 14.272 32 32 32s32-14.272 32-32v-64c0-17.728-14.272-32-32-32zm384 0c-17.728 0-32 14.272-32 32v64c0 17.728 14.272 32 32 32s32-14.272 32-32v-64c0-17.728-14.272-32-32-32z" fill="#616161"/></svg>