<?xml version="1.0" encoding="UTF-8"?>
<svg width="300" height="300" enable-background="new 0 0 320.5 134.4" version="1.1" viewBox="0 0 300 300.00001" xml:space="preserve" xmlns="http://www.w3.org/2000/svg"><g id="Layer_1_1_" transform="translate(0 165.6)" display="none"><path d="m10.2 121.7-4-29s-2-10.3 5.7-16.4c7.8-6 20.7-12.4 25-13.8s6-1.7 9.8-0.3 17.2 7.8 20.1 9.5 5.5 3.4 6.9 13.8c1.4 10.3 4 33 4 33" display="inline" fill="none" stroke="#3f3e29" stroke-linecap="round" stroke-miterlimit="10" stroke-width="2"/><path d="m13.3 88.4s25-17.5 55.4-3.8c0 0 3 11.3 2.7 24.2 0 0-20.4 12.4-55.6 3.5 0 0-3.5-6.4-2.5-23.9z" display="inline" fill="none" stroke="#3f3e29" stroke-miterlimit="10" stroke-width="2"/><g display="inline"><path d="m-16.5 64.7c0.5 0.6 0.9 1.1 1.3 1.7l0.9 1.9 1.7 3.9 1.7 3.9 0.9 1.9c0.1 0.7 0.3 1.4 0.4 2.1-0.5-0.6-0.9-1.2-1.3-1.7l-0.9-1.9-1.7-3.9-1.7-3.9-0.9-1.9c-0.2-0.6-0.3-1.4-0.4-2.1z" fill="#3f3e29"/><path d="m-14 77.9c-0.1-0.5-0.1-1 0-1.5l0.4-1.3 0.9-2.6 0.9-2.6 0.4-1.3c0.3-0.4 0.6-0.8 0.9-1.1v1.5l-0.4 1.3-0.9 2.6-0.9 2.6-0.4 1.3c-0.2 0.4-0.5 0.8-0.9 1.1z" fill="#3f3e29"/><path d="m-3.3 72.2c-0.4 0.3-0.7 0.4-1.1 0.6l-1.2 0.2-2.3 0.3-2.3 0.3-1.1 0.1c-0.4-0.1-0.8-0.2-1.2-0.4 0.4-0.2 0.7-0.4 1.1-0.6l1.1-0.1 2.3-0.3 2.3-0.3 1.1-0.1c0.5 0 0.9 0.1 1.3 0.3z" fill="#3f3e29"/></g><g display="inline"><path d="m130.2 111.4c-0.4-0.7-0.7-1.4-1-2.2l-0.5-2.3-0.9-4.5-0.9-4.5-0.5-2.3v-2.4c0.4 0.7 0.6 1.4 1 2.2l0.5 2.3 0.9 4.5 0.9 4.5 0.5 2.3c0.1 0.9 0.1 1.6 0 2.4z" fill="#3f3e29"/><path d="m123.9 100.8c0.6 0.1 1.1 0.2 1.6 0.3l1.4 0.7 2.8 1.4 2.8 1.4 1.4 0.7c0.4 0.4 0.8 0.7 1.2 1.2-0.6-0.1-1.1-0.2-1.6-0.3l-1.4-0.7-2.8-1.4-2.8-1.4-1.4-0.7-1.2-1.2z" fill="#3f3e29"/><path d="m125.4 108.6c0-0.4 0-0.7 0.1-1.1l0.5-0.8 1-1.7 1-1.7 0.5-0.8 0.9-0.6c0 0.4 0 0.7-0.1 1.1l-0.5 0.8-1 1.7-1 1.7-0.5 0.8-0.9 0.6z" fill="#3f3e29"/></g><path d="m9 126s41.5 4 70.8-7.8l-0.1 6s-37.6 7.8-69.5 6.6l-1.1-2.3" display="inline" fill="none" stroke="#3f3e29" stroke-linecap="round" stroke-linejoin="round" stroke-miterlimit="10" stroke-width="1.5"/><g display="inline"><path d="m130.5 129c2.1 0.5 4.1 1 6.2 1.5l-1 0.5 0.2-1.4c0-0.2 0.1-0.3 0.3-0.4l0.2-0.1c1.3-0.9 2.7-1.5 4.1-2.3l4.2-2.1 4.2-2.1 2.1-1c0.7-0.3 1.4-0.7 2.3-1 0.3-0.1 0.7 0 0.9 0.2l1.2 1-1.5 0.3 1.5-3.1c0.1-0.3 0.4-0.5 0.7-0.5 1.3-0.2 2.6-0.7 3.7-1.3 0.6-0.3 1-0.7 1.5-1.1 0.5-0.5 0.9-1 1.4-1.6 0.9-1.1 1.7-2.2 2.4-3.4 0.3-0.6 0.7-1.2 0.9-1.8s0.4-1.3 0.4-1.5v-0.4c0.1-0.3 0.1-0.7 0.2-1.1v-1.1c0-0.7-0.2-1.3-0.6-1.6-0.3-0.3-0.4-0.6-0.3-1s0.3-0.7 0.5-1 0.5-0.6 0.9-0.8c0.8-0.5 1.8-0.4 2.4-0.1 0.7 0.3 1.2 0.6 1.7 1s0.9 0.8 1.3 1.2c0.1 0.1 0.1 0.1 0.1 0.2 0.1 0.3 0.1 0.3 0.2 0.5l0.1 0.4c0.1 0.2 0.1 0.5 0.1 0.7v1.4c-0.1 0.9-0.2 1.8-0.4 2.7-0.3 1.7-0.8 3.4-1.4 5.1 0.1-1.7 0.2-3.5 0.2-5.2 0-0.9-0.1-1.7-0.2-2.5-0.1-0.4-0.1-0.8-0.2-1.2l-0.1-0.6c0-0.1 0-0.2-0.1-0.2 0-0.1-0.1-0.2 0-0.1l0.1 0.2c-0.7-0.7-1.5-1.5-2.2-1.7-0.4-0.1-0.6-0.1-0.7 0-0.2 0.1-0.4 0.4-0.5 0.7l-0.3-1c0.4 0.4 0.7 0.9 0.9 1.4s0.3 1 0.3 1.5v1.4c0 0.5-0.1 0.9-0.2 1.4v-0.4c0.1 0.6 0 1.1-0.1 1.5s-0.2 0.8-0.4 1.2c-0.3 0.7-0.7 1.4-1 2.1-0.8 1.3-1.6 2.5-2.5 3.7-0.5 0.6-0.9 1.2-1.5 1.7-0.5 0.6-1.2 1.1-1.9 1.5-1.4 0.8-2.8 1.2-4.4 1.5l0.7-0.5-1.5 3.1c-0.2 0.5-0.8 0.7-1.3 0.5-0.1 0-0.1-0.1-0.2-0.1l-1.2-1 0.9 0.2c-0.6 0.2-1.3 0.6-2 0.9l-2.1 1-4.2 2.1-4.2 2.1c-1.4 0.7-2.7 1.5-4.2 2l0.4-0.6-0.5 1.4v0.1c-0.1 0.3-0.5 0.5-0.8 0.4h-0.1c-1.9-1.5-3.7-2.4-5.6-3.4z" fill="#3f3e29"/></g><path d="m131.2 131.6s7.7 11.8 7.6 23.3l19.9-12.3s2.1-1.5 3.1-2.9c0 0 2.3-0.3 2.5-1.4 0 0 11.4-0.7 13.5-4.8l5.1-3.6" display="inline" fill="none" stroke="#3f3e29" stroke-linecap="round" stroke-linejoin="round" stroke-miterlimit="10" stroke-width="2"/><g display="inline"><path d="m174.8 128c-0.8-0.3-1.5-1.1-1.7-2-0.2-1 0.2-1.9 0.7-2.6l0.1-0.1 0.2-0.1c1.8-0.8 3.5-1.6 5.3-2.3s3.7-1.3 5.5-1.9l0.4-0.1 0.1 0.3c0.3 0.7 0.5 1.3 0.6 2s0.3 1.4 0.1 2.1c-0.1 0.4-0.3 0.8-0.6 1s-0.6 0.4-0.9 0.5c-0.6 0.3-1.2 0.6-1.9 0.9-2.5 1.1-5.1 2.1-7.7 3l0.5-0.6v0.9c0 0.3 0.1 0.6 0.2 0.9 0.2 0.6 0.5 1 0.9 1.2l-0.7-0.1c1.6-0.6 3.2-1.1 4.8-1.6s3.2-1 4.8-1.4l-0.3 0.2c0.1-0.2 0.2-0.6 0.3-0.9v-1c-0.1-0.7-0.5-1.3-1-1.9l0.1-0.1c0.7 0.4 1.2 1 1.5 1.8 0.2 0.4 0.2 0.8 0.2 1.2s0 0.8-0.2 1.3l-0.1 0.2-0.2 0.1c-1.5 0.7-3.1 1.3-4.7 1.9s-3.1 1.2-4.7 1.7l-0.4 0.1-0.3-0.2c-0.4-0.2-0.8-0.6-1-1s-0.4-0.8-0.5-1.2-0.2-0.8-0.2-1.2v-1.2l0.1-0.5 0.5-0.1 3.9-1.1c1.3-0.4 2.6-0.7 3.9-1.1 0.6-0.2 1.3-0.4 1.9-0.7 0.3-0.1 0.6-0.3 0.9-0.5s0.4-0.4 0.5-0.7c0.1-0.6 0-1.3-0.2-1.9s-0.5-1.2-0.8-1.8l0.5 0.2c-1.7 0.8-3.5 1.7-5.3 2.5-1.8 0.7-3.6 1.4-5.4 2l0.2-0.2c-0.5 0.6-0.8 1.3-0.8 2s0.4 1.4 1.1 1.9z" fill="#3f3e29"/></g><g display="inline"><path d="m185.1 119.5c0.1-1 0.2-1.9 0-2.8-0.1-0.4-0.2-0.8-0.3-1.1-0.2-0.3-0.4-0.5-0.7-0.7h0.5c-0.9 0.3-1.9 0.4-2.8 0.7s-1.8 0.8-2.6 1.3-1.7 1-2.6 1.4-1.8 0.8-2.7 1.2l0.4-0.3c-0.2 0.3-0.3 0.7-0.5 1.1-0.1 0.4-0.2 0.8-0.2 1.2s0.1 0.8 0.2 1.2 0.4 0.8 0.7 1.1l-0.1 0.1c-0.5-0.2-0.9-0.4-1.2-0.8-0.4-0.4-0.6-0.9-0.7-1.4s-0.1-1.1 0-1.6 0.2-1 0.5-1.5l0.1-0.2 0.3-0.1c0.9-0.4 1.8-0.7 2.7-1s1.8-0.6 2.8-0.8 1.9-0.5 2.8-0.9 1.7-1 2.6-1.5l0.2-0.1 0.3 0.1c0.5 0.2 1.1 0.7 1.3 1.2 0.3 0.6 0.4 1.1 0.3 1.7 0 0.5-0.1 1.1-0.3 1.5-0.2 0.5-0.4 0.9-0.7 1.3z" fill="#3f3e29"/></g><g display="inline"><path d="m184.1 114.2c-0.2-0.8-0.4-1.6-0.7-2.2-0.2-0.3-0.4-0.6-0.6-0.8s-0.5-0.4-0.7-0.5h0.5c-0.8 0.3-1.7 0.4-2.5 0.7s-1.5 0.7-2.2 1.1c-0.7 0.5-1.4 0.9-2.2 1.3-0.7 0.4-1.5 0.8-2.3 1.1l0.3-0.3c-0.2 0.2-0.4 0.6-0.5 0.9s-0.2 0.6-0.3 1c-0.1 0.7 0.1 1.4 0.6 2.2l-0.1 0.1c-0.8-0.4-1.5-1.2-1.6-2.2-0.1-0.5-0.1-1 0.1-1.5 0.1-0.5 0.3-0.9 0.6-1.4l0.1-0.2 0.2-0.1c0.8-0.3 1.5-0.6 2.3-0.9s1.6-0.5 2.4-0.7 1.6-0.5 2.4-0.9c0.7-0.4 1.4-1 2.1-1.4l0.2-0.1 0.3 0.1c0.5 0.1 0.9 0.4 1.2 0.8s0.6 0.8 0.7 1.3c0.2 0.9 0.1 1.8-0.2 2.6z" fill="#3f3e29"/></g><g display="inline"><path d="m173.4 111.7c0.3-0.4 0.6-0.7 1-1l1.2-0.2c0.8-0.2 1.5-0.3 2.3-0.5 0.8-0.1 1.6-0.3 2.3-0.4 0.4 0 0.8-0.1 1.2-0.1 0.4 0.2 0.8 0.4 1.2 0.7-0.4 0.3-0.7 0.6-1.1 0.8-0.4 0-0.8 0.1-1.1 0.1-0.8 0.1-1.5 0.2-2.3 0.3s-1.5 0.3-2.3 0.4c-0.4 0.1-0.8 0.2-1.1 0.3-0.4 0-0.8-0.2-1.3-0.4z" fill="#3f3e29"/></g><path d="m-13.9 196.8" display="inline" fill="none" stroke="#3f3e29" stroke-linejoin="round" stroke-miterlimit="10" stroke-width="2"/><g display="inline"><path d="m11.6 154.7c-0.3 1.8-0.8 3.5-1.3 5.1l0.1-0.4c0.4 4.3 0.7 8.5 0.6 12.8l-0.3 12.8c-0.2 8.6-0.4 17.1-0.7 25.7h-0.3c-0.5-8.5-0.8-17.1-1.2-25.6l-0.6-12.8c-0.1-4.3 0.1-8.6 0.4-12.8v-0.3l0.1-0.1c0.9-1.5 1.9-3 3-4.4z" fill="#3f3e29"/></g><line x1="6.3" x2="8.8" y1="158.2" y2="161.7" display="inline" fill="none" stroke="#3f3e29" stroke-linecap="round" stroke-miterlimit="10" stroke-width="2"/><path d="m131.8 133.8c-8.6 3.3-11.8 5.7-14.1 5.7s-18.3-10.2-21.2-11.4-21-3.8-21-3.8" display="inline" fill="none" stroke="#3f3e29" stroke-linecap="round" stroke-linejoin="round" stroke-miterlimit="10" stroke-width="2"/><g display="inline"><path d="m82.8 149.7c1.1 5.1 1.9 10.2 2.8 15.3l0.7 3.8c0.1 0.6 0.2 1.2 0.4 1.8 0.1 0.3 0.2 0.6 0.2 0.8l0.1 0.2 0.1 0.2c0.1 0.3 0.1 0.4 0.2 0.6 0.6 2.7 0.9 5.2 1.2 7.8 0.5 5.1 1.2 10.3 1.9 15.4 0.4 2.6 0.7 5.1 1.1 7.6 0.2 1.3 0.4 2.5 0.7 3.8 0.1 0.6 0.3 1.2 0.5 1.9 0.2 0.6 0.4 1.3 0.7 1.7 0.1 0.1 0 0.2 0 0.2h-0.2c-0.5-0.5-0.7-1.1-1-1.7-0.2-0.6-0.5-1.2-0.7-1.8-0.4-1.2-0.7-2.5-1.1-3.8-0.6-2.5-1.2-5-1.8-7.6-1.1-5.1-2-10.2-3-15.2-0.5-2.5-1-5.1-1.4-7.5 0-0.1-0.1-0.3-0.1-0.3v-0.1l-0.1-0.2-0.1-0.3c-0.1-0.4-0.2-0.7-0.2-1-0.1-0.7-0.2-1.3-0.3-2-0.2-1.3-0.3-2.6-0.4-3.9-0.4-5.2-0.7-10.4-0.6-15.6 0-0.1 0.1-0.1 0.2-0.1 0.1-0.2 0.2-0.1 0.2 0z" fill="#3f3e29"/></g><g display="inline"><path d="m134.7 153.3c-2 1.2-4.1 2.3-6.2 3.3s-4.2 2-6.4 2.9c-0.6 0.2-1.1 0.4-1.7 0.6-0.3 0.1-0.6 0.2-1 0.3l-0.5 0.1-0.3 0.1c-0.9 0.3-1.9 0.9-3.2 1.3-1.3 0.5-3 0.5-4.4-0.1l-3.2-1.5 0.4 0.1c-1.4-0.2-2.5-0.6-3.8-0.9-1.2-0.4-2.4-0.7-3.6-1.1-2.3-0.9-4.7-1.7-6.9-2.7-2.3-1-4.5-2.1-6.7-3.2s-4.4-2.3-6.5-3.6c2.4 0.7 4.7 1.5 7.1 2.3l7 2.3c2.3 0.7 4.6 1.5 7 2.2 1.2 0.4 2.3 0.7 3.5 1 1.1 0.3 2.4 0.6 3.4 0.8h0.1c0.1 0 0.3 0.1 0.4 0.1l3 1.5c0.8 0.3 1.5 0.3 2.5 0.1s2-0.8 3.3-1.1c0.2 0 0.3-0.1 0.6-0.1l0.4-0.1c0.2 0 0.5-0.1 0.7-0.2 0.5-0.1 1.1-0.3 1.6-0.4 4.4-1.3 8.9-2.8 13.4-4z" fill="#3f3e29"/></g><path d="m58.4 81.3s5.8 2.5 7.5 4.5-3.8 0.8-5.8 0.2 1.5 2 2.2 2-0.2 1.5-1.8 1.5 0.2 0.8 3.2 1.2c6.4 1.1-1.8 1.2-6.2 1.2-3.2 0-3.8 3.8 3.5 3.5s5.5 2.5 3 3.8-6 3.2-2.5 3.8-1.5 2.2-3.5 2.8 6.7 2.8 10.8 1.5c4.8-1.5 4.2 2.5-6.5 5 0 0-19.7 7.5-46.6 0 0 0-4.2-12.8-2.4-23.9 0 0 21.1-13.8 45.1-7.1z" display="inline" fill="#3f3e29"/><path d="m16.1 126.3s-2.4-0.2-5.9 0c-1.5 0.1 3.2 0.5 4.5 1.5 1.1 0.9 7.2-0.6 5.6 0.5-1.9 1.2-9.1 0-8.6 2.1s37.8 0.5 68-6.2l0.1-6c0.1 0.1-21.2 10.1-63.7 8.1z" display="inline" fill="#3f3e29"/><path d="m35.6 114.8s0.8 11.2 1.8 13" display="inline" fill="none" stroke="#3f3e29" stroke-miterlimit="10"/><path d="m55.2 112.8s1.3 11.2 0.6 13.1" display="inline" fill="none" stroke="#3f3e29" stroke-miterlimit="10"/><g display="inline"><path d="m10.2 195.8c-5.1 0.6-10.2 1.1-15.3 1.4-2.6 0.1-5.1 0.3-7.7 0.2-0.7 0-1.3-0.1-2.1-0.3-0.5-0.2-0.7-0.3-0.8-0.3 0 0 0.1 0 0.3-0.1 0.1-0.1 0.1-0.2 0.2-0.3v-0.1s0 0.1 0.1 0.2c0.4 1 1.2 2.1 1.9 3.1 0.1 0.1 0.1 0.2 0.1 0.2l1.1 16.7-2.2-16.6 0.1 0.3c-0.8-1-1.6-2-2.3-3.3-0.1-0.2-0.2-0.3-0.2-0.7v-0.3c0.1-0.2 0.1-0.3 0.3-0.4 0.3-0.2 0.6-0.2 0.7-0.2 0.6 0.1 0.9 0.3 1 0.3 0.5 0.1 1.1 0.1 1.7 0.1 2.5 0 5-0.4 7.5-0.7 5-0.6 10.1-1.5 15.1-2.4z" fill="#3f3e29"/></g><path d="m-12.9 196.8" display="inline" fill="none" stroke="#3f3e29" stroke-linejoin="round" stroke-miterlimit="10" stroke-width="2"/><path d="m14.1 130.3s-18.2 11.5-21 13.2-6.2 34.8-5 52.8" display="inline" fill="none" stroke="#3f3e29" stroke-linejoin="round" stroke-miterlimit="10" stroke-width="2"/><g display="inline"><path d="m28.6 154.9c3-0.9 6-1.8 9.1-2.5 3-0.7 6.1-1.5 9.2-2.1s6.2-1.2 9.3-1.6c3.1-0.5 6.3-0.7 9.5-0.9 0.8 0 1.5 0.5 1.6 1.3 0.5 3 0.9 6.1 1.3 9.1l1.2 9.1c0.4 3 0.8 6.1 1.1 9.1 0.4 3 0.7 6.1 1 9.1v0.1c0 0.5-0.3 0.9-0.8 1h-0.1c-3.5 0.1-7 0.3-10.5 0.6s-7 0.7-10.4 1.3c-3.5 0.5-6.9 1.2-10.3 2-3.4 0.7-6.8 1.6-10.2 2.4-0.7 0.2-1.4-0.2-1.5-0.9v-0.2-0.1c-0.1-3.1-0.2-6.1-0.2-9.2v-9.2c0-3.1 0.1-6.1 0.2-9.2 0-1.5 0.1-3.1 0.2-4.6s0.1-3.1 0.3-4.6c-0.1 0-0.1 0 0 0zm0.2 0.2c0.2 1.5 0.3 3 0.4 4.4 0.1 1.5 0.3 3.1 0.4 4.6 0.2 3.1 0.4 6.1 0.5 9.2s0.3 6.1 0.3 9.2c0.1 3.1 0.2 6.1 0.1 9.2l-1.6-1.2c3.5-0.7 7-1.2 10.5-1.6l10.5-1.3c3.5-0.4 7-0.9 10.5-1.4s7-1 10.5-1.4l-0.8 1.1c-0.6-3-1.1-6-1.7-9-0.5-3-1-6-1.5-9.1l-1.5-9.1c-0.5-3-0.9-6.1-1.3-9.1l1.6 1.4c-3 0-6.1 0.3-9.2 0.6s-6.2 0.7-9.3 1c-3.1 0.4-6.2 0.8-9.3 1.3z" fill="#3f3e29"/></g><g display="inline" fill="#3f3e29"><circle cx="40" cy="163.3" r="5.7"/><path d="m45 166.1c-0.3 0.7-0.8 1.3-1.4 1.8s-1.2 1-2 1.2c-1.5 0.6-3.2 0.7-4.9 0.1-1.6-0.6-3.1-2-3.8-3.7-0.3-0.9-0.5-1.9-0.4-2.8 0.1-1 0.3-1.9 0.8-2.8 0.4-0.8 1.1-1.6 1.9-2.2s1.7-1 2.6-1.2c1.9-0.4 3.8 0.1 5.2 1.1s2.3 2.5 2.6 4.1c0.2 0.8 0.2 1.6 0.1 2.3 0 0.7-0.3 1.4-0.7 2.1zm-0.1-0.1c0.7-1.3 0.8-2.8 0.4-4.2s-1.4-2.6-2.7-3.3-2.8-0.8-4.2-0.4-2.6 1.4-3.2 2.7c-0.7 1.2-0.9 2.8-0.4 4.2 0.4 1.4 1.4 2.6 2.6 3.3 1.3 0.7 2.8 0.9 4.2 0.4 1.3-0.5 2.6-1.4 3.3-2.7z"/></g><g display="inline"><path d="m46.1 175.7c0.4 0.7 0.6 1.4 0.7 2.2s0.1 1.5-0.1 2.3c-0.3 1.6-1.2 3.1-2.7 4.1-1.4 1-3.4 1.4-5.2 1-0.9-0.2-1.8-0.6-2.6-1.2s-1.4-1.3-1.9-2.3c-0.4-0.8-0.7-1.8-0.7-2.8s0.1-1.9 0.5-2.8c0.7-1.8 2.2-3.1 3.9-3.7 1.6-0.6 3.4-0.5 4.8 0.1 0.7 0.3 1.4 0.7 1.9 1.3 0.6 0.5 1 1.1 1.4 1.8zm-0.2 0.1c-0.7-1.3-1.9-2.3-3.3-2.7s-2.9-0.3-4.2 0.4-2.3 1.9-2.7 3.2c-0.4 1.4-0.3 2.9 0.4 4.2 0.6 1.3 1.8 2.3 3.2 2.7s2.9 0.3 4.2-0.3c1.3-0.7 2.3-1.8 2.7-3.2 0.5-1.5 0.4-3-0.3-4.3z" fill="#3f3e29"/></g><g fill="none" stroke="#3f3e29" stroke-linecap="round" stroke-linejoin="round" stroke-miterlimit="10" stroke-width="2"><line x1="49" x2="61.3" y1="158" y2="156.3" display="inline"/><line x1="50" x2="62.3" y1="163" y2="161.3" display="inline"/><line x1="51" x2="63.3" y1="172" y2="170.3" display="inline"/><line x1="52" x2="64.3" y1="177" y2="175.3" display="inline"/></g><g display="inline"><path d="m118.6 140.3c-0.6 0.2-1.2 0.3-1.8 0.5l-1.8 0.3c-1.2 0.2-2.4 0.4-3.6 0.5 1.1-0.5 2.2-0.9 3.3-1.4 0.5-0.3 1.1-0.5 1.6-0.8l1.5-0.9c0.5-0.3 1.1-0.2 1.4 0.3s0.2 1.1-0.3 1.4c-0.1 0-0.2 0.1-0.3 0.1z" fill="#3f3e29"/></g><g display="inline"><path d="m-6.9 143.6c2.3 0.5 4.5 1.2 6.7 1.8l-0.7 0.2c1.7-2.2 3.6-4.1 5.7-5.9s4.2-3.5 6.6-4.9c2.3-1.4 4.8-2.7 7.5-3.5 2.6-0.8 5.4-1.2 8.1-0.9-5.4 0.7-10.1 3.2-14.5 6-2.2 1.5-4.3 3-6.4 4.7s-4.1 3.5-5.9 5.3l-0.3 0.3-0.4-0.2c-2.2-0.9-4.3-1.8-6.4-2.9z" fill="#3f3e29"/></g><g display="inline"><path d="m96.3 129c-1.6 1.1-3.3 2-5.1 3l-0.1 0.1h-0.3c-2.2-0.3-4.5-0.6-6.7-1l-3.3-0.6-3.3-0.7c-4.4-0.9-8.8-2-13.2-3.4 2.3 0.1 4.5 0.3 6.8 0.5 2.2 0.3 4.5 0.6 6.7 1l3.3 0.6 3.3 0.7c2.2 0.5 4.4 1 6.6 1.5h-0.4c1.9-0.6 3.8-1.2 5.7-1.7z" fill="#3f3e29"/></g><path d="m129.6 135.3" display="inline" fill="none" stroke="#3f3e29" stroke-miterlimit="10" stroke-width="2"/><path d="m137.2 149.4s-1.3-9.1-5.7-14.2" display="inline" fill="none" stroke="#3f3e29" stroke-linecap="round" stroke-miterlimit="10" stroke-width="2"/><g display="inline"><path d="m-7.9 195.8c1.3-0.7 2.6-1.2 3.9-1.5s2.6-0.6 4-0.7c1.3-0.1 2.7-0.1 4-0.1 1.4 0.1 2.7 0.3 4.1 0.8-1.3 0.7-2.6 1.2-3.9 1.5s-2.6 0.6-4 0.7c-1.3 0.1-2.7 0.1-4 0.1-1.3-0.1-2.7-0.3-4.1-0.8z" fill="#3f3e29"/></g><path d="m29.5 192 3.3 2s17.5-3.7 36.9-5l0.8-3.2c-0.1 0-33.5 2.7-41 6.2z" display="inline" fill="#3f3e29"/></g><g transform="translate(0 165.6)" display="none"><g display="inline"><path d="m256.5 123.9c0 0.6 0.4 1.1 0.8 1.5s1 0.7 1.5 1c1.1 0.5 2.3 0.9 3.5 1.2 2.4 0.6 4.8 0.9 7.3 1.2 4.9 0.4 9.8 0.7 14.7 0.8 2.5 0.1 4.9 0.1 7.4 0s4.9-0.2 7.4-0.5c2.4-0.3 4.9-0.8 7.2-1.5 1.2-0.4 2.3-0.8 3.3-1.4 0.5-0.3 1-0.6 1.4-1s0.7-0.9 0.6-1.2c0-0.9-1.1-1.6-2.1-2.1-1.1-0.5-2.2-0.9-3.4-1.2-2.3-0.6-4.7-1-7.1-1.4-4.8-0.6-9.7-0.8-14.6-0.9-4.9 0-9.8 0.2-14.7 0.6-2.4 0.2-4.9 0.6-7.3 1.1-1.2 0.3-2.4 0.7-3.5 1.2-0.5 0.3-1.1 0.6-1.5 1-0.5 0.5-0.9 1-0.9 1.6zm-0.2 0c0-0.7 0.4-1.3 0.9-1.7s1-0.8 1.5-1.1c1.1-0.6 2.3-1.1 3.4-1.5 2.4-0.8 4.8-1.4 7.2-1.9 4.9-1 9.9-1.4 14.9-1.4s10 0.3 14.9 1.1c2.5 0.4 4.9 0.9 7.3 1.7 1.2 0.4 2.4 0.9 3.5 1.5 0.6 0.3 1.1 0.7 1.6 1.2 0.2 0.2 0.5 0.5 0.7 0.9 0.1 0.2 0.2 0.4 0.2 0.6 0.1 0.2 0.1 0.5 0.1 0.6 0 0.9-0.6 1.5-1.1 2-0.5 0.4-1.1 0.8-1.7 1.1-1.2 0.6-2.3 0.9-3.5 1.3-2.4 0.7-4.8 1.1-7.3 1.5-4.9 0.8-9.8 1.4-14.8 1.5s-10-0.2-14.9-1.2c-2.4-0.5-4.9-1.1-7.2-1.9-1.2-0.4-2.3-0.9-3.4-1.5-0.5-0.3-1.1-0.6-1.5-1.1s-0.8-1-0.8-1.7z" fill="#3f3e29"/><ellipse cx="283.8" cy="126.8" rx="20.2" ry="4.4" fill="#3f3e29"/><path d="m313 125.4-7 29.3 4-29.9c0.1-0.8 0.9-1.4 1.7-1.3s1.4 0.9 1.3 1.7v0.2z" fill="#3f3e29"/><path d="m258.3 125.1 3.8 29.3-6.7-28.8c-0.2-0.8 0.3-1.6 1.1-1.8s1.6 0.3 1.8 1.1v0.2z" fill="#3f3e29"/><path d="m262 153.9c0.1 0.5 0.5 0.8 0.9 1s0.8 0.4 1.3 0.5c0.9 0.3 1.8 0.5 2.7 0.6 1.9 0.3 3.8 0.4 5.6 0.6 3.8 0.2 7.6 0.3 11.4 0.3s7.6-0.1 11.4-0.3c1.9-0.1 3.8-0.2 5.7-0.5 0.9-0.1 1.9-0.3 2.7-0.6 0.4-0.1 0.9-0.3 1.3-0.5s0.7-0.5 0.9-1c0.1 0.5-0.1 1.1-0.5 1.5-0.3 0.4-0.7 0.8-1.2 1.1-0.8 0.6-1.8 1.1-2.7 1.5-1.9 0.8-3.8 1.4-5.8 1.8-3.9 0.8-7.9 1.2-11.9 1.2s-7.9-0.4-11.9-1.2c-2-0.4-3.9-1-5.8-1.8-0.9-0.4-1.9-0.9-2.7-1.5-0.4-0.3-0.8-0.7-1.2-1.1 0-0.6-0.3-1.1-0.2-1.6z" fill="#3f3e29"/><path d="m282.9 116.9-2.4-7.9v0.1c-0.5-0.7-1.5-1.4-2.5-1.7-1-0.4-2.1-0.6-3.2-0.7-2.2-0.1-4.5 0-6.4 0.8-0.9 0.4-1.7 1-2 1.6l-0.6 3.2c-0.5 2.2-1.1 4.5-1.8 6.7h-0.2c-0.1-2.3 0-4.6 0.2-6.9l0.2-1.7 0.1-0.9 0.1-0.4v-0.3c0-0.2 0.1-0.3 0.1-0.4 0.3-0.8 0.9-1.3 1.4-1.8 0.6-0.4 1.2-0.7 1.8-0.9 1.2-0.4 2.5-0.5 3.6-0.6 1.2 0 2.4 0 3.6 0.2s2.4 0.5 3.5 1 2.2 1.2 2.9 2.4v0.1z" fill="#3f3e29"/><path d="m279 106.5c-11.3-2.9-22.6-5.9-33.9-9l-16.9-4.7c-5.6-1.6-11.2-3.2-16.8-4.9-11.2-3.3-22.4-6.8-33.6-10.1l-16.8-5.1-4.2-1.2-2.1-0.6c-0.7-0.2-1.3-0.3-2-0.3-1.3-0.1-2.8 0-3.5 0.7s-0.5 2.1 0.1 3.3l-0.3-0.3c9.2 3.5 18.4 6.8 27.6 10l27.9 9.2c9.3 3.2 18.5 6.5 27.6 9.9 9.2 3.4 18.3 6.9 27.4 10.6 0.4 0.2 0.8 0.5 1.1 0.8 0.4 0.3 0.7 0.7 0.9 1 0.5 0.8 0.8 1.7 0.7 2.7h-0.3c0-0.9-0.3-1.7-0.9-2.3l-0.9-0.9c-0.3-0.3-0.7-0.5-1.1-0.7-9.4-2.9-18.7-6-27.9-9.1-9.3-3.2-18.5-6.4-27.7-9.8l-27.4-10.5c-9.2-3.4-18.4-6.7-27.7-9.8l-0.2-0.1-0.1-0.2c-0.4-0.7-0.7-1.4-0.8-2.3-0.1-0.8 0.1-1.9 0.7-2.6s1.5-1.1 2.3-1.2c0.8-0.2 1.6-0.2 2.4-0.2s1.5 0.1 2.3 0.3c0.7 0.2 1.5 0.3 2.2 0.5l4.3 1c5.7 1.4 11.3 3 17 4.5l16.9 4.8c5.6 1.6 11.2 3.2 16.8 4.9 5.6 1.6 11.2 3.4 16.8 5.1l16.7 5.3c11.1 3.5 22.2 7.2 33.3 11z" fill="#3f3e29"/><path d="m280.5 117.6s-1.8-5.4-3-6.7-2.8-1.7-4.8-1.8c-2.7 0-4.3 2.4-4.3 2.4l-1.1 7.3" fill="#3f3e29"/><path d="m310.5 129.1c-0.9 0.9-2.1 1.5-3.2 2.1-1.2 0.5-2.4 1-3.6 1.4-2.5 0.8-5 1.2-7.5 1.5s-5.1 0.4-7.6 0.3-5.1-0.3-7.6-0.7c2.5-0.4 5-0.6 7.5-0.8s5-0.5 7.4-0.7c2.5-0.3 4.9-0.6 7.4-1 2.5-0.6 4.9-1.1 7.2-2.1z" fill="#3f3e29"/><path d="m307.6 133c-0.9 0.8-2 1.3-3 1.8-1.1 0.4-2.2 0.8-3.3 1.1-2.3 0.6-4.6 1-6.9 1.3s-4.6 0.7-6.9 0.6-4.6-0.3-6.9-0.9c-0.1 0-0.1-0.1-0.1-0.1s0-0.1 0.1-0.1c2.3-0.5 4.6-0.7 6.9-0.9s4.6-0.1 6.8-0.2c2.3-0.1 4.5-0.3 6.8-0.7 1.1-0.2 2.2-0.4 3.3-0.7s2.2-0.7 3.1-1.3h0.1c0.1 0 0 0 0 0.1z" fill="#3f3e29"/><path d="m296.3 147.5c-1.3 0.5-2.6 0.8-3.9 1.1s-2.7 0.5-4 0.6c-1.4 0.1-2.7 0.4-4.1 0.2s-2.7-0.5-4-1.2c-0.1 0-0.1-0.1 0-0.1l0.1-0.1c1.4-0.4 2.7-0.5 4-0.6s2.6 0.2 4 0.2h4c1.3 0 2.7-0.1 4-0.3 0.1 0 0.1 0 0.1 0.1-0.1 0-0.1 0.1-0.2 0.1z" fill="#3f3e29"/><path d="m306.9 136.5c-0.8 1-1.9 1.6-2.9 2.1-1.1 0.5-2.2 0.9-3.3 1.2-2.3 0.6-4.6 0.7-7 0.8-2.3 0.1-4.6 0.1-6.9 0.1-2.3-0.1-4.6-0.2-6.9-0.4-0.1 0-0.1-0.1-0.1-0.1 0-0.1 0-0.1 0.1-0.1 2.3-0.1 4.6-0.2 6.9-0.4s4.6-0.4 6.8-0.7c2.3-0.3 4.5-0.8 6.7-1.2s4.5-0.6 6.5-1.5c0 0 0.1 0 0.1 0.2v0z" fill="#3f3e29"/><path d="m307.9 141.9c-0.2 0.6-0.7 1-1.1 1.4-0.5 0.4-0.9 0.7-1.4 0.9-1 0.5-2.1 0.9-3.1 1.2-2.1 0.6-4.3 0.6-6.5 0.7-4.3 0.2-8.6 0-12.9-0.4-0.1 0-0.1-0.1-0.1-0.1 0-0.1 0-0.1 0.1-0.1 2.1-0.1 4.3-0.2 6.4-0.4 2.1-0.1 4.3-0.3 6.4-0.6s4.2-0.8 6.2-1.1c1-0.2 2-0.3 3.1-0.6 1-0.2 2-0.5 2.9-1.1-0.1 0.1-0.1 0.1 0 0.2z" fill="#3f3e29"/><path d="m304.8 140.5c-1.3 0.7-2.7 1.1-4 1.5-1.4 0.4-2.8 0.6-4.2 0.9-2.8 0.4-5.7 0.7-8.5 0.9-2.9 0.2-5.7 0.4-8.6 0.1-2.8-0.2-5.7-0.6-8.5-1.4-0.1 0-0.1-0.1-0.1-0.1s0-0.1 0.1-0.1c2.9-0.3 5.7-0.4 8.5-0.4 2.8-0.1 5.6 0.2 8.5 0.2 2.8 0 5.6 0 8.4-0.3 2.8-0.2 5.6-0.6 8.3-1.5 0.1 0 0.1 0 0.1 0.1 0.1 0 0.1 0.1 0 0.1z" fill="#3f3e29"/><path d="m271.8 103.7c-0.6 0.4-1.1 0.6-1.7 0.8s-1.1 0.3-1.7 0.4-1.1 0.2-1.7 0.2h-1.8l-0.1-0.1c1-0.6 2.3-0.9 3.4-1.1 1.2-0.1 2.4-0.3 3.6-0.2z" fill="#3f3e29"/><path d="m268.8 102.7c-0.6 0.4-1.1 0.6-1.7 0.8s-1.1 0.3-1.7 0.4-1.1 0.2-1.7 0.2h-1.8l-0.1-0.1c1-0.6 2.3-0.9 3.4-1.1 1.2-0.1 2.4-0.3 3.6-0.2z" fill="#3f3e29"/><path d="m151.1 73.2c4.4 1.2 8.8 2.5 13.3 3.8l13.2 3.9c8.8 2.6 17.6 5.4 26.4 8.1 8.8 2.8 17.5 5.6 26.3 8.4l13.1 4.3c4.3 1.5 8.7 2.9 13 4.5-4.4-1.2-8.8-2.5-13.3-3.8l-13.2-3.9c-8.8-2.6-17.6-5.4-26.4-8.1-8.8-2.8-17.5-5.6-26.3-8.4l-13.1-4.3c-4.3-1.5-8.6-3-13-4.5z" fill="#3f3e29"/></g><g display="inline"><path d="m288.6 89.7c1.1-0.4 2.3-0.6 3.5-0.7s2.4-0.1 3.6 0 2.4 0.4 3.6 0.8 2.4 1.1 3.3 2.1l0.5 0.5-0.1 0.8c-0.3 1.5-0.6 3.1-0.9 4.6l-0.2 0.9-0.9 0.2c-0.5 0.1-0.7 0.1-1.1 0.2h-0.9c-0.6 0-1.2 0-1.8-0.1-1.2-0.1-2.4-0.4-3.5-0.7-2.3-0.6-4.4-1.5-6.4-2.6l-0.7-0.4 0.2-0.6c0.3-0.8 0.6-1.7 0.9-2.5 0.2-0.8 0.5-1.7 0.9-2.5zc0 0.9-0.1 1.8-0.1 2.7-0.1 0.9-0.1 1.8-0.2 2.7l-0.5-0.9c2.1 0.6 4.3 1.2 6.4 1.5 1.1 0.2 2.1 0.3 3.2 0.4h1.5 0.7c0.2 0 0.5-0.1 0.6-0.1l-1.1 1.1c0.3-1.5 0.7-3 1.1-4.5l0.3 1.3c-0.6-0.7-1.4-1.3-2.3-1.8s-1.9-0.9-3-1.2c-1-0.3-2.1-0.5-3.3-0.7-1-0.2-2.1-0.4-3.3-0.5z" fill="#3f3e29"/><path d="m289.5 88.5c1.7-9.3 3.7-18.5 5.6-27.8 2-9.2 4.1-18.5 6.2-27.7l3.3-13.8 3.5-13.7c1.2-4.6 2.3-9.2 3.5-13.7l1.8-6.9 1.8-6.8 0.1-0.2 0.1-0.1c0.5-0.5 1-0.9 1.6-1.3 0.6-0.3 1.4-0.5 2.3-0.3 0.8 0.2 1.4 0.8 1.8 1.3 0.4 0.6 0.7 1.1 0.9 1.8l0.1 0.2v0.2c-2 9.3-3.8 18.6-5.4 27.9-1.5 9.4-2.9 18.7-4.4 28.1-0.4 2.3-0.8 4.7-1.2 7s-0.9 4.7-1.3 7c-0.9 4.7-1.8 9.3-2.7 14-1.9 9.3-3.9 18.6-6.1 27.8 0 0.1-0.1 0.1-0.2 0.1s-0.1-0.1-0.1-0.2c1.2-9.4 2.6-18.8 4.2-28.1 0.8-4.7 1.6-9.3 2.4-14 0.4-2.3 0.8-4.7 1.3-7 0.4-2.3 0.9-4.7 1.4-7 1.9-9.3 4-18.5 5.9-27.8s3.5-18.6 4.9-28v0.3c-0.1-0.4-0.4-0.9-0.7-1.3s-0.6-0.6-1-0.7c-0.3 0-0.7 0-1.1 0.3-0.4 0.2-0.8 0.6-1.1 0.9l0.2-0.4-1.5 6.9-1.5 6.9c-1 4.6-2.1 9.2-3.1 13.8l-3.2 13.8-3.3 13.8c-2.3 9.2-4.6 18.3-7 27.5-2.5 9.1-4.9 18.2-7.6 27.3 0 0.1-0.1 0.1-0.2 0.1s-0.2-0.1-0.2-0.2z" fill="#3f3e29"/><path d="m288.2 95.8c-1.5 5.3-1.8 10.6-2.1 16-0.2 2.7-0.4 5.4-0.2 8.1 0.1 1.3 0.3 2.7 0.6 4 0.1 0.7 0.3 1.3 0.6 1.9 0.1 0.3 0.3 0.6 0.4 0.8l0.2 0.2h-0.1 0.1c0.4-0.2 0.8-0.8 1.2-1.3s0.8-1.1 1.1-1.6c0.7-1.1 1.4-2.3 2-3.5 1.2-2.4 2.3-4.8 3.3-7.3 2-5 3.6-10.1 4.7-15.4 0-0.1 0.1-0.1 0.1-0.1l0.1 0.1c0.2 5.5-1 11-2.9 16.2-1 2.6-2.2 5.1-3.7 7.4-0.7 1.2-1.5 2.4-2.3 3.5-0.4 0.6-0.9 1.1-1.4 1.6s-1 1-1.8 1.4c-0.1 0-0.4 0.1-0.4 0.1-0.3 0-0.5-0.1-0.6-0.2-0.2-0.2-0.3-0.4-0.4-0.6-0.2-0.4-0.3-0.7-0.4-1-0.2-0.7-0.3-1.4-0.4-2-0.2-1.4-0.4-2.7-0.6-4.1-0.3-2.7-0.7-5.4-0.8-8.2s0.2-5.5 0.8-8.2 1.4-5.4 2.8-7.8c0 0 0.1-0.1 0.1 0v0z" fill="#3f3e29"/><path d="m296.3 111.5s-2.7-0.3-3.6 2.3c-0.9 2.5-3.9 6.6-4.9 1.3s-1-2.6-2.4-1.9c0 0 0.7 13.5 2.2 14.1-0.1 0 4.8-2.3 8.7-15.8z" fill="#3f3e29" stroke="#3f3e29" stroke-linecap="round" stroke-miterlimit="10"/><g fill="none" stroke="#3f3e29" stroke-linecap="round" stroke-miterlimit="10"><path d="m292.1 86.4s6.1-6.8 7.4-21.2 5-25.9 5-25.9"/><path d="m297.6 59.9s-0.3 18.4-5.9 19.9"/><path d="m295.4 88.5s-0.1-2.4 4.3-6.9 3.9-17.9 4.5-24.9 7.5-24.6 7.5-24.6"/><path d="m307.1 37.8s-2-4.9-0.9-14.5"/><path d="m311.4 33.9s-7.2-7 1.5-11.3"/><path d="m308.7 21.8s1.1-14.8 2.3-20.6"/><path d="m311.2 19.2s2.8-21.6 2.3-27.5"/><path d="m315.3-4.1s0.3-12.6 5-14.6"/></g></g></g><g transform="translate(0 165.6)" display="none"><g display="inline"><path d="m64.2 27.1c1.1-4.6 1.8-9.2 2.5-13.9 0.3-2.3 0.6-4.7 0.8-7s0.4-4.6 0.5-7c0.2-2.6 1.2-5.1 2.8-7.2 1.7-2 3.9-3.5 6.2-4.5s4.8-1.6 7.2-1.9 4.9-0.3 7.3 0c1.2 0.1 2.4 0.4 3.7 0.7 0.6 0.2 1.2 0.4 1.9 0.8 0.2 0.1 0.3 0.2 0.5 0.4l0.3 0.3c0.1 0.1 0.4 0.3 0.6 0.4 1.9 1 4.2 1.6 6.5 2.2 4.5 1.2 9.2 2.1 13.8 2.8l0.9 0.1c0.3 0 0.6 0.1 0.9 0.2 0.6 0.1 1.2 0.3 1.8 0.6 1.1 0.5 2.1 1.2 3 2 1.8 1.6 3.2 3.7 4.3 5.8 2.2 4.3 3.6 8.9 4.5 13.6 0.4 2.4 0.6 4.8 0.4 7.3s-0.8 4.9-1.5 7.1c-0.7 2.3-1.2 4.4-1.2 6.6 0 1.1 0 2.2 0.2 3.3 0.2 1.3 0.2 2.6-0.1 3.9-0.4 2.6-1.8 5.1-3.6 6.9-1.8 1.9-3.9 3.3-6.2 4.4s-4.7 1.8-7.1 2.3c-1.2 0.2-2.5 0.3-3.8 0.3-1.2 0-2.4-0.1-3.6-0.1-4.8-0.3-9.5-0.9-14.2-1.8-2.3-0.4-4.7-1-7-1.6-2.3-0.7-4.6-1.5-6.8-2.7-0.6-0.3-1.1-0.7-1.6-1.1-0.3-0.2-0.5-0.4-0.8-0.7-0.2-0.2-0.4-0.4-0.6-0.7-1-0.9-1.7-1.9-2.4-2.9-1.3-2-2.4-4.1-3.5-6.3l-3.1-6.3c-1.1-2.1-2.2-4.2-3.4-6.2zm0.3 0c2.9 3.7 5.3 7.9 7.6 11.9 1.2 2 2.4 4 3.8 5.9 0.7 0.9 1.4 1.8 2.2 2.6l0.6 0.6c0.2 0.2 0.4 0.3 0.6 0.5 0.4 0.3 0.9 0.6 1.4 0.8 1.9 1 4.2 1.7 6.4 2.2 2.2 0.6 4.5 1 6.8 1.4 4.6 0.7 9.3 1.2 13.9 1.5 1.2 0.1 2.3 0.1 3.5 0.1 1.1 0 2.2-0.1 3.2-0.3 2.2-0.4 4.3-1 6.3-1.9s3.9-2.1 5.4-3.6 2.6-3.4 3-5.4c0.2-1 0.2-2 0.1-3.1-0.1-1.2-0.2-2.5-0.1-3.8 0.1-2.5 0.8-5 1.6-7.2 0.7-2.3 1.4-4.4 1.7-6.6s0.3-4.5 0-6.8-0.8-4.6-1.4-6.8c-0.6-2.3-1.4-4.5-2.4-6.5-1-2.1-2.3-4-4-5.6-0.8-0.8-1.8-1.4-2.8-1.9-0.5-0.2-1-0.4-1.6-0.5-0.5-0.1-1.1-0.2-1.7-0.2-2.4-0.3-4.7-0.6-7-1-2.3-0.3-4.7-0.7-7-1.2s-4.7-0.9-7-2c-0.3-0.1-0.6-0.3-0.9-0.5l-0.2-0.2-0.1-0.1s-0.1-0.1-0.2-0.1c-0.4-0.2-0.9-0.3-1.4-0.5-1.1-0.2-2.2-0.4-3.3-0.5-4.5-0.3-9.2 0.2-13.3 1.9-2 0.8-3.9 2-5.2 3.7-1.4 1.6-2.2 3.6-2.5 5.8-1.1 9.1-2.9 18.5-6 27.4z" fill="#3f3e29"/></g><g display="inline"><path d="m69.5 27.2c1.1-3.9 2-7.9 2.7-11.9 0.8-4 1.3-8.1 1.7-12.1 0.1-1 0.1-2 0.3-3.1 0.1-1.1 0.4-2.1 0.9-3.1 0.9-2 2.6-3.6 4.5-4.6s4-1.5 6.1-1.6c2.1-0.2 4.2-0.1 6.3 0.2 1 0.2 2.1 0.4 3.1 0.7 0.5 0.2 1 0.3 1.5 0.6 0.2 0.1 0.5 0.2 0.7 0.4 0.1 0.1 0.3 0.2 0.4 0.3l0.1 0.1s0.1 0 0.1 0.1c0.7 0.5 1.7 0.7 2.7 1 1 0.2 2 0.4 3 0.5 2 0.3 4 0.5 6.1 0.7 2 0.2 4.1 0.2 6.2 0.4 2.1 0.5 3.9 1.6 5.5 2.9s3 2.9 4.2 4.6c2.3 3.4 3.8 7.4 4.7 11.4 0.4 2 0.6 4.1 0.3 6.2-0.2 2.1-0.8 4.1-1.6 6s-1.7 3.7-2.4 5.6-1.1 3.8-0.9 5.7c0 0.5 0.1 1 0.1 1.5 0 0.6 0 1.1-0.1 1.7-0.2 1.1-0.6 2.2-1.2 3.1-1.3 1.9-3.1 3.1-5 4.1-3.8 1.9-8 2.7-12.2 2.9-2.1 0.1-4.2 0-6.2-0.2-2.1-0.2-4.1-0.4-6.1-0.7-4.1-0.7-8.1-1.5-12-3.1-1-0.4-1.9-0.9-2.8-1.5-0.4-0.3-0.9-0.6-1.3-1.1-0.3-0.4-0.7-0.8-1-1.2-1.3-1.7-2.2-3.6-3-5.5s-1.5-3.8-2.3-5.7c-1-1.7-1.9-3.5-3.1-5.3zm0.2 0c2.5 3.3 4.1 7.1 5.8 10.8 0.9 1.8 1.8 3.6 3.1 5.1 0.3 0.4 0.6 0.7 1 1.1 0.3 0.3 0.7 0.6 1.1 0.9 0.8 0.5 1.7 0.9 2.6 1.3 3.7 1.4 7.8 2.2 11.8 2.7 2 0.3 4 0.5 6 0.7 2 0.1 4.1 0.3 6 0.2 2-0.1 4-0.4 5.9-0.8s3.9-1 5.6-1.9c1.8-0.9 3.4-2 4.5-3.5 0.5-0.8 0.9-1.6 1-2.5 0.1-0.5 0.1-0.9 0.1-1.4 0-0.4-0.1-1-0.1-1.5-0.1-2.2 0.3-4.3 1.1-6.3s1.7-3.8 2.5-5.6 1.4-3.7 1.7-5.7 0.2-4-0.2-6c-0.7-4-2.1-7.9-4.4-11.2-1.1-1.7-2.5-3.2-4-4.5-1.6-1.3-3.4-2.3-5.3-2.8-4-0.3-8.2-0.3-12.2-0.8-1-0.1-2-0.2-3.1-0.4-1-0.2-2-0.4-3.1-1-0.1 0-0.1-0.1-0.2-0.1l0.1-0.2-0.2-0.2-0.6-0.3c-0.4-0.2-0.9-0.3-1.4-0.5-1-0.3-1.9-0.4-2.9-0.6-2-0.3-4-0.3-6-0.2-2 0.2-3.9 0.6-5.7 1.5-1.7 0.9-3.2 2.2-4 3.9-0.4 0.9-0.7 1.8-0.8 2.7l-0.3 3c-1 8.4-2.8 16.4-5.4 24.1z" fill="#3f3e29"/></g><g display="inline"><path d="m108.5 22.2c-0.2 2.2-1.2 4.3-2.8 5.8s-3.9 2.4-6.3 2.2c-2.3-0.2-4.5-1.3-6-3.1s-2.3-4.1-2.2-6.6c0.1-2.3 1.2-4.7 3-6.3s4.4-2.5 6.8-2.1c1.2 0.2 2.4 0.6 3.4 1.2 1 0.7 1.8 1.5 2.5 2.5 1.3 1.9 1.8 4.2 1.6 6.4zm-0.2 0c0.1-1.1-0.1-2.2-0.5-3.1-0.4-1-1-1.9-1.7-2.6-1.5-1.5-3.4-2.2-5.3-2.4-1.9-0.1-3.8 0.4-5.3 1.6s-2.5 3-2.7 5c-0.2 1.9 0.4 4 1.6 5.6s3.1 2.7 5.1 3 4.2-0.2 5.9-1.5c0.8-0.7 1.5-1.5 2-2.4 0.5-1.1 0.8-2.1 0.9-3.2z" fill="#3f3e29"/></g><g display="inline"><path d="m90.6-16.5c6.5-1.4 13.2-2.2 19.9-2.7 3.3-0.2 6.7-0.4 10.1-0.4s6.7 0.1 10.1 0.4 6.7 0.8 10 1.5c3.3 0.8 6.5 1.5 9.8 2s6.6 0.8 9.9 0.6c1.6-0.1 3.3-0.2 4.9-0.6 0.8-0.2 1.6-0.4 2.3-0.7s1.5-0.6 2-1.1c0 0 0.1 0 0.1-0.1 0.7-0.3 1.5-0.4 2.3-0.5 0.8 0 1.6 0.2 2.3 0.7s1.2 1.2 1.5 1.9 0.5 1.5 0.5 2.2c0.2 1.3 0.7 2.5 1.6 2.8 0.9 0.4 2.2 0.1 3.2-0.5 0.1-0.1 0.3-0.1 0.5-0.1 0.7 0 1.2 0.1 1.8 0.5 0.6 0.3 1.2 0.9 1.4 1.6s0.2 1.4 0 2c-0.1 0.6-0.3 1.1-0.6 1.5-0.5 0.9-1 1.8-1.6 2.5-0.6 0.8-1.1 1.4-1.6 2.2-2 3-3.9 6.2-5.7 9.4-3.6 6.5-7 13.1-10.8 19.6-0.9 1.6-2.1 3.3-3.3 4.7-1.2 1.5-2.5 2.9-3.9 4.2-2.8 2.6-5.7 5-8.8 7.1-3.1 2.2-6.4 4-9.8 5.7-1.7 0.8-3.4 1.6-5.2 2.2s-3.6 1.2-5.4 1.6c-0.1 0-0.2 0-0.2-0.1s0-0.1 0.1-0.2c3.5-1.3 6.8-3 9.9-4.9 3.2-1.9 6.2-4 9.1-6.3s5.7-4.7 8.2-7.3c1.3-1.3 2.5-2.6 3.6-4.1 1.1-1.4 2.1-2.8 3-4.4 3.8-6.4 7.3-12.9 11.1-19.3 1.9-3.2 3.9-6.4 6.2-9.5 0.6-0.7 1.2-1.5 1.8-2.2s1.1-1.4 1.5-2.1 0.6-1.5 0.5-1.8c0-0.2-0.1-0.3-0.4-0.5-0.2-0.1-0.6-0.3-0.9-0.3l0.5-0.1c-0.8 0.4-1.5 0.6-2.3 0.7s-1.7 0-2.5-0.4-1.4-1.2-1.7-1.9c-0.3-0.8-0.5-1.5-0.5-2.3-0.1-1.3-0.4-2.6-1.3-3.3s-2.3-0.7-3.4-0.2l0.1-0.1c-0.8 0.6-1.6 0.9-2.4 1.2s-1.6 0.5-2.5 0.7c-1.7 0.3-3.3 0.5-5 0.6-3.4 0.2-6.7 0-10.1-0.3-1.7-0.1-3.3-0.3-5-0.6-1.7-0.2-3.3-0.5-4.9-0.7-3.3-0.4-6.6-0.7-9.8-0.9-6.6-0.4-13.2-0.5-19.8-0.4s-13.3 0.4-19.9 0.8c-0.1 0-0.2-0.1-0.2-0.1-0.4 0.2-0.3 0.1-0.3 0.1z" fill="#3f3e29"/></g><g display="inline"><path d="m176.7-18.4c0.4-0.8 0.7-1.6 1.1-2.3v0.2c-0.5-1.1-0.9-2.2-1.1-3.4s-0.1-2.4 0.2-3.7c0.2-0.6 0.4-1.2 0.8-1.7 0.1-0.2 0.3-0.5 0.5-0.8 0.2-0.2 0.4-0.5 0.6-0.7 0.9-0.9 2.1-1.6 3.5-1.7 0.7-0.1 1.4 0 2.1 0.4 0.7 0.3 1.2 0.8 1.7 1.4 0.8 1.1 1.1 2.5 1.3 3.7 0.1 1.1 0.4 2.1 0.9 2.9s1.2 1.2 2.1 1.4c0.5 0.1 1 0.1 1.5 0.1s1.1 0 1.9 0.1c1.3 0.3 2.5 0.8 3.5 1.6 0.5 0.4 1 1 1.3 1.8s0.1 1.8-0.4 2.4c-0.9 1.2-2 1.8-3.1 2.3s-2.2 1-3.4 1.2c-0.6 0.1-1.3 0.1-2-0.1-0.3-0.1-0.6-0.3-0.9-0.4-0.2-0.1-0.4-0.2-0.6-0.2-0.4 0-1 0.2-1.5 0.4s-1 0.5-1.5 0.8c-1 0.6-2 1.2-2.9 1.8 0.8-0.8 1.7-1.6 2.6-2.3 0.5-0.4 0.9-0.7 1.5-1 0.5-0.3 1.1-0.6 1.8-0.7 0.4 0 0.8 0.1 1.1 0.2s0.5 0.2 0.7 0.3c0.4 0.1 0.9 0.1 1.4-0.1 1-0.3 2-0.8 3-1.3 0.9-0.5 1.9-1.2 2.3-1.9 0.2-0.4 0.2-0.6 0.1-0.9s-0.4-0.6-0.8-0.9c-0.8-0.6-1.8-1-2.7-1.2-0.4-0.1-0.9 0-1.6 0-0.6 0-1.2 0-1.9-0.1s-1.4-0.4-2-0.8-1.1-1-1.5-1.6c-0.7-1.2-1-2.5-1.1-3.7-0.1-1.1-0.3-2.1-0.8-2.8s-1.3-1.2-2.2-1.1c-1.9 0.1-3.7 1.8-4.4 3.7-0.8 2-0.6 4.4 0.1 6.5v0.1l-0.1 0.1c-0.1 0.6-0.6 1.3-1.1 2z" fill="#3f3e29"/></g><g display="inline"><path d="m136.6 8.8c2.7-1.8 5.5-3.2 8.3-4.6s5.8-2.4 8.7-3.6l8.8-3.5 8.8-3.4 0.1 0.2-8.5 4.2-8.5 3.9c-2.8 1.3-5.6 2.8-8.6 4-2.9 1.1-5.9 2.2-9 3z" fill="#3f3e29"/></g><g display="inline"><path d="m140.1 32.6c2.7-1.9 5.3-4.1 7.8-6.2 2.5-2.2 5.1-4.2 7.6-6.5s4.8-4.6 7.2-7c2.3-2.4 4.6-4.9 6.8-7.4l0.2 0.1c-2 2.7-4.1 5.3-6.2 7.9-2.2 2.6-4.4 5.1-6.8 7.5s-4.7 4.9-7.5 6.9c-1.4 1-2.8 2-4.3 2.8s-3 1.6-4.7 2.1z" fill="#3f3e29"/></g><g display="inline"><path d="m123.6-11.4c2.6-0.2 5.1 0 7.6 0.3 2.5 0.2 5 0.9 7.5 1.3s5 0.7 7.5 0.8 5 0 7.6 0v0.2c-2.5 0.3-5 0.6-7.6 0.8-2.6 0.1-5.1 0-7.7-0.2-2.5-0.2-5.1-0.3-7.6-0.9-2.5-0.5-4.9-1.1-7.4-2z" fill="#3f3e29"/></g><g display="inline"><path d="m126.6-14.8c4.9 2.2 9.3 5.3 13.2 9.1 3.9 3.7 7.1 8.2 9.3 13.2 1 2.5 1.8 5.2 2.2 7.8 0.4 2.7 0.5 5.4 0.3 8.1-0.5 5.4-2.2 10.6-4.8 15.2 1.8-5 3.1-10.1 3.3-15.3s-0.8-10.4-2.8-15.1c-2-4.8-5-9.1-8.5-12.9-3.7-3.8-7.8-7.2-12.2-10.1z" fill="#3f3e29"/></g><g display="inline"><path d="m153.7-3.5c1.9 1.5 3.5 3.3 4.8 5.2 1.4 2 2.5 4.1 3.3 6.4s1.2 4.8 1 7.2-1 4.9-2.4 6.8c0.7-2.3 1-4.5 0.8-6.8-0.1-2.2-0.6-4.4-1.4-6.6-0.7-2.1-1.7-4.2-2.7-6.2-0.9-2-2.1-4-3.4-6z" fill="#3f3e29"/></g></g><g transform="translate(0 165.6)"><path d="m55.7 73.8s-4.3 10.4 11.9 11.6c0 0 2.4 8.1-1.4 13.1 0 0-17.1-1.9-15.7-15.8 0 0 2.8-8.5 5.2-8.9z" display="none" fill="#ef4135"/><g display="none"><g display="inline"><path d="m152.6 125.9c2.3-0.4 3.5-0.8 5-1.9v-21.9c0-3.8-1.4-4.9-5.3-5l0.2-2.3c3.3-0.6 6.5-1.7 9.4-2.6l1.3 0.7 0.6 4c0.5-0.6 4-4.7 9.1-4.7 4.5 0 7.8 1.6 9.8 5 2.5-2.5 5.8-5 10-5 6.1 0 11.5 3.1 11.5 11.5v20.3c0.9 0.7 3.1 1.6 5.3 2.1l-0.3 2.6h-16.8l0.2-2.6c1.9-0.3 3.6-1 5-2.1v-20.4c0-5.3-1.9-7.6-5.8-7.6-3.6 0-6.9 3.3-7.7 6v22c0.9 0.7 3.1 1.6 5.3 2.1l-0.3 2.6h-16.8l0.2-2.6c1.9-0.3 3.6-1 5-2.1v-20.4c0-5.3-1.9-7.6-5.7-7.6-3.6 0-6.9 3.3-7.7 6v22c1.3 0.9 3.1 1.6 5.3 2.1l-0.3 2.6h-16.9z" fill="#ecdfa7"/></g></g><path transform="translate(0 -165.6)" d="m78.42 33.293c-12.047-0.30159-26.924 5.998-26.924 5.998l49.195 99.791-26.086 111.52c23.81 20.134 50.07 10.504 50.07 10.504l12.084-86.297c1.5265 1.4457 3.1457 2.7704 4.7773 3.9941 5.244 3.7145 10.925 6.5533 16.605 8.7383 5.681 2.185 11.583 3.9332 17.482 5.2441 3.933 0.87399 7.6452 1.5298 11.578 1.9668-1.748 3.933-2.8396 8.0834-2.6211 12.672 0 0.437 0.21927 0.8733 0.65625 1.0918h0.2168c4.1514 2.185 8.5212 3.9348 13.328 5.0274 4.5885 0.87398 9.6149 1.3117 14.422 0.65624 5.0255-0.65549 10.051-2.6229 13.984-5.9004 3.933-3.2775 6.7735-7.6478 8.5215-12.236l0.21875-0.21875v-0.2168l0.65625-5.8984v-0.2207c2.185-1.311 4.3697-2.6212 6.5547-4.3691 2.622-2.185 5.0255-4.5895 6.7734-7.6484 1.748-3.059 2.8396-6.7738 2.6211-10.488-0.21851-3.496-1.531-6.9899-3.0606-10.049-1.5295-3.059-3.4947-5.9014-5.6797-8.5234-4.37-5.0255-9.6139-9.1756-15.295-12.453-5.4625-3.496-11.581-6.3382-17.699-8.3047l-2.4043-0.65625-1.9629-0.6543c-1.311-0.437-2.4056-1.0923-3.498-1.5293-2.185-1.311-3.7161-2.6231-4.8086-4.3711-2.185-3.2775-2.403-8.301-1.3105-13.545 0.21849-1.311 0.65675-2.6226 1.0938-3.9336 0.43695-1.311 0.87353-2.6228 1.3105-4.1523 0.31379-1.4121 0.50914-2.8289 0.59766-4.4023l29.203-25.553c-2.276-8.4036-27.488-17.158-27.488-17.158l-74.932 63.727-43.242-81.584c-1.5538-0.35014-3.2185-0.52722-4.9395-0.57031zm107.68 73.141c-0.44835 2.3354-0.64648 4.7949-0.64648 7.2578 0.21849 3.7145 1.3114 7.8692 3.7148 11.365 2.4035 3.496 5.6796 6.117 8.957 7.6465 1.748 0.87397 3.4979 1.5298 5.0274 1.9668l2.623 0.6543 2.1836 0.4375c5.681 1.5295 11.142 3.7142 16.168 6.5547 5.0254 2.8405 9.8326 6.3366 13.766 10.27 3.933 3.933 6.9927 8.9589 7.4297 13.984 0.21851 3.496-0.22003 6.1178-1.3125 8.3027-1.0925 2.4035-2.8402 4.5882-4.8066 6.5547-0.87401 0.87399-1.9659 1.7469-2.8398 2.4024 0-1.9665-0.2173-3.932-0.65429-5.8984-0.21851-1.0925-0.438-1.9661-0.875-3.0586-0.43699-0.87399-0.87234-1.9656-1.9648-2.6211-0.2185 0-0.43945-9.9e-4 -0.43945 0.2168-1.311 3.2775-3.495 6.1194-5.8984 8.0859-2.4035 1.9665-5.4625 2.8401-8.5215 3.0586-3.059 0.21851-6.3378-0.43656-9.6152-1.3106-3.2775-0.874-6.5526-1.968-9.8301-3.0605l-0.43946-0.21875c-0.6555-0.2185-1.5259 2e-3 -1.9629 0.43945-1.748 2.185-3.0604 4.149-4.5898 6.334-1.0925 1.748-1.9658 3.2794-2.8398 5.0273-3.933-1.5295-7.6491-2.8416-11.582-4.3711-5.4625-2.185-10.926-4.3682-15.951-6.9902-5.244-2.4035-10.267-5.246-14.637-8.5234-3.1508-2.3631-6.0624-4.8454-8.1855-7.6816l2.4043-17.172z" fill="#f4511e"/></g></svg>
