<?xml version="1.0" encoding="UTF-8" standalone="no"?>
<!-- Generator: Adobe Illustrator 18.0.0, SVG Export Plug-In . SVG Version: 6.00 Build 0)  -->

<svg
   xmlns:dc="http://purl.org/dc/elements/1.1/"
   xmlns:cc="http://creativecommons.org/ns#"
   xmlns:rdf="http://www.w3.org/1999/02/22-rdf-syntax-ns#"
   xmlns:svg="http://www.w3.org/2000/svg"
   xmlns="http://www.w3.org/2000/svg"
   xmlns:sodipodi="http://sodipodi.sourceforge.net/DTD/sodipodi-0.dtd"
   xmlns:inkscape="http://www.inkscape.org/namespaces/inkscape"
   version="1.1"
   id="Layer_1"
   x="0px"
   y="0px"
   width="300"
   height="300"
   viewBox="0 0 300 300.00001"
   enable-background="new 0 0 320.5 134.4"
   xml:space="preserve"
   sodipodi:docname="haml.svg"
   inkscape:version="0.92.1 r15371"><metadata
   id="metadata317"><rdf:RDF><cc:Work
       rdf:about=""><dc:format>image/svg+xml</dc:format><dc:type
         rdf:resource="http://purl.org/dc/dcmitype/StillImage" /><dc:title></dc:title></cc:Work></rdf:RDF></metadata><defs
   id="defs315" /><sodipodi:namedview
   pagecolor="#ffffff"
   bordercolor="#666666"
   borderopacity="1"
   objecttolerance="10"
   gridtolerance="10"
   guidetolerance="10"
   inkscape:pageopacity="0"
   inkscape:pageshadow="2"
   inkscape:window-width="1366"
   inkscape:window-height="705"
   id="namedview313"
   showgrid="false"
   inkscape:zoom="1.4142136"
   inkscape:cx="235.1254"
   inkscape:cy="144.03704"
   inkscape:window-x="-8"
   inkscape:window-y="-8"
   inkscape:window-maximized="1"
   inkscape:current-layer="Layer_5" />
<g
   id="Layer_1_1_"
   display="none"
   style="display:none"
   transform="translate(0,165.60001)">
	<path
   display="inline"
   stroke-miterlimit="10"
   d="m 10.2,121.7 -4,-29 c 0,0 -2,-10.3 5.7,-16.4 7.8,-6 20.7,-12.4 25,-13.8 4.3,-1.4 6,-1.7 9.8,-0.3 3.8,1.4 17.2,7.8 20.1,9.5 2.9,1.7 5.5,3.4 6.9,13.8 1.4,10.3 4,33 4,33"
   id="path2"
   inkscape:connector-curvature="0"
   style="display:inline;fill:none;stroke:#3f3e29;stroke-width:2;stroke-linecap:round;stroke-miterlimit:10" />
	<path
   display="inline"
   stroke-miterlimit="10"
   d="m 13.3,88.4 c 0,0 25,-17.5 55.4,-3.8 0,0 3,11.3 2.7,24.2 0,0 -20.4,12.4 -55.6,3.5 0,0 -3.5,-6.4 -2.5,-23.9 z"
   id="path4"
   inkscape:connector-curvature="0"
   style="display:inline;fill:none;stroke:#3f3e29;stroke-width:2;stroke-miterlimit:10" />
	<g
   display="inline"
   id="g18"
   style="display:inline">
		<g
   id="g8">
			<path
   d="m -16.5,64.7 c 0.5,0.6 0.9,1.1 1.3,1.7 l 0.9,1.9 1.7,3.9 1.7,3.9 0.9,1.9 c 0.1,0.7 0.3,1.4 0.4,2.1 -0.5,-0.6 -0.9,-1.2 -1.3,-1.7 l -0.9,-1.9 -1.7,-3.9 -1.7,-3.9 -0.9,-1.9 c -0.2,-0.6 -0.3,-1.4 -0.4,-2.1 z"
   id="path6"
   inkscape:connector-curvature="0"
   style="fill:#3f3e29" />
		</g>
		<g
   id="g12">
			<path
   d="m -14,77.9 c -0.1,-0.5 -0.1,-1 0,-1.5 l 0.4,-1.3 0.9,-2.6 0.9,-2.6 0.4,-1.3 c 0.3,-0.4 0.6,-0.8 0.9,-1.1 0,0.5 0,1 0,1.5 l -0.4,1.3 -0.9,2.6 -0.9,2.6 -0.4,1.3 c -0.2,0.4 -0.5,0.8 -0.9,1.1 z"
   id="path10"
   inkscape:connector-curvature="0"
   style="fill:#3f3e29" />
		</g>
		<g
   id="g16">
			<path
   d="m -3.3,72.2 c -0.4,0.3 -0.7,0.4 -1.1,0.6 l -1.2,0.2 -2.3,0.3 -2.3,0.3 -1.1,0.1 c -0.4,-0.1 -0.8,-0.2 -1.2,-0.4 0.4,-0.2 0.7,-0.4 1.1,-0.6 l 1.1,-0.1 2.3,-0.3 2.3,-0.3 1.1,-0.1 c 0.5,0 0.9,0.1 1.3,0.3 z"
   id="path14"
   inkscape:connector-curvature="0"
   style="fill:#3f3e29" />
		</g>
	</g>
	<g
   display="inline"
   id="g32"
   style="display:inline">
		<g
   id="g22">
			<path
   d="m 130.2,111.4 c -0.4,-0.7 -0.7,-1.4 -1,-2.2 l -0.5,-2.3 -0.9,-4.5 -0.9,-4.5 -0.5,-2.3 c 0,-0.8 0,-1.6 0,-2.4 0.4,0.7 0.6,1.4 1,2.2 l 0.5,2.3 0.9,4.5 0.9,4.5 0.5,2.3 c 0.1,0.9 0.1,1.6 0,2.4 z"
   id="path20"
   inkscape:connector-curvature="0"
   style="fill:#3f3e29" />
		</g>
		<g
   id="g26">
			<path
   d="m 123.9,100.8 c 0.6,0.1 1.1,0.2 1.6,0.3 l 1.4,0.7 2.8,1.4 2.8,1.4 1.4,0.7 c 0.4,0.4 0.8,0.7 1.2,1.2 -0.6,-0.1 -1.1,-0.2 -1.6,-0.3 l -1.4,-0.7 -2.8,-1.4 -2.8,-1.4 -1.4,-0.7 c -0.4,-0.4 -0.8,-0.8 -1.2,-1.2 z"
   id="path24"
   inkscape:connector-curvature="0"
   style="fill:#3f3e29" />
		</g>
		<g
   id="g30">
			<path
   d="m 125.4,108.6 c 0,-0.4 0,-0.7 0.1,-1.1 l 0.5,-0.8 1,-1.7 1,-1.7 0.5,-0.8 c 0.3,-0.2 0.6,-0.4 0.9,-0.6 0,0.4 0,0.7 -0.1,1.1 l -0.5,0.8 -1,1.7 -1,1.7 -0.5,0.8 c -0.3,0.2 -0.6,0.4 -0.9,0.6 z"
   id="path28"
   inkscape:connector-curvature="0"
   style="fill:#3f3e29" />
		</g>
	</g>
	
		<path
   display="inline"
   stroke-miterlimit="10"
   d="m 9,126 c 0,0 41.5,4 70.8,-7.8 l -0.1,6 c 0,0 -37.6,7.8 -69.5,6.6 l -1.1,-2.3"
   id="path34"
   inkscape:connector-curvature="0"
   style="display:inline;fill:none;stroke:#3f3e29;stroke-width:1.5;stroke-linecap:round;stroke-linejoin:round;stroke-miterlimit:10" />
	<g
   display="inline"
   id="g38"
   style="display:inline">
		<path
   d="m 130.5,129 c 2.1,0.5 4.1,1 6.2,1.5 l -1,0.5 0.2,-1.4 c 0,-0.2 0.1,-0.3 0.3,-0.4 l 0.2,-0.1 c 1.3,-0.9 2.7,-1.5 4.1,-2.3 l 4.2,-2.1 4.2,-2.1 2.1,-1 c 0.7,-0.3 1.4,-0.7 2.3,-1 0.3,-0.1 0.7,0 0.9,0.2 v 0 l 1.2,1 -1.5,0.3 1.5,-3.1 c 0.1,-0.3 0.4,-0.5 0.7,-0.5 v 0 c 1.3,-0.2 2.6,-0.7 3.7,-1.3 0.6,-0.3 1,-0.7 1.5,-1.1 0.5,-0.5 0.9,-1 1.4,-1.6 0.9,-1.1 1.7,-2.2 2.4,-3.4 0.3,-0.6 0.7,-1.2 0.9,-1.8 0.2,-0.6 0.4,-1.3 0.4,-1.5 0,-0.1 0,-0.3 0,-0.4 v 0 c 0.1,-0.3 0.1,-0.7 0.2,-1.1 0,-0.4 0,-0.7 0,-1.1 0,-0.7 -0.2,-1.3 -0.6,-1.6 v 0 c -0.3,-0.3 -0.4,-0.6 -0.3,-1 0.1,-0.4 0.3,-0.7 0.5,-1 0.2,-0.3 0.5,-0.6 0.9,-0.8 0.8,-0.5 1.8,-0.4 2.4,-0.1 0.7,0.3 1.2,0.6 1.7,1 0.5,0.4 0.9,0.8 1.3,1.2 v 0 c 0.1,0.1 0.1,0.1 0.1,0.2 0.1,0.3 0.1,0.3 0.2,0.5 l 0.1,0.4 c 0.1,0.2 0.1,0.5 0.1,0.7 0,0.5 0,0.9 0,1.4 -0.1,0.9 -0.2,1.8 -0.4,2.7 -0.3,1.7 -0.8,3.4 -1.4,5.1 0.1,-1.7 0.2,-3.5 0.2,-5.2 0,-0.9 -0.1,-1.7 -0.2,-2.5 -0.1,-0.4 -0.1,-0.8 -0.2,-1.2 l -0.1,-0.6 c 0,-0.1 0,-0.2 -0.1,-0.2 0,-0.1 -0.1,-0.2 0,-0.1 l 0.1,0.2 c -0.7,-0.7 -1.5,-1.5 -2.2,-1.7 -0.4,-0.1 -0.6,-0.1 -0.7,0 -0.2,0.1 -0.4,0.4 -0.5,0.7 l -0.3,-1 c 0.4,0.4 0.7,0.9 0.9,1.4 0.2,0.5 0.3,1 0.3,1.5 0,0.5 0,0.9 0,1.4 0,0.5 -0.1,0.9 -0.2,1.4 v -0.4 c 0.1,0.6 0,1.1 -0.1,1.5 -0.1,0.4 -0.2,0.8 -0.4,1.2 -0.3,0.7 -0.7,1.4 -1,2.1 -0.8,1.3 -1.6,2.5 -2.5,3.7 -0.5,0.6 -0.9,1.2 -1.5,1.7 -0.5,0.6 -1.2,1.1 -1.9,1.5 -1.4,0.8 -2.8,1.2 -4.4,1.5 l 0.7,-0.5 -1.5,3.1 c -0.2,0.5 -0.8,0.7 -1.3,0.5 -0.1,0 -0.1,-0.1 -0.2,-0.1 l -1.2,-1 0.9,0.2 c -0.6,0.2 -1.3,0.6 -2,0.9 l -2.1,1 -4.2,2.1 -4.2,2.1 c -1.4,0.7 -2.7,1.5 -4.2,2 l 0.4,-0.6 -0.5,1.4 v 0.1 c -0.1,0.3 -0.5,0.5 -0.8,0.4 0,0 -0.1,0 -0.1,0 -1.9,-1.5 -3.7,-2.4 -5.6,-3.4 z"
   id="path36"
   inkscape:connector-curvature="0"
   style="fill:#3f3e29" />
	</g>
	
		<path
   display="inline"
   stroke-miterlimit="10"
   d="m 131.2,131.6 c 0,0 7.7,11.8 7.6,23.3 l 19.9,-12.3 c 0,0 2.1,-1.5 3.1,-2.9 0,0 2.3,-0.3 2.5,-1.4 0,0 11.4,-0.7 13.5,-4.8 l 5.1,-3.6"
   id="path40"
   inkscape:connector-curvature="0"
   style="display:inline;fill:none;stroke:#3f3e29;stroke-width:2;stroke-linecap:round;stroke-linejoin:round;stroke-miterlimit:10" />
	<g
   display="inline"
   id="g44"
   style="display:inline">
		<path
   d="m 174.8,128 c -0.8,-0.3 -1.5,-1.1 -1.7,-2 -0.2,-1 0.2,-1.9 0.7,-2.6 l 0.1,-0.1 0.2,-0.1 c 1.8,-0.8 3.5,-1.6 5.3,-2.3 1.8,-0.7 3.7,-1.3 5.5,-1.9 l 0.4,-0.1 0.1,0.3 c 0.3,0.7 0.5,1.3 0.6,2 0.1,0.7 0.3,1.4 0.1,2.1 -0.1,0.4 -0.3,0.8 -0.6,1 -0.3,0.2 -0.6,0.4 -0.9,0.5 -0.6,0.3 -1.2,0.6 -1.9,0.9 -2.5,1.1 -5.1,2.1 -7.7,3 l 0.5,-0.6 c 0,0.3 0,0.6 0,0.9 0,0.3 0.1,0.6 0.2,0.9 0.2,0.6 0.5,1 0.9,1.2 l -0.7,-0.1 c 1.6,-0.6 3.2,-1.1 4.8,-1.6 1.6,-0.5 3.2,-1 4.8,-1.4 l -0.3,0.2 c 0.1,-0.2 0.2,-0.6 0.3,-0.9 0,-0.3 0,-0.7 0,-1 -0.1,-0.7 -0.5,-1.3 -1,-1.9 l 0.1,-0.1 c 0.7,0.4 1.2,1 1.5,1.8 0.2,0.4 0.2,0.8 0.2,1.2 0,0.4 0,0.8 -0.2,1.3 l -0.1,0.2 -0.2,0.1 c -1.5,0.7 -3.1,1.3 -4.7,1.9 -1.6,0.6 -3.1,1.2 -4.7,1.7 l -0.4,0.1 -0.3,-0.2 c -0.4,-0.2 -0.8,-0.6 -1,-1 -0.2,-0.4 -0.4,-0.8 -0.5,-1.2 -0.1,-0.4 -0.2,-0.8 -0.2,-1.2 0,-0.4 0,-0.8 0,-1.2 l 0.1,-0.5 0.5,-0.1 3.9,-1.1 c 1.3,-0.4 2.6,-0.7 3.9,-1.1 0.6,-0.2 1.3,-0.4 1.9,-0.7 0.3,-0.1 0.6,-0.3 0.9,-0.5 0.3,-0.2 0.4,-0.4 0.5,-0.7 0.1,-0.6 0,-1.3 -0.2,-1.9 -0.2,-0.6 -0.5,-1.2 -0.8,-1.8 l 0.5,0.2 c -1.7,0.8 -3.5,1.7 -5.3,2.5 -1.8,0.7 -3.6,1.4 -5.4,2 l 0.2,-0.2 c -0.5,0.6 -0.8,1.3 -0.8,2 0,0.7 0.4,1.4 1.1,1.9 z"
   id="path42"
   inkscape:connector-curvature="0"
   style="fill:#3f3e29" />
	</g>
	<g
   display="inline"
   id="g48"
   style="display:inline">
		<path
   d="m 185.1,119.5 c 0.1,-1 0.2,-1.9 0,-2.8 -0.1,-0.4 -0.2,-0.8 -0.3,-1.1 -0.2,-0.3 -0.4,-0.5 -0.7,-0.7 h 0.5 c -0.9,0.3 -1.9,0.4 -2.8,0.7 -0.9,0.3 -1.8,0.8 -2.6,1.3 -0.8,0.5 -1.7,1 -2.6,1.4 -0.9,0.4 -1.8,0.8 -2.7,1.2 l 0.4,-0.3 c -0.2,0.3 -0.3,0.7 -0.5,1.1 -0.1,0.4 -0.2,0.8 -0.2,1.2 0,0.4 0.1,0.8 0.2,1.2 0.1,0.4 0.4,0.8 0.7,1.1 l -0.1,0.1 c -0.5,-0.2 -0.9,-0.4 -1.2,-0.8 -0.4,-0.4 -0.6,-0.9 -0.7,-1.4 -0.1,-0.5 -0.1,-1.1 0,-1.6 0.1,-0.5 0.2,-1 0.5,-1.5 l 0.1,-0.2 0.3,-0.1 c 0.9,-0.4 1.8,-0.7 2.7,-1 0.9,-0.3 1.8,-0.6 2.8,-0.8 1,-0.2 1.9,-0.5 2.8,-0.9 0.9,-0.4 1.7,-1 2.6,-1.5 l 0.2,-0.1 0.3,0.1 c 0.5,0.2 1.1,0.7 1.3,1.2 0.3,0.6 0.4,1.1 0.3,1.7 0,0.5 -0.1,1.1 -0.3,1.5 -0.2,0.5 -0.4,0.9 -0.7,1.3 z"
   id="path46"
   inkscape:connector-curvature="0"
   style="fill:#3f3e29" />
	</g>
	<g
   display="inline"
   id="g52"
   style="display:inline">
		<path
   d="m 184.1,114.2 c -0.2,-0.8 -0.4,-1.6 -0.7,-2.2 -0.2,-0.3 -0.4,-0.6 -0.6,-0.8 -0.2,-0.2 -0.5,-0.4 -0.7,-0.5 h 0.5 c -0.8,0.3 -1.7,0.4 -2.5,0.7 -0.8,0.3 -1.5,0.7 -2.2,1.1 -0.7,0.5 -1.4,0.9 -2.2,1.3 -0.7,0.4 -1.5,0.8 -2.3,1.1 l 0.3,-0.3 c -0.2,0.2 -0.4,0.6 -0.5,0.9 -0.1,0.3 -0.2,0.6 -0.3,1 -0.1,0.7 0.1,1.4 0.6,2.2 l -0.1,0.1 c -0.8,-0.4 -1.5,-1.2 -1.6,-2.2 -0.1,-0.5 -0.1,-1 0.1,-1.5 0.1,-0.5 0.3,-0.9 0.6,-1.4 l 0.1,-0.2 0.2,-0.1 c 0.8,-0.3 1.5,-0.6 2.3,-0.9 0.8,-0.3 1.6,-0.5 2.4,-0.7 0.8,-0.2 1.6,-0.5 2.4,-0.9 0.7,-0.4 1.4,-1 2.1,-1.4 l 0.2,-0.1 0.3,0.1 c 0.5,0.1 0.9,0.4 1.2,0.8 0.3,0.4 0.6,0.8 0.7,1.3 0.2,0.9 0.1,1.8 -0.2,2.6 z"
   id="path50"
   inkscape:connector-curvature="0"
   style="fill:#3f3e29" />
	</g>
	<g
   display="inline"
   id="g56"
   style="display:inline">
		<path
   d="m 173.4,111.7 c 0.3,-0.4 0.6,-0.7 1,-1 l 1.2,-0.2 c 0.8,-0.2 1.5,-0.3 2.3,-0.5 0.8,-0.1 1.6,-0.3 2.3,-0.4 0.4,0 0.8,-0.1 1.2,-0.1 0.4,0.2 0.8,0.4 1.2,0.7 -0.4,0.3 -0.7,0.6 -1.1,0.8 -0.4,0 -0.8,0.1 -1.1,0.1 -0.8,0.1 -1.5,0.2 -2.3,0.3 -0.8,0.1 -1.5,0.3 -2.3,0.4 -0.4,0.1 -0.8,0.2 -1.1,0.3 -0.4,0 -0.8,-0.2 -1.3,-0.4 z"
   id="path54"
   inkscape:connector-curvature="0"
   style="fill:#3f3e29" />
	</g>
	<path
   display="inline"
   stroke-miterlimit="10"
   d="M -13.9,196.8"
   id="path58"
   inkscape:connector-curvature="0"
   style="display:inline;fill:none;stroke:#3f3e29;stroke-width:2;stroke-linejoin:round;stroke-miterlimit:10" />
	<g
   display="inline"
   id="g62"
   style="display:inline">
		<path
   d="m 11.6,154.7 c -0.3,1.8 -0.8,3.5 -1.3,5.1 l 0.1,-0.4 c 0.4,4.3 0.7,8.5 0.6,12.8 L 10.7,185 c -0.2,8.6 -0.4,17.1 -0.7,25.7 H 9.7 C 9.2,202.2 8.9,193.6 8.5,185.1 L 7.9,172.3 C 7.8,168 8,163.7 8.3,159.5 v -0.3 l 0.1,-0.1 c 0.9,-1.5 1.9,-3 3,-4.4 z"
   id="path60"
   inkscape:connector-curvature="0"
   style="fill:#3f3e29" />
	</g>
	
		<line
   display="inline"
   stroke-miterlimit="10"
   x1="6.3000002"
   y1="158.2"
   x2="8.8000002"
   y2="161.7"
   id="line64"
   style="display:inline;fill:none;stroke:#3f3e29;stroke-width:2;stroke-linecap:round;stroke-miterlimit:10" />
	
		<path
   display="inline"
   stroke-miterlimit="10"
   d="m 131.8,133.8 c -8.6,3.3 -11.8,5.7 -14.1,5.7 -2.3,0 -18.3,-10.2 -21.2,-11.4 -2.9,-1.2 -21,-3.8 -21,-3.8"
   id="path66"
   inkscape:connector-curvature="0"
   style="display:inline;fill:none;stroke:#3f3e29;stroke-width:2;stroke-linecap:round;stroke-linejoin:round;stroke-miterlimit:10" />
	<g
   display="inline"
   id="g70"
   style="display:inline">
		<path
   d="m 82.8,149.7 c 1.1,5.1 1.9,10.2 2.8,15.3 l 0.7,3.8 c 0.1,0.6 0.2,1.2 0.4,1.8 0.1,0.3 0.2,0.6 0.2,0.8 l 0.1,0.2 0.1,0.2 c 0.1,0.3 0.1,0.4 0.2,0.6 0.6,2.7 0.9,5.2 1.2,7.8 0.5,5.1 1.2,10.3 1.9,15.4 0.4,2.6 0.7,5.1 1.1,7.6 0.2,1.3 0.4,2.5 0.7,3.8 0.1,0.6 0.3,1.2 0.5,1.9 0.2,0.6 0.4,1.3 0.7,1.7 v 0 c 0.1,0.1 0,0.2 0,0.2 -0.1,0 -0.1,0 -0.2,0 -0.5,-0.5 -0.7,-1.1 -1,-1.7 -0.2,-0.6 -0.5,-1.2 -0.7,-1.8 -0.4,-1.2 -0.7,-2.5 -1.1,-3.8 -0.6,-2.5 -1.2,-5 -1.8,-7.6 -1.1,-5.1 -2,-10.2 -3,-15.2 -0.5,-2.5 -1,-5.1 -1.4,-7.5 0,-0.1 -0.1,-0.3 -0.1,-0.3 0,0 0,-0.1 0,-0.1 l -0.1,-0.2 -0.1,-0.3 c -0.1,-0.4 -0.2,-0.7 -0.2,-1 -0.1,-0.7 -0.2,-1.3 -0.3,-2 -0.2,-1.3 -0.3,-2.6 -0.4,-3.9 -0.4,-5.2 -0.7,-10.4 -0.6,-15.6 0,-0.1 0.1,-0.1 0.2,-0.1 0.1,-0.2 0.2,-0.1 0.2,0 z"
   id="path68"
   inkscape:connector-curvature="0"
   style="fill:#3f3e29" />
	</g>
	<g
   display="inline"
   id="g74"
   style="display:inline">
		<path
   d="m 134.7,153.3 c -2,1.2 -4.1,2.3 -6.2,3.3 -2.1,1 -4.2,2 -6.4,2.9 -0.6,0.2 -1.1,0.4 -1.7,0.6 -0.3,0.1 -0.6,0.2 -1,0.3 l -0.5,0.1 -0.3,0.1 c -0.9,0.3 -1.9,0.9 -3.2,1.3 -1.3,0.5 -3,0.5 -4.4,-0.1 l -3.2,-1.5 0.4,0.1 c -1.4,-0.2 -2.5,-0.6 -3.8,-0.9 -1.2,-0.4 -2.4,-0.7 -3.6,-1.1 -2.3,-0.9 -4.7,-1.7 -6.9,-2.7 -2.3,-1 -4.5,-2.1 -6.7,-3.2 -2.2,-1.1 -4.4,-2.3 -6.5,-3.6 2.4,0.7 4.7,1.5 7.1,2.3 l 7,2.3 c 2.3,0.7 4.6,1.5 7,2.2 1.2,0.4 2.3,0.7 3.5,1 1.1,0.3 2.4,0.6 3.4,0.8 h 0.1 c 0.1,0 0.3,0.1 0.4,0.1 l 3,1.5 c 0.8,0.3 1.5,0.3 2.5,0.1 1,-0.2 2,-0.8 3.3,-1.1 0.2,0 0.3,-0.1 0.6,-0.1 l 0.4,-0.1 c 0.2,0 0.5,-0.1 0.7,-0.2 0.5,-0.1 1.1,-0.3 1.6,-0.4 4.4,-1.3 8.9,-2.8 13.4,-4 z"
   id="path72"
   inkscape:connector-curvature="0"
   style="fill:#3f3e29" />
	</g>
	<path
   display="inline"
   d="m 58.4,81.3 c 0,0 5.8,2.5 7.5,4.5 1.7,2 -3.8,0.8 -5.8,0.2 -2,-0.6 1.5,2 2.2,2 0.7,0 -0.2,1.5 -1.8,1.5 -1.6,0 0.2,0.8 3.2,1.2 6.4,1.1 -1.8,1.2 -6.2,1.2 -3.2,0 -3.8,3.8 3.5,3.5 7.3,-0.3 5.5,2.5 3,3.8 -2.5,1.3 -6,3.2 -2.5,3.8 3.5,0.6 -1.5,2.2 -3.5,2.8 -2,0.6 6.7,2.8 10.8,1.5 4.8,-1.5 4.2,2.5 -6.5,5 0,0 -19.7,7.5 -46.6,0 0,0 -4.2,-12.8 -2.4,-23.9 0,0 21.1,-13.8 45.1,-7.1 z"
   id="path76"
   inkscape:connector-curvature="0"
   style="display:inline;fill:#3f3e29" />
	<path
   display="inline"
   d="m 16.1,126.3 c 0,0 -2.4,-0.2 -5.9,0 -1.5,0.1 3.2,0.5 4.5,1.5 1.1,0.9 7.2,-0.6 5.6,0.5 -1.9,1.2 -9.1,0 -8.6,2.1 0.5,2.1 37.8,0.5 68,-6.2 l 0.1,-6 c 0.1,0.1 -21.2,10.1 -63.7,8.1 z"
   id="path78"
   inkscape:connector-curvature="0"
   style="display:inline;fill:#3f3e29" />
	<path
   display="inline"
   stroke-miterlimit="10"
   d="m 35.6,114.8 c 0,0 0.8,11.2 1.8,13"
   id="path80"
   inkscape:connector-curvature="0"
   style="display:inline;fill:none;stroke:#3f3e29;stroke-miterlimit:10" />
	<path
   display="inline"
   stroke-miterlimit="10"
   d="m 55.2,112.8 c 0,0 1.3,11.2 0.6,13.1"
   id="path82"
   inkscape:connector-curvature="0"
   style="display:inline;fill:none;stroke:#3f3e29;stroke-miterlimit:10" />
	<g
   display="inline"
   id="g86"
   style="display:inline">
		<path
   d="m 10.2,195.8 c -5.1,0.6 -10.2,1.1 -15.3,1.4 -2.6,0.1 -5.1,0.3 -7.7,0.2 -0.7,0 -1.3,-0.1 -2.1,-0.3 -0.5,-0.2 -0.7,-0.3 -0.8,-0.3 0,0 0.1,0 0.3,-0.1 0.1,-0.1 0.1,-0.2 0.2,-0.3 0,0 0,-0.1 0,-0.1 0,0 0,0.1 0.1,0.2 0.4,1 1.2,2.1 1.9,3.1 v 0 c 0.1,0.1 0.1,0.2 0.1,0.2 l 1.1,16.7 -2.2,-16.6 0.1,0.3 c -0.8,-1 -1.6,-2 -2.3,-3.3 -0.1,-0.2 -0.2,-0.3 -0.2,-0.7 0,-0.1 0,-0.2 0,-0.3 0.1,-0.2 0.1,-0.3 0.3,-0.4 0.3,-0.2 0.6,-0.2 0.7,-0.2 0.6,0.1 0.9,0.3 1,0.3 0.5,0.1 1.1,0.1 1.7,0.1 2.5,0 5,-0.4 7.5,-0.7 5,-0.6 10.1,-1.5 15.1,-2.4 z"
   id="path84"
   inkscape:connector-curvature="0"
   style="fill:#3f3e29" />
	</g>
	<path
   display="inline"
   stroke-miterlimit="10"
   d="M -12.9,196.8"
   id="path88"
   inkscape:connector-curvature="0"
   style="display:inline;fill:none;stroke:#3f3e29;stroke-width:2;stroke-linejoin:round;stroke-miterlimit:10" />
	<path
   display="inline"
   stroke-miterlimit="10"
   d="m 14.1,130.3 c 0,0 -18.2,11.5 -21,13.2 -2.8,1.7 -6.2,34.8 -5,52.8"
   id="path90"
   inkscape:connector-curvature="0"
   style="display:inline;fill:none;stroke:#3f3e29;stroke-width:2;stroke-linejoin:round;stroke-miterlimit:10" />
	<g
   display="inline"
   id="g94"
   style="display:inline">
		<path
   d="m 28.6,154.9 c 3,-0.9 6,-1.8 9.1,-2.5 3,-0.7 6.1,-1.5 9.2,-2.1 3.1,-0.6 6.2,-1.2 9.3,-1.6 3.1,-0.5 6.3,-0.7 9.5,-0.9 0.8,0 1.5,0.5 1.6,1.3 v 0 c 0.5,3 0.9,6.1 1.3,9.1 l 1.2,9.1 c 0.4,3 0.8,6.1 1.1,9.1 0.4,3 0.7,6.1 1,9.1 v 0.1 c 0,0.5 -0.3,0.9 -0.8,1 H 71 c -3.5,0.1 -7,0.3 -10.5,0.6 -3.5,0.3 -7,0.7 -10.4,1.3 -3.5,0.5 -6.9,1.2 -10.3,2 -3.4,0.7 -6.8,1.6 -10.2,2.4 -0.7,0.2 -1.4,-0.2 -1.5,-0.9 0,-0.1 0,-0.2 0,-0.2 v -0.1 c -0.1,-3.1 -0.2,-6.1 -0.2,-9.2 0,-3.1 0,-6.1 0,-9.2 0,-3.1 0.1,-6.1 0.2,-9.2 0,-1.5 0.1,-3.1 0.2,-4.6 0.1,-1.5 0.1,-3.1 0.3,-4.6 -0.1,0 -0.1,0 0,0 z m 0.2,0.2 c 0.2,1.5 0.3,3 0.4,4.4 0.1,1.5 0.3,3.1 0.4,4.6 0.2,3.1 0.4,6.1 0.5,9.2 0.1,3.1 0.3,6.1 0.3,9.2 0.1,3.1 0.2,6.1 0.1,9.2 l -1.6,-1.2 c 3.5,-0.7 7,-1.2 10.5,-1.6 l 10.5,-1.3 c 3.5,-0.4 7,-0.9 10.5,-1.4 3.5,-0.5 7,-1 10.5,-1.4 l -0.8,1.1 c -0.6,-3 -1.1,-6 -1.7,-9 -0.5,-3 -1,-6 -1.5,-9.1 l -1.5,-9.1 c -0.5,-3 -0.9,-6.1 -1.3,-9.1 l 1.6,1.4 c -3,0 -6.1,0.3 -9.2,0.6 -3.1,0.3 -6.2,0.7 -9.3,1 -3.1,0.4 -6.2,0.8 -9.3,1.3 z"
   id="path92"
   inkscape:connector-curvature="0"
   style="fill:#3f3e29" />
	</g>
	<g
   display="inline"
   id="g100"
   style="display:inline">
		<circle
   cx="40"
   cy="163.3"
   r="5.6999998"
   id="circle96"
   style="fill:#3f3e29" />
		<path
   d="m 45,166.1 c -0.3,0.7 -0.8,1.3 -1.4,1.8 -0.6,0.5 -1.2,1 -2,1.2 -1.5,0.6 -3.2,0.7 -4.9,0.1 -1.6,-0.6 -3.1,-2 -3.8,-3.7 -0.3,-0.9 -0.5,-1.9 -0.4,-2.8 0.1,-1 0.3,-1.9 0.8,-2.8 0.4,-0.8 1.1,-1.6 1.9,-2.2 0.8,-0.6 1.7,-1 2.6,-1.2 1.9,-0.4 3.8,0.1 5.2,1.1 1.4,1 2.3,2.5 2.6,4.1 0.2,0.8 0.2,1.6 0.1,2.3 0,0.7 -0.3,1.4 -0.7,2.1 z M 44.9,166 c 0.7,-1.3 0.8,-2.8 0.4,-4.2 -0.4,-1.4 -1.4,-2.6 -2.7,-3.3 -1.3,-0.7 -2.8,-0.8 -4.2,-0.4 -1.4,0.4 -2.6,1.4 -3.2,2.7 -0.7,1.2 -0.9,2.8 -0.4,4.2 0.4,1.4 1.4,2.6 2.6,3.3 1.3,0.7 2.8,0.9 4.2,0.4 1.3,-0.5 2.6,-1.4 3.3,-2.7 z"
   id="path98"
   inkscape:connector-curvature="0"
   style="fill:#3f3e29" />
	</g>
	<g
   display="inline"
   id="g104"
   style="display:inline">
		<path
   d="m 46.1,175.7 c 0.4,0.7 0.6,1.4 0.7,2.2 0.1,0.8 0.1,1.5 -0.1,2.3 -0.3,1.6 -1.2,3.1 -2.7,4.1 -1.4,1 -3.4,1.4 -5.2,1 -0.9,-0.2 -1.8,-0.6 -2.6,-1.2 -0.8,-0.6 -1.4,-1.3 -1.9,-2.3 -0.4,-0.8 -0.7,-1.8 -0.7,-2.8 0,-1 0.1,-1.9 0.5,-2.8 0.7,-1.8 2.2,-3.1 3.9,-3.7 1.6,-0.6 3.4,-0.5 4.8,0.1 0.7,0.3 1.4,0.7 1.9,1.3 0.6,0.5 1,1.1 1.4,1.8 z m -0.2,0.1 c -0.7,-1.3 -1.9,-2.3 -3.3,-2.7 -1.4,-0.4 -2.9,-0.3 -4.2,0.4 -1.3,0.7 -2.3,1.9 -2.7,3.2 -0.4,1.4 -0.3,2.9 0.4,4.2 0.6,1.3 1.8,2.3 3.2,2.7 1.4,0.4 2.9,0.3 4.2,-0.3 1.3,-0.7 2.3,-1.8 2.7,-3.2 0.5,-1.5 0.4,-3 -0.3,-4.3 z"
   id="path102"
   inkscape:connector-curvature="0"
   style="fill:#3f3e29" />
	</g>
	
		<line
   display="inline"
   stroke-miterlimit="10"
   x1="49"
   y1="158"
   x2="61.299999"
   y2="156.3"
   id="line106"
   style="display:inline;fill:none;stroke:#3f3e29;stroke-width:2;stroke-linecap:round;stroke-linejoin:round;stroke-miterlimit:10" />
	
		<line
   display="inline"
   stroke-miterlimit="10"
   x1="50"
   y1="163"
   x2="62.299999"
   y2="161.3"
   id="line108"
   style="display:inline;fill:none;stroke:#3f3e29;stroke-width:2;stroke-linecap:round;stroke-linejoin:round;stroke-miterlimit:10" />
	
		<line
   display="inline"
   stroke-miterlimit="10"
   x1="51"
   y1="172"
   x2="63.299999"
   y2="170.3"
   id="line110"
   style="display:inline;fill:none;stroke:#3f3e29;stroke-width:2;stroke-linecap:round;stroke-linejoin:round;stroke-miterlimit:10" />
	
		<line
   display="inline"
   stroke-miterlimit="10"
   x1="52"
   y1="177"
   x2="64.300003"
   y2="175.3"
   id="line112"
   style="display:inline;fill:none;stroke:#3f3e29;stroke-width:2;stroke-linecap:round;stroke-linejoin:round;stroke-miterlimit:10" />
	<g
   display="inline"
   id="g116"
   style="display:inline">
		<path
   d="m 118.6,140.3 c -0.6,0.2 -1.2,0.3 -1.8,0.5 -0.6,0.1 -1.2,0.2 -1.8,0.3 -1.2,0.2 -2.4,0.4 -3.6,0.5 1.1,-0.5 2.2,-0.9 3.3,-1.4 0.5,-0.3 1.1,-0.5 1.6,-0.8 0.5,-0.3 1,-0.6 1.5,-0.9 0.5,-0.3 1.1,-0.2 1.4,0.3 0.3,0.5 0.2,1.1 -0.3,1.4 -0.1,0 -0.2,0.1 -0.3,0.1 z"
   id="path114"
   inkscape:connector-curvature="0"
   style="fill:#3f3e29" />
	</g>
	<g
   display="inline"
   id="g120"
   style="display:inline">
		<path
   d="m -6.9,143.6 c 2.3,0.5 4.5,1.2 6.7,1.8 l -0.7,0.2 c 1.7,-2.2 3.6,-4.1 5.7,-5.9 2.1,-1.8 4.2,-3.5 6.6,-4.9 2.3,-1.4 4.8,-2.7 7.5,-3.5 2.6,-0.8 5.4,-1.2 8.1,-0.9 -5.4,0.7 -10.1,3.2 -14.5,6 -2.2,1.5 -4.3,3 -6.4,4.7 -2.1,1.7 -4.1,3.5 -5.9,5.3 l -0.3,0.3 -0.4,-0.2 c -2.2,-0.9 -4.3,-1.8 -6.4,-2.9 z"
   id="path118"
   inkscape:connector-curvature="0"
   style="fill:#3f3e29" />
	</g>
	<g
   display="inline"
   id="g124"
   style="display:inline">
		<path
   d="m 96.3,129 c -1.6,1.1 -3.3,2 -5.1,3 l -0.1,0.1 h -0.3 c -2.2,-0.3 -4.5,-0.6 -6.7,-1 l -3.3,-0.6 -3.3,-0.7 c -4.4,-0.9 -8.8,-2 -13.2,-3.4 2.3,0.1 4.5,0.3 6.8,0.5 2.2,0.3 4.5,0.6 6.7,1 l 3.3,0.6 3.3,0.7 c 2.2,0.5 4.4,1 6.6,1.5 h -0.4 c 1.9,-0.6 3.8,-1.2 5.7,-1.7 z"
   id="path122"
   inkscape:connector-curvature="0"
   style="fill:#3f3e29" />
	</g>
	<path
   display="inline"
   stroke-miterlimit="10"
   d="M 129.6,135.3"
   id="path126"
   inkscape:connector-curvature="0"
   style="display:inline;fill:none;stroke:#3f3e29;stroke-width:2;stroke-miterlimit:10" />
	<path
   display="inline"
   stroke-miterlimit="10"
   d="m 137.2,149.4 c 0,0 -1.3,-9.1 -5.7,-14.2"
   id="path128"
   inkscape:connector-curvature="0"
   style="display:inline;fill:none;stroke:#3f3e29;stroke-width:2;stroke-linecap:round;stroke-miterlimit:10" />
	<g
   display="inline"
   id="g132"
   style="display:inline">
		<path
   d="m -7.9,195.8 c 1.3,-0.7 2.6,-1.2 3.9,-1.5 1.3,-0.3 2.6,-0.6 4,-0.7 1.3,-0.1 2.7,-0.1 4,-0.1 1.4,0.1 2.7,0.3 4.1,0.8 -1.3,0.7 -2.6,1.2 -3.9,1.5 -1.3,0.3 -2.6,0.6 -4,0.7 -1.3,0.1 -2.7,0.1 -4,0.1 -1.3,-0.1 -2.7,-0.3 -4.1,-0.8 z"
   id="path130"
   inkscape:connector-curvature="0"
   style="fill:#3f3e29" />
	</g>
	<path
   display="inline"
   d="m 29.5,192 3.3,2 c 0,0 17.5,-3.7 36.9,-5 l 0.8,-3.2 c -0.1,0 -33.5,2.7 -41,6.2 z"
   id="path134"
   inkscape:connector-curvature="0"
   style="display:inline;fill:#3f3e29" />
</g>
<g
   id="Layer_3"
   display="none"
   style="display:none"
   transform="translate(0,165.60001)">
	<g
   display="inline"
   id="g201"
   style="display:inline">
		<g
   id="g139">
			<path
   d="m 256.5,123.9 c 0,0.6 0.4,1.1 0.8,1.5 0.4,0.4 1,0.7 1.5,1 1.1,0.5 2.3,0.9 3.5,1.2 2.4,0.6 4.8,0.9 7.3,1.2 4.9,0.4 9.8,0.7 14.7,0.8 2.5,0.1 4.9,0.1 7.4,0 2.5,-0.1 4.9,-0.2 7.4,-0.5 2.4,-0.3 4.9,-0.8 7.2,-1.5 1.2,-0.4 2.3,-0.8 3.3,-1.4 0.5,-0.3 1,-0.6 1.4,-1 0.4,-0.4 0.7,-0.9 0.6,-1.2 0,-0.9 -1.1,-1.6 -2.1,-2.1 -1.1,-0.5 -2.2,-0.9 -3.4,-1.2 -2.3,-0.6 -4.7,-1 -7.1,-1.4 -4.8,-0.6 -9.7,-0.8 -14.6,-0.9 -4.9,0 -9.8,0.2 -14.7,0.6 -2.4,0.2 -4.9,0.6 -7.3,1.1 -1.2,0.3 -2.4,0.7 -3.5,1.2 -0.5,0.3 -1.1,0.6 -1.5,1 -0.5,0.5 -0.9,1 -0.9,1.6 z m -0.2,0 c 0,-0.7 0.4,-1.3 0.9,-1.7 0.5,-0.4 1,-0.8 1.5,-1.1 1.1,-0.6 2.3,-1.1 3.4,-1.5 2.4,-0.8 4.8,-1.4 7.2,-1.9 4.9,-1 9.9,-1.4 14.9,-1.4 5,0 10,0.3 14.9,1.1 2.5,0.4 4.9,0.9 7.3,1.7 1.2,0.4 2.4,0.9 3.5,1.5 0.6,0.3 1.1,0.7 1.6,1.2 0.2,0.2 0.5,0.5 0.7,0.9 0.1,0.2 0.2,0.4 0.2,0.6 0.1,0.2 0.1,0.5 0.1,0.6 0,0.9 -0.6,1.5 -1.1,2 -0.5,0.4 -1.1,0.8 -1.7,1.1 -1.2,0.6 -2.3,0.9 -3.5,1.3 -2.4,0.7 -4.8,1.1 -7.3,1.5 -4.9,0.8 -9.8,1.4 -14.8,1.5 -5,0.1 -10,-0.2 -14.9,-1.2 -2.4,-0.5 -4.9,-1.1 -7.2,-1.9 -1.2,-0.4 -2.3,-0.9 -3.4,-1.5 -0.5,-0.3 -1.1,-0.6 -1.5,-1.1 -0.4,-0.5 -0.8,-1 -0.8,-1.7 z"
   id="path137"
   inkscape:connector-curvature="0"
   style="fill:#3f3e29" />
		</g>
		<ellipse
   cx="283.79999"
   cy="126.8"
   rx="20.200001"
   ry="4.4000001"
   id="ellipse141"
   style="fill:#3f3e29" />
		<g
   id="g145">
			<path
   d="m 313,125.4 -7,29.3 4,-29.9 c 0.1,-0.8 0.9,-1.4 1.7,-1.3 0.8,0.1 1.4,0.9 1.3,1.7 0,0.1 0,0.2 0,0.2 z"
   id="path143"
   inkscape:connector-curvature="0"
   style="fill:#3f3e29" />
		</g>
		<g
   id="g149">
			<path
   d="m 258.3,125.1 3.8,29.3 -6.7,-28.8 c -0.2,-0.8 0.3,-1.6 1.1,-1.8 0.8,-0.2 1.6,0.3 1.8,1.1 0,0.1 0,0.2 0,0.2 z"
   id="path147"
   inkscape:connector-curvature="0"
   style="fill:#3f3e29" />
		</g>
		<g
   id="g153">
			<path
   d="m 262,153.9 c 0.1,0.5 0.5,0.8 0.9,1 0.4,0.2 0.8,0.4 1.3,0.5 0.9,0.3 1.8,0.5 2.7,0.6 1.9,0.3 3.8,0.4 5.6,0.6 3.8,0.2 7.6,0.3 11.4,0.3 3.8,0 7.6,-0.1 11.4,-0.3 1.9,-0.1 3.8,-0.2 5.7,-0.5 0.9,-0.1 1.9,-0.3 2.7,-0.6 0.4,-0.1 0.9,-0.3 1.3,-0.5 0.4,-0.2 0.7,-0.5 0.9,-1 0.1,0.5 -0.1,1.1 -0.5,1.5 -0.3,0.4 -0.7,0.8 -1.2,1.1 -0.8,0.6 -1.8,1.1 -2.7,1.5 -1.9,0.8 -3.8,1.4 -5.8,1.8 -3.9,0.8 -7.9,1.2 -11.9,1.2 -4,0 -7.9,-0.4 -11.9,-1.2 -2,-0.4 -3.9,-1 -5.8,-1.8 -0.9,-0.4 -1.9,-0.9 -2.7,-1.5 -0.4,-0.3 -0.8,-0.7 -1.2,-1.1 0,-0.6 -0.3,-1.1 -0.2,-1.6 z"
   id="path151"
   inkscape:connector-curvature="0"
   style="fill:#3f3e29" />
		</g>
		<g
   id="g157">
			<path
   d="m 282.9,116.9 -2.4,-7.9 v 0.1 c -0.5,-0.7 -1.5,-1.4 -2.5,-1.7 -1,-0.4 -2.1,-0.6 -3.2,-0.7 -2.2,-0.1 -4.5,0 -6.4,0.8 -0.9,0.4 -1.7,1 -2,1.6 l -0.6,3.2 c -0.5,2.2 -1.1,4.5 -1.8,6.7 h -0.2 c -0.1,-2.3 0,-4.6 0.2,-6.9 l 0.2,-1.7 0.1,-0.9 0.1,-0.4 v -0.3 c 0,-0.2 0.1,-0.3 0.1,-0.4 0.3,-0.8 0.9,-1.3 1.4,-1.8 0.6,-0.4 1.2,-0.7 1.8,-0.9 1.2,-0.4 2.5,-0.5 3.6,-0.6 1.2,0 2.4,0 3.6,0.2 1.2,0.2 2.4,0.5 3.5,1 1.1,0.5 2.2,1.2 2.9,2.4 v 0 0.1 z"
   id="path155"
   inkscape:connector-curvature="0"
   style="fill:#3f3e29" />
		</g>
		<g
   id="g161">
			<path
   d="m 279,106.5 c -11.3,-2.9 -22.6,-5.9 -33.9,-9 L 228.2,92.8 C 222.6,91.2 217,89.6 211.4,87.9 200.2,84.6 189,81.1 177.8,77.8 L 161,72.7 156.8,71.5 c -0.7,-0.2 -1.4,-0.4 -2.1,-0.6 -0.7,-0.2 -1.3,-0.3 -2,-0.3 -1.3,-0.1 -2.8,0 -3.5,0.7 -0.7,0.7 -0.5,2.1 0.1,3.3 L 149,74.3 c 9.2,3.5 18.4,6.8 27.6,10 l 27.9,9.2 c 9.3,3.2 18.5,6.5 27.6,9.9 9.2,3.4 18.3,6.9 27.4,10.6 v 0 0 c 0.4,0.2 0.8,0.5 1.1,0.8 0.4,0.3 0.7,0.7 0.9,1 0.5,0.8 0.8,1.7 0.7,2.7 h -0.3 c 0,-0.9 -0.3,-1.7 -0.9,-2.3 -0.3,-0.3 -0.6,-0.6 -0.9,-0.9 -0.3,-0.3 -0.7,-0.5 -1.1,-0.7 v 0 c -9.4,-2.9 -18.7,-6 -27.9,-9.1 -9.3,-3.2 -18.5,-6.4 -27.7,-9.8 L 176,85.2 c -9.2,-3.4 -18.4,-6.7 -27.7,-9.8 l -0.2,-0.1 -0.1,-0.2 c -0.4,-0.7 -0.7,-1.4 -0.8,-2.3 -0.1,-0.8 0.1,-1.9 0.7,-2.6 0.6,-0.7 1.5,-1.1 2.3,-1.2 0.8,-0.2 1.6,-0.2 2.4,-0.2 0.8,0 1.5,0.1 2.3,0.3 0.7,0.2 1.5,0.3 2.2,0.5 l 4.3,1 c 5.7,1.4 11.3,3 17,4.5 l 16.9,4.8 c 5.6,1.6 11.2,3.2 16.8,4.9 5.6,1.6 11.2,3.4 16.8,5.1 l 16.7,5.3 c 11.1,3.5 22.2,7.2 33.3,11 z"
   id="path159"
   inkscape:connector-curvature="0"
   style="fill:#3f3e29" />
		</g>
		<path
   d="m 280.5,117.6 c 0,0 -1.8,-5.4 -3,-6.7 -1.2,-1.3 -2.8,-1.7 -4.8,-1.8 -2.7,0 -4.3,2.4 -4.3,2.4 l -1.1,7.3"
   id="path163"
   inkscape:connector-curvature="0"
   style="fill:#3f3e29" />
		<g
   id="g167">
			<path
   d="m 310.5,129.1 c -0.9,0.9 -2.1,1.5 -3.2,2.1 -1.2,0.5 -2.4,1 -3.6,1.4 -2.5,0.8 -5,1.2 -7.5,1.5 -2.5,0.3 -5.1,0.4 -7.6,0.3 -2.5,-0.1 -5.1,-0.3 -7.6,-0.7 2.5,-0.4 5,-0.6 7.5,-0.8 2.5,-0.2 5,-0.5 7.4,-0.7 2.5,-0.3 4.9,-0.6 7.4,-1 2.5,-0.6 4.9,-1.1 7.2,-2.1 z"
   id="path165"
   inkscape:connector-curvature="0"
   style="fill:#3f3e29" />
		</g>
		<g
   id="g171">
			<path
   d="m 307.6,133 c -0.9,0.8 -2,1.3 -3,1.8 -1.1,0.4 -2.2,0.8 -3.3,1.1 -2.3,0.6 -4.6,1 -6.9,1.3 -2.3,0.3 -4.6,0.7 -6.9,0.6 -2.3,-0.1 -4.6,-0.3 -6.9,-0.9 -0.1,0 -0.1,-0.1 -0.1,-0.1 0,0 0,-0.1 0.1,-0.1 2.3,-0.5 4.6,-0.7 6.9,-0.9 2.3,-0.2 4.6,-0.1 6.8,-0.2 2.3,-0.1 4.5,-0.3 6.8,-0.7 1.1,-0.2 2.2,-0.4 3.3,-0.7 1.1,-0.3 2.2,-0.7 3.1,-1.3 v 0 c 0,0 0.1,0 0.1,0 0.1,0 0,0 0,0.1 z"
   id="path169"
   inkscape:connector-curvature="0"
   style="fill:#3f3e29" />
		</g>
		<g
   id="g175">
			<path
   d="m 296.3,147.5 c -1.3,0.5 -2.6,0.8 -3.9,1.1 -1.3,0.3 -2.7,0.5 -4,0.6 -1.4,0.1 -2.7,0.4 -4.1,0.2 -1.4,-0.2 -2.7,-0.5 -4,-1.2 -0.1,0 -0.1,-0.1 0,-0.1 0,0 0,0 0.1,-0.1 1.4,-0.4 2.7,-0.5 4,-0.6 1.3,-0.1 2.6,0.2 4,0.2 1.3,0 2.7,0 4,0 1.3,0 2.7,-0.1 4,-0.3 0.1,0 0.1,0 0.1,0.1 -0.1,0 -0.1,0.1 -0.2,0.1 z"
   id="path173"
   inkscape:connector-curvature="0"
   style="fill:#3f3e29" />
		</g>
		<g
   id="g179">
			<path
   d="m 306.9,136.5 c -0.8,1 -1.9,1.6 -2.9,2.1 -1.1,0.5 -2.2,0.9 -3.3,1.2 -2.3,0.6 -4.6,0.7 -7,0.8 -2.3,0.1 -4.6,0.1 -6.9,0.1 -2.3,-0.1 -4.6,-0.2 -6.9,-0.4 -0.1,0 -0.1,-0.1 -0.1,-0.1 0,-0.1 0,-0.1 0.1,-0.1 2.3,-0.1 4.6,-0.2 6.9,-0.4 2.3,-0.2 4.6,-0.4 6.8,-0.7 2.3,-0.3 4.5,-0.8 6.7,-1.2 2.2,-0.4 4.5,-0.6 6.5,-1.5 v 0 c 0,0 0.1,0 0.1,0.2 0,-0.1 0,-0.1 0,0 z"
   id="path177"
   inkscape:connector-curvature="0"
   style="fill:#3f3e29" />
		</g>
		<g
   id="g183">
			<path
   d="m 307.9,141.9 c -0.2,0.6 -0.7,1 -1.1,1.4 -0.5,0.4 -0.9,0.7 -1.4,0.9 -1,0.5 -2.1,0.9 -3.1,1.2 -2.1,0.6 -4.3,0.6 -6.5,0.7 -4.3,0.2 -8.6,0 -12.9,-0.4 -0.1,0 -0.1,-0.1 -0.1,-0.1 0,-0.1 0,-0.1 0.1,-0.1 2.1,-0.1 4.3,-0.2 6.4,-0.4 2.1,-0.1 4.3,-0.3 6.4,-0.6 2.1,-0.3 4.2,-0.8 6.2,-1.1 1,-0.2 2,-0.3 3.1,-0.6 1,-0.2 2,-0.5 2.9,-1.1 v 0 c -0.1,0.1 -0.1,0.1 0,0.2 0,0 0,0 0,0 z"
   id="path181"
   inkscape:connector-curvature="0"
   style="fill:#3f3e29" />
		</g>
		<g
   id="g187">
			<path
   d="m 304.8,140.5 c -1.3,0.7 -2.7,1.1 -4,1.5 -1.4,0.4 -2.8,0.6 -4.2,0.9 -2.8,0.4 -5.7,0.7 -8.5,0.9 -2.9,0.2 -5.7,0.4 -8.6,0.1 -2.8,-0.2 -5.7,-0.6 -8.5,-1.4 -0.1,0 -0.1,-0.1 -0.1,-0.1 0,0 0,-0.1 0.1,-0.1 2.9,-0.3 5.7,-0.4 8.5,-0.4 2.8,-0.1 5.6,0.2 8.5,0.2 2.8,0 5.6,0 8.4,-0.3 2.8,-0.2 5.6,-0.6 8.3,-1.5 v 0 c 0.1,0 0.1,0 0.1,0.1 0.1,0 0.1,0.1 0,0.1 z"
   id="path185"
   inkscape:connector-curvature="0"
   style="fill:#3f3e29" />
		</g>
		<g
   id="g191">
			<path
   d="m 271.8,103.7 c -0.6,0.4 -1.1,0.6 -1.7,0.8 -0.6,0.2 -1.1,0.3 -1.7,0.4 -0.6,0.1 -1.1,0.2 -1.7,0.2 -0.6,0 -1.1,0 -1.8,0 l -0.1,-0.1 c 1,-0.6 2.3,-0.9 3.4,-1.1 1.2,-0.1 2.4,-0.3 3.6,-0.2 z"
   id="path189"
   inkscape:connector-curvature="0"
   style="fill:#3f3e29" />
		</g>
		<g
   id="g195">
			<path
   d="m 268.8,102.7 c -0.6,0.4 -1.1,0.6 -1.7,0.8 -0.6,0.2 -1.1,0.3 -1.7,0.4 -0.6,0.1 -1.1,0.2 -1.7,0.2 -0.6,0 -1.1,0 -1.8,0 l -0.1,-0.1 c 1,-0.6 2.3,-0.9 3.4,-1.1 1.2,-0.1 2.4,-0.3 3.6,-0.2 z"
   id="path193"
   inkscape:connector-curvature="0"
   style="fill:#3f3e29" />
		</g>
		<g
   id="g199">
			<path
   d="m 151.1,73.2 c 4.4,1.2 8.8,2.5 13.3,3.8 l 13.2,3.9 c 8.8,2.6 17.6,5.4 26.4,8.1 8.8,2.8 17.5,5.6 26.3,8.4 l 13.1,4.3 c 4.3,1.5 8.7,2.9 13,4.5 -4.4,-1.2 -8.8,-2.5 -13.3,-3.8 L 229.9,98.5 C 221.1,95.9 212.3,93.1 203.5,90.4 194.7,87.6 186,84.8 177.2,82 l -13.1,-4.3 c -4.3,-1.5 -8.6,-3 -13,-4.5 z"
   id="path197"
   inkscape:connector-curvature="0"
   style="fill:#3f3e29" />
		</g>
	</g>
	<g
   display="inline"
   id="g233"
   style="display:inline">
		<g
   id="g205">
			<path
   d="m 288.6,89.7 c 1.1,-0.4 2.3,-0.6 3.5,-0.7 1.2,-0.1 2.4,-0.1 3.6,0 1.2,0.1 2.4,0.4 3.6,0.8 1.2,0.4 2.4,1.1 3.3,2.1 l 0.5,0.5 -0.1,0.8 c -0.3,1.5 -0.6,3.1 -0.9,4.6 l -0.2,0.9 -0.9,0.2 c -0.5,0.1 -0.7,0.1 -1.1,0.2 -0.3,0 -0.6,0 -0.9,0 -0.6,0 -1.2,0 -1.8,-0.1 -1.2,-0.1 -2.4,-0.4 -3.5,-0.7 -2.3,-0.6 -4.4,-1.5 -6.4,-2.6 l -0.7,-0.4 0.2,-0.6 c 0.3,-0.8 0.6,-1.7 0.9,-2.5 0.2,-0.8 0.5,-1.7 0.9,-2.5 z m 0,0 c 0,0.9 -0.1,1.8 -0.1,2.7 -0.1,0.9 -0.1,1.8 -0.2,2.7 l -0.5,-0.9 c 2.1,0.6 4.3,1.2 6.4,1.5 1.1,0.2 2.1,0.3 3.2,0.4 0.5,0 1,0 1.5,0 0.3,0 0.5,0 0.7,0 0.2,0 0.5,-0.1 0.6,-0.1 l -1.1,1.1 c 0.3,-1.5 0.7,-3 1.1,-4.5 l 0.3,1.3 c -0.6,-0.7 -1.4,-1.3 -2.3,-1.8 -0.9,-0.5 -1.9,-0.9 -3,-1.2 -1,-0.3 -2.1,-0.5 -3.3,-0.7 -1,-0.2 -2.1,-0.4 -3.3,-0.5 z"
   id="path203"
   inkscape:connector-curvature="0"
   style="fill:#3f3e29" />
		</g>
		<g
   id="g209">
			<path
   d="m 289.5,88.5 c 1.7,-9.3 3.7,-18.5 5.6,-27.8 2,-9.2 4.1,-18.5 6.2,-27.7 1.1,-4.6 2.2,-9.2 3.3,-13.8 l 3.5,-13.7 c 1.2,-4.6 2.3,-9.2 3.5,-13.7 l 1.8,-6.9 1.8,-6.8 0.1,-0.2 0.1,-0.1 c 0.5,-0.5 1,-0.9 1.6,-1.3 0.6,-0.3 1.4,-0.5 2.3,-0.3 0.8,0.2 1.4,0.8 1.8,1.3 0.4,0.6 0.7,1.1 0.9,1.8 l 0.1,0.2 v 0.2 c -2,9.3 -3.8,18.6 -5.4,27.9 -1.5,9.4 -2.9,18.7 -4.4,28.1 -0.4,2.3 -0.8,4.7 -1.2,7 -0.4,2.3 -0.9,4.7 -1.3,7 -0.9,4.7 -1.8,9.3 -2.7,14 -1.9,9.3 -3.9,18.6 -6.1,27.8 0,0.1 -0.1,0.1 -0.2,0.1 -0.1,0 -0.1,-0.1 -0.1,-0.2 1.2,-9.4 2.6,-18.8 4.2,-28.1 0.8,-4.7 1.6,-9.3 2.4,-14 0.4,-2.3 0.8,-4.7 1.3,-7 0.4,-2.3 0.9,-4.7 1.4,-7 1.9,-9.3 4,-18.5 5.9,-27.8 1.9,-9.3 3.5,-18.6 4.9,-28 v 0.3 c -0.1,-0.4 -0.4,-0.9 -0.7,-1.3 -0.3,-0.4 -0.6,-0.6 -1,-0.7 -0.3,0 -0.7,0 -1.1,0.3 -0.4,0.2 -0.8,0.6 -1.1,0.9 l 0.2,-0.4 -1.5,6.9 -1.5,6.9 C 313.1,-3 312,1.6 311,6.2 L 307.8,20 c -1.1,4.6 -2.2,9.2 -3.3,13.8 -2.3,9.2 -4.6,18.3 -7,27.5 -2.5,9.1 -4.9,18.2 -7.6,27.3 0,0.1 -0.1,0.1 -0.2,0.1 -0.1,0 -0.2,-0.1 -0.2,-0.2 z"
   id="path207"
   inkscape:connector-curvature="0"
   style="fill:#3f3e29" />
		</g>
		<g
   id="g213">
			<path
   d="m 288.2,95.8 c -1.5,5.3 -1.8,10.6 -2.1,16 -0.2,2.7 -0.4,5.4 -0.2,8.1 0.1,1.3 0.3,2.7 0.6,4 0.1,0.7 0.3,1.3 0.6,1.9 0.1,0.3 0.3,0.6 0.4,0.8 0.1,0.1 0.2,0.2 0.2,0.2 0,0 0,0 -0.1,0 0.2,0 0,0 0.1,0 0.4,-0.2 0.8,-0.8 1.2,-1.3 0.4,-0.5 0.8,-1.1 1.1,-1.6 0.7,-1.1 1.4,-2.3 2,-3.5 1.2,-2.4 2.3,-4.8 3.3,-7.3 2,-5 3.6,-10.1 4.7,-15.4 0,-0.1 0.1,-0.1 0.1,-0.1 0,0 0.1,0.1 0.1,0.1 0.2,5.5 -1,11 -2.9,16.2 -1,2.6 -2.2,5.1 -3.7,7.4 -0.7,1.2 -1.5,2.4 -2.3,3.5 -0.4,0.6 -0.9,1.1 -1.4,1.6 -0.5,0.5 -1,1 -1.8,1.4 -0.1,0 -0.4,0.1 -0.4,0.1 -0.3,0 -0.5,-0.1 -0.6,-0.2 -0.2,-0.2 -0.3,-0.4 -0.4,-0.6 -0.2,-0.4 -0.3,-0.7 -0.4,-1 -0.2,-0.7 -0.3,-1.4 -0.4,-2 -0.2,-1.4 -0.4,-2.7 -0.6,-4.1 -0.3,-2.7 -0.7,-5.4 -0.8,-8.2 -0.1,-2.8 0.2,-5.5 0.8,-8.2 0.6,-2.7 1.4,-5.4 2.8,-7.8 0,0 0.1,-0.1 0.1,0 0,-0.1 0,-0.1 0,0 z"
   id="path211"
   inkscape:connector-curvature="0"
   style="fill:#3f3e29" />
		</g>
		<path
   stroke-miterlimit="10"
   d="m 296.3,111.5 c 0,0 -2.7,-0.3 -3.6,2.3 -0.9,2.5 -3.9,6.6 -4.9,1.3 -1,-5.3 -1,-2.6 -2.4,-1.9 0,0 0.7,13.5 2.2,14.1 -0.1,0 4.8,-2.3 8.7,-15.8 z"
   id="path215"
   inkscape:connector-curvature="0"
   style="fill:#3f3e29;stroke:#3f3e29;stroke-linecap:round;stroke-miterlimit:10" />
		<path
   stroke-miterlimit="10"
   d="m 292.1,86.4 c 0,0 6.1,-6.8 7.4,-21.2 1.3,-14.4 5,-25.9 5,-25.9"
   id="path217"
   inkscape:connector-curvature="0"
   style="fill:none;stroke:#3f3e29;stroke-linecap:round;stroke-miterlimit:10" />
		<path
   stroke-miterlimit="10"
   d="m 297.6,59.9 c 0,0 -0.3,18.4 -5.9,19.9"
   id="path219"
   inkscape:connector-curvature="0"
   style="fill:none;stroke:#3f3e29;stroke-linecap:round;stroke-miterlimit:10" />
		<path
   stroke-miterlimit="10"
   d="m 295.4,88.5 c 0,0 -0.1,-2.4 4.3,-6.9 4.4,-4.5 3.9,-17.9 4.5,-24.9 0.6,-7 7.5,-24.6 7.5,-24.6"
   id="path221"
   inkscape:connector-curvature="0"
   style="fill:none;stroke:#3f3e29;stroke-linecap:round;stroke-miterlimit:10" />
		<path
   stroke-miterlimit="10"
   d="m 307.1,37.8 c 0,0 -2,-4.9 -0.9,-14.5"
   id="path223"
   inkscape:connector-curvature="0"
   style="fill:none;stroke:#3f3e29;stroke-linecap:round;stroke-miterlimit:10" />
		<path
   stroke-miterlimit="10"
   d="m 311.4,33.9 c 0,0 -7.2,-7 1.5,-11.3"
   id="path225"
   inkscape:connector-curvature="0"
   style="fill:none;stroke:#3f3e29;stroke-linecap:round;stroke-miterlimit:10" />
		<path
   stroke-miterlimit="10"
   d="m 308.7,21.8 c 0,0 1.1,-14.8 2.3,-20.6"
   id="path227"
   inkscape:connector-curvature="0"
   style="fill:none;stroke:#3f3e29;stroke-linecap:round;stroke-miterlimit:10" />
		<path
   stroke-miterlimit="10"
   d="m 311.2,19.2 c 0,0 2.8,-21.6 2.3,-27.5"
   id="path229"
   inkscape:connector-curvature="0"
   style="fill:none;stroke:#3f3e29;stroke-linecap:round;stroke-miterlimit:10" />
		<path
   stroke-miterlimit="10"
   d="m 315.3,-4.1 c 0,0 0.3,-12.6 5,-14.6"
   id="path231"
   inkscape:connector-curvature="0"
   style="fill:none;stroke:#3f3e29;stroke-linecap:round;stroke-miterlimit:10" />
	</g>
</g>
<g
   id="Layer_4"
   display="none"
   style="display:none"
   transform="translate(0,165.60001)">
	<g
   display="inline"
   id="g238"
   style="display:inline">
		<path
   d="m 64.2,27.1 c 1.1,-4.6 1.8,-9.2 2.5,-13.9 0.3,-2.3 0.6,-4.7 0.8,-7 0.2,-2.3 0.4,-4.6 0.5,-7 0.2,-2.6 1.2,-5.1 2.8,-7.2 1.7,-2 3.9,-3.5 6.2,-4.5 2.3,-1 4.8,-1.6 7.2,-1.9 2.4,-0.3 4.9,-0.3 7.3,0 1.2,0.1 2.4,0.4 3.7,0.7 0.6,0.2 1.2,0.4 1.9,0.8 0.2,0.1 0.3,0.2 0.5,0.4 l 0.3,0.3 c 0.1,0.1 0.4,0.3 0.6,0.4 1.9,1 4.2,1.6 6.5,2.2 4.5,1.2 9.2,2.1 13.8,2.8 l 0.9,0.1 c 0.3,0 0.6,0.1 0.9,0.2 0.6,0.1 1.2,0.3 1.8,0.6 1.1,0.5 2.1,1.2 3,2 1.8,1.6 3.2,3.7 4.3,5.8 2.2,4.3 3.6,8.9 4.5,13.6 0.4,2.4 0.6,4.8 0.4,7.3 -0.2,2.5 -0.8,4.9 -1.5,7.1 -0.7,2.3 -1.2,4.4 -1.2,6.6 0,1.1 0,2.2 0.2,3.3 0.2,1.3 0.2,2.6 -0.1,3.9 -0.4,2.6 -1.8,5.1 -3.6,6.9 -1.8,1.9 -3.9,3.3 -6.2,4.4 -2.3,1.1 -4.7,1.8 -7.1,2.3 -1.2,0.2 -2.5,0.3 -3.8,0.3 -1.2,0 -2.4,-0.1 -3.6,-0.1 -4.8,-0.3 -9.5,-0.9 -14.2,-1.8 -2.3,-0.4 -4.7,-1 -7,-1.6 C 84.2,53.4 81.9,52.6 79.7,51.4 79.1,51.1 78.6,50.7 78.1,50.3 77.8,50.1 77.6,49.9 77.3,49.6 77.1,49.4 76.9,49.2 76.7,48.9 75.7,48 75,47 74.3,46 73,44 71.9,41.9 70.8,39.7 l -3.1,-6.3 c -1.1,-2.1 -2.2,-4.2 -3.4,-6.2 z m 0.3,0 c 2.9,3.7 5.3,7.9 7.6,11.9 1.2,2 2.4,4 3.8,5.9 0.7,0.9 1.4,1.8 2.2,2.6 0.2,0.2 0.4,0.4 0.6,0.6 0.2,0.2 0.4,0.3 0.6,0.5 0.4,0.3 0.9,0.6 1.4,0.8 1.9,1 4.2,1.7 6.4,2.2 2.2,0.6 4.5,1 6.8,1.4 4.6,0.7 9.3,1.2 13.9,1.5 1.2,0.1 2.3,0.1 3.5,0.1 1.1,0 2.2,-0.1 3.2,-0.3 2.2,-0.4 4.3,-1 6.3,-1.9 2,-0.9 3.9,-2.1 5.4,-3.6 1.5,-1.5 2.6,-3.4 3,-5.4 0.2,-1 0.2,-2 0.1,-3.1 -0.1,-1.2 -0.2,-2.5 -0.1,-3.8 0.1,-2.5 0.8,-5 1.6,-7.2 0.7,-2.3 1.4,-4.4 1.7,-6.6 0.3,-2.2 0.3,-4.5 0,-6.8 -0.3,-2.3 -0.8,-4.6 -1.4,-6.8 -0.6,-2.3 -1.4,-4.5 -2.4,-6.5 -1,-2.1 -2.3,-4 -4,-5.6 -0.8,-0.8 -1.8,-1.4 -2.8,-1.9 -0.5,-0.2 -1,-0.4 -1.6,-0.5 -0.5,-0.1 -1.1,-0.2 -1.7,-0.2 -2.4,-0.3 -4.7,-0.6 -7,-1 -2.3,-0.3 -4.7,-0.7 -7,-1.2 -2.3,-0.5 -4.7,-0.9 -7,-2 -0.3,-0.1 -0.6,-0.3 -0.9,-0.5 l -0.2,-0.2 -0.1,-0.1 v 0 c 0,0 -0.1,-0.1 -0.2,-0.1 -0.4,-0.2 -0.9,-0.3 -1.4,-0.5 -1.1,-0.2 -2.2,-0.4 -3.3,-0.5 -4.5,-0.3 -9.2,0.2 -13.3,1.9 -2,0.8 -3.9,2 -5.2,3.7 -1.4,1.6 -2.2,3.6 -2.5,5.8 -1.1,9.1 -2.9,18.5 -6,27.4 z"
   id="path236"
   inkscape:connector-curvature="0"
   style="fill:#3f3e29" />
	</g>
	<g
   display="inline"
   id="g242"
   style="display:inline">
		<path
   d="m 69.5,27.2 c 1.1,-3.9 2,-7.9 2.7,-11.9 0.8,-4 1.3,-8.1 1.7,-12.1 0.1,-1 0.1,-2 0.3,-3.1 0.1,-1.1 0.4,-2.1 0.9,-3.1 0.9,-2 2.6,-3.6 4.5,-4.6 1.9,-1 4,-1.5 6.1,-1.6 2.1,-0.2 4.2,-0.1 6.3,0.2 1,0.2 2.1,0.4 3.1,0.7 0.5,0.2 1,0.3 1.5,0.6 0.2,0.1 0.5,0.2 0.7,0.4 0.1,0.1 0.3,0.2 0.4,0.3 l 0.1,0.1 c 0,0 0.1,0 0.1,0.1 0.7,0.5 1.7,0.7 2.7,1 1,0.2 2,0.4 3,0.5 2,0.3 4,0.5 6.1,0.7 2,0.2 4.1,0.2 6.2,0.4 2.1,0.5 3.9,1.6 5.5,2.9 1.6,1.3 3,2.9 4.2,4.6 2.3,3.4 3.8,7.4 4.7,11.4 0.4,2 0.6,4.1 0.3,6.2 -0.2,2.1 -0.8,4.1 -1.6,6 -0.8,1.9 -1.7,3.7 -2.4,5.6 -0.7,1.9 -1.1,3.8 -0.9,5.7 0,0.5 0.1,1 0.1,1.5 0,0.6 0,1.1 -0.1,1.7 -0.2,1.1 -0.6,2.2 -1.2,3.1 -1.3,1.9 -3.1,3.1 -5,4.1 -3.8,1.9 -8,2.7 -12.2,2.9 -2.1,0.1 -4.2,0 -6.2,-0.2 C 99,51.1 97,50.9 95,50.6 90.9,49.9 86.9,49.1 83,47.5 82,47.1 81.1,46.6 80.2,46 c -0.4,-0.3 -0.9,-0.6 -1.3,-1.1 -0.3,-0.4 -0.7,-0.8 -1,-1.2 -1.3,-1.7 -2.2,-3.6 -3,-5.5 -0.8,-1.9 -1.5,-3.8 -2.3,-5.7 -1,-1.7 -1.9,-3.5 -3.1,-5.3 z m 0.2,0 c 2.5,3.3 4.1,7.1 5.8,10.8 0.9,1.8 1.8,3.6 3.1,5.1 0.3,0.4 0.6,0.7 1,1.1 0.3,0.3 0.7,0.6 1.1,0.9 0.8,0.5 1.7,0.9 2.6,1.3 3.7,1.4 7.8,2.2 11.8,2.7 2,0.3 4,0.5 6,0.7 2,0.1 4.1,0.3 6,0.2 2,-0.1 4,-0.4 5.9,-0.8 1.9,-0.4 3.9,-1 5.6,-1.9 1.8,-0.9 3.4,-2 4.5,-3.5 0.5,-0.8 0.9,-1.6 1,-2.5 0.1,-0.5 0.1,-0.9 0.1,-1.4 0,-0.4 -0.1,-1 -0.1,-1.5 -0.1,-2.2 0.3,-4.3 1.1,-6.3 0.8,-2 1.7,-3.8 2.5,-5.6 0.8,-1.8 1.4,-3.7 1.7,-5.7 0.3,-2 0.2,-4 -0.2,-6 -0.7,-4 -2.1,-7.9 -4.4,-11.2 -1.1,-1.7 -2.5,-3.2 -4,-4.5 -1.6,-1.3 -3.4,-2.3 -5.3,-2.8 -4,-0.3 -8.2,-0.3 -12.2,-0.8 -1,-0.1 -2,-0.2 -3.1,-0.4 -1,-0.2 -2,-0.4 -3.1,-1 C 97,-5.9 97,-6 96.9,-6 L 97,-6.2 c -0.1,-0.1 -0.1,-0.1 -0.2,-0.2 -0.2,-0.1 -0.4,-0.2 -0.6,-0.3 -0.4,-0.2 -0.9,-0.3 -1.4,-0.5 -1,-0.3 -1.9,-0.4 -2.9,-0.6 -2,-0.3 -4,-0.3 -6,-0.2 -2,0.2 -3.9,0.6 -5.7,1.5 -1.7,0.9 -3.2,2.2 -4,3.9 -0.4,0.9 -0.7,1.8 -0.8,2.7 -0.1,1 -0.2,2 -0.3,3 -1,8.4 -2.8,16.4 -5.4,24.1 z"
   id="path240"
   inkscape:connector-curvature="0"
   style="fill:#3f3e29" />
	</g>
	<g
   display="inline"
   id="g246"
   style="display:inline">
		<path
   d="m 108.5,22.2 c -0.2,2.2 -1.2,4.3 -2.8,5.8 -1.6,1.5 -3.9,2.4 -6.3,2.2 -2.3,-0.2 -4.5,-1.3 -6,-3.1 -1.5,-1.8 -2.3,-4.1 -2.2,-6.6 0.1,-2.3 1.2,-4.7 3,-6.3 1.8,-1.6 4.4,-2.5 6.8,-2.1 1.2,0.2 2.4,0.6 3.4,1.2 1,0.7 1.8,1.5 2.5,2.5 1.3,1.9 1.8,4.2 1.6,6.4 z m -0.2,0 c 0.1,-1.1 -0.1,-2.2 -0.5,-3.1 -0.4,-1 -1,-1.9 -1.7,-2.6 -1.5,-1.5 -3.4,-2.2 -5.3,-2.4 -1.9,-0.1 -3.8,0.4 -5.3,1.6 -1.5,1.2 -2.5,3 -2.7,5 -0.2,1.9 0.4,4 1.6,5.6 1.2,1.6 3.1,2.7 5.1,3 2,0.3 4.2,-0.2 5.9,-1.5 0.8,-0.7 1.5,-1.5 2,-2.4 0.5,-1.1 0.8,-2.1 0.9,-3.2 z"
   id="path244"
   inkscape:connector-curvature="0"
   style="fill:#3f3e29" />
	</g>
	<g
   display="inline"
   id="g250"
   style="display:inline">
		<path
   d="m 90.6,-16.5 c 6.5,-1.4 13.2,-2.2 19.9,-2.7 3.3,-0.2 6.7,-0.4 10.1,-0.4 3.4,0 6.7,0.1 10.1,0.4 3.4,0.3 6.7,0.8 10,1.5 3.3,0.8 6.5,1.5 9.8,2 3.3,0.5 6.6,0.8 9.9,0.6 1.6,-0.1 3.3,-0.2 4.9,-0.6 0.8,-0.2 1.6,-0.4 2.3,-0.7 0.7,-0.3 1.5,-0.6 2,-1.1 v 0 c 0,0 0.1,0 0.1,-0.1 0.7,-0.3 1.5,-0.4 2.3,-0.5 0.8,0 1.6,0.2 2.3,0.7 0.7,0.5 1.2,1.2 1.5,1.9 0.3,0.7 0.5,1.5 0.5,2.2 0.2,1.3 0.7,2.5 1.6,2.8 0.9,0.4 2.2,0.1 3.2,-0.5 v 0 c 0.1,-0.1 0.3,-0.1 0.5,-0.1 0.7,0 1.2,0.1 1.8,0.5 0.6,0.3 1.2,0.9 1.4,1.6 0.2,0.7 0.2,1.4 0,2 -0.1,0.6 -0.3,1.1 -0.6,1.5 -0.5,0.9 -1,1.8 -1.6,2.5 -0.6,0.8 -1.1,1.4 -1.6,2.2 -2,3 -3.9,6.2 -5.7,9.4 -3.6,6.5 -7,13.1 -10.8,19.6 -0.9,1.6 -2.1,3.3 -3.3,4.7 -1.2,1.5 -2.5,2.9 -3.9,4.2 -2.8,2.6 -5.7,5 -8.8,7.1 -3.1,2.2 -6.4,4 -9.8,5.7 -1.7,0.8 -3.4,1.6 -5.2,2.2 -1.8,0.6 -3.6,1.2 -5.4,1.6 -0.1,0 -0.2,0 -0.2,-0.1 0,-0.1 0,-0.1 0.1,-0.2 3.5,-1.3 6.8,-3 9.9,-4.9 3.2,-1.9 6.2,-4 9.1,-6.3 2.9,-2.3 5.7,-4.7 8.2,-7.3 1.3,-1.3 2.5,-2.6 3.6,-4.1 1.1,-1.4 2.1,-2.8 3,-4.4 3.8,-6.4 7.3,-12.9 11.1,-19.3 1.9,-3.2 3.9,-6.4 6.2,-9.5 0.6,-0.7 1.2,-1.5 1.8,-2.2 0.6,-0.7 1.1,-1.4 1.5,-2.1 0.4,-0.7 0.6,-1.5 0.5,-1.8 0,-0.2 -0.1,-0.3 -0.4,-0.5 -0.2,-0.1 -0.6,-0.3 -0.9,-0.3 l 0.5,-0.1 c -0.8,0.4 -1.5,0.6 -2.3,0.7 -0.8,0.1 -1.7,0 -2.5,-0.4 -0.8,-0.4 -1.4,-1.2 -1.7,-1.9 -0.3,-0.8 -0.5,-1.5 -0.5,-2.3 -0.1,-1.3 -0.4,-2.6 -1.3,-3.3 -0.9,-0.7 -2.3,-0.7 -3.4,-0.2 l 0.1,-0.1 c -0.8,0.6 -1.6,0.9 -2.4,1.2 -0.8,0.3 -1.6,0.5 -2.5,0.7 -1.7,0.3 -3.3,0.5 -5,0.6 -3.4,0.2 -6.7,0 -10.1,-0.3 -1.7,-0.1 -3.3,-0.3 -5,-0.6 -1.7,-0.2 -3.3,-0.5 -4.9,-0.7 -3.3,-0.4 -6.6,-0.7 -9.8,-0.9 -6.6,-0.4 -13.2,-0.5 -19.8,-0.4 -6.6,0.1 -13.3,0.4 -19.9,0.8 -0.1,0 -0.2,-0.1 -0.2,-0.1 -0.4,0.2 -0.3,0.1 -0.3,0.1 z"
   id="path248"
   inkscape:connector-curvature="0"
   style="fill:#3f3e29" />
	</g>
	<g
   display="inline"
   id="g254"
   style="display:inline">
		<path
   d="m 176.7,-18.4 c 0.4,-0.8 0.7,-1.6 1.1,-2.3 v 0.2 c -0.5,-1.1 -0.9,-2.2 -1.1,-3.4 -0.2,-1.2 -0.1,-2.4 0.2,-3.7 0.2,-0.6 0.4,-1.2 0.8,-1.7 0.1,-0.2 0.3,-0.5 0.5,-0.8 0.2,-0.2 0.4,-0.5 0.6,-0.7 0.9,-0.9 2.1,-1.6 3.5,-1.7 0.7,-0.1 1.4,0 2.1,0.4 0.7,0.3 1.2,0.8 1.7,1.4 0.8,1.1 1.1,2.5 1.3,3.7 0.1,1.1 0.4,2.1 0.9,2.9 0.5,0.8 1.2,1.2 2.1,1.4 0.5,0.1 1,0.1 1.5,0.1 0.5,0 1.1,0 1.9,0.1 1.3,0.3 2.5,0.8 3.5,1.6 0.5,0.4 1,1 1.3,1.8 0.3,0.8 0.1,1.8 -0.4,2.4 -0.9,1.2 -2,1.8 -3.1,2.3 -1.1,0.5 -2.2,1 -3.4,1.2 -0.6,0.1 -1.3,0.1 -2,-0.1 -0.3,-0.1 -0.6,-0.3 -0.9,-0.4 -0.2,-0.1 -0.4,-0.2 -0.6,-0.2 -0.4,0 -1,0.2 -1.5,0.4 -0.5,0.2 -1,0.5 -1.5,0.8 -1,0.6 -2,1.2 -2.9,1.8 0.8,-0.8 1.7,-1.6 2.6,-2.3 0.5,-0.4 0.9,-0.7 1.5,-1 0.5,-0.3 1.1,-0.6 1.8,-0.7 0.4,0 0.8,0.1 1.1,0.2 0.3,0.1 0.5,0.2 0.7,0.3 0.4,0.1 0.9,0.1 1.4,-0.1 1,-0.3 2,-0.8 3,-1.3 0.9,-0.5 1.9,-1.2 2.3,-1.9 0.2,-0.4 0.2,-0.6 0.1,-0.9 -0.1,-0.3 -0.4,-0.6 -0.8,-0.9 -0.8,-0.6 -1.8,-1 -2.7,-1.2 -0.4,-0.1 -0.9,0 -1.6,0 -0.6,0 -1.2,0 -1.9,-0.1 -0.7,-0.1 -1.4,-0.4 -2,-0.8 -0.6,-0.4 -1.1,-1 -1.5,-1.6 -0.7,-1.2 -1,-2.5 -1.1,-3.7 -0.1,-1.1 -0.3,-2.1 -0.8,-2.8 -0.5,-0.7 -1.3,-1.2 -2.2,-1.1 -1.9,0.1 -3.7,1.8 -4.4,3.7 -0.8,2 -0.6,4.4 0.1,6.5 v 0.1 l -0.1,0.1 c -0.1,0.6 -0.6,1.3 -1.1,2 z"
   id="path252"
   inkscape:connector-curvature="0"
   style="fill:#3f3e29" />
	</g>
	<g
   display="inline"
   id="g258"
   style="display:inline">
		<path
   d="m 136.6,8.8 c 2.7,-1.8 5.5,-3.2 8.3,-4.6 2.8,-1.4 5.8,-2.4 8.7,-3.6 l 8.8,-3.5 8.8,-3.4 0.1,0.2 -8.5,4.2 -8.5,3.9 c -2.8,1.3 -5.6,2.8 -8.6,4 -2.9,1.1 -5.9,2.2 -9,3 z"
   id="path256"
   inkscape:connector-curvature="0"
   style="fill:#3f3e29" />
	</g>
	<g
   display="inline"
   id="g262"
   style="display:inline">
		<path
   d="m 140.1,32.6 c 2.7,-1.9 5.3,-4.1 7.8,-6.2 2.5,-2.2 5.1,-4.2 7.6,-6.5 2.5,-2.3 4.8,-4.6 7.2,-7 2.3,-2.4 4.6,-4.9 6.8,-7.4 l 0.2,0.1 c -2,2.7 -4.1,5.3 -6.2,7.9 -2.2,2.6 -4.4,5.1 -6.8,7.5 -2.4,2.4 -4.7,4.9 -7.5,6.9 -1.4,1 -2.8,2 -4.3,2.8 -1.5,0.8 -3,1.6 -4.7,2.1 z"
   id="path260"
   inkscape:connector-curvature="0"
   style="fill:#3f3e29" />
	</g>
	<g
   display="inline"
   id="g266"
   style="display:inline">
		<path
   d="m 123.6,-11.4 c 2.6,-0.2 5.1,0 7.6,0.3 2.5,0.2 5,0.9 7.5,1.3 2.5,0.4 5,0.7 7.5,0.8 2.5,0.1 5,0 7.6,0 v 0.2 c -2.5,0.3 -5,0.6 -7.6,0.8 -2.6,0.1 -5.1,0 -7.7,-0.2 -2.5,-0.2 -5.1,-0.3 -7.6,-0.9 -2.5,-0.5 -4.9,-1.1 -7.4,-2 z"
   id="path264"
   inkscape:connector-curvature="0"
   style="fill:#3f3e29" />
	</g>
	<g
   display="inline"
   id="g270"
   style="display:inline">
		<path
   d="m 126.6,-14.8 c 4.9,2.2 9.3,5.3 13.2,9.1 3.9,3.7 7.1,8.2 9.3,13.2 1,2.5 1.8,5.2 2.2,7.8 0.4,2.7 0.5,5.4 0.3,8.1 -0.5,5.4 -2.2,10.6 -4.8,15.2 1.8,-5 3.1,-10.1 3.3,-15.3 0.2,-5.2 -0.8,-10.4 -2.8,-15.1 -2,-4.8 -5,-9.1 -8.5,-12.9 -3.7,-3.8 -7.8,-7.2 -12.2,-10.1 z"
   id="path268"
   inkscape:connector-curvature="0"
   style="fill:#3f3e29" />
	</g>
	<g
   display="inline"
   id="g274"
   style="display:inline">
		<path
   d="m 153.7,-3.5 c 1.9,1.5 3.5,3.3 4.8,5.2 1.4,2 2.5,4.1 3.3,6.4 0.8,2.3 1.2,4.8 1,7.2 -0.2,2.4 -1,4.9 -2.4,6.8 0.7,-2.3 1,-4.5 0.8,-6.8 -0.1,-2.2 -0.6,-4.4 -1.4,-6.6 -0.7,-2.1 -1.7,-4.2 -2.7,-6.2 -0.9,-2 -2.1,-4 -3.4,-6 z"
   id="path272"
   inkscape:connector-curvature="0"
   style="fill:#3f3e29" />
	</g>
</g>
<g
   id="Layer_5"
   transform="translate(0,165.60001)">
	
	<path
   display="none"
   d="m 55.7,73.8 c 0,0 -4.3,10.4 11.9,11.6 0,0 2.4,8.1 -1.4,13.1 0,0 -17.1,-1.9 -15.7,-15.8 0,0 2.8,-8.5 5.2,-8.9 z"
   id="path279"
   inkscape:connector-curvature="0"
   style="display:none;fill:#ef4135" />
	<g
   display="none"
   id="g285"
   style="display:none">
		<g
   display="inline"
   id="g283"
   style="display:inline">
			<path
   d="m 152.6,125.9 c 2.3,-0.4 3.5,-0.8 5,-1.9 v -21.9 c 0,-3.8 -1.4,-4.9 -5.3,-5 l 0.2,-2.3 c 3.3,-0.6 6.5,-1.7 9.4,-2.6 l 1.3,0.7 0.6,4 c 0.5,-0.6 4,-4.7 9.1,-4.7 4.5,0 7.8,1.6 9.8,5 2.5,-2.5 5.8,-5 10,-5 6.1,0 11.5,3.1 11.5,11.5 V 124 c 0.9,0.7 3.1,1.6 5.3,2.1 l -0.3,2.6 h -16.8 l 0.2,-2.6 c 1.9,-0.3 3.6,-1 5,-2.1 v -20.4 c 0,-5.3 -1.9,-7.6 -5.8,-7.6 -3.6,0 -6.9,3.3 -7.7,6 v 22 c 0.9,0.7 3.1,1.6 5.3,2.1 l -0.3,2.6 h -16.8 l 0.2,-2.6 c 1.9,-0.3 3.6,-1 5,-2.1 v -20.4 c 0,-5.3 -1.9,-7.6 -5.7,-7.6 -3.6,0 -6.9,3.3 -7.7,6 v 22 c 1.3,0.9 3.1,1.6 5.3,2.1 l -0.3,2.6 h -16.9 z"
   id="path281"
   inkscape:connector-curvature="0"
   style="fill:#ecdfa7" />
		</g>
	</g>
	
	
<g
   id="g309-8-0"
   transform="matrix(1.7507446,0,0,1.7507446,-306.63606,-131.00114)"
   style="fill:#263238;fill-opacity:1" /><path
   style="fill:#f4511e;fill-opacity:1;fill-rule:nonzero;stroke:none;stroke-width:0;stroke-linejoin:round;stroke-miterlimit:4;stroke-dasharray:none;stroke-opacity:1"
   d="M 78.419922,33.292969 C 66.372951,32.991379 51.496094,39.291016 51.496094,39.291016 L 100.69141,139.08203 74.605469,250.60547 c 23.810136,20.13355 50.070311,10.50391 50.070311,10.50391 l 12.08399,-86.29688 c 1.52651,1.44572 3.14574,2.77044 4.77734,3.99414 5.24395,3.71448 10.92451,6.55329 16.60547,8.73828 5.68097,2.18499 11.58296,3.93315 17.48242,5.24414 3.93298,0.87399 7.64515,1.52981 11.57812,1.9668 -1.74799,3.93298 -2.8396,8.0834 -2.62109,12.67187 0,0.437 0.21927,0.8733 0.65625,1.0918 h 0.2168 c 4.15145,2.18499 8.52117,3.93484 13.32812,5.02735 4.58849,0.87398 9.61491,1.31174 14.42188,0.65624 5.02546,-0.65549 10.05139,-2.62293 13.98437,-5.90039 3.93297,-3.27748 6.77349,-7.64785 8.52149,-12.23632 l 0.21875,-0.21875 v -0.2168 l 0.65625,-5.89844 v -0.2207 c 2.18496,-1.31098 4.36972,-2.62115 6.55468,-4.36914 2.62199,-2.18498 5.02549,-4.58948 6.77344,-7.64844 1.74803,-3.05898 2.83959,-6.77379 2.6211,-10.48828 -0.21851,-3.49597 -1.53104,-6.98986 -3.06055,-10.04883 -1.52948,-3.05899 -3.49472,-5.90145 -5.67969,-8.52344 -4.36995,-5.02547 -9.61394,-9.17565 -15.29492,-12.45312 -5.46246,-3.49599 -11.58126,-6.33821 -17.69922,-8.30469 l -2.4043,-0.65625 -1.96289,-0.6543 c -1.311,-0.437 -2.40556,-1.09229 -3.49804,-1.52929 -2.18498,-1.31099 -3.7161,-2.62312 -4.8086,-4.3711 -2.185,-3.27748 -2.40304,-8.30095 -1.31054,-13.54492 0.21849,-1.311 0.65675,-2.6226 1.09375,-3.93359 0.43695,-1.31099 0.87353,-2.62284 1.31054,-4.152346 0.31379,-1.41207 0.50914,-2.828853 0.59766,-4.402343 L 229.02148,68.878906 C 226.74552,60.47533 201.5332,51.720703 201.5332,51.720703 L 126.60156,115.44727 83.359375,33.863281 c -1.55379,-0.35014 -3.21846,-0.527222 -4.939453,-0.570312 z M 186.10156,106.43359 c -0.44835,2.33537 -0.64648,4.79486 -0.64648,7.25782 0.21849,3.71448 1.31138,7.86925 3.71484,11.36523 2.40351,3.49596 5.67958,6.11699 8.95703,7.64648 1.74799,0.87397 3.49786,1.5298 5.02735,1.9668 l 2.62304,0.6543 2.1836,0.4375 c 5.68096,1.52949 11.14249,3.71421 16.16797,6.55469 5.02544,2.84049 9.83265,6.33656 13.76562,10.26953 3.93298,3.93298 6.99271,8.9589 7.42969,13.98437 0.21851,3.49597 -0.22003,6.11775 -1.3125,8.30274 -1.0925,2.40348 -2.84015,4.58819 -4.80664,6.55468 -0.87401,0.87399 -1.96588,1.74686 -2.83985,2.40235 0,-1.96648 -0.2173,-3.93197 -0.65429,-5.89844 -0.21851,-1.09251 -0.438,-1.9661 -0.875,-3.05859 -0.43699,-0.87399 -0.87234,-1.96561 -1.96485,-2.6211 -0.2185,0 -0.43945,-9.9e-4 -0.43945,0.2168 -1.31099,3.27748 -3.49495,6.11945 -5.89844,8.08594 -2.4035,1.96649 -5.46247,2.84009 -8.52148,3.05859 -3.05895,0.21851 -6.33776,-0.43656 -9.61524,-1.31055 -3.27748,-0.874 -6.55259,-1.96805 -9.83007,-3.06054 l -0.43946,-0.21875 c -0.6555,-0.2185 -1.52593,0.002 -1.96289,0.43945 -1.74802,2.18499 -3.06035,4.149 -4.58984,6.33399 -1.0925,1.74799 -1.96585,3.27935 -2.83984,5.02734 -3.93298,-1.5295 -7.64907,-2.8416 -11.58204,-4.3711 -5.46247,-2.18497 -10.92568,-4.36824 -15.95117,-6.99023 -5.24397,-2.40348 -10.26673,-5.24597 -14.63672,-8.52344 -3.15078,-2.3631 -6.06238,-4.84536 -8.18554,-7.68164 l 2.40429,-17.17187 z"
   transform="translate(0,-165.60001)"
   id="rect4872"
   inkscape:connector-curvature="0" /></g>
</svg>