<svg xmlns="http://www.w3.org/2000/svg" viewBox="0 0 32 32">
  <g>
    <path d="M12.02277,12.00006a4.00128,4.00128,0,0,0-3.939,3.182,1.00055,1.00055,0,0,1-.97284.81793h-1.882c-.78277,0-1.22888-.44769-1.22888-1v-1L3.99939,14H3a1,1,0,0,0-1,1v1H2c0,3.866,3.134,5.99994,7,5.99994,3.42493,0,6.27545-1.67487,6.88116-4.74518C16.42639,14.49115,14.83966,12.01575,12.02277,12.00006Z" style="fill: #ff7043"/>
    <path d="M29,14H28v1c0,.55225-.44611,1-1.22888,1h-1.882a1.0006,1.0006,0,0,1-.97284-.818,4.00128,4.00128,0,0,0-3.939-3.182c-2.81689.01575-4.40362,2.49109-3.85839,5.2547C16.72455,20.32507,19.57507,22,23,22c3.866,0,7-2.134,7-6V15A1,1,0,0,0,29,14Z" style="fill: #ff7043"/>
  </g>
</svg>
