<svg xmlns="http://www.w3.org/2000/svg" viewBox="0 0 32 32"><path fill="#ff7043" d="M12.023 12a4.001 4.001 0 0 0-3.94 3.182 1 1 0 0 1-.972.818H5.229C4.446 16 4 15.552 4 15v-1H3a1 1 0 0 0-1 1v1c0 3.866 3.134 6 7 6 3.425 0 6.275-1.675 6.881-4.745.545-2.764-1.041-5.24-3.858-5.255Z"/><path fill="#ff7043" d="M29 14h-1v1c0 .552-.446 1-1.229 1H24.89a1 1 0 0 1-.973-.818A4.001 4.001 0 0 0 19.977 12c-2.817.016-4.403 2.491-3.858 5.255C16.725 20.325 19.575 22 23 22c3.866 0 7-2.134 7-6v-1a1 1 0 0 0-1-1Z"/></svg>