<svg xmlns="http://www.w3.org/2000/svg" viewBox="0 0 16 16"><path fill="#00bfa5" d="M7.332 4.707c-1.641 0-1.459-1.714-.638-1.714.82 0 1.276.992 1.276.992.183-.18.912-1.173 1.277-.812.274.361.638.632.73.632 1.823-1.714 2.37-1.985 3.1-1.714 2.006.721 2.462 3.067 1.276 4.24-.82.902-3.1.541-3.1.541l.82.993c-.729.992-2.096.541-2.096.541 1.459 3.068-.73 5.594-.73 5.594H7.15s.273-1.624-1.368-1.534C4.323 12.466 4.597 14 4.597 14h-2.28c-.183-.451-2.553-3.428-.456-6.496 2.006-2.887 5.106-1.985 5.106-1.985l.456-.722zm1.824-.451c-.274 0-.547.27-.547.541 0 .27.273.542.547.542.273 0 .547-.271.547-.542 0-.27-.274-.541-.547-.541"/></svg>