<svg viewBox="0 0 24 24" fill="none" xmlns="http://www.w3.org/2000/svg">
  <path
    d="M22 17.117s-3.199-.472-4.889-.607a71.83 71.83 0 0 0-5.61-.205c-2.064 0-3.987.075-5.61.205-1.69.137-4.889.792-4.889.792v.823c0 .73 4.7 1.325 10.499 1.325 5.798 0 10.498-.594 10.498-1.325L22 17.117ZM8.273 6.206a9.582 9.582 0 0 0-6.394 9.023v1.356a23.401 23.401 0 0 1 4.167-.601c-.01-.262-.014-.525-.014-.787.001-3.56.864-6.761 2.241-8.991Z"
    fill="#FFD600" />
  <path
    d="M21.122 15.229a9.51 9.51 0 0 0-2.196-6.09 19.76 19.76 0 0 1 .911 6.059c0 .37-.01.74-.029 1.109.438.067.872.158 1.3.274l.014-1.352Z"
    fill="#FFEE58" />
  <path
    d="M18.926 9.138A9.66 9.66 0 0 0 8.273 6.206c-1.377 2.229-2.24 5.432-2.24 8.992 0 .264.004.526.013.786a70.64 70.64 0 0 1 4.869-.19h.587a56.383 56.383 0 0 1 8.307.515c.019-.366.028-.735.029-1.11.013-2.055-.295-4.1-.912-6.06v-.001Z"
    fill="#FFEE58" />
  <path
    d="m15.371 9.772-.61-3.794a.73.73 0 0 0-.516-.589 9.708 9.708 0 0 0-5.442 0 .732.732 0 0 0-.516.59l-.61 3.793h7.694Zm-3.87 5.941h-.586c-5.526.039-9.912.616-9.912 1.323v1.025a.255.255 0 0 0 .036.173c.28-.21.603-.358.946-.433.873-.211 1.76-.36 2.655-.442a1.784 1.784 0 0 1 1.392.452c.692.63 1.594.98 2.53.979h5.878a3.76 3.76 0 0 0 2.53-.979 1.781 1.781 0 0 1 1.393-.453c.894.084 1.781.232 2.654.443.324.062.63.195.897.39.015.015.033.029.046.043a.258.258 0 0 0 .037-.174v-1.024c.003-.73-4.699-1.323-10.496-1.323Z"
    fill="#FFEE58" />
  <path d="M13.713 12.67 11.5 14.027v1.761l2.213-3.118Z" fill="#212121" />
  <path
    d="M11.5 15.788v-1.761L9.287 12.67l2.213 3.118Zm-2.213-3.923 2.214 1.274V8.301l-2.214 3.564ZM13.713 11.865l-2.212-3.564v4.838l2.212-1.274Z"
    fill="#212121" />
</svg>