<svg xmlns="http://www.w3.org/2000/svg" data-name="Layer 1" viewBox="0 0 300 300"><path fill="#00acc1" d="M148.014 286.552c-1.986-1.376-4.331-5.94-5.67-11.019-1.19-4.517-1.64-16.429-.845-22.27.297-2.175.467-4.026.374-4.116-.088-.092-1.934-.38-4.102-.64-12.481-1.506-25.802-5.747-35.943-11.447-2.15-1.21-4.167-2.199-4.477-2.199-.312 0-1.407 1.62-2.436 3.6-4.777 9.198-13.122 18.332-19.465 21.305-2.315 1.086-5.402 1.35-6.829.585-2.152-1.152-2.79-5.72-1.503-10.777.879-3.463 4.416-10.749 7.283-15.005 1.267-1.88 3.768-5.068 5.562-7.086l3.254-3.667-1.697-1.623c-4.472-4.273-12.874-14.16-12.874-15.152 0-.354 11.463-8.317 12.298-8.543.424-.114 1.451.901 2.843 2.814 3.012 4.14 11.067 12.105 15.807 15.627 36.132 26.861 87.06 20.116 114.48-15.165 1.456-1.873 2.874-3.408 3.15-3.408.55 0 11.897 7.695 12.29 8.332.356.574-4.603 7-8.838 11.459-2.011 2.117-3.656 4.021-3.651 4.23 0 .211 1.582 2.045 3.508 4.078 6.121 6.453 12.145 16.528 13.818 23.109 1.284 5.056.646 9.625-1.504 10.777-.466.25-1.697.45-2.74.448-6.595-.015-17.532-10.605-24.022-23.26-1.253-2.44-2.46-4.437-2.687-4.437s-1.5.7-2.83 1.55c-9.43 6.044-23.51 11.257-35.69 13.213-2.59.418-4.922.924-5.182 1.124-.336.261-.294 1.482.15 4.22.791 4.893.486 16.505-.556 21.201-1.078 4.848-2.73 8.605-4.771 10.834-2.344 2.564-4.166 2.93-6.508 1.308zm-129.646-98.84c-.116-.308-.163-16.387-.099-35.734l.112-35.176h18.437l.116 12.949c.088 9.689.255 13.037.66 13.294.299.19 4.914.348 10.256.352 7.565.004 9.82-.123 10.199-.58.323-.392.525-4.815.602-13.301l.114-12.714h18.437v71.231H58.766l-.117-13.593c-.077-9.135-.275-13.785-.602-14.18-.379-.458-2.645-.587-10.256-.587s-9.876.13-10.256.587c-.326.395-.524 5.045-.603 14.18l-.116 13.593-9.12.119c-7.057.092-9.167-.007-9.33-.44zm74.624-.004c-.117-.306-.16-16.383-.097-35.73l.112-35.176h45.654l.121 7.798.119 7.798-13.508.116-13.51.117-.123 5.241c-.092 3.898.02 5.334.44 5.6.308.198 5.556.36 11.656.365l11.094.006-.119 7.805-.12 7.805-11.413.22-11.412.22v12.311l14.046.22 14.048.22v15.39l-23.39.111c-18.476.09-23.431 0-23.598-.44zm61.457 0c-.117-.306-.16-16.383-.097-35.73l.112-35.176h18.437l.22 27.7.22 27.702 13.388.22 13.39.22v15.39l-22.729.113c-17.95.088-22.776-.004-22.94-.44zm58.38-.005c-.114-.303-.158-16.378-.096-35.725l.114-35.176 9.658-.11c5.312-.057 9.876.042 10.142.22.65.442 10.399 26.997 12.551 34.186 2.236 7.48 2.062 7.036 2.57 6.53.238-.238 1.275-3.188 2.307-6.56 2.273-7.425 11.26-33.167 11.854-33.945.325-.427 2.69-.528 10.13-.44l9.707.119v71.231l-8.22.121-8.22.119-.29-1.165c-.607-2.417.206-27.862 1.12-35.132 1.44-11.435 1.223-11.613-2.172-1.76-3.671 10.661-10.968 30.259-11.665 31.33-.598.923-.958.989-5.188.989-3.115 0-4.68-.172-4.975-.55-.543-.695-9.505-25.085-11.954-32.531-1.728-5.255-2.666-7.145-2.636-5.307.007.44.411 4.06.897 8.05.908 7.476 1.713 32.53 1.12 34.9l-.29 1.154h-8.127c-6.098 0-8.178-.137-8.336-.55zm5.807-81.212c-1.728-2.933-6.079-8.407-9.761-12.281-11.855-12.477-26.13-20.363-43.656-24.118-5.02-1.075-6.351-1.176-15.585-1.196-10.872-.024-13.266.247-21.686 2.452-11.397 2.985-21.79 8.282-30.992 15.796-4.424 3.612-11.47 11.043-14.48 15.27-1.853 2.604-2.787 3.567-3.275 3.382-1.599-.607-12.312-7.811-12.308-8.273.016-1.042 7.233-10.091 12.13-15.211l5.063-5.294-3.349-3.632c-6.12-6.64-11.988-16.529-13.624-22.961-1.284-5.057-.646-9.625 1.506-10.78.464-.248 1.697-.45 2.74-.448 6.595.015 17.53 10.608 24.023 23.262 1.25 2.44 2.429 4.435 2.616 4.435.191 0 1.906-.89 3.814-1.979 9.805-5.595 25.545-10.584 36.26-11.487 1.849-.156 3.595-.427 3.878-.603.39-.241.33-1.42-.235-4.808-1.042-6.243-.717-18.472.624-23.552 2.126-8.051 5.54-12.56 9.014-11.907 3.243.609 6.387 5.898 8.025 13.498 1.066 4.958 1.092 18.903.044 23.472-.387 1.692-.576 3.214-.418 3.38.158.168 2.264.617 4.676.995 13.991 2.198 24.601 6.105 37.603 13.837.886.528 1.717.78 1.851.565s1.333-2.574 2.665-5.241c5.144-10.294 13.426-19.648 20.215-22.832 2.317-1.086 5.402-1.35 6.829-.584 2.154 1.154 2.792 5.72 1.506 10.777-.94 3.693-4.549 10.983-7.783 15.719-1.51 2.212-4.577 5.872-6.815 8.134l-4.068 4.112 4.002 4.256c4.047 4.302 11.194 13.426 12.503 15.961.593 1.145.613 1.466.123 1.917-1.005.926-11.8 7.264-12.371 7.264-.297 0-.884-.583-1.304-1.297"/></svg>