<?xml version="1.0" encoding="UTF-8" standalone="no"?>
<!-- Generator: Adobe Illustrator 18.1.1, SVG Export Plug-In . SVG Version: 6.00 Build 0)  -->

<svg
   xmlns:dc="http://purl.org/dc/elements/1.1/"
   xmlns:cc="http://creativecommons.org/ns#"
   xmlns:rdf="http://www.w3.org/1999/02/22-rdf-syntax-ns#"
   xmlns:svg="http://www.w3.org/2000/svg"
   xmlns="http://www.w3.org/2000/svg"
   xmlns:sodipodi="http://sodipodi.sourceforge.net/DTD/sodipodi-0.dtd"
   xmlns:inkscape="http://www.inkscape.org/namespaces/inkscape"
   version="1.1"
   x="0px"
   y="0px"
   viewBox="0 0 144 152"
   enable-background="new 0 0 144 152"
   xml:space="preserve"
   id="svg20"
   sodipodi:docname="heroku.svg"
   inkscape:version="0.92.1 r15371"><metadata
   id="metadata26"><rdf:RDF><cc:Work
       rdf:about=""><dc:format>image/svg+xml</dc:format><dc:type
         rdf:resource="http://purl.org/dc/dcmitype/StillImage" /></cc:Work></rdf:RDF></metadata><defs
   id="defs24" /><sodipodi:namedview
   pagecolor="#ffffff"
   bordercolor="#666666"
   borderopacity="1"
   objecttolerance="10"
   gridtolerance="10"
   guidetolerance="10"
   inkscape:pageopacity="0"
   inkscape:pageshadow="2"
   inkscape:window-width="1366"
   inkscape:window-height="705"
   id="namedview22"
   showgrid="false"
   inkscape:zoom="3.1052632"
   inkscape:cx="94.958737"
   inkscape:cy="83.822496"
   inkscape:window-x="-8"
   inkscape:window-y="-8"
   inkscape:window-maximized="1"
   inkscape:current-layer="svg20" />
<g
   id="work"
   display="none">
	<g
   id="logotype"
   display="inline">
		<g
   id="logotype_original">
		</g>
		<g
   id="k_development">
		</g>
		<g
   id="r_development">
		</g>
		<g
   id="e_development">
		</g>
	</g>
	<g
   id="logo_v1"
   display="inline">
	</g>
	<g
   id="logo_v2"
   display="inline">
	</g>
	<g
   id="logo_v3__x28_stroke_x29_"
   display="inline">
		<g
   id="logo-8pt-stroke">
		</g>
		<g
   id="logo-9pt-stroke">
		</g>
		<g
   id="logo-9pt-expanded">
		</g>
	</g>
</g>
<g
   id="gradient"
   transform="matrix(1.5939736,0,0,1.5939736,-42.315255,-44.104331)">
</g>
<g
   id="white"
   transform="matrix(1.5939736,0,0,1.5939736,-42.315255,-44.104331)">
</g>
<g
   id="black"
   transform="matrix(1.5939736,0,0,1.5939736,-42.315255,-44.104331)">
</g>
<g
   id="purple"
   transform="matrix(1.5939736,0,0,1.5939736,-41.993221,-44.104331)"
   style="fill:#6963b9;fill-opacity:1">
	<path
   d="M 100.8,36 H 43.2 C 39.224,36 36,39.224 36,43.2 v 65.6 c 0,3.976 3.224,7.2 7.2,7.2 h 57.6 c 3.976,0 7.2,-3.224 7.2,-7.2 V 43.2 C 108,39.224 104.776,36 100.8,36 Z M 54,104 V 88 l 9,8 z m 28,0 V 80.11 C 81.961,78.243 81.062,76 77,76 68.866,76 59.742,80.091 59.651,80.132 L 54,82.692 V 48 h 8 V 70.711 C 65.994,69.411 71.577,68 77,68 c 4.945,0 7.905,1.944 9.517,3.575 3.441,3.48 3.488,7.913 3.483,8.425 v 24 z m 2,-43 h -8 c 3.144,-4.125 5.118,-8.466 6,-13 h 8 c -0.54,4.544 -2.382,8.9 -6,13 z"
   id="path17"
   inkscape:connector-curvature="0"
   style="fill:#6963b9;fill-opacity:1" />
</g>
</svg>