<svg xmlns="http://www.w3.org/2000/svg" xml:space="preserve" viewBox="0 0 24 24"><path fill="#78909c" d="M13.454 7.543a1.204 1.204 0 0 0-.651-.19A1.204 1.204 0 0 0 11.6 8.555a1.204 1.204 0 0 0 1.204 1.206 1.204 1.204 0 0 0 1.204-1.206 1.204 1.204 0 0 0-.554-1.013zM9.751 6.295a1.21 1.21 0 0 0-.249-.098H9.5a452.614 452.614 0 0 1-3.133-.947.906.906 0 0 0-.422-.014.748.748 0 0 0-.497.435l-.001.001a.74.74 0 0 0 .021.625.987.987 0 0 0 .364.361l.001.002c1.226.763 2.456 1.517 3.774 2.333l.477.296.001-.561c0-.672-.02-1.236.004-1.783a.724.724 0 0 0-.184-.536.689.689 0 0 0-.153-.114zm1.689 4.634a.605.605 0 0 0-.288-.073h-.406a.6.6 0 0 0-.6.6v4.623c0 .332.268.598.6.598h.408c.332 0 .6-.266.6-.598l-.002-4.623a.597.597 0 0 0-.312-.527z" color="#000" style="-inkscape-stroke:none" transform="rotate(-15 .475 8.362) scale(.9232)"/><path fill="#8bc34a" d="m21.578 9.77-2.203.59.59 2.203-5.508 1.476a2.28 2.28 0 0 0-1.612 2.793 2.28 2.28 0 0 0-2.79-1.61l-5.508 1.475-.59-2.205-2.203.59.59 2.205A2.28 2.28 0 0 0 5.138 18.9l4.406-1.18a2.28 2.28 0 0 1 2.792 1.61l.295 1.102 2.203-.59-.295-1.103a2.28 2.28 0 0 1 1.613-2.79l4.405-1.18a2.28 2.28 0 0 0 1.612-2.794v-.002z"/></svg>