<?xml version="1.0" encoding="UTF-8" standalone="no"?>
<svg xmlns="http://www.w3.org/2000/svg" viewBox="0 0 24 24" version="1.1">
    <path d="M21.967 13.27a2.21 2.21 0 01-1.792 2.558l-4.353.767a2.21 2.21 0 00-1.792 2.56l.193 1.088-2.177.383-.19-1.088a2.21 2.21 0 00-2.56-1.792l-4.353.768a2.21 2.21 0 01-2.559-1.793L2 14.545l2.176-.383.384 2.176 5.44-.959a2.21 2.21 0 012.559 1.792 2.21 2.21 0 011.792-2.56l5.44-.958-.384-2.177 2.176-.383.384 2.176" fill="#01c853" />
    <path d="M13.354 4.534a1.16 1.16 0 01-1.16 1.16 1.16 1.16 0 01-1.16-1.16 1.16 1.16 0 011.16-1.16 1.16 1.16 0 011.16 1.16zM9.288 6.22c-1.268-.506-2.453-.975-3.631-1.45-.204-.083-.378-.224-.319-.478.068-.287.289-.318.544-.286.918.114 1.837.224 2.755.331.201.025.347.07.38.324.065.491.17.98.27 1.559zm2.734 1.814c-.053-.298-1.009-.013-1.182.05-.171.064-1.052.11-.983.483.232 1.28.467 2.767.685 4.05.06.342.845.015 1.042-.004.226-.022 1.185-.204 1.11-.487-.228-1.319-.45-2.81-.678-4.092z" fill="#eeeeee" />
</svg>