<?xml version="1.0" encoding="UTF-8" standalone="no"?>
<svg
   xmlns:dc="http://purl.org/dc/elements/1.1/"
   xmlns:cc="http://creativecommons.org/ns#"
   xmlns:rdf="http://www.w3.org/1999/02/22-rdf-syntax-ns#"
   xmlns:svg="http://www.w3.org/2000/svg"
   xmlns="http://www.w3.org/2000/svg"
   xmlns:sodipodi="http://sodipodi.sourceforge.net/DTD/sodipodi-0.dtd"
   xmlns:inkscape="http://www.inkscape.org/namespaces/inkscape"
   inkscape:version="1.0 (4035a4fb49, 2020-05-01)"
   sodipodi:docname="hjson.svg"
   id="svg42"
   version="1.1"
   viewBox="0 0 32 32">
  <metadata
     id="metadata48">
    <rdf:RDF>
      <cc:Work
         rdf:about="">
        <dc:format>image/svg+xml</dc:format>
        <dc:type
           rdf:resource="http://purl.org/dc/dcmitype/StillImage" />
      </cc:Work>
    </rdf:RDF>
  </metadata>
  <defs
     id="defs46" />
  <sodipodi:namedview
     inkscape:current-layer="svg42"
     inkscape:window-maximized="1"
     inkscape:window-y="-8"
     inkscape:window-x="-8"
     inkscape:cy="24.853965"
     inkscape:cx="24.099136"
     inkscape:zoom="5.6568543"
     showgrid="false"
     id="namedview44"
     inkscape:window-height="705"
     inkscape:window-width="1366"
     inkscape:pageshadow="2"
     inkscape:pageopacity="0"
     guidetolerance="10"
     gridtolerance="10"
     objecttolerance="10"
     borderopacity="1"
     bordercolor="#666666"
     pagecolor="#ffffff" />
  <title
     id="title36">hjson</title>
  <path
     id="path38"
     style="fill:#01c853;stroke-width:0;stroke-miterlimit:4;stroke-dasharray:none;fill-opacity:1"
     d="m 17.632,21.158 c 0.335,-1.724 1.652,-2.3 3.107,-2.633 1.356,-0.315 2.735,-0.53 4.105,-0.785 a 5.912,5.912 0 0 0 1.658,-0.534 2.181,2.181 0 0 0 1.266,-2.573 c -0.087,-0.461 -0.03,-0.654 0.5,-0.75 1.664,-0.3 1.7,-0.29 1.73,1.4 a 3.519,3.519 0 0 1 -2.074,3.359 16.345,16.345 0 0 1 -4.608,1.226 c -0.745,0.149 -1.5,0.263 -2.233,0.451 -1.667,0.427 -2.22,1.257 -1.959,2.943 0.062,0.4 -0.022,0.581 -0.431,0.58 a 0.776,0.776 0 0 0 -0.15,0.022 c -1.289,0.265 -1.289,0.265 -1.7,-0.917 a 1.788,1.788 0 0 0 -1.993,-1.408 41.542,41.542 0 0 0 -5.3210001,0.856 18.029,18.029 0 0 1 -3.62,0.4 A 3.8000001,3.8 0 0 1 2,19.035 c -0.013,-0.206 0,-0.34 0.235,-0.382 0.5,-0.087 1,-0.188 1.493,-0.283 0.273,-0.052 0.348,0.1 0.379,0.339 0.281,2.185 1.9999999,2.448 3.717,2.163 2.024,-0.338 4.038,-0.733 6.061,-1.078 a 3.5320001,3.532 0 0 1 3.747,1.364 z" />
  <path
     id="path40"
     style="fill:#d2d2d2"
     d="M14.206,10.749C12.675,10.138,11.247,9.573,9.824,9c-.246-.1-.457-.271-.385-.578.082-.347.349-.384.657-.345q1.662.206,3.325.4c.243.029.419.085.459.39C13.958,9.461,14.083,10.052,14.206,10.749Zm2.5,2.541c-.063-.361-.317-.267-.525-.19s-.57-.066-.488.382c.281,1.545.564,3.09.828,4.638.071.414.319.269.557.246.273-.027.53-.046.44-.388C17.242,16.386,16.974,14.838,16.7,13.29Zm.933-5.3a1.155,1.155,0,0,0-1.2,1.193,1.26,1.26,0,0,0,1.177,1.4,1.109,1.109,0,0,0,1.147-1.146A1.281,1.281,0,0,0,17.638,7.99Z" />
</svg>
