<svg version="1.1" viewBox="0 0 24 24" xml:space="preserve" xmlns="http://www.w3.org/2000/svg"><g transform="matrix(.89175 -.23894 .23894 .89175 -2.1481 .40804)"><path d="m13.454 7.5433a1.2043 1.2043 0 0 0-0.65142-0.19101 1.2043 1.2043 0 0 0-1.2028 1.2039 1.2043 1.2043 0 0 0 1.2046 1.2057 1.2043 1.2043 0 0 0 1.2039-1.2056 1.2043 1.2043 0 0 0-0.55422-1.0129zm-3.7026-1.2479c-0.085648-0.047897-0.17141-0.075297-0.2491-0.098733l-0.00281 7.522e-4c-1.005-0.30026-2.0062-0.60408-3.0093-0.91164-0.040483-0.012532-0.081209-0.025478-0.12397-0.035982-0.1283-0.031534-0.26821-0.047341-0.42179-0.013348-0.20477 0.045323-0.40222 0.2128-0.49745 0.43416l-0.00103 0.00178c-0.090103 0.21044-0.071514 0.4536 0.021434 0.62458 0.09295 0.17098 0.23117 0.27873 0.36314 0.36153l0.00178 0.00103c1.2256 0.7633 2.4559 1.5179 3.7738 2.333l0.4766 0.29652 0.0015-0.56152c-4.08e-4 -0.6716-0.01996-1.2356 0.0039-1.7822 0.0088-0.201-0.0549-0.40626-0.1842-0.53584-0.048531-0.048595-0.1011-0.085371-0.15249-0.11411zm1.6884 4.6338c-0.08492-0.04602-0.18371-0.07342-0.28745-0.07342l-0.40605 4.86e-4c-0.33197 0-0.6004 0.26818-0.6004 0.60015l5.72e-4 4.6227c0 0.33196 0.26743 0.59759 0.5994 0.59759l0.40783 5.41e-4c0.33197 0 0.59937-0.2664 0.59937-0.59837l-5.72e-4 -4.6227c0-0.22823-0.12588-0.42575-0.3127-0.52698z" color="#000000" fill="#78909c" style="-inkscape-stroke:none"/><path d="m22.199 16.447h-2.47v2.47h-6.1765a2.4698 2.4698 0 0 0-2.47 2.47 2.4698 2.4698 0 0 0-2.4673-2.4673h-6.1765v-2.4728h-2.47v2.4728a2.4698 2.4698 0 0 0 2.47 2.47h4.9401a2.4698 2.4698 0 0 1 2.47 2.4673v1.2364h2.47v-1.2364a2.4698 2.4698 0 0 1 2.47-2.4673h4.9401a2.4698 2.4698 0 0 0 2.47-2.47v-0.0027z" fill="#8bc34a" stroke-width="1.3852"/></g></svg>
