<svg width="32" height="32" fill="none" xmlns="http://www.w3.org/2000/svg"><path d="M28.555 10.224c-.227.21-.393.396-.52.563.012 1.72.043 5.07.057 5.547.083 2.903-1.165 5.388-3.816 7.597-.368.306-.749.589-1.141.872.363-.262-.845.673-2.825 1.748a28.98 28.98 0 01-4.44 1.838c-3.289-1.072-6.017-2.533-8.327-4.458-.419-.349-.8-.705-1.149-1.068l-.015-.015a10.905 10.905 0 01-1.227-1.52l.007-.004-.518-.646c-1.51-.276-2.805-1.04-3.641-2.085.107.575.258 1.137.46 1.685.382.983.51 1.18 1.173 2.281.732 1.091 1.684 2.126 2.868 3.113 2.728 2.273 5.956 3.966 9.87 5.174l.5.154.499-.154c3.996-1.234 7.25-2.927 9.947-5.174 3.252-2.71 4.782-5.783 4.678-9.396-.01-.34-.018-5.112-.024-9.276-.149.32-.307.64-.488.95-.444.76-1.127 1.533-1.928 2.274z" fill="url(#prefix__paint0_linear)"/><path d="M30.995 1v.673l.001.11V2.7l.001.108v.575L31 5.341l-.015.04c-.169.44-.33.86-.359.926l-.063.141c-.211.472-.432.955-.695 1.403l-.052.088c-.428.702-1.05 1.4-1.742 2.011l-.08.074c-.052.05-.105.098-.16.146l-.089.079c-.805.704-1.667 1.352-2.693 1.83l-.17.08c-.4.189-.798.38-1.21.545l-.032.012c-.4.16-.431.162-.434.518v10.768l-.05.035c-.63.456-1.733 1.21-2.762 1.79v-.72V23.4v-1.384-1.049-.92-.767-.751-.582V17.388v-.135l-.001-.393v-.492-.34-.412-.274-.24V14.898v-.06l-.001-.106v-.038c-.003-.156-.022-.317-.037-.542l-.055.02c-.2.074-.352.12-.491.186l-1.031.497c-.687.332-1.373.665-2.061.995l-1.057.504c-1.057.503-2.117 1.003-3.17 1.51l-.01.005c-.273.131-1.726.837-3.526 1.712l-.003-.01-.095.051c-.289.15-.596.276-.919.377l-.01.004h-.003l-.095.028a6.013 6.013 0 01-1.621.237h-.103l-.11-.001a6.093 6.093 0 01-.859-.08v-.001l-.068-.012L5 20.16l-.114-.023a6.801 6.801 0 01-.557-.146l-.068-.021-.068-.023.001.002-.062-.02C2.244 19.284 1 17.768 1 15.958v-.078c.002-.051.004-.102.008-.153v-.073h.006l.006-.062c.156-1.558 1.3-2.88 2.907-3.525l.082-.033a5.971 5.971 0 012.071-.387h.033l.032-.001h.08c1.68.022 3.165.719 4.086 1.78l.038.037c.088.087.162.184.218.289l.042.06.042.062-.024.01.016.043c.033.102.05.209.05.32v.035c-.022.653-.661 1.178-1.446 1.178l-.05-.001c-.484-.014-.908-.227-1.159-.545l-.014.005-.033-.04c-.33-.397-.84-.682-1.43-.774l-.067-.01a2.644 2.644 0 00-.349-.024h-.051c-1.096.021-1.997.7-2.168 1.583l-.01.061a1.578 1.578 0 00-.014.125l-.002.211.003.041c.083.978 1.054 1.751 2.242 1.751h.076c.225-.007.44-.043.645-.1v.001l.008-.004.01-.003c.407-.146 8.406-3.912 8.883-4.14l-.01-.004c-.261-.095-2.469-.672-3.37-1.06l-.13-.056c-1.241-.548-2.362-1.231-3.34-2.09l-.103-.092a11.316 11.316 0 01-2.058-2.408l-.017-.026c-.127-.187-.294-.275-.579-.272h-.024l-.862.003h-.831l-.043.001H3.891v1.843c-.022.643-.65 1.158-1.423 1.158h-.084c-.767-.018-1.382-.545-1.382-1.193V1h29.993zm-2.89 2.421H3.892v1.815h.042v.004h4.082c.42.002.42.023.593.395l.041.088c.78 1.638 1.952 3.02 3.7 4.05l.117.067c.773.441 1.598.774 2.479 1.045l.116.035c1.24.365 2.509.472 3.806.418l.128-.006a10.74 10.74 0 002.513-.433l.144-.044c.67-.207 1.307-.452 1.92-.76l.114-.058a9.94 9.94 0 002.025-1.415l.083-.075c.61-.554 1.132-1.164 1.522-1.846l.08-.137c.235-.411.466-.815.702-1.265v-.03l.008-1.848zm-9.884 1.9h.348c2.785.003 5.464.026 5.694.073l-.028.08c-.248.697-.67 1.313-1.234 1.854l-.06.057c-1.161 1.088-2.645 1.698-4.372 1.801l-.094.005c-3.095.144-5.882-1.726-6.364-3.797.173-.042 2.487-.066 5.051-.071h.44l.265-.001h.354z" fill="#EF6C00"/><defs><linearGradient id="prefix__paint0_linear" x1="31" y1="12.64" x2="6.387" y2="28.942" gradientUnits="userSpaceOnUse"><stop stop-color="#EF6C00"/><stop offset="1" stop-color="#EF6C00"/></linearGradient></defs></svg>