<svg width="224" height="224" viewBox="0 0 224 224" fill="none" xmlns="http://www.w3.org/2000/svg">
<path fill-rule="evenodd" clip-rule="evenodd" d="M103.922 33.1088C108.222 29.5853 112.43 26 112.43 26C115.022 28.5059 117.655 30.9603 120.339 33.3631C126.142 33.0228 133.034 34.3841 138.727 35.5116C142.955 32.3388 146.588 29.4375 146.588 29.4375C148.362 32.6619 150.094 35.9034 151.782 39.1759C154.003 40.6094 157.925 43.5794 159.589 45.5147C162.144 44.476 165.992 43.0873 166.849 42.7782C166.922 42.7517 166.973 42.7332 167 42.7234C166.866 43.1016 166.732 43.481 166.598 43.8614C163.574 52.4295 160.393 61.4451 152.714 65.7272C140.291 47.1819 83.785 45.2809 71.6266 65.8372C65.3244 61.3628 62.3066 54.4472 59.1051 47.1106C58.4229 45.5474 57.7324 43.9651 57 42.3831C57.0437 42.3953 57.5277 42.6089 58.2743 42.9384C59.6419 43.5421 61.891 44.5349 63.93 45.3909C66.6319 42.83 69.6775 40.8947 72.7197 39.1622C74.7409 35.6525 77.9997 29.6713 77.9997 29.6713C77.9997 29.6713 81.7947 32.9094 86.1431 35.8484C90.8353 34.0197 99.4978 32.9678 103.922 33.1088ZM71.3619 87.5175L61.3141 61.5197L61.3175 61.5231C66.5459 68.3466 71.5062 73.3241 78.8797 77.5316C82.5337 79.3569 90.6084 80.7353 90.6084 80.7353L112.182 69.0788L133.67 80.9863C133.67 80.9863 141.831 79.7109 145.375 77.6347C150.369 74.7163 158.465 69.2747 163.442 61.3788C163.442 61.3788 157.244 76.9369 152.662 88.0022C133.275 113.821 88.7831 112.12 71.3619 87.5175ZM36.792 150.642V169.842C36.792 171.25 36.344 172.434 35.448 173.394C34.552 174.29 33.368 174.738 31.896 174.738C30.488 174.738 29.304 174.29 28.344 173.394C27.448 172.434 27 171.25 27 169.842V150.642V127.026V104.562C27 103.09 27.448 101.906 28.344 101.01C29.304 100.114 30.488 99.6665 31.896 99.6665C33.368 99.6665 34.552 100.114 35.448 101.01C36.344 101.906 36.792 103.09 36.792 104.562V127.026V128.046C38.2171 126.644 39.8491 125.441 41.688 124.434C45.08 122.578 48.888 121.65 53.112 121.65C57.528 121.65 61.464 122.61 64.92 124.53C68.44 126.386 71.192 129.138 73.176 132.786C75.224 136.434 76.248 140.914 76.248 146.226V169.842C76.248 171.25 75.768 172.434 74.808 173.394C73.912 174.29 72.76 174.738 71.352 174.738C69.944 174.738 68.76 174.29 67.8 173.394C66.904 172.434 66.456 171.25 66.456 169.842V146.226C66.456 142.578 65.784 139.602 64.44 137.298C63.096 134.994 61.272 133.298 58.968 132.21C56.728 131.058 54.136 130.482 51.192 130.482C48.504 130.482 46.072 131.026 43.896 132.114C41.72 133.202 39.992 134.674 38.712 136.53C37.432 138.322 36.792 140.402 36.792 142.77V150.642ZM93.8753 195.666C94.8353 196.626 96.0192 197.106 97.4272 197.106C98.8992 197.106 100.083 196.626 100.979 195.666C101.875 194.77 102.323 193.618 102.323 192.21V166.29C104.563 168.978 107.251 171.122 110.387 172.722C113.587 174.258 117.075 175.026 120.851 175.026C125.523 175.026 129.715 173.874 133.427 171.57C137.139 169.202 140.051 166.034 142.163 162.066C144.339 158.034 145.427 153.49 145.427 148.434C145.427 143.378 144.243 138.834 141.875 134.802C139.571 130.77 136.435 127.602 132.467 125.298C128.499 122.93 123.987 121.746 118.931 121.746C113.939 121.746 109.459 122.93 105.491 125.298C101.523 127.602 98.3873 130.77 96.0833 134.802C93.7793 138.834 92.5953 143.378 92.5312 148.434V192.21C92.5312 193.618 92.9792 194.77 93.8753 195.666ZM127.667 164.082C125.107 165.618 122.195 166.386 118.931 166.386C115.731 166.386 112.819 165.618 110.195 164.082C107.635 162.482 105.619 160.338 104.147 157.65C102.675 154.898 101.939 151.826 101.939 148.434C101.939 144.978 102.675 141.906 104.147 139.218C105.619 136.466 107.635 134.322 110.195 132.786C112.819 131.186 115.731 130.386 118.931 130.386C122.195 130.386 125.107 131.186 127.667 132.786C130.227 134.322 132.243 136.466 133.715 139.218C135.251 141.906 136.019 144.978 136.019 148.434C136.019 151.826 135.251 154.898 133.715 157.65C132.243 160.338 130.227 162.482 127.667 164.082ZM190.29 174.354C190.866 174.546 191.474 174.642 192.114 174.642C193.394 174.642 194.418 174.258 195.186 173.49C196.018 172.722 196.434 171.794 196.434 170.706C196.498 169.554 196.05 168.402 195.09 167.25L179.869 149.034L194.322 130.098C195.218 128.946 195.666 127.762 195.666 126.546C195.73 125.33 195.41 124.306 194.706 123.474C194.002 122.578 192.946 122.13 191.538 122.13C190.834 122.13 190.194 122.258 189.618 122.514C189.042 122.706 188.498 123.122 187.986 123.762L173.864 142.533L158.13 123.762C157.234 122.674 156.018 122.13 154.482 122.13C153.074 122.13 152.018 122.546 151.314 123.378C150.61 124.21 150.29 125.234 150.354 126.45C150.418 127.602 150.866 128.69 151.698 129.714L167.516 148.442L152.658 167.058C151.762 168.21 151.314 169.362 151.314 170.514C151.314 171.666 151.666 172.658 152.37 173.49C153.138 174.258 154.162 174.642 155.442 174.642C156.786 174.642 157.938 174.13 158.898 173.106L173.428 154.83L188.658 173.106C189.17 173.746 189.714 174.162 190.29 174.354Z" fill="#FCFF82"/>
</svg>
