<svg width="224" height="224" viewBox="0 0 224 224" fill="none" xmlns="http://www.w3.org/2000/svg">
<path d="M112.168 46.6483C112.168 46.6483 105.627 52.2218 98.9422 57.6991C92.0648 57.48 78.5985 59.1152 71.3043 61.9581C64.5445 57.3892 58.645 52.3554 58.645 52.3554C58.645 52.3554 53.5791 61.6535 50.437 67.1095C45.7077 69.8027 40.9732 72.8113 36.773 76.7923C31.8728 74.735 26.1924 72.17 26 72.1166C32.482 86.1172 36.8532 100.139 48.7377 108.577C67.6385 76.6213 155.479 79.5764 174.791 108.406C187.258 101.454 192.1 86.4752 197 72.6456C196.471 72.838 189.791 75.232 185.479 76.9847C182.892 73.9762 176.795 69.3592 173.343 67.1308C170.719 62.0436 168.026 57.0044 165.269 51.992C165.269 51.992 159.62 56.5021 153.048 61.4344C144.198 59.6817 133.484 57.5655 124.464 58.0946C120.29 54.3593 116.197 50.5438 112.168 46.6483ZM32.7064 101.865L48.3262 142.28C75.4083 180.525 144.572 183.17 174.711 143.033C181.834 125.832 191.469 101.646 191.469 101.646C183.731 113.921 171.147 122.38 163.382 126.917C157.873 130.144 145.187 132.127 145.187 132.127L111.783 113.616L78.2458 131.737C78.2458 131.737 65.6934 129.594 60.013 126.756C48.5506 120.216 40.8396 112.478 32.7118 101.871L32.7064 101.865Z" fill="#F9A825"/>
</svg>
