<svg width="170" height="172" viewBox="0 0 170 172" fill="none" xmlns="http://www.w3.org/2000/svg">
<path fill-rule="evenodd" clip-rule="evenodd" d="M76.9219 7.10875C81.2222 3.58531 85.4297 0 85.4297 0C88.0216 2.50594 90.6547 4.96031 93.3394 7.36313C99.1419 7.02281 106.034 8.38406 111.727 9.51156C115.955 6.33875 119.588 3.4375 119.588 3.4375C121.362 6.66187 123.094 9.90344 124.782 13.1759C127.003 14.6094 130.925 17.5794 132.589 19.5147C135.144 18.476 138.992 17.0873 139.849 16.7782C139.922 16.7517 139.973 16.7332 140 16.7234C139.866 17.1016 139.732 17.481 139.598 17.8614C136.574 26.4295 133.393 35.4451 125.714 39.7272C113.291 21.1819 56.785 19.2809 44.6266 39.8372C38.3244 35.3628 35.3066 28.4472 32.1051 21.1106C31.4229 19.5474 30.7324 17.9651 30 16.3831C30.0437 16.3953 30.5277 16.6089 31.2743 16.9384C32.6419 17.5421 34.891 18.5349 36.93 19.3909C39.6319 16.83 42.6775 14.8947 45.7197 13.1622C47.7409 9.6525 50.9997 3.67125 50.9997 3.67125C50.9997 3.67125 54.7947 6.90938 59.1431 9.84844C63.8353 8.01969 72.4978 6.96781 76.9219 7.10875ZM44.3619 61.5175L34.3141 35.5197L34.3175 35.5231C39.5459 42.3466 44.5062 47.3241 51.8797 51.5316C55.5337 53.3569 63.6084 54.7353 63.6084 54.7353L85.1822 43.0788L106.67 54.9863C106.67 54.9863 114.831 53.7109 118.375 51.6347C123.369 48.7163 131.465 43.2747 136.442 35.3788C136.442 35.3788 130.244 50.9369 125.662 62.0022C106.275 87.8213 61.7831 86.1197 44.3619 61.5175ZM9.792 124.642V143.842C9.792 145.25 9.344 146.434 8.448 147.394C7.552 148.29 6.368 148.738 4.896 148.738C3.488 148.738 2.304 148.29 1.344 147.394C0.448 146.434 0 145.25 0 143.842V124.642V101.026V78.5625C0 77.0905 0.448 75.9065 1.344 75.0105C2.304 74.1145 3.488 73.6665 4.896 73.6665C6.368 73.6665 7.552 74.1145 8.448 75.0105C9.344 75.9065 9.792 77.0905 9.792 78.5625V101.026V102.046C11.2171 100.644 12.8491 99.4407 14.688 98.4345C18.08 96.5785 21.888 95.6505 26.112 95.6505C30.528 95.6505 34.464 96.6105 37.92 98.5305C41.44 100.386 44.192 103.138 46.176 106.786C48.224 110.434 49.248 114.914 49.248 120.226V143.842C49.248 145.25 48.768 146.434 47.808 147.394C46.912 148.29 45.76 148.738 44.352 148.738C42.944 148.738 41.76 148.29 40.8 147.394C39.904 146.434 39.456 145.25 39.456 143.842V120.226C39.456 116.578 38.784 113.602 37.44 111.298C36.096 108.994 34.272 107.298 31.968 106.21C29.728 105.058 27.136 104.482 24.192 104.482C21.504 104.482 19.072 105.026 16.896 106.114C14.72 107.202 12.992 108.674 11.712 110.53C10.432 112.322 9.792 114.402 9.792 116.77V124.642ZM66.8753 169.666C67.8353 170.626 69.0192 171.106 70.4272 171.106C71.8992 171.106 73.0833 170.626 73.9792 169.666C74.8753 168.77 75.3232 167.618 75.3232 166.21V140.29C77.5632 142.978 80.2513 145.122 83.3873 146.722C86.5872 148.258 90.0752 149.026 93.8512 149.026C98.5233 149.026 102.715 147.874 106.427 145.57C110.139 143.202 113.051 140.034 115.163 136.066C117.339 132.034 118.427 127.49 118.427 122.434C118.427 117.378 117.243 112.834 114.875 108.802C112.571 104.77 109.435 101.602 105.467 99.2985C101.499 96.9305 96.9873 95.7465 91.9313 95.7465C86.9392 95.7465 82.4593 96.9305 78.4912 99.2985C74.5232 101.602 71.3873 104.77 69.0833 108.802C66.7793 112.834 65.5953 117.378 65.5312 122.434V166.21C65.5312 167.618 65.9792 168.77 66.8753 169.666ZM100.667 138.082C98.1073 139.618 95.1953 140.386 91.9313 140.386C88.7313 140.386 85.8193 139.618 83.1953 138.082C80.6353 136.482 78.6192 134.338 77.1472 131.65C75.6752 128.898 74.9392 125.826 74.9392 122.434C74.9392 118.978 75.6752 115.906 77.1472 113.218C78.6192 110.466 80.6353 108.322 83.1953 106.786C85.8193 105.186 88.7313 104.386 91.9313 104.386C95.1953 104.386 98.1073 105.186 100.667 106.786C103.227 108.322 105.243 110.466 106.715 113.218C108.251 115.906 109.019 118.978 109.019 122.434C109.019 125.826 108.251 128.898 106.715 131.65C105.243 134.338 103.227 136.482 100.667 138.082ZM163.29 148.354C163.866 148.546 164.474 148.642 165.114 148.642C166.394 148.642 167.418 148.258 168.186 147.49C169.018 146.722 169.434 145.794 169.434 144.706C169.498 143.554 169.05 142.402 168.09 141.25L152.869 123.034L167.322 104.098C168.218 102.946 168.666 101.762 168.666 100.546C168.73 99.3305 168.41 98.3065 167.706 97.4745C167.002 96.5785 165.946 96.1305 164.538 96.1305C163.834 96.1305 163.194 96.2585 162.618 96.5145C162.042 96.7065 161.498 97.1225 160.986 97.7625L146.864 116.533L131.13 97.7625C130.234 96.6745 129.018 96.1305 127.482 96.1305C126.074 96.1305 125.018 96.5465 124.314 97.3785C123.61 98.2105 123.29 99.2345 123.354 100.45C123.418 101.602 123.866 102.69 124.698 103.714L140.516 122.442L125.658 141.058C124.762 142.21 124.314 143.362 124.314 144.514C124.314 145.666 124.666 146.658 125.37 147.49C126.138 148.258 127.162 148.642 128.442 148.642C129.786 148.642 130.938 148.13 131.898 147.106L146.428 128.83L161.658 147.106C162.17 147.746 162.714 148.162 163.29 148.354Z" fill="#FCFF82"/>
</svg>
