<svg version="1.1" viewBox="0 0 24 24" xmlns="http://www.w3.org/2000/svg">
 <path d="m13.646 1.8439c0.80431 0.2443 2.131 0.9866 2.131 1.1905 0 0.056377-0.17571 0.17477-0.38994 0.26309-0.69908 0.29034-0.72632 0.43034-0.26215 1.3728 0.23208 0.47169 0.41813 1.0214 0.41343 1.2215-0.01128 0.51679 0.46605 1.7007 0.98284 2.4364 0.60229 0.85693 0.31383 2.4749-0.42095 2.3566-0.14094-0.02255-0.49424-0.06013-0.7827-0.08269-0.42752-0.03382-0.57129-0.11839-0.76673-0.44913-0.17289-0.29316-0.39558-0.44726-0.78928-0.54592-0.63612-0.15973-0.95277-0.30068-1.385-0.61357l-0.31195-0.22551 0.31195 0.61263c0.17101 0.33638 0.93962 1.2525 1.7063 2.0352 2.0202 2.0596 2.4768 3.2323 1.5541 3.984-0.39746 0.32511-0.44162 0.42565-0.41813 0.96405 0.03758 0.85035-0.03383 0.87008-3.2201 0.87008-3.1082 0-3.2915-0.04698-3.143-0.7874 0.075169-0.37773 0.030068-0.48202-0.35987-0.83062l-0.44632-0.3984 0.26027-0.60229c0.14282-0.33168 0.28376-0.9274 0.31195-1.3249l0.052618-0.7235-0.28188 0.89264-0.28001 0.8917-0.30819-0.8823c-0.40779-1.1632-0.38994-1.5833 0.091143-2.1461 0.21423-0.24994 0.389-0.54216 0.389-0.64833 0-0.10618-0.1898 0.0545-0.42283 0.35705-0.52806 0.68686-0.56377 0.68498-0.74981-0.0545-0.1851-0.73666-0.11745-0.97344 0.45853-1.6011 0.62484-0.68028 0.56377-0.79585-0.12403-0.23302l-0.57504 0.47169-0.15034-0.59572c-0.15034-0.59947 0.058256-1.2497 0.40216-1.2497 0.15128 0 0.76673-0.65209 0.76673-0.81277 0-0.065773-0.11369-0.012215-0.2537 0.11745-0.13906 0.12967-0.42846 0.33826-0.6427 0.46417l-0.389 0.22927-0.086445-0.46041c-0.13155-0.69907 0.14282-1.1435 0.84941-1.3784 0.68216-0.22739 0.91706-0.36175 0.91706-0.52618 0-0.064834-0.19262-0.039464-0.42753 0.056377-1.043 0.42189-1.136 0.40122-1.0007-0.22081 0.14376-0.66243 0.51491-1.0148 1.0806-1.027 0.78552-0.017853 1.0016-0.2349 0.2443-0.2443-1.2441-0.016913-0.16255-1.3173 1.1087-1.3343 0.76109-0.0093962 0.76485-0.011275 0.32887-0.16913-1.5353-0.55625 2.2992-1.1445 4.0272-0.61921m-2.272 0.8231a5.7317 5.7317 0 0 1 0.63424 0.45665c0.2039 0.16913 0.43316 0.30725 0.50927 0.30725 0.24054 0-0.18322-0.40122-0.70283-0.66713-0.52712-0.26873-0.88512-0.34766-0.44162-0.09678m-0.32886 0.27907c0 0.093962 0.08832 0.28658 0.19638 0.42659 0.17853 0.23396 0.18322 0.21893 0.05262-0.17195-0.14846-0.44538-0.24806-0.5478-0.24806-0.25464m-0.49988 3.3798c-0.69907 0.88606-0.84847 2.2241-0.36833 3.2962 0.19168 0.42847 0.19638 0.43034 0.10712 0.052618-0.21893-0.92646-0.10336-2.1104 0.25088-2.5783 0.58914-0.77612 0.59854-1.5156 0.01034-0.77048m3.6795-0.14282c0.17289 0.27625 0.46417 0.39464 0.74324 0.30068 0.11839-0.039464 0.05262-0.14282-0.19732-0.30631-0.50927-0.33638-0.75733-0.33356-0.54498 0.00564m-2.646 3.3601c-0.0019 0.12873 1.2732 1.7778 1.883 2.4345 0.50739 0.54686 0.99975 1.649 0.99975 2.2391 0 0.58632 0.29128 0.68874 0.37303 0.12967 0.12966-0.887-0.28189-1.6284-1.8191-3.2708-0.54216-0.57974-1.0862-1.1914-1.2102-1.3587-0.12215-0.16819-0.22551-0.24524-0.22551-0.17383m2.7474 8.0826c0.14 0.07517 0.27813 0.34484 0.32793 0.63612 0.05638 0.3345 0.28752 0.7376 0.68216 1.1877 0.95559 1.0928 1.0232 1.0712-3.3037 1.0712h-3.75v-0.30444c0-0.16913 0.18041-0.47638 0.40591-0.69062 0.49612-0.47075 0.77706-0.9866 0.77706-1.4245 0-0.18041 0.10336-0.389 0.23021-0.46229 0.29692-0.17383 4.31-0.18416 4.6304-0.01315m-1.8369 0.39652c0 0.07329 0.34766 0.13155 0.77988 0.13155 0.43034 0 0.81747-0.0592 0.86257-0.13155 0.05168-0.08269-0.2396-0.13155-0.77988-0.13155-0.4886 0-0.86257 0.05732-0.86257 0.13155m4.0103 2.9673c0.54498 0.25839 0.80807 0.54498 0.9227 1.0091l0.0902 0.36175h-5.4686c-5.9844 0-5.7561 0.03195-5.2459-0.74606 0.49988-0.76391 0.89451-0.82592 5.2769-0.82874 3.3582-0.0028 4.0582 0.03007 4.4247 0.2039m-2.5633 0.18698c-0.22927 0.14094 0.06295 0.21799 0.95841 0.24994 0.84941 0.03101 1.3183-0.07235 1.2008-0.26309-0.08926-0.1447-1.9234-0.13343-2.1592 0.01316" fill="#607d8b" stroke-width=".93962"/>
</svg>
