<svg xmlns="http://www.w3.org/2000/svg" viewBox="0 0 32 32">
  <g>
    <rect x="8" y="28" width="16" height="2" rx="0.5" style="fill: #cfd8dc"/>
    <path d="M12,23v1H11a1,1,0,0,0-1,1v1H22V25a1,1,0,0,0-1-1H20V23a1,1,0,0,0-1-1H13A1,1,0,0,0,12,23Z" style="fill: #cfd8dc"/>
    <path d="M23.916,11.874,20,6V4h2a9.24506,9.24506,0,0,0-6.17645-1.9986,8.06268,8.06268,0,0,0-7.8219,8.199,12.32434,12.32434,0,0,0,.6308,3.697L10,18v1a1,1,0,0,0,1,1H21a1,1,0,0,0,1-1v-.58582a1,1,0,0,0-.29291-.70709L16,12h2l2.874,1.916a.50023.50023,0,0,0,.27735.084H23.5a.5.5,0,0,0,.5-.5V12.15137A.50023.50023,0,0,0,23.916,11.874ZM20,10H19a1,1,0,0,1-1-1V8h1a1,1,0,0,1,1,1Z" style="fill: #cfd8dc"/>
  </g>
</svg>
