<?xml version="1.0" standalone="yes"?>
<svg xmlns="http://www.w3.org/2000/svg" width="726" height="726">
<path style="fill:#ffffff; stroke:none;" d="M0 0L0 726L726 726L726 0L0 0z"/>
<path style="fill:#77fb07; stroke:none;" d="M2 4C14.539 3.37842 28.9655 9.89313 41 13.2901C63.8917 19.7516 86.9627 25.8502 110 31.8448C168.736 47.1292 227.486 62.4303 286 78.5941C311.145 85.54 336.436 93.7235 362 99C358.184 94.8693 352.857 92.4805 348 89.7191L325 76.7191C298.383 61.5862 271.575 46.7816 245 31.5787C234.065 25.3232 223 19.2799 212 13.1396C206.666 10.1624 201.042 5.70447 195 4.39044C189.208 3.13092 182.888 4.31372 177 3.91052C149.752 2.04449 122.239 4.77588 95 2.91052C72.0917 1.34174 48.9918 2 26 2C20.1667 2 5.98084 -0.555603 2 4z"/>
<path style="fill:#000000; stroke:none;" d="M91 2C98.1592 5.00421 109.256 3 117 3C136.684 3 156.391 2.56763 176 3.91052C182.458 4.35278 189.805 2.76453 196 4.96912C209.814 9.88483 223.187 19.9919 236 27.1396C263.389 42.4191 290.735 57.7795 318 73.2809L349 90.8495C352.93 93.0927 358.272 97.61 363 97.3851C368.119 97.1415 373.691 92.6102 378 90.1505L411 71.4213C433.9 58.2927 457.033 45.5804 480 32.5756C495.842 23.6051 511.55 13.4847 528 5.68372C536.806 1.50775 548.519 3 558 3L616 3C611.531 1.12482 605.809 2 601 2L570 2L463 2L91 2z"/>
<path style="fill:#77fb07; stroke:none;" d="M364 97C370.853 99.4311 383.034 93.3902 390 91.6258C413.412 85.6961 436.643 79.0255 460 72.8843C517.719 57.7081 575.498 42.5593 633 26.5756C651.618 21.4005 670.382 16.7496 689 11.5756C699.962 8.5293 711.654 3.98944 723 3C716.322 0.197876 706.216 2 699 2L647 2C622.294 2 597.726 3 573 3C559.345 3 543.265 0.74408 530 4.49463C525.051 5.8938 520.488 9.3288 516 11.7693C505.26 17.6097 494.628 23.6773 484 29.7191C459.386 43.7116 434.565 57.3381 410 71.4213C395.036 80.0003 379.907 90.3422 364 97z"/>
<path style="fill:#f1e51d; stroke:none;" d="M723 2C719.242 27.5427 709.449 53.034 702.884 78C686.214 141.4 668.786 204.599 652.116 268C646.503 289.347 640.729 310.652 635.116 332C632.558 341.727 628.44 351.913 628 362C636.771 351.425 642.646 336.97 649.424 325C663.946 299.354 678.497 273.733 692.86 248C699.199 236.645 705.547 225.29 711.999 214C715.321 208.187 720.304 201.589 721.74 195C724.731 181.276 723 165.968 723 152C723 129.61 724 107.359 724 85L724 28C724 20.2563 726.004 9.15924 723 2z"/>
<path style="fill:#8ffa0b; stroke:none;" d="M3 3C4.29012 12.5806 7.66958 21.6849 10.1157 31C15.902 53.0341 21.9018 75.0109 27.8488 97C43.8781 156.27 59.5793 215.641 75.2855 275C80.0525 293.016 84.7756 311.063 89.8596 329C92.9399 339.868 97.5063 351.677 98 363C107.26 358.682 114.826 348.174 122 341L169 294L304 159L344 119C350.333 112.667 359.183 106.185 363 98C352.35 98.3375 341.257 92.8404 331 90.3395C302.523 83.3959 274.29 75.4091 246 67.5941C192.521 52.8211 138.592 39.338 85 24.841C57.8951 17.5089 30.5997 8.203 3 3z"/>
<path style="fill:#cff416; stroke:none;" d="M363 98C367.815 108.325 379.99 116.99 388 125L443 180L566 303C586.279 323.279 605.95 344.538 627 364C633.404 343.757 637.597 322.533 643.151 302C656.939 251.031 670.349 199.962 684.151 149C692.812 117.021 701.46 85.0408 709.884 53C714.214 36.5325 720.52 19.8574 723 3C714.241 3.40027 705.445 6.88489 697 9.11572C679.645 13.7001 662.36 18.5513 645 23.1157C582.601 39.5222 520.281 56.3034 458 73.1512C438.019 78.5563 417.981 83.7463 398 89.1512C386.701 92.2078 374.665 96.9827 363 98z"/>
<path style="fill:#4dff00; stroke:none;" d="M2 4C2 47.014 3 90.0609 3 133L3 173C3 180.732 2.24063 189.542 4.6983 197C9.02168 210.119 19.042 222.887 25.6944 235C40.7893 262.486 56.3043 289.766 71.8495 317C80.2458 331.71 90.3002 346.452 97 362C99.6 355.336 94.3233 344.702 92.6258 338C87.2902 316.934 81.4891 295.895 75.5586 275C57.3769 210.94 41.4768 146.19 23.7454 82C18.609 63.4057 14.3218 44.5447 9 26C7.05165 19.2107 6.07769 9.72327 2 4z"/>
<path style="fill:#b9f612; stroke:none;" d="M98 363C119.057 385.776 142.058 407.058 164 429L296 561L345 610C348.988 613.988 353.054 617.914 356.963 621.981C358.468 623.547 360.296 624.947 360 627C365.183 628.171 372.563 617.437 376 614L420 570L574 416L612 378C615.338 374.662 624.793 368.125 624.793 363C624.793 358.626 617.803 353.803 615 351L587 323L473 209L390 126L371 107.001C368.805 104.822 365.583 100.452 362 101.346C359.236 102.035 356.924 105.091 355 107.001L342 120L291 171L163 299L122 340C114.308 347.692 106.903 356.729 98 363z"/>
<path style="fill:#000000; stroke:none;" d="M2 110L2 617C4.59908 610.806 3 601.686 3 595L3 554C3 545.958 2.26794 536.603 5.35262 529C11.5109 513.822 21.6235 499.241 29.7191 485C43.9019 460.051 57.6993 434.883 72 410C78.3022 399.034 84.4683 387.995 90.7191 377C92.9581 373.062 97.4484 367.72 97.3349 363C97.2136 357.959 92.4316 352.231 90 348C83.8896 337.368 77.929 326.651 71.8495 316C56.3043 288.766 40.7894 261.486 25.6944 234C19.039 221.881 10.248 209.815 5.07407 197C2.16051 189.784 3 180.624 3 173L3 131C3 124.58 4.49717 115.951 2 110M723 110L723 164C723 174.022 724.265 185.24 721.505 195C719.068 203.62 712.433 212.245 708.001 220C700.048 233.916 692.473 248.052 684.576 262C671.179 285.659 657.922 309.401 644.421 333L633.579 352C631.736 355.221 628.776 359.132 628.781 363C628.785 366.597 631.462 369.993 633.14 373C636.869 379.685 640.614 386.358 644.421 393C657.944 416.587 671.179 440.341 684.576 464C693.23 479.284 701.851 494.605 710.306 510C713.937 516.613 719.49 523.699 721.502 531C724.192 540.756 723 551.992 723 562L723 617C724.552 613.301 724 608.983 724 605L724 583L724 505L724 236L724 148L724 123C724 118.74 724.661 113.959 723 110z"/>
<path style="fill:#e4f219; stroke:none;" d="M627 363C618.235 369.679 610.78 378.22 603 386L564 425L443 546L388 601C379.99 609.01 367.815 617.675 363 628C375.615 629.1 388.803 634.186 401 637.576C420.939 643.117 441.058 648.032 461 653.576C522.15 670.574 583.649 686.485 645 702.735C660.678 706.887 676.374 711.081 692 715.424C702.021 718.21 712.615 722.152 723 723C722.253 706.653 714.804 688.756 710.424 673C701.736 641.743 693.623 610.317 685.151 579C672.268 531.373 659.43 483.717 646.884 436C642.849 420.654 638.627 405.355 634.629 390C632.365 381.305 630.908 371.066 627 363z"/>
<path style="fill:#a4f80e; stroke:none;" d="M98 364C96.6124 373.431 93.3083 382.781 90.8843 392C85.0923 414.029 79.0992 436.012 73.1512 458C57.2959 516.613 41.5554 575.277 26.1157 634C21.2909 652.351 16.4707 670.747 11.2901 689C8.23087 699.779 3.51207 711.794 3 723C15.5259 721.313 27.7611 716.473 40 713.374C71.4413 705.413 102.695 696.63 134 688.151C209.935 667.585 286.314 648.478 362 627C355.988 618.465 347.374 611.374 340 604L301 565L178 442L125 389C116.99 380.99 108.325 368.815 98 364z"/>
<path style="fill:#f1e51d; stroke:none;" d="M628 364C629.021 375.706 633.784 387.671 636.849 399C642.254 418.981 647.444 439.019 652.849 459C669.697 521.281 686.478 583.601 702.884 646C707.449 663.36 712.3 680.645 716.884 698C719.115 706.445 722.6 715.241 723 724C726.004 716.841 724 705.744 724 698L724 641C724 617.652 723 594.387 723 571C723 557.927 725.01 542.725 721.502 530C719.589 523.057 714.355 516.264 710.86 510C703.412 496.649 695.957 483.303 688.424 470C674.851 446.029 661.5 421.929 647.85 398C641.572 386.995 636.12 373.699 628 364z"/>
<path style="fill:#4dff00; stroke:none;" d="M97 365C75.2402 401.897 54.3162 439.455 33.6944 477C27.4388 488.389 21.0313 499.721 14.5787 511C11.1693 516.96 6.55273 523.369 4.63657 530C2.34208 537.94 3 546.837 3 555L3 596C3 638.267 2 680.656 2 723C6.07053 714.598 7.50697 704.042 9.88426 695C14.6221 676.98 19.4343 658.952 24.4244 641C41.243 580.495 56.7528 519.62 73.1512 459L91.1512 392C92.7719 386.009 94.3093 380.004 95.8843 374C96.6973 370.901 97.9181 368.103 97 365z"/>
<path style="fill:#e4f219; stroke:none;" d="M2 723C8.9187 725.903 19.5202 724 27 724L82 724C106.016 724 129.946 723 154 723C167.367 723 183.014 725.073 196 721.363C202.627 719.469 209.05 714.825 215 711.421C226.282 704.967 237.608 698.562 249 692.306C286.546 671.686 324.103 650.76 361 629C354.068 626.301 342.04 632.356 335 634.127C311.595 640.014 288.297 646.547 265 652.849C207.374 668.437 149.621 683.545 92 699.151C73.0193 704.292 53.946 709.159 35 714.424C24.1855 717.43 13.1366 721.5 2 723z"/>
<path style="fill:#000000; stroke:none;" d="M107 723C111.469 724.875 117.191 724 122 724L152 724L258 724L625 724C618.081 721.097 607.48 723 600 723C581.394 723 562.509 723.931 544 722.17C539.712 721.762 535.186 722.565 531 721.362C525.425 719.76 520.02 715.853 515 713L489 698.424C461.366 682.811 433.819 666.974 406 651.694C395.594 645.979 385.367 639.926 375 634.14C371.316 632.083 366.473 627.983 362 628.631C356.59 629.416 350.672 634.315 346 637C335.7 642.919 325.307 648.67 315 654.579C289.457 669.223 263.708 683.51 238 697.86C224.605 705.338 211.224 714.881 197 720.647C187.769 724.39 175.765 723 166 723L107 723z"/>
<path style="fill:#b9f612; stroke:none;" d="M365 628C370.566 633.642 379.139 636.933 386 640.85L430 665.85C451.907 678.347 473.978 690.568 496 702.86C506.625 708.791 518.281 717.994 530 721.362C534.186 722.565 538.712 721.762 543 722.17C560.529 723.838 578.38 723 596 723C638.295 723 680.639 724 723 724C712.343 718.292 697.678 716.822 686 713.576C657.411 705.629 628.588 698.521 600 690.576C549.461 676.531 498.634 663.546 448 649.849C429.016 644.713 410.066 639.455 391 634.626C382.395 632.446 373.784 629.292 365 628z"/>
</svg>
