<svg version="1.1" viewBox="0 0 200 200" xmlns="http://www.w3.org/2000/svg">
 <g transform="translate(-.00037021 .0014037)" style="fill:#f44336">
  <path d="m103.07 189.45c-7.9368-2.6662-8.0038-2.7178-9.7628-7.5168-0.97415-2.6577-2.3026-9.0392-2.952-14.181-0.99725-7.8958-0.93167-10.754 0.42188-18.391 2.7782-15.674 9.6231-27.676 27.672-48.521 20.869-24.102 24.509-32.427 20.238-46.29-3.6556-11.865-13.458-22.969-33.613-38.077-12.915-9.6806-13.458-10.303-5.0131-5.7359 22.554 12.196 40.365 27.413 46.375 39.621 4.1818 8.4945 5.1308 17.919 2.664 26.458-2.6218 9.0758-7.4016 17.316-21.141 36.448-18.697 26.035-24.133 38.641-23.165 53.723 0.41134 6.4096 1.1472 8.8203 5.0045 16.396 5.2036 10.219 5.3208 10.114-6.7288 6.0657zm-16.791-83.413c-4.2793-13.575-13.604-22.609-29.213-28.302-4.1274-1.5054-7.5044-2.9682-7.5044-3.2507 0-1.026 18.939 0.84858 22.98 2.2747 10.092 3.5606 15.043 10.936 15.799 23.537 0.64386 10.726 0.0393 12.409-2.0624 5.7416zm16.539-21.356c-6.047-16.401-16.159-25.681-33.756-30.981-9.46-2.849-9.0538-3.744 1.3468-2.967 20.536 1.5341 29.413 7.2981 33.642 21.846 0.95311 3.2786 1.4882 8.1214 1.3109 11.864l-0.29962 6.3234zm13.371-24.882c-5.0192-11.521-12.108-17.947-25.873-23.454-5.3939-2.158-6.7996-3.0836-5.4792-3.6077 2.4761-0.98286 14.765 0.97994 19.143 3.0576 4.9139 2.3318 11.082 9.5581 13.024 15.26 1.5536 4.5596 3.2459 15.212 2.4167 15.212-0.22834 0-1.6829-2.9101-3.2324-6.4668z" style="color-rendering:auto;color:#000000;dominant-baseline:auto;fill:#f44336;font-feature-settings:normal;font-variant-alternates:normal;font-variant-caps:normal;font-variant-east-asian:normal;font-variant-ligatures:normal;font-variant-numeric:normal;font-variant-position:normal;font-variation-settings:normal;image-rendering:auto;inline-size:0;isolation:auto;mix-blend-mode:normal;shape-margin:0;shape-padding:0;shape-rendering:auto;solid-color:#000000;stop-color:#000000;text-decoration-color:#000000;text-decoration-line:none;text-decoration-style:solid;text-indent:0;text-orientation:mixed;text-transform:none;white-space:normal"/>
  <path d="m94.58 7.4961c-0.08463-0.00903-0.18632-0.027736-0.35742 0.056641s-0.31818 0.37736-0.30273 0.54102c0.03088 0.32731 0.14921 0.37378 0.25781 0.49805 0.43442 0.49705 1.4277 1.302 3.168 2.6543 1.7403 1.3523 4.1964 3.2063 7.4258 5.627 20.123 15.084 29.828 26.115 33.436 37.824 2.1154 6.8661 2.2705 12.229-0.67187 18.959s-9.0414 14.817-19.467 26.857c-18.07 20.869-24.992 32.99-27.787 48.76-1.3568 7.6548-1.4253 10.628-0.42578 18.541 0.65362 5.175 1.9659 11.528 2.9785 14.291 0.88003 2.4009 1.3855 3.7457 2.7305 4.7812 1.3449 1.0355 3.3749 1.7038 7.3437 3.0371 3.0116 1.0117 5.2631 1.7789 6.8984 2.207 0.81767 0.21407 1.4791 0.34577 2.0312 0.37305 0.55214 0.0273 1.0378-0.0401 1.3984-0.36524 0.36063-0.32508 0.44938-0.83177 0.39062-1.3359-0.0587-0.50416-0.24389-1.0772-0.52929-1.7793-0.5708-1.4041-1.557-3.3114-2.8574-5.8652-3.8496-7.5599-4.5418-9.8216-4.9512-16.201-0.47957-7.4728 0.61799-14.292 4.168-22.525s9.5645-17.87 18.904-30.875c13.747-19.142 18.572-27.446 21.217-36.6 2.5034-8.6662 1.536-18.219-2.6973-26.818-6.1104-12.412-23.974-27.614-46.584-39.84-2.1135-1.1429-3.6634-1.9613-4.625-2.4062-0.4808-0.2225-0.75329-0.36038-1.0918-0.39648zm2.5879 2.3008c0.83163 0.42975 1.4276 0.71862 2.6523 1.3809 22.498 12.165 40.254 27.397 46.164 39.402 4.1303 8.3899 5.0628 17.686 2.6328 26.098-2.5992 8.9977-7.3365 17.174-21.068 36.295-9.3577 13.03-15.41 22.713-19.01 31.062-3.6001 8.3493-4.7364 15.376-4.248 22.986 0.41326 6.4396 1.1934 8.9993 5.0586 16.59 1.3014 2.5558 2.2822 4.4653 2.8203 5.7891 0.26907 0.66187 0.42337 1.1804 0.46289 1.5195 0.0395 0.33912-0.0138 0.42915-0.0664 0.47656-0.0526 0.0474-0.25179 0.12856-0.67969 0.10743-0.42791-0.0211-1.0417-0.13446-1.8262-0.33985-1.569-0.41077-3.8207-1.1753-6.834-2.1875-3.9679-1.3329-5.9402-2.0243-7.0527-2.8809s-1.5214-1.9359-2.4004-4.334c-0.93569-2.5528-2.2805-8.9634-2.9258-14.072-0.99503-7.8782-0.93232-10.622 0.41797-18.24 2.7613-15.578 9.5308-27.461 27.559-48.281 10.444-12.062 16.6-20.187 19.627-27.111 3.0272-6.9239 2.8665-12.656 0.71094-19.652-3.7038-12.022-13.604-23.199-33.791-38.33-3.228-2.4196-5.6821-4.2729-7.4121-5.6172-0.45227-0.35143-0.43494-0.37425-0.79102-0.66016zm-8.8887 22.211c-1.5947-0.07956-2.825-0.05542-3.6289 0.26367-0.20263 0.08044-0.38259 0.17288-0.53906 0.33398s-0.26951 0.43995-0.23047 0.68945c0.07809 0.499 0.43078 0.74157 0.90039 1.0508 0.93922 0.61841 2.6398 1.3803 5.3457 2.4629 13.695 5.4794 20.624 11.764 25.602 23.189 0.77768 1.7851 1.5294 3.4081 2.1211 4.5918 0.29584 0.59187 0.5509 1.072 0.75391 1.418 0.1015 0.17299 0.18847 0.31013 0.27343 0.42383 0.0425 0.05685 0.0831 0.10813 0.14258 0.16406 0.0594 0.05594 0.11866 0.16992 0.39844 0.16992 0.15972 0 0.32487-0.08221 0.41797-0.17188 0.0931-0.08967 0.13846-0.17715 0.17187-0.25781 0.0668-0.16132 0.0878-0.31216 0.10547-0.48828 0.0353-0.35224 0.0282-0.80058-6e-3 -1.3496-0.0681-1.0981-0.25132-2.5802-0.50976-4.207-0.5169-3.2536-1.3258-7.0586-2.123-9.3984-2.0053-5.8852-8.1543-13.117-13.283-15.551-2.2978-1.0904-6.4628-2.0867-10.42-2.7188-1.9786-0.31602-3.8974-0.53567-5.4922-0.61524zm-0.05078 0.99805c1.5426 0.07696 3.4343 0.29394 5.3848 0.60547 3.9008 0.62305 8.0698 1.6475 10.15 2.6348 4.6988 2.2297 10.886 9.451 12.766 14.969 0.75634 2.2197 1.5697 6.02 2.0801 9.2324 0.25517 1.6062 0.43542 3.0716 0.5 4.1133 7e-3 0.11993-2e-3 0.16512 2e-3 0.27344-0.12287-0.23131-0.2197-0.39634-0.36719-0.69141-0.58007-1.1605-1.3278-2.7713-2.0996-4.543-5.061-11.617-12.31-18.186-26.145-23.721-2.688-1.0754-4.3879-1.8542-5.1699-2.3691-0.30173-0.19867-0.32364-0.26509-0.35547-0.28516 0.02298-0.0113 0.01499-0.01156 0.04492-0.02344 0.43416-0.17234 1.6664-0.27227 3.209-0.19531zm-23.76 16.961c-0.69093 0.0098-1.2291 0.04605-1.6426 0.11914-0.20674 0.03655-0.38125 0.08025-0.54492 0.15234-0.16367 0.07209-0.34621 0.17658-0.45312 0.41211-0.10691 0.23553-0.03425 0.52623 0.07422 0.6875 0.10847 0.16127 0.24033 0.26814 0.39648 0.37695 0.31231 0.21762 0.74302 0.42884 1.3242 0.67188 1.1624 0.48606 2.9181 1.0764 5.291 1.791 17.494 5.2685 27.426 14.387 33.432 30.676l2.2441 6.084 0.96875-0.14844 0.29883-6.3242c0.18053-3.81-0.35413-8.6682-1.3301-12.025-2.1358-7.347-5.4901-12.562-10.914-16.084-5.424-3.5221-12.863-5.351-23.172-6.1211-2.6075-0.19478-4.5908-0.28715-5.9727-0.26758zm0.01563 1c1.3239-0.01875 3.29 0.06999 5.8828 0.26367 10.227 0.76396 17.496 2.5845 22.701 5.9648 5.2056 3.3804 8.4047 8.3225 10.498 15.523 0.93027 3.2 1.4671 8.025 1.293 11.699l-0.1836 3.8652-1.3926-3.7754c-6.0884-16.513-16.379-25.956-34.08-31.287-2.3571-0.70988-4.0983-1.2991-5.1953-1.7578-0.39105-0.16352-0.59249-0.28369-0.81055-0.40625 0.31761-0.04438 0.71239-0.0817 1.2871-0.08984zm-11.889 22.738c-0.92926-0.02716-1.6956-0.02182-2.2578 0.02539-0.28109 0.0236-0.50763 0.0537-0.71094 0.11523-0.10165 0.03077-0.19915 0.06634-0.31055 0.14844-0.1114 0.0821-0.25781 0.2659-0.25781 0.49023 0 0.26669 0.11634 0.3486 0.17969 0.41406 0.06335 0.06546 0.12174 0.10846 0.1875 0.1543 0.13153 0.09167 0.29151 0.18354 0.49219 0.28906 0.40135 0.21104 0.95971 0.47009 1.6465 0.76758 1.3736 0.59498 3.2547 1.3382 5.3262 2.0938 15.509 5.6564 24.672 14.547 28.908 27.984 0.5293 1.6791 0.95556 2.83 1.3398 3.5176 0.19214 0.34377 0.31667 0.62425 0.73828 0.75195 0.21081 0.0639 0.5055-0.0157 0.65625-0.1543 0.15075-0.13863 0.21666-0.28723 0.27344-0.44531 0.22712-0.63232 0.27643-1.6238 0.27539-3.2031-1e-3 -1.5793-0.0848-3.7018-0.24609-6.3887-0.38177-6.3596-1.8249-11.449-4.4824-15.408-2.6575-3.9591-6.5246-6.7625-11.648-8.5703-1.0936-0.38585-3.031-0.76293-5.3867-1.125-2.3557-0.36207-5.1083-0.69886-7.7363-0.95898s-5.1278-0.44372-6.9863-0.49805zm-0.0293 1c1.8188 0.05316 4.3061 0.23561 6.918 0.49414 2.6119 0.25853 5.3496 0.59273 7.6816 0.95117 2.3321 0.35844 4.2797 0.75288 5.207 1.0801 4.9679 1.7528 8.6205 4.4166 11.15 8.1855 2.5299 3.769 3.9398 8.6672 4.3145 14.908 0.16064 2.676 0.24312 4.7856 0.24414 6.3301 8.12e-4 1.235-0.09087 1.8278-0.17383 2.291-0.29583-0.58274-0.67727-1.5391-1.1562-3.0586-4.3228-13.713-13.809-22.894-29.518-28.623-2.056-0.74986-3.9266-1.4889-5.2734-2.0723-0.43101-0.1867-0.69885-0.32195-1.0098-0.4707 0.45956-0.01818 0.9303-0.03565 1.6152-0.01563z" style="color-rendering:auto;color:#000000;dominant-baseline:auto;fill:#f44336;font-feature-settings:normal;font-variant-alternates:normal;font-variant-caps:normal;font-variant-east-asian:normal;font-variant-ligatures:normal;font-variant-numeric:normal;font-variant-position:normal;font-variation-settings:normal;image-rendering:auto;inline-size:0;isolation:auto;mix-blend-mode:normal;shape-margin:0;shape-padding:0;shape-rendering:auto;solid-color:#000000;stop-color:#000000;text-decoration-color:#000000;text-decoration-line:none;text-decoration-style:solid;text-indent:0;text-orientation:mixed;text-transform:none;white-space:normal"/>
 </g>
</svg>
