<?xml version="1.0" standalone="no"?>
<!DOCTYPE svg PUBLIC "-//W3C//DTD SVG 20010904//EN"
 "http://www.w3.org/TR/2001/REC-SVG-20010904/DTD/svg10.dtd">
<svg version="1.0" xmlns="http://www.w3.org/2000/svg"
 width="512.000000pt" height="512.000000pt" viewBox="0 0 512.000000 512.000000"
 preserveAspectRatio="xMidYMid meet">
<metadata>
Created by potrace 1.16, written by Peter Selinger 2001-2019
</metadata>
<g transform="translate(0.000000,512.000000) scale(0.100000,-0.100000)"
fill="#000000" stroke="none">
<path d="M0 2560 l0 -2560 2560 0 2560 0 0 1625 0 1625 -30 0 -30 0 -3 -625
-2 -625 0 627 0 628 33 3 32 3 0 930 0 929 -2560 0 -2560 0 0 -2560z m2783
1103 l195 -338 399 -3 399 -2 194 -338 c107 -185 202 -353 211 -372 9 -19 98
-176 198 -348 99 -172 181 -315 181 -318 0 -3 -88 -157 -195 -343 -145 -251
-201 -340 -218 -345 -12 -3 -371 -6 -797 -5 l-775 0 -195 339 -194 340 -399 2
-399 3 -199 343 -198 344 385 666 c212 367 392 677 400 690 l14 22 399 0 399
0 195 -337z"/>
</g>
</svg>
