<?xml version="1.0" encoding="UTF-8"?>
<svg width="24" height="24" version="1.1" viewBox="0 0 24 24" xmlns="http://www.w3.org/2000/svg">
 <path d="m13.009 9.202h5.3677l-5.3677-5.3677v5.3677m-6.8316-6.8316h7.8075l5.8557 5.8557v11.711a1.9519 1.9519 0 0 1 -1.9519 1.9519h-11.711c-1.0833 0-1.9519-0.87835-1.9519-1.9519v-15.615c0-1.0833 0.86859-1.9519 1.9519-1.9519m0 17.567h11.711v-7.8075l-3.9038 3.9038-1.9519-1.9519-5.8557 5.8557m1.9519-10.735a1.9519 1.9519 0 0 0 -1.9519 1.9519 1.9519 1.9519 0 0 0 1.9519 1.9519 1.9519 1.9519 0 0 0 1.9519 -1.9519 1.9519 1.9519 0 0 0 -1.9519 -1.9519z" fill="#26a69a" stroke-width=".97594"/>
</svg>
