<svg version="1.1" id="Layer_1" xmlns="http://www.w3.org/2000/svg" xmlns:xlink="http://www.w3.org/1999/xlink" x="0px" y="0px"
	 width="100%" viewBox="0 0 513 513" enable-background="new 0 0 513 513" xml:space="preserve">
<path fill="#438977" opacity="1.000000" stroke="none" 
	d="
M241.000000,1.000000 
	C251.354233,1.000000 261.708466,1.000000 272.735168,1.380755 
	C283.024139,2.839571 292.701111,3.540545 302.244965,5.071572 
	C324.387970,8.623751 345.591003,15.404431 365.858093,24.995722 
	C387.856567,35.406368 407.968903,48.609489 426.367523,64.662262 
	C442.893097,79.080772 457.278534,95.302544 469.534546,113.318260 
	C481.101776,130.321564 490.571960,148.504074 497.595490,167.980789 
	C506.591003,192.925812 512.414490,218.398956 513.038452,244.978088 
	C513.077942,246.658661 513.666748,248.326340 514.000000,250.000000 
	C514.000000,254.689255 514.000000,259.378510 513.617126,264.741333 
	C512.160645,276.867493 511.479950,288.373444 509.932434,299.761566 
	C506.616211,324.166016 498.899384,347.299133 488.158997,369.390106 
	C479.347961,387.512695 469.269379,404.994598 455.493958,419.810181 
	C442.704102,433.565735 429.847900,447.497559 415.449646,459.460663 
	C396.580963,475.138092 375.071442,487.005951 352.099701,496.008240 
	C331.509674,504.077209 310.339935,509.699097 288.317719,512.029907 
	C283.529266,512.536743 278.771759,513.335632 274.000000,514.000000 
	C262.979095,514.000000 251.958206,514.000000 240.264862,513.619263 
	C235.005707,512.828674 230.421402,512.389404 225.831848,512.014343 
	C209.989822,510.719757 194.682968,506.864319 179.566284,502.202087 
	C152.700546,493.916229 128.018005,481.221008 105.334053,464.680298 
	C85.241920,450.029541 67.585945,432.767181 52.605129,412.953033 
	C39.182060,395.199249 28.117743,375.960114 19.752096,355.292694 
	C11.418262,334.703888 5.305590,313.493866 2.956060,291.303833 
	C2.554297,287.509399 1.664400,283.766632 1.000001,280.000000 
	C1.000000,265.312439 1.000000,250.624878 1.376590,235.271942 
	C2.565465,227.270554 2.844232,219.827362 4.292607,212.619186 
	C8.237123,192.988342 13.725369,173.846176 21.726963,155.355392 
	C33.615887,127.881454 49.834404,103.359001 70.141151,81.556068 
	C77.433754,73.726151 85.814873,66.899940 93.798027,59.725601 
	C107.125366,47.748528 122.070198,37.926212 138.092514,30.227114 
	C153.430969,22.856619 169.357849,16.374228 185.588989,11.303118 
	C198.861572,7.156357 212.951187,5.599305 226.703598,3.027797 
	C231.430191,2.143987 236.232361,1.664303 241.000000,1.000000 
M389.170166,203.509644 
	C389.170135,201.177643 389.177155,198.845612 389.168823,196.513641 
	C389.126617,184.734177 382.780060,178.189835 371.001648,178.183197 
	C295.043976,178.140396 219.086288,178.138931 143.128647,178.184921 
	C131.400223,178.192017 125.000610,184.824387 124.999680,196.569199 
	C124.995613,247.873947 124.997047,299.178680 124.998535,350.483429 
	C124.998909,363.309570 131.086899,369.490601 143.937256,369.494568 
	C219.395203,369.517822 294.853149,369.521820 370.311096,369.490417 
	C383.223694,369.485046 389.166840,363.390045 389.168182,350.425079 
	C389.173126,301.785522 389.170166,253.145966 389.170166,203.509644 
M222.536530,404.020416 
	C217.831833,401.529419 213.137299,399.018921 208.419434,396.553131 
	C204.064072,394.276764 203.185883,394.735779 203.171738,399.521667 
	C203.126419,414.851837 203.131897,430.182312 203.167343,445.512543 
	C203.179443,450.742035 204.020691,451.241943 208.638397,448.784393 
	C223.762772,440.735168 238.822632,432.562592 254.034225,424.682465 
	C255.670807,423.834656 258.514374,423.861969 260.160645,424.714355 
	C275.377380,432.592804 290.440491,440.767395 305.579163,448.797577 
	C310.258392,451.279602 310.986908,450.814117 310.996735,445.512329 
	C311.025146,430.182068 311.032013,414.851624 310.991943,399.521393 
	C310.979218,394.650818 310.158417,394.195892 305.749237,396.537659 
	C291.056885,404.341095 276.323364,412.071075 261.751282,420.093781 
	C258.457245,421.907349 255.987167,422.127075 252.628159,420.221436 
	C242.936508,414.722992 233.010391,409.637878 222.536530,404.020416 
M331.277893,66.017654 
	C320.448090,62.269527 310.193939,65.909416 305.893799,75.373627 
	C300.828888,86.521011 305.031799,97.870674 318.586639,103.731400 
	C315.712433,120.265678 312.824554,136.878616 309.887573,153.774017 
	C319.465240,153.774017 328.551147,153.774017 337.967896,153.774017 
	C334.991852,136.702896 332.064514,119.911133 329.123108,103.038643 
	C337.534698,99.425987 342.767609,93.648788 342.965912,84.432045 
	C343.143768,76.165703 339.218567,70.185211 331.277893,66.017654 
z"/>
<path fill="#FFFFFF" opacity="1.000000" stroke="none" 
	d="
M514.000000,249.531342 
	C513.666748,248.326340 513.077942,246.658661 513.038452,244.978088 
	C512.414490,218.398956 506.591003,192.925812 497.595490,167.980789 
	C490.571960,148.504074 481.101776,130.321564 469.534546,113.318260 
	C457.278534,95.302544 442.893097,79.080772 426.367523,64.662262 
	C407.968903,48.609489 387.856567,35.406368 365.858093,24.995722 
	C345.591003,15.404431 324.387970,8.623751 302.244965,5.071572 
	C292.701111,3.540545 283.024139,2.839571 273.203796,1.380755 
	C353.261566,1.000000 433.523102,1.000000 514.000000,1.000000 
	C514.000000,83.687439 514.000000,166.375061 514.000000,249.531342 
z"/>
<path fill="#FFFFFF" opacity="1.000000" stroke="none" 
	d="
M274.468658,514.000000 
	C278.771759,513.335632 283.529266,512.536743 288.317719,512.029907 
	C310.339935,509.699097 331.509674,504.077209 352.099701,496.008240 
	C375.071442,487.005951 396.580963,475.138092 415.449646,459.460663 
	C429.847900,447.497559 442.704102,433.565735 455.493958,419.810181 
	C469.269379,404.994598 479.347961,387.512695 488.158997,369.390106 
	C498.899384,347.299133 506.616211,324.166016 509.932434,299.761566 
	C511.479950,288.373444 512.160645,276.867493 513.617126,265.207458 
	C514.000000,347.925690 514.000000,430.851410 514.000000,514.000000 
	C434.312592,514.000000 354.624939,514.000000 274.468658,514.000000 
z"/>
<path fill="#FFFFFF" opacity="1.000000" stroke="none" 
	d="
M240.531342,1.000000 
	C236.232361,1.664303 231.430191,2.143987 226.703598,3.027797 
	C212.951187,5.599305 198.861572,7.156357 185.588989,11.303118 
	C169.357849,16.374228 153.430969,22.856619 138.092514,30.227114 
	C122.070198,37.926212 107.125366,47.748528 93.798027,59.725601 
	C85.814873,66.899940 77.433754,73.726151 70.141151,81.556068 
	C49.834404,103.359001 33.615887,127.881454 21.726963,155.355392 
	C13.725369,173.846176 8.237123,192.988342 4.292607,212.619186 
	C2.844232,219.827362 2.565465,227.270554 1.376590,234.803284 
	C1.000000,157.072037 1.000000,79.144058 1.000000,1.000000 
	C80.687431,1.000000 160.375061,1.000000 240.531342,1.000000 
z"/>
<path fill="#FFFFFF" opacity="1.000000" stroke="none" 
	d="
M1.000001,280.468658 
	C1.664400,283.766632 2.554297,287.509399 2.956060,291.303833 
	C5.305590,313.493866 11.418262,334.703888 19.752096,355.292694 
	C28.117743,375.960114 39.182060,395.199249 52.605129,412.953033 
	C67.585945,432.767181 85.241920,450.029541 105.334053,464.680298 
	C128.018005,481.221008 152.700546,493.916229 179.566284,502.202087 
	C194.682968,506.864319 209.989822,510.719757 225.831848,512.014343 
	C230.421402,512.389404 235.005707,512.828674 239.796204,513.619263 
	C160.407074,514.000000 80.814133,514.000000 1.000000,514.000000 
	C1.000000,436.312592 1.000000,358.624939 1.000001,280.468658 
z"/>
<path fill="#FEFEFE" opacity="1.000000" stroke="none" 
	d="
M389.170166,204.008026 
	C389.170166,253.145966 389.173126,301.785522 389.168182,350.425079 
	C389.166840,363.390045 383.223694,369.485046 370.311096,369.490417 
	C294.853149,369.521820 219.395203,369.517822 143.937256,369.494568 
	C131.086899,369.490601 124.998909,363.309570 124.998535,350.483429 
	C124.997047,299.178680 124.995613,247.873947 124.999680,196.569199 
	C125.000610,184.824387 131.400223,178.192017 143.128647,178.184921 
	C219.086288,178.138931 295.043976,178.140396 371.001648,178.183197 
	C382.780060,178.189835 389.126617,184.734177 389.168823,196.513641 
	C389.177155,198.845612 389.170135,201.177643 389.170166,204.008026 
M168.702209,290.108368 
	C174.356186,292.390717 177.271255,290.701202 177.850845,284.805939 
	C179.186386,271.221649 188.228668,262.038635 200.295990,262.011505 
	C212.410019,261.984253 221.890839,271.341492 222.913071,284.673706 
	C223.213379,288.590271 224.605957,291.393768 228.666351,291.250641 
	C233.072037,291.095337 234.150986,287.898071 234.053726,283.860748 
	C233.640335,266.701202 219.155716,251.716415 202.034348,250.904236 
	C184.495270,250.072235 168.773407,263.472473 167.032043,281.021027 
	C166.754684,283.816193 167.713867,286.734039 168.702209,290.108368 
M301.372711,251.547897 
	C285.650177,255.611465 275.306915,268.025330 274.298279,284.065002 
	C274.060272,287.849335 275.320984,290.836029 279.452332,291.238434 
	C283.351685,291.618256 285.135864,289.143311 285.512482,285.484833 
	C285.648926,284.159393 285.756378,282.828949 285.951202,281.511749 
	C287.545197,270.736176 296.879700,262.278564 307.448181,262.014099 
	C318.219055,261.744568 327.771667,269.418427 330.008453,280.205750 
	C330.412689,282.155243 330.620972,284.150513 330.830475,286.134064 
	C331.188965,289.527802 333.396057,291.852173 336.372131,291.123810 
	C338.521271,290.597809 340.448547,287.907990 341.766785,285.750610 
	C342.473846,284.593475 341.819977,282.500977 341.552429,280.867889 
	C338.281921,260.903778 322.509399,249.072891 301.372711,251.547897 
z"/>
<path fill="#FCFDFD" opacity="1.000000" stroke="none" 
	d="
M222.856445,404.205444 
	C233.010391,409.637878 242.936508,414.722992 252.628159,420.221436 
	C255.987167,422.127075 258.457245,421.907349 261.751282,420.093781 
	C276.323364,412.071075 291.056885,404.341095 305.749237,396.537659 
	C310.158417,394.195892 310.979218,394.650818 310.991943,399.521393 
	C311.032013,414.851624 311.025146,430.182068 310.996735,445.512329 
	C310.986908,450.814117 310.258392,451.279602 305.579163,448.797577 
	C290.440491,440.767395 275.377380,432.592804 260.160645,424.714355 
	C258.514374,423.861969 255.670807,423.834656 254.034225,424.682465 
	C238.822632,432.562592 223.762772,440.735168 208.638397,448.784393 
	C204.020691,451.241943 203.179443,450.742035 203.167343,445.512543 
	C203.131897,430.182312 203.126419,414.851837 203.171738,399.521667 
	C203.185883,394.735779 204.064072,394.276764 208.419434,396.553131 
	C213.137299,399.018921 217.831833,401.529419 222.856445,404.205444 
z"/>
<path fill="#FCFDFD" opacity="1.000000" stroke="none" 
	d="
M331.627930,66.166901 
	C339.218567,70.185211 343.143768,76.165703 342.965912,84.432045 
	C342.767609,93.648788 337.534698,99.425987 329.123108,103.038643 
	C332.064514,119.911133 334.991852,136.702896 337.967896,153.774017 
	C328.551147,153.774017 319.465240,153.774017 309.887573,153.774017 
	C312.824554,136.878616 315.712433,120.265678 318.586639,103.731400 
	C305.031799,97.870674 300.828888,86.521011 305.893799,75.373627 
	C310.193939,65.909416 320.448090,62.269527 331.627930,66.166901 
z"/>
<path fill="#488C7A" opacity="1.000000" stroke="none" 
	d="
M168.401794,289.851776 
	C167.713867,286.734039 166.754684,283.816193 167.032043,281.021027 
	C168.773407,263.472473 184.495270,250.072235 202.034348,250.904236 
	C219.155716,251.716415 233.640335,266.701202 234.053726,283.860748 
	C234.150986,287.898071 233.072037,291.095337 228.666351,291.250641 
	C224.605957,291.393768 223.213379,288.590271 222.913071,284.673706 
	C221.890839,271.341492 212.410019,261.984253 200.295990,262.011505 
	C188.228668,262.038635 179.186386,271.221649 177.850845,284.805939 
	C177.271255,290.701202 174.356186,292.390717 168.401794,289.851776 
z"/>
<path fill="#488C7A" opacity="1.000000" stroke="none" 
	d="
M301.790100,251.429810 
	C322.509399,249.072891 338.281921,260.903778 341.552429,280.867889 
	C341.819977,282.500977 342.473846,284.593475 341.766785,285.750610 
	C340.448547,287.907990 338.521271,290.597809 336.372131,291.123810 
	C333.396057,291.852173 331.188965,289.527802 330.830475,286.134064 
	C330.620972,284.150513 330.412689,282.155243 330.008453,280.205750 
	C327.771667,269.418427 318.219055,261.744568 307.448181,262.014099 
	C296.879700,262.278564 287.545197,270.736176 285.951202,281.511749 
	C285.756378,282.828949 285.648926,284.159393 285.512482,285.484833 
	C285.135864,289.143311 283.351685,291.618256 279.452332,291.238434 
	C275.320984,290.836029 274.060272,287.849335 274.298279,284.065002 
	C275.306915,268.025330 285.650177,255.611465 301.790100,251.429810 
z"/>
</svg>