<svg xmlns="http://www.w3.org/2000/svg" viewBox="0 0 32 32"><path fill="#fdd835" d="M30 13v-3h-2v3h-1v.5a.5.5 0 0 0 .5.5h.5v10h-1v-2h-1v-8h-1v6h-2v-3h-1v1h-1v-1h1a6.353 6.353 0 0 0-6-4 6.353 6.353 0 0 0-6 4h1v1h-1v-1H9v3H7v-6H6v8H5v2H4V14h.5a.5.5 0 0 0 .5-.5V13H4v-3H2v3H1v.5a.5.5 0 0 0 .5.5H2v12h8v-6h2v6h8v-6h2v6h8V14h.5a.5.5 0 0 0 .5-.5V13ZM14 24h-1v-2h1Zm3 0h-2v-2a1 1 0 0 1 2 0Zm2 0h-1v-2h1Zm-1-7v1h-1v-1Zm-3 0v1h-1v-1Zm-3 0h1v1h-1Zm7 1v-1h1v1ZM3 6 2 9h2L3 6zm26 0-1 3h2l-1-3z"/><path fill="#fdd835" d="m16 10-1 2h2l-1-2zm9.5 1-.5 2h1l-.5-2zm-19 0L6 13h1l-.5-2z"/></svg>