<?xml version="1.0" encoding="UTF-8" standalone="no"?>
<!-- Created by sK1 2.0rc5 (https://sk1project.net/) -->

<svg
   viewBox="0 0 24 24"
   version="1.1"
   id="5d64c6c0-83a9-11ec-a1f2-707781d66902"
   xmlns="http://www.w3.org/2000/svg"
   xmlns:svg="http://www.w3.org/2000/svg">
  <defs
     id="defs15" />
  <g
     id="g10"
     style="stroke:none;stroke-opacity:1;fill:#707070;fill-opacity:1">
    <g
       id="g8"
       style="stroke:none;stroke-opacity:1;fill:#707070;fill-opacity:1">
      <path
         style="stroke:none;stroke-width:0.0686;stroke-miterlimit:4;fill:#707070;stroke-opacity:1;fill-opacity:1"
         d="M 11.7632,23.4897 C 11.5779,23.3936 11.1869,23.2153 10.9055,23.078 10.0891,22.6938 9.4441,22.3095 9.3891,22.1723 9.3616,22.0968 9.3342,21.9184 9.3274,21.7675 9.3274,21.5341 9.3068,21.5135 9.2381,21.6028 9.0667,21.8224 8.8677,21.8841 8.6481,21.7743 8.5383,21.7125 8.4079,21.6302 8.353,21.5822 8.305,21.5341 8.1403,21.4038 7.9893,21.294 7.7218,21.0951 6.5759,19.9766 6.3769,19.709 6.1024,19.3453 5.7456,18.7621 5.677,18.5631 5.6359,18.4396 5.5741,18.2955 5.533,18.2543 5.4986,18.2063 5.4849,18.1651 5.5055,18.1651 5.533,18.1651 5.4986,18.0348 5.4437,17.8769 5.3614,17.6368 5.3476,16.882 5.3682,12.8199 5.3888,8.0443 5.3888,8.0443 5.5604,7.5982 5.924,6.6651 6.5416,5.9789 7.3787,5.5809 7.9413,5.3134 8.2432,5.2173 8.5863,5.2036 8.6892,5.1967 8.6892,5.1693 8.6001,4.8742 8.2432,3.6941 8.6275,2.1913 9.4921,1.3748 9.9037,0.9838 10.4664,0.5994 10.631,0.5994 10.6928,0.5994 10.7683,0.579 10.7957,0.5446 10.8232,0.5171 10.8712,0.4965 10.8918,0.4897 10.9193,0.4897 11.0564,0.4554 11.1937,0.4142 11.5231,0.3182 12.4837,0.3182 12.813,0.4142 12.9503,0.4554 13.0875,0.4897 13.1149,0.4897 13.1355,0.4965 13.1836,0.5171 13.211,0.5514 13.2385,0.579 13.3139,0.5994 13.3757,0.5994 13.4374,0.5994 13.6433,0.6955 13.8286,0.819 14.9881,1.5807 15.6057,2.7334 15.537,4.0303 15.5234,4.3115 15.4685,4.689 15.4135,4.8742 15.3176,5.1693 15.3176,5.1967 15.4205,5.2036 15.7636,5.2173 16.0655,5.3134 16.6281,5.5809 17.4652,5.9789 18.0828,6.6651 18.4464,7.5982 18.6179,8.0443 18.6179,8.0443 18.6385,12.8954 18.6591,17.7466 18.6591,17.7466 18.467,18.2818 18.1376,19.1669 17.87,19.5649 17.0398,20.3882 15.8595,21.5753 15.2489,21.9733 14.9951,21.7263 14.8784,21.6164 14.8372,21.6576 14.7961,21.9115 14.7549,22.1655 14.5833,22.4193 14.453,22.4193 14.4118,22.4193 14.3295,22.4604 14.2746,22.5154 14.103,22.6594 12.2299,23.6543 12.1268,23.6543 12.1132,23.6543 11.9554,23.5789 11.7632,23.4897 Z M 11.2075,16.0655 C 11.3927,15.9145 11.674,15.4274 11.6191,15.3381 11.5985,15.3107 11.7632,15.2832 11.9828,15.2832 12.3808,15.2832 12.3808,15.2901 12.5112,15.5509 12.6895,15.9214 13.0875,16.2988 13.3414,16.3262 13.5267,16.3468 13.5472,16.3262 13.5404,16.141 13.5267,15.3451 12.7924,14.6726 11.9691,14.7001 11.3378,14.7207 10.8232,15.0637 10.583,15.6263 10.4458,15.9351 10.4115,16.2576 10.5007,16.3194 10.5968,16.3743 11.0016,16.2301 11.2075,16.0655 Z M 9.9449,14.7001 C 9.9449,14.5696 10.6174,13.8835 10.8712,13.76 11.0908,13.6503 11.4544,13.5404 11.5437,13.5542 11.6191,13.5747 11.6055,13.5198 11.5024,13.4169 11.4544,13.3689 11.3447,13.2247 11.2554,13.1082 11.1045,12.8817 11.1045,12.8817 12.0033,12.8817 12.9023,12.8817 12.9023,12.8817 12.7513,13.1082 12.6621,13.2247 12.5524,13.3689 12.5043,13.4169 12.4013,13.5198 12.3876,13.5747 12.4699,13.5542 12.6003,13.5267 13.1081,13.7257 13.362,13.9041 13.6433,14.1168 14.1305,14.6931 14.1305,14.8304 14.1305,14.8716 14.1991,14.7961 14.2746,14.6657 14.5216,14.2609 15.0087,13.8423 15.5234,13.609 15.9556,13.4101 16.4085,13.0395 16.7722,12.5935 16.8819,12.4563 17.2182,11.7701 17.2662,11.578 17.2937,11.4819 17.3211,10.7409 17.3349,9.9244 17.3554,8.3805 17.3554,8.3737 17.0466,7.7013 16.9369,7.4679 16.587,7.0905 16.2645,6.8573 15.6743,6.4319 14.5353,6.3632 13.8492,6.7132 13.5678,6.8573 13.2453,7.1523 12.8954,7.5982 12.765,7.7698 12.5386,8.0238 12.3876,8.1678 11.9897,8.5657 11.8662,8.5109 11.1457,7.6326 10.5419,6.8915 10.1782,6.6309 9.6018,6.5348 8.8882,6.4113 8.1883,6.5348 7.7355,6.8641 7.413,7.0905 7.0699,7.4679 6.9601,7.7013 6.6514,8.3668 6.6514,8.3805 6.6719,9.89 6.6857,10.6859 6.7131,11.3859 6.7337,11.4408 6.7474,11.4957 6.7886,11.6192 6.816,11.7153 7.0836,12.5935 7.7149,13.2659 8.6687,13.7051 9.0255,13.8629 9.6979,14.4873 9.7734,14.7343 9.8214,14.8853 9.9449,14.8578 9.9449,14.7001 Z M 11.5779,5.6359 C 11.6055,5.4574 11.3995,5.3615 11.2692,5.4918 11.2143,5.5398 11.1937,5.6359 11.2212,5.7045 11.283,5.8692 11.5505,5.8211 11.5779,5.6359 Z M 12.1749,5.6428 C 12.1749,5.4918 11.9622,5.4163 11.8524,5.5261 11.7358,5.6428 11.8456,5.828 12.0171,5.8005 12.12,5.7869 12.1749,5.7319 12.1749,5.6428 Z M 12.7582,5.7045 C 12.8337,5.6221 12.8337,5.5809 12.7444,5.4986 12.6209,5.3751 12.4151,5.4438 12.4151,5.6015 12.4151,5.828 12.6072,5.8898 12.7582,5.7045 Z M 11.0016,5.6428 C 11.0496,5.5124 10.8644,5.3271 10.734,5.3751 10.631,5.4163 10.5968,5.6153 10.6791,5.6976 10.7615,5.7799 10.9605,5.7457 11.0016,5.6428 Z M 13.362,5.5673 C 13.3894,5.3889 13.2248,5.3134 13.0601,5.43 12.8954,5.5535 12.9846,5.7594 13.1836,5.7319 13.2797,5.7182 13.3483,5.6564 13.362,5.5673 Z M 10.3429,5.6153 C 10.487,5.5261 10.4115,5.2997 10.2331,5.279 10.0478,5.2516 9.9586,5.43 10.0821,5.5741 10.1782,5.6908 10.2194,5.6976 10.3429,5.6153 Z M 13.9177,5.5809 C 14.0207,5.4574 13.9383,5.2654 13.7805,5.2654 13.6296,5.2654 13.5472,5.4163 13.609,5.5741 13.657,5.7045 13.8148,5.7045 13.9177,5.5809 Z M 9.7734,5.334 C 9.7734,5.135 9.5538,5.0526 9.4921,5.2242 9.4303,5.3889 9.5195,5.5535 9.6499,5.5261 9.7322,5.5124 9.7734,5.4438 9.7734,5.334 Z M 14.4324,5.4986 C 14.5765,5.4438 14.5765,5.2036 14.4324,5.1487 14.3775,5.1281 14.2746,5.1555 14.2197,5.2173 14.1305,5.3065 14.1236,5.3477 14.1991,5.43 14.2952,5.5535 14.2883,5.5535 14.4324,5.4986 Z M 9.2381,5.2242 C 9.2587,5.1693 9.2245,5.0664 9.1626,5.0046 9.0597,4.9017 9.0461,4.9017 8.9432,5.0046 8.7991,5.1487 8.8677,5.334 9.0529,5.334 9.1284,5.334 9.2107,5.286 9.2381,5.2242 Z M 15.1186,5.2173 C 15.1803,5.0732 15.0087,4.9017 14.8646,4.9635 14.748,5.0046 14.7068,5.2036 14.7961,5.286 14.8784,5.3751 15.0774,5.334 15.1186,5.2173 Z"
         id="path2" />
      <path
         style="stroke:none;stroke-width:0.0686;stroke-miterlimit:4;fill:#707070;stroke-opacity:1;fill-opacity:1"
         d="M 9.2451,11.1115 C 8.751,10.981 8.1472,10.336 8.2912,10.089 8.4011,9.89 8.6137,9.938 8.7442,10.1851 8.9156,10.5007 9.1626,10.6449 9.5538,10.6449 9.8901,10.6449 10.1714,10.4939 10.3155,10.24 10.4526,9.993 10.5281,9.9518 10.686,10.0067 10.9467,10.1028 10.8644,10.391 10.4732,10.7684 10.3497,10.8781 10.1782,11.0084 10.0821,11.0428 9.9106,11.1115 9.4028,11.1526 9.2451,11.1115 Z"
         id="path4" />
      <path
         style="stroke:none;stroke-width:0.0686;stroke-miterlimit:4;fill:#707070;stroke-opacity:1;fill-opacity:1"
         d="M 14.0494,11.0634 C 13.4456,10.8575 12.9584,10.0616 13.3838,9.9792 13.5279,9.9586 13.5828,9.9861 13.6583,10.144 13.9945,10.789 15.01,10.8301 15.2844,10.2057 15.3874,9.9724 15.6275,9.9038 15.7374,10.0753 15.8746,10.2949 15.5246,10.7752 15.0649,11.0154 14.8316,11.132 14.3239,11.1526 14.0494,11.0634 Z"
         id="path6" />
    </g>
  </g>
</svg>
