<svg width="16" height="16" version="1.1" viewBox="0 0 16 16" xmlns="http://www.w3.org/2000/svg">
 <g transform="matrix(.63158 0 0 .63158 .10526 .10589)" fill="#ffca28">
  <path d="m18 8v2h2v10h-10v-2h-2v4h14v-14z"/>
  <path d="m3 2.999h14v14.001h-14v-14.001m3.6783 11.697c0.31197 0.66157 0.926 1.2053 1.9758 1.2053 1.1667 0 1.9679-0.62196 1.9679-1.9827v-4.4963h-1.3222v4.4656c0 0.66851-0.27235 0.83984-0.7002 0.83984-0.45062 0-0.6378-0.31098-0.84776-0.67742l-1.0736 0.64573m4.6518-0.13964c0.38823 0.76259 1.1746 1.3449 2.4027 1.3449 1.2449 0 2.1788-0.64474 2.1788-1.8352 0-1.0964-0.63087-1.5866-1.751-2.0689l-0.32682-0.13964c-0.56749-0.24165-0.80815-0.40407-0.80815-0.79329 0-0.3189 0.24066-0.56749 0.62988-0.56749 0.37337 0 0.62196 0.16341 0.84776 0.56749l1.0191-0.67643c-0.42784-0.74675-1.0349-1.0349-1.8669-1.0349-1.1746 0-1.9293 0.74675-1.9293 1.7342 0 1.0736 0.62988 1.5797 1.5787 1.9837l0.32682 0.13964c0.6071 0.26443 0.96463 0.42784 0.96463 0.87946 0 0.37337-0.3496 0.64474-0.89431 0.64474-0.64573 0-1.0191-0.33376-1.2994-0.80023z" stroke-width=".99038"/>
 </g>
</svg>
