<svg width="16" height="16" version="1.1" viewBox="0 0 16 16" xmlns="http://www.w3.org/2000/svg">
 <path d="m2 2h12v12h-12v-12m3.1533 10.027c0.26667 0.56667 0.79333 1.0333 1.6933 1.0333 1 0 1.6867-0.53333 1.6867-1.7v-3.8533h-1.1333v3.8267c0 0.57333-0.23333 0.72-0.6 0.72-0.38667 0-0.54667-0.26667-0.72667-0.58l-0.92 0.55333m3.9867-0.12c0.33333 0.65333 1.0067 1.1533 2.06 1.1533 1.0667 0 1.8667-0.55333 1.8667-1.5733 0-0.94-0.54-1.36-1.5-1.7733l-0.28-0.12c-0.48667-0.20667-0.69333-0.34667-0.69333-0.68 0-0.27333 0.20667-0.48667 0.54-0.48667 0.32 0 0.53333 0.14 0.72667 0.48667l0.87333-0.58c-0.36667-0.64-0.88667-0.88667-1.6-0.88667-1.0067 0-1.6533 0.64-1.6533 1.4867 0 0.92 0.54 1.3533 1.3533 1.7l0.28 0.12c0.52 0.22667 0.82667 0.36667 0.82667 0.75333 0 0.32-0.3 0.55333-0.76667 0.55333-0.55333 0-0.87333-0.28667-1.1133-0.68667z" fill="#ffca28" stroke-width=".66667"/>
</svg>
