<svg xmlns="http://www.w3.org/2000/svg" viewBox="0 0 32 32"><path d="M2,4V28a2,2,0,0,0,2,2H28a2,2,0,0,0,2-2V4a2,2,0,0,0-2-2H4A2,2,0,0,0,2,4ZM16,24a3.6412,3.6412,0,0,1-4,4,3.6412,3.6412,0,0,1-4-4h2c0,1.43945.56055,2,2,2s2-.56055,2-2V16h2Zm10-6H22c-2,0-2,.67578-2,1,0,.31641,0,1.2793,2.31641,2.05176C25.36133,22.06641,26,23.75879,26,25c0,1.12012-.51953,3-4,3H18V26h4c2,0,2-.67578,2-1,0-.31641,0-1.2793-2.31641-2.05176C18.63867,21.93359,18,20.24121,18,19c0-1.12012.51953-3,4-3h4Z" style="fill:#ffca28"/></svg>