<svg version="1.1" viewBox="0 0 24 24" xmlns="http://www.w3.org/2000/svg"><path d="m13 9h5.5l-5.5-5.5v5.5m-7-7h8l6 6v12a2 2 0 0 1 -2 2h-12c-1.11 0-2-.9-2-2v-16c0-1.11.89-2 2-2m9 16v-2h-9v2h9m3-4v-2h-12v2h12z" fill="#757575" style="fill:#757575"/><path d="m13.002 12.991h10.018v10.018h-10.018v-10.018m2.6325 8.3707c.22262.47308.66231.86267 1.4137.86267.83484 0 1.4081-.44525 1.4081-1.4192v-3.2169h-.94615v3.1947c0 .47864-.1948.60109-.5009.60109-.32281 0-.45638-.22262-.60665-.48421l-.76805.46194m3.3282-.10018c.27828.54543.84041.96285 1.7198.96285.8905 0 1.5584-.46194 1.5584-1.3135 0-.78475-.45081-1.1354-1.2523-1.4804l-.23376-.10018c-.40629-.17253-.57882-.28941-.57882-.56769 0-.22819.17253-.40629.45082-.40629.26715 0 .44525.11688.60665.40629l.72909-.48421c-.30611-.5343-.74022-.74022-1.3357-.74022-.84041 0-1.3803.5343-1.3803 1.2411 0 .76805.45081 1.1298 1.1298 1.4192l.23376.10018c.43412.18923.69013.30611.69013.62891 0 .26715-.25045.46195-.64004.46195-.46195 0-.72909-.23932-.92946-.57326z" style="fill:#ffca28;stroke-width:.55656"/></svg>
