<svg xmlns="http://www.w3.org/2000/svg" viewBox="0 0 16 16"><g fill="#ffca28"><path d="M11.474 5.159v1.263h1.263v6.315H6.42v-1.263H5.158v2.527H14V5.159z"/><path d="M2 2h8.842v8.843H2V2m2.323 7.388c.197.417.585.76 1.248.76.737 0 1.243-.392 1.243-1.251v-2.84h-.835v2.82c0 .422-.172.53-.442.53-.285 0-.403-.196-.536-.427l-.678.408m2.938-.089c.245.482.742.85 1.518.85.786 0 1.376-.407 1.376-1.16 0-.692-.399-1.001-1.106-1.306l-.207-.088c-.358-.153-.51-.255-.51-.501 0-.202.152-.359.398-.359.236 0 .393.104.535.359l.644-.427c-.27-.472-.654-.654-1.18-.654-.741 0-1.218.472-1.218 1.095 0 .678.398.998.997 1.253l.207.088c.383.167.609.27.609.556 0 .236-.22.407-.565.407-.408 0-.644-.21-.82-.505z"/></g></svg>