<svg xmlns="http://www.w3.org/2000/svg" viewBox="0 0 32 32">
  <g>
    <polygon points="21.032 8 19.154 12 20 13.998 22 13.998 22.928 12 21.032 8" style="fill: #f4511e"/>
    <polygon points="14 2 16 10 18 10 21.032 4 24 10 26 10 28 2 14 2" style="fill: #f4511e"/>
    <path d="M28,20H26a4.3395,4.3395,0,0,1-4-4H20a4.16929,4.16929,0,0,1-4.22925,3.87036C14.24823,22.25073,10.61475,24.15271,8,25.01819A4.72423,4.72423,0,0,1,5,20H4c-4.71844,7.978,3.06439,13.21869,10.95471,7.89478C18.84973,24.49689,29.65759,27.48663,28,20Z" style="fill: #f4511e"/>
  </g>
  <circle cx="7" cy="15" r="3" style="fill: #f4511e"/>
  <circle cx="27" cy="15" r="3" style="fill: #f4511e"/>
  <circle cx="16" cy="16" r="2" style="fill: #f4511e"/>
</svg>
