<svg id="uuid-199e2e53-65a4-4cdb-ba7a-89ade49bdfdc" xmlns="http://www.w3.org/2000/svg" viewBox="0 0 24 24"><path d="m10.14,21.28c-.02-.08-.05-.16-.05-.25,0-2.5,0-5,0-7.51v-.24c-.06,0-.12,0-.18,0-.79,0-1.58,0-2.37,0-.75,0-1.29-.33-1.68-.95-.04-.06-.08-.12-.12-.18-.01-.01-.02-.02-.03-.03-.18-.49-.16-.98-.01-1.48.2-.68.35-1.37.53-2.06.21-.8.44-1.61.66-2.41.22-.83.45-1.67.67-2.51,0-.04.02-.08.04-.11.27-.42.53-.87,1.04-1.04.25-.09.52-.16.78-.16,1.25-.02,2.49-.02,3.74,0,.59,0,1.14.2,1.53.67.48.57.6,1.22.34,1.93-.18.48-.32.96-.49,1.45-.19.57-.39,1.14-.59,1.73h.41c.66,0,1.33-.02,1.99,0,.44.01.87.08,1.26.35.35.24.57.56.73.94.03.08.06.16.09.23,0,.03,0,.06,0,.08-.01.24,0,.49-.04.73-.06.42-.33.74-.55,1.08-.71,1.06-1.42,2.12-2.13,3.17-.03.04-.04.08-.06.12-.01.01-.02.03-.03.04-.02.03-.03.05-.05.08-.01.01-.02.03-.03.04-.47.69-.94,1.37-1.4,2.06-.61.9-1.21,1.8-1.81,2.7-.37.54-.73,1.09-1.09,1.64-.24.36-.85.31-1.05-.08-.01-.01-.02-.03-.03-.04Z" style="fill:#ffc107;"/></svg>