<?xml version="1.0" standalone="no"?><!-- Generator: Gravit.io --><svg xmlns="http://www.w3.org/2000/svg" xmlns:xlink="http://www.w3.org/1999/xlink" style="isolation:isolate" viewBox="0 0 24 24" width="24" height="24"><defs><clipPath id="_clipPath_ilmo2j9kcfsVlnyBvyj7X2ZVo9G9mI1W"><rect width="24" height="24"/></clipPath></defs><g clip-path="url(#_clipPath_ilmo2j9kcfsVlnyBvyj7X2ZVo9G9mI1W)"><g id="Group"><path d=" M 3.508 5.5 Q 8.539 6.12 12.133 6.116 Q 15.67 6.112 20.595 5.5 L 20.595 7.759 Q 15.67 8.371 12.133 8.375 Q 8.539 8.379 3.508 7.759 L 3.508 5.5 Z " fill="rgb(116,116,116)"/><path d=" M 7.41 7.318 L 6.26 18.5 L 8.765 18.49 L 9.135 7.975 L 7.41 7.318 Z " fill="rgb(116,116,116)"/><path d=" M 16.405 7.307 L 17.524 18.479 L 15.05 18.479 L 14.68 7.964 L 16.405 7.307 Z " fill="rgb(116,116,116)"/><rect x="3.405" y="10.162" width="17.087" height="1.314" transform="matrix(1,0,0,1,0,0)" fill="rgb(116,116,116)"/><rect x="11.291" y="7.307" width="1.314" height="3.122" transform="matrix(1,0,0,1,0,0)" fill="rgb(116,116,116)"/></g></g></svg>