<?xml version="1.0" encoding="UTF-8"?>
<svg clip-rule="evenodd" fill-rule="evenodd" stroke-linejoin="round" stroke-miterlimit="1.4142" version="1.1" viewBox="0 0 24 24" xml:space="preserve" 
    xmlns="http://www.w3.org/2000/svg">
    <path d=" M 19.063 19.938 L 4.063 19.938 C 2.952 19.938 2.063 19.038 2.063 17.938 L 2.063 5.938 C 2.063 4.828 2.953 3.938 4.063 3.938 L 10.063 3.938 L 12.063 5.938 L 19.063 5.938 C 20.16 5.938 21.063 6.841 21.063 7.938 L 4.063 7.938 L 4.063 17.938 L 6.203 9.938 L 23.273 9.938 L 20.993 18.438 C 20.763 19.308 19.982 19.938 19.063 19.938 Z " fill="#E0E0E0"/>
    <path d=" M 9.875 11.625 Q 13.703 12.097 16.438 12.094 Q 19.128 12.091 22.875 11.625 L 22.875 13.344 Q 19.128 13.81 16.438 13.813 Q 13.703 13.815 9.875 13.344 L 9.875 11.625 Z " fill="#424242"/>
    <path d=" M 12.844 13.008 L 11.969 21.516 L 13.875 21.508 L 14.156 13.508 L 12.844 13.008 Z " fill="#424242"/>
    <path d=" M 19.688 13 L 20.539 21.5 L 18.656 21.5 L 18.375 13.5 L 19.688 13 Z " fill="#424242"/>
    <rect x="9.797" y="15.172" width="13" height="1" transform="matrix(1,0,0,1,0,0)" fill="#424242"/>
    <rect x="15.797" y="13" width="1" height="2.375" transform="matrix(1,0,0,1,0,0)" fill="#424242"/>
</svg>