<svg xmlns="http://www.w3.org/2000/svg" version="1.1" viewBox="0 0 24 24"><path d="M 3 3 L 3 21 L 21 21 L 21 3 L 3 3 z M 9.994 7.711 L 11.408 8.502 L 12.822 7.711 L 12.031 9.125 L 12.822 10.539 L 11.408 9.746 L 9.994 10.539 L 10.785 9.125 L 9.994 7.711 z M 16.781 7.711 L 18.195 8.502 L 19.609 7.711 L 18.818 9.125 L 19.609 10.539 L 18.195 9.746 L 16.781 10.539 L 17.574 9.125 L 16.781 7.711 z M 14.9 10.537 C 15.046 10.537 15.188 10.592 15.293 10.701 C 15.293 10.701 15.295 10.701 15.295 10.701 L 16.617 12.025 C 16.838 12.234 16.838 12.603 16.617 12.824 L 10.016 19.424 C 9.795 19.644 9.428 19.644 9.219 19.424 L 7.895 18.102 C 7.674 17.892 7.674 17.524 7.895 17.303 L 14.496 10.701 C 14.606 10.591 14.755 10.537 14.9 10.537 z M 14.893 11.229 L 13.512 12.607 L 14.711 13.809 L 16.092 12.428 L 14.893 11.229 z M 16.781 14.498 L 18.195 15.289 L 19.609 14.498 L 18.818 15.912 L 19.609 17.326 L 18.195 16.535 L 16.781 17.326 L 17.572 15.912 L 16.781 14.498 z" fill="#ffca28" /></svg>