<?xml version="1.0" encoding="UTF-8"?>
<svg width="408px" height="408px" viewBox="0 0 408 408" version="1.1" xmlns="http://www.w3.org/2000/svg" xmlns:xlink="http://www.w3.org/1999/xlink">
    <g id="Page-1" stroke="none" stroke-width="1" fill="none" fill-rule="evenodd">
        <g id="Group-2" fill-rule="nonzero">
            <g id="Unknown" fill="#FFCA28">
                <path d="M0,0 L408,0 L408,408 L0,408 L0,0 M107.213333,340.906667 C116.28,360.173333 134.186667,376.04 164.786667,376.04 C198.786667,376.04 222.133333,357.906667 222.133333,318.24 L222.133333,187.226667 L183.6,187.226667 L183.6,317.333333 C183.6,336.826667 175.666667,341.813333 163.2,341.813333 C150.053333,341.813333 144.613333,332.746667 138.493333,322.093333 L107.213333,340.906667 M242.76,336.826667 C254.093333,359.04 276.986667,376.04 312.8,376.04 C349.066667,376.04 376.266667,357.226667 376.266667,322.546667 C376.266667,290.586667 357.906667,276.306667 325.266667,262.253333 L315.746667,258.173333 C299.2,251.146667 292.173333,246.386667 292.173333,235.053333 C292.173333,225.76 299.2,218.506667 310.533333,218.506667 C321.413333,218.506667 328.666667,223.266667 335.24,235.053333 L364.933333,215.333333 C352.466667,193.573333 334.786667,185.186667 310.533333,185.186667 C276.306667,185.186667 254.32,206.946667 254.32,235.733333 C254.32,267.013333 272.68,281.746667 300.333333,293.533333 L309.853333,297.613333 C327.533333,305.32 337.96,310.08 337.96,323.226667 C337.96,334.106667 327.76,342.04 311.893333,342.04 C293.08,342.04 282.2,332.293333 274.04,318.693333 L242.76,336.826667 Z" id="Shape"></path>
            </g>
            <g id="Wikipedia_interwiki_section_gear_icon.svg" transform="translate(276.000000, 277.000000)" fill="#000000">
                <g id="Group" transform="translate(66.000000, 65.500000) scale(-1, 1) rotate(-180.000000) translate(-66.000000, -65.500000) translate(0.000000, -0.000000)">
                    <path d="M53.812,130.374623 C53.757,130.023534 53.196,126.688191 52.569,122.946901 C51.942,119.161725 51.392,116.155528 51.326,116.133585 C51.26,116.122613 50.336,115.826382 49.28,115.486265 C47.047,114.773116 44.319,113.621106 41.855,112.370352 L40.128,111.481658 L34.133,115.705695 C30.833,118.031658 28.094,119.91876 28.039,119.896817 C27.94,119.863903 14.586,106.774874 12.133,104.317253 L10.791,102.967755 L15.169,96.9443886 L19.547,90.9210218 L18.535,88.8254606 C17.974,87.6734506 17.215,85.9948074 16.852,85.0841709 C16.236,83.5371859 15.191,80.4651591 15.026,79.6861809 C14.949,79.3570352 14.916,79.3350921 14.212,79.2253769 C13.145,79.0498325 0.198,77.1298157 0.088,77.1298157 C0.044,77.1298157 0,71.6989112 0,65.0721106 L0,53.0144054 L0.638,52.9046901 C0.979,52.8498325 4.323,52.2902848 8.074,51.6649079 C11.814,51.039531 14.894,50.4799832 14.905,50.4141541 C15.785,47.3640704 16.83,44.6979899 18.37,41.5930486 L19.558,39.2012563 L15.224,33.1010888 C12.837,29.7438023 10.89,26.9460637 10.89,26.891206 C10.89,26.8363484 14.696,22.9743719 19.338,18.311474 L27.786,9.83048576 L33.979,14.2520101 L40.183,18.6625628 L41.569,17.9603853 C44.308,16.5560302 47.674,15.1955611 50.369,14.3836683 L51.755,13.9667504 L52.932,7.01080402 C53.581,3.18174204 54.109,0.0438860972 54.109,0.0329145729 C54.12,0.0109715243 59.587,0 66.275,0 L78.419,0 L78.485,0.362060302 C78.518,0.548576214 79.057,3.75226131 79.673,7.46063652 L80.806,14.208124 L82.335,14.7128141 C85.063,15.6015075 86.867,16.3365997 90.002,17.85067 L92.169,18.9039363 L98.23,14.6030988 C101.563,12.2332496 104.357,10.2803183 104.423,10.2474037 C104.5,10.2254606 108.372,14.021608 113.047,18.6735343 L121.539,27.1545226 L117.139,33.3205193 L112.739,39.4865159 L113.74,41.4723618 C115.324,44.6321608 116.6,47.7809883 117.205,50.0520938 C117.37,50.6884422 117.436,50.7981575 117.689,50.8420436 C117.843,50.8749581 121,51.3467337 124.685,51.8953099 C128.381,52.4438861 131.527,52.9156616 131.703,52.9485762 L132,53.0144054 L132,65.061139 L132,77.1078727 L131.263,77.239531 C130.845,77.3053601 127.501,77.8649079 123.816,78.4793132 L117.128,79.6093802 L116.666,81.1344221 C115.731,84.2174204 114.609,86.9054439 113.036,89.8128978 L112.442,90.9210218 L115.852,95.6278057 C117.733,98.2170854 119.702,100.927052 120.23,101.662144 L121.198,102.989698 L116.237,108.025628 C113.509,110.790452 109.681,114.674372 107.723,116.660218 L104.159,120.247906 L98.01,116.001926 L91.861,111.744975 L89.683,112.809213 C87.208,114.027052 84.359,115.190034 82.093,115.925126 C80.652,116.38593 80.531,116.440787 80.476,116.715075 C80.399,117.066164 78.1,130.85737 78.1,130.945142 C78.1,130.978057 72.655,131 66.011,131 L53.922,131 L53.812,130.374623 Z M67.859,90.2956449 C78.397,89.4947236 87.395,82.1438023 90.365,71.9183417 C92.257,65.3793132 91.289,57.9735343 87.758,52.0598827 C85.272,47.9126466 81.774,44.6541039 77.44,42.4707705 C67.441,37.4128978 55.297,39.4974874 47.63,47.5835008 C45.078,50.2715243 43.23,53.3545226 42.031,56.8873534 C40.469,61.5173367 40.26,66.421608 41.426,71.0954774 C44.396,83.0215243 55.682,91.2172529 67.859,90.2956449 Z" id="Shape"></path>
                </g>
            </g>
        </g>
    </g>
</svg>
