<?xml version="1.0" encoding="UTF-8" standalone="no"?>
<svg xmlns="http://www.w3.org/2000/svg" version="1.0" viewBox="0 0 24 24">
    <path d="m13 9h5.5l-5.5-5.5v5.5m-7-7h8l6 6v12a2 2 0 0 1 -2 2h-12c-1.11 0-2-.9-2-2v-16c0-1.11.89-2 2-2m9 16v-2h-9v2h9m3-4v-2h-12v2h12z" fill="#757575" />
    <rect height="10.11" width="10.11" x="12.945" y="13.03" fill="#ffca28" />
    <path d="M18.876 19.254a1.177 1.178 0 001.067.657c.448 0 .734-.224.734-.534 0-.37-.294-.502-.787-.718l-.27-.115c-.78-.333-1.299-.75-1.299-1.63 0-.81.618-1.428 1.584-1.428a1.598 1.598 0 011.539.868l-.842.54a.735.735 0 00-.695-.463.47.47 0 00-.517.422q-.002.021-.002.043c0 .324.2.455.663.656l.27.116c.92.394 1.438.795 1.438 1.698 0 .974-.765 1.507-1.792 1.507A2.077 2.077 0 0118 19.766zm-3.819.095c.17.301.325.556.695.556.356 0 .58-.14.58-.68V15.55h1.081v3.69c0 1.12-.657 1.63-1.614 1.63a1.678 1.678 0 01-1.622-.988z" fill="#000000" />
</svg>