<svg xmlns="http://www.w3.org/2000/svg" version="1.0" viewBox="0 0 24 24">
   <path d="m13 9h5.5l-5.5-5.5v5.5m-7-7h8l6 6v12a2 2 0 0 1 -2 2h-12c-1.11 0-2-.9-2-2v-16c0-1.11.89-2 2-2m9 16v-2h-9v2h9m3-4v-2h-12v2h12z" fill="#757575" />
   <rect x="10.055" y="10.14" height="13" width="13" fill="#ffca28" />
   <path d="m 17.68141,18.143165 a 1.5134521,1.5147379 0 0 0 1.372008,0.844807 c 0.576063,0 0.943818,-0.288031 0.943818,-0.686647 0,-0.475766 -0.378042,-0.645499 -1.011969,-0.923244 l -0.347181,-0.147873 c -1.002967,-0.42819 -1.670326,-0.964392 -1.670326,-2.095945 0,-1.041543 0.794659,-1.836202 2.036795,-1.836202 a 2.0547973,2.0547973 0 0 1 1.978932,1.116123 l -1.082691,0.694362 a 0.94510389,0.94510389 0 0 0 -0.893669,-0.595351 0.60435215,0.60435215 0 0 0 -0.664788,0.542631 q -0.0026,0.027 -0.0026,0.05529 c 0,0.416617 0.257171,0.585064 0.852522,0.843521 l 0.347181,0.149159 c 1.182987,0.506627 1.84906,1.022255 1.84906,2.183383 0,1.252423 -0.983679,1.937784 -2.304253,1.937784 A 2.6707221,2.6707221 0 0 1 16.555,18.801523 Z m -4.910683,0.122156 c 0.218595,0.387043 0.417903,0.714936 0.89367,0.714936 0.457764,0 0.745796,-0.18002 0.745796,-0.874382 v -4.725519 h 1.39001 v 4.744807 c 0,1.440159 -0.844807,2.095945 -2.075371,2.095945 a 2.1576658,2.1576658 0 0 1 -2.085658,-1.270425 z" fill="#000000" />
</svg>