<?xml version="1.0" encoding="utf-8"?>
<!-- Generator: Adobe Illustrator 23.1.1, SVG Export Plug-In . SVG Version: 6.00 Build 0)  -->
<svg version="1.1"
	 id="svg8" xmlns:cc="http://creativecommons.org/ns#" xmlns:dc="http://purl.org/dc/elements/1.1/" xmlns:rdf="http://www.w3.org/1999/02/22-rdf-syntax-ns#" xmlns:svg="http://www.w3.org/2000/svg"
	 xmlns="http://www.w3.org/2000/svg" xmlns:xlink="http://www.w3.org/1999/xlink" x="0px" y="0px" viewBox="0 0 285.2 285.2"
	 style="enable-background:new 0 0 285.2 285.2;" xml:space="preserve">
<style type="text/css">
	.st0{fill:#FFFFFF;}
</style>
<g id="layer1" transform="translate(-104.22785,-45.507923)">
	<path id="path4544" class="st0" d="M180.2,323.6c-17.5-3.8-30.7-14.1-35.3-27.5c-3.2-9.4-2.7-24.6,1.4-45.2
		c2-9.9,3.6-21.7,3.6-26.2c0-15.1-6.9-23.2-20.7-24.4l-7.9-0.7V190v-9.7l7.5-1c10.9-1.5,15.2-4.2,18.5-11.8c2.5-5.6,2.8-8.4,2-18.1
		c-0.5-6.3-2.2-17.6-3.7-25.1c-4-19-3.8-34.4,0.5-43.6c6.4-13.6,22-23.7,40.2-25.8l7.8-0.9v10.2v10.2h-5.3
		c-7.2,0-17.2,5.1-19.8,10.1c-2.5,4.8-2.6,11.6-0.6,23.5c3.2,18.8,4.2,36.8,2.7,46.3c-1.7,10.8-8,23.5-14.9,30.2l-4.8,4.6l6.5,8
		c8.1,9.9,11.2,16.8,13.1,28.9c1.5,9.6,0.3,29.5-2.7,45.4c-4.3,22.2,0.7,31,18.9,33.6l6.8,1v9.9
		C194.1,327.2,194.8,326.8,180.2,323.6L180.2,323.6z"/>
	<path id="path4546" class="st0" d="M298.6,315.8v-9.8l8.3-1.7c9.2-1.9,16.4-7.5,18.1-14.1c0.5-2.1-0.5-12.8-2.2-23.9
		c-5.6-36.2-2.5-54.8,11.6-70l6-6.5l-4.5-5.1c-16.1-18.3-18.9-34.6-12.8-74.4c3.1-20,3.1-20.2,0.4-25c-3.2-5.6-13.3-11.2-20.1-11.2
		h-4.7v-10c0-11.4-0.2-11.2,13.1-8.4c16.1,3.4,27.6,11.6,33.5,23.7c3.4,7,3.9,9.7,3.8,20.3c-0.1,6.7-1.4,19-3.1,27.2
		c-6.1,30.6-5.5,38.8,3.1,46.7c4,3.7,6.6,4.7,13.6,5.5l8.7,1v9.8v9.8l-6.8,0c-8.7,0-15.9,3.7-19.6,10c-3.9,6.6-3.6,21.1,0.7,42.1
		c3.7,17.9,4.3,34.3,1.6,43.4c-2.8,9.7-15.5,21.4-27.3,25.4c-5.1,1.7-12,3.5-15.4,4l-6.1,0.9L298.6,315.8z"/>
	<path id="path4548" class="st0" d="M215.6,299.6c-4.1-5.3-3.5-14.3,1.5-23.2c3.8-6.6,19.5-28.1,30.8-42.3l4.6-5.7l-7.3-21.2
		c-8.2-23.7-8.1-24.2,2.7-25.8l5.9-0.9l6.6,13.6c3.7,7.5,7.2,13.6,7.8,13.6c0.6,0,7.2-7.1,14.6-15.8c12.8-15.1,13.6-15.8,17.9-15
		c2.6,0.5,4.9,0.2,5.5-0.7c1.3-2.1,5,1,5,4.2c0,1.3-1.8,4.6-4.1,7.3c-9.2,11.2-28.8,37.5-28.8,38.8c0,0.7,3.9,9.9,8.8,20.5l8.8,19.2
		l-2.7,4c-1.5,2.2-2.7,4.6-2.7,5.3c0,0.7-1.1,2-2.5,2.8c-3.4,2.1-5.9-0.5-16.2-16.8c-4.7-7.5-9-13.6-9.6-13.6
		c-1.3,0-15.4,20.8-26.2,38.8c-9.6,15.9-7.9,13.9-13.2,15.4C219.1,303.1,218.1,302.8,215.6,299.6L215.6,299.6z"/>
	<path id="path4550" class="st0" d="M216.6,200.1c-8.7-15.6-24.4-38.2-30.7-44.3c-3.2-3.1-5.8-6.4-5.8-7.3c0-2.4,6.5-4.9,12.9-4.9
		c6.9,0,14.2,6,20.7,17c2.4,4,4.7,7.3,5.2,7.3c0.5,0,3.3-6.7,6.2-14.9c6.3-17.6,22.8-51.7,29.3-60.5c5.6-7.5,13.9-11.6,23.9-11.6
		c13.1-0.1,13.1,0.5,0.8,13.3c-18.8,19.6-27.4,35.7-45.6,85.2c-5,13.8-9.7,26.2-10.3,27.7C222.2,209.3,221.2,208.2,216.6,200.1z"/>
</g>
</svg>
