<svg xmlns="http://www.w3.org/2000/svg" width="24" height="24" version="1.1" viewBox="0 0 24 24">
 <path d="M6 2C4.89 2 4 2.89 4 4v16c0 1.1.89 2 2 2h12c1.1 0 2-.9 2-2V8L14 2ZM13 3.5 18.5 9H13Zm-3.43 8.26h1.62v2H10.07V14c0 .83-.67 1.5-1.5 1.5c.83 0 1.5.67 1.5 1.5v.24h1.12v2H9.57c-.83 0-1.5-.67-1.5-1.5V17.25C8.07 16.83 7.74 16.5 7.32 16.5H6.57v-2h.75c.42 0 .75-.33.75-.75v-.49c0-.83.67-1.5 1.5-1.5zm2.87 0h1.62c.82 0 1.49.67 1.49 1.5v.49c0 .42.34.75.75.75h.75v2H16.3c-.41 0-.75.33-.75.75v.49c0 .83-.67 1.5-1.49 1.5h-1.62v-2h1.12V17c0-.83.67-1.5 1.49-1.5c-.82 0-1.49-.67-1.49-1.5v-.24h-1.12z" fill="#fbc02d"/>
</svg>