<svg xmlns="http://www.w3.org/2000/svg" viewBox="0 0 16 16" >
	<path
		fill="#f9a825" stroke="none"
		d="M 10,1 V 3 H 12 v 1 2 A 2,2 0 0 0 14,8 2,2 0 0 0 12,10 v 2 0 0 1 H 10 V 15 H 12 a 2,2 0 0 0 2,-2 v -1 -0 -0 -0 -1 a 2,2 0 0 1 2,-2 h 0 V 7 h 0 a 2,2 0 0 1 -2,-2 V 4 3 A 2,2 0 0 0 12,1 Z
		M 4,1 A 2,2 0 0 0 2,3 V 4 5 A 2,2 0 0 1 0,7 V 9 a 2,2 0 0 1 2,2 v 1 0 0 1 a 2,2 0 0 0 2,2 H 6 V 13 H 4 v -1 -0 -0 -0 -2 A 2,2 0 0 0 2,8 2,2 0 0 0 4,6 V 4 3 H 6 V 1 Z"
	/>
	<path
		fill="#f9a825" stroke="#f9a825" stroke-width="0.8"
		d="M 10.173192,6.0512015 7.2499961,8.9743975 5.7883985,7.5127991 5.301202,7.9999987 7.2499961,9.9487968 10.660397,6.5384005 Z"
	/>
</svg>
