<?xml version="1.0" encoding="UTF-8"?>
<svg version="1.1" viewBox="0 0 24 24" xmlns="http://www.w3.org/2000/svg">
 <path d="m5.7586 3.9754h1.7833v1.7833h-1.7833v4.4581a1.7833 1.7833 0 0 1-1.7833 1.7833 1.7833 1.7833 0 0 1 1.7833 1.7833v4.4581h1.7833v1.7833h-1.7833c-0.95404-0.24074-1.7833-0.80246-1.7833-1.7833v-3.5665a1.7833 1.7833 0 0 0-1.7833-1.7833h-0.89163v-1.7832h0.89163a1.7833 1.7833 0 0 0 1.7833-1.7833v-3.5665a1.7833 1.7833 0 0 1 1.7833-1.7833m12.483 0a1.7833 1.7833 0 0 1 1.7833 1.7833v3.5665a1.7833 1.7833 0 0 0 1.7833 1.7833h0.89162v1.7832h-0.89162a1.7833 1.7833 0 0 0-1.7833 1.7833v3.5665a1.7833 1.7833 0 0 1-1.7833 1.7833h-1.7833v-1.7833h1.7833v-4.4581a1.7833 1.7833 0 0 1 1.7833-1.7833 1.7833 1.7833 0 0 1-1.7833-1.7833v-4.4581h-1.7833v-1.7833h1.7833m-6.2414 10.7a0.89163 0.89163 0 0 1 0.89162 0.89162 0.89163 0.89163 0 0 1-0.89162 0.89163 0.89163 0.89163 0 0 1-0.89162-0.89163 0.89163 0.89163 0 0 1 0.89162-0.89162m-3.5665 0a0.89163 0.89163 0 0 1 0.89163 0.89162 0.89163 0.89163 0 0 1-0.89163 0.89163 0.89163 0.89163 0 0 1-0.89163-0.89163 0.89163 0.89163 0 0 1 0.89163-0.89162m7.133 0a0.89163 0.89163 0 0 1 0.89163 0.89162 0.89163 0.89163 0 0 1-0.89163 0.89163 0.89163 0.89163 0 0 1-0.89162-0.89163 0.89163 0.89163 0 0 1 0.89162-0.89162z" fill="#f9a825" stroke-width=".89162"/>
</svg>
