<?xml version="1.0" encoding="UTF-8" standalone="no"?>
<svg
   viewBox="0 -960 960 960"
   version="1.1"
   id="svg1"
   sodipodi:docname="try.svg"
   inkscape:version="1.4.3 (0d15f75042, 2025-12-25)"
   xmlns:inkscape="http://www.inkscape.org/namespaces/inkscape"
   xmlns:sodipodi="http://sodipodi.sourceforge.net/DTD/sodipodi-0.dtd"
   xmlns="http://www.w3.org/2000/svg"
   xmlns:svg="http://www.w3.org/2000/svg">
  <defs
     id="defs1" />
  <sodipodi:namedview
     id="namedview1"
     pagecolor="#505050"
     bordercolor="#ffffff"
     borderopacity="1"
     inkscape:showpageshadow="0"
     inkscape:pageopacity="0"
     inkscape:pagecheckerboard="1"
     inkscape:deskcolor="#505050"
     inkscape:zoom="1.1372634"
     inkscape:cx="391.72983"
     inkscape:cy="410.63486"
     inkscape:window-width="1920"
     inkscape:window-height="1000"
     inkscape:window-x="0"
     inkscape:window-y="0"
     inkscape:window-maximized="1"
     inkscape:current-layer="svg1" />
  <path
     id="brace"
     fill="#f9a825"
     d="M560-160v-80h120q17 0 28.5-11.5T720-280v-80q0-38 22-69t58-44v-14q-36-13-58-44t-22-69v-80q0-17-11.5-28.5T680-720H560v-80h120q50 0 85 35t35 85v80q0 17 11.5 28.5T840-560h40v160h-40q-17 0-28.5 11.5T800-360v80q0 50-35 85t-85 35zm-280 0q-50 0-85-35t-35-85v-80q0-17-11.5-28.5T120-400H80v-160h40q17 0 28.5-11.5T160-600v-80q0-50 35-85t85-35h120v80H280q-17 0-28.5 11.5T240-680v80q0 38-22 69t-58 44v14q36 13 58 44t22 69v80q0 17 11.5 28.5T280-240h120v80z" />
  <path
     fill="#f9a825"
     stroke="#f9a825"
     stroke-width="36.1916"
     d="m 601.78895,-569.40867 -135.71857,135.71858 -67.8593,-67.85929 -22.61976,22.61977 90.47906,90.47905 158.33833,-158.33835 z"
     id="check" />
</svg>
