<svg width="16" height="16" fill="none" version="1.1" viewBox="0 0 16 16" xmlns="http://www.w3.org/2000/svg">
 <path d="m7.5274 1.0144a7.008 7.008 0 0 0-5.3452 3.0958 6.9195 6.9195 0 0 0-1.1282 3.0213 6.9927 6.9927 0 0 0 3.0557 6.6854 6.9705 6.9705 0 0 0 4.7579 1.1282 7.0093 7.0093 0 0 0 5.5552-4.1629 7.0042 7.0042 0 0 0 0-5.5648 7.0354 7.0354 0 0 0-3.6411-3.6411 7.0538 7.0538 0 0 0-3.2542-0.56189zm0.86797 1.4139c0.76361 0.17118 1.2829 0.70125 1.4521 1.4833 0.02609 0.12472 0.029908 0.18199 0.029908 0.4378 0 0.25008-0.00382 0.31435-0.029908 0.43207-0.16799 0.77633-0.67961 1.3026-1.4254 1.4712-0.12345 0.027362-0.17945 0.031181-0.42317 0.031181-0.24308 0-0.29908-0.00382-0.42253-0.031817-0.74643-0.16799-1.2574-0.69361-1.4254-1.4706-0.02609-0.11772-0.030544-0.18199-0.030544-0.43271 0-0.25517 0.00445-0.31244 0.029908-0.43716 0.12345-0.56698 0.42826-1.001 0.89469-1.2727 0.17627-0.10372 0.40471-0.18454 0.63252-0.22399 0.14954-0.02609 0.57589-0.017818 0.71779 0.013363zm0 7.3281c0.5727 0.126 1.0341 0.48044 1.2797 0.98442 0.086542 0.17627 0.12854 0.30226 0.17118 0.49953 0.027363 0.12409 0.031817 0.18263 0.031817 0.43716 0 0.25135-0.00445 0.31308-0.030544 0.43207-0.13363 0.61661-0.47153 1.064-0.99396 1.3191-0.27872 0.13554-0.5218 0.19026-0.8546 0.19026-0.33217 0-0.57525-0.05472-0.8546-0.19026-0.5218-0.25517-0.85969-0.70252-0.99396-1.3191-0.025454-0.119-0.029908-0.18072-0.029908-0.43207 0-0.25454 0.00445-0.31308 0.031817-0.4378a1.9345 1.9345 0 0 1 0.17054-0.49889c0.2609-0.53452 0.75597-0.89724 1.3681-0.99905a3.0239 3.0239 0 0 1 0.70443 0.014636z" fill="#ef5350" stroke-width=".63634"/>
</svg>
