<svg xmlns="http://www.w3.org/2000/svg" width="24" height="24" fill="none" viewBox="0 0 24 24">
  <path fill="#EF5350" d="M11.258 1.023a11.013 11.013 0 0 0-8.4 4.865 10.874 10.874 0 0 0-1.773 4.748 10.989 10.989 0 0 0 4.802 10.506 10.954 10.954 0 0 0 7.477 1.773 11.015 11.015 0 0 0 8.73-6.542 11.007 11.007 0 0 0 0-8.745 11.056 11.056 0 0 0-5.722-5.722 11.085 11.085 0 0 0-5.114-.883Zm1.364 2.222c1.2.269 2.016 1.102 2.282 2.331.041.196.047.286.047.688 0 .393-.006.494-.047.679-.264 1.22-1.068 2.047-2.24 2.312-.194.043-.282.049-.665.049-.382 0-.47-.006-.664-.05-1.173-.264-1.976-1.09-2.24-2.311-.041-.185-.048-.286-.048-.68 0-.401.007-.491.047-.687.194-.891.673-1.573 1.406-2 .277-.163.636-.29.994-.352.235-.041.905-.028 1.128.021Zm0 11.516c.9.198 1.625.755 2.011 1.547.136.277.202.475.269.785.043.195.05.287.05.687 0 .395-.007.492-.048.679-.21.969-.741 1.672-1.562 2.073-.438.213-.82.299-1.343.299-.522 0-.904-.086-1.343-.299-.82-.401-1.351-1.104-1.562-2.073-.04-.187-.047-.284-.047-.679 0-.4.007-.492.05-.688a3.04 3.04 0 0 1 .268-.784c.41-.84 1.188-1.41 2.15-1.57a4.752 4.752 0 0 1 1.107.023Z"/>
</svg>
