<svg width="24" height="24" xmlns="http://www.w3.org/2000/svg"><path fill="#ffcc80" d="M17.741 3.779L10.75 6.952a.549.549 0 00-.316.425L9.85 11.68c-.057.42.365.74.756.575L17.5 9.31a.549.549 0 00.327-.42l.68-4.529a.547.547 0 00-.766-.582z"/><path fill="#9ccc65" d="M2.022 3.341l2.115 7.382a.54.54 0 00.372.373l4.173 1.209a.545.545 0 00.678-.663L7.455 4.39a.543.543 0 00-.368-.383L2.705 2.668a.546.546 0 00-.683.673z"/><path fill="#e91e63" d="M4.121 12.37l2.115 7.382a.54.54 0 00.372.372l4.173 1.21a.545.545 0 00.678-.663l-1.905-7.253a.543.543 0 00-.367-.383l-4.383-1.338a.546.546 0 00-.683.673z"/><path fill="#26c6da" d="M21.758 15.326l-6.37-4.287a.551.551 0 00-.525-.046l-3.97 1.762a.545.545 0 00-.094.945l6.127 4.323a.55.55 0 00.528.057l4.214-1.797a.548.548 0 00.09-.958z"/></svg>