<svg xmlns="http://www.w3.org/2000/svg" viewBox="0 0 4.233 4.233"><path fill="#42a5f5" d="M.985.265a.373.373 0 0 0-.378.37v2.963a.377.37 0 0 0 .378.37h2.264a.377.37 0 0 0 .377-.37V1.376L2.494.265zm1.32.277 1.038 1.019H2.305zm-.203 1.385c.092 0 .174.032.238.093a.31.31 0 0 1 .097.229c0 .073-.023.14-.07.196a.34.34 0 0 1-.146.105v.117h.77a.04.04 0 0 1 .04.039v.277a.341.341 0 0 1 .147.105c.046.056.069.123.069.196a.308.308 0 0 1-.097.228.335.335 0 0 1-.238.094.335.335 0 0 1-.237-.094.309.309 0 0 1-.097-.228c0-.073.023-.14.07-.196a.34.34 0 0 1 .145-.105v-.087H1.41V3h.156a.04.04 0 0 1 .04.039v.527a.04.04 0 0 1-.04.04h-.549a.04.04 0 0 1-.04-.04V3.04a.04.04 0 0 1 .04-.04h.156v-.293a.04.04 0 0 1 .04-.039h.77V2.55a.34.34 0 0 1-.146-.105.305.305 0 0 1-.07-.196.31.31 0 0 1 .098-.229.335.335 0 0 1 .237-.093zm0 .228a.09.09 0 0 0-.068.028.083.083 0 0 0-.028.066c0 .027.008.046.028.066.02.02.04.027.068.027a.09.09 0 0 0 .07-.027.083.083 0 0 0 .027-.066.083.083 0 0 0-.028-.066.09.09 0 0 0-.069-.028zm.81 1.036a.09.09 0 0 0-.068.027.083.083 0 0 0-.028.066c0 .028.008.047.028.066.02.02.04.027.068.027a.09.09 0 0 0 .07-.027.082.082 0 0 0 .028-.066.083.083 0 0 0-.029-.066.09.09 0 0 0-.069-.027zm-1.698.037v.149h.155v-.149z"/></svg>
