<svg xmlns="http://www.w3.org/2000/svg" viewBox="0 0 24 24"><path fill="#42a5f5" d="M5.487 1.323c-1.193 0-2.15.94-2.15 2.11V20.3a2.149 2.109 0 0 0 2.15 2.11h12.892a2.149 2.109 0 0 0 2.148-2.11V7.648l-6.445-6.325Zm7.52 1.581 5.908 5.8h-5.908zm-1.157 7.884c.522 0 .988.182 1.352.531.363.35.553.798.553 1.3 0 .416-.133.798-.394 1.118a1.938 1.938 0 0 1-.834.595v.67h4.381c.126 0 .23.099.23.22V16.8c.33.123.613.325.835.597.26.32.393.702.393 1.118 0 .502-.19.949-.553 1.298-.363.35-.829.533-1.351.533s-.988-.184-1.352-.533a1.756 1.756 0 0 1-.553-1.298c0-.416.135-.798.396-1.118.222-.272.503-.474.832-.597v-.497H7.91v.592h.888c.127 0 .229.1.229.222v3.004a.226.226 0 0 1-.229.222H5.671c-.126 0-.23-.1-.23-.222v-3.004c0-.121.104-.222.23-.222h.886v-1.672c0-.121.105-.22.23-.22h4.388v-.67a1.937 1.937 0 0 1-.834-.595 1.739 1.739 0 0 1-.396-1.118c0-.502.19-.95.554-1.3.363-.35.829-.53 1.351-.53zm0 1.3a.508.508 0 0 0-.39.154.474.474 0 0 0-.16.377c0 .156.045.265.16.376.116.11.227.154.39.154a.512.512 0 0 0 .392-.154.474.474 0 0 0 .161-.376.474.474 0 0 0-.161-.377.513.513 0 0 0-.392-.154zm4.612 5.894a.51.51 0 0 0-.39.156.474.474 0 0 0-.161.376.47.47 0 0 0 .161.375.51.51 0 0 0 .39.156.514.514 0 0 0 .392-.156.47.47 0 0 0 .161-.375.474.474 0 0 0-.161-.376.514.514 0 0 0-.392-.156zm-9.668.214v.845h.88v-.845z"/></svg>
