<svg id="uuid-5969c64c-9386-4311-b101-0daf51e827a9" xmlns="http://www.w3.org/2000/svg" viewBox="0 0 24 24"><path d="m13,9h5.5l-5.5-5.5v5.5M6,2h8l6,6v12c0,1.1-.9,2-2,2H6c-1.1,0-2-.9-2-2V4c0-1.11.89-2,2-2m9,16v-2H6v2h9m3-4v-2H6v2h12Z" style="fill:#757575;"/><path d="m23.81,15.78c0,.84,0,1.67,0,2.51,0,.24,0,.47,0,.71,0,.47-.07.93-.25,1.37-.14.34-.33.65-.56.94-.26.32-.56.61-.9.86-.34.25-.7.45-1.08.62-.31.14-.63.24-.96.33-.07.02-.1.02-.1-.07,0-.65,0-1.29,0-1.94,0-.08,0-.16,0-.25,0-.08.03-.12.1-.15.18-.08.37-.14.54-.24.41-.23.77-.52.99-.94.15-.27.23-.55.27-.86.09-.72.05-1.44.06-2.16,0-.08-.01-.1-.09-.06-.24.13-.49.25-.73.37-.34.17-.67.35-1.01.52-.1.05-.14.03-.14-.09,0-.45-.02-.91,0-1.36.02-.43.21-.79.55-1.06.19-.16.4-.3.61-.42.29-.17.59-.31.88-.46.46-.24.92-.47,1.37-.71.11-.05.21-.12.32-.18.09-.05.12-.03.12.07,0,.88,0,1.77,0,2.65,0,0,0,0,0,0Z" style="fill:#34a5dd;"/><path d="m19.27,17.42c-.26-.13-.5-.26-.73-.38-.39-.2-.77-.39-1.15-.6-.09-.05-.07.03-.07.06,0,.53,0,1.06,0,1.58,0,.25.02.51.06.75.06.32.19.62.38.89.29.41.69.68,1.15.87.1.04.2.09.31.12.04.01.04.03.05.06,0,.02,0,.05,0,.07,0,.72,0,1.45,0,2.17,0,.1-.03.13-.12.1-.31-.11-.63-.19-.94-.32-.29-.13-.57-.28-.84-.45-.28-.18-.53-.4-.77-.63-.31-.3-.57-.64-.78-1.01-.18-.33-.3-.68-.36-1.05-.03-.19-.04-.38-.04-.58,0-1.98,0-3.96,0-5.94,0-.13,0-.13.12-.07.46.24.93.47,1.39.72.49.26.99.49,1.46.8.22.14.41.31.58.5.13.15.21.34.25.54.08.38.06.77.06,1.16,0,.21-.04.41-.02.64Z" style="fill:#2b74ba;"/></svg>