<svg id="uuid-341d5769-d83a-4aa6-8b17-60973e88c019" xmlns="http://www.w3.org/2000/svg" viewBox="0 0 24 24"><path d="m19.3,8.63c0,1.48,0,2.95,0,4.43,0,.38.01.75,0,1.13-.01.84-.12,1.67-.44,2.45-.24.6-.58,1.15-1,1.66-.33.4-.68.78-1.07,1.12-.42.37-.89.68-1.38.95-.47.27-.93.52-1.44.7-.4.14-.79.28-1.2.37-.12.03-.18.04-.17-.12,0-1.12,0-2.25,0-3.37,0-.14,0-.29-.01-.43-.01-.14.05-.22.18-.27.35-.13.69-.27,1.01-.45.99-.56,1.71-1.33,2.01-2.46.13-.49.17-.98.21-1.48.06-.97.02-1.94.04-2.9,0-.15-.01-.19-.17-.11-.56.26-1.1.54-1.64.82-.46.24-.92.48-1.38.71-.19.1-.24.06-.24-.15,0-.75,0-1.5,0-2.25.01-.72.27-1.34.8-1.84.47-.44,1.01-.76,1.56-1.08.47-.27.97-.5,1.45-.75.57-.3,1.15-.61,1.73-.89.33-.16.65-.35.97-.52.17-.09.2-.07.2.12,0,1.54,0,3.07,0,4.61,0,0,0,0,0,0Z" style="fill:#34a5dd;"/><path d="m11.37,11.51c-.44-.22-.85-.44-1.26-.65-.67-.34-1.35-.68-2-1.04-.09-.05-.13-.05-.13.07,0,1.06-.02,2.13,0,3.19.02.71.17,1.41.52,2.05.34.63.82,1.12,1.42,1.51.39.25.82.42,1.25.59.15.06.22.13.22.3,0,1.24,0,2.49,0,3.73,0,.2-.05.24-.23.18-.55-.18-1.11-.33-1.64-.57-.7-.31-1.36-.69-1.97-1.17-.53-.41-1.01-.88-1.43-1.41-.47-.57-.85-1.19-1.1-1.88-.15-.41-.24-.84-.3-1.27-.03-.24-.03-.48-.03-.73,0-3.46,0-6.91,0-10.37,0-.24,0-.24.21-.13.81.42,1.62.82,2.42,1.25.85.45,1.73.85,2.53,1.39.46.31.88.65,1.18,1.12.17.26.25.56.3.87.09.66.1,1.32.07,1.98-.02.31-.03.63-.03.97Z" style="fill:#2b74ba;"/></svg>