<svg xmlns="http://www.w3.org/2000/svg" viewBox="0 0 502.21 502.15"><defs><style>.a{fill:#3aaae1;}.b{fill:#fdfeff;}</style></defs><title>kl</title><path class="a" d="M257,503.11H247c-5.45-3.92-11.55-7.17-16.25-11.84Q121.58,382.52,12.83,273.34C8.16,268.66,4.91,262.55,1,257.11q0-5,0-10c2.74-4.27,4.82-9.21,8.32-12.72q112.36-112.75,225-225.2c11.13-11.12,24.4-10.92,35.6.28Q382.35,121.85,494.72,234.24c11.38,11.38,11.31,24.44-.14,35.89Q383.26,381.45,271.84,492.67C267.62,496.88,262,499.66,257,503.11Zm-3.84-282.5c-4.78-7.78-9.53-15.17-13.91-22.79-2.14-3.72-4-4.32-7.82-1.94Q190.69,221.14,149.67,246c-2.92,1.77-4.05,3.73-4,7.16.22,30.49.26,61,.38,91.48,0,1.42.23,2.84.35,4.14h31.93c0-2.28,0-4.24,0-6.19-.09-23.83-.12-47.66-.36-71.49,0-3.26,1-5.13,3.76-6.75,8.33-4.88,16.51-10,24.74-15.06ZM283,267c9.71,0,18.68-.18,27.64.08,3.9.11,4.73-1.39,4.71-5q-.17-46.25,0-92.5c0-3.29-1.17-5.09-3.93-6.72-17.2-10.16-34.3-20.49-51.43-30.77l-33.8-20.29L209.6,139.43c1.75,1.13,3,2,4.25,2.73,21.68,13,43.32,26.16,65.1,39,3.19,1.89,4.16,3.94,4.13,7.5-.16,21.83-.08,43.67-.08,65.5C283,258.18,283,262.16,283,267Zm90.48,3.72c-1.8.92-3.28,1.6-4.68,2.41-21.87,12.67-43.77,25.3-65.56,38.12-3,1.75-5.2,1.7-8.14,0-10.67-6.12-21.5-12-32.27-17.92-11.63-6.4-23.26-12.78-35.28-19.38L212.14,302c1.5,1,2.28,1.6,3.14,2.07q40.4,22.31,80.78,44.65c2.7,1.5,4.73,1.26,7.31-.24q37.7-22,75.52-43.84c3.42-2,6.81-4,10.68-6.3Z" transform="translate(-1 -0.96)"/><path class="b" d="M253.16,220.61l-46.74,28.66c-8.23,5-16.41,10.18-24.74,15.06-2.78,1.63-3.8,3.49-3.76,6.75.24,23.83.27,47.66.36,71.49,0,2,0,3.91,0,6.19H146.36c-.11-1.3-.34-2.72-.35-4.14-.12-30.49-.15-61-.38-91.48,0-3.44,1.11-5.39,4-7.16q41-24.88,81.77-50.09c3.84-2.38,5.68-1.77,7.82,1.94C243.63,205.43,248.39,212.83,253.16,220.61Z" transform="translate(-1 -0.96)"/><path class="b" d="M283,267c0-4.8,0-8.78,0-12.76,0-21.83-.08-43.67.08-65.5,0-3.57-.94-5.62-4.13-7.5-21.78-12.87-43.42-26-65.1-39-1.27-.76-2.49-1.6-4.25-2.73l16.59-27.61L260,132.1c17.13,10.28,34.23,20.61,51.43,30.77,2.76,1.63,3.94,3.43,3.93,6.72q-.17,46.25,0,92.5c0,3.57-.82,5.07-4.71,5C301.68,266.79,292.71,267,283,267Z" transform="translate(-1 -0.96)"/><path class="b" d="M373.48,270.68l16.08,27.69c-3.86,2.28-7.26,4.32-10.68,6.3q-37.77,21.9-75.52,43.84c-2.58,1.51-4.61,1.75-7.31.24q-40.33-22.42-80.78-44.65c-.86-.48-1.65-1.08-3.14-2.07l15.42-28.11c12,6.6,23.65,13,35.28,19.38,10.78,5.94,21.6,11.8,32.27,17.92,2.94,1.68,5.16,1.74,8.14,0,21.79-12.82,43.69-25.45,65.56-38.12C370.2,272.28,371.68,271.6,373.48,270.68Z" transform="translate(-1 -0.96)"/></svg>