<svg xmlns="http://www.w3.org/2000/svg" viewBox="0 0 24 24"><path fill="#29b6f6" d="M12 1.703c-.25-.002-.5.11-.729.338a5356 5356 0 0 0-9.226 9.235c-.144.144-.229.347-.341.522v.41c.16.223.294.474.485.666a3260 3260 0 0 0 8.936 8.937c.193.192.443.325.666.486h.41c.205-.142.436-.256.609-.429q4.569-4.56 9.133-9.126c.47-.47.472-1.005.006-1.472L12.73 2.052c-.23-.23-.48-.346-.731-.349zM10.938 6.25l1.386.832q1.052.635 2.109 1.262l.04.026.016.013.017.013c.061.056.089.122.088.224a510 510 0 0 0 0 3.793.5.5 0 0 1-.007.094c-.015.07-.054.104-.142.11l-.044.001-.136-.003c-.323-.005-.648 0-.998 0v-2.543l.004-.668c0-.146-.039-.23-.17-.307-.893-.528-1.78-1.067-2.67-1.6-.051-.03-.101-.065-.173-.112l.001-.002-.001-.001zm.362 3.39c.068-.003.119.042.173.138q.128.22.264.439l.015.025q.145.231.292.47l-1.915 1.176c-.337.208-.673.418-1.014.618-.113.066-.154.143-.154.277.01.977.01 1.954.014 2.932v.253H7.664c-.004-.054-.014-.112-.014-.17-.005-1.25-.006-2.502-.015-3.752 0-.14.045-.22.164-.293a467 467 0 0 0 3.353-2.055l.016-.009.032-.018.016-.007.033-.013.012-.004.028-.005.01-.002zm5.677 3.125.314.54.346.595v.001c-.158.094-.298.177-.438.258l-3.097 1.798c-.106.062-.189.072-.3.01l-.893-.495-1.524-.843-.895-.493c-.035-.02-.068-.044-.129-.085h.001v-.001l.137-.25.495-.902 1.446.795c.442.244.886.484 1.323.735.121.069.212.071.334 0 .894-.526 1.792-1.044 2.689-1.563.057-.034.118-.062.191-.1"/></svg>