<svg viewBox="0 0 24 24" fill="none" xmlns="http://www.w3.org/2000/svg">
  <path
    d="M12 22.5C17.799 22.5 22.5 17.799 22.5 12C22.5 6.201 17.799 1.5 12 1.5C6.201 1.5 1.5 6.201 1.5 12C1.5 17.799 6.201 22.5 12 22.5Z"
    fill="#ffffff" />
  <path
    d="M7.13003 19.726C7.26403 13.643 7.24903 10.276 6.97803 4.39399L9.23503 3.32599C9.14103 7.21699 8.99203 9.48799 9.11103 13.655C11.276 12.151 12.609 11.092 14.009 9.11799H16.76C15.318 10.989 13.922 12.01 11.34 13.655C13.5 15.416 14.795 16.731 17.022 19.54L14.792 20.527C12.989 17.951 10.542 14.869 9.11103 14.429L9.23503 20.674L7.13003 19.726V19.726Z"
    fill="#000000" />
  <path
    d="M12 21.36C14.4824 21.36 16.8632 20.3739 18.6185 18.6185C20.3739 16.8632 21.36 14.4824 21.36 12C21.36 9.51759 20.3739 7.13684 18.6185 5.3815C16.8632 3.62615 14.4824 2.64001 12 2.64001C9.51759 2.64001 7.13684 3.62615 5.3815 5.3815C3.62615 7.13684 2.64001 9.51759 2.64001 12C2.64001 14.4824 3.62615 16.8632 5.3815 18.6185C7.13684 20.3739 9.51759 21.36 12 21.36V21.36Z"
    stroke="#000000" />
</svg>