<svg xmlns="http://www.w3.org/2000/svg" viewBox="0 0 24 24"><path fill="#448aff" d="M12.074 1.424a.638.638 0 0 0-.686.691v.173c.015.2.044.402.087.588.058.358.085.73.07 1.102a.647.647 0 0 1-.201.33l-.014.258a7.24 7.24 0 0 0-1.117.17 7.875 7.875 0 0 0-4.012 2.292l-.213-.157a.562.562 0 0 1-.374-.042 5.904 5.904 0 0 1-.829-.747c-.129-.143-.26-.299-.403-.428l-.128-.1a.808.808 0 0 0-.431-.171c-.2 0-.372.07-.501.212-.2.301-.127.675.16.904l.013.014c.03.029.087.072.115.1.172.115.343.214.515.3.33.186.631.403.918.647a.63.63 0 0 1 .114.358l.2.17a7.817 7.817 0 0 0-1.232 5.546l-.271.07a.836.836 0 0 1-.275.274c-.358.086-.73.17-1.102.17-.186 0-.387 0-.588.057l-.156.03h-.014v.015c-.043 0-.086.014-.115.014a.621.621 0 0 0-.4.789.625.625 0 0 0 .772.386 1.21 1.21 0 0 0 .188-.045c.186-.057.37-.127.528-.213a7.427 7.427 0 0 1 1.103-.316c.114 0 .244.057.33.129l.285-.042a8.04 8.04 0 0 0 3.54 4.426l-.1.258a.789.789 0 0 1 .044.358c-.143.344-.33.687-.56.987-.114.172-.215.33-.344.501 0 .043.001.117-.056.16-.014.043-.044.072-.059.114a.615.615 0 0 0 .372.787.618.618 0 0 0 .79-.372c.028-.043.055-.143.083-.143.072-.2.131-.387.174-.574a5.44 5.44 0 0 1 .473-1.102.481.481 0 0 1 .271-.129l.143-.257c1.82.702 3.84.701 5.688.014l.115.23a.531.531 0 0 1 .3.198c.186.33.301.674.43 1.032.043.187.102.373.174.588.028 0 .055.086.084.129.014.043.03.071.044.114a.61.61 0 0 0 .845.216.614.614 0 0 0 .213-.845c-.014-.057-.056-.13-.056-.174-.115-.157-.23-.329-.344-.486-.215-.316-.371-.63-.543-.974a.48.48 0 0 1 .042-.372 1.241 1.241 0 0 1-.1-.244c1.661-1.002 2.951-2.577 3.539-4.454.086.014.17.028.271.042.086-.115.201-.115.33-.115.387.057.73.16 1.103.302.157.086.328.156.514.213.058.014.116.03.202.03v.015c0 .014.058.013.1.028.344.043.617-.202.689-.532a.617.617 0 0 0-.532-.7c-.057-.014-.127-.03-.17-.072h-.588a7.11 7.11 0 0 1-1.102-.202.597.597 0 0 1-.274-.257l-.272-.07a7.798 7.798 0 0 0-1.262-5.531l.23-.2a.44.44 0 0 1 .114-.343c.273-.244.589-.46.918-.647a3.56 3.56 0 0 0 .5-.3.902.902 0 0 0 .13-.1c.043-.028.086-.058.086-.087.258-.243.273-.63 0-.859-.214-.257-.601-.257-.845 0-.043 0-.1.059-.142.087a11.04 11.04 0 0 0-.403.428c-.244.272-.53.532-.831.747a.553.553 0 0 1-.372.042l-.23.171a7.98 7.98 0 0 0-5.098-2.462l-.014-.274a.485.485 0 0 1-.201-.314 5.628 5.628 0 0 1 .07-1.102 3.87 3.87 0 0 0 .087-.588v-.316a.62.62 0 0 0-.546-.548zm-.842 4.773-.174 3.223h-.014a.558.558 0 0 1-.114.302.543.543 0 0 1-.745.13h-.014L7.536 7.973a6.229 6.229 0 0 1 3.035-1.662c.23-.043.446-.086.66-.115zm1.544 0a6.377 6.377 0 0 1 3.682 1.777L13.837 9.85h-.014a.66.66 0 0 1-.3.073.535.535 0 0 1-.56-.518zm-6.2 2.938 2.406 2.19v.015c.086.071.157.16.157.274a.523.523 0 0 1-.372.657v.014l-3.095.89a6.394 6.394 0 0 1 .904-4.04zm10.842.042c.73 1.189 1.032 2.595.932 3.984l-3.109-.89-.014-.014a.512.512 0 0 1-.257-.17.532.532 0 0 1 .056-.761l-.014-.042zm-5.915 2.322h.988l.615.758-.215.96-.887.431-.887-.43-.23-.96zm-2.308 2.65h.115c.243 0 .46.17.545.414 0 .1.001.23-.056.302v.042l-1.22 2.966a6.327 6.327 0 0 1-2.563-3.195zm5.274 0h.344l3.193.515a6.335 6.335 0 0 1-2.563 3.223l-1.234-3.022c-.115-.258.002-.558.26-.716zm-2.521 1.298a.548.548 0 0 1 .529.277h.014l1.561 2.823a4.93 4.93 0 0 1-.615.171 6.388 6.388 0 0 1-3.481-.17l1.561-2.824h.014c.043-.1.115-.144.216-.215a.511.511 0 0 1 .201-.062z"/></svg>