<svg version="1.1" viewBox="0 0 24 24" xmlns="http://www.w3.org/2000/svg">
 <path d="m12.074 1.4237c-0.04078-0.00362-0.08293-0.00258-0.12591 0.00279-0.34382 0.042977-0.58824 0.34449-0.5596 0.6883v0.17347c0.01433 0.20056 0.04377 0.40134 0.08675 0.58757 0.05731 0.35814 0.08428 0.72994 0.06995 1.1024-0.04297 0.14326-0.10118 0.24421-0.20146 0.33016l-0.01403 0.25742c-0.37248 0.028651-0.75826 0.084723-1.1164 0.17068-1.5328 0.34382-2.9378 1.1455-4.0122 2.2915l-0.21265-0.15669c-0.12893 0.028651-0.26032 0.015333-0.37493-0.04197-0.30084-0.21488-0.57034-0.47487-0.8282-0.74706-0.12893-0.14326-0.25965-0.29916-0.40291-0.42809l-0.12871-0.10073c-0.12893-0.10028-0.27331-0.15635-0.43089-0.17068-0.20056 0-0.37191 0.06939-0.50084 0.21265-0.20056 0.30084-0.12703 0.67454 0.15948 0.90374l0.013997 0.013996c0.028651 0.028651 0.086066 0.072077 0.11472 0.10073 0.17191 0.1146 0.34292 0.21343 0.51483 0.29938 0.32949 0.18623 0.63122 0.4028 0.91773 0.64633 0.071629 0.10028 0.11472 0.22921 0.11472 0.35814l0.19865 0.17067c-1.0887 1.6331-1.5319 3.5973-1.2311 5.5456l-0.2714 0.06995c-0.071629 0.1146-0.1596 0.20257-0.2742 0.2742-0.35814 0.08595-0.72994 0.17068-1.1024 0.17068-0.18623 0-0.38702-0.0013-0.58757 0.05596l-0.15669 0.03079h-0.013997v0.01403c-0.042977 1e-6 -0.086066 0.01403-0.11472 0.01403-0.34381 0.1146-0.50039 0.45954-0.40011 0.78903 0.1146 0.31516 0.45708 0.4864 0.77224 0.38612 0.085954-0.01433 0.14449-0.03044 0.18746-0.04477 0.18623-0.05731 0.37124-0.1267 0.52882-0.21265 0.37247-0.12903 0.71562-0.24465 1.1024-0.31628 0.1146 0 0.24421 0.05708 0.33016 0.1287l0.28539-0.04198c0.60167 1.8623 1.8633 3.4236 3.5394 4.4264l-0.10073 0.25741c0.042977 0.1146 0.059093 0.24354 0.044767 0.35814-0.14326 0.34382-0.33038 0.68685-0.55959 0.98768-0.1146 0.17191-0.21522 0.32893-0.34415 0.50084 0 0.04297 0.00135 0.11651-0.05596 0.15948-0.014326 0.04298-0.044433 0.07174-0.058757 0.11472-0.1146 0.32949 0.056967 0.67162 0.37213 0.78623 0.32949 0.1146 0.67442-0.05698 0.78903-0.37213 0.028651-0.04297 0.055288-0.1427 0.083939-0.1427 0.071629-0.20056 0.1305-0.38735 0.17347-0.57358 0.12893-0.40111 0.2723-0.75859 0.47286-1.1024 0.071629-0.07164 0.17112-0.11438 0.2714-0.1287l0.14269-0.2574c1.8193 0.70195 3.8403 0.70162 5.6883 0.01403l0.11472 0.22944c0.1146 0.02864 0.22776 0.09837 0.29938 0.19866 0.18623 0.32949 0.30196 0.67431 0.43089 1.0325 0.04297 0.18623 0.10185 0.37269 0.17347 0.58757 0.02864 0 0.05528 0.08572 0.08393 0.1287 0.01433 0.04297 0.03044 0.07174 0.04477 0.11472 0.17191 0.28651 0.54415 0.40168 0.84499 0.21544 0.30084-0.18623 0.38455-0.55847 0.21264-0.84499-0.01433-0.05731-0.05596-0.13049-0.05596-0.17347-0.11461-0.15758-0.22955-0.32926-0.34415-0.48685-0.21488-0.31516-0.3709-0.62988-0.54281-0.97369-0.04297-0.12893-0.01533-0.25753 0.04198-0.37213-0.04297-0.07164-0.07206-0.15747-0.10073-0.24342 1.6618-1.0028 2.9521-2.5777 3.5394-4.4544 0.08595 0.01433 0.17112 0.02765 0.2714 0.04198 0.08595-0.1146 0.20123-0.11472 0.33016-0.11472 0.38679 0.05731 0.72993 0.15893 1.1024 0.30218 0.15758 0.08595 0.3286 0.15534 0.51483 0.21264 0.05731 0.01433 0.11549 0.03077 0.20145 0.03077v0.01403c0 0.01433 0.05775 0.01362 0.10073 0.02797 0.34382 0.04297 0.61667-0.20212 0.6883-0.53161 0.04297-0.34381-0.1878-0.65652-0.53161-0.69949-0.05731-0.01433-0.1277-0.02976-0.17068-0.07274h-0.58757c-0.37247-0.04297-0.74426-0.10117-1.1024-0.20146-0.1146-0.05731-0.2169-0.14281-0.2742-0.25741l-0.2714-0.06994c0.28651-1.9339-0.15881-3.9128-1.2619-5.5316l0.22943-0.19874c-0.01433-0.12893 0.02877-0.24387 0.11472-0.34415 0.27219-0.24354 0.58825-0.4601 0.91774-0.64633 0.17191-0.085954 0.34326-0.18478 0.50084-0.29938 0.04298-0.028651 0.10005-0.072077 0.1287-0.10073 0.04298-0.028651 0.08675-0.058086 0.08675-0.086738 0.25786-0.24354 0.27219-0.62977 0-0.85898-0.21488-0.25786-0.60145-0.25786-0.84499 0-0.04297 0-0.09971 0.058086-0.1427 0.086738-0.14326 0.14326-0.27398 0.28483-0.40291 0.42809-0.24354 0.27219-0.53016 0.53217-0.831 0.74706-0.1146 0.057302-0.2432 0.070621-0.37213 0.041971l-0.22944 0.17068c-1.3466-1.4182-3.1496-2.2903-5.0979-2.4622l-0.01403-0.2742c-0.10028-0.071629-0.1728-0.17012-0.20146-0.31337-0.01433-0.37247 0.0126-0.74426 0.06995-1.1024 0.04297-0.18623 0.07242-0.38702 0.08675-0.58757v-0.31617c-0.037571-0.2883-0.26016-0.5231-0.54557-0.5484zm-0.84219 4.7733-0.17347 3.2233h-0.01403c-0.01433 0.1146-0.0431 0.21623-0.11472 0.30218-0.17191 0.24354-0.50072 0.28629-0.74426 0.1287h-0.01403l-2.6356-1.8774c0.83088-0.83088 1.8898-1.4041 3.0358-1.662 0.22921-0.042977 0.44544-0.086066 0.66032-0.11472zm1.5445 0c1.3753 0.17191 2.6793 0.78825 3.6821 1.7767l-2.6217 1.8774h-0.01403c-0.08595 0.042976-0.18478 0.072741-0.29938 0.072741-0.30084 0.014327-0.54527-0.21679-0.5596-0.51762zm-6.2003 2.9379 2.4063 2.1908v0.01404c0.085954 0.07163 0.15669 0.1596 0.15669 0.2742 0.085954 0.28651-0.085618 0.5859-0.37213 0.65752v0.01403l-3.0946 0.88966c-0.15758-1.4039 0.15881-2.8083 0.90374-4.0403zm10.842 0.041974c0.7306 1.189 1.032 2.5947 0.93172 3.9843l-3.1085-0.88976-0.01403-0.01403c-0.10028-0.02864-0.18579-0.08473-0.25742-0.17068-0.20056-0.21488-0.17325-0.56049 0.05596-0.76105l-0.0139-0.04193zm-5.9149 2.3223h0.98768l0.61555 0.75825-0.21544 0.9597-0.88696 0.43089-0.88696-0.43089-0.22943-0.9597zm-2.3083 2.6497h0.11472c0.24353 0 0.45965 0.17057 0.5456 0.4141 0 0.10028 0.00131 0.23056-0.055956 0.30218v0.04198l-1.2199 2.9658c-1.189-0.75926-2.0902-1.8773-2.5629-3.1953zm5.2742 0h0.34415l3.1925 0.51483c-0.47274 1.3323-1.3739 2.464-2.5629 3.2233l-1.2339-3.0218c-0.1146-0.25786 0.0023-0.5587 0.26021-0.71628zm-2.521 1.2983c0.20817-0.02014 0.42137 0.0836 0.52882 0.277h0.01403l1.5613 2.8232c-0.20056 0.07164-0.415 0.1277-0.61556 0.17068-1.1604 0.27219-2.3633 0.20179-3.4807-0.17068l1.5613-2.8232h0.01403c0.04297-0.10028 0.11516-0.14382 0.21544-0.21544 0.06447-0.03581 0.13207-0.05484 0.20146-0.06156z" fill="#448aff" stroke-width="1.4326"/>
</svg>
