<?xml version="1.0" standalone="yes"?>
<svg xmlns="http://www.w3.org/2000/svg" width="318" height="315">
<path style="fill:#1976d2; stroke:none;" d="M94 223L180 223C196.088 223 213.212 224.691 229 221.112C249.659 216.428 268.85 207.036 283.999 191.996C296.826 179.261 306.503 163.302 311.795 146C316.469 130.718 316.446 115.692 315.986 100C315.595 86.6543 311.171 72.8481 305.247 61C299.639 49.7841 292.238 38.8271 282.961 30.2855C240.208 -9.07773 173.768 -9.80557 130 28.2894C121.41 35.7664 114.382 45.2304 108.605 55C101.622 66.8089 97.1113 80.4238 95.2824 94C93.0596 110.501 94 127.372 94 144L94 223M278 70L278 190L234 190L234 70L278 70M176 95L176 190L132 190L132 95L176 95M227 121L227 190L183 190L183 121L227 121M1 140L1 222L82 222L82 140L1 140M1 234L1 290C1 296.686 -0.821486 306.513 4.27855 311.772C9.31772 316.968 19.4205 315 26 315L82 315L82 234L1 234M95 234L95 315L176 315L176 234L95 234z"/>
</svg>
