<?xml version="1.0" encoding="utf-8"?>
<svg version="1.0" xmlns="http://www.w3.org/2000/svg" width="318px" height="315px" viewBox="0 0 318 315" preserveAspectRatio="xMidYMid meet">
 <g fill="#1E88E5">
  <path d="M8.3 313.5 c-6.2 -2.7 -6.3 -3.6 -6.3 -43 l0 -35.5 39.5 0 39.5 0 0 40 0 40 -34.7 0 c-27.4 -0.1 -35.5 -0.4 -38 -1.5z"/>
  <path d="M96 275 l0 -40 39.5 0 39.5 0 0 40 0 40 -39.5 0 -39.5 0 0 -40z"/>
  <path d="M95 162.6 c0 -65.3 0.2 -68.7 5.6 -85.8 5.2 -16.5 14.9 -32.1 27.7 -44.5 20.3 -19.7 44.2 -29.9 72.7 -31 21 -0.8 37.5 2.8 55.5 12 65.8 34 79.5 124.4 26.9 177.1 -18.5 18.5 -41.9 29.2 -68.9 31.6 -6 0.5 -35.4 1 -65.2 1 l-54.3 0 0 -60.4z m78 -20.1 l0 -44.5 -19 0 -19 0 0 44.5 0 44.5 19 0 19 0 0 -44.5z m51 13 l0 -31.5 -19 0 -19 0 0 31.5 0 31.5 19 0 19 0 0 -31.5z m51 -25.5 l0 -57 -19 0 -19 0 0 57 0 57 19 0 19 0 0 -57z"/>
  <path d="M2 181.5 l0 -40.5 39.5 0 39.5 0 0 40.5 0 40.5 -39.5 0 -39.5 0 0 -40.5z"/>
 </g>
</svg>
