<svg version="1.0" viewBox="0 0 318 315" xmlns="http://www.w3.org/2000/svg">
 <g transform="matrix(.79205 0 0 .79205 33.204 32.281)" fill="#1e88e5">
  <path d="m8.3 313.5c-6.2-2.7-6.3-3.6-6.3-43v-35.5h79v80h-34.7c-27.4-0.1-35.5-0.4-38-1.5z"/>
  <path d="m96 275v-40h79v80h-79z"/>
  <path d="m95 162.6c0-65.3 0.2-68.7 5.6-85.8 5.2-16.5 14.9-32.1 27.7-44.5 20.3-19.7 44.2-29.9 72.7-31 21-0.8 37.5 2.8 55.5 12 65.8 34 79.5 124.4 26.9 177.1-18.5 18.5-41.9 29.2-68.9 31.6-6 0.5-35.4 1-65.2 1h-54.3zm78-20.1v-44.5h-38v89h38zm51 13v-31.5h-38v63h38zm51-25.5v-57h-38v114h38z"/>
  <path d="m2 181.5v-40.5h79v81h-79z"/>
 </g>
</svg>
