<svg xmlns="http://www.w3.org/2000/svg" viewBox="0 0 32 32">
  <path d="M31.96289,9.12018c-.00818-.02979-.02338-.05615-.03418-.0849a.99211.99211,0,0,0-.069-.156,2.3655,2.3655,0,0,0-.16223-.20568.99421.99421,0,0,0-.0882-.07172.96717.96717,0,0,0-.08337-.06775c-.0138-.00855-.02948-.012-.04358-.01978-.01257-.007-.02209-.0177-.035-.02417l-6-3a1.00115,1.00115,0,0,0-.89454,0l-6,3c-.013.00654-.02258.01728-.03521.0243-.014.00775-.02967.01117-.0434.01965a.96717.96717,0,0,0-.08337.06775.68073.68073,0,0,0-.18683.1911.978.978,0,0,0-.0636.0863.99211.99211,0,0,0-.069.156c-.0108.02875-.026.05511-.03418.0849A.99409.99409,0,0,0,18,9.38477V14.7666l-4,2V5.38477a.99409.99409,0,0,0-.03711-.26459c-.00818-.02979-.02338-.05615-.03418-.0849a.99211.99211,0,0,0-.069-.15595.978.978,0,0,0-.0636-.0863.68073.68073,0,0,0-.18683-.1911.96717.96717,0,0,0-.08337-.06775c-.01373-.00855-.02936-.0119-.04346-.01971-.01263-.007-.02215-.0177-.03515-.02424l-6-3a1.00115,1.00115,0,0,0-.89454,0l-6,3c-.013.00654-.02252.01722-.03515.02424-.014.00781-.02973.01123-.04346.01971a.96717.96717,0,0,0-.08337.06775.99421.99421,0,0,0-.0882.07172A.98437.98437,0,0,0,.20392,4.793a.978.978,0,0,0-.0636.0863.99211.99211,0,0,0-.069.15595c-.0108.02875-.026.05511-.03418.0849A.99409.99409,0,0,0,0,5.38477v19a1.00041,1.00041,0,0,0,.55273.89453l6,3,6,3c.01447.0072.03113.00433.04584.0108a.89843.89843,0,0,0,.80286,0c.01471-.00647.03137-.0036.04584-.0108l12-6A1.00041,1.00041,0,0,0,26,24.38477V19.00293l5.44727-2.72363A1.00041,1.00041,0,0,0,32,15.38477v-6A.99409.99409,0,0,0,31.96289,9.12018ZM9.23633,21.38477l4.21094-2.10547.00073-.00049L19,16.50293l3.76367,1.88184L13,23.2666ZM24,13.00293V16.7666l-4-2V11.00293Zm1-5.5,3.76392,1.88171L25,11.2666l-3.76392-1.882ZM8,19.7666V9.00293l4-2V17.7666ZM7,3.50293l3.76392,1.88171L7,7.2666l-3.76392-1.882Zm-5,3.5,4,2V25.7666l-4-2Zm6,16,4,2V28.7666l-4-2Zm16,.76367-10,5V25.00293l10-5Zm6-9-4,2V13.00293l4-2Z" style="fill: #ff5252"/>
</svg>
