<svg xmlns="http://www.w3.org/2000/svg" viewBox="0 0 32 32"><path fill="#ff5252" d="M31.963 9.12c-.008-.03-.023-.056-.034-.085a1 1 0 0 0-.07-.156 2 2 0 0 0-.162-.205 1 1 0 0 0-.088-.072 1 1 0 0 0-.083-.068l-.044-.02-.035-.024-6-3a1 1 0 0 0-.894 0l-6 3-.035.024-.044.02a1 1 0 0 0-.083.068.7.7 0 0 0-.187.191 1 1 0 0 0-.064.086 1 1 0 0 0-.069.156c-.01.029-.026.055-.034.085a1 1 0 0 0-.037.265v5.382l-4 2V5.385a1 1 0 0 0-.037-.265c-.008-.03-.023-.056-.034-.085a1 1 0 0 0-.07-.156 1 1 0 0 0-.063-.086.7.7 0 0 0-.187-.191 1 1 0 0 0-.083-.068l-.044-.02-.035-.024-6-3a1 1 0 0 0-.894 0l-6 3-.035.024-.044.02a1 1 0 0 0-.083.068 1 1 0 0 0-.088.072 1 1 0 0 0-.1.119 1 1 0 0 0-.063.086 1 1 0 0 0-.069.156c-.01.029-.026.055-.034.085A1 1 0 0 0 0 5.385v19a1 1 0 0 0 .553.894l6 3 6 3c.014.007.03.005.046.011a.9.9 0 0 0 .802 0c.015-.006.032-.004.046-.01l12-6a1 1 0 0 0 .553-.895v-5.382l5.447-2.724a1 1 0 0 0 .553-.894v-6a1 1 0 0 0-.037-.265M9.236 21.385l4.211-2.106h.001L19 16.503l3.764 1.882L13 23.267ZM24 13.003v3.764l-4-2v-3.764Zm1-5.5 3.764 1.882L25 11.267l-3.764-1.882ZM8 19.767V9.003l4-2v10.764ZM7 3.503l3.764 1.882L7 7.267 3.236 5.385Zm-5 3.5 4 2v16.764l-4-2Zm6 16 4 2v3.764l-4-2Zm16 .764-10 5v-3.764l10-5Zm6-9-4 2v-3.764l4-2Z"/></svg>