<svg xmlns="http://www.w3.org/2000/svg" viewBox="0 0 240 240">
  <defs/>
  <path fill="#ff2d20" stroke="#ff2d20" stroke-width="8" d="M223.4 61.7c0-.1-.1-.2-.1-.3-.1-.2-.1-.4-.2-.5-.1-.1-.2-.2-.2-.3-.1-.1-.2-.3-.3-.4l-.3-.3c-.1-.1-.2-.2-.4-.3h0l-40.1-23.1c-1-.6-2.3-.6-3.3 0l-40.1 23.1h0c-.1.1-.2.2-.4.3l-.3.3c-.1.1-.2.3-.3.4-.1.1-.2.2-.2.3-.1.2-.2.3-.2.5 0 .1-.1.2-.1.3-.1.3-.1.6-.1.9v43.8l-33.4 19.2V39.8c0-.3 0-.6-.1-.9 0-.1-.1-.2-.1-.3-.1-.2-.1-.4-.2-.5-.1-.1-.2-.2-.2-.3-.1-.1-.2-.3-.3-.4l-.3-.3c-.1-.1-.2-.2-.4-.3h0L61.6 13.9c-1-.6-2.3-.6-3.3 0L18.2 37h0c-.1.1-.2.2-.4.3l-.3.3c-.1.1-.2.3-.3.4-.1.1-.2.2-.2.3-.1.2-.2.3-.2.5 0 .1-.1.2-.1.3-.1.3-.1.6-.1.9v137.2c0 1.2.6 2.3 1.7 2.9l80.1 46.1c.2.1.4.2.5.2.1 0 .2.1.3.1.3.1.6.1.9.1s.6 0 .9-.1c.1 0 .1-.1.2-.1.2-.1.4-.1.6-.2l80.1-46.1c1-.6 1.7-1.7 1.7-2.9v-43.8l38.4-22.1c1-.6 1.7-1.7 1.7-2.9V62.5c-.2-.3-.3-.6-.3-.8zM99.9 173.2l-33.3-18.9 35-20.2h0L140 112l33.4 19.2-24.5 14-49 28zm76.8-85.7v38l-14-8.1-19.4-11.2v-38l14 8.1 19.4 11.2zm3.4-44.2l33.4 19.2-33.4 19.2-33.4-19.2 33.4-19.2zM77.2 140.6l-14 8.1V64.8l19.4-11.2 14-8.1v83.8l-19.4 11.3zm-17.3-120l33.4 19.2-33.4 19.3-33.4-19.2 33.4-19.3zm-36.8 25l14 8.1 19.4 11.2v89.6c0 .1 0 .3.1.4 0 .2 0 .3.1.5v0c0 .1.1.3.2.4.1.1.1.3.2.4 0 0 0 0 0 0l.3.3c.1.1.2.2.3.4h0c.1.1.2.2.3.2.1.1.2.2.4.3 0 0 0 0 0 0s0 0 0 0L96.6 179v38.4l-73.5-42.3V45.6zm153.6 129.5l-73.5 42.3V179l54.4-31.1 19.1-10.9v38.1h0zm40.1-68.8l-33.4 19.2v-38l19.4-11.2 14-8.1v38.1h0z"/>
</svg>