<svg viewBox="0 0 1024 1024" xmlns="http://www.w3.org/2000/svg"><path d="M128 704v128c0 70.692 57.308 128 128 128h608c17.728 0 32-14.272 32-32V704z" fill="#1565c0"/><path d="M704 768v128h128V768z" fill="#ffe082"/><path d="M224 768c-9.71 0-19.062 1.46-27.883 4.117A96.506 96.506 0 00192 800c0 53.184 42.816 96 96 96h544c-53.02 0-96-42.98-96-96a96 96 0 016.129-32z" fill="#fff8e1"/><path d="M320 832h192v192l-96-96-96 96z" fill="#ff1744"/><path d="M256 64c-70.692 0-128 57.308-128 128v640a128 128 0 001.791 13.607C138.331 801.29 177.115 768 224 768h640c17.728 0 32-14.272 32-32V96c0-17.728-14.272-32-32-32z" fill="#2196f3"/><path d="M448 128v64H256v64h256c0 33.778-26.676 86.11-73.947 144.959-7.257 9.034-15.068 18.276-23.123 27.611-4.479-5.242-8.838-10.461-13.002-15.634C370.55 373.95 352 336 352 320h-64c0 48 29.45 90.049 64.072 133.064 6.302 7.83 12.933 15.627 19.68 23.39-35.13 37.553-74.249 76.79-114.379 116.919l45.254 45.254c38.924-38.924 77.278-77.307 112.568-114.883 17.182 17.87 34.328 35.033 50.178 50.883l45.254-45.254c-16.799-16.799-34.744-34.801-52.309-53.17 10.301-11.813 20.31-23.56 29.63-35.162C538.675 377.889 576 318.222 576 256h128v-64H512v-64zm192 192L512 704h64l21.334-64h149.332L768 704h64L704 320zm32 96l53.334 160H618.666z" fill="#e3f2fd"/></svg>