<svg xmlns="http://www.w3.org/2000/svg" width="512" height="512" shape-rendering="geometricPrecision" text-rendering="geometricPrecision" image-rendering="optimizeQuality" fill-rule="evenodd" clip-rule="evenodd"><g fill="#F44336"><path d="M32 352l64-32v-61.02c-.38-.43-.75-.87-1.11-1.31L32 352zM375.78 355.27L230.94 251.81c15.57-11.83 25.06-30.36 25.06-50.87 0-21.13 1.89-37.15-9.95-55.64l50.03-33.35a31.893 31.893 0 0142.33 6.14l118.45 142.14a31.88 31.88 0 01-7.23 47.37l-73.85 47.67zM224 182.66v-2.88c0-23.87-24.96-39.3-46.31-28.62l-53.07 26.53c-15.76 7.88-22.19 27.17-14.31 42.93l5.33 10.62a7.971 7.971 0 013.79-10.74l93.25-43.88c4.98-2.34 10.59.89 11.32 6.04z"/></g><g fill="#B71C1C"><path d="M32 352l64-32 64 32-64 32zM375.78 355.27L230.94 251.81c-5.52 4.19-11.81 7.54-18.7 9.84l-47.79 15.93A63.86 63.86 0 01128 278.8v21.42l155.37 77.69c22.85 11.43 47.14 6.59 68.61-7.27l23.8-15.37zM119.43 220.5l93.25-43.88c5.26-2.48 11.29 1.27 11.4 7.09.12 6.24-.08 13.02-.08 17.23 0 14.01-8.59 25.92-21.88 30.35l-47.79 15.93c-26.05 8.69-49.64-19.78-34.9-26.72z"/></g></svg>
