<svg xmlns="http://www.w3.org/2000/svg" viewBox="0 0 32 32"><path fill="#f44336" d="M6 16v6H2l4-6zm5.106-6.537-3.317 1.775a2.219 2.219 0 0 0-.895 2.873l.333.71L14 11.571v-.193a2.006 2.006 0 0 0-2.894-1.915zm18.82 7.545a1.993 1.993 0 0 0-.393-.744l-7.89-8.883a2.76 2.76 0 0 0-3.138-.384L16 8v4.559a3.971 3.971 0 0 1-1.566 3.18L16 20l8.457 2.204 4.624-2.979a2.002 2.002 0 0 0 .845-2.217z"/><path fill="#b71c1c" fill-rule="evenodd" d="m2 22 4-2 4 2-4 2-4-2zm12.434-6.262a5.981 5.981 0 0 1-1.194.695l-2.544 1.136A6.545 6.545 0 0 1 8 18v.764l9.71 4.855a4.052 4.052 0 0 0 2.343.366 7.77 7.77 0 0 0 2.667-.82 23.561 23.561 0 0 0 1.737-.96zm-6.97-1.635 5.829-2.937a.501.501 0 0 1 .712.475c.007.417-.005.871-.005 1.153a2.104 2.104 0 0 1-1.367 2.03l-2.987 1.067c-1.629.581-3.103-1.324-2.182-1.788z"/></svg>