<svg xmlns="http://www.w3.org/2000/svg" viewBox="0 0 32 32"><polygon points="6 16 6 22 2 22 6 16" style="fill:#f44336"/><path d="M11.10565,9.46273,7.78876,11.238a2.21865,2.21865,0,0,0-.89441,2.87274l.33313.71066L14,11.57058V11.3778A2.00552,2.00552,0,0,0,11.10565,9.46273Z" style="fill:#f44336"/><path d="M29.92584,17.00775a1.99343,1.99343,0,0,0-.393-.74341L21.64368,7.38062A2.76039,2.76039,0,0,0,18.505,6.997L16,8v4.55872a3.97133,3.97133,0,0,1-1.56622,3.17938L16,20l8.45728,2.20435L29.08093,19.225A2.00179,2.00179,0,0,0,29.92584,17.00775Z" style="fill:#f44336"/><polygon points="2 22 6 20 10 22 6 24 2 22" style="fill:#b71c1c;fill-rule:evenodd"/><path d="M14.43378,15.7381a5.98127,5.98127,0,0,1-1.19378.69484l-2.5443,1.13653A6.5445,6.5445,0,0,1,8,18v.76373l9.71063,4.85565a4.05211,4.05211,0,0,0,2.34271.36554,7.77048,7.77048,0,0,0,2.66681-.81994c.74347-.38422,1.10865-.57636,1.73713-.96063Z" style="fill:#b71c1c;fill-rule:evenodd"/><path d="M7.46438,14.10266,13.2925,11.1664a.50111.50111,0,0,1,.7125.47443c.0075.41755-.005.87124-.005,1.153a2.10408,2.10408,0,0,1-1.3675,2.0309l-2.98687,1.066C8.0175,16.47216,6.54313,14.56706,7.46438,14.10266Z" style="fill:#b71c1c;fill-rule:evenodd"/></svg>