<svg version="1.0" viewBox="0 0 24 24" xmlns="http://www.w3.org/2000/svg"><path d="M 11.262 4.006 C 11.049 4.006 10.92 4.284 11.09 4.434 L 13.01 6.014 L 11.154 6.781 C 10.962 6.866 10.962 7.144 11.154 7.229 L 13.01 7.996 L 13.01 11.391 C 13.01 13.654 13.459 14.081 14.014 14.85 C 10.259 14.829 4.795 14.806 3.451 16.066 C 2.768 16.685 2 19.182 2 19.438 C 2 19.737 2.256 19.992 2.555 19.992 L 18.152 19.992 C 20.136 20.035 21.908 18.542 21.994 16.557 C 22.079 15.084 21.29 13.739 19.988 13.078 L 19.988 13.076 L 16.83 11.498 C 16.339 11.263 15.998 10.731 15.998 10.176 L 15.998 9.021 L 18.004 9.021 L 18.879 9.727 C 19.071 9.919 19.326 10.025 19.582 10.025 L 20.543 10.025 C 20.927 10.025 21.268 9.813 21.439 9.471 L 21.887 8.574 C 22.058 8.232 22.016 7.826 21.803 7.527 L 19.477 4.412 C 19.285 4.155 18.984 4.006 18.664 4.006 L 11.262 4.006 z M 17.102 5.865 L 17.982 6.102 L 18.863 6.338 C 18.757 6.737 18.396 7.015 17.982 7.016 C 17.477 7.016 17.068 6.607 17.068 6.102 C 17.069 6.022 17.08 5.942 17.102 5.865 z M 7.043 7.023 C 6.619 7.047 6.203 7.207 5.861 7.506 L 2.191 11.135 C 1.807 11.455 2.085 12.096 2.576 12.01 L 7.996 11.008 L 5.137 13.547 C 4.817 13.867 5.052 14.485 5.5 14.4 C 7.826 13.994 10.13 13.994 12.414 13.994 C 12.115 13.162 11.986 12.287 11.986 11.391 L 11.986 10.09 L 8.273 7.357 C 7.9 7.112 7.467 6.999 7.043 7.023 Z" fill="#5c6bc0" /></svg>