<svg version="1.0" viewBox="0 0 24 24" xmlns="http://www.w3.org/2000/svg"><path d="m 2.576,12.01 5.42,-1.003 -2.859,2.54 c -0.32,0.32 -0.085,0.939 0.363,0.854 2.326,-0.406 4.63,-0.406 6.914,-0.406 -0.299,-0.832 -0.427,-1.708 -0.427,-2.604 V 10.089 L 8.273,7.357 C 7.527,6.866 6.545,6.909 5.862,7.506 L 2.192,11.135 c -0.384,0.32 -0.107,0.961 0.384,0.875 z M 19.988,13.077 16.83,11.498 C 16.339,11.263 15.998,10.73 15.998,10.175 V 9.022 h 2.006 l 0.875,0.704 c 0.192,0.192 0.448,0.299 0.704,0.299 h 0.96 c 0.384,-1.3e-5 0.725,-0.213 0.896,-0.555 l 0.448,-0.896 c 0.171,-0.342 0.128,-0.747 -0.085,-1.046 L 19.476,4.412 C 19.284,4.155 18.985,4.006 18.665,4.006 h -7.404 c -0.213,0 -0.341,0.277 -0.171,0.427 l 1.92,1.58 -1.856,0.768 c -0.192,0.085 -0.192,0.363 0,0.448 l 1.856,0.768 V 11.391 c 0,2.263 0.448,2.689 1.003,3.458 C 10.258,14.828 4.795,14.806 3.451,16.066 2.768,16.685 2,19.182 2,19.438 c 0,0.299 0.256,0.555 0.555,0.555 H 18.153 c 1.984,0.043 3.755,-1.451 3.841,-3.436 0.085,-1.473 -0.704,-2.818 -2.006,-3.479 z m -2.689,-7.001 1.43,0.363 c -0.085,0.342 -0.384,0.598 -0.747,0.576 -0.405,-0.021 -0.811,-0.384 -0.683,-0.918 z" fill="#5e35b1" /></svg>