<svg xmlns="http://www.w3.org/2000/svg" viewBox="-0.12 76 512.12 361">
    <path fill="#cc00ff"
        d="M499 278c-2 1 1 3 3 3-4 6-10 7-14 4-2-2 2-1 5-1 4 0 7-2 6-3l-5 2c-6-1-13-2-13-4l2-4 3 3 2-3h1l1-1c2-2-1-8-3-11-2-1 0-4 3-4 6-1 1-6-5-3-5 1-6 4-10 6l-8 1c-6 3-9 6-16 3-4-2-2 1 0 3 1 2 2 3 0 4-8 4-6-3-10-3-7-8-2-39-32-47-16-7-25-6-30-10 14-12 31 12 59 14 16 0 8 8 25 12 12 11 15 12 11-4 0-4-5-1-7-4-1-2 3-3 8 2 10 9 14-1 16 3 2 2 5-2 10-4 3-1 7-3 6-4 0-3-10-2-14-5s1 5-3 6c-6 3-10 0-15-5 6-3 7-4 6-2-1 6 7-2 8-7 0-4 8-4 9-6 0-1-14-4-16-3-8 1-11 3-13 0s-11-6-17-3c-5 2-11 2-13 2-2 1-2 2-1 3 4 3-12 3-19-1-4-3-8-1-9-8-2-9-3-2-8-7-3-4-2-7 5-2l8 5c5 4 1 4 2 7l7-2 12-4-8-3-6-2c-2 1-1 4-5-1 1-1 8 0 16-3 4-3 27-3 31 0 8 3 7 1 5-3-1-5-2-7-5-8-3 1 5 5 3 10 0 1-1-5-4-5-4 0-1-2-2-6 0-3 6 1 14-8 3-3 5 1 5-6 0-4 3-9 4-13-3-2-9 7-14 10-4 1-2 3 2 4 1 2-5 6-10 6-6 0-11-1-11-4s8 0 8 1c2 3 4-1-1-9-5-7-5-3-5-6l4-8c-1-1-4 0-9 5-8 9-8 15-18 20-14-5-14-4-4 5-7 4-9 2-11 3s0 2 7 5c-12-1-17 0-18-2l2-5c2 4 7 1 3-11-1-4-3-5 7-10l2-2h-9c-4 1-6 4-9 4-8 2-18 11-21 10l-5-7-3 5c-2-1-5-6-7-6-3 9 2 12 1 15s6 3 0 7c-9 6-15 8-14 1s2 7 6 0c1-9-5-17 0-19 8-3-7-4-13-1-5 2-7 3-13 2 5-3 13-5 23-8l11-6c5-2 25 10 25 6l-3-6c-1-3 0-5-2-7-2-3 2 0 6-4 7-8 2 5 8-2l1-10c1-3 4-3 5-6-6-3-11 5-17 10-2 1 0 1 0 2 1 1 1 2-6 2-6-1-8 0-8-4 0-3 1-4 2-1 0 1 0 3 2 0s0-6 1-6c2 2 1 5 2 5 4-5 4-10 0-17-2-3 7-6 4-8-7-2-15 10-23 16-2-1-2-3-4-2-6 7-2 16-16 13-2 0 6 5 0 6-2 0-6 4-4 3l4 1 5 2-2 1c-22 5-27 19-34 21-2 0 0-1-3-2-4-1 1 3-2 4-5 1-11-5-15-11 2-6 3-1 8 0 3 0 3 3 6 4 5-1 5-11 3-14-1-3-2 0-3-3 0-1 1-2 3-1 4 1 5-2 7-3l1 2 1 1c5-5 14-5 14-9-1-1-17-3-20-2-5 1 5 3 0 4s-8 0-7-6l1-1h3c4-6 0-13 5-15 4-2 4-3 1-4-10-1-11 5-14 5s-8 3-13 7v-1c-1-6-12 8-17 3-2-2-3-1-3 0v3c-2-1-7 5-3 4 5 0 6 1-3 5-10 5-16 5-15 7l7 1c2 1 3 3 6 2h9v13c2 1 0-1 2-1 1 0 3 5 1 7s2 2 3 0c2-2 3 0 4 2 2 5 3 3 5 5 1 3 7 5 12 7 2 0 2 0-1 1-5 3-2 5-4 6-11 12-9 31 4 40 11 9 13 6 23 9s30 4 34 8c5 6 2 17-4 20-27 5-61-11-71-46-2-3 1-6 0-13-3-7-4 1-7 5-13-8-23-13-23-15 0-3 4 4 7 2 6-5 3-13-8-26A488 488 0 0094 76c9 8 21 10 31 25-1 2-7 3-7 5l4 1c10 3 17 11 14 14s-10 0-11 4c1 2 3 0 10 4 16 9 18 20-3 12-24-8-49-14-60-8-10 4 8 2 19 7 4 3 4 4 1 6-10 2-26 1-38 3-6 2-9 0-13 6 0 3 13-1 22 1 4 2 0 6-7 7-21 6-41 10-46 14-5 5-9 5-10 7 0 2-3 1 21-4 9-2 32-3 34-2-1 2-5 3-5 6h2c18-5 46-3 56 1 3 1 4 5 3 7 1 9-12 14-11 19 1 3 2-1 12-3 8-1 27 3 34 11 19 21 2 24-3 31v5c2 1 5-5 17-5 8 1 27 12 29 15-40 20-75 35-90 32-18-8-49-17-62-30 0-2 14 2 21 9-2-18-23-17-30-30-4-6-3-22-5-32 0-1-1-2-2-1-2 3-6 26-6 36 0 11 5 25 10 37 2-1 4-8 3-15 23 26 37 25 44 32-39 13-50 32-52 54-5 25 23 55 77 43 7-3 11 11 23 11 2 0 4-5 4 1 0 4 5 3 5 0 0-5-2-6 3-6 5 2 4-6 7 1 1 3 2 3 4-1 1-4-3-9-5-17 6 4 6 4 6 1 0-4-4-9-13-7l-10 5-1 1c-1 1-4 0-4-1 1-3 15-9 19-33l19-1c7 0 9-3 13-3 3 1-1 6-1 8 3 1 11-2 11-11 1-3 2-2 3-1 5 2 16 0 21 7 2 3 1 4 0 5-5 0-6 6-1 8 7 2 10 1 11 6 0 5 7 0 8 3-1 3 1 4 1 6s-2 0-3 8c0 7 6 9 8 9 1 0 2-1 0-2-2-2 4 0 7-4 5-5 14 2 26 9 3 1 5 1 13 6 9 7 11-8 13 3 1 4 3 2 3-4 1-8-3-6 0-11l2-3c2 0 4 2 5 3 2 5 4-2 0-7-9-9-12-5-14-8h5c3 2 3 0 0-3-13-10-19 5-27 3-19-8-31-18-24-43 1-4 6 2 7 2 2-1 0-9-4-12-5-2-8-8-13-10l-11-1c4-4 17-10 40-7 6 1 12 14 13 23 0 10 3 13 4 13 5-5-1-15 13-23 13 10 23 19 43 21 2 0 2 1 2 4-4 17-1 8 2 12s-2 19 3 15c2-2 2-1 4 2 2 6 0 11 2 11s3 6 0 5c-4 0-8 5-6 11 0 3 3 5 6 9l-1-9c1 0 2 2 5 2 3 1 7 0 11 3 4 4 6 9 13 14l10 9c3 3 9-4 11-1 2 1-1 5 0 6l4-3c3-4 3-6 1-10-1-2-1-2 3-1 4 0 5 0 7-4 1-2 4-1 4 3 1 4 2 3 4 0 5-6-1-12-6-13-5-2 0-4-10-7-8-4-8 1-16 1-15-4-20-16-19-46 0-7 4-6 4-1 0 7 5-1 4 8 0 9 5 1 7 9 2 5 3 1 6 5 3 2 3-1 5 1 1 3-8-2-11 9-1 4 3 6 7 7 3 0-1-2-1-4 1-1 3 1 6-1s7 4 11 5l2 1c9 8 20 20 24 18 5 0 7-2 7 1 1 5 7 2 6-4-1-5-4-9 0-9 2 0 4-2 7-6l3 8c1 0 2-2 2-7 1-5-13-16-16-15-5-1-7 4-12 3-7-1-18-10-19-13-9-21-20-41-17-48 4-15 9-15 10-20 1-9-3-13 2-18 14-10 22-18 25-28 2 5 7 18 14 29l-12 3h17c5-1 2 1 5 2 5 0-3 5-6 9-2 2 4 2 10-3 3-2 5-3 6-2l2-3c0-7 15 1 30 10 1 1 2 3 4 3 3-10-2-17 4-18 5-2 8-7 9-5s4 0 4-4c0-5 2-7 3-10-1-1-10 5-13 9zm-172-62c-10-2-26-5-29-15 1-4 6-10 7-9s-1 7-1 8l8-4c1 1 0 5 2 6l2 1c0 3 4 7 10 12l1 1zM77 358c2 0 7 0 3 5-2 4-2 6 1 6 3-2 0 8-1 9-8 4-38-8-38-13 1-11 23-29 40-31 1 0 3 13-3 18-3 3-6 7-2 6z">
    </path>
</svg>