<svg xmlns="http://www.w3.org/2000/svg" viewBox="0 0 24 24"><circle cx="12" cy="12" r="10" fill="#757575"/><path d="m14.89 16.73-2.36-1.18v-2.36l2.36 1.18v2.36z" fill="#fff"/><path d="M10.18 16.73v-2.36l2.36-1.18v2.36l-2.36 1.18z" fill="#616161"/><path d="m5.46 9.66 2.36-1.18 2.36 1.18-2.36 1.18-2.36-1.18z" fill="#bdbdbd"/><path d="m7.82 8.48 2.36-1.18 2.36 1.18-2.36 1.18-2.36-1.18zm2.36 3.54 2.36-1.18 2.36 1.18-2.36 1.18-2.36-1.18z" fill="#bdbdbd"/><path d="m12.53 8.48 2.36-1.18 2.36 1.18-2.36 1.18-2.36-1.18z" fill="#bdbdbd"/><path d="M14.89 12.02V9.66l2.36-1.18v2.36l-2.36 1.18zm0 4.71v-2.36l2.36-1.18v2.36l-2.36 1.18z" fill="#616161"/><path d="m12.53 13.19 2.36-1.18 2.36 1.18-2.36 1.18-2.36-1.18z" fill="#bdbdbd"/><path d="m5.46 12.02 2.36 1.18v2.36l2.36 1.18v-2.36l2.36 1.18V13.2l-2.36-1.18V9.66L7.82 8.48v2.36L5.46 9.66v2.36z" fill="#fff"/><path d="M12.53 15.55v-2.36l2.36-1.18v2.36l-2.36 1.18zm-2.35-3.53V9.66l2.36-1.18v2.36l-2.36 1.18z" fill="#616161"/><path d="m14.89 12.02-2.36-1.18V8.48l2.36 1.18v2.36z" fill="#fff"/></svg>