<svg viewBox="0 0 24 24" fill="none" xmlns="http://www.w3.org/2000/svg">
<path d="M12 22C17.5228 22 22 17.5228 22 12C22 6.47715 17.5228 2 12 2C6.47715 2 2 6.47715 2 12C2 17.5228 6.47715 22 12 22Z" fill="#0535C1"/>
<mask id="mask0" mask-type="alpha" maskUnits="userSpaceOnUse" x="14" y="7" width="6" height="5">
<path d="M18.5909 9.00751H17.9926C17.739 8.2899 17.0557 7.77649 16.2518 7.77649C15.2325 7.77649 14.4053 8.6037 14.4053 9.62301C14.4053 10.6423 15.2325 11.4697 16.2518 11.4697H18.5909C19.2708 11.4694 19.8218 10.9183 19.8219 10.2385C19.8217 9.55877 19.2707 9.00779 18.5909 9.00751Z" fill="white"/>
</mask>
<g mask="url(#mask0)">
<path d="M18.5909 9.00751H17.9926C17.739 8.2899 17.0557 7.77649 16.2518 7.77649C15.2325 7.77649 14.4053 8.6037 14.4053 9.62301C14.4053 10.6423 15.2325 11.4697 16.2518 11.4697H18.5909C19.2708 11.4694 19.8218 10.9183 19.8219 10.2385C19.8217 9.55877 19.2707 9.00779 18.5909 9.00751Z" fill="#EAEAEA"/>
<path d="M19.8219 10.2534V10.2385C19.8216 9.55877 19.2707 9.00779 18.5909 9.00751H17.9752V9.03819H18.5909C19.2646 9.03832 19.8131 9.57986 19.8219 10.2535V10.2534Z" fill="white" fill-opacity="0.2"/>
<path d="M20.4559 11.4697H16.2518L17.9939 9.00751L20.4559 11.4697Z" fill="url(#paint0_linear)"/>
<mask id="mask1" mask-type="alpha" maskUnits="userSpaceOnUse" x="16" y="9" width="4" height="3">
<path d="M18.5908 9.00751H16.2518V11.4695H18.5908C19.2706 11.4693 19.8215 10.9183 19.8218 10.2385C19.8215 9.55877 19.2706 9.00779 18.5908 9.00751Z" fill="white"/>
</mask>
<g mask="url(#mask1)">
<g filter="url(#filter0_d)">
<path d="M16.2518 7.77649L17.2502 10.9292C17.5836 10.5943 18.0984 10.1327 18.0984 9.62301C18.0984 8.6037 17.2711 7.77649 16.2518 7.77649Z" fill="black"/>
</g>
<path d="M16.2518 7.77649L17.2502 10.9292C17.5836 10.5943 18.0984 10.1327 18.0984 9.62301C18.0984 8.6037 17.2711 7.77649 16.2518 7.77649Z" fill="#E1E1E1"/>
</g>
<path d="M16.2518 11.4695C17.2716 11.4695 18.0983 10.6428 18.0983 9.62301C18.0983 8.60321 17.2716 7.77649 16.2518 7.77649C15.232 7.77649 14.4053 8.60321 14.4053 9.62301C14.4053 10.6428 15.232 11.4695 16.2518 11.4695Z" fill="#EEEEEE"/>
<path d="M16.2518 7.80738C17.2662 7.80738 18.0898 8.62607 18.0985 9.63925V9.62459C18.0985 8.60527 17.2711 7.77789 16.2518 7.77789C15.2325 7.77789 14.4053 8.60391 14.4053 9.62322V9.63805C14.4138 8.62607 15.2374 7.80738 16.2518 7.80738Z" fill="white" fill-opacity="0.2"/>
<path d="M18.5909 11.4389H16.2518C15.2376 11.4389 14.414 10.6202 14.4053 9.60718V9.62201C14.4053 10.6413 15.2325 11.4685 16.2518 11.4685H18.5909C19.2707 11.4682 19.8217 10.9173 19.8219 10.2375V10.2229C19.8135 10.8968 19.2649 11.4387 18.5909 11.439V11.4389Z" fill="#212121" fill-opacity="0.1"/>
</g>
<path d="M9.27271 6.20459H14.5V10.7501H9.27271V6.20459Z" fill="#FFF176"/>
<path d="M8.70447 13.1362H14.9545V19.3863H8.70447V13.1362Z" fill="white"/>
<path d="M15.6363 10.2955H16.5453V12.1135H7.45451V10.2955H8.36354V6.65901L12 4.38635L15.6363 6.65901V10.2955ZM13.8181 10.2955V7.66673L12 6.53066L10.1818 7.66673V10.2955H13.8181Z" fill="#F4481E"/>
<path d="M7.05072 20.6913L8.59094 10.2953H15.4091L16.9491 20.6913C15.4899 21.5241 13.8005 21.9998 12 21.9998C10.1995 21.9998 8.51014 21.5241 7.05072 20.6913ZM14.0357 13.4318L9.75838 14.8217L9.23849 18.3305L14.5079 16.6181L14.0357 13.4318Z" fill="#F4481E"/>
<path d="M15.6276 12.1135L16.8983 20.6913C15.4391 21.5241 13.7497 21.9998 11.9492 21.9998C10.1487 21.9998 8.45936 21.5241 6.99994 20.6913L8.27084 12.1135H7.45454V10.2955H8.36357V6.65901L12 4.38635L15.6363 6.65901V10.2955H16.5453V12.1135H15.6278H15.6276Z" fill="url(#paint1_linear)"/>
<path d="M12 10.2955H8.36354V6.65901L12 4.38635V10.2955Z" fill="url(#paint2_linear)"/>
<path d="M12 21.9998C10.2646 22.0008 8.55885 21.5499 7.05072 20.6913L8.1902 12.1135H11.9998L12 21.9998Z" fill="url(#paint3_linear)"/>
<path d="M12 10.2955L7.45451 10.2955V12.1137L11.9998 12.1135L12 10.2955Z" fill="url(#paint4_linear)"/>
<mask id="mask2" mask-type="alpha" maskUnits="userSpaceOnUse" x="4" y="9" width="7" height="6">
<path d="M9.27251 11.318H8.58218C8.28968 10.49 7.50133 9.89764 6.57372 9.89764C5.39759 9.89764 4.44305 10.8522 4.44305 12.0283C4.44305 13.2044 5.39759 14.159 6.57372 14.159H9.27251C10.0566 14.159 10.6931 13.5227 10.6931 12.7386C10.6931 11.9545 10.0566 11.318 9.27251 11.318Z" fill="white"/>
</mask>
<g mask="url(#mask2)">
<path d="M9.27251 11.318H8.58218C8.28968 10.49 7.50133 9.89764 6.57372 9.89764C5.39759 9.89764 4.44305 10.8522 4.44305 12.0283C4.44305 13.2044 5.39759 14.159 6.57372 14.159H9.27251C10.0566 14.159 10.6931 13.5227 10.6931 12.7386C10.6931 11.9545 10.0566 11.318 9.27251 11.318Z" fill="#FAFAFA"/>
<path d="M10.693 12.7557V12.7386C10.693 11.9545 10.0566 11.3181 9.27249 11.3181H8.56238V11.3537H9.27249C10.0498 11.3537 10.6828 11.9784 10.693 12.7557Z" fill="white" fill-opacity="0.2"/>
<path d="M11.4246 14.159H6.57379L8.58378 11.3181L11.4246 14.159Z" fill="url(#paint5_linear)"/>
<mask id="mask3" mask-type="alpha" maskUnits="userSpaceOnUse" x="6" y="11" width="5" height="4">
<path d="M9.27258 11.3181H6.57379V14.159H9.27258C10.0567 14.159 10.6931 13.5225 10.6931 12.7384C10.6931 11.9544 10.0567 11.3181 9.27258 11.3181Z" fill="white"/>
</mask>
<g mask="url(#mask3)">
<g filter="url(#filter1_d)">
<path d="M6.57379 9.89764L7.72572 13.5355C8.11077 13.1491 8.70446 12.6164 8.70446 12.0283C8.70446 10.8522 7.74992 9.89764 6.57379 9.89764Z" fill="black"/>
</g>
<path d="M6.57379 9.89764L7.72572 13.5355C8.11077 13.1491 8.70446 12.6164 8.70446 12.0283C8.70446 10.8522 7.74992 9.89764 6.57379 9.89764Z" fill="#E1E1E1"/>
</g>
<path d="M6.57372 14.159C7.75046 14.159 8.70439 13.205 8.70439 12.0283C8.70439 10.8516 7.75046 9.89764 6.57372 9.89764C5.39699 9.89764 4.44305 10.8516 4.44305 12.0283C4.44305 13.205 5.39699 14.159 6.57372 14.159Z" fill="white"/>
<path d="M6.57372 9.93335C7.74423 9.93335 8.69451 10.878 8.70439 12.047V12.0299C8.70439 10.8538 7.74985 9.89926 6.57372 9.89926C5.39759 9.89926 4.44305 10.8524 4.44305 12.0286V12.0456C4.45294 10.878 5.40322 9.93335 6.57372 9.93335Z" fill="white" fill-opacity="0.2"/>
<path d="M9.27251 14.1235H6.57372C5.40322 14.1235 4.45294 13.1789 4.44305 12.0099V12.027C4.44305 13.2031 5.39759 14.1576 6.57372 14.1576H9.27251C10.0566 14.1576 10.6931 13.5212 10.6931 12.7371V12.72C10.683 13.4971 10.051 14.1235 9.27251 14.1235Z" fill="#212121" fill-opacity="0.1"/>
</g>
<path d="M12 22C17.5228 22 22 17.5228 22 12C22 6.47715 17.5228 2 12 2C6.47715 2 2 6.47715 2 12C2 17.5228 6.47715 22 12 22Z" fill="url(#paint6_radial)"/>
<path d="M12 22C17.5228 22 22 17.5228 22 12C22 6.47715 17.5228 2 12 2C6.47715 2 2 6.47715 2 12C2 17.5228 6.47715 22 12 22Z" fill="url(#paint7_radial)"/>
<defs>
<filter id="filter0_d" x="12.2518" y="5.77649" width="9.84652" height="11.1527" filterUnits="userSpaceOnUse" color-interpolation-filters="sRGB">
<feFlood flood-opacity="0" result="BackgroundImageFix"/>
<feColorMatrix in="SourceAlpha" type="matrix" values="0 0 0 0 0 0 0 0 0 0 0 0 0 0 0 0 0 0 127 0" result="hardAlpha"/>
<feOffset dy="2"/>
<feGaussianBlur stdDeviation="2"/>
<feColorMatrix type="matrix" values="0 0 0 0 0 0 0 0 0 0 0 0 0 0 0 0 0 0 0.2 0"/>
<feBlend mode="normal" in2="BackgroundImageFix" result="effect1_dropShadow"/>
<feBlend mode="normal" in="SourceGraphic" in2="effect1_dropShadow" result="shape"/>
</filter>
<filter id="filter1_d" x="2.57379" y="7.89764" width="10.1307" height="11.6378" filterUnits="userSpaceOnUse" color-interpolation-filters="sRGB">
<feFlood flood-opacity="0" result="BackgroundImageFix"/>
<feColorMatrix in="SourceAlpha" type="matrix" values="0 0 0 0 0 0 0 0 0 0 0 0 0 0 0 0 0 0 127 0" result="hardAlpha"/>
<feOffset dy="2"/>
<feGaussianBlur stdDeviation="2"/>
<feColorMatrix type="matrix" values="0 0 0 0 0 0 0 0 0 0 0 0 0 0 0 0 0 0 0.1 0"/>
<feBlend mode="normal" in2="BackgroundImageFix" result="effect1_dropShadow"/>
<feBlend mode="normal" in="SourceGraphic" in2="effect1_dropShadow" result="shape"/>
</filter>
<linearGradient id="paint0_linear" x1="18.3536" y1="9.01307" x2="18.3536" y2="11.4629" gradientUnits="userSpaceOnUse">
<stop stop-color="#212121" stop-opacity="0.04"/>
<stop offset="0.66" stop-color="#212121" stop-opacity="0"/>
</linearGradient>
<linearGradient id="paint1_linear" x1="10.6253" y1="7.9721" x2="17.6275" y2="19.5103" gradientUnits="userSpaceOnUse">
<stop stop-color="white" stop-opacity="0.1"/>
<stop offset="1" stop-color="white" stop-opacity="0"/>
</linearGradient>
<linearGradient id="paint2_linear" x1="12" y1="11.2046" x2="7.45451" y2="11.2046" gradientUnits="userSpaceOnUse">
<stop stop-color="#262626" stop-opacity="0.1"/>
<stop offset="1" stop-color="#262626" stop-opacity="0"/>
</linearGradient>
<linearGradient id="paint3_linear" x1="12" y1="11.2046" x2="7.45451" y2="11.2046" gradientUnits="userSpaceOnUse">
<stop stop-color="#262626" stop-opacity="0.1"/>
<stop offset="1" stop-color="#262626" stop-opacity="0"/>
</linearGradient>
<linearGradient id="paint4_linear" x1="12" y1="11.2046" x2="7.45451" y2="11.2046" gradientUnits="userSpaceOnUse">
<stop stop-color="#262626" stop-opacity="0.1"/>
<stop offset="1" stop-color="#262626" stop-opacity="0"/>
</linearGradient>
<linearGradient id="paint5_linear" x1="8.99888" y1="11.3245" x2="8.99888" y2="14.1512" gradientUnits="userSpaceOnUse">
<stop stop-color="#212121" stop-opacity="0.04"/>
<stop offset="0.66" stop-color="#212121" stop-opacity="0"/>
</linearGradient>
<radialGradient id="paint6_radial" cx="0" cy="0" r="1" gradientUnits="userSpaceOnUse" gradientTransform="translate(4.8978 4.9168) scale(19.9946)">
<stop stop-color="white" stop-opacity="0.1"/>
<stop offset="1" stop-color="white" stop-opacity="0"/>
</radialGradient>
<radialGradient id="paint7_radial" cx="0" cy="0" r="1" gradientUnits="userSpaceOnUse" gradientTransform="translate(4.8978 4.9168) scale(19.9946)">
<stop stop-color="white" stop-opacity="0.1"/>
<stop offset="1" stop-color="white" stop-opacity="0"/>
</radialGradient>
</defs>
</svg>
