<svg viewBox="0 0 24 24" fill="none" xmlns="http://www.w3.org/2000/svg">
<circle cx="12" cy="12" r="10" fill="#3F51B5"/>
<mask id="mask0" mask-type="alpha" maskUnits="userSpaceOnUse" x="2" y="2" width="20" height="20">
<circle cx="12" cy="12" r="10" fill="#3F51B5"/>
</mask>
<g mask="url(#mask0)">
<path d="M13.5882 7.2353L15.7059 21.8824L8.47058 22.0588L10.7647 7.2353H13.5882Z" fill="white"/>
<path d="M9.22389 11.9545V10.4091H9.94778V7.31818H9.22389V6.54545L12.1194 5L15.015 6.54545V7.31818H14.2911V10.4091H15.015V11.9545H14.1029L9.5424 14.7673L9.94778 11.9545H9.22389ZM12.8433 10.4091V7.31818H11.3956V10.4091H12.8433ZM8.5 22L8.52896 21.8145L15.1236 17.75L15.5 20.3618L12.8433 22H8.5ZM9.26008 16.7223L14.5155 13.5L14.8919 16.1041L8.81127 19.8518L9.26008 16.7223Z" fill="#F4511E"/>
</g>
</svg>
