<svg xmlns="http://www.w3.org/2000/svg" viewBox="0 0 160 160">
	<path
		d="M113.8 80.3c.3-.9.6-1.9.6-2.9 0-7.2-4.4-11.3-10.4-13.6 1.3-2.6 1.5-5.5.1-8.6-6.2-13.7-34.9.4-30-16.2.7-2.5.7-3.6-1.2-3.2-10.4 2.1-17.8 12.8-15.2 21.6.7 2.2 1.6 4.1 2.7 5.9-6.6 2.3-11.7 6.4-11.7 14.2 0 1.1.3 2.1.6 3-4.7 1.3-8.2 4.3-8.2 12.7 0 16.9 23.1 22.1 40.2 22.1 19.9 0 40-4.7 40-21.6 0-8.8-2.7-12.3-7.5-13.4zm-45.3 4.8c-5.8-.3-7.1-2.8-7.1-5.8s.4-5.9 6.9-5.7c3.6.1 7.8 3.3 7.8 6.3 0 2.9-4 5.4-7.6 5.2zm11.8 21.6c-8.1 0-10.7-6.4-10.7-9 0-2.7-.1-5.5 1.7-6.7 1.6-1.1 6.8-.9 9.4-.9s7.5.2 8.8 1.5c1.3 1.3 1.5 3.1 1.7 5.9.2 2.8-2.8 9.2-10.9 9.2zm11.1-21.8c-4.5 0-6.7-2.3-6.7-6.8s2.2-4.9 6.7-4.9 8.8-.1 8.8 4.4-4.2 7.3-8.8 7.3z"
		fill="#6D4C41" />
	<path
		d="M80 9.9C41.3 9.9 9.9 41.3 9.9 80c0 38.7 31.4 70.1 70.1 70.1 38.7 0 70.1-31.4 70.1-70.1 0-38.7-31.4-70.1-70.1-70.1zM139.6 80c0 14.3-5 27.4-13.4 37.7L42.3 33.9C52.6 25.5 65.7 20.4 80 20.4c32.9 0 59.6 26.7 59.6 59.6zM20.4 80c0-14.7 5.3-28.2 14.2-38.6l84 84c-10.4 8.8-23.8 14.2-38.6 14.2-32.9 0-59.6-26.7-59.6-59.6z"
		fill="#DD2C00" />
</svg>