<?xml version="1.0" standalone="yes"?>
<svg xmlns="http://www.w3.org/2000/svg" width="300" height="300">
<path style="fill:#010101; stroke:none;" d="M0 0L0 300L300 300L300 0L0 0z"/>
<path style="fill:#01c2ee; stroke:none;" d="M24 5.42825C-3.24624 9.37534 4 44.9276 4 65L4 223C4 239.882 -1.81468 270.493 8.1088 284.96C13.3258 292.566 22.4197 293.958 31 293.999C45.6659 294.07 60.3339 294 75 294L212 294C233.588 294 258.899 297.615 280 292.876C303.327 287.636 296 249.503 296 232L296 72C296 55.888 301.836 25.1205 290.471 12.1852C284.557 5.45398 275.33 5.0032 267 5L223 5L91 5C69.2548 5 45.5156 2.31137 24 5.42825z"/>
<path style="fill:#ffffff; stroke:none;" d="M156 21L156 22C165.873 17.3303 171.612 12.886 183 15C174.262 9.03064 163.363 16.0371 156 21M184 15L185 16L184 15z"/>
<path style="fill:#c0e9fb; stroke:none;" d="M185 16L186 17L185 16z"/>
<path style="fill:#ffffff; stroke:none;" d="M186 16L187 17L186 16M187 17L188 18L187 17M188 18L190 20L190 18L188 18M190 20L191 21L190 20M191 21L192 22L191 21M154 22L155 23L154 22z"/>
<path style="fill:#c0e9fb; stroke:none;" d="M155 22L156 23L155 22z"/>
<path style="fill:#ffffff; stroke:none;" d="M192.333 22.6667L192.667 23.3333L192.333 22.6667M152.667 23.3333L153.333 23.6667L152.667 23.3333M151 24L152 25L151 24M193 24L194 25L193 24M149.667 25.3333L150.333 25.6667L149.667 25.3333M194.333 25.6667L194.667 26.3333L194.333 25.6667M148 26L149 27L148 26M146.667 27.3333L147.333 27.6667L146.667 27.3333M195 27L196 28L195 27M145 28L146 29L145 28M196.333 28.6667L196.667 29.3333L196.333 28.6667M143 29L144 30L143 29z"/>
<path style="fill:#c0e9fb; stroke:none;" d="M144 29L145 30L144 29z"/>
<path style="fill:#ffffff; stroke:none;" d="M141.667 30.3333L142.333 30.6667L141.667 30.3333M197 30L198 31L197 30M140 31L141 32L140 31z"/>
<path style="fill:#77d8fa; stroke:none;" d="M197 31L198 32L197 31z"/>
<path style="fill:#ffffff; stroke:none;" d="M138.667 32.3333L139.333 32.6667L138.667 32.3333M198 32L199 33L198 32M137 33L138 34L137 33M199.333 33.6667L199.667 34.3333L199.333 33.6667M135.667 34.3333L136.333 34.6667L135.667 34.3333M134 35L135 36L134 35M200 35L201 36L200 35M132 36L133 37L132 36z"/>
<path style="fill:#c0e9fb; stroke:none;" d="M133 36L134 37L133 36z"/>
<path style="fill:#ffffff; stroke:none;" d="M201.333 36.6667L201.667 37.3333L201.333 36.6667M131 37L132 38L131 37M129 38L130 39L129 38z"/>
<path style="fill:#77d8fa; stroke:none;" d="M130 38L131 39L130 38z"/>
<path style="fill:#ffffff; stroke:none;" d="M202 38L203 39L202 38M127.667 39.3333L128.333 39.6667L127.667 39.3333M203.333 39.6667L203.667 40.3333L203.333 39.6667M126 40L127 41L126 40M124.667 41.3333L125.333 41.6667L124.667 41.3333M204 41L205 42L204 41M123 42L124 43L123 42M121.667 43.3333L122.333 43.6667L121.667 43.3333M205 43L207 45L205 43M120 44L121 45L120 44M118 45L119 46L118 45z"/>
<path style="fill:#c0e9fb; stroke:none;" d="M119 45L120 46L119 45M206 45L207 46L206 45z"/>
<path style="fill:#ffffff; stroke:none;" d="M116.667 46.3333L117.333 46.6667L116.667 46.3333M207 46L208 47L207 46M115 47L116 48L115 47M208.333 47.6667L208.667 48.3333L208.333 47.6667M113.667 48.3333L114.333 48.6667L113.667 48.3333M112 49L113 50L112 49M209 49L210 50L209 49M110.667 50.3333L111.333 50.6667L110.667 50.3333M210.333 50.6667L210.667 51.3333L210.333 50.6667M107 53L110 52L107 53z"/>
<path style="fill:#c0e9fb; stroke:none;" d="M108 52L109 53L108 52z"/>
<path style="fill:#ffffff; stroke:none;" d="M211 52L212 53L211 52M105.667 53.3333L106.333 53.6667L105.667 53.3333M212.333 53.6667L212.667 54.3333L212.333 53.6667M104 54L105 55L104 54M102.667 55.3333L103.333 55.6667L102.667 55.3333M213 55L214 58L215 58L213 55M101 56L102 57L101 56z"/>
<path style="fill:#c0e9fb; stroke:none;" d="M213 56L214 57L213 56z"/>
<path style="fill:#ffffff; stroke:none;" d="M99.6667 57.3333L100.333 57.6667L99.6667 57.3333M98 58L99 59L98 58M215.333 58.6667L215.667 59.3333L215.333 58.6667M96.6667 59.3333L97.3333 59.6667L96.6667 59.3333M95 60L96 61L95 60M216 60L217 61L216 60M93 61L84 67L84 68L94 62L93 61M217.333 61.6667L217.667 62.3333L217.333 61.6667M218 63L219 64L218 63M219.333 64.6667L219.667 65.3333L219.333 64.6667M220 66L221 67L220 66z"/>
<path style="fill:#77d8fa; stroke:none;" d="M220 67L221 68L220 67z"/>
<path style="fill:#ffffff; stroke:none;" d="M82 68L83 69L82 68z"/>
<path style="fill:#77d8fa; stroke:none;" d="M83 68L84 69L83 68z"/>
<path style="fill:#ffffff; stroke:none;" d="M221 68L222 69L221 68M80.6667 69.3333L81.3333 69.6667L80.6667 69.3333M222.333 69.6667L222.667 70.3333L222.333 69.6667M79 70L80 71L79 70M77.6667 71.3333L78.3333 71.6667L77.6667 71.3333M223 71L224 72L223 71M76 72L77 73L76 72M224.333 72.6667L224.667 73.3333L224.333 72.6667M74.6667 73.3333L75.3333 73.6667L74.6667 73.3333M71 76L74 75L71 76M225 74L226 75L225 74z"/>
<path style="fill:#c0e9fb; stroke:none;" d="M72 75L73 76L72 75z"/>
<path style="fill:#ffffff; stroke:none;" d="M226.333 75.6667L226.667 76.3333L226.333 75.6667M69.6667 76.3333L70.3333 76.6667L69.6667 76.3333M68 77L69 78L68 77M227 77L228 78L227 77M66.6667 78.3333L67.3333 78.6667L66.6667 78.3333M65 79L66 80L65 79M228 79L243 103L244 103L228 79M63.6667 80.3333L64.3333 80.6667L63.6667 80.3333M62 81L63 82L62 81M60.6667 82.3333L61.3333 82.6667L60.6667 82.3333M59 83L60 84L59 83M57 84L48 90L48 91L58 85L57 84M46 91L47 92L46 91z"/>
<path style="fill:#77d8fa; stroke:none;" d="M47 91L48 92L47 91z"/>
<path style="fill:#ffffff; stroke:none;" d="M44.6667 92.3333L45.3333 92.6667L44.6667 92.3333z"/>
<path style="fill:#c0e9fb; stroke:none;" d="M236 92L237 93L236 92z"/>
<path style="fill:#ffffff; stroke:none;" d="M43 93L44 94L43 93M41.6667 94.3333L42.3333 94.6667L41.6667 94.3333M40 95L41 96L40 95M38.6667 96.3333L39.3333 96.6667L38.6667 96.3333M35 99L38 98L35 99z"/>
<path style="fill:#77d8fa; stroke:none;" d="M36 98L37 99L36 98z"/>
<path style="fill:#ffffff; stroke:none;" d="M33.6667 99.3333L34.3333 99.6667L33.6667 99.3333M32 100L33 101L32 100M30.6667 101.333L31.3333 101.667L30.6667 101.333M29 102L30 103L29 102M27.6667 103.333L28.3333 103.667L27.6667 103.333z"/>
<path style="fill:#77d8fa; stroke:none;" d="M243 103L244 104L243 103z"/>
<path style="fill:#ffffff; stroke:none;" d="M26 104L27 105L26 104M244 104L245 105L244 104M24 105L25 106L24 105z"/>
<path style="fill:#c0e9fb; stroke:none;" d="M25 105L26 106L25 105z"/>
<path style="fill:#ffffff; stroke:none;" d="M245.333 105.667L245.667 106.333L245.333 105.667M23 106L24 107L23 106M20 109L23 108L20 109M246 107L247 108L246 107z"/>
<path style="fill:#77d8fa; stroke:none;" d="M21 108L22 109L21 108z"/>
<path style="fill:#ffffff; stroke:none;" d="M247.333 108.667L247.667 109.333L247.333 108.667M19 109L18 112L19 109M248 110L249 111L248 110M249.333 111.667L249.667 112.333L249.333 111.667M17.3333 112.667L17.6667 113.333L17.3333 112.667M250 113L251 114L250 113M16.3333 114.667L16.6667 115.333L16.3333 114.667z"/>
<path style="fill:#77d8fa; stroke:none;" d="M250 114L251 115L250 114z"/>
<path style="fill:#ffffff; stroke:none;" d="M251 115L252 116L251 115M15 116L15 119L16 119L15 116M252 116L253 117L252 116z"/>
<path style="fill:#c0e9fb; stroke:none;" d="M252 117L253 118L252 117z"/>
<path style="fill:#ffffff; stroke:none;" d="M253 118L254 119L253 118M254.333 119.667L254.667 120.333L254.333 119.667M14 120L14 126L15 126L14 120M255 121L256 122L255 121M256.333 122.667L256.667 123.333L256.333 122.667M257 124L258 125L257 124M258.333 125.667L258.667 126.333L258.333 125.667M15 127L15 130L16 130L15 127M259 127L260 128L259 127z"/>
<path style="fill:#c0e9fb; stroke:none;" d="M259 128L260 129L259 128z"/>
<path style="fill:#ffffff; stroke:none;" d="M260 129L261 130L260 129z"/>
<path style="fill:#c0e9fb; stroke:none;" d="M16 130L17 131L16 130z"/>
<path style="fill:#ffffff; stroke:none;" d="M261.333 130.667L261.667 131.333L261.333 130.667M16 131L17 132L16 131z"/>
<path style="fill:#c0e9fb; stroke:none;" d="M17 132L18 133L17 132z"/>
<path style="fill:#ffffff; stroke:none;" d="M262 132L263 133L262 132M17 133L18 134L17 133M263.333 133.667L263.667 134.333L263.333 133.667M18.3333 134.667L18.6667 135.333L18.3333 134.667M53 135L53 165L57 165L57 135L53 135M61.8063 136.067C59.9734 137.611 62.3526 140.484 64.1937 138.933C66.0266 137.389 63.6474 134.516 61.8063 136.067M96 135L96 143L92 143L92 146L96 146C96 153.391 93.1228 165.247 103 166L103 162L100 162L100 146L104 146L104 143L100 143L100 135L96 135M138 135L138 143L134 143L134 146L138 146C138 153.391 135.123 165.247 145 166L145 162L142 162L142 146L146 146L146 143L142 143L142 135L138 135M248 135L248 145C245.767 143.83 243.566 142.657 240.998 142.421C220.538 140.547 230.118 176.422 247 163L248 163L252 165L252 135L248 135M264 135L265 136L264 135M19 136L20 137L19 136M265.333 136.667L265.667 137.333L265.333 136.667M20.3333 137.667L20.6667 138.333L20.3333 137.667M266 138L267 139L266 138M21 139L22 140L21 139z"/>
<path style="fill:#c0e9fb; stroke:none;" d="M266 139L267 140L266 139z"/>
<path style="fill:#77d8fa; stroke:none;" d="M22 140L23 141L22 140z"/>
<path style="fill:#ffffff; stroke:none;" d="M267 140L268 141L267 140M22 141L23 142L22 141M268.333 141.667L268.667 142.333L268.333 141.667M23.3333 142.667L23.6667 143.333L23.3333 142.667M73 146L70 143L70 165L73 165C73 161.221 74.9054 138.496 83.3966 148.323C86.5986 152.028 85 160.419 85 165L89 165C89 154.775 88.2778 134.365 73 146M120 160L119 161C121.573 165.903 129.761 167.875 131.547 160.895C132.981 155.293 117.666 144.256 131 148L132 147C129.576 142.5 121.855 140.325 120.337 147.054C119.128 152.414 134.045 163.933 120 160M167 163L168 163L172 165L172 143L168 145C165.767 143.83 163.566 142.657 160.998 142.421C140.538 140.547 150.118 176.422 167 163z"/>
<path style="fill:#c0e9fb; stroke:none;" d="M185 142L186 143L185 142z"/>
<path style="fill:#ffffff; stroke:none;" d="M195 162C191.778 173.202 183.323 166.104 176 165C179.314 173.157 191.563 176.293 196.91 167.892C201.034 161.415 199 150.351 199 143L195 145C171.605 132.753 171.371 174.37 195 162M225 158L221 157C216.18 163.08 209.656 162.623 207 155L225 155C224.646 143.073 207.64 136.43 203.514 150.004C199.003 164.842 218.103 170.975 225 158M61 143L61 165L65 165L65 143L61 143M269 143L270 144L269 143M24 144L25 145L24 144z"/>
<path style="fill:#77d8fa; stroke:none;" d="M180 144L181 145L180 144z"/>
<path style="fill:#ffffff; stroke:none;" d="M270.333 144.667L270.667 145.333L270.333 144.667M25.3333 145.667L25.6667 146.333L25.3333 145.667z"/>
<path style="fill:#01c2ee; stroke:none;" d="M157.055 147.029C148.14 151.784 154.834 165.907 163.941 160.971C172.305 156.439 165.856 142.334 157.055 147.029M184.059 147.029C175.137 151.847 183.013 165.162 191.772 159.682C199.292 154.977 191.943 142.77 184.059 147.029M207 151L221 151C217.652 144.62 210.508 144.991 207 151M237.055 147.032C228.09 151.745 234.96 165.827 243.941 160.971C252.248 156.481 245.67 142.502 237.055 147.032z"/>
<path style="fill:#ffffff; stroke:none;" d="M271 146L272 147L271 146M26 147L27 148L26 147z"/>
<path style="fill:#c0e9fb; stroke:none;" d="M150 147L151 148L150 147z"/>
<path style="fill:#ffffff; stroke:none;" d="M272.333 147.667L272.667 148.333L272.333 147.667M27.3333 148.667L27.6667 149.333L27.3333 148.667z"/>
<path style="fill:#77d8fa; stroke:none;" d="M154 148L155 149L154 148z"/>
<path style="fill:#c0e9fb; stroke:none;" d="M234 148L235 149L234 148z"/>
<path style="fill:#77d8fa; stroke:none;" d="M74 149L75 150L74 149z"/>
<path style="fill:#ffffff; stroke:none;" d="M273 149L274 150L273 149M28 150L30 153L28 150z"/>
<path style="fill:#77d8fa; stroke:none;" d="M273 150L274 151L273 150M29 151L30 152L29 151z"/>
<path style="fill:#c0e9fb; stroke:none;" d="M207 151L207 152L221 152L207 151z"/>
<path style="fill:#ffffff; stroke:none;" d="M274 151L275 152L274 151M105 152L105 155L116 155L116 152L105 152M275 152L276 153L275 152M30.3333 153.667L30.6667 154.333L30.3333 153.667z"/>
<path style="fill:#77d8fa; stroke:none;" d="M179 153L180 154L179 153z"/>
<path style="fill:#c0e9fb; stroke:none;" d="M275 153L276 154L275 153z"/>
<path style="fill:#ffffff; stroke:none;" d="M276 154L277 155L276 154M31 155L32 156L31 155M277.333 155.667L277.667 156.333L277.333 155.667M32.3333 156.667L32.6667 157.333L32.3333 156.667M278 157L279 158L278 157M33 158L34 159L33 158M279.333 158.667L279.667 159.333L279.333 158.667M34.3333 159.667L34.6667 160.333L34.3333 159.667z"/>
<path style="fill:#77d8fa; stroke:none;" d="M192 159L193 160L192 159M224 159L225 160L224 159z"/>
<path style="fill:#c0e9fb; stroke:none;" d="M235 160L236 161L235 160z"/>
<path style="fill:#ffffff; stroke:none;" d="M280 160L281 161L280 160M35 161L36 162L35 161M281.333 161.667L281.667 162.333L281.333 161.667z"/>
<path style="fill:#c0e9fb; stroke:none;" d="M36 162L37 163L36 162z"/>
<path style="fill:#ffffff; stroke:none;" d="M36 163L37 164L36 163M282 163L283 164L282 163M37 164L38 165L37 164z"/>
<path style="fill:#c0e9fb; stroke:none;" d="M198 164L199 165L198 164z"/>
<path style="fill:#77d8fa; stroke:none;" d="M219 164L220 165L219 164z"/>
<path style="fill:#c0e9fb; stroke:none;" d="M282 164L283 165L282 164z"/>
<path style="fill:#77d8fa; stroke:none;" d="M157 165L158 166L157 165M194 165L195 166L194 165M237 165L238 166L237 165z"/>
<path style="fill:#ffffff; stroke:none;" d="M283 165L284 166L283 165M38 166L44 176L45 176L38 166M284.333 166.667L284.667 167.333L284.333 166.667z"/>
<path style="fill:#77d8fa; stroke:none;" d="M177 168L178 169L177 168z"/>
<path style="fill:#010101; stroke:none;" d="M285.333 168.667L285.667 169.333L285.333 168.667M286 171L286 182L287 182L286 171z"/>
<path style="fill:#77d8fa; stroke:none;" d="M45 176L46 177L45 176z"/>
<path style="fill:#ffffff; stroke:none;" d="M45 177L46 178L45 177M46.3333 178.667L46.6667 179.333L46.3333 178.667M47 180L48 181L47 180M48.3333 181.667L48.6667 182.333L48.3333 181.667M49 183L50 184L49 183z"/>
<path style="fill:#010101; stroke:none;" d="M285.333 183.667L285.667 184.333L285.333 183.667z"/>
<path style="fill:#ffffff; stroke:none;" d="M50.3333 184.667L50.6667 185.333L50.3333 184.667M284.333 185.667L284.667 186.333L284.333 185.667M51 186L53 189L51 186z"/>
<path style="fill:#77d8fa; stroke:none;" d="M52 187L53 188L52 187z"/>
<path style="fill:#ffffff; stroke:none;" d="M283 187L284 188L283 187M282.333 188.667L282.667 189.333L282.333 188.667M53.3333 189.667L53.6667 190.333L53.3333 189.667M281 190L282 191L281 190M54 191L55 192L54 191M280 191L281 192L280 191M55.3333 192.667L55.6667 193.333L55.3333 192.667M278.667 192.333L279.333 192.667L278.667 192.333M277 193L278 194L277 193M56 194L57 195L56 194M275.667 194.333L276.333 194.667L275.667 194.333M57.3333 195.667L57.6667 196.333L57.3333 195.667M274 195L275 196L274 195M272.667 196.333L273.333 196.667L272.667 196.333M58 197L59 198L58 197M271 197L272 198L271 197z"/>
<path style="fill:#c0e9fb; stroke:none;" d="M59 198L60 199L59 198z"/>
<path style="fill:#ffffff; stroke:none;" d="M269.667 198.333L270.333 198.667L269.667 198.333M59 199L60 200L59 199M268 199L269 200L268 199M60.3333 200.667L60.6667 201.333L60.3333 200.667M266 200L265 202L266 200z"/>
<path style="fill:#c0e9fb; stroke:none;" d="M264 201L265 202L264 201z"/>
<path style="fill:#ffffff; stroke:none;" d="M61 202L62 203L61 202M263 202L264 203L263 202M62.3333 203.667L62.6667 204.333L62.3333 203.667M261.667 203.333L262.333 203.667L261.667 203.333M260 204L261 205L260 204M63 205L64 206L63 205M258.667 205.333L259.333 205.667L258.667 205.333M64.3333 206.667L64.6667 207.333L64.3333 206.667M257 206L258 207L257 206M255.667 207.333L256.333 207.667L255.667 207.333M65 208L66 209L65 208z"/>
<path style="fill:#77d8fa; stroke:none;" d="M253 208L254 209L253 208z"/>
<path style="fill:#ffffff; stroke:none;" d="M254 208L255 209L254 208z"/>
<path style="fill:#c0e9fb; stroke:none;" d="M66 209L67 210L66 209z"/>
<path style="fill:#ffffff; stroke:none;" d="M252.667 209.333L253.333 209.667L252.667 209.333M66 210L67 211L66 210M250.667 210.333L251.333 210.667L250.667 210.333M67 211L68 212L67 211M249 211L250 212L249 211z"/>
<path style="fill:#77d8fa; stroke:none;" d="M68 212L69 213L68 212z"/>
<path style="fill:#ffffff; stroke:none;" d="M247.667 212.333L248.333 212.667L247.667 212.333M68 213L69 214L68 213M246 213L247 214L246 213M69.3333 214.667L69.6667 215.333L69.3333 214.667M244.667 214.333L245.333 214.667L244.667 214.333z"/>
<path style="fill:#77d8fa; stroke:none;" d="M242 215L243 216L242 215z"/>
<path style="fill:#ffffff; stroke:none;" d="M243 215L244 216L243 215M70 216L71 217L70 216M241 216L242 217L241 216M71.3333 217.667L71.6667 218.333L71.3333 217.667M239.667 217.333L240.333 217.667L239.667 217.333M238 218L239 219L238 218M72 219L73 220L72 219M236.667 219.333L237.333 219.667L236.667 219.333M73.3333 220.667L73.6667 221.333L73.3333 220.667M235 220L236 221L235 220M233.667 221.333L234.333 221.667L233.667 221.333M74 222L75 223L74 222M232 222L233 223L232 222z"/>
<path style="fill:#c0e9fb; stroke:none;" d="M75 223L76 224L75 223z"/>
<path style="fill:#ffffff; stroke:none;" d="M230 223L207 238L207 239L231 224L230 223M75 224L76 225L75 224M76.3333 225.667L76.6667 226.333L76.3333 225.667M77 227L78 228L77 227M78.3333 228.667L78.6667 229.333L78.3333 228.667M79 230L80 231L79 230M80.3333 231.667L80.6667 232.333L80.3333 231.667z"/>
<path style="fill:#c0e9fb; stroke:none;" d="M217 231L218 232L217 231z"/>
<path style="fill:#ffffff; stroke:none;" d="M81 233L82 234L81 233z"/>
<path style="fill:#c0e9fb; stroke:none;" d="M82 234L83 235L82 234z"/>
<path style="fill:#ffffff; stroke:none;" d="M82 235L83 236L82 235M83.3333 236.667L83.6667 237.333L83.3333 236.667M84 238L85 239L84 238z"/>
<path style="fill:#77d8fa; stroke:none;" d="M206 238L207 239L206 238z"/>
<path style="fill:#ffffff; stroke:none;" d="M85.3333 239.667L85.6667 240.333L85.3333 239.667M205 239L206 240L205 239M203.667 240.333L204.333 240.667L203.667 240.333M86 241L87 242L86 241M202 241L203 242L202 241M87.3333 242.667L87.6667 243.333L87.3333 242.667M200.667 242.333L201.333 242.667L200.667 242.333M199 243L200 244L199 243M88 244L89 245L88 244M197.667 244.333L198.333 244.667L197.667 244.333z"/>
<path style="fill:#c0e9fb; stroke:none;" d="M89 245L90 246L89 245z"/>
<path style="fill:#77d8fa; stroke:none;" d="M195 245L196 246L195 245z"/>
<path style="fill:#ffffff; stroke:none;" d="M196 245L197 246L196 245M89 246L90 247L89 246M194 246L195 247L194 246M90 247L91 248L90 247M192.667 247.333L193.333 247.667L192.667 247.333z"/>
<path style="fill:#77d8fa; stroke:none;" d="M91 248L92 249L91 248z"/>
<path style="fill:#ffffff; stroke:none;" d="M191 248L192 249L191 248M91 249L92 250L91 249M189.667 249.333L190.333 249.667L189.667 249.333M92.3333 250.667L92.6667 251.333L92.3333 250.667M188 250L189 251L188 250M186.667 251.333L187.333 251.667L186.667 251.333M93 252L94 253L93 252M185 252L186 253L185 252M94.3333 253.667L94.6667 254.333L94.3333 253.667M183.667 253.333L184.333 253.667L183.667 253.333z"/>
<path style="fill:#c0e9fb; stroke:none;" d="M181 254L182 255L181 254z"/>
<path style="fill:#ffffff; stroke:none;" d="M182 254L183 255L182 254M95 255L96 256L95 255M180.667 255.333L181.333 255.667L180.667 255.333M96.3333 256.667L96.6667 257.333L96.3333 256.667M178.667 256.333L179.333 256.667L178.667 256.333M177 257L178 258L177 257M97 258L98 259L97 258M175.667 258.333L176.333 258.667L175.667 258.333z"/>
<path style="fill:#c0e9fb; stroke:none;" d="M98 259L99 260L98 259z"/>
<path style="fill:#ffffff; stroke:none;" d="M174 259L175 260L174 259M98 260L99 261L98 260M172.667 260.333L173.333 260.667L172.667 260.333M99.3333 261.667L99.6667 262.333L99.3333 261.667z"/>
<path style="fill:#c0e9fb; stroke:none;" d="M170 261L171 262L170 261z"/>
<path style="fill:#ffffff; stroke:none;" d="M171 261L172 262L171 261M169 262L170 263L169 262M100 263L101 264L100 263M167.667 263.333L168.333 263.667L167.667 263.333M101.333 264.667L101.667 265.333L101.333 264.667M166 264L167 265L166 264M164.667 265.333L165.333 265.667L164.667 265.333M102 266L103 267L102 266M163 266L164 267L163 266M103.333 267.667L103.667 268.333L103.333 267.667M161.667 267.333L162.333 267.667L161.667 267.333z"/>
<path style="fill:#77d8fa; stroke:none;" d="M159 268L160 269L159 268z"/>
<path style="fill:#ffffff; stroke:none;" d="M160 268L161 269L160 268M104 269L106 272L104 269M158 269L159 270L158 269z"/>
<path style="fill:#c0e9fb; stroke:none;" d="M105 270L106 271L105 270M156 270L157 271L156 270z"/>
<path style="fill:#ffffff; stroke:none;" d="M157 270L158 271L157 270M155 271L156 272L155 271M106.333 272.667L106.667 273.333L106.333 272.667M153.667 272.333L154.333 272.667L153.667 272.333M152 273L153 274L152 273M107 274L108 275L107 274M150.667 274.333L151.333 274.667L150.667 274.333M108.333 275.667L108.667 276.333L108.333 275.667M149 275L150 276L149 275M147.667 276.333L148.333 276.667L147.667 276.333M109 277L110 278L109 277z"/>
<path style="fill:#c0e9fb; stroke:none;" d="M145 277L146 278L145 277z"/>
<path style="fill:#ffffff; stroke:none;" d="M146 277L147 278L146 277M110 278L111 279L110 278M144 278L145 279L144 278M111 279L111 281L113 281L111 279M142.667 279.333L143.333 279.667L142.667 279.333M141 280L142 281L141 280M113 281L114 282L113 281M139.667 281.333L140.333 281.667L139.667 281.333M114 282L115 283L114 282M138 282L139 283L138 282z"/>
<path style="fill:#010101; stroke:none;" d="M115.667 283.333L116.333 283.667L115.667 283.333M136.667 283.333L137.333 283.667L136.667 283.333M117.667 284.333L118.333 284.667L117.667 284.333M134.667 284.333L135.333 284.667L134.667 284.333M119 285L119 286L122 286L119 285M131 285L131 286L134 286L131 285M123 286L123 287L130 287L123 286z"/>
</svg>
