<svg viewBox="0 0 16 16" xmlns="http://www.w3.org/2000/svg"><path d="M10.97 6.333a.526.526 0 00-.53.521V9.25h-.213c-.7 0-1.272.563-1.272 1.25H8.53c0-.85.65-1.55 1.485-1.654V4.354a.526.526 0 00-.53-.52.526.526 0 00-.53.52v3.23H8.53V3.52A.526.526 0 008 3a.526.526 0 00-.53.52v4.063h-.425V4.146a.526.526 0 00-.53-.521.526.526 0 00-.53.52V8H5.56V5.396a.526.526 0 00-.53-.521.526.526 0 00-.531.52v4.168C4.5 11.463 6.065 13 8 13s3.5-1.537 3.5-3.437V6.854a.526.526 0 00-.53-.52z" fill="#ffb300"/><path d="M8.001 15q-1.439 0-2.715-.547-1.277-.546-2.234-1.504-.958-.957-1.505-2.233Q1 9.44 1 8.001q0-1.458.547-2.725.546-1.267 1.504-2.224.957-.958 2.233-1.505Q6.56 1 7.999 1q1.458 0 2.725.547 1.267.546 2.224 1.504.958.957 1.505 2.223Q15 6.54 15 8q0 1.439-.547 2.715-.546 1.277-1.504 2.234-.957.958-2.223 1.505Q9.46 15 8 15zM8 14q1.102 0 2.085-.376.983-.376 1.774-1.05L3.426 4.141q-.667.79-1.047 1.774Q2 6.898 2 8q0 2.5 1.75 4.25T8 14zm4.574-2.14q.674-.792 1.05-1.775Q14 9.102 14 8q0-2.5-1.75-4.25T8 2q-1.104 0-2.09.372-.985.372-1.77 1.054z" fill="#dd2c00"/></svg>