<?xml version="1.0" encoding="UTF-8" standalone="no"?>
<svg
   xmlns:osb="http://www.openswatchbook.org/uri/2009/osb"
   xmlns:dc="http://purl.org/dc/elements/1.1/"
   xmlns:cc="http://creativecommons.org/ns#"
   xmlns:rdf="http://www.w3.org/1999/02/22-rdf-syntax-ns#"
   xmlns:svg="http://www.w3.org/2000/svg"
   xmlns="http://www.w3.org/2000/svg"
   xmlns:xlink="http://www.w3.org/1999/xlink"
   xmlns:sodipodi="http://sodipodi.sourceforge.net/DTD/sodipodi-0.dtd"
   xmlns:inkscape="http://www.inkscape.org/namespaces/inkscape"
   version="1.1"
   viewBox="0 0 256 256"
   id="svg7941"
   sodipodi:docname="lisp.svg"
   inkscape:version="0.92.4 5da689c313, 2019-01-14">
  <metadata
     id="metadata7947">
    <rdf:RDF>
      <cc:Work
         rdf:about="">
        <dc:format>image/svg+xml</dc:format>
        <dc:type
           rdf:resource="http://purl.org/dc/dcmitype/StillImage" />
        <dc:title></dc:title>
      </cc:Work>
    </rdf:RDF>
  </metadata>
  <defs
     id="defs7945">
    <linearGradient
       id="linearGradient1148"
       osb:paint="solid">
      <stop
         style="stop-color:#c40804;stop-opacity:1;"
         offset="0"
         id="stop1146" />
    </linearGradient>
    <linearGradient
       id="linearGradient1142"
       osb:paint="solid">
      <stop
         style="stop-color:#c40804;stop-opacity:1;"
         offset="0"
         id="stop1140" />
    </linearGradient>
    <linearGradient
       id="linearGradient1136"
       osb:paint="solid">
      <stop
         style="stop-color:#c40804;stop-opacity:1;"
         offset="0"
         id="stop1134" />
    </linearGradient>
    <linearGradient
       id="linearGradient1130"
       osb:paint="solid">
      <stop
         style="stop-color:#c62828;stop-opacity:1;"
         offset="0"
         id="stop1128" />
    </linearGradient>
    <linearGradient
       id="linearGradient1124"
       osb:paint="solid">
      <stop
         style="stop-color:#c40804;stop-opacity:1;"
         offset="0"
         id="stop1122" />
    </linearGradient>
    <inkscape:path-effect
       effect="mirror_symmetry"
       start_point="0,128"
       end_point="256,128"
       center_point="128,128"
       id="path-effect8178"
       is_visible="true"
       mode="horizontal"
       discard_orig_path="true"
       fuse_paths="false"
       oposite_fuse="false" />
    <inkscape:path-effect
       effect="mirror_symmetry"
       start_point="128,0"
       end_point="128,256"
       center_point="128,128"
       id="path-effect8171"
       is_visible="true"
       mode="vertical"
       discard_orig_path="false"
       fuse_paths="false"
       oposite_fuse="false" />
    <inkscape:path-effect
       effect="mirror_symmetry"
       start_point="128,0"
       end_point="128,256"
       center_point="128,128"
       id="path-effect8169"
       is_visible="true"
       mode="vertical"
       discard_orig_path="false"
       fuse_paths="false"
       oposite_fuse="false" />
    <linearGradient
       inkscape:collect="always"
       xlink:href="#linearGradient1130"
       id="linearGradient1126"
       x1="11.641533"
       y1="135.47656"
       x2="190.9127"
       y2="135.47656"
       gradientUnits="userSpaceOnUse" />
    <linearGradient
       inkscape:collect="always"
       xlink:href="#linearGradient1130"
       id="linearGradient1132"
       x1="11.641533"
       y1="135.47656"
       x2="190.9127"
       y2="135.47656"
       gradientUnits="userSpaceOnUse" />
    <linearGradient
       inkscape:collect="always"
       xlink:href="#linearGradient1130"
       id="linearGradient1138"
       x1="133.76379"
       y1="117.8026"
       x2="218.78813"
       y2="117.8026"
       gradientUnits="userSpaceOnUse" />
    <linearGradient
       inkscape:collect="always"
       xlink:href="#linearGradient1130"
       id="linearGradient1144"
       x1="133.76379"
       y1="117.8026"
       x2="218.78813"
       y2="117.8026"
       gradientUnits="userSpaceOnUse" />
    <linearGradient
       inkscape:collect="always"
       xlink:href="#linearGradient1130"
       id="linearGradient1150"
       x1="11.641532"
       y1="128"
       x2="244.35847"
       y2="128"
       gradientUnits="userSpaceOnUse" />
  </defs>
  <sodipodi:namedview
     pagecolor="#ffffff"
     bordercolor="#666666"
     borderopacity="1"
     objecttolerance="10"
     gridtolerance="10"
     guidetolerance="10"
     inkscape:pageopacity="0"
     inkscape:pageshadow="2"
     inkscape:window-width="1366"
     inkscape:window-height="734"
     id="namedview7943"
     showgrid="false"
     inkscape:zoom="2.0000001"
     inkscape:cx="89.520958"
     inkscape:cy="142.41606"
     inkscape:window-x="0"
     inkscape:window-y="18"
     inkscape:window-maximized="1"
     inkscape:current-layer="layer2"
     inkscape:snap-intersection-paths="true"
     inkscape:object-paths="true"
     inkscape:object-nodes="true"
     inkscape:snap-nodes="true"
     inkscape:snap-smooth-nodes="false"
     inkscape:snap-global="false" />
  <g
     inkscape:groupmode="layer"
     id="layer2"
     inkscape:label="Lisp">
    <path
       style="opacity:1;fill:url(#linearGradient1126);fill-opacity:1.0;stroke:url(#linearGradient1132);stroke-width:2.26771665;stroke-miterlimit:4;stroke-dasharray:none;stroke-opacity:1"
       d="M 83.023438 27.728516 C 81.615854 27.728851 80.208722 27.779016 78.804688 27.878906 C 76.820631 28.019632 74.844855 28.259515 72.884766 28.597656 C 71.294222 28.886919 69.825471 29.031743 68.263672 29.449219 C 34.997615 49.656647 12.775391 86.233361 12.775391 128 C 12.77539 191.63679 64.363206 243.22461 128 243.22461 C 150.95199 243.22461 172.33667 236.51371 190.29883 224.94727 C 188.73703 225.36474 182.14914 227.03105 180.55859 227.32031 C 178.5985 227.65845 176.62273 227.89834 174.63867 228.03906 C 173.23464 228.13895 171.82751 228.18912 170.41992 228.18945 C 168.43115 228.18919 166.44365 228.08945 164.46484 227.89062 C 162.48638 227.69219 160.51908 227.39494 158.57031 227 C 156.62115 226.60509 154.69296 226.11294 152.79297 225.52539 C 150.89352 224.93751 149.02465 224.25502 147.19336 223.48047 C 145.36152 222.70594 143.56957 221.84028 141.82422 220.88672 C 140.07935 219.93366 138.38322 218.89394 136.74219 217.77148 C 135.10097 216.64823 133.51696 215.44361 131.99609 214.16211 C 130.47481 212.88089 129.01856 211.52438 127.63281 210.09766 C 126.24713 208.67136 124.93364 207.17665 123.69727 205.61914 C 122.46156 204.0614 121.30451 202.44284 120.23047 200.76953 C 119.15594 199.09611 118.16576 197.37 117.26367 195.59766 C 116.36163 193.82559 115.54877 192.00952 114.82812 190.15625 C 114.10724 188.30272 113.4795 186.41429 112.94727 184.49805 C 112.41564 182.58156 111.9802 180.63968 111.64258 178.67969 C 111.3045 176.72025 111.06462 174.74512 110.92383 172.76172 C 110.82394 171.35768 110.77378 169.95055 110.77344 168.54297 C 110.77371 166.5542 110.87344 164.56669 111.07227 162.58789 C 111.27071 160.60943 111.56795 158.64213 111.96289 156.69336 C 112.3578 154.7442 112.84995 152.81601 113.4375 150.91602 C 114.02532 149.0159 114.70781 147.14638 115.48242 145.31445 C 116.25701 143.48328 117.12267 141.69198 118.07617 139.94727 C 119.02918 138.20173 120.06889 136.50495 121.19141 134.86328 C 122.31466 133.22207 123.51928 131.63806 124.80078 130.11719 C 125.43566 129.36371 126.08797 128.62612 126.7207 127.95898 C 127.35343 127.29184 128.0077 126.55426 128.64258 125.80078 C 129.92408 124.27991 131.1287 122.6959 132.25195 121.05469 C 133.37447 119.41302 134.41418 117.71624 135.36719 115.9707 C 136.32069 114.22599 137.18635 112.43469 137.96094 110.60352 C 138.73555 108.77159 139.41804 106.90207 140.00586 105.00195 C 140.59341 103.10196 141.08556 101.17377 141.48047 99.224609 C 141.87541 97.275839 142.17265 95.308538 142.37109 93.330078 C 142.56992 91.351275 142.66965 89.363767 142.66992 87.375 C 142.66958 85.967416 142.61943 84.560285 142.51953 83.15625 C 142.37874 81.172846 142.13886 79.197724 141.80078 77.238281 C 141.46316 75.278289 141.02772 73.33641 140.49609 71.419922 C 139.96386 69.503677 139.33612 67.61525 138.61523 65.761719 C 137.89459 63.908453 137.08173 62.092383 136.17969 60.320312 C 135.2776 58.547974 134.28742 56.821858 133.21289 55.148438 C 132.13885 53.475126 130.9818 51.85657 129.74609 50.298828 C 128.50972 48.741318 127.19623 47.246612 125.81055 45.820312 C 124.4248 44.393594 122.96855 43.037081 121.44727 41.755859 C 119.9264 40.474361 118.34239 39.269732 116.70117 38.146484 C 115.06014 37.024022 113.36401 35.984312 111.61914 35.03125 C 109.87379 34.077693 108.08184 33.212028 106.25 32.4375 C 104.41871 31.662952 102.54984 30.980459 100.65039 30.392578 C 98.750398 29.805033 96.822207 29.312882 94.873047 28.917969 C 92.924277 28.523028 90.956977 28.225782 88.978516 28.027344 C 86.999713 27.828517 85.012204 27.728783 83.023438 27.728516 z M 37.857422 77.605469 L 55.535156 77.605469 C 58.277796 89.526569 70.407314 124.97138 75.490234 134.20508 C 79.917614 120.72923 94.994963 88.237199 101.85156 77.605469 L 121.29688 77.605469 C 111.79009 91.708149 88.001968 140.73254 90.330078 160.08984 C 92.088958 174.71421 100.20617 185.59668 109.83789 198.78906 C 103.4277 198.78906 90.287109 198.22656 90.287109 198.22656 C 57.936969 144.48645 44.574932 103.59164 37.857422 77.605469 z "
       id="path8055-3-5" />
    <circle
       r="115.22461"
       cy="128"
       cx="128"
       id="circle8163"
       style="opacity:1;fill:none;fill-opacity:1;stroke:url(#linearGradient1150);stroke-width:8.068;stroke-miterlimit:4;stroke-dasharray:none;stroke-opacity:1" />
    <path
       style="fill:url(#linearGradient1138);stroke:url(#linearGradient1144);stroke-width:1.00000002;stroke-linecap:butt;stroke-linejoin:miter;stroke-miterlimit:4;stroke-dasharray:none;stroke-opacity:1;fill-opacity:1"
       d="m 165.71299,57.772665 c 32.35014,53.740115 45.71194,94.636195 52.42945,120.622365 h -17.67767 c -2.74264,-11.9211 -14.87232,-47.36701 -19.95524,-56.60071 -4.42738,13.47585 -19.50365,45.96898 -26.36025,56.60071 h -19.44544 c 9.50678,-14.10268 33.29436,-63.12787 30.96625,-82.485174 -1.75888,-14.624368 -9.87621,-25.507303 -19.50793,-38.699691 6.41019,0 19.55083,0.5625 19.55083,0.5625 z"
       id="path8176" />
  </g>
</svg>
