<?xml version="1.0" encoding="UTF-8" standalone="no"?>
<svg
   clip-rule="evenodd"
   fill-rule="evenodd"
   stroke-linejoin="round"
   stroke-miterlimit="1.414"
   viewBox="0 0 500 500"
   version="1.1"
   id="svg1"
   sodipodi:docname="lottie.svg"
   inkscape:version="1.3 (0e150ed, 2023-07-21)"
   xmlns:inkscape="http://www.inkscape.org/namespaces/inkscape"
   xmlns:sodipodi="http://sodipodi.sourceforge.net/DTD/sodipodi-0.dtd"
   xmlns="http://www.w3.org/2000/svg"
   xmlns:svg="http://www.w3.org/2000/svg">
  <defs
     id="defs1">
    <clipPath
       id="a">
      <path
         fill="#ffffff"
         d="M 0,0 H 100 V 100 H 0 Z"
         id="path3" />
    </clipPath>
  </defs>
  <sodipodi:namedview
     id="namedview1"
     pagecolor="#ffffff"
     bordercolor="#000000"
     borderopacity="0.25"
     inkscape:showpageshadow="2"
     inkscape:pageopacity="0.0"
     inkscape:pagecheckerboard="0"
     inkscape:deskcolor="#d1d1d1"
     inkscape:zoom="1.73"
     inkscape:cx="250"
     inkscape:cy="250"
     inkscape:window-width="1392"
     inkscape:window-height="1212"
     inkscape:window-x="2484"
     inkscape:window-y="35"
     inkscape:window-maximized="0"
     inkscape:current-layer="svg1" />
  <path
     d="m 25.302734,0 c -0.873374,0 -1.737293,0.04055819 -2.58789,0.12695312 -0.850598,0.0863949 -1.686187,0.22207635 -2.509766,0.390625 C 19.381499,0.68612678 18.575523,0.89611695 17.783203,1.1425781 16.990883,1.3890393 16.215804,1.672055 15.458984,1.9921875 14.702165,2.31232 13.959265,2.667078 13.242188,3.0566406 12.52511,3.4462032 11.825439,3.8714204 11.152344,4.3261719 10.479249,4.7809234 9.8338553,5.2655508 9.2089844,5.78125 8.5841134,6.2969492 7.9845151,6.8397037 7.4121094,7.4121094 6.8397037,7.9845151 6.2969492,8.5841134 5.78125,9.2089844 5.2655508,9.8338553 4.7809234,10.479249 4.3261719,11.152344 3.8714204,11.825439 3.4462032,12.52511 3.0566406,13.242188 2.667078,13.959265 2.31232,14.702165 1.9921875,15.458984 1.672055,16.215804 1.3890393,16.990883 1.1425781,17.783203 0.89611695,18.575523 0.68612678,19.381499 0.51757812,20.205078 0.34902947,21.028657 0.21334806,21.864246 0.12695312,22.714844 0.04055819,23.565441 0,24.42936 0,25.302734 v 49.394532 c 0,0.873374 0.04055819,1.737293 0.12695312,2.58789 0.0863949,0.850598 0.22207635,1.686187 0.390625,2.509766 0.16854866,0.823579 0.37853883,1.629555 0.62499998,2.421875 0.2464612,0.79232 0.5294769,1.567399 0.8496094,2.324219 0.3201325,0.756819 0.6748905,1.499719 1.0644531,2.216796 0.3895626,0.717078 0.8147798,1.416749 1.2695313,2.089844 0.4547515,0.673095 0.9393789,1.318489 1.4550781,1.94336 0.5156992,0.624871 1.0584537,1.224469 1.6308594,1.796875 0.5724057,0.572405 1.172004,1.11516 1.796875,1.630859 0.6248709,0.515699 1.2702646,1.000327 1.9433596,1.455078 0.673095,0.454752 1.372766,0.879969 2.089844,1.269531 0.717077,0.389563 1.459977,0.744321 2.216796,1.064453 0.75682,0.320133 1.531899,0.603149 2.324219,0.84961 0.79232,0.246461 1.598296,0.456451 2.421875,0.625 0.823579,0.168549 1.659168,0.30423 2.509766,0.390625 C 23.565441,99.959442 24.42936,100 25.302734,100 h 49.394532 c 0.873374,0 1.737293,-0.04057 2.58789,-0.126953 0.850598,-0.08639 1.686187,-0.222089 2.509766,-0.390625 0.823579,-0.168536 1.629555,-0.36879 2.421875,-0.615235 0.79232,-0.246444 1.567399,-0.539262 2.324219,-0.859375 0.756819,-0.320112 1.499719,-0.674911 2.216796,-1.064453 0.717078,-0.389541 1.416749,-0.8148 2.089844,-1.269531 0.673095,-0.454731 1.318489,-0.939398 1.94336,-1.455078 0.624871,-0.51568 1.224469,-1.058469 1.796875,-1.630859 0.572405,-0.57239 1.11516,-1.172015 1.630859,-1.796875 0.515699,-0.62486 1.000327,-1.27027 1.455078,-1.94336 0.454752,-0.67309 0.879969,-1.372763 1.269531,-2.089844 0.389563,-0.71708 0.744321,-1.459965 1.064453,-2.216796 0.320133,-0.756832 0.603149,-1.531877 0.84961,-2.324219 0.246461,-0.792342 0.456451,-1.598262 0.625,-2.421875 0.168549,-0.823614 0.30423,-1.659121 0.390625,-2.509766 C 99.959442,76.434511 100,75.570702 100,74.697266 V 25.302734 c 0,-0.873374 -0.04056,-1.737293 -0.126953,-2.58789 -0.08639,-0.850598 -0.222076,-1.686187 -0.390625,-2.509766 -0.168549,-0.823579 -0.378539,-1.629555 -0.625,-2.421875 -0.246461,-0.79232 -0.529477,-1.567399 -0.84961,-2.324219 C 97.68768,14.702165 97.332922,13.959265 96.943359,13.242188 96.553797,12.52511 96.12858,11.825439 95.673828,11.152344 95.219077,10.479249 94.734449,9.8338553 94.21875,9.2089844 93.703051,8.5841134 93.160296,7.9845151 92.587891,7.4121094 92.015485,6.8397037 91.415887,6.2969492 90.791016,5.78125 90.166145,5.2655508 89.520751,4.7809234 88.847656,4.3261719 88.174561,3.8714204 87.47489,3.4462032 86.757812,3.0566406 86.040735,2.667078 85.297835,2.31232 84.541016,1.9921875 83.784196,1.672055 83.009117,1.3890393 82.216797,1.1425781 81.424477,0.89611695 80.618501,0.68612678 79.794922,0.51757812 78.971343,0.34902947 78.135754,0.21334806 77.285156,0.12695312 76.434559,0.04055819 75.57064,0 74.697266,0 Z m 50.683594,22.402344 c 0.0066,-4e-6 0.01288,0 0.01953,0 a 4.944,4.944 0 0 1 0.751953,0.05859 4.944,4.944 0 0 1 0.761719,0.175782 4.944,4.944 0 0 1 0.712891,0.302734 4.944,4.944 0 0 1 0.664062,0.400391 4.944,4.944 0 0 1 0.585938,0.507812 4.944,4.944 0 0 1 0.507812,0.585938 4.944,4.944 0 0 1 0.410157,0.664062 4.944,4.944 0 0 1 0.292968,0.712891 4.944,4.944 0 0 1 0.185547,0.761719 4.944,4.944 0 0 1 0.05859,0.771484 4.943,4.943 0 0 1 -0.05859,0.771484 4.943,4.943 0 0 1 -0.185547,0.751953 4.943,4.943 0 0 1 -0.292968,0.722657 4.943,4.943 0 0 1 -0.410157,0.664062 4.943,4.943 0 0 1 -0.507812,0.585938 4.943,4.943 0 0 1 -0.585938,0.498047 4.943,4.943 0 0 1 -0.664062,0.410156 4.943,4.943 0 0 1 -0.712891,0.292969 4.943,4.943 0 0 1 -0.761719,0.185546 4.943,4.943 0 0 1 -0.771484,0.05859 c -0.653437,0 -1.279422,0.02896 -1.884766,0.07813 -0.605343,0.04916 -1.186998,0.117621 -1.748046,0.214844 -0.561049,0.09722 -1.100543,0.217144 -1.621094,0.361328 -0.520551,0.144185 -1.020055,0.317766 -1.503906,0.507813 -0.483851,0.190046 -0.955301,0.399956 -1.40625,0.634765 -0.45095,0.23481 -0.886749,0.493012 -1.308594,0.771485 -0.421845,0.278472 -0.824164,0.577401 -1.220703,0.898437 -0.396539,0.321036 -0.787079,0.662891 -1.16211,1.025391 -0.37503,0.362499 -0.736429,0.739714 -1.09375,1.142578 -0.35732,0.402864 -0.711279,0.827403 -1.054687,1.269531 -0.343408,0.442129 -0.682332,0.906425 -1.015625,1.386719 -0.333293,0.480293 -0.659352,0.976782 -0.986328,1.49414 -0.653953,1.034718 -1.301653,2.143931 -1.953125,3.320313 -0.651472,1.176382 -1.303048,2.42122 -1.982422,3.730469 l -3.34961,6.308593 c -0.640749,1.234499 -1.303887,2.507846 -2.001953,3.789063 -0.349032,0.640609 -0.713554,1.282309 -1.083984,1.923828 -0.37043,0.641519 -0.746039,1.288579 -1.142578,1.923828 -0.396539,0.63525 -0.812875,1.262966 -1.240235,1.884766 -0.427359,0.6218 -0.865232,1.234766 -1.328125,1.835937 -0.462892,0.601172 -0.951941,1.194216 -1.455078,1.767578 -0.503136,0.573363 -1.024172,1.131548 -1.572265,1.669922 -0.548093,0.538375 -1.120989,1.056528 -1.71875,1.552735 -0.597762,0.496206 -1.222858,0.969156 -1.875,1.416015 -0.652142,0.446859 -1.329782,0.859669 -2.041016,1.25 -0.711234,0.390332 -1.451524,0.75736 -2.226562,1.083985 -0.775039,0.326624 -1.588087,0.613402 -2.431641,0.86914 -0.421777,0.127869 -0.849273,0.252527 -1.289063,0.361328 -0.439789,0.108802 -0.889265,0.204133 -1.347656,0.292969 -0.458391,0.08884 -0.928668,0.166402 -1.40625,0.234375 -0.477581,0.06797 -0.957717,0.129569 -1.455078,0.175781 -0.497361,0.04621 -1.005708,0.08387 -1.523437,0.107422 -0.51773,0.02356 -1.043345,0.0293 -1.582032,0.0293 a 4.943,4.943 0 0 1 -1.894531,-0.371094 4.943,4.943 0 0 1 -1.611328,-1.074218 4.943,4.943 0 0 1 -1.064453,-1.601563 4.943,4.943 0 0 1 -0.38086,-1.894531 4.943,4.943 0 0 1 0.38086,-1.894531 4.943,4.943 0 0 1 1.064453,-1.601563 4.943,4.943 0 0 1 1.611328,-1.074219 4.943,4.943 0 0 1 1.894531,-0.371093 c 0.653437,0 1.27943,-0.02896 1.884766,-0.07813 0.605336,-0.04916 1.187012,-0.11762 1.748047,-0.214844 0.561034,-0.09722 1.100562,-0.217142 1.621094,-0.361328 0.520531,-0.144187 1.020078,-0.317762 1.503906,-0.507813 0.483828,-0.19005 0.955327,-0.39995 1.40625,-0.634765 0.450922,-0.234816 0.886778,-0.493003 1.308594,-0.771485 0.421816,-0.278481 0.824194,-0.577389 1.220703,-0.898437 0.396508,-0.321048 0.787109,-0.662875 1.162109,-1.025391 0.375,-0.362515 0.73646,-0.739694 1.09375,-1.142578 0.35729,-0.402884 0.701543,-0.827378 1.044922,-1.269531 0.343379,-0.442153 0.682359,-0.906396 1.015625,-1.386719 0.333266,-0.480323 0.669141,-0.976746 0.996094,-1.494141 0.653905,-1.034788 1.291914,-2.143835 1.943359,-3.320312 0.651445,-1.176477 1.312813,-2.421095 1.992188,-3.730469 l 3.36914,-6.318359 c 0.640625,-1.234499 1.303956,-2.498107 2.001953,-3.779297 0.348999,-0.640595 0.703812,-1.292094 1.074219,-1.933594 0.370408,-0.6415 0.755817,-1.278836 1.152344,-1.914062 0.396527,-0.635226 0.803112,-1.262993 1.230469,-1.884766 0.427356,-0.621773 0.874993,-1.234795 1.33789,-1.835937 0.462897,-0.601142 0.942165,-1.194247 1.445313,-1.767579 0.503147,-0.573331 1.033922,-1.131578 1.582031,-1.669921 0.548109,-0.538344 1.12097,-1.056559 1.71875,-1.552735 0.59778,-0.496176 1.213072,-0.969186 1.865234,-1.416015 0.652163,-0.44683 1.339527,-0.869461 2.050782,-1.259766 0.711255,-0.390305 1.451504,-0.747618 2.226562,-1.074219 0.775058,-0.326601 1.578304,-0.613421 2.421875,-0.86914 0.421786,-0.12786 0.859031,-0.252536 1.298828,-0.361329 0.439797,-0.108792 0.889259,-0.204139 1.347656,-0.292968 0.458398,-0.08883 0.918898,-0.166407 1.396485,-0.234375 0.477587,-0.06797 0.967479,-0.129572 1.464844,-0.175782 0.497364,-0.04621 1.005706,-0.08387 1.523437,-0.107421 0.511342,-0.02326 1.03072,-0.029 1.5625,-0.0293 z"
     style="fill:#1de9b6;fill-opacity:1"
     id="path1-6"
     inkscape:label="path1"
     transform="matrix(4.0800001,0,0,4.0800001,45.999991,45.999994)" />
</svg>
