<svg width="258" height="258" viewBox="0 0 258 258" fill="none" xmlns="http://www.w3.org/2000/svg">
<mask id="mask0_441_21" style="mask-type:luminance" maskUnits="userSpaceOnUse" x="38" y="39" width="181" height="181">
<path d="M38 39H219V220H38V39Z" fill="white"/>
</mask>
<g mask="url(#mask0_441_21)">
<path d="M173.199 39H83.8007C58.5059 39 38 59.5059 38 84.8007V174.199C38 199.494 58.5055 220 83.8007 220H173.199C198.494 220 219 199.494 219 174.199V84.8007C219 59.5059 198.494 39 173.199 39Z" fill="#1DE9B6"/>
<path d="M175.576 79.5435C144.376 79.5435 132.868 101.787 123.59 119.663L117.488 131.088C107.651 150.047 100.309 161.564 81.3871 161.564C80.2113 161.562 79.0467 161.793 77.9601 162.242C76.8734 162.691 75.886 163.35 75.0544 164.181C73.8015 165.433 72.9482 167.028 72.6025 168.765C72.2568 170.501 72.4344 172.302 73.1127 173.937C73.5626 175.024 74.2224 176.01 75.0542 176.841C75.886 177.672 76.8736 178.331 77.9604 178.78C79.0469 179.229 80.2114 179.46 81.3871 179.458C112.587 179.458 124.095 157.214 133.373 139.338L139.438 127.913C149.276 108.954 156.617 97.4376 175.539 97.4376C177.31 97.44 179.042 96.9166 180.515 95.9337C181.988 94.9508 183.136 93.5527 183.814 91.9166C184.492 90.2809 184.669 88.4806 184.324 86.7439C183.978 85.0072 183.125 83.4121 181.872 82.1607C181.04 81.3296 180.053 80.6706 178.966 80.2215C177.88 79.7724 176.715 79.542 175.539 79.5435H175.576Z" fill="white"/>
</g>
</svg>
