<svg version="1.1" viewBox="0 0 24 24" xml:space="preserve" xmlns="http://www.w3.org/2000/svg"><g transform="translate(-24.056 -77.24)"><g transform="matrix(1.8173 0 0 1.8173 -20.64 -68.176)" fill="#0288d1" aria-label="lox"><path d="m25.253 83.414v6.2971h1.2524v-6.2971z"/><path d="m28.605 87.435q0-0.2734 0.05292-0.53798 0.05292-0.26458 0.17639-0.46743 0.13229-0.20285 0.34396-0.32632 0.21167-0.13229 0.52917-0.13229t0.52917 0.13229q0.22049 0.12347 0.34396 0.32632 0.13229 0.20285 0.18521 0.46743 0.05292 0.26458 0.05292 0.53798 0 0.2734-0.05292 0.53799-0.05292 0.25576-0.18521 0.46743-0.12347 0.20285-0.34396 0.32632-0.21167 0.12347-0.52917 0.12347t-0.52917-0.12347q-0.21167-0.12347-0.34396-0.32632-0.12347-0.21167-0.17639-0.46743-0.05292-0.26458-0.05292-0.53799zm-1.2524 0q0 0.54681 0.16757 0.98778t0.47625 0.75847q0.30868 0.30868 0.74083 0.47625 0.43215 0.16757 0.97014 0.16757t0.97014-0.16757q0.44097-0.16757 0.74965-0.47625 0.30868-0.3175 0.47625-0.75847 0.16757-0.44097 0.16757-0.98778 0-0.5468-0.16757-0.98778-0.16757-0.44979-0.47625-0.75847-0.30868-0.3175-0.74965-0.48507-0.43215-0.17639-0.97014-0.17639t-0.97014 0.17639q-0.43215 0.16757-0.74083 0.48507-0.30868 0.30868-0.47625 0.75847-0.16757 0.44097-0.16757 0.98778z"/><path d="m34.046 87.312-1.6404 2.3989h1.4023l0.9525-1.4376 0.9525 1.4376h1.4287l-1.6845-2.4253 1.4993-2.1343h-1.3847l-0.79375 1.1906-0.80257-1.1906h-1.4287z"/></g><rect x="24.056" y="77.24" width="24" height="24" fill="none"/></g></svg>
