<svg xmlns="http://www.w3.org/2000/svg" viewBox="0 0 32 32"><path fill="#42a5f5" d="M30 6a3.857 3.857 0 0 1-1.167 2.833 4.024 4.024 0 0 1-5.666 0A3.857 3.857 0 0 1 22 6a3.857 3.857 0 0 1 1.167-2.833 4.024 4.024 0 0 1 5.666 0A3.857 3.857 0 0 1 30 6Zm-9.208 5.208A10.608 10.608 0 0 0 13 8a10.608 10.608 0 0 0-7.792 3.208A10.608 10.608 0 0 0 2 19a10.608 10.608 0 0 0 3.208 7.792A10.608 10.608 0 0 0 13 30a10.608 10.608 0 0 0 7.792-3.208A10.608 10.608 0 0 0 24 19a10.608 10.608 0 0 0-3.208-7.792Zm-1.959 7.625a4.024 4.024 0 0 1-5.666 0 4.024 4.024 0 0 1 0-5.666 4.024 4.024 0 0 1 5.666 0 4.024 4.024 0 0 1 0 5.666Z"/></svg>