<svg xmlns="http://www.w3.org/2000/svg" viewBox="0 0 32 32">
  <path d="M30,6a3.85743,3.85743,0,0,1-1.16667,2.83333,4.02379,4.02379,0,0,1-5.66666,0A3.85743,3.85743,0,0,1,22,6a3.85743,3.85743,0,0,1,1.16667-2.83333,4.02379,4.02379,0,0,1,5.66666,0A3.85743,3.85743,0,0,1,30,6Z" style="fill: #42a5f5"/>
  <path d="M20.79163,11.20831A10.60817,10.60817,0,0,0,12.99994,8a10.608,10.608,0,0,0-7.79157,3.20831A10.608,10.608,0,0,0,2,19a10.60786,10.60786,0,0,0,3.20837,7.79163A10.60782,10.60782,0,0,0,12.99994,30a10.608,10.608,0,0,0,7.79169-3.20837A10.6078,10.6078,0,0,0,23.99994,19,10.60794,10.60794,0,0,0,20.79163,11.20831Zm-1.95832,7.625a4.0237,4.0237,0,0,1-5.66662,0,4.02377,4.02377,0,0,1,0-5.66668,4.02384,4.02384,0,0,1,5.66662,0,4.02377,4.02377,0,0,1,0,5.66668Z" style="fill: #42a5f5"/>
</svg>
