<svg width="24" height="24" viewBox="0 0 24 24" fill="none" xmlns="http://www.w3.org/2000/svg">
<path d="M22.4949 6.33108L6.33105 2L1.99997 18.1638L18.1638 22.4949L22.4949 6.33108Z" fill="#00A2FF"/>
<path d="M19.9331 7.81016L16.7003 6.94394L15.8341 10.1767L19.0669 11.0429L19.9331 7.81016Z" fill="white"/>
<path d="M5.26054 16.3739L7.30271 16.9211L7.17821 17.3858L4.56482 16.6855L5.71951 12.3762L6.29072 12.5293L5.26054 16.3739ZM9.67225 17.7146C9.392 17.9081 9.04569 17.9496 8.63332 17.8391C8.29199 17.7477 8.05796 17.5792 7.93129 17.3338C7.80708 17.0869 7.79607 16.7689 7.89828 16.3796L8.45657 14.296L9.0041 14.4427L8.44979 16.5115C8.31972 16.9969 8.45201 17.2925 8.84664 17.3982C9.2649 17.5103 9.5849 17.429 9.80654 17.1542L10.4307 14.825L10.9782 14.9717L10.1201 18.1741L9.59925 18.0345L9.67225 17.7146ZM12.9318 18.9275C12.9172 18.8559 12.9217 18.7365 12.9453 18.5694C12.6199 18.7656 12.2806 18.8164 11.9275 18.7218C11.6118 18.6372 11.3761 18.4789 11.2204 18.2468C11.0673 18.0134 11.0275 17.7595 11.101 17.4852C11.1903 17.1518 11.3858 16.9271 11.6876 16.8113C11.9918 16.694 12.3738 16.697 12.8335 16.8201L13.3662 16.9629L13.4337 16.7113C13.4849 16.5199 13.4684 16.3527 13.3841 16.2096C13.3004 16.0644 13.147 15.962 12.924 15.9023C12.7287 15.85 12.5517 15.8554 12.3931 15.9186C12.2344 15.9819 12.1363 16.0835 12.0988 16.2236L11.5483 16.0761C11.5911 15.9163 11.6886 15.7775 11.8407 15.6596C11.9954 15.5403 12.181 15.4631 12.3976 15.4281C12.6162 15.3937 12.8419 15.4076 13.0747 15.47C13.4437 15.5689 13.7079 15.739 13.8674 15.9806C14.0274 16.2201 14.0679 16.5027 13.9891 16.8285L13.5942 18.3024C13.5154 18.5964 13.4902 18.8402 13.5187 19.034L13.506 19.0813L12.9318 18.9275ZM12.135 18.2667C12.3067 18.3127 12.4814 18.3119 12.6591 18.2643C12.8368 18.2168 12.9792 18.1313 13.0863 18.0077L13.2624 17.3506L12.8332 17.2357C12.1624 17.0559 11.7743 17.1623 11.6691 17.555C11.6231 17.7266 11.6444 17.8761 11.7329 18.0035C11.8214 18.1308 11.9555 18.2186 12.135 18.2667ZM16.3138 19.4942C16.0336 19.6877 15.6873 19.7292 15.2748 19.6187C14.9335 19.5273 14.6995 19.3588 14.5728 19.1134C14.4486 18.8665 14.4376 18.5485 14.5398 18.1592L15.0981 16.0756L15.6456 16.2223L15.0913 18.2912C14.9612 18.7765 15.0935 19.0721 15.4882 19.1778C15.9065 19.2899 16.2264 19.2086 16.4481 18.9338L17.0722 16.6046L17.6197 16.7513L16.7617 19.9537L16.2408 19.8141L16.3138 19.4942Z" fill="white"/>
</svg>
