<svg xmlns="http://www.w3.org/2000/svg" fill="none" viewBox="0 0 24 24"><path fill="#ff3d00" fill-rule="evenodd" d="m7.604 5.868-2.71 1.98a1.47 1.47 0 0 0-.57.905l-.266 1.352a.45.45 0 0 1-.09.194l-1.23 1.71c-.166.205-.162.748.292 1.095.174.161.406.522.67.932.56.868 1.264 1.958 1.858 1.845.84-.313 1.868-.413 2.658 0 1.534 1.405 1.158 2.701.617 4.56-.217.747-.46 1.585-.617 2.559.737-2.846 2.394-6.151 5.383-7.273-.538-.466-1.637-.9-2.61-1.004 0 0 2.988-2.714 6.673-3.96-2.572-6.493-6.819-9.596-6.819-9.596a.42.42 0 0 0-.743.159c-.073 1.026-.193 1.724-.39 2.382L8.215 1.88c-.156-.2-.468-.084-.467.172.253 1.492.218 2.328-.145 3.816m1.051-.136h.01a.4.4 0 0 0 .057-.009zm2.02-3.348c1.024 1.876 1.488 2.942 1.645 4.93-1.089-.656-1.563-.822-2.364-.818.468-1.507.61-2.414.72-4.112" clip-rule="evenodd"/><path fill="#ff3d00" d="M17.253 16.316C13.084 17.328 10.716 18.85 8.905 23c3.251-5.785 13.092-4.75 13.092-4.75-.183-.946-2.14-2.748-3.427-3.853 0 0 1.038-1.354 3.333-2.04 0 0-4.412.272-6.981 1.743.832.466 1.898 1.252 2.33 2.216"/></svg>