<svg width="289" height="289" viewBox="0 0 289 289" fill="none" xmlns="http://www.w3.org/2000/svg">
<rect x="127" y="23" width="18" height="207" fill="#D50000"/>
<rect x="19" y="23" width="18" height="207" fill="#D50000"/>
<rect x="37" y="41" width="18" height="18" fill="#D50000"/>
<rect x="109" y="41" width="18" height="18" fill="#D50000"/>
<rect x="55" y="59" width="18" height="18" fill="#D50000"/>
<rect x="91" y="59" width="18" height="18" fill="#D50000"/>
<rect x="163" y="194" width="18" height="18" fill="#D50000"/>
<rect x="253" y="59" width="18" height="63" fill="#D50000"/>
<rect x="235" y="122" width="18" height="18" fill="#D50000"/>
<rect x="235" y="41" width="18" height="18" fill="#D50000"/>
<rect x="199" y="23" width="36" height="18" fill="#D50000"/>
<path d="M217 140H235V158H217V140Z" fill="#D50000"/>
<path d="M217 140H235V158H217V140Z" fill="#D50000"/>
<path d="M163 59H181V95H163V59Z" fill="#D50000"/>
<path d="M163 59H181V95H163V59Z" fill="#D50000"/>
<rect x="181" y="41" width="18" height="18" fill="#D50000"/>
<rect x="199" y="158" width="18" height="18" fill="#D50000"/>
<rect x="181" y="176" width="18" height="18" fill="#D50000"/>
<rect x="73" y="77" width="18" height="18" fill="#D50000"/>
<rect x="163" y="212" width="108" height="18" fill="#D50000"/>
<rect width="252" height="22" transform="matrix(-1 0 0 1 270 243)" fill="#FFD600"/>
</svg>
