<svg width="289" height="289" viewBox="0 0 289 289" fill="none" xmlns="http://www.w3.org/2000/svg">
<rect x="126" y="18" width="18" height="216" fill="#D50000"/>
<rect x="18" y="18" width="18" height="216" fill="#D50000"/>
<rect x="36" y="36" width="18" height="18" fill="#D50000"/>
<rect x="108" y="36" width="18" height="18" fill="#D50000"/>
<rect x="54" y="54" width="18" height="18" fill="#D50000"/>
<rect x="90" y="54" width="18" height="18" fill="#D50000"/>
<rect x="162" y="198" width="18" height="18" fill="#D50000"/>
<rect x="252" y="54" width="18" height="72" fill="#D50000"/>
<rect x="234" y="126" width="18" height="18" fill="#D50000"/>
<rect x="234" y="36" width="18" height="18" fill="#D50000"/>
<rect x="198" y="18" width="36" height="18" fill="#D50000"/>
<path d="M216 144H234V162H216V144Z" fill="#D50000"/>
<path d="M216 144H234V162H216V144Z" fill="#D50000"/>
<path d="M162 54H180V90H162V54Z" fill="#D50000"/>
<path d="M162 54H180V90H162V54Z" fill="#D50000"/>
<rect x="180" y="36" width="18" height="18" fill="#D50000"/>
<rect x="198" y="162" width="18" height="18" fill="#D50000"/>
<rect x="180" y="180" width="18" height="18" fill="#D50000"/>
<rect x="72" y="72" width="18" height="18" fill="#D50000"/>
<rect x="162" y="216" width="108" height="18" fill="#D50000"/>
<rect width="252" height="18" transform="matrix(-1 0 0 1 270 252)" fill="#FFD600"/>
</svg>
