<svg height="16" width="16" xmlns="http://www.w3.org/2000/svg"><path d="M2.313 13q-.542 0-.927-.367Q1 12.265 1 11.749V4.245q0-.516.386-.88Q1.77 3 2.313 3h11.374q.542 0 .927.367.386.368.386.884v7.504q0 .516-.386.88-.385.365-.927.365zM8 8.747q.082 0 .173-.026.091-.026.173-.079L13.378 5.9q.145-.086.227-.233.082-.146.082-.322 0-.371-.333-.55-.334-.18-.687.012L8 7.358 3.352 4.823q-.347-.191-.693-.017-.347.173-.347.538 0 .173.092.321.09.148.237.234l5.03 2.743q.075.053.156.079.082.026.173.026z" fill="#FFD54F"/></svg>