<svg xmlns="http://www.w3.org/2000/svg" viewBox="0 0 32 32">
  <path d="M29.5,24.02l-1.6-.92a4.43087,4.43087,0,0,0,.09-.9A1.27377,1.27377,0,0,0,28,22a5.63144,5.63144,0,0,0-.1-1.1l1.6-.92a.4934.4934,0,0,0,.18-.68l-1.5-2.6a.44559.44559,0,0,0-.18-.18V6.01a2.00587,2.00587,0,0,0-2-2H4a2.00587,2.00587,0,0,0-2,2V22a2.00591,2.00591,0,0,0,2,2H14.53l-.03.02a.49346.49346,0,0,0-.18.68l1.5,2.6a.4934.4934,0,0,0,.68.18l1.6-.92A5.886,5.886,0,0,0,20,27.65V29.5a.49514.49514,0,0,0,.5.5h3a.49514.49514,0,0,0,.5-.5V27.65a5.886,5.886,0,0,0,1.9-1.09l1.6.92a.4934.4934,0,0,0,.68-.18l1.5-2.6A.49346.49346,0,0,0,29.5,24.02ZM24,22.01a1.98737,1.98737,0,0,1-.88,1.65l-.18.11a2.03556,2.03556,0,0,1-1.88,0l-.18-.11A1.98737,1.98737,0,0,1,20,22.01V22a2.00555,2.00555,0,0,1,.88-1.66l.18-.11a2.036,2.036,0,0,1,1.88,0l.18.11A2.00555,2.00555,0,0,1,24,22Zm2-4.63-.1.06A5.885,5.885,0,0,0,24,16.35V14.5a.49511.49511,0,0,0-.5-.5h-3a.49511.49511,0,0,0-.5.5v1.85a5.885,5.885,0,0,0-1.9,1.09l-1.6-.92a.49342.49342,0,0,0-.68.18l-1.5,2.6a.4934.4934,0,0,0,.18.68l1.6.92A5.63144,5.63144,0,0,0,16,22v.01L4,22V10.01H26Z" style="fill: #ef5350"/>
</svg>
