<svg xmlns="http://www.w3.org/2000/svg" viewBox="0 0 32 32"><path fill="#ef5350" d="m29.5 24.02-1.6-.92a4.43 4.43 0 0 0 .09-.9A1.274 1.274 0 0 0 28 22a5.631 5.631 0 0 0-.1-1.1l1.6-.92a.493.493 0 0 0 .18-.68l-1.5-2.6a.446.446 0 0 0-.18-.18V6.01a2.006 2.006 0 0 0-2-2H4a2.006 2.006 0 0 0-2 2V22a2.006 2.006 0 0 0 2 2h10.53l-.03.02a.493.493 0 0 0-.18.68l1.5 2.6a.493.493 0 0 0 .68.18l1.6-.92a5.886 5.886 0 0 0 1.9 1.09v1.85a.495.495 0 0 0 .5.5h3a.495.495 0 0 0 .5-.5v-1.85a5.886 5.886 0 0 0 1.9-1.09l1.6.92a.493.493 0 0 0 .68-.18l1.5-2.6a.493.493 0 0 0-.18-.68ZM24 22.01a1.987 1.987 0 0 1-.88 1.65l-.18.11a2.036 2.036 0 0 1-1.88 0l-.18-.11a1.987 1.987 0 0 1-.88-1.65V22a2.006 2.006 0 0 1 .88-1.66l.18-.11a2.036 2.036 0 0 1 1.88 0l.18.11A2.006 2.006 0 0 1 24 22Zm2-4.63-.1.06a5.885 5.885 0 0 0-1.9-1.09V14.5a.495.495 0 0 0-.5-.5h-3a.495.495 0 0 0-.5.5v1.85a5.885 5.885 0 0 0-1.9 1.09l-1.6-.92a.493.493 0 0 0-.68.18l-1.5 2.6a.493.493 0 0 0 .18.68l1.6.92A5.631 5.631 0 0 0 16 22v.01L4 22V10.01h22Z"/></svg>