<?xml version="1.0" encoding="UTF-8"?>
<svg clip-rule="evenodd" fill-rule="evenodd" stroke-linejoin="round" stroke-miterlimit="1.4142" version="1.1" viewBox="0 0 24 24" xml:space="preserve" 
    xmlns="http://www.w3.org/2000/svg">
    <path d="m19 20h-15c-1.11 0-2-0.9-2-2v-12c0-1.11 0.89-2 2-2h6l2 2h7c1.097 0 2 0.903 2 2h-17v10l2.14-8h17.07l-2.28 8.5c-0.23 0.87-1.01 1.5-1.93 1.5z" fill="#455A64"/>
    <path d=" M 16.682 21.623 L 14.144 21.625 L 14.144 17.818 L 12.241 20.259 L 10.338 17.818 L 10.338 21.625 L 7.8 21.625 L 7.8 14.012 L 10.338 14.012 L 12.241 16.55 L 14.144 14.012 L 16.682 14.009 L 16.682 21.623 Z " fill="#CFD8DC"/>
    <path d=" M 20.471 22.257 L 17.317 17.818 L 19.22 17.818 L 19.22 14.012 L 21.758 14.012 L 21.758 17.818 L 23.661 17.818 L 20.471 22.257 Z " fill="#CFD8DC"/>
</svg>