<?xml version="1.0" encoding="UTF-8" standalone="no"?>
<svg
   xmlns:dc="http://purl.org/dc/elements/1.1/"
   xmlns:cc="http://creativecommons.org/ns#"
   xmlns:rdf="http://www.w3.org/1999/02/22-rdf-syntax-ns#"
   xmlns:svg="http://www.w3.org/2000/svg"
   xmlns="http://www.w3.org/2000/svg"
   xmlns:sodipodi="http://sodipodi.sourceforge.net/DTD/sodipodi-0.dtd"
   xmlns:inkscape="http://www.inkscape.org/namespaces/inkscape"
   width="24"
   height="24"
   viewBox="0 0 24 24"
   version="1.1"
   preserveAspectRatio="xMidYMid"
   id="svg3336"
   inkscape:version="0.92.1 r15371"
   sodipodi:docname="markojs.svg">
  <metadata
     id="metadata3426">
    <rdf:RDF>
      <cc:Work
         rdf:about="">
        <dc:format>image/svg+xml</dc:format>
        <dc:type
           rdf:resource="http://purl.org/dc/dcmitype/StillImage" />
        <dc:title />
      </cc:Work>
    </rdf:RDF>
  </metadata>
  <sodipodi:namedview
     pagecolor="#ffffff"
     bordercolor="#666666"
     borderopacity="1"
     objecttolerance="10"
     gridtolerance="10"
     guidetolerance="10"
     inkscape:pageopacity="0"
     inkscape:pageshadow="2"
     inkscape:window-width="1366"
     inkscape:window-height="705"
     id="namedview3424"
     showgrid="false"
     fit-margin-top="0"
     fit-margin-left="0"
     fit-margin-right="0"
     fit-margin-bottom="0"
     inkscape:zoom="16"
     inkscape:cx="4.472878"
     inkscape:cy="17.46058"
     inkscape:window-x="-8"
     inkscape:window-y="-8"
     inkscape:window-maximized="1"
     inkscape:current-layer="g3428"
     showguides="true"
     inkscape:guide-bbox="true" />
  <defs
     id="defs3338">
    <linearGradient
       x1="98.768127"
       y1="82.87793"
       x2="98.768127"
       y2="29.177988"
       id="linearGradient-1"
       gradientTransform="matrix(0.11138133,0,0,0.07890966,-4.3550775,148.34035)"
       gradientUnits="userSpaceOnUse">
      <stop
         stop-color="#8AC23E"
         offset="0%"
         id="stop3341" />
      <stop
         stop-color="#8AC23E"
         stop-opacity="0"
         offset="100%"
         id="stop3343" />
    </linearGradient>
    <linearGradient
       x1="111.47795"
       y1="0.034187242"
       x2="111.47795"
       y2="53.692024"
       id="linearGradient-2"
       gradientTransform="matrix(0.11129401,0,0,0.07897157,-4.3550775,148.34035)"
       gradientUnits="userSpaceOnUse">
      <stop
         stop-color="#698932"
         offset="0%"
         id="stop3346" />
      <stop
         stop-color="#698932"
         stop-opacity="0"
         offset="100%"
         id="stop3348" />
    </linearGradient>
    <linearGradient
       x1="134.70447"
       y1="0.034214064"
       x2="134.70447"
       y2="53.73415"
       id="linearGradient-3"
       gradientTransform="matrix(0.11138133,0,0,0.07890966,-4.3550775,148.34035)"
       gradientUnits="userSpaceOnUse">
      <stop
         stop-color="#FFED01"
         offset="0%"
         id="stop3351" />
      <stop
         stop-color="#FFED01"
         stop-opacity="0"
         offset="100%"
         id="stop3353" />
    </linearGradient>
    <linearGradient
       x1="175.92509"
       y1="0.034214064"
       x2="175.92509"
       y2="53.750431"
       id="linearGradient-4"
       gradientTransform="matrix(0.11138133,0,0,0.07890966,-4.3550775,148.34035)"
       gradientUnits="userSpaceOnUse">
      <stop
         stop-color="#E02A89"
         offset="0%"
         id="stop3356" />
      <stop
         stop-color="#E02A89"
         stop-opacity="0"
         offset="100%"
         id="stop3358" />
    </linearGradient>
    <linearGradient
       x1="188.60587"
       y1="82.87793"
       x2="188.60587"
       y2="136.57787"
       id="linearGradient-5"
       gradientTransform="matrix(0.11138133,0,0,0.07890966,-4.3550775,148.34035)"
       gradientUnits="userSpaceOnUse">
      <stop
         stop-color="#7F1E4F"
         offset="0%"
         id="stop3361" />
      <stop
         stop-color="#7F1E4F"
         stop-opacity="0"
         offset="100%"
         id="stop3363" />
    </linearGradient>
    <linearGradient
       x1="147.36351"
       y1="82.87793"
       x2="147.36351"
       y2="136.57787"
       id="linearGradient-6"
       gradientTransform="matrix(0.11138133,0,0,0.07890966,-4.3550775,148.34035)"
       gradientUnits="userSpaceOnUse">
      <stop
         stop-color="#E95506"
         offset="0%"
         id="stop3366" />
      <stop
         stop-color="#E95506"
         stop-opacity="0"
         offset="100%"
         id="stop3368" />
    </linearGradient>
    <linearGradient
       x1="26.837786"
       y1="82.87793"
       x2="26.837786"
       y2="29.212204"
       id="linearGradient-7"
       gradientTransform="matrix(0.11138133,0,0,0.07890966,-11.167578,149.52785)"
       gradientUnits="userSpaceOnUse">
      <stop
         stop-color="#88D0F1"
         offset="0%"
         id="stop3371" />
      <stop
         stop-color="#88D0F1"
         stop-opacity="0"
         offset="100%"
         id="stop3373" />
    </linearGradient>
    <linearGradient
       x1="39.486897"
       y1="0.034214064"
       x2="39.486897"
       y2="53.69994"
       id="linearGradient-8"
       gradientTransform="matrix(0.11138133,0,0,0.07890966,-10.667578,147.65285)"
       gradientUnits="userSpaceOnUse">
      <stop
         stop-color="#00828B"
         offset="0%"
         id="stop3376" />
      <stop
         stop-color="#00828B"
         stop-opacity="0"
         offset="83.25%"
         id="stop3378" />
    </linearGradient>
    <linearGradient
       x1="39.506592"
       y1="165.59219"
       x2="39.506592"
       y2="111.9848"
       id="linearGradient-9"
       gradientTransform="matrix(0.11129401,0,0,0.07897157,-4.3550775,148.34035)"
       gradientUnits="userSpaceOnUse">
      <stop
         stop-color="#2073BA"
         offset="0%"
         id="stop3381" />
      <stop
         stop-color="#2073BA"
         stop-opacity="0"
         offset="100%"
         id="stop3383" />
    </linearGradient>
    <linearGradient
       x1="62.800556"
       y1="0.034214064"
       x2="62.800556"
       y2="53.69994"
       id="linearGradient-10"
       gradientTransform="matrix(0.11138133,0,0,0.07890966,-4.3550775,148.34035)"
       gradientUnits="userSpaceOnUse">
      <stop
         stop-color="#8ED0E1"
         offset="0%"
         id="stop3386" />
      <stop
         stop-color="#88D0F1"
         stop-opacity="0"
         offset="100%"
         id="stop3388" />
    </linearGradient>
  </defs>
  <g
     id="g3390"
     transform="translate(0,-115.5)">
    <g
       id="g3428"
       transform="translate(0,-5.46094)">
      <path
         style="fill:#2196f3;fill-opacity:1;stroke-width:0.98413146"
         d="m 4.001653,126.48243 c -0.655062,1.07025 -1.320482,2.13878 -1.975545,3.20902 -0.655062,1.06102 -1.30854495,2.14276 -1.96360795,3.213 l 0.002,0.002 -0.002,0.002 c 0.655063,1.07025 1.30854595,2.15 1.96360795,3.21101 0.655063,1.07024 1.320483,2.14076 1.975545,3.21101 h 3.330375 c -0.664289,-1.07031 -1.318493,-2.14077 -1.973555,-3.21101 -0.653861,-1.06828 -1.30776,-2.14468 -1.961619,-3.213 0.653859,-1.0683 1.307758,-2.14671 1.961619,-3.21498 0.655062,-1.07024 1.309266,-2.13878 1.973555,-3.20902 z"
         id="path3396"
         inkscape:connector-curvature="0" />
      <path
         style="fill:#26a69a;fill-opacity:1;stroke-width:0.98413146"
         d="m 3.998933,126.48186 -0.002,0.002 c 0.655063,1.07024 1.309356,2.15087 1.964419,3.21189 0.655062,1.07024 1.318967,2.13971 1.974029,3.20995 h 3.331059 c -0.664289,-1.0702 -1.318967,-2.13967 -1.97403,-3.20991 -0.653859,-1.06828 -1.306715,-2.14549 -1.960574,-3.21381 z"
         id="path3396-0-4"
         inkscape:connector-curvature="0" />
      <path
         style="fill:#8bc34a;fill-opacity:1;stroke-width:0.98413146"
         d="m 15.202949,126.48186 0.0019,0.002 c -0.655064,1.07024 -1.309356,2.15087 -1.964419,3.21189 -0.655062,1.07024 -1.318967,2.13971 -1.97403,3.20995 H 7.935413 c 0.664289,-1.07024 1.318967,-2.13971 1.97403,-3.20995 0.65386,-1.06828 1.306715,-2.14549 1.960575,-3.21381 z"
         id="path3396-0-4-8"
         inkscape:connector-curvature="0" />
      <path
         style="fill:#ffc107;fill-opacity:1;stroke-width:0.98413146"
         d="m 11.873991,126.48442 c 0.664288,1.07025 1.318493,2.13878 1.973555,3.20902 0.65386,1.06828 1.307759,2.14667 1.961619,3.21499 -0.65386,1.0683 -1.307759,2.14472 -1.961619,3.21299 -0.655062,1.07025 -1.309267,2.13878 -1.973555,3.20902 h 3.330374 c 0.655063,-1.07024 1.318493,-2.13877 1.973556,-3.20902 0.655062,-1.06101 1.310534,-2.14076 1.965598,-3.211 l -0.002,-0.002 0.002,-0.002 c -0.655064,-1.07024 -1.310536,-2.15198 -1.965598,-3.21299 -0.655063,-1.07025 -1.318493,-2.13878 -1.973556,-3.20902 z"
         id="path3396-7"
         inkscape:connector-curvature="0" />
      <path
         style="fill:#f44336;fill-opacity:1;stroke-width:0.98413146"
         d="m 16.740238,126.48243 c 0.664288,1.07025 1.318493,2.13878 1.973555,3.20902 0.65386,1.06828 1.30577,2.14668 1.959629,3.21499 -0.653859,1.06832 -1.305769,2.14472 -1.959629,3.21299 -0.655062,1.07025 -1.309267,2.14077 -1.973555,3.21101 h 3.330374 c 0.655063,-1.07024 1.318493,-2.14076 1.973556,-3.21101 0.655062,-1.06101 1.310535,-2.14076 1.965598,-3.211 l -0.002,-0.002 0.002,-0.002 c -0.655063,-1.07024 -1.310536,-2.15198 -1.965598,-3.21299 -0.655063,-1.07025 -1.318493,-2.13878 -1.973556,-3.20902 z"
         id="path3396-7-0"
         inkscape:connector-curvature="0" />
    </g>
  </g>
</svg>
