<svg xmlns="http://www.w3.org/2000/svg" viewBox="0 0 32 32">
  <g>
    <path d="M5.28733,8.00125c-.87333,1.3325-1.76,2.66251-2.63466,3.995C1.77933,13.3188.90867,14.665.03533,15.99751L.038,16l-.00267.00249c.87334,1.3325,1.744,2.67746,2.61734,3.99875.87333,1.33251,1.76,2.66625,2.63466,4h4.44C8.842,22.66874,7.97,21.335,7.09533,20.00249,6.22467,18.67,5.35266,17.33,4.48067,16c.872-1.33,1.744-2.67372,2.61466-4.00374q1.30931-2.00135,2.632-3.995Z" style="fill: #2196f3"/>
    <path d="M5.28333,8.00125l-.00266.00124c.87333,1.3325,1.74666,2.67871,2.61866,4,.87334,1.3325,1.76,2.665,2.632,3.99751h4.44133c-.88533-1.3325-1.75866-2.665-2.632-3.99751C11.47,10.67248,10.59933,9.33126,9.72733,8Z" style="fill: #26a69a"/>
    <path d="M20.222,8.00125l.00267.00124c-.87334,1.3325-1.74667,2.67871-2.62,4C16.73133,13.335,15.846,14.6675,14.97266,16h-4.44q1.32212-1.99485,2.63066-3.99751C14.03533,10.67248,14.906,9.33126,15.778,8Z" style="fill: #8bc34a"/>
    <path d="M15.78333,8.00125q1.32267,1.99367,2.632,3.995C19.286,13.32628,20.158,14.67,21.03,16c-.872,1.33-1.744,2.67123-2.61467,4.00124Q17.106,22.00385,15.78333,24h4.44c.87333-1.33375,1.75867-2.66625,2.632-3.99875.87334-1.32,1.74667-2.665,2.62133-3.99751L25.474,16l.00266-.00249c-.87333-1.3325-1.74666-2.67995-2.62133-4.00125C21.982,10.66376,21.09666,9.3325,20.22333,8Z" style="fill: #ffc107"/>
    <path d="M22.27133,8.00125q1.32267,1.99367,2.632,3.995c.87067,1.33,1.74,2.67373,2.61333,4.00374-.87333,1.33-1.74266,2.67123-2.61333,4.00124-.87333,1.33251-1.74666,2.66625-2.632,4h4.44c.87334-1.3325,1.75867-2.66625,2.632-3.99875.87333-1.32254,1.74666-2.6675,2.62133-4L31.962,16l.00267-.00249c-.87334-1.3325-1.74667-2.67995-2.62133-4.00125C28.47,10.66376,27.58467,9.3325,26.71134,8Z" style="fill: #f44336"/>
  </g>
</svg>
