<?xml version="1.0" encoding="UTF-8" standalone="no"?>
<svg
   xmlns:dc="http://purl.org/dc/elements/1.1/"
   xmlns:cc="http://creativecommons.org/ns#"
   xmlns:rdf="http://www.w3.org/1999/02/22-rdf-syntax-ns#"
   xmlns:svg="http://www.w3.org/2000/svg"
   xmlns="http://www.w3.org/2000/svg"
   xmlns:sodipodi="http://sodipodi.sourceforge.net/DTD/sodipodi-0.dtd"
   xmlns:inkscape="http://www.inkscape.org/namespaces/inkscape"
   id="svg14"
   version="1.1"
   viewBox="0 0 24 24"
   height="24"
   width="24"
   inkscape:version="0.91 r13725"
   sodipodi:docname="mathematicaicon.svg">
  <sodipodi:namedview
     pagecolor="#ffffff"
     bordercolor="#666666"
     borderopacity="1"
     objecttolerance="10"
     gridtolerance="10"
     guidetolerance="10"
     inkscape:pageopacity="0"
     inkscape:pageshadow="2"
     inkscape:window-width="1536"
     inkscape:window-height="801"
     id="namedview3346"
     showgrid="false"
     inkscape:zoom="3.1767677"
     inkscape:cx="46.450778"
     inkscape:cy="23.45151"
     inkscape:window-x="-8"
     inkscape:window-y="-8"
     inkscape:window-maximized="1"
     inkscape:current-layer="svg14" />
  <metadata
     id="metadata18">
    <rdf:RDF>
      <cc:Work
         rdf:about="">
        <dc:format>image/svg+xml</dc:format>
        <dc:type
           rdf:resource="http://purl.org/dc/dcmitype/StillImage" />
        <dc:title>mathematicaIcon</dc:title>
      </cc:Work>
    </rdf:RDF>
  </metadata>
  <!-- Generator: Sketch 41.2 (35397) - http://www.bohemiancoding.com/sketch -->
  <title
     id="title2">mathematicaIcon</title>
  <desc
     id="desc4">Created with Sketch.</desc>
  <defs
     id="defs6" />
  <g
     id="Page-1"
     transform="matrix(0.12121212,0,0,0.12121212,0.48484557,1.2e-7)"
     style="fill:none;fill-rule:evenodd;stroke:none;stroke-width:1">
    <g
       id="mathematicaIcon">
      <g
         id="mathematicaSpikeyBackground"
         style="fill:#dd1100">
        <polygon
           points="36.8181,179.1 74.3361,162.62134 95.01073,198 115.67766,162.61675 153.19718,179.08624 149.11931,138.31324 189.15516,129.58278 161.88941,98.99311 189.15056,68.39577 149.1101,59.676 153.18035,18.9 115.66388,35.3802 94.98774,0 74.32231,35.38325 36.80131,18.91225 40.88076,59.68825 0.84489,68.41725 28.11064,99.00848 0.84944,129.60428 40.88832,138.324 "
           id="Shape" />
      </g>
      <path
         id="path10"
         d="m 117.59192,68.37366 c 0,0 -8.97461,5.74054 -23.00653,5.76978 -14.03192,0.02924 -21.6239,-5.76978 -21.6239,-5.76978 0,0 2.30432,9.864 -1.45142,22.53491 -2.257971,7.596289 -6.634617,14.3915 -12.61688,19.58905 0,0 12.4917,1.45538 21.119,7.95929 8.6273,6.50391 14.94112,18.31769 14.94112,18.31769 0,0 5.41705,-11.35974 14.37323,-18.07764 8.95618,-6.7179 21.84851,-8.11847 21.84851,-8.11847 0,0 -9.33838,-10.51074 -13.01794,-19.83685 -3.67956,-9.32611 -0.56519,-22.36798 -0.56519,-22.36798 z m -12.8252,44.00024 c -6.00836,3.96075 -9.7749,11.00812 -9.7749,11.00812 -2.689837,-4.21548 -6.113268,-7.91487 -10.108,-10.92279 -3.936559,-2.79654 -8.411842,-4.74357 -13.14142,-5.71735 0,0 5.29065,-6.42816 7.5094,-13.48279 1.34398,-4.551356 1.838633,-9.311238 1.45923,-14.04169 0,0 7.2449,2.9706 14.00754,3.0336 6.76264,0.063 14.57086,-3.072 14.57086,-3.072 0,0 -1.84308,8.03406 0.45984,14.5014 2.30292,6.46734 8.41486,12.97614 8.41486,12.97614 -4.73038,1.21394 -9.24807,3.14187 -13.39741,5.71736 l 0,0 z m 28.5141,-26.963 c -2.40936,-7.864 4.39624,-45.05194 4.39624,-45.05194 0,0 -25.49756,17.34221 -43.41418,17.34221 -17.91662,0 -41.93121,-17.35888 -41.93121,-17.35888 0,0 7.937,27.01758 3.09241,44.34094 -4.84459,17.32336 -29.45118,36.83331 -29.45118,36.83331 0,0 32.157,1.85266 44.36768,10.099 12.21068,8.24634 24.62872,40.01825 24.62872,40.01825 0,0 16.49683,-35.0072 23.39508,-40.01825 6.89825,-5.01105 45.66272,-10.14254 45.66272,-10.14254 0,0 -28.33691,-28.19816 -30.74628,-36.06211 l 0,1e-5 z M 114.102,125.53326 c -12.707,8.81006 -19.125,28.12909 -19.125,28.12909 0,0 -9.5238,-21.21338 -19.96082,-28.4491 -10.43702,-7.23572 -31.78644,-9.13885 -31.78644,-9.13885 0,0 16.472,-14.55133 20.45032,-27.59229 3.97832,-13.04096 -0.68134,-33.28839 -0.68134,-33.28839 0,0 17.72461,10.91608 31.44842,10.93482 13.72381,0.01874 32.56067,-10.9223 32.56067,-10.9223 0,0 -5.535,20.44415 -1.13165,33.05334 4.40335,12.60919 20.89417,27.78217 20.89417,27.78217 0,0 -19.96125,0.68152 -32.66833,9.49151 z"
         inkscape:connector-curvature="0"
         style="fill:#ffffff" />
    </g>
  </g>
</svg>
