<?xml version="1.0" encoding="UTF-8" standalone="no"?>
<svg
   xmlns:dc="http://purl.org/dc/elements/1.1/"
   xmlns:cc="http://creativecommons.org/ns#"
   xmlns:rdf="http://www.w3.org/1999/02/22-rdf-syntax-ns#"
   xmlns:svg="http://www.w3.org/2000/svg"
   xmlns="http://www.w3.org/2000/svg"
   xmlns:sodipodi="http://sodipodi.sourceforge.net/DTD/sodipodi-0.dtd"
   xmlns:inkscape="http://www.inkscape.org/namespaces/inkscape"
   width="23pt"
   height="24pt"
   viewBox="0 0 23 24"
   version="1.1"
   id="svg5"
   sodipodi:docname="mathematica.svg"
   inkscape:version="0.92.1 r15371">
  <metadata
     id="metadata11">
    <rdf:RDF>
      <cc:Work
         rdf:about="">
        <dc:format>image/svg+xml</dc:format>
        <dc:type
           rdf:resource="http://purl.org/dc/dcmitype/StillImage" />
      </cc:Work>
    </rdf:RDF>
  </metadata>
  <defs
     id="defs9" />
  <sodipodi:namedview
     pagecolor="#ffffff"
     bordercolor="#666666"
     borderopacity="1"
     objecttolerance="10"
     gridtolerance="10"
     guidetolerance="10"
     inkscape:pageopacity="0"
     inkscape:pageshadow="2"
     inkscape:window-width="1366"
     inkscape:window-height="705"
     id="namedview7"
     showgrid="false"
     inkscape:zoom="32"
     inkscape:cx="13.061392"
     inkscape:cy="6.3138494"
     inkscape:window-x="-8"
     inkscape:window-y="-8"
     inkscape:window-maximized="1"
     inkscape:current-layer="surface14" />
  <g
     id="surface14">
    <path
       style="fill:#f44336;fill-opacity:1;fill-rule:evenodd;stroke:#f44336;stroke-width:1.03299999;stroke-linejoin:round;stroke-miterlimit:4;stroke-dasharray:none;stroke-opacity:1"
       d="m 15.349609,2.03125 -0.09766,0.033203 -0.613281,1.0585938 -0.605469,1.0175781 -1.623047,2.7851562 h -0.02344 L 7.2460938,4.6660156 7.1132812,4.6035156 h -0.023437 v 0.1230469 l 0.033203,0.2167969 v 0.1152344 l 0.1757812,1.6347656 v 0.109375 l 0.042969,0.3359375 v 0.109375 l 0.2929687,2.8496091 v 0.09961 l 0.023437,0.109375 v 0.08008 l -3.1308593,0.675781 -0.052734,0.01953 -0.609375,0.132813 -0.033203,0.01367 h -0.056641 l -1.4609375,0.326172 -0.052734,0.0098 -0.2265626,0.04687 v 0.109375 l 0.023438,0.01367 2.4785156,2.78125 0.070312,0.07031 0.1523437,0.175781 1.0722656,1.210937 v 0.0078 l -0.070312,0.06641 -0.2929688,0.341797 -3.4199219,3.833984 -0.013672,0.0098 v 0.109375 l 0.095703,0.0078 0.3925781,0.09961 2.2636719,0.488281 v 0.0078 l 2.8515625,0.628907 h 0.019531 v 0.0625 l -0.046875,0.335937 v 0.107422 l -0.0625,0.548828 v 0.109375 l -0.046875,0.326172 v 0.109375 l -0.060547,0.548828 v 0.107422 L 7.375,24.375 v 0.107422 l -0.048828,0.326172 v 0.109375 l -0.060547,0.548828 v 0.109375 l -0.066406,0.542969 v 0.109375 L 7.15625,26.558594 v 0.109375 l -0.066406,0.542969 v 0.138671 h 0.048828 l 4.855469,-2.132812 0.392578,-0.179688 h 0.02344 l 0.236328,0.416016 0.71875,1.214844 0.01953,0.04297 1.138672,1.953124 0.21289,0.34961 0.539063,0.925781 0.0098,0.0293 h 0.123047 l 0.0059,-0.0293 0.02344,-0.0332 0.746094,-1.261719 0.01953,-0.05664 0.798828,-1.376953 0.421875,-0.71875 0.859375,-1.455079 0.06641,0.01758 5.207032,2.294921 h 0.04687 v -0.113281 l -0.183594,-1.759766 v -0.109374 l -0.04297,-0.326172 v -0.109375 l -0.04687,-0.326172 v -0.113281 l -0.04297,-0.326172 v -0.107422 l -0.04297,-0.326172 v -0.109375 l -0.04297,-0.326172 v -0.113281 l -0.04687,-0.326172 V 22.748052 L 23.111409,22.42188 V 22.3125 l -0.04297,-0.326172 v -0.113281 l -0.0332,-0.226563 v -0.07031 l 2.175782,-0.472656 0.05664,-0.0098 0.611328,-0.142578 h 0.03711 V 20.9375 l 0.30664,-0.06641 0.03906,-0.01367 h 0.05664 l 0.509766,-0.119141 0.0332,-0.01367 h 0.05664 l 0.259765,-0.06641 h 0.04297 l 1.353516,-0.306641 0.09375,-0.0098 v -0.08594 l -0.01953,-0.01758 -1.587891,-1.789062 -0.03711,-0.03711 -0.261719,-0.292968 -1.904297,-2.138672 v -0.0078 l 0.392578,-0.43164 0.533203,-0.609375 2.865235,-3.210938 0.01953,-0.01367 v -0.08594 l -0.04687,-0.0098 -1.716797,-0.373047 -0.496094,-0.113281 -0.0625,-0.01367 -3.308594,-0.724609 v -0.06055 L 23.613362,4.640559 V 4.613215 h -0.05664 L 23.154297,4.7929688 23.140625,4.8125 h -0.0332 l -4.408203,1.9335938 -0.396485,0.1796874 h -0.01953 L 15.578125,2.28125 15.447266,2.0878906 15.427734,2.0273438 Z m -0.002,1.484375 1.820313,3.0976562 0.453125,0.7890626 -0.0098,0.033203 -1.574219,2.015625 -0.689453,0.8789062 -0.01563,-0.01367 -0.34375,-0.4453123 -0.05273,-0.066406 -1.863281,-2.3828125 0.03906,-0.083984 1.837891,-3.1542968 0.382812,-0.6542969 z m 6.544922,2.71875 -0.0098,0.033203 -0.224609,0.3007813 -0.716797,0.087891 z M 8.8027364,6.240235 8.8730484,6.267579 9.7753921,6.6660165 H 9.1113281 L 8.8125,6.2675781 Z M 22.595703,6.6660156 22.431641,8.3300781 22.28125,7.09375 22.582031,6.6835938 Z M 10.25,6.875 10.320312,6.90625 11.259766,7.3183594 10.25,7.0859375 Z m 9.849609,0.1542969 0.02734,0.2246093 -1.757812,0.5371094 0.0039,-0.00391 0.212891,-0.095703 1.353515,-0.5917968 z m -7.207031,1.4882812 1.257813,1.6054689 v 0.01367 L 12.644531,9.5996094 Z M 17.625,8.7460938 17.904297,9.65625 17.59375,9.7675781 l -0.119141,0.029297 -0.935547,0.3398439 0.0098,-0.0293 1.035156,-1.3085938 z m -6.666016,1.1152343 1.314454,0.4746099 1.197265,0.416015 0.06445,0.02734 1.404297,0.496094 0.01563,4.115234 -0.482422,-0.15625 -0.894531,-0.298828 -0.107422,-0.05078 -0.980469,-0.326172 -1.02539,-0.341797 -0.388672,-0.132813 -0.01367,-0.339843 -0.04297,-1.59375 -0.01367,-0.382813 -0.01953,-1.191406 -0.01758,-0.396484 z m 8.777344,0 -0.01563,0.3027339 -0.03711,1.201172 -0.0098,0.402344 -0.04297,1.966797 -0.01367,0.349609 -0.449219,0.15625 -0.978516,0.326172 -1.027344,0.341797 -0.949218,0.326172 -0.472657,0.15625 0.01367,-4.115234 2.175782,-0.769532 z m 0.779297,0.5820309 0.119141,0.980469 1.054687,-0.128906 -1.220703,1.736328 -0.02344,0.0078 0.01367,-0.24414 0.02344,-1.169922 z m -12.6015625,0.714844 0.203125,0.292969 1.9296875,2.732422 -3.4765625,1.291015 -0.066406,0.01953 L 3.875,12.542969 3.5019531,12.126953 l 0.00391,-0.01367 0.1523437,-0.02344 0.5664063,-0.132813 0.1855468,-0.0293 0.4492188,-0.103515 0.056641,-0.01367 z m 14.8613285,0.0039 4.378906,0.951172 0.03906,0.01367 -0.0293,0.0332 -2.605468,2.921875 -0.369141,0.416016 -0.123047,-0.04687 -3.417968,-1.267578 0.632812,-0.908203 0.203125,-0.28711 z M 9.0488281,11.361328 h 1.1484379 l 0.04687,1.677734 -0.01758,-0.0078 -1.0175776,-1.4375 z m 1.8105469,3.5 0.203125,0.08008 1.027344,0.335938 0.949218,0.326172 0.994141,0.330078 0.652344,0.222656 -0.08594,0.123047 -2.296875,3.111328 -1.353515,-0.402344 -0.109375,-0.02344 -0.04687,-0.01953 -2.5351565,-0.746093 1.25,-1.626953 1.3085935,-1.703125 z m 8.974609,0 0.04297,0.0078 2.382813,3.103515 0.175781,0.226563 -0.169922,0.04687 -0.04297,0.01953 -2.927734,0.855469 -0.140625,0.04297 -0.751953,0.226563 -0.02344,-0.0039 -1.404297,-1.919922 -0.232421,-0.318359 -0.728516,-0.96875 -0.0098,-0.02344 0.625,-0.212891 1.025391,-0.339843 0.951172,-0.326172 1.02539,-0.335938 z m -10.3554684,0.40625 -0.00977,0.02734 -0.5390625,0.697266 -0.3886719,-0.388672 0.8769532,-0.326172 z m 11.7363284,0 0.05664,0.0098 0.771485,0.283203 0.951172,0.359375 -0.88086,0.52539 -0.5,-0.638671 -0.03906,-0.05664 -0.34961,-0.455078 z m -14.4570315,1 -0.8925781,0.890625 0.4726562,-0.529297 0.2753906,-0.30664 z m 17.2148435,0.02148 0.08984,0.0332 0.06055,0.05664 0.738281,0.835938 0.05664,0.05664 0.271484,0.304688 -0.339844,0.179687 z m -8.630859,0.353516 0.0293,0.01953 1.839844,2.496094 0.04297,0.06641 0.457032,0.621094 0.0098,0.04102 -0.117187,0.15625 -0.5625,0.83789 -0.0625,0.09961 -0.326172,0.457031 -1.294922,1.90625 -0.01563,0.0098 -1.574219,-2.292969 -0.126953,-0.212891 -0.658203,-0.945312 -0.0098,-0.04883 2.15625,-2.921875 0.0098,-0.01367 z m 10.435547,1.591797 0.753906,0.84375 0.08398,0.109375 -0.363281,-0.123047 -0.04883,-0.01758 z M 4.7304688,18.431641 5.1269531,18.830078 4.2773438,19.121094 4.0742188,19.1875 4.125,19.111328 Z m 17.6328122,0.626953 -1.140625,0.597656 0.460938,0.878906 -0.246094,-0.07617 -0.359375,-0.117187 -1.457031,-0.464844 0.01563,-0.01367 z m -12.9160154,0.339844 1.6289064,0.474609 -0.0078,0.0098 -0.611328,0.19336 -0.5898435,0.179687 -0.042969,0.01367 -0.6542969,0.208985 z m -3.6875,0.06445 0.4238282,0.425781 2.6757812,0.689453 -0.7558594,0.240234 -0.072266,0.0059 -2.8046875,-0.625 -0.9921875,-0.208985 0.00977,-0.0078 z m 19.9550784,0.273437 0.730468,0.25 v 0.0039 l -0.609374,0.132813 -0.05664,0.01953 -1.425781,0.306641 z m -13.640625,0.675781 0.0098,0.302735 0.01367,0.46289 0.0332,1.816407 0.0332,0.921875 -0.0098,0.339843 -0.320313,0.142579 -3.8164059,1.673828 0.042969,-0.496094 0.042969,-0.339844 0.023437,-0.302734 0.041016,-0.341797 0.048828,-0.542969 0.060547,-0.558594 0.023437,-0.30664 0.042969,-0.335938 0.042969,-0.548828 0.066406,-0.552734 0.017578,-0.185547 1.9394529,-0.609375 0.0039,-0.01953 0.402344,-0.13086 z m 6.544922,0 1.660156,0.519532 v 0.01953 l 0.416015,0.132812 1.527344,0.482422 0.0293,0.306641 0.04102,0.339844 0.05664,0.544921 0.05273,0.558594 0.02344,0.306641 0.04297,0.335937 0.04297,0.548828 0.05664,0.433594 0.103516,1.13086 -0.103516,-0.05273 -4.033203,-1.763672 -0.0059,-0.40625 0.08008,-3.158203 z m -5.726563,0.822266 0.01953,0.0098 0.08984,0.142578 0.798828,1.166015 -0.851562,0.708985 -0.04687,-1.917969 z m 4.894531,0 h 0.0098 l -0.0059,0.08008 -0.02734,0.904297 -0.0059,0.285156 -0.638671,-0.296875 z m -3.851562,4.806641 1.017578,1.220703 0.002,0.49414 -0.02344,-0.0098 -0.0332,-0.06641 -0.619141,-1.054688 -0.01563,-0.02344 z m 2.041015,0.8125 0.244141,0.111328 -0.457031,0.78125 -0.02344,0.0098 0.002,-0.708984 z"
       transform="scale(0.75000001)"
       id="path2"
       inkscape:connector-curvature="0"
       sodipodi:nodetypes="ccccccccccccccccccccccccccccccccccccccccccccccccccccccccccccccccccccccccccccccccccccccccccccccccccccccccccccccccccccccccccccccccccccccccccccccccccccccccccccccccccccccccccccccccccccccccccccccccccccccccccccccccccccccccccccccccccccccccccccccccccccccccccccccccccccccccccccccccccccccccccccccccccccccccccccccccccccccccccccccccccccccccccccccccccccccccccccccccccccccccccccccccccccccccccccccccccccccccccccccccccccccccccccccccccccccccccccccccccccccccccccccccccccccccccccccccccccccccccccc" />
  </g>
</svg>
