<?xml version="1.0" encoding="UTF-8"?>
<svg width="23pt" height="24pt" version="1.1" viewBox="0 0 23 24" xmlns="http://www.w3.org/2000/svg">
 <path transform="scale(.75)" d="m15.35 2.0312-0.09766 0.033203-0.61328 1.0586-0.60547 1.0176-1.623 2.7852h-0.02344l-5.1406-2.2598-0.13281-0.0625h-0.023437v0.12305l0.033203 0.2168v0.11523l0.17578 1.6348v0.10938l0.042969 0.33594v0.10938l0.29297 2.8496v0.09961l0.023437 0.10938v0.08008l-3.1309 0.67578-0.052734 0.01953-0.60938 0.13281-0.033203 0.01367h-0.056641l-1.4609 0.32617-0.052734 0.0098-0.22656 0.04687v0.10938l0.023438 0.01367 2.4785 2.7812 0.070312 0.07031 0.15234 0.17578 1.0723 1.2109v0.0078l-0.070312 0.06641-0.29297 0.3418-3.4199 3.834-0.013672 0.0098v0.10938l0.095703 0.0078 0.39258 0.09961 2.2637 0.48828v0.0078l2.8516 0.62891h0.019531v0.0625l-0.046875 0.33594v0.10742l-0.0625 0.54883v0.10938l-0.046875 0.32617v0.10938l-0.060547 0.54883v0.10742l-0.066406 0.5449v0.10742l-0.048828 0.32617v0.10938l-0.060547 0.54883v0.10938l-0.066406 0.54297v0.10938l-0.042969 0.33008v0.10938l-0.066406 0.54297v0.13867h0.048828l4.8555-2.1328 0.39258-0.17969h0.02344l0.23633 0.41602 0.71875 1.2148 0.01953 0.04297 1.1387 1.9531 0.21289 0.34961 0.53906 0.92578 0.0098 0.0293h0.12305l0.0059-0.0293 0.02344-0.0332 0.74609-1.2617 0.01953-0.05664 0.79883-1.377 0.42188-0.71875 0.85938-1.4551 0.06641 0.01758 5.207 2.2949h0.04687v-0.11328l-0.18359-1.7598v-0.10937l-0.04297-0.32617v-0.10938l-0.04687-0.32617v-0.11328l-0.04297-0.32617v-0.10742l-0.04297-0.32617v-0.10938l-0.04297-0.32617v-0.11328l-0.04687-0.32617v-0.10938l-0.04297-0.32617v-0.10938l-0.04297-0.32617v-0.11328l-0.0332-0.22656v-0.07031l2.1758-0.47266 0.05664-0.0098 0.61133-0.14258h0.03711v-0.01364l0.30664-0.06641 0.03906-0.01367h0.05664l0.50977-0.11914 0.0332-0.01367h0.05664l0.25976-0.06641h0.04297l1.3535-0.30664 0.09375-0.0098v-0.08594l-0.01953-0.01758-1.5879-1.7891-0.03711-0.03711-0.26172-0.29297-1.9043-2.1387v-0.0078l0.39258-0.43164 0.5332-0.60938 2.8652-3.2109 0.01953-0.01367v-0.08594l-0.04687-0.0098-1.7168-0.37305-0.49609-0.11328-0.0625-0.01367-3.3086-0.72461v-0.06055l0.57617-5.6855v-0.027344h-0.05664l-0.40242 0.17975-0.013672 0.019531h-0.0332l-4.4082 1.9336-0.39648 0.17969h-0.01953l-2.7051-4.6445-0.13086-0.19336-0.019532-0.060547zm-2e-3 1.4844 1.8203 3.0977 0.45312 0.78906-0.0098 0.033203-1.5742 2.0156-0.68945 0.87891-0.01563-0.01367-0.34375-0.44531-0.05273-0.066406-1.8633-2.3828 0.03906-0.083984 1.8379-3.1543 0.38281-0.6543zm6.5449 2.7188-0.0098 0.033203-0.22461 0.30078-0.7168 0.087891zm-13.09 0.00586 0.070312 0.027344 0.90234 0.39844h-0.66406l-0.29883-0.39844zm13.793 0.42578-0.16406 1.6641-0.15039-1.2363 0.30078-0.41016zm-12.346 0.20898 0.070312 0.03125 0.93945 0.41211-1.0098-0.23242zm9.8496 0.1543 0.02734 0.22461-1.7578 0.53711 0.0039-0.00391 0.21289-0.095703 1.3535-0.5918zm-7.207 1.4883 1.2578 1.6055v0.01367l-1.5059-0.53711zm4.7324 0.22852 0.2793 0.91016-0.31055 0.11133l-0.11914 0.029297-0.93555 0.33984 0.0098-0.0293 1.0352-1.3086zm-6.666 1.1152 1.3145 0.47461 1.1973 0.41602 0.06445 0.02734 1.4043 0.49609 0.01563 4.1152-0.48242-0.15625-0.89453-0.29883-0.10742-0.05078-0.98047-0.32617-1.0254-0.3418-0.38867-0.13281-0.01367-0.33984-0.04297-1.5938-0.01367-0.38281-0.01953-1.1914-0.01758-0.39648zm8.7773 0-0.01563 0.30273-0.03711 1.2012-0.0098 0.40234-0.04297 1.9668-0.01367 0.34961-0.44922 0.15625-0.97852 0.32617-1.0273 0.3418-0.94922 0.32617-0.47266 0.15625 0.01367-4.1152 2.1758-0.76953zm0.7793 0.58203 0.11914 0.98047 1.0547-0.12891-1.2207 1.7363-0.02344 0.0078 0.01367-0.24414 0.02344-1.1699zm-12.602 0.71484 0.20312 0.29297 1.9297 2.7324-3.4766 1.291-0.066406 0.01953l-2.6289-2.9512-0.37305-0.41602 0.00391-0.01367 0.15234-0.02344 0.56641-0.13281 0.18555-0.0293 0.44922-0.10352 0.056641-0.01367zm14.861 0.0039 4.3789 0.95117 0.03906 0.01367-0.0293 0.0332-2.6055 2.9219-0.36914 0.41602-0.12305-0.04687-3.418-1.2676 0.63281-0.9082 0.20312-0.28711zm-13.727 0.19922h1.1484l0.04687 1.6777-0.01758-0.0078-1.0176-1.4375zm1.8105 3.5 0.20312 0.08008 1.0273 0.33594 0.94922 0.32617 0.99414 0.33008 0.65234 0.22266-0.08594 0.12305-2.2969 3.1113-1.3535-0.40234-0.10938-0.02344-0.04687-0.01953-2.5352-0.74609 1.25-1.627 1.3086-1.7031zm8.9746 0 0.04297 0.0078 2.3828 3.1035 0.17578 0.22656-0.16992 0.04687-0.04297 0.01953-2.9277 0.85547-0.14062 0.04297-0.75195 0.22656-0.02344-0.0039-1.4043-1.9199-0.23242-0.31836-0.72852-0.96875-0.0098-0.02344 0.625-0.21289 1.0254-0.33984 0.95117-0.32617 1.0254-0.33594zm-10.355 0.40625-0.00977 0.02734-0.53906 0.69727-0.38867-0.38867 0.87695-0.32617zm11.736 0 0.05664 0.0098 0.77148 0.2832 0.95117 0.35938-0.88086 0.52539-0.5-0.63867-0.03906-0.05664-0.34961-0.45508zm-14.457 1-0.89258 0.89062 0.47266-0.5293 0.27539-0.30664zm17.215 0.02148 0.08984 0.0332 0.06055 0.05664 0.73828 0.83594 0.05664 0.05664 0.27148 0.30469-0.33984 0.17969zm-8.6309 0.35352 0.0293 0.01953 1.8398 2.4961 0.04297 0.06641 0.45703 0.62109 0.0098 0.04102-0.11719 0.15625-0.5625 0.83789-0.0625 0.09961-0.32617 0.45703-1.2949 1.9062-0.01563 0.0098-1.5742-2.293-0.12695-0.21289-0.6582-0.94531-0.0098-0.04883 2.1562-2.9219 0.0098-0.01367zm10.436 1.5918 0.75391 0.84375 0.08398 0.10938-0.36328-0.12305-0.04883-0.01758zm-21.047 0.19727 0.39648 0.39844-0.84961 0.29102-0.20312 0.066406 0.050781-0.076172zm17.633 0.62695-1.1406 0.59766 0.46094 0.87891-0.24609-0.07617-0.35938-0.11719-1.457-0.46484 0.01563-0.01367zm-12.916 0.33984 1.6289 0.47461-0.0078 0.0098-0.61133 0.19336-0.58984 0.17969-0.042969 0.01367-0.6543 0.20898zm-3.6875 0.06445 0.42383 0.42578 2.6758 0.68945-0.75586 0.24023-0.072266 0.0059-2.8047-0.625-0.99219-0.20898 0.00977-0.0078zm19.955 0.27344 0.73047 0.25v0.0039l-0.60937 0.13281-0.05664 0.01953-1.4258 0.30664zm-13.641 0.67578 0.0098 0.30274 0.01367 0.46289 0.0332 1.8164 0.0332 0.92188-0.0098 0.33984-0.32031 0.14258-3.8164 1.6738 0.042969-0.49609 0.042969-0.33984 0.023437-0.30273 0.041016-0.3418 0.048828-0.54297 0.060547-0.55859 0.023437-0.30664 0.042969-0.33594 0.042969-0.54883 0.066406-0.55273 0.017578-0.18555 1.9395-0.60938 0.0039-0.01953 0.40234-0.13086zm6.5449 0 1.6602 0.51953v0.01953l0.41602 0.13281 1.5273 0.48242 0.0293 0.30664 0.04102 0.33984 0.05664 0.54492 0.05273 0.55859 0.02344 0.30664 0.04297 0.33594 0.04297 0.54883 0.05664 0.43359 0.10352 1.1309-0.10352-0.05273-4.0332-1.7637-0.0059-0.40625 0.08008-3.1582zm-5.7266 0.82227 0.01953 0.0098 0.08984 0.14258 0.79883 1.166-0.85156 0.70898-0.04687-1.918zm4.8945 0h0.0098l-0.0059 0.08008-0.02734 0.9043-0.0059 0.28516-0.63867-0.29688zm-3.8516 4.8066 1.0176 1.2207 2e-3 0.49414-0.02344-0.0098-0.0332-0.06641-0.61914-1.0547-0.01563-0.02344zm2.041 0.8125 0.24414 0.11133-0.45703 0.78125-0.02344 0.0098 2e-3 -0.70898z" fill="#f44336" fill-rule="evenodd" stroke="#f44336" stroke-linejoin="round" stroke-width="1.033"/>
</svg>
