<svg xmlns="http://www.w3.org/2000/svg" version="1.1" viewBox="0 0 24 24"><defs><linearGradient x1="0.125" y1="1" x2="0" y2="0" id="maven-gradient"><stop offset="0%" stop-color="#ab47bc"/><stop offset="37.5%" stop-color="#ab47bc"/><stop offset="37.501%" stop-color="#d32f2f"/><stop offset="54.25%" stop-color="#d32f2f"/><stop offset="54.251%" stop-color="#ff7043"/><stop offset="69.75%" stop-color="#ff7043"/><stop offset="69.751%" stop-color="#ffa726"/><stop offset="100%" stop-color="#ffa726"/></linearGradient></defs><path d="M 22 2 C 22 2 14.36 1.63 8.34 9.88 3.72 16.21 2 22 2 22 l 1.94 -1 c 1.44 -2.5 2.19 -3.53 3.6 -5 2.53 0.74 5.17 0.65 7.46 -2 C 13 13.44 11.4 13.57 9.04 13.81 11.69 12 13.5 11.6 16 12 l 1 -2 C 15.2 9.66 14 9.63 12.22 10.04 14.19 8.65 15.56 7.87 18 8 l 1.11 -1.73 c -1.53 -0.06 -2.4 -0.02 -4.19 0.3 1.61 -1.46 3.08 -2.12 5.22 -2.25 0 0 1.05 -1.89 1.86 -2.32 Z" fill="url(#maven-gradient)"/></svg>