<?xml version="1.0" encoding="UTF-8" standalone="no"?><!-- Generator: Gravit.io --><svg xmlns="http://www.w3.org/2000/svg" xmlns:xlink="http://www.w3.org/1999/xlink" style="isolation:isolate" viewBox="0 0 18 18" width="18pt" height="18pt"><defs><clipPath id="_clipPath_9kdq3YJ4Ln0G2ATo42a2FzeYrYPJExWX"><rect width="18" height="18"/></clipPath></defs><g clip-path="url(#_clipPath_9kdq3YJ4Ln0G2ATo42a2FzeYrYPJExWX)"><rect width="18" height="18" style="fill:rgb(0,0,0)" fill-opacity="0"/><path d=" M 3.4 2 L 14.6 2 C 15.373 2 16 2.627 16 3.4 L 16 14.6 C 16 15.373 15.373 16 14.6 16 L 3.4 16 C 2.627 16 2 15.373 2 14.6 L 2 3.4 C 2 2.627 2.627 2 3.4 2 Z  M 4.8 4.8 L 4.8 7.6 L 7.6 7.6 L 7.6 9 L 6.2 9 L 6.2 13.2 L 7.6 13.2 L 7.6 11.8 L 10.4 11.8 L 10.4 13.2 L 11.8 13.2 L 11.8 9 L 10.4 9 L 10.4 7.6 L 13.2 7.6 L 13.2 4.8 L 10.4 4.8 L 10.4 7.6 L 7.6 7.6 L 7.6 4.8 L 4.8 4.8 Z " fill="rgb(76,175,80)"/></g></svg>