<?xml version="1.0" encoding="UTF-8" standalone="no"?><!-- Generator: Gravit.io --><svg xmlns="http://www.w3.org/2000/svg" xmlns:xlink="http://www.w3.org/1999/xlink" style="isolation:isolate" viewBox="0 0 10 11" width="10pt" height="11pt"><defs><clipPath id="_clipPath_HN2xi3W45uvDlKR4uRJByrKYmUbTMFHr"><rect width="10" height="11"/></clipPath></defs><g clip-path="url(#_clipPath_HN2xi3W45uvDlKR4uRJByrKYmUbTMFHr)"><rect width="10" height="11" style="fill:rgb(0,0,0)" fill-opacity="0"/><rect x="2" y="0" width="8" height="8" transform="matrix(1,0,0,1,0,0)" fill="rgb(89,184,58)"/><clipPath id="_clipPath_LKlCVNKk6xfpruN8KxvGL6S0EY1yNZQG"><rect x="2" y="0" width="8" height="8" transform="matrix(1,0,0,1,0,0)" fill="rgb(89,184,58)"/></clipPath><g clip-path="url(#_clipPath_LKlCVNKk6xfpruN8KxvGL6S0EY1yNZQG)"><rect x="3" y="2" width="2" height="2" transform="matrix(1,0,0,1,0,0)" fill="rgb(26,16,17)"/><rect x="7" y="2" width="2" height="2" transform="matrix(1,0,0,1,0,0)" fill="rgb(26,16,17)"/><rect x="5" y="4" width="2" height="2" transform="matrix(1,0,0,1,0,0)" fill="rgb(26,16,17)"/><rect x="4" y="5" width="1" height="2" transform="matrix(1,0,0,1,0,0)" fill="rgb(26,16,17)"/><rect x="7" y="5" width="1" height="2" transform="matrix(1,0,0,1,0,0)" fill="rgb(26,16,17)"/></g><rect x="0" y="0" width="2" height="8" transform="matrix(1,0,0,1,0,0)" fill="rgb(68,138,40)"/><rect x="1" y="9" width="2" height="2" transform="matrix(1,0,0,1,0,0)" fill="rgb(68,138,40)"/><rect x="3" y="9" width="6" height="2" transform="matrix(1,0,0,1,0,0)" fill="rgb(89,184,58)"/><rect x="1" y="8" width="8" height="1" transform="matrix(1,0,0,1,0,0)" fill="rgb(68,138,40)"/></g></svg>