<?xml version="1.0" encoding="UTF-8" standalone="no"?><!-- Generator: Gravit.io --><svg xmlns="http://www.w3.org/2000/svg" xmlns:xlink="http://www.w3.org/1999/xlink" style="isolation:isolate" viewBox="0 0 18 18" width="18pt" height="18pt"><defs><clipPath id="_clipPath_ZCf2LQlLcDT1rvUIMPQZ2BwFsyQtxuDq"><rect width="18" height="18"/></clipPath></defs><g clip-path="url(#_clipPath_ZCf2LQlLcDT1rvUIMPQZ2BwFsyQtxuDq)"><rect width="18" height="18" style="fill:rgb(0,0,0)" fill-opacity="0"/><rect x="0" y="0" width="18" height="18" transform="matrix(1,0,0,1,0,0)" fill="rgb(89,184,58)"/><clipPath id="_clipPath_IqV1t47XAPzoKOUWtMSfYUWN0BwegKNN"><rect x="0" y="0" width="18" height="18" transform="matrix(1,0,0,1,0,0)" fill="rgb(89,184,58)"/></clipPath><g clip-path="url(#_clipPath_IqV1t47XAPzoKOUWtMSfYUWN0BwegKNN)"><path d=" M 2.25 4.5 L 2.25 9 L 6.75 9 L 6.75 11.25 L 4.5 11.25 L 4.5 15.75 L 6.75 15.75 L 6.75 13.5 L 11.25 13.5 L 11.25 15.75 L 13.5 15.75 L 13.5 11.25 L 11.25 11.25 L 11.25 9 L 15.75 9 L 15.75 4.5 L 11.25 4.5 L 11.25 9 L 6.75 9 L 6.75 4.5 L 2.25 4.5 Z " fill="rgb(0,0,0)"/></g></g></svg>