<svg viewBox="0 0 16 16" xml:space="preserve" xmlns="http://www.w3.org/2000/svg"><g fill="#f9a825" fill-rule="evenodd"><path d="M10.199 2.401a1.51 1.51 0 0 0-2.106 0L2.478 7.908a.503.503 0 0 1-.702 0 .48.48 0 0 1 0-.688l5.615-5.507a2.516 2.516 0 0 1 3.51 0 2.401 2.401 0 0 1 .702 2.065 2.508 2.508 0 0 1 2.105.688l.03.03a2.4 2.4 0 0 1 0 3.441l-5.08 4.98a.16.16 0 0 0 0 .23l1.044 1.022a.48.48 0 0 1 0 .689.503.503 0 0 1-.702 0l-1.043-1.023a1.12 1.12 0 0 1 0-1.606l5.079-4.98a1.44 1.44 0 0 0 0-2.066l-.03-.028a1.51 1.51 0 0 0-2.104-.002L6.72 9.256l-.002.001-.057.057a.503.503 0 0 1-.702 0 .48.48 0 0 1 0-.689l4.243-4.16a1.44 1.44 0 0 0-.002-2.064z"/><path d="M9.497 3.778a.48.48 0 0 0 0-.688.503.503 0 0 0-.702 0L4.642 7.162a2.4 2.4 0 0 0 0 3.442 2.516 2.516 0 0 0 3.51 0l4.153-4.073a.48.48 0 0 0 0-.688.503.503 0 0 0-.703 0L7.45 9.916a1.51 1.51 0 0 1-2.106 0 1.44 1.44 0 0 1 0-2.065z"/></g></svg>