<?xml version="1.0" encoding="UTF-8" standalone="no"?>
<svg xmlns="http://www.w3.org/2000/svg" viewBox="0 0 24 24" version="1.1">
    <path fill="#29b6f6" d="M2.586 5.26v13.484h3.746v-.79H4.644V6.049h1.688V5.26zm15.079 0v.789h1.69v11.905h-1.69v.79h3.746V5.26z" />
    <path fill="#ffd600" d="M10.93 7.888c-.19-1.301-.715-3.098-.776-3.955a1.583 1.582 0 011.032-1.593 2.042 2.042 0 011.623 0 1.583 1.582 0 011.036 1.593c-.06.857-.585 2.655-.775 3.955" />
    <path fill="#ffd600" d="M13.232 7.911l-.326-.048c.09-.618.252-1.336.409-2.03a15.853 15.85 0 00.365-1.91 1.423 1.423 0 00-.938-1.438 1.879 1.879 0 00-1.487 0 1.423 1.423 0 00-.934 1.435 15.864 15.861 0 00.365 1.912c.157.693.319 1.41.41 2.029l-.327.048c-.088-.605-.25-1.316-.405-2.004a15.967 15.964 0 01-.371-1.964 1.733 1.733 0 011.129-1.758 2.207 2.207 0 011.759 0A1.733 1.733 0 0114.01 3.94a15.975 15.973 0 01-.372 1.964c-.152.69-.317 1.4-.406 2.006z" />
    <path fill="#ffd600" d="M9.018 8.972c-.815-1.032-2.17-2.327-2.65-3.037a1.583 1.582 0 01.096-1.9 2.042 2.042 0 011.405-.81 1.583 1.582 0 011.693.866c.376.772.82 2.591 1.307 3.814" />
    <path fill="#ffd600" d="M8.888 9.074c-.38-.481-.874-1.015-1.353-1.534a15.96 15.957 0 01-1.303-1.514 1.733 1.733 0 01.098-2.088 2.207 2.207 0 011.527-.878 1.733 1.733 0 011.857.956 15.966 15.963 0 01.66 1.886c.212.673.425 1.369.651 1.938l-.307.122c-.232-.581-.45-1.286-.66-1.962a15.858 15.855 0 00-.642-1.839 1.423 1.423 0 00-1.529-.775 1.879 1.879 0 00-1.286.743 1.423 1.423 0 00-.093 1.714 15.858 15.855 0 001.274 1.475c.484.523.983 1.062 1.37 1.553z" />
    <path fill="#ffd600" d="M7.902 10.869c-1.222-.487-3.04-.929-3.814-1.307a1.583 1.582 0 01-.866-1.692 2.042 2.042 0 01.811-1.404 1.583 1.582 0 011.9-.096c.714.481 2.004 1.834 3.037 2.649" />
    <path fill="#ffd600" d="M7.842 11.022c-.572-.226-1.265-.442-1.939-.65a15.966 15.963 0 01-1.886-.66 1.733 1.733 0 01-.956-1.857 2.207 2.207 0 01.88-1.524 1.733 1.733 0 012.088-.099 15.964 15.961 0 011.509 1.304c.517.479 1.053.973 1.533 1.353l-.204.256c-.491-.388-1.03-.887-1.553-1.369a15.863 15.86 0 00-1.475-1.274 1.423 1.423 0 00-1.715.093 1.879 1.879 0 00-.743 1.286 1.423 1.423 0 00.775 1.528 15.858 15.855 0 001.84.643c.68.212 1.38.425 1.962.66z" />
    <path fill="#ffd600" d="M7.885 13.073c-1.3.19-3.098.715-3.955.775a1.583 1.582 0 01-1.593-1.032 2.042 2.042 0 010-1.623 1.583 1.582 0 011.593-1.036c.857.06 2.655.585 3.955.775" />
    <path fill="#ffd600" d="M3.801 14.02a1.74 1.74 0 01-1.618-1.135 2.207 2.207 0 010-1.758 1.733 1.733 0 011.759-1.13 15.967 15.964 0 011.964.372c.687.156 1.397.319 2.004.405l-.048.326c-.618-.09-1.336-.252-2.03-.409a15.864 15.861 0 00-1.912-.365 1.423 1.423 0 00-1.438.932 1.879 1.879 0 000 1.487 1.422 1.422 0 001.436.937 15.853 15.85 0 001.912-.366c.694-.157 1.41-.318 2.03-.409l.048.326c-.606.089-1.316.25-2.004.405a15.975 15.973 0 01-1.963.372q-.07.01-.14.01z" />
    <path fill="#ffd600" d="M8.97 14.984c-1.032.814-2.325 2.168-3.037 2.648a1.583 1.582 0 01-1.899-.095 2.042 2.042 0 01-.811-1.406 1.583 1.582 0 01.866-1.687c.772-.376 2.592-.819 3.814-1.306" />
    <path fill="#ffd600" d="M5.078 18.072a1.962 1.961 0 01-1.143-.403 2.207 2.207 0 01-.88-1.526 1.733 1.733 0 01.956-1.857 15.956 15.954 0 011.886-.66c.673-.212 1.37-.424 1.938-.65l.123.306c-.581.232-1.287.45-1.962.66a15.866 15.864 0 00-1.84.642 1.423 1.423 0 00-.775 1.528 1.879 1.879 0 00.743 1.286 1.423 1.423 0 001.715.094 15.87 15.867 0 001.475-1.274c.522-.484 1.062-.983 1.553-1.37l.204.259c-.481.379-1.016.874-1.534 1.353a15.966 15.963 0 01-1.515 1.303 1.677 1.677 0 01-.944.309z" />
    <path fill="#ffd600" d="M10.869 16.099c-.487 1.222-.928 3.04-1.307 3.813a1.583 1.582 0 01-1.693.867 2.042 2.042 0 01-1.406-.812 1.583 1.582 0 01-.095-1.898c.48-.715 1.834-2.005 2.648-3.038" />
    <path fill="#ffd600" d="M8.102 20.954q-.121 0-.247-.012a2.207 2.207 0 01-1.525-.88 1.733 1.733 0 01-.098-2.087 15.963 15.96 0 011.306-1.513c.479-.517.974-1.053 1.353-1.534l.258.204c-.387.49-.887 1.03-1.369 1.553a15.858 15.855 0 00-1.274 1.475 1.423 1.423 0 00.093 1.714 1.878 1.878 0 001.286.743 1.422 1.422 0 001.529-.775 15.858 15.855 0 00.642-1.84c.213-.679.425-1.38.66-1.96l.307.121c-.226.572-.443 1.265-.651 1.939a15.966 15.963 0 01-.66 1.886 1.688 1.687 0 01-1.61.966z" />
    <path fill="#ffd600" d="M13.072 16.116c.189 1.3.714 3.097.775 3.954a1.583 1.582 0 01-1.032 1.593 2.042 2.042 0 01-1.623 0 1.583 1.582 0 01-1.036-1.593c.06-.857.585-2.655.776-3.954" />
    <path fill="#ffd600" d="M11.999 22a2.14 2.139 0 01-.88-.183A1.733 1.733 0 019.99 20.06a15.96 15.958 0 01.372-1.964c.156-.687.319-1.397.405-2.004l.326.048c-.09.618-.252 1.336-.409 2.03a15.864 15.861 0 00-.365 1.91 1.423 1.423 0 00.936 1.437 1.879 1.879 0 001.487 0 1.423 1.423 0 00.937-1.436 15.872 15.87 0 00-.365-1.912c-.157-.693-.319-1.41-.41-2.029l.327-.048c.088.606.25 1.317.405 2.004a15.97 15.968 0 01.371 1.964 1.733 1.733 0 01-1.129 1.758 2.14 2.139 0 01-.88.183z" />
    <path fill="#ffd600" d="M14.984 15.03c.814 1.033 2.168 2.326 2.648 3.038a1.583 1.582 0 01-.095 1.898 2.042 2.042 0 01-1.406.812 1.583 1.582 0 01-1.693-.867c-.376-.772-.82-2.591-1.307-3.813" />
    <path fill="#ffd600" d="M15.9 20.955a1.688 1.687 0 01-1.61-.97 15.954 15.952 0 01-.66-1.887c-.212-.673-.424-1.369-.65-1.938l.306-.122c.232.581.45 1.286.66 1.962a15.858 15.855 0 00.642 1.839 1.422 1.422 0 001.529.775 1.879 1.879 0 001.286-.743 1.423 1.423 0 00.094-1.714 15.852 15.85 0 00-1.275-1.475c-.483-.523-.983-1.062-1.37-1.553l.259-.204c.38.481.874 1.015 1.352 1.533a15.95 15.947 0 011.304 1.514 1.733 1.733 0 01-.098 2.087 2.207 2.207 0 01-1.525.88 2.027 2.026 0 01-.245.016z" />
    <path fill="#ffd600" d="M16.1 13.134c1.222.486 3.04.928 3.814 1.306a1.583 1.582 0 01.867 1.693 2.042 2.042 0 01-.812 1.406 1.583 1.582 0 01-1.899.095c-.715-.48-2.005-1.834-3.038-2.648" />
    <path fill="#ffd600" d="M18.925 18.072a1.677 1.677 0 01-.948-.304 15.965 15.962 0 01-1.517-1.306c-.517-.48-1.053-.973-1.533-1.352l.204-.254c.49.388 1.03.887 1.553 1.369a15.868 15.866 0 001.475 1.274 1.423 1.423 0 001.715-.093 1.879 1.879 0 00.743-1.286 1.423 1.423 0 00-.775-1.528 15.873 15.871 0 00-1.84-.643c-.68-.212-1.38-.425-1.962-.66l.122-.306c.572.226 1.265.443 1.939.65a15.96 15.958 0 011.886.66 1.733 1.733 0 01.956 1.858 2.207 2.207 0 01-.88 1.524 1.962 1.961 0 01-1.138.397z" />
    <path fill="#ffd600" d="M16.116 10.94c1.3-.19 3.098-.715 3.955-.776a1.583 1.582 0 011.593 1.033 2.042 2.042 0 010 1.622 1.583 1.582 0 01-1.593 1.033c-.857-.061-2.655-.586-3.955-.776" />
    <path fill="#ffd600" d="M20.2 14.02a1.399 1.399 0 01-.144 0 15.97 15.968 0 01-1.964-.372c-.687-.156-1.397-.319-2.004-.405l.048-.326c.618.09 1.336.252 2.03.409a15.872 15.87 0 001.911.365 1.422 1.422 0 001.439-.946 1.879 1.879 0 000-1.487 1.422 1.422 0 00-1.436-.936 15.868 15.866 0 00-1.912.365c-.694.157-1.41.318-2.03.409l-.048-.326c.606-.088 1.316-.25 2.004-.405a15.964 15.961 0 011.964-.372 1.733 1.733 0 011.76 1.13 2.207 2.207 0 010 1.758 1.74 1.74 0 01-1.618 1.138z" />
    <path fill="#ffd600" d="M15.031 9.02c1.033-.815 2.326-2.168 3.041-2.649a1.583 1.582 0 011.9.096 2.042 2.042 0 01.81 1.406 1.583 1.582 0 01-.866 1.692c-.772.376-2.592.82-3.814 1.307" />
    <path fill="#ffd600" d="M16.16 11.024l-.122-.307c.581-.232 1.286-.45 1.962-.66a15.858 15.855 0 001.84-.642 1.423 1.423 0 00.775-1.528A1.878 1.878 0 0019.87 6.6a1.423 1.423 0 00-1.714-.093 15.851 15.849 0 00-1.475 1.274c-.523.484-1.062.983-1.553 1.37l-.204-.259c.481-.379 1.015-.874 1.533-1.353a15.974 15.972 0 011.514-1.304 1.733 1.733 0 012.088.099 2.207 2.207 0 01.883 1.527 1.733 1.733 0 01-.956 1.857 15.966 15.963 0 01-1.886.66c-.671.204-1.371.42-1.94-.416z" />
    <path fill="#ffd600" d="M13.133 7.905c.487-1.223.929-3.04 1.307-3.814a1.583 1.582 0 011.693-.866 2.042 2.042 0 011.406.81 1.583 1.582 0 01.096 1.9c-.482.714-1.835 2.005-2.65 3.037" />
    <path fill="#ffd600" d="M13.133 7.905c.487-1.223.929-3.04 1.307-3.814a1.583 1.582 0 011.693-.866 2.042 2.042 0 011.406.81 1.583 1.582 0 01.096 1.9c-.482.714-1.835 2.005-2.65 3.037" />
    <path fill="#ffd600" d="M15.113 9.074l-.255-.202c.388-.49.887-1.03 1.37-1.553a15.858 15.855 0 001.274-1.475 1.423 1.423 0 00-.094-1.714 1.878 1.878 0 00-1.286-.743 1.423 1.423 0 00-1.528.775 15.876 15.873 0 00-.643 1.84c-.212.68-.425 1.38-.66 1.961l-.306-.122c.226-.571.442-1.265.65-1.938a15.965 15.962 0 01.66-1.886 1.733 1.733 0 011.858-.956 2.207 2.207 0 011.524.88 1.733 1.733 0 01.099 2.087 15.968 15.965 0 01-1.308 1.513c-.48.519-.976 1.054-1.355 1.533z" />
    <path fill="#ff8f00" d="M11.999 16.412a4.411 4.41 0 114.413-4.41A4.416 4.416 0 0112 16.412z" />
    <path fill="#bf360c" d="M11.999 9.437a2.563 2.563 0 102.564 2.565 2.563 2.563 0 00-2.564-2.565z" />
</svg>
