<svg xmlns="http://www.w3.org/2000/svg" version="1.1" viewBox="0 0 32 32">
   <polygon points="9.075,10.395 9.075,21.605 10.665,21.605 10.665,22.349 7.138,22.349 7.138,9.651 10.665,9.651 10.665,10.395 " style="fill:#29b6f6" id="polygon3787" transform="matrix(1.333498,0,0,1.3333416,-5.3423,-5.3319363)" />
   <polygon points="24.862,9.651 24.862,22.349 21.335,22.349 21.335,21.605 22.925,21.605 22.925,10.395 21.335,10.395 21.335,9.651 " style="fill:#29b6f6" id="polygon3789" transform="matrix(1.333498,0,0,1.3333416,-5.3423,-5.3319363)" />
   <path d="M 14.650835,10.836164 C 14.413472,9.20282 13.753391,6.946806 13.677382,5.8707993 a 1.9869119,1.986679 0 0 1 1.296159,-2.0000124 2.5643166,2.5640159 0 0 1 2.037585,0 1.9869119,1.986679 0 0 1 1.300161,2.0000124 c -0.07601,1.0760067 -0.734758,3.333354 -0.973454,4.9653647" style="fill:#ffd800;stroke-width:1.3334198" />
   <path d="m 17.541858,10.865497 -0.409383,-0.06 c 0.113347,-0.776005 0.316039,-1.6773438 0.513396,-2.5480158 a 19.90379,19.901456 0 0 0 0.458723,-2.4000153 1.7868872,1.7866777 0 0 0 -1.177478,-1.8040112 2.3589578,2.3586813 0 0 0 -1.866897,0 1.7868872,1.7866777 0 0 0 -1.173478,1.8013445 19.917125,19.91479 0 0 0 0.458723,2.4000149 c 0.197358,0.870672 0.400049,1.7706779 0.513397,2.5480159 l -0.409384,0.06 C 14.338796,10.102826 14.136105,9.21082 13.941414,8.3468147 A 20.046475,20.044124 0 0 1 13.47469,5.881466 a 2.1762686,2.1760135 0 0 1 1.417508,-2.2080136 2.7710088,2.7706838 0 0 1 2.208273,0 2.1762686,2.1760135 0 0 1 1.417508,2.2080136 20.057142,20.054791 0 0 1 -0.466724,2.4653487 c -0.190691,0.8653386 -0.397383,1.7573443 -0.509397,2.5186823 z" style="fill:#ffd800;stroke-width:1.3334198" />
   <path d="M 12.250539,12.197506 C 11.227745,10.901498 9.5275353,9.2761537 8.9247943,8.3841482 a 1.9869119,1.986679 0 0 1 0.120015,-2.3840148 2.5643166,2.5640159 0 0 1 1.7642167,-1.0186729 1.9869119,1.986679 0 0 1 2.125597,1.0880067 c 0.472058,0.9693393 1.028127,3.2533535 1.640203,4.7880298" style="fill:#ffd800;stroke-width:1.3334198" />
   <path d="m 12.087852,12.325506 c -0.47606,-0.604003 -1.09747,-1.274674 -1.698877,-1.925345 A 20.03714,20.034791 0 0 1 8.7527733,8.4988156 2.1762686,2.1760135 0 0 1 8.8767883,5.877466 2.7710088,2.7706838 0 0 1 10.793025,4.7747925 2.1762686,2.1760135 0 0 1 13.125313,5.9748 20.045141,20.042791 0 0 1 13.953416,8.3428146 c 0.266699,0.8453386 0.533399,1.7186774 0.817434,2.4333484 l -0.385381,0.153335 C 14.094766,10.200159 13.821399,9.3148206 13.557367,8.4668154 A 19.909124,19.90679 0 0 0 12.7506,6.1574677 1.7868872,1.7866777 0 0 0 10.831696,5.1841284 2.3589578,2.3586813 0 0 0 9.2168303,6.1174675 1.7868872,1.7866777 0 0 0 9.0994823,8.2694808 19.909124,19.90679 0 0 0 10.69968,10.121492 c 0.606741,0.656005 1.233486,1.333342 1.718879,1.949346 z" style="fill:#ffd800;stroke-width:1.3334198" />
   <path d="M 10.850365,14.578854 C 9.3155093,13.968183 7.032561,13.413513 6.0617745,12.938843 A 1.9869119,1.986679 0 0 1 4.9736401,10.813497 2.5643166,2.5640159 0 0 1 5.9924326,9.050819 1.9869119,1.986679 0 0 1 8.3767269,8.9308183 C 9.2741703,9.534822 10.89437,11.2335 12.190531,12.256173" style="fill:#ffd800;stroke-width:1.3334198" />
   <path d="M 10.774356,14.772188 C 10.056934,14.488186 9.1861603,14.216185 8.3407225,13.95485 A 20.045141,20.042791 0 0 1 5.9724302,13.126845 2.1762686,2.1760135 0 0 1 4.772282,10.79483 2.7710088,2.7706838 0 0 1 5.8764182,8.8814846 2.1762686,2.1760135 0 0 1 8.4980752,8.7574839 20.042474,20.040124 0 0 1 10.392975,10.394827 c 0.649414,0.601338 1.321497,1.221342 1.924239,1.698678 L 12.061182,12.41484 C 11.445105,11.928171 10.767688,11.3015 10.111607,10.696163 A 19.915792,19.913456 0 0 0 8.2593791,9.0961526 1.7868872,1.7866777 0 0 0 6.1071134,9.2134867 2.3589578,2.3586813 0 0 0 5.1736648,10.828164 a 1.7868872,1.7866777 0 0 0 0.9734536,1.918678 19.909124,19.90679 0 0 0 2.3096184,0.806672 c 0.8534385,0.266668 1.7335462,0.533337 2.4629702,0.828005 z" style="fill:#ffd800;stroke-width:1.3334198" />
   <path d="M 10.829029,17.346871 C 9.1954943,17.584206 6.9392161,18.24421 5.8630832,18.32021 a 1.9869119,1.986679 0 0 1 -2.0002469,-1.296008 2.5643166,2.5640159 0 0 1 0,-2.037346 1.9869119,1.986679 0 0 1 2.0002469,-1.301341 c 1.0761329,0.076 3.3337451,0.734671 4.9659458,0.973339" style="fill:#ffd800;stroke-width:1.3334198" />
   <path d="m 5.70173,18.534878 a 2.1842696,2.1840135 0 0 1 -2.0322509,-1.424009 2.7710088,2.7706838 0 0 1 0,-2.208013 2.1762686,2.1760135 0 0 1 2.2082726,-1.417342 20.046475,20.044124 0 0 1 2.4656378,0.466669 c 0.8627728,0.196001 1.7548825,0.400003 2.5163095,0.508003 l -0.06001,0.409336 C 10.023593,14.756188 9.1221493,14.55352 8.2513751,14.356186 a 19.917125,19.91479 0 0 0 -2.4002964,-0.45867 1.7868872,1.7866777 0 0 0 -1.8055562,1.170674 2.3589578,2.3586813 0 0 0 0,1.866678 1.7855537,1.7853444 0 0 0 1.8028893,1.176007 19.90379,19.901456 0 0 0 2.4002963,-0.458669 c 0.8707772,-0.197335 1.7708879,-0.400003 2.5483169,-0.513337 l 0.06001,0.409336 c -0.760094,0.110668 -1.6522037,0.313336 -2.5149764,0.508003 a 20.057142,20.054791 0 0 1 -2.4656374,0.46667 q -0.086677,0.012 -0.1746882,0.012 z" style="fill:#ffd800;stroke-width:1.3334198" />
   <path d="m 12.191865,19.745552 c -1.296161,1.022673 -2.9203617,2.722684 -3.8138046,3.325354 A 1.9869119,1.986679 0 0 1 5.9937661,22.950905 2.5643166,2.5640159 0 0 1 4.9749736,21.185561 1.9869119,1.986679 0 0 1 6.063108,19.068215 c 0.969453,-0.472003 3.2537343,-1.028007 4.78859,-1.64001" style="fill:#ffd800;stroke-width:1.3334198" />
   <path d="M 7.3045945,23.622909 A 2.4629707,2.4626819 0 0 1 5.8697507,23.117573 2.7710088,2.7706838 0 0 1 4.764281,21.201561 2.1762686,2.1760135 0 0 1 5.9644292,18.869547 20.03314,20.030791 0 0 1 8.3327215,18.041542 C 9.1781593,17.774873 10.0516,17.508205 10.766355,17.224203 l 0.153352,0.385336 c -0.729424,0.290668 -1.6148657,0.564004 -2.4629702,0.828005 a 19.919792,19.917457 0 0 0 -2.3096184,0.806672 1.7868872,1.7866777 0 0 0 -0.9734536,1.918678 2.3589578,2.3586813 0 0 0 0.9334486,1.614677 1.7868872,1.7866777 0 0 0 2.1522657,0.117334 19.923793,19.921457 0 0 0 1.8522279,-1.60001 c 0.656081,-0.60667 1.333498,-1.233341 1.949575,-1.718677 l 0.256032,0.324002 c -0.604076,0.476003 -1.274825,1.09734 -1.925572,1.698677 a 20.045141,20.042791 0 0 1 -1.9015678,1.63601 2.1055932,2.1053464 0 0 1 -1.1854797,0.388002 z" style="fill:#ffd800;stroke-width:1.3334198" />
   <path d="m 14.574826,21.145561 c -0.610742,1.534676 -1.165478,3.817357 -1.640203,4.788029 A 1.9869119,1.986679 0 0 1 10.809026,27.021597 2.5643166,2.5640159 0 0 1 9.0434753,26.002924 1.9869119,1.986679 0 0 1 8.9234603,23.618909 C 9.5275353,22.72157 11.226411,21.10156 12.249205,19.805552" style="fill:#ffd800;stroke-width:1.3334198" />
   <path d="m 11.101063,27.241598 q -0.152019,0 -0.310705,-0.01467 a 2.7710088,2.7706838 0 0 1 -1.9135697,-1.104003 2.1762686,2.1760135 0 0 1 -0.124015,-2.62135 20.041141,20.038791 0 0 1 1.6402017,-1.900011 c 0.601408,-0.649338 1.222818,-1.321342 1.698877,-1.925346 l 0.32404,0.256002 c -0.486726,0.616004 -1.113471,1.293341 -1.718879,1.949345 a 19.909124,19.90679 0 0 0 -1.6001977,1.852012 1.7868872,1.7866777 0 0 0 0.117348,2.152013 2.3576243,2.3573479 0 0 0 1.6148657,0.933339 1.7855537,1.7853444 0 0 0 1.918904,-0.973339 19.909124,19.90679 0 0 0 0.806767,-2.309348 c 0.266699,-0.853338 0.533399,-1.733344 0.828102,-2.462682 l 0.385381,0.153335 c -0.284035,0.717337 -0.556069,1.588009 -0.817434,2.433348 a 20.045141,20.042791 0 0 1 -0.828103,2.368015 2.1189282,2.1186798 0 0 1 -2.021583,1.21334 z" style="fill:#ffd800;stroke-width:1.3334198" />
   <path d="m 17.3405,21.166894 c 0.237363,1.633344 0.897444,3.889358 0.973454,4.965364 a 1.9869119,1.986679 0 0 1 -1.29616,2.000013 2.5643166,2.5640159 0 0 1 -2.037585,0 1.9869119,1.986679 0 0 1 -1.30016,-2.000013 c 0.07601,-1.076006 0.734757,-3.333354 0.973453,-4.965364" style="fill:#ffd800;stroke-width:1.3334198" />
   <path d="m 15.993667,28.55494 a 2.6856649,2.6853499 0 0 1 -1.104136,-0.229335 2.1762686,2.1760135 0 0 1 -1.417508,-2.208014 20.038474,20.036124 0 0 1 0.466724,-2.465348 c 0.196024,-0.862672 0.400049,-1.754678 0.508063,-2.516016 l 0.409384,0.06 c -0.113348,0.776005 -0.316039,1.677343 -0.513397,2.548015 a 19.917125,19.91479 0 0 0 -0.458723,2.400015 1.7868872,1.7866777 0 0 0 1.176145,1.802678 2.3589578,2.3586813 0 0 0 1.866897,0 1.7868872,1.7866777 0 0 0 1.176145,-1.802678 19.927793,19.925457 0 0 0 -0.458723,-2.400015 C 17.44718,22.87357 17.244488,21.973565 17.131141,21.196227 l 0.409384,-0.06 c 0.11068,0.760005 0.313372,1.653344 0.508063,2.516016 a 20.050475,20.048124 0 0 1 0.466724,2.465348 2.1762686,2.1760135 0 0 1 -1.417508,2.208014 2.6856649,2.6853499 0 0 1 -1.104137,0.229335 z" style="fill:#ffd800;stroke-width:1.3334198" />
   <path d="m 19.740796,19.804219 c 1.022793,1.296008 2.723003,2.920018 3.325744,3.813357 a 1.9869119,1.986679 0 0 1 -0.120015,2.384015 2.5643166,2.5640159 0 0 1 -1.765551,1.018673 1.9869119,1.986679 0 0 1 -2.125596,-1.088007 c -0.472058,-0.969339 -1.028126,-3.253353 -1.640202,-4.78803" style="fill:#ffd800;stroke-width:1.3334198" />
   <path d="m 20.890272,27.242932 a 2.1189282,2.1186798 0 0 1 -2.02025,-1.218674 20.030473,20.028124 0 0 1 -0.828102,-2.368015 c -0.266699,-0.845339 -0.533399,-1.718677 -0.817434,-2.433348 l 0.385381,-0.153335 c 0.290702,0.729338 0.564069,1.614677 0.828102,2.462682 a 19.909124,19.90679 0 0 0 0.806766,2.309348 1.7855537,1.7853444 0 0 0 1.918904,0.973339 2.3589578,2.3586813 0 0 0 1.614866,-0.933339 1.7868872,1.7866777 0 0 0 0.117347,-2.152013 19.902457,19.900123 0 0 0 -1.600197,-1.852012 C 20.688913,21.221561 20.062169,20.544224 19.576776,19.92822 l 0.32404,-0.256002 c 0.476059,0.604004 1.097469,1.274675 1.697543,1.924012 a 20.025139,20.02279 0 0 1 1.637535,1.901345 2.1762686,2.1760135 0 0 1 -0.124015,2.620016 2.7710088,2.7706838 0 0 1 -1.913569,1.105341 2.5443141,2.5440157 0 0 1 -0.308038,0.02 z" style="fill:#ffd800;stroke-width:1.3334198" />
   <path d="m 21.142303,17.422871 c 1.534856,0.610671 3.817804,1.165341 4.78859,1.64001 a 1.9869119,1.986679 0 0 1 1.088135,2.125347 2.5643166,2.5640159 0 0 1 -1.018793,1.765344 1.9869119,1.986679 0 0 1 -2.384294,0.120001 c -0.897444,-0.604004 -2.517644,-2.302681 -3.813804,-3.325354" style="fill:#ffd800;stroke-width:1.3334198" />
   <path d="m 24.689407,23.622909 a 2.1055932,2.1053464 0 0 1 -1.190814,-0.381335 20.043808,20.041457 0 0 1 -1.904235,-1.64001 C 20.944945,21.000227 20.272862,20.380223 19.670121,19.90422 l 0.256032,-0.318669 c 0.616076,0.48667 1.293493,1.11334 1.949573,1.718677 a 19.922459,19.920123 0 0 0 1.852229,1.60001 1.7868872,1.7866777 0 0 0 2.152266,-0.117334 2.3589578,2.3586813 0 0 0 0.933448,-1.614676 1.7868872,1.7866777 0 0 0 -0.973453,-1.918679 19.929127,19.92679 0 0 0 -2.309619,-0.806671 c -0.853438,-0.266669 -1.733547,-0.533337 -2.46297,-0.828006 l 0.153352,-0.385335 c 0.717422,0.284001 1.588196,0.556003 2.433634,0.817338 a 20.038474,20.036124 0 0 1 2.368292,0.828005 2.1762686,2.1760135 0 0 1 1.200148,2.332014 2.7710088,2.7706838 0 0 1 -1.104136,1.913346 2.4629707,2.4626819 0 0 1 -1.42951,0.498669 z" style="fill:#ffd800;stroke-width:1.3334198" />
   <path d="m 21.162305,14.668188 c 1.633535,-0.237335 3.889813,-0.897339 4.965946,-0.97334 a 1.9869119,1.986679 0 0 1 2.000247,1.296008 2.5643166,2.5640159 0 0 1 0,2.037346 1.9869119,1.986679 0 0 1 -2.000247,1.296008 c -1.076133,-0.076 -3.333744,-0.734671 -4.965946,-0.973339" style="fill:#ffd800;stroke-width:1.3334198" />
   <path d="m 26.289604,18.534878 a 1.7562168,1.7560109 0 0 1 -0.180022,0 20.050475,20.048124 0 0 1 -2.465637,-0.466669 c -0.862773,-0.196002 -1.754884,-0.400003 -2.516311,-0.508004 l 0.06001,-0.409335 c 0.776095,0.113334 1.67754,0.316001 2.548314,0.513336 a 19.927793,19.925457 0 0 0 2.400296,0.45867 1.7855537,1.7853444 0 0 0 1.805556,-1.188008 2.3589578,2.3586813 0 0 0 0,-1.866678 1.7855537,1.7853444 0 0 0 -1.802891,-1.176007 19.922459,19.920123 0 0 0 -2.400296,0.458669 c -0.870774,0.197335 -1.770885,0.400003 -2.548314,0.513337 l -0.06001,-0.409336 c 0.760094,-0.110668 1.652204,-0.313335 2.516311,-0.508003 a 20.042474,20.040124 0 0 1 2.465637,-0.46667 2.1762686,2.1760135 0 0 1 2.208273,1.417342 2.7710088,2.7706838 0 0 1 0,2.208014 2.1842696,2.1840135 0 0 1 -2.030918,1.429342 z" style="fill:#ffd800;stroke-width:1.3334198" />
   <path d="m 19.800804,12.257506 c 1.29616,-1.022673 2.92036,-2.7213507 3.817804,-3.3253544 a 1.9869119,1.986679 0 0 1 2.384294,0.1200008 2.5643166,2.5640159 0 0 1 1.018793,1.7653446 1.9869119,1.986679 0 0 1 -1.088135,2.125346 c -0.969452,0.472003 -3.253734,1.028007 -4.78859,1.640011" style="fill:#ffd800;stroke-width:1.3334198" />
   <path d="M 21.218312,14.773521 21.06496,14.388186 c 0.729423,-0.290669 1.614866,-0.564004 2.46297,-0.828005 A 19.909124,19.90679 0 0 0 25.837549,12.753509 1.7868872,1.7866777 0 0 0 26.811002,10.83483 2.3576243,2.3573479 0 0 0 25.877554,9.2201534 1.7868872,1.7866777 0 0 0 23.725288,9.1028193 19.901123,19.89879 0 0 0 21.873059,10.70283 c -0.65608,0.60667 -1.333497,1.233341 -1.949573,1.718677 l -0.256032,-0.324002 c 0.604075,-0.476003 1.274824,-1.09734 1.924237,-1.698678 a 20.055809,20.053457 0 0 1 1.901568,-1.6373431 2.1762686,2.1760135 0 0 1 2.621657,0.1240008 2.7710088,2.7706838 0 0 1 1.108137,1.9173453 2.1762686,2.1760135 0 0 1 -1.200148,2.332015 20.045141,20.042791 0 0 1 -2.368292,0.828005 c -0.842771,0.256001 -1.721546,0.52667 -2.436301,-0.52267 z" style="fill:#ffd800;stroke-width:1.3334198" />
   <path d="M 17.417843,10.857497 C 18.028585,9.3228207 18.58332,7.0401399 19.058045,6.0694672 a 1.9869119,1.986679 0 0 1 2.125596,-1.0880067 2.5643166,2.5640159 0 0 1 1.765551,1.0186729 1.9869119,1.986679 0 0 1 0.120015,2.3840148 c -0.604074,0.8973389 -2.302951,2.5173498 -3.325744,3.8133578" style="fill:#ffd800;stroke-width:1.3334198" />
   <path d="M 17.417843,10.857497 C 18.028585,9.3228207 18.58332,7.0401399 19.058045,6.0694672 a 1.9869119,1.986679 0 0 1 2.125596,-1.0880067 2.5643166,2.5640159 0 0 1 1.765551,1.0186729 1.9869119,1.986679 0 0 1 0.120015,2.3840148 c -0.604074,0.8973389 -2.302951,2.5173498 -3.325744,3.8133578" style="fill:#ffd800;stroke-width:1.3334198" />
   <path d="m 19.903483,12.325506 -0.320039,-0.253335 c 0.486726,-0.616003 1.11347,-1.293341 1.718878,-1.949345 A 19.909124,19.90679 0 0 0 22.90252,8.2708142 1.7868872,1.7866777 0 0 0 22.785172,6.1188008 2.3576243,2.3573479 0 0 0 21.170306,5.1854617 1.7868872,1.7866777 0 0 0 19.251403,6.1588011 19.931794,19.929457 0 0 0 18.444636,8.4681487 c -0.266699,0.8533387 -0.533399,1.7333443 -0.828102,2.4626823 l -0.385381,-0.153334 c 0.284035,-0.717338 0.556069,-1.5880105 0.817435,-2.433349 a 20.043808,20.041457 0 0 1 0.828102,-2.3680147 2.1762686,2.1760135 0 0 1 2.332288,-1.2000074 2.7710088,2.7706838 0 0 1 1.913569,1.1040068 2.1762686,2.1760135 0 0 1 0.124015,2.6213496 20.047808,20.045457 0 0 1 -1.641536,1.9000117 c -0.604074,0.650671 -1.225484,1.322675 -1.701543,1.924012 z" style="fill:#ffd800;stroke-width:1.3334198" />
   <path d="m 15.993667,21.538897 a 5.538017,5.5373676 0 1 1 5.540684,-5.537368 v 0 a 5.5446844,5.5440343 0 0 1 -5.540684,5.537368 z" style="fill:#da8703;stroke-width:1.3334198" />
   <path d="m 15.993667,12.781509 a 3.2177306,3.2173532 0 1 0 3.219064,3.22002 3.2177306,3.2173532 0 0 0 -3.219064,-3.22002 z" style="fill:#987d17;stroke-width:1.3334198" />
   <path d="m 15.993667,14.534853 a 1.4668478,1.4666757 0 1 0 1.466848,1.466676 1.4668478,1.4666757 0 0 0 -1.466848,-1.466676 z" style="fill:#987d17;stroke-width:1.3334198" />
</svg>
