<svg xmlns="http://www.w3.org/2000/svg" xmlns:xlink="http://www.w3.org/1999/xlink" x="0px" y="0px" viewBox="0 0 24 24" style="enable-background: new 0 0 24 24" xml:space="preserve">
  <path fill="#90a4ae" d="M21.7,12.6c0.3-5.2-3.6-10.8-9.6-10.1c-2.7,0.3-4.3,1.7-5,3.2c-1.2,2.5,0.1,5.8,4,6.9c2.4,0.7,2.9,1.7,2.6,2.9
	c-0.3,1.1-1.1,2.3-1.3,3.3c-0.1,0.3-0.1,0.6-0.1,0.9c0.1,2.2,4.6,3.1,8.1-2.8v0C21.2,15.7,21.6,14.2,21.7,12.6z" />
  <path fill="#90a4ae" d="M6.2,11.4c0,0,0-0.1,0-0.1c0-0.1,0-0.2,0-0.3c0,0,0,0,0,0c0,0,0,0,0,0c0-0.1,0-0.2-0.1-0.3
	C5.9,9.7,5.1,9.1,4.1,9.2v0c-1,0.1-1.7,0.9-1.8,1.9c0,0.2,0,0.3,0,0.5c0.1,1.1,1.1,1.9,2.1,1.8C5.5,13.2,6.2,12.4,6.2,11.4z" />
  <path fill="#90a4ae" d="M10.6,16.7c-0.4-1.6-2-2.6-3.6-2.1c-1.3,0.3-2.1,1.4-2.2,2.7c-0.1,0.4,0,0.8,0.1,1.2c0.4,1.6,2.1,2.6,3.7,2.1
	c1.4-0.4,2.3-1.7,2.2-3.2C10.7,17.2,10.7,17,10.6,16.7z" />
</svg>