<svg version="1.1" viewBox="0 0 18 18" xmlns="http://www.w3.org/2000/svg"><title>Meson</title><desc>Meson Build System</desc><path d="m9.0642 1c-4.9578 2.8294-8.036 8.1306-8.0642 13.889 5.1869 2.8585 11.278 2.761 15.998.0301.00059-.0138.0013-.02771.0024-.04145-.005912-5.7273-3.0308-11.017-7.9358-13.878zm2.669 6.1308c.73504.50489.62604 1.7205.50764 2.5528-.15066.91686-1.0203 2.4242-2.1502 3.4078.14615.21181.23162.47265.23039.75094-.70014.35772-1.3949-.045849-2.2351-.77314-.84022-.7273-1.7464-2.1844-2.0472-3.6822-.26674.02855-.53988-.031703-.77416-.18107.061189-.83982.94301-1.3386 1.7245-1.6331.78151-.29447 2.7949-.39414 4.2144.11594.11069-.2349.29404-.4324.52961-.55753z" fill="#3f51b5"/></svg>
