<svg width="16" height="16" viewBox="0 0 16 16" fill="none" xmlns="http://www.w3.org/2000/svg">
  <path
    d="M7.68164 1.02148C7.88718 0.991795 8.07879 0.993246 8.26953 1.02148C8.63999 1.07639 8.99232 1.20497 9.32617 1.40723C10.6673 2.21402 12.0185 3.0064 13.3789 3.7832C13.8513 4.19616 14.1645 4.70081 14.3184 5.29688V10.583C14.1987 11.2312 13.8856 11.7756 13.3789 12.2158C11.9794 13.0124 10.5893 13.8239 9.20898 14.6504C8.92478 14.8056 8.63111 14.915 8.32812 14.9775C8.06386 15.0072 7.82872 15.0072 7.56445 14.9775C7.27066 14.9478 4.30273 13.1697 2.68945 12.2158C2.2173 11.8037 1.90414 11.2984 1.75 10.7012V5.29688C1.90384 4.70084 2.2171 4.19615 2.68945 3.7832C4.04986 3.0064 5.40101 2.21402 6.74219 1.40723C7.04296 1.22476 7.35625 1.09622 7.68164 1.02148ZM3.5127 5.00098C3.3772 5.08871 3.26931 5.20761 3.18945 5.35742C3.1503 7.11915 3.1503 8.88085 3.18945 10.6426C3.25291 10.7908 3.33165 10.9297 3.4248 11.0586C4.69248 11.8431 5.97483 12.6052 7.27148 13.3447C7.58827 13.5864 7.94046 13.6654 8.32812 13.582C9.69839 12.7903 11.0692 11.9988 12.4395 11.207C12.6345 11.0614 12.7813 10.873 12.8799 10.6426C12.9191 8.86101 12.9191 7.07942 12.8799 5.29785C12.6712 5.00391 12.4067 4.93439 12.0869 5.08984C10.7535 5.94205 9.40312 6.76404 8.03516 7.55469C6.66708 6.76397 5.31599 5.94214 3.98242 5.08984C3.83484 5.01549 3.67825 4.98601 3.5127 5.00098ZM7.8584 2.50586C6.84642 3.05737 5.848 3.64149 4.86328 4.25781C5.12757 4.40126 5.38231 4.56017 5.62695 4.7334C5.73643 4.81062 5.85412 4.83065 5.97949 4.79297C6.64789 4.37588 7.33323 3.98966 8.03516 3.63477C8.7731 4.02439 9.49748 4.44019 10.208 4.88184C10.5407 4.67404 10.8733 4.46561 11.2061 4.25781C10.384 3.76303 9.56133 3.26822 8.73926 2.77344C8.46992 2.60159 8.17608 2.51199 7.8584 2.50586Z"
    fill="#EF4242" />
  <path fill-rule="evenodd" clip-rule="evenodd"
    d="M4.21632 6.48584C5.39909 7.19277 6.57372 7.91533 7.7402 8.65344C7.93595 8.77221 8.13176 8.77221 8.32752 8.65344C9.48746 7.92346 10.6523 7.20091 11.822 6.48584C11.871 7.77298 11.8612 9.0597 11.7927 10.3459C10.5398 11.0784 9.28678 11.8108 8.03386 12.5432C6.78092 11.8108 5.52798 11.0784 4.27505 10.3459C4.21633 9.05988 4.19676 7.77316 4.21632 6.48584Z"
    fill="#EF4141" />
</svg>