<svg width="16" height="16" fill="none" version="1.1" viewBox="0 0 16 16" xmlns="http://www.w3.org/2000/svg">
 <path d="m8 1.2578a2.1878 2.1878 0 0 0-0.97852 0.23047l-4.043 2.0234a1.77 1.77 0 0 0-0.97852 1.582v5.8125a1.77 1.77 0 0 0 0.97852 1.582l4.043 2.0234a2.1878 2.1878 0 0 0 1.957 0l4.043-2.0234a1.77 1.77 0 0 0 0.97852-1.582v-5.8125a1.77 1.77 0 0 0-0.97852-1.582l-4.043-2.0234a2.1878 2.1878 0 0 0-0.97852-0.23047zm0 0.99609a2.156 2.156 0 0 1 0.96484 0.22852l3.0352 1.5176-1.25 0.625-2.75-1.375-2.75 1.375-1.25-0.625 3.0352-1.5176a2.156 2.156 0 0 1 0.96484-0.22852zm-4.3008 2.6562a0.6612 0.6612 0 0 1 0.25781 0.068359l4.043 2.0215 4.043-2.0215a0.6612 0.6612 0 0 1 0.23438-0.066406 0.6612 0.6612 0 0 1 0.72266 0.6582v4.6094a1.731 1.731 0 0 1-0.95703 1.5488l-3.0859 1.543a2.1397 2.1397 0 0 1-1.9141 0l-3.0859-1.543a1.731 1.731 0 0 1-0.95703-1.5488v-4.6094a0.6612 0.6612 0 0 1 0.69922-0.66016zm0.30078 1.3398v4.25l4 2 4-2v-4.25l-3.0996 1.5508a2.0125 2.0125 0 0 1-1.8008 0l-3.0996-1.5508z" fill="#ef5350" stroke-width="0"/>
</svg>
