<svg width="214" height="238" viewBox="0 0 214 238" fill="none" xmlns="http://www.w3.org/2000/svg">
<path d="M101.775 13.3291C104.921 12.8797 107.844 12.9016 110.763 13.3291C116.436 14.1599 121.828 16.1071 126.94 19.1709C147.464 31.3813 168.136 43.3646 188.955 55.1211C196.188 61.3736 200.981 69.0137 203.335 78.04V158.029C201.504 167.843 196.711 176.082 188.955 182.745C167.538 194.801 146.266 207.085 125.143 219.595C120.793 221.944 116.299 223.592 111.661 224.538C107.617 224.987 104.022 224.987 99.9775 224.538C95.4837 224.089 50.0685 197.182 25.3799 182.745C18.1527 176.507 13.3593 168.867 11 159.827V78.04C13.3536 69.0138 18.147 61.3735 25.3799 55.1211C46.1984 43.3647 66.8703 31.3813 87.3945 19.1709C91.9994 16.4076 96.7935 14.4604 101.775 13.3291ZM45.1533 74.8936C42.8943 73.7679 40.4972 73.319 37.9629 73.5459C35.8895 74.8737 34.2416 76.6713 33.0195 78.9385C32.4203 105.602 32.4203 132.264 33.0195 158.928C33.9906 161.171 35.1896 163.269 36.6152 165.22C56.0163 177.094 75.6388 188.628 95.4834 199.822C100.333 203.482 105.726 204.681 111.661 203.417C132.632 191.434 153.604 179.45 174.575 167.467C177.56 165.263 179.806 162.417 181.315 158.928C181.915 131.965 181.915 105.002 181.315 78.0391C178.121 73.5895 174.077 72.541 169.183 74.8936C148.775 87.7923 128.104 100.225 107.168 112.192C86.2324 100.225 65.5608 87.7923 45.1533 74.8936ZM104.472 35.7979C88.9842 44.1452 73.705 52.9832 58.6348 62.3115C62.6795 64.4827 66.5742 66.879 70.3184 69.501C71.994 70.6704 73.792 70.9706 75.7109 70.4004C85.9399 64.0878 96.4259 58.2453 107.168 52.874C118.463 58.7714 129.547 65.063 140.422 71.748C145.515 68.6025 150.608 65.4571 155.701 62.3115C143.119 54.8219 130.536 47.3314 117.953 39.8418C113.83 37.2384 109.336 35.8907 104.472 35.7979Z" fill="#EF4242"/>
<path fill-rule="evenodd" clip-rule="evenodd" d="M48.7469 96.0146C66.8469 106.714 84.8221 117.649 102.673 128.819C105.668 130.617 108.665 130.617 111.66 128.819C129.411 117.772 147.236 106.837 165.137 96.0146C165.885 115.494 165.735 134.968 164.687 154.434C145.514 165.519 126.34 176.604 107.167 187.688C87.993 176.604 68.8193 165.519 49.6457 154.434C48.7472 134.971 48.4477 115.497 48.7469 96.0146Z" fill="#EF4141"/>
</svg>
