<svg xmlns="http://www.w3.org/2000/svg" fill="none" viewBox="0 0 16 16"><path fill="#ef5350" d="M8 1.258a2.2 2.2 0 0 0-.979.23L2.978 3.512A1.77 1.77 0 0 0 2 5.094v5.812a1.77 1.77 0 0 0 .978 1.582l4.043 2.024a2.19 2.19 0 0 0 1.957 0l4.043-2.024A1.77 1.77 0 0 0 14 10.906V5.094a1.77 1.77 0 0 0-.979-1.582L8.978 1.488A2.2 2.2 0 0 0 8 1.258m0 .996a2.16 2.16 0 0 1 .965.228L12 4l-1.25.625L8 3.25 5.25 4.625 4 4l3.035-1.518A2.16 2.16 0 0 1 8 2.254M3.7 4.91a.7.7 0 0 1 .257.068L8 7l4.043-2.022a.7.7 0 0 1 .234-.066.66.66 0 0 1 .723.658v4.61a1.73 1.73 0 0 1-.957 1.548l-3.086 1.543a2.14 2.14 0 0 1-1.914 0l-3.086-1.543A1.73 1.73 0 0 1 3 10.18V5.57a.66.66 0 0 1 .7-.66M4 6.25v4.25l4 2 4-2V6.25L8.9 7.8a2.01 2.01 0 0 1-1.8 0z"/></svg>