<?xml version="1.0" encoding="utf-8"?>
<!-- Generator: Adobe Illustrator 22.0.1, SVG Export Plug-In . SVG Version: 6.00 Build 0)  -->
<svg version="1.1" id="Logo_" xmlns="http://www.w3.org/2000/svg" xmlns:xlink="http://www.w3.org/1999/xlink" x="0px" y="0px"
	 viewBox="0 0 124.7 114" style="enable-background:new 0 0 124.7 114;" xml:space="preserve">
<style type="text/css">
	.st0{fill:#FF5722;}
	.st1{fill:#FF1744;}
</style>
<g>
	<path class="st0" d="M14.5,0h57.3c8,0,14.5,6.5,14.5,14.5v0c0,8-6.5,14.5-14.5,14.5H14.5C6.5,29,0,22.5,0,14.5v0
		C0,6.5,6.5,0,14.5,0z"/>
	<ellipse class="st0" cx="109.2" cy="14.5" rx="14.8" ry="14.5"/>
	<path class="st0" d="M52.6,43.3h56.6c8-0.6,14.9,5.5,15.5,13.5s-5.5,14.9-13.5,15.5c-0.5,0-0.9,0-1.4,0H52.6
		c-8,0.6-14.9-5.5-15.5-13.5c-0.6-8,5.5-14.9,13.5-15.5c0.5,0,0.9,0,1.4,0H52.6z"/>
	<path class="st1" d="M14.8,43c8.2,0,14.8,6.6,14.8,14.8c0,8.2-6.6,14.8-14.8,14.8C6.6,72.5,0,65.9,0,57.8C0,49.6,6.6,43,14.8,43z"
		/>
	<path class="st0" d="M14.5,85h57.3c8,0,14.5,6.5,14.5,14.5v0c0,8-6.5,14.5-14.5,14.5H14.5C6.5,114,0,107.5,0,99.5v0
		C0,91.5,6.5,85,14.5,85z"/>
	<ellipse class="st0" cx="109.2" cy="99.5" rx="14.8" ry="14.5"/>
</g>
</svg>
