<svg xmlns="http://www.w3.org/2000/svg" viewBox="0 0 32 32"><path fill="#a1887f" d="M22 14c-.002 7.41-.07 10.857-2.486 14h-7.028C10.07 24.857 10.002 21.41 10 14h12m.823-2H9.177A1.266 1.266 0 0 0 8 13.342C8 22 8 26 11.546 30h8.908C24 26 24 22 24 13.342A1.266 1.266 0 0 0 22.823 12Zm-4.82-9.998c1.15.46 2 2.075 2 3.998 0 1.925-.851 3.54-2.003 4V7.998c-1.15-.46-2-2.074-2-3.998 0-1.925.851-3.54 2.003-4ZM13 6.004A2.106 2.106 0 0 1 14 8a2.105 2.105 0 0 1-1 2V9a2.106 2.106 0 0 1-1-1.998 2.105 2.105 0 0 1 1-1.998Z"/><path fill="#a1887f" d="M16 20h-3c0 2 1 4 1 6h4c0-2 1-4 1-6Z"/></svg>