<svg xmlns="http://www.w3.org/2000/svg" viewBox="0 0 32 32">
  <path d="M21.99951,14c-.00154,7.40985-.06982,10.85745-2.48535,14H12.48582c-2.41549-3.14255-2.48379-6.59015-2.48533-14h11.999m.82329-2H9.17719a1.26609,1.26609,0,0,0-1.17673,1.34186C8,22,8,26,11.54643,30h8.90712C24,26,24,22,23.99953,13.34186A1.26608,1.26608,0,0,0,22.8228,12Z" style="fill: #a1887f"/>
  <path d="M18.00293,2.00153c1.15021.461,2,2.075,2,3.99847,0,1.92511-.8512,3.54065-2.00287,4V7.99847C16.84985,7.53748,16,5.92352,16,4c0-1.92517.85126-3.54065,2.00293-4Z" style="fill: #a1887f"/>
  <path d="M13.00073,6.00369A2.10584,2.10584,0,0,1,14,8.00146,2.10482,2.10482,0,0,1,12.9993,10V9A2.10587,2.10587,0,0,1,12,7.0022a2.1048,2.1048,0,0,1,1.00073-1.99854Z" style="fill: #a1887f"/>
  <path d="M16,20H13c0,2,1,4,1,6h4c0-2,1-4,1-6Z" style="fill: #a1887f"/>
</svg>
