<svg version="1.1" id="Layer_1" 
  xmlns="http://www.w3.org/2000/svg" 
  xmlns:xlink="http://www.w3.org/1999/xlink" x="0px" y="0px" viewBox="0 0 24 24" style="enable-background:new 0 0 24 24;" xml:space="preserve">
  <style type="text/css">
	.st0{fill-rule:evenodd;clip-rule:evenodd;fill:#EF5350;}
  </style>
  <path class="st0" d="M5.9,2.5c-1.1,0-2,0.8-2,1.9c0,0,0,0,0,0v15.2c0,1,0.9,1.9,2,1.9c0,0,0,0,0,0h12.1c1.1,0,2-0.8,2-1.9
	c0,0,0,0,0,0V4.4c0-1-0.9-1.9-2-1.9c0,0,0,0,0,0L5.9,2.5z M5.9,9.2h12.1v4.8H5.9L5.9,9.2z M5.9,15.8h12.1v3.8H5.9L5.9,15.8L5.9,15.8
	z"/>
</svg>
