<svg viewBox="0 0 48 48" xmlns="http://www.w3.org/2000/svg" xml:space="preserve" style="fill-rule:evenodd;clip-rule:evenodd;stroke-linejoin:round;stroke-miterlimit:2"><path d="M12 4h16l12 12v24c0 2.194-1.806 4-4 4H12c-2.194 0-4-1.806-4-4V8c0-2.194 1.806-4 4-4Zm14 3v11h11L26 7Zm-2.645 14.389c-.083 2.404-.259 2.774-1.304 2.866-.637 0-.721.102-1.118.851-.499.924-.832 4.964-.925 5.186-.092.222-.37.315-.508.398-.2.103-.423.154-.647.148a3.165 3.165 0 0 1-.389-.37 2.785 2.785 0 0 1-.573-1.35c0-.24-.083-1.165-.222-.924l-.536.767c-.337.53-.625 1.09-.86 1.673a4.69 4.69 0 0 0-.25 2.044 5.886 5.886 0 0 0 1.572 3.698c.555.638.638.813.416.85a1.842 1.842 0 0 1-.739-.111c-.269-.083-.481-.101-.481 0 0 .287 1.045 1.156 1.904 1.591A14.664 14.664 0 0 0 23.438 40c.181.024 1.138-.007 1.489-.037a16.965 16.965 0 0 0 3.328-1.008c1.082-.499 2.173-1.285 2.173-1.525 0-.065-.213-.093-.481 0-.268.092-.481 0-.481-.13.227-.374.518-.706.86-.98a6.16 6.16 0 0 0 1.22-1.525 6.21 6.21 0 0 0 .259-3.874c-.453-1.849-1.248-3.005-1.211-2.431 0 .379-.462 1.109-.73 1.109a.794.794 0 0 1-.481-.379 4.74 4.74 0 0 1-.287-2.053 4.673 4.673 0 0 0-.471-2.597 10.265 10.265 0 0 0-1.156-1.766 16.282 16.282 0 0 0-3.467-3.005l-.601-.351-.046 1.941Zm-5.251 3.033c-.092.252-.241.48-.435.665-.48.5-.762 1.157-.795 1.849-.102.611-.083.749.129.749.213 0 1.202-1.063 1.452-1.627a2.87 2.87 0 0 0 0-1.849c-.176-.157-.24-.129-.351.213Z" style="fill:#f4511e;fill-rule:nonzero"/></svg>