<svg xmlns="http://www.w3.org/2000/svg" viewBox="0 0 32 32">
  <path d="M23.5,10.12a9.23629,9.23629,0,0,1-1.73-1.04A.035.035,0,0,0,21.75,9.07a9.49177,9.49177,0,0,1-3.74-7.23,9.98064,9.98064,0,0,0-5.83,7.27A9.77081,9.77081,0,0,0,12,11a9.92276,9.92276,0,0,0,2.76,6.88L13.04,19.6A10.979,10.979,0,0,1,10,12a10.30864,10.30864,0,0,1,.12-1.58A10.99744,10.99744,0,1,0,27.88,20.58,10.30786,10.30786,0,0,0,28,19v-.01A10.97371,10.97371,0,0,0,23.5,10.12ZM22,24H18c4-2,4.37036-8.007,0-10h4A5.66667,5.66667,0,0,1,22,24Z" style="fill: #ff7043"/>
</svg>
