<?xml version="1.0" encoding="UTF-8"?>
<svg clip-rule="evenodd" fill-rule="evenodd" stroke-linejoin="round" stroke-miterlimit="2" version="1.1" viewBox="0 0 48 48" xml:space="preserve" xmlns="http://www.w3.org/2000/svg"><path d="m36.001 22.308c-0.48648-0.63453-1.0787-1.1845-1.6286-1.7344-1.4171-1.2691-3.0246-2.1786-4.3783-3.5111a10.533 10.533 0 0 1-1.8401-12.098c-2.0094 0.48648-3.7649 1.5863-5.2666 2.7919a16.709 16.709 0 0 0-5.0551 18.824c0.0846 0.21151 0.16921 0.42302 0.16921 0.69799 0 0.46532-0.31727 0.88835-0.74029 1.0576-0.48648 0.21151-0.9941 0.0846-1.396-0.25381a10.576 10.576 0 0 1-1.4594-11.189c-3.5322 2.8766-5.457 7.7413-5.182 12.331 0.12691 1.0576 0.25381 2.1151 0.61338 3.1727 0.29612 1.2691 0.8672 2.5381 1.5017 3.6591a14.806 14.806 0 0 0 10.491 6.8107c4.5263 0.57108 9.3699-0.25381 12.839-3.3842a12.532 12.532 0 0 0 3.2361-13.96l-0.27496-0.54993c-0.44417-0.97295-1.6286-2.665-1.6286-2.665m-6.6838 13.325c-0.59223 0.50763-1.5652 1.0576-2.3266 1.2691-2.3689 0.84604-4.7378-0.33842-6.1338-1.7344a5.8694 5.8694 0 0 0 4.4629-4.336c0.35957-1.6921-0.31727-3.0881-0.59223-4.7167a7.8259 7.8259 0 0 1 0.35957-4.3571c0.40187 0.80374 0.82489 1.6075 1.3325 2.242 1.6286 2.1151 4.1879 3.0458 4.7378 5.9223 0.0846 0.29612 0.12691 0.59223 0.12691 0.9095a6.4617 6.4617 0 0 1-1.9671 4.8013z" fill="#ff5722" fill-rule="nonzero" stroke-width="1.0576"/></svg>
