<svg xmlns="http://www.w3.org/2000/svg" xml:space="preserve" fill-rule="evenodd" stroke-linejoin="round" stroke-miterlimit="2" clip-rule="evenodd" viewBox="0 0 48 48"><path fill="#f4511e" fill-rule="nonzero" d="M35.32 22.4c-.46-.6-1.02-1.12-1.54-1.64-1.34-1.2-2.86-2.06-4.14-3.32A9.96 9.96 0 0 1 27.9 6c-1.9.46-3.56 1.5-4.98 2.64a15.8 15.8 0 0 0-4.78 17.8c.08.2.16.4.16.66 0 .44-.3.84-.7 1-.46.2-.94.08-1.32-.24a10 10 0 0 1-1.38-10.58C11.56 20 9.74 24.6 10 28.94c.12 1 .24 2 .58 3 .28 1.2.82 2.4 1.42 3.46a14 14 0 0 0 9.92 6.44c4.28.54 8.86-.24 12.14-3.2a11.85 11.85 0 0 0 3.06-13.2l-.26-.52c-.42-.92-1.54-2.52-1.54-2.52M29 35c-.56.48-1.48 1-2.2 1.2-2.24.8-4.48-.32-5.8-1.64a5.55 5.55 0 0 0 4.22-4.1c.34-1.6-.3-2.92-.56-4.46a7.4 7.4 0 0 1 .34-4.12c.38.76.78 1.52 1.26 2.12 1.54 2 3.96 2.88 4.48 5.6.08.28.12.56.12.86A6.11 6.11 0 0 1 29 35Z"/></svg>