<?xml version="1.0" encoding="UTF-8" standalone="no"?>
<!-- Created with Inkscape (http://www.inkscape.org/) -->

<svg
   width="24mm"
   height="24mm"
   viewBox="0 0 24 24"
   version="1.1"
   id="svg5"
   xml:space="preserve"
   xmlns="http://www.w3.org/2000/svg"
   xmlns:svg="http://www.w3.org/2000/svg"><defs
     id="defs2" /><g
     id="layer1"><g
       id="g28"
       transform="matrix(0.89968511,0,0,0.89968511,4.2198622,2)"><g
         id="g20"><path
           d="M 11.3,3 C 11.21,5.6 11.02,6 9.89,6.1 9.2,6.1 9.11,6.21 8.68,7.02 c -0.54,1 -0.9,5.37 -1,5.61 -0.1,0.24 -0.4,0.34 -0.55,0.43 a 1.43,1.43 0 0 1 -0.7,0.16 3.35,3.35 0 0 1 -0.42,-0.4 3,3 0 0 1 -0.62,-1.46 c 0,-0.26 -0.09,-1.26 -0.24,-1 L 4.57,11.19 A 11.09,11.09 0 0 0 3.64,13 a 5.06,5.06 0 0 0 -0.27,2.21 6.36,6.36 0 0 0 1.7,4 c 0.6,0.69 0.69,0.88 0.45,0.92 a 2,2 0 0 1 -0.8,-0.12 c -0.29,-0.09 -0.52,-0.11 -0.52,0 0,0.31 1.13,1.25 2.06,1.72 a 15.84,15.84 0 0 0 5.13,1.4 10.13,10.13 0 0 1 -3.51,-2 A 7.32,7.32 0 0 1 6.28,19 6.52,6.52 0 0 1 5.54,15.69 l 0.08,-0.4 0.56,0.33 A 2.68,2.68 0 0 0 7.29,16 c 0.69,0 1.28,-0.58 1.56,-1.51 A 24.76,24.76 0 0 1 10.71,9.3 c 0.33,-0.57 0.81,-1.48 1.07,-2 0.26,-0.52 0.46,-0.78 0.59,-1 a 2.9,2.9 0 0 0 0.24,-0.66 c 0.11,-0.5 0.16,-0.54 0.4,-0.34 a 10.26,10.26 0 0 1 1.77,3 c 0.37,0.9 0.42,1.35 0.44,3.47 a 14.5,14.5 0 0 0 0.15,2.67 c 0.11,0.15 0.44,0.21 1.17,0.15 0.91,-0.06 1,0 1.09,0.3 a 2.8,2.8 0 0 1 -0.49,1.86 1.59,1.59 0 0 0 -0.27,0.78 c 0,0.33 0.08,0.4 0.52,0.4 0.29,0 0.52,0.05 0.52,0.12 A 6.82,6.82 0 0 1 17.37,18.98 42.57,42.57 0 0 1 13,23.09 18.41,18.41 0 0 0 16.6,22 c 1.17,-0.54 2.35,-1.39 2.35,-1.65 0,-0.07 -0.23,-0.1 -0.52,0 -0.29,0.1 -0.52,0 -0.52,-0.14 a 4.05,4.05 0 0 1 0.93,-1.06 6.67,6.67 0 0 0 1.32,-1.65 6.72,6.72 0 0 0 0.28,-4.19 c -0.49,-2 -1.35,-3.25 -1.31,-2.63 0,0.41 -0.5,1.2 -0.79,1.2 A 0.86,0.86 0 0 1 17.82,11.47 5.12,5.12 0 0 1 17.51,9.25 5.06,5.06 0 0 0 17,6.44 11.15,11.15 0 0 0 15.75,4.53 17.63,17.63 0 0 0 12,1.28 L 11.35,0.9 Z"
           transform="translate(-3.35,-0.9)"
           fill="#f4511e"
           id="path16" /><path
           d="M 5.62,6.28 A 1.88,1.88 0 0 1 5.15,7 3.1,3.1 0 0 0 4.29,9 C 4.18,9.66 4.2,9.81 4.43,9.81 4.66,9.81 5.73,8.66 6,8.05 a 3.1,3.1 0 0 0 0,-2 C 5.81,5.88 5.74,5.91 5.62,6.28 Z"
           transform="translate(-3.35,-0.9)"
           fill="#f4511e"
           id="path18" /></g><path
         d="M 12.44,5.38 A 4.2,4.2 0 0 1 12,6.48 c -0.1,0.24 -0.56,1 -1,1.86 A 15.4,15.4 0 0 0 9,13 12.23,12.23 0 0 1 8.39,14.88 C 7.91,15.94 7,16.06 6,15.2 L 5.5,14.76 5.39,15.49 A 6.93,6.93 0 0 0 6,19 a 9,9 0 0 0 2.81,3.2 24.08,24.08 0 0 0 2.58,0.88 9.57,9.57 0 0 1 -1.31,-1.16 8.76,8.76 0 0 1 -1.72,-3.21 c 0,-0.21 0.18,-0.31 0.66,-0.35 l 0.65,-0.05 0.1,-1.39 a 7.29,7.29 0 0 1 0.45,-2.18 5.64,5.64 0 0 1 2,-2.35 l 0.5,-0.26 v 1.79 c 0,3 0.4,3.71 1.87,3.21 l 0.72,-0.24 -0.25,0.6 c -0.33,0.77 -0.33,0.91 0,0.91 0.33,0 0.26,0.1 0.16,0.46 a 11.84,11.84 0 0 1 -1.65,3.27 9.41,9.41 0 0 0 -0.61,0.95 c 0,0 0.92,-0.52 1.42,-0.83 A 13.9,13.9 0 0 0 18,18.46 l 0.47,-0.89 -0.7,0.09 c -0.8,0.1 -0.86,-0.05 -0.36,-0.88 a 2.76,2.76 0 0 0 0.38,-2.24 c -0.16,-0.42 -0.24,-0.45 -0.52,-0.3 -0.47,0.25 -1.53,0.23 -1.68,0 A 13.85,13.85 0 0 1 15.43,11.67 8.3,8.3 0 0 0 12.97,4.96 L 12.6,4.71 Z"
         transform="translate(-3.35,-0.9)"
         fill="#ff8f00"
         id="path22" /><polygon
         points="10.05,17.93 11.36,18.77 10.52,21 9.61,22.19 8.04,22.19 6.28,19.78 6.21,18.55 7.13,18.42 8.2,16.17 8.81,15.93 "
         fill="#fff9c4"
         id="polygon24" /><path
         d="M 12.16,12.16 A 5.47,5.47 0 0 0 10.05,14.57 7.44,7.44 0 0 0 9.6,16.75 L 9.49,18.14 H 8.76 8 l 0.11,0.54 a 8.68,8.68 0 0 0 1.8,3.42 5.35,5.35 0 0 0 1.52,1 c 0,-0.06 -0.43,-0.66 -0.81,-1.22 a 6.14,6.14 0 0 1 -0.8,-1.54 c -0.1,-0.47 -0.07,-0.5 0.26,-0.42 a 0.76,0.76 0 0 0 0.59,-0.08 6.35,6.35 0 0 0 0.64,-1.32 c 0.4,-1.1 0.54,-1.44 0.7,-0.89 a 12.53,12.53 0 0 0 0.64,1.45 c 0.35,0.76 0.73,0.72 1.28,0.72 h 0.49 l -0.24,0.71 a 15.31,15.31 0 0 1 -0.7,1.56 c -0.24,0.49 -0.51,1 -0.52,1 -0.01,0 0.42,-0.44 0.61,-0.61 a 5.51,5.51 0 0 0 0.78,-1.08 20.42,20.42 0 0 0 1.3,-3.19 c 0,-0.17 0.12,-0.27 -0.07,-0.18 l -0.61,0.22 0.42,-1 0.4,-1.05 -0.45,0.33 a 4,4 0 0 1 -1,0.51 c -0.47,0.14 -0.63,0.12 -0.9,-0.16 -0.42,-0.42 -0.58,-1.54 -0.49,-3.47 a 7.37,7.37 0 0 0 0,-1.56 c -0.11,0 -0.44,0.17 -0.79,0.33 z"
         transform="translate(-3.35,-0.9)"
         fill="#ffd54f"
         id="path26" /></g></g></svg>
