<svg width="300" height="300" viewBox="0 0 300 300" fill="none" xmlns="http://www.w3.org/2000/svg"><path fill-rule="evenodd" clip-rule="evenodd" d="M239.297 118.663C260.356 113.583 276 94.6184 276 72C276 45.4903 254.51 24 228 24C205.75 24 187.035 39.1395 181.596 59.6794C167.674 53.4595 152.245 50 136 50C74.1479 50 24 100.148 24 162C24 223.852 74.1479 274 136 274C197.852 274 248 223.852 248 162C248 146.63 244.9 131.993 239.297 118.663ZM232.201 119.819C230.817 119.939 229.416 120 228 120C201.49 120 180 98.5097 180 72C180 70.9376 180.035 69.8833 180.102 68.8381C155.405 70.8868 136.031 91.6034 136.031 116.833C136.031 143.42 157.575 164.964 184.162 164.964C209.746 164.964 230.66 145.014 232.201 119.819Z" fill="#7E57C2"/></svg>