<svg version="1.2" xmlns="http://www.w3.org/2000/svg" viewBox="0 0 514 514" width="514" height="514"><style>.a{fill:#4caf50;}</style><path fill-rule="evenodd" class="a" d="m472.4 315.6c10-36.7 10.6-76.5 0-115.9-31.9-119.2-154.7-190-274.1-158-92.1 24.6-155.4 103.2-164.7 192.6h37.8c9-72.5 60.9-135.9 136-156 92.9-24.9 188.1 25.3 221.4 113.2l-36.8 9.8c-17-40.9-51.1-70.9-91.5-83.6l-6.8 38.2c31.9 11.8 57.8 38.3 67.3 73.6 13.8 51.4-11.9 104.1-58.5 125.9l10 37.6c61.3-25.3 98.1-89 89.4-154.6l36.7-9.8q1.4 9.2 1.9 18.4 0.5 9.3 0.1 18.5-0.4 9.3-1.8 18.4-1.3 9.2-3.6 18.2zm-13.2 36.1l-37.2-13.6c-22.8 46.5-64.7 83.2-118.6 97.6-74.9 20.1-151.4-8.7-195.6-66.8l33.5-20.1c31.5 39.5 82.2 60.9 134.1 54.1l-10.1-37.5c-34.8 2.9-68.3-11.2-90.6-36.6l43.5-26.1 25 27.8 55.6-17.6 33.2-40.7-9.6-21.6-32.2 10.2-14.7 16.2-20.7 5.5-14.7-15.6-7.2-20.1 14.7-15.2 20.7-6.5 23.7-24-14.9-18.4-51.4 11.1-40.7 41.8 13 34.4-43.1 25.9q-1.9-5.1-3.4-10.4c-15.5-57.7 18.9-117.1 76.7-132.6 9.2-2.4 18.5-3.6 27.6-3.7l6.8-38.3c-14.6-0.6-29.5 1-44.4 4.9-78.3 21-124.8 101.4-103.8 179.6q0.7 2.7 1.5 5.2 0.8 2.6 1.7 5.2 0.9 2.6 1.9 5.1 0.9 2.5 2 5l-33.7 20.2c-4.6-9.9-8.5-20.3-11.4-31.2-2.8-10.4-4.7-20.9-5.6-31.3h-37.8q0.4 5.3 1 10.5 0.7 5.3 1.5 10.5 0.9 5.2 2.1 10.4 1.1 5.2 2.5 10.3c32 119.2 154.7 189.9 274.1 158 66.6-17.8 118-63.8 145-121.6z"/></svg>