<?xml version="1.0" encoding="UTF-8"?>
<svg version="1.1" viewBox="0 0 24 24" xmlns="http://www.w3.org/2000/svg">
 <g transform="matrix(.82399 0 0 .82399 2.1212 2.0871)">
  <path d="m11.988-0.73561c-7.0722 0-12.765 5.6925-12.765 12.765 0 7.0722 5.6925 12.767 12.765 12.767 7.0722 0 12.767-5.695 12.767-12.767 0-7.0722-5.695-12.765-12.767-12.765zm-4.9103 6.5759c0.043969-6.547e-4 0.089725 0.0084 0.13243 0.033109l6.8713 3.9679a0.25572 0.25572 0 0 0 0.25723 0l2.4297-1.4033a0.25572 0.25572 0 0 1 0.38457 0.21903v9.3086a0.25572 0.25572 0 0 1-0.38457 0.22157l-6.8713-3.9679a0.25572 0.25572 0 0 0-0.25468 0l-2.4322 1.4058a0.25572 0.25572 0 0 1-0.38202-0.22157v-9.3086c0-0.14747 0.11768-0.25272 0.24959-0.25468z" fill="#b0bec5" stroke-width=".25532"/>
 </g>
</svg>
