<?xml version="1.0" encoding="UTF-8" standalone="no"?>
<svg
   xmlns:dc="http://purl.org/dc/elements/1.1/"
   xmlns:cc="http://creativecommons.org/ns#"
   xmlns:rdf="http://www.w3.org/1999/02/22-rdf-syntax-ns#"
   xmlns:svg="http://www.w3.org/2000/svg"
   xmlns="http://www.w3.org/2000/svg"
   xmlns:sodipodi="http://sodipodi.sourceforge.net/DTD/sodipodi-0.dtd"
   xmlns:inkscape="http://www.inkscape.org/namespaces/inkscape"
   version="1.0"
   width="93pt"
   height="48pt"
   viewBox="0 0 93 48"
   preserveAspectRatio="xMidYMid meet"
   id="svg3745"
   sodipodi:docname="nasal.svg"
   inkscape:version="0.92.4 (5da689c313, 2019-01-14)">
  <metadata
     id="metadata3751">
    <rdf:RDF>
      <cc:Work
         rdf:about="">
        <dc:format>image/svg+xml</dc:format>
        <dc:type
           rdf:resource="http://purl.org/dc/dcmitype/StillImage" />
        <dc:title></dc:title>
      </cc:Work>
    </rdf:RDF>
  </metadata>
  <defs
     id="defs3749" />
  <sodipodi:namedview
     pagecolor="#ffffff"
     bordercolor="#666666"
     borderopacity="1"
     objecttolerance="10"
     gridtolerance="10"
     guidetolerance="10"
     inkscape:pageopacity="0"
     inkscape:pageshadow="2"
     inkscape:window-width="1024"
     inkscape:window-height="706"
     id="namedview3747"
     showgrid="false"
     inkscape:zoom="2.6487041"
     inkscape:cx="85.666019"
     inkscape:cy="31.81259"
     inkscape:window-x="-8"
     inkscape:window-y="-8"
     inkscape:window-maximized="1"
     inkscape:current-layer="svg3745" />
  <g
     transform="matrix(0.1,0,0,-0.1,0,48)"
     id="g3743"
     style="fill:#000000;stroke:none">
    <path
       d="M 132,461 C 103,451 68,432 53,419 7,376 0,344 0,165 V 0 h 93 92 v 166 c 0,165 0,166 25,186 20,16 35,19 78,16 29,-3 58,-10 65,-17 14,-14 25,-127 26,-258 l 1,-93 h 90 90 v 163 c 0,149 -2,167 -22,207 -41,80 -116,110 -271,110 -53,-1 -101,-7 -135,-19 z"
       id="path3733"
       style="fill:#0097da;fill-opacity:1"
       inkscape:connector-curvature="0" />
    <path
       d="m 837,350 c -19,-15 -40,-20 -85,-20 -45,0 -67,-5 -93,-23 -51,-34 -59,-58 -59,-189 V 0 h 60 60 v 43 c 0,38 6,48 45,87 l 45,44 V 87 0 h 60 60 v 113 c 0,92 -4,120 -20,151 -14,28 -17,44 -10,57 27,49 -14,68 -63,29 z m 3,-62 c -1,-7 -30,-44 -65,-83 -54,-57 -65,-65 -65,-47 0,35 25,76 67,110 40,33 63,40 63,20 z"
       id="path3737"
       style="fill:#0097da;fill-opacity:1"
       inkscape:connector-curvature="0" />
  </g>
</svg>
