<?xml version="1.0" encoding="utf-8"?>
<!-- Generator: Adobe Illustrator 28.0.0, SVG Export Plug-In . SVG Version: 6.00 Build 0)  -->
<svg version="1.1" id="Layer_1" xmlns="http://www.w3.org/2000/svg" xmlns:xlink="http://www.w3.org/1999/xlink" x="0px" y="0px"
	 viewBox="0 0 92.3 94.4" style="enable-background:new 0 0 92.3 94.4;" xml:space="preserve">
<style type="text/css">
	.st0{fill:#F57F17;}
</style>
<g transform="translate(32.222781,-1.1785113)">
	<path class="st0" d="M-10,70.3c0,0,4.1-4.9,10.3-5.9c-3.8-0.1-5.2,1-6.2,0.1c-1.2-0.7,1.5-3.2,1.5-3.2S-12.8,66.1-10,70.3z"/>
	<path class="st0" d="M-1.1,44c0,0,6,5,7.5,2.8C7.9,44.5,3.3,43.9-1.1,44z"/>
	<path class="st0" d="M28.9,44c0,0-6,5-7.5,2.8C20.1,44.5,24.5,43.9,28.9,44z"/>
	<path class="st0" d="M38.4,70.3c0,0-4.1-4.9-10.3-5.9c3.8-0.1,5.2,1,6.2,0.1s-1.5-3.2-1.5-3.2S41.2,66.1,38.4,70.3z"/>
	<path class="st0" d="M-12.2,23.8c-0.3,1,0.1,3.7,0.1,3.7s2.1,2.7,2.9,5.3c0.9,2.7,1.2,4.3-1.5,10.2c-2.1,4.1-2.2,7.4-2.8,8.5
		c-1,2.1-1.9,1.2-1.6,6.5c0,0,7.4-5.7,5-7.1c-1.8-1,1.3-3.7,7.1-4.4c-2.4-2.2-0.4-5.5,3.5-5c4,0.6,6.9,3.4,10.5,5.2
		c0.9,0.4,1.3-1.3,0.6-2.2c-1-1.2-2.8-1.5-2.8-2.7c0-0.9,2.7-1.5,2.1-2.9c-0.9-2.4-4.4-0.6-5.3-2.1S5.5,34.3,7.3,34
		c1.8-0.3-0.1-5.7-4.7-3.8c-4.6,1.9-6.2,0.4-9-2.4C-8.4,25.8-10.3,24.6-12.2,23.8z M-10.4,28.3c5.9,2.1,7.7,5.6,7.7,5.6
		s-1.8,1.8-4.4,2.7C-6.1,30.2-10.4,28.3-10.4,28.3z"/>
	<path class="st0" d="M39.5,23.8c0.3,1-0.1,3.7-0.1,3.7s-2.1,2.7-2.9,5.3c-0.9,2.7-1.2,4.3,1.5,10.2c2.1,4.1,2.2,7.4,2.8,8.5
		c1,2.1,1.9,1.2,1.6,6.5c0,0-7.4-5.7-5-7.1c1.8-1-1.3-3.7-7.1-4.4c2.4-2.2,0.4-5.5-3.5-5c-4,0.6-6.9,3.4-10.5,5.2
		c-0.9,0.4-1.3-1.3-0.6-2.2c1-1.2,2.8-1.5,2.8-2.7c0-0.9-2.7-1.5-2.1-2.9c0.9-2.4,4.4-0.6,5.3-2.1c0.9-1.6,0.1-2.5-1.6-2.8
		c-1.8-0.3,0.1-5.7,4.7-3.8c4.6,1.9,6.2,0.4,9-2.4C35.7,25.8,37.5,24.6,39.5,23.8z M37.8,28.3c-5.9,2.1-7.7,5.6-7.7,5.6
		s1.8,1.8,4.4,2.7C33.3,30.2,37.8,28.3,37.8,28.3z"/>
	<path class="st0" d="M-17.8,13.8c-1,10.3,5,19.6,5.5,20.9c0.4,1.2,0.3,3.2-1,4.6c-4,5-5.5,20-5.5,25.8c0.1,5.7,1.6,6.5,1.6,6.5
		s0.1-0.7,1-2.1c0.1,2.8,1,8.1,6.3,13.1C-8.4,70.9,2.1,70.4,5.1,70.9c0.1,1.5,2.9,9.3,3.4,9.7c0.3,0.4,7.2,2.8,10.8,0.1
		c3.5-2.8,1.2-5.9,4-9.7c11.3-1.5,14.9,8.1,14.4,11.9c4.4-4.4,5.3-9.7,5.3-9.7s1.2,0.7,1.9,1.5c5.6-17.1-3.2-34.8-5.3-38.2
		c6.6-13.7,5.7-18.9,5.3-22c-4.7,4.1-15,11.1-18.3,11.1c-3.2,0-4.9-1.9-9.3-2.7c0,1.8-3.2,5.5-3.2,5.5s-2.4-2.8-3.5-5.5
		c-4.1-0.1-6.6,3.2-9.9,2.5C-6.3,23.5-17.8,13.8-17.8,13.8L-17.8,13.8z M41.9,19.4c0,0,0.9,2.2,0.3,3.2c-0.6,1-1.3,3.2-1.8,4.7
		c-0.4,1.5-1.2,4.9-2.1,6.2c-0.9,1.3-1.9,2.8,1.5,8.8c3.4,6,5.2,19.2,3.4,19.2c-1.9,0-4.7-4.9-8.5-6.5c-3.8-1.6-7.1-1.6-10.2-1.6
		c-1.9,0-4.3,0.7-4.4,2.1c-0.1,0.9,1.3,0.6,3.4,1.2c2.2,0.6,1.8,1.6,1.3,2.5c-0.4,1-2.5,0.1-4.4-0.3c-1.9-0.4-4.3-1.3-4-2.1
		c0.6-1.9,2.4-2.2,2.4-4.1c0-1.2-2.1-2.7-4.6-2.7s-3.4,0.7-4.1,1.9c-0.7,1.2,1.2,3.1,1.6,4.1c0.9,1.6-3.5,4.3-6.6,3.5
		c-2.9-0.7,0.1-3.5,2.5-3.7c2.9-0.3,0-2.5-4.1-2.5s-5.7,0.7-8,1.6c-2.2,0.9-5.3,1.5-11.2,6.6c-0.9-11.2,4.3-19.9,5.2-21.1
		c0.9-1.2,1.8-2.8,1-4.4c-3.7-8.5-4.9-16.5-4.9-16.5s4.4,3.4,9.4,6.8s8.4,2.1,13.7,0.3c1.5,8,5.5,11.2,5.5,11.2c3.2-2.8,4.4-8,4-9.4
		c-0.3-1.5-0.1-3.1,3.2-1.8c5.5,1.8,6.5,1.6,11.3-0.6C37.3,23.8,41.9,19.4,41.9,19.4z M-0.5,57.7c2.9,3.7,2.9,3.7,6.3,4
		c1.3,3.7,0.6,4.9,4.9,12.4c0-0.3,0.1-11.9,0.1-11.9s1.3,0.3,1.2,1.5c0.1,1.3,0,2.7,0,2.7l1.2-1.3l1,1.3l1.2-1.2l1,1.2
		c0,0,0.1-1.9,0.1-2.8c0-0.6,1.3-1.5,1.3-1.5v5.9l-0.7,6.5c0,0,3.2-4.6,4.3-11.9c4.3-1.5,6.3-3.1,6.3-4.7c3.1-0.6,13.1,2.5,13.7,9.4
		c-0.1,3.5-1.6,7.5-1.6,7.5s-4.6-7.5-17.5-6.8c-2.5,4.1-3.1,7.2-3.4,9.4c-0.4,2.1-2.5,2.5-4.1,2.5c-1.5,0-3.7-0.7-4.7-2.1
		c-1-1.3-2.5-8.3-4-9.9c-2.7-1.2-13.6,0.7-17.8,7.2C-14.1,67.3-12.8,58.5-0.5,57.7L-0.5,57.7z"/>
	<path class="st0" d="M11.7,74.2h4.6v-2.8l-1.3,1.3l-1-1.2l-1,1l-1.2-1.2V74.2z"/>
</g>
</svg>
