<?xml version="1.0" encoding="utf-8"?>
<!-- Generator: Adobe Illustrator 27.8.1, SVG Export Plug-In . SVG Version: 6.00 Build 0)  -->
<svg version="1.1" id="Layer_1" xmlns="http://www.w3.org/2000/svg" xmlns:xlink="http://www.w3.org/1999/xlink" x="0px" y="0px"
	 viewBox="0 0 92.3 94.4" style="enable-background:new 0 0 92.3 94.4;" xml:space="preserve">
<style type="text/css">
	.st0{fill:#F38821;}
</style>
<g transform="translate(32.222781,-1.1785113)">
	<path class="st0" d="M-12.2,72.9c0,0,4.5-5.3,11.3-6.5c-4.2-0.2-5.6,1.1-6.8,0.2c-1.3-0.8,1.6-3.5,1.6-3.5S-15.3,68.4-12.2,72.9z"
		/>
	<path class="st0" d="M-2.5,44.2c0,0,6.6,5.5,8.2,3.1C7.3,44.7,2.3,44.1-2.5,44.2z"/>
	<path class="st0" d="M30.4,44.2c0,0-6.6,5.5-8.2,3.1C20.7,44.7,25.5,44.1,30.4,44.2z"/>
	<path class="st0" d="M40.7,72.9c0,0-4.5-5.3-11.3-6.5c4.2-0.2,5.6,1.1,6.8,0.2c1.1-1-1.6-3.5-1.6-3.5S43.8,68.4,40.7,72.9z"/>
	<path class="st0" d="M-14.6,22.1c-0.3,1.1,0.2,4,0.2,4s2.3,2.9,3.2,5.8s1.3,4.7-1.6,11.1c-2.3,4.5-2.4,8.1-3.1,9.4
		c-1.1,2.3-2.1,1.3-1.8,7.1c0,0,8.1-6.3,5.5-7.7c-1.9-1.1,1.5-4,7.7-4.8c-2.6-2.4-0.5-6,3.9-5.5c4.4,0.6,7.6,3.7,11.5,5.6
		c1,0.5,1.5-1.5,0.6-2.4c-1.1-1.3-3.1-1.6-3.1-2.9c0-1,2.9-1.6,2.3-3.2c-1-2.6-4.8-0.6-5.8-2.3s-0.2-2.7,1.8-3.1S6.5,27,1.5,29.1
		c-5,2.1-6.8,0.5-9.8-2.6C-10.4,24.2-12.5,22.9-14.6,22.1z M-12.7,27c6.5,2.3,8.4,6.1,8.4,6.1S-6.2,35-9.1,36
		C-8,29.1-12.7,27-12.7,27z"/>
	<path class="st0" d="M42,22.1c0.3,1.1-0.2,4-0.2,4s-2.3,2.9-3.2,5.8s-1.3,4.7,1.6,11.1c2.3,4.5,2.4,8.1,3.1,9.4
		c1.1,2.3,2.1,1.3,1.8,7.1c0,0-8.1-6.3-5.5-7.7c1.9-1.1-1.5-4-7.7-4.8c2.6-2.4,0.5-6-3.9-5.5c-4.4,0.6-7.6,3.7-11.5,5.6
		c-1,0.5-1.5-1.5-0.6-2.4c1.1-1.3,3.1-1.6,3.1-2.9c0-1-2.9-1.6-2.3-3.2c1-2.6,4.8-0.6,5.8-2.3c1-1.8,0.2-2.7-1.8-3.1
		s0.2-6.3,5.2-4.2s6.8,0.5,9.8-2.6C37.8,24.2,39.7,22.9,42,22.1z M40.1,27c-6.5,2.3-8.4,6.1-8.4,6.1s1.9,1.9,4.8,2.9
		C35.2,29.1,40.1,27,40.1,27z"/>
	<path class="st0" d="M-20.7,11.2c-1.1,11.3,5.5,21.4,6,22.9c0.5,1.3,0.3,3.5-1.1,5c-4.4,5.5-6,21.9-6,28.2c0.2,6.3,1.8,7.1,1.8,7.1
		s0.2-0.8,1.1-2.3c0.2,3.1,1.1,8.9,6.9,14.4C-10.4,73.6,1,73.1,4.2,73.6C4.4,75.2,7.5,83.7,8,84.2c0.3,0.5,7.9,3.1,11.8,0.2
		c3.9-3.1,1.3-6.5,4.4-10.6c12.4-1.6,16.3,8.9,15.8,13.1c4.8-4.8,5.8-10.6,5.8-10.6s1.3,0.8,2.1,1.6C53.9,59.1,44.2,39.7,42,36
		c7.3-15,6.3-20.6,5.8-24c-5.2,4.5-16.5,12.1-20,12.1c-3.5,0-5.3-2.1-10.2-2.9c0,1.9-3.5,6-3.5,6s-2.6-3.1-3.9-6
		C5.7,21,3,24.7-0.6,23.9C-8.2,21.8-20.7,11.2-20.7,11.2L-20.7,11.2z M44.6,17.3c0,0,1,2.4,0.3,3.5S43.4,24.4,43,26
		c-0.5,1.6-1.3,5.3-2.3,6.8c-1,1.5-2.1,3.1,1.6,9.7c3.7,6.6,5.6,21,3.7,21c-2.1,0-5.2-5.3-9.4-7.1c-4.2-1.8-7.7-1.8-11.1-1.8
		c-2.1,0-4.7,0.8-4.8,2.3c-0.2,1,1.5,0.6,3.7,1.3c2.4,0.6,1.9,1.8,1.5,2.7C25.4,62,23.1,61,21,60.5s-4.7-1.5-4.4-2.3
		c0.6-2.1,2.6-2.4,2.6-4.5c0-1.3-2.3-2.9-5-2.9s-3.7,0.8-4.5,2.1c-0.8,1.3,1.3,3.4,1.8,4.5c1,1.8-3.9,4.7-7.3,3.9
		c-3.2-0.8,0.2-3.9,2.7-4c3.2-0.3,0-2.7-4.5-2.7s-6.3,0.8-8.7,1.8s-5.8,1.6-12.3,7.3c-1-12.3,4.7-21.8,5.6-23.1
		c1-1.3,1.9-3.1,1.1-4.8c-4-9.4-5.3-18.1-5.3-18.1s4.8,3.7,10.3,7.4s9.2,2.3,15,0.3c1.6,8.7,6,12.3,6,12.3c3.5-3.1,4.8-8.7,4.4-10.3
		c-0.3-1.6-0.2-3.4,3.5-1.9c6,1.9,7.1,1.8,12.4-0.6C39.6,22.1,44.6,17.3,44.6,17.3z M-1.9,59.2c3.2,4,3.2,4,6.9,4.4
		c1.5,4,0.6,5.3,5.3,13.5c0-0.3,0.2-13.1,0.2-13.1s1.5,0.3,1.3,1.6c0.2,1.5,0,2.9,0,2.9l1.3-1.5l1.1,1.5l1.3-1.3l1.1,1.3
		c0,0,0.2-2.1,0.2-3.1c0-0.6,1.5-1.6,1.5-1.6v6.5l-0.8,7.1c0,0,3.5-5,4.7-13.1c4.7-1.6,6.9-3.4,6.9-5.2c3.4-0.6,14.4,2.7,15,10.3
		c-0.2,3.9-1.8,8.2-1.8,8.2s-5-8.2-19.2-7.4c-2.7,4.5-3.4,7.9-3.7,10.3c-0.5,2.3-2.7,2.7-4.5,2.7c-1.6,0-4-0.8-5.2-2.3
		s-2.7-9-4.4-10.8c-2.9-1.3-14.8,0.8-19.5,7.9C-16.7,69.7-15.3,60-1.9,59.2L-1.9,59.2z"/>
	<path class="st0" d="M11.5,77.3h5v-3.1l-1.5,1.5l-1.1-1.3l-1.1,1.1l-1.3-1.3V77.3z"/>
</g>
</svg>
