<svg xmlns="http://www.w3.org/2000/svg" viewBox="0 0 300 300"><path fill="#FF1744" d="M172.382 24.41c-1.793 0-3.5.426-5.036.938 3.329 2.22 5.121 5.121 6.06 8.45.085.427.17.768.256 1.195s.17.768.17 1.195c.257 5.719-1.536 6.401-2.73 9.815-1.878 4.353-1.366 9.048.938 12.803.17.427.427.94.768 1.451-2.475-16.473 11.267-18.948 13.827-24.07.171-4.523-3.499-7.51-6.401-9.558-2.987-1.708-5.548-2.22-7.852-2.22zm20.655 3.67c-.256 1.536-.086 1.11-.17 1.877-.086.512-.086 1.195-.172 1.707-.17.512-.256 1.024-.426 1.537l-.512 1.536c-.257.512-.427.939-.683 1.536l-.512.768c-.171.171-.256.427-.427.598-.342.427-.683.939-.939 1.28-.427.427-.683.854-1.195 1.195v.085c-.427.342-.768.683-1.195 1.025-1.366 1.024-2.902 1.792-4.353 2.816-.427.342-.939.598-1.28.94-.427.34-.854.682-1.195 1.023l-1.195 1.195c-.341.427-.683.854-.939 1.28-.341.427-.683.94-.939 1.366-.256.512-.426.94-.683 1.537-.17.512-.426.938-.512 1.536-.17.597-.341 1.11-.426 1.622-.086.256-.086.597-.171.853s-.085.512-.17.768c0 .512-.086 1.11-.086 1.622 0 .427 0 .768.085 1.195 0 .512.086 1.024.17 1.622.086.512.172 1.024.342 1.536l.512 1.536c.171.342.342.683.427.94l-14.936-5.805c-2.561-.683-5.036-1.365-7.511-1.963-1.366-.341-2.732-.683-4.097-.939a137 137 0 0 0-11.864-1.792c-.17 0-.17-.086-.342-.086-3.926-.426-7.767-.597-11.608-.597-2.901 0-5.718.17-8.535.341-3.926.256-7.937.769-11.864 1.451-.939.171-1.963.342-2.902.513-2.048.426-3.926.853-5.889 1.28-.939.256-1.963.512-2.902.768-.939.427-1.878.854-2.816 1.195a23 23 0 0 1-2.134.939c-.171.085-.256.085-.342.17a34 34 0 0 0-1.792.94c-.17.085-.341.17-.427.17-.683.341-1.45.683-2.048 1.024-.427.171-.94.427-1.28.683-.171.17-.427.256-.598.342-.597.34-1.195.682-1.707.938-.598.342-1.11.683-1.536.94-.427.34-.94.597-1.28.938-.086.085-.171.085-.171.17a6.5 6.5 0 0 0-1.195.94l-.171.17c-.341.256-.683.513-.939.769-.17.085-.256.17-.427.256-.341.256-.682.597-.939.853-.085.17-.17.17-.256.256-.426.427-.768.683-1.195 1.11-.085 0-.085.085-.17.17-.427.342-.768.683-1.195 1.11-.085.085-.085.17-.17.17-.342.342-.684.684-.94 1.025-.17.17-.341.256-.426.427-.342.427-.683.768-1.11 1.195-.085.17-.17.17-.256.341-.512.512-.939 1.024-1.536 1.536l-.171.171c-1.024 1.11-2.134 2.22-3.329 3.158-1.195 1.024-2.39 2.049-3.67 2.902-1.28.939-2.56 1.707-3.926 2.475-1.28.683-2.646 1.366-4.097 1.963a36 36 0 0 1-4.268 1.537c-2.731.597-5.548 1.707-7.937 1.878-.513 0-1.11.17-1.622.17-.598.17-1.11.256-1.622.427s-1.024.427-1.536.597-1.024.427-1.536.683c-.427.342-.94.598-1.451.94-.427.34-.94.682-1.28 1.109-.428.341-.94.768-1.281 1.195-.427.426-.768.853-1.11 1.28-.341.512-.682.939-.938 1.536-.342.427-.683.94-.94 1.537s-.511 1.11-.682 1.707c-.17.512-.427 1.11-.598 1.707-.17.512-.256 1.024-.341 1.536 0 .085-.085.17-.085.17-.171.598-.171 1.366-.171 1.793-.085.427-.17.854-.17 1.28 0 .256 0 .598.085.854.085.427.17.853.256 1.195.17.427.256.768.426 1.195v.085c.171.427.427.768.683 1.195s.512.768.854 1.195c.341.341.683.683 1.11 1.024.426.427.767.683 1.194 1.024 1.537 1.366 1.963 1.793 3.926 2.902l1.025.512c.085 0 .17.086.17.086 0 .17 0 .17.086.341.085.512.17 1.024.341 1.537q.256.896.512 1.536c.256.64.342.768.512 1.195.086.17.171.256.171.341.256.512.512.94.768 1.451.342.427.683.94.94 1.366.34.427.682.853 1.109 1.195.426.427.768.683 1.195 1.11 0 0 .085.085.17.085.427.341.768.683 1.195.939.427.341.94.597 1.451.853.427.256.94.512 1.537.683.426.17.853.341 1.28.427.085.085.17.085.256.17.256.086.597.171.853.171-.17 3.5-.256 6.828.256 8.023.598 1.28 3.415-2.646 6.316-7.255-.426 4.524-.682 9.73 0 11.352s4.61-3.414 8.024-9.047c46.09-10.67 88.168 21.167 92.606 66.233-.853-6.999-9.474-10.925-13.485-9.986-1.963 4.78-5.292 11.01-10.584 14.851.427-4.268.256-8.706-.683-12.974-1.45 5.975-4.267 11.608-8.023 16.388-6.145.427-12.376-2.56-15.62-6.999-.255-.17-.34-.597-.511-.853-.17-.427-.427-.94-.512-1.366-.171-.427-.342-.939-.427-1.366s-.085-.938-.085-1.45v-.94c.085-.426.17-.938.341-1.365s.256-.939.427-1.366c.256-.426.426-.939.768-1.365 1.11-3.158 1.11-5.634-.939-7.17-.427-.256-.768-.427-1.195-.683-.256-.085-.597-.17-.853-.256-.171-.085-.342-.17-.513-.17-.426-.171-.938-.257-1.365-.342-.427-.17-.939-.17-1.366-.17-.427-.086-.939-.171-1.45-.171-.342 0-.684.085-.94.085-.512 0-.939.085-1.45.17-.427.086-.94.171-1.366.257-.427.17-.94.256-1.366.427s-.853.426-1.28.597-.768.427-1.195.683c-15.193 9.9-6.145 33.031 4.267 39.689-3.926.682-7.852 1.536-8.961 2.39l-.171.17a56 56 0 0 0 8.791 4.353c4.182 1.366 8.62 2.56 10.498 3.158v.085c5.378 1.11 10.84 1.537 16.388 1.195 28.764-2.048 52.406-23.898 56.674-52.833.17.598.256 1.11.426 1.708.171 1.194.427 2.39.598 3.67v.085c.17.597.17 1.195.256 1.707v.256c.085.598.17 1.195.17 1.707.086.683.171 1.451.171 2.134v1.024c0 .342.086.683.086 1.024 0 .427-.086.769-.086 1.195v.94c0 .426-.085.853-.085 1.28 0 .256 0 .512-.085.853 0 .427-.086.939-.086 1.451-.085.17-.085.427-.085.597-.085.513-.17.94-.17 1.537 0 .17 0 .427-.086.597-.085.683-.17 1.195-.256 1.878v.17c-.17.598-.256 1.196-.427 1.793v.17c-.17.598-.256 1.196-.427 1.793 0 .086-.085.17-.085.256-.17.598-.256 1.195-.427 1.793v.17c-.17.683-.427 1.195-.512 1.793-.085.085-.085.17-.085.17-.17.683-.427 1.28-.598 1.964-.256.682-.426 1.194-.683 1.877s-.426 1.28-.682 1.878c-.256.683-.512 1.195-.768 1.878h-.086c-.256.597-.512 1.195-.853 1.792-.086.17-.171.342-.171.427-.085.085-.085.17-.17.17-4.268 8.536-10.5 15.961-18.266 21.85-.512.342-1.024.684-1.536 1.11-.171.171-.342.171-.427.342a8.5 8.5 0 0 1-1.451.939l.17.426h.086c.939-.17 1.792-.256 2.731-.426h.085c1.708-.256 3.415-.598 5.036-.94.427-.085.94-.17 1.451-.34.342-.086.598-.171.94-.171.426-.086.938-.171 1.365-.256.427-.171.768-.171 1.195-.342 6.486-1.536 12.802-3.67 18.862-6.23-10.327 14.082-24.154 25.52-40.371 32.945a109 109 0 0 0 22.191-3.84c26.204-7.768 48.224-25.35 61.454-49.078-2.646 15.022-8.62 29.361-17.497 41.823 6.316-4.183 12.12-8.962 17.326-14.425 14.595-15.193 24.155-34.568 27.398-55.308 2.22 10.242 2.902 20.911 1.878 31.324 46.944-65.465 3.926-133.405-14.083-151.244-.085-.17-.17-.17-.17-.341-.086.085-.086.085-.086.17 0-.085 0-.085-.086-.17 0 .768-.085 1.536-.17 2.304-.17 1.537-.427 2.902-.683 4.353-.341 1.451-.683 2.902-1.11 4.268s-.938 2.817-1.536 4.182c-.597 1.28-1.195 2.646-1.963 3.926a53 53 0 0 1-2.305 3.67c-.853 1.196-1.792 2.39-2.645 3.5-.94 1.195-2.049 2.22-3.073 3.243-.683.598-1.195 1.11-1.878 1.622-.512.427-.939.854-1.536 1.28-1.195.94-2.305 1.793-3.67 2.56-1.195.77-2.56 1.537-3.841 2.22-1.366.683-2.731 1.195-4.097 1.792-1.366.513-2.817.94-4.268 1.366s-2.902.683-4.353.939a42 42 0 0 1-4.438.512c-1.024.085-2.048.17-3.158.17-1.536 0-2.987-.17-4.438-.255-1.537-.171-2.988-.342-4.439-.683-1.536-.256-2.902-.683-4.353-1.11h-.085c1.451-.17 2.902-.256 4.268-.512 1.536-.256 2.902-.597 4.353-.939 1.45-.426 2.902-.853 4.267-1.365 1.451-.512 2.817-1.195 4.097-1.793 1.366-.682 2.56-1.365 3.926-2.133 1.195-.854 2.476-1.707 3.67-2.561 1.195-.939 2.305-1.878 3.33-2.902 1.109-.939 2.048-2.048 3.072-3.158.939-1.195 1.878-2.305 2.731-3.5.17-.17.256-.426.427-.682a39 39 0 0 0 1.878-3.158c.682-1.28 1.365-2.56 1.963-3.926s1.11-2.732 1.536-4.183c.427-1.365.768-2.816 1.11-4.267.256-1.537.512-2.902.682-4.353.171-1.537.257-2.988.257-4.439 0-1.024-.086-2.048-.171-3.158-.17-1.536-.342-2.902-.512-4.353-.256-1.536-.598-2.902-.94-4.352-.426-1.366-.938-2.817-1.45-4.183s-1.195-2.731-1.793-4.011c-.682-1.28-1.45-2.56-2.219-3.841l-2.56-3.585c-.94-1.11-1.963-2.22-2.988-3.329-.512-.512-1.11-1.11-1.707-1.621-2.902-2.305-5.974-4.439-9.047-6.402-.427-.256-.853-.426-1.28-.683-2.049-1.536-4.012-2.219-6.06-2.902z"/></svg>