<svg viewBox="0 0 24 24" fill="none" xmlns="http://www.w3.org/2000/svg">
  <path
    d="M13.79 1.953c-.143 0-.28.034-.402.075.266.177.41.41.485.676.006.034.013.061.02.095.007.035.014.062.014.096.02.458-.123.512-.219.785-.15.349-.11.724.075 1.025a.65.65 0 0 0 .062.116c-.198-1.318.901-1.516 1.106-1.926.014-.362-.28-.6-.512-.765a1.228 1.228 0 0 0-.629-.177Zm1.653.293c-.02.123-.007.09-.014.15-.007.042-.007.096-.013.137-.014.041-.02.082-.034.123l-.041.123c-.021.04-.035.075-.055.123l-.041.061c-.014.014-.02.034-.034.048-.027.034-.055.075-.075.103-.034.034-.055.068-.096.095v.007c-.034.027-.061.055-.095.082-.11.082-.233.143-.349.225-.034.028-.075.048-.102.075-.034.028-.068.055-.096.082l-.095.096a.968.968 0 0 0-.076.102 1.046 1.046 0 0 0-.075.11c-.02.04-.034.075-.054.122-.014.041-.034.076-.041.123-.014.048-.027.09-.034.13-.007.02-.007.048-.014.068-.007.02-.007.041-.014.062 0 .04-.006.089-.006.13 0 .034 0 .061.006.095 0 .041.007.082.014.13.007.04.014.082.027.123l.041.123a.672.672 0 0 1 .034.075l-1.195-.464c-.204-.055-.402-.11-.6-.158-.11-.027-.219-.054-.328-.075-.314-.061-.628-.109-.95-.143-.013 0-.013-.007-.027-.007a8.548 8.548 0 0 0-1.611-.02 9 9 0 0 0-.95.116l-.231.04-.471.103-.233.062c-.075.034-.15.068-.225.095a1.854 1.854 0 0 1-.17.075c-.014.007-.021.007-.028.014a2.758 2.758 0 0 0-.143.075c-.014.007-.028.014-.034.014-.055.027-.117.054-.164.082a.488.488 0 0 0-.103.054c-.013.014-.034.02-.048.028-.047.027-.095.054-.136.075-.048.027-.089.054-.123.075-.034.027-.075.048-.102.075-.007.007-.014.007-.014.014a.515.515 0 0 0-.096.075l-.013.013c-.028.02-.055.041-.075.062-.014.007-.02.013-.035.02a.748.748 0 0 0-.075.069c-.006.013-.013.013-.02.02-.034.034-.062.055-.096.089-.007 0-.007.007-.013.013a1.132 1.132 0 0 0-.096.09c-.007.006-.007.013-.014.013-.027.027-.054.054-.075.082-.013.013-.027.02-.034.034-.027.034-.055.061-.089.096-.007.013-.013.013-.02.027-.041.04-.075.082-.123.123l-.014.013a2.33 2.33 0 0 1-.266.253c-.096.082-.191.164-.294.232a3.03 3.03 0 0 1-.641.355c-.11.048-.226.09-.342.123-.218.048-.444.137-.635.15-.04 0-.089.014-.13.014-.047.014-.088.02-.13.034-.04.014-.081.034-.122.048-.041.014-.082.034-.123.055-.034.027-.075.047-.116.075-.034.027-.075.054-.103.088a.68.68 0 0 0-.102.096c-.034.034-.062.068-.089.103-.027.04-.055.075-.075.122a.536.536 0 0 0-.075.123c-.02.048-.041.09-.055.137-.013.04-.034.089-.048.136-.013.041-.02.082-.027.123 0 .007-.007.014-.007.014-.013.048-.013.11-.013.143-.007.035-.014.069-.014.103 0 .02 0 .048.007.068l.02.096c.014.034.02.061.034.095v.007c.014.034.035.062.055.096a.83.83 0 0 0 .068.095c.028.028.055.055.09.082.033.034.06.055.095.082.123.11.157.144.314.232l.082.041c.007 0 .013.007.013.007 0 .014 0 .014.007.027a1.292 1.292 0 0 0 .068.246l.042.096c.006.014.013.02.013.027.02.041.041.075.062.116.027.034.054.075.075.11a.587.587 0 0 0 .088.095c.035.034.062.055.096.089 0 0 .007.007.014.007.034.027.061.054.095.075a.65.65 0 0 0 .116.068.51.51 0 0 0 .123.055.604.604 0 0 0 .103.034c.007.007.013.007.02.013.02.007.048.014.069.014-.014.28-.021.546.02.642.048.102.273-.212.505-.58-.034.362-.054.778 0 .908.055.13.369-.273.642-.724 3.687-.854 7.054 1.693 7.409 5.299-.069-.56-.758-.874-1.08-.8-.156.383-.422.882-.846 1.189.034-.342.02-.697-.055-1.038a3.46 3.46 0 0 1-.641 1.311c-.492.034-.99-.205-1.25-.56-.02-.014-.027-.048-.04-.068-.015-.034-.035-.075-.042-.11a.671.671 0 0 1-.034-.109c-.007-.034-.007-.075-.007-.116v-.075c.007-.034.014-.075.028-.11.013-.033.02-.074.034-.108.02-.034.034-.075.061-.11.089-.252.089-.45-.075-.573l-.096-.055c-.02-.007-.047-.014-.068-.02a.096.096 0 0 0-.04-.014c-.035-.014-.076-.02-.11-.027-.034-.014-.075-.014-.11-.014a.604.604 0 0 0-.115-.014c-.028 0-.055.007-.076.007-.04 0-.075.007-.116.014l-.109.02c-.034.014-.075.02-.11.034-.033.014-.067.035-.102.048-.034.014-.061.034-.095.055-1.216.792-.492 2.642.341 3.175-.314.055-.628.123-.717.191l-.013.014c.225.136.457.253.703.348.335.11.69.205.84.253v.007c.43.088.867.122 1.31.095a4.947 4.947 0 0 0 4.535-4.226c.013.047.02.088.034.136.013.096.034.191.048.294v.006c.013.048.013.096.02.137v.02c.007.048.014.096.014.137.007.055.014.116.014.17v.083c0 .027.006.054.006.082 0 .034-.007.061-.007.095v.075c0 .035-.006.069-.006.103 0 .02 0 .04-.007.068 0 .034-.007.075-.007.116-.007.014-.007.034-.007.048-.007.041-.014.075-.014.123 0 .014 0 .034-.006.048-.007.054-.014.095-.02.15v.014c-.015.047-.021.095-.035.143v.014c-.014.047-.02.095-.034.143 0 .007-.007.014-.007.02-.014.048-.02.096-.034.144v.014c-.014.054-.034.095-.041.143-.007.007-.007.014-.007.014-.014.054-.034.102-.048.157l-.054.15c-.02.055-.034.102-.055.15-.02.055-.04.096-.061.15h-.007c-.02.048-.041.096-.069.144-.006.013-.013.027-.013.034-.007.007-.007.014-.014.014a5 5 0 0 1-1.461 1.748 1.37 1.37 0 0 0-.123.088c-.014.014-.027.014-.034.028a.683.683 0 0 1-.116.075l.014.034h.006c.075-.014.144-.02.219-.034h.007c.136-.02.273-.048.402-.075.035-.007.076-.014.117-.028.027-.007.047-.013.075-.013l.109-.02c.034-.015.061-.015.096-.028a9.533 9.533 0 0 0 1.509-.499 8.286 8.286 0 0 1-3.23 2.636c.6-.04 1.195-.143 1.775-.307a8.328 8.328 0 0 0 4.916-3.926 8.238 8.238 0 0 1-1.4 3.345c.506-.334.97-.717 1.387-1.154a8.23 8.23 0 0 0 2.192-4.424c.177.82.232 1.673.15 2.506 3.755-5.238.314-10.673-1.127-12.1-.007-.013-.013-.013-.013-.027-.007.007-.007.007-.007.014 0-.007 0-.007-.007-.014 0 .061-.007.123-.014.184-.013.123-.034.232-.054.348-.028.117-.055.233-.09.342a3.32 3.32 0 0 1-.122.334c-.048.103-.096.212-.157.315a4.27 4.27 0 0 1-.184.293c-.069.096-.144.191-.212.28-.075.096-.164.178-.246.26-.055.047-.096.088-.15.13-.041.033-.075.068-.123.102a2.241 2.241 0 0 1-.294.205 4.51 4.51 0 0 1-.307.177c-.11.055-.218.096-.328.144-.109.04-.225.075-.341.109a3.17 3.17 0 0 1-.348.075c-.123.02-.24.034-.355.04a2.968 2.968 0 0 1-.253.015c-.123 0-.239-.014-.355-.021a2.963 2.963 0 0 1-.355-.055c-.123-.02-.232-.054-.348-.088h-.007c.116-.014.232-.02.341-.041.123-.02.232-.048.348-.075.117-.035.233-.069.342-.11.116-.04.225-.095.328-.143.109-.055.204-.11.314-.17.095-.07.198-.137.293-.206.096-.075.185-.15.267-.232.088-.075.163-.164.245-.252.076-.096.15-.185.219-.28.014-.014.02-.035.034-.055a4.5 4.5 0 0 0 .307-.567c.048-.109.09-.218.123-.334.034-.11.062-.226.089-.342.02-.123.041-.232.055-.348.013-.123.02-.239.02-.355 0-.082-.007-.164-.014-.253-.013-.123-.027-.232-.04-.348-.021-.123-.048-.232-.076-.348a6.606 6.606 0 0 0-.116-.335c-.04-.109-.095-.218-.143-.32-.055-.103-.116-.205-.178-.308l-.204-.287a8.311 8.311 0 0 0-.24-.266 2.487 2.487 0 0 0-.136-.13 8.697 8.697 0 0 0-.724-.512c-.034-.02-.068-.034-.102-.054a1.574 1.574 0 0 0-.485-.233Z"
    fill="#FFA726" />
</svg>