<?xml version="1.0" encoding="utf-8"?>
<!-- Generator: Adobe Illustrator 22.1.0, SVG Export Plug-In . SVG Version: 6.00 Build 0)  -->
<svg version="1.1" id="Layer_1" xmlns="http://www.w3.org/2000/svg" xmlns:xlink="http://www.w3.org/1999/xlink" x="0px" y="0px"
	 width="300px" height="300px" viewBox="0 0 300 300" style="enable-background:new 0 0 300 300;" xml:space="preserve">
<style type="text/css">
	.st0{fill:#FFCA28;}
</style>
<g transform="translate(-25.4 -196.99)">
	<path class="st0" d="M201.6,200.1c-2.1,0-4.1,0.5-5.9,1.1c3.9,2.6,6,6,7.1,9.9c0.1,0.5,0.2,0.9,0.3,1.4c0.1,0.5,0.2,0.9,0.2,1.4
		c0.3,6.7-1.8,7.5-3.2,11.5c-2.2,5.1-1.6,10.6,1.1,15c0.2,0.5,0.5,1.1,0.9,1.7c-2.9-19.3,13.2-22.2,16.2-28.2
		c0.2-5.3-4.1-8.8-7.5-11.2C207.3,200.7,204.3,200.1,201.6,200.1L201.6,200.1z M225.8,204.4c-0.3,1.8-0.1,1.3-0.2,2.2
		c-0.1,0.6-0.1,1.4-0.2,2c-0.2,0.6-0.3,1.2-0.5,1.8c-0.2,0.6-0.4,1.2-0.6,1.8c-0.3,0.6-0.5,1.1-0.8,1.8c-0.2,0.3-0.4,0.6-0.6,0.9
		c-0.2,0.2-0.3,0.5-0.5,0.7c-0.4,0.5-0.8,1.1-1.1,1.5c-0.5,0.5-0.8,1-1.4,1.4v0.1c-0.5,0.4-0.9,0.8-1.4,1.2
		c-1.6,1.2-3.4,2.1-5.1,3.3c-0.5,0.4-1.1,0.7-1.5,1.1c-0.5,0.4-1,0.8-1.4,1.2c-0.5,0.5-0.9,0.9-1.4,1.4c-0.4,0.5-0.8,1-1.1,1.5
		c-0.4,0.5-0.8,1.1-1.1,1.6c-0.3,0.6-0.5,1.1-0.8,1.8c-0.2,0.6-0.5,1.1-0.6,1.8c-0.2,0.7-0.4,1.3-0.5,1.9c-0.1,0.3-0.1,0.7-0.2,1
		c-0.1,0.3-0.1,0.6-0.2,0.9c0,0.6-0.1,1.3-0.1,1.9c0,0.5,0,0.9,0.1,1.4c0,0.6,0.1,1.2,0.2,1.9c0.1,0.6,0.2,1.2,0.4,1.8
		c0.2,0.6,0.4,1.2,0.6,1.8c0.2,0.4,0.4,0.8,0.5,1.1l-17.5-6.8c-3-0.8-5.9-1.6-8.8-2.3c-1.6-0.4-3.2-0.8-4.8-1.1
		c-4.6-0.9-9.2-1.6-13.9-2.1c-0.2,0-0.2-0.1-0.4-0.1c-4.6-0.5-9.1-0.7-13.6-0.7c-3.4,0-6.7,0.2-10,0.4c-4.6,0.3-9.3,0.9-13.9,1.7
		c-1.1,0.2-2.3,0.4-3.4,0.6c-2.4,0.5-4.6,1-6.9,1.5c-1.1,0.3-2.3,0.6-3.4,0.9c-1.1,0.5-2.2,1-3.3,1.4c-0.8,0.4-1.7,0.8-2.5,1.1
		c-0.2,0.1-0.3,0.1-0.4,0.2c-0.8,0.4-1.4,0.7-2.1,1.1c-0.2,0.1-0.4,0.2-0.5,0.2c-0.8,0.4-1.7,0.8-2.4,1.2c-0.5,0.2-1.1,0.5-1.5,0.8
		c-0.2,0.2-0.5,0.3-0.7,0.4c-0.7,0.4-1.4,0.8-2,1.1c-0.7,0.4-1.3,0.8-1.8,1.1c-0.5,0.4-1.1,0.7-1.5,1.1c-0.1,0.1-0.2,0.1-0.2,0.2
		c-0.5,0.3-1,0.7-1.4,1.1c0,0-0.1,0.1-0.2,0.2c-0.4,0.3-0.8,0.6-1.1,0.9c-0.2,0.1-0.3,0.2-0.5,0.3c-0.4,0.3-0.8,0.7-1.1,1
		c-0.1,0.2-0.2,0.2-0.3,0.3c-0.5,0.5-0.9,0.8-1.4,1.3c-0.1,0-0.1,0.1-0.2,0.2c-0.5,0.4-0.9,0.8-1.4,1.3c-0.1,0.1-0.1,0.2-0.2,0.2
		c-0.4,0.4-0.8,0.8-1.1,1.2c-0.2,0.2-0.4,0.3-0.5,0.5c-0.4,0.5-0.8,0.9-1.3,1.4c-0.1,0.2-0.2,0.2-0.3,0.4c-0.6,0.6-1.1,1.2-1.8,1.8
		c-0.1,0.1-0.2,0.2-0.2,0.2c-1.2,1.3-2.5,2.6-3.9,3.7c-1.4,1.2-2.8,2.4-4.3,3.4c-1.5,1.1-3,2-4.6,2.9c-1.5,0.8-3.1,1.6-4.8,2.3
		c-1.6,0.7-3.3,1.3-5,1.8c-3.2,0.7-6.5,2-9.3,2.2c-0.6,0-1.3,0.2-1.9,0.2c-0.7,0.2-1.3,0.3-1.9,0.5c-0.6,0.2-1.2,0.5-1.8,0.7
		c-0.6,0.2-1.2,0.5-1.8,0.8c-0.5,0.4-1.1,0.7-1.7,1.1c-0.5,0.4-1.1,0.8-1.5,1.3c-0.5,0.4-1.1,0.9-1.5,1.4c-0.5,0.5-0.9,1-1.3,1.5
		c-0.4,0.6-0.8,1.1-1.1,1.8c-0.4,0.5-0.8,1.1-1.1,1.8c-0.3,0.7-0.6,1.3-0.8,2c-0.2,0.6-0.5,1.3-0.7,2c-0.2,0.6-0.3,1.2-0.4,1.8
		c0,0.1-0.1,0.2-0.1,0.2c-0.2,0.7-0.2,1.6-0.2,2.1c-0.1,0.5-0.2,1-0.2,1.5c0,0.3,0,0.7,0.1,1c0.1,0.5,0.2,1,0.3,1.4
		c0.2,0.5,0.3,0.9,0.5,1.4v0.1c0.2,0.5,0.5,0.9,0.8,1.4c0.3,0.5,0.6,0.9,1,1.4c0.4,0.4,0.8,0.8,1.3,1.2c0.5,0.5,0.9,0.8,1.4,1.2
		c1.8,1.6,2.3,2.1,4.6,3.4c0.4,0.2,0.8,0.4,1.2,0.6c0.1,0,0.2,0.1,0.2,0.1c0,0.2,0,0.2,0.1,0.4c0.1,0.6,0.2,1.2,0.4,1.8
		c0.2,0.7,0.4,1.3,0.6,1.8c0.2,0.5,0.4,0.9,0.6,1.4c0.1,0.2,0.2,0.3,0.2,0.4c0.3,0.6,0.6,1.1,0.9,1.7c0.4,0.5,0.8,1.1,1.1,1.6
		c0.4,0.5,0.8,1,1.3,1.4c0.5,0.5,0.9,0.8,1.4,1.3c0,0,0.1,0.1,0.2,0.1c0.5,0.4,0.9,0.8,1.4,1.1c0.5,0.4,1.1,0.7,1.7,1
		c0.5,0.3,1.1,0.6,1.8,0.8c0.5,0.2,1,0.4,1.5,0.5c0.1,0.1,0.2,0.1,0.3,0.2c0.3,0.1,0.7,0.2,1,0.2c-0.2,4.1-0.3,8,0.3,9.4
		c0.7,1.5,4-3.1,7.4-8.5c-0.5,5.3-0.8,11.4,0,13.3c0.8,1.9,5.4-4,9.4-10.6c54-12.5,103.3,24.8,108.5,77.6
		c-1-8.2-11.1-12.8-15.8-11.7c-2.3,5.6-6.2,12.9-12.4,17.4c0.5-5,0.3-10.2-0.8-15.2c-1.7,7-5,13.6-9.4,19.2
		c-7.2,0.5-14.5-3-18.3-8.2c-0.3-0.2-0.4-0.7-0.6-1c-0.2-0.5-0.5-1.1-0.6-1.6c-0.2-0.5-0.4-1.1-0.5-1.6c-0.1-0.5-0.1-1.1-0.1-1.7
		v-1.1c0.1-0.5,0.2-1.1,0.4-1.6c0.2-0.5,0.3-1.1,0.5-1.6c0.3-0.5,0.5-1.1,0.9-1.6c1.3-3.7,1.3-6.6-1.1-8.4c-0.5-0.3-0.9-0.5-1.4-0.8
		c-0.3-0.1-0.7-0.2-1-0.3c-0.2-0.1-0.4-0.2-0.6-0.2c-0.5-0.2-1.1-0.3-1.6-0.4c-0.5-0.2-1.1-0.2-1.6-0.2c-0.5-0.1-1.1-0.2-1.7-0.2
		c-0.4,0-0.8,0.1-1.1,0.1c-0.6,0-1.1,0.1-1.7,0.2c-0.5,0.1-1.1,0.2-1.6,0.3c-0.5,0.2-1.1,0.3-1.6,0.5c-0.5,0.2-1,0.5-1.5,0.7
		c-0.5,0.2-0.9,0.5-1.4,0.8c-17.8,11.6-7.2,38.7,5,46.5c-4.6,0.8-9.2,1.8-10.5,2.8c-0.1,0.1-0.2,0.2-0.2,0.2c3.3,2,6.7,3.7,10.3,5.1
		c4.9,1.6,10.1,3,12.3,3.7v0.1c6.3,1.3,12.7,1.8,19.2,1.4c33.7-2.4,61.4-28,66.4-61.9c0.2,0.7,0.3,1.3,0.5,2
		c0.2,1.4,0.5,2.8,0.7,4.3v0.1c0.2,0.7,0.2,1.4,0.3,2v0.3c0.1,0.7,0.2,1.4,0.2,2c0.1,0.8,0.2,1.7,0.2,2.5v1.2c0,0.4,0.1,0.8,0.1,1.2
		c0,0.5-0.1,0.9-0.1,1.4v1.1c0,0.5-0.1,1-0.1,1.5c0,0.3,0,0.6-0.1,1c0,0.5-0.1,1.1-0.1,1.7c-0.1,0.2-0.1,0.5-0.1,0.7
		c-0.1,0.6-0.2,1.1-0.2,1.8c0,0.2,0,0.5-0.1,0.7c-0.1,0.8-0.2,1.4-0.3,2.2v0.1v0.1c-0.2,0.7-0.3,1.4-0.5,2.1v0.2
		c-0.2,0.7-0.3,1.4-0.5,2.1c0,0.1-0.1,0.2-0.1,0.3c-0.2,0.7-0.3,1.4-0.5,2.1v0.2c-0.2,0.8-0.5,1.4-0.6,2.1c-0.1,0.1-0.1,0.2-0.1,0.2
		c-0.2,0.8-0.5,1.5-0.7,2.3c-0.3,0.8-0.5,1.4-0.8,2.2c-0.3,0.8-0.5,1.5-0.8,2.2c-0.3,0.8-0.6,1.4-0.9,2.2h-0.1
		c-0.3,0.7-0.6,1.4-1,2.1c-0.1,0.2-0.2,0.4-0.2,0.5c-0.1,0.1-0.1,0.2-0.2,0.2c-5,10-12.3,18.7-21.4,25.6c-0.6,0.4-1.2,0.8-1.8,1.3
		c-0.2,0.2-0.4,0.2-0.5,0.4c-0.5,0.4-1.1,0.8-1.7,1.1l0.2,0.5h0.1c1.1-0.2,2.1-0.3,3.2-0.5h0.1c2-0.3,4-0.7,5.9-1.1
		c0.5-0.1,1.1-0.2,1.7-0.4c0.4-0.1,0.7-0.2,1.1-0.2c0.5-0.1,1.1-0.2,1.6-0.3c0.5-0.2,0.9-0.2,1.4-0.4c7.6-1.8,15-4.3,22.1-7.3
		c-12.1,16.5-28.3,29.9-47.3,38.6c8.8-0.6,17.5-2.1,26-4.5c30.7-9.1,56.5-29.7,72-57.5c-3.1,17.6-10.1,34.4-20.5,49
		c7.4-4.9,14.2-10.5,20.3-16.9c17.1-17.8,28.3-40.5,32.1-64.8c2.6,12,3.4,24.5,2.2,36.7c55-76.7,4.6-156.3-16.5-177.2
		c-0.1-0.2-0.2-0.2-0.2-0.4c-0.1,0.1-0.1,0.1-0.1,0.2c0-0.1,0-0.1-0.1-0.2c0,0.9-0.1,1.8-0.2,2.7c-0.2,1.8-0.5,3.4-0.8,5.1
		c-0.4,1.7-0.8,3.4-1.3,5c-0.5,1.6-1.1,3.3-1.8,4.9c-0.7,1.5-1.4,3.1-2.3,4.6c-0.8,1.4-1.8,3-2.7,4.3c-1,1.4-2.1,2.8-3.1,4.1
		c-1.1,1.4-2.4,2.6-3.6,3.8c-0.8,0.7-1.4,1.3-2.2,1.9c-0.6,0.5-1.1,1-1.8,1.5c-1.4,1.1-2.7,2.1-4.3,3c-1.4,0.9-3,1.8-4.5,2.6
		c-1.6,0.8-3.2,1.4-4.8,2.1c-1.6,0.6-3.3,1.1-5,1.6c-1.7,0.5-3.4,0.8-5.1,1.1c-1.8,0.3-3.5,0.5-5.2,0.6c-1.2,0.1-2.4,0.2-3.7,0.2
		c-1.8,0-3.5-0.2-5.2-0.3c-1.8-0.2-3.5-0.4-5.2-0.8c-1.8-0.3-3.4-0.8-5.1-1.3h-0.1c1.7-0.2,3.4-0.3,5-0.6c1.8-0.3,3.4-0.7,5.1-1.1
		c1.7-0.5,3.4-1,5-1.6c1.7-0.6,3.3-1.4,4.8-2.1c1.6-0.8,3-1.6,4.6-2.5c1.4-1,2.9-2,4.3-3c1.4-1.1,2.7-2.2,3.9-3.4
		c1.3-1.1,2.4-2.4,3.6-3.7c1.1-1.4,2.2-2.7,3.2-4.1c0.2-0.2,0.3-0.5,0.5-0.8c0.8-1.2,1.5-2.4,2.2-3.7c0.8-1.5,1.6-3,2.3-4.6
		c0.7-1.6,1.3-3.2,1.8-4.9c0.5-1.6,0.9-3.3,1.3-5c0.3-1.8,0.6-3.4,0.8-5.1c0.2-1.8,0.3-3.5,0.3-5.2c0-1.2-0.1-2.4-0.2-3.7
		c-0.2-1.8-0.4-3.4-0.6-5.1c-0.3-1.8-0.7-3.4-1.1-5.1c-0.5-1.6-1.1-3.3-1.7-4.9c-0.6-1.6-1.4-3.2-2.1-4.7c-0.8-1.5-1.7-3-2.6-4.5
		c-1-1.4-2-2.8-3-4.2c-1.1-1.3-2.3-2.6-3.5-3.9c-0.6-0.6-1.3-1.3-2-1.9c-3.4-2.7-7-5.2-10.6-7.5c-0.5-0.3-1-0.5-1.5-0.8
		C230.5,206,228.2,205.2,225.8,204.4L225.8,204.4z"/>
</g>
</svg>
