<svg viewBox="0 0 24 24" fill="none" xmlns="http://www.w3.org/2000/svg">
  <path d="M11.2141 0.00649285C11.1625 0.0111842 10.9982 0.0276043 10.8504 0.0393328C7.44163 0.34662 4.24867 2.18565 2.22639 5.01222C1.10029 6.58384 0.380059 8.36656 0.107918 10.2549C0.0117302 10.914 0 11.1087 0 12.0024C0 12.8961 0.0117302 13.0908 0.107918 13.7499C0.760118 18.256 3.96715 22.042 8.31672 23.4447C9.09559 23.6957 9.9167 23.8669 10.8504 23.9702C11.2141 24.0101 12.7859 24.0101 13.1496 23.9702C14.7613 23.7919 16.1267 23.3931 17.4733 22.7058C17.6798 22.6003 17.7197 22.5721 17.6915 22.5487C17.6727 22.5346 16.793 21.3547 15.7372 19.9285L13.8182 17.3365L11.4135 13.7781C10.0903 11.8218 9.00175 10.222 8.99237 10.222C8.98298 10.2197 8.9736 11.8007 8.96892 13.7312C8.96189 17.1113 8.95954 17.2474 8.9173 17.3271C8.85631 17.4421 8.80939 17.489 8.71085 17.5406C8.63578 17.5781 8.57009 17.5852 8.21585 17.5852H7.80996L7.70206 17.5171C7.63166 17.4726 7.58006 17.4139 7.54488 17.3459L7.49561 17.2403L7.50029 12.5372L7.50732 7.83175L7.58006 7.74026C7.6176 7.69101 7.69735 7.62768 7.75366 7.59717C7.84985 7.55025 7.88738 7.54557 8.29325 7.54557C8.77186 7.54557 8.85161 7.56434 8.97595 7.7004C9.01114 7.73791 10.3132 9.69893 11.871 12.061C13.4287 14.4232 15.5589 17.6485 16.6053 19.2318L18.5056 22.11L18.6018 22.0467C19.4534 21.4931 20.3543 20.7049 21.0674 19.8839C22.5853 18.1411 23.5636 16.0159 23.8921 13.7499C23.9883 13.0908 24 12.8961 24 12.0024C24 11.1087 23.9883 10.914 23.8921 10.2549C23.2399 5.74876 20.0328 1.96281 15.6833 0.560079C14.9161 0.311434 14.0997 0.140198 13.1848 0.0369868C12.9595 0.0135298 11.4088 -0.0122728 11.2141 0.00649285ZM16.1267 7.26408C16.2393 7.32038 16.3308 7.42828 16.3636 7.54087C16.3824 7.60188 16.3871 8.90609 16.3824 11.8452L16.3754 16.0628L15.6317 14.9228L14.8856 13.7828V10.717C14.8856 8.73485 14.895 7.62064 14.9091 7.56669C14.9466 7.43532 15.0287 7.33212 15.1414 7.27113C15.2375 7.22186 15.2727 7.21718 15.6411 7.21718C15.9883 7.21718 16.0493 7.22186 16.1267 7.26408Z" fill="#cfd8dc"/>
</svg>
