<svg version="1.1" xmlns="http://www.w3.org/2000/svg" viewBox="0 0 300 300">
<circle fill="#F2F2F2" cx="148.2" cy="148.9" r="126.9"/>
<path fill="#B600AB" d="M103.1,103.1H84.3c-10.4,0-18.8,8.4-18.8,18.8v75.1h18.8v-37.5h18.8v37.5h18.8v-75.1
	C121.9,111.5,113.5,103.1,103.1,103.1 M103.1,140.6H84.3v-18.8h18.8 M168.8,103.1h-37.5v93.8H150v-37.5h18.8
	c10.4,0,18.8-8.4,18.8-18.8v-18.8C187.5,111.5,179.1,103.1,168.8,103.1 M168.8,140.6H150v-18.8h18.8 M225.1,121.9v56.3h9.4v18.8
	h-37.5v-18.8h9.4v-56.3h-9.4v-18.8h37.5v18.8H225.1z"/>
</svg>
