<svg version="1.1" xmlns="http://www.w3.org/2000/svg"	viewBox="0 0 300 300">
<circle fill="#F2F2F2" cx="148.2" cy="148.9" r="126.9"/>
<path fill="#FFCD6D" d="M221.6,99.8H78.4c-4.9,0-8.8-4-8.8-8.8V78.4c0-4.9,4-8.8,8.8-8.8h143.3c4.9,0,8.8,4,8.8,8.8V91
	C230.5,95.8,226.5,99.8,221.6,99.8z"/>
<path fill="#FFCD6D" d="M110.3,230.5H78.4c-4.9,0-8.8-4-8.8-8.8V119.3c0-4.9,4-8.8,8.8-8.8h31.9c4.9,0,8.8,4,8.8,8.8v102.3
	C119.1,226.5,115.2,230.5,110.3,230.5z"/>
<path fill="#FFCD6D" d="M221.6,230.5h-81.3c-4.9,0-8.8-4-8.8-8.8V119.3c0-4.9,4-8.8,8.8-8.8h81.3c4.9,0,8.8,4,8.8,8.8v102.3
	C230.5,226.5,226.5,230.5,221.6,230.5z"/>
</svg>
