<svg version="1.1" xmlns="http://www.w3.org/2000/svg"
	 viewBox="0 0 300 300">

<circle class="st0" cx="148.2" cy="148.9" r="126.9" fill="#F2F2F2"/>
<g>
	<path fill="#CC1500" d="M 133.6 181 l -8.4 -103.9 c -0.5 -6 4.1 -11.2 10 -11.2 h 29.6 c 5.8 0 10.4 5.1 10 11.1 l -7.3 103.9 c -0.4 5.4 -4.7 9.6 -10 9.6 h -13.9 C 138.4 190.5 134.1 186.4 133.6 181 z M 137.3 198.5 h 25.6 c 3.9 0 7 3.5 7 7.7 v 20.1 c 0 4.3 -3.1 7.7 -7 7.7 h -25.6 c -3.9 0 -7 -3.5 -7 -7.7 v -20.1 C 130.3 202 133.4 198.5 137.3 198.5 z"/>
</g>
</svg>
