<?xml version="1.0" encoding="utf-8"?>
<!-- Generator: Adobe Illustrator 26.0.3, SVG Export Plug-In . SVG Version: 6.00 Build 0)  -->
<svg version="1.1" id="圖層_1" xmlns="http://www.w3.org/2000/svg" xmlns:xlink="http://www.w3.org/1999/xlink" x="0px" y="0px"
	 viewBox="0 0 300 300" style="enable-background:new 0 0 300 300;" xml:space="preserve">
<style type="text/css">
	.st0{fill:#CFD9DB;}
	.st1{fill:#8CC34A;}
	.st2{fill:#252526;}
	.st3{fill:#C4C4C4;}
	.st4{fill:#FFC550;}
</style>
<path class="st0" d="M881.5,178.3H649.4c-12.8,0-23.2,10.4-23.2,23.2v55.3c0,12.8,10.4,23.2,23.2,23.2h232.1
	c12.8,0,23.2-10.4,23.2-23.2v-55.3C904.7,188.7,894.3,178.3,881.5,178.3z M891.2,253c0,7.4-6,13.4-13.4,13.4H713.9v-74.4h163.9
	c7.4,0,13.4,6,13.4,13.4V253z"/>
<rect x="719.7" y="165.2" transform="matrix(0.7071 -0.7071 0.7071 0.7071 51.9094 581.1002)" class="st0" width="15.4" height="125.3"/>
<rect x="781.5" y="165.2" transform="matrix(0.7071 -0.7071 0.7071 0.7071 70.0205 624.8243)" class="st0" width="15.4" height="125.3"/>
<rect x="843.4" y="165.2" transform="matrix(0.7071 -0.7071 0.7071 0.7071 88.1316 668.5483)" class="st0" width="15.4" height="125.3"/>
<g id="tACy7n.tif">
	
		<image style="overflow:visible;" width="56" height="44" id="Layer_0_00000061436485977061368640000010290831327249415854_" xlink:href="7DDA93E150EFB8DA.png"  transform="matrix(1 0 0 1 684.6865 292.3891)">
	</image>
</g>
<path class="st1" d="M378.2-221.9H146.1c-12.8,0-23.2,10.4-23.2,23.2v55.3c0,12.8,10.4,23.2,23.2,23.2h232.1
	c12.8,0,23.2-10.4,23.2-23.2v-55.3C401.4-211.5,391-221.9,378.2-221.9z M387.8-147.2c0,7.4-6,13.4-13.4,13.4H210.5v-74.4h163.9
	c7.4,0,13.4,6,13.4,13.4V-147.2z"/>
<rect x="-621.8" y="-177.9" class="st2" width="443.9" height="424.4"/>
<rect x="-493" y="140" class="st2" width="443.9" height="424.4"/>
<g>
	<path class="st3" d="M-303.7-9.1c21.1,0,38.3,17.2,38.3,38.3c0,21.1-17.2,38.3-38.3,38.3h-179.1c-21.1,0-38.3-17.2-38.3-38.3
		c0-21.1,17.2-38.3,38.3-38.3H-303.7 M-303.7-19.1h-179.1c-26.7,0-48.3,21.6-48.3,48.3v0c0,26.7,21.6,48.3,48.3,48.3h179.1
		c26.7,0,48.3-21.6,48.3-48.3v0C-255.5,2.5-277.1-19.1-303.7-19.1L-303.7-19.1z"/>
</g>
<path class="st0" d="M-382.7,47.5h-104.4c-10.1,0-18.3-8.2-18.3-18.3v0c0-10.1,8.2-18.3,18.3-18.3h104.4V47.5z"/>
<g id="cLBqNj.tif">
	
		<image style="overflow:visible;" width="242" height="218" id="Layer_0_00000114794215436774133720000002376881027372052920_" xlink:href="7DDA93E150EFB8DE.png"  transform="matrix(2.2935 0 0 2.2935 330.6737 -212.9334)">
	</image>
</g>
<g>
	<g>
		<g>
			<path class="st3" d="M209.3,280.3H90.7c-3.2,0-5.8-2.6-5.8-5.8v-66.6c0-5.4,2.2-10.7,6.4-15.2l33.6-35.9c4.7-5,4.7-10.5,0-15.5
				l-33.6-35.9C87.2,101,85,95.8,85,90.3V29.2c0-3.2,2.6-5.8,5.8-5.8h118.5c3.2,0,5.8,2.6,5.8,5.8v61.1c0,5.4-2.2,10.7-6.4,15.2
				L175,141.4c-4.7,5-4.7,10.5,0,15.5l33.6,35.9c4.2,4.5,6.4,9.7,6.4,15.2v66.6C215,277.7,212.5,280.3,209.3,280.3z M96.5,268.8h107
				v-60.9c0-3.1-1.8-5.7-3.3-7.3l-33.6-35.9c-8.9-9.5-8.9-21.8,0-31.2l33.6-35.9c1.5-1.6,3.3-4.2,3.3-7.3V35h-107v55.3
				c0,3.1,1.8,5.7,3.3,7.3l33.6,35.9c8.9,9.5,8.9,21.8,0,31.2l-33.6,35.9c-1.5,1.6-3.3,4.2-3.3,7.3V268.8z"/>
		</g>
		<g>
			<path class="st3" d="M219.5,37.9H80.5c-6.4,0-11.7-5.2-11.7-11.7v-1.7c0-6.4,5.2-11.7,11.7-11.7h139.1c6.4,0,11.7,5.2,11.7,11.7
				v1.7C231.2,32.7,226,37.9,219.5,37.9z"/>
		</g>
		<g>
			<path class="st3" d="M219.5,287.1H80.5c-6.4,0-11.7-5.2-11.7-11.7v-1.7c0-6.4,5.2-11.7,11.7-11.7h139.1c6.4,0,11.7,5.2,11.7,11.7
				v1.7C231.2,281.8,226,287.1,219.5,287.1z"/>
		</g>
	</g>
	<g>
		<polygon class="st4" points="150,195.2 108.4,239.9 108.4,262.1 191.6,262.1 191.6,239.9 		"/>
	</g>
</g>
</svg>
