<svg version="1.1" xmlns="http://www.w3.org/2000/svg" viewBox="0 0 300 300">
<circle fill="#F2F2F2" cx="148.2" cy="148.9" r="126.9"/>
<g fill="#0488D1">
	<path d="M150.5,58.2c1.7,0.9,3.5,1.5,4.7,3.1s2.1,3.4,2.1,5.4c0,5.6,0,11.1,0,16.7c0,3.9-2.4,7.1-6.1,8.5
		c-3.4,1.2-7.3,0.2-9.8-2.7c-1.5-1.7-2.1-3.8-2.1-6.1c0-5.1,0-10.3,0-15.4c0-4.2,1.8-7.2,5.7-8.9c0.4-0.2,0.7-0.4,1.1-0.6
		C147.7,58.2,149.1,58.2,150.5,58.2z"/>
	<path d="M139.4,225.1c0-2.8,0-5.5,0-8.3c0.1-5.1,3.9-8.8,9.1-8.8c5,0,8.8,3.8,8.9,8.8c0.1,5.5,0.1,11,0,16.5
		c0,5.2-3.8,8.9-9,8.9s-8.9-3.7-9-8.9C139.3,230.6,139.4,227.8,139.4,225.1z"/>
	<path d="M223.2,159.2c-2.6,0-5.3,0-7.9,0c-5.3,0-9.1-3.8-9.1-9s3.8-9,9.1-9s10.6,0,16,0c5.3,0,9.1,3.8,9.1,9
		s-3.8,8.9-9.1,9C228.6,159.2,225.9,159.2,223.2,159.2z"/>
	<path d="M73,159c-2.6,0-5.3,0-7.9,0c-5.3,0-9.1-3.8-9.1-9s3.8-9,9.1-9s10.6,0,16,0c5.3,0,9.1,3.8,9.1,9s-3.8,8.9-9.1,9
		C78.4,159,75.7,159,73,159z"/>
	<path d="M99.2,184.9c-0.1,2.4-1.7,5-4.5,6.7c-4.6,2.8-9.3,5.5-14,8.1c-4.4,2.4-9.6,0.9-12.3-3.5
		c-2.3-3.8-1.1-9.3,2.9-11.9c4.9-3.1,9.9-6,15.1-8.6C92.4,172.6,99.2,177.1,99.2,184.9z"/>
	<path d="M106.8,231.1c-6.3,0-10.8-6.5-8.3-12.4c1.5-3.7,3.9-7,5.8-10.5c0.9-1.6,1.8-3.2,2.8-4.8
		c2.7-4.1,7.8-5.5,12-3.2c3.6,1.9,6.1,7.4,3.8,11.8c-2.8,5.2-5.7,10.4-8.9,15.4C112.5,229.7,109.6,231.1,106.8,231.1z"/>
	<path d="M189.5,231c-2.7-0.3-5.4-1.4-7-4.1c-2.9-4.8-5.8-9.7-8.4-14.6c-2.6-4.8-0.2-10.1,3.5-12.2
		c4.2-2.4,9.5-0.9,12.2,3.4c2.8,4.6,5.5,9.2,8.1,14C201.1,223.8,196.7,231.1,189.5,231z"/>
	<path d="M197.3,183.8c-0.1-6.4,6.5-10.8,12.4-8.3c3.8,1.6,7.1,4,10.7,5.9c1.3,0.7,2.6,1.5,3.9,2.2
		c5.1,3.1,6.4,8.6,3.2,13.6c-2.1,3.3-7.3,4.6-11.3,2.5c-4.9-2.6-9.7-5.4-14.5-8.2C198.7,189.7,197.5,187,197.3,183.8z"/>
	<path d="M67.2,108.8c-0.1-6.4,6.5-10.8,12.4-8.3c3.8,1.6,7.1,4,10.7,5.9c1.3,0.7,2.6,1.5,3.9,2.2
		c5.1,3.1,6.4,8.6,3.2,13.6c-2.1,3.3-7.3,4.6-11.3,2.5c-4.9-2.6-9.7-5.4-14.5-8.2C68.7,114.7,67.5,111.9,67.2,108.8z"/>
	<path d="M198.7,78.7c0.2,1.4-0.2,2.8-1,4.2c-2.9,5.1-5.5,10.4-9,15.1c-2.5,3.4-7.7,4.3-11.2,2.1
		c-4-2.4-5.7-7.4-3.8-11.4c2.6-5.3,5.7-10.4,8.8-15.4c2.1-3.4,6.5-4.7,10.3-3.5C196.4,71,198.7,74.4,198.7,78.7z"/>
	<path d="M106.8,69.7c3.5,0,6.2,1.5,7.9,4.6c2.5,4.4,5.1,8.8,7.6,13.2c2.2,3.9,1.5,8.9-1.8,11.6
		c-3.3,2.8-8.2,2.8-11.5-0.1c-2.1-1.8-3.1-4.4-4.5-6.7c-1.8-3-3.5-6-5.2-9c-3-5.1-0.9-11.3,4.4-13.3
		C104.7,69.7,105.7,69.7,106.8,69.7z"/>
</g>
</svg>
