<svg version="1.1" xmlns="http://www.w3.org/2000/svg" viewBox="0 0 300 300">
<circle fill="#F2F2F2" cx="148.2" cy="148.9" r="126.9"/>
<g fill="#FFBE3F">
	<polygon points="84.9,103.6 84.9,154.2 66,154.2 66,103.6 47.7,103.6 47.7,172.5 58.8,172.5 66,172.5 84.9,172.5 
		84.9,196.2 103.1,196.2 103.1,103.6 	"/>
	<path d="M166.1,103.6h-6.5h-18.8h-6h-12.2v92.6h9.6h8.6h18.8h9.1h9.1v-92.6H166.1z M140.8,178v-56.1h18.8V178H140.8z"
		/>
	<polygon points="234,103.8 234,154.4 215.1,154.4 215.1,103.8 196.9,103.8 196.9,154.6 196.9,172.6 207.9,172.6 
		215.1,172.6 234,172.6 234,196.4 252.3,196.4 252.3,103.8 	"/>
</g>
</svg>
