<?xml version="1.0" encoding="utf-8"?>
<!-- Generator: Adobe Illustrator 26.0.3, SVG Export Plug-In . SVG Version: 6.00 Build 0)  -->
<svg version="1.1" id="圖層_1" xmlns="http://www.w3.org/2000/svg" xmlns:xlink="http://www.w3.org/1999/xlink" x="0px" y="0px"
	 viewBox="0 0 300 300" style="enable-background:new 0 0 300 300;" xml:space="preserve">
<style type="text/css">
	.st0{fill:#D82619;}
</style>
<g>
	<path class="st0" d="M124.9,188.3L112,36.9c-0.8-8.7,6.3-16.3,15.4-16.3h45.6c8.9,0,16,7.4,15.4,16.2l-11.2,151.3
		c-0.6,7.9-7.2,14-15.4,14h-21.4C132.3,202.1,125.7,196.1,124.9,188.3z M130.6,224.8H170c6,0,10.8,5.4,10.8,11.9v31
		c0,6.6-4.8,11.9-10.8,11.9h-39.4c-6,0-10.8-5.4-10.8-11.9v-31C119.8,230.2,124.6,224.8,130.6,224.8z"/>
</g>
</svg>
