<?xml version="1.0" encoding="utf-8"?>
<!-- Generator: Adobe Illustrator 26.0.3, SVG Export Plug-In . SVG Version: 6.00 Build 0)  -->
<svg version="1.1" id="圖層_1" xmlns="http://www.w3.org/2000/svg" xmlns:xlink="http://www.w3.org/1999/xlink" x="0px" y="0px"
	 viewBox="0 0 300 300" style="enable-background:new 0 0 300 300;" xml:space="preserve">
<style type="text/css">
	.st0{fill:#4BA0E0;}
</style>
<g>
	<path class="st0" d="M263.2,79H36.6c-7.8,0-13.9-7.3-13.9-16V40.2c0-8.9,6.3-16,13.9-16h226.8c7.8,0,13.9,7.3,13.9,16v22.9
		C277.3,71.8,271,79,263.2,79z"/>
</g>
<g>
	<path class="st0" d="M82.8,275.3H35.7c-7.2,0-13-6-13-13.3V107.3c0-7.4,5.9-13.3,13-13.3h47.1c7.2,0,13,6,13,13.3v154.5
		C95.8,269.2,90,275.3,82.8,275.3z"/>
</g>
<path class="st0" d="M246.3,125v119.2H145.2V125H246.3 M262.8,94H128.7c-7.9,0-14.5,5.9-14.5,13.3V262c0,7.2,6.4,13.3,14.5,13.3
	h134.1c8.1,0,14.7-6,14.5-13.4V107.3C277.3,100.1,270.9,94,262.8,94L262.8,94z"/>
</svg>
