<?xml version="1.0" encoding="utf-8"?>
<!-- Generator: Adobe Illustrator 26.0.3, SVG Export Plug-In . SVG Version: 6.00 Build 0)  -->
<svg version="1.1" id="圖層_1" xmlns="http://www.w3.org/2000/svg" xmlns:xlink="http://www.w3.org/1999/xlink" x="0px" y="0px"
	 viewBox="0 0 300 300" style="enable-background:new 0 0 300 300;" xml:space="preserve">
<style type="text/css">
	.st0{fill:#F4B042;}
</style>
<g>
	<polygon class="st0" points="63.3,88.2 63.3,155.6 38.1,155.6 38.1,88.2 13.7,88.2 13.7,180 28.5,180 38.1,180 63.3,180 
		63.3,211.5 87.5,211.5 87.5,88.2 	"/>
	<path class="st0" d="M113.5,88.2v123.3h12.8h11.5h25h12.1H187V88.2H113.5z M137.7,187.3v-74.7h25v74.7H137.7z"/>
	<polygon class="st0" points="261.9,88.5 261.9,155.9 236.7,155.9 236.7,88.5 212.5,88.5 212.5,156.1 212.5,180.1 227.1,180.1 
		236.7,180.1 261.9,180.1 261.9,211.8 286.3,211.8 286.3,88.5 	"/>
</g>
</svg>
