<?xml version="1.0" encoding="utf-8"?>
<!-- Generator: Adobe Illustrator 26.0.3, SVG Export Plug-In . SVG Version: 6.00 Build 0)  -->
<svg version="1.1" id="圖層_1" xmlns="http://www.w3.org/2000/svg" xmlns:xlink="http://www.w3.org/1999/xlink" x="0px" y="0px"
	 viewBox="0 0 300 300" style="enable-background:new 0 0 300 300;" xml:space="preserve">
<style type="text/css">
	.st0{fill:#CE17CA;}
</style>
<path class="st0" d="M75.3,75.3H45.4c-16.6,0-29.9,13.4-29.9,29.9v119.6h29.9v-59.7h29.9v59.7h29.9V105.2
	C105.2,88.7,91.9,75.3,75.3,75.3 M75.3,135H45.4v-29.9h29.9 M179.9,75.3h-59.7v149.4H150v-59.7h29.9c16.6,0,29.9-13.4,29.9-29.9
	v-29.9C209.7,88.7,196.3,75.3,179.9,75.3 M179.9,135H150v-29.9h29.9 M269.6,105.2v89.7h15v29.9h-59.7v-29.9h15v-89.7h-15V75.3h59.7
	v29.9C284.6,105.2,269.6,105.2,269.6,105.2z"/>
</svg>
