<?xml version="1.0" encoding="UTF-8" standalone="no"?>
<!DOCTYPE svg PUBLIC "-//W3C//DTD SVG 1.1//EN" "http://www.w3.org/Graphics/SVG/1.1/DTD/svg11.dtd">
<svg width="100%" height="100%" viewBox="0 0 24 24" version="1.1" xmlns="http://www.w3.org/2000/svg" xmlns:xlink="http://www.w3.org/1999/xlink" xml:space="preserve" xmlns:serif="http://www.serif.com/" style="fill-rule:evenodd;clip-rule:evenodd;stroke-linejoin:round;stroke-miterlimit:2;">
    <path d="M11.794,1.46C11.917,1.389 12.069,1.389 12.192,1.46C13.412,2.161 19.853,5.863 21.076,6.566C21.2,6.638 21.277,6.77 21.277,6.913C21.277,8.32 21.277,15.715 21.277,17.123C21.277,17.266 21.2,17.398 21.076,17.469C19.853,18.172 13.412,21.875 12.192,22.576C12.069,22.647 11.917,22.647 11.794,22.576C10.574,21.875 4.133,18.172 2.91,17.469C2.786,17.398 2.709,17.266 2.709,17.123C2.709,15.715 2.709,8.32 2.709,6.913C2.709,6.77 2.786,6.638 2.91,6.566C4.133,5.863 10.574,2.161 11.794,1.46ZM8.969,10.198L14.5,16.823C14.5,16.823 15.15,17.394 16.077,17.337C17.197,17.267 17.309,16.328 17.309,16.328L17.31,7.634C17.31,7.634 17.31,7.631 17.309,7.626C17.189,7.042 16.676,6.622 16.08,6.621C15.484,6.619 14.97,7.037 14.848,7.621C14.846,7.63 14.845,7.634 14.845,7.634L14.85,13.741L9.172,7.053C9.172,7.053 8.718,6.541 7.656,6.657C6.612,6.772 6.5,7.666 6.5,7.666L6.51,16.291C6.51,16.291 6.511,16.296 6.512,16.304C6.609,16.908 7.131,17.352 7.742,17.351C8.353,17.35 8.873,16.905 8.969,16.301C8.97,16.294 8.971,16.291 8.971,16.291L8.969,10.198Z" style="fill:#388e3c;"/>
</svg>
