<svg clip-rule="evenodd" fill-rule="evenodd" stroke-linejoin="round" stroke-miterlimit="2" version="1.1" viewBox="0 0 24 24" xml:space="preserve" xmlns="http://www.w3.org/2000/svg">
    <path d="m11.801 1.442c0.123-0.071 0.275-0.071 0.398 0 1.22 0.701 7.661 4.403 8.884 5.106 0.124 0.072 0.201 0.204 0.201 0.347v10.21c0 0.143-0.077 0.275-0.201 0.346-1.223 0.703-7.664 4.406-8.884 5.107-0.123 0.071-0.275 0.071-0.398 0-1.22-0.701-7.661-4.404-8.884-5.107-0.124-0.071-0.201-0.203-0.201-0.346v-10.21c0-0.143 0.077-0.275 0.201-0.347 1.223-0.703 7.664-4.405 8.884-5.106zm-2.825 8.738 5.531 6.625s0.65 0.571 1.577 0.514c1.12-0.07 1.232-1.009 1.232-1.009l1e-3 -8.694s0-3e-3 -1e-3 -8e-3c-0.12-0.584-0.633-1.004-1.229-1.005-0.596-2e-3 -1.11 0.416-1.232 1-2e-3 9e-3 -3e-3 0.013-3e-3 0.013l5e-3 6.107-5.678-6.688s-0.454-0.512-1.516-0.396c-1.044 0.115-1.156 1.009-1.156 1.009l0.01 8.625s1e-3 5e-3 2e-3 0.013c0.097 0.604 0.619 1.048 1.23 1.047s1.131-0.446 1.227-1.05c1e-3 -7e-3 2e-3 -0.01 2e-3 -0.01z" fill="#43a047"/>
</svg>
