<?xml version="1.0" encoding="UTF-8"?>
<svg width="500" height="500" version="1.1" viewBox="0 0 500 500" xmlns="http://www.w3.org/2000/svg">
 <g transform="translate(-1.9648 36.302)" stroke-width=".3946">
  <path d="m135.59 415.7c0-0.29542-2.7523-5.2834-6.1162-11.084-3.3639-5.8011-6.1162-10.776-6.1162-11.055s9.5145-16.889 21.143-36.912c11.629-20.022 21.323-36.798 21.542-37.279 0.34648-0.76047-1.6074-4.3632-14.896-27.466-8.4119-14.625-15.294-26.785-15.294-27.023 0-0.50083 24.461-43.501 25.206-44.31 0.41409-0.44969 0.59257-0.3844 1.0787 0.3946 0.32039 0.51339 16.876 29.256 36.791 63.871 62.62 108.85 74.852 130.01 75.41 130.46 0.29884 0.24098 0.54334 0.55299 0.54334 0.69334 0 0.1404-11.836 0.20962-26.302 0.15383-23.023-0.0889-26.313-0.17525-26.393-0.69335-0.11052-0.71479-27.662-48.825-28.859-50.392-0.74675-0.97833-0.90714-1.0357-1.4264-0.51042-0.68804 0.69605-28.954 49.323-29.49 50.733l-0.36475 0.95934h-13.229c-10.896 0-13.229-0.0946-13.229-0.53712zm167.58-125.61c-0.13379-0.21646 1.1884-2.8634 2.9383-5.882 6.924-11.944 84.291-145.75 96.491-166.88 7.1425-12.371 13.142-22.465 13.333-22.433 0.36268 0.06198 25.861 43.105 25.861 43.655 0 0.17379-6.7618 11.952-15.026 26.173-8.4596 14.557-14.932 26.104-14.81 26.421 0.18518 0.48257 4.5639 0.56435 30.213 0.56435h29.996l0.9575 1.4797c0.52658 0.81386 3.2964 5.5472 6.1553 10.518 2.8588 4.9713 5.4491 9.29 5.7562 9.5971 0.70528 0.70525 0.70341 0.72353-0.16039 1.5718-0.39535 0.38825-3.3596 5.3227-6.5872 10.965-3.2276 5.6427-6.056 10.387-6.2852 10.543-0.2293 0.15575-19.695 0.17118-43.256 0.0343l-42.84-0.24894-0.80319 1.1495c-0.44174 0.63222-7.5048 12.736-15.696 26.897l-14.892 25.747h-15.486c-8.5174 0-20.015 0.11654-25.551 0.25898-6.5492 0.16852-10.15 0.12151-10.308-0.1346zm-133.75-157.86c-56.373-0.0551-102.5-0.18212-102.5-0.28232 0-0.10021 5.6166-10.132 12.481-22.294l12.481-22.112h30.332c27.113 0 30.332-0.06478 30.332-0.61063 0-0.33585-6.6588-12.228-14.797-26.427-8.1385-14.199-14.797-25.917-14.797-26.04 0-0.12306 2.682-4.8526 5.9601-10.51 3.278-5.6575 6.0029-10.578 6.0552-10.934 0.0861-0.58648 1.3753-0.64804 13.572-0.64804 7.4125 0 13.463 0.14254 13.446 0.31675-0.0175 0.17421 0.22142 0.70692 0.53085 1.1838 0.30945 0.47687 9.7625 16.937 21.007 36.578 11.244 19.641 20.71 36.022 21.036 36.401 0.55406 0.64672 2.5485 0.69054 31.428 0.69054h30.837l12.896 22.145c7.0927 12.18 12.799 22.301 12.682 22.492-0.1178 0.19061-4.7761 0.30248-10.352 0.24864-5.5756-0.0538-56.261-0.14296-112.63-0.19804z" fill="#5075c1"/>
  <path d="m25.289 203.14c-6.0985 10.563-6.6895 11.711-6.2247 12.078 0.28251 0.22351 3.18 5.044 6.4405 10.712 3.2606 5.6676 6.0162 10.355 6.1228 10.417 0.10658 0.0615 13.585 0.15295 29.951 0.2043 16.366 0.0513 29.993 0.23063 30.284 0.39856 0.47272 0.27293-1.0805 3.0937-14.637 26.574l-15.166 26.269 12.907 21.865c7.0998 12.026 12.982 21.906 13.068 21.956 0.08682 0.0501 23.257-39.831 51.492-88.624 11.352-19.617 21.214-36.639 30.371-52.442 23.307-40.452 30.68-53.468 30.729-54.132-1.0962-0.11-6.1408-0.18696-13.006-0.21634-3.9448-9e-3 -7.8197-0.0201-12.749-2e-3l-25.342 0.0926-15.419 26.706c-14.257 24.693-15.446 26.663-16.279 26.86-7.8e-4 5.9e-4 -0.0229 0.0363-0.0233 0.0364-0.0116 3e-3 -1.6211-9e-4 -1.8251 9.9e-4 -4.2911 0.0615-20.453 0.062-40.226-0.0101-22.632-0.0827-41.615-0.12549-42.183-0.096-0.5677 0.0296-1.1476-0.0298-1.2897-0.132-0.14214-0.10223-3.2901 5.0659-6.9964 11.485zm205.16-190.3c-0.12346 0.14874 5.6191 10.392 12.761 22.763 12.199 21.131 89.393 155.03 96.276 167 1.5025 2.613 2.9194 4.803 3.4426 5.348 0.89964-1.249 3.5317-5.63 7.9544-13.219 2.9272-5.2674 6.7306-12.011 10.049-17.76l6.6064-11.443c0.69173-1.4034 0.7532-1.8183 0.65264-2.1169-0.16158-0.47972-6.9036-12.332-14.982-26.337-8.078-14.005-14.824-25.849-14.991-26.32-0.0311-0.0878-0.0368-0.20326-9e-3 -0.36588l-0.42588-0.91297 21.636-36.976c3.6905-6.3073 6.4251-11.042 9.4707-16.29 9.1579-15.948 12.036-21.189 11.895-21.55-0.12627-0.32382-2.7002-4.8312-5.7207-10.017-3.0205-5.1857-5.8446-10.148-6.2746-11.026-0.48295-0.98711-0.73396-1.3642-1.0994-1.4561-0.0544 0.01411-0.0829 0.0179-0.14469 0.03446-0.41954 0.11239-5.4546 0.1957-11.189 0.18587-5.7347-0.0098-11.22 0.02312-12.188 0.07224l-1.7599 0.08892-14.998 25.978c-12.824 22.212-15.084 25.964-15.595 25.883-0.0237-0.0037-0.14913-0.18823-0.23461-0.30109-0.10887 0.06661-0.20056 0.09069-0.27149 0.04973-0.25583-0.14771-7.1437-11.901-15.306-26.118l-14.36-25.016c-0.11573-0.1867-0.44414-0.74426-0.45756-0.75201-0.4765-0.27511-50.502 0.28629-50.737 0.56939zm-18.646 283.09c-0.0473 0.10857-0.0259 0.26179 0.0424 0.48059 0.32831 1.0502 25.338 43.734 25.772 43.984 0.2063 0.11911 14.178 0.2393 31.05 0.26671 26.651 0.0433 30.749 0.15123 31.234 0.83152 0.30723 0.43065 9.9878 17.214 21.513 37.296s21.152 36.627 21.394 36.767c0.24187 0.13964 5.9269 0.24276 12.633 0.23003 6.7058-0.0126 12.401 0.0988 12.657 0.24647 0.13149 0.0758 0.38162-0.14135 0.8515-0.79493l6.0081-10.406c5.2341-9.0657 6.6203-11.684 6.2943-11.888-0.57532-0.36065-15.597-26.643-23.859-41.482-3.0901-5.4498-5.3706-9.5161-5.4413-9.7739-0.19529-0.71238-0.0649-0.8225 1.1558-0.98002 1.956-0.25244 57.397-0.0573 58.071 0.20447 0.23717 0.092 0.78946-0.56849 2.5931-3.497 1.8662-3.0672 5.0303-8.5241 11.001-18.866 7.2197-12.505 13.043-22.784 12.941-22.843-0.10161-0.0587-0.77093-0.0511-1.4888 0.0163-5.6e-4 6e-5 -0.0451 7.3e-4 -0.0459 7.8e-4 -4.4517 0.2035-33.918 0.20315-149.74 0.0251-38.961-0.0598-69.786-0.0897-71.912-0.0721-1.1213 0.01-2.0949 0.0755-2.6611 0.17218-0.0259 0.0242-0.0477 0.0512-0.0612 0.0826z" fill="#7db7e1"/>
 </g>
</svg>
