<svg xmlns="http://www.w3.org/2000/svg" viewBox="0 0 300 300"><defs><mask id="prefix__c" x="64.3" y="52.5" width="171.4" height="195.1" maskUnits="userSpaceOnUse"><path fill="#fff" d="M70.47 197.25a8.75 8.75 0 002.59 2.28l62.47 36.08 10.4 6a8.82 8.82 0 005.07 1.15 9.1 9.1 0 001.73-.32l76.8-140.62a9 9 0 00-2-1.63L179.8 72.65l-25.2-14.5a8.43 8.43 0 00-2.28-.91z"/></mask><mask id="prefix__h" x="70.5" y="57.1" width="159.1" height="185.7" maskUnits="userSpaceOnUse"><path fill="#fff" d="M229.53 197.25a8.75 8.75 0 01-2.59 2.28l-62.47 36.08-10.4 6a8.82 8.82 0 01-5.07 1.15 9.1 9.1 0 01-1.73-.32L70.47 101.8a9 9 0 012-1.63l47.73-27.52 25.2-14.5a8.43 8.43 0 012.28-.91z"/></mask><mask id="prefix__f" x="68.4" y="57.1" width="163.2" height="185.8" maskUnits="userSpaceOnUse"><path fill="url(#prefix__b)" d="M231.61 107.92a8.77 8.77 0 00-4.4-7.61l-72.8-42a8.79 8.79 0 00-8.8 0l-72.82 42a8.77 8.77 0 00-4.4 7.61V192a8.8 8.8 0 004.39 7.62l72.83 42.06a8.81 8.81 0 008.8 0l72.81-42.06a8.8 8.8 0 004.39-7.62z"/></mask><mask id="prefix__g" x="64.3" y="52.5" width="171.4" height="195.1" maskUnits="userSpaceOnUse"><path fill="url(#prefix__a)" d="M70.47 197.25a8.75 8.75 0 002.59 2.28l62.47 36.08 10.4 6a8.82 8.82 0 005.07 1.15 9.1 9.1 0 001.73-.32l76.8-140.62a9 9 0 00-2-1.63L179.8 72.65l-25.2-14.5a8.43 8.43 0 00-2.28-.91z"/><path mask="url(#prefix__c)" fill="url(#prefix__d)" d="M154.63 246.31l76.45-44.17a9.23 9.23 0 004.61-8v-88.32a9.23 9.23 0 00-4.61-8l-76.45-44.13a9.29 9.29 0 00-9.24 0L68.92 97.82a9.23 9.23 0 00-4.61 8v88.32a9.23 9.23 0 004.61 8l76.47 44.17a9.24 9.24 0 009.24 0z"/></mask><mask id="prefix__i" x="70.5" y="57.1" width="159.1" height="185.7" maskUnits="userSpaceOnUse"><path fill="url(#prefix__e)" d="M229.53 197.25a8.75 8.75 0 01-2.59 2.28l-62.47 36.08-10.4 6a8.82 8.82 0 01-5.07 1.15 9.1 9.1 0 01-1.73-.32L70.47 101.8a9 9 0 012-1.63l47.73-27.52 25.2-14.5a8.43 8.43 0 012.28-.91z"/></mask><linearGradient id="prefix__b" x1="179.4" y1="88.2" x2="114.8" y2="223.9" gradientUnits="userSpaceOnUse"><stop offset="0"/><stop offset=".1" stop-color="#040404"/><stop offset=".3" stop-color="#0f0f0f"/><stop offset=".4" stop-color="#222"/><stop offset=".5" stop-color="#3c3c3c"/><stop offset=".6" stop-color="#5f5f5f"/><stop offset=".8" stop-color="#898989"/><stop offset=".9" stop-color="#bbb"/><stop offset="1" stop-color="#f3f3f3"/><stop offset="1" stop-color="#fff"/></linearGradient><linearGradient id="prefix__a" x1="70.5" y1="150" x2="229.5" y2="150" gradientUnits="userSpaceOnUse"><stop offset="0"/><stop offset=".1"/><stop offset=".3" stop-color="#414141"/><stop offset=".5" stop-color="#848484"/><stop offset=".6" stop-color="#b9b9b9"/><stop offset=".7" stop-color="#dfdfdf"/><stop offset=".8" stop-color="#f6f6f6"/><stop offset=".9" stop-color="#fff"/><stop offset="1" stop-color="#fff"/></linearGradient><linearGradient id="prefix__d" x1="139.6" y1="150" x2="304.8" y2="150" href="#prefix__a"/><linearGradient id="prefix__e" x1="70.5" y1="150" x2="229.5" y2="150" gradientUnits="userSpaceOnUse"><stop offset="0" stop-color="#fff"/><stop offset=".1" stop-color="#fff"/><stop offset=".2" stop-color="#f6f6f6"/><stop offset=".3" stop-color="#dfdfdf"/><stop offset=".4" stop-color="#b9b9b9"/><stop offset=".6" stop-color="#848484"/><stop offset=".7" stop-color="#414141"/><stop offset=".9"/><stop offset="1"/></linearGradient></defs><path fill="#3f873f" d="M144.263 26.448L46.111 82.982a11.82 11.805 0 00-5.93 10.243v113.217a11.861 11.845 0 005.917 10.256l98.165 56.615a11.875 11.859 0 0011.862 0l98.138-56.614a11.861 11.845 0 005.917-10.257V93.266a11.82 11.805 0 00-5.93-10.244l-98.125-56.534a11.848 11.832 0 00-11.862 0"/><path fill="#6abf4b" d="M145.61 58.28l-72.82 42a8.77 8.77 0 00-4.4 7.61V192a8.8 8.8 0 004.39 7.62l72.83 42.06a8.81 8.81 0 008.8 0l72.81-42.06a8.8 8.8 0 004.39-7.62v-84.08a8.77 8.77 0 00-4.4-7.61l-72.8-42a8.79 8.79 0 00-8.8 0" mask="url(#prefix__f)" transform="matrix(1.34787 0 0 1.34605 -52 -52)"/><path fill="#3f873f" d="M154.63 246.31l76.45-44.17a9.23 9.23 0 004.61-8v-88.32a9.23 9.23 0 00-4.61-8l-76.45-44.13a9.29 9.29 0 00-9.24 0L68.92 97.82a9.23 9.23 0 00-4.61 8v88.32a9.23 9.23 0 004.61 8l76.47 44.17a9.24 9.24 0 009.24 0z" mask="url(#prefix__c)" transform="matrix(1.34787 0 0 1.34605 -52 -52)"/><path fill="#6abf4b" d="M154.63 246.31l76.45-44.17a9.23 9.23 0 004.61-8v-88.32a9.23 9.23 0 00-4.61-8l-76.45-44.13a9.29 9.29 0 00-9.24 0L68.92 97.82a9.23 9.23 0 00-4.61 8v88.32a9.23 9.23 0 004.61 8l76.47 44.17a9.24 9.24 0 009.24 0z" mask="url(#prefix__g)" transform="matrix(1.34787 0 0 1.34605 -52 -52)"/><path fill="#3f873f" mask="url(#prefix__h)" transform="matrix(1.34787 0 0 1.34605 -52 -52)" d="M70.8 57.2h158.5v185.7H70.8z"/><path fill="#6abf4b" mask="url(#prefix__i)" transform="matrix(1.34787 0 0 1.34605 -52 -52)" d="M70.8 57.2h158.5v185.7H70.8z"/></svg>