<svg xmlns="http://www.w3.org/2000/svg" viewBox="0 0 300 300" version="1.1"><path d="M 144.26 26.45 l -98.15 56.53 a 11.82 11.81 0 0 0 -5.93 10.24 v 113.22 a 11.86 11.85 0 0 0 5.92 10.26 l 98.17 56.62 a 11.88 11.86 0 0 0 11.86 0 l 98.14 -56.61 a 11.86 11.85 0 0 0 5.92 -10.26 v -113.18 a 11.82 11.81 0 0 0 -5.93 -10.24 l -98.13 -56.53 a 11.85 11.83 0 0 0 -11.86 0 Z" fill="#388e3c"/><path d="M 42.98 213.51 a 11.79 11.78 0 0 0 3.49 3.07 l 84.2 48.57 14.02 8.08 a 11.89 11.87 0 0 0 6.83 1.55 12.27 12.25 0 0 0 2.33 -0.43 L 257.38 85.05 A 12.13 12.11 0 0 0 254.68 82.86 L 190.35 45.79 156.38 26.27 a 11.36 11.35 0 0 0 -3.07 -1.22 Z" fill="#4caf50"/><path d="M 257.38 213.51 a 11.79 11.78 0 0 1 -3.49 3.07 l -84.2 48.57 -14.02 8.08 a 11.89 11.87 0 0 1 -6.83 1.55 12.27 12.25 0 0 1 -2.33 -0.43 L 42.98 85.03 a 12.13 12.11 0 0 1 2.7 -2.19 L 110.01 45.79 143.98 26.27 a 11.36 11.35 0 0 1 3.07 -1.22 Z" fill="#66bb6a"/></svg>