<svg xmlns="http://www.w3.org/2000/svg" viewBox="0 0 32 32"><path fill="#388e3c" d="M15.354 2.831 4.647 8.861A1.255 1.255 0 0 0 4 9.953V22.03a1.259 1.259 0 0 0 .646 1.095l10.709 6.039a1.323 1.323 0 0 0 1.294 0l10.705-6.038A1.259 1.259 0 0 0 28 22.03V9.96a1.255 1.255 0 0 0-.647-1.093L16.65 2.836a1.32 1.32 0 0 0-1.294 0Z"/><path fill="#4caf50" d="M4.305 22.784a1.277 1.277 0 0 0 .381.328l9.185 5.18 1.53.862a1.323 1.323 0 0 0 .745.166 1.368 1.368 0 0 0 .254-.046L27.693 9.082a1.318 1.318 0 0 0-.294-.234L20.38 4.894l-3.705-2.082a1.257 1.257 0 0 0-.335-.13Z"/><path fill="#66bb6a" d="M27.693 22.784a1.277 1.277 0 0 1-.38.328l-9.185 5.18-1.53.862a1.323 1.323 0 0 1-.745.166 1.368 1.368 0 0 1-.254-.046L4.305 9.08a1.318 1.318 0 0 1 .295-.234l7.018-3.952 3.705-2.082a1.256 1.256 0 0 1 .335-.13Z"/></svg>