<svg xmlns="http://www.w3.org/2000/svg" viewBox="0 0 32 32">
  <path d="M27.35376,8.51654,16.64563,2.1778a1.2692,1.2692,0,0,0-.647-.17756L15.99927,2a1.2707,1.2707,0,0,0-.6471.17761L4.64667,8.51624A1.33249,1.33249,0,0,0,4,9.66418V22.34174a1.33082,1.33082,0,0,0,.64685,1.14733l10.70557,6.33332h.00006a1.26429,1.26429,0,0,0,1.29236,0L27.353,23.48907a1.331,1.331,0,0,0,.647-1.148V9.66449A1.333,1.333,0,0,0,27.35376,8.51654ZM24,23.30627a.5.5,0,0,1-.65814.47437l-5-1.66669A.49994.49994,0,0,1,18,21.63965V15.60089a.5.5,0,0,0-.22266-.416l-1.5-1a.50007.50007,0,0,0-.55468,0l-1.5,1a.5.5,0,0,0-.22266.416v6.03876a.49994.49994,0,0,1-.34186.4743l-5,1.66669A.5.5,0,0,1,8,23.30627V12.309a.49992.49992,0,0,1,.27637-.4472l1.94183-.97089A1.97845,1.97845,0,0,1,10,10V6l3.33331,3.33331,2.44306-1.22149a.50011.50011,0,0,1,.44726,0l2.44306,1.22149L22,6v4a1.97845,1.97845,0,0,1-.2182.89093l1.94183.97089A.49992.49992,0,0,1,24,12.309Z" style="fill: #8bc34a"/>
</svg>
