<svg xmlns="http://www.w3.org/2000/svg" viewBox="0 0 32 32">
  <g>
    <path d="M15.35367,2.83118,4.64688,8.86105A1.2548,1.2548,0,0,0,4,9.95331v12.0768a1.25891,1.25891,0,0,0,.64579,1.0944l10.709,6.03947a1.3234,1.3234,0,0,0,1.29375,0l10.7057-6.0384A1.25893,1.25893,0,0,0,28,22.03118V9.95865a1.2548,1.2548,0,0,0-.64688-1.09227L16.64852,2.83651a1.32,1.32,0,0,0-1.29376,0Z" style="fill: #388e3c"/>
    <path d="M4.30544,22.78425a1.27744,1.27744,0,0,0,.38071.32746l9.185,5.1808,1.52938.86187a1.3228,1.3228,0,0,0,.74506.16533,1.36773,1.36773,0,0,0,.25417-.04587l11.29367-20.192a1.31791,1.31791,0,0,0-.29453-.2336l-7.0175-3.95413L16.67579,2.812a1.25676,1.25676,0,0,0-.3349-.13014Z" style="fill: #4caf50"/>
    <path d="M27.69347,22.78425a1.27744,1.27744,0,0,1-.38071.32746l-9.185,5.1808-1.52938.86187a1.32281,1.32281,0,0,1-.74506.16533,1.36773,1.36773,0,0,1-.25417-.04587L4.30544,9.07971A1.31791,1.31791,0,0,1,4.6,8.84611l7.0175-3.952L15.32312,2.812a1.2564,1.2564,0,0,1,.3349-.13013Z" style="fill: #66bb6a"/>
  </g>
</svg>
