<svg xmlns="http://www.w3.org/2000/svg" fill-rule="evenodd" stroke-linejoin="round" stroke-miterlimit="2" clip-rule="evenodd" viewBox="0 0 124 124">
  <path fill="#00E676" d="M68.48 98h39.96c1.28 0 2.5-.45 3.6-1.08a7.57 7.57 0 0 0 2.88-2.52 7.26 7.26 0 0 0 1.08-3.6c0-1.26-.44-2.5-1.08-3.6l-27-46.44a6.57 6.57 0 0 0-2.52-2.52 8.7 8.7 0 0 0-3.96-1.08c-1.27 0-2.5.45-3.6 1.08a6.57 6.57 0 0 0-2.52 2.52l-6.84 11.88L54.8 29.6c-.64-1.1-1.42-2.25-2.52-2.88-1.1-.63-2.32-.72-3.6-.72s-2.5.09-3.6.72a8.54 8.54 0 0 0-2.88 2.88L8.72 87.2A6.94 6.94 0 0 0 8 90.8c0 1.26.08 2.5.72 3.6a7.57 7.57 0 0 0 2.88 2.52A7.32 7.32 0 0 0 15.2 98h25.2c9.99 0 17.25-4.48 22.32-12.96L74.96 63.8l6.48-11.16 19.8 33.84H74.96zM40.04 86.48H22.4l26.28-45.36L62 63.8l-8.82 15.38c-3.37 5.5-7.2 7.3-13.14 7.3z" />
</svg>
