<svg fill="none" viewBox="0 0 300 300" xmlns="http://www.w3.org/2000/svg">
  <g fill="none" transform="matrix(.66379354 0 0 .66379354 17.49698 51.004838)">
    <path d="m227.92099 82.07407-13.6889 23.7037-46.8148-81.08641-143.71359 248.88889h97.3037c0 13.0912 10.61252 23.7037 23.70371 23.7037h-121.0074c-8.46771 0-16.29145-4.52017-20.5246-11.85382-4.23315-7.33366-4.23272-16.36849.00114-23.70174l143.71358-248.88888c4.23415-7.33433 12.0596-11.85252 20.5284-11.85252 8.46878 0 16.29423 4.51819 20.52839 11.85252z" fill="#00c58e" />
    <path d="m331.6642 261.7284-90.05432-155.95062-13.6889-23.7037-13.68888 23.7037-90.04445 155.95061c-4.23385 7.33325-4.23428 16.36808-.001 23.70174 4.23314 7.33365 12.05689 11.85382 20.5246 11.85382h166.4c8.46946 0 16.29644-4.51525 20.532-11.84955 4.23555-7.3343 4.23606-16.37123.001-23.706zm-186.9531 11.85184 83.2099-144.09876 83.19012 144.09877h-166.4z" fill="#2f495e" />
    <path d="m396.04938 285.4321c-4.23344 7.33254-12.05656 11.85185-20.52345 11.85185h-64.41483c13.0912 0 23.7037-10.6125 23.7037-23.7037h40.66173l-115.37776-199.8321-18.4889 32.02963-13.68888-23.7037 11.65431-20.17778c4.23416-7.33433 12.0596-11.85252 20.5284-11.85252 8.46879 0 16.29423 4.51819 20.52839 11.85252l115.41728 199.8321c4.23426 7.33395 4.23426 16.36975 0 23.7037z" fill="#108775" />
  </g>
</svg>
