<svg fill="none" version="1.1" viewBox="0 0 300 300" xmlns="http://www.w3.org/2000/svg">
 <g transform="matrix(.66379 0 0 .66379 17.497 51.005)" fill="none">
  <path d="m227.92 82.074-13.689 23.704-46.815-81.086-143.71 248.89h97.304c0 13.091 10.613 23.704 23.704 23.704h-121.01c-8.4677 0-16.291-4.5202-20.525-11.854-4.2332-7.3337-4.2327-16.368 0.00114-23.702l143.71-248.89c4.2342-7.3343 12.06-11.853 20.528-11.853 8.4688 0 16.294 4.5182 20.528 11.853z" fill="#00c58e" style="fill:#00bfa5"/>
  <path d="m331.66 261.73-90.054-155.95-13.689-23.704-13.689 23.704-90.044 155.95c-4.2338 7.3332-4.2343 16.368-1e-3 23.702 4.2331 7.3336 12.057 11.854 20.525 11.854h166.4c8.4695 0 16.296-4.5152 20.532-11.85 4.2356-7.3343 4.2361-16.371 1e-3 -23.706zm-186.95 11.852 83.21-144.1 83.19 144.1h-166.4z" fill="#2f495e" style="fill:#f5f5f5"/>
  <path d="m396.05 285.43c-4.2334 7.3325-12.057 11.852-20.523 11.852h-64.415c13.091 0 23.704-10.612 23.704-23.704h40.662l-115.38-199.83-18.489 32.03-13.689-23.704 11.654-20.178c4.2342-7.3343 12.06-11.853 20.528-11.853 8.4688 0 16.294 4.5182 20.528 11.853l115.42 199.83c4.2343 7.334 4.2343 16.37 0 23.704z" fill="#108775" style="fill:#26a69a"/>
 </g>
</svg>
