<svg xmlns="http://www.w3.org/2000/svg" class="h-8 w-8" viewBox="0 0 24 24"><path fill="#039be5" d="m12 13.862-2.749 4.434-4.61-7.537v7.891H1.36V5.35h3.28l4.611 7.892V9.695l2.66 4.168zm.532-5.054V5.35h-3.28v3.458zm4.966 3.635a1.773 1.773 0 0 0-1.774 1.153 1.773 1.773 0 0 1 2.128-.62c.355.177.887.354 1.153.265a1.862 1.862 0 0 0-1.507-.798zm3.014.887c-.354 0-.709-.177-.975-.532l-.177-.266a1.862 1.862 0 0 0-.444-.532 1.773 1.773 0 0 0-1.064-.266 2.217 2.217 0 0 0-2.04 1.33 2.04 2.04 0 0 1 3.548.355.71.71 0 0 0 .798.266c.443 0 .354.354 1.064.443v-.089c0-.354-.266-.443-.71-.62zm1.774 1.153a.62.62 0 0 0 .354-.532c0-2.66-2.128-4.877-4.788-4.877a4.788 4.788 0 0 0-3.99 2.128l-1.33-2.128h-3.28l3.103 4.788L9.34 18.65h3.192l1.241-2.216 1.42 2.128h3.102l-2.748-4.434a.62.62 0 0 1 0-.266 2.394 2.394 0 0 1 2.305-2.394c1.33 0 1.507.798 1.773 1.153.621.71 1.774.443 1.774 1.33a.62.62 0 0 0 .887.532zm.354.177c-.177.266-.532.266-.709.532-.089.266.089.355.089.355s.354.177.532-.266v-.621z"/></svg>