<svg class="h-8 w-8" fill="currentColor" role="img" version="1.1" viewBox="0 0 24 24" xmlns="http://www.w3.org/2000/svg">
 <title>Nx</title>
 <path d="m12 13.862-2.7488 4.4335-4.6108-7.5369v7.8916h-3.2808v-13.3h3.2808l4.6108 7.8916v-3.5468l2.6601 4.1675zm0.53202-5.0542v-3.4581h-3.2808v3.4581zm4.9655 3.6355a1.7734 1.7734 0 0 0-1.7734 1.1527 1.7734 1.7734 0 0 1 2.1281-0.62069c0.35468 0.17734 0.8867 0.35468 1.1527 0.26601a1.8621 1.8621 0 0 0-1.5074-0.79803zm3.0148 0.8867c-0.35468 0-0.70936-0.17734-0.97537-0.53202l-0.17734-0.26601a1.8621 1.8621 0 0 0-0.44335-0.53202 1.7734 1.7734 0 0 0-1.064-0.26601 2.2167 2.2167 0 0 0-2.0394 1.33 2.0394 2.0394 0 0 1 3.5468 0.35468 0.70936 0.70936 0 0 0 0.79803 0.26601c0.44335 0 0.35468 0.35468 1.064 0.44335v-0.08867c0-0.35468-0.26601-0.44335-0.70936-0.62069zm1.7734 1.1527a0.62069 0.62069 0 0 0 0.35468-0.53202c0-2.6601-2.1281-4.8768-4.7882-4.8768a4.7882 4.7882 0 0 0-3.9901 2.1281l-1.33-2.1281h-3.2808l3.1034 4.7882-3.0148 4.7882h3.1921l1.2414-2.2167 1.4187 2.1281h3.1034l-2.7488-4.4335a0.62069 0.62069 0 0 1 0-0.26601 2.3941 2.3941 0 0 1 2.3054-2.3941c1.33 0 1.5074 0.79803 1.7734 1.1527 0.62069 0.70936 1.7734 0.44335 1.7734 1.33a0.62069 0.62069 0 0 0 0.8867 0.53202zm0.35468 0.17734c-0.17734 0.26601-0.53202 0.26601-0.70936 0.53202-0.08867 0.26601 0.08867 0.35468 0.08867 0.35468s0.35468 0.17734 0.53202-0.26601v-0.62069z" fill="#039be5" stroke-width=".8867"/>
</svg>
