<svg xmlns="http://www.w3.org/2000/svg" width="500" height="500" viewBox="0 0 500 500" version="1.1"><path d="M 313.730 104 C 312.908 105.925, 310.962 111.447, 309.405 116.271 L 306.574 125.042 299.537 127.081 C 287.062 130.696, 282.858 132.191, 283.462 132.795 C 283.787 133.121, 289.068 135.102, 295.197 137.197 C 301.326 139.293, 306.489 141.156, 306.670 141.337 C 306.852 141.518, 308.419 146.579, 310.153 152.583 C 311.888 158.587, 313.637 163.877, 314.041 164.338 C 314.445 164.799, 316.455 160.074, 318.507 153.838 C 320.560 147.602, 322.748 141.989, 323.369 141.365 C 323.991 140.741, 329.575 138.766, 335.779 136.977 C 341.982 135.188, 346.869 133.535, 346.638 133.305 C 346.407 133.074, 340.889 130.994, 334.376 128.682 L 322.533 124.478 319.438 113.989 C 315.147 99.443, 315.449 99.972, 313.730 104 M 223.500 113.445 C 189.905 122.203, 162.024 142.811, 142.861 173.048 C 128.017 196.471, 120.449 227.820, 123.015 255.250 C 128.699 315.993, 171.064 363.589, 231.053 376.623 C 241.740 378.946, 271.805 379.232, 282.500 377.113 C 300.588 373.530, 321.308 364.604, 336.255 353.956 C 345.425 347.423, 359.585 333.976, 363.593 327.995 C 367.991 321.432, 364.266 317.413, 355.418 319.175 C 352.713 319.714, 343.975 320.164, 336 320.176 C 309.245 320.214, 285.707 312.824, 264.228 297.645 C 237.965 279.085, 219.062 249.235, 213.548 217.615 C 211.562 206.226, 211.570 185.992, 213.566 174.584 C 216.515 157.726, 223.532 140.556, 233.335 126.211 C 236.451 121.653, 239 117.265, 239 116.461 C 239 114.650, 235.442 110.983, 233.750 111.049 C 233.063 111.076, 228.450 112.154, 223.500 113.445 M 282.545 157.250 C 279.318 166.738, 276.540 174.673, 276.372 174.883 C 276.099 175.226, 255.440 181.413, 245.750 184.055 C 243.688 184.617, 242 185.450, 242 185.905 C 242 186.360, 249.762 189.343, 259.250 192.533 C 268.738 195.724, 276.800 198.787, 277.167 199.341 C 277.533 199.895, 279.020 204.658, 280.470 209.924 C 285.320 227.544, 287.079 233, 287.909 233 C 288.362 233, 291.307 225.372, 294.454 216.049 C 297.601 206.726, 300.699 198.678, 301.338 198.163 C 301.977 197.648, 309.250 195.325, 317.500 193.001 C 325.750 190.676, 333.134 188.429, 333.910 188.008 C 335.895 186.929, 334.291 186.207, 316 179.939 C 307.475 177.018, 300.200 174.183, 299.833 173.640 C 299.467 173.096, 297.980 168.342, 296.530 163.076 C 291.761 145.749, 289.925 140, 289.164 140 C 288.751 140, 285.772 147.762, 282.545 157.250 M 341.493 203.162 C 339.440 209.398, 337.252 214.989, 336.631 215.586 C 336.009 216.183, 332.575 217.474, 329 218.455 C 319.544 221.050, 313 223.112, 313 223.498 C 313 223.683, 318.555 225.686, 325.345 227.948 L 337.689 232.062 339.404 238.281 C 343.229 252.154, 344.179 255, 344.988 255 C 345.453 255, 347.591 249.728, 349.739 243.284 L 353.644 231.567 360.072 229.736 C 373.568 225.891, 376.943 224.717, 376.511 224.018 C 376.266 223.621, 370.988 221.590, 364.783 219.505 C 358.577 217.419, 353.370 215.610, 353.211 215.484 C 353.052 215.358, 351.542 210.360, 349.857 204.377 C 348.171 198.395, 346.439 193.123, 346.008 192.662 C 345.577 192.201, 343.545 196.926, 341.493 203.162" stroke="none" fill="#F5F5F5" fill-rule="evenodd"/><path d="M 210.942 48.750 C 190.296 60.712, 147.447 85.575, 115.721 104 L 58.038 137.500 58.036 250 L 58.034 362.500 77.267 373.658 C 87.845 379.795, 123.050 400.239, 155.500 419.090 C 246.189 471.774, 248.339 473, 250.018 473 C 250.884 473, 263.047 466.329, 277.046 458.177 C 321.778 432.126, 368.479 405.006, 405.712 383.457 L 441.924 362.500 441.953 250 L 441.981 137.500 435.741 133.936 C 432.308 131.976, 404.075 115.584, 373 97.509 C 268.881 36.949, 251.525 27, 249.998 27 C 249.163 27, 231.587 36.788, 210.942 48.750 M 313.730 104 C 312.908 105.925, 310.962 111.447, 309.405 116.271 L 306.574 125.042 299.537 127.081 C 287.062 130.696, 282.858 132.191, 283.462 132.795 C 283.787 133.121, 289.068 135.102, 295.197 137.197 C 301.326 139.293, 306.489 141.156, 306.670 141.337 C 306.852 141.518, 308.419 146.579, 310.153 152.583 C 311.888 158.587, 313.637 163.877, 314.041 164.338 C 314.445 164.799, 316.455 160.074, 318.507 153.838 C 320.560 147.602, 322.748 141.989, 323.369 141.365 C 323.991 140.741, 329.575 138.766, 335.779 136.977 C 341.982 135.188, 346.869 133.535, 346.638 133.305 C 346.407 133.074, 340.889 130.994, 334.376 128.682 L 322.533 124.478 319.438 113.989 C 315.147 99.443, 315.449 99.972, 313.730 104 M 223.500 113.445 C 189.905 122.203, 162.024 142.811, 142.861 173.048 C 128.017 196.471, 120.449 227.820, 123.015 255.250 C 128.699 315.993, 171.064 363.589, 231.053 376.623 C 241.740 378.946, 271.805 379.232, 282.500 377.113 C 300.588 373.530, 321.308 364.604, 336.255 353.956 C 345.425 347.423, 359.585 333.976, 363.593 327.995 C 367.991 321.432, 364.266 317.413, 355.418 319.175 C 352.713 319.714, 343.975 320.164, 336 320.176 C 309.245 320.214, 285.707 312.824, 264.228 297.645 C 237.965 279.085, 219.062 249.235, 213.548 217.615 C 211.562 206.226, 211.570 185.992, 213.566 174.584 C 216.515 157.726, 223.532 140.556, 233.335 126.211 C 236.451 121.653, 239 117.265, 239 116.461 C 239 114.650, 235.442 110.983, 233.750 111.049 C 233.063 111.076, 228.450 112.154, 223.500 113.445 M 282.545 157.250 C 279.318 166.738, 276.540 174.673, 276.372 174.883 C 276.099 175.226, 255.440 181.413, 245.750 184.055 C 243.688 184.617, 242 185.450, 242 185.905 C 242 186.360, 249.762 189.343, 259.250 192.533 C 268.738 195.724, 276.800 198.787, 277.167 199.341 C 277.533 199.895, 279.020 204.658, 280.470 209.924 C 285.320 227.544, 287.079 233, 287.909 233 C 288.362 233, 291.307 225.372, 294.454 216.049 C 297.601 206.726, 300.699 198.678, 301.338 198.163 C 301.977 197.648, 309.250 195.325, 317.500 193.001 C 325.750 190.676, 333.134 188.429, 333.910 188.008 C 335.895 186.929, 334.291 186.207, 316 179.939 C 307.475 177.018, 300.200 174.183, 299.833 173.640 C 299.467 173.096, 297.980 168.342, 296.530 163.076 C 291.761 145.749, 289.925 140, 289.164 140 C 288.751 140, 285.772 147.762, 282.545 157.250 M 341.493 203.162 C 339.440 209.398, 337.252 214.989, 336.631 215.586 C 336.009 216.183, 332.575 217.474, 329 218.455 C 319.544 221.050, 313 223.112, 313 223.498 C 313 223.683, 318.555 225.686, 325.345 227.948 L 337.689 232.062 339.404 238.281 C 343.229 252.154, 344.179 255, 344.988 255 C 345.453 255, 347.591 249.728, 349.739 243.284 L 353.644 231.567 360.072 229.736 C 373.568 225.891, 376.943 224.717, 376.511 224.018 C 376.266 223.621, 370.988 221.590, 364.783 219.505 C 358.577 217.419, 353.370 215.610, 353.211 215.484 C 353.052 215.358, 351.542 210.360, 349.857 204.377 C 348.171 198.395, 346.439 193.123, 346.008 192.662 C 345.577 192.201, 343.545 196.926, 341.493 203.162" stroke="none" fill="#D500F9" fill-rule="evenodd"/></svg>