<?xml version="1.0" encoding="UTF-8" standalone="no"?>
<!-- Generator: Adobe Illustrator 17.0.2, SVG Export Plug-In . SVG Version: 6.00 Build 0)  -->

<svg
   xmlns:dc="http://purl.org/dc/elements/1.1/"
   xmlns:cc="http://creativecommons.org/ns#"
   xmlns:rdf="http://www.w3.org/1999/02/22-rdf-syntax-ns#"
   xmlns:svg="http://www.w3.org/2000/svg"
   xmlns="http://www.w3.org/2000/svg"
   xmlns:sodipodi="http://sodipodi.sourceforge.net/DTD/sodipodi-0.dtd"
   xmlns:inkscape="http://www.inkscape.org/namespaces/inkscape"
   version="1.1"
   id="Layer_1"
   x="0px"
   y="0px"
   width="150"
   height="150"
   viewBox="0 0 150 150.00001"
   enable-background="new 0 0 165.543 144.277"
   xml:space="preserve"
   sodipodi:docname="ocaml.svg"
   inkscape:version="0.92.1 r15371"><metadata
     id="metadata39"><rdf:RDF><cc:Work
         rdf:about=""><dc:format>image/svg+xml</dc:format><dc:type
           rdf:resource="http://purl.org/dc/dcmitype/StillImage" /><dc:title></dc:title></cc:Work></rdf:RDF></metadata><defs
     id="defs37" /><sodipodi:namedview
     pagecolor="#ffffff"
     bordercolor="#666666"
     borderopacity="1"
     objecttolerance="10"
     gridtolerance="10"
     guidetolerance="10"
     inkscape:pageopacity="0"
     inkscape:pageshadow="2"
     inkscape:window-width="1366"
     inkscape:window-height="705"
     id="namedview35"
     showgrid="false"
     inkscape:zoom="1.6357424"
     inkscape:cx="82.7715"
     inkscape:cy="72.138496"
     inkscape:window-x="-8"
     inkscape:window-y="-8"
     inkscape:window-maximized="1"
     inkscape:current-layer="g32" /><g
     id="g32"
     transform="matrix(0.76135617,0,0,0.76135617,11.615521,19.979577)"><path
       d="m 83.019455,101.64524 0.02364,-0.0627 c -0.03495,-0.15829 -0.04728,-0.19426 -0.02364,0.0627 z"
       id="path2"
       inkscape:connector-curvature="0"
       style="fill:none;stroke-width:1.02782714" /><linearGradient
       id="SVGID_1_"
       gradientUnits="userSpaceOnUse"
       x1="-696.73499"
       y1="97.699997"
       x2="-696.73499"
       y2="142.9971"
       gradientTransform="matrix(1.0278272,0,0,1.0278272,776.89532,2.3365781)"><stop
         offset="0"
         style="stop-color:#F29100"
         id="stop4" /><stop
         offset="1"
         style="stop-color:#EC670F"
         id="stop6" /></linearGradient><path
       d="m 82.313338,138.79091 c -0.471773,-1.00521 -1.904564,-3.62206 -2.624043,-4.46077 -1.562297,-1.8285 -1.927176,-1.96623 -2.386615,-4.27473 -0.798621,-4.01983 -2.912862,-11.31021 -5.404315,-16.34142 -1.28684,-2.59629 -3.426776,-4.77734 -5.385814,-6.66032 -1.710305,-1.65172 -5.564657,-4.43097 -6.236856,-4.29324 -6.295441,1.25704 -8.248313,7.43119 -11.209483,12.32262 -1.638356,2.70524 -3.374356,5.00655 -4.665307,7.88446 -1.19228,2.64666 -1.086414,5.57699 -3.127678,7.84952 -2.093684,2.33317 -3.454528,4.81434 -4.480299,7.82896 -0.194259,0.57353 -0.74723,6.59557 -1.347482,8.015 l 9.356311,-0.65884 c 8.719058,0.59408 6.200882,3.93555 19.809313,3.20785 l 21.487755,-0.66501 c -0.666032,-1.96931 -1.583881,-4.25006 -1.937454,-4.99112 -0.599223,-1.24779 -1.35262,-3.6899 -1.848033,-4.76296 z"
       id="path9"
       inkscape:connector-curvature="0"
       style="fill:url(#SVGID_1_);stroke-width:1.02782714" /><linearGradient
       id="SVGID_2_"
       gradientUnits="userSpaceOnUse"
       x1="-666.97198"
       y1="142.1198"
       x2="-666.97198"
       y2="142.1198"
       gradientTransform="matrix(1.0278272,0,0,1.0278272,776.89532,2.3365781)"><stop
         offset="0"
         style="stop-color:#F29100"
         id="stop11" /><stop
         offset="1"
         style="stop-color:#EC670F"
         id="stop13" /></linearGradient><path
       d="M 91.363356,148.41138"
       id="path16"
       inkscape:connector-curvature="0"
       style="fill:url(#SVGID_2_);stroke-width:1.02782714" /><linearGradient
       id="SVGID_3_"
       gradientUnits="userSpaceOnUse"
       x1="-675.22803"
       y1="-1.2803"
       x2="-675.22803"
       y2="142.9666"
       gradientTransform="matrix(1.0278272,0,0,1.0278272,776.89532,2.3365781)"><stop
         offset="0"
         style="stop-color:#F29100"
         id="stop18" /><stop
         offset="1"
         style="stop-color:#EC670F"
         id="stop20" /></linearGradient><path
       d="m 109.55282,94.296275 c -1.65172,1.192279 -4.88013,4.059917 -11.902245,5.144273 -3.151318,0.48719 -6.099127,0.527275 -9.334726,0.365906 -1.583882,-0.07606 -3.077315,-0.157258 -4.665308,-0.177814 -0.935323,-0.0072 -4.073279,-0.106894 -3.918077,0.193231 l -0.349461,0.871599 c 0.05447,0.28676 0.168563,1.00316 0.200426,1.17686 0.128478,0.70407 0.164452,1.26423 0.191176,1.91176 0.04831,1.33104 -0.109978,2.71861 -0.04214,4.06198 0.140812,2.78644 1.174806,5.3262 1.30534,8.1373 0.142868,3.12974 1.690776,6.4414 3.18832,8.9976 0.568389,0.97335 1.433819,1.08436 1.811032,2.28281 0.441965,1.37317 0.02364,2.8296 0.238456,4.29323 0.842818,5.67463 2.477063,11.60623 5.032241,16.72789 0.0185,0.0432 0.03803,0.0894 0.06064,0.12848 3.15543,-0.53036 6.317026,-1.66508 10.417026,-2.2715 7.51753,-1.11519 17.97259,-0.54064 24.68841,-1.16967 16.99307,-1.59724 26.21576,6.9697 41.47797,3.45864 V 22.45835 c 0,-11.838513 -9.59374,-21.4373908 -21.43534,-21.4373908 H 19.238668 c -11.8374857,0 -21.4353359,9.5988778 -21.4353359,21.4373908 v 46.773331 c 3.06703631,-1.109025 7.4784706,-7.6347 8.8608981,-9.221665 2.4184774,-2.775134 2.8573597,-6.31497 4.0619728,-8.544328 2.743271,-5.077466 3.215043,-8.568995 9.450871,-8.568995 2.906695,0 4.060945,0.670144 6.027178,3.308576 1.368038,1.834671 3.731013,5.224445 4.836955,7.490804 1.276561,2.614793 3.356884,6.152574 4.27165,6.866914 0.677338,0.530359 1.349537,0.928128 1.976511,1.1635 1.011382,0.379268 1.848034,-0.316571 2.524344,-0.855152 0.863375,-0.687616 1.235448,-2.088545 2.035098,-3.957135 1.152194,-2.69599 2.408199,-5.926451 3.122539,-7.053978 1.236476,-1.94876 1.657885,-4.261371 2.993032,-5.381703 1.969317,-1.651718 4.538885,-1.767862 5.24603,-1.907647 3.956107,-0.781149 5.754805,1.906619 7.703565,3.644675 1.275534,1.138833 3.018728,3.432943 4.256232,6.507174 0.967186,2.401004 2.198523,4.622139 2.713464,6.008678 0.497468,1.338231 1.725722,3.483306 2.453424,6.05493 0.660892,2.335223 2.429783,4.12467 3.101982,5.234723 0,0 1.028855,2.882028 7.285239,5.516349 1.356732,0.571472 4.098975,1.500628 5.735276,2.095739 2.718603,0.987742 5.351896,0.859264 8.704668,0.457384 2.390726,0 3.685788,-3.461722 4.772203,-6.233772 0.642396,-1.638357 1.258056,-6.333471 1.677416,-7.666563 0.40599,-1.297118 -0.54372,-2.300277 0.26518,-3.437054 0.9456,-1.326925 1.50782,-1.398873 2.0536,-3.128706 1.17275,-3.704289 7.95127,-3.891354 11.76142,-3.891354 3.17599,0 2.77205,3.083482 8.15992,2.028931 3.08554,-0.60539 6.05904,0.397769 9.33473,1.265255 2.75869,0.731813 5.3519,1.565381 6.90597,3.384635 1.00522,1.17789 3.50078,7.079674 0.95794,7.331491 0.24462,0.299098 0.42346,0.838707 0.88084,1.134722 -0.56633,2.226273 -3.03106,0.640336 -4.40013,0.3546 -1.84495,-0.382352 -3.1472,0.05756 -4.95207,0.85618 -3.08553,1.374205 -7.59872,1.213864 -10.28649,3.452471 -2.28075,1.897369 -2.27664,6.133045 -3.34044,8.506298 -0.001,-0.001 -2.95397,7.599754 -9.40153,12.248617 z"
       id="path23"
       inkscape:connector-curvature="0"
       style="fill:url(#SVGID_3_);stroke-width:1.02782714" /><linearGradient
       id="SVGID_4_"
       gradientUnits="userSpaceOnUse"
       x1="-735.13702"
       y1="90.833397"
       x2="-735.13702"
       y2="141.96719"
       gradientTransform="matrix(1.0278272,0,0,1.0278272,776.89532,2.3365781)"><stop
         offset="0"
         style="stop-color:#F29100"
         id="stop25" /><stop
         offset="1"
         style="stop-color:#EC670F"
         id="stop27" /></linearGradient><path
       d="m 38.247303,105.08949 c -1.467737,-0.14904 -2.830636,-0.31657 -4.256232,-0.60436 -2.662072,-0.53653 -5.570823,-1.05969 -8.19281,-1.6877 -1.592105,-0.38543 -6.895693,-2.26327 -8.047887,-2.7926 -2.702158,-1.245732 -4.496744,-4.630365 -6.608929,-4.281931 -1.3485091,0.219955 -2.662072,0.682477 -3.500779,2.042292 -0.6845329,1.109024 -0.9168218,3.015639 -1.3906501,4.294259 -0.5498876,1.48419 -1.4995999,2.8697 -2.3311121,4.28399 -1.5294068,2.59423 -4.28192802,4.94076 -5.4680405,7.46819 -0.2384559,0.52008 -0.4501883,1.10183 -0.648559,1.70825 v 9.69652 16.77517 2.42361 c 1.38345538,0.2364 2.83063611,0.52728 4.4504917,0.95999 11.954658,3.18935 14.871631,3.45967 26.597083,2.11836 l 1.099776,-0.14595 c 0.897293,-1.86654 1.590048,-8.22673 2.171798,-10.19502 0.453272,-1.50885 1.076135,-2.71141 1.312536,-4.25212 0.223038,-1.46363 -0.02056,-2.85839 -0.145952,-4.1884 -0.328904,-3.33221 2.4267,-4.52244 3.742319,-7.38391 1.186113,-2.5891 1.870645,-5.53485 2.85222,-8.1815 0.94149,-2.53976 2.411283,-6.12894 4.918153,-7.40755 -0.304236,-0.3546 -5.236779,-0.51803 -6.553426,-0.64959 z"
       id="path30"
       inkscape:connector-curvature="0"
       style="fill:url(#SVGID_4_);stroke-width:1.02782714" /></g></svg>