<svg xmlns="http://www.w3.org/2000/svg" xmlns:xlink="http://www.w3.org/1999/xlink" height="800" width="1200" viewBox="-42.49335 -70.822 368.2757 424.932"><defs><radialGradient gradientTransform="matrix(.22914 -.24901 .76436 .83064 -272.853 -159.695)" gradientUnits="userSpaceOnUse" xlink:href="#a" id="b" fy="395.049" fx="182.984" r="148.953" cy="395.049" cx="182.984"/><linearGradient id="a"><stop offset="0" stop-color="#008cbe"/><stop offset="1" stop-color="#b2ffff"/></linearGradient></defs><g transform="translate(-511.806 -794.548) scale(8.45197)"><path d="M66.432 97.489c-5.196 5.646-3.937 16.169 2.811 23.502 6.748 7.332 16.43 8.7 21.625 3.053 5.196-5.647 3.94-16.17-2.807-23.503-6.748-7.332-16.433-8.699-21.629-3.052zm4.712 2.345c4.082-4.436 11.589-3.471 16.767 2.156 5.178 5.628 6.066 13.785 1.984 18.222-4.083 4.436-11.591 3.473-16.77-2.154-5.178-5.628-6.064-13.787-1.981-18.224z" fill="url(#b)"/><rect y="99.494" x="85.382" ry=".77" rx=".77" height="4.35" width="4.35" fill="#ff7f2a" stroke="#d45500" stroke-width=".744"/><rect y="105.225" x="60.927" ry="1.813" rx="1.813" height="10.245" width="10.245" fill="#ff7f2a" stroke="#d45500" stroke-width=".744"/><rect y="118.637" x="87.405" ry="1.095" rx="1.095" height="6.19" width="6.19" fill="#ff7f2a" stroke="#d45500" stroke-width=".744"/></g></svg>