<svg xmlns="http://www.w3.org/2000/svg" viewBox="0 0 24 24"><path fill="#ff7043" d="M7.22 6.8a.19.19 0 0 1 0-.34l.03-.01 4.5-2.27q.26-.14.52 0l4.48 2.25.07.03c.11.08.11.25-.01.32l-4.53 2.3c-.2.1-.35.1-.55 0zm10.37-5.54a.2.2 0 0 1 .16 0l.13.06 4.4 2.23.07.03c.07.06.17.12.17.18s-.1.14-.16.18l-1.6.83-2.74 1.39a.7.7 0 0 1-.75 0l-4.3-2.19c-.15-.08-.15-.31 0-.4l4.41-2.22zM6.35 6.31l-.25-.1-4.45-2.27c-.07-.03-.15-.1-.15-.16s.08-.13.14-.16l4.51-2.3c.17-.1.3-.07.46 0L11 3.57l.03.02c.14.1.14.31-.01.4L6.55 6.22q-.1.05-.21.08m6.59 8.8c-.13-.07-.13-.27 0-.34l4.38-2.23a.7.7 0 0 1 .68 0l4.36 2.2c.07.04.17.12.17.18s-.1.14-.17.18l-4.4 2.24a.6.6 0 0 1-.6 0l-4.4-2.22zm-6.57-2.71.27.11 4.44 2.26c.12.09.11.28-.02.35l-4.4 2.24q-.29.15-.56 0l-4.44-2.27q-.1-.05-.14-.17c-.01-.04.07-.12.13-.15l4.49-2.29q.1-.05.23-.08m5.91 5.48v-2.12c0-.32.08-.37.37-.23l4.45 2.25q.3.13.29.46v4.23q0 .45-.39.23l-4.46-2.29q-.25-.11-.25-.4zm-.54-.01v2.13q.01.27-.23.38l-4.46 2.3c-.31.16-.4.1-.4-.26v-4.14c0-.24.07-.38.3-.5l4.42-2.25c.3-.15.36-.11.37.23zM6.1 22.43c0 .32-.1.39-.39.24L1.27 20.4q-.25-.11-.24-.4v-4.24c0-.32.1-.37.39-.23q2.11 1.1 4.24 2.17c.31.15.45.33.44.69-.03.64 0 3.33 0 4.04m16.87-4.55v2.1q.01.3-.25.42l-4.4 2.25c-.3.15-.4.09-.4-.26q0-2.05-.02-4.09-.02-.39.34-.55l4.31-2.19.11-.05q.31-.16.31.19zM6.64 9.53V7.47c0-.31.09-.37.37-.23l4.4 2.25q.34.15.33.52v4.1q.02.44-.37.22Q9.18 13.2 7 12.13c-.25-.13-.37-.3-.36-.6zm-.54-.35v2.1c0 .34-.1.4-.41.24l-4.3-2.19c-.26-.13-.37-.3-.36-.6V4.69c0-.38.09-.43.42-.26l4.38 2.23c.18.1.26.2.26.42zm6.18 2.84V9.96q0-.3.27-.44 2.1-1.06 4.2-2.15.18-.1.37-.18.24-.1.26.16v.1l.01 4.16q.01.3-.25.44l-4.54 2.32q-.3.16-.3-.2v-2.15zm5.64-2.86V7.08q-.02-.29.25-.43l4.5-2.28q.32-.19.31.19v4.33c-.01.11-.1.27-.2.32q-2.27 1.18-4.53 2.32-.34.19-.33-.22z"/></svg>