<svg xmlns="http://www.w3.org/2000/svg" viewBox="0 0 32 32">
  <g>
    <path d="M29.12,10.065c0-2.49922-4.6857-8.12206-4.9979-8.43426,1.1235,5.05734.98373,4.30227,1.17169,5.91737a2.445,2.445,0,0,1-.0996,1.26112c-.78024,1.802-3.57185,2.81678-3.57185,2.81678l4.373,3.74856S29.12,12.25144,29.12,10.06549ZM2.88,10.065c0-2.49922,4.6857-8.12206,4.9979-8.43426C6.75444,6.688,6.89368,5.933,6.70625,7.54807a2.445,2.445,0,0,0,.0996,1.26112c.78024,1.802,3.57185,2.81678,3.57185,2.81678l-4.373,3.74856S2.88,12.25144,2.88,10.06549Z" style="fill: #bdbdbd"/>
    <path d="M16,8c4.89669,0,8.45247,3.00745,9.99634,7.37506V22s-3.12416,2.12206-4.99844,3.3714A31.70771,31.70771,0,0,0,16.3122,30H16Z" style="fill: #546e7a"/>
    <path d="M16,8c-4.89669,0-8.45247,3.00745-9.99634,7.37506V22s3.12416,2.12206,4.99844,3.3714A31.70771,31.70771,0,0,1,15.6878,30H16Z" style="fill: #78909c"/>
    <circle cx="16" cy="16" r="2" style="fill: #fff"/>
  </g>
</svg>
