<svg fill="none" version="1.1" viewBox="0 0 56 56" xmlns="http://www.w3.org/2000/svg">
 <g transform="matrix(.93714 0 0 .93714 1.76 1.76)">
  <path d="m52.5 16.917c0-4.667-8.75-15.167-9.333-15.75 2.098 9.444 1.837 8.034 2.188 11.05 0.093 0.795 0.132 1.62-0.186 2.355-1.457 3.365-6.67 5.26-6.67 5.26l8.166 7s5.835-5.832 5.835-9.914zm-49 0c0-4.667 8.75-15.167 9.333-15.75-2.098 9.444-1.838 8.034-2.188 11.05-0.093 0.795-0.132 1.62 0.186 2.355 1.457 3.365 6.67 5.26 6.67 5.26l-8.166 7s-5.835-5.832-5.835-9.914z" fill="#BFBFBF" style="fill:#bdbdbd"/>
  <path d="m28 12.25c9.144 0 15.784 6.427 18.667 14.583v14s-5.834 2.334-9.334 4.667-8.75 9.333-8.75 9.333h-0.583z" fill="#566366" style="fill:#546e7a"/>
  <path d="m28 12.25c-9.144 0-15.784 6.427-18.667 14.583v14s5.834 2.334 9.334 4.667 8.75 9.333 8.75 9.333h0.583z" fill="#7D9199" style="fill:#78909c"/>
  <circle cx="28" cy="26.833" r="2.333" fill="#fff"/>
 </g>
</svg>
