<?xml version="1.0" encoding="UTF-8"?>
<!-- Created with Inkscape (http://www.inkscape.org/) -->
<svg width="380.8" height="330.67" version="1.1" viewBox="0 0 380.8 330.67" xmlns="http://www.w3.org/2000/svg" xmlns:cc="http://creativecommons.org/ns#" xmlns:dc="http://purl.org/dc/elements/1.1/" xmlns:rdf="http://www.w3.org/1999/02/22-rdf-syntax-ns#">
 <metadata>
  <rdf:RDF>
   <cc:Work rdf:about="">
    <dc:format>image/svg+xml</dc:format>
    <dc:type rdf:resource="http://purl.org/dc/dcmitype/StillImage"/>
    <dc:title/>
   </cc:Work>
  </rdf:RDF>
 </metadata>
 <g stroke-width="1.0667">
  <path d="m285.15 319.89c-1.4007-1.5114-3.1144-4.9914-3.8083-7.7333-1.5175-5.9966-3.152-192.78-1.9151-218.85 1.4635-30.851 3.9904-34.271 34.505-46.695 8.8-3.583 23.414-9.9426 32.476-14.132 18.578-8.5901 23.916-9.6547 27.988-5.5823 1.6525 1.6525 2.6755 4.4468 3.3191 9.0661 0.51169 3.6725 1.1621 55.179 1.4454 114.46 0.43984 92.045 0.28118 109.46-1.0868 119.27-2.4785 17.784-4.4461 19.648-33.208 31.457-9.9733 4.095-24.853 10.603-33.067 14.462-17.302 8.1298-22.33 8.9369-26.649 4.2775zm-30.744-15.438c-3.4061-0.52353-11.992-2.2394-19.079-3.8129l-12.886-2.8611-27.854 1.2111c-18.121 0.78792-29.892 1.7768-33.686 2.8302-7.2205 2.0043-19.225 2.0974-23.802 0.18443-1.8878-0.78903-8.1354-4.6014-13.884-8.472-8.4919-5.7181-11.922-7.3647-18.298-8.7832-8.7823-1.9539-11.778-1.4712-26.717 4.3054-4.1067 1.5879-10.587 3.3208-14.4 3.8508-3.8133 0.52999-8.8034 1.2576-11.089 1.6168-5.3822 0.84598-13.309-0.87675-27.844-6.0515-6.4533-2.2974-13.765-4.6858-16.249-5.3073-2.6221-0.65632-5.0018-2.0394-5.6757-3.2987-0.73495-1.3733-1.035-7.973-0.81814-17.997l0.34241-15.828 3.4964-4.6339c6.1991-8.2158 8.5547-12.2 9.9339-16.804 2.6276-8.7702 9.3765-10.972 16.255-5.3021 2.2207 1.8305 7.2602 4.4489 11.199 5.8186 7.5091 2.6114 23.67 5.7865 29.452 5.7865 1.8644 0 4.2791 0.65029 5.366 1.4451 1.8974 1.3874 1.8661 1.5897-0.784 5.0667-1.5182 1.9918-3.838 6.9064-5.1552 10.921-1.3172 4.0148-3.9926 9.9529-5.9455 13.196-2.6893 4.4661-3.5506 7.1181-3.5506 10.933 0 2.7704-0.93064 7.7421-2.0681 11.048-1.2068 3.5077-1.651 6.2688-1.0667 6.6299 1.6676 1.0306 2.8569-0.3468 4.524-5.2393 0.8739-2.5648 3.3293-7.1933 5.4565-10.286 2.1272-3.0924 4.3997-7.7359 5.0502-10.319 0.65042-2.583 3.0328-7.5592 5.2943-11.058 2.2614-3.4989 5.1129-8.3241 6.3365-10.723 2.9585-5.7992 10.008-13.332 13.673-14.609 4.3747-1.525 8.9316 0.85173 16.571 8.643 5.4856 5.5947 7.1439 8.2105 9.9724 15.731 1.866 4.961 3.9824 11.66 4.7031 14.887 0.72075 3.2267 2.8262 8.1003 4.6788 10.83 1.8526 2.73 4.9837 9.09 6.9581 14.133 2.1206 5.4168 4.1986 9.1696 5.0776 9.1696 0.9102 0 1.2796-0.72473 0.95157-1.8667-0.29496-1.0267-1.7909-6.1204-3.3244-11.319-1.5335-5.199-2.7881-11.302-2.7881-13.563 0-2.6871-1.2831-6.445-3.7052-10.851-4.3147-7.8496-6.2237-17.237-6.3448-31.199l-0.0833-9.6 16.533-0.69185c18.613-0.77887 26.66-2.7093 35.873-8.6056 7.2814-4.6602 20.877-19.351 23.569-25.467 1.1858-2.6941 3.5364-5.8586 5.2237-7.0324 5.2797-3.6728 19.169-8.1519 23.233-7.4924 3.156 0.51214 3.7274 0.26189 4.2615-1.8663 1.0731-4.2757-1.3687-9.0035-5.8241-11.277-4.7033-2.3994-23.896-5.6524-33.989-5.7606l-6.8526-0.0735-2.7926 4.8c-1.5359 2.64-3.4176 6.96-4.1816 9.6-3.2147 11.109-13.552 24.791-20.096 26.597-4.5623 1.2597-11.161 0.0303-17.676-3.2931-4.3885-2.2388-18.271-13.85-33.718-28.203-4.4782-4.1608-9.1897-8.1258-10.47-8.8109-1.2802-0.68513-4.1161-3.9402-6.3021-7.2335-4.2003-6.328-7.9684-9.2442-14.528-11.243-5.3817-1.6401-8.9426 0.0477-11.088 5.2553-2.9983 7.2784-5.2195 8.7976-12.862 8.7976-7.2423 0-12.308-1.6375-18.682-6.0395-5.896-4.0716-8.1575-2.9927-15.472 7.3818-6.7823 9.6192-12.848 13.79-20.373 14.01l-3.9191 0.11448v-73.6l2.7745-5.9153c5.2703-11.236 14.572-18.711 26.345-21.17 3.9043-0.81562 37.159-1.1808 107.52-1.1808 114.32 0 111.68-0.15752 121.46 7.2384 2.8957 2.1886 6.834 6.0364 8.7518 8.5508 6.9882 9.1621 6.7416 4.8378 6.7416 118.19 0 111.65 0.30246 106-5.6762 106.03-1.2781 6e-3 -4.0038 0.2087-6.0571 0.44945-2.0533 0.24073-6.5202 0.01-9.9263-0.51417zm-219.44-241.96c-4.7042-0.96406-6.3638-1.9655-6.3638-3.8402 0-2.3722 4.8776-5.1588 22.4-12.797 13.415-5.8477 17.893-7.3103 23.74-7.7537 6.1971-0.46995 6.9448-0.73839 5.335-1.9155-1.0297-0.75292-1.5295-1.7116-1.1107-2.1304 1.0535-1.0535 22.052-10.654 31.769-14.525 14.164-5.6423 26.103-6.1511 145.07-6.1821 69.643-0.01814 106.42 0.34716 109.07 1.0835 8.2876 2.3016 4.9778 4.9259-19.487 15.451-12.549 5.3986-18.305 7.2999-23.98 7.9203-4.1067 0.44902-6.5915 0.88157-5.5218 0.96123 4.6669 0.34754 0.38406 3.8046-11.545 9.3189-15.677 7.247-28.376 11.593-38.933 13.325-8.9667 1.4707-223.62 2.4811-230.44 1.0846z" fill="#fbe7d4"/>
  <path d="m285.95 319.17c-4.7411-5.1324-4.7885-6.0613-5.6687-111.2-1.0439-124.69-0.45819-136.57 7.1851-145.65 4.0936-4.8649 8.5724-7.3423 26.462-14.637 8.8-3.5883 23.2-9.8409 32-13.895 18.516-8.5294 21.12-9.3212 25.156-7.6494 4.9666 2.0573 6.226 6.5462 7.3716 26.277 1.4954 25.753 1.3908 201.91-0.12712 214.15-1.4415 11.622-4.3596 18.109-10.126 22.511-2.3335 1.7814-11.18 6.0519-19.658 9.49-8.4786 3.4381-23.576 10.018-33.549 14.621-20.142 9.2969-25.05 10.308-29.045 5.9835zm-33.888-16.152c-4.1067-0.74921-12.501-2.4714-18.653-3.8271-10.971-2.4173-11.712-2.4425-38.4-1.3041-18.99 0.81-29.401 1.7196-34.454 3.01-6.2674 1.6007-7.4412 1.6448-8.7337 0.32792-2.2849-2.328-6.8986-17.156-7.6783-24.678-0.48645-4.6922-1.7931-8.7106-4.3449-13.363-3.9578-7.2148-5.2833-13.368-6.2885-29.19l-0.65069-10.242 16.402-0.60781c25.054-0.92845 33.448-4.2237 47.845-18.782 5.8537-5.9194 10.229-11.471 12.29-15.592 3.1011-6.2021 3.4638-6.5153 11.733-10.129 6.5329-2.8548 9.9576-3.7214 14.609-3.6969 5.525 0.0291 6.1333-0.1985 6.7139-2.5118 0.89704-3.5741-1.2579-9.3801-4.3984-11.85-2.7276-2.1455-5.9771-2.9435-24.391-5.9898-15.225-2.5187-18.404-2.0509-22.054 3.2446-1.6173 2.3467-3.7181 6.9067-4.6686 10.133-3.465 11.763-13.224 24.929-19.788 26.696-5.2697 1.419-13.114-0.58269-19.81-5.055-9.9012-6.6131-43.886-37.677-49.814-45.532-3.1235-4.1392-12.003-9.1458-16.255-9.1655-3.3769-0.0156-7.4121 3.6729-9.3692 8.564-3.4495 8.621-14.957 9.2687-27.469 1.5459-3.3151-2.0462-6.7304-3.7203-7.5895-3.7203-2.7662 0-7.1787 4.3288-12.234 12.002-5.2316 7.9411-10.663 11.561-17.794 11.86l-3.2884 0.13789 3.899e-4 -36.267c3.507e-4 -32.597 0.19421-36.698 1.916-40.533 5.3994-12.026 14.993-19.752 27.118-21.84 5.2741-0.90825 35.395-1.1526 111.26-0.90261l104.02 0.34282 7.1205 3.5059c8.5479 4.2087 14.812 10.886 17.864 19.044 2.1259 5.682 2.1689 7.844 2.1689 109.09 0 81.768-0.28008 103.53-1.3439 104.41-2.2327 1.853-13.654 2.3082-21.589 0.86052zm-116.28-2.91c-2.338-1.2441-8.4114-5.0366-13.496-8.4279-7.0771-4.7197-11.037-6.5734-16.886-7.9036-9.0869-2.0668-11.678-1.6901-26.313 3.8251-12.159 4.5819-15.294 5.0405-15.278 2.235 0.01416-2.5364 4.6503-12.319 7.8438-16.551 1.4316-1.8971 3.1081-5.3099 3.7256-7.584 1.3141-4.84 13.152-25.79 17.674-31.277 1.7161-2.0827 4.7824-4.4812 6.814-5.33 3.6036-1.5057 3.8366-1.445 9.5454 2.4869 10.246 7.0566 15.971 17.039 21.081 36.759 0.94456 3.6451 2.8503 8.1129 4.2351 9.9284 3.2072 4.205 10.328 21.001 9.6508 22.765-0.7525 1.961-3.783 1.6344-8.5953-0.92633zm-94.918-7.5565c-2.3467-0.58557-9.5467-2.9203-16-5.1884-6.4533-2.268-13.769-4.6365-16.256-5.2633-5.7097-1.4388-5.872-2.0676-5.427-21.026l0.34956-14.89 4.3688-5.7733c6.7386-8.905 7.8667-10.796 9.0473-15.163 1.3158-4.8676 4.3989-8.2104 7.5726-8.2104 1.2771 0 4.7571 1.6528 7.7333 3.673 6.9111 4.6909 16.122 7.7205 29.775 9.7936 17.87 2.7134 17.363 2.4269 13.637 7.7021-1.0999 1.5572-3.2793 6.4313-4.8432 10.831s-4.264 10.312-6.0003 13.138c-2.3312 3.794-3.1568 6.4596-3.1568 10.193 0 4.9073-3.4934 17.439-5.6133 20.136-1.227 1.5611-9.0245 1.5859-15.187 0.0481zm-6.5892-230.92c-1.2774-0.24866-2.8618-1.1019-3.5209-1.896-2.0445-2.4635 2.0279-5.0006 21.111-13.152l17.991-7.6849 122.57 0.27118c99.254 0.2196 122.57 0.53303 122.57 1.6477 0 1.809-25.91 13.417-37.344 16.73-4.93 1.4287-14.624 3.0942-21.543 3.7012-12.002 1.0529-216.58 1.4061-221.84 0.38296zm47.087-25.982c-0.95618-1.5471-1.2827-1.336 10.753-6.9543 34.166-15.95 29.625-15.54 167.89-15.151 81.611 0.22932 105.85 0.59335 106.86 1.6047 2.3861 2.3868-1.7892 5.1243-20.192 13.239l-17.81 7.8529-123.4 0.27981c-87.407 0.1982-123.6-0.05582-124.11-0.87097z" fill="#f9cfa6"/>
  <path d="m287.57 320.32c-3.6818-2.843-5.1894-9.2521-6.189-26.31-1.3162-22.461-1.314-198.76 3e-3 -210.22 2.2075-19.201 6.1643-24.366 24.552-32.042 21.204-8.8531 32.566-13.794 45.332-19.712 17.14-7.9462 21.002-7.836 24.603 0.70207 1.7741 4.2068 1.9978 11.334 2.856 90.964 0.51213 47.52 0.71091 98.88 0.44173 114.13-0.8043 45.577-2.2592 48.573-28.761 59.222-7.7396 3.11-22.916 9.7143-33.725 14.676-20.394 9.3617-25.973 11.007-29.112 8.5832zm-34.968-17.633c-1.4667-0.25355-6.5067-1.366-11.2-2.472-4.6933-1.1061-11.653-2.4954-15.467-3.0874-9.8945-1.536-51.463 0.236-63.313 2.699-6.623 1.3765-9.5365 1.5892-10.369 0.75694-2.1066-2.1066-6.0695-14.612-7.3769-23.279-0.708-4.6932-1.7144-9.2532-2.2365-10.133-4.049-6.8248-5.5771-10.928-6.9075-18.551-1.994-11.424-2.5552-22.174-1.2452-23.849 0.73981-0.94639 5.1183-1.3333 15.088-1.3333 23.843 0 33.712-3.9911 49.175-19.888 6.5489-6.7323 10.273-11.483 11.198-14.284 1.8408-5.5777 3.5241-6.9227 13.449-10.745 6.2758-2.4173 9.7563-3.1503 13.738-2.8934l5.3333 0.34417 0.32506-4.4734c0.4115-5.6628-2.0029-10.427-6.4493-12.726-1.8818-0.97311-7.5137-2.3993-12.515-3.1693-27.504-4.2342-26.298-4.1359-29.004-2.3623-2.6104 1.7104-6.6653 9.172-9.9639 18.335-2.5062 6.962-9.9638 17.697-14.355 20.663-7.8911 5.3308-17.774 1.9104-33.258-11.51-20.602-17.857-32.164-28.777-40.913-38.639-3.2555-3.67-5.7232-5.2647-10.413-6.729-6.041-1.8863-6.1959-1.8822-9.0667 0.2426-1.6064 1.189-3.9089 4.2178-5.1167 6.7307-1.2078 2.5129-3.0996 5.2296-4.2039 6.0371-4.2412 3.1012-15.836 0.87747-24.166-4.6347-7.672-5.0771-10.586-3.696-19.264 9.1308-5.4644 8.0764-8.6966 10.344-16.563 11.621l-3.5797 0.5809 0.3194-36.681c0.30549-35.084 0.42068-36.901 2.6451-41.716 2.8637-6.1988 10.012-13.289 16.971-16.832l5.237-2.6667h219.73l4.9874 2.3049c6.6717 3.0833 13.738 9.7669 16.792 15.883 1.5306 3.0648 2.863 8.3517 3.4452 13.671 0.52216 4.7706 0.82013 52.033 0.66215 105.03-0.33104 111.05 1.0621 99.486-11.958 99.235-4.1412-0.0799-8.7295-0.35272-10.196-0.60626zm-117.87-3.83c-2.3467-1.2935-8.0474-4.8712-12.668-7.9506-15.328-10.215-24.512-11.219-41.458-4.5346-11.977 4.7241-15.753 5.3008-15.717 2.4 0.03246-2.5865 3.4556-9.6653 6.8281-14.12 1.5489-2.0459 3.515-6.0729 4.3691-8.949 2.0446-6.8848 15.626-29.596 19.799-33.107 5.4045-4.5476 7.693-4.5601 13.802-0.0755 9.8061 7.1984 15.242 16.738 19.744 34.651 0.9585 3.8133 3.2914 9.3333 5.1841 12.267 3.518 5.452 9.1919 18.134 9.1863 20.533-4e-3 2.0354-4.3159 1.5055-9.0697-1.1149zm-96.533-7.6881c-2.64-0.80164-10.8-3.4653-18.133-5.9192-7.3333-2.454-13.933-4.6303-14.667-4.8363-0.99248-0.27879-1.3319-4.5415-1.3277-16.675 0.00474-13.733 0.29871-16.735 1.8667-19.061 1.0236-1.5184 3.9166-5.8169 6.429-9.5523 2.5124-3.7354 4.8495-8.0131 5.1936-9.506 1.9453-8.4406 6.6447-9.6091 15.278-3.7991 7.0022 4.7121 16.556 7.6752 31.76 9.8497 6.6 0.94398 12 2.0906 12 2.548 0 0.45744-0.96298 2.4638-2.14 4.4587-1.177 1.9948-3.3259 7.1139-4.7755 11.376-1.4495 4.2618-4.0866 9.9394-5.86 12.617-2.586 3.9041-3.2371 6.0465-3.2879 10.819-0.03527 3.3102-1.1003 8.7902-2.4002 12.35l-2.3368 6.4-6.3998 0.19393c-3.5199 0.10665-8.5598-0.46196-11.2-1.2636zm5.3333-229.94c-6.7467-0.38815-12.387-0.76888-12.533-0.84606-0.14667-0.07718-0.26667-0.848-0.26667-1.7129 0-1.8894 2.3895-3.1676 22.303-11.931l15.37-6.7635h122.5c82.964 0 122.5 0.35293 122.5 1.0936 0 1.1465-10.53 6.2558-25.211 12.233-12.801 5.2119-23.033 7.0004-43.056 7.5258-31.128 0.81674-188.92 1.1301-201.6 0.40035zm39.505-27.05c2.5841-2.532 30.699-14.507 39.11-16.658 4.4205-1.1306 15.394-2.485 25.147-3.1038 19.013-1.2063 206.27-1.4064 214.09-0.22874 5.3782 0.81013 6.7217 3.0962 3.1322 5.3297-1.2452 0.7748-9.9952 4.7348-19.444 8.8l-17.18 7.3913h-123.21c-107.04 0-123-0.2008-121.65-1.5304z" fill="#f7b98a"/>
  <path d="m286.39 318.23c-4.723-7.3629-4.9536-13.307-5.1053-131.59-0.13676-106.67 0.0149-110.34 4.9653-120.11 3.4398-6.7882 7.1019-9.1059 27.787-17.587 9.3276-3.8242 24.282-10.335 33.232-14.469 21.995-10.159 25.243-10.096 28.692 0.55629 1.5714 4.8541 1.8723 16.797 2.6641 105.74 1.1125 124.96 0.59459 134.47-7.8453 144.08-3.8996 4.4414-8.0953 6.6722-27.517 14.63-7.92 3.2452-21.36 9.1392-29.867 13.098-17.984 8.3689-24.4 9.7106-27.006 5.6474zm-31.66-15.971c-3.2267-0.54485-11.204-2.1825-17.728-3.6392-9.9874-2.23-14.623-2.6484-29.333-2.6477-19.42 9.8e-4 -37.164 1.4011-47.083 3.7152-4.2994 1.003-6.9747 1.1705-7.7968 0.48824-2.7091-2.2483-7.9248-20.609-7.9248-27.897 0-1.8352-1.3889-5.5099-3.1046-8.2142-4.3747-6.8952-7.562-20.976-7.562-33.407v-5.8676l16.267-0.55841c18.861-0.64747 27.013-2.6875 36.277-9.0783 7.9883-5.511 21.384-20.031 24.01-26.026 2.5704-5.8668 4.52-7.2763 15.174-10.97 5.93-2.0561 9.1276-2.602 12.383-2.1138 3.9643 0.59447 4.4535 0.41644 5.0578-1.8404 1.0565-3.9461 0.82576-6.1738-1.0487-10.124-2.2804-4.8056-7.9424-7.6345-17.776-8.8812-4.2711-0.54153-9.9058-1.4499-12.522-2.0185-4.8604-1.0566-11.411-1.6238-15.676-1.3573-3.0297 0.18926-7.1287 6.52-11.117 17.169-3.2655 8.7196-9.0602 17.848-13.932 21.947-3.7317 3.14-9.6971 3.4798-17.058 0.97157-4.7433-1.6162-16.998-11.434-37.203-29.806-4.5165-4.1067-9.5824-8.6692-11.258-10.139-1.6752-1.4698-4.6142-4.9758-6.5312-7.7911-3.8861-5.7072-11.993-10.308-18.197-10.326-3.7668-0.0111-9.7846 4.7638-9.7846 7.7637 0 0.84601-0.99484 2.8029-2.2108 4.3487-1.9298 2.4533-2.9804 2.8075-8.2667 2.7871-6.2733-0.0242-12.955-2.3833-18.008-6.3578-3.0027-2.3619-6.789-2.7584-9.9887-1.046-1.1368 0.60839-4.7023 4.8672-7.9234 9.464-3.2211 4.5968-6.4594 8.831-7.1963 9.4093-2.202 1.7281-11.656 4.5668-12.818 3.8487-0.71722-0.44328-0.81603-12.478-0.29503-35.936 0.87121-39.226 1.0823-40.471 8.3346-49.147 2.46-2.9429 6.4953-5.9872 10.643-8.029l6.6804-3.2887 220.78 0.57246 4.8614 2.858c6.9532 4.0877 13.16 11.293 15.795 18.335 2.2672 6.0595 2.2773 6.5436 2.2773 108.32 0 80.498-0.28343 102.46-1.3333 103.31-2.0688 1.6723-11.379 2.3-17.867 1.2044zm-116.99-2.5133c-1.8656-0.81145-6.9056-3.842-11.2-6.7346-9.9395-6.6949-13.987-8.7623-20.608-10.527-7.3255-1.952-11.792-1.7549-18.667 0.82376-16.258 6.0984-20.608 7.4147-21.514 6.5095-1.3341-1.334 0.53031-5.8816 5.6338-13.742 2.3433-3.6091 4.7591-8.4091 5.3684-10.667 1.61-5.9651 15.328-28.497 19.673-32.311 2.0421-1.793 4.8531-3.26 6.2467-3.26 2.9348 0 11.97 6.8114 15.941 12.017 3.1155 4.0846 7.5023 15.016 10.302 25.672 1.0534 4.0088 3.1658 9.0932 4.6941 11.299 3.2128 4.6361 9.0503 17.869 9.0927 20.613 0.0342 2.2152-0.50155 2.2484-4.9632 0.30779zm-98.646-8.9938c-3.9078-1.0074-10.388-3.1137-14.4-4.6806-4.0122-1.567-9.9919-3.5962-13.288-4.5094l-5.9931-1.6604-0.67353-4.9139c-1.0098-7.3676-0.8108-24.383 0.32002-27.357 0.54645-1.4373 3.3823-5.9085 6.3019-9.9361 2.9196-4.0276 5.9183-9.3958 6.6639-11.929 1.36-4.6216 4.2828-7.6602 7.3683-7.6602 0.90913 0 3.3774 1.4214 5.485 3.1587 2.1076 1.7373 6.286 4.1259 9.2854 5.3082 6.3769 2.5136 24.964 6.4665 30.407 6.4665 2.0732 0 4.055 0.462 4.404 1.0267 0.34898 0.56467-0.51631 3.3247-1.9229 6.1333-1.4066 2.8087-3.3996 7.7467-4.4288 10.973-1.0293 3.2267-3.3327 8.1888-5.1187 11.027-2.4153 3.8382-3.2028 6.2945-3.0738 9.5878 0.16948 4.3252-3.3367 16.998-5.437 19.652-1.4162 1.7893-7.2779 1.5364-15.899-0.68606zm-3.8926-230.22c-7.0528-0.86889-3.6138-3.6735 14.743-12.024l17.588-8h121.87c77.15 0 121.9 0.37605 121.97 1.0249 0.14851 1.5273-27.03 13.257-36.082 15.572-4.3228 1.1056-14.675 2.4988-23.005 3.0961-14.25 1.0216-209.06 1.3183-217.08 0.33057zm49.392-25.899c-0.36552-0.59142 1.4062-1.9802 3.937-3.0861 2.5309-1.1059 7.9616-3.5531 12.068-5.4381 18.117-8.3162 28.025-10.502 53.333-11.768 21.894-1.0946 197.76-1.2137 205.85-0.13945 11.084 1.4718 7.3724 4.22-23.133 17.129l-10.346 4.3778h-120.52c-79.844 0-120.75-0.36294-121.19-1.0753z" fill="#f6a75e"/>
  <path d="m289.65 319.66c-2.9569-0.61124-5.0778-5.9799-6.1147-15.478-0.52533-4.812-1.0807-56.509-1.2341-114.88-0.25682-97.705-0.13216-106.72 1.5698-113.52 3.5329-14.113 5.5163-15.774 31.745-26.582 9.0466-3.728 23.275-9.9461 31.619-13.818 18.118-8.4074 21.616-9.294 24.66-6.25 2.519 2.519 4.4215 8.6315 4.4299 14.233 3e-3 2.1618 0.45335 5.1073 1.0002 6.5456 1.476 3.8821 1.906 213.43 0.4418 215.28-0.62963 0.79506-1.463 3.5296-1.852 6.0768-0.97289 6.371-4.1352 12.169-8.6812 15.916-2.1042 1.7344-10.158 5.7073-17.898 8.8287-7.7396 3.1214-22.712 9.606-33.272 14.41-19.079 8.6802-22.811 9.9856-26.414 9.2407zm-38.119-18.787c-3.8133-0.75821-11.973-2.4854-18.133-3.8381-10.983-2.4118-11.728-2.4368-38.4-1.2887-18.77 0.80797-29.321 1.7284-34.045 2.9698-6.5943 1.7332-6.8984 1.7256-8.3151-0.20854-2.2061-3.0118-5.5348-14.88-6.6116-23.574-0.59554-4.8079-1.7283-8.6841-3.0163-10.322-1.1344-1.4422-2.8077-4.6975-3.7184-7.234-2.166-6.0328-4.3299-21.464-3.8627-27.545l0.36874-4.8 14.933-0.10069c16.087-0.10845 21.031-1.1028 32.139-6.4633 7.4761-3.6078 25.592-21.677 28.128-28.055 2.4138-6.0715 3.6794-7.1039 13.137-10.716 7.1867-2.7444 9.6043-3.2058 13.784-2.6309 5.8504 0.80463 6.6914-0.17443 6.5584-7.6351-0.15835-8.8875-6.4687-13.464-21.128-15.322-4.213-0.53415-9.7957-1.4634-12.406-2.0649-2.6102-0.60154-7.4711-1.1055-10.802-1.1198-5.1191-0.0221-6.3638 0.36525-8.0458 2.5036-2.5205 3.2043-6.0309 10.368-8.3668 17.074-2.1811 6.2617-9.4932 17.211-13.48 20.186-3.6835 2.7482-10.746 2.726-17.01-0.0535-5.2514-2.3306-18.464-13.445-48.187-40.536-0.48297-0.44019-2.643-3.2004-4.8-6.1337-4.3547-5.922-13.207-11.107-19.062-11.166-4.3217-0.0434-8.3987 3.401-11.38 9.6141-2.2006 4.5865-2.4652 4.7637-7.6131 5.0971-6.5489 0.42411-11.918-1.0949-18.4-5.2055-2.7231-1.7269-6.0495-3.1398-7.3921-3.1398-3.2734 0-7.8155 4.3262-13.939 13.276-4.4103 6.4463-5.7627 7.6493-10.403 9.2539-2.9333 1.0144-5.7386 1.4508-6.234 0.96976-0.49536-0.48103-0.70736-16.405-0.47111-35.387 0.40488-32.531 0.56118-34.803 2.722-39.562 2.8797-6.3429 9.8794-13.352 16.795-16.817l5.3216-2.6667h217.6l4.9306 2.2798c7.3128 3.3813 13.664 9.6652 17.102 16.92l3.0326 6.4 8.4e-4 103.14c5.9e-4 71.98-0.34326 103.35-1.1383 103.84-2.2373 1.3827-13.379 1.4167-20.194 0.0615zm-115.73-3.0879c-2.3467-1.2935-8.0474-4.8712-12.668-7.9505-13.804-9.1992-24.757-11.451-35.865-7.3745-16.123 5.9169-20.415 7.3134-20.922 6.8066-0.83445-0.83445 2.3243-7.7072 5.9932-13.04 1.8277-2.6564 4.2075-7.4006 5.2885-10.543 2.6412-7.6768 15.296-28.635 19.349-32.046 4.3354-3.648 7.1819-3.4532 12.857 0.88019 8.8215 6.7357 12.626 13.438 17.547 30.915 1.5074 5.3528 4.0907 11.664 5.7408 14.025 3.0635 4.3838 8.5459 16.802 8.5459 19.357 0 1.8899-0.83072 1.7437-5.8667-1.0321zm-98.667-8.6315c-11.379-3.5295-29.171-9.6978-30.702-10.644-1.753-1.0834-1.802-28.669-0.056735-31.946 0.68247-1.2814 3.1313-4.8382 5.4418-7.9038 2.3105-3.0657 5.3204-8.3457 6.6886-11.733 3.3131-8.2035 6.1272-9.3685 11.86-4.91 6.9047 5.3694 17.616 8.8768 34.088 11.163 5.214 0.7235 9.6354 1.4222 9.8253 1.5526 0.18993 0.13044-0.46993 1.8137-1.4663 3.7406-0.99642 1.9269-2.9474 6.8426-4.3355 10.924-1.3881 4.0812-3.9683 9.6713-5.7337 12.422-2.5192 3.9258-3.2234 6.2442-3.2732 10.775-0.03487 3.1753-1.1149 8.6533-2.4 12.173l-2.3366 6.4-4.8 0.23417c-2.6739 0.13045-8.3436-0.86495-12.8-2.2472zm-2.4-229.63c-1.0267-0.28331-1.8667-0.88287-1.8667-1.3324 0-0.94851 0.81707-1.3483 21.206-10.376l15.34-6.7923 241.32 0.54242-8.5333 4.1181c-4.6933 2.265-12.373 5.5553-17.067 7.3118-17.916 6.7053-13.723 6.497-136.53 6.783-61.6 0.14346-112.84 0.029038-113.87-0.25428zm51.467-25.452c0-0.75921 14.474-7.3788 25.6-11.708 4.9867-1.9404 12.907-4.0881 17.6-4.7727 4.6933-0.68454 9.9733-1.6607 11.733-2.1693 1.76-0.50857 52.262-1.0742 112.23-1.2571 100.23-0.30556 109.17-0.19017 110.79 1.4302 2.1759 2.1739 3.3103 1.5106-19.709 11.523l-17.275 7.5143h-120.48c-66.266 0-120.48-0.25212-120.48-0.56026z" fill="#f4902d"/>
  <path d="m289.1 317.78c-1.2584-0.88141-2.849-3.3884-3.5348-5.5711-1.6436-5.2316-3.4494-199.09-2.0541-220.5 1.0676-16.386 2.0314-20.857 5.6545-26.233 3.4445-5.1112 7.381-7.4376 23.396-13.827 7.7921-3.1085 22.227-9.3887 32.079-13.956 20.083-9.3112 24.09-10.498 26.685-7.9027 4.1491 4.1491 4.3297 7.343 4.978 88.052l0.62978 78.4 0.47806-70.933 0.47805-70.933 0.55355 91.2c0.50641 83.436 0.0302 135.42-1.0064 109.87l-0.36775-9.0667-0.77052 11.733c-0.91282 13.9-1.5162 16.664-4.9536 22.69-3.3596 5.8899-7.0901 8.1461-26.482 16.016-8.8 3.5713-23.2 9.8123-32 13.869-18.864 8.6961-20.699 9.244-23.762 7.098zm-35.438-17.194c-1.4667-0.23675-7.9467-1.6989-14.4-3.2492-11.097-2.6657-13.036-2.8064-35.733-2.5917-16.269 0.15389-27.264 0.78337-34.133 1.9542-16.709 2.848-16.114 2.9913-18.809-4.5263-1.275-3.557-2.8884-10.277-3.5853-14.933-0.78632-5.2539-2.4592-10.771-4.4091-14.54-3.3457-6.4672-5.9166-18.457-6.3765-29.737l-0.27954-6.8563 13.796-0.0725c24.188-0.12717 33.515-3.8094 49.525-19.553 7.3586-7.2361 11.269-11.992 12.804-15.573 1.2153-2.8352 3.0326-5.7672 4.0385-6.5154 4.2259-3.1436 14.777-6.2112 21.491-6.2482l6.8624-0.0379 0.95261-3.6641c1.3-5.0003 0.17584-10.034-3.1142-13.944-3.3178-3.943-7.7038-5.902-15.4-6.8786-3.1696-0.40219-10.668-1.6498-16.663-2.7724-13.117-2.4561-17.582-1.578-20.578 4.0468-1.0122 1.9002-2.3346 4.0602-2.9386 4.8-0.60405 0.73986-1.8231 3.8037-2.709 6.8085-2.5676 8.7088-7.1959 16.307-14.2 23.31-3.8039 3.8039-16.648 1.0091-24.019-5.2263-24.356-20.604-39.702-34.832-46.789-43.379-4.1914-5.0554-12.559-9.4749-17.969-9.4907-4.7193-0.0138-9.142 3.279-11.152 8.3029-2.4556 6.1372-4.0386 7.0046-11.541 6.3243-4.7477-0.4305-7.9584-1.5009-11.956-3.9861-8.1194-5.0473-11.257-5.2319-16.135-0.94936-2.2098 1.9402-6.1159 6.7124-8.6803 10.605-3.8039 5.774-5.4254 7.3059-8.8048 8.3184-2.2782 0.68257-4.7419 1.241-5.4749 1.241-1.7019 0-0.57549-65.61 1.2301-71.649 1.7112-5.7238 9.9504-14.6 16.295-17.554l5.3887-2.5093 218.43-0.02084 4.7866 2.3905c6.7115 3.3519 12.832 9.6473 15.659 16.107l2.4082 5.5023 0.69919 102.62c0.68746 100.9 0.66437 102.64-1.3733 103.73-1.9926 1.0664-11.598 1.2838-17.146 0.3882zm-126.95-9.3794c-19.693-13.068-28.57-14.423-46.54-7.1075-10.491 4.271-13.173 5.049-13.173 3.8216 0-1.2537 3.6393-7.6385 6.9617-12.214 1.9171-2.64 4.0018-6.7223 4.6327-9.0719s3.8002-8.7618 7.043-14.25c3.2428-5.4877 5.896-10.286 5.896-10.662s1.8645-2.7241 4.1434-5.2172c2.808-3.072 5.023-4.5329 6.8725-4.5329 3.7945 0 14.773 10.367 17.803 16.811 2.4242 5.1562 6.6825 17.81 7.9772 23.705 0.39487 1.7978 1.9236 4.7015 3.3971 6.4527 3.7421 4.4472 10.32 20.232 8.4308 20.232-0.79098 0-6.841-3.5852-13.445-7.967zm-87.114-1.9855c-2.4571-0.68611-10.989-3.4075-18.96-6.0475l-14.493-4.8 0.58721-31.12 4.4194-5.7734c5.7602-7.525 8.905-12.815 8.9099-14.989 0.0022-0.96167 0.9076-2.8644 2.012-4.2283 2.2285-2.7521 3.5477-2.4174 10.471 2.657 4.4505 3.2618 18.696 7.6296 30.481 9.3456 7.6952 1.1206 9.2402 1.6545 8.6861 3.0019-0.37065 0.9014-2.36 6.1421-4.4209 11.646-2.0608 5.5039-4.8896 11.691-6.2861 13.749-1.93 2.844-2.5392 5.181-2.5392 9.7412 0 3.3429-0.94465 8.584-2.1333 11.836-1.1733 3.2101-2.1333 5.9633-2.1333 6.1183 0 0.78366-10.709-0.0506-14.601-1.1374zm-3.9603-230.94c-0.34375-0.5562 4.0519-3.0472 9.7681-5.5355 5.7162-2.4883 13.459-5.8992 17.207-7.5798l6.8142-3.0555 238.1 0.04942-9.6 4.3791c-11.948 5.4503-19.227 8.0321-28.8 10.216-6.517 1.4865-21.802 1.7562-120.17 2.1205-70.345 0.26048-112.94 0.037263-113.33-0.59394zm62.294-29.086c18.98-9.0505 33.425-12.44 54.905-12.883l9.628-0.19872-9.0667-0.6266c-11.811-0.81626 177.4-1.8269 196.27-1.0484 7.92 0.32684 12.72 0.75003 10.667 0.94042l-3.7333 0.34616 3.7333 0.68844c4.6656 0.86036 4.9476 0.69106-16.845 10.112l-16.312 7.0518-238.31-0.0587z" fill="#f48b1c"/>
  <path d="m253.67 300.58c-1.4667-0.23675-7.9467-1.6989-14.4-3.2492-11.097-2.6657-13.036-2.8064-35.733-2.5917-16.269 0.15389-27.264 0.78337-34.133 1.9542-16.709 2.848-16.114 2.9913-18.809-4.5263-1.275-3.557-2.8884-10.277-3.5853-14.933-0.78632-5.2539-2.4592-10.771-4.4091-14.54-3.3457-6.4672-5.9166-18.457-6.3765-29.737l-0.27954-6.8563 13.796-0.0725c24.204-0.12724 33.511-3.8059 49.56-19.588 7.0023-6.8858 11.377-12.143 12.821-15.407 1.2056-2.7255 3.2473-5.634 4.5371-6.4634 4.857-3.1232 15.151-5.9359 21.725-5.9359h6.6535l1.1108-4c0.61097-2.2 1.1135-5.095 1.1168-6.4334 5e-3 -2.1169 0.49159-2.4007 3.7393-2.182 2.2163 0.14926 3.7333 0.813 3.7333 1.6334 0 0.89938 1.4783 1.382 4.2332 1.382 3.3246 0 4.1014-0.34341 3.6192-1.6-0.449-1.1701 0.13323-1.6 2.1668-1.6 1.5294 0 2.7808 0.42402 2.7808 0.94226s0.88085 1.1726 1.9574 1.4541c1.8455 0.48263 1.998 3.0907 2.6667 45.633 0.39009 24.816 0.70925 54.145 0.70925 65.175 0 18.735-0.13569 20.127-2.0632 21.158-1.9849 1.0623-11.598 1.2772-17.137 0.38321zm-126.95-9.3794c-19.693-13.068-28.57-14.423-46.54-7.1075-10.491 4.271-13.173 5.049-13.173 3.8216 0-1.2232 3.6089-7.5992 6.913-12.214 1.8903-2.64 3.9976-6.4586 4.6829-8.4858 3.0041-8.8869 1.9893-8.5383 24.604-8.4518l20.184 0.0772 1.7897 4.4302c0.98436 2.4366 2.4282 6.5277 3.2086 9.0913 0.78038 2.5636 2.4211 5.7278 3.646 7.0317 3.2497 3.4591 9.9564 19.774 8.1287 19.774-0.79098 0-6.841-3.5852-13.445-7.967zm-87.114-1.9855c-2.4571-0.68611-11.013-3.4075-19.012-6.0475l-14.545-4.8 0.42798-14.127c0.23539-7.7697 0.79086-14.49 1.2344-14.933s13.726-0.92264 29.518-1.0645c27.276-0.2451 28.711-0.15975 28.711 1.7075 0 3.014-2.2239 8.7225-4.9806 12.785-1.8747 2.7626-2.4861 5.1387-2.4861 9.6629 0 3.3429-0.94465 8.584-2.1333 11.836-1.1733 3.2101-2.1333 5.9633-2.1333 6.1183 0 0.78366-10.709-0.0506-14.601-1.1374zm113.55-100.19c-5.4869-2.592-22.488-18.435-21.847-20.359 0.44146-1.3244 15.698-3.9386 15.698-2.6899 0 0.43738 1.68 0.5226 3.7333 0.1894 2.9882-0.48492 3.7333-0.25864 3.7333 1.1337 0 0.95675 0.48 1.7396 1.0667 1.7396 0.58666 0 1.0667-0.72 1.0667-1.6 0-0.90727 0.95662-1.6 2.2095-1.6 1.2152 0 2.9295 0.72 3.8095 1.6s2.4744 1.6 3.543 1.6 2.2193-0.72 2.557-1.6c0.74341-1.9373 4.5251-2.1243 5.392-0.26667 0.49777 1.0667 0.74666 1.0667 1.2444 0 0.34223-0.73333 2.0222-1.3333 3.7333-1.3333 2.5531 0 3.1111 0.44892 3.1111 2.5028 0 4.2102-4.9724 12.849-11.606 20.164-3.418 3.7691-10.143 3.9694-17.446 0.5196zm-51.429-160.72c1.9035-1.8886 16.369-7.5329 23.631-9.2204 3.9871-0.92655 13.969-2.0529 22.183-2.503 14.232-0.77992 14.508-0.83659 5.8667-1.2073-4.9867-0.21394 32.933-0.64584 84.267-0.95977 93.473-0.57164 129.77-0.24458 122.67 1.1054l-3.7333 0.70968 3.5296 0.14042c1.9413 0.07723 3.2547 0.5852 2.9188 1.1288-0.33597 0.54362-6.7942 3.4236-14.352 6.4l-13.741 5.4116h-117.12c-73.331 0-116.75-0.37593-116.11-1.0054z" fill="#f1771f"/>
 </g>
</svg>
