<?xml version="1.0" encoding="UTF-8" standalone="no"?>
<svg xmlns="http://www.w3.org/2000/svg" version="1.0" viewBox="0 0 24 24">
    <g transform="matrix(0.10912026,0,0,0.10912067,1.1062575,1.1738116)">
        <path transform="translate(-0.0017105,9.8264e-4)" d="m 10.22671,18.549017 c 3e-5,17.310484 -7.6e-5,34.620968 -1.48e-4,51.931452 2.335101,-0.84435 5.693594,-5.813285 6.746094,-7.021485 1.8413,-2.1128 2.174697,-4.806606 3.091797,-6.503906 2.0886,-3.8658 2.447613,-6.52539 7.195313,-6.52539 2.213,0 3.092743,0.510751 4.589843,2.519531 1.0415,1.3969 2.839541,3.977525 3.681641,5.703125 0.97195,1.9908 2.555553,4.684615 3.251953,5.228515 0.5157,0.4038 1.028559,0.705566 1.505859,0.884766 0.770041,0.28876 1.406976,-0.240331 1.921876,-0.650391 0.657339,-0.52353 0.940008,-1.590972 1.548828,-3.013672 0.87724,-2.052599 1.833153,-4.51074 2.376953,-5.36914 0.94142,-1.4837 1.262797,-3.244756 2.279297,-4.097656 1.4993,-1.2575 3.45574,-1.346725 3.99414,-1.453125 3.012,-0.59474 4.381535,1.45209 5.865235,2.77539 0.97112,0.86704 2.298034,2.614478 3.240234,4.955078 0.73638,1.828 1.674206,3.518519 2.066406,4.574219 0.37875,1.0189 1.313188,2.651375 1.867188,4.609375 0.50318,1.7779 1.851581,3.141228 2.363281,3.986328 0,0 0.783535,2.193519 5.546875,4.199219 1.0329,0.43509 3.119434,1.142603 4.365234,1.595703 2.0698,0.75202 4.074254,0.653636 6.626953,0.347656 1.8202,0 2.807566,-2.635493 3.634766,-4.746093 0.4891,-1.2474 0.958114,-4.821038 1.277344,-5.835938 0.3091,-0.98756 -0.414698,-1.751687 0.201172,-2.617187 0.71994,-1.0102 1.148953,-1.065813 1.564453,-2.382813 0.89292,-2.8203 6.052525,-2.962891 8.953125,-2.96289 2.418098,0 2.110788,2.347921 6.212888,1.544921 2.3492,-0.46092 4.61342,0.302391 7.10742,0.962891 2.1004,0.55717 4.07452,1.193025 5.25782,2.578125 0.76532,0.89681 2.66457,5.390331 0.72851,5.582031 0.18624,0.22772 0.32365,0.637921 0.67188,0.863282 -0.43118,1.694999 -2.30927,0.487081 -3.35156,0.269531 -1.40471,-0.29111 -2.39544,0.0443 -3.76954,0.652343 -2.3492,1.046301 -5.78603,0.924527 -7.83203,2.628907 -1.7365,1.4446 -1.73307,4.669562 -2.54297,6.476562 -7.6e-4,-7.62e-4 -2.2494,5.786472 -7.158199,9.326172 h 0.0039 c -1.2575,0.90777 -3.7163,3.090316 -9.0625,3.916016 -2.3993,0.37093 -4.643922,0.402157 -7.107422,0.279297 -1.2059,-0.05791 -2.341681,-0.121069 -3.550781,-0.136719 -0.71212,-0.0055 -3.102475,-0.08006 -2.984375,0.148437 l -0.265625,0.664063 c 0.04147,0.21833 0.128084,0.762291 0.152344,0.894531 0.09782,0.53605 0.126134,0.963941 0.146484,1.457031 0.03678,1.0134 -0.08485,2.068997 -0.0332,3.091797 0.10721,2.121504 0.89479,4.055114 0.99414,6.195314 0.10878,2.3828 1.287635,4.90341 2.427735,6.84961 0.43275,0.74106 1.091706,0.82589 1.378906,1.73828 0.33649,1.0455 0.01809,2.15513 0.181641,3.26953 0.64169,4.3204 1.884778,8.83663 3.830078,12.73633 0.01408,0.0329 0.02966,0.0679 0.04687,0.0977 2.4024,-0.40379 4.81004,-1.26876 7.93164,-1.73046 5.7235,-0.84907 13.682924,-0.41169 18.794924,-0.89063 12.938,-1.216 19.96007,5.30797 31.58007,2.63477 7e-5,-37.410111 2.4e-4,-74.820222 2.4e-4,-112.230333 -44.408653,3.6e-5 -91.170406,2e-6 -129.545,0 z m 10.456884,72.083795 c -0.09885,-0.0045 -0.198316,9.97e-4 -0.298828,0.01758 -1.0267,0.16747 -2.025463,0.519397 -2.664063,1.554687 -0.52117,0.84435 -0.697824,2.296031 -1.058594,3.269531 -0.41866,1.13 -1.14229,2.184919 -1.77539,3.261719 -1.1644,1.975101 -3.261063,3.761241 -4.164063,5.685551 -0.18155,0.39597 -0.341157,0.83905 -0.492187,1.30078 v 22 c 1.0533,0.17999 2.153418,0.40102 3.386719,0.73046 9.1021,2.42831 11.323,2.63449 20.25,1.61329 l 0.83789,-0.11133 c 0.68316,-1.4211 1.211397,-6.26312 1.654297,-7.76172 0.3451,-1.1487 0.818067,-2.06528 0.998047,-3.23828 0.16981,-1.1143 -0.01586,-2.1749 -0.111328,-3.1875 -0.25041,-2.537 1.848009,-3.44445 2.849609,-5.62305 0.90305,-1.9712 1.424475,-4.21341 2.171875,-6.22851 0.71681,-1.9337 1.835541,-4.667028 3.744141,-5.640628 -0.23164,-0.26998 -3.985882,-0.393981 -4.988281,-0.494141 C 39.906037,97.667781 38.86665,97.541387 37.78125,97.322267 35.75445,96.913777 33.541222,96.5152 31.544922,96.03711 30.332722,95.74366 26.295169,94.313157 25.417969,93.910157 23.48925,93.021003 22.16635,90.7008 20.683594,90.632812 Z m 37.111328,5.375 c -4.7931,0.957031 -6.280956,5.658418 -8.535156,9.382808 -1.2474,2.05961 -2.567882,3.81086 -3.550782,6.00196 -0.90777,2.0151 -0.828652,4.24636 -2.382812,5.97656 -1.5941,1.7764 -2.629156,3.66564 -3.410156,5.96094 -0.1479,0.43666 -0.568401,5.02086 -1.025391,6.10156 l 7.123047,-0.50195 c 6.6384,0.45231 4.721131,2.99746 15.082031,2.44336 l 16.359375,-0.50586 c -0.50709,-1.4994 -1.205409,-3.23668 -1.474609,-3.80078 -0.45622,-0.95002 -1.031003,-2.80986 -1.408203,-3.62696 -0.35919,-0.76532 -1.450347,-2.75788 -1.998047,-3.39648 -1.1895,-1.3921 -1.466606,-1.49631 -1.816407,-3.25391 -0.60804,-3.0605 -2.218434,-8.6114 -4.115234,-12.4414 -0.97972,-1.9767 -2.608109,-3.63857 -4.099609,-5.072269 -1.3022,-1.2575 -4.236247,-3.372479 -4.748047,-3.267579 z M 152.78555,51.576674 v 18.328333 h 18.3284 V 161.54667 H 79.471944 V 143.21834 H 61.143542 v 36.65667 H 189.44236 V 51.576674 Z" fill="#f57c00" />
    </g>
</svg>