<svg data-name="Layer 1" version="1.1" viewBox="0 0 32 32" xmlns="http://www.w3.org/2000/svg">
 <defs>
  <style>.cls-1 {
        fill: #FAFAFA;
      }

      .cls-2 {
        fill: #FFD600;
      }

      .cls-3 {
        fill: #FFCA28;
      }

      .cls-4, .cls-5 {
        fill: #263238;
      }

      .cls-5 {
        fill-rule: evenodd;
      }</style>
 </defs>
 <g stroke-width=".65697">
  <path class="cls-5" d="m16.875 2.2407c-0.54359-0.32094-1.2073-0.32094-1.7509 0l-8.9755 5.3262s-0.012641 0.00691-0.018963 0.013653l-1.182 0.70333c-0.58783 0.34142-0.94812 1.0038-0.94812 1.7208v11.984c0 0.717 0.36028 1.3793 0.9418 1.7276l9.064 5.3808s0.02528 0.01364 0.03792 0.02056l1.0809 0.64187c0.54359 0.32094 1.2073 0.32094 1.7509 0l1.0872-0.64187s0.01896-0.01363 0.0316-0.02056l9.064-5.3808c0.58151-0.34824 0.9418-1.0038 0.9418-1.7208v-11.991c0-0.71698-0.36028-1.3793-0.9418-1.7208l-1.1757-0.6965s-0.01897-0.013652-0.02529-0.013652zm0.57519 13.759 8.4003-4.9848s0.01897-0.01363 0.02528-0.01363l0.10113-0.06145c0.27812-0.16389 0.61944 0.05462 0.61944 0.39605v9.3276c0 0.34141-0.34132 0.55993-0.61944 0.39604l-0.07585-0.04781s-0.0316-0.02055-0.05057-0.02727zm-11.327-5.0052s0.012641 0.0073 0.018962 0.01363l8.4003 4.9847-8.394 4.9916s-0.031603 0.02056-0.044244 0.02726l-0.08217 0.04782c-0.27812 0.1639-0.61944-0.05463-0.61944-0.39603v-9.3344c0-0.34143 0.34132-0.55994 0.61944-0.39605l0.10745 0.06145zm19.063-2.0963-7.8694-4.6706c-0.27811-0.16388-0.61312 0.0478-0.61944 0.38239v10.113l8.4888-5.0394c0.27179-0.17754 0.27179-0.6009 0-0.77844zm-18.381 0.77844 8.4888 5.0394v-10.106c-0.00632-0.33459-0.34764-0.54627-0.61944-0.38239l-7.8694 4.6706c-0.27811 0.17754-0.27811 0.60773 0 0.77844zm0.012641 13.425c-0.28444-0.1707-0.29076-0.6009-0.018962-0.77844l8.5014-5.0462v10.113c-0.0063 0.32777-0.335 0.53945-0.6068 0.39605l-7.8757-4.6775zm9.8794 4.2678v-10.099l8.5014 5.0462c0.26547 0.18436 0.25915 0.61456-0.02528 0.77844l-7.8694 4.6775c-0.27179 0.15022-0.59415-0.06145-0.6068-0.38922z"/>
  <path class="cls-3" d="m15.795 3.5586c0.12642-0.075118 0.27812-0.075118 0.40453 0l8.9755 5.333c0.29076 0.17071 0.29076 0.62139 0 0.7921l-8.9755 5.333c-0.12642 0.07508-0.27812 0.07508-0.40453 0l-8.9755-5.333c-0.29076-0.17071-0.29076-0.62139 0-0.7921z"/>
  <path class="cls-2" d="m5.3969 11.329c0-0.34143 0.34132-0.55993 0.61944-0.39605l9.064 5.3808c0.13274 0.08199 0.21491 0.23217 0.21491 0.39605v10.659c0 0.34142-0.34132 0.55994-0.61944 0.39605l-9.0577-5.374c-0.13274-0.081947-0.21491-0.23216-0.21491-0.39605v-10.666z"/>
  <path class="cls-1" d="m25.977 10.933c0.27812-0.16388 0.61944 0.05461 0.61944 0.39605v10.659c0 0.16388-0.08217 0.32094-0.21491 0.39605l-9.064 5.3808c-0.27811 0.16389-0.61944-0.05465-0.61944-0.39605v-10.659c0-0.16388 0.08217-0.32093 0.21491-0.39605z"/>
  <path class="cls-4" d="m9.202 19.694v0.01363l-2.1238-1.2086v-0.01363c0.050566-0.71699 0.56255-1.0243 1.1504-0.68966 0.58783 0.33459 1.024 1.1813 0.9734 1.8983z"/>
  <path class="cls-4" d="m12.546 21.777v0.01363l-2.1238-1.2086v-0.01364c0.05057-0.71698 0.56255-1.0243 1.1504-0.68967 0.58783 0.33459 1.024 1.1813 0.9734 1.8983z"/>
 </g>
</svg>
