<svg version="1.1" viewBox="0 0 24 24" xmlns="http://www.w3.org/2000/svg">
  <path d="m10.86 4.29h-0.36a8.95 8.95 0 0 0-1.11 0.12h-0.03a9.3 9.3 0 0 0-0.24 0.05l-0.09 0.02-0.15 0.03h-0.03a8.89 8.89 0 0 0-2.12 0.8l-0.13 0.07a9.92 9.92 0 0 0-0.16 0.09l-0.11 0.06h-0.01l-0.03 0.03 0.09 0.15 2.63 4.36 0.15-0.09a3.98 3.98 0 0 1 0.16-0.08 3.59 3.59 0 0 1 1.18-0.33 3.7 3.7 0 0 1 0.36-0.02v-5.25zm-4.88 1.46-0.37 0.25a8.95 8.95 0 0 0-0.76 0.63l3.74 3.74 0.12-0.1-0.01-0.02zm8.47 7.4-0.01 0.17-0.01 0.18a3.57 3.57 0 0 1-0.8 1.92l-0.11 0.13c-0.04 0.04-0.08 0.1-0.13 0.13l3.73 3.73 0.24-0.26a8.94 8.94 0 0 0 0.76-0.94l0.03-0.03a9.77 9.77 0 0 0 0.15-0.23l0.03-0.06a8.83 8.83 0 0 0 1.37-4.39v-0.18l0.01-0.18h-5.26zm-12.45 0.35v0.08l0.01 0.15a8.07 8.07 0 0 0 0.02 0.23v0.04l0.02 0.19v0.02l0.03 0.2c0.06 0.42 0.15 0.84 0.27 1.25l0.07 0.2v0.01a9.46 9.46 0 0 0 0.06 0.19l0.02 0.04 0.05 0.15 0.03 0.07 0.04 0.12 0.04 0.1 0.04 0.09 0.05 0.12 0.04 0.07 0.06 0.14 0.1 0.2 0.01 0.03 0.1 0.17 0.02 0.04 4.5-2.71 0.03-0.01a3.58 3.58 0 0 1-0.33-1.18h-5.28zm5.78 1.5-4.51 2.7 0.21 0.34 0.01 0.01 0.01 0.02a0.7 0.7 0 0 0 0.02 0.03l0.24 0.34h0.01v0.01l0.11 0.15 0.02 0.02 0.12 0.14 0.02 0.03 0.11 0.13 0.05 0.06 0.1 0.1 0.05 0.06 0.02 0.02 0.07 0.08 0.03 0.03 0.12 0.13 3.73-3.73a3.64 3.64 0 0 1-0.13-0.13 3.56 3.56 0 0 1-0.11-0.13 3.48 3.48 0 0 1-0.1-0.13 3.64 3.64 0 0 1-0.1-0.14l-0.1-0.15zm4.93 1.22-0.16 0.08a3.6 3.6 0 0 1-1.7 0.43 3.59 3.59 0 0 1-1.03-0.15l-0.16-0.05a2.97 2.97 0 0 1-0.17-0.07l-1.87 4.54-0.07 0.18-0.07 0.15h0.02l0.01 0.01 0.14 0.05 0.17 0.07c0.03 0 0.05 0.02 0.08 0.03a8.9 8.9 0 0 0 1.8 0.43l0.16 0.02 0.14 0.02h0.04a8.66 8.66 0 0 0 0.38 0.03h0.44a8.88 8.88 0 0 0 1.47-0.11h0.02l0.15-0.04 0.1-0.01a9.86 9.86 0 0 0 0.23-0.05 8.92 8.92 0 0 0 2.15-0.8l0.14-0.08 0.15-0.08 0.1-0.06h0.01l0.01-0.01 0.04-0.02-0.1-0.15-0.09-0.16z" fill="#8bc34a"/>
  <path d="m11.21 4.3v5.27a3.67 3.67 0 0 1 0.8 0.17l3.89-3.88a9.36 9.36 0 0 0-0.44-0.29h-0.02l-0.14-0.1-0.09-0.04-0.08-0.05-0.14-0.07-0.02-0.02a8.78 8.78 0 0 0-0.95-0.42l-0.03-0.01-0.21-0.08a8.91 8.91 0 0 0-1.78-0.42l-0.08-0.01h-0.07l-0.14-0.02h-0.05a5.9 5.9 0 0 0-0.17-0.02h-0.06l-0.15-0.01zm-6.61 2.57-0.13 0.13-0.12 0.13a8.85 8.85 0 0 0-0.75 0.93l-0.04 0.05a5.78 5.78 0 0 0-0.15 0.23l-0.03 0.04a8.83 8.83 0 0 0-1.37 4.4v0.17l-0.01 0.18h5.26l0.01-0.18 0.01-0.17a3.57 3.57 0 0 1 0.8-1.92c0.03-0.05 0.08-0.09 0.12-0.13 0.04-0.05 0.07-0.1 0.12-0.14l-3.72-3.71zm13.54 1.23-3.89 3.89c0.1 0.26 0.15 0.52 0.18 0.8h5.28v-0.08a8.19 8.19 0 0 0-0.02-0.14v-0.07l-0.01-0.17v-0.04a14.38 14.38 0 0 0-0.03-0.2v-0.01a10.66 10.66 0 0 0-0.03-0.21 8.9 8.9 0 0 0-0.27-1.24v-0.01a8.28 8.28 0 0 0-0.06-0.2 8.21 8.21 0 0 0-0.07-0.19l-0.01-0.04a6.3 6.3 0 0 0-0.08-0.22 6.2 6.2 0 0 0-0.05-0.12l-0.08-0.2-0.05-0.11a11.05 11.05 0 0 0-0.1-0.21l-0.02-0.04-0.08-0.17v-0.02a10.39 10.39 0 0 0-0.1-0.17v-0.01a8.81 8.81 0 0 0-0.5-0.82zm-5.01 7.82a3.48 3.48 0 0 1-0.13 0.1l0.01 0.01 2.72 4.5 0.37-0.25a9.03 9.03 0 0 0 0.76-0.63l-3.72-3.71zm-4.55 0-0.01 0.02-3.72 3.71 0.16 0.16c0.02 0 0.04 0.02 0.06 0.04l0.13 0.1 0.03 0.03 0.15 0.12 0.01 0.02 0.16 0.12a8.9 8.9 0 0 0 0.7 0.47l0.03 0.02a9.16 9.16 0 0 0 0.45 0.25l0.02 0.01a8.21 8.21 0 0 0 0.4 0.2l0.14-0.32 1.87-4.54v-0.02a3.55 3.55 0 0 1-0.58-0.39z" fill="#689f38"/>
  <path d="m19.53 2a2.46 2.46 0 0 0-1.74 0.72 2.47 2.47 0 0 0-0.47 2.84l-5.37 5.37a2.47 2.47 0 1 0 1.12 1.12l5.37-5.37a2.47 2.47 0 0 0 2.84-3.96 2.46 2.46 0 0 0-1.75-0.72z" fill="#e0e0e0"/>
 </svg>
