<svg viewBox="0 0 24 24" fill="none" xmlns="http://www.w3.org/2000/svg">
<path d="M7.32226 13.5811H7.30194H2.0079C2.0088 13.6069 2.00952 13.633 2.01096 13.6589C2.01312 13.7089 2.01671 13.7587 2.01977 13.8087C2.02121 13.8301 2.02211 13.8515 2.02373 13.8727C2.02786 13.9306 2.0329 13.9881 2.03811 14.0457C2.03937 14.0588 2.04045 14.0717 2.04171 14.0843C2.04782 14.1483 2.05483 14.2123 2.06238 14.2758C2.06274 14.2821 2.06346 14.2882 2.06436 14.2943C2.07263 14.363 2.08144 14.4317 2.09151 14.5C2.09151 14.5007 2.09169 14.5018 2.09205 14.5025C2.153 14.9261 2.24452 15.3458 2.36661 15.7583C2.36714 15.7601 2.36786 15.7617 2.36822 15.7635C2.38728 15.8284 2.40742 15.8929 2.4281 15.9571C2.42936 15.9609 2.43061 15.9647 2.43169 15.9684C2.43277 15.9722 2.43403 15.976 2.43529 15.9798C2.45417 16.0378 2.47395 16.0957 2.49372 16.1538C2.49894 16.1684 2.50379 16.1831 2.50919 16.1977C2.52699 16.2479 2.54515 16.298 2.56385 16.3482C2.57248 16.3708 2.58111 16.3933 2.58956 16.4161C2.60574 16.4577 2.62174 16.4989 2.6381 16.5404C2.65051 16.5715 2.66346 16.6026 2.6764 16.6337C2.68971 16.6661 2.70337 16.6982 2.71704 16.7308C2.73394 16.7703 2.75156 16.8097 2.769 16.8491C2.77943 16.8727 2.79003 16.896 2.80046 16.9194C2.82204 16.9667 2.84433 17.014 2.86663 17.0609C2.874 17.076 2.88101 17.0911 2.88857 17.1062C2.91464 17.1603 2.94125 17.2139 2.96822 17.2671C2.97271 17.2754 2.97667 17.2835 2.9808 17.2918C3.01119 17.3507 3.04211 17.4097 3.07394 17.4682C3.07538 17.4707 3.07682 17.4732 3.07807 17.4761C3.08473 17.4883 3.0921 17.5 3.09875 17.512L7.63745 14.7778L7.65417 14.7677C7.47509 14.3903 7.36361 13.989 7.32226 13.5811Z" fill="#AEEA00"/>
<path d="M8.62834 16.0205L8.61557 16.0333L4.87231 19.7767C4.89155 19.7947 4.91061 19.8129 4.93039 19.8303C4.96527 19.8619 5.00087 19.8934 5.03629 19.9243C5.05463 19.9407 5.07261 19.9569 5.09095 19.9727C5.13338 20.0094 5.17618 20.0452 5.21879 20.0809C5.23048 20.0906 5.2418 20.1002 5.25331 20.1097C5.30132 20.1494 5.35022 20.1885 5.39931 20.2273C5.4056 20.2321 5.41189 20.2372 5.41819 20.2422C5.47123 20.2839 5.52481 20.3246 5.57893 20.3656C5.58127 20.367 5.58324 20.3684 5.58504 20.3701C5.81051 20.5385 6.04425 20.6964 6.28536 20.8435C6.29363 20.8487 6.30191 20.8535 6.31036 20.8587C6.35621 20.8863 6.40205 20.9134 6.44826 20.9402C6.47649 20.9564 6.50472 20.9724 6.53295 20.9884C6.55956 21.0038 6.58617 21.0186 6.61314 21.0335C6.66169 21.0601 6.71059 21.0866 6.7595 21.1124C6.76615 21.116 6.77298 21.1196 6.77981 21.1232C6.91592 21.1944 7.05437 21.2606 7.19389 21.3243L7.32677 21.0017L9.20945 16.4296L9.21647 16.4127C9.01077 16.3026 8.81371 16.1723 8.62834 16.0205Z" fill="#33691E"/>
<path d="M8.23854 15.6475C8.19809 15.6025 8.15961 15.5565 8.12185 15.5099C8.08841 15.4686 8.05605 15.4268 8.02476 15.3846C7.98898 15.336 7.95392 15.2873 7.92084 15.2375C7.88739 15.1875 7.85467 15.1372 7.82375 15.0859L3.2793 17.8236C3.34906 17.9395 3.42188 18.0525 3.49614 18.1641C3.49865 18.1679 3.50099 18.172 3.50351 18.1758C3.50441 18.1772 3.50531 18.1785 3.5062 18.1799C3.50872 18.1835 3.51088 18.1875 3.5134 18.1913C3.51358 18.1916 3.51394 18.192 3.51412 18.1923C3.52005 18.2013 3.52616 18.21 3.53228 18.219C3.53264 18.2195 3.53299 18.22 3.53335 18.2206C3.53353 18.2208 3.53371 18.2211 3.53389 18.2213C3.61283 18.338 3.69392 18.4529 3.77752 18.5647C3.77932 18.567 3.7813 18.5696 3.7831 18.5719C3.78489 18.5742 3.78669 18.5766 3.78849 18.5789C3.82481 18.6271 3.86131 18.6751 3.89889 18.7228C3.90374 18.729 3.9086 18.7352 3.91381 18.7413C3.95229 18.7905 3.99149 18.8391 4.0314 18.8873C4.04075 18.8986 4.05046 18.9101 4.05981 18.9216C4.09577 18.9646 4.13173 19.0074 4.16841 19.0498C4.18405 19.068 4.20041 19.0861 4.21624 19.1041C4.24752 19.1397 4.27845 19.1751 4.31045 19.2102C4.32789 19.2294 4.34605 19.2489 4.36385 19.2681C4.37194 19.2769 4.37985 19.2855 4.38812 19.2943C4.4115 19.3195 4.43469 19.3447 4.45825 19.3697C4.4676 19.3796 4.47749 19.3893 4.48701 19.3992C4.52837 19.4423 4.57008 19.4855 4.61269 19.5279L8.36153 15.7791C8.31856 15.7361 8.27828 15.6919 8.23854 15.6475Z" fill="#689F38"/>
<path d="M13.2077 16.0186C13.1665 16.0518 13.1248 16.0844 13.0823 16.1156L13.0917 16.1313L15.825 20.6685C15.9516 20.5858 16.0767 20.5006 16.199 20.4111C16.4635 20.216 16.7195 20.0045 16.9662 19.7769L13.2226 16.0333L13.2077 16.0186Z" fill="#33691E"/>
<path d="M15.4278 20.706L15.3351 20.5521L12.7837 16.3169C12.7321 16.348 12.6792 16.376 12.6265 16.4045C12.5733 16.433 12.5197 16.4598 12.4654 16.4855C11.9753 16.718 11.4447 16.8367 10.9134 16.8367C10.5653 16.8367 10.2174 16.7864 9.88099 16.686C9.82364 16.6689 9.76772 16.6465 9.71108 16.6263C9.65445 16.6064 9.59709 16.5891 9.54135 16.5661L7.65992 21.1352L7.58621 21.3143L7.5231 21.4676L7.52274 21.4683C7.52759 21.4703 7.53262 21.4719 7.53748 21.4739C7.54269 21.4761 7.54773 21.4777 7.55294 21.4799H7.55312C7.5533 21.4799 7.55348 21.48 7.55348 21.48C7.55474 21.4806 7.556 21.4809 7.55708 21.4815C7.60149 21.4996 7.64626 21.5153 7.69085 21.5327C7.74677 21.5545 7.80268 21.5766 7.85878 21.5971C7.88737 21.6075 7.91578 21.6197 7.94437 21.6298H7.94455C8.53393 21.838 9.14381 21.9837 9.76394 22.0653C9.78822 22.0682 9.81231 22.0716 9.83658 22.075C9.86194 22.0779 9.88747 22.0804 9.91282 22.0833C9.96065 22.0887 10.0083 22.0942 10.0563 22.0989C10.0682 22.0998 10.08 22.1009 10.0919 22.102C10.1507 22.1075 10.2095 22.1126 10.2679 22.1167C10.2879 22.1181 10.308 22.119 10.3278 22.1205C10.3794 22.1239 10.4306 22.1271 10.4821 22.1295C10.5135 22.1313 10.545 22.1322 10.5766 22.1333C10.6175 22.1347 10.6581 22.1363 10.6993 22.1376C10.7581 22.139 10.8174 22.1395 10.8765 22.1397C10.8906 22.1397 10.9044 22.1401 10.9183 22.1403C11.4136 22.1403 11.9088 22.0991 12.3986 22.0169C12.4068 22.0157 12.4149 22.0142 12.4234 22.0131C12.4752 22.0042 12.5269 21.9944 12.5787 21.9849C12.6082 21.9792 12.6379 21.9736 12.667 21.9678C12.6972 21.9615 12.7276 21.9552 12.7578 21.9488C12.8083 21.9382 12.8587 21.9272 12.9092 21.9155C12.9182 21.9135 12.9273 21.9117 12.9365 21.9092C13.6811 21.7357 14.4001 21.4671 15.0756 21.1116L15.0758 21.1114C15.12 21.0881 15.1632 21.0615 15.2072 21.0375C15.2597 21.0088 15.3119 20.9791 15.364 20.9493C15.4001 20.9286 15.4366 20.9095 15.4724 20.8881L15.4726 20.888C15.473 20.8878 15.4733 20.8874 15.4737 20.8872C15.4737 20.8872 15.4737 20.8872 15.4739 20.8872C15.4744 20.8869 15.4749 20.8867 15.4755 20.8863C15.4758 20.8862 15.476 20.886 15.4762 20.8858C15.4766 20.8856 15.4769 20.8854 15.4773 20.8853C15.4778 20.8849 15.4784 20.8847 15.4789 20.8844C15.4809 20.8831 15.4828 20.882 15.4848 20.8808C15.4965 20.8738 15.5082 20.8667 15.5199 20.8597L15.4278 20.706Z" fill="#AEEA00"/>
<path d="M8.63049 10.4239C8.67185 10.3905 8.71356 10.3581 8.75581 10.3268L8.74647 10.3112L6.01332 5.77393C5.88638 5.85681 5.76088 5.94222 5.63844 6.03212C5.37413 6.22666 5.11828 6.43793 4.87213 6.66537L8.61575 10.409L8.63049 10.4239Z" fill="#AEEA00"/>
<path d="M4.6125 6.91455C4.56988 6.95716 4.52961 7.00121 4.48807 7.04437C4.44654 7.08752 4.40429 7.13049 4.36365 7.17436C4.08712 7.47373 3.83432 7.7873 3.60633 8.11292C3.59537 8.1282 3.5844 8.1442 3.57361 8.15985C3.5479 8.19724 3.52255 8.23464 3.49756 8.27222C3.47148 8.31124 3.44559 8.35079 3.42042 8.39017C3.41089 8.40455 3.40154 8.41912 3.39237 8.4335C2.53131 9.78434 2.06994 11.3164 2.00791 12.8614C2.00557 12.9213 2.00432 12.9814 2.00306 13.0412C2.0018 13.1011 2 13.1612 2 13.221H7.30195C7.30195 13.161 7.30752 13.1013 7.31058 13.0412C7.31363 12.9812 7.31453 12.9211 7.32047 12.8614C7.38897 12.171 7.65543 11.4969 8.12004 10.9306C8.1578 10.8845 8.20041 10.8414 8.24086 10.797C8.28114 10.7526 8.31854 10.7064 8.36151 10.6636L4.6125 6.91455Z" fill="#33691E"/>
<path d="M15.5521 5.59851C15.5449 5.59401 15.5373 5.5897 15.5302 5.58538C15.4836 5.55679 15.4365 5.52928 15.3894 5.50177C15.362 5.48595 15.3347 5.47067 15.3072 5.45503C15.2795 5.43956 15.2522 5.4241 15.2243 5.409C15.1765 5.38275 15.1285 5.35686 15.0803 5.33132C15.0727 5.32755 15.0654 5.32341 15.0576 5.31946C14.7468 5.15692 14.4274 5.0138 14.1015 4.88955C14.0932 4.88614 14.0846 4.8829 14.0761 4.87985C14.0051 4.85323 13.9339 4.8268 13.8621 4.80199C13.283 4.59972 12.6841 4.45785 12.0756 4.37802C12.0508 4.37461 12.0258 4.37119 12.001 4.36795C11.976 4.3649 11.9512 4.36238 11.9264 4.35968C11.8784 4.35411 11.8306 4.34872 11.7824 4.34404C11.7691 4.34278 11.7556 4.34188 11.7421 4.34044C11.6851 4.33523 11.6278 4.3302 11.5708 4.32606C11.5487 4.32444 11.5262 4.32318 11.5041 4.32193C11.4552 4.31869 11.4057 4.31527 11.3568 4.31312C11.3306 4.31168 11.3047 4.31096 11.2788 4.31006L11.2786 9.60409V9.62477C11.5514 9.653 11.8216 9.71108 12.0837 9.80008L15.9951 5.8887C15.85 5.78802 15.7031 5.6902 15.5521 5.59851Z" fill="#33691E"/>
<path d="M10.7394 4.30584C10.6795 4.3071 10.6194 4.30728 10.5596 4.30962C10.1845 4.32472 9.81015 4.36302 9.43886 4.42523C9.43077 4.42667 9.42268 4.42793 9.41441 4.42936C9.36226 4.43835 9.31066 4.44788 9.25888 4.45759C9.22957 4.46317 9.20008 4.46856 9.17078 4.47449C9.14021 4.48061 9.10983 4.4869 9.07944 4.49355C9.0291 4.50398 8.97875 4.51495 8.92841 4.52664C8.91924 4.52861 8.91025 4.53077 8.9009 4.53275C8.15634 4.70644 7.43696 4.97524 6.76164 5.3307H6.76146C6.7174 5.35408 6.67443 5.38051 6.63056 5.4046C6.57806 5.43337 6.52592 5.46304 6.47378 5.49288C6.43512 5.51518 6.39574 5.53568 6.35726 5.55869C6.35691 5.55887 6.35637 5.55923 6.35601 5.55941H6.35583C6.35313 5.56103 6.35043 5.56247 6.34774 5.56408C6.33767 5.5702 6.32724 5.57523 6.31717 5.58134L6.31771 5.58224L6.41049 5.73633L9.05445 10.1256C9.10605 10.0945 9.15891 10.0663 9.21159 10.0381C9.26463 10.0095 9.31839 9.98267 9.37251 9.95696C9.75009 9.77716 10.1514 9.66568 10.5594 9.62433C10.6192 9.61822 10.6791 9.61318 10.7392 9.61013C10.799 9.60707 10.8589 9.60401 10.919 9.60401L10.9192 4.30225C10.8591 4.30225 10.7992 4.30476 10.7394 4.30584Z" fill="#689F38"/>
<path d="M19.8272 12.7827C19.8247 12.7351 19.8218 12.6876 19.8185 12.6398C19.8171 12.616 19.8158 12.5925 19.8139 12.5684C19.8099 12.5125 19.8052 12.4564 19.8 12.4005C19.7989 12.3859 19.7975 12.3715 19.7962 12.3569C19.7901 12.2944 19.7835 12.2318 19.7763 12.1694C19.7756 12.1644 19.775 12.1593 19.7745 12.1543C19.7741 12.152 19.774 12.1495 19.7736 12.1471C19.7653 12.0797 19.7563 12.0123 19.7468 11.945C19.7466 11.943 19.7464 11.9405 19.7459 11.9387C19.685 11.516 19.5936 11.0971 19.4719 10.6852C19.471 10.6823 19.4703 10.6798 19.4694 10.6772C19.4501 10.6132 19.4305 10.5496 19.4104 10.4861C19.4077 10.4778 19.4048 10.4694 19.4023 10.4609C19.3834 10.4036 19.3644 10.3466 19.3446 10.2894C19.339 10.2741 19.3336 10.2587 19.3282 10.243C19.3108 10.1936 19.2928 10.1443 19.2745 10.0951C19.2657 10.0715 19.2567 10.0481 19.2475 10.0248C19.232 9.98394 19.216 9.94312 19.1999 9.90285C19.1869 9.87048 19.174 9.83866 19.1607 9.80684C19.1477 9.77519 19.1344 9.74391 19.1211 9.71226C19.1037 9.67199 19.086 9.63171 19.0682 9.59161C19.0582 9.56914 19.0481 9.5463 19.0377 9.52365C19.0157 9.47582 18.9933 9.428 18.9706 9.38035C18.9636 9.36597 18.9568 9.35122 18.9498 9.33684C18.9233 9.28236 18.8965 9.22788 18.8692 9.17394C18.8652 9.16657 18.8615 9.15901 18.8575 9.15146C18.8269 9.09195 18.7957 9.03226 18.7638 8.97346C18.7626 8.97148 18.7617 8.96915 18.7604 8.96717C18.606 8.68308 18.4364 8.40835 18.253 8.14404L14.3404 12.0569C14.4294 12.3192 14.4873 12.5892 14.5155 12.8618H14.5364H19.8304C19.8292 12.835 19.8284 12.8088 19.8272 12.7827Z" fill="#33691E"/>
<path d="M14.536 13.2214C14.536 13.2814 14.5304 13.3411 14.5274 13.4012C14.5245 13.4612 14.5234 13.5213 14.5175 13.581C14.449 14.2714 14.1825 14.9457 13.7181 15.512C13.6803 15.5581 13.6377 15.6012 13.5973 15.6456C13.557 15.69 13.5196 15.7362 13.4766 15.779L17.2256 19.5279C17.2682 19.4852 17.3083 19.4412 17.3499 19.3979C17.3914 19.3545 17.4337 19.3117 17.4741 19.2679C17.7516 18.9674 18.0051 18.6531 18.2336 18.3264C18.2428 18.3135 18.2514 18.3007 18.2602 18.288C18.2881 18.2479 18.3152 18.2074 18.3426 18.167C18.3665 18.1308 18.3904 18.0947 18.4136 18.0582C18.4251 18.0407 18.4366 18.0226 18.4477 18.0051C19.3075 16.655 19.7677 15.1246 19.8295 13.5808C19.8318 13.5209 19.8331 13.4609 19.8344 13.401C19.8356 13.3411 19.8374 13.2812 19.8374 13.2212H14.536V13.2214Z" fill="#689F38"/>
<path d="M21.4127 2.72752C20.4426 1.75749 18.8699 1.75749 17.9001 2.72752C17.1262 3.5012 16.9716 4.65785 17.4324 5.5867L12.0221 10.9972C11.0932 10.5366 9.93655 10.691 9.16269 11.4647C8.19267 12.4347 8.19285 14.0075 9.16269 14.9775C10.1329 15.9475 11.7056 15.9471 12.6756 14.9773C13.4493 14.2036 13.6038 13.047 13.1429 12.1179L18.5533 6.70757C19.4823 7.16822 20.6388 7.01377 21.4125 6.23991C22.3825 5.27043 22.3825 3.69754 21.4127 2.72752Z" fill="#CFD8DC"/>
</svg>
