<?xml version="1.0" encoding="UTF-8" standalone="no"?>
<svg xmlns="http://www.w3.org/2000/svg" viewBox="0 0 24 24" version="1.1">
    <path d="M 12 2 A 10 10 0 0 0 2 12 A 10 10 0 0 0 2.3320312 14.503906 L 4.046875 12.789062 A 8 8 0 0 1 4 12 A 8 8 0 0 1 12 4 A 8 8 0 0 1 20 12 A 8 8 0 0 1 12 20 A 8 8 0 0 1 6.0195312 17.298828 L 4.6035156 18.712891 A 10 10 0 0 0 12 22 A 10 10 0 0 0 22 12 A 10 10 0 0 0 12 2 z" fill="#eeeeee"/>
    <path d="M 12,6.724 10.733,8 2.9,15.822 C 3.147,16.396911 3.585,17.089 3.932,17.609 L 12,9.54 17.726,15.244 c 0.317,-0.572 0.688834,-1.328 0.825,-1.967 L 13.266,8 Z" fill="#e64a19"/>
</svg>