<svg xmlns="http://www.w3.org/2000/svg" data-name="Layer 1" viewBox="0 0 32 32"><g stroke-width=".75"><path fill="#ffca28" d="M15.767 2.065a.44.44 0 0 1 .458 0l10.164 6.14c.33.197.33.716 0 .912l-10.164 6.14a.44.44 0 0 1-.458 0L5.603 9.118c-.33-.196-.33-.715 0-.912z"/><path fill="#fafafa" d="M27.299 10.556c.315-.189.701.063.701.456v12.273c0 .189-.093.37-.243.456l-10.264 6.195c-.315.189-.701-.063-.701-.456V17.207c0-.188.093-.37.243-.456z"/><path fill="#ffd600" d="M14.959 16.751 4.702 10.556c-.315-.189-.701.063-.701.456v12.273c0 .188.093.37.243.456l10.264 6.195c.315.189.701-.063.701-.456V17.207a.53.53 0 0 0-.243-.456zm-6.657 3.908-2.405-1.392v-.016c.058-.825.637-1.18 1.303-.794s1.16 1.36 1.102 2.186zm3.787 2.397-2.405-1.391v-.016c.057-.825.637-1.18 1.303-.794s1.16 1.36 1.102 2.186z"/></g></svg>