<?xml version="1.0" encoding="UTF-8" standalone="no"?>
<svg
   viewBox="0 0 24 24"
   xmlns="http://www.w3.org/2000/svg">
  <g
     id="g156"
     transform="matrix(0.16151397,0,0,0.16151397,-29.832209,-8.576476)">
    <g
       id="g152">
      <path
         fill="#93d500"
         d="m 226.89,137.615 h -0.137 l -35.805,0.001 c 0.006,0.176 0.012,0.352 0.02,0.526 0.015,0.338 0.039,0.675 0.06,1.013 0.01,0.145 0.016,0.29 0.027,0.433 0.028,0.391 0.062,0.781 0.097,1.169 0.008,0.088 0.016,0.176 0.025,0.262 0.041,0.433 0.088,0.865 0.14,1.295 0.003,0.043 0.007,0.084 0.013,0.125 0.056,0.464 0.116,0.929 0.184,1.391 0,0.005 10e-4,0.012 0.003,0.017 0.412,2.865 1.031,5.703 1.856,8.493 0.003,0.012 0.008,0.023 0.01,0.035 0.129,0.439 0.266,0.876 0.405,1.31 0.009,0.026 0.017,0.051 0.025,0.077 0.008,0.026 0.016,0.052 0.025,0.077 0.127,0.393 0.261,0.784 0.396,1.177 0.035,0.098 0.069,0.198 0.105,0.297 0.12,0.339 0.243,0.679 0.369,1.017 0.059,0.153 0.116,0.306 0.174,0.46 0.109,0.281 0.218,0.559 0.328,0.84 0.084,0.21 0.171,0.421 0.259,0.632 0.09,0.219 0.182,0.437 0.275,0.657 0.115,0.268 0.233,0.533 0.351,0.8 0.071,0.159 0.142,0.318 0.213,0.475 0.146,0.32 0.296,0.64 0.448,0.957 0.05,0.102 0.097,0.205 0.148,0.307 0.176,0.366 0.356,0.729 0.538,1.089 0.031,0.056 0.057,0.111 0.086,0.166 0.206,0.399 0.415,0.798 0.63,1.193 0.009,0.017 0.02,0.034 0.028,0.053 0.045,0.082 0.095,0.161 0.14,0.243 l 30.697,-18.492 0.114,-0.068 c -1.214,-2.554 -1.968,-5.269 -2.247,-8.027 z"
         id="path96" />
      <path
         fill="#4d5a31"
         d="m 235.723,154.115 -0.087,0.087 -25.317,25.318 c 0.13,0.122 0.259,0.244 0.392,0.362 0.236,0.214 0.477,0.427 0.716,0.636 0.124,0.11 0.246,0.221 0.369,0.327 0.287,0.248 0.576,0.49 0.865,0.732 0.079,0.066 0.156,0.13 0.234,0.195 0.325,0.269 0.656,0.533 0.987,0.795 0.042,0.033 0.085,0.067 0.127,0.101 0.359,0.283 0.722,0.557 1.087,0.834 0.016,0.01 0.03,0.02 0.041,0.03 1.525,1.14 3.105,2.207 4.736,3.202 0.056,0.035 0.112,0.068 0.169,0.103 0.31,0.185 0.62,0.37 0.933,0.551 0.191,0.109 0.382,0.218 0.573,0.326 0.18,0.104 0.36,0.205 0.543,0.305 0.328,0.181 0.659,0.359 0.99,0.533 0.045,0.024 0.091,0.049 0.137,0.073 0.921,0.481 1.857,0.929 2.8,1.359 v 0 l 0.898,-2.181 12.734,-30.923 0.047,-0.115 c -1.387,-0.742 -2.72,-1.623 -3.974,-2.65 z"
         id="path100" />
      <path
         fill="#6ba43a"
         d="m 233.086,151.593 c -0.273,-0.305 -0.534,-0.616 -0.789,-0.931 -0.226,-0.279 -0.445,-0.561 -0.657,-0.848 -0.242,-0.328 -0.479,-0.658 -0.703,-0.995 -0.226,-0.338 -0.448,-0.679 -0.657,-1.025 l -30.735,18.515 c 0.472,0.784 0.965,1.548 1.467,2.303 0.017,0.026 0.033,0.053 0.05,0.079 v 0 c 0.006,0.009 0.012,0.019 0.018,0.028 0.017,0.025 0.032,0.051 0.048,0.076 0.002,0.003 0.003,0.005 0.005,0.008 0.04,0.06 0.082,0.12 0.123,0.18 0.002,0.004 0.005,0.007 0.007,0.011 0,0 0,0 0,0 0.001,0.002 0.002,0.003 0.003,0.005 0.534,0.79 1.082,1.566 1.647,2.323 0.012,0.016 0.025,0.032 0.037,0.049 0.012,0.016 0.024,0.031 0.036,0.047 0.245,0.326 0.492,0.651 0.746,0.973 0.033,0.042 0.066,0.084 0.101,0.125 0.261,0.333 0.526,0.662 0.795,0.987 0.063,0.077 0.129,0.154 0.192,0.233 0.244,0.291 0.486,0.579 0.735,0.867 0.106,0.122 0.216,0.246 0.324,0.368 0.211,0.241 0.421,0.48 0.638,0.718 0.118,0.13 0.24,0.261 0.362,0.391 0.055,0.059 0.109,0.118 0.164,0.177 0.158,0.17 0.315,0.341 0.475,0.509 0.064,0.067 0.13,0.133 0.195,0.2 0.28,0.292 0.562,0.583 0.85,0.871 l 25.354,-25.355 c -0.289,-0.29 -0.561,-0.589 -0.831,-0.889 z"
         id="path102" />
      <path
         fill="#4d5a31"
         d="m 266.695,154.102 c -0.279,0.225 -0.561,0.445 -0.847,0.656 l 0.063,0.105 18.486,30.687 c 0.856,-0.559 1.702,-1.135 2.529,-1.741 1.789,-1.319 3.521,-2.749 5.189,-4.289 l -25.32,-25.319 z"
         id="path104" />
      <path
         fill="#93d500"
         d="m 281.71,185.803 -0.627,-1.041 -17.256,-28.644 c -0.349,0.21 -0.706,0.4 -1.063,0.592 -0.359,0.193 -0.723,0.374 -1.09,0.548 -3.315,1.573 -6.904,2.376 -10.497,2.376 -2.354,0 -4.707,-0.34 -6.982,-1.019 -0.388,-0.116 -0.766,-0.268 -1.149,-0.403 -0.383,-0.135 -0.771,-0.252 -1.148,-0.407 l -12.725,30.902 -0.499,1.212 -0.427,1.037 -0.002,0.005 c 0.033,0.014 0.066,0.025 0.099,0.038 0.035,0.014 0.07,0.026 0.104,0.04 h 0.001 c 10e-4,0 0.002,0.001 0.002,0.001 0.009,0.004 0.017,0.006 0.025,0.009 0.301,0.122 0.603,0.229 0.905,0.346 0.379,0.147 0.757,0.296 1.136,0.435 0.193,0.071 0.386,0.153 0.579,0.222 h 0.001 v 0 c 3.986,1.408 8.111,2.393 12.305,2.945 0.164,0.02 0.327,0.043 0.492,0.065 0.171,0.02 0.344,0.037 0.516,0.056 0.323,0.037 0.646,0.074 0.97,0.106 0.08,0.006 0.161,0.013 0.24,0.021 0.398,0.037 0.795,0.071 1.191,0.099 0.135,0.01 0.271,0.016 0.405,0.025 0.349,0.023 0.696,0.045 1.044,0.061 0.213,0.012 0.426,0.018 0.64,0.026 0.276,0.01 0.551,0.021 0.829,0.029 0.397,0.01 0.799,0.013 1.199,0.015 0.095,0 0.189,0.002 0.283,0.004 3.351,0 6.7,-0.279 10.011,-0.834 v 0 c 0.056,-0.008 0.111,-0.018 0.167,-0.026 0.35,-0.061 0.7,-0.126 1.051,-0.191 0.199,-0.039 0.4,-0.076 0.597,-0.115 0.204,-0.042 0.41,-0.085 0.614,-0.128 0.342,-0.072 0.683,-0.145 1.023,-0.225 0.061,-0.013 0.122,-0.026 0.185,-0.042 5.036,-1.174 9.899,-2.991 14.467,-5.394 l 0.002,-0.001 v 0 c 0.299,-0.158 0.591,-0.337 0.889,-0.5 0.355,-0.194 0.708,-0.395 1.061,-0.597 0.244,-0.14 0.491,-0.269 0.734,-0.413 10e-4,0 10e-4,-0.001 10e-4,-0.001 0.003,-0.002 0.005,-0.003 0.008,-0.005 0,0 0,0 10e-4,0 v 0 c 0.003,-0.002 0.007,-0.004 0.01,-0.006 0.002,-0.001 0.004,-0.002 0.005,-0.003 l -0.044,-0.076 0.045,0.076 c 0.002,-0.001 0.005,-0.003 0.007,-0.004 0.003,-0.002 0.007,-0.004 0.01,-0.006 0.014,-0.008 0.027,-0.016 0.04,-0.024 0.079,-0.047 0.158,-0.095 0.237,-0.142 v 0 z"
         id="path134" />
      <path
         fill="#93d500"
         d="m 235.737,116.265 c 0.279,-0.226 0.561,-0.445 0.848,-0.657 l -0.063,-0.105 -18.485,-30.687 c -0.859,0.561 -1.707,1.138 -2.535,1.746 -1.788,1.316 -3.518,2.745 -5.183,4.283 l 25.32,25.32 z"
         id="path136" />
      <path
         fill="#4d5a31"
         d="m 208.563,92.53 c -0.288,0.288 -0.56,0.586 -0.841,0.878 -0.281,0.292 -0.567,0.582 -0.841,0.879 -1.87,2.025 -3.58,4.145 -5.122,6.348 -0.074,0.104 -0.149,0.212 -0.221,0.317 -0.174,0.253 -0.346,0.506 -0.515,0.76 -0.176,0.264 -0.352,0.531 -0.522,0.798 -0.064,0.097 -0.128,0.196 -0.189,0.293 -5.823,9.136 -8.944,19.498 -9.364,29.948 -0.016,0.405 -0.024,0.811 -0.032,1.216 -0.008,0.405 -0.021,0.811 -0.021,1.216 l 35.859,-0.001 c 0,-0.406 0.038,-0.81 0.058,-1.216 0.02,-0.406 0.026,-0.812 0.067,-1.216 0.464,-4.669 2.266,-9.229 5.408,-13.059 0.255,-0.311 0.544,-0.603 0.817,-0.904 0.273,-0.301 0.526,-0.613 0.816,-0.903 z"
         id="path138" />
      <path
         fill="#4d5a31"
         d="m 282.551,83.629 c -0.049,-0.03 -0.099,-0.06 -0.148,-0.089 -0.315,-0.193 -0.633,-0.379 -0.952,-0.566 -0.185,-0.107 -0.369,-0.211 -0.555,-0.317 -0.188,-0.104 -0.372,-0.209 -0.56,-0.312 -0.324,-0.178 -0.648,-0.352 -0.974,-0.525 -0.051,-0.026 -0.101,-0.054 -0.153,-0.08 -2.102,-1.1 -4.262,-2.068 -6.467,-2.907 -0.056,-0.024 -0.115,-0.045 -0.171,-0.066 -0.48,-0.18 -0.962,-0.358 -1.447,-0.527 -3.916,-1.368 -7.967,-2.328 -12.083,-2.868 -0.168,-0.024 -0.336,-0.047 -0.504,-0.068 -0.169,-0.021 -0.337,-0.038 -0.504,-0.056 -0.324,-0.038 -0.649,-0.074 -0.974,-0.106 -0.09,-0.008 -0.181,-0.015 -0.273,-0.024 -0.386,-0.036 -0.773,-0.07 -1.158,-0.097 -0.15,-0.011 -0.301,-0.019 -0.452,-0.028 -0.331,-0.022 -0.665,-0.045 -0.996,-0.059 -0.177,-0.009 -0.353,-0.014 -0.528,-0.02 l -0.002,35.805 v 0.14 c 1.844,0.191 3.672,0.584 5.446,1.186 L 285.55,85.591 c -0.985,-0.679 -1.978,-1.341 -2.999,-1.962 z"
         id="path140" />
      <polygon
         fill="#6ba43a"
         points="220.722,84.561 220.095,83.519 "
         id="polygon142" />
      <path
         fill="#6ba43a"
         d="m 250,74.887 c -0.405,0.008 -0.811,0.009 -1.216,0.026 -2.537,0.102 -5.069,0.362 -7.58,0.781 -0.055,0.009 -0.11,0.018 -0.166,0.027 -0.352,0.061 -0.701,0.125 -1.051,0.191 -0.198,0.037 -0.398,0.075 -0.596,0.114 -0.206,0.041 -0.412,0.084 -0.618,0.129 -0.341,0.071 -0.682,0.145 -1.021,0.224 v 0 c -0.062,0.013 -0.123,0.029 -0.187,0.042 -5.035,1.174 -9.901,2.992 -14.469,5.396 0,0 0,0 0,0 h -0.001 c -0.298,0.158 -0.589,0.337 -0.886,0.499 -0.355,0.194 -0.708,0.395 -1.06,0.598 -0.262,0.151 -0.528,0.289 -0.788,0.445 -0.003,0.002 -0.006,0.003 -0.009,0.005 0,0 -0.001,0 -0.001,10e-4 -0.018,0.011 -0.037,0.02 -0.055,0.031 -0.068,0.041 -0.138,0.075 -0.206,0.116 l 0.004,0.007 0.628,1.042 v 0 l 17.882,29.686 c 0.349,-0.21 0.706,-0.401 1.063,-0.593 0.359,-0.193 0.723,-0.375 1.089,-0.549 2.554,-1.216 5.268,-1.97 8.027,-2.25 0.405,-0.041 0.81,-0.075 1.216,-0.096 0.405,-0.02 0.81,-0.041 1.216,-0.042 l 0.002,-35.858 c -0.406,0.002 -0.811,0.019 -1.217,0.028 z"
         id="path146" />
      <path
         fill="#4d5a31"
         d="m 311.464,132.218 c -0.016,-0.322 -0.036,-0.644 -0.058,-0.966 -0.01,-0.16 -0.019,-0.32 -0.032,-0.483 -0.027,-0.378 -0.059,-0.757 -0.094,-1.136 -0.008,-0.098 -0.017,-0.196 -0.026,-0.294 -0.041,-0.423 -0.087,-0.846 -0.135,-1.268 -0.005,-0.034 -0.008,-0.068 -0.012,-0.102 -0.002,-0.016 -0.004,-0.033 -0.006,-0.049 -0.056,-0.456 -0.116,-0.912 -0.181,-1.367 -0.001,-0.014 -0.003,-0.03 -0.006,-0.042 -0.413,-2.859 -1.03,-5.692 -1.853,-8.478 -0.006,-0.019 -0.011,-0.037 -0.017,-0.054 -0.13,-0.433 -0.262,-0.863 -0.399,-1.293 -0.018,-0.056 -0.037,-0.113 -0.055,-0.17 -0.127,-0.388 -0.256,-0.774 -0.39,-1.16 -0.038,-0.104 -0.074,-0.208 -0.11,-0.313 -0.118,-0.334 -0.24,-0.668 -0.364,-1 -0.06,-0.159 -0.12,-0.318 -0.182,-0.475 -0.105,-0.276 -0.213,-0.552 -0.322,-0.825 -0.088,-0.219 -0.175,-0.435 -0.265,-0.65 -0.088,-0.214 -0.178,-0.426 -0.268,-0.639 -0.118,-0.273 -0.237,-0.545 -0.358,-0.817 -0.068,-0.152 -0.136,-0.306 -0.206,-0.46 -0.148,-0.323 -0.3,-0.647 -0.454,-0.97 -0.047,-0.098 -0.093,-0.196 -0.141,-0.294 -0.178,-0.368 -0.36,-0.736 -0.545,-1.102 -0.027,-0.05 -0.053,-0.101 -0.08,-0.152 -0.207,-0.403 -0.418,-0.806 -0.634,-1.204 -0.008,-0.014 -0.015,-0.029 -0.023,-0.043 -1.045,-1.922 -2.191,-3.78 -3.432,-5.567 l -26.463,26.463 c 0.602,1.774 0.994,3.601 1.185,5.444 h 0.141 35.806 c -0.007,-0.18 -0.012,-0.358 -0.021,-0.534 z"
         id="path148" />
      <path
         fill="#6ba43a"
         d="m 275.678,135.182 c 0,0.406 -0.038,0.81 -0.058,1.216 -0.02,0.406 -0.026,0.812 -0.066,1.216 -0.464,4.669 -2.265,9.23 -5.407,13.061 -0.255,0.311 -0.544,0.603 -0.817,0.904 -0.272,0.301 -0.526,0.613 -0.816,0.903 l 25.356,25.355 c 0.288,-0.288 0.56,-0.586 0.841,-0.879 0.281,-0.293 0.567,-0.582 0.841,-0.879 1.876,-2.032 3.591,-4.158 5.136,-6.368 0.062,-0.087 0.12,-0.174 0.18,-0.261 0.189,-0.271 0.372,-0.545 0.556,-0.818 0.161,-0.244 0.323,-0.489 0.481,-0.736 0.078,-0.118 0.155,-0.24 0.231,-0.359 5.815,-9.131 8.927,-19.483 9.345,-29.924 0.016,-0.405 0.024,-0.811 0.032,-1.216 0.008,-0.405 0.021,-0.81 0.021,-1.216 h -35.856 z"
         id="path150" />
    </g>
    <path
       fill="#424143"
       d="m 322.187,64.211 c -6.56,-6.56 -17.197,-6.56 -23.757,0 -5.234,5.233 -6.279,13.055 -3.163,19.337 l -36.592,36.593 c -6.283,-3.115 -14.104,-2.07 -19.339,3.162 -6.561,6.56 -6.559,17.198 -0.001,23.758 6.562,6.561 17.199,6.559 23.76,-0.001 5.233,-5.233 6.278,-13.055 3.161,-19.338 l 36.592,-36.591 c 6.283,3.116 14.104,2.07 19.338,-3.163 6.56,-6.559 6.56,-17.197 0.001,-23.757 z"
       id="path154" />
  </g>
</svg>
