<?xml version="1.0" encoding="UTF-8" standalone="no"?>
<svg
   id="Layer_1"
   data-name="Layer 1"
   viewBox="0 0 32 32"
   version="1.1"
   sodipodi:docname="opentofu.svg"
   inkscape:version="1.4.2 (ebf0e940, 2025-05-08)"
   xmlns:inkscape="http://www.inkscape.org/namespaces/inkscape"
   xmlns:sodipodi="http://sodipodi.sourceforge.net/DTD/sodipodi-0.dtd"
   xmlns="http://www.w3.org/2000/svg"
   xmlns:svg="http://www.w3.org/2000/svg">
  <sodipodi:namedview
     id="namedview3"
     pagecolor="#ffffff"
     bordercolor="#000000"
     borderopacity="0.25"
     inkscape:showpageshadow="2"
     inkscape:pageopacity="0.0"
     inkscape:pagecheckerboard="0"
     inkscape:deskcolor="#d1d1d1"
     showgrid="true"
     inkscape:zoom="14.775907"
     inkscape:cx="13.77242"
     inkscape:cy="19.423512"
     inkscape:window-width="1728"
     inkscape:window-height="1045"
     inkscape:window-x="78"
     inkscape:window-y="40"
     inkscape:window-maximized="0"
     inkscape:current-layer="Layer_1">
    <inkscape:grid
       id="grid3"
       units="px"
       originx="0"
       originy="0"
       spacingx="1"
       spacingy="1"
       empcolor="#0099e5"
       empopacity="0.30196078"
       color="#00e514"
       opacity="0.14902"
       empspacing="5"
       enabled="true"
       visible="true" />
  </sodipodi:namedview>
  <defs
     id="defs1">
    <style
       id="style1">
      .cls-1 {
        fill: #FAFAFA;
      }

      .cls-2 {
        fill: #FFD600;
      }

      .cls-3 {
        fill: #FFCA28;
      }
    </style>
  </defs>
  <path
     class="cls-3"
     d="m 15.767373,2.0648628 c 0.143157,-0.086484 0.314941,-0.086484 0.458098,0 l 10.16403,6.1403053 c 0.329259,0.1965526 0.329259,0.7154515 0,0.9120043 l -10.16403,6.1403046 c -0.143157,0.08648 -0.314941,0.08648 -0.458098,0 L 5.6033403,9.1171726 c -0.3292575,-0.1965529 -0.3292575,-0.7154519 0,-0.9120045 z"
     id="path1"
     style="stroke-width:0.750168" />
  <path
     class="cls-1"
     d="M 27.29854,10.555937 C 27.613481,10.367248 28,10.618835 28,11.011939 V 23.28469 c 0,0.188689 -0.09305,0.369518 -0.243365,0.456 l -10.264237,6.195342 c -0.314946,0.188689 -0.701466,-0.06289 -0.701466,-0.456001 v -12.27275 c 0,-0.18869 0.09305,-0.369518 0.243365,-0.456002 z"
     id="path2"
     style="stroke-width:0.750168" />
  <path
     class="cls-2"
     d="M 14.958543,16.751279 4.7014612,10.555937 C 4.3865194,10.367248 4,10.618833 4,11.011939 V 23.28469 c 0,0.188689 0.093051,0.369518 0.2433642,0.456 l 10.2642388,6.195342 c 0.314945,0.188689 0.701465,-0.06289 0.701465,-0.456001 v -12.27275 c 0,-0.18869 -0.09305,-0.369518 -0.243365,-0.456002 z M 8.3018194,20.658744 5.8968088,19.267152 c 0,0 0,-0.008 0,-0.01572 0.05726,-0.825524 0.6370415,-1.179318 1.3027141,-0.794075 0.6656725,0.385243 1.1595586,1.360144 1.1022965,2.185666 0,0 0,0.008 0,0.01572 z M 12.08828,23.056689 9.6832683,21.665096 c 0,0 0,-0.008 0,-0.01572 0.057258,-0.82552 0.6370417,-1.179315 1.3027157,-0.794073 0.665671,0.385243 1.159556,1.360144 1.102296,2.185665 0,0 0,0.008 0,0.01572 z"
     id="path3"
     style="stroke-width:0.750168" />
</svg>
