<svg data-name="Layer 1" version="1.1" viewBox="0 0 32 32" xmlns="http://www.w3.org/2000/svg">
 <defs>
  <style>.cls-1 {
        fill: #FAFAFA;
      }

      .cls-2 {
        fill: #FFD600;
      }

      .cls-3 {
        fill: #FFCA28;
      }</style>
 </defs>
 <g stroke-width=".75017">
  <path class="cls-3" d="m15.767 2.0649c0.14316-0.086484 0.31494-0.086484 0.4581 0l10.164 6.1403c0.32926 0.19655 0.32926 0.71545 0 0.912l-10.164 6.1403c-0.14316 0.08648-0.31494 0.08648-0.4581 0l-10.164-6.1403c-0.32926-0.19655-0.32926-0.71545 0-0.912z"/>
  <path class="cls-1" d="m27.299 10.556c0.31494-0.18869 0.70146 0.062898 0.70146 0.456v12.273c0 0.18869-0.09305 0.36952-0.24336 0.456l-10.264 6.1953c-0.31495 0.18869-0.70147-0.06289-0.70147-0.456v-12.273c0-0.18869 0.09305-0.36952 0.24336-0.456z"/>
  <path class="cls-2" d="m14.959 16.751-10.257-6.1953c-0.31494-0.18869-0.70146 0.062896-0.70146 0.456v12.273c0 0.18869 0.093051 0.36952 0.24336 0.456l10.264 6.1953c0.31494 0.18869 0.70146-0.06289 0.70146-0.456v-12.273c0-0.18869-0.09305-0.36952-0.24336-0.456zm-6.6567 3.9075-2.405-1.3916v-0.01572c0.05726-0.82552 0.63704-1.1793 1.3027-0.79408 0.66567 0.38524 1.1596 1.3601 1.1023 2.1857v0.01572zm3.7865 2.3979-2.405-1.3916v-0.01572c0.057258-0.82552 0.63704-1.1793 1.3027-0.79407 0.66567 0.38524 1.1596 1.3601 1.1023 2.1857v0.01572z"/>
 </g>
</svg>
