<svg xmlns="http://www.w3.org/2000/svg" viewBox="0 0 24 24"><path fill="#8bc34a" d="M10.86 4.29h-.36a8.95 8.95 0 0 0-1.11.12h-.03a9.3 9.3 0 0 0-.24.05l-.09.02-.15.03h-.03a8.89 8.89 0 0 0-2.12.8l-.13.07a9.92 9.92 0 0 0-.16.09l-.11.06h-.01l-.03.03.09.15 2.63 4.36.15-.09a3.98 3.98 0 0 1 .16-.08 3.59 3.59 0 0 1 1.18-.33 3.7 3.7 0 0 1 .36-.02V4.3zM5.98 5.75 5.61 6a8.95 8.95 0 0 0-.76.63l3.72 3.72.02.02.12-.1-.01-.02-2.72-4.5zm8.47 7.4-.01.17-.01.18a3.57 3.57 0 0 1-.8 1.92l-.11.13c-.04.04-.08.1-.13.13l3.73 3.73.12-.13.12-.13a8.94 8.94 0 0 0 .76-.94l.03-.03a9.77 9.77 0 0 0 .15-.23l.03-.06a8.83 8.83 0 0 0 1.37-4.39v-.18l.01-.18h-5.26zM2 13.5v.08l.01.15a8.07 8.07 0 0 0 .02.23V14l.02.19v.02l.03.2c.06.42.15.84.27 1.25l.07.2v.01a9.46 9.46 0 0 0 .06.19l.02.04.05.15.03.07.04.12.04.1.04.09.05.12.04.07.06.14.02.04.08.16.01.03.1.17.02.04 4.5-2.71.03-.01a3.58 3.58 0 0 1-.33-1.18H2zM7.78 15l-4.51 2.7.21.34.01.01.01.02a.7.7 0 0 0 .02.03l.24.34h.01v.01l.11.15.02.02.12.14.02.03.11.13.05.06.1.1.05.06.02.02.07.08.03.03.12.13 3.73-3.73a3.64 3.64 0 0 1-.13-.13 3.56 3.56 0 0 1-.11-.13 3.48 3.48 0 0 1-.1-.13 3.64 3.64 0 0 1-.1-.14l-.1-.15zm4.93 1.22-.16.08a3.6 3.6 0 0 1-1.7.43 3.59 3.59 0 0 1-1.03-.15l-.16-.05a2.97 2.97 0 0 1-.17-.07L7.62 21l-.07.18-.07.15h.02l.01.01.14.05.17.07c.03 0 .05.02.08.03a8.9 8.9 0 0 0 1.8.43l.08.01.08.01.14.02h.04a8.66 8.66 0 0 0 .38.03h.44a8.88 8.88 0 0 0 1.47-.11h.02l.15-.04.1-.01a9.86 9.86 0 0 0 .23-.05 8.92 8.92 0 0 0 2.15-.8l.14-.08.15-.08.1-.06h.01l.01-.01.04-.02-.1-.15-.09-.16-2.53-4.2z"/><path fill="#689f38" d="M11.21 4.3v5.27a3.67 3.67 0 0 1 .8.17l3.89-3.88a9.36 9.36 0 0 0-.44-.29h-.02l-.14-.1-.09-.04-.08-.05-.14-.07-.02-.02a8.78 8.78 0 0 0-.95-.42l-.03-.01-.21-.08A8.91 8.91 0 0 0 12 4.36l-.08-.01h-.07l-.14-.02h-.05a5.9 5.9 0 0 0-.17-.02h-.06l-.15-.01h-.07zM4.6 6.87 4.47 7l-.12.13a8.85 8.85 0 0 0-.75.93l-.04.05a5.78 5.78 0 0 0-.15.23l-.03.04a8.83 8.83 0 0 0-1.37 4.4v.17l-.01.18h5.26l.01-.18.01-.17a3.57 3.57 0 0 1 .8-1.92c.03-.05.08-.09.12-.13.04-.05.07-.1.12-.14L4.6 6.88zM18.14 8.1l-3.89 3.89c.1.26.15.52.18.8h5.28v-.08a8.19 8.19 0 0 0-.02-.14v-.07l-.01-.17v-.04a14.38 14.38 0 0 0-.03-.2v-.01a10.66 10.66 0 0 0-.03-.21 8.9 8.9 0 0 0-.27-1.24v-.01a8.28 8.28 0 0 0-.06-.2 8.21 8.21 0 0 0-.07-.19l-.01-.04a6.3 6.3 0 0 0-.08-.22 6.2 6.2 0 0 0-.05-.12l-.04-.1-.04-.1-.05-.11a11.05 11.05 0 0 0-.1-.21l-.02-.04-.08-.17V9.1a10.39 10.39 0 0 0-.1-.17v-.01a8.81 8.81 0 0 0-.5-.82zm-5.01 7.82a3.48 3.48 0 0 1-.13.1l.01.01 2.72 4.5.37-.25a9.03 9.03 0 0 0 .76-.63l-3.72-3.71-.01-.02zm-4.55 0-.01.02-3.72 3.71.06.06.1.1c.02 0 .04.02.06.04l.13.1.03.03.15.12.01.02.16.12a8.9 8.9 0 0 0 .7.47l.03.02a9.16 9.16 0 0 0 .45.25l.02.01a8.21 8.21 0 0 0 .4.2l.14-.32 1.87-4.54v-.02a3.55 3.55 0 0 1-.58-.39z"/><path fill="#424242" d="M19.53 2a2.46 2.46 0 0 0-1.74.72 2.47 2.47 0 0 0-.47 2.84l-5.37 5.37a2.47 2.47 0 1 0 1.12 1.12l5.37-5.37a2.47 2.47 0 0 0 2.84-3.96A2.46 2.46 0 0 0 19.53 2z" data-mit-no-recolor="true"/></svg>