<?xml version="1.0" encoding="UTF-8" standalone="no"?>
<svg
   id="Layer_1"
   data-name="Layer 1"
   viewBox="0 0 32 32"
   version="1.1"
   sodipodi:docname="opentofu_light.svg"
   inkscape:version="1.4.2 (ebf0e940, 2025-05-08)"
   xmlns:inkscape="http://www.inkscape.org/namespaces/inkscape"
   xmlns:sodipodi="http://sodipodi.sourceforge.net/DTD/sodipodi-0.dtd"
   xmlns="http://www.w3.org/2000/svg"
   xmlns:svg="http://www.w3.org/2000/svg">
  <sodipodi:namedview
     id="namedview6"
     pagecolor="#ffffff"
     bordercolor="#000000"
     borderopacity="0.25"
     inkscape:showpageshadow="2"
     inkscape:pageopacity="0.0"
     inkscape:pagecheckerboard="0"
     inkscape:deskcolor="#d1d1d1"
     inkscape:zoom="14.960419"
     inkscape:cx="18.482102"
     inkscape:cy="14.438098"
     inkscape:window-width="1728"
     inkscape:window-height="1073"
     inkscape:window-x="78"
     inkscape:window-y="40"
     inkscape:window-maximized="0"
     inkscape:current-layer="Layer_1"
     showgrid="true">
    <inkscape:grid
       id="grid1"
       units="px"
       originx="0"
       originy="0"
       spacingx="1"
       spacingy="1"
       empcolor="#0099e5"
       empopacity="0.30196078"
       color="#00e514"
       opacity="0.14902"
       empspacing="5"
       enabled="true"
       visible="true" />
  </sodipodi:namedview>
  <defs
     id="defs1">
    <style
       id="style1">
      .cls-1 {
        fill: #FAFAFA;
      }

      .cls-2 {
        fill: #FFD600;
      }

      .cls-3 {
        fill: #FFCA28;
      }

      .cls-4, .cls-5 {
        fill: #263238;
      }

      .cls-5 {
        fill-rule: evenodd;
      }
    </style>
  </defs>
  <path
     class="cls-5"
     d="m 17.021333,1.2578953 c -0.634185,-0.34386041 -1.408481,-0.34386041 -2.042666,0 L 4.5072425,6.9645154 c 0,0 -0.014748,0.00731 -0.022123,0.014633 l -1.378983,0.753566 C 2.4203318,8.0985234 2,8.8081931 2,9.5763914 V 22.416288 c 0,0.768198 0.4203318,1.477868 1.0987622,1.850993 l 10.5746648,5.765148 c 0,0 0.02949,0.01464 0.04424,0.02196 l 1.260996,0.687721 c 0.634184,0.343859 1.40848,0.343859 2.042664,0 l 1.26837,-0.687721 c 0,0 0.02212,-0.01463 0.03687,-0.02196 L 28.901238,24.267281 C 29.579668,23.894156 30,23.191802 30,22.423604 V 9.5763914 C 30,8.8081931 29.579668,8.0985234 28.901238,7.7327143 l -1.37161,-0.7462504 c 0,0 -0.02213,-0.014632 -0.0295,-0.014632 z m 0.671056,14.7421017 9.800368,-5.340811 c 0,0 0.02213,-0.01463 0.02949,-0.01463 l 0.117988,-0.06585 c 0.324467,-0.175589 0.722676,0.05854 0.722676,0.424337 v 9.993907 c 0,0.365809 -0.398209,0.599927 -0.722676,0.424337 l -0.08849,-0.05121 c 0,0 -0.03687,-0.02195 -0.059,-0.02927 z M 4.4777456,10.637238 c 0,0 0.014749,0.0073 0.022122,0.01463 l 9.8003694,5.340813 -9.7929943,5.348127 c 0,0 -0.036871,0.02196 -0.051619,0.02926 l -0.095866,0.05122 C 4.0352908,21.596877 3.6370817,21.362758 3.6370817,20.99695 V 10.995732 c 0,-0.365809 0.3982091,-0.599927 0.7226757,-0.424338 l 0.125362,0.06585 z M 26.718462,8.3911708 17.537529,3.3869036 C 17.213063,3.2113153 16.822228,3.4381172 16.814854,3.7966097 V 14.631871 l 9.903608,-5.3993397 c 0.317092,-0.1902206 0.317092,-0.6438237 0,-0.8340444 z M 5.2741638,9.2252153 15.177772,14.624556 V 3.7966097 C 15.170398,3.4381169 14.772188,3.2113153 14.455096,3.3869036 L 5.2741638,8.3911708 c -0.3244667,0.1902208 -0.3244667,0.6511399 0,0.8340445 z M 5.288912,23.608824 C 4.9570713,23.42592 4.9496971,22.965 5.2667896,22.77478 l 9.9183564,-5.406657 v 10.835262 c -0.0074,0.351177 -0.390834,0.577978 -0.707927,0.424338 L 5.2889123,23.61614 Z m 11.525942,4.572613 V 17.360806 l 9.918356,5.406658 c 0.309719,0.197536 0.302344,0.658456 -0.02949,0.834043 l -9.180933,5.011584 c -0.317092,0.160956 -0.693179,-0.06585 -0.707927,-0.417022 v 0 z"
     id="path1"
     style="stroke-width:0.734515" />
  <path
     class="cls-3"
     d="m 15.760337,2.669918 c 0.147485,-0.080478 0.324467,-0.080478 0.471952,0 l 10.471425,5.7139361 c 0.339215,0.1829046 0.339215,0.6657726 0,0.8486772 L 16.232289,14.946467 c -0.147485,0.08048 -0.324467,0.08048 -0.471952,0 L 5.2889123,9.2325313 c -0.3392152,-0.1829046 -0.3392152,-0.6657726 0,-0.8486772 z"
     id="path2"
     style="stroke-width:0.734515" />
  <path
     class="cls-2"
     d="m 3.6297077,10.99573 c 0,-0.365809 0.3982091,-0.599927 0.7226758,-0.424338 l 10.5746635,5.76515 c 0.154859,0.08779 0.250725,0.24875 0.250725,0.424337 v 11.420558 c 0,0.365809 -0.398209,0.599926 -0.722676,0.424338 L 3.8878061,22.847942 C 3.7329471,22.760148 3.637082,22.599191 3.637082,22.423604 V 10.99573 Z"
     id="path3"
     style="stroke-width:0.734515" />
  <path
     class="cls-1"
     d="m 27.640242,10.571392 c 0.324467,-0.175589 0.722676,0.05854 0.722676,0.424338 v 11.420558 c 0,0.175587 -0.09586,0.34386 -0.250725,0.424337 l -10.574664,5.76515 c -0.324466,0.175588 -0.722675,-0.05854 -0.722675,-0.424338 V 16.760879 c 0,-0.175587 0.09586,-0.34386 0.250723,-0.424337 z"
     id="path4"
     style="stroke-width:0.734515" />
  <path
     class="cls-4"
     d="m 8.0690019,19.958051 c 0,0 0,0.0073 0,0.01463 L 5.5912562,18.67772 c 0,0 0,-0.0073 0,-0.01463 0.058994,-0.768199 0.6563077,-1.097426 1.3421122,-0.738935 0.6858046,0.358493 1.1946274,1.265699 1.1356335,2.033899 z"
     id="path5"
     style="stroke-width:0.734515" />
  <path
     class="cls-4"
     d="m 11.969976,22.189486 c 0,0 0,0.0073 0,0.01463 L 9.4922306,20.909152 c 0,0 0,-0.0073 0,-0.01464 0.058996,-0.768199 0.6563074,-1.097428 1.3421114,-0.738934 0.685805,0.358492 1.194629,1.265698 1.135634,2.033898 z"
     id="path6"
     style="stroke-width:0.734515" />
</svg>
