<svg version="1.1" viewBox="0 0 24 24" xmlns="http://www.w3.org/2000/svg"><path d="m 19.534 2 a 2.459 2.459 0 0 0 -1.744 0.722 2.466 2.466 0 0 0 -0.465 2.84 l -5.372 5.372 a 2.466 2.466 0 1 0 1.113 1.115 L 18.438 6.676 A 2.466 2.466 0 0 0 21.278 2.722 2.457 2.457 0 0 0 19.533 2 Z M 10.857 4.285 10.679 4.29 10.501 4.294 A 8.945 8.945 0 0 0 9.388 4.408 L 9.363 4.412 A 9.296 9.296 0 0 0 9.121 4.457 L 9.031 4.476 8.881 4.509 8.853 4.515 A 8.888 8.888 0 0 0 6.729 5.308 C 6.685 5.331 6.642 5.358 6.599 5.381 A 9.92 9.92 0 0 0 6.443 5.469 L 6.328 5.534 6.326 5.535 6.318 5.539 6.288 5.556 V 5.557 L 6.381 5.71 9.006 10.07 C 9.057 10.038 9.11 10.01 9.162 9.982 a 3.98 3.98 0 0 1 0.16 -0.081 3.59 3.59 0 0 1 1.179 -0.33 3.696 3.696 0 0 1 0.356 -0.02 z m 0.357 0.008 v 5.278 a 3.668 3.668 0 0 1 0.799 0.174 L 15.897 5.86 A 9.363 9.363 0 0 0 15.457 5.573 L 15.437 5.56 15.297 5.477 15.215 5.431 15.132 5.385 14.989 5.307 14.967 5.295 A 8.776 8.776 0 0 0 14.017 4.869 L 13.992 4.859 C 13.922 4.833 13.851 4.806 13.78 4.781 A 8.913 8.913 0 0 0 12.006 4.36 L 11.932 4.35 11.858 4.342 11.714 4.326 11.674 4.322 A 5.901 5.901 0 0 0 11.504 4.308 L 11.438 4.304 11.292 4.296 Z M 5.985 5.748 C 5.859 5.83 5.735 5.915 5.614 6.004 A 8.948 8.948 0 0 0 4.852 6.633 L 8.57 10.35 8.585 10.365 C 8.625 10.332 8.667 10.3 8.709 10.269 L 8.699 10.254 Z M 4.595 6.88 C 4.552 6.923 4.513 6.967 4.472 7.01 4.43 7.053 4.388 7.095 4.348 7.139 A 8.847 8.847 0 0 0 3.596 8.071 L 3.563 8.117 A 5.782 5.782 0 0 0 3.411 8.346 L 3.383 8.389 a 8.832 8.832 0 0 0 -1.375 4.397 c -0.003 0.06 -0.004 0.12 -0.005 0.178 L 2 13.144 h 5.264 c 0 -0.06 0.006 -0.12 0.01 -0.18 0.002 -0.06 0.003 -0.119 0.009 -0.178 a 3.572 3.572 0 0 1 0.794 -1.918 c 0.038 -0.045 0.08 -0.088 0.12 -0.132 0.04 -0.044 0.077 -0.09 0.12 -0.133 z M 18.14 8.1 14.254 11.986 c 0.089 0.261 0.147 0.529 0.175 0.8 h 5.277 l -0.004 -0.078 a 8.186 8.186 0 0 0 -0.008 -0.142 l -0.005 -0.07 -0.014 -0.167 -0.003 -0.044 A 14.384 14.384 0 0 0 19.65 12.084 V 12.077 A 10.656 10.656 0 0 0 19.622 11.87 8.9 8.9 0 0 0 19.35 10.625 l -0.003 -0.008 a 8.28 8.28 0 0 0 -0.058 -0.19 8.21 8.21 0 0 0 -0.065 -0.195 L 19.208 10.186 A 6.293 6.293 0 0 0 19.128 9.969 6.191 6.191 0 0 0 19.08 9.848 L 19.042 9.753 19.002 9.659 18.95 9.539 A 11.05 11.05 0 0 0 18.852 9.329 L 18.832 9.285 18.752 9.123 18.741 9.102 A 10.388 10.388 0 0 0 18.647 8.925 L 18.644 8.918 A 8.81 8.81 0 0 0 18.14 8.1 Z m -3.692 5.043 c 0 0.06 -0.006 0.119 -0.009 0.178 -0.002 0.06 -0.003 0.12 -0.01 0.179 a 3.573 3.573 0 0 1 -0.794 1.918 c -0.037 0.046 -0.08 0.088 -0.12 0.132 -0.04 0.044 -0.077 0.09 -0.12 0.133 l 3.723 3.723 c 0.043 -0.042 0.082 -0.087 0.124 -0.13 0.041 -0.042 0.084 -0.085 0.124 -0.128 a 8.94 8.94 0 0 0 0.753 -0.936 c 0.01 -0.012 0.018 -0.025 0.027 -0.037 a 9.765 9.765 0 0 0 0.152 -0.228 l 0.034 -0.053 A 8.828 8.828 0 0 0 19.704 13.5 c 0.003 -0.06 0.004 -0.12 0.005 -0.179 0.001 -0.06 0.003 -0.119 0.002 -0.178 z m -12.44 0.358 c 0 0.026 0 0.05 0.002 0.076 0.002 0.05 0.006 0.1 0.009 0.149 a 8.074 8.074 0 0 0 0.019 0.236 L 2.042 14 c 0.006 0.063 0.012 0.126 0.02 0.19 l 0.002 0.018 0.027 0.204 v 0.003 c 0.061 0.42 0.152 0.838 0.273 1.248 l 0.002 0.004 c 0.019 0.065 0.038 0.129 0.059 0.193 l 0.004 0.012 a 9.456 9.456 0 0 0 0.062 0.184 l 0.015 0.044 0.054 0.15 0.026 0.067 0.048 0.123 0.038 0.093 0.04 0.096 0.052 0.118 0.03 0.069 0.067 0.14 0.022 0.046 0.078 0.16 0.013 0.023 c 0.03 0.059 0.062 0.118 0.093 0.176 l 0.004 0.008 0.02 0.035 4.507 -2.715 0.017 -0.01 a 3.584 3.584 0 0 1 -0.33 -1.178 h -0.02 z m 0.42 2.37 -0.172 0.05 0.002 0.004 z M 7.782 14.995 3.27 17.713 c 0.069 0.115 0.14 0.228 0.215 0.338 l 0.008 0.012 0.002 0.004 0.006 0.011 10e-4 0.002 a 0.707 0.707 0 0 0 0.019 0.026 v 0.002 h 10e-4 c 0.079 0.117 0.159 0.23 0.242 0.342 l 0.006 0.007 0.005 0.007 c 0.036 0.047 0.072 0.096 0.11 0.143 l 0.014 0.018 c 0.038 0.05 0.077 0.097 0.117 0.145 l 0.029 0.035 0.108 0.127 0.047 0.054 0.094 0.105 0.053 0.058 0.024 0.025 0.069 0.075 0.028 0.03 0.126 0.127 3.722 -3.723 A 3.637 3.637 0 0 1 8.194 15.553 3.56 3.56 0 0 1 8.079 15.416 3.478 3.478 0 0 1 7.982 15.291 3.643 3.643 0 0 1 7.878 15.146 c -0.033 -0.05 -0.066 -0.1 -0.096 -0.15 z m 5.347 0.926 a 3.478 3.478 0 0 1 -0.125 0.096 l 0.01 0.016 2.714 4.506 c 0.126 -0.082 0.25 -0.167 0.371 -0.256 a 9.034 9.034 0 0 0 0.762 -0.63 l -3.717 -3.717 z m -4.547 0.002 -0.013 0.013 -3.717 3.717 c 0.019 0.018 0.037 0.036 0.057 0.053 L 5.015 19.8 c 0.018 0.016 0.035 0.033 0.054 0.048 l 0.127 0.107 0.034 0.028 c 0.048 0.04 0.096 0.079 0.145 0.117 l 0.019 0.015 c 0.052 0.042 0.106 0.082 0.159 0.123 0.003 0.001 0.005 0.002 0.006 0.004 a 8.905 8.905 0 0 0 0.696 0.47 l 0.025 0.016 a 9.156 9.156 0 0 0 0.446 0.251 l 0.02 0.011 a 8.212 8.212 0 0 0 0.411 0.2 l 0.132 -0.32 1.87 -4.541 0.006 -0.017 A 3.548 3.548 0 0 1 8.582 15.923 Z m 4.126 0.294 c -0.05 0.031 -0.104 0.059 -0.156 0.087 a 3.6 3.6 0 0 1 -1.701 0.429 3.59 3.59 0 0 1 -1.026 -0.15 C 9.768 16.566 9.713 16.545 9.657 16.525 9.601 16.505 9.544 16.487 9.489 16.465 L 7.62 21.001 7.547 21.179 7.484 21.331 v 0.001 l 0.014 0.006 0.016 0.006 0.004 10e-4 c 0.044 0.018 0.088 0.034 0.133 0.05 0.055 0.022 0.11 0.044 0.166 0.064 0.029 0.01 0.056 0.023 0.085 0.033 a 8.893 8.893 0 0 0 1.807 0.432 l 0.072 0.01 0.076 0.008 c 0.047 0.006 0.094 0.01 0.142 0.015 l 0.036 0.004 a 8.664 8.664 0 0 0 0.387 0.027 l 0.094 0.004 0.122 0.004 c 0.059 0.002 0.117 0.002 0.176 0.002 h 0.042 a 8.88 8.88 0 0 0 1.47 -0.122 l 0.024 -0.004 0.154 -0.028 0.088 -0.017 a 9.857 9.857 0 0 0 0.241 -0.051 8.916 8.916 0 0 0 2.151 -0.799 c 0.044 -0.023 0.088 -0.05 0.132 -0.073 0.052 -0.028 0.103 -0.058 0.155 -0.088 l 0.108 -0.061 0.002 -0.002 h 10e-4 l 0.002 -0.001 c 0.002 -0.002 0.005 -0.002 0.007 -0.003 l 0.035 -0.021 -0.092 -0.152 -0.092 -0.153 z m 2.684 4.533 0.034 -0.02 z" fill="#4caf50" /></svg>