<svg version="1.1" viewBox="0 0 24 24" xmlns="http://www.w3.org/2000/svg"><path d="M 19.513 2 c -0.653 0 -1.281 0.259 -1.742 0.722 -0.748 0.748 -0.934 1.889 -0.464 2.837 L 11.942 10.923 C 9.441 9.681 7.134 12.897 9.103 14.87 11.072 16.842 14.291 14.54 13.054 12.037 L 18.418 6.67 C 20.92 7.915 23.234 4.694 21.255 2.722 20.793 2.259 20.167 1.999 19.513 2 Z M 10.843 4.283 A 8.843 8.843 0 0 0 2 13.126 8.843 8.843 0 0 0 10.843 21.967 8.843 8.843 0 0 0 19.684 13.126 8.843 8.843 0 0 0 18.134 8.124 L 14.273 11.984 A 3.616 3.616 0 0 1 14.458 13.126 3.616 3.616 0 0 1 10.843 16.741 3.616 3.616 0 0 1 7.226 13.126 3.616 3.616 0 0 1 10.843 9.509 3.616 3.616 0 0 1 12.027 9.71 L 15.88 5.857 A 8.843 8.843 0 0 0 10.843 4.283 Z" fill="#4caf50" /></svg>