<?xml version="1.0" encoding="UTF-8" standalone="no"?>
<svg xmlns="http://www.w3.org/2000/svg" viewBox="0 0 24 24" version="1.1">
    <path d="M 12 2 A 10 10 0 0 0 2 12 A 10 10 0 0 0 2.3320312 14.503906 L 4.046875 12.789062 A 8 8 0 0 1 4 12 A 8 8 0 0 1 12 4 A 8 8 0 0 1 20 12 A 8 8 0 0 1 12 20 A 8 8 0 0 1 6.0195312 17.298828 L 4.6035156 18.712891 A 10 10 0 0 0 12 22 A 10 10 0 0 0 22 12 A 10 10 0 0 0 12 2 z " fill="#eeeeee" />
    <path d="M 11.898438 6.8242188 L 10.632812 8.0917969 L 2.8027344 15.921875 C 3.0468516 16.49727 3.3443774 17.048509 3.6914062 17.568359 L 11.921875 9.3574219 L 17.767578 15.203125 A 6.5999999 6.5999999 0 0 0 18.451172 13.376953 L 13.166016 8.0917969 L 11.898438 6.8242188 z " fill="#e64a19" />
</svg>