<?xml version="1.0" encoding="UTF-8" standalone="no"?>
<svg
   id="Layer_1"
   data-name="Layer 1"
   viewBox="0 0 32 32"
   version="1.1"
   sodipodi:docname="opentofu_light.svg"
   inkscape:version="1.4.2 (ebf0e940, 2025-05-08)"
   xmlns:inkscape="http://www.inkscape.org/namespaces/inkscape"
   xmlns:sodipodi="http://sodipodi.sourceforge.net/DTD/sodipodi-0.dtd"
   xmlns="http://www.w3.org/2000/svg"
   xmlns:svg="http://www.w3.org/2000/svg">
  <sodipodi:namedview
     id="namedview6"
     pagecolor="#ffffff"
     bordercolor="#000000"
     borderopacity="0.25"
     inkscape:showpageshadow="2"
     inkscape:pageopacity="0.0"
     inkscape:pagecheckerboard="0"
     inkscape:deskcolor="#d1d1d1"
     inkscape:zoom="24.725757"
     inkscape:cx="13.811508"
     inkscape:cy="16.137019"
     inkscape:window-width="1728"
     inkscape:window-height="1045"
     inkscape:window-x="78"
     inkscape:window-y="40"
     inkscape:window-maximized="0"
     inkscape:current-layer="Layer_1"
     showgrid="true">
    <inkscape:grid
       id="grid1"
       units="px"
       originx="0"
       originy="0"
       spacingx="1"
       spacingy="1"
       empcolor="#0099e5"
       empopacity="0.30196078"
       color="#00e514"
       opacity="0.14902"
       empspacing="5"
       enabled="true"
       visible="true" />
  </sodipodi:namedview>
  <defs
     id="defs1">
    <style
       id="style1">
      .cls-1 {
        fill: #FAFAFA;
      }

      .cls-2 {
        fill: #FFD600;
      }

      .cls-3 {
        fill: #FFCA28;
      }

      .cls-4, .cls-5 {
        fill: #263238;
      }

      .cls-5 {
        fill-rule: evenodd;
      }
    </style>
  </defs>
  <path
     class="cls-5"
     d="m 16.875429,2.2407014 c -0.543588,-0.3209352 -1.20727,-0.3209352 -1.750858,0 L 6.149065,7.5668667 c 0,0 -0.012641,0.00691 -0.018963,0.013653 L 4.948117,8.2838476 C 4.3602844,8.6252715 4,9.2876281 4,10.004611 v 11.983867 c 0,0.716995 0.3602844,1.379345 0.9417962,1.72759 l 9.0639988,5.380797 c 0,0 0.02528,0.01364 0.03792,0.02056 l 1.080853,0.641871 c 0.543587,0.320939 1.207268,0.320939 1.750855,0 l 1.087174,-0.641871 c 0,0 0.01896,-0.01363 0.0316,-0.02056 l 9.064007,-5.380797 C 27.639716,23.367823 28,22.712289 28,21.995311 v -11.9907 C 28,9.2876281 27.639716,8.6252715 27.058204,8.2838504 L 25.882539,7.5873521 c 0,0 -0.01897,-0.013652 -0.02529,-0.013652 z m 0.575191,13.7592636 8.400314,-4.98475 c 0,0 0.01897,-0.01363 0.02528,-0.01363 l 0.101132,-0.06145 c 0.278115,-0.163888 0.619437,0.05462 0.619437,0.396047 v 9.327625 c 0,0.341409 -0.341322,0.559927 -0.619437,0.396037 l -0.07585,-0.04781 c 0,0 -0.0316,-0.02055 -0.05057,-0.02727 z M 6.123782,10.994737 c 0,0 0.012641,0.0073 0.018962,0.01363 l 8.400317,4.984742 -8.3939955,4.991579 c 0,0 -0.031603,0.02056 -0.044244,0.02726 l -0.08217,0.04782 C 5.7445356,21.223663 5.4032136,21.005138 5.4032136,20.663736 v -9.334438 c 0,-0.341426 0.341322,-0.559935 0.6194363,-0.396049 l 0.1074531,0.06145 z M 25.187254,8.8984079 17.317882,4.2277704 c -0.278114,-0.1638816 -0.613115,0.0478 -0.619436,0.382392 V 14.723049 l 8.488808,-5.0393728 c 0.271792,-0.1775386 0.271792,-0.6009011 0,-0.7784399 z M 6.8064262,9.6768482 15.295233,14.716224 V 4.6101624 C 15.288913,4.2755697 14.947589,4.0638888 14.675796,4.2277704 L 6.8064262,8.8984079 c -0.2781144,0.1775389 -0.2781144,0.6077297 0,0.7784403 z M 6.8190675,23.101511 C 6.5346325,22.930807 6.5283118,22.500607 6.8001053,22.32307 l 8.5014487,-5.046199 v 10.11289 c -0.0063,0.327767 -0.335001,0.539448 -0.606795,0.396048 L 6.8190676,23.108347 Z m 9.8793785,4.267762 V 17.270052 l 8.501448,5.046199 c 0.265474,0.184356 0.259152,0.614556 -0.02528,0.778438 l -7.86937,4.677464 c -0.271794,0.15022 -0.594154,-0.06145 -0.606795,-0.389218 v 0 z"
     id="path1"
     style="stroke-width:0.656969" />
  <path
     class="cls-3"
     d="m 15.794574,3.5585869 c 0.126416,-0.075118 0.278115,-0.075118 0.404531,0 l 8.975507,5.3329922 c 0.290756,0.1707106 0.290756,0.6213865 0,0.7920971 l -8.975507,5.3329988 c -0.126416,0.07508 -0.278115,0.07508 -0.404531,0 L 6.8190676,9.6836762 c -0.2907558,-0.1707106 -0.2907558,-0.6213865 0,-0.7920971 z"
     id="path2"
     style="stroke-width:0.656969" />
  <path
     class="cls-2"
     d="m 5.3968924,11.329326 c 0,-0.341426 0.341322,-0.559933 0.6194363,-0.396049 l 9.0639973,5.380793 c 0.132736,0.08199 0.214907,0.23217 0.214907,0.396047 v 10.659156 c 0,0.341419 -0.341322,0.559936 -0.619437,0.396048 L 5.6181196,22.391362 C 5.4853832,22.309415 5.4032132,22.159198 5.4032132,21.995311 V 11.329326 Z"
     id="path3"
     style="stroke-width:0.656969" />
  <path
     class="cls-1"
     d="m 25.97735,10.933277 c 0.278115,-0.163884 0.619436,0.05461 0.619436,0.396049 v 10.659152 c 0,0.163884 -0.08217,0.320937 -0.214906,0.396054 l -9.063998,5.380789 c -0.278114,0.163888 -0.619436,-0.05465 -0.619436,-0.396048 V 16.710117 c 0,-0.163877 0.08217,-0.32093 0.214906,-0.396047 z"
     id="path4"
     style="stroke-width:0.656969" />
  <path
     class="cls-4"
     d="m 9.2020016,19.694138 c 0,0 0,0.0073 0,0.01363 l -2.123782,-1.208601 c 0,0 0,-0.0073 0,-0.01363 0.050566,-0.716989 0.5625495,-1.024256 1.1503819,-0.689665 0.5878325,0.334593 1.0239663,1.181308 0.9734001,1.898298 z"
     id="path5"
     style="stroke-width:0.656969" />
  <path
     class="cls-4"
     d="m 12.545693,21.776798 c 0,0 0,0.0073 0,0.01363 l -2.123781,-1.208615 c 0,0 0,-0.0073 0,-0.01364 0.05057,-0.716979 0.56255,-1.024268 1.150382,-0.689674 0.587832,0.334592 1.023966,1.181318 0.973399,1.898304 z"
     id="path6"
     style="stroke-width:0.656969" />
</svg>
