<?xml version="1.0" encoding="UTF-8" standalone="no"?>
<svg
   id="Layer_1"
   data-name="Layer 1"
   viewBox="0 0 32 32"
   version="1.1"
   sodipodi:docname="opentofu_light.svg"
   inkscape:version="1.4.2 (ebf0e940, 2025-05-08)"
   xmlns:inkscape="http://www.inkscape.org/namespaces/inkscape"
   xmlns:sodipodi="http://sodipodi.sourceforge.net/DTD/sodipodi-0.dtd"
   xmlns="http://www.w3.org/2000/svg"
   xmlns:svg="http://www.w3.org/2000/svg">
  <sodipodi:namedview
     id="namedview6"
     pagecolor="#ffffff"
     bordercolor="#000000"
     borderopacity="0.25"
     inkscape:showpageshadow="2"
     inkscape:pageopacity="0.0"
     inkscape:pagecheckerboard="0"
     inkscape:deskcolor="#d1d1d1"
     inkscape:zoom="24.725757"
     inkscape:cx="16.844783"
     inkscape:cy="15.085484"
     inkscape:window-width="1728"
     inkscape:window-height="1073"
     inkscape:window-x="78"
     inkscape:window-y="40"
     inkscape:window-maximized="0"
     inkscape:current-layer="Layer_1"
     showgrid="true">
    <inkscape:grid
       id="grid1"
       units="px"
       originx="0"
       originy="0"
       spacingx="1"
       spacingy="1"
       empcolor="#0099e5"
       empopacity="0.30196078"
       color="#00e514"
       opacity="0.14902"
       empspacing="5"
       enabled="true"
       visible="true" />
  </sodipodi:namedview>
  <defs
     id="defs1">
    <style
       id="style1">
      .cls-1 {
        fill: #FAFAFA;
      }

      .cls-2 {
        fill: #FFD600;
      }

      .cls-3 {
        fill: #FFCA28;
      }

      .cls-4, .cls-5 {
        fill: #263238;
      }

      .cls-5 {
        fill-rule: evenodd;
      }
    </style>
  </defs>
  <path
     class="cls-5"
     d="m 16.948381,2.2407014 c -0.588887,-0.3209352 -1.307875,-0.3209352 -1.896762,0 L 5.3281537,7.5668667 c 0,0 -0.013694,0.00691 -0.020543,0.013653 L 4.0271267,8.2838476 C 3.3903081,8.6252715 3,9.2876281 3,10.004611 v 11.983867 c 0,0.716995 0.3903081,1.379345 1.0202792,1.72759 l 9.8193318,5.380797 c 0,0 0.02739,0.01364 0.04108,0.02056 l 1.170924,0.641871 c 0.588886,0.320939 1.307874,0.320939 1.89676,0 l 1.177772,-0.641871 c 0,0 0.02054,-0.01363 0.03423,-0.02056 l 9.819341,-5.380797 C 28.609692,23.367823 29,22.712289 29,21.995311 v -11.9907 C 29,9.2876281 28.609692,8.6252715 27.979721,8.2838504 L 26.706084,7.5873521 c 0,0 -0.02055,-0.013652 -0.0274,-0.013652 z m 0.623124,13.7592636 9.10034,-4.98475 c 0,0 0.02055,-0.01363 0.02739,-0.01363 l 0.10956,-0.06145 c 0.301291,-0.163888 0.671056,0.05462 0.671056,0.396047 v 9.327625 c 0,0.341409 -0.369765,0.559927 -0.671056,0.396037 l -0.08217,-0.04781 c 0,0 -0.03423,-0.02055 -0.05478,-0.02727 z M 5.3007638,10.994737 c 0,0 0.013695,0.0073 0.020542,0.01363 l 9.1003432,4.984742 -9.0934949,4.991579 c 0,0 -0.034237,0.02056 -0.047931,0.02726 l -0.089018,0.04782 c -0.3012915,0.163895 -0.671057,-0.05463 -0.671057,-0.396032 v -9.334438 c 0,-0.341426 0.3697655,-0.559935 0.671056,-0.396049 l 0.1164075,0.06145 z M 25.952858,8.8984079 17.427705,4.2277704 c -0.30129,-0.1638816 -0.664207,0.0478 -0.671055,0.382392 V 14.723049 l 9.196208,-5.0393728 c 0.294442,-0.1775386 0.294442,-0.6009011 0,-0.7784399 z M 6.040295,9.6768482 15.236502,14.716224 V 4.6101624 C 15.229656,4.2755697 14.859888,4.0638888 14.565446,4.2277704 L 6.040295,8.8984079 c -0.3012905,0.1775389 -0.3012905,0.6077297 0,0.7784403 z M 6.0539898,23.101511 C 5.7458519,22.930807 5.7390045,22.500607 6.0334474,22.32307 L 15.24335,17.276871 v 10.11289 c -0.0068,0.327767 -0.362918,0.539448 -0.657361,0.396048 L 6.0539899,23.108347 Z M 16.75665,27.369273 V 17.270052 l 9.209902,5.046199 c 0.287597,0.184356 0.280748,0.614556 -0.02739,0.778438 l -8.525151,4.677464 c -0.294443,0.15022 -0.643667,-0.06145 -0.657361,-0.389218 v 0 z"
     id="path1"
     style="stroke-width:0.683795" />
  <path
     class="cls-3"
     d="m 15.777455,3.5585869 c 0.136951,-0.075118 0.301291,-0.075118 0.438242,0 l 9.723466,5.3329922 c 0.314986,0.1707106 0.314986,0.6213865 0,0.7920971 l -9.723466,5.3329988 c -0.136951,0.07508 -0.301291,0.07508 -0.438242,0 L 6.0539899,9.6836762 c -0.3149854,-0.1707106 -0.3149854,-0.6213865 0,-0.7920971 z"
     id="path2"
     style="stroke-width:0.683795" />
  <path
     class="cls-2"
     d="m 4.5133001,11.329326 c 0,-0.341426 0.3697655,-0.559933 0.671056,-0.396049 l 9.8193309,5.380793 c 0.143797,0.08199 0.232815,0.23217 0.232815,0.396047 v 10.659156 c 0,0.341419 -0.369765,0.559936 -0.671056,0.396048 L 4.7529629,22.391362 C 4.6091651,22.309415 4.5201476,22.159198 4.5201476,21.995311 V 11.329326 Z"
     id="path3"
     style="stroke-width:0.683795" />
  <path
     class="cls-1"
     d="m 26.808796,10.933277 c 0.301291,-0.163884 0.671056,0.05461 0.671056,0.396049 v 10.659152 c 0,0.163884 -0.08902,0.320937 -0.232815,0.396054 l -9.819332,5.380789 c -0.30129,0.163888 -0.671055,-0.05465 -0.671055,-0.396048 V 16.710117 c 0,-0.163877 0.08902,-0.32093 0.232815,-0.396047 z"
     id="path4"
     style="stroke-width:0.683795" />
  <path
     class="cls-4"
     d="m 8.6355017,19.694138 c 0,0 0,0.0073 0,0.01363 L 6.3347379,18.499167 c 0,0 0,-0.0073 0,-0.01363 0.05478,-0.716989 0.6094286,-1.024256 1.2462471,-0.689665 0.6368185,0.334593 1.1092968,1.181308 1.0545167,1.898298 z"
     id="path5"
     style="stroke-width:0.683795" />
  <path
     class="cls-4"
     d="m 12.257834,21.776798 c 0,0 0,0.0073 0,0.01363 L 9.9570713,20.581813 c 0,0 0,-0.0073 0,-0.01364 0.054783,-0.716979 0.6094287,-1.024268 1.2462467,-0.689674 0.636819,0.334592 1.109297,1.181318 1.054516,1.898304 z"
     id="path6"
     style="stroke-width:0.683795" />
</svg>
