<?xml version="1.0" encoding="UTF-8" standalone="no"?>
<svg xmlns="http://www.w3.org/2000/svg" viewBox="0 0 24 24" version="1.1">
    <path d="M19.534 2a2.459 2.459 0 00-1.744.722 2.466 2.466 0 00-.465 2.84l-5.372 5.372a2.466 2.466 0 101.113 1.115l5.372-5.373a2.466 2.466 0 002.84-3.954A2.457 2.457 0 0019.533 2zm-8.677 2.285l-.178.005-.178.004a8.945 8.945 0 00-1.113.114l-.025.004a9.296 9.296 0 00-.242.045l-.09.019-.15.033-.028.006a8.888 8.888 0 00-2.124.793c-.044.023-.087.05-.13.073a9.92 9.92 0 00-.156.088l-.115.065-.002.001-.008.004-.03.017v.001l.093.153 2.625 4.36c.051-.032.104-.06.156-.088a3.98 3.98 0 01.16-.081 3.59 3.59 0 011.179-.33 3.696 3.696 0 01.356-.02zm.357.008v5.278a3.668 3.668 0 01.799.174l3.884-3.885a9.363 9.363 0 00-.44-.287l-.02-.013-.14-.083-.082-.046-.083-.046-.143-.078-.022-.012a8.776 8.776 0 00-.95-.426l-.025-.01c-.07-.026-.141-.053-.212-.078a8.913 8.913 0 00-1.774-.421l-.074-.01-.074-.008-.144-.016-.04-.004a5.901 5.901 0 00-.17-.014l-.066-.004-.146-.008-.078-.003zM5.985 5.748c-.126.082-.25.167-.371.256a8.948 8.948 0 00-.762.629L8.57 10.35l.015.015c.04-.033.082-.065.124-.096l-.01-.015zM4.595 6.88c-.043.043-.082.087-.123.13-.042.043-.084.085-.124.129a8.847 8.847 0 00-.752.932l-.033.046a5.782 5.782 0 00-.152.229l-.028.043a8.832 8.832 0 00-1.375 4.397c-.003.06-.004.12-.005.178l-.003.18h5.264c0-.06.006-.12.01-.18.002-.06.003-.119.009-.178a3.572 3.572 0 01.794-1.918c.038-.045.08-.088.12-.132.04-.044.077-.09.12-.133zM18.14 8.1l-3.886 3.886c.089.261.147.529.175.8h5.277l-.004-.078a8.186 8.186 0 00-.008-.142l-.005-.07-.014-.167-.003-.044a14.384 14.384 0 00-.022-.201v-.007a10.656 10.656 0 00-.028-.207 8.9 8.9 0 00-.272-1.245l-.003-.008a8.28 8.28 0 00-.058-.19 8.21 8.21 0 00-.065-.195l-.016-.046a6.293 6.293 0 00-.08-.217 6.191 6.191 0 00-.048-.121l-.038-.095-.04-.094-.052-.12a11.05 11.05 0 00-.098-.21l-.02-.044-.08-.162-.011-.021a10.388 10.388 0 00-.094-.177l-.003-.007a8.81 8.81 0 00-.504-.818zm-3.692 5.043c0 .06-.006.119-.009.178-.002.06-.003.12-.01.179a3.573 3.573 0 01-.794 1.918c-.037.046-.08.088-.12.132-.04.044-.077.09-.12.133l3.723 3.723c.043-.042.082-.087.124-.13.041-.042.084-.085.124-.128a8.94 8.94 0 00.753-.936c.01-.012.018-.025.027-.037a9.765 9.765 0 00.152-.228l.034-.053a8.828 8.828 0 001.372-4.394c.003-.06.004-.12.005-.179.001-.06.003-.119.002-.178zm-12.44.358c0 .026 0 .05.002.076.002.05.006.1.009.149a8.074 8.074 0 00.019.236l.004.038c.006.063.012.126.02.19l.002.018.027.204v.003c.061.42.152.838.273 1.248l.002.004c.019.065.038.129.059.193l.004.012a9.456 9.456 0 00.062.184l.015.044.054.15.026.067.048.123.038.093.04.096.052.118.03.069.067.14.022.046.078.16.013.023c.03.059.062.118.093.176l.004.008.02.035 4.507-2.715.017-.01a3.584 3.584 0 01-.33-1.178h-.02zm.42 2.37l-.172.05.002.004zm5.354-.876L3.27 17.713c.069.115.14.228.215.338l.008.012.002.004.006.011.001.002a.707.707 0 00.019.026v.002h.001c.079.117.159.23.242.342l.006.007.005.007c.036.047.072.096.11.143l.014.018c.038.05.077.097.117.145l.029.035.108.127.047.054.094.105.053.058.024.025.069.075.028.03.126.127 3.722-3.723a3.637 3.637 0 01-.122-.13 3.56 3.56 0 01-.115-.137 3.478 3.478 0 01-.097-.125 3.643 3.643 0 01-.104-.145c-.033-.05-.066-.1-.096-.15zm5.347.926a3.478 3.478 0 01-.125.096l.01.016 2.714 4.506c.126-.082.25-.167.371-.256a9.034 9.034 0 00.762-.63l-3.717-3.717zm-4.547.002l-.013.013-3.717 3.717c.019.018.037.036.057.053l.106.094c.018.016.035.033.054.048l.127.107.034.028c.048.04.096.079.145.117l.019.015c.052.042.106.082.159.123.003.001.005.002.006.004a8.905 8.905 0 00.696.47l.025.016a9.156 9.156 0 00.446.251l.02.011a8.212 8.212 0 00.411.2l.132-.32 1.87-4.541.006-.017a3.548 3.548 0 01-.583-.389zm4.126.294c-.05.031-.104.059-.156.087a3.6 3.6 0 01-1.701.429 3.59 3.59 0 01-1.026-.15c-.057-.017-.112-.038-.168-.058-.056-.02-.113-.038-.168-.06L7.62 21.001l-.073.178-.063.152v.001l.014.006.016.006.004.001c.044.018.088.034.133.05.055.022.11.044.166.064.029.01.056.023.085.033a8.893 8.893 0 001.807.432l.072.01.076.008c.047.006.094.01.142.015l.036.004a8.664 8.664 0 00.387.027l.094.004.122.004c.059.002.117.002.176.002h.042a8.88 8.88 0 001.47-.122l.024-.004.154-.028.088-.017a9.857 9.857 0 00.241-.051 8.916 8.916 0 002.151-.799c.044-.023.088-.05.132-.073.052-.028.103-.058.155-.088l.108-.061.002-.002h.001l.002-.001c.002-.002.005-.002.007-.003l.035-.021-.092-.152-.092-.153zm2.684 4.533l.034-.02z" fill="#4caf50" />
</svg>
