<?xml version="1.0" encoding="UTF-8" standalone="no"?>
<svg
   id="Layer_1"
   data-name="Layer 1"
   viewBox="0 0 32 32"
   version="1.1"
   sodipodi:docname="opentofu.svg"
   inkscape:version="1.4.2 (ebf0e940, 2025-05-08)"
   xmlns:inkscape="http://www.inkscape.org/namespaces/inkscape"
   xmlns:sodipodi="http://sodipodi.sourceforge.net/DTD/sodipodi-0.dtd"
   xmlns="http://www.w3.org/2000/svg"
   xmlns:svg="http://www.w3.org/2000/svg">
  <sodipodi:namedview
     id="namedview3"
     pagecolor="#ffffff"
     bordercolor="#000000"
     borderopacity="0.25"
     inkscape:showpageshadow="2"
     inkscape:pageopacity="0.0"
     inkscape:pagecheckerboard="0"
     inkscape:deskcolor="#d1d1d1"
     showgrid="true"
     inkscape:zoom="14.775907"
     inkscape:cx="13.77242"
     inkscape:cy="19.423512"
     inkscape:window-width="1728"
     inkscape:window-height="1073"
     inkscape:window-x="78"
     inkscape:window-y="40"
     inkscape:window-maximized="0"
     inkscape:current-layer="Layer_1">
    <inkscape:grid
       id="grid3"
       units="px"
       originx="0"
       originy="0"
       spacingx="1"
       spacingy="1"
       empcolor="#0099e5"
       empopacity="0.30196078"
       color="#00e514"
       opacity="0.14902"
       empspacing="5"
       enabled="true"
       visible="true" />
  </sodipodi:namedview>
  <defs
     id="defs1">
    <style
       id="style1">
      .cls-1 {
        fill: #FAFAFA;
      }

      .cls-2 {
        fill: #FFD600;
      }

      .cls-3 {
        fill: #FFCA28;
      }
    </style>
  </defs>
  <path
     class="cls-3"
     d="m 14.747987,2.0648628 c 0.155087,-0.086484 0.341186,-0.086484 0.496273,0 l 11.011033,6.1403053 c 0.356697,0.1965526 0.356697,0.7154515 0,0.9120043 L 15.24426,15.257477 c -0.155087,0.08648 -0.341186,0.08648 -0.496273,0 L 3.736952,9.1171726 c -0.3566956,-0.1965529 -0.3566956,-0.7154519 0,-0.9120045 z"
     id="path1"
     style="stroke-width:0.7808" />
  <path
     class="cls-1"
     d="M 27.240085,10.555937 C 27.581271,10.367248 28,10.618835 28,11.011939 V 23.28469 c 0,0.188689 -0.100805,0.369518 -0.263645,0.456 l -11.119591,6.195342 c -0.341191,0.188689 -0.759921,-0.06289 -0.759921,-0.456001 v -12.27275 c 0,-0.18869 0.100808,-0.369518 0.263645,-0.456002 z"
     id="path2"
     style="stroke-width:0.7808" />
  <path
     class="cls-2"
     d="M 13.871755,16.751279 2.7599163,10.555937 C 2.4187294,10.367248 2,10.618833 2,11.011939 V 23.28469 c 0,0.188689 0.1008053,0.369518 0.2636446,0.456 l 11.1195924,6.195342 c 0.34119,0.188689 0.75992,-0.06289 0.75992,-0.456001 v -12.27275 c 0,-0.18869 -0.100808,-0.369518 -0.263645,-0.456002 z M 6.6603044,20.658744 4.0548762,19.267152 c 0,0 0,-0.008 0,-0.01572 0.062032,-0.825524 0.6901283,-1.179318 1.4112736,-0.794075 0.7211452,0.385243 1.2561885,1.360144 1.1941546,2.185666 0,0 0,0.008 0,0.01572 z m 4.1019986,2.397945 -2.6054287,-1.391593 c 0,0 0,-0.008 0,-0.01572 0.062032,-0.82552 0.6901285,-1.179315 1.4112744,-0.794073 0.7211443,0.385243 1.2561863,1.360144 1.1941543,2.185665 0,0 0,0.008 0,0.01572 z"
     id="path3"
     style="stroke-width:0.7808" />
</svg>
