<?xml version="1.0" encoding="UTF-8" standalone="no"?>
<svg xmlns="http://www.w3.org/2000/svg" version="1.0" viewBox="0 0 120 120">
  <path d="m 93.902268,15 c -2.840468,0 -5.681716,1.082023 -7.848575,3.249026 -3.458446,3.458673 -4.148193,8.626515 -2.089815,12.778778 L 59.787945,55.205338 c -4.150134,-2.058511 -9.319488,-1.365096 -12.777932,2.093577 -4.335573,4.334005 -4.333718,11.362332 0,15.698192 4.335572,4.335859 11.363436,4.334007 15.697153,0 3.458443,-3.456817 4.150045,-8.628369 2.089814,-12.778777 L 88.972913,36.040794 c 4.151989,2.058513 9.319488,1.36872 12.777927,-2.089953 4.33372,-4.337714 4.33196,-11.36781 -0.004,-15.701815 C 99.579977,16.082023 96.742348,15 93.901881,15 Z M 54.858589,25.28315 c -0.268886,0.0037 -0.537019,0.01613 -0.804052,0.02173 -0.267032,0.0056 -0.5334,0.007 -0.800433,0.01817 -1.676372,0.06676 -3.349352,0.238016 -5.009034,0.514339 -0.03709,0.0056 -0.0752,0.01076 -0.112285,0.01817 -0.233653,0.0408 -0.463598,0.08227 -0.695397,0.126775 -0.129809,0.02411 -0.261353,0.05011 -0.39116,0.07607 -0.137226,0.02782 -0.2739,0.05363 -0.409272,0.0833 -0.224383,0.04636 -0.449286,0.09658 -0.673667,0.14851 l -0.123151,0.02899 c -3.326783,0.775188 -6.540997,1.97845 -9.558097,3.567771 -0.196566,0.103853 -0.390175,0.222048 -0.58674,0.32961 -0.233654,0.127962 -0.468988,0.261285 -0.702641,0.39481 -0.17246,0.100144 -0.345469,0.191392 -0.517927,0.29339 -0.0019,0.0019 -0.0054,0.0018 -0.0072,0.0037 -0.01113,0.0074 -0.02324,0.01076 -0.03622,0.01817 -0.04451,0.02782 -0.09313,0.05009 -0.137634,0.07607 l 0.0037,0.0037 0.416513,0.6882 11.814516,19.617308 c 0.229945,-0.139089 0.467133,-0.265079 0.702641,-0.391186 0.237362,-0.127962 0.474204,-0.248999 0.717129,-0.365833 1.687499,-0.803006 3.48316,-1.29961 5.306028,-1.485062 0.267033,-0.02782 0.5334,-0.05222 0.800433,-0.0652 0.267031,-0.01298 0.53702,-0.02535 0.804051,-0.02535 z m 1.604487,0.03622 v 23.655954 0.09417 c 1.218335,0.126107 2.424532,0.385508 3.596508,0.782374 L 77.538693,32.3716 c -0.645328,-0.445084 -1.302536,-0.881387 -1.977537,-1.29309 -0.03153,-0.0204 -0.0644,-0.03755 -0.09778,-0.05795 -0.207692,-0.127962 -0.420656,-0.248825 -0.630202,-0.373077 -0.122391,-0.07047 -0.243419,-0.139608 -0.36581,-0.210082 -0.124245,-0.06862 -0.248808,-0.137846 -0.373051,-0.206459 -0.213255,-0.116835 -0.425962,-0.234597 -0.641071,-0.347722 -0.03338,-0.01669 -0.06618,-0.03579 -0.101418,-0.05434 -1.38894,-0.72697 -2.816245,-1.365215 -4.273799,-1.919715 -0.03709,-0.01484 -0.0752,-0.02863 -0.112284,-0.04347 -0.3171,-0.118689 -0.637216,-0.240073 -0.95617,-0.351344 -2.586879,-0.90315 -5.264044,-1.536437 -7.982586,-1.894359 -0.111265,-0.01484 -0.221949,-0.03049 -0.333211,-0.04347 -0.111265,-0.01298 -0.221947,-0.02324 -0.333211,-0.03622 -0.21511,-0.02411 -0.429583,-0.05018 -0.644693,-0.07244 -0.05934,-0.0056 -0.12176,-0.01076 -0.181101,-0.01817 -0.254052,-0.02411 -0.508307,-0.04488 -0.764213,-0.06157 -0.09828,-0.0074 -0.200478,-0.01261 -0.300616,-0.01817 -0.218819,-0.01484 -0.436738,-0.03056 -0.655556,-0.03984 -0.116828,-0.0056 -0.236348,-0.0072 -0.35132,-0.01094 z m -23.527619,6.54514 c -0.567445,0.370903 -1.126254,0.751254 -1.673301,1.151829 -1.181249,0.869768 -2.324772,1.816208 -3.426283,2.832483 l 16.729383,16.726871 0.0652,0.06882 c 0.183586,-0.148362 0.372241,-0.295564 0.561391,-0.434653 l -0.04347,-0.06882 z m -6.25858,5.096299 c -0.191002,0.191015 -0.368706,0.390288 -0.554143,0.583158 -0.185443,0.19287 -0.376039,0.382958 -0.557769,0.579536 -1.235027,1.337107 -2.364756,2.7386 -3.382819,4.194396 -0.04821,0.06862 -0.100286,0.141462 -0.148501,0.210081 -0.114973,0.166907 -0.22919,0.334711 -0.340453,0.503472 -0.116827,0.174324 -0.230959,0.349027 -0.344078,0.525204 -0.04265,0.06491 -0.08597,0.128926 -0.126767,0.191973 -3.847868,6.036451 -5.909836,12.883181 -6.186141,19.787547 -0.01113,0.26705 -0.01613,0.537056 -0.02173,0.804107 -0.0056,0.26705 -0.01446,0.537055 -0.01446,0.804107 h 23.690601 c 0,-0.268907 0.02685,-0.537057 0.03983,-0.804107 0.01298,-0.268905 0.01558,-0.537057 0.04347,-0.804107 0.305976,-3.085916 1.49786,-6.096434 3.57478,-8.627849 0.168751,-0.205852 0.35978,-0.399213 0.539655,-0.597646 0.179878,-0.198433 0.346802,-0.404778 0.539659,-0.597648 z m 60.959568,5.491106 -17.486352,17.487513 c 0.398696,1.172054 0.659846,2.37833 0.785944,3.596748 h 0.09055 23.658007 c -0.0093,-0.116835 -0.01261,-0.23451 -0.01817,-0.351344 -0.01113,-0.21327 -0.025,-0.424221 -0.03983,-0.63749 -0.0056,-0.105708 -0.01428,-0.211183 -0.02173,-0.318745 -0.01669,-0.25036 -0.03931,-0.499416 -0.06157,-0.749776 l -0.01447,-0.195594 c -0.02782,-0.280032 -0.05903,-0.560296 -0.09055,-0.840328 -0.0037,-0.02225 -0.0054,-0.04295 -0.0072,-0.0652 -0.0019,-0.01113 -0.0018,-0.02333 -0.0037,-0.0326 -0.03709,-0.302286 -0.07687,-0.601471 -0.119516,-0.901903 0,-0.0093 -0.0018,-0.02157 -0.0037,-0.02899 -0.272596,-1.889752 -0.680853,-3.761859 -1.224191,-5.603394 -0.0037,-0.01298 -0.0072,-0.02147 -0.01094,-0.0326 -0.0853,-0.285596 -0.16992,-0.56922 -0.260775,-0.854816 -0.01298,-0.03709 -0.02509,-0.07696 -0.03622,-0.115907 -0.08345,-0.255923 -0.168139,-0.510196 -0.257153,-0.764265 -0.02411,-0.06862 -0.04833,-0.135992 -0.07243,-0.20646 -0.07788,-0.220687 -0.15922,-0.444012 -0.242664,-0.662845 -0.03894,-0.105707 -0.07872,-0.207646 -0.119517,-0.311499 -0.06861,-0.181743 -0.14138,-0.36705 -0.213691,-0.546938 -0.05749,-0.144652 -0.116364,-0.286465 -0.17385,-0.427408 -0.05749,-0.140944 -0.118126,-0.282844 -0.177467,-0.423787 -0.07788,-0.179888 -0.153823,-0.359804 -0.235421,-0.539692 -0.04451,-0.100144 -0.09127,-0.202259 -0.137634,-0.304258 -0.09828,-0.213269 -0.198624,-0.427842 -0.300617,-0.641112 -0.03153,-0.06491 -0.06264,-0.130687 -0.09417,-0.195594 -0.118683,-0.242941 -0.236176,-0.4851 -0.358565,-0.728042 -0.01669,-0.03338 -0.03401,-0.06441 -0.0507,-0.09779 -0.137226,-0.265196 -0.277349,-0.533522 -0.420138,-0.796863 -0.0056,-0.0093 -0.0089,-0.01969 -0.01446,-0.02899 C 89.21372,44.8616 88.455911,43.633214 87.636268,42.451887 Z M 71.022963,65.144388 c 0,0.268905 -0.02685,0.533433 -0.03983,0.800484 -0.01298,0.268905 -0.01558,0.537057 -0.04347,0.804107 -0.305976,3.085915 -1.497858,6.10191 -3.574778,8.631471 -0.168751,0.205851 -0.359781,0.39559 -0.539657,0.594024 -0.179878,0.198433 -0.346801,0.404778 -0.539657,0.597647 l 16.751114,16.755847 c 0.191003,-0.191016 0.370472,-0.390289 0.557766,-0.583159 0.18544,-0.192869 0.376036,-0.382957 0.557767,-0.579536 1.238735,-1.34267 2.368292,-2.749378 3.390062,-4.208883 0.0408,-0.05749 0.08057,-0.112754 0.119517,-0.170244 0.124245,-0.178034 0.24704,-0.359806 0.369429,-0.539694 0.105701,-0.161343 0.211256,-0.322165 0.315103,-0.485361 0.05192,-0.07789 0.102048,-0.161176 0.152117,-0.23906 3.842304,-6.032742 5.900826,-12.874256 6.175276,-19.773058 0.01113,-0.26705 0.01613,-0.537057 0.02173,-0.804107 0.0056,-0.26705 0.0128,-0.533435 0.01094,-0.800483 z m -55.98313,1.608213 c 0.0037,0.116834 0.0054,0.22912 0.01094,0.3441 0.0093,0.222542 0.02687,0.447547 0.03985,0.670089 0.0056,0.09643 0.01075,0.191566 0.01817,0.286146 0.01854,0.257778 0.04109,0.517352 0.0652,0.77513 0.0056,0.05749 0.01261,0.114609 0.01817,0.170245 0.02782,0.285597 0.05532,0.571076 0.09055,0.854817 0.0019,0.02782 0.0072,0.05549 0.01094,0.0833 0.03709,0.305995 0.07679,0.614019 0.123151,0.920014 0,0.0037 -0.0019,0.0072 0,0.01094 0.272596,1.893462 0.684473,3.77087 1.227811,5.61426 0.0019,0.0074 0.0054,0.01242 0.0072,0.02173 0.0853,0.289304 0.173536,0.57823 0.264396,0.865681 0.0056,0.01669 0.01261,0.03579 0.01817,0.05434 0.0056,0.01669 0.01261,0.03216 0.01817,0.0507 0.08345,0.259633 0.171755,0.51912 0.260774,0.778753 0.02411,0.06491 0.04471,0.130687 0.06882,0.195594 0.07974,0.224396 0.159219,0.449314 0.242666,0.67371 0.03894,0.101999 0.07696,0.202258 0.115901,0.304256 0.07232,0.185452 0.144996,0.36873 0.21731,0.554183 0.05563,0.139089 0.112748,0.277453 0.170235,0.416541 0.05934,0.144653 0.119906,0.29 0.181101,0.434653 0.07603,0.176179 0.153916,0.352647 0.2318,0.528826 0.04636,0.105708 0.09489,0.207649 0.14125,0.311502 0.09643,0.211414 0.198709,0.424307 0.296993,0.633868 0.03338,0.06676 0.0644,0.136066 0.09778,0.202837 0.116827,0.241088 0.234406,0.479797 0.354943,0.717177 0.0204,0.03709 0.03755,0.07342 0.05795,0.108656 0.135372,0.263342 0.27558,0.528131 0.416517,0.789618 0.0056,0.01113 0.01261,0.02324 0.01817,0.03622 0.02967,0.05378 0.06088,0.103742 0.09055,0.159377 l 20.28243,-12.217351 0.07607,-0.04347 c -0.802953,-1.689464 -1.305003,-3.48339 -1.488587,-5.30638 h -0.09055 z m 1.894234,10.670714 -0.775078,0.220949 0.0072,0.01817 z m 24.089008,-3.94447 -20.304161,12.231841 c 0.311537,0.51741 0.6351,1.024273 0.967037,1.521284 0.01113,0.01669 0.02509,0.03765 0.03622,0.05434 0.0037,0.0056 0.0072,0.01261 0.01094,0.01817 0.01113,0.01669 0.0178,0.0304 0.02898,0.04709 0.0019,0.0019 0.0018,0.0054 0.0037,0.0072 0.02596,0.03894 0.05548,0.08058 0.0833,0.119524 0.0019,0.0019 0.0018,0.0035 0.0037,0.0072 0,0 0.0037,0.0037 0.0037,0.0037 0.352334,0.521119 0.711973,1.035052 1.086559,1.535772 0.0074,0.01113 0.01799,0.02333 0.02535,0.0326 0.0074,0.01113 0.01799,0.0178 0.02535,0.02899 0.161333,0.215124 0.323824,0.431465 0.492571,0.644734 l 0.0652,0.0833 c 0.17246,0.220687 0.347148,0.436854 0.525169,0.651977 0.04265,0.05193 0.08773,0.103816 0.130383,0.155743 0.161334,0.19287 0.320288,0.381277 0.48533,0.572291 0.07047,0.0816 0.143216,0.162937 0.213691,0.242682 0.139081,0.159488 0.277348,0.316861 0.420135,0.474494 0.07789,0.08531 0.159312,0.171858 0.239043,0.25717 0.03709,0.03894 0.07342,0.07696 0.108649,0.115907 0.103847,0.113126 0.20578,0.225585 0.31148,0.336856 0.04265,0.04451 0.08412,0.08588 0.126767,0.130392 0.185441,0.192869 0.374008,0.386753 0.56501,0.575914 L 43.427965,76.575745 c -0.191002,-0.191015 -0.370646,-0.388347 -0.550524,-0.58678 -0.179878,-0.202142 -0.349176,-0.406199 -0.517925,-0.615759 -0.148353,-0.183597 -0.295545,-0.372265 -0.434625,-0.561425 -0.159479,-0.216979 -0.318867,-0.433058 -0.46722,-0.655601 -0.148353,-0.224395 -0.297397,-0.449227 -0.434623,-0.677335 z m 24.063654,4.165419 c -0.183586,0.148361 -0.372239,0.295563 -0.561388,0.434652 l 0.04347,0.06882 12.212921,20.276537 c 0.565591,-0.369049 1.122633,-0.74763 1.66968,-1.148206 1.181249,-0.871622 2.326539,-1.817984 3.429904,-2.836114 L 65.151928,77.713085 Z m -20.463523,0.01094 -0.05795,0.05795 -16.725761,16.72687 c 0.0853,0.07974 0.168139,0.161176 0.257153,0.23906 0.15577,0.140943 0.31684,0.282928 0.474463,0.420163 0.08159,0.07233 0.161074,0.148713 0.242664,0.217327 0.189148,0.163197 0.381253,0.32225 0.572256,0.481736 0.05192,0.04451 0.105664,0.08419 0.155733,0.126849 0.215107,0.178034 0.433115,0.352729 0.651934,0.525199 l 0.0833,0.0688 c 0.237362,0.187306 0.476058,0.368826 0.717129,0.550569 0.01113,0.0074 0.02155,0.01113 0.02899,0.01855 1.006936,0.752934 2.050031,1.46058 3.129289,2.118934 0.03709,0.02225 0.0752,0.04469 0.112285,0.0688 0.203983,0.122398 0.40988,0.243517 0.615717,0.362206 0.1261,0.07233 0.250575,0.143168 0.376675,0.213696 0.118682,0.06862 0.238028,0.136121 0.358563,0.202847 0.216964,0.11869 0.436739,0.23636 0.655559,0.35134 0.02967,0.0167 0.05903,0.0358 0.09055,0.0506 0.608242,0.31898 1.227696,0.61455 1.850772,0.89829 l 0.593985,-1.441612 8.413587,-20.432275 0.02898,-0.07607 c -0.917925,-0.487738 -1.796938,-1.070724 -2.625851,-1.749477 z m 18.56929,1.322068 c -0.229945,0.139089 -0.467133,0.26508 -0.702641,0.391187 -0.237362,0.127961 -0.47968,0.247231 -0.720751,0.362211 -2.19004,1.038529 -4.562245,1.56837 -6.935867,1.56837 -1.555837,0 -3.11034,-0.224918 -4.614254,-0.673711 -0.255906,-0.07604 -0.504771,-0.173545 -0.756969,-0.264413 -0.252198,-0.08902 -0.508479,-0.16967 -0.756968,-0.271659 l -8.409966,20.421423 -0.329589,0.80048 -0.282504,0.68458 v 0.004 c 0.02225,0.009 0.0448,0.0167 0.0652,0.0254 0.02225,0.009 0.04656,0.0197 0.06882,0.0289 l 0.01817,0.004 c 0.198422,0.0816 0.399187,0.15207 0.597607,0.2282 0.250343,0.0964 0.499383,0.19526 0.749726,0.28614 0.127954,0.0464 0.252343,0.10403 0.380295,0.14854 2.633239,0.93097 5.360618,1.58159 8.131081,1.94508 0.107556,0.013 0.21656,0.0285 0.325968,0.0434 0.113119,0.013 0.227338,0.0232 0.340456,0.0362 0.213256,0.0241 0.42596,0.0465 0.641069,0.0688 0.05378,0.004 0.10559,0.0111 0.159368,0.0148 0.263324,0.0241 0.524475,0.0467 0.785945,0.0653 0.08901,0.007 0.179006,0.013 0.268017,0.0186 0.229945,0.0148 0.45821,0.0287 0.688155,0.0399 0.140935,0.007 0.282823,0.009 0.423756,0.0148 0.181732,0.007 0.365083,0.0167 0.550524,0.0217 0.263324,0.007 0.526242,0.007 0.789566,0.007 0.06305,0 0.125284,0.004 0.188336,0.004 2.214146,0 4.425337,-0.18341 6.61352,-0.55055 0.03709,-0.006 0.07334,-0.013 0.112285,-0.0186 0.231799,-0.0408 0.459977,-0.0842 0.691776,-0.12684 0.131663,-0.026 0.266743,-0.0501 0.398404,-0.076 0.135372,-0.0278 0.270279,-0.0536 0.40565,-0.0833 0.226236,-0.0482 0.451052,-0.0966 0.677288,-0.14854 0.0408,-0.009 0.07872,-0.0186 0.119516,-0.0289 3.326783,-0.77519 6.542764,-1.97668 9.561717,-3.56414 0.196567,-0.10386 0.3938,-0.22205 0.590366,-0.32961 0.233653,-0.12796 0.465365,-0.261281 0.699019,-0.394825 0.161333,-0.09273 0.325853,-0.18063 0.48533,-0.275266 0,0 0.0037,-0.0037 0.0037,-0.0037 0.0019,-0.0019 0.0035,-0.0018 0.0072,-0.0037 0,0 0.0037,0 0.0037,0 0,0 0.0037,-0.0037 0.0037,-0.0037 0.0019,-0.0019 0.0035,-0.0018 0.0072,-0.0037 0.0093,-0.0056 0.02155,-0.0093 0.02898,-0.01484 0,0 0.0037,0 0.0037,0 0.05103,-0.03097 0.09927,-0.06324 0.152117,-0.09421 L 75.006915,98.59554 74.594021,97.907348 Z m 12.075291,20.395994 c 0.05233,-0.02875 0.105219,-0.05619 0.155733,-0.08698 l -0.0037,-0.0037 z" fill="#4caf50" />
</svg>