<?xml version="1.0" encoding="UTF-8" standalone="no"?>
<svg
   id="Layer_1"
   data-name="Layer 1"
   viewBox="0 0 32 32"
   version="1.1"
   sodipodi:docname="opentofu.svg"
   inkscape:version="1.4.2 (ebf0e940, 2025-05-08)"
   xmlns:inkscape="http://www.inkscape.org/namespaces/inkscape"
   xmlns:sodipodi="http://sodipodi.sourceforge.net/DTD/sodipodi-0.dtd"
   xmlns="http://www.w3.org/2000/svg"
   xmlns:svg="http://www.w3.org/2000/svg">
  <sodipodi:namedview
     id="namedview3"
     pagecolor="#ffffff"
     bordercolor="#000000"
     borderopacity="0.25"
     inkscape:showpageshadow="2"
     inkscape:pageopacity="0.0"
     inkscape:pagecheckerboard="0"
     inkscape:deskcolor="#d1d1d1"
     showgrid="true"
     inkscape:zoom="14.775907"
     inkscape:cx="13.704743"
     inkscape:cy="19.423512"
     inkscape:window-width="1728"
     inkscape:window-height="1073"
     inkscape:window-x="78"
     inkscape:window-y="40"
     inkscape:window-maximized="0"
     inkscape:current-layer="Layer_1">
    <inkscape:grid
       id="grid3"
       units="px"
       originx="0"
       originy="0"
       spacingx="1"
       spacingy="1"
       empcolor="#0099e5"
       empopacity="0.30196078"
       color="#00e514"
       opacity="0.14902"
       empspacing="5"
       enabled="true"
       visible="true" />
  </sodipodi:namedview>
  <defs
     id="defs1">
    <style
       id="style1">
      .cls-1 {
        fill: #FAFAFA;
      }

      .cls-2 {
        fill: #FFD600;
      }

      .cls-3 {
        fill: #FFCA28;
      }
    </style>
  </defs>
  <path
     class="cls-3"
     d="m 15.728601,1.0694958 c 0.167017,-0.0926611 0.367432,-0.0926611 0.534448,0 l 11.858036,6.5788985 c 0.384135,0.2105921 0.384135,0.7665552 0,0.9771475 L 16.263049,15.20444 c -0.167016,0.09266 -0.367431,0.09266 -0.534448,0 L 3.8705637,8.625542 C 3.48643,8.4149496 3.48643,7.8589864 3.8705637,7.6483943 Z"
     id="path1"
     style="stroke-width:0.838714" />
  <path
     class="cls-1"
     d="M 29.18163,10.167075 C 29.549061,9.9649091 30,10.234466 30,10.655649 v 13.149376 c 0,0.202167 -0.108559,0.395912 -0.283925,0.488571 L 17.74113,30.931463 C 17.373694,31.13363 16.922754,30.86408 16.922754,30.44289 V 17.293515 c 0,-0.202168 0.108562,-0.395912 0.283925,-0.488573 z"
     id="path2"
     style="stroke-width:0.838714" />
  <path
     class="cls-2"
     d="M 14.784967,16.804942 2.8183714,10.167075 C 2.4509394,9.9649091 2,10.234464 2,10.655649 v 13.149376 c 0,0.202167 0.1085596,0.395912 0.2839249,0.488571 l 11.9749461,6.637867 c 0.367435,0.202167 0.818375,-0.06738 0.818375,-0.488573 V 17.293515 c 0,-0.202168 -0.108562,-0.395912 -0.283925,-0.488573 z M 7.0187893,20.991511 4.2129436,19.50052 c 0,0 0,-0.0086 0,-0.01684 0.066804,-0.88449 0.7432151,-1.263555 1.5198331,-0.850794 0.7766179,0.41276 1.3528184,1.457297 1.2860126,2.341785 0,0 0,0.0086 0,0.01684 z M 11.436326,23.560738 8.63048,22.069746 c 0,0 0,-0.0086 0,-0.01684 0.066804,-0.884486 0.7432153,-1.263552 1.519834,-0.850793 0.776617,0.412761 1.352816,1.457298 1.286012,2.341784 0,0 0,0.0086 0,0.01684 z"
     id="path3"
     style="stroke-width:0.838714" />
</svg>
