<?xml version="1.0" encoding="UTF-8"?>
<svg version="1.1" viewBox="0 0 1024 1024" xmlns="http://www.w3.org/2000/svg" xmlns:xlink="http://www.w3.org/1999/xlink">
 <g transform="matrix(.86199 0 0 .86199 70.662 70.662)">
  <title>background</title>
  <g id="canvasGrid" display="none">
   <rect width="100%" height="100%" fill="url(#gridpattern)" stroke-width="0"/>
  </g>
 </g>
 <g transform="matrix(.86199 0 0 .86199 70.662 70.662)">
  <title>Layer 1</title>
 </g>
 <path d="m512 106.88a405.12 405.12 0 0 0-405.12 405.12 405.12 405.12 0 0 0 405.12 405.12 405.12 405.12 0 0 0 405.12-405.12 405.12 405.12 0 0 0-405.12-405.12zm0 162.05a243.07 243.07 0 0 1 243.07 243.07 243.07 243.07 0 0 1-243.07 243.07 243.07 243.07 0 0 1-243.07-243.07 243.07 243.07 0 0 1 243.07-243.07zm-54.191 79.893v326.35h108.38v-326.35zm-108.99 108.92v108.51h81.685l4e-3 -108.51zm244.67 0-4e-3 108.51h81.688v-108.51z" fill="#039be5" stroke-width="1.2819"/>
</svg>
