<svg xmlns="http://www.w3.org/2000/svg" viewBox="0 0 32 32"><path d="M29.7951,23.35352l-4.78045-4.94947a.64476.64476,0,0,0-.95612,0,14.43673,14.43673,0,0,1-2.35125,1.697A1.19667,1.19667,0,0,1,20,18.899V16.56567a1.42051,1.42051,0,0,1,.40973-.98993l6.58539-6.37011A.71359.71359,0,0,0,26.51709,8H21.5A1.5,1.5,0,0,1,20,6.5V2.75A.75.75,0,0,0,19.25,2h-6.5a.75.75,0,0,0-.75.75V6.5A1.5,1.5,0,0,1,10.5,8H5.48291a.71359.71359,0,0,0-.478,1.20563l6.58539,6.37011A1.42051,1.42051,0,0,1,12,16.56567V18.899a1.19667,1.19667,0,0,1-1.70728,1.202,14.43673,14.43673,0,0,1-2.35125-1.697.64476.64476,0,0,0-.95612,0L2.2049,23.35352a.70027.70027,0,0,0,0,.98992,19.64988,19.64988,0,0,0,27.5902,0A.70027.70027,0,0,0,29.7951,23.35352Z" style="fill:#00b8d4"/></svg>