<svg xmlns="http://www.w3.org/2000/svg" viewBox="0 0 32 32"><path fill="#00b8d4" d="m29.795 23.354-4.78-4.95a.645.645 0 0 0-.956 0 14.4 14.4 0 0 1-2.352 1.697A1.197 1.197 0 0 1 20 18.899v-2.333a1.42 1.42 0 0 1 .41-.99l6.585-6.37A.714.714 0 0 0 26.517 8H21.5A1.5 1.5 0 0 1 20 6.5V2.75a.75.75 0 0 0-.75-.75h-6.5a.75.75 0 0 0-.75.75V6.5A1.5 1.5 0 0 1 10.5 8H5.483a.714.714 0 0 0-.478 1.206l6.585 6.37a1.42 1.42 0 0 1 .41.99v2.333a1.197 1.197 0 0 1-1.707 1.202 14.4 14.4 0 0 1-2.352-1.697.645.645 0 0 0-.956 0l-4.78 4.95a.7.7 0 0 0 0 .99 19.65 19.65 0 0 0 27.59 0 .7.7 0 0 0 0-.99"/></svg>