<svg width="16" height="16" version="1.1" viewBox="0 0 16 16" xmlns="http://www.w3.org/2000/svg">
 <path d="m8 1a2.5 2.5 0 0 0-2.5 2.5 2.5 2.5 0 0 0 1.75 2.3809v1.1191h-2.25v1h2.25v5.5c-1.7831-0.30665-3.3533-0.97746-4.25-2.5l1-1-3-2v2c0 2.2661 2.8805 5 7 5 2.7638 0.13034 7-1.779 7-5v-2l-3 2 1 1c-0.7547 1.6313-2.5912 2.091-4.25 2.5v-5.5h2.25v-1h-2.25v-1.1191a2.5 2.5 0 0 0 1.75-2.3809 2.5 2.5 0 0 0-2.5-2.5zm0 1.25a1.25 1.25 0 0 1 1.25 1.25 1.25 1.25 0 0 1-1.25 1.25 1.25 1.25 0 0 1-1.25-1.25 1.25 1.25 0 0 1 1.25-1.25z" fill="#ff7043" stroke-width=".73786"/>
</svg>
