<svg xmlns="http://www.w3.org/2000/svg" viewBox="0 0 32 32">
  <path fill="#ff8a65" d="M17.2 7c1.47-.67 2.11-2.39 1.45-3.86-.67-1.47-2.39-2.11-3.86-1.45s-2.11 2.39-1.45 3.86c.29.65.81 1.16 1.45 1.45l-.07 2.14-4.07.3c-.27.02-.48.25-.48.51v1.1c0 .27.21.49.48.51l3.99.3-.19 7.16c-.06 2.17-.42 4.81-2.52 5.28-.24.05-.48.08-.72.08-1.27 0-2.73-1.56-3.66-3.15.37-.16.75-.3 1.13-.42.22-.07.27-.39.07-.51-1.41-.93-2.52-2.18-3.2-3.61-.09-.2-.37-.21-.47-.01-.24.5-.44 1.01-.6 1.54-.47 1.53-.59 3.15-.35 4.74l.02.1c.03.21.29.28.44.14.28-.27.58-.53.9-.77 1.73 5.42 7.48 8.13 10.53 8.13s8.81-2.72 10.53-8.14c.31.24.61.49.9.77.15.15.41.07.44-.14v-.1c.25-1.58.14-3.21-.34-4.74-.17-.53-.36-1.04-.6-1.54-.09-.2-.37-.18-.47.02-.68 1.44-1.79 2.69-3.19 3.61-.2.12-.15.44.07.51.39.11.75.25 1.12.42-.94 1.6-2.4 3.16-3.66 3.16-.24 0-.48-.03-.72-.08-2.11-.46-2.47-3.11-2.52-5.28l-.19-7.16 3.99-.3c.27-.02.48-.24.48-.51v-1.1c0-.27-.21-.49-.48-.51l-4.07-.3-.07-2.14h-.04Zm.51-2.66c0 .95-.77 1.72-1.72 1.72s-1.72-.77-1.72-1.72.77-1.72 1.72-1.72 1.72.77 1.72 1.72Z"/>
  <path fill="#795548" d="M10.17 11.23c0 .18.14.33.31.34l4.14.31 1.13-1.13c.05-.05.05-.14 0-.2-.02-.03-.06-.04-.09-.04h-5.5v.71Zm16.48 5.42c.04-.07.15-.09.21-.04.02.01.04.04.05.06.24.51.45 1.03.6 1.56.48 1.56.59 3.22.34 4.84-.03.21-.29.28-.44.14-.57-.55-1.21-1.03-1.9-1.44-.11-.07-.17-.22-.11-.34.58-1.3 1-2.86 1.21-4.7 0-.02.01-.05.02-.07h.02Z"/>
  <path fill="#795548" d="m17.2 6.92.08 2.23-1 .93c-.07.06-.18.06-.24 0-.03-.03-.04-.07-.04-.11V6.93h1.2Zm9.78 13.36c-.69 6.86-7.55 10.28-10.97 10.28V10.77c0-.15.11-.26.26-.26h5.57v.56c0 .26-.2.49-.46.51l-4 .29.19 7.16c.06 2.17.41 4.82 2.52 5.28.23.05.47.07.71.07-.24 0-.47.1-.62.28-.83 1-1.78 2-3.19 2.45 3.68.17 8.76-2.33 9.65-10.44l.34 3.6Z"/>
  <path fill="#795548" d="M16.34 6.55c-.19.02-.34.17-.34.36s.16.34.34.32c.65-.07 1.26-.37 1.72-.83.54-.54.85-1.28.85-2.05 0 0 0-.01-.01-.01s-.01 0-.01.01c-.18 1.16-1.23 2.06-2.54 2.2 0 0-.01 0 0 0Z"/>
  <path fill="none" stroke="#37474f" stroke-miterlimit="10" stroke-width=".25" d="M17.2 7c1.47-.67 2.11-2.39 1.45-3.86-.67-1.47-2.39-2.11-3.86-1.45s-2.11 2.39-1.45 3.86c.29.65.81 1.16 1.45 1.45l-.07 2.14-4.07.3c-.27.02-.48.25-.48.51v1.1c0 .27.21.49.48.51l3.99.3-.19 7.16c-.06 2.17-.42 4.81-2.52 5.28-.24.05-.48.08-.72.08-1.27 0-2.73-1.56-3.66-3.15.37-.16.75-.3 1.13-.42.22-.07.27-.39.07-.51-1.41-.93-2.52-2.18-3.2-3.61-.09-.2-.37-.21-.47-.01-.24.5-.44 1.01-.6 1.54-.47 1.53-.59 3.15-.35 4.74l.02.1c.03.21.29.28.44.14.28-.27.58-.53.9-.77 1.73 5.42 7.48 8.13 10.53 8.13s8.81-2.72 10.53-8.14c.31.24.61.49.9.77.15.15.41.07.44-.14v-.1c.25-1.58.14-3.21-.34-4.74-.17-.53-.36-1.04-.6-1.54-.09-.2-.37-.18-.47.02-.68 1.44-1.79 2.69-3.19 3.61-.2.12-.15.44.07.51.39.11.75.25 1.12.42-.94 1.6-2.4 3.16-3.66 3.16-.24 0-.48-.03-.72-.08-2.11-.46-2.47-3.11-2.52-5.28l-.19-7.16 3.99-.3c.27-.02.48-.24.48-.51v-1.1c0-.27-.21-.49-.48-.51l-4.07-.3-.07-2.14h-.04Zm.51-2.66c0 .95-.77 1.72-1.72 1.72s-1.72-.77-1.72-1.72.77-1.72 1.72-1.72 1.72.77 1.72 1.72Z"/>
</svg>
