<svg width="16" height="16" version="1.1" viewBox="0 0 16 16" xmlns="http://www.w3.org/2000/svg">
  <path
    d="m2.997 14.967c-0.34438-0.08633-0.65359-0.34513-0.76535-0.64056-0.13612-0.35984-0.15671-0.28281 1.119-4.1858 1.276-3.9038 1.1814-3.5793 1.0105-3.4662-0.74151 0.49071-1.7034 0.081476-1.95-0.82965-0.17559-0.64869 0.026946-1.0066 0.89869-1.5881 1.2738-0.84967 1.9792-1.4761 2.6029-2.3118 0.4918-0.65891 0.6823-0.79812 1.1943-0.87275 0.62306-0.090812 1.2035 0.13798 1.4183 0.55905 0.07516 0.14733 0.019213 0.15429 0.41617-0.051832 4.9918-2.592 6.9314 4.1675 2.1144 7.3684-1.3609 0.90431-3.9656 1.5986-4.8399 1.2902l-0.12779-0.04509-0.14457 0.43892c-0.079516 0.24141-0.37759 1.1606-0.66238 2.0427-0.6226 1.9283-0.64492 1.9711-1.152 2.2088-0.22845 0.10709-0.85428 0.1533-1.1323 0.08362zm0.72857-0.77189c0.27232-0.06857 0.22428 0.05174 1.2699-3.1804 1.2674-3.9175 1.4631-4.3846 2.3804-5.6808 2.0294-2.8677 4.8349-3.3972 4.5774-0.86395-0.21807 2.1453-2.1772 3.7201-5.001 4.0199-0.49222 0.052253-0.57611 0.11665-0.64625 0.49603-0.10018 0.54193 0.1801 0.63148 1.3499 0.43129 3.0433-0.52084 5.106-2.3978 5.3911-4.9057 0.3647-3.2078-3.1673-3.6512-5.5607-0.69818-0.28827 0.35567-0.29351 0.41733 0.059429-0.69838 0.39261-1.2411 0.38879-1.2655-0.19777-1.2656-0.30612-5.86e-5 -0.39704 0.046537-0.60423 0.30967-0.071618 0.090959-0.24282 0.30983-0.38045 0.48638-0.58016 0.74425-1.4422 1.4896-2.6316 2.2751-0.6515 0.43031-0.708 0.5417-0.46728 0.92127 0.15696 0.2475 0.33661 0.32019 0.56031 0.22673 0.23702-0.099032 1.5753-1.1099 2.0008-1.5112 0.1247-0.11764 0.22673-0.20426 0.22673-0.1925 0 0.011761-0.70004 2.1697-1.5556 4.7953-0.8556 2.6257-1.5556 4.7945-1.5556 4.8197 0 0.19862 0.40717 0.31039 0.78457 0.21536zm3.9625-6.6092c2.0075-0.43207 3.4068-1.7433 3.4862-3.2669 0.031092-0.59671-0.030652-0.69107-0.43611-0.66644-1.1211 0.068086-3.0511 2.1007-3.7566 3.9562l-0.033127 0.087127 0.21743-0.022228c0.11959-0.012226 0.35455-0.05174 0.52214-0.08781z"
    fill="#9575CD" stroke-width="1.0023" />
</svg>