<svg xmlns="http://www.w3.org/2000/svg" viewBox="0 0 16 16"><path fill="#9575cd" d="M2.997 14.967c-.344-.086-.654-.345-.765-.64-.136-.36-.157-.283 1.119-4.186s1.181-3.58 1.01-3.467c-.741.491-1.703.082-1.95-.83-.175-.648.027-1.006.899-1.587 1.274-.85 1.979-1.476 2.603-2.312.492-.659.682-.798 1.194-.873.623-.09 1.204.138 1.418.56.075.147.02.153.417-.053 4.991-2.592 6.93 4.168 2.114 7.369-1.361.904-3.966 1.598-4.84 1.29l-.128-.045-.144.439c-.08.241-.378 1.16-.663 2.042-.622 1.929-.645 1.972-1.152 2.21-.228.106-.854.153-1.132.083m.729-.772c.272-.068.224.052 1.27-3.18 1.267-3.918 1.463-4.385 2.38-5.681 2.03-2.868 4.835-3.397 4.577-.864-.218 2.145-2.177 3.72-5 4.02-.493.052-.577.117-.647.496-.1.542.18.631 1.35.431 3.043-.52 5.106-2.398 5.391-4.906.365-3.207-3.167-3.65-5.56-.698-.289.356-.294.418.059-.698.392-1.241.389-1.266-.198-1.266-.306 0-.397.047-.604.31-.072.09-.243.31-.38.486-.58.745-1.443 1.49-2.632 2.275-.652.43-.708.542-.468.922.157.247.337.32.56.226.238-.099 1.576-1.11 2.002-1.51.124-.118.226-.205.226-.193s-.7 2.17-1.555 4.795a462 462 0 0 0-1.556 4.82c0 .198.407.31.785.215m3.962-6.61c2.008-.431 3.407-1.742 3.486-3.266.031-.597-.03-.691-.436-.666-1.12.068-3.05 2.1-3.756 3.956l-.034.087.218-.022a6 6 0 0 0 .522-.088"/></svg>