<svg width="16" height="16" viewBox="0 0 16 16" fill="none" xmlns="http://www.w3.org/2000/svg">
<mask id="path-1-outside-1_1099_12" maskUnits="userSpaceOnUse" x="2" y="1" width="12" height="14" fill="black">
<rect fill="white" x="2" y="1" width="12" height="14"/>
<path d="M6.76956 9.476C6.62556 9.484 6.52156 9.448 6.45756 9.368C6.39356 9.28 6.37356 9.148 6.39756 8.972C6.41356 8.82 6.45356 8.704 6.51756 8.624C6.58956 8.536 6.68156 8.488 6.79356 8.48C7.59356 8.424 8.31756 8.272 8.96556 8.024C9.61356 7.768 10.1656 7.444 10.6216 7.052C11.0856 6.652 11.4416 6.204 11.6896 5.708C11.9376 5.204 12.0616 4.676 12.0616 4.124C12.0616 3.692 11.9616 3.368 11.7616 3.152C11.5616 2.928 11.2736 2.816 10.8976 2.816C10.5696 2.816 10.2256 2.904 9.86556 3.08C9.50556 3.248 9.14156 3.492 8.77356 3.812C8.41356 4.124 8.06156 4.5 7.71756 4.94C7.38156 5.372 7.06556 5.856 6.76956 6.392C6.48156 6.92 6.22956 7.484 6.01356 8.084L4.15356 13.832C4.12156 13.944 4.05756 14.028 3.96156 14.084C3.86556 14.14 3.72556 14.168 3.54156 14.168C3.36556 14.168 3.23356 14.14 3.14556 14.084C3.05756 14.028 3.03356 13.936 3.07356 13.808L6.18156 4.268C5.98156 4.468 5.76956 4.66 5.54556 4.844C5.32156 5.028 5.08556 5.212 4.83756 5.396C4.59756 5.572 4.34156 5.756 4.06956 5.948C3.90156 6.06 3.76156 6.096 3.64956 6.056C3.53756 6.016 3.43756 5.924 3.34956 5.78C3.26956 5.652 3.23756 5.532 3.25356 5.42C3.26956 5.3 3.35356 5.196 3.50556 5.108C3.97756 4.812 4.41356 4.512 4.81356 4.208C5.22156 3.896 5.59356 3.572 5.92956 3.236C6.26556 2.892 6.55756 2.536 6.80556 2.168C6.90156 2.032 6.98956 1.94 7.06956 1.892C7.14956 1.844 7.27756 1.82 7.45356 1.82C7.63756 1.82 7.76956 1.848 7.84956 1.904C7.93756 1.96 7.95756 2.052 7.90956 2.18L7.28556 4.16C7.65356 3.664 8.04156 3.24 8.44956 2.888C8.86556 2.536 9.28956 2.272 9.72156 2.096C10.1616 1.912 10.6016 1.82 11.0416 1.82C11.4736 1.82 11.8456 1.908 12.1576 2.084C12.4776 2.26 12.7216 2.508 12.8896 2.828C13.0576 3.148 13.1416 3.528 13.1416 3.968C13.1416 4.72 12.9856 5.42 12.6736 6.068C12.3616 6.708 11.9176 7.276 11.3416 7.772C10.7736 8.26 10.0976 8.652 9.31356 8.948C8.53756 9.244 7.68956 9.42 6.76956 9.476Z"/>
</mask>
<path d="M6.76956 9.476L6.81394 10.2748L6.81817 10.2745L6.76956 9.476ZM6.45756 9.368L5.81057 9.83854L5.82138 9.8534L5.83287 9.86776L6.45756 9.368ZM6.39756 8.972L7.19022 9.08009L7.19188 9.06794L7.19316 9.05575L6.39756 8.972ZM6.51756 8.624L5.89836 8.11738L5.89286 8.12424L6.51756 8.624ZM6.79356 8.48L6.7377 7.68195L6.73656 7.68203L6.79356 8.48ZM8.96556 8.024L9.25152 8.77119L9.2595 8.76804L8.96556 8.024ZM10.6216 7.052L11.1431 7.65865L11.1439 7.65793L10.6216 7.052ZM11.6896 5.708L12.4051 6.06578L12.4074 6.06121L11.6896 5.708ZM11.7616 3.152L11.1648 3.68481L11.1696 3.69021L11.1746 3.69553L11.7616 3.152ZM9.86556 3.08L10.2039 3.80495L10.2104 3.80189L10.2169 3.79871L9.86556 3.08ZM8.77356 3.812L9.29751 4.41655L9.2985 4.41568L8.77356 3.812ZM7.71756 4.94L7.08731 4.44726L7.08608 4.44885L7.71756 4.94ZM6.76956 6.392L6.06924 6.00526L6.06724 6.00892L6.76956 6.392ZM6.01356 8.084L5.26085 7.81302L5.25643 7.82529L5.25242 7.8377L6.01356 8.084ZM4.15356 13.832L3.39242 13.5857L3.38815 13.5989L3.38434 13.6122L4.15356 13.832ZM3.14556 14.084L2.71606 14.7589L2.71606 14.7589L3.14556 14.084ZM3.07356 13.808L2.31285 13.5602L2.30998 13.5694L3.07356 13.808ZM6.18156 4.268L6.94221 4.51581L5.61587 3.70231L6.18156 4.268ZM4.83756 5.396L5.31066 6.04113L5.31424 6.03848L4.83756 5.396ZM4.06956 5.948L4.51332 6.61364L4.52219 6.60772L4.53091 6.60157L4.06956 5.948ZM3.64956 6.056L3.91863 5.30261L3.91863 5.30261L3.64956 6.056ZM3.34956 5.78L4.03222 5.36282L4.02796 5.356L3.34956 5.78ZM3.25356 5.42L4.04555 5.53314L4.04654 5.52573L3.25356 5.42ZM3.50556 5.108L3.90639 5.80034L3.91862 5.79326L3.93059 5.78575L3.50556 5.108ZM4.81356 4.208L5.29763 4.84493L5.29952 4.84349L4.81356 4.208ZM5.92956 3.236L6.49528 3.80172L6.50186 3.79499L5.92956 3.236ZM6.80556 2.168L6.15199 1.70665L6.14699 1.71373L6.14215 1.72092L6.80556 2.168ZM7.06956 1.892L6.65796 1.20601L6.65796 1.20601L7.06956 1.892ZM7.84956 1.904L7.39079 2.55938L7.40521 2.56948L7.42006 2.57893L7.84956 1.904ZM7.90956 2.18L7.1605 1.8991L7.15298 1.91913L7.14655 1.93954L7.90956 2.18ZM7.28556 4.16L6.52255 3.91954L7.92804 4.63668L7.28556 4.16ZM8.44956 2.888L7.93278 2.27726L7.92697 2.28227L8.44956 2.888ZM9.72156 2.096L10.0234 2.8369L10.0302 2.83406L9.72156 2.096ZM12.1576 2.084L11.7645 2.78082L11.772 2.78497L12.1576 2.084ZM12.8896 2.828L13.5979 2.45613L13.5979 2.45613L12.8896 2.828ZM12.6736 6.068L13.3927 6.41857L13.3944 6.41505L12.6736 6.068ZM11.3416 7.772L11.8629 8.3788L11.8636 8.37821L11.3416 7.772ZM9.31356 8.948L9.03099 8.19956L9.02844 8.20053L9.31356 8.948ZM6.72518 8.67723C6.72639 8.67716 6.77364 8.67422 6.84525 8.69901C6.92497 8.72661 7.01283 8.78146 7.08225 8.86824L5.83287 9.86776C6.11809 10.2243 6.52463 10.2908 6.81394 10.2748L6.72518 8.67723ZM7.10455 8.89746C7.16318 8.97807 7.18062 9.05076 7.18553 9.08316C7.19003 9.11287 7.18536 9.11576 7.19022 9.08009L5.6049 8.86391C5.56974 9.12175 5.56801 9.50501 5.81057 9.83854L7.10455 8.89746ZM7.19316 9.05575C7.19629 9.02601 7.19976 9.02049 7.19586 9.03179C7.19173 9.04375 7.17753 9.07966 7.14226 9.12376L5.89286 8.12424C5.69716 8.36887 5.62659 8.65418 5.60196 8.88825L7.19316 9.05575ZM7.13673 9.13059C7.11084 9.16223 7.06932 9.20064 7.01061 9.23127C6.95169 9.26201 6.89481 9.27481 6.85056 9.27797L6.73656 7.68203C6.40196 7.70593 6.10774 7.86154 5.89839 8.11741L7.13673 9.13059ZM6.84942 9.27805C7.71621 9.21737 8.5193 9.05138 9.25151 8.77115L8.67961 7.27685C8.11582 7.49262 7.47091 7.63063 6.7377 7.68195L6.84942 9.27805ZM9.2595 8.76804C9.97757 8.48436 10.6096 8.11723 11.1431 7.65865L10.1001 6.44535C9.7215 6.77077 9.24955 7.05164 8.67162 7.27996L9.2595 8.76804ZM11.1439 7.65793C11.6797 7.19607 12.105 6.66592 12.4051 6.06577L10.974 5.35023C10.7781 5.74208 10.4914 6.10793 10.0992 6.44607L11.1439 7.65793ZM12.4074 6.06121C12.7085 5.44932 12.8616 4.80069 12.8616 4.124H11.2616C11.2616 4.55131 11.1667 4.95868 10.9718 5.35479L12.4074 6.06121ZM12.8616 4.124C12.8616 3.58332 12.7377 3.02871 12.3486 2.60847L11.1746 3.69553C11.1854 3.70729 11.2616 3.80068 11.2616 4.124H12.8616ZM12.3583 2.61919C11.9697 2.18399 11.4397 2.016 10.8976 2.016V3.616C11.1074 3.616 11.1534 3.67201 11.1648 3.68481L12.3583 2.61919ZM10.8976 2.016C10.4238 2.016 9.95977 2.14346 9.51419 2.36129L10.2169 3.79871C10.4914 3.66454 10.7154 3.616 10.8976 3.616V2.016ZM9.52725 2.35505C9.0864 2.56078 8.66062 2.85005 8.24862 3.20832L9.2985 4.41568C9.6225 4.13394 9.92472 3.93522 10.2039 3.80495L9.52725 2.35505ZM8.24962 3.20745C7.84468 3.55839 7.45779 3.9734 7.08731 4.44726L8.34781 5.43274C8.66533 5.0266 8.98244 4.68961 9.2975 4.41655L8.24962 3.20745ZM7.08608 4.44885C6.72164 4.91741 6.3831 5.43695 6.06925 6.00526L7.46987 6.77874C7.74802 6.27505 8.04148 5.82659 8.34904 5.43115L7.08608 4.44885ZM6.06724 6.00892C5.75846 6.57503 5.48992 7.17672 5.26085 7.81302L6.76627 8.35498C6.9692 7.79128 7.20466 7.26497 7.47188 6.77508L6.06724 6.00892ZM5.25242 7.8377L3.39242 13.5857L4.9147 14.0783L6.7747 8.3303L5.25242 7.8377ZM3.38434 13.6122C3.39291 13.5822 3.41087 13.5392 3.44521 13.4942C3.48001 13.4485 3.52078 13.415 3.55846 13.393L4.36466 14.775C4.64817 14.6096 4.8371 14.3517 4.92278 14.0518L3.38434 13.6122ZM3.55846 13.393C3.58237 13.379 3.60155 13.3712 3.61305 13.3671C3.62449 13.363 3.62998 13.3621 3.62767 13.3625C3.62541 13.363 3.61735 13.3644 3.60243 13.3657C3.58758 13.367 3.5675 13.368 3.54156 13.368V14.968C3.78455 14.968 4.09059 14.9349 4.36466 14.775L3.55846 13.393ZM3.54156 13.368C3.51851 13.368 3.50164 13.3671 3.49024 13.366C3.47875 13.365 3.47461 13.364 3.47656 13.3644C3.47846 13.3648 3.48874 13.3671 3.50517 13.3734C3.52171 13.3797 3.5462 13.3907 3.57506 13.4091L2.71606 14.7589C2.99315 14.9353 3.30647 14.968 3.54156 14.968V13.368ZM3.57506 13.4091C3.68355 13.4781 3.79151 13.6018 3.83565 13.7711C3.87395 13.9179 3.84432 14.0236 3.83714 14.0466L2.30998 13.5694C2.2628 13.7204 2.22517 13.9361 2.28747 14.1749C2.35561 14.4362 2.51957 14.6339 2.71606 14.7589L3.57506 13.4091ZM3.83421 14.0558L6.94221 4.51581L5.42091 4.02019L2.31291 13.5602L3.83421 14.0558ZM5.61587 3.70231C5.43476 3.88343 5.24213 4.05795 5.03777 4.22582L6.05335 5.46218C6.29699 5.26205 6.52836 5.05257 6.74725 4.83368L5.61587 3.70231ZM5.03777 4.22582C4.82457 4.40095 4.59899 4.57686 4.36088 4.75352L5.31424 6.03848C5.57213 5.84714 5.81855 5.65505 6.05335 5.46218L5.03777 4.22582ZM4.36447 4.75088C4.12878 4.92371 3.87673 5.10489 3.60821 5.29443L4.53091 6.60157C4.80639 6.40711 5.06634 6.22029 5.31065 6.04112L4.36447 4.75088ZM3.6258 5.28236C3.58922 5.30675 3.59526 5.29554 3.63933 5.28421C3.69031 5.2711 3.79439 5.25824 3.91863 5.30261L3.38049 6.80939C3.8568 6.9795 4.27938 6.7696 4.51332 6.61364L3.6258 5.28236ZM3.91863 5.30261C3.97699 5.32345 4.01448 5.35195 4.03221 5.36825C4.04829 5.38305 4.04635 5.38602 4.03219 5.36284L2.66693 6.19716C2.81115 6.43315 3.03681 6.68665 3.38049 6.80939L3.91863 5.30261ZM4.02796 5.356C4.0143 5.33415 4.064 5.40379 4.04552 5.53314L2.4616 5.30686C2.41112 5.66021 2.52482 5.96985 2.67116 6.204L4.02796 5.356ZM4.04654 5.52573C4.03316 5.62607 3.99121 5.70478 3.95091 5.75467C3.91535 5.7987 3.89003 5.80981 3.90639 5.80034L3.10473 4.41566C2.83926 4.56935 2.52218 4.85222 2.46058 5.31427L4.04654 5.52573ZM3.93059 5.78575C4.42072 5.47838 4.87665 5.16487 5.29763 4.84493L4.32949 3.57107C3.95047 3.85913 3.5344 4.14561 3.08053 4.43025L3.93059 5.78575ZM5.29952 4.84349C5.73337 4.51172 6.13233 4.1646 6.49525 3.80169L5.36387 2.67031C5.05479 2.9794 4.70975 3.28028 4.3276 3.57251L5.29952 4.84349ZM6.50186 3.79499C6.86877 3.41935 7.1919 3.02622 7.46897 2.61508L6.14215 1.72092C5.92322 2.04578 5.66235 2.36465 5.35726 2.67701L6.50186 3.79499ZM7.45913 2.62935C7.49081 2.58447 7.5119 2.56019 7.52167 2.54998C7.52615 2.5453 7.52573 2.54623 7.52021 2.55083C7.51481 2.55532 7.50186 2.56557 7.48116 2.57799L6.65796 1.20601C6.43492 1.33983 6.26962 1.54001 6.15199 1.70665L7.45913 2.62935ZM7.48116 2.57799C7.44619 2.59897 7.41746 2.61053 7.40025 2.61649C7.39136 2.61956 7.38452 2.6215 7.38012 2.62264C7.3757 2.62378 7.37323 2.62425 7.37299 2.6243C7.37282 2.62433 7.37921 2.62315 7.39352 2.62202C7.40768 2.6209 7.42745 2.62 7.45356 2.62V1.02C7.24076 1.02 6.93041 1.04254 6.65796 1.20601L7.48116 2.57799ZM7.45356 2.62C7.47962 2.62 7.49853 2.621 7.5112 2.62213C7.52404 2.62326 7.52792 2.6243 7.52455 2.62359C7.52137 2.62291 7.5071 2.6197 7.48512 2.61099C7.46307 2.60226 7.42952 2.5865 7.39079 2.55938L8.30833 1.24862C8.01921 1.04623 7.67767 1.02 7.45356 1.02V2.62ZM7.42006 2.57893C7.30531 2.50591 7.18927 2.371 7.14882 2.18494C7.11452 2.02717 7.15361 1.91747 7.1605 1.8991L8.65862 2.4609C8.71351 2.31452 8.7666 2.09483 8.7123 1.84506C8.65185 1.567 8.48181 1.35809 8.27906 1.22907L7.42006 2.57893ZM7.14655 1.93954L6.52255 3.91954L8.04857 4.40046L8.67257 2.42046L7.14655 1.93954ZM7.92804 4.63668C8.26593 4.18125 8.61466 3.80215 8.97215 3.49372L7.92697 2.28227C7.46846 2.67785 7.04119 3.14675 6.64308 3.68332L7.92804 4.63668ZM8.96631 3.49871C9.32854 3.19221 9.6813 2.97624 10.0234 2.83687L9.41972 1.35513C8.89782 1.56775 8.40258 1.87979 7.93281 2.27729L8.96631 3.49871ZM10.0302 2.83406C10.3807 2.68749 10.7161 2.62 11.0416 2.62V1.02C10.487 1.02 9.9424 1.13651 9.41291 1.35794L10.0302 2.83406ZM11.0416 2.62C11.3641 2.62 11.5949 2.68511 11.7645 2.78078L12.5506 1.38722C12.0962 1.13089 11.583 1.02 11.0416 1.02V2.62ZM11.772 2.78497C11.956 2.88616 12.087 3.02041 12.1812 3.19987L13.5979 2.45613C13.3561 1.99559 12.9991 1.63384 12.5431 1.38303L11.772 2.78497ZM12.1812 3.19987C12.2773 3.38281 12.3416 3.6297 12.3416 3.968H13.9416C13.9416 3.4263 13.8378 2.91319 13.5979 2.45613L12.1812 3.19987ZM12.3416 3.968C12.3416 4.60546 12.2102 5.18617 11.9528 5.72095L13.3944 6.41505C13.7609 5.65382 13.9416 4.83454 13.9416 3.968H12.3416ZM11.9545 5.71744C11.6933 6.25323 11.3188 6.73586 10.8195 7.16578L11.8636 8.37821C12.5163 7.81614 13.0299 7.16277 13.3927 6.41856L11.9545 5.71744ZM10.8202 7.1652C10.3309 7.58564 9.73807 7.93261 9.03099 8.19957L9.59613 9.69643C10.4571 9.37139 11.2163 8.93436 11.8629 8.3788L10.8202 7.1652ZM9.02844 8.20053C8.33605 8.46464 7.56878 8.62587 6.72095 8.67748L6.81817 10.2745C7.81034 10.2141 8.73907 10.0234 9.59868 9.69547L9.02844 8.20053Z" fill="#7E77CD" mask="url(#path-1-outside-1_1099_12)"/>
</svg>
