<svg version="1.2" baseProfile="tiny" id="Layer_1" xmlns="http://www.w3.org/2000/svg" xmlns:xlink="http://www.w3.org/1999/xlink"
	 x="0px" y="0px" viewBox="0 0 24 24" xml:space="preserve">
<path fill="#4FC3F7" d="M12,22.3c-5.5,0-10-4.5-10-10s4.5-10,10-10c5.5,0,10,4,10,9c0,3.3-2.7,6-6,6h-1.8c-0.3,0-0.5,0.2-0.5,0.5
	c0,0.1,0.1,0.2,0.1,0.3c0.4,0.5,0.6,1.1,0.6,1.7C14.5,21.2,13.4,22.3,12,22.3 M12,4.3c-4.4,0-8,3.6-8,8s3.6,8,8,8
	c0.3,0,0.5-0.2,0.5-0.5c0-0.2-0.1-0.3-0.1-0.4c-0.4-0.5-0.6-1-0.6-1.6c0-1.4,1.1-2.5,2.5-2.5H16c2.2,0,4-1.8,4-4
	C20,7.4,16.4,4.3,12,4.3 M6.5,10.3C7.3,10.3,8,11,8,11.8s-0.7,1.5-1.5,1.5S5,12.6,5,11.8S5.7,10.3,6.5,10.3 M9.5,6.3
	C10.3,6.3,11,7,11,7.8s-0.7,1.5-1.5,1.5S8,8.6,8,7.8S8.7,6.3,9.5,6.3 M14.5,6.3C15.3,6.3,16,7,16,7.8s-0.7,1.5-1.5,1.5
	S13,8.6,13,7.8S13.7,6.3,14.5,6.3 M17.5,10.3c0.8,0,1.5,0.7,1.5,1.5s-0.7,1.5-1.5,1.5S16,12.6,16,11.8S16.7,10.3,17.5,10.3z"/>
</svg>
