<svg width="16" height="16" xmlns="http://www.w3.org/2000/svg"><path fill="#4fc3f7" d="M12.278 8a1.167 1.167 0 01-1.167-1.167 1.167 1.167 0 011.167-1.166 1.167 1.167 0 011.166 1.166A1.167 1.167 0 0112.278 8M9.944 4.889a1.167 1.167 0 01-1.166-1.167 1.167 1.167 0 011.166-1.166 1.167 1.167 0 011.167 1.166A1.167 1.167 0 019.944 4.89m-3.888 0a1.167 1.167 0 01-1.167-1.167 1.167 1.167 0 011.167-1.166 1.167 1.167 0 011.166 1.166A1.167 1.167 0 016.056 4.89M3.722 8a1.167 1.167 0 01-1.166-1.167 1.167 1.167 0 011.166-1.166A1.167 1.167 0 014.89 6.833 1.167 1.167 0 013.722 8M8 1a7 7 0 00-7 7 7 7 0 007 7 1.167 1.167 0 001.167-1.167c0-.303-.117-.575-.304-.777a1.205 1.205 0 01-.295-.778 1.167 1.167 0 011.166-1.167h1.377A3.889 3.889 0 0015 7.222C15 3.784 11.866 1 8 1z"/></svg>