<svg viewBox="0 0 190 144" xmlns="http://www.w3.org/2000/svg"><path fill="#ffcc80" d="M 5 16 L 30 53 88 32 66 0"></path><path fill="#ffcc80" d="M 109 3 L 179 16 160 48 88 32"></path><path fill="#ffb74d" d="M 30 53 L 79 56 88 62 88 32"></path><path fill="#ffb74d" d="M 88 32 L 88 62 105 73 160 48"></path><path fill="#ffd180" d="M 0 36 L 79 56 105 73 30 53"></path><path fill="#ffd180" d="M 105 73 L 30 53 33 115 104 142"></path><path fill="#ffe57f" d="M 105 73 L 138 43 190 22 160 48"></path><path fill="#ffe57f" d="M 105 73 L 160 48 157 108 104 142"></path><path fill="#795548" d="M 32 44.5 L 42 47 70 64 59 61.5"></path><path fill="#795548" d="M 59 61.5 L 70 64 70 80 59 76.4"></path><path fill="#795548" d="M 160 34.5 L 167 31.5 139 58 132 61"></path><path fill="#795548" d="M 139 58 L 132 61 131 77 139 72"></path></svg>