<?xml version="1.0" encoding="UTF-8"?>
<svg version="1.1" viewBox="0 0 16 16" xmlns="http://www.w3.org/2000/svg">
 <path d="m7.582 8.4843-0.96762 3.3246c-0.1353 0.46935-0.20248 0.8006-0.20248 0.99375 0 0.26967 0.087711 0.47402 0.26407 0.61118 0.17542 0.13717 0.57479 0.21275 1.1962 0.22488l-0.11477 0.32565h-5.8225l0.097042-0.32565c0.49268-0.0056 0.84166-0.05412 1.0469-0.14556 0.20528-0.09051 0.37511-0.23887 0.51041-0.44416 0.099842-0.13437 0.24914-0.54773 0.44882-1.2401l2.2077-7.574c0.1521-0.50387 0.22861-0.86498 0.22861-1.0824 0-0.21648-0.097042-0.4003-0.29019-0.5496-0.19408-0.1493-0.54586-0.22954-1.0563-0.24167l0.097042-0.32565h4.7234c1.2961 0 2.2282 0.16423 2.7974 0.49268 0.87991 0.51694 1.3194 1.2905 1.3194 2.3225 0 0.99748-0.43856 1.8746-1.3147 2.6341-0.87711 0.75954-2.0566 1.1393-3.5411 1.1393-0.44602 0-0.98815-0.046655-1.6273-0.13996zm0.17636-0.67743c0.3807 0.046655 0.69796 0.069982 0.9499 0.069982 0.80993 0 1.4454-0.36951 1.9091-1.1085 0.46282-0.73901 0.69423-1.5107 0.69423-2.3141 0-0.54493-0.1493-0.96856-0.44882-1.2709s-0.71196-0.45255-1.2401-0.45255c-0.11197 0-0.25007 0.0056-0.4143 0.017729z" fill="#0288d1" stroke-width=".9331"/>
</svg>
