<?xml version="1.0" encoding="UTF-8"?>
<svg version="1.1" xmlns="http://www.w3.org/2000/svg" viewBox="0 0 16 16">
	<path fill="#0288D1" d="M7.552,8.519l-1.037,3.563c-0.145,0.503-0.217,0.858-0.217,1.065c0,0.289,0.094,0.508,0.283,0.655
		c0.188,0.147,0.616,0.228,1.282,0.241l-0.123,0.349H1.5l0.104-0.349c0.528-0.006,0.902-0.058,1.122-0.156
		c0.22-0.097,0.402-0.256,0.547-0.476c0.107-0.144,0.267-0.587,0.481-1.329l2.366-8.117c0.163-0.54,0.245-0.927,0.245-1.16
		c0-0.232-0.104-0.429-0.311-0.589C5.846,2.056,5.469,1.97,4.922,1.957l0.104-0.349h5.062c1.389,0,2.388,0.176,2.998,0.528
		C14.029,2.69,14.5,3.519,14.5,4.625c0,1.069-0.47,2.009-1.409,2.823c-0.94,0.814-2.204,1.221-3.795,1.221
		C8.818,8.669,8.237,8.619,7.552,8.519z M7.741,7.793c0.408,0.05,0.748,0.075,1.018,0.075c0.868,0,1.549-0.396,2.046-1.188
		c0.496-0.792,0.744-1.619,0.744-2.48c0-0.584-0.16-1.038-0.481-1.362c-0.321-0.324-0.763-0.485-1.329-0.485
		c-0.12,0-0.268,0.006-0.444,0.019L7.741,7.793z"/>
</svg>