<?xml version="1.0" encoding="UTF-8" standalone="no"?>
<svg xmlns="http://www.w3.org/2000/svg" version="1.0" viewBox="0 0 24 24">
    <path d="m 17,18.7 h -0.4 c 0.25,-0.3 0.75,-1.25 0,-2.2 -0.9,-1.2 -2.7,-3.5 -1.8,-5.7 h 0.7 c 0.25,0 0.5,-0.25 0.5,-0.6 v -1 C 16,8.95 15.75,8.7 15.5,8.7 H 14.8 C 15.5,8 15.9,7 15.9,5.8 15.9,3.75 14.2,2 12.1,2 9.9,2 8.2,3.75 8.2,5.8 8.2,7 8.7,7.925 9.45,8.6 h -0.7 c -0.3,0 -0.6,0.25 -0.6,0.5 v 1.1 c 0,0.3 0.25,0.6 0.6,0.6 h 0.6 C 10.2,13 8.4,15.3 7.5,16.5 c -0.75,0.9 -0.2,1.9 0,2.2 H 7 c -0.3,0 -0.6,0.2 -0.6,0.5 v 1.25 c 0,0.25 0.25,0.5 0.6,0.5 H 7.1 V 22 H 17 v -1.1 c 0.3,0 0.6,-0.25 0.6,-0.5 v -1.25 c 0,-0.3 -0.25,-0.45 -0.6,-0.45 z" fill="#ffa726" />
</svg>
