<svg viewBox="0 0 24 24" xmlns="http://www.w3.org/2000/svg"><path d="M4 18.8a4.6 4.6 0 0 1-1.8-.8 4 4 0 0 1-1.6-2.2 4 4 0 0 1 0-1.7 4 4 0 0 1 1.8-2.4c.2-.1.2-.1.2-.4V9.8c.2-.6.5-1.1 1-1.7l1.2-.8a7.3 7.3 0 0 1 1-.4c.3 0 1.6-.2 2 0H8l.5-.5 1.1-.9A4 4 0 0 1 12 5c.7 0 1 0 1.3.2.9.2 1.8.8 2.3 1.4.2.2.2.3.4.2h1c1 0 1.4.1 2.2.5.4.3.7.4 1 .8l.8 1c.4.8.5 1.4.4 2.2v.3l.2.2c.4.2 1 .9 1.3 1.3.6.9.7 2 .4 3a4.4 4.4 0 0 1-3.5 2.7 206.6 206.6 0 0 1-15.9 0Zm16.3-1.5c1-.6 1.5-1 1.5-2.4 0-1.2-.6-2-1.9-2.5l-.1-.2.1-1c0-.5-.1-.7-.3-1-.4-1-1.1-1.5-2.3-1.8-.6-.2-1.5-.1-2.1.1-.3.2-.3.2-.4 0-.8-1.1-1.9-2-3.3-1.9-1.2.2-1.8.5-2.3 1.4-.2.2-.2.4-.4.4l-.5-.1c-1.4-.4-2.4 0-3.4.9-.7.8-1 1.5-1 2.5v.4c0 .3.2.3.2.4-1.4.9-2.5 2-1.7 3.4l.4.7c.5.4.7.6 1.5.7H12c7.4 0 7.7.2 8.4 0Z" fill="#93BA65"/><path d="M11.6 10.5c-1.6.2-2.4 2-1.7 3.4.5.9 1.5 1.3 2.5 1.1 1.5-.2 2.3-2 1.6-3.3a2.3 2.3 0 0 0-2.4-1.2Z" fill="#4E4E4B"/></svg>