<svg xmlns="http://www.w3.org/2000/svg" viewBox="0 0 32 32">
  <g>
    <path d="M14.32349,17.105l.18066-.92578.03387-.18066a1.57265,1.57265,0,0,0-.10162-1.242l-.16937-.05646-.079.1355a4.08291,4.08291,0,0,0,.079,2.31452Z" style="fill: #ef5350"/>
    <path d="M8.94891,27.20966c.50812-.16932,1.17426-.91449,1.90821-2.258l-.542.35A4.16944,4.16944,0,0,0,8.94891,27.20966Z" style="fill: #ef5350"/>
    <path d="M14.35736,19.80334a16.72025,16.72025,0,0,1-1.14038,2.7096l-.56458,1.17419.12421-.04516a21.30419,21.30419,0,0,1,3.77124-1.05l-.46289-.36127A6.93668,6.93668,0,0,1,14.35736,19.80334Z" style="fill: #ef5350"/>
    <path d="M17,2H8A2,2,0,0,0,6,4V28a2,2,0,0,0,2,2H24a2,2,0,0,0,2-2V11Zm4.67407,22.10486a1.33172,1.33172,0,0,1-1.02746.33874,8.368,8.368,0,0,1-3.38739-.83551,23.68313,23.68313,0,0,0-4.55036.84681l-.20324.079C11.10553,26.92743,10.06671,28,9.15216,28l-.49683-.12421-.542-.35-.03387-.05646a1.02534,1.02534,0,0,1-.05646-.60968,4.42139,4.42139,0,0,1,2.12274-2.39349l1.005-.55323,1.08392-2.03222a19.08765,19.08765,0,0,0,1.21948-3.308V18.5614a5.572,5.572,0,0,1-.24841-3.69189,1.07706,1.07706,0,0,1,.892-.86933h.271a.96338.96338,0,0,1,.68878.27094c.74524.74518.39521,2.56286.02259,4.06445l-.04517.15808A6.66531,6.66531,0,0,0,16.84143,21.384l.98236.65479,1.45654-.079c1.40015,0,2.247.24841,2.57441.779a.90834.90834,0,0,1,.13549.621A1.091,1.091,0,0,1,21.67407,24.10486ZM16,12V4l8,8Z" style="fill: #ef5350"/>
    <path d="M19.0658,22.90814a.266.266,0,0,0-.25971.11286,6.04074,6.04074,0,0,0,2.14533.5758l.21453-.02258h.04517c.05646-.02258.09033-.03388.10162-.14673l-.10162-.12421C21.09821,23.19037,20.64661,22.90814,19.0658,22.90814Z" style="fill: #ef5350"/>
  </g>
</svg>
