<svg viewBox="0 0 461.867 461.867" fill="none" xmlns="http://www.w3.org/2000/svg"><path fill-rule="evenodd" clip-rule="evenodd" d="m319.39 102.866 59.971 34.623a11.711 11.711 0 0 1 5.856 10.142v166.604c0 4.184-2.232 8.05-5.856 10.143l-36.422 21.028-5.21-3.009-18.339-10.587zM98.121 258.15l197.974 114.3-61.024 35.231a11.713 11.713 0 0 1-11.71 0L79.07 324.378a11.712 11.712 0 0 1-5.856-10.143V272.53l1.417-.817zm46.843-27.045 127.582-73.66v147.32Zm127.582-127.75L73.215 218.44V147.63a11.71 11.71 0 0 1 5.856-10.142l144.29-83.303a11.711 11.711 0 0 1 11.71 0l37.475 21.635V86.89zM199.94 13.618a58.552 58.552 0 0 1 58.552 0l144.29 83.303a58.554 58.554 0 0 1 29.279 50.71v166.604c0 20.92-11.161 40.25-29.279 50.71l-144.29 83.304a58.548 58.548 0 0 1-58.552 0L55.65 364.946a58.555 58.555 0 0 1-29.279-50.711V147.631c0-20.92 11.161-40.25 29.278-50.71z" fill="#9575CD" style="stroke-width:1.17094"/></svg>
