<svg version="1.1" viewBox="0 0 24 24" xmlns="http://www.w3.org/2000/svg">
  <circle cx="12" cy="12" r="8" fill="#9575cd"/>
  <path fill="#fff" d="M11.3 5.19c.38.52.02 1.17.1 1.75a2.42 2.42 0 01-.73 1.71c-1 1.15-2.24 2.15-2.9 3.56a3.74 3.74 0 001 4.14c.5.52 1.09.95 1.75 1.23.12.57-.77.13-1.03 0a4.74 4.74 0 01-2.93-2.89 3.85 3.85 0 01.64-3.8c.9-1.14 2.22-1.8 3.3-2.73.4-.39.71-.92.66-1.5.11-.48-.18-1.04.15-1.48zm-.05 13.4c-.12.14-.33.23-.35.17-.03-.06.15-.09.27-.23.12-.13.09-.37.17-.37.07 0 .03.28-.1.43zm1.53 0c.12.14.32.22.35.17.02-.06-.15-.1-.28-.24-.11-.13-.08-.37-.17-.37-.06 0-.02.29.1.43zm-.73.34c-.07 0-.05-.21-.05-.46 0-.26-.02-.47.05-.47.06 0 .04.21.04.47 0 .25.01.46-.04.46zm-.35-14.7c.24.17.18 1.47.18 2.22 0 1.17.13 2.39-.57 3.48-.68 1.06-1.45 2.2-1.38 3.52.07 1.3.7 2.48 1.52 3.57.47.62-.25.36-.62.06a5.1 5.1 0 01-1.95-4.01c.1-1.35 1.13-2.37 1.86-3.4.57-.8.84-1.33.86-2.58.02-1-.1-2.5.03-2.82.01-.03.05-.07.07-.04zm.38 1.58c-.06 0-.03.28.02.51.3 1.6-.14 3.2-.53 4.73a9.04 9.04 0 00.2 5.54c.43 1.11 1.21.56 1.53 1.11.24.42.9.14 1.4-.1 1.58-.78 2.84-2.2 2.91-3.94.02-.35 0-.7-.05-1.06-.2-1.3-1.26-2.17-2.23-2.89-.86-.63-1.94-1.05-2.59-1.85-.37-.46-.21-1.16-.27-1.74-.03-.32-.18-.03-.27-.19-.06-.09-.1-.12-.12-.12zm.51 2.56c.04 0 .12.05.23.16.47.48 1 .96 1.53 1.36.9.68 1.72 1.48 2.1 2.48.24.62.24 1.3.16 1.94-.13.98-.84 1.73-1.5 2.41-.24.25-.75.56-.76.48-.06-.26.54-.83.82-1.2a4.2 4.2 0 00-.37-5.16c-.78-.86-1.64-1.35-2.12-2.18-.1-.18-.13-.29-.08-.29z"/>
</svg>
