<svg version="1.1" viewBox="0 0 24 24" xmlns="http://www.w3.org/2000/svg">
 <path d="m11.057 2.981c0.53678 0.73455 0.02826 1.6527 0.14126 2.472a3.4185 3.4185 0 0 1-1.0312 2.4155c-1.4126 1.6245-3.1642 3.0371-4.0965 5.0288a5.2831 5.2831 0 0 0 1.4126 5.8481c0.7063 0.73455 1.5397 1.342 2.472 1.7375 0.16951 0.80518-1.0877 0.18364-1.455 0a6.6957 6.6957 0 0 1-4.1389-4.0824 5.4385 5.4385 0 0 1 0.90406-5.3678c1.2713-1.6104 3.136-2.5427 4.6616-3.8564 0.56504-0.55091 1.0029-1.2996 0.93231-2.1189 0.15538-0.67804-0.25427-1.4691 0.21189-2.0906zm-0.07063 18.929c-0.16951 0.19776-0.46616 0.3249-0.49441 0.24014-0.04237-0.08476 0.21189-0.12713 0.3814-0.3249 0.16951-0.18364 0.12713-0.52266 0.24014-0.52266 0.09888 0 0.04237 0.39552-0.14126 0.60741zm2.1613 0c0.16951 0.19776 0.45203 0.31077 0.49441 0.24014 0.02826-0.08476-0.21189-0.14126-0.39552-0.33902-0.15538-0.18364-0.11301-0.52266-0.24014-0.52266-0.08475 0-0.02826 0.40965 0.14126 0.60742zm-1.0312 0.48028c-0.09888 0-0.07063-0.29664-0.07063-0.64979 0-0.36727-0.02826-0.66392 0.07063-0.66392 0.08476 0 0.05651 0.29664 0.05651 0.66392 0 0.35315 0.01412 0.64979-0.05651 0.64979zm-0.49441-20.765c0.33902 0.24014 0.25427 2.0765 0.25427 3.136 0 1.6527 0.18364 3.3761-0.80518 4.9158-0.96056 1.4973-2.0483 3.1077-1.9494 4.9723 0.098881 1.8364 0.98881 3.5032 2.1471 5.0429 0.66392 0.87581-0.35315 0.50853-0.87581 0.08476a7.2042 7.2042 0 0 1-2.7546-5.6645c0.14126-1.907 1.5962-3.3478 2.6274-4.8028 0.80518-1.1301 1.1866-1.8787 1.2148-3.6445 0.02825-1.4126-0.14126-3.5315 0.04237-3.9835 0.01412-0.042378 0.07063-0.098881 0.09888-0.056504zm0.53678 2.2319c-0.08476 0-0.04237 0.39553 0.02826 0.72042 0.42378 2.2601-0.19776 4.5203-0.74868 6.6816a12.77 12.77 0 0 0 0.28252 7.8258c0.60741 1.568 1.7092 0.79105 2.1613 1.568 0.33902 0.59329 1.2713 0.19776 1.9776-0.14126 2.2319-1.1018 4.0118-3.1077 4.1106-5.5656 0.02825-0.49441 0-0.98881-0.07063-1.4973-0.28252-1.8364-1.7799-3.0653-3.1501-4.0824-1.2148-0.88993-2.7404-1.4832-3.6586-2.6133-0.52266-0.64979-0.29664-1.6386-0.3814-2.4579-0.042377-0.45203-0.25427-0.042378-0.3814-0.26839-0.084755-0.12713-0.14126-0.16951-0.16951-0.16951zm0.72042 3.6162c0.05651 0 0.16951 0.070629 0.3249 0.22601 0.66392 0.67804 1.4126 1.3561 2.1613 1.9211 1.2713 0.96056 2.4297 2.0906 2.9664 3.5032 0.33902 0.87581 0.33902 1.8364 0.22602 2.7404-0.18364 1.3843-1.1866 2.4438-2.1189 3.4043-0.33902 0.35315-1.0594 0.79105-1.0736 0.67804-0.08475-0.36727 0.7628-1.1724 1.1583-1.6951a5.9329 5.9329 0 0 0-0.52266-7.289c-1.1018-1.2148-2.3166-1.907-2.9947-3.0794-0.14126-0.25427-0.18364-0.40965-0.11301-0.40965z" fill="#fff" style="fill:#ba68c8;stroke-width:1.4126"/>
</svg>
