<?xml version="1.0" encoding="UTF-8"?>
<svg data-name="Calque 1" viewBox="0 0 276.14 249.09" xmlns="http://www.w3.org/2000/svg">
<defs>
<style>.cls-1{fill:#f2f4e9;}.cls-2{fill:#3c472f;}.cls-3{fill:#467c23;}.cls-4{fill:#81b946;}.cls-5{fill:#538237;}.cls-6{fill:#386d15;}.cls-7{fill:#2f660c;}.cls-8{fill:#4b8c30;}.cls-9{fill:#245604;}.cls-10{fill:#1d4404;}.cls-11{fill:#d5edb9;}.cls-12{fill:#b4d18f;}.cls-13{fill:#417520;}.cls-14,.cls-15{fill:none;stroke:#3c472f;stroke-miterlimit:10;}.cls-15{stroke-width:0.75px;}</style>
</defs>
<path class="cls-1" d="M221.18,229.64l49.51-84.16a39.46,39.46,0,0,0,.15-39.76l-49.71-86A39.48,39.48,0,0,0,187,0H87.48A39.46,39.46,0,0,0,53.13,20l-48,84.88a39.45,39.45,0,0,0,.17,39.17l49.23,85.28A39.47,39.47,0,0,0,88.7,249.09h98.46A39.49,39.49,0,0,0,221.18,229.64Z"/>
<path class="cls-2" d="M221.18,229.64l49.51-84.16a39.46,39.46,0,0,0,.15-39.76l-49.71-86A39.48,39.48,0,0,0,187,0H87.48A39.46,39.46,0,0,0,53.13,20l-48,84.88a39.45,39.45,0,0,0,.17,39.17l49.23,85.28A39.47,39.47,0,0,0,88.7,249.09h98.46A39.49,39.49,0,0,0,221.18,229.64Zm-133.1,13.7A32.61,32.61,0,0,1,59.83,227L10,140.69a32.63,32.63,0,0,1-.14-32.37l48.66-86A32.59,32.59,0,0,1,86.89,5.75H187.6A32.62,32.62,0,0,1,215.84,22l50.34,87.08a32.61,32.61,0,0,1-.12,32.87l-50.18,85.27a32.59,32.59,0,0,1-28.11,16.08Z"/>
<polyline class="cls-3" points="98.16 243.34 98.16 240.75 104.89 225.64 105.71 219.52 81.42 186.67 76.73 189.52 78.77 198.71 87.75 213.2 79.38 206.46 78.36 212.38 76.93 213.4 77.55 227.28 72.24 215.65 73.87 205.03 70.4 194.01 75.1 175.24 78.97 141.97 73.06 103.81 82.24 71.77 112.44 44.22 131.22 42.79 138.07 46.26 142.85 44.43 156.11 53 171.01 54.22 175.5 63.41 194.28 75.44 200.4 103.2 171.62 108.91 189.17 120.55 191.42 124.55 178.15 138.3 151.22 129.93 146.73 129.93 164.69 146.26 180.19 149.73 195.3 155.24 205.7 173.4 207.34 184.42 231.98 199.9"/>
<polygon class="cls-4" points="142.03 65.04 165.3 58.71 142.85 44.43"/>
<polygon class="cls-4" points="189.99 75.44 194.28 75.44 166.32 57.69 163.97 59.07"/>
<polygon class="cls-4" points="188.36 100.14 200.4 103.2 194.28 75.44 189.99 75.44"/>
<polygon class="cls-5" points="151.19 77.89 138.97 63.81 127.54 75.44"/>
<polygon class="cls-6" points="142.85 44.43 142.03 63.81 118.56 66.57 124.69 51.36"/>
<polygon class="cls-7" points="127.54 75.44 118.56 66.57 138.97 63.81"/>
<polygon class="cls-3" points="112.85 81.98 113.89 44.11 112.44 44.22 94.48 90.75"/>
<polygon class="cls-4" points="82.24 71.77 94.48 90.75 112.44 44.22"/>
<polygon class="cls-3" points="89.38 103.2 94.48 90.75 82.24 71.77"/>
<polygon class="cls-4" points="73.06 103.81 89.38 103.2 82.24 71.77"/>
<polygon class="cls-3" points="83.26 146.26 89.38 103.2 73.06 103.81"/>
<polygon class="cls-4" points="78.97 141.97 83.26 146.26 73.06 103.81"/>
<polygon class="cls-8" points="189.99 75.44 150.25 76.8 151.19 77.89 136.32 76.67 188.36 100.14"/>
<polygon class="cls-9" points="112.93 78.92 121.22 92.38 125.39 73.31 118.56 66.57 124.69 51.36 138.07 46.26 131.22 42.79 113.89 44.11"/>
<polygon class="cls-5" points="102.88 86.74 111.63 118.5 121.22 92.38 112.93 78.92 112.85 81.98"/>
<path class="cls-10" d="m139.08 60.94s-5.57-1-4.39 3.32 8.24 5.8 9.41 4.33 4.08-7.06-5.02-7.65z"/>
<polygon class="cls-10" points="180.91 80.41 186.01 79.45 186.01 83.28"/>
<polygon class="cls-7" points="131.85 75.89 140.01 91.57 121.22 92.38 125.39 73.31 127.54 75.44"/>
<polygon class="cls-9" points="188.36 100.14 167.13 102.38 140.01 91.57 131.85 75.89 136.32 76.67"/>
<polygon class="cls-7" points="171.62 108.91 172.47 101.82 188.36 100.14 200.4 103.2"/>
<polygon class="cls-11" points="125.5 92.2 153.66 101.36 157.92 98.71 140.01 91.57"/>
<polygon class="cls-12" points="171.62 108.91 172.47 101.82 167.13 102.38 157.92 98.71 153.66 101.36"/>
<polygon class="cls-9" points="121.22 92.38 142.85 103.2 148.51 99.69 125.5 92.2"/>
<polygon class="cls-7" points="152.01 100.82 148.51 99.69 142.85 103.2 152.85 108.1"/>
<polygon class="cls-9" points="171.62 108.91 152.85 108.1 152.01 100.82 153.66 101.36"/>
<polygon class="cls-9" points="188.36 120 171.62 116.26 171.62 108.91"/>
<polygon class="cls-7" points="152.85 108.1 166.93 115.44 171.62 116.26 171.62 108.91"/>
<polygon class="cls-4" points="178.15 138.3 166.93 115.44 171.62 116.26 188.36 120 191.42 124.55"/>
<polygon class="cls-8" points="151.22 129.93 166.93 115.44 178.15 138.3"/>
<polygon class="cls-3" points="133.87 98.71 151.22 129.93 166.93 115.44"/>
<polygon class="cls-6" points="121.22 92.38 130.71 128.91 151.22 129.93 133.87 98.71"/>
<polygon class="cls-3" points="111.63 118.5 112.44 122.52 130.71 128.91 121.22 92.38"/>
<polygon class="cls-13" points="100.63 146.26 112.44 122.52 128.77 128.24 130.61 146.26"/>
<polygon class="cls-7" points="146.73 129.93 130.71 128.91 128.77 128.24 130.61 146.26 164.69 146.26"/>
<polygon class="cls-7" points="83.26 146.26 100.63 146.26 112.44 122.52 102.88 86.74 94.48 90.75 89.38 103.2"/>
<polygon class="cls-8" points="125.4 197.42 164.69 146.26 100.63 146.26 110.17 178.66"/>
<polygon class="cls-6" points="83.26 146.26 100.63 146.26 110.17 178.66"/>
<polygon class="cls-7" points="125.4 197.42 75.1 175.24 78.97 141.97 83.26 146.26"/>
<polygon class="cls-7" points="164.69 146.26 174.01 201.22 180.19 149.73"/>
<polygon class="cls-8" points="195.3 155.24 186.85 188.75 180.19 149.73"/>
<polygon class="cls-4" points="205.7 173.4 186.85 188.75 195.3 155.24"/>
<polygon class="cls-4" points="226.24 130.59 217.45 137.74 221.39 122.13"/>
<polygon class="cls-4" points="65.26 174.73 60.39 178.7 62.57 170.04"/>
<polygon class="cls-3" points="174.01 201.22 186.85 188.75 180.19 149.73"/>
<polygon class="cls-3" points="143.56 198.84 174.01 201.22 164.69 146.26 142.25 175.48 153.83 186.91 148.69 195.35"/>
<polygon class="cls-9" points="136.73 182.66 142.25 187.28 142.25 175.48"/>
<polygon class="cls-7" points="153.83 186.91 142.25 187.28 142.25 175.48"/>
<polygon class="cls-13" points="148.69 195.35 133.87 195.35 153.83 186.91"/>
<polygon class="cls-4" points="142.25 187.28 133.87 195.35 153.83 186.91"/>
<polygon class="cls-7" points="148.69 195.35 139.49 201.22 133.87 195.35"/>
<polygon class="cls-3" points="125.4 205.26 133.87 195.35 139.49 201.22"/>
<polygon class="cls-9" points="125.4 197.42 132.11 197.42 129.63 200.31"/>
<polygon class="cls-7" points="125.4 205.26 125.4 197.42 129.63 200.31"/>
<polygon class="cls-7" points="136.73 202.01 138.09 211.86 135.49 211.86 130.71 209.29 125.4 205.26"/>
<polygon class="cls-4" points="143.01 226.72 138.09 211.86 135.49 211.86"/>
<polygon class="cls-4" points="136.73 223.97 135.49 211.86 130.71 209.29"/>
<polygon class="cls-4" points="125.4 205.26 129.63 225.25 130.71 209.29"/>
<polygon class="cls-7" points="148.69 243.34 136.13 218.13 136.73 223.97 130.71 209.29 130.42 213.53 140.26 243.34"/>
<polygon class="cls-9" points="129.63 225.25 130.71 235.16 138.09 243.34 140.26 243.34 130.42 213.53"/>
<polygon class="cls-5" points="154.56 243.34 164.69 225.25 137.18 205.26 138.09 211.86 143.01 226.72 135.49 211.86 136.13 218.13 148.69 243.34"/>
<polygon class="cls-6" points="174.01 201.22 164.69 225.25 137.18 205.26 136.73 202.01 139.49 201.22 143.56 198.84"/>
<polygon class="cls-7" points="125.4 197.42 105.71 219.52 130.71 235.16 129.63 225.25 125.4 205.26"/>
<polygon class="cls-9" points="81.42 186.67 75.1 175.24 125.4 197.42 105.71 219.52"/>
<polygon class="cls-9" points="73.42 181.96 76.73 189.52 81.42 186.67 75.1 175.24"/>
<polygon class="cls-4" points="70.4 194.01 76.73 189.52 73.42 181.96"/>
<polygon class="cls-7" points="78.77 198.71 70.4 194.01 76.73 189.52"/>
<polygon class="cls-7" points="58.43 146.31 50.06 141.62 56.39 137.13"/>
<polygon class="cls-8" points="206.04 159.83 197.67 155.14 204 150.65"/>
<polygon class="cls-7" points="230.63 174.78 217.55 178.46 219.39 167.62"/>
<polygon class="cls-8" points="35.36 128.61 22.28 132.29 24.12 121.45"/>
<polygon class="cls-4" points="73.87 205.03 78.77 198.71 70.4 194.01"/>
<polygon class="cls-7" points="82.26 204.34 73.87 205.03 78.77 198.71"/>
<polygon class="cls-9" points="79.38 206.46 79.38 204.58 82.26 204.34 87.75 213.2"/>
<polygon class="cls-3" points="73.87 205.03 78.36 212.38 79.38 206.46 79.38 204.58"/>
<polygon class="cls-4" points="72.24 215.65 76.93 213.4 78.36 212.38 73.87 205.03"/>
<polygon class="cls-6" points="104.89 225.64 132.44 243.34 128.78 233.96 105.71 219.52"/>
<polygon class="cls-9" points="130.71 235.16 128.78 233.96 132.07 242.39 134.94 239.86"/>
<polygon class="cls-3" points="98.16 240.75 130.96 242.39 104.89 225.64"/>
<polygon class="cls-3" points="164.69 225.25 175.31 227.18 174.01 201.22"/>
<polygon class="cls-6" points="181.46 243.34 180.89 236.97 175.88 229.34 175.31 227.18 164.69 225.25"/>
<polygon class="cls-7" points="174.01 201.22 201.26 231.43 175.88 229.34 175.31 227.18"/>
<polygon class="cls-9" points="180.89 236.97 201.26 231.43 175.88 229.34"/>
<path class="cls-9" d="m181.46 243.34-0.57-6.37 11.94 6s-2.95 0.94-11.37 0.37z"/>
<path class="cls-8" d="M192.83,243a31,31,0,0,0,8.43-2.53v-9L180.89,237Z"/>
<path class="cls-8" d="m207.14 237-5.88-5.54v9a27.15 27.15 0 0 0 5.88-3.46z"/>
<polygon class="cls-8" points="205.7 173.4 201.26 231.43 174.01 201.22 186.85 188.75"/>
<polygon class="cls-4" points="207.34 184.42 205.7 173.4 201.26 231.43 212.97 231.43"/>
<path class="cls-8" d="m207.14 237a30.44 30.44 0 0 0 5.83-5.54h-11.71z"/>
<polygon class="cls-9" points="98.16 240.75 130.96 242.39 132.07 242.39 132.44 243.34 98.16 243.34"/>
<polygon class="cls-7" points="125.4 197.42 132.11 197.42 142.25 187.28 136.73 182.66"/>
<polygon class="cls-2" points="180.19 80.14 186.72 78.92 186.72 83.81"/>
<line class="cls-14" x1="98.16" x2="98.16" y1="240.75" y2="243.34"/>
<line class="cls-14" x1="87.75" x2="82.26" y1="213.2" y2="204.34"/>
<line class="cls-14" x1="82.26" x2="78.77" y1="204.34" y2="198.71"/>
<polyline class="cls-14" points="72.24 215.65 77.55 227.28 76.93 213.4"/>
<line class="cls-14" x1="142.85" x2="138.07" y1="44.43" y2="46.26"/>
<line class="cls-14" x1="231.98" x2="207.34" y1="199.9" y2="184.42"/>
<polyline class="cls-14" points="142.85 44.43 156.11 53 156.35 53.02"/>
<polyline class="cls-14" points="156.35 53.02 171.01 54.22 175.5 63.41 194.28 75.44"/>
<polyline class="cls-14" points="191.42 124.55 189.17 120.55 171.62 108.91"/>
<line class="cls-14" x1="146.73" x2="151.22" y1="129.93" y2="129.93"/>
<line class="cls-14" x1="112.44" x2="131.22" y1="44.22" y2="42.79"/>
<line class="cls-14" x1="164.95" x2="156.35" y1="58.49" y2="53.02"/>
<line class="cls-14" x1="142.85" x2="156.35" y1="44.43" y2="53.02"/>
<polyline class="cls-14" points="163.97 59.07 165.3 58.71 164.95 58.49"/>
<polyline class="cls-14" points="142.85 44.43 142.03 65.04 163.97 59.07"/>
<polyline class="cls-14" points="164.95 58.49 166.32 57.69 194.28 75.44"/>
<polyline class="cls-14" points="164.95 58.49 163.97 59.07 163.97 59.07"/>
<line class="cls-14" x1="189.99" x2="163.97" y1="75.45" y2="59.07"/>
<line class="cls-14" x1="200.4" x2="194.28" y1="103.2" y2="75.45"/>
<line class="cls-14" x1="189.99" x2="194.28" y1="75.45" y2="75.45"/>
<line class="cls-14" x1="139.25" x2="151.19" y1="64.14" y2="77.89"/>
<line class="cls-14" x1="151.19" x2="127.54" y1="77.89" y2="75.45"/>
<line class="cls-14" x1="139.25" x2="138.97" y1="64.14" y2="63.81"/>
<line class="cls-14" x1="142.85" x2="138.06" y1="44.43" y2="46.26"/>
<line class="cls-14" x1="118.56" x2="138.57" y1="66.57" y2="64.22"/>
<polyline class="cls-14" points="142.85 44.43 142.03 63.81 139.25 64.14"/>
<line class="cls-14" x1="139.25" x2="138.57" y1="64.14" y2="64.22"/>
<line class="cls-14" x1="138.06" x2="124.69" y1="46.26" y2="51.36"/>
<line class="cls-14" x1="118.56" x2="127.54" y1="66.57" y2="75.45"/>
<line class="cls-14" x1="118.56" x2="138.97" y1="66.57" y2="63.81"/>
<line class="cls-14" x1="138.97" x2="138.57" y1="63.81" y2="64.22"/>
<line class="cls-14" x1="127.54" x2="138.57" y1="75.45" y2="64.22"/>
<line class="cls-14" x1="112.85" x2="94.48" y1="81.98" y2="90.75"/>
<line class="cls-14" x1="112.44" x2="113.89" y1="44.22" y2="44.11"/>
<line class="cls-14" x1="112.85" x2="112.93" y1="81.98" y2="78.92"/>
<line class="cls-14" x1="113.89" x2="112.93" y1="44.11" y2="78.92"/>
<line class="cls-14" x1="112.44" x2="82.24" y1="44.22" y2="71.77"/>
<line class="cls-14" x1="112.44" x2="94.48" y1="44.22" y2="90.75"/>
<line class="cls-14" x1="82.24" x2="94.48" y1="71.77" y2="90.75"/>
<line class="cls-14" x1="73.06" x2="82.24" y1="103.81" y2="71.77"/>
<line class="cls-14" x1="82.24" x2="89.38" y1="71.77" y2="103.2"/>
<line class="cls-14" x1="73.06" x2="89.38" y1="103.81" y2="103.2"/>
<line class="cls-14" x1="73.06" x2="78.97" y1="103.81" y2="141.97"/>
<line class="cls-14" x1="73.06" x2="83.26" y1="103.81" y2="146.26"/>
<polyline class="cls-14" points="189.99 75.44 150.25 76.8 151.19 77.89"/>
<line class="cls-14" x1="151.19" x2="136.32" y1="77.89" y2="76.67"/>
<line class="cls-14" x1="189.99" x2="188.36" y1="75.45" y2="100.14"/>
<line class="cls-14" x1="113.89" x2="112.93" y1="44.11" y2="78.92"/>
<line class="cls-14" x1="118.56" x2="125.39" y1="66.57" y2="73.31"/>
<line class="cls-14" x1="124.69" x2="138.07" y1="51.36" y2="46.26"/>
<line class="cls-14" x1="113.89" x2="131.22" y1="44.11" y2="42.79"/>
<line class="cls-14" x1="138.06" x2="138.07" y1="46.26" y2="46.26"/>
<line class="cls-14" x1="131.22" x2="138.06" y1="42.79" y2="46.26"/>
<line class="cls-14" x1="118.56" x2="124.69" y1="66.57" y2="51.36"/>
<line class="cls-14" x1="112.85" x2="102.88" y1="81.98" y2="86.74"/>
<line class="cls-14" x1="102.88" x2="111.63" y1="86.74" y2="118.5"/>
<line class="cls-14" x1="112.85" x2="112.93" y1="81.98" y2="78.92"/>
<line class="cls-14" x1="121.22" x2="112.93" y1="92.38" y2="78.92"/>
<line class="cls-14" x1="131.85" x2="127.54" y1="75.89" y2="75.45"/>
<line class="cls-14" x1="125.39" x2="127.54" y1="73.31" y2="75.45"/>
<line class="cls-14" x1="140.01" x2="121.22" y1="91.57" y2="92.38"/>
<line class="cls-14" x1="121.22" x2="125.39" y1="92.38" y2="73.31"/>
<line class="cls-14" x1="140.01" x2="167.13" y1="91.57" y2="102.38"/>
<line class="cls-14" x1="188.36" x2="167.13" y1="100.14" y2="102.38"/>
<line class="cls-14" x1="136.32" x2="131.85" y1="76.67" y2="75.89"/>
<line class="cls-14" x1="188.36" x2="136.32" y1="100.14" y2="76.67"/>
<line class="cls-14" x1="140.01" x2="131.85" y1="91.57" y2="75.89"/>
<line class="cls-14" x1="188.36" x2="172.47" y1="100.14" y2="101.82"/>
<line class="cls-14" x1="171.62" x2="200.4" y1="108.91" y2="103.2"/>
<line class="cls-14" x1="188.36" x2="200.4" y1="100.14" y2="103.2"/>
<line class="cls-14" x1="140.01" x2="125.5" y1="91.57" y2="92.2"/>
<line class="cls-14" x1="153.66" x2="125.5" y1="101.36" y2="92.2"/>
<line class="cls-14" x1="140.01" x2="157.92" y1="91.57" y2="98.71"/>
<line class="cls-14" x1="167.13" x2="157.92" y1="102.38" y2="98.71"/>
<line class="cls-14" x1="167.13" x2="172.47" y1="102.38" y2="101.82"/>
<line class="cls-14" x1="171.62" x2="172.47" y1="108.91" y2="101.82"/>
<line class="cls-14" x1="153.66" x2="157.92" y1="101.36" y2="98.71"/>
<line class="cls-14" x1="121.22" x2="125.5" y1="92.38" y2="92.2"/>
<line class="cls-14" x1="125.5" x2="148.51" y1="92.2" y2="99.69"/>
<line class="cls-14" x1="121.22" x2="142.85" y1="92.38" y2="103.2"/>
<line class="cls-14" x1="152.85" x2="142.85" y1="108.1" y2="103.2"/>
<line class="cls-14" x1="152.01" x2="148.51" y1="100.82" y2="99.69"/>
<line class="cls-14" x1="148.51" x2="142.85" y1="99.69" y2="103.2"/>
<line class="cls-14" x1="153.66" x2="152.01" y1="101.36" y2="100.82"/>
<line class="cls-14" x1="171.62" x2="153.66" y1="108.91" y2="101.36"/>
<line class="cls-14" x1="152.01" x2="152.85" y1="100.82" y2="108.1"/>
<line class="cls-14" x1="171.62" x2="188.36" y1="108.91" y2="120"/>
<line class="cls-14" x1="152.85" x2="166.93" y1="108.1" y2="115.44"/>
<line class="cls-14" x1="171.62" x2="152.85" y1="108.91" y2="108.1"/>
<line class="cls-14" x1="191.42" x2="188.36" y1="124.55" y2="120"/>
<line class="cls-14" x1="191.42" x2="178.15" y1="124.55" y2="138.3"/>
<polyline class="cls-14" points="171.62 116.26 188.36 120 171.62 108.91 171.62 116.26"/>
<polyline class="cls-14" points="166.93 115.44 171.62 116.26 171.62 108.91 152.43 108.1 166.93 115.44 151.22 129.93"/>
<line class="cls-14" x1="151.22" x2="178.15" y1="129.93" y2="138.3"/>
<line class="cls-14" x1="166.93" x2="178.15" y1="115.44" y2="138.3"/>
<line class="cls-14" x1="133.87" x2="166.93" y1="98.71" y2="115.44"/>
<line class="cls-14" x1="121.22" x2="133.87" y1="92.38" y2="98.71"/>
<line class="cls-14" x1="130.71" x2="151.22" y1="128.91" y2="129.93"/>
<line class="cls-14" x1="151.22" x2="133.87" y1="129.93" y2="98.71"/>
<line class="cls-14" x1="112.44" x2="128.77" y1="122.52" y2="128.23"/>
<line class="cls-14" x1="130.71" x2="128.77" y1="128.91" y2="128.23"/>
<line class="cls-14" x1="112.44" x2="111.63" y1="122.52" y2="118.5"/>
<line class="cls-14" x1="121.22" x2="111.63" y1="92.38" y2="118.5"/>
<line class="cls-14" x1="130.71" x2="121.22" y1="128.91" y2="92.38"/>
<line class="cls-14" x1="128.77" x2="112.44" y1="128.23" y2="122.52"/>
<line class="cls-14" x1="130.71" x2="128.77" y1="128.91" y2="128.23"/>
<line class="cls-14" x1="146.73" x2="130.71" y1="129.93" y2="128.91"/>
<line class="cls-14" x1="146.73" x2="164.69" y1="129.93" y2="146.26"/>
<line class="cls-14" x1="130.61" x2="128.77" y1="146.26" y2="128.23"/>
<line class="cls-14" x1="94.48" x2="102.88" y1="90.75" y2="86.74"/>
<line class="cls-14" x1="112.44" x2="102.88" y1="122.52" y2="86.74"/>
<line class="cls-14" x1="89.38" x2="94.48" y1="103.2" y2="90.75"/>
<line class="cls-14" x1="83.26" x2="89.38" y1="146.26" y2="103.2"/>
<line class="cls-14" x1="112.44" x2="100.63" y1="122.52" y2="146.26"/>
<line class="cls-14" x1="136.73" x2="142.25" y1="182.66" y2="175.48"/>
<line class="cls-14" x1="125.4" x2="136.73" y1="197.42" y2="182.66"/>
<line class="cls-14" x1="164.69" x2="142.25" y1="146.26" y2="175.48"/>
<line class="cls-14" x1="125.4" x2="110.17" y1="197.42" y2="178.66"/>
<line class="cls-14" x1="130.61" x2="100.63" y1="146.26" y2="146.26"/>
<line class="cls-14" x1="130.61" x2="164.69" y1="146.26" y2="146.26"/>
<line class="cls-14" x1="110.17" x2="83.26" y1="178.66" y2="146.26"/>
<line class="cls-14" x1="100.63" x2="83.26" y1="146.26" y2="146.26"/>
<line class="cls-14" x1="110.17" x2="100.63" y1="178.66" y2="146.26"/>
<line class="cls-14" x1="125.4" x2="83.26" y1="197.42" y2="146.26"/>
<line class="cls-14" x1="78.97" x2="75.1" y1="141.97" y2="175.24"/>
<line class="cls-14" x1="78.97" x2="83.26" y1="141.97" y2="146.26"/>
<line class="cls-14" x1="164.69" x2="180.19" y1="146.26" y2="149.73"/>
<line class="cls-14" x1="195.3" x2="180.19" y1="155.24" y2="149.73"/>
<line class="cls-14" x1="195.3" x2="205.7" y1="155.24" y2="173.4"/>
<line class="cls-14" x1="195.3" x2="186.85" y1="155.24" y2="188.75"/>
<line class="cls-14" x1="180.19" x2="174.01" y1="149.73" y2="201.22"/>
<line class="cls-14" x1="180.19" x2="186.85" y1="149.73" y2="188.75"/>
<line class="cls-14" x1="148.69" x2="143.56" y1="195.35" y2="198.84"/>
<line class="cls-14" x1="164.69" x2="142.25" y1="146.26" y2="175.48"/>
<line class="cls-14" x1="164.69" x2="174.01" y1="146.26" y2="201.22"/>
<polyline class="cls-14" points="136.73 182.66 136.73 182.66 142.25 175.48"/>
<line class="cls-14" x1="136.73" x2="142.25" y1="182.66" y2="187.28"/>
<line class="cls-14" x1="153.83" x2="142.25" y1="186.91" y2="175.48"/>
<line class="cls-14" x1="142.25" x2="142.25" y1="187.28" y2="175.48"/>
<line class="cls-14" x1="148.69" x2="153.83" y1="195.35" y2="186.91"/>
<line class="cls-14" x1="133.87" x2="142.25" y1="195.35" y2="187.28"/>
<line class="cls-14" x1="142.25" x2="153.83" y1="187.28" y2="186.91"/>
<line class="cls-14" x1="133.87" x2="153.83" y1="195.35" y2="186.91"/>
<line class="cls-14" x1="139.49" x2="148.69" y1="201.22" y2="195.35"/>
<line class="cls-14" x1="133.87" x2="148.69" y1="195.35" y2="195.35"/>
<line class="cls-14" x1="132.11" x2="131.19" y1="197.42" y2="198.49"/>
<line class="cls-14" x1="139.49" x2="136.73" y1="201.22" y2="202.01"/>
<line class="cls-14" x1="125.4" x2="136.73" y1="205.26" y2="202.01"/>
<line class="cls-14" x1="133.87" x2="132.11" y1="195.35" y2="197.42"/>
<line class="cls-14" x1="125.4" x2="131.19" y1="205.26" y2="198.49"/>
<line class="cls-14" x1="133.87" x2="139.49" y1="195.35" y2="201.22"/>
<line class="cls-14" x1="129.63" x2="131.19" y1="200.31" y2="198.49"/>
<line class="cls-14" x1="125.4" x2="132.11" y1="197.42" y2="197.42"/>
<polyline class="cls-14" points="131.19 198.49 132.11 197.42 132.11 197.42"/>
<line class="cls-14" x1="129.63" x2="125.4" y1="200.31" y2="205.26"/>
<line class="cls-14" x1="125.4" x2="129.63" y1="197.42" y2="200.31"/>
<line class="cls-14" x1="138.09" x2="136.73" y1="211.86" y2="202.01"/>
<line class="cls-14" x1="136.73" x2="125.4" y1="202.01" y2="205.26"/>
<line class="cls-14" x1="138.09" x2="135.49" y1="211.86" y2="211.86"/>
<line class="cls-14" x1="136.13" x2="136.73" y1="218.13" y2="223.97"/>
<line class="cls-14" x1="136.13" x2="135.49" y1="218.13" y2="211.86"/>
<line class="cls-14" x1="135.49" x2="130.71" y1="211.86" y2="209.29"/>
<line class="cls-14" x1="130.42" x2="129.63" y1="213.53" y2="225.25"/>
<line class="cls-14" x1="130.42" x2="130.71" y1="213.53" y2="209.29"/>
<line class="cls-14" x1="125.4" x2="130.71" y1="205.26" y2="209.29"/>
<line class="cls-14" x1="136.73" x2="136.13" y1="223.97" y2="218.13"/>
<line class="cls-14" x1="148.69" x2="140.26" y1="243.34" y2="243.34"/>
<line class="cls-14" x1="130.42" x2="130.71" y1="213.53" y2="209.29"/>
<line class="cls-14" x1="136.73" x2="130.71" y1="223.97" y2="209.29"/>
<line class="cls-14" x1="130.71" x2="134.95" y1="235.16" y2="239.86"/>
<polyline class="cls-14" points="134.94 239.86 138.09 243.34 140.26 243.34"/>
<line class="cls-14" x1="129.63" x2="130.42" y1="225.25" y2="213.53"/>
<line class="cls-14" x1="130.42" x2="140.26" y1="213.53" y2="243.34"/>
<line class="cls-14" x1="135.49" x2="136.13" y1="211.86" y2="218.13"/>
<line class="cls-14" x1="138.09" x2="137.18" y1="211.86" y2="205.26"/>
<polyline class="cls-14" points="164.69 225.25 154.56 243.34 148.69 243.34"/>
<polyline class="cls-14" points="135.49 211.86 143.01 226.72 138.09 211.86"/>
<line class="cls-14" x1="136.13" x2="148.69" y1="218.13" y2="243.34"/>
<line class="cls-14" x1="139.49" x2="143.56" y1="201.22" y2="198.84"/>
<line class="cls-14" x1="137.18" x2="136.73" y1="205.26" y2="202.01"/>
<line class="cls-14" x1="136.73" x2="139.49" y1="202.01" y2="201.22"/>
<line class="cls-14" x1="143.56" x2="174.01" y1="198.84" y2="201.22"/>
<line class="cls-14" x1="164.69" x2="137.18" y1="225.25" y2="205.26"/>
<line class="cls-14" x1="105.71" x2="130.71" y1="219.52" y2="235.16"/>
<line class="cls-14" x1="125.4" x2="125.4" y1="197.42" y2="205.26"/>
<line class="cls-14" x1="125.4" x2="129.63" y1="205.26" y2="225.25"/>
<line class="cls-14" x1="130.71" x2="129.63" y1="235.16" y2="225.25"/>
<line class="cls-14" x1="105.71" x2="81.42" y1="219.52" y2="186.67"/>
<line class="cls-14" x1="125.4" x2="75.1" y1="197.42" y2="175.24"/>
<line class="cls-14" x1="105.71" x2="125.4" y1="219.52" y2="197.42"/>
<line class="cls-14" x1="73.42" x2="75.1" y1="181.96" y2="175.24"/>
<line class="cls-14" x1="81.42" x2="76.73" y1="186.67" y2="189.52"/>
<line class="cls-14" x1="75.1" x2="81.42" y1="175.24" y2="186.67"/>
<line class="cls-14" x1="73.42" x2="70.4" y1="181.96" y2="194.01"/>
<line class="cls-14" x1="73.42" x2="76.73" y1="181.96" y2="189.52"/>
<line class="cls-14" x1="76.73" x2="78.77" y1="189.52" y2="198.71"/>
<line class="cls-14" x1="70.4" x2="76.73" y1="194.01" y2="189.52"/>
<line class="cls-14" x1="70.4" x2="73.87" y1="194.01" y2="205.03"/>
<line class="cls-14" x1="70.4" x2="78.77" y1="194.01" y2="198.71"/>
<line class="cls-14" x1="82.26" x2="78.77" y1="204.34" y2="198.71"/>
<line class="cls-14" x1="73.87" x2="82.26" y1="205.03" y2="204.34"/>
<line class="cls-14" x1="73.87" x2="78.77" y1="205.03" y2="198.71"/>
<line class="cls-14" x1="79.38" x2="82.26" y1="204.58" y2="204.34"/>
<line class="cls-14" x1="87.75" x2="82.26" y1="213.2" y2="204.34"/>
<line class="cls-14" x1="79.38" x2="87.75" y1="206.46" y2="213.2"/>
<line class="cls-14" x1="73.87" x2="79.38" y1="205.03" y2="204.58"/>
<line class="cls-14" x1="79.38" x2="78.36" y1="206.46" y2="212.38"/>
<line class="cls-14" x1="79.38" x2="79.38" y1="206.46" y2="204.58"/>
<line class="cls-14" x1="76.93" x2="72.24" y1="213.4" y2="215.64"/>
<line class="cls-14" x1="78.36" x2="76.93" y1="212.38" y2="213.4"/>
<line class="cls-14" x1="73.87" x2="72.24" y1="205.03" y2="215.64"/>
<line class="cls-14" x1="78.36" x2="73.87" y1="212.38" y2="205.03"/>
<line class="cls-14" x1="105.71" x2="128.78" y1="219.52" y2="233.96"/>
<polyline class="cls-14" points="128.78 233.96 132.44 243.34 104.89 225.64"/>
<line class="cls-14" x1="105.71" x2="104.89" y1="219.52" y2="225.64"/>
<polyline class="cls-14" points="128.78 233.96 132.07 242.39 134.94 239.86"/>
<line class="cls-14" x1="128.78" x2="130.71" y1="233.96" y2="235.16"/>
<polyline class="cls-14" points="134.94 239.86 134.94 239.86 130.71 235.16"/>
<polyline class="cls-14" points="98.16 240.75 130.96 242.39 104.89 225.64"/>
<line class="cls-14" x1="104.89" x2="98.16" y1="225.64" y2="240.75"/>
<line class="cls-14" x1="164.69" x2="174.01" y1="225.25" y2="201.22"/>
<line class="cls-14" x1="164.69" x2="181.46" y1="225.25" y2="243.34"/>
<line class="cls-14" x1="164.69" x2="175.31" y1="225.25" y2="227.18"/>
<line class="cls-14" x1="175.31" x2="174.01" y1="227.18" y2="201.22"/>
<line class="cls-14" x1="175.31" x2="175.88" y1="227.18" y2="229.34"/>
<line class="cls-14" x1="175.88" x2="180.89" y1="229.34" y2="236.97"/>
<line class="cls-14" x1="201.26" x2="175.88" y1="231.43" y2="229.34"/>
<path class="cls-14" d="M181.46,243.34c8.42.57,11.37-.39,11.37-.39"/>
<line class="cls-14" x1="181.46" x2="180.89" y1="243.34" y2="236.97"/>
<path class="cls-14" d="m192.83 243a31 31 0 0 0 8.43-2.53"/>
<line class="cls-14" x1="201.26" x2="180.89" y1="231.43" y2="236.97"/>
<line class="cls-14" x1="192.83" x2="180.89" y1="242.95" y2="236.97"/>
<path class="cls-14" d="m201.26 240.42a27.15 27.15 0 0 0 5.88-3.45"/>
<line class="cls-14" x1="201.26" x2="201.26" y1="231.43" y2="240.42"/>
<line class="cls-14" x1="205.7" x2="186.85" y1="173.4" y2="188.75"/>
<line class="cls-14" x1="186.85" x2="174.01" y1="188.75" y2="201.22"/>
<line class="cls-14" x1="201.26" x2="174.01" y1="231.43" y2="201.22"/>
<line class="cls-14" x1="207.34" x2="212.97" y1="184.42" y2="231.43"/>
<line class="cls-14" x1="205.7" x2="207.34" y1="173.4" y2="184.42"/>
<line class="cls-14" x1="205.7" x2="201.26" y1="173.4" y2="231.43"/>
<path class="cls-14" d="m213 231.43a30.44 30.44 0 0 1-5.83 5.54"/>
<line class="cls-14" x1="201.26" x2="207.14" y1="231.43" y2="236.97"/>
<line class="cls-14" x1="212.97" x2="201.26" y1="231.43" y2="231.43"/>
<path class="cls-2" d="m139.37 62.18s-3.87-0.7-3.05 2.3 5.71 4 6.53 3 2.83-4.89-3.48-5.3z"/>
<line class="cls-15" x1="189.99" x2="194.55" y1="77.89" y2="78.17"/>
<line class="cls-15" x1="189.82" x2="195.13" y1="80.53" y2="80.8"/>
<line class="cls-15" x1="189.62" x2="195.68" y1="83.06" y2="83.33"/>
<line class="cls-15" x1="189.62" x2="196.18" y1="85.73" y2="86.01"/>
<line class="cls-15" x1="189.62" x2="196.86" y1="88.38" y2="88.66"/>
<line class="cls-15" x1="189.28" x2="197.4" y1="91.1" y2="91.38"/>
<line class="cls-15" x1="189.18" x2="198.43" y1="93.7" y2="94.28"/>
<line class="cls-15" x1="188.84" x2="198.69" y1="96.5" y2="96.98"/>
<line class="cls-15" x1="188.59" x2="199.62" y1="99.04" y2="99.69"/>
<line class="cls-15" x1="210.05" x2="208.14" y1="186.13" y2="191.13"/>
<line class="cls-15" x1="212.07" x2="208.74" y1="187.31" y2="196.14"/>
<line class="cls-15" x1="213.93" x2="209.28" y1="188.63" y2="200.61"/>
<line class="cls-15" x1="215.84" x2="210.05" y1="189.81" y2="204.39"/>
<line class="cls-15" x1="217.75" x2="210.4" y1="191.13" y2="208.9"/>
<line class="cls-15" x1="219.66" x2="210.79" y1="192.32" y2="213.24"/>
<line class="cls-15" x1="221.71" x2="211.34" y1="193.24" y2="217.85"/>
<line class="cls-15" x1="223.62" x2="211.88" y1="194.43" y2="222.36"/>
<line class="cls-15" x1="225.53" x2="212.42" y1="195.75" y2="226.84"/>
<line class="cls-15" x1="227.45" x2="212.97" y1="196.93" y2="231.43"/>
<line class="cls-15" x1="229.13" x2="218.17" y1="198.11" y2="224.88"/>
<line class="cls-15" x1="230.79" x2="223.62" y1="199.16" y2="216.01"/>
<line class="cls-15" x1="83.56" x2="101.7" y1="144.12" y2="144.12"/>
<line class="cls-15" x1="83.86" x2="102.63" y1="141.65" y2="141.65"/>
<line class="cls-15" x1="84.5" x2="104.09" y1="139.3" y2="139.3"/>
<line class="cls-15" x1="84.7" x2="105.32" y1="136.85" y2="136.85"/>
<line class="cls-15" x1="85.01" x2="106.54" y1="134.39" y2="134.39"/>
<line class="cls-15" x1="85.38" x2="107.68" y1="132.09" y2="132.09"/>
<line class="cls-15" x1="85.74" x2="108.89" y1="129.66" y2="129.66"/>
<line class="cls-15" x1="86.32" x2="109.89" y1="127.44" y2="127.44"/>
<line class="cls-15" x1="86.61" x2="111.22" y1="124.98" y2="124.98"/>
<line class="cls-15" x1="87.25" x2="112.44" y1="122.63" y2="122.52"/>
<line class="cls-15" x1="87.46" x2="111.96" y1="120.17" y2="120.17"/>
<line class="cls-15" x1="87.77" x2="111.16" y1="117.72" y2="117.72"/>
<line class="cls-15" x1="88.13" x2="110.54" y1="115.41" y2="115.41"/>
<line class="cls-15" x1="88.49" x2="109.89" y1="112.99" y2="112.99"/>
<line class="cls-15" x1="88.53" x2="109.21" y1="110.43" y2="110.43"/>
<line class="cls-15" x1="88.82" x2="108.72" y1="107.96" y2="107.96"/>
<line class="cls-15" x1="89.46" x2="107.59" y1="105.61" y2="105.61"/>
<line class="cls-15" x1="89.67" x2="107.8" y1="103.16" y2="103.16"/>
<line class="cls-15" x1="90.34" x2="106.72" y1="100.7" y2="100.7"/>
<line class="cls-15" x1="91.35" x2="105.99" y1="98.4" y2="98.4"/>
<line class="cls-15" x1="92.36" x2="105.42" y1="95.94" y2="95.97"/>
<line class="cls-15" x1="93.45" x2="104.68" y1="93.48" y2="93.48"/>
<line class="cls-15" x1="94.31" x2="104.1" y1="91.18" y2="91.18"/>
<line class="cls-14" x1="98.73" x2="103.46" y1="88.72" y2="88.75"/>
<line class="cls-15" x1="168.77" x2="182.04" y1="118.54" y2="118.88"/>
<line class="cls-15" x1="169.86" x2="188.87" y1="121.73" y2="121.36"/>
<line class="cls-15" x1="171.06" x2="190.51" y1="124.17" y2="123.63"/>
<line class="cls-15" x1="172.32" x2="189.76" y1="126.75" y2="126.27"/>
<line class="cls-15" x1="173.77" x2="187.06" y1="129.43" y2="129.07"/>
<line class="cls-15" x1="175.18" x2="184.24" y1="132.26" y2="131.99"/>
<line class="cls-15" x1="176.37" x2="181.27" y1="135.21" y2="135.07"/>
</svg>