<svg version="1.0" viewBox="0 0 24 24" xmlns="http://www.w3.org/2000/svg"><path d="M 22 2 C 19.977 2.139 5.766 3.492 4.773 13.234 C 4.652 14.276 4.584 15.322 4.539 16.369 L 8.852 12.061 A 1.5 1.5 0 0 1 7.9 12.4 A 1.5 1.5 0 0 1 6.4 10.9 A 1.5 1.5 0 0 1 7.9 9.4 A 1.5 1.5 0 0 1 9.4 10.9 A 1.5 1.5 0 0 1 9.051 11.863 L 11.527 9.389 C 11.772 9.144 12.168 9.144 12.412 9.389 C 12.657 9.634 12.657 10.029 12.412 10.273 L 9.887 12.795 A 1.5 1.5 0 0 1 10.9 12.4 A 1.5 1.5 0 0 1 12.4 13.9 A 1.5 1.5 0 0 1 10.9 15.4 A 1.5 1.5 0 0 1 9.4 13.9 A 1.5 1.5 0 0 1 9.779 12.902 L 2.275 20.4 C 1.909 20.766 1.909 21.36 2.275 21.725 C 2.641 22.091 3.236 22.091 3.602 21.725 L 5.834 19.496 C 7.479 19.49 9.121 19.397 10.754 19.209 C 12.843 18.996 14.545 18.176 15.934 17.002 L 11.988 17.002 L 17.723 15.092 C 18.162 14.51 18.558 13.893 18.912 13.252 L 15.742 13.252 L 19.904 11.174 C 21.543 7.191 21.929 3.025 22 2 Z" fill="#ff7043"/></svg>
