<svg version="1.0" viewBox="0 0 24 24" xmlns="http://www.w3.org/2000/svg"><path d="m 22,2 c -2.023,0.139 -16.233,1.492 -17.226,11.234 -0.121,1.042 -0.189,2.088 -0.234,3.135 l 6.987,-6.98 c 0.245,-0.245 0.641,-0.245 0.885,0 0.245,0.245 0.245,0.64 0,0.884 L 2.275,20.4 c -0.366,0.366 -0.366,0.96 0,1.325 0.366,0.366 0.961,0.366 1.327,0 l 2.232,-2.229 c 1.645,-0.006 3.287,-0.099 4.92,-0.287 2.089,-0.213 3.79,-1.034 5.179,-2.208 h -3.944 l 5.734,-1.909 c 0.439,-0.582 0.835,-1.2 1.189,-1.841 h -3.17 l 4.162,-2.078 C 21.543,7.19 21.929,3.025 22,2 z" fill="#ff7043"/></svg>