<?xml version="1.1" encoding="UTF-8"?><!DOCTYPE svg PUBLIC "-//W3C//DTD SVG 1.1//EN" "http://www.w3.org/Graphics/SVG/1.1/DTD/svg11.dtd"><svg xmlns="http://www.w3.org/2000/svg" xmlns:xlink="http://www.w3.org/1999/xlink" version="1.1" width="24" height="24" viewBox="0 0 1024 1024"><path d="M369.44 682.176c-4.512-27.136-18.08-49.76-45.248-58.816-9.024-4.512-22.592-13.568-31.68-18.08-13.536-4.512-27.104-9.056-36.16-13.568s-18.08 0-27.136 9.056c-4.544 9.024 0 18.08 4.512 22.592 4.544 9.056 9.056 13.568 18.112 22.624 9.024 13.568 18.08 22.624 31.68 36.192 9.024 13.568 18.08 22.624 13.536 40.704-4.512 31.68-18.08 63.36-40.704 85.952-4.512 4.512-9.056 4.512-9.056 4.512-13.568 0-31.68-9.024-40.704-18.08-13.568-13.568-9.056-27.136 4.512-36.16a9.728 9.728 0 0 0 9.056-9.088c9.056-9.024 13.568-18.08 9.056-31.68-4.512-4.48-4.512-9.024-9.056-13.536-18.08-18.112-40.704-36.192-63.328-54.272-58.784-45.248-85.952-99.52-90.464-162.88-4.512-72.352 13.568-140.192 49.76-203.52 13.568-22.624 31.68-45.248 58.816-58.816 18.08-9.056 36.16-13.568 54.272-18.08 49.76-13.6 104.032-22.624 158.304-13.6 45.248 9.056 81.44 31.68 95.008 76.928 9.056 31.648 13.568 58.784 9.056 90.464-4.544 63.328-54.304 117.6-113.088 135.68-27.136 9.056-40.704 4.544-54.304-18.08-9.024-13.568-22.592-31.68-31.68-49.76v-4.512c0-4.544-4.48-4.544-4.48-9.056 4.48 27.136 9.024 54.272 22.592 76.896 9.056 13.568 18.112 22.624 36.192 22.624 58.816 4.512 104.032-13.568 140.224-58.816 36.192-49.76 45.248-108.544 36.192-171.872 0-13.568-4.512-22.624-9.024-36.192 0-9.056 0-13.568 9.024-18.112 4.544 0 9.056 0 9.056-4.512 45.248-9.056 94.976-13.568 140.224-9.056 54.272 4.544 104.032 18.112 149.28 49.76 72.384 45.248 117.6 113.088 140.224 194.528 4.512 13.568 4.512 22.592 4.512 36.16 0 9.056-4.512 9.056-13.568 4.544-9.024-4.544-13.568-13.568-18.08-18.112-4.544-4.512-9.056-13.568-13.568-18.08-4.544-4.512-9.056-4.512-9.056 0s-4.512 9.056-4.512 13.568c-13.568 45.248-31.68 85.952-63.36 117.6-4.48 4.544-9.024 13.568-9.024 18.112 0 18.08-4.512 36.16 0 54.272 4.512 36.16 9.056 76.896 13.568 113.088 4.512 22.624-4.512 31.68-22.624 40.704-13.568 4.512-27.136 9.056-45.216 9.056h-72.384c0-27.136 0-54.272-22.624-67.84 4.512-18.112 9.056-36.192 13.568-58.816 4.544-18.112 0-31.68-9.056-45.248-9.024-13.568-22.592-13.568-36.16-9.024-36.192 22.592-72.384 22.592-113.088 9.024-18.112-4.512-31.68-4.512-40.736 13.568-9.024 18.112-13.568 36.192-13.568 54.304 0 22.592 4.544 49.728 9.056 72.352 0 13.568 0 18.112-13.568 22.624a207.36 207.36 0 0 1-90.464 4.512h-4.512c0-27.136 0-54.272-31.68-67.84 18.112-18.08 18.112-49.76 13.568-76.896z m-185.472-104.032c4.544-4.544 9.056-9.056 9.056-18.112 4.512-13.568-9.056-36.16-22.624-40.704-9.024-4.512-13.568 0-18.08 4.544-13.568 13.568-22.624 27.136-36.192 40.704 0 4.512-4.512 4.512-4.512 9.024-4.544 9.056 0 18.112 9.024 18.112 4.544 0 13.568 0 18.112 4.512 18.08 0 31.68-4.512 45.216-18.08z m0-149.28c0-9.056-9.024-18.08-18.08-18.08s-22.624 9.024-18.08 22.592c0 9.056 9.024 18.112 22.592 18.112 4.544-4.544 13.568-13.568 13.568-22.624z" fill="#1E88E5" /></svg>
