<svg xmlns="http://www.w3.org/2000/svg" viewBox="0 0 32 32"><path fill="#263238" d="M6.405 24.174 5.77 25.68c-.135.532.019 1.045.547 1.269.597.255 1.146-.02 1.316-.348l.218-.52z"/><path fill="#5C6BC0" d="M16.08 4.6s2.434-.1 4.47 1.499a.41.41 0 0 0 .536 0 .384.384 0 0 0 .029-.538c-.102-.124-.55-.574-.904-.593 0 0 .703-.962 2.531-.962 2.323 0 7.258 3.375 7.258 9.696 0 6.074-3.977 7.383-5.058 7.383-1.645 0-3.35-1.697-3.35-2.782a4.9 4.9 0 0 0 1.542-1.4 4.9 4.9 0 0 0 .82-1.92s.088-2.59 0-4.786a.46.46 0 0 0-.399-.374.41.41 0 0 0-.42.408c0 .245.108 1.763.027 4.486-.044 1.466-1.432 2.612-2.085 2.87q.319-.897.528-1.827c.05-.238 0-.405-.16-.472a.35.35 0 0 0-.477.203c-.106.215-3.885 12.498-9.11 12.498-4.416 0-6.961-6.3-6.961-7.745s.921-2.127 1.734-2.127 1.922.817 2.057 1.077-.582.883-.582.883l-.625-.505a.385.385 0 0 0-.489.015.363.363 0 0 0-.01.51c.16.16 4.933 4.006 4.933 4.006a.445.445 0 0 0 .568.037.376.376 0 0 0 .017-.529l-1.344-1.083 1.431-4.03s-2.197-.982-3.632.102c0 0-.757-1.261-2.26-1.261a2.5 2.5 0 0 0-1.738.665 2.54 2.54 0 0 0-.808 1.687S2 17.6 2 13.735C2 9.358 5.467 4 9.487 4a3.92 3.92 0 0 1 2.488.89l-.888.674a.407.407 0 0 0-.03.557.38.38 0 0 0 .508.052c.14-.103 1.571-1.574 4.515-1.574"/><path fill="#263238" d="m9.853 21.495 1.273-2.884q.765.143 1.543.16c1.97 0 5.76-1.602 5.76-5.94 0-4.337-3.687-6.043-5.95-6.043-3.059 0-6.045 2.304-6.045 5.85 0 3.694 2.695 5.14 2.695 5.14l-1.023 2.309zm9.907-8.49a.32.32 0 0 1-.269-.15.32.32 0 0 1-.018-.309c.018-.035.414-.849 1.244-.849s1.225.77 1.241.801a.33.33 0 0 1-.035.36.318.318 0 0 1-.531-.068c-.01-.018-.242-.452-.675-.452s-.666.48-.67.48a.32.32 0 0 1-.286.187"/><path fill="#D7CCC8" d="M12.425 16.696c2.117 0 3.833-1.728 3.833-3.86s-1.716-3.86-3.833-3.86-3.832 1.729-3.832 3.86c0 2.132 1.716 3.86 3.832 3.86"/><path fill="#263238" d="M12.425 14.828a1.985 1.985 0 0 0 1.978-1.992c0-1.1-.886-1.991-1.978-1.991a1.985 1.985 0 0 0-1.977 1.991c0 1.1.885 1.992 1.977 1.992"/></svg>