<svg version="1.0" viewBox="0 0 32 32" xmlns="http://www.w3.org/2000/svg"><path d="M 10.684,2.002 C 9.603,2.023 8.646,2.704 8.273,3.719 l -6.109,16.723 c -0.498,1.36 0.205,2.866 1.566,3.359 L 20.377,29.844 c 0.285,0.104 0.586,0.156 0.889,0.156 1.096,4.65e-4 2.076,-0.68 2.459,-1.707 l 2.932,-8.027 c 0.144,-0.396 0.064,-0.839 -0.209,-1.16 -0.264,-0.317 -0.681,-0.465 -1.086,-0.385 -0.222,0.042 -0.446,0.064 -0.672,0.064 h -0.014 c -1.863,0.037 -3.406,-1.437 -3.455,-3.299 0.037,-1.868 1.578,-3.353 3.445,-3.322 h 0.014 c 1.021,-0.007 1.994,0.431 2.666,1.199 0.265,0.311 0.677,0.455 1.078,0.379 0.408,-0.073 0.747,-0.358 0.887,-0.748 l 0.525,-1.436 c 0.498,-1.36 -0.205,-2.866 -1.566,-3.359 L 11.623,2.156 C 11.322,2.048 11.004,1.996 10.684,2.002 Z M 24.672,13.43 c -2.664,0.053 -2.658,4.025 0.006,4.07 h 0.008 c 1.813,-0.008 2.712,-2.203 1.426,-3.481 -0.381,-0.383 -0.9,-0.596 -1.44,-0.59 z" fill="#6963b9" /></svg>