<?xml version="1.0" encoding="UTF-8"?>
<svg version="1.1" viewBox="0 0 24 24" xml:space="preserve" xmlns="http://www.w3.org/2000/svg"><g transform="translate(-520.81)"><g transform="matrix(.14275 0 0 .14275 419.45 1.4415)"><path d="m794.38 11.725c-0.93801 0.0094-1.8974 0.57626-2.9824 1.6855-3.2714 3.3446-47.385 65.761-47.385 67.045 0 1.8516 3.2085 4.7461 5.2617 4.7461 1.0737 0 5.0665-1.6875 8.873-3.75 4.99-2.7038 7.0918-4.4475 7.5332-6.25 1.782-7.2764 6.114-11 12.797-11 5.1213 0 10.467 5.0678 11.213 10.631 0.50938 3.7977 1.2165 4.6192 8.8164 10.248 4.5448 3.3661 8.7158 6.1211 9.2695 6.1211 0.55374 0 2.2957-0.67253 3.8711-1.4941 3.8185-1.9915 6.206-1.8901 10.381 0.4375 1.9164 1.0684 3.8948 1.9684 4.3965 2 1.5445 0.0972 16.732-9.1568 17.252-10.512 0.2692-0.70152 7e-3 -2.1794-0.58398-3.2832-0.82975-1.5504-36.724-52.512-44.975-63.855-1.3604-1.8703-2.5323-2.7816-3.7383-2.7695z" fill="#66bb6a"/><path d="m768.84 85.059-24.324 13.801-10.742 14.92c-11.306 15.704-12.753 18.52-10.748 20.936 1.0705 1.2898 10.424 1.4863 70.531 1.4863 38.113 0 70.007-0.27355 70.877-0.60742 0.86999-0.33384 1.582-1.6154 1.582-2.8496 0-2.3894-23.328-36.348-25.557-37.203-2.6824-1.0293-10.444 4.7263-12.895 9.5625-2.7418 5.4107-6.1855 7.6004-11.727 7.4551-4.8853-0.1281-9.1458-3.8607-11.021-9.6543-1.0855-3.3528-2.7815-5.0813-10.211-10.406-6.0387-4.3281-9.423-6.1589-10.5-5.6797-3.5172 1.565-8.9213 1.5216-12.049-0.0957z" fill="#388e3c"/></g></g></svg>
