<svg version="1.1" viewBox="0 0 100 100" xmlns="http://www.w3.org/2000/svg">
 <path d="m72.152 24.129 2.1285-11.606c-3.2321-2.1547-6.7445-3.8715-10.432-5.1066l-7.8569 8.8029c-3.8277-0.70073-7.7518-0.727-11.588-0.070072l-7.7606-8.908c-3.7051 1.1825-7.235 2.8555-10.502 4.9752l1.9796 11.632c-2.9343 2.5577-5.4044 5.6058-7.2876 9.0219l-11.79 0.50803c-1.3839 3.635-2.2774 7.4365-2.654 11.308l10.336 5.7022c0.16642 3.889 1.0161 7.7168 2.5051 11.317l-6.9547 9.5387c1.9796 3.346 4.3971 6.4204 7.1825 9.127l10.905-4.5197c3.1445 2.2949 6.6744 4.0204 10.415 5.0978l3.1182 11.387c3.854 0.54306 7.7606 0.56058 11.615 0.07007l3.2584-11.343c3.7577-1.0248 7.3051-2.7066 10.476-4.9664l10.844 4.6598c2.8204-2.6715 5.2817-5.7109 7.2963-9.0394l-6.8321-9.6262c1.5328-3.5737 2.435-7.4014 2.654-11.282l10.406-5.5708c-0.33285-3.8715-1.1737-7.6905-2.5139-11.343l-11.781-0.65693c-1.8394-3.4336-4.2657-6.5168-7.1737-9.1095z" fill="#689f38" stroke-width="0px"/>
 <circle cx="50.674" cy="48.601" r="27.582" fill="#dcedc8" stroke-width="0px"/>
 <g fill="#aed581">
  <path d="m32.215 41.215c-7.4612 0.18421-6.5634 10.815-1.0391 20.367 7.2 12.455 21.741 16.617 18.264-9.1699-0.27153-2.0058-1.366-3.8116-3.0215-4.9766-6.4125-4.5142-11.053-6.2985-14.203-6.2207z" stroke-width="0px"/>
  <path d="m49.168 25.215 0.007812 0.007812c-14.382 0.0088-25.259 10.52-1.1895 20.4 1.8744 0.7708 3.975 0.71877 5.8145-0.13086 23.974-11.098 11.063-20.286-4.6328-20.277z"/>
  <path d="m69.127 40.814c-3.3154-9.51e-4 -8.0992 1.9843-14.537 6.9551-1.6029 1.235-2.6197 3.0821-2.7949 5.1055-2.3737 26.312 12.036 19.727 19.875 6.1328v-0.009765c4.9379-8.5691 4.7508-18.182-2.543-18.184z" stroke-width="0px"/>
 </g>
</svg>
