<svg xmlns="http://www.w3.org/2000/svg" viewBox="0 0 100 100"><path fill="#689f38" d="m72.152 24.129 2.128-11.606a44.013 44.013 0 0 0-10.43-5.107l-7.857 8.803a33.224 33.224 0 0 0-11.588-.07l-7.761-8.908a43.706 43.706 0 0 0-10.502 4.975l1.98 11.632a33.293 33.293 0 0 0-7.288 9.022l-11.79.508A43.658 43.658 0 0 0 6.39 44.686l10.336 5.703a33.335 33.335 0 0 0 2.505 11.317l-6.955 9.538a43.904 43.904 0 0 0 7.183 9.127l10.905-4.52a33.317 33.317 0 0 0 10.415 5.098l3.118 11.387c3.854.543 7.76.56 11.615.07l3.259-11.343a33.024 33.024 0 0 0 10.476-4.966l10.844 4.66a43.46 43.46 0 0 0 7.296-9.04l-6.832-9.626a33.44 33.44 0 0 0 2.654-11.282l10.406-5.57A43.84 43.84 0 0 0 91.1 33.894l-11.781-.657a33.212 33.212 0 0 0-7.174-9.109z"/><circle cx="50.674" cy="48.601" r="27.582" fill="#dcedc8"/><g fill="#aed581"><path d="M32.215 41.215c-7.461.184-6.563 10.815-1.04 20.367 7.2 12.455 21.742 16.617 18.265-9.17a7.28 7.28 0 0 0-3.022-4.976c-6.412-4.515-11.053-6.299-14.203-6.221zm16.953-16 .008.008c-14.382.009-25.26 10.52-1.19 20.4a7.26 7.26 0 0 0 5.815-.131c23.974-11.098 11.063-20.286-4.633-20.277z"/><path d="M69.127 40.814c-3.315-.001-8.1 1.984-14.537 6.955a7.23 7.23 0 0 0-2.795 5.106c-2.374 26.312 12.036 19.727 19.875 6.132v-.01c4.938-8.568 4.75-18.181-2.543-18.183z"/></g></svg>