<?xml version="1.0" encoding="UTF-8"?>
<svg version="1.1" xmlns="http://www.w3.org/2000/svg" viewBox="0 0 16 16">
	<g fill="#EF6C00">
		<path d="M13.582,3.978l-4.87-2.789c-0.441-0.253-0.983-0.253-1.424,0l-4.87,2.789c-0.281,0.161-0.494,0.409-0.614,0.7l0,0
			c-0.07,0.17-0.107,0.354-0.107,0.544v5.557c0,0.514,0.266,0.941,0.712,1.197l0.69,0.393l0.021-6.519
			c0-0.138,0.03-0.281,0.077-0.406l0,0c0.092-0.226,0.262-0.432,0.481-0.557l3.771-2.159c0.342-0.196,0.761-0.196,1.103,0
			l3.771,2.159c0.263,0.151,0.45,0.401,0.523,0.687l0,0l0,0c0.023,0.089,0.035,0.181,0.035,0.276v4.303
			c0,0.398-0.213,0.765-0.558,0.963l-3.771,2.159c-0.172,0.099-0.364,0.147-0.556,0.146L7.997,15l0,0
			c0.246,0,0.494-0.063,0.714-0.189l4.87-2.789c0.446-0.255,0.721-0.73,0.721-1.244V5.222c0-0.132-0.018-0.261-0.053-0.384l0,0
			C14.151,4.479,13.914,4.168,13.582,3.978z"/>
		<path d="M8.395,11.782l2.705-1.549c0.248-0.142,0.4-0.405,0.4-0.691V6.457c0-0.065-0.008-0.128-0.023-0.19l0,0
			c-0.051-0.209-0.186-0.391-0.377-0.501L8.395,4.218c-0.245-0.14-0.546-0.14-0.791,0L4.9,5.766C4.73,5.864,4.604,6.019,4.542,6.198
			l0,0C4.516,6.279,4.499,6.37,4.499,6.457l-0.01,6.696l1.443,0.81v-3.138l1.672,0.957c0.12,0.069,0.254,0.104,0.388,0.105l0,0
			C8.131,11.889,8.271,11.854,8.395,11.782z M6.16,9.326c-0.147-0.084-0.238-0.241-0.238-0.41V7.084c0-0.056,0.01-0.11,0.028-0.161
			l0,0l0,0C5.988,6.819,6.061,6.73,6.16,6.674l1.606-0.919c0.145-0.083,0.324-0.083,0.47,0l1.606,0.919
			c0.118,0.068,0.2,0.182,0.227,0.312l0,0c0.005,0.028,0.01,0.069,0.01,0.098v1.832c0,0.169-0.091,0.326-0.238,0.41l-1.606,0.919
			C8.162,10.287,8.081,10.308,8,10.308v0c-0.081,0-0.162-0.021-0.235-0.062L6.16,9.326z"/>
	</g>
</svg>
