<svg viewBox="0 0 24 24" fill="none" xmlns="http://www.w3.org/2000/svg">
  <path
    d="M10.28 15.527v-1.384l-3.846 1.09s.284-1.65 2.29-2.22c.608-.172 1.127-.17 1.555-.088V7.248h1.926a11.531 11.531 0 0 0-.583-1.493c-.282-.573-.57-.193-1.226.356-.462.385-1.63 1.209-3.386 1.682-1.756.473-3.176.348-3.769.245-.84-.145-1.28-.33-1.238.31.036.563.17 1.437.477 2.59.666 2.5 2.864 7.315 7.019 6.196 1.085-.293 1.851-.87 2.382-1.608H10.28Zm-6.205-4.554 2.952-.778s-.086 1.136-1.193 1.428c-1.107.291-1.76-.65-1.76-.65Z"
    fill="#EF5350" />
  <path
    d="M21.392 7.314c-.768.135-2.61.302-4.885-.308-2.276-.61-3.786-1.675-4.385-2.176-.848-.71-1.22-1.205-1.588-.458-.325.659-.74 1.73-1.142 3.232-.87 3.25-1.521 10.107 3.861 11.55 5.381 1.442 8.246-4.823 9.117-8.073.402-1.5.578-2.636.626-3.369.056-.83-.514-.589-1.604-.398Zm-10.814 2.689s.848-1.32 2.286-.91c1.44.408 1.551 2 1.551 2l-3.837-1.09Zm3.511 5.92c-2.53-.742-2.92-2.76-2.92-2.76l6.797 1.901s-1.372 1.59-3.877.859Zm2.404-4.147s.847-1.319 2.285-.909c1.438.41 1.552 2.001 1.552 2.001l-3.837-1.092Z"
    fill="#2EAD33" />
  <path
    d="m8.936 14.524-2.502.709s.272-1.548 2.115-2.162L7.132 7.756l-.122.037c-1.757.473-3.177.348-3.77.245-.84-.145-1.278-.33-1.237.31.035.563.17 1.437.477 2.59.665 2.5 2.864 7.315 7.019 6.196l.122-.039-.685-2.571Zm-4.861-3.55 2.952-.779s-.086 1.136-1.193 1.428c-1.107.292-1.76-.65-1.76-.65Z"
    fill="#D65348" />
  <path
    d="m14.203 15.95-.114-.027c-2.53-.742-2.92-2.76-2.92-2.76l3.505.98 1.855-7.13-.022-.007c-2.276-.61-3.787-1.675-4.385-2.176-.848-.71-1.221-1.205-1.588-.458-.325.659-.74 1.73-1.142 3.232-.87 3.25-1.521 10.107 3.861 11.55l.11.025.84-3.229Zm-3.625-5.947s.848-1.32 2.286-.91c1.44.408 1.551 2 1.551 2l-3.837-1.09Z"
    fill="#388E3C" />
</svg>