<?xml version="1.0" encoding="UTF-8"?>
<svg fill="none" version="1.1" viewBox="0 0 24 24" xmlns="http://www.w3.org/2000/svg">
 <g transform="matrix(1.0322 0 0 1.0322 -.90256 -.05932)">
  <path d="m10.28 15.527v-1.384l-3.846 1.09s0.284-1.65 2.29-2.22c0.608-0.172 1.127-0.17 1.555-0.088v-5.677h1.926a11.531 11.531 0 0 0-0.583-1.493c-0.282-0.573-0.57-0.193-1.226 0.356-0.462 0.385-1.63 1.209-3.386 1.682s-3.176 0.348-3.769 0.245c-0.84-0.145-1.28-0.33-1.238 0.31 0.036 0.563 0.17 1.437 0.477 2.59 0.666 2.5 2.864 7.315 7.019 6.196 1.085-0.293 1.851-0.87 2.382-1.608h-1.601zm-6.205-4.554 2.952-0.778s-0.086 1.136-1.193 1.428c-1.107 0.291-1.76-0.65-1.76-0.65z" fill="#ef5350"/>
  <path d="m21.392 7.314c-0.768 0.135-2.61 0.302-4.885-0.308-2.276-0.61-3.786-1.675-4.385-2.176-0.848-0.71-1.22-1.205-1.588-0.458-0.325 0.659-0.74 1.73-1.142 3.232-0.87 3.25-1.521 10.107 3.861 11.55 5.381 1.442 8.246-4.823 9.117-8.073 0.402-1.5 0.578-2.636 0.626-3.369 0.056-0.83-0.514-0.589-1.604-0.398zm-10.814 2.689s0.848-1.32 2.286-0.91c1.44 0.408 1.551 2 1.551 2zm3.511 5.92c-2.53-0.742-2.92-2.76-2.92-2.76l6.797 1.901s-1.372 1.59-3.877 0.859zm2.404-4.147s0.847-1.319 2.285-0.909 1.552 2.001 1.552 2.001z" fill="#4caf50"/>
 </g>
</svg>
