<?xml version="1.0" encoding="UTF-8"?>
<svg xmlns="http://www.w3.org/2000/svg" viewBox="0 0 528 640" width="528" height="640">
<path d="M161.11 181.25C161.11 226.46 161.11 271.66 161.11 316.87C173.43 317.41 185.91 316.85 198.25 316.86C223.42 316.88 248.58 316.84 273.75 316.89C281.4 316.91 288.55 316.85 295.71 319.02C306.42 322.27 313.74 335.3 314.06 345.75C314.11 347.47 313.5 348.69 313.17 350.3C312.51 353.53 312.2 356.58 310.91 359.65C306.19 370.82 294.31 380.49 282.78 383.12C281.82 383.34 281.32 383.99 280.25 384.08C272.18 384.8 263.84 384.45 255.75 384.38C239.25 384.26 222.75 384.34 206.25 384.31C190.89 384.28 177.58 383.21 167.14 396.39C157.88 408.07 161.2 428.32 161.16 442.75C161.07 479.76 161.24 516.74 161.17 553.75C161.12 577.77 137.93 599.09 113.76 593.09C103.64 590.57 94.84 580.98 92.01 571.25C89.44 562.44 90.8 551.56 90.83 542.25C90.89 524.75 90.76 507.25 90.82 489.75C91.16 398.25 90.71 306.75 90.78 215.25C90.79 201.25 90.78 187.25 90.81 173.25C90.82 166.51 89.61 155.48 90.95 149.25C93.49 137.39 100.23 126.16 111.37 120.14C125.09 112.72 140.61 113.83 156.25 113.98C173.2 114.14 190.25 113.82 207.25 113.82C223.62 113.82 239.86 113.83 256.25 113.82C277.58 113.8 298.98 113.92 319.26 119.01C341.65 124.62 361.95 135.61 380.95 149.33C399.9 163.01 418.13 187.51 428.3 208.02C433.91 219.33 438.44 230.82 442.02 242.74C443.09 246.28 443.19 250.08 444.23 253.61C444.81 255.59 445.7 257.69 446.05 259.75C455.31 314.31 444.96 372.78 412.72 416.98C405.02 427.54 394.98 437.33 384.98 445.72C382.57 447.74 379.6 449.09 377.3 451.04C373.42 454.34 369.02 457.37 364.62 459.86C344.1 471.45 322.58 478.69 299.27 482.07C297.27 482.36 295.26 481.94 293.25 482.11C281.97 483.06 270.67 483.17 259.25 483.16C248.23 483.16 236.72 484.13 225.75 483.06C205.32 481.07 187.59 462.44 192.84 441.18C193.73 437.58 194.54 433.79 196.8 430.59C201.42 424.04 207.56 417.74 215.33 415.08C223.4 412.31 232.61 412.83 241.25 412.86C255.97 412.92 271.24 413.84 285.73 411.96C287.36 411.75 289.06 412.19 290.67 411.82C301.73 409.24 312.56 406.26 322.61 400.79C347.79 387.09 366.27 360.75 373.8 334.13C378.25 318.36 377.6 301.84 378.06 285.25C378.25 278.58 376.12 272.05 374.97 265.75C367.93 227.14 337.5 194.15 299.16 184.18C286.73 180.95 273.84 181.11 260.75 181.05C246.58 180.99 232.42 181.07 218.25 181.05C205.92 181.03 193.58 181.07 181.25 181.04C174.82 181.03 167.41 180.06 161.11 181.25Z" fill="#9e61fe" fill-rule="evenodd" stroke="#9e61fe" stroke-width="0.25" stroke-linejoin="round"/>
</svg>