<svg fill="none" xmlns="http://www.w3.org/2000/svg" viewBox="0 0 250 250"><path fill-rule="evenodd" clip-rule="evenodd" d="M50.138 159.791c3.252 42.632 31.717 80.184 74.457 80.209h.084l.321-.001.321.001h.084c42.74-.025 71.205-37.577 74.457-80.209.092-1.196.137-2.425.138-3.688v-.05c-.009-18.823-10.062-44.942-29.716-75.868a6425.855 6425.855 0 0 0-30.899-48.092 6860.979 6860.979 0 0 0-10.198-15.684c-1.231-1.888-2.199-3.37-2.858-4.379a960 960 0 0 0-.754-1.152L125 10l-.575.878a960 960 0 0 0-.754 1.152c-.659 1.01-1.627 2.491-2.858 4.38-2.463 3.775-5.98 9.178-10.198 15.683a6426.73 6426.73 0 0 0-30.899 48.092C60.054 111.125 50 137.254 50 156.078c0 1.271.046 2.509.138 3.713Zm36.518-3.178c1.666 21.827 16.245 41.054 38.137 41.067h.414c21.892-.013 36.471-19.24 38.137-41.067.047-.612.07-1.242.071-1.888v-.026c-.005-9.637-5.154-23.01-15.221-38.844a3296.385 3296.385 0 0 0-15.826-24.623 3950.467 3950.467 0 0 0-6.688-10.272l-.68-1.04-.68 1.04a3008.268 3008.268 0 0 0-6.688 10.272 3296.385 3296.385 0 0 0-15.826 24.623c-10.071 15.841-15.22 29.219-15.22 38.857 0 .651.023 1.285.07 1.901Z" fill="#00BFA5"/></svg>
