<?xml version="1.0" encoding="UTF-8"?>
<svg fill="none" version="1.1" viewBox="0 0 250 250" xmlns="http://www.w3.org/2000/svg">
 <path d="m60.095 155.16c2.8195 36.962 27.499 69.519 64.554 69.541h0.0728l0.27831-8.6e-4 0.27831 8.6e-4h0.0728c37.056-0.0217 61.735-32.579 64.554-69.541 0.0798-1.0369 0.11878-2.1025 0.11965-3.1975v-0.0434c-8e-3 -16.32-8.7238-38.965-25.764-65.777a5571.2 5571.2 0 0 0-26.789-41.696 5948.5 5948.5 0 0 0-8.8416-13.598c-1.0673-1.6369-1.9065-2.9218-2.4779-3.7966a832.32 832.32 0 0 0-0.65372-0.99878l-0.49852-0.76122-0.49852 0.76122a832.32 832.32 0 0 0-0.65372 0.99878c-0.57135 0.87567-1.4106 2.1597-2.4779 3.7975-2.1354 3.2729-5.1846 7.9573-8.8416 13.597a5572 5572 0 0 0-26.789 41.696c-17.047 26.825-25.764 49.479-25.764 65.799 0 1.102 0.03988 2.1753 0.11965 3.2192zm31.661-2.7553c1.4444 18.924 14.084 35.594 33.065 35.605h0.35894c18.98-0.0113 31.62-16.681 33.065-35.605 0.0407-0.5306 0.0607-1.0768 0.0615-1.6369v-0.0225c-4e-3 -8.3553-4.4685-19.95-13.197-33.678a2858 2858 0 0 0-13.721-21.348 3425.1 3425.1 0 0 0-5.7985-8.9058l-0.58956-0.90168-0.58956 0.90168a2608.2 2608.2 0 0 0-5.7985 8.9058 2858 2858 0 0 0-13.721 21.348c-8.7315 13.734-13.196 25.333-13.196 33.689 0 0.56442 0.01994 1.1141 0.06069 1.6482z" clip-rule="evenodd" fill="#00bfa5" fill-rule="evenodd" stroke-width=".867"/>
</svg>
