<svg fill="none" xmlns="http://www.w3.org/2000/svg" viewBox="0 0 250 250"><g clip-path="url(#a)"><path fill-rule="evenodd" clip-rule="evenodd" d="M43.15 162.816c3.556 46.339 34.678 87.157 81.407 87.184h.093l.35-.001.35.001h.093c46.729-.027 77.851-40.845 81.406-87.184.1-1.3.15-2.636.151-4.008v-.055c-.01-20.459-11.002-48.85-32.49-82.465-12.267-19.19-24.558-38.13-33.782-52.273a7515.202 7515.202 0 0 0-14.275-21.808l-.824-1.252L125 0l-.629.955-.824 1.252a7515.202 7515.202 0 0 0-14.275 21.808c-9.224 14.142-21.515 33.083-33.782 52.273C53.992 109.918 43 138.32 43 158.781c0 1.381.05 2.727.15 4.035Zm39.927-3.454c1.821 23.725 17.762 44.624 41.696 44.638H125.227c23.934-.014 39.875-20.913 41.696-44.638.051-.666.077-1.35.077-2.052v-.028c-.005-10.476-5.635-25.012-16.641-42.222a3580.25 3580.25 0 0 0-17.303-26.765c-2.362-3.62-4.332-6.627-5.711-8.728l-1.601-2.437L125 76l-.744 1.13-1.601 2.437a3872.475 3872.475 0 0 0-5.711 8.728 3577.348 3577.348 0 0 0-17.303 26.765C88.63 132.278 83 146.82 83 157.296c0 .707.026 1.396.077 2.066Z" fill="url(#b)"/></g><defs><linearGradient id="b" x1="207" y1="0" x2="43" y2="250" gradientUnits="userSpaceOnUse"><stop offset=".438" stop-color="#50B9D3"/><stop offset=".818" stop-color="#0DBA8C"/></linearGradient><clipPath id="a"><path fill="#fff" d="M0 0h250v250H0z"/></clipPath></defs></svg>