<svg xmlns="http://www.w3.org/2000/svg" xmlns:xlink="http://www.w3.org/1999/xlink" viewBox="0 0 32 32"><defs><linearGradient id="a" x1="30.625" y1="16" x2="18.73487" y2="16" gradientTransform="matrix(1, 0, 0, -1, 0, 32)" gradientUnits="userSpaceOnUse"><stop offset="0" stop-color="#536dfe"/><stop offset="1" stop-color="#42a5f5"/></linearGradient><linearGradient id="b" x1="14.84913" y1="17.23824" x2="12.07413" y2="22.86324" gradientTransform="matrix(1, 0, 0, -1, 0, 32)" gradientUnits="userSpaceOnUse"><stop offset="0" stop-color="#6200ea"/><stop offset="1" stop-color="#a0f"/></linearGradient><linearGradient id="c" x1="14.41207" y1="14.78017" x2="10.36207" y2="4.65517" gradientTransform="matrix(1, 0, 0, -1, 0, 32)" gradientUnits="userSpaceOnUse"><stop offset="0" stop-color="#9c27b0"/><stop offset="1" stop-color="#ec407a"/></linearGradient></defs><path d="M21.23059,18.47717a4.26186,4.26186,0,0,0,0-4.95434L18,9l1.88007-1.88007,4.44708,6.66181a3.981,3.981,0,0,1,0,4.43652l-4.44708,6.66181L18,23Zm7.929-5.25067L23,4,21.32245,5.67755l4.66876,6.99384a5.97911,5.97911,0,0,1,0,6.65722l-4.66876,6.99384L23,28l6.15961-9.2265a4.99515,4.99515,0,0,0,0-5.547Z" style="fill:url(#a)"/><path d="M3.2,12,5.6,8H10a4,4,0,0,0,4-4h4.42981L15.78809,8.52686A7.02085,7.02085,0,0,1,9.74219,12ZM20.7448,4,17.51562,9.53467A9.028,9.028,0,0,1,9.74219,14H2v2H16L23,4Z" style="fill:url(#b)"/><path d="M18.43024,28H14a4,4,0,0,0-4-4H5.6L3.2,20H9.74219a7.02364,7.02364,0,0,1,6.04687,3.47314Zm-.91364-5.53467L20.74512,28H23L16,16H2v2H9.74219A9.03077,9.03077,0,0,1,17.5166,22.46533Z" style="fill:url(#c)"/></svg>
