<svg viewBox="0 0 24 24" xmlns="http://www.w3.org/2000/svg" xml:space="preserve" style="fill-rule:evenodd;clip-rule:evenodd;stroke-linejoin:round;stroke-miterlimit:2">
    <clipPath id="a">
        <path d="M22.968 12.023c.006.474-.119.951-.374 1.373l-3.689 6.107A3.103 3.103 0 0 1 16.251 21l-.898-1.437-.009-.011a.54.54 0 0 0-.906.548L15 21h-1.375l-2.504-4.142a3.202 3.202 0 0 0-2.739-1.546l-.694.001h-.006a.507.507 0 0 0 .006 1h.001a3.42 3.42 0 0 1 2.932 1.66L12.438 21h.737-1.877a.3.3 0 0 1-.26-.15c-.109-.19-.934-1.497-1.548-2.468a2.267 2.267 0 0 0-1.926-1.069H4.162a.302.302 0 0 1-.251-.135l-.57-.865h2.722l.001-.001a.514.514 0 0 0 0-.999H2.682l-.7-1.063h7.494c.831 0 1.602.43 2.039 1.137l1.923 3.113.003.004a.524.524 0 0 0 .877-.553l-.005-.013-1.938-3.159a3.203 3.203 0 0 0-2.731-1.529H1.339A2.778 2.778 0 0 1 1.02 12v-.02c.01-.424.116-.845.319-1.23h8.305a3.203 3.203 0 0 0 2.731-1.529l1.938-3.158.005-.014a.524.524 0 0 0-.877-.553l-.003.004-1.923 3.113A2.396 2.396 0 0 1 9.476 9.75H1.982l.7-1.062h3.381l.001-.001a.514.514 0 0 0 0-.999H3.341l.57-.866a.302.302 0 0 1 .251-.135h3.402A2.267 2.267 0 0 0 9.49 5.618c.614-.971 1.439-2.278 1.548-2.468a.3.3 0 0 1 .26-.15h1.877-.737l-1.817 3.027a3.422 3.422 0 0 1-2.932 1.661h-.007a.507.507 0 0 0 .006 1h.694a3.202 3.202 0 0 0 2.739-1.546L13.625 3H15l-.562.9-.002.005a.54.54 0 0 0 .908.543l.009-.01L16.251 3c1.085 0 2.092.568 2.654 1.497l3.689 6.107c.259.429.383.914.374 1.396v.023ZM18.25 7.75l-.015-.048a.53.53 0 0 1 .895-.516l.001.002 2.136 3.524a2.489 2.489 0 0 1 0 2.576l-4.046 6.676-.632-.964 3.447-5.693a2.52 2.52 0 0 0-.001-2.613L18.25 7.75Zm-.916 7.666.013-.039a.535.535 0 0 0-.87-.561l-.001.001-1.263 2.085.632.963 1.489-2.449ZM16.375 12c0-.664-.423-1.405-.828-1.991a86.304 86.304 0 0 0-1.172-1.634l-2.271 3.467a.288.288 0 0 0 0 .316l2.271 3.467s.719-.978 1.172-1.634c.412-.596.828-1.327.828-1.991Zm.869 1.563-.015.047a.53.53 0 0 0 .895.516l.001-.001.508-.85a2.486 2.486 0 0 0-.006-2.562l-2.775-4.588-.645.984 2.183 3.586a2.52 2.52 0 0 1 .012 2.602l-.158.266Zm.694-8.349.012.038a.533.533 0 0 1-.869.562l-.002-.001-.49-.813.634-.966.715 1.18Z" />
    </clipPath>
    <g clip-path="url(#a)">
        <path d="M17.818 3.125 12 12l5.818 8.875 6.057.188L23.688 3l-5.87.125Z" style="fill:#03A9F4" />
        <path d="m12.063 12 .06-.187 5.695-8.688-6.755-1.562L.688 3.688.438 12h11.625Z" style="fill:#673AB7" />
        <path d="m12.056 12 .06.178 5.702 8.697-1.318 2.188-15.437-2.125L.438 12h11.618Z" style="fill:#C51162" />
    </g>
</svg>