<svg width="932" height="799" viewBox="0 0 932 799" fill="none" xmlns="http://www.w3.org/2000/svg">
<path fill-rule="evenodd" clip-rule="evenodd" d="M85 0C38.0558 0 0 38.0558 0 85V585C0 633.049 38.9512 672 87 672H758C806.049 672 845 633.049 845 585V172C845 123.951 806.049 85 758 85H433L351 0H85Z" fill="#4DD0E1"/>
<mask id="path-2-inside-1_167_106" fill="white">
<path fill-rule="evenodd" clip-rule="evenodd" d="M451 287C434.984 287 422 299.984 422 316V561.946C422 577.962 434.984 590.946 451 590.946H623.126V769.776C623.126 785.793 636.11 798.776 652.126 798.776H902.52C918.537 798.776 931.52 785.793 931.52 769.776V523.831C931.52 507.814 918.536 494.831 902.52 494.831H730.394V316C730.394 299.984 717.41 287 701.394 287H451Z"/>
</mask>
<path fill-rule="evenodd" clip-rule="evenodd" d="M451 287C434.984 287 422 299.984 422 316V561.946C422 577.962 434.984 590.946 451 590.946H623.126V769.776C623.126 785.793 636.11 798.776 652.126 798.776H902.52C918.537 798.776 931.52 785.793 931.52 769.776V523.831C931.52 507.814 918.536 494.831 902.52 494.831H730.394V316C730.394 299.984 717.41 287 701.394 287H451Z" fill="white"/>
<path d="M623.126 590.946H639.126C639.126 582.109 631.963 574.946 623.126 574.946V590.946ZM730.394 494.831H714.394C714.394 503.667 721.557 510.831 730.394 510.831V494.831ZM438 316C438 308.82 443.82 303 451 303V271C426.147 271 406 291.147 406 316H438ZM438 561.946V316H406V561.946H438ZM451 574.946C443.82 574.946 438 569.126 438 561.946H406C406 586.799 426.147 606.946 451 606.946V574.946ZM623.126 574.946H451V606.946H623.126V574.946ZM639.126 769.776V590.946H607.126V769.776H639.126ZM652.126 782.776C644.947 782.776 639.126 776.956 639.126 769.776H607.126C607.126 794.629 627.274 814.776 652.126 814.776V782.776ZM902.52 782.776H652.126V814.776H902.52V782.776ZM915.52 769.776C915.52 776.956 909.7 782.776 902.52 782.776V814.776C927.373 814.776 947.52 794.629 947.52 769.776H915.52ZM915.52 523.831V769.776H947.52V523.831H915.52ZM902.52 510.831C909.7 510.831 915.52 516.651 915.52 523.831H947.52C947.52 498.978 927.373 478.831 902.52 478.831V510.831ZM730.394 510.831H902.52V478.831H730.394V510.831ZM714.394 316V494.831H746.394V316H714.394ZM701.394 303C708.573 303 714.394 308.82 714.394 316H746.394C746.394 291.147 726.247 271 701.394 271V303ZM451 303H701.394V271H451V303Z" fill="#212121" mask="url(#path-2-inside-1_167_106)"/>
<path d="M730.67 733.184C723.952 733.184 718.507 727.742 718.507 721.028V587.312C718.507 580.598 723.952 575.156 730.67 575.156H773.092C781.566 575.156 789.376 575.803 796.521 577.095C803.833 578.227 810.148 580.327 815.464 583.397C820.782 586.467 824.936 590.507 827.927 595.515C831.085 600.525 832.662 606.826 832.662 614.421C832.662 617.976 832.081 621.53 830.918 625.086C829.921 628.64 828.259 631.953 825.933 635.022C823.607 638.093 820.698 640.84 817.21 643.264C813.831 645.61 809.83 647.351 805.206 648.485C804.937 648.552 804.747 648.791 804.747 649.067C804.747 649.355 804.955 649.602 805.239 649.655C816.627 651.78 825.269 655.789 831.167 661.684C837.149 667.662 840.14 675.984 840.14 686.649C840.14 694.727 838.561 701.676 835.405 707.492C832.247 713.309 827.844 718.157 822.194 722.035C816.544 725.751 809.898 728.579 802.254 730.518C794.777 732.296 786.635 733.184 777.829 733.184H730.67ZM755.146 626.502C755.146 633.216 760.592 638.658 767.31 638.658H771.348C780.321 638.658 786.801 636.962 790.789 633.568C794.777 630.175 796.771 625.408 796.771 619.268C796.771 613.451 794.694 609.33 790.539 606.908C786.552 604.322 780.237 603.029 771.597 603.029H767.31C760.592 603.029 755.146 608.472 755.146 615.185V626.502ZM755.146 693.156C755.146 699.868 760.592 705.312 767.31 705.312H774.836C794.445 705.312 804.249 698.202 804.249 683.983C804.249 677.034 801.839 672.025 797.02 668.956C792.367 665.885 784.973 664.35 774.836 664.35H767.31C760.592 664.35 755.146 669.792 755.146 676.506V693.156Z" fill="#212121"/>
<path d="M537.8 513C531.283 513 526 507.765 526 501.308V372.692C526 366.235 531.283 361 537.8 361H582.087C590.665 361 598.677 361.855 606.123 363.564C613.731 365.119 620.287 367.838 625.79 371.724C631.455 375.454 635.906 380.505 639.144 386.877C642.381 393.094 644 400.788 644 409.957C644 418.816 642.301 426.51 638.901 433.036C635.664 439.564 631.212 444.926 625.547 449.123C619.882 453.319 613.326 456.428 605.88 458.448C598.434 460.469 590.504 461.479 582.087 461.479H573.491C566.974 461.479 561.691 466.714 561.691 473.171V501.308C561.691 507.765 556.409 513 549.891 513H537.8ZM561.691 422.51C561.691 428.967 566.974 434.202 573.491 434.202H579.901C599.325 434.202 609.037 426.12 609.037 409.957C609.037 402.031 606.528 396.436 601.511 393.172C596.655 389.908 589.451 388.276 579.901 388.276H573.491C566.974 388.276 561.691 393.511 561.691 399.968V422.51Z" fill="#16161A"/>
</svg>
