<svg version="1.1" viewBox="0 0 24 24" xmlns="http://www.w3.org/2000/svg">
 <g transform="translate(0,4.02e-5)" style="fill:#f57f17">
  <path d="m6.1765 16.747c1.2706 0 2.4706-0.49412 3.3265-1.35l6.2029-5.5059c0.56471-0.56471 1.3147-0.87353 2.1176-0.87353 1.65 0 3 1.3324 3 2.9824s-1.35 2.9824-3 2.9824c-0.80294 0-1.5529-0.30882-2.1529-0.90882l-0.99706-0.88235-1.35 1.1824 1.1294 0.97941c0.9 0.9 2.1 1.3941 3.3706 1.3941 2.6294 0 4.7647-2.1353 4.7647-4.7471 0-2.6118-2.1353-4.7471-4.7647-4.7471-1.2706 0-2.4706 0.49412-3.3265 1.35l-6.2029 5.5059c-0.56471 0.5647-1.3147 0.87353-2.1176 0.87353-1.65 0-3-1.3324-3-2.9824s1.35-2.9824 3-2.9824c0.79412 0 1.5529 0.30882 2.1529 0.90882l1.0235 0.89118 1.3235-1.1824-1.1294-0.98824c-0.9-0.89118-2.0912-1.3853-3.3706-1.3853-2.6294 0-4.7647 2.1265-4.7647 4.7382 0 2.6471 2.1353 4.7471 4.7647 4.7471z" style="color-rendering:auto;color:#000000;dominant-baseline:auto;fill:#f57f17;font-feature-settings:normal;font-variant-alternates:normal;font-variant-caps:normal;font-variant-east-asian:normal;font-variant-ligatures:normal;font-variant-numeric:normal;font-variant-position:normal;font-variation-settings:normal;image-rendering:auto;inline-size:0;isolation:auto;mix-blend-mode:normal;shape-margin:0;shape-padding:0;shape-rendering:auto;solid-color:#000000;stop-color:#000000;text-decoration-color:#000000;text-decoration-line:none;text-decoration-style:solid;text-indent:0;text-orientation:mixed;text-transform:none;white-space:normal"/>
  <path d="m17.824 6.9629c-1.3451 0-2.6189 0.52038-3.5312 1.4316-6.43e-4 6.422e-4 -0.0013 0.00131-2e-3 0.00195l-6.1973 5.5-0.00586 0.0059c-0.51107 0.51108-1.1837 0.78902-1.9121 0.78902-1.4933 0-2.709-1.2001-2.709-2.6914s1.2156-2.6914 2.709-2.6914c0.71867 0 1.3987 0.27566 1.9473 0.82422l0.00781 0.0059 1.2246 1.0664 1.7598-1.5723-1.3633-1.1934c-3.944e-4 -3.905e-4 -0.00156 3.904e-4 -0.00195 0-0.95287-0.94293-2.2204-1.4688-3.5742-1.4688-2.7863 0-5.0547 2.2589-5.0547 5.0293 0 2.8036 2.2703 5.0371 5.0547 5.0371 1.3451 0 2.6189-0.52038 3.5312-1.4316l6.1992-5.502 0.0059-0.0059c0.51112-0.51112 1.1838-0.78906 1.9121-0.78906 1.4933 0 2.709 1.2001 2.709 2.6914s-1.2156 2.6914-2.709 2.6914c-0.72833 0-1.3977-0.27465-1.9473-0.82422l-0.0078-0.0059-1.1953-1.0586-1.793 1.5723 1.3672 1.1836c0.9538 0.9538 2.2301 1.4785 3.5762 1.4785 2.787 0 5.0547-2.2667 5.0547-5.0371 0-2.7704-2.2677-5.0371-5.0547-5.0371zm0 0.58008c2.4719 0 4.4727 2.0039 4.4727 4.457 0 2.4532-2.0008 4.457-4.4727 4.457-1.1951 0-2.3198-0.46434-3.166-1.3105l-0.0059-0.0059-0.88672-0.76758 0.90625-0.79492 0.79297 0.70117 2e-3 2e-3c0.65014 0.64914 1.4808 0.99219 2.3574 0.99219 1.8067 0 3.291-1.4647 3.291-3.2734s-1.4844-3.2734-3.291-3.2734c-0.87663 0-1.7042 0.33998-2.3223 0.95703-6.55e-4 6.536e-4 -0.0013 0.0013-2e-3 0.00195l-6.1973 5.5-0.00586 0.0059c-0.79927 0.79927-1.9259 1.2656-3.1211 1.2656-2.4745 0-4.4727-1.9665-4.4727-4.457 0-2.4532 2.0001-4.4473 4.4727-4.4473 1.2045 0 2.319 0.46209 3.166 1.3008l0.00781 0.00586 0.88672 0.77734-0.88672 0.79297-0.81445-0.70898c-0.65144-0.65144-1.4898-0.99414-2.3594-0.99414-1.8067 0-3.291 1.4647-3.291 3.2734s1.4844 3.2734 3.291 3.2734c0.87663 0 1.7042-0.33998 2.3223-0.95703l6.1992-5.502 0.0059-0.00586c0.79931-0.79931 1.926-1.2656 3.1211-1.2656z" style="color-rendering:auto;color:#000000;dominant-baseline:auto;fill:#f57f17;font-feature-settings:normal;font-variant-alternates:normal;font-variant-caps:normal;font-variant-east-asian:normal;font-variant-ligatures:normal;font-variant-numeric:normal;font-variant-position:normal;font-variation-settings:normal;image-rendering:auto;inline-size:0;isolation:auto;mix-blend-mode:normal;shape-margin:0;shape-padding:0;shape-rendering:auto;solid-color:#000000;stop-color:#000000;text-decoration-color:#000000;text-decoration-line:none;text-decoration-style:solid;text-indent:0;text-orientation:mixed;text-transform:none;white-space:normal"/>
 </g>
</svg>
