<?xml version="1.0" encoding="UTF-8"?>
<svg width="300" height="300" version="1.1" viewBox="0 0 79 78" xmlns="http://www.w3.org/2000/svg">
 <title>postcss-logo-symbol</title>
 <g transform="matrix(.85425 0 0 .85425 5.4807 5.5198)" fill="#e53935" fill-rule="evenodd" stroke="#e53935" stroke-width="1.5189">
  <path d="m15.447 32.623c0.106 0.08 0.29 0.132 0.106 0.29-0.132 0.184-0.29 0.342-0.395 0.553-0.105 0.185-0.184 0.237-0.342 0.106 0.21-0.343 0.42-0.66 0.63-0.95zm52.895 27.617c0 0.078 0.026 0.13 0.026 0.21 0.053-0.105 0.053-0.158 0.08-0.21zm0 0.236v-0.026zm-5.368 10.277-4.58-25.402c-0.078-0.025-0.183-0.077-0.368-0.13 0.053 0.105 0.08 0.184 0.106 0.263 0.13-0.026 0.184-0.026 0.236-0.052 0-0.026 0-0.052 0.027-0.08l4.58 25.404zm-4.737-31.12c-0.026 0.078-0.026 0.158-0.026 0.237 0-0.08 0-0.16 0.028-0.238zm0.026 0.526c-0.026 0-0.026 0-0.052-0.028v0.026c0.028 0.026 0.028 0.026 0.054 0zm-0.052 0.21v-0.185c-0.077 0.026-0.156 0.026-0.262 0.053 0.132 0.05 0.264 0.078 0.264 0.13z"/>
  <path d="m78.71 33.967c-0.052-1.028-0.078-2.056-0.184-3.083-0.184-1.397-0.368-2.82-0.684-4.19-0.237-1.133-0.63-2.214-1.026-3.294-0.5-1.265-1-2.556-1.632-3.768-1.026-1.95-2.368-3.69-3.605-5.508-0.818-1.16-1.87-2.108-2.66-3.294-0.447-0.685-1.105-1.264-1.763-1.79-1.053-0.845-2.158-1.61-3.263-2.347a32.525 32.525 0 0 0 -2.58 -1.634c-0.71-0.397-1.473-0.713-2.21-1.056-0.842-0.395-1.658-0.87-2.605-1.054-0.238-0.05-0.448-0.13-0.685-0.21-0.605-0.21-1.184-0.447-1.79-0.632-0.92-0.29-1.815-0.632-2.763-0.87-0.918-0.237-1.866-0.394-2.814-0.527-1.052-0.155-2.13-0.21-3.184-0.313a26.83 26.83 0 0 0 -2.026 -0.184c-1-0.053-2.026-0.053-3.026-0.079-0.5-0.027-1.026-0.08-1.526-0.053-0.763 0.026-1.526 0.105-2.29 0.21-0.736 0.08-1.473 0.21-2.183 0.317-0.867 0.105-1.735 0.158-2.604 0.264-0.816 0.106-1.658 0.264-2.473 0.396-0.29 0.053-0.58 0.158-0.87 0.21-0.63 0.132-1.288 0.185-1.92 0.396-1.13 0.344-2.263 0.74-3.368 1.16-1.027 0.422-2.027 0.87-3 1.397-1 0.552-1.948 1.21-2.895 1.844a45.325 45.325 0 0 0 -2.66 1.923c-0.84 0.66-1.63 1.397-2.394 2.135-0.42 0.42-0.763 0.922-1.158 1.396-0.657 0.765-1.315 1.502-1.947 2.293-0.524 0.66-1 1.344-1.5 2.03-0.893 1.21-1.656 2.502-2.366 3.794-0.29 0.527-0.553 1.054-0.816 1.58-0.395 0.79-0.816 1.555-1.184 2.372-0.264 0.554-0.474 1.16-0.632 1.766-0.367 1.292-0.736 2.61-1.078 3.9-0.316 1.16-0.395 2.372-0.42 3.558-0.027 1.054 0.078 2.082 0.183 3.136 0.027 0.264-0.13 0.58 0.184 0.79-0.105 0.29-0.026 0.45 0.13 0.5-0.182 0.29 0.08 0.476-0.024 0.74-0.027 0.052 0.08 0.157 0.13 0.236 0 0.08-0.025 0.185 0 0.264 0.028 0.237 0.133 0.474 0.133 0.738 0 0.184 0.157 0.395 0.21 0.58 0.026 0.078 0 0.21-0.053 0.263-0.158 0.184-0.132 0.342 0.105 0.448 0.133 0.342 0.08 0.5 0.054 0.66 0.052 0.236-0.027 0.315 0 0.368 0.21 0.422 0.29 0.896 0.315 1.37 0 0.106 0.053 0.212 0.106 0.343 0.026 0 0 0.5 0 0.5 0.13-0.078 0.237-0.104 0.368-0.157 0.08 0.342 0.158 0.66 0.263 0.95 0.132 0.21 0.132 0.314 0.08 0.34 0.105 0.474 0.157 0.922 0.34 1.37 0-0.5-0.05-1-0.13-1.475 0.368 0.132 0.684 0.263 0.895 0.263 0.027-0.08 0.053-0.184 0.08-0.237-0.158-0.157-0.29-0.394-0.448-0.552 0.053 0.21 0 0.29 0 0.37-0.105-0.054-0.237-0.107-0.368-0.16 0.105-0.13 0.21-0.263 0.368-0.42 0-0.238-0.13-0.45-0.5-0.423 0.158-0.052 0.316-0.13 0.5-0.184 0.29-0.157-0.026-0.447-0.026-0.816 0.026-0.447-0.237-0.895-0.316-1.37-0.132-0.737-0.105-1.844-0.184-2.582-0.158-0.132-0.29 0.21-0.316 0.237 0.08 0.632 0.158 1.264 0.21 1.897-0.157-0.527-0.263-1.107-0.394-1.74-0.027 0.185-0.053 0.264-0.053 0.37-0.13 0.13-0.026 0.29 0.053 0.474-0.184-0.08-0.395-0.052-0.395-0.052v0.738c-0.262-0.264-0.34-0.474-0.473-0.66-0.052-0.21-0.08-0.42-0.13-0.63 0.05-0.133 0-0.212 0-0.29a15.968 15.968 0 0 1 -0.08 -0.634c0.026-0.026-0.026-0.42-0.026-0.42 0.21 0.025 0.343 0.05 0.474 0.05-0.263-0.34-0.08-0.552 0.027-0.763 0.053-0.106 0.237-0.13 0.29-0.238 0.21-0.395 0.553-0.71 0.553-1.212 0-0.237 0.08-0.5 0.105-0.738 0.053-0.448 0.105-0.896 0.13-1.344 0.054-0.58 0-1.16 0.133-1.713 0.212-0.92 0.475-1.843 0.764-2.766 0.21-0.66 0.448-1.29 0.71-1.95 0.395-1.028 0.764-2.056 1.264-3.03 0.71-1.424 1.526-2.794 2.316-4.19 0.5-0.87 1.026-1.687 1.58-2.53 0.525-0.817 1.05-1.66 1.657-2.425a21.452 21.452 0 0 1 2.79 -2.978c1.053-0.948 2.053-1.923 3.184-2.793a32.218 32.218 0 0 1 4.685 -3.005c1.343-0.71 2.737-1.266 4.132-1.793 0.895-0.342 1.868-0.5 2.79-0.79 1.052-0.343 2.105-0.5 3.21-0.527 0.71-0.027 1.395-0.106 2.105-0.185 0.632-0.05 1.263-0.104 1.948-0.183-0.08 0.105-0.106 0.158-0.132 0.21-0.288 0.422-0.604 0.844-0.894 1.265-0.237 0.343-0.5 0.712-0.737 1.054-0.422 0.555-0.87 1.108-1.264 1.688-0.605 0.87-1.158 1.766-1.79 2.635-0.63 0.843-1.315 1.634-1.973 2.45-0.868 1.134-1.684 2.293-2.552 3.426-0.79 1.08-1.63 2.11-2.394 3.19-0.684 0.947-1.29 1.95-1.948 2.923-0.973 1.45-1.947 2.872-2.92 4.322a271.93 271.93 0 0 1 -2.316 3.294c-0.053 0.08-0.132 0.104-0.21 0.157-0.21 0.342-0.21 0.527-0.29 0.685-0.21 0.395-0.42 0.79-0.658 1.16-0.132 0.21-0.316 0.394-0.474 0.605-0.026-0.316 0.42-0.474 0.21-0.87-0.13 0.212-0.263 0.396-0.394 0.607l-0.316 0.63c0.105 0.08 0.29 0.133 0.105 0.29-0.08 0.133-0.158 0.29-0.237 0.423a0.954 0.954 0 0 0 0.29 -0.264c0 0.29-0.158 0.526-0.29 0.763-0.105 0.21-0.368 0.37-0.552 0.527 0.026 0.027 0.21 0.106 0.237 0.132 0.237-0.08 0.316-0.21 0.343-0.132 0.08-0.105 0.158-0.184 0.184-0.263 0.104-0.264 0.262-0.474 0.525-0.58 0.106-0.053 0.184-0.132 0.263-0.21 0.79-0.818 1.606-1.608 2.316-2.478 1.106-1.345 2.106-2.74 3.16-4.11 0.446-0.58 0.973-1.16 1.446-1.714 0.078 0.606 0.026 1.185 0 1.74-0.08 0.974-0.132 1.95-0.21 2.95-0.027 0.395 0 0.79-0.027 1.186 0 0.105-0.08 0.184-0.08 0.29 0 0.263 0.08 0.553 0.08 0.817-0.08 0.975-0.186 1.923-0.265 2.898-0.027 0.21 0.078 0.422 0.13 0.607-0.13 1.422 0.16 2.925-0.078 4.427 0.184-0.29 0.237-0.474 0.237-0.658 0.025-0.158 0-0.316 0-0.5v-0.264c0.025-0.475 0.13-0.975 0.078-1.45-0.053-0.527-0.053-1.027 0.053-1.528 0.053-0.21-0.026-0.474 0.106-0.738v0.395c-0.026 1.5 0.027 3.003-0.183 4.505-0.027 0.132 0.08 0.37-0.21 0.343-0.238 0.474 0.052 0.817-0.21 1.08-0.054 0.053 0.05 0.29 0.077 0.448-0.106 0.317-0.106 0.317 0.052 0.343 0.026 0.58 0.08 1.106 0.105 1.66 0.42-1 0.21-2.03 0.396-3.058 0.026 0.422 0.053 0.844 0.026 1.29 0 0.687-0.026 1.345-0.052 2.03 0 0.132-0.027 0.264-0.053 0.396-0.08 0.37-0.105 0.738-0.237 1.08-0.105 0.264-0.052 0.66-0.052 0.975v1.003c0.105 0.448-0.027 0.685 0.052 0.948-0.08 0.265-0.105 0.344-0.08 0.423l0.08 0.395c0.527-0.053 0.29 0.343 0.5 0.553-0.158 0.212-0.105 0.29-0.105 0.397 0 0.237-0.025 0.448-0.052 0.685 0 0.606-0.026 1.212-0.026 1.792 0 0.08 0.026 0.157 0.026 0.236 0 0.054-0.026 0.74-0.026 0.74 0.053 0.078 0 0.157-0.08 0.236-0.025 0-0.104-3.347-0.104-3.347h-0.395c-0.052 1.58 0.08 3.003-0.21 4.48-0.316 0.025-0.42 0.078-0.764 0.078-0.816 0-1.632 0-2.448 0.026-0.974 0-1.92 0.026-2.895 0.026-0.472 0-0.972 0.054-1.446 0.054-0.632 0-1.29-0.08-1.92-0.08-0.975 0-1.922 0.08-2.896 0.106-0.71 0.026-1.42 0.026-2.13 0.053-0.475 0.025-0.95 0.05-1.422 0.104-0.21 0.026-0.395 0.105-0.658 0.184-0.08 0-0.263-0.026-0.42 0-0.265 0.053-0.5 0.21-0.765 0.264-0.395 0.08-0.5 0.184-0.448 0.58v0.263c-0.026 0.052 0.58-0.08 0.58-0.08-0.054 0-0.08 0.158-0.16 0.29 0.212-0.08 0.343-0.132 0.475-0.184 0.395 0.185 0.737 0.08 1.052 0.16 1.026 0.262 2.078 0.37 3.13 0.473 0.685 0.053 1.343 0.08 2.027 0.105 0.973 0.053 1.947 0.106 2.92 0.106 0.816 0 1.606-0.08 2.42-0.08 1.13 0 2.264 0.052 3.395 0.08 0.237 0 0.5-0.028 0.763-0.028h1.92c1.712-0.052 3.422-0.08 5.133-0.13 0.975-0.028 1.975-0.08 2.948-0.107l3-0.08c1.158-0.026 2.316-0.026 3.448-0.05 0.868 0 1.71-0.03 2.58-0.055 0.972-0.026 1.972-0.105 2.946-0.157 0.527-0.027 1.054-0.08 1.58-0.132 0.632-0.052 1.29-0.13 1.92-0.157 0.948-0.054 1.922-0.08 2.87-0.133 1.184-0.078 2.368-0.183 3.578-0.21 1.106-0.052 2.237-0.026 3.343-0.052 0.974-0.027 1.948-0.08 2.948-0.106l1.66-0.08s1.104-0.026 1.657-0.08c0.947-0.052 1.894-0.157 2.842-0.183 0.604-0.027 1.21 0 1.815-0.027 0.973-0.026 1.973-0.08 2.947-0.08 0.367 0 0.762 0.054 1.236 0.08-0.21 0.185-0.342 0.29-0.5 0.422 0.105 0.026 0.21 0.08 0.316 0.132a0.71 0.71 0 0 1 -0.42 0.13c-0.054 0.133-0.107 0.186-0.16 0.45h0.474c-0.184 0-0.342 0.237-0.526 0.395-0.21-0.054-0.395 0-0.5 0.29 0.184 0.104 0.158 0.183 0.132 0.29-0.316 0.104-0.553 0.21-0.42 0.552-0.107 0.052-0.238 0.105-0.37 0.184-0.13 0.21-0.368 0.263-0.316 0.553 0.106 0.025 0.21 0.08 0.29 0.104-0.132 0.053-0.263 0.132-0.395 0.184-0.473 0.29-0.262 0.422-0.157 0.554-0.08 0.053-0.158 0.105-0.237 0.132 0.052 0.237 0.13 0.29 0.157 0.29a9.3 9.3 0 0 0 -0.395 0.316c-0.08 0.237-0.185 0.342-0.29 0.5s-0.158 0.37-0.29 0.527c-0.552 0.607-0.947 1.32-1.657 1.793-0.264 0.185-0.5 0.422-0.737 0.66-0.474 0.447-0.895 0.948-1.395 1.37a29.595 29.595 0 0 1 -2.052 1.554 151.56 151.56 0 0 1 -2.604 1.792c-0.474 0.315-1 0.552-1.5 0.842s-0.974 0.554-1.474 0.843c-0.316 0.21-0.606 0.5-0.948 0.66-0.868 0.37-1.79 0.685-2.684 1.028-0.87 0.37-1.5 0.685-2.158 0.922-0.605 0.21-1.237 0.37-1.868 0.5-0.21 0.054-0.448 0-0.685 0.027-0.448 0.08-0.895 0.186-1.343 0.238-1.158 0.158-2.316 0.264-3.473 0.422-0.685 0.08-1.343 0.21-2.027 0.29-0.473 0.026-0.973-0.026-1.447-0.026-0.342 0-0.71 0.08-1.053 0.027-0.552-0.08-1.105-0.21-1.658-0.316-0.13-0.026-0.316-0.08-0.42-0.026-0.21 0.106-0.396-0.052-0.607 0-0.13 0.027-0.262-0.08-0.394-0.08-0.106-0.025-0.238 0.028-0.37 0-0.29-0.078-0.552-0.183-0.87-0.157-0.313 0.026-0.63-0.132-0.97-0.21-0.475-0.106-0.92-0.21-1.396-0.317a2.38 2.38 0 0 1 -0.525 -0.237c-0.685 0-1.133-0.026-1.554-0.185-0.368-0.13-0.71-0.315-1.105-0.262-0.104 0.026-0.183-0.026-0.29-0.026-0.08-0.106-0.157-0.317-0.235-0.317-0.526 0.027-0.842-0.42-1.29-0.553-0.236-0.08-0.42-0.343-0.657-0.422-0.58-0.237-1.052-0.737-1.71-0.816-0.21-0.027-0.42-0.132-0.658-0.21 0.08 0.104 0.13 0.183 0.21 0.262-0.763-0.37-1.473-0.79-2.184-1.186-0.104-0.026-0.183-0.13-0.262-0.184l-0.71-0.474c-0.395 0.08-0.553-0.08-0.66-0.132-0.71-0.5-1.525-0.817-2.21-1.37-0.29-0.238-0.63-0.396-0.84-0.686-0.37-0.448-0.817-0.764-1.317-1.027-0.394-0.21-0.762-0.448-1.13-0.685-0.185-0.132-0.37-0.29-0.37-0.58 0-0.185-0.078-0.37-0.315-0.264-0.105-0.158-0.21-0.342-0.342-0.395-0.316-0.13-0.526-0.37-0.763-0.58s-0.42-0.5-0.71-0.605c-0.527-0.21-0.843-0.658-1.158-1.027-0.738-0.87-1.396-1.82-2.08-2.74-0.053-0.08-0.158-0.133-0.237-0.212 0.105 0.29 0.237 0.527 0.368 0.79-0.262-0.105-0.446-0.29-0.604-0.474-0.027 0.027 1.815 3.057 1.815 3.057 0.16 0.237 0.29 0.475 0.448 0.712a0.813 0.813 0 0 1 -0.79 -0.422c-0.236-0.42-0.5-0.684-1.026-0.63a4.588 4.588 0 0 1 -0.13 -0.58c-0.107 0-0.185 0-0.37-0.027 0.37 0.58 0.685 1.08 1.027 1.66-0.133-0.08-0.21-0.132-0.265-0.158 0.473 0.5 0.815 1.133 1.42 1.45 0.132 0.605 0.816 0.895 0.974 1.475-0.13-0.027-0.238-0.053-0.37-0.08-0.21-0.263-0.447-0.526-0.683-0.816 0.052 0.184 0.13 0.342 0.236 0.474 0.316 0.395 0.606 0.79 0.974 1.133 0.132 0.134 0.316 0.187 0.316 0.424 0.21 0.105 0.29 0.13 0.368 0.13 0.054 0.16-0.025 0.397 0.29 0.344 0.21 0.395 0.42 0.395 0.71 0.264 0.343 0.343 0.528 0.37 0.764 0.16 0 0.13 0.026 0.262 0.026 0.368 0.105-0.053 0.08-0.132 0.08-0.264 0.13 0.105 0.21 0.158 0.262 0.21 0.263 0.37 0.5 0.712 0.868 1.002 0.5 0.422 0.948 0.87 1.42 1.265 0.922 0.765 1.95 1.398 2.975 1.977 1.264 0.712 2.475 1.476 3.764 2.16 1.552 0.818 3.21 1.372 4.92 1.767 0.632 0.132 1.237 0.263 1.87 0.42 0.55 0.16 1.104 0.397 1.657 0.528 0.842 0.185 1.71 0.343 2.552 0.5 0.183 0.027 0.37 0.054 0.58 0.08 0.235 0.053 0.524-0.053 0.577 0.027 0.132 0.21 0.237 0.104 0.395 0.078 0.184-0.053 0.395-0.053 0.605-0.053 0.737 0.026 1.447 0.184 2.184 0.132 0.16 0 0.396-0.133 0.528 0.13 0.236-0.105 0.368-0.105 0.473-0.13 0.028 0.236 0 0.236-0.05 0.262-0.054 0.026-0.133 0.053-0.238 0.132 0.947 0.184 1.842 0.21 2.63 0 1.37 0.105 2.554-0.053 3.686-0.448 0.105 0.132 0.184 0.316 0.342 0.053 0.052-0.08 0.184-0.107 0.29-0.133 0.236-0.053 0.526-0.158 0.736-0.08 0.238 0.08 0.317-0.13 0.5-0.13 0.317 0 0.606-0.027 0.896-0.08 0.158-0.026 0.316-0.105 0.5-0.158a1.285 1.285 0 0 0 -0.58 -0.133c0.317-0.158 0.606-0.29 0.896-0.42-0.053 0.078-0.106 0.183-0.21 0.183h0.367c-0.08 0-0.185 0.237-0.316 0.395 0.946-0.237 1.814-0.448 2.657-0.66-0.29-0.552 0.315-0.367 0.526-0.684-0.263 0.08-0.526 0.158-0.79 0.21 0.895-0.447 1.816-0.842 2.71-1.237-0.13 0.158-0.29 0.237-0.525 0.37 0.158 0.025 0.263 0.025 0.342 0.05 0.42 0.133 0.316-0.262 0.447-0.5 0.5 0 0.71-0.078 0.947-0.158 0.263-0.08 0.526-0.158 0.79-0.263 0.42-0.184 0.815-0.42 1.236-0.63 0.08-0.028 0.21 0 0.316 0 0.29-0.186 0.394-0.344 0.473-0.318 0.37 0.053 0.63-0.08 0.736-0.42 0.184-0.133 0.316-0.238 0.447-0.318 0.578-0.316 1.13-0.632 1.71-0.948 0.21 0 0.316 0 0.368-0.027 0.344-0.16 0.66-0.342 0.975-0.527a2.258 2.258 0 0 1 -0.263 -0.13c0.262-0.054 0.34-0.08 0.5-0.133 0.63-0.74 1.5-1.24 2.157-1.82 0.29-0.026 0.29-0.105 0.29-0.157 0.104-0.132 0.21-0.29 0.34-0.396 0.58-0.527 1.21-0.975 1.737-1.528a37.16 37.16 0 0 0 2.184 -2.374c0.63-0.738 1.264-1.475 1.79-2.292 0.737-1.133 1.368-2.293 2.026-3.48 0.474-0.842 0.895-1.685 1.37-2.528 0.05-0.08 0.157-0.185 0.236-0.185 0.71-0.08 1.422-0.13 2.106-0.21 0.158-0.026 0.342-0.13 0.5-0.21-0.08-0.132-0.132-0.29-0.21-0.422-0.106-0.16-0.264-0.29-0.37-0.45-0.104-0.13-0.183-0.29-0.262-0.447-0.08-0.13-0.158-0.236-0.237-0.37a9.7 9.7 0 0 1 -0.45 -0.894c-0.026-0.08-0.08-0.21-0.052-0.29 0.474-1.027 0.658-2.134 1.105-3.162 0.447-1.054 0.58-2.24 0.79-3.373 0.184-1.08 0.29-2.16 0.42-3.24 0.08-0.764 0.185-1.502 0.21-2.266 0.16-1.212 0.106-2.346 0.08-3.48-0.026-1-0.08-2.028-0.13-3.03zm-66.025 32.438c-0.184-0.21-0.342-0.448-0.526-0.658l0.08-0.08c0.287 0.317 0.577 0.633 0.866 0.976-0.158-0.08-0.342-0.132-0.42-0.238zm0.42 0.238c0.08-0.027 0.16-0.027 0.238-0.053 0.08 0.132 0.132 0.29 0.21 0.448-0.368-0.027-0.552-0.185-0.447-0.395zm27.37 10.883v-0.08c0.5-0.052 0.973-0.105 1.473-0.157v0.077c-0.5 0.08-0.973 0.13-1.473 0.158zm6.63-0.685c-0.367 0.08-0.762 0.133-1.13 0.186-0.132 0.026-0.29 0.158-0.342-0.08-0.053 0.027-0.106 0.027-0.158 0.054 0.13 0.394 0.447 0.078 0.71 0.236-0.58 0.08-1.13 0.132-1.684 0.21v-0.052c0.16-0.026 0.343-0.053 0.5-0.08v-0.078a7.743 7.743 0 0 0 -0.79 -0.053c-0.077 0-0.183 0.106-0.262 0.132-0.105 0.026-0.21 0.053-0.342 0.053-0.447 0.026-0.894 0.026-1.316 0.052-0.027 0-0.08-0.026-0.106-0.026v-0.08c1.763-0.236 3.5-0.473 5.263-0.71 0.027 0.052 0.027 0.105 0.053 0.157-0.158 0-0.263 0.055-0.395 0.08zm0.396-0.262c0.606-0.08 1.16-0.132 1.738-0.21-1.21 0.342-1.605 0.394-1.737 0.21zm-22.921-53.205c0.84-1.16 1.71-2.32 2.552-3.505 0.263-0.345 0.473-0.714 0.736-1.056 0.08-0.106 0.185-0.158 0.316-0.264l-0.026-0.05c0.105-0.133 0.21-0.24 0.263-0.344 0.134-0.21 0.213-0.448 0.318-0.685 0.026-0.05 0.105-0.103 0.105-0.103 0.37 0.184 0.37-0.21 0.5-0.343 0.237-0.264 0.474-0.553 0.684-0.817 0.158-0.21 0.316-0.395 0.448-0.632 0.026-0.08-0.053-0.21-0.08-0.317h-0.078c0.08-0.052 0.158-0.13 0.237-0.184 0.026 0 0.026 0 0.052-0.026 0.158-0.238 0.316-0.475 0.474-0.686 0.315-0.42 0.657-0.842 1.025-1.21-0.052 0.13-0.105 0.263-0.158 0.368 0.027 0 0.027 0.027 0.053 0.027 0.316-0.422 0.658-0.817 0.974-1.24-0.027-0.025-0.053-0.052-0.08-0.052-0.13 0.132-0.236 0.264-0.368 0.396-0.026-0.027-0.052-0.053-0.08-0.053 0.265-0.343 0.528-0.685 0.79-1.08 0.053 0.08 0.106 0.184 0.21 0.395 0.107-0.263 0.212-0.447 0.29-0.632-0.078 0.08-0.183 0.158-0.262 0.238l-0.08-0.08 0.474-0.71c0.5-0.712 1-1.45 1.5-2.162 0.185-0.263 0.42-0.474 0.58-0.738 0.5-1 1.29-1.792 1.894-2.714 0.132-0.184 0.316-0.342 0.474-0.5 0.13-0.16 0.237-0.106 0.342 0.026 0.71 0.896 1.42 1.818 2.13 2.714 0.528 0.66 1.054 1.29 1.554 1.976 0.605 0.844 1.184 1.687 1.79 2.53 0.684 0.975 1.368 1.95 2.026 2.95 1 1.477 1.947 2.953 2.947 4.428 0.737 1.08 1.474 2.135 2.184 3.215h-1.344c-1.236-0.025-2.5-0.13-3.736-0.078-1.684 0.08-3.394 0.264-5.078 0.396-2.132 0.185-4.29 0.21-6.42 0.21-0.765 0-1.528 0.107-2.29 0.16-0.922 0.052-1.817 0.105-2.738 0.13-1.08 0.054-2.13 0.08-3.21 0.107-0.606 0.026-1.237 0-1.895 0zm30.183 12.12v0.238c-0.026 0-0.052 0.027-0.105 0.027-0.105-0.37-0.21-0.766-0.342-1.135-0.263-0.765-0.553-1.53-1.027-2.214-0.528-0.737-1-1.5-1.528-2.265-0.13-0.185-0.316-0.343-0.474-0.5-0.553-0.607-1.106-1.24-1.816-1.687a21.485 21.485 0 0 0 -3.29 -1.688 7.374 7.374 0 0 1 -0.92 -0.474h0.63l4.5-0.08c0.974-0.025 1.922-0.025 2.895-0.078 0.236 0 0.368 0.08 0.5 0.29 0.236 0.395 0.473 0.79 0.736 1.186 0.027 0.052 0.08 0.13 0.08 0.21 0 0.58 0 1.186 0.026 1.766 0.025 0.606 0.08 1.186 0.104 1.792 0 0.606-0.053 1.238-0.026 1.87 0.027 0.897 0.053 1.82 0.053 2.74zm-28.316-8.824c1.237-0.053 2.42-0.132 3.632-0.185 0.945-0.053 1.92-0.08 2.866-0.132 0.395-0.025 0.764-0.05 1.158 0-0.42 0.212-0.842 0.423-1.21 0.686-0.474 0.316-0.92 0.737-1.395 1.08-0.475 0.342-0.896 0.764-1.29 1.212-0.5 0.605-1.053 1.132-1.58 1.712-0.37 0.422-0.79 0.817-1.105 1.265-0.447 0.58-0.842 1.21-1.263 1.87 0.132-2.504 0.29-4.98 0.184-7.51zm17.185 25.35c-0.843 0.21-1.71 0.448-2.58 0.553-0.736 0.106-1.5 0.08-2.263 0.08-0.686 0-1.344-0.026-2.028-0.08-0.763-0.078-1.526-0.157-2.263-0.5-0.633-0.29-1.29-0.553-1.92-0.87-0.634-0.316-1.265-0.684-1.74-1.264-0.34-0.423-0.815-0.765-1.236-1.134 0.08 0.316 0.263 0.58 0.553 0.764-0.132 0.158-0.316 0.08-0.58-0.343-0.078 0.053-0.157 0.08-0.21 0.106 0.08-0.185 0.158-0.37 0.237-0.527-0.105-0.21-0.237-0.448-0.342-0.66-0.21-0.342-0.42-0.71-0.605-1.053-0.053-0.08-0.053-0.158-0.105-0.237a5.893 5.893 0 0 1 -0.37 -0.475c-0.21-0.315-0.394-0.657-0.657-0.974 0 0.08 0.027 0.158 0.027 0.264-0.027 0-0.053 0.026-0.053 0.026l-0.554-1.344c-0.026 0-0.026 0-0.052 0.026l0.473 1.74c-0.026 0-0.052 0.025-0.08 0.025-0.077-0.104-0.156-0.21-0.21-0.34-0.052-0.212-0.21-0.212-0.34-0.133-0.08 0.053-0.133 0.237-0.106 0.316 0.185 0.448 0.395 0.896 0.606 1.344 0.052 0.158 0.105 0.29 0.184 0.448 0.027 0.053 0.106 0.105 0.106 0.184 0.106 0.21 0.185 0.42 0.316 0.606 0.237 0.316 0.5 0.632 0.737 0.948 0.235 0.316 0.445 0.66 0.656 0.975 0.026 0.053 0.105 0.053 0.13 0.08 0.133 0.395 0.58 0.684 0.896 0.526 0.08 0.606 0.737 0.817 1 1.397a11.957 11.957 0 0 1 -0.763 -0.343c-0.027 0.026-0.027 0.052-0.054 0.105 0.316 0.158 0.632 0.316 0.92 0.5 0.265 0.16 0.528 0.317 0.765 0.5 0.316 0.29 0.685 0.45 1.13 0.554-0.024-0.08-0.05-0.107-0.05-0.107 0.736 0.343 1.5 0.712 2.078 1-2.737 0.054-5.658 0.107-8.685 0.16 0-0.5-0.026-0.975-0.026-1.476 0-0.21 0.052-0.395 0.025-0.606-0.08-1.21-0.08-2.424-0.237-3.61-0.157-1.264-0.157-2.503-0.13-3.77 0.025-0.683-0.027-1.394-0.054-2.08 0-0.922 0-1.82 0.028-2.74 0-0.132 0.053-0.237 0.106-0.37h0.08c0.025 0.054 0 0.133 0.05 0.16 0.08 0.08 0.212 0.21 0.265 0.184 0.157-0.106 0.394-0.21 0.447-0.37 0.13-0.315 0.184-0.658 0.184-0.974 0-0.236 0.106-0.394 0.21-0.553 0.054-0.08 0.08-0.158 0.133-0.263-0.105-0.08-0.21-0.132-0.342-0.237 0.106-0.29 0.08-0.633 0.475-0.79 0.052-0.027 0.052-0.16 0.08-0.238 0.025-0.213 0.05-0.45 0.078-0.66 0.052 0.08 0.08 0.105 0.13 0.157a0.42 0.42 0 0 1 0.054 -0.08c0-0.104-0.026-0.315 0-0.315 0.316-0.053 0.184-0.395 0.342-0.553 0.025-0.028-0.027-0.107-0.027-0.16 0-0.052 0-0.13 0.026-0.13 0.367-0.08 0.315-0.475 0.552-0.66 0.08-0.053 0.105-0.13 0.21-0.263 0.21 0.368-0.158 0.553-0.184 0.816 0.446-0.263 0.578-0.895 0.315-1.08 0.105-0.08 0.21-0.184 0.29-0.29 0.29-0.316 0.604-0.606 0.868-0.922 0.185-0.236 0.29-0.526 0.474-0.763 0.106-0.132 0.316-0.237 0.474-0.317 0.474-0.262 0.92-0.552 1.21-1 0.053-0.053 0.132-0.105 0.21-0.158 0.08-0.053 0.238-0.053 0.264-0.132 0.027-0.052-0.052-0.184-0.105-0.263 0.104-0.053 0.21-0.158 0.42-0.264-0.08 0.158-0.105 0.264-0.158 0.37l0.13 0.13c0.238-0.184 0.606-0.394 0.843-0.552 0-0.025-0.132-0.13-0.132-0.13-0.157 0.08-0.394 0.21-0.63 0.316 0.05-0.08 0.05-0.132 0.08-0.158 0.367-0.237 0.735-0.474 1.13-0.66 0.92-0.42 1.842-0.842 2.763-1.237 0.158-0.08 0.37-0.026 0.553-0.026 0.078 0 0.13 0 0.21-0.026 0.42-0.132 0.842-0.264 1.263-0.37 0.183-0.052 0.393-0.078 0.58-0.078 0.787 0.025 1.577 0.025 2.366 0.078 0.342 0.026 0.658 0.105 0.974 0.21a9.88 9.88 0 0 1 1.184 0.5c0.447 0.24 0.868 0.502 1.29 0.792 0.763 0.5 1.473 1.054 2.236 1.502 0.737 0.448 1.316 1.054 1.79 1.74 0.58 0.816 1.237 1.554 1.5 2.555l0.394 1.74c0.08 0.316 0.264 0.632 0.185 1-0.133 0.66-0.238 1.345-0.343 2.004-0.052 0.265-0.105 0.53-0.078 0.79 0.05 0.82-0.265 1.53-0.58 2.268-0.106 0.237-0.264 0.475-0.395 0.738a0.798 0.798 0 0 0 0.21 0.106l0.237-0.474c0.027 0 0.027 0 0.053 0.027-0.132 0.368-0.237 0.764-0.37 1.133-0.314 0.817-0.63 1.66-1.025 2.45-0.21 0.448-0.58 0.817-0.842 1.24-0.262 0.368-0.473 0.763-0.736 1.106-0.237 0.29-0.473 0.58-0.79 0.79-0.71 0.527-1.447 1.054-2.21 1.476-0.473 0.29-1.026 0.448-1.552 0.58zm-14.027-1.4-0.026 0.027c-0.055-0.026-0.134-0.052-0.186-0.105l-0.632-0.95c-0.052-0.078-0.08-0.157-0.052-0.262 0.29 0.448 0.58 0.87 0.895 1.29zm16.37 3.61c1.183-0.5 2.157-1.21 3.05-2.028 0.133-0.132 0.264-0.263 0.422-0.37 1.106-0.684 1.92-1.633 2.658-2.687 0.842-1.212 1.395-2.582 2.08-3.873a2.73 2.73 0 0 1 0.157 -0.29c-0.053 3.004 0.29 5.955 0.684 8.933-2.973 0.105-6 0.21-9.052 0.316zm26.683-0.79c-0.026 0.053-0.08 0.106-0.105 0.16-0.027-0.054-0.027-0.133-0.053-0.24-0.158 0.423-0.5 0.212-0.737 0.212-1.42 0.027-2.868 0.027-4.29 0.027-1.368 0-2.762 0-4.13 0.024-0.448 0-0.922 0.105-1.37 0.132-1.078 0.052-2.157 0.08-3.236 0.105-0.08 0-0.158-0.13-0.29-0.236a1.81 1.81 0 0 1 -0.158 0.237c-0.028-0.052-0.08-0.104-0.133-0.183-0.026 0.08-0.053 0.158-0.08 0.21h-0.076c-0.053-0.368-0.158-0.71-0.158-1.08 0-0.79 0.08-1.58 0.105-2.372 0.027-0.368 0-0.71 0-1.054 0.106 0.08 0.185 0.133 0.29 0.21 0.052-0.103 0.105-0.182 0.158-0.26 0 0-0.053-0.028-0.106-0.08 0.05-0.027 0.104-0.08 0.104-0.106 0.026-0.08 0.08-0.158 0.08-0.21 0-0.185-0.054-0.343-0.08-0.5 0.026 0 0.052 0 0.08-0.028l0.157 0.79h0.08c-0.106-0.183 0.236-0.342-0.053-0.552-0.026-0.027 0.026-0.185 0.026-0.264-0.08-0.157-0.13-0.315-0.21-0.526 0.026-0.026 0.105-0.053 0.184-0.08-0.105-0.052-0.184-0.104-0.263-0.13 0.263-0.238 0.263-0.37 0.026-0.633 0.054-0.025 0.106-0.025 0.106-0.05 0-0.238 0-0.475-0.052-0.71-0.053-0.266 0.08-0.58-0.316-0.74a0.79 0.79 0 0 0 0.105 0.21s-0.08 0.027-0.158 0.08c-0.342-0.317-0.13-0.74-0.21-1.213 0.184 0.053 0.316 0.106 0.447 0.16-0.053-0.186-0.184-0.397-0.263-0.634h-0.107v-1.74c0 0.027 0.184 0.027 0.29 0.054 0-0.027 0.025-0.053 0.025-0.08-0.08-0.105-0.185-0.21-0.29-0.342l0.053-0.053c-0.21-0.262-0.105-0.63-0.105-0.71v-1.845c0.264 0.264-0.13 0.606 0.264 0.764v-0.263h-0.027c-0.026-0.395-0.026-0.79-0.052-1.186h-0.052c-0.027 0.054-0.027 0.08-0.054 0.133h-0.052l0.158-6.298c0.263 0.342 0.552 0.66 0.736 1 0.606 1.108 1.395 2.057 2.132 3.058 0.632 0.87 1.21 1.818 1.79 2.714 0.71 1.08 1.394 2.16 2.105 3.24a81.41 81.41 0 0 0 1.63 2.426c0.5 0.71 1.028 1.396 1.554 2.082 0.446 0.606 0.92 1.212 1.367 1.818 0.527 0.738 1.053 1.475 1.58 2.187 0.262 0.368 0.552 0.737 0.84 1.106 0.16 0.21 0.396 0.37 0.554 0.5-0.025 0-0.052 0-0.104-0.026 0.08 0.105 0.13 0.184 0.184 0.237 0.29 0.158 0.316 0.316 0.158 0.554zm1.342-6.586v-0.185c0 0.052 0.026 0.13 0 0.184zm0.895-11.62c-0.027 0-0.184-0.16-0.21-0.186-0.027 0.08 0 0.158-0.053 0.264-0.027-0.078-0.21-0.052-0.21-0.13-0.027 0.368 0.157 0.737 0.13 1.106 0.08-0.053 0.395-0.08 0.474-0.158 0.027 0.026 0.08 0.052 0.106 0.052-0.527 0.396-0.395 0.79-0.158 1.24 0.052 0.104 0.21 0.315 0.052 0.526-0.052 0.053 0.027 0.21 0.053 0.343h0.077v0.05l-0.237 0.08c-0.052-0.08-0.367-0.236-0.367-0.37v1.346c0.263 0.08 0.263 0.448 0.368 0.633a0.768 0.768 0 0 0 0.107 -0.21l0.027 0.024c-0.027 0.158-0.053 0.316-0.106 0.475-0.052 0.236-0.105 0.447-0.13 0.684 0 0.026 0.05 0.08 0.05 0.105-0.288 0.66-0.13 1.396-0.235 2.08-0.08 0.5 0 1.03-0.053 1.556-0.054 0.448-0.16 0.922-0.264 1.37-0.027 0.08-0.08 0.105-0.21 0.158 0.052-0.316 0.026-0.527-0.027-0.817-0.028 0-0.37-0.184-0.397-0.184 0 0.37 0.21 0.87 0.29 1.29-0.08-0.026-0.395-0.21-0.42-0.21-0.054 0.316-0.054 0.738-0.08 1.08-0.027 0.264-0.263 0.5-0.29 0.79 0 0.16 0.184 0.264 0.158 0.528h0.21c0-0.526 0.238-1 0.238-1.554h0.078c0.027 0.053 0.106 0.106 0.08 0.132-0.053 0.29-0.16 0.606-0.132 0.896 0 0.158 0.13 0.316 0.08 0.5-0.054 0.16-0.08 0.317-0.107 0.554-0.027-0.132-0.053-0.184-0.053-0.263-0.026 0-0.263-0.027-0.29-0.027-0.026 0.158 0.185 0.316 0.158 0.448-0.026 0.026-0.052 0.026-0.105 0.053l-0.868-1.266c-0.686-1-1.37-2.003-2.054-3.03a6.312 6.312 0 0 1 -0.475 -0.79 37.09 37.09 0 0 0 -2.71 -4.033c-0.762-0.974-1.37-2.03-2.08-3.055-0.656-0.975-1.314-1.924-1.972-2.9-0.237-0.315-0.526-0.605-0.737-0.948-0.683-1.08-1.29-2.187-1.972-3.267-0.58-0.897-1.21-1.767-1.816-2.636-0.21-0.29-0.42-0.607-0.632-0.923a0.37 0.37 0 0 1 -0.052 -0.182c-0.053-0.58-0.106-1.16-0.132-1.713 0-0.527 0.053-1.054 0.053-1.608v-0.474c0-0.132 0.025-0.237 0.025-0.37 0.025-0.025 0.052-0.078 0.078-0.104-0.763 0-1.553-0.028-2.316 0-0.5 0.025-0.763-0.186-1.105-0.555-1-1.133-1.737-2.424-2.605-3.636a162.42 162.42 0 0 0 -2.5 -3.427c-0.685-0.922-1.37-1.818-2.053-2.74-0.764-1.054-1.5-2.108-2.29-3.162-0.948-1.264-1.922-2.53-2.895-3.794-0.45-0.58-0.95-1.133-1.45-1.74 0.343 0.054 0.66 0.106 0.975 0.133l1.264 0.08c0.947 0.077 1.894 0.13 2.84 0.26 0.79 0.107 1.58 0.265 2.396 0.396 1.738 0.29 3.448 0.765 5.106 1.318 0.974 0.316 1.92 0.738 2.87 1.133 2.13 0.87 4.157 1.924 6.157 3.03 0.63 0.343 1 0.896 1.472 1.397 0.685 0.712 1.37 1.423 2.027 2.16 0.762 0.87 1.472 1.766 2.21 2.662 0.657 0.79 1.34 1.58 2 2.372 0.21 0.237 0.37 0.527 0.552 0.79 0.42 0.633 0.895 1.24 1.263 1.924 0.262 0.502 0.42 1.082 0.604 1.635 0.262 0.817 0.526 1.607 0.79 2.424 0.183 0.606 0.34 1.24 0.472 1.87 0.106 0.423 0.08 0.87 0.21 1.29 0.16 0.556 0 1.16 0.16 1.715 0.025 0.053 0.05 0.132 0.078 0.185 0.105 0.104 0.184 0.21 0.026 0.368-0.025 0.026-0.025 0.13 0 0.21 0.054-0.052 0.08-0.105 0.133-0.184 0 0.053 0.025 0.08 0.025 0.105 0 0.104-0.027 0.21 0 0.315 0 0.052 0.052 0.13 0.078 0.184 0.053-0.054 0.105-0.08 0.21-0.16 0.237 0.897 0.264 1.793 0.264 2.715 0 0.87 0.157 1.74-0.21 2.583 0.078-0.29-0.106-0.555-0.027-0.818z"/>
  <path d="m58.08 45.482c0.025 0 0.052 0.027 0.052 0.027l-0.027-0.03c0-0.025 0-0.025-0.026 0zm4.157 26.036c-0.29 0.21-0.58 0.395-0.948 0.474-0.028-0.026-0.028-0.053-0.054-0.08 0.29-0.184 0.605-0.368 0.895-0.553 0.027 0.05 0.08 0.104 0.106 0.157zm-49.342-35.708c0.29-0.367 0.58-0.736 0.894-1.105 0.025 0.026 0.235 0.08 0.262 0.105-0.29 0.37-0.685 0.87-0.974 1.265-0.054-0.053-0.133-0.237-0.185-0.264zm-7.475 12.915c-0.21-0.448-0.42-0.923-0.63-1.37a0.91 0.91 0 0 1 0.236 -0.106c0.29 0.42 0.42 0.92 0.632 1.37 0 0-0.21 0.105-0.237 0.105zm6.712-12.65c-0.158 0.238-0.316 0.502-0.474 0.74-0.026-0.028-0.316 0.104-0.342 0.078 0.158-0.237 0.552-0.66 0.71-0.896 0.027 0.026 0.053 0.053 0.106 0.08zm47.29 36.525c0.025 0 0.025-0.026 0.052-0.026 0.184 0.026 0.394 0.052 0.605 0.052-0.344 0.237-0.555 0.21-0.66-0.026zm-47.24-35.418c0.028-0.08 0.08-0.158 0.133-0.237 0.052 0 0.13-0.027 0.13-0.027 0.107-0.184 0.107-0.316 0.212-0.474-0.026-0.026-0.053-0.026-0.08-0.053-0.157 0.108-0.315 0.24-0.473 0.345 0.053 0.052 0.053 0.08 0.053 0.132-0.21-0.027-0.29 0.08-0.395 0.368-0.026 0.08-0.158 0.106-0.29 0.21-0.026 0.054-0.052 0.186-0.105 0.317l0.027 0.028c-0.053 0.053-0.132 0.08-0.132 0.08-0.158 0.157-0.342 0.29-0.5 0.447-0.026 0.08-0.052 0.158-0.052 0.237 0.185-0.184 0.5-0.527 0.737-0.738l0.027 0.027c0.105-0.158 0.184-0.316 0.29-0.474 0.025 0.026 0.025 0.052 0.052 0.08-0.08 0.21-0.158 0.446-0.237 0.657-0.055 0.026-0.134 0.08-0.134 0.053-0.105 0.08-0.184 0.184-0.29 0.263l-0.473 0.316c-0.263 0.237-0.526 0.447-0.816 0.685-0.184 0.29-0.368 0.553-0.58 0.896 0.317-0.08 0.396 0.053 0.37 0.317 0.368 0.052 0.395-0.237 0.5-0.448 0.026-0.054 0.053-0.16 0.105-0.186 0.237-0.21 0.5-0.394 0.763-0.605 0.053-0.053 0.053-0.16 0.053-0.238 0-0.026-0.133-0.026-0.212-0.053 0.237-0.264 0.58-0.71 0.816-1 0.132-0.08 0.263-0.186 0.263-0.265-0.026-0.29 0.158-0.368 0.37-0.474-0.106-0.08-0.133-0.157-0.133-0.183z"/>
  <path d="m12.71 36.892c-0.105 0.184-0.21 0.342-0.315 0.527l-0.158-0.08c-0.105 0.605-0.474 1.132-0.842 1.237 0.105 0.053 0.21 0.106 0.29 0.08 0.078-0.027 0.13-0.16 0.183-0.238l0.71-1.028 0.238-0.396-0.105-0.105zm-8.762 11.568c0.132 0 0.264 0.026 0.42 0.026 0-0.105 0.133-0.08 0.133-0.184h0.08c0 0.132 0.026 0.237 0.026 0.37h-0.552c-0.027-0.027-0.132-0.186-0.106-0.212zm-0.21-1.212c-0.08-0.08-0.21-0.158-0.21-0.237-0.027-0.104 0.052-0.235 0.13-0.367 0.054 0.184 0.08 0.342 0.132 0.527-0.027 0.025-0.053 0.052-0.053 0.078zm0.658-1.687c0.105 0.266 0.21 0.556 0.316 0.82a0.798 0.798 0 0 0 -0.21 0.105c-0.105-0.264-0.237-0.554-0.342-0.817a0.652 0.652 0 0 1 0.237 -0.106zm58.58 25.194c0.13-0.052 0.288-0.08 0.5-0.13-0.238 0.183-0.422 0.315-0.58 0.473-0.027-0.026-0.053-0.053-0.08-0.053 0.053-0.105 0.106-0.184 0.16-0.29zm-32.346-55.681c0.157-0.106 0.29-0.185 0.447-0.29l0.052 0.052c-0.16 0.21-0.29 0.42-0.475 0.685-0.026-0.183-0.026-0.29-0.053-0.42-0.026 0 0 0 0.027-0.026zm7.71 13.333c0.237-0.106 0.474-0.21 0.763-0.343-0.026 0.158-0.026 0.264-0.026 0.37a0.927 0.927 0 0 0 -0.264 -0.054c-0.158 0.027-0.448 0.238-0.58 0.264-0.025 0 0.106-0.21 0.106-0.237zm19.74 22.346c0.052 0.263 0.552 0.395 0.052 0.658 0.08 0.055 0.157 0.08 0.236 0.134a0.2 0.2 0 0 1 -0.052 0.106c-0.053 0.025-0.158 0.078-0.21 0.05-0.027 0-0.08-0.104-0.08-0.157 0-0.237 0.027-0.474 0.053-0.79z"/>
 </g>
</svg>
