<svg xmlns="http://www.w3.org/2000/svg" viewBox="0 0 32 32">
  <path d="M29.06952,6H7.67657A1.53492,1.53492,0,0,0,6.24036,7.11292L2.03979,24.88708A.85158.85158,0,0,0,2.92963,26H24.32251a1.535,1.535,0,0,0,1.43628-1.11292L29.96063,7.11163A.85178.85178,0,0,0,29.06952,6ZM8.62573,23.7973a1.402,1.402,0,0,1-1.814-.31006l-.007-.00879a1.07544,1.07544,0,0,1,.31567-1.59924l9.5987-6.06134-6.10077-5.852-.01062-.01031A1.06843,1.06843,0,0,1,10.6922,8.3313l.0365-.03119a1.38027,1.38027,0,0,1,1.80115.07092l7.23223,6.95673a1.10816,1.10816,0,0,1,.23639.73913,1.07453,1.07453,0,0,1-.41217.79078c-.07385.03973-.14624.11792-10.95178,6.9342ZM24,22.93982A1.1351,1.1351,0,0,1,22.80273,24H17.169a1.06133,1.06133,0,1,1,.0014-2.11157h5.63238A1.134,1.134,0,0,1,24,22.93854Z" style="fill: #03a9f4"/>
</svg>
