<?xml version="1.0" encoding="UTF-8" standalone="no"?>
<svg
   xmlns:dc="http://purl.org/dc/elements/1.1/"
   xmlns:cc="http://creativecommons.org/ns#"
   xmlns:rdf="http://www.w3.org/1999/02/22-rdf-syntax-ns#"
   xmlns:svg="http://www.w3.org/2000/svg"
   xmlns="http://www.w3.org/2000/svg"
   xmlns:sodipodi="http://sodipodi.sourceforge.net/DTD/sodipodi-0.dtd"
   xmlns:inkscape="http://www.inkscape.org/namespaces/inkscape"
   width="67.47"
   height="70"
   version="1.1"
   id="svg6"
   sodipodi:docname="powershell.svg"
   inkscape:version="0.92.1 r15371">
  <defs
     id="defs10" />  
  <path
     style="fill:#03a9f4;fill-opacity:1;fill-rule:nonzero;stroke:none;stroke-width:5.34186935;stroke-linejoin:round;stroke-miterlimit:4;stroke-dasharray:none;stroke-opacity:1"
     d="M 18.544922 12.400391 C 15.530625 12.400391 12.465116 14.740388 11.671875 17.648438 L 1.9101562 53.4375 C 1.1169154 56.34555 2.9056251 58.685547 5.9199219 58.685547 L 48.806641 58.685547 C 51.820937 58.685547 54.886446 56.34555 55.679688 53.4375 L 65.441406 17.648438 C 66.234647 14.740388 64.447891 12.400391 61.433594 12.400391 L 18.544922 12.400391 z M 23.392578 18.642578 C 24.045065 18.682996 24.683347 18.972966 25.152344 19.503906 L 33.113281 28.515625 L 29.15625 31.761719 L 33.113281 28.517578 L 37.945312 33.988281 C 37.981723 34.029518 38.005772 34.076331 38.039062 34.119141 C 38.065233 34.152901 38.096294 34.179454 38.121094 34.214844 C 38.140804 34.242994 38.153435 34.272161 38.171875 34.300781 C 38.227872 34.387506 38.275933 34.477239 38.320312 34.568359 C 38.349283 34.627741 38.376341 34.685404 38.400391 34.746094 C 38.438551 34.842753 38.470254 34.941506 38.496094 35.041016 C 38.512754 35.104793 38.527502 35.168012 38.539062 35.232422 C 38.555593 35.324838 38.565866 35.416496 38.572266 35.509766 C 38.577166 35.582901 38.581378 35.655506 38.580078 35.728516 C 38.578388 35.818667 38.569784 35.906594 38.558594 35.996094 C 38.549514 36.069135 38.538787 36.140921 38.523438 36.212891 C 38.505268 36.297902 38.480005 36.381784 38.453125 36.464844 C 38.428585 36.540973 38.404747 36.615693 38.373047 36.689453 C 38.340776 36.764287 38.301409 36.836183 38.261719 36.908203 C 38.220564 36.983173 38.177886 37.055913 38.128906 37.126953 C 38.084023 37.191888 38.033932 37.253083 37.982422 37.314453 C 37.923797 37.384461 37.863825 37.451285 37.796875 37.515625 C 37.769955 37.541525 37.748973 37.572676 37.720703 37.597656 C 37.683882 37.630166 37.643539 37.651601 37.605469 37.681641 C 37.567072 37.711901 37.534691 37.746981 37.494141 37.775391 L 16.800781 52.271484 C 15.640333 53.084368 14.051167 52.804981 13.238281 51.644531 C 12.425396 50.484086 12.706739 48.894913 13.867188 48.082031 L 32.216797 35.228516 L 29.15625 31.761719 L 21.318359 22.888672 C 20.380365 21.826792 20.481092 20.219244 21.542969 19.28125 C 22.07391 18.81225 22.740094 18.602148 23.392578 18.642578 z M 45.833984 46.857422 C 47.211496 46.856548 48.089323 47.939739 47.802734 49.287109 C 47.516146 50.634479 46.17634 51.71983 44.798828 51.720703 L 34.841797 51.726562 C 33.464285 51.727436 32.586458 50.644245 32.873047 49.296875 C 33.159635 47.949505 34.499442 46.864155 35.876953 46.863281 L 45.833984 46.857422 z "
     id="rect4553" />
</svg>
