<svg version="1.1" viewBox="0 0 67.47 70" xmlns="http://www.w3.org/2000/svg">
<path d="m18.604 11.857c-3.0143 0-6.0798 2.34-6.873 5.248l-9.7617 35.789c-.79324 2.908.99547 5.248 4.0098 5.248h42.887c3.0143 0 6.0798-2.34 6.873-5.248l9.7617-35.789c.79324-2.908-.99352-5.248-4.0078-5.248zm4.8477 6.2422c.65249.04042 1.2908.33039 1.7598.86133l7.9609 9.0117-3.957 3.2461 3.957-3.2441 4.832 5.4707c.03641.04124.06046.08805.09375.13086.02617.03376.05723.06031.08203.0957.01971.02815.03234.05732.05078.08594.056.08673.10406.17646.14844.26758.02897.05938.05603.11704.08008.17774.03816.09666.06986.19541.0957.29492.01666.06378.03141.127.04297.19141.01653.09242.0268.18407.0332.27734.0049.07314.0091.14574.0078.21875-.0017.09015-.01029.17808-.02148.26758-.0091.07304-.01981.14483-.03516.2168-.01817.08501-.04343.16889-.07031.25195-.02454.07613-.04838.15085-.08008.22461-.03227.07483-.07164.14673-.11133.21875-.04115.07497-.08383.14771-.13281.21875-.04488.06493-.09497.12613-.14648.1875-.05862.07001-.1186.13683-.18555.20117-.02692.0259-.0479.05705-.07617.08203-.03682.03251-.07716.05394-.11523.08398-.0384.03026-.07078.06534-.11133.09375l-20.693 14.496c-1.1604.81288-2.7496.5335-3.5625-.62695-.81288-1.1604-.53154-2.7496.62891-3.5625l18.35-12.854-3.0605-3.4668-7.8379-8.873c-.93799-1.0619-.83727-2.6694.22461-3.6074.53094-.469 1.1971-.6791 1.8496-.63867zm22.441 28.215c1.3775-.000874 2.2553 1.0823 1.9688 2.4297-.28659 1.3474-1.6264 2.4327-3.0039 2.4336l-9.957.0059c-1.3775.000874-2.2553-1.0823-1.9688-2.4297.28659-1.3474 1.6264-2.4327 3.0039-2.4336z" fill="#03a9f4"/>
</svg>
