<svg xmlns="http://www.w3.org/2000/svg" height="2000" width="2000"><defs><clipPath id="a" clipPathUnits="userSpaceOnUse"><path d="M0 1500h1500V0H0z"/></clipPath></defs><g clip-path="url(#a)" transform="matrix(1.33333 0 0 -1.33333 0 2000)"><path d="M665.147 130.852L130.853 665.147c-46.863 46.862-46.863 122.842 0 169.705l534.294 534.295c46.863 46.864 122.843 46.864 169.706 0l534.294-534.294c46.863-46.863 46.863-122.843 0-169.706L834.853 130.852c-46.863-46.862-122.843-46.862-169.706 0" fill="#fab040"/><path d="M687.774 233.226L233.225 687.775c-34.366 34.366-34.366 90.085 0 124.45l454.55 454.55c34.365 34.366 90.084 34.366 124.45 0l454.55-454.55c34.365-34.365 34.365-90.084 0-124.45l-454.55-454.55c-34.366-34.365-90.085-34.365-124.45 0z" fill="none" stroke="#040521" stroke-width="34" stroke-miterlimit="10"/><path d="M784.672 763.286c12.096 0 23.74.893 34.943 2.688 11.194 1.785 21.053 5.26 29.569 10.416 8.504 5.145 15.34 12.432 20.496 21.84 5.144 9.408 7.726 21.724 7.726 36.96 0 15.225-2.582 27.552-7.726 36.96-5.156 9.408-11.992 16.684-20.496 21.84-8.516 5.145-18.375 8.62-29.57 10.416-11.202 1.785-22.846 2.688-34.942 2.688h-81.985V763.286zm28.895 225.792c30.009 0 55.544-4.368 76.609-13.104 21.05-8.736 38.187-20.275 51.406-34.608 13.209-14.343 22.85-30.692 28.897-49.056 6.048-18.375 9.072-37.412 9.072-57.12 0-19.268-3.024-38.2-9.072-56.784-6.047-18.596-15.688-35.06-28.897-49.392-13.22-14.343-30.355-25.872-51.406-34.608-21.065-8.736-46.6-13.104-76.61-13.104h-110.88V509.27H597.184v479.808z"/></g></svg>
