<svg xmlns="http://www.w3.org/2000/svg" viewBox="0 0 210 210"><g transform="matrix(.9 0 0 .9 10.5 10.5)"><rect width="20" height="10" x="165" y="40" fill="#4DB6AC" rx="5"/><rect width="60" height="10" x="15" y="200" fill="#EF5350" rx="5"/><rect width="40" height="10" x="135" y="120" fill="#CE93D8" rx="5"/><rect width="50" height="10" x="75" y="120" fill="#EF5350" rx="5"/><rect width="50" height="10" x="15" y="120" fill="#4DB6AC" rx="5"/><rect width="60" height="10" x="15" y="160" fill="#CE93D8" rx="5"/><rect width="60" height="10" x="15" y="80" fill="#CE93D8" rx="5"/><rect width="110" height="10" x="65" y="20" fill="#FBC02D" rx="5"/><rect width="40" height="10" x="15" y="20" fill="#EF5350" rx="5"/><rect width="20" height="10" x="55" y="180" fill="#FBC02D" rx="5"/><rect width="20" height="10" x="55" y="60" fill="#4DB6AC" rx="5"/><rect width="30" height="10" x="15" y="180" fill="#4DB6AC" rx="5"/><rect width="30" height="10" x="15" y="60" fill="#FBC02D" rx="5"/><rect width="90" height="10" x="95" y="100" fill="#4DB6AC" rx="5"/><rect width="40" height="10" x="45" y="100" fill="#FBC02D" rx="5"/><rect width="20" height="10" x="15" y="100" fill="#EF5350" rx="5"/><rect width="50" height="10" x="105" y="40" fill="#CE93D8" rx="5"/><rect width="80" height="10" x="15" y="40" fill="#4DB6AC" rx="5"/><rect width="100" height="10" x="45" y="140" fill="#FBC02D" rx="5"/><rect width="20" height="10" x="15" y="140" fill="#CE93D8" rx="5"/><rect width="60" height="10" x="135" y="60" fill="#EF5350" rx="5"/><rect width="60" height="10" x="135" y="80" fill="#FBC02D" rx="5"/><rect width="130" height="10" x="15" fill="#4DB6AC" rx="5"/></g></svg>