<svg width="210" height="210" viewBox="0 0 210 210" fill="none" xmlns="http://www.w3.org/2000/svg">
<path d="M172.5 46.5H163.5C161.015 46.5 159 48.5147 159 51C159 53.4853 161.015 55.5 163.5 55.5H172.5C174.985 55.5 177 53.4853 177 51C177 48.5147 174.985 46.5 172.5 46.5Z" fill="#3BD9DC"/>
<path d="M73.5 190.5H28.5C26.0147 190.5 24 192.515 24 195C24 197.485 26.0147 199.5 28.5 199.5H73.5C75.9853 199.5 78 197.485 78 195C78 192.515 75.9853 190.5 73.5 190.5Z" fill="#3BD9DC"/>
<path d="M163.5 118.5H136.5C134.015 118.5 132 120.515 132 123C132 125.485 134.015 127.5 136.5 127.5H163.5C165.985 127.5 168 125.485 168 123C168 120.515 165.985 118.5 163.5 118.5Z" fill="#3BD9DC"/>
<path d="M118.5 118.5H82.5C80.0147 118.5 78 120.515 78 123C78 125.485 80.0147 127.5 82.5 127.5H118.5C120.985 127.5 123 125.485 123 123C123 120.515 120.985 118.5 118.5 118.5Z" fill="#3BD9DC"/>
<path d="M64.5 118.5H28.5C26.0147 118.5 24 120.515 24 123C24 125.485 26.0147 127.5 28.5 127.5H64.5C66.9853 127.5 69 125.485 69 123C69 120.515 66.9853 118.5 64.5 118.5Z" fill="#3BD9DC"/>
<path d="M73.5 154.5H28.5C26.0147 154.5 24 156.515 24 159C24 161.485 26.0147 163.5 28.5 163.5H73.5C75.9853 163.5 78 161.485 78 159C78 156.515 75.9853 154.5 73.5 154.5Z" fill="#3BD9DC"/>
<path d="M73.5 82.5H28.5C26.0147 82.5 24 84.5147 24 87C24 89.4853 26.0147 91.5 28.5 91.5H73.5C75.9853 91.5 78 89.4853 78 87C78 84.5147 75.9853 82.5 73.5 82.5Z" fill="#3BD9DC"/>
<path d="M163.5 28.5H73.5C71.0147 28.5 69 30.5147 69 33C69 35.4853 71.0147 37.5 73.5 37.5H163.5C165.985 37.5 168 35.4853 168 33C168 30.5147 165.985 28.5 163.5 28.5Z" fill="#3BD9DC"/>
<path d="M55.5 28.5H28.5C26.0147 28.5 24 30.5147 24 33C24 35.4853 26.0147 37.5 28.5 37.5H55.5C57.9853 37.5 60 35.4853 60 33C60 30.5147 57.9853 28.5 55.5 28.5Z" fill="#3BD9DC"/>
<path d="M73.5 172.5H64.5C62.0147 172.5 60 174.515 60 177C60 179.485 62.0147 181.5 64.5 181.5H73.5C75.9853 181.5 78 179.485 78 177C78 174.515 75.9853 172.5 73.5 172.5Z" fill="#3BD9DC"/>
<path d="M73.5 64.5H64.5C62.0147 64.5 60 66.5147 60 69C60 71.4853 62.0147 73.5 64.5 73.5H73.5C75.9853 73.5 78 71.4853 78 69C78 66.5147 75.9853 64.5 73.5 64.5Z" fill="#3BD9DC"/>
<path d="M46.5 172.5H28.5C26.0147 172.5 24 174.515 24 177C24 179.485 26.0147 181.5 28.5 181.5H46.5C48.9853 181.5 51 179.485 51 177C51 174.515 48.9853 172.5 46.5 172.5Z" fill="#53B3B5"/>
<path d="M46.5 64.5H28.5C26.0147 64.5 24 66.5147 24 69C24 71.4853 26.0147 73.5 28.5 73.5H46.5C48.9853 73.5 51 71.4853 51 69C51 66.5147 48.9853 64.5 46.5 64.5Z" fill="#53B3B5"/>
<path d="M172.5 100.5H100.5C98.0147 100.5 96 102.515 96 105C96 107.485 98.0147 109.5 100.5 109.5H172.5C174.985 109.5 177 107.485 177 105C177 102.515 174.985 100.5 172.5 100.5Z" fill="#3BD9DC"/>
<path d="M82.5 100.5H55.5C53.0147 100.5 51 102.515 51 105C51 107.485 53.0147 109.5 55.5 109.5H82.5C84.9853 109.5 87 107.485 87 105C87 102.515 84.9853 100.5 82.5 100.5Z" fill="#3BD9DC"/>
<path d="M37.5 100.5H28.5C26.0147 100.5 24 102.515 24 105C24 107.485 26.0147 109.5 28.5 109.5H37.5C39.9853 109.5 42 107.485 42 105C42 102.515 39.9853 100.5 37.5 100.5Z" fill="#53B3B5"/>
<path d="M145.5 46.5H109.5C107.015 46.5 105 48.5147 105 51C105 53.4853 107.015 55.5 109.5 55.5H145.5C147.985 55.5 150 53.4853 150 51C150 48.5147 147.985 46.5 145.5 46.5Z" fill="#3BD9DC"/>
<path d="M91.5 46.5H28.5C26.0147 46.5 24 48.5147 24 51C24 53.4853 26.0147 55.5 28.5 55.5H91.5C93.9853 55.5 96 53.4853 96 51C96 48.5147 93.9853 46.5 91.5 46.5Z" fill="#3BD9DC"/>
<path d="M136.5 136.5H55.5C53.0147 136.5 51 138.515 51 141C51 143.485 53.0147 145.5 55.5 145.5H136.5C138.985 145.5 141 143.485 141 141C141 138.515 138.985 136.5 136.5 136.5Z" fill="#3BD9DC"/>
<path d="M37.5 136.5H28.5C26.0147 136.5 24 138.515 24 141C24 143.485 26.0147 145.5 28.5 145.5H37.5C39.9853 145.5 42 143.485 42 141C42 138.515 39.9853 136.5 37.5 136.5Z" fill="#53B3B5"/>
<path d="M181.5 64.5H136.5C134.015 64.5 132 66.5147 132 69C132 71.4853 134.015 73.5 136.5 73.5H181.5C183.985 73.5 186 71.4853 186 69C186 66.5147 183.985 64.5 181.5 64.5Z" fill="#3BD9DC"/>
<path d="M181.5 82.5H136.5C134.015 82.5 132 84.5147 132 87C132 89.4853 134.015 91.5 136.5 91.5H181.5C183.985 91.5 186 89.4853 186 87C186 84.5147 183.985 82.5 181.5 82.5Z" fill="#3BD9DC"/>
<path d="M136.5 10.5H28.5C26.0147 10.5 24 12.5147 24 15C24 17.4853 26.0147 19.5 28.5 19.5H136.5C138.985 19.5 141 17.4853 141 15C141 12.5147 138.985 10.5 136.5 10.5Z" fill="#3BD9DC"/>
</svg>
