<svg xmlns="http://www.w3.org/2000/svg" viewBox="0 0 32 32">
  <path d="M27.77693,22.61685l-.45855-.94609-.00012.00006L18.43011,3.25962a2.24915,2.24915,0,0,0-1.9144-1.25531C16.48159,2.00176,16.43025,2,16.37928,2h-.00006a2.22774,2.22774,0,0,0-1.89136,1.04176L4.34877,19.0564a2.2037,2.2037,0,0,0,.02461,2.417l4.95651,7.48786A2.33606,2.33606,0,0,0,11.28925,30a2.38712,2.38712,0,0,0,.65608-.09227L26.332,25.75912a2.32181,2.32181,0,0,0,1.45809-1.234A2.21141,2.21141,0,0,0,27.77693,22.61685Zm-3.5383.60411L12.9714,26.47055,17.04614,7.43807,24.614,23.109l-.37607.0984Z" style="fill: #00bfa5"/>
</svg>
