<?xml version="1.0" encoding="UTF-8"?>
<svg width="24px" height="24px" viewBox="0 0 24 24" version="1.1" xmlns="http://www.w3.org/2000/svg" xmlns:xlink="http://www.w3.org/1999/xlink">
    <!-- Generator: Sketch 51.3 (57544) - http://www.bohemiancoding.com/sketch -->
    <title>prisma</title>
    <desc>Created with Sketch.</desc>
    <defs></defs>
    <g id="prisma" stroke="none" stroke-width="1" fill="none" fill-rule="evenodd">
        <path d="M19.3080693,17.8638 L10.0897051,20.52005 C9.80810885,20.6013 9.53816237,20.364 9.59738637,20.08725 L12.8905281,4.72175 C12.9521642,4.434405 13.3598039,4.38878 13.4884647,4.654875 L19.5859705,17.2699 C19.70098,17.5079 19.5698045,17.7885 19.3080693,17.8638 Z M20.8887445,17.23735 L13.8286177,2.630735 L13.8286177,2.63042 C13.6515616,2.265265 13.2820531,2.02432675 12.8632768,2.00198295 C12.4336719,1.9776079 12.0487159,2.1794835 11.8315784,2.52308 L4.17453427,14.6059 C3.937336,14.9825 3.94198719,15.44685 4.18800594,15.8189 L7.93089285,21.46765 C8.15397846,21.80485 8.54048433,22 8.94223243,22 C9.0560975,22 9.17060407,21.9844 9.28320152,21.9519 L20.1477773,18.82125 C20.4805916,18.7253 20.7527448,18.49595 20.8951596,18.19185 C21.0371124,17.88765 21.0348543,17.5395 20.8887445,17.23735 Z" fill="#00BFA5"></path>
    </g>
</svg>