<?xml version="1.0" encoding="UTF-8" ?>
<!DOCTYPE svg PUBLIC "-//W3C//DTD SVG 1.1//EN" "http://www.w3.org/Graphics/SVG/1.1/DTD/svg11.dtd">
<svg width="178pt" height="146pt" viewBox="0 0 178 146" version="1.1" xmlns="http://www.w3.org/2000/svg">
<g id="#8510e8ff">
<path fill="#8510e8" opacity="1.00" d=" M 82.17 0.00 L 92.77 0.00 C 87.03 9.48 81.30 18.97 75.63 28.49 C 72.50 33.94 66.39 37.59 60.08 37.59 C 57.76 37.79 55.32 37.36 53.10 38.18 C 50.17 39.38 50.48 44.36 53.65 45.01 C 62.22 46.19 71.63 44.19 78.06 38.13 C 82.28 34.36 84.50 29.04 87.51 24.38 C 92.53 16.29 97.23 8.01 102.35 0.00 L 113.01 0.00 C 111.19 2.90 109.04 5.70 107.97 8.98 C 107.34 11.62 110.06 12.77 112.01 13.52 C 113.37 12.77 115.05 12.32 115.77 10.80 C 118.01 7.24 120.07 3.57 122.29 0.00 L 124.62 0.00 C 128.23 0.42 131.83 1.27 135.07 2.95 C 133.26 5.71 131.45 8.48 129.67 11.26 C 128.05 13.73 126.46 16.21 124.80 18.65 C 122.92 21.41 121.07 24.19 119.30 27.02 C 117.71 29.53 116.12 32.04 114.42 34.47 C 112.47 37.21 110.65 40.04 108.91 42.92 C 102.37 53.04 95.60 63.01 89.17 73.21 C 59.46 73.65 29.72 73.22 0.00 73.31 L 0.00 72.37 C 0.43 68.91 1.55 65.58 3.14 62.48 C 25.46 62.25 47.77 61.86 70.08 61.42 C 78.21 61.22 86.52 57.87 91.38 51.13 C 96.22 44.21 100.21 36.74 104.65 29.57 C 105.90 27.44 107.31 25.36 108.04 22.97 C 107.82 19.19 102.05 17.82 100.23 21.11 C 94.98 29.31 90.38 37.93 84.99 46.04 C 81.54 51.36 75.18 53.77 69.03 53.75 C 48.81 54.07 28.59 54.38 8.37 54.79 C 10.23 51.84 12.19 48.94 14.05 45.99 C 23.00 45.72 31.97 45.89 40.91 45.35 C 44.81 44.94 44.86 38.76 40.94 38.27 C 33.68 37.93 26.39 38.36 19.11 38.24 C 21.02 35.41 22.91 32.56 24.74 29.68 C 32.83 29.57 40.93 29.44 49.02 29.25 C 56.35 29.04 63.85 26.40 68.84 20.85 C 74.17 14.52 77.63 6.88 82.17 0.00 Z" />
</g>
<g id="#4391eeff">
<path fill="#4391ee" opacity="1.00" d=" M 135.07 2.95 C 138.56 4.97 141.75 7.62 143.82 11.13 C 154.42 28.26 165.06 45.37 175.66 62.49 C 177.02 64.61 177.75 67.05 178.00 69.54 L 178.00 75.18 C 177.76 78.53 176.35 81.63 174.48 84.38 C 163.43 101.31 152.40 118.26 141.34 135.19 C 139.18 138.54 136.05 141.18 132.51 142.97 C 130.80 140.10 129.01 137.28 127.26 134.44 C 137.04 119.24 146.79 104.03 156.59 88.85 C 159.94 83.79 163.63 78.35 163.43 72.00 C 163.82 66.15 160.73 60.95 157.77 56.17 C 153.53 49.40 149.39 42.56 144.98 35.90 C 143.36 33.10 138.11 33.59 137.47 36.93 C 136.92 38.51 138.12 39.92 138.78 41.23 C 142.92 47.78 146.90 54.43 151.13 60.93 C 152.78 63.72 154.37 66.66 154.96 69.89 C 155.61 73.63 154.11 77.29 152.26 80.46 C 142.40 95.95 132.26 111.26 122.53 126.83 C 120.71 123.91 118.87 121.02 117.07 118.09 C 121.32 111.64 125.68 105.22 129.49 98.51 C 130.83 94.66 124.60 92.20 122.35 95.32 C 118.77 100.21 115.77 105.51 112.41 110.56 C 110.58 107.68 108.77 104.78 106.98 101.87 C 111.04 95.58 115.15 89.32 119.12 82.98 C 122.81 76.87 123.74 69.09 120.63 62.53 C 117.34 55.65 112.68 49.54 108.91 42.92 C 110.65 40.04 112.47 37.21 114.42 34.47 C 120.17 44.06 126.19 53.49 132.05 63.01 C 134.56 66.81 135.27 71.72 133.88 76.07 C 132.74 79.29 130.38 81.89 129.12 85.05 C 128.67 88.68 133.81 90.52 136.18 88.06 C 142.70 80.83 145.04 69.55 140.17 60.81 C 133.27 49.51 126.18 38.33 119.30 27.02 C 121.07 24.19 122.92 21.41 124.80 18.65 C 126.67 21.37 128.03 24.45 130.23 26.94 C 132.53 29.34 137.69 27.55 137.17 23.96 C 135.22 19.44 132.07 15.55 129.67 11.26 C 131.45 8.48 133.26 5.71 135.07 2.95 Z" />
</g>
<g id="#cf21a1ff">
<path fill="#cf21a1" opacity="1.00" d=" M 0.00 73.31 C 29.72 73.22 59.46 73.65 89.17 73.21 C 95.19 82.71 101.12 92.27 106.98 101.87 C 108.77 104.78 110.58 107.68 112.41 110.56 C 113.99 113.05 115.57 115.55 117.07 118.09 C 118.87 121.02 120.71 123.91 122.53 126.83 C 124.11 129.36 125.70 131.89 127.26 134.44 C 129.01 137.28 130.80 140.10 132.51 142.97 C 128.80 145.11 124.51 145.96 120.26 145.71 C 117.60 141.43 115.23 136.92 112.14 132.93 C 109.70 130.04 104.30 132.85 105.50 136.52 C 106.84 139.84 109.23 142.61 110.90 145.77 C 106.45 145.79 101.99 145.80 97.54 145.92 C 91.02 135.57 84.60 125.16 78.17 114.75 C 73.33 106.89 64.11 102.34 54.99 102.41 C 52.38 102.57 48.98 101.69 47.17 104.14 C 45.63 105.98 46.84 109.18 49.15 109.64 C 52.35 110.34 55.66 109.88 58.89 110.37 C 63.92 111.32 68.51 114.43 71.18 118.83 C 76.77 127.81 82.30 136.85 87.94 145.81 C 84.32 145.89 80.70 145.93 77.08 145.78 C 73.23 139.69 69.89 133.24 65.39 127.59 C 60.82 122.19 53.95 119.15 46.94 118.76 C 39.38 118.37 31.81 118.62 24.24 118.47 C 22.48 115.56 20.59 112.72 18.99 109.72 C 25.05 109.55 31.15 110.16 37.17 109.48 C 40.55 108.10 39.62 102.44 35.94 102.46 C 28.68 102.19 21.41 102.37 14.14 102.27 C 12.44 99.35 10.66 96.47 8.79 93.66 C 27.87 93.71 46.94 93.82 66.02 93.98 C 71.99 93.96 77.73 97.02 80.97 102.05 C 86.10 109.96 90.86 118.13 95.97 126.06 C 97.77 129.35 103.93 128.02 103.62 123.99 C 102.98 121.67 101.58 119.66 100.33 117.64 C 95.81 110.50 91.69 103.09 86.80 96.20 C 81.78 89.38 73.23 86.23 64.98 86.12 C 44.70 85.98 24.41 85.97 4.12 85.95 C 1.84 82.90 0.62 79.26 0.00 75.54 L 0.00 73.31 Z" />
</g>
</svg>