<?xml version="1.0" encoding="utf-8"?>
<!-- Generator: Adobe Illustrator 21.0.2, SVG Export Plug-In . SVG Version: 6.00 Build 0)  -->
<svg version="1.1" xmlns="http://www.w3.org/2000/svg" xmlns:xlink="http://www.w3.org/1999/xlink" x="0px" y="0px"
	 viewBox="0 0 24 24" style="enable-background:new 0 0 24 24;" xml:space="preserve">
<style type="text/css">
	.st0{display:none;fill:#4CAF50;}
	.st1{fill:#263238;}
	.st2{fill:#FFFFFF;}
</style>
<g id="レイヤー_1">
	<path class="st0" d="M5,3C3.9,3,3,3.9,3,5v14c0,1.1,0.9,2,2,2h14c1.1,0,2-0.9,2-2V5c0-1.1-0.9-2-2-2H5z M8.7,6.4
		c0.3,0,0.5,0.1,0.7,0.3s0.3,0.4,0.3,0.6c0,0.3,0,0.9,0,1.5c0,0.7,0,1.2,0,1.5c0,0.1,0,0.3,0,0.6c0,0.3,0,0.5,0,0.7l2.6-0.5
		c1-0.2,1.9-0.3,2.6-0.3c0-0.3,0-1.1,0.1-2.4c0-0.3,0.1-0.7,0.3-1.2c0.3-0.6,0.5-0.8,0.9-0.8c0.2,0,0.4,0.1,0.6,0.2
		c0.2,0.2,0.3,0.4,0.3,0.6c0,0.1,0,0.1,0,0.2c-0.1,0.3-0.1,0.6-0.1,0.9c0,0.1,0,0.3,0,0.6c0,0.3,0,0.5,0,0.6c0,0.4,0,1.1-0.1,1.9
		c0,0.8-0.1,1.5-0.1,1.9c0,0.3,0,0.8,0.1,1.5c0,0.6,0.1,1.1,0.1,1.5c0,0.2-0.1,0.5-0.3,0.6c-0.2,0.2-0.4,0.3-0.7,0.3
		c-0.3,0-0.5-0.1-0.7-0.3c-0.2-0.2-0.3-0.4-0.3-0.6c0-0.3,0-0.8,0-1.5c0-0.7,0-1.1,0-1.5c0-0.3,0-0.5,0-0.7c-0.7,0-1.6,0.1-2.6,0.3
		c-0.9,0.2-1.7,0.3-2.6,0.5c0,0.3,0,0.8-0.1,1.5c0,0.6-0.1,1.1-0.1,1.5c0,0.2-0.1,0.5-0.3,0.6c-0.2,0.2-0.4,0.3-0.7,0.3
		s-0.5-0.1-0.7-0.3c-0.2-0.2-0.3-0.4-0.3-0.6c0-0.5,0-1.1,0.1-2c0.1-0.9,0.1-1.6,0.1-2c0-0.6,0-1.4,0-2.6c0-1.2,0-2,0-2.6
		c0-0.2,0.1-0.5,0.3-0.6C8.2,6.5,8.4,6.4,8.7,6.4L8.7,6.4z"/>
	<circle class="st1" cx="12" cy="12" r="12"/>
	
		<image style="display:none;overflow:visible;opacity:0.39;" width="1024" height="1024" xlink:href="../../../Downloads/processingのコピー.png"  transform="matrix(2.000966e-02 0 0 2.000966e-02 1.7551 1.7551)">
	</image>
</g>
<g id="レイヤー_2">
	<path class="st2" d="M6.7,8.6c0.7,0,1.4,0,2.1,0c0.8,0,1.5,0,2.3,0c0,3.7,0,7.4,0,11.1c0.7,0.1,1.4,0.2,2.1,0.3c0,0.4,0,0.8,0,1.2
		c-2.1,0-4.3,0-6.4,0c0-0.4,0-0.8,0-1.3c0.7-0.1,1.4-0.2,2.1-0.3c0-3.2,0-6.4,0-9.6c-0.3,0-0.7,0-1.1-0.1c-0.4-0.1-0.7-0.1-1-0.2
		C6.8,9.4,6.7,9,6.7,8.6z"/>
	<path class="st2" d="M11.3,5.7c0-0.9,0-1.9,0-2.8c0.4-0.1,0.9-0.3,1.5-0.4c0.5-0.1,1.3-0.2,2.2-0.1c0.5,0.1,1.1,0.2,1.7,0.6
		c0.2,0.2,0.7,0.6,1,1.3c0.5,1.1,0.1,2.2-0.1,2.6c-0.6,1.4-2,1.9-2.2,2C15.8,9,16.4,9.1,17,9.6c1.1,0.9,1.2,2.1,1.3,2.4
		c0.2,1.7-1.1,2.9-1.3,3.2c-0.8,0.8-1.6,1-2.1,1.2c-0.8,0.3-1.6,0.3-2.1,0.3c0-0.5,0-1,0-1.6c0.2,0,0.5,0,0.9,0
		c0.4-0.1,1.1-0.2,1.8-0.7c0.2-0.2,0.8-0.7,0.8-1.7c0-0.2,0.1-1.1-0.6-1.8c-0.4-0.4-0.8-0.5-1.4-0.7c-0.6-0.2-1.2-0.2-1.5-0.2
		c0-0.5,0-0.9,0-1.4c0.3,0,0.7-0.1,1.2-0.3c0.5-0.2,1-0.3,1.4-0.8c0.2-0.2,0.8-0.9,0.7-1.9c0-0.2-0.1-0.8-0.6-1.2
		c-0.5-0.5-1.2-0.5-1.6-0.5c-0.6,0-1.1,0.2-1.3,0.3c-0.1,0.5-0.1,1.1-0.2,1.6C12.1,5.7,11.7,5.7,11.3,5.7z"/>
</g>
</svg>
