<?xml version="1.0" encoding="utf-8"?>
<svg xmlns="http://www.w3.org/2000/svg" xmlns:xlink="http://www.w3.org/1999/xlink" viewBox="0 0 32 32">
<path d="M22.7,10.415c-.293-.94-.645-2.788.634-3.86a3.729,3.729,0,0,0-3.844,1.534A9.165,9.165,0,0,0,12,8.1,3.729,3.729,0,0,0,8.152,6.555c1.309,1.1.91,3.005.614,3.923A10.517,10.517,0,0,0,6.1,17.524c0,2.174,1.4,4.645,1.675,7.955l1.768-1.532a11.743,11.743,0,0,0,6.212,1.433,11.741,11.741,0,0,0,6.212-1.433l1.769,1.532c.28-3.31,1.675-5.781,1.675-7.955A10.512,10.512,0,0,0,22.7,10.415Z" style="fill:#B71C1C"/>
<path d="M10.722,27.867a1.621,1.621,0,1,1,3.24,0c0,.018,0,.035,0,.053a2.234,2.234,0,1,0-3.228.126C10.725,27.987,10.722,27.927,10.722,27.867Z" style="fill:#B71C1C"/>
<path d="M20.629,27.867a1.621,1.621,0,1,0-3.24,0c0,.018,0,.035,0,.053a2.234,2.234,0,1,1,3.228.126A1.678,1.678,0,0,0,20.629,27.867Z" style="fill:#B71C1C"/>
<circle cx="11.339" cy="14.074" r="3.816" style="fill:#FFEBEE"/>
<circle cx="20.112" cy="14.074" r="3.816" style="fill:#FFEBEE"/>
</svg>
