<svg width="661" height="526" viewBox="0 0 661 526" fill="none" xmlns="http://www.w3.org/2000/svg">
<path d="M46.3497 243.035L104.557 145.927L295.524 466.486L157.239 466.992L46.3497 281.988C37.1547 265.736 37.6471 257.263 46.3497 243.035Z" fill="#FEFDE5"/>
<path d="M46.2682 281.845L104.475 378.953L295.443 58.3939L157.158 57.8877L46.2682 242.892C37.0731 259.144 37.5655 267.617 46.2682 281.845Z" fill="#FEFDE5"/>
<path d="M614.65 243.822L556.443 146.715L365.476 467.274L503.761 467.78L614.65 282.776C623.845 266.524 623.353 258.05 614.65 243.822Z" fill="#FEFDE5"/>
<path d="M614.732 282.633L556.525 379.741L365.557 59.182L503.842 58.6758L614.732 243.68C623.927 259.932 623.434 268.405 614.732 282.633Z" fill="#FEFDE5"/>
</svg>
