<svg width="800" height="800" viewBox="0 0 800 800" fill="none" xmlns="http://www.w3.org/2000/svg">
<g clip-path="url(#clip0)">
<path d="M633.333 666.667H133.333C115.652 666.667 98.6951 659.643 86.1927 647.14C73.6903 634.638 66.6665 617.681 66.6665 600V200C66.6665 163 96.3332 133.333 133.333 133.333H333.333L400 200H633.333C669.9 200 700 230.1 700 266.667H133.333V600L204.666 333.333H773.666L697.666 616.667C690 645.667 664 666.667 633.333 666.667Z" fill="#E9852A"/>
<path d="M223.35 468.925L281.557 371.818L472.524 692.376L334.239 692.883L223.35 507.879C214.155 491.626 214.647 483.153 223.35 468.925Z" fill="#FEFDE5"/>
<path d="M223.268 507.736L281.475 604.843L472.443 284.284L334.158 283.778L223.268 468.782C214.073 485.034 214.566 493.508 223.268 507.736Z" fill="#FEFDE5"/>
<path d="M791.65 469.713L733.443 372.605L542.476 693.164L680.761 693.67L791.65 508.667C800.845 492.414 800.353 483.941 791.65 469.713Z" fill="#FEFDE5"/>
<path d="M791.732 508.524L733.525 605.631L542.557 285.072L680.842 284.566L791.732 469.57C800.927 485.822 800.434 494.296 791.732 508.524Z" fill="#FEFDE5"/>
</g>
<defs>
<clipPath id="clip0">
<rect width="800" height="800" fill="white"/>
</clipPath>
</defs>
</svg>
