<?xml version="1.0" encoding="UTF-8"?>
<svg width="80" height="80" version="1.1" viewBox="0 0 80 80" xml:space="preserve" xmlns="http://www.w3.org/2000/svg"><defs><clipPath id="clipPath4526"><rect transform="scale(1,-1)" x="-2.9833" y="-69.251" width="69.412" height="67.108" fill="#564b55"/></clipPath></defs><g transform="matrix(1.1304 0 0 -1.1304 5.7143 82.137)" clip-path="url(#clipPath4526)"><g transform="scale(.1)"><g fill="#100f0d"><path d="m1180.5 92.324c-5.53 0-9.93-1.7969-13.23-5.3906-3.29-3.6133-5.22-8.5938-5.81-14.969h36.02c0 6.5821-1.47 11.621-4.4 15.125-2.93 3.4961-7.12 5.2344-12.58 5.2344zm2.84-62.656c-10.19 0-18.22 3.0859-24.11 9.2968-5.88 6.211-8.83 14.824-8.83 25.84 0 11.102 2.73 19.922 8.21 26.465 5.45 6.5235 12.81 9.8045 22.02 9.8045 8.63 0 15.46-2.8513 20.48-8.5232 5.03-5.6758 7.55-13.156 7.55-22.461v-6.6132h-47.45c0.21-8.086 2.26-14.219 6.12-18.418 3.89-4.1797 9.34-6.2891 16.38-6.2891 7.42 0 14.76 1.5625 22 4.668v-9.2969c-3.68-1.6015-7.18-2.7461-10.48-3.4375-3.28-0.6836-7.24-1.0351-11.89-1.0351"/><path d="m1272.3 30.918v44.57c0 5.6055-1.28 9.8047-3.82 12.559-2.56 2.7734-6.56 4.1601-12.02 4.1601-7.2 0-12.49-1.9531-15.84-5.8515-3.34-3.8946-5.03-10.32-5.03-19.285v-36.152h-10.42v68.887h8.47l1.71-9.4219h0.5c2.14 3.3867 5.14 6.0235 8.99 7.8867 3.85 1.8675 8.15 2.8045 12.88 2.8045 8.29 0 14.54-2.0115 18.73-6.0154 4.19-3.9844 6.28-10.391 6.28-19.191v-44.949h-10.43"/><path d="m1329 38.406c7.1 0 12.27 1.9375 15.48 5.8125 3.22 3.8789 4.81 10.129 4.81 18.758v2.1992c0 9.7656-1.62 16.726-4.87 20.898-3.25 4.1797-8.44 6.25-15.56 6.25-6.11 0-10.79-2.3828-14.04-7.1289-3.26-4.7461-4.88-11.473-4.88-20.137 0-8.7969 1.61-15.449 4.84-19.93 3.23-4.4844 7.97-6.7226 14.22-6.7226zm20.85 1.7617h-0.56c-4.83-7.0039-12.02-10.5-21.62-10.5-9.01 0-16.03 3.0664-21.04 9.2383-5 6.1523-7.5 14.922-7.5 26.27 0 11.356 2.51 20.176 7.54 26.465 5.03 6.2891 12.03 9.4334 21 9.4334 9.34 0 16.5-3.3982 21.49-10.195h0.81l-0.43 4.9609-0.25 4.8442v28.039h10.43v-97.805h-8.49l-1.38 9.25"/><path d="m1434.9 38.27c1.85 0 3.63 0.1368 5.34 0.4219 1.72 0.2734 3.09 0.5469 4.1 0.8399v-7.9766c-1.15-0.5586-2.81-0.9961-5.01-1.3594-2.18-0.3515-4.17-0.5273-5.94-0.5273-13.32 0-19.97 7.0117-19.97 21.055v40.988h-9.88v5.0274l9.88 4.3357 4.38 14.707h6.04v-15.976h20v-8.0938h-20v-40.551c0-4.1485 0.98-7.3321 2.96-9.5586 1.97-2.2071 4.67-3.3321 8.1-3.3321"/><path d="m1463.8 65.43c0-8.8086 1.76-15.508 5.27-20.117 3.53-4.6094 8.69-6.9062 15.53-6.9062s12.01 2.2968 15.56 6.875c3.53 4.6015 5.3 11.301 5.3 20.148 0 8.75-1.77 15.41-5.3 19.953-3.55 4.5391-8.77 6.8242-15.69 6.8242-6.82 0-11.99-2.2461-15.47-6.7304-3.46-4.4805-5.2-11.16-5.2-20.047zm52.47 0c0-11.23-2.83-20-8.48-26.309-5.66-6.3086-13.47-9.4531-23.44-9.4531-6.17 0-11.64 1.4453-16.42 4.3359s-8.46 7.0313-11.06 12.449c-2.59 5.4024-3.88 11.73-3.88 18.977 0 11.23 2.8 19.969 8.41 26.242 5.61 6.2578 13.4 9.4021 23.38 9.4021 9.64 0 17.3-3.2224 22.97-9.6209 5.69-6.414 8.52-15.086 8.52-26.023"/><path d="m1591.7 92.324c-5.54 0-9.94-1.7969-13.23-5.3906-3.3-3.6133-5.24-8.5938-5.81-14.969h36c0 6.5821-1.46 11.621-4.39 15.125-2.93 3.4961-7.13 5.2344-12.57 5.2344zm2.83-62.656c-10.19 0-18.22 3.0859-24.11 9.2968-5.89 6.211-8.83 14.824-8.83 25.84 0 11.102 2.74 19.922 8.2 26.465 5.46 6.5235 12.81 9.8045 22.04 9.8045 8.62 0 15.45-2.8513 20.48-8.5232 5.03-5.6758 7.54-13.156 7.54-22.461v-6.6132h-47.45c0.21-8.086 2.25-14.219 6.13-18.418 3.87-4.1797 9.33-6.2891 16.36-6.2891 7.43 0 14.77 1.5625 22.01 4.668v-9.2969c-3.69-1.6015-7.17-2.7461-10.46-3.4375-3.3-0.6836-7.27-1.0351-11.91-1.0351"/><path d="m1683.5 30.918v44.57c0 5.6055-1.27 9.8047-3.83 12.559-2.55 2.7734-6.55 4.1601-12.01 4.1601-7.2 0-12.48-1.9531-15.83-5.8515-3.35-3.8946-5.03-10.32-5.03-19.285v-36.152h-10.43v68.887h8.48l1.69-9.4219h0.51c2.14 3.3867 5.14 6.0235 8.99 7.8867 3.84 1.8675 8.15 2.8045 12.88 2.8045 8.3 0 14.54-2.0115 18.74-6.0154 4.19-3.9844 6.29-10.391 6.29-19.191v-44.949h-10.45"/><path d="m1740.1 38.406c7.12 0 12.28 1.9375 15.49 5.8125 3.21 3.8789 4.81 10.129 4.81 18.758v2.1992c0 9.7656-1.62 16.726-4.87 20.898-3.25 4.1797-8.43 6.25-15.56 6.25-6.12 0-10.8-2.3828-14.05-7.1289-3.24-4.7461-4.88-11.473-4.88-20.137 0-8.7969 1.64-15.449 4.85-19.93 3.22-4.4844 7.96-6.7226 14.21-6.7226zm20.87 1.7617h-0.57c-4.82-7.0039-12.03-10.5-21.62-10.5-9.01 0-16.02 3.0664-21.03 9.2383-5 6.1523-7.52 14.922-7.52 26.27 0 11.356 2.52 20.176 7.55 26.465 5.02 6.2891 12.02 9.4334 21 9.4334 9.34 0 16.5-3.3982 21.48-10.195h0.83l-0.44 4.9609-0.25 4.8442v28.039h10.43v-97.805h-8.49l-1.37 9.25"/><path d="m1846.1 38.27c1.85 0 3.64 0.1368 5.36 0.4219 1.7 0.2734 3.07 0.5469 4.08 0.8399v-7.9766c-1.13-0.5586-2.8-0.9961-5-1.3594-2.2-0.3515-4.18-0.5273-5.94-0.5273-13.33 0-19.99 7.0117-19.99 21.055v40.988h-9.86v5.0274l9.86 4.3357 4.4 14.707h6.04v-15.976h19.98v-8.0938h-19.98v-40.551c0-4.1485 0.98-7.3321 2.95-9.5586 1.97-2.2071 4.68-3.3321 8.1-3.3321"/><path d="m1894.3 92.324c-5.53 0-9.94-1.7969-13.22-5.3906-3.31-3.6133-5.25-8.5938-5.83-14.969h36.01c0 6.5821-1.45 11.621-4.38 15.125-2.95 3.4961-7.13 5.2344-12.58 5.2344zm2.83-62.656c-10.19 0-18.22 3.0859-24.1 9.2968-5.9 6.211-8.84 14.824-8.84 25.84 0 11.102 2.73 19.922 8.2 26.465 5.47 6.5235 12.81 9.8045 22.03 9.8045 8.63 0 15.46-2.8513 20.49-8.5232 5.03-5.6758 7.55-13.156 7.55-22.461v-6.6132h-47.46c0.22-8.086 2.26-14.219 6.13-18.418 3.87-4.1797 9.33-6.2891 16.37-6.2891 7.42 0 14.75 1.5625 22 4.668v-9.2969c-3.7-1.6015-7.17-2.7461-10.47-3.4375-3.28-0.6836-7.25-1.0351-11.9-1.0351"/><path d="m1983.4 49.727c0-6.4258-2.4-11.367-7.18-14.844-4.77-3.4765-11.47-5.2148-20.11-5.2148-9.13 0-16.26 1.4453-21.37 4.3359v9.6875c3.32-1.6797 6.86-3.0078 10.65-3.9648 3.79-0.9766 7.45-1.4571 10.97-1.4571 5.46 0 9.64 0.8711 12.57 2.6094 2.95 1.7383 4.41 4.3945 4.41 7.9492 0 2.6953-1.17 4.9805-3.5 6.8946-2.32 1.914-6.85 4.1523-13.6 6.7578-6.41 2.3828-10.97 4.4726-13.67 6.25-2.71 1.7773-4.72 3.8086-6.04 6.0664-1.31 2.2539-1.98 4.9609-1.98 8.1133 0 5.6054 2.29 10.039 6.86 13.281 4.57 3.25 10.84 4.8826 18.79 4.8826 7.42 0 14.66-1.5154 21.74-4.531l-3.71-8.4961c-6.9 2.8515-13.17 4.2773-18.79 4.2773-4.94 0-8.67-0.7695-11.18-2.3242-2.52-1.543-3.78-3.6914-3.78-6.4062 0-1.8438 0.48-3.418 1.42-4.7071 0.95-1.3086 2.46-2.539 4.56-3.7109 2.09-1.1836 6.11-2.8711 12.07-5.086 8.16-2.9804 13.69-5.9804 16.55-8.996 2.87-3.0196 4.32-6.8086 4.32-11.367"/><path d="m2021.3 38.27c1.85 0 3.64 0.1368 5.35 0.4219 1.71 0.2734 3.09 0.5469 4.09 0.8399v-7.9766c-1.14-0.5586-2.81-0.9961-5.01-1.3594-2.18-0.3515-4.18-0.5273-5.93-0.5273-13.33 0-19.99 7.0117-19.99 21.055v40.988h-9.87v5.0274l9.87 4.3357 4.4 14.707h6.02v-15.976h20v-8.0938h-20v-40.551c0-4.1485 1-7.3321 2.97-9.5586 1.98-2.2071 4.67-3.3321 8.1-3.3321"/><path d="m2053.6 30.918h-10.42v68.887h10.42zm-11.31 87.559c0 2.39 0.59 4.14 1.76 5.253 1.18 1.106 2.65 1.661 4.42 1.661 1.67 0 3.1-0.567 4.32-1.7 1.22-1.132 1.82-2.871 1.82-5.214 0-2.344-0.6-4.09-1.82-5.247-1.22-1.16-2.65-1.726-4.32-1.726-1.77 0-3.24 0.566-4.42 1.726-1.17 1.157-1.76 2.903-1.76 5.247"/><path d="m2121.6 30.918v44.57c0 5.6055-1.27 9.8047-3.83 12.559-2.55 2.7734-6.55 4.1601-12 4.1601-7.21 0-12.49-1.9531-15.84-5.8515-3.35-3.8946-5.03-10.32-5.03-19.285v-36.152h-10.43v68.887h8.49l1.69-9.4219h0.5c2.15 3.3867 5.14 6.0235 8.99 7.8867 3.85 1.8675 8.16 2.8045 12.88 2.8045 8.3 0 14.54-2.0115 18.74-6.0154 4.19-3.9844 6.29-10.391 6.29-19.191v-44.949h-10.45"/><path d="m2159.3 77.742c0-4.8125 1.35-8.4649 4.08-10.926 2.72-2.4805 6.51-3.7109 11.37-3.7109 10.19 0 15.28 4.9531 15.28 14.832 0 10.344-5.16 15.531-15.47 15.531-4.9 0-8.67-1.3204-11.31-3.9649-2.63-2.6484-3.95-6.5547-3.95-11.762zm-5.67-58.387c0-3.7305 1.58-6.5508 4.72-8.4883 3.14-1.9219 7.65-2.8789 13.52-2.8789 8.75 0 15.24 1.3086 19.45 3.9258 4.21 2.6172 6.31 6.1718 6.31 10.652 0 3.7227-1.15 6.3203-3.45 7.7539-2.31 1.457-6.65 2.168-13.01 2.168h-12.51c-4.74 0-8.43-1.1211-11.06-3.3867-2.65-2.2657-3.97-5.5078-3.97-9.7461zm54.94 80.449v-6.582l-12.76-1.5118c1.18-1.4765 2.23-3.3906 3.15-5.7539 0.91-2.3711 1.37-5.039 1.37-8.0195 0-6.7461-2.29-12.129-6.91-16.152-4.61-4.0118-10.93-6.0235-18.98-6.0235-2.05 0-3.98 0.1563-5.78 0.5-4.45-2.3554-6.67-5.3047-6.67-8.8711 0-1.8828 0.77-3.2812 2.34-4.1758 1.54-0.9023 4.21-1.3593 7.97-1.3593h12.2c7.46 0 13.19-1.5742 17.19-4.7071 4-3.1445 6-7.7148 6-13.711 0-7.6172-3.06-13.426-9.17-17.43-6.13-4.0039-15.05-6.0078-26.79-6.0078-9 0-15.95 1.6797-20.82 5.0273-4.88 3.3516-7.34 8.0782-7.34 14.211 0 4.1797 1.35 7.8125 4.03 10.879 2.68 3.0469 6.45 5.1172 11.32 6.2109-1.77 0.8008-3.24 2.0313-4.44 3.711-1.19 1.6797-1.78 3.6328-1.78 5.8398 0 2.5195 0.66 4.707 2.01 6.6016 1.34 1.8828 3.44 3.7109 6.34 5.4687-3.56 1.4649-6.46 3.9531-8.71 7.4805-2.23 3.5156-3.35 7.5391-3.35 12.059 0 7.5508 2.26 13.371 6.79 17.453 4.52 4.082 10.93 6.1326 19.22 6.1326 3.6 0 6.86-0.429 9.75-1.2693h23.82"/><path d="m2284.6 91.711h-17.54v-60.793h-10.43v60.793h-12.31v4.7071l12.31 3.766v3.839c0 16.922 7.4 25.391 22.19 25.391 3.65 0 7.93-0.73 12.82-2.195l-2.7-8.364c-4.03 1.301-7.46 1.946-10.31 1.946-3.93 0-6.85-1.309-8.73-3.926-1.89-2.617-2.84-6.816-2.84-12.598v-4.4723h17.54v-8.0938"/><path d="m2302.9 65.43c0-8.8086 1.76-15.508 5.28-20.117s8.7-6.9062 15.52-6.9062c6.84 0 12.02 2.2968 15.57 6.875 3.54 4.6015 5.3 11.301 5.3 20.148 0 8.75-1.76 15.41-5.3 19.953-3.55 4.5391-8.78 6.8242-15.69 6.8242-6.83 0-11.99-2.2461-15.46-6.7304-3.48-4.4805-5.22-11.16-5.22-20.047zm52.48 0c0-11.23-2.82-20-8.47-26.309-5.67-6.3086-13.48-9.4531-23.46-9.4531-6.15 0-11.62 1.4453-16.4 4.3359-4.77 2.8906-8.47 7.0313-11.06 12.449-2.59 5.4024-3.9 11.73-3.9 18.977 0 11.23 2.81 19.969 8.43 26.242 5.6 6.2578 13.4 9.4021 23.38 9.4021 9.63 0 17.28-3.2224 22.97-9.6209 5.68-6.414 8.51-15.086 8.51-26.023"/><path d="m2403.8 101.07c3.07 0 5.8-0.254 8.22-0.761l-1.43-9.6763c-2.86 0.6328-5.37 0.9336-7.55 0.9336-5.58 0-10.33-2.2617-14.3-6.7851-3.95-4.5313-5.94-10.156-5.94-16.902v-36.965h-10.43v68.887h8.62l1.19-12.754h0.5c2.56 4.4805 5.63 7.9492 9.23 10.371 3.61 2.4219 7.56 3.6521 11.89 3.6521"/><path d="m2500.3 69.766-10.68 28.477c-1.39 3.5938-2.81 8.0278-4.28 13.262-0.93-4.024-2.24-8.438-3.96-13.262l-10.81-28.477zm14.77-38.848-11.44 29.226h-36.83l-11.32-29.226h-10.81l36.34 92.273h8.98l36.13-92.273h-11.05"/><path d="m2583.1 30.918v44.57c0 5.6055-1.27 9.8047-3.83 12.559-2.55 2.7734-6.55 4.1601-12 4.1601-7.21 0-12.49-1.9531-15.84-5.8515-3.35-3.8946-5.03-10.32-5.03-19.285v-36.152h-10.43v68.887h8.48l1.69-9.4219h0.51c2.14 3.3867 5.14 6.0235 8.99 7.8867 3.84 1.8675 8.15 2.8045 12.88 2.8045 8.3 0 14.54-2.0115 18.74-6.0154 4.19-3.9844 6.29-10.391 6.29-19.191v-44.949h-10.45"/><path d="m2620.8 77.742c0-4.8125 1.36-8.4649 4.08-10.926 2.73-2.4805 6.53-3.7109 11.37-3.7109 10.2 0 15.28 4.9531 15.28 14.832 0 10.344-5.15 15.531-15.45 15.531-4.91 0-8.68-1.3204-11.32-3.9649-2.64-2.6484-3.96-6.5547-3.96-11.762zm-5.66-58.387c0-3.7305 1.57-6.5508 4.71-8.4883 3.15-1.9219 7.65-2.8789 13.53-2.8789 8.75 0 15.23 1.3086 19.44 3.9258 4.21 2.6172 6.31 6.1718 6.31 10.652 0 3.7227-1.14 6.3203-3.45 7.7539-2.31 1.457-6.64 2.168-13 2.168h-12.51c-4.74 0-8.43-1.1211-11.07-3.3867-2.63-2.2657-3.96-5.5078-3.96-9.7461zm54.94 80.449v-6.582l-12.76-1.5118c1.18-1.4765 2.22-3.3906 3.14-5.7539 0.92-2.3711 1.38-5.039 1.38-8.0195 0-6.7461-2.3-12.129-6.92-16.152-4.61-4.0118-10.92-6.0235-18.97-6.0235-2.05 0-3.99 0.1563-5.78 0.5-4.46-2.3554-6.67-5.3047-6.67-8.8711 0-1.8828 0.78-3.2812 2.33-4.1758 1.55-0.9023 4.21-1.3593 7.98-1.3593h12.2c7.46 0 13.18-1.5742 17.18-4.7071 4.01-3.1445 6-7.7148 6-13.711 0-7.6172-3.06-13.426-9.17-17.43-6.11-4.0039-15.04-6.0078-26.78-6.0078-9 0-15.95 1.6797-20.83 5.0273-4.88 3.3516-7.33 8.0782-7.33 14.211 0 4.1797 1.35 7.8125 4.02 10.879 2.69 3.0469 6.47 5.1172 11.32 6.2109-1.77 0.8008-3.23 2.0313-4.43 3.711-1.19 1.6797-1.79 3.6328-1.79 5.8398 0 2.5195 0.66 4.707 2.01 6.6016 1.35 1.8828 3.45 3.7109 6.35 5.4687-3.56 1.4649-6.47 3.9531-8.71 7.4805-2.23 3.5156-3.35 7.5391-3.35 12.059 0 7.5508 2.25 13.371 6.79 17.453 4.52 4.082 10.92 6.1326 19.21 6.1326 3.62 0 6.86-0.429 9.75-1.2693h23.83"/><path d="m2692.7 99.805v-44.688c0-5.6055 1.27-9.8047 3.83-12.566 2.56-2.7656 6.57-4.1445 12.01-4.1445 7.2 0 12.47 1.9648 15.81 5.9023 3.33 3.9453 4.99 10.379 4.99 19.305v36.191h10.44v-68.887h-8.62l-1.5 9.25h-0.58c-2.13-3.4102-5.1-5.9883-8.88-7.793-3.8-1.8086-8.13-2.707-12.99-2.707-8.37 0-14.65 1.9922-18.81 5.9765-4.18 3.9649-6.26 10.352-6.26 19.102v45.059h10.56"/><path d="m2760.6 30.918h10.43v97.805h-10.43z"/><path d="m2810.7 38.27c6.5 0 11.6 1.7891 15.31 5.3438 3.71 3.5742 5.56 8.5547 5.56 14.961v6.2305l-10.44-0.4492c-8.3-0.2852-14.27-1.5821-17.94-3.8672-3.66-2.2735-5.5-5.8203-5.5-10.644 0-3.7813 1.14-6.6407 3.42-8.6133 2.29-1.9727 5.48-2.961 9.59-2.961zm23.57-7.3515-2.07 9.8047h-0.51c-3.44-4.3047-6.86-7.2266-10.27-8.7696-3.42-1.5234-7.68-2.2851-12.8-2.2851-6.83 0-12.17 1.7578-16.05 5.2734-3.87 3.5274-5.81 8.5352-5.81 15.031 0 13.906 11.12 21.199 33.37 21.875l11.7 0.3593v4.2774c0 5.4179-1.17 9.3945-3.5 11.984-2.32 2.5664-6.03 3.8554-11.15 3.8554-5.74 0-12.24-1.7578-19.49-5.2734l-3.21 7.9883c3.4 1.8359 7.11 3.2812 11.16 4.3242 4.04 1.0587 8.1 1.5747 12.16 1.5747 8.23 0 14.3-1.8169 18.27-5.4614 3.96-3.6602 5.93-9.5 5.93-17.539v-47.02h-7.73"/><path d="m2893.6 101.07c3.07 0 5.8-0.254 8.25-0.761l-1.46-9.6763c-2.84 0.6328-5.35 0.9336-7.54 0.9336-5.56 0-10.33-2.2617-14.3-6.7851-3.96-4.5313-5.93-10.156-5.93-16.902v-36.965h-10.44v68.887h8.61l1.19-12.754h0.5c2.57 4.4805 5.65 7.9492 9.25 10.371s7.56 3.6521 11.87 3.6521"/><path d="m2901.6 6.7266c-3.94 0-7.04 0.5586-9.31 1.6914v9.1211c2.97-0.8399 6.08-1.25 9.31-1.25 4.14 0 7.3 1.25 9.45 3.7695 2.16 2.5078 3.24 6.1328 3.24 10.859v91.895h10.69v-91.016c0-7.9492-2.01-14.121-6.04-18.496-4.02-4.3828-9.8-6.5742-17.34-6.5742"/><path d="m3e3 55.371c0-8.0859-2.93-14.394-8.8-18.918-5.87-4.5195-13.83-6.7851-23.88-6.7851-10.9 0-19.27 1.4062-25.14 4.2187v10.301c3.77-1.5898 7.88-2.8477 12.31-3.7656 4.45-0.9297 8.85-1.3985 13.21-1.3985 7.12 0 12.49 1.3594 16.09 4.0625 3.59 2.6954 5.4 6.4649 5.4 11.277 0 3.1953-0.63 5.8047-1.91 7.832-1.29 2.0235-3.42 3.9063-6.42 5.625-2.99 1.711-7.56 3.6641-13.67 5.8399-8.55 3.0586-14.66 6.6914-18.32 10.871-3.66 4.1992-5.51 9.6679-5.51 16.407 0 7.089 2.68 12.714 7.99 16.914 5.32 4.191 12.36 6.289 21.12 6.289 9.13 0 17.54-1.68 25.2-5.032l-3.32-9.304c-7.59 3.183-14.96 4.785-22.13 4.785-5.66 0-10.07-1.223-13.26-3.652-3.19-2.43-4.78-5.809-4.78-10.118 0-3.1911 0.59-5.8005 1.76-7.8317 1.17-2.0313 3.14-3.8867 5.95-5.5977 2.78-1.6875 7.04-3.5625 12.79-5.625 9.63-3.4258 16.26-7.1172 19.89-11.062 3.62-3.9375 5.43-9.0429 5.43-15.332"/><path d="m741.65 375.41h30c28.965 0 50.227 5.039 63.774 15.117 13.531 10.079 20.32 25.821 20.32 47.247 0 19.832-6.074 34.628-18.191 44.402-12.141 9.758-31.028 14.641-56.692 14.641h-39.211zm172.19 64.246c0-36.062-11.809-63.691-35.434-82.898-23.621-19.219-57.234-28.82-100.85-28.82h-35.911v-129.2h-56.445v345.33h99.438c43.14 0 75.457-8.829 96.961-26.465 21.496-17.637 32.238-43.614 32.238-77.942"/><path d="m1099.3 464.69c11.17 0 20.39-0.789 27.63-2.371l-5.43-51.718c-7.88 1.894-16.07 2.832-24.57 2.832-22.2 0-40.19-7.246-53.97-21.731-13.78-14.48-20.66-33.301-20.66-56.453v-136.52h-55.514v261.23h43.464l7.32-46.055h2.83c8.66 15.594 19.96 27.95 33.9 37.09 13.93 9.141 28.93 13.699 45 13.699"/><path d="m1206.9 329.82c0-60.308 22.28-90.465 66.85-90.465 44.08 0 66.13 30.157 66.13 90.465 0 59.688-22.21 89.512-66.61 89.512-23.31 0-40.2-7.707-50.67-23.144-10.47-15.43-15.7-37.54-15.7-66.368zm190.13 0c0-42.672-10.95-75.972-32.83-99.898-21.89-23.945-52.35-35.918-91.41-35.918-24.41 0-45.97 5.508-64.7 16.543-18.75 11.016-33.16 26.836-43.23 47.48-10.08 20.625-15.11 44.551-15.11 71.793 0 42.364 10.86 75.43 32.58 99.2 21.73 23.777 52.36 35.671 91.89 35.671 37.79 0 67.7-12.156 89.75-36.492 22.05-24.328 33.06-57.121 33.06-98.379"/><path d="m1558.1 238.89c13.54 0 27.07 2.129 40.62 6.386v-41.816c-6.13-2.676-14.05-4.922-23.73-6.738-9.69-1.797-19.73-2.715-30.12-2.715-52.59 0-78.88 27.715-78.88 83.144v140.78h-35.68v24.558l38.26 20.325 18.9 55.261h34.26v-58.113h74.39v-42.031h-74.39v-139.84c0-13.379 3.34-23.242 10.03-29.629s15.48-9.57 26.34-9.57"/><path d="m1783.4 464.69c11.17 0 20.38-0.789 27.62-2.371l-5.43-51.718c-7.88 1.894-16.06 2.832-24.56 2.832-22.2 0-40.2-7.246-53.97-21.731-13.78-14.48-20.66-33.301-20.66-56.453v-136.52h-55.52v261.23h43.46l7.34-46.055h2.82c8.66 15.594 19.95 27.95 33.9 37.09 13.92 9.141 28.93 13.699 45 13.699"/><path d="m1925 236.52c20.15 0 36.32 5.625 48.52 16.895 12.21 11.25 18.31 27.051 18.31 47.344v22.676l-33.54-1.407c-26.13-0.937-45.16-5.312-57.04-13.105-11.89-7.793-17.82-19.727-17.82-35.781 0-11.661 3.45-20.665 10.39-27.051 6.91-6.387 17.32-9.571 31.18-9.571zm82.66-37.793-11.11 36.387h-1.87c-12.62-15.918-25.29-26.738-38.04-32.48-12.74-5.742-29.13-8.633-49.13-8.633-25.67 0-45.7 6.934-60.1 20.801-14.41 13.847-21.62 33.457-21.62 58.808 0 26.934 10 47.246 30 60.934 19.99 13.691 50.45 21.172 91.41 22.441l45.09 1.414v13.938c0 16.699-3.88 29.16-11.68 37.441-7.79 8.262-19.88 12.383-36.25 12.383-13.39 0-26.23-1.953-38.5-5.891-12.29-3.945-24.09-8.593-35.44-13.933l-17.94 39.668c14.17 7.41 29.68 13.035 46.52 16.894 16.85 3.868 32.77 5.789 47.72 5.789 33.22 0 58.31-7.246 75.22-21.726 16.94-14.492 25.4-37.246 25.4-68.262v-175.97h-39.68"/><path d="m2220 194c-39.52 0-69.55 11.543-90.1 34.609-20.55 23.067-30.82 56.172-30.82 99.321 0 43.925 10.74 77.707 32.23 101.34 21.5 23.614 52.56 35.418 93.18 35.418 27.56 0 52.35-5.117 74.41-15.359l-16.78-44.641c-23.46 9.133-42.82 13.704-58.1 13.704-45.19 0-67.79-29.993-67.79-89.981 0-29.293 5.63-51.305 16.89-66.031 11.26-14.707 27.76-22.09 49.48-22.09 24.72 0 48.11 6.152 70.15 18.437v-48.417c-9.92-5.84-20.5-10-31.76-12.52s-24.93-3.789-40.99-3.789"/><path d="m2451.5 238.89c13.54 0 27.08 2.129 40.63 6.386v-41.816c-6.15-2.676-14.05-4.922-23.73-6.738-9.69-1.797-19.73-2.715-30.12-2.715-52.6 0-78.9 27.715-78.9 83.144v140.78h-35.66v24.558l38.26 20.325 18.9 55.261h34.26v-58.113h74.39v-42.031h-74.39v-139.84c0-13.379 3.34-23.242 10.03-29.629s15.47-9.57 26.33-9.57"/><path d="m2585.9 329.82c0-60.308 22.28-90.465 66.84-90.465 44.09 0 66.15 30.157 66.15 90.465 0 59.688-22.22 89.512-66.62 89.512-23.31 0-40.2-7.707-50.67-23.144-10.47-15.43-15.7-37.54-15.7-66.368zm190.13 0c0-42.672-10.94-75.972-32.83-99.898-21.89-23.945-52.36-35.918-91.4-35.918-24.42 0-45.98 5.508-64.72 16.543-18.74 11.016-33.14 26.836-43.22 47.48-10.07 20.625-15.12 44.551-15.12 71.793 0 42.364 10.87 75.43 32.59 99.2 21.74 23.777 52.36 35.671 91.89 35.671 37.79 0 67.7-12.156 89.75-36.492 22.04-24.328 33.06-57.121 33.06-98.379"/><path d="m2972.3 464.69c11.18 0 20.38-0.789 27.63-2.371l-5.43-51.718c-7.87 1.894-16.05 2.832-24.57 2.832-22.2 0-40.19-7.246-53.96-21.731-13.78-14.48-20.67-33.301-20.67-56.453v-136.52h-55.51v261.23h43.46l7.33-46.055h2.83c8.66 15.594 19.96 27.95 33.89 37.09 13.94 9.141 28.94 13.699 45 13.699"/></g><path d="m610.11 372.83c0-170.59-138.26-308.86-308.85-308.86-170.6 0-308.85 138.28-308.85 308.86 0 170.58 138.24 308.85 308.85 308.85 170.59 0 308.85-138.27 308.85-308.85" fill="#e53935"/><path d="m460.69 521.79-105.04 0.95742-61.415 61.415-72.096-47.882 12.445-12.438-29.208 0.26046l-99.128-166.82h-38.895l24.39-24.402-24.571-41.364 227.48-227.47c2.1918-0.04025 4.399-0.08051 6.6031-0.08051 170.42 0 308.58 138.06 308.85 308.41l-149.42 149.42" fill="#d51c2f"/><path d="m149.09 350.26c0 84.048 68.13 152.15 152.17 152.15 84.028 0 152.14-68.103 152.14-152.15zm342.06-7.017v14.046h44.015c-1.7491 59.337-25.556 113.1-63.539 153.42l-32.883-32.895-9.9253 9.9407 32.876 32.887c-40.315 37.983-94.082 61.79-153.41 63.527l-0.0154-44.002h-14.035v44.002c-59.341-1.7367-113.1-25.556-153.41-63.527l32.887-32.887-9.9448-9.9212-32.883 32.876c-37.975-40.315-61.781-94.082-63.531-153.42h44.002l-8e-3 -14.034h-44.175v-51.511h468.18v51.499h-44.196" fill="#f5f5f5"/></g></g></svg>
