<svg viewBox="0 0 24 24" fill="none" xmlns="http://www.w3.org/2000/svg">
  <path fill-rule="evenodd" clip-rule="evenodd"
    d="M5.39 13.69c.777-.448.778-1.9.003-3.243C4.618 9.105 3.36 8.38 2.583 8.83c-.776.448-.778 1.9-.003 3.242.776 1.343 2.033 2.068 2.81 1.62Zm.005 2.875c.775 1.342.774 2.794-.003 3.242-.777.449-2.035-.276-2.81-1.618-.775-1.343-.774-2.795.003-3.243.777-.449 2.035.276 2.81 1.619Zm5.293 3.06c.775 1.342.773 2.794-.003 3.242-.777.449-2.035-.276-2.81-1.619-.775-1.342-.774-2.794.003-3.242.777-.449 2.034.276 2.81 1.619Zm-.002-6.117c.775 1.342.774 2.794-.003 3.242-.777.449-2.035-.276-2.81-1.619-.775-1.342-.774-2.794.003-3.242.777-.449 2.035.276 2.81 1.619Z"
    fill="#E57373" />
  <path fill-rule="evenodd" clip-rule="evenodd"
    d="M21.274 12.075c.775-1.343.774-2.794-.003-3.243-.777-.448-2.035.276-2.81 1.619-.775 1.342-.773 2.794.003 3.242.777.449 2.035-.276 2.81-1.618Zm0 2.873c.777.448.778 1.9.003 3.242-.775 1.343-2.033 2.068-2.81 1.62-.776-.45-.778-1.901-.002-3.243.775-1.343 2.032-2.068 2.81-1.62Zm-5.292 3.055c.777.448.778 1.9.003 3.242-.775 1.343-2.033 2.067-2.81 1.62-.776-.45-.777-1.901-.002-3.243.775-1.343 2.033-2.068 2.81-1.62Zm-.002-6.116c.776.448.777 1.9.002 3.243-.775 1.342-2.033 2.067-2.81 1.618-.776-.448-.777-1.9-.002-3.242.775-1.343 2.033-2.067 2.81-1.619Z"
    fill="#AB47BC" />
  <path fill-rule="evenodd" clip-rule="evenodd"
    d="M14.733 3.624c0 .897-1.257 1.624-2.807 1.624S9.12 4.52 9.12 3.624C9.12 2.727 10.376 2 11.926 2s2.807.727 2.807 1.624ZM9.441 6.676c0 .897-1.256 1.624-2.806 1.624s-2.807-.727-2.807-1.624c0-.897 1.256-1.624 2.807-1.624 1.55 0 2.806.727 2.806 1.624ZM17.225 8.3c1.55 0 2.807-.727 2.807-1.624 0-.897-1.257-1.624-2.807-1.624s-2.807.727-2.807 1.624c0 .897 1.257 1.624 2.807 1.624Zm-2.492 1.434c0 .897-1.257 1.624-2.807 1.624S9.12 10.631 9.12 9.734c0-.896 1.257-1.623 2.807-1.623s2.807.727 2.807 1.623Z"
    fill="#FBC02D" />
</svg>