<svg version="1.1" viewBox="0 0 24 24" xml:space="preserve" xmlns="http://www.w3.org/2000/svg"><path transform="rotate(90)" d="m19.547-2.2067q0 0.17007-0.3118 0.17007l-2.2818 0.014173q-0.17007 0-0.18424-0.014173-0.21259-0.070864-2.4519-3.529-2.2251-3.4581-2.296-3.4723-0.25511 0.18425-2.5086 3.6424-2.1684 3.3589-2.381 3.3589h-2.3527q-0.32597 0-0.32597-0.22676v-2.0409q0-0.26928 2.6645-3.7983 2.6645-3.5432 2.6645-3.8266 0-0.3118-2.6503-3.8833-2.6503-3.5715-2.6503-3.7841v-2.1826q0-0.19842 0.38266-0.19842 0.39684 0 1.1905 0.02835t1.1905 0.02835q0.070864 0 0.52439 0.65194 1.3322 2.0976 4.025 6.2643 0.07086 0.09921 0.24094 0.21259 0.19842-0.09921 2.4519-3.6424 2.2251-3.4865 2.4235-3.4865h2.2393q0.36849 0 0.36849 0.19842v2.1826q0 0.35432-2.6503 3.8691-2.6361 3.5148-2.6361 3.6991 0 0.22676 2.6503 3.855 2.6645 3.614 2.6645 3.8691z" fill="#1de9b6" stroke-width=".77747" aria-label="X"/></svg>
