<svg version="1.1" viewBox="0 0 24 24" xml:space="preserve" xmlns="http://www.w3.org/2000/svg"><path d="m2.8224 19.073q-0.15938 0-0.15938-0.2922l-0.013282-2.1383q0-0.15938 0.013282-0.17266 0.066409-0.19923 3.3071-2.2978 3.2407-2.0852 3.254-2.1517-0.17267-0.23907-3.4134-2.3509-3.1477-2.0321-3.1477-2.2313v-2.2048q0-0.30548 0.2125-0.30548h1.9126q0.25235 0 3.5595 2.497 3.3204 2.497 3.586 2.497 0.2922 0 3.6392-2.4837 3.347-2.4837 3.5462-2.4837h2.0454q0.18594 0 0.18594 0.3586 0 0.37189-0.02657 1.1157t-0.02657 1.1157q0 0.066409-0.61095 0.49142-1.9657 1.2484-5.8705 3.7719-0.09297 0.06641-0.19922 0.22579 0.09297 0.18594 3.4134 2.2977 3.2673 2.0852 3.2673 2.2711v2.0985q0 0.34532-0.18594 0.34532h-2.0454q-0.33204 0-3.6259-2.4837-3.2938-2.4704-3.4665-2.4704-0.2125 0-3.6126 2.4837-3.3868 2.497-3.6259 2.497z" fill="#00bfa5" stroke-width=".72859" aria-label="X"/></svg>
