<svg xmlns="http://www.w3.org/2000/svg" viewBox="0 0 32 32">
  <path d="M31.44673,12.569,25.41217,6.5312,23.78465,8.15936l5.22016,5.223-5.22016,5.2224,1.62752,1.62784,6.03456-6.03552a1.15071,1.15071,0,0,0,0-1.62848M8.216,13.92768,6.58753,12.2992.55105,18.33536a1.15537,1.15537,0,0,0,0,1.62784L6.58753,26,8.216,24.37216l-5.22272-5.2224Z" style="fill: #42a5f5"/>
  <polygon points="10 22 22 22 24 24 12 24 10 22" style="fill: #42a5f5"/>
  <polygon points="22 18 10 18 12 16 24 16 22 18" style="fill: #42a5f5"/>
  <polygon points="22 12 10 12 8 10 20 10 22 12" style="fill: #42a5f5"/>
</svg>
