<svg xmlns="http://www.w3.org/2000/svg" viewBox="0 0 32 32">
  <path fill="#dd2c00"
    d="m 15.502537,29.992493 c -0.03784,-0.003 -0.200589,-0.01514 -0.362574,-0.02271 -1.042152,-0.0757 -2.140697,-0.315644 -3.169453,-0.702438 C 9.5180307,28.346228 7.4282751,26.602846 6.0676021,24.343007 5.1579137,22.832159 4.5942972,21.090064 4.4550964,19.358869 4.394539,18.640535 4.394539,18.187583 4.4475252,17.488475 c 0.099916,-1.345989 0.4269132,-2.636569 0.9782673,-3.865156 0.4851978,-1.081512 1.09529,-2.02428 1.9220188,-2.970906 0.078721,-0.09007 2.0522869,-2.0740886 4.3852447,-4.4083353 L 15.974942,1.9999992 V 4.0328331 6.0655914 L 12.719045,9.3242116 C 9.4258341,12.620149 9.3483237,12.699704 9.0256407,13.116701 7.9925711,14.45179 7.3749847,16.09495 7.2684084,17.792082 c -0.015142,0.288393 -0.015142,0.820674 -3.791e-4,1.102329 0.1044577,1.645509 0.6714048,3.216005 1.6450547,4.560934 0.6002522,0.8293 1.420168,1.620225 2.256509,2.177484 1.194751,0.795997 2.493581,1.256671 3.956593,1.403441 0.397393,0.03786 1.148806,0.04542 1.54703,0.0065 1.538254,-0.141603 2.974698,-0.660105 4.20934,-1.520215 0.455678,-0.317915 0.794558,-0.604036 1.233658,-1.042154 0.455676,-0.454918 0.755424,-0.813177 1.077653,-1.288157 0.692599,-1.02111 1.154483,-2.190731 1.358478,-3.442405 0.13852,-0.851631 0.13852,-1.847156 -8.48e-4,-2.717561 -0.278553,-1.740125 -1.06047,-3.32644 -2.276946,-4.618838 -0.0878,-0.0931 -0.161227,-0.173339 -0.162743,-0.17788 -0.0018,-0.0047 0.464004,-0.476115 1.034584,-1.046618 l 1.03799,-1.037943 0.166527,0.172582 c 0.275525,0.285366 0.623716,0.691842 0.87449,1.02058 1.050555,1.379295 1.778199,2.974542 2.126316,4.661607 0.319429,1.54718 0.319429,3.156433 2.27e-4,4.709595 -0.143818,0.700924 -0.366358,1.418502 -0.660806,2.128888 -0.864727,2.089228 -2.437645,3.99376 -4.350051,5.266931 -1.601379,1.066147 -3.456937,1.706745 -5.387281,1.860024 -0.255846,0.0227 -1.2818,0.03784 -1.451128,0.0227 z M 19.893763,9.6149523 C 19.50924,9.5619658 19.127818,9.340183 18.889155,9.0222688 18.785455,8.883749 18.684782,8.6778617 18.637095,8.5067937 18.591675,8.32967 18.576536,8.0200822 18.606825,7.8490141 18.667385,7.5371555 18.793033,7.2934215 18.99892,7.077088 c 0.19529,-0.2058872 0.436754,-0.3497051 0.717578,-0.4276699 0.127161,-0.037848 0.155172,-0.037848 0.383011,-0.037848 0.225567,4.545e-4 0.258116,0.00374 0.382254,0.037848 0.940874,0.2596298 1.40041,1.2976952 0.956845,2.1611351 -0.28915,0.563162 -0.912564,0.8866773 -1.547939,0.8040954 z" />
</svg>