<svg xmlns="http://www.w3.org/2000/svg" viewBox="0 0 32 32">
   <path fill="#f4511e"
      d="m 16.169079,2.0388417 c -0.18957,-0.078649 -0.407837,-0.035589 -0.553335,0.1091616 L 11.527829,6.2377994 C 10.403523,7.3627279 9.3655319,8.4034991 8.599287,9.1738704 8.2161645,9.559056 7.9017331,9.8764125 7.6770596,10.103626 7.5647228,10.217233 7.474468,10.308627 7.4098019,10.374648 c -0.064667,0.06602 -0.078418,0.07665 -0.1298647,0.135511 -0.8251484,0.944816 -1.4453865,1.902066 -1.9329133,2.98877 -0.5549874,1.236683 -0.8856466,2.541112 -0.9862187,3.89594 -0.05232,0.690323 -0.052322,1.17403 0.00753,1.883979 0.1410003,1.74988 0.7086911,3.497711 1.6261315,5.021433 1.370217,2.27569 3.4717494,4.03091 5.9436613,4.959326 1.037963,0.390255 2.139672,0.630952 3.195801,0.707668 0.0043,7e-4 0.0088,0.0013 0.01317,0.0019 0.145717,0.0068 0.300154,0.01688 0.325604,0.01882 6.4e-4,6.44e-4 0.0013,0.0013 0.0019,0.0019 0.187989,0.01681 0.417471,0.0086 0.720842,0.0038 0.301144,-0.0048 0.589327,-0.01129 0.76225,-0.02635 1.945789,-0.154506 3.81957,-0.798738 5.435495,-1.874569 1.930578,-1.285269 3.504844,-3.192078 4.379638,-5.30563 h -0.0019 c 0.295516,-0.712962 0.520715,-1.434348 0.666263,-2.143709 0.321517,-1.564423 0.320046,-3.183596 -0.0019,-4.742883 -0.35102,-1.700982 -1.083612,-3.308308 -2.141855,-4.697696 -0.256462,-0.336197 -0.596234,-0.732874 -0.880821,-1.027626 l -0.161812,-0.167593 c -0.197576,-0.2039086 -0.523878,-0.2064514 -0.724607,-0.0056 l -0.999394,1.001275 c -0.137738,0.137721 -0.587922,0.591 -0.707669,0.711433 -0.119746,0.120434 -0.182674,0.16691 -0.182674,0.16691 -0.177514,0.171718 -0.340676,0.446935 -0.09318,0.79337 0.238216,0.32964 1.941041,2.821781 2.193666,4.399935 0.124807,0.779466 0.125226,1.697807 0.0019,2.456137 -0.185025,1.135272 -0.603685,2.18918 -1.22901,3.111105 h 0.0019 c -0.295532,0.435629 -0.553886,0.746564 -0.976807,1.168783 -0.408923,0.408008 -0.703137,0.656535 -1.12173,0.948576 -1.116092,0.776979 -2.413688,1.24528 -3.811246,1.373931 -6.43e-4,-1e-6 -0.0013,-1e-6 -0.0019,0 -0.315915,0.03087 -1.06163,0.02555 -1.390869,-0.0057 h -0.0019 C 13.873886,25.993743 12.712304,25.580074 11.627581,24.857382 10.878629,24.358353 10.121086,23.630095 9.5817415,22.884945 8.6987808,21.665287 8.1875968,20.24575 8.093003,18.755625 c -0.012226,-0.23897 -0.012564,-0.752363 0,-0.997511 0.096281,-1.533198 0.6564898,-3.022719 1.5884896,-4.22719 C 9.987609,13.135335 10.023892,13.100811 13.197249,9.9248269 L 16.334704,6.7854896 C 16.429964,6.6901156 16.48345,6.5608101 16.48339,6.4260091 V 4.4667464 2.5074838 C 16.482897,2.302123 16.358892,2.1172285 16.169079,2.0388417 Z m 3.781132,4.4041063 c -0.217265,0 -0.367327,0.016695 -0.504401,0.056463 -8.41e-4,2.335e-4 -0.0011,0.00165 -0.0019,0.00188 -0.350125,0.097669 -0.672126,0.2820327 -0.92411,0.5476901 -0.260246,0.2735006 -0.4326,0.6201882 -0.506238,0.9993961 -6.62e-4,0.00251 -0.0013,0.00501 -0.0019,0.00753 -0.0522,0.2947954 -0.03692,0.5635316 0.03576,0.8469435 0.0013,0.00378 0.0025,0.00755 0.0038,0.011293 0.06724,0.2412123 0.175241,0.4635301 0.325603,0.6643801 0.318132,0.4237722 0.789888,0.7005172 1.306175,0.7716602 0.0019,10e-6 0.0038,10e-6 0.0057,0 0.821035,0.104524 1.626933,-0.313068 2.004443,-1.0483263 0.568258,-1.1061658 -0.0381,-2.4712208 -1.238419,-2.802442 -0.130874,-0.035959 -0.278496,-0.056011 -0.502521,-0.056463 -6.42e-4,-1.2e-6 -0.0013,-1.2e-6 -0.0019,0 z" />
</svg>