<svg width="24" height="24" viewBox="0 0 24 24" fill="none" xmlns="http://www.w3.org/2000/svg">
<path fill-rule="evenodd" clip-rule="evenodd" d="M6 5H22V16L18 20H2V9L6 5ZM6.88725 16.0559C6.71383 16.0837 6.53332 16.0977 6.3457 16.0977C5.89974 16.0977 5.49121 16.0179 5.12012 15.8584C4.74902 15.6989 4.42839 15.4694 4.1582 15.1699C3.88802 14.8672 3.67806 14.501 3.52832 14.0713C3.38184 13.6416 3.30859 13.1566 3.30859 12.6162V12.2793C3.30859 11.7357 3.38184 11.2507 3.52832 10.8242C3.67806 10.3945 3.88639 10.0283 4.15332 9.72559C4.42025 9.42285 4.73926 9.19173 5.11035 9.03223C5.48145 8.87272 5.88997 8.79297 6.33594 8.79297C6.78516 8.79297 7.19369 8.87272 7.56152 9.03223C7.93262 9.19173 8.25326 9.42285 8.52344 9.72559C8.79362 10.0283 9.00195 10.3945 9.14844 10.8242C9.29492 11.2507 9.36816 11.7357 9.36816 12.2793V12.6162C9.36816 13.1566 9.29492 13.6416 9.14844 14.0713C9.00521 14.501 8.7985 14.8672 8.52832 15.1699C8.40705 15.3043 8.27594 15.4247 8.13499 15.5309L9.31934 16.4688L8.39648 17.2695L6.88725 16.0559ZM7.88867 12.2695V12.6162C7.88867 12.9906 7.85449 13.3226 7.78613 13.6123C7.71777 13.8988 7.61686 14.1413 7.4834 14.3398C7.35319 14.5352 7.19206 14.6833 7 14.7842C6.8112 14.8851 6.5931 14.9355 6.3457 14.9355C6.09831 14.9355 5.87695 14.8851 5.68164 14.7842C5.48958 14.6833 5.32682 14.5352 5.19336 14.3398C5.06315 14.1413 4.96387 13.8988 4.89551 13.6123C4.82715 13.3226 4.79297 12.9906 4.79297 12.6162V12.2695C4.79297 11.8919 4.82715 11.5599 4.89551 11.2734C4.96387 10.987 5.06315 10.7461 5.19336 10.5508C5.32357 10.3555 5.4847 10.209 5.67676 10.1113C5.86882 10.0104 6.08854 9.95996 6.33594 9.95996C6.58333 9.95996 6.80306 10.0104 6.99512 10.1113C7.18717 10.209 7.34831 10.3555 7.47852 10.5508C7.61198 10.7461 7.71289 10.987 7.78125 11.2734C7.85286 11.5599 7.88867 11.8919 7.88867 12.2695ZM11.7461 12.2528V16H10.335V10.7168H11.6582L11.7068 11.3217C11.8791 11.1026 12.0891 10.9319 12.3369 10.8096C12.5941 10.6826 12.8919 10.6191 13.2305 10.6191C13.4648 10.6191 13.6797 10.6549 13.875 10.7266C14.0703 10.7949 14.238 10.904 14.3779 11.0537C14.4793 11.1574 14.5644 11.2839 14.6332 11.4333C14.6563 11.3988 14.6802 11.365 14.7051 11.332C14.8776 11.1074 15.0908 10.9333 15.3447 10.8096C15.5986 10.6826 15.8916 10.6191 16.2236 10.6191C16.4775 10.6191 16.7087 10.6566 16.917 10.7314C17.1253 10.8031 17.3027 10.9186 17.4492 11.0781C17.599 11.2344 17.7129 11.4395 17.791 11.6934C17.8724 11.9473 17.9131 12.2581 17.9131 12.626V16H16.502V12.626C16.502 12.3818 16.4694 12.1963 16.4043 12.0693C16.3424 11.9391 16.2513 11.8496 16.1309 11.8008C16.0137 11.7487 15.8737 11.7227 15.7109 11.7227C15.5417 11.7227 15.3936 11.7568 15.2666 11.8252C15.1396 11.8903 15.0339 11.9814 14.9492 12.0986C14.9005 12.1661 14.8588 12.24 14.8241 12.3203C14.8261 12.3705 14.8271 12.422 14.8271 12.4746V16H13.4209V12.6309C13.4209 12.39 13.3883 12.2044 13.3232 12.0742C13.2581 11.944 13.1654 11.8529 13.0449 11.8008C12.9277 11.7487 12.7861 11.7227 12.6201 11.7227C12.4378 11.7227 12.2783 11.7601 12.1416 11.835C12.0081 11.9098 11.8975 12.014 11.8096 12.1475C11.7869 12.1811 11.7657 12.2162 11.7461 12.2528ZM20.4863 16V8.5H19.0752V16H20.4863Z" fill="#41CC53"/>
</svg>
