<svg width="24" height="24" viewBox="0 0 24 24" fill="none" xmlns="http://www.w3.org/2000/svg">
<path fill-rule="evenodd" clip-rule="evenodd" d="M6 5H22V16L18 20H2V9L6 5ZM13.2012 15.0078C13.459 14.418 13.5879 13.7246 13.5879 12.9277V12.5469C13.5879 11.7109 13.4355 10.9746 13.1309 10.3379C12.8301 9.69727 12.4023 9.20703 11.8477 8.86719C11.2969 8.52344 10.666 8.35156 9.95508 8.35156C9.24414 8.35156 8.61133 8.52344 8.05664 8.86719C7.50586 9.20703 7.07812 9.69727 6.77344 10.3379C6.47266 10.9746 6.32227 11.7129 6.32227 12.5527V12.9746C6.32617 13.7949 6.48047 14.5215 6.78516 15.1543C7.08984 15.7832 7.51953 16.2676 8.07422 16.6074C8.62891 16.9473 9.25977 17.1172 9.9668 17.1172C10.1895 17.1172 10.4043 17.0996 10.6113 17.0645L12.4277 18.5234L13.5469 17.5332L12.1289 16.4199C12.5859 16.0645 12.9434 15.5938 13.2012 15.0078ZM11.3262 10.502C11.6465 10.9668 11.8066 11.6465 11.8066 12.541V12.957C11.8027 13.8438 11.6426 14.5195 11.3262 14.9844C11.0098 15.4453 10.5566 15.6758 9.9668 15.6758C9.36523 15.6758 8.9043 15.4355 8.58398 14.9551C8.26367 14.4746 8.10352 13.7988 8.10352 12.9277V12.5117C8.10742 11.625 8.26953 10.9531 8.58984 10.4961C8.91016 10.0352 9.36523 9.80469 9.95508 9.80469C10.5488 9.80469 11.0059 10.0371 11.3262 10.502ZM16.793 10.6602V9.10156H15.0996V10.6602H14.1738V11.9023H15.0996V15.3184C15.123 16.5176 15.7285 17.1172 16.916 17.1172C17.2676 17.1172 17.6094 17.0664 17.9414 16.9648V15.6816C17.7969 15.709 17.6309 15.7227 17.4434 15.7227C17.1895 15.7227 17.0176 15.6719 16.9277 15.5703C16.8379 15.4688 16.793 15.3008 16.793 15.0664V11.9023H17.877V10.6602H16.793Z" fill="#41CC53"/>
</svg>
