<?xml version="1.0" encoding="UTF-8" standalone="no"?>
<svg
   clip-rule="evenodd"
   fill-rule="evenodd"
   stroke-linejoin="round"
   stroke-miterlimit="1.414"
   viewBox="0 0 500 500"
   version="1.1"
   id="svg1"
   sodipodi:docname="qsharp.svg"
   inkscape:version="1.3 (0e150ed, 2023-07-21)"
   xmlns:inkscape="http://www.inkscape.org/namespaces/inkscape"
   xmlns:sodipodi="http://sodipodi.sourceforge.net/DTD/sodipodi-0.dtd"
   xmlns="http://www.w3.org/2000/svg"
   xmlns:svg="http://www.w3.org/2000/svg">
  <defs
     id="defs1" />
  <sodipodi:namedview
     id="namedview1"
     pagecolor="#ffffff"
     bordercolor="#000000"
     borderopacity="0.25"
     inkscape:showpageshadow="2"
     inkscape:pageopacity="0.0"
     inkscape:pagecheckerboard="0"
     inkscape:deskcolor="#d1d1d1"
     inkscape:zoom="1.73"
     inkscape:cx="194.79769"
     inkscape:cy="293.06358"
     inkscape:window-width="2880"
     inkscape:window-height="1567"
     inkscape:window-x="1800"
     inkscape:window-y="25"
     inkscape:window-maximized="1"
     inkscape:current-layer="svg1" />
  <path
     id="path3"
     style="display:inline;fill:#607d8b;stroke-width:1.56324"
     d="M 249.8125 25.001953 C 248.17849 25.019003 246.54467 25.154145 244.91211 25.404297 C 243.27949 25.654429 241.64763 26.019086 240.01758 26.5 C 238.38754 26.98093 236.75918 27.577673 235.13281 28.287109 C 233.50647 28.996568 231.88321 29.82013 230.26172 30.755859 C 176.83821 61.576447 123.4313 92.433297 70.007812 123.25391 C 68.409003 124.17697 66.904037 125.15729 65.494141 126.19531 C 64.08424 127.23335 62.769668 128.32982 61.550781 129.48242 C 60.331897 130.63504 59.209364 131.8445 58.183594 133.11133 C 57.157825 134.37817 56.228993 135.70136 55.398438 137.08203 C 54.543629 138.502 53.790868 139.98292 53.144531 141.52344 C 52.498199 143.06395 51.958168 144.66477 51.523438 146.32617 C 51.088712 147.98757 50.759063 149.70955 50.539062 151.49219 C 50.31907 153.27483 50.207214 155.11923 50.205078 157.02344 C 50.179998 175.27421 50.272738 214.94322 50.341797 253.11914 C 50.410867 291.29504 50.456322 327.98036 50.339844 340.26758 C 50.320274 342.33348 50.409534 344.33258 50.605469 346.26367 C 50.801399 348.19476 51.104966 350.05943 51.519531 351.85742 C 51.934101 353.65542 52.459363 355.38619 53.095703 357.05273 C 53.732044 358.71932 54.478594 360.32055 55.339844 361.85742 C 56.201091 363.3943 57.176332 364.86853 58.265625 366.27734 C 59.354919 367.68622 60.558436 369.02995 61.878906 370.3125 C 63.199382 371.59502 64.636621 372.81477 66.191406 373.97266 C 67.746198 375.13055 69.420648 376.22677 71.212891 377.26172 C 124.38735 407.95977 177.48876 438.78477 230.64648 469.51953 C 232.29632 470.47 233.9497 471.29532 235.60352 471.99609 C 237.25727 472.69689 238.91218 473.27236 240.56836 473.72656 C 242.22456 474.18077 243.8821 474.5139 245.53906 474.72461 C 247.19603 474.93532 248.85365 475.02386 250.50977 474.99414 C 252.12048 474.96394 253.72998 474.82169 255.33984 474.56641 C 256.94975 474.3111 258.56027 473.94404 260.16797 473.46484 C 261.77565 472.98568 263.38222 472.39324 264.98633 471.69141 C 266.59043 470.98955 268.19183 470.17718 269.79102 469.25391 C 269.79102 469.25391 376.59161 407.59289 429.99609 376.73633 C 431.6304 375.79184 433.16825 374.78665 434.60547 373.72266 C 436.0427 372.65862 437.3795 371.53514 438.61719 370.35156 C 439.85488 369.16802 440.99359 367.92418 442.0293 366.62109 C 443.06496 365.31806 443.9989 363.95579 444.83008 362.5332 C 445.64853 361.13471 446.3678 359.67833 446.98633 358.16406 C 447.60485 356.64985 448.12318 355.0772 448.53906 353.44727 C 448.95493 351.81726 449.26801 350.12854 449.47852 348.38281 C 449.68899 346.63707 449.7964 344.83412 449.79883 342.97266 C 449.76453 281.57608 449.62365 220.17662 449.625 158.7793 C 449.62497 156.71028 449.51044 154.71591 449.28516 152.79102 C 449.05981 150.86609 448.72196 149.01096 448.27148 147.22656 C 447.82104 145.44218 447.25944 143.72748 446.58398 142.08008 C 445.9086 140.43268 445.12095 138.85186 444.2207 137.33789 C 443.32046 135.82395 442.30657 134.37622 441.18164 132.99219 C 440.05672 131.60811 438.82014 130.28894 437.4707 129.03125 C 436.12127 127.77356 434.65974 126.57825 433.08594 125.44336 C 431.51215 124.30849 429.82532 123.23436 428.02734 122.21875 C 417.32907 116.17259 385.58239 97.791261 352.55664 78.646484 C 319.5309 59.501718 285.22401 39.59127 269.40625 30.488281 C 267.77794 29.550906 266.14706 28.734446 264.51562 28.039062 C 262.88425 27.343668 261.2506 26.768144 259.61719 26.3125 C 257.98377 25.856857 256.35105 25.520869 254.7168 25.302734 C 253.08251 25.084603 251.4465 24.984827 249.8125 25.001953 z M 250 100 A 150 150 0 0 1 400 250 A 150 150 0 0 1 394.40039 290.06641 L 428.96484 310.02344 L 391.46484 374.97656 L 356.69141 354.90039 A 150 150 0 0 1 250 400 A 150 150 0 0 1 100 250 A 150 150 0 0 1 250 100 z M 250 175 A 75 75 0 0 0 175 250 A 75 75 0 0 0 250 325 A 75 75 0 0 0 325 250 A 75 75 0 0 0 250 175 z M 232.19531 214.39258 L 241.09766 214.39258 L 241.09766 232.19727 L 258.90039 232.19727 L 258.90039 214.39258 L 267.80273 214.39258 L 267.80273 232.19727 L 285.60742 232.19727 L 285.60742 241.09961 L 267.80273 241.09961 L 267.80273 258.90039 L 285.60742 258.90039 L 285.60742 267.80273 L 267.80273 267.80273 L 267.80273 285.60742 L 258.90039 285.60742 L 258.90039 267.80273 L 241.09766 267.80273 L 241.09766 285.60742 L 232.19531 285.60742 L 232.19531 267.80273 L 214.39258 267.80273 L 214.39258 258.90039 L 232.19531 258.90039 L 232.19531 241.09961 L 214.39258 241.09961 L 214.39258 232.19727 L 232.19531 232.19727 L 232.19531 214.39258 z M 241.09766 241.09766 L 241.09766 258.90039 L 258.90039 258.90039 L 258.90039 241.09766 L 241.09766 241.09766 z " />
</svg>
