<?xml version="1.0" encoding="UTF-8" standalone="no"?>
<svg
   clip-rule="evenodd"
   fill-rule="evenodd"
   stroke-linejoin="round"
   stroke-miterlimit="1.414"
   viewBox="0 0 500 500"
   version="1.1"
   id="svg1"
   sodipodi:docname="qsharp.svg"
   inkscape:version="1.3 (0e150ed, 2023-07-21)"
   xmlns:inkscape="http://www.inkscape.org/namespaces/inkscape"
   xmlns:sodipodi="http://sodipodi.sourceforge.net/DTD/sodipodi-0.dtd"
   xmlns="http://www.w3.org/2000/svg"
   xmlns:svg="http://www.w3.org/2000/svg">
  <defs
     id="defs1" />
  <sodipodi:namedview
     id="namedview1"
     pagecolor="#ffffff"
     bordercolor="#000000"
     borderopacity="0.25"
     inkscape:showpageshadow="2"
     inkscape:pageopacity="0.0"
     inkscape:pagecheckerboard="0"
     inkscape:deskcolor="#d1d1d1"
     inkscape:zoom="1.73"
     inkscape:cx="241.32948"
     inkscape:cy="293.3526"
     inkscape:window-width="1392"
     inkscape:window-height="1212"
     inkscape:window-x="2240"
     inkscape:window-y="25"
     inkscape:window-maximized="0"
     inkscape:current-layer="svg1" />
  <path
     id="path4"
     style="display:inline;fill:#607d8b;stroke-width:1.56324;fill-opacity:1"
     d="M 249.8125 25.001953 C 248.17848 25.019003 246.54469 25.154143 244.91211 25.404297 C 243.27949 25.654431 241.64763 26.019083 240.01758 26.5 C 238.38753 26.980933 236.75918 27.577667 235.13281 28.287109 C 233.50646 28.996573 231.88322 29.820122 230.26172 30.755859 C 176.83779 61.576696 123.43172 92.433061 70.007812 123.25391 C 68.408989 124.17698 66.904049 125.15728 65.494141 126.19531 C 64.08423 127.23335 62.769677 128.32981 61.550781 129.48242 C 60.331887 130.63505 59.209372 131.84449 58.183594 133.11133 C 57.157817 134.37818 56.228999 135.70135 55.398438 137.08203 C 54.543623 138.50201 53.790872 139.98291 53.144531 141.52344 C 52.498193 143.06396 51.958172 144.66476 51.523438 146.32617 C 51.088708 147.98758 50.759064 149.70954 50.539062 151.49219 C 50.319067 153.27484 50.207214 155.11922 50.205078 157.02344 C 50.179998 175.27436 50.272738 214.94291 50.341797 253.11914 C 50.410867 291.29535 50.456229 327.98027 50.339844 340.26758 C 50.320274 342.3335 50.409534 344.33256 50.605469 346.26367 C 50.801401 348.19477 51.104962 350.05942 51.519531 351.85742 C 51.934104 353.65543 52.459357 355.38616 53.095703 357.05273 C 53.732049 358.71933 54.478587 360.32054 55.339844 361.85742 C 56.201098 363.39431 57.176323 364.86851 58.265625 366.27734 C 59.354928 367.68623 60.558425 369.02994 61.878906 370.3125 C 63.199392 371.59503 64.636608 372.81477 66.191406 373.97266 C 67.74621 375.13056 69.420635 376.22676 71.212891 377.26172 C 124.38778 407.96002 177.48831 438.78452 230.64648 469.51953 C 232.29632 470.47001 233.94969 471.29531 235.60352 471.99609 C 237.25731 472.69689 238.91217 473.27235 240.56836 473.72656 C 242.22457 474.18077 243.88209 474.5139 245.53906 474.72461 C 247.19604 474.93532 248.85364 475.02386 250.50977 474.99414 C 252.12052 474.96394 253.72995 474.8217 255.33984 474.56641 C 256.94976 474.3111 258.56026 473.94404 260.16797 473.46484 C 261.77566 472.98567 263.38221 472.39325 264.98633 471.69141 C 266.59044 470.98955 268.19183 470.17719 269.79102 469.25391 C 269.79102 469.25391 376.59117 407.59314 429.99609 376.73633 C 431.63041 375.79184 433.16824 374.78666 434.60547 373.72266 C 436.04271 372.65862 437.37949 371.53515 438.61719 370.35156 C 439.85489 369.16801 440.99359 367.92419 442.0293 366.62109 C 443.06497 365.31804 443.9989 363.9558 444.83008 362.5332 C 445.64854 361.1347 446.3678 359.67834 446.98633 358.16406 C 447.60486 356.64984 448.12317 355.07723 448.53906 353.44727 C 448.95493 351.81725 449.26801 350.12855 449.47852 348.38281 C 449.689 346.63706 449.79639 344.83415 449.79883 342.97266 C 449.76453 281.57559 449.62365 220.17711 449.625 158.7793 C 449.62497 156.71027 449.51045 154.71594 449.28516 152.79102 C 449.05981 150.86608 448.72196 149.01097 448.27148 147.22656 C 447.82103 145.44217 447.25944 143.72749 446.58398 142.08008 C 445.90858 140.43267 445.12095 138.85187 444.2207 137.33789 C 443.32045 135.82394 442.30658 134.37623 441.18164 132.99219 C 440.05671 131.6081 438.82015 130.28895 437.4707 129.03125 C 436.12126 127.77355 434.65975 126.57826 433.08594 125.44336 C 431.51214 124.30848 429.82533 123.23437 428.02734 122.21875 C 417.32898 116.17254 385.58265 97.791413 352.55664 78.646484 C 319.53064 59.501562 285.22414 39.591342 269.40625 30.488281 C 267.77793 29.550898 266.14707 28.73445 264.51562 28.039062 C 262.88422 27.343662 261.25061 26.768147 259.61719 26.3125 C 257.98376 25.856854 256.35106 25.52087 254.7168 25.302734 C 253.0825 25.0846 251.44651 24.984827 249.8125 25.001953 z M 250 100 A 150 150 0 0 1 400 250 A 150 150 0 0 1 354.90039 356.69141 L 369.9043 382.67969 L 304.95312 420.17969 L 290.07031 394.40039 A 150 150 0 0 1 250 400 A 150 150 0 0 1 100 250 A 150 150 0 0 1 250 100 z M 250 175 A 75 75 0 0 0 175 250 A 75 75 0 0 0 250 325 A 75 75 0 0 0 325 250 A 75 75 0 0 0 250 175 z M 232.19531 214.39258 L 241.09766 214.39258 L 241.09766 232.19727 L 258.90039 232.19727 L 258.90039 214.39258 L 267.80273 214.39258 L 267.80273 232.19727 L 285.60742 232.19727 L 285.60742 241.09961 L 267.80273 241.09961 L 267.80273 258.90039 L 285.60742 258.90039 L 285.60742 267.80273 L 267.80273 267.80273 L 267.80273 285.60742 L 258.90039 285.60742 L 258.90039 267.80273 L 241.09766 267.80273 L 241.09766 285.60742 L 232.19531 285.60742 L 232.19531 267.80273 L 214.39258 267.80273 L 214.39258 258.90039 L 232.19531 258.90039 L 232.19531 241.09961 L 214.39258 241.09961 L 214.39258 232.19727 L 232.19531 232.19727 L 232.19531 214.39258 z M 241.09766 241.09766 L 241.09766 258.90039 L 258.90039 258.90039 L 258.90039 241.09766 L 241.09766 241.09766 z " />
</svg>
