<svg xmlns="http://www.w3.org/2000/svg" viewBox="0 0 50.843 50.843"><path fill="#1976d2" d="M29.585 25.422a4.16 4.16 0 0 1-4.16 4.159 4.16 4.16 0 0 1-4.159-4.16 4.16 4.16 0 0 1 4.16-4.159 4.16 4.16 0 0 1 4.159 4.16M43.888 14.76a21.3 21.3 0 0 0-3.267-4.272l-4.808 2.776a16 16 0 0 0-5.02-2.91c-1.642 1.664-2.946 3.523-3.886 5.545 5.352-.364 10.88 1.573 16.012 5.582l3.026-1.747a21.3 21.3 0 0 0-2.057-4.974m.001 21.32a21.3 21.3 0 0 0 2.066-4.966l-4.808-2.776c.359-1.938.356-3.904.01-5.803-2.262-.59-4.524-.79-6.745-.593 2.992 4.454 4.078 10.21 3.172 16.659l3.026 1.747a21.3 21.3 0 0 0 3.28-4.269zM25.427 46.74a21.3 21.3 0 0 0 5.333-.694v-5.552a16 16 0 0 0 5.03-2.893c-.62-2.253-1.578-4.312-2.859-6.137-2.36 4.817-6.802 8.636-12.84 11.076v3.494a21.3 21.3 0 0 0 5.336.706M6.963 36.082a21.3 21.3 0 0 0 3.267 4.272l4.809-2.777a16 16 0 0 0 5.02 2.91c1.642-1.664 2.946-3.523 3.886-5.544-5.353.364-10.88-1.573-16.012-5.583l-3.027 1.747a21.3 21.3 0 0 0 2.057 4.975m-.001-21.32a21.3 21.3 0 0 0-2.066 4.966l4.809 2.776a16 16 0 0 0-.01 5.802c2.262.59 4.524.79 6.744.593-2.991-4.453-4.078-10.209-3.171-16.658l-3.026-1.747a21.3 21.3 0 0 0-3.28 4.269zm18.462-10.66a21.3 21.3 0 0 0-5.333.694v5.552a16 16 0 0 0-5.03 2.893c.62 2.253 1.578 4.312 2.86 6.137 2.36-4.818 6.802-8.636 12.84-11.076V4.808a21.3 21.3 0 0 0-5.337-.706"/></svg>