<svg xmlns="http://www.w3.org/2000/svg" viewBox="0 0 16 16"><path fill="#212121" d="M7.579 4.717l-.444.749.347.064.043-.203-.053-.01.074-.14.123.294c.225.444.043 1.016.086 1.583l.203-.01c-.032-.509.171-1.124-.096-1.658zm1.144 0l-.278.663c-.268.546-.064 1.16-.097 1.658l.204.016c.042-.562-.145-1.139.074-1.577l.129-.3.08.14-.054.01.038.203.347-.064zm-1.16 6.25v.653l.358.588.16-.09-.337-.552v-.598zm.764 0v.653l.358.588.16-.09-.336-.552v-.598zm4.743-8.196a3.475 3.475 0 00-2.38.685c-1.475 1.069-1.887 2.999-.925 4.309.957 1.315 2.925 1.497 4.39.428 1.465-1.08 1.882-3.005.914-4.315a2.764 2.764 0 00-2-1.107zm-9.902-.15c-.802.075-1.54.45-2.021 1.113-.968 1.32-.551 3.261.924 4.336 1.47 1.08 3.454.898 4.417-.423.968-1.315.55-3.261-.925-4.336a3.518 3.518 0 00-2.395-.695zm.016.15c2.598-.16 4.384 3.032 3.186 4.79-4.427 3.872-7.186-4.26-3.181-4.79zm7.891 5.684a2.248 2.248 0 00-1.614.887c-.77 1.053-.434 2.61.743 3.476 1.176.855 2.764.71 3.528-.343.781-1.053.439-2.614-.732-3.475a2.823 2.823 0 00-1.925-.545zM3.168 2.62c-.802.075-1.54.45-2.021 1.113-.968 1.32-.551 3.261.924 4.336 1.47 1.08 3.454.898 4.417-.423.968-1.315.55-3.261-.925-4.336a3.518 3.518 0 00-2.395-.695zm2.149 5.812a2.807 2.807 0 00-1.925.551c-1.176.855-1.508 2.417-.743 3.47.775 1.048 2.352 1.198 3.529.337h.01c1.177-.856 1.519-2.417.744-3.476a2.23 2.23 0 00-1.615-.882z"/><g stroke="#212121" stroke-linejoin="round" stroke-miterlimit="10" stroke-width=".36" transform="matrix(.53466 0 0 .53466 -.447 -.565)"><path fill="#ffea00" d="M16.1 21.53c-2.52 0-4.55-1.62-4.55-3.63 0-2 2.03-3.63 4.54-3.63 2.51 0 4.54 1.63 4.54 3.63s-2.03 3.63-4.54 3.63z"/><path fill="#eceff1" d="M12.98 17.86a1.82 1.82 0 110-3.64 1.82 1.82 0 010 3.64zm6.02 0a1.82 1.82 0 110-3.64 1.82 1.82 0 010 3.64z"/></g><path d="M6.525 8.492a.487.487 0 010-.973.487.487 0 010 .973zm3.219-.053a.484.484 0 110-.968.481.481 0 010 .962z" fill="#212121"/><path fill="none" stroke="#f50057" stroke-width=".273" d="M7.333 9.519c-.097.668 1.833 1.144 1.604.117v-.059"/><path fill="#e91e63" d="M11.717 7.102a.796.796 0 01-.797-.802c0-.444.353-.813.797-.813a.807.807 0 010 1.615zm-8.138 5.16c-.556-.46-.577-1.359-.043-2.016.535-.653 1.428-.808 1.979-.348.55.46.582 1.358.048 2.01-.535.653-1.422.813-1.978.353zm9.127.005c-.556.454-1.444.3-1.978-.358-.535-.653-.519-1.551.042-2.01.557-.46 1.444-.3 1.979.352.534.652.518 1.55-.038 2.01zm-9.25-6.32a.897.897 0 01-.909-.887c0-.492.407-.888.91-.888a.888.888 0 11-.006 1.775z"/><path fill="#6200ea" d="M5.402 8.096c-.064.107-.267.113-.524-.037-.598-.47-.213-.545.257-.38.257.15.332.31.267.417zm6.577 3.476c-.251.208-.695.08-1-.289-.3-.364-.342-.829-.086-1.037.246-.203.695-.075 1 .288.3.37.337.835.086 1.043zm2.946-6.609c-10.25-3.689-5.122-1.844 0 0zM4.232 11.518c-.252-.214-.214-.673.09-1.037.305-.374.749-.503 1.006-.294.246.203.208.668-.091 1.037-.305.374-.749.497-1.005.294zm7.763-4.758a.438.438 0 01-.62-.07.438.438 0 01.053-.62.438.438 0 01.62.07.445.445 0 01-.053.62zM3.852 5.562a.444.444 0 01-.62-.07.439.439 0 11.679-.555c.16.192.128.47-.054.625zm-.578-2.374h-.032c-.374.059-.641.273-.855.519-1.754 1.871.914 3.39 2.491 4.352l.257-.38c-.417-.278-.968-.582-1.406-.839l.845-.465.016-.01c.363-.284.48-.707.53-1.086.17-.91-.177-1.422-.835-1.866-.315-.14-.642-.177-.978-.22zm.83.642c.218.096.406.267.598.577.107 1.123-.593 1.711-1.369 2.128v.006c-.31-.209-.641-.412-.802-.663-.214-.31-.417-.524-.486-.663-.038-.075-.048-.118-.038-.177.011-.059.043-.139.145-.267.23-.278.406-.562.577-.765.417-.454.877-.305 1.374-.176zm7.656.208c-3.182 1.727-.134 5.497 1.673 2.936.16-1.166-.84-1.866-1.625-2.417.08-.054.08-.064.203-.144a2.793 2.793 0 011.315-.39c.246 0 .476.042.647.144.177.096.626.427.7.684.802-.102-.23-.973-.507-1.23-.813-.358-1.738 0-2.406.417zm-.359.792l.637.438c.278.214.577.487.77.77.331.866.048 1.17-.653 1.289-.363.048-.593.128-.716.133-.059 0-.091 0-.145-.032a.948.948 0 01-.224-.214 1.925 1.925 0 01-.412-.845c-.053-.288-.016-.556.14-.786.304-.46.427-.609.609-.748zM3.328 3.274c-.765 0-1.363.518-1.797 1.213a.939.939 0 00-.213.589 1.604 1.604 0 00.16.588c.176.363.444.7.63.978.311.455.824.658 1.338.829.513.171 1.042.32 1.432.588l.257-.38c-1.71-.935-2.983-1.475-3.25-2.914l.01-.01c.417-.497.888-1.005 1.422-1.027.321.043.642.123.888.246s.395.284.454.47c-.043.487.01 1.022-.438 1.37l-.963.77c1.53-.38 2.433-1.984 1.155-3.01a3.255 3.255 0 00-1.058-.3h-.006zm9.934.16a3.032 3.032 0 00-1.77.37c-.866.577-.802.534-1.315 1.288-.246.374-.246.839-.144 1.283.107.438.32.855.572 1.176.24.294.497.444.775.476.267.032.535-.032.86-.075.338-.043.578-.053.803-.15.224-.107.385-.32.481-.615.225-.748.096-1.673-.577-2.192a.23.23 0 00-.054-.032L11.61 4.43l-.171.417 1.235.518c.802 1.54-.647 2.76-1.716 1.898-.92-1.914.508-3.475 2.277-3.373.856-.006 1.722 1.384 1.588.449l-.572-.637a2.353 2.353 0 00-.989-.267z"/><path fill="#64dd17" d="M13.561 4.862a1.267 1.267 0 00-.411.016c.331.053.652.235.893.534.502.61.47 1.46-.065 1.904-.16.128-.352.192-.55.224.358.07.716 0 1-.224.534-.444.566-1.294.064-1.904a1.53 1.53 0 00-.925-.55zM5.44 4.113c.064.043.128.08.187.128.54.444.572 1.3.07 1.915a1.454 1.454 0 01-1.252.534c.535.289 1.257.129 1.7-.427.509-.61.482-1.465-.064-1.91-.187-.16-.411-.213-.641-.234z"/></svg>
