<svg xmlns="http://www.w3.org/2000/svg" viewBox="0 0 32 32">
  <g>
    <path d="M6,18.0875a2,2,0,0,0-2-2,2,2,0,0,0,2-2v-6h4v-4H6a2,2,0,0,0-2,2v8H2v4H3.5a.5.5,0,0,1,.5.5v7.5a2,2,0,0,0,2,2h4v-4H6Z" style="fill: #42a5f5"/>
    <path d="M28,14.0875v-8a2,2,0,0,0-2-2H22v4h4v6a2,2,0,0,0,2,2,2,2,0,0,0-2,2v6H22v4h4a2,2,0,0,0,2-2v-8h2v-4Z" style="fill: #42a5f5"/>
    <rect x="10" y="14.0875" width="4" height="4" rx="0.5" style="fill: #42a5f5"/>
    <rect x="18" y="14.0875" width="4" height="4" rx="0.5" style="fill: #42a5f5"/>
  </g>
</svg>
