<?xml version="1.0" encoding="UTF-8" standalone="no"?>
<svg
   xmlns:dc="http://purl.org/dc/elements/1.1/"
   xmlns:cc="http://creativecommons.org/ns#"
   xmlns:rdf="http://www.w3.org/1999/02/22-rdf-syntax-ns#"
   xmlns:svg="http://www.w3.org/2000/svg"
   xmlns="http://www.w3.org/2000/svg"
   xmlns:sodipodi="http://sodipodi.sourceforge.net/DTD/sodipodi-0.dtd"
   xmlns:inkscape="http://www.inkscape.org/namespaces/inkscape"
   version="1.1"
   width="25.6"
   height="25.6"
   viewBox="0 0 24 24"
   id="svg2"
   inkscape:version="0.92.1 r15371"
   sodipodi:docname="reason.svg">
  <metadata
     id="metadata10">
    <rdf:RDF>
      <cc:Work
         rdf:about="">
        <dc:format>image/svg+xml</dc:format>
        <dc:type
           rdf:resource="http://purl.org/dc/dcmitype/StillImage" />
        <dc:title></dc:title>
      </cc:Work>
    </rdf:RDF>
  </metadata>
  <defs
     id="defs8" />
  <sodipodi:namedview
     pagecolor="#ffffff"
     bordercolor="#666666"
     borderopacity="1"
     objecttolerance="10"
     gridtolerance="10"
     guidetolerance="10"
     inkscape:pageopacity="0"
     inkscape:pageshadow="2"
     inkscape:window-width="1366"
     inkscape:window-height="705"
     id="namedview6"
     showgrid="false"
     inkscape:zoom="19.666667"
     inkscape:cx="18.488357"
     inkscape:cy="10.479085"
     inkscape:window-x="-8"
     inkscape:window-y="-8"
     inkscape:window-maximized="1"
     inkscape:current-layer="svg2" />
  <path
     style="fill:#f44336;fill-opacity:1;stroke-width:1.06666672"
     d="M 3.1992188 3.1992188 L 3.1992188 22.400391 L 22.400391 22.400391 L 22.400391 3.1992188 L 3.1992188 3.1992188 z M 8.6601562 12.792969 L 11.644531 12.792969 C 12.052223 12.792969 12.401898 12.819474 12.695312 12.873047 C 12.988727 12.92662 13.265133 13.042125 13.521484 13.220703 C 13.780925 13.399281 13.985379 13.632244 14.136719 13.917969 C 14.291148 14.200122 14.369141 14.555788 14.369141 14.984375 C 14.369141 15.573682 14.249539 16.052386 14.011719 16.423828 C 13.776987 16.79527 13.440531 17.105125 13.001953 17.351562 L 15.304688 20.769531 L 13.130859 20.769531 L 11.25 17.84375 L 10.429688 17.84375 L 10.429688 20.769531 L 8.6601562 20.769531 L 8.6601562 12.792969 z M 15.693359 12.792969 L 20.681641 12.792969 L 20.681641 14.335938 L 17.462891 14.335938 L 17.462891 15.712891 L 20.451172 15.712891 L 20.451172 17.255859 L 17.462891 17.255859 L 17.462891 19.226562 L 20.681641 19.226562 L 20.681641 20.769531 L 15.693359 20.769531 L 15.693359 12.792969 z M 10.429688 14.259766 L 10.429688 16.408203 L 10.976562 16.408203 C 11.260711 16.408203 11.499915 16.393472 11.691406 16.361328 C 11.882898 16.329184 12.042155 16.254915 12.171875 16.140625 C 12.295418 16.029907 12.385812 15.909491 12.441406 15.777344 C 12.500089 15.641625 12.529297 15.461336 12.529297 15.236328 C 12.529297 15.036321 12.492912 14.863565 12.421875 14.720703 C 12.350838 14.577841 12.229601 14.464958 12.056641 14.382812 C 11.936186 14.325668 11.795372 14.291965 11.634766 14.28125 C 11.47416 14.266964 11.28733 14.259766 11.074219 14.259766 L 10.429688 14.259766 z "
     transform="scale(0.93749999)"
     id="path4" />
</svg>
