<svg xmlns="http://www.w3.org/2000/svg" stroke-linejoin="round" stroke-miterlimit="1.414" clip-rule="evenodd" viewBox="0 0 24 24"><g fill="#ff6e40" stroke="#ff6e40" stroke-miterlimit="4" stroke-width=".435"><path d="M15.878 15.787a1.437 1.437 0 0 0-.154-2.866h-.05a1.432 1.432 0 0 0-1.382 1.484c.025.384.179.717.41.947-.87 1.714-2.201 2.968-4.197 4.017-1.356.717-2.764.972-4.17.793-1.152-.153-2.048-.665-2.61-1.51-.82-1.253-.896-2.61-.205-3.965.486-.973 1.253-1.69 1.74-2.047a13.804 13.804 0 0 1-.333-1.305c-3.71 2.686-3.326 6.32-2.2 8.034.844 1.28 2.558 2.073 4.451 2.073a6.29 6.29 0 0 0 1.536-.18c3.275-.64 5.757-2.584 7.164-5.475z"/><path d="M20.381 12.614c-1.944-2.277-4.81-3.53-8.085-3.53h-.41a1.406 1.406 0 0 0-1.253-.769h-.051A1.432 1.432 0 0 0 9.2 9.8a1.437 1.437 0 0 0 1.433 1.381h.05a1.441 1.441 0 0 0 1.255-.87h.46c1.945 0 3.787.563 5.45 1.663 1.28.845 2.2 1.945 2.712 3.276.435 1.074.41 2.123-.05 3.019-.717 1.356-1.92 2.098-3.506 2.098a6.544 6.544 0 0 1-2.508-.537c-.281.256-.793.665-1.151.92 1.1.513 2.226.794 3.3.794 2.457 0 4.274-1.356 4.965-2.712.742-1.484.69-4.043-1.229-6.218z"/><path d="M7.383 16.222a1.437 1.437 0 0 0 1.433 1.382h.051a1.432 1.432 0 0 0 1.382-1.484 1.437 1.437 0 0 0-1.433-1.382h-.051c-.051 0-.128 0-.18.025-1.048-1.74-1.483-3.633-1.33-5.68.103-1.535.614-2.866 1.51-3.966.742-.947 2.175-1.407 3.147-1.433 2.712-.05 3.864 3.327 3.94 4.683.333.076.896.256 1.28.383-.307-4.145-2.866-6.294-5.322-6.294-2.303 0-4.427 1.663-5.271 4.12-1.177 3.275-.41 6.422 1.023 8.904a1.15 1.15 0 0 0-.179.742z"/></g></svg>