<svg xmlns="http://www.w3.org/2000/svg" viewBox="0 0 32 32"><path d="M10,23v4a1,1,0,0,1-1,1H5a1,1,0,0,1-1-1V23a1,1,0,0,1,1-1H9A1,1,0,0,1,10,23ZM4,15v4a1,1,0,0,0,1,1H9a1,1,0,0,0,1-1V15a1,1,0,0,0-1-1H5A1,1,0,0,0,4,15ZM4,7v4a1,1,0,0,0,1,1H9a1,1,0,0,0,1-1V7A1,1,0,0,0,9,6H5A1,1,0,0,0,4,7ZM17,22H13a1,1,0,0,0-1,1v4a1,1,0,0,0,1,1h4a1,1,0,0,0,1-1V23A1,1,0,0,0,17,22Zm-5-7v4a1,1,0,0,0,1,1h4a1,1,0,0,0,1-1V15a1,1,0,0,0-1-1H13A1,1,0,0,0,12,15Zm.40933-7.63166,1.6373,3.64956a1,1,0,0,0,1.32171.50306l3.64956-1.6373A1,1,0,0,0,19.521,8.56194l-1.6373-3.64955a1,1,0,0,0-1.32172-.50306l-3.64955,1.6373A1,1,0,0,0,12.40933,7.36834ZM25,22H21a1,1,0,0,0-1,1v4a1,1,0,0,0,1,1h4a1,1,0,0,0,1-1V23A1,1,0,0,0,25,22Zm-2.256-9.31831L20.5488,16.0255a1,1,0,0,0,.28715,1.38475l3.34381,2.19521a1,1,0,0,0,1.38476-.28715l2.1952-3.34381a1,1,0,0,0-.28715-1.38475l-3.34381-2.19521A1,1,0,0,0,22.744,12.68169ZM22,5V9a1,1,0,0,0,1,1h4a1,1,0,0,0,1-1V5a1,1,0,0,0-1-1H23A1,1,0,0,0,22,5Z" style="fill:#039be5"/></svg>