<svg xmlns="http://www.w3.org/2000/svg" viewBox="0 0 16 16"><path fill="#ef5350" d="M5.445 2.975C3.724 2.989 3.04 3.93 3 4V3H1v10h2V7c.647-.844 1.609-1.724 3-1V3a5.33 5.33 0 0 0-.555-.025zM10.748 3c-.88 0-1.662.207-2.352.623-.683.41-1.213 1-1.588 1.766-.374.76-.56 1.625-.56 2.593v.25c0 1.444.443 2.6 1.328 3.467C8.467 12.567 9.62 13 11.033 13c.802 0 1.534-.152 2.193-.455.66-.309 1.183-.737 1.569-1.283l-1.266-1.416c-.558.719-1.334 1.078-2.326 1.078-.642 0-1.174-.19-1.596-.57C9.191 9.974 9.083 9.63 9 9h6V7.785c0-1.527-.38-2.705-1.14-3.537C13.104 3.416 12.066 3 10.747 3zm-.008 2.086c.547 0 .969.158 1.266.473.297.309.45.748.463 1.318L12.48 7H9c.089-.642.177-1.054.492-1.398.32-.345.737-.516 1.248-.516z"/></svg>