<svg xmlns="http://www.w3.org/2000/svg" viewBox="0 0 160 160">
	<path
		d="M50.8 37c-4.7 0-8.8 1.4-12.4 4.2-3.5 2.8-6.1 7-7.7 12.7h-.9V38.2H5v86h25.6V77.5c0-3.4.7-6.4 2.2-9 1.5-2.6 3.5-4.6 6.1-6 2.6-1.4 5.5-2.2 8.8-2.2 1.6 0 3.5.1 5.6.4 2.1.3 5.3 1.1 6.6 1.5V38.5c-1.2-.3-3.9-1.1-5.2-1.2-1.3-.2-2.6-.3-3.9-.3z"
		fill="#D50000" />
	<path
		d="M151.8 86v-5c0-6.9-1-13.1-3-18.5s-4.8-9.9-8.5-13.6c-3.6-3.7-8-6.4-13-8.3-5-1.9-10.5-2.8-16.5-2.8-8.5 0-15.9 1.8-22.2 5.5C82.3 47 77.4 52.1 74 58.6c-3.5 6.6-5.2 14.2-5.2 23 0 9 1.7 16.8 5.2 23.3 3.4 6.5 8.4 11.5 14.8 15s14 5.3 22.9 5.3c7.4 0 13.9-1.1 19.5-3.4 12.7-5.1 20.4-16.4 20.4-26.8h-24.7c-.2 2.4-2.2 5.1-3.7 6.4-2.5 2.3-5.7 2.5-9.9 2.5-7.5 0-14.4-5.2-14.4-17.9h52.9zm-40-28.3c7.8 0 13.2 4.4 13.4 13.4H98.8c.4-7.6 6.4-13.4 13-13.4z"
		fill="#fff" />
</svg>