<svg width="16" height="16" version="1.1" viewBox="0 0 16 16" xmlns="http://www.w3.org/2000/svg">
 <path d="m10.674 2.8223c-0.89493 0-1.6931 0.21344-2.3945 0.63672-0.69538 0.41723-1.2343 1.0149-1.6152 1.7949-0.38095 0.77399-0.57031 1.653-0.57031 2.6387v0.25391c0 1.4694 0.45059 2.6465 1.3516 3.5293 0.90702 0.88283 2.1155 1.3242 3.5547 1.3242 0.81632 0 1.5241-0.1545 2.1953-0.46289 0.6712-0.31443 1.4116-0.9808 1.8047-1.5371l-2-1c-0.5684 0.73166-0.99018 1-2 1-0.50115 0-1.7602-0.18425-2-2h6v-1.3066c0-1.554-0.38617-2.7531-1.1602-3.5996-0.76794-0.84655-1.8236-1.2715-3.166-1.2715zm-5.0586 0.1543c-1.8467-0.048552-2.5738 0.9525-2.6152 1.0234v-1h-2v10h2v-6c0.64654-0.84444 1.609-1.7241 3-1v-3c-0.13319-0.013161-0.26166-0.020201-0.38477-0.023438zm5.3848 2.0234c1.1172-0.04475 2.0427 0.67658 2 2h-4c0.15242-1.3014 0.4996-1.9399 2-2z" fill="#ef5350" stroke-width="1.3202"/>
</svg>
