<svg width="16" height="16" version="1.1" viewBox="0 0 16 16" xmlns="http://www.w3.org/2000/svg">
 <path d="m5.4453 2.9746c-1.7216 0.014645-2.4052 0.95671-2.4453 1.0254v-1h-2v10h2v-6c0.64654-0.84444 1.609-1.7241 3-1v-3c-0.13319-0.013161-0.26166-0.0202-0.38477-0.023438-0.057709-0.0015172-0.11439-0.0024255-0.16992-0.0019531zm5.3027 0.025391c-0.87938 0-1.6623 0.20712-2.3516 0.62305-0.6833 0.40998-1.2136 0.99914-1.5879 1.7656-0.37433 0.76054-0.56055 1.6252-0.56055 2.5938v0.25c0 1.4438 0.4428 2.5993 1.3281 3.4668 0.89126 0.8675 2.0429 1.3008 3.457 1.3008 0.80214 0 1.5338-0.15205 2.1934-0.45508 0.65954-0.30897 1.1821-0.73656 1.5684-1.2832l-1.2656-1.416c-0.55852 0.71895-1.3339 1.0781-2.3262 1.0781-0.64171 0-1.1738-0.19004-1.5957-0.57031-0.41592-0.38027-0.52424-0.72369-0.60742-1.3535h6v-1.2148c0-1.527-0.38008-2.7053-1.1406-3.5371-0.7546-0.83185-1.7923-1.248-3.1113-1.248zm-0.0078 2.0859c0.54664 0 0.96854 0.15774 1.2656 0.47266 0.29709 0.30897 0.45101 0.74795 0.46289 1.3184l0.011719 0.12305h-3.4805c0.089126-0.64171 0.17727-1.0538 0.49219-1.3984 0.32085-0.34462 0.73706-0.51562 1.248-0.51562z" fill="#ef5350"/>
</svg>
