<?xml version="1.0" encoding="UTF-8"?>
<svg fill="none" version="1.1" viewBox="0 0 24 24" xmlns="http://www.w3.org/2000/svg">
 <path d="m12.87 2.6869c4.8642 0 7.2819 2.2808 7.2819 5.9231 0 2.725-1.7015 4.5019-3.999 4.7981 1.9399 0.38463 3.0733 1.4808 3.2829 3.6433l0.0298 0.39767 0.02701 0.37159 0.02235 0.34738 0.01583 0.2617 0.01677 0.31013 0.0093 0.17695 0.0121 0.27939 0.01022 0.26542 0.0056 0.1518 0.0065 0.244 0.0056 0.27939 0.0018 0.13411 0.0047 0.39115v0.65098h-5.0151v-0.10244l0.0018-0.1965 0.0029-0.19278 0.0093-0.46565 0.0018-0.15553 0.0018-0.24493v-0.15646l-0.0018-0.16484-0.0018-0.12852-0.0047-0.18067-0.0056-0.19092-0.0084-0.20396-0.0093-0.21606-0.0065-0.11362-0.01022-0.17788-0.01211-0.18626-0.01862-0.26449-0.0149-0.20954a7.2791 7.2791 0 0 0-0.01583-0.18999l-0.01304-0.12107c-0.16587-1.4324-0.74235-2.0172-1.7295-2.2128l-0.08382-0.0149a3.9208 3.9208 0 0 0-0.17229-0.02608l-0.08848-0.0093a6.7333 6.7333 0 0 0-0.04563-0.0056l-0.09127-0.0075-0.09406-0.0065-0.09592-0.0056-0.09592-0.0038-0.09872-0.0018-0.09965-0.0018h-7.9402v-3.8798h8.1275c0.13318 0 0.2617-0.0018 0.38649-0.0075l0.12386-0.0056 0.12014-0.0075 0.11828-0.0093 0.05774-0.0056 0.11362-0.01211c0.07451-0.0093 0.14808-0.01862 0.21886-0.02979l0.10617-0.01863c1.3187-0.23469 1.9781-0.92479 1.9781-2.2705 0-1.5106-1.0747-2.4261-3.2223-2.4261h-8.1284v-3.7959zm-3.7187 15.733c0.65843 0 0.93317 0.36042 1.0319 0.705l0.01211 0.04936 0.01118 0.04936 0.0065 0.03818 0.0029 0.01863 0.0056 0.03911 0.0038 0.03725 9.33e-4 0.0177 0.0018 0.03539 9.31e-4 0.0177v1.885h-6.3814v-2.8926z" fill="#b0bec5" stroke-width=".93131"/>
</svg>
