<svg viewBox="0 0 24 24" fill="none" xmlns="http://www.w3.org/2000/svg">
  <path
    d="M12.688 2c5.223 0 7.819 2.449 7.819 6.36 0 2.926-1.827 4.834-4.294 5.152 2.083.413 3.3 1.59 3.525 3.912l.032.427.029.399.024.373.017.281.018.333.01.19.013.3.011.285.006.163.007.262.006.3.002.144.005.42V22h-5.385v-.11l.002-.211.003-.207.01-.5.002-.167.002-.263v-.168l-.002-.177-.002-.138-.005-.194-.006-.205-.009-.219-.01-.232-.007-.122-.011-.191-.013-.2-.02-.284-.016-.225a7.816 7.816 0 0 0-.017-.204l-.014-.13c-.178-1.538-.797-2.166-1.857-2.376l-.09-.016a4.21 4.21 0 0 0-.185-.028l-.095-.01a7.23 7.23 0 0 0-.049-.006l-.098-.008-.101-.007-.103-.006-.103-.004-.106-.002-.107-.002H3v-4.166h8.727c.143 0 .281-.002.415-.008l.133-.006.129-.008.127-.01.062-.006.122-.013c.08-.01.159-.02.235-.032l.114-.02c1.416-.252 2.124-.993 2.124-2.438 0-1.622-1.154-2.605-3.46-2.605H3V2h9.688ZM8.695 18.894c.707 0 1.002.387 1.108.757l.013.053.012.053.007.041.003.02.006.042.004.04.001.019.002.038.001.019V22H3v-3.106h5.695Z"
    fill="#CFD8DC" />
</svg>