<svg xmlns="http://www.w3.org/2000/svg" viewBox="0 0 24 24"><path d="M1 8.959l1.396-1.396L3.79 8.959l-1.395 1.395L1 8.96zm4.167-4.167l1.396-1.396 1.395 1.396-1.395 1.395-1.396-1.395zm.02 5.563L3.79 11.75l2.4 2.4 8.353-8.355L10.75 2 9.354 3.396 10.75 4.79 9.354 6.187l1.395 1.396-1.395 1.395-2.791-2.791-1.396 1.395 2.791 2.792-1.376 1.376-1.396-1.395zm11.102 4.327l4.394-4.394a1.33 1.33 0 000-1.877l-1.62-1.62c-.674-.621-1.524-.483-2.07.193l-.574-.575a1.233 1.233 0 00-1.744 0l-7.87 7.87c-.457.467-.534 1.151 0 1.744l1.816 1.817a1.229 1.229 0 001.744 0l7.87-7.87c.481-.481.481-1.264 0-1.745l-.574-.574c.222-.247.424-.445.736-.193l1.62 1.62c.15.15.15.394 0 .544l-4.395 4.394a1.312 1.312 0 000 1.877l1.006 1.006a1.234 1.234 0 00.03 1.712l3.632 3.633c.53.493 1.253.477 1.744 0l.605-.606c.481-.48.481-1.263 0-1.744l-3.632-3.632a1.234 1.234 0 00-1.712-.03l-1.006-1.005a.383.383 0 010-.545z" fill="#FFB300"/></svg>
