<svg xmlns="http://www.w3.org/2000/svg" viewBox="0 0 24 24"><path d="M0 8.35l1.522-1.522 1.523 1.523-1.523 1.522L0 8.351zm4.546-4.545l1.522-1.523 1.523 1.523-1.523 1.522-1.522-1.522zm.021 6.068l-1.522 1.523 2.617 2.617L14.776 4.9 10.636.76 9.114 2.281l1.522 1.522-1.523 1.523 1.523 1.523-1.523 1.522L6.07 5.327 4.546 6.849l3.045 3.045-1.502 1.502-1.522-1.523zm12.112 4.722L21.473 9.8a1.45 1.45 0 000-2.048l-1.767-1.767c-.736-.678-1.663-.527-2.258.21l-.627-.627a1.345 1.345 0 00-1.903 0l-8.585 8.586c-.499.509-.583 1.256 0 1.903l1.981 1.98a1.34 1.34 0 001.903 0l8.585-8.585a1.347 1.347 0 000-1.902l-.627-.627c.242-.27.463-.485.804-.21l1.766 1.766a.42.42 0 010 .594l-4.793 4.793a1.431 1.431 0 000 2.049l1.097 1.097a1.346 1.346 0 00.032 1.868l3.963 3.962c.578.539 1.367.521 1.902 0l.66-.66a1.347 1.347 0 000-1.903l-3.962-3.962a1.346 1.346 0 00-1.867-.032l-1.098-1.098a.418.418 0 010-.593z" fill="#FFB300"/></svg>
