<?xml version="1.0" encoding="UTF-8"?>
<svg fill="none" version="1.1" viewBox="0 0 32 32" xmlns="http://www.w3.org/2000/svg">
 <path d="m7.1195 3.4628c-0.86551 0-1.5671 0.70163-1.5671 1.5671v5.2238c0 0.86548 0.70163 1.5671 1.5671 1.5671h8.8805v-6.791c0-0.86551-0.70166-1.5671-1.5671-1.5671zm8.8805 8.3581v8.3581h8.8805c0.86548 0 1.5671-0.70166 1.5671-1.5671v-5.2238c0-0.86548-0.70166-1.5671-1.5671-1.5671zm0 8.3581h-8.8805c-0.86551 0-1.5671 0.70166-1.5671 1.5671v5.2238c0 0.86548 0.70163 1.5671 1.5671 1.5671h7.3133c0.86548 0 1.5671-0.70166 1.5671-1.5671z" fill="#ff6d00" stroke-width="1.0448"/>
</svg>
