<svg version="1.1" viewBox="0 0 100 100" xmlns="http://www.w3.org/2000/svg">
 <path d="m87.671 15.503a14.518 14.518 0 0 0-3.1893-3.1749c-3.7768-2.7512-9.1715-2.7512-19.96-2.7512h-29.058c-10.788 0-16.182 0-19.96 2.7512a14.177 14.177 0 0 0-3.1749 3.1749c-2.7512 3.7775-2.7512 9.1715-2.7512 19.975v29.043c0 10.788 0 16.179 2.7512 19.96a14.518 14.518 0 0 0 3.1749 3.1893c3.7775 2.7519 9.1715 2.7519 19.96 2.7519h29.058c10.788 0 16.179 0 19.96-2.7519a14.904 14.904 0 0 0 3.1893-3.1893c2.7519-3.7768 2.7519-9.1715 2.7519-19.96v-29.043c-0.0034-10.803-0.0034-16.197-2.7519-19.975zm-40.654 49.063c0 2.5284 0 3.807-0.41134 4.8058a5.4372 5.4372 0 0 1-2.9397 2.9397c-0.99956 0.41134-2.2624 0.41134-4.8065 0.41134-2.5284 0-3.807 0-4.8058-0.41134a5.4372 5.4372 0 0 1-2.9397-2.9397c-0.41134-0.99887-0.41134-2.2775-0.41134-4.8058v-26.662c0-3.0576 0-4.5858 0.58822-5.7464a5.4845 5.4845 0 0 1 2.381-2.3817c1.1586-0.58753 2.6902-0.58753 5.7327-0.58753h7.6139zm17.345-15.862a9.598 9.598 0 1 1 9.598-9.598 9.5911 9.5911 0 0 1-9.5849 9.598z" fill="#fff" style="fill:#ef5350;stroke-width:.68557"/>
</svg>
