<?xml version="1.0" encoding="UTF-8"?>
<svg version="1.1" viewBox="0 0 100 100" xmlns="http://www.w3.org/2000/svg">
 <path d="m35.781 10.461c-10.552 0-15.829 0.001406-19.525 2.6914a13.867 13.867 0 0 0-3.1035 3.1055c-2.691 3.695-2.6914 8.9701-2.6914 19.537v28.408c0 10.552-5.47e-4 15.824 2.6895 19.523a14.201 14.201 0 0 0 3.1055 3.1211c3.695 2.691 8.9724 2.6914 19.525 2.6914h28.422c10.552 0 15.824-4.06e-4 19.523-2.6914a14.578 14.578 0 0 0 3.1211-3.1211c2.692-3.694 2.6914-8.9704 2.6914-19.523v-28.408c-4e-3 -10.567-0.003406-15.842-2.6914-19.537a14.201 14.201 0 0 0-3.1211-3.1055c-3.694-2.69-8.9694-2.6914-19.523-2.6914h-28.422zm1.582 4.4062h25.258c9.3781 0 14.065-0.001626 17.348 2.3887a12.619 12.619 0 0 1 2.7715 2.7598c2.3887 3.2833 2.389 7.9736 2.3926 17.363v25.242c0 9.3773-5.06e-4 14.065-2.3926 17.348a12.954 12.954 0 0 1-2.7715 2.7715c-3.2869 2.3911-7.9713 2.3926-17.348 2.3926h-25.258c-9.3773 0-14.064-0.001387-17.348-2.3926a12.619 12.619 0 0 1-2.7598-2.7715c-2.3903-3.2869-2.3887-7.9713-2.3887-17.348v-25.242c-1e-6 -9.3897-0.002515-14.08 2.3887-17.363a12.322 12.322 0 0 1 2.7598-2.7598c3.2842-2.3903 7.9713-2.3887 17.348-2.3887z" fill="#ef5350" stroke-width=".67058"/>
 <path d="m39.639 29.643c-2.976 0-4.4744-7.81e-4 -5.6074 0.57422a5.365 5.365 0 0 0-2.3301 2.3301c-0.576 1.135-0.57617 2.6311-0.57617 5.6211v26.078c0 2.473 0.0013 3.7242 0.4043 4.7012a5.318 5.318 0 0 0 2.875 2.875c0.976 0.402 2.2282 0.40234 4.7012 0.40234 2.488 0 3.7242-3.44e-4 4.7012-0.40234a5.318 5.318 0 0 0 2.875-2.877c0.402-0.976 0.40234-2.2262 0.40234-4.6992v-34.604h-7.4453zm24.412 0.3125a9.388 9.388 0 0 0 0 18.775h0.011719a9.381 9.381 0 0 0 9.375-9.3867 9.388 9.388 0 0 0-9.3867-9.3887z" fill="#ef5350" stroke-width=".67058"/>
</svg>
