<svg version="1.1" viewBox="0 0 100 100" xmlns="http://www.w3.org/2000/svg">
 <path d="m86.847 16.258a14.201 14.201 0 0 0-3.1196-3.1055c-3.6942-2.691-8.971-2.691-19.524-2.691h-28.423c-10.552 0-15.828 0-19.524 2.691a13.867 13.867 0 0 0-3.1055 3.1055c-2.691 3.6949-2.691 8.971-2.691 19.538v28.408c0 10.552 0 15.825 2.691 19.524a14.201 14.201 0 0 0 3.1055 3.1196c3.6949 2.6917 8.971 2.6917 19.524 2.6917h28.423c10.552 0 15.825 0 19.524-2.6917a14.578 14.578 0 0 0 3.1196-3.1196c2.6917-3.6942 2.6917-8.971 2.6917-19.524v-28.408c-0.0034-10.567-0.0034-15.843-2.6917-19.538zm-39.765 47.99c0 2.4731 0 3.7238-0.40234 4.7007a5.3183 5.3183 0 0 1-2.8754 2.8754c-0.9777 0.40235-2.2129 0.40235-4.7014 0.40235-2.4731 0-3.7238 0-4.7007-0.40235a5.3183 5.3183 0 0 1-2.8754-2.8754c-0.40234-0.97703-0.40234-2.2277-0.40234-4.7007v-26.079c0-2.9907 0-4.4855 0.57536-5.6207a5.3646 5.3646 0 0 1 2.3289-2.3296c1.1333-0.57468 2.6314-0.57468 5.6073-0.57468h7.4474zm16.966-15.515a9.3881 9.3881 0 1 1 9.3881-9.3881 9.3814 9.3814 0 0 1-9.3753 9.3881z" fill="#fff" style="fill:#ef5350;stroke-width:.67058"/>
</svg>
