<?xml version="1.0" encoding="UTF-8"?>
<svg width="172px" height="193px" version="1.1" viewBox="0 0 172 193" xmlns="http://www.w3.org/2000/svg">
 <title>Group</title>
 <desc>Created with Sketch.</desc>
 <g transform="matrix(.82795 0 0 .82795 14.767 16.713)" fill="none">
  <g id="Group">
   <path id="Shape" d="m171.39 55.799c-0.975-6.147-4.673-11.642-10.15-14.805l-64.859-37.448c-3.164-1.826-6.766-2.79-10.417-2.79s-7.253 0.964-10.415 2.788l-64.859 37.448c-6.427 3.713-10.418 10.625-10.418 18.043v74.89c0 7.418 3.991 14.331 10.416 18.042l64.859 37.446c3.165 1.827 6.767 2.791 10.417 2.791s7.252-0.964 10.415-2.79l64.859-37.445c5.479-3.166 9.178-8.66 10.152-14.808zm-16.516 85.147-64.857 37.444c-1.254 0.724-2.654 1.087-4.054 1.087s-2.8-0.363-4.054-1.087l-64.857-37.444c-2.508-1.449-4.053-4.125-4.053-7.021v-74.89c0-2.896 1.545-5.572 4.053-7.021l64.857-37.446c1.254-0.725 2.654-1.086 4.054-1.086s2.8 0.361 4.054 1.086l64.857 37.446c2.508 1.448 4.053 4.124 4.053 7.021v74.89c0 2.896-1.545 5.572-4.053 7.021z" fill="#83e8c2"/>
   <path d="m158.93 59.035c0-2.896-1.545-5.572-4.053-7.021l-64.857-37.446c-1.254-0.725-2.654-1.086-4.054-1.086s-2.8 0.361-4.054 1.086l-64.857 37.446c-2.508 1.448-4.053 4.124-4.053 7.021v74.89c0 2.896 1.545 5.572 4.053 7.021l64.857 37.444c1.254 0.724 2.654 1.087 4.054 1.087s2.8-0.363 4.054-1.087l64.857-37.444c2.508-1.449 4.053-4.125 4.053-7.021zm-46.766 31.681c0.119-0.069 0.242-0.118 0.365-0.149 0.044-0.012 0.088-0.01 0.131-0.018 0.076-0.012 0.152-0.029 0.228-0.029 5e-3 0 9e-3 1e-3 0.015 1e-3 0.02 1e-3 0.038 5e-3 0.059 6e-3 0.093 5e-3 0.184 0.019 0.273 0.04 0.033 9e-3 0.066 0.02 0.1 0.03 0.077 0.025 0.15 0.057 0.223 0.095 0.028 0.014 0.057 0.027 0.084 0.043 0.094 0.057 0.184 0.122 0.263 0.199 7e-3 8e-3 0.013 0.017 0.021 0.024 0.07 0.071 0.133 0.15 0.188 0.235 0.018 0.029 0.033 0.059 0.05 0.09 0.04 0.072 0.072 0.148 0.099 0.229 0.012 0.033 0.023 0.065 0.032 0.099 0.028 0.115 0.049 0.234 0.049 0.361v16.209l-3.278 1.893c-0.325 0.188-0.556 0.487-0.678 0.83-0.058 0.164-0.098 0.334-0.098 0.514v3.785l-14.038 8.104c-3e-3 2e-3 -7e-3 2e-3 -0.01 4e-3 -0.116 0.065-0.235 0.114-0.354 0.146-0.045 0.012-0.09 0.011-0.135 0.018-0.074 0.012-0.15 0.029-0.225 0.029-4e-3 0-9e-3 -1e-3 -0.014-1e-3 -0.02-1e-3 -0.039-5e-3 -0.059-6e-3 -0.093-5e-3 -0.184-0.019-0.273-0.041-0.034-8e-3 -0.066-0.019-0.1-0.03-0.077-0.024-0.151-0.056-0.223-0.094-0.029-0.015-0.057-0.027-0.084-0.044-0.094-0.057-0.184-0.121-0.263-0.198-9e-3 -8e-3 -0.015-0.019-0.023-0.027-0.069-0.07-0.13-0.148-0.185-0.232-0.019-0.029-0.034-0.06-0.051-0.09-0.039-0.072-0.071-0.148-0.098-0.229-0.012-0.034-0.023-0.066-0.033-0.101-0.028-0.114-0.048-0.232-0.048-0.358 0 0-1e-3 -1e-3 -1e-3 -2e-3v-20.053c0-0.389 0.156-0.755 0.424-1.023 0.088-0.089 0.189-0.168 0.303-0.232zm-26.924-59.347c0.225-0.13 0.475-0.195 0.726-0.195s0.501 0.065 0.726 0.195l45.741 26.41c0.967 0.558 0.967 1.954 0 2.512l-17.366 10.027c-0.225 0.129-0.475 0.193-0.726 0.193s-0.501-0.064-0.726-0.193l-15.49-8.943 1.727-0.996c1.035-0.598 1.035-2.091 0-2.688l-13.111-7.57c-0.239-0.139-0.508-0.207-0.775-0.207s-0.535 0.068-0.775 0.207l-3.278 1.893-14.038-8.104c-0.967-0.559-0.967-1.954 0-2.513zm-27.65 16.189c0.251 0 0.501 0.065 0.726 0.194l15.489 8.942-1.727 0.997c-1.034 0.597-1.034 2.09 0 2.688l1.727 0.996-15.488 8.943c-0.225 0.129-0.475 0.193-0.726 0.193s-0.501-0.064-0.726-0.193l-17.366-10.027c-0.968-0.558-0.968-1.954 0-2.512l17.366-10.027c0.225-0.129 0.475-0.194 0.725-0.194zm-9.56 92.328c-0.241 0-0.489-0.062-0.724-0.196l-17.365-10.026c-0.449-0.259-0.726-0.738-0.726-1.256v-52.818c0-0.847 0.694-1.453 1.452-1.453 0.242 0 0.49 0.062 0.724 0.197l17.366 10.025c0.449 0.26 0.726 0.738 0.726 1.257v17.886l-1.727-0.997c-0.25-0.145-0.515-0.21-0.773-0.21-0.811-1e-3 -1.554 0.647-1.554 1.554v15.139c0 0.555 0.295 1.067 0.775 1.344l3.278 1.894v16.209c1e-3 0.845-0.694 1.451-1.452 1.451zm29.828 14.929c0 0.847-0.694 1.453-1.452 1.453-0.242 0-0.49-0.062-0.725-0.196l-17.365-10.026c-0.449-0.26-0.726-0.738-0.726-1.257v-17.885l1.726 0.996c0.25 0.145 0.515 0.211 0.773 0.211 0.811 0 1.554-0.648 1.554-1.555v-1.993l15.489 8.942c0.449 0.26 0.726 0.738 0.726 1.257zm0-32.768c0 0.127-0.02 0.246-0.049 0.36-9e-3 0.035-0.021 0.067-0.032 0.101-0.026 0.08-0.059 0.157-0.099 0.229-0.017 0.03-0.032 0.061-0.05 0.09-0.056 0.085-0.117 0.164-0.188 0.235-8e-3 8e-3 -0.014 0.018-0.021 0.025-0.08 0.076-0.169 0.142-0.264 0.199-0.026 0.016-0.055 0.028-0.082 0.043-0.072 0.037-0.147 0.069-0.225 0.095-0.033 0.011-0.064 0.021-0.099 0.029-0.091 0.023-0.183 0.037-0.278 0.041-0.018 1e-3 -0.036 6e-3 -0.055 6e-3 -5e-3 0-0.01 1e-3 -0.015 1e-3 -0.077 0-0.155-0.018-0.233-0.03-0.043-7e-3 -0.084-5e-3 -0.125-0.017-0.124-0.032-0.247-0.081-0.366-0.149l-14.035-8.104v-3.784c0-0.277-0.074-0.544-0.208-0.775-0.134-0.232-0.328-0.43-0.568-0.568l-3.276-1.892v-16.206c0-0.127 0.02-0.246 0.049-0.361 9e-3 -0.034 0.021-0.066 0.032-0.1 0.026-0.08 0.059-0.156 0.099-0.229 0.017-0.03 0.032-0.062 0.051-0.091 0.054-0.084 0.116-0.163 0.187-0.234 8e-3 -8e-3 0.014-0.018 0.021-0.025 0.079-0.076 0.168-0.142 0.263-0.199 0.027-0.016 0.056-0.029 0.084-0.043 0.072-0.038 0.146-0.069 0.224-0.095 0.033-0.011 0.064-0.021 0.099-0.03 0.091-0.022 0.184-0.036 0.278-0.041 0.019 0 0.036-5e-3 0.055-5e-3 5e-3 0 0.01-1e-3 0.015-1e-3 0.078 0 0.157 0.018 0.236 0.03 0.04 7e-3 0.081 5e-3 0.122 0.017 0.124 0.031 0.246 0.08 0.366 0.149l17.361 10.023c0.226 0.13 0.407 0.314 0.532 0.532 0.125 0.217 0.194 0.467 0.194 0.727zm-9.984-45.373c-0.241-0.14-0.423-0.332-0.544-0.55-0.242-0.437-0.242-0.978 0-1.413 0.121-0.219 0.303-0.41 0.544-0.55l14.038-8.104 3.277 1.892c0.48 0.276 1.071 0.276 1.551 0l3.278-1.893 14.038 8.105c0.968 0.558 0.968 1.954 0 2.513l-17.365 10.026c-0.225 0.13-0.475 0.194-0.726 0.194s-0.501-0.064-0.726-0.194zm74.842 51.733c0 0.518-0.276 0.997-0.726 1.256l-45.741 26.409c-0.233 0.135-0.481 0.196-0.724 0.196-0.758 0-1.453-0.606-1.453-1.453v-20.053c0-0.519 0.277-0.997 0.727-1.257l15.488-8.941v1.992c0 0.906 0.743 1.555 1.553 1.555 0.26 0 0.523-0.066 0.774-0.21l13.11-7.57c0.48-0.276 0.776-0.789 0.776-1.344v-3.784l14.038-8.105c0.234-0.135 0.482-0.196 0.724-0.196 0.758 0 1.453 0.606 1.453 1.453v20.052zm0-32.764c0 0.519-0.276 0.997-0.726 1.256l-15.489 8.943v-1.993c0-0.906-0.744-1.554-1.554-1.554-0.259-1e-3 -0.523 0.065-0.773 0.21l-1.727 0.996v-17.885c0-0.519 0.277-0.997 0.727-1.257l17.365-10.025c0.234-0.135 0.482-0.197 0.724-0.197 0.758 0 1.453 0.606 1.453 1.453z" fill="#111d5a"/>
   <g fill="#83e8c2">
    <path d="m59.402 90.568c0.123 0.031 0.247 0.08 0.366 0.149-0.12-0.069-0.242-0.117-0.366-0.149z"/>
    <path d="m94.485 123.06c-0.069-0.07-0.13-0.148-0.185-0.232 0.055 0.084 0.116 0.162 0.185 0.232z"/>
    <path d="m94.771 123.29c-0.094-0.057-0.184-0.121-0.263-0.198 0.08 0.077 0.17 0.141 0.263 0.198z"/>
    <path d="m77.775 122.51c-0.026 0.08-0.059 0.157-0.099 0.229 0.041-0.072 0.073-0.149 0.099-0.229z"/>
    <path d="m77.072 123.33c-0.072 0.037-0.147 0.069-0.225 0.095 0.078-0.026 0.153-0.058 0.225-0.095z"/>
    <path d="m77.418 123.09c-0.079 0.076-0.169 0.142-0.264 0.199 0.095-0.058 0.184-0.123 0.264-0.199z"/>
    <path d="m77.856 122.05c0 0.127-0.02 0.246-0.049 0.36 0.03-0.114 0.049-0.233 0.049-0.36z"/>
    <path d="m76.749 123.45c-0.091 0.022-0.184 0.037-0.278 0.041 0.095-4e-3 0.187-0.017 0.278-0.041z"/>
    <path d="m94.119 122.41c-0.028-0.114-0.048-0.232-0.048-0.358 0 0.126 0.02 0.244 0.048 0.358z"/>
    <path d="m77.131 133.51-15.489-8.942v1.993c0 0.906-0.743 1.555-1.554 1.555-0.259 0-0.523-0.066-0.773-0.211l-1.726-0.996v17.885c0 0.519 0.276 0.997 0.726 1.257l17.365 10.026c0.234 0.135 0.482 0.196 0.725 0.196 0.758 0 1.452-0.606 1.452-1.453v-20.053c-1e-3 -0.519-0.277-0.997-0.726-1.257z"/>
    <path d="m94.25 122.74c-0.039-0.072-0.071-0.148-0.098-0.229 0.027 0.081 0.059 0.157 0.098 0.229z"/>
    <path d="m110.28 111.42c0-0.18 0.04-0.35 0.098-0.514-0.058 0.164-0.098 0.334-0.098 0.514z"/>
    <path d="m94.494 100.98c0.088-0.089 0.189-0.168 0.303-0.232l17.365-10.026-17.365 10.026c-0.113 0.064-0.215 0.143-0.303 0.232z"/>
    <path d="m77.627 122.83c-0.055 0.085-0.117 0.164-0.188 0.235 0.071-0.071 0.132-0.15 0.188-0.235z"/>
    <path d="m58.027 90.936c0.079-0.076 0.168-0.142 0.263-0.199-0.095 0.057-0.184 0.122-0.263 0.199z"/>
    <path d="m58.374 90.693c0.072-0.038 0.147-0.07 0.224-0.095-0.077 0.026-0.152 0.057-0.224 0.095z"/>
    <path d="m59.044 90.521c-5e-3 0-0.01 1e-3 -0.015 1e-3 0.083-1e-3 0.167 0.015 0.251 0.029-0.079-0.012-0.158-0.03-0.236-0.03z"/>
    <path d="m57.819 91.195c0.054-0.084 0.116-0.163 0.187-0.234-0.07 0.071-0.133 0.15-0.187 0.234z"/>
    <path d="m58.696 90.568c0.091-0.021 0.184-0.036 0.278-0.041-0.094 5e-3 -0.187 0.019-0.278 0.041z"/>
    <path d="m57.589 91.977c0-0.127 0.02-0.246 0.049-0.361-0.03 0.114-0.049 0.234-0.049 0.361z"/>
    <path d="m76.043 123.46c-0.124-0.032-0.247-0.081-0.366-0.149 0.119 0.068 0.242 0.117 0.366 0.149z"/>
    <path d="m57.67 91.516c0.026-0.08 0.059-0.156 0.099-0.229-0.04 0.072-0.073 0.149-0.099 0.229z"/>
    <polygon points="75.677 123.31 61.642 115.2"/>
    <path d="m76.401 123.5c5e-3 0 0.01-1e-3 0.015-1e-3 -0.082 1e-3 -0.166-0.016-0.248-0.029 0.078 0.012 0.156 0.03 0.233 0.03z"/>
    <path d="m112.16 90.716c0.119-0.069 0.242-0.118 0.365-0.149-0.123 0.031-0.246 0.079-0.365 0.149z"/>
    <path d="m77.662 101.27c-0.125-0.218-0.307-0.402-0.532-0.532 0.225 0.13 0.407 0.315 0.532 0.532z"/>
    <path d="m113.64 90.734c0.094 0.057 0.184 0.122 0.263 0.199-0.08-0.077-0.17-0.142-0.263-0.199z"/>
    <path d="m96.237 123.31c-0.116 0.065-0.235 0.114-0.354 0.146 0.119-0.032 0.238-0.081 0.354-0.146z"/>
    <path d="m113.33 90.597c0.076 0.025 0.15 0.057 0.223 0.095-0.073-0.039-0.146-0.07-0.223-0.095z"/>
    <path d="m112.89 90.52c-0.075 0-0.151 0.018-0.228 0.029 0.081-0.014 0.162-0.029 0.242-0.028-5e-3 0-9e-3 -1e-3 -0.014-1e-3z"/>
    <path d="m141.26 74.137c-0.241 0-0.489 0.062-0.724 0.197l-17.365 10.025c-0.449 0.26-0.727 0.738-0.727 1.257v17.885l1.727-0.996c0.25-0.145 0.515-0.211 0.773-0.21 0.81 0 1.554 0.647 1.554 1.554v1.993l15.489-8.943c0.449-0.259 0.726-0.737 0.726-1.256v-20.053c0-0.847-0.695-1.453-1.453-1.453z"/>
    <path d="m112.96 90.526c0.092 5e-3 0.184 0.019 0.273 0.04-0.089-0.021-0.18-0.035-0.273-0.04z"/>
    <path d="m95.523 123.5c0.074 0 0.15-0.018 0.225-0.029-0.08 0.013-0.159 0.028-0.238 0.028 5e-3 0 0.01 1e-3 0.013 1e-3z"/>
    <path d="m95.451 123.5c-0.093-5e-3 -0.184-0.019-0.273-0.041 0.09 0.023 0.18 0.036 0.273 0.041z"/>
    <path d="m85.238 86.7c0.225 0.13 0.475 0.194 0.726 0.194-0.251 1e-3 -0.501-0.064-0.726-0.194z"/>
    <path d="m95.078 123.43c-0.077-0.024-0.151-0.057-0.223-0.094 0.072 0.038 0.146 0.069 0.223 0.094z"/>
    <path d="m141.26 106.9c-0.241 0-0.489 0.062-0.724 0.196l-14.038 8.105v3.784c0 0.555-0.296 1.067-0.776 1.344l-13.11 7.57c-0.251 0.144-0.515 0.21-0.774 0.21-0.81 0-1.553-0.648-1.553-1.555v-1.992l-15.488 8.941c-0.449 0.26-0.727 0.738-0.727 1.257v20.053c0 0.847 0.695 1.453 1.453 1.453 0.242 0 0.49-0.062 0.724-0.196l45.741-26.409c0.449-0.259 0.726-0.738 0.726-1.256v-20.053c-1e-3 -0.845-0.696-1.452-1.454-1.452z"/>
    <path d="m67.871 41.396c-0.967 0.559-0.967 1.954 0 2.513l14.038 8.104 3.278-1.893c0.24-0.139 0.508-0.207 0.775-0.207s0.536 0.068 0.775 0.207l13.111 7.57c1.035 0.597 1.035 2.09 0 2.688l-1.727 0.996 15.49 8.943c0.225 0.129 0.475 0.193 0.726 0.193s0.501-0.064 0.726-0.193l17.366-10.027c0.967-0.558 0.967-1.954 0-2.512l-45.741-26.41c-0.225-0.13-0.475-0.195-0.726-0.195s-0.501 0.065-0.726 0.195z"/>
    <path d="m39.497 57.779c-0.968 0.558-0.968 1.954 0 2.512l17.366 10.027c0.225 0.129 0.475 0.193 0.726 0.193s0.501-0.064 0.726-0.193l15.488-8.943-1.727-0.996c-1.034-0.598-1.034-2.091 0-2.688l1.727-0.997-15.489-8.942c-0.225-0.129-0.475-0.194-0.726-0.194-0.25 0-0.5 0.065-0.725 0.194z"/>
    <path d="m49.481 138.43v-16.209l-3.278-1.894c-0.48-0.276-0.775-0.789-0.775-1.344v-15.139c0-0.906 0.743-1.555 1.554-1.554 0.259 0 0.523 0.065 0.773 0.21l1.727 0.997v-17.886c0-0.519-0.276-0.997-0.726-1.257l-17.366-10.024c-0.233-0.135-0.481-0.197-0.724-0.197-0.758 0-1.452 0.606-1.452 1.453v52.817c0 0.518 0.276 0.997 0.726 1.256l17.365 10.026c0.234 0.135 0.482 0.196 0.724 0.196 0.757 1e-3 1.452-0.605 1.452-1.451z"/>
    <path d="m114.34 108.18-3.278 1.893 3.278-1.893v-16.209c0-0.127-0.021-0.246-0.049-0.361 0.028 0.115 0.049 0.234 0.049 0.361z"/>
    <path d="m114.11 91.193c-0.055-0.085-0.117-0.164-0.188-0.235 0.071 0.071 0.134 0.15 0.188 0.235z"/>
    <path d="m114.16 91.283c0.04 0.072 0.072 0.148 0.099 0.229-0.027-0.08-0.059-0.157-0.099-0.229z"/>
   </g>
   <g fill="#de5941">
    <path d="m94.494 100.98c-0.268 0.269-0.424 0.635-0.424 1.023v20.053c0 1e-3 1e-3 2e-3 1e-3 2e-3 0 0.126 0.02 0.244 0.048 0.358 0.01 0.034 0.021 0.066 0.033 0.101 0.026 0.08 0.059 0.156 0.098 0.229 0.017 0.03 0.032 0.061 0.051 0.09 0.055 0.084 0.115 0.162 0.185 0.232 9e-3 9e-3 0.015 0.02 0.023 0.027 0.079 0.077 0.169 0.142 0.263 0.198 0.027 0.017 0.055 0.029 0.084 0.044 0.071 0.037 0.146 0.069 0.223 0.094 0.033 0.012 0.065 0.022 0.1 0.03 0.09 0.022 0.181 0.036 0.273 0.041 0.02 1e-3 0.039 5e-3 0.059 6e-3 0.079 0 0.158-0.016 0.238-0.028 0.045-7e-3 0.09-6e-3 0.135-0.018 0.119-0.031 0.238-0.08 0.354-0.146 3e-3 -2e-3 7e-3 -2e-3 0.01-4e-3l14.038-8.104v-3.785c0-0.18 0.04-0.35 0.098-0.514 0.122-0.343 0.353-0.643 0.678-0.83l3.278-1.893v-16.209c0-0.127-0.021-0.246-0.049-0.361-9e-3 -0.033-0.021-0.065-0.032-0.099-0.026-0.081-0.059-0.157-0.099-0.229-0.017-0.031-0.032-0.061-0.05-0.09-0.055-0.085-0.117-0.164-0.188-0.235-8e-3 -8e-3 -0.014-0.017-0.021-0.024-0.079-0.077-0.169-0.143-0.263-0.199-0.027-0.016-0.056-0.029-0.084-0.043-0.072-0.038-0.146-0.069-0.223-0.095-0.033-0.011-0.066-0.021-0.1-0.03-0.09-0.021-0.182-0.035-0.273-0.04-0.021-1e-3 -0.039-5e-3 -0.059-6e-3 -0.08-1e-3 -0.161 0.015-0.242 0.028-0.043 8e-3 -0.087 6e-3 -0.131 0.018-0.123 0.031-0.246 0.08-0.365 0.149l-17.365 10.026c-0.112 0.065-0.214 0.144-0.302 0.233z"/>
    <path d="m77.13 100.74-17.361-10.023c-0.119-0.069-0.243-0.118-0.366-0.149-0.041-0.012-0.082-0.01-0.122-0.017-0.084-0.015-0.168-0.03-0.251-0.029-0.019 0-0.036 5e-3 -0.055 5e-3 -0.095 5e-3 -0.188 0.02-0.278 0.041-0.034 9e-3 -0.065 0.02-0.099 0.03-0.076 0.024-0.151 0.057-0.224 0.095-0.028 0.014-0.057 0.027-0.084 0.043-0.095 0.058-0.184 0.123-0.263 0.199-8e-3 8e-3 -0.014 0.018-0.021 0.025-0.07 0.071-0.133 0.15-0.187 0.234-0.019 0.029-0.034 0.061-0.051 0.091-0.04 0.073-0.072 0.149-0.099 0.229-0.012 0.033-0.023 0.065-0.032 0.1-0.029 0.115-0.049 0.234-0.049 0.361v16.206l3.276 1.892c0.24 0.139 0.435 0.336 0.568 0.568 0.134 0.231 0.208 0.498 0.208 0.775v3.784l14.035 8.104c0.119 0.068 0.242 0.117 0.366 0.149 0.041 0.012 0.082 0.01 0.125 0.017 0.082 0.014 0.166 0.03 0.248 0.029 0.019 0 0.037-5e-3 0.055-6e-3 0.095-4e-3 0.188-0.019 0.278-0.041 0.034-8e-3 0.065-0.019 0.099-0.029 0.077-0.025 0.152-0.058 0.225-0.095 0.027-0.015 0.056-0.027 0.082-0.043 0.095-0.058 0.185-0.123 0.264-0.199 8e-3 -8e-3 0.014-0.018 0.021-0.025 0.07-0.071 0.133-0.15 0.188-0.235 0.018-0.029 0.033-0.06 0.05-0.09 0.04-0.072 0.072-0.149 0.099-0.229 0.012-0.033 0.023-0.065 0.032-0.101 0.029-0.114 0.049-0.233 0.049-0.36v-20.047c0-0.26-0.069-0.51-0.194-0.727s-0.307-0.402-0.532-0.532z"/>
    <path d="m86.689 86.7 17.365-10.026c0.968-0.559 0.968-1.955 0-2.513l-14.038-8.105-3.278 1.893c-0.479 0.276-1.07 0.276-1.551 0l-3.277-1.892-14.038 8.104c-0.241 0.14-0.423 0.331-0.544 0.55-0.242 0.436-0.242 0.977 0 1.413 0.121 0.218 0.303 0.41 0.544 0.55l17.366 10.026c0.225 0.13 0.475 0.194 0.726 0.194s0.501-0.064 0.725-0.194z"/>
   </g>
  </g>
 </g>
</svg>
