<?xml version="1.0" encoding="UTF-8" standalone="no"?>
<svg
   xmlns:dc="http://purl.org/dc/elements/1.1/"
   xmlns:cc="http://creativecommons.org/ns#"
   xmlns:rdf="http://www.w3.org/1999/02/22-rdf-syntax-ns#"
   xmlns:svg="http://www.w3.org/2000/svg"
   xmlns="http://www.w3.org/2000/svg"
   xmlns:sodipodi="http://sodipodi.sourceforge.net/DTD/sodipodi-0.dtd"
   xmlns:inkscape="http://www.inkscape.org/namespaces/inkscape"
   id="svg4"
   viewBox="0 0 24 24"
   height="24"
   width="24"
   version="1.1"
   sodipodi:docname="restructuredtext.svg"
   inkscape:version="0.92.5 (2060ec1f9f, 2020-04-08)">
  <sodipodi:namedview
     pagecolor="#ffffff"
     bordercolor="#666666"
     borderopacity="1"
     objecttolerance="10"
     gridtolerance="10"
     guidetolerance="10"
     inkscape:pageopacity="0"
     inkscape:pageshadow="2"
     inkscape:window-width="1315"
     inkscape:window-height="892"
     id="namedview8"
     showgrid="false"
     inkscape:zoom="13.906433"
     inkscape:cx="-8.4765133"
     inkscape:cy="18.437017"
     inkscape:window-x="0"
     inkscape:window-y="27"
     inkscape:window-maximized="0"
     inkscape:current-layer="layer3" />
  <metadata
     id="metadata10">
    <rdf:RDF>
      <cc:Work
         rdf:about="">
        <dc:format>image/svg+xml</dc:format>
        <dc:type
           rdf:resource="http://purl.org/dc/dcmitype/StillImage" />
        <dc:title></dc:title>
      </cc:Work>
    </rdf:RDF>
  </metadata>
  <defs
     id="defs8" />
  <g
     style="display:none"
     id="layer2" />
  <g
     style="display:inline;fill:#0068e0"
     id="layer3">
    <path
       inkscape:connector-curvature="0"
       id="path4862"
       d="m 15.999731,19.074572 c 0.04203,-1.167836 0.05545,-1.238045 0.286388,-1.498596 0.133261,-0.150346 0.342005,-0.553851 0.463878,-0.896679 0.346714,-0.975313 0.649741,-4.016889 0.400195,-4.016889 -0.06263,0 -0.772794,0.638037 -1.578139,1.417861 -3.131272,3.032035 -5.8937643,4.833536 -8.470676,5.523972 -1.902596,0.509766 -4.4321487,0.27393 -5.6546338,-0.527194 -0.99477899,-0.651903 -1.36825615,-1.449773 -1.31902031,-2.817864 0.0267431,-0.743097 0.0675591,-0.931584 0.29166871,-1.346914 0.34913799,-0.647033 0.8867677,-1.072486 1.6151911,-1.278178 1.2207444,-0.344714 2.1378224,-0.121068 2.4867201,0.60643 0.2175546,0.453633 0.2083869,0.774172 -0.036303,1.268533 C 4.0021367,16.48467 2.9271407,16.42109 2.7048699,15.403773 2.5941646,14.897046 2.444121,14.816759 2.0383193,15.047104 c -0.5482842,0.311222 -0.7147258,0.617487 -0.7414564,1.364345 -0.020562,0.574472 0.00987,0.718258 0.2188698,1.034125 0.5469145,0.826575 1.5505349,1.18026 3.3846765,1.192793 1.5800168,0.01075 2.3559358,-0.184009 3.9609129,-0.994438 1.5659009,-0.790698 3.0383439,-1.844052 4.6071159,-3.295831 1.260862,-1.166835 1.261801,-1.25693 0.0118,-1.132685 -0.536873,0.05336 -1.232328,0.03775 -2.152442,-0.04832 C 9.3411149,12.98123 8.6473561,12.84908 6.7069717,12.286899 5.990939,12.079445 4.6303331,11.702368 3.6834029,11.448949 2.7364943,11.195531 1.7734091,10.934087 1.543236,10.867963 l -0.4184962,-0.120226 3.44e-5,-0.7564461 3.43e-5,-0.7564468 0.4520369,-0.056262 C 1.8254653,9.1476388 2.2846751,9.0639966 2.5973104,8.9927112 2.9099466,8.9214262 3.5706519,8.7733696 4.0655434,8.6636987 5.0641338,8.4424038 5.4171846,8.3489637 7.0063382,7.8853707 8.0082941,7.593077 8.6947515,7.4305296 10.57886,7.0394279 c 1.166617,-0.2421654 2.784354,-0.1891055 4.303751,0.141158 1.227775,0.2668746 3.774122,0.9591921 4.593735,1.2489734 1.005765,0.3555975 1.619597,0.4469989 2.667686,0.3972251 l 1.038434,-0.049315 0.234979,0.5710965 c 0.129237,0.3141024 0.244848,0.6263286 0.256911,0.6938341 0.01403,0.07857 -0.286318,0.232043 -0.834644,0.426478 -1.499403,0.531687 -2.667295,1.199064 -3.341434,1.909421 -0.412062,0.434203 -0.558752,0.724026 -0.573472,1.133045 -0.0132,0.366797 0.107805,0.602514 0.55356,1.078334 0.202593,0.216256 0.349437,0.40453 0.326322,0.418385 -0.02312,0.01386 -0.20852,0.107649 -0.41201,0.208422 -0.570409,0.282483 -0.822047,0.671371 -1.126496,1.740921 -0.149991,0.526934 -0.379091,1.152354 -0.50911,1.389825 -0.251569,0.45948 -1.095105,1.4224 -1.53587,1.753243 l -0.265567,0.199336 z m -1.50306,-7.526674 c 1.532641,-0.263208 3.377402,-0.836277 4.036717,-1.253995 0.237919,-0.150738 0.307796,-0.3674089 0.150259,-0.4659176 C 18.523341,9.727745 17.36514,9.3137609 16.17683,8.9319556 14.42444,8.3689107 14.422179,8.3682979 14.321145,8.4287546 c -0.05184,0.031015 -0.09967,0.2838223 -0.106328,0.5617926 -0.01594,0.6679495 -0.320585,1.2445828 -0.841407,1.5927998 -0.348298,0.23287 -0.482788,0.266059 -1.078126,0.266059 -0.619995,0 -0.711218,-0.02546 -1.030877,-0.287762 C 10.71129,10.10778 10.508665,9.6539266 10.551962,8.965856 10.572058,8.6458073 10.564312,8.3590718 10.534706,8.3286661 10.447627,8.2393209 9.0249446,8.5521688 7.3409602,9.0309725 6.4794511,9.275924 5.5398178,9.5376954 5.2528881,9.6126887 4.8519207,9.7174871 4.729722,9.7900009 4.7248258,9.9260511 c -0.00376,0.1044879 0.070157,0.1899669 0.1804132,0.2086299 0.1027322,0.01739 0.6678165,0.17652 1.2557446,0.35362 0.587928,0.177101 1.2617312,0.379631 1.4973402,0.450065 0.5380591,0.160852 2.0542658,0.466394 2.9750042,0.599515 0.385581,0.05575 0.806212,0.116683 0.934734,0.135411 0.656656,0.09568 1.968332,0.03952 2.928616,-0.125394 z M 1.212874,7.5372385 1.2679818,6.7675199 2.0245543,6.6317432 C 2.8597193,6.4818619 5.4576193,5.8450738 6.7170057,5.4815458 7.1608837,5.3534183 7.6307479,5.2211992 7.7611483,5.1877256 7.891549,5.1542512 8.2330526,5.0641085 8.5200437,4.9874071 9.3685464,4.7606368 10.201795,4.6028045 11.460093,4.4305093 c 1.116473,-0.1528756 1.240672,-0.1532107 2.159818,-0.00582 1.794894,0.2878077 3.150339,0.6276214 6.29023,1.5769776 0.970469,0.2934238 1.763651,0.3676337 2.705388,0.2531149 0.717314,-0.087228 0.761667,-0.081933 0.888809,0.1061106 0.186679,0.2761031 0.526234,1.1968119 0.471781,1.2792439 C 23.872926,7.7963708 22.676803,7.962625 21.755898,7.9487373 20.944142,7.9364878 20.6056,7.8827292 19.840649,7.6446022 17.956731,7.0581454 16.466505,6.627202 15.698699,6.4468335 15.265188,6.3449963 14.597887,6.1890421 14.215808,6.1002692 13.297017,5.8867964 11.57637,5.8924369 10.576128,6.1122007 9.1603662,6.4232584 8.0294207,6.7032134 7.0386391,6.987873 6.4903462,7.1454021 5.8281332,7.335382 5.567053,7.4100507 4.7765467,7.6361357 2.2867835,8.1721951 1.7043042,8.241721 l -0.546539,0.065237 z"
       style="fill:#3366cc;stroke-width:0.09346631" />
  </g>
</svg>
