<svg id="uuid-e797b824-e8a6-4a12-858a-a862380e0f48" xmlns="http://www.w3.org/2000/svg" viewBox="0 0 24 24"><path d="m5.98,4.09c.28.16.49.41.75.6.66.47,1.36.83,2.11,1.12.11.04.23.09.34.13-.31.19-.63.37-.9.61-.84.74-1.28,1.7-1.45,2.79-.04.25-.05.52-.15.76-.31-.19-.6-.43-.86-.69-.56-.57-.92-1.25-1.05-2.04-.07-.42-.04-.85.02-1.28.09-.61.32-1.17.6-1.71.08-.14.19-.23.33-.31h.25Z" style="fill:#889fae;"/><path d="m14.84,5.94c.89-.33,1.73-.73,2.5-1.3.15-.11.29-.23.42-.35.09-.09.18-.15.3-.19h.19c.15.06.27.15.35.3.12.24.27.48.36.74.1.26.16.53.21.8.06.32.12.64.1.97-.04.63-.18,1.24-.52,1.79-.35.58-.83,1.02-1.38,1.4-.02.01-.05.02-.07.03,0-.21-.06-.41-.09-.62-.08-.55-.21-1.09-.45-1.6-.33-.7-.82-1.26-1.47-1.68-.14-.09-.32-.15-.44-.28Z" style="fill:#627881;"/><path d="m6.69,10.11c.1-.24.11-.51.15-.76.16-1.1.6-2.05,1.45-2.79.27-.24.59-.42.9-.61.37-.14.73-.3,1.12-.38.36-.08.72-.14,1.09-.15.2,0,.41-.03.61-.02,0,.85,0,1.7,0,2.55-.01.01-.02.02-.03.03-.23,0-.35.1-.43.36-.1.32-.2.64-.3.95-.45,1.41-.91,2.82-1.36,4.23-.17.53-.05,1.01.4,1.34.52.37,1.08.58,1.72.58h0c0,1.49,0,2.97,0,4.45-.7.03-1.36-.1-2.01-.35-.27-.1-.51-.25-.75-.41-.36-.24-.75-.4-1.14-.57-.63-.26-1.2-.6-1.59-1.19-.37-.55-.47-1.15-.36-1.79.09-.53.18-1.06.21-1.59.02-.39.03-.78.06-1.16.04-.6.11-1.19.16-1.79.03-.31.13-.62.11-.94Zm3.36,6.44c-.02.23.18.44.41.47.25.04.26.05.32.29,0,.02,0,.05.01.08.05.18.16.31.34.36.15.05.29,0,.41-.1.21-.17.18-.4.13-.6-.11-.55-.52-.88-1.08-.95-.31-.04-.55.17-.55.46Zm-.73-4.19c.04-.29-.22-.46-.45-.47-.24,0-.48.22-.48.46,0,.22.25.48.47.47.24-.01.5-.18.47-.46Z" style="fill:#b5d1d6;"/><path d="m12,19.9c0-1.48,0-2.96,0-4.44.57,0,1.08-.17,1.55-.47.61-.39.77-.74.58-1.41-.21-.75-.47-1.48-.7-2.23-.31-.96-.62-1.91-.92-2.87-.09-.28-.2-.49-.51-.53,0-.85,0-1.7,0-2.55.22,0,.44,0,.66.02.41.01.8.09,1.19.19.28.07.56.17.82.29.05.02.1.06.16.04.12.13.29.18.44.28.65.42,1.14.98,1.47,1.68.24.51.37,1.05.45,1.6.03.21.09.41.09.62.03.25.07.49.1.74.04.32.09.65.11.97.04.57.08,1.14.1,1.71,0,.21-.03.44.08.65-.05.68.24,1.33.19,2.01-.03.54-.2,1.02-.56,1.43-.45.52-1.05.82-1.68,1.06-.28.11-.56.24-.81.41-.54.37-1.13.62-1.78.73-.35.06-.7.1-1.05.07Zm.27-2.64c-.02.13.03.26.12.37.12.15.27.17.45.13.22-.06.32-.21.36-.41.04-.24.08-.28.32-.31.23-.04.38-.17.42-.41.03-.17-.07-.38-.23-.46-.16-.08-.32-.06-.49-.03-.48.09-.94.62-.94,1.12Zm2.87-4.42c.23,0,.44-.22.44-.46,0-.3-.16-.44-.47-.47-.22-.02-.46.22-.46.44,0,.25.23.48.5.49Z" style="fill:#889fae;"/><path d="m12,7.95c.31.04.43.25.51.53.29.96.61,1.91.92,2.87.24.74.5,1.48.7,2.23.18.67.02,1.03-.58,1.41-.47.3-.99.48-1.55.47,0,0,0,0,0,0,0-2.45,0-4.89,0-7.34,0-.04.01-.09-.03-.13.01-.01.02-.02.03-.03Z" style="fill:#d3c4c4;"/><path d="m11.97,7.98s.03.08.03.13c0,2.45,0,4.89,0,7.34-.64,0-1.2-.22-1.72-.58-.45-.32-.57-.81-.4-1.34.45-1.41.91-2.82,1.36-4.23.1-.32.2-.64.3-.95.08-.26.2-.35.43-.36Z" style="fill:#eee4e3;"/><path d="m10.05,16.56c0-.29.24-.49.55-.46.56.06.97.4,1.08.95.04.21.07.44-.13.6-.12.1-.26.15-.41.1-.18-.06-.3-.18-.34-.36,0-.02,0-.05-.01-.08-.06-.24-.07-.25-.32-.29-.23-.03-.44-.25-.41-.47Z" style="fill:#555e62;"/><path d="m9.32,12.37c.03.28-.22.45-.47.46-.22.01-.47-.25-.47-.47,0-.24.24-.47.48-.46.22,0,.49.18.45.47Z" style="fill:#555e62;"/><path d="m12.28,17.25c0-.5.46-1.04.94-1.12.17-.03.33-.05.49.03.16.08.27.29.23.46-.04.23-.19.37-.42.41-.24.04-.28.08-.32.31-.04.21-.13.36-.36.41-.18.05-.34.02-.45-.13-.09-.11-.13-.24-.12-.37Z" style="fill:#454d51;"/><path d="m15.15,12.83c-.26,0-.5-.23-.5-.49,0-.23.24-.47.46-.44.31.03.47.17.47.47,0,.24-.21.46-.44.46Z" style="fill:#454d51;"/></svg>