<svg width="736" height="636" version="1.1" xmlns="http://www.w3.org/2000/svg" xmlns:cc="http://creativecommons.org/ns#" xmlns:dc="http://purl.org/dc/elements/1.1/" xmlns:rdf="http://www.w3.org/1999/02/22-rdf-syntax-ns#" style=""><rect id="backgroundrect" width="100%" height="100%" x="0" y="0" fill="none" stroke="none"/>
 <title>RiveScript File Icon</title>
 <metadata>
  <rdf:RDF>
   <cc:Work rdf:about="">
    <dc:format>image/svg+xml</dc:format>
    <dc:type rdf:resource="http://purl.org/dc/dcmitype/StillImage"/>
    <dc:title>RiveScript Logo</dc:title>
    <dc:date>2011-10-23</dc:date>
    <dc:creator>
     <cc:Agent>
      <dc:title>Noah Petherbridge</dc:title>
     </cc:Agent>
    </dc:creator>
    <dc:description>The RiveScript logo.</dc:description>
   </cc:Work>
  </rdf:RDF>
 </metadata>
 
<g class="currentLayer" style=""><title>Layer 1</title><g id="svg_1" class="selected" fill-opacity="1">
  <path d="m528.2866943478584,40.214115142822266 l-320.07000732421875,-0.2670149803161621 l-160.26669311523438,277.0523986816406 l159.8032989501953,277.3234558105469 l320.07000732421875,0.2670062184333801 l160.26669311523438,-277.0523986816406 zm-17.12221908569336,8.896419525146484 c-34.363346099853516,26.50214958190918 -55.16129684448242,65.05009460449219 -60.15203094482422,105.85646057128906 c62.89221954345703,30.09743881225586 106.29363250732422,94.43756866455078 106.08378601074219,168.65162658691406 c38.60040283203125,13.06440258026123 81.94934844970703,11.180197715759277 120.51041412353516,-7.88541841506958 c-4.129862308502197,3.185049295425415 -8.486090660095215,6.169699192047119 -13.003198623657227,8.989973068237305 c-33.81251525878906,21.107465744018555 -72.51871490478516,27.85300636291504 -108.99534606933594,21.9013671875 c-6.174508571624756,48.82582092285156 -31.278671264648438,91.76207733154297 -67.68885040283203,121.25359344482422 c24.583845138549805,28.093448638916016 39.36632537841797,64.95391845703125 39.041072845458984,105.21818542480469 c-0.04301757365465164,5.325261116027832 -0.3523331582546234,10.599635124206543 -0.9092271327972412,15.784476280212402 c-3.9340097904205322,-43.2108039855957 -25.30517578125,-81.4369888305664 -57.05686950683594,-107.53519439697266 c-28.7894229888916,17.915245056152344 -62.788169860839844,28.205364227294922 -99.1502685546875,28.014759063720703 c-36.630516052246094,-0.19182166457176208 -70.75517272949219,-10.989591598510742 -99.49125671386719,-29.45305061340332 c-32.06557846069336,25.577970504760742 -53.98006057739258,63.3818473815918 -58.60270309448242,106.4247817993164 c-0.4728785753250122,-5.193934917449951 -0.6555196046829224,-10.471107482910156 -0.6123184561729431,-15.795844078063965 c0.32487013936042786,-40.15235900878906 15.615730285644531,-76.67707824707031 40.52570343017578,-104.3438491821289 c-35.953773498535156,-29.981151580810547 -60.43794250488281,-73.23042297363281 -65.93930053710938,-122.11920166015625 c-37.1140251159668,5.784552097320557 -76.4112777709961,-1.566731572151184 -110.37680053710938,-23.661415100097656 c-4.4640350341796875,-2.9039485454559326 -8.740961074829102,-6.004973888397217 -12.810844421386719,-9.266264915466309 c38.756038665771484,20.07137107849121 82.76248931884766,22.561494827270508 122.02301788330078,9.604635238647461 c0.9142982959747314,-73.69294738769531 44.718170166015625,-137.0791778564453 107.47399139404297,-166.4657745361328 c-4.3041181564331055,-40.76264953613281 -24.353893280029297,-79.5492935180664 -58.113948822021484,-106.60839080810547 c4.631209373474121,2.3984920978546143 9.17620849609375,5.0861287117004395 13.640592575073242,7.990164756774902 c33.59217834472656,21.85240364074707 56.1117057800293,54.319305419921875 66.03897094726562,90.11832427978516 c18.33055877685547,-5.924708843231201 37.88869094848633,-9.091397285461426 58.18476486206055,-8.985602378845215 c20.143939971923828,0.10549797862768173 39.52545928955078,3.4295148849487305 57.67502212524414,9.458620071411133 c10.513075828552246,-35.846229553222656 33.70059585571289,-68.12340545654297 67.882080078125,-89.46256256103516 c4.517457485198975,-2.820099353790283 9.134239196777344,-5.387951374053955 13.809340476989746,-7.699533939361572 zm-139.46612548828125,107.23792266845703 c-18.897130966186523,-0.09898413717746735 -37.06593704223633,2.9413704872131348 -54.0194091796875,8.624673843383789 c5.444608211517334,36.762542724609375 -1.9810817241668701,75.5832748413086 -23.839780807495117,109.18769836425781 c-21.608463287353516,33.21708679199219 -53.593605041503906,55.6159553527832 -88.92047119140625,65.71022033691406 c4.517195224761963,45.382667541503906 27.19025421142578,85.39163970947266 60.696746826171875,112.65008544921875 c28.030494689941406,-24.32154083251953 64.6924819946289,-38.92653274536133 104.71981048583984,-38.60302734375 c39.91628646850586,0.3229902982711792 76.24864959716797,15.435614585876465 103.85421752929688,40.08591079711914 c33.89033126831055,-26.778440475463867 57.112823486328125,-66.4577865600586 62.28192901611328,-111.7320327758789 c-35.839237213134766,-10.51569938659668 -68.1085433959961,-33.70146942138672 -89.44508361816406,-67.87683868408203 c-21.114459991455078,-33.823001861572266 -27.857378005981445,-72.54232025146484 -21.896120071411133,-109.03031158447266 c-16.75149917602539,-5.7520270347595215 -34.72007751464844,-8.916528701782227 -53.43185043334961,-9.014455795288086 zm78.15908813476562,19.841419219970703 c0.35432669520378113,27.905466079711914 8.101031303405762,56.07061004638672 23.959564208984375,81.4745864868164 c16.04852867126465,25.7082462310791 38.288265228271484,45.20167922973633 63.57857894897461,57.7668342590332 c-2.7101073265075684,-60.29542541503906 -37.36321258544922,-112.23040771484375 -87.53901672363281,-139.23880004882812 zm-156.9966583251953,-0.5710233449935913 c-49.92049789428711,26.408594131469727 -84.78484344482422,77.4255142211914 -88.44833374023438,137.0704345703125 c24.82603645324707,-12.12011432647705 46.7921028137207,-30.90970230102539 62.95342254638672,-55.75322341918945 c16.387771606445312,-25.191511154174805 24.663410186767578,-53.3199348449707 25.4931583404541,-81.31632995605469 zm78.40565490722656,70.34335327148438 c0.27628299593925476,-0.049050528556108475 0.4592038691043854,0.7659226655960083 0.7111015319824219,2.1486055850982666 c1.2768000364303589,7.008192539215088 8.009400367736816,27.45430564880371 12.743518829345703,38.70008087158203 c11.66108512878418,27.702619552612305 29.043855667114258,53.590980529785156 50.410125732421875,75.07878875732422 c5.098806858062744,5.12800931930542 8.837838172912598,9.274134635925293 8.30929946899414,9.213805198669434 c-0.5285652875900269,-0.06032952293753624 -3.1032981872558594,-0.8185667395591736 -5.722299575805664,-1.6847676038742065 c-2.618913412094116,-0.8661658763885498 -11.268506050109863,-2.973458766937256 -19.22150993347168,-4.682445526123047 c-35.51136016845703,-7.6308979988098145 -71.60065460205078,-7.096500873565674 -107.29912567138672,1.5882402658462524 c-6.929327011108398,1.6859042644500732 -12.732152938842773,3.0652644634246826 -12.895654678344727,3.064390182495117 c-0.16323071718215942,-0.0008743409998714924 3.7171730995178223,-4.054756164550781 8.62336254119873,-9.009208679199219 c29.429443359375,-29.719724655151367 50.66455841064453,-66.21121215820312 61.4504280090332,-105.60289764404297 c1.7107354402542114,-6.248390197753906 2.4273455142974854,-8.730119705200195 2.887773275375366,-8.812482833862305 zm-1.1848194599151611,199.53335571289062 c-30.04585075378418,-0.24305805563926697 -58.19963455200195,7.927649974822998 -82.23439025878906,22.299190521240234 c24.18164825439453,13.87753963470459 52.19203567504883,21.87950897216797 82.10760498046875,22.036014556884766 c29.676008224487305,0.1554228514432907 57.55611801147461,-7.430149555206299 81.74651336669922,-20.85040855407715 c-23.74272918701172,-14.67231559753418 -51.670928955078125,-23.242605209350586 -81.62059783935547,-23.484798431396484 z" fill="#EF5350" stroke-width="4.0946" id="svg_2"/>
 </g></g></svg>