<svg width="736" height="636" version="1.1" xmlns="http://www.w3.org/2000/svg" xmlns:cc="http://creativecommons.org/ns#" xmlns:dc="http://purl.org/dc/elements/1.1/" xmlns:rdf="http://www.w3.org/1999/02/22-rdf-syntax-ns#">
 <title>RiveScript File Icon</title>
 <metadata>
  <rdf:RDF>
   <cc:Work rdf:about="">
    <dc:format>image/svg+xml</dc:format>
    <dc:type rdf:resource="http://purl.org/dc/dcmitype/StillImage"/>
    <dc:title>RiveScript Logo</dc:title>
    <dc:date>2011-10-23</dc:date>
    <dc:creator>
     <cc:Agent>
      <dc:title>Noah Petherbridge</dc:title>
     </cc:Agent>
    </dc:creator>
    <dc:description>The RiveScript logo.</dc:description>
   </cc:Work>
  </rdf:RDF>
 </metadata>
 <g transform="translate(0,-164)">
  <path d="m552.52 166.14-366.07-0.30539-183.3 316.87 182.77 317.18 366.07 0.30538 183.3-316.87zm-19.583 10.175c-39.302 30.311-63.089 74.399-68.797 121.07 71.931 34.423 121.57 108.01 121.33 192.89 44.148 14.942 93.727 12.787 137.83-9.0187-4.7234 3.6428-9.7057 7.0564-14.872 10.282-38.672 24.141-82.941 31.856-124.66 25.049-7.0619 55.843-35.774 104.95-77.417 138.68 28.117 32.131 45.024 74.289 44.652 120.34-0.0492 6.0906-0.40297 12.123-1.0399 18.053-4.4994-49.421-28.942-93.141-65.257-122.99-32.927 20.49-71.812 32.259-113.4 32.041-41.895-0.21939-80.924-12.569-113.79-33.686-36.674 29.254-61.738 72.491-67.025 121.72-0.54084-5.9404-0.74973-11.976-0.70032-18.066 0.37156-45.923 17.86-87.697 46.35-119.34-41.121-34.29-69.124-83.755-75.416-139.67-42.448 6.6159-87.393-1.7919-126.24-27.062-5.1056-3.3213-9.9972-6.868-14.652-10.598 44.326 22.956 94.657 25.804 139.56 10.985 1.0457-84.284 51.145-156.78 122.92-190.39-4.9227-46.621-27.854-90.982-66.466-121.93 5.2968 2.7432 10.495 5.8171 15.601 9.1385 38.42 24.993 64.176 62.126 75.53 103.07 20.965-6.7762 43.334-10.398 66.547-10.277 23.039 0.12066 45.206 3.9224 65.964 10.818 12.024-40.998 38.544-77.914 77.638-102.32 5.1667-3.2254 10.447-6.1623 15.794-8.8061zm-159.51 122.65c-21.613-0.11321-42.393 3.3641-61.783 9.8642 6.2271 42.046-2.2658 86.446-27.266 124.88-24.714 37.991-61.296 63.609-101.7 75.154 5.1664 51.905 31.098 97.664 69.42 128.84 32.059-27.817 73.99-44.521 119.77-44.151 45.653 0.36941 87.207 17.654 118.78 45.847 38.761-30.627 65.321-76.009 71.233-127.79-40.99-12.027-77.897-38.545-102.3-77.632-24.149-38.684-31.861-82.968-25.043-124.7-19.159-6.5787-39.71-10.198-61.111-10.31zm89.392 22.693c0.40525 31.916 9.2653 64.129 27.403 93.184 18.355 29.403 43.791 51.698 72.716 66.069-3.0996-68.961-42.733-128.36-100.12-159.25zm-179.56-0.65309c-57.095 30.204-96.97 88.553-101.16 156.77 28.394-13.862 53.517-35.352 72.001-63.766 18.743-28.812 28.208-60.983 29.157-93.003zm89.674 80.453c0.31599-0.0561 0.5252 0.876 0.8133 2.4574 1.4603 8.0154 9.1605 31.4 14.575 44.262 13.337 31.684 33.218 61.293 57.655 85.869 5.8316 5.865 10.108 10.607 9.5035 10.538-0.60453-0.069-3.5493-0.93621-6.5447-1.9269-2.9953-0.99065-12.888-3.4008-21.984-5.3554-40.615-8.7276-81.891-8.1164-122.72 1.8165-7.9252 1.9282-14.562 3.5058-14.749 3.5048-0.18669-1e-3 4.2514-4.6375 9.8627-10.304 33.659-33.991 57.946-75.727 70.282-120.78 1.9566-7.1464 2.7762-9.9848 3.3028-10.079zm-1.3551 228.21c-34.364-0.27799-66.564 9.067-94.053 25.504 27.657 15.872 59.693 25.024 93.908 25.203 33.941 0.17776 65.828-8.498 93.495-23.847-27.155-16.781-59.097-26.583-93.351-26.86z" fill="#911" stroke-width="4.0946"/>
 </g>
</svg>