<?xml version="1.0" encoding="UTF-8" standalone="no"?>
<svg
   version="1.0"
   viewBox="0 0 24 24"
   id="svg14186"
   sodipodi:docname="reactnativeconfig.svg"
   inkscape:version="1.2.2 (732a01da63, 2022-12-09)"
   xmlns:inkscape="http://www.inkscape.org/namespaces/inkscape"
   xmlns:sodipodi="http://sodipodi.sourceforge.net/DTD/sodipodi-0.dtd"
   xmlns="http://www.w3.org/2000/svg"
   xmlns:svg="http://www.w3.org/2000/svg">
  <defs
     id="defs14190" />
  <sodipodi:namedview
     id="namedview14188"
     pagecolor="#ffffff"
     bordercolor="#000000"
     borderopacity="0.25"
     inkscape:showpageshadow="2"
     inkscape:pageopacity="0.0"
     inkscape:pagecheckerboard="0"
     inkscape:deskcolor="#d1d1d1"
     showgrid="false"
     inkscape:zoom="8.6354167"
     inkscape:cx="10.595899"
     inkscape:cy="15.401689"
     inkscape:window-width="1920"
     inkscape:window-height="1009"
     inkscape:window-x="-8"
     inkscape:window-y="-8"
     inkscape:window-maximized="1"
     inkscape:current-layer="svg14186" />
  <path
     d="M13 9h5.5L13 3.5V9M6 2h8l6 6v12a2 2 0 0 1-2 2H6a2 2 0 0 1-2-2V4c0-1.11.89-2 2-2m9 16v-2H6v2h9m3-4v-2H6v2h12z"
     fill="#757575"
     id="path14180" />
  <path
     d="m 15.922799,15.431318 c 0.691588,0 1.255602,0.564013 1.255602,1.269031 0,0.671445 -0.564014,1.242173 -1.255602,1.242173 -0.691589,0 -1.255602,-0.570728 -1.255602,-1.242173 0,-0.705018 0.564013,-1.269031 1.255602,-1.269031 m -3.108791,6.640591 c 0.423011,0.255149 1.349605,-0.134289 2.417202,-1.141457 -0.349151,-0.396152 -0.691588,-0.825877 -1.013882,-1.275745 a 15.241802,15.241802 0 0 1 -1.611468,-0.24172 c -0.342436,1.436892 -0.214862,2.423916 0.208148,2.658922 m 0.476726,-3.854095 -0.194719,-0.342437 c -0.07386,0.19472 -0.147718,0.389439 -0.194719,0.577443 0.18129,0.04029 0.382724,0.07386 0.590872,0.107431 l -0.201434,-0.342437 m 4.391251,-0.510298 0.54387,-1.007167 -0.54387,-1.007168 c -0.201434,-0.355866 -0.416296,-0.671445 -0.611015,-0.987024 -0.362581,-0.02014 -0.745304,-0.02014 -1.148171,-0.02014 -0.402867,0 -0.785591,0 -1.148171,0.02014 -0.194719,0.315579 -0.409582,0.631158 -0.611015,0.987024 l -0.543871,1.007168 0.543871,1.007167 c 0.201433,0.355866 0.416296,0.671445 0.611015,0.987024 0.36258,0.02014 0.745304,0.02014 1.148171,0.02014 0.402867,0 0.78559,0 1.148171,-0.02014 0.194719,-0.315579 0.409581,-0.631158 0.611015,-0.987024 m -1.759186,-4.51211 c -0.127575,0.147718 -0.261864,0.30215 -0.396153,0.48344 h 0.792305 c -0.134289,-0.18129 -0.268578,-0.335722 -0.396152,-0.48344 m 0,7.009886 c 0.127574,-0.147718 0.261863,-0.302151 0.396152,-0.483441 h -0.792305 c 0.134289,0.18129 0.268578,0.335723 0.396153,0.483441 m 3.102076,-8.876503 c -0.416296,-0.255149 -1.34289,0.134289 -2.410488,1.141456 0.349152,0.396153 0.691588,0.825878 1.013882,1.275746 0.550585,0.05371 1.094455,0.134289 1.611468,0.24172 0.342437,-1.436892 0.214862,-2.423917 -0.214862,-2.658922 m -0.470012,3.854094 0.194719,0.342437 c 0.07386,-0.194719 0.147718,-0.389438 0.194719,-0.577443 -0.18129,-0.04029 -0.382723,-0.07386 -0.590871,-0.107431 l 0.201433,0.342437 m 0.973595,-4.733687 c 0.987025,0.564014 1.094456,2.047907 0.67816,3.780235 1.70547,0.503584 2.934215,1.336176 2.934215,2.470918 0,1.134742 -1.228745,1.967334 -2.934215,2.470917 0.416296,1.732328 0.308865,3.216222 -0.67816,3.780236 -0.980309,0.564013 -2.316485,-0.08057 -3.605659,-1.309318 -1.289175,1.228744 -2.62535,1.873331 -3.612374,1.309318 -0.98031,-0.564014 -1.087741,-2.047908 -0.671445,-3.780236 -1.705471,-0.503583 -2.934215,-1.336175 -2.934215,-2.470917 0,-1.134742 1.228744,-1.967334 2.934215,-2.470918 -0.416296,-1.732328 -0.308865,-3.216221 0.671445,-3.780235 0.987024,-0.5640143 2.323199,0.08057 3.612374,1.309317 1.289174,-1.228744 2.62535,-1.8733313 3.605659,-1.309317 m -0.194719,6.251153 c 0.228292,0.503583 0.429725,1.007167 0.597586,1.517465 1.410035,-0.42301 2.20234,-1.02731 2.20234,-1.517465 0,-0.490155 -0.792305,-1.094456 -2.20234,-1.517466 -0.167861,0.510298 -0.369294,1.013882 -0.597586,1.517466 m -6.821881,0 c -0.228291,-0.503584 -0.429725,-1.007168 -0.597586,-1.517466 -1.410034,0.42301 -2.202339,1.027311 -2.202339,1.517466 0,0.490155 0.792305,1.094455 2.202339,1.517465 0.167861,-0.510298 0.369295,-1.013882 0.597586,-1.517465 m 6.043005,1.517465 -0.201433,0.342437 c 0.208148,-0.03357 0.409581,-0.06714 0.590871,-0.107431 -0.047,-0.188004 -0.12086,-0.382723 -0.194719,-0.577443 l -0.194719,0.342437 m -1.940476,2.712638 c 1.067598,1.007168 1.994192,1.396606 2.410488,1.141457 0.429724,-0.235006 0.557299,-1.22203 0.214862,-2.658922 -0.517013,0.107431 -1.060883,0.188004 -1.611468,0.24172 -0.322294,0.449868 -0.66473,0.879593 -1.013882,1.275745 m -3.323653,-5.747569 0.201434,-0.342437 c -0.208148,0.03357 -0.409582,0.06715 -0.590872,0.107431 0.047,0.188005 0.12086,0.382724 0.194719,0.577443 l 0.194719,-0.342437 m 1.940476,-2.712638 c -1.067597,-1.007167 -1.994191,-1.396605 -2.417202,-1.141456 -0.42301,0.235005 -0.550584,1.22203 -0.208148,2.658922 a 15.241802,15.241802 0 0 1 1.611468,-0.24172 c 0.322294,-0.449868 0.664731,-0.879593 1.013882,-1.275746 z"
     fill="#00bcd4"
     id="path15360"
     style="stroke-width:0.671445" />
</svg>
