<?xml version="1.0" encoding="UTF-8"?>
<svg width="38px" height="96px" viewBox="0 0 38 96" version="1.1" xmlns="http://www.w3.org/2000/svg" xmlns:xlink="http://www.w3.org/1999/xlink">
    <!-- Generator: Sketch 64 (93537) - https://sketch.com -->
    <title>Untitled</title>
    <desc>Created with Sketch.</desc>
    <g id="Page-1" stroke="none" stroke-width="1" fill="none" fill-rule="evenodd">
        <g id="meandering-road-top-view" transform="translate(19.104167, 48.000000) rotate(90.000000) translate(-19.104167, -48.000000) translate(-28.395833, 29.500000)" fill="#000000" fill-rule="nonzero">
            <path d="M0.5,8.89184733 L0.5,0.604166667 C1.21700507,0.619593435 1.93756152,0.625904386 2.65251052,0.695324843 C3.80072797,0.807052044 4.9562351,0.93256984 6.0874433,1.21258906 C7.22500661,1.49424445 8.35752322,1.80698712 9.45994655,2.2616093 C10.0305974,2.49675065 10.5945192,2.74170903 11.1528336,3.01985834 C11.7126434,3.29870886 12.2604906,3.59906337 12.8055341,3.9199869 C14.9378578,5.17493112 16.9430795,6.82466038 18.7826947,8.66208198 C19.7090443,9.58745433 20.6195061,10.5350319 21.5288465,11.486583 C22.3817386,12.3794657 23.238369,13.2709459 24.1452795,14.0780463 C25.021536,14.8580331 25.9505024,15.545693 26.9562908,16.0311687 C27.4932969,16.2903852 28.0510506,16.4988803 28.6162809,16.6379549 C29.0615119,16.7473447 29.513098,16.8667853 29.966927,16.9067547 C30.1945892,16.92709 30.4216907,16.9759414 30.6493529,16.9836548 C31.0790699,16.9976791 31.508787,17.0119372 31.9383171,17.026429 C31.8562615,17.0250266 32.1742036,17.03087 31.7629911,17.0238579 C32.0366343,17.0119372 32.3102775,17.0007177 32.5841077,16.995108 C32.8837321,16.9885633 33.1811135,16.9427505 33.4798033,16.9151693 C34.4654049,16.8235436 35.4575485,16.5449268 36.3842719,16.1171846 C38.3493069,15.2100439 39.9990167,13.5624183 41.5932128,11.9080143 C43.2896513,10.1479602 44.9612301,8.35214418 46.7778548,6.78445728 C47.7572882,5.93925737 48.7793382,5.17867095 49.8286777,4.47768794 C50.4234405,4.08056553 51.0357733,3.70190849 51.6600686,3.38075122 C52.6135209,2.8898995 53.5755712,2.42125298 54.5677148,2.06480114 C55.723222,1.64991457 56.8976075,1.29883872 58.0871331,1.07818918 C58.8493715,0.93701088 59.6078717,0.819907684 60.3753438,0.746747404 C60.7136595,0.714491434 61.0512276,0.683404158 61.3895433,0.65512175 C61.7065508,0.628475514 62.0272965,0.633851509 62.3448647,0.623099519 C63.076823,0.598790672 63.8061644,0.626371863 64.5381227,0.652316883 C65.1928851,0.675457035 65.8472737,0.758200611 66.4996063,0.832295846 C67.4799743,0.943555569 68.4556694,1.16794493 69.419215,1.41570817 C71.691351,2.00005546 73.8971323,2.98690115 75.9640358,4.30308497 C77.8974822,5.53442157 79.6907425,7.07031997 81.3933492,8.74646172 C82.2548394,9.59727137 83.0950213,10.4801032 83.9361378,11.3624676 C84.7538899,12.2207569 85.5708944,13.0942393 86.4411696,13.86885 C86.8606063,14.2418973 87.2826599,14.6062963 87.7234049,14.938673 C87.9334971,15.097148 88.14658,15.2488446 88.3628403,15.3937627 C88.6041473,15.5552763 88.859286,15.7219321 89.1146116,15.8451125 C89.3847034,15.9750714 89.6497486,16.1127436 89.925074,16.2249383 C90.142269,16.3137591 90.3546042,16.394399 90.5753505,16.4682605 C91.1252538,16.652213 91.6798299,16.7669788 92.2428172,16.8693564 C92.9878595,17.0117034 93.747668,17.0023539 94.5,17.0275977 L94.3209356,25.3122397 C93.9433678,25.2996178 93.5665476,25.2874634 93.1893536,25.2748415 C92.7424404,25.260116 92.2975832,25.2012138 91.8525392,25.1549335 L91.6162789,28.1491289 C92.0807621,28.1970454 92.5473014,28.2629598 93.0140276,28.2786203 C93.4278569,28.2924109 93.8418731,28.3059678 94.2560762,28.3197584 L94.076638,36.6041667 C93.3020632,36.5791566 92.530479,36.5522766 91.7575865,36.4781814 C90.615911,36.3687916 89.4815253,36.1902151 88.3577937,35.9134682 C87.2176135,35.6332152 86.0953772,35.2725561 84.9933277,34.8116229 C84.4191256,34.5718068 83.8580074,34.3027733 83.2955809,34.0225204 C82.7408178,33.7392288 82.1980173,33.4243825 81.6583944,33.0990179 C80.5970923,32.4590408 79.577846,31.6965844 78.5937397,30.888549 C77.6058952,30.0777087 76.654499,29.1979154 75.7317007,28.275348 C74.8083418,27.3532479 73.906478,26.3991257 72.9993806,25.4524831 C72.1483576,24.5649764 71.2898581,23.6849494 70.3758448,22.8995867 C69.4878128,22.1366629 68.5414633,21.4840638 67.5218432,21.0378562 C67.2556765,20.9212205 66.9867062,20.8281924 66.7147452,20.7351643 C66.4310086,20.6383964 66.1452159,20.5701447 65.8579279,20.4932446 C65.478304,20.3908669 65.0824185,20.3282249 64.6940096,20.2926966 C64.4841043,20.2730625 64.2745728,20.2499224 64.0650414,20.226081 C63.7220528,20.1868129 63.3702792,20.2036421 63.0257952,20.1882153 C63.4368208,20.1816706 63.1188788,20.1872803 63.2013082,20.1858779 C62.9343939,20.1945262 62.6678534,20.2034083 62.4011261,20.2122904 C62.2261738,20.2176664 62.0514085,20.2242111 61.8768301,20.2295871 C61.7519711,20.2337944 61.6274858,20.2623105 61.5033744,20.2775035 C61.0906666,20.3279912 60.6816971,20.3794137 60.2723537,20.4691695 C59.7403943,20.5865064 59.2144161,20.7489549 58.7018958,20.9635273 C56.7198515,21.7930667 55.0529456,23.3904384 53.457628,25.0324543 C51.762311,26.7782502 50.10662,28.5824809 48.3094344,30.1667632 C47.2843938,31.0703979 46.2158021,31.8954963 45.1092666,32.6341112 C44.7533809,32.8720574 44.3950653,33.0973817 44.0300207,33.312889 C43.7702092,33.465988 43.5107715,33.63428 43.2447917,33.771251 C42.915261,33.9411792 42.5849826,34.1073676 42.2539565,34.2728547 C41.6993804,34.5505366 41.1326548,34.7796007 40.5657423,35.0140408 C39.9956522,35.2498834 39.4089268,35.4244864 38.8283695,35.6145161 C38.537717,35.7098816 38.2384665,35.7753285 37.9438888,35.8501249 C37.6496849,35.9244539 37.3554811,36.00673 37.0588473,36.0651647 C36.2534316,36.2238735 35.4480158,36.3606107 34.6353104,36.4433543 C34.2930694,36.4781814 33.9502677,36.5225918 33.6072791,36.5457319 C33.2528887,36.5700408 32.897003,36.5721444 32.5424257,36.5845326 C31.9813075,36.6041667 31.4250492,36.5994919 30.8637441,36.5807928 C30.1607576,36.5571851 29.4658085,36.4982829 28.7643174,36.4307324 C28.1162839,36.3641168 27.4753531,36.2519221 26.8318055,36.133884 C25.6362987,35.9146369 24.4460254,35.5696382 23.2875276,35.1409611 C22.1877211,34.7342554 21.1107182,34.2319504 20.0638085,33.6471357 C18.0350356,32.5144369 16.1408413,31.0516988 14.3619734,29.3914513 C12.6462827,27.7903397 11.0520866,26.0041069 9.38106852,24.3331074 C8.56911074,23.5213322 7.73079799,22.7490588 6.82949495,22.0978622 C5.92221064,21.4415233 4.93735671,20.9361798 3.9149329,20.6409676 C3.2468995,20.4478992 2.56858579,20.3310298 1.88578613,20.2625443 C1.42391972,20.2164977 0.962800978,20.2118229 0.5,20.1872803 L0.5,11.8998334 C0.87046508,11.9122216 1.24055633,11.924376 1.61064758,11.9367642 C2.05139261,11.9514897 2.49176382,12.0103919 2.93101354,12.0555035 L3.17718029,9.06294421 C2.69475326,9.01292408 2.2119524,8.94794467 1.72784314,8.93181668 C1.3186867,8.91896104 0.909156438,8.90540418 0.5,8.89184733 Z M72.2515346,14.6317738 C74.2210556,15.9533336 75.9545032,17.7376965 77.6614089,19.5248642 C78.729066,20.6421363 79.7997139,21.74889 80.9071839,22.8049224 L82.3415679,20.3894645 C80.669989,18.7948976 79.0946713,17.0561138 77.4518774,15.4171366 C76.1756233,14.143727 74.8369397,12.9556321 73.3975091,11.9867843 L72.2515346,14.6317738 Z M52.4170735,15.6604588 C54.2570625,14.132975 56.3452743,13.0150018 58.510682,12.4650141 C59.7303009,12.1555438 60.9615085,11.9694876 62.206174,11.9278821 L62.1411276,8.92059721 C61.7179526,8.93485529 61.2988896,8.96594256 60.8768361,9.009418 C60.5902957,9.03863537 60.3007648,9.056867 60.0159066,9.10688713 C59.727871,9.15714099 59.4400222,9.20879729 59.1519866,9.25881742 C57.9757319,9.46333897 56.8194771,9.84994313 55.6949978,10.3183559 C54.0809888,10.9903553 52.5245495,11.9608393 51.1073617,13.1370135 L52.4170735,15.6604588 Z M32.6543876,28.2907747 C34.7781133,28.2185494 36.9027735,27.8064677 38.9205185,26.9654751 C40.5988262,26.2661283 42.2044241,25.2947093 43.6814246,24.0748259 L42.3717128,21.5511469 C40.5317238,23.0786307 38.443512,24.1968377 36.2782912,24.7468253 C35.0568032,25.0567631 33.822605,25.243988 32.5760703,25.2841911 L32.6543876,28.2907747 Z M12.4472184,16.8228424 C14.1187973,18.4174093 15.694115,20.1561931 17.336722,21.7949366 C18.613163,23.0685799 19.9518466,24.2569086 21.3912772,25.2255226 L22.5372517,22.5805331 C20.5677308,21.2587395 18.8344701,19.4746104 17.1273774,17.6874426 C16.0595333,16.5699369 14.9888855,15.4627157 13.8812286,14.4073845 L12.4472184,16.8228424 Z" id="Shape"></path>
        </g>
        <g id="Unknown" transform="translate(20.000000, 1.000000)" fill="#43A047" fill-rule="nonzero">
            <path d="M8,8 L2,8 L0,6 L2,4 L8,4 L8,1 L9,0 L10,1 L10,2 L16,2 L18,4 L16,6 L10,6 L10,8 L16,8 L18,10 L16,12 L10,12 L10,18 C11.1045695,18 12,18.8954305 12,20 L6,20 C6,18.8954305 6.8954305,18 8,18 L8,8 Z" id="Path"></path>
        </g>
    </g>
</svg>
