<svg version="1.1" viewBox="0 0 24 24" xmlns="http://www.w3.org/2000/svg">
 <g transform="matrix(.13708 0 0 -.13708 .8748 23.183)" style="fill:#00bfa5">
  <g transform="matrix(1.6291,0,0,1.6287,-51.081,-50.726)" style="fill:#00bfa5">
   <path d="m56.674 87.412c0 6.5292 5.307 11.838 11.827 11.838 6.5275 0 11.835-5.3084 11.835-11.838 0-2.3789-1.9222-4.3015-4.2927-4.3015-2.3714 0-4.2935 1.9227-4.2935 4.3015 0 1.7852-1.4558 3.2345-3.2483 3.2345-1.7839 0-3.2406-1.4493-3.2406-3.2345 0-2.3789-1.9213-4.3015-4.2927-4.3015s-4.2935 1.9227-4.2935 4.3015m48.999-19.891c0-2.3806-1.9213-4.3015-4.2927-4.3015h-39.833c-2.3714 0-4.2935 1.921-4.2935 4.3015 0 2.3789 1.9222 4.3015 4.2935 4.3015h39.833c2.3714 0 4.2927-1.9227 4.2927-4.3015m-18.613 17.481c-1.327 1.9682-0.8082 4.6374 1.1595 5.9648l9.9579 6.7268c1.9522 1.3574 4.6362 0.80841 5.9632-1.1443 1.327-1.9674 0.80821-4.6374-1.1595-5.9648l-9.9579-6.7268c-0.73177-0.50344-1.5709-0.74742-2.3946-0.74742-1.3802 0-2.7373 0.67096-3.5686 1.8917m27.268-26.448c0-0.81185-0.32295-1.5911-0.89753-2.1667l-7.401-7.4029c-0.57459-0.57389-1.3536-0.89777-2.167-0.89777h-45.377c-0.81336 0-1.5924 0.32388-2.167 0.89777l-7.401 7.4029c-0.57459 0.5756-0.89753 1.3548-0.89753 2.1667v45.36c0 0.81357 0.32294 1.5928 0.89753 2.1667l7.401 7.4046c0.57459 0.57388 1.3536 0.89691 2.167 0.89691h45.377c0.81336 0 1.5924-0.32303 2.167-0.89691l7.401-7.4046c0.57458-0.57388 0.89753-1.3531 0.89753-2.1667zm6.299 52.479-9.6624 9.6649c-1.4644 1.4648-3.451 2.2878-5.5209 2.2878h-48.547c-2.0716 0-4.0582-0.82388-5.5226-2.2895l-9.6555-9.6641c-1.4635-1.4648-2.2855-3.4502-2.2855-5.5215v-48.552c0-2.0713 0.82281-4.0593 2.2872-5.5223l9.6624-9.6649c1.4644-1.4648 3.4501-2.2869 5.5209-2.2869h48.54c2.0699 0 4.0565 0.82216 5.5209 2.2869l9.6624 9.6649c1.4644 1.4631 2.2872 3.451 2.2872 5.5223v48.551c0 2.0722-0.82281 4.0584-2.2872 5.5232" style="fill:#00bfa5"/>
  </g>
 </g>
</svg>
