<svg xmlns="http://www.w3.org/2000/svg" viewBox="0 0 32 32"><path d="M12,26c-1.71007,1.90472-7.64061,2.149-7.93018,1.9367l-.00354.00348L4.06448,27.935l-.00512-.00177.00347-.00347C3.85052,27.64025,4.10028,21.7152,6,20ZM29.63959,7.9082C28.98474,10.59766,27.95892,13.54724,24,18l-.78882,4.749a4.00241,4.00241,0,0,1-1.11639,2.17121l-4.863,4.86779A.72038.72038,0,0,1,16,29.277V23.0473L9,16H2.723a.72113.72113,0,0,1-.511-1.23187l4.86779-4.863A4.00262,4.00262,0,0,1,9.251,8.78876L14,8c4.45276-3.95892,7.4024-4.9848,10.09186-5.63965a11.13794,11.13794,0,0,1,3.642-.32922,3.0777,3.0777,0,0,1,1.71985.51526,3.07844,3.07844,0,0,1,.51519,1.71978A11.13978,11.13978,0,0,1,29.63959,7.9082ZM26,10a4,4,0,1,0-4,4A4,4,0,0,0,26,10Z" style="fill:#ef5350"/></svg>