<svg xmlns="http://www.w3.org/2000/svg" viewBox="0 0 32 32"><path d="M12,26c-1.95667,1.76239-7.75983,2.2005-7.97858,1.98175C3.8009,27.75952,4.07135,21.73438,6,20ZM29.63573,7.90942c-.65454,2.68818-1.67761,5.63886-5.63464,10.08948l-.00245.002L24,18l-.78961,4.74316a4.00032,4.00032,0,0,1-1.11585,2.17017l-4.86066,4.86548A.72265.72265,0,0,1,16,29.26807V23.04132l-3.52063-3.52069L8.95867,16H2.73192a.72265.72265,0,0,1-.51074-1.23389L7.08666,9.90546A4.00019,4.00019,0,0,1,9.25682,8.78961L14,8l-.00086.00134.002-.00244c4.45062-3.957,7.4013-4.9801,10.08947-5.63464a11.13175,11.13175,0,0,1,3.64032-.3291,3.07631,3.07631,0,0,1,1.719.515,3.07646,3.07646,0,0,1,.51495,1.719A11.13171,11.13171,0,0,1,29.63573,7.90942ZM26,10a4,4,0,1,0-4,4A4,4,0,0,0,26,10Z" style="fill:#ef5350"/></svg>