<svg xmlns="http://www.w3.org/2000/svg" viewBox="0 0 32 32"><path d="M12,26c-1.71619,1.90588-7.64015,2.1491-7.92976,1.9367l-.00354.00347L4.06493,27.935l-.00513-.00177.00348-.00348C3.85094,27.64007,4.09411,21.71625,6,20ZM29.63574,7.90942c-.65454,2.68818-1.67761,5.63886-5.63464,10.08948l-.00244.002L24,18l-.78961,4.74316a4.00046,4.00046,0,0,1-1.11585,2.17017l-4.86065,4.86548A.72265.72265,0,0,1,16,29.26807V23.04132l-3.52063-3.52069L8.95868,16H2.73193a.72265.72265,0,0,1-.51074-1.23389L7.08667,9.90546A4.00025,4.00025,0,0,1,9.25684,8.78961L14,8l-.00085.00134.002-.00244c4.45062-3.957,7.40131-4.9801,10.08948-5.63464a11.13246,11.13246,0,0,1,3.64032-.3291,3.07632,3.07632,0,0,1,1.719.515,3.07669,3.07669,0,0,1,.51495,1.719A11.13224,11.13224,0,0,1,29.63574,7.90942ZM26,10a4,4,0,1,0-4,4A4,4,0,0,0,26,10Z" style="fill:#ef5350"/></svg>