<svg xmlns="http://www.w3.org/2000/svg" fill="none" viewBox="0 0 24 24"><path fill="#E53935" d="M9.586 2h.077l-.077.135v.29c.598-.116.908-.27.908-.425l.425.058A36 36 0 0 1 12.869 2h.077c.927 0 2.009.502 3.284 1.526.27.444.424.83.502 1.197v.695c-.155.966-.425 1.7-.773 2.183q-.319.26-1.39 1.738h-.078v-.135l.194-.29h-.116a17.6 17.6 0 0 1-5.601 3.226 6.2 6.2 0 0 1-1.545.212c.656.772 1.873 1.796 3.63 3.07.174.097 1.295.812 3.361 2.183 1.719 1.062 3.766 2.221 6.161 3.496v.077h-.29c-.463-.174-.695-.309-.695-.367l-.135.077h-.135c-.058 0-.078-.019-.078-.077-.173.039-.309.213-.424.502.29.078.424.174.424.27-.115.097-.193.155-.27.155l-.348-.077v.077c0 .078.058.135.194.135v.213h-.058c-.097 0-1.16-.618-3.148-1.835-1.41-.715-3.149-1.815-5.176-3.283-.676-.31-1.912-1.217-3.728-2.723h-.193c-.27.405-.618 1.41-1.062 3.013-.097.367-.56.907-1.39 1.602h-.155l-.135-.212v-.077c0-.097.077-.31.212-.618v-.077h-.077c0 .135-.29.347-.83.637H3v-.135c1.642-4.867 2.781-8.035 3.438-9.522q1.68-3.852 1.68-4.403c-.251 0-.811.309-1.68.965h-.135l.058-.135v-.135c-.252 0-.831.406-1.739 1.255h-.077v-.077l.908-1.043.154-.212v-.077h-.154l-.83.695c-.097 0-.136-.039-.136-.116A11.1 11.1 0 0 1 7.693 3.12c1.178-.309 1.758-.656 1.758-1.062zm6.373 1.95v.078c0 .077.058.135.135.135v-.077c0-.077-.038-.135-.135-.135M7.77 10.673h.058c.85-.174 1.275-.31 1.275-.425-.058-.097-.077-.155-.077-.213C10.803 9.436 12 8.837 12.599 8.22c.058 0 .425-.386 1.12-1.198h.077V7.1c-.096.154-.154.27-.154.347h.077c.599-.463.908-.965.908-1.525v-.425c-.136 0-.213-.058-.213-.155q.348-.057.348-.347 0-.348-1.39-.696c-.754-.193-1.565-.27-2.453-.27-.445 0-.889.811-1.333 2.453-.193.193-.792 1.583-1.816 4.19m.83-5.949V4.8c.078 0 .136-.077.213-.212v-.077c-.058 0-.135.077-.212.212m.078 1.333h.077c.136-.058.213-.193.213-.425-.077 0-.174.135-.29.425m6.586.27v.155c.058 0 .135-.078.193-.213v-.077H15.4c-.096.02-.135.058-.135.135m-7.57 4.693v.078h.134a.5.5 0 0 1 .213-.078v.078c1.14-.213 1.815-.445 2.047-.696h-.077c-1.024.232-1.796.444-2.318.618m-.271.696h.058l1.274-.27-.077-.136c-.83.097-1.255.251-1.255.406m2.78 4.345v.135c.735.56 1.179.85 1.334.85-.174-.135-.27-.251-.27-.348zm2.048 1.545c.039.174.174.27.406.27h.077v-.077c-.116 0-.251-.058-.425-.193zm4.539 2.51q.55.495 1.68.986l.077-.135c-.58-.348-1.12-.638-1.603-.85zm3.862 1.121h.213c.077.02.135.058.135.135-.097 0-.135.078-.135.213h-.155l.078-.136v-.077h-.136z"/></svg>