<svg xmlns="http://www.w3.org/2000/svg" viewBox="0 0 32 32">
  <path d="M9.87535,5.40864a14.01564,14.01564,0,0,0-7.8659,12.07272A.50757.50757,0,0,0,2.517,18H5.52034a.4955.4955,0,0,0,.49111-.48144,10.01015,10.01015,0,0,1,5.27233-8.33669.49421.49421,0,0,0,.24318-.59214L10.56882,5.7078A.5047.5047,0,0,0,9.87535,5.40864Zm11.55583.29917-.95809,2.88193a.49418.49418,0,0,0,.24319.59212,10.01024,10.01024,0,0,1,5.27227,8.3367A.4955.4955,0,0,0,26.47966,18H29.483a.50757.50757,0,0,0,.50751-.51864A14.01566,14.01566,0,0,0,22.12466,5.40864.50472.50472,0,0,0,21.43118,5.70781ZM26,20.5v9a.5.5,0,0,0,.5.5h3a.5.5,0,0,0,.5-.5v-9a.5.5,0,0,0-.5-.5h-3A.5.5,0,0,0,26,20.5Zm-24,0v9a.5.5,0,0,0,.5.5h3a.5.5,0,0,0,.5-.5v-9a.5.5,0,0,0-.5-.5h-3A.5.5,0,0,0,2,20.5Z" style="fill: #546e7a"/>
  <path d="M16.13,10h-.26A7.87,7.87,0,0,0,8,17.87V29.5a.5.5,0,0,0,.5.5h3a.5.5,0,0,0,.5-.5V17.87A3.88138,3.88138,0,0,1,15.87,14h.26A3.88138,3.88138,0,0,1,20,17.87V29.5a.5.5,0,0,0,.5.5h3a.5.5,0,0,0,.5-.5V17.87A7.87,7.87,0,0,0,16.13,10Z" style="fill: #ffc400"/>
  <path d="M17.63962,8H14.36038a.5.5,0,0,1-.47434-.34189l-1.66667-5A.5.5,0,0,1,12.69371,2h6.61258a.5.5,0,0,1,.47434.65811l-1.66667,5A.5.5,0,0,1,17.63962,8Z" style="fill: #ffc400"/>
</svg>
