<svg xmlns="http://www.w3.org/2000/svg" viewBox="0 0 720 720" xmlns:v="https://vecta.io/nano"><defs><linearGradient x1="12.5384818%" y1="33.4718835%" x2="55.3348753%" y2="77.3285595%" id="A"><stop stop-color="#ffbc9c" offset="0%"/><stop stop-color="#ffbc9c" offset="74.5%"/><stop stop-color="#ffa67a" offset="100%"/></linearGradient><linearGradient x1="49.9999313%" y1="36.89718%" x2="34.9525252%" y2="68.1497363%" id="B"><stop stop-color="#f28773" offset="0%"/><stop stop-color="#f28773" offset="28%"/><stop stop-color="#f6a66a" offset="100%"/></linearGradient><linearGradient x1="49.9999191%" y1="36.7139855%" x2="34.0637159%" y2="68.287396%" id="C"><stop stop-color="#f28773" offset="0%"/><stop stop-color="#f28773" offset="28%"/><stop stop-color="#f6a66a" offset="100%"/></linearGradient><linearGradient x1="50.0000669%" y1="34.8353703%" x2="32.552959%" y2="70.6509259%" id="D"><stop stop-color="#f28773" offset="0%"/><stop stop-color="#f28773" offset="28%"/><stop stop-color="#f6a66a" offset="100%"/></linearGradient><linearGradient x1="50.0012515%" y1="43.1019691%" x2="64.4485717%" y2="65.8343642%" id="E"><stop stop-color="#f57a55" offset="0%"/><stop stop-color="#f28773" offset="39%"/><stop stop-color="#fa9f6e" offset="100%"/></linearGradient><linearGradient x1="49.9983024%" y1="31.0610733%" x2="83.9376154%" y2="86.2230765%" id="F"><stop stop-color="#f57a55" offset="0%"/><stop stop-color="#f28773" offset="39%"/><stop stop-color="#fa9f6e" offset="100%"/></linearGradient><linearGradient x1="50.001107%" y1="25.7052939%" x2="91.8966236%" y2="92.674619%" id="G"><stop stop-color="#f57a55" offset="0%"/><stop stop-color="#f28773" offset="39%"/><stop stop-color="#fa9f6e" offset="100%"/></linearGradient><linearGradient x1="49.9997095%" y1="0%" x2="49.9997095%" y2="100%" id="H"><stop stop-color="#ffe768" offset="0%"/><stop stop-color="#ffe768" offset="36.5%"/><stop stop-color="#ffbd4a" offset="65%"/></linearGradient><linearGradient x1="49.9994154%" y1="-0.000360018198%" x2="92.1790346%" y2="89.4144143%" id="I"><stop stop-color="#564341" offset="0%"/><stop stop-color="#564341" offset="53%"/><stop stop-color="#845750" offset="100%"/></linearGradient><linearGradient x1="50.0001856%" y1="7.71231406e-05%" x2="92.9908655%" y2="90.2716525%" id="J"><stop stop-color="#564341" offset="0%"/><stop stop-color="#564341" offset="53%"/><stop stop-color="#845750" offset="100%"/></linearGradient><linearGradient x1="36.962149%" y1="20.9252054%" x2="70.7718112%" y2="56.7516933%" id="K"><stop stop-color="#c35c45" offset="0%"/><stop stop-color="#b76455" offset="100%"/></linearGradient><linearGradient x1="23.8536837%" y1="25.5701041%" x2="64.1215868%" y2="75.941329%" id="L"><stop stop-color="#c35c45" offset="0%"/><stop stop-color="#b76455" offset="100%"/></linearGradient><linearGradient x1="100%" y1="44.5010701%" x2="64.3081808%" y2="77.5537373%" id="M"><stop stop-color="#aa6160" offset="0%"/><stop stop-color="#b36f5f" offset="100%"/></linearGradient><linearGradient x1="23.8454054%" y1="42.2013878%" x2="42.0261577%" y2="63.4589118%" id="N"><stop stop-color="#c35c45" offset="0%"/><stop stop-color="#b76455" offset="100%"/></linearGradient><linearGradient x1="100%" y1="44.9343348%" x2="66.8056579%" y2="76.1262993%" id="O"><stop stop-color="#aa6160" offset="0%"/><stop stop-color="#b36f5f" offset="100%"/></linearGradient><linearGradient x1="100.000089%" y1="45.6058957%" x2="68.277963%" y2="73.043438%" id="P"><stop stop-color="#aa6160" offset="0%"/><stop stop-color="#b36f5f" offset="100%"/></linearGradient><linearGradient x1="82.6932268%" y1="18.3468744%" x2="16.2211525%" y2="85.7408302%" id="Q"><stop stop-color="#ffcb87" offset="0%"/><stop stop-color="#ffcb87" offset="10.5%"/><stop stop-color="#ffbc9c" offset="37%"/></linearGradient><linearGradient x1="84.0292671%" y1="-0.00181064296%" x2="11.4945104%" y2="94.8541527%" id="R"><stop stop-color="#fbc38c" offset="0%"/><stop stop-color="#f19675" offset="33.3333%"/><stop stop-color="#f0876a" offset="66.6667%"/><stop stop-color="#ed8870" offset="100%"/></linearGradient><linearGradient x1="49.9977979%" y1="0.00135662574%" x2="49.9977979%" y2="99.9941031%" id="S"><stop stop-color="#fffffe" offset="0%"/><stop stop-color="#fff" offset="100%"/></linearGradient><linearGradient x1="49.9979955%" y1="-0.0010941878%" x2="49.9979955%" y2="100.001272%" id="T"><stop stop-color="#fffffe" offset="0%"/><stop stop-color="#fff" offset="100%"/></linearGradient><linearGradient x1="23.3046384%" y1="0.902330196%" x2="51.6766612%" y2="99.8116008%" id="U"><stop stop-color="#ffcb87" offset="0%"/><stop stop-color="#ffcb87" offset="19.5%"/><stop stop-color="#ffbc9c" offset="66.6667%"/></linearGradient><linearGradient x1="24.8534102%" y1="22.6514122%" x2="65.3629917%" y2="79.3450772%" id="V"><stop stop-color="#ffcb87" offset="0%"/><stop stop-color="#f79e75" offset="29%"/><stop stop-color="#ef876d" offset="52%"/><stop stop-color="#ed8870" offset="100%"/></linearGradient><linearGradient x1="48.4210646%" y1="5.65994828%" x2="51.6696434%" y2="94.4272174%" id="W"><stop stop-color="#fffffe" offset="0%"/><stop stop-color="#fff" offset="100%"/></linearGradient><linearGradient x1="48.4424636%" y1="9.20685054%" x2="51.5895405%" y2="90.836834%" id="X"><stop stop-color="#fff9ce" offset="0%"/><stop stop-color="#fff" offset="100%"/></linearGradient></defs><g transform="translate(10 31)"><path d="M82.049 507.609c-12.596 5.512-37.832 17.2-49.971 23.42l-9.979 11.375c-3.766 10.413-3.124 26.739-4.708 37.749l4.593 10.064 5.963-2.268s2.418-9.255 17.839-24.817l14.08-12.089 57.525-33.448-35.342-9.986z" fill="#ff5a5a"/><path d="M117.049 515.571c-21.294 18.074-49.722 27.537-69.72 47.244l-4.937 7.239c34.555-21.479 69.996 13.317 101.37 22.795 7.525 2.272.738-1.947 0-7.158-.301-2.12 1.101-5.781 4.205-10.978l.093-7.853-21.581-5.612 3.765-19.678 10.932-7.915c2.19-3.714 12.828-9.343 15.347-12.919l-23.195-5.517-16.278.353z" fill="#9d3737"/><path d="M557.609 511.71v-25.622l-1.157-19.923-4.742-18.913-4.537-12.76-6.926-11.508-5.53-10.155-5.187 12.704-9.414 15.635-7.343 9.207-9.454 7.61-17.635 9.636h-16.746l-16.003-7.559-14.185-7.91-10.194-12.996-3.102-9.908-5.671-33.593-2.42 6.967-8.711 16.266-10.267 14.59-14.131 12.578-11.368 6.097-15.375 4.16-11.337-.452-31.333-13.97-15.403-18.905-5.156-10.155-12.623 25.442-14.453 18.04-22.512 23.724-22.166 14.124-19.267 14.458c.824 8.415 3.456 14.38 7.897 17.891 11.295 8.932 18.574 24.409 29.051 32.148 13.382 9.883 25.792 14.579 37.852 22.144 11.38 7.138 14.059 20.314 24.031 25.835 37.348 20.684 71.979 23.261 80.878 21.894 10.599 2.057 25.012-.418 35.696-.312 7.408-1.642 25.071-3.281 34.269-7.158 14.579-6.144 37.927-14.38 51.912-23.471 16.58-10.781 27.311-26.817 31.356-31.609s8.032-14.043 10.971-19.281c3.358-6.563 5.041-13.221 7.377-20.19l3.059-14.798z" fill="url(#A)"/><path d="M252.209 485.118c19.608 29.453 92.356 12.058 92.356-24.835 0 0-20.705-4.564-29.634-13.341l-20-24.116c-11.005 21.539-42.722 46.183-46.018 56.865 0 0 2.119 3.349 3.296 5.427zm233.69-15c-1.382 29.86 45.638 43.805 68.205 29.92 1.301-28.049-2.253-57.884-19.396-80.472-5.544 6.266-6.092 19.779-20.409 32.729-13.746 12.434-28.399 17.824-28.399 17.824z" fill="#f28773"/><path d="M390.542 457.609c4.503 15.646 28.442 19.665 45.328 22.486-14.327 4.767-30.576 2.476-43.724-4.523-7.399-3.161-13.823-15.335-1.604-17.963z" fill="#564341"/><path d="M201.255 517.844c-3.32-5.484-50.156 3.518-71.59 29.645-10.393 11.096 4.124 16.872 14.697 15.3 31.312-8.001 26.984-26.961 73.004-21.8.552.082-8.056-9.813-16.111-23.145z" fill="url(#B)"/><path d="M223.889 546.45c-21.624-8.049-54.982.507-71.955 22.612-5.993 7.803-15.235 30.875-4.855 28.608 26.179-5.711 45.045-5.627 48.39-8.661 12.238-11.13 20.881-19.096 52.357-20.241-3.764-4.957-15.906-19.335-23.937-22.319z" fill="url(#C)"/><path d="M265.362 574.784c-22.658-8.446-46.549-3.805-64.671 12.643-39.547 35.92-34.137 57.944-34.137 57.944l4.105 7.066c10.82 4.247 57.466-9.128 70.369-12.837 24.585-7.066 50.883-9.632 75.276-17.383 0 .011-43.341-41.964-50.942-47.433z" fill="url(#D)"/><path d="M461.957 622.462c31.258 2.429 61.645 12.189 90.815 22.993l7.223 2.371 5.886-1.056c8.145-12.79-4.728-26.001-12.929-35.361-7.679-7.844-20.502-11.389-31.141-13.421-22.256-2.021-40.846 15.323-59.854 24.474z" fill="url(#E)"/><path d="M505.435 600.381c18.877-5.61 39.711.816 53.515 16.295 0 0 10.76 6.665 13.829 4.701 2.917-1.858-.526-14.857-2.134-17.913-9.643-18.344-17.295-29.592-36.234-34.985-9.44 10.502-18.517 22.265-28.976 31.903z" fill="url(#F)"/><path d="M538.298 567.791c26.69 8.406 19.337 17.848 43.723 23.501 1.529.35 1.675-6.494 1.675-8.044 0-7.398-20.576-24.633-31.762-31.85-4.537-2.922-15.712 15.744-13.636 16.394z" fill="url(#G)"/><path d="M438.23 265.107c1.369 8.725-1.383 33.806-1.383 33.806 74.519-19.337 176.2-128.413 25.757-107.426 15.861-22.755 48.242-35.006 60.4-61.132l-.661-3.181c-67.411 3.157-134.955 37.57-176.646 90.392l-3.305 9.674 4.485 11.158c30.7 9.283 64.055 6.612 95.971 9.116 0 0-5.496 15.004-4.618 17.592z" fill="url(#H)"/><path d="M423.919 385.739c-13.036 43.83 35.284 53.458 68.127 37.425 73.76-58.766 54.035-195.788-56.332-114.201-6.226 10.032-4.667 36.778-4.915 38.077l-6.88 38.699z" fill="url(#I)"/><path d="M298.692 395.1c2.821 20.478 42.235 24.616 62.789 15.612 48.07-16.062 62.537-109.468 43.369-137.29-1.746-2.54-25.683-5.987-35.442-6.929-27.215-2.635-59.536 22.718-73.525 58.58-3.683 9.446 1.423 21.48 2.391 31.245 1.339 13.573-.946 28.922.418 38.782z" fill="url(#J)"/><path d="M297.826 402.523s73.499 50.349 109.664-45.089c9.235-24.375 5.075-60.756 5.388-76.999 32.005 15.296 7.911 102.391 5.628 112.846-8.021 36.76-44.584 65.547-75.184 57.55-46.038-12.02-45.496-48.307-45.496-48.307zm125 17.743l6.337 2.37c19.78 14.911 48.216 9.654 67.543-3.461 28.093-22.932 30.676-53.756 41.441-85.48l1.954 2.145c4.322 32.775-3.525 66.379-15.1 96.953-25.591 51.516-93.244 47.18-102.175-12.527zm13.666-72.508c-4.88 11.424-6.609 25.861-3.173 37.89 8.197 18.673 30.716 20.275 43.791 5.528 37.506-39.644-7.487-106.682-40.617-43.418zm-62.992-.966c7.04-81.65-78.595-37.203-56.936 21.662 18.556 29.673 50.395 2.88 56.936-21.662z" fill="#fff"/><path d="M549.989 561.905c.777 5.025 4.359 9.834 4.359 9.834l-7.753-5.161-5.291-2.45 6.82-10.868 2.793 1.35s-1.554 3.222-.929 7.294z" fill="url(#K)"/><path d="M534.43 589.712c2.121 5.232 9.048 11.375 9.048 11.375l-17.44-5.471-8.647-.874 15.093-17.568c-.011.025-.239 7.124 1.946 12.538z" fill="url(#L)"/><path d="M192.391 646.739s50.552-15.164 70.897-35.633c13.909-13.992 2.511-31.626 4.724-30.631 13.743 6.211 17.977 15.417 26.152 25.424 3.748 4.586 19.966 15.31 19.966 15.31s-27.058 3.783-38.206 7.253c-19.905 6.191-83.533 18.277-83.533 18.277z" fill="url(#M)"/><path d="M506.386 610.271c2.153 11.514 4.898 14.661 26.192 25.576.747.382-12.547-4.141-33.141-9.337-6.96-1.748-27.698-5.159-27.698-5.159s14.998-6.007 18.857-8.555c4.746-3.124 17.126-8.449 17.126-8.449s-1.539 4.81-1.336 5.923z" fill="url(#N)"/><path d="M192.237 585.28c-2.491.771-11.469 1.702-20.207 4.433-3.97 1.245-10.062 2.984-14.533 4.215-2.05.556-7.689 1.222-9.549-.289-.572-.471-1.693-2.669-.977-2.828 24.344-5.278 39.187-11.995 50.023-18.617 18.562-11.356 21.912-20.296 23.438-26.928.644-2.816 7.392 3.599 9.74 6.064l12.22 12.916s-17.584 3.381-22.973 4.963c-12.041 3.506-23.736 14.993-27.182 16.07z" fill="url(#O)"/><path d="M128.378 558.419c22.571-8.655 44.963-16.176 69.024-39.569 1.597-1.553 6.245 2.168 6.924 3.718 3.23 7.475 9.152 15.7 5.267 15.295-23.787-2.527-38.421 7.137-49.003 15.028-7.615 5.666-34.31 6.324-32.212 5.527z" fill="url(#P)"/><path d="M554.879 456.995c1.269 7.002 1.269 26.8 3.872 28.289 45.243 25.889 111.614 23.592 123.936-34.321l6.73-.999 6.063-6.833c1.796-7.972 3.824-25.104 4.522-33.33l-3.653-16.142-7.001-14.463-18.026-20.689-20.068-11.676-21.281-6.384-25.559-2.404-19.886 1.577-22.836 5.625c-3.645 2.121-14 8.051-16.916 11.098-1.193 6.646-3.911 20.052-5.516 26.551-.717 4.471-.717 13.989-2.866 18.811l-.521 9.769 2.754 11.575c6.15 12.198 13.313 20.083 16.255 33.945z" fill="url(#Q)"/><path d="M573.071 493.478c-31.387-71.063 4.622-141.388 85.624-140.254-18.774-12.234-34.32-13.99-56.081-15.181l-11.039 1.646-7.954-.642c-13.377 3.76-30.833 7.573-40.97 17.823-.433 6.239-3.813 20.306-5.487 26.438-1.68 4.601-6.87 18.141-6.726 22.993l8.033 18.721c5.701 10.956 8.631 15.285 11.32 27.561l5.057 18.856 2.492 13.385c.006.008 15.731 8.651 15.731 8.651z" fill="url(#R)"/><path d="M600.408 401.352c1.593-2.879.461-9.396-4.239-12.376-5.32-3.374-12.869-2.842-16.026 4.058-2.452 5.358 1.087 10.74 6.214 13.492 5.146 2.761 11.217-.046 14.051-5.174z" fill="url(#S)"/><path d="M665.548 399.03c-4.276 7.208-16.931 12.701-32.391 7.794-17.95-5.703-37.196-23.478-22.533-43.515 6.446-8.814 24.418-8.507 37.126-2.165 9.307 4.646 27.92 20.796 17.798 37.886z" fill="url(#T)"/><path d="M557.609 415.217c8.089 14.411 12.896 23.137 38.198 23.137 8.46 0 10.264 12.813 26.796 26.238 8.084 6.567 23.993 6.396 33.353.861 5.572-3.297 7.595-1.996 9.304-1.038 3.909 2.19 4.658 1.379 9.792 1.038 0 0 6.134-8.411 3.743-14.286-7.416-4.726-13.732-8.591-22.932-8.35l-5.373 4.975-4.068 6.257-4.882 3.048-7.323-.64c-6.271-5.249-13.911-13.611-18.218-20.546-10.988-10.961-22.146-8.502-36.111-6.742-6.653-4.084-15.255-10.438-22.278-13.954z" fill="#ed8870"/><path d="M181.425 512.285c67.58-19.3 112.736-77.148 126.211-145.221l.143-13.569 2.523-10.262c-1.473-9.677-.694-24.183-1.448-33.837l7.835-3.287 6.712-1.441 5.514-3.842c3.232-8.432 2.792-7.892 2.156-16.744-54.136-108.848-228.882-132.727-297.267-26.216-71.084 100.713-7.834 275.912 128.72 259.542 0 .008 18.9-5.123 18.9-5.123z" fill="url(#U)"/><path d="M126.828 452.174c4.191-22.049 119.538-35.992 131.14-73.481 5.076-37.758 18.853-41.937 51.654-45.331l.16-19-5.132-4.58c-12.124 3.4-25.813 6.567-38.278 8.103-7.717.261-19.599.406-27.08 2.281l-2.719 11.048c3.71 7.657 7.534 35.255 7.534 35.255-.373 3.834-1.55 11.659-2.513 15.367-35.061 27.071-83.425 28.91-121.993 49.877l-2.21 6.631 9.437 13.829z" fill="#f28773"/><path d="M210.87 501.784C72.379 513.926 7.396 335.163 66.067 223.913c0 0-20.59 16.034-23.067 19.826C15.417 285.835.606 317.363 5.163 374.432l7.689 39.672 13.138 26.816c21.859 55.114 89.743 90.24 147.752 73.256l14.111-2.692 23.016-9.7z" fill="url(#V)"/><path d="M187.681 327.135c8.957 10.791 4.189 24.459-6.321 37.557-11.811 14.721-32.604 16.148-43.573 5.724-8.363-7.95-10.754-25.059 8.169-41.297 15.994-13.724 34.175-11.084 41.725-1.983z" fill="url(#W)"/><path d="M155.381 249.484c11.575 11.907 15.685 39.966-13.423 69.002-21.139 21.086-62.068 45.58-90.162 14.825-20.429-22.36.742-57.143 20.867-74.859 15.564-13.706 59.287-33.066 82.718-8.968z" fill="url(#X)"/><path fill="#564341" d="M143.478 438.717l24.708 18.892 33.582-8.18 4.753-43.994-59.554 17.152z"/><path fill="#7d7c7d" d="M169.356 454.475l-6.313 33.568 35.043-13.558 5.175-28.833z"/><path fill="#989697" d="M168.478 456.405l-24.717-16.187-4.631 25.481 23.19 23.432z"/><path fill="#564341" d="M185.066 167.391l-4.631 22.64L227.995 200l5.7-29.214z"/><path fill="#b6b6b6" d="M127.174 162.266l153.961 8.386 34.387-13.125 14.913-103.462L295.432 25.1l-32.095-3.62-8.433 7.06-12.177 3.548-12.733-.323-11.362.057-10.035-1.548-8.325-1.771-6.911-2.143-5.526-3.534-5.814-3.699-3.08-5.699-48.737-3.648 10.02 31.216z"/><path fill="#ffed7e" d="M224.383 74.995l-25.47 22.301 23.783 19.11-15.519 25.985 46.084-12.019-18.405-26.846-3.126-6.404 15.596-23.119-8.356-2.265z"/><path fill="#b6b6b6" d="M128.63 8.696L99.837 26.702 94.565 60.87l43.478-22.126z"/><path d="M140.217 42.391l-15.072 120.652-27.894-18.44-11.383-21.995 6.733-58.541zm38.044-29.225l9.389 10.015 25.946 8.036 25.19.305c7.998-2.27 15.246-2.674 21.046-8.908l1.038-4.887C248.65 6.591 228.85 6.308 213.135 5.435L187.83 6.946l-9.569 6.22z" fill="#979797"/><path d="M222.774.387c20.163 1.589 37.444 8.28 40.996 16.809l31.125 4.01c.359.046.698.144 1.012.285 3.429 1.321 11.244 6.89 21.041 14.546 4.635 3.623 8.799 7.044 11.619 9.564 1.581 1.413 2.742 2.541 3.477 3.403.622.728 1.021 1.322 1.265 2.122a4.42 4.42 0 0 1 .123.512 3.6 3.6 0 0 1 1.155 3.048l-.034.324-.104.94-.39 3.564-1.419 12.715-4.584 38.59-2.139 16.537c-1.865 13.899-3.499 24.619-4.848 31.478-.662 3.401-6.421 6.158-18.954 10.913l-.847.32-.564.21c-8.874 3.311-16.857 5.753-19.504 5.753-2.993 0-14.313-.625-44.374-2.448l-3.537 23.726c30.5 10.602 58.005 28.591 78.771 52.618l-.093-.109.583.579c6.368 6.374 12.354 13.796 16.638 21.141 7.293-5.124 14.959-8.592 22.72-9.975 35.677-6.362 65.766 5.921 77.94 30.749.945-5.671 1.848-12.631 2.582-19.736l.081-.791.081-.792.079-.793.165-1.747c.437-4.658.437-8.869-.171-13.553-.062-.474-.488-1.136-1.279-1.987a57.56 57.56 0 0 1-2.885-.192l-.264-.024c-1.2-.108-2.437-.225-4.61-.313l-.777-.031c-25.468-1.031-38.655-1.811-49.938-3.285l-.822-.109-.409-.055-.813-.113-2.016-.294c-17.031-2.571-26.937-6.745-30.061-14.689-2.667-6.758-.109-14.521 5.947-23.296 3.92-5.678 8.639-10.928 14.746-16.989 9.94-9.876 28.098-24.027 46.988-36.072 24.001-15.306 47.518-26.391 68.087-31.028 26.55-5.989 48.283-7.153 52.45 1.203 2.395 4.803-.398 9.948-6.906 17.246-4.5 5.051-10.955 11.13-19.305 18.347l-6.045 5.149-11.58 9.561-4.024 3.274-.272.221-.275.222-.137.112-.729.593-3.314 2.697-.123.099.788-.091c8.933-1.023 16.68-1.521 24.234-1.353l1.029.027c11.073.337 20.435 2.164 27.82 5.939 9.197 4.7 14.945 12.292 16.333 22.765 2.582 19.504-20.491 46.455-52.475 66.141 11.258.271 22.204 3.26 29.89 9.281 6.141 4.812 11.098 10.373 14.981 16.565.182.244.345.505.479.78 2.31 3.805 4.223 7.839 5.762 12.079 3.174 8.734 4.584 17.66 4.854 27.065l.039 1.773c32.281-17.244 75.459-16.622 108.427.811 37.564 19.859 53.451 56.472 37.18 99.151-1.926 5.059-5.67 7.671-10.086 8.151.07.438.118.884.143 1.341.182 3.46-.965 7.259-3.166 11.422-3.124 5.909-7.983 11.986-13.846 18.184-21.296 22.522-60.64 27.371-90.443 12.679l-2.795-1.361-.404-.196-.241-.115-.241-.118-.238-.115-2.961-1.431c-2.675-1.305-4.963-2.478-7.01-3.622.129 17.309-2.972 34.486-9.239 50.389l-.435 1.089-.283.833-.665 1.874c4.122 1.784 10.787 5.275 13.98 7.452 5.824 3.967 11.527 9.13 15.536 14.559 2.364 3.201 4.814 7.233 6.446 11.004 2.672 6.173 3.216 11.389-.042 15.345-2.916 3.544-7.624 4.178-13.299 3.013 3.222 6.299 4.87 9.983 6.042 13.953 2.052 6.956 1.511 12.573-3.23 16.069-1.78 1.308-4.307 1.613-7.214 1.156 4.943 10.844 4.663 21.476-3.401 25.479-4.326 2.158-9.48 1.442-17.695-1.4-1.509-.522-5.487-2.051-9.822-3.726l-.443-.171-.889-.345-1.612-.623-.236-.093-.471-.18-10.119-3.872c-9.174-3.342-17.552-5.867-26.214-7.73l-5.12-1.103-5.835-1.206c-9.488-1.888-17.676-3.084-25.448-3.524-5.375-.303-10.313-.216-14.785.3-.662.079-1.309.014-1.909-.163-18.966 4.377-39.134 6.251-59.339 5.558-20.788-.715-31.945-1.563-43.747-3.788-3.202-.603-6.298-1.299-9.303-2.099a5.25 5.25 0 0 1-.46-.079c-10.495-2.323-38.195 1.364-55.776 6.95-3.887 1.237-8.507 2.455-14.327 3.81l-20.136 4.408-1.111.244-.318.07-1.591.351-.636.14-.653.146-17.499 3.99-8.836 2.29-3.775 1.038-4.213 1.134c-3.83 1.004-7.195 1.804-10.42 2.452-12.721 2.55-21.8 2.489-27.567-1.818-4.685-3.499-6.366-9.11-5.667-16.139.546-5.491 2.534-12.009 5.825-19.756 2.492-5.853 7.966-13.656 14.161-20.833l.262-.303-.258.067-3.65.99-5.722 1.636-.908.264-.363.107-6.641 1.919-.118.031a.7.7 0 0 0-.057.017l-.447.112-.158.042-.484.123-.998.255-.568.143-.786.191c-5.441 1.305-9.17 1.636-12.745.533-3.973-1.226-6.689-4.113-8.01-8.415a33.96 33.96 0 0 1-3.789-1.083c-10.929-3.754-21.001-9.158-36.972-19.178-4.287-2.688-17.977-6.742-23.221-7.376-10.21-1.243-28.613 3.704-36.41 9.066-1.993 2.643-3.635 5.202-5.038 7.766-.192.351-.431.816-.7 1.35l-.206.412-.778 1.58-.231.474-.231.477-2.117 4.228c-1.278 2.073-2.902 3.328-5.223 3.448-2.428.126-4.184-1.302-5.468-3.521-.845-1.462-1.549-3.403-2.146-5.783-1.093-4.352-1.817-10.193-2.048-16.403-.536-14.383 1.461-27.326 6.177-33.423 6.715-8.681 17.109-14.902 33.484-21.582l18.763-7.379c2.564-1.052 4.747-2.012 6.642-2.932-21.465-12.079-39.756-30.3-53.471-53.021-36.652-60.723-35.015-141.855 8.505-201.357 31.237-42.71 81.717-65.357 137.2-64.457a195.6 195.6 0 0 1 6.09.194l3.356-16.394-32.747-1.979-1.063-.063-20.331-1.139a3.71 3.71 0 0 1-1.826-.579c-12.066-5.947-25.39-14.741-29.502-18.866-5.585-5.588-12.459-24.579-12.459-31.446 0-10.407 2.577-30.075 6.785-54.995l.528-3.098.154-.894.077-.448.156-.897.314-1.797.158-.898.158-.896.059-.335.119-.67 3.658-19.701.071-.355.622-2.931.04-.158c.018-.07.034-.127.048-.169.765-2.418 4.609-4.957 15.434-11.354l1.536-.904 10.623-6.094 3.499-1.96.982-.546.351-.194a3.58 3.58 0 0 1 2.005-.438l.035-.001a4.27 4.27 0 0 1 .246-.001l.077.003.048.002 14.172.83 6.57.423 18.117 1.245 5.676.41.223.016c.944-1.542 2.572-2.832 4.687-3.922 2.721-1.402 6.469-2.568 10.981-3.463 9.02-1.788 20.511-2.382 31.41-1.525zm17.551 574.855l-.447.042-.224.022-.499.051-.25.025-.5.053-1.253.137-1.002.118c-4.002.477-7.92 1.1-10.968 1.849-6.008 1.479-16.968 7.393-24.217 13.1-9.374 7.376-22.058 22.578-25.767 31.29-5.784 13.611-6.614 21.964-3.235 24.486 2.789 2.085 9.871 2.13 19.974.104 3.018-.603 6.211-1.364 9.874-2.323l4.114-1.108 3.776-1.038 9.069-2.351c3.654-.901 10.323-2.405 17.3-3.948l1.104-.244 1.106-.244.553-.123 1.106-.241 2.375-.522.589-.129 17.933-3.925c5.595-1.302 9.991-2.461 13.599-3.608 10.3-3.274 23.574-5.915 35.563-7.211-2.31-1.302-4.57-2.705-6.791-4.22a58.78 58.78 0 0 1-4.646-3.507c-3.754-3.142-6.289-5.954-10.268-10.996-3.869-4.902-5.984-7.461-8.395-9.812l-.244-.233-.244-.236c-.902-.856-1.862-1.7-2.981-2.646-5.23-4.411-11.998-8.687-21.158-13.131l.042.011c-1.204-.379-7.781-.18-14.991.508zm276.222 28.378c-6.427.238-11.103 1.768-17.395 4.84-.44.216-.9.356-1.36.429a155.76 155.76 0 0 1-11.008 6.01l-.973.48a169.69 169.69 0 0 1-11.861 5.23c5.033.648 10.307 1.546 16.013 2.682l5.961 1.232 2.12.455.538.118 2.448.527.028.006c9.135 1.964 17.92 4.613 27.478 8.095 2.041.744 6.306 2.391 10.68 4.085l1.576.609.656.255.437.168 10.097 3.841c5.829 2.017 9.118 2.472 10.318 1.874 1.461-.727 1.994-4.537.05-10.241-1.865-5.466-5.507-11.08-10.374-15.788l.05.042-.09-.076c-.118-.104-.233-.213-.336-.325a45.2 45.2 0 0 0-4.61-3.813c-10.975-7.898-21.046-11.08-30.445-10.735zm-99.839-187.837c-5.866 11.479-13.363 21.316-22.807 29.562l-.488.421-.437.398c-17.544 15.637-41.369 19.074-63.054 10.757l-.662-.258c-15.977-6.316-28.569-18.221-34.813-32.923-18.006 35.409-46.818 65.092-82.958 82.165l.263 5.045c.03 4.088.371 7.407 1.446 11.139 1.601 5.555 4.508 10.031 9.079 13.145 2.815 1.919 5.463 4.043 8.239 6.568l.234.109c1.026.483 1.8 1.285 2.259 2.233a158.1 158.1 0 0 1 2.947 2.926l2.582 2.677.233.241.193.202.193.202.192.199 2.681 2.803.018.02-.019-.02.413.429c2.057 2.13 3.604 3.656 5.096 5.006 2.709 2.449 5.037 4.102 7.241 5.101 12.218 5.547 21.051 10.912 27.813 16.613 5.016 4.231 7.271 6.793 13.204 14.312 3.606 4.568 5.765 6.958 8.902 9.587 1.203 1.007 2.49 1.981 3.892 2.938 10.534 7.18 22.134 11.65 36.05 14.276 11.185 2.107 21.983 2.926 42.305 3.628 33.745 1.156 67.316-5.151 94.677-18.501 30.383-14.823 51.97-37.581 62.053-67.594l.048-.14.056-.135c14.538-35.83 11.642-78.947-9.587-113.918-3.603 8.563-8.936 17.904-15.433 25.855-11.81 14.455-26.334 23.229-43.466 23.872-15.29.572-36.773-10.193-46.705-25.084-6.185-9.29-9.132-17.677-11.88-33.858zM537.382 572.68l-.188.269c-5.44 7.699-11.799 14.736-18.999 21.086 10.96.065 22.44 3.967 34.376 12.559a53.09 53.09 0 0 1 5.541 4.602c3.042 2.494 6.766 4.694 10.074 6.018 1.478.592 2.765.96 3.687 1.083l-.039-.006.014-.034c.261-.777.191-2.298-.513-4.792l-.101-.348c-1.04-3.521-2.717-7.158-6.242-13.967-2.024-3.925-3.939-7.026-6.424-10.05-.331-.337-.62-.676-.858-1.013-1.368-1.577-2.913-3.157-4.73-4.848-4.809-4.464-10.265-8.252-15.598-10.558zm-356.99-21.93c-6.111 2.747-11.056 6.08-15.232 9.941-.308.41-.684.772-1.118 1.066-3.002 2.94-5.598 6.167-7.952 9.66-1.078 1.594-2.229 3.535-3.325 5.564l-.435.814-.1.191-.198.379-.196.379c-2.434 4.756-4.37 9.576-4.207 11.265.29 3.013.962 3.979 2.112 4.335 1.44.443 3.844.23 7.701-.696l2.204-.55 1.098-.283c.332-.084 2.829-.814 5.698-1.647l.32-.093.647-.188.332-.095.333-.098.333-.095.719-.208 5.241-1.498 4.287-1.156c6.04-1.58 10.842-2.604 14.389-2.96.682-.581 1.354-1.131 2.014-1.653 8.236-6.484 20.364-13.027 27.842-14.868 4.954-1.218 11.622-2.13 17.875-2.654-1.674-1.535-3.387-3.241-5.638-5.581l.018.02-2.52-2.637-.183-.191-.278-.289-.38-.398-2.657-2.752c-1.366-1.392-2.656-2.66-3.898-3.827-11.31-4.416-34.041-4.043-44.847.805zm-60.211-30.942l-.04.028c-1.848 1.277-4.579 3.072-8.072 5.325l-.437.281-7.459 4.759-2.457 1.552-.689.432-.245.154-.156.098-.165.081c-18.8 9.265-37.205 20.552-49.313 30.78 8.532-2.483 17.889-3.841 24.653-3.016 6.202.749 20.861 5.09 26.175 8.423 15.536 9.745 25.218 14.941 35.487 18.468l.874.314c1.038-5.808 5.073-14.116 9.135-20.367-.971.227-1.927.429-2.868.606-10.24 1.944-17.819 1.091-21.692-4.809-4.55-6.925-.81-15.379 7.71-24.671 5.835-6.366 14.07-12.966 19.014-15.539a88.54 88.54 0 0 1 2.392-1.201c-10.897.693-21.535.115-31.846-1.698zm427.934 34.124l-.174.387c-1.621 3.516-3.401 6.928-5.336 10.23 5.939 2.792 11.737 6.911 16.877 11.683 2.383 2.214 4.38 4.296 6.141 6.397a4.6 4.6 0 0 0 .269.21 16.2 16.2 0 0 0 1.867 1.153c1.677.903 3.74 1.765 5.768 2.388 2.128.654 4.077 1.002 5.529.993.608-.003 1.068-.07 1.346-.163l-.109.031.003-.039c.008-.137.011-.365-.017-.704l-.017-.177c-.121-1.148-.575-2.668-1.335-4.422-1.307-3.022-3.398-6.465-5.361-9.124-3.303-4.47-8.229-8.931-13.229-12.334-2.636-1.796-8.715-4.972-12.222-6.509zM86.968 509.146l-.042.042a3.53 3.53 0 0 1-.831.643c-2.842 1.605-6.227 3.173-10.602 4.969-1.38.567-4.952 1.961-8.67 3.412l-.406.16-.773.3-8.93 3.513c-15.279 6.234-24.788 11.925-30.51 19.324-3.362 4.346-5.153 15.957-4.676 28.745.214 5.743.878 11.1 1.837 14.918.174.696.355 1.324.538 1.88l.067.202.068-.14 1.345-2.775.205-.421 1.587-3.114c2.745-5.017 6.293-9.994 11.256-15.379 11.523-12.494 34.425-27.258 58.132-39.009l.66-.328-.11.053.022-.011.066-.042.684-.429 2.443-1.543 7.412-4.728.433-.278 2.201-1.425c-3.563-.917-7.082-1.989-10.553-3.21-4.385-1.546-8.672-3.325-12.851-5.328zm90.024 13.243c-8.371 2.219-17.266 5.836-22.941 8.796-10.543 5.491-25.922 22.267-23.153 26.481.951 1.448 5.255 1.93 11.926.665 2.622-.497 5.441-1.221 8.405-2.127a130.64 130.64 0 0 0 5.386-1.782l2.01-.721c4.885-4.531 10.685-8.451 17.855-11.675 8.446-3.788 21.935-5.334 34.171-4.517-3.082-3.656-5.253-7.974-6.636-12.772a47.43 47.43 0 0 1-.579-2.205c-.023-.014-.047-.025-.07-.042-5.463-3.3-14.788-3.173-26.375-.101zM40.718 255.431C-.902 312.333-2.47 390.065 32.594 448.156c16.983 28.137 41.243 48.908 69.808 58.967a119.95 119.95 0 0 0 17.549 4.725c.514-.02 1.029.076 1.506.275 25.761 4.545 53.798.892 83.011-11.591l1.075-.466 2.068-.948c67.421-31.526 108.486-109.19 98.338-183.934l-4.921 1.156c-12.96 3.044-25.786 4.332-47.041 5.345l-1.582.065-.781.028-.467.014-.255.008c-6.234.208-8.853.519-10.574 1.411-1.295.671-1.551 1.672-.211 5.185 1.292 3.392 3.73 14.464 5.947 25.721l.279 1.423.069.356.255 1.313.126.657.25 1.308 1.816 9.921c1.988 11.305-5.397 20.373-20.172 28.055-5.216 2.713-11.063 5.18-18.189 7.691a3.66 3.66 0 0 1-.004.651l-.02.205-.057.595-.22 2.247-.812 8.022-2.704 24.349-2.374 18.061c-1.528 10.37-2.736 16.232-4.142 18.409-1.541 2.391-8.631 6.083-17.434 9.644-9.745 3.939-17.233 5.96-20.95 4.77-3.544-1.139-9.366-5.729-15.342-11.641-6.296-6.232-10.427-11.448-10.634-14.643-.163-2.514 1.015-10.014 3.254-22.02l.52-2.767 2.57-13.182.547-2.724c-10.247 3.426-16.525 6.375-20.224 9.559-1.755 1.51-1.971 2.452-1.172 4.214 1.048 2.315 3.681 5.337 8.591 9.927a3.9 3.9 0 0 1 .189 5.505 3.89 3.89 0 0 1-5.5.188c-5.642-5.272-8.761-8.852-10.369-12.404-2.237-4.938-1.17-9.59 3.188-13.339 6.955-5.985 19.207-10.496 43.57-17.244l18.715-5.126c21.847-6.041 35.144-10.519 45.415-15.858 12.104-6.293 17.338-12.719 16.094-19.792l-2.658-14.245-.246-1.251-.063-.317-.126-.637c-2.047-10.275-4.212-20.084-5.254-22.82-2.636-6.913-1.284-12.191 3.904-14.882 3.198-1.655 6.299-2.026 13.894-2.278l.409-.014.297-.008.758-.028 1.51-.062c20.805-.99 33.262-2.239 45.627-5.146l5.855-1.375.017-.003 4.674-1.094.894-.21.146-.034.499-.118c.031-.006.059-.014.087-.02 1.276-.384 2.801-.69 4.711-1.01l.365-.059c2.767-.46 3.9-.732 4.705-1.17l-.084.042.266-.163c7.439-4.756 8.476-12.045 4.116-22.141l-.213-.483c-3.774-8.483-11.084-17.976-18.893-25.667l-.112-.11-.104-.118c-32.653-37.778-82.891-60.023-134.663-60.863-53.064-.861-101.122 20.7-130.794 61.269zm161.483 254.45l-.48.191-2.474.946c1.015.18 2.001.404 2.957.673l-.01-1.358a13.73 13.73 0 0 1 .007-.452zm346.487-155.887l-.779.457c-.746 18.252-4.433 41.195-9.741 59.169a5.05 5.05 0 0 1 .381.488c14.056 20.656 21.826 44.357 23.477 68.158 3.011 1.953 6.441 3.807 10.495 5.786l3.267 1.577.611.297 3.028 1.473c27.105 13.361 63.029 8.936 82.037-11.167 5.445-5.76 9.971-11.417 12.713-16.602 3.317-6.279 3.135-9.775-.552-11.529-.822-.39-1.677-.889-2.857-1.636l-1.458-.932-.205-.132-1.262-.8c-3.468-2.16-5.941-3.218-8.098-3.294-1.652-.059-3.067.497-4.5 1.928-1.262 1.265-2.282 2.511-3.269 3.942a4.21 4.21 0 0 0-.132.191l-.16.238-.704 1.077-.328.508-1.04 1.602c-2.061 3.036-4.15 4.717-7.599 5.539-5.456 1.296-10.374-.115-14.872-3.737-3.196-2.573-5.689-5.623-9.727-11.366l-1.307-1.863-1.276-1.804c-3.508-4.896-5.883-7.393-8.173-8.401-8.386-3.676-12.231-3.967-17.872-2.666l-.463.109-.477.109-.993.216c-8.131 1.672-15.107-1.358-30.364-14.579-1.5-1.302-1.663-3.577-.362-5.078s3.572-1.667 5.075-.365c7.666 6.644 13.069 10.438 17.006 12.146 2.84 1.235 4.582 1.361 7.195.822l.844-.182.449-.104.471-.109c7.111-1.641 12.533-1.229 22.378 3.086 3.867 1.698 6.892 4.879 11.134 10.797l1.318 1.863 1.189 1.698.081.115a.7.7 0 0 0 .034.048c7.254 10.323 11.322 13.6 17.045 12.239 1.489-.354 2.179-.912 3.311-2.579.196-.289 1.786-2.783 2.397-3.67a34.93 34.93 0 0 1 4.099-4.933c2.849-2.851 6.205-4.164 9.847-4.035 3.754.135 7.181 1.599 11.639 4.377l2.967 1.891c.959.603 1.609.982 2.109 1.221.395.188.777.39 1.138.6 4.36 1.782 7.669.985 9.068-2.685 7.742-20.308 7.73-38.846.796-54.828-6.356-14.649-18.467-26.854-34.617-35.392-31.85-16.84-74.054-16.939-104.415.699zm-345.602 53.333l-.284.093c-6.073 1.939-12.995 3.959-21.044 6.187l-3.609.99c.127.466.162.968.085 1.479l-10.26 68.321a40.03 40.03 0 0 0 1.407-.356c3.013-.811 6.745-2.113 10.653-3.692 3.662-1.481 7.268-3.126 10.067-4.582 1.358-.707 2.479-1.347 3.283-1.871.364-.236.646-.438.831-.592l-.024.02.007-.017c.212-.53.637-2.065 1.09-4.223l.05-.244c.568-2.752 1.188-6.431 1.849-10.92.748-5.073 1.535-11.094 2.349-17.867l2.691-24.231.809-7.988.05-.505zm-32.205 9.256l-7.836 2.146-12.606 3.634a3.6 3.6 0 0 1-.072.842l-.083.404-.236 1.159-.843 4.183-2.557 13.111-.516 2.747c-1.93 10.351-3.129 17.884-3.153 19.958v.076l.018.039c.059.132.146.3.259.497l.071.121c.404.682 1.022 1.554 1.818 2.562 1.616 2.04 3.865 4.506 6.355 6.97 3.405 3.37 6.844 6.313 9.386 8.12l9.996-66.568zm367.527-73.111l-.02.171c-1.38 12.519-4.38 25.676-9.354 39.464-6.157 17.045-21.408 37.309-39.849 46.495-6.483 3.227-18.43 6.479-29.349 6.944-12.169.519-22.768-2.16-30.79-8.734 1.862 6.655 4.141 11.493 7.492 16.523 8.07 12.101 26.396 21.285 38.394 20.836 14.064-.527 26.214-7.867 36.426-20.367 7.495-9.172 13.355-20.555 16.333-29.668 6.802-20.819 11.308-51.08 10.756-70.518l-.039-1.145zM415.55 287.853l.095.57c3.925 23.33 2.395 49.646-8.342 79.41-6.155 17.048-21.405 37.311-39.849 46.495-7.007 3.488-21.47 7.082-33.978 7.186-13.551.112-24.89-3.462-32.741-11.434l-.286.687c3.076 16.422 15.396 30.314 32.321 37.006 18.814 7.438 39.342 4.489 54.303-9.155l.101-.093c14.841-12.783 24.517-30.014 30.448-52.216 4.629-17.331 6.637-34.624 8.356-64.048.81-13.906-3.062-25.592-10.428-34.407zm53.058 4.343l-2.333.988-1.155.505c-14.275 6.277-26.954 14.037-29.262 19.309l-.067.16c-.09.224-.196.438-.314.64a70.46 70.46 0 0 1 .042 9.018l-.99 15.053c9.303-17.402 24.22-26.181 39.63-22.233 18.994 4.871 27.324 27.432 21.439 52.031l-.188.769c-6.334 25.252-25.258 41.091-43.085 37.578-11.482-2.245-20.264-10.755-24.086-22.749l-1.385 5.511c-.746 2.795-1.551 5.516-2.414 8.173-.297 2.741.39 6.327 1.851 10.252.6 1.616 1.301 3.201 2.033 4.66.524 1.047 1.029 1.95 1.276 2.329 6.115 9.461 16.448 13.375 29.831 12.803 9.533-.404 20.177-3.302 25.499-5.951 15.943-7.94 29.727-26.254 35.116-41.181 9.46-26.223 11.353-49.879 8.437-71.02-3.224-4.941-7.329-9.444-12.455-13.459-11.031-8.642-32.5-9.369-47.42-3.185zm-115.022-21.221c-6.71 1.196-13.548 4.431-20.152 9.293 2.591 6.785 3.171 13.036 1.438 18.415 6.432-3.246 13.481-4.158 20.64-2.326 18.994 4.871 27.321 27.432 21.436 52.034l-.188.766c-6.331 25.252-25.255 41.091-43.085 37.578-9.261-1.81-16.765-7.696-21.327-16.201-1.78 9.952-4.363 19.747-7.688 29.267 5.798 8.488 15.663 12.259 28.737 12.149 11.028-.09 24.069-3.33 29.8-6.184 15.943-7.94 29.727-26.251 35.116-41.181 10.453-28.97 11.656-54.295 7.554-76.59-.356-1.939-.729-3.72-1.158-5.578l-.076-.323-.76-3.25c-.07-.329-.107-.658-.109-.983-12.839-7.699-30.35-10.423-50.179-6.887zm83.725 86.186c-5.4 20.903 3.236 36.806 16.854 39.469 12.365 2.435 27.086-10.031 32.138-31.186 4.812-20.109-1.5-37.21-14.513-40.547-13.907-3.561-28.356 8.572-34.48 32.264zm-118.65-19.279c-5.4 20.903 3.239 36.806 16.854 39.469 12.365 2.438 27.086-10.028 32.141-31.186 4.809-20.106-1.503-37.208-14.516-40.547-13.907-3.561-28.353 8.572-34.48 32.264zm1.192-25.732l-.07.014-2.016.354-.359.059c-1.705.286-2.896.542-3.729.805l-.115.036.306 2.273c.238 1.885.446 3.771.622 5.659h-.003c1.601-3.361 3.398-6.436 5.364-9.2zm185.953-180.752c-8.305.445-19.011 2.065-29.141 4.35-19.319 4.355-41.899 15-65.054 29.764-18.343 11.697-35.966 25.432-45.393 34.796-13.077 12.982-20.819 24.193-18.531 29.993 1.38 3.512 8.872 6.669 22.594 8.74 11.833 1.786 24.764 2.616 52.957 3.757l30.871 1.355 1.04.056 1.38.077.69.039.345.02.695.04.701.041 4.012.243c.838.052 1.394.117 2.002.293a4.89 4.89 0 0 1 1.329.6c1.265.81 2.252 2.141 2.229 4.114-.02 1.807-.85 2.995-1.935 3.812a4.96 4.96 0 0 1-1.144.645c-.805.329-1.604.476-3.449.743l-4.354.583-.292.039-.294.039-1.06.143-4.113.569c-3.474.513-6.18 1.005-8.098 1.499l-.533.144-.006.039c-.751 11.901-2.294 25.829-3.993 36.02l-.048.286.095-.036c2.484-1.007 5.535-2.337 9.031-3.937l.622-.283 10.546-4.986.906-.441 15.932-8.03c34.401-18.167 60.856-46.461 58.689-62.837-1.797-13.535-13.986-19.765-34.973-20.404-7.666-.233-15.637.289-25.073 1.406l-4.526.563-.395.05-.196.025-.393.05-4.666.581c-1.486.167-2.543.252-3.387.257-.693.004-1.284-.041-1.907-.19a5.15 5.15 0 0 1-1.901-.866 4.9 4.9 0 0 1-2.033-3.752c-.07-1.475.345-2.377 1.043-3.363.266-.377.575-.738.948-1.131.558-.587 1.304-1.289 2.277-2.15 1.48-1.311 3.48-2.99 6.382-5.371l.855-.699 4.727-3.85.524-.427.137-.111.272-.222 4.391-3.57 11.468-9.47 5.944-5.063c8.064-6.969 14.255-12.801 18.422-17.476 2.232-2.504 3.811-4.603 4.671-6.186l.109-.205.048-.098-.14-.038c-.331-.09-.709-.174-1.136-.251l-.328-.056c-2.509-.41-6.065-.503-10.397-.271zm-317.469 39.216l-3.361 16.429c14.099 1.189 27.993 3.891 41.378 7.995l3.263-21.895-29.153-1.785-.172-.011-11.954-.734zM144.686 45.42l-.015.106-.647 4.414-2.13 14.734-5.718 41.281-4.846 39.829c-.566 5.546-.917 9.858-1.036 12.8l-.04 1.261v.107l.327.018 68.837 4.112 1.313.081.172.01 80.298 4.658c.564 0 3.076-.619 6.421-1.66 3.51-1.092 7.792-2.582 11.942-4.155 4.357-1.653 8.288-3.291 11.137-4.655 1.464-.701 2.608-1.314 3.356-1.793l.107-.07.036-.024.003-.02 1.001-5.653.098-.576c1.009-6.107 2.151-13.906 3.396-23.161l.09-.664 2.128-16.475 4.576-38.506 1.416-12.691.311-2.838-48.127-3.123-2.787-.17-30.987-1.812-22.032-1.214-32.6-1.729-.872-.046-1.313-.069-.895-.047-.965-.051-1.449-.076-.967-.051-2.103-.111-3.649-.192-.908-.048-1.222-.064-.812-.043-30.846-1.623zm-7.164-.737L96.581 65.011c-3.869 23.219-6.231 41.601-6.231 51.088 0 5.06 6.207 22.208 10.355 26.358 2.963 2.972 12.603 9.485 22.446 14.826.157-3.041.501-7.137 1.021-12.23 1.018-9.979 2.688-23.608 4.872-40.047l5.728-41.353 2.133-14.755.618-4.216zm111.277 23.239c.673.082 1.27.227 1.852.503 1.203.572 2.158 1.629 2.323 3.198.371 3.538-1.633 6.974-7.983 15.991l-.34.482-4.869 7.092-.135.215-.526.862c-.677 1.13-1.141 2.032-1.382 2.674l-.034.094-.013.039.015.034.144.303.103.206c1.13 2.217 3.319 5.104 8.714 11.821l.845 1.054c7.536 9.422 10.423 13.987 10.204 18.533-.088 1.85-.864 2.577-2.292 3.433-.514.308-1.156.618-1.955.958-1.374.583-3.281 1.277-5.648 2.063-4.441 1.474-10.401 3.235-16.537 4.893-6.28 1.697-12.26 3.156-16.755 4.073-2.465.503-4.469.841-5.965.996-.894.093-1.638.125-2.28.082-1.635-.109-2.836-.511-3.698-2.213-.891-1.762-.506-3.143.485-4.954.488-.892 1.19-1.932 2.147-3.212.766-1.026 1.677-2.183 2.917-3.718l.232-.286.15-.185 1.19-1.464.219-.269 1.525-1.877 1.046-1.299c2.374-2.966 4.024-5.176 5.179-6.995.466-.734.831-1.375 1.089-1.907l.076-.164-.023-.016a37.05 37.05 0 0 0-1.79-1.17l-.226-.14-.54-.326-.163-.098-3.178-1.887-.273-.162-.274-.162-.478-.283-3.444-2.058c-3.596-2.201-6.347-4.082-8.544-5.938-2.688-2.269-4.464-4.426-5.209-6.764-.599-1.891 0-3.146 1.304-4.824.651-.837 1.562-1.81 2.735-2.943 2.005-1.937 4.801-4.364 8.175-7.126l2.801-2.263.642-.511.969-.767.324-.255.648-.509.22-.172.439-.343c3.87-3.018 7.589-5.797 9.608-7.179 1.783-1.219 7.847-2.781 14.615-4.016 3.223-.588 6.142-.999 8.34-1.153 1.316-.092 2.397-.097 3.282.01zm-4.276 7.309l-.216.024c-1.661.189-3.668.496-5.839.892l-2.471.478-.544.112c-4.422.921-8.374 1.975-8.83 2.287-2.065 1.413-6.164 4.49-10.286 7.728l-.434.341-.217.171-.433.342-.216.171-.431.343-3.138 2.53c-3.234 2.648-5.896 4.959-7.733 6.734-.57.55-1.05 1.04-1.43 1.456l-.077.084.086.107c.474.584 1.151 1.272 2.027 2.026l.206.175c1.861 1.571 4.348 3.272 7.659 5.299l3.737 2.231.736.436 3.209 1.907.327.196.359.218c3.95 2.433 5.233 3.433 5.67 5.603.714 3.586-1.697 7.38-8.13 15.419l-1.07 1.329-1.563 1.924-.308.378-1.441 1.774-1.207 1.507-.044.054.259-.051.352-.071c4.329-.883 10.17-2.308 16.316-3.969 6.014-1.625 11.849-3.349 16.148-4.776 1.851-.614 3.379-1.161 4.51-1.613l.079-.033-.023-.058c-.942-2.295-3.527-6.054-7.964-11.621l-.263-.329-.836-1.042c-7-8.716-8.916-11.323-10.289-14.766-.977-2.456-.084-4.84 2.181-8.619l.581-.952.147-.235.074-.118.151-.237c.991-1.552 2.228-3.329 4.868-7.074l.337-.478c2.532-3.595 3.938-5.688 5.057-7.607l.306-.535.052-.095zM127.427 15.667l-.202.113-10.516 6.033-1.513.891c-3.797 2.244-6.941 4.176-9.236 5.692-1.243.821-2.212 1.504-2.865 2.018l-.199.16-.054.045-.024.116-.33 1.621-.049.247-1.367 7.09-2.993 16.539 37.236-18.487c-1.341-3.034-2.891-6.929-4.295-10.8-1.566-4.315-2.84-8.281-3.581-11.229l-.011-.048zm6.943-1.897l.047.19c.671 2.672 1.876 6.423 3.365 10.526 1.406 3.874 2.962 7.771 4.264 10.685.422.945.807 1.763 1.14 2.425a3.17 3.17 0 0 1 .109.203l.047.098.014.032.115.218 36.071 1.898.986.052 1.976.104 3.154.166 38.017 2.014 22.048 1.215 32.145 1.883 3.35.205 39.373 2.54c-2.316-1.943-5.092-4.183-8.072-6.512-4.461-3.488-9.026-6.896-12.643-9.436-1.873-1.315-3.452-2.368-4.64-3.097-.58-.354-1.051-.622-1.394-.793l-.154-.075-30.183-3.888c-4.41 8.701-23.76 12.488-44.488 10.358-10.147-1.044-20.553-3.506-28.529-6.82-7.589-3.153-12.834-6.932-14.828-11.447l-.712-.052-5.663-.409-18.076-1.242-6.55-.422-10.288-.617zm58.393-4.796c-3.908.775-7.05 1.752-9.084 2.801-.763.393-1.31.767-1.625 1.071l-.041.04.032.15c1.312 5.576 18.197 12.466 37.115 14.519l.592.063c9.823 1.01 19.936.483 27.452-1.372 5.539-1.367 8.799-3.225 9.748-4.826a3.58 3.58 0 0 1-.12-1.488 3.67 3.67 0 0 1 .093-.473c-.962-1.686-4.08-4.016-9.058-6.135-6.806-2.897-15.977-4.997-25.655-5.759-10.258-.807-21.09-.247-29.447 1.409z" fill="#564341"/></g></svg>