<svg xmlns="http://www.w3.org/2000/svg" viewBox="0 0 128 128"><path fill="#FF1744" d="M50.633 39.468h-2.267L33.824 54.661l.423 1.03 8.624 1.563-8.624-1.563 3.05 7.437 26.265 31.47 26.262-31.47 3.051-7.437-8.625 1.563-.096-.53-12.888.016 12.887-.017L76.49 39.5v-.032H54.147l1.71 17.27v.002h-.001v-.002l-1.709-17.27h-3.514Zm12.93 55.13Zm0 0L46.738 64.322 63.562 94.6Zm0 0L52.256 64.752l-.172-.457.172.457 11.305 29.847ZM84.18 57.267l-3.533 7.186 3.533-7.186Zm-3.535 7.186-.13.262.13-.262Zm-5.61-.157-.171.457.172-.457ZM71.05 57.43l-3.638 9.198-.192-.024.192.025 3.638-9.2Zm-11.34 9.2-2.316-5.858 2.315 5.856.196-.025-.196.026Zm3.852 27.97 3.655-27.997-3.654 27.996Zm-20.62-37.334 3.532 7.187-3.532-7.186Zm35.813-17.797 14.543 15.193-.423 1.03-8.625 1.563-.095-.53L76.489 39.5v-.032h2.266ZM56.073 56.74l7.49.012-7.49-.012Z" clip-rule="evenodd"/><path fill="#80DEEA" d="M120 64a55.856 55.856 0 0 1-3.96 20.723l-.013-.005-8.327 1.656-5.206-7.77A41.04 41.04 0 0 0 105.16 64c0-21.382-16.301-38.955-37.155-40.968l.005-.061 5.632-7.6-4.258-7.115C97.787 10.963 120 34.89 120 64Z"/><path fill="#4DD0E1" d="m106.557 89.43 8.141-1.618C105.749 106.834 86.412 120 64 120c-22.475 0-41.858-13.239-50.773-32.347l.012-.005 4.506-7.198 9.225 1.543h.003C33.646 95.71 47.72 105.16 64 105.16c16.457 0 30.657-9.658 37.243-23.613l.049.023"/><path fill="#26C6DA" d="M64.808 22.84v.009c-.268-.006-.537-.01-.808-.01-22.732 0-41.16 18.428-41.16 41.161 0 5.317 1.01 10.395 2.843 15.062l-.049.02-9.33-1.56-4.407 7.037A55.774 55.774 0 0 1 8 64C8 33.072 33.072 8 64 8c.677 0 1.348.011 2.019.035l4.36 7.289"/></svg>