<?xml version="1.0" encoding="UTF-8"?><svg id="a" xmlns="http://www.w3.org/2000/svg" viewBox="0 0 16 16"><defs><style>.b{fill:#ff6d00;}</style></defs><path class="b" d="M6.91,9.46c.14-.11.21-.27.21-.48s-.07-.38-.22-.47c-.15-.09-.38-.14-.69-.14h-.29v1.26h.31c.32,0,.55-.05.68-.16Z"/><path class="b" d="M15,6c0-.3-.1-.57-.26-.8.16-.39.26-.83.26-1.3,0-1.55-.94-2.8-2.1-2.8v3.07l-2.29-2.29c-.82.82-.6,2.37.5,3.47.34.33.72.58,1.1.74.01.17.05.33.12.47l-1.23.61c-.44-.54-1.27-1.17-3.1-1.17s-2.64.66-3.08,1.18l-1.23-.62c.06-.15.11-.31.12-.48.39-.16.77-.41,1.1-.74,1.09-1.1,1.32-2.64.5-3.47l-2.31,2.31V1.1c-1.4,0-2.1,1.26-2.1,2.8,0,.5.08.96.23,1.37-.13.22-.21.47-.21.74,0,.69.51,1.27,1.17,1.38l1.91.96c-.08.12-.14.2-.22.32l-2.38-.53-.3,1.37,1.87.41c-.15.23-.26.43-.33.58l-1.58.46.39,1.35,1.95-.56c.23.18.47.35.75.55l-1.64,1.64.99.99,1.82-1.82c.71.48,1.42.97,1.89,1.32.31.22.52.33.71.33.21,0,.4-.12.69-.33.47-.34,1.18-.84,1.88-1.33l1.83,1.83.99-.99-1.66-1.66c.27-.19.54-.38.76-.54l1.96.56.39-1.35-1.56-.44c-.04-.09-.08-.17-.15-.29-.05-.08-.14-.22-.2-.3l1.87-.41-.3-1.37-2.4.53c-.08-.11-.13-.2-.21-.31l1.92-.96h-.01c.67-.1,1.19-.68,1.19-1.38ZM7.51,12.22l-1.08-1.79h-.51v1.79h-.96v-4.66h1.32c.41,0,.75.05,1.02.15s.47.26.6.46c.13.21.19.47.19.78,0,.21-.04.4-.12.56-.08.16-.18.29-.31.41s-.27.2-.42.27l1.33,2.03h-1.07ZM11.05,11.77c-.11.17-.28.29-.49.38-.22.09-.49.13-.82.13-.24,0-.45-.02-.62-.05-.17-.03-.35-.08-.52-.16v-.8c.19.09.39.16.61.22.22.06.41.08.57.08.18,0,.32-.03.4-.08.08-.06.12-.13.12-.22,0-.06-.02-.11-.05-.16s-.1-.1-.21-.16c-.11-.06-.27-.14-.5-.24-.22-.09-.4-.19-.53-.28s-.24-.21-.31-.34-.1-.3-.1-.5c0-.33.12-.58.37-.74s.58-.25,1-.25c.21,0,.42.02.62.07.2.04.4.12.6.21l-.29.7c-.17-.08-.33-.14-.49-.19-.15-.05-.31-.07-.46-.07-.14,0-.24.02-.31.06s-.11.1-.11.18c0,.06.02.11.05.15.04.05.11.09.21.15.1.05.26.12.46.21.2.08.37.17.51.26.14.09.26.2.33.33.08.13.12.3.12.52,0,.24-.06.45-.17.61Z"/></svg>