<?xml version="1.0" encoding="UTF-8"?><svg id="a" xmlns="http://www.w3.org/2000/svg" viewBox="0 0 16 16"><defs><style>.b{fill:#ff6d00;}</style></defs><path class="b" d="M6.87,8.67h-1.16v1.08h1.16s.1-.03.17-.1c.07-.07.1-.12.1-.17v-.55s-.03-.1-.1-.17c-.07-.07-.12-.1-.17-.1Z"/><path class="b" d="M15,5.97c0-.3-.1-.58-.25-.81.16-.39.25-.84.25-1.32,0-1.57-.94-2.84-2.1-2.84v3.11l-2.29-2.32c-.82.83-.6,2.41.49,3.52.34.34.71.59,1.1.75.01.17.05.33.11.48l-1.23.62c-.44-.55-1.26-1.19-3.1-1.19s-2.64.67-3.08,1.2l-1.23-.63c.06-.15.11-.31.12-.48.39-.17.77-.41,1.1-.75,1.09-1.11,1.32-2.68.5-3.52l-2.31,2.34V1c-1.4,0-2.1,1.27-2.1,2.84,0,.51.08.98.23,1.39-.13.22-.21.47-.21.75,0,.71.51,1.29,1.17,1.4l1.91.97c-.08.12-.14.2-.21.32l-2.38-.54-.3,1.39,1.87.42c-.15.23-.26.43-.33.58l-1.58.46.39,1.37,1.95-.57c.23.18.47.36.75.56l-1.64,1.66.99,1,1.82-1.84c.7.49,1.41.99,1.89,1.34.31.23.52.33.71.33.21,0,.4-.12.69-.33.47-.35,1.18-.85,1.88-1.35l1.83,1.85.99-1-1.66-1.68c.26-.19.53-.38.76-.54l1.96.57.39-1.37-1.56-.45c-.04-.09-.08-.17-.15-.29-.05-.08-.14-.21-.2-.31l1.87-.42-.3-1.39-2.4.54c-.08-.12-.13-.2-.21-.32l1.92-.97c.67-.1,1.19-.69,1.19-1.4ZM7.21,12l-.74-1.58h-.76v1.58h-.7v-4h1.96c.16,0,.3.04.42.13.12.09.23.2.32.32.09.12.13.26.13.42v.67c0,.16-.04.3-.13.42-.09.12-.2.23-.32.32-.06.05-.12.08-.17.09l.79,1.62h-.79ZM11,11.11c0,.16-.05.31-.14.43-.09.12-.2.23-.33.32-.12.09-.26.14-.43.14h-.86c-.19,0-.36-.07-.52-.21-.16-.14-.29-.31-.39-.5l.63-.19c.14.17.22.26.26.26h.81s.1-.03.17-.1c.07-.07.1-.12.1-.17v-.13c0-.06-.03-.09-.09-.1l-1.14-.11c-.19-.02-.34-.09-.46-.2-.12-.12-.18-.28-.18-.49v-.17c0-.16.04-.31.14-.43.09-.12.2-.23.33-.33.12-.09.27-.14.43-.14h.74c.19,0,.36.07.52.21.16.14.29.31.39.5l-.63.19c-.14-.17-.22-.26-.27-.26h-.68s-.1.03-.17.1c-.07.07-.1.13-.1.17v.12s.03.08.1.09l1.1.12c.2.02.36.09.49.21.12.12.19.28.19.49v.17Z"/></svg>