<?xml version="1.0" encoding="UTF-8"?><svg id="a" xmlns="http://www.w3.org/2000/svg" viewBox="0 0 23.98 23.65"><defs><style>.b{fill:#ff6d00;}</style></defs><path class="b" d="M10.13,14.32c.24-.19.35-.46.35-.83s-.13-.65-.38-.81c-.25-.16-.65-.24-1.18-.24h-.5v2.16h.53c.54,0,.94-.09,1.17-.28Z"/><path class="b" d="M23.98,8.4c0-.51-.17-.98-.44-1.37.27-.67.44-1.42.44-2.23,0-2.65-1.61-4.8-3.6-4.8v5.25l-3.92-3.92c-1.41,1.41-1.03,4.06.85,5.94.58.57,1.23.99,1.89,1.27.02.29.09.56.2.81l-2.1,1.05c-.75-.93-2.17-2-5.31-2s-4.52,1.13-5.27,2.02l-2.11-1.06c.11-.26.18-.53.2-.82.67-.28,1.32-.7,1.89-1.27,1.87-1.88,2.26-4.53.85-5.94l-3.95,3.95V0C1.2,0,0,2.15,0,4.8c0,.86.14,1.65.39,2.34-.22.37-.36.8-.36,1.26,0,1.19.87,2.17,2,2.36l3.27,1.64c-.14.2-.24.34-.37.54l-4.08-.91-.52,2.34,3.21.71c-.25.4-.45.73-.57.99l-2.71.78.66,2.31,3.34-.96c.4.3.81.6,1.29.94l-2.81,2.81,1.7,1.7,3.11-3.11c1.21.83,2.43,1.67,3.24,2.26.53.38.89.56,1.22.56.36,0,.69-.2,1.18-.56.81-.59,2.02-1.44,3.22-2.28l3.13,3.13,1.7-1.7-2.84-2.84c.46-.32.92-.65,1.3-.92l3.36.96.66-2.31-2.67-.76c-.07-.16-.13-.29-.26-.49-.08-.14-.24-.37-.34-.52l3.21-.71-.52-2.34-4.11.91c-.14-.19-.23-.34-.36-.53l3.29-1.64h-.02c1.15-.17,2.04-1.16,2.04-2.36ZM11.16,19.04l-1.85-3.06h-.88v3.06h-1.65v-7.99h2.26c.7,0,1.29.09,1.74.26s.8.44,1.02.79c.22.35.33.8.33,1.34,0,.36-.07.68-.2.96-.13.27-.31.5-.53.69s-.46.34-.71.46l2.28,3.48h-1.83ZM17.22,18.28c-.19.29-.47.5-.85.65-.38.15-.84.22-1.4.22-.41,0-.77-.03-1.06-.08-.3-.05-.59-.15-.9-.27v-1.38c.32.15.67.27,1.04.37.37.1.7.14.97.14.32,0,.54-.05.68-.14.14-.1.2-.22.2-.38,0-.1-.03-.19-.08-.28s-.17-.17-.35-.28c-.18-.1-.46-.24-.85-.41-.37-.16-.68-.32-.92-.49s-.42-.36-.53-.58-.17-.51-.17-.86c0-.56.21-.99.64-1.28s1-.43,1.71-.43c.37,0,.72.04,1.05.12.33.08.68.2,1.03.37l-.49,1.2c-.29-.13-.57-.24-.83-.32-.26-.08-.52-.13-.79-.13-.24,0-.42.03-.54.1s-.18.17-.18.3c0,.1.03.19.09.26.06.08.18.16.36.25.18.09.44.21.79.36.34.14.63.29.88.45.25.15.44.35.57.57.13.23.2.52.2.88,0,.42-.09.77-.28,1.05Z"/></svg>