<?xml version="1.0" encoding="UTF-8"?><svg id="a" xmlns="http://www.w3.org/2000/svg" viewBox="0 0 15 14.79"><defs><style>.b{fill:#ff6d00;}</style></defs><path class="b" d="M6.34,8.96c.15-.12.22-.29.22-.52s-.08-.41-.24-.51c-.16-.1-.4-.15-.74-.15h-.31v1.35h.33c.34,0,.59-.06.73-.18Z"/><path class="b" d="M15,5.25c0-.32-.11-.61-.28-.86.17-.42.28-.89.28-1.39,0-1.66-1.01-3-2.25-3v3.28l-2.45-2.45c-.88.88-.64,2.54.53,3.72.36.36.77.62,1.18.79.01.18.06.35.13.51l-1.31.66c-.47-.58-1.36-1.25-3.32-1.25s-2.83.71-3.3,1.26l-1.32-.66c.07-.16.11-.33.13-.51.42-.18.83-.44,1.18-.79,1.17-1.18,1.41-2.83.53-3.72l-2.47,2.47V0C.75,0,0,1.34,0,3c0,.54.09,1.03.24,1.46-.14.23-.23.5-.23.79,0,.74.54,1.36,1.25,1.48l2.05,1.03c-.09.13-.15.21-.23.34l-2.55-.57-.33,1.46,2.01.44c-.16.25-.28.46-.36.62l-1.7.49.41,1.44,2.09-.6c.25.19.51.38.81.59l-1.76,1.76,1.06,1.06,1.95-1.95c.76.52,1.52,1.04,2.03,1.41.33.24.56.35.76.35.23,0,.43-.13.74-.35.51-.37,1.26-.9,2.01-1.43l1.96,1.96,1.06-1.06-1.78-1.78c.29-.2.58-.41.81-.58l2.1.6.41-1.44-1.67-.48c-.04-.1-.08-.18-.16-.31-.05-.09-.15-.23-.21-.33l2.01-.44-.33-1.46-2.57.57c-.09-.12-.14-.21-.23-.33l2.06-1.03h-.01c.72-.11,1.28-.73,1.28-1.48ZM6.98,11.91l-1.16-1.92h-.55v1.92h-1.03v-5h1.42c.44,0,.8.05,1.09.16s.5.27.64.5c.14.22.21.5.21.84,0,.23-.04.43-.13.6-.08.17-.19.32-.33.43s-.29.22-.45.29l1.43,2.18h-1.14ZM10.77,11.44c-.12.18-.3.31-.53.41-.24.09-.53.14-.88.14-.26,0-.48-.02-.67-.05-.19-.03-.37-.09-.56-.17v-.86c.2.09.42.17.65.23.23.06.43.09.61.09.2,0,.34-.03.42-.09.08-.06.13-.14.13-.24,0-.06-.02-.12-.05-.17s-.11-.11-.22-.17c-.11-.06-.29-.15-.53-.25-.23-.1-.42-.2-.57-.3s-.26-.22-.33-.36-.11-.32-.11-.54c0-.35.13-.62.4-.8s.62-.27,1.07-.27c.23,0,.45.02.66.07.21.05.42.12.65.23l-.31.75c-.18-.08-.36-.15-.52-.2-.16-.05-.33-.08-.5-.08-.15,0-.26.02-.34.06s-.11.1-.11.19c0,.06.02.12.06.16.04.05.11.1.23.16.11.06.28.13.49.22.21.09.39.18.55.28.16.1.27.22.36.36.08.14.13.33.13.55,0,.26-.06.48-.18.66Z"/></svg>