<svg xmlns="http://www.w3.org/2000/svg" viewBox="0 0 16 16">
  <path fill="#ff7043"
    d="M12.342,10.169c.782.014,1.577.247,2.018.472.152.078.325.073.467.003.097-.048.18-.126.233-.23.131-.256.029-.57-.227-.7-.508-.259-1.46-.568-2.473-.586-.109-.002-.203.017-.307.022-.104-.312-.254-.606-.46-.872.524-.121,1.003-.38,1.363-.762.273-.289.568-.758.684-1.435.06-.032.223-.093.223-.093.661-.363,1.11-1.066,1.11-1.873,0-1.179-.956-2.135-2.135-2.135v2.135h-2.135c0,1.075.795,1.963,1.829,2.112-.076.217-.18.414-.331.574-.308.326-1.321.484-1.814.486-.598-.311-1.301-.498-2.06-.498-1.005,0-1.913.324-2.602.841-.496-.027-1.215-.203-1.501-.506-.146-.155-.258-.337-.334-.544,1.448-.107,2.589-1.314,2.589-2.789h-2.797V.995C2.135.995.882,2.248.882,3.793c0,1.229.793,2.272,1.895,2.648.119.663.419,1.115.688,1.4.363.385.847.646,1.376.766-.114.194-.205.398-.27.611-1.3-.087-2.426.253-3.289,1.018-.215.191-.235.52-.044.735.088.1.207.157.329.172.142.016.29-.025.406-.128.751-.666,1.679-.813,2.501-.763.014.141.023.282.058.417-1.172.232-2.105.799-2.737,1.673-.168.233-.116.558.117.727.108.078.236.109.359.096.142-.015.278-.088.368-.213.612-.847,1.533-1.188,2.373-1.306.109.149.235.288.371.42-1.31.398-2.275,1.154-2.806,2.227-.127.258-.022.57.236.697.119.059.251.068.37.035.138-.038.259-.133.328-.271.569-1.151,2.095-1.697,3.088-1.902.522.216,1.103.348,1.726.348.647,0,1.248-.143,1.785-.374.979.217,2.384.793,2.945,1.928.068.138.19.233.328.271.119.033.25.024.37-.035.258-.127.363-.44.236-.697-.522-1.056-1.465-1.804-2.742-2.207.1-.095.204-.186.29-.29.933-.159,1.635.14,2.489,1.046.108.115.257.17.403.163.12-.005.239-.052.333-.141.209-.197.219-.527.022-.736-.659-.7-1.486-1.364-2.685-1.405.049-.175.073-.356.087-.54.057-.001.098-.013.158-.012Z" />
  <path fill="#ffab91"
    d="M9.501,6.956c.48.669.77,1.451.77,2.297,0,1.698-1.129,3.152-2.759,3.872.263.046.534.073.813.073,2.144,0,3.882-1.435,3.882-3.204,0-1.429-1.141-2.625-2.706-3.038Z" />
</svg>