<?xml version="1.0" encoding="UTF-8"?><svg id="a" xmlns="http://www.w3.org/2000/svg" viewBox="0 0 24 23.6484375"><defs><style>.b{fill:#ff7524;}.c{fill:#ff5e00;}</style></defs><path class="b" d="M10.0942382812,12.6565429688c-.2765625-.183984375-.692578125-.2765625-1.248046875-.2765625h-.80859375v2.445703125h.849609375c.5689453125,0,.98203125-.106640625,1.2375-.317578125.2560546875-.2109375.3837890625-.525.3837890625-.941015625,0-.423046875-.13828125-.7265625-.4142578125-.910546875Z"/><path class="c" d="M24,8.4c0-.5112304688-.1635498047-.9834228516-.4359375-1.3734375.2699707031-.6659912109.4359375-1.4153320312.4359375-2.2265625,0-2.6520263672-1.6080322266-4.8-3.6-4.8v5.2546875l-3.92109375-3.92109375c-1.4088134766,1.4088134766-1.0271484375,4.0634765625.8484375,5.9390625.5748046875.5748046875,1.2243164063.9882568359,1.88671875,1.27265625.0174316406.2851318359.0890625.5562744141.196875.80625l-2.10234375,1.05234375c-.7521972656-.9317871094-2.1654785156-2.00390625-5.30859375-2.00390625-3.1469970703,0-4.5203613281,1.1306396484-5.2734375,2.0203125l-2.1140625-1.05703125c.1108154297-.2531982422.1835449219-.5281494141.2015625-.81796875.6624023438-.2843994141,1.3119140625-.6978515625,1.88671875-1.27265625,1.8755859375-1.8755859375,2.2583496094-4.5302490234.85078125-5.9390625l-3.9515625,3.94921875V0C1.2,0,0,2.1479736328,0,4.8c0,.8567871094.1382080078,1.6478027344.39140625,2.34140625-.2268310547.3659912109-.36328125.7954101562-.36328125,1.25859375,0,1.1916503906.8704101562,2.1721435547,2.00859375,2.36015625l3.26953125,1.6359375c-.1335205078.2000244141-.2334228516.3344238281-.36796875.5390625l-4.078125-.90703125-.5203125,2.34375,3.2109375.7125c-.251953125.3966796875-.4489746094.7303710938-.5671875.98671875l-2.7140625.77578125.6609375,2.30625,3.34453125-.95625c.401953125.2994140625.8069091797.6008056641,1.2890625.9421875l-2.8125,2.8125,1.696875,1.696875,3.1125-3.1125c1.2064453125.8337158203,2.4246826172,1.6702880859,3.2390625,2.2640625.5304199219.3864257813.8887207031.5625,1.22109375.5625.3588134766,0,.6881103516-.2036865234,1.17890625-.5625.8127685547-.5942871094,2.0225097656-1.4387695312,3.2203125-2.2828125l3.13125,3.13125,1.696875-1.696875-2.840625-2.840625c.4541015625-.3194091797.9141357422-.6470214844,1.2984375-.91875l3.36328125.9609375.6609375-2.30625-2.66953125-.76171875c-.0765380859-.1505859375-.1350585938-.2851318359-.2625-.48515625-.0832763672-.1307373047-.24375-.3607177734-.34453125-.515625l3.20625-.7125-.5203125-2.34375-4.11328125.9140625c-.1338134766-.19921875-.2265380859-.3418212891-.35625-.534375l3.2859375-1.64296875c1.1551757813-.1734375,2.04375-1.1611083984,2.04375-2.36484375ZM11.0346679688,18.8252929687l-1.789453125-2.987109375h-1.2076171875v2.987109375h-1.222265625v-7.477734375h2.1123046875c.9650390625,0,1.6798828125.18046875,2.143359375.54140625.4640625.362109375.69609375.90703125.69609375,1.637109375,0,.93046875-.483984375,1.59375-1.453125,1.98984375l2.112890625,3.309375h-1.3921875ZM16.5799804688,18.4854492187c-.401953125.294140625-.978515625.441796875-1.728515625.441796875-.753515625,0-1.359375-.113671875-1.815234375-.3421875v-1.03828125c.664453125.30703125,1.283203125.460546875,1.85625.460546875.739453125,0,1.109765625-.223828125,1.109765625-.6703125,0-.14296875-.041015625-.2625-.123046875-.35859375-.080859375-.094921875-.215625-.19453125-.403125-.296484375s-.448828125-.21796875-.7828125-.348046875c-.6515625-.251953125-1.0921875-.50390625-1.323046875-.75703125-.2296875-.251953125-.34453125-.57890625-.34453125-.98203125,0-.483984375.19453125-.86015625.5859375-1.12734375.390234375-.268359375.92109375-.401953125,1.592578125-.401953125.665625,0,1.294921875.134765625,1.887890625.404296875l-.3890625.9046875c-.610546875-.251953125-1.123828125-.378515625-1.53984375-.378515625-.633984375,0-.9515625.181640625-.9515625.542578125,0,.176953125.083203125.326953125.2484375.45s.526171875.291796875,1.081640625.50625c.467578125.181640625.807421875.346875,1.018359375.496875s.36796875.3234375.47109375.519140625c.101953125.195703125.153515625.430078125.153515625.703125,0,.551953125-.2015625.976171875-.6046875,1.271484375Z"/></svg>