<?xml version="1.0" encoding="UTF-8"?>
<svg enable-background="new 0 0 500 500" version="1.1" viewBox="0 0 500 500" xml:space="preserve" xmlns="http://www.w3.org/2000/svg">
<style type="text/css">
	.st0{fill:#0A0B09;}
	.st1{fill:#D7252C;}
</style>
<g id="XMLID_1_" fill="#f44336">
	
	<g id="XMLID_7_" class="st1" fill="#f44336"><path d="m350.4 270.7h-200.8c-9.5 0-17.2-7.8-17.2-17.2s7.8-17.2 17.2-17.2h200.7c9.5 0 17.2 7.8 17.2 17.2s-7.6 17.2-17.1 17.2" color="#000000" style="-inkscape-stroke:none"/><path d="m149.6 235.8c-9.6766 0-17.699 8.0226-17.699 17.699 0 9.673 7.9255 17.699 17.699 17.699h200.8c9.7737 0 17.6-8.0297 17.6-17.699 0-9.673-7.9255-17.699-17.699-17.699zm0 1h200.7c9.2263 0 16.699 7.5723 16.699 16.699 0 9.1305-7.3733 16.699-16.6 16.699h-200.8c-9.2263 0-16.699-7.5723-16.699-16.699 0-9.1234 7.5758-16.699 16.699-16.699z" color="#000000" style="-inkscape-stroke:none"/></g>
</g>
<g transform="translate(0 -.12699)" fill="#b0bec5"><path d="m122.57 179.48c0-0.51168 0.65595-4.1844 1.4577-8.1615 5.358-26.58 20.208-52.425 40.36-70.24 9.6926-8.5687 18.021-14.213 29.153-19.758 55.379-27.585 123.52-11.521 160.52 37.843 10.412 13.892 17.718 28.615 21.865 44.064 1.512 5.633 3.2351 14.209 3.2351 16.1 0 1.0579-2.882 1.0822-128.29 1.0822-118.02 0-128.29-0.0745-128.29-0.93033z"/><path d="m121.55 321.56c-5.3721-1.4463-9.2463-4.1392-12.845-8.9282-3.3475-4.4551-4.4692-8.9281-4.4692-17.821v-7.471l-2.8938-2.7746c-1.6479-1.58-3.559-4.1939-4.4387-6.0712l-1.5449-3.2966v-40.092l1.6039-3.2661c0.92417-1.882 2.8053-4.3462 4.4387-5.8149l2.8348-2.5488v-7.5194c0-6.0852 0.22578-8.1896 1.1838-11.033 2.9294-8.6957 10.032-14.657 19.01-15.956 4.7212-0.68284 246.41-0.68284 251.14 0 8.9782 1.2986 16.081 7.2598 19.01 15.956 0.95802 2.8438 1.1838 4.9482 1.1838 11.033v7.5194l2.8348 2.5488c1.6335 1.4686 3.5145 3.9329 4.4387 5.8149l1.6039 3.2661v20.332c0 23.503 0.0355 23.321-5.6565 28.879l-3.1153 3.0415-0.19604 8.8108c-0.18914 8.5007-0.25905 8.9419-1.9863 12.534-2.2637 4.7074-4.9776 7.8056-8.8838 10.142-6.4562 3.8614 3.1505 3.6078-135.06 3.5662-106.19-0.032-125.62-0.1609-128.18-0.85029zm236.25-52.237c6.0803-3.249 9.3555-8.1848 9.7585-14.706 0.45351-7.3392-3.2533-13.693-9.8948-16.961l-2.8546-1.4047-103.64-0.15083c-115.32-0.16783-107.04-0.44606-112.38 3.7765-4.0315 3.1883-6.0588 7.2434-6.378 12.757-0.22405 3.8703-0.0702 4.8028 1.2796 7.7539 1.6847 3.6833 3.5942 5.9502 6.5567 7.7837 4.5495 2.8156-0.69645 2.694 110.61 2.5649l104.52-0.12122z"/><path d="m176.69 431.78c-7.681-0.95054-17.793-4.8031-24.266-9.2453-3.7315-2.5607-10.061-8.7133-13.039-12.675-5.4086-7.194-9.3184-17.067-10.458-26.408-0.36951-3.0278-0.62972-15.611-0.63066-30.498l-2e-3 -25.344h29.782l0.0113 24.485c6e-3 13.466 0.27104 26.289 0.58844 28.494 1.2204 8.478 6.3209 15.477 14.021 19.24l3.9934 1.9515 11.455 0.16811c10.237 0.15025 11.66 0.0561 13.382-0.88543 1.2004-0.65631 5.3034-5.3548 10.882-12.461 4.9253-6.2743 9.8309-11.997 10.901-12.717l1.9461-1.3093h25.745c22.692 0 25.98 0.11158 27.728 0.94079 1.4029 0.66574 4.6798 4.3692 11.208 12.667 5.0739 6.4494 10.02 12.211 10.991 12.803 2.5769 1.5714 20.913 1.5974 25.912 0.0368 7.8956-2.4647 13.868-8.4368 16.332-16.332 0.94775-3.0361 1.044-5.8202 1.044-30.212v-26.868h30.463l-0.24523 28.494-0.24524 28.494-1.5288 5.7225c-6.0367 22.596-24.302 38.692-47.057 41.469-6.2466 0.76232-142.75 0.75428-148.91-9e-3z"/><path d="m197.89 359.11c-2.8278-2.4798-5.2244-4.7573-5.3257-5.0612s2.5447-3.6722 5.88-7.4849l6.0642-6.9323 90.161 0.0444 12.279 14.203-4.4211 3.8768c-2.4316 2.1323-4.9598 4.3452-5.6181 4.9177-1.1821 1.0279-1.2421 0.98706-4.8052-3.2684l-3.6082-4.3093-77.446-0.0356-8.0183 8.5588z"/></g></svg>
