<?xml version="1.0" encoding="UTF-8" standalone="no"?>
<!-- Generator: Adobe Illustrator 19.0.0, SVG Export Plug-In . SVG Version: 6.00 Build 0)  -->

<svg
   version="1.1"
   id="Layer_1"
   x="0px"
   y="0px"
   viewBox="0 0 500 500"
   style="enable-background:new 0 0 500 500;"
   xml:space="preserve"
   sodipodi:docname="rubocop.svg"
   inkscape:version="1.1 (c68e22c387, 2021-05-23)"
   xmlns:inkscape="http://www.inkscape.org/namespaces/inkscape"
   xmlns:sodipodi="http://sodipodi.sourceforge.net/DTD/sodipodi-0.dtd"
   xmlns="http://www.w3.org/2000/svg"
   xmlns:svg="http://www.w3.org/2000/svg"><defs
   id="defs10" /><sodipodi:namedview
   id="namedview8"
   pagecolor="#ffffff"
   bordercolor="#666666"
   borderopacity="1.0"
   inkscape:pageshadow="2"
   inkscape:pageopacity="0.0"
   inkscape:pagecheckerboard="0"
   showgrid="false"
   inkscape:zoom="1.746"
   inkscape:cx="250"
   inkscape:cy="250"
   inkscape:window-width="2560"
   inkscape:window-height="1377"
   inkscape:window-x="-8"
   inkscape:window-y="-8"
   inkscape:window-maximized="1"
   inkscape:current-layer="Layer_1" />
<style
   type="text/css"
   id="style2">
	.st0{fill:#0A0B09;}
	.st1{fill:#D7252C;}
</style>
<g
   id="XMLID_1_">
	<path
   id="XMLID_2_"
   class="st0"
   d="M396.1,223.5v-11.7c0-12.8-10.5-23.4-23.4-23.4H127.3c-12.8,0-23.4,10.5-23.4,23.4v11.7   c-5.4,3.3-9.1,9.3-9.1,16.1v31.4c0,6.8,3.7,12.8,9.1,16.1v12.2c0,12.8,10.5,23.4,23.4,23.4h245.5c12.9,0,23.4-10.5,23.4-23.4v-12.2   c5.4-3.3,9.1-9.3,9.1-16.1v-31.4C405.2,232.8,401.5,226.9,396.1,223.5z M250.9,67.5c-66.2,0-120.7,49.4-128.9,113.4h257.8   C371.7,116.9,317.1,67.5,250.9,67.5z M211.2,355.1h76.7l7.8,9.1l11.8-10.2L295,339.6h-91L191.5,354l11.8,10.2L211.2,355.1z    M344.1,327.5v49.7c0,13.7-11.2,24.8-24.8,24.8h-13.5v0c-3,0-5.6-1.4-7.3-3.5h0l-16.2-20.6l0,0c-1.7-2.2-4.4-3.7-7.4-3.7l-0.1,0   l-0.1,0h-46.8l-0.1,0l-0.1,0c-2.8,0-5.3,1.3-7,3.2l0,0l-16.5,21.1h0c-1.7,2.1-4.4,3.5-7.3,3.5v0h-13.5c-13.7,0-24.8-11.2-24.8-24.8   v-49.7h-30.4v49.8c0,30.4,24.8,55.2,55.2,55.2h136c30.4,0,55.2-24.8,55.2-55.2v-49.8H344.1z" />
	<path
   id="XMLID_7_"
   class="st1"
   d="M350.4,270.7H149.6c-9.5,0-17.2-7.8-17.2-17.2s7.8-17.2,17.2-17.2h200.7   c9.5,0,17.2,7.8,17.2,17.2S359.9,270.7,350.4,270.7" />
</g>
<path
   style="fill:#eeeeee;fill-opacity:1;stroke:#0a0b09;stroke-width:0.572738"
   d="m 122.56586,179.48204 c 0,-0.51168 0.65595,-4.18436 1.45766,-8.16151 5.35797,-26.58011 20.20845,-52.42451 40.36049,-70.23966 9.69265,-8.568668 18.02066,-14.21289 29.15283,-19.75804 55.37855,-27.585113 123.51645,-11.520859 160.51581,37.84335 10.41236,13.89208 17.71793,28.61513 21.86457,44.06406 1.51195,5.63301 3.23513,14.20856 3.23513,16.09993 0,1.05789 -2.88197,1.0822 -128.29324,1.0822 -118.02189,0 -128.29325,-0.0745 -128.29325,-0.93033 z"
   id="path12993" /><path
   style="fill:#eeeeee;fill-opacity:1;stroke:#0a0b09;stroke-width:0.572738"
   d="m 121.55221,321.56334 c -5.37208,-1.44629 -9.24633,-4.13924 -12.84471,-8.92824 -3.34749,-4.45509 -4.46924,-8.9281 -4.46924,-17.82124 v -7.47097 l -2.89381,-2.77457 c -1.647929,-1.58001 -3.558953,-4.19388 -4.438721,-6.07121 l -1.544904,-3.29665 v -20.04582 -20.04582 l 1.603874,-3.2661 c 0.924166,-1.88196 2.805256,-4.34625 4.438721,-5.81487 l 2.83484,-2.54877 v -7.51935 c 0,-6.08523 0.22578,-8.18956 1.1838,-11.0334 2.92938,-8.69574 10.03182,-14.657 19.00999,-15.95556 4.72115,-0.68284 246.41475,-0.68284 251.1359,0 8.97817,1.29856 16.08061,7.25982 19.00999,15.95556 0.95802,2.84384 1.1838,4.94817 1.1838,11.0334 v 7.51935 l 2.83485,2.54877 c 1.63346,1.46862 3.51454,3.93291 4.43871,5.81487 l 1.60388,3.2661 v 20.33219 c 0,23.50279 0.0355,23.32148 -5.65647,28.87862 l -3.11526,3.04148 -0.19604,8.81085 c -0.18914,8.50072 -0.25905,8.94189 -1.98627,12.53365 -2.26368,4.70736 -4.97756,7.80555 -8.8838,10.14185 -6.45625,3.86143 3.15047,3.60779 -135.06486,3.56617 -106.18819,-0.032 -125.62366,-0.1609 -128.18427,-0.85029 z m 236.24974,-52.23696 c 6.08026,-3.249 9.35554,-8.18482 9.7585,-14.70601 0.45351,-7.33918 -3.25332,-13.6933 -9.89483,-16.96139 L 354.811,236.2543 251.17514,236.10347 c -115.32032,-0.16783 -107.04082,-0.44606 -112.3801,3.77651 -4.03149,3.18829 -6.05885,7.24339 -6.37804,12.7573 -0.22405,3.87029 -0.0702,4.80281 1.27959,7.7539 1.68466,3.68334 3.59421,5.95024 6.55672,7.78371 4.54947,2.81563 -0.69645,2.69398 110.6058,2.56489 l 104.52462,-0.12122 z"
   id="path13180" /><path
   style="fill:#eeeeee;fill-opacity:1;stroke:#0a0b09;stroke-width:0.572738"
   d="m 176.68958,431.7759 c -7.68098,-0.95054 -17.79285,-4.80313 -24.26627,-9.24534 -3.73151,-2.56066 -10.0612,-8.71327 -13.03939,-12.67462 -5.40857,-7.19403 -9.3184,-17.06658 -10.4584,-26.40806 -0.36951,-3.02785 -0.62972,-15.61136 -0.63066,-30.49828 l -0.002,-25.34364 h 14.89118 14.89118 l 0.0113,24.48453 c 0.006,13.4665 0.27104,26.28866 0.58844,28.4937 1.22035,8.47797 6.32087,15.47709 14.02079,19.23983 l 3.9934,1.95147 11.45475,0.16811 c 10.23749,0.15025 11.65952,0.0561 13.38165,-0.88543 1.20037,-0.65631 5.30335,-5.35475 10.88202,-12.46131 4.92531,-6.27428 9.83086,-11.99697 10.90121,-12.71709 l 1.9461,-1.30932 H 251 c 22.69163,0 25.98027,0.11158 27.72771,0.94079 1.40293,0.66574 4.67977,4.36923 11.20779,12.66706 5.07388,6.44944 10.01964,12.21069 10.99058,12.80277 2.57689,1.57138 20.91313,1.59745 25.9125,0.0368 7.89563,-2.46471 13.86767,-8.43675 16.33239,-16.33239 0.94775,-3.03607 1.04395,-5.8202 1.04395,-30.2119 v -26.86764 h 15.23131 15.2313 l -0.24523,28.4937 -0.24524,28.4937 -1.52883,5.7225 c -6.03674,22.59584 -24.30186,38.69182 -47.05729,41.46881 -6.24665,0.76232 -142.74592,0.75428 -148.91179,-0.009 z"
   id="path13219" /><path
   style="fill:#eeeeee;fill-opacity:1;stroke:#0a0b09;stroke-width:0.572738"
   d="m 197.89398,359.11191 c -2.82784,-2.47975 -5.22443,-4.75731 -5.32574,-5.06125 -0.10131,-0.30394 2.54471,-3.67215 5.88005,-7.48491 l 6.06425,-6.9323 45.0805,0.0222 45.0805,0.0222 6.13931,7.10134 6.1393,7.10133 -4.42109,3.87684 c -2.4316,2.13226 -4.95975,4.34523 -5.61811,4.91772 -1.18206,1.02789 -1.2421,0.98706 -4.80522,-3.26838 l -3.60821,-4.30927 -38.72284,-0.0178 -38.72284,-0.0178 -4.00917,4.27937 -4.00916,4.27938 z"
   id="path13258" /><path
   style="fill:#d32f2f;fill-opacity:1;stroke:#0a0b09;stroke-width:0.572738"
   d="m 151.17641,269.78392 c -6.53536,-0.30271 -8.07013,-0.5527 -9.73654,-1.58597 -3.1004,-1.92242 -5.50618,-4.73428 -7.17485,-8.38592 -1.30071,-2.8464 -1.49225,-3.90397 -1.25112,-6.90791 0.50932,-6.34502 3.7642,-11.64512 8.71877,-14.19722 1.85364,-0.95482 4.01155,-1.2642 11.74112,-1.68332 5.20855,-0.28242 52.64018,-0.44218 105.40364,-0.35502 l 95.93357,0.15847 2.41821,1.29218 c 3.79266,2.02662 6.27879,4.52599 8.01129,8.05398 1.33384,2.71618 1.59221,3.96412 1.56303,7.5496 -0.043,5.27797 -1.74351,9.00461 -5.69708,12.48468 -5.07156,4.46417 3.48707,4.13582 -105.05155,4.03026 -53.4161,-0.0519 -100.61143,-0.25617 -104.87849,-0.45381 z"
   id="path15440" /></svg>
