<?xml version="1.0" encoding="UTF-8" standalone="no"?>
<!-- Generator: Adobe Illustrator 19.0.0, SVG Export Plug-In . SVG Version: 6.00 Build 0)  -->

<svg
   version="1.1"
   id="Layer_1"
   x="0px"
   y="0px"
   viewBox="0 0 500 500"
   style="enable-background:new 0 0 500 500;"
   xml:space="preserve"
   sodipodi:docname="rubocop.svg"
   inkscape:version="1.1 (c68e22c387, 2021-05-23)"
   xmlns:inkscape="http://www.inkscape.org/namespaces/inkscape"
   xmlns:sodipodi="http://sodipodi.sourceforge.net/DTD/sodipodi-0.dtd"
   xmlns="http://www.w3.org/2000/svg"
   xmlns:svg="http://www.w3.org/2000/svg"><defs
   id="defs10" /><sodipodi:namedview
   id="namedview8"
   pagecolor="#ffffff"
   bordercolor="#666666"
   borderopacity="1.0"
   inkscape:pageshadow="2"
   inkscape:pageopacity="0.0"
   inkscape:pagecheckerboard="0"
   showgrid="false"
   inkscape:zoom="1.4142136"
   inkscape:cx="578.05979"
   inkscape:cy="215.31401"
   inkscape:window-width="2560"
   inkscape:window-height="1377"
   inkscape:window-x="-8"
   inkscape:window-y="-8"
   inkscape:window-maximized="1"
   inkscape:current-layer="Layer_1" />
<style
   type="text/css"
   id="style2">
	.st0{fill:#0A0B09;}
	.st1{fill:#D7252C;}
</style>
<g
   id="XMLID_1_">
	<path
   id="XMLID_2_"
   class="st0"
   d="M396.1,223.5v-11.7c0-12.8-10.5-23.4-23.4-23.4H127.3c-12.8,0-23.4,10.5-23.4,23.4v11.7   c-5.4,3.3-9.1,9.3-9.1,16.1v31.4c0,6.8,3.7,12.8,9.1,16.1v12.2c0,12.8,10.5,23.4,23.4,23.4h245.5c12.9,0,23.4-10.5,23.4-23.4v-12.2   c5.4-3.3,9.1-9.3,9.1-16.1v-31.4C405.2,232.8,401.5,226.9,396.1,223.5z M250.9,67.5c-66.2,0-120.7,49.4-128.9,113.4h257.8   C371.7,116.9,317.1,67.5,250.9,67.5z M211.2,355.1h76.7l7.8,9.1l11.8-10.2L295,339.6h-91L191.5,354l11.8,10.2L211.2,355.1z    M344.1,327.5v49.7c0,13.7-11.2,24.8-24.8,24.8h-13.5v0c-3,0-5.6-1.4-7.3-3.5h0l-16.2-20.6l0,0c-1.7-2.2-4.4-3.7-7.4-3.7l-0.1,0   l-0.1,0h-46.8l-0.1,0l-0.1,0c-2.8,0-5.3,1.3-7,3.2l0,0l-16.5,21.1h0c-1.7,2.1-4.4,3.5-7.3,3.5v0h-13.5c-13.7,0-24.8-11.2-24.8-24.8   v-49.7h-30.4v49.8c0,30.4,24.8,55.2,55.2,55.2h136c30.4,0,55.2-24.8,55.2-55.2v-49.8H344.1z" />
	<path
   id="XMLID_7_"
   class="st1"
   d="M350.4,270.7H149.6c-9.5,0-17.2-7.8-17.2-17.2s7.8-17.2,17.2-17.2h200.7   c9.5,0,17.2,7.8,17.2,17.2S359.9,270.7,350.4,270.7" />
</g>
<path
   id="path57092"
   style="fill:#000000;fill-opacity:1;stroke:#0a0b09;stroke-width:0.572738;stroke-opacity:1"
   d="M 253.38672 67.927734 C 233.11803 67.514926 212.57349 71.839883 193.53711 81.322266 C 182.40494 86.867416 174.07742 92.511408 164.38477 101.08008 C 144.23273 118.89523 129.38141 144.7402 124.02344 171.32031 C 123.22173 175.29746 122.56641 178.97074 122.56641 179.48242 C 122.56641 180.33825 132.83747 180.41211 250.85938 180.41211 C 376.27064 180.41211 379.15234 180.38797 379.15234 179.33008 C 379.15234 177.43871 377.42992 168.86348 375.91797 163.23047 C 371.77133 147.78154 364.46509 133.0581 354.05273 119.16602 C 329.7719 86.770749 292.08148 68.715824 253.38672 67.927734 z M 250 188.45898 C 188.39631 188.45898 126.79222 188.62928 124.43164 188.9707 C 115.45347 190.26926 108.35124 196.23004 105.42188 204.92578 C 104.46384 207.76962 104.23828 209.87375 104.23828 215.95898 L 104.23828 223.47852 L 101.4043 226.02734 C 99.770829 227.49596 97.88901 229.95984 96.964844 231.8418 L 95.361328 235.10938 L 95.361328 255.1543 L 95.361328 275.20117 L 96.90625 278.49805 C 97.786018 280.37538 99.695821 282.98835 101.34375 284.56836 L 104.23828 287.34375 L 104.23828 294.81445 C 104.23828 303.70759 105.35954 308.17968 108.70703 312.63477 C 112.30541 317.42377 116.18065 320.11621 121.55273 321.5625 C 124.11334 322.25189 143.54814 322.38206 249.73633 322.41406 C 387.95166 322.45568 378.34453 322.70909 384.80078 318.84766 C 388.70702 316.51136 391.42187 313.41244 393.68555 308.70508 C 395.41277 305.11332 395.48273 304.6726 395.67188 296.17188 L 395.86719 287.36133 L 398.98242 284.32031 C 404.67439 278.76317 404.63867 278.9442 404.63867 255.44141 L 404.63867 235.10938 L 403.03516 231.8418 C 402.11099 229.95984 400.22916 227.49596 398.5957 226.02734 L 395.76172 223.47852 L 395.76172 215.95898 C 395.76172 209.87375 395.53615 207.76962 394.57812 204.92578 C 391.64874 196.23004 384.54653 190.26926 375.56836 188.9707 C 373.20778 188.62928 311.60369 188.45898 250 188.45898 z M 185.7168 236.0293 C 201.24094 236.013 222.3457 236.06156 251.17578 236.10352 L 354.81055 236.25391 L 357.66602 237.6582 C 364.30753 240.92629 368.01406 247.28191 367.56055 254.62109 C 367.15759 261.14228 363.88299 266.07717 357.80273 269.32617 L 355.38281 270.61914 L 250.85938 270.74023 C 139.55712 270.86932 144.80338 270.99141 140.25391 268.17578 C 137.2914 266.34231 135.38193 264.07396 133.69727 260.39062 C 132.34748 257.43955 132.19392 256.50701 132.41797 252.63672 C 132.73716 247.12281 134.76343 243.06915 138.79492 239.88086 C 142.79938 236.71393 139.14437 236.07817 185.7168 236.0293 z M 128.29297 327.60547 L 128.29492 352.94922 C 128.29586 367.83614 128.55627 380.41942 128.92578 383.44727 C 130.06578 392.78875 133.9762 402.66144 139.38477 409.85547 C 142.36296 413.81682 148.69232 419.97059 152.42383 422.53125 C 158.89725 426.97346 169.00847 430.82485 176.68945 431.77539 C 182.85532 432.53867 319.35491 432.54748 325.60156 431.78516 C 348.35699 429.00817 366.62146 412.91225 372.6582 390.31641 L 374.1875 384.59375 L 374.43164 356.09961 L 374.67773 327.60547 L 359.44531 327.60547 L 344.21484 327.60547 L 344.21484 354.47266 C 344.21484 378.86436 344.11962 381.64948 343.17188 384.68555 C 340.70716 392.58119 334.73352 398.55287 326.83789 401.01758 C 321.83852 402.57823 303.50267 402.55185 300.92578 400.98047 C 299.95484 400.38839 295.00943 394.62717 289.93555 388.17773 C 283.40753 379.8799 280.13145 376.17746 278.72852 375.51172 C 276.98108 374.68251 273.69163 374.57031 251 374.57031 L 225.25391 374.57031 L 223.30859 375.87891 C 222.23824 376.59903 217.33351 382.32338 212.4082 388.59766 C 206.82953 395.70422 202.72576 400.40228 201.52539 401.05859 C 199.80326 402.00012 198.38202 402.09361 188.14453 401.94336 L 176.68945 401.77539 L 172.69531 399.82422 C 164.99539 396.06148 159.89613 389.06195 158.67578 380.58398 C 158.35838 378.37894 158.09194 365.55634 158.08594 352.08984 L 158.07617 327.60547 L 143.18359 327.60547 L 128.29297 327.60547 z " /><path
   style="fill:#d32f2f;fill-opacity:1;stroke:#0a0b09;stroke-width:0.572738;stroke-opacity:1"
   d="m 151.17641,269.78392 c -6.53536,-0.30271 -8.07013,-0.5527 -9.73654,-1.58597 -3.1004,-1.92242 -5.50618,-4.73428 -7.17485,-8.38592 -1.30071,-2.8464 -1.49225,-3.90397 -1.25112,-6.90791 0.50885,-6.33923 3.76435,-11.64513 8.7073,-14.19137 1.80826,-0.93149 4.03894,-1.26707 11.16838,-1.68016 4.89985,-0.2839 52.33665,-0.4463 105.41512,-0.36087 l 96.5063,0.15531 2.41821,1.29218 c 3.79266,2.02662 6.27879,4.52599 8.01129,8.05398 1.33384,2.71618 1.59221,3.96412 1.56303,7.5496 -0.043,5.27797 -1.74351,9.00461 -5.69708,12.48468 -5.07156,4.46417 3.48707,4.13582 -105.05155,4.03026 -53.4161,-0.0519 -100.61143,-0.25617 -104.87849,-0.45381 z"
   id="path62894" /></svg>
