<svg viewBox="0 0 24 24" xmlns="http://www.w3.org/2000/svg"><path fill="#F44336" d="M6.463 21.452h-.015l-.001-.012a6.527 6.527 0 0 1-.647-.062 4.555 4.555 0 0 1-1.172-.329 3.352 3.352 0 0 1-1.663-1.605 4.228 4.228 0 0 1-.316-.889 5.919 5.919 0 0 1-.161-1.252l-.009-.17 1.384-2.529c-.025-.024-.052-.048-.076-.073l-.092-.091v-.01a2.257 2.257 0 0 1-.436-.759 2.994 2.994 0 0 1-.158-.998c0-.459.083-.963.249-1.5a8.844 8.844 0 0 1 .689-1.586c.597-1.093 1.437-2.189 2.426-3.172l.188-.181h.007a15.904 15.904 0 0 1 2.249-1.816c.863-.568 1.696-.985 2.475-1.241.575-.184 1.081-.273 1.548-.273.346 0 .666.052.954.155a2.161 2.161 0 0 1 1.203 1.037l2.958-1.568.105.017c.679.115 1.265.332 1.741.645.454.297.82.684 1.091 1.148.161.28.287.591.376.924.105.396.159.833.159 1.301v.445h-.026l-1.03 13.51-13.41.915v.019h-.004v.01l-.292-.009-.293.02-.001-.021zm1.084-1.305 11.751-.802.753-9.882-5.309.398 1.862 7.284-7.335-2.344-1.722 5.346zm-3.805-2.72c.029.456.108.861.234 1.204.118.32.275.583.479.802.119.125.254.235.401.327.18.112.387.203.616.271.112.034.229.062.357.084L4.26 16.484l-.518.943zm2.955 1.565 1.409-4.542c-.366.181-.72.329-1.059.442-.56.189-1.079.286-1.542.286a3.07 3.07 0 0 1-.457-.034l1.649 3.848zm8.138-3.725-1.367-5.349c-.435.577-.927 1.14-1.468 1.678l-.004.004a17.33 17.33 0 0 1-2.419 1.988l5.258 1.679zM7.168 7.486a13.224 13.224 0 0 0-1.597 1.977c-.466.711-.821 1.432-1.025 2.083-.131.428-.197.807-.193 1.123v.008c-.004.213.025.409.087.583v.003a.972.972 0 0 0 .234.384.87.87 0 0 0 .328.206c.14.049.309.074.502.074.328 0 .723-.075 1.144-.217a8.355 8.355 0 0 0 1.422-.656c1.016-.577 2.07-1.388 3.048-2.348a13.944 13.944 0 0 0 1.784-2.155c.474-.719.833-1.433 1.034-2.064.128-.399.196-.78.196-1.101 0-.211-.028-.399-.084-.559a1.005 1.005 0 0 0-.231-.373.851.851 0 0 0-.344-.214l-.005-.002a1.582 1.582 0 0 0-.535-.083c-.336 0-.725.072-1.156.215h-.003a8.03 8.03 0 0 0-1.417.632C9.329 5.574 8.293 6.37 7.36 7.304l-.189.182h-.003zm8.213-1.979c-.014.418-.1.876-.255 1.363a8.588 8.588 0 0 1-.694 1.569c-.035.065-.073.13-.111.198l4.537-.284-3.477-2.846zm4.787 2.457.101-1.339v-.062c0-.399-.049-.767-.147-1.091a2.263 2.263 0 0 0-.478-.862 2.195 2.195 0 0 0-.544-.438l-.004-.002a3.195 3.195 0 0 0-.953-.354l-1.708.953 3.733 3.195z" style="fill:#f44336;stroke-width:.88855"/></svg>