<svg viewBox="0 0 24 24" xmlns="http://www.w3.org/2000/svg"><path fill="#F44336" d="M6.463,21.452H6.448L6.447,21.44c-0.199-0.01-0.413-0.027-0.647-0.062c-0.43-0.064-0.824-0.175-1.172-0.329
	c-0.295-0.13-0.562-0.296-0.792-0.491c-0.356-0.292-0.649-0.667-0.871-1.114c-0.129-0.258-0.236-0.559-0.316-0.889
	c-0.095-0.389-0.15-0.811-0.161-1.252l-0.009-0.17l1.384-2.529c-0.025-0.024-0.052-0.048-0.076-0.073L3.695,14.44v-0.01
	c-0.191-0.217-0.34-0.478-0.436-0.759c-0.104-0.294-0.158-0.63-0.158-0.998c0-0.459,0.083-0.963,0.249-1.5
	c0.166-0.522,0.396-1.055,0.689-1.586c0.597-1.093,1.437-2.189,2.426-3.172l0.188-0.181H6.66c0.712-0.687,1.467-1.298,2.249-1.816
	c0.863-0.568,1.696-0.985,2.475-1.241c0.575-0.184,1.081-0.273,1.548-0.273c0.346,0,0.666,0.052,0.954,0.155
	c0.319,0.112,0.595,0.287,0.821,0.517c0.152,0.152,0.28,0.327,0.382,0.52l2.958-1.568l0.105,0.017
	c0.679,0.115,1.265,0.332,1.741,0.645c0.454,0.297,0.82,0.684,1.091,1.148c0.161,0.28,0.287,0.591,0.376,0.924
	c0.105,0.396,0.159,0.833,0.159,1.301v0.445h-0.026l-1.03,13.51l-13.41,0.915l0,0.019H7.049v0.01l-0.292-0.009l-0.293,0.02
	L6.463,21.452z M7.547,20.147l11.751-0.802l0.753-9.882l-5.309,0.398l1.862,7.284l-7.335-2.344L7.547,20.147z M3.742,17.427
	c0.029,0.456,0.108,0.861,0.234,1.204c0.118,0.32,0.275,0.583,0.479,0.802c0.119,0.125,0.254,0.235,0.401,0.327
	c0.18,0.112,0.387,0.203,0.616,0.271c0.112,0.034,0.229,0.062,0.357,0.084L4.26,16.484L3.742,17.427z M6.697,18.992l1.409-4.542
	c-0.366,0.181-0.72,0.329-1.059,0.442c-0.56,0.189-1.079,0.286-1.542,0.286c-0.158,0-0.311-0.012-0.457-0.034L6.697,18.992z
	 M14.835,15.267l-1.367-5.349c-0.435,0.577-0.927,1.14-1.468,1.678l-0.004,0.004c-0.779,0.762-1.592,1.431-2.419,1.988
	L14.835,15.267z M7.168,7.486C6.561,8.108,6.024,8.772,5.571,9.463c-0.466,0.711-0.821,1.432-1.025,2.083
	c-0.131,0.428-0.197,0.807-0.193,1.123v0.008C4.349,12.89,4.378,13.086,4.44,13.26l0,0.003c0.052,0.153,0.129,0.279,0.234,0.384
	c0.091,0.092,0.196,0.157,0.328,0.206c0.14,0.049,0.309,0.074,0.502,0.074c0.328,0,0.723-0.075,1.144-0.217
	c0.443-0.151,0.922-0.371,1.422-0.656c1.016-0.577,2.07-1.388,3.048-2.348c0.675-0.668,1.292-1.414,1.784-2.155
	c0.474-0.719,0.833-1.433,1.034-2.064c0.128-0.399,0.196-0.78,0.196-1.101c0-0.211-0.028-0.399-0.084-0.559
	c-0.056-0.152-0.13-0.271-0.231-0.373c-0.098-0.099-0.211-0.17-0.344-0.214l-0.005-0.002c-0.152-0.055-0.333-0.083-0.535-0.083
	c-0.336,0-0.725,0.072-1.156,0.215l-0.003,0c-0.439,0.141-0.916,0.354-1.417,0.632C9.329,5.574,8.293,6.37,7.36,7.304L7.171,7.486
	H7.168z M15.381,5.507c-0.014,0.418-0.1,0.876-0.255,1.363c-0.166,0.515-0.398,1.043-0.694,1.569
	c-0.035,0.065-0.073,0.13-0.111,0.198l4.537-0.284L15.381,5.507z M20.168,7.964l0.101-1.339V6.563c0-0.399-0.049-0.767-0.147-1.091
	c-0.104-0.336-0.26-0.619-0.478-0.862c-0.154-0.172-0.332-0.315-0.544-0.438l-0.004-0.002c-0.259-0.154-0.58-0.273-0.953-0.354
	l-1.708,0.953L20.168,7.964z" style="fill:#f44336;stroke-width:.88855"/></svg>