<svg viewBox="0 0 1200 800" xmlns="http://www.w3.org/2000/svg" fill-rule="evenodd" clip-rule="evenodd" stroke-linejoin="round" stroke-miterlimit="1.414"><path d="M597.344 357.461c-121.238 0-231.39 14.576-312.939 38.329v202.901c81.549 23.754 191.701 38.329 312.939 38.329 138.76 0 262.987-19.092 346.431-49.186V406.65c-83.444-30.095-207.671-49.189-346.431-49.189m471.406 164.861l-14.211-29.441c.073-1.118.131-2.237.131-3.36 0-33.375-34.706-64.135-93.097-88.762v177.526c27.245-11.492 49.348-24.317 65.156-38.125-4.652 18.707-20.564 56.553-33.25 83.168-20.85 38.066-28.4 71.203-27.432 72.844.617 1.033 7.73-9.94 18.219-27.721 24.41-34.781 70.664-101.182 79.909-118.096 10.472-19.174 4.575-28.033 4.575-28.033m-919.686-30.855c0 6.428 1.293 12.76 3.788 18.969l-8.511 15.15s-6.818 8.846 5.188 27.508c10.59 16.455 63.635 80.867 91.632 114.598 12.026 17.293 20.179 27.945 20.893 26.916 1.124-1.633-7.476-34.1-31.359-71.141-11.144-19.895-24.454-46.252-32.442-65.721 22.303 14.116 51.483 26.92 86.152 37.94V387.251c-83.544 26.548-135.341 63.433-135.341 104.216" fill="#bf360c" fill-rule="nonzero"/><path d="M1151.27 522.156l-93.415-68.811c-.88-3.064-1.756-6.127-2.662-9.162l30.683-44.451c3.13-4.522 3.765-10.398 1.731-15.555-2.037-5.13-6.491-8.81-11.763-9.71l-51.884-8.805c-2.008-4.102-4.116-8.142-6.23-12.15l21.797-49.903c2.243-5.087 1.769-10.995-1.203-15.608-2.961-4.636-7.99-7.344-13.349-7.133l-52.656 1.913a438 438 0 00-8.321-10.521l12.1-53.49c1.225-5.433-.322-11.118-4.103-15.064-3.762-3.932-9.229-5.559-14.426-4.283l-51.289 12.608a442 442 0 00-10.114-8.673l1.848-54.914c.198-5.559-2.393-10.842-6.844-13.925-4.446-3.104-10.093-3.573-14.956-1.266L828.367 156c-3.854-2.21-7.728-4.4-11.644-6.517l-8.455-54.115c-.857-5.483-4.385-10.139-9.326-12.266-4.923-2.137-10.568-1.447-14.891 1.808l-42.659 32.007a445 445 0 00-12.692-4.011L710.314 61.59c-1.87-5.229-6.181-9.071-11.438-10.151-5.239-1.072-10.63.742-14.263 4.802l-35.906 40.171c-4.343-.5-8.686-.956-13.043-1.331L607.94 48.368c-2.81-4.732-7.77-7.612-13.116-7.612-5.334 0-10.304 2.88-13.09 7.612l-27.733 46.713c-4.358.375-8.722.831-13.056 1.331l-35.91-40.171c-3.636-4.06-9.047-5.874-14.268-4.802-5.255 1.092-9.573 4.922-11.433 10.151l-18.402 51.316a513 513 0 00-12.691 4.011L405.597 84.91c-4.336-3.266-9.98-3.955-14.916-1.808-4.919 2.127-8.461 6.783-9.313 12.266l-8.461 54.115A508 508 0 00361.254 156l-47.842-22.747c-4.858-2.316-10.529-1.838-14.954 1.266-4.445 3.083-7.042 8.366-6.84 13.925l1.835 54.914a511 511 0 00-10.112 8.673l-51.279-12.608c-5.21-1.265-10.67.351-14.441 4.283-3.795 3.946-5.331 9.631-4.113 15.064l12.079 53.49a510 510 0 00-8.293 10.521l-52.655-1.913c-5.314-.157-10.386 2.497-13.356 7.133-2.973 4.613-3.423 10.521-1.213 15.608l21.816 49.903c-2.119 4.008-4.224 8.048-6.249 12.15l-51.887 8.805c-5.27.888-9.71 4.566-11.76 9.71-2.04 5.157-1.37 11.033 1.73 15.555l30.7 44.451c-.24.784-.46 1.577-.7 2.364l-86.77 92.17s-13.29 10.423 6.07 34.916c17.07 21.605 104.724 107.252 151.018 152.123 19.554 22.779 32.948 36.886 34.349 35.666 2.208-1.94-9.387-43.385-47.902-92.012-29.685-43.629-68.215-110.733-59.175-118.467 0 0 10.27-13.045 30.893-22.435.753.603-.781-.598 0 0 0 0 435.152 200.732 838.797 3.396 46.108-8.273 74.023 16.43 74.023 16.43 9.628 5.58-15.301 74.578-35.798 120.254-27.881 51.863-31.97 92.332-29.604 93.736 1.491.889 11.634-14.545 26.104-39.109 35.702-49.748 103.191-144.586 115.545-167.62 14.006-26.119 0-33.439 0-33.439" fill="#f4511e" fill-rule="nonzero"/><path d="M450.328 650.959c-1.664-1.42-2.536-2.262-2.536-2.262l142.542-11.677c-116.273-153.391-209.424-31.198-219.339-17.536v31.475zm296.792-1.652c1.663-1.42 2.536-2.264 2.536-2.264L612.672 637.02C729 477.333 816.541 604.168 826.455 617.83v31.477z" fill="#212121" fill-rule="nonzero"/><path d="M966.094 497.02s-15.576 62.041-112.453 127.238l-27.166 6.367s-87.881-160.259-212.383 20.334c0 0 38.802-22.591 142.822 4.92 0 0-47.85 73.239-144.242 70.989 0 0 92.373 110.82 232.94-49.252 0 0 148.595-57.463 160.646-180.596z" fill="#f4511e" fill-rule="nonzero"/><path d="M677.392 417.547s43.486-47.615 86.974 0c0 0 34.17 63.492 0 95.234 0 0-55.912 44.444-86.974 0 0 0-37.275-34.921 0-95.234" fill="#212121" fill-rule="nonzero"/><path d="M727.738 435.211c0 18.541-10.93 33.572-24.408 33.572-13.477 0-24.406-15.031-24.406-33.572s10.929-33.574 24.406-33.574c13.478 0 24.408 15.033 24.408 33.574" fill="#fafafa" fill-rule="nonzero"/><path d="M483.3 404.545s74.596-33.028 94.956 40.691c0 0 21.327 85.926-61.259 90.776 0 0-105.31-20.283-33.697-131.467" fill="#212121" fill-rule="nonzero"/><path d="M520.766 436.428c0 19.119-11.27 34.627-25.173 34.627-13.898 0-25.171-15.508-25.171-34.627 0-19.124 11.273-34.627 25.171-34.627 13.903 0 25.173 15.503 25.173 34.627" fill="#fafafa" fill-rule="nonzero"/><path d="M441.397 662.533c91.833-11.574 144.904-12.652 144.904-12.652-122.867-162.084-222.565-15.344-222.565-15.344-24.982-8.932-50.453-43.613-69.477-75.59l-76.237-22.58c87.873 149.141 153.295 151.414 153.295 151.414 136.214 174.59 200.743 34.295 200.743 34.295-76.468-8.682-130.663-59.543-130.663-59.543" fill="#f4511e" fill-rule="nonzero"/></svg>