<svg xmlns="http://www.w3.org/2000/svg" viewBox="0 0 32 32"><path d="M24,20a2.00591,2.00591,0,0,1-2-2,2,2,0,0,0-2-2,3.00017,3.00017,0,0,0,2.99579-3.16132A3.11454,3.11454,0,0,0,19.83026,10H4v2h6v8H4v2H16V20H14V18h4c.81885.81885.29669,2.30811,1.17865,3.36987A1.88526,1.88526,0,0,0,20.63879,22H28V20Zm-6-6H14V12h4a1,1,0,0,1,0,2Z" style="fill:#ff7043"/><path d="M16.01108,3.77914A12.22061,12.22061,0,1,1,5.88381,9.14562,12.16113,12.16113,0,0,1,16.01108,3.77914m.00057-1h0A13.22132,13.22132,0,1,0,23.41531,5.056,13.21772,13.21772,0,0,0,16.0116,2.77914Z" style="fill:#ff7043"/><polygon points="25.139 2.512 20.897 3.327 20.325 4.17 25.383 7.597 25.955 6.754 25.139 2.512" style="fill:#ff7043"/><polygon points="19.282 0.041 15.674 2.418 15.469 3.415 21.454 4.646 21.659 3.649 19.282 0.041" style="fill:#ff7043"/><polygon points="12.925 0 10.501 3.577 10.694 4.577 16.694 3.423 16.501 2.423 12.925 0" style="fill:#ff7043"/><polygon points="7.036 2.395 6.166 6.627 6.726 7.477 11.828 4.115 11.268 3.265 7.036 2.395" style="fill:#ff7043"/><polygon points="2.512 6.861 3.327 11.103 4.17 11.675 7.597 6.617 6.754 6.045 2.512 6.861" style="fill:#ff7043"/><polygon points="0.041 12.718 2.418 16.326 3.415 16.531 4.646 10.546 3.649 10.341 0.041 12.718" style="fill:#ff7043"/><polygon points="0 19.075 3.577 21.499 4.577 21.306 3.423 15.306 2.423 15.499 0 19.075" style="fill:#ff7043"/><polygon points="2.395 24.964 6.627 25.834 7.477 25.274 4.115 20.172 3.265 20.732 2.395 24.964" style="fill:#ff7043"/><polygon points="6.861 29.488 11.103 28.673 11.675 27.83 6.617 24.403 6.045 25.246 6.861 29.488" style="fill:#ff7043"/><polygon points="12.718 31.959 16.326 29.582 16.531 28.585 10.546 27.354 10.341 28.351 12.718 31.959" style="fill:#ff7043"/><polygon points="19.075 32 21.499 28.423 21.306 27.423 15.306 28.577 15.499 29.577 19.075 32" style="fill:#ff7043"/><polygon points="24.964 29.605 25.834 25.373 25.274 24.523 20.172 27.885 20.732 28.735 24.964 29.605" style="fill:#ff7043"/><polygon points="29.488 25.139 28.673 20.897 27.83 20.325 24.403 25.383 25.246 25.955 29.488 25.139" style="fill:#ff7043"/><polygon points="32 12.925 28.423 10.501 27.423 10.694 28.577 16.694 29.577 16.501 32 12.925" style="fill:#ff7043"/><polygon points="29.605 7.036 25.373 6.166 24.523 6.726 27.885 11.828 28.735 11.268 29.605 7.036" style="fill:#ff7043"/><polygon points="31.959 19.282 29.582 15.674 28.585 15.469 27.354 21.454 28.351 21.659 31.959 19.282" style="fill:#ff7043"/></svg>