<svg width="24" height="24" version="1.1" viewBox="0 0 24 24" xmlns="http://www.w3.org/2000/svg">
 <path d="m18.206 6.522c-0.6811 0-1.2746 0.20433-1.8584 0.39893-0.6811-1.1773-1.9557-1.9557-3.3277-1.9557-1.0703 0-2.0433 0.4865-2.7341 1.1676-0.7784-0.97301-1.9557-1.6638-3.3179-1.6638-2.2671 0-4.2131 1.8584-4.2131 4.1255 0 0.57407 0.20433 1.1579 0.39893 1.7417-1.08 0.59353-1.8584 1.7611-1.8584 3.1233 0 1.946 1.5665 3.6196 3.5223 3.6196 0.2919 0 0.5838 0 0.7784-0.0973 0.3892 1.4692 1.8584 2.5493 3.6196 2.5493 1.6541 0 3.026-0.98274 3.5125-2.3547 0.49623 0.20433 0.98274 0.39893 1.4692 0.39893 1.2746 0 2.4422-0.71029 3.026-1.7611 0.30163 0.07784 0.61299 0.07784 0.88544 0.07784 2.5395 0 4.5926-2.0336 4.5926-4.6704 0.0973-2.6271-1.946-4.6996-4.4953-4.6996z" fill="#039be5" stroke-width=".97301"/>
</svg>
