<svg viewBox="0 0 24 24" fill="none" xmlns="http://www.w3.org/2000/svg">
  <path
    d="m19.167 11.4 2.133-1.276h.001a.8.8 0 0 0 .294-.296.837.837 0 0 0 .09-.407V4.863a.858.858 0 0 0-.101-.432.832.832 0 0 0-.317-.306l-3.763-2.26a.715.715 0 0 0-.443-.14.93.93 0 0 0-.433.156L14.18 3.36a.538.538 0 0 1-.132.033c-.053.006-.09 0-.11-.012l-.001-.001-2.505-1.5h-.001a.988.988 0 0 0-.456-.152.712.712 0 0 0-.453.155l-7.83 4.711a.733.733 0 0 0-.28.28.802.802 0 0 0-.088.389v9.496c0 .147.027.281.09.398a.725.725 0 0 0 .295.288l7.746 4.661c.19.116.361.18.537.18.177 0 .348-.064.537-.18l7.746-4.66v-.001a.763.763 0 0 0 .28-.26.711.711 0 0 0 .088-.374v-4.268c0-.174 0-.31-.008-.419a.816.816 0 0 0-.065-.285.794.794 0 0 0-.173-.232 4.187 4.187 0 0 0-.23-.207Zm-15.83 4.979V8.068l6.974 4.163a.298.298 0 0 1 .127.12.418.418 0 0 1 .035.195l-.035 8.325-6.903-4.141a.426.426 0 0 1-.153-.143.404.404 0 0 1-.044-.208Zm8.149 4.494v-8.327c0-.073.008-.13.029-.177a.261.261 0 0 1 .116-.12l.001-.002 2.885-1.734c.004.068.004.13.004.185v3.626c0 .286.081.506.252.609.172.103.4.066.641-.078l3.172-1.884.016 3.408a.36.36 0 0 1-.043.198.452.452 0 0 1-.153.135l-6.92 4.162Zm-.661-9.542-.009-.005-6.944-4.201 6.877-4.165a.364.364 0 0 1 .166-.061c.044-.002.095.012.17.06h.002l1.845 1.11a.786.786 0 0 0-.435.437c-.075.19-.078.41-.053.638 0 .025-.002.047-.003.07l-.003.043a.563.563 0 0 0 .007.138c.014.08.003.14-.024.186a.358.358 0 0 1-.152.13l-.004.003-1.526.915h-.001c-.2.124-.31.306-.31.496s.11.373.31.496l2.92 1.761.326.196-1.155.712-1.725 1.035-.009.006a.215.215 0 0 1-.27 0Zm9.287-6.645-1.642.993h-.001l-1.255.74a.474.474 0 0 1-.128.027.238.238 0 0 1-.101-.009L14.06 4.683a.178.178 0 0 0-.008-.007l.298-.18 2.602-1.553a.293.293 0 0 1 .23-.015l2.93 1.758Zm.414 4.637-2.92 1.744V7.625c0-.04.01-.091.029-.137a.203.203 0 0 1 .067-.092l2.91-1.763.003.031v.002a.791.791 0 0 1 .008.095c0 .376.002.75.004 1.122.004.74.007 1.475-.004 2.21a.37.37 0 0 1-.029.137.204.204 0 0 1-.068.093Zm-6.843-1.175-.004-.002a.284.284 0 0 1-.12-.106.332.332 0 0 1-.039-.173V5.634l2.922 1.745c.03.019.064.053.09.093a.21.21 0 0 1 .04.102v3.488a.165.165 0 0 1-.007.037c-.102-.062-.202-.12-.3-.178-.225-.134-.441-.261-.653-.404l-.002-.003a.173.173 0 0 1-.02-.046.397.397 0 0 1-.012-.097V9.68a.721.721 0 0 0-.078-.348.636.636 0 0 0-.258-.252l-1.559-.932Zm3.544 4.382-1.633.989v-1.753c.144.088.288.173.43.257l.077.045c.205.12.407.24.605.37l.002.001a.71.71 0 0 0 .378.112.57.57 0 0 0 .141-.02Zm-4.785-5.675v.538A15.61 15.61 0 0 1 12 7.128c.158-.09.299-.176.442-.273Z"
    fill="#fff" stroke="#fff" stroke-width=".15" />
</svg>