<svg width="24" height="24" version="1.1" viewBox="0 0 6.35 6.35" xmlns="http://www.w3.org/2000/svg">
 <path d="m3.1594 0.54606c-0.24568 0.0055326-0.47626 0.052442-0.66626 0.12933-0.3777 0.15714-0.67813 0.40059-0.84602 0.74143-0.25545 0.45145-0.2957 1.0308 0.040153 1.5347 0.3106 0.47491 0.71965 0.90823 1.1481 1.4077 0.38121 0.13881 0.57197-0.27229 0.51452-0.42067-0.27587-0.35037-0.57028-0.69472-0.80353-1.0594-0.09548-0.16717-0.21284-0.5209-0.069567-0.90578 0.073726-0.19805 0.50198-0.84046 1.3708-0.83621 0.34531 0.039921 0.65832 0.05853 1.0869 0.52946-0.11163-0.30064-0.28399-0.56603-0.53693-0.75217-0.37728-0.27208-0.82874-0.3776-1.2382-0.36838zm0.24605 1.3998c-0.27756 0.002225-0.40636 0.22758-0.34877 0.43748 0.2534 0.3645 0.57802 0.74737 0.86889 1.1215 0.31602 0.60879 0.092149 1.0768-0.51125 1.4726-0.82054 0.45711-1.576 0.11541-2.0268-0.29835 0.23433 0.48862 0.42366 0.6357 0.47157 0.67887 0.3095 0.27 0.80966 0.52689 1.6206 0.42301 0.45496-0.1022 1.0599-0.25619 1.3956-1.0967 0.092916-0.2656 0.12506-0.5409 0.028948-0.84368-0.088872-0.33786-0.27284-0.57938-0.46503-0.82827-0.29946-0.35179-0.76961-0.97917-0.90578-1.0533-0.045615-0.0095017-0.088278-0.013391-0.12793-0.013073z" fill="#039be5"/>
</svg>
