<?xml version="1.0" encoding="UTF-8" standalone="no"?>
<svg
   xmlns:dc="http://purl.org/dc/elements/1.1/"
   xmlns:cc="http://creativecommons.org/ns#"
   xmlns:rdf="http://www.w3.org/1999/02/22-rdf-syntax-ns#"
   xmlns:svg="http://www.w3.org/2000/svg"
   xmlns="http://www.w3.org/2000/svg"
   xmlns:sodipodi="http://sodipodi.sourceforge.net/DTD/sodipodi-0.dtd"
   xmlns:inkscape="http://www.inkscape.org/namespaces/inkscape"
   width="24"
   height="24"
   viewBox="0 0 6.3499998 6.3499998"
   version="1.1"
   id="svg8"
   inkscape:version="1.0 (1.0+r73+1)"
   sodipodi:docname="sas-icon.svg"
   inkscape:export-filename="/home/joamat/Documents/sas-icon.svg.png"
   inkscape:export-xdpi="96"
   inkscape:export-ydpi="96">
  <defs
     id="defs2" />
  <sodipodi:namedview
     id="base"
     pagecolor="#ffffff"
     bordercolor="#666666"
     borderopacity="1.0"
     inkscape:pageopacity="0.0"
     inkscape:pageshadow="2"
     inkscape:zoom="15.839192"
     inkscape:cx="12.51712"
     inkscape:cy="22.474004"
     inkscape:document-units="px"
     inkscape:current-layer="layer1"
     inkscape:document-rotation="0"
     showgrid="false"
     inkscape:window-width="1920"
     inkscape:window-height="1016"
     inkscape:window-x="0"
     inkscape:window-y="27"
     inkscape:window-maximized="1"
     units="px"
     showguides="true"
     inkscape:guide-bbox="true" />
  <metadata
     id="metadata5">
    <rdf:RDF>
      <cc:Work
         rdf:about="">
        <dc:format>image/svg+xml</dc:format>
        <dc:type
           rdf:resource="http://purl.org/dc/dcmitype/StillImage" />
        <dc:title></dc:title>
      </cc:Work>
    </rdf:RDF>
  </metadata>
  <g
     inkscape:label="Layer 1"
     inkscape:groupmode="layer"
     id="layer1">
    <path
       style="fill:#4dd0e1;fill-opacity:1;stroke:none;stroke-width:0.0304988px;stroke-linecap:butt;stroke-linejoin:miter;stroke-opacity:1"
       d="M 2.794625,4.3672188 C 3.2165561,4.5208548 3.427719,4.0656938 3.3641351,3.9014608 3.0587963,3.5136668 2.7329349,3.1327548 2.4747724,2.7291426 2.3690945,2.5441175 2.2392206,2.152733 2.3977996,1.7267438 2.4793996,1.5075414 2.9532545,0.79652533 3.914883,0.80122693 4.297075,0.84541193 4.64349,0.86579593 5.117887,1.3870255 4.994329,1.0542793 4.8038461,0.76050043 4.523891,0.55448063 3.855775,0.07266373 2.9766052,0.06293183 2.4158231,0.28986753 1.9977783,0.46379443 1.6653282,0.73326963 1.4795099,1.1105124 1.1967763,1.6101817 1.1523253,2.2513188 1.5240512,2.8090213 1.8678309,3.3346608 2.3204212,3.8144158 2.794625,4.3672188 Z"
       id="path28"
       sodipodi:nodetypes="cccsccccccc" />
    <path
       style="fill:#0288d1;fill-opacity:1;stroke:none;stroke-width:0.0304988px;stroke-linecap:butt;stroke-linejoin:miter;stroke-opacity:1"
       d="M 3.0396044,2.1803992 C 2.9667578,1.9148847 3.1633001,1.6265201 3.567198,1.7106525 c 0.150713,0.082064 0.671056,0.7760849 1.0025,1.1654452 0.212721,0.2754781 0.416194,0.5430031 0.514558,0.9169471 0.106378,0.335121 0.07112,0.639906 -0.03172,0.933872 C 4.681053,5.6572398 4.011522,5.8278138 3.5079721,5.9409288 2.6104186,6.0559108 2.0567532,5.7715188 1.7141925,5.4726858 1.6611675,5.4249038 1.451687,5.2620088 1.1923291,4.7211968 1.6912224,5.1791478 2.5271159,5.5573048 3.435293,5.0513688 4.103141,4.6133348 4.3511,4.0953678 4.0013221,3.4215488 3.679381,3.0074812 3.32007,2.5838294 3.0396044,2.1803992 Z"
       id="path853"
       sodipodi:nodetypes="ccccccccccc" />
  </g>
</svg>
