<?xml version="1.0" encoding="UTF-8" standalone="no"?>
<!-- Generator: Adobe Illustrator 18.0.0, SVG Export Plug-In . SVG Version: 6.00 Build 0)  -->

<svg
   xmlns:dc="http://purl.org/dc/elements/1.1/"
   xmlns:cc="http://creativecommons.org/ns#"
   xmlns:rdf="http://www.w3.org/1999/02/22-rdf-syntax-ns#"
   xmlns:svg="http://www.w3.org/2000/svg"
   xmlns="http://www.w3.org/2000/svg"
   xmlns:sodipodi="http://sodipodi.sourceforge.net/DTD/sodipodi-0.dtd"
   xmlns:inkscape="http://www.inkscape.org/namespaces/inkscape"
   version="1.1"
   id="Layer_1"
   x="0px"
   y="0px"
   viewBox="0 0 500 500"
   enable-background="new 0 0 612 792"
   xml:space="preserve"
   sodipodi:docname="sass.svg"
   width="500"
   height="500"
   inkscape:version="0.92.1 r15371"><metadata
     id="metadata13"><rdf:RDF><cc:Work
         rdf:about=""><dc:format>image/svg+xml</dc:format><dc:type
           rdf:resource="http://purl.org/dc/dcmitype/StillImage" /><dc:title /></cc:Work></rdf:RDF></metadata><defs
     id="defs11" /><sodipodi:namedview
     pagecolor="#ffffff"
     bordercolor="#666666"
     borderopacity="1"
     objecttolerance="10"
     gridtolerance="10"
     guidetolerance="10"
     inkscape:pageopacity="0"
     inkscape:pageshadow="2"
     inkscape:window-width="1366"
     inkscape:window-height="705"
     id="namedview9"
     showgrid="false"
     inkscape:zoom="0.42140707"
     inkscape:cx="-312.36665"
     inkscape:cy="399.75425"
     inkscape:window-x="-8"
     inkscape:window-y="-8"
     inkscape:window-maximized="1"
     inkscape:current-layer="Layer_1" /><g
     id="g6"
     transform="matrix(1.3109994,0,0,1.3109994,-146.69091,-269.10423)"
     style="fill:#ec407a;fill-opacity:1;stroke:#ec407a;stroke-width:12.42279816;stroke-miterlimit:4;stroke-dasharray:none;stroke-opacity:1"><path
       d="m 434.3,278.93 c -9.3,-36.49 -69.8,-48.48 -127.06,-28.14 -34.08,12.11 -70.96,31.11 -97.49,55.92 -31.54,29.5 -36.57,55.17 -34.49,65.9 7.31,37.85 59.18,62.6 80.5,80.95 v 0.11 c -6.29,3.09 -52.3,26.38 -63.07,50.19 -11.36,25.12 1.81,43.14 10.53,45.57 27.02,7.52 54.74,-6 69.65,-28.23 14.38,-21.45 13.18,-49.14 6.93,-62.92 8.62,-2.27 18.67,-3.29 31.44,-1.8 36.04,4.21 43.11,26.71 41.76,36.13 -1.35,9.42 -8.91,14.6 -11.44,16.16 -2.53,1.56 -3.3,2.11 -3.09,3.27 0.31,1.69 1.48,1.63 3.63,1.26 2.97,-0.5 18.92,-7.66 19.61,-25.04 0.87,-22.07 -20.28,-46.76 -57.73,-46.11 -15.42,0.27 -25.12,1.73 -32.13,4.34 -0.52,-0.59 -1.04,-1.18 -1.59,-1.76 -23.15,-24.7 -65.95,-42.17 -64.14,-75.38 0.66,-12.07 4.86,-43.86 82.24,-82.42 63.39,-31.59 114.14,-22.89 122.91,-3.63 12.53,27.52 -27.12,78.67 -92.95,86.05 -25.08,2.81 -38.29,-6.91 -41.57,-10.53 -3.46,-3.81 -3.97,-3.98 -5.27,-3.27 -2.1,1.17 -0.77,4.53 0,6.54 1.97,5.12 10.03,14.19 23.78,18.7 12.1,3.97 41.54,6.15 77.16,-7.62 39.88,-15.45 71.03,-58.37 61.88,-94.24 z M 264.61,464.87 c 2.99,11.06 2.66,21.37 -0.43,30.7 -0.34,1.04 -0.72,2.06 -1.13,3.08 -0.41,1.01 -0.85,2.01 -1.33,3 -2.38,4.94 -5.58,9.56 -9.49,13.83 -11.94,13.02 -28.61,17.95 -35.76,13.8 -7.72,-4.48 -3.85,-22.84 9.98,-37.46 14.89,-15.74 36.31,-25.86 36.31,-25.86 l -0.03,-0.06 c 0.62,-0.34 1.24,-0.68 1.88,-1.03 z"
       id="path4"
       inkscape:connector-curvature="0"
       style="fill:#ec407a;fill-opacity:1;stroke:#ec407a;stroke-width:12.42279816;stroke-miterlimit:4;stroke-dasharray:none;stroke-opacity:1" /></g></svg>