<svg xmlns="http://www.w3.org/2000/svg" viewBox="0 0 32 32"><path fill="#ec407a" d="M27.837 5.673a4.326 4.326 0 0 0-2.293-2.701c-2.362-1.261-6.11-1.298-9.548-.092a26.339 26.339 0 0 0-8.76 4.966c-2.752 2.542-3.438 4.925-3.189 6.194.523 2.668 3.274 4.539 5.485 6.042.418.284.822.559 1.175.816-1.429.76-4.261 2.444-5.088 4.248a3.884 3.884 0 0 0-.118 3.332A2.365 2.365 0 0 0 6.869 29.8a5.602 5.602 0 0 0 1.49.2 6.346 6.346 0 0 0 5.19-2.856 6.735 6.735 0 0 0 .864-5.382 7.315 7.315 0 0 1 2.044-.03 3.916 3.916 0 0 1 2.816 1.311 1.823 1.823 0 0 1 .423 1.262 1.55 1.55 0 0 1-.772 1.05c-.234.14-.586.355-.504.803.036.194.198.633.894.512a2.932 2.932 0 0 0 2.145-2.651 3.993 3.993 0 0 0-1.197-2.904 5.941 5.941 0 0 0-4.396-1.626 10.552 10.552 0 0 0-2.672.304 19.698 19.698 0 0 0-2.203-1.846c-1.712-1.3-3.33-2.529-3.235-4.26.125-2.263 2.468-4.532 6.964-6.744 4.016-1.976 7.254-2.037 8.944-1.438a2.013 2.013 0 0 1 1.204.883 2.766 2.766 0 0 1-.36 2.47 9.714 9.714 0 0 1-7.425 4.304 3.863 3.863 0 0 1-3.238-.757c-.278-.302-.593-.645-1.074-.383-.376.207-.452.603-.225 1.189a3.894 3.894 0 0 0 2.407 1.92 11.71 11.71 0 0 0 7.128-.671c3.527-1.35 6.681-5.202 5.756-8.787ZM11.895 24.475a3.896 3.896 0 0 1-.192.468 4.514 4.514 0 0 1-.753 1.081 2.831 2.831 0 0 1-2.533 1.107c-.056-.032-.078-.146-.085-.193a3.28 3.28 0 0 1 1.076-2.284 11.297 11.297 0 0 1 2.644-1.933 3.853 3.853 0 0 1-.157 1.754Z"/></svg>