<svg xmlns="http://www.w3.org/2000/svg" viewBox="0 0 32 32">
  <path d="M27.83653,5.67329A4.32575,4.32575,0,0,0,25.54386,2.972c-2.36209-1.26119-6.11054-1.29834-9.5476-.09239A26.33875,26.33875,0,0,0,7.23619,7.84615c-2.75267,2.54143-3.438,4.925-3.18872,6.1935.52208,2.668,3.27378,4.53929,5.48482,6.04244.418.284.82126.55874,1.17469.81635-1.42889.75916-4.26125,2.44318-5.08837,4.24795a3.88406,3.88406,0,0,0-.11781,3.33139,2.36531,2.36531,0,0,0,1.36778,1.3218A5.60231,5.60231,0,0,0,8.35907,30a6.34583,6.34583,0,0,0,5.19-2.85624,6.73483,6.73483,0,0,0,.86379-5.382,7.31511,7.31511,0,0,1,2.04385-.02884A3.916,3.916,0,0,1,19.273,23.04344a1.823,1.823,0,0,1,.42334,1.26118,1.55091,1.55091,0,0,1-.77238,1.04952c-.23366.14176-.58563.35587-.5035.80413.03519.19358.19749.63255.8936.51132a2.93172,2.93172,0,0,0,2.14505-2.65093A3.99258,3.99258,0,0,0,20.2624,21.115a5.941,5.941,0,0,0-4.39666-1.62586,10.55222,10.55222,0,0,0-2.67153.30357A19.69775,19.69775,0,0,0,10.991,17.94737c-1.71242-1.30079-3.33049-2.52922-3.23517-4.25968.12564-2.26378,2.46866-4.53294,6.96406-6.74441,4.01634-1.97586,7.25444-2.03745,8.94388-1.43864a2.01272,2.01272,0,0,1,1.20451.88332,2.76585,2.76585,0,0,1-.36077,2.46958A9.71389,9.71389,0,0,1,17.083,13.16219a3.86349,3.86349,0,0,1-3.2381-.7572c-.27815-.30161-.593-.64477-1.074-.38324-.37544.20677-.45218.60371-.22487,1.18884a3.89369,3.89369,0,0,0,2.40657,1.92013,11.71029,11.71029,0,0,0,7.12831-.67117C25.60839,13.11087,28.7624,9.25789,27.83653,5.67329ZM11.89487,24.47522a3.896,3.896,0,0,1-.19163.46782,4.51367,4.51367,0,0,1-.75282,1.08129,2.83129,2.83129,0,0,1-2.53367,1.10672c-.05573-.03227-.07773-.14568-.08457-.19309a3.28033,3.28033,0,0,1,1.07594-2.28382,11.29746,11.29746,0,0,1,2.64367-1.93284A3.8528,3.8528,0,0,1,11.89487,24.47522Z" style="fill: #ec407a"/>
</svg>
