<?xml version="1.0" encoding="UTF-8"?>
<svg version="1.1" xmlns="http://www.w3.org/2000/svg" width="48" height="48">
<path d="M0 0 C4.23301121 2.82200747 7.17159664 5.95228992 8.8125 10.875 C10.17375 11.5246875 10.17375 11.5246875 11.5625 12.1875 C16.26071406 14.6269573 19.10513538 17.75290615 20.8125 22.875 C21.18076224 28.49099916 21.02806007 32.05165989 17.8125 36.875 C13.88016191 40.85031446 10.66790151 42.75333433 5 43.125 C0.28107777 43.03857285 -3.20192669 41.83910765 -6.6328125 38.4453125 C-8.76551258 35.99575413 -10.15584085 33.96997746 -11.1875 30.875 C-12.54875 30.2253125 -12.54875 30.2253125 -13.9375 29.5625 C-18.63571406 27.1230427 -21.48013538 23.99709385 -23.1875 18.875 C-23.55576224 13.25900084 -23.40306007 9.69834011 -20.1875 4.875 C-14.31083782 -1.065888 -7.91553941 -2.79371979 0 0 Z M-13.1875 8.875 C-15.24946218 11.0890989 -15.24946218 11.0890989 -16.1875 13.875 C-15.69987739 17.08816523 -15.69987739 17.08816523 -14.1875 19.875 C-13.1975 20.535 -12.2075 21.195 -11.1875 21.875 C-11.1875 18.245 -11.1875 14.615 -11.1875 10.875 C-7.5575 10.875 -3.9275 10.875 -0.1875 10.875 C-2.66770438 6.84052714 -2.66770438 6.84052714 -5.5625 5.9375 C-9.04478562 5.85458844 -10.46854826 6.72845915 -13.1875 8.875 Z M-4.1875 17.875 C-4.1875 19.855 -4.1875 21.835 -4.1875 23.875 C-2.2075 23.875 -0.2275 23.875 1.8125 23.875 C1.8125 21.895 1.8125 19.915 1.8125 17.875 C-0.1675 17.875 -2.1475 17.875 -4.1875 17.875 Z M8.8125 19.875 C8.8125 23.505 8.8125 27.135 8.8125 30.875 C5.1825 30.875 1.5525 30.875 -2.1875 30.875 C0.29270438 34.90947286 0.29270438 34.90947286 3.1875 35.8125 C6.66978562 35.89541156 8.09354826 35.02154085 10.8125 32.875 C12.87446218 30.6609011 12.87446218 30.6609011 13.8125 27.875 C13.32487739 24.66183477 13.32487739 24.66183477 11.8125 21.875 C10.8225 21.215 9.8325 20.555 8.8125 19.875 Z " fill="#0277BD" transform="translate(25.1875,3.125)"/>
<path d="M0 0 C0.33 0.66 0.66 1.32 1 2 C-2.63 2 -6.26 2 -10 2 C-9.67 3.98 -9.34 5.96 -9 8 C-7.35 8 -5.7 8 -4 8 C-4 11.96 -4 15.92 -4 20 C-0.04 20 3.92 20 8 20 C8 16.37 8 12.74 8 9 C11.07617188 8.70703125 11.07617188 8.70703125 14.15234375 8.4140625 C14.76207031 8.27742188 15.37179688 8.14078125 16 8 C16.33 7.34 16.66 6.68 17 6 C20.7917616 10.7809168 21.62190456 14.94218895 21 21 C19.14143173 26.26594344 16.39685804 28.79395768 12 32 C7.01920617 33.66026461 2.69726371 33.59903425 -2.1875 31.875 C-6.05720443 29.29519705 -9.02090609 26.41007732 -10.8125 22 C-11.06331593 19.32463003 -11.061019 16.6848359 -11 14 C-11.66 13.67 -12.32 13.34 -13 13 C-12.67 12.34 -12.34 11.68 -12 11 C-11.77377919 9.29636178 -11.59111527 7.58671299 -11.4375 5.875 C-11.293125 4.26625 -11.14875 2.6575 -11 1 C-5.555 0.505 -5.555 0.505 0 0 Z M9 10 C9 13.63 9 17.26 9 21 C5.37 21 1.74 21 -2 21 C0.48020438 25.03447286 0.48020438 25.03447286 3.375 25.9375 C6.85728562 26.02041156 8.28104826 25.14654085 11 23 C13.06196218 20.7859011 13.06196218 20.7859011 14 18 C13.51237739 14.78683477 13.51237739 14.78683477 12 12 C11.01 11.34 10.02 10.68 9 10 Z " fill="#0091EA" transform="translate(25,13)"/>
<path d="M0 0 C3.96 0 7.92 0 12 0 C12 1.65 12 3.3 12 5 C8.04 5.66 4.08 6.32 0 7 C0 4.69 0 2.38 0 0 Z " fill="#01579B" transform="translate(15,15)"/>
<path d="M0 0 C2.5625 0.1875 2.5625 0.1875 4.5625 2.1875 C4.5625 3.1775 4.5625 4.1675 4.5625 5.1875 C2.2525 5.5175 -0.0575 5.8475 -2.4375 6.1875 C-2.81968767 4.53135343 -3.15145102 2.86292976 -3.4375 1.1875 C-2.4375 0.1875 -2.4375 0.1875 0 0 Z " fill="#0277BD" transform="translate(36.4375,15.8125)"/>
<path d="M0 0 C3.96 0 7.92 0 12 0 C12 0.66 12 1.32 12 2 C8.04 2.66 4.08 3.32 0 4 C0 2.68 0 1.36 0 0 Z " fill="#01579B" transform="translate(15,18)"/>
</svg>