<svg width="24" height="24" version="1.1" viewBox="0 0 24 24" xmlns="http://www.w3.org/2000/svg">
 <path d="m12.289 1.8776h-7.5717a1.8929 1.8929 0 0 0-1.8929 1.8929v15.143a1.8929 1.8929 0 0 0 1.8929 1.8929h6.6252c-0.38805-0.23661-0.75716-0.53002-1.079-0.85181-0.31233-0.31233-0.57734-0.66252-0.81395-1.0411h-4.7323v-15.143h6.6252v4.7323h4.7323v1.1168c0.67198 0.15143 1.3156 0.40698 1.8929 0.77609v-2.8394l-5.6787-5.6787m5.9721 15.995c1.2588-1.997 0.65306-4.6376-1.325-5.887-1.997-1.2588-4.6471-0.64359-5.887 1.325-1.2683 1.997-0.65306 4.6282 1.325 5.887 1.3818 0.8802 3.1422 0.8802 4.5335 0.01893l2.9529 2.9056 1.3156-1.3156-2.9151-2.934m-3.606 0.09464a2.3661 2.3661 0 0 1-2.3661-2.3661 2.3661 2.3661 0 0 1 2.3661-2.3661 2.3661 2.3661 0 0 1 2.3661 2.3661 2.3661 2.3661 0 0 1-2.3661 2.3661z" fill="#42a5f5" stroke-width=".94646"/>
</svg>
