<svg xmlns="http://www.w3.org/2000/svg" viewBox="0 0 32 32">
  <path d="M17,17a4,4,0,1,1-4,4,4.00453,4.00453,0,0,1,4-4m0-3a7,7,0,1,0,7,7,7,7,0,0,0-7-7Z" style="fill: #42a5f5"/>
  <rect x="20.79289" y="24.25736" width="4" height="5.07107" transform="translate(-12.26955 23.96447) rotate(-45)" style="fill: #42a5f5"/>
  <path d="M10,26H6V4h9.17157L22,10.82843V12h2V10L16,2H6A2,2,0,0,0,4,4V26a2,2,0,0,0,2,2h4Z" style="fill: #42a5f5"/>
  <polygon points="22 12 14 12 14 4 16 4 22 10 22 12" style="fill: #42a5f5"/>
  <rect x="22" y="12" width="2" height="2" style="fill: #42a5f5"/>
</svg>
