<?xml version="1.0" encoding="UTF-8" standalone="no"?>
<!-- Created with Inkscape (http://www.inkscape.org/) -->

<svg
   xmlns:dc="http://purl.org/dc/elements/1.1/"
   xmlns:cc="http://creativecommons.org/ns#"
   xmlns:rdf="http://www.w3.org/1999/02/22-rdf-syntax-ns#"
   xmlns:svg="http://www.w3.org/2000/svg"
   xmlns="http://www.w3.org/2000/svg"
   xmlns:sodipodi="http://sodipodi.sourceforge.net/DTD/sodipodi-0.dtd"
   xmlns:inkscape="http://www.inkscape.org/namespaces/inkscape"
   width="169.33333mm"
   height="169.33333mm"
   viewBox="0 0 169.33333 169.33333"
   version="1.1"
   id="svg35"
   inkscape:version="0.92.4 (5da689c313, 2019-01-14)"
   sodipodi:docname="security.svg">
  <defs
     id="defs29" />
  <sodipodi:namedview
     id="base"
     pagecolor="#ffffff"
     bordercolor="#666666"
     borderopacity="1.0"
     inkscape:pageopacity="0.0"
     inkscape:pageshadow="2"
     inkscape:zoom="0.35"
     inkscape:cx="322.85714"
     inkscape:cy="271.42855"
     inkscape:document-units="mm"
     inkscape:current-layer="layer1"
     showgrid="false"
     inkscape:window-width="1366"
     inkscape:window-height="705"
     inkscape:window-x="1432"
     inkscape:window-y="130"
     inkscape:window-maximized="1" />
  <metadata
     id="metadata32">
    <rdf:RDF>
      <cc:Work
         rdf:about="">
        <dc:format>image/svg+xml</dc:format>
        <dc:type
           rdf:resource="http://purl.org/dc/dcmitype/StillImage" />
        <dc:title></dc:title>
      </cc:Work>
    </rdf:RDF>
  </metadata>
  <g
     inkscape:label="Layer 1"
     inkscape:groupmode="layer"
     id="layer1"
     transform="translate(-20.410715,-51.315475)">
    <g
       transform="matrix(26.789302,0,0,26.789302,-527.08083,-1320.1865)"
       id="g21">
      <g
         id="g19">
        <path
           inkscape:connector-curvature="0"
           id="use13"
           d="m 23.585715,55.813392 c 0.291042,0 0.529167,-0.238125 0.529167,-0.529167 0,-0.293688 -0.238125,-0.529167 -0.529167,-0.529167 -0.291042,0 -0.529167,0.238125 -0.529167,0.529167 0,0.291042 0.238125,0.529167 0.529167,0.529167 m 1.5875,-2.38125 c 0.291042,0 0.529167,0.238125 0.529167,0.529166 0,0.264584 0,2.38125 0,2.645834 0,0.291041 -0.238125,0.529166 -0.529167,0.529166 -0.3175,0 -2.8575,0 -3.175,0 -0.291042,0 -0.529167,-0.238125 -0.529167,-0.529166 0,-0.264584 0,-2.38125 0,-2.645834 0,-0.293687 0.238125,-0.529166 0.529167,-0.529166 0.01852,0 0.105833,0 0.264583,0 0,-0.3175 0,-0.494771 0,-0.529167 0,-0.73025 0.592667,-1.322917 1.322917,-1.322917 0.73025,0 1.322917,0.592667 1.322917,1.322917 0,0.0344 0,0.211667 0,0.529167 h 0.264583 m -2.38125,-0.529167 c 0,0.0344 0,0.211667 0,0.529167 h 1.5875 c 0,-0.3175 0,-0.494771 0,-0.529167 0,-0.439208 -0.354542,-0.79375 -0.79375,-0.79375 -0.439208,0 -0.79375,0.354542 -0.79375,0.79375 z"
           style="fill:#ff6f00;fill-opacity:1;stroke-width:0.26458332" />
        <g
           id="g17">
          <path
             inkscape:connector-curvature="0"
             id="use15"
             d="m 23.585715,55.813392 c 0.291042,0 0.529167,-0.238125 0.529167,-0.529167 0,-0.293688 -0.238125,-0.529167 -0.529167,-0.529167 -0.291042,0 -0.529167,0.238125 -0.529167,0.529167 0,0.291042 0.238125,0.529167 0.529167,0.529167 m 1.5875,-2.38125 c 0.291042,0 0.529167,0.238125 0.529167,0.529166 0,0.264584 0,2.38125 0,2.645834 0,0.291041 -0.238125,0.529166 -0.529167,0.529166 -0.3175,0 -2.8575,0 -3.175,0 -0.291042,0 -0.529167,-0.238125 -0.529167,-0.529166 0,-0.264584 0,-2.38125 0,-2.645834 0,-0.293687 0.238125,-0.529166 0.529167,-0.529166 0.01852,0 0.105833,0 0.264583,0 0,-0.3175 0,-0.494771 0,-0.529167 0,-0.73025 0.592667,-1.322917 1.322917,-1.322917 0.73025,0 1.322917,0.592667 1.322917,1.322917 0,0.0344 0,0.211667 0,0.529167 h 0.264583 m -2.38125,-0.529167 c 0,0.0344 0,0.211667 0,0.529167 h 1.5875 c 0,-0.3175 0,-0.494771 0,-0.529167 0,-0.439208 -0.354542,-0.79375 -0.79375,-0.79375 -0.439208,0 -0.79375,0.354542 -0.79375,0.79375 z"
             style="fill-opacity:0;stroke:#000000;stroke-width:0.26458332;stroke-opacity:0" />
        </g>
      </g>
    </g>
  </g>
</svg>
