<?xml version="1.0" encoding="utf-8"?>
<!-- Generator: Adobe Illustrator 23.0.0, SVG Export Plug-In . SVG Version: 6.00 Build 0)  -->
<svg version="1.1" id="Camada_1" xmlns="http://www.w3.org/2000/svg" xmlns:xlink="http://www.w3.org/1999/xlink" x="0px" y="0px"
	 viewBox="0 0 24 24" style="enable-background:new 0 0 24 24;" xml:space="preserve">
<style type="text/css">
	.st0{fill:#DB9E67;}
	.st1{fill:#B4732D;}
	.st2{fill:#A4E869;}
	.st3{fill:#54CE3E;}
</style>
<path class="st0" d="M14,19.6c-1,0.5-2.1,0.6-3.1,0.3c-1.5-0.3-2.9-1.4-3.6-2.9c-1.2-2.6,0-5.6,2.6-6.7c0.7-0.3,1.6-0.6,2.7-0.8
	C15.7,9,20,9,20.9,11C22,13.5,16.6,18.5,14,19.6z"/>
<g>
	<path class="st1" d="M13.8,15c0,2.1-1.2,4-2.9,5c-1.5-0.3-2.9-1.4-3.6-2.9c-1.2-2.6,0-5.6,2.6-6.7c0.7-0.3,1.6-0.6,2.7-0.8
		C13.3,11.5,13.8,13.6,13.8,15z"/>
	<path class="st1" d="M14,19.6c-2.6,1.2-5.6,0-6.7-2.6c0-0.1-0.1-0.2-0.1-0.3c1.2,2.4,4.1,3.4,6.6,2.3c2.5-1.1,7.6-5.7,7-8.3
		c0.1,0.1,0.1,0.2,0.2,0.3C22,13.5,16.6,18.5,14,19.6z"/>
	<path class="st1" d="M9.4,13.4c-0.1,0-0.2,0-0.2-0.1C9.1,13.2,9.2,13,9.3,13c2.4-1.7,4.7-2.3,6.2-2.4c1.6-0.2,2.7,0.1,2.7,0.1
		c0.1,0,0.2,0.2,0.2,0.3c0,0.1-0.2,0.2-0.3,0.2l0,0c0,0-1-0.2-2.5-0.1c-1.4,0.2-3.6,0.7-5.9,2.3C9.6,13.4,9.5,13.4,9.4,13.4z"/>
	<path class="st1" d="M11.9,18.6c-0.1,0-0.3-0.1-0.3-0.2c0-0.1,0.1-0.3,0.2-0.3c2.1-0.2,3.6-1.8,3.6-1.8c0.1-0.1,0.3-0.1,0.4,0
		c0.1,0.1,0.1,0.3,0,0.4C15.8,16.7,14.2,18.4,11.9,18.6C11.9,18.6,11.9,18.6,11.9,18.6z"/>
	<path class="st1" d="M14,15.5c-0.1,0-0.2-0.1-0.2-0.2c-0.1-0.1,0-0.3,0.1-0.4l3.2-1.6c0.1-0.1,0.3,0,0.4,0.1c0.1,0.1,0,0.3-0.1,0.4
		l-3.2,1.6C14.1,15.5,14.1,15.5,14,15.5z"/>
</g>
<path class="st2" d="M13.2,15c0,2.8-2.3,5.1-5.1,5.1S3,17.8,3,15s2.3-9.8,5.1-9.8S13.2,12.2,13.2,15z"/>
<g>
	<path class="st3" d="M13.2,15c0,2.8-2.3,5.1-5.1,5.1c-0.1,0-0.2,0-0.3,0c2.7-0.2,4.8-2.4,4.8-5.1c0-2.7-2.1-9.3-4.8-9.8
		c0.1,0,0.2,0,0.3,0C10.9,5.2,13.2,12.2,13.2,15z"/>
	<path class="st3" d="M5.4,16.8c-0.1,0-0.2-0.1-0.3-0.2C4.6,13.7,5,11.3,5.5,9.9C6,8.4,6.6,7.5,6.6,7.5C6.7,7.4,6.9,7.3,7,7.4
		c0.1,0.1,0.1,0.3,0.1,0.4l0,0c0,0-0.6,0.8-1.1,2.3c-0.4,1.4-0.8,3.6-0.3,6.4C5.7,16.6,5.6,16.8,5.4,16.8
		C5.5,16.8,5.4,16.8,5.4,16.8z"/>
	<path class="st3" d="M10,18.6c-0.1,0-0.1,0-0.2-0.1c-0.1-0.1-0.1-0.3,0-0.4c1-0.9,1.4-2.2,1.4-3.7c0-1.2-0.4-2.1-0.4-2.1
		c-0.1-0.1,0-0.3,0.2-0.4c0.1-0.1,0.3,0,0.4,0.2c0,0,0.4,1,0.4,2.2c0.1,1.7-0.5,3.1-1.5,4.2C10.1,18.5,10,18.6,10,18.6z"/>
	<path class="st3" d="M9.1,13.5c-0.1,0-0.3-0.1-0.3-0.3L8.7,9.7c0-0.2,0.1-0.3,0.3-0.3c0.2,0,0.3,0.1,0.3,0.3l0.1,3.5
		C9.4,13.3,9.3,13.5,9.1,13.5C9.2,13.5,9.1,13.5,9.1,13.5z"/>
	<path class="st3" d="M7.2,19C7.2,19,7.2,19,7.2,19c-0.8-0.3-1.4-0.9-1.5-1c-0.1-0.1-0.1-0.3,0-0.4c0.1-0.1,0.3-0.1,0.4,0
		c0,0,0.5,0.6,1.1,0.8c0.1,0.1,0.2,0.2,0.2,0.3C7.4,18.9,7.3,19,7.2,19z"/>
	<path class="st3" d="M9.3,14.6c-0.2,0-0.3-0.1-0.3-0.3v0C9,14.1,9.1,14,9.3,14s0.3,0.1,0.3,0.3v0C9.6,14.5,9.4,14.6,9.3,14.6z"/>
	<path class="st3" d="M8.6,15.3c-0.2,0-0.3-0.1-0.3-0.3v0c0-0.2,0.1-0.3,0.3-0.3s0.3,0.1,0.3,0.3v0C8.9,15.2,8.8,15.3,8.6,15.3z"/>
	<path class="st3" d="M9.5,16.5c-0.2,0-0.3-0.1-0.3-0.3v0c0-0.2,0.1-0.3,0.3-0.3s0.3,0.1,0.3,0.3v0C9.8,16.4,9.6,16.5,9.5,16.5z"/>
</g>
</svg>
