<svg width="24" height="24" viewBox="0 0 24 24" fill="none" xmlns="http://www.w3.org/2000/svg">
<path d="M18.0616 8C20.2146 8 21.96 9.74541 21.96 11.8984C21.96 14.0515 20.2146 15.7969 18.0616 15.7969C15.9085 15.7969 14.1631 14.0515 14.1631 11.8984C14.1632 11.0113 14.4658 10.1508 15.0209 9.45887C15.2468 9.71855 15.3285 9.87234 15.5666 10.2611H15.703C15.5825 9.96341 15.4052 9.67379 15.1664 9.28804C15.5319 8.88263 15.9785 8.55848 16.4772 8.3366C16.9759 8.11472 17.5157 8.00004 18.0616 8ZM18.0616 9.71531C16.8558 9.71531 15.8784 10.6927 15.8784 11.8984C15.8784 13.1041 16.8558 14.0816 18.0616 14.0816C19.2673 14.0816 20.2447 13.1041 20.2447 11.8984C20.2447 10.6927 19.2673 9.71531 18.0616 9.71531Z" fill="#00BFA5"/>
<path d="M11.98 8C9.82698 8 8.08157 9.74541 8.08157 11.8984C8.08189 12.785 8.38442 13.645 8.93923 14.3366C8.94087 14.3345 8.94196 14.3329 8.94356 14.3309L8.945 14.3327C8.98242 14.2857 9.01845 14.2375 9.05369 14.1888C9.21731 13.9745 9.33048 13.7949 9.44069 13.523C9.45059 13.5013 9.46065 13.4797 9.47016 13.4578H9.60196C9.57374 13.5743 9.53413 13.6885 9.48524 13.8042C9.37628 14.0379 9.24081 14.2868 9.1032 14.5102C9.10094 14.5137 9.09922 14.5169 9.09696 14.5205C9.46214 14.9223 9.90723 15.2434 10.4037 15.4632C10.9002 15.683 11.4371 15.7966 11.98 15.7969C12.5229 15.7966 13.0598 15.683 13.5563 15.4632C14.0528 15.2434 14.4978 14.9223 14.863 14.5205C14.8608 14.5169 14.8591 14.5137 14.8569 14.5102C14.7192 14.2868 14.5837 14.0379 14.4748 13.8041C14.4259 13.6885 14.3863 13.5743 14.3581 13.4578H14.4898C14.4994 13.4797 14.5094 13.5013 14.5193 13.523C14.6295 13.7949 14.7427 13.9745 14.9063 14.1888C14.9416 14.2375 14.9776 14.2857 15.015 14.3327L15.0165 14.3309L15.0208 14.3366C15.5756 13.645 15.8781 12.785 15.8784 11.8984C15.8784 9.74541 14.133 8 11.98 8ZM11.98 9.71531C13.1857 9.71531 14.1631 10.6927 14.1631 11.8984C14.1631 13.1041 13.1857 14.0816 11.98 14.0816C10.7743 14.0816 9.79689 13.1041 9.79689 11.8984C9.79689 11.8608 9.79782 11.8234 9.79969 11.7862C9.85817 10.6326 10.812 9.71531 11.98 9.71531Z" fill="#00BFA5"/>
<path d="M5.89844 8C3.74541 8 2 9.74541 2 11.8984C2 14.0515 3.74541 15.7969 5.89844 15.7969C8.05147 15.7969 9.79687 14.0515 9.79687 11.8984C9.79683 11.0113 9.49424 10.1508 8.93906 9.45887C8.71315 9.71855 8.63148 9.87234 8.39344 10.2611H8.25699C8.37753 9.96341 8.55479 9.67379 8.79357 9.28804C8.42807 8.88263 7.9815 8.55848 7.48278 8.3366C6.98405 8.11472 6.44429 8.00004 5.89844 8ZM5.89844 9.71531C7.10415 9.71531 8.08156 10.6927 8.08156 11.8984C8.08156 13.1041 7.10415 14.0816 5.89844 14.0816C4.69273 14.0816 3.71531 13.1041 3.71531 11.8984C3.71531 10.6927 4.69273 9.71531 5.89844 9.71531Z" fill="#00BFA5"/>
</svg>
