<?xml version="1.0" encoding="UTF-8"?>
<svg width="200" height="200" version="1.1" viewBox="0 0 200 200" xml:space="preserve" xmlns="http://www.w3.org/2000/svg">
	<path class="st0" d="m181.58 148.3c3.7993 6.6487 4.2063 13.637 1.0177 19.2-3.1887 5.5632-9.4303 8.684-17.029 8.684h-14.451c0.20353-2.7138 0.27137-5.4275 0.27137-8.1413 0-3.053-0.13569-6.106-0.33922-9.0911h9.4982c2.3067 0 4.2063-1.8996 4.2063-4.2063 0-0.67844-0.20353-1.4247-0.47491-2.0353l-60.585-105.36c-0.74628-1.3569-2.171-2.171-3.6636-2.171s-2.8494 0.74628-3.5957 2.0353l-9.6338 16.69c29.241 22.049 48.848 56.175 51.561 94.914 0.20353 2.9851 0.33922 6.0381 0.33922 9.0911 0 2.7138-0.13569 5.4275-0.27137 8.1413h-47.152c0.27138-2.7138 0.40706-5.4275 0.40706-8.1413 0-3.053-0.20353-6.106-0.54275-9.0911-2.3067-21.303-12.755-40.231-28.155-53.529l-6.6487 11.533c11.601 10.787 19.539 25.509 21.71 42.063 0.40706 2.9851 0.6106 6.0381 0.6106 9.0911 0 2.7816-0.20353 5.4954-0.47491 8.1413h-43.759c-7.6664 0-13.908-3.1887-17.029-8.684-3.1887-5.4954-2.7816-12.551 1.0177-19.2l8.9554-15.401c5.1561 2.7816 9.7695 6.3773 13.704 10.652l-5.3597 9.0911c-0.33922 0.61059-0.47491 1.289-0.54275 2.0353 0 2.3067 1.8996 4.2063 4.2063 4.2063h21.235c-1.7639-10.177-6.4452-19.336-13.162-26.595-3.9349-4.2742-8.6162-7.8699-13.704-10.651l23.678-41.181c5.0204 2.7816 9.8374 6.0381 14.247 9.7017 20.421 16.554 34.193 41.046 36.704 68.726h12.687c-2.5781-32.362-18.861-60.924-43.013-79.852-4.5455-3.5279-9.3625-6.7844-14.383-9.566l20.217-35.143c3.7993-6.6487 9.7017-10.448 16.011-10.448 6.3773 0 12.212 3.7993 16.011 10.448z" fill="#f06292" stroke-width=".67844" />
</svg>
