<?xml version="1.0" encoding="utf-8"?>
<!-- Generator: Adobe Illustrator 24.1.3, SVG Export Plug-In . SVG Version: 6.00 Build 0)  -->
<svg version="1.1" id="Layer_1" xmlns="http://www.w3.org/2000/svg" xmlns:xlink="http://www.w3.org/1999/xlink" x="0px" y="0px"
	 viewBox="0 0 250 224.6" style="enable-background:new 0 0 250 224.6;" xml:space="preserve">
<style type="text/css">
	.st0{fill:#FB2D26;}
</style>
<path class="st0" d="M245.1,183.5c5.6,9.8,6.2,20.1,1.5,28.3c-4.7,8.2-13.9,12.8-25.1,12.8h-21.3c0.3-4,0.4-8,0.4-12
	c0-4.5-0.2-9-0.5-13.4l14,0c3.4,0,6.2-2.8,6.2-6.2c0-1-0.3-2.1-0.7-3L130.3,34.7c-1.1-2-3.2-3.2-5.4-3.2c-2.2,0-4.2,1.1-5.3,3
	l-14.2,24.6c43.1,32.5,72,82.8,76,139.9c0.3,4.4,0.5,8.9,0.5,13.4c0,4-0.2,8-0.4,12h-69.5c0.4-4,0.6-8,0.6-12c0-4.5-0.3-9-0.8-13.4
	c-3.4-31.4-18.8-59.3-41.5-78.9l-9.8,17c17.1,15.9,28.8,37.6,32,62c0.6,4.4,0.9,8.9,0.9,13.4c0,4.1-0.3,8.1-0.7,12H28.2
	c-11.3,0-20.5-4.7-25.1-12.8c-4.7-8.1-4.1-18.5,1.5-28.3l13.2-22.7c7.6,4.1,14.4,9.4,20.2,15.7l-7.9,13.4c-0.5,0.9-0.7,1.9-0.8,3
	c0,3.4,2.8,6.2,6.2,6.2c0,0,0,0,0,0l31.3,0c-2.6-15-9.5-28.5-19.4-39.2c-5.8-6.3-12.7-11.6-20.2-15.7l34.9-60.7
	c7.4,4.1,14.5,8.9,21,14.3c30.1,24.4,50.4,60.5,54.1,101.3h18.7c-3.8-47.7-27.8-89.8-63.4-117.7c-6.7-5.2-13.8-10-21.2-14.1
	l29.8-51.8c5.6-9.8,14.3-15.4,23.6-15.4c9.4,0,18,5.6,23.6,15.4L245.1,183.5z"/>
</svg>
