<?xml version="1.0" encoding="UTF-8"?>
<svg width="250" height="250" preserveAspectRatio="xMidYMid" version="1.1" viewBox="0 0 250 250" xmlns="http://www.w3.org/2000/svg">
 <g transform="translate(0,-46)" stroke-width=".72458">
  <g>
   <path d="m191.95 133.02v77.236l-65.63 38.829-0.59344 0.53982v28.867l0.59344 0.55938 92.43-53.39v-107.62l-0.87312-0.21375-26.058 14.568 0.13115 0.62821" fill="#01579b"/>
   <path d="m60.481 210.89 65.841 38.196v29.966l-93.063-53.601v-107.2l0.955-0.14419 25.983 15.106 0.28476 0.86515v76.814" fill="#0288d1"/>
   <path d="m60.481 134.07-27.223-15.827 92.852-53.601 92.641 53.39-26.8 14.983-65.841-37.563-65.63 38.618" fill="#4fc3f7"/>
  </g>
  <path d="m125.19 202.05-0.71299-0.72747v-29.002l0.71299-0.36809 0.17318-0.71516 24.864-14.504 0.7608 0.17028v29.883l-25.798 15.263" fill="#2f406a"/>
  <path d="m98.963 187.72v-31.029l0.72096-0.0355 25.292 14.719 0.2152 0.57967v30.098l-26.228-14.332" fill="#2379bd"/>
  <path d="m124.76 141.43-25.798 15.264 26.228 15.263 25.798-15.049-26.228-15.479" fill="#03afef"/>
  <g>
   <path d="m93.087 220.97-0.71226-0.72748v-29.003l0.71226-0.36737 0.1739-0.71516 24.863-14.504 0.76081 0.17027v29.882l-25.798 15.264" fill="#01579b"/>
   <path d="m66.859 206.64v-31.03l0.72024-0.0355 25.292 14.72 0.2152 0.57967v30.098l-26.228-14.332" fill="#0288d1"/>
   <path d="m92.657 160.35-25.798 15.263 26.228 15.264 25.798-15.049-26.228-15.479" fill="#4fc3f7"/>
   <path d="m159.59 221.69-0.71299-0.72748v-29.003l0.71299-0.36737 0.17318-0.71516 24.864-14.504 0.7608 0.17027v29.882l-25.798 15.264" fill="#01579b"/>
   <path d="m133.36 207.36v-31.03l0.72096-0.0355 25.292 14.72 0.2152 0.57968v30.098l-26.228-14.332" fill="#0288d1"/>
   <path d="m159.16 161.06-25.798 15.263 26.228 15.264 25.798-15.049-26.228-15.479" fill="#4fc3f7"/>
   <path d="m127.48 240.61-0.71227-0.72747v-29.003l0.71227-0.36736 0.17389-0.71589 24.864-14.503 0.76009 0.17028v29.882l-25.798 15.264" fill="#01579b"/>
   <path d="m101.26 226.28v-31.03l0.72024-0.0355 25.293 14.719 0.21449 0.5804v30.098l-26.228-14.332" fill="#0288d1"/>
   <path d="m127.05 179.98-25.798 15.264 26.228 15.264 25.798-15.049-26.228-15.479" fill="#4fc3f7"/>
   <path d="m125.19 160.92-0.71299-0.72821v-29.002l0.71299-0.36736 0.17318-0.71589 24.864-14.503 0.7608 0.17029v29.882l-25.798 15.264" fill="#01579b"/>
   <path d="m98.963 146.59v-31.03l0.72096-0.0355 25.292 14.719 0.2152 0.58038v30.098l-26.228-14.332" fill="#0288d1"/>
   <path d="m124.76 100.29-25.798 15.264 26.228 15.264 25.798-15.049-26.228-15.479" fill="#4fc3f7"/>
   <path d="m93.087 179.84-0.71226-0.72749v-29.002l0.71226-0.36809 0.1739-0.71516 24.863-14.504 0.76081 0.17028v29.883l-25.798 15.263" fill="#01579b"/>
   <path d="m66.859 165.51v-31.029l0.72024-0.0355 25.292 14.719 0.2152 0.57966v30.098l-26.228-14.332" fill="#0288d1"/>
   <path d="m92.657 119.21-25.798 15.264 26.228 15.263 25.798-15.049-26.228-15.479" fill="#4fc3f7"/>
   <path d="m159.59 180.56-0.71299-0.72749v-29.002l0.71299-0.3681 0.17318-0.71515 24.864-14.504 0.7608 0.17027v29.883l-25.798 15.263" fill="#01579b"/>
   <path d="m133.36 166.22v-31.029l0.72096-0.0355 25.292 14.719 0.2152 0.57967v30.098l-26.228-14.332" fill="#0288d1"/>
   <path d="m159.16 119.93-25.798 15.264 26.228 15.263 25.798-15.049-26.228-15.479" fill="#4fc3f7"/>
   <path d="m127.48 199.47-0.71227-0.72748v-29.003l0.71227-0.36737 0.17389-0.71516 24.864-14.504 0.76009 0.17029v29.882l-25.798 15.264" fill="#01579b"/>
   <path d="m101.26 185.14v-31.03l0.72024-0.0355 25.293 14.72 0.21449 0.57966v30.098l-26.228-14.332" fill="#0288d1"/>
   <path d="m127.05 138.85-25.798 15.264 26.228 15.264 25.798-15.049-26.228-15.479" fill="#4fc3f7"/>
  </g>
 </g>
</svg>
