<svg xmlns="http://www.w3.org/2000/svg" viewBox="0 0 32 32">
  <path d="M16,10a6,6,0,1,1-6,6,6.0068,6.0068,0,0,1,6-6m0-4A10,10,0,1,0,26,16,10,10,0,0,0,16,6Z" style="fill: #42a5f5"/>
  <path d="M20,3V9.07a8.01157,8.01157,0,0,0-8,0V3a1,1,0,0,1,1-1h6A1,1,0,0,1,20,3Z" style="fill: #42a5f5"/>
  <path d="M16,24a7.94342,7.94342,0,0,0,4-1.07V29a1,1,0,0,1-1,1H13a1,1,0,0,1-1-1V22.93A7.94342,7.94342,0,0,0,16,24Z" style="fill: #42a5f5"/>
  <path d="M5.38,6.405a1,1,0,0,1,1.36541-.36579L12,9.07V9.08a7.95231,7.95231,0,0,0-4,6.91L2.747,12.96007a1,1,0,0,1-.36613-1.36668Z" style="fill: #42a5f5"/>
  <path d="M29.61908,20.40655,26.62,25.595a1,1,0,0,1-1.3654.36579L20,22.93v-.01a7.95221,7.95221,0,0,0,4-6.91L29.253,19.03987A1,1,0,0,1,29.61908,20.40655Z" style="fill: #42a5f5"/>
  <path d="M12,22.92v.01l-5.25457,3.0308A1,1,0,0,1,5.38,25.595L2.38092,20.40655a1,1,0,0,1,.36613-1.36668L8,16.01A7.95221,7.95221,0,0,0,12,22.92Z" style="fill: #42a5f5"/>
  <path d="M29.253,12.96007,24,15.99a7.95231,7.95231,0,0,0-4-6.91V9.07l5.25457-3.03085A1,1,0,0,1,26.62,6.405l2.99911,5.18844A1,1,0,0,1,29.253,12.96007Z" style="fill: #42a5f5"/>
</svg>
