<?xml version="1.0" encoding="UTF-8" standalone="no"?>
<svg
   xmlns:dc="http://purl.org/dc/elements/1.1/"
   xmlns:cc="http://creativecommons.org/ns#"
   xmlns:rdf="http://www.w3.org/1999/02/22-rdf-syntax-ns#"
   xmlns:svg="http://www.w3.org/2000/svg"
   xmlns="http://www.w3.org/2000/svg"
   xmlns:sodipodi="http://sodipodi.sourceforge.net/DTD/sodipodi-0.dtd"
   xmlns:inkscape="http://www.inkscape.org/namespaces/inkscape"
   version="1.1"
   width="24"
   height="24"
   viewBox="0 0 24 24"
   id="svg4"
   sodipodi:docname="vert.svg"
   inkscape:version="0.92.4 5da689c313, 2019-01-14">
  <metadata
     id="metadata10">
    <rdf:RDF>
      <cc:Work
         rdf:about="">
        <dc:format>image/svg+xml</dc:format>
        <dc:type
           rdf:resource="http://purl.org/dc/dcmitype/StillImage" />
        <dc:title />
      </cc:Work>
    </rdf:RDF>
  </metadata>
  <defs
     id="defs8" />
  <sodipodi:namedview
     pagecolor="#ffffff"
     bordercolor="#666666"
     borderopacity="1"
     objecttolerance="10"
     gridtolerance="10"
     guidetolerance="10"
     inkscape:pageopacity="0"
     inkscape:pageshadow="2"
     inkscape:window-width="2160"
     inkscape:window-height="1344"
     id="namedview6"
     showgrid="false"
     inkscape:zoom="19.666667"
     inkscape:cx="-20.37421"
     inkscape:cy="4.5514659"
     inkscape:window-x="0"
     inkscape:window-y="58"
     inkscape:window-maximized="1"
     inkscape:current-layer="svg4" />
  <path
     d="M 9 3 L 9 9 L 9.7304688 9 L 14.269531 9 L 15 9 L 15 3 L 9 3 z M 11 5 L 13 5 L 13 7 L 11 7 L 11 5 z M 2 16 L 2 22 L 8 22 L 8 20 L 8 18 L 8 16.150391 L 8 16 L 5.7890625 16 L 2 16 z M 16 16 L 16 16.150391 L 16 18 L 16 20 L 16 22 L 22 22 L 22 16 L 18.210938 16 L 16 16 z M 4 18 L 6 18 L 6 20 L 4 20 L 4 18 z M 18 18 L 20 18 L 20 20 L 18 20 L 18 18 z "
     id="path2"
     style="fill:#2196f3;fill-opacity:1" />
</svg>
