<?xml version="1.0" encoding="UTF-8" standalone="no"?>
<svg
   xmlns:dc="http://purl.org/dc/elements/1.1/"
   xmlns:cc="http://creativecommons.org/ns#"
   xmlns:rdf="http://www.w3.org/1999/02/22-rdf-syntax-ns#"
   xmlns:svg="http://www.w3.org/2000/svg"
   xmlns="http://www.w3.org/2000/svg"
   xmlns:sodipodi="http://sodipodi.sourceforge.net/DTD/sodipodi-0.dtd"
   xmlns:inkscape="http://www.inkscape.org/namespaces/inkscape"
   version="1.1"
   width="24"
   height="24"
   viewBox="0 0 24 24"
   id="svg4"
   sodipodi:docname="geom.svg"
   inkscape:version="0.92.4 5da689c313, 2019-01-14">
  <metadata
     id="metadata10">
    <rdf:RDF>
      <cc:Work
         rdf:about="">
        <dc:format>image/svg+xml</dc:format>
        <dc:type
           rdf:resource="http://purl.org/dc/dcmitype/StillImage" />
        <dc:title />
      </cc:Work>
    </rdf:RDF>
  </metadata>
  <defs
     id="defs8" />
  <sodipodi:namedview
     pagecolor="#ffffff"
     bordercolor="#666666"
     borderopacity="1"
     objecttolerance="10"
     gridtolerance="10"
     guidetolerance="10"
     inkscape:pageopacity="0"
     inkscape:pageshadow="2"
     inkscape:window-width="2160"
     inkscape:window-height="1344"
     id="namedview6"
     showgrid="false"
     inkscape:snap-bbox="false"
     inkscape:bbox-paths="true"
     inkscape:zoom="39.333333"
     inkscape:cx="-9.7743066"
     inkscape:cy="7.2141824"
     inkscape:window-x="0"
     inkscape:window-y="58"
     inkscape:window-maximized="1"
     inkscape:current-layer="svg4" />
  <path
     id="path875"
     d="m 12,9 v 0.039063 l 4,7.1113285 V 16 h 2.210938 L 14.269531,9 Z m 0,0 H 9.7304688 L 5.7890625,16 H 8 v 0.150391 l 4,-7.1113285 z m 4,11 V 18 H 8 v 2 z"
     style="fill:#000000;fill-opacity:1" />
  <path
     id="path2"
     style="fill:#ab47bc;fill-opacity:1"
     d="M 9,3 V 9 H 9.7304688 14.269531 15 V 3 Z m 2,2 h 2 v 2 h -2 z m 7.210938,11 H 16 V 16.150391 18 v 2 2 h 6 V 16 Z M 18,18 h 2 v 2 H 18 Z M 8,20 V 18 16.150391 16 H 5.7890625 2 v 6 H 8 Z M 4,18 h 2 v 2 H 4 Z" />
</svg>
