<svg viewBox="0 0 16 16" xmlns="http://www.w3.org/2000/svg"><path fill="#e0e0e0" d="M1 3l2 3a5 5 0 01.762-2.646A.996.996 0 003 3zm11.04 5.928a4.96 4.96 0 01-4.933 1.982A6.022 6.022 0 007 12c1.916 2.874 8 2.4 8 0-1.6 0-2.396-1.388-2.96-3.072z"/><path fill="#9e9e9e" d="M12.127 3.18a4.946 4.946 0 01.574 4.486C13.193 9.461 13.743 11 15 11V7c0-2.016-1.35-3.358-2.873-3.82z"/><path fill="#c5cae9" d="M5.357 3A4 4 0 005 3.357V4c0 1.096-.64 1.997-.896 2.86a4 4 0 002.283 2.796C6.967 7.712 8 5.89 8 4a1 1 0 00-1-1zM9 3v1c0 2.135-1.083 4.032-1.654 5.94.216.038.435.06.654.06a3.997 3.997 0 003.65-2.37C11.023 5.339 10.551 3 9 3z"/><path fill="#f9a825" d="M4.543 9.596l-3.156 4.472 1.226.864 3.155-4.47a5 5 0 01-1.225-.866z"/><path fill="#7986cb" d="M8 2c-.973 0-1.913.356-2.643 1H7a1 1 0 011 1c0 1.889-1.033 3.712-1.613 5.656a4 4 0 00.959.283C7.917 8.032 9 6.135 9 4V3c1.551 0 2.023 2.338 2.65 4.63A4 4 0 008 2zM5 3.357A3.986 3.986 0 004 6c0 .29.038.578.104.86C4.359 5.996 5 5.095 5 4z"/></svg>