<svg xmlns="http://www.w3.org/2000/svg" viewBox="0 0 16 16"><path fill="#bdbdbd" d="m1 3 2 3a5 5 0 0 1 .762-2.646A1 1 0 0 0 3 3zm11.04 5.928a4.96 4.96 0 0 1-4.933 1.982A6 6 0 0 0 7 12c1.916 2.874 8 2.4 8 0-1.6 0-2.396-1.388-2.96-3.072"/><path fill="#757575" d="M12.127 3.18a4.95 4.95 0 0 1 .574 4.486C13.193 9.461 13.743 11 15 11V7c0-2.016-1.35-3.358-2.873-3.82"/><path fill="#c5cae9" d="M5.357 3A4 4 0 0 0 5 3.357V4c0 1.096-.64 1.997-.896 2.86a4 4 0 0 0 2.283 2.796C6.967 7.712 8 5.89 8 4a1 1 0 0 0-1-1zM9 3v1c0 2.135-1.083 4.032-1.654 5.94q.325.059.654.06a4 4 0 0 0 3.65-2.37C11.023 5.339 10.551 3 9 3"/><path fill="#f9a825" d="m4.543 9.596-3.156 4.472 1.226.864 3.155-4.47a5 5 0 0 1-1.225-.866"/><path fill="#7986cb" d="M8 2c-.973 0-1.913.356-2.643 1H7a1 1 0 0 1 1 1c0 1.889-1.033 3.712-1.613 5.656a4 4 0 0 0 .959.283C7.917 8.032 9 6.135 9 4V3c1.551 0 2.023 2.338 2.65 4.63A4 4 0 0 0 8 2M5 3.357A4 4 0 0 0 4 6c0 .29.038.578.104.86C4.359 5.996 5 5.095 5 4z"/></svg>