<svg xmlns="http://www.w3.org/2000/svg" viewBox="0 0 24 24"><g fill="none" fill-rule="evenodd"><path fill="#000" d="M6.05.023h11.894c.743 0 1.012.077 1.284.223a1.514 1.514 0 0 1 .63.63c.145.271.222.54.222 1.284v19.726c0 .743-.077 1.013-.222 1.284a1.514 1.514 0 0 1-.63.63c-.272.146-.541.223-1.284.223H6.05c-.742 0-1.012-.077-1.283-.223a1.514 1.514 0 0 1-.63-.63c-.146-.271-.223-.54-.223-1.284V2.16c0-.743.077-1.013.222-1.284a1.514 1.514 0 0 1 .63-.63C5.038.1 5.308.023 6.05.023Z"/><path fill="#ffd600" d="M6.027.106h11.94c.706 0 .962.074 1.22.212a1.439 1.439 0 0 1 .599.598c.138.258.211.514.211 1.22V21.91c0 .706-.073.962-.211 1.22a1.439 1.439 0 0 1-.599.598c-.258.138-.514.212-1.22.212H6.027c-.706 0-.962-.074-1.22-.212a1.439 1.439 0 0 1-.598-.598c-.138-.258-.212-.514-.212-1.22V2.136c0-.706.074-.961.212-1.22a1.439 1.439 0 0 1 .598-.598c.258-.138.514-.212 1.22-.212Z"/><path fill="#000" d="M6.04.44h11.915c.594 0 .81.062 1.027.178a1.211 1.211 0 0 1 .504.504c.116.217.178.433.178 1.027v19.748c0 .595-.062.81-.178 1.027a1.211 1.211 0 0 1-.504.504c-.218.117-.433.179-1.027.179H6.04c-.595 0-.81-.062-1.028-.179a1.211 1.211 0 0 1-.504-.504c-.116-.217-.178-.433-.178-1.027V2.15c0-.594.062-.81.179-1.027a1.211 1.211 0 0 1 .504-.504C5.23.502 5.445.44 6.04.44Z"/><path fill="#fff" d="M5.768 1.023h12.458c.297 0 .405.031.513.09a.606.606 0 0 1 .252.251c.059.109.09.217.09.514v20.29c0 .298-.031.405-.09.514a.606.606 0 0 1-.252.252c-.108.058-.216.09-.513.09H5.768c-.297 0-.405-.032-.513-.09a.606.606 0 0 1-.252-.252c-.058-.109-.09-.216-.09-.514V1.878c0-.297.032-.405.09-.514a.606.606 0 0 1 .252-.252c.108-.058.216-.089.513-.089Z"/><path fill="#000" d="M9.298 4.8c0 .142-.102.258-.447.258-.322 0-.678-.146-.903-.394l-.323.41c.233.295.623.51 1.245.51.634 0 1.065-.357 1.065-.83 0-.948-1.575-.7-1.575-1.143 0-.165.139-.248.431-.248.297 0 .608.09.81.263l.248-.44c-.203-.205-.593-.348-1.035-.348-.679 0-1.088.383-1.088.795 0 1.013 1.572.694 1.572 1.166zm1.068.723h.62V2.898h-.62Zm1.095-2.081h1.362l-1.425 1.631v.45h2.265V4.98h-1.467l1.433-1.63v-.45H11.46Zm2.595 2.081h2.112v-.506h-1.493v-.581h1.361v-.488h-1.36v-.544h1.458v-.506h-2.078zm-7.028 3.75h2.07v-.562h-1.45V6.648h-.62zm2.39 0h.618V6.648h-.619Zm1.2 0h.58V8.002c0-.154-.003-.36-.01-.435h.014c.086.135.128.202.199.296l.547.728h.14l.54-.728c.07-.097.12-.18.18-.285h.014c-.007.086-.007.304-.007.42v1.275h.58V6.648h-.51l-.847 1.204-.892-1.204h-.529Zm3.36 0h.618V6.648h-.619zm.937-2.081h.847v2.081h.619V7.192h.851v-.544h-2.317Zm-4.73 13.831h.412v-.672l.073-.08.627.752h.53l-.76-.917.76-.833h-.54l-.69.808v-.808h-.412zm2.234 0v-1.75h.807c.455 0 .628.185.628.445 0 .17-.098.32-.27.39.205.033.327.18.327.398 0 .365-.297.517-.705.517zm.76-.735h-.348v.41h.31c.238 0 .345-.055.345-.207 0-.135-.082-.203-.307-.203zm-.043-.69h-.305v.39h.355c.16 0 .243-.087.243-.197 0-.135-.075-.193-.293-.193zm-3.018-1.992v-5.841h-.742l-2.341 1.158.416.883 1.375-.641v4.441Zm1.208-2.925c0-1.716.967-2.983 2.667-2.983 1.675 0 2.675 1.267 2.675 2.983 0 1.725-.983 2.984-2.658 2.984-1.717 0-2.684-1.259-2.684-2.984zm1.292 0c0 1.184.525 1.859 1.392 1.859.941 0 1.366-.675 1.366-1.859 0-1.191-.458-1.858-1.383-1.858-.867 0-1.375.683-1.375 1.858z"/></g></svg>
