<svg width="10" height="10" viewBox="0 0 10 10" fill="none" xmlns="http://www.w3.org/2000/svg">
<path d="M5.42784 2.0583L5.86535 0.527969C6.02929 -0.0448567 6.84109 -0.0448567 7.00503 0.527969L7.44204 2.0583C7.46971 2.15511 7.52159 2.24326 7.59278 2.31446C7.66397 2.38565 7.75212 2.43753 7.84892 2.4652L9.37917 2.90223C9.95198 3.06618 9.95198 3.87801 9.37917 4.04195L7.84892 4.47898C7.75212 4.50665 7.66397 4.55853 7.59278 4.62972C7.52159 4.70092 7.46971 4.78908 7.44204 4.88588L7.00503 6.41621C6.84109 6.98904 6.02929 6.98904 5.86535 6.41621L5.42834 4.88588C5.40067 4.78908 5.34879 4.70092 5.2776 4.62972C5.20641 4.55853 5.11825 4.50665 5.02145 4.47898L3.49116 4.04195C2.91835 3.87801 2.91835 3.06618 3.49116 2.90223L5.02145 2.4652C5.11825 2.43753 5.20641 2.38565 5.2776 2.31446C5.34879 2.24326 5.40067 2.15511 5.42834 2.0583M8.01395 7.22563C8.15666 6.80934 8.75662 6.80885 8.89883 7.22563L8.91167 7.26859L9.05784 7.85524L9.64447 8.00191C10.1185 8.12042 10.1185 8.793 9.64447 8.91151L9.05784 9.05818L8.91167 9.64482C8.79316 10.1184 8.12012 10.1184 8.00161 9.64482L7.85495 9.05818L7.26832 8.91151C6.79428 8.793 6.79428 8.11993 7.26832 8.00191L7.85495 7.85524L8.00161 7.26859L8.01395 7.22563ZM8.45639 8.35647C8.42797 8.39453 8.39421 8.42829 8.35615 8.45671C8.39421 8.48513 8.42797 8.51889 8.45639 8.55695C8.48481 8.51889 8.51857 8.48513 8.55663 8.45671C8.51854 8.42814 8.48477 8.39421 8.45639 8.35597M1.10117 0.31219C1.24832 -0.117923 1.88383 -0.103602 1.99889 0.355152L2.14505 0.941804L2.73168 1.08847C3.20573 1.20698 3.20573 1.87956 2.73168 1.99807L2.14505 2.14474L1.99889 2.73139C1.88038 3.20496 1.20733 3.20496 1.08882 2.73139L0.942164 2.14474L0.355534 1.99807C-0.118511 1.87956 -0.118511 1.20649 0.355534 1.08847L0.942164 0.941804L1.08882 0.355152L1.10117 0.31219ZM1.54361 1.44352C1.51515 1.48141 1.48139 1.515 1.44337 1.54327C1.48146 1.57184 1.51523 1.60577 1.54361 1.64401C1.57199 1.60577 1.60575 1.57184 1.64385 1.54327C1.60579 1.51485 1.57203 1.48158 1.54361 1.44352Z" fill="#D7CCC8"/>
</svg>
