<svg width="16" height="16" viewBox="0 0 16 16" fill="none" xmlns="http://www.w3.org/2000/svg">
<path d="M8.59898 3.88162L9.21149 1.73916C9.441 0.937201 10.5775 0.937201 10.807 1.73916L11.4189 3.88162C11.4576 4.01715 11.5302 4.14057 11.6299 4.24024C11.7296 4.33991 11.853 4.41255 11.9885 4.45128L14.1308 5.06312C14.9328 5.29265 14.9328 6.42921 14.1308 6.65873L11.9885 7.27057C11.853 7.30931 11.7296 7.38194 11.6299 7.48161C11.5302 7.58128 11.4576 7.70471 11.4189 7.84023L10.807 9.9827C10.5775 10.7847 9.441 10.7847 9.21149 9.9827L8.59967 7.84023C8.56094 7.70471 8.48831 7.58128 8.38864 7.48161C8.28897 7.38194 8.16555 7.30931 8.03003 7.27057L5.88762 6.65873C5.08569 6.42921 5.08569 5.29265 5.88762 5.06312L8.03003 4.45128C8.16555 4.41255 8.28897 4.33991 8.38864 4.24024C8.48831 4.14057 8.56094 4.01715 8.59967 3.88162M12.2195 11.1159C12.4193 10.5331 13.2593 10.5324 13.4584 11.1159L13.4763 11.176L13.681 11.9973L14.5023 12.2027C15.1659 12.3686 15.1659 13.3102 14.5023 13.4761L13.681 13.6814L13.4763 14.5028C13.3104 15.1657 12.3682 15.1657 12.2022 14.5028L11.9969 13.6814L11.1756 13.4761C10.512 13.3102 10.512 12.3679 11.1756 12.2027L11.9969 11.9973L12.2022 11.176L12.2195 11.1159ZM12.8389 12.6991C12.7992 12.7523 12.7519 12.7996 12.6986 12.8394C12.7519 12.8792 12.7992 12.9264 12.8389 12.9797C12.8787 12.9264 12.926 12.8792 12.9793 12.8394C12.926 12.7994 12.8787 12.7519 12.8389 12.6984M2.54163 1.43707C2.74765 0.834908 3.63737 0.854957 3.79844 1.49721L4.00307 2.31853L4.82436 2.52385C5.48802 2.68978 5.48802 3.63138 4.82436 3.7973L4.00307 4.00263L3.79844 4.82395C3.63253 5.48694 2.69027 5.48694 2.52435 4.82395L2.31903 4.00263L1.49775 3.7973C0.834084 3.63138 0.834084 2.68908 1.49775 2.52385L2.31903 2.31853L2.52435 1.49721L2.54163 1.43707ZM3.16105 3.02093C3.12121 3.07397 3.07395 3.121 3.02071 3.16058C3.07405 3.20058 3.12132 3.24808 3.16105 3.30161C3.20079 3.24808 3.24805 3.20058 3.30139 3.16058C3.2481 3.12079 3.20084 3.07422 3.16105 3.02093Z" fill="#6D4C41"/>
</svg>
