<svg version="1.1" viewBox="0 0 24 24" xmlns="http://www.w3.org/2000/svg">
 <path d="m9.1637 21.221c-0.1189-0.007291-0.56109-0.032438-0.98265-0.055921-3.4018-0.18938-5.6538-0.71384-6.1254-1.4266-0.13596-0.20546-0.14592-0.51534-0.021922-0.68145 0.11518-0.15427 0.37759-0.27938 0.74475-0.35506l0.31245-0.06441 0.37341 0.12292c1.5678 0.51611 2.903 0.58806 4.8751 0.26271 0.81886-0.13509 1.26-0.291 1.736-0.61354 0.18244-0.12363 0.25879-0.15177 0.41271-0.15211 0.62065-0.0014 1.5813-0.16716 2.0655-0.35644 1.3924-0.54432 2.6552-2.0233 2.9794-3.4893 0.15884-0.71823 0.0717-1.8308-0.21103-2.6942l-0.13-0.39705 0.02814-0.74681c0.02281-0.60563 0.04669-0.81788 0.12621-1.1227 0.28912-1.1083 0.99108-1.8778 1.9568-2.1449 0.37352-0.10332 1.1693-0.09337 1.5887 0.019865 0.63446 0.17126 1.1856 0.49634 1.5955 0.94097 0.50492 0.54781 0.7068 1.0254 0.73462 1.7379 0.0215 0.55002-0.03421 0.80889-0.28307 1.3158-0.21098 0.42976-0.54162 0.83294-0.90844 1.1077-0.15061 0.11283-0.30205 0.22979-0.33653 0.25992-0.05176 0.04525-0.06697 0.19123-0.08723 0.83716-0.01351 0.43031-0.05227 0.98579-0.08615 1.2344-0.45721 3.3539-2.2337 5.4211-5.3061 6.1741-1.0239 0.25096-1.3697 0.28267-3.1838 0.29194-0.90797 0.0047-1.7481 0.0023-1.867-0.0048zm-3.967-2.8774-0.44911-0.069574-0.30152-0.32159c-1.5132-1.6139-2.0841-4.0028-1.4292-5.981 0.64649-1.9529 2.3206-3.3903 4.496-3.8601 0.55697-0.12029 1.9126-0.13255 2.437-0.022015 0.59249 0.12488 1.1085 0.30219 1.6312 0.56055 1.8276 0.90324 2.9815 2.4946 3.2054 4.4204 0.111 0.95477-0.13039 1.793-0.76346 2.6512-0.71243 0.96574-1.6179 1.5242-2.6811 1.6537l-0.2325 0.02832 0.26618-0.27724c0.47584-0.49559 0.59668-0.93099 0.59672-2.1501 2.8e-5 -0.68351-0.01145-0.83156-0.08777-1.1342-0.18185-0.72099-0.47527-1.2388-0.96623-1.7052-0.64293-0.61072-1.44-0.92264-2.3493-0.91941-1.2947 0.0047-2.1959 0.82773-2.1959 2.0056 0 0.39792 0.068882 0.69534 0.23917 1.0327 0.13599 0.2694 0.44699 0.62097 0.68035 0.7691 0.3682 0.23372 0.98402 0.3497 1.195 0.22506 0.22822-0.13482 0.27212-0.41287 0.096254-0.60969-0.090739-0.10155-0.14954-0.12644-0.36358-0.15388-0.33689-0.043189-0.43752-0.086322-0.64277-0.27551-0.25875-0.23851-0.39478-0.56885-0.39695-0.96398-0.0014-0.26827 0.014723-0.34796 0.11035-0.54269 0.13292-0.2707 0.39632-0.49687 0.70272-0.6034 0.32773-0.11395 0.97988-0.09605 1.3863 0.03805 0.85412 0.28178 1.4562 0.91875 1.6986 1.7971 0.05425 0.19656 0.07017 0.4014 0.07017 0.90279 0 0.57044-0.01108 0.68385-0.09204 0.94165-0.10252 0.32647-0.3092 0.75769-0.48818 1.0185-0.29458 0.42927-0.85298 0.92727-1.2827 1.1439-0.69079 0.34832-2.9802 0.5729-4.089 0.40112zm14.002-11.766-0.24339-0.077197 0.13918-0.40015c0.53721-1.5446 1.3342-2.5214 2.0572-2.5214 0.56775 0 1.0431 0.58819 0.86252 1.0672-0.04515 0.11977-0.24448 0.34462-0.37099 0.4185-0.04347 0.02538-0.31008 0.054696-0.59615 0.065563-0.49723 0.018883-0.52421 0.024305-0.68785 0.13841-0.22158 0.1545-0.50328 0.57531-0.68976 1.0304-0.08182 0.19967-0.16645 0.36141-0.18807 0.35943-0.02164-0.00187-0.14883-0.038328-0.28269-0.080796zm-2.1846-0.058721c-0.06797-0.11557-0.12683-0.8376-0.12603-1.5459 9.34e-4 -0.63863 0.01533-0.86284 0.07045-1.0809 0.19312-0.76397 0.52848-1.1202 1.0545-1.1202 0.58835 0 0.93228 0.42067 0.7822 0.95672-0.07242 0.25865-0.18317 0.36507-0.59135 0.56824-0.31209 0.15535-0.39355 0.21593-0.49612 0.36896-0.17574 0.26223-0.22815 0.59078-0.19984 1.2528l0.02304 0.53877-0.16469 0.026175c-0.09058 0.014396-0.20256 0.035617-0.24884 0.047134-0.04627 0.011545-0.09279 0.00626-0.10336-0.011685z" fill="#f9a825" stroke-width=".039306"/>
</svg>
