<svg xmlns="http://www.w3.org/2000/svg" viewBox="0 0 32 32">
  <path d="M16,5a7.00012,7.00012,0,0,1,4.19839,12.60139L19,18.50144V21H13l-.00006-.99957-.0001-1.49852-1.19815-.9A7,7,0,0,1,15.164,5.04789,7.40543,7.40543,0,0,1,16,5m0-3a10.37192,10.37192,0,0,0-1.176.06722A10.00005,10.00005,0,0,0,9.99989,20.00061H10V22a2,2,0,0,0,2,2h8a2,2,0,0,0,2-2V20.00018h.00073A10.00049,10.00049,0,0,0,16,2Z" style="fill: #ffce00"/>
  <path d="M12,26h8a0,0,0,0,1,0,0v2a2,2,0,0,1-2,2H14a2,2,0,0,1-2-2V26A0,0,0,0,1,12,26Z" style="fill: #ffce00"/>
</svg>
