<?xml version="1.0" encoding="utf-8"?>
<!-- Generator: Adobe Illustrator 21.0.2, SVG Export Plug-In . SVG Version: 6.00 Build 0)  -->
<!DOCTYPE svg PUBLIC "-//W3C//DTD SVG 1.1//EN" "http://www.w3.org/Graphics/SVG/1.1/DTD/svg11.dtd">
<svg version="1.1"
	 id="svg2" inkscape:version="0.91 r13725" sodipodi:docname="android.svg" xmlns:cc="http://creativecommons.org/ns#" xmlns:dc="http://purl.org/dc/elements/1.1/" xmlns:inkscape="http://www.inkscape.org/namespaces/inkscape" xmlns:rdf="http://www.w3.org/1999/02/22-rdf-syntax-ns#" xmlns:sodipodi="http://sodipodi.sourceforge.net/DTD/sodipodi-0.dtd" xmlns:svg="http://www.w3.org/2000/svg"
	 xmlns="http://www.w3.org/2000/svg" xmlns:xlink="http://www.w3.org/1999/xlink" x="0px" y="0px" viewBox="0 0 24 24"
	 style="enable-background:new 0 0 24 24;" xml:space="preserve">
<style type="text/css">
	.st0{fill:#FFCE00;}
</style>
<path class="st0" d="M8.4,22.8c0,0.7,0.5,1.2,1.2,1.2h4.8c0.7,0,1.2-0.5,1.2-1.2v-1.2H8.4V22.8z M12,0C7.4,0,3.6,3.8,3.6,8.4
	c0,2.9,1.4,5.4,3.6,6.9V18c0,0.7,0.5,1.2,1.2,1.2h7.2c0.7,0,1.2-0.5,1.2-1.2v-2.7c2.2-1.5,3.6-4,3.6-6.9C20.4,3.8,16.6,0,12,0z
	 M15.4,13.3l-1,0.7v2.8H9.6V14l-1-0.7C7,12.2,6,10.4,6,8.4c0-3.3,2.7-6,6-6s6,2.7,6,6C18,10.4,17,12.2,15.4,13.3z"/>
</svg>
