<?xml version="1.0" encoding="UTF-8" standalone="no"?>
<svg xmlns="http://www.w3.org/2000/svg" version="1.0" viewBox="0 0 24 24">
    <path xmlns="http://www.w3.org/2000/svg" d="M 4.8 3 C 3.8 3 3 3.8 3 4.8 L 3 19.2 C 3 20.2 3.8 21 4.8 21 L 19.2 21 C 20.2 21 21 20.2 21 19.2 L 21 4.8 C 21 3.8 20.2 3 19.2 3 L 4.8 3 z M 8 9 L 11.55 9 A 1.2 1.2 0 0 1 12.75 10.2 L 12.75 15 L 11.55 15 L 11.55 10.2 L 10.35 10.2 L 10.35 14.4 L 9.15 14.4 L 9.15 10.2 L 8 10.2 L 8 15 L 6.75 15 L 6.75 10.2 A 1.2 1.2 0 0 1 8 9 z M 13.65 9 L 14.85 9 L 14.85 13.8 L 17.25 13.8 L 17.25 15 L 13.65 15 L 13.65 9 z" fill="#f44336"/>
</svg>
