<svg xmlns="http://www.w3.org/2000/svg" viewBox="0 0 32 32">
  <g>
    <path d="M25.33765,20.62225c-.33692-.621.14209-2.0899.14209-2.0899C22.73468,16.0542,22.04828,10.887,22.04828,10.887l-.00018-.00018c-.51233,1.62824-1.62647,6.42859-1.62647,6.42859a15.8706,15.8706,0,0,0-4.37958-.67474H16.025c-.128.00061-.25451.00323-.38061.00695V27.99915H25.96814C26.00232,25.77057,25.33765,20.62225,25.33765,20.62225ZM21.28748,24H18.08282a4.20213,4.20213,0,0,1,2.926-1.40875H21.009C22.70416,22.59125,21.43677,23.856,21.28748,24Z" style="fill: #607d8b;fill-rule: evenodd"/>
    <g>
      <polygon points="10.039 10.886 10.039 10.887 10.039 10.886 10.039 10.886" style="fill: #90a4ae"/>
      <path d="M11.66565,17.31567S10.55121,12.51556,10.039,10.8866c-.00036.00317-.68719,5.16821-3.43213,7.64544,0,0,.47919,1.46949.1424,2.09021,0,0-.66559,5.15-.63092,7.3769H16V16.64026A15.33506,15.33506,0,0,0,11.66565,17.31567ZM10.77081,24c-.14843-.144-1.41565-1.40875.27845-1.40875v.00018A4.2,4.2,0,0,1,13.97546,24Z" style="fill: #90a4ae"/>
    </g>
    <path d="M21.55519,25.2087H17.99955v.0329a2.19575,2.19575,0,0,0,2.333,1.97735,2.19618,2.19618,0,0,0,2.33362-1.97735v-.0329Z" style="fill: #455a64;fill-rule: evenodd"/>
    <path d="M18.88834,25.2087v.0329a1.344,1.344,0,0,0,2.667,0v-.0329Z" style="fill: #fff;fill-rule: evenodd"/>
    <path d="M20.6334,25.2087h-.62491a.09377.09377,0,0,0-.01676.00355c.07741.0143.12046.16889.10371.2717a.34606.34606,0,0,1-.35183.26921.56351.56351,0,0,0,.49424.402.5812.5812,0,0,0,.668-.43884C20.93882,25.50711,20.82456,25.2087,20.6334,25.2087Z" style="fill: #37474f;fill-rule: evenodd"/>
    <path d="M12.97227,25.2087H9.417v.0329a2.196,2.196,0,0,0,2.333,1.97735,2.19634,2.19634,0,0,0,2.33379-1.97735v-.0329Z" style="fill: #455a64;fill-rule: evenodd"/>
    <path d="M10.30592,25.2087v.0329A1.2607,1.2607,0,0,0,11.63885,26.418a1.26058,1.26058,0,0,0,1.33359-1.17638v-.0329Z" style="fill: #fff;fill-rule: evenodd"/>
    <path d="M12.051,25.2087H11.4254l-.01625.00355c.07707.0143.12.16889.10371.2717a.34579.34579,0,0,1-.35216.26921.565.565,0,0,0,.4944.402.58084.58084,0,0,0,.6678-.43884C12.35624,25.50711,12.24215,25.2087,12.051,25.2087Z" style="fill: #37474f;fill-rule: evenodd"/>
    <path d="M9.77517,4,8.47424,6.0983C8.01821,6.84573,4,13.46751,4,15.86009v.14057l1.83956,4.31019a54.42332,54.42332,0,0,0-.5512,7.68812H7.06258a55.87429,55.87429,0,0,1,.58872-7.69948l.02362-.18439L7.342,19.327a10.70226,10.70226,0,0,0,2.49914-3.88684l.054.33647,1.8166,2.62446.70936-.26773a11.8437,11.8437,0,0,1,3.60405-.68768,12.12194,12.12194,0,0,1,3.62248.68812l.70885.266,1.81392-2.62358.07121-.43824a10.87472,10.87472,0,0,0,2.498,3.94953l-.34847.82678.02345.18483a56.53375,56.53375,0,0,1,.59308,7.70021h1.75746a55.41227,55.41227,0,0,0-.57213-7.68812L28,16.00022v-.14013c0-2.39258-3.9857-9.01437-4.44124-9.76164L22.28431,4,20.45866,15.23716,19.616,16.45764a13.30484,13.30484,0,0,0-3.592-.57528,13.16612,13.16612,0,0,0-3.57759.57484l-.84271-1.22-.64083-3.9389.00218-.01933-.00519-.001Zm-.9801,5.01262.37344,2.29124a14.86689,14.86689,0,0,1-2.538,6.3337l-.80418-1.90492C5.92718,14.49166,7.395,11.51834,8.79507,9.01262Zm14.476,0c1.39994,2.50572,2.86857,5.479,2.96926,6.72l-.78525,1.85978A15.31882,15.31882,0,0,1,22.927,11.12479Z" style="fill: #607d8b;fill-rule: evenodd"/>
  </g>
</svg>
