<svg xmlns="http://www.w3.org/2000/svg" viewBox="0 0 32 32"><path fill="#607d8b" d="M25.338 20.622c-.337-.62.142-2.09.142-2.09-2.745-2.478-3.432-7.645-3.432-7.645-.512 1.628-1.626 6.428-1.626 6.428a15.87 15.87 0 0 0-4.38-.674h-.017c-.128 0-.255.003-.38.007v11.351h10.323c.034-2.228-.63-7.377-.63-7.377ZM21.288 24h-3.205a4.202 4.202 0 0 1 2.926-1.409c1.695 0 .428 1.265.278 1.409Z"/><path fill="#90a4ae" d="M10.039 10.886v.001-.001zm1.627 6.43s-1.115-4.8-1.627-6.43c0 .004-.687 5.169-3.432 7.646 0 0 .48 1.47.142 2.09 0 0-.665 5.15-.63 7.377H16V16.64a15.335 15.335 0 0 0-4.334.676ZM10.77 24c-.149-.144-1.416-1.409.278-1.409A4.2 4.2 0 0 1 13.975 24Z"/><path fill="#455a64" d="M21.555 25.209H18v.033a2.196 2.196 0 0 0 2.333 1.977 2.196 2.196 0 0 0 2.333-1.977v-.033Z"/><path fill="#FAFAFA" d="M18.888 25.209v.033a1.344 1.344 0 0 0 2.667 0v-.033Z"/><path fill="#37474f" d="M20.633 25.209h-.625a.094.094 0 0 0-.016.003c.077.015.12.17.103.272a.346.346 0 0 1-.351.27.564.564 0 0 0 .494.401.581.581 0 0 0 .668-.439c.033-.209-.081-.507-.273-.507Z"/><path fill="#455a64" d="M12.972 25.209H9.417v.033a2.196 2.196 0 0 0 2.333 1.977 2.196 2.196 0 0 0 2.334-1.977v-.033Z"/><path fill="#FAFAFA" d="M10.306 25.209v.033a1.26 1.26 0 0 0 1.333 1.176 1.26 1.26 0 0 0 1.333-1.176v-.033Z"/><path fill="#37474f" d="M12.051 25.209h-.626l-.016.003c.077.015.12.17.104.272a.346.346 0 0 1-.352.27.565.565 0 0 0 .494.401.58.58 0 0 0 .668-.439c.033-.209-.08-.507-.272-.507Z"/><path fill="#607d8b" d="m9.775 4-1.3 2.098C8.017 6.846 4 13.468 4 15.86V16l1.84 4.31A54.423 54.423 0 0 0 5.288 28h1.775a55.874 55.874 0 0 1 .588-7.7l.024-.184-.333-.788a10.702 10.702 0 0 0 2.5-3.887l.053.337 1.817 2.624.71-.268a11.844 11.844 0 0 1 3.603-.687 12.122 12.122 0 0 1 3.623.688l.708.266 1.814-2.624.072-.438a10.875 10.875 0 0 0 2.498 3.95l-.349.826.024.185a56.534 56.534 0 0 1 .593 7.7h1.757a55.412 55.412 0 0 0-.572-7.688L28 16.001v-.14c0-2.393-3.986-9.015-4.441-9.763L22.284 4 20.46 15.237l-.843 1.22a13.305 13.305 0 0 0-3.592-.575 13.166 13.166 0 0 0-3.578.575l-.842-1.22-.641-3.939.002-.019-.005-.001Zm-.98 5.013.374 2.29a14.867 14.867 0 0 1-2.538 6.335l-.805-1.905c.101-1.241 1.569-4.215 2.97-6.72Zm14.476 0c1.4 2.505 2.869 5.479 2.97 6.72l-.786 1.86a15.319 15.319 0 0 1-2.528-6.468Z"/></svg>