<?xml version="1.0" encoding="UTF-8"?>
<svg width="200" height="200" version="1.1" viewBox="0 0 200 200" xmlns="http://www.w3.org/2000/svg">
 <title>Group 2</title>
 <desc>Created with Sketch.</desc>
 <g transform="translate(0,100)" fill="none" fill-rule="evenodd">
  <g id="symbol" transform="matrix(1.8477 0 0 1.8477 34.746 -87.288)">
   <g id="Group" transform="translate(-10.549 2.9813)">
    <path d="m65.161 24.997c-1.6557 5.974-5.2547 23.587-5.2547 23.587s-6.6187-2.4638-14.148-2.4757h-0.05497c-0.41357 0.0021-0.82211 0.0121-1.2294 0.02537v41.649h6.6765v0.0032h5.8149v-0.0032h20.858c0.11105-8.1764-2.0359-27.066-2.0359-27.066-1.0886-2.2784 0.45876-7.668 0.45876-7.668-8.868-9.0919-11.085-28.051-11.085-28.051zm-3.3573 43.958c5.476 0 1.3818 4.6401 0.89957 5.168h-10.352c0.94351-1.1805 4.5042-5.168 9.4523-5.168z" fill="#607d8b" stroke-width="1.5998"/>
    <path d="m26.366 24.995s-2.2172 18.961-11.087 28.053c0 0 1.5484 5.3913 0.45983 7.669 0 0-2.1498 18.895-2.038 27.066h19.273v0.0032h7.0792v-0.0032h5.7441v-41.676h-0.02537c-7.5319 0.01264-14.151 2.4778-14.151 2.4778 0 0-3.6004-17.615-5.2547-23.59zm3.2642 43.96c4.9496 0 8.5095 3.9875 9.4523 5.168h-10.352c-0.47946-0.52794-4.5736-5.168 0.89957-5.168z" fill="#90a4ae" stroke-width="1.5998"/>
    <g transform="matrix(1.5998 0 0 1.5998 23.76 77.45)">
     <g transform="translate(17.526)">
      <path d="m7.3571 0.059085h-7.1797v0.075717c0 2.5052 2.168 4.5347 4.7111 4.5347 2.544 0 4.712-2.0299 4.712-4.5347v-0.075717z" fill="#455a64"/>
      <path d="m1.9722 0.059085v0.075717c0 1.4903 1.2006 2.6978 2.6929 2.6978s2.6925-1.2075 2.6925-2.6978v-0.075717z" fill="#fff"/>
      <path d="m5.4958 0.059085h-1.2619c-0.012269 0-0.022784 0.0061274-0.033738 0.0083157 0.15642 0.032825 0.24318 0.38734 0.20944 0.62324-0.050389 0.36064-0.35798 0.61099-0.71026 0.61711 0.10253 0.47137 0.48723 0.85039 0.99813 0.92217 0.65286 0.092348 1.2562-0.35495 1.3487-1.0066 0.0666-0.47969-0.16431-1.1642-0.55033-1.1642z" fill="#37474f"/>
     </g>
     <path d="m7.5521 0.059085h-7.1792v0.075717c0 2.5052 2.1685 4.5347 4.7111 4.5347 2.544 0 4.7124-2.0299 4.7124-4.5347v-0.075717z" fill="#455a64"/>
     <path d="m2.168 0.059085v0.075717c0 1.4903 1.2014 2.6978 2.6916 2.6978 1.4928 0 2.6929-1.2075 2.6929-2.6978v-0.075717z" fill="#fff"/>
     <path d="m5.6917 0.059085h-1.2632c-0.010954 0-0.022784 0.0061274-0.032862 0.0083157 0.15598 0.032825 0.2423 0.38734 0.20944 0.62324-0.050827 0.36064-0.35666 0.61099-0.71113 0.61711 0.10384 0.47137 0.48855 0.85039 0.99857 0.92217 0.65242 0.092348 1.2571-0.35495 1.3482-1.0066 0.067477-0.47969-0.163-1.1642-0.54901-1.1642z" fill="#37474f"/>
    </g>
    <path d="m25.514-0.27041-4.2024 7.6979c-1.4734 2.7419-14.454 27.038-14.454 35.816v0.51579l5.9426 15.814c-0.80003 7.2576-2.2035 21.643-1.7807 28.209h5.7312c-0.35468-3.7861 0.6477-17.007 1.9025-28.25l0.0761-0.67644-1.0755-2.8918c3.6941-3.8685 6.2852-9.1932 8.0734-14.261l0.17418 1.2345 5.8682 9.6292 2.2915-0.98254c0.05748-0.02451 5.9353-2.5231 11.643-2.5231 5.6716 0 11.646 2.5003 11.702 2.5248l2.2898 0.97577 5.8597-9.6258 0.22999-1.6082c1.7693 5.1177 4.3583 10.536 8.07 14.491l-1.1263 3.0339 0.0761 0.67814c1.2586 11.286 2.2652 24.564 1.916 28.252h5.6771c0.40588-6.5671-1.0496-20.952-1.8484-28.208l5.8377-15.817v-0.5141c0-8.7782-12.876-33.074-14.347-35.816l-4.1179-7.6979-5.8969 41.229-2.7227 4.4781c-2.6279-0.88154-7.0997-2.1105-11.603-2.1105-4.4981 0-8.9403 1.2259-11.557 2.1088l-2.7227-4.4764-2.0699-14.452c0.0029-0.0238 0.0068-0.05631 0.0068-0.07103l-0.01691-0.0034zm-3.1658 18.391 1.2058 8.4065c-0.45984 3.1431-2.5613 15.469-8.1985 23.239l-2.5975-6.9894c0.32525-4.5533 5.0669-15.462 9.5903-24.656zm46.763 0c4.5227 9.1934 9.2667 20.103 9.592 24.656l-2.5367 6.8236c-6.0908-8.5535-8.0009-22.459-8.1664-23.73z" fill="#607d8b" stroke-width="1.5998"/>
   </g>
  </g>
 </g>
</svg>
