<svg version="1.1" viewBox="0 0 24 24" xmlns="http://www.w3.org/2000/svg"><path d="M17.68 7.22 V 8.62 C 17.68 9.3 17.13 9.86 16.43 9.86 C 15.74 9.86 15.18 9.3 15.18 8.62 V 7.22 A 1.25 1.25 0 0 1 16.43 5.97 C 17.13 5.97 17.68 6.53 17.68 7.22 M 13.25 8.36 V 15.63 C 13.25 16.32 12.69 16.88 12 16.88 C 11.31 16.88 10.75 16.32 10.75 15.63 V 8.36 C 10.75 7.68 11.31 7.11 12 7.11 C 12.69 7.11 13.25 7.68 13.25 8.36 M 22 11.3 V 12.7 C 22 13.38 21.44 13.94 20.75 13.94 C 20.06 13.94 19.5 13.38 19.5 12.7 V 11.3 C 19.5 10.61 20.06 10.06 20.75 10.06 C 21.44 10.06 22 10.61 22 11.3 M 4.5 11.3 V 12.7 C 4.5 13.38 3.94 13.94 3.25 13.94 C 2.55 13.94 2 13.38 2 12.7 V 11.3 C 2 10.61 2.55 10.06 3.25 10.06 C 3.94 10.06 4.5 10.61 4.5 11.3 M 8.82 15.38 V 16.77 C 8.82 17.45 8.26 18 7.57 18 C 6.88 18 6.32 17.45 6.32 16.77 V 15.38 C 6.32 14.68 6.88 14.13 7.57 14.13 A 1.25 1.25 0 0 1 8.82 15.38 M 13.25 19.36 V 20.75 A 1.25 1.25 0 0 1 12 22 A 1.25 1.25 0 0 1 10.75 20.75 V 19.36 A 1.25 1.25 0 0 1 12 18.11 A 1.25 1.25 0 0 1 13.25 19.36 M 13.25 3.25 V 4.64 A 1.25 1.25 0 0 1 12 5.89 A 1.25 1.25 0 0 1 10.75 4.64 V 3.25 C 10.75 2.55 11.31 2 12 2 A 1.25 1.25 0 0 1 13.25 3.25 M 17.68 12.34 V 16.77 C 17.68 17.46 17.13 18 16.43 18 C 15.74 18 15.18 17.46 15.18 16.77 V 12.34 C 15.18 11.64 15.74 11.09 16.43 11.09 C 17.13 11.09 17.68 11.64 17.68 12.34 M 8.82 7.22 V 11.65 C 8.82 12.35 8.26 12.9 7.57 12.9 A 1.25 1.25 0 0 1 6.32 11.65 V 7.22 A 1.25 1.25 0 0 1 7.57 5.97 A 1.25 1.25 0 0 1 8.82 7.22 Z" fill="#9c27b0" /></svg>