<?xml version="1.0" encoding="UTF-8"?>
<svg clip-rule="evenodd" fill-rule="evenodd" stroke-linejoin="round" stroke-miterlimit="1.414" version="1.1" viewBox="0 0 500 500" xmlns="http://www.w3.org/2000/svg">
 <path d="m249.98 46c-112.67 0-203.98 91.353-203.98 204.02 0 53.209 20.377 101.65 53.74 137.96 24.726-7.4936 49.697-14.465 70.033-19.775 44.666-11.665 113.39-29.452 150.29-51.658-12.161-7.7955-33.029-16.267-82.541-31.932-49.553-15.678-104.51-32.254-100.85-49.371 0 1e-5 0.1324-0.47752 0.55079-1.2773-0.11008 0.17745-0.28314 0.34289-0.38672 0.52148 8.1806-20.906 32.893-75.656 32.893-75.656 17.725-29.087 96.193-49.896 150.93-65.023 12.767-3.5284 28.016-7.8598 44.062-12.508-32.692-22.279-72.2-35.303-114.75-35.303zm181.68 111.15c-36.813 5.9394-152.95 27.021-182.71 33.736-12.109 2.7318-28.745 6.3016-45.57 10.84 23.794 11.702 31.215 17.554 64.1 29.701 32.943 12.169 82.342 39.919 76.84 61.621 0 0-0.23732 0.62798-0.63281 1.5098-4.2198 11.592-17.59 41.406-17.59 41.406-18.634 18.179-103.32 38.341-159.08 49.072-17.787 3.4235-38.089 7.3793-58.674 11.742 36.688 35.408 86.612 57.221 141.63 57.221 112.67 0 204.02-91.314 204.02-203.98 0-33.448-8.0701-65.013-22.338-92.869zm-261.46 55.227c-0.54461 0.21439-1.0779 0.43121-1.6152 0.64844 0.5225-0.21518 1.0755-0.43194 1.6152-0.64844zm-5.75 2.4082c-1.424 0.6202-2.8114 1.2502-4.166 1.8926 1.2905-0.61995 2.7314-1.257 4.166-1.8926zm-5.0976 2.3516c-4.5286 2.1935-8.5956 4.5141-12.092 6.9707 3.0683-2.1324 6.9994-4.474 12.092-6.9707zm-13.928 8.2969c-0.57616 0.44044-1.1784 0.87536-1.7148 1.3242 0.51738-0.4244 1.1194-0.87587 1.7148-1.3242z" fill="#e53935"/>
</svg>
