<svg xmlns="http://www.w3.org/2000/svg" stroke-linejoin="round" stroke-miterlimit="1.414" clip-rule="evenodd" viewBox="0 0 500 500"><path fill="#e53935" d="M249.98 46C137.31 46 46 137.353 46 250.02c0 53.209 20.377 101.65 53.74 137.96 24.726-7.494 49.697-14.465 70.033-19.775 44.666-11.665 113.39-29.452 150.29-51.658-12.161-7.795-33.029-16.267-82.541-31.932-49.553-15.678-104.51-32.254-100.85-49.371 0 0 .132-.478.55-1.277-.11.177-.282.343-.386.521 8.18-20.906 32.893-75.656 32.893-75.656 17.725-29.087 96.193-49.896 150.93-65.023 12.767-3.528 28.016-7.86 44.062-12.508-32.692-22.279-72.2-35.303-114.75-35.303zm181.68 111.15c-36.813 5.94-152.95 27.021-182.71 33.736-12.109 2.732-28.745 6.302-45.57 10.84 23.794 11.702 31.215 17.554 64.1 29.701 32.943 12.169 82.342 39.919 76.84 61.621 0 0-.237.628-.633 1.51-4.22 11.592-17.59 41.406-17.59 41.406-18.634 18.179-103.32 38.34-159.08 49.072-17.787 3.423-38.089 7.38-58.674 11.742 36.688 35.408 86.612 57.22 141.63 57.22 112.67 0 204.02-91.313 204.02-203.98 0-33.447-8.07-65.012-22.338-92.868zM170.2 212.377c-.545.214-1.078.431-1.615.648.522-.215 1.075-.432 1.615-.648zm-5.75 2.408c-1.424.62-2.811 1.25-4.166 1.893 1.29-.62 2.731-1.257 4.166-1.893zm-5.098 2.352c-4.528 2.193-8.595 4.514-12.092 6.97 3.069-2.132 7-4.474 12.092-6.97zm-13.928 8.297c-.576.44-1.178.875-1.714 1.324.517-.425 1.119-.876 1.714-1.324z"/></svg>