<!DOCTYPE svg PUBLIC "-//W3C//DTD SVG 20010904//EN" "http://www.w3.org/TR/2001/REC-SVG-20010904/DTD/svg10.dtd">
<svg version="1.0" xmlns="http://www.w3.org/2000/svg" width="500px" height="475px" viewBox="0 0 5000 4750" preserveAspectRatio="xMidYMid meet">
<g id="layer101" fill="#29006a" stroke="none">
 <path d="M965 4708 c5 -31 205 -1631 205 -1642 0 -3 -261 -284 -580 -623 -318 -340 -576 -621 -572 -624 4 -3 376 -76 826 -163 451 -86 824 -160 830 -165 7 -6 194 -341 416 -745 223 -404 408 -735 412 -736 6 0 19 31 24 59 1 7 12 22 23 32 12 11 21 23 22 27 3 30 10 48 22 57 16 11 51 75 41 75 -3 0 6 14 20 31 14 17 26 34 27 37 3 31 10 47 28 63 12 11 21 23 22 27 3 30 10 48 22 57 16 11 51 75 41 75 -3 0 6 14 20 31 14 17 26 34 27 37 3 31 10 47 28 63 12 11 21 23 22 27 3 30 10 47 28 63 12 11 21 23 22 27 3 30 10 48 22 57 17 12 37 49 42 77 3 12 14 29 25 40 11 10 20 22 21 26 3 30 10 47 28 63 12 11 21 23 22 27 3 30 10 48 22 57 16 11 51 75 41 75 -3 0 6 14 20 31 14 17 26 34 27 37 3 31 10 47 28 63 12 11 21 23 22 27 3 29 10 46 23 60 9 10 24 27 34 39 15 21 99 38 837 179 451 86 823 160 827 163 4 4 -254 284 -572 624 -319 340 -580 621 -580 625 0 4 47 380 105 836 57 457 103 831 101 833 -2 2 -345 -156 -762 -352 -417 -195 -765 -355 -774 -355 -8 0 -356 160 -773 355 -416 195 -760 355 -763 355 -3 0 -2 -15 1 -32z"/>
 </g>
<g id="layer102" fill="#4f2867" stroke="none">
 <path d="M962 4713 c7 -29 208 -1621 208 -1647 0 -3 -261 -284 -580 -623 -318 -340 -576 -621 -572 -624 4 -3 376 -76 826 -163 451 -86 824 -160 830 -165 7 -6 194 -341 416 -745 223 -404 408 -735 412 -736 6 0 19 31 24 59 1 7 12 22 23 32 12 11 21 23 22 27 3 30 10 48 22 57 16 11 51 75 41 75 -3 0 6 14 20 31 14 17 26 34 27 37 3 31 10 47 28 63 12 11 21 23 22 27 3 30 10 48 22 57 16 11 51 75 41 75 -3 0 6 14 20 31 14 17 26 34 27 37 3 31 10 47 28 63 12 11 21 23 22 27 3 30 10 47 28 63 12 11 21 23 22 27 3 30 10 48 22 57 17 12 37 49 42 77 3 12 14 29 25 40 11 10 20 22 21 26 3 30 10 47 28 63 12 11 21 23 22 27 3 30 10 48 22 57 16 11 51 75 41 75 -3 0 6 14 20 31 14 17 26 34 27 37 3 31 10 47 28 63 12 11 21 23 22 27 3 29 10 46 23 60 9 10 24 27 34 39 15 21 99 38 837 179 451 86 823 160 827 163 4 4 -254 284 -572 624 -319 340 -580 621 -580 625 0 11 200 1596 204 1624 4 21 2 26 -9 22 -8 -4 -13 -10 -10 -14 3 -5 -4 -15 -15 -23 -11 -7 -18 -16 -15 -19 3 -3 -8 -19 -24 -37 -16 -17 -26 -31 -23 -31 4 -1 -3 -9 -15 -19 -12 -10 -20 -21 -17 -23 2 -3 -9 -19 -25 -37 -16 -17 -26 -31 -23 -31 4 -1 -4 -10 -17 -20 -13 -11 -19 -20 -15 -20 5 -1 -1 -9 -13 -19 -12 -10 -20 -21 -17 -23 2 -3 -9 -19 -25 -37 -16 -17 -26 -31 -23 -31 4 -1 -3 -9 -15 -19 -12 -10 -20 -21 -17 -23 2 -3 -9 -19 -25 -37 -16 -17 -26 -31 -23 -31 4 -1 -3 -9 -15 -19 -12 -10 -20 -21 -17 -23 2 -3 -9 -19 -25 -37 -16 -17 -26 -31 -23 -31 4 -1 -3 -9 -15 -19 -12 -10 -20 -21 -17 -23 2 -3 -9 -19 -25 -37 -16 -17 -26 -31 -23 -31 4 -1 -4 -10 -17 -20 -13 -11 -19 -20 -15 -20 5 -1 -1 -9 -13 -19 -12 -10 -20 -21 -17 -23 2 -3 -9 -19 -25 -37 -16 -17 -26 -31 -23 -31 4 -1 -3 -9 -15 -19 -12 -10 -20 -21 -17 -23 2 -3 -9 -19 -25 -37 -16 -17 -26 -31 -23 -31 4 -1 -3 -9 -15 -19 -12 -10 -20 -21 -17 -23 2 -3 -9 -19 -25 -37 -16 -17 -26 -31 -23 -31 4 -1 -2 -8 -14 -18 -11 -9 -20 -20 -20 -23 1 -12 -65 -99 -75 -99 -6 0 -8 -4 -4 -9 3 -5 -4 -16 -15 -24 -11 -7 -18 -16 -15 -19 3 -3 -8 -19 -24 -37 -16 -17 -26 -31 -23 -31 4 -1 -3 -9 -15 -19 -12 -10 -20 -21 -17 -23 2 -3 -9 -19 -25 -37 -16 -17 -26 -31 -23 -31 4 -1 -3 -9 -15 -19 -12 -10 -20 -21 -17 -23 2 -3 -9 -19 -25 -37 -16 -17 -26 -31 -23 -31 4 -1 -4 -10 -17 -20 -13 -11 -19 -20 -15 -20 5 -1 -1 -9 -13 -19 -12 -10 -20 -21 -17 -23 2 -3 -9 -19 -25 -37 -16 -17 -26 -31 -23 -31 4 -1 -3 -9 -15 -19 -12 -10 -20 -21 -17 -23 2 -3 -9 -19 -25 -37 -16 -17 -26 -31 -23 -31 4 -1 -3 -9 -15 -19 -12 -10 -20 -21 -17 -23 2 -3 -9 -19 -25 -37 -16 -17 -26 -31 -23 -31 4 -1 -3 -9 -15 -19 -12 -10 -20 -21 -17 -23 2 -3 -10 -20 -28 -39 -18 -19 -32 -38 -33 -44 0 -5 -8 -11 -18 -13 -16 -3 -17 35 -17 687 0 546 3 691 13 691 6 1 -4 7 -23 14 -37 14 -1478 690 -1521 713 -4 2 -2 -13 3 -34z"/>
 </g>
<g id="layer103" fill="#981039" stroke="none">
 <path d="M966 4732 c-2 -4 43 -376 100 -827 57 -451 103 -826 104 -832 0 -7 -261 -291 -580 -630 -318 -340 -576 -621 -572 -624 4 -3 376 -76 827 -163 656 -125 823 -160 835 -174 9 -11 197 -348 420 -751 l404 -733 27 54 c41 79 67 127 100 183 16 28 40 73 55 100 14 28 38 73 54 100 16 28 39 68 51 90 12 22 36 67 55 100 18 33 42 78 54 100 12 22 34 63 50 90 16 28 39 70 51 95 12 25 25 47 30 50 4 3 17 26 29 50 12 25 34 68 50 95 16 28 40 70 53 95 14 25 38 70 55 100 17 30 37 66 43 80 32 64 73 119 93 123 11 3 381 74 821 157 440 84 803 156 807 159 4 4 -254 284 -572 624 -319 340 -580 623 -580 630 1 7 47 379 104 827 57 448 103 816 102 817 0 0 -345 -471 -765 -1047 -421 -577 -769 -1046 -773 -1044 -4 3 -8 319 -8 703 l0 697 -37 18 c-59 28 -1329 624 -1410 662 -40 18 -74 30 -77 26z"/>
 </g>
<g id="layer104" fill="#ae536b" stroke="none">
 <path d="M966 4732 c-2 -4 43 -376 100 -827 57 -451 103 -826 104 -832 0 -7 -261 -291 -580 -630 -318 -340 -576 -621 -572 -624 4 -3 376 -76 826 -163 451 -86 824 -160 830 -165 6 -6 191 -336 411 -734 l400 -724 3 1289 c2 1206 3 1289 19 1286 13 -2 365 -478 808 -1091 13 -18 48 -12 837 138 452 87 826 161 830 164 4 4 -254 284 -572 624 -319 340 -580 623 -580 630 1 7 47 379 104 827 57 448 103 816 102 817 0 0 -345 -471 -765 -1047 -421 -577 -769 -1046 -773 -1044 -4 3 -8 319 -8 703 l0 697 -37 18 c-59 28 -1329 624 -1410 662 -40 18 -74 30 -77 26z"/>
 <path d="M3880 4680 c-19 -11 -30 -19 -25 -19 6 0 26 8 45 19 19 11 31 19 25 19 -5 0 -26 -8 -45 -19z"/>
 <path d="M3720 4605 c-25 -13 -40 -24 -35 -24 6 0 30 11 55 24 25 13 41 24 35 24 -5 0 -30 -11 -55 -24z"/>
 <path d="M3550 4525 c-14 -8 -20 -14 -15 -14 6 0 21 6 35 14 14 8 21 14 15 14 -5 0 -21 -6 -35 -14z"/>
 <path d="M3400 4455 c-25 -13 -40 -24 -35 -24 6 0 30 11 55 24 25 13 41 24 35 24 -5 0 -30 -11 -55 -24z"/>
 <path d="M3230 4375 c-14 -8 -20 -14 -15 -14 6 0 21 6 35 14 14 8 21 14 15 14 -5 0 -21 -6 -35 -14z"/>
 <path d="M3090 4310 c-19 -11 -30 -19 -25 -19 6 0 26 8 45 19 19 11 31 19 25 19 -5 0 -26 -8 -45 -19z"/>
 <path d="M2910 4225 c-14 -8 -20 -14 -15 -14 6 0 21 6 35 14 14 8 21 14 15 14 -5 0 -21 -6 -35 -14z"/>
 <path d="M2760 4155 c-14 -8 -20 -14 -15 -14 6 0 21 6 35 14 14 8 21 14 15 14 -5 0 -21 -6 -35 -14z"/>
 <path d="M2610 4085 c-25 -13 -40 -24 -35 -24 6 0 30 11 55 24 25 13 41 24 35 24 -5 0 -30 -11 -55 -24z"/>
 </g>
<g id="layer105" fill="#e4305a" stroke="none">
 <path d="M966 4732 c-2 -4 43 -376 100 -827 57 -451 103 -826 104 -832 0 -7 -261 -291 -580 -630 -318 -340 -576 -621 -572 -624 4 -3 376 -76 826 -163 451 -86 824 -160 830 -165 6 -6 191 -336 411 -734 220 -399 401 -724 403 -723 4 4 2 3989 -2 3993 -4 4 -1313 619 -1453 683 -35 16 -64 26 -67 22z"/>
 <path d="M3280 3683 c-415 -569 -759 -1043 -763 -1052 -7 -14 76 -135 393 -572 221 -304 405 -559 407 -566 3 -7 9 -10 14 -8 7 5 263 56 499 100 41 8 289 55 550 105 261 50 504 97 539 104 36 6 66 16 68 21 1 6 -258 288 -577 628 -319 340 -580 623 -580 630 1 7 47 379 104 827 57 448 103 816 102 817 0 0 -341 -465 -756 -1034z"/>
 </g>
<g id="layer106" fill="#838383" stroke="none">
 <path d="M966 4732 c-2 -4 43 -376 100 -827 57 -451 103 -826 104 -832 0 -7 -261 -291 -580 -630 -318 -340 -576 -621 -572 -624 4 -3 376 -76 826 -163 451 -86 824 -160 830 -165 6 -6 191 -336 411 -734 l400 -724 3 1293 c1 773 6 1294 11 1294 8 0 2084 -671 2399 -775 56 -18 102 -31 102 -27 0 4 -264 288 -586 631 -583 622 -585 624 -580 660 3 20 49 378 101 796 52 418 97 772 100 788 2 15 0 27 -6 27 -6 0 -8 -4 -4 -9 3 -5 -5 -17 -17 -25 -12 -9 -18 -16 -13 -16 6 -1 0 -9 -12 -19 -12 -10 -19 -21 -16 -25 3 -3 -2 -8 -11 -12 -9 -3 -14 -10 -11 -14 3 -5 -5 -16 -17 -24 -12 -9 -18 -16 -13 -16 6 -1 0 -9 -12 -19 -12 -10 -19 -21 -16 -25 3 -3 -2 -8 -11 -12 -9 -3 -14 -10 -11 -14 3 -5 -5 -16 -17 -24 -12 -9 -18 -16 -13 -16 6 -1 -1 -10 -14 -20 -13 -11 -19 -20 -15 -20 5 -1 -1 -9 -13 -19 -12 -10 -19 -21 -16 -25 3 -3 -2 -8 -11 -12 -9 -3 -14 -10 -11 -14 3 -5 -5 -16 -17 -24 -12 -9 -18 -16 -13 -16 6 -1 0 -9 -12 -19 -12 -10 -19 -21 -16 -25 3 -3 -2 -8 -11 -12 -9 -3 -14 -10 -11 -14 3 -5 -5 -16 -17 -24 -12 -9 -18 -16 -13 -16 6 -1 0 -9 -12 -19 -12 -10 -19 -21 -16 -25 3 -3 -2 -8 -11 -12 -9 -3 -14 -10 -11 -14 3 -5 -5 -16 -17 -24 -12 -9 -18 -16 -13 -16 6 -1 0 -9 -12 -19 -12 -10 -19 -21 -16 -25 3 -3 -2 -8 -11 -12 -9 -3 -14 -10 -11 -14 3 -5 -5 -16 -17 -24 -12 -9 -18 -16 -13 -16 6 -1 -1 -10 -14 -20 -13 -11 -19 -20 -15 -20 5 -1 -1 -9 -13 -19 -12 -10 -19 -21 -16 -25 3 -3 -2 -8 -11 -12 -9 -3 -14 -10 -11 -14 3 -5 -5 -16 -17 -24 -12 -9 -18 -16 -13 -16 6 -1 0 -9 -12 -19 -12 -10 -19 -21 -16 -25 3 -3 -2 -8 -11 -12 -9 -3 -14 -10 -11 -14 3 -5 -5 -16 -17 -24 -12 -9 -18 -16 -13 -16 6 -1 0 -9 -12 -19 -12 -10 -19 -21 -16 -25 3 -3 -2 -8 -11 -12 -9 -3 -14 -10 -11 -14 3 -5 -5 -16 -17 -24 -12 -9 -18 -16 -13 -16 6 -1 -1 -10 -14 -20 -13 -11 -19 -20 -15 -20 5 -1 -1 -9 -13 -19 -12 -10 -19 -21 -16 -25 3 -3 -2 -8 -11 -12 -9 -3 -14 -10 -11 -14 3 -5 -5 -16 -17 -24 -12 -9 -18 -16 -13 -16 6 -1 0 -9 -12 -19 -12 -10 -19 -21 -16 -25 3 -3 -2 -8 -11 -12 -9 -3 -14 -10 -11 -14 3 -5 -5 -16 -17 -24 -12 -9 -18 -16 -13 -16 6 -1 0 -9 -12 -19 -12 -10 -19 -21 -16 -25 3 -3 -2 -8 -11 -12 -9 -3 -14 -10 -11 -14 3 -5 -5 -16 -17 -24 -12 -9 -18 -16 -13 -16 6 -1 0 -9 -12 -19 -12 -10 -19 -21 -16 -25 3 -3 -2 -8 -11 -12 -9 -3 -14 -10 -11 -14 3 -5 -5 -16 -17 -24 -12 -9 -18 -16 -13 -16 6 -1 -1 -10 -14 -20 -13 -11 -19 -20 -15 -20 5 -1 -1 -9 -13 -19 -12 -10 -19 -21 -16 -25 3 -3 -2 -8 -11 -12 -9 -3 -14 -10 -11 -14 3 -5 -5 -16 -17 -24 -12 -9 -18 -16 -13 -16 6 -1 0 -9 -12 -19 -12 -10 -19 -21 -16 -25 3 -3 -2 -8 -11 -12 -9 -3 -14 -10 -11 -14 3 -5 -5 -16 -17 -24 -12 -9 -18 -16 -13 -16 6 -1 0 -9 -12 -19 -12 -10 -19 -21 -16 -25 3 -3 -2 -8 -11 -12 -9 -3 -14 -10 -11 -14 3 -5 -5 -16 -17 -24 -12 -9 -18 -16 -13 -16 6 -1 0 -9 -12 -19 -12 -10 -20 -21 -17 -23 2 -3 -8 -19 -24 -36 -16 -17 -27 -34 -24 -37 3 -3 -2 -5 -11 -5 -16 0 -17 53 -17 698 l0 698 -37 18 c-59 28 -1329 624 -1410 662 -40 18 -74 30 -77 26z"/>
 </g>
<g id="layer107" fill="#ffba00" stroke="none">
 <path d="M950 4724 c0 -8 4 -14 9 -14 5 0 7 -18 4 -40 -4 -24 -2 -40 5 -40 6 0 8 -16 5 -40 -4 -24 -2 -40 5 -40 6 0 8 -16 5 -40 -4 -24 -2 -40 5 -40 6 0 8 -16 5 -40 -4 -24 -2 -40 5 -40 6 0 8 -16 5 -40 -4 -24 -2 -40 5 -40 6 0 8 -16 5 -40 -4 -24 -2 -40 5 -40 6 0 8 -16 5 -40 -4 -24 -2 -40 5 -40 6 0 8 -16 5 -40 -4 -24 -2 -40 5 -40 6 0 8 -16 5 -40 -4 -24 -2 -40 5 -40 6 0 8 -16 5 -40 -4 -24 -2 -40 5 -40 6 0 8 -16 5 -40 -4 -24 -2 -40 5 -40 6 0 8 -16 5 -40 -4 -24 -2 -40 5 -40 6 0 8 -16 5 -40 -4 -24 -2 -40 5 -40 6 0 8 -16 5 -40 -4 -24 -2 -40 5 -40 6 0 8 -16 5 -40 -4 -24 -2 -40 5 -40 6 0 8 -16 5 -40 -4 -24 -2 -40 5 -40 6 0 8 -16 5 -40 -3 -22 -2 -40 3 -40 5 0 8 -18 6 -40 -2 -22 0 -40 5 -40 5 0 7 -18 5 -40 -2 -22 0 -40 5 -40 5 0 7 -18 5 -40 -3 -23 0 -40 6 -40 41 0 -46 -101 -539 -627 -293 -312 -553 -590 -578 -616 -38 -40 -43 -49 -31 -58 8 -5 25 -8 37 -6 12 2 24 0 25 -5 2 -5 27 -10 56 -11 28 -1 52 -6 52 -11 0 -4 11 -6 25 -4 14 3 25 1 25 -5 0 -5 11 -7 25 -5 14 3 25 1 25 -5 0 -5 11 -7 25 -5 14 3 25 1 25 -5 0 -5 13 -7 30 -5 16 3 30 0 30 -5 0 -5 11 -7 25 -5 14 3 25 1 25 -5 0 -5 11 -7 25 -5 14 3 25 1 25 -5 0 -5 11 -7 25 -5 14 3 25 1 25 -5 0 -5 11 -7 25 -5 14 3 25 1 25 -5 0 -5 14 -7 30 -5 17 3 30 0 30 -5 0 -5 11 -7 25 -5 14 3 25 1 25 -5 0 -5 11 -7 25 -5 14 3 25 1 25 -5 0 -5 11 -7 25 -5 14 3 25 1 25 -5 0 -5 11 -7 25 -5 14 3 25 1 25 -5 0 -5 14 -7 30 -5 16 3 30 0 30 -5 0 -5 11 -7 25 -5 14 3 25 1 25 -5 0 -5 11 -7 25 -5 14 3 25 1 25 -5 0 -5 11 -7 25 -5 13 3 26 1 27 -4 2 -5 27 -10 56 -11 28 -1 52 -6 52 -11 0 -4 11 -6 25 -4 14 3 25 1 25 -5 0 -5 11 -7 25 -5 14 3 25 1 25 -5 0 -5 11 -7 25 -5 14 3 25 1 25 -5 0 -5 14 -7 30 -5 17 3 30 0 30 -5 0 -5 11 -7 25 -5 14 3 25 1 25 -5 0 -5 11 -7 25 -5 14 3 25 1 25 -5 0 -5 11 -7 25 -5 14 3 25 1 25 -5 0 -5 11 -7 25 -5 14 3 25 1 25 -5 0 -5 14 -7 30 -5 17 3 30 1 30 -3 0 -3 8 -9 18 -11 10 -3 168 -279 421 -739 222 -404 409 -738 414 -744 6 -6 7 714 3 2004 -3 1108 -8 2016 -10 2018 -9 9 -1500 705 -1517 708 -12 2 -19 -2 -19 -11z"/>
 <path d="M3282 3683 c-412 -566 -749 -1029 -748 -1030 2 -2 1286 417 1294 422 3 2 209 1635 206 1635 -1 0 -339 -462 -752 -1027z"/>
 </g>
<g id="layer108" fill="#8e58e8" stroke="none">
 <path d="M970 4732 c0 -43 211 -1667 217 -1672 8 -6 1294 -420 1307 -420 3 0 6 312 6 693 l0 692 -737 345 c-820 384 -793 372 -793 362z"/>
 <path d="M3282 3683 c-412 -566 -749 -1029 -748 -1030 2 -2 1286 417 1294 422 3 2 209 1635 206 1635 -1 0 -339 -462 -752 -1027z"/>
 <path d="M1262 2207 l-1202 -391 792 -153 c436 -84 801 -152 810 -150 9 1 84 94 166 207 81 113 259 357 395 543 135 185 245 337 244 336 -1 0 -543 -177 -1205 -392z"/>
 </g>
<g id="layer109" fill="#c69c9c" stroke="none">
 <path d="M976 4679 c3 -19 49 -389 104 -823 54 -434 102 -792 107 -796 4 -4 280 -94 613 -200 333 -106 622 -199 643 -206 l38 -13 -21 29 c-12 17 -18 30 -13 30 4 0 -1 8 -13 18 -32 26 -84 98 -77 106 3 3 2 6 -4 6 -10 0 -78 89 -78 102 0 4 -7 13 -16 20 -23 19 -92 118 -82 118 4 0 -1 8 -13 18 -28 23 -79 92 -68 92 5 0 0 8 -12 18 -32 26 -84 98 -77 106 3 3 2 6 -4 6 -14 0 -191 240 -176 240 4 0 -1 8 -13 18 -32 26 -84 98 -77 106 3 3 2 6 -4 6 -10 0 -78 89 -78 103 0 4 -5 11 -11 15 -17 11 -86 103 -88 119 -1 7 -9 19 -18 25 -23 20 -72 88 -62 88 5 0 0 8 -12 18 -32 26 -84 98 -77 106 3 3 2 6 -4 6 -10 0 -78 89 -78 102 0 4 -7 13 -16 20 -23 19 -92 118 -82 118 4 0 -1 8 -13 18 -28 23 -79 92 -68 92 5 0 0 8 -12 18 -32 26 -84 98 -77 106 3 3 1 6 -5 6 -6 0 -23 17 -36 37 l-25 37 5 -35z"/>
 <path d="M4016 4695 c-11 -8 -16 -15 -10 -15 5 -1 -1 -9 -13 -19 -12 -10 -20 -21 -17 -23 2 -3 -9 -19 -25 -37 -16 -17 -26 -31 -23 -31 4 -1 -3 -9 -15 -19 -12 -10 -20 -21 -17 -23 2 -3 -9 -19 -25 -37 -16 -17 -26 -31 -23 -31 4 -1 -4 -10 -17 -20 -13 -11 -19 -20 -15 -20 5 -1 -1 -9 -13 -19 -12 -10 -20 -21 -17 -23 2 -3 -9 -19 -25 -37 -16 -17 -26 -31 -23 -31 4 -1 -3 -9 -15 -19 -12 -10 -20 -21 -17 -23 2 -3 -9 -19 -25 -37 -16 -17 -26 -31 -23 -31 4 -1 -3 -9 -15 -19 -12 -10 -20 -21 -17 -23 2 -3 -9 -19 -25 -37 -16 -17 -26 -31 -23 -31 4 -1 -3 -9 -15 -19 -12 -10 -20 -21 -17 -23 2 -3 -9 -19 -25 -37 -16 -17 -26 -31 -23 -31 4 -1 -4 -10 -17 -20 -13 -11 -19 -20 -15 -20 5 -1 -1 -9 -13 -19 -12 -10 -20 -21 -17 -23 2 -3 -9 -19 -25 -37 -16 -17 -26 -31 -23 -31 4 -1 -3 -9 -15 -19 -12 -10 -20 -21 -17 -23 2 -3 -9 -19 -25 -37 -16 -17 -26 -31 -23 -31 4 -1 -3 -9 -15 -19 -12 -10 -20 -21 -17 -23 2 -3 -9 -19 -25 -37 -16 -17 -26 -31 -23 -31 4 -1 -4 -10 -17 -20 -13 -11 -19 -20 -15 -20 5 -1 -1 -9 -13 -19 -12 -10 -20 -21 -17 -23 2 -3 -9 -19 -25 -37 -16 -17 -26 -31 -23 -31 4 -1 -3 -9 -15 -19 -12 -10 -20 -21 -17 -23 2 -3 -9 -19 -25 -37 -16 -17 -26 -31 -23 -31 4 -1 -3 -9 -15 -19 -12 -10 -20 -21 -17 -23 2 -3 -9 -19 -25 -37 -16 -17 -26 -31 -23 -31 4 -1 -3 -9 -15 -19 -12 -10 -20 -21 -17 -23 2 -3 -9 -19 -25 -37 -16 -17 -26 -31 -23 -31 4 -1 -4 -10 -17 -20 -13 -11 -19 -20 -15 -20 5 -1 -1 -9 -13 -19 -12 -10 -20 -21 -17 -23 2 -3 -9 -19 -25 -37 -16 -17 -26 -31 -23 -31 4 -1 -3 -9 -15 -19 -12 -10 -20 -21 -17 -23 2 -3 -9 -19 -25 -37 -16 -17 -26 -31 -23 -31 4 -1 -3 -9 -15 -19 -12 -10 -20 -21 -17 -23 2 -3 -9 -19 -25 -37 -16 -17 -26 -31 -23 -31 4 -1 -4 -10 -17 -20 -13 -11 -19 -20 -15 -20 5 -1 -2 -10 -15 -20 -13 -11 -20 -20 -16 -20 4 0 1 -8 -6 -17 -12 -14 -12 -16 1 -11 8 3 301 99 650 213 349 115 636 209 638 210 2 2 210 1636 208 1635 -1 0 -10 -7 -20 -15z"/>
 <path d="M1262 2207 l-1202 -391 792 -153 c436 -84 801 -152 810 -150 9 1 84 94 166 207 81 113 259 357 395 543 135 185 245 337 244 336 -1 0 -543 -177 -1205 -392z"/>
 </g>
<g id="layer110" fill="#d7b184" stroke="none">
 <path d="M964 4737 c-4 -7 -4 -9 1 -5 4 4 16 3 27 -3 11 -6 22 -9 24 -6 2 2 -7 9 -21 15 -18 9 -26 8 -31 -1z"/>
 <path d="M975 4683 c3 -21 50 -393 105 -827 54 -434 102 -792 107 -796 4 -4 287 -96 628 -205 341 -108 636 -204 655 -211 32 -13 33 -13 15 1 -11 9 -20 19 -20 23 0 4 -13 19 -28 35 -16 15 -25 31 -22 37 3 5 -4 14 -15 20 -11 6 -19 14 -18 18 2 4 -10 19 -25 35 -16 15 -25 31 -22 37 3 5 -4 14 -15 20 -11 6 -19 14 -18 18 1 4 -12 22 -30 39 -19 18 -31 37 -28 42 3 5 -1 12 -10 15 -8 3 -13 10 -9 15 3 6 -4 15 -15 21 -11 6 -19 14 -18 18 2 4 -10 19 -25 35 -16 15 -25 31 -22 37 3 5 -4 14 -15 20 -11 6 -19 14 -18 18 2 4 -10 19 -25 35 -16 15 -25 31 -22 37 3 5 -4 14 -15 20 -11 6 -19 14 -18 18 1 4 -12 22 -30 41 -18 18 -30 37 -27 41 3 4 -2 11 -10 14 -8 3 -14 9 -13 13 1 4 -12 23 -30 42 -18 18 -29 37 -26 42 3 5 -2 12 -10 15 -9 3 -14 10 -11 15 3 4 -4 13 -15 19 -11 6 -19 14 -18 18 2 4 -10 19 -25 35 -16 15 -25 31 -22 37 3 5 -4 14 -15 20 -11 6 -19 14 -18 18 2 4 -10 19 -25 35 -16 15 -25 31 -22 37 3 5 -4 14 -15 20 -11 6 -19 14 -18 18 1 4 -12 22 -30 39 -19 18 -31 37 -28 42 3 5 -1 12 -10 15 -8 3 -12 10 -9 16 3 6 -1 13 -9 16 -18 7 -67 70 -70 90 -1 9 -9 20 -17 24 -8 5 -14 13 -14 17 0 4 -13 20 -28 36 -16 15 -25 31 -22 37 3 5 -4 14 -15 20 -11 6 -19 14 -18 18 2 4 -10 19 -25 35 -16 15 -25 31 -22 37 3 5 -4 14 -15 20 -11 6 -19 14 -18 18 1 4 -12 22 -30 39 -19 18 -31 37 -28 42 3 5 -1 12 -10 15 -8 3 -13 10 -9 15 3 6 -4 15 -15 21 -11 6 -19 14 -18 18 2 4 -10 19 -25 35 -16 15 -25 31 -22 37 3 5 -4 14 -15 20 -11 6 -19 14 -18 18 2 4 -10 19 -25 35 -16 15 -25 31 -22 37 3 5 -4 14 -15 20 -11 6 -19 14 -18 18 1 4 -12 22 -30 41 -18 18 -30 37 -27 41 3 4 -2 11 -11 14 -8 3 -13 10 -9 15 3 5 1 13 -5 16 -7 4 -9 -7 -5 -32z"/>
 <path d="M3282 3679 c-414 -567 -747 -1029 -740 -1027 7 3 299 99 648 213 349 115 636 209 638 210 2 2 210 1635 207 1635 -1 0 -340 -464 -753 -1031z"/>
 <path d="M1100 4685 c0 -7 61 -37 66 -33 2 3 -12 12 -31 21 -19 9 -35 15 -35 12z"/>
 <path d="M1250 4615 c0 -7 81 -47 86 -43 2 3 -17 14 -41 26 -25 12 -45 20 -45 17z"/>
 <path d="M1420 4535 c0 -7 61 -37 66 -33 2 3 -12 12 -31 21 -19 9 -35 15 -35 12z"/>
 <path d="M1570 4465 c0 -7 81 -47 86 -43 2 3 -17 14 -41 26 -25 12 -45 20 -45 17z"/>
 <path d="M1720 4395 c0 -7 81 -47 86 -43 2 3 -17 14 -41 26 -25 12 -45 20 -45 17z"/>
 <path d="M1890 4315 c0 -7 81 -47 86 -43 2 3 -17 14 -41 26 -25 12 -45 20 -45 17z"/>
 <path d="M2040 4245 c0 -7 81 -47 86 -43 2 3 -17 14 -41 26 -25 12 -45 20 -45 17z"/>
 <path d="M2210 4165 c0 -7 61 -37 66 -33 2 3 -12 12 -31 21 -19 9 -35 15 -35 12z"/>
 <path d="M2360 4095 c0 -7 81 -47 86 -43 2 3 -17 14 -41 26 -25 12 -45 20 -45 17z"/>
 <path d="M1262 2207 l-1202 -391 792 -153 c436 -84 801 -152 810 -150 9 1 84 94 166 207 81 113 259 357 395 543 135 185 245 337 244 336 -1 0 -543 -177 -1205 -392z"/>
 </g>
<g id="layer111" fill="#ffe24f" stroke="none">
 <path d="M964 4695 c3 -22 51 -400 106 -839 55 -440 102 -801 103 -802 5 -6 1311 -423 1314 -420 2 1 -130 184 -292 407 -162 222 -359 492 -437 599 -530 728 -791 1086 -795 1090 -3 3 -3 -13 1 -35z"/>
 <path d="M3282 3679 c-414 -567 -747 -1029 -740 -1027 7 3 299 99 648 213 349 115 636 209 638 210 2 2 210 1635 207 1635 -1 0 -340 -464 -753 -1031z"/>
 <path d="M1248 2212 c-670 -218 -1216 -397 -1215 -399 4 -4 1615 -313 1632 -313 10 0 801 1072 813 1102 2 4 0 8 -5 7 -4 0 -556 -179 -1225 -397z"/>
 </g>
<g id="layer112" fill="#c0c0c0" stroke="none">
 <path d="M3290 3704 c-415 -569 -761 -1043 -768 -1053 -10 -15 65 6 330 93 189 62 485 159 658 216 173 57 318 106 323 110 7 6 220 1661 214 1666 -1 2 -342 -463 -757 -1032z"/>
 </g>

</svg>