<svg xmlns="http://www.w3.org/2000/svg" version="1.0" viewBox="0 0 24 24"><path d="M19.2,10.7c-0.2,0-0.3,0-0.5,0.1L16.3,7c0.6-0.5,1.1-1.3,1.1-2.2c0-1.6-1.3-3-3-3s-3,1.3-3,3c0,0.3,0,0.5,0.1,0.8L7,7.9c-0.5-0.6-1.3-1-2.2-1c-1.6,0-3,1.3-3,3s1.3,3,3,3c0.2,0,0.4,0,0.6-0.1l2.3,4.3c-0.6,0.5-0.9,1.3-0.9,2.1c0,1.6,1.3,3,3,3s3-1.3,3-3c0-0.2,0-0.4-0.1-0.6l4.2-3.1c0.5,0.7,1.4,1.1,2.3,1.1c1.6,0,3-1.3,3-3S20.8,10.7,19.2,10.7z M14.4,3.8c0.6,0,1,0.5,1,1c0,0.6-0.5,1-1,1s-1-0.5-1-1C13.4,4.2,13.8,3.8,14.4,3.8z M4.8,10.9c-0.6,0-1-0.5-1-1c0-0.6,0.5-1,1-1s1,0.5,1,1C5.9,10.5,5.4,10.9,4.8,10.9z M6.8,12.1c0.6-0.5,1-1.3,1-2.2c0-0.3,0-0.5-0.1-0.7l4.5-2.4c0.2,0.2,0.4,0.4,0.7,0.5l-2.8,9c-0.1,0-0.2,0-0.3,0c-0.3,0-0.6,0.1-0.8,0.1L6.8,12.1z M9.8,20.3c-0.6,0-1-0.5-1-1c0-0.6,0.5-1,1-1s1,0.5,1,1C10.8,19.8,10.4,20.3,9.8,20.3z M16.2,13.7c0,0.2,0,0.3,0.1,0.5l-4.2,3.1c-0.2-0.2-0.4-0.4-0.6-0.6l2.9-9c0,0,0.1,0,0.1,0c0.2,0,0.4,0,0.6-0.1l2.3,3.7C16.7,11.9,16.2,12.8,16.2,13.7z M19.2,14.7c-0.6,0-1-0.5-1-1c0-0.6,0.5-1,1-1s1,0.5,1,1C20.2,14.3,19.7,14.7,19.2,14.7z" fill="#e53935"/></svg>
