<?xml version="1.0" encoding="utf-8"?>
<!-- Generator: Adobe Illustrator 22.1.0, SVG Export Plug-In . SVG Version: 6.00 Build 0)  -->
<svg version="1.1" id="Layer_1" xmlns="http://www.w3.org/2000/svg" xmlns:xlink="http://www.w3.org/1999/xlink" x="0px" y="0px"
	 viewBox="0 0 24 24" style="enable-background:new 0 0 24 24;" xml:space="preserve">
<style type="text/css">
	.st0{fill:#FFFFFF;}
</style>
<g>
	<path class="st0" d="M16.8,15.3c0,1.1-1.6,2-2.7,2H9.8c-1.1,0-2.7-0.9-2.7-2v-0.1h9.7V15.3z M16.8,13h-7c-1.1,0-2.7-0.9-2.7-2V11h7
		c1.1,0,2.7,0.9,2.7,2V13z M16.8,8.8H7.2V8.7c0-1.1,1.6-2,2.7-2h4.4c1.1,0,2.7,0.9,2.7,2V8.8z"/>
	<g>
		<g>
			<path class="st0" d="M15.2,2.7c3.3,0,6.1,2.7,6.1,6.1v6.5c0,3.3-2.7,6.1-6.1,6.1H8.8c-3.3,0-6.1-2.7-6.1-6.1V8.8
				c0-3.3,2.7-6.1,6.1-6.1H15.2 M15.2,1.7H8.8c-3.9,0-7.1,3.2-7.1,7.1v6.5c0,3.9,3.2,7.1,7.1,7.1h6.5c3.9,0,7.1-3.2,7.1-7.1V8.8
				C22.3,4.9,19.1,1.7,15.2,1.7L15.2,1.7z"/>
		</g>
	</g>
</g>
</svg>
