<svg xmlns="http://www.w3.org/2000/svg" viewBox="0 0 24 24">
	<style>.st0{fill:#fff}</style>
	<path class="st0" d="M16.8 15.3c0 1.1-1.6 2-2.7 2H9.8c-1.1 0-2.7-.9-2.7-2v-.1h9.7v.1zm0-2.3h-7c-1.1 0-2.7-.9-2.7-2h7c1.1 0 2.7.9 2.7 2zm0-4.2H7.2v-.1c0-1.1 1.6-2 2.7-2h4.4c1.1 0 2.7.9 2.7 2v.1z"/><path class="st0" d="M15.2 2.7c3.3 0 6.1 2.7 6.1 6.1v6.5c0 3.3-2.7 6.1-6.1 6.1H8.8c-3.3 0-6.1-2.7-6.1-6.1V8.8c0-3.3 2.7-6.1 6.1-6.1h6.4m0-1H8.8c-3.9 0-7.1 3.2-7.1 7.1v6.5c0 3.9 3.2 7.1 7.1 7.1h6.5c3.9 0 7.1-3.2 7.1-7.1V8.8c-.1-3.9-3.3-7.1-7.2-7.1z"/>
</svg>