<svg fill="none" version="1.1" viewBox="0 0 64 64" xmlns="http://www.w3.org/2000/svg">
 <g transform="matrix(.83529 0 0 .83529 5.2706 5.2706)" clip-rule="evenodd" fill="#546e7a" fill-rule="evenodd">
  <path d="m32 4.2392c-15.332 0-27.761 12.429-27.761 27.761s12.429 27.761 27.761 27.761 27.761-12.429 27.761-27.761-12.429-27.761-27.761-27.761zm-32 27.761c0-17.673 14.327-32 32-32s32 14.327 32 32-14.327 32-32 32-32-14.327-32-32z"/>
  <path d="m62.144 38.733-39.262 22.668-1.0598-1.8357 39.262-22.668z"/>
  <path d="m42.567 4.8247-39.262 22.668-1.0598-1.8356 39.262-22.668z"/>
  <path d="m50.38 34.783c0.2927 0.5069 0.119 1.1551-0.3879 1.4477l-35.693 20.607c-0.5068 0.2926-1.155 0.119-1.4477-0.3879-0.2926-0.5069-0.1189-1.1551 0.3879-1.4477l35.693-20.607c0.5069-0.2927 1.1551-0.119 1.4477 0.3879z"/>
  <path d="m51.539 7.9396c0.2926 0.5069 0.119 1.1551-0.3879 1.4477l-35.693 20.607c-0.5069 0.2926-1.1551 0.1189-1.4477-0.3879-0.2927-0.5069-0.119-1.1551 0.3879-1.4478l35.693-20.607c0.5069-0.29266 1.155-0.11898 1.4477 0.38791z"/>
  <path d="m22.356 24.63c0.3486-0.4702 1.0123-0.5687 1.4825-0.2201l19.116 14.173c0.4702 0.3486 0.5688 1.0124 0.2202 1.4825-0.3486 0.4702-1.0124 0.5688-1.4826 0.2202l-19.116-14.174c-0.4702-0.3486-0.5687-1.0123-0.2201-1.4825z"/>
  <path d="m29.494 20.509c0.3486-0.4702 1.0123-0.5687 1.4825-0.2201l19.116 14.173c0.4701 0.3486 0.5687 1.0123 0.2201 1.4825s-1.0123 0.5687-1.4825 0.2201l-19.116-14.173c-0.4701-0.3486-0.5687-1.0124-0.2201-1.4826z"/>
  <path d="m14.066 28.46c0.3404-0.4762 1.0023-0.5863 1.4785-0.2459l20.257 14.479c0.4762 0.3403 0.5863 1.0023 0.2459 1.4785-0.3403 0.4761-1.0023 0.5862-1.4785 0.2459l-20.257-14.479c-0.4762-0.3404-0.5863-1.0023-0.246-1.4785z"/>
 </g>
</svg>
