<svg version="1.1" viewBox="0 0 64 64" fill="none" xmlns="http://www.w3.org/2000/svg">
<path fill-rule="evenodd" clip-rule="evenodd" d="M32 4.23919C16.6681 4.23919 4.23919 16.6681 4.23919 32C4.23919 47.3319 16.6681 59.7608 32 59.7608C47.3319 59.7608 59.7608 47.3319 59.7608 32C59.7608 16.6681 47.3319 4.23919 32 4.23919ZM0 32C0 14.3269 14.3269 0 32 0C49.6731 0 64 14.3269 64 32C64 49.6731 49.6731 64 32 64C14.3269 64 0 49.6731 0 32Z" fill="#ffffff"/>
<path fill-rule="evenodd" clip-rule="evenodd" d="M62.1442 38.733L22.8822 61.4009L21.8224 59.5652L61.0844 36.8973L62.1442 38.733Z" fill="#ffffff"/>
<path fill-rule="evenodd" clip-rule="evenodd" d="M42.5674 4.8247L3.3054 27.4926L2.24561 25.657L41.5076 2.98907L42.5674 4.8247Z" fill="#ffffff"/>
<path fill-rule="evenodd" clip-rule="evenodd" d="M50.3799 34.7833C50.6726 35.2902 50.4989 35.9384 49.992 36.231L14.2993 56.8382C13.7925 57.1308 13.1443 56.9572 12.8516 56.4503C12.559 55.9434 12.7327 55.2952 13.2395 55.0026L48.9322 34.3954C49.4391 34.1027 50.0873 34.2764 50.3799 34.7833Z" fill="#ffffff"/>
<path fill-rule="evenodd" clip-rule="evenodd" d="M51.539 7.93962C51.8316 8.44652 51.658 9.09468 51.1511 9.38733L15.4584 29.9945C14.9515 30.2871 14.3033 30.1134 14.0107 29.6066C13.718 29.0997 13.8917 28.4515 14.3986 28.1588L50.0913 7.55171C50.5982 7.25905 51.2463 7.43273 51.539 7.93962Z" fill="#ffffff"/>
<path fill-rule="evenodd" clip-rule="evenodd" d="M22.3564 24.63C22.705 24.1598 23.3687 24.0613 23.8389 24.4099L42.9551 38.5833C43.4253 38.9319 43.5239 39.5957 43.1753 40.0658C42.8267 40.536 42.1629 40.6346 41.6927 40.286L22.5765 26.1125C22.1063 25.7639 22.0078 25.1002 22.3564 24.63Z" fill="#ffffff"/>
<path fill-rule="evenodd" clip-rule="evenodd" d="M29.4943 20.509C29.8429 20.0388 30.5066 19.9403 30.9768 20.2889L50.0929 34.4617C50.563 34.8103 50.6616 35.474 50.313 35.9442C49.9644 36.4144 49.3007 36.5129 48.8305 36.1643L29.7144 21.9916C29.2443 21.643 29.1457 20.9792 29.4943 20.509Z" fill="#ffffff"/>
<path fill-rule="evenodd" clip-rule="evenodd" d="M14.0663 28.4604C14.4067 27.9842 15.0686 27.8741 15.5448 28.2145L35.8019 42.6937C36.2781 43.034 36.3882 43.696 36.0478 44.1722C35.7075 44.6483 35.0455 44.7584 34.5693 44.4181L14.3123 29.9389C13.8361 29.5985 13.726 28.9366 14.0663 28.4604Z" fill="#ffffff"/>
</svg>
