<svg xmlns="http://www.w3.org/2000/svg" viewBox="0 0 32 32"><path fill="#ff4081" d="m24.95 28.948-18-.9a1 1 0 0 1-.95-1V6.906a1 1 0 0 1 .9-.995l18-1.905A1 1 0 0 1 26 5v22.949a1 1 0 0 1-1.05.998Z"/><path fill="#FAFAFA" d="m20 8.52.19-4.242 3.649-.275.16 4.37a.28.28 0 0 1-.276.283.29.29 0 0 1-.188-.063L22.123 7.52l-1.668 1.23a.29.29 0 0 1-.398-.055A.27.27 0 0 1 20 8.52Zm-2.128 6.647c0 .487 3.448.25 3.912-.094 0-3.324-1.87-5.073-5.298-5.073-3.421 0-5.345 1.774-5.345 4.436 0 4.642 6.561 4.735 6.561 7.266a1.022 1.022 0 0 1-1.164 1.13c-1.047 0-1.459-.512-1.413-2.242 0-.375-3.984-.494-4.101 0-.308 4.198 2.426 5.41 5.56 5.41C19.619 26 22 24.45 22 21.658c0-4.973-6.653-4.842-6.653-7.31a1.08 1.08 0 0 1 1.243-1.13c.478 0 1.354.08 1.282 1.949Z"/></svg>