<svg width="24" height="24" version="1.1" viewBox="0 0 24 24" xmlns="http://www.w3.org/2000/svg">
 <g fill="#ef5350" shape-rendering="auto">
  <path d="m11.095 2.4983v1.4033c-3.7735 0.40722-6.7862 3.4199-7.1935 7.1935h-1.4033v1.8099h1.4033c0.40722 3.7735 3.4199 6.7862 7.1935 7.1935v1.4033h1.8099v-1.4033c3.7735-0.40722 6.7862-3.4199 7.1935-7.1935h1.4033v-1.8099h-1.4033c-0.40722-3.7735-3.4199-6.7862-7.1935-7.1935v-1.4033zm0 3.2309v1.2938h1.8099v-1.2938c2.7781 0.38912 4.9768 2.5878 5.3659 5.3659h-1.2938v1.8099h1.2938c-0.38912 2.7781-2.5878 4.9768-5.3659 5.3659v-1.2938h-1.8099v1.2938c-2.7781-0.38912-4.9768-2.5878-5.3659-5.3659h1.2938v-1.8099h-1.2938c0.38912-2.7781 2.5878-4.9768 5.3659-5.3659z" color="#000000" color-rendering="auto" dominant-baseline="auto" image-rendering="auto" solid-color="#000000" stop-color="#000000" style="font-feature-settings:normal;font-variant-alternates:normal;font-variant-caps:normal;font-variant-east-asian:normal;font-variant-ligatures:normal;font-variant-numeric:normal;font-variant-position:normal;font-variation-settings:normal;inline-size:0;isolation:auto;mix-blend-mode:normal;shape-margin:0;shape-padding:0;text-decoration-color:#000000;text-decoration-line:none;text-decoration-style:solid;text-indent:0;text-orientation:mixed;text-transform:none;white-space:normal"/>
  <path d="m10.945 2.3477v1.4434c-3.7302 0.4679-6.6864 3.4241-7.1543 7.1543h-1.4434v2.1094h1.4434c0.4679 3.7302 3.4241 6.6864 7.1543 7.1543v1.4434h2.1094v-1.4434c3.7302-0.4679 6.6864-3.4241 7.1543-7.1543h1.4434v-2.1094h-1.4434c-0.4679-3.7302-3.4241-6.6864-7.1543-7.1543v-1.4434zm0.29883 0.30078h1.5117v1.3887l0.13281 0.013672c3.7035 0.39966 6.6609 3.357 7.0605 7.0605l0.01367 0.13281h1.3887v1.5117h-1.3887l-0.01367 0.13281c-0.39966 3.7035-3.357 6.6609-7.0605 7.0605l-0.13281 0.01367v1.3887h-1.5117v-1.3887l-0.13281-0.01367c-3.7035-0.39966-6.6609-3.357-7.0605-7.0605l-0.013672-0.13281h-1.3887v-1.5117h1.3887l0.013672-0.13281c0.39966-3.7035 3.357-6.6609 7.0605-7.0605l0.13281-0.013672zm0 2.9082-0.16992 0.023437c-2.8442 0.39838-5.0958 2.6499-5.4941 5.4941l-0.023437 0.16992h1.3164v1.5117h-1.3164l0.023437 0.16992c0.39838 2.8442 2.6499 5.0958 5.4941 5.4941l0.16992 0.02344v-1.3164h1.5117v1.3164l0.16992-0.02344c2.8442-0.39838 5.0958-2.6499 5.4941-5.4941l0.02344-0.16992h-1.3164v-1.5117h1.3164l-0.02344-0.16992c-0.39838-2.8442-2.6499-5.0958-5.4941-5.4941l-0.16992-0.023437v1.3164h-1.5117zm-0.29883 0.37305v1.2441h2.1094v-1.2441c2.5668 0.43748 4.5781 2.4489 5.0156 5.0156h-1.2441v2.1094h1.2441c-0.43748 2.5668-2.4489 4.5781-5.0156 5.0156v-1.2441h-2.1094v1.2441c-2.5668-0.43748-4.5781-2.4489-5.0156-5.0156h1.2441v-2.1094h-1.2441c0.43748-2.5668 2.4489-4.5781 5.0156-5.0156z" color="#000000" color-rendering="auto" dominant-baseline="auto" image-rendering="auto" solid-color="#000000" stop-color="#000000" style="font-feature-settings:normal;font-variant-alternates:normal;font-variant-caps:normal;font-variant-east-asian:normal;font-variant-ligatures:normal;font-variant-numeric:normal;font-variant-position:normal;font-variation-settings:normal;inline-size:0;isolation:auto;mix-blend-mode:normal;shape-margin:0;shape-padding:0;text-decoration-color:#000000;text-decoration-line:none;text-decoration-style:solid;text-indent:0;text-orientation:mixed;text-transform:none;white-space:normal"/>
 </g>
</svg>
