<?xml version="1.0" encoding="UTF-8" standalone="no"?>
<!-- Generator: Adobe Illustrator 18.0.0, SVG Export Plug-In . SVG Version: 6.00 Build 0)  -->

<svg
   xmlns:dc="http://purl.org/dc/elements/1.1/"
   xmlns:cc="http://creativecommons.org/ns#"
   xmlns:rdf="http://www.w3.org/1999/02/22-rdf-syntax-ns#"
   xmlns:svg="http://www.w3.org/2000/svg"
   xmlns="http://www.w3.org/2000/svg"
   xmlns:sodipodi="http://sodipodi.sourceforge.net/DTD/sodipodi-0.dtd"
   xmlns:inkscape="http://www.inkscape.org/namespaces/inkscape"
   version="1.1"
   id="Layer_1"
   x="0px"
   y="0px"
   width="200"
   height="200"
   viewBox="0 0 200.00001 200.00001"
   enable-background="new 0 0 393.3 241.4"
   xml:space="preserve"
   sodipodi:docname="stylus.svg"
   inkscape:version="0.92.1 r15371"><metadata
     id="metadata19"><rdf:RDF><cc:Work
         rdf:about=""><dc:format>image/svg+xml</dc:format><dc:type
           rdf:resource="http://purl.org/dc/dcmitype/StillImage" /><dc:title /></cc:Work></rdf:RDF></metadata><defs
     id="defs17" /><sodipodi:namedview
     pagecolor="#ffffff"
     bordercolor="#666666"
     borderopacity="1"
     objecttolerance="10"
     gridtolerance="10"
     guidetolerance="10"
     inkscape:pageopacity="0"
     inkscape:pageshadow="2"
     inkscape:window-width="1366"
     inkscape:window-height="705"
     id="namedview15"
     showgrid="false"
     inkscape:zoom="1.7798119"
     inkscape:cx="31.620978"
     inkscape:cy="84.491653"
     inkscape:window-x="-8"
     inkscape:window-y="-8"
     inkscape:window-maximized="1"
     inkscape:current-layer="g12" /><g
     id="g12"
     transform="translate(0,-41.399994)"><path
       d="m 126.81424,197.29918 c 14.6394,-17.50988 16.36168,-35.59385 5.02332,-69.17837 -7.17618,-21.24149 -19.08864,-37.603176 -10.3337,-50.807346 9.32904,-14.065312 29.13529,-0.430571 12.63008,18.371015 l 3.30104,2.29638 c 19.80625,2.296381 29.56586,-24.829579 14.78293,-32.579853 -39.03842,-20.380349 -73.197037,18.80159 -58.12706,64.155044 6.45856,19.23216 15.50055,39.61251 8.18084,55.83067 -6.315034,13.92179 -18.514539,22.10265 -26.695383,22.3897 C 58.497,208.63756 69.835363,169.4556 89.498095,159.696 c 1.722283,-0.86114 4.162184,-2.00933 1.865806,-4.8798 -24.255486,-2.72695 -38.464321,8.46789 -46.645166,24.11196 -23.824915,45.49699 45.209931,62.28925 82.095505,18.37102 z"
       id="path2"
       inkscape:connector-curvature="0"
       style="fill:#c0ca33;stroke-width:1.43523586;fill-opacity:1" /></g></svg>