<svg xmlns="http://www.w3.org/2000/svg" viewBox="0 0 24 24">
  <path d="M22 2v2.748a1.808 1.808 0 01-.348 1.082 1.941 1.941 0 01-.905.692v-.27c0-.597-.13 3.154-.391 3.67a3.869 3.869 0 01-1.096 1.322c.174.174.338.343.491.509.154.165.287.338.4.517a2.33 2.33 0 01.37 1.296c0 .168-.017.333-.052.496.186.359.278.745.278 1.157 0 .429-.087.799-.261 1.109a4.24 4.24 0 01-.704.909L15.017 22H2v-4.374L13.878 5.748c.191.214.384.423.578.626.194.203.37.414.526.635.157.22.286.457.387.709.101.252.152.535.152.848 0 .168-.017.333-.052.496l.061.138.331-.322H17V6.513a1.974 1.974 0 01-.517-.278 1.791 1.791 0 01-.392-.405 1.95 1.95 0 01-.252-.504 1.813 1.813 0 01-.091-.578V2zm-2.496 13.226c0-.133-.023-.27-.07-.409l-2.122 2.13-1.383-1.383-3.817 3.817a.347.347 0 01-.139.087.502.502 0 01-.157.026.432.432 0 01-.309-.13.41.41 0 01-.135-.304.47.47 0 01.03-.161c.02-.055.048-.1.083-.135l4.887-4.887a4.23 4.23 0 00.443-.513c.122-.168.183-.383.183-.643 0-.133-.023-.27-.07-.409a2.148 2.148 0 01-.183.209c-.099.104-.217.228-.357.37-.139.142-.291.294-.457.457a621.193 621.193 0 01-.87.852l-.248.243c-.238-.22-.47-.446-.696-.678a74.656 74.656 0 00-.687-.696l-5.07 5.07a.377.377 0 01-.135.083.47.47 0 01-.161.03.426.426 0 01-.313-.13.426.426 0 01-.13-.313c0-.052.009-.104.026-.157a.34.34 0 01.087-.139l6.139-6.139c.087-.087.168-.171.243-.252a1.87 1.87 0 00.2-.257 1.17 1.17 0 00.135-.291 1.245 1.245 0 00-.022-.757l-2.122 2.13-1.383-1.383-7.678 7.687v2.496h11.25l4.382-4.373c.351-.375.315-.338.439-.509.125-.171.187-.384.187-.639zm1.244-11.974H17v1.496c0 .139.028.251.083.335a.535.535 0 00.213.191.88.88 0 00.296.083c.11.012.223.017.339.017H19.835c.11 0 .22-.006.33-.017a.857.857 0 00.296-.083.506.506 0 00.209-.191.632.632 0 00.078-.335zm-3.983 7.826c0-.104-.015-.214-.044-.33H17a2.512 2.512 0 002.309-1.522c.13-.301.196-2.878.196-3.226h-1.252v2.878c0 .174-.033.336-.1.487a1.3 1.3 0 01-.27.396 1.235 1.235 0 01-.883.361h-.626l-2.496 2.504.939.939L16.374 12a1.26 1.26 0 00.391-.922zm-5.391-.957l.939.939 1.565-1.557a1.351 1.351 0 00.383-.937 1.346 1.346 0 00-.383-.94zm7.887 3.443c0-.371-.128-.684-.383-.939l-2.504 2.504.939.93 1.565-1.557a1.351 1.351 0 00.383-.936z"/>
  <path d="M3.252 19.494v-1.242l3.852-3.835 3.834-3.834.692.692.692.692 1.045-1.062c.575-.584 1.053-1.057 1.062-1.051.033.02.071.33.06.475-.016.179-.072.35-.172.521-.058.1-.829.884-3.35 3.411-2.324 2.327-3.286 3.305-3.31 3.364a.455.455 0 00.354.628c.231.027.064.18 2.852-2.606l2.567-2.565.675.68c.404.407.69.677.71.672.041-.009 1.59-1.528 1.888-1.853.121-.132.225-.232.23-.223a1.313 1.313 0 010 .733c-.08.271-.107.301-2.86 3.06-1.444 1.446-2.64 2.66-2.658 2.697a.427.427 0 00.055.487c.125.143.275.189.485.15.062-.012.392-.331 2.025-1.961l1.95-1.947.691.69.691.69 1.05-1.05c.577-.575 1.05-1.057 1.058-1.057.034 0 .083.266.072.454-.007.125-.043.374-.189.56a7.088 7.088 0 01-.425.51c-.493.494-.503.492-2.074 2.064l-2.308 2.31H3.252z" fill="#FFD740"/>
  <path d="M18.26 5.371l-.383.003c-.416-.016-.562-.052-.707-.189-.151-.153-.17-.231-.17-.601V3.252h3.751l-.009 1.338c-.003.37-.02.446-.162.595-.133.122-.289.169-.693.184h-.383zm-4.382 2.256l-2.504 2.495.939.939.85-.854c.415-.415.835-.798.941-1.034.08-.178.109-.228.137-.467.035-.295-.04-.643-.206-.871zM18.252 6l.008.496a79.348 79.348 0 000 2.367 1.234 1.234 0 01-.366.897 1.03 1.03 0 01-.41.279c-.17.059-.24.09-.499.101l-.608-.01-1.257 1.263-1.242 1.233.939.939s.427-.441.893-.912c.293-.295.483-.488.644-.653.342-.35.372-.584.398-.951l-.046-.318.298.002c.598.004.901-.148 1.205-.305.293-.153.423-.277.613-.475.241-.251.358-.454.48-.748.075-.18.14-.852.193-2.912.053-2.06.009-.293.009-.293h-.623zm.626 6.625L16.371 15.1l.942.959.871-.902c.311-.314.553-.522.69-.673.202-.223.236-.322.286-.458.052-.141.09-.353.09-.473 0-.242-.082-.569-.279-.793z" fill="#e91e63"/>
</svg>
