<svg xmlns="http://www.w3.org/2000/svg" fill="none" viewBox="0 0 256 256"><g fill="#828282"><path fill-rule="evenodd" d="M203.124 85.025a.194.194 0 01-.058-.034c.045.02.061.033.058.034zm-.179-.155a.17.17 0 01-.034-.058c.001-.003.013.014.034.058zm-.034 91.825c-.001-.003.009-.025.034-.058-.021.044-.033.06-.034.058zm.155-.179c.033-.025.055-.035.058-.034.003.001-.014.013-.058.034z" clip-rule="evenodd"/><path fill-rule="evenodd" d="M120.405 84.422h72.611c4.322 0 6.859.015 8.667.258.725.097 1.112.207 1.297.276.069.185.179.572.276 1.296.243 1.806.258 4.342.258 8.66v71.682c0 4.319-.015 6.854-.258 8.66-.097.725-.207 1.112-.276 1.297-.185.069-.572.178-1.297.276-1.808.242-4.345.257-8.667.257h-62.988l-13.621 20.061h83.555c10.231 0 15.346 0 18.524-3.188 3.178-3.187 3.178-8.318 3.178-18.58V86.129c0-10.261 0-15.392-3.178-18.58-3.178-3.188-8.293-3.188-18.524-3.188h-79.557v20.061zm82.719.603a.194.194 0 01-.058-.034c.045.02.061.033.058.034zm-.179-.155a.17.17 0 01-.034-.058c.001-.003.013.014.034.058zm-.034 91.825c-.001-.003.009-.025.034-.058-.021.044-.033.06-.034.058zm.155-.179c.033-.025.055-.035.058-.034.003.001-.014.013-.058.034z" clip-rule="evenodd"/><path d="M142.885 154.84a27.698 27.698 0 0037.843-10.14 27.703 27.703 0 00-10.14-37.843l-27.703 47.983z"/></g><path fill="#ffca28" d="M95.678 105.031V8l-74.15 124.484c-3.606 6.053-5.409 9.08-5.171 11.569a7.644 7.644 0 003.09 5.438c2.017 1.478 5.54 1.478 12.586 1.478h34.439V248l81.72-137.192c1.517-2.547-.318-5.777-3.283-5.777H95.678z"/></svg>
