<svg xmlns="http://www.w3.org/2000/svg" viewBox="0 0 32 32">
  <path d="M14.57593,18.85739,6.48767,16.43164a.59466.59466,0,0,1-.40979-.516L6,10.16927a.5729.5729,0,0,1,.40052-.5143L25.46041,4.01832a.28941.28941,0,0,1,.40794.27429v5.74465a.58861.58861,0,0,1-.40608.51944l-7.8639,2.424,7.9937,2.30746A.57663.57663,0,0,1,26,15.80078v5.66408a.593.593,0,0,1-.40237.52115l-19.11,5.99323a.28461.28461,0,0,1-.40608-.26572l-.03894-5.91266a.57657.57657,0,0,1,.40237-.51429Z" style="fill: #ffb74d;fill-rule: evenodd"/>
</svg>
