<?xml version="1.0" encoding="UTF-8"?>
<svg clip-rule="evenodd" fill-rule="evenodd" stroke-linejoin="round" stroke-miterlimit="1.4142" version="1.1" viewBox="0 0 24 24" xml:space="preserve" 
    xmlns="http://www.w3.org/2000/svg">          
    <path d=" M 19.063 19.938 L 4.063 19.938 C 2.952 19.938 2.063 19.038 2.063 17.938 L 2.063 5.938 C 2.063 4.828 2.953 3.938 4.063 3.938 L 10.063 3.938 L 12.063 5.938 L 19.063 5.938 C 20.16 5.938 21.063 6.841 21.063 7.938 L 4.063 7.938 L 4.063 17.938 L 6.203 9.938 L 23.273 9.938 L 20.993 18.438 C 20.763 19.308 19.982 19.938 19.063 19.938 Z " fill="#424242"/>
    <path d=" M 18.32 16.95 L 14.529 15.72 C 14.424 15.686 14.338 15.568 14.337 15.458 L 14.3 12.544 C 14.299 12.434 14.383 12.317 14.488 12.283 L 23.423 9.425 C 23.529 9.391 23.614 9.453 23.614 9.564 L 23.614 12.477 C 23.614 12.588 23.529 12.706 23.424 12.741 L 19.737 13.97 L 23.485 15.14 C 23.591 15.173 23.676 15.289 23.676 15.4 L 23.676 18.272 C 23.676 18.382 23.592 18.5 23.487 18.536 L 14.529 21.575 C 14.424 21.611 14.339 21.55 14.338 21.44 L 14.32 18.442 C 14.319 18.332 14.404 18.215 14.509 18.181 L 18.32 16.95 Z " fill="#FFA726"/>
</svg>