<?xml version="1.0" encoding="utf-8"?>
<!-- Generator: Adobe Illustrator 22.1.0, SVG Export Plug-In . SVG Version: 6.00 Build 0)  -->
<svg version="1.1" id="layer_1" xmlns="http://www.w3.org/2000/svg" xmlns:xlink="http://www.w3.org/1999/xlink" x="0px" y="0px"
	 viewBox="0 0 300 300" style="enable-background:new 0 0 300 300;" xml:space="preserve">
<style type="text/css">
	.st0{fill:#2DCC9F;}
	.st1{fill:#D0F5F5;}
	.st2{fill:#C8EEEE;}
	.st3{opacity:0.35;fill:#9DEEEE;enable-background:new    ;}
	.st4{fill:#F0FFFF;}
	.st5{opacity:0.35;fill:#D0F5F5;enable-background:new    ;}
	.st6{fill:#94B3CA;}
	.st7{fill:#FF8AFF;}
	.st8{opacity:0.35;fill:#FF8AFF;enable-background:new    ;}
	.st9{fill:#733335;}
	.st10{fill:#CDEEEE;}
	.st11{fill:#DDF5F5;}
	.st12{opacity:0.35;fill:#C2F5F5;enable-background:new    ;}
	.st13{fill:#249E7C;}
</style>
<circle id="circle6357" class="st0" cx="149.3" cy="150.3" r="134.4"/>
<path id="path6359" class="st1" d="M86.5,112.1L111.4,97h112.3l-9.4,26l-83.1,7.6L86.5,112.1L86.5,112.1z"/>
<path id="path6361" class="st2" d="M206.1,112.1L223.8,97l0.2,85l-17.8,37.4l-9.3-81.3L206.1,112.1z"/>
<path class="st3" d="M207.9,178.7l-6.1,2l1,8.5c8.3-4.1,15.3-9,17.6-14.5C227.5,158.2,207.9,178.7,207.9,178.7z"/>
<path id="path6371" class="st4" d="M86.6,111.9h119.8v107.5H86.6V111.9z"/>
<path class="st3" d="M86.6,193.6c3.9,0.8,11.4,2.7,17.9,5.6c9.4,4.2,16.1,2.3,16.1,2.3l-9.9-8.4l-22.7-9l-1.4,0.7V193.6z"/>
<path class="st3" d="M206.4,179.2l-44.6,14.4l2,9.1c0,0,25.6-5.9,42.6-15.4V179.2z"/>
<ellipse class="st5" cx="201.8" cy="101.3" rx="1.3" ry="1.3"/>
<path class="st5" d="M197.7,186.9c0,0.7,0.6,1.3,1.3,1.3c0.7,0,1.3-0.6,1.3-1.3s-0.6-1.3-1.3-1.3
	C198.2,185.6,197.7,186.2,197.7,186.9z"/>
<ellipse class="st5" cx="203.8" cy="107.7" rx="1.3" ry="1.3"/>
<path class="st5" d="M204.5,133.7c0.7,0,1.3-0.6,1.3-1.3s-0.6-1.3-1.3-1.3c-0.7,0-1.3,0.6-1.3,1.3S203.8,133.7,204.5,133.7z"/>
<ellipse class="st5" cx="208.3" cy="104.6" rx="1.3" ry="1.3"/>
<path class="st5" d="M200.7,206c0.7,0,1.3-0.6,1.3-1.3s-0.6-1.3-1.3-1.3c-0.7,0-1.3,0.6-1.3,1.3S200,206,200.7,206z"/>
<path class="st5" d="M207,160.1c0-0.7-0.6-1.3-1.3-1.3s-1.3,0.6-1.3,1.3s0.6,1.3,1.3,1.3S207,160.8,207,160.1z"/>
<ellipse class="st5" cx="204.2" cy="208.1" rx="1.3" ry="1.3"/>
<path class="st5" d="M203.6,170.8c0-0.7-0.6-1.3-1.3-1.3c-0.7,0-1.3,0.6-1.3,1.3s0.6,1.3,1.3,1.3C203,172,203.6,171.5,203.6,170.8z"
	/>
<path class="st5" d="M198.5,113.4c0,0.7,0.6,1.3,1.3,1.3c0.7,0,1.3-0.6,1.3-1.3s-0.6-1.3-1.3-1.3
	C199.1,112.1,198.5,112.7,198.5,113.4z"/>
<path class="st5" d="M204.2,125.8c0-0.7-0.6-1.3-1.3-1.3c-0.7,0-1.3,0.6-1.3,1.3s0.6,1.3,1.3,1.3
	C203.7,127.1,204.2,126.5,204.2,125.8z"/>
<ellipse class="st5" cx="195.6" cy="190.6" rx="1.3" ry="1.3"/>
<ellipse class="st5" cx="194.4" cy="210.3" rx="1.3" ry="1.3"/>
<ellipse class="st5" cx="194.4" cy="150.6" rx="1.3" ry="1.3"/>
<path class="st5" d="M197.6,129.2c0-0.7-0.6-1.3-1.3-1.3s-1.3,0.6-1.3,1.3s0.6,1.3,1.3,1.3S197.6,129.9,197.6,129.2z"/>
<path class="st5" d="M201.9,147c0.7,0,1.3-0.6,1.3-1.3s-0.6-1.3-1.3-1.3c-0.7,0-1.3,0.6-1.3,1.3S201.2,147,201.9,147z"/>
<path class="st5" d="M196,104c0.7,0,1.3-0.6,1.3-1.3s-0.6-1.3-1.3-1.3c-0.7,0-1.3,0.6-1.3,1.3S195.3,104,196,104z"/>
<path class="st5" d="M201.4,134.2c0-0.7-0.6-1.3-1.3-1.3c-0.7,0-1.3,0.6-1.3,1.3s0.6,1.3,1.3,1.3
	C200.8,135.5,201.4,134.9,201.4,134.2z"/>
<ellipse class="st5" cx="198.7" cy="195.6" rx="1.3" ry="1.3"/>
<path class="st5" d="M191.6,99.3c0.7,0,1.3-0.6,1.3-1.3c0-0.2,0-0.3-0.1-0.5h-2.4c-0.1,0.1-0.1,0.3-0.1,0.5
	C190.4,98.7,190.9,99.3,191.6,99.3z"/>
<path class="st5" d="M210.6,125.6c0.7,0,1.3-0.6,1.3-1.3s-0.6-1.3-1.3-1.3c-0.7,0-1.3,0.6-1.3,1.3S209.9,125.6,210.6,125.6z"/>
<ellipse class="st5" cx="168.2" cy="98.9" rx="1.3" ry="1.3"/>
<ellipse class="st5" cx="174.4" cy="196.7" rx="1.3" ry="1.3"/>
<ellipse class="st5" cx="172.7" cy="163.9" rx="1.3" ry="1.3"/>
<path class="st5" d="M165.2,123.9c0,0.7,0.6,1.3,1.3,1.3c0.7,0,1.3-0.6,1.3-1.3s-0.6-1.3-1.3-1.3
	C165.8,122.6,165.2,123.2,165.2,123.9z"/>
<path class="st5" d="M167.1,110.5c0,0.7,0.6,1.3,1.3,1.3c0.7,0,1.3-0.6,1.3-1.3s-0.6-1.3-1.3-1.3
	C167.7,109.2,167.1,109.8,167.1,110.5z"/>
<path class="st5" d="M166.2,144.2c0.7,0,1.3-0.6,1.3-1.3s-0.6-1.3-1.3-1.3s-1.3,0.6-1.3,1.3S165.5,144.2,166.2,144.2z"/>
<path class="st5" d="M174.2,108.9c0.7,0,1.3-0.6,1.3-1.3s-0.6-1.3-1.3-1.3c-0.7,0-1.3,0.6-1.3,1.3S173.5,108.9,174.2,108.9z"/>
<path class="st5" d="M166.5,104.9c0,0.7,0.6,1.3,1.3,1.3c0.7,0,1.3-0.6,1.3-1.3s-0.6-1.3-1.3-1.3C167,103.6,166.5,104.2,166.5,104.9
	z"/>
<path class="st5" d="M172.9,212.6c0.7,0,1.3-0.6,1.3-1.3s-0.6-1.3-1.3-1.3c-0.7,0-1.3,0.6-1.3,1.3S172.2,212.6,172.9,212.6z"/>
<path class="st5" d="M211.8,156.6c0.7,0,1.3-0.6,1.3-1.3s-0.6-1.3-1.3-1.3c-0.7,0-1.3,0.6-1.3,1.3S211.1,156.6,211.8,156.6z"/>
<path class="st5" d="M210.4,140.2c0.7,0,1.3-0.6,1.3-1.3s-0.6-1.3-1.3-1.3c-0.7,0-1.3,0.6-1.3,1.3S209.7,140.2,210.4,140.2z"/>
<path class="st5" d="M208,193c0.7,0,1.3-0.6,1.3-1.3s-0.6-1.3-1.3-1.3s-1.3,0.6-1.3,1.3S207.2,193,208,193z"/>
<path class="st5" d="M206.3,120.5c0,0.7,0.6,1.3,1.3,1.3c0.7,0,1.3-0.6,1.3-1.3s-0.6-1.3-1.3-1.3
	C206.8,119.2,206.3,119.8,206.3,120.5z"/>
<path class="st5" d="M165.3,163.1c0,0.7,0.6,1.3,1.3,1.3c0.7,0,1.3-0.6,1.3-1.3s-0.6-1.3-1.3-1.3
	C165.8,161.9,165.3,162.4,165.3,163.1z"/>
<path class="st5" d="M214.9,190.3c0.7,0,1.3-0.6,1.3-1.3s-0.6-1.3-1.3-1.3c-0.7,0-1.3,0.6-1.3,1.3S214.2,190.3,214.9,190.3z"/>
<ellipse class="st5" cx="192" cy="171.6" rx="1.3" ry="1.3"/>
<path class="st5" d="M217.3,150.2c0-0.7-0.6-1.3-1.3-1.3c-0.7,0-1.3,0.6-1.3,1.3s0.6,1.3,1.3,1.3
	C216.7,151.5,217.3,150.9,217.3,150.2z"/>
<path class="st5" d="M215.9,104c0-0.7-0.6-1.3-1.3-1.3c-0.7,0-1.3,0.6-1.3,1.3s0.6,1.3,1.3,1.3C215.3,105.2,215.9,104.7,215.9,104z"
	/>
<ellipse class="st5" cx="213" cy="175.2" rx="1.3" ry="1.3"/>
<path class="st5" d="M219.1,146.6c0.7,0,1.3-0.6,1.3-1.3s-0.6-1.3-1.3-1.3c-0.7,0-1.3,0.6-1.3,1.3S218.4,146.6,219.1,146.6z"/>
<ellipse class="st5" cx="219.7" cy="116.9" rx="1.3" ry="1.3"/>
<path class="st5" d="M220,134.1c0-0.7-0.6-1.3-1.3-1.3c-0.7,0-1.3,0.6-1.3,1.3s0.6,1.3,1.3,1.3C219.4,135.4,220,134.8,220,134.1z"/>
<path class="st5" d="M222.8,155.3c0,0.7,0.5,1.2,1.2,1.2V154C223.3,154.1,222.8,154.6,222.8,155.3z"/>
<path class="st5" d="M223.6,145.1c0,0.4,0.2,0.7,0.4,0.9v-1.8C223.7,144.4,223.6,144.8,223.6,145.1z"/>
<path class="st5" d="M177,128.2c-0.7,0-1.3,0.6-1.3,1.3s0.6,1.3,1.3,1.3c0.7,0,1.3-0.6,1.3-1.3S177.7,128.2,177,128.2z"/>
<path class="st5" d="M222.4,111c0-0.7-0.6-1.3-1.3-1.3c-0.7,0-1.3,0.6-1.3,1.3s0.6,1.3,1.3,1.3C221.8,112.3,222.4,111.7,222.4,111z"
	/>
<path class="st5" d="M179.7,181c0-0.7-0.6-1.3-1.3-1.3c-0.7,0-1.3,0.6-1.3,1.3s0.6,1.3,1.3,1.3C179.1,182.3,179.7,181.7,179.7,181z"
	/>
<path class="st5" d="M176.8,167.3c0,0.7,0.6,1.3,1.3,1.3c0.7,0,1.3-0.6,1.3-1.3s-0.6-1.3-1.3-1.3C177.4,166,176.8,166.6,176.8,167.3
	z"/>
<path class="st5" d="M204.7,98.3c0,0.7,0.6,1.3,1.3,1.3c0.7,0,1.3-0.6,1.3-1.3c0-0.3-0.1-0.5-0.3-0.7h-2
	C204.8,97.7,204.7,98,204.7,98.3z"/>
<path class="st5" d="M177.2,204.3c0.7,0,1.3-0.6,1.3-1.3s-0.6-1.3-1.3-1.3c-0.7,0-1.3,0.6-1.3,1.3S176.5,204.3,177.2,204.3z"/>
<path class="st5" d="M196.7,218.7c0-0.7-0.6-1.3-1.3-1.3s-1.3,0.6-1.3,1.3c0,0.1,0,0.3,0.1,0.4h2.4
	C196.6,219,196.7,218.8,196.7,218.7z"/>
<path class="st5" d="M208.9,210.9c0,0.4,0.2,0.8,0.5,1l1-2.2c-0.1,0-0.2-0.1-0.3-0.1C209.5,209.6,208.9,210.2,208.9,210.9z"/>
<path class="st5" d="M174.2,218.1c0-0.7-0.6-1.3-1.3-1.3c-0.7,0-1.3,0.6-1.3,1.3c0,0.4,0.2,0.7,0.5,1h1.6
	C174,218.9,174.2,218.5,174.2,218.1z"/>
<path class="st5" d="M213,201.6c-0.7,0-1.3,0.6-1.3,1.3c0,0.7,0.6,1.3,1.3,1.3c0.1,0,0.1,0,0.2,0l0.9-1.9
	C213.8,201.9,213.4,201.6,213,201.6z"/>
<path class="st5" d="M92.4,109.2C92.4,109.1,92.4,109.1,92.4,109.2l-1.9,1.1c0.2,0.1,0.4,0.2,0.6,0.2
	C91.9,110.4,92.4,109.9,92.4,109.2z"/>
<path class="st5" d="M159.3,217.9c-0.7,0-1.2,0.5-1.3,1.2h2.5C160.5,218.4,160,217.9,159.3,217.9z"/>
<path class="st5" d="M184.5,98.6c0,0.7,0.6,1.3,1.3,1.3s1.3-0.6,1.3-1.3c0-0.5-0.3-0.9-0.7-1.1h-1.2
	C184.8,97.8,184.5,98.2,184.5,98.6z"/>
<path class="st5" d="M87.9,189.2c0.7,0,1.3-0.6,1.3-1.3s-0.6-1.3-1.3-1.3c-0.4,0-0.8,0.2-1,0.5v1.5C87.1,189,87.5,189.2,87.9,189.2z
	"/>
<path class="st5" d="M152.7,218.9c0-0.7-0.6-1.3-1.3-1.3c-0.7,0-1.3,0.6-1.3,1.3c0,0.1,0,0.1,0,0.2h2.5
	C152.7,219,152.7,219,152.7,218.9z"/>
<ellipse class="st5" cx="190.9" cy="197.6" rx="1.3" ry="1.3"/>
<path class="st5" d="M188.9,165.3c0.7,0,1.3-0.6,1.3-1.3s-0.6-1.3-1.3-1.3s-1.3,0.6-1.3,1.3S188.2,165.3,188.9,165.3z"/>
<path class="st5" d="M189,130.9c0,0.7,0.6,1.3,1.3,1.3c0.7,0,1.3-0.6,1.3-1.3s-0.6-1.3-1.3-1.3C189.6,129.6,189,130.2,189,130.9z"/>
<path class="st5" d="M191.6,138.4c0-0.7-0.6-1.3-1.3-1.3s-1.3,0.6-1.3,1.3s0.6,1.3,1.3,1.3S191.6,139.1,191.6,138.4z"/>
<path class="st5" d="M189.1,124.4c0-0.7-0.6-1.3-1.3-1.3c-0.7,0-1.3,0.6-1.3,1.3s0.6,1.3,1.3,1.3
	C188.5,125.6,189.1,125.1,189.1,124.4z"/>
<path class="st5" d="M189,181.8c0.7,0,1.3-0.6,1.3-1.3s-0.6-1.3-1.3-1.3c-0.7,0-1.3,0.6-1.3,1.3S188.3,181.8,189,181.8z"/>
<path class="st5" d="M187.5,218.8c0.7,0,1.3-0.6,1.3-1.3s-0.6-1.3-1.3-1.3c-0.7,0-1.3,0.6-1.3,1.3S186.8,218.8,187.5,218.8z"/>
<path class="st5" d="M189.7,194.4c0.7,0,1.3-0.6,1.3-1.3s-0.6-1.3-1.3-1.3c-0.7,0-1.3,0.6-1.3,1.3S189,194.4,189.7,194.4z"/>
<path class="st5" d="M188,116c-0.7,0-1.3,0.6-1.3,1.3s0.6,1.3,1.3,1.3s1.3-0.6,1.3-1.3S188.7,116,188,116z"/>
<ellipse class="st5" cx="191.5" cy="106.2" rx="1.3" ry="1.3"/>
<path class="st5" d="M184.5,189.9c0.7,0,1.3-0.6,1.3-1.3s-0.6-1.3-1.3-1.3c-0.7,0-1.3,0.6-1.3,1.3S183.8,189.9,184.5,189.9z"/>
<path class="st5" d="M182.9,140.3c-0.7,0-1.3,0.6-1.3,1.3s0.6,1.3,1.3,1.3c0.7,0,1.3-0.6,1.3-1.3S183.6,140.3,182.9,140.3z"/>
<path class="st5" d="M187.3,106.3c0-0.7-0.6-1.3-1.3-1.3c-0.7,0-1.3,0.6-1.3,1.3s0.6,1.3,1.3,1.3C186.7,107.5,187.3,107,187.3,106.3
	z"/>
<path class="st5" d="M182,182c0,0.7,0.6,1.3,1.3,1.3s1.3-0.6,1.3-1.3s-0.6-1.3-1.3-1.3S182,181.3,182,182z"/>
<path class="st5" d="M182.7,119.8c-0.7,0-1.3,0.6-1.3,1.3s0.6,1.3,1.3,1.3c0.7,0,1.3-0.6,1.3-1.3S183.4,119.8,182.7,119.8z"/>
<path class="st5" d="M183.4,158.1c-0.7,0-1.3,0.6-1.3,1.3s0.6,1.3,1.3,1.3c0.7,0,1.3-0.6,1.3-1.3S184.1,158.1,183.4,158.1z"/>
<path class="st5" d="M183.4,210c0-0.7-0.6-1.3-1.3-1.3c-0.7,0-1.3,0.6-1.3,1.3s0.6,1.3,1.3,1.3C182.8,211.2,183.4,210.7,183.4,210z"
	/>
<path class="st5" d="M185.2,176.4c0-0.7-0.6-1.3-1.3-1.3c-0.7,0-1.3,0.6-1.3,1.3s0.6,1.3,1.3,1.3
	C184.6,177.7,185.2,177.1,185.2,176.4z"/>
<ellipse class="st5" cx="180.9" cy="99.3" rx="1.3" ry="1.3"/>
<ellipse class="st5" cx="180" cy="217.2" rx="1.3" ry="1.3"/>
<path class="st5" d="M171.9,152.1c-0.7,0-1.3,0.6-1.3,1.3s0.6,1.3,1.3,1.3s1.3-0.6,1.3-1.3S172.6,152.1,171.9,152.1z"/>
<ellipse class="st5" cx="107.5" cy="143.1" rx="1.3" ry="1.3"/>
<path class="st5" d="M109.3,112.9c0-0.7-0.6-1.3-1.3-1.3c-0.7,0-1.3,0.6-1.3,1.3s0.6,1.3,1.3,1.3
	C108.7,114.2,109.3,113.6,109.3,112.9z"/>
<ellipse class="st5" cx="107.4" cy="129.4" rx="1.3" ry="1.3"/>
<path class="st5" d="M113,104.9c0.7,0,1.3-0.6,1.3-1.3s-0.6-1.3-1.3-1.3c-0.7,0-1.3,0.6-1.3,1.3S112.3,104.9,113,104.9z"/>
<path class="st5" d="M110.5,120c0,0.7,0.6,1.3,1.3,1.3c0.7,0,1.3-0.6,1.3-1.3s-0.6-1.3-1.3-1.3C111.1,118.8,110.5,119.3,110.5,120z"
	/>
<path class="st5" d="M106.3,159.2c0.7,0,1.3-0.6,1.3-1.3s-0.6-1.3-1.3-1.3s-1.3,0.6-1.3,1.3S105.6,159.2,106.3,159.2z"/>
<path class="st5" d="M104.9,106.8c-0.7,0-1.3,0.6-1.3,1.3s0.6,1.3,1.3,1.3s1.3-0.6,1.3-1.3S105.6,106.8,104.9,106.8z"/>
<path class="st5" d="M106.8,191.5c0.7,0,1.3-0.6,1.3-1.3s-0.6-1.3-1.3-1.3c-0.7,0-1.3,0.6-1.3,1.3S106.1,191.5,106.8,191.5z"/>
<path class="st5" d="M108.1,201.2c0.7,0,1.3-0.6,1.3-1.3c0-0.7-0.6-1.3-1.3-1.3c-0.7,0-1.3,0.6-1.3,1.3
	C106.8,200.6,107.4,201.2,108.1,201.2z"/>
<path class="st5" d="M141,138.4c0.7,0,1.3-0.6,1.3-1.3s-0.6-1.3-1.3-1.3c-0.7,0-1.3,0.6-1.3,1.3S140.3,138.4,141,138.4z"/>
<path class="st5" d="M136.6,99.6c0-0.7-0.6-1.3-1.3-1.3c-0.7,0-1.3,0.6-1.3,1.3s0.6,1.3,1.3,1.3C136,100.9,136.6,100.3,136.6,99.6z"
	/>
<path class="st5" d="M108.2,217.5c0.7,0,1.3-0.6,1.3-1.3s-0.6-1.3-1.3-1.3c-0.7,0-1.3,0.6-1.3,1.3S107.5,217.5,108.2,217.5z"/>
<ellipse class="st5" cx="138.8" cy="194" rx="1.3" ry="1.3"/>
<ellipse class="st5" cx="132.2" cy="191.4" rx="1.3" ry="1.3"/>
<path class="st5" d="M164.3,185.8c0,0.7,0.6,1.3,1.3,1.3c0.7,0,1.3-0.6,1.3-1.3s-0.6-1.3-1.3-1.3
	C164.9,184.6,164.3,185.1,164.3,185.8z"/>
<path class="st5" d="M136.1,144.1c0-0.7-0.6-1.3-1.3-1.3c-0.7,0-1.3,0.6-1.3,1.3s0.6,1.3,1.3,1.3
	C135.5,145.4,136.1,144.8,136.1,144.1z"/>
<ellipse class="st5" cx="140.3" cy="101.6" rx="1.3" ry="1.3"/>
<ellipse class="st5" cx="137.8" cy="199.1" rx="1.3" ry="1.3"/>
<path class="st5" d="M137.4,131.9c0,0.7,0.6,1.3,1.3,1.3c0.7,0,1.3-0.6,1.3-1.3s-0.6-1.3-1.3-1.3C138,130.7,137.4,131.2,137.4,131.9
	z"/>
<path class="st5" d="M139.4,113.7c0,0.7,0.6,1.3,1.3,1.3c0.7,0,1.3-0.6,1.3-1.3s-0.6-1.3-1.3-1.3C140,112.4,139.4,113,139.4,113.7z"
	/>
<ellipse class="st5" cx="132.9" cy="154.3" rx="1.3" ry="1.3"/>
<path class="st5" d="M88.6,140c0.7,0,1.3-0.6,1.3-1.3s-0.6-1.3-1.3-1.3c-0.7,0-1.3,0.6-1.3,1.3S87.9,140,88.6,140z"/>
<path class="st5" d="M92.4,173.1c0.7,0,1.3-0.6,1.3-1.3c0-0.7-0.6-1.3-1.3-1.3c-0.7,0-1.3,0.6-1.3,1.3
	C91.2,172.5,91.7,173.1,92.4,173.1z"/>
<ellipse class="st5" cx="93" cy="146.7" rx="1.3" ry="1.3"/>
<path class="st5" d="M89.4,161.9c0.7,0,1.3-0.6,1.3-1.3s-0.6-1.3-1.3-1.3c-0.7,0-1.3,0.6-1.3,1.3S88.7,161.9,89.4,161.9z"/>
<path class="st5" d="M91.2,154.1c0-0.7-0.6-1.3-1.3-1.3c-0.7,0-1.3,0.6-1.3,1.3s0.6,1.3,1.3,1.3C90.6,155.4,91.2,154.8,91.2,154.1z"
	/>
<path class="st5" d="M88.6,168.8c0-0.7-0.6-1.3-1.3-1.3c-0.2,0-0.3,0-0.5,0.1v2.3c0.1,0.1,0.3,0.1,0.5,0.1
	C88.1,170.1,88.6,169.5,88.6,168.8z"/>
<path class="st5" d="M207.5,199.9c0-0.7-0.6-1.3-1.3-1.3c-0.7,0-1.3,0.6-1.3,1.3c0,0.7,0.6,1.3,1.3,1.3
	C206.9,201.2,207.5,200.6,207.5,199.9z"/>
<ellipse class="st5" cx="94.4" cy="132.4" rx="1.3" ry="1.3"/>
<ellipse class="st5" cx="94.6" cy="118.4" rx="1.3" ry="1.3"/>
<path class="st5" d="M99.1,109.6c-0.7,0-1.3,0.6-1.3,1.3s0.6,1.3,1.3,1.3c0.7,0,1.3-0.6,1.3-1.3S99.8,109.6,99.1,109.6z"/>
<path class="st5" d="M98.7,133.9c0,0.7,0.6,1.3,1.3,1.3c0.7,0,1.3-0.6,1.3-1.3s-0.6-1.3-1.3-1.3C99.3,132.6,98.7,133.2,98.7,133.9z"
	/>
<path class="st5" d="M102.6,125.1c0-0.7-0.6-1.3-1.3-1.3c-0.7,0-1.3,0.6-1.3,1.3s0.6,1.3,1.3,1.3
	C102.1,126.4,102.6,125.8,102.6,125.1z"/>
<path class="st5" d="M87.2,118.6c0-0.3-0.1-0.6-0.3-0.8v1.5C87.1,119.1,87.2,118.9,87.2,118.6z"/>
<ellipse class="st5" cx="108.9" cy="168.4" rx="1.3" ry="1.3"/>
<ellipse class="st5" cx="108.4" cy="182.3" rx="1.3" ry="1.3"/>
<ellipse class="st5" cx="99" cy="187.9" rx="1.3" ry="1.3"/>
<path class="st5" d="M101.5,203.4c0.7,0,1.3-0.6,1.3-1.3s-0.6-1.3-1.3-1.3c-0.7,0-1.3,0.6-1.3,1.3S100.8,203.4,101.5,203.4z"/>
<path class="st5" d="M88.6,124.8c0-0.7-0.6-1.3-1.3-1.3c-0.1,0-0.3,0-0.4,0.1v2.4c0.1,0,0.3,0.1,0.4,0.1
	C88,126,88.6,125.5,88.6,124.8z"/>
<path class="st5" d="M99.1,214.2c0.7,0,1.3-0.6,1.3-1.3s-0.6-1.3-1.3-1.3c-0.7,0-1.3,0.6-1.3,1.3S98.4,214.2,99.1,214.2z"/>
<ellipse class="st5" cx="137.3" cy="106.3" rx="1.3" ry="1.3"/>
<path class="st5" d="M153.1,106.7c0-0.7-0.6-1.3-1.3-1.3c-0.7,0-1.3,0.6-1.3,1.3s0.6,1.3,1.3,1.3C152.5,108,153.1,107.4,153.1,106.7
	z"/>
<path class="st5" d="M152.8,127.7c0.7,0,1.3-0.6,1.3-1.3s-0.6-1.3-1.3-1.3s-1.3,0.6-1.3,1.3S152.1,127.7,152.8,127.7z"/>
<path class="st5" d="M153.2,186.8c0.7,0,1.3-0.6,1.3-1.3s-0.6-1.3-1.3-1.3c-0.7,0-1.3,0.6-1.3,1.3S152.5,186.8,153.2,186.8z"/>
<path class="st5" d="M149.5,149.6c0.7,0,1.3-0.6,1.3-1.3s-0.6-1.3-1.3-1.3s-1.3,0.6-1.3,1.3S148.8,149.6,149.5,149.6z"/>
<ellipse class="st5" cx="147.2" cy="139.3" rx="1.3" ry="1.3"/>
<path class="st5" d="M152.7,113.6c0-0.7-0.6-1.3-1.3-1.3c-0.7,0-1.3,0.6-1.3,1.3c0,0.7,0.6,1.3,1.3,1.3
	C152.1,114.9,152.7,114.3,152.7,113.6z"/>
<path class="st5" d="M116.5,118.9c0.7,0,1.3-0.6,1.3-1.3s-0.6-1.3-1.3-1.3s-1.3,0.6-1.3,1.3S115.8,118.9,116.5,118.9z"/>
<path class="st5" d="M144.2,209.4c0.7,0,1.3-0.6,1.3-1.3s-0.6-1.3-1.3-1.3c-0.7,0-1.3,0.6-1.3,1.3S143.4,209.4,144.2,209.4z"/>
<path class="st5" d="M145.8,127.9c0-0.7-0.6-1.3-1.3-1.3c-0.7,0-1.3,0.6-1.3,1.3s0.6,1.3,1.3,1.3
	C145.3,129.1,145.8,128.6,145.8,127.9z"/>
<path class="st5" d="M144.9,154.7c0-0.7-0.6-1.3-1.3-1.3c-0.7,0-1.3,0.6-1.3,1.3s0.6,1.3,1.3,1.3C144.3,156,144.9,155.4,144.9,154.7
	z"/>
<ellipse class="st5" cx="167.5" cy="177.7" rx="1.3" ry="1.3"/>
<path class="st5" d="M159.1,190.3c0,0.7,0.6,1.3,1.3,1.3c0.7,0,1.3-0.6,1.3-1.3s-0.6-1.3-1.3-1.3
	C159.6,189.1,159.1,189.6,159.1,190.3z"/>
<path class="st5" d="M169.9,131.8c0-0.7-0.6-1.3-1.3-1.3c-0.7,0-1.3,0.6-1.3,1.3s0.6,1.3,1.3,1.3
	C169.3,133.1,169.9,132.5,169.9,131.8z"/>
<path class="st5" d="M157.7,150.5c0.7,0,1.3-0.6,1.3-1.3s-0.6-1.3-1.3-1.3c-0.7,0-1.3,0.6-1.3,1.3S157,150.5,157.7,150.5z"/>
<path class="st5" d="M165.8,198.8c0.7,0,1.3-0.6,1.3-1.3s-0.6-1.3-1.3-1.3s-1.3,0.6-1.3,1.3S165.1,198.8,165.8,198.8z"/>
<path class="st5" d="M117.5,111.5c0-0.7-0.6-1.3-1.3-1.3c-0.7,0-1.3,0.6-1.3,1.3s0.6,1.3,1.3,1.3C117,112.7,117.5,112.2,117.5,111.5
	z"/>
<path class="st5" d="M157.4,110.6c0.7,0,1.3-0.6,1.3-1.3s-0.6-1.3-1.3-1.3c-0.7,0-1.3,0.6-1.3,1.3S156.7,110.6,157.4,110.6z"/>
<path class="st5" d="M157.2,119.1c0.7,0,1.3-0.6,1.3-1.3s-0.6-1.3-1.3-1.3c-0.7,0-1.3,0.6-1.3,1.3S156.5,119.1,157.2,119.1z"/>
<ellipse class="st5" cx="156.9" cy="132.3" rx="1.3" ry="1.3"/>
<ellipse class="st5" cx="157.6" cy="101.6" rx="1.3" ry="1.3"/>
<ellipse class="st5" cx="130.6" cy="214.7" rx="1.3" ry="1.3"/>
<path class="st5" d="M122.7,195.6c0.7,0,1.3-0.6,1.3-1.3s-0.6-1.3-1.3-1.3c-0.7,0-1.3,0.6-1.3,1.3S122,195.6,122.7,195.6z"/>
<path class="st5" d="M121,183.5c0.7,0,1.3-0.6,1.3-1.3s-0.6-1.3-1.3-1.3c-0.7,0-1.3,0.6-1.3,1.3S120.3,183.5,121,183.5z"/>
<ellipse class="st5" cx="119.8" cy="159.4" rx="1.3" ry="1.3"/>
<path class="st5" d="M119.9,104.8c-0.7,0-1.3,0.6-1.3,1.3s0.6,1.3,1.3,1.3c0.7,0,1.3-0.6,1.3-1.3S120.6,104.8,119.9,104.8z"/>
<path class="st5" d="M125.1,213.4c0.7,0,1.3-0.6,1.3-1.3s-0.6-1.3-1.3-1.3c-0.7,0-1.3,0.6-1.3,1.3S124.4,213.4,125.1,213.4z"/>
<ellipse class="st5" cx="128.9" cy="180.6" rx="1.3" ry="1.3"/>
<path class="st5" d="M124,206.3c0.7,0,1.3-0.6,1.3-1.3c0-0.7-0.6-1.3-1.3-1.3c-0.7,0-1.3,0.6-1.3,1.3
	C122.8,205.7,123.3,206.3,124,206.3z"/>
<ellipse class="st5" cx="127.3" cy="188.1" rx="1.3" ry="1.3"/>
<ellipse class="st5" cx="122.4" cy="167.2" rx="1.3" ry="1.3"/>
<path class="st5" d="M130.3,149.9c0.7,0,1.3-0.6,1.3-1.3c0-0.7-0.6-1.3-1.3-1.3c-0.7,0-1.3,0.6-1.3,1.3
	C129.1,149.4,129.6,149.9,130.3,149.9z"/>
<path class="st5" d="M117,141.7c0.7,0,1.3-0.6,1.3-1.3s-0.6-1.3-1.3-1.3c-0.7,0-1.3,0.6-1.3,1.3S116.3,141.7,117,141.7z"/>
<path class="st5" d="M133.5,138.4c0-0.7-0.6-1.3-1.3-1.3c-0.7,0-1.3,0.6-1.3,1.3s0.6,1.3,1.3,1.3
	C132.9,139.6,133.5,139.1,133.5,138.4z"/>
<ellipse class="st5" cx="129.9" cy="120.4" rx="1.3" ry="1.3"/>
<path class="st5" d="M124,136.1c-0.7,0-1.3,0.6-1.3,1.3s0.6,1.3,1.3,1.3c0.7,0,1.3-0.6,1.3-1.3S124.7,136.1,124,136.1z"/>
<path class="st5" d="M119.5,123.2c0-0.7-0.6-1.3-1.3-1.3c-0.7,0-1.3,0.6-1.3,1.3s0.6,1.3,1.3,1.3
	C118.9,124.5,119.5,123.9,119.5,123.2z"/>
<path class="st5" d="M126.5,147.3c0.7,0,1.3-0.6,1.3-1.3s-0.6-1.3-1.3-1.3c-0.7,0-1.3,0.6-1.3,1.3S125.7,147.3,126.5,147.3z"/>
<path class="st5" d="M125.5,113.9c0,0.7,0.6,1.3,1.3,1.3c0.7,0,1.3-0.6,1.3-1.3s-0.6-1.3-1.3-1.3
	C126.1,112.7,125.5,113.2,125.5,113.9z"/>
<ellipse class="st5" cx="128.9" cy="100.9" rx="1.3" ry="1.3"/>
<path class="st5" d="M130.2,107.2c-0.7,0-1.3,0.6-1.3,1.3s0.6,1.3,1.3,1.3c0.7,0,1.3-0.6,1.3-1.3S130.9,107.2,130.2,107.2z"/>
<path id="path7811" class="st6" d="M131.5,147.4c0.2-3.4-0.1-6.8-0.9-10.1c-0.3-1.6-1-3.1-2-4.4c-0.9-1.2-2.4-1.9-3.9-1.7
	c-1.5,0.1-2.9,0.8-3.9,2c-1,1.3-1.7,2.8-2,4.3c-0.8,3.3-1.1,6.7-0.9,10c0.1,0.9-0.6,1-0.8,0.1c-0.2-1.7-0.3-3.5-0.2-5.2
	c0-1.7,0.2-3.5,0.6-5.2c0.3-1.8,1.1-3.5,2.2-4.9c0.6-0.8,1.3-1.4,2.2-1.8c0.9-0.4,1.8-0.7,2.8-0.7c2-0.1,3.9,0.8,5.1,2.4
	c0.6,0.8,1,1.6,1.3,2.4c0.3,0.8,0.6,1.7,0.8,2.5c0.3,1.7,0.5,3.5,0.5,5.2c0.1,1.7-0.1,3.5-0.2,5.2
	C132.1,148.6,131.5,148.5,131.5,147.4L131.5,147.4z M161.6,147.5c-0.2-1.7-0.3-3.5-0.2-5.2c0-1.7,0.2-3.5,0.5-5.2
	c0.2-0.9,0.4-1.7,0.8-2.5c0.3-0.9,0.8-1.7,1.3-2.4c1.2-1.6,3.1-2.5,5.1-2.4c1,0.1,1.9,0.3,2.8,0.7c0.9,0.5,1.6,1,2.2,1.8
	c1.1,1.4,1.9,3.1,2.2,4.9c0.3,1.7,0.6,3.5,0.6,5.2c0.1,1.7-0.1,3.5-0.2,5.2c-0.1,1-0.8,0.9-0.8-0.1c0.2-3.4-0.1-6.8-0.9-10
	c-0.3-1.6-1-3.1-2-4.3c-1-1.2-2.4-1.9-3.9-2c-1.5-0.1-2.9,0.5-3.9,1.7c-0.9,1.3-1.6,2.8-2,4.4c-0.7,3.3-1,6.7-0.9,10.1
	C162.4,148.5,161.7,148.6,161.6,147.5L161.6,147.5z"/>
<path id="path7813" class="st7" d="M147.9,167.3c-4.3-0.3-7,2.6-8.4,5.1c1.4,4.2,3.8,7.3,7.9,7.1c4-0.2,6.5-3.4,8.2-7.5
	C154,170,151.7,167.7,147.9,167.3z"/>
<path class="st8" d="M150.3,178.7c-6.9-3-7.3-7.7-6.7-10.6c-1.9,1-3.3,2.7-4.2,4.3c1.4,4.2,3.8,7.3,7.9,7.1
	C148.4,179.5,149.4,179.2,150.3,178.7C150.3,178.7,150.3,178.7,150.3,178.7z"/>
<path id="path7823" class="st9" d="M137.3,154.2c0,0-0.6,10.8,2,18.3c1.4-2.5,4.1-5.5,8.4-5.1c3.8,0.3,6.1,2.7,7.5,4.8
	c3.1-7.5,3-17.9,3-17.9C146.3,162.5,137.3,154.2,137.3,154.2z"/>
<path id="path7825" class="st10" d="M123.4,171.2c10.2,0.2,6.4,25.9,6.1,34.2c-0.2,8.4,1.5,15.8,1.7,21.2c0.1,5.4,2.9,21.8-9.3,21.7
	s-4.7-32-4.6-38.6C117.3,209.7,113.3,170.9,123.4,171.2z M157.9,171.2c-10.2,0.2-6.4,25.9-6.1,34.2c0.2,8.4-1.5,15.8-1.7,21.2
	c-0.1,5.4-2.9,21.8,9.3,21.7c12.3-0.1,4.7-32,4.6-38.6C164.1,209.7,168.1,170.9,157.9,171.2z"/>
<path class="st3" d="M157.1,188.5c0.2-5.8,0.7-11.5,1.6-17.2c-0.2,0-0.5-0.1-0.8-0.1c-10.2,0.2-6.4,25.9-6.1,34.2
	c0.2,8.3-1.5,15.8-1.7,21.2c-0.2,5.2-2.7,20.4,7.8,21.6c-4-4.3-4.5-13.3-3.2-19.8c1.4-7.1,1.9-21.9,1.9-21.9l8-4.3
	c0.1-1.8,0.2-3.9,0.2-6.1C161.8,196.2,156.9,195.2,157.1,188.5z"/>
<path class="st3" d="M120.1,206.6l9.7-5.4c0.1-1.6,0.2-3.3,0.4-5.1c-1,0.2-9.7,1.7-9.5-7.5c0.2-5.8,0.8-11.6,2-17.2
	c-9.2,1.7-5.4,38.5-5.4,38.5c-0.1,6.6-7.6,38.5,4.6,38.6c0,0,0.1,0,0.1,0c-4.1-4.3-4.7-13.3-3.4-19.8
	C120,221.4,120.1,206.6,120.1,206.6z"/>
<path id="path7837" class="st11" d="M210.4,161.5c0,0,0.7-8.3,7.2-6.5c0,0,10.8,10.2,0,21.5c-10.8,11.2-21.6,14.7-34.9,17.9
	s-12.8,6.6-25.5,8c-12.6,1.4-15.2-4.3-15.1-9.4c0.1-5.1,4.7-11.5,16.1-11.2c11.4,0.2,10.1,4.5,21.7,2.6c11.6-1.9,23.6-7.9,27.6-10.9
	C211.4,170.4,215,166.2,210.4,161.5L210.4,161.5z M86.3,163.6c0,0-13,2.8-11.8,13.6c1.2,10.8,10.4,13,21.2,15.4s8.7,7.5,21.6,8.7
	c12.9,1.2,18-4.6,16.8-12.3s-14.1-7.2-28.8-7.3s-19-6.8-19-6.8V163.6z"/>
<path class="st12" d="M198.7,185.9c-18.7,7.6-27.4,6.3-27.4,6.3s-5.1,3.6-17.6,4c-7.4,0.3-10.4-2.1-11.6-4.1c0,0.3-0.1,0.5-0.1,0.8
	c-0.1,5.1,2.5,10.9,15.1,9.4c12.6-1.4,12.1-4.9,25.5-8c13.4-3.2,24.2-6.7,34.9-17.9c0.7-0.7,1.3-1.4,1.8-2.1
	C215.5,177.4,209,181.8,198.7,185.9z"/>
<path class="st12" d="M134.1,193.2c-10.5,5-24.9,1.8-28-1c-3.3-3-11.5-4.6-18.2-8c-6.8-3.5-2-9.8-2-9.8l0.4-0.5v-10.2
	c0,0-13,2.8-11.8,13.6c1.2,10.8,10.4,13,21.2,15.4c10.8,2.5,8.7,7.5,21.6,8.7C127.8,202.4,133.2,198.7,134.1,193.2z"/>
<path id="path7849" class="st13" d="M88.6,58.8h1.7v41.6h-1.7C88.6,100.4,88.6,58.8,88.6,58.8z M103.1,73.3h1.7v14.5h-1.7V73.3z
	 M218.8,52.4h1.7v32.4h-1.7V52.4z M203.7,75h1.7v16.8h-1.7C203.7,91.8,203.7,75,203.7,75z"/>
</svg>
