<svg xmlns="http://www.w3.org/2000/svg" viewBox="0 0 32 32"><path fill="#ffb300" d="M29.168 14.03a2.687 2.687 0 0 0-1.968-.83 2.51 2.51 0 0 0-1.929.8h-4.443l3.078-3.078a2.835 2.835 0 0 0 2.857-2.842 2.593 2.593 0 0 0-.831-1.969 2.823 2.823 0 0 0-2.014-.788 2.67 2.67 0 0 0-1.968.788 2.355 2.355 0 0 0-.812 1.922L18 11.17V6.726a2.51 2.51 0 0 0 .8-1.929 2.693 2.693 0 0 0-.832-1.968 2.745 2.745 0 0 0-3.936 0 2.687 2.687 0 0 0-.832 1.968 2.51 2.51 0 0 0 .8 1.93v4.443l-3.138-3.138a2.355 2.355 0 0 0-.812-1.922 2.66 2.66 0 0 0-1.968-.788 2.828 2.828 0 0 0-2.014.788 2.597 2.597 0 0 0-.831 1.969 2.742 2.742 0 0 0 .831 2.013 2.789 2.789 0 0 0 2.026.829l3.078 3.078H6.729a2.51 2.51 0 0 0-1.929-.8 2.694 2.694 0 0 0-1.968.831 2.745 2.745 0 0 0 0 3.937 2.688 2.688 0 0 0 1.968.832 2.51 2.51 0 0 0 1.929-.8h4.443l-3.078 3.077a2.835 2.835 0 0 0-2.857 2.842 2.593 2.593 0 0 0 .831 1.969 2.823 2.823 0 0 0 2.014.788 2.671 2.671 0 0 0 1.968-.788 2.355 2.355 0 0 0 .812-1.922L14 20.827v4.444a2.51 2.51 0 0 0-.8 1.929 2.784 2.784 0 0 0 4.768 1.968A2.687 2.687 0 0 0 18.8 27.2a2.51 2.51 0 0 0-.8-1.929v-4.444l3.138 3.138a2.355 2.355 0 0 0 .812 1.922 2.66 2.66 0 0 0 1.968.788 2.828 2.828 0 0 0 2.014-.788 2.597 2.597 0 0 0 .831-1.969 2.742 2.742 0 0 0-.831-2.013 2.788 2.788 0 0 0-2.026-.829L20.828 18h4.443a2.51 2.51 0 0 0 1.93.8 2.784 2.784 0 0 0 1.967-4.769Z"/></svg>