<svg xmlns="http://www.w3.org/2000/svg" viewBox="0 0 32 32">
  <path d="M29.1684,14.03021A2.68749,2.68749,0,0,0,27.2,13.19861a2.51031,2.51031,0,0,0-1.929.8H20.82837l3.07776-3.07776a2.83475,2.83475,0,0,0,2.857-2.842,2.5931,2.5931,0,0,0-.8316-1.96839A2.823,2.823,0,0,0,23.9184,5.3222,2.67072,2.67072,0,0,0,21.95,6.11041a2.35451,2.35451,0,0,0-.81231,1.922L18,11.1701v-4.444a2.51058,2.51058,0,0,0,.8-1.929,2.69343,2.69343,0,0,0-.83161-1.96838,2.74533,2.74533,0,0,0-3.93676,0A2.68742,2.68742,0,0,0,13.2,4.79718a2.51058,2.51058,0,0,0,.8,1.929v4.444L10.8623,8.03241a2.35451,2.35451,0,0,0-.81231-1.922A2.66055,2.66055,0,0,0,8.0816,5.3222a2.828,2.828,0,0,0-2.01318.78821,2.59708,2.59708,0,0,0-.8316,1.96839,2.7419,2.7419,0,0,0,.8316,2.01318,2.78857,2.78857,0,0,0,2.02545.82886l3.07776,3.07776H6.72894a2.51031,2.51031,0,0,0-1.92895-.8,2.69359,2.69359,0,0,0-1.96839.8316,2.74537,2.74537,0,0,0,0,3.93677A2.68772,2.68772,0,0,0,4.8,18.79858a2.51043,2.51043,0,0,0,1.92895-.8h4.44263L8.09381,21.07635a2.83475,2.83475,0,0,0-2.857,2.842,2.5931,2.5931,0,0,0,.8316,1.96838A2.82327,2.82327,0,0,0,8.0816,26.675,2.671,2.671,0,0,0,10.05,25.88678a2.35452,2.35452,0,0,0,.81231-1.92206L14,20.827v4.444a2.51058,2.51058,0,0,0-.8,1.929,2.78381,2.78381,0,0,0,4.76837,1.96839A2.68746,2.68746,0,0,0,18.8,27.2a2.51058,2.51058,0,0,0-.8-1.929V20.827l3.1377,3.13769A2.35452,2.35452,0,0,0,21.95,25.88678a2.66079,2.66079,0,0,0,1.96839.78821,2.82794,2.82794,0,0,0,2.01318-.78821,2.59706,2.59706,0,0,0,.8316-1.96838,2.74192,2.74192,0,0,0-.8316-2.01319,2.78847,2.78847,0,0,0-2.02539-.82886L20.82843,17.9986h4.44263a2.51043,2.51043,0,0,0,1.929.8,2.78381,2.78381,0,0,0,1.96839-4.76837Z" style="fill: #ffb300"/>
</svg>
