<svg xmlns="http://www.w3.org/2000/svg" viewBox="0 0 100 100"><path fill="#0288d1" d="M42.951 7.647c-.659 2.54-1.157 5.016-1.581 7.52a36.3 36.3 0 0 0-10.041 3.98c-2.023-1.43-4.084-2.814-6.268-4.084l-9.994 9.928a83 83 0 0 0 3.84 5.929 36.5 36.5 0 0 0-4.668 10.568c-2.202.395-4.385.847-6.587 1.43v14.107c2.051.546 4.084.97 6.135 1.336a36.4 36.4 0 0 0 4.527 11.5 70 70 0 0 0-3.237 5.091l9.985 9.985c1.693-.978 3.303-2.032 4.874-3.115a36.2 36.2 0 0 0 11.792 4.913 74 74 0 0 0 1.233 5.618h14.173c.499-1.92.904-3.84 1.261-5.75a36.5 36.5 0 0 0 11.443-4.988c1.694 1.148 3.388 2.259 5.138 3.303l9.976-9.994a82.09 82.081 0 0 0-3.548-5.486 36.5 36.5 0 0 0 4.235-11.011c2.24-.414 4.47-.857 6.71-1.45V42.908c-2.362-.63-4.725-1.11-7.143-1.515a36.8 36.8 0 0 0-4.357-10.069 86 86 0 0 0 4.14-6.342l-10.013-9.966c-2.268 1.336-4.423 2.776-6.53 4.281a36 36 0 0 0-9.76-4.027c-.423-2.541-.931-5.082-1.609-7.623zm6.7 16.544h.076a26.4 26.4 0 0 1 9.137 1.619c.669.244 1.318.508 1.967.846a26.8 26.8 0 0 1 12.855 12.545c.254.518.49 1.045.716 1.572a26.6 26.6 0 0 1 .498 18.925c-.103.301-.207.593-.32.847a26.85 26.85 0 0 1-13.947 14.653l-.178.122a26.73 26.73 0 0 1-20.986.198.1.1 0 0 0 0-.047A26.83 26.83 0 0 1 24.9 60.517l-.132-.358a26.66 26.66 0 0 1 .527-19.913c.15-.357.31-.715.49-1.063a26.9 26.9 0 0 1 13.456-12.846 26 26 0 0 1 1.779-.687 26.7 26.7 0 0 1 8.63-1.459zm8.686 6.474a3.68 3.68 0 0 0-3.52 4.894 3.6 3.6 0 0 0 .914 1.402l-3.388 5.873a7.44 7.44 0 0 0-3.341-.612 7.33 7.33 0 0 0-6.098 3.943l-7.265-2.851v-.076a3.388 3.388 0 1 0-.64 1.657l7.265 2.851a7.34 7.34 0 0 0 2.475 7.491l-3.388 5.289a4.4 4.4 0 0 0-1.92-.32 4.517 4.517 0 1 0 3.388 1.233l3.388-5.27a7.34 7.34 0 0 0 8.526-1.544l4.235 3.162a5.364 5.364 0 1 0 10.004 1.402 5.364 5.364 0 0 0-9.006-2.757L55.74 53.29a7.31 7.31 0 0 0-1.929-9.57l3.388-5.873a3.68 3.68 0 1 0 1.148-7.18z"/></svg>