<svg height="100" width="100" xmlns="http://www.w3.org/2000/svg">
  <path d="m41.68 0c-.78 3-1.37 5.92-1.87 8.88a42.91 42.91 0 0 0 -11.85 4.7c-2.39-1.69-4.83-3.33-7.41-4.83l-11.79 11.73c1.42 2.43 2.94 4.74 4.53 7a43.11 43.11 0 0 0 -5.51 12.48c-2.6.46-5.18 1-7.78 1.68v16.65c2.42.64 4.82 1.14 7.24 1.58a42.95 42.95 0 0 0 5.34 13.58 82.71 82.71 0 0 0 -3.82 6.01l11.79 11.79c2-1.16 3.9-2.4 5.76-3.68a42.76 42.76 0 0 0 13.92 5.8c.4 2.22.88 4.42 1.45 6.63h16.73c.59-2.27 1.07-4.53 1.49-6.79a43.08 43.08 0 0 0 13.51-5.89c2 1.36 4 2.67 6.07 3.9l11.79-11.79a96.92 96.91 0 0 0 -4.19-6.48 43.13 43.13 0 0 0 5-13c2.64-.48 5.28-1.01 7.92-1.71v-16.61c-2.79-.74-5.58-1.31-8.43-1.79a43.43 43.43 0 0 0 -5.15-11.88c1.72-2.41 3.36-4.89 4.89-7.49l-11.82-11.77c-2.68 1.58-5.22 3.28-7.71 5.05a42.49 42.49 0 0 0 -11.52-4.75c-.51-3-1.11-6-1.9-9zm7.91 19.53a31.51 31.51 0 0 1 .09 0 31.13 31.13 0 0 1 10.79 1.91c.79.29 1.56.6 2.32 1a31.65 31.65 0 0 1 15.18 14.81c.3.61.58 1.23.84 1.86a31.41 31.41 0 0 1 .59 22.34c-.12.35-.24.7-.38 1a31.7 31.7 0 0 1 -16.47 17.31l-.21.14a31.55 31.55 0 0 1 -24.78.23.13.13 0 0 0 0-.06 31.68 31.68 0 0 1 -17.19-17.65l-.16-.42a31.48 31.48 0 0 1 .62-23.51c.18-.42.37-.84.58-1.26a31.75 31.75 0 0 1 15.89-15.17 30.66 30.66 0 0 1 2.1-.81 31.51 31.51 0 0 1 10.19-1.72zm10.25 7.64a4.34 4.34 0 0 0 -4.15 5.78 4.27 4.27 0 0 0 1.08 1.66l-4 6.93a8.79 8.79 0 0 0 -3.94-.72 8.65 8.65 0 0 0 -7.2 4.66l-8.58-3.37v-.09a4 4 0 1 0 -.75 1.95l8.58 3.37a8.67 8.67 0 0 0 2.92 8.84l-4 6.24a5.23 5.23 0 0 0 -2.27-.38 5.33 5.33 0 1 0 4 1.45l4-6.22a8.67 8.67 0 0 0 10.07-1.82l5 3.73a6.33 6.33 0 1 0 11.8 1.68 6.33 6.33 0 0 0 -10.63-3.26l-4.99-3.71a8.63 8.63 0 0 0 -2.28-11.3l4-6.93a4.34 4.34 0 1 0 1.35-8.48z" fill="#3e7fc1" />
</svg>
