<svg version="1.1" viewBox="0 0 100 100" xmlns="http://www.w3.org/2000/svg">
 <path d="m42.951 7.6469c-0.65875 2.5409-1.1575 5.0159-1.581 7.5192a36.344 36.344 0 0 0-10.041 3.9807c-2.0233-1.4304-4.0843-2.8138-6.2676-4.0843l-9.9942 9.9283c1.2046 2.061 2.4938 4.0184 3.8396 5.9288a36.514 36.514 0 0 0-4.6677 10.568c-2.2021 0.39525-4.3854 0.84697-6.5875 1.4304v14.107c2.0515 0.54582 4.0843 0.96931 6.1358 1.3363a36.382 36.382 0 0 0 4.5266 11.5 70.054 70.054 0 0 0-3.2373 5.0912l9.9848 9.9848c1.6939-0.97872 3.3032-2.0327 4.8748-3.115a36.213 36.213 0 0 0 11.792 4.9124c0.33879 1.8821 0.74345 3.7455 1.2328 5.6182h14.173c0.49877-1.9198 0.90343-3.8396 1.261-5.75a36.485 36.485 0 0 0 11.443-4.9877c1.6939 1.1481 3.3879 2.2586 5.1383 3.3032l9.9754-9.9942a82.09 82.081 0 0 0-3.5479-5.4865 36.533 36.533 0 0 0 4.2348-11.011c2.2398-0.41407 4.4701-0.85638 6.7099-1.4493v-14.069c-2.3621-0.63052-4.7242-1.1105-7.1428-1.5151a36.787 36.787 0 0 0-4.3572-10.069c1.4587-2.0421 2.842-4.1407 4.1407-6.3428l-10.013-9.966c-2.268 1.3363-4.423 2.7762-6.5311 4.2819a35.987 35.987 0 0 0-9.7589-4.0278c-0.42348-2.5409-0.93166-5.0818-1.6092-7.6227zm6.7004 16.544a26.689 26.689 0 0 1 0.07529 0 26.369 26.369 0 0 1 9.1378 1.6186c0.66816 0.24468 1.3175 0.50818 1.9668 0.84697a26.811 26.811 0 0 1 12.855 12.545c0.25409 0.51759 0.48936 1.0446 0.71522 1.5716a26.604 26.604 0 0 1 0.49877 18.925c-0.10352 0.30114-0.20704 0.59288-0.31997 0.84697a26.849 26.849 0 0 1-13.947 14.653l-0.1788 0.12234a26.727 26.727 0 0 1-20.986 0.19762 0.11293 0.11293 0 0 0 0-0.04705 26.83 26.83 0 0 1-14.568-14.954l-0.13175-0.35761a26.661 26.661 0 0 1 0.527-19.913c0.15057-0.35761 0.31056-0.71522 0.48936-1.0634a26.896 26.896 0 0 1 13.457-12.846 25.964 25.964 0 0 1 1.7786-0.68698 26.689 26.689 0 0 1 8.6297-1.4587zm8.6861 6.4746a3.6796 3.6796 0 0 0-3.5196 4.8936 3.6137 3.6137 0 0 0 0.91284 1.4022l-3.3879 5.8723a7.4439 7.4439 0 0 0-3.3408-0.6117 7.331 7.331 0 0 0-6.0982 3.9431l-7.2651-2.8515v-0.07529a3.3879 3.3879 0 1 0-0.63993 1.6563l7.2651 2.8515a7.3404 7.3404 0 0 0 2.475 7.491l-3.3879 5.2888a4.4325 4.4325 0 0 0-1.9198-0.31997 4.5172 4.5172 0 1 0 3.3879 1.2328l3.3879-5.27a7.3404 7.3404 0 0 0 8.5261-1.5434l4.2348 3.162a5.3641 5.3641 0 1 0 10.004 1.4022 5.3641 5.3641 0 0 0-9.0061-2.7573l-4.2254-3.1432a7.3121 7.3121 0 0 0-1.9292-9.5707l3.3879-5.8723a3.6796 3.6796 0 1 0 1.1481-7.1804z" fill="#0288d1" stroke-width=".84697"/>
</svg>
