<svg height="100" width="100" xmlns="http://www.w3.org/2000/svg">
  <path d="m42.51 5c-.7 2.7-1.23 5.33-1.68 7.99a38.62 38.62 0 0 0 -10.67 4.23c-2.15-1.52-4.34-2.99-6.66-4.34l-10.62 10.55c1.28 2.19 2.65 4.27 4.08 6.3a38.8 38.8 0 0 0 -4.96 11.23c-2.34.42-4.66.9-7 1.52v14.99c2.18.58 4.34 1.03 6.52 1.42a38.66 38.66 0 0 0 4.81 12.22 74.44 74.44 0 0 0 -3.44 5.41l10.61 10.61c1.8-1.04 3.51-2.16 5.18-3.31a38.48 38.48 0 0 0 12.53 5.22c.36 2 .79 3.98 1.31 5.97h15.06c.53-2.04.96-4.08 1.34-6.11a38.77 38.77 0 0 0 12.16-5.3c1.8 1.22 3.6 2.4 5.46 3.51l10.6-10.62a87.23 87.22 0 0 0 -3.77-5.83 38.82 38.82 0 0 0 4.5-11.7c2.38-.44 4.75-.91 7.13-1.54v-14.95c-2.51-.67-5.02-1.18-7.59-1.61a39.09 39.09 0 0 0 -4.63-10.7c1.55-2.17 3.02-4.4 4.4-6.74l-10.64-10.59c-2.41 1.42-4.7 2.95-6.94 4.55a38.24 38.24 0 0 0 -10.37-4.28c-.45-2.7-.99-5.4-1.71-8.1zm7.12 17.58a28.36 28.36 0 0 1 .08 0 28.02 28.02 0 0 1 9.71 1.72c.71.26 1.4.54 2.09.9a28.49 28.49 0 0 1 13.66 13.33c.27.55.52 1.11.76 1.67a28.27 28.27 0 0 1 .53 20.11c-.11.32-.22.63-.34.9a28.53 28.53 0 0 1 -14.82 15.57l-.19.13a28.4 28.4 0 0 1 -22.3.21.12.12 0 0 0 0-.05 28.51 28.51 0 0 1 -15.48-15.89l-.14-.38a28.33 28.33 0 0 1 .56-21.16c.16-.38.33-.76.52-1.13a28.58 28.58 0 0 1 14.3-13.65 27.59 27.59 0 0 1 1.89-.73 28.36 28.36 0 0 1 9.17-1.55zm9.23 6.88a3.91 3.91 0 0 0 -3.74 5.2 3.84 3.84 0 0 0 .97 1.49l-3.6 6.24a7.91 7.91 0 0 0 -3.55-.65 7.79 7.79 0 0 0 -6.48 4.19l-7.72-3.03v-.08a3.6 3.6 0 1 0 -.68 1.76l7.72 3.03a7.8 7.8 0 0 0 2.63 7.96l-3.6 5.62a4.71 4.71 0 0 0 -2.04-.34 4.8 4.8 0 1 0 3.6 1.31l3.6-5.6a7.8 7.8 0 0 0 9.06-1.64l4.5 3.36a5.7 5.7 0 1 0 10.63 1.49 5.7 5.7 0 0 0 -9.57-2.93l-4.49-3.34a7.77 7.77 0 0 0 -2.05-10.17l3.6-6.24a3.91 3.91 0 1 0 1.22-7.63z" fill="#0288d1" stroke-width=".9" />
</svg>
