<svg viewBox="0 0 24 24" fill="none" xmlns="http://www.w3.org/2000/svg">
<path d="M12.0699 21.6596C6.78204 21.6596 2.47989 17.3579 2.47989 12.0698C2.47989 6.78173 6.78204 2.47998 12.0699 2.47998C17.3578 2.47998 21.6599 6.78214 21.6599 12.07C21.6599 17.3579 17.3578 21.6596 12.0699 21.6596Z" fill="#64DD17"/>
<path d="M12.0699 2.95995C17.1013 2.95995 21.1798 7.03847 21.1798 12.0699C21.1798 17.1011 17.1013 21.1799 12.0699 21.1799C7.03867 21.1799 2.95995 17.1011 2.95995 12.0699C2.95995 7.03867 7.03867 2.95995 12.0699 2.95995ZM12.0699 2C6.51733 2 2 6.51733 2 12.0699C2 17.6225 6.51733 22.1398 12.0699 22.1398C17.6225 22.1398 22.14 17.6225 22.14 12.0699C22.14 6.51733 17.6225 2 12.0699 2Z" fill="#263238"/>
<path d="M8.34082 8.81469C8.30982 9.1593 8.3523 9.51558 8.32935 9.86402C8.30218 10.2126 8.2595 10.5573 8.18986 10.9019C8.09304 11.3936 7.78708 11.7654 7.36517 12.0752C8.18623 12.6096 8.27903 13.4381 8.33317 14.2785C8.36035 14.7316 8.34867 15.1885 8.39517 15.6376C8.42999 15.986 8.56546 16.0752 8.92577 16.0867C9.07291 16.0905 9.22368 16.0867 9.39437 16.0867V17.1632C8.32955 17.3451 7.45052 17.0432 7.23353 16.141C7.16368 15.8119 7.11718 15.475 7.10189 15.1342C7.07854 14.7741 7.11718 14.414 7.09021 14.0539C7.01272 13.0663 6.8849 12.7334 5.94025 12.6869V11.4594C6.00989 11.4439 6.07571 11.4323 6.14536 11.4246C6.66428 11.3974 6.8849 11.2386 6.99722 10.7275C7.05156 10.4411 7.08256 10.1507 7.09404 9.85637C7.13289 9.29497 7.11739 8.7219 7.21401 8.16433C7.34947 7.3628 7.84525 6.97551 8.67013 6.92902C8.90242 6.91734 9.13873 6.92902 9.40584 6.92902V8.02886C9.29352 8.03671 9.1967 8.05201 9.09606 8.05201C8.42617 8.02866 8.39114 8.25712 8.34082 8.81469ZM9.63028 11.3626H9.61478C9.2275 11.3433 8.89457 11.6452 8.87504 12.0325C8.85572 12.4236 9.15765 12.7567 9.54494 12.7759H9.59143C9.97489 12.7992 10.3038 12.5047 10.3271 12.1215V12.0828C10.335 11.6917 10.0214 11.3705 9.63028 11.3626ZM12.0582 11.3626C11.6826 11.3509 11.3688 11.6452 11.3573 12.017C11.3573 12.0404 11.3573 12.0597 11.3614 12.0828C11.3614 12.5049 11.6478 12.7761 12.0816 12.7761C12.5075 12.7761 12.7748 12.4973 12.7748 12.0597C12.7708 11.6376 12.488 11.3588 12.0582 11.3626ZM14.5444 11.3626C14.1494 11.3548 13.8201 11.6686 13.8086 12.0635C13.8086 12.4584 14.1261 12.7759 14.521 12.7759H14.5289C14.8851 12.8379 15.2452 12.4933 15.2686 12.079C15.2877 11.6955 14.9393 11.3626 14.5444 11.3626ZM17.9558 11.4206C17.5065 11.4013 17.2819 11.2503 17.1698 10.8242C17.0999 10.5532 17.0575 10.2704 17.042 9.99163C17.011 9.47271 17.0148 8.94996 16.98 8.43104C16.8986 7.19975 16.0081 6.77 14.7146 6.98276V8.05161C14.9198 8.05161 15.0786 8.05161 15.2374 8.05543C15.5124 8.05926 15.7215 8.16393 15.7485 8.46989C15.7756 8.74867 15.7756 9.03128 15.8028 9.31409C15.8572 9.87569 15.888 10.4447 15.9848 10.9985C16.0701 11.4554 16.3837 11.7962 16.7746 12.075C16.0895 12.5357 15.888 13.1939 15.8531 13.9337C15.8338 14.4409 15.8221 14.952 15.7952 15.4633C15.7718 15.9279 15.6094 16.0788 15.1408 16.0905C15.0091 16.0943 14.8813 16.106 14.7342 16.1138V17.2097C15.0091 17.2097 15.2607 17.2252 15.5124 17.2097C16.2946 17.1632 16.767 16.7837 16.922 16.0247C16.9878 15.6064 17.0265 15.1845 17.0381 14.7624C17.0651 14.3751 17.0615 13.984 17.1001 13.6008C17.1581 13.0005 17.4331 12.7527 18.0333 12.7141C18.0915 12.7062 18.1456 12.6947 18.2 12.6754V11.4478C18.0991 11.4361 18.0293 11.4246 17.9558 11.4206Z" fill="#263238"/>
</svg>
