<svg xmlns="http://www.w3.org/2000/svg" viewBox="0 0 32 32"><path d="M4,2A2,2,0,0,0,2,4V30H25.17157a2,2,0,0,0,1.41422-.58579l2.82842-2.82842A2,2,0,0,0,30,25.17157V2Z" style="fill:#00e676"/><path d="M20.115,6l-8.75567,9.62771a1.08608,1.08608,0,0,1-1.63854-.00159,1.28134,1.28134,0,0,1-.22719-.35485L6.10082,7.38609a1.01494,1.01494,0,0,1,.42118-1.293A.81737.81737,0,0,1,6.9004,6ZM8.23726,25.58793A1.293,1.293,0,0,1,6,24.70757v-5.8298a.84433.84433,0,0,1,.82117-.87733h8.51795Zm7.80774-9.588H13.22489l8.48562-9.33065A1.989,1.989,0,0,1,23.17994,6H26l-8.48546,9.33064A1.98906,1.98906,0,0,1,16.045,15.9999Z" style="fill:#263238"/></svg>
