<svg viewBox="0 0 24 24" fill="none" xmlns="http://www.w3.org/2000/svg">
  <path
    d="M21.34 16.078a2.335 2.335 0 0 1-1.662-.688L16.22 11.93a2.332 2.332 0 0 1-.65-2.09h-1.023a.408.408 0 0 0-.396.264.408.408 0 0 0 .094.468l1.495 1.495a2.332 2.332 0 0 1 .511 2.56c-.173.416-.456.771-.818 1.028-.394.276-.86.422-1.351.422h-.048a2.335 2.335 0 0 1-1.661-.688l-.331-.332a2.302 2.302 0 0 1-.586.596c-.394.276-.86.422-1.351.422a2.335 2.335 0 0 1-1.661-.689L3.02 9.963a.425.425 0 0 0-.302-.125.408.408 0 0 0-.396.264.408.408 0 0 0 .093.468l1.495 1.496a2.332 2.332 0 0 1 .512 2.56c-.173.416-.456.77-.819 1.028-.393.276-.859.422-1.351.422h-.684a.96.96 0 1 1 0-1.92h.674c.25 0 .356-.165.396-.264a.408.408 0 0 0-.093-.468l-1.493-1.493a2.332 2.332 0 0 1-.511-2.56c.173-.416.456-.77.818-1.028a2.344 2.344 0 0 1 1.354-.422c.626 0 1.217.245 1.66.689l5.425 5.424c.081.081.19.124.302.124.25 0 .355-.165.396-.263a.407.407 0 0 0-.091-.466L6.536 9.56a.96.96 0 1 1 1.358-1.358l3.867 3.866.005.005 1.96 1.96c.082.082.19.126.303.126h.048c.25 0 .355-.166.396-.264a.408.408 0 0 0-.094-.468l-1.493-1.496a2.332 2.332 0 0 1-.51-2.56c.172-.416.455-.77.818-1.028a2.344 2.344 0 0 1 1.353-.422h3.91a.96.96 0 1 1 0 1.92h-.576a.408.408 0 0 0-.396.264.408.408 0 0 0 .093.468l3.459 3.458c.081.082.19.125.302.125a.396.396 0 0 0 .396-.396.96.96 0 1 1 1.92 0 2.318 2.318 0 0 1-2.316 2.318Z"
    fill="url(#a)" />
  <path
    d="M21.34 15.238a1.5 1.5 0 0 1-1.069-.442l-3.458-3.458a1.486 1.486 0 0 1-.326-1.644c.122-.293.321-.53.568-.692h-2.508c-.523 0-.972.3-1.173.783a1.247 1.247 0 0 0 .276 1.382l1.495 1.495c.44.44.564 1.07.326 1.644a1.487 1.487 0 0 1-1.394.932h-.048a1.5 1.5 0 0 1-1.068-.442l-1.38-1.38c.062.29.034.598-.086.89a1.487 1.487 0 0 1-1.395.932 1.5 1.5 0 0 1-1.068-.442L3.608 9.372C3.368 9.132 3.05 9 2.711 9c-.524 0-.972.3-1.174.782-.2.483-.094 1.013.276 1.383l1.495 1.495c.44.44.564 1.07.327 1.644a1.487 1.487 0 0 1-1.395.931h-.672a.119.119 0 0 1-.12-.12c0-.067.053-.12.12-.12h.675c.523 0 .972-.3 1.173-.782a1.247 1.247 0 0 0-.276-1.383l-1.495-1.495a1.482 1.482 0 0 1-.326-1.641c.237-.576.77-.934 1.394-.934a1.5 1.5 0 0 1 1.068.442l5.424 5.424c.24.24.56.372.898.372.523 0 .972-.3 1.173-.783.2-.482.096-1.01-.273-1.38L7.13 8.966a.119.119 0 0 1 0-.17.119.119 0 0 1 .17 0l3.867 3.866.003.003 1.96 1.96c.24.24.56.373.898.373h.048c.523 0 .972-.3 1.174-.783.199-.482.093-1.013-.276-1.382l-1.496-1.495a1.486 1.486 0 0 1-.326-1.644 1.487 1.487 0 0 1 1.394-.932h3.91c.067 0 .12.053.12.12 0 .068-.053.12-.12.12h-.576c-.523 0-.972.3-1.174.783-.199.482-.093 1.013.276 1.382l3.459 3.459c.24.24.559.372.897.372.682 0 1.236-.555 1.236-1.236 0-.068.053-.12.12-.12.068 0 .12.052.12.12a1.475 1.475 0 0 1-1.476 1.476Z"
    fill="#fff" />
  <defs>
    <linearGradient id="a" x1=".36" y1="12" x2="23.657" y2="12" gradientUnits="userSpaceOnUse">
      <stop stop-color="#FFA588" />
      <stop offset=".271" stop-color="#FCB371" />
      <stop offset=".836" stop-color="#F4D837" />
      <stop offset="1" stop-color="#F1E425" />
    </linearGradient>
  </defs>
</svg>