<svg xmlns="http://www.w3.org/2000/svg" fill="none" viewBox="0 0 16 16"><path fill="#ffca28" d="m2.327 5.5-.07.01a1 1 0 0 0-.15.023 1 1 0 0 0-.158.044l-.098.04a1.4 1.4 0 0 0-.564.456l-.07.096c-.052.07-.164.348-.185.461-.038.2-.042.421-.012.569.05.246.123.411.263.602.035.048.288.316.563.595.358.365.503.523.52.559a.266.266 0 0 1-.134.346c-.041.018-.14.022-.367.023-.145 0-.288.006-.317.012a.58.58 0 0 0-.453.552.6.6 0 0 0 .259.514c.117.082.202.097.55.097.26 0 .41-.007.52-.032l.064-.013c.106-.02.414-.165.465-.22a1.6 1.6 0 0 0 .318-.323 1.6 1.6 0 0 0 .264-.683c.01-.084.01-.298.001-.347-.003-.017-.011-.064-.02-.106a1.5 1.5 0 0 0-.266-.592c-.037-.048-.29-.314-.563-.593-.542-.554-.543-.554-.53-.673.022-.184.198-.29.359-.215.038.016.466.448 1.721 1.726.918.938 1.689 1.72 1.711 1.738q.065.052.134.098c.494.33 1.132.31 1.614-.046.076-.056.223-.206.282-.285l.041-.056.135.136c.119.119.15.149.206.194.007.005.045.033.087.06.467.316 1.124.31 1.593-.017.082-.057.11-.08.197-.166a1.5 1.5 0 0 0 .398-.778c.018-.091.02-.408.005-.485a1.6 1.6 0 0 0-.262-.618 12 12 0 0 0-.553-.588 20 20 0 0 1-.519-.54.3.3 0 0 1-.02-.23.3.3 0 0 1 .116-.14c.033-.019.078-.021.388-.025l.35-.003-.01.064c-.011.075-.01.358 0 .416l.014.078c.016.082.058.21.101.304.108.236.094.22 1.29 1.442a53 53 0 0 0 1.204 1.21c.201.16.384.243.634.289a1.6 1.6 0 0 0 .388.012 1.42 1.42 0 0 0 1.233-1.26c.029-.281-.042-.476-.222-.62a.56.56 0 0 0-.635-.04.6.6 0 0 0-.29.495c-.009.18-.144.286-.31.244-.056-.013-.098-.055-1.13-1.105-.59-.6-1.086-1.115-1.103-1.142a.27.27 0 0 1 .047-.315c.064-.062.103-.07.355-.07.283 0 .365-.017.487-.102a.592.592 0 0 0-.06-1.014c-.12-.063-.104-.062-1.425-.063-1.31 0-1.376.002-1.526.043l-.065.016a2 2 0 0 0-.223.09c-.156.08-.366.255-.478.396-.077.1-.18.297-.225.429-.146.433-.086.888.165 1.271.06.092.165.206.588.64.283.29.524.542.535.562.042.084.02.214-.05.291-.058.065-.095.079-.2.079-.077 0-.103-.005-.135-.026a167 167 0 0 1-1.826-1.845c-1.345-1.371-1.803-1.83-1.854-1.862a.58.58 0 0 0-.432-.067.61.61 0 0 0-.429.455.63.63 0 0 0 .092.449c.017.026.573.6 1.235 1.275 1.096 1.12 1.205 1.232 1.218 1.281a.28.28 0 0 1-.049.254c-.058.082-.212.114-.31.062-.022-.013-.803-.8-1.735-1.748-1.344-1.37-1.712-1.738-1.785-1.787a1.4 1.4 0 0 0-.775-.257c-.063 0-.116-.002-.117 0z"/></svg>