<svg xmlns="http://www.w3.org/2000/svg" width="1246" height="1247" fill="none"><path fill="#FFD54F" d="M186.96 435.04c-.1.09-2.53.36-5.42.72-2.8.27-6.04.72-7.21 1-1.09.26-2.98.62-4.24.8-3.07.45-9.93 2.35-12.18 3.34-1 .36-4.33 1.72-7.5 2.98-15.87 6.31-32.11 19.13-43.39 34.37-2.53 3.43-4.96 6.68-5.32 7.22-4.06 5.32-12.63 26.26-14.26 34.74-2.89 15.07-3.25 31.76-.9 42.85 3.88 18.6 9.47 31.04 20.21 45.39 2.7 3.6 22.1 23.82 43.22 44.84 27.52 27.52 38.7 39.43 39.97 42.13 4.42 9.75-.19 21.57-10.29 26.08-3.16 1.35-6.4 1.62-23.9 1.71-11.1 0-22.11.45-24.37.9a44.13 44.13 0 0 0-34.74 41.6c-.54 15.7 6.6 29.59 19.85 38.8 9.03 6.13 15.52 7.3 42.32 7.3 19.94 0 27.16-.54 35.64-2.43 1.26-.28 3.43-.73 4.87-1 8.2-1.44 31.85-12.45 35.73-16.6a55.7 55.7 0 0 1 3.88-2.98c5.95-4.5 15.06-13.9 20.57-21.38 10.1-13.8 18.22-34.46 20.3-51.43.72-6.31.81-22.46.09-26.16-.27-1.26-.9-4.78-1.53-7.94-2.62-14.62-10.92-32.57-20.49-44.66-2.8-3.61-22.28-23.64-43.21-44.66-41.69-41.78-41.78-41.78-40.7-50.7 1.63-13.9 15.16-21.84 27.52-16.25 2.9 1.26 35.82 33.75 132.27 130.1 70.56 70.65 129.74 129.56 131.46 131a148 148 0 0 0 10.28 7.32c37.99 24.9 86.98 23.46 124.06-3.43 5.78-4.24 17.14-15.52 21.65-21.48l3.16-4.24 10.38 10.29c9.11 8.93 11.55 11.19 15.79 14.62.54.36 3.51 2.43 6.67 4.5 35.91 23.83 86.44 23.38 122.44-1.26 6.31-4.33 8.39-6.04 15.15-12.54 14.98-14.52 26.53-36.54 30.59-58.64 1.35-6.86 1.53-30.77.36-36.54-.27-1.27-.72-3.7-1-5.42-2.34-12-10.37-29.4-19.12-41.14-2.62-3.6-21.74-23.55-42.5-44.3-20.75-20.75-38.7-39.16-39.87-40.78-2.8-3.88-3.52-12.63-1.54-17.32 1.8-4.33 5.33-8.48 8.93-10.47 2.53-1.44 5.96-1.62 29.78-1.9l26.88-.26-.72 4.78c-.9 5.68-.8 26.98 0 31.4.37 1.71.82 4.33 1.09 5.86 1.17 6.14 4.42 15.79 7.76 22.92 8.3 17.77 7.21 16.5 99.06 108.63 46.92 47.1 88.6 88.14 92.57 91.21 15.43 12 29.5 18.32 48.72 21.75 8.3 1.44 22.83 1.9 29.77.9 9.57-1.44 14.62-2.53 21.03-4.6 40.06-12.9 69.29-48.81 73.71-90.4 2.25-21.12-3.16-35.82-17.05-46.65-13.99-10.83-32.93-12-48.81-3.07-13 7.22-21.39 21.47-22.2 37.35-.72 13.54-11.1 21.57-23.91 18.4-4.24-.98-7.49-4.14-86.8-83.27-45.28-45.2-83.45-84-84.71-86.07-4.24-7.13-2.62-17.77 3.6-23.73 4.88-4.7 7.86-5.32 27.25-5.32 21.75 0 28.06-1.27 37.45-7.67a44.2 44.2 0 0 0-4.7-76.42c-9.1-4.7-7.93-4.6-109.44-4.7-100.69 0-105.74.19-117.29 3.26-1.98.45-4.24 1.08-4.96 1.17-2.7.63-13.26 4.78-17.14 6.77-12 6.04-28.15 19.21-36.72 29.86-5.96 7.49-13.9 22.37-17.33 32.3-11.18 32.66-6.58 66.95 12.73 95.82 4.6 6.94 12.63 15.51 45.2 48.18 21.74 21.83 40.24 40.87 41.05 42.4 3.25 6.32 1.62 16.15-3.79 21.93-4.51 4.87-7.3 5.95-15.43 5.95-5.86 0-7.85-.36-10.37-1.99-1.72-1.08-64.78-63.6-140.3-139.03-103.3-103.3-138.5-137.95-142.46-140.3-9.75-5.86-21.93-7.67-33.2-5.05-15.8 3.7-29.87 18.4-32.94 34.28-2.16 11.28.54 24.28 7.04 33.84 1.35 1.98 44.03 45.2 94.92 96.09 84.26 84.36 92.56 92.84 93.56 96.54 1.98 7.12.9 12.63-3.7 19.12-4.51 6.23-16.33 8.58-23.82 4.7-1.72-1-61.71-60.27-133.35-131.73-103.3-103.3-131.55-131-137.14-134.7-18.95-12.64-37.9-18.77-59.55-19.31-4.87-.1-8.93-.18-9.02-.1Z"/></svg>