<svg xmlns="http://www.w3.org/2000/svg" viewBox="0 0 100 100"><path fill="#8bc34a" d="M46.677 7.772a38.832 38.832 0 0 1 10.83.571 45.062 45.062 0 0 1 7.226 2.046 52.725 52.725 0 0 1 4.89 2.263c3.022 1.662 5.888 3.666 8.338 6.106a50.773 50.773 0 0 1 3.572 3.893 47.025 47.025 0 0 1 3.354 4.953 38.23 38.23 0 0 1 3.935 9.47 20.04 20.04 0 0 1 .862 5.18c-.478-.353-.852-.82-1.257-1.256-2.523-2.845-4.942-5.794-7.413-8.701-1.111-1.267-2.18-2.596-3.395-3.769-.956.83-1.662 1.89-2.482 2.845-2.326 2.783-4.651 5.565-7.008 8.317a10.175 10.175 0 0 0-1.392-2.866 22.374 22.374 0 0 0-3.177-3.883 18.752 18.752 0 0 0-12.21-5.244 18.897 18.897 0 0 0-5.607.468 16.862 16.862 0 0 0-4.496 1.599 18.17 18.17 0 0 0-6.822 5.939 15.263 15.263 0 0 0-2.284 4.506c3.24.01 6.48-.02 9.719 0-.924 1.318-1.994 2.523-3.011 3.769-2.607 3.115-5.275 6.209-7.891 9.345a100.123 100.123 0 0 1-3.136 3.81c-1.734 2.18-3.572 4.278-5.4 6.375a8.545 8.545 0 0 1-.83-.727c-1.267-1.266-2.44-2.616-3.624-3.955-3.83-4.413-7.538-8.93-11.286-13.405-1.017-1.204-2.014-2.43-3.084-3.572-.415-.467-.81-.945-1.142-1.474 2.856 0 5.71-.042 8.556-.083a36.133 36.133 0 0 1 3.956-11.889 41.895 41.895 0 0 1 5.243-7.527 39.269 39.269 0 0 1 6.126-5.514 40.618 40.618 0 0 1 20.35-7.58z"/><path fill="#2e7d32" d="M77.567 36.502c.727.55 1.318 1.246 1.952 1.89 2.544 2.762 4.953 5.648 7.372 8.514 2.637 3.136 5.243 6.302 7.89 9.428.904 1.11 1.974 2.087 2.763 3.291-2.856.02-5.71.042-8.566.093a36.34 36.34 0 0 1-5.752 14.827c-.758 1.163-1.558 2.305-2.44 3.385A40.483 40.483 0 0 1 48.13 92.342a45.062 45.062 0 0 1-7.715-1.142 49.552 49.552 0 0 1-5.534-1.745 45.031 45.031 0 0 1-6.157-3.063 35.084 35.084 0 0 1-6.956-5.42c-1.143-1.142-2.254-2.325-3.281-3.582a46.62 46.62 0 0 1-3.354-4.932 38.313 38.313 0 0 1-3.998-9.635c-.446-1.661-.83-3.343-.861-5.067.415.239.706.633 1.038.976 2.73 3.053 5.316 6.23 7.995 9.345.997 1.142 1.941 2.346 3.052 3.385.841-.727 1.485-1.62 2.18-2.471a829.3 829.3 0 0 1 7.31-8.691c.291 1.11.893 2.108 1.506 3.063a19.738 19.738 0 0 0 7.278 6.749 17.963 17.963 0 0 0 4.89 1.734c1.911.405 3.884.612 5.826.436 1.35-.104 2.689-.384 3.997-.685a19.105 19.105 0 0 0 7.912-4.569 20.35 20.35 0 0 0 3.188-4.08c.591-.997 1.1-2.046 1.412-3.157H58.14c.665-.976 1.433-1.869 2.18-2.762 2.617-3.167 5.296-6.271 7.933-9.417 1.205-1.391 2.285-2.887 3.52-4.267.976-1.163 1.91-2.378 2.907-3.53.956-1.122 1.942-2.212 2.908-3.323z"/></svg>