<svg version="1.1" viewBox="0 0 100 100" xmlns="http://www.w3.org/2000/svg">
 <g class="layer" transform="matrix(.10383 0 0 .10383 .36921 5.54)">
  <path d="m446 21.5a374 374 0 0 1 104.3 5.5 434 434 0 0 1 69.6 19.7 507.8 507.8 0 0 1 47.1 21.8c29.1 16 56.7 35.3 80.3 58.8a489 489 0 0 1 34.4 37.5 452.9 452.9 0 0 1 32.3 47.7 368.2 368.2 0 0 1 37.9 91.2 193 193 0 0 1 8.3 49.9c-4.6-3.4-8.2-7.9-12.1-12.1-24.3-27.4-47.6-55.8-71.4-83.8-10.7-12.2-21-25-32.7-36.3-9.2 8-16 18.2-23.9 27.4-22.4 26.8-44.8 53.6-67.5 80.1a98 98 0 0 0-13.4-27.6c-8.8-13.5-19-26.2-30.6-37.4a180.6 180.6 0 0 0-117.6-50.5 182 182 0 0 0-54 4.5 162.4 162.4 0 0 0-43.3 15.4 175 175 0 0 0-65.7 57.2 147 147 0 0 0-22 43.4c31.2 0.1 62.4-0.2 93.6 0-8.9 12.7-19.2 24.3-29 36.3-25.1 30-50.8 59.8-76 90a964.3 964.3 0 0 1-30.2 36.7c-16.7 21-34.4 41.2-52 61.4a82.3 82.3 0 0 1-8-7c-12.2-12.2-23.5-25.2-34.9-38.1-36.9-42.5-72.6-86-108.7-129.1-9.8-11.6-19.4-23.4-29.7-34.4-4-4.5-7.8-9.1-11-14.2 27.5 0 55-0.4 82.4-0.8a348 348 0 0 1 38.1-114.5 403.5 403.5 0 0 1 50.5-72.5 378.2 378.2 0 0 1 59-53.1 391.2 391.2 0 0 1 196-73z" fill="#8bc34a"/>
  <path d="m743.5 298.2c7 5.3 12.7 12 18.8 18.2 24.5 26.6 47.7 54.4 71 82 25.4 30.2 50.5 60.7 76 90.8 8.7 10.7 19 20.1 26.6 31.7-27.5 0.2-55 0.4-82.5 0.9a350 350 0 0 1-55.4 142.8c-7.3 11.2-15 22.2-23.5 32.6a389.9 389.9 0 0 1-314.5 138.8 434 434 0 0 1-74.3-11c-18-4.5-35.9-10.2-53.3-16.8a433.7 433.7 0 0 1-59.3-29.5 337.9 337.9 0 0 1-67-52.2c-11-11-21.7-22.4-31.6-34.5a449 449 0 0 1-32.3-47.5 369 369 0 0 1-38.5-92.8c-4.3-16-8-32.2-8.3-48.8 4 2.3 6.8 6.1 10 9.4 26.3 29.4 51.2 60 77 90 9.6 11 18.7 22.6 29.4 32.6 8.1-7 14.3-15.6 21-23.8 23.3-28 46.7-56 70.4-83.7 2.8 10.7 8.6 20.3 14.5 29.5a190.1 190.1 0 0 0 70.1 65 173 173 0 0 0 47.1 16.7c18.4 3.9 37.4 5.9 56.1 4.2 13-1 25.9-3.7 38.5-6.6a184 184 0 0 0 76.2-44 196 196 0 0 0 30.7-39.3c5.7-9.6 10.6-19.7 13.6-30.4h-93.6c6.4-9.4 13.8-18 21-26.6 25.2-30.5 51-60.4 76.4-90.7 11.6-13.4 22-27.8 33.9-41.1 9.4-11.2 18.4-22.9 28-34 9.2-10.8 18.7-21.3 28-32z" fill="#2e7d32"/>
 </g>
</svg>
