<svg xmlns="http://www.w3.org/2000/svg" viewBox="0 0 916 817">
    <path fill="#8BC34A"
        d="M 426.07 1.86 C 460.80 -1.60 495.90 1.13 530.16 7.39 C 553.94 11.63 577.08 18.86 599.76 27.08 C 615.93 33.43 631.62 40.91 647.05 48.88 C 676.20 64.91 703.77 84.15 727.39 107.67 C 739.39 119.65 751.06 131.98 761.75 145.14 C 773.65 160.24 784.24 176.33 794.12 192.81 C 811.30 221.07 822.97 252.32 831.98 284.04 C 836.28 300.33 840.40 317.00 840.32 333.95 C 835.71 330.52 832.05 326.05 828.19 321.85 C 803.85 294.40 780.58 266.02 756.81 238.09 C 746.08 225.85 735.87 213.08 724.12 201.79 C 714.86 209.71 708.06 219.91 700.23 229.13 C 677.81 255.92 655.39 282.73 632.67 309.27 C 630.11 299.26 624.80 290.28 619.34 281.62 C 610.52 268.13 600.33 255.45 588.72 244.25 C 567.43 223.30 540.44 208.64 511.84 200.42 C 498.38 197.25 484.73 194.73 470.92 193.75 C 452.82 192.24 434.61 194.39 416.91 198.20 C 401.71 200.73 387.44 206.96 373.64 213.61 C 347.22 226.57 324.69 246.81 307.91 270.89 C 298.62 284.20 290.37 298.51 285.91 314.22 C 317.10 314.35 348.30 314.05 379.50 314.24 C 370.63 326.93 360.30 338.52 350.52 350.50 C 325.36 380.63 299.72 410.35 274.55 440.46 C 264.66 452.90 254.74 465.31 244.28 477.27 C 227.65 498.33 209.89 518.45 192.24 538.64 C 189.46 536.47 186.81 534.13 184.33 531.62 C 172.13 519.46 160.81 506.46 149.42 493.55 C 112.54 451.04 76.78 407.57 40.66 364.41 C 30.87 352.85 21.29 341.10 10.96 330.02 C 7.05 325.51 3.19 320.93 0.00 315.88 L 0.00 315.79 C 27.48 315.76 54.95 315.48 82.43 315.05 C 88.12 275.00 101.49 236.21 120.52 200.57 C 135.00 174.88 151.23 149.98 171.01 128.01 C 188.87 108.47 208.38 90.35 229.95 74.95 C 287.07 33.40 355.68 7.78 426.07 1.86 Z" />
    <path fill="#1B5E20"
        d="M 723.52 278.52 C 730.49 283.80 736.24 290.46 742.30 296.72 C 766.82 323.32 789.98 351.11 813.36 378.71 C 838.71 408.96 863.83 439.41 889.32 469.54 C 897.98 480.28 908.31 489.67 915.86 501.29 C 888.36 501.46 860.86 501.62 833.37 502.10 C 826.08 553.13 806.56 602.13 778.14 645.03 C 770.83 656.26 763.12 667.25 754.63 677.63 C 715.74 724.85 665.01 762.02 608.68 785.75 C 555.65 808.29 497.55 818.91 439.98 816.41 C 414.97 814.72 390.02 811.40 365.63 805.52 C 347.56 800.91 329.74 795.28 312.33 788.62 C 291.96 780.06 271.82 770.73 252.97 759.15 C 228.66 744.50 205.85 727.26 185.95 706.99 C 174.95 695.95 164.29 684.55 154.43 672.48 C 142.53 657.44 131.94 641.40 122.07 624.98 C 104.53 596.26 92.66 564.45 83.56 532.16 C 79.30 516.22 75.63 499.92 75.31 483.35 C 79.33 485.63 82.10 489.45 85.28 492.70 C 111.61 522.14 136.52 552.81 162.22 582.80 C 171.89 593.77 181.03 605.30 191.73 615.31 C 199.82 608.43 205.98 599.70 212.68 591.54 C 235.99 563.51 259.45 535.59 283.14 507.87 C 285.88 518.57 291.73 528.11 297.63 537.32 C 315.43 564.05 338.94 587.55 367.72 602.27 C 382.64 609.78 398.32 616.23 414.85 619.07 C 433.24 622.93 452.17 624.95 470.94 623.25 C 483.94 622.17 496.76 619.58 509.45 616.65 C 537.69 607.97 564.57 593.56 585.62 572.60 C 597.53 560.93 607.74 547.59 616.31 533.30 C 622.00 523.76 626.91 513.65 629.86 502.90 C 598.69 502.91 567.52 503.02 536.35 502.89 C 542.69 493.56 550.13 485.02 557.27 476.30 C 582.49 445.87 608.26 415.90 633.73 385.69 C 645.31 372.22 655.77 357.83 667.57 344.54 C 677.04 333.32 686.00 321.68 695.64 310.61 C 704.79 299.79 714.31 289.29 723.52 278.52 Z" />
</svg>