<svg version="1.1" viewBox="0 0 24 24" xmlns="http://www.w3.org/2000/svg">
<path d="M6.163 9.667C6.941 6.556 8.886 5 11.997 5c4.666 0 5.25 3.5 7.583 4.083 1.556.39 2.917-.194 4.083-1.75C22.886 10.444 20.941 12 17.83 12c-4.667 0-5.25-3.5-7.583-4.083-1.556-.39-2.917.194-4.084 1.75zm-5.833 7C1.108 13.556 3.052 12 6.163 12c4.667 0 5.25 3.5 7.584 4.083 1.555.39 2.916-.194 4.083-1.75C17.052 17.444 15.108 19 11.997 19c-4.667 0-5.25-3.5-7.584-4.083-1.555-.39-2.916.194-4.083 1.75z" fill="#44a8b3"/>
</svg>
