<svg viewBox="0 0 24 24" fill="none" xmlns="http://www.w3.org/2000/svg">
<path d="M12.4788 8.9825C14.0648 16.5735 10.4838 21.95 10.4838 21.95H13.4763C15.3516 16.1645 14.4738 12.0648 13.975 9.98M16.1296 7.1471C16.2992 7.35658 16.4687 7.57603 16.5984 7.80545C18.3041 10.5087 17.965 13.9201 15.97 16.2244C16.8079 14.1795 16.6882 11.7655 15.4214 9.75058C15.3416 9.6209 15.2518 9.51118 15.172 9.39148C14.5835 8.56355 13.8353 7.9052 13.0174 7.41643C10.1446 8.33413 8.0698 11.0174 8.0698 14.1895C8.0698 14.9276 8.17952 15.6358 8.37902 16.2942C7.54112 15.1271 7.05235 13.7007 7.05235 12.1645C7.05235 9.8204 8.1895 7.7456 9.93512 6.44885C8.48875 6.33913 6.9526 6.65833 5.61595 7.48625C4.9975 7.89523 4.45885 8.36405 4 8.89273C4.54863 7.56605 5.49625 6.37903 6.793 5.56108C8.28925 4.62343 9.985 4.3142 11.6209 4.5536C11.2119 3.995 10.7132 3.46633 10.1147 2.9975C9.53613 2.57855 8.9077 2.2394 8.24935 2C9.68575 2.0399 11.1221 2.49875 12.3491 3.42643C12.9775 3.89525 13.4762 4.46383 13.8752 5.06233C13.975 5.06233 14.0648 5.05235 14.1645 5.05235C17.3565 5.05235 20.0598 7.15708 20.9575 10.0598C19.8403 8.48375 18.1146 7.41643 16.1296 7.1471Z" fill="#66BB6A"/>
</svg>
