<svg width="16" height="16" xmlns="http://www.w3.org/2000/svg"><path fill="#42a5f5" d="M12.667 2.003H9.88C9.6 1.166 8.867.56 8 .56s-1.6.606-1.88 1.443H3.333C2.6 2.003 2 2.652 2 3.445v10.098c0 .794.6 1.443 1.333 1.443h9.334c.733 0 1.333-.65 1.333-1.443V3.445c0-.793-.6-1.442-1.333-1.442m-8 3.606H6v2.885h-.667V6.33h-.666v-.72m2 6.49v.722h-2v-.663L6 10.659H4.667v-.722h1.5c.273 0 .5.245.5.54a.559.559 0 01-.14.376l-1.114 1.248h1.254m.666-9.377c0-.397.3-.721.667-.721.367 0 .667.324.667.72 0 .398-.3.722-.667.722-.367 0-.667-.324-.667-.721m4 9.377H8v-1.443h3.333v1.443m0-4.328H8V6.33h3.333z"/></svg>