<svg width="256" height="256" viewBox="0 0 256 256" fill="none" xmlns="http://www.w3.org/2000/svg">
<path d="M165.086 99.1833C165.086 104.528 162.963 109.654 159.184 113.433C155.405 117.212 150.279 119.335 144.934 119.335C139.59 119.335 134.464 117.212 130.685 113.433C126.906 109.654 124.783 104.528 124.783 99.1833C124.783 93.8388 126.906 88.7132 130.685 84.934C134.464 81.1548 139.59 79.0317 144.934 79.0317C150.279 79.0317 155.405 81.1548 159.184 84.934C162.963 88.7132 165.086 93.8388 165.086 99.1833Z" fill="#FFC131"/>
<path d="M111.043 136.739C99.9135 136.739 90.8914 145.761 90.8914 156.89C90.8914 168.02 99.9135 177.042 111.043 177.042C122.172 177.042 131.195 168.02 131.195 156.89C131.195 145.761 122.172 136.739 111.043 136.739Z" fill="#24C8DB"/>
<path fill-rule="evenodd" clip-rule="evenodd" d="M186.703 163.76C178.604 168.996 169.593 172.662 160.139 174.569C162.879 166.758 163.788 158.422 162.796 150.204C170.811 147.402 178.054 142.75 183.936 136.627C189.818 130.503 194.175 123.08 196.652 114.958C199.13 106.837 199.659 98.2458 198.197 89.8815C196.735 81.5173 193.323 73.6153 188.236 66.8161C183.15 60.0169 176.533 54.5119 168.923 50.7472C161.312 46.9826 152.921 45.0642 144.43 45.1478C135.939 45.2313 127.588 47.3143 120.053 51.2279C112.517 55.1416 106.01 60.7757 101.059 67.6736C90.8053 68.8273 80.8276 71.74 71.564 76.2839C75.226 64.4684 81.6829 53.7101 90.3871 44.9208C99.0914 36.1315 109.786 29.5705 121.566 25.7938C133.345 22.017 145.861 21.136 158.054 23.2254C170.246 25.3148 181.754 30.3129 191.604 37.7962C201.454 45.2794 209.354 55.0272 214.635 66.2131C219.916 77.399 222.423 89.6934 221.942 102.054C221.461 114.415 218.007 126.477 211.872 137.219C205.738 147.96 197.104 157.065 186.703 163.76V163.76ZM72.4799 90.2984L91.3492 92.5883C91.7772 88.9444 92.5752 85.3536 93.7307 81.8713C86.267 83.6065 79.1044 86.4469 72.4799 90.2984V90.2984Z" fill="#FFC131"/>
<path fill-rule="evenodd" clip-rule="evenodd" d="M69.1825 92.3135C77.33 87.0243 86.4055 83.3258 95.9292 81.4133C93.0483 89.2232 92.0138 97.5938 92.9064 105.87C84.9187 108.712 77.7116 113.393 71.8676 119.535C66.0236 125.677 61.7067 133.108 59.2658 141.228C56.8248 149.347 56.3284 157.926 57.8165 166.273C59.3047 174.619 62.7357 182.499 67.8322 189.274C72.9287 196.049 79.5478 201.531 87.1545 205.275C94.7611 209.019 103.142 210.921 111.62 210.827C120.097 210.733 128.434 208.645 135.956 204.733C143.477 200.822 149.973 195.195 154.918 188.308C165.166 187.184 175.144 184.302 184.413 179.79C180.742 191.593 174.281 202.338 165.577 211.115C156.873 219.892 146.183 226.443 134.411 230.213C122.639 233.984 110.133 234.862 97.9491 232.775C85.7658 230.687 74.2646 225.695 64.4193 218.221C54.5739 210.747 46.6741 201.011 41.3887 189.838C36.1033 178.664 33.5877 166.381 34.055 154.029C34.5223 141.677 37.9587 129.619 44.0732 118.876C50.1878 108.134 58.8006 99.0223 69.1825 92.3135V92.3135ZM183.405 165.775L183.039 165.958L183.405 165.775Z" fill="#24C8DB"/>
</svg>