<svg height="16" width="16" xmlns="http://www.w3.org/2000/svg"><path d="M9.196 10.555a.465.465 0 00-.654-.14l-2.417 1.62 1.038-2.108a.499.499 0 00-.195-.657.472.472 0 00-.643.209l-1.049 2.123-.165-2.95a.477.477 0 00-.497-.454.48.48 0 00-.444.508l.093 1.665c.039.698-.103 1.4-.41 2.023l-.473.962a.662.662 0 00.283.877l1.355.698c.312.16.697.035.858-.29l.473-.961a3.912 3.912 0 011.345-1.54l1.365-.917a.484.484 0 00.137-.668z" fill="#00C853"/><path d="M12.9 6.175c.454-1.85-.385-3.832-2.12-4.73-1.735-.892-3.792-.398-4.977 1.072a3.066 3.066 0 00-3.47 1.654c-.77 1.56-.157 3.459 1.37 4.246a3.048 3.048 0 001.666.324 1.963 1.963 0 001.048 1.575 1.88 1.88 0 001.857-.075c.288.489.712.902 1.248 1.176 1.526.788 3.383.16 4.153-1.4a3.234 3.234 0 00-.775-3.842z" fill="#00695C"/></svg>