<svg xmlns="http://www.w3.org/2000/svg" version="1.1" viewBox="0 0 24 24"><g id="g4169" transform="matrix(3.8703728,3.9439431,-3.8703728,3.9439431,18.374259,-144.1964)"><path id="path4167" d="M 18.462825,22.259372 18.213207,22.10654 c -0.181833,-0.09853 -0.313408,-0.234015 -0.38081,-0.393723 -0.02361,-0.05596 -0.02361,-0.05596 0.03377,-0.02734 0.04572,0.02279 0.131105,0.05347 0.165897,0.05962 l 0.07827,-0.01868 c -0.26283,-0.675702 -0.381476,-1.52279 -0.31037,-1.53083 0.09446,-0.0037 0.196963,0.125673 0.326294,0.134599 0.0016,-0.001 -0.0043,-0.03161 -0.01327,-0.06792 -0.03016,-0.123532 -0.03886,-0.186886 -0.04183,-0.30467 l -0.01875,-0.0308 c -0.0087,-0.0089 -0.01628,-0.121792 -0.01333,-0.198875 0.0048,-0.125457 0.02646,-0.223803 0.07433,-0.337351 0.103938,-0.24646 0.337,-0.500985 0.650846,-0.710776 0.172652,-0.115407 0.304465,-0.170917 0.436287,-0.183722 0.139881,-0.01359 0.259453,0.04675 0.331862,0.167465 l 0.08264,0.107266 c -1.1e-5,0.0023 -0.02325,0.02285 -0.05165,0.04555 -0.150252,0.12011 -0.327481,0.290674 -0.491073,0.472602 -0.08297,0.09226 -0.107095,0.121865 -0.102097,0.125208 0.0022,0.0015 0.07684,-0.02202 0.110535,-0.02681 0.0337,-0.0048 0.187683,-0.04623 0.187683,-0.04623 0.07413,-0.01728 0.199747,-0.04617 0.281145,-0.05607 0.0883,-0.01074 0.108188,-0.0029 0.129128,0.04133 0.02432,0.05137 0.03432,0.119083 0.03262,0.180054 -0.0018,0.06635 -0.01847,0.117233 -0.04633,0.193659 -0.05642,0.154897 -0.704224,0.746135 -0.704224,0.746135 0,0 0.257557,0.02343 0.39417,-0.0331 0,0 -0.161414,0.458966 -0.118814,0.603899 0.06817,0.231936 -0.206057,0.372384 -0.206057,0.372384 -0.06376,0.06746 -0.05537,0.01296 -0.130236,0.120261 0.197092,0.0064 0.246308,-0.02702 0.356972,-0.105824 0.01876,0.239791 -0.04103,0.354806 -0.115211,0.513926 -0.04121,0.08841 -0.107043,0.165206 -0.177541,0.23262 -0.05223,0.04995 -0.170061,0.12041 -0.178045,0.123698 -0.0031,0.0013 -0.03432,0.0032 -0.06957,0.0043 -0.0598,0.0019 -0.03292,0.01587 -0.03573,0.0095 l 0.04667,0.01355 c 0.03847,0.190254 0.07276,0.36439 0.157152,0.526371 0.01942,0.03728 0.07832,0.0986 0.07832,0.0986 -0.04424,0.0455 -0.0783,0.08117 -0.136616,0.137943 -0.05046,-0.05234 -0.126351,-0.16564 -0.147681,-0.220701 -0.07394,-0.198754 -0.128526,-0.373671 -0.177036,-0.558279" style="fill:#f44336;fill-opacity:1"/></g></svg>
