<svg version="1.1" viewBox="0 0 24 24" xmlns="http://www.w3.org/2000/svg">
 <path d="m21.492 2.5102s-7.252-0.353-12.966 7.478c-4.385 6.008-6.018 11.504-6.018 11.504l1.842-0.95c1.366-2.372 2.078-3.35 3.417-4.745 2.401 0.702 4.907 0.617 7.08-1.899-1.898-0.531-3.416-0.408-5.657-0.18 2.516-1.718 4.234-2.098 6.607-1.718l0.949-1.898c-1.709-0.323-2.848-0.352-4.537 0.038 1.87-1.32 3.17-2.06 5.486-1.937l1.148-1.832c-1.48-0.104-2.372 0.057-4.072 0.475 1.529-1.386 2.924-2.012 4.955-2.136 0 0 0.997-1.793 1.766-2.202z" fill="#ef5350"/>
</svg>
