<svg xmlns="http://www.w3.org/2000/svg" viewBox="0 0 1024 1024"><path fill="#2196f3" d="M80 192 64 320h32c16-80 16-96 63.242-96H176c8.837 0 16 7.163 16 16v352c0 8.837 0 16-32 16h-32v32h192v-32h-32c-32 0-32-7.163-32-16V240c0-8.837 7.163-16 16-16h16c48 0 48 16 64 96h32l-16-128zm560 0v32c16 0 45.713 0 52.57 16L776 434.666 708.57 592c-6.857 16-52.57 16-68.57 16v32h128v-32s-34.285 0-27.428-16L792 472l51.428 120c3.103 7.24-1.52 16-11.428 16v32h128v-32c-16 0-45.713 0-52.57-16L824 397.334 891.43 240c6.857-16 52.57-16 68.57-16v-32H832v32s34.285 0 27.428 16L808 360l-51.428-120c-3.103-7.24 1.52-16 11.428-16v-32zM320 384v32h32c32 0 32 7.163 32 16v352c0 8.837 0 16-32 16h-32v32h304l16-128h-32c-16 80-16 96-64 96h-64c-32 0-32-7.163-32-16V624h80c8.837 0 16 0 16 32v16h32V544h-32v16c0 32-7.163 32-16 32h-80V432c0-8.837 0-16 32-16h64c48 0 48 16 64 96h32l-16-128z"/></svg>