<svg id="svg" version="1.1" xmlns="http://www.w3.org/2000/svg" xmlns:xlink="http://www.w3.org/1999/xlink" width="400" height="400" viewBox="0, 0, 400,400"><g id="svgg"><path id="path0" d="M278.500 117.073 C 277.910 117.759,277.798 118.030,278.302 117.556 C 278.619 117.257,278.839 116.973,278.789 116.926 C 278.740 116.879,278.610 116.945,278.500 117.073 M197.499 182.100 C 197.499 216.640,197.522 230.740,197.550 213.434 C 197.578 196.127,197.578 167.867,197.550 150.634 C 197.522 133.400,197.499 147.560,197.499 182.100 M95.009 156.907 C 94.630 157.175,94.231 157.554,94.123 157.747 C 94.013 157.946,94.235 157.839,94.633 157.500 C 95.021 157.170,95.510 156.793,95.719 156.662 C 95.929 156.531,96.010 156.423,95.900 156.422 C 95.790 156.420,95.389 156.639,95.009 156.907 M304.000 156.475 C 304.000 156.522,304.320 156.750,304.712 156.981 C 305.104 157.212,305.368 157.310,305.299 157.199 C 305.165 156.982,304.000 156.333,304.000 156.475 M11.950 156.750 C 16.598 156.780,24.203 156.780,28.850 156.750 C 33.498 156.720,29.695 156.696,20.400 156.696 C 11.105 156.696,7.303 156.720,11.950 156.750 M164.064 156.750 C 166.574 156.782,170.624 156.782,173.064 156.750 C 175.504 156.718,173.450 156.692,168.500 156.692 C 163.550 156.692,161.554 156.718,164.064 156.750 M371.150 156.750 C 375.798 156.780,383.403 156.780,388.050 156.750 C 392.697 156.720,388.895 156.696,379.600 156.696 C 370.305 156.696,366.503 156.720,371.150 156.750 M93.298 202.000 C 93.298 225.375,93.321 234.937,93.350 223.250 C 93.378 211.562,93.378 192.437,93.350 180.750 C 93.321 169.062,93.298 178.625,93.298 202.000 M306.698 202.200 C 306.698 225.465,306.721 234.982,306.750 223.350 C 306.778 211.717,306.778 192.682,306.750 181.050 C 306.721 169.417,306.698 178.935,306.698 202.200 M177.917 166.789 C 178.257 166.870,178.640 167.001,178.767 167.080 C 178.895 167.159,179.000 167.139,179.000 167.035 C 179.000 166.820,178.295 166.597,177.700 166.623 C 177.458 166.634,177.544 166.699,177.917 166.789 M137.914 167.314 C 137.439 167.790,137.538 167.914,138.050 167.483 C 138.297 167.275,138.537 167.081,138.583 167.052 C 138.629 167.023,138.568 167.000,138.448 167.000 C 138.327 167.000,138.087 167.141,137.914 167.314 M181.098 207.400 C 181.098 227.805,181.121 236.153,181.150 225.950 C 181.179 215.748,181.179 199.053,181.150 188.850 C 181.121 178.648,181.098 186.995,181.098 207.400 M262.065 207.550 C 266.776 207.580,274.426 207.580,279.065 207.550 C 283.704 207.520,279.850 207.496,270.500 207.496 C 261.150 207.496,257.354 207.520,262.065 207.550 M242.296 226.300 C 242.296 236.420,242.320 240.589,242.350 235.565 C 242.380 230.541,242.380 222.261,242.350 217.165 C 242.320 212.069,242.296 216.180,242.296 226.300 M307.057 246.300 C 307.223 246.631,307.565 247.081,307.816 247.300 C 308.193 247.630,308.173 247.559,307.698 246.900 C 306.888 245.775,306.707 245.605,307.057 246.300 M137.182 246.867 C 137.475 247.231,138.600 248.088,138.600 247.947 C 138.600 247.903,138.218 247.563,137.750 247.191 C 137.282 246.820,137.027 246.674,137.182 246.867 M349.681 247.431 L 349.300 247.862 349.850 247.508 C 350.417 247.143,350.524 247.000,350.231 247.000 C 350.138 247.000,349.891 247.194,349.681 247.431 " stroke="none" fill="#1cbc34" fill-rule="evenodd"></path><path id="path1" d="M277.495 136.100 C 277.495 145.120,277.520 148.781,277.550 144.235 C 277.580 139.689,277.580 132.309,277.550 127.835 C 277.520 123.361,277.495 127.080,277.495 136.100 M102.350 156.350 C 105.347 156.381,110.252 156.381,113.250 156.350 C 116.248 156.319,113.795 156.293,107.800 156.293 C 101.805 156.293,99.353 156.319,102.350 156.350 M286.750 156.350 C 289.748 156.381,294.653 156.381,297.650 156.350 C 300.647 156.319,298.195 156.293,292.200 156.293 C 286.205 156.293,283.752 156.319,286.750 156.350 " stroke="none" fill="#24bc34" fill-rule="evenodd"></path><path id="path2" d="M33.781 116.567 C 32.151 117.511,29.927 118.851,28.900 119.505 C 28.350 119.856,24.930 121.925,21.300 124.103 C 17.670 126.281,14.670 128.139,14.633 128.231 C 14.597 128.324,14.484 128.400,14.384 128.400 C 14.208 128.400,4.378 134.248,2.175 135.664 C 1.584 136.044,0.875 136.657,0.600 137.027 L 0.100 137.700 0.049 145.756 C -0.013 155.516,0.096 155.913,3.000 156.525 C 4.153 156.767,38.258 156.581,38.861 156.329 C 41.259 155.327,41.225 155.631,41.158 135.800 L 41.100 118.700 40.561 117.871 C 39.317 115.959,35.950 115.311,33.781 116.567 M50.551 116.588 C 50.048 116.907,49.578 117.355,49.505 117.584 C 49.432 117.813,49.289 118.000,49.187 118.000 C 49.084 118.000,49.011 118.067,49.024 118.150 C 49.037 118.233,49.029 118.345,49.007 118.400 C 48.985 118.455,48.907 118.770,48.834 119.100 C 48.488 120.653,48.694 245.800,49.042 245.800 C 49.142 245.800,49.170 245.887,49.105 245.993 C 48.905 246.315,50.523 247.760,51.337 247.987 C 54.091 248.755,91.800 248.174,91.800 247.363 C 91.800 247.273,91.940 247.200,92.112 247.200 C 92.283 247.200,92.378 247.126,92.322 247.036 C 92.266 246.945,92.396 246.721,92.610 246.538 C 92.825 246.354,93.000 246.038,93.000 245.835 C 93.000 245.633,93.047 245.420,93.104 245.362 C 93.162 245.305,93.206 226.029,93.202 202.528 C 93.196 165.508,93.235 159.704,93.488 159.099 C 93.648 158.714,93.733 158.400,93.675 158.400 C 93.177 158.400,95.347 156.534,96.000 156.400 C 96.165 156.366,101.450 156.310,107.745 156.274 C 121.471 156.197,120.907 156.275,122.041 154.300 L 122.500 153.500 122.500 136.200 C 122.500 117.040,122.585 118.319,121.231 117.046 C 120.048 115.934,122.151 115.995,85.433 116.002 L 51.464 116.009 50.551 116.588 M138.800 116.264 C 136.945 117.233,136.400 118.188,136.401 120.467 C 136.402 122.103,136.647 122.682,138.817 126.152 C 139.523 127.280,140.190 128.361,140.300 128.554 C 140.410 128.747,141.355 130.275,142.400 131.950 C 143.445 133.625,144.390 135.155,144.500 135.350 C 144.610 135.545,145.555 137.078,146.600 138.755 C 147.645 140.433,148.653 142.052,148.841 142.353 C 149.028 142.654,149.425 143.328,149.722 143.850 C 150.020 144.373,150.339 144.800,150.432 144.800 C 150.524 144.800,150.600 144.896,150.600 145.013 C 150.600 145.193,151.312 146.403,153.041 149.157 C 153.228 149.456,153.625 150.128,153.922 150.650 C 154.220 151.172,154.539 151.600,154.632 151.600 C 154.724 151.600,154.800 151.703,154.800 151.828 C 154.800 152.456,157.077 155.623,157.867 156.095 L 158.700 156.592 168.452 156.592 C 179.934 156.592,180.185 156.534,180.978 153.698 C 181.436 152.057,181.178 118.818,180.702 118.100 C 180.085 117.171,179.707 116.807,178.924 116.387 C 177.995 115.890,139.742 115.772,138.800 116.264 M200.200 116.204 C 200.200 116.312,200.023 116.400,199.807 116.400 C 199.336 116.400,198.358 117.314,197.918 118.165 C 197.631 118.720,197.601 124.717,197.601 182.162 L 197.601 245.546 198.112 246.299 C 199.511 248.360,197.641 248.196,219.805 248.196 C 232.468 248.196,239.370 248.125,239.720 247.992 C 240.280 247.780,241.424 246.898,241.397 246.701 C 241.389 246.637,241.566 246.352,241.792 246.065 L 242.201 245.545 242.151 181.965 C 242.112 133.688,242.044 118.351,241.866 118.241 C 241.737 118.161,241.602 117.969,241.566 117.813 C 241.478 117.437,240.441 116.545,239.737 116.240 C 239.016 115.928,200.200 115.892,200.200 116.204 M279.619 116.415 C 278.514 117.091,277.681 118.239,277.599 119.200 C 277.575 119.475,277.566 127.354,277.578 136.710 L 277.600 153.720 278.127 154.533 C 279.266 156.289,278.540 156.200,292.155 156.258 C 305.386 156.313,304.709 156.220,306.100 158.186 L 306.700 159.034 306.748 202.329 L 306.796 245.623 307.406 246.508 C 307.942 247.288,308.628 247.871,309.033 247.893 C 309.107 247.897,309.232 247.966,309.313 248.046 C 309.545 248.278,348.077 248.237,348.691 248.004 C 349.640 247.642,350.570 246.735,350.938 245.809 C 351.344 244.789,351.520 119.582,351.117 118.700 C 351.017 118.480,350.924 118.255,350.910 118.200 C 350.790 117.708,350.218 117.075,349.454 116.591 L 348.536 116.009 314.418 116.004 L 280.300 115.999 279.619 116.415 M361.348 116.282 C 358.713 117.235,358.811 116.456,358.807 136.576 C 358.804 156.147,358.671 154.922,360.935 156.154 L 361.769 156.608 379.469 156.602 L 397.170 156.596 398.014 156.148 C 398.526 155.876,399.082 155.346,399.425 154.800 L 399.992 153.900 399.976 146.100 C 399.959 137.952,399.947 137.781,399.300 136.908 C 398.871 136.329,396.831 134.874,395.600 134.268 C 395.435 134.187,394.462 133.598,393.438 132.960 C 392.414 132.322,391.538 131.800,391.491 131.800 C 391.406 131.800,388.072 129.767,385.528 128.165 C 384.773 127.689,384.091 127.275,384.012 127.245 C 383.934 127.215,382.391 126.296,380.585 125.203 C 378.778 124.110,376.490 122.749,375.500 122.179 C 374.510 121.608,373.422 120.930,373.081 120.671 C 372.741 120.412,372.401 120.200,372.327 120.200 C 372.253 120.200,371.811 119.955,371.346 119.656 C 370.881 119.356,369.870 118.741,369.100 118.288 C 368.330 117.835,367.184 117.146,366.554 116.758 C 365.250 115.953,362.861 115.735,361.348 116.282 M139.200 166.746 C 139.035 166.807,138.665 167.022,138.377 167.223 C 138.090 167.424,137.783 167.523,137.695 167.444 C 137.608 167.365,137.601 167.413,137.680 167.550 C 137.771 167.709,137.698 167.800,137.478 167.800 C 137.289 167.800,137.188 167.855,137.255 167.921 C 137.321 167.988,137.211 168.219,137.010 168.435 C 136.400 169.090,136.404 168.845,136.405 207.465 C 136.405 249.313,136.278 245.920,137.900 247.300 L 138.841 248.100 158.620 248.148 C 173.488 248.184,178.400 248.139,178.400 247.965 C 178.400 247.837,178.459 247.793,178.532 247.865 C 178.604 247.937,178.794 247.888,178.953 247.756 C 179.112 247.624,179.436 247.420,179.671 247.302 C 179.907 247.185,180.295 246.732,180.534 246.295 L 180.968 245.500 180.984 207.530 C 180.999 172.793,180.972 169.502,180.673 168.872 C 180.325 168.138,179.400 167.164,178.964 167.072 C 178.819 167.041,178.340 166.924,177.900 166.812 C 177.063 166.598,139.772 166.535,139.200 166.746 M251.647 208.153 C 251.082 208.515,250.625 209.035,250.297 209.689 L 249.800 210.679 249.800 228.027 C 249.800 239.563,249.868 245.418,250.003 245.502 C 250.115 245.571,250.163 245.698,250.109 245.785 C 249.948 246.046,251.339 247.525,252.074 247.874 C 253.269 248.441,257.200 248.200,257.200 247.560 C 257.200 247.472,257.321 247.400,257.470 247.400 C 257.618 247.400,258.113 247.130,258.568 246.800 C 259.024 246.470,259.451 246.200,259.517 246.200 C 259.584 246.200,259.907 246.009,260.236 245.775 C 260.564 245.541,261.118 245.203,261.467 245.025 C 261.815 244.846,263.070 244.115,264.256 243.400 C 265.442 242.685,266.792 241.874,267.256 241.598 C 267.720 241.321,268.532 240.826,269.060 240.498 C 271.988 238.675,274.417 237.200,274.491 237.200 C 274.538 237.200,275.442 236.660,276.500 236.000 C 277.558 235.340,278.470 234.800,278.526 234.800 C 278.583 234.800,279.275 234.390,280.064 233.888 C 282.360 232.430,286.000 230.200,286.084 230.200 C 286.127 230.200,286.780 229.818,287.535 229.350 C 291.208 227.076,291.000 227.745,291.000 218.194 C 291.000 209.877,290.969 209.641,289.727 208.553 C 288.606 207.570,289.212 207.600,270.256 207.603 L 252.500 207.606 251.647 208.153 " stroke="none" fill="#20bc34" fill-rule="evenodd"></path><path id="path3" d="M33.781 116.567 C 32.151 117.511,29.927 118.851,28.900 119.505 C 28.350 119.856,24.930 121.925,21.300 124.103 C 17.670 126.281,14.670 128.139,14.633 128.231 C 14.597 128.324,14.484 128.400,14.384 128.400 C 14.208 128.400,4.378 134.248,2.175 135.664 C 1.584 136.044,0.875 136.657,0.600 137.027 L 0.100 137.700 0.049 145.756 C -0.013 155.516,0.096 155.913,3.000 156.525 C 4.153 156.767,38.258 156.581,38.861 156.329 C 41.259 155.327,41.225 155.631,41.158 135.800 L 41.100 118.700 40.561 117.871 C 39.317 115.959,35.950 115.311,33.781 116.567 M50.551 116.588 C 50.048 116.907,49.578 117.355,49.505 117.584 C 49.432 117.813,49.289 118.000,49.187 118.000 C 49.084 118.000,49.011 118.067,49.024 118.150 C 49.037 118.233,49.029 118.345,49.007 118.400 C 48.985 118.455,48.907 118.770,48.834 119.100 C 48.488 120.653,48.694 245.800,49.042 245.800 C 49.142 245.800,49.170 245.887,49.105 245.993 C 48.905 246.315,50.523 247.760,51.337 247.987 C 54.091 248.755,91.800 248.174,91.800 247.363 C 91.800 247.273,91.940 247.200,92.112 247.200 C 92.283 247.200,92.378 247.126,92.322 247.036 C 92.266 246.945,92.396 246.721,92.610 246.538 C 92.825 246.354,93.000 246.038,93.000 245.835 C 93.000 245.633,93.047 245.420,93.104 245.362 C 93.162 245.305,93.206 226.029,93.202 202.528 C 93.196 165.508,93.235 159.704,93.488 159.099 C 93.648 158.714,93.733 158.400,93.675 158.400 C 93.177 158.400,95.347 156.534,96.000 156.400 C 96.165 156.366,101.450 156.310,107.745 156.274 C 121.471 156.197,120.907 156.275,122.041 154.300 L 122.500 153.500 122.500 136.200 C 122.500 117.040,122.585 118.319,121.231 117.046 C 120.048 115.934,122.151 115.995,85.433 116.002 L 51.464 116.009 50.551 116.588 M138.800 116.264 C 136.945 117.233,136.400 118.188,136.401 120.467 C 136.402 122.103,136.647 122.682,138.817 126.152 C 139.523 127.280,140.190 128.361,140.300 128.554 C 140.410 128.747,141.355 130.275,142.400 131.950 C 143.445 133.625,144.390 135.155,144.500 135.350 C 144.610 135.545,145.555 137.078,146.600 138.755 C 147.645 140.433,148.653 142.052,148.841 142.353 C 149.028 142.654,149.425 143.328,149.722 143.850 C 150.020 144.373,150.339 144.800,150.432 144.800 C 150.524 144.800,150.600 144.896,150.600 145.013 C 150.600 145.193,151.312 146.403,153.041 149.157 C 153.228 149.456,153.625 150.128,153.922 150.650 C 154.220 151.172,154.539 151.600,154.632 151.600 C 154.724 151.600,154.800 151.703,154.800 151.828 C 154.800 152.456,157.077 155.623,157.867 156.095 L 158.700 156.592 168.452 156.592 C 179.934 156.592,180.185 156.534,180.978 153.698 C 181.436 152.057,181.178 118.818,180.702 118.100 C 180.085 117.171,179.707 116.807,178.924 116.387 C 177.995 115.890,139.742 115.772,138.800 116.264 M200.200 116.204 C 200.200 116.312,200.023 116.400,199.807 116.400 C 199.336 116.400,198.358 117.314,197.918 118.165 C 197.631 118.720,197.601 124.717,197.601 182.162 L 197.601 245.546 198.112 246.299 C 199.511 248.360,197.641 248.196,219.805 248.196 C 232.468 248.196,239.370 248.125,239.720 247.992 C 240.280 247.780,241.424 246.898,241.397 246.701 C 241.389 246.637,241.566 246.352,241.792 246.065 L 242.201 245.545 242.151 181.965 C 242.112 133.688,242.044 118.351,241.866 118.241 C 241.737 118.161,241.602 117.969,241.566 117.813 C 241.478 117.437,240.441 116.545,239.737 116.240 C 239.016 115.928,200.200 115.892,200.200 116.204 M279.619 116.415 C 278.514 117.091,277.681 118.239,277.599 119.200 C 277.575 119.475,277.566 127.354,277.578 136.710 L 277.600 153.720 278.127 154.533 C 279.266 156.289,278.540 156.200,292.155 156.258 C 305.386 156.313,304.709 156.220,306.100 158.186 L 306.700 159.034 306.748 202.329 L 306.796 245.623 307.406 246.508 C 307.942 247.288,308.628 247.871,309.033 247.893 C 309.107 247.897,309.232 247.966,309.313 248.046 C 309.545 248.278,348.077 248.237,348.691 248.004 C 349.640 247.642,350.570 246.735,350.938 245.809 C 351.344 244.789,351.520 119.582,351.117 118.700 C 351.017 118.480,350.924 118.255,350.910 118.200 C 350.790 117.708,350.218 117.075,349.454 116.591 L 348.536 116.009 314.418 116.004 L 280.300 115.999 279.619 116.415 M361.348 116.282 C 358.713 117.235,358.811 116.456,358.807 136.576 C 358.804 156.147,358.671 154.922,360.935 156.154 L 361.769 156.608 379.469 156.602 L 397.170 156.596 398.014 156.148 C 398.526 155.876,399.082 155.346,399.425 154.800 L 399.992 153.900 399.976 146.100 C 399.959 137.952,399.947 137.781,399.300 136.908 C 398.871 136.329,396.831 134.874,395.600 134.268 C 395.435 134.187,394.462 133.598,393.438 132.960 C 392.414 132.322,391.538 131.800,391.491 131.800 C 391.406 131.800,388.072 129.767,385.528 128.165 C 384.773 127.689,384.091 127.275,384.012 127.245 C 383.934 127.215,382.391 126.296,380.585 125.203 C 378.778 124.110,376.490 122.749,375.500 122.179 C 374.510 121.608,373.422 120.930,373.081 120.671 C 372.741 120.412,372.401 120.200,372.327 120.200 C 372.253 120.200,371.811 119.955,371.346 119.656 C 370.881 119.356,369.870 118.741,369.100 118.288 C 368.330 117.835,367.184 117.146,366.554 116.758 C 365.250 115.953,362.861 115.735,361.348 116.282 M139.200 166.746 C 139.035 166.807,138.665 167.022,138.377 167.223 C 138.090 167.424,137.783 167.523,137.695 167.444 C 137.608 167.365,137.601 167.413,137.680 167.550 C 137.771 167.709,137.698 167.800,137.478 167.800 C 137.289 167.800,137.188 167.855,137.255 167.921 C 137.321 167.988,137.211 168.219,137.010 168.435 C 136.400 169.090,136.404 168.845,136.405 207.465 C 136.405 249.313,136.278 245.920,137.900 247.300 L 138.841 248.100 158.620 248.148 C 173.488 248.184,178.400 248.139,178.400 247.965 C 178.400 247.837,178.459 247.793,178.532 247.865 C 178.604 247.937,178.794 247.888,178.953 247.756 C 179.112 247.624,179.436 247.420,179.671 247.302 C 179.907 247.185,180.295 246.732,180.534 246.295 L 180.968 245.500 180.984 207.530 C 180.999 172.793,180.972 169.502,180.673 168.872 C 180.325 168.138,179.400 167.164,178.964 167.072 C 178.819 167.041,178.340 166.924,177.900 166.812 C 177.063 166.598,139.772 166.535,139.200 166.746 M251.647 208.153 C 251.082 208.515,250.625 209.035,250.297 209.689 L 249.800 210.679 249.800 228.027 C 249.800 239.563,249.868 245.418,250.003 245.502 C 250.115 245.571,250.163 245.698,250.109 245.785 C 249.948 246.046,251.339 247.525,252.074 247.874 C 253.269 248.441,257.200 248.200,257.200 247.560 C 257.200 247.472,257.321 247.400,257.470 247.400 C 257.618 247.400,258.113 247.130,258.568 246.800 C 259.024 246.470,259.451 246.200,259.517 246.200 C 259.584 246.200,259.907 246.009,260.236 245.775 C 260.564 245.541,261.118 245.203,261.467 245.025 C 261.815 244.846,263.070 244.115,264.256 243.400 C 265.442 242.685,266.792 241.874,267.256 241.598 C 267.720 241.321,268.532 240.826,269.060 240.498 C 271.988 238.675,274.417 237.200,274.491 237.200 C 274.538 237.200,275.442 236.660,276.500 236.000 C 277.558 235.340,278.470 234.800,278.526 234.800 C 278.583 234.800,279.275 234.390,280.064 233.888 C 282.360 232.430,286.000 230.200,286.084 230.200 C 286.127 230.200,286.780 229.818,287.535 229.350 C 291.208 227.076,291.000 227.745,291.000 218.194 C 291.000 209.877,290.969 209.641,289.727 208.553 C 288.606 207.570,289.212 207.600,270.256 207.603 L 252.500 207.606 251.647 208.153 " stroke="none" fill="#20bc34" fill-rule="evenodd"></path><path id="path4" d="M33.781 116.567 C 32.151 117.511,29.927 118.851,28.900 119.505 C 28.350 119.856,24.930 121.925,21.300 124.103 C 17.670 126.281,14.670 128.139,14.633 128.231 C 14.597 128.324,14.484 128.400,14.384 128.400 C 14.208 128.400,4.378 134.248,2.175 135.664 C 1.584 136.044,0.875 136.657,0.600 137.027 L 0.100 137.700 0.049 145.756 C -0.013 155.516,0.096 155.913,3.000 156.525 C 4.153 156.767,38.258 156.581,38.861 156.329 C 41.259 155.327,41.225 155.631,41.158 135.800 L 41.100 118.700 40.561 117.871 C 39.317 115.959,35.950 115.311,33.781 116.567 M50.551 116.588 C 50.048 116.907,49.578 117.355,49.505 117.584 C 49.432 117.813,49.289 118.000,49.187 118.000 C 49.084 118.000,49.011 118.067,49.024 118.150 C 49.037 118.233,49.029 118.345,49.007 118.400 C 48.985 118.455,48.907 118.770,48.834 119.100 C 48.488 120.653,48.694 245.800,49.042 245.800 C 49.142 245.800,49.170 245.887,49.105 245.993 C 48.905 246.315,50.523 247.760,51.337 247.987 C 54.091 248.755,91.800 248.174,91.800 247.363 C 91.800 247.273,91.940 247.200,92.112 247.200 C 92.283 247.200,92.378 247.126,92.322 247.036 C 92.266 246.945,92.396 246.721,92.610 246.538 C 92.825 246.354,93.000 246.038,93.000 245.835 C 93.000 245.633,93.047 245.420,93.104 245.362 C 93.162 245.305,93.206 226.029,93.202 202.528 C 93.196 165.508,93.235 159.704,93.488 159.099 C 93.648 158.714,93.733 158.400,93.675 158.400 C 93.177 158.400,95.347 156.534,96.000 156.400 C 96.165 156.366,101.450 156.310,107.745 156.274 C 121.471 156.197,120.907 156.275,122.041 154.300 L 122.500 153.500 122.500 136.200 C 122.500 117.040,122.585 118.319,121.231 117.046 C 120.048 115.934,122.151 115.995,85.433 116.002 L 51.464 116.009 50.551 116.588 M138.800 116.264 C 136.945 117.233,136.400 118.188,136.401 120.467 C 136.402 122.103,136.647 122.682,138.817 126.152 C 139.523 127.280,140.190 128.361,140.300 128.554 C 140.410 128.747,141.355 130.275,142.400 131.950 C 143.445 133.625,144.390 135.155,144.500 135.350 C 144.610 135.545,145.555 137.078,146.600 138.755 C 147.645 140.433,148.653 142.052,148.841 142.353 C 149.028 142.654,149.425 143.328,149.722 143.850 C 150.020 144.373,150.339 144.800,150.432 144.800 C 150.524 144.800,150.600 144.896,150.600 145.013 C 150.600 145.193,151.312 146.403,153.041 149.157 C 153.228 149.456,153.625 150.128,153.922 150.650 C 154.220 151.172,154.539 151.600,154.632 151.600 C 154.724 151.600,154.800 151.703,154.800 151.828 C 154.800 152.456,157.077 155.623,157.867 156.095 L 158.700 156.592 168.452 156.592 C 179.934 156.592,180.185 156.534,180.978 153.698 C 181.436 152.057,181.178 118.818,180.702 118.100 C 180.085 117.171,179.707 116.807,178.924 116.387 C 177.995 115.890,139.742 115.772,138.800 116.264 M200.200 116.204 C 200.200 116.312,200.023 116.400,199.807 116.400 C 199.336 116.400,198.358 117.314,197.918 118.165 C 197.631 118.720,197.601 124.717,197.601 182.162 L 197.601 245.546 198.112 246.299 C 199.511 248.360,197.641 248.196,219.805 248.196 C 232.468 248.196,239.370 248.125,239.720 247.992 C 240.280 247.780,241.424 246.898,241.397 246.701 C 241.389 246.637,241.566 246.352,241.792 246.065 L 242.201 245.545 242.151 181.965 C 242.112 133.688,242.044 118.351,241.866 118.241 C 241.737 118.161,241.602 117.969,241.566 117.813 C 241.478 117.437,240.441 116.545,239.737 116.240 C 239.016 115.928,200.200 115.892,200.200 116.204 M279.619 116.415 C 278.514 117.091,277.681 118.239,277.599 119.200 C 277.575 119.475,277.566 127.354,277.578 136.710 L 277.600 153.720 278.127 154.533 C 279.266 156.289,278.540 156.200,292.155 156.258 C 305.386 156.313,304.709 156.220,306.100 158.186 L 306.700 159.034 306.748 202.329 L 306.796 245.623 307.406 246.508 C 307.942 247.288,308.628 247.871,309.033 247.893 C 309.107 247.897,309.232 247.966,309.313 248.046 C 309.545 248.278,348.077 248.237,348.691 248.004 C 349.640 247.642,350.570 246.735,350.938 245.809 C 351.344 244.789,351.520 119.582,351.117 118.700 C 351.017 118.480,350.924 118.255,350.910 118.200 C 350.790 117.708,350.218 117.075,349.454 116.591 L 348.536 116.009 314.418 116.004 L 280.300 115.999 279.619 116.415 M361.348 116.282 C 358.713 117.235,358.811 116.456,358.807 136.576 C 358.804 156.147,358.671 154.922,360.935 156.154 L 361.769 156.608 379.469 156.602 L 397.170 156.596 398.014 156.148 C 398.526 155.876,399.082 155.346,399.425 154.800 L 399.992 153.900 399.976 146.100 C 399.959 137.952,399.947 137.781,399.300 136.908 C 398.871 136.329,396.831 134.874,395.600 134.268 C 395.435 134.187,394.462 133.598,393.438 132.960 C 392.414 132.322,391.538 131.800,391.491 131.800 C 391.406 131.800,388.072 129.767,385.528 128.165 C 384.773 127.689,384.091 127.275,384.012 127.245 C 383.934 127.215,382.391 126.296,380.585 125.203 C 378.778 124.110,376.490 122.749,375.500 122.179 C 374.510 121.608,373.422 120.930,373.081 120.671 C 372.741 120.412,372.401 120.200,372.327 120.200 C 372.253 120.200,371.811 119.955,371.346 119.656 C 370.881 119.356,369.870 118.741,369.100 118.288 C 368.330 117.835,367.184 117.146,366.554 116.758 C 365.250 115.953,362.861 115.735,361.348 116.282 M139.200 166.746 C 139.035 166.807,138.665 167.022,138.377 167.223 C 138.090 167.424,137.783 167.523,137.695 167.444 C 137.608 167.365,137.601 167.413,137.680 167.550 C 137.771 167.709,137.698 167.800,137.478 167.800 C 137.289 167.800,137.188 167.855,137.255 167.921 C 137.321 167.988,137.211 168.219,137.010 168.435 C 136.400 169.090,136.404 168.845,136.405 207.465 C 136.405 249.313,136.278 245.920,137.900 247.300 L 138.841 248.100 158.620 248.148 C 173.488 248.184,178.400 248.139,178.400 247.965 C 178.400 247.837,178.459 247.793,178.532 247.865 C 178.604 247.937,178.794 247.888,178.953 247.756 C 179.112 247.624,179.436 247.420,179.671 247.302 C 179.907 247.185,180.295 246.732,180.534 246.295 L 180.968 245.500 180.984 207.530 C 180.999 172.793,180.972 169.502,180.673 168.872 C 180.325 168.138,179.400 167.164,178.964 167.072 C 178.819 167.041,178.340 166.924,177.900 166.812 C 177.063 166.598,139.772 166.535,139.200 166.746 M251.647 208.153 C 251.082 208.515,250.625 209.035,250.297 209.689 L 249.800 210.679 249.800 228.027 C 249.800 239.563,249.868 245.418,250.003 245.502 C 250.115 245.571,250.163 245.698,250.109 245.785 C 249.948 246.046,251.339 247.525,252.074 247.874 C 253.269 248.441,257.200 248.200,257.200 247.560 C 257.200 247.472,257.321 247.400,257.470 247.400 C 257.618 247.400,258.113 247.130,258.568 246.800 C 259.024 246.470,259.451 246.200,259.517 246.200 C 259.584 246.200,259.907 246.009,260.236 245.775 C 260.564 245.541,261.118 245.203,261.467 245.025 C 261.815 244.846,263.070 244.115,264.256 243.400 C 265.442 242.685,266.792 241.874,267.256 241.598 C 267.720 241.321,268.532 240.826,269.060 240.498 C 271.988 238.675,274.417 237.200,274.491 237.200 C 274.538 237.200,275.442 236.660,276.500 236.000 C 277.558 235.340,278.470 234.800,278.526 234.800 C 278.583 234.800,279.275 234.390,280.064 233.888 C 282.360 232.430,286.000 230.200,286.084 230.200 C 286.127 230.200,286.780 229.818,287.535 229.350 C 291.208 227.076,291.000 227.745,291.000 218.194 C 291.000 209.877,290.969 209.641,289.727 208.553 C 288.606 207.570,289.212 207.600,270.256 207.603 L 252.500 207.606 251.647 208.153 " stroke="none" fill="#20bc34" fill-rule="evenodd"></path></g></svg>
