<svg viewBox="0 0 24 24" fill="none" xmlns="http://www.w3.org/2000/svg">
<path d="M13.7968 6.1639C13.7968 6.76653 13.567 7.27784 13.1073 7.69784C12.6476 8.11784 12.0879 8.32784 11.4284 8.32784C10.7489 8.32784 10.1792 8.11784 9.71951 7.69784C9.25984 7.27784 9.03 6.76653 9.03 6.1639C9.03 5.56132 9.25984 5.05 9.71951 4.63C10.1792 4.21 10.7489 4 11.4284 4C12.0879 4 12.6476 4.21 13.1073 4.63C13.567 5.05 13.7968 5.56132 13.7968 6.1639ZM9 13.7475C9 13.1449 9.22984 12.6336 9.68957 12.2136C10.1692 11.7753 10.7489 11.5562 11.4284 11.5562C12.0679 11.5562 12.6276 11.7753 13.1073 12.2136C13.587 12.6336 13.8668 13.1084 13.9467 13.6379C14.1066 14.624 13.9068 15.601 13.3471 16.5688C12.8075 17.5366 12.028 18.2762 11.0086 18.7875C10.449 19.0797 9.98935 19.0706 9.62957 18.7601C9.28978 18.4679 9.38973 18.121 9.9294 17.7193C10.2292 17.5184 10.479 17.2627 10.6789 16.9523C10.8788 16.6418 11.0086 16.3223 11.0686 15.9936C11.0886 15.8475 11.0186 15.7745 10.8588 15.7745C10.459 15.7562 10.0493 15.5553 9.62957 15.1718C9.20984 14.7884 9 14.3136 9 13.7475Z" fill="black"/>
</svg>
