<?xml version="1.0" encoding="utf-8"?>
<!-- Generator: Adobe Illustrator 24.1.1, SVG Export Plug-In . SVG Version: 6.00 Build 0)  -->
<svg version="1.1" id="Layer_1" xmlns="http://www.w3.org/2000/svg" xmlns:xlink="http://www.w3.org/1999/xlink" x="0px" y="0px"
	 viewBox="0 0 24 24" style="enable-background:new 0 0 24 24;" xml:space="preserve">
<style type="text/css">
	.st0{fill:#757575;}
	.st1{fill:#880E4F;}
	.st2{fill:#FFFFFF;}
</style>
<path class="st0" d="M13,9h5.5L13,3.5V9 M6,2h8l6,6v12c0,1.1-0.9,2-2,2H6c-1.1,0-2-0.9-2-2V4C4,2.9,4.9,2,6,2 M15,18v-2H6v2H15
	 M18,14v-2H6v2H18z"/>
<path class="st1" d="M10.1,10.1h13v13h-13V10.1z"/>
<g>
	<path class="st2" d="M14,14.6h-1.7v-1.1H17v1.1h-1.7v5H14V14.6z"/>
	<path class="st2" d="M17.9,13.5h1.3v5H22v1.1h-4V13.5z"/>
</g>
</svg>
