<svg fill="#2196f3" version="1.1" viewBox="0 0 32 32" xmlns="http://www.w3.org/2000/svg">
    <path
        d="M 28,10 Q 27.15,10 26.575,9.425 26,8.85002 26,8 26,7.15 26.575,6.575 27.15,6 28,6 28.85,6 29.42498,6.575 30,7.14998 30,8 30,8.85 29.42498,9.425 28.85,10 28,10 Z" />
    <path d="m2 10v-4h22v4z" />
    <path
        d="m28 18q-0.85 0-1.425-0.575-0.575-0.57498-0.575-1.425 0-0.85 0.575-1.425t1.425-0.575 1.425 0.575q0.57502 0.57498 0.57502 1.425 0 0.85-0.57502 1.425-0.57498 0.575-1.425 0.575z" />
    <path d="m2 18v-4h22v4z" />
    <path
        d="m28 26q-0.85 0-1.425-0.575-0.575-0.57498-0.575-1.425t0.575-1.425q0.575-0.575 1.425-0.575t1.425 0.575q0.57502 0.57498 0.57502 1.425t-0.57502 1.425q-0.57498 0.575-1.425 0.575z" />
    <path d="m2 26v-4h22v4z" />
</svg>