<?xml version="1.0" encoding="UTF-8" standalone="no"?>
<svg
   height="16"
   viewBox="0 0 16 16"
   width="16"
   fill="#2196f3"
   version="1.1"
   id="svg1"
   sodipodi:docname="toc.svg"
   inkscape:version="1.4 (e7c3feb1, 2024-10-09)"
   xmlns:inkscape="http://www.inkscape.org/namespaces/inkscape"
   xmlns:sodipodi="http://sodipodi.sourceforge.net/DTD/sodipodi-0.dtd"
   xmlns="http://www.w3.org/2000/svg"
   xmlns:svg="http://www.w3.org/2000/svg">
  <defs
     id="defs1" />
  <sodipodi:namedview
     id="namedview1"
     pagecolor="#ffffff"
     bordercolor="#000000"
     borderopacity="0.25"
     inkscape:showpageshadow="2"
     inkscape:pageopacity="0.0"
     inkscape:pagecheckerboard="0"
     inkscape:deskcolor="#d1d1d1"
     inkscape:zoom="30.73099"
     inkscape:cx="8.2978127"
     inkscape:cy="8.0700296"
     inkscape:window-width="1472"
     inkscape:window-height="923"
     inkscape:window-x="0"
     inkscape:window-y="33"
     inkscape:window-maximized="0"
     inkscape:current-layer="svg1"
     showgrid="true">
    <inkscape:grid
       id="grid1"
       units="px"
       originx="0"
       originy="0"
       spacingx="1"
       spacingy="1"
       empcolor="#0099e5"
       empopacity="0.30196078"
       color="#0099e5"
       opacity="0.14901961"
       empspacing="5"
       enabled="true"
       visible="true" />
  </sodipodi:namedview>
  <path
     style="stroke-width:0.025"
     d="m 14,4.9999997 q -0.425002,0 -0.712497,-0.2875047 Q 13,4.4250017 13,3.9999999 13,3.5749978 13.287503,3.2875044 13.574998,3 14,3 14.425001,3 14.712494,3.2875044 15,3.5749978 15,3.9999999 15,4.4250017 14.712494,4.712495 14.425001,4.9999997 14,4.9999997 Z"
     id="path6" />
  <path
     style="stroke-width:0.0221601"
     d="M 1,5 V 3 h 11 v 2 z"
     id="path3" />
  <path
     style="stroke-width:0.025"
     d="m 14,8.9999997 q -0.425002,0 -0.712497,-0.2875047 Q 13,8.4250017 13,7.9999999 13,7.5749978 13.287503,7.2875044 13.574998,7 14,7 14.425001,7 14.712494,7.2875044 15,7.5749978 15,7.9999999 15,8.4250017 14.712494,8.712495 14.425001,8.9999997 14,8.9999997 Z"
     id="path6-1" />
  <path
     style="stroke-width:0.0221601"
     d="M 1,9 V 7 h 11 v 2 z"
     id="path3-7" />
  <path
     style="stroke-width:0.025"
     d="M 14,13 Q 13.574998,13 13.287503,12.712495 13,12.425002 13,12 13,11.574998 13.287503,11.287504 13.574998,11 14,11 14.425001,11 14.712494,11.287504 15,11.574998 15,12 15,12.425002 14.712494,12.712495 14.425001,13 14,13 Z"
     id="path6-5" />
  <path
     style="stroke-width:0.0221601"
     d="m 1,13 v -2 h 11 v 2 z"
     id="path3-5" />
</svg>
