<svg version="1.1" viewBox="0 0 32 32" xmlns="http://www.w3.org/2000/svg">
   <g fill="#2196f3" stroke-linecap="round" stroke-linejoin="round">
      <path d="m3 2a1 1 0 0 0-1 1v6a1 1 0 0 0 1 1h6a1 1 0 0 0 1-1v-6a1 1 0 0 0-1-1zm1 2h4v4h-4z" stroke-width="1" />
      <path d="m3 12a1 1 0 0 0-1 1v6a1 1 0 0 0 1 1h6a1 1 0 0 0 1-1v-6a1 1 0 0 0-1-1zm1 2h4v4h-4z" />
      <path d="m13 12a1 1 0 0 0-1 1 1 1 0 0 0 1 1h16a1 1 0 0 0 1-1 1 1 0 0 0-1-1z" stroke-width="1" />
      <path d="m13 16a1 1 0 0 0-1 1 1 1 0 0 0 1 1h14a1 1 0 0 0 1-1 1 1 0 0 0-1-1z" stroke-width="1" />
      <path d="m3 22a1 1 0 0 0-1 1v6a1 1 0 0 0 1 1h6a1 1 0 0 0 1-1v-6a1 1 0 0 0-1-1zm1 2h4v4h-4z" stroke-width="2" />
      <g>
         <path d="m13 22a1 1 0 0 0-1 1 1 1 0 0 0 1 1h16a1 1 0 0 0 1-1 1 1 0 0 0-1-1z" />
         <path d="m13 26a1 1 0 0 0-1 1 1 1 0 0 0 1 1h14a1 1 0 0 0 1-1 1 1 0 0 0-1-1z" />
         <path d="m3 22a1 1 0 0 0-1 1v6a1 1 0 0 0 1 1h6a1 1 0 0 0 1-1v-6a1 1 0 0 0-1-1zm1 2h4v4h-4z" />
      </g>
      <g stroke-width="1">
         <path d="m13 22a1 1 0 0 0-1 1 1 1 0 0 0 1 1h16a1 1 0 0 0 1-1 1 1 0 0 0-1-1z" />
         <path d="m13 26a1 1 0 0 0-1 1 1 1 0 0 0 1 1h14a1 1 0 0 0 1-1 1 1 0 0 0-1-1z" />
         <path d="m13 2a1 1 0 0 0-1 1 1 1 0 0 0 1 1h16a1 1 0 0 0 1-1 1 1 0 0 0-1-1z" />
         <path d="m13 6a1 1 0 0 0-1 1 1 1 0 0 0 1 1h14a1 1 0 0 0 1-1 1 1 0 0 0-1-1z" />
      </g>
   </g>
</svg>