<svg xmlns="http://www.w3.org/2000/svg" version="1.1" viewBox="0 0 24 24"><path d="m11.98 2a10 10 0 00-.34.008l-2.611 3.898 3.049-1.727.838-.475-.725-1.703a10 10 0 00-.191-.002a10 10 0 00-.02 0zm.813.031.656 1.543 4.881.686a10 10 0 00-5.537-2.229zm-1.838.023a10 10 0 00-6.314 3.174l3.418 1.152 2.896-4.326zm2.676 2.092.623 2.277.053.189 4.996-1.445a10 10 0 00-.254-.26l-5.418-.762zm-.539.082-2.057 1.162-1.91 1.082 4.635.191-.029-.105-.639-2.33zm6.605 1.389-5.039 1.457 2.732 2.479 2.604-3.559a10 10 0 00-.297-.377zm-15.439.055a10 10 0 00-.494.656l2.025 4.912 2.008-4.375-3.539-1.193zm16.066.789-2.453 3.35 4.088 1.301a10 10 0 00-1.635-4.65zm-16.918.426a10 10 0 00-1.398 4.762l3.361 0-1.963-4.762zm5.295.109 2.363 3.424 2.516-3.223-4.879-.201zm-.486.252-1.973 4.303 4.352-.859-1.467-2.123-.912-1.32zm5.938.098-2.471 3.164 2.762-.396 2.381-.344-2.672-2.424zm2.969 2.93-3.799.547-1.527.223 4.865 3.229.461-3.998zm.541.037-.439 3.824-.021.188 4.789-1.889a10 10 0 00.01-.436a10 10 0 00-.006-.309l-4.047-1.289-.285-.09zm-7.082.932-4.479.889 1.303 5.887 3.176-6.775zm.76.146.213 7.107 2.779-2.139 2.082-1.602-5.074-3.367zm-.523.631-1.469 3.127-1.617 3.449 3.064.145.225.012-.203-6.732zm-8.814.168a10 10 0 001.389 4.898l.842-2.078 1.143-2.82-3.373 0zm3.697.637-1.951 4.818a10 10 0 00.824 1.051l2.402-.102-.426-1.928-.85-3.84zm16.246.205-1.641.648-2.932 1.156 2.906 2.771a10 10 0 001.666-4.576zm-4.859 2.281-.506 4.355 2.449-.557a10 10 0 00.93-1.061l-2.873-2.738zm-.551.035-4.6 3.537 4.094.811.506-4.348zm-9.324 3.777-2.135.088a10 10 0 005.189 2.635l-.182-.162-2.873-2.561zm.848.031 3.156 2.813a10 10 0 00.348.021l-.492-2.695-3.012-.139zm3.576.223.479 2.619a10 10 0 001.025-.064l2.461-1.771-3.965-.783zm6.547.482-1.803.408-2.008 1.445a10 10 0 003.811-1.854z" fill="#cddc39" /></svg>
