<svg viewBox="0 0 32 32" fill="none" xmlns="http://www.w3.org/2000/svg">
<path d="M13.844 7.536L12.556 6.464C12.1967 6.1644 11.7438 6.00021 11.276 6H4C3.46957 6 2.96086 6.21071 2.58579 6.58579C2.21071 6.96086 2 7.46957 2 8V24C2 24.5304 2.21071 25.0391 2.58579 25.4142C2.96086 25.7893 3.46957 26 4 26H28C28.5304 26 29.0391 25.7893 29.4142 25.4142C29.7893 25.0391 30 24.5304 30 24V10C30 9.46957 29.7893 8.96086 29.4142 8.58579C29.0391 8.21071 28.5304 8 28 8H15.124C14.6562 7.99979 14.2033 7.8356 13.844 7.536Z" fill="#76FF03"/>
<path fill-rule="evenodd" clip-rule="evenodd" d="M17.9649 18.0917L22 11L32 28.5758H12L16.0351 21.4838L18.8894 23.1561L17.7089 25.231H26.2911L22 17.6893L20.8195 19.7642L17.9649 18.0917Z" fill="#F0F4C3"/>
</svg>
