<?xml version="1.0" encoding="UTF-8" standalone="no"?>
<svg xmlns="http://www.w3.org/2000/svg" viewBox="0 0 24 24" version="1.0">
    <path d="m13 9h5.5l-5.5-5.5v5.5m-7-7h8l6 6v12a2 2 0 0 1 -2 2h-12c-1.11 0-2-.9-2-2v-16c0-1.11.89-2 2-2m9 16v-2h-9v2h9m3-4v-2h-12v2h12z" fill="#757575" />
    <rect height="10.11" width="10.11" x="12.945" y="13.03" fill="#0288d1" />
    <path d="M20.65 15.537a1.398 1.398 0 01.703.404 1.85 1.85 0 01.27.361c.003.015-.485.343-.781.525-.011.008-.054-.039-.102-.11a.636.636 0 00-.528-.316c-.34-.023-.56.155-.558.453a.41.41 0 00.049.21c.075.155.214.248.65.437.804.348 1.149.574 1.362.898a1.63 1.63 0 01.131 1.37 1.505 1.505 0 01-1.242.889 3.444 3.444 0 01-.855-.01 2.063 2.063 0 01-1.143-.594 1.983 1.983 0 01-.292-.434.839.839 0 01.103-.065l.417-.24.323-.19.068.098a1.507 1.507 0 00.427.408 1.043 1.043 0 001.092-.055.488.488 0 00.063-.624c-.087-.126-.265-.23-.772-.449a2.78 2.78 0 01-1.058-.649 1.48 1.48 0 01-.308-.561 2.248 2.248 0 01-.02-.717 1.369 1.369 0 011.152-1.066 2.843 2.843 0 01.85.027zm-2.635.468l.004.46h-1.463v4.153h-1.032v-4.153h-1.463v-.45a4.419 4.419 0 01.013-.464c.005-.007.895-.01 1.973-.009l1.962.006z" fill="#ffffff" />
</svg>