<svg xmlns="http://www.w3.org/2000/svg" version="1.0" viewBox="0 0 24 24">
   <path d="m13 9h5.5l-5.5-5.5v5.5m-7-7h8l6 6v12a2 2 0 0 1 -2 2h-12c-1.11 0-2-.9-2-2v-16c0-1.11.89-2 2-2m9 16v-2h-9v2h9m3-4v-2h-12v2h12z" fill="#757575" />
   <rect x="10.055" y="10.14" height="13" width="13" fill="#0288d1" />
   <path d="m 19.962518,13.36364 a 1.7976262,1.7976262 0 0 1 0.903956,0.519485 2.3788329,2.3788329 0 0 1 0.347181,0.464194 c 0.0039,0.01929 -0.62364,0.441049 -1.004253,0.675075 -0.01414,0.01029 -0.06944,-0.05015 -0.131157,-0.141445 a 0.81780418,0.81780418 0 0 0 -0.678932,-0.40633 c -0.437191,-0.02958 -0.720079,0.199308 -0.717508,0.582493 a 0.52720081,0.52720081 0 0 0 0.06301,0.270029 c 0.09644,0.199308 0.275173,0.318893 0.835806,0.561919 1.033828,0.447478 1.477449,0.738081 1.751336,1.154699 a 2.0959447,2.0959447 0 0 1 0.168447,1.761622 1.9352127,1.9352127 0 0 1 -1.597033,1.143125 4.4284868,4.4284868 0 0 1 -1.099406,-0.01286 2.6527202,2.6527202 0 0 1 -1.469733,-0.763798 2.5498517,2.5498517 0 0 1 -0.37547,-0.558062 1.0788329,1.0788329 0 0 1 0.132443,-0.08358 l 0.536202,-0.308606 0.415331,-0.244312 0.08744,0.126014 a 1.9377844,1.9377844 0 0 0 0.549061,0.524629 1.3411474,1.3411474 0 0 0 1.404154,-0.07072 0.62749755,0.62749755 0 0 0 0.08101,-0.802374 c -0.11187,-0.162018 -0.340752,-0.295747 -0.992681,-0.577349 a 3.5746787,3.5746787 0 0 1 -1.360435,-0.834521 1.9030663,1.9030663 0 0 1 -0.396043,-0.721365 2.8906035,2.8906035 0 0 1 -0.02572,-0.921958 1.7603364,1.7603364 0 0 1 1.481306,-1.370722 3.6556876,3.6556876 0 0 1 1.092977,0.03472 z m -3.38823,0.60178 0.0051,0.591494 h -1.881206 v 5.340158 h -1.327003 v -5.340158 h -1.881207 v -0.578635 a 5.682196,5.682196 0 0 1 0.01672,-0.596637 c 0.0064,-0.009 1.150841,-0.01286 2.536993,-0.01157 l 2.522849,0.0077 z" fill="#ffffff" />
</svg>