<?xml version="1.0" encoding="UTF-8"?>
<svg width="408px" height="408px" viewBox="0 0 408 408" version="1.1" xmlns="http://www.w3.org/2000/svg" xmlns:xlink="http://www.w3.org/1999/xlink">
    <g id="Page-1" stroke="none" stroke-width="1" fill="none" fill-rule="evenodd">
        <g id="Group-2">
            <g id="Group" fill="#0288D1">
                <path d="M0,0 L0,408 L408,408 L408,0 L0,0 Z M310.02,198.17 L310.02,198.17586 C313.9324,198.18812 318.3786,198.38943 321.723,198.75203 C335.342,200.22543 345.948,206.10103 354.971,217.16803 C359.4644,222.68093 361.0017,225.09333 360.6741,226.12503 C360.46302,226.79067 357.3801,228.99903 347.5781,235.50593 C337.9494,241.89803 334.8471,243.81253 334.1271,243.81253 C333.39665,243.81253 331.8754,242.24683 329.6818,239.24023 C325.4574,233.45103 321.1445,230.80883 314.4768,229.92773 C307.3064,228.97813 300.8748,231.23823 297.7248,235.81643 C295.0325,239.72763 294.6258,246.02243 296.76581,250.59543 C299.24501,255.89303 303.73291,258.82163 320.93181,266.36343 C340.76781,275.06093 350.81981,281.01443 358.14081,288.40243 C366.02461,296.35873 370.01881,305.54543 371.24581,318.53943 C371.84488,324.87263 371.11297,332.37943 369.30051,338.48243 C364.85581,353.44343 352.86151,364.39843 335.28051,369.55443 C330.42081,370.97923 325.89871,371.83043 321.42551,372.15793 C314.59731,372.66067 304.82251,372.38365 298.93951,371.52707 C284.05551,369.35937 267.25351,360.69807 258.87551,350.87707 C254.76271,346.05657 249.51221,338.12307 249.51221,336.72707 C249.51221,336.05356 249.84593,335.67137 251.16841,334.83057 C255.08971,332.33947 277.56241,319.49257 277.99841,319.49257 C278.26186,319.49257 279.43571,320.87637 280.60581,322.56677 C283.25701,326.39457 289.77581,332.97377 293.08981,335.16877 C295.79721,336.96157 299.25891,338.40147 303.36881,339.44027 C305.72271,340.02707 306.96901,340.13168 312.10511,340.13168 C317.35261,340.12992 318.42941,340.04158 320.77701,339.41097 C326.98661,337.73967 331.83401,334.28167 333.88801,330.05747 C334.7884,328.23207 334.80598,328.00417 334.80598,323.57697 L334.80598,318.98717 L333.70248,316.79777 C331.02908,311.49107 325.26868,307.85037 307.05748,299.96177 C298.69198,296.33807 288.44648,291.22877 284.44648,288.68677 C275.31828,282.88577 268.99148,276.25377 264.83948,268.13577 C260.70948,260.06277 260.09358,257.05777 260.08358,244.91877 C260.07341,235.41637 260.05766,235.53297 262.02498,229.46777 C263.80998,223.96397 267.46398,217.81577 271.49768,213.52877 C279.54878,204.97057 291.31068,199.47077 303.90368,198.37677 C305.51448,198.22433 307.67168,198.16469 310.01888,198.17 L310.02,198.17 Z M201.66,200.047 L201.66391,200.047 C225.91691,200.05927 239.81991,200.1432 240.04291,200.28333 C240.46327,200.54363 240.51556,202.65413 240.51556,216.12533 L240.51556,231.66633 L216.31456,231.75422 L192.11356,231.84211 L192.11356,300.55511 C192.11356,338.34811 192.03702,369.49311 191.93192,369.76811 C191.76077,370.2306 189.89942,370.26616 174.15292,370.26616 L156.56492,370.26616 L156.38328,369.55522 C156.26583,369.16511 156.1802,338.01922 156.1782,300.34222 L156.17234,231.83822 L131.97134,231.75228 L107.77034,231.66439 L107.77034,216.30739 C107.77034,204.12739 107.85448,200.86539 108.17854,200.54139 C108.51154,200.19805 120.86254,200.10952 174.08054,200.05702 C184.34154,200.045191 193.57554,200.04225 201.66054,200.04725 L201.66,200.047 Z" id="Shape"></path>
            </g>
            <g id="Wikipedia_interwiki_section_gear_icon.svg" transform="translate(276.000000, 277.000000)" fill="#000000" fill-rule="nonzero">
                <g id="Group" transform="translate(66.000000, 65.500000) scale(-1, 1) rotate(-180.000000) translate(-66.000000, -65.500000) translate(0.000000, -0.000000)">
                    <path d="M53.812,130.374623 C53.757,130.023534 53.196,126.688191 52.569,122.946901 C51.942,119.161725 51.392,116.155528 51.326,116.133585 C51.26,116.122613 50.336,115.826382 49.28,115.486265 C47.047,114.773116 44.319,113.621106 41.855,112.370352 L40.128,111.481658 L34.133,115.705695 C30.833,118.031658 28.094,119.91876 28.039,119.896817 C27.94,119.863903 14.586,106.774874 12.133,104.317253 L10.791,102.967755 L15.169,96.9443886 L19.547,90.9210218 L18.535,88.8254606 C17.974,87.6734506 17.215,85.9948074 16.852,85.0841709 C16.236,83.5371859 15.191,80.4651591 15.026,79.6861809 C14.949,79.3570352 14.916,79.3350921 14.212,79.2253769 C13.145,79.0498325 0.198,77.1298157 0.088,77.1298157 C0.044,77.1298157 0,71.6989112 0,65.0721106 L0,53.0144054 L0.638,52.9046901 C0.979,52.8498325 4.323,52.2902848 8.074,51.6649079 C11.814,51.039531 14.894,50.4799832 14.905,50.4141541 C15.785,47.3640704 16.83,44.6979899 18.37,41.5930486 L19.558,39.2012563 L15.224,33.1010888 C12.837,29.7438023 10.89,26.9460637 10.89,26.891206 C10.89,26.8363484 14.696,22.9743719 19.338,18.311474 L27.786,9.83048576 L33.979,14.2520101 L40.183,18.6625628 L41.569,17.9603853 C44.308,16.5560302 47.674,15.1955611 50.369,14.3836683 L51.755,13.9667504 L52.932,7.01080402 C53.581,3.18174204 54.109,0.0438860972 54.109,0.0329145729 C54.12,0.0109715243 59.587,0 66.275,0 L78.419,0 L78.485,0.362060302 C78.518,0.548576214 79.057,3.75226131 79.673,7.46063652 L80.806,14.208124 L82.335,14.7128141 C85.063,15.6015075 86.867,16.3365997 90.002,17.85067 L92.169,18.9039363 L98.23,14.6030988 C101.563,12.2332496 104.357,10.2803183 104.423,10.2474037 C104.5,10.2254606 108.372,14.021608 113.047,18.6735343 L121.539,27.1545226 L117.139,33.3205193 L112.739,39.4865159 L113.74,41.4723618 C115.324,44.6321608 116.6,47.7809883 117.205,50.0520938 C117.37,50.6884422 117.436,50.7981575 117.689,50.8420436 C117.843,50.8749581 121,51.3467337 124.685,51.8953099 C128.381,52.4438861 131.527,52.9156616 131.703,52.9485762 L132,53.0144054 L132,65.061139 L132,77.1078727 L131.263,77.239531 C130.845,77.3053601 127.501,77.8649079 123.816,78.4793132 L117.128,79.6093802 L116.666,81.1344221 C115.731,84.2174204 114.609,86.9054439 113.036,89.8128978 L112.442,90.9210218 L115.852,95.6278057 C117.733,98.2170854 119.702,100.927052 120.23,101.662144 L121.198,102.989698 L116.237,108.025628 C113.509,110.790452 109.681,114.674372 107.723,116.660218 L104.159,120.247906 L98.01,116.001926 L91.861,111.744975 L89.683,112.809213 C87.208,114.027052 84.359,115.190034 82.093,115.925126 C80.652,116.38593 80.531,116.440787 80.476,116.715075 C80.399,117.066164 78.1,130.85737 78.1,130.945142 C78.1,130.978057 72.655,131 66.011,131 L53.922,131 L53.812,130.374623 Z M67.859,90.2956449 C78.397,89.4947236 87.395,82.1438023 90.365,71.9183417 C92.257,65.3793132 91.289,57.9735343 87.758,52.0598827 C85.272,47.9126466 81.774,44.6541039 77.44,42.4707705 C67.441,37.4128978 55.297,39.4974874 47.63,47.5835008 C45.078,50.2715243 43.23,53.3545226 42.031,56.8873534 C40.469,61.5173367 40.26,66.421608 41.426,71.0954774 C44.396,83.0215243 55.682,91.2172529 67.859,90.2956449 Z" id="Shape"></path>
                </g>
            </g>
        </g>
    </g>
</svg>
