<svg viewBox="0 0 32 32" xmlns="http://www.w3.org/2000/svg" xml:space="preserve" style="fill-rule:evenodd;clip-rule:evenodd;stroke-linejoin:round;stroke-miterlimit:2"><path d="m17.076 7.789 7.524 2.793-8.54 3.924-7.524-2.793z" style="fill:#757575" transform="rotate(-30 11.828 21.163)scale(1.15106 1.79056)"/><path d="m16.506 8.114 7.635 2.942-7.488 2.779-7.634-2.942z" style="fill:#bdbdbd" transform="rotate(30 43.055 9.992)scale(1.15661 1.79918)"/><path d="m16.431 8.256 7.418 2.647-7.561 2.806-7.419-2.647z" style="fill:#8c9eff" transform="rotate(30 24.15 20.794)scale(.68723 1.06902)"/><path d="m16.667 8.134 9.51 2.779-7.604 2.911-9.687-2.911z" style="fill:#9e9e9e" transform="matrix(0 1.15661 -1.79918 0 29.633 -8.277)"/><path d="m8.381 10.987-.23 2.214-5.104-2.727L7.971 5.74l.123 2.105 9.573-3.028-.724 3.428z" style="fill:#ffd54f" transform="rotate(-38.78 17.565 2.875)scale(.53357 .62248)"/><path d="m16.664 19 1.93-.004 4.502 7.718h-1.93z" style="fill:#ffb74d" transform="translate(-8.912 -13.538)scale(1.55488)"/><path d="M16.021 20.282 16.664 19l4.502 7.714L20.523 28z" style="fill:#ff9800" transform="translate(-8.912 -13.538)scale(1.55488)"/><path d="M22.453 28h-1.93l.643-1.286h1.93z" style="fill:#ef6c00" transform="translate(-8.912 -13.538)scale(1.55488)"/></svg>