<svg xmlns="http://www.w3.org/2000/svg" fill="none" viewBox="0 0 100 100">
  <!-- Grey body -->
  <path fill="#bababa" d="M28.936 21.766l28.82-6.88l16.27 25.07l-13.56 14.04l-9.51 6.5l-14.571 7.132l-1.08 0l-18.04-18.01l11.67-27.85"/>

  <!-- Grey borders -->
  <path stroke="rgba(107,107,107,0.78)" stroke-width="1" d="M28.936 21.766l28.82-6.88l16.27 25.07m-45.09-18.19l-11.67 27.85l18.04 18.01m-6.37-45.86l22.02 28.73m23.07-10.54l-23.07 10.54m-15.65 17.13l15.65-17.13"/>

  <!-- Arm -->
  <path fill="#d1a656" stroke="rgba(122,85,15,1)" d="M50.973 60.471l9.5-6.5l21.49 23.02l-11.5 9z"/>

  <!-- Blue square -->
  <path fill="#89a5e8" stroke="rgba(69,106,191,1)" d="M39 25.702l17.252-5.261l10.554 14.38l-14.769 7.032l-13.037-16.15z"/>

  <!-- Yellow arrow -->
  <path fill="#fcd056" stroke="rgba(184,151,61,1)" d="M33.883 39.842 L38.44 45.197 L33.042 52.039 L35.059 55.556 L27.059 56.045 L25.455 46.615 L29.192 48.615 L33.887 40.835 Z"/>

  <!-- Letters -->
  <path stroke="rgba(255,255,255,1)" stroke-linecap="square" stroke-linejoin="miter" d="m56.822 33.529.102.348l.038.115l.024.064l.019.046l.024.058l.066.143l.07.126l.085.138l.086.141l.06.089l.064.1l.034.058l.078.142l.042.091l.1.214l.05.103l.045.094l.08.186l.075.146l.08.152l.04.083l.076.156l.036.072l.036.072l.037.069l.08.145l.084.162l.063.123l.065.123l.115.204l.01.017l.01.017l.01.02l.02.048l.01.028l.01.025l.028.072l.035.102m-4.402-3.4l.32-.194l.13-.081l.118-.073l.11-.066l.225-.126l.12-.063l.234-.122l.117-.061l.116-.06l.214-.108l.112-.055l.444-.234l.212-.108l.425-.188l.224-.089l.296-.111l.078-.033l.145-.056l.127-.048l.077-.026l.044-.016l.052-.024l.2-.102m3.65-1.183l-.34-.162l-.07-.03l-.222-.055l-.158 0l-.264.07l-.25.14l-.103.085l-.17.185l-.091.13l-.089.135l-.079.13l-.116.263l-.086.434l-.01.167l0 .331l.015.16l.164.41l.14.2l.093.1l.039.03l.103.047l.152.038l.118-.017l.383-.13l.156-.072l.164-.074l.5-.178l.323-.057l.149-.023l.488-.038l.134.063l.095.058l.06.05l.029.026l.024.03l.026.049l.033.066l.037.076l.052.182l0 .203l0 .11l-.026.12l-.081.258l-.654.892l-.285.17l-.305.118l-.301.074l-.133.02l-.287.027l-.121.01l-.198l-.215.011l-.23 0l-.166 0L60.9 36"/>
</svg>
