<svg xmlns="http://www.w3.org/2000/svg" viewBox="0 0 32 32"><defs><linearGradient id="a" x1="27.349" x2="7.613" y1="26.455" y2="6.719" gradientTransform="matrix(1 0 0 -1 0 34)" gradientUnits="userSpaceOnUse"><stop offset=".15" stop-color="#2196f3"/><stop offset=".85" stop-color="#f50057"/></linearGradient></defs><path fill="#455a64" d="M16 8a8 8 0 1 0 8 8 8 8 0 0 0-8-8Zm0 12a4 4 0 1 1 4-4 4 4 0 0 1-4 4Z"/><path fill="url(#a)" d="M4.281 23.647A13.924 13.924 0 0 1 2 16h4a9.953 9.953 0 0 0 1.192 4.736ZM14 29.84v-4.042a9.937 9.937 0 0 1-3.892-1.732l-2.854 2.855A13.923 13.923 0 0 0 14 29.84ZM16 2v4a10 10 0 0 1 2 19.8v4.04A13.992 13.992 0 0 0 16 2Z"/></svg>