<?xml version="1.0" encoding="UTF-8"?>
<svg fill="none" version="1.1" viewBox="0 0 24 24" xmlns="http://www.w3.org/2000/svg">
 <g transform="translate(-.4 -.49913)">
  <path d="m10.786 2.006c-2.4-0.083-4.8 0.666-6.786 2.249l1.324 0.75c1.573-1.167 3.559-1.666 5.462-1.583z" fill="#2979ff"/>
  <path d="m17.82 5.17c-1.654-1.748-3.806-2.83-6.123-3.08v1.415c1.9496 0.32121 3.7463 1.2546 5.13 2.665l0.994-1z" fill="#448aff"/>
  <path d="m20.8 12c-0.083-2.166-0.91-4.33-2.317-6.163l-0.993 1c1.158 1.582 1.82 3.33 1.903 5.163z" fill="#7e57c2"/>
  <path d="m18.483 19.162c1.407-1.832 2.234-3.998 2.317-6.163h-1.407c-0.082 1.832-0.745 3.581-1.903 5.163z" fill="#ab47bc"/>
  <path d="m11.697 22.91c2.234-0.25 4.469-1.333 6.124-3.082l-0.993-1c-1.407 1.5-3.228 2.416-5.131 2.666v1.415z" fill="#d81b60"/>
  <path d="m4 20.744c1.92 1.5374 4.3278 2.3351 6.786 2.248v-1.415c-1.903 0.083-3.807-0.417-5.462-1.583z" fill="#f50057"/>
  <path d="m10.408 6.711c0.885 0 1.701 0.152 2.45 0.455 0.7189 0.2746 1.3738 0.69393 1.924 1.232 0.5505 0.5413 0.9865 1.1879 1.282 1.9012 0.2955 0.7133 0.4445 1.4787 0.438 2.2508 0 0.822-0.15 1.59-0.452 2.303-0.3026 0.7005-0.7403 1.3345-1.2882 1.8655-0.5479 0.5311-1.1952 0.9489-1.9048 1.2295-0.7814 0.2994-1.6123 0.4487-2.449 0.44-0.89402 0-1.715-0.146-2.463-0.44-0.71241-0.2857-1.3615-0.7091-1.91-1.246-0.53485-0.5284-0.96089-1.1566-1.254-1.849-0.30443-0.7293-0.45818-1.5127-0.452-2.303 0-0.821 0.15-1.584 0.452-2.289 0.29055-0.69789 0.71679-1.3311 1.254-1.863 0.54663-0.53581 1.1964-0.95496 1.91-1.232 0.748-0.303 1.57-0.455 2.463-0.455zm0 2.788c-0.41802 0-0.81602 0.078-1.195 0.234-0.37 0.147-0.695 0.357-0.977 0.631-0.2835 0.2766-0.51099 0.6053-0.67 0.968-0.1678 0.3839-0.25232 0.799-0.248 1.218 0 0.44 0.082 0.846 0.248 1.218 0.165 0.371 0.388 0.694 0.67 0.968s0.608 0.489 0.977 0.645c0.379 0.147 0.777 0.22 1.195 0.22 0.418 0 0.812-0.073 1.181-0.22 0.38-0.156 0.71-0.371 0.992-0.645 0.291-0.274 0.52-0.597 0.685-0.968 0.165-0.372 0.248-0.778 0.248-1.218s-0.083-0.846-0.248-1.218c-0.1609-0.3654-0.3939-0.6947-0.685-0.968-0.2845-0.2751-0.622-0.4895-0.992-0.63-0.3734-0.15737-0.7748-0.23732-1.18-0.235z" fill="#607d8b"/>
 </g>
</svg>
