<svg xmlns="http://www.w3.org/2000/svg" xmlns:xlink="http://www.w3.org/1999/xlink" viewBox="0 0 32 32"><defs><linearGradient id="a" x1="27.34917" y1="26.45493" x2="7.61298" y2="6.71874" gradientTransform="matrix(1, 0, 0, -1, 0, 34)" gradientUnits="userSpaceOnUse"><stop offset="0.15" stop-color="#2196f3"/><stop offset="0.85" stop-color="#f50057"/></linearGradient></defs><path d="M16,8a8,8,0,1,0,8,8A8,8,0,0,0,16,8Zm0,12a4,4,0,1,1,4-4A4,4,0,0,1,16,20Z" style="fill:#cfd8dc"/><path d="M4.281,23.64655A13.924,13.924,0,0,1,2,16H6a9.95316,9.95316,0,0,0,1.192,4.73553ZM14,29.84094V25.79913a9.937,9.937,0,0,1-3.89172-1.73181L7.25366,26.92194A13.92344,13.92344,0,0,0,14,29.84094ZM16,2V6a10.00064,10.00064,0,0,1,2,19.79913v4.04181A13.99171,13.99171,0,0,0,16,2Z" style="fill:url(#a)"/></svg>