<svg viewBox="0 0 24 24" fill="none" xmlns="http://www.w3.org/2000/svg">
  <path d="M10.786 2.006c-2.4-.083-4.8.666-6.786 2.249l1.324.75c1.573-1.167 3.559-1.666 5.462-1.583V2.006Z"
    fill="#2979FF" />
  <path d="M17.82 5.17c-1.654-1.748-3.806-2.83-6.123-3.08v1.415a9.306 9.306 0 0 1 5.13 2.665l.994-1h-.001Z"
    fill="#448AFF" />
  <path d="M20.8 12c-.083-2.166-.91-4.33-2.317-6.163l-.993 1c1.158 1.582 1.82 3.33 1.903 5.163H20.8Z" fill="#7E57C2" />
  <path d="M18.483 19.162c1.407-1.832 2.234-3.998 2.317-6.163h-1.407c-.082 1.832-.745 3.581-1.903 5.163l.993 1Z"
    fill="#AB47BC" />
  <path d="M11.697 22.91c2.234-.25 4.469-1.333 6.124-3.082l-.993-1c-1.407 1.5-3.228 2.416-5.131 2.666v1.416Z"
    fill="#D81B60" />
  <path d="M4 20.744a10.275 10.275 0 0 0 6.786 2.248v-1.415c-1.903.083-3.807-.417-5.462-1.583L4 20.744Z"
    fill="#F50057" />
  <path
    d="M10.408 6.711a6.47 6.47 0 0 1 2.45.455 5.62 5.62 0 0 1 1.924 1.232 5.755 5.755 0 0 1 1.72 4.152c0 .822-.15 1.59-.452 2.303a5.802 5.802 0 0 1-3.193 3.095c-.781.3-1.612.449-2.449.44-.894 0-1.715-.146-2.463-.44a5.836 5.836 0 0 1-1.91-1.246 5.75 5.75 0 0 1-1.254-1.849 5.86 5.86 0 0 1-.452-2.303c0-.821.15-1.584.452-2.289a5.71 5.71 0 0 1 1.254-1.863 5.65 5.65 0 0 1 1.91-1.232c.748-.303 1.57-.455 2.463-.455Zm0 2.788c-.418 0-.816.078-1.195.234-.37.147-.695.357-.977.631a3.08 3.08 0 0 0-.67.968 2.965 2.965 0 0 0-.248 1.218c0 .44.082.846.248 1.218a3.08 3.08 0 0 0 1.647 1.613c.379.147.777.22 1.195.22.418 0 .812-.073 1.181-.22.38-.156.71-.371.992-.645a2.98 2.98 0 0 0 .685-.968 2.97 2.97 0 0 0 .248-1.218c0-.44-.083-.846-.248-1.218a2.97 2.97 0 0 0-.685-.968 2.917 2.917 0 0 0-.992-.63 2.994 2.994 0 0 0-1.18-.235h-.001Z"
    fill="#ECEFF1" />
</svg>