<?xml version="1.0" encoding="utf-8"?>
<!-- Generator: Adobe Illustrator 21.0.0, SVG Export Plug-In . SVG Version: 6.00 Build 0)  -->
<svg version="1.1" id="Ebene_1" xmlns="http://www.w3.org/2000/svg" xmlns:xlink="http://www.w3.org/1999/xlink" x="0px" y="0px"
	 viewBox="0 0 32 32" style="enable-background:new 0 0 32 32;" xml:space="preserve">
<style type="text/css">
	.st0{fill:#4A7E00;}
	.st1{fill:#BACC00;}
	.st2{fill:#99CE0A;}
</style>
<title>file_type_twig</title>
<path class="st0" d="M4.3,6.7c0.2,0.2,1.4-1.4,3.5-1.8c0,0,0.7-0.1,1.5,0c2,0.2,4,5.9,4.8,13.7c1.3,1.1,2.4,2.3,3.5,3.6
	c0.4,0.4,0.7,0.8,1,1.2c0-0.5,0.1-0.9,0.2-1.4c0.4-1.6,1-3.1,2-4.4c-0.3-3.3-1.5-6.4-3.4-9.1c-1-1.4-4.6-6.5-8.5-5.8
	c-1.5,0.2-3.1,1.6-4,2.7C4.6,6,4.2,6.6,4.3,6.7z"/>
<path class="st1" d="M24.4,30c-0.3-2.6-0.4-4.8-0.5-6.4c-0.1-3.2,0.1-4.5,0.9-5.8c0.2-0.3,1.3-2,2.6-1.9c1.5,0.1,2.2,2.4,2.4,2.3
	c0.2-0.1-0.4-3.5-2.5-4.4c-2.6-1.1-6.3,2.1-7.8,5.2c-0.4,0.9-0.7,1.8-0.9,2.8c-0.6,2.7-0.8,5.4-0.7,8.2H24.4z"/>
<path class="st2" d="M2.2,13.9c0.1-0.4,2.5-0.3,4.5,0.3c2.5,0.7,7,2.3,11.7,8.6c1.3,2.1,2,4.6,1.8,7.2h-9.9c0.1-1.5,0-3.1-0.2-4.6
	c-0.2-2.6-1-5-2.5-7.2C5.4,15.2,2.1,14.5,2.2,13.9z"/>
</svg>
