<?xml version="1.0" encoding="UTF-8" standalone="no"?>
<!-- Created with Inkscape (http://www.inkscape.org/) -->

<svg
   xmlns:dc="http://purl.org/dc/elements/1.1/"
   xmlns:cc="http://creativecommons.org/ns#"
   xmlns:rdf="http://www.w3.org/1999/02/22-rdf-syntax-ns#"
   xmlns:svg="http://www.w3.org/2000/svg"
   xmlns="http://www.w3.org/2000/svg"
   xmlns:sodipodi="http://sodipodi.sourceforge.net/DTD/sodipodi-0.dtd"
   xmlns:inkscape="http://www.inkscape.org/namespaces/inkscape"
   version="1.1"
   id="svg4493"
   width="50"
   height="50"
   viewBox="0 0 50 50"
   sodipodi:docname="twig.svg"
   inkscape:version="0.92.1 r15371">
  <metadata
     id="metadata4499">
    <rdf:RDF>
      <cc:Work
         rdf:about="">
        <dc:format>image/svg+xml</dc:format>
        <dc:type
           rdf:resource="http://purl.org/dc/dcmitype/StillImage" />
        <dc:title />
      </cc:Work>
    </rdf:RDF>
  </metadata>
  <defs
     id="defs4497" />
  <sodipodi:namedview
     pagecolor="#ffffff"
     bordercolor="#666666"
     borderopacity="1"
     objecttolerance="10"
     gridtolerance="10"
     guidetolerance="10"
     inkscape:pageopacity="0"
     inkscape:pageshadow="2"
     inkscape:window-width="1366"
     inkscape:window-height="705"
     id="namedview4495"
     showgrid="false"
     inkscape:zoom="5.7420112"
     inkscape:cx="3.101373"
     inkscape:cy="30.749183"
     inkscape:window-x="-8"
     inkscape:window-y="-8"
     inkscape:window-maximized="1"
     inkscape:current-layer="svg4493" />
  <path
     style="fill:#9bb92f;stroke-width:0.07805804"
     d="M 9.7274064,47.555682 C 9.6018825,47.333161 9.4304488,45.387581 9.5435367,45.469009 c 0.034869,0.02511 0.1716782,0.266532 0.3040305,0.536513 0.1323545,0.269976 0.2820318,0.487038 0.3326328,0.482354 0.122533,-0.01134 0.07445,-1.195976 -0.09961,-2.45392 -0.3317402,-2.397687 -1.1761966,-4.434541 -2.3590218,-5.690022 -0.1999885,-0.212275 -0.3431384,-0.4007 -0.3181036,-0.418723 0.092826,-0.06684 1.3263814,0.842905 1.8417924,1.358318 0.2932153,0.293214 0.7346935,0.825099 0.981058,1.181965 0.327214,0.473965 0.464521,0.61775 0.509439,0.533468 0.07852,-0.147323 -0.209972,-9.903296 -0.375578,-12.70106 -0.0743,-1.255384 0.06267,-1.022803 0.609365,1.03463 1.064702,4.00694 1.858869,7.921994 2.342911,11.549988 0.08505,0.637509 0.17256,1.172959 0.194452,1.189885 0.02189,0.01693 0.09258,0.002 0.157115,-0.03311 0.888009,-0.483656 1.524023,-0.66719 2.549925,-0.735843 0.726875,-0.04865 0.944661,0.06176 0.349464,0.177168 -1.148592,0.222686 -1.990057,1.013246 -2.343122,2.201367 -0.315294,1.061004 -0.32702,2.707039 -0.02444,3.43413 0.152053,0.365402 0.03701,0.425853 -1.06672,0.560542 -0.716532,0.08743 -0.977068,0.09539 -1.202421,0.03674 -0.35594,-0.09267 -1.11769,-0.0982 -1.194542,-0.0087 -0.03128,0.03644 -0.242803,0.06623 -0.470081,0.06623 -0.3799706,0 -0.4230025,-0.01734 -0.5346591,-0.215264 z m 1.9731916,-3.232365 c 0.152378,-0.205002 0.07213,-0.411132 -0.203231,-0.522052 -0.225226,-0.09072 -0.263247,-0.08858 -0.43696,0.0246 -0.209804,0.136706 -0.252087,0.429857 -0.07988,0.553847 0.180065,0.129649 0.606611,0.09624 0.720071,-0.0564 z m 1.248581,0.08519 c 0.05565,-0.02676 0.151751,-0.117724 0.213516,-0.20213 0.241482,-0.330004 -0.351975,-0.621881 -0.744453,-0.366145 -0.406422,0.264823 0.07975,0.785186 0.530937,0.568275 z m 2.287722,3.094183 c -0.03283,-0.03823 0.117345,-0.38669 0.333705,-0.774315 0.216365,-0.387619 0.411429,-0.665814 0.433467,-0.618203 0.07041,0.152075 -0.201216,1.278978 -0.330758,1.372249 -0.148868,0.107185 -0.353645,0.116697 -0.436414,0.02025 z M 8.2013691,47.092034 C 7.9106795,46.748765 7.9797612,46.658241 8.3403616,46.90989 c 0.1770808,0.123579 0.3219703,0.263552 0.3219703,0.311051 0,0.163837 -0.279173,0.08577 -0.4609628,-0.128907 z m 8.6482329,-0.145335 c 0,-0.05261 0.102184,-0.179286 0.227073,-0.281498 0.249405,-0.204122 0.312312,-0.113061 0.14317,0.207258 -0.09523,0.180342 -0.370243,0.235486 -0.370243,0.07424 z m 8.06587,-0.826813 c -0.243857,-0.02478 -0.481251,-0.08816 -0.527549,-0.140841 -0.10955,-0.124665 -0.113547,-3.043244 -0.0041,-3.043244 0.04558,0 0.132475,0.149026 0.193161,0.331172 0.126682,0.38022 0.228088,0.420778 0.310469,0.124191 0.09363,-0.337094 0.06488,-3.471904 -0.03945,-4.296987 -0.448739,-3.549918 -1.865419,-6.12391 -4.342374,-7.88974 -1.085755,-0.774036 -2.652526,-1.436682 -4.04695,-1.711611 -0.763814,-0.15059 -0.52182,-0.224288 0.597942,-0.182097 2.363959,0.08907 4.167869,0.706525 5.847553,2.001528 0.845166,0.6516 1.713911,1.58845 2.319707,2.501552 0.452677,0.682303 0.640955,0.853767 0.640955,0.583716 0,-0.06954 0.0621,-0.881751 0.138002,-1.804898 0.679138,-8.259828 2.395802,-15.100491 4.983833,-19.859918 1.860622,-3.4217072 5.10837,-6.8169694 7.885809,-8.2439805 1.396516,-0.7175125 2.538254,-0.987868 4.019741,-0.951841 0.932791,0.02268 1.009105,0.035941 1.769914,0.3073797 0.485228,0.17312 1.016493,0.4309743 1.363193,0.6616458 0.611494,0.4068385 1.308506,1.0041383 1.234201,1.0576382 -0.02508,0.018055 -0.342215,-0.1648549 -0.704706,-0.4064968 -2.657173,-1.7713189 -5.061498,-1.5207451 -7.119346,0.741964 -1.108936,1.219332 -2.651963,3.5297858 -3.634931,5.4427626 -2.827628,5.502917 -4.540502,11.464194 -5.29076,18.413286 -0.16287,1.508557 -0.28153,3.759791 -0.195175,3.702939 0.03283,-0.02165 0.266055,-0.520121 0.518218,-1.107756 1.597548,-3.722879 3.578656,-6.428574 5.790094,-7.907809 0.671926,-0.449449 1.611675,-0.904663 1.714607,-0.830552 0.02277,0.01639 -0.171341,0.220535 -0.431347,0.453653 -1.956861,1.754518 -3.24862,3.760402 -4.232463,6.572313 -0.937531,2.679547 -1.365491,5.588336 -1.368164,9.299247 -0.0013,1.741963 0.188503,4.385404 0.36624,5.101953 0.125255,0.504952 0.08107,0.546207 -0.584362,0.545753 -0.55053,-3.96e-4 -2.306187,0.138588 -3.416851,0.270447 -0.413758,0.04913 -0.816375,0.03999 -1.608084,-0.03641 -0.580875,-0.05607 -1.129371,-0.118688 -1.218888,-0.139145 -0.164695,-0.03762 -0.179544,-0.0151 -0.198784,0.301472 -0.01132,0.186141 -0.09879,0.202779 -0.72932,0.138722 z m 2.5066,-6.725201 c 0.294012,-0.109466 0.374545,-0.220621 0.374545,-0.516917 0,-0.630185 -1.308463,-0.705934 -1.52379,-0.08821 -0.07381,0.211774 0.129821,0.510684 0.419891,0.616323 0.297461,0.108332 0.413098,0.106562 0.729354,-0.01118 z m 2.36862,-0.05213 c 0.277442,-0.221918 0.318017,-0.363913 0.174611,-0.611043 -0.400786,-0.690638 -1.754856,-0.306951 -1.428611,0.404812 0.121765,0.265656 0.299322,0.350557 0.738759,0.353248 0.227034,0.0013 0.386651,-0.04415 0.515241,-0.147017 z m 3.011261,6.681626 c -0.02663,-0.05 0.0885,-0.267703 0.255864,-0.483809 0.878939,-1.134897 1.21983,-1.544817 1.284682,-1.544817 0.03946,0 0.05525,0.03723 0.0351,0.08279 -0.02016,0.04554 -0.210192,0.479221 -0.422286,0.963744 -0.212097,0.484521 -0.445636,0.924158 -0.518977,0.976964 -0.168897,0.121609 -0.570568,0.124854 -0.63438,0.0051 z m 2.446,-0.596142 c 0,-0.121167 0.852739,-0.683428 0.895712,-0.590598 0.01845,0.03986 -0.05589,0.20953 -0.165227,0.377006 -0.168817,0.258585 -0.238886,0.304507 -0.464642,0.304507 -0.164015,0 -0.265843,-0.03482 -0.265843,-0.09091 z M 22.207517,45.303693 c -0.176389,-0.158528 -0.492887,-0.656157 -0.461052,-0.724918 0.01763,-0.03807 0.247957,0.10085 0.511835,0.30874 0.26388,0.207887 0.456414,0.405201 0.427856,0.438476 -0.07545,0.08789 -0.371372,0.07411 -0.478639,-0.02231 z"
     id="path5046"
     inkscape:connector-curvature="0" />
</svg>
