<?xml version="1.0" encoding="UTF-8"?>
<svg width="50" height="50" version="1.1" viewBox="0 0 50 50" xmlns="http://www.w3.org/2000/svg">
 <path d="m9.7274 47.556c-0.12552-0.22252-0.29696-2.1681-0.18387-2.0867 0.034869 0.02511 0.17168 0.26653 0.30403 0.53651 0.13235 0.26998 0.28203 0.48704 0.33263 0.48235 0.12253-0.01134 0.07445-1.196-0.09961-2.4539-0.33174-2.3977-1.1762-4.4345-2.359-5.69-0.19999-0.21228-0.34314-0.4007-0.3181-0.41872 0.092826-0.06684 1.3264 0.8429 1.8418 1.3583 0.29322 0.29321 0.73469 0.8251 0.98106 1.182 0.32721 0.47396 0.46452 0.61775 0.50944 0.53347 0.07852-0.14732-0.20997-9.9033-0.37558-12.701-0.0743-1.2554 0.06267-1.0228 0.60936 1.0346 1.0647 4.0069 1.8589 7.922 2.3429 11.55 0.08505 0.63751 0.17256 1.173 0.19445 1.1899 0.02189 0.01693 0.09258 2e-3 0.15712-0.03311 0.88801-0.48366 1.524-0.66719 2.5499-0.73584 0.72688-0.04865 0.94466 0.06176 0.34946 0.17717-1.1486 0.22269-1.9901 1.0132-2.3431 2.2014-0.31529 1.061-0.32702 2.707-0.02444 3.4341 0.15205 0.3654 0.03701 0.42585-1.0667 0.56054-0.71653 0.08743-0.97707 0.09539-1.2024 0.03674-0.35594-0.09267-1.1177-0.0982-1.1945-0.0087-0.03128 0.03644-0.2428 0.06623-0.47008 0.06623-0.37997 0-0.423-0.01734-0.53466-0.21526zm1.9732-3.2324c0.15238-0.205 0.07213-0.41113-0.20323-0.52205-0.22523-0.09072-0.26325-0.08858-0.43696 0.0246-0.2098 0.13671-0.25209 0.42986-0.07988 0.55385 0.18006 0.12965 0.60661 0.09624 0.72007-0.0564zm1.2486 0.08519c0.05565-0.02676 0.15175-0.11772 0.21352-0.20213 0.24148-0.33-0.35198-0.62188-0.74445-0.36614-0.40642 0.26482 0.07975 0.78519 0.53094 0.56828zm2.2877 3.0942c-0.03283-0.03823 0.11734-0.38669 0.3337-0.77432 0.21636-0.38762 0.41143-0.66581 0.43347-0.6182 0.07041 0.15208-0.20122 1.279-0.33076 1.3722-0.14887 0.10718-0.35364 0.1167-0.43641 0.02025zm-7.0355-0.41066c-0.29069-0.34327-0.22161-0.43379 0.13899-0.18214 0.17708 0.12358 0.32197 0.26355 0.32197 0.31105 0 0.16384-0.27917 0.08577-0.46096-0.12891zm8.6482-0.14534c0-0.05261 0.10218-0.17929 0.22707-0.2815 0.2494-0.20412 0.31231-0.11306 0.14317 0.20726-0.09523 0.18034-0.37024 0.23549-0.37024 0.07424zm8.0659-0.82681c-0.24386-0.02478-0.48125-0.08816-0.52755-0.14084-0.10955-0.12466-0.11355-3.0432-0.0041-3.0432 0.04558 0 0.13248 0.14903 0.19316 0.33117 0.12668 0.38022 0.22809 0.42078 0.31047 0.12419 0.09363-0.33709 0.06488-3.4719-0.03945-4.297-0.44874-3.5499-1.8654-6.1239-4.3424-7.8897-1.0858-0.77404-2.6525-1.4367-4.047-1.7116-0.76381-0.15059-0.52182-0.22429 0.59794-0.1821 2.364 0.08907 4.1679 0.70652 5.8476 2.0015 0.84517 0.6516 1.7139 1.5884 2.3197 2.5016 0.45268 0.6823 0.64096 0.85377 0.64096 0.58372 0-0.06954 0.0621-0.88175 0.138-1.8049 0.67914-8.2598 2.3958-15.1 4.9838-19.86 1.8606-3.4217 5.1084-6.817 7.8858-8.244 1.3965-0.71751 2.5383-0.98787 4.0197-0.95184 0.93279 0.02268 1.0091 0.035941 1.7699 0.30738 0.48523 0.17312 1.0165 0.43097 1.3632 0.66165 0.61149 0.40684 1.3085 1.0041 1.2342 1.0576-0.02508 0.018055-0.34222-0.16485-0.70471-0.4065-2.6572-1.7713-5.0615-1.5207-7.1193 0.74196-1.1089 1.2193-2.652 3.5298-3.6349 5.4428-2.8276 5.5029-4.5405 11.464-5.2908 18.413-0.16287 1.5086-0.28153 3.7598-0.19518 3.7029 0.03283-0.02165 0.26606-0.52012 0.51822-1.1078 1.5975-3.7229 3.5787-6.4286 5.7901-7.9078 0.67193-0.44945 1.6117-0.90466 1.7146-0.83055 0.02277 0.01639-0.17134 0.22054-0.43135 0.45365-1.9569 1.7545-3.2486 3.7604-4.2325 6.5723-0.93753 2.6795-1.3655 5.5883-1.3682 9.2992-0.0013 1.742 0.1885 4.3854 0.36624 5.102 0.12526 0.50495 0.08107 0.54621-0.58436 0.54575-0.55053-3.96e-4 -2.3062 0.13859-3.4169 0.27045-0.41376 0.04913-0.81638 0.03999-1.6081-0.03641-0.58088-0.05607-1.1294-0.11869-1.2189-0.13914-0.1647-0.03762-0.17954-0.0151-0.19878 0.30147-0.01132 0.18614-0.09879 0.20278-0.72932 0.13872zm2.5066-6.7252c0.29401-0.10947 0.37454-0.22062 0.37454-0.51692 0-0.63018-1.3085-0.70593-1.5238-0.08821-0.07381 0.21177 0.12982 0.51068 0.41989 0.61632 0.29746 0.10833 0.4131 0.10656 0.72935-0.01118zm2.3686-0.05213c0.27744-0.22192 0.31802-0.36391 0.17461-0.61104-0.40079-0.69064-1.7549-0.30695-1.4286 0.40481 0.12176 0.26566 0.29932 0.35056 0.73876 0.35325 0.22703 0.0013 0.38665-0.04415 0.51524-0.14702zm3.0113 6.6816c-0.02663-0.05 0.0885-0.2677 0.25586-0.48381 0.87894-1.1349 1.2198-1.5448 1.2847-1.5448 0.03946 0 0.05525 0.03723 0.0351 0.08279-0.02016 0.04554-0.21019 0.47922-0.42229 0.96374-0.2121 0.48452-0.44564 0.92416-0.51898 0.97696-0.1689 0.12161-0.57057 0.12485-0.63438 0.0051zm2.446-0.59614c0-0.12117 0.85274-0.68343 0.89571-0.5906 0.01845 0.03986-0.05589 0.20953-0.16523 0.37701-0.16882 0.25858-0.23889 0.30451-0.46464 0.30451-0.16402 0-0.26584-0.03482-0.26584-0.09091zm-13.04-0.12435c-0.17639-0.15853-0.49289-0.65616-0.46105-0.72492 0.01763-0.03807 0.24796 0.10085 0.51184 0.30874 0.26388 0.20789 0.45641 0.4052 0.42786 0.43848-0.07545 0.08789-0.37137 0.07411-0.47864-0.02231z" fill="#9bb92f" stroke-width=".078058"/>
</svg>
