<svg xmlns="http://www.w3.org/2000/svg" viewBox="0 0 32 32">
  <path d="M28,2H4A2,2,0,0,0,2,4V28a2,2,0,0,0,2,2H28a2,2,0,0,0,2-2V4A2,2,0,0,0,28,2ZM16,28H14V18H10V16H20v2H16Zm4-1.7627,1.43262-1.418a3.55568,3.55568,0,0,0,2.14648,1.13385c1.74371.12848,2.80634-.1449,2.33789-1.84186-1.58563-1.062-3.66-1.5705-5.13348-2.7984A3.185,3.185,0,0,1,20,19.25a3.69011,3.69011,0,0,1,.57532-2.03827c1.3789-1.80469,4.827-1.07111,4.86218-1.06232a4.26278,4.26278,0,0,1,2.24609,1.49707l-1.4414,1.39063a2.45461,2.45461,0,0,0-1.27832-.94434,4.38167,4.38167,0,0,0-2.79908.2688.354.354,0,0,0-.10723.17023,2.56,2.56,0,0,0,.02185,1.1654.55425.55425,0,0,0,.20166.27167c1.48309,1.14575,4.70575,1.738,5.48553,3.3739A4.705,4.705,0,0,1,28,24.94135C27.928,28.66132,22.17737,28.8291,20,26.2373Z" style="fill: #0288d1"/>
</svg>
