<?xml version="1.0" encoding="UTF-8" standalone="no"?>
<svg xmlns="http://www.w3.org/2000/svg" viewBox="0 0 24 24" version="1.0">
   <path d="m 4.7441406,2.03125 c -1.1572,0 -1.9942656,0.3102975 -2.5097656,0.9296875 -0.51549,0.61202 -0.7714844,1.6782656 -0.7714844,3.1972656 V 8.625 c 0,1.4084 -0.4016018,2.111328 -1.20117185,2.111328 v 2.035156 c 0.79953995,0 1.20117185,0.678357 1.20117185,2.035157 v 2.654297 c 0,1.5116 0.2585469,2.562443 0.7792969,3.152343 0.52075,0.5899 1.3551531,0.884766 2.5019531,0.884766 v -2.068359 c -0.44711,0 -0.7708231,-0.150795 -0.9707031,-0.453126 -0.19462,-0.30232 -0.2910156,-0.814499 -0.2910156,-1.537109 v -2.267578 c 0,-1.8066 -0.4048338,-2.937431 -1.2148438,-3.394531 v -0.04492 c 0.81006,-0.46454 1.2148438,-1.581863 1.2148438,-3.3515626 V 6.0253906 c 0,-1.283 0.4201187,-1.9257812 1.2617187,-1.9257812 z m 14.6601564,0 v 2.0683594 c 0.84162,0 1.261719,0.6427412 1.261719,1.9257812 v 2.2675782 c 0,1.8434002 0.402261,2.9964372 1.207031,3.4609372 v 0.04492 c -0.8048,0.44242 -1.207031,1.544341 -1.207031,3.306641 v 2.355469 c 0,0.71525 -0.09894,1.220725 -0.298828,1.515624 -0.199881,0.302321 -0.521041,0.453126 -0.962891,0.453126 v 2.068359 c 1.152,0 1.983941,-0.294866 2.494141,-0.884766 0.515489,-0.5899 0.771484,-1.66285 0.771484,-3.21875 v -2.554687 c 0,-1.3789 0.404174,-2.06836 1.208984,-2.06836 v -2.035156 c -0.8048,0 -1.208984,-0.696264 -1.208984,-2.0898436 V 6.1132812 c 0,-1.4895 -0.255994,-2.5403437 -0.771484,-3.1523437 C 21.382948,2.3415475 20.550997,2.03125 19.404297,2.03125 Z" fill="#ff3d00" />
   <path d="m 6.126,2.03125 v 7.6757812 h 6.376953 V 2.03125 Z M 8.1963126,4.1015625 H 10.432641 V 7.6367188 H 8.1963126 Z M 6.126,13.847656 v 7.650391 h 6.376953 v -7.650391 z m 2.0703126,2.070313 h 2.2363284 v 3.509765 H 8.1963126 Z" fill="#424242" />
   <g>
      <path d="M 15.949219 4.8886719 A 1.2821364 1.2821364 0 0 0 14.667969 6.171875 A 1.2821364 1.2821364 0 0 0 15.949219 7.453125 A 1.2821364 1.2821364 0 0 0 17.232422 6.171875 A 1.2821364 1.2821364 0 0 0 15.949219 4.8886719 z M 15.949219 16.076172 A 1.2821364 1.2821364 0 0 0 14.667969 17.357422 A 1.2821364 1.2821364 0 0 0 15.949219 18.640625 A 1.2821364 1.2821364 0 0 0 17.232422 17.357422 A 1.2821364 1.2821364 0 0 0 15.949219 16.076172 z " fill="none" stroke="#424242" stroke-width="1.57572711" />
      <rect x="15.137" y="6.8096085" height="9.1284151" width="1.576" fill="#424242" stroke="none" stroke-width="2.11701941" />
   </g>
</svg>