<svg xmlns="http://www.w3.org/2000/svg" viewBox="0 0 16 16"><g fill="#0288d1"><path d="M2 2v12h12V2zm.667.667h10.666v10.666H2.667z"/><path d="M10.659 6.874c-1.007 0-1.653.64-1.653 1.487 0 .92.54 1.353 1.353 1.7l.28.12c.52.227.827.366.827.753 0 .32-.3.553-.767.553-.553 0-.873-.286-1.113-.686l-.92.533c.334.653 1.007 1.153 2.06 1.153 1.067 0 1.866-.553 1.866-1.573 0-.94-.54-1.36-1.5-1.773l-.28-.12c-.486-.207-.692-.348-.692-.68 0-.274.205-.487.539-.487.32 0 .533.14.726.486l.874-.58c-.367-.64-.887-.886-1.6-.886zm-5.8.053v1h1v4.834h1.167V7.927h1.167v-1z"/></g></svg>