<svg width="16" height="16" version="1.1" viewBox="0 0 16 16" xmlns="http://www.w3.org/2000/svg">
 <g transform="scale(.66667)" fill="#0288d1">
  <path d="m3 3v18h18v-18zm1 1h16v16h-16z"/>
  <path d="m15.988 10.311c-1.51 0-2.4785 0.96047-2.4785 2.2305 0 1.38 0.8093 2.0288 2.0293 2.5488l0.41992 0.18164c0.78 0.34 1.2402 0.54891 1.2402 1.1289 0 0.48-0.45039 0.83008-1.1504 0.83008-0.83 0-1.3099-0.4293-1.6699-1.0293l-1.3789 0.79883c0.5 0.98 1.5098 1.7305 3.0898 1.7305 1.6 0 2.7988-0.82938 2.7988-2.3594 0-1.41-0.81-2.0402-2.25-2.6602l-0.41992-0.17969c-0.73-0.31-1.0391-0.52149-1.0391-1.0215 0-0.41 0.30859-0.72852 0.80859-0.72852 0.48 0 0.79984 0.20852 1.0898 0.72852l1.3105-0.86914c-0.55-0.96-1.3304-1.3301-2.4004-1.3301zm-8.6992 0.08008v1.5h1.5v7.25h1.75v-7.25h1.75v-1.5z"/>
 </g>
</svg>
