<?xml version="1.0" encoding="UTF-8" standalone="no"?>
<!DOCTYPE svg PUBLIC "-//W3C//DTD SVG 1.1//EN" "http://www.w3.org/Graphics/SVG/1.1/DTD/svg11.dtd">
<svg width="100%" height="100%" viewBox="0 0 500 500" version="1.1" xmlns="http://www.w3.org/2000/svg" xmlns:xlink="http://www.w3.org/1999/xlink" xml:space="preserve" xmlns:serif="http://www.serif.com/" style="fill-rule:evenodd;clip-rule:evenodd;stroke-linejoin:round;stroke-miterlimit:2;">
    <g transform="matrix(22.6667,0,0,22.6667,-22,-22)">
        <path d="M19,3L5,3C3.9,3 3,3.9 3,5L3,19C3,20.1 3.9,21 5,21L19,21C20.1,21 21,20.1 21,19L21,5C21,3.9 20.1,3 19,3M11,8L9,8L9,10C9,11.1 8.1,12 7,12C8.1,12 9,12.9 9,14L9,16L11,16L11,18L9,18C7.9,18 7,17.1 7,16L7,15C7,13.9 6.1,13 5,13L5,11C6.1,11 7,10.1 7,9L7,8C7,6.9 7.9,6 9,6L11,6L11,8M19,13C17.9,13 17,13.9 17,15L17,16C17,17.1 16.1,18 15,18L13,18L13,16L15,16L15,14C15,12.9 15.9,12 17,12C15.9,12 15,11.1 15,10L15,8L13,8L13,6L15,6C16.1,6 17,6.9 17,8L17,9C17,10.1 17.9,11 19,11L19,13Z" style="fill:rgb(255,82,82);fill-rule:nonzero;"/>
    </g>
</svg>
