<svg version="1.1" viewBox="0 0 24 24" xmlns="http://www.w3.org/2000/svg">
 <path d="m3 3h18v18h-18v-18m10.71 14.86c0.5 0.98 1.51 1.73 3.09 1.73 1.6 0 2.8-0.83 2.8-2.36 0-1.41-0.81-2.04-2.25-2.66l-0.42-0.18c-0.73-0.31-1.04-0.52-1.04-1.02 0-0.41 0.31-0.73 0.81-0.73 0.48 0 0.8 0.21 1.09 0.73l1.31-0.87c-0.55-0.96-1.33-1.33-2.4-1.33-1.51 0-2.48 0.96-2.48 2.23 0 1.38 0.81 2.03 2.03 2.55l0.42 0.18c0.78 0.34 1.24 0.55 1.24 1.13 0 0.48-0.45 0.83-1.15 0.83-0.83 0-1.31-0.43-1.67-1.03l-1.38 0.8m-0.71-6.61h-5v1.5h1.5v7.25h1.75v-7.25h1.75v-1.5z" fill="#0288d1"/>
</svg>
