<svg viewBox="0 0 500 500" xmlns="http://www.w3.org/2000/svg" fill-rule="evenodd" clip-rule="evenodd" stroke-linejoin="round" stroke-miterlimit="2"><path d="M408.6673 46.0001H91.3335c-24.93337 0-45.3334 20.40003-45.3334 45.3334v317.3338c0 24.93337 20.40003 45.3334 45.3334 45.3334h317.3338c24.93337 0 45.3334-20.40003 45.3334-45.3334V91.3335c0-24.93337-20.40003-45.3334-45.3334-45.3334M227.3337 159.3336h-45.3334v45.3334c0 24.93337-20.40003 45.3334-45.3334 45.3334 24.93337 0 45.3334 20.40003 45.3334 45.3334v45.3334h45.3334v45.3334h-45.3334c-24.93337 0-45.3334-20.40003-45.3334-45.3334v-22.6667c0-24.93337-20.40003-45.3334-45.3334-45.3334v-45.3334c24.93337 0 45.3334-20.40003 45.3334-45.3334v-22.6667c0-24.93337 20.40003-45.3334 45.3334-45.3334h45.3334v45.3334m181.3336 113.3335c-24.93337 0-45.3334 20.40003-45.3334 45.3334v22.6667c0 24.93337-20.40003 45.3334-45.3334 45.3334h-45.3334v-45.3334h45.3334v-45.3334c0-24.93337 20.40003-45.3334 45.3334-45.3334-24.93337 0-45.3334-20.40003-45.3334-45.3334v-45.3334h-45.3334v-45.3334h45.3334c24.93337 0 45.3334 20.40003 45.3334 45.3334v22.6667c0 24.93337 20.40003 45.3334 45.3334 45.3334v45.3334z" fill="#00bfa5" fill-rule="nonzero"/></svg>