<svg xmlns="http://www.w3.org/2000/svg" viewBox="0 0 512 512"><g fill="#64b5f6" stroke="#64b5f6" stroke-width=".87"><path d="M227.734 476.91c-86.625-11.046-159.42-72.622-184.643-156.029-6.697-22.09-9.306-40.268-9.306-64.794 0-9.654.522-21.135 1.305-27.397 4.261-34.093 16.524-67.317 35.745-96.105 2.696-4.087 5.219-7.653 5.654-7.914.347-.174 1.13 1.13 1.652 3.044.522 1.913 4.523 14.524 9.045 28.092 51.662 156.377 102.715 240.48 154.464 254.308 7.566 2 21.134 2 28.7 0 51.75-13.829 102.802-97.931 154.464-254.308 4.522-13.568 8.523-26.179 9.045-28.092s1.305-3.218 1.652-3.044c.435.26 2.958 3.827 5.654 7.914 19.22 28.788 31.484 62.012 35.745 96.105 1.74 14.09 1.74 40.703 0 54.793-7.48 60.185-39.224 114.717-87.842 150.897-31.658 23.57-67.056 37.833-105.672 42.617-13.306 1.652-42.703 1.565-55.662-.087z"/><path d="M249.042 300.269c-47.139-7.48-91.843-68.535-137.851-188.122l-7.22-18.612 4.697-4.349c10.872-10.002 32.267-24.526 47.574-32.18 15.308-7.653 35.92-14.959 53.315-18.699 27.918-6.001 64.968-6.001 92.886 0 17.395 3.74 38.007 11.046 53.315 18.7 15.307 7.653 36.702 22.177 47.574 32.18l4.696 4.348-7.219 18.612C357.41 224.95 313.576 287.745 270.524 298.703c-5.74 1.479-17.133 2.348-21.482 1.566z"/></g></svg>