<?xml version="1.0" encoding="UTF-8"?>
<!-- Created with Inkscape (http://www.inkscape.org/) -->
<svg width="24" height="24" version="1.1" viewBox="0 0 6.35 6.35" xml:space="preserve" xmlns="http://www.w3.org/2000/svg"><g display="none"><g><g fill="#f37238"><path d="m1.8849 1.7888c0.12007-0.040195 0.18394-0.14847 0.17552-0.29749-0.00494-0.087747-0.018227-0.12553-0.10737-0.30572-0.055939-0.11308-0.10956-0.23866-0.11916-0.27906-0.0096-0.040403-0.021161-0.073456-0.025702-0.073456-0.01509 0-0.13459 0.19175-0.1791 0.28738-0.10737 0.23068-0.1184 0.45623-0.028498 0.58272 0.033122 0.046592 0.13928 0.10263 0.19451 0.10264 0.021405 6.9e-6 0.061815-0.00765 0.089793-0.017037z"/><path d="m4.9403 2.0191c0.12585-0.084068 0.13213-0.22722 0.021711-0.49418-0.038004-0.091884-0.072944-0.19949-0.077638-0.23912-0.00466-0.039638-0.013122-0.072058-0.018727-0.072058-0.017197 0-0.13349 0.16449-0.17686 0.25015-0.088775 0.17535-0.11438 0.36764-0.062656 0.47059 0.036933 0.073512 0.11045 0.11801 0.19495 0.11801 0.047476 0 0.084934-0.010501 0.11922-0.03338z"/><path d="m3.3887 6.2512c0.41347-0.023088 0.76026-0.1283 1.0546-0.3199 0.53404-0.34759 0.84175-0.97526 0.84175-1.717 0-0.3128-0.051481-0.62201-0.16701-1.0031-0.04201-0.13861-0.15202-0.42121-0.2047-0.52586l-0.03557-0.070661-0.027302 0.071071c-0.060549 0.15765-0.14086 0.2714-0.23954 0.3393-0.06443 0.044298-0.12057 0.060987-0.20739 0.061613-0.13779 6.954e-4 -0.24127-0.065786-0.30503-0.1968-0.067788-0.1393-0.071681-0.17401-0.072926-0.64977-0.0011126-0.41314-0.0018776-0.42889-0.027858-0.57153-0.098414-0.53971-0.33548-0.97663-0.72119-1.3292-0.10584-0.096738-0.32356-0.25683-0.33446-0.24592-0.00271 0.00278 0.00445 0.033867 0.015904 0.069263 0.028686 0.088936 0.05911 0.25388 0.073222 0.39696 0.026356 0.26729-0.037385 0.5443-0.19009 0.82606-0.067823 0.12514-0.0866 0.1527-0.2283 0.33515-0.13535 0.17427-0.15903 0.20887-0.20311 0.2967-0.069724 0.13894-0.081193 0.24876-0.063908 0.61199 0.0072 0.15145 0.00598 0.18652-0.00848 0.24277-0.033127 0.12887-0.084611 0.19955-0.18163 0.24936-0.07233 0.037135-0.1767 0.036857-0.25329-5.911e-4 -0.13917-0.068081-0.22284-0.24343-0.25071-0.52533-0.011738-0.11878-0.011989-0.11958-0.030334-0.096099-0.083937 0.10745-0.25901 0.4028-0.32884 0.55474-0.15752 0.34275-0.23978 0.70785-0.23931 1.0621 3.059e-4 0.21973 0.019423 0.37773 0.06927 0.57222 0.099479 0.38814 0.26982 0.69912 0.53089 0.96921 0.38006 0.3932 0.86408 0.58612 1.5074 0.60083 0.036161 6.954e-4 0.13871-0.00278 0.22788-0.00758z"/></g><path d="m3.2524 6.1408c0.24646-0.013769 0.45318-0.076474 0.62865-0.19069 0.31833-0.20719 0.50175-0.58133 0.50175-1.0235 0-0.18645-0.030688-0.37077-0.099548-0.59796-0.025042-0.082622-0.090617-0.25107-0.12202-0.31346l-0.021203-0.042142-0.016273 0.04235c-0.036091 0.093964-0.083965 0.16177-0.14278 0.20225-0.038408 0.026426-0.071866 0.03637-0.12362 0.036718-0.082131 5.911e-4 -0.14382-0.039221-0.18182-0.11731-0.040403-0.083039-0.042726-0.10372-0.04347-0.38731-6.468e-4 -0.24627-0.0011127-0.25566-0.016606-0.34068-0.058665-0.3217-0.19997-0.58215-0.42989-0.79231-0.063088-0.057649-0.19286-0.15309-0.19937-0.14659-0.0016 0.00139 0.00264 0.020167 0.00948 0.041307 0.0171 0.05299 0.035236 0.15133 0.043644 0.23662 0.015709 0.15933-0.022281 0.32444-0.11331 0.49239-0.040431 0.074596-0.05162 0.091022-0.13608 0.19978-0.080679 0.10387-0.094798 0.1245-0.12107 0.17685-0.041558 0.082823-0.0484 0.14828-0.038095 0.3648 0.00431 0.090271 0.00355 0.11118-0.00508 0.14471-0.01975 0.076822-0.050438 0.11896-0.10826 0.14864-0.043113 0.022114-0.10532 0.021975-0.15098-3.821e-4 -0.082953-0.040612-0.13283-0.1451-0.14944-0.31314-7e-3 -0.070807-0.00715-0.071279-0.018081-0.057302-0.050035 0.064047-0.15439 0.2401-0.19601 0.33067-0.093895 0.2043-0.14293 0.42193-0.14265 0.63311 1.529e-4 0.13098 0.011572 0.22516 0.041286 0.34109 0.059298 0.23136 0.16083 0.41673 0.31645 0.57772 0.22655 0.23438 0.51506 0.34937 0.89853 0.35814 0.021558 4.799e-4 0.082681-0.00139 0.13583-0.00417z" fill="#f8af37"/><path d="m3.2055 6.1432c0.13423-0.00751 0.24682-0.041655 0.3424-0.10386 0.17338-0.11285 0.27328-0.31663 0.27328-0.55743 0-0.10155-0.016711-0.20194-0.054221-0.32567-0.013637-0.044993-0.049353-0.13675-0.06646-0.17072l-0.011551-0.022949-0.00887 0.023088c-0.019659 0.051182-0.04573 0.088108-0.077766 0.11015-0.020918 0.014395-0.039145 0.019819-0.06733 0.020028-0.044736 3.059e-4 -0.078331-0.021349-0.099028-0.063908-0.022006-0.045202-0.023265-0.056468-0.023675-0.21095-3.443e-4 -0.13413-6.002e-4 -0.13925-0.0090473-0.18555-0.031947-0.17522-0.10892-0.31707-0.23414-0.43154-0.03436-0.031432-0.10504-0.08338-0.10858-0.07984-9.04e-4 6.954e-4 0.00146 0.010987 0.00515 0.022462 0.00931 0.028859 0.019193 0.08242 0.023769 0.12887 0.00856 0.08678-0.012135 0.1767-0.061711 0.26818-0.022017 0.040612-0.028115 0.049583-0.074119 0.10881-0.043943 0.056606-0.051634 0.067802-0.065939 0.096321-0.022636 0.045132-0.026363 0.080765-0.020751 0.19869 0.00236 0.049165 0.00195 0.06057-0.00278 0.078818-0.010758 0.041864-0.027469 0.064812-0.058964 0.08096-0.023484 0.012031-0.057364 0.011961-0.082233-1.947e-4 -0.045181-0.022114-0.072347-0.079026-0.081393-0.17055-0.00382-0.038595-0.00389-0.038804-0.00985-0.031224-0.027253 0.034909-0.084087 0.13077-0.10676 0.1801-0.05114 0.11127-0.077846 0.2298-0.077691 0.34483 7.65e-5 0.071335 0.00633 0.12263 0.022489 0.18577 0.032295 0.12602 0.087599 0.22697 0.17236 0.31466 0.12339 0.12766 0.28053 0.19029 0.48939 0.19507 0.011738 2.642e-4 0.045028-6.954e-4 0.073981-0.00278z" fill="#fbc968"/></g></g><g><g transform="translate(6.4662 .096511)"><g fill="#f25e1b" stroke="#363738" stroke-width=".18401"><path d="m-4.5728 1.6632c0.12007-0.04022 0.18394-0.14847 0.17552-0.29748-5e-3 -0.08774-0.0182-0.12553-0.10737-0.30572-0.0559-0.11308-0.10956-0.23866-0.11916-0.27906-0.01-0.0404-0.0212-0.07346-0.0257-0.07346-0.0151 0-0.13459 0.19175-0.1791 0.28738-0.10736 0.23067-0.11839 0.45623-0.0285 0.58272 0.0331 0.04661 0.13927 0.10262 0.1945 0.10264 0.0214 6e-6 0.0618-0.0077 0.0898-0.01703z"/><path d="m-1.5175 1.8934c0.12585-0.08407 0.13214-0.22722 0.0217-0.49417-0.038-0.09189-0.0729-0.19949-0.0776-0.23912-5e-3 -0.03963-0.0131-0.07205-0.0187-0.07205-0.0172 0-0.13349 0.16449-0.17686 0.25015-0.0888 0.17534-0.11438 0.36764-0.0627 0.47058 0.0369 0.07351 0.11045 0.11801 0.19495 0.11801 0.0475 0 0.0849-0.01049 0.11922-0.0334z"/><path d="m-3.069 6.1255c0.41346-0.0231 0.76025-0.1283 1.0546-0.3199 0.53403-0.34759 0.84174-0.97525 0.84174-1.717 0-0.31279-0.0515-0.62201-0.167-1.0031-0.042-0.13861-0.15202-0.42121-0.2047-0.52586l-0.0356-0.07066-0.0273 0.07108c-0.0606 0.15764-0.14086 0.2714-0.23953 0.33929-0.0644 0.04433-0.12057 0.06101-0.20739 0.06163-0.13779 9.82e-4 -0.24127-0.06579-0.30503-0.1968-0.0678-0.1393-0.0717-0.174-0.0729-0.64976-1e-3 -0.41314-2e-3 -0.42889-0.0279-0.57152-0.0984-0.5397-0.33548-0.97662-0.72118-1.3292-0.10584-0.09674-0.32356-0.25683-0.33446-0.24592-3e-3 0.0027 4e-3 0.03385 0.0159 0.06927 0.0287 0.08893 0.0591 0.25388 0.0732 0.39696 0.0264 0.26729-0.0374 0.54429-0.19009 0.82604-0.0678 0.12514-0.0866 0.1527-0.2283 0.33514-0.13534 0.17426-0.15903 0.20886-0.2031 0.29669-0.0697 0.13894-0.0812 0.24876-0.0639 0.61199 7e-3 0.15144 6e-3 0.18652-8e-3 0.24277-0.0331 0.12887-0.0846 0.19955-0.18163 0.24935-0.0723 0.03713-0.17669 0.03689-0.25329-5.89e-4 -0.13916-0.06809-0.22284-0.24342-0.2507-0.52533-0.0117-0.11878-0.012-0.11958-0.0303-0.0961-0.0839 0.10746-0.25901 0.4028-0.32883 0.55474-0.15752 0.34274-0.23978 0.70784-0.23931 1.0621 3.1e-4 0.21973 0.0194 0.37772 0.0693 0.57221 0.0995 0.38814 0.26982 0.69912 0.53088 0.9692 0.38006 0.39319 0.86407 0.58612 1.5074 0.60082 0.0362 8.26e-4 0.13871-0.0026 0.22788-0.0076z"/></g><path d="m-3.2053 6.0231c0.24645-0.01377 0.45317-0.07648 0.62864-0.19069 0.31833-0.20719 0.50175-0.58133 0.50175-1.0235 0-0.18645-0.0307-0.37076-0.0995-0.59795-0.025-0.08262-0.0906-0.25107-0.12202-0.31345l-0.0212-0.04212-0.0163 0.04237c-0.0361 0.09397-0.084 0.16178-0.14278 0.20224-0.0384 0.02643-0.0719 0.03637-0.12362 0.03674-0.0821 5.85e-4 -0.14382-0.03921-0.18182-0.11731-0.0404-0.08304-0.0427-0.10372-0.0435-0.38731-6.5e-4 -0.24626-1e-3 -0.25565-0.0166-0.34067-0.0587-0.3217-0.19997-0.58214-0.42988-0.7923-0.0631-0.05767-0.19286-0.15309-0.19936-0.14659-2e-3 0.0016 3e-3 0.02018 9e-3 0.04129 0.0171 0.05301 0.0352 0.15133 0.0437 0.23662 0.0157 0.15932-0.0223 0.32444-0.11331 0.49239-0.0404 0.07459-0.0516 0.09102-0.13608 0.19977-0.0807 0.10388-0.0948 0.1245-0.12107 0.17685-0.0416 0.08282-0.0484 0.14828-0.0381 0.36479 4e-3 0.09027 4e-3 0.11118-5e-3 0.14471-0.0197 0.07682-0.0504 0.11895-0.10826 0.14863-0.0431 0.02213-0.10533 0.02199-0.15098-3.82e-4 -0.083-0.04059-0.13283-0.1451-0.14944-0.31314-7e-3 -0.0708-7e-3 -0.07128-0.0181-0.05728-0.05 0.06405-0.15439 0.2401-0.19601 0.33067-0.0939 0.2043-0.14293 0.42193-0.14265 0.63311 1.6e-4 0.13098 0.0116 0.22515 0.0413 0.34108 0.0593 0.23136 0.16084 0.41673 0.31645 0.57772 0.22654 0.23437 0.51506 0.34937 0.89852 0.35814 0.0216 4.74e-4 0.0827-0.0015 0.13583-0.0045z" fill="#f8aa2c"/><path d="m-3.2522 6.0255c0.13424-0.0075 0.24682-0.04165 0.3424-0.10386 0.17337-0.11285 0.27327-0.31662 0.27327-0.55742 0-0.10155-0.0167-0.20194-0.0542-0.32568-0.0136-0.045-0.0494-0.13675-0.0665-0.17072l-0.0115-0.02294-9e-3 0.02308c-0.0197 0.05118-0.0457 0.08811-0.0778 0.11015-0.0209 0.01439-0.0391 0.01981-0.0673 0.02001-0.0447 3.06e-4 -0.0783-0.02136-0.099-0.06389-0.022-0.04523-0.0233-0.05649-0.0237-0.21095-3.5e-4 -0.13413-6e-4 -0.13924-9e-3 -0.18555-0.032-0.17522-0.10891-0.31706-0.23413-0.43153-0.0344-0.03141-0.10505-0.08338-0.10859-0.07984-8.7e-4 8.72e-4 1e-3 0.01099 5e-3 0.02249 9e-3 0.02887 0.0192 0.08242 0.0238 0.12887 9e-3 0.08678-0.0121 0.17671-0.0617 0.26818-0.022 0.04063-0.0281 0.04958-0.0741 0.10881-0.0439 0.05658-0.0516 0.06781-0.0659 0.09632-0.0226 0.04511-0.0264 0.08076-0.0207 0.19868 2e-3 0.04917 2e-3 0.06056-3e-3 0.07882-0.0108 0.04184-0.0275 0.06479-0.059 0.08095-0.0235 0.01205-0.0574 0.01197-0.0822-1.91e-4 -0.0452-0.0221-0.0724-0.07903-0.0814-0.17055-4e-3 -0.03856-4e-3 -0.03882-0.01-0.0312-0.0273 0.03489-0.0841 0.13077-0.10676 0.1801-0.0511 0.11127-0.0778 0.2298-0.0777 0.34482 8e-5 0.07134 6e-3 0.12263 0.0225 0.18577 0.0323 0.12601 0.0876 0.22697 0.17235 0.31466 0.12339 0.12765 0.28053 0.19028 0.48938 0.19506 0.0117 2.67e-4 0.045-8.38e-4 0.074-0.0025z" fill="#fbc355"/></g></g></svg>
