<?xml version="1.0" encoding="UTF-8"?>
<svg version="1.1" viewBox="0 0 24 24" xmlns="http://www.w3.org/2000/svg">
 <g transform="matrix(.76115 0 0 .76115 1.3343 1.4969)" fill-rule="evenodd">
  <path d="m26.594 12.968c0 0.912-0.74 1.651-1.652 1.651h-21.884a1.651 1.651 0 0 1-0.852-3.065 1.65 1.65 0 0 1 0.543-2.547 1.651 1.651 0 0 1 1.778-2.213 1.651 1.651 0 0 1 2.263-2.262 1.651 1.651 0 0 1 2.472-1.654 1.652 1.652 0 0 1 2.977-0.786 1.652 1.652 0 0 1 3.11 0 1.652 1.652 0 0 1 2.977 0.785 1.651 1.651 0 0 1 2.472 1.654 1.651 1.651 0 0 1 2.263 2.262 1.651 1.651 0 0 1 1.778 2.213 1.65 1.65 0 0 1 0.65 2.404 1.652 1.652 0 0 1 1.105 1.558z" fill="#fff" stroke="#000" stroke-linejoin="round" stroke-width=".8"/>
  <path d="m9.531 24.937h8.938v2.063h-8.938z"/>
  <path d="m1 13.794h26c-0.42 6.909-6.08 12.38-13 12.38s-12.58-5.47-13-12.379z" fill="#2196F3" stroke="#000" stroke-width=".8"/>
  <path d="m8.313 8.016a0.41 0.41 0 0 1-0.407-0.413 0.41 0.41 0 0 1 0.407-0.413 0.41 0.41 0 0 1 0.406 0.413 0.41 0.41 0 0 1-0.406 0.413zm-1.626 2.063a0.41 0.41 0 0 1-0.406-0.412 0.41 0.41 0 0 1 0.407-0.413 0.41 0.41 0 0 1 0.406 0.413 0.41 0.41 0 0 1-0.407 0.412zm1.625 1.651a0.41 0.41 0 0 1-0.406-0.413 0.41 0.41 0 0 1 0.407-0.412 0.41 0.41 0 0 1 0.406 0.412 0.41 0.41 0 0 1-0.406 0.413zm1.626-3.3a0.41 0.41 0 0 1-0.407-0.413 0.41 0.41 0 0 1 0.406-0.413 0.41 0.41 0 0 1 0.407 0.413 0.41 0.41 0 0 1-0.406 0.413zm9.75 1.65a0.41 0.41 0 0 1-0.407-0.412 0.41 0.41 0 0 1 0.407-0.413 0.41 0.41 0 0 1 0.406 0.413 0.41 0.41 0 0 1-0.407 0.412z"/>
 </g>
</svg>
