<svg width="16" height="16" version="1.1" viewBox="0 0 16 16" xmlns="http://www.w3.org/2000/svg">
  <g>
    <path d="m1 8a7 7 0 0 0 4 6.3164v0.68359h3 3v-0.68359a7 7 0 0 0 4-6.3164h-14z" fill="#455a64" />
    <path d="m8 3a5 5 0 0 0-5 5h10a5 5 0 0 0-5-5z" fill="#f5f5f5" />
    <path d="m2.0918 9a6 6 0 0 0 5.9082 5 6 6 0 0 0 5.9082-5h-11.816z" fill="#2196f3" />
  </g>
  <g fill="#455a64">
    <g stroke-width="0">
      <circle cx="5.5" cy="6.5" r=".5" />
      <circle cx="10.5" cy="6.5" r=".5" />
      <circle cx="6.5" cy="5.5" r=".5" />
    </g>
    <path d="m8 2a6 6 0 0 0-6 6h1a5 5 0 0 1 5-5 5 5 0 0 1 5 5h1a6 6 0 0 0-6-6z" />
  </g>
</svg>