<svg xmlns="http://www.w3.org/2000/svg" viewBox="0 0 24 24"><path d="M19.806,12.085l1.154-1.954a.407.407,0,0,0,.017-.31L18.692,3.276a.41.41,0,0,0-.483-.264L11.494,4.648a.417.417,0,0,0-.283.247L10.5,6.683H8.319a.411.411,0,0,0-.3.128L3.111,12.129a.407.407,0,0,0,.018.577h0l5.148,4.909a.4.4,0,0,0,.281.113h2.349l.715,1.788a.41.41,0,0,0,.311.251l7.137,1.225a.409.409,0,0,0,.469-.315l1.449-6.639a.405.405,0,0,0-.051-.3ZM10.5,6.685l5.765-1.058-3.034,5.964H6.344Zm.411,11.042-4.564-4.5h6.884l3.579,5.386Zm7.392-.041L14.869,12.41l2.994-5.965,1.943,5.642Z" style="fill:#6963b9"/></svg>