<?xml version="1.0" encoding="UTF-8"?>
<svg version="1.1" xmlns="http://www.w3.org/2000/svg" viewBox="0 0 16 16">
<g>
	<polygon fill="#616161" points="8.125,7.567 2.269,4.121 2,4.121 2,10.499 4,9.359 4.012,6.476 7,8.129 7,12.06 4.143,10.406 2.15,11.571 8,15.055 8.125,14.885"/>
	<polygon fill="#212121" points="7.999,7.463 13.667,4.121 14,4.121 14,10.499 12,9.359 11.988,6.476 9,8.129 9,12.06 11.857,10.406 13.85,11.571 8,15.055"/>
	<polygon fill="#9E9E9E" points="8,7.641 13.999,4.121 8.496,0.934 8.496,3.225 11,4.709 8,6.439 4.999,4.709 7.5,3.225 7.5,0.934 2,4.121 7.999,7.641 7.999,7.641 8,7.641"/>
</g>
</svg>
