<?xml version="1.0" encoding="UTF-8"?>
<svg version="1.1" xmlns="http://www.w3.org/2000/svg" viewBox="0 0 16 16">
<g>
	<path fill="#616161" d="M8.125,7.567L2.269,4.121H2v6.378l2-1.14l0.012-2.883L7,8.129v3.931l-2.857-1.654L2.15,11.571L8,15.055l0.125-0.17V7.567z"/>
	<path fill="#212121" d="M7.999,7.463l5.668-3.342H14v6.378l-2-1.14l-0.012-2.883L9,8.129v3.931l2.857-1.654l1.993,1.165L8,15.055L7.999,7.463z"/>
	<path fill="#9E9E9E" d="M8,7.641l5.999-3.52L8.496,0.934v2.291L11,4.709l-3,1.73l-3.001-1.73L7.5,3.225V0.934L2,4.121L8,7.641L8,7.641L8,7.641z"/>
</g>
</svg>
