<?xml version="1.0" encoding="UTF-8"?>
<svg version="1.1" xmlns="http://www.w3.org/2000/svg" viewBox="0 0 24 24">
<path fill="#757575" d="M13,9h5.5L13,3.5V9 M6,2h8l6,6v12c0,1.105-0.895,2-2,2H6c-1.105,0-2-0.895-2-2V4C4,2.89,4.89,2,6,2 M15,18v-2H6v2H15 M18,14v-2H6v2H18z"/>
<g>
	<path fill="#E0E0E0" d="M18.069,17.035l-5.095-2.998H12.74v5.549l1.74-0.992l0.01-2.508l2.6,1.438v3.42l-2.486-1.439l-1.734,1.014l5.09,3.031l0.109-0.148V17.035z"/>
	<path fill="#BDBDBD" d="M17.959,16.944l4.931-2.908h0.29v5.549l-1.74-0.992l-0.01-2.508l-2.6,1.438v3.42l2.486-1.439l1.734,1.014l-5.09,3.031L17.959,16.944z"/>
	<path fill="#EEEEEE" d="M17.96,17.099l5.219-3.063l-4.788-2.773v1.993l2.179,1.291l-2.61,1.505l-2.611-1.505l2.176-1.291v-1.993l-4.785,2.773L17.96,17.099L17.96,17.099L17.96,17.099z"/>
</g>
</svg>