<svg xmlns="http://www.w3.org/2000/svg" viewBox="0 0 32 32">
  <rect x="10" y="14" width="12" height="4" style="fill: #42a5f5"/>
  <path d="M12,22H9.56183A5.5681,5.5681,0,0,1,4,16.43817v-.87634A5.5681,5.5681,0,0,1,9.56183,10H12V6H9.56183A9.56178,9.56178,0,0,0,0,15.56183v.87634A9.56183,9.56183,0,0,0,9.56183,26H12Z" style="fill: #42a5f5"/>
  <path d="M22.43817,6H20v4h2.43817A5.5681,5.5681,0,0,1,28,15.56183v.87634A5.5681,5.5681,0,0,1,22.43817,22H20v4h2.43817A9.56183,9.56183,0,0,0,32,16.43817v-.87634A9.56178,9.56178,0,0,0,22.43817,6Z" style="fill: #42a5f5"/>
</svg>
