<svg xmlns="http://www.w3.org/2000/svg" viewBox="0 0 24 24">
  <g>
    <path style="fill:#0288d1" d="m 1.8847656,3.2832031 0.00781,9.1015629 8.1757814,2.796875 V 6.109375 Z M 3.4042969,5.5605469 8.4863281,7.3164062 V 12.974609 L 3.4042969,11.238281 Z" transform="matrix(1.5047466,0,0,1.5047466,0.408046,-0.72538151)" />
    <path style="fill:#81d4fa" d="m 4.3178025,10.525916 3.25251,1.12133 -0.00328,-3.6262871 -3.2623462,-1.1213291 z" transform="matrix(1.5047466,0,0,1.5047466,0.408046,-0.72538151)" />
    <path style="fill:#4fc3f7" d="m 10.606602,11.551252 1.265058,0.441942 0.0055,-7.2312718 -6.4413006,-2.2262815 0.00552,1.381068 5.1707186,1.7953883 z" transform="matrix(1.5047466,0,0,1.5047466,0.408046,-0.72538151)" />
    <path style="fill:#81d4fa" d="M 12.410156,8.3984375 13.679688,8.8398438 13.6875,3.4257813 9.0117188,1.8085937 9.0078125,3.1835938 12.417969,4.3632812 Z" transform="matrix(1.5047466,0,0,1.5047466,0.408046,-0.72538151)" />
  </g>
</svg>

