<?xml version="1.0" encoding="UTF-8" standalone="no"?><!-- Generator: Gravit.io --><svg xmlns="http://www.w3.org/2000/svg" xmlns:xlink="http://www.w3.org/1999/xlink" style="isolation:isolate" viewBox="0 0 500 500" width="500pt" height="500pt"><defs><clipPath id="_clipPath_APJ2DsYmRchjtIN8je8StPgcJVSbz4f1"><rect width="500" height="500"/></clipPath></defs><g clip-path="url(#_clipPath_APJ2DsYmRchjtIN8je8StPgcJVSbz4f1)"><defs><filter id="pFBpIGWeLFR57cc3UEs6kLIg7sl4XnaY" x="-200%" y="-200%" width="400%" height="400%" filterUnits="objectBoundingBox" color-interpolation-filters="sRGB"><feGaussianBlur xmlns="http://www.w3.org/2000/svg" in="SourceGraphic" stdDeviation="0.8587218125678057"/><feOffset xmlns="http://www.w3.org/2000/svg" dx="0" dy="0" result="pf_100_offsetBlur"/><feFlood xmlns="http://www.w3.org/2000/svg" flood-color="#000000" flood-opacity="0.65"/><feComposite xmlns="http://www.w3.org/2000/svg" in2="pf_100_offsetBlur" operator="in" result="pf_100_dropShadow"/><feBlend xmlns="http://www.w3.org/2000/svg" in="SourceGraphic" in2="pf_100_dropShadow" mode="normal"/></filter></defs><g filter="url(#pFBpIGWeLFR57cc3UEs6kLIg7sl4XnaY)"><path d=" M 318.422 453.543 L 463.705 49.541 C 466.168 42.689 462.285 37.693 455.037 38.392 L 340.786 49.398 C 333.539 50.097 325.71 56.246 323.316 63.121 L 188.843 449.216 C 186.447 456.091 190.414 461.673 197.695 461.673 L 308.901 461.673 C 312.541 461.673 316.497 458.893 317.729 455.466 L 318.422 453.543 Z " fill="rgb(83,107,138)"/></g><defs><filter id="hG5ama9qKby8Xr7x4tSHGFjxy0LVWrN8" x="-200%" y="-200%" width="400%" height="400%" filterUnits="objectBoundingBox" color-interpolation-filters="sRGB"><feGaussianBlur xmlns="http://www.w3.org/2000/svg" in="SourceGraphic" stdDeviation="6.440413594258542"/><feOffset xmlns="http://www.w3.org/2000/svg" dx="0" dy="0" result="pf_100_offsetBlur"/><feFlood xmlns="http://www.w3.org/2000/svg" flood-color="#000000" flood-opacity="0.65"/><feComposite xmlns="http://www.w3.org/2000/svg" in2="pf_100_offsetBlur" operator="in" result="pf_100_dropShadow"/><feBlend xmlns="http://www.w3.org/2000/svg" in="SourceGraphic" in2="pf_100_dropShadow" mode="normal"/></filter></defs><g filter="url(#hG5ama9qKby8Xr7x4tSHGFjxy0LVWrN8)"><path d=" M 301.848 455.466 L 241.359 280.725 L 250 275.324 L 311.57 453.543 L 301.848 455.466 Z " fill="rgb(235,235,235)"/></g><defs><filter id="hP4SP4cNIGtXxFotuadAGUrdWWKEkexu" x="-200%" y="-200%" width="400%" height="400%" filterUnits="objectBoundingBox" color-interpolation-filters="sRGB"><feGaussianBlur xmlns="http://www.w3.org/2000/svg" in="SourceGraphic" stdDeviation="0.8587218125678057"/><feOffset xmlns="http://www.w3.org/2000/svg" dx="0" dy="0" result="pf_100_offsetBlur"/><feFlood xmlns="http://www.w3.org/2000/svg" flood-color="#000000" flood-opacity="0.65"/><feComposite xmlns="http://www.w3.org/2000/svg" in2="pf_100_offsetBlur" operator="in" result="pf_100_dropShadow"/><feBlend xmlns="http://www.w3.org/2000/svg" in="SourceGraphic" in2="pf_100_dropShadow" mode="normal"/></filter></defs><g filter="url(#hP4SP4cNIGtXxFotuadAGUrdWWKEkexu)"><path d=" M 44.963 38.392 L 159.214 49.398 C 166.461 50.097 174.298 56.243 176.704 63.115 L 314.022 455.448 C 315.224 458.885 313.245 461.673 309.604 461.673 L 197.695 461.673 C 190.414 461.673 182.502 456.111 180.038 449.259 L 36.295 49.541 C 33.832 42.689 37.715 37.693 44.963 38.392 Z " fill="rgb(93,135,191)"/></g></g></svg>