<?xml version="1.0" encoding="UTF-8" standalone="no"?>
<svg xmlns:dc="http://purl.org/dc/elements/1.1/" xmlns:cc="http://creativecommons.org/ns#" xmlns:rdf="http://www.w3.org/1999/02/22-rdf-syntax-ns#" xmlns:svg="http://www.w3.org/2000/svg" xmlns="http://www.w3.org/2000/svg" xmlns:sodipodi="http://sodipodi.sourceforge.net/DTD/sodipodi-0.dtd" xmlns:inkscape="http://www.inkscape.org/namespaces/inkscape" width="64" height="64" viewBox="0 0 32 32" version="1.1" id="svg7168" inkscape:version="0.91 r13725" sodipodi:docname="vagrant-icon.svg">
  <metadata id="metadata7202">
    <rdf:RDF>
      <cc:Work rdf:about="">
        <dc:format>image/svg+xml</dc:format>
        <dc:type rdf:resource="http://purl.org/dc/dcmitype/StillImage"/>
        <dc:title>Artboard</dc:title>
      </cc:Work>
    </rdf:RDF>
  </metadata>
  <sodipodi:namedview pagecolor="#ffffff" bordercolor="#666666" borderopacity="1" objecttolerance="10" gridtolerance="10" guidetolerance="10" inkscape:pageopacity="0" inkscape:pageshadow="2" inkscape:window-width="1855" inkscape:window-height="1056" id="namedview7200" showgrid="false" inkscape:zoom="10.788571" inkscape:cx="17.31086" inkscape:cy="21.572565" inkscape:window-x="65" inkscape:window-y="24" inkscape:window-maximized="1" inkscape:current-layer="svg7168"/>
  <!-- Generator: Sketch 43.1 (39012) - http://www.bohemiancoding.com/sketch -->
  <title id="title7170">Artboard</title>
  <desc id="desc7172">Created with Sketch.</desc>
  <defs id="defs7174"/>
  <g style="fill:none;fill-rule:nonzero;stroke:none;stroke-width:1" id="Artboard" transform="matrix(0.16673126,0,0,0.16673126,-13.092043,-4.1682819)">
    <g transform="translate(57,25)" id="Vagrant_VerticalLogo_FullColor">
      <polygon style="fill:#1159cc" points="134.20661,126.96694 117.34711,138.61983 117.34711,191.92562 153.52066,171.07438 210.17355,32.355372 210.17355,14.77686 167.97521,39.322314 167.97521,54.14876 " id="polygon7194"/>
      <polygon style="fill:#1159cc" points="66.719008,39.322314 66.719008,54.14876 100.46281,130.16529 117.34711,121.83471 117.34711,100.63636 92.033058,41.578512 92.033058,24.867769 91.859504,24.768595 " id="polygon7196"/>
      <path style="fill:#127eff" d="m 142.66116,24.694215 0,0.02479 0,0 0,0 0,16.859504 -25.31405,59.057851 0,19.73554 -16.8843,9.79339 -33.743802,-76.016533 0,-14.851239 25.31405,-14.57851 L 49.834711,0 l -25.31405,14.77686 0,18.099173 56.975207,138.371897 35.851242,20.67769 0,-51.96694 16.8595,-9.79339 -0.19835,-0.12397 33.96695,-75.89256 0,-14.826446 0,-0.02479 L 210.17355,14.77686 184.8595,0 142.68595,24.694215 Z" id="polygon7198" inkscape:connector-curvature="0"/>
    </g>
  </g>
</svg>
