<?xml version="1.0" encoding="UTF-8"?>
<svg width="16" height="16" version="1.1" viewBox="0 0 16 16" xmlns="http://www.w3.org/2000/svg">
 <path d="m6 15v-12c-0.092112 0.034537-0.17926 0.064234-0.26204 0.09059-0.89757 0.28576-1.9778 1.4862-2.1367 2.4343-0.048694 0.29059-0.073042 0.59819-0.073042 0.92282 0 0.23101 0.011955 0.42061 0.035864 0.56881 0.029359 0.14223 0.058894 0.25773 0.088605 0.34651 0.029711 0.082979 0.056521 0.1482 0.08043 0.19567 0.029359 0.047467 0.044039 0.088957 0.044039 0.12447-0.31399 0-0.59237-0.029535-0.83516-0.088605-0.24314-0.065399-0.44768-0.16622-0.61364-0.30247-0.15998-0.1359-0.28436-0.31653-0.37314-0.54191-0.083155-0.22503-0.12473-0.50341-0.12473-0.83516 0-0.40294 0.085792-0.79991 0.25738-1.1909 0.17774-0.39081 0.41771-0.76114 0.71992-1.111 0.30818-0.34932 0.66682-0.67219 1.0759-0.96859 0.4149-0.29623 0.85625-0.55106 1.3241-0.76448 0.3376-0.15621 0.81916-0.3463 1.3316-0.51233 0.34398-0.11144 0.91682-0.23614 1.2751-0.2856 0.37809-0.052193 0.72938-0.082125 1.2282-0.082125l-0.042711 11 4-11h1l-5 14z" fill="#9575cd" stroke-width=".2637"/>
</svg>
