<svg xmlns="http://www.w3.org/2000/svg" xmlns:xlink="http://www.w3.org/1999/xlink" viewBox="0 0 64 64"><path fill="#9575cd" d="m26.357 57.882-1.111-47.15q-4.854 1.82-7.583 5.694-2.698 3.877-2.698 9.64 0 1.314.136 2.157.167.809.336 1.314.169.472.305.742.167.27.167.472-1.786 0-3.167-.336-1.383-.372-2.327-1.147-.91-.773-1.415-2.055-.473-1.28-.473-3.167 0-2.292.976-4.516 1.011-2.223 2.73-4.213 1.753-1.987 4.08-3.673 2.36-1.685 5.021-2.899 2.695-1.247 5.594-1.92 2.932-.71 5.831-.71.775 0 1.416.034.673.033 1.346.1l.608 42.465L50.654 6.45h4.819L36.298 57.883h-9.943z"/></svg>