<svg xmlns="http://www.w3.org/2000/svg" viewBox="0 0 16 16"><path fill="#9575cd" d="M6 15V3q-.138.052-.262.09c-.898.286-1.978 1.487-2.137 2.435q-.072.435-.073.923 0 .345.036.569.044.213.089.346.044.124.08.196.044.071.044.124a3.6 3.6 0 0 1-.835-.088 1.6 1.6 0 0 1-.614-.303 1.34 1.34 0 0 1-.373-.542 2.4 2.4 0 0 1-.125-.835q0-.605.258-1.19.267-.588.72-1.112.462-.525 1.076-.968a8 8 0 0 1 1.324-.765c.337-.156.819-.346 1.331-.512a9 9 0 0 1 1.275-.286C8.193 1.03 8.544 1 9.043 1L9 12l4-11h1L9 15z"/></svg>