<svg xmlns="http://www.w3.org/2000/svg" viewBox="0 0 128 128"><path d="M109.94 69.11c-.23.11-.46.25-.69.39-.01-1.46-.78-2.17-1.32-2.94-2.6-3.72-7.62-2.31-9.1 1.11-.2.47 3.06 4.72 2.92 5.18-2.16.97-4.24 3.2-4.66 5.15.43-2.01-1.07-2.95-3.34-2.2s-4.42 2.91-4.73 4.91c.32-2-1.3-3.09-3.62-2.53s-4.39 2.55-4.6 4.54c.21-1.99-1.53-3.24-3.87-2.89s-4.34 2.17-4.44 4.15c.09-1.99-1.75-3.4-4.11-3.27s-4.27 1.77-4.25 3.76c-.02-1.98-1.96-3.58-4.32-3.66s-4.18 1.37-4.05 3.36c-.13-1.99-2.17-3.76-4.51-4.06-2.35-.3-4.06.98-3.82 2.97-.24-1.99-2.36-3.94-4.68-4.45s-3.92.61-3.57 2.61c-.35-1.99-2.54-4.11-4.83-4.82-2.29-.7-3.77.27-3.3 2.27-.46-2-5.51-10.45-6.06-11.7-1.48-3.42-4.33-4.5-6.77-2.28-1 .91-1.62 2.56-1.11 4.99-1.59-.44-2.38.33-1.8 2.02 3.17 9.26 6.3 18.68 8.9 28.15 1.11 4.05 2.26 9.3 5.52 12.32 2.34 2.16 5.26 3.66 8.07 4.87 8.39 3.6 17.7 4.7 26.37 4.76 9.28.06 21.08-2.18 29.29-6.85 3.11-1.76 6.07-3.81 7.46-7.26 2.29-5.72 3.95-11.72 5.7-17.46 1.99-6.52 3.49-13.44 6.07-19.53.64-2-.58-2.69-2.75-1.61z" fill="#0097a7"/><ellipse cx="63.86" cy="77.31" rx="45.01" ry="18.09" fill="#795548"/><path d="M102.08 51.48c-.84-.85-1.87-1.65-3.1-2.35 0 0-28.68 9.33-48.64 8.32s-17.02-3.19-27.16 3.27c0 0-2.77 3.96.61 6.37 4.42 3.15 10 5.75 16.12 7.73.74-.54 1.48-.88 2.11-.88 19.03-6.61 56.05 1.77 60.06-22.46z" fill="#f06292"/><path d="M102.08 51.48c-4.01 24.23-41.03 15.85-60.05 22.46-.63 0-1.37.33-2.11.88 15.35 4.96 34.13 5.97 46.67 1.8 15.75-5.22 22.86-17.67 15.49-25.14z" fill="#ec407a"/><path d="M93.95 33.63s5.43 3.22 5.43 11.55-6.93 19.13-37.68 16.04c-30.48-3.07-38.35-.47-38.35-.47s-9.34-12.68 10.18-12.61c17.47.06 43.45 2.12 49.57-1.76 9.11-5.8 9.45-5.96 10.85-12.75z" fill="#ff80ab"/><path d="M58.45 27.44c9.46-5.91 8.95-14.5 4.44-21.81-.49.28-.78.87-.53 1.48.99 2.38 1.87 5.74.27 8-2.71 3.82-7.73 4.79-15.94 9.37C38.86 28.84 35.85 33 35.3 38.22c-.05.49.23.96.69 1.19.88.44 2.56 1.16 5.1 1.82 2.76-6.83 11.07-10.65 17.36-13.79z" fill="#f06292"/><path d="M79.09 16.45c-4.23-4.56-9.23-8.28-15.02-10.88-.42-.19-.85-.13-1.19.06 4.51 7.3 5.02 15.89-4.44 21.81-6.28 3.14-14.59 6.96-17.36 13.79 2.76.72 6.54 1.37 11.46 1.52 12.06.36 28.31-.3 31.07-5.03 2.77-4.72.46-15.9-4.52-21.27z" fill="#ff80ab"/><path d="M93.1 32c.23-.58.4-1.18.52-1.78-3.24-4.96-10.82-6.48-10.82-6.48 8.22 17.5-34.56 13.69-46.68 14.41-5.16.31-8.12 2.58-9.83 5.1 2.53-1.32 5.49-2.05 8.46-3.04C53.89 35.65 84.89 54.8 93.1 32z" fill="#f48fb1"/><path d="M94.82 32.96a8.561 8.561 0 00-1.2-2.74c-.12.61-.29 1.2-.52 1.78-8.21 22.8-39.21 3.65-58.36 8.21-2.96.99-5.93 1.71-8.46 3.04-2.31 3.39-2.32 7.21-2.32 7.21 12.47-3.78 21.67.02 45.64.37 23.97.33 26.94-10.71 25.22-17.87z" fill="#f06292"/><path d="M109.96 76.04c-2.19 1.02-4.48 3.36-5.05 5.31.58-1.95-.77-2.78-3.01-1.95-2.25.83-4.49 2.98-4.96 4.89.47-1.91-1.01-2.86-3.3-2.22s-4.48 2.61-4.83 4.49c.36-1.88-1.24-2.96-3.56-2.51s-4.44 2.25-4.68 4.11c.25-1.86-1.47-3.08-3.81-2.82-2.35.26-4.38 1.9-4.51 3.74.13-1.84-1.68-3.21-4.04-3.14s-4.3 1.55-4.32 3.39c.02-1.84-1.89-3.36-4.25-3.48-2.35-.12-4.2 1.21-4.1 3.06-.09-1.85-2.09-3.52-4.44-3.83-2.34-.31-4.08.88-3.87 2.74-.21-1.86-2.28-3.71-4.6-4.2s-3.93.55-3.62 2.44c-.32-1.89-2.46-3.9-4.74-4.59s-3.77.24-3.34 2.16c-.43-1.92-2.63-4.12-4.86-4.99s-3.59-.07-3.05 1.89c-.54-1.96-2.78-4.35-4.95-5.41s-3.39-.37-2.75 1.64c2.58 6.06 4.09 12.85 6.08 19.13 1.76 5.53 3.42 11.26 5.72 16.59 1.39 3.22 4.33 4.92 7.47 6.34 8.99 4.05 19.49 5.1 29.23 5.19 8.8.09 17.92-.68 26.31-3.47 2.82-.94 5.74-2.11 8.08-3.98 3.27-2.61 4.42-7.6 5.54-11.46 2.67-9.24 5.82-18.25 8.92-27.35.68-2.02-.52-2.73-2.71-1.71z" fill="#4dd0e1"/></svg>