<svg xmlns="http://www.w3.org/2000/svg" viewBox="0 0 288 288"><svg xmlns="http://www.w3.org/2000/svg" viewBox="0 -15 356 400"><path fill="#ff3d00" d="M90.457 353.95c-38.66-13.815-66.73-48.192-77.845-95.332-5.044-21.395-6.47-56.748-2.288-56.748 1.389 0 5.1 9.7 8.245 21.557 6.884 25.945 18.625 50.342 29.967 62.267 18.839 19.808 65.5 27.566 92.385 15.36 20.943-9.509 29.436-32.108 20.329-54.095-7.038-16.99-23.003-22.67-52.742-18.767 0 0-18.225-19.618-24.032-54.457l18.681 1.694c22.5 2.04 39.488-2.933 48.305-14.142 8.286-10.533 8.107-14.607-1.114-25.325-13.304-15.468-37.193-11.55-85.561 14.033l-24.405-40.91 10.231-7.804c25.64-19.557 70.16-29.334 95.497-20.972 23.078 7.617 40.017 37.839 35.492 63.324-3.059 17.23-16.874 41.362-27.548 48.12l-9.205 5.829 12.715 5.733c21.606 9.743 34.797 2.295 50.556-28.547 21.81-42.681 35.954-53.73 68.847-53.777 15.315-.023 20.766 1.584 31.936 9.412 27.88 19.537 43.06 59.994 39.725 105.87-4.223 58.101-31.744 93.343-72.894 93.343-22.583 0-37.14-7.92-48.727-26.514-10.177-16.333-14.764-48.68-8.919-62.908 2.804-6.827 3.31-7.058 3.494-1.597.337 10.04 11.76 26.358 22.246 31.781 25.73 13.306 62.667-3.411 77.28-34.975 11.095-23.964 5.143-70.186-10.087-78.337-3.186-1.706-11.06-3.101-17.497-3.101-13.682 0-24.427 9.837-39.491 36.153-5.209 9.098-13.974 20.854-19.478 26.123-8.944 8.562-12.137 9.581-30.024 9.581h-20.017l6.47 14.372c9.261 20.57 8.823 53.993-.974 74.34-8.657 17.979-28.674 36.18-44.676 40.626-15.578 4.328-40.946 3.768-54.877-1.21zm75.377-278.026c-8.855-15.11-14.304-43.318-8.369-43.318 6.973 15.126 21.265 28.621 36.57 38.037 27.486 13.306 55.358 7.936 85.807-16.535 6.704-5.387 12.64-9.195 13.192-8.462 7.436 11.538 20.297 20.967 24.548 34.375 0 5.658-24.353 21.94-43.57 29.13-47.63 13.72-80.046 8.292-108.178-33.227zm24.002-34.927 31.01-34.383 34.46 31.9c-11.787 9.709-20.296 24.775-33.762 32.416-10.64-7.844-26.52-17.092-31.708-29.933z" class="colorff4500 svgShape"/></svg></svg>