<?xml version="1.0" encoding="UTF-8" standalone="no"?>
<svg
   xmlns:dc="http://purl.org/dc/elements/1.1/"
   xmlns:cc="http://creativecommons.org/ns#"
   xmlns:rdf="http://www.w3.org/1999/02/22-rdf-syntax-ns#"
   xmlns:svg="http://www.w3.org/2000/svg"
   xmlns="http://www.w3.org/2000/svg"
   xmlns:sodipodi="http://sodipodi.sourceforge.net/DTD/sodipodi-0.dtd"
   xmlns:inkscape="http://www.inkscape.org/namespaces/inkscape"
   version="1.1"
   width="24"
   height="24"
   viewBox="0 0 24 24"
   id="svg4"
   sodipodi:docname="verilog.svg"
   inkscape:version="0.92.1 r15371">
  <metadata
     id="metadata10">
    <rdf:RDF>
      <cc:Work
         rdf:about="">
        <dc:format>image/svg+xml</dc:format>
        <dc:type
           rdf:resource="http://purl.org/dc/dcmitype/StillImage" />
      </cc:Work>
    </rdf:RDF>
  </metadata>
  <defs
     id="defs8" />
  <sodipodi:namedview
     pagecolor="#ffffff"
     bordercolor="#666666"
     borderopacity="1"
     objecttolerance="10"
     gridtolerance="10"
     guidetolerance="10"
     inkscape:pageopacity="0"
     inkscape:pageshadow="2"
     inkscape:window-width="1366"
     inkscape:window-height="705"
     id="namedview6"
     showgrid="false"
     inkscape:zoom="9.8333333"
     inkscape:cx="12"
     inkscape:cy="12"
     inkscape:window-x="-8"
     inkscape:window-y="-8"
     inkscape:window-maximized="1"
     inkscape:current-layer="svg4" />
  <path
     d="M 17.282485,17.079096 H 6.7175141 V 6.5141242 H 17.282485 m 4.225989,4.2259888 V 8.6271186 H 19.39548 V 6.5141242 c 0,-1.1727118 -0.950848,-2.1129943 -2.112995,-2.1129943 H 15.169491 V 2.2881355 H 13.056497 V 4.4011299 H 10.943502 V 2.2881355 H 8.8305085 V 4.4011299 H 6.7175141 c -1.1727119,0 -2.1129943,0.9402825 -2.1129943,2.1129943 V 8.6271186 H 2.4915254 v 2.1129944 h 2.1129944 v 2.112995 H 2.4915254 v 2.112994 h 2.1129944 v 2.112994 a 2.1129944,2.1129944 0 0 0 2.1129943,2.112995 h 2.1129944 v 2.112994 h 2.1129935 v -2.112994 h 2.112995 v 2.112994 h 2.112994 v -2.112994 h 2.112994 a 2.1129944,2.1129944 0 0 0 2.112995,-2.112995 v -2.112994 h 2.112994 V 12.853108 H 19.39548 v -2.112995 m -6.338983,2.112995 h -2.112995 v -2.112995 h 2.112995 M 15.169491,8.6271186 H 8.8305085 v 6.3389834 h 6.3389825 z"
     id="path2"
     style="fill:#ff7043;fill-opacity:1;stroke-width:1.05649722"
     inkscape:connector-curvature="0" />
</svg>
