<svg xmlns="http://www.w3.org/2000/svg" viewBox="0 0 32 32">
  <path d="M21.83333,8A2.16911,2.16911,0,0,1,24,10.16667V21.83333A2.16911,2.16911,0,0,1,21.83333,24H10.16667A2.16911,2.16911,0,0,1,8,21.83333V10.16667A2.16911,2.16911,0,0,1,10.16667,8H21.83333m0-2H10.16667A4.16667,4.16667,0,0,0,6,10.16667V21.83333A4.16667,4.16667,0,0,0,10.16667,26H21.83333A4.16667,4.16667,0,0,0,26,21.83333V10.16667A4.16667,4.16667,0,0,0,21.83333,6Z" style="fill: #ff7043"/>
  <path d="M18,14v4H14V14h4m2-2H12v8h8V12Z" style="fill: #ff7043"/>
  <rect x="2" y="12" width="4" height="2" style="fill: #ff7043"/>
  <rect x="2" y="18" width="4" height="2.00001" style="fill: #ff7043"/>
  <rect x="26" y="12" width="4" height="2" style="fill: #ff7043"/>
  <rect x="26" y="18" width="4" height="2.00001" style="fill: #ff7043"/>
  <rect x="18" y="26" width="2" height="4" style="fill: #ff7043"/>
  <rect x="11.99999" y="26" width="2.00001" height="4" style="fill: #ff7043"/>
  <rect x="18" y="2" width="2" height="4" style="fill: #ff7043"/>
  <rect x="11.99999" y="2" width="2.00001" height="4" style="fill: #ff7043"/>
</svg>
