<svg xmlns="http://www.w3.org/2000/svg" xmlns:xlink="http://www.w3.org/1999/xlink" viewBox="0 0 395.1 394.73"><defs><style>.a{fill:#f05223;}.b{fill:url(#a);}</style><radialGradient id="a" cx="205.45" cy="208.29" r="225.35" gradientUnits="userSpaceOnUse"><stop offset="0" stop-color="#ffd104"/><stop offset="0.35" stop-color="#faa60e"/><stop offset="1" stop-color="#f05023"/></radialGradient></defs><title>houdinibadge</title><path class="a" d="M374.94,2.64H25.06A22.61,22.61,0,0,0,2.45,25.25v90.68C36.43,89.85,80.65,73,133,73c112.11.07,183.28,78.39,183.25,177.22,0,68.65-32.06,120.28-82.22,147.13h140.9a22.61,22.61,0,0,0,22.61-22.61V25.25A22.61,22.61,0,0,0,374.94,2.64Z" transform="translate(-2.45 -2.64)"/><path class="b" d="M2.45,325.47v49.28a22.61,22.61,0,0,0,22.61,22.61H65.38C34.8,380,13.2,353.51,2.45,325.47Z" transform="translate(-2.45 -2.64)"/><path class="a" d="M133,117.35C76.24,115.39,32.07,136.21,2.45,167v69.35c20.14-58.19,75.65-84.87,122.15-84.41,58.1.58,102.91,44.4,103.17,93.93.25,47.34-19.58,82.19-73.11,90.78-29.19,4.68-74.86-12.43-72.82-56.52,1-22.74,18.75-35.57,39-34.65-19.85,26.6,6.43,46.1,25,42.13,23-4.92,32.38-25.35,32.38-41.19,0-16.71-15.75-43.72-54.84-42.79-48.37,1.15-78.81,35.95-79.84,79C42.3,336.75,93,372.35,145,373c76.36,1,121.66-49.14,121.56-122.5C266.45,184.08,213.14,120.12,133,117.35Z" transform="translate(-2.45 -2.64)"/></svg>