<svg xmlns="http://www.w3.org/2000/svg" viewBox="0 0 32 32">
  <path d="M16.09445,30.07392a1.41432,1.41432,0,0,1-1.00352-.41561L8.46867,23.03645a1.41906,1.41906,0,0,1,2.00681-2.00689l5.619,5.61842L28.33555,14.4075a1.419,1.419,0,0,1,2.00669,2.00679L17.09773,29.65841a1.414,1.414,0,0,1-1.00327.41561Z" style="fill: #689f38"/>
  <path d="M16.08863,30.07392a1.41437,1.41437,0,0,0,1.00352-.41561l6.62226-6.62186a1.41909,1.41909,0,0,0-2.00689-2.00689l-5.619,5.61842L3.84745,14.4075a1.41907,1.41907,0,0,0-2.00681,2.00679l13.2447,13.24412a1.414,1.414,0,0,0,1.00329.41561Z" style="fill: #689f38;fill-opacity: 0.5019599795341492"/>
  <polygon points="24 10 18 10 18 2 10 14 16 14 16 22 24 10" style="fill: #ffca28"/>
</svg>
