<?xml version="1.0" encoding="UTF-8" standalone="no"?>
<svg
   xmlns:dc="http://purl.org/dc/elements/1.1/"
   xmlns:cc="http://creativecommons.org/ns#"
   xmlns:rdf="http://www.w3.org/1999/02/22-rdf-syntax-ns#"
   xmlns:svg="http://www.w3.org/2000/svg"
   xmlns="http://www.w3.org/2000/svg"
   style="isolation:isolate"
   viewBox="0 0 500 500"
   width="500px"
   height="500px"
   version="1.1"
   id="svg30">
  <metadata
     id="metadata34">
    <rdf:RDF>
      <cc:Work
         rdf:about="">
        <dc:format>image/svg+xml</dc:format>
        <dc:type
           rdf:resource="http://purl.org/dc/dcmitype/StillImage" />
        <dc:title></dc:title>
      </cc:Work>
    </rdf:RDF>
  </metadata>
  <defs
     id="defs5">
    <clipPath
       id="_clipPath_8TWIgR1z3pxinjWBiigzcEIrVJKv9Gq4">
      <rect
         width="500"
         height="500"
         id="rect2" />
    </clipPath>
  </defs>
  <g
     clip-path="url(#_clipPath_8TWIgR1z3pxinjWBiigzcEIrVJKv9Gq4)"
     id="g28">
    <path
       d="M 318.422,453.543 463.705,49.541 c 2.463,-6.852 -1.42,-11.848 -8.668,-11.149 L 340.786,49.398 c -7.247,0.699 -15.076,6.848 -17.47,13.723 L 188.843,449.216 c -2.396,6.875 1.571,12.457 8.852,12.457 h 111.206 c 3.64,0 7.596,-2.78 8.828,-6.207 z"
       fill="rgb(83,107,138)"
       id="path7"
       style="fill:#536b8a;fill-opacity:1" />
    <defs
       id="defs20">
      <filter
         id="Hmac7mZraFWHw0G84Yxj4QuzeTFp0E7Y"
         x="-200%"
         y="-200%"
         width="400%"
         height="400%"
         filterUnits="objectBoundingBox"
         color-interpolation-filters="sRGB">
        <feGaussianBlur
           in="SourceGraphic"
           stdDeviation="6.440413594258542"
           id="feGaussianBlur9" />
        <feOffset
           dx="0"
           dy="0"
           result="pf_100_offsetBlur"
           id="feOffset11" />
        <feFlood
           flood-color="#000000"
           flood-opacity="0.65"
           id="feFlood13" />
        <feComposite
           in2="pf_100_offsetBlur"
           operator="in"
           result="pf_100_dropShadow"
           id="feComposite15" />
        <feBlend
           in="SourceGraphic"
           in2="pf_100_dropShadow"
           mode="normal"
           id="feBlend17" />
      </filter>
    </defs>
    <path
       d="m 44.963,38.392 114.251,11.006 c 7.247,0.699 15.084,6.845 17.49,13.717 l 137.318,392.333 c 1.202,3.437 -0.777,6.225 -4.418,6.225 H 197.695 c -7.281,0 -15.193,-5.562 -17.657,-12.414 L 36.295,49.541 c -2.463,-6.852 1.42,-11.848 8.668,-11.149 z"
       fill="#5d87bf"
       id="path26-2"
       style="isolation:isolate" />
  </g>
</svg>
