<?xml version="1.0" encoding="UTF-8"?>
<svg style="isolation:isolate" version="1.1" viewBox="0 0 500 500" xmlns="http://www.w3.org/2000/svg">
 <g transform="matrix(.91281 0 0 .91281 21.798 21.798)">
  <g transform="matrix(.98697 0 0 .98697 3.2563 3.2565)">
   <path d="m318.42 453.54 145.28-404c2.463-6.852-1.42-11.848-8.668-11.149l-114.25 11.006c-7.247 0.699-15.076 6.848-17.47 13.723l-134.47 386.1c-2.396 6.875 1.571 12.457 8.852 12.457h111.21c3.64 0 7.596-2.78 8.828-6.207z" fill="#546e7a"/>
   <path d="m44.963 38.392 114.25 11.006c7.247 0.699 15.084 6.845 17.49 13.717l137.32 392.33c1.202 3.437-0.777 6.225-4.418 6.225h-111.91c-7.281 0-15.193-5.562-17.657-12.414l-143.74-399.72c-2.463-6.852 1.42-11.848 8.668-11.149z" fill="#039be5"/>
  </g>
 </g>
</svg>
