<?xml version="1.0" standalone="no"?><!-- Generator: Gravit.io --><svg xmlns="http://www.w3.org/2000/svg" xmlns:xlink="http://www.w3.org/1999/xlink" style="isolation:isolate" viewBox="468.043 392.5 23.957 26.619" width="23.957" height="26.619"><g><path d=" M 489.458 411.145 L 479.198 417.068 L 468.939 411.145 L 468.939 399.298 L 479.198 393.375 L 489.458 399.298 L 489.458 411.145 Z " fill="rgb(255,255,255)" fill-opacity="0.78498"/><path d=" M 480.021 392.5 C 479.742 392.5 479.475 392.579 479.262 392.739 L 468.747 398.648 C 468.322 398.874 468.043 399.315 468.043 399.82 L 468.043 411.799 C 468.043 412.305 468.322 412.745 468.747 412.971 L 479.262 418.88 C 479.475 419.04 479.742 419.119 480.021 419.119 C 480.301 419.119 480.568 419.04 480.781 418.88 L 491.296 412.971 C 491.721 412.745 492 412.305 492 411.799 L 492 399.82 C 492 399.315 491.721 398.874 491.296 398.648 L 480.781 392.739 C 480.568 392.579 480.301 392.5 480.021 392.5 Z  M 480.021 395.362 L 489.338 400.605 L 489.338 403.405 L 489.317 403.405 L 489.317 410.296 L 489.338 410.296 L 489.338 411.014 L 480.021 416.257 L 470.705 411.014 L 470.705 400.605 L 480.021 395.362 L 480.021 395.362 Z " fill="rgb(69,186,134)"/><g><path d=" M 472.143 401 L 480.019 414.592 L 487.894 401.066 L 487.894 401 L 484.833 401 L 480.064 409.189 L 475.318 401 L 472.143 401 Z " fill="rgb(65,184,131)"/><path d=" M 475.318 401 L 480.064 409.19 L 484.833 401 L 481.961 401 L 480.083 404.223 L 478.214 401 L 475.318 401 Z " fill="rgb(53,73,94)"/></g></g></svg>