<svg fill="none" viewBox="0 0 24 24" xmlns="http://www.w3.org/2000/svg"><g clip-rule="evenodd" fill-rule="evenodd"><path d="m5 0c-.79565 0-1.55871.31607-2.12132.878679-.56261.562611-.87868 1.325671-.87868 2.121321v18c0 .7957.31607 1.5587.87868 2.1213s1.32567.8787 2.12132.8787h14c.7956 0 1.5587-.3161 2.1213-.8787s.8787-1.3256.8787-2.1213v-18c0-.79565-.3161-1.55871-.8787-2.121321-.5626-.562609-1.3257-.878679-2.1213-.878679z" fill="#e8f5e9"/><path d="m5 6.002 7 11.998 7-11.94001v-.05999h-2.7219l-4.2378 7.2288-4.21775-7.2268z" fill="#81c784"/><path d="m8 6 3.9895 7 4.0105-7h-2.4158l-1.5775 2.75353-1.5718-2.75353z" fill="#37474f"/></g></svg>
