<svg width="16" height="16" viewBox="0 0 16 16" fill="none" xmlns="http://www.w3.org/2000/svg">
<g clip-path="url(#clip0_411_119)">
<path d="M5.09316 13.3935L4.44774 16.1962C4.44774 16.1962 7.39386 16.1962 10.3978 16.1962C13.6243 16.1962 15.6739 16.1962 15.6739 16.1962L11.6297 10.281L5.09316 13.3935Z" fill="#F2C57E"/>
<path d="M6.75801 13.745C6.75801 13.745 6.89535 15.6485 7.52342 16C7.52342 16 4.24789 17.1643 4.48466 15.8242L5.0308 13.3616L6.75801 13.745Z" fill="#E65100"/>
<path d="M4.62195 9.04742C4.62195 9.04742 5.18722 9.84633 5.31283 11.0287C5.43845 12.2111 4.60875 13.3471 6.60039 13.7131C8.86147 14.1285 13.6032 12.1083 12.0016 10.4785C10.9966 9.45594 10.4945 8.47221 10.9341 6.49091C11.4052 4.50962 8.70445 3.29527 8.70445 3.29527L4.62195 9.04742Z" fill="#F2C57E"/>
<path d="M10.0353 8.60333C10.0353 8.60333 12.6253 14.3304 15.2038 16.0684H15.918C15.918 16.0684 12.1277 11.1246 10.8715 8.31245C9.61539 5.50029 9.97246 8.60333 10.0353 8.60333ZM5.65851 0.387266C5.65851 0.387266 4.05691 1.09031 4.7792 6.13942C4.99902 8.88767 3.86848 8.66397 3.64866 8.40832C3.39743 8.18462 4.40235 6.77854 3.83708 6.2992C3.27181 5.81985 2.70183 6.39031 2.01095 5.01618C0.820971 2.6494 2.18354 3.53391 3.00005 2C3.59672 0.881526 3.89989 0.547048 4.40235 0.61096C4.8106 0.642917 5.18745 0.0357455 5.65851 0.387266Z" fill="#E65100"/>
<path d="M2.4555 6.17137C2.4555 6.17137 2.51832 7.35394 2.29846 8.02513C1.95296 9.01594 2.83241 10.3583 4.12017 8.92005C5.40793 7.48179 2.4555 6.17137 2.4555 6.17137Z" fill="#F2C57E"/>
<path d="M8.98756 0.706832C8.98756 0.706832 6.50666 -0.571424 4.52822 0.866614C2.54977 2.30465 4.11997 2.11291 2.92662 3.93443C1.73327 5.75594 2.70679 9.84636 6.53806 9.91027C10.3693 9.97418 10.3065 2.49639 10.3065 2.49639C10.3065 2.49639 9.92968 0.834657 8.98756 0.706832Z" fill="#F2C57E"/>
<path d="M8.1399 9.01549C8.1399 9.01549 6.94637 10.1022 7.00918 10.8373C7.00918 11.125 8.95312 11.1133 7.38609 12.1477C6.66369 12.3395 6.6951 13.554 7.26045 13.7777C7.82581 14.0015 5.09325 13.554 5.12466 12.6271C5.15606 11.7322 5.53297 10.1022 4.62211 9.49491C4.5593 9.49491 6.85214 10.1981 8.1399 9.01549Z" fill="#E65100"/>
<path d="M5.12108 12.5312C5.12108 12.5312 7.41697 13.7131 9.83507 12.3709C11.6251 11.3802 11.9575 10.2374 11.7691 10.0137C11.7691 10.0137 12.5113 9.96725 12.9196 10.6064C13.2336 11.0857 12.6614 12.6905 10.0235 13.8089C7.54259 14.8315 5.62517 14.3659 5.18552 13.9185C4.77727 13.4711 5.12108 12.5312 5.12108 12.5312Z" fill="#B71C1C"/>
<path d="M4.51311 4.0034C4.26168 4.0034 4.06055 3.79873 4.06055 3.54288V2.46833C4.06055 2.21249 4.26168 2.00781 4.51311 2.00781C4.76453 2.00781 4.96566 2.21249 4.96566 2.46833V3.54288C4.96566 3.79873 4.76453 4.0034 4.51311 4.0034Z" fill="#3E2723"/>
<path d="M5.69581 4.09706C5.69581 4.09706 2.76971 4.28641 1.98449 4.60611C1.19927 4.92581 1.23068 5.789 2.29858 6.68416C3.36648 7.57932 11.2004 4.09724 5.69581 4.09706Z" fill="#F2C57E"/>
<path d="M1.82703 6.17135C1.82703 6.17135 2.61212 7.03417 2.14107 7.99287C1.82703 8.63199 2.14106 9.84634 3.30301 9.49482C3.30301 9.49482 1.95264 9.55873 2.48651 8.02482C2.67493 7.44961 2.67493 6.58679 1.82703 6.17135ZM8.00391 0.00390625C8.00391 0.00390625 10.7457 1.44181 9.92922 6.49092C9.64659 9.23917 10.5742 8.99609 10.9961 8.99609C11.418 8.99609 11.6873 7.59757 12 6.99608C12.44 6.1497 14.689 5.2874 13.7578 3.8828C12.8889 2.57218 12.5025 2.93454 12 2.0078C11.5289 1.17694 11.399 0.99908 10.2324 0.99908C9.76134 0.99908 8.67838 0.00390436 8.00391 0.00390625Z" fill="#E65100"/>
<path d="M7.49159 4.0034C7.26356 4.0034 7.03552 3.81777 7.03552 3.53931V2.4719C7.03552 2.23986 7.21795 2.00781 7.49159 2.00781C7.71962 2.00781 7.94766 2.19345 7.94766 2.4719V3.58572C7.94766 3.81777 7.71962 4.0034 7.49159 4.0034Z" fill="#3E2723"/>
<path d="M3.27189 7.73722C3.27189 7.73722 3.96278 10.102 6.5379 9.52678C8.89319 8.98352 9.23863 6.93831 9.23863 6.93831C9.39565 7.41765 8.73617 10.1979 5.53297 9.94221C3.20909 9.75047 3.27189 7.73722 3.27189 7.73722Z" fill="#E65100"/>
<path d="M1.45024 4.98898C1.1048 5.3405 1.67007 6.39506 2.36096 6.71462C3.14605 7.06614 4.27659 5.69202 4.05676 5.30854C3.80553 4.79724 2.17253 4.25398 1.45024 4.98898Z" fill="#B71C1C"/>
<path d="M4.52795 0.674975C4.52795 0.674975 7.38616 -0.539559 9.45914 1.3142C9.45914 1.3142 9.35547 -0.00781309 7.80859 -0.00781134C5.57812 -0.0078088 5.0619 -0.0601379 4.52795 0.674975Z" fill="#E65100"/>
</g>
<defs>
<clipPath id="clip0_411_119">
<rect width="16" height="16" fill="white"/>
</clipPath>
</defs>
</svg>
