<svg xmlns="http://www.w3.org/2000/svg" viewBox="0 0 32 32"><path fill="#e65100" d="M8.454 3.084c-.897-.112-1.438.473-2.502 2.43-1.457 2.682-3.888 1.135-1.765 5.275a4.7 4.7 0 0 0 .759 1.122l5.749-9.219c-.84-.614-1.513.448-2.241.392"/><path fill="#ffcc80" d="m28.565 29.985-5.982-8.28a1.67 1.67 0 0 0-.57-1.362c-1.794-1.789-2.69-3.51-1.905-6.975a3.94 3.94 0 0 0-1.326-3.766 29 29 0 0 0 .206-3.22s-.673-2.907-2.354-3.13c0 0-4.426-2.236-7.956.279S7.95 5.71 5.82 8.897a4.5 4.5 0 0 0-.444.867 7 7 0 0 0-1.237.307c-1.4.56-1.344 2.07.56 3.635a1 1 0 0 0 .29.148 8.2 8.2 0 0 1-.29 2.198c-.595 1.674.853 3.91 3.024 1.789a7 7 0 0 0 1.648.942 8.1 8.1 0 0 1 .707 2.522l-.558 8.68Z"/><path fill="#3e2723" d="M8.651 9.017a.803.803 0 0 1-.807-.805v-1.88a.807.807 0 0 1 1.615 0v1.88a.803.803 0 0 1-.808.805m5.314 0a.814.814 0 0 1-.813-.811V6.339a.814.814 0 0 1 1.627 0v1.948a.8.8 0 0 1-.814.73"/><path fill="#e65100" d="M17.082 14.15a6.06 6.06 0 0 1-4.818 4.528 4.75 4.75 0 0 1-5.828-3.13 3.8 3.8 0 0 0 2.999 3.679c.84 1.302.355 3.547.307 4.874a5.4 5.4 0 0 1-.061.84l-1.08 5.044 5.421.015c-.724-.397-1.02-2.476-1.14-3.901l-.079-1.405a1.415 1.415 0 0 1 .974-1.432c2.796-1.81-.672-1.789-.672-2.292a3.6 3.6 0 0 1 1.068-2.195c2.535-1.273 3.114-4.013 2.91-4.624"/><path fill="#e65100" d="M20.518 17.614c.588-.523 1.012-2.457 1.492-3.362.785-1.48 4.797-2.989 3.136-5.446-1.55-2.292-2.24-1.658-3.136-3.28-.84-1.452-1.073-1.763-3.154-1.763a7.7 7.7 0 0 1-2.296-1.124A3.07 3.07 0 0 0 14.531 2c-3.98 0-4.9-.091-5.853 1.195 0 0 4.429-1.841 8.025.533 1.213 1.634 2.441 4.61 1.612 9.64a8.8 8.8 0 0 0 .093 3.228 1.5 1.5 0 0 0 .096.466s4.621 9.882 9.222 12.922H29s-5.867-7.368-8.482-12.371M5.035 16.05a2.496 2.496 0 0 0-1.176-3.24 3 3 0 0 1 .56 3.185c-.56 1.118 0 3.242 2.073 2.627 0 0-2.41.112-1.457-2.571"/><path fill="#b71c1c" d="M9.736 23.933a9.63 9.63 0 0 0 8.41-.28c3.195-1.733 3.788-3.732 3.451-4.123a2.42 2.42 0 0 1 2.053 1.036c.56.839-.46 3.645-5.167 5.602-4.427 1.788-7.848.974-8.632.191-.729-.782-.115-2.426-.115-2.426m-6.55-13.192c-.616.615.393 2.46 1.625 3.018 1.401.615 3.418-1.788 3.026-2.459-.448-.894-3.362-1.844-4.65-.559"/></svg>