<svg width="24" height="24" viewBox="0 0 24 24" fill="none" xmlns="http://www.w3.org/2000/svg">
<path d="M9.73743 19.6375L8.98743 22.6375C8.98743 22.6375 15.8124 22.825 18.6624 20.5C21.5124 18.175 20.7999 18.325 20.7999 18.325L17.7999 15.475L9.73743 19.6375Z" fill="#F2C57E"/>
<path d="M11.725 20.05C11.725 20.05 11.95 22.2625 12.7 22.675C12.7 22.675 9.0625 22.9375 9.1375 21.9625L9.6625 19.6L11.725 20.05V20.05Z" fill="#BD704B"/>
<path d="M9.17493 14.5375C9.17493 14.5375 9.84993 15.475 9.99993 16.8625C10.1499 18.25 8.49993 19.45 11.5374 20.0125C14.2374 20.5 20.1249 17.95 18.2124 16.0375C17.0124 14.8375 16.1874 13.8625 16.7124 11.5375C17.2749 9.21251 14.0499 7.78751 14.0499 7.78751L9.17493 14.5375V14.5375Z" fill="#F2C57E"/>
<path d="M16.3375 13.7875C16.3375 13.7875 17.35 16.45 20.65 18.4375L20.9125 17.8375C20.9125 17.8375 18.1375 16.975 16.6375 13.675C15.1375 10.375 16.2625 13.7875 16.3375 13.7875V13.7875ZM10.4125 4.375C10.4125 4.375 8.5 5.2 9.3625 11.125C9.625 14.35 8.275 14.0875 8.0125 13.7875C7.7125 13.525 8.9125 11.875 8.2375 11.3125C7.5625 10.75 6.7375 11.275 5.9125 9.6625C4.8625 7.5625 6.1 8.425 7.075 6.625C7.7875 5.3125 8.3125 4.5625 8.9125 4.6375C9.4 4.675 9.85 3.9625 10.4125 4.375V4.375Z" fill="#BD704B"/>
<path d="M6.58752 11.1625C6.58752 11.1625 6.66252 12.55 6.40002 13.3375C5.98752 14.5 7.03752 16.075 8.57502 14.3875C10.1125 12.7 6.58752 11.1625 6.58752 11.1625V11.1625Z" fill="#F2C57E"/>
<path d="M14.3875 4.75C14.3875 4.75 11.425 3.25 9.06254 4.9375C6.70004 6.625 8.57504 6.40001 7.15004 8.53751C5.72504 10.675 6.88754 15.475 11.4625 15.55C16.0375 15.625 15.9625 6.85001 15.9625 6.85001C15.9625 6.85001 15.5125 4.9 14.3875 4.75V4.75Z" fill="#F2C57E"/>
<path d="M13.3751 14.5C13.3751 14.5 11.9501 15.775 12.0251 16.6375C12.0626 17.5 15.5876 17.3125 12.4751 18.175C11.6126 18.4 11.6501 19.825 12.3251 20.0875C13.0001 20.35 9.73759 19.825 9.77509 18.7375C9.81259 17.6875 10.2626 15.775 9.17509 15.0625C9.10009 15.0625 11.8376 15.8875 13.3751 14.5Z" fill="#BD704B"/>
<path d="M9.70012 18.6625C9.70012 18.6625 12.5126 20.0125 15.4001 18.4375C17.5376 17.275 18.2126 16 17.9876 15.7375C17.9876 15.7375 18.5126 15.775 19.0001 16.525C19.3751 17.0875 18.7751 18.8125 15.6251 20.125C12.6626 21.325 10.0001 20.575 9.47512 20.05C8.98762 19.525 9.70012 18.6625 9.70012 18.6625V18.6625Z" fill="#AD4646"/>
<path d="M8.57505 8.0875C8.38755 8.0875 8.23755 7.9375 8.23755 7.75V6.9625C8.23755 6.775 8.38755 6.625 8.57505 6.625C8.76255 6.625 8.91255 6.775 8.91255 6.9625V7.75C8.91255 7.9375 8.76255 8.0875 8.57505 8.0875Z" fill="#3F2418"/>
<path d="M9.43753 7.18748C9.43753 7.18748 6.96253 8.94999 6.02503 9.32499C5.08753 9.69999 5.12503 10.7125 6.40003 11.7625C7.67503 12.8125 11.4625 10.0375 9.43753 7.18748Z" fill="#F2C57E"/>
<path d="M5.8374 11.1625C5.8374 11.1625 6.7749 12.175 6.2124 13.3C5.8374 14.05 6.2124 15.475 7.5999 15.0625C7.5999 15.0625 5.9874 15.1375 6.6249 13.3375C6.8499 12.6625 6.8499 11.65 5.8374 11.1625V11.1625ZM13.7874 4.52501C13.7874 4.52501 16.4874 5.61251 15.5124 11.5375C15.1749 14.7625 16.7499 14.5 17.1249 14.2C17.4624 13.9375 17.4999 12.8875 18.2874 12.3625C19.0374 11.8 20.9124 10.15 19.9749 8.50001C19.0374 6.85001 18.0624 7.18751 17.4624 6.10001C16.8999 5.12501 16.5249 4.97501 15.8499 4.97501C15.2874 4.97501 14.4999 4.15001 13.7874 4.52501V4.52501Z" fill="#BD704B"/>
<path d="M13.0375 8.425C12.85 8.425 12.6625 8.275 12.6625 8.05V7.1875C12.6625 7 12.8125 6.8125 13.0375 6.8125C13.225 6.8125 13.4125 6.9625 13.4125 7.1875V8.0875C13.4125 8.275 13.225 8.425 13.0375 8.425V8.425Z" fill="#3F2418"/>
<path d="M12.4375 6.58749C12.4375 6.58749 11.6125 6.13749 12.2875 5.76249C13.15 5.27499 14.125 6.06249 14.275 6.51249C14.275 6.51249 13.2625 5.57499 12.4375 6.02499C11.9875 6.24999 12.4375 6.58749 12.4375 6.58749V6.58749ZM8.87495 5.87499C8.84548 5.80799 8.79196 5.75446 8.72495 5.72499C8.61245 5.64999 8.42495 5.64999 8.27495 5.68749C8.12495 5.72499 8.01245 5.83749 7.89995 5.91249C7.97495 5.72499 8.08745 5.57499 8.27495 5.49999C8.34995 5.46249 8.46245 5.46249 8.53745 5.46249C8.72495 5.46249 8.91245 5.53749 9.06245 5.64999C9.21245 5.76249 9.28745 5.94999 9.28745 6.13749C9.24995 6.28749 9.17495 6.43749 9.02495 6.47499C8.98745 6.47499 8.94995 6.51249 8.94995 6.47499C8.94995 6.43749 8.98745 6.39999 8.98745 6.36249C9.02495 6.28749 9.02495 6.21249 8.98745 6.09999C8.98745 6.06249 8.94995 5.94999 8.87495 5.87499V5.87499ZM7.56245 13C7.56245 13 8.38745 15.775 11.4625 15.1C14.275 14.4625 14.6875 12.0625 14.6875 12.0625C14.875 12.625 14.0875 15.8875 10.2625 15.5875C7.48745 15.3625 7.56245 13 7.56245 13V13Z" fill="#BD704B"/>
<path d="M8.16248 14.35C8.16248 14.35 8.04998 15.4375 6.47498 14.875C6.47498 14.875 7.26248 15.775 8.23748 14.8C8.68748 14.3125 8.16248 14.35 8.16248 14.35V14.35ZM5.68748 10.3375C5.49998 10.225 5.49998 9.92498 5.61248 9.73748C5.76248 9.54998 6.06248 9.39998 6.28748 9.28748C7.44998 8.76248 8.68748 8.04998 9.54998 7.03748C9.54998 7.03748 6.92498 8.87498 5.53748 9.36248C4.86248 9.62498 5.68748 10.3375 5.68748 10.3375Z" fill="#BD704B"/>
<path d="M5.38751 9.775C4.97501 10.1875 5.65001 11.425 6.47501 11.8C7.41251 12.2125 8.76251 10.6 8.50001 10.15C8.20001 9.55 6.25001 8.9125 5.38751 9.775V9.775Z" fill="#AD4646"/>
<path d="M12.25 23.5C6.0625 23.5 1 18.4375 1 12.25C1 6.0625 6.0625 1 12.25 1C18.4375 1 23.5 6.0625 23.5 12.25C23.5 18.4375 18.475 23.5 12.25 23.5V23.5ZM12.25 2.5C6.8875 2.5 2.5 6.8875 2.5 12.25C2.5 17.6125 6.8875 22 12.25 22C17.6125 22 22 17.6125 22 12.25C22 6.8875 17.65 2.5 12.25 2.5V2.5Z" fill="#AD4646"/>
<path d="M9.0625 4.71251C9.0625 4.71251 12.475 3.28751 14.95 5.46251C14.95 5.46251 14.875 4.45001 12.9625 4.03751C11.95 3.81251 9.7 3.85001 9.0625 4.71251V4.71251Z" fill="#BD704B"/>
</svg>
