<svg width="24" height="24" viewBox="0 0 24 24" fill="none" xmlns="http://www.w3.org/2000/svg">
<g clip-path="url(#clip0_411_119)">
<path d="M7.6398 20.0903L6.67167 24.2943C6.67167 24.2943 11.0909 24.2943 15.5968 24.2943C20.4365 24.2943 23.5109 24.2943 23.5109 24.2943L17.4446 15.4215L7.6398 20.0903Z" fill="#F2C57E"/>
<path d="M10.1369 20.6175C10.1369 20.6175 10.3429 23.4727 11.285 24C11.285 24 6.37171 25.7464 6.72686 23.7363L7.54608 20.0423L10.1369 20.6175Z" fill="#E65100"/>
<path d="M6.93298 13.5711C6.93298 13.5711 7.78089 14.7695 7.96931 16.5431C8.15773 18.3167 6.91319 20.0207 9.90065 20.5696C13.2923 21.1927 20.4048 18.1625 18.0024 15.7178C16.495 14.1839 15.7418 12.7083 16.4013 9.73637C17.1078 6.76443 13.0567 4.94292 13.0567 4.94292L6.93298 13.5711Z" fill="#F2C57E"/>
<path d="M15.0529 12.905C15.0529 12.905 18.9379 21.4957 22.8057 24.1026H23.8769C23.8769 24.1026 18.1915 16.6869 16.3073 12.4687C14.4231 8.25043 14.9587 12.905 15.0529 12.905ZM8.48776 0.580891C8.48776 0.580891 6.08536 1.63545 7.1688 9.20912C7.49854 13.3315 5.80273 12.9959 5.47298 12.6125C5.09614 12.2769 6.60353 10.1678 5.75562 9.44879C4.90772 8.72977 4.05275 9.58546 3.01642 7.52427C1.23146 3.97409 3.27532 5.30085 4.50007 2.99999C5.39508 1.32228 5.84983 0.820564 6.60353 0.916433C7.2159 0.964368 7.78117 0.0536107 8.48776 0.580891Z" fill="#E65100"/>
<path d="M3.68325 9.25705C3.68325 9.25705 3.77748 11.0309 3.44768 12.0377C2.92944 13.5239 4.24861 15.5375 6.18025 13.3801C8.11189 11.2227 3.68325 9.25705 3.68325 9.25705Z" fill="#F2C57E"/>
<path d="M13.4812 1.06023C13.4812 1.06023 9.75987 -0.857151 6.7922 1.2999C3.82454 3.45696 6.17983 3.16935 4.38981 5.90163C2.59979 8.6339 4.06007 14.7695 9.80697 14.8654C15.5539 14.9613 15.4597 3.74457 15.4597 3.74457C15.4597 3.74457 14.8944 1.25197 13.4812 1.06023Z" fill="#F2C57E"/>
<path d="M12.21 13.5232C12.21 13.5232 10.4197 15.1533 10.5139 16.2559C10.5139 16.6875 13.4298 16.6699 11.0793 18.2216C9.99565 18.5092 10.0428 20.331 10.8908 20.6666C11.7388 21.0022 7.63999 20.331 7.6871 18.9407C7.73422 17.5983 8.29958 15.1533 6.93329 14.2424C6.83907 14.2424 10.2783 15.2971 12.21 13.5232Z" fill="#E65100"/>
<path d="M7.68156 18.7969C7.68156 18.7969 11.1254 20.5696 14.7525 18.5563C17.4376 17.0704 17.9362 15.3561 17.6536 15.0205C17.6536 15.0205 18.767 14.9509 19.3793 15.9096C19.8504 16.6286 18.9921 19.0357 15.0352 20.7134C11.3138 22.2473 8.4377 21.5488 7.77822 20.8777C7.16584 20.2066 7.68156 18.7969 7.68156 18.7969Z" fill="#B71C1C"/>
<path d="M6.76978 6.0051C6.39265 6.0051 6.09094 5.69809 6.09094 5.31432V3.7025C6.09094 3.31873 6.39265 3.01172 6.76978 3.01172C7.14691 3.01172 7.44862 3.31873 7.44862 3.7025V5.31432C7.44862 5.69809 7.14691 6.0051 6.76978 6.0051Z" fill="#3E2723"/>
<path d="M8.54366 6.14558C8.54366 6.14558 4.1545 6.42961 2.97667 6.90916C1.79884 7.38871 1.84596 8.68349 3.4478 10.0262C5.04965 11.369 16.8005 6.14585 8.54366 6.14558Z" fill="#F2C57E"/>
<path d="M2.7406 9.25703C2.7406 9.25703 3.91825 10.5513 3.21166 11.9893C2.7406 12.948 3.21166 14.7695 4.95457 14.2422C4.95457 14.2422 2.92902 14.3381 3.72982 12.0372C4.01246 11.1744 4.01246 9.88018 2.7406 9.25703ZM12.0059 0.00585938C12.0059 0.00585938 16.1186 2.16271 14.8939 9.73637C14.4699 13.8587 15.8614 13.4941 16.4942 13.4941C17.127 13.4941 17.5311 11.3964 18.0001 10.4941C18.66 9.22455 22.0336 7.9311 20.6368 5.82421C19.3334 3.85826 18.7538 4.40181 18.0001 3.01171C17.2935 1.76541 17.0986 1.49862 15.3487 1.49862C14.6421 1.49862 13.0176 0.00585654 12.0059 0.00585938Z" fill="#E65100"/>
<path d="M11.2373 6.0051C10.8953 6.0051 10.5532 5.72665 10.5532 5.30897V3.70786C10.5532 3.35979 10.8269 3.01172 11.2373 3.01172C11.5794 3.01172 11.9214 3.29017 11.9214 3.70786V5.37858C11.9214 5.72665 11.5794 6.0051 11.2373 6.0051Z" fill="#3E2723"/>
<path d="M4.90772 11.6058C4.90772 11.6058 5.94405 15.153 9.80672 14.2902C13.3397 13.4753 13.8578 10.4075 13.8578 10.4075C14.0933 11.1265 13.1041 15.2968 8.29934 14.9133C4.81351 14.6257 4.90772 11.6058 4.90772 11.6058Z" fill="#E65100"/>
<path d="M2.1753 7.48347C1.65714 8.01075 2.50505 9.59259 3.54137 10.0719C4.71902 10.5992 6.41483 8.53803 6.08509 7.96282C5.70824 7.19587 3.25874 6.38098 2.1753 7.48347Z" fill="#B71C1C"/>
<path d="M6.79187 1.01246C6.79187 1.01246 11.0792 -0.809346 14.1886 1.9713C14.1886 1.9713 14.0331 -0.0117273 11.7128 -0.0117246C8.36713 -0.0117208 7.5928 -0.0902144 6.79187 1.01246Z" fill="#E65100"/>
</g>
<defs>
<clipPath id="clip0_411_119">
<rect width="24" height="24" fill="white"/>
</clipPath>
</defs>
</svg>
