<svg xmlns="http://www.w3.org/2000/svg" viewBox="0 0 32 32"><path d="M8.45359,3.0837c-.89652-.11183-1.43743.47318-2.502,2.42951C4.49473,8.1961,2.06364,6.649,4.18682,10.78868a4.67325,4.67325,0,0,0,.75882,1.12188l5.74923-9.21817C9.85438,2.07759,9.182,3.13958,8.45359,3.0837Z" style="fill:#e65100"/><path d="M28.56462,29.985,22.583,21.70541a1.6661,1.6661,0,0,0-.57064-1.36277c-1.793-1.78856-2.68892-3.50917-1.90445-6.97457a3.93832,3.93832,0,0,0-1.32548-3.76564,28.98,28.98,0,0,0,.20544-3.221s-.67241-2.90649-2.3534-3.13c0,0-4.42642-2.23575-7.95643.27943C5.148,6.046,7.9496,5.71065,5.82043,8.89662a4.52818,4.52818,0,0,0-.4448.86695,7.06775,7.06775,0,0,0-1.23613.30788c-1.401.55918-1.34492,2.0689.5604,3.63455a.94675.94675,0,0,0,.2894.14754,8.18266,8.18266,0,0,1-.28951,2.198c-.59574,1.67476.85193,3.91019,3.02346,1.789a6.88863,6.88863,0,0,0,1.64783.94269,8.12893,8.12893,0,0,1,.70709,2.5218l-.55823,8.68Z" style="fill:#ffcc80"/><path d="M8.65136,9.01726a.80312.80312,0,0,1-.80747-.80548V6.33234a.80747.80747,0,0,1,1.61494,0V8.21178A.80312.80312,0,0,1,8.65136,9.01726Z" style="fill:#3e2723"/><path d="M13.9654,9.01726a.81449.81449,0,0,1-.81373-.81171v-1.867a.81373.81373,0,0,1,1.62746,0V8.28671A.802.802,0,0,1,13.9654,9.01726Z" style="fill:#3e2723"/><path d="M17.08243,14.15063a6.05784,6.05784,0,0,1-4.81868,4.5274,4.75066,4.75066,0,0,1-5.82727-3.13014,3.803,3.803,0,0,0,2.99819,3.679c.84,1.30208.35535,3.5475.30781,4.87376a5.37231,5.37231,0,0,1-.06145.83957L8.60033,29.985,14.02216,30c-.72392-.39718-1.02023-2.47622-1.14013-3.90144L12.803,24.69448a1.4147,1.4147,0,0,1,.97449-1.43232c2.79586-1.80933-.67251-1.78878-.67251-2.29207a3.61385,3.61385,0,0,1,1.0676-2.19508C16.70754,17.50186,17.28656,14.76154,17.08243,14.15063Z" style="fill:#e65100"/><path d="M20.5178,17.61363c.58839-.52272,1.01174-2.45657,1.49183-3.362.78495-1.48036,4.79777-2.98858,3.13633-5.44526C23.5956,6.514,22.90615,7.14777,22.00963,5.52687c-.8405-1.45324-1.07229-1.76432-3.15381-1.76432a7.68361,7.68361,0,0,1-2.29541-1.12391A3.07133,3.07133,0,0,0,14.531,2.00142c-3.97961,0-4.90069-.09154-5.85335,1.19421,0,0,4.42915-1.84092,8.0258.53323,1.21217,1.63452,2.4409,4.61056,1.6114,9.63921a8.7861,8.7861,0,0,0,.09349,3.22857,1.49579,1.49579,0,0,0,.09567.4662s4.62114,9.88234,9.2218,12.92211H29S23.13293,22.617,20.5178,17.61363Z" style="fill:#e65100"/><path d="M5.03537,16.05091A2.496,2.496,0,0,0,3.8587,12.80916a3.00235,3.00235,0,0,1,.56035,3.18592c-.56035,1.11788,0,3.2418,2.07314,2.62695C6.49219,18.622,4.08282,18.73386,5.03537,16.05091Z" style="fill:#e65100"/><path d="M9.73591,23.933a9.63213,9.63213,0,0,0,8.41076-.28055c3.19388-1.73261,3.787-3.73156,3.45081-4.12288a2.42444,2.42444,0,0,1,2.05269,1.03673c.56037.83838-.46057,3.64516-5.16723,5.60142-4.42655,1.78859-7.84762.97411-8.63206.19158C9.12247,25.57678,9.73591,23.933,9.73591,23.933Z" style="fill:#b71c1c"/><path d="M3.1863,10.7411c-.61634.61483.39223,2.45932,1.62492,3.01821C6.212,14.37417,8.22915,11.97076,7.83693,11.3,7.38868,10.40575,4.475,9.45555,3.1863,10.7411Z" style="fill:#b71c1c"/></svg>