<svg width="18" height="20" viewBox="0 0 18 20" fill="none" xmlns="http://www.w3.org/2000/svg">
<path d="M17.5438 4.85187L8.74781 0L0 4.87709L0.0143712 15.1058L8.74861 20L17.5582 15.0826L17.5438 4.85187ZM13.177 11.9804L13.1713 7.92618L9.19845 10.2003L9.21744 14.7497L12.6834 12.8222L16.0824 14.7888L9.23355 18.6117L9.21744 14.7497L8.74821 15.0106L8.24146 14.7256L8.25765 18.6062L1.4855 14.8115L4.87983 12.8348L8.24146 14.7256L8.22241 10.1589L4.38114 7.99883L4.38676 11.9927L0.988647 13.9716L0.977561 6.08488L4.38114 7.99883L4.87433 7.15658L1.40981 5.20837L8.26114 1.38862V5.26128L4.87433 7.15658L8.74693 9.33428L12.6202 7.11717L9.237 5.25789V1.38433L16.0603 5.14805L12.6202 7.11717L13.1713 7.92618L16.5696 5.98103L16.5807 13.9497L13.177 11.9804Z" fill="#14AFFF"/>
</svg>
