<svg xmlns="http://www.w3.org/2000/svg" viewBox="0 0 256 256">
  <path fill="#00C853" fill-rule="evenodd" clip-rule="evenodd" d="M128,21.5C69.2,21.5,21.5,69.2,21.5,128S69.2,234.5,128,234.5S234.5,186.8,234.5,128S186.8,21.5,128,21.5z M191,119c-4.7,7.7-12.6,13.7-22,16.4c-0.2,0.1-0.5,0.1-0.7,0.2c-1.5,0.4-2.9,0.7-4.4,0.7c-6.5,0-10.2-4.4-8.2-9.8 c1.4-4,5.2-7.3,9.9-8.9c7.2-2.6,12.2-8.6,12.2-15.5c0-9.4-9.1-16.9-20.3-16.9c-11.2,0-20.3,7.6-20.3,16.9v52 c0,12.5-7.2,23.5-18.1,29.7c-5.9,3.4-12.9,5.4-20.3,5.4c-21.2,0-38.4-15.7-38.4-35c0-6.1,1.8-11.9,4.8-16.9 c4.7-7.8,12.6-13.7,22.1-16.5c0,0,0,0,0,0c1.6-0.5,3.2-0.8,4.9-0.8c6.5,0,10.2,4.4,8.3,9.9c-1.3,3.7-5,6.9-9.2,8.6 c-0.5,0.2-1,0.4-1.5,0.6c-6.7,2.8-11.3,8.5-11.3,15.2c0,9.4,9.1,16.9,20.3,16.9c11.2,0,20.3-7.6,20.3-16.9v-52 c0-12.5,7.2-23.5,18.1-29.7c5.9-3.4,12.9-5.4,20.3-5.4c21.2,0,38.4,15.7,38.4,35C195.8,108.2,194,113.9,191,119z" />
</svg>
