<svg xmlns="http://www.w3.org/2000/svg" version="1.1" viewBox="0 0 24 24"><path d="m6 1 0 1-1 0 0 2 1 0 0 9-1 0 0-2-2 0 0 2-1 0 0 2 1 0 0 4 1 0c.33 0 .67-.03 1-.08l0-3.92 1 0 0 3.65c.65.2 1.33-.86 2-.86l0-2.79 1 0 0-2 0-9 5.09 0 2.91 0 1 0 1.81 0 .19 0 0-1c0-.55-.45-1-1-1l-10 0 0-1-3 0zm2 3.29 0 1.42-1 1 0-1.42 1-1zm0 3 0 1.42-1 1 0-1.42 1-1zm6.2.71 0 1.8-1.8 0c-.66 0-1.2.54-1.2 1.2l0 2.77-.77.25c-.16.05-.29.16-.36.3-.07.15-.09.32-.04.47l1.13 4.01.04 0 2.21 0c.9-.19 1.78-.56 2.59-1.13.76.53 1.58.92 2.43 1.13l2.37 0 .03 0 1.14-4.01c.05-.15.03-.32-.03-.47-.08-.14-.21-.25-.36-.3l-.78-.25 0-2.77c0-.67-.54-1.2-1.2-1.2l-1.8 0 0-1.8-3.6 0 0 0zm-6.2 2.24 0 .76-.76 0 .76-.76zm5.2 1.56 5.6 0 0 1.32-2.8-.92-2.8.92 0-1.32zm-5.2 6.87c-1.22.86-2.61 1.33-4 1.33l-2 0 0 2 2 0c1.37 0 2.74-.35 4-1 2.5 1.3 5.5 1.3 8 0 1.26.65 2.62 1 4 1l2 0 0-2-2 0c-1.39 0-2.78-.47-4-1.33-2.44 1.71-5.56 1.71-8 0z" fill="#1e88e5"/></svg>