<?xml version="1.0" encoding="UTF-8" standalone="no"?>
<svg
   viewBox="0 0 100 111"
   version="1.1"
   id="svg12"
   sodipodi:docname="werf.svg"
   inkscape:version="1.2.2 (732a01da63, 2022-12-09)"
   xmlns:inkscape="http://www.inkscape.org/namespaces/inkscape"
   xmlns:sodipodi="http://sodipodi.sourceforge.net/DTD/sodipodi-0.dtd"
   xmlns="http://www.w3.org/2000/svg"
   xmlns:svg="http://www.w3.org/2000/svg">
  <defs
     id="defs16" />
  <sodipodi:namedview
     id="namedview14"
     pagecolor="#ffffff"
     bordercolor="#000000"
     borderopacity="0.25"
     inkscape:showpageshadow="2"
     inkscape:pageopacity="0.0"
     inkscape:pagecheckerboard="0"
     inkscape:deskcolor="#d1d1d1"
     showgrid="false"
     inkscape:zoom="5.3319674"
     inkscape:cx="42.104534"
     inkscape:cy="58.514987"
     inkscape:window-width="1920"
     inkscape:window-height="1017"
     inkscape:window-x="1912"
     inkscape:window-y="-8"
     inkscape:window-maximized="1"
     inkscape:current-layer="svg12" />
  <path
     fill="#0066ff"
     fill-rule="evenodd"
     d="m 81.656339,60.58455 4.28645,12.572284 7.479605,-12.572284 z M 80.8757,33.398718 V 56.648534 H 93.567628 Z M 76.863582,46.525371 V 27.746141 H 70.461137 Z M 62.900846,5.5773424 69.117713,23.808144 h 6.523474 L 65.053149,4.4131687 63.45153,5.2783794 62.900846,5.5753625 Z M 54.160521,106.83471 h 9.516929 l -3.590533,-6.49403 -1.19012,1.26713 a 92.198029,90.494706 0 0 1 -4.736276,5.2269 z m -4.659625,-5.92183 0.161373,-37.87525 a 62.898877,61.736844 0 0 0 -4.229972,2.676808 c 0.163391,4.676493 0.927891,20.602706 4.068599,35.198442 z M 38.642559,70.913622 c 0.145236,2.995569 1.052955,13.750317 6.69695,25.457391 C 43.3042,84.905485 42.563906,73.548852 42.30571,67.967549 a 80.48442,78.997501 0 0 0 -3.663151,2.946073 z m -3.473537,35.921088 h 9.904223 l -0.756433,-0.87115 a 90.22727,88.560357 0 0 1 -5.301079,-6.080228 l -3.846711,6.949408 z M 32.002091,77.417551 c 0.357036,2.11254 3.142724,10.077626 10.065596,19.561287 C 37.508919,87.273431 36.06262,78.391656 35.608761,73.655766 a 60.583184,59.463934 0 0 0 -3.608688,3.761785 z m 5.004557,-19.529607 v 9.008486 a 60.875672,59.751017 0 0 1 5.036832,-3.83702 c 4.439755,-3.227217 6.247125,-3.890479 7.386816,-3.961755 h -0.0061 V 57.887944 Z M 5.424078,60.58455 13.420074,74.022044 18.922868,60.58455 Z M 19.887068,39.247306 6.041327,56.646554 H 19.885051 V 39.247306 Z m 4.014135,-5.042774 v 14.22945 l 9.7368,-23.780426 -1.301065,-1.051319 -8.437752,10.602295 z m 64.690108,42.314151 h 8.062563 l 2.007071,1.969987 v 30.31208 l -2.007071,1.97196 H 2.1925985 L 0.18754804,108.8047 V 78.49065 L 2.1925985,76.520663 H 10.257178 L 0.19561666,59.612425 0.344886,57.406831 30.440815,19.589005 l 2.733242,-0.296984 0.05043,-0.06732 13.520979,9.954873 -2.408481,3.151981 -7.310162,-5.385289 -21.044961,51.385994 15.749933,26.46119 4.661642,-8.422437 C 28.496278,85.111393 27.921389,77.358155 27.89315,76.920599 l 0.469996,-1.38592 a 81.5051,79.999324 0 0 1 4.629367,-4.963578 V 55.919936 l 2.009085,-1.969988 h 28.845293 l 2.007068,1.969988 v 14.193811 a 80.615534,79.126194 0 0 1 5.099363,5.422912 l 0.46798,1.38394 c -0.0242,0.443496 -0.615232,8.363045 -8.760497,19.822632 L 67.118714,104.79345 83.251907,77.680876 59.330485,7.5097124 52.768685,11.06361 50.832217,7.6146463 64.88976,5.1039401e-8 67.629054,0.79591471 98.687166,57.687975"
     id="path10"
     style="stroke-width:0.999221" />
</svg>
