<svg xmlns="http://www.w3.org/2000/svg" version="1.1" viewBox="0 0 24 24"><path d="m6 1v1h-1v2h1v9h-1v-2h-2v2h-1v2h1v4h1c.33 0 .67-.03 1-.08v-3.92h1v3.65c.65.2 1.33-.865 2-.865v-2.785h1v-2-9h5.09 2.91 1 1.807.193v-1c0-.552-.448-1-1-1h-10v-1h-3zm2 3.289v1.422l-1 1v-1.422l1-1zm0 3v1.422l-1 1v-1.422l1-1zm6.201.711v1.801h-1.801c-.663 0-1.199.536-1.199 1.199v2.772l-.773.252c-.156.048-.283.157-.361.301-.066.144-.083.311-.035.461l1.133 4.016h.037 2.205c.906-.192 1.787-.566 2.594-1.131.756.533 1.578.916 2.424 1.131h2.377.029l1.141-4.016c.048-.15.031-.317-.035-.461-.078-.144-.205-.253-.361-.301l-.773-.252v-2.772c0-.666-.539-1.199-1.199-1.199h-1.801v-1.801h-3.6zm-6.201 2.24v.76h-.76l.76-.76zm4.4.76h7.201v2.377l-3.602-1.178-3.6 1.178v-2.377zm-4.4 7.67c-1.22.86-2.61 1.33-4 1.33h-2v2h2c1.37 0 2.74-.35 4-1 2.5 1.3 5.5 1.3 8 0 1.26.65 2.62 1 4 1h2v-2h-2c-1.39 0-2.78-.47-4-1.33-2.44 1.71-5.56 1.71-8 0z" fill="#1e88e5"/></svg>