<svg viewBox="0 0 100 111" xmlns="http://www.w3.org/2000/svg"><path fill="#2962ff" fill-rule="evenodd" d="M77.703 59.781l3.7 10.85 6.454-10.85zm-.673-23.46v20.064h10.952zM73.567 47.65V31.443h-5.525zM61.518 12.313l5.365 15.732h5.63l-9.137-16.737-1.383.747-.475.256zm-7.542 87.38h8.212l-3.098-5.604-1.027 1.093a79.562 78.092 0 01-4.087 4.51zm-4.021-5.11l.14-32.685a54.278 53.276 0 00-3.651 2.31c.14 4.036.8 17.78 3.51 30.375zm-9.37-25.888c.125 2.585.908 11.865 5.779 21.968-1.757-9.894-2.395-19.694-2.618-24.51a69.454 68.17 0 00-3.161 2.542zm-2.998 30.998h8.547l-.653-.752a77.861 76.423 0 01-4.574-5.247l-3.32 5.997zm-2.733-25.386c.308 1.823 2.712 8.697 8.686 16.88-3.934-8.375-5.182-16.04-5.573-20.126a52.28 51.314 0 00-3.114 3.246zm4.319-16.853v7.774a52.533 51.562 0 014.346-3.311c3.832-2.785 5.391-3.357 6.375-3.419h-.006v-1.044zm-27.254 2.327l6.9 11.596 4.749-11.596zm12.48-18.413L12.453 56.383h11.946V41.368zm3.465-4.351v12.279l8.402-20.521-1.123-.908-7.281 9.15zm55.824 36.515h6.957l1.732 1.7v26.157l-1.732 1.702H9.13l-1.73-1.698v-26.16l1.73-1.7h6.96l-8.683-14.59.129-1.904 25.971-32.635 2.359-.256.043-.058 11.668 8.59L45.5 35.4l-6.309-4.647-18.16 44.344L34.62 97.93l4.023-7.268c-6.815-9.716-7.311-16.407-7.336-16.785l.406-1.196a70.335 69.035 0 013.995-4.283V55.756l1.734-1.7h24.892l1.732 1.7v12.248a69.567 68.282 0 014.4 4.68l.404 1.194c-.021.383-.53 7.217-7.56 17.106l3.847 6.947L79.08 74.535 58.437 13.98l-5.662 3.067-1.671-2.976L63.234 7.5l2.364.687L92.4 57.282"/></svg>