<svg width="24" height="24" version="1.1" viewBox="0 0 333 333" xmlns="http://www.w3.org/2000/svg">
 <path d="m51.536 139.45a13.525 13.525 0 0 1 0-27.05h108.2a27.05 27.05 0 0 0 0-54.1c-7.4386 0-14.202 2.975-19.071 7.9796a13.148 13.148 0 0 1-9.6026 4.1623 13.157 13.157 0 0 1-9.6026-4.1623c-5.2745-5.2745-5.2745-13.931 0-19.206 9.8736-9.7381 23.399-15.824 38.276-15.824a54.098 54.098 0 0 1 54.1 54.1 54.1 54.1 0 0 1-54.1 54.1zm202.88 27.05a13.525 13.525 0 0 0 0-27.05c-3.787 0-7.1685 1.4875-9.6026 3.9216a13.466 13.466 0 0 1-9.5353 3.9557c-1.7712 0-3.5258-0.34898-5.1615-1.0284a13.455 13.455 0 0 1-4.3738-2.9273c-5.139-5.2745-5.139-13.795 0-19.07 7.304-7.304 17.448-11.902 28.673-11.902a40.573 40.573 0 0 1 28.691 69.266 40.574 40.574 0 0 1-28.691 11.885h-189.35a13.525 13.525 0 0 1 0-27.05zm-13.525 81.15h-189.35a13.525 13.525 0 0 1 0-27.05h189.35a40.573 40.573 0 0 1 28.691 69.266 40.574 40.574 0 0 1-28.691 11.885c-11.226 0-21.369-4.599-28.673-11.902-5.139-5.2755-5.139-13.796 0-19.071a13.47 13.47 0 0 1 19.071 0c2.434 2.434 5.8155 3.9225 9.6026 3.9225a13.525 13.525 0 0 0 0-27.05z" fill="#0EA5E9" style="fill:#03a9f4;stroke-width:.97478"/>
</svg>
