<svg width="220" height="220" fill="none" xmlns="http://www.w3.org/2000/svg">
  <path d="M115.85 48.404C115.85 29.984 100.865 15 82.445 15c-19.412 0-31.018 14.555-31.018 28.632h19.088c0-3.96 3.703-9.544 11.93-9.544 7.893 0 14.316 6.423 14.316 14.316 0 7.893-5.761 14.316-20.29 14.316H24.5V81.81h51.971c24.521 0 39.379-14.984 39.379-33.405zm0 0C115.85 29.984 100.865 15 82.445 15c-19.412 0-31.018 14.555-31.018 28.632h19.088c0-3.96 3.703-9.544 11.93-9.544 7.893 0 14.316 6.423 14.316 14.316 0 7.893-5.761 14.316-20.29 14.316H24.5V81.81h51.971c24.521 0 39.379-14.984 39.379-33.405z" fill="url(#a)" />
  <path d="M158.197 171.596c0 18.42-14.985 33.404-33.405 33.404-19.412 0-31.018-14.555-31.018-28.632h19.088c0 3.96 3.703 9.544 11.93 9.544 7.893 0 14.316-6.423 14.316-14.316 0-7.893-7.258-14.317-20.29-14.317H61.147v-19.088h57.671c24.521 0 39.379 14.984 39.379 33.405zm0 0c0 18.42-14.985 33.404-33.405 33.404-19.412 0-31.018-14.555-31.018-28.632h19.088c0 3.96 3.703 9.544 11.93 9.544 7.893 0 14.316-6.423 14.316-14.316 0-7.893-7.258-14.317-20.29-14.317H61.147v-19.088h57.671c24.521 0 39.379 14.984 39.379 33.405z" fill="url(#b)" />
  <path d="M163.2 44.45c-21.054 0-35.906 16.011-35.906 37.065H144.2c0-10.465 7.6-18.065 19-18.065s17.1 7.6 17.1 18.065c0 10.466-7.403 19.089-27.55 19.089H24.5v19.088h131.1c29.835 0 43.7-19.177 43.7-38.177 0-21.054-14.25-37.065-36.1-37.065z" fill="url(#c)" />
  <path d="M49.523 138.191H24.5v19.249h25.023v-19.249z" fill="url(#d)" />
  <defs>
    <linearGradient id="a" x1="39.7" y1="31.15" x2="149.9" y2="205" gradientUnits="userSpaceOnUse">
      <stop offset=".078" stop-color="#54C8F1" />
      <stop offset=".573" stop-color="#41A2EF" />
      <stop offset="1" stop-color="#3386EE" />
    </linearGradient>
    <linearGradient id="b" x1="39.7" y1="31.15" x2="149.9" y2="205" gradientUnits="userSpaceOnUse">
      <stop offset=".078" stop-color="#54C8F1" />
      <stop offset=".573" stop-color="#41A2EF" />
      <stop offset="1" stop-color="#3386EE" />
    </linearGradient>
    <linearGradient id="c" x1="39.7" y1="31.15" x2="149.9" y2="205" gradientUnits="userSpaceOnUse">
      <stop offset=".078" stop-color="#54C8F1" />
      <stop offset=".573" stop-color="#41A2EF" />
      <stop offset="1" stop-color="#3386EE" />
    </linearGradient>
    <linearGradient id="d" x1="39.7" y1="31.15" x2="149.9" y2="205" gradientUnits="userSpaceOnUse">
      <stop offset=".078" stop-color="#54C8F1" />
      <stop offset=".573" stop-color="#41A2EF" />
      <stop offset="1" stop-color="#3386EE" />
    </linearGradient>
  </defs>
</svg>