<svg id="uuid-60dfcace-3bdc-4a0c-bb36-9e924bf27605" xmlns="http://www.w3.org/2000/svg" viewBox="0 0 24 24"><path d="m22.2,3.3c-.51,1.14-1.12,2.23-1.89,3.22-.26.34-.53.66-.78,1.01-.05.07-.11.11-.19.14-.5.15-.99.3-1.5.41-.64.14-1.27.24-1.93.24-.14,0-.27.04-.41.04-.14,0-.26.18-.25.33.01.17.16.33.33.34.5.01,1-.03,1.5-.09.32-.04.62-.15.95-.14.07,0,.15-.01.18.06.03.07.02.15-.05.22-.51.51-1,1.05-1.61,1.45-.42.27-.9.4-1.4.47-.42.06-.83.02-1.25.03-.28,0-.56-.05-.83-.1-.12-.02-.22,0-.27.1-.05.1.02.17.11.24.36.28.76.51,1.19.66.08.03.16.07.26.03.11-.05.15.09.24.12.19.06.38.1.57.11.08,0,.17,0,.2.09.03.09.02.18-.07.25-.5.45-.99.91-1.5,1.35-.48.41-.96.82-1.46,1.21-.41.32-.82.65-1.25.95-.22.16-.5.17-.76.22-.95.18-1.87.07-2.76-.3-.09-.04-.16-.02-.22.03-.05.05-.08.12-.04.21.18.49.48.86.95,1.1.09.05.21.08.18.22-.02.12-.12.14-.21.17-.51.17-1.03.27-1.56.36-.44.08-.88.06-1.32.07-.18,0-.36-.05-.54-.08.06-.3.25-.54.4-.79.49-.88,1.02-1.74,1.59-2.57,1.04-1.5,2.22-2.88,3.48-4.19.25-.26.52-.51.79-.75.41-.37.82-.75,1.24-1.11.69-.59,1.41-1.15,2.14-1.68.27-.19.28-.39.05-.62.44-.31.91-.57,1.38-.83,1.93-1.04,3.97-1.79,6.12-2.23.07-.01.14-.05.2.03Z" style="fill:#556080;"/><path d="m22.2,3.3c-.06-.07-.13-.04-.2-.03-2.15.43-4.19,1.18-6.12,2.23-.47.25-.94.52-1.38.83-.19-.08-.38-.03-.55.06-.56.28-1.09.6-1.62.94-1.24.79-2.37,1.73-3.46,2.71-.5.45-.99.91-1.44,1.41-.53.57-1.06,1.14-1.56,1.74-.96,1.13-1.87,2.29-2.58,3.6-.01-.04-.02-.08-.04-.12.03-.03.03-.05,0-.07-.01-.05-.03-.11-.04-.16.05-.05.05-.1,0-.15,0-.04,0-.07-.01-.11,0-.03,0-.07-.03-.09-.01-.07-.03-.14-.04-.2.04-.04.04-.08,0-.11,0-.12-.07-.24,0-.36-.01-.01-.02-.03-.03-.04-.06-.46-.07-.93-.04-1.39.08-1.48.43-2.87,1.41-4.03.09-.11.19-.2.29-.3.13-.12.26-.09.32.08.11.3.23.6.42.86.1.14.23.24.34.35.1.1.26.02.27-.13.09-.94.25-1.87.44-2.8.07-.32.15-.64.22-.96.03-.14.12-.23.21-.33.23-.24.47-.47.7-.71.03-.03.07-.06.11-.09.06-.05.12-.09.21-.04.11.05.11.14.09.22-.03.21-.09.41-.12.62-.06.41-.12.82-.12,1.24,0,.22.15.37.36.37.14,0,.31-.19.31-.36.06-1.11.3-2.18.76-3.2.04-.09.13-.15.21-.21.7-.49,1.46-.89,2.22-1.27.1-.05.21-.07.3,0,.1.09.04.19.02.29-.07.26-.22.48-.28.74-.05.21.03.39.22.46.18.06.36-.03.42-.25.16-.54.43-1.02.73-1.5.17-.27.38-.46.7-.54.58-.15,1.17-.27,1.77-.37.58-.1,1.16-.13,1.74-.13.42,0,.85,0,1.28.04.52.06,1.03.12,1.54.21.68.13,1.34.34,1.96.68.18.1.16.22.06.36Z" style="fill:#8697cb;"/><path d="m3.3,16.77c.71-1.31,1.62-2.47,2.58-3.6.5-.59,1.04-1.16,1.56-1.74.46-.5.95-.96,1.44-1.41,1.09-.98,2.22-1.92,3.46-2.71.53-.33,1.06-.65,1.62-.94.17-.09.35-.14.55-.06.23.24.22.43-.05.62-.73.53-1.45,1.09-2.14,1.68-.42.36-.83.74-1.24,1.11-.27.25-.54.49-.79.75-1.27,1.31-2.44,2.7-3.48,4.19-.58.83-1.1,1.69-1.59,2.57-.14.26-.34.49-.4.79-.16.15-.23.36-.31.55-.26.66-.55,1.31-.74,1.99-.11.38-.4.63-.68.88-.17.14-.35.27-.52.42-.13.11-.27.15-.42.09-.16-.06-.21-.19-.2-.36.02-.37.11-.73.16-1.1.1-.75.32-1.47.56-2.18.18-.53.39-1.05.64-1.55Z" style="fill:#2c2f38;"/><path d="m3.22,16.25c.05.05.05.1,0,.15,0-.05,0-.1,0-.15Z" style="fill:#8595c8;"/><path d="m3.14,15.74s.04.08,0,.11c0-.04,0-.08,0-.11Z" style="fill:#8595c8;"/><path d="m3.18,16.05s.03.06.03.09c-.03-.03-.03-.06-.03-.09Z" style="fill:#8595c8;"/><path d="m3.26,16.57s.03.05,0,.07c0-.03,0-.05,0-.07Z" style="fill:#8595c8;"/><path d="m3.1,15.34s.02.03.03.04c-.01-.01-.02-.03-.03-.04Z" style="fill:#8595c8;"/></svg>