<?xml version="1.0" encoding="UTF-8" standalone="no"?>
<svg
   xmlns:dc="http://purl.org/dc/elements/1.1/"
   xmlns:cc="http://creativecommons.org/ns#"
   xmlns:rdf="http://www.w3.org/1999/02/22-rdf-syntax-ns#"
   xmlns:svg="http://www.w3.org/2000/svg"
   xmlns="http://www.w3.org/2000/svg"
   xmlns:sodipodi="http://sodipodi.sourceforge.net/DTD/sodipodi-0.dtd"
   xmlns:inkscape="http://www.inkscape.org/namespaces/inkscape"
   width="24"
   height="24"
   viewBox="0 0 24 24"
   version="1.1"
   id="svg3336"
   inkscape:version="0.92.1 r15371"
   sodipodi:docname="wolframlanguage.svg">
  <metadata
     id="metadata3352">
    <rdf:RDF>
      <cc:Work
         rdf:about="">
        <dc:format>image/svg+xml</dc:format>
        <dc:type
           rdf:resource="http://purl.org/dc/dcmitype/StillImage" />
        <dc:title>wolframLanguage</dc:title>
      </cc:Work>
    </rdf:RDF>
  </metadata>
  <sodipodi:namedview
     pagecolor="#ffffff"
     bordercolor="#666666"
     borderopacity="1"
     objecttolerance="10"
     gridtolerance="10"
     guidetolerance="10"
     inkscape:pageopacity="0"
     inkscape:pageshadow="2"
     inkscape:window-width="1366"
     inkscape:window-height="705"
     id="namedview3350"
     showgrid="false"
     inkscape:zoom="12.707071"
     inkscape:cx="15.535589"
     inkscape:cy="5.7538013"
     inkscape:window-x="-8"
     inkscape:window-y="-8"
     inkscape:window-maximized="1"
     inkscape:current-layer="wolframLanguage" />
  <!-- Generator: Sketch 41.2 (35397) - http://www.bohemiancoding.com/sketch -->
  <title
     id="title3338">wolframLanguage</title>
  <desc
     id="desc3340">Created with Sketch.</desc>
  <defs
     id="defs3342" />
  <g
     id="Page-1"
     style="fill:none;fill-rule:evenodd;stroke:none;stroke-width:1"
     transform="scale(0.12121212)">
    <g
       id="wolframLanguage">
      <circle
         id="backgroundCircle"
         cx="99.197212"
         cy="98.945557"
         r="83.28019"
         style="fill:#212121;fill-opacity:1;stroke-width:0.84121412" />
      <g
         id="background"
         transform="matrix(0.93637581,0,0,0.93637581,14.8055,14.553833)"
         style="fill:#e53935;fill-opacity:1">
        <path
           d="m 179.11958,90.00006 c 0.0115,30.69629 -15.78341,59.23552 -41.79994,75.5267 -0.0106,0.0107 -0.0244,0.0176 -0.0393,0.0197 L 106.716,127.459 l 25.31967,2.78925 c 0,0 12.15893,1.25717 14.92853,0 2.534,-1.0018 16.20536,-20.25178 16.20536,-20.25178 0,0 -39.2464,-24.80894 -52.6625,-38.48041 1.5322,-23.041 -1.76779,-53.684 -1.76779,-53.4286 -9.88042,9.86075 -11.13759,11.393 -21.01788,20.50715 C 83.4196,24.66789 81.39633,19.85537 77.09466,5.92853 64.16965,16.55538 54.3089,34.54819 47.21785,55.56607 45.66611,57.275 44.17324,59.0821 42.7,61.00718 c -0.96248,1.27671 -1.92508,2.57321 -2.84824,3.90891 -1.90542,2.710727 -3.73219,5.558927 -5.48031,8.5446 -1.23751,2.1018 -2.45536,4.26259 -3.634,6.46258 C 22.5071,95.38218 15.75,113.1 9.89642,129.05007 9.855935,128.98877 9.822968,128.92277 9.79823,128.85357 -6.2085791,95.841241 -0.35022134,56.39285 24.559323,29.456881 49.468867,2.5209119 88.339652,-6.3986155 122.50064,6.982669 c 34.16099,13.381284 56.63182,46.329087 56.61894,83.017391 z"
           id="Shape"
           inkscape:connector-curvature="0"
           style="fill:#e53935;fill-opacity:1" />
      </g>
      <path
         d="m 101.45204,69.178018 c 0,0 -1.41628,-8.295307 -2.372782,-11.36704 6.400902,-6.180081 7.357212,-7.118096 13.518982,-13.040626 0.47825,11.845155 0.23912,18.006779 -0.47824,32.482138 -3.54982,-3.568219 -10.66796,-8.074472 -10.66796,-8.074472 z M 73.715224,109.95555 c 0,0 -6.639897,-4.02812 -11.624459,-4.72708 1.434743,-3.32911 5.223675,-7.596354 6.18008,-8.773503 -1.91282,0.698909 -15.652401,6.860683 -17.087145,12.084243 3.890451,0.95608 7.69781,2.22316 11.385338,3.78899 -4.9554,5.64014 -8.023065,12.68869 -8.773552,20.15889 0,0 21.814288,-3.32915 38.184123,-1.19562 0.283342,0.16785 0.608912,0.25086 0.938033,0.23913 l 8.534428,0.23912 27.11139,45.13663 0.22073,0.34944 c -0.0369,0.0185 -0.0553,0.0368 -0.0736,0.0368 -51.13289,18.485 -88.084526,-15.54222 -95.975141,-27.44248 0.03311,-0.10203 0.05772,-0.20659 0.07356,-0.31268 7.099732,-30.01754 15.854883,-65.939316 29.999168,-76.55218 7.35718,-12.819987 9.490806,-31.783254 22.752227,-41.73396 3.329154,9.950706 8.552857,30.587726 12.102659,40.538433 15.652517,15.652574 39.361147,35.094097 55.234387,43.150157 1.65541,0.95649 3.78894,7.59634 3.78894,7.59634 l -6.40072,8.05618 -68.275178,-6.87896 c -1.52664,-0.12875 -3.053335,-0.18391 -4.579862,-0.18391 -4.744018,0.0666 -9.474604,0.52176 -14.144265,1.36106 3.310772,-8.29528 10.428868,-14.93511 10.428868,-14.93511 z M 95.768523,101.182 c 3.788992,-0.45985 7.817067,0.95643 12.323417,3.56828 4.26719,-1.19551 4.74543,-1.43463 9.01268,-2.61185 -5.46282,-4.028064 -11.38534,-8.295309 -19.44151,-7.1181 -0.771068,2.008356 -1.404074,4.067026 -1.894596,6.16164 z"
         id="wolf"
         inkscape:connector-curvature="0"
         style="fill:#ffffff;stroke-width:0.9363758" />
    </g>
  </g>
</svg>
