<?xml version="1.0" encoding="UTF-8" standalone="no"?>
<svg
   xmlns:dc="http://purl.org/dc/elements/1.1/"
   xmlns:cc="http://creativecommons.org/ns#"
   xmlns:rdf="http://www.w3.org/1999/02/22-rdf-syntax-ns#"
   xmlns:svg="http://www.w3.org/2000/svg"
   xmlns="http://www.w3.org/2000/svg"
   xmlns:sodipodi="http://sodipodi.sourceforge.net/DTD/sodipodi-0.dtd"
   xmlns:inkscape="http://www.inkscape.org/namespaces/inkscape"
   width="24"
   height="24"
   viewBox="0 0 24 24"
   version="1.1"
   id="svg3336"
   inkscape:version="0.91 r13725"
   sodipodi:docname="wolframLanguage.svg">
  <metadata
     id="metadata3352">
    <rdf:RDF>
      <cc:Work
         rdf:about="">
        <dc:format>image/svg+xml</dc:format>
        <dc:type
           rdf:resource="http://purl.org/dc/dcmitype/StillImage" />
        <dc:title>wolframLanguage</dc:title>
      </cc:Work>
    </rdf:RDF>
  </metadata>
  <sodipodi:namedview
     pagecolor="#ffffff"
     bordercolor="#666666"
     borderopacity="1"
     objecttolerance="10"
     gridtolerance="10"
     guidetolerance="10"
     inkscape:pageopacity="0"
     inkscape:pageshadow="2"
     inkscape:window-width="1536"
     inkscape:window-height="801"
     id="namedview3350"
     showgrid="false"
     inkscape:zoom="3.1767677"
     inkscape:cx="99"
     inkscape:cy="99"
     inkscape:window-x="-8"
     inkscape:window-y="-8"
     inkscape:window-maximized="1"
     inkscape:current-layer="svg3336" />
  <!-- Generator: Sketch 41.2 (35397) - http://www.bohemiancoding.com/sketch -->
  <title
     id="title3338">wolframLanguage</title>
  <desc
     id="desc3340">Created with Sketch.</desc>
  <defs
     id="defs3342" />
  <g
     id="Page-1"
     style="fill:none;fill-rule:evenodd;stroke:none;stroke-width:1"
     transform="scale(0.12121212,0.12121212)">
    <g
       id="wolframLanguage">
      <circle
         id="backgroundCircle"
         cx="99"
         cy="99"
         r="99"
         style="fill:#000000" />
      <g
         id="background"
         transform="translate(9,9)"
         style="fill:#dd1100">
        <path
           d="m 179.11958,90.00006 c 0.0115,30.69629 -15.78341,59.23552 -41.79994,75.5267 -0.0106,0.0107 -0.0244,0.0176 -0.0393,0.0197 L 106.716,127.459 l 25.31967,2.78925 c 0,0 12.15893,1.25717 14.92853,0 2.534,-1.0018 16.20536,-20.25178 16.20536,-20.25178 0,0 -39.2464,-24.80894 -52.6625,-38.48041 1.5322,-23.041 -1.76779,-53.684 -1.76779,-53.4286 -9.88042,9.86075 -11.13759,11.393 -21.01788,20.50715 C 83.4196,24.66789 81.39633,19.85537 77.09466,5.92853 64.16965,16.55538 54.3089,34.54819 47.21785,55.56607 45.66611,57.275 44.17324,59.0821 42.7,61.00718 c -0.96248,1.27671 -1.92508,2.57321 -2.84824,3.90891 -1.90542,2.710727 -3.73219,5.558927 -5.48031,8.5446 -1.23751,2.1018 -2.45536,4.26259 -3.634,6.46258 C 22.5071,95.38218 15.75,113.1 9.89642,129.05007 9.855935,128.98877 9.822968,128.92277 9.79823,128.85357 -6.2085791,95.841241 -0.35022134,56.39285 24.559323,29.456881 49.468867,2.5209119 88.339652,-6.3986155 122.50064,6.982669 c 34.16099,13.381284 56.63182,46.329087 56.61894,83.017391 l 0,0 z"
           id="Shape"
           inkscape:connector-curvature="0" />
      </g>
      <path
         d="m 101.53394,67.33575 c 0,0 -1.51251,-8.85895 -2.534,-12.1394 6.83582,-6.6 7.85712,-7.60175 14.43756,-13.9267 0.51074,12.65 0.25537,19.23029 -0.51074,34.68921 -3.79102,-3.81067 -11.39282,-8.62311 -11.39282,-8.62311 z M 71.91248,110.884 c 0,0 -7.09106,-4.30182 -12.41431,-5.04828 1.53223,-3.5553 5.57861,-8.11249 6.6,-9.36963 -2.04279,0.7464 -16.71594,7.32684 -18.24817,12.90533 4.154797,1.02105 8.220855,2.37422 12.15894,4.04645 -5.292105,6.02337 -8.56821,13.55085 -9.36969,21.52863 0,0 23.29651,-3.55536 40.77863,-1.27686 0.302594,0.17926 0.650286,0.2679 1.00177,0.25537 l 9.11432,0.25537 28.95355,48.20355 0.23572,0.37317 c -0.0393,0.0197 -0.059,0.0394 -0.0786,0.0394 -54.60724,19.741 -94.06964,-16.59827 -102.4964,-29.30713 0.03536,-0.10895 0.06164,-0.22063 0.07855,-0.33392 C 35.80893,121.09829 45.15897,82.73574 60.26432,71.40176 68.1214,57.71069 70.4,37.45892 84.5625,26.83209 c 3.55536,10.62683 9.134,32.66608 12.925,43.29291 16.71606,16.71613 42.03564,37.47864 58.98743,46.08209 1.76788,1.02148 4.04639,8.11249 4.04639,8.11249 l -6.83563,8.60358 -72.91431,-7.34637 c -1.63037,-0.13751 -3.2608,-0.19641 -4.89105,-0.19641 -5.066362,0.0711 -10.118379,0.55722 -15.10533,1.45354 C 64.31073,117.975 71.91248,110.884 71.91248,110.884 Z m 23.55176,-9.36969 c 4.04645,-0.49109 8.34821,1.02142 13.16077,3.81073 4.55713,-1.27673 5.06787,-1.5321 9.62506,-2.78931 -5.834,-4.30176 -12.15894,-8.85895 -20.76251,-7.60175 -0.823461,2.144813 -1.499478,4.343362 -2.02333,6.5803 l 1e-5,3e-5 z"
         id="wolf"
         inkscape:connector-curvature="0"
         style="fill:#ffffff" />
    </g>
  </g>
</svg>
