<svg xmlns="http://www.w3.org/2000/svg" xml:space="preserve" viewBox="0 0 1024 1024"><path fill="#0D47A1" d="M468 1025H1V1h1024v1024zM206.151 478.478c.412 1.133.823 2.265 1.075 3.407 0 0 .013-.158-.116.643.317 1.473.634 2.945 1.676 4.776 1.026 3.52 2.177 7.01 3.06 10.567 8.03 32.365 16.013 64.743 23.614 97.575.28.812.562 1.624.716 2.439l-.094.757c.646 3.704 1.052 7.468 1.981 11.1 2.851 11.133 5.903 22.216 8.895 34.028.366 1.05.733 2.102 1.064 3.888.333 1.113.667 2.225.978 4.059.352 1.068.705 2.137 1.015 4.035-.272 3.75.998 6.22 5.2 6.22 22.828.003 45.655-.004 68.482.007 3.159.001 4.665-1.46 5.395-4.627 7.575-32.894 15.298-65.753 22.957-98.628 9.116-39.123 18.21-78.25 27.417-117.827 1.306 3.33 2.435 6.21 3.535 9.814.352 1.072.704 2.145 1.018 4.064.18 1.475.218 2.984.56 4.42 9.83 41.166 19.654 82.333 29.562 123.48 5.827 24.201 11.77 48.374 17.754 72.536.407 1.64 1.6 3.087 2.821 4.642 0 0 .307.247.591.97 1.367.387 2.733 1.11 4.1 1.114 23.136.069 46.273.08 69.408-.03 1.394-.006 2.783-1.125 4.864-2.034 1.863-6.635 3.726-13.27 6.232-20.15.713-1.63 1.67-3.198 2.1-4.9 4.853-19.157 9.554-38.352 14.434-57.501 11.405-44.756 22.94-89.479 34.293-134.248 2.36-9.307 4.16-18.757 6.8-28.567.331-.573.814-1.108.971-1.726 7.451-29.288 14.903-58.576 22.266-87.886.96-3.819-.4-5.957-4.827-5.935-21.29.108-42.582.018-63.873.14-1.363.007-2.72 1.204-4.15 2.07 0 0-.23-.035-.926.31a101 101 0 0 1-.968 3.528s.09-.019-.437.497c-.18 1.2-.359 2.398-.558 3.5 0 0 .098-.018-.44.55a172 172 0 0 1-.465 4.514s.144-.012-.456.472a265 265 0 0 1-.383 3.625s.12.024-.52.409c-2.237 10.15-4.474 20.3-7.245 30.96-.367.92-.866 1.809-1.08 2.762-3.189 14.194-6.423 28.378-9.464 42.604-1.443 6.75-2.5 13.584-3.745 20.242 0 0 .137.012-.509.395-.959 5.159-1.918 10.317-2.83 16.246-4.743 20.097-9.487 40.193-14.868 60.526-1.019 3.096-2.218 6.145-3.023 9.296-2.521 9.872-4.894 19.782-7.324 29.678-1.36-.917-1.735-1.759-1.94-2.64-4.588-19.718-9.117-39.45-13.79-59.149-.456-1.927-1.767-3.651-2.927-6.255-1.293-5.746-2.587-11.492-3.445-17.826-.07-1.29.053-2.623-.235-3.86-7.821-33.506-15.666-67.007-23.603-100.485-.342-1.446-1.6-2.675-2.647-4.516.024-.183.048-.366.496-1.166a901 901 0 0 0-3.487-11.926s.287-.272.6-1.093c-1.889-7.125-3.778-14.25-5.962-22.112-1.182-.413-2.362-1.181-3.546-1.185-21.053-.074-42.106-.09-63.158.023-1.39.008-2.773 1.167-4.82 2.083-.723 2.632-1.446 5.264-2.693 8.351-.196 1.138-.392 2.276-1.053 3.997-2.801 11.728-5.724 23.43-8.359 35.196-1.583 7.067-2.717 14.236-4.613 21.832-.826 4.15-1.651 8.301-2.997 12.976-1.48 7.182-2.96 14.363-4.972 21.996-.198 1.14-.395 2.28-1.053 4.016-.628 2.406-1.374 4.788-1.864 7.221-1.897 9.427-3.713 18.87-6.113 28.788-1.854 8.131-3.708 16.263-6.02 24.99-1.452 5.923-3.034 11.818-4.324 17.776-1.493 6.896-2.73 13.849-4.623 21.211-.198 1.139-.397 2.278-1.058 4l-2.185 7.793c-1.619-2.334-2.423-4.635-2.951-6.997-4.825-21.558-9.583-43.132-14.4-64.692-3.731-16.698-7.424-33.405-11.33-50.062-1.621-6.91-3.755-13.7-5.62-21.409-1.056-5.7-2-11.425-3.245-17.084-.318-1.445-1.589-2.68-2.648-4.517.024-.183.047-.367.502-1.165.02-1.3.294-2.657.02-3.892-2.595-11.656-5.17-23.318-7.995-34.92-1.274-5.233-3.095-10.333-4.91-16.25-1.328-.44-2.655-1.259-3.986-1.264-21.215-.079-42.43-.09-63.644.03-1.35.007-2.693 1.208-4.244 2.444 2.328 9.486 4.656 18.972 6.56 29.054 1.884 7.442 3.768 14.884 5.613 23.175 2.71 10.745 5.42 21.49 8.026 32.221 0 0 .018-.103-.022.75-.002.5-.106 1.024.01 1.493 5.215 21.103 10.437 42.203 15.729 63.287.214.855 1.103 1.54 1.527 2.327 0 0 .005-.153-.145.633.433 1.102.866 2.204 1.182 3.335 0 0 .002-.12-.17.661m531.975 1.97c.273-.758.778-1.514.782-2.272.053-11.249.083-22.498-.027-33.746-.011-1.146-.965-2.282-1.784-3.286l-.238-.234s.132-.306-.394-.991c-1.753-.294-3.504-.829-5.258-.841-11.126-.077-22.252-.035-33.378-.038-6.822-.002-6.843-.006-6.85-6.76-.014-13.912-.004-27.824-.004-41.736-.92 6.75-.83 13.506-.943 20.258a443 443 0 0 1-.867 21.4c-.08-14.674-.161-29.348-.808-44.624-12.613-.129-25.227-.271-37.84-.34-.54-.003-1.084.678-1.64.945 0 0 .088.039-.738.379-.384 1.867-1.089 3.73-1.102 5.6-.093 13.27-.172 26.544.037 39.813.063 3.983-1.312 5.17-5.181 5.106-11.61-.195-23.225-.147-34.835.021-1.679.025-3.34 1.226-5.083 2.131 0 0-.254.048-.99.424-.292.569-.834 1.136-.837 1.706-.049 12.033-.037 24.066-.037 36.1q.234 0 .467.003c.35-5.199.7-10.398 1.252-14.662.07 5.696.14 11.391.811 17.658 1.792.183 3.584.518 5.376.524 13.59.048 27.18.03 40.887.962.07 16.286.142 32.571.77 49.456 12.595.13 25.19.273 37.786.34.533.003 1.07-.695 1.593-1.299 0 0 .404-.146 1.058-.794.29-1.923.818-3.844.83-5.768.073-12.601.157-25.204-.04-37.803-.06-3.884 1.137-5.218 5.102-5.144 11.768.22 23.543.125 35.315.026 1.887-.016 3.77-.68 5.725-1.402.051-.255.188-.45 1.083-1.113m57.827-92.478s.257-.012-.307.626c-.217 1.79-.617 3.58-.624 5.372-.054 13.325-.149 26.652.043 39.975.056 3.908-1.156 5.245-5.131 5.175-12.156-.213-24.319-.14-36.477-.005-1.822.02-3.635.97-5.314 1.977-.11.318-.221.635-.752 1.653-.128 10.477-.31 20.954-.339 31.431-.006 2.266.535 4.532 1.058 7.157 0 0 .003.428.558 1.033 1.781.217 3.561.613 5.343.622 11.277.056 22.554.022 33.83.026 7.166.002 7.161.008 7.162 6.942 0 12.106-.041 24.212.058 36.317.015 1.893.678 3.782 1.522 5.725 0 0 .451.176 1.142.616 11.888.117 23.776.26 35.665.3.882.003 1.766-.716 2.643-.888 0 0-.21.024.342-.622.207-1.793.584-3.586.592-5.38.053-12.66.167-25.322-.05-37.978-.068-4.016 1.333-5.157 5.204-5.1 12.824.191 25.652-.002 38.477.117 3.73.035 5.508-1.148 5.451-5.156-.157-10.992-.014-21.988-.146-32.98-.015-1.245-1.025-2.478-1.944-3.907 0 0 .035-.416-.496-1.099-1.75-.297-3.5-.838-5.252-.85-11.444-.076-22.893-.205-34.333.05-4.425.099-6.12-1.058-6.008-5.805.306-12.93.165-25.873.035-38.81-.02-2.028-.913-4.047-1.674-5.97-.195-.1-.278-.257-.864-1.025-12.424-.148-24.847-.316-37.271-.394-.71-.004-1.424.725-2.143.855"/><path fill="#E0E0E0" d="M649.117 532.805c-.07-16.286-.141-32.571-.32-49.718-1.672-1.047-3.237-1.233-4.58-1.58.649-.399 1.076-.637 1.502-.876l-.005-1.029h-42.703c0-11.576.125-22.191-.067-32.8-.068-3.757 1.316-4.892 4.945-4.842 11.803.163 23.61.11 35.415.005 1.884-.017 3.762-.735 5.66-1.344.016-.215.16-.62.39-.964.37-14.486.677-28.629.557-42.768-.038-4.498 1.159-6.152 5.879-6.023 8.926.245 17.916.337 26.789-.484 4.587-.425 5.5.745 5.458 4.84-.142 13.66.068 27.324-.113 40.982-.057 4.281 1.344 5.949 5.753 5.877 12.492-.204 24.99.037 37.483-.134 3.72-.051 4.964 1.242 4.886 4.921-.193 8.993-.301 18 .037 26.985.179 4.757-1.219 6.379-6.13 6.251-12.486-.324-24.987-.126-37.481-.04-.495.003-.982.997-1.847 1.644-.713.909-1.347 1.704-1.346 2.498.016 16.03.105 32.062.18 48.093 0 0-.405.146-.867.274-13.466.163-26.47.197-39.475.232"/><path fill="#ECEFF1" d="M748.114 481.758s-.003-.428-.073-1.072c-.123-13.311-.176-25.977-.229-38.644.111-.318.222-.635.392-1.196.06-.243.137-.488.53-.255 15.7.213 31.007.194 46.329.253.014.08-.079.213-.411.458-12.292.4-24.252.586-36.212.7-6.978.066-7.355.001-7.608 6.952-.356 9.808-.09 19.638-.09 30.072h5.527c11.482 0 22.965-.017 34.448.008 6.395.014 7.26.86 7.273 7.165.026 12.98.108 25.962-.053 38.94-.046 3.667 1.154 5.01 4.875 4.925 8.816-.2 17.642-.21 26.457-.001 3.813.09 4.842-1.423 4.794-5.002-.159-11.813-.112-23.63-.01-35.445.016-1.898.712-3.79 1.452-5.438.344 16.122.332 31.996.319 47.87 0 0 .21-.025-.262-.067-13.156.035-25.841.113-38.527.19 0 0-.45-.176-.744-.663-.294-16.854-.294-33.22-.294-49.75z"/><path fill="#283593" d="m383.03 449.988-3.564-9.09c-9.207 39.575-18.301 78.703-27.417 117.826-7.66 32.875-15.382 65.734-22.957 98.628-.73 3.167-2.236 4.628-5.395 4.627-22.827-.011-45.654-.004-68.481-.007-4.203 0-5.473-2.47-5.123-6.67.078-.452.185-.533.462-.264.747 1.82 1.219 3.372 1.654 4.805h74.8c.649-3.372 1.272-6.61 2.012-10.137.175-.694.234-1.1.517-1.79.602-2.16.978-4.037 1.467-6.212.169-.72.225-1.14.51-1.862 1.951-8.15 3.673-16 5.515-24.135.19-.693.26-1.1.553-1.817 1.766-7.064 3.31-13.818 4.853-20.572a36643 36643 0 0 1 14.57-63.616c.17-.712.233-1.127.51-1.83.592-2.15.973-4.011 1.454-6.179.135-.732.17-1.157.45-1.87.993-3.8 1.741-7.311 2.604-11.112.179-.696.242-1.104.532-1.819 3.252-13.835 6.279-27.361 9.38-41.214.079-.771.083-1.217.378-1.922 2.439-9.748 4.587-19.236 6.708-28.734-.027-.011.013.031.27-.026.55.13.845.317 1.21.496.07-.008-.044.075.043.45.985 4.847 1.883 9.318 2.706 13.853-.074.063-.221.193-.221.193"/><path fill="#ECEFF1" d="M235.856 594.987c-7.997-32.373-15.98-64.75-24.01-97.116-.883-3.557-2.034-7.047-3.403-11.142-.63-2.05-.917-3.526-1.204-5.002 0 0-.013.158.038-.217-.284-1.521-.619-2.667-.953-3.813 0 0-.002.12.05-.258-.327-1.5-.705-2.622-1.084-3.743 0 0-.005.153.055-.272-3.626-15.378-7.231-30.352-11.031-45.276-1.902-7.467-4.159-14.842-6.255-22.259 0 0-.018.103-.005-.32-1.304-6.807-2.62-13.19-3.63-19.523.848.605 1.718 1.079 1.878 1.728 4.142 16.823 8.164 33.675 12.305 50.498 4.851 19.712 9.818 39.395 14.695 59.1 5.305 21.44 10.53 42.898 15.855 64.332 4.472 17.999 9.079 35.965 13.5 53.976.428 1.742-.03 3.702-.277 5.242-2.197-7.933-4.192-15.548-6.188-23.163 0 0-.016.126.024-.243a24 24 0 0 0-.36-2.529M835.983 388.06c-.03.216.054.374.296.655.046.182.361.566.157.896-.075 1.579.054 2.826.008 4.247-.05.607.074 1.042-.017 1.813-.07 1.89.074 3.444.032 5.387-.128 13.315-.07 26.24.066 39.405.204.35.332.458.462.557.004-.011-.013.02-.355-.111-1.073-1.355-2.411-2.569-2.43-3.804-.086-5.427.226-10.86.36-16.291.091-3.648.236-7.3.157-10.945-.101-4.642-1.09-9.38-.43-13.89.684-4.677-1.315-5.066-4.85-5.028-7.997.085-16.008.295-23.989-.075-4.932-.228-6.744 1.111-6.591 6.351.368 12.653.138 25.323.098 37.987-.007 2.414.585 5.286-3.024 5.27.167-17.81.223-35.169.278-52.527 0 0-.257.012.222.075 13.502.051 26.526.04 39.55.028M691 481.594c.49-.533.977-1.527 1.472-1.53 12.494-.086 24.995-.284 37.481.04 4.911.128 6.309-1.494 6.13-6.251-.338-8.984-.23-17.992-.037-26.985.078-3.68-1.166-4.972-4.886-4.921-12.493.17-24.991-.07-37.483.134-4.41.072-5.81-1.596-5.753-5.877.18-13.658-.029-27.322.113-40.982.042-4.095-.87-5.265-5.458-4.84-8.873.821-17.863.73-26.789.484-4.72-.13-5.917 1.525-5.879 6.023.12 14.14-.187 28.282-.638 42.514-.37-.078-.43-.245-.424-.876-.012-5.814-.09-11.165-.094-16.94.12-11.405.166-22.385.211-33.365 0 0-.088-.04.394-.008 13.51.01 26.537-.012 39.564-.034.08 14.674.161 29.348.278 44.851.607 3.126 1.178 5.423 2.219 7.79 7.952.073 15.436.151 22.919.058 7.44-.092 14.878-.356 22.35-.415.033.13.302.14.302.14l-.132.306s.238.234.398.3c.16.067.421.13.175.515-.326 6.088-.407 11.79-.515 17.945-.031 6.066-.14 11.68.003 17.289.077 3.003-1.092 4.121-4.066 4.064-2.597-.049-5.203.383-8.151.687-.816.03-1.285-.025-2.112-.261-4.755-.057-9.151.068-13.966.278-1.835.032-3.251-.02-5.009-.255-3.417-.067-6.493.048-9.946.247a23 23 0 0 1-2.672-.125"/><path fill="#283593" d="M576.955 414.933c-2.057 9.384-3.856 18.834-6.217 28.141-11.353 44.77-22.888 89.492-34.293 134.248-4.88 19.15-9.58 38.344-14.433 57.501-.432 1.702-1.388 3.27-2.395 4.652.886-4.992 2.066-9.735 3.353-14.784.127-.735.146-1.165.405-1.889 3.336-12.799 6.433-25.304 9.653-38.094.2-.688.277-1.091.561-1.79.582-2.17.955-4.047 1.451-6.206.193-.686.262-1.09.543-1.801 1.896-7.173 3.58-14.037 5.343-21.226.094-.772.11-1.218.426-1.897 1.548-5.708 2.797-11.183 3.972-16.666-.074-.008-.068.14.215-.112 1.315-4.506 2.346-8.76 3.499-13.297.21-.683.297-1.083.583-1.799 2.558-9.85 4.919-19.383 7.387-29.21.185-.7.263-1.107.566-1.82 2.904-11.163 5.584-22.021 8.366-33.191.128-.747.152-1.182.41-1.917 3.616-13.198 7-26.095 10.436-38.953.055.04.17.11.17.11M434.323 659.834c-.828-1.536-2.021-2.982-2.428-4.623-5.984-24.162-11.927-48.335-17.754-72.535-9.908-41.148-19.731-82.315-29.562-123.48-.342-1.437-.38-2.946-.475-4.89.086-.468.214-.565.47-.292 1.253 3.885 2.248 7.498 3.24 11.431.105.732.214 1.143.315 1.943 6.156 25.869 12.32 51.35 18.506 77.138.164.695.306 1.082.42 1.868 3.555 14.849 7.138 29.297 10.718 44.064.11.727.224 1.136.312 1.94 1.541 6.516 3.109 12.638 4.682 19.076.126.72.246 1.124.35 1.91.87 3.51 1.752 6.635 2.636 10.08.118.722.235 1.128.33 1.925 2.49 10.212 5.002 20.033 7.546 30.158.175.686.316 1.067.422 1.806.066 1.065.17 1.773.272 2.481"/><path fill="#283593" d="M527.997 320.948c1.359-.644 2.715-1.84 4.078-1.849 21.29-.121 42.582-.031 63.873-.139 4.426-.022 5.786 2.116 4.827 5.935-7.363 29.31-14.815 58.598-22.266 87.886-.157.618-.64 1.153-1.262 1.94-.292.212-.406.142-.433-.3 1.323-6.099 2.672-11.757 4.13-17.723.145-.737.18-1.168.45-1.894.991-3.466 1.746-6.638 2.613-10.107.156-.716.2-1.136.488-1.847.495-1.418.726-2.55 1.003-3.67 3.473-14.065 6.953-28.129 10.557-42.473.216-.68.305-1.078.594-1.783.867-3.179 1.535-6.05 2.304-9.23.138-.736.174-1.164.475-1.902 1.365-4.336-1.842-2.781-3.276-2.787-22.718-.088-45.437-.06-68.155-.057"/><path fill="#ECEFF1" d="M883.995 440.601s-.035.416.111.955c.094 13.521.04 26.503-.448 39.463-3.16.18-5.883.381-9.011.67-1.5.036-2.596-.017-3.858-.213-.692-.05-1.218.044-2.196.222-3.511.025-6.571-.034-9.728-.195-.39-.225-.634-.157-1.275.188-3.179.028-5.91-.03-8.856-.245-1.038-.05-1.862.056-3.104.249-1.834.038-3.252-.011-4.837-.204-.697-.043-1.227.058-2.102.239-.809.014-1.273-.053-1.87-.41 1.181-.958 2.488-2.19 3.809-2.206 12.146-.15 24.296-.182 36.443-.03 3.576.044 5.01-1.01 5.035-4.805.059-8.926.462-17.853.913-26.77.216-4.27-1.835-5.594-5.72-5.467-11.116.364-22.235.748-33.356.837-2.319.018-4.647-1.194-6.97-1.84 0 0 .016-.03.424-.072 2.027-.234 3.646-.425 5.184-.705-.082-.088-.247.086.152.309 5.52.25 10.644.36 15.765.288 8.386-.118 16.77-.355 25.185-.406.031.136.31.148.31.148"/><path fill="#283593" d="M257.956 399.025c1.9 6.844 4.035 13.634 5.655 20.544 3.907 16.657 7.6 33.364 11.33 50.062 4.818 21.56 9.576 43.134 14.4 64.692.53 2.362 1.333 4.663 2.952 6.997.728-2.598 1.457-5.195 2.451-8.053.266-.26.336-.196.333.232-.762 4.99-1.505 9.554-2.351 14.1-.03.158-1.083.127-1.652-.122-.087-.701-.18-1.096-.251-1.724-.027-.574-.21-.813-.55-1.261-.152-.706-.281-1.101-.41-1.887-1.926-8.14-3.854-15.89-5.808-23.969-.075-.764-.123-1.199-.13-2.036-1.708-8.252-3.372-16.122-5.23-23.945-2.119-8.92-4.41-17.797-6.644-27.021-.067-.763-.117-1.197-.128-2.028-4.766-21.679-9.571-42.96-14.273-64.325z"/><path fill="#ECEFF1" d="M434.52 659.844c-.3-.718-.403-1.426-.14-2.405 3.218.009 6.07.521 8.922.53 21.584.067 43.17.091 64.752-.066 1.778-.013 4.707-1.078 5.117-2.313 1.808-5.442 2.633-11.204 4.31-16.698 1.446-4.738 3.562-9.271 5.382-13.895-1.18 4.743-2.36 9.486-3.567 14.6-1.89 7.006-3.754 13.641-6.425 20.36-26.488.103-52.168.123-77.848.143 0 0-.307-.247-.503-.256m214.426-219.008c-1.88.394-3.758 1.112-5.642 1.129-11.805.106-23.612.158-35.415-.005-3.629-.05-5.013 1.085-4.945 4.842.192 10.609.067 21.224.067 32.8h42.703l.005 1.03c-.426.238-.853.476-1.926.957-2.37.201-4.095.16-6.142-.068-2.758-.051-5.192.083-8.062.293-2.495.023-4.555-.029-6.83-.25-1.056-.054-1.897.06-3.2.254-6.148.076-11.833.074-17.517.072-.07-5.695-.14-11.39-.243-17.93-.048-8.123-.062-15.401-.077-22.68 0 0 .254-.047.754-.178 15.823-.176 31.146-.221 46.47-.266m-198.799 25.166a4929 4929 0 0 1 4.028 18.005c2.597 11.024 5.118 21.263 7.477 31.54 3.168 13.802 6.212 27.632 8.956 41.35-1.073-1.333-2.142-2.485-2.455-3.814-1.508-6.406-2.697-12.887-4.213-19.291-3.405-14.381-7.01-28.715-10.395-43.101-2.896-12.307-5.627-24.652-8.32-37.005-.179-.817.577-1.839 1.133-2.467 1.42 5.127 2.604 9.955 3.789 14.783"/><path fill="#283593" d="M470.96 556.997c-3.096-13.818-6.14-27.648-9.308-41.45-2.359-10.277-4.88-20.516-7.354-31.147.89 1.444 2.2 3.168 2.657 5.095 4.672 19.698 9.201 39.43 13.789 59.15.205.88.58 1.722 1.94 2.64 2.43-9.897 4.803-19.807 7.324-29.68.805-3.15 2.004-6.2 3.295-9.056-.214 2.642-.7 5.045-1.293 7.748-.163.716-.22 1.134-.51 1.857-2.942 11.482-5.654 22.658-8.439 34.065-.189.544-.199.862-.418 1.276-.746.032-1.177-.03-1.547-.207.06-.117-.136-.29-.136-.29"/><path fill="#1A237E" d="M848.95 481.602c2.73.058 5.461.117 8.87.173.68-.002 1.142-.17 1.142-.17 3.06.059 6.12.118 9.944.19 1.193-.05 1.621-.114 2.049-.177 1.096.054 2.192.107 4.12.17 3.56-.244 6.29-.496 9.018-.748.054-12.981.107-25.963.199-39.388.587.794 1.597 2.027 1.612 3.272.132 10.992-.011 21.988.146 32.98.057 4.008-1.72 5.191-5.45 5.156-12.826-.119-25.654.074-38.478-.117-3.871-.057-5.272 1.084-5.203 5.1.216 12.656.102 25.318.049 37.977-.008 1.795-.385 3.588-.868 5.704-.263-15.55-.25-31.424-.641-47.899.23-1.138.862-1.677 1.495-2.215.464.067.928.134 2.054.212 1.093-.055 1.523-.121 1.953-.188a614 614 0 0 0 5.026.16 47 47 0 0 0 2.962-.192"/><path fill="#ECEFF1" d="M482.116 519.997c.487-2.403.973-4.806 1.505-7.566 4.79-20.454 9.535-40.55 14.368-61.41 1.189-5.797 2.287-10.832 3.386-15.866 0 0-.137-.012.124-.146.61-1.129.961-2.124 1.597-3.038-1.74 10.372-3.562 20.71-5.847 30.945-2.511 11.243-5.475 22.383-8.193 33.58-1.733 7.145-3.337 14.322-5.12 21.454-.197.785-1.194 1.37-1.82 2.047"/><path fill="#283593" d="M450.364 465.708c-1.402-4.534-2.587-9.362-3.992-14.816-.323-1.05-.425-1.475-.517-2.289-2.549-10.836-5.107-21.284-7.651-32.052-.102-.732-.219-1.143-.327-1.944-2.205-8.878-4.42-17.366-6.658-25.855-.024-.002.026-.005.054-.418-2.301-10.698-4.63-20.984-6.96-31.27.83 1.33 2.089 2.56 2.431 4.005 7.937 33.478 15.782 66.979 23.603 100.485.288 1.237.166 2.57.017 4.154m-15.199 194.753c25.538-.381 51.218-.401 77.36-.35-.927.671-2.316 1.79-3.71 1.796-23.135.11-46.272.099-69.407.03-1.368-.004-2.734-.727-4.243-1.476M648.963 440.62c-15.34.26-30.664.306-46.45.358 1.206-.65 2.867-1.851 4.546-1.876 11.61-.168 23.226-.216 34.835-.021 3.87.065 5.244-1.123 5.181-5.106-.209-13.269-.13-26.542-.037-39.813.013-1.87.718-3.733 1.515-5.77.368 10.81.322 21.79.017 33.56-.102 6.206.056 11.622.213 17.038.06.168.12.335.26.756.082.255-.063.66-.08.875M168.046 320.952c1.347-.646 2.69-1.847 4.04-1.855 21.214-.119 42.43-.108 63.644-.029 1.33.005 2.658.824 4.071 1.663.084.399.02.451-.433.387-19.752-.044-39.05-.023-58.777-.074-2.154-.025-3.882.023-6.041.008-2.455-.075-4.48-.087-6.504-.1m176.835-.068c1.386-.623 2.77-1.782 4.159-1.79 21.052-.114 42.105-.097 63.158-.023 1.184.004 2.364.772 3.665 1.571.12.386.066.428-.396.383-23.804-.05-47.145-.055-70.512-.08-.026-.019-.074-.061-.074-.061"/><path fill="#ECEFF1" d="M527.961 321.059c22.754-.113 45.473-.142 68.19-.054 1.435.006 4.642-1.549 2.96 2.543-2.242-.467-3.877-1.307-5.574-1.462-2.797-.257-5.634-.071-8.454-.071-16.923 0-33.845-.067-50.766.103-1.75.017-4.684 1.09-5.033 2.273-2.271 7.688-3.927 15.555-5.941 23.322-.23.887-1.432 1.522-2.194 1.882.747-4.064 1.505-7.734 2.263-11.405 0 0-.12-.024.142-.228.415-1.438.568-2.671.72-3.905 0 0-.143.012.174-.168.44-1.755.563-3.328.686-4.902 0 0-.098.017.247-.113.477-1.382.609-2.633.74-3.885 0 0-.09.019.246-.12.666-1.337.998-2.536 1.329-3.734 0 0 .23.034.265-.076"/><path fill="#283593" d="M188.04 406.316c2.115 6.99 4.372 14.365 6.274 21.832 3.8 14.924 7.405 29.898 11.106 45.266-.559-.351-1.448-1.037-1.662-1.892-5.292-21.084-10.514-42.184-15.729-63.287-.116-.47-.012-.994.01-1.919m314.772 25.574c-.35.995-.701 1.99-1.306 3.188.978-6.593 2.035-13.427 3.478-20.177 3.041-14.226 6.275-28.41 9.464-42.604.214-.953.713-1.842 1.407-2.962.327-.201.452-.097.473.282-.063 1.384-.147 2.387-.342 3.684-.16.705-.212 1.117-.498 1.832-3.63 15.825-7.025 31.346-10.552 47.145-.221.678-.31 1.077-.554 1.68-.199.874-.241 1.545-.12 2.43.31.107.456.001.553-.104-.048 0 .027.051-.385.214-.452.456-.492.749-.73 1.226-.32.881-.443 1.578-.67 2.581-.142.732-.18 1.159-.218 1.586"/><path fill="#1A237E" d="M795.93 388.276c.226 17.04.17 34.397-.212 52.2-.326.444-.734.58-.734.58s.093-.132-.273-.435c-15.7-.29-31.035-.276-46.37-.263 0 0-.076.245-.205.245 1.687-.52 3.5-1.471 5.322-1.491 12.158-.135 24.32-.208 36.477.005 3.975.07 5.187-1.267 5.131-5.175-.192-13.323-.097-26.65-.043-39.975.007-1.792.407-3.581.906-5.69m-59.2 51.985c.263.342-.006.333-.543.09-13.999-.298-27.46-.38-40.92-.375-1.438 0-2.876.504-4.314.774-.572-2.297-1.143-4.594-1.65-7.25.296-7.807.606-15.251.73-22.699.114-6.752.024-13.508.944-20.258 0 13.912-.01 27.824.004 41.736.007 6.754.028 6.758 6.85 6.76 11.126.003 22.252-.039 33.378.038 1.754.012 3.505.547 5.52 1.184m11.663 41.798c15.477-.302 31.23-.302 47.606-.302 0 16.53 0 32.896.053 49.723-.31-1.43-.973-3.318-.988-5.21-.1-12.106-.058-24.212-.058-36.318 0-6.934.004-6.94-7.162-6.942-11.276-.004-22.553.03-33.83-.026-1.782-.009-3.562-.405-5.62-.924m-44.434-.406c1.417.052 2.833.104 5.12.168a2661 2661 0 0 0 13.871-.192c.47.054.939.109 2.202.177 4.47.045 8.146.077 11.822.108-1.885.365-3.767 1.03-5.654 1.046-11.772.099-23.547.194-35.315-.026-3.965-.074-5.163 1.26-5.102 5.144.197 12.599.113 25.202.04 37.803-.012 1.924-.54 3.845-1.156 6.092-.402-15.707-.491-31.738-.507-47.77-.001-.793.633-1.588 1.346-2.497 1.139-.044 1.904.025 3.486.108 3.828-.046 6.838-.103 9.847-.161m138.378-41.307s.165-.174-.263-.212c-2.161.004-3.893.046-5.625.088-.059-12.925-.117-25.85.14-39.692.229-2.343.142-3.77.055-5.197-.125-.435-.25-.87-.071-2.02.225-1.822.147-2.928.068-4.034 0 0-.315-.384-.226-.616.579 1.791 1.471 3.81 1.492 5.838.13 12.937.271 25.88-.035 38.81-.113 4.747 1.583 5.904 6.008 5.805 11.44-.255 22.889-.126 34.333-.05 1.753.012 3.501.553 5.517 1.192.266.341-.013.33-.548.083-13.972-.163-27.408-.08-40.845.005"/><path fill="#ECEFF1" d="M424.205 356.809c2.437 10.541 4.767 20.827 6.766 31.327-.69-.526-1.198-1.232-1.387-2.014-3.524-14.636-7.048-29.272-10.453-43.935-.384-1.654-.053-3.474.238-5.018.87 2.138 1.447 4.08 2.024 6.02 0 0-.287.272-.165.827 1.06 4.366 2 8.176 2.94 11.987-.023.184-.047.367.037.806m-256.261-35.562a23 23 0 0 1 6.314.03c-4.603 1.197-3.609 4.847-2.943 7.707 1.984 8.524 4.542 16.915 6.499 25.445 1.031 4.493 1.277 9.167 1.64 13.462-1.702-6.16-3.165-12.026-4.629-17.89-2.327-9.487-4.655-18.973-6.881-28.754"/><path fill="#283593" d="M328.063 390.08c1.335-7.123 2.47-14.292 4.052-21.36 2.635-11.765 5.558-23.467 8.626-35.454.268-.26.338-.195.327.23-.364 2.865-.534 5.348-1.098 7.738-3.852 16.34-7.787 32.66-11.747 48.95-.051-.038-.16-.104-.16-.104m-88.142-68.97c1.61 5.14 3.431 10.239 4.705 15.472 2.824 11.602 5.4 23.264 7.994 34.92.275 1.235 0 2.592-.331 3.832-.924-2.184-1.536-4.308-2.137-6.755-.092-.742-.195-1.161-.288-1.976-3.341-15.405-6.692-30.413-10.043-45.42 0 0 .064-.053.1-.074M236.137 598.2c2.05 7.174 4.046 14.789 6.276 23.027.38 1.004.528 1.386.644 2.066.182.839.394 1.38.63 2.226.153.696.282 1.085.392 1.858.869 3.526 1.757 6.668 2.655 10.12.131.706.251 1.1.348 1.89-.016 1.445-.008 2.495-.036 3.577l-.107.096c-2.973-11.102-6.025-22.185-8.876-33.319-.93-3.63-1.335-7.395-1.926-11.54m59.944-69.108c1.348-6.928 2.585-13.88 4.078-20.777 1.29-5.958 2.872-11.853 4.588-18.042.263-.267.332-.204.355.23-.145 2.234-.122 4.077-.513 5.827-1.765 7.905-3.648 15.784-5.596 23.967-.172.708-.236 1.12-.522 1.819-.886 2.552-1.55 4.82-2.255 7.056a2 2 0 0 0-.135-.08m14.975-64.024c1.847-9.437 3.663-18.88 5.56-28.307.49-2.433 1.236-4.815 2.13-7.488.264-.266.334-.202.332.225a2722 2722 0 0 1-7.822 35.709c-.065-.05-.2-.14-.2-.14m-126.939-79.072a2748 2748 0 0 1 3.989 19.58c-2.672-10.314-5.382-21.06-8.037-32.247.055-.441.12-.487.415-.255 1.278 3.852 2.262 7.472 3.261 11.405.135.715.253 1.116.372 1.517"/><path fill="#1A237E" d="M637.974 481.707c1.724.041 3.448.083 5.597.043 1.99.104 3.554.29 5.167.873-13.54.394-27.13.41-40.72.363-1.792-.006-3.584-.341-5.676-.81 5.384-.284 11.069-.282 17.581-.273 1.57-.051 2.31-.11 3.052-.17 2.06.052 4.119.104 7.048.167 3.23-.057 5.59-.125 7.95-.193"/><path fill="#283593" d="M523.092 338.383c-.438 3.478-1.196 7.148-2.037 11.528-.102 1.148-.121 1.586-.38 2.326-1.617 5.868-2.993 11.434-4.37 17 0 0-.124-.103-.184-.157 2.177-10.204 4.414-20.355 6.97-30.697"/><path fill="#1A237E" d="M601.354 441.469c.383 7.09.397 14.368.344 22.023-.42 5.576-.77 10.775-1.12 15.974q-.232 0-.466-.004c0-12.033-.012-24.066.037-36.099.003-.57.545-1.137 1.205-1.894"/><path fill="#ECEFF1" d="M250.142 368.903c.611 2.123 1.223 4.247 1.931 6.738.073.551.05.735.178 1.53.713 4.327 1.274 8.04 1.49 11.668-.873-1.035-1.694-1.93-1.885-2.944-.96-5.087-1.788-10.2-2.559-15.32-.076-.504.547-1.113.845-1.672"/><path fill="#1A237E" d="M688.641 387.88c-12.744.322-25.771.344-39.274.382.067-.346.61-1.027 1.15-1.024 12.614.069 25.228.211 38.124.641m147.034-.095c-12.716.288-25.74.3-39.239.377.237-.322.951-1.051 1.66-1.047 12.425.078 24.848.246 37.58.67m-186.28 145.32c12.726-.334 25.73-.368 39.203-.415-.067.36-.605 1.058-1.138 1.055-12.596-.067-25.191-.21-38.065-.64m88.284-91.764s-.263-.063-.27-.198c.507 1.006 1.46 2.142 1.472 3.288.11 11.248.08 22.497.027 33.746-.004.758-.51 1.514-1.183 2.08-.386-6.938-.372-13.683-.17-20.93.165-6.33.144-12.158.123-17.987m59.701 91.052c12.34-.297 25.026-.375 38.185-.516-.408.32-1.292 1.04-2.174 1.036-11.889-.04-23.777-.183-36.01-.52m-49.779-89.999c.263 12.317.316 24.983.322 38.114-.336-1.8-.877-4.067-.87-6.333.029-10.477.21-20.954.548-31.781"/><path fill="#283593" d="M304.976 489.976c1.82-8.163 3.673-16.295 5.803-24.667.277-.24.412-.15.5.312-2.008 8.457-4.104 16.453-6.2 24.45z"/><path fill="#E0E0E0" d="M737.369 459.828c-.015 6.745-.03 13.49.02 20.691-.157.59-.294.786-.38 1.22-3.712.146-7.388.114-11.512-.015 2.155-.318 4.761-.75 7.358-.7 2.974.056 4.143-1.062 4.066-4.065-.143-5.608-.034-11.223.095-17.13.125-.296.353-.001.353-.001"/><path fill="#283593" d="M174.614 350.298c1.675 5.567 3.138 11.432 4.865 17.904.389 1.003.513 1.4.615 2.152a55 55 0 0 0 .095 2.488s-.065.046-.1.063c-1.919-7.425-3.803-14.867-5.475-22.607m246.936-7.519c-.734-1.53-1.311-3.472-2.204-5.941-.365-.966-.413-1.403-.42-2.218-.59-2.477-1.219-4.576-1.855-7.003-.073-.76-.14-1.19-.177-1.982-.303-1.763-.634-3.164-.965-4.565 0 0 .053-.042.082-.06 1.917 7.107 3.806 14.233 5.539 21.769m-101.486 82.295c1.48-7.182 2.96-14.363 4.77-21.746.33-.2.471-.08.491.333a881 881 0 0 1-5.07 21.542c-.062-.045-.191-.129-.191-.129m-65.979-36.149c-.56-3.714-1.121-7.427-1.72-11.5.793.971 2.064 2.206 2.382 3.651 1.245 5.659 2.19 11.384 3.227 17.517-.018.432-.221.603-.518.36-1.327-3.51-2.357-6.777-3.404-10.018-.016.026.033-.01.033-.01m246.967 46.422c-.776 4.842-1.874 9.877-3.086 15.289.845-4.781 1.804-9.94 3.086-15.29m-175.958-32.28c.757-4.212 1.582-8.363 2.688-12.75.28-.236.39-.17.46.28-.932 4.517-1.935 8.584-2.937 12.652 0 0-.141-.12-.21-.182m99.285-47.371c-1.152-3.503-2.091-7.313-3.07-11.499 1.068 3.48 2.176 7.336 3.07 11.499m-82.33-26.622c.724-2.632 1.447-5.264 2.5-8.042.331-.147.38-.105.294.093a2.7 2.7 0 0 0-.154.647c.006.038.067-.009-.184.263-.917 2.574-1.583 4.877-2.3 7.142-.05-.038-.155-.103-.155-.103M207.175 482.128c.351 1.075.639 2.55.906 4.422-.337-1.077-.654-2.55-.906-4.422m317.69-152.858c.146 1.29.023 2.864-.404 4.69-.158-1.301-.012-2.854.404-4.69"/><path fill="#283593" d="M340.974 332.974c.16-1.17.357-2.308.815-3.674.262-.227.368-.162.426.236-.34 1.443-.738 2.489-1.136 3.535zm-21.998 96.002c.162-1.172.36-2.312.822-3.677.266-.225.395-.141.49.263-.34 1.439-.774 2.474-1.208 3.51zm-69.954 222.02c-.333-1.113-.667-2.225-.92-3.746.079-.407.196-.497.454-.25.412 1.42.567 2.594.657 3.824z"/><path fill="#283593" d="M250.114 654.886a25 25 0 0 1-1.103-3.53c.011-.36.138-.475.47-.294.486 1.357.642 2.532.797 3.707 0 0-.107.081-.164.117m273.861-320.587c.147.992-.006 2.225-.419 3.724-.134-.984-.008-2.233.419-3.724M248.119 646.883c-.428-1.011-.795-2.062-1.17-3.468-.01-.355.062-.419.416-.287.547 1.296.74 2.46.933 3.625 0 0-.117.09-.18.13m46.857-113.908c.164-1.17.363-2.31.834-3.665.272-.217.364-.167.43.224-.342 1.44-.75 2.489-1.16 3.537zm89.149-79.092c-.419-1.027-.77-2.1-1.109-3.533.015-.362.162-.492.486-.302.489 1.357.653 2.525.817 3.693 0 0-.128.097-.194.142m141.734-128.636c.132.994 0 2.245-.467 3.676-.156-1.02.024-2.219.467-3.676M205.215 474.089c.454.728.832 1.85 1.217 3.335-.426-.738-.859-1.84-1.217-3.335m1.023 3.999c.42.755.755 1.9 1.118 3.417-.382-.762-.793-1.894-1.118-3.417m321.11-156.78c.017 1.025-.315 2.224-.97 3.606-.01-1.022.306-2.228.97-3.606m-291.69 273.909c.331.49.464 1.21.621 2.298-.257-.445-.538-1.257-.62-2.298"/><path fill="#E0E0E0" d="M794.652 441.302c.332-.245.74-.382.955-.373 3.935-.43 3.343-3.3 3.35-5.715.04-12.664.27-25.334-.098-37.987-.153-5.24 1.66-6.58 6.591-6.35 7.98.37 15.992.16 23.989.074 3.535-.038 5.534.35 4.85 5.027-.66 4.511.329 9.25.43 13.89.08 3.646-.066 7.298-.156 10.946-.135 5.431-.447 10.864-.362 16.291.02 1.235 1.358 2.45 2.43 3.804 2.667.776 4.995 1.988 7.314 1.97 11.12-.09 22.24-.473 33.357-.837 3.884-.127 5.935 1.197 5.719 5.467-.451 8.917-.854 17.844-.913 26.77-.025 3.794-1.459 4.85-5.035 4.804-12.147-.151-24.297-.118-36.443.031-1.321.016-2.628 1.248-3.808 2.206-.5.828-1.134 1.367-1.721 2.258-.336 2.248-1.032 4.14-1.049 6.038-.1 11.814-.148 23.632.011 35.445.048 3.58-.98 5.092-4.794 5.002a570 570 0 0 0-26.457.001c-3.72.085-4.92-1.258-4.875-4.925.161-12.978.079-25.96.053-38.94-.013-6.304-.878-7.151-7.273-7.165-11.483-.025-22.966-.008-34.448-.008h-5.527c0-10.434-.266-20.264.09-30.072.253-6.95.63-6.886 7.608-6.952 11.96-.114 23.92-.3 36.212-.7"/><path fill="#0D47A1" d="M748.734 440.59c14.942-.245 30.276-.258 45.963-.048a1541 1541 0 0 1-45.963.049"/><path fill="#E0E0E0" d="M418.885 334.998c.048.437.096.874.168 1.642.025 2.073-.306 3.893.078 5.547 3.405 14.663 6.929 29.3 10.453 43.935.189.782.697 1.488 1.359 2.427.302.198.252.2.204.573-.179 1.184-.562 2.05-.403 2.8 1.581 7.446 3.22 14.88 4.98 22.285.097.41 1.401.534 2.144.79.117.411.234.822.066 1.85-.295 2.868-.681 5.196-.237 7.353.954 4.632 2.135 9.242 3.604 13.736 1.235 3.777 3.01 7.378 4.545 11.057.101.424.203.848.291 1.6-.335 1.254-1.09 2.276-.913 3.093 2.694 12.353 5.425 24.698 8.32 37.005 3.385 14.386 6.99 28.72 10.396 43.1 1.516 6.405 2.705 12.886 4.213 19.292.313 1.33 1.382 2.48 2.455 3.814.352.1.547.274.632.642.629.199 1.174.03 1.72-.137-.098-.321-.088-.639.435-1.294 2.806-8.224 5.414-16.052 7.503-24.017.856-3.262.59-6.82.833-10.243.058-.417.116-.835.28-1.551.731-.978 1.728-1.562 1.925-2.347 1.783-7.132 3.387-14.309 5.12-21.453 2.718-11.198 5.682-22.338 8.193-33.581 2.285-10.235 4.107-20.573 5.847-30.945-.247-.507-.209-.934.248-1.784.463-1.164.508-1.906.553-2.647.04-.293.08-.586.49-.852.406-.117.44-.26.475-.404-.145.105-.29.21-.295-.035.083-1.066.026-1.78-.03-2.495.088-.399.177-.798.725-1.533 1.051-.856 2.041-1.29 2.175-1.91 2.202-10.208 4.416-20.417 6.363-30.676.926-4.88 1.3-9.867 1.923-14.805.05-.412.101-.824.603-1.648 1.901-5.84 3.442-11.248 4.74-16.713.338-1.42-.08-3.018-.151-4.533.019-.439.038-.877.15-1.632.846-1.069 2.048-1.704 2.278-2.59 2.014-7.768 3.67-15.635 5.94-23.323.35-1.184 3.284-2.256 5.034-2.273 16.92-.17 33.843-.103 50.766-.103 2.82 0 5.657-.186 8.454.07 1.697.156 3.332.996 5.31 1.772.28.673.244 1.101-.203 1.927-2.635 3.092-4.325 5.893-2.194 9.446-.09.399-.179.798-.732 1.591-.801.742-1.338 1.035-1.45 1.444-3.398 12.415-6.858 24.815-10.026 37.289-.603 2.375-.024 5.05.01 7.588-.045.42-.089.839-.577 1.667-1.58 3.608-4.792 6.374-2.516 10.29-.035.43-.07.862-.547 1.71-1.06 1.547-1.929 2.607-2.258 3.814-4.431 16.251-8.836 32.511-13.073 48.814-.36 1.38.527 3.085.835 4.639-.024.435-.048.87-.487 1.713-2.551 7-4.997 13.515-6.71 20.215-1.087 4.251-1.084 8.78-1.57 13.185-.078.408-.156.815-.665 1.6-1.277 1.563-2.579 2.638-2.891 3.95-1.541 6.472-2.898 12.992-4.144 19.529-.369 1.931-.166 3.972-.226 5.963-.088.4-.176.799-.722 1.591-3.326 4.314-4.305 8.667-3.445 13.44 0 0-.006-.148-.227.028-3.321 5.274-4.739 10.755-3.977 16.731-.016.446-.032.892-.43 1.712-.793.622-1.467.788-1.575 1.132-1.66 5.267-3.399 10.519-4.742 15.87-.332 1.322.674 2.98 1.066 4.484-.07.403-.138.807-.659 1.596-.744 2.39-1.038 4.394-1.331 6.398-.076.404-.152.807-.693 1.565-1.133 1.03-2.215 1.606-2.409 2.398a2311 2311 0 0 0-7.954 33.735c-.145.633.521 1.452.81 2.185-.02.43-.038.86-.165 1.595-1.927 4.93-4.043 9.463-5.49 14.2-1.676 5.495-2.501 11.257-4.31 16.699-.41 1.235-3.338 2.3-5.116 2.313-21.583.157-43.168.133-64.752.066-2.853-.009-5.704-.521-8.885-.887-.472-.468-.613-.85-.494-1.816.513-1.517 1.151-2.537.959-3.364a993 993 0 0 0-6.323-25.695c-.151-.577-1.606-.814-2.454-1.21-.117-.405-.234-.81-.107-1.798.157-2.623.397-4.752-.13-6.672-.363-1.326-1.786-2.36-2.735-3.526-.12-.403-.24-.807-.091-1.817-.72-6.537-1.67-12.475-2.785-18.382-.073-.388-1.402-.538-2.146-.8-.114-.408-.228-.817-.11-1.765.296-2.317.749-4.186.36-5.86-2.315-9.938-4.69-19.868-7.35-29.719-.815-3.021-2.592-5.783-3.929-8.664-.141-.386-.283-.773-.19-1.708-1-7.93-1.885-15.392-3.545-22.677-3.243-14.235-6.791-28.406-10.493-42.53-1.088-4.153-3.119-8.06-4.717-12.08-.109-.41-.218-.822-.09-1.815-1.807-10.13-3.84-19.679-5.96-29.21-.054-.244-1.064-.276-1.629-.407 0 0 .115-.083.124-.358a8 8 0 0 0-.489-1.443q-.528.644-1.058 1.287s-.04-.042-.375.058c-1.052 1.155-2.163 2.122-2.421 3.28-1.664 7.448-3.181 14.931-4.631 22.425-.194 1.002.261 2.13.416 3.2-.005.445-.01.89-.421 1.777-.854 1.283-1.502 2.078-1.717 2.976-2.651 11.085-5.297 22.173-7.782 33.297-.36 1.614.13 3.418.226 5.134-.064.407-.127.815-.643 1.625-1.139 4.03-1.825 7.657-2.512 11.285-.035.426-.07.851-.528 1.689-.73 2.395-1.036 4.378-1.344 6.362-.064.414-.128.829-.637 1.655-2.837 8.674-5.52 16.864-7.546 25.214-2.407 9.923-4.17 20-6.364 29.976-1.807 8.218-3.902 16.372-5.703 24.59-.317 1.443.184 3.065.307 4.605-.07.406-.14.813-.662 1.618-2.512 8.141-4.58 15.882-6.58 23.639-.032.12.76.452 1.169.686-.057.42-.113.84-.606 1.664-.747 2.4-1.058 4.395-1.368 6.391-.058.407-.117.813-.618 1.568-1.03.878-2.177 1.483-2.117 1.924.86 6.307-2.987 6.41-7.63 6.375-19.097-.145-38.197-.06-57.295-.061-8.668-.001-8.87-.35-10.757-8.738-.793-3.53-2.5-6.856-3.79-10.274-.12-.395-.24-.79-.128-1.746-.805-3.793-1.843-7.024-2.88-10.255-.13-.388-.258-.777-.195-1.653-.143-1.106-.479-1.726-.815-2.345a12 12 0 0 1-.475-1.449c.014-2.163.472-4.123.044-5.865-4.421-18.011-9.028-35.977-13.5-53.976-5.326-21.434-10.55-42.893-15.855-64.332-4.877-19.705-9.844-39.388-14.695-59.1-4.141-16.823-8.163-33.675-12.305-50.498-.16-.649-1.03-1.123-1.877-1.728-.427-.45-.545-.852-.435-1.816-1.138-5.12-2.505-9.675-3.873-14.232-.125-.396-.25-.793-.4-1.5-.626-4.902-.872-9.576-1.903-14.07-1.957-8.529-4.515-16.92-6.499-25.444-.666-2.86-1.66-6.51 3.374-7.646 2.02-.271 3.748-.319 6.243-.062 2.575.449 4.382.714 6.19.718 15.447.035 30.895-.04 46.34.109 1.697.016 4.616.909 4.879 1.932 2.29 8.926 3.884 18.03 6.142 26.967 1.373 5.437 3.554 10.671 5.372 15.997.102.419.205.838.297 1.58-.308.883-.93 1.492-.855 1.996.771 5.12 1.599 10.233 2.559 15.32.19 1.014 1.012 1.909 1.886 2.944.343.086.294.122.251.434 1.882 10.632 3.632 20.988 5.779 31.262 2.31 11.057 4.824 22.08 7.61 33.025.924 3.628 2.97 6.97 4.502 10.443.05.434.1.868-.046 1.874.049 3.512-.05 6.53.598 9.38 2.882 12.673 5.933 25.309 9.06 37.924.344 1.386 1.571 2.552 2.388 3.82.048.436.096.871-.045 1.836 1.276 7.9 2.707 15.275 4.27 22.623.129.61 1.148 1.029 1.754 1.536.129.395.258.79.27 1.631.144.75.406 1.055.668 1.36.093.394.186.789.328 1.79 3.558 2.315 3.752-.832 4.501-2.668.706-1.731.976-3.68 1.195-5.561.684-5.899 1.255-11.81 1.87-17.717.062-.412.126-.825.637-1.648 3.028-9.576 5.883-18.676 8.124-27.924 3.41-14.073 6.416-28.245 9.552-42.384 1.838-8.29 3.542-16.609 5.402-24.893 2.054-9.145 4.146-18.283 6.355-27.392 2.312-9.535 4.968-18.99 7.14-28.556 2.99-13.159 5.728-26.376 8.422-39.599.507-2.483.305-5.111.43-7.673 0 0-.06.047.418.087 19.122.082 37.764.093 56.407.184 5.401.026 11.292-1.596 15.283 3.964.067.43.133.86-.004 1.84.684 2.704-2.476 6.223 2.024 7.161"/><path fill="#ECEFF1" d="M247.082 639.387c1.315 3.024 3.02 6.35 3.815 9.88 1.885 8.387 2.088 8.737 10.756 8.738 19.098 0 38.198-.084 57.296.061 4.642.036 8.49-.068 7.629-6.375-.06-.44 1.088-1.046 2-1.637-.297 3.178-.92 6.417-1.569 9.789h-74.8c-.435-1.433-.907-2.984-1.654-4.805-.432-1.444-.588-2.62-1.01-4.032s-.577-2.586-.99-4.007c-.45-1.41-.643-2.575-1.154-3.903-.327-1.214-.335-2.264-.32-3.709m90.502-25.497c-.346-1.229-.847-2.85-.53-4.294 1.801-8.218 3.896-16.372 5.703-24.59 2.194-9.976 3.957-20.053 6.364-29.976 2.026-8.35 4.709-16.54 7.44-24.916-4.482 20.992-9.303 42.098-14.124 63.204-1.543 6.754-3.087 13.508-4.853 20.572m24.973-106.998c-.322-1.408-.812-3.212-.452-4.826 2.485-11.124 5.13-22.212 7.782-33.297.215-.898.863-1.693 1.642-2.65-2.693 13.412-5.72 26.938-8.972 40.773m17.989-70.949c.478-.245 1.488-.213 1.543.031 2.12 9.531 4.152 19.08 5.963 28.89-1.229-3.352-2.224-6.965-3.477-10.85-.42-1.44-.584-2.609-.998-4.03-1.148-4.724-2.046-9.195-3.03-14.041m-8.232 27.813c-.445-.81-.9-1.938-.706-2.94 1.45-7.494 2.967-14.977 4.63-22.426.26-1.157 1.37-2.124 2.449-3.269-1.786 9.399-3.934 18.887-6.373 28.635m-40.799 176.086c-.636.068-1.429-.264-1.398-.384 2-7.757 4.069-15.498 6.462-23.352-1.39 7.737-3.113 15.585-5.064 23.736m27.905-120.019a81 81 0 0 1 2.152-10.71c-.41 3.399-1.159 6.91-2.152 10.71m-1.904 8.05c.095-1.696.402-3.68 1.031-5.769-.058 1.757-.439 3.619-1.031 5.769m-27.978 120.042a24.5 24.5 0 0 1 1.03-5.808c-.052 1.772-.428 3.649-1.03 5.808m49.753-212.919c.097-.372.45-.8.802-1.23.166.39.332.778.419 1.451-.375.096-.67-.091-1.22-.221"/><path fill="#0D47A1" d="M836.525 440.463c1.655-.28 3.387-.323 5.629-.239-1.11.318-2.728.51-4.758.754-.54-.057-.667-.166-.871-.515m-.098-44.793c.303 1.092.39 2.52.347 4.473-.273-1.028-.418-2.582-.347-4.472m.009-6.06c.283.776.361 1.882.311 3.53-.257-.704-.386-1.951-.311-3.53M691.421 440.82c.969-.339 2.407-.842 3.844-.843 13.461-.005 26.922.077 40.887.245-6.934.3-14.372.565-21.812.657-7.483.093-14.967.015-22.919-.058m46.134 18.506c-.186.501-.414.206-.512.047-.017-5.86.064-11.561.39-17.649.267 5.443.288 11.271.122 17.602m-88.705-20.8c-.224-4.953-.382-10.369-.354-16.15.263 4.985.341 10.336.353 16.15"/><path fill="#E0E0E0" d="M722.592 481.449c-3.976.25-8.31.318-13.096.29 3.945-.222 8.341-.347 13.096-.29m-18.975.023c-2.668.24-5.678.298-9.128.26a92 92 0 0 1 9.128-.26"/><path fill="#ECEFF1" d="M566.35 453.776c-.542-1.254-1.428-2.958-1.07-4.339 4.238-16.303 8.643-32.563 13.074-48.814.329-1.207 1.198-2.267 2.149-3.506-1.017 5.547-2.366 11.205-3.743 17.265-3.41 13.299-6.794 26.196-10.41 39.394m-42.975 169.026c-.529-.439-1.195-1.258-1.05-1.891a2311 2311 0 0 1 7.954-33.735c.194-.792 1.276-1.367 2.286-2.114-2.757 12.436-5.854 24.941-9.19 37.74m34.199-133.918c.26-4.1.258-8.629 1.345-12.88 1.713-6.7 4.159-13.214 6.606-19.903-2.367 10.762-5.047 21.62-7.951 32.783m-7.953 31.03c-.138-1.674-.34-3.715.028-5.646 1.246-6.537 2.603-13.057 4.144-19.53.312-1.31 1.614-2.386 2.784-3.655-2.037 9.448-4.398 18.981-6.956 28.831m-14.038 54.996c-.604-1.195-1.61-2.853-1.278-4.176 1.343-5.35 3.081-10.602 4.742-15.87.108-.343.782-.509 1.497-.806-1.38 6.816-3.065 13.68-4.961 20.853m5.769-23.123c-1.062-5.743.356-11.224 3.751-16.49-.954 5.307-2.203 10.782-3.751 16.49m4.188-16.778c-1.144-4.521-.165-8.874 3.04-12.904-.695 4.144-1.726 8.398-3.04 12.904m-11.95 47.908c.084-1.709.378-3.712.999-5.82-.045 1.773-.418 3.65-1 5.82m-145.46-115.53c1.606 3.631 3.637 7.538 4.725 11.69 3.702 14.125 7.25 28.296 10.493 42.531 1.66 7.285 2.545 14.747 3.524 22.368-6.422-25.24-12.586-50.72-18.742-76.589m18.926 79.006c1.364 2.48 3.141 5.243 3.957 8.264 2.66 9.85 5.034 19.78 7.348 29.72.39 1.673-.063 3.542-.355 5.54-3.812-14.227-7.395-28.675-10.95-43.524m19.028 78.995c.87.004 2.325.24 2.476.818a991 991 0 0 1 6.322 25.695c.193.827-.445 1.847-.99 3.06-2.806-9.54-5.318-19.36-7.808-29.573m-7.998-32.992c.77-.133 2.1.017 2.172.405 1.115 5.907 2.065 11.845 2.779 18.066-1.842-5.832-3.41-11.954-4.951-18.47m5.033 20.986c.964.782 2.387 1.817 2.75 3.143.527 1.92.287 4.05.13 6.354-1.129-2.862-2.012-5.988-2.88-9.497M584.495 382.85c-.277-2.245-.856-4.92-.253-7.296 3.168-12.474 6.628-24.874 10.026-37.29.112-.408.649-.7 1.324-1.162-3.141 13.95-6.621 28.013-10.094 42.078-.277 1.12-.508 2.252-1.003 3.67m-3.1 11.954c-2.512-3.621.7-6.387 2.168-9.698-.423 3.06-1.178 6.232-2.168 9.698m15.255-59.88c-2.331-3.247-.64-6.048 1.892-8.833-.358 2.782-1.026 5.654-1.893 8.833"/><path fill="#0D47A1" d="M842.735 440.57c13.038-.306 26.474-.39 40.415-.363-7.88.297-16.264.534-24.65.652-5.12.072-10.244-.037-15.765-.288"/><path fill="#E0E0E0" d="M883.658 481.02c-2.294.272-5.023.524-8.18.679 2.297-.299 5.02-.5 8.18-.68m-34.924.427c-.514.223-1.244.29-2.33.26.468-.204 1.292-.31 2.33-.26m22.056.03c-.263.205-.69.268-1.432.234.213-.19.74-.283 1.431-.234m-29.996.014c-.262.21-.692.277-1.44.252.213-.193.743-.294 1.44-.251m18.072.012c.097.102-.365.27-.597.186-.037-.343.206-.41.597-.186"/><path fill="#ECEFF1" d="M271.923 463.606c-1.572-3.076-3.617-6.418-4.54-10.046-2.787-10.945-5.3-21.968-7.611-33.025-2.147-10.274-3.897-20.63-5.763-31.288 1.09 2.93 2.12 6.196 3.345 9.79a6036 6036 0 0 1 14.569 64.569m12.003 52.994c-.859-.867-2.086-2.033-2.43-3.42-3.127-12.614-6.178-25.25-9.06-37.923-.648-2.85-.55-5.868-.58-9.052a675 675 0 0 1 6.839 26.45c1.858 7.823 3.522 15.693 5.23 23.945m14.546 5.517c-.391 5.62-.962 11.532-1.646 17.43-.219 1.882-.489 3.83-1.195 5.562-.749 1.836-.943 4.983-4.508 2.975.521-.358 1.574-.327 1.604-.486.846-4.545 1.589-9.11 2.351-14.099.411-1.476.82-2.525 1.205-3.935a78 78 0 0 1 2.19-7.447m-8.609 20.488c-.606-.116-1.625-.536-1.755-1.145-1.562-7.348-2.993-14.724-4.243-22.294 2.144 7.549 4.072 15.299 5.998 23.44m.96 3.147c-.284-.07-.546-.375-.668-.815.458.002.64.24.668.815"/><path fill="#E0E0E0" d="M637.65 481.521c-2.036.254-4.396.322-7.191.304 2-.22 4.434-.355 7.192-.304m-14.892.043c-.525.228-1.267.288-2.372.261.475-.2 1.316-.315 2.372-.261"/><path fill="#ECEFF1" d="M481.5 522.154c-.013 3.118.254 6.675-.602 9.937-2.089 7.965-4.697 15.793-7.43 23.787 2.378-11.066 5.09-22.242 8.032-33.724m-8.857 35.341a3.4 3.4 0 0 1-1.463.16c.286-.19.717-.128 1.463-.16m-26.788-108.892c-1.545-3.29-3.319-6.89-4.554-10.667-1.469-4.494-2.65-9.104-3.604-13.736-.444-2.157-.058-4.485.222-7.031 2.829 10.15 5.387 20.598 7.936 31.434m-7.978-33.996c-.752.134-2.056.01-2.154-.4-1.759-7.404-3.398-14.839-4.979-22.284-.159-.75.224-1.617.427-2.799 2.286 8.117 4.5 16.605 6.706 25.483m-188.013-48.004c-1.827-4.93-4.008-10.164-5.381-15.601-2.258-8.936-3.852-18.04-6.142-26.967-.263-1.023-3.182-1.916-4.878-1.932-15.446-.149-30.894-.074-46.342-.109-1.807-.004-3.614-.27-5.762-.646 18.958-.253 38.257-.274 58.01-.23 3.803 15.072 7.154 30.08 10.495 45.485m167.03-40.968c-4.02-5.198-9.91-3.576-15.312-3.602-18.643-.091-37.285-.102-56.414-.221-.485-.078-.409-.49-.298-.669 23.452-.173 46.793-.168 70.597-.118.793 1.446 1.124 2.847 1.427 4.61m98.593 49.498c-.388 4.635-.76 9.621-1.687 14.502-1.947 10.259-4.16 20.468-6.363 30.676-.134.62-1.124 1.054-2.042 1.631 3.067-15.463 6.461-30.984 10.092-46.809m5.187-22.896c.312 1.214.73 2.813.393 4.232-1.3 5.465-2.84 10.872-4.63 16.42-.257-.885-.173-1.888-.11-3.272 1.355-5.946 2.73-11.512 4.347-17.38m-16.294 71.72c.213.512.27 1.226.022 2.08-.262-.534-.22-1.205-.021-2.08m-.681 3.767c.152.557.107 1.299-.253 2.158-.191-.58-.068-1.277.252-2.158m1.115-1.44c.013.143-.021.287-.014.24.041-.189-.034-.24.014-.24m-160.308-104.25c.126 2.29.328 4.918-.179 7.401-2.694 13.223-5.432 26.44-8.422 39.6-2.172 9.565-4.828 19.02-7.14 28.555-2.209 9.109-4.3 18.247-6.355 27.392-1.86 8.284-3.564 16.603-5.402 24.893-3.136 14.139-6.142 28.31-9.552 42.384-2.241 9.248-5.096 18.348-8.016 27.63 1.501-7.774 3.384-15.653 5.149-23.558.39-1.75.368-3.593.513-5.827 2.073-8.43 4.169-16.426 6.242-24.835 2.562-12.19 5.148-23.966 7.734-36.17.436-1.463.87-2.498 1.272-3.892 1.643-7.416 3.32-14.474 4.975-21.946.982-4.48 1.985-8.548 2.968-13.027 3.89-16.74 7.825-33.06 11.677-49.4.564-2.39.734-4.873 1.098-7.739.41-1.47.808-2.516 1.197-3.922.658-2.662 1.324-4.965 2.241-7.54M244.079 627.377c1.056 2.846 2.094 6.077 2.888 9.56-1.131-2.892-2.02-6.034-2.888-9.56m-1.022-4.084c.367.32.703.94.823 1.74-.43-.36-.641-.901-.823-1.74m-62.963-252.939c1.39 4.2 2.758 8.757 3.88 13.562-1.228-3.37-2.212-6.99-3.49-10.842-.335-.942-.374-1.653-.39-2.72m238.832-35.734c-4.541-.56-1.38-4.08-2.06-6.454.841 1.878 1.47 3.977 2.06 6.454"/></svg>