<svg xmlns="http://www.w3.org/2000/svg" viewBox="0 0 32 32">
  <path d="M27.57471,23.96726a9.94144,9.94144,0,0,0-3.75095,1.7259,22.63036,22.63036,0,0,1-5.53666,2.5035,1.54615,1.54615,0,0,1-.93131.52116,58.93483,58.93483,0,0,1-6.10913.54687c-1.10223.0085-1.77721-.28193-1.96524-.73489a1.4901,1.4901,0,0,1,.8203-1.965,3.56714,3.56714,0,0,1-.487-.35884c-.16232-.16231-.33324-.48706-.38455-.36745-.21352.52116-.32464,1.79432-.8971,2.3669-.7861.79449-2.27278.52965-3.15278.0683-.96551-.51266.06842-1.7174.06842-1.7174a.692.692,0,0,1-.93992-.32475,4.59176,4.59176,0,0,1-.63228-2.79393,5.18259,5.18259,0,0,1,1.67471-2.75972,8.8429,8.8429,0,0,1,.62378-4.1696,9.89616,9.89616,0,0,1,2.99906-3.46891s-1.837-2.02483-1.15344-3.862c.44425-1.19614.62367-1.18764.76889-1.23895a3.44089,3.44089,0,0,0,1.37567-.8117,4.98824,4.98824,0,0,1,4.17809-1.60629s1.09374-3.35779,2.119-2.69992a17.38786,17.38786,0,0,1,1.45246,2.73413s1.21324-.70919,1.35-.44425a10.73762,10.73762,0,0,1,.49556,5.8101A13.27426,13.27426,0,0,1,17.09957,16.047c-.12811.21362,1.46957.8886,2.47779,3.68253.93131,2.55471.10262,4.69937.24784,4.9386.0256.0427.0342.05981.0342.05981s1.068.0854,3.21258-1.239a8.0501,8.0501,0,0,1,4.05-1.52088,1.02576,1.02576,0,0,1,.45286,1.99934Z" style="fill: #0288d1"/>
</svg>
