<?xml version="1.0" encoding="UTF-8" standalone="no"?>
<svg
   xmlns:dc="http://purl.org/dc/elements/1.1/"
   xmlns:cc="http://creativecommons.org/ns#"
   xmlns:rdf="http://www.w3.org/1999/02/22-rdf-syntax-ns#"
   xmlns:svg="http://www.w3.org/2000/svg"
   xmlns="http://www.w3.org/2000/svg"
   xmlns:sodipodi="http://sodipodi.sourceforge.net/DTD/sodipodi-0.dtd"
   xmlns:inkscape="http://www.inkscape.org/namespaces/inkscape"
   viewBox="0 0 289.99999 290.00001"
   version="1.1"
   id="svg4"
   sodipodi:docname="yarn.svg"
   width="290"
   height="290"
   inkscape:version="0.92.1 r15371">
  <metadata
     id="metadata10">
    <rdf:RDF>
      <cc:Work
         rdf:about="">
        <dc:format>image/svg+xml</dc:format>
        <dc:type
           rdf:resource="http://purl.org/dc/dcmitype/StillImage" />
        <dc:title></dc:title>
      </cc:Work>
    </rdf:RDF>
  </metadata>
  <defs
     id="defs8" />
  <sodipodi:namedview
     pagecolor="#ffffff"
     bordercolor="#666666"
     borderopacity="1"
     objecttolerance="10"
     gridtolerance="10"
     guidetolerance="10"
     inkscape:pageopacity="0"
     inkscape:pageshadow="2"
     inkscape:window-width="1366"
     inkscape:window-height="705"
     id="namedview6"
     showgrid="false"
     inkscape:zoom="0.76030929"
     inkscape:cx="144.3"
     inkscape:cy="155.2"
     inkscape:window-x="-8"
     inkscape:window-y="-8"
     inkscape:window-maximized="1"
     inkscape:current-layer="svg4" />
  <path
     d="m 250.73285,218.41812 c -12.38911,2.94241 -18.6611,5.65254 -33.99261,15.64125 -24.00389,15.48638 -50.17587,22.68754 -50.17587,22.68754 0,0 -2.1681,3.25215 -8.44009,4.72335 -10.84046,2.6327 -51.64707,4.87822 -55.3638,4.95565 -9.988724,0.0775 -16.105845,-2.55525 -17.809346,-6.65914 -5.187937,-12.38911 7.433463,-17.80934 7.433463,-17.80934 0,0 -2.787549,-1.70351 -4.413619,-3.25214 -1.471206,-1.47122 -3.019844,-4.41362 -3.484437,-3.32957 -1.935795,4.72334 -2.942411,16.26069 -8.130348,21.44863 -7.123735,7.20117 -20.596886,4.80078 -28.572372,0.61946 -8.749805,-4.64592 0.619456,-15.56383 0.619456,-15.56383 0,0 -4.723347,2.78756 -8.51751,-2.9424 -3.407004,-5.26537 -6.581712,-14.24746 -5.72996,-25.32023 1.084046,-12.77628 15.176653,-25.0105 15.176653,-25.0105 0,0 -2.477823,-18.66109 5.652529,-37.78678 7.35603,-17.42218 27.178597,-31.43734 27.178597,-31.43734 0,0 -16.647859,-18.35136 -10.453307,-34.99921 4.026459,-10.840474 5.65253,-10.763038 6.968871,-11.227632 4.645914,-1.780932 9.136964,-3.71673 12.466536,-7.356028 16.647864,-17.964202 37.864204,-14.557198 37.864204,-14.557198 0,0 9.91129,-30.430736 19.20312,-24.468479 2.86497,1.858363 13.16342,24.778206 13.16342,24.778206 0,0 10.99533,-6.426847 12.23425,-4.026456 6.65913,12.931125 7.43345,37.631905 4.49104,52.653687 -4.95564,24.77821 -17.34475,38.0965 -22.30039,46.45914 -1.16147,1.93579 13.31829,8.05291 22.45526,33.37315 8.44008,23.15214 0.92917,42.58754 2.24552,44.75563 0.2323,0.38716 0.30972,0.54204 0.30972,0.54204 0,0 9.67899,0.77431 29.1144,-11.22765 10.37588,-6.42684 22.68755,-13.62801 36.70272,-13.78287 13.55059,-0.23229 14.24747,15.71868 4.1039,18.11906 z"
     id="path2"
     inkscape:connector-curvature="0"
     style="fill:#2c8ebb;stroke-width:0.77431899" />
</svg>
