<svg xmlns="http://www.w3.org/2000/svg" viewBox="0 0 32 32"><path fill="#0288d1" d="M27.575 23.967a9.9 9.9 0 0 0-3.751 1.726 22.6 22.6 0 0 1-5.537 2.504 1.55 1.55 0 0 1-.931.52 59 59 0 0 1-6.11.548c-1.102.008-1.777-.282-1.965-.735a1.49 1.49 0 0 1 .82-1.965 3.6 3.6 0 0 1-.486-.359c-.163-.162-.334-.487-.385-.367-.213.52-.324 1.794-.897 2.366-.786.795-2.273.53-3.153.069-.965-.513.069-1.718.069-1.718a.69.69 0 0 1-.94-.324 4.6 4.6 0 0 1-.632-2.794 5.2 5.2 0 0 1 1.674-2.76 8.84 8.84 0 0 1 .624-4.17 9.9 9.9 0 0 1 3-3.469S7.136 11.015 7.82 9.177c.444-1.196.623-1.187.769-1.239a3.44 3.44 0 0 0 1.375-.811 4.99 4.99 0 0 1 4.178-1.607s1.094-3.357 2.12-2.7a17.4 17.4 0 0 1 1.452 2.735s1.213-.71 1.35-.445a10.74 10.74 0 0 1 .495 5.81 13.3 13.3 0 0 1-2.46 5.127c-.129.214 1.47.889 2.477 3.683.932 2.554.103 4.699.248 4.938.026.043.034.06.034.06s1.068.085 3.213-1.24a8.05 8.05 0 0 1 4.05-1.52 1.026 1.026 0 0 1 .453 2Z"/></svg>