<?xml version="1.0" encoding="UTF-8" standalone="no"?>
<svg
   xmlns:dc="http://purl.org/dc/elements/1.1/"
   xmlns:cc="http://creativecommons.org/ns#"
   xmlns:rdf="http://www.w3.org/1999/02/22-rdf-syntax-ns#"
   xmlns:svg="http://www.w3.org/2000/svg"
   xmlns="http://www.w3.org/2000/svg"
   xmlns:sodipodi="http://sodipodi.sourceforge.net/DTD/sodipodi-0.dtd"
   xmlns:inkscape="http://www.inkscape.org/namespaces/inkscape"
   viewBox="0 0 154 140"
   version="1.1"
   id="svg901"
   sodipodi:docname="ziglang.svg"
   inkscape:version="1.0.1 (3bc2e813f5, 2020-09-07)">
  <metadata
     id="metadata907">
    <rdf:RDF>
      <cc:Work
         rdf:about="">
        <dc:format>image/svg+xml</dc:format>
        <dc:type
           rdf:resource="http://purl.org/dc/dcmitype/StillImage" />
      </cc:Work>
    </rdf:RDF>
  </metadata>
  <defs
     id="defs905" />
  <sodipodi:namedview
     pagecolor="#ffffff"
     bordercolor="#666666"
     borderopacity="1"
     objecttolerance="10"
     gridtolerance="10"
     guidetolerance="10"
     inkscape:pageopacity="0"
     inkscape:pageshadow="2"
     inkscape:window-width="1267"
     inkscape:window-height="860"
     id="namedview903"
     showgrid="false"
     inkscape:zoom="3.0557114"
     inkscape:cx="69.307785"
     inkscape:cy="81.678914"
     inkscape:window-x="157"
     inkscape:window-y="0"
     inkscape:window-maximized="0"
     inkscape:current-layer="svg901" />
  <g
     fill="#F7A41D"
     id="g899"
     style="fill:#f9a825;fill-opacity:1"
     transform="translate(0.46280992)">
    <g
       id="g877"
       style="fill:#f9a825;fill-opacity:1">
      <polygon
         points="46,22 28,44 19,30 "
         id="polygon871"
         style="fill:#f9a825;fill-opacity:1" />
      <polygon
         points="22,44 22,95 31,95 20,100 12,117 0,117 0,22 46,22 33,33 28,44 "
         shape-rendering="crispEdges"
         id="polygon873"
         style="fill:#f9a825;fill-opacity:1" />
      <polygon
         points="31,95 12,117 4,106 "
         id="polygon875"
         style="fill:#f9a825;fill-opacity:1" />
    </g>
    <g
       id="g889"
       style="fill:#f9a825;fill-opacity:1">
      <polygon
         points="56,22 62,36 37,44 "
         id="polygon879"
         style="fill:#f9a825;fill-opacity:1" />
      <polygon
         points="37,44 56,32 56,22 111,22 111,44 "
         shape-rendering="crispEdges"
         id="polygon881"
         style="fill:#f9a825;fill-opacity:1" />
      <polygon
         points="116,95 97,117 90,104 "
         id="polygon883"
         style="fill:#f9a825;fill-opacity:1" />
      <polygon
         points="42,117 42,95 116,95 100,104 97,117 "
         shape-rendering="crispEdges"
         id="polygon885"
         style="fill:#f9a825;fill-opacity:1" />
      <polygon
         points="101,22 150,0 52,117 3,140 "
         id="polygon887"
         style="fill:#f9a825;fill-opacity:1" />
    </g>
    <g
       id="g897"
       style="fill:#f9a825;fill-opacity:1">
      <polygon
         points="141,22 140,40 122,45 "
         id="polygon891"
         style="fill:#f9a825;fill-opacity:1" />
      <polygon
         points="120,105 125,95 131,95 131,45 122,45 132,36 141,22 153,22 153,117 106,117 "
         shape-rendering="crispEdges"
         id="polygon893"
         style="fill:#f9a825;fill-opacity:1" />
      <polygon
         points="125,95 130,110 106,117 "
         id="polygon895"
         style="fill:#f9a825;fill-opacity:1" />
    </g>
  </g>
</svg>
