<svg xmlns="http://www.w3.org/2000/svg" viewBox="0 0 32 32">
  <rect x="2" y="8" width="6" height="4" style="fill: #f9a825"/>
  <rect x="10" y="8" width="12" height="4" style="fill: #f9a825"/>
  <rect x="10" y="20" width="12" height="4" style="fill: #f9a825"/>
  <rect x="24" y="20" width="2" height="4" style="fill: #f9a825"/>
  <polygon points="8 20 5 24 2 24 2 12 6 12 6 20 8 20" style="fill: #f9a825"/>
  <polygon points="22 12 16 12 10 20 16 20 22 12" style="fill: #f9a825"/>
  <polyline points="16 20 10 20 4 28" style="fill: #f9a825"/>
  <polyline points="16 12 22 12 28 4" style="fill: #f9a825"/>
  <polygon points="30 8 30 24 26 24 26 12 24 12 27 8 30 8" style="fill: #f9a825"/>
</svg>
