<?xml version="1.0" encoding="UTF-8"?>
<svg xmlns="http://www.w3.org/2000/svg" xmlns:xlink="http://www.w3.org/1999/xlink" width="23pt" height="24pt" viewBox="0 0 23 24" version="1.1">
<g id="surface14">
<path style=" stroke:none;fill-rule:evenodd;fill:rgb(82.05719%,19.05365%,22.137451%);fill-opacity:1;" d="M 0.5 8.417969 L 0.5 8.507813 L 0.519531 8.519531 L 2.566406 10.816406 L 2.625 10.875 L 2.75 11.019531 L 3.636719 12.019531 L 3.636719 12.027344 L 3.578125 12.082031 L 3.335938 12.363281 L 0.511719 15.53125 L 0.5 15.539063 L 0.5 15.628906 L 0.578125 15.636719 L 0.902344 15.71875 L 2.773438 16.121094 L 2.773438 16.128906 L 5.128906 16.648438 L 5.144531 16.648438 L 5.144531 16.699219 L 5.105469 16.976563 L 5.105469 17.066406 L 5.054688 17.519531 L 5.054688 17.609375 L 5.015625 17.878906 L 5.015625 17.96875 L 4.964844 18.421875 L 4.964844 18.511719 L 4.910156 18.960938 L 4.910156 19.050781 L 4.871094 19.320313 L 4.871094 19.410156 L 4.820313 19.863281 L 4.820313 19.953125 L 4.765625 20.402344 L 4.765625 20.492188 L 4.730469 20.765625 L 4.730469 20.855469 L 4.675781 21.304688 L 4.675781 21.417969 L 4.714844 21.417969 L 8.726563 19.65625 L 9.050781 19.507813 L 9.070313 19.507813 L 9.265625 19.851563 L 9.859375 20.855469 L 9.875 20.890625 L 10.816406 22.503906 L 10.992188 22.792969 L 11.4375 23.558594 L 11.445313 23.582031 L 11.546875 23.582031 L 11.550781 23.558594 L 11.570313 23.53125 L 12.1875 22.488281 L 12.203125 22.441406 L 12.863281 21.304688 L 13.210938 20.710938 L 13.921875 19.507813 L 13.976563 19.523438 L 18.277344 21.417969 L 18.316406 21.417969 L 18.316406 21.324219 L 18.164063 19.871094 L 18.164063 19.78125 L 18.128906 19.511719 L 18.128906 19.421875 L 18.089844 19.152344 L 18.089844 19.058594 L 18.054688 18.789063 L 18.054688 18.699219 L 18.019531 18.429688 L 18.019531 18.339844 L 17.984375 18.070313 L 17.984375 17.976563 L 17.945313 17.707031 L 17.945313 17.617188 L 17.910156 17.347656 L 17.910156 17.257813 L 17.875 16.988281 L 17.875 16.894531 L 17.847656 16.707031 L 17.847656 16.648438 L 19.644531 16.257813 L 19.691406 16.25 L 20.195313 16.132813 L 20.226563 16.132813 L 20.226563 16.121094 L 20.480469 16.066406 L 20.511719 16.054688 L 20.558594 16.054688 L 20.980469 15.957031 L 21.007813 15.945313 L 21.054688 15.945313 L 21.269531 15.890625 L 21.304688 15.890625 L 22.421875 15.636719 L 22.5 15.628906 L 22.5 15.558594 L 22.484375 15.542969 L 21.171875 14.066406 L 21.140625 14.035156 L 20.925781 13.792969 L 19.351563 12.027344 L 19.351563 12.019531 L 19.675781 11.664063 L 20.117188 11.160156 L 22.484375 8.507813 L 22.5 8.496094 L 22.5 8.425781 L 22.460938 8.417969 L 21.042969 8.109375 L 20.632813 8.015625 L 20.582031 8.003906 L 17.847656 7.40625 L 17.847656 7.355469 L 18.324219 2.660156 L 18.324219 2.636719 L 18.277344 2.636719 L 17.945313 2.785156 L 17.933594 2.800781 L 17.90625 2.800781 L 14.265625 4.398438 L 13.9375 4.546875 L 13.921875 4.546875 L 11.6875 0.710938 L 11.578125 0.550781 L 11.5625 0.5 L 11.429688 0.5 L 11.417969 0.53125 L 10.910156 1.40625 L 10.410156 2.246094 L 9.070313 4.546875 L 9.050781 4.546875 L 4.804688 2.679688 L 4.695313 2.628906 L 4.675781 2.628906 L 4.675781 2.730469 L 4.703125 2.910156 L 4.703125 3.003906 L 4.847656 4.355469 L 4.847656 4.445313 L 4.882813 4.722656 L 4.882813 4.8125 L 5.125 7.167969 L 5.125 7.25 L 5.144531 7.339844 L 5.144531 7.40625 L 2.558594 7.964844 L 2.515625 7.980469 L 2.011719 8.089844 L 1.984375 8.101563 L 1.9375 8.101563 L 0.730469 8.371094 L 0.6875 8.378906 Z M 6.648438 11.4375 L 6.597656 11.445313 L 4.28125 12.308594 L 4.054688 12.5625 L 2.226563 14.613281 L 2.183594 14.675781 L 2.351563 14.621094 L 4.867188 13.757813 L 5.078125 13.488281 L 5.097656 13.46875 L 5.105469 13.441406 L 6.640625 11.460938 Z M 1.714844 8.832031 L 1.710938 8.84375 L 2.019531 9.1875 L 4.191406 11.625 L 4.246094 11.609375 L 7.117188 10.542969 L 5.523438 8.285156 L 5.355469 8.042969 L 2.878906 8.582031 L 2.832031 8.59375 L 2.460938 8.679688 L 2.308594 8.703125 L 1.839844 8.8125 Z M 5.046875 14.402344 L 2.324219 15.332031 L 2.316406 15.339844 L 3.136719 15.511719 L 5.453125 16.027344 L 5.511719 16.023438 L 6.933594 15.570313 L 6.96875 15.558594 L 7.457031 15.410156 L 7.960938 15.25 L 7.96875 15.242188 L 5.988281 14.664063 L 5.867188 14.621094 L 5.40625 14.484375 L 5.09375 14.394531 Z M 5.476563 19.953125 L 5.441406 20.363281 L 8.59375 18.980469 L 8.859375 18.863281 L 8.867188 18.582031 L 8.839844 17.820313 L 8.8125 16.320313 L 8.800781 15.9375 L 8.792969 15.6875 L 7.753906 16.007813 L 7.421875 16.117188 L 7.417969 16.132813 L 5.816406 16.636719 L 5.800781 16.789063 L 5.746094 17.246094 L 5.710938 17.699219 L 5.675781 17.976563 L 5.65625 18.230469 L 5.605469 18.691406 L 5.566406 19.140625 L 5.53125 19.421875 L 5.511719 19.671875 Z M 5.519531 4.339844 L 5.503906 4.332031 L 5.503906 4.34375 L 5.628906 5.609375 L 5.773438 7.050781 L 5.824219 7.503906 L 5.832031 7.546875 L 6.425781 8.402344 L 7.265625 9.589844 L 7.28125 9.597656 L 7.199219 6.617188 L 6.390625 5.515625 L 5.699219 4.597656 L 5.675781 4.550781 Z M 6.089844 3.980469 L 6.082031 3.972656 L 6.089844 3.980469 L 6.097656 4.003906 L 7.152344 5.410156 L 7.738281 6.210938 L 8.828125 6.605469 L 8.84375 6.605469 L 10.507813 7.199219 L 10.507813 7.1875 L 8.992188 5.253906 L 7.34375 4.53125 L 6.148438 4.003906 Z M 6.648438 11.4375 L 6.65625 11.429688 Z M 6.671875 12.515625 L 5.640625 13.859375 L 7.734375 14.476563 L 7.773438 14.492188 L 7.863281 14.511719 L 8.980469 14.84375 L 10.878906 12.273438 L 10.949219 12.171875 L 10.410156 11.988281 L 9.589844 11.714844 L 8.804688 11.445313 L 7.957031 11.167969 L 7.789063 11.101563 L 7.753906 11.109375 Z M 8.957031 7.363281 L 7.871094 6.972656 L 7.878906 7.234375 L 7.894531 7.5625 L 7.910156 8.546875 L 7.921875 8.863281 L 7.957031 10.179688 L 7.96875 10.460938 L 8.289063 10.570313 L 9.136719 10.851563 L 9.945313 11.121094 L 10.035156 11.164063 L 10.773438 11.410156 L 11.171875 11.539063 L 11.160156 8.140625 L 10 7.730469 L 9.945313 7.707031 Z M 9.484375 16.375 L 9.46875 16.367188 L 9.476563 16.457031 L 9.53125 18.710938 L 9.539063 18.972656 L 9.621094 19.113281 L 10.15625 20.039063 L 10.601563 20.800781 L 10.613281 20.820313 L 11.125 21.691406 L 11.152344 21.746094 L 11.171875 21.753906 L 11.160156 18.816406 L 10.714844 18.175781 L 10.605469 18.007813 L 10.566406 17.960938 L 9.558594 16.492188 Z M 11.484375 7.347656 L 11.496094 7.359375 L 12.066406 6.632813 L 13.367188 4.96875 L 13.375 4.941406 L 13 4.289063 L 11.496094 1.730469 L 11.484375 1.742188 L 11.167969 2.28125 L 9.648438 4.886719 L 9.617188 4.957031 L 11.15625 6.925781 L 11.199219 6.980469 Z M 10.191406 16.222656 L 11.492188 18.117188 L 11.503906 18.109375 L 12.574219 16.535156 L 12.84375 16.15625 L 12.894531 16.074219 L 13.359375 15.382813 L 13.457031 15.253906 L 13.449219 15.21875 L 13.070313 14.707031 L 13.035156 14.652344 L 11.515625 12.589844 L 11.492188 12.574219 L 11.324219 12.800781 L 11.316406 12.8125 L 9.535156 15.226563 L 9.542969 15.265625 L 10.085938 16.046875 Z M 11.832031 18.816406 L 11.820313 21.753906 L 11.839844 21.746094 L 12.414063 20.765625 L 12.621094 20.394531 L 12.636719 20.367188 L 13.453125 18.976563 L 13.464844 18.65625 L 13.492188 17.179688 L 13.515625 16.433594 L 13.519531 16.367188 L 13.511719 16.367188 L 11.929688 18.671875 Z M 11.832031 8.140625 L 11.820313 11.539063 L 12.210938 11.410156 L 12.996094 11.140625 L 13.84375 10.859375 L 14.652344 10.589844 L 15.023438 10.460938 L 15.035156 10.171875 L 15.070313 8.546875 L 15.078125 8.214844 L 15.109375 7.222656 L 15.121094 6.972656 L 13.628906 7.503906 Z M 12.488281 7.175781 L 12.480469 7.199219 L 13.253906 6.917969 L 13.351563 6.894531 L 15.25 6.210938 L 15.308594 6.132813 L 16.894531 4.003906 L 16.902344 3.976563 L 15.289063 4.691406 L 14.171875 5.179688 L 13.996094 5.257813 L 13.34375 6.09375 Z M 12.554688 11.996094 L 12.039063 12.171875 L 12.046875 12.191406 L 12.648438 12.992188 L 12.839844 13.253906 L 14 14.839844 L 14.019531 14.84375 L 14.640625 14.65625 L 14.757813 14.621094 L 17.175781 13.914063 L 17.210938 13.898438 L 17.351563 13.859375 L 17.207031 13.671875 L 15.238281 11.109375 L 15.203125 11.101563 L 15.035156 11.167969 L 14.1875 11.445313 L 13.402344 11.714844 Z M 17.460938 20.320313 L 17.546875 20.363281 L 17.460938 19.429688 L 17.414063 19.070313 L 17.378906 18.617188 L 17.34375 18.339844 L 17.324219 18.085938 L 17.28125 17.625 L 17.234375 17.175781 L 17.199219 16.894531 L 17.175781 16.640625 L 15.914063 16.242188 L 15.570313 16.132813 L 15.570313 16.117188 L 14.199219 15.6875 L 14.191406 15.917969 L 14.125 18.527344 L 14.128906 18.863281 Z M 15.71875 9.394531 L 15.707031 9.597656 L 15.726563 9.589844 L 17.164063 7.546875 L 17.484375 4.332031 L 17.472656 4.347656 L 16.691406 5.410156 L 15.796875 6.609375 L 15.789063 6.78125 L 15.765625 7.441406 L 15.738281 8.429688 Z M 16.34375 11.4375 L 16.332031 11.429688 L 16.34375 11.4375 L 16.351563 11.460938 L 16.640625 11.835938 L 16.671875 11.882813 L 17.363281 12.765625 L 17.394531 12.820313 L 18.082031 13.703125 L 18.117188 13.757813 L 20.503906 14.574219 L 20.804688 14.675781 L 20.734375 14.585938 L 19.402344 13.09375 L 19.355469 13.046875 L 18.746094 12.355469 L 18.695313 12.308594 L 17.027344 11.679688 L 16.390625 11.445313 Z M 15.039063 15.234375 L 15.027344 15.246094 L 16.230469 15.628906 L 16.527344 15.726563 L 17.472656 16.019531 L 17.535156 16.027344 L 17.664063 15.992188 L 20.113281 15.464844 L 20.160156 15.449219 L 20.664063 15.339844 L 20.664063 15.335938 L 19.160156 14.820313 L 19.09375 14.796875 L 18.953125 14.746094 L 17.914063 14.394531 L 17.832031 14.410156 Z M 21.257813 8.871094 L 21.28125 8.84375 L 21.25 8.832031 L 17.632813 8.046875 L 16.566406 9.554688 L 16.398438 9.792969 L 15.875 10.542969 L 18.699219 11.589844 L 18.800781 11.628906 L 19.105469 11.285156 Z M 21.257813 8.871094 "/>
</g>
</svg>
