<svg xmlns="http://www.w3.org/2000/svg" xmlns:xlink="http://www.w3.org/1999/xlink" viewBox="0 0 24 24">
  <defs>
    <style>
      .a {
        fill: none;
      }

      .b {
        clip-path: url(#a);
      }

      .c {
        fill: #455a64;
        fill-rule: evenodd;
      }
    </style>
    <clipPath id="a">
      <rect class="a" x="3" y="3" width="18" height="18"/>
    </clipPath>
  </defs>
  <g class="b">
    <path class="c" d="M3,4.96875A1.96876,1.96876,0,0,1,4.96875,3h3.9375A1.96876,1.96876,0,0,1,10.875,4.96875v3.9375A1.96875,1.96875,0,0,1,8.90625,10.875H7.5v4.5A1.125,1.125,0,0,0,8.625,16.5h4.5V15.09375A1.96876,1.96876,0,0,1,15.09375,13.125h3.9375A1.96873,1.96873,0,0,1,21,15.09375v3.9375A1.9687,1.9687,0,0,1,19.03125,21h-3.9375A1.96873,1.96873,0,0,1,13.125,19.03125V18.1875h-4.5A2.81253,2.81253,0,0,1,5.8125,15.375v-4.5H4.96875A1.96876,1.96876,0,0,1,3,8.90625ZM4.96875,4.6875a.28126.28126,0,0,0-.28125.28125v3.9375a.28126.28126,0,0,0,.28125.28125h3.9375a.28126.28126,0,0,0,.28125-.28125V4.96875a.28126.28126,0,0,0-.28125-.28125Zm10.125,10.125a.28122.28122,0,0,0-.28125.28125v3.9375a.28119.28119,0,0,0,.28125.28125h3.9375a.28116.28116,0,0,0,.28125-.28125v-3.9375a.28119.28119,0,0,0-.28125-.28125Z"/>
  </g>
</svg>
