<svg xmlns="http://www.w3.org/2000/svg" xmlns:xlink="http://www.w3.org/1999/xlink" viewBox="0 0 24 24">
  <defs>
    <style>
      .a {
        fill: none;
      }

      .b {
        clip-path: url(#a);
      }

      .c {
        fill: #8b949e;
        fill-rule: evenodd;
      }
    </style>
    <clipPath id="a">
      <rect class="a" x="3" y="2.9976" width="18" height="18"/>
    </clipPath>
  </defs>
  <g class="b">
    <path class="c" d="M3,4.96635A1.96876,1.96876,0,0,1,4.96875,2.9976h3.9375A1.96876,1.96876,0,0,1,10.875,4.96635v3.9375A1.96875,1.96875,0,0,1,8.90625,10.8726H7.5v4.5a1.125,1.125,0,0,0,1.125,1.125h4.5V15.09135a1.96876,1.96876,0,0,1,1.96875-1.96875h3.9375A1.96873,1.96873,0,0,1,21,15.09135v3.9375a1.9687,1.9687,0,0,1-1.96875,1.96875h-3.9375A1.96873,1.96873,0,0,1,13.125,19.02885V18.1851h-4.5a2.81253,2.81253,0,0,1-2.8125-2.8125v-4.5H4.96875A1.96876,1.96876,0,0,1,3,8.90385ZM4.96875,4.6851a.28126.28126,0,0,0-.28125.28125v3.9375a.28126.28126,0,0,0,.28125.28125h3.9375a.28126.28126,0,0,0,.28125-.28125V4.96635a.28126.28126,0,0,0-.28125-.28125Zm10.125,10.125a.28122.28122,0,0,0-.28125.28125v3.9375a.28119.28119,0,0,0,.28125.28125h3.9375a.28116.28116,0,0,0,.28125-.28125v-3.9375a.28119.28119,0,0,0-.28125-.28125Z"/>
  </g>
</svg>
