<svg xmlns="http://www.w3.org/2000/svg" viewBox="0 0 32 32">
  <rect x="2" y="2" width="28" height="28" rx="4" style="fill: #5d4037"/>
  <path d="M20.98842,9.99846a.95974.95974,0,0,1-.68708-.268.98979.98979,0,0,1-.26248-.70434.89692.89692,0,0,1,.27792-.68138.99324.99324,0,0,1,.68708-.268.92859.92859,0,0,1,.70252.268,1.04595,1.04595,0,0,1-.01544,1.38572.91194.91194,0,0,1-.70252.268Z" style="fill: #ff9800"/>
  <rect x="20" y="12" width="2" height="10" style="fill: #ff9800"/>
  <path d="M14.37,10.02,14.36,10H12.28a.12039.12039,0,0,0-.1.13,4.52759,4.52759,0,0,1-.06.74c-.05.13-.08.26-.12.37l-.27.78L8,22h2.14l.75-2h5.24l.79,2h2.16ZM11.64,18l1.8-4.84.01.04.02.04L14.95,17l.39,1Z" style="fill: #ff9800"/>
</svg>
