<svg xmlns="http://www.w3.org/2000/svg" viewBox="0 0 32 32">
  <rect x="2" y="2" width="28" height="28" rx="4" style="fill: #37474f"/>
  <path d="M23.74445,14.71633a3.742,3.742,0,0,0-1.06667-.40866,5.4358,5.4358,0,0,0-1.24444-.15625,2.07732,2.07732,0,0,0-.66667.08414.56887.56887,0,0,0-.34444.24038.67547.67547,0,0,0-.08889.32452.56078.56078,0,0,0,.11111.3125,1.2758,1.2758,0,0,0,.37777.32451c.25556.14423.52223.27644.78889.39663a7.79415,7.79415,0,0,1,1.71112.8774,2.71638,2.71638,0,0,1,.87777.99759,2.77192,2.77192,0,0,1,.25556,1.238,2.96439,2.96439,0,0,1-.43333,1.59855,2.83372,2.83372,0,0,1-1.24445,1.06971,4.75252,4.75252,0,0,1-2.01111.38461,7.095,7.095,0,0,1-1.51111-.15625,4.24152,4.24152,0,0,1-1.13334-.38461A.24027.24027,0,0,1,18,21.2307V19.13937a.13541.13541,0,0,1,.04444-.10817c.03334-.024.06667-.012.1.012a4.55259,4.55259,0,0,0,1.37778.58894,4.80461,4.80461,0,0,0,1.31111.18028,1.9803,1.9803,0,0,0,.92223-.16826.56255.56255,0,0,0,.3-.50481.64883.64883,0,0,0-.26667-.48076A4.57579,4.57579,0,0,0,20.7,18.09371a6.61848,6.61848,0,0,1-1.57778-.86538,3.04423,3.04423,0,0,1-.84444-1.02163,2.75485,2.75485,0,0,1-.25556-1.226A3.00216,3.00216,0,0,1,18.4,13.52643a2.81837,2.81837,0,0,1,1.16666-1.10576A4.03237,4.03237,0,0,1,21.53333,12a8.86947,8.86947,0,0,1,1.37778.10817,3.67841,3.67841,0,0,1,.95556.27644.20131.20131,0,0,1,.11111.10818A.6484.6484,0,0,1,24,12.637v1.95912a.15216.15216,0,0,1-.05556.12019A.27517.27517,0,0,1,23.74445,14.71633Z" style="fill: #42a5f5"/>
  <path d="M12.38,10H9.99V9.97h-2v12h2V18h2.39A3.61907,3.61907,0,0,0,16,14.38v-.76A3.61907,3.61907,0,0,0,12.38,10ZM14,14.38A1.62607,1.62607,0,0,1,12.38,16H9.99V12h2.39A1.626,1.626,0,0,1,14,13.62Z" style="fill: #42a5f5"/>
</svg>
