<svg xmlns="http://www.w3.org/2000/svg" xmlns:xlink="http://www.w3.org/1999/xlink" viewBox="0 0 32 32">
  <defs>
    <linearGradient id="a" x1="14" y1="20" x2="32" y2="20" gradientUnits="userSpaceOnUse">
      <stop offset="0" stop-color="#ef5350"/>
      <stop offset="0.57" stop-color="#ff6e40"/>
      <stop offset="1" stop-color="#f57c00"/>
    </linearGradient>
    <linearGradient id="b" x1="16" y1="22.05469" x2="30" y2="22.05469" gradientUnits="userSpaceOnUse">
      <stop offset="0" stop-color="#ff9800"/>
      <stop offset="1" stop-color="#fdd835"/>
    </linearGradient>
  </defs>
  <path d="M28.96692,12H9.44152a2,2,0,0,0-1.89737,1.36754L4,24V10H28a2,2,0,0,0-2-2H15.1241a2,2,0,0,1-1.28038-.46357L12.5563,6.46357A2,2,0,0,0,11.27592,6H4A2,2,0,0,0,2,8V24a2,2,0,0,0,2,2H26l4.80523-11.21213A2,2,0,0,0,28.96692,12Z" style="fill: #b0bec5"/>
  <g>
    <path d="M26.70625,12.64687l-2.32031,1.20938c-.28125.16875-.57264.19117-.75552-.05426l-3.07381-3.25723a1.32708,1.32708,0,0,0-2.093-.06464C16.18013,13.32424,14,17.79425,14,20.47161A9.27552,9.27552,0,0,0,23,30a9.27552,9.27552,0,0,0,9-9.52839c0-2.34992-1.39453-5.18949-3.10754-7.5362A1.63011,1.63011,0,0,0,26.70625,12.64687Z" style="fill: url(#a)"/>
    <path d="M23,28.10938c-3.866,0-7-2.74813-7-6.13811,0-1.61559,1.46945-3.95482,3.09678-5.65358a1.09623,1.09623,0,0,1,1.58962.04856l3.78586,4.51489a.89686.89686,0,0,0,1.5168-.20458,20.1518,20.1518,0,0,1,1.245-2.33171,1.07181,1.07181,0,0,1,1.71518.21531A12.12865,12.12865,0,0,1,30,21.97127C30,25.36125,26.866,28.10938,23,28.10938Z" style="fill: url(#b)"/>
  </g>
</svg>
