<svg xmlns="http://www.w3.org/2000/svg" viewBox="0 0 24 24">
  <defs>
    <style>
      .a {
        fill: #8d6e63;
      }

      .b {
        fill: #d7ccc8;
      }

      .c {
        fill: none;
        stroke: #d7ccc8;
        stroke-miterlimit: 10;
        stroke-width: 1.5px;
      }
    </style>
  </defs>
  <path class="a" d="M10,4H4A1.99309,1.99309,0,0,0,2,6V18a2,2,0,0,0,2,2H20a2,2,0,0,0,2-2V8a1.99944,1.99944,0,0,0-2-2H12Z"/>
  <g>
    <path class="b" d="M15.54907,10.79957a1.36238,1.36238,0,0,1,1.36231,1.36252v.32343A1.36237,1.36237,0,0,1,15.54907,13.848h-.24829a1.36257,1.36257,0,0,1-1.36255-1.36251v-.32343a1.36258,1.36258,0,0,1,1.36255-1.36252h.24829m0-1.5h-.24829a2.86581,2.86581,0,0,0-2.86255,2.86252v.32343A2.8658,2.8658,0,0,0,15.30078,15.348h.24829a2.86559,2.86559,0,0,0,2.86231-2.86251v-.32343a2.8656,2.8656,0,0,0-2.86231-2.86252Z"/>
    <path class="b" d="M21.13745,17.73384A1.36258,1.36258,0,0,1,22.5,19.09636v.32342a1.36258,1.36258,0,0,1-1.36255,1.36252H20.8894a1.36242,1.36242,0,0,1-1.36254-1.36252v-.32342a1.36241,1.36241,0,0,1,1.36254-1.36252h.24805m0-1.5H20.8894a2.8658,2.8658,0,0,0-2.86254,2.86252v.32342A2.8658,2.8658,0,0,0,20.8894,22.2823h.24805A2.86581,2.86581,0,0,0,24,19.41978v-.32342a2.86581,2.86581,0,0,0-2.86255-2.86252Z"/>
    <path class="c" d="M18.98539,19.25806H16.91608a1.5104,1.5104,0,0,1-1.49119-1.52892V14.469"/>
  </g>
</svg>
