<svg xmlns="http://www.w3.org/2000/svg" viewBox="0 0 32 32"><path d="M28.96692,12H9.44152a2,2,0,0,0-1.89737,1.36754L4,24V10H28a2,2,0,0,0-2-2H15.1241a2,2,0,0,1-1.28038-.46357L12.5563,6.46357A2,2,0,0,0,11.27592,6H4A2,2,0,0,0,2,8V24a2,2,0,0,0,2,2H26l4.80523-11.21213A2,2,0,0,0,28.96692,12Z" style="fill:#ff5722"/><path d="M28,10H26a2,2,0,0,0-2,2v4a2,2,0,0,0,2,2h2a2,2,0,0,0,2-2V12A2,2,0,0,0,28,10Zm-2,6V12h2v4Z" style="fill:#ffccbc"/><path d="M22,20H20a2,2,0,0,0-2,2v4a2,2,0,0,0,2,2h2a2,2,0,0,0,2-2V22A2,2,0,0,0,22,20Zm-2,6V22h2v4Z" style="fill:#ffccbc"/><path d="M20,10c0,2,0,2-2,2v2h2v4h2V10Z" style="fill:#ffccbc"/><path d="M28,20c0,2,0,2-2,2v2h2v4h2V20Z" style="fill:#ffccbc"/></svg>