<svg xmlns="http://www.w3.org/2000/svg" viewBox="0 0 32 32">
  <path d="M28.96692,12H9.44152a2,2,0,0,0-1.89737,1.36754L4,24V10H28a2,2,0,0,0-2-2H15.1241a2,2,0,0,1-1.28038-.46357L12.5563,6.46357A2,2,0,0,0,11.27592,6H4A2,2,0,0,0,2,8V24a2,2,0,0,0,2,2H26l4.80523-11.21213A2,2,0,0,0,28.96692,12Z" style="fill: #607d8b"/>
  <g>
    <rect x="11.10744" y="26.37868" width="2" height="6" rx="0.5" transform="translate(-17.22768 17.16607) rotate(-45)" style="fill: #448aff"/>
    <rect x="12.52165" y="25.96447" width="2" height="4" transform="translate(-15.81346 17.75185) rotate(-45)" style="fill: #eee"/>
    <path d="M24.83536,13.82233l-.70711.70711-.7071-.70711a1,1,0,0,0-1.41422,0l-9.19238,9.19239,5.65685,5.65685,9.19239-9.19239a1,1,0,0,0,0-1.41421l-.70711-.70711.70711-.7071a1,1,0,0,0,0-1.41422l-1.41422-1.41421A1,1,0,0,0,24.83536,13.82233Z" style="fill: #bbdefb;opacity: 0.8"/>
    <rect x="13.78942" y="21.1967" width="3" height="10" rx="0.61237" transform="translate(-14.0457 18.48409) rotate(-45)" style="fill: #448aff"/>
    <path d="M20.79983,15.15076h1a0,0,0,0,1,0,0v2.5a.5.5,0,0,1-.5.5h0a.5.5,0,0,1-.5-.5v-2.5a0,0,0,0,1,0,0Z" transform="translate(-5.53529 19.93815) rotate(-45)" style="fill: #0277bd"/>
    <path d="M19.38561,16.565h1a0,0,0,0,1,0,0v2.5a.5.5,0,0,1-.5.5h0a.5.5,0,0,1-.5-.5v-2.5A0,0,0,0,1,19.38561,16.565Z" transform="translate(-6.9495 19.35236) rotate(-45)" style="fill: #0277bd"/>
    <path d="M17.9714,17.97918h1a0,0,0,0,1,0,0v2.5a.5.5,0,0,1-.5.5h0a.5.5,0,0,1-.5-.5v-2.5a0,0,0,0,1,0,0Z" transform="translate(-8.36371 18.76657) rotate(-45)" style="fill: #0277bd"/>
    <path d="M31.92762,9.98275,27.54355,15.1163l-1.17378-1.17377,5.1336-4.384A.30165.30165,0,0,1,31.92762,9.98275Z" style="fill: #eee"/>
  </g>
</svg>
