<svg xmlns="http://www.w3.org/2000/svg" viewBox="0 0 32 32">
  <path d="M28.96692,12H9.44152a2,2,0,0,0-1.89737,1.36754L4,24V10H28a2,2,0,0,0-2-2H15.1241a2,2,0,0,1-1.28038-.46357L12.5563,6.46357A2,2,0,0,0,11.27592,6H4A2,2,0,0,0,2,8V24a2,2,0,0,0,2,2H26l4.80523-11.21213A2,2,0,0,0,28.96692,12Z" style="fill: #5c6bc0"/>
  <path d="M29.99994,21.89948V14a2.0001,2.0001,0,0,0-2-2H20.929a2.00016,2.00016,0,0,0-1.41425.58582l-7.89948,7.89947a2,2,0,0,0,0,2.82843l7.07105,7.07111a2.00009,2.00009,0,0,0,2.82843,0L30,21.89954ZM26.46448,18.364a2,2,0,1,1,0-2.82843A2.00007,2.00007,0,0,1,26.46448,18.364Z" style="fill: #c5cae9"/>
</svg>
