<svg xmlns="http://www.w3.org/2000/svg" viewBox="0 0 32 32">
  <path d="M28.96692,12H9.44152a2,2,0,0,0-1.89737,1.36754L4,24V10H28a2,2,0,0,0-2-2H15.1241a2,2,0,0,1-1.28038-.46357L12.5563,6.46357A2,2,0,0,0,11.27592,6H4A2,2,0,0,0,2,8V24a2,2,0,0,0,2,2H26l4.80523-11.21213A2,2,0,0,0,28.96692,12Z" style="fill: #e57373"/>
  <g>
    <polygon points="10 22.771 10 27.59 15 30 20 27.59 20 22.771 15 20.361 10 22.771" style="fill: #ffcdd2"/>
    <polygon points="27 20.361 22 22.771 22 27.59 27 30 32 27.59 32 22.771 27 20.361" style="fill: #ffcdd2"/>
    <polygon points="26 14.41 21 12 16 14.41 16 19.229 21 21.639 26 19.229 26 14.41" style="fill: #ffcdd2"/>
  </g>
</svg>
