<svg xmlns="http://www.w3.org/2000/svg" viewBox="0 0 32 32"><path d="M13.84376,7.53645l-1.28749-1.0729A2,2,0,0,0,11.27591,6H4A2,2,0,0,0,2,8V24a2,2,0,0,0,2,2H28a2,2,0,0,0,2-2V10a2,2,0,0,0-2-2H15.12412A2,2,0,0,1,13.84376,7.53645Z" style="fill:#ffa726"/><path d="M31,12H19a1.07857,1.07857,0,0,0-1,1.14282v13.7143A1.07863,1.07863,0,0,0,19,28H31a1.07863,1.07863,0,0,0,1-1.14288V13.14282A1.07857,1.07857,0,0,0,31,12ZM26,26H24V24h2Zm4-8H28v2H26v2H24V20h2V18h2V16H22v2H20V16h2V14h6v2h2Z" style="fill:#ffe0b2;fill-rule:evenodd"/></svg>