<svg xmlns="http://www.w3.org/2000/svg" xmlns:xlink="http://www.w3.org/1999/xlink" viewBox="0 0 32 32">
  <defs>
    <radialGradient id="a" cx="21.88455" cy="16" r="12.44592" gradientUnits="userSpaceOnUse">
      <stop offset="0" stop-color="#ffb74d"/>
      <stop offset="1" stop-color="#9e9e9e"/>
    </radialGradient>
    <radialGradient id="b" cx="24.965" cy="17.11846" r="6.05863" gradientTransform="translate(0 -0.63635) scale(1 1.02273)" gradientUnits="userSpaceOnUse">
      <stop offset="0" stop-color="#ffecb3"/>
      <stop offset="0.74581" stop-color="#ffecb3"/>
      <stop offset="0.86313" stop-color="#ffecb3"/>
      <stop offset="1" stop-color="#ffcc80"/>
    </radialGradient>
    <linearGradient id="c" x1="22" y1="28" x2="28" y2="28" gradientUnits="userSpaceOnUse">
      <stop offset="0.55307" stop-color="#b0bec5"/>
      <stop offset="1" stop-color="#607d8b"/>
    </linearGradient>
  </defs>
  <path d="M28.96692,12H9.44152a2,2,0,0,0-1.89737,1.36754L4,24V10H28a2,2,0,0,0-2-2H15.1241a2,2,0,0,1-1.28038-.46357L12.5563,6.46357A2,2,0,0,0,11.27592,6H4A2,2,0,0,0,2,8V24a2,2,0,0,0,2,2H26l4.80523-11.21213A2,2,0,0,0,28.96692,12Z" style="fill: url(#a)"/>
  <g>
    <path d="M32,17.15909a6.99255,6.99255,0,0,0-13.93146-1.01615,7.22077,7.22077,0,0,0,2.91007,6.87262C21.73472,23.55911,22,25.05479,22,26l2,2h2l2-2c0-.95368.27842-2.44668,1.03959-2.99758A7.19333,7.19333,0,0,0,32,17.15909Z" style="fill: url(#b)"/>
    <path d="M28.157,16.37286a.96214.96214,0,0,0-1.27441-.0605L25,17.86575l-1.88255-1.55339a.9623.9623,0,0,0-1.27441.0605.7781.7781,0,0,0,.06609,1.16671L24,19.33025V28h2V19.36055l2.0909-1.821A.7781.7781,0,0,0,28.157,16.37286Z" style="fill: #bf360c;opacity: 0.8"/>
    <rect x="22" y="26" width="6" height="4" style="fill: url(#c)"/>
  </g>
</svg>
