<svg xmlns="http://www.w3.org/2000/svg" viewBox="0 0 32 32">
  <path d="M13.84376,7.53645l-1.28749-1.0729A2,2,0,0,0,11.27591,6H4A2,2,0,0,0,2,8V24a2,2,0,0,0,2,2H28a2,2,0,0,0,2-2V10a2,2,0,0,0-2-2H15.12412A2,2,0,0,1,13.84376,7.53645Z" style="fill: #ff8a65"/>
  <g>
    <g>
      <rect x="22" y="16" width="10" height="2" style="fill: #fbe9e7"/>
      <rect x="22" y="22" width="10" height="2" style="fill: #fbe9e7"/>
    </g>
    <path d="M13.69291,18a.99676.99676,0,0,1-.707-.293L10,14.68938l1.41406-1.41406,2.27885,2.31062,5.293-5.293L20.39994,11.707l-6,6A.99676.99676,0,0,1,13.69291,18Z" style="fill: #fbe9e7"/>
    <rect x="12" y="20" width="4" height="4" style="fill: #fbe9e7"/>
  </g>
</svg>
