<svg xmlns="http://www.w3.org/2000/svg" viewBox="0 0 32 32">
  <path d="M28.96692,12H9.44152a2,2,0,0,0-1.89737,1.36754L4,24V10H28a2,2,0,0,0-2-2H15.1241a2,2,0,0,1-1.28038-.46357L12.5563,6.46357A2,2,0,0,0,11.27592,6H4A2,2,0,0,0,2,8V24a2,2,0,0,0,2,2H26l4.80523-11.21213A2,2,0,0,0,28.96692,12Z" style="fill: #7e57c2"/>
  <rect x="14" y="9.9625" width="8" height="8" rx="1" style="fill: #e1bee7"/>
  <rect x="24" y="19.9625" width="8" height="8" rx="1" style="fill: #e1bee7"/>
  <rect x="14" y="19.9625" width="8" height="8" rx="1" style="fill: #e1bee7"/>
</svg>
