<svg xmlns="http://www.w3.org/2000/svg" viewBox="0 0 32 32"><path d="M28.96692,12H9.44152a2,2,0,0,0-1.89737,1.36754L4,24V10H28a2,2,0,0,0-2-2H15.1241a2,2,0,0,1-1.28038-.46357L12.5563,6.46357A2,2,0,0,0,11.27592,6H4A2,2,0,0,0,2,8V24a2,2,0,0,0,2,2H26l4.80523-11.21213A2,2,0,0,0,28.96692,12Z" style="fill:#26a69a"/><path d="M30,10H28a3,3,0,0,0-6,0H20a2.00587,2.00587,0,0,0-2,2V28a2.00591,2.00591,0,0,0,2,2H30a2.00591,2.00591,0,0,0,2-2V12A2.00587,2.00587,0,0,0,30,10ZM25,9a1,1,0,1,1-1,1A1.003,1.003,0,0,1,25,9Zm-4.24261,4.33336L22.17157,12,25,14.66667,27.82843,12l1.41418,1.33336L26.41418,16l2.82843,2.66667L27.82843,20,25,17.33333,22.17157,20l-1.41418-1.3333L23.58582,16ZM23.76324,28l-.00116-.00116-.00018.00018-3.18066-3.181,1.41418-1.41418,1.7666,1.7666,4.2425-4.24243,1.41424,1.41418Z" style="fill:#b2dfdb"/></svg>