<svg xmlns="http://www.w3.org/2000/svg" viewBox="0 0 24 24">
  <defs>
    <style>
      .a {
        fill: #ec407a;
      }

      .b {
        fill: #f8bbd0;
        fill-rule: evenodd;
      }
    </style>
  </defs>
  <path class="a" d="M10,4H4A1.99309,1.99309,0,0,0,2,5.98616Q2,5.99308,2,6V18a2,2,0,0,0,2,2H20a2,2,0,0,0,2-2V8a1.99944,1.99944,0,0,0-1.99888-2H12Z"/>
  <path class="b" d="M13.83341,8.71a1.31642,1.31642,0,0,0-1.355,1.27406V20.187a1.31583,1.31583,0,0,0,1.35081,1.278h8.13019a1.31644,1.31644,0,0,0,1.355-1.27406V9.987A1.316,1.316,0,0,0,21.96253,8.71Zm0,4.465h8.126v3.188h-8.126Zm0,4.462h8.126v2.55h-8.126Z"/>
</svg>
