<svg xmlns="http://www.w3.org/2000/svg" viewBox="0 0 32 32">
  <path d="M28.96692,12H9.44152a2,2,0,0,0-1.89737,1.36754L4,24V10H28a2,2,0,0,0-2-2H15.1241a2,2,0,0,1-1.28038-.46357L12.5563,6.46357A2,2,0,0,0,11.27592,6H4A2,2,0,0,0,2,8V24a2,2,0,0,0,2,2H26l4.80523-11.21213A2,2,0,0,0,28.96692,12Z" style="fill: #795548"/>
  <path d="M31.3297,17.50879,25.666,12.47943A1.00109,1.00109,0,0,0,24,13.22681V16H21.00035a7.00818,7.00818,0,0,0-7,7,1.001,1.001,0,0,1-1,1h-5v6h5a7.00818,7.00818,0,0,0,7-7,1.001,1.001,0,0,1,1-1H24v2.77313a1.00111,1.00111,0,0,0,1.666.74744l5.6637-5.02936A1.9939,1.9939,0,0,0,31.3297,17.50879Z" style="fill: #d7ccc8"/>
</svg>
