<svg xmlns="http://www.w3.org/2000/svg" viewBox="0 0 24 24">
  <defs>
    <style>
      .a {
        fill: #ec407a;
      }

      .b {
        fill: #f8bbd0;
        fill-rule: evenodd;
      }
    </style>
  </defs>
  <path class="a" d="M19,20H4a2,2,0,0,1-2-2V6A1.99309,1.99309,0,0,1,4,4h6l2,2h7a2.00977,2.00977,0,0,1,2,2H4V18l2.14-8H23.21l-2.28,8.5A2.00187,2.00187,0,0,1,19,20Z"/>
  <path class="b" d="M13.83342,8.71a1.31642,1.31642,0,0,0-1.355,1.27406V20.187a1.31583,1.31583,0,0,0,1.35081,1.278h8.13019a1.31644,1.31644,0,0,0,1.355-1.27406V9.987A1.316,1.316,0,0,0,21.96254,8.71Zm0,4.465h8.126v3.188h-8.126Zm0,4.462h8.126v2.55h-8.126Z"/>
</svg>
