<svg xmlns="http://www.w3.org/2000/svg" viewBox="0 0 32 32"><path d="M28.96692,12H9.44152a2,2,0,0,0-1.89737,1.36754L4,24V10H28a2,2,0,0,0-2-2H15.1241a2,2,0,0,1-1.28038-.46357L12.5563,6.46357A2,2,0,0,0,11.27592,6H4A2,2,0,0,0,2,8V24a2,2,0,0,0,2,2H26l4.80523-11.21213A2,2,0,0,0,28.96692,12Z" style="fill:#5c6bc0"/><circle cx="24" cy="6" r="4" style="fill:#c5cae9"/><path d="M32,15.5v2a.5.5,0,0,1-.5.5H28.84511a.99994.99994,0,0,1-.57325-.18062l-2.05848-1.44012A.5.5,0,0,1,26,15.96957V12.57L29.47,15H31.5A.5.5,0,0,1,32,15.5Z" style="fill:#c5cae9"/><path d="M18,12.68v2.76367a.5.5,0,0,1-.3242.46808L15.79,16.62,15.06942,19.841a.5.5,0,0,1-.59817.37854l-1.94581-.43979a.5.5,0,0,1-.378-.59568l.94525-4.2736a1,1,0,0,1,.62613-.72069L17.97,12.6Z" style="fill:#c5cae9"/><path d="M31.01,24.67063V29.5a.5.5,0,0,1-.5.5h-2a.5.5,0,0,1-.5-.5V25.98l-1.71245-.75826A.5.5,0,0,1,26,24.76454V22.56843a.5.5,0,0,1,.70256-.45713l3.71257,1.64506A1,1,0,0,1,31.01,24.67063Z" style="fill:#c5cae9"/><path d="M20,12v6.39443a2,2,0,0,0,.33591,1.10943L20.73,20.095,18.86,24.8,14.00451,26.4215a.5.5,0,0,0-.3158.63286l.63283,1.89194a.5.5,0,0,0,.63229.31574l5.7448-1.9149a1,1,0,0,0,.61314-.57952l2.547-6.412A2.00009,2.00009,0,0,0,24,19.61732V12.5a.5.5,0,0,0-.5-.5Z" style="fill:#c5cae9"/></svg>