<svg xmlns="http://www.w3.org/2000/svg" viewBox="0 0 24 24">
  <defs>
    <style>
      .a {
        fill: #a1887f;
      }

      .b {
        fill: #d7ccc8;
        fill-rule: evenodd;
      }
    </style>
  </defs>
  <path class="a" d="M10,4H4A1.99309,1.99309,0,0,0,2,5.98616Q2,5.99308,2,6V18a2,2,0,0,0,2,2H20a2,2,0,0,0,2-2V8a1.99944,1.99944,0,0,0-1.99888-2H12Z"/>
  <path class="b" d="M23.284,16.949H21.996v1.288H18.132V16.305H19.42V15.017H18.132v-3.22a1.288,1.288,0,0,0-1.288-1.288H11.69V9.22H10.402v5.152H11.69V13.084h3.864v1.932H14.266v1.288h1.288v3.22a1.288,1.288,0,0,0,1.288,1.288h5.153V22.1h1.288"/>
</svg>
