<svg xmlns="http://www.w3.org/2000/svg" viewBox="0 0 24 24">
  <defs>
    <style>
      .a {
        fill: #a1887f;
      }

      .b {
        fill: #d7ccc8;
        fill-rule: evenodd;
      }
    </style>
  </defs>
  <path class="a" d="M19,20H4a2,2,0,0,1-2-2V6A1.99309,1.99309,0,0,1,4,4h6l2,2h7a2.00977,2.00977,0,0,1,2,2H4V18l2.14-8H23.21l-2.28,8.5A2.00187,2.00187,0,0,1,19,20Z"/>
  <path class="b" d="M23.284,16.949H21.996v1.288H18.132V16.305H19.42V15.017H18.132v-3.22a1.288,1.288,0,0,0-1.288-1.288H11.69V9.22H10.402v5.152H11.69V13.084h3.864v1.932H14.266v1.288h1.288v3.22a1.288,1.288,0,0,0,1.288,1.288h5.153V22.1h1.288"/>
</svg>
