<svg xmlns="http://www.w3.org/2000/svg" viewBox="0 0 24 24">
  <defs>
    <style>
      .a {
        fill: #00acc1;
      }

      .b {
        fill: #b2ebf2;
      }
    </style>
  </defs>
  <path class="a" d="M19,20H4a2,2,0,0,1-2-2V6A1.99309,1.99309,0,0,1,4,4h6l2,2h7a2.00977,2.00977,0,0,1,2,2H4V18l2.14-8H23.21l-2.28,8.5A2.00187,2.00187,0,0,1,19,20Z"/>
  <path class="b" d="M21.133,18.585a1.22,1.22,0,0,0-1.156-.846h-.609V15.914a.608.608,0,0,0-.607-.609H15.11V14.088h1.216a.608.608,0,0,0,.609-.607h0V12.263h1.217a1.217,1.217,0,0,0,1.216-1.217v-.25a4.858,4.858,0,0,1,1.765,7.79m-4.198,1.545a4.844,4.844,0,0,1-4.132-5.915l2.915,2.915v.608a1.217,1.217,0,0,0,1.216,1.217m.609-9.735a6.0845,6.0845,0,0,0,0,12.169h0a6.0845,6.0845,0,1,0,0-12.169Z"/>
</svg>
