<svg xmlns="http://www.w3.org/2000/svg" viewBox="0 0 24 24">
  <defs>
    <style>
      .a {
        fill: #ab47bc;
      }

      .b {
        fill: #e1bee7;
        fill-rule: evenodd;
      }
    </style>
  </defs>
  <path class="a" d="M19,20H4a2,2,0,0,1-2-2V6A1.99309,1.99309,0,0,1,4,4h6l2,2h7a2.00977,2.00977,0,0,1,2,2H4V18l2.14-8H23.21l-2.28,8.5A2.00187,2.00187,0,0,1,19,20Z"/>
  <path class="b" d="M17.77716,8.859c-3.156,0-5.712,1.278-5.712,2.856s2.556,2.856,5.712,2.856,5.712-1.278,5.712-2.856-2.556-2.856-5.712-2.856m-5.712,4.284v2.142c0,1.578,2.556,2.856,5.712,2.856s5.712-1.278,5.712-2.856V13.143c0,1.578-2.556,2.856-5.712,2.856s-5.712-1.278-5.712-2.856m0,3.57v2.142c0,1.577,2.556,2.855,5.712,2.855s5.712-1.278,5.712-2.856V16.713c0,1.578-2.556,2.856-5.712,2.856S12.06516,18.291,12.06516,16.713Z"/>
</svg>
