<svg xmlns="http://www.w3.org/2000/svg" viewBox="0 0 32 32"><path d="M13.84376,7.53645l-1.28749-1.0729A2,2,0,0,0,11.27591,6H4A2,2,0,0,0,2,8V24a2,2,0,0,0,2,2H28a2,2,0,0,0,2-2V10a2,2,0,0,0-2-2H15.12412A2,2,0,0,1,13.84376,7.53645Z" style="fill:#0097a7"/><rect x="18" y="16" width="2" height="8" style="fill:#b2ebf2"/><polyline points="17 24 12 16 14 16 18 22" style="fill:#b2ebf2"/><rect x="17" y="22" width="3" height="2" style="fill:#b2ebf2"/><rect x="22" y="20" width="2" height="4" style="fill:#b2ebf2"/><rect x="24" y="18" width="2" height="2" style="fill:#b2ebf2"/><rect x="26" y="20" width="2" height="4" style="fill:#b2ebf2"/><rect x="26" y="14" width="2" height="4" style="fill:#b2ebf2"/><rect x="22" y="16" width="2" height="2" style="fill:#b2ebf2"/><rect x="22" y="14" width="2" height="2" style="fill:#b2ebf2"/></svg>