<svg xmlns="http://www.w3.org/2000/svg" viewBox="0 0 32 32">
  <path d="M28.96692,12H9.44152a2,2,0,0,0-1.89737,1.36754L4,24V10H28a2,2,0,0,0-2-2H15.1241a2,2,0,0,1-1.28038-.46357L12.5563,6.46357A2,2,0,0,0,11.27592,6H4A2,2,0,0,0,2,8V24a2,2,0,0,0,2,2H26l4.80523-11.21213A2,2,0,0,0,28.96692,12Z" style="fill: #b0bec5"/>
  <path d="M26.0094,19A2.994,2.994,0,0,1,29,21.99063v2.01874A2.994,2.994,0,0,1,26.0094,27H13.9906A2.994,2.994,0,0,1,11,24.00937V21.99063A2.994,2.994,0,0,1,13.9906,19H26.0094m0-3H13.9906A5.99061,5.99061,0,0,0,8,21.99063v2.01874A5.99061,5.99061,0,0,0,13.9906,30H26.0094A5.99061,5.99061,0,0,0,32,24.00937V21.99063A5.99061,5.99061,0,0,0,26.0094,16Z" style="fill: #dd2c00"/>
</svg>
