<svg xmlns="http://www.w3.org/2000/svg" xmlns:xlink="http://www.w3.org/1999/xlink" viewBox="0 0 24 24">
  <defs>
    <style>
      .a {
        fill: url(#a);
      }

      .b {
        fill: #fff9c4;
      }

      .b, .c {
        opacity: 0.9;
      }

      .c {
        fill: #ffee58;
      }

      .d {
        fill: #bf360c;
        opacity: 0.38;
      }

      .e {
        fill: #b0bec5;
      }

      .f {
        fill: #90a4ae;
      }
    </style>
    <radialGradient id="a" cx="18.9875" cy="12.1625" r="10.77132" gradientUnits="userSpaceOnUse">
      <stop offset="0" stop-color="#eeff41"/>
      <stop offset="1" stop-color="#7cb342"/>
    </radialGradient>
  </defs>
  <path class="a" d="M19,20H4a2,2,0,0,1-2-2V6A1.99309,1.99309,0,0,1,4,4h6l2,2h7a2.00977,2.00977,0,0,1,2,2H4V18l2.14-8H23.21l-2.28,8.5A2.00187,2.00187,0,0,1,19,20Z"/>
  <path class="b" d="M19.5175,16.79108c-.02.51-.03,1.02-.04,1.52h1.50006v1h-.55v1.46h-1.44c-.01.26,0,.4801,0,.65015v.21a4.371,4.371,0,0,1-.08.65991c-.11.31006-.49.44006-.82.55-.02,0-.03.01-.05.01H16.96751a.93884.93884,0,0,1-.94-.93994V19.3111h-.55v-2.03a3.82569,3.82569,0,0,0-.93-2.47,4.831,4.831,0,0,1,3.56-7.96,5.90819,5.90819,0,0,1,.82.38,5.28969,5.28969,0,0,1,2.37,2.81,4.526,4.526,0,0,1-.04992,3.56,16.168,16.168,0,0,1-1.25006,1.89,2.06276,2.06276,0,0,0-.41.77991A1.81892,1.81892,0,0,0,19.5175,16.79108Z"/>
  <path class="c" d="M18.98375,20.77436h1.44843v1.14086a.93841.93841,0,0,1-.9389.93812H18.03637l.05165-.017c.3253-.10946.7061-.23742.81479-.54344a2.88939,2.88939,0,0,0,.08094-.66448c.00154-.05319.00077-.07786,0-.20273C18.983,21.25074,18.98221,21.03105,18.98375,20.77436Z"/>
  <path class="c" d="M23.05925,11.6837a4.80767,4.80767,0,0,1-1.16245,3.14276,3.77632,3.77632,0,0,0-.91423,2.459v1.02215H19.481q.01041-.747.03469-1.51858a1.98614,1.98614,0,0,1,.48563-1.3012,16.02882,16.02882,0,0,0,1.24878-1.89013,4.56609,4.56609,0,0,0,.05165-3.55594,5.31007,5.31007,0,0,0-3.19826-3.18593c.017-.00077.03391-.00154.05087-.00154A4.83,4.83,0,0,1,23.05925,11.6837Z"/>
  <path class="d" d="M19.84574,12.57819a.46264.46264,0,0,0-.65319-.03387l-.96491.86977-.96489-.86977a.46253.46253,0,0,0-.61932.68714l1.11228,1.00264v4.88053h.925V14.25106l1.13114-1.0196A.46256.46256,0,0,0,19.84574,12.57819Z"/>
  <rect class="e" x="14.91289" y="18.30614" width="6.62933" height="2.46673" rx="0.41277"/>
  <path class="f" d="M21.13,18.30653h-1.6504v.00616h.10975a.41056.41056,0,0,1,.41057.41057v1.58987a.42929.42929,0,0,1-.42929.42929h-.58823v.03083H21.13a.41237.41237,0,0,0,.4124-.4124V18.71893A.41237.41237,0,0,0,21.13,18.30653Z"/>
</svg>
