<svg xmlns="http://www.w3.org/2000/svg" viewBox="0 0 32 32">
  <path d="M13.84376,7.53645l-1.28749-1.0729A2,2,0,0,0,11.27591,6H4A2,2,0,0,0,2,8V24a2,2,0,0,0,2,2H28a2,2,0,0,0,2-2V10a2,2,0,0,0-2-2H15.12412A2,2,0,0,1,13.84376,7.53645Z" style="fill: #5c6bc0"/>
  <path d="M29.99994,21.89948V14a2.0001,2.0001,0,0,0-2-2H20.929a2.00016,2.00016,0,0,0-1.41425.58582l-7.89948,7.89947a2,2,0,0,0,0,2.82843l7.07105,7.07111a2.00009,2.00009,0,0,0,2.82843,0L30,21.89954ZM26.46448,18.364a2,2,0,1,1,0-2.82843A2.00007,2.00007,0,0,1,26.46448,18.364Z" style="fill: #c5cae9"/>
</svg>
