<svg xmlns="http://www.w3.org/2000/svg" viewBox="0 0 32 32"><path d="M28.96692,12H9.44152a2,2,0,0,0-1.89737,1.36754L4,24V10H28a2,2,0,0,0-2-2H15.1241a2,2,0,0,1-1.28038-.46357L12.5563,6.46357A2,2,0,0,0,11.27592,6H4A2,2,0,0,0,2,8V24a2,2,0,0,0,2,2H26l4.80523-11.21213A2,2,0,0,0,28.96692,12Z" style="fill:#ffa726"/><path d="M31,12H19a1.07857,1.07857,0,0,0-1,1.14282v13.7143A1.07863,1.07863,0,0,0,19,28H31a1.07863,1.07863,0,0,0,1-1.14288V13.14282A1.07857,1.07857,0,0,0,31,12ZM26,26H24V24h2Zm4-8H28v2H26v2H24V20h2V18h2V16H22v2H20V16h2V14h6v2h2Z" style="fill:#ffe0b2;fill-rule:evenodd"/></svg>