<svg xmlns="http://www.w3.org/2000/svg" viewBox="0 0 32 32">
  <path d="M28.96692,12H9.44152a2,2,0,0,0-1.89737,1.36754L4,24V10H28a2,2,0,0,0-2-2H15.1241a2,2,0,0,1-1.28038-.46357L12.5563,6.46357A2,2,0,0,0,11.27592,6H4A2,2,0,0,0,2,8V24a2,2,0,0,0,2,2H26l4.80523-11.21213A2,2,0,0,0,28.96692,12Z" style="fill: #1e88e5"/>
  <g>
    <path d="M16,18H12a2,2,0,0,0-2,2v2H6v2h4v2a2,2,0,0,0,2,2h4V26h4V24H16V22h4V20H16Z" style="fill: #b2ebf2"/>
    <path d="M28,22V20a2,2,0,0,0-2-2H22V28h4a2,2,0,0,0,2-2V24h4V22Z" style="fill: #b2ebf2"/>
  </g>
</svg>
