<svg xmlns="http://www.w3.org/2000/svg" viewBox="0 0 32 32">
  <path d="M13.84376,7.53645l-1.28749-1.0729A2,2,0,0,0,11.27591,6H4A2,2,0,0,0,2,8V24a2,2,0,0,0,2,2H28a2,2,0,0,0,2-2V10a2,2,0,0,0-2-2H15.12412A2,2,0,0,1,13.84376,7.53645Z" style="fill: #ffa726"/>
  <path d="M23.001,24.14969a3.19546,3.19546,0,0,1-3.23871-3.15037h0A3.23995,3.23995,0,1,1,23.001,24.14969h0m6.87454-2.27679a6.90365,6.90365,0,0,0,.06454-.87358,7.59913,7.59913,0,0,0-.06454-.89952l1.95192-1.46736a.4462.4462,0,0,0,.11226-.576L30.0874,14.94427a.46011.46011,0,0,0-.56411-.19929l-2.30274.90089a6.75326,6.75326,0,0,0-1.56463-.88314l-.34239-2.38462A.46384.46384,0,0,0,24.85046,12H21.15008a.46385.46385,0,0,0-.46308.3781l-.341,2.38462a6.755,6.755,0,0,0-1.56322.88177L16.47865,14.745a.46065.46065,0,0,0-.56411.19792l-1.85089,3.11352a.43562.43562,0,0,0,.11226.576l1.95052,1.46736a7.59915,7.59915,0,0,0-.06455.90088,6.882,6.882,0,0,0,.06455.87222l-1.95052,1.49329a.43562.43562,0,0,0-.11226.576l1.85089,3.11489a.47215.47215,0,0,0,.56411.19792l2.30414-.90908a6.42426,6.42426,0,0,0,1.56322.89133l.3424,2.38462A.46384.46384,0,0,0,21.15148,30h3.70038a.46384.46384,0,0,0,.46307-.3781l.341-2.38462a6.78355,6.78355,0,0,0,1.56463-.89133l2.30274.90908a.47466.47466,0,0,0,.56551-.19792l1.84949-3.11489a.44617.44617,0,0,0-.11086-.576Z" style="fill: #ffe0b2"/>
</svg>
