<svg xmlns="http://www.w3.org/2000/svg" viewBox="0 0 32 32">
  <path d="M13.84376,7.53645l-1.28749-1.0729A2,2,0,0,0,11.27591,6H4A2,2,0,0,0,2,8V24a2,2,0,0,0,2,2H28a2,2,0,0,0,2-2V10a2,2,0,0,0-2-2H15.12412A2,2,0,0,1,13.84376,7.53645Z" style="fill: #b0bec5"/>
  <path d="M26.0094,19A2.994,2.994,0,0,1,29,21.99063v2.01874A2.994,2.994,0,0,1,26.0094,27H13.9906A2.994,2.994,0,0,1,11,24.00937V21.99063A2.994,2.994,0,0,1,13.9906,19H26.0094m0-3H13.9906A5.99061,5.99061,0,0,0,8,21.99063v2.01874A5.99061,5.99061,0,0,0,13.9906,30H26.0094A5.99061,5.99061,0,0,0,32,24.00937V21.99063A5.99061,5.99061,0,0,0,26.0094,16Z" style="fill: #dd2c00"/>
</svg>
