<svg xmlns="http://www.w3.org/2000/svg" viewBox="0 0 24 24">
  <defs>
    <style>
      .a {
        fill: #e57373;
      }

      .b {
        fill: #ffcdd2;
        fill-rule: evenodd;
      }
    </style>
  </defs>
  <path class="a" d="M19,20H4a2,2,0,0,1-2-2V6A1.99309,1.99309,0,0,1,4,4h6l2,2h7a2.00977,2.00977,0,0,1,2,2H4V18l2.14-8H23.21l-2.28,8.5A2.00187,2.00187,0,0,1,19,20Z"/>
  <path class="b" d="M12.276,14.245h.922v-2.46a1.2289,1.2289,0,0,1,1.23-1.229h2.459V9.634a1.537,1.537,0,0,1,1.537-1.537h0a1.537,1.537,0,0,1,1.537,1.537h0v.922H22.42a1.23,1.23,0,0,1,1.23,1.23v2.336h-.923a1.66,1.66,0,0,0,0,3.32h.922v2.336a1.23,1.23,0,0,1-1.23,1.23H20.084v-.923a1.66,1.66,0,0,0-3.32,0v.922H14.428a1.23,1.23,0,0,1-1.23-1.23V17.32h-.922a1.537,1.537,0,1,1,0-3.074Z"/>
</svg>
