<svg xmlns="http://www.w3.org/2000/svg" viewBox="0 0 24 24">
  <defs>
    <style>
      .a {
        fill: #b0bec5;
      }

      .b {
        fill: #dd2c00;
      }
    </style>
  </defs>
  <path class="a" d="M19,20H4a2,2,0,0,1-2-2V6A1.99309,1.99309,0,0,1,4,4h6l2,2h7a2.00977,2.00977,0,0,1,2,2H4V18l2.14-8H23.21l-2.28,8.5A2.00187,2.00187,0,0,1,19,20Z"/>
  <path class="b" d="M19.55078,14.197C21.08447,14.197,22,15.22684,22,16.95181s-.91553,2.75479-2.44922,2.75479H13.03052c-1.53369,0-2.44922-1.02984-2.44922-2.75479s.91553-2.7548,2.44922-2.7548h6.52026m0-2H13.03052c-2.626,0-4.44922,1.91223-4.44922,4.7548s1.82324,4.75479,4.44922,4.75479h6.52026c2.626,0,4.44922-1.91223,4.44922-4.75479s-1.82324-4.7548-4.44922-4.7548Z"/>
</svg>
