<svg xmlns="http://www.w3.org/2000/svg" viewBox="0 0 24 24">
  <defs>
    <style>
      .a {
        fill: #ffa726;
      }

      .b {
        fill: #ffe0b2;
      }
    </style>
  </defs>
  <path class="a" d="M10,4H4A1.99309,1.99309,0,0,0,2,5.98616Q2,5.99308,2,6V18a2,2,0,0,0,2,2H20a2,2,0,0,0,2-2V8a1.99944,1.99944,0,0,0-1.99888-2H12Z"/>
  <path class="b" d="M17.293,17.786a2.308,2.308,0,0,1-2.308-2.308h0a2.308,2.308,0,1,1,2.308,2.308h0m4.899-1.668a5.19634,5.19634,0,0,0,.046-.64,5.72007,5.72007,0,0,0-.046-.659l1.391-1.075a.333.333,0,0,0,.08-.422l-1.32-2.28a.32362.32362,0,0,0-.402-.146l-1.641.66a4.77891,4.77891,0,0,0-1.115-.647l-.244-1.747a.333.333,0,0,0-.33-.277H15.974a.333.333,0,0,0-.33.277l-.243,1.747a4.77984,4.77984,0,0,0-1.114.646l-1.642-.659a.324.324,0,0,0-.402.145l-1.319,2.281a.325.325,0,0,0,.08.422l1.39,1.075a5.72165,5.72165,0,0,0-.046.66,5.1801,5.1801,0,0,0,.046.639l-1.39,1.094a.325.325,0,0,0-.08.422l1.319,2.282a.332.332,0,0,0,.402.145l1.642-.666a4.54771,4.54771,0,0,0,1.114.653l.244,1.747a.333.333,0,0,0,.33.277h2.637a.333.333,0,0,0,.33-.277l.243-1.747a4.80219,4.80219,0,0,0,1.115-.653l1.641.666a.33372.33372,0,0,0,.403-.145l1.318-2.282a.333.333,0,0,0-.079-.422Z"/>
</svg>
