<svg xmlns="http://www.w3.org/2000/svg" viewBox="0 0 32 32"><path d="M13.84376,7.53645l-1.28749-1.0729A2,2,0,0,0,11.27591,6H4A2,2,0,0,0,2,8V24a2,2,0,0,0,2,2H28a2,2,0,0,0,2-2V10a2,2,0,0,0-2-2H15.12412A2,2,0,0,1,13.84376,7.53645Z" style="fill:#607d8b"/><path d="M31.5,28H26v-.5a.5.5,0,0,0-.5-.5H24V26h5a1,1,0,0,0,1-1V13a1,1,0,0,0-1-1H17a1,1,0,0,0-1,1V25a1,1,0,0,0,1,1h5v1H20.5a.5.5,0,0,0-.5.5V28H14.5a.5.5,0,0,0-.5.5v1a.5.5,0,0,0,.5.5H20v.5a.5.5,0,0,0,.5.5h5a.5.5,0,0,0,.5-.5V30h5.5a.5.5,0,0,0,.5-.5v-1A.5.5,0,0,0,31.5,28ZM18,24V14H28V24Z" style="fill:#cfd8dc"/><path d="M22.82813,16H20l3.5863,3L20,22h2.82813l2.87927-2.293a.99964.99964,0,0,0,0-1.41406Z" style="fill:#cfd8dc"/></svg>