<svg xmlns="http://www.w3.org/2000/svg" viewBox="0 0 32 32">
  <path d="M13.84376,7.53645l-1.28749-1.0729A2,2,0,0,0,11.27591,6H4A2,2,0,0,0,2,8V24a2,2,0,0,0,2,2H28a2,2,0,0,0,2-2V10a2,2,0,0,0-2-2H15.12412A2,2,0,0,1,13.84376,7.53645Z" style="fill: #ef5350"/>
  <path d="M28.5528,14.72357,24,17V15.618a1,1,0,0,0-1.4472-.89447L16,18V13a1,1,0,0,0-1-1H13a1,1,0,0,0-1,1V26a2,2,0,0,0,2,2H28a2,2,0,0,0,2-2V15.618A1,1,0,0,0,28.5528,14.72357ZM17,25.001a1,1,0,0,1-1,1H15a1,1,0,0,1-1-1v-2a1,1,0,0,1,1-1h1a1,1,0,0,1,1,1Zm5.5,0a1,1,0,0,1-1,1h-1a1,1,0,0,1-1-1v-2a1,1,0,0,1,1-1h1a1,1,0,0,1,1,1ZM28,25a1,1,0,0,1-1,1H26a1,1,0,0,1-1-1V23a1,1,0,0,1,1-1h1a1,1,0,0,1,1,1Z" style="fill: #ffcdd2"/>
</svg>
