<svg xmlns="http://www.w3.org/2000/svg" viewBox="0 0 32 32">
  <path d="M13.84376,7.53645l-1.28749-1.0729A2,2,0,0,0,11.27591,6H4A2,2,0,0,0,2,8V24a2,2,0,0,0,2,2H28a2,2,0,0,0,2-2V10a2,2,0,0,0-2-2H15.12412A2,2,0,0,1,13.84376,7.53645Z" style="fill: #e57373"/>
  <g>
    <polygon points="10 22.771 10 27.59 15 30 20 27.59 20 22.771 15 20.361 10 22.771" style="fill: #ffcdd2"/>
    <polygon points="27 20.361 22 22.771 22 27.59 27 30 32 27.59 32 22.771 27 20.361" style="fill: #ffcdd2"/>
    <polygon points="26 14.41 21 12 16 14.41 16 19.229 21 21.639 26 19.229 26 14.41" style="fill: #ffcdd2"/>
  </g>
</svg>
