<svg xmlns="http://www.w3.org/2000/svg" viewBox="0 0 32 32"><path d="M28.96692,12H9.44152a2,2,0,0,0-1.89737,1.36754L4,24V10H28a2,2,0,0,0-2-2H15.1241a2,2,0,0,1-1.28038-.46357L12.5563,6.46357A2,2,0,0,0,11.27592,6H4A2,2,0,0,0,2,8V24a2,2,0,0,0,2,2H26l4.80523-11.21213A2,2,0,0,0,28.96692,12Z" style="fill:#212121"/><path d="M28,22H26V18h2a4,4,0,1,0-4-4v2H20V14a4,4,0,1,0-4,4h2v4H16a4,4,0,1,0,4,4V24h4v2a4,4,0,1,0,4-4Zm0-10a2,2,0,0,1,0,4H26V14A2.00587,2.00587,0,0,1,28,12ZM14,14a2,2,0,1,1,2,2A2.00587,2.00587,0,0,1,14,14Zm2,14a2,2,0,0,1,0-4h2v2A2.00591,2.00591,0,0,1,16,28Zm4-6V18h4v4Zm8,6a2.00591,2.00591,0,0,1-2-2V24h2a2,2,0,0,1,0,4Z" style="fill:#9e9e9e"/></svg>