<svg xmlns="http://www.w3.org/2000/svg" viewBox="0 0 24 24">
  <defs>
    <style>
      .a {
        fill: #1e88e5;
      }

      .b {
        fill: #b2ebf2;
      }
    </style>
  </defs>
  <path class="a" d="M19,20H4a2,2,0,0,1-2-2V6A1.99309,1.99309,0,0,1,4,4h6l2,2h7a2.00977,2.00977,0,0,1,2,2H4V18l2.14-8H23.21l-2.28,8.5A2.00187,2.00187,0,0,1,19,20Z"/>
  <path class="b" d="M23.043,12.103a1.10638,1.10638,0,0,1,.03884,1.56416q-.01893.0199-.03884.03884L21.44,15.309l-4.465-4.465,1.603-1.603a1.10637,1.10637,0,0,1,1.56416-.03884q.0199.01893.03884.03884l1.03,1.03,1.717-1.717.802.801-1.717,1.718,1.03,1.03m-3.32,3.32-.802-.801-1.602,1.603-1.202-1.203,1.602-1.602-.801-.802-1.603,1.603-.859-.801-1.602,1.602a1.10636,1.10636,0,0,0-.03885,1.56415q.01895.0199.03885.03885l1.03,1.03-2.29,2.29.802.802,2.29-2.29,1.03,1.03a1.10636,1.10636,0,0,0,1.56416.03884q.01991-.01893.03884-.03884l1.602-1.602-.801-.802Z"/>
</svg>
