<svg xmlns="http://www.w3.org/2000/svg" viewBox="0 0 32 32">
  <path d="M28.96692,12H9.44152a2,2,0,0,0-1.89737,1.36754L4,24V10H28a2,2,0,0,0-2-2H15.1241a2,2,0,0,1-1.28038-.46357L12.5563,6.46357A2,2,0,0,0,11.27592,6H4A2,2,0,0,0,2,8V24a2,2,0,0,0,2,2H26l4.80523-11.21213A2,2,0,0,0,28.96692,12Z" style="fill: #ef5350"/>
  <path d="M28.5528,14.72357,24,17V15.618a1,1,0,0,0-1.4472-.89447L16,18V13a1,1,0,0,0-1-1H13a1,1,0,0,0-1,1V26a2,2,0,0,0,2,2H28a2,2,0,0,0,2-2V15.618A1,1,0,0,0,28.5528,14.72357ZM17,25.001a1,1,0,0,1-1,1H15a1,1,0,0,1-1-1v-2a1,1,0,0,1,1-1h1a1,1,0,0,1,1,1Zm5.5,0a1,1,0,0,1-1,1h-1a1,1,0,0,1-1-1v-2a1,1,0,0,1,1-1h1a1,1,0,0,1,1,1ZM28,25a1,1,0,0,1-1,1H26a1,1,0,0,1-1-1V23a1,1,0,0,1,1-1h1a1,1,0,0,1,1,1Z" style="fill: #ffcdd2"/>
</svg>
