<svg xmlns="http://www.w3.org/2000/svg" viewBox="0 0 24 24">
  <defs>
    <style>
      .a {
        fill: #607d8b;
      }

      .b {
        fill: #cfd8dc;
      }
    </style>
  </defs>
  <path class="a" d="M19,20H4a2,2,0,0,1-2-2V6A1.99309,1.99309,0,0,1,4,4h6l2,2h7a2.00977,2.00977,0,0,1,2,2H4V18l2.14-8H23.21l-2.28,8.5A2.00187,2.00187,0,0,1,19,20Z"/>
  <path class="b" d="M17.2632,22.425a4.76058,4.76058,0,0,1-2.28613-.56982,4.32414,4.32414,0,0,1-1.71777-1.7085,5.67018,5.67018,0,0,1-.6543-2.856,11.27307,11.27307,0,0,1,.52734-3.604A7.72184,7.72184,0,0,1,14.56887,11.069,6.196,6.196,0,0,1,16.64309,9.4709,5.65152,5.65152,0,0,1,19.065,8.927a3.18817,3.18817,0,0,1,2.50781.89258,3.4683,3.4683,0,0,1,.79,2.38818,3.30766,3.30766,0,0,1-.042.51026q-.04248.27173-.09375.561l-.98535,4.92969H19.83059l-.01758-.81592h-.06739a3.57726,3.57726,0,0,1-.91015.74805,2.4136,2.4136,0,0,1-1.19824.272,1.84927,1.84927,0,0,1-1.28321-.50146,1.71123,1.71123,0,0,1-.55273-1.33447,2.66452,2.66452,0,0,1,1.14746-2.32032,7.92456,7.92456,0,0,1,3.6123-1.07959,3.58766,3.58766,0,0,0,.10254-.748,2.422,2.422,0,0,0-.374-1.38575,1.6537,1.6537,0,0,0-1.46191-.55224,2.97865,2.97865,0,0,0-1.4795.4248,4.70219,4.70219,0,0,0-1.38574,1.2583,6.70976,6.70976,0,0,0-1.02832,2.06543,9.42547,9.42547,0,0,0-.39062,2.84766,4.33483,4.33483,0,0,0,.4414,2.06543A3.05128,3.05128,0,0,0,16.12453,20.385a2.85,2.85,0,0,0,1.46191.40772,2.7067,2.7067,0,0,0,1.01954-.17823,3.78411,3.78411,0,0,0,.86718-.50146l.78223,1.394a4.43218,4.43218,0,0,1-1.35156.68848A5.52591,5.52591,0,0,1,17.2632,22.425Zm1.22364-5.67822a1.714,1.714,0,0,0,.62988-.12744,2.8887,2.8887,0,0,0,.6289-.34864l.33985-1.666a4.10263,4.10263,0,0,0-1.81055.57812,1.137,1.137,0,0,0-.46777.918.60977.60977,0,0,0,.1875.47608A.70309.70309,0,0,0,18.48684,16.74678Z"/>
</svg>
