<svg xmlns="http://www.w3.org/2000/svg" viewBox="0 0 32 32"><path d="M28.96692,12H9.44152a2,2,0,0,0-1.89737,1.36754L4,24V10H28a2,2,0,0,0-2-2H15.1241a2,2,0,0,1-1.28038-.46357L12.5563,6.46357A2,2,0,0,0,11.27592,6H4A2,2,0,0,0,2,8V24a2,2,0,0,0,2,2H26l4.80523-11.21213A2,2,0,0,0,28.96692,12Z" style="fill:#0097a7"/><rect x="18" y="16" width="2" height="8" style="fill:#b2ebf2"/><polyline points="17 24 12 16 14 16 18 22" style="fill:#b2ebf2"/><rect x="17" y="22" width="3" height="2" style="fill:#b2ebf2"/><rect x="22" y="20" width="2" height="4" style="fill:#b2ebf2"/><rect x="24" y="18" width="2" height="2" style="fill:#b2ebf2"/><rect x="26" y="20" width="2" height="4" style="fill:#b2ebf2"/><rect x="26" y="14" width="2" height="4" style="fill:#b2ebf2"/><rect x="22" y="16" width="2" height="2" style="fill:#b2ebf2"/><rect x="22" y="14" width="2" height="2" style="fill:#b2ebf2"/></svg>