<svg xmlns="http://www.w3.org/2000/svg" viewBox="0 0 32 32">
  <path d="M13.84376,7.53645l-1.28749-1.0729A2,2,0,0,0,11.27591,6H4A2,2,0,0,0,2,8V24a2,2,0,0,0,2,2H28a2,2,0,0,0,2-2V10a2,2,0,0,0-2-2H15.12412A2,2,0,0,1,13.84376,7.53645Z" style="fill: #78909c"/>
  <g>
    <path d="M18.7453,12h5.9873L18.51772,29.38608A.95193.95193,0,0,1,17.61285,30h-4.6598A.92718.92718,0,0,1,12,29.10109a.854.854,0,0,1,.05035-.289l5.79116-16.19918A.95207.95207,0,0,1,18.74638,12Z" style="fill: #01579b"/>
    <path d="M27.23994,24H18.25126a.40471.40471,0,0,0-.41727.39077.38252.38252,0,0,0,.133.28935l5.75625,5.07194A.99584.99584,0,0,0,24.38152,30H29.4512Z" style="fill: #1976d2"/>
    <path d="M26,12.61092A.95006.95006,0,0,0,25.0972,12H18.42425a.95123.95123,0,0,1,.90389.61092l5.79073,16.201a.88987.88987,0,0,1-.59926,1.14092A1.00507,1.00507,0,0,1,24.215,30h6.673a.92739.92739,0,0,0,.95388-.89834.85425.85425,0,0,0-.05-.2887L26,12.61194Z" style="fill: #29b6f6"/>
  </g>
</svg>
