<svg xmlns="http://www.w3.org/2000/svg" viewBox="0 0 32 32">
  <path d="M28.96692,12H9.44152a2,2,0,0,0-1.89737,1.36754L4,24V10H28a2,2,0,0,0-2-2H15.1241a2,2,0,0,1-1.28038-.46357L12.5563,6.46357A2,2,0,0,0,11.27592,6H4A2,2,0,0,0,2,8V24a2,2,0,0,0,2,2H26l4.80523-11.21213A2,2,0,0,0,28.96692,12Z" style="fill: #ff8a65"/>
  <g>
    <g>
      <rect x="22" y="16" width="10" height="2" style="fill: #fbe9e7"/>
      <rect x="22" y="22" width="10" height="2" style="fill: #fbe9e7"/>
    </g>
    <path d="M13.69291,18a.99676.99676,0,0,1-.707-.293L10,14.68938l1.41406-1.41406,2.27885,2.31062,5.293-5.293L20.39994,11.707l-6,6A.99676.99676,0,0,1,13.69291,18Z" style="fill: #fbe9e7"/>
    <rect x="12" y="20" width="4" height="4" style="fill: #fbe9e7"/>
  </g>
</svg>
