<svg xmlns="http://www.w3.org/2000/svg" viewBox="0 0 24 24">
  <defs>
    <style>
      .a {
        fill: #b0bec5;
      }

      .b {
        fill: #ee0004;
      }
    </style>
  </defs>
  <path class="a" d="M10,4H4A1.99309,1.99309,0,0,0,2,6V18a2,2,0,0,0,2,2H20a2,2,0,0,0,2-2V8a1.99944,1.99944,0,0,0-2-2H12Z"/>
  <path class="b" d="M19.55078,14.197C21.08447,14.197,22,15.22686,22,16.95183c0,1.72492-.91553,2.75476-2.44922,2.75476H13.03052c-1.53369,0-2.44922-1.02984-2.44922-2.75476,0-1.725.91553-2.75482,2.44922-2.75482h6.52026m0-2H13.03052c-2.626,0-4.44922,1.91223-4.44922,4.75482,0,2.84253,1.82324,4.75476,4.44922,4.75476h6.52026c2.626,0,4.44922-1.91223,4.44922-4.75476,0-2.84259-1.82324-4.75482-4.44922-4.75482Z"/>
</svg>
