<svg xmlns="http://www.w3.org/2000/svg" viewBox="0 0 24 24">
  <defs>
    <style>
      .a {
        fill: #78909c;
      }

      .b {
        fill: #01579b;
      }

      .c {
        fill: #1976d2;
      }

      .d {
        fill: #29b6f6;
      }
    </style>
  </defs>
  <path class="a" d="M10,4H4A1.99309,1.99309,0,0,0,2,6V18a2,2,0,0,0,2,2H20a2,2,0,0,0,2-2V8a1.99944,1.99944,0,0,0-2-2H12Z"/>
  <g>
    <path class="b" d="M13.72418,8.58385h4.12234L13.5675,21.262a.65734.65734,0,0,1-.623.44767H9.73615a.65584.65584,0,0,1-.62152-.86625L13.10192,9.03078a.65733.65733,0,0,1,.623-.44693Z"/>
    <path class="c" d="M19.71407,17.08818H13.178a.30219.30219,0,0,0-.20668.52378l4.19994,3.91939a.659.659,0,0,0,.44991.17758H21.322Z"/>
    <path class="d" d="M18.98884,9.03a.65585.65585,0,0,0-.62153-.44544H13.77343a.65657.65657,0,0,1,.62226.44544l3.98655,11.81264a.65661.65661,0,0,1-.62227.86625h4.59389a.65584.65584,0,0,0,.62226-.86551L18.98884,9.03078Z"/>
  </g>
</svg>
