<svg xmlns="http://www.w3.org/2000/svg" viewBox="0 0 24 24">
  <defs>
    <style>
      .a {
        fill: #607d8b;
      }

      .b {
        fill: #eee;
      }

      .c {
        fill: #bbdefb;
        opacity: 0.8;
      }

      .d {
        fill: #0277bd;
      }

      .e {
        fill: #448aff;
      }
    </style>
  </defs>
  <path class="a" d="M10,4H4A1.99309,1.99309,0,0,0,2,5.98616Q2,5.99308,2,6V18a2,2,0,0,0,2,2H20a2,2,0,0,0,2-2V8a1.99944,1.99944,0,0,0-1.99888-2H12Z"/>
  <g>
    <path class="b" d="M20.94294,11.31766,23.96,7.96674a.15725.15725,0,0,0-.22173-.22173l-3.3509,3.01708"/>
    <rect class="b" x="8.89791" y="20.5685" width="1.8669" height="2.55023" transform="translate(-12.56606 13.34921) rotate(-44.99884)"/>
    <path class="c" d="M19.3767,10.63024l-.55042.55042-.42176-.42176a.62143.62143,0,0,0-.87886,0l-.83582.83582-.08274.56128-.56367.08513-.608.608-.09116.5697-.57212.09358-.56713.56707-.08389.56254-.5649.08631-3.326,3.326a.62142.62142,0,0,0,0,.87887l2.497,2.497a.62133.62133,0,0,0,.87884,0l7.29544-7.29544a.62131.62131,0,0,0,0-.87883l-.3175-.31751.55042-.55042a.62147.62147,0,0,0,0-.87887l-.87884-.87889A.6215.6215,0,0,0,19.3767,10.63024Z"/>
    <path class="d" d="M16.69332,11.59129l-.65909.65909.74007.74018a.46611.46611,0,1,0,.65917-.65918Z"/>
    <path class="d" d="M14.77249,13.51223l.72124.72124a.46609.46609,0,0,0,.65913-.65918l-.72127-.72127Z"/>
    <path class="d" d="M14.20751,14.0771l-.65909.6591.74006.74017a.46611.46611,0,1,0,.65918-.65917Z"/>
    <path class="e" d="M10.82322,17.41942h.62145a.62145.62145,0,0,1,.62145.62145v4.9716a.62149.62149,0,0,1-.62149.62149h-.62145a.62145.62145,0,0,1-.62145-.62145v-4.9716a.6215.6215,0,0,1,.6215-.6215Z" transform="translate(-11.25351 13.88501) rotate(-45)"/>
    <path class="e" d="M8.425,21.2269a.46607.46607,0,1,0-.65912.65913l1.97745,1.97745a.46609.46609,0,1,0,.65912-.65918Z"/>
  </g>
</svg>
