<svg xmlns="http://www.w3.org/2000/svg" viewBox="0 0 32 32">
  <path d="M13.84376,7.53645l-1.28749-1.0729A2,2,0,0,0,11.27591,6H4A2,2,0,0,0,2,8V24a2,2,0,0,0,2,2H28a2,2,0,0,0,2-2V10a2,2,0,0,0-2-2H15.12412A2,2,0,0,1,13.84376,7.53645Z" style="fill: #795548"/>
  <path d="M31.32971,17.50879,25.666,12.47943A1.00109,1.00109,0,0,0,24,13.22681V16H21.00037a7.00818,7.00818,0,0,0-7,7,1.001,1.001,0,0,1-1,1h-5v6h5a7.00818,7.00818,0,0,0,7-7,1.001,1.001,0,0,1,1-1H24v2.77313a1.00111,1.00111,0,0,0,1.666.74744l5.66369-5.02936A1.99388,1.99388,0,0,0,31.32971,17.50879Z" style="fill: #d7ccc8"/>
</svg>
