<svg xmlns="http://www.w3.org/2000/svg" xmlns:xlink="http://www.w3.org/1999/xlink" viewBox="0 0 32 32">
  <defs>
    <linearGradient id="a" x1="2" y1="16" x2="30" y2="16" gradientUnits="userSpaceOnUse">
      <stop offset="0" stop-color="#f06292"/>
      <stop offset="1" stop-color="#9575cd"/>
    </linearGradient>
  </defs>
  <path d="M13.84376,7.53645l-1.28749-1.0729A2,2,0,0,0,11.27591,6H4A2,2,0,0,0,2,8V24a2,2,0,0,0,2,2H28a2,2,0,0,0,2-2V10a2,2,0,0,0-2-2H15.12412A2,2,0,0,1,13.84376,7.53645Z" style="fill: url(#a)"/>
  <path d="M31.5,18a.5.5,0,0,0,.5-.5v-1a.5.5,0,0,0-.5-.5H28V13a1,1,0,0,0-1-1H24V8.5a.5.5,0,0,0-.5-.5h-1a.5.5,0,0,0-.5.5V12H20V8.5a.5.5,0,0,0-.5-.5h-1a.5.5,0,0,0-.5.5V12H15a1,1,0,0,0-1,1v3H10.5a.5.5,0,0,0-.5.5v1a.5.5,0,0,0,.5.5H14v2H10.5a.5.5,0,0,0-.5.5v1a.5.5,0,0,0,.5.5H14v3a1,1,0,0,0,1,1h3v3.5a.5.5,0,0,0,.5.5h1a.5.5,0,0,0,.5-.5V26h2v3.5a.5.5,0,0,0,.5.5h1a.5.5,0,0,0,.5-.5V26h3a1,1,0,0,0,1-1V22h3.5a.5.5,0,0,0,.5-.5v-1a.5.5,0,0,0-.5-.5H28V18ZM26,24H16V14H26Z" style="fill: #ffcdd2"/>
  <path d="M18,17v4a1,1,0,0,0,1,1h4a1,1,0,0,0,1-1V17a1,1,0,0,0-1-1H19A1,1,0,0,0,18,17Zm4,3H20V18h2Z" style="fill: #ffcdd2"/>
</svg>
