<svg xmlns="http://www.w3.org/2000/svg" viewBox="0 0 32 32">
  <path d="M28.96692,12H9.44152a2,2,0,0,0-1.89737,1.36754L4,24V10H28a2,2,0,0,0-2-2H15.1241a2,2,0,0,1-1.28038-.46357L12.5563,6.46357A2,2,0,0,0,11.27592,6H4A2,2,0,0,0,2,8V24a2,2,0,0,0,2,2H26l4.80523-11.21213A2,2,0,0,0,28.96692,12Z" style="fill: #616161"/>
  <path d="M11.5,28h-3a.5.5,0,0,1-.5-.5v-15a.5.5,0,0,1,.5-.5h3a.5.5,0,0,1,.5.5v1a.5.5,0,0,1-.5.5H10V26h1.5a.5.5,0,0,1,.5.5v1A.5.5,0,0,1,11.5,28Z" style="fill: #bdbdbd"/>
  <path d="M28.5,12h3a.5.5,0,0,1,.5.5v15a.5.5,0,0,1-.5.5h-3a.5.5,0,0,1-.5-.5v-1a.5.5,0,0,1,.5-.5H30V14H28.5a.5.5,0,0,1-.5-.5v-1A.5.5,0,0,1,28.5,12Z" style="fill: #bdbdbd"/>
  <rect x="12" y="18" width="4" height="4" rx="2" style="fill: #bdbdbd"/>
  <rect x="18" y="18" width="4" height="4" rx="2" style="fill: #bdbdbd"/>
  <rect x="24" y="18" width="4" height="4" rx="2" style="fill: #bdbdbd"/>
</svg>
