<svg xmlns="http://www.w3.org/2000/svg" viewBox="0 0 24 24">
  <defs>
    <style>
      .a {
        fill: #78909c;
      }

      .b {
        fill: #fdd835;
      }

      .c {
        fill: #2979ff;
      }

      .d {
        fill: #ff6e40;
      }
    </style>
  </defs>
  <path class="a" d="M10,4H4A1.99309,1.99309,0,0,0,2,6V18a2,2,0,0,0,2,2H20a2,2,0,0,0,2-2V8a1.99944,1.99944,0,0,0-2-2H12Z"/>
  <g>
    <ellipse class="b" cx="18.68751" cy="16.60969" rx="5.31249" ry="5.09999"/>
    <ellipse class="c" cx="13.37499" cy="16.60969" rx="5.31249" ry="5.09999"/>
    <path class="d" d="M13.375,16.60968v5.1a5.20948,5.20948,0,0,0,5.3125-5.1v-5.1A5.20948,5.20948,0,0,0,13.375,16.60968Z"/>
  </g>
</svg>
