<svg xmlns="http://www.w3.org/2000/svg" viewBox="0 0 32 32">
  <path d="M13.84376,7.53645l-1.28749-1.0729A2,2,0,0,0,11.27591,6H4A2,2,0,0,0,2,8V24a2,2,0,0,0,2,2H28a2,2,0,0,0,2-2V10a2,2,0,0,0-2-2H15.12412A2,2,0,0,1,13.84376,7.53645Z" style="fill: #78909c"/>
  <g>
    <path d="M31.7541,26.37623a1.4273,1.4273,0,0,0,.19807-1.167,1.30529,1.30529,0,0,0-.44682-.69135,1.38773,1.38773,0,0,0-.19945-1.7228,1.32642,1.32642,0,0,0-.985-.41163c-.045,0-.09078.00226-.13755.00688a9.39619,9.39619,0,0,0,.44155-2.85455,9.68863,9.68863,0,0,0-19.37485,0,9.39258,9.39258,0,0,0,.43928,2.84745h-.01026a1.32618,1.32618,0,0,0-.98495.41163,1.38786,1.38786,0,0,0-.1995,1.72279,1.30473,1.30473,0,0,0-.44675.69147,1.42613,1.42613,0,0,0,.19836,1.16707c-.02051.03126-.03926.06376-.057.09693a1.26609,1.26609,0,0,0-.03476,1.13864c.25629.57062.893,1.02028,2.12944,1.50277.76887.30026,1.47294.49208,1.4792.49388A11.24506,11.24506,0,0,0,16.496,30a3.72194,3.72194,0,0,0,2.90594-1.04769,9.95371,9.95371,0,0,0,3.18069-.01772A3.70718,3.70718,0,0,0,25.50424,30a11.24573,11.24573,0,0,0,2.733-.39155c.00619-.0018.71-.19362,1.47915-.49388,1.2365-.48249,1.87326-.93215,2.12945-1.50277a1.26587,1.26587,0,0,0-.03473-1.13864C31.79353,26.43965,31.77439,26.40726,31.7541,26.37623Zm-12.79787,1.4872q-.07652.13236-.17228.27024a1.74137,1.74137,0,0,1-.61865.54128,3.57871,3.57871,0,0,1-1.66933.34043,10.54185,10.54185,0,0,1-2.48191-.36006c-.027-.00688-3.36249-.93429-2.94012-1.7237a.34857.34857,0,0,1,.33521-.18573c.59459,0,1.67725.87155,2.14256.87155a.19266.19266,0,0,0,.20719-.14984c.19826-.70016-3.01393-.99444-2.7434-2.00817a.32873.32873,0,0,1,.35931-.25219c.78608-.00011,2.55037,1.36071,2.91943,1.36071a.06548.06548,0,0,0,.05956-.02528l.00481-.00779c.17315-.28153.07381-.48621-1.1128-1.2016l-.11389-.06827c-1.30574-.778-2.22222-1.24606-1.70093-1.8046a.32318.32318,0,0,1,.24819-.09309,1.19576,1.19576,0,0,1,.43395.108,9.8125,9.8125,0,0,1,2.04465,1.40754c.11769.10087.1871.16248.1871.16248s.50548.51747.81119.51747a.186.186,0,0,0,.17047-.09478c.21685-.35973-2.01318-2.02317-2.13885-2.70945-.0853-.46511.05976-.7006.328-.7006a.90115.90115,0,0,1,.455.16068,11.623,11.623,0,0,1,1.93895,2.75108.60959.60959,0,0,0,.53623.32294c.3855,0,.68685-.37721.03531-.85655-.97922-.72137-.63562-1.90029-.16828-1.97284a.41378.41378,0,0,1,.06018-.00474c.425,0,.61257.721.61257.721A7.754,7.754,0,0,0,18.479,25.46632,1.7374,1.7374,0,0,1,18.95623,27.86343Zm3.05243.1591-.04895.00575-.08356.00948q-.06585.0066-.13194.01275l-.0431.00384-.0392.00327-.05582.0044-.06156.00429-.06144.00406-.01353.00079-.04837.00282-.02052.001-.05731.00282-.0666.00271-.06052.002-.04035.00113h-.02041l-.03771.00079h-.02006l-.03771.00067-.05124.00057H20.937q-.08442,0-.16838-.00158l-.0454-.001-.03863-.001-.048-.00147-.05983-.00226-.05376-.00225-.014-.00057-.05124-.00271-.04252-.00237-.03313-.00191c-.04184-.0026-.08333-.00553-.12483-.00869l-.04356-.00339-.055-.00462-.06431-.00587c-.036-.00339-.07187-.00688-.10763-.01083H19.985a2.69738,2.69738,0,0,0-.79965-3.266,6.68461,6.68461,0,0,1-1.25185-1.91169,1.7361,1.7361,0,0,0-1.55985-1.38316,1.39355,1.39355,0,0,0-1.14808.6047,3.25724,3.25724,0,0,0-.71761-.69158,1.87223,1.87223,0,0,0-.99072-.31369,1.31231,1.31231,0,0,0-1.01868.46038l-.00635.00756-.01416-.05879-.00061-.00248q-.02121-.09023-.041-.18167-.03249-.15233-.05937-.30669l-.02049-.12232-.00062-.00417-.00717-.04638-.0042-.02764-.007-.04762-.00871-.06251-.0083-.06251-.0078-.06274-.007-.05958-.00062-.00508c-.00457-.0413-.009-.08259-.01312-.12412-.0039-.03994-.00751-.07977-.01086-.11983l-.00256-.03126-.00411-.05314-.00307-.044-.00072-.01-.00378-.0589-.0036-.064-.00318-.064-.00236-.05586-.00061-.01692-.00174-.05168-.00124-.04378-.00112-.05258-.00092-.05518-.00051-.05507c-.00052-.0185,0-.03689,0-.0554a8.68835,8.68835,0,0,1,17.37453,0v.11047l-.00092.05518-.001.0457-.00115.04039c0,.01727-.001.03442-.0016.05168v.00147l-.00241.05991-.00229.05247-.00069.01242-.003.056-.00275.04435q-.00825.13455-.02052.268l-.00447.04694v.00146l-.00607.059-.00505.04626-.01031.09083-.00585.04593-.00722.05393-.00814.059-.00963.06578-.008.05168-.0094.05868c-.00321.01952-.00642.03893-.0102.05845-.0039.01941-.00688.03881-.01032.05833-.00688.03882-.014.07752-.02167.11623-.00722.03712-.01478.07413-.02235.111l-.01318.06251-.01249.05709-.01307.05733a1.319,1.319,0,0,0-.92539-.36131,1.87166,1.87166,0,0,0-.99062.31369,3.25719,3.25719,0,0,0-.71768.69158,1.39169,1.39169,0,0,0-1.14812-.6047,1.736,1.736,0,0,0-1.55985,1.38316,6.70545,6.70545,0,0,1-1.25312,1.9127A2.696,2.696,0,0,0,22.00866,28.02253Zm8.96849-2.30278-.00344.01-.00745.01918-.01307.02833-.00963.01873c-.00848.01557-.01776.0308-.028.046-.01238.01817-.02579.03611-.04046.05394l-.02247.02629-.01627.01738-.02511.02561a2.36585,2.36585,0,0,1-.65556.40373l-.09158.04029-.03072.01342c-.02052.00892-.04093.01783-.06248.02652l-.06315.02607-.064.02606c-.14959.06059-.30285.11825-.45243.17535l-.06385.02437-.06328.02438q-.06292.02419-.12437.0484L29.079,26.798l-.05972.02415-.02946.01207-.05777.02415c-.43994.18573-.75631.37473-.68983.60932l.00619.01907a.21851.21851,0,0,0,.02419.04919.166.166,0,0,0,.02051.02584c.07818.07989.22043.06726.39983.00384l.04447-.01659.03084-.012.01547-.00643c.041-.01715.08448-.03622.129-.05709l.03359-.01591c.21928-.10551.46791-.24779.71459-.37722.03782-.0202.07576-.03949.11348-.05867.06293-.032.12529-.06263.18673-.09084a1.63886,1.63886,0,0,1,.62976-.18483.39939.39939,0,0,1,.21688.05507l.0102.00666.01937.01433a.332.332,0,0,1,.06018.06364l.01479.022.01375.02392c.08724.16294.01422.33186-.15658.49739a2.94069,2.94069,0,0,1-.70932.459l-.06487.03182a14.07766,14.07766,0,0,1-2.00932.73547c-.30124.07684-.732.17783-1.21723.25332l-.07187.01095-.0117.00169-.07817.01128-.08517.01151q-.08322.01083-.1677.0202l-.0102.001c-.20117.02256-.40751.03892-.61418.04581h-.00309q-.11142.004-.22273.004h-.08551q-.06465-.00086-.12907-.00316-.10575-.00372-.21023-.012l-.00813-.00057q-.03972-.003-.07921-.007l-.04184-.00418q-.06311-.0066-.12529-.015c-.02751-.00361-.05514-.00767-.082-.012l-.0831-.01376-.0376-.007L24.619,28.94c-.03989-.00745-.07956-.01569-.11876-.0246-.02281-.00508-.04573-.01016-.06832-.01614l-.01352-.0035-.03324-.00857-.00608-.00158-.03542-.01-.0384-.01106-.00458-.00136-.03336-.01-.0376-.01185-.03083-.01015-.02259-.00779c-.02178-.00744-.04333-.01534-.06487-.02347l-.02041-.00778-.01685-.00666q-.049-.01947-.09675-.0404l-.02132-.01-.00355-.00158-.02258-.01015-.044-.02156-.00435-.00214-.0211-.01094c-.02418-.01242-.0478-.02528-.07118-.03871l-.03909-.0229-.01971-.01185-.02923-.01851-.02568-.01681L23.648,28.5611l-.0165-.01151c-.01743-.0123-.03462-.02494-.05136-.0378l-.02659-.0202-.03164-.02572-.026-.022-.0008-.00068-.0274-.02414-.02659-.02437-.00092-.00113-.027-.02607-.02636-.02663-.02591-.02753-.0243-.02674-.00275-.00305-.023-.02686c-.01639-.01929-.03221-.039-.04769-.05935-.01547-.02019-.03049-.041-.04527-.06217l-.01422-.02065-.02785-.04119-.02706-.04095-.02613-.0404-.01272-.02008-.02362-.03826-.00321-.00519-.022-.0369-.01157-.02019-.01227-.02122-.00642-.01117-.004-.00733-.0227-.041-.0102-.01806-.01032-.0194-.0102-.0193-.01971-.03915-.0094-.0193-.0196-.04118-.00745-.01659L22.9,27.57942l-.008-.019-.01559-.038-.00722-.01816c-.00986-.02539-.01914-.05078-.02785-.07594L22.835,27.4096l-.01089-.03374c-.0063-.01975-.01215-.03949-.01731-.059l-.005-.0185q-.0074-.02758-.01352-.05518l-.00791-.03667-.00367-.01839-.00654-.03645q-.00464-.02726-.00791-.05439l-.00229-.01794-.002-.01828q-.00378-.03621-.00573-.0721l-.00069-.018-.001-.03589a2.06178,2.06178,0,0,1,.77145-1.4671,7.75519,7.75519,0,0,0,1.49337-2.28676s.01479-.057.04562-.1389l.01364-.03544.0188-.04558c.00894-.021.0188-.04265.02946-.06466l.01227-.02482.00435-.00858.0086-.0167c.01639-.03091.03439-.06217.05387-.09275l.01617-.0246q.01685-.0247.03484-.04829l.01834-.02325c.01032-.01263.02132-.02505.03256-.037l.01341-.0141a.49419.49419,0,0,1,.188-.12514l.00894-.00282.01788-.00542.02132-.005.00321-.00056a.35839.35839,0,0,1,.04528-.006h.00138l.02395-.00079a.26418.26418,0,0,1,.02981.00112l.03072.00361a.41084.41084,0,0,1,.23579.14l.0094.01083a.6739.6739,0,0,1,.04493.05822l.01674.02528q.02062.03267.039.06872l.01433.02933.00676.01524.01307.0308.01215.03182a1.11468,1.11468,0,0,1,.04344.1547l.00688.03633a1.26425,1.26425,0,0,1,.01548.133l.00183.03915q.0012.04622,0,.09355l-.00206.0361a1.33038,1.33038,0,0,1-.06763.33524l-.02052.05653-.01536.03769c-.01032.02505-.02212.05044-.03462.075-.0094.01873-.01914.03735-.02957.056l-.02144.03734q-.02768.04638-.05972.09208l-.01307.01828q-.02648.03639-.05582.0721a1.57756,1.57756,0,0,1-.1128.12288,1.774,1.774,0,0,1-.19475.166,1.56889,1.56889,0,0,0-.176.1486l-.01777.01794c-.17228.17806-.21241.335-.17366.45406l.00585.01614.01031.02324.008.01478a.30125.30125,0,0,0,.041.05416l.00608.00621.00607.006.01972.01726.00688.00553.01421.01a.39515.39515,0,0,0,.03863.0237l.01628.00835a.45718.45718,0,0,0,.06144.0246l.01765.0053.00757.00192.0102.00271.00894.00214.00951.002.00952.00192.009.00147.02041.00316.00664.0009.01181.00124.00734.00068.01215.0009h.007l.01261.00057h.03978l.01134-.00057.01307-.00079.01593-.00146.01491-.00181.0102-.00147.02281-.00372q.0282-.00525.05571-.0132a.57938.57938,0,0,0,.05525-.01885l.01822-.00756.02992-.014.02373-.01241c.01181-.00654.0235-.01354.03485-.021a.59927.59927,0,0,0,.07428-.05676l.01616-.01511.00756-.00745.01525-.01569c.01009-.0106.01983-.02189.02934-.03362a.68345.68345,0,0,0,.06523-.09693c.153-.2751.41357-.72577.70507-1.18626l.0337-.05314.03405-.05326.05124-.07978.01731-.02651.0345-.05292q.06946-.10579.1395-.20932l.035-.05145c.07016-.10223.14019-.20175.20943-.29642l.03462-.04672c.05124-.06973.10247-.13642.15279-.19938q.04179-.05247.08254-.10088l.03244-.03814.016-.01884.03176-.03622.01582-.0176.03072-.03419.01547-.01648.04539-.04716.02981-.02957a1.18905,1.18905,0,0,1,.19131-.1565l.01593-.01L28.06182,22.2l.0314-.01817c.271-.15131.49543-.16248.6245-.03543a.51177.51177,0,0,1,.11921.38218l-.00069.02381v.0088l-.00126.02449a.2989.2989,0,0,1-.00229.03024l-.00252.02674-.00092.00779-.00287.0238-.001.00734-.00355.02505-.00115.007-.00481.02945-.00287.01682a.44852.44852,0,0,1-.01157.0475q-.0074.02454-.01754.05044l-.01479.035-.01731.036c-.01238.02449-.02636.04954-.04172.07549l-.02408.03916-.01283.02008q-.0196.0303-.04093.06127c-.01421.02065-.02945.04175-.04585.06308q-.0318.04265-.06717.08677l-.01788.02223q-.045.05551-.09457.11306c-.01983.02313-.04.04626-.06075.06974l-.04207.04682-.02143.0237q-.04317.04755-.08815.0958l-.0227.02414-.04574.04841-.04654.04886-.04722.049-.0478.04908-.04815.04932-.09732.09873a8.91873,8.91873,0,0,0-1.12037,1.22857q-.0165.0286-.03.05856a.241.241,0,0,0-.02671.13507.10167.10167,0,0,0,.01284.03419l.016.02358.01776.02008.01926.01637a.19412.19412,0,0,0,.11715.035h.01307l.01341-.00091.01353-.00158.01112-.00158.00447-.00079.0102-.00191.00275-.00068.01123-.00237.004-.001.012-.003.01433-.00418.02843-.00948.03072-.01173.03014-.0132.01513-.00722.01525-.00745c.02-.00993.03978-.02065.05972-.03227.01594-.00926.03175-.01873.04757-.02878l.01536-.01.01525-.01016.01524-.01.008-.00553.022-.01512c.02051-.014.03966-.02832.05914-.04287l.00172-.00125.03072-.02347c.04207-.03272.08208-.06567.11818-.0967l.02408-.02087.00229-.002.01249-.011c.02958-.02607.05594-.05044.07795-.07063l.00894-.00858.02167-.0202.013-.01241.00447-.00451.00126-.00124.01341-.01321.0086-.00857.00092-.00091.00412-.00361.00493-.0044.00161-.00146.00435-.00384.02327-.0202.01307-.01162.02052-.01828.0157-.01354.00837-.00733.01639-.01411.02419-.02076.01272-.011c.04987-.04276.11062-.09433.1802-.15244l.02854-.0237.04723-.03893.04814-.03971c.06305-.05146.13091-.10618.20266-.163l.04711-.03724c.04012-.03137.08139-.06353.12312-.0958l.05123-.03881.07761-.05868.05124-.03814c.09835-.07312.19979-.14635.30238-.21777l.04414-.03013c.03072-.021.06144-.04186.09227-.06229l.02786-.01862.08688-.05687c.02671-.017.0533-.034.0799-.05043l.02785-.01727.02763-.01692c.02762-.01682.05525-.03352.08253-.04965l.0274-.016.0549-.03149.05376-.03024.01078-.006.04264-.0229.053-.02753.02636-.01332.02545-.01275.02648-.01275c.05124-.02471.10259-.04728.15131-.067l.02453-.01015q.02424-.01.04814-.01817l.04711-.01625.041-.013.00447-.00136.02132-.006.00207-.00056.04344-.01117h.00115q.03215-.00762.0627-.01275l.02052-.00316.04023-.00486.01949-.00146.03794-.00124h.00963a.37011.37011,0,0,1,.03748.002l.01674.0018h.00229l.01651.0026.01616.00316h.00183l.01571.00406.016.005a.28262.28262,0,0,1,.05249.02324l.01376.00846.0133.00914.02178.01794.003.00294.00584.00564.00573.006a.62177.62177,0,0,1,.11268.16147l.00447.01.00791.0202a.39105.39105,0,0,1,.0149.04965.36592.36592,0,0,1-.01169.20073l-.0063.01761a.55978.55978,0,0,1-.02946.064l-.0094.0167a.93442.93442,0,0,1-.126.16384l-.01031.01072q-.02271.02369-.04769.04739l-.02258.0211-.02361.02132-.01215.01084-.02488.02132c-.01685.01422-.03416.02866-.05227.04311l-.01375.01105c-.01823.01445-.037.02912-.05652.04378q-.05124.0386-.10649.078-.04779.03384-.0988.06837-.06156.04147-.12724.08384-.11675.07549-.2468.15482l-.07255.044c-.22548.13654-.47548.28255-.74211.44131l-.069.0413q-.11331.068-.2139.12987l-.03381.021-.064.0404-.07394.04671-.05307.03385-.03416.02212-.04964.03238-.016.01-.04952.03295-.02625.0176-.03084.02111-.02843.01952q-.07186.04976-.13331.095l-.01536.0115-.05021.03826-.02109.01658q-.0533.04215-.09686.0808l-.01421.01286-.02373.02189-.0157.015-.00745.00722-.014.014-.03381.03577-.00757.00857c-.01685.01919-.03152.03758-.04448.05552l-.00573.00813a.48338.48338,0,0,0-.02762.04457l-.00619.01162-.0055.01151-.0039.00823-.00241.00576-.002.005-.00263.00689-.00333.01015a.24888.24888,0,0,0-.00894.03374l-.00149.00767-.00115.00756-.00091.00689-.00058.00665v.03544l.00069.009.00058.00542.00114.00891.00218.01241v.00057l.00264.01185.00332.01252.00791.02381.00539.01388.00114.00282.00413.00925.00585.01253.013.02516.00722.01275.00757.01286.0079.01287.00459.006.00264.0027.00275.00249.00309.00237.00654.00395.00733.003.00826.00237a.7969.7969,0,0,0,.38262-.13315l.03244-.01692.05491-.02945.02694-.01467c.019-.01016.03863-.02144.05846-.03261l.03634-.0202c.23877-.13529.52407-.30917.8189-.47888l.083-.0475.05571-.035c.02785-.0158.05559-.03137.08345-.04672q.05571-.03114.11153-.06127c.08345-.04513.16655-.08869.24851-.12987l.05445-.0272q.05433-.0264.10752-.05145.05347-.02472.10557-.04762c.03462-.01523.06889-.02967.10248-.04355l.0384-.01535.0047-.0018a1.57158,1.57158,0,0,1,.537-.12841.55215.55215,0,0,1,.09641.00778h.00091l.029.00621h.00172l.02293.00654.01742.0061.01307.0053.01719.008.01972.01072a.28746.28746,0,0,1,.06408.05236.26278.26278,0,0,1,.02281.02855l.00653.01015.01227.0202.01364.02753.0118.03024.01021.03238A.43539.43539,0,0,1,30.97715,25.71975Z" style="fill: #ffa000"/>
    <path d="M29.62488,19.59111v-.05529a8.68765,8.68765,0,0,0-17.37316,0l-.00012.01851c-.00011.0123-.00023.02448.00012.03678l.0004.03532.0001.01986.00066.04062.00027.01467.0005.02008.00062.03239.00124.04389.00174.05157.00061.01692.00226.05338.0001.00248.0031.0624.00008.00158.0036.06386.00378.059.00031.00349.00041.00655.00307.044.00033.0044.00378.04874.00024.00316.00232.02821q.005.05992.01086.11972.00626.0623.01312.12412l.00062.00508.007.05958.00779.06274.00562.04242.00268.02009.00872.06251.007.0475.00419.02776.00047.003.00671.04333.00062.00417.02049.12221q.02687.15453.05937.3068.01977.09139.041.18167l.00061.00259.00366.01524.0105.04344.00635-.00756a1.31229,1.31229,0,0,1,1.01868-.46038,1.87112,1.87112,0,0,1,.99071.31369,3.25448,3.25448,0,0,1,.71762.69158,1.39331,1.39331,0,0,1,1.14809-.6047,1.73623,1.73623,0,0,1,1.55985,1.38316,6.64452,6.64452,0,0,0,1.25415,1.9109,2.69734,2.69734,0,0,1,.79964,3.266H19.989q.05364.00575.10764.01072l.0643.00586.00757.00068.04734.00395.04356.0035c.04149.00316.0831.006.12494.00869l.033.00191.02624.00147.0164.0009.05112.00271.014.00057.05388.00225.05972.00226.04815.00135.008.00034.0306.00079.01089.00023.03451.00068q.08391.00168.16827.00169h.07176l.05135-.00057L21.1,28.08369H21.12l.01731-.00034.0204-.00045h.02052l.04023-.00113.06053-.002.06671-.00282.05732-.00271.02051-.00113.03038-.00169.018-.001.01341-.00079.06155-.00406.06156-.0044.05571-.00429.03932-.00327.043-.00384q.06619-.00609.13194-.01286l.08356-.00937.049-.00575a2.69776,2.69776,0,0,1,.8056-3.25231,6.709,6.709,0,0,0,1.25312-1.9127,1.73585,1.73585,0,0,1,1.55974-1.38316,1.4038,1.4038,0,0,1,.21527.01682,1.42869,1.42869,0,0,1,.93295.58788,3.25963,3.25963,0,0,1,.71758-.69158,1.87165,1.87165,0,0,1,.99061-.31369,1.31982,1.31982,0,0,1,.92551.36131l.013-.05733.01249-.05709.0133-.06251.02235-.111q.01136-.05807.02155-.11623l.00367-.021.00665-.03735c.00378-.01952.00711-.03882.0102-.05845l.00126-.00745.00814-.05112.008-.05179.00012-.00056.00951-.06522.00688-.04954.00138-.00948.0071-.05393.00585-.04593.01032-.09083.004-.03645.00114-.00981.006-.0589v-.00158l.00458-.04694q.01221-.13355.02052-.268l.00264-.04435V20.0208l.00309-.05529.00057-.01242.00229-.05247.00241-.05991v-.00147l.00058-.01456.001-.03712.00023-.00508.00091-.03531.00035-.01016.00068-.03543.00023-.01.00069-.04525ZM18.78441,28.13367a1.77935,1.77935,0,0,0-.3048-2.66724,7.75677,7.75677,0,0,1-1.49337-2.28676s-.20507-.789-.67275-.7164c-.46769.07244-.81081,1.25125.16838,1.97284s-.19475,1.21086-.57164.53372a11.615,11.615,0,0,0-1.93945-2.751c-.53349-.333-.90869-.14635-.78291.53993A4.70592,4.70592,0,0,0,14.374,24.224c.55068.55121,1.06205,1.06292.95276,1.244-.217.35972-.98128-.42258-.98128-.42258s-2.3929-2.14356-2.91388-1.58491c-.48015.51488.26039.95257,1.40155,1.62711q.1456.08616.29938.1775c1.30573.77812,1.40721.98337,1.222,1.27777-.06848.10877-.50559-.14963-1.04311-.46726-.91652-.54162-2.12495-1.25577-2.2956-.61655-.14769.55324.74134.89221,1.54767,1.19969.67174.25614,1.28606.49039,1.19573.80836-.09364.3296-.60133.05473-1.1563-.24587-.623-.33749-1.30565-.70726-1.529-.29-.42225.78873,2.91276,1.71727,2.94013,1.724C15.09155,28.93042,17.828,29.51333,18.78441,28.13367Zm4.432,0a1.77925,1.77925,0,0,1,.3048-2.66724,7.75832,7.75832,0,0,0,1.49348-2.28676s.205-.789.67264-.7164c.46768.07244.81088,1.25125-.16839,1.97284s.19475,1.21086.57177.53372a11.61058,11.61058,0,0,1,1.93881-2.751c.53348-.333.90877-.14635.783.53993a4.70562,4.70562,0,0,1-1.18628,1.4653h0c-.55067.5511-1.06191,1.06281-.95267,1.24392.21687.35972.98179-.423.98179-.423s2.39285-2.14356,2.91384-1.58491c.48017.51488-.26044.95269-1.40167,1.62734q-.14563.086-.2993.17738c-1.30572.778-1.40717.98338-1.22193,1.27765.06843.10878.50551-.14951,1.043-.46714.91656-.54162,2.12509-1.25588,2.29565-.61666.14776.55324-.7413.89232-1.5477,1.1998-.67172.25614-1.286.49028-1.1958.80836.09365.3296.60111.05462,1.15591-.246.623-.33749,1.30572-.70738,1.52913-.29.42229.7893-2.91315,1.71682-2.9402,1.7237C26.90877,28.93042,24.17238,29.51333,23.21638,28.13367Z" style="fill: #ffd600;fill-rule: evenodd"/>
    <path d="M23.76029,17.20822a.80741.80741,0,0,1,.332.32734c.12953.18471.25012.35645.43513.25964a1.24014,1.24014,0,0,0,.51422-.50393,1.21475,1.21475,0,0,0-.13308-1.36085,1.2508,1.2508,0,0,0-.60249-.39817,1.26881,1.26881,0,0,0-.72571-.00159,1.25171,1.25171,0,0,0-.6042.39554,1.21486,1.21486,0,0,0-.13927,1.36021c.08574.15876.276.084.47685.00486A.71748.71748,0,0,1,23.76029,17.20822Zm-5.88912.00011a.80771.80771,0,0,0-.33208.32734c-.12953.1846-.25012.35645-.43513.25964a1.24007,1.24007,0,0,1-.51411-.504,1.21467,1.21467,0,0,1,.13309-1.3608,1.25153,1.25153,0,0,1,.6026-.39811,1.26892,1.26892,0,0,1,.72559-.00153,1.25181,1.25181,0,0,1,.60432.39548,1.2154,1.2154,0,0,1,.13927,1.36022c-.086.15876-.27625.08383-.47708.00474A.7161.7161,0,0,0,17.87117,17.20833Zm4.97806,5.27525a3.51671,3.51671,0,0,0,1.27626-2.63373c0-.57547-.3934-.39437-1.023-.08756l-.03542.01737a5.08778,5.08778,0,0,1-2.192.65683,5.0859,5.0859,0,0,1-2.19191-.65694c-.65006-.317-1.05779-.51578-1.05779.07041a3.49615,3.49615,0,0,0,1.366,2.70064,2.14265,2.14265,0,0,1,.54643-.6883,2.18277,2.18277,0,0,1,.78027-.41592c.1-.02934.20289.14.30835.31335.10168.16734.20553.3384.31133.3384.11257,0,.2233-.16858.33139-.33321.11291-.172.223-.33964.32944-.30613.03118.00982.0619.0202.09228.03137A2.164,2.164,0,0,1,22.84923,22.48358Z" style="fill: #263238;fill-rule: evenodd"/>
    <path d="M22.84888,22.48347a3.41975,3.41975,0,0,1-3.85757.067,2.14514,2.14514,0,0,1,.54632-.68831,2.18682,2.18682,0,0,1,.78038-.41591c.19636-.05766.40429.65175.61957.65175.23051,0,.45255-.7049.66094-.63934.031.00982.06167.0202.09228.03137A2.16458,2.16458,0,0,1,22.84888,22.48347Z" style="fill: #f44336"/>
    <path d="M15.63927,18.2321a.82354.82354,0,0,1-.76244.07391.8117.8117,0,0,1-.26363-.17343.79868.79868,0,0,1-.17612-.25953.78914.78914,0,0,1,.07527-.75048.81012.81012,0,0,1,.3647-.29444.82194.82194,0,0,1,.88541.1735.7929.7929,0,0,1-.12319,1.23047Zm11.62462,0a.82344.82344,0,0,1-.76239.07391.81164.81164,0,0,1-.26364-.17343.79885.79885,0,0,1-.17607-.25953.78922.78922,0,0,1,.07519-.75048.81041.81041,0,0,1,.36475-.29444.82194.82194,0,0,1,.88539.1735.7929.7929,0,0,1-.12323,1.23047Z" style="fill: #ffa000;fill-rule: evenodd"/>
  </g>
</svg>
