<svg xmlns="http://www.w3.org/2000/svg" xmlns:xlink="http://www.w3.org/1999/xlink" viewBox="0 0 24 24">
  <defs>
    <style>
      .a {
        fill: url(#a);
      }

      .b {
        fill: #ffebee;
      }

      .c {
        fill: none;
        stroke: #ffebee;
        stroke-linecap: round;
        stroke-miterlimit: 10;
      }
    </style>
    <linearGradient id="a" x1="3.58477" y1="20.4132" x2="19.41336" y2="4.5846" gradientUnits="userSpaceOnUse">
      <stop offset="0" stop-color="#f06292"/>
      <stop offset="1" stop-color="#9575cd"/>
    </linearGradient>
  </defs>
  <path class="a" d="M10,4H4A1.99309,1.99309,0,0,0,2,6V18a2,2,0,0,0,2,2H20a2,2,0,0,0,2-2V8a1.99944,1.99944,0,0,0-2-2H12Z"/>
  <g>
    <path class="b" d="M21.076,11.00974a.474.474,0,0,1,.474.474V18.5358a.474.474,0,0,1-.474.47394H14.024a.474.474,0,0,1-.474-.47394V11.48374a.474.474,0,0,1,.474-.474H21.076m0-1H14.024a1.47567,1.47567,0,0,0-1.474,1.474V18.5358a1.47561,1.47561,0,0,0,1.474,1.47394H21.076A1.47561,1.47561,0,0,0,22.55,18.5358V11.48374a1.47567,1.47567,0,0,0-1.474-1.474Z"/>
    <line class="c" x1="12.98603" y1="15.00975" x2="11.6" y2="15.00975"/>
    <line class="c" x1="23.5" y1="15.00975" x2="22.11397" y2="15.00975"/>
    <line class="c" x1="12.98603" y1="13.00975" x2="11.6" y2="13.00975"/>
    <line class="c" x1="12.98603" y1="17.00975" x2="11.6" y2="17.00975"/>
    <line class="c" x1="23.5" y1="13.00975" x2="22.11397" y2="13.00975"/>
    <line class="c" x1="23.5" y1="17.00975" x2="22.11397" y2="17.00975"/>
    <line class="c" x1="17.55" y1="9.05975" x2="17.55" y2="10.44578"/>
    <line class="c" x1="15.55" y1="9.05975" x2="15.55" y2="10.44578"/>
    <line class="c" x1="19.55" y1="9.05975" x2="19.55" y2="10.44578"/>
    <line class="c" x1="17.55" y1="19.57372" x2="17.55" y2="20.95975"/>
    <line class="c" x1="15.55" y1="19.57372" x2="15.55" y2="20.95975"/>
    <line class="c" x1="19.55" y1="19.57372" x2="19.55" y2="20.95975"/>
    <path class="b" d="M18.83438,13.6691a.05628.05628,0,0,1,.05625.05628V16.2941a.05628.05628,0,0,1-.05625.05628H16.26562a.05628.05628,0,0,1-.05625-.05628V13.72538a.05628.05628,0,0,1,.05625-.05628h2.56876m0-1H16.26562a1.05748,1.05748,0,0,0-1.05625,1.05628V16.2941a1.05748,1.05748,0,0,0,1.05625,1.05628h2.56876a1.05748,1.05748,0,0,0,1.05625-1.05628V13.72538a1.05748,1.05748,0,0,0-1.05625-1.05628Z"/>
  </g>
</svg>
