<svg xmlns="http://www.w3.org/2000/svg" xmlns:xlink="http://www.w3.org/1999/xlink" viewBox="0 0 24 24">
  <defs>
    <style>
      .a {
        fill: url(#a);
      }

      .b {
        fill: #ffebee;
      }

      .c {
        fill: none;
        stroke: #ffebee;
        stroke-linecap: round;
        stroke-miterlimit: 10;
      }
    </style>
    <linearGradient id="a" x1="2" y1="12" x2="23.21" y2="12" gradientUnits="userSpaceOnUse">
      <stop offset="0" stop-color="#f06292"/>
      <stop offset="1" stop-color="#9575cd"/>
    </linearGradient>
  </defs>
  <path class="a" d="M19,20H4a1.99944,1.99944,0,0,1-2-2V6A1.99309,1.99309,0,0,1,4,4h6l2,2h7a2,2,0,0,1,2,2H4V18l2.14-8H23.21l-2.28,8.5A2.00187,2.00187,0,0,1,19,20Z"/>
  <g>
    <path class="b" d="M21.076,11.00977a.47394.47394,0,0,1,.474.474V18.5358a.474.474,0,0,1-.474.47394H14.024a.474.474,0,0,1-.474-.47394V11.48373a.474.474,0,0,1,.474-.474H21.076m0-1H14.024a1.47563,1.47563,0,0,0-1.474,1.474V18.5358a1.47564,1.47564,0,0,0,1.474,1.47394H21.076A1.47563,1.47563,0,0,0,22.55,18.5358V11.48373a1.47563,1.47563,0,0,0-1.474-1.474Z"/>
    <line class="c" x1="12.98603" y1="15.00975" x2="11.6" y2="15.00975"/>
    <line class="c" x1="23.5" y1="15.00975" x2="22.11397" y2="15.00975"/>
    <line class="c" x1="12.98603" y1="13.00975" x2="11.6" y2="13.00975"/>
    <line class="c" x1="12.98603" y1="17.00975" x2="11.6" y2="17.00975"/>
    <line class="c" x1="23.5" y1="13.00975" x2="22.11397" y2="13.00975"/>
    <line class="c" x1="23.5" y1="17.00975" x2="22.11397" y2="17.00975"/>
    <line class="c" x1="17.55" y1="9.05975" x2="17.55" y2="10.44578"/>
    <line class="c" x1="15.55" y1="9.05975" x2="15.55" y2="10.44578"/>
    <line class="c" x1="19.55" y1="9.05975" x2="19.55" y2="10.44578"/>
    <line class="c" x1="17.55" y1="19.57372" x2="17.55" y2="20.95975"/>
    <line class="c" x1="15.55" y1="19.57372" x2="15.55" y2="20.95975"/>
    <line class="c" x1="19.55" y1="19.57372" x2="19.55" y2="20.95975"/>
    <path class="b" d="M18.83437,13.66913a.05625.05625,0,0,1,.05626.05624v2.56876a.05624.05624,0,0,1-.05626.05624H16.26563a.05625.05625,0,0,1-.05626-.05624V13.72537a.05626.05626,0,0,1,.05626-.05624h2.56874m0-1H16.26563a1.05743,1.05743,0,0,0-1.05626,1.05624v2.56876a1.05743,1.05743,0,0,0,1.05626,1.05624h2.56874a1.05744,1.05744,0,0,0,1.05626-1.05624V13.72537a1.05744,1.05744,0,0,0-1.05626-1.05624Z"/>
  </g>
</svg>
