<svg xmlns="http://www.w3.org/2000/svg" viewBox="0 0 24 24">
  <defs>
    <style>
      .a {
        fill: #78909c;
      }

      .b {
        fill: #ffde2d;
      }

      .c {
        fill: #327eff;
      }

      .d {
        fill: #ff6446;
      }
    </style>
  </defs>
  <path class="a" d="M10,4H4A1.99309,1.99309,0,0,0,2,6V18a2,2,0,0,0,2,2H20a2,2,0,0,0,2-2V8a1.99944,1.99944,0,0,0-2-2H12Z"/>
  <g>
    <ellipse class="b" cx="18.68751" cy="16.60969" rx="5.31249" ry="5.09999"/>
    <ellipse class="c" cx="13.37499" cy="16.60969" rx="5.31249" ry="5.09999"/>
    <path class="c" d="M8.0625,16.60969a5.20949,5.20949,0,0,1,5.31248-5.1v5.1Z"/>
    <path class="d" d="M18.68751,16.6097a5.20947,5.20947,0,0,1-5.31253,5.1V16.6097Z"/>
    <path class="d" d="M13.375,16.60969a5.2095,5.2095,0,0,1,5.31252-5.1v5.1Z"/>
  </g>
</svg>
