<svg xmlns="http://www.w3.org/2000/svg" viewBox="0 0 24 24">
  <defs>
    <style>
      .a {
        fill: #78909c;
      }

      .b {
        fill: #ffde2d;
      }

      .c {
        fill: #327eff;
      }

      .d {
        fill: #ff6446;
      }
    </style>
  </defs>
  <path class="a" d="M19,20H4a2,2,0,0,1-2-2V6A1.99309,1.99309,0,0,1,4,4h6l2,2h7a2.00977,2.00977,0,0,1,2,2H4V18l2.14-8H23.21l-2.28,8.5A2.00187,2.00187,0,0,1,19,20Z"/>
  <g>
    <ellipse class="b" cx="18.68751" cy="16.60969" rx="5.31249" ry="5.09999"/>
    <ellipse class="c" cx="13.37499" cy="16.60969" rx="5.31249" ry="5.09999"/>
    <path class="c" d="M8.0625,16.60969a5.20949,5.20949,0,0,1,5.31248-5.1v5.1Z"/>
    <path class="d" d="M18.68751,16.6097a5.20947,5.20947,0,0,1-5.31253,5.1V16.6097Z"/>
    <path class="d" d="M13.375,16.60969a5.2095,5.2095,0,0,1,5.31252-5.1v5.1Z"/>
  </g>
</svg>
