<svg xmlns="http://www.w3.org/2000/svg" viewBox="0 0 32 32">
  <path d="M28.96692,12H9.44152a2,2,0,0,0-1.89737,1.36754L4,24V10H28a2,2,0,0,0-2-2H15.1241a2,2,0,0,1-1.28038-.46357L12.5563,6.46357A2,2,0,0,0,11.27592,6H4A2,2,0,0,0,2,8V24a2,2,0,0,0,2,2H26l4.80523-11.21213A2,2,0,0,0,28.96692,12Z" style="fill: #757575"/>
  <g>
    <ellipse cx="24.00001" cy="20.36364" rx="7.99999" ry="7.63636" style="fill: #fdd835"/>
    <ellipse cx="15.99999" cy="20.36364" rx="7.99999" ry="7.63636" style="fill: #2979ff"/>
    <path d="M16,20.36362V28a7.8245,7.8245,0,0,0,8-7.63634V12.72728A7.8245,7.8245,0,0,0,16,20.36362Z" style="fill: #ff6e40"/>
  </g>
</svg>
