<svg xmlns="http://www.w3.org/2000/svg" viewBox="0 0 24 24">
  <defs>
    <style>
      .a {
        fill: #78909c;
      }

      .b {
        fill: none;
        stroke: #eceff1;
        stroke-linecap: round;
        stroke-miterlimit: 10;
        stroke-width: 2px;
      }

      .c {
        fill: #eceff1;
      }
    </style>
  </defs>
  <path class="a" d="M19,20H4a2,2,0,0,1-2-2V6A1.99309,1.99309,0,0,1,4,4h6l2,2h7a2.00977,2.00977,0,0,1,2,2H4V18l2.14-8H23.21l-2.28,8.5A2.00187,2.00187,0,0,1,19,20Z"/>
  <g>
    <path class="b" d="M11.69846,20.73828h-.475a1.60313,1.60313,0,0,1-1.60312-1.60313V11.73828a1.60312,1.60312,0,0,1,1.60312-1.60313h.475"/>
    <path class="b" d="M20.92187,20.73828h.475A1.60313,1.60313,0,0,0,23,19.13515V11.73828a1.60313,1.60313,0,0,0-1.60312-1.60313h-.475"/>
    <path class="c" d="M12.88283,14.21331a1.22342,1.22342,0,1,0,1.22343,1.22338,1.22341,1.22341,0,0,0-1.22343-1.22338Z"/>
    <path class="c" d="M16.3297,14.21331a1.22342,1.22342,0,1,0,1.22343,1.22338,1.22341,1.22341,0,0,0-1.22343-1.22338Z"/>
    <path class="c" d="M19.77657,14.21331A1.22342,1.22342,0,1,0,21,15.43669a1.22342,1.22342,0,0,0-1.22343-1.22338Z"/>
  </g>
</svg>
