<svg xmlns="http://www.w3.org/2000/svg" viewBox="0 0 24 24">
  <defs>
    <style>
      .a {
        fill: #fbc02d;
      }

      .b {
        fill: #fff9c4;
      }
    </style>
  </defs>
  <path class="a" d="M19,20H4a1.99944,1.99944,0,0,1-2-2V6A1.99309,1.99309,0,0,1,4,4h6l2,2h7a2,2,0,0,1,2,2H4V18l2.14-8H23.21l-2.28,8.5A2.00187,2.00187,0,0,1,19,20Z"/>
  <g>
    <path class="b" d="M18.1071,18.80622a.6891.6891,0,0,0-.65575.16566l-1.02971,1.02971a1.5,1.5,0,1,1-2.12132-2.12132L16.42164,15.759a1.46773,1.46773,0,0,1,.98289-.43133,1.025,1.025,0,0,1,.48786.06362,1.36835,1.36835,0,0,1,.65057.36771.75.75,0,1,0,1.06066-1.06066,2.77188,2.77188,0,0,0-.83438-.57984,2.8045,2.8045,0,0,0-.50914-.198,2.98,2.98,0,0,0-2.06474.198,2.43827,2.43827,0,0,0-.693.45256,1.20958,1.20958,0,0,0-.14143.12728l-2.02839,2.02839a3.09194,3.09194,0,0,0-.478,3.86554,3.008,3.008,0,0,0,4.62775.47l2.2486-2.26275A3.45257,3.45257,0,0,1,18.1071,18.80622Z"/>
    <path class="b" d="M18.89652,11.16275l-2.2486,2.26275a3.45257,3.45257,0,0,1,1.6238-.00672.6891.6891,0,0,0,.65575-.16566l1.02971-1.02971a1.5,1.5,0,0,1,2.12132,2.12132l-2.12132,2.12132a1.46808,1.46808,0,0,1-.98289.43133,1.02479,1.02479,0,0,1-.48791-.06366,1.368,1.368,0,0,1-.65052-.36767.75.75,0,1,0-1.06066,1.06066,2.77228,2.77228,0,0,0,.83438.57984,2.80629,2.80629,0,0,0,.50914.198,2.98027,2.98027,0,0,0,2.06474-.198,2.44144,2.44144,0,0,0,.69295-.45256,1.20958,1.20958,0,0,0,.14143-.12728l2.02848-2.02848a3.09181,3.09181,0,0,0,.47788-3.86555A3.008,3.008,0,0,0,18.89652,11.16275Z"/>
  </g>
</svg>
