<svg xmlns="http://www.w3.org/2000/svg" viewBox="0 0 24 24">
  <defs>
    <style>
      .a {
        fill: #78909c;
      }

      .b, .f {
        fill: #ffa000;
      }

      .c {
        fill: #ffd600;
      }

      .c, .d, .f {
        fill-rule: evenodd;
      }

      .d {
        fill: #263238;
      }

      .e {
        fill: #f44336;
      }
    </style>
  </defs>
  <path class="a" d="M10,4H4A1.99309,1.99309,0,0,0,2,6V18a2,2,0,0,0,2,2H20a2,2,0,0,0,2-2V8a1.99944,1.99944,0,0,0-2-2H12Z"/>
  <g>
    <path class="b" d="M23.16006,19.43217a.97188.97188,0,0,0,.131-.7843.87862.87862,0,0,0-.29561-.46466.96882.96882,0,0,0,.1312-.36568.959.959,0,0,0-.26315-.79219.87088.87088,0,0,0-.65167-.27665.90836.90836,0,0,0-.091.00462A6.40911,6.40911,0,1,0,9.8854,16.74853H9.87861a.87075.87075,0,0,0-.65164.27666.94415.94415,0,0,0-.132,1.15787.87831.87831,0,0,0-.29557.46473.97115.97115,0,0,0,.13124.78438c-.01357.021-.026.04285-.03772.06514a.863.863,0,0,0-.023.76527c.16956.38351.59081.68572,1.40882,1.01.50867.20181.97448.33073.97862.33194a7.33122,7.33122,0,0,0,1.808.26316,2.441,2.441,0,0,0,1.92254-.70415,6.4836,6.4836,0,0,0,2.10431-.0119,2.43162,2.43162,0,0,0,1.93293.716,7.33153,7.33153,0,0,0,1.8081-.26316c.0041-.00121.46973-.13013.9786-.33194.818-.32427,1.23932-.62648,1.40882-1.01a.8628.8628,0,0,0-.023-.76527C23.18614,19.47479,23.17348,19.453,23.16006,19.43217Zm-8.46695.99953q-.05063.089-.114.18163a1.1579,1.1579,0,0,1-.40929.36378,2.33616,2.33616,0,0,1-1.10441.2288,6.87323,6.87323,0,0,1-1.642-.242c-.01785-.00463-2.2246-.62793-1.94516-1.15848A.2299.2299,0,0,1,9.7,19.68061c.39337,0,1.10965.58576,1.41749.58576a.1277.1277,0,0,0,.13708-.10071c.13116-.47057-1.994-.66835-1.815-1.34967a.21779.21779,0,0,1,.23772-.16949c.52006-.00008,1.68729.91452,1.93146.91452a.043.043,0,0,0,.0394-.017l.00319-.00523c.11455-.18922.04883-.32679-.73622-.80759l-.07535-.04588c-.86386-.5229-1.4702-.83747-1.12532-1.21286a.212.212,0,0,1,.1642-.06256.781.781,0,0,1,.2871.07257,6.49044,6.49044,0,0,1,1.35272.946c.07786.0678.12378.1092.12378.1092s.33443.34779.53668.34779a.12266.12266,0,0,0,.11278-.0637c.14347-.24177-1.3319-1.35975-1.415-1.821-.05643-.3126.03954-.47087.217-.47087a.59009.59009,0,0,1,.301.108,7.81262,7.81262,0,0,1,1.28279,1.849.40232.40232,0,0,0,.35477.21705c.255,0,.45441-.25352.02336-.57568-.64785-.48482-.42052-1.27717-.11133-1.32593a.26887.26887,0,0,1,.03981-.00318c.2812,0,.40527.48459.40527.48459a5.22458,5.22458,0,0,0,.988,1.53691A1.17945,1.17945,0,0,1,14.69311,20.4317Zm2.01946.10693-.03238.00386-.05529.00637-.08729.00857L16.5091,20.56l-.02594.0022-.03693.003-.04072.00288-.04065.00273-.00895.00053-.032.0019-.01358.00068-.03792.0019-.04406.00182-.04.00136-.0267.00076h-.01349l-.025.00053h-.01328l-.025.00046-.03389.00037h-.04748q-.05584,0-.1114-.00106l-.03-.00068-.02556-.00068-.03178-.001-.03958-.00151-.03557-.00152-.00925-.00038-.0339-.00182-.02814-.00159-.02192-.00129-.08258-.00584-.02882-.00228-.0364-.00311-.04254-.00394-.07122-.00728h-.00113a1.83166,1.83166,0,0,0-.529-2.195,4.50205,4.50205,0,0,1-.82821-1.28483,1.15518,1.15518,0,0,0-1.032-.9296.92254.92254,0,0,0-.14235.0113.94231.94231,0,0,0-.61721.39511,2.17019,2.17019,0,0,0-.47476-.46481,1.2251,1.2251,0,0,0-.65545-.21082.86253.86253,0,0,0-.67395.30941l-.0042.00508-.00937-.03951-.0004-.00167q-.014-.06063-.02713-.12209-.02149-.10239-.03927-.20613l-.01356-.08221-.00041-.0028-.00475-.03117-.00278-.01858-.00461-.032-.00577-.042-.00549-.042-.00516-.04216-.00461-.04005-.00041-.00341-.00868-.08342-.00718-.08054-.0017-.021-.00271-.03571-.002-.02958-.00047-.00675-.00251-.03959-.00238-.043-.0021-.043-.00156-.03754-.0004-.01137L10.26,15.01089l-.00081-.02943-.00075-.03534-.0006-.03708-.00035-.037c-.00034-.01244,0-.0248,0-.03724a5.74742,5.74742,0,0,1,11.49483,0V14.909l-.00061.03708-.00068.03072-.00076.02714-.00106.03474v.001L21.7476,15.08l-.00152.03527-.00045.00834-.002.03761-.00182.02981q-.00546.09043-.01357.18011l-.003.03155v.001l-.004.03967-.00333.03109-.00683.06105-.00387.03086-.00477.03625-.00539.03967-.00637.04421-.00531.03473-.00622.03944-.00675.03928-.00682.03921c-.00455.02609-.00925.0521-.01433.07811l-.01479.07462-.00872.042-.00827.03837-.00865.03853a.86526.86526,0,0,0-.61223-.24283,1.22469,1.22469,0,0,0-.65538.21082,2.17018,2.17018,0,0,0-.47481.46481.94358.94358,0,0,0-.61716-.39519.93341.93341,0,0,0-.14242-.01122,1.1551,1.1551,0,0,0-1.032.9296,4.5165,4.5165,0,0,1-.829,1.28551A1.83062,1.83062,0,0,0,16.71257,20.53863ZM22.646,18.991l-.00228.00675-.00493.01289-.00864.019-.00637.01259c-.00562.01046-.01176.0207-.01851.03094-.00819.01221-.01706.02426-.02677.03625l-.01486.01767-.01077.01168-.01661.01721a1.56184,1.56184,0,0,1-.43371.27135l-.06059.02707-.02033.009-.04133.01782-.04178.01752-.04232.01752c-.099.04073-.20036.07948-.29933.11785l-.04224.01638-.04186.01638-.08229.03254-.04027.01623-.03951.01622-.01949.00812-.03822.01623c-.29106.12483-.50037.25185-.45638.40952l.00409.01281a.14852.14852,0,0,0,.016.03307l.01358.01737c.05172.05369.14583.04519.26452.00257l.02942-.01114.0204-.008.01024-.00433c.02715-.01152.05589-.02434.08532-.03837l.02222-.01069c.14507-.07091.30956-.16654.47276-.25352.025-.01358.05013-.02655.07508-.03944.04164-.02154.08289-.04209.12354-.061a1.07151,1.07151,0,0,1,.41665-.12422.261.261,0,0,1,.14348.037l.00675.00447.01282.00963a.22191.22191,0,0,1,.03981.04278l.00978.01479.0091.01607c.05771.10951.00941.223-.10359.33429a1.94271,1.94271,0,0,1-.46928.30851l-.04292.02138a9.21873,9.21873,0,0,1-1.32934.49431c-.1993.05164-.4843.11951-.80531.17025l-.04755.00735-.00774.00114-.05172.00759-.05635.00773q-.055.00729-.11095.01358l-.00675.00068c-.13309.01517-.2696.02616-.40633.03079h-.00205q-.07371.00273-.14735.00265h-.05657q-.04278-.00057-.08539-.00212-.07-.0025-.13909-.008l-.00538-.00038-.05241-.0047-.02768-.00281c-.02783-.00295-.05543-.00637-.08289-.01008l-.05422-.008-.055-.00925-.02487-.00471-.002-.00038c-.02639-.005-.05263-.01054-.07856-.01653l-.0452-.01084-.009-.00235-.022-.00577-.004-.00106-.02344-.00675-.0254-.00743-.003-.00091-.02207-.00675-.02488-.008-.0204-.00683-.01494-.00523-.04292-.01577-.0135-.00524-.01115-.00447c-.02161-.00872-.043-.01775-.064-.02715l-.0141-.00675-.00235-.00106-.01494-.00683-.02912-.01448-.00288-.00144-.014-.00736c-.016-.00834-.03162-.017-.04709-.026l-.02586-.0154-.013-.008-.01934-.01244-.017-.0113-.01828-.01258-.01092-.00774-.034-.02541-.01759-.01357-.02093-.01729-.01722-.01479-.00053-.00045-.01812-.01623-.0176-.01638-.0006-.00076-.0179-.01752-.01744-.0179-.01714-.0185-.01608-.018-.00182-.002L17.574,20.696c-.01085-.013-.02131-.02624-.03155-.03989-.01024-.01358-.02017-.02753-.03-.04179l-.0094-.01388-.01843-.02768-.01789-.02753-.0173-.02715-.00841-.01349-.01563-.02571-.00212-.00349-.01456-.0248-.00766-.01357-.00811-.01426-.00425-.00751-.00266-.00493-.015-.02753-.00675-.01213-.00683-.013-.00674-.013-.013-.02632-.00622-.013-.013-.02768-.00493-.01115-.01129-.0257-.00531-.01275-.01032-.02555-.00477-.01221-.01843-.051-.00417-.01259-.00721-.02267-.01145-.03967-.00334-.01243-.00894-.03709-.00524-.02464-.00243-.01237-.00432-.02449-.00523-.03655-.00152-.01206-.00129-.01229q-.00251-.02435-.00379-.04846l-.00045-.01213-.00069-.02412a1.39336,1.39336,0,0,1,.51039-.986,5.22533,5.22533,0,0,0,.988-1.5369s.00978-.0383.03018-.09336l.009-.02381.01244-.03064.01949-.04346.00812-.01668.00288-.00576.00569-.01123c.01084-.02078.02275-.04178.03564-.06233l.01069-.01654.02306-.03246.01213-.01562.02154-.02487.00887-.00948a.32665.32665,0,0,1,.12437-.0841l.00592-.0019.01183-.00364.0141-.00334.00213-.00038a.23646.23646,0,0,1,.02995-.004h.00091l.01585-.00053.01972.00076.02033.00243a.2709.2709,0,0,1,.156.09411l.00622.00728a.4506.4506,0,0,1,.02973.03913l.01107.017q.01365.022.02578.04619l.00948.01971.00448.01024.00864.0207.008.02139a.7594.7594,0,0,1,.02875.104l.00455.02442a.86256.86256,0,0,1,.01023.08941l.00122.02632q.00079.03105,0,.06287l-.00137.02427a.90646.90646,0,0,1-.04474.22531l-.01358.038-.01016.02533c-.00682.01684-.01464.0339-.0229.05043l-.01957.03762-.01418.0251q-.01831.03117-.03951.06188l-.00865.01229q-.01751.02445-.03693.04846a1.054,1.054,0,0,1-.07462.08258,1.178,1.178,0,0,1-.12885.11156,1.044,1.044,0,0,0-.11641.09988l-.01175.012a.31534.31534,0,0,0-.1149.30517l.00387.01085.00683.01562.00531.00993a.202.202,0,0,0,.02715.0364l.004.00418.004.004.013.01161.00455.00371.0094.00675.02556.01593.01077.00561a.30017.30017,0,0,0,.04065.01653l.01168.00357.005.00129.00675.00182.00592.00144.00629.00136.00629.00129.006.001.01349.00212.0044.00061.00781.00083.00486.00046.008.0006H19.039l.00834.00038h.02632l.00751-.00038.00864-.00053.01054-.001.00986-.00122.00675-.001.01509-.00251q.01866-.00352.03686-.00887a.378.378,0,0,0,.03655-.01266l.01206-.00508.0198-.00941.01569-.00834.02306-.0141a.399.399,0,0,0,.04914-.03815l.01069-.01016.005-.005.01008-.01054.01942-.0226a.45941.45941,0,0,0,.04315-.06514c.10124-.18489.27362-.48778.46647-.79727l.0223-.03572.02252-.0358.0339-.05362.01145-.01782.02283-.03556q.046-.0711.09229-.14068l.02313-.03458c.04641-.06871.09275-.1356.13856-.19923l.0229-.03139c.0339-.04687.0678-.09169.10109-.134q.02765-.03527.0546-.06779l.02146-.02564.01062-.01266.021-.02435.01046-.01183.02033-.023.01024-.01108.03-.0317.01971-.01987a.79011.79011,0,0,1,.12658-.10518l.01054-.00675.01069-.00683.02078-.01221c.17928-.10169.32777-.1092.41316-.02381a.34752.34752,0,0,1,.07887.25686l-.00046.016v.00592l-.00083.01645-.00152.02033-.00167.018-.0006.00524-.0019.016-.00068.00493-.00235.01683-.00076.0047-.00319.0198-.00189.0113-.00766.03192-.0116.0339-.00979.02351-.01145.02419c-.00819.01646-.01744.0333-.0276.05074l-.01593.02631-.00849.0135-.02708.04118c-.0094.01388-.01949.02806-.03033.0424q-.021.02867-.04444.05831l-.01183.01494q-.02981.03732-.06257.076l-.04019.04687-.02783.03147-.01418.01593-.05832.06438-.015.01623-.03026.03254-.03079.03283-.03124.03292-.03163.033-.03185.03315-.06438.06635a5.96259,5.96259,0,0,0-.74123.82571q-.01092.01923-.01987.03936a.16418.16418,0,0,0-.01767.09078.069.069,0,0,0,.00849.023l.01062.01585.01176.0135.01274.011a.12691.12691,0,0,0,.0775.02351h.00865l.00887-.0006.009-.00107.00735-.00106.003-.00053.00675-.00129.00182-.00045.00743-.0016.00266-.00068.008-.00205.00948-.0028.01881-.00637.02032-.00789.02-.00887.01-.00486.01008-.005c.0132-.00667.02632-.01388.03951-.02169l.03148-.01934.01016-.00675.01009-.00682.01008-.00675.00531-.00372.01456-.01016c.01358-.0094.02624-.019.03913-.02882l.00114-.00083.02033-.01578c.02783-.022.05429-.04413.07818-.065l.01593-.014.00151-.00136.00827-.00736c.01957-.01752.037-.0339.05157-.04747l.00591-.00577.01434-.01357.00857-.00834.003-.003.00083-.00083.00887-.00888.00569-.00576.00061-.00061.00273-.00242.00326-.003.00106-.001.00288-.00257.0154-.01358.00864-.00781.01358-.01229.01039-.0091.00553-.00492.01085-.00948.016-.014.00842-.00736c.033-.02874.07318-.06339.11921-.10245l.01889-.01593.03124-.02616.03185-.02669c.04171-.03459.08661-.07137.13408-.10959l.03117-.025.08145-.06439.0339-.02609.05134-.03943.0339-.02564c.06507-.04914.13218-.09836.20006-.14636l.02919-.02025.06105-.04186.01843-.01251.05748-.03823.05286-.0339.01843-.0116.01828-.01137.0546-.03337.01812-.01077.03633-.02116.03557-.02032.00713-.004.02821-.0154.035-.0185.01745-.009.01683-.00857.01752-.00857c.0339-.01661.06787-.03177.1001-.045l.01623-.00682.03186-.01221.03116-.01092.02715-.00872.003-.00091.01411-.004.00136-.00038.02874-.00751H22.092q.02127-.00511.04149-.00857l.01357-.00212.02662-.00326.01289-.001.0251-.00083H22.218l.0248.00136.01107.00122h.00152l.01092.00174.01069.00212h.00122l.01039.00273.01061.00334a.18573.18573,0,0,1,.03474.01562l.0091.00569.0088.00614.0144.01206.002.002.00386.00379.0038.004a.41833.41833,0,0,1,.07454.10853l.003.00675.00523.01357a.26733.26733,0,0,1,.00986.03337.24968.24968,0,0,1-.00773.13491l-.00417.01183a.379.379,0,0,1-.01949.043l-.00622.01123a.62638.62638,0,0,1-.08335.11011l-.00682.00721-.03155.03185-.01494.01418-.01562.01433-.008.00728-.01646.01433-.03458.029-.0091.00744-.03739.02942q-.0339.02593-.07045.0524-.03162.02276-.06537.046-.04073.02787-.08418.05635-.07724.05073-.16328.10405l-.048.02957c-.14917.09177-.31457.1899-.491.2966l-.04565.02776q-.075.04572-.14151.08728l-.02238.01411-.04231.02715L20.95,18.875l-.03511.02275-.0226.01486-.03284.02177-.01061.00674-.03277.02215-.01736.01183-.0204.01418-.01881.01312q-.04755.03345-.0882.06386l-.01016.00773-.03322.02571-.01395.01115q-.03527.02832-.06408.0543l-.00941.00864-.01569.01472-.01039.01008-.00493.00485-.00925.00941-.02238.024-.005.00576c-.01115.01289-.02086.02526-.02943.03731l-.00379.00546a.3277.3277,0,0,0-.01828.03l-.00409.00781-.00364.00774-.00258.00553-.00159.00387-.00129.00334-.00174.00462-.0022.00683-.00592.02267-.001.00516-.00075.00508-.00061.00463-.00038.00447v.02381l.00046.00607.00037.00364.00076.006.00144.00835v.00037l.00175.008.0022.00841.00523.016.00356.00932.00076.0019.00273.00622.00387.00842.00857.01691.00478.00857.005.00864.00524.00865.003.004.00174.00182.00182.00167.00205.00159.00432.00265.00486.00205.00546.00159a.52166.52166,0,0,0,.25314-.08948l.02146-.01138.03633-.01979.01782-.00986.03868-.02192.024-.01357c.158-.09093.34672-.2078.54177-.32185l.05491-.03193.03686-.02351.05521-.0314.07379-.04118c.0552-.03033.11019-.0596.16441-.08729l.036-.01827.07114-.03458q.03537-.01662.06984-.032c.02291-.01023.04558-.01994.0678-.02927l.02541-.01031.00311-.00122a1.02634,1.02634,0,0,1,.35529-.0863.35969.35969,0,0,1,.06378.00523H22.477l.01918.00418h.00114l.01517.00439.01152.0041.00865.00356.01138.00539.013.0072a.19072.19072,0,0,1,.04239.03519l.01509.01919.00433.00682.00811.01358.009.0185.00781.02033.00675.02176A.29712.29712,0,0,1,22.646,18.991Z"/>
    <path class="c" d="M21.75139,14.872v-.03716a5.747,5.747,0,1,0-11.49392,0l-.00008.01244c-.00008.00827-.00015.01646.00008.02472l.00026.02374.00007.01335.00044.0273.00017.00986.00034.0135.00041.02176.00082.0295.00115.03466.0004.01137.00149.03588.00007.00166.00205.04194,0,.00106.00239.04293.0025.03966.0002.00235.00028.0044.002.02958.00022.003.00249.03276.00016.00213.00154.019.00718.08046.00869.08342.00041.00341.00461.04005.00515.04216.00372.02851.00177.0135.00577.042.00462.03192.00277.01866.00031.00205.00444.02912.00041.0028.01356.08214q.01776.10386.03927.2062.01309.06142.02713.12209l.0004.00175.00242.01024.00695.02919.0042-.00508a.86253.86253,0,0,1,.67395-.30941,1.22441,1.22441,0,0,1,.65545.21082,2.16813,2.16813,0,0,1,.47476.46481.94207.94207,0,0,1,.61715-.39511.92413.92413,0,0,1,.14242-.0113,1.15527,1.15527,0,0,1,1.032.9296,4.475,4.475,0,0,0,.82973,1.2843,1.83162,1.83162,0,0,1,.529,2.195h.00114l.07121.0072.04255.00395.005.00045.03132.00266.02882.00235.08266.00584.02184.00129.01737.001.01084.00061.03383.00182.00925.00038.03564.00152.03951.00151.03186.00091.0053.00023.02025.00053.00721.00015.02282.00046q.05551.00114.11133.00113h.04748l.034-.00037.025-.00046h.0132l.01145-.00023.0135-.0003h.01357l.02662-.00076.04-.00136.04414-.0019.03792-.00182.01357-.00076.0201-.00114.01191-.00068.00887-.00053.04072-.00273.04073-.003.03685-.00288.026-.0022.02843-.00258.08729-.00864.05529-.0063.03238-.00386a1.83188,1.83188,0,0,1,.533-2.18585,4.5189,4.5189,0,0,0,.829-1.28551,1.155,1.155,0,0,1,1.03191-.9296.91292.91292,0,0,1,.14242.0113.94359.94359,0,0,1,.61723.39511,2.172,2.172,0,0,1,.47474-.46481,1.22469,1.22469,0,0,1,.65538-.21082.86575.86575,0,0,1,.61231.24283l.00857-.03853.00827-.03837.00879-.042.01479-.07462q.00752-.039.01426-.07811l.00242-.01411.0044-.0251.00675-.03928.00084-.005.00538-.03435.00531-.03481.00008-.00038.00629-.04383.00455-.0333.00091-.00637.0047-.03625.00387-.03086.00683-.06105.00265-.0245.00076-.00659.00394-.03959v-.00106l.003-.03155q.00807-.08976.01357-.18011l.00174-.02981v-.00045l.002-.03716.00038-.00834.00152-.03527.00159-.04027v-.001l.00038-.00979.00068-.025.00015-.00341.00061-.02373.00023-.00683.00045-.02381.00015-.00675.00046-.03041Zm-7.172,5.74138a1.20789,1.20789,0,0,0-.20165-1.79263,5.22671,5.22671,0,0,1-.988-1.53691s-.13567-.53025-.44508-.48149c-.30942.04869-.53643.84095.1114,1.32593s-.12885.81381-.3782.35871a7.807,7.807,0,0,0-1.28312-1.8489c-.353-.22379-.60118-.09836-.518.36288a3.15552,3.15552,0,0,0,.78473.98474c.36432.37046.70264.71438.63033.8361-.14358.24177-.6492-.284-.6492-.284s-1.58312-1.44067-1.9278-1.0652c-.31766.346.17227.64021.92725,1.09356q.09633.0579.19807.11929c.86386.523.931.66092.80845.85878-.04531.07311-.3345-.10056-.69011-.314-.60636-.364-1.40585-.844-1.51875-.41437-.09771.37182.49046.59964,1.02392.80629.44442.17215.85085.32959.79109.5433-.062.22152-.39784.03678-.765-.16525-.41219-.22683-.8638-.47535-1.01156-.1949-.27936.5301,1.92705,1.15416,1.94516,1.15871C12.13628,21.14881,13.94665,21.54058,14.57943,20.61333Zm2.93216,0a1.20784,1.20784,0,0,1,.20164-1.79263,5.22761,5.22761,0,0,0,.98808-1.53691s.1356-.53025.445-.48149c.30942.04869.53647.84095-.1114,1.32593s.12884.81381.37827.35871a7.80429,7.80429,0,0,1,1.2827-1.8489c.35295-.22379.60124-.09836.518.36288a3.15525,3.15525,0,0,1-.78483.98481h0c-.36432.37039-.70255.71431-.63028.836.14348.24177.64954-.28431.64954-.28431s1.58309-1.44067,1.92777-1.06521c.31768.34605-.1723.64029-.92733,1.09372q-.09634.05779-.198.11922c-.86385.52289-.931.66091-.80842.8587.04528.0731.33444-.10049.69-.314.60639-.364,1.40594-.84406,1.51878-.41445.09776.37183-.49043.59972-1.02395.80638-.4444.17215-.85081.32951-.79112.54329.062.22152.39768.03671.76473-.16532.41218-.22683.86386-.47542,1.01167-.1949.27938.53047-1.92732,1.15385-1.94522,1.15848C19.95444,21.14881,18.14406,21.54058,17.51159,20.61333Z"/>
    <path class="d" d="M17.87143,13.27043a.53821.53821,0,0,1,.21962.22c.0857.12414.16548.23956.28788.1745a.82694.82694,0,1,0-1.11844-.34195c.05673.1067.18261.05642.31548.00326A.46836.46836,0,0,1,17.87143,13.27043Zm-3.89619.00008a.5384.5384,0,0,0-.2197.22c-.08569.12407-.16547.23957-.28787.1745a.82688.82688,0,1,1,1.11859-.342c-.05688.10671-.18277.05635-.31563.00319A.46745.46745,0,0,0,13.97524,13.27051ZM17.26868,16.816a2.37885,2.37885,0,0,0,.84437-1.7701c0-.38677-.26028-.26505-.67685-.05885l-.02343.01168a3.32817,3.32817,0,0,1-1.45023.44144,3.32691,3.32691,0,0,1-1.45015-.44152c-.43007-.213-.69982-.34665-.69982.04732a2.36344,2.36344,0,0,0,.90375,1.81508,1.438,1.438,0,0,1,.87773-.74214c.06613-.01972.13423.09411.204.2106.06727.11246.136.22743.206.22743.07447,0,.14773-.1133.21924-.22394.0747-.11558.1475-.22827.218-.20575.02063.0066.041.01358.061.02109A1.43821,1.43821,0,0,1,17.26868,16.816Z"/>
    <path class="e" d="M17.26845,16.81588a2.23337,2.23337,0,0,1-2.55213.045,1.43744,1.43744,0,0,1,.87773-.74213c.12991-.03876.26748.438.4099.438.15251,0,.2994-.47375.43727-.42969.02048.00659.04081.01357.061.02108A1.43865,1.43865,0,0,1,17.26845,16.81588Z"/>
    <path class="f" d="M12.49864,13.95858a.53745.53745,0,1,1,.198-.24124A.53759.53759,0,0,1,12.49864,13.95858Zm7.69074,0a.53762.53762,0,1,1,.198-.24124A.5376.5376,0,0,1,20.18938,13.95858Z"/>
  </g>
</svg>
