<svg xmlns="http://www.w3.org/2000/svg" viewBox="0 0 32 32"><path d="M30,16H29l2-2-3-2.47565V8H24.38953L22.33966,3.891,18.83411,5.83411,16,2,13.16589,5.83411,9.66034,3.891,7.61053,8H4v3.52435L1,14l2,2H2a2,2,0,0,0-2,2v2c0,2.20911,1.79083,6,4,6V20H6v4a2,2,0,0,0,2,2,4,4,0,0,0,4,4h2l-1.6-3.2L16,28a4,4,0,0,0-4-4H8V20H24v4H20a4,4,0,0,0-4,4l3.6-1.2L18,30h2a4,4,0,0,0,4-4,2,2,0,0,0,2-2V20h2v6a4,4,0,0,0,4-4V18A2,2,0,0,0,30,16Z" style="fill:#e57373"/><rect x="8" y="12" width="6" height="6" style="fill:#212121"/><rect x="18" y="12" width="6" height="6" style="fill:#212121"/><rect x="8" y="12" width="2" height="2" style="fill:#fff"/><rect x="18" y="12" width="2" height="2" style="fill:#fff"/><rect x="8" y="12" width="6" height="6" style="fill:#212121"/><rect x="18" y="12" width="6" height="6" style="fill:#212121"/><rect x="8" y="12" width="2" height="2" style="fill:#fff"/><rect x="18" y="12" width="2" height="2" style="fill:#fff"/><rect x="8" y="12" width="6" height="6" style="fill:#212121"/><rect x="18" y="12" width="6" height="6" style="fill:#212121"/><rect x="8" y="12" width="2" height="2" style="fill:#fff"/><rect x="18" y="12" width="2" height="2" style="fill:#fff"/></svg>