<svg xmlns="http://www.w3.org/2000/svg" viewBox="0 0 32 32"><path d="M2,30H8V2H2ZM4,4H6V6H4ZM4,26H6v2H4Z" style="fill:#a1887f"/><rect x="10" y="24" width="12" height="6" style="fill:#a1887f"/><rect x="10" y="2" width="12" height="6" style="fill:#a1887f"/><path d="M24,2V30h6V2Zm4,26H26V26h2ZM28,6H26V4h2Z" style="fill:#a1887f"/><polygon points="22 18 18 22 22 22 22 18" style="fill:#a1887f"/><polygon points="10 14 14 10 10 10 10 14" style="fill:#a1887f"/><polygon points="10 22 14 22 22 14 22 10 18 10 10 18 10 22" style="fill:#a1887f"/></svg>