<svg xmlns="http://www.w3.org/2000/svg" viewBox="0 0 32 32"><path d="M28.96692,12H9.44152a2,2,0,0,0-1.89737,1.36754L4,24V10H28a2,2,0,0,0-2-2H15.1241a2,2,0,0,1-1.28038-.46357L12.5563,6.46357A2,2,0,0,0,11.27592,6H4A2,2,0,0,0,2,8V24a2,2,0,0,0,2,2H26l4.80523-11.21213A2,2,0,0,0,28.96692,12Z" style="fill:#ff7043"/><rect x="14" y="16.00623" width="8" height="8" style="fill:#ffccbc"/><rect x="24" y="16.00623" width="8" height="8" style="fill:#ffccbc"/><rect x="24" y="6.00623" width="8" height="8" style="fill:#ffccbc"/><polygon points="14 26.006 14 30 16 30 16 28 22 28 22 30 24 30 24 28 30 28 30 30 32 30 32 26.006 14 26.006" style="fill:#ffccbc"/></svg>