<svg xmlns="http://www.w3.org/2000/svg" viewBox="0 0 32 32"><path d="M13.84376,7.53645l-1.28749-1.0729A2,2,0,0,0,11.27591,6H4A2,2,0,0,0,2,8V24a2,2,0,0,0,2,2H28a2,2,0,0,0,2-2V10a2,2,0,0,0-2-2H15.12412A2,2,0,0,1,13.84376,7.53645Z" style="fill:#ff7043"/><rect x="14" y="16.00623" width="8" height="8" style="fill:#ffccbc"/><rect x="24" y="16.00623" width="8" height="8" style="fill:#ffccbc"/><rect x="24" y="6.00623" width="8" height="8" style="fill:#ffccbc"/><polygon points="14 26.006 14 30 16 30 16 28 22 28 22 30 24 30 24 28 30 28 30 30 32 30 32 26.006 14 26.006" style="fill:#ffccbc"/></svg>