<svg xmlns="http://www.w3.org/2000/svg" viewBox="0 0 32 32"><path d="M13.84376,7.53645l-1.28749-1.0729A2,2,0,0,0,11.27591,6H4A2,2,0,0,0,2,8V24a2,2,0,0,0,2,2H28a2,2,0,0,0,2-2V10a2,2,0,0,0-2-2H15.12412A2,2,0,0,1,13.84376,7.53645Z" style="fill:#6d4c41"/><path d="M4,6H4A0,0,0,0,1,4,6V8A0,0,0,0,1,4,8H2A0,0,0,0,1,2,8V8A2,2,0,0,1,4,6Z" style="fill:#f57c00;opacity:0.4"/><rect x="4" y="6" width="2" height="2" style="fill:#ffa726;opacity:0.3"/><rect x="4" y="8" width="2" height="2" style="fill:#ff7043;opacity:0.5"/><rect x="8" y="10" width="2" height="2" style="fill:#ff7043;opacity:0.3"/><rect x="26" y="8" width="2" height="2" style="fill:#ff7043;opacity:0.3"/><rect x="10" y="12" width="2" height="2" style="fill:#f57c00;opacity:0.4"/><rect x="24" y="10" width="2" height="2" style="fill:#f57c00;opacity:0.2"/><rect x="6" y="8" width="2" height="2" style="fill:#ffab40;opacity:0.3"/><rect x="4" y="10" width="2" height="2" style="fill:#ffa726;opacity:0.3"/><rect x="10" y="10" width="2" height="2" style="fill:#ff7043;opacity:0.3"/><rect x="12" y="10" width="2" height="2" style="fill:#ff6e40;opacity:0.3"/><rect x="8" y="8" width="2" height="2" style="fill:#d84315;opacity:0.5"/><rect x="24" y="12" width="2" height="2" style="fill:#d84315;opacity:0.2"/><rect x="2" y="12" width="2" height="2" style="fill:#ff6e40;opacity:0.4"/><rect x="6" y="12" width="2" height="2" style="fill:#ff7043;opacity:0.7000000000000001"/><rect x="26" y="10" width="2" height="2" style="fill:#ff7043;opacity:0.3"/><rect x="14" y="12" width="2" height="2" style="fill:#bf360c;opacity:0.3"/><rect x="6" y="14" width="2" height="2" style="fill:#f57c00;opacity:0.3"/><rect x="6" y="10" width="2" height="2" style="fill:#d84315;opacity:0.5"/><path d="M28,8h0a2,2,0,0,1,2,2v0a0,0,0,0,1,0,0H28a0,0,0,0,1,0,0V8A0,0,0,0,1,28,8Z" style="fill:#d84315;opacity:0.2"/><rect x="8" y="12" width="2" height="2" style="fill:#ffab40;opacity:0.3"/><rect x="2" y="22" width="2" height="2" style="fill:#d84315;opacity:0.4"/><rect x="4" y="24" width="2" height="2" style="fill:#d84315;opacity:0.2"/><rect x="28" y="10" width="2" height="2" style="fill:#ffab40;opacity:0.2"/><rect x="4" y="20" width="2" height="2" style="fill:#ff8a65;opacity:0.3"/><rect x="6" y="22" width="2" height="2" style="fill:#ff6e40;opacity:0.2"/><rect x="4" y="22" width="2" height="2" style="fill:#ffab40;opacity:0.4"/><rect x="6" y="20" width="2" height="2" style="fill:#ffab40;opacity:0.2"/><rect x="8" y="20" width="2" height="2" style="fill:#ff6e40;opacity:0.35000000000000003"/><path d="M30,24v1a1,1,0,0,1-2,0V24a2,2,0,0,0-2-2,3.00017,3.00017,0,0,0,2.99579-3.16132A3.11454,3.11454,0,0,0,25.83026,16H14v2h2v8H14v2h8V26H20V24h4c.81885.81885.29669,2.30811,1.17865,3.36987A1.88526,1.88526,0,0,0,26.63879,28H32V24Zm-6-4H20V18h4a1,1,0,0,1,0,2Z" style="fill:#ff7043"/></svg>