<svg xmlns="http://www.w3.org/2000/svg" viewBox="0 0 32 32"><rect x="14" y="6" width="4" height="8" rx="0.5" style="fill:#42a5f5"/><path d="M22,2.5a.5.5,0,0,0-.5-.5h-3a.5.5,0,0,0-.5.5V6h3.5a.5.5,0,0,0,.5-.5Z" style="fill:#42a5f5"/><path d="M9.5,12h-5a.5.5,0,0,0-.5.5V20H2.5a.5.5,0,0,0-.5.5v1a.5.5,0,0,0,.5.5H4v7.5a.5.5,0,0,0,.5.5h5a.5.5,0,0,0,.5-.5v-1a.5.5,0,0,0-.5-.5H8V22.5a.5.5,0,0,0-.5-.5H6V20H7.5a.5.5,0,0,0,.5-.5V14H9.5a.5.5,0,0,0,.5-.5v-1A.5.5,0,0,0,9.5,12Z" style="fill:#42a5f5"/><path d="M29.5,20H28V12.5a.5.5,0,0,0-.5-.5h-5a.5.5,0,0,0-.5.5v1a.5.5,0,0,0,.5.5H24v5.5a.5.5,0,0,0,.5.5H26v2H24.5a.5.5,0,0,0-.5.5V28H22.5a.5.5,0,0,0-.5.5v1a.5.5,0,0,0,.5.5h5a.5.5,0,0,0,.5-.5V22h1.5a.5.5,0,0,0,.5-.5v-1A.5.5,0,0,0,29.5,20Z" style="fill:#42a5f5"/></svg>