<svg xmlns="http://www.w3.org/2000/svg" viewBox="0 0 32 32">
  <g>
    <path d="M26.24934,8.194,22.92522,4.86632,4.82235,22.934l3.3342,3.3277A12.78463,12.78463,0,1,0,26.24929,8.194Z" style="fill: #6d4c41"/>
    <path d="M23.64616,20.23579A5.59708,5.59708,0,0,1,24.257,17.9073c2.33294-4.5169,1.96247-9.75324-1.33168-13.041A10.68054,10.68054,0,0,0,11.98146,2.64785a4.09149,4.09149,0,0,0-2.403,2.04859,6.27308,6.27308,0,0,1-1.572,1.8987,6.22339,6.22339,0,0,1-2.10265,1.2392,4.06485,4.06485,0,0,0-2.403,2.03854c-2.343,4.51683-1.97246,9.76324,1.32164,13.061A9.70393,9.70393,0,0,0,10.57968,25.672a4.28663,4.28663,0,0,1,1.89244.7296,2.05168,2.05168,0,0,0,1.46185.22974,2.69478,2.69478,0,0,0,1.42178-.69952,6.76216,6.76216,0,0,1,1.92242-1.369c.0801-.03993.1502-.07.2303-.11a5.62865,5.62865,0,0,1,2.343-.52963A3.88753,3.88753,0,0,0,22.38461,22.664,3.91,3.91,0,0,0,23.64616,20.23579Z" style="fill: #8d6e63"/>
    <path d="M22.63489,18.86664a3.453,3.453,0,0,1,.37047-1.54893c1.99246-3.92731,1.65208-8.47414-1.21154-11.33216a9.40494,9.40494,0,0,0-9.89249-1.82874A1.85741,1.85741,0,0,0,10.77992,5.356,5.54377,5.54377,0,0,1,9.02774,7.72435,5.16756,5.16756,0,0,1,6.41445,9.05344a1.76682,1.76682,0,0,0-1.38175.89937C2.72986,14,2.9701,18.81667,5.96394,21.80462a8.5823,8.5823,0,0,0,5.40682,2.43832,2.61559,2.61559,0,0,1,1.36172.54962,1.98765,1.98765,0,0,0,1.592.21985,2.62108,2.62108,0,0,0,1.48186-.87939,3.3491,3.3491,0,0,1,1.23156-.97933l.24029-.11991a3.35621,3.35621,0,0,1,1.552-.37975,3.86187,3.86187,0,0,0,2.54326-1.25917A3.97068,3.97068,0,0,0,22.63489,18.86664Z" style="fill: #e0e0e0"/>
    <path d="M21.54357,17.35778a1.15372,1.15372,0,0,1,.08011-.82943,8.05683,8.05683,0,0,0-1.12142-9.26367,7.73419,7.73419,0,0,0-7.61956-1.7388,1.5982,1.5982,0,0,0-1.1014,1.1492,5.38781,5.38781,0,0,1-1.7622,2.40835,5.1478,5.1478,0,0,1-2.62328,1.32913,1.614,1.614,0,0,0-1.34164.92936,8.02341,8.02341,0,0,0,1.17139,9.1537,7.2313,7.2313,0,0,0,4.746,2.05858.91767.91767,0,0,1,.65082.28981,1.86988,1.86988,0,0,0,1.71215.31977,2.53034,2.53034,0,0,0,1.572-1.00931,1.4578,1.4578,0,0,1,.60076-.52963h.01a1.12526,1.12526,0,0,1,.821-.06995,3.35561,3.35561,0,0,0,3.01381-1.18918A3.3766,3.3766,0,0,0,21.54357,17.35778Z" style="fill: #9e9e9e"/>
  </g>
</svg>
