<svg xmlns="http://www.w3.org/2000/svg" xmlns:xlink="http://www.w3.org/1999/xlink" viewBox="0 0 24 24">
  <defs>
    <style>
      .a {
        fill: none;
      }

      .b {
        fill: #795548;
      }

      .c {
        fill: #ff5722;
      }

      .d {
        clip-path: url(#a);
      }

      .e {
        fill: url(#b);
      }
    </style>
    <clipPath id="a">
      <path class="a" d="M19,20H4a2,2,0,0,1-2-2V6A1.99309,1.99309,0,0,1,4,4h6l2,2h7a2.00977,2.00977,0,0,1,2,2H4V18l2.14-8H23.21l-2.28,8.5A2.00187,2.00187,0,0,1,19,20Z"/>
    </clipPath>
    <radialGradient id="b" cx="13.44014" cy="14.7875" r="10.90788" gradientTransform="translate(0.21166 2.89849) rotate(1.03039) scale(1 0.78777)" gradientUnits="userSpaceOnUse">
      <stop offset="0" stop-color="#ff5722" stop-opacity="0.4"/>
      <stop offset="1" stop-color="#ff5722" stop-opacity="0"/>
    </radialGradient>
  </defs>
  <g>
    <path class="b" d="M19,20H4a2,2,0,0,1-2-2V6A1.99309,1.99309,0,0,1,4,4h6l2,2h7a2.00977,2.00977,0,0,1,2,2H4V18l2.14-8H23.21l-2.28,8.5A2.00187,2.00187,0,0,1,19,20Z"/>
    <circle class="c" cx="9" cy="14.5625" r="2.5"/>
    <circle class="c" cx="16.35" cy="14.5625" r="2.5"/>
    <g class="d">
      <rect class="e" x="2" y="4" width="21.21" height="16"/>
    </g>
  </g>
</svg>
