<svg xmlns="http://www.w3.org/2000/svg" viewBox="0 0 32 32"><path d="M13.84376,7.53645l-1.28749-1.0729A2,2,0,0,0,11.27591,6H4A2,2,0,0,0,2,8V24a2,2,0,0,0,2,2H28a2,2,0,0,0,2-2V10a2,2,0,0,0-2-2H15.12412A2,2,0,0,1,13.84376,7.53645Z" style="fill:#8d6e63"/><path d="M16,14.5V20h1.5a.5.5,0,0,0,.5-.5V16h1.5a.5.5,0,0,0,.5-.5v-1a.5.5,0,0,0-.5-.5h-3A.5.5,0,0,0,16,14.5Z" style="fill:#d7ccc8"/><path d="M22,12.5v3a.5.5,0,0,0,.5.5h1a.5.5,0,0,0,.5-.5V12H22.5A.5.5,0,0,0,22,12.5Z" style="fill:#d7ccc8"/><path d="M25.5,10h-1a.5.5,0,0,0-.5.5V12h1.5a.5.5,0,0,0,.5-.5v-1A.5.5,0,0,0,25.5,10Z" style="fill:#d7ccc8"/><path d="M14.5,22H16V20H14.5a.5.5,0,0,0-.5.5v1A.5.5,0,0,0,14.5,22Z" style="fill:#d7ccc8"/><path d="M18,26V22.5a.5.5,0,0,0-.5-.5H16v5.5a.5.5,0,0,0,.5.5h3a.5.5,0,0,0,.5-.5v-1a.5.5,0,0,0-.5-.5Z" style="fill:#d7ccc8"/><path d="M30,27.5V22H28.5a.5.5,0,0,0-.5.5V26H26.5a.5.5,0,0,0-.5.5v1a.5.5,0,0,0,.5.5h3A.5.5,0,0,0,30,27.5Z" style="fill:#d7ccc8"/><path d="M31.5,20H30v2h1.5a.5.5,0,0,0,.5-.5v-1A.5.5,0,0,0,31.5,20Z" style="fill:#d7ccc8"/><path d="M28,16v3.5a.5.5,0,0,0,.5.5H30V14.5a.5.5,0,0,0-.5-.5h-3a.5.5,0,0,0-.5.5v1a.5.5,0,0,0,.5.5Z" style="fill:#d7ccc8"/></svg>