<svg xmlns="http://www.w3.org/2000/svg" xmlns:xlink="http://www.w3.org/1999/xlink" viewBox="0 0 24 24">
  <defs>
    <style>
      .a {
        fill: none;
      }

      .b {
        fill: #795548;
      }

      .c {
        fill: #ff5722;
      }

      .d {
        clip-path: url(#a);
      }

      .e {
        fill: url(#b);
      }
    </style>
    <clipPath id="a">
      <path class="a" d="M10,4H4A1.99309,1.99309,0,0,0,2,6V18a2.00977,2.00977,0,0,0,2,2H20a2.00977,2.00977,0,0,0,2-2V8a2,2,0,0,0-2-2H12Z"/>
    </clipPath>
    <radialGradient id="b" cx="12.7875" cy="14.7875" r="10.42669" gradientTransform="translate(0.21155 2.91023) rotate(1.03039) scale(1 0.78777)" gradientUnits="userSpaceOnUse">
      <stop offset="0" stop-color="#ff5722" stop-opacity="0.4"/>
      <stop offset="1" stop-color="#ff5722" stop-opacity="0"/>
    </radialGradient>
  </defs>
  <g>
    <path class="b" d="M10,4H4A1.99309,1.99309,0,0,0,2,6V18a2.00977,2.00977,0,0,0,2,2H20a2.00977,2.00977,0,0,0,2-2V8a2,2,0,0,0-2-2H12Z"/>
    <circle class="c" cx="9" cy="14.5625" r="2.5"/>
    <circle class="c" cx="16.35" cy="14.5625" r="2.5"/>
    <g class="d">
      <rect class="e" x="2" y="4" width="20" height="16"/>
    </g>
  </g>
</svg>
