<svg xmlns="http://www.w3.org/2000/svg" xmlns:xlink="http://www.w3.org/1999/xlink" viewBox="0 0 24 24">
  <defs>
    <style>
      .a {
        fill: none;
      }

      .b {
        clip-path: url(#a);
      }

      .c {
        fill: url(#b);
      }

      .d {
        fill: #f5f5f5;
      }
    </style>
    <clipPath id="a">
      <path class="a" d="M19,20H4a2,2,0,0,1-2-2V6A1.99309,1.99309,0,0,1,4,4h6l2,2h7a2.00977,2.00977,0,0,1,2,2H4V18l2.14-8H23.21l-2.28,8.5A2.00187,2.00187,0,0,1,19,20Z"/>
    </clipPath>
    <radialGradient id="b" cx="23.52" cy="24.075" r="20.16962" gradientUnits="userSpaceOnUse">
      <stop offset="0" stop-color="#81d4fa"/>
      <stop offset="1" stop-color="#5c6bc0"/>
    </radialGradient>
  </defs>
  <g>
    <g class="b">
      <rect class="c" width="24" height="24"/>
    </g>
    <g>
      <path class="d" d="M15.09473,21.06641H13.85645a1.70223,1.70223,0,0,1-1.15821-.38086,1.74173,1.74173,0,0,1-.65429-1.2168,5.00255,5.00255,0,0,1,.0205-1.06055c.03809-.417.084-.93457-.07129-1.09765-.13086-.13672-.17382-.15137-.21582-.16407a1.53271,1.53271,0,0,0-.26757-.04492h-.2959v-1.5h.29785a1.63508,1.63508,0,0,0,.26562-.043c.041-.01367.083-.02734.21582-.166.15528-.16309.10938-.68067.07129-1.09668a4.99459,4.99459,0,0,1-.0205-1.05957,1.73488,1.73488,0,0,1,.65625-1.21875,1.69812,1.69812,0,0,1,1.15625-.37988h1.23828v1.5H13.85645c-.15332,0-.15332,0-.23243.0625-.03222.02441-.07031.05468-.09179.22265a3.97789,3.97789,0,0,0,.02636.73828,2.82833,2.82833,0,0,1-.41113,2.19043,2.83066,2.83066,0,0,1,.41113,2.19141,3.98585,3.98585,0,0,0-.02636.73926c.02148.167.06054.19726.09179.22265.07911.06153.07911.06153.23243.06153h1.23828Z"/>
      <path class="d" d="M20.90527,21.06641H19.667v-1.5h1.23828c.15332,0,.15332,0,.23243-.0625.03125-.02344.07031-.05469.09082-.21973a4.01188,4.01188,0,0,0-.02539-.74316,2.82531,2.82531,0,0,1,.41113-2.18946,2.82442,2.82442,0,0,1-.41113-2.18847,3.98778,3.98778,0,0,0,.02539-.74024c-.02051-.16894-.0586-.19824-.08887-.22168-.08106-.06347-.08106-.06347-.23438-.06347H19.667v-1.5h1.23828a1.70222,1.70222,0,0,1,1.15821.38085,1.73067,1.73067,0,0,1,.65332,1.21973,4.92713,4.92713,0,0,1-.02051,1.0586c-.03711.416-.083.93261.07226,1.0957.13282.13867.17481.15234.21583.165a1.59853,1.59853,0,0,0,.2666.04394h.29687v1.5H23.25a1.55467,1.55467,0,0,0-.26562.044c-.042.01367-.085.02832-.21583.165-.15527.16308-.10937.68066-.07226,1.09668a4.95063,4.95063,0,0,1,.02051,1.06152,1.73187,1.73187,0,0,1-.65332,1.21582A1.69849,1.69849,0,0,1,20.90527,21.06641Z"/>
      <path class="d" d="M18.13086,12.91113h-1.5V10.68555a2.63332,2.63332,0,0,1,.80273-1.82617l1.51075-1.51856,1.0625,1.05859-1.5127,1.52051a1.10107,1.10107,0,0,0-.36816.85254Z"/>
    </g>
  </g>
</svg>
