<svg xmlns="http://www.w3.org/2000/svg" viewBox="0 0 32 32"><rect width="32" height="32" style="fill:#e9f4ff"/><g style="opacity:0.4"><line y1="30" x2="32" y2="30" style="fill:none;stroke:#1565c0;stroke-miterlimit:10;stroke-width:0.10000000149011612px"/><line y1="28" x2="32" y2="28" style="fill:none;stroke:#1565c0;stroke-miterlimit:10;stroke-width:0.10000000149011612px"/><line y1="26" x2="32" y2="26" style="fill:none;stroke:#1565c0;stroke-miterlimit:10;stroke-width:0.10000000149011612px"/><line y1="24" x2="32" y2="24" style="fill:none;stroke:#1565c0;stroke-miterlimit:10;stroke-width:0.10000000149011612px"/><line y1="22" x2="32" y2="22" style="fill:none;stroke:#1565c0;stroke-miterlimit:10;stroke-width:0.10000000149011612px"/><line y1="20" x2="32" y2="20" style="fill:none;stroke:#1565c0;stroke-miterlimit:10;stroke-width:0.10000000149011612px"/><line y1="18" x2="32" y2="18" style="fill:none;stroke:#1565c0;stroke-miterlimit:10;stroke-width:0.10000000149011612px"/><line y1="16" x2="32" y2="16" style="fill:none;stroke:#1565c0;stroke-miterlimit:10;stroke-width:0.10000000149011612px"/><line y1="14" x2="32" y2="14" style="fill:none;stroke:#1565c0;stroke-miterlimit:10;stroke-width:0.10000000149011612px"/><line y1="12" x2="32" y2="12" style="fill:none;stroke:#1565c0;stroke-miterlimit:10;stroke-width:0.10000000149011612px"/><line y1="10" x2="32" y2="10" style="fill:none;stroke:#1565c0;stroke-miterlimit:10;stroke-width:0.10000000149011612px"/><line y1="8" x2="32" y2="8" style="fill:none;stroke:#1565c0;stroke-miterlimit:10;stroke-width:0.10000000149011612px"/><line y1="6" x2="32" y2="6" style="fill:none;stroke:#1565c0;stroke-miterlimit:10;stroke-width:0.10000000149011612px"/><line y1="4" x2="32" y2="4" style="fill:none;stroke:#1565c0;stroke-miterlimit:10;stroke-width:0.10000000149011612px"/><line y1="2" x2="32" y2="2" style="fill:none;stroke:#1565c0;stroke-miterlimit:10;stroke-width:0.10000000149011612px"/><line x1="30" x2="30" y2="32" style="fill:none;stroke:#1565c0;stroke-miterlimit:10;stroke-width:0.10000000149011612px"/><line x1="28" x2="28" y2="32" style="fill:none;stroke:#1565c0;stroke-miterlimit:10;stroke-width:0.10000000149011612px"/><line x1="26" x2="26" y2="32" style="fill:none;stroke:#1565c0;stroke-miterlimit:10;stroke-width:0.10000000149011612px"/><line x1="24" x2="24" y2="32" style="fill:none;stroke:#1565c0;stroke-miterlimit:10;stroke-width:0.10000000149011612px"/><line x1="22" x2="22" y2="32" style="fill:none;stroke:#1565c0;stroke-miterlimit:10;stroke-width:0.10000000149011612px"/><line x1="20" x2="20" y2="32" style="fill:none;stroke:#1565c0;stroke-miterlimit:10;stroke-width:0.10000000149011612px"/><line x1="18" x2="18" y2="32" style="fill:none;stroke:#1565c0;stroke-miterlimit:10;stroke-width:0.10000000149011612px"/><line x1="16" x2="16" y2="32" style="fill:none;stroke:#1565c0;stroke-miterlimit:10;stroke-width:0.10000000149011612px"/><line x1="14" x2="14" y2="32" style="fill:none;stroke:#1565c0;stroke-miterlimit:10;stroke-width:0.10000000149011612px"/><line x1="12" x2="12" y2="32" style="fill:none;stroke:#1565c0;stroke-miterlimit:10;stroke-width:0.10000000149011612px"/><line x1="10" x2="10" y2="32" style="fill:none;stroke:#1565c0;stroke-miterlimit:10;stroke-width:0.10000000149011612px"/><line x1="8" x2="8" y2="32" style="fill:none;stroke:#1565c0;stroke-miterlimit:10;stroke-width:0.10000000149011612px"/><line x1="6" x2="6" y2="32" style="fill:none;stroke:#1565c0;stroke-miterlimit:10;stroke-width:0.10000000149011612px"/><line x1="4" x2="4" y2="32" style="fill:none;stroke:#1565c0;stroke-miterlimit:10;stroke-width:0.10000000149011612px"/><line x1="2" x2="2" y2="32" style="fill:none;stroke:#1565c0;stroke-miterlimit:10;stroke-width:0.10000000149011612px"/></g><path d="M28,10a4,4,0,0,0-4-4H18v6a6,6,0,0,1-6,6H10v2h2v6h4V20h8v6h4V16h2V12A2,2,0,0,0,28,10Z" style="fill:none;stroke:#000;stroke-miterlimit:10;stroke-width:0.20000000298023224px"/><path d="M12,4H8V6a6,6,0,0,0-6,6v6a2,2,0,0,0,2,2v2H2.5a.5.5,0,0,0-.5.5v3a.5.5,0,0,0,.5.5H6a2,2,0,0,0,2-2V16h4a4,4,0,0,0,4-4V8A4,4,0,0,0,12,4ZM6,14H4V12H6Z" style="fill:none;stroke:#000;stroke-miterlimit:10;stroke-width:0.20000000298023224px"/></svg>