<svg xmlns="http://www.w3.org/2000/svg" viewBox="0 0 32 32"><path d="M13.84376,7.53645l-1.28749-1.0729A2,2,0,0,0,11.27591,6H4A2,2,0,0,0,2,8V24a2,2,0,0,0,2,2H28a2,2,0,0,0,2-2V10a2,2,0,0,0-2-2H15.12412A2,2,0,0,1,13.84376,7.53645Z" style="fill:#e57373"/><path d="M30,14H26V12l-2-2H20l-2,2v2H14a2,2,0,0,0-2,2V26a2,2,0,0,0,2,2H30a2,2,0,0,0,2-2V16A2,2,0,0,0,30,14ZM20,14V12h4v2Z" style="fill:#ffcdd2;fill-rule:evenodd"/><text transform="translate(3.99961 12.0001)" style="font-size:2.5px;font-family:FuturaBT-Medium, Futura Md BT;font-weight:500">Background</text><text transform="translate(13.99961 26.0001)" style="font-size:2.5px;font-family:FuturaBT-Medium, Futura Md BT;font-weight:500">Motive</text></svg>