<svg xmlns="http://www.w3.org/2000/svg" viewBox="0 0 32 32"><path d="M14.07451,6.69149,12.89805,5.51122a1.65231,1.65231,0,0,0-1.16991-.51H5.07989A2.04,2.04,0,0,0,3.25242,7.20151v17.602a2.04,2.04,0,0,0,1.82747,2.20025H27.00953A2.04,2.04,0,0,0,28.837,24.80348V9.40176a2.04,2.04,0,0,0-1.82747-2.20025H15.24437A1.65225,1.65225,0,0,1,14.07451,6.69149Z" style="fill:#e57373"/><path d="M29.4171,17.139h-3.426V15.426l-1.713-1.713H20.852l-1.713,1.713v1.713H15.713A1.713,1.713,0,0,0,14,18.852V27.4171a1.713,1.713,0,0,0,1.713,1.713H29.4171a1.713,1.713,0,0,0,1.713-1.713V18.852A1.713,1.713,0,0,0,29.4171,17.139Zm-8.56506,0V15.426h3.426v1.713Z" style="fill:#ffcdd2;fill-rule:evenodd"/></svg>