<svg xmlns="http://www.w3.org/2000/svg" viewBox="0 0 32 32"><rect width="32" height="32" style="fill:#ffebf5"/><path d="M14.07451,6.69149,12.89805,5.51122a1.65231,1.65231,0,0,0-1.16991-.51H5.07989A2.04,2.04,0,0,0,3.25242,7.20151v17.602a2.04,2.04,0,0,0,1.82747,2.20025H27.00953A2.04,2.04,0,0,0,28.837,24.80348V9.40176a2.04,2.04,0,0,0-1.82747-2.20025H15.24437A1.65225,1.65225,0,0,1,14.07451,6.69149Z" style="fill:none;stroke:#000;stroke-miterlimit:10;stroke-width:0.20000000298023224px"/><path d="M29.4171,17.139h-3.426V15.426l-1.713-1.713H20.852l-1.713,1.713v1.713H15.713A1.713,1.713,0,0,0,14,18.852V27.4171a1.713,1.713,0,0,0,1.713,1.713H29.4171a1.713,1.713,0,0,0,1.713-1.713V18.852A1.713,1.713,0,0,0,29.4171,17.139Zm-8.56506,0V15.426h3.426v1.713Z" style="fill:none;stroke:#000;stroke-miterlimit:10;stroke-width:0.20000000298023224px;fill-rule:evenodd"/><g style="opacity:0.4"><line y1="30" x2="32" y2="30" style="fill:none;stroke:#bf1616;stroke-miterlimit:10;stroke-width:0.10000000149011612px"/><line y1="28" x2="32" y2="28" style="fill:none;stroke:#bf1616;stroke-miterlimit:10;stroke-width:0.10000000149011612px"/><line y1="26" x2="32" y2="26" style="fill:none;stroke:#bf1616;stroke-miterlimit:10;stroke-width:0.10000000149011612px"/><line y1="24" x2="32" y2="24" style="fill:none;stroke:#bf1616;stroke-miterlimit:10;stroke-width:0.10000000149011612px"/><line y1="22" x2="32" y2="22" style="fill:none;stroke:#bf1616;stroke-miterlimit:10;stroke-width:0.10000000149011612px"/><line y1="20" x2="32" y2="20" style="fill:none;stroke:#bf1616;stroke-miterlimit:10;stroke-width:0.10000000149011612px"/><line y1="18" x2="32" y2="18" style="fill:none;stroke:#bf1616;stroke-miterlimit:10;stroke-width:0.10000000149011612px"/><line y1="16" x2="32" y2="16" style="fill:none;stroke:#bf1616;stroke-miterlimit:10;stroke-width:0.10000000149011612px"/><line y1="14" x2="32" y2="14" style="fill:none;stroke:#bf1616;stroke-miterlimit:10;stroke-width:0.10000000149011612px"/><line y1="12" x2="32" y2="12" style="fill:none;stroke:#bf1616;stroke-miterlimit:10;stroke-width:0.10000000149011612px"/><line y1="10" x2="32" y2="10" style="fill:none;stroke:#bf1616;stroke-miterlimit:10;stroke-width:0.10000000149011612px"/><line y1="8" x2="32" y2="8" style="fill:none;stroke:#bf1616;stroke-miterlimit:10;stroke-width:0.10000000149011612px"/><line y1="6" x2="32" y2="6" style="fill:none;stroke:#bf1616;stroke-miterlimit:10;stroke-width:0.10000000149011612px"/><line y1="4" x2="32" y2="4" style="fill:none;stroke:#bf1616;stroke-miterlimit:10;stroke-width:0.10000000149011612px"/><line y1="2" x2="32" y2="2" style="fill:none;stroke:#bf1616;stroke-miterlimit:10;stroke-width:0.10000000149011612px"/><line x1="30" x2="30" y2="32" style="fill:none;stroke:#bf1616;stroke-miterlimit:10;stroke-width:0.10000000149011612px"/><line x1="28" x2="28" y2="32" style="fill:none;stroke:#bf1616;stroke-miterlimit:10;stroke-width:0.10000000149011612px"/><line x1="26" x2="26" y2="32" style="fill:none;stroke:#bf1616;stroke-miterlimit:10;stroke-width:0.10000000149011612px"/><line x1="24" x2="24" y2="32" style="fill:none;stroke:#bf1616;stroke-miterlimit:10;stroke-width:0.10000000149011612px"/><line x1="22" x2="22" y2="32" style="fill:none;stroke:#bf1616;stroke-miterlimit:10;stroke-width:0.10000000149011612px"/><line x1="20" x2="20" y2="32" style="fill:none;stroke:#bf1616;stroke-miterlimit:10;stroke-width:0.10000000149011612px"/><line x1="18" x2="18" y2="32" style="fill:none;stroke:#bf1616;stroke-miterlimit:10;stroke-width:0.10000000149011612px"/><line x1="16" x2="16" y2="32" style="fill:none;stroke:#bf1616;stroke-miterlimit:10;stroke-width:0.10000000149011612px"/><line x1="14" x2="14" y2="32" style="fill:none;stroke:#bf1616;stroke-miterlimit:10;stroke-width:0.10000000149011612px"/><line x1="12" x2="12" y2="32" style="fill:none;stroke:#bf1616;stroke-miterlimit:10;stroke-width:0.10000000149011612px"/><line x1="10" x2="10" y2="32" style="fill:none;stroke:#bf1616;stroke-miterlimit:10;stroke-width:0.10000000149011612px"/><line x1="8" x2="8" y2="32" style="fill:none;stroke:#bf1616;stroke-miterlimit:10;stroke-width:0.10000000149011612px"/><line x1="6" x2="6" y2="32" style="fill:none;stroke:#bf1616;stroke-miterlimit:10;stroke-width:0.10000000149011612px"/><line x1="4" x2="4" y2="32" style="fill:none;stroke:#bf1616;stroke-miterlimit:10;stroke-width:0.10000000149011612px"/><line x1="2" x2="2" y2="32" style="fill:none;stroke:#bf1616;stroke-miterlimit:10;stroke-width:0.10000000149011612px"/></g></svg>