<svg xmlns="http://www.w3.org/2000/svg" viewBox="0 0 32 32"><rect width="32" height="32" style="fill:#e9f4ff"/><path d="M13.8438,7.5364,12.55627,6.46355A2,2,0,0,0,11.27591,6H4A2,2,0,0,0,2,8V24a2,2,0,0,0,2,2H28a2,2,0,0,0,2-2V10a2,2,0,0,0-2-2H15.1241A1.99989,1.99989,0,0,1,13.8438,7.5364Z" style="fill:none;stroke:#000;stroke-miterlimit:10;stroke-width:0.20000000298023224px"/><path d="M30,14H26V12l-2-2H20l-2,2v2H14a2,2,0,0,0-2,2V26a2,2,0,0,0,2,2H30a2,2,0,0,0,2-2V16A2,2,0,0,0,30,14ZM20,14V12h4v2Z" style="fill:none;stroke:#000;stroke-miterlimit:10;stroke-width:0.20000000298023224px;fill-rule:evenodd"/><g style="opacity:0.4"><line y1="30" x2="32" y2="30" style="fill:none;stroke:#1565c0;stroke-miterlimit:10;stroke-width:0.10000000149011612px"/><line y1="28" x2="32" y2="28" style="fill:none;stroke:#1565c0;stroke-miterlimit:10;stroke-width:0.10000000149011612px"/><line y1="26" x2="32" y2="26" style="fill:none;stroke:#1565c0;stroke-miterlimit:10;stroke-width:0.10000000149011612px"/><line y1="24" x2="32" y2="24" style="fill:none;stroke:#1565c0;stroke-miterlimit:10;stroke-width:0.10000000149011612px"/><line y1="22" x2="32" y2="22" style="fill:none;stroke:#1565c0;stroke-miterlimit:10;stroke-width:0.10000000149011612px"/><line y1="20" x2="32" y2="20" style="fill:none;stroke:#1565c0;stroke-miterlimit:10;stroke-width:0.10000000149011612px"/><line y1="18" x2="32" y2="18" style="fill:none;stroke:#1565c0;stroke-miterlimit:10;stroke-width:0.10000000149011612px"/><line y1="16" x2="32" y2="16" style="fill:none;stroke:#1565c0;stroke-miterlimit:10;stroke-width:0.10000000149011612px"/><line y1="14" x2="32" y2="14" style="fill:none;stroke:#1565c0;stroke-miterlimit:10;stroke-width:0.10000000149011612px"/><line y1="12" x2="32" y2="12" style="fill:none;stroke:#1565c0;stroke-miterlimit:10;stroke-width:0.10000000149011612px"/><line y1="10" x2="32" y2="10" style="fill:none;stroke:#1565c0;stroke-miterlimit:10;stroke-width:0.10000000149011612px"/><line y1="8" x2="32" y2="8" style="fill:none;stroke:#1565c0;stroke-miterlimit:10;stroke-width:0.10000000149011612px"/><line y1="6" x2="32" y2="6" style="fill:none;stroke:#1565c0;stroke-miterlimit:10;stroke-width:0.10000000149011612px"/><line y1="4" x2="32" y2="4" style="fill:none;stroke:#1565c0;stroke-miterlimit:10;stroke-width:0.10000000149011612px"/><line y1="2" x2="32" y2="2" style="fill:none;stroke:#1565c0;stroke-miterlimit:10;stroke-width:0.10000000149011612px"/><line x1="30" x2="30" y2="32" style="fill:none;stroke:#1565c0;stroke-miterlimit:10;stroke-width:0.10000000149011612px"/><line x1="28" x2="28" y2="32" style="fill:none;stroke:#1565c0;stroke-miterlimit:10;stroke-width:0.10000000149011612px"/><line x1="26" x2="26" y2="32" style="fill:none;stroke:#1565c0;stroke-miterlimit:10;stroke-width:0.10000000149011612px"/><line x1="24" x2="24" y2="32" style="fill:none;stroke:#1565c0;stroke-miterlimit:10;stroke-width:0.10000000149011612px"/><line x1="22" x2="22" y2="32" style="fill:none;stroke:#1565c0;stroke-miterlimit:10;stroke-width:0.10000000149011612px"/><line x1="20" x2="20" y2="32" style="fill:none;stroke:#1565c0;stroke-miterlimit:10;stroke-width:0.10000000149011612px"/><line x1="18" x2="18" y2="32" style="fill:none;stroke:#1565c0;stroke-miterlimit:10;stroke-width:0.10000000149011612px"/><line x1="16" x2="16" y2="32" style="fill:none;stroke:#1565c0;stroke-miterlimit:10;stroke-width:0.10000000149011612px"/><line x1="14" x2="14" y2="32" style="fill:none;stroke:#1565c0;stroke-miterlimit:10;stroke-width:0.10000000149011612px"/><line x1="12" x2="12" y2="32" style="fill:none;stroke:#1565c0;stroke-miterlimit:10;stroke-width:0.10000000149011612px"/><line x1="10" x2="10" y2="32" style="fill:none;stroke:#1565c0;stroke-miterlimit:10;stroke-width:0.10000000149011612px"/><line x1="8" x2="8" y2="32" style="fill:none;stroke:#1565c0;stroke-miterlimit:10;stroke-width:0.10000000149011612px"/><line x1="6" x2="6" y2="32" style="fill:none;stroke:#1565c0;stroke-miterlimit:10;stroke-width:0.10000000149011612px"/><line x1="4" x2="4" y2="32" style="fill:none;stroke:#1565c0;stroke-miterlimit:10;stroke-width:0.10000000149011612px"/><line x1="2" x2="2" y2="32" style="fill:none;stroke:#1565c0;stroke-miterlimit:10;stroke-width:0.10000000149011612px"/></g></svg>