<?xml version="1.0" encoding="UTF-8"?>
<svg version="1.1" xmlns="http://www.w3.org/2000/svg" width="32" height="32">
<path d="M0 0 C0 1.32 0 2.64 0 4 C0.66 4.33 1.32 4.66 2 5 C2.33 4.01 2.66 3.02 3 2 C4.65 1.67 6.3 1.34 8 1 C7.67 3.97 7.34 6.94 7 10 C6.34 10 5.68 10 5 10 C5 10.66 5 11.32 5 12 C4.39671875 11.94199219 3.7934375 11.88398438 3.171875 11.82421875 C0.69906631 11.68462471 -1.54659533 11.64221182 -4 12 C-6.2889924 14.360962 -6.2889924 14.360962 -8 17 C-10.75 17.8125 -10.75 17.8125 -13 18 C-12.67 16.35 -12.34 14.7 -12 13 C-13.32 12.67 -14.64 12.34 -16 12 C-16.8125 9.8125 -16.8125 9.8125 -17 7 C-12.83102619 1.52822187 -6.91253343 -2.30417781 0 0 Z " fill="#D2CFDC" transform="translate(20,7)"/>
<path d="M0 0 C1.98 0 3.96 0 6 0 C5.01 0.33 4.02 0.66 3 1 C3 1.99 3 2.98 3 4 C3.62648438 3.98839844 4.25296875 3.97679687 4.8984375 3.96484375 C5.71570312 3.95582031 6.53296875 3.94679688 7.375 3.9375 C8.18710937 3.92589844 8.99921875 3.91429687 9.8359375 3.90234375 C12 4 12 4 14 5 C14 5.66 14 6.32 14 7 C10.25 8.125 10.25 8.125 8 7 C8 7.66 8 8.32 8 9 C6.68 8.67 5.36 8.34 4 8 C4 7.34 4 6.68 4 6 C3.34 6 2.68 6 2 6 C2 7.65 2 9.3 2 11 C0.02 11.99 0.02 11.99 -2 13 C-2 12.01 -2 11.02 -2 10 C-1.34 9.67 -0.68 9.34 0 9 C-0.7425 8.3503125 -0.7425 8.3503125 -1.5 7.6875 C-3 6 -3 6 -3 3 C-2.34 3 -1.68 3 -1 3 C-0.67 2.01 -0.34 1.02 0 0 Z " fill="#4295CF" transform="translate(12,9)"/>
<path d="M0 0 C0 1.32 0 2.64 0 4 C0.66 4.33 1.32 4.66 2 5 C2.33 4.01 2.66 3.02 3 2 C4.65 1.67 6.3 1.34 8 1 C7.67 3.64 7.34 6.28 7 9 C6.67 8.34 6.34 7.68 6 7 C5.37351562 7.01160156 4.74703125 7.02320313 4.1015625 7.03515625 C3.28429688 7.04417969 2.46703125 7.05320312 1.625 7.0625 C0.81289063 7.07410156 0.00078125 7.08570313 -0.8359375 7.09765625 C-3 7 -3 7 -5 6 C-5 5.01 -5 4.02 -5 3 C-5.99 3 -6.98 3 -8 3 C-8.66 3.66 -9.32 4.32 -10 5 C-10 4.34 -10 3.68 -10 3 C-10.66 2.67 -11.32 2.34 -12 2 C-4.71428571 -1.57142857 -4.71428571 -1.57142857 0 0 Z " fill="#A7CBE5" transform="translate(20,7)"/>
<path d="M0 0 C0 2.31 0 4.62 0 7 C0.99 7.33 1.98 7.66 3 8 C2.01 8.33 1.02 8.66 0 9 C0.33 10.32 0.66 11.64 1 13 C0.34 13 -0.32 13 -1 13 C-1 11.68 -1 10.36 -1 9 C-2.32 8.67 -3.64 8.34 -5 8 C-5.36625971 3.48279689 -5.36625971 3.48279689 -3.625 1.1875 C-2 0 -2 0 0 0 Z " fill="#A86E97" transform="translate(10,10)"/>
<path d="M0 0 C1.5 1.125 1.5 1.125 3 3 C3.1875 6.1875 3.1875 6.1875 3 9 C1.02 9.99 1.02 9.99 -1 11 C-1 10.01 -1 9.02 -1 8 C-0.34 7.67 0.32 7.34 1 7 C0.505 6.566875 0.01 6.13375 -0.5 5.6875 C-2 4 -2 4 -2 1 C-1.34 0.67 -0.68 0.34 0 0 Z " fill="#355BC3" transform="translate(11,11)"/>
<path d="M0 0 C0.66 0 1.32 0 2 0 C2 0.66 2 1.32 2 2 C3.32 2.33 4.64 2.66 6 3 C6 2.34 6 1.68 6 1 C8.31 1 10.62 1 13 1 C12.01 1.495 12.01 1.495 11 2 C11 2.66 11 3.32 11 4 C7.37 4 3.74 4 0 4 C0 2.68 0 1.36 0 0 Z " fill="#BDC4CF" transform="translate(14,15)"/>
<path d="M0 0 C-0.33 1.32 -0.66 2.64 -1 4 C-1 3.01 -1 2.02 -1 1 C-5.96911366 2.12697043 -5.96911366 2.12697043 -10 5 C-10 4.34 -10 3.68 -10 3 C-10.66 2.67 -11.32 2.34 -12 2 C-4.71428571 -1.57142857 -4.71428571 -1.57142857 0 0 Z " fill="#E7ECEE" transform="translate(20,7)"/>
<path d="M0 0 C0 1.65 0 3.3 0 5 C-2.97 4.505 -2.97 4.505 -6 4 C-5.67 3.01 -5.34 2.02 -5 1 C-3 0 -3 0 0 0 Z " fill="#FAE5C9" transform="translate(28,8)"/>
<path d="M0 0 C1.4540625 0.0309375 1.4540625 0.0309375 2.9375 0.0625 C1.9475 0.3925 0.9575 0.7225 -0.0625 1.0625 C-0.0625 2.0525 -0.0625 3.0425 -0.0625 4.0625 C0.5975 4.3925 1.2575 4.7225 1.9375 5.0625 C0.2875 4.7325 -1.3625 4.4025 -3.0625 4.0625 C-3.3925 3.0725 -3.7225 2.0825 -4.0625 1.0625 C-3.0625 0.0625 -3.0625 0.0625 0 0 Z " fill="#189AEA" transform="translate(15.0625,8.9375)"/>
</svg>
