<svg xmlns="http://www.w3.org/2000/svg" viewBox="0 0 24 24">
  <defs>
    <style>
      .a {
        fill: #fff9c4;
      }

      .a, .b {
        opacity: 0.9;
      }

      .b {
        fill: #ffee58;
      }

      .c {
        fill: #bf360c;
        opacity: 0.38;
      }

      .d {
        fill: #b0bec5;
      }

      .e {
        fill: #90a4ae;
      }
    </style>
  </defs>
  <g>
    <g>
      <path class="a" d="M13.74526,14.62341c-.02708.69008-.04063,1.38017-.05417,2.05671h2.0297V18.0332h-.74426v1.97544H13.02809c-.01354.35182,0,.64962,0,.8797v.2841a5.913,5.913,0,0,1-.10827.89291c-.14882.41954-.663.59544-1.10945.74426-.02709,0-.04063.01355-.06772.01355H10.29492A1.27033,1.27033,0,0,1,9.023,21.55134V18.0332H8.27876V15.2864a5.17652,5.17652,0,0,0-1.25835-3.34207,6.53678,6.53678,0,0,1,4.817-10.77047,7.99309,7.99309,0,0,1,1.10954.51418A7.15738,7.15738,0,0,1,16.1537,5.4902c.16237.44654,1.0419,2.93616-.06755,4.817a21.87739,21.87739,0,0,1-1.69143,2.55734A2.79091,2.79091,0,0,0,13.84,13.91978,2.4614,2.4614,0,0,0,13.74526,14.62341Z"/>
      <path class="b" d="M13.02307,20.0131h1.95984v1.54368a1.26976,1.26976,0,0,1-1.27041,1.26936H11.74118c.024-.00834.048-.01565.06989-.02295.44015-.14811.95541-.32125,1.10247-.73533a3.90984,3.90984,0,0,0,.10953-.89909c.00208-.072.001-.10534,0-.27431C13.022,20.65769,13.021,20.36042,13.02307,20.0131Z"/>
      <path class="b" d="M18.53754,7.7127a6.5051,6.5051,0,0,1-1.57289,4.25241,5.10971,5.10971,0,0,0-1.237,3.32726v1.383H13.69581q.01408-1.0107.04694-2.05476a2.68733,2.68733,0,0,1,.6571-1.76063,21.68784,21.68784,0,0,0,1.68971-2.5575c1.09935-1.87953.22842-4.35984.06988-4.81147a7.185,7.185,0,0,0-4.32751-4.31082c.02295-.001.04589-.00209.06884-.00209A6.53536,6.53536,0,0,1,18.53754,7.7127Z"/>
    </g>
    <path class="c" d="M14.18941,8.923a.626.626,0,0,0-.88382-.04583L12,10.05407,10.69441,8.8772a.62583.62583,0,1,0-.838.92975l1.505,1.35665v6.60376h1.25163v-6.5808L14.14357,9.807A.62588.62588,0,0,0,14.18941,8.923Z"/>
    <rect class="d" x="7.51486" y="16.67341" width="8.97002" height="3.33768" rx="0.55851"/>
    <path class="e" d="M15.92712,16.67393H13.694v.00834h.1485a.55552.55552,0,0,1,.55554.55554V19.389a.58087.58087,0,0,1-.58086.58087h-.79593v.04172h2.90587a.558.558,0,0,0,.558-.558V17.232A.558.558,0,0,0,15.92712,16.67393Z"/>
  </g>
</svg>
