<svg xmlns="http://www.w3.org/2000/svg" viewBox="0 0 24 24">
  <defs>
    <style>
      .a {
        fill: #263238;
      }

      .b {
        fill: #42a5f5;
      }
    </style>
  </defs>
  <path class="a" d="M5.54173,2H18.45827A3.58491,3.58491,0,0,1,21.9999,5.63248v12.735A3.58491,3.58491,0,0,1,18.45827,22H5.54173A3.58491,3.58491,0,0,1,2.0001,18.36752V5.63248A3.58491,3.58491,0,0,1,5.54173,2Z"/>
  <g>
    <path class="b" d="M6.50005,15.925V7.35005c0-.05834.025-.09167.08334-.09167.14166,0,.275,0,.46666-.00833.2-.00834.40833-.00834.63333-.01667s.46666-.00833.725-.01667.50833-.00833.75832-.00833a4.89982,4.89982,0,0,1,1.71665.25833A2.97582,2.97582,0,0,1,12,8.15a2.65342,2.65342,0,0,1,.60833.95A3.18955,3.18955,0,0,1,12.8,10.18335a2.97922,2.97922,0,0,1-.5,1.775A2.855,2.855,0,0,1,10.95834,12.975a5.40077,5.40077,0,0,1-1.875.28333c-.2,0-.33333,0-.41666-.00833s-.2-.00834-.35833-.00834v2.675a.10369.10369,0,0,1-.09167.11666H6.60005C6.53339,16.03329,6.50005,16,6.50005,15.925ZM8.3167,8.8667v2.8c.11667.00833.225.01667.325.01667h.44166a3.11279,3.11279,0,0,0,.95833-.15,1.433,1.433,0,0,0,.68332-.44167,1.28767,1.28767,0,0,0,.25833-.85832,1.37155,1.37155,0,0,0-.19166-.74166,1.20846,1.20846,0,0,0-.58333-.475A2.44529,2.44529,0,0,0,9.225,8.85c-.21667,0-.40833,0-.56666.00833a1.90753,1.90753,0,0,0-.34167.00834Z"/>
    <path class="b" d="M17.99994,11.15834a2.94943,2.94943,0,0,0-.8-.28333,4.39261,4.39261,0,0,0-.93333-.10833,1.67778,1.67778,0,0,0-.5.05833.42785.42785,0,0,0-.25833.16667.44157.44157,0,0,0-.06667.225.37068.37068,0,0,0,.08333.21667.9406.9406,0,0,0,.28333.225c.19167.1.39167.19166.59167.275a6.036,6.036,0,0,1,1.28332.60833,1.93906,1.93906,0,0,1,.65832.69166,1.799,1.799,0,0,1,.19167.85833,1.939,1.939,0,0,1-.325,1.10832,2.08828,2.08828,0,0,1-.93332.74166,3.81818,3.81818,0,0,1-1.50832.26666A5.7402,5.7402,0,0,1,14.63331,16.1a3.36151,3.36151,0,0,1-.85-.26667.16387.16387,0,0,1-.09166-.15833v-1.45a.09048.09048,0,0,1,.03333-.075.06345.06345,0,0,1,.075.00833,3.567,3.567,0,0,0,1.03332.40833,3.87965,3.87965,0,0,0,.98333.125,1.59071,1.59071,0,0,0,.69166-.11666.38713.38713,0,0,0,.225-.35.44149.44149,0,0,0-.2-.33333A3.53442,3.53442,0,0,0,15.71663,13.5a5.09845,5.09845,0,0,1-1.18332-.6A2.15758,2.15758,0,0,1,13.9,12.19167a1.78818,1.78818,0,0,1-.19167-.85,1.96,1.96,0,0,1,.28333-1.00832,2.05417,2.05417,0,0,1,.875-.76666,3.23151,3.23151,0,0,1,1.475-.29166,7.184,7.184,0,0,1,1.03332.075,2.93223,2.93223,0,0,1,.71666.19166.1464.1464,0,0,1,.08333.075.418.418,0,0,1,.01667.1V11.075a.10256.10256,0,0,1-.04167.08333A.222.222,0,0,1,17.99994,11.15834Z"/>
  </g>
</svg>
