<svg xmlns="http://www.w3.org/2000/svg" viewBox="0 0 24 24">
  <defs>
    <style>
      .a {
        fill: #aed581;
      }
    </style>
  </defs>
  <g>
    <path class="a" d="M22,22H2V2H22ZM3,3V21H21V3Z"/>
    <path class="a" d="M16.79,11.42H16.5a2.44,2.44,0,0,0-1.56.73,2.18,2.18,0,0,0-.45.77,1.61,1.61,0,0,0-.09.74,1.87994,1.87994,0,0,0,.23,1.11,2.52,2.52,0,0,0,.94,1,10.259,10.259,0,0,0,1.09.54c.87.38,1.15.55,1.28.81l.05.11v.53a1,1,0,0,1-.63.45,1.32032,1.32032,0,0,1-.42,0,1.45023,1.45023,0,0,1-.42,0A1.61,1.61,0,0,1,16,18a3.11981,3.11981,0,0,1-.6-.6.57.57,0,0,0-.13-.15s-1.1.62-1.29.74-.08.06-.08.09a2.85007,2.85007,0,0,0,.45.68,3.41,3.41,0,0,0,1.92,1,5.85033,5.85033,0,0,0,1.08,0,3.15977,3.15977,0,0,0,.67-.12,2.25,2.25,0,0,0,1.63-1.49,2.66993,2.66993,0,0,0,.09-1,2.2,2.2,0,0,0-.63-1.45,5.53005,5.53005,0,0,0-1.79-1.06c-.83-.36-1-.5-1.16-.76a.76.76,0,0,1,0-.71.82.82,0,0,1,.8-.28,1,1,0,0,1,.73.45c.11.14.18.22.21.22a3.87064,3.87064,0,0,0,.65-.4,3.6202,3.6202,0,0,0,.63-.45,1.66143,1.66143,0,0,0-.27-.43,2.27,2.27,0,0,0-1.6-.88h-.56Zm-5.2.09H7.11a4.31946,4.31946,0,0,0,0,.76V13h2.3v6.61H11.1V13h2.32v-.75a2.99987,2.99987,0,0,0,0-.76H11.59Z"/>
  </g>
</svg>
